<svg width="22" height="41" viewBox="0 0 22 41" fill="none" xmlns="http://www.w3.org/2000/svg">
<path fill-rule="evenodd" clip-rule="evenodd" d="M1.015 29.3575C0.205988 30.9404 0.861235 32.8689 2.48327 33.6609C4.10431 34.4528 6.07407 33.8116 6.88509 32.2248L8.21267 29.6319L5.47912 20.6343L1.015 29.3575ZM19.5277 0.341744C17.9077 -0.45018 15.9369 0.189992 15.1259 1.77485L9.77139 12.2397L12.508 21.2363L20.995 4.64407C21.804 3.06122 21.1478 1.13568 19.5277 0.341744Z" fill="#92C746"/>
<path fill-rule="evenodd" clip-rule="evenodd" d="M10.6648 37.7069C11.1814 39.4043 13.0064 40.3731 14.742 39.8686C16.4806 39.3641 17.4705 37.5783 16.956 35.8788L12.5069 21.2373L8.21165 29.6339L10.6638 37.7079L10.6648 37.7069ZM7.97447 6.31833C7.45791 4.61891 5.63287 3.65011 3.89425 4.15561C2.15865 4.66011 1.16874 6.44496 1.68329 8.14237L5.4781 20.6343L9.77138 12.2387L7.97447 6.31833Z" fill="#D50F67"/>
<path fill-rule="evenodd" clip-rule="evenodd" d="M5.47815 20.6344L8.2127 29.6329L12.508 21.2363L9.77243 12.2397L5.47815 20.6344Z" fill="#3BA510"/>
</svg>
