<svg width="37" height="36" viewBox="0 0 37 36" fill="none" xmlns="http://www.w3.org/2000/svg">
<g clip-path="url(#clip0_202_10006)">
<path d="M8.37671 23.0255V31.3976C8.37671 33.7091 14.5612 35.5836 22.1907 35.5836C29.8201 35.5836 36.0046 33.7091 36.0046 31.3976V23.0255H8.37671Z" fill="#881421"/>
<path d="M8.37671 13.8162V23.0255C8.37671 25.337 14.5612 27.2115 22.1907 27.2115C29.8201 27.2115 36.0046 25.337 36.0046 23.0255V13.8162H8.37671Z" fill="#AF2031"/>
<path d="M8.37671 4.60681V13.8161C8.37671 16.1276 14.5612 18.0022 22.1907 18.0022C29.8201 18.0022 36.0046 16.1276 36.0046 13.8161V4.60681H8.37671Z" fill="#C94F60"/>
<path d="M22.1907 8.79287C29.8199 8.79287 36.0046 6.91871 36.0046 4.60682C36.0046 2.29493 29.8199 0.420776 22.1907 0.420776C14.5614 0.420776 8.37671 2.29493 8.37671 4.60682C8.37671 6.91871 14.5614 8.79287 22.1907 8.79287Z" fill="#E08095"/>
<path opacity="0.1" d="M18.563 7.95569H8.37671V28.8859H18.563C19.4094 28.8831 20.0949 28.1977 20.0976 27.3513V9.49029C20.0949 8.64389 19.4094 7.95845 18.563 7.95569Z" fill="black"/>
<path opacity="0.2" d="M17.7258 8.79285H8.37671V29.7231H17.7258C18.5722 29.7203 19.2577 29.0349 19.2604 28.1885V10.3275C19.2577 9.48105 18.5722 8.79561 17.7258 8.79285Z" fill="black"/>
<path opacity="0.2" d="M17.7258 8.79285H8.37671V28.0487H17.7258C18.5722 28.0459 19.2577 27.3604 19.2604 26.514V10.3275C19.2577 9.48105 18.5722 8.79561 17.7258 8.79285Z" fill="black"/>
<path opacity="0.2" d="M16.8886 8.79285H8.37671V28.0487H16.8886C17.735 28.0459 18.4205 27.3604 18.4232 26.514V10.3275C18.4205 9.48105 17.735 8.79561 16.8886 8.79285Z" fill="black"/>
<path d="M1.53924 8.79285H16.8886C17.7362 8.79285 18.4233 9.47991 18.4233 10.3275V25.6768C18.4233 26.5244 17.7362 27.2114 16.8886 27.2114H1.53924C0.691706 27.2114 0.00463867 26.5244 0.00463867 25.6768V10.3275C0.00463867 9.47991 0.691706 8.79285 1.53924 8.79285Z" fill="url(#paint0_linear_202_10006)"/>
<path d="M8.11138 13.0132H10.3718L14.0037 22.9902H11.8688L11.0684 20.6109H7.33194L6.5458 22.9902H4.42432L8.11138 13.0132ZM10.5878 19.0737L9.42664 15.4629C9.3317 15.1982 9.26053 14.9256 9.214 14.6483H9.17214C9.12898 14.9332 9.05918 15.2135 8.96366 15.4855L7.79157 19.0754L10.5878 19.0737Z" fill="white"/>
</g>
<defs>
<linearGradient id="paint0_linear_202_10006" x1="3.20432" y1="7.59374" x2="15.2236" y2="28.4106" gradientUnits="userSpaceOnUse">
<stop stop-color="#B72C3F"/>
<stop offset="0.5" stop-color="#B12334"/>
<stop offset="1" stop-color="#9D1623"/>
</linearGradient>
<clipPath id="clip0_202_10006">
<rect width="37" height="36" fill="white"/>
</clipPath>
</defs>
</svg>
