<svg width="37" height="37" viewBox="0 0 37 37" fill="none" xmlns="http://www.w3.org/2000/svg">
<g clip-path="url(#clip0_202_9953)">
<path d="M0.0065918 13.0308C0.0065918 8.47034 0.0065918 6.19013 0.89411 4.44827C1.67479 2.9161 2.92049 1.6704 4.45267 0.889716C6.19452 0.00219727 8.47474 0.00219727 13.0352 0.00219727H22.978C27.5384 0.00219727 29.8187 0.00219727 31.5605 0.889716C33.0927 1.6704 34.3384 2.9161 35.1191 4.44827C36.0066 6.19013 36.0066 8.47034 36.0066 13.0308V22.9736C36.0066 27.5341 36.0066 29.8143 35.1191 31.5561C34.3384 33.0883 33.0927 34.334 31.5605 35.1147C29.8187 36.0022 27.5384 36.0022 22.978 36.0022H13.0352C8.47474 36.0022 6.19452 36.0022 4.45267 35.1147C2.92049 34.334 1.67479 33.0883 0.89411 31.5561C0.0065918 29.8143 0.0065918 27.5341 0.0065918 22.9736V13.0308Z" fill="#B30B00"/>
<path d="M28.3439 20.442C26.663 18.5988 22.0824 19.4052 20.9758 19.5204C19.4069 17.9076 18.3003 16.0788 17.8521 15.3876C18.4124 13.6596 18.8606 11.7156 18.8606 9.87239C18.8606 8.14439 18.1883 6.43079 16.4093 6.43079C15.7369 6.43079 15.1766 6.77639 14.8404 7.35239C14.056 8.73479 14.3921 11.4852 15.6248 14.3508C14.9525 16.4244 13.8318 19.5204 12.5011 21.9252C10.7081 22.6164 6.79992 24.4452 6.46374 26.5188C6.35168 27.0948 6.5758 27.786 7.02405 28.1316C7.4723 28.5924 8.03261 28.7076 8.59292 28.7076C10.9322 28.7076 13.2855 25.3812 14.9665 22.386C16.3112 21.9252 18.4264 21.234 20.5556 20.8884C23.0069 23.1924 25.2482 23.5236 26.3688 23.5236C27.9377 23.5236 28.498 22.8324 28.7081 22.2564C29.0023 21.7092 28.7921 20.9028 28.3439 20.442ZM26.775 21.594C26.663 22.0548 26.1026 22.5156 25.0941 22.2852C23.8614 21.9396 22.7548 21.3636 21.8583 20.5572C22.6427 20.442 24.5338 20.2116 25.8785 20.442C26.3268 20.5572 26.8871 20.9028 26.775 21.594ZM15.933 7.81319C16.0451 7.58279 16.2692 7.46759 16.4933 7.46759C17.0536 7.46759 17.1657 8.15879 17.1657 8.73479C17.0536 10.1172 16.8295 11.6004 16.3812 12.8676C15.4847 10.3476 15.5968 8.50439 15.933 7.81319ZM15.8209 20.7876C16.3812 19.7508 17.0536 17.8068 17.2777 17.1156C17.8381 18.1524 18.8466 19.3044 19.2949 19.866C19.4069 19.7652 17.3898 20.2116 15.8209 20.7876ZM12.0248 23.4372C10.47 25.9572 9.01315 27.57 8.11666 27.57C8.00459 27.57 7.78047 27.57 7.66841 27.4548C7.55634 27.2244 7.44428 26.994 7.55634 26.7636C7.66841 25.842 9.4614 24.5748 12.0248 23.4372Z" fill="white"/>
</g>
<defs>
<clipPath id="clip0_202_9953">
<rect width="37" height="37" fill="white"/>
</clipPath>
</defs>
</svg>
