<svg width="36" height="36" viewBox="0 0 36 36" fill="none" xmlns="http://www.w3.org/2000/svg">
<g clip-path="url(#clip0_202_11481)">
<path d="M34.3493 19.5458L20.2274 33.6677C18.9391 34.956 16.8493 34.956 15.561 33.6677C14.2713 32.3794 14.2727 30.2896 15.561 29.0013L29.6843 14.878C30.9726 13.5897 33.0624 13.5897 34.3507 14.878C35.639 16.1677 35.639 18.2561 34.3493 19.5458Z" fill="#FBBC04"/>
<path d="M20.2274 33.6689C21.5163 32.3799 21.5163 30.2902 20.2274 29.0013C18.9385 27.7124 16.8487 27.7124 15.5598 29.0013C14.2709 30.2902 14.2709 32.3799 15.5598 33.6689C16.8487 34.9578 18.9385 34.9578 20.2274 33.6689Z" fill="#34A853"/>
<path d="M22.7294 7.92432L15.667 14.9853L20.3334 19.6517L27.3958 12.5907C28.6841 11.3024 28.6841 9.21262 27.3958 7.92432C26.106 6.6346 24.0177 6.6346 22.7294 7.92432Z" fill="#FBBC04"/>
<path d="M13.2723 26.7141L20.3332 19.6531L15.6668 14.9867L8.60587 22.0477C7.31757 23.336 7.31757 25.4257 8.60587 26.7141C9.89418 28.0024 11.984 28.0024 13.2723 26.7141Z" fill="#3B80EF"/>
<path d="M20.3499 19.637C21.6388 18.3481 21.6388 16.2584 20.3499 14.9695C19.061 13.6805 16.9713 13.6805 15.6824 14.9695C14.3935 16.2584 14.3935 18.3481 15.6824 19.637C16.9713 20.9259 19.061 20.9259 20.3499 19.637Z" fill="#34A853"/>
<path d="M20.4405 5.63555L6.31719 19.7589C5.02889 21.0472 2.9391 21.0472 1.6508 19.7589C0.362495 18.4706 0.362495 16.3808 1.6508 15.0925L15.7741 0.969156C17.0624 -0.319146 19.1522 -0.319146 20.4405 0.969156C21.7288 2.25746 21.7288 4.34724 20.4405 5.63555Z" fill="#3B80EF"/>
<path d="M18.1066 6.60352C19.9294 6.60352 21.4071 5.12585 21.4071 3.30304C21.4071 1.48024 19.9294 0.00256348 18.1066 0.00256348C16.2838 0.00256348 14.8062 1.48024 14.8062 3.30304C14.8062 5.12585 16.2838 6.60352 18.1066 6.60352Z" fill="#34A853"/>
</g>
<defs>
<clipPath id="clip0_202_11481">
<rect width="36" height="36.0026" fill="white"/>
</clipPath>
</defs>
</svg>
