<svg width="32" height="33" viewBox="0 0 32 33" fill="none" xmlns="http://www.w3.org/2000/svg">
<g clip-path="url(#clip0_202_11423)">
<path d="M15.2705 0.0537633C15.7313 0.0153634 16.1793 0.00256348 16.6401 0.00256348C24.9729 0.309762 31.6672 6.99134 32 15.3241V27.9065C31.9872 30.1848 30.1312 32.0152 27.8657 32.0025C25.7921 31.6824 24.2049 29.9928 24.0129 27.9065V15.3241C23.6673 10.9337 19.8273 7.64413 15.4369 7.98973C15.3857 7.98973 15.3345 8.00253 15.2833 8.00253" fill="#FBBC04"/>
<path d="M31.9999 27.996C31.9999 30.1976 30.2079 31.9896 28.0063 31.9896C25.8047 31.9896 24.0127 30.1976 24.0127 27.996C24.0127 25.7944 25.8047 24.0024 28.0063 24.0024C30.2079 24.0024 31.9999 25.7944 31.9999 27.996Z" fill="#4285F4"/>
<path d="M15.5007 31.8616C17.7663 31.8872 19.6223 30.0824 19.6479 27.8168C19.6479 27.804 19.6479 27.804 19.6479 27.7912C19.5839 25.5896 17.7407 23.8488 15.5391 23.9128C15.5135 23.9128 15.4751 23.9128 15.4495 23.9128C11.0848 23.58 7.79517 19.7913 8.10237 15.4137V15.3497C8.42237 11.4073 11.5584 8.2969 15.5007 8.0025C17.7023 8.0921 19.5583 6.3769 19.6479 4.17531C19.6479 4.14971 19.6479 4.13691 19.6479 4.11131C19.6223 1.84572 17.7663 0.0153305 15.5007 0.0406651H15.2191C6.73277 0.437729 0.0511998 7.4009 0 15.9001V15.9641C0 25.9352 8.74236 31.8744 15.2575 31.8744H15.5007V31.8616Z" fill="#EA4335"/>
</g>
<defs>
<clipPath id="clip0_202_11423">
<rect width="32" height="33" fill="white"/>
</clipPath>
</defs>
</svg>
