<svg width="36" height="37" viewBox="0 0 36 37" fill="none" xmlns="http://www.w3.org/2000/svg">
<g clip-path="url(#clip0_202_10347)">
<path d="M0 13.0308C0 8.47034 0 6.19013 0.887518 4.44827C1.6682 2.9161 2.9139 1.6704 4.44608 0.889716C6.18793 0.00219727 8.46814 0.00219727 13.0286 0.00219727H22.9714C27.5319 0.00219727 29.8121 0.00219727 31.5539 0.889716C33.0861 1.6704 34.3318 2.9161 35.1125 4.44827C36 6.19013 36 8.47034 36 13.0308V22.9736C36 27.5341 36 29.8143 35.1125 31.5561C34.3318 33.0883 33.0861 34.334 31.5539 35.1147C29.8121 36.0022 27.5319 36.0022 22.9714 36.0022H13.0286C8.46814 36.0022 6.18793 36.0022 4.44608 35.1147C2.9139 34.334 1.6682 33.0883 0.887518 31.5561C0 29.8143 0 27.5341 0 22.9736V13.0308Z" fill="#584CCC"/>
<path d="M28.3374 20.442C26.6565 18.5988 22.0759 19.4052 20.9693 19.5204C19.4005 17.9076 18.2938 16.0788 17.8456 15.3876C18.4059 13.6596 18.8542 11.7156 18.8542 9.87239C18.8542 8.14439 18.1818 6.43079 16.4028 6.43079C15.7304 6.43079 15.1701 6.77639 14.8339 7.35239C14.0495 8.73479 14.3857 11.4852 15.6184 14.3508C14.946 16.4244 13.8254 19.5204 12.4946 21.9252C10.7016 22.6164 6.79345 24.4452 6.45727 26.5188C6.34521 27.0948 6.56933 27.786 7.01758 28.1316C7.46583 28.5924 8.02614 28.7076 8.58645 28.7076C10.9258 28.7076 13.2791 25.3812 14.96 22.386C16.3047 21.9252 18.4199 21.234 20.5491 20.8884C23.0005 23.1924 25.2417 23.5236 26.3623 23.5236C27.9312 23.5236 28.4915 22.8324 28.7016 22.2564C28.9958 21.7092 28.7857 20.9028 28.3374 20.442ZM26.7686 21.594C26.6565 22.0548 26.0962 22.5156 25.0876 22.2852C23.8549 21.9396 22.7483 21.3636 21.8518 20.5572C22.6363 20.442 24.5273 20.2116 25.8721 20.442C26.3203 20.5572 26.8806 20.9028 26.7686 21.594ZM15.9265 7.81319C16.0386 7.58279 16.2627 7.46759 16.4868 7.46759C17.0472 7.46759 17.1592 8.15879 17.1592 8.73479C17.0472 10.1172 16.823 11.6004 16.3748 12.8676C15.4783 10.3476 15.5903 8.50439 15.9265 7.81319ZM15.8145 20.7876C16.3748 19.7508 17.0472 17.8068 17.2713 17.1156C17.8316 18.1524 18.8401 19.3044 19.2884 19.866C19.4005 19.7652 17.3833 20.2116 15.8145 20.7876ZM12.0184 23.4372C10.4635 25.9572 9.00668 27.57 8.11019 27.57C7.99812 27.57 7.774 27.57 7.66194 27.4548C7.54987 27.2244 7.43781 26.994 7.54988 26.7636C7.66194 25.842 9.45493 24.5748 12.0184 23.4372Z" fill="white"/>
</g>
<defs>
<clipPath id="clip0_202_10347">
<rect width="36" height="37" fill="white"/>
</clipPath>
</defs>
</svg>
