<svg width="36" height="37" viewBox="0 0 36 37" fill="none" xmlns="http://www.w3.org/2000/svg">
<g clip-path="url(#clip0_202_10605)">
<path d="M0 13.0308C0 8.47034 0 6.19013 0.887518 4.44827C1.6682 2.9161 2.9139 1.6704 4.44608 0.889716C6.18793 0.00219727 8.46814 0.00219727 13.0286 0.00219727H22.9714C27.5319 0.00219727 29.8121 0.00219727 31.5539 0.889716C33.0861 1.6704 34.3318 2.9161 35.1125 4.44827C36 6.19013 36 8.47034 36 13.0308V22.9736C36 27.5341 36 29.8143 35.1125 31.5561C34.3318 33.0883 33.0861 34.334 31.5539 35.1147C29.8121 36.0022 27.5319 36.0022 22.9714 36.0022H13.0286C8.46814 36.0022 6.18793 36.0022 4.44608 35.1147C2.9139 34.334 1.6682 33.0883 0.887518 31.5561C0 29.8143 0 27.5341 0 22.9736V13.0308Z" fill="#00005B"/>
<path d="M20.626 7.71643L9.16528 19.351L7.71436 25.2924L13.5507 23.8029L25.0114 12.1683L20.626 7.71643Z" fill="#9999FF"/>
<path d="M21.0824 28.2548C20.3008 28.1556 19.8578 27.4692 19.6804 26.7487C18.1153 27.5928 16.7622 28.1886 14.2842 28.1886H8.36638C8.18705 28.1886 8.04033 28.0396 8.04033 27.8576C8.04033 27.6755 8.18705 27.5266 8.36638 27.5266H14.2842C16.8437 27.5266 18.1153 26.8977 19.5988 26.0702C19.5112 24.4684 20.4917 20.6311 22.8104 21.7176C25.1288 22.8208 21.1439 25.8987 20.2999 26.4177C20.3715 26.9266 20.6385 27.5385 21.1965 27.6093C22.6474 27.7914 23.9353 26.4012 24.7015 25.5902C24.9521 25.3184 25.6117 24.4971 25.9568 25.1103C26.0873 25.3585 25.9568 25.6399 25.7286 26.1364C25.5283 26.5801 24.9157 27.6259 25.7612 27.6259C26.2014 27.6259 27.5382 26.6163 27.6523 26.2688C27.7012 26.0867 27.8805 26.004 28.0599 26.0536C28.2392 26.1033 28.3207 26.2853 28.2718 26.4674C28.0762 27.1294 26.4785 28.2879 25.7612 28.2879C25.3047 28.2879 24.9787 28.1389 24.7994 27.8576C24.5385 27.4273 24.7015 26.848 24.9298 26.3019C23.9191 27.3279 22.6169 28.4495 21.0824 28.2548ZM20.2183 25.6564C20.6238 25.3915 23.8333 22.9732 22.5007 22.2968C20.8736 21.5627 20.2459 24.6343 20.2183 25.6564Z" fill="#9999FF"/>
</g>
<defs>
<clipPath id="clip0_202_10605">
<rect width="36" height="37" fill="white"/>
</clipPath>
</defs>
</svg>
