<svg width="33" height="30" viewBox="0 0 33 30" fill="none" xmlns="http://www.w3.org/2000/svg">
<g clip-path="url(#clip0_202_11264)">
<path d="M0.743135 21.4623L11.3752 3.26038C12.7257 4.05546 19.5359 7.82439 20.6358 8.54107L10.0037 26.7441C8.84087 28.2802 -0.729983 23.7935 0.743135 21.4612V21.4623Z" fill="#FBBC04"/>
<path d="M31.2909 21.4619L20.6588 3.26105C19.1724 0.787447 15.9711 -0.111443 13.3418 1.34953C10.7125 2.8105 9.91187 5.95772 11.3982 8.54175L22.0303 26.7448C23.5167 29.2173 26.718 30.1162 29.3473 28.6552C31.8618 27.1943 32.7772 23.9355 31.2909 21.4641V21.4619Z" fill="#4285F4"/>
<path d="M5.34361 29.3587C8.29116 29.3587 10.6806 27.0286 10.6806 24.1542C10.6806 21.2798 8.29116 18.9497 5.34361 18.9497C2.39606 18.9497 0.0065918 21.2798 0.0065918 24.1542C0.0065918 27.0286 2.39606 29.3587 5.34361 29.3587Z" fill="#34A853"/>
</g>
<defs>
<clipPath id="clip0_202_11264">
<rect width="33" height="30" fill="white"/>
</clipPath>
</defs>
</svg>
