<svg width="33" height="30" viewBox="0 0 33 30" fill="none" xmlns="http://www.w3.org/2000/svg">
<g clip-path="url(#clip0_202_11380)">
<path d="M20.2329 8.60738C21.6805 6.12963 20.8209 2.96301 18.3134 1.53188C15.8048 0.102785 12.5981 0.949955 11.1505 3.42771C11.0867 3.53872 11.0267 3.65189 10.9706 3.767L6.07673 12.139C5.96846 12.3054 5.86826 12.4769 5.77651 12.653L0.694519 21.4229L9.77587 26.5131L14.8321 17.8172C14.9423 17.652 15.0426 17.4803 15.1323 17.3032L20.0262 8.93019C20.0972 8.82533 20.1681 8.71841 20.2329 8.60738Z" fill="#FBBC04"/>
<path d="M9.81801 26.4863C8.37866 29.0041 5.13185 29.9305 2.63866 28.4778C0.14445 27.024 -0.740758 23.8718 0.699629 21.3549C2.14002 18.8381 5.35802 17.9077 7.85224 19.3604C10.3464 20.8142 11.2574 23.9694 9.81799 26.4853" fill="#34A853"/>
<path d="M29.415 10.2647C26.9361 8.83615 23.7687 9.68213 22.3322 12.1565L17.1474 21.1155C15.719 23.5848 16.5627 26.7445 19.032 28.173C19.0364 28.1756 19.0409 28.1781 19.0453 28.1807C21.5247 29.6098 24.693 28.7633 26.1291 26.2879L31.3128 17.33C32.7411 14.8599 31.8966 11.6997 29.4265 10.2714C29.4227 10.2692 29.4188 10.2669 29.415 10.2647Z" fill="#4285F4"/>
</g>
<defs>
<clipPath id="clip0_202_11380">
<rect width="33" height="30" fill="white"/>
</clipPath>
</defs>
</svg>
