<svg width="36" height="37" viewBox="0 0 36 37" fill="none" xmlns="http://www.w3.org/2000/svg">
<g clip-path="url(#clip0_202_10566)">
<path d="M0.000488281 13.0308C0.000488281 8.47034 0.000488281 6.19013 0.888007 4.44827C1.66869 2.9161 2.91439 1.6704 4.44657 0.889716C6.18842 0.00219727 8.46863 0.00219727 13.0291 0.00219727H22.9719C27.5323 0.00219727 29.8126 0.00219727 31.5544 0.889716C33.0866 1.6704 34.3323 2.9161 35.113 4.44827C36.0005 6.19013 36.0005 8.47034 36.0005 13.0308V22.9736C36.0005 27.5341 36.0005 29.8143 35.113 31.5561C34.3323 33.0883 33.0866 34.334 31.5544 35.1147C29.8126 36.0022 27.5323 36.0022 22.9719 36.0022H13.0291C8.46863 36.0022 6.18842 36.0022 4.44657 35.1147C2.91439 34.334 1.66869 33.0883 0.888007 31.5561C0.000488281 29.8143 0.000488281 27.5341 0.000488281 22.9736V13.0308Z" fill="#013301"/>
<path d="M16.4441 22.5843H10.8654L9.73039 26.2076C9.69887 26.3419 9.57515 26.4371 9.44057 26.4305H6.61504C6.45391 26.4305 6.39756 26.3397 6.44599 26.158L11.2759 11.9499C11.3243 11.8013 11.3725 11.6561 11.4209 11.466C11.4841 11.1355 11.5164 10.7996 11.5175 10.4629C11.5036 10.3634 11.5895 10.2753 11.6865 10.2895H15.5263C15.6388 10.2895 15.7032 10.3308 15.7195 10.4133L21.2017 26.1828C21.2499 26.348 21.2016 26.4306 21.0567 26.4305H17.9172C17.8071 26.443 17.7019 26.3675 17.6757 26.2571L16.4441 22.5843ZM11.7348 19.5293H15.5505C14.9236 17.3871 14.2161 15.273 13.6427 13.1141C12.9929 15.3536 12.3929 17.4305 11.7348 19.5293Z" fill="#33FF66"/>
<path d="M22.7954 14.1227H25.4278C25.5729 14.124 25.7032 14.2269 25.7417 14.3705C25.9346 14.8098 25.9583 15.3396 25.9591 15.8139C26.4105 15.2747 26.9549 14.8255 27.565 14.4887C28.2193 14.1089 28.9612 13.9165 29.713 13.9314C29.8377 13.9131 29.9482 14.0264 29.9303 14.1543V17.1514C29.9303 17.2671 29.8496 17.3248 29.6889 17.3248C28.5747 17.2459 26.84 17.5159 26.0303 18.4146V26.2075C26.0303 26.3561 25.9659 26.4305 25.8371 26.4304H23.0127C22.874 26.4509 22.7516 26.3228 22.7712 26.1827V17.7211C22.7712 16.5873 22.7952 15.4193 22.6263 14.2962C22.6003 14.1928 22.6968 14.0967 22.7954 14.1227Z" fill="#33FF66"/>
</g>
<defs>
<clipPath id="clip0_202_10566">
<rect width="36.0005" height="37" fill="white"/>
</clipPath>
</defs>
</svg>
