<svg width="36" height="37" viewBox="0 0 36 37" fill="none" xmlns="http://www.w3.org/2000/svg">
<g clip-path="url(#clip0_202_10379)">
<path d="M0.000976562 13.0308C0.000976562 8.47034 0.000976562 6.19013 0.888495 4.44827C1.66918 2.9161 2.91488 1.6704 4.44705 0.889716C6.18891 0.00219727 8.46912 0.00219727 13.0295 0.00219727H22.9724C27.5328 0.00219727 29.813 0.00219727 31.5549 0.889716C33.0871 1.6704 34.3328 2.9161 35.1135 4.44827C36.001 6.19013 36.001 8.47034 36.001 13.0308V22.9736C36.001 27.5341 36.001 29.8143 35.1135 31.5561C34.3328 33.0883 33.0871 34.334 31.5549 35.1147C29.813 36.0022 27.5328 36.0022 22.9724 36.0022H13.0295C8.46912 36.0022 6.18891 36.0022 4.44705 35.1147C2.91488 34.334 1.66918 33.0883 0.888495 31.5561C0.000976562 29.8143 0.000976562 27.5341 0.000976562 22.9736V13.0308Z" fill="#00005B"/>
<path d="M15.1589 22.5843H9.58027L8.44523 26.2076C8.41371 26.3419 8.29 26.4371 8.15541 26.4305H5.32988C5.16875 26.4305 5.1124 26.3397 5.16083 26.158L9.99079 11.9499C10.0391 11.8013 10.0874 11.6561 10.1357 11.466C10.1989 11.1355 10.2313 10.7996 10.2323 10.4629C10.2185 10.3634 10.3044 10.2753 10.4014 10.2895H14.2412C14.3537 10.2895 14.4181 10.3308 14.4344 10.4133L19.9165 26.1828C19.9648 26.348 19.9164 26.4306 19.7716 26.4305H16.632C16.5219 26.443 16.4168 26.3675 16.3905 26.2571L15.1589 22.5843ZM10.4497 19.5293H14.2654C13.6384 17.3871 12.931 15.273 12.3575 13.1141C11.7077 15.3536 11.1077 17.4305 10.4497 19.5293Z" fill="#9999FF"/>
<path d="M23.9937 21.1853C24.2157 23.025 25.7606 23.9022 27.4713 23.8648C28.4359 23.8458 29.4668 23.6961 30.3682 23.3313C30.4485 23.2655 30.4889 23.3065 30.4889 23.4552V25.8082C30.4965 25.9307 30.4454 26.04 30.344 26.1054C29.2237 26.6144 27.9376 26.7678 26.7226 26.7484C23.0997 26.7484 20.6116 24.1957 20.6127 20.4817C20.6032 16.9622 22.8865 13.993 26.4328 13.993C29.4389 13.915 31.5201 16.3219 31.5285 19.3176C31.5285 19.8632 31.498 20.4107 31.4318 20.9524C31.419 21.0639 31.324 21.1506 31.2145 21.1505C28.8136 21.1505 26.4011 21.1853 23.9937 21.1853ZM23.9937 18.9289C25.3317 18.9289 26.6774 18.9762 28.0146 18.9165C28.2156 18.8959 28.3648 18.8578 28.3648 18.6488C28.3369 17.5382 27.3997 16.6248 26.3121 16.6673C24.998 16.5858 24.157 17.6951 23.9937 18.9289Z" fill="#9999FF"/>
</g>
<defs>
<clipPath id="clip0_202_10379">
<rect width="36.001" height="37" fill="white"/>
</clipPath>
</defs>
</svg>
