<svg width="37" height="36" viewBox="0 0 37 36" fill="none" xmlns="http://www.w3.org/2000/svg">
<g clip-path="url(#clip0_202_9866)">
<rect x="0.00317383" y="3.05176e-05" width="36" height="36" rx="4" fill="#0073CF"/>
<path d="M15.0222 23.0316C14.8323 23.0316 14.6424 22.8417 14.6424 22.6519C14.1677 12.3038 14.0728 11.1646 13.5032 4.70889C13.5032 4.51901 13.5981 4.32914 13.8829 4.2342L21.4778 3.00003C21.5728 3.00003 21.7626 3.00003 21.8576 3.09497C21.9525 3.1899 21.9525 3.28484 21.9525 3.47471C21.4778 8.1266 21.0032 16.9557 20.9082 22.5569C20.9082 22.7468 20.7183 22.9367 20.5285 22.9367L15.0222 23.0316Z" fill="white"/>
<path d="M13.6967 31.8455C13.6932 31.8137 13.6932 31.782 13.6932 31.7502C13.6932 30.9823 13.7048 30.2027 13.7159 29.4558L13.716 29.4534C13.7235 28.9488 13.7308 28.4591 13.7341 27.998C13.7304 27.518 13.7186 27.0889 13.6932 26.7342C13.6932 26.669 13.6932 26.6037 13.7241 26.5384C13.7173 26.3023 13.7074 26.0837 13.6932 25.8858C13.6932 25.7897 13.6932 25.6935 13.7894 25.5974C13.8855 25.5013 13.9816 25.5013 14.0778 25.5013C16.0006 25.6935 19.3654 25.5974 20.9036 25.4051C20.9997 25.4051 21.0959 25.4051 21.192 25.5013C21.2881 25.5974 21.2881 25.6935 21.2881 25.7897C21.2881 26.0443 21.2869 26.2963 21.2848 26.5456C21.2881 26.5768 21.2881 26.608 21.2881 26.6393V32.5253C21.2881 32.6203 21.2882 32.7152 21.1932 32.8102C21.0983 32.9051 21.0033 32.9051 20.9084 32.9051C18.1552 32.8102 16.4464 32.8102 14.073 33C13.978 33 13.8831 33 13.7882 32.9051C13.6932 32.8102 13.6932 32.7152 13.6932 32.6203C13.6932 32.364 13.6945 32.105 13.6967 31.8455Z" fill="white"/>
</g>
<defs>
<clipPath id="clip0_202_9866">
<rect width="37" height="36" fill="white"/>
</clipPath>
</defs>
</svg>
