<svg width="34" height="37" viewBox="0 0 34 37" fill="none" xmlns="http://www.w3.org/2000/svg">
<path d="M17.005 27.4135C14.9768 24.8686 13.7843 22.6379 13.389 20.7294C11.5769 13.658 22.438 13.658 20.6259 20.7294C20.188 22.6781 18.9955 24.908 17.0099 27.4135H17.005ZM28.1063 33.298C24.7265 34.7693 21.3829 32.4237 18.5198 29.2424C26.8688 18.7904 22.225 13.1711 17.005 13.1711C12.5919 13.1711 10.1619 16.9084 11.1165 21.2469C11.6734 23.5925 13.1439 26.2604 15.4903 29.2424C12.8763 32.1393 10.6247 33.4764 8.64794 33.6556C4.63011 34.2526 1.48736 30.3561 2.91851 26.3359C4.1319 23.1891 11.896 7.75903 12.2294 6.92493C13.4951 4.5086 14.2834 2.31245 17.001 2.31245C19.5998 2.31245 20.4885 4.39691 21.8522 7.12341C24.745 12.7982 29.032 21.3851 31.0803 26.3359C32.1386 28.9933 30.9702 32.0645 28.1063 33.298ZM31.8831 22.3598C21.5267 0.318001 20.953 0.00219727 17.005 0.00219727C13.3472 0.00219727 11.7923 2.54709 10.202 5.85136C1.67137 22.9119 0.844505 25.3298 0.772987 25.5404C-1.25361 31.1115 2.92173 36.002 7.97536 36.002C9.7199 36.002 12.8458 35.515 17.005 30.9877C21.7204 36.1129 25.142 36.002 26.0347 36.002C31.0884 36.006 35.2637 31.1115 33.2355 25.5404C33.2371 25.2278 31.8839 22.4145 31.8839 22.3598H31.8831Z" fill="#FF7977"/>
</svg>
