<svg width="37" height="34" viewBox="0 0 37 34" fill="none" xmlns="http://www.w3.org/2000/svg">
<path d="M31.2094 16.8874C30.2131 15.3058 28.8295 14.0047 27.1897 13.1074C25.5498 12.2102 23.7081 11.7464 21.8388 11.7602C19.9696 11.7739 18.1349 12.2647 16.5084 13.186C14.8819 14.1072 13.5176 15.4285 12.5447 17.0246V17.1344C12.0009 18.0848 11.7081 19.158 11.6936 20.2528C11.6792 21.3477 11.9438 22.4282 12.4624 23.3926C12.981 24.3411 13.7311 25.143 14.6429 25.7237C15.5548 26.3043 16.5987 26.645 17.6775 26.7138C15.8191 26.6585 14.0058 26.1287 12.41 25.1748C10.8143 24.2208 9.48912 22.8744 8.56064 21.2637C7.63216 19.6529 7.13124 17.8314 7.10553 15.9724C7.07983 14.1134 7.53018 12.2787 8.41376 10.6429L12.3388 3.78093C12.9126 2.78931 13.7371 1.96602 14.7295 1.39366C15.722 0.821311 16.8475 0.52002 17.9931 0.52002C19.1388 0.52002 20.2643 0.821311 21.2568 1.39366C22.2492 1.96602 23.0737 2.78931 23.6475 3.78093L31.2094 16.8874Z" fill="#51D7FF"/>
<path d="M19.5577 32.0386C17.9918 32.9484 16.2217 33.4487 14.4112 33.4934H6.51987C5.37498 33.4932 4.25032 33.1915 3.25905 32.6186C2.26778 32.0458 1.44486 31.2219 0.873092 30.23C0.301323 29.2381 0.000868019 28.1131 0.00195607 26.9682C0.00304412 25.8233 0.305637 24.6989 0.87929 23.7081L8.41379 10.6428C7.53021 12.2786 7.07985 14.1133 7.10556 15.9723C7.13127 17.8313 7.63219 19.6528 8.56067 21.2635C9.48915 22.8743 10.8143 24.2207 12.4101 25.1746C14.0058 26.1286 15.8192 26.6584 17.6775 26.7137H18.0069C19.114 26.7144 20.2022 26.4258 21.1634 25.8765C22.1313 25.3339 22.9368 24.5427 23.4965 23.5846C24.0687 22.6345 24.3811 21.5507 24.4023 20.4418C24.4171 19.3372 24.1528 18.2467 23.6338 17.2715C25.0265 19.7778 25.3753 22.7319 24.6046 25.4936C23.8339 28.2553 22.0058 30.602 19.5165 32.0249L19.5577 32.0386Z" fill="#318EFF"/>
<path d="M29.4939 33.4932H14.3974C16.2712 33.4382 18.0996 32.9043 19.7086 31.9424C21.3099 30.9709 22.636 29.6059 23.5608 27.9772C24.4856 26.3486 24.9784 24.5104 24.9924 22.6375C24.9987 20.7656 24.5263 18.9231 23.62 17.2851C23.0802 16.2972 22.2897 15.4688 21.3281 14.8834C20.3746 14.2927 19.2793 13.9702 18.1578 13.9502C17.0349 13.9258 15.9252 14.197 14.9401 14.7365C13.9549 15.2761 13.1289 16.065 12.5447 17.0244C13.5049 15.4122 14.8647 14.0749 16.4927 13.1417C18.1207 12.2085 19.9619 11.711 21.8384 11.6972C23.7148 11.6834 25.5631 12.1538 27.2047 13.0629C28.8462 13.9721 30.2255 15.2892 31.2094 16.8871L35.1482 23.7492C35.7122 24.7399 36.0065 25.8612 36.0018 27.0012C35.9971 28.1413 35.6935 29.2601 35.1213 30.2462C34.5492 31.2322 33.7284 32.051 32.7409 32.6207C31.7535 33.1905 30.6339 33.4913 29.4939 33.4932Z" fill="#FFD400"/>
</svg>
