<svg width="37" height="32" viewBox="0 0 37 32" fill="none" xmlns="http://www.w3.org/2000/svg">
<g clip-path="url(#clip0_202_15151)">
<path d="M16.0777 1.32459L2.65595 6.87834C1.90956 7.18723 1.9173 8.24739 2.66836 8.54509L16.1463 13.8899C17.3306 14.3595 18.6494 14.3595 19.8334 13.8899L33.3116 8.54509C34.0624 8.24739 34.0703 7.18723 33.3238 6.87834L19.9022 1.32459C18.6776 0.81791 17.3021 0.81791 16.0777 1.32459Z" fill="#FFBF00"/>
<path d="M19.1855 16.8085V30.1605C19.1855 30.7956 19.8259 31.2304 20.4162 30.9964L35.4347 25.1669C35.7776 25.031 36.0025 24.6997 36.0025 24.331V10.9791C36.0025 10.344 35.3621 9.90915 34.7718 10.1432L19.7533 15.9726C19.4106 16.1086 19.1855 16.4398 19.1855 16.8085Z" fill="#26B5F8"/>
<path d="M15.6786 17.4975L11.2214 19.6496L10.7689 19.8683L1.3601 24.3766C0.763683 24.6643 0.00244141 24.2296 0.00244141 23.5671V11.0352C0.00244141 10.7955 0.125347 10.5885 0.290171 10.4327C0.358949 10.3637 0.436884 10.3069 0.517872 10.2619C0.742724 10.127 1.06342 10.091 1.33609 10.1989L15.6037 15.8519C16.3289 16.1396 16.3859 17.1558 15.6786 17.4975Z" fill="#ED3049"/>
<path d="M15.6787 17.4975L11.2216 19.6496L0.290283 10.4327C0.359062 10.3637 0.436997 10.3069 0.517984 10.2619C0.742836 10.127 1.06353 10.091 1.3362 10.1989L15.6038 15.8519C16.3291 16.1396 16.386 17.1558 15.6787 17.4975Z" fill="black" fill-opacity="0.25"/>
</g>
<defs>
<clipPath id="clip0_202_15151">
<rect width="37" height="32" fill="white"/>
</clipPath>
</defs>
</svg>
