<svg width="41" height="30" viewBox="0 0 41 30" fill="none" xmlns="http://www.w3.org/2000/svg">
<g clip-path="url(#clip0_202_14393)">
<path d="M33.8376 28.2225C39.9245 33.0886 43.8241 18.5581 34.1258 15.8792C25.9874 13.6241 17.7981 17.4899 9.5918 26.51C9.5918 26.51 24.7497 20.9657 33.8376 28.2225Z" fill="#0B5567"/>
<path d="M9.72719 26.3921C15.5597 20.3391 25.2581 13.591 34.2951 16.0834C36.3976 16.6768 37.8896 17.8976 38.856 19.3558L30.3107 2.11242C29.0899 0.162582 25.9702 0.569504 24.2068 2.06155L1.62265 20.9834C-0.428914 22.7468 -0.547599 25.8835 1.35137 27.7824C3.02993 29.461 5.69188 29.6136 7.53998 28.1215L9.72719 26.3921Z" fill="#15A9CE"/>
</g>
<defs>
<clipPath id="clip0_202_14393">
<rect width="41" height="30" fill="white"/>
</clipPath>
</defs>
</svg>
