<svg width="36" height="37" viewBox="0 0 36 37" fill="none" xmlns="http://www.w3.org/2000/svg">
<g clip-path="url(#clip0_202_8993)">
<path d="M31.3442 0.00219727H4.66001C2.26043 0.00219727 0.315186 1.94744 0.315186 4.34703V31.6574C0.315186 34.057 2.26043 36.0022 4.66001 36.0022H31.3442C33.7438 36.0022 35.689 34.057 35.689 31.6574V4.34703C35.689 1.94744 33.7438 0.00219727 31.3442 0.00219727Z" fill="#D64130"/>
<path fill-rule="evenodd" clip-rule="evenodd" d="M8.20107 25.5957C6.22259 23.5546 5.12085 20.8126 5.12085 17.9268C5.12085 15.0393 6.22425 12.2951 8.20558 10.2538C8.33541 10.1198 8.54712 10.1198 8.67671 10.2538L9.17536 10.7676C9.30495 10.9014 9.30495 11.1193 9.17536 11.2531C7.45202 13.0293 6.49245 15.4152 6.49245 17.9268C6.49245 20.4372 7.45036 22.8214 9.17109 24.5967C9.30092 24.7305 9.30092 24.9486 9.17109 25.0824L8.67243 25.596C8.54285 25.7295 8.33114 25.7295 8.20107 25.5957ZM12.1008 22.1575C11.0103 21.031 10.4024 19.5184 10.4024 17.9266C10.4024 16.3333 11.0119 14.8182 12.1051 13.6918C12.2309 13.5622 12.436 13.5622 12.562 13.6918L13.0906 14.2367C13.1914 14.3404 13.1914 14.5096 13.0906 14.6133L13.0452 14.6605C12.2015 15.5297 11.732 16.6974 11.732 17.9266C11.732 19.1545 12.1998 20.3201 13.0412 21.1895C13.1665 21.3189 13.1665 21.5302 13.0412 21.6598L12.558 22.1577C12.4951 22.2223 12.4184 22.255 12.3294 22.255C12.2404 22.255 12.1637 22.2225 12.1008 22.1575ZM25.8356 23.8073C25.7079 23.9388 25.4995 23.9391 25.3716 23.807L24.8805 23.3013C24.7528 23.1697 24.7528 22.955 24.8805 22.8234C26.1439 21.5194 26.8464 19.7691 26.8464 17.9266C26.8464 16.0821 26.1422 14.3306 24.8762 13.0264L24.83 12.9787C24.7277 12.8733 24.7277 12.7016 24.83 12.5959L25.3673 12.0422C25.4952 11.9104 25.7036 11.9104 25.8315 12.0422C27.3508 13.6079 28.1974 15.7123 28.1974 17.9266C28.1974 20.1394 27.3524 22.2421 25.8356 23.8073ZM27.758 25.5957C27.6282 25.7295 27.4167 25.7295 27.2864 25.596L26.788 25.0824C26.658 24.9486 26.658 24.7305 26.7876 24.5967C28.5088 22.8214 29.4664 20.4372 29.4664 17.9268C29.4664 15.4152 28.5073 13.0293 26.784 11.2531H26.7838C26.6539 11.1193 26.6539 10.9014 26.7838 10.7676L27.2824 10.2538C27.412 10.1198 27.6239 10.1198 27.7535 10.2538C29.7351 12.2951 30.8383 15.0393 30.8383 17.9268C30.8383 20.8126 29.7368 23.5546 27.758 25.5957ZM23.8588 22.1575C23.7956 22.2225 23.719 22.255 23.63 22.255C23.541 22.255 23.4645 22.2223 23.4019 22.1577L22.9184 21.6598C22.7929 21.5302 22.7926 21.3189 22.9184 21.1895C23.7598 20.3201 24.2273 19.1545 24.2273 17.9266C24.2273 16.6974 23.7576 15.5297 22.9141 14.6605L22.8686 14.6133C22.7682 14.5096 22.7682 14.3404 22.8686 14.2367L23.3976 13.6918C23.5234 13.5622 23.7285 13.5622 23.8542 13.6918C24.9477 14.8182 25.5569 16.3333 25.5569 17.9266C25.5569 19.5184 24.9493 21.031 23.8588 22.1575ZM10.1235 23.8073C8.60693 22.2421 7.76199 20.1394 7.76199 17.9266C7.76199 15.7126 8.60835 13.6077 10.1278 12.0422C10.2557 11.9104 10.4644 11.9104 10.5921 12.0422L11.1292 12.5959C11.2315 12.7016 11.2315 12.8733 11.1292 12.9787L11.0829 13.0264C9.81713 14.3306 9.11294 16.0821 9.11294 17.9266C9.11294 19.7691 9.81547 21.5194 11.0788 22.8234C11.2065 22.955 11.2065 23.1697 11.0786 23.3013L10.5875 23.807C10.4599 23.9391 10.2512 23.9388 10.1235 23.8073ZM16.7224 7.43695H19.237C19.5655 7.43695 19.8486 7.5651 20.071 7.81455C20.2934 8.06425 20.3931 8.36554 20.3651 8.70328L19.3509 20.9498C19.3008 21.5559 18.8126 22.0173 18.2224 22.0173H17.7365C17.1465 22.0173 16.6583 21.5559 16.6082 20.9498L15.5943 8.70328C15.566 8.36579 15.666 8.06425 15.8883 7.81455C16.1105 7.56534 16.3936 7.43695 16.7224 7.43695ZM17.9796 23.2788C19.3554 23.2788 20.4707 24.4277 20.4707 25.8454C20.4707 27.2631 19.3554 28.4121 17.9796 28.4121C16.6037 28.4121 15.4884 27.2634 15.4884 25.8454C15.4887 24.4277 16.6037 23.2788 17.9796 23.2788Z" fill="white"/>
</g>
<defs>
<clipPath id="clip0_202_8993">
<rect width="36" height="37" fill="white"/>
</clipPath>
</defs>
</svg>
