<svg width="37" height="37" viewBox="0 0 37 37" fill="none" xmlns="http://www.w3.org/2000/svg">
<g clip-path="url(#clip0_202_14408)">
<path d="M12.4423 23.5637L17.0033 19.0024L10.1542 19.0027H10.1378C6.34247 19.0027 3.26562 22.0796 3.26562 25.8746C3.26562 29.6703 6.34218 32.7468 10.1375 32.7468C10.4258 32.7468 10.7094 32.7269 10.9883 32.6924C9.48839 29.7376 9.97188 26.0339 12.4423 23.5637Z" fill="#87C040"/>
<path d="M18.0031 25.8658V19.4156L13.1603 24.2591L13.1486 24.2705C10.4648 26.9543 10.4648 31.3054 13.1486 33.9892C15.8324 36.673 20.1835 36.673 22.8673 33.9892C23.071 33.7855 23.2539 33.5692 23.4269 33.3479C20.2783 32.318 18.0034 29.3586 18.0031 25.8658Z" fill="#87C040"/>
<path d="M23.5634 23.5623L19.0024 19.0013V25.8668C19.0024 29.6625 22.0793 32.739 25.8746 32.739C29.67 32.739 32.7468 29.6625 32.7468 25.8671C32.7468 25.5788 32.7269 25.2952 32.6924 25.0163C29.7376 26.5165 26.0339 26.0328 23.5634 23.5623Z" fill="#87C040"/>
<path d="M33.9892 13.1376C33.7855 12.9339 33.5695 12.751 33.3483 12.578C32.3184 15.7263 29.3586 18.0015 25.8661 18.0015H19.4163L24.2705 22.856C26.9543 25.5398 31.3057 25.5398 33.9892 22.856C36.673 20.1722 36.673 15.8211 33.9892 13.1376Z" fill="#87C040"/>
<path d="M25.8672 3.25769C25.5789 3.25769 25.2953 3.2773 25.0164 3.31183C26.5163 6.26693 26.0328 9.97039 23.5624 12.4408L19.0017 17.0018H25.8672C29.6622 17.0018 32.7391 13.925 32.7391 10.1296C32.7394 6.33425 29.6625 3.25769 25.8672 3.25769Z" fill="#ED9A2D"/>
<path d="M22.8561 2.01478C20.1723 -0.668714 15.8212 -0.668714 13.1374 2.01508C12.934 2.21878 12.7511 2.43477 12.5781 2.65632C15.7264 3.68623 18.0016 6.64571 18.0016 10.1382V16.5883L22.8444 11.7452L22.8561 11.7338C25.5399 9.05 25.5399 4.69887 22.8561 2.01478Z" fill="#5698C6"/>
<path d="M12.4479 12.4456L12.6434 12.6496L16.9975 17.0036H17.0022V10.154V10.1376C17.0022 6.34223 13.9253 3.26538 10.13 3.26538C6.33461 3.26538 3.25776 6.34194 3.25806 10.1373C3.25806 10.425 3.27767 10.7077 3.31191 10.986C6.26876 9.48697 9.97719 9.97486 12.4479 12.4456Z" fill="#5698C6"/>
<path d="M2.67643 23.367C2.73028 23.2072 2.78823 23.0497 2.85174 22.8946C2.85964 22.875 2.86666 22.8551 2.87486 22.836C2.94451 22.6692 3.02119 22.5068 3.10168 22.3464C3.11924 22.311 3.13738 22.2762 3.15582 22.2408C3.23865 22.0815 3.32586 21.925 3.41893 21.7725C3.42888 21.7561 3.43971 21.7406 3.44966 21.7248C3.53805 21.5822 3.63141 21.4438 3.72858 21.3077C3.74848 21.2796 3.76809 21.2512 3.78858 21.2234C3.89306 21.0812 4.00193 20.9431 4.1152 20.8084C4.13832 20.7809 4.16173 20.7543 4.18544 20.7276C4.29607 20.5995 4.41021 20.4745 4.52874 20.3539C4.53928 20.3434 4.54893 20.3323 4.55947 20.3217C4.68561 20.195 4.81702 20.0738 4.95136 19.9562C4.98062 19.9304 5.00989 19.9049 5.03945 19.8798C5.17466 19.7645 5.3131 19.6535 5.45563 19.5473C5.47436 19.5336 5.49397 19.5207 5.5127 19.5072C5.64586 19.4103 5.78225 19.3179 5.92156 19.2292C5.94907 19.2116 5.97629 19.1935 6.00409 19.1762C6.15453 19.0831 6.30847 18.9956 6.46534 18.9125C6.49841 18.8952 6.53178 18.8786 6.56514 18.8616C6.72172 18.7817 6.88035 18.7053 7.04249 18.6359C7.05039 18.6327 7.058 18.6289 7.0659 18.6254C7.2336 18.5543 7.40511 18.4908 7.57866 18.4311C7.61612 18.4182 7.65329 18.4053 7.69105 18.393C7.86285 18.3371 8.03699 18.2856 8.21376 18.2408C8.24068 18.2344 8.26849 18.2285 8.29541 18.2224C8.45931 18.1829 8.62496 18.1489 8.79237 18.12C8.82368 18.1147 8.85471 18.1082 8.88602 18.1036C9.06777 18.0743 9.25186 18.0523 9.43742 18.036C9.47751 18.0324 9.5179 18.0298 9.55799 18.0266C9.74999 18.0128 9.94286 18.0032 10.1384 18.0032L16.5885 18.0029L11.734 13.1484C9.05021 10.4649 4.69878 10.4646 2.01528 13.1484C-0.668506 15.8321 -0.668506 20.1833 2.01528 22.8671C2.21869 23.0705 2.43175 23.2584 2.65272 23.431C2.66004 23.4094 2.66911 23.3886 2.67643 23.367Z" fill="#5698C6"/>
<path d="M11.7501 13.1483L15.5937 16.9919H10.4275L10.1345 16.9981C6.98831 16.9981 4.33613 14.8838 3.52075 11.9987C6.13811 10.5309 9.51202 10.9105 11.7387 13.1369L11.7501 13.1483Z" fill="#446BA6"/>
<path d="M16.9994 10.1362V15.572L13.3463 11.9188L13.135 11.716C10.9101 9.49144 10.5297 6.12075 11.9933 3.50427C14.882 4.31731 16.9994 6.97154 16.9994 10.1198V10.1362Z" fill="#446BA6"/>
<path d="M22.8771 11.7283L19.0335 15.5722V10.406L19.0273 10.113C19.0273 6.96683 21.1416 4.31436 24.0267 3.49927C25.4945 6.11662 25.1149 9.49053 22.8885 11.7169L22.8771 11.7283Z" fill="#446BA6"/>
<path d="M25.8625 16.9876H20.4268L24.0799 13.3345L24.2827 13.1232C26.5073 10.8983 29.878 10.5178 32.4945 11.9815C31.6814 14.8701 29.0272 16.9876 25.8789 16.9876H25.8625Z" fill="#FFF101"/>
<path d="M24.2575 22.8286L20.4138 18.9849H25.58L25.873 18.9788C29.0192 18.9791 31.6714 21.0933 32.4868 23.9785C29.8691 25.4459 26.4955 25.0666 24.2689 22.84L24.2575 22.8286Z" fill="#45AB47"/>
<path d="M19.0183 25.8349V20.3992L22.6714 24.0523L22.883 24.2551C25.1076 26.48 25.4881 29.8501 24.0244 32.4669C21.1358 31.6538 19.0183 28.9999 19.0183 25.851V25.8349Z" fill="#45AB47"/>
<path d="M13.1768 24.2751L17.0205 20.4312V25.5974L17.0266 25.8903C17.0266 29.0366 14.9124 31.689 12.0272 32.5044C10.5595 29.8865 10.9391 26.5129 13.1654 24.2865L13.1768 24.2751Z" fill="#45AB47"/>
<path d="M10.1615 19.0135H15.5973L11.9442 22.6667L11.7413 22.878C9.51646 25.1029 6.14607 25.4833 3.5293 24.0197C4.34263 21.1307 6.99657 19.0135 10.1451 19.0135H10.1615Z" fill="#45AB47"/>
</g>
<defs>
<clipPath id="clip0_202_14408">
<rect width="37" height="37" fill="white"/>
</clipPath>
</defs>
</svg>
