<svg width="34" height="36" viewBox="0 0 34 36" fill="none" xmlns="http://www.w3.org/2000/svg">
<g clip-path="url(#clip0_202_13700)">
<path d="M17.0084 31.8895L4.9695 24.9387V11.0551L16.9984 4.11002L29.0369 11.0606V24.9447L17.0084 31.8895ZM30.5629 10.1797L16.9984 2.34784L3.44336 10.174V25.8196L17.0084 33.6516L30.5629 25.8258V10.1797Z" fill="#33363B"/>
<path d="M6.97359 12.2092C6.09112 13.7445 4.12369 14.2685 2.58854 13.3859C1.05327 12.5034 0.529244 10.5361 1.41184 9.00084C2.2943 7.46557 4.26174 6.94167 5.79688 7.82413C7.33216 8.71586 7.85618 10.6739 6.97359 12.2092Z" fill="#7EBC59"/>
<path d="M27.0329 12.2092C26.1503 10.6739 26.6744 8.71586 28.2095 7.82413C29.7449 6.94167 31.703 7.46557 32.5947 9.00084C33.4772 10.5361 32.9533 12.4942 31.418 13.3859C29.8828 14.2685 27.9154 13.7445 27.0329 12.2092Z" fill="#7EBC59"/>
<path d="M17.0033 36.0009C15.2291 36.0009 13.7949 34.5668 13.7949 32.7925C13.7949 31.0181 15.2291 29.5841 17.0033 29.5841C18.7776 29.5841 20.2116 31.0181 20.2116 32.7925C20.2116 34.5576 18.7776 36.0009 17.0033 36.0009Z" fill="#7EBC59"/>
<path d="M16.11 6.29107C16.3936 6.37292 16.6931 6.4176 17.0032 6.4176C17.3145 6.4176 17.6148 6.37267 17.8992 6.29032L27.5889 23.0728C27.372 23.2795 27.1805 23.5196 27.0236 23.7925C26.8678 24.0637 26.7566 24.3484 26.6864 24.6383H7.32035C7.25002 24.3487 7.13888 24.0639 6.98281 23.7925C6.82537 23.5215 6.63426 23.2827 6.41849 23.0768L16.11 6.29107ZM31.4088 22.6159C30.6222 22.1636 29.7226 22.0815 28.9132 22.3145L19.2212 5.528C19.8315 4.94415 20.2115 4.12201 20.2115 3.20926C20.2115 1.43494 18.7775 0.000915527 17.0032 0.000915527C15.229 0.000915527 13.7949 1.43494 13.7949 3.20926C13.7949 4.12314 14.176 4.94603 14.7873 5.52988L5.09548 22.3163C4.28573 22.0811 3.38611 22.1626 2.59776 22.6159C1.06249 23.5076 0.538591 25.4657 1.42106 27.0009C2.30365 28.5361 4.2617 29.0601 5.80611 28.1775C6.59358 27.7202 7.11422 26.9819 7.31622 26.1643H26.6894C26.8909 26.9845 27.4118 27.7242 28.2004 28.1775C29.7356 29.0601 31.703 28.5361 32.5855 27.0009C33.4772 25.4657 32.9532 23.5076 31.4088 22.6159Z" fill="#368CBF"/>
</g>
<defs>
<clipPath id="clip0_202_13700">
<rect width="34" height="36.0009" fill="white"/>
</clipPath>
</defs>
</svg>
