<svg width="41" height="24" viewBox="0 0 41 24" fill="none" xmlns="http://www.w3.org/2000/svg">
<g clip-path="url(#clip0_202_11632)">
<path d="M11.2735 8.72972C11.2735 9.22195 11.3267 9.62106 11.4199 9.91374C11.5263 10.2064 11.6593 10.5257 11.8456 10.8716C11.9121 10.978 11.9387 11.0845 11.9387 11.1776C11.9387 11.3106 11.8589 11.4436 11.6859 11.5767L10.8478 12.1354C10.7281 12.2153 10.6083 12.2552 10.5019 12.2552C10.3689 12.2552 10.2358 12.1886 10.1028 12.0689C9.91655 11.8694 9.75691 11.6565 9.62387 11.4436C9.49084 11.2175 9.3578 10.9647 9.21146 10.6587C8.17378 11.8827 6.87003 12.4946 5.30021 12.4946C4.18271 12.4946 3.29137 12.1753 2.63949 11.5368C1.98762 10.8982 1.65503 10.0468 1.65503 8.98249C1.65503 7.85168 2.05414 6.93373 2.86565 6.24195C3.67717 5.55016 4.75476 5.20427 6.12503 5.20427C6.57735 5.20427 7.04298 5.24418 7.53521 5.3107C8.02744 5.37722 8.53298 5.48364 9.06512 5.60338V4.63222C9.06512 3.62114 8.85227 2.91605 8.43985 2.50364C8.01414 2.09123 7.29575 1.89168 6.27137 1.89168C5.80575 1.89168 5.32682 1.94489 4.83458 2.06462C4.34235 2.18436 3.86342 2.3307 3.3978 2.51695C3.18494 2.61007 3.0253 2.66329 2.93217 2.68989C2.83905 2.7165 2.77253 2.7298 2.71932 2.7298C2.53307 2.7298 2.43994 2.59677 2.43994 2.31739V1.66552C2.43994 1.45266 2.46655 1.29302 2.53307 1.19989C2.59958 1.10677 2.71932 1.01364 2.90557 0.920517C3.37119 0.681052 3.92994 0.481499 4.58182 0.321856C5.23369 0.148909 5.92548 0.0690876 6.65718 0.0690876C8.2403 0.0690876 9.39771 0.428284 10.1427 1.14668C10.8744 1.86507 11.2469 2.95596 11.2469 4.41936V8.72972H11.2735ZM5.87226 10.7519C6.31128 10.7519 6.7636 10.672 7.24253 10.5124C7.72146 10.3528 8.14718 10.0601 8.50637 9.66097C8.71923 9.4082 8.87887 9.12883 8.95869 8.80954C9.03852 8.49025 9.09173 8.10445 9.09173 7.65213V7.09338C8.70593 7.00025 8.29352 6.92043 7.8678 6.86722C7.44209 6.814 7.02968 6.7874 6.61726 6.7874C5.72592 6.7874 5.07405 6.96034 4.63503 7.31954C4.19601 7.67874 3.98316 8.18427 3.98316 8.84945C3.98316 9.47472 4.1428 9.94034 4.47539 10.2596C4.79467 10.5922 5.2603 10.7519 5.87226 10.7519ZM16.555 12.1886C16.3156 12.1886 16.1559 12.1487 16.0495 12.0556C15.9431 11.9758 15.8499 11.7895 15.7701 11.5368L12.6438 1.25311C12.564 0.987035 12.5241 0.814088 12.5241 0.720963C12.5241 0.508106 12.6305 0.388374 12.8433 0.388374H14.1471C14.3999 0.388374 14.5728 0.428284 14.6659 0.521409C14.7724 0.601231 14.8522 0.787481 14.932 1.04025L17.167 9.84722L19.2424 1.04025C19.3089 0.774177 19.3887 0.601231 19.4951 0.521409C19.6016 0.441588 19.7878 0.388374 20.0273 0.388374H21.0916C21.3443 0.388374 21.5173 0.428284 21.6237 0.521409C21.7301 0.601231 21.8233 0.787481 21.8765 1.04025L23.9784 9.95365L26.28 1.04025C26.3598 0.774177 26.4529 0.601231 26.546 0.521409C26.6525 0.441588 26.8254 0.388374 27.0649 0.388374H28.3021C28.515 0.388374 28.6347 0.494802 28.6347 0.720963C28.6347 0.787481 28.6214 0.853999 28.6081 0.93382C28.5948 1.01364 28.5682 1.12007 28.515 1.26641L25.3088 11.5501C25.229 11.8161 25.1358 11.9891 25.0294 12.0689C24.923 12.1487 24.75 12.202 24.5239 12.202H23.3798C23.127 12.202 22.9541 12.162 22.8476 12.0689C22.7412 11.9758 22.6481 11.8028 22.5949 11.5368L20.5328 2.95596L18.4841 11.5235C18.4175 11.7895 18.3377 11.9625 18.2313 12.0556C18.1249 12.1487 17.9386 12.1886 17.6991 12.1886H16.555ZM33.6501 12.5478C32.9584 12.5478 32.2666 12.468 31.6014 12.3084C30.9362 12.1487 30.4174 11.9758 30.0715 11.7762C29.8586 11.6565 29.7123 11.5235 29.6591 11.4037C29.6059 11.284 29.5792 11.151 29.5792 11.0312V10.3528C29.5792 10.0734 29.6857 9.94034 29.8852 9.94034C29.965 9.94034 30.0449 9.95365 30.1247 9.98026C30.2045 10.0069 30.3242 10.0601 30.4573 10.1133C30.9096 10.3128 31.4018 10.4725 31.9207 10.5789C32.4528 10.6853 32.9717 10.7386 33.5038 10.7386C34.3419 10.7386 34.9938 10.5922 35.4461 10.2995C35.8984 10.0069 36.1379 9.58115 36.1379 9.0357C36.1379 8.6632 36.0182 8.35722 35.7787 8.10445C35.5392 7.85168 35.0869 7.62552 34.4351 7.41266L32.506 6.814C31.5349 6.50802 30.8165 6.0557 30.3775 5.45704C29.9384 4.87168 29.7123 4.2198 29.7123 3.52802C29.7123 2.96927 29.832 2.47704 30.0715 2.05132C30.3109 1.62561 30.6302 1.25311 31.0293 0.960427C31.4284 0.654445 31.8808 0.428284 32.4129 0.268641C32.9451 0.108998 33.5038 0.0424805 34.0892 0.0424805C34.3818 0.0424805 34.6878 0.055784 34.9805 0.0956948C35.2865 0.135606 35.5659 0.18882 35.8452 0.242034C36.1113 0.308552 36.3641 0.37507 36.6035 0.454891C36.843 0.534713 37.0293 0.614534 37.1623 0.694356C37.3485 0.800784 37.4816 0.907213 37.5614 1.02695C37.6412 1.13337 37.6811 1.27971 37.6811 1.46596V2.09123C37.6811 2.37061 37.5747 2.51695 37.3751 2.51695C37.2687 2.51695 37.0958 2.46373 36.8696 2.3573C36.1113 2.01141 35.2599 1.83846 34.3153 1.83846C33.557 1.83846 32.9584 1.9582 32.5459 2.21096C32.1335 2.46373 31.9207 2.84954 31.9207 3.39498C31.9207 3.76748 32.0537 4.08677 32.3198 4.33954C32.5859 4.5923 33.0781 4.84507 33.7832 5.07123L35.6723 5.6699C36.6301 5.97588 37.3219 6.40159 37.7343 6.94704C38.1468 7.49249 38.3463 8.11775 38.3463 8.80954C38.3463 9.38159 38.2266 9.90043 38.0004 10.3528C37.7609 10.8051 37.4417 11.2042 37.0292 11.5235C36.6168 11.8561 36.1246 12.0955 35.5526 12.2685C34.9539 12.4547 34.3286 12.5478 33.6501 12.5478Z" fill="#252F3E"/>
<path d="M36.1646 19.0133C31.7877 22.2461 25.4286 23.9623 19.9608 23.9623C12.298 23.9623 5.39343 21.1286 0.178427 16.4191C-0.233984 16.0466 0.138516 15.5411 0.630748 15.8338C6.27147 19.1065 13.2292 21.0887 20.4265 21.0887C25.2823 21.0887 30.617 20.0776 35.526 18.0023C36.2577 17.6697 36.883 18.4812 36.1646 19.0133ZM37.9872 16.938C37.4285 16.2196 34.2888 16.5921 32.8653 16.765C32.4396 16.8182 32.3731 16.4457 32.7589 16.1664C35.26 14.4103 39.3708 14.9158 39.8497 15.5012C40.3286 16.0999 39.7167 20.2107 37.3752 22.1796C37.016 22.4856 36.6701 22.3259 36.8298 21.9268C37.3619 20.6098 38.546 17.6431 37.9872 16.938Z" fill="#FF9900"/>
</g>
<defs>
<clipPath id="clip0_202_11632">
<rect width="41" height="24" fill="white"/>
</clipPath>
</defs>
</svg>
