<svg width="40" height="26" viewBox="0 0 40 26" fill="none" xmlns="http://www.w3.org/2000/svg">
<path d="M10.3413 0.512282L10.0599 0.551549C9.16003 0.662623 8.30372 1.00289 7.57301 1.53977C7.41595 1.65103 7.27197 1.76883 7.10836 1.89317C7.09447 1.86435 7.08562 1.83336 7.08218 1.80155C7.056 1.62485 7.02982 1.4416 6.9971 1.2649C6.95129 0.963852 6.80076 0.832962 6.49972 0.832962H5.7471C5.29553 0.832962 5.21045 0.918041 5.21045 1.36961V15.0673C5.21045 15.1327 5.21045 15.1981 5.21699 15.2636C5.23008 15.4599 5.34788 15.5843 5.53767 15.5908C5.99579 15.5974 6.46045 15.5974 6.91856 15.5908C7.10835 15.5908 7.22616 15.4599 7.24579 15.2636C7.25233 15.1981 7.25233 15.1327 7.25233 15.0673V10.329C7.32432 10.3879 7.36359 10.4207 7.39631 10.4534C8.56778 11.4285 9.91595 11.7492 11.3885 11.4612C12.7235 11.1995 13.6529 10.3814 14.255 9.1772C14.7131 8.26752 14.9029 7.29893 14.929 6.29108C14.9618 5.17197 14.8505 4.07249 14.3989 3.03191C13.8426 1.74919 12.9199 0.904952 11.5259 0.616994C11.3165 0.571182 11.1005 0.551549 10.8845 0.518826C10.7013 0.512282 10.5246 0.512282 10.3413 0.512282ZM7.23925 3.25443C7.23552 3.2116 7.24398 3.16859 7.26367 3.13037C7.28336 3.09215 7.31346 3.06029 7.3505 3.03846C8.2471 2.41673 9.23532 2.08951 10.3348 2.17459C11.3099 2.24657 12.1084 2.72432 12.5272 3.86961C12.7824 4.56987 12.8479 5.29631 12.8479 6.0293C12.8479 6.70993 12.7955 7.37746 12.5861 8.03191C12.1411 9.42589 11.1201 9.956 9.79815 9.8971C8.88191 9.85783 8.08349 9.50443 7.3505 8.98741C7.31394 8.96508 7.28422 8.93312 7.2646 8.89503C7.24497 8.85694 7.2362 8.81418 7.23925 8.77144C7.24579 7.84867 7.23925 6.93244 7.23925 6.00966C7.23925 5.08689 7.24579 4.1772 7.23925 3.25443ZM20.7013 0.512282C20.6358 0.518826 20.5704 0.531915 20.5115 0.53846C19.8737 0.56536 19.2402 0.655239 18.6201 0.806784C18.2209 0.911496 17.8348 1.05548 17.4487 1.18637C17.2131 1.2649 17.0953 1.43506 17.1018 1.69029C17.1084 1.90626 17.0953 2.12223 17.1018 2.3382C17.1084 2.65233 17.2392 2.73741 17.5468 2.65888C18.0573 2.52799 18.5678 2.38401 19.0848 2.28584C19.8898 2.13532 20.7013 2.06987 21.5193 2.19422C21.9447 2.25966 22.344 2.38401 22.6188 2.74396C22.861 3.05809 22.9526 3.43113 22.9657 3.81726C22.9853 4.36045 22.9788 4.90364 22.9853 5.44684C22.9837 5.47771 22.9793 5.50837 22.9722 5.53846C22.9395 5.53191 22.9133 5.53846 22.8872 5.53192C22.2001 5.36253 21.4992 5.25521 20.7929 5.21123C20.0534 5.17197 19.3204 5.21778 18.6136 5.46647C17.7694 5.76097 17.0887 6.27144 16.6895 7.09605C16.3819 7.73741 16.3361 8.41804 16.4343 9.10521C16.5652 10.0214 17.0233 10.7283 17.8348 11.1798C18.6136 11.6118 19.4578 11.6641 20.3152 11.5332C21.3034 11.3827 22.1803 10.9639 22.9526 10.329C22.9842 10.3005 23.0194 10.2763 23.0573 10.257C23.0966 10.5057 23.1293 10.7413 23.1751 10.9769C23.2144 11.1798 23.3387 11.3107 23.5285 11.3173C23.8819 11.3238 24.2419 11.3238 24.5953 11.3173C24.6773 11.3166 24.7558 11.2842 24.8144 11.2268C24.873 11.1695 24.907 11.0916 24.9094 11.0097C24.9149 10.9487 24.917 10.8876 24.9159 10.8264V3.88924C24.9191 3.6067 24.8994 3.32437 24.857 3.045C24.7327 2.20076 24.3728 1.50705 23.6136 1.05548C23.1751 0.793696 22.6908 0.662806 22.1869 0.590816C21.9513 0.558094 21.7157 0.53846 21.4801 0.505737C21.2248 0.512282 20.9631 0.512282 20.7013 0.512282ZM22.9919 8.86961C22.9943 8.9081 22.9865 8.94655 22.9693 8.98104C22.9521 9.01553 22.926 9.04483 22.8937 9.06595C22.1607 9.59605 21.3557 9.94945 20.4461 10.0411C20.073 10.0803 19.7 10.0673 19.3466 9.92327C19.1524 9.85227 18.9777 9.73644 18.8366 9.58519C18.6956 9.43395 18.5923 9.25156 18.5351 9.05286C18.4053 8.63992 18.403 8.19747 18.5285 7.78322C18.6921 7.24003 19.0783 6.93244 19.6018 6.76228C20.1273 6.60382 20.6797 6.55482 21.2248 6.6183C21.7746 6.66411 22.3112 6.76883 22.861 6.84082C22.9657 6.8539 22.9984 6.90626 22.9984 7.01097C22.9919 7.32511 22.9984 7.6327 22.9984 7.94684C22.9984 8.26097 22.9853 8.56202 22.9919 8.86961ZM31.3557 9.27537C30.5115 6.93898 29.6673 4.60041 28.823 2.25966C28.6921 1.88663 28.5481 1.52014 28.4107 1.15364C28.3387 0.963853 28.2013 0.839507 27.9919 0.839507C27.4945 0.832962 26.9971 0.826418 26.4932 0.832962C26.3296 0.832962 26.251 0.963852 26.2837 1.12747C26.3153 1.26343 26.3568 1.39687 26.4081 1.52668C27.6908 4.70076 28.9801 7.87485 30.2759 11.0489C30.3871 11.3173 30.4133 11.5463 30.289 11.8212C30.073 12.2989 29.9029 12.8029 29.6803 13.2806C29.484 13.706 29.1568 14.0267 28.6856 14.151C28.3569 14.2369 28.0152 14.2613 27.6777 14.223C27.5141 14.2099 27.3505 14.1707 27.1869 14.1576C26.9644 14.1445 26.8531 14.2426 26.8466 14.4717C26.84 14.6899 26.84 14.9058 26.8466 15.1196C26.8531 15.4796 26.9775 15.6432 27.3309 15.7021C27.6955 15.7747 28.0654 15.8184 28.4369 15.833C29.556 15.8591 30.4461 15.4076 31.022 14.4324C31.2538 14.0474 31.4551 13.6447 31.6241 13.2282C33.1751 9.31464 34.7152 5.39666 36.2445 1.47432C36.2922 1.35846 36.3273 1.23778 36.3492 1.11438C36.3754 0.93113 36.2903 0.826418 36.107 0.826418C35.6751 0.819874 35.2366 0.826418 34.8047 0.826418C34.6948 0.818725 34.5854 0.848055 34.4941 0.909731C34.4028 0.971408 34.3347 1.06188 34.3008 1.16673C34.268 1.25835 34.2288 1.34343 34.1961 1.43506L31.9186 7.97956C31.755 8.45076 31.5848 8.92851 31.4146 9.43244C31.3885 9.36045 31.3754 9.32118 31.3557 9.27537Z" fill="#221F1F"/>
<path d="M0.000976562 17.5411C0.1515 17.2663 0.341291 17.2205 0.635793 17.3775C1.31642 17.744 1.98396 18.1236 2.67768 18.4705C5.33261 19.7943 8.12993 20.811 11.0154 21.5006C12.3797 21.8297 13.7603 22.0875 15.1515 22.2728C17.2117 22.5497 19.2906 22.6635 21.3688 22.6131C22.5075 22.5869 23.6463 22.4953 24.7785 22.3644C28.4545 21.9359 32.052 20.993 35.4656 19.5634C35.6554 19.4849 35.8518 19.4325 36.0612 19.4849C36.4997 19.6027 36.6502 20.0739 36.3295 20.3945C36.1345 20.5738 35.9243 20.7359 35.7012 20.8788C33.6921 22.2597 31.4997 23.261 29.1829 24.0136C27.5787 24.5307 25.9349 24.9159 24.268 25.1655C23.115 25.3421 21.9523 25.447 20.7863 25.4796C20.7314 25.4829 20.6768 25.4895 20.6227 25.4993H19.2418C19.1877 25.4895 19.1331 25.4829 19.0782 25.4796C18.8426 25.4665 18.607 25.46 18.3779 25.4534C17.2726 25.4033 16.1711 25.2875 15.0795 25.1066C13.287 24.8144 11.5256 24.3565 9.81773 23.7388C6.30463 22.4718 3.06916 20.5385 0.288935 18.0451C0.171134 17.9403 0.0925996 17.7964 0.000976562 17.672V17.5411ZM40.001 17.3383C39.9355 17.011 39.6868 16.8867 39.4054 16.7951C38.9593 16.6548 38.4978 16.5691 38.0311 16.5398C37.1742 16.4667 36.3114 16.5085 35.4656 16.6642C34.5298 16.8409 33.6397 17.1419 32.8478 17.6851C32.7536 17.7457 32.6714 17.8234 32.6057 17.9142C32.5828 17.9533 32.5681 17.9967 32.5624 18.0417C32.5568 18.0867 32.5604 18.1324 32.573 18.176C32.5991 18.2741 32.7104 18.3003 32.8086 18.2938C32.8567 18.2948 32.9048 18.2927 32.9525 18.2872C33.463 18.2349 33.9669 18.176 34.4774 18.1236C35.2235 18.0516 35.9761 18.0058 36.7222 18.0647C37.0415 18.0912 37.3573 18.1504 37.6646 18.2414C37.9984 18.333 38.1489 18.5817 38.162 18.922C38.1881 19.4456 38.0704 19.9495 37.9329 20.4469C37.6646 21.4547 37.2785 22.4299 36.8989 23.3985C36.8712 23.4618 36.8493 23.5275 36.8334 23.5948C36.8007 23.7846 36.912 23.9089 37.1018 23.8631C37.2189 23.8368 37.3272 23.7804 37.4159 23.6995C37.7112 23.425 37.9888 23.1321 38.2471 22.8225C39.0847 21.7492 39.5756 20.5123 39.8635 19.1838C39.9159 18.9482 39.9552 18.7061 40.001 18.4705V17.3383Z" fill="#FF9900"/>
</svg>
