<svg width="32" height="30" viewBox="0 0 32 30" fill="none" xmlns="http://www.w3.org/2000/svg">
<path fill-rule="evenodd" clip-rule="evenodd" d="M9.80418 11.3079C9.1441 12.2581 8.81406 13.4022 8.81406 14.7424H8.81006C8.81006 16.4306 9.29012 17.7367 10.2502 18.6569C11.2104 19.577 12.4385 20.037 13.9307 20.037C14.9008 20.037 15.7169 19.941 16.377 19.745C17.4231 19.453 18.4893 18.7169 19.5774 17.5327C19.6554 17.6307 19.7914 17.8188 19.9875 18.1028C20.1795 18.3848 20.3195 18.5709 20.4075 18.6709C20.4935 18.7669 20.6395 18.9229 20.8436 19.1349C21.0476 19.3489 21.2836 19.573 21.5557 19.805C21.8857 19.941 22.1677 19.921 22.3998 19.745C22.5358 19.629 23.4079 18.8749 25.0201 17.4747C25.1761 17.3587 25.2521 17.2227 25.2521 17.0687C25.2521 16.9326 25.1941 16.7766 25.0781 16.6026L24.41 15.7145C24.274 15.5305 24.13 15.2304 23.99 14.8104C23.8419 14.3963 23.7699 13.9363 23.7699 13.4302V6.38933C23.7699 6.31332 23.7619 6.06529 23.7419 5.64924C23.7219 5.23319 23.6939 4.95915 23.6539 4.83314C23.6179 4.70712 23.5579 4.47909 23.4779 4.15305C23.4019 3.82101 23.3179 3.56898 23.2179 3.39296C23.1238 3.21693 22.9898 3.02091 22.8238 2.79688C22.6578 2.57485 22.4798 2.36483 22.2877 2.1708C21.0436 1.02666 19.3174 0.45459 17.1071 0.45459H16.381C14.6568 0.550602 13.1466 1.01666 11.8564 1.85076C10.5683 2.68487 9.75818 3.96503 9.42814 5.69124C9.40813 5.76925 9.39813 5.83526 9.39813 5.89527C9.39813 6.1673 9.56415 6.34133 9.89219 6.42134L13.2386 6.82939C13.5487 6.77138 13.7427 6.54735 13.8227 6.1593C13.9567 5.53923 14.2567 5.05316 14.7228 4.70312C15.1889 4.35108 15.7429 4.15105 16.383 4.09104H16.609C17.4831 4.09104 18.1232 4.38308 18.5293 4.96715C18.7993 5.39121 18.9393 6.22731 18.9393 7.46747V7.96153C17.7552 8.05754 16.8991 8.13355 16.379 8.19356C14.8468 8.38758 13.5567 8.70762 12.5105 9.15368C11.3644 9.63974 10.4643 10.3578 9.80418 11.3079ZM14.3848 15.9785C14.0067 15.5185 13.8187 14.9144 13.8187 14.1583L13.8167 14.1603C13.8167 12.4921 14.6688 11.416 16.377 10.9319C16.9571 10.7779 17.8112 10.6979 18.9373 10.6979V11.424C18.9373 12.044 18.9333 12.4921 18.9233 12.7641C18.9133 13.0362 18.8553 13.3902 18.7493 13.8243C18.6413 14.2603 18.4813 14.6624 18.2692 15.0324C17.8232 15.8665 17.1911 16.3886 16.379 16.6026C16.339 16.6026 16.265 16.6126 16.159 16.6326C16.051 16.6506 15.971 16.6586 15.9109 16.6586C15.2709 16.6586 14.7648 16.4326 14.3848 15.9785Z" fill="#221F1F"/>
<path d="M26.2102 23.2935C26.1362 23.3715 26.0762 23.4475 26.0362 23.5275V23.5315C26.0162 23.5695 26.0082 23.5975 26.0082 23.6175C25.9882 23.6575 25.9962 23.6935 26.0362 23.7335C26.0762 23.7735 26.1502 23.7935 26.2702 23.7935C26.6762 23.7355 27.1223 23.6795 27.6104 23.6195C28.0544 23.5795 28.4425 23.5595 28.7705 23.5595C29.6646 23.5595 30.2067 23.6775 30.4007 23.9075C30.4767 24.0036 30.5167 24.1596 30.5167 24.3736C30.5167 25.0337 30.1607 26.2058 29.4406 27.894C29.3826 28.0481 29.4086 28.1541 29.5286 28.2141C29.5646 28.2321 29.6046 28.2421 29.6446 28.2421C29.7226 28.2421 29.8086 28.2061 29.9086 28.1261C30.5647 27.564 31.0788 26.8199 31.4488 25.8998C31.8169 24.9797 32.0009 24.1796 32.0009 23.4995V23.2955C32.0009 23.0634 31.9649 22.8894 31.8849 22.7754C31.7129 22.5594 31.1868 22.4154 30.3127 22.3353C30.1407 22.2973 29.9546 22.2853 29.7606 22.3053C29.0625 22.3253 28.3444 22.4334 27.6104 22.6254C27.1623 22.7414 26.6962 22.9654 26.2102 23.2935Z" fill="#FF9900"/>
<path d="M0.525042 23.0033C0.311015 22.8673 0.156996 22.8773 0.060984 23.0333C0.0209791 23.0913 0.000976562 23.1473 0.000976562 23.2073C0.000976562 23.3034 0.060984 23.4034 0.178999 23.4974C2.31327 25.4176 4.72557 26.9078 7.42591 27.9639C10.1202 29.0201 12.9806 29.5501 16.007 29.5501C17.9672 29.5501 19.9735 29.2761 22.0277 28.736C24.084 28.192 25.9462 27.4259 27.6124 26.4358C28.1565 26.1077 28.6026 25.8157 28.9526 25.5636C29.2226 25.3696 29.2766 25.1556 29.1126 24.9236C28.9466 24.6895 28.7186 24.6335 28.4265 24.7495C28.3567 24.7836 28.2452 24.832 28.0906 24.8992L28.0345 24.9236L27.6144 25.0976C23.908 26.5138 20.1535 27.2239 16.353 27.2239C10.6503 27.2239 5.37365 25.8157 0.525042 23.0033Z" fill="#FF9900"/>
</svg>
