<svg width="37" height="36" viewBox="0 0 37 36" fill="none" xmlns="http://www.w3.org/2000/svg">
<g clip-path="url(#clip0_202_13819)">
<path d="M23.7471 17.4163V13.3519L22.2344 14.1127L23.7471 17.4181V17.4163Z" fill="#C9EBEC"/>
<path d="M27.498 14.5952L33.7759 8.31897L23.7471 13.3519L27.498 14.5952Z" fill="#C9EBEC"/>
<path d="M23.7469 18.2405L22.479 21.6516L22.4825 21.6481L25.3565 18.7741L27.1298 22.3049H36.0052L23.7469 18.2405Z" fill="#C9EBEC"/>
<path d="M23.7471 13.3519V17.4163H36.0053L27.498 14.5952L23.7471 13.3519Z" fill="#00868C"/>
<path d="M23.7471 17.4163V17.418V18.2404L36.0053 22.3048V17.4163H23.7471Z" fill="#00B3BB"/>
<path d="M18.6118 23.7365H22.6533L21.41 27.4874L27.6933 33.7724L21.9014 22.2291L18.6118 23.7365Z" fill="#C9EBEC"/>
<path d="M22.4829 21.6479L31.1488 30.3155L27.1302 22.3048L25.3569 18.774L22.4829 21.6479Z" fill="#00868C"/>
<path d="M22.4825 21.648L22.479 21.6515L21.9014 22.2291L27.6933 33.7725L31.1483 30.3156L22.4825 21.648Z" fill="#00B3BB"/>
<path d="M14.354 22.4669L14.3575 22.4721L17.2315 25.3461L13.7007 27.1176V35.9931L17.7668 23.7365L14.354 22.4669Z" fill="#C9EBEC"/>
<path d="M18.6123 23.7364H18.5894V35.9929L21.4105 27.4873L22.6537 23.7364H18.6123Z" fill="#00868C"/>
<path d="M18.5892 23.7364H17.7668L13.7007 35.9929H18.5892V23.7364Z" fill="#00B3BB"/>
<path d="M8.51092 21.4049L2.23474 27.6829L12.2618 22.6499L8.51092 21.4049Z" fill="#C9EBEC"/>
<path d="M12.2617 18.5838V22.6499L13.7762 21.8892L12.2617 18.5838Z" fill="#C9EBEC"/>
<path d="M14.3576 22.472L5.68994 31.1378L13.7007 27.1175L17.2315 25.3459L14.3576 22.472Z" fill="#00868C"/>
<path d="M14.3574 22.472L14.3539 22.4668L13.7763 21.8892L12.2618 22.6499L2.23474 27.6828L5.68981 31.1379L14.3574 22.472Z" fill="#00B3BB"/>
<path d="M13.5316 14.3486L13.528 14.3539L10.6523 17.2278L8.88078 13.697H0.00537109L12.2619 17.7614L13.5316 14.3486Z" fill="#C9EBEC"/>
<path d="M12.2619 22.6499V18.5838H0.00537109L8.51097 21.4049L12.2619 22.6499Z" fill="#00868C"/>
<path d="M12.2619 18.5838V17.7614L0.00537109 13.697V18.5838H12.2619Z" fill="#00B3BB"/>
<path d="M17.3988 12.2655H13.3556L14.6006 8.51454L8.31738 2.22955L14.1093 13.7711L17.3988 12.2655Z" fill="#C9EBEC"/>
<path d="M13.528 14.3539L4.86035 5.68628L8.8807 13.697L10.6523 17.2278L13.528 14.3539Z" fill="#00868C"/>
<path d="M13.528 14.3539L13.5315 14.3486L14.1091 13.771L8.31718 2.22943L4.86035 5.68626L13.528 14.3539Z" fill="#00B3BB"/>
<path d="M21.6569 13.5333L21.6517 13.5298L18.7777 10.6558L22.3085 8.88426V0.0088501L18.2441 12.2654L21.6569 13.5333Z" fill="#C9EBEC"/>
<path d="M17.3987 12.2654H17.4216V0.0088501L14.6005 8.51445L13.3555 12.2654H17.3987Z" fill="#00868C"/>
<path d="M17.4214 12.2654H18.2438L22.3081 0.0088501H17.4214V12.2654Z" fill="#00B3BB"/>
<path d="M21.6513 13.5297L30.3189 4.86383L22.3081 8.88418L18.7773 10.6557L21.6513 13.5297Z" fill="#00868C"/>
<path d="M21.6514 13.5297L21.6567 13.5332L22.2343 14.1126L23.747 13.3518L33.7758 8.3189L30.319 4.86383L21.6514 13.5297Z" fill="#00B3BB"/>
</g>
<defs>
<clipPath id="clip0_202_13819">
<rect width="37" height="36" fill="white"/>
</clipPath>
</defs>
</svg>
