<svg width="36" height="37" viewBox="0 0 36 37" fill="none" xmlns="http://www.w3.org/2000/svg">
<g clip-path="url(#clip0_202_11697)">
<path fill-rule="evenodd" clip-rule="evenodd" d="M17.9922 0.00244141C8.05617 0.00244141 0.0012207 8.06154 0.0012207 18.0025C0.0012207 27.13 6.79153 34.6695 15.5935 35.8429V32.216C15.5935 31.1931 14.9489 30.2741 13.9798 29.9486C8.90127 28.2418 5.2681 23.3853 5.40206 17.6989C5.56489 10.7761 11.2013 5.33329 18.122 5.40308C25.0174 5.47286 30.5861 11.087 30.5861 18.0025C30.5861 18.1602 30.5821 18.317 30.5763 18.473L30.5726 18.5783C30.5659 18.7228 30.5569 18.8673 30.5456 19.0115C30.5422 19.0572 30.5377 19.1029 30.5335 19.1486C30.5147 19.3616 30.4901 19.574 30.4598 19.7856C30.4529 19.8367 30.4459 19.888 30.4382 19.9389C28.8963 30.1006 15.6675 35.812 15.595 35.8433C16.3795 35.9476 17.1795 36.0024 17.9922 36.0024C27.9282 36.0024 35.9834 27.9438 35.9834 18.0025C35.9834 8.06154 27.9284 0.00244141 17.9922 0.00244141Z" fill="#5FCAF4"/>
</g>
<defs>
<clipPath id="clip0_202_11697">
<rect width="36" height="37" fill="white"/>
</clipPath>
</defs>
</svg>
