<svg width="36" height="34" viewBox="0 0 36 34" fill="none" xmlns="http://www.w3.org/2000/svg">
<g clip-path="url(#clip0_202_9849)">
<path d="M34.7034 10.5592C33.8705 8.58544 32.6776 6.81567 31.1583 5.29932C28.0571 2.20431 23.9295 0.501343 19.5312 0.501343H19.4973C16.5599 0.507108 13.6097 1.35606 10.9658 2.95623C8.47017 4.46668 6.38893 6.59011 5.10572 8.93559C4.99688 9.13458 5.07001 9.38419 5.26899 9.49303C5.46811 9.60187 5.71744 9.52875 5.82629 9.32976C7.041 7.10944 9.01734 5.09541 11.3911 3.65879C13.9073 2.13596 16.7109 1.32808 19.4989 1.32259H19.531C23.7101 1.32259 27.6321 2.94062 30.5782 5.88066C33.5455 8.84208 35.1796 12.7925 35.1796 17.0042C35.1796 21.1929 33.5485 25.1308 30.5866 28.0926C27.6248 31.0545 23.6869 32.6857 19.4981 32.6857C16.7205 32.6857 13.9915 31.95 11.6064 30.5582C9.29114 29.2072 7.34686 27.2728 5.98407 24.9641C5.86875 24.7687 5.6169 24.704 5.42157 24.8192C5.22638 24.9345 5.16155 25.1863 5.27687 25.3815C6.71067 27.8107 8.75634 29.8461 11.1925 31.2676C13.7031 32.7325 16.5751 33.507 19.4981 33.507C23.9061 33.507 28.0503 31.7903 31.1673 28.6734C34.2844 25.5563 36.001 21.4122 36.001 17.0042C36.001 14.7676 35.5645 12.5993 34.7034 10.5592ZM1.91734 12.3331H7.10175C7.32844 12.3331 7.51238 12.1491 7.51238 11.9224C7.51238 11.6956 7.32844 11.5118 7.10175 11.5118H1.91734C1.69051 11.5118 1.50672 11.6956 1.50672 11.9224C1.50672 12.1491 1.69051 12.3331 1.91734 12.3331ZM5.33937 17.2437C5.33937 17.0168 5.15558 16.833 4.92875 16.833H0.411601C0.184773 16.833 0.000976562 17.0168 0.000976562 17.2437C0.000976562 17.4705 0.184773 17.6543 0.411601 17.6543H4.92875C5.15558 17.6543 5.33937 17.4705 5.33937 17.2437ZM7.08462 22.5649C7.08462 22.3381 6.90083 22.1543 6.674 22.1543H1.13029C0.903464 22.1543 0.719667 22.3381 0.719667 22.5649C0.719667 22.7916 0.903464 22.9756 1.13029 22.9756H6.674C6.90083 22.9756 7.08462 22.7916 7.08462 22.5649ZM10.7438 13.9531C10.8515 13.9355 10.9477 13.8759 11.0113 13.7873C11.075 13.6987 11.1007 13.5885 11.0829 13.4809C10.779 11.6432 11.0867 10.0087 11.973 8.75381C12.7522 7.65061 13.9613 6.86958 15.3777 6.55486C18.1736 5.93358 21.5352 7.1985 22.5504 10.8185C22.5829 10.9343 22.6646 11.0301 22.7738 11.0804C22.8831 11.1309 23.009 11.1308 23.1181 11.0803C24.2527 10.5559 25.4083 10.5188 26.3727 10.976C27.3554 11.4418 28.0694 12.3673 28.3828 13.582C28.4229 13.7373 28.5496 13.855 28.7072 13.8835C31.3835 14.3678 32.5096 16.4134 32.4384 18.2256C32.4006 19.1898 32.0323 20.1015 31.4015 20.7924C30.7009 21.5599 29.7047 22.0305 28.5199 22.1542H24.0023C23.8986 22.1542 23.7986 22.1936 23.7225 22.2645L16.8375 28.6751V22.5137C16.8375 22.2868 16.6536 22.103 16.4269 22.103H10.9026C9.79924 22.0195 8.85607 21.5687 8.17447 20.7986C7.55192 20.0949 7.18475 19.1661 7.14101 18.183C7.09728 17.2017 7.38387 16.2554 7.94792 15.5187C8.58312 14.689 9.54992 14.1477 10.7438 13.9531ZM6.32047 18.2195C6.41469 20.3331 7.87479 22.7066 10.8577 22.9232C10.8676 22.9239 10.8774 22.9243 10.8874 22.9243H16.0161V29.6186C16.0161 29.7821 16.1132 29.9299 16.2629 29.9952C16.3157 30.0181 16.3715 30.0293 16.4267 30.0293C16.5287 30.0293 16.6291 29.9914 16.7066 29.9192L24.1639 22.9756H28.5409C28.5546 22.9756 28.5684 22.9749 28.5822 22.9735C31.6973 22.6592 33.1759 20.3786 33.2591 18.2578C33.3052 17.0806 32.9376 15.9289 32.2238 15.0146C31.4809 14.0631 30.4074 13.4137 29.1074 13.1264C28.7001 11.794 27.8611 10.7726 26.7244 10.2337C25.6612 9.72988 24.4259 9.70541 23.2039 10.1561C22.6282 8.48226 21.5435 7.18514 20.0463 6.3878C18.5836 5.60902 16.8624 5.38359 15.1995 5.75316C13.5835 6.11231 12.1993 7.00978 11.3022 8.28004C10.3541 9.6223 9.98149 11.3234 10.2155 13.2196C7.40356 13.8578 6.22836 16.1509 6.32047 18.2195ZM13.0966 16.0463C13.7476 16.0463 14.2773 16.5759 14.2773 17.2268C14.2773 17.8778 13.7476 18.4075 13.0966 18.4075C12.4456 18.4075 11.9159 17.8778 11.9159 17.2268C11.9159 16.5759 12.4456 16.0463 13.0966 16.0463ZM17.884 12.5198C18.535 12.5198 19.0646 13.0494 19.0646 13.7004C19.0646 14.3515 18.535 14.8811 17.884 14.8811C17.2331 14.8811 16.7033 14.3515 16.7033 13.7004C16.7033 13.0494 17.2331 12.5198 17.884 12.5198ZM21.8713 19.3498C21.8713 20.0009 21.3417 20.5305 20.6906 20.5305C20.0397 20.5305 19.5101 20.0009 19.5101 19.3498C19.5101 18.6989 20.0397 18.1693 20.6906 18.1693C21.3417 18.1693 21.8713 18.6989 21.8713 19.3498ZM25.2215 14.5403C25.8725 14.5403 26.4021 15.0699 26.4021 15.7209C26.4021 16.3718 25.8725 16.9014 25.2215 16.9014C24.5705 16.9014 24.0409 16.3718 24.0409 15.7209C24.0409 15.0699 24.5705 14.5403 25.2215 14.5403ZM13.0966 19.2288C14.2005 19.2288 15.0985 18.3307 15.0985 17.2268C15.0985 16.9456 15.0399 16.6777 14.9347 16.4345L16.5139 15.1581C16.8724 15.4952 17.3543 15.7023 17.884 15.7023C17.9916 15.7023 18.0971 15.6936 18.2002 15.6771L19.2749 17.936C18.913 18.2984 18.6888 18.7984 18.6888 19.3498C18.6888 20.4537 19.5869 21.3518 20.6906 21.3518C21.7945 21.3518 22.6925 20.4537 22.6925 19.3498C22.6925 19.014 22.609 18.6973 22.4622 18.419L23.9483 17.2647C24.2945 17.5507 24.7384 17.7227 25.2215 17.7227C26.3253 17.7227 27.2233 16.8248 27.2233 15.7209C27.2233 14.617 26.3253 13.7189 25.2215 13.7189C24.1176 13.7189 23.2196 14.617 23.2196 15.7209C23.2196 16.0454 23.2977 16.3519 23.4353 16.6233L21.9382 17.786C21.5958 17.5123 21.1621 17.348 20.6906 17.348C20.4362 17.348 20.1929 17.3963 19.9689 17.4832L18.9689 15.3815C19.5202 15.0245 19.8858 14.4046 19.8858 13.7004C19.8858 12.5966 18.9879 11.6986 17.884 11.6986C16.7801 11.6986 15.8821 12.5966 15.8821 13.7004C15.8821 13.9783 15.939 14.2431 16.0418 14.4837L14.4595 15.7625C14.1019 15.4294 13.6228 15.225 13.0966 15.225C11.9927 15.225 11.0947 16.1229 11.0947 17.2268C11.0947 18.3307 11.9927 19.2288 13.0966 19.2288Z" fill="#26BF95"/>
</g>
<defs>
<clipPath id="clip0_202_9849">
<rect width="36.001" height="34" fill="white"/>
</clipPath>
</defs>
</svg>
