<svg width="37" height="36" viewBox="0 0 37 36" fill="none" xmlns="http://www.w3.org/2000/svg">
<g clip-path="url(#clip0_202_9192)">
<path d="M0.00488281 0.0472412H35.9155V19.4329L34.138 22.2102L35.9155 24.682V35.9578H0.00488281V17.6832L1.11581 16.4056L0.00488281 15.1836V0.0472412Z" fill="#016FD0"/>
<path d="M6.97595 25.0707V19.4327H12.9455L13.5859 20.2677L14.2476 19.4327H35.9155V24.6819C35.9155 24.6819 35.3489 25.065 34.6935 25.0707H22.6955L21.9734 24.1819V25.0707H19.6072V23.5536C19.6072 23.5536 19.2839 23.7653 18.5851 23.7653H17.7797V25.0707H14.197L13.5574 24.2178L12.908 25.0707H6.97595Z" fill="white"/>
<path d="M0.00488281 15.1835L1.35104 12.0452H3.67906L4.44302 13.8031V12.0452H7.33698L7.79176 13.3158L8.23266 12.0452H21.2235V12.6839C21.2235 12.6839 21.9064 12.0452 23.0288 12.0452L27.2438 12.0599L27.9946 13.7949V12.0452H30.4164L31.083 13.0418V12.0452H33.527V17.6831H31.083L30.4442 16.6833V17.6831H26.886L26.5282 16.7944H25.5716L25.2196 17.6831H22.8066C21.8409 17.6831 21.2235 17.0574 21.2235 17.0574V17.6831H17.5852L16.8631 16.7944V17.6831H3.33418L2.9766 16.7944H2.02309L1.66804 17.6831H0.00488281V15.1835Z" fill="white"/>
<path d="M1.82751 12.7402L0.0118408 16.9617H1.19393L1.52895 16.1164H3.47653L3.80981 16.9617H5.01794L3.20401 12.7402H1.82751ZM2.49927 13.7227L3.09292 15.1999H1.90388L2.49927 13.7227Z" fill="#016FD0"/>
<path d="M5.14294 16.961V12.7395L6.82276 12.7457L7.7998 15.4675L8.75345 12.7395H10.4198V16.961H9.36445V13.8504L8.24573 16.961H7.32016L6.19832 13.8504V16.961H5.14294Z" fill="#016FD0"/>
<path d="M11.1418 16.961V12.7395H14.5857V13.6838H12.2083V14.4059H14.5302V15.2946H12.2083V16.0445H14.5857V16.961H11.1418Z" fill="#016FD0"/>
<path d="M15.1968 12.7402V16.9617H16.2522V15.462H16.6965L17.9619 16.9617H19.2516L17.863 15.4065C18.4329 15.3584 19.0208 14.8692 19.0208 14.1098C19.0208 13.2214 18.3235 12.7402 17.5453 12.7402H15.1968ZM16.2522 13.6845H17.4585C17.7479 13.6845 17.9585 13.9109 17.9585 14.1289C17.9585 14.4093 17.6857 14.5733 17.4742 14.5733H16.2522V13.6845Z" fill="#016FD0"/>
<path d="M20.5291 16.961H19.4515V12.7395H20.5291V16.961Z" fill="#016FD0"/>
<path d="M23.0843 16.961H22.8517C21.7263 16.961 21.043 16.0744 21.043 14.8676C21.043 13.6311 21.7186 12.7395 23.1398 12.7395H24.3063V13.7393H23.0972C22.5203 13.7393 22.1122 14.1896 22.1122 14.878C22.1122 15.6956 22.5788 16.0389 23.2509 16.0389H23.5287L23.0843 16.961Z" fill="#016FD0"/>
<path d="M25.3808 12.7402L23.5652 16.9617H24.7473L25.0823 16.1164H27.0299L27.3632 16.9617H28.5713L26.7574 12.7402H25.3808ZM26.0526 13.7227L26.6463 15.1999H25.4572L26.0526 13.7227Z" fill="#016FD0"/>
<path d="M28.6945 16.961V12.7395H30.0362L31.7495 15.3918V12.7395H32.8049V16.961H31.5065L29.7498 14.2392V16.961H28.6945Z" fill="#016FD0"/>
<path d="M7.698 24.3487V20.1272H11.1419V21.0715H8.76448V21.7936H11.0863V22.6823H8.76448V23.4322H11.1419V24.3487H7.698Z" fill="#016FD0"/>
<path d="M24.573 24.3487V20.1272H28.0169V21.0715H25.6395V21.7936H27.9502V22.6823H25.6395V23.4322H28.0169V24.3487H24.573Z" fill="#016FD0"/>
<path d="M11.2755 24.3487L12.9523 22.264L11.2356 20.1272H12.5652L13.5876 21.4482L14.6135 20.1272H15.8911L14.1969 22.238L15.8768 24.3487H14.5474L13.5546 23.0486L12.5861 24.3487H11.2755Z" fill="#016FD0"/>
<path d="M16.0022 20.1278V24.3493H17.0853V23.0162H18.1963C19.1363 23.0162 19.8488 22.5175 19.8488 21.5477C19.8488 20.7443 19.29 20.1278 18.3334 20.1278H16.0022ZM17.0853 21.0825H18.2553C18.559 21.0825 18.776 21.2686 18.776 21.5685C18.776 21.8503 18.5601 22.0546 18.2518 22.0546H17.0853V21.0825Z" fill="#016FD0"/>
<path d="M20.307 20.1272V24.3487H21.3624V22.849H21.8068L23.0722 24.3487H24.3619L22.9732 22.7934C23.5431 22.7453 24.131 22.2562 24.131 21.4968C24.131 20.6084 23.4338 20.1272 22.6556 20.1272H20.307ZM21.3624 21.0715H22.5688C22.8582 21.0715 23.0687 21.2979 23.0687 21.5159C23.0687 21.7963 22.7959 21.9602 22.5844 21.9602H21.3624V21.0715Z" fill="#016FD0"/>
<path d="M28.5056 24.3487V23.4322H30.6177C30.9303 23.4322 31.0656 23.2633 31.0656 23.0781C31.0656 22.9006 30.9307 22.7212 30.6177 22.7212H29.6633C28.8336 22.7212 28.3716 22.2157 28.3716 21.4568C28.3716 20.78 28.7947 20.1272 30.0276 20.1272H32.0828L31.6384 21.077H29.8609C29.5211 21.077 29.4165 21.2553 29.4165 21.4256C29.4165 21.6006 29.5458 21.7936 29.8054 21.7936H30.8052C31.73 21.7936 32.1314 22.3182 32.1314 23.0052C32.1314 23.7438 31.6842 24.3487 30.7549 24.3487H28.5056Z" fill="#016FD0"/>
<path d="M32.3791 24.3487V23.4322H34.4913C34.8038 23.4322 34.9391 23.2633 34.9391 23.0781C34.9391 22.9006 34.8042 22.7212 34.4913 22.7212H33.5368C32.7072 22.7212 32.2451 22.2157 32.2451 21.4568C32.2451 20.78 32.6682 20.1272 33.9011 20.1272H35.9563L35.5119 21.077H33.7345C33.3947 21.077 33.2901 21.2553 33.2901 21.4256C33.2901 21.6006 33.4193 21.7936 33.6789 21.7936H34.6787C35.6036 21.7936 36.0049 22.3182 36.0049 23.0052C36.0049 23.7438 35.5577 24.3487 34.6284 24.3487H32.3791Z" fill="#016FD0"/>
</g>
<defs>
<clipPath id="clip0_202_9192">
<rect width="37" height="36" fill="white"/>
</clipPath>
</defs>
</svg>
