<svg width="41" height="40" viewBox="0 0 41 40" fill="none" xmlns="http://www.w3.org/2000/svg">
<g clip-path="url(#clip0_202_8834)">
<path d="M19.9955 0.000396729C31.0813 0.0876761 39.9629 8.66801 40.0012 20.2041C40.0361 30.7788 31.3981 40.2282 19.4926 39.9962C8.63313 39.7846 -0.236794 30.9389 0.00609303 19.3892C0.220421 9.18821 8.54318 0.105826 19.9955 0.000396729ZM15.7831 23.0251C16.4941 23.0251 17.2055 23.0267 17.9165 23.0243C18.2565 23.0232 18.4695 23.1001 18.3903 23.5263C18.216 24.4637 18.0732 25.4067 17.92 26.3475C17.6314 28.1211 17.3437 29.8948 17.0571 31.6686C17.0296 31.8376 16.9412 32.0183 17.159 32.1349C17.5298 32.3332 18.5435 32.0808 18.753 31.7308C21.4103 27.2964 24.0664 22.8612 26.721 18.4251C27.2725 17.5024 26.9831 17.0036 25.9014 16.9956C24.6567 16.9867 23.412 16.9867 22.1673 16.9956C21.7808 16.9977 21.5182 16.9467 21.6113 16.4409C21.8889 14.9364 22.1425 13.4275 22.3968 11.9187C22.5958 10.7375 22.7864 9.55495 22.9686 8.37094C22.9958 8.19424 23.1034 7.97564 22.8156 7.87075C22.2012 7.69229 21.541 7.92143 21.1693 8.4422C19.1252 11.8465 17.0826 15.2519 15.0416 18.6582C14.4256 19.6858 13.7912 20.7027 13.2042 21.7468C12.7644 22.5289 13.0532 23.0133 13.9163 23.0227C14.5385 23.0293 15.1609 23.024 15.7834 23.0253L15.7831 23.0251Z" fill="#1D5FE6"/>
</g>
<defs>
<clipPath id="clip0_202_8834">
<rect width="41" height="40.0004" fill="white"/>
</clipPath>
</defs>
</svg>
