<svg width="36" height="41" viewBox="0 0 36 41" fill="none" xmlns="http://www.w3.org/2000/svg">
<g clip-path="url(#clip0_202_16054)">
<path d="M17.5576 17.7428L24.4933 26.133L24.7239 25.9024C25.4689 25.1042 26.1784 24.3059 26.8348 23.5077C27.4911 22.7095 29.2294 20.8824 29.8325 20.0487L32.5465 25.0155C32.0853 25.6718 31.4645 26.47 30.7195 27.3569C29.9744 28.2439 29.0875 29.2727 28.0055 30.4079L35.1718 39.2594H27.9168L24.0676 34.5232C20.5554 38.1773 16.8481 40.0044 13.0521 40.0044C9.62855 40.0044 6.7372 38.9224 4.34252 36.7228C2.00105 34.5232 0.830322 31.8093 0.830322 28.5809C0.830322 24.7317 2.65737 21.5033 6.40017 18.9844L8.93675 17.2461C8.98997 17.2461 9.02544 17.1929 9.13187 17.1042C9.22056 17.051 9.32699 16.9623 9.45116 16.8204C6.91458 14.1064 5.60194 11.4279 5.60194 8.80262C5.60194 6.17734 6.45338 4.06648 8.13853 2.43455C9.87688 0.802621 12.1119 0.00439453 14.8791 0.00439453C17.5576 0.00439453 19.7039 0.802621 21.4423 2.39907C23.1807 3.99553 24.0676 5.99996 24.0676 8.39464C24.0676 10.0798 23.6064 11.5875 22.6662 12.9357C21.6729 14.2306 19.9877 15.8802 17.5576 17.7428ZM12.9279 21.0243L12.6086 21.2549C10.2139 22.8869 8.58198 24.2527 7.73054 25.2283C6.8791 26.204 6.47112 27.286 6.47112 28.4212C6.47112 30.0177 7.12744 31.5077 8.38686 32.8204C9.6995 34.0798 11.1895 34.7361 12.786 34.7361C15.0387 34.7361 17.6108 33.2816 20.5554 30.337L12.9279 21.0243ZM14.1873 13.6807L14.6485 13.3082C15.4467 12.7051 16.1563 12.1374 16.6707 11.7117C17.1851 11.2505 17.6108 10.8603 17.8414 10.541C18.3558 9.93788 18.5864 9.17513 18.5864 8.25273C18.5864 7.22391 18.2671 6.42568 17.5576 5.76936C16.8481 5.11304 15.9611 4.82923 14.7904 4.82923C13.7616 4.82923 12.8747 5.14852 12.1119 5.80484C11.4024 6.40794 11.0299 7.20617 11.0299 8.19952C11.0299 9.31703 11.4911 10.4523 12.3957 11.5698L13.8503 13.3082C13.9035 13.3436 13.9922 13.4855 14.1873 13.6807Z" fill="#E7168E"/>
<path d="M12.5952 0.287743C11.052 1.08597 11.2471 1.03275 10.1828 2.41635C4.55972 9.81324 10.0586 14.8687 12.3469 17.5826C11.6196 18.0793 10.8923 18.576 10.165 19.0727C8.81693 19.9951 7.45108 20.9175 6.31582 22.0882C5.16283 23.2589 4.24043 24.678 3.92114 26.2744C3.65507 27.6048 3.7615 29.0061 4.11626 30.301C6.13844 37.8221 12.5597 37.4496 14.6351 38.9574C13.9965 40.0749 12.5242 39.2944 11.2471 39.525C9.96992 39.7556 9.66837 39.3831 8.42669 39.0106C4.71937 37.8931 2.04088 35.25 1.18944 31.4718C-0.105465 25.8132 2.71493 22.6203 2.71493 22.6203C2.71493 22.6203 3.33578 21.3432 5.64176 19.4452C5.78367 19.321 9.36682 17.0328 9.42003 16.8554C9.50873 16.6248 7.66394 14.9042 7.32691 14.1414C6.88345 13.1481 5.57081 11.321 5.57081 9.03275C5.58855 5.69794 6.86571 1.45847 12.5065 0.163574L12.5952 0.287743ZM13.0032 21.1835C13.5176 20.7046 13.7305 20.5272 14.369 20.2079C16.9766 23.1347 19.1939 25.9019 21.6418 29.1126C21.0387 29.5383 20.542 30.3365 20.542 30.3365L13.0032 21.1835ZM17.4732 38.4252C19.9211 37.0416 22.032 35.0372 23.5575 32.678C23.6462 32.5361 23.7704 32.3587 23.9477 32.341C24.1251 32.3232 24.2848 32.4829 24.4089 32.607C26.165 34.6292 27.2293 36.0483 28.7016 38.301C27.9744 38.709 28.3469 38.6735 27.5132 38.6203C27.1052 38.6026 24.2138 34.4163 24.001 34.5937C22.8302 35.658 20.0453 38.9396 17.4378 38.443L17.4732 38.4252ZM31.8236 23.7024C30.369 25.423 28.9854 27.1259 27.5841 28.8997C27.5309 28.9707 27.4599 29.0594 27.4422 29.1658C27.4245 29.3254 27.8324 30.1059 28.0453 30.3543C29.1451 29.1658 30.2981 27.9418 31.2027 26.7711C31.6285 26.239 32.4622 25.0505 32.5508 24.9973C32.4976 24.9618 31.8591 23.7379 31.8236 23.7024ZM14.0143 13.6092C14.5642 14.2124 15.114 14.7977 15.6639 15.4008C17.7038 14.2124 19.1939 12.1015 19.6373 9.77776C19.7438 9.24561 19.7792 8.67799 19.7083 8.14584C19.4954 6.62034 18.1828 5.39639 16.675 5.16579C17.5797 5.66247 18.1473 6.26557 18.4489 7.11701C18.7681 7.96845 18.6617 8.99728 18.2537 9.81324C18.0231 10.2922 17.6684 10.6824 17.3136 11.0904C16.4089 12.0838 15.4511 12.6869 14.2449 13.6979L14.0143 13.6092Z" fill="black" fill-opacity="0.1"/>
</g>
<defs>
<clipPath id="clip0_202_16054">
<rect width="36" height="41" fill="white"/>
</clipPath>
</defs>
</svg>
