<svg width="37" height="34" viewBox="0 0 37 34" fill="none" xmlns="http://www.w3.org/2000/svg">
<path fill-rule="evenodd" clip-rule="evenodd" d="M18.0495 33.9716C17.6321 33.9716 17.2147 33.8137 16.8942 33.4977L12.2676 28.9352C11.6204 28.2968 11.6127 27.254 12.2506 26.6066C12.8889 25.9584 13.9302 25.9523 14.578 26.5895L18.0537 30.017L30.3846 17.9445C33.5202 14.5867 33.5126 9.14421 30.3625 5.79639C29.0575 4.40974 27.4063 3.57079 25.5869 3.37075C23.2295 3.11033 20.9004 3.98573 19.2063 5.77027C18.8956 6.09762 18.4644 6.28315 18.0131 6.28315C17.562 6.28315 17.1306 6.09762 16.8197 5.77027C15.4424 4.31906 13.6246 3.45545 11.7025 3.33938C9.46274 3.20137 7.26072 4.0998 5.66444 5.79602C3.52604 8.06823 2.76315 11.3948 3.67249 14.4779C3.92987 15.3504 3.43197 16.2661 2.56033 16.5232C1.68887 16.7815 0.773736 16.2831 0.516359 15.4106C-0.723581 11.2084 0.330939 6.65964 3.26812 3.53887C5.53503 1.12847 8.69061 -0.145551 11.9006 0.0526708C14.128 0.186874 16.2492 1.01241 18.0122 2.40975C20.2689 0.616506 23.0838 -0.218819 25.9461 0.097647C28.5168 0.380018 30.9361 1.60199 32.7584 3.53887C37.0876 8.1395 37.0876 15.6248 32.7588 20.2258C32.7432 20.2419 32.7274 20.2581 32.7115 20.2742L19.2005 33.5019C18.8804 33.8149 18.4648 33.9716 18.0495 33.9716Z" fill="url(#paint0_linear_202_8794)"/>
<path fill-rule="evenodd" clip-rule="evenodd" d="M9.62766 25.4632C9.16076 25.4632 8.6944 25.2878 8.33443 24.9373L3.99183 20.7021C3.25903 19.9871 3.24381 18.8134 3.95794 18.0804C4.67261 17.3472 5.84585 17.3325 6.57829 18.0465L9.62422 21.0172L20.1591 10.6894C20.8897 9.97232 22.063 9.98502 22.7789 10.7162C23.495 11.4471 23.4832 12.6212 22.7522 13.3376L10.9243 24.9333C10.5644 25.2865 10.0958 25.4632 9.62766 25.4632Z" fill="white"/>
<defs>
<linearGradient id="paint0_linear_202_8794" x1="18.0054" y1="33.5126" x2="18.0054" y2="0.0319214" gradientUnits="userSpaceOnUse">
<stop stop-color="#EF9C23"/>
<stop offset="0.282808" stop-color="#F3AD30"/>
<stop offset="0.511493" stop-color="#F5B838"/>
<stop offset="1" stop-color="#FCD54E"/>
</linearGradient>
</defs>
</svg>
