<svg width="41" height="23" viewBox="0 0 41 23" fill="none" xmlns="http://www.w3.org/2000/svg">
<g clip-path="url(#clip0_202_8828)">
<path d="M29.2078 16.8791C28.8782 16.8791 28.5559 16.7813 28.2818 16.5982C28.0078 16.4151 27.7941 16.1548 27.668 15.8502C27.5418 15.5457 27.5088 15.2106 27.5731 14.8873C27.6375 14.564 27.7962 14.267 28.0293 14.0339C28.2624 13.8008 28.5593 13.6421 28.8826 13.5778C29.2059 13.5135 29.5411 13.5465 29.8456 13.6726C30.1501 13.7988 30.4104 14.0124 30.5936 14.2865C30.7767 14.5606 30.8745 14.8828 30.8745 15.2124C30.8745 15.6545 30.6989 16.0784 30.3863 16.3909C30.0737 16.7035 29.6498 16.8791 29.2078 16.8791ZM10.7981 16.8791C10.4684 16.8791 10.1462 16.7813 9.87212 16.5982C9.59804 16.4151 9.38442 16.1548 9.25827 15.8502C9.13212 15.5457 9.09912 15.2106 9.16343 14.8873C9.22774 14.564 9.38647 14.267 9.61956 14.0339C9.85264 13.8008 10.1496 13.6421 10.4729 13.5778C10.7962 13.5135 11.1313 13.5465 11.4359 13.6726C11.7404 13.7988 12.0007 14.0124 12.1839 14.2865C12.367 14.5606 12.4647 14.8828 12.4647 15.2124C12.4647 15.6545 12.2891 16.0784 11.9766 16.3909C11.664 16.7035 11.2401 16.8791 10.7981 16.8791ZM29.805 6.84576L33.1342 1.08187C33.1871 1.00293 33.2233 0.913962 33.2405 0.820467C33.2577 0.726971 33.2555 0.630943 33.2341 0.53833C33.2126 0.445716 33.1724 0.35849 33.1159 0.282055C33.0594 0.205619 32.9878 0.141601 32.9055 0.0939661C32.8232 0.046331 32.7321 0.0160933 32.6376 0.00512572C32.5432 -0.00584189 32.4475 0.0026941 32.3566 0.0302052C32.2656 0.0577164 32.1812 0.103617 32.1087 0.165063C32.0361 0.226509 31.977 0.302193 31.9349 0.387428L28.564 6.22562C25.8715 5.018 22.9539 4.39369 20.0029 4.39369C17.052 4.39369 14.1344 5.018 11.4418 6.22562L8.07099 0.387428C8.02889 0.302193 7.96975 0.226509 7.89721 0.165063C7.82468 0.103617 7.7403 0.0577164 7.64931 0.0302052C7.55832 0.0026941 7.46264 -0.00584189 7.36821 0.00512572C7.27379 0.0160933 7.18262 0.046331 7.10035 0.0939661C7.01809 0.141601 6.94648 0.205619 6.88996 0.282055C6.83344 0.35849 6.79322 0.445716 6.77178 0.53833C6.75034 0.630943 6.74815 0.726971 6.76533 0.820467C6.78252 0.913962 6.81871 1.00293 6.87168 1.08187L10.2008 6.84576C4.48418 9.95479 0.575152 15.7416 0.00292969 22.5784H40.0029C39.4307 15.7416 35.521 9.95479 29.805 6.84576Z" fill="#78C257"/>
</g>
<defs>
<clipPath id="clip0_202_8828">
<rect width="41" height="23" fill="white"/>
</clipPath>
</defs>
</svg>
