<svg width="26" height="37" viewBox="0 0 26 37" fill="none" xmlns="http://www.w3.org/2000/svg">
<g clip-path="url(#clip0_202_11691)">
<path d="M21.4853 15.3645C22.9757 15.5938 24.0076 16.2817 24.5808 17.1989C25.1541 18.1161 25.498 19.7211 25.498 21.7848C25.498 25.9122 24.2369 29.3517 21.7146 31.9887C19.1923 34.6256 15.9821 36.0014 12.084 36.0014C10.5936 36.0014 9.10312 35.7721 7.61267 35.1989C6.12223 34.6256 4.97573 33.8231 3.94388 32.9059C2.79739 31.874 1.88019 30.6129 1.30694 29.4664C0.848344 28.2052 0.504395 26.9441 0.504395 25.6829C0.504395 24.3071 0.848344 23.1606 1.42159 22.3581C1.99484 21.5555 3.02669 21.0969 4.28783 20.753C4.05853 20.1797 3.82924 19.7211 3.71459 19.2626C3.59994 18.9186 3.48529 18.5747 3.48529 18.3454C3.48529 17.6575 3.82924 16.8549 4.63178 16.0524C5.43433 15.2498 6.12223 14.9059 6.81013 14.9059C7.15408 14.9059 7.38338 14.9059 7.72732 15.0205C8.07127 15.1352 8.41522 15.2498 8.87382 15.5938C7.84197 12.1543 6.81013 9.28803 6.23688 7.33898C5.66363 5.38994 5.43433 4.12879 5.43433 3.32624C5.43433 2.2944 5.66363 1.49185 6.23688 0.918601C6.69548 0.345353 7.49802 0.00140381 8.41522 0.00140381C9.90567 0.00140381 11.8547 3.44089 14.2624 10.4345C14.721 11.581 14.9503 12.4982 15.1796 13.1861C15.4089 12.7275 15.6382 11.925 15.9821 11.0078C18.3897 4.12879 20.4534 0.689302 22.0585 0.689302C22.8611 0.689302 23.549 0.918601 24.1222 1.49185C24.5808 2.0651 24.9248 2.86765 24.9248 3.78484C24.9248 4.47274 24.6955 5.84854 24.1222 7.79758C23.4343 9.74663 22.6318 12.2689 21.4853 15.3645ZM3.82924 25.4536C4.05853 25.6829 4.40248 26.1415 4.74643 26.7148C5.77828 28.2052 6.81013 29.0078 7.72732 29.0078C8.07127 29.0078 8.30057 28.8931 8.52987 28.6638C8.75917 28.4345 8.87382 28.2052 8.87382 28.0906C8.87382 27.8613 8.75917 27.4027 8.41522 26.8294C8.07127 26.2562 7.61267 25.5683 7.03943 24.8804C6.35153 24.0778 5.77828 23.3899 5.43433 23.046C4.97573 22.702 4.63178 22.4727 4.40248 22.4727C3.82924 22.4727 3.25599 22.8167 2.79739 23.3899C2.33879 23.9632 2.10949 24.7657 2.10949 25.5683C2.10949 26.2562 2.22414 26.9441 2.56809 27.8613C2.91204 28.6638 3.37064 29.581 4.05853 30.3836C5.09038 31.5301 6.23688 32.5619 7.72732 33.2498C9.21777 33.9377 10.7082 34.2817 12.5426 34.2817C15.7528 34.2817 18.3897 33.1352 20.5681 30.7275C22.7464 28.3199 23.7783 25.339 23.7783 21.6702C23.7783 20.5237 23.6636 19.7211 23.549 19.0332C23.4343 18.3454 23.0904 17.8868 22.7464 17.6575C22.0585 17.0842 20.7974 16.6256 18.8483 16.167C16.8993 15.7084 14.8356 15.4791 12.7719 15.4791C12.1987 15.4791 11.7401 15.5938 11.5108 15.8231C11.2815 16.0524 11.1668 16.3963 11.1668 16.8549C11.1668 18.0014 11.7401 18.804 13.0012 19.2626C14.2624 19.7211 16.326 20.0651 19.0776 20.0651H20.1095C20.3388 20.0651 20.5681 20.1797 20.6827 20.2944C20.7974 20.5237 20.912 20.753 20.912 21.0969C20.6827 21.3262 20.1095 21.6702 19.1923 22.0141C18.2751 22.3581 17.7018 22.702 17.2432 23.046C16.2114 23.7339 15.4089 24.6511 14.8356 25.6829C14.2624 26.7148 13.9184 27.632 13.9184 28.5492C13.9184 29.1224 14.0331 29.6957 14.2624 30.4982C14.4917 31.3008 14.6063 31.7594 14.6063 31.874V32.1033V32.3326C13.9184 32.3326 13.3452 31.874 12.8866 31.0715C12.428 30.2689 12.3133 29.2371 12.3133 27.8613V27.632C12.1987 27.7466 12.084 27.8613 11.9694 27.8613C11.8547 27.8613 11.7401 27.9759 11.5108 27.9759H11.0522C10.9375 27.9759 10.8229 27.8613 10.5936 27.8613C10.5936 28.0906 10.7082 28.2052 10.7082 28.4345V28.8931C10.7082 29.4664 10.4789 30.0396 10.0203 30.4982C9.56172 30.9568 8.98847 31.1861 8.30057 31.1861C7.26873 31.1861 6.23688 30.7275 5.09038 29.6957C4.05853 28.6638 3.48529 27.7466 3.48529 26.7148C3.48529 26.4855 3.48529 26.3708 3.59994 26.2562C3.59994 25.6829 3.71459 25.5683 3.82924 25.4536ZM11.2815 26.0269C11.5108 26.0269 11.8547 25.9122 12.084 25.6829C12.3133 25.4536 12.428 25.1097 12.428 24.8804C12.428 24.5364 12.1987 23.8485 11.7401 22.702C11.2815 21.5555 10.7082 20.409 10.0203 19.3772C9.56172 18.5746 8.98847 17.8868 8.52987 17.5428C8.07127 17.0842 7.61267 16.9696 7.15408 16.9696C6.81013 16.9696 6.46618 17.1989 6.00758 17.6575C5.54898 18.1161 5.43433 18.46 5.43433 18.9186C5.43433 19.2626 5.66363 19.9504 6.00758 20.753C6.46618 21.5555 6.92478 22.3581 7.61267 23.2753C8.30057 24.1925 8.98847 24.995 9.67637 25.5683C10.3643 25.7976 10.8229 26.0269 11.2815 26.0269ZM13.6891 14.1033L10.9375 6.42179C10.2496 4.47274 9.79102 3.09695 9.33242 2.5237C8.98847 1.95045 8.64452 1.6065 8.18592 1.6065C7.84197 1.6065 7.61267 1.72115 7.38338 1.95045C7.03943 2.2944 6.92478 2.63835 6.92478 3.09695C6.92478 3.89949 7.26872 5.16064 7.84197 6.99503C8.41522 8.82943 9.33242 11.3517 10.4789 14.3326C10.5936 14.1033 10.7082 13.9887 10.9375 13.9887C11.1668 13.874 11.3961 13.874 11.6254 13.874H12.1987C12.5426 13.9887 13.0012 13.9887 13.6891 14.1033ZM16.4407 21.5555C15.7528 21.5555 15.0649 21.4409 14.377 21.3262C13.6891 21.2116 13.1159 21.0969 12.5426 20.8676C12.7719 21.4409 13.0012 21.8995 13.2305 22.4727C13.4598 23.046 13.5745 23.5046 13.6891 24.0778C14.0331 23.6192 14.4917 23.1606 14.9503 22.702C15.5235 22.2434 15.9821 21.8995 16.4407 21.5555ZM19.7655 14.9059C20.912 11.925 21.7146 9.40268 22.4025 7.45363C22.9757 5.50459 23.3197 4.35809 23.3197 3.89949C23.3197 3.44089 23.205 3.09695 22.9757 2.753C22.7464 2.5237 22.5171 2.40905 22.1732 2.40905C21.7146 2.40905 21.256 2.753 20.7974 3.55554C20.3388 4.35809 19.7655 5.50459 19.1923 7.22433L16.67 14.3326L19.7655 14.9059Z" fill="black"/>
</g>
<defs>
<clipPath id="clip0_202_11691">
<rect width="26" height="37" fill="white"/>
</clipPath>
</defs>
</svg>
