<svg width="36" height="37" viewBox="0 0 36 37" fill="none" xmlns="http://www.w3.org/2000/svg">
<g clip-path="url(#clip0_202_10241)">
<path d="M0.000976562 13.0308C0.000976562 8.47034 0.000976562 6.19013 0.888495 4.44827C1.66918 2.9161 2.91488 1.6704 4.44705 0.889716C6.18891 0.00219727 8.46912 0.00219727 13.0295 0.00219727H22.9724C27.5328 0.00219727 29.813 0.00219727 31.5549 0.889716C33.0871 1.6704 34.3328 2.9161 35.1135 4.44827C36.001 6.19013 36.001 8.47034 36.001 13.0308V22.9736C36.001 27.5341 36.001 29.8143 35.1135 31.5561C34.3328 33.0883 33.0871 34.334 31.5549 35.1147C29.813 36.0022 27.5328 36.0022 22.9724 36.0022H13.0295C8.46912 36.0022 6.18891 36.0022 4.44705 35.1147C2.91488 34.334 1.66918 33.0883 0.888495 31.5561C0.000976562 29.8143 0.000976562 27.5341 0.000976562 22.9736V13.0308Z" fill="#00005B"/>
<path d="M13.9067 21.733H8.30915L7.17027 25.4843C7.13865 25.6234 7.01451 25.7219 6.87947 25.7151H4.04438C3.8827 25.7151 3.82616 25.621 3.87476 25.433L8.72106 10.7229C8.76956 10.569 8.81799 10.4186 8.8665 10.2219C8.92988 9.87971 8.96234 9.53196 8.96342 9.1833C8.94953 9.08027 9.03569 8.98908 9.13305 9.00376H12.9858C13.0987 9.00376 13.1633 9.04651 13.1797 9.13201L18.6804 25.4586C18.7288 25.6297 18.6803 25.7152 18.5349 25.7151H15.3848C15.2743 25.728 15.1688 25.6499 15.1425 25.5356L13.9067 21.733ZM9.18148 18.5701H13.0101C12.3811 16.3522 11.6712 14.1634 11.0958 11.9282C10.4438 14.2468 9.84178 16.3971 9.18148 18.5701Z" fill="#9999FF"/>
<path d="M20.2202 25.4366V15.8969C20.2202 15.6064 20.2161 15.2816 20.208 14.9224C20.1997 14.5634 20.1876 14.2215 20.1716 13.8966C20.1554 13.5721 20.1393 13.3156 20.1232 13.1273C20.0786 13.0064 20.1843 12.9133 20.2928 12.9221H22.813C23.2676 12.9063 23.3443 13.6063 23.3703 13.9736C23.8388 13.5392 24.3817 13.204 24.9696 12.9863C25.5541 12.7721 26.1684 12.6637 26.7869 12.6657C27.2686 12.668 27.7469 12.7503 28.2045 12.9093C28.7327 13.0881 29.2145 13.3943 29.6119 13.8037C30.0093 14.2131 30.3114 14.7146 30.4944 15.2686C30.7367 15.927 30.8579 16.7775 30.8579 17.8202V25.4366C30.8579 25.5905 30.7933 25.6674 30.664 25.6674H27.732C27.5929 25.6885 27.4697 25.5582 27.4896 25.411V18.128C27.5041 17.6807 27.4298 17.2352 27.2716 16.8201C26.6363 15.2462 24.5709 15.5917 23.5883 16.5636V25.4366C23.5883 25.5905 23.5237 25.6674 23.3945 25.6674H20.4382C20.313 25.6863 20.2023 25.5691 20.2202 25.4366Z" fill="#9999FF"/>
</g>
<defs>
<clipPath id="clip0_202_10241">
<rect width="36.001" height="37" fill="white"/>
</clipPath>
</defs>
</svg>
