<svg width="37" height="36" viewBox="0 0 37 36" fill="none" xmlns="http://www.w3.org/2000/svg">
<g clip-path="url(#clip0_202_11758)">
<path d="M16.4704 0.653036L0.644233 16.4662C-0.206606 17.3163 -0.206606 18.6894 0.644233 19.5396L16.4704 35.3527C17.3212 36.2028 18.6955 36.2028 19.5463 35.3527L26.182 28.7225C26.944 27.9611 26.944 26.7267 26.182 25.9653C25.42 25.204 24.1845 25.204 23.4226 25.9653L18.3921 30.9916C18.1803 31.2032 17.8589 31.2032 17.6472 30.9916L5.00886 18.3637C4.79709 18.1521 4.79709 17.831 5.00886 17.6194L17.6472 4.99148C17.8589 4.77988 18.1803 4.77988 18.3921 4.99148L23.4226 10.0178C24.1845 10.7792 25.42 10.7792 26.182 10.0178C26.944 9.25643 26.944 8.02202 26.182 7.26066L19.547 0.631167C18.6927 -0.200575 17.3179 -0.193842 16.4704 0.653036Z" fill="url(#paint0_linear_202_11758)"/>
<path d="M16.4704 0.653036L0.644233 16.4662C-0.206606 17.3163 -0.206606 18.6894 0.644233 19.5396L16.4704 35.3527C17.3212 36.2028 18.6955 36.2028 19.5463 35.3527L26.182 28.7225C26.944 27.9611 26.944 26.7267 26.182 25.9653C25.42 25.204 24.1845 25.204 23.4226 25.9653L18.3921 30.9916C18.1803 31.2032 17.8589 31.2032 17.6472 30.9916L5.00886 18.3637C4.79709 18.1521 4.79709 17.831 5.00886 17.6194L17.6472 4.99148C18.1745 4.5369 19.0348 3.61614 20.2983 3.40079C21.2372 3.24075 22.2638 3.593 23.3779 4.45755C22.633 3.7133 21.3561 2.43784 19.547 0.631167C18.6927 -0.200575 17.3179 -0.193842 16.4704 0.653036Z" fill="url(#paint1_linear_202_11758)"/>
<path d="M27.7138 24.4947C28.4757 25.256 29.7112 25.256 30.4732 24.4947L35.368 19.6039C36.2188 18.7537 36.2188 17.3806 35.3681 16.5306L30.4306 11.6147C29.6668 10.8542 28.431 10.8553 27.6685 11.6171C26.9065 12.3785 26.9065 13.6129 27.6685 14.3743L31.0033 17.7063C31.2151 17.9179 31.2151 18.239 31.0033 18.4506L27.7138 21.7375C26.9518 22.4989 26.9518 23.7333 27.7138 24.4947Z" fill="url(#paint2_linear_202_11758)"/>
<path d="M18.0878 22.3515C20.4477 22.3515 22.3608 20.4399 22.3608 18.0819C22.3608 15.7239 20.4477 13.8124 18.0878 13.8124C15.7278 13.8124 13.8147 15.7239 13.8147 18.0819C13.8147 20.4399 15.7278 22.3515 18.0878 22.3515Z" fill="url(#paint3_linear_202_11758)"/>
</g>
<defs>
<linearGradient id="paint0_linear_202_11758" x1="16.6168" y1="0.0125742" x2="31.6563" y2="9.19692" gradientUnits="userSpaceOnUse">
<stop stop-color="#4285EB"/>
<stop offset="1" stop-color="#2EC7FF"/>
</linearGradient>
<linearGradient id="paint1_linear_202_11758" x1="18.6341" y1="0.012573" x2="11.206" y2="38.403" gradientUnits="userSpaceOnUse">
<stop stop-color="#29CDFF"/>
<stop offset="0.378601" stop-color="#148EFF"/>
<stop offset="1" stop-color="#0A60FF"/>
</linearGradient>
<linearGradient id="paint2_linear_202_11758" x1="33.3058" y1="9.22596" x2="23.6407" y2="24.3414" gradientUnits="userSpaceOnUse">
<stop stop-color="#FA816E"/>
<stop offset="0.414726" stop-color="#F74A5C"/>
<stop offset="1" stop-color="#F51D2C"/>
</linearGradient>
<linearGradient id="paint3_linear_202_11758" x1="19.637" y1="10.7647" x2="16.4211" y2="23.6287" gradientUnits="userSpaceOnUse">
<stop stop-color="#FA8E7D"/>
<stop offset="0.512635" stop-color="#F74A5C"/>
<stop offset="1" stop-color="#F51D2C"/>
</linearGradient>
<clipPath id="clip0_202_11758">
<rect width="37" height="36" fill="white"/>
</clipPath>
</defs>
</svg>
