<svg width="37" height="36" viewBox="0 0 37 36" fill="none" xmlns="http://www.w3.org/2000/svg">
<g clip-path="url(#clip0_202_11610)">
<mask id="mask0_202_11610" style="mask-type:alpha" maskUnits="userSpaceOnUse" x="0" y="0" width="37" height="37">
<path d="M18.0034 36.0004C27.9445 36.0004 36.0034 27.9416 36.0034 18.0004C36.0034 8.0593 27.9445 0.000427246 18.0034 0.000427246C8.06229 0.000427246 0.00341797 8.0593 0.00341797 18.0004C0.00341797 27.9416 8.06229 36.0004 18.0034 36.0004Z" fill="white"/>
</mask>
<g mask="url(#mask0_202_11610)">
<path d="M18.0026 35.312C27.564 35.312 35.315 27.561 35.315 17.9996C35.315 8.43823 27.564 0.687195 18.0026 0.687195C8.44122 0.687195 0.690186 8.43823 0.690186 17.9996C0.690186 27.561 8.44122 35.312 18.0026 35.312Z" fill="url(#paint0_linear_202_11610)"/>
<path d="M18.0034 36.0004C8.06229 36.0004 0.00341797 27.9416 0.00341797 18.0004C0.00341797 8.0593 8.06229 0.000427246 18.0034 0.000427246C27.9445 0.000427246 36.0034 8.0593 36.0034 18.0004C36.0034 27.9416 27.9445 36.0004 18.0034 36.0004ZM18.0034 34.6268C27.1859 34.6268 34.6298 27.1829 34.6298 18.0004C34.6298 8.81793 27.1859 1.37405 18.0034 1.37405C8.82092 1.37405 1.37704 8.81793 1.37704 18.0004C1.37704 27.1829 8.82092 34.6268 18.0034 34.6268Z" fill="url(#paint1_linear_202_11610)"/>
<path opacity="0.75" d="M13.7908 10.62C13.5446 10.6197 13.2952 10.6213 13.0466 10.6286C12.7576 10.6371 12.3693 10.7289 11.9216 10.8796C19.4838 16.6218 22.2025 26.9808 17.5291 35.9831C17.6878 35.9872 17.8453 36.0004 18.005 36.0004C26.546 36.0004 33.6837 30.0488 35.5282 22.0685C30.1082 15.7154 22.7576 10.6338 13.7907 10.6199L13.7908 10.62Z" fill="url(#paint2_linear_202_11610)"/>
<path opacity="0.75" d="M11.9217 10.8802C9.41058 11.7253 4.62009 14.7021 0.0145264 18.6769C0.364291 28.1458 8.03412 35.7365 17.5291 35.9837C22.2025 26.9814 19.4839 16.6225 11.9217 10.8802Z" fill="#28170B"/>
<path d="M18.1086 7.59479C16.5638 8.36758 18.1086 11.4572 18.1086 11.4572C13.4717 15.3221 14.4569 21.9238 9.04734 21.9238C6.09839 21.9238 3.10703 18.538 0.014616 16.4636C-0.0251945 16.9528 -0.0958252 17.4441 -0.0958252 17.9436C-0.0958252 24.707 3.59739 30.5892 9.10382 33.6792C10.644 33.4851 12.3155 33.1006 13.4704 32.3302C19.5377 28.2851 21.044 20.5893 23.5231 16.872C25.067 14.5528 32.3029 14.754 32.7913 13.7768C33.5649 12.2312 31.2457 9.91439 30.4721 9.91439H24.2906C23.8587 9.91439 23.1801 9.1471 22.7473 9.1471H20.4282C20.4282 9.1471 19.4006 7.58825 18.4884 7.52626C18.3576 7.51697 18.2309 7.53366 18.1086 7.59479Z" fill="white"/>
</g>
</g>
<defs>
<linearGradient id="paint0_linear_202_11610" x1="-3.66003" y1="38.1563" x2="35.7666" y2="0.00709624" gradientUnits="userSpaceOnUse">
<stop stop-color="#F69923"/>
<stop offset="0.10996" stop-color="#F79A23"/>
<stop offset="0.94502" stop-color="#E97826"/>
</linearGradient>
<linearGradient id="paint1_linear_202_11610" x1="-4.51957" y1="38.9576" x2="36.4729" y2="-0.706678" gradientUnits="userSpaceOnUse">
<stop stop-color="#F69923"/>
<stop offset="0.080478" stop-color="#F79A23"/>
<stop offset="0.41874" stop-color="#E97826"/>
</linearGradient>
<linearGradient id="paint2_linear_202_11610" x1="29.5614" y1="9.84351" x2="11.8256" y2="34.8343" gradientUnits="userSpaceOnUse">
<stop stop-color="#F6E423"/>
<stop offset="0.41191" stop-color="#F79A23"/>
<stop offset="0.73271" stop-color="#E97826"/>
</linearGradient>
<clipPath id="clip0_202_11610">
<rect width="37" height="36.0004" fill="white"/>
</clipPath>
</defs>
</svg>
