<svg width="20" height="41" viewBox="0 0 20 41" fill="none" xmlns="http://www.w3.org/2000/svg">
<g clip-path="url(#clip0_202_13928)">
<path d="M17.0532 0.193142C16.4291 0.559814 15.3837 1.61302 14.1354 3.13432V3.22794L15.2277 5.24854L15.2823 5.28755C16.0858 4.14072 16.8972 3.10312 17.7241 2.22154C17.7866 2.15133 17.8178 2.12012 17.8178 2.12012C17.7866 2.15133 17.7554 2.19034 17.7241 2.22154C17.4589 2.518 16.6475 3.45419 15.4305 5.32655L15.5709 5.35776C15.5709 5.35776 18.4185 5.07691 19.7916 4.84286L19.8696 4.77264C20.3065 2.32296 19.4405 1.19954 19.4405 1.19954C19.4405 1.19954 18.3483 -0.563607 17.0532 0.193142Z" fill="url(#paint0_linear_202_13928)"/>
<path d="M11.912 10.8656C12.2631 10.2181 12.6142 9.57834 12.9652 8.96202C13.3319 8.32229 13.7064 7.69817 14.0886 7.09745C14.112 7.06624 14.1355 7.02723 14.1511 6.98823C14.5255 6.39531 14.9 5.8336 15.2823 5.28749L14.1355 3.12646C14.0496 3.22788 13.9638 3.33711 13.878 3.44633C13.5503 3.85981 13.2071 4.2967 12.856 4.76479C12.4581 5.29529 12.0524 5.857 11.639 6.44992C11.2567 6.99603 10.8666 7.57334 10.4843 8.15846C10.1567 8.66556 9.8212 9.18046 9.49354 9.71876C9.47793 9.74217 9.47013 9.75777 9.45453 9.78118V9.86699L10.8822 12.699L10.9446 12.7224C11.2645 12.0982 11.5843 11.4741 11.912 10.8656Z" fill="url(#paint1_linear_202_13928)"/>
<path d="M5.69419 24.729C5.95164 24.0581 6.22469 23.3793 6.49775 22.6928C6.763 22.0375 7.02825 21.3743 7.30911 20.7112C7.58216 20.0481 7.87082 19.3849 8.15947 18.714C8.45593 18.0353 8.75239 17.3565 9.05665 16.6856C9.36091 16.0225 9.66517 15.3593 9.97723 14.704C10.0865 14.47 10.2035 14.2281 10.3205 13.9941C10.5155 13.5884 10.7184 13.1827 10.9134 12.7848C10.9212 12.7614 10.9368 12.7458 10.9446 12.7224L9.45453 9.78125C9.43112 9.82026 9.40772 9.85927 9.38431 9.89827C9.04105 10.4678 8.68998 11.0451 8.35451 11.638C8.01124 12.2387 7.67578 12.8473 7.34811 13.4636C7.06726 13.9863 6.80201 14.509 6.53675 15.0395C6.48214 15.1487 6.43533 15.2501 6.38072 15.3594C6.05306 16.0303 5.7644 16.67 5.49915 17.2941C5.20269 17.9963 4.93744 18.6672 4.70339 19.3069C4.54736 19.7282 4.41473 20.1261 4.28211 20.5162C4.18069 20.8438 4.07927 21.1793 3.98565 21.507C3.75941 22.2871 3.57217 23.0595 3.41614 23.8396L3.43954 23.9332L4.86722 26.773L4.91403 26.7964C5.10907 26.2659 5.31191 25.7354 5.52255 25.1893C5.57716 25.0333 5.63958 24.885 5.69419 24.729Z" fill="url(#paint2_linear_202_13928)"/>
<path d="M3.40053 23.941C3.21329 24.885 3.08066 25.829 3.01045 26.7652C3.01045 26.7964 3.00265 26.8276 3.00265 26.8666C2.53456 26.1177 1.28631 25.3921 1.28631 25.3921C2.18349 26.6872 2.86222 27.9744 2.96364 29.2383C2.48775 29.3397 1.83242 29.1915 1.06787 28.9184C1.85582 29.6439 2.44874 29.8468 2.68279 29.9014C1.95724 29.9482 1.20049 30.4475 0.435942 31.017C1.55156 30.5645 2.44874 30.3851 3.09627 30.5255C2.07427 33.4199 1.05226 36.6185 0.0224609 40.0044C0.334522 39.9108 0.521759 39.7001 0.630981 39.4115C0.810416 38.7951 2.02746 34.7696 3.92323 29.4723C3.97784 29.3241 4.03245 29.1681 4.08706 29.0198C4.10267 28.9808 4.11827 28.934 4.13387 28.895C4.33671 28.3411 4.53955 27.7716 4.75799 27.1943C4.8048 27.0616 4.85942 26.929 4.90622 26.7964V26.7886L3.41613 23.8396C3.41613 23.8786 3.40833 23.9098 3.40053 23.941Z" fill="url(#paint3_linear_202_13928)"/>
<path d="M15.4305 5.3343C15.095 5.84921 14.7284 6.43432 14.3305 7.09745C14.3071 7.12866 14.2915 7.16767 14.2681 7.19887C13.9248 7.77619 13.5659 8.40031 13.1837 9.09465C12.856 9.68756 12.5127 10.3273 12.1539 11.0216C11.8418 11.6223 11.5219 12.2543 11.1943 12.933L11.2645 12.9642L14.8922 12.5741L14.978 12.5117C16.078 12.0046 16.5695 11.5443 17.0454 10.8812C17.1703 10.7018 17.3029 10.5067 17.4277 10.3117C17.8178 9.70317 18.2001 9.04004 18.5355 8.3769C18.8632 7.73718 19.1518 7.09745 19.3781 6.52794C19.5185 6.16127 19.6355 5.8258 19.7136 5.52934C19.7838 5.26409 19.8384 5.01444 19.8774 4.7804C18.4107 5.03785 16.6085 5.27969 15.4305 5.3343Z" fill="url(#paint4_linear_202_13928)"/>
<path d="M11.0538 13.2373C10.929 13.5025 10.7964 13.7756 10.6638 14.0486C10.5233 14.3451 10.3751 14.6572 10.2347 14.9692C10.1645 15.1252 10.0864 15.2891 10.0162 15.4451C9.78999 15.9288 9.57154 16.4281 9.3375 16.943C9.05664 17.5749 8.76798 18.2381 8.47933 18.9168C8.19847 19.5721 7.91762 20.2431 7.63676 20.9452C7.36371 21.6083 7.09065 22.2949 6.8176 22.997C6.56795 23.6289 6.3183 24.2686 6.06865 24.9396C6.05305 24.9708 6.04525 25.002 6.02964 25.0332C5.77999 25.6963 5.5365 26.3709 5.27905 27.0653C5.27125 27.0809 5.25731 27.1215 5.24951 27.1371L5.3034 27.149L6.38851 27.0323L6.44977 27.007C6.42637 26.9992 6.41192 26.968 6.38851 26.9602C7.824 26.7807 9.73537 25.7041 10.9758 24.3779C11.5453 23.7694 12.0602 23.0438 12.5439 22.2012C12.9028 21.5693 13.2305 20.875 13.5503 20.1026C13.8312 19.4317 14.0964 18.6984 14.3539 17.9104C14.0262 18.082 13.6439 18.2147 13.2305 18.3005C13.1602 18.3161 13.0822 18.3317 13.0042 18.3473C12.9262 18.3629 12.8482 18.3707 12.778 18.3863C14.1198 17.8714 14.9624 16.8728 15.5787 15.6558C15.2277 15.8976 14.6503 16.2097 13.9638 16.3657C13.8702 16.3891 13.7766 16.4047 13.6752 16.4203C13.6517 16.4203 13.6283 16.4281 13.6049 16.4281C14.073 16.2331 14.4631 16.0146 14.8064 15.7572C14.8766 15.7026 14.9468 15.6479 15.017 15.5855C15.1184 15.4919 15.2199 15.3983 15.3135 15.3047C15.3759 15.2423 15.4305 15.1799 15.4929 15.1096C15.6255 14.9536 15.7504 14.782 15.8674 14.5947C15.9064 14.5401 15.9376 14.4777 15.9766 14.4231C16.0234 14.3373 16.0624 14.2515 16.1014 14.1657C16.2887 13.7912 16.4369 13.4557 16.5539 13.1593C16.6163 13.011 16.6631 12.8784 16.7099 12.7458C16.7256 12.699 16.7412 12.6444 16.7646 12.5975C16.8114 12.4571 16.8504 12.3323 16.8816 12.2153C16.9284 12.0514 16.9518 11.9188 16.9674 11.8252C16.9206 11.8642 16.8738 11.8954 16.8114 11.9344C16.4057 12.1763 15.7114 12.3947 15.1496 12.4961L16.2575 12.3713L15.1496 12.4961C15.0716 12.5117 15.017 12.5195 14.9546 12.5351C14.9598 12.5299 13.7086 12.6622 11.201 12.932C11.1854 12.9476 11.0928 13.1437 11.0538 13.2373Z" fill="url(#paint5_linear_202_13928)"/>
<path d="M5.13247 27.4283C4.93743 27.9666 4.73459 28.5205 4.53955 29.0822C4.53955 29.09 4.53175 29.0978 4.53175 29.1056C4.50054 29.1836 4.47714 29.2617 4.44593 29.3475C4.31331 29.7297 4.19628 30.0652 3.93103 30.8454C4.36792 31.0482 4.71899 31.5709 5.05445 32.1716C5.02325 31.5553 4.76579 30.9702 4.2743 30.5255C6.43532 30.6191 8.29989 30.073 9.25948 28.4971C9.3453 28.3567 9.42331 28.2084 9.49353 28.0524C9.05664 28.6063 8.51053 28.8404 7.49633 28.7858H7.48853H7.49633C9.00203 28.1148 9.75098 27.4673 10.4219 26.3985C10.5779 26.141 10.734 25.868 10.89 25.5637C9.57154 26.9134 8.05024 27.2957 6.45093 27.007L5.24949 27.1396C5.21048 27.2254 5.17148 27.3269 5.13247 27.4283Z" fill="url(#paint6_linear_202_13928)"/>
</g>
<defs>
<linearGradient id="paint0_linear_202_13928" x1="15.0939" y1="3.42547" x2="23.3683" y2="0.671421" gradientUnits="userSpaceOnUse">
<stop stop-color="#F69923"/>
<stop offset="0.3123" stop-color="#F79A23"/>
<stop offset="0.8383" stop-color="#E97826"/>
</linearGradient>
<linearGradient id="paint1_linear_202_13928" x1="-3.22962" y1="40.9988" x2="25.033" y2="18.6432" gradientUnits="userSpaceOnUse">
<stop offset="0.3233" stop-color="#9E2064"/>
<stop offset="0.6302" stop-color="#C92037"/>
<stop offset="0.7514" stop-color="#CD2335"/>
<stop offset="1" stop-color="#E97826"/>
</linearGradient>
<linearGradient id="paint2_linear_202_13928" x1="-2.60996" y1="38.7782" x2="24.9131" y2="27.2229" gradientUnits="userSpaceOnUse">
<stop offset="0.3233" stop-color="#9E2064"/>
<stop offset="0.6302" stop-color="#C92037"/>
<stop offset="0.7514" stop-color="#CD2335"/>
<stop offset="1" stop-color="#E97826"/>
</linearGradient>
<linearGradient id="paint3_linear_202_13928" x1="-0.87204" y1="36.3447" x2="11.3701" y2="33.9483" gradientUnits="userSpaceOnUse">
<stop stop-color="#282662"/>
<stop offset="0.0954839" stop-color="#662E8D"/>
<stop offset="0.7882" stop-color="#9F2064"/>
<stop offset="0.9487" stop-color="#CD2032"/>
</linearGradient>
<linearGradient id="paint4_linear_202_13928" x1="-0.0749086" y1="42.73" x2="15.3401" y2="5.51426" gradientUnits="userSpaceOnUse">
<stop offset="0.3233" stop-color="#9E2064"/>
<stop offset="0.6302" stop-color="#C92037"/>
<stop offset="0.7514" stop-color="#CD2335"/>
<stop offset="1" stop-color="#E97826"/>
</linearGradient>
<linearGradient id="paint5_linear_202_13928" x1="1.16226" y1="40.589" x2="25.6152" y2="9.89462" gradientUnits="userSpaceOnUse">
<stop offset="0.3233" stop-color="#9E2064"/>
<stop offset="0.6302" stop-color="#C92037"/>
<stop offset="0.7514" stop-color="#CD2335"/>
<stop offset="1" stop-color="#E97826"/>
</linearGradient>
<linearGradient id="paint6_linear_202_13928" x1="2.49617" y1="38.2881" x2="11.7994" y2="16.1604" gradientUnits="userSpaceOnUse">
<stop stop-color="#282662"/>
<stop offset="0.0954839" stop-color="#662E8D"/>
<stop offset="0.7882" stop-color="#9F2064"/>
<stop offset="0.9487" stop-color="#CD2032"/>
</linearGradient>
<clipPath id="clip0_202_13928">
<rect width="20" height="41" fill="white"/>
</clipPath>
</defs>
</svg>
