<svg width="37" height="30" viewBox="0 0 37 30" fill="none" xmlns="http://www.w3.org/2000/svg">
<g clip-path="url(#clip0_202_10788)">
<path d="M3.33673 28.8365C3.33673 28.8365 4.36751 29.6096 6.66054 29.4575C6.66054 29.4575 7.06244 29.4506 7.36366 29.0015C7.36366 29.0015 7.61018 28.4417 6.54733 28.6854C6.54733 28.6854 5.24205 28.8721 4.02185 28.2397C4.02185 28.2397 1.45727 26.8108 1.02584 24.6618C1.02584 24.6618 0.243119 22.5429 1.49918 20.3241C1.49918 20.3241 2.27585 19.0095 3.1518 18.402C3.1518 18.402 4.61163 17.017 6.77262 17.406C6.77262 17.406 7.83672 17.4908 9.95777 19.2089C9.95777 19.2089 10.6384 19.4006 10.4798 18.8058C10.4798 18.8058 9.91825 17.3786 7.63183 16.8632C7.63183 16.8632 7.57249 14.9668 8.50413 14.1408C8.50413 14.1408 10.0966 11.1276 13.5723 11.458C13.5723 11.458 16.7044 11.3853 18.4026 15.436C18.4026 15.436 18.9444 17.2464 18.5678 18.6737L20.788 18.2773L18.6668 14.0152C18.6668 14.0152 17.3386 11.3029 13.8497 10.6965C13.8497 10.6965 10.6979 9.97114 8.04161 13.2817C8.04161 13.2817 6.89172 15.2442 6.81241 16.6517C6.81241 16.6517 2.92709 15.6605 0.528447 20.3389C0.528447 20.3389 -1.78427 25.6185 3.33673 28.8365Z" fill="#369AC9"/>
<path d="M23.5154 27.2573C23.5154 27.2573 27.8645 23.4513 23.8205 19.5658C23.8205 19.5658 24.0427 18.4756 23.5154 18.0988C23.5154 18.0988 23.3051 17.5637 21.8581 18.2574C21.8581 18.2574 20.6489 18.654 19.5983 17.7222L18.3494 18.7333C18.3494 18.7333 16.6644 19.4865 15.8714 21.3301C15.8714 21.3301 15.3362 22.9952 15.8714 23.6296C15.8714 23.6296 16.2678 23.8279 16.5058 23.3521C16.5058 23.3521 16.3075 21.687 17.6754 20.1605C17.6754 20.1605 20.7169 17.7189 23.7515 20.9896C23.7515 20.9896 25.5691 23.6494 23.5154 26.1076C23.5154 26.1076 22.3933 27.079 22.5123 27.2573C22.5123 27.2573 22.8335 27.5547 23.5154 27.2573Z" fill="#369AC9"/>
<path d="M12.8184 10.6294C12.8184 10.6294 12.7918 9.11894 13.2546 7.83714C13.2546 7.83714 13.4944 7.18352 14.3383 5.90763C14.4713 5.70625 14.8933 5.16752 15.0255 4.67857C15.0255 4.67857 15.7392 2.43194 13.1819 2.07574C13.1819 2.07574 12.3672 1.93062 11.834 2.3591C11.497 2.63008 11.1799 2.78871 10.9353 2.8548C10.9353 2.8548 9.72594 3.27105 9.76559 2.4979C9.76559 2.4979 9.54762 1.34815 12.2832 1.03104C12.2832 1.03104 15.6304 0.456163 16.0183 3.11243C16.0183 3.11243 16.5651 4.73805 14.5827 7.17635C14.5827 7.17635 13.4924 8.86469 13.7502 10.6966C14.008 12.5287 13.7502 10.7841 13.7502 10.7841L13.4131 11.0022L12.7591 10.6966" fill="#369AC9"/>
<path d="M18.4488 14.1044C18.4488 14.1044 20.2271 13.6685 20.5179 12.1884L17.9805 12.0167C17.9805 12.0167 17.2934 11.7755 16.9233 10.6075C16.9233 10.6075 15.3903 9.78316 15.4961 8.59376C15.4961 8.59376 15.7339 7.11368 17.0027 6.90218C17.0027 6.90218 18.326 6.57509 18.5952 8.68952C18.5952 8.68952 19.2177 10.4804 18.0044 10.6075C18.0044 10.6075 17.7427 11.1839 18.6942 11.2105C18.6942 11.2105 19.8542 11.5541 20.675 10.8668C20.675 10.8668 21.2315 10.3547 21.8924 10.4521C21.8924 10.4521 22.0344 10.1994 21.7568 10.0409C21.7568 10.0409 20.1115 8.63341 19.8241 6.64118C19.8241 6.64118 18.4662 6.45274 18.2977 5.49143C18.2977 5.49143 17.9805 4.0046 19.2096 3.70732C19.2096 3.70732 19.9927 3.52887 20.3891 3.70732C20.3891 3.70732 21.3902 0.98159 24.2448 0.5157C24.2448 0.51584 26.6038 -0.0392061 27.4462 1.74476C27.4462 1.74476 27.7932 2.7162 27.6049 3.52887C27.6049 3.52887 27.4066 4.42099 27.6147 4.64895C27.6147 4.64895 28.3779 4.47049 28.6951 4.96606C29.0122 5.46162 29.151 6.52221 28.5167 6.76999C28.5167 6.76999 28.705 7.61248 28.0706 8.18735C28.0706 8.18735 26.0586 9.35693 25.4837 10.3482C25.4837 10.3482 25.3065 10.5745 25.2161 10.6538C24.9985 10.8447 24.709 11.0083 24.4431 11.0783C24.4431 11.0783 24.204 11.1818 23.9375 11.0519C23.9375 11.0519 23.8582 11.4483 24.3043 11.5178C24.3043 11.5178 25.1517 11.4004 26.0735 11.1178L32.7391 8.7341C32.7391 8.7341 32.4293 7.9016 32.6771 7.4952C32.6771 7.4952 32.8142 7.2792 32.9389 7.23181C33.1701 7.14392 33.446 6.70404 33.4577 6.36035C33.4577 6.36035 33.3933 5.49143 34.0176 5.45178C34.0176 5.45178 34.6156 5.41549 34.5661 6.14885L34.5232 6.63134C34.5232 6.63134 35.4375 6.28442 35.7435 6.90879C35.7435 6.90879 36.3616 8.1619 35.7063 9.17285C35.7063 9.17285 34.742 10.1233 33.4724 9.5254L33.0365 9.25779C33.0365 9.25779 25.2854 12.4659 25.1962 12.6774C25.1962 12.6774 24.5875 12.9845 24.1356 13.8073C24.1356 13.8073 22.5795 16.5827 21.7767 17.316C21.7767 17.316 21.2514 17.9504 20.8748 18.109L21.0235 18.5054H19.3285L19.1304 17.2293L18.8825 14.7291L18.4488 14.1044Z" fill="#369AC9"/>
<path d="M25.5849 2.77542C25.5849 2.77542 26.6356 2.12123 27.0321 2.83491C27.0321 2.83491 26.9131 3.8062 26.9726 4.59919C26.9726 4.59919 27.0915 5.53083 27.8449 6.06605C27.8449 6.06605 28.5585 6.85903 27.8449 7.5727C27.8449 7.5727 25.704 9.07922 25.3074 9.99117C25.3074 9.99117 24.356 11.3391 22.8096 10.3083C22.8096 10.3083 20.7877 9.07922 21.1445 7.29511C21.1445 7.29511 21.3824 6.93834 21.8978 6.81937C21.8977 6.81937 20.6291 4.75781 21.7789 3.29081C21.7789 3.29081 23.6423 0.912001 25.5849 2.77542Z" fill="#B9DEEB"/>
<path d="M20.0149 4.5595C20.0149 4.5595 19.5887 5.18387 19.5689 6.11565C19.5689 6.11565 18.9148 6.01651 18.8553 5.392C18.8553 5.392 18.6867 4.49003 19.4895 4.34139C19.4895 4.34139 19.896 4.24225 20.0149 4.5595Z" fill="#B9DEEB"/>
<path d="M27.429 5.26329C27.429 5.26329 27.8651 4.96601 28.1625 5.26329C28.1625 5.26329 28.6064 5.69641 28.3508 6.06612C28.3508 6.06612 28.1625 6.17524 28.0435 6.06612C28.0435 6.06612 27.7933 5.7566 27.5283 5.58054C27.5283 5.58054 27.3398 5.45159 27.429 5.26329Z" fill="#B9DEEB"/>
<path d="M18.1915 8.76198C18.1915 8.76198 17.9933 7.75103 17.3325 7.47343C17.3325 7.47343 16.8567 7.34814 16.4999 7.75778C16.4999 7.75778 15.8457 8.42518 16.0638 9.23785C16.0638 9.23785 16.4405 10.13 17.4381 10.315C17.4381 10.315 17.9999 10.4867 18.3236 9.63428C18.3236 9.63428 18.4051 9.36892 18.1915 8.76198Z" fill="#B9DEEB"/>
<path d="M19.0837 15.0393C19.0837 15.0393 20.3738 14.515 21.9646 12.5814C21.9646 12.5814 22.4007 11.9733 23.0087 12.1319C23.0087 12.1319 23.8942 12.3433 23.3258 13.7574C23.3258 13.7574 22.2157 17.2597 19.5727 17.6164C19.5727 17.6164 19.5727 15.7795 19.0837 15.0393Z" fill="#B9DEEB"/>
<path d="M9.2242 18.6208C9.2242 18.6208 4.57246 17.7485 2.93376 21.634C2.93376 21.634 1.53286 26.2594 7.24195 27.7395C7.24195 27.7395 11.3388 28.4003 16.4401 27.5809C16.4401 27.5809 22.3711 26.8145 23.5156 25.9422C23.5156 25.9422 22.9949 27.9246 17.4709 28.7969C17.4709 28.7969 9.40926 29.9598 6.6869 29.4312C6.6869 29.4312 7.08332 29.484 7.42687 28.9026C7.42687 28.9026 7.5592 28.4796 6.36965 28.7176C6.36965 28.7176 3.67387 29.0082 1.82353 26.3387C1.82353 26.3387 -1.21594 22.2329 3.01293 18.537C3.01293 18.537 5.55037 15.7397 9.2242 18.6208Z" fill="#B9DEEB"/>
<path d="M24.0539 5.32785C24.0539 5.32785 23.9993 4.78265 23.251 4.73807C23.251 4.73807 22.5423 4.59927 22.3689 5.27821C22.3689 5.27821 22.4333 5.54582 22.7306 5.36244C22.7306 5.36244 22.7297 4.96377 23.2658 4.94113C23.2658 4.94113 23.7763 5.03493 23.8308 5.42657C23.8308 5.42657 24.039 5.50616 24.0539 5.32785Z" fill="#369AC9"/>
<path d="M25.1912 5.40944C25.1912 5.40944 25.2309 4.85439 25.6917 4.75019C25.6917 4.75019 26.3608 4.53475 26.6532 5.13438C26.6532 5.13438 26.7572 5.37738 26.663 5.44417C26.663 5.44417 26.4538 5.52095 26.3905 5.15674C26.3905 5.15674 26.222 4.82711 25.8875 4.89644C25.8875 4.89644 25.5902 4.92878 25.5158 5.24083C25.5158 5.24083 25.501 5.57045 25.1912 5.40944Z" fill="#369AC9"/>
<path d="M22.6773 7.262C22.8291 7.16848 23.0477 7.24864 23.1864 7.3333C23.337 7.42526 23.5011 7.51175 23.6607 7.5874C23.9736 7.73548 24.2986 7.83125 24.653 7.83026C24.8368 7.82984 25.0325 7.84897 25.2131 7.82351C25.3636 7.80242 25.5182 7.78569 25.6686 7.7705C25.8514 7.75208 26.0414 7.71383 26.2076 7.62692C26.2907 7.58347 26.3739 7.54887 26.4542 7.4998C26.5291 7.45395 26.5981 7.3932 26.6704 7.34792C26.7036 7.32711 26.7934 7.26059 26.8335 7.26776C26.8869 7.27761 26.9379 7.42203 26.9238 7.47251C26.8224 7.50247 26.7252 7.58319 26.6282 7.63015C26.4936 7.69526 26.368 7.78372 26.2451 7.86837C26.0712 7.98861 25.8676 8.15778 25.7567 8.33905C25.4973 8.76415 25.2027 9.19714 24.7722 9.46236C24.5461 9.60158 24.2926 9.64095 24.0303 9.64095C23.7812 9.64081 23.466 9.59539 23.2515 9.46137C23.0431 9.33129 22.8818 9.1669 22.8157 8.92728C22.7503 8.68976 22.8161 8.45183 22.8161 8.21065C22.8161 8.02264 22.8662 7.74392 22.7766 7.57911C22.7461 7.5223 22.7344 7.53917 22.6837 7.4953C22.6447 7.4614 22.6249 7.39756 22.6436 7.32486C22.6465 7.31234 22.6645 7.26101 22.6773 7.262Z" fill="#369AC9"/>
<path d="M24.6135 6.4898C24.6135 6.60075 24.5192 6.69061 24.4029 6.69061C24.2865 6.69061 24.1921 6.60075 24.1921 6.4898C24.1921 6.37898 24.2865 6.28912 24.4029 6.28912C24.5192 6.28912 24.6135 6.37898 24.6135 6.4898Z" fill="#369AC9"/>
<path d="M25.4766 6.45513C25.4766 6.56594 25.3822 6.6558 25.2659 6.6558C25.1496 6.6558 25.0554 6.56594 25.0554 6.45513C25.0554 6.34417 25.1496 6.25446 25.2659 6.25446C25.3822 6.25446 25.4766 6.34417 25.4766 6.45513Z" fill="#369AC9"/>
<path d="M32.9337 8.26965C32.9337 8.26965 32.6248 7.73261 33.039 7.30792C33.039 7.30792 33.5814 7.12201 33.5962 6.70155C33.5962 6.70155 33.4467 6.03991 33.7558 5.80872C33.7558 5.80872 34.2684 5.45702 34.3345 6.06691C34.3345 6.06691 34.4461 6.63222 34.2621 6.9887C34.2621 6.9887 35.0181 6.79464 35.3599 6.9887C35.7019 7.1829 35.8203 8.21987 35.5114 8.75706C35.5114 8.75706 35.1431 9.40028 34.1107 9.35654C34.1107 9.35654 33.1902 9.39409 33.1704 8.72556C33.1704 8.72556 33.0817 8.44037 32.9337 8.26965Z" fill="#B9DEEB"/>
</g>
<defs>
<clipPath id="clip0_202_10788">
<rect width="37" height="30" fill="white"/>
</clipPath>
</defs>
</svg>
