<svg width="37" height="37" viewBox="0 0 37 37" fill="none" xmlns="http://www.w3.org/2000/svg">
<g clip-path="url(#clip0_202_14982)">
<path d="M22.533 25.1065H26.4185L20.2159 9.00907H15.9199L9.71736 25.1065H13.6031L14.6168 22.3797H20.4773L19.4164 19.3625H15.5577L18.0678 12.4361L22.533 25.1065ZM35.3457 13.1884C35.2076 12.6911 34.694 12.399 34.1946 12.5377C33.6973 12.6758 33.4057 13.191 33.5438 13.6884C33.9338 15.0926 34.1314 16.544 34.1314 18.0023C34.1314 26.8966 26.8953 34.1323 18.001 34.1323C9.10676 34.1323 1.87087 26.8966 1.87087 18.0023C1.87087 9.10784 9.10676 1.87195 18.001 1.87195C21.7688 1.87195 25.4145 3.21043 28.2919 5.59234C28.1799 5.85953 28.1178 6.15274 28.1178 6.46043C28.1178 7.70285 29.125 8.71001 30.3674 8.71001C31.6098 8.71001 32.617 7.70285 32.617 6.46043C32.617 5.218 31.6098 4.21084 30.3674 4.21084C30.1282 4.21084 29.898 4.24895 29.6817 4.31814C26.4417 1.55695 22.292 0.00219727 18.001 0.00219727C8.07584 0.00219727 0.000976562 8.07692 0.000976562 18.0023C0.000976562 27.9275 8.07584 36.0022 18.001 36.0022C27.9263 36.0022 36.0011 27.9275 36.0011 18.0023C36.0011 16.3749 35.7808 14.7552 35.3457 13.1884Z" fill="#112B49"/>
</g>
<defs>
<clipPath id="clip0_202_14982">
<rect width="37" height="37" fill="white"/>
</clipPath>
</defs>
</svg>
