<svg width="36" height="37" viewBox="0 0 36 37" fill="none" xmlns="http://www.w3.org/2000/svg">
<g clip-path="url(#clip0_202_15791)">
<path d="M17.2786 35.5439C12.652 36.3035 10.8566 36.0273 8.99209 35.4058C7.15593 34.7833 5.5617 33.5997 4.43451 32.0222L4.22735 31.815C3.19154 30.3649 2.43194 28.7076 1.7414 24.4262L0.63653 17.2446C-0.123066 12.5489 0.0840967 10.7535 0.774639 8.88899C1.4188 7.06387 2.5683 5.45935 4.08924 4.26236L4.36546 4.0552C5.8156 3.01939 7.4729 2.25979 11.6852 1.56925L18.7287 0.46438C23.3554 -0.295217 25.1508 -0.0189999 27.0152 0.602488C28.8514 1.22505 30.4456 2.40864 31.5728 3.98614L31.78 4.26236C32.8158 5.7125 33.5754 7.3698 34.2659 11.6512L35.3708 18.7637C36.1304 23.4594 35.9232 25.2548 35.2327 27.1193C34.611 28.9561 33.4573 30.5665 31.9181 31.7459L31.6419 31.9531C30.1917 32.9889 28.5344 33.7485 24.3221 34.4391L17.2786 35.5439Z" fill="black"/>
<path d="M25.1575 13.2324C22.2934 13.2324 19.9716 15.5543 19.9716 18.4184C19.9716 21.2825 22.2934 23.6044 25.1575 23.6044C28.0217 23.6044 30.3435 21.2825 30.3435 18.4184C30.3435 15.5543 28.0217 13.2324 25.1575 13.2324ZM25.1575 14.9035C27.0987 14.9035 28.6724 16.4772 28.6724 18.4184C28.6724 20.3596 27.0987 21.9333 25.1575 21.9333C23.2163 21.9333 21.6427 20.3596 21.6427 18.4184C21.6427 16.4772 23.2163 14.9035 25.1575 14.9035Z" fill="url(#paint0_linear_202_15791)"/>
<path d="M15.449 6.69581L7.65724 7.95501C7.1998 8.02894 6.88891 8.45969 6.96283 8.91713L8.22204 16.7089C8.29596 17.1664 8.72672 17.4773 9.18415 17.4033L16.976 16.1441C17.4334 16.0702 17.7443 15.6395 17.6704 15.182L16.4112 7.39022C16.3372 6.93278 15.9065 6.62188 15.449 6.69581ZM14.8884 8.48613L15.8799 14.6214L9.74464 15.6129L8.75314 9.47763L14.8884 8.48613Z" fill="url(#paint1_linear_202_15791)"/>
<path d="M14.0048 20.212L10.6902 29.6034C10.4792 30.2012 10.9847 30.807 11.6106 30.7064L21.071 29.1873C21.6988 29.0864 21.9884 28.3493 21.5971 27.8481L15.4513 19.9759C15.0451 19.4556 14.2245 19.5896 14.0048 20.212ZM15.0731 22.2068L19.4097 27.7615L12.7342 28.8332L15.0731 22.2068Z" fill="url(#paint2_linear_202_15791)"/>
</g>
<defs>
<linearGradient id="paint0_linear_202_15791" x1="27.9983" y1="12.6842" x2="21.5029" y2="25.7737" gradientUnits="userSpaceOnUse">
<stop stop-color="#CC9300"/>
<stop offset="0.48" stop-color="#EA433A"/>
<stop offset="1" stop-color="#B327BF"/>
</linearGradient>
<linearGradient id="paint1_linear_202_15791" x1="15.5472" y1="1.82146" x2="9.38837" y2="13.9011" gradientUnits="userSpaceOnUse">
<stop stop-color="#CC9300"/>
<stop offset="0.26" stop-color="#EA433A"/>
<stop offset="0.48" stop-color="#B327BF"/>
<stop offset="0.76" stop-color="#6666FF"/>
<stop offset="1" stop-color="#00BF9A"/>
</linearGradient>
<linearGradient id="paint2_linear_202_15791" x1="11.4405" y1="31.1783" x2="21.3647" y2="20.8834" gradientUnits="userSpaceOnUse">
<stop stop-color="#B327BF"/>
<stop offset="0.48" stop-color="#6666FF"/>
<stop offset="1" stop-color="#00C09A"/>
</linearGradient>
<clipPath id="clip0_202_15791">
<rect width="36" height="37" fill="white"/>
</clipPath>
</defs>
</svg>
