<svg width="37" height="36" viewBox="0 0 37 36" fill="none" xmlns="http://www.w3.org/2000/svg">
<path d="M28.7276 3.05176e-05H7.27427C3.25627 3.05176e-05 0.00317383 3.25353 0.00317383 7.27203V28.7325C0.00317383 32.7465 3.25627 36 7.27427 36H28.7321C32.7456 36 36.0032 32.7465 36.0032 28.728V7.27203C35.9987 3.25353 32.7456 3.05176e-05 28.7276 3.05176e-05Z" fill="url(#paint0_linear_202_9038)"/>
<path d="M17.8484 8.27103L18.5773 7.01103C19.0273 6.22353 20.0306 5.95803 20.818 6.40803C21.6054 6.85803 21.8709 7.86153 21.421 8.64903L14.3973 20.808H19.4772C21.124 20.808 22.0464 22.743 21.331 24.084H6.43784C5.52896 24.084 4.80005 23.355 4.80005 22.446C4.80005 21.537 5.52896 20.808 6.43784 20.808H10.6133L15.9587 11.5425L14.2894 8.64453C13.8394 7.85703 14.1049 6.86253 14.8923 6.40353C15.6797 5.95353 16.6741 6.21903 17.133 7.00653L17.8484 8.27103ZM11.5312 25.7715L9.9564 28.503C9.50646 29.2906 8.50308 29.556 7.71568 29.106C6.92828 28.656 6.66282 27.6525 7.11276 26.865L8.28261 24.84C9.60545 24.4305 10.6808 24.7455 11.5312 25.7715ZM25.0925 20.817H29.3535C30.2624 20.817 30.9913 21.546 30.9913 22.455C30.9913 23.364 30.2624 24.093 29.3535 24.093H26.9868L28.5841 26.865C29.034 27.6525 28.7685 28.647 27.9811 29.106C27.1937 29.556 26.1994 29.2906 25.7404 28.503C23.0498 23.8365 21.0295 20.3445 19.6887 18.018C18.3164 15.651 19.2972 13.275 20.2646 12.4695C21.34 14.3145 22.9463 17.1 25.0925 20.817Z" fill="white"/>
<defs>
<linearGradient id="paint0_linear_202_9038" x1="18.0009" y1="3.05176e-05" x2="18.0009" y2="36" gradientUnits="userSpaceOnUse">
<stop stop-color="#0ED4FC"/>
<stop offset="1" stop-color="#0C57EF"/>
</linearGradient>
</defs>
</svg>
