<svg width="37" height="34" viewBox="0 0 37 34" fill="none" xmlns="http://www.w3.org/2000/svg">
<path d="M3.13135 29.7657C3.23637 29.5256 3.35639 29.3006 3.49142 29.0605L4.67663 26.8101C7.58716 25.985 8.87739 27.9803 9.01242 28.1904L7.2871 31.461C7.15208 31.701 7.03206 31.9261 6.89703 32.1511C6.77701 32.3611 6.64199 32.5562 6.49196 32.7212C6.1469 33.0813 5.71182 33.3213 5.24673 33.3813C4.78165 33.4563 4.30156 33.3513 3.89649 33.0813C3.49142 32.8262 3.16136 32.4362 2.98132 31.9561C2.80129 31.476 2.77128 30.9509 2.89131 30.4558C2.93631 30.2157 3.02633 29.9907 3.13135 29.7657ZM20.5947 17.448C19.8295 16.0827 19.5295 14.4924 19.7845 12.9472C19.9496 11.882 20.3996 10.6968 21.3898 9.64657L27.976 21.3787H32.9569C33.212 21.3787 33.467 21.3787 33.7221 21.3937C33.9471 21.4087 34.1721 21.4237 34.3972 21.4987C34.8623 21.6337 35.2673 21.9188 35.5524 22.3089C35.8524 22.6989 36.0175 23.179 36.0025 23.6741C36.0175 24.1692 35.8524 24.6493 35.5524 25.0544C35.2673 25.4444 34.8623 25.7295 34.3972 25.8645C34.1721 25.9245 33.9471 25.9545 33.7221 25.9695C33.467 25.9845 33.212 25.9845 32.9569 25.9845H30.5715L32.3868 29.2401C32.5218 29.4502 32.6419 29.6752 32.7619 29.9152C32.8669 30.1253 32.9419 30.3353 33.0019 30.5604C33.122 31.0404 33.0919 31.5505 32.9119 32.0156C32.7169 32.4657 32.3868 32.8558 31.9817 33.0958C31.5617 33.3509 31.0666 33.4409 30.5865 33.3809C30.1064 33.3209 29.6713 33.0958 29.3263 32.7508C29.1612 32.5857 29.0262 32.4057 28.9062 32.1957C28.7562 31.9856 28.6361 31.7606 28.5161 31.5355L20.5947 17.448ZM12.8607 3.47724C12.7407 2.98215 12.7707 2.47206 12.9508 2.00697C13.1458 1.54189 13.4759 1.15182 13.8809 0.896772C14.301 0.656729 14.7811 0.55171 15.2612 0.611721C15.7563 0.686734 16.1914 0.911775 16.5364 1.25684C16.7014 1.42187 16.8365 1.6169 16.9565 1.81194C17.0915 2.03698 17.2265 2.26202 17.3466 2.48706L17.9317 3.53725L18.5018 2.48706C18.6368 2.26202 18.7568 2.03698 18.8918 1.81194C19.0269 1.6169 19.1619 1.42187 19.3269 1.25684C19.672 0.911775 20.1071 0.686734 20.5872 0.611721C21.0672 0.55171 21.5623 0.656729 21.9674 0.896772C22.3875 1.15182 22.7175 1.54189 22.8976 2.00697C23.0926 2.47206 23.1226 2.98215 23.0026 3.47724C22.9426 3.70228 22.8526 3.92732 22.7475 4.13736C22.6425 4.3624 22.5075 4.58744 22.3875 4.82749L13.2208 21.3755H19.792C21.9224 21.3755 23.4677 23.5209 22.8526 25.6513C22.7925 25.8613 22.7175 25.9963 22.7025 26.0563H3.04897C2.79392 26.0563 2.53888 26.0563 2.29883 26.0413C2.05879 26.0263 1.84875 25.9963 1.62371 25.9213C1.15863 25.7863 0.753554 25.5162 0.4535 25.1112C0.168448 24.7061 0.00341797 24.211 0.00341797 23.7159C0.00341797 23.2058 0.168448 22.7257 0.4535 22.3207C0.753554 21.9156 1.15863 21.6305 1.62371 21.4955C1.84875 21.4355 2.05879 21.4055 2.29883 21.3905C2.53888 21.3755 2.79392 21.3755 3.04897 21.3755H8.04488L15.3362 8.2031L13.4759 4.82749C13.3408 4.58744 13.2208 4.3624 13.1008 4.13736C12.9958 3.92732 12.9208 3.70228 12.8607 3.47724Z" fill="url(#paint0_linear_202_9062)"/>
<defs>
<linearGradient id="paint0_linear_202_9062" x1="18.0012" y1="0.595169" x2="18.0012" y2="33.4049" gradientUnits="userSpaceOnUse">
<stop stop-color="#0ED4FC"/>
<stop offset="1" stop-color="#0C57EF"/>
</linearGradient>
</defs>
</svg>
