<svg width="37" height="37" viewBox="0 0 37 37" fill="none" xmlns="http://www.w3.org/2000/svg">
<g clip-path="url(#clip0_202_15117)">
<path d="M18.0038 0.00140381C27.9448 0.00140381 36.0049 8.05971 36.0042 18.0014C36.0042 27.9417 27.9441 36.0014 18.0038 36.0014C8.06347 36.0014 0.00415039 27.9417 0.00415039 18.0014C0.00415039 8.05971 8.06347 0.00140381 18.0038 0.00140381ZM18.0038 1.00367C8.61523 1.00367 1.00736 8.6139 1.00736 18.0014C1.00736 27.386 8.61523 34.9984 18.0038 34.9984C27.3888 34.9984 35.0009 27.386 35.0009 18.0014C35.0009 8.6139 27.3888 1.00367 18.0038 1.00367ZM16.0662 11.0228C17.4628 11.0228 18.5971 12.157 18.5971 13.5571C18.5971 13.6733 18.5849 13.7909 18.5706 13.9077L24.2588 15.4728C24.5691 15.0104 25.0965 14.7064 25.6919 14.7064C26.65 14.7064 27.4217 15.4778 27.4225 16.432C27.4225 17.3848 26.6493 18.1584 25.6919 18.1584C25.1101 18.1584 24.5927 17.8659 24.2817 17.4214L17.2944 21.0821C17.4907 21.5273 17.6011 22.0155 17.6011 22.531C17.6011 24.524 15.9838 26.1386 13.9938 26.1386C12.001 26.1386 10.388 24.524 10.388 22.531C10.388 20.5408 12.001 18.9262 13.9938 18.9262C14.2597 18.9262 14.5148 18.9549 14.7627 19.0087L15.2507 15.9503C14.2518 15.6104 13.5338 14.6655 13.5338 13.5571C13.5338 12.157 14.6674 11.0228 16.0662 11.0228ZM18.4115 14.4999C18.0403 15.4291 17.131 16.0858 16.0662 16.0858C15.9909 16.0858 15.9221 16.0829 15.8512 16.0772L15.3532 19.1929C16.0296 19.4682 16.6015 19.9421 17.0006 20.5436L24.0245 16.8636C23.9893 16.7238 23.9678 16.5797 23.9678 16.4306C23.9678 16.2951 23.9865 16.1653 24.0123 16.0406L18.4115 14.4999Z" fill="#232E44"/>
</g>
<defs>
<clipPath id="clip0_202_15117">
<rect width="37" height="37" fill="white"/>
</clipPath>
</defs>
</svg>
