<svg width="36" height="36" viewBox="0 0 36 36" fill="none" xmlns="http://www.w3.org/2000/svg">
<g clip-path="url(#clip0_202_14107)">
<path d="M13.0615 25.5977C15.8089 27.8314 16.2714 30.2047 14.449 32.7174C12.2026 35.7429 8.04475 36.8419 4.52525 35.1398L4.49577 35.1256C4.48726 35.1214 4.47876 35.1173 4.47026 35.1132C0.513878 33.1825 -1.12203 28.4228 0.816359 24.4821L5.20366 15.5629L7.66898 10.551L10.6319 4.52758C12.0717 1.60053 15.0747 -0.0561473 18.1488 0.0692637C21.1184 0.0580515 23.9765 1.70103 25.3701 4.53416L35.1856 24.4887C37.124 28.4294 35.4881 33.1891 31.5317 35.1198C31.5232 35.1239 31.5147 35.128 31.5062 35.1321L31.4767 35.1464C27.5446 37.048 22.8158 35.4534 20.8459 31.582C19.8249 29.4432 20.5058 27.4245 22.8887 25.5257H22.8879C24.68 24.0838 25.8262 21.8771 25.8262 19.4038C25.8262 15.0598 22.2906 11.5382 17.9293 11.5382C13.5679 11.5382 10.0323 15.0598 10.0323 19.4038C10.0323 21.9187 11.2173 24.1579 13.0615 25.5977ZM17.9364 23.526C15.6448 23.526 13.7872 21.6757 13.7872 19.3932C13.7872 17.1108 15.6448 15.2605 17.9364 15.2605C20.2279 15.2605 22.0856 17.1108 22.0856 19.3932C22.0856 21.6757 20.2279 23.526 17.9364 23.526Z" fill="#FF8F34"/>
</g>
<defs>
<clipPath id="clip0_202_14107">
<rect width="36.001" height="36" fill="white"/>
</clipPath>
</defs>
</svg>
