<svg width="37" height="37" viewBox="0 0 37 37" fill="none" xmlns="http://www.w3.org/2000/svg">
<g clip-path="url(#clip0_202_10907)">
<path d="M30.4325 28.2982L36.0013 13.5607L19.1825 9.73572L16.9888 16.0357L30.4325 28.2982Z" fill="#247CE6"/>
<path d="M36.0012 28.8608L27.5074 36.0045L10.5762 31.617L15.1324 23.4045L36.0012 28.8608Z" fill="url(#paint0_linear_202_10907)"/>
<path d="M4.95127 17.892L0.67627 5.57327L19.745 0.0045166L18.2263 15.9795L4.95127 17.892Z" fill="url(#paint1_linear_202_10907)"/>
<path d="M31.3887 20.817L26.045 11.7045L26.1575 11.6483L19.745 0.0045166L0.0012207 21.3233V36.0045L35.8887 28.8608L31.3887 20.817Z" fill="url(#paint2_linear_202_10907)"/>
<path d="M29.2512 6.75452H6.75122V29.2545H29.2512V6.75452Z" fill="black"/>
<path d="M8.83252 25.0358H17.27V26.442H8.83252V25.0358ZM12.545 9.67951H14.4013L18.3388 18.9608H16.2013L15.3575 16.8795H11.4763L10.6325 18.9608H8.55127L12.545 9.67951ZM14.6825 15.1358L13.445 12.1545L12.2075 15.1358H14.6825ZM17.8325 14.4045C17.8014 13.0973 18.307 11.8344 19.2316 10.9098C20.1562 9.98521 21.4191 9.47962 22.7263 9.51076C24.47 9.51076 25.5388 10.0733 26.4388 10.9733L25.145 12.492C24.4138 11.817 23.6825 11.4233 22.7263 11.4233C21.1513 11.4233 20.0263 12.717 20.0263 14.3483C20.0263 15.9795 21.1513 17.2733 22.7263 17.2733C23.795 17.2733 24.47 16.8233 25.2013 16.1483L26.495 17.4983C25.5388 18.5108 24.47 19.1858 22.67 19.1858C21.3872 19.218 20.1466 18.7265 19.2339 17.8244C18.3213 16.9224 17.8153 15.6876 17.8325 14.4045Z" fill="white"/>
</g>
<defs>
<linearGradient id="paint0_linear_202_10907" x1="10.6043" y1="29.7045" x2="36.0012" y2="29.7045" gradientUnits="userSpaceOnUse">
<stop offset="0.19" stop-color="#00DAF0"/>
<stop offset="0.9" stop-color="#247CE6"/>
</linearGradient>
<linearGradient id="paint1_linear_202_10907" x1="45.1065" y1="-12175.3" x2="1339.87" y2="-12175.3" gradientUnits="userSpaceOnUse">
<stop offset="0.19" stop-color="#00DAF0"/>
<stop offset="0.9" stop-color="#247CE6"/>
</linearGradient>
<linearGradient id="paint2_linear_202_10907" x1="23.5897" y1="37.1464" x2="5.6791" y2="12.3089" gradientUnits="userSpaceOnUse">
<stop offset="0.09" stop-color="#1DDF93"/>
<stop offset="0.48" stop-color="#00DAF0"/>
<stop offset="0.9" stop-color="#247CE6"/>
</linearGradient>
<clipPath id="clip0_202_10907">
<rect width="37" height="37" fill="white"/>
</clipPath>
</defs>
</svg>
