<svg width="37" height="37" viewBox="0 0 37 37" fill="none" xmlns="http://www.w3.org/2000/svg">
<g clip-path="url(#clip0_202_8882)">
<path d="M0.0434376 16.7925C3.53292 24.8087 12.3873 26.1529 22.9548 19.3583C27.8289 23.8695 29.0432 29.2176 24.9762 34.601C22.8312 35.5033 20.475 36.0022 18.002 36.0022C8.06091 36.0022 0.00195312 27.9434 0.00195312 18.0021C0.00195312 17.5956 0.0168594 17.1924 0.0434376 16.7925ZM16.5048 13.3128C18.0805 6.74626 22.4806 2.97974 29.3971 4.06847C33.4288 7.36951 36.0021 12.3851 36.0021 18.0022C36.0021 25.089 31.9061 31.218 25.953 34.154C31.3609 26.45 26.9416 18.3218 16.5048 13.3128ZM18.0021 0.00219727C21.8602 0.00219727 25.4343 1.2165 28.3644 3.28299C18.5275 2.13942 13.8822 10.3389 14.531 21.6619C8.13933 23.6223 2.93225 22.1778 0.180491 15.4678C1.41251 6.72676 8.92135 0.00219727 18.0021 0.00219727Z" fill="#662D91"/>
</g>
<defs>
<clipPath id="clip0_202_8882">
<rect width="37" height="37" fill="white"/>
</clipPath>
</defs>
</svg>
