<svg width="41" height="17" viewBox="0 0 41 17" fill="none" xmlns="http://www.w3.org/2000/svg">
<g clip-path="url(#clip0_202_9282)">
<path d="M7.31382 2.11281C6.84511 2.66902 6.09517 3.10648 5.34523 3.04399C5.25149 2.29405 5.62021 1.49412 6.05143 1.00666C6.52014 0.437953 7.33882 0.0317357 8.00751 0.000488281C8.08251 0.775425 7.77628 1.54411 7.31382 2.11281ZM7.99502 3.18773C6.90761 3.12523 5.97643 3.80643 5.46397 3.80643C4.93902 3.80643 4.15158 3.21897 3.28915 3.23772C2.17049 3.25647 1.13308 3.88767 0.564376 4.89384C-0.610527 6.91242 0.258152 9.89342 1.39556 11.537C1.95176 12.3495 2.61421 13.2432 3.48914 13.2119C4.32032 13.1807 4.64529 12.6744 5.64521 12.6744C6.65138 12.6744 6.9451 13.2119 7.82003 13.1994C8.72621 13.1807 9.29491 12.387 9.85111 11.5745C10.4823 10.6496 10.7448 9.75594 10.7573 9.70594C10.7385 9.68719 9.00743 9.02475 8.98868 7.02491C8.96993 5.35005 10.3573 4.55636 10.4198 4.50637C9.63863 3.34396 8.41998 3.21897 7.99502 3.18773ZM14.2695 0.925412V13.1057H16.1631V8.9435H18.7816C21.1752 8.9435 22.85 7.29989 22.85 4.92508C22.85 2.55028 21.2002 0.925412 18.8441 0.925412H14.2695ZM16.1631 2.51903H18.3442C19.9878 2.51903 20.9252 3.39396 20.9252 4.93133C20.9252 6.46871 19.9878 7.35613 18.3379 7.35613H16.1631V2.51903ZM26.2998 13.1994C27.4872 13.1994 28.5871 12.5995 29.087 11.6433H29.1245V13.1057H30.8744V7.04366C30.8744 5.28755 29.4683 4.15015 27.3059 4.15015C25.2998 4.15015 23.8125 5.30005 23.7562 6.87492H25.4623C25.6061 6.12499 26.2998 5.63128 27.2497 5.63128C28.4058 5.63128 29.0558 6.16873 29.0558 7.1624V7.83735L26.6935 7.98108C24.4999 8.11232 23.3125 9.01225 23.3125 10.5746C23.3188 12.1495 24.5437 13.1994 26.2998 13.1994ZM26.8122 11.7558C25.8061 11.7558 25.1624 11.2683 25.1624 10.5309C25.1624 9.76219 25.7811 9.31847 26.9622 9.24973L29.062 9.11849V9.80593C29.062 10.9433 28.0934 11.7558 26.8122 11.7558ZM33.2179 16.4179C35.0615 16.4179 35.9302 15.7117 36.6864 13.5806L40.0049 4.26889H38.08L35.8552 11.462H35.8177L33.5929 4.26889H31.6181L34.8178 13.1369L34.6428 13.6744C34.3553 14.5868 33.8866 14.943 33.0492 14.943C32.8992 14.943 32.6117 14.9243 32.493 14.9118V16.3741C32.6055 16.3991 33.0742 16.4179 33.2179 16.4179Z" fill="black"/>
</g>
<defs>
<clipPath id="clip0_202_9282">
<rect width="41" height="17" fill="white"/>
</clipPath>
</defs>
</svg>
