<svg width="37" height="36" viewBox="0 0 37 36" fill="none" xmlns="http://www.w3.org/2000/svg">
<g clip-path="url(#clip0_202_12898)">
<path fill-rule="evenodd" clip-rule="evenodd" d="M35.2969 31.2C34.9489 32.088 34.1449 33.336 32.9929 34.224C32.3329 34.728 31.5409 35.22 30.4609 35.544C29.3089 35.892 27.8809 36 26.1049 36H9.90488C8.12888 36 6.71288 35.88 5.54888 35.544C4.46888 35.22 3.67688 34.74 3.01688 34.224C1.87688 33.348 1.06088 32.088 0.712883 31.2C0.0168828 29.412 0.00488281 27.384 0.00488281 26.1V9.90003C0.00488281 8.61603 0.0168828 6.58803 0.712883 4.80003C1.06088 3.91203 1.86488 2.66403 3.01688 1.77603C3.67688 1.27203 4.46888 0.78003 5.54888 0.45603C6.71288 0.120031 8.12888 3.05176e-05 9.90488 3.05176e-05H26.1049C27.8809 3.05176e-05 29.2969 0.120031 30.4609 0.45603C31.5409 0.78003 32.3329 1.26003 32.9929 1.77603C34.1329 2.65203 34.9489 3.91203 35.2969 4.80003C36.0049 6.58803 36.0049 8.62803 36.0049 9.90003V26.1C36.0049 27.384 35.9929 29.412 35.2969 31.2Z" fill="url(#paint0_linear_202_12898)"/>
<path d="M17.9689 3.98403C11.0809 4.00803 5.44094 9.60003 5.34494 16.488C5.27294 22.068 8.83694 26.844 13.8169 28.596C13.9369 28.644 14.0569 28.536 14.0449 28.416C14.0249 28.272 14.0036 28.128 13.9823 27.984C13.9396 27.696 13.8969 27.408 13.8649 27.12C13.8409 26.964 13.7449 26.844 13.6129 26.772C9.67694 25.056 6.92894 21.108 6.97694 16.536C7.03694 10.536 11.9329 5.65203 17.9209 5.60403C24.0529 5.55603 29.0569 10.524 29.0569 16.644C29.0569 21.168 26.3209 25.056 22.4209 26.772C22.2769 26.832 22.1809 26.964 22.1689 27.12L21.9889 28.416C21.9649 28.548 22.0969 28.644 22.2169 28.596C27.1489 26.868 30.6889 22.164 30.6889 16.644C30.6649 9.66003 24.9649 3.97203 17.9689 3.98403Z" fill="white"/>
<path d="M18.0049 18.564C19.6369 18.564 20.9569 17.244 20.9569 15.612C20.9569 13.992 19.6369 12.66 18.0049 12.66C16.3729 12.66 15.0529 13.98 15.0529 15.612C15.0529 17.244 16.3729 18.564 18.0049 18.564Z" fill="white"/>
<path d="M20.6089 20.7C20.8969 20.988 21.0409 21.3 21.0889 21.732C21.1849 22.572 21.1369 23.292 21.0289 24.456C20.9329 25.56 20.7529 27.024 20.5249 28.524C20.3569 29.592 20.2249 30.168 20.1049 30.576C19.9129 31.236 19.1689 31.824 18.0049 31.824C16.8409 31.824 16.1089 31.248 15.9049 30.576C15.7849 30.168 15.6529 29.592 15.4849 28.524C15.2569 27.036 15.0769 25.56 14.9809 24.456L14.9799 24.4431C14.8845 23.2867 14.8253 22.5689 14.9209 21.732C14.9689 21.3 15.1249 21 15.4009 20.7C15.9409 20.124 16.8889 19.764 18.0049 19.764C19.1209 19.764 20.0689 20.136 20.6089 20.7Z" fill="white"/>
<path d="M9.53294 16.548C9.59294 12.06 13.1929 8.35203 17.6809 8.18403C22.5049 7.99203 26.5009 11.868 26.4889 16.644C26.4889 19.548 25.0129 22.128 22.7809 23.652C22.6609 23.736 22.5049 23.64 22.5169 23.508C22.5409 22.992 22.5529 22.536 22.5289 22.068C22.5289 21.912 22.5889 21.768 22.6969 21.66C24.0289 20.4 24.8689 18.624 24.8689 16.656C24.8689 12.792 21.6529 9.64803 17.7409 9.80403C14.1409 9.94803 11.2489 12.876 11.1529 16.476C11.1049 18.516 11.9449 20.364 13.3249 21.66C13.4449 21.768 13.5049 21.912 13.4929 22.068C13.4689 22.548 13.4689 23.004 13.5049 23.52C13.5049 23.652 13.3489 23.736 13.2409 23.664C10.9729 22.116 9.49694 19.5 9.53294 16.548Z" fill="white"/>
</g>
<defs>
<linearGradient id="paint0_linear_202_12898" x1="18.0049" y1="3.05176e-05" x2="18.0049" y2="36" gradientUnits="userSpaceOnUse">
<stop stop-color="#F452FF"/>
<stop offset="1" stop-color="#832BC1"/>
</linearGradient>
<clipPath id="clip0_202_12898">
<rect width="37" height="36" fill="white"/>
</clipPath>
</defs>
</svg>
