<svg width="43" height="42" viewBox="0 0 43 42" fill="none" xmlns="http://www.w3.org/2000/svg">
<g clip-path="url(#clip0_202_12895)">
<ellipse cx="21.005" cy="21.0233" rx="19.1416" ry="19.1648" fill="url(#paint0_linear_202_12895)"/>
<path d="M16.7376 9.76595L29.3492 7.25943C29.9239 7.14521 30.4595 7.58489 30.4595 8.1708V27.4942C30.4595 29.1391 29.3091 30.5601 27.7002 30.9024L26.586 31.1395C24.645 31.5524 22.8168 30.0723 22.8168 28.0879C22.8168 26.69 23.759 25.4678 25.1109 25.112L28.2687 24.281C28.6973 24.1682 28.996 23.7807 28.996 23.3375V14.3659C28.996 13.9535 28.6171 13.6452 28.2132 13.7291L17.7038 15.9134C17.3805 15.9806 17.1487 16.2655 17.1487 16.5957V29.9933C17.1487 31.7927 15.8897 33.3467 14.1295 33.7201L13.3655 33.8822C11.3656 34.3064 9.48276 32.7811 9.48276 30.7367C9.48276 29.4338 10.3597 28.2941 11.619 27.9601L14.9244 27.0837C15.3318 26.9757 15.6155 26.607 15.6155 26.1855V11.133C15.6155 10.468 16.0853 9.89559 16.7376 9.76595Z" fill="url(#paint1_radial_202_12895)"/>
<path fill-rule="evenodd" clip-rule="evenodd" d="M42.0049 21C42.0049 32.598 32.6029 42 21.0049 42C9.4069 42 0.00488281 32.598 0.00488281 21C0.00488281 9.40205 9.4069 3.05176e-05 21.0049 3.05176e-05C32.6029 3.05176e-05 42.0049 9.40205 42.0049 21ZM40.1465 21.0233C40.1465 31.6077 31.5765 40.1881 21.0049 40.1881C10.4333 40.1881 1.86329 31.6077 1.86329 21.0233C1.86329 10.4388 10.4333 1.85844 21.0049 1.85844C31.5765 1.85844 40.1465 10.4388 40.1465 21.0233Z" fill="url(#paint2_radial_202_12895)"/>
</g>
<defs>
<linearGradient id="paint0_linear_202_12895" x1="21.005" y1="1.85844" x2="21.005" y2="40.1881" gradientUnits="userSpaceOnUse">
<stop stop-color="white"/>
<stop offset="1" stop-color="#DDE2E7"/>
</linearGradient>
<radialGradient id="paint1_radial_202_12895" cx="0" cy="0" r="1" gradientUnits="userSpaceOnUse" gradientTransform="translate(9.48276 38.6084) rotate(-55.1325) scale(42.0164 32.9951)">
<stop stop-color="#7A66FB"/>
<stop offset="0.440198" stop-color="#52A2F4"/>
<stop offset="0.702" stop-color="#FC5D6D"/>
<stop offset="1" stop-color="#E85E7B"/>
</radialGradient>
<radialGradient id="paint2_radial_202_12895" cx="0" cy="0" r="1" gradientUnits="userSpaceOnUse" gradientTransform="translate(9.48276 38.6084) rotate(-55.1325) scale(42.0164 32.9951)">
<stop stop-color="#7A66FB"/>
<stop offset="0.440198" stop-color="#52A2F4"/>
<stop offset="0.702" stop-color="#FC5D6D"/>
<stop offset="1" stop-color="#E85E7B"/>
</radialGradient>
<clipPath id="clip0_202_12895">
<rect width="43" height="42" fill="white"/>
</clipPath>
</defs>
</svg>
