<svg width="37" height="37" viewBox="0 0 37 37" fill="none" xmlns="http://www.w3.org/2000/svg">
<g clip-path="url(#clip0_202_10237)">
<path d="M31.952 0.00671387H4.05195C1.8152 0.00671387 0.00195312 1.81996 0.00195312 4.05671V31.9567C0.00195312 34.1935 1.8152 36.0067 4.05195 36.0067H31.952C34.1887 36.0067 36.002 34.1935 36.002 31.9567V4.05671C36.002 1.81996 34.1887 0.00671387 31.952 0.00671387Z" fill="#84889C"/>
<path d="M13.997 14.7667C12.0328 16.2405 12.0395 18.3633 13.9565 19.818C14.1016 19.9293 14.2321 20.2972 14.159 20.4198C13.574 21.393 13.0115 22.3942 12.2938 23.2661C11.8213 23.8398 11.072 23.7746 10.3925 23.4517C9.65002 23.0996 8.89064 23.0355 8.10202 23.3257C6.61477 23.8747 5.92402 23.6396 5.01502 22.3402C3.88327 20.7213 3.27802 18.9551 3.39052 16.956C3.53227 14.4067 5.69902 12.6551 8.09977 13.7385C8.75002 14.0321 9.28102 13.9061 9.86939 13.6811C11.5524 13.0353 12.9316 13.3942 13.9981 14.7667H13.997ZM18.0718 23.409H16.3336V13.5708C17.0008 13.5708 17.6915 13.5416 18.3744 13.5933C18.5206 13.6046 18.6894 13.896 18.7726 14.0906C19.6029 16.0413 20.4151 17.9988 21.2375 19.9541C21.3185 20.1465 21.44 20.322 21.575 20.5706C22.43 18.5591 23.2546 16.6196 24.077 14.6778C24.5495 13.5675 24.5473 13.5663 25.7645 13.5675H26.6803V23.391H25.022V17.2462L24.8758 17.2001C24.5563 17.928 24.2323 18.6547 23.9173 19.386C23.4189 20.5458 22.9059 21.7012 22.4379 22.8723C22.2691 23.2942 22.043 23.454 21.584 23.4573C21.1228 23.4573 20.828 23.3628 20.639 22.8982C19.9336 21.1567 19.1956 19.4287 18.4678 17.6962C18.3801 17.4606 18.2441 17.246 18.0684 17.0662C18.0718 19.1598 18.0718 21.2557 18.0718 23.409ZM32.627 23.4067H30.791V15.5036C29.8989 16.1032 29.1013 16.6365 28.181 17.253C28.181 16.6252 28.1585 16.1066 28.1945 15.5947C28.2058 15.435 28.3363 15.2392 28.4713 15.1391C29.1215 14.6553 29.7391 14.0737 30.4693 13.7711C31.097 13.5101 31.862 13.5753 32.6293 13.4898C32.627 16.8536 32.627 20.1003 32.627 23.4078V23.4067Z" fill="white"/>
<path d="M11.4635 10.1317C11.7133 11.8361 10.8414 12.942 8.89177 13.3942C8.42602 11.9857 9.63427 10.4535 11.4635 10.1317Z" fill="white"/>
</g>
<defs>
<clipPath id="clip0_202_10237">
<rect width="37" height="37" fill="white"/>
</clipPath>
</defs>
</svg>
