<svg width="41" height="20" viewBox="0 0 41 20" fill="none" xmlns="http://www.w3.org/2000/svg">
<path d="M10.7856 3.30511C10.1023 4.12167 8.98583 4.77158 7.90264 4.68826C7.736 3.57174 8.28592 2.40524 8.91917 1.672C9.63574 0.855447 10.8189 0.255529 11.8021 0.205536C11.9188 1.33872 11.4522 2.48856 10.7856 3.30511ZM22.6544 17.3115C22.8877 17.6115 23.321 17.7615 23.9042 17.7615C24.2542 17.7615 24.7374 17.6948 25.3707 17.5615V19.4446C24.5375 19.6779 23.6709 19.7945 22.7877 19.7945C20.738 19.7945 19.7215 18.628 19.7215 16.3117V6.07974H17.955V4.21332H19.8215V1.79699L22.2878 0.797122V4.22999H25.1207V6.0964H22.3044V15.7618C22.3044 16.5117 22.4211 17.0116 22.6544 17.3115ZM31.2566 19.5529L25.6907 4.22166H28.4069L31.7732 14.187C31.9065 14.5869 32.2398 15.7034 32.7564 17.5532L33.2563 15.8867L33.8062 14.2036L37.2891 4.20499H40.0054L34.2895 19.5529H31.2566ZM14.4843 17.2532C13.6844 18.4363 12.8345 19.6028 11.5014 19.6362C10.2015 19.6695 9.78493 18.8696 8.28514 18.8696C6.80201 18.8696 6.3354 19.6028 5.10224 19.6695C3.83574 19.7028 2.86921 18.3697 2.03599 17.1865C0.386214 14.7702 -0.896945 10.3708 0.819488 7.38784C1.66937 5.90471 3.2025 4.9715 4.85227 4.95484C6.1021 4.93818 7.28527 5.82139 8.0685 5.82139C8.83506 5.82139 10.2682 4.77153 11.7847 4.92151C12.4179 4.95484 14.201 5.18814 15.3508 6.83792C15.2509 6.90457 13.2178 8.08775 13.2345 10.5374C13.2511 13.487 15.8174 14.4702 15.8341 14.4869C15.8174 14.5535 15.4175 15.8867 14.4843 17.2532Z" fill="black"/>
</svg>
