<svg width="28" height="32" viewBox="0 0 28 32" fill="none" xmlns="http://www.w3.org/2000/svg">
<g clip-path="url(#clip0_202_8963)">
<path d="M23.0395 16.9106C23.0253 14.2887 24.2112 12.3098 26.6116 10.8524C25.2685 8.93059 23.2396 7.87326 20.5605 7.66608C18.0243 7.46604 15.2524 9.14492 14.2379 9.14492C13.1663 9.14492 10.7087 7.73752 8.77981 7.73752C4.79337 7.80182 0.556885 10.9167 0.556885 17.2535C0.556885 19.1253 0.899804 21.059 1.58564 23.0546C2.5001 25.6765 5.80069 32.1062 9.24418 31.9991C11.0445 31.9562 12.3162 30.7203 14.6594 30.7203C16.9313 30.7203 18.1101 31.9991 20.1176 31.9991C23.5896 31.9491 26.5759 26.1051 27.4475 23.4761C22.7895 21.2828 23.0395 17.0464 23.0395 16.9106ZM18.996 5.17991C20.9463 2.8652 20.7677 0.757677 20.7106 0.000396729C18.9888 0.100415 16.9956 1.17204 15.8597 2.49371C14.6094 3.90825 13.8736 5.65857 14.0308 7.63036C15.8954 7.77324 17.5957 6.81592 18.996 5.17991Z" fill="black"/>
</g>
<defs>
<clipPath id="clip0_202_8963">
<rect width="28" height="32.0004" fill="white"/>
</clipPath>
</defs>
</svg>
