<svg width="41" height="30" viewBox="0 0 41 30" fill="none" xmlns="http://www.w3.org/2000/svg">
<g clip-path="url(#clip0_202_15785)">
<path d="M35.011 7.2199C32.042 7.2199 29.9189 9.83417 27.7304 12.7486C26.3714 6.55951 24.865 0.375854 20.0622 0.375854C15.2594 0.375854 13.7475 6.55951 12.3667 12.7541C10.1836 9.83417 8.06055 7.2199 5.09152 7.2199C3.20314 7.2199 0.00488281 8.50247 0.00488281 13.3162V22.0487C0.00488281 26.7696 2.52637 27.9267 4.03818 28.3251C6.64699 29.0019 12.9289 29.635 20.0022 29.635C27.0754 29.635 33.3573 29.0019 35.9661 28.3251C37.4779 27.9267 40.0049 26.7696 40.0049 22.0487V13.3162C40.0049 8.50247 36.8066 7.2199 34.9182 7.2199H35.011ZM20.0622 3.10474C22.9384 3.10474 24.0354 8.78082 25.5636 15.5921C23.8881 17.6552 22.1089 19.3198 20.0622 19.3198C18.0155 19.3198 16.2418 17.6552 14.5608 15.5921C15.9907 9.2229 17.0932 3.10474 20.0622 3.10474ZM2.77743 22.076V13.3435C2.77743 10.3035 4.41476 9.97607 5.13519 9.97607C7.23097 9.97607 9.5014 13.469 11.6245 16.2743C10.1072 22.6381 8.50263 26.5131 4.71494 25.7163C3.72708 25.4489 2.79926 24.8212 2.79926 22.1032L2.77743 22.076ZM10.2327 26.5295C11.9083 24.7066 12.9616 21.8631 13.7967 18.8504C15.5486 20.6897 17.5734 22.076 20.084 22.076C22.5946 22.076 24.614 20.6897 26.3714 18.8504C27.1846 21.8631 28.2543 24.7066 29.9298 26.5295C26.999 26.7969 23.4733 26.9607 20.1059 26.9607C16.7384 26.9607 13.1854 26.7969 10.2546 26.5295H10.2327ZM37.3906 22.1032C37.3906 24.8321 36.4628 25.4489 35.4749 25.7163C31.6818 26.5186 30.0827 22.6381 28.5654 16.2743C30.7103 13.469 32.9316 9.97607 35.0547 9.97607C35.7642 9.97607 37.4124 10.3035 37.4124 13.3435L37.3906 22.1032Z" fill="#21375A"/>
</g>
<defs>
<clipPath id="clip0_202_15785">
<rect width="41" height="30" fill="white"/>
</clipPath>
</defs>
</svg>
