<svg width="37" height="37" viewBox="0 0 37 37" fill="none" xmlns="http://www.w3.org/2000/svg">
<g clip-path="url(#clip0_202_14270)">
<path d="M27.1298 33.5199C24.4539 35.097 21.3343 36.0018 18.0034 36.0018C8.06229 36.0018 0.00341797 27.9429 0.00341797 18.0018C0.00341797 8.06064 8.06229 0.00177002 18.0034 0.00177002C27.9445 0.00177002 36.0034 8.06064 36.0034 18.0018C36.0034 22.5926 34.2848 26.782 31.4558 29.9617L33.8083 35.5627L27.1298 33.5199Z" fill="#DF2637"/>
<path d="M27.3985 19.1432L18.3546 29.2408L8.69602 20.5481C7.81798 19.5823 7.29115 18.4408 7.29115 17.0359C7.20334 15.5432 7.73017 14.1384 8.87163 12.9091C10.0131 11.6798 11.3302 11.0652 12.8229 10.8896C14.3155 10.714 15.6326 11.0652 16.7741 11.9432C20.3741 14.753 21.1643 17.3871 19.1448 19.9335C18.618 17.4749 17.4765 15.7189 15.8082 14.5774C14.1399 13.3481 12.735 13.5237 11.418 14.9286C10.1009 16.4213 10.0131 17.6506 11.0668 18.792L17.9155 25.0262L24.8521 17.2993C25.379 16.5969 25.5546 15.8067 25.4668 14.9286C25.379 13.8749 24.8521 12.9969 24.0619 12.2945C23.1838 11.5042 22.3058 11.0652 21.2521 11.153C20.3741 11.153 19.6716 11.4164 19.3204 11.9432L16.8619 9.83592C18.0033 8.69446 19.496 8.07983 21.3399 8.07983C23.096 7.99202 24.7643 8.60666 26.1692 9.92373C27.3985 11.0652 28.1887 12.6457 28.4521 14.6652C28.8033 16.6847 28.2765 18.0896 27.3985 19.1432Z" fill="white"/>
</g>
<defs>
<clipPath id="clip0_202_14270">
<rect width="37" height="37" fill="white"/>
</clipPath>
</defs>
</svg>
