<svg width="36" height="37" viewBox="0 0 36 37" fill="none" xmlns="http://www.w3.org/2000/svg">
<g clip-path="url(#clip0_202_13956)">
<path fill-rule="evenodd" clip-rule="evenodd" d="M17.9427 0.00561523C27.9621 0.00561523 36.001 8.04445 36.001 17.9474C36.001 27.9668 27.9621 36.0056 17.9427 36.0056C8.03981 36.0056 0.000976562 27.9668 0.000976562 17.9474C0.000976562 8.04445 8.03981 0.00561523 17.9427 0.00561523ZM22.3699 21.4425C20.3893 24.0056 16.7777 24.4716 14.3311 22.4911C11.8845 20.627 11.535 17.0153 13.5155 14.4522C15.6126 12.0056 19.2243 11.5396 21.6709 13.4037C24.1175 15.3843 24.467 18.9959 22.3699 21.4425ZM12.8165 33.2095L19.6903 26.5687C17.1272 27.1512 14.4476 26.6852 12.3505 24.9377C9.90389 23.0736 8.85535 19.9279 9.20486 17.0153L3.0301 23.7726C3.0301 23.7726 2.21457 22.258 1.98156 19.4619L12.8165 10.9571C16.0786 8.62697 20.5058 8.51047 23.6515 10.9571C27.1466 13.7532 27.8456 18.8794 25.2825 22.7241L17.3602 34.025C16.1952 34.025 13.8651 33.6755 12.8165 33.2095Z" fill="#00B3E0"/>
</g>
<defs>
<clipPath id="clip0_202_13956">
<rect width="36.001" height="37" fill="white"/>
</clipPath>
</defs>
</svg>
