<svg width="32" height="36" viewBox="0 0 32 36" fill="none" xmlns="http://www.w3.org/2000/svg">
<g clip-path="url(#clip0_202_11321)">
<path fill-rule="evenodd" clip-rule="evenodd" d="M16.3937 11.0463C13.8158 11.0463 11.5772 12.45 10.3662 14.5234L15.1093 17.2573C15.9075 17.716 16.88 17.716 17.6781 17.2573L22.4121 14.5234C21.2194 12.4408 18.9717 11.0463 16.3937 11.0463Z" fill="#E1BEE7"/>
<path fill-rule="evenodd" clip-rule="evenodd" d="M15.1096 17.2573L10.3664 14.5233C9.77011 15.5509 9.43066 16.7344 9.43066 18.0004C9.43066 21.8444 12.5408 24.9545 16.3848 24.9545C20.2288 24.9545 23.3389 21.8444 23.3389 18.0004C23.3389 16.7344 22.9995 15.5417 22.4031 14.5233L17.6692 17.2573C16.8894 17.716 15.9077 17.716 15.1096 17.2573Z" fill="#FAFAFA"/>
<path fill-rule="evenodd" clip-rule="evenodd" d="M31.1 26.4958L22.4211 21.4774C21.2192 23.56 18.9715 24.9545 16.3936 24.9545V35.9912C16.8064 35.9912 17.2101 35.8811 17.577 35.6701L31.1091 27.8536C31.1091 27.8536 31.1183 27.8536 31.1183 27.8444C31.6413 27.5508 31.6229 26.7894 31.1 26.4958Z" fill="#7B1FA2"/>
<path fill-rule="evenodd" clip-rule="evenodd" d="M16.3938 24.9545C13.8158 24.9545 11.5681 23.56 10.3663 21.4774L0.806641 27.0004C1.00848 27.3582 1.31123 27.6518 1.66903 27.8628L15.2011 35.6793C15.5681 35.8903 15.9718 36.0004 16.3846 36.0004V24.9545H16.3938Z" fill="#4A148C"/>
<path fill-rule="evenodd" clip-rule="evenodd" d="M16.3934 11.0464V0.00967407C15.9806 0.00967407 15.5769 0.119766 15.2099 0.330775L1.67781 8.14729C1.31084 8.3583 1.01726 8.66105 0.81543 9.00967L10.3751 14.5326C11.5769 12.4409 13.8246 11.0464 16.3934 11.0464Z" fill="#7B1FA2"/>
<path fill-rule="evenodd" clip-rule="evenodd" d="M31.1183 8.14718C31.1183 8.14718 31.1091 8.14718 31.1091 8.13801L17.577 0.321498C17.2101 0.110488 16.8064 0.000396729 16.3936 0.000396729V11.0371C18.9715 11.0371 21.2192 12.4316 22.4211 14.5142L31.1 9.50498C31.6229 9.2114 31.6413 8.44994 31.1183 8.14718Z" fill="#4A148C"/>
<path fill-rule="evenodd" clip-rule="evenodd" d="M9.43948 18.0004C9.43948 16.7343 9.77893 15.5417 10.3661 14.5233L0.806452 9.0004C0.604618 9.35819 0.485352 9.76186 0.485352 10.1839V25.8077C0.485352 26.2298 0.595443 26.6334 0.806452 26.9912L10.3661 21.4683C9.77893 20.4591 9.43948 19.2664 9.43948 18.0004Z" fill="#BA68C8"/>
<path fill-rule="evenodd" clip-rule="evenodd" d="M22.421 21.4774C21.2191 23.56 18.9714 24.9545 16.4026 24.9545C15.3751 24.9545 14.3934 24.7252 13.5127 24.3307L25.3751 31.1839L31.1182 27.8719C31.6503 27.5692 31.6503 26.7985 31.1182 26.4958L22.421 21.4774Z" fill="url(#paint0_linear_202_11321)"/>
</g>
<defs>
<linearGradient id="paint0_linear_202_11321" x1="27.9628" y1="31.0493" x2="24.2998" y2="18.446" gradientUnits="userSpaceOnUse">
<stop stop-color="#1A237E" stop-opacity="0.01"/>
<stop offset="1" stop-color="#1A237E" stop-opacity="0.3"/>
</linearGradient>
<clipPath id="clip0_202_11321">
<rect width="32" height="36.0004" fill="white"/>
</clipPath>
</defs>
</svg>
