<svg width="37" height="37" viewBox="0 0 37 37" fill="none" xmlns="http://www.w3.org/2000/svg">
<g clip-path="url(#clip0_202_15081)">
<path d="M18.002 0.00317383C16.3994 3.93166 15.4327 6.50136 13.6484 10.3131C14.7424 11.4725 16.0853 12.8227 18.266 14.3477C15.9215 13.3831 14.3222 12.4147 13.1271 11.4097C10.8435 16.1739 7.26574 22.9602 0.00537109 36.0032C5.71177 32.7094 10.1353 30.6787 14.2578 29.9039C14.0807 29.1427 13.9801 28.3193 13.9869 27.4601L13.9937 27.2773C14.0843 23.6221 15.9861 20.8112 18.239 21.002C20.4918 21.1929 22.243 24.3126 22.1524 27.9678C22.1354 28.6556 22.0578 29.3173 21.9222 29.931C26 30.7285 30.3762 32.7539 36.0054 36.0032C34.8954 33.96 33.9047 32.1183 32.9585 30.3642C31.4682 29.2093 29.9138 27.7063 26.743 26.0791C28.9224 26.6453 30.4829 27.2986 31.6992 28.0287C22.0797 10.1223 21.3007 7.74291 18.002 0.00317383Z" fill="#1793D1"/>
</g>
<defs>
<clipPath id="clip0_202_15081">
<rect width="37" height="37" fill="white"/>
</clipPath>
</defs>
</svg>
