<svg width="34" height="41" viewBox="0 0 34 41" fill="none" xmlns="http://www.w3.org/2000/svg">
<g clip-path="url(#clip0_202_10966)">
<path d="M22.8539 15.0417C21.994 12.9669 19.7746 12.0541 16.1994 12.2997C13.2681 9.41482 10.0273 8.04092 5.63264 12.2997C4.01168 12.1384 2.49069 12.078 1.67871 12.7343L2.52284 18.3187L12.6215 20.927L22.8539 15.0417Z" fill="#5BC5DF"/>
<path d="M32.6848 17.282C31.7206 16.135 29.8471 15.8465 27.6354 15.8775C24.559 11.9651 19.4379 12.7421 16.9684 16.0448C13.7007 15.1255 11.3431 15.5119 10.1133 17.516L15.731 20.5589L22.653 22.7659L30.5429 23.8174L32.6848 17.282Z" fill="#3189AA"/>
<path d="M3.29739 10.0826L9.12168 7.56019V4.61753L16.971 2.75042L24.9496 4.62104V7.54939L30.8304 10.1754C31.0017 11.6101 31.2502 15.2092 30.2048 19.5507C30.0553 20.1715 29.8851 20.7835 29.6946 21.3862C27.3719 20.2873 25.132 20.585 22.9544 21.9302C20.8136 20.3304 18.5149 19.4636 15.9321 19.9126C12.5231 15.7841 8.26583 14.5816 3.16123 16.3024C2.85248 13.3933 3.12231 11.1223 3.29739 10.0826ZM33.3608 9.00062L33.229 8.31659L27.6248 5.81415V2.5005L16.9665 0.00183105L6.4465 2.50402V5.80334L0.986804 8.16794L0.825138 8.80537C0.776586 8.99697 -0.349352 13.5697 1.00399 19.6674C1.79683 23.2391 3.27942 26.6035 5.41116 29.6669C8.05744 33.4699 11.7116 36.8087 16.2722 39.5909L16.9457 40.0018L17.631 39.6113C22.0585 37.088 25.6442 33.9127 28.2887 30.1737C30.4117 27.172 31.9312 23.8086 32.8057 20.1771C34.2937 13.9967 33.3998 9.20172 33.3608 9.00062Z" fill="#136A8F"/>
<path d="M17.0009 0.00177002L16.9453 40.0017C37.7676 28.551 33.2287 8.31653 33.2287 8.31653L27.6244 5.81421V2.50044L17.0009 0.00177002Z" fill="black" fill-opacity="0.15"/>
</g>
<defs>
<clipPath id="clip0_202_10966">
<rect width="34" height="41" fill="white"/>
</clipPath>
</defs>
</svg>
