<svg width="37" height="36" viewBox="0 0 37 36" fill="none" xmlns="http://www.w3.org/2000/svg">
<g clip-path="url(#clip0_202_14525)">
<path d="M8.9035 0.000427246C3.99275 0.000427246 0.00585938 3.98711 0.00585938 8.89781V27.1029C0.00585938 32.0136 3.99283 36.0004 8.9035 36.0004H27.1086C32.0193 36.0004 36.0059 32.0136 36.0059 27.1029V8.89781C36.0059 3.98711 32.0194 0.000427246 27.1086 0.000427246L8.9035 0.000427246Z" fill="#E40046"/>
<path d="M15.3444 17.9877H17.6708C17.9454 17.9821 18.2016 18.1255 18.3406 18.3624C18.4795 18.5994 18.4795 18.893 18.3406 19.1299C18.2016 19.3669 17.9454 19.5102 17.6708 19.5047H8.91123C8.63658 19.5102 8.38038 19.3669 8.24142 19.1299C8.10246 18.893 8.10246 18.5994 8.24142 18.3624C8.38038 18.1255 8.63658 17.9821 8.91123 17.9877H13.7014C13.7037 17.9821 13.7061 17.9766 13.7085 17.9711L18.2419 7.06711C18.3576 6.78926 18.6266 6.60606 18.9275 6.6002C19.2404 6.59436 19.5248 6.78125 19.6436 7.07079L28.368 28.3445C28.4771 28.5964 28.4416 28.8876 28.2752 29.1059C28.1087 29.3243 27.8373 29.4356 27.5655 29.3971C27.2936 29.3586 27.0638 29.1762 26.9646 28.9203L18.9368 9.34627L15.3444 17.9877ZM13.222 23.1061C13.2193 23.1129 13.2165 23.1196 13.2136 23.1263L10.8039 28.9235C10.7018 29.1766 10.4716 29.3553 10.2011 29.3916C9.93053 29.4278 9.66139 29.3159 9.49628 29.0985C9.33118 28.8812 9.29555 28.5919 9.403 28.341L11.579 23.1061H7.30751C7.03288 23.1116 6.77671 22.9683 6.63777 22.7313C6.49883 22.4944 6.49883 22.2008 6.63777 21.9639C6.77671 21.7269 7.03288 21.5836 7.30751 21.5891L16.068 21.5891C16.3426 21.5836 16.5987 21.727 16.7376 21.9639C16.8766 22.2009 16.8766 22.4944 16.7376 22.7313C16.5987 22.9683 16.3426 23.1116 16.068 23.1061H13.222H13.222Z" fill="white"/>
</g>
<defs>
<clipPath id="clip0_202_14525">
<rect width="37" height="36.0004" fill="white"/>
</clipPath>
</defs>
</svg>
