<svg width="34" height="36" viewBox="0 0 34 36" fill="none" xmlns="http://www.w3.org/2000/svg">
<g clip-path="url(#clip0_202_14283)">
<path d="M25.5131 3.72139C25.9549 4.08095 26.674 4.08095 27.1158 3.73166L28.2869 2.7968C28.7287 2.44751 28.7903 2.50915 28.4307 2.94063L27.4651 4.08095C27.1055 4.51243 27.0952 5.23156 27.4548 5.66303L28.3897 6.80336C28.7492 7.24511 28.6773 7.30675 28.2458 6.94719L27.1055 6.0226C26.6638 5.66303 25.9446 5.65276 25.4926 6.00205L24.0646 7.09101C23.6126 7.43003 23.5612 7.37866 23.9413 6.95746L25.1022 5.68358C25.4823 5.26238 25.5029 4.5638 25.1536 4.12205L24.2084 2.94063C23.8592 2.49888 23.9208 2.42696 24.3625 2.78653L25.5131 3.72139Z" fill="#F48E06"/>
<path d="M24.7942 4.56389C25.3593 4.53307 25.8627 4.03995 25.914 3.4852L26.2017 0.423771C26.253 -0.141257 26.3455 -0.141257 26.4071 0.423771L26.7461 3.4852C26.8078 4.05022 27.3215 4.55361 27.8762 4.61525L30.4034 4.87208C30.9685 4.93372 30.9685 5.01591 30.4034 5.057L27.8762 5.25219C27.3112 5.29329 26.8078 5.7864 26.7564 6.35143L26.3969 10.019C26.3455 10.584 26.253 10.584 26.2017 10.019L25.8627 6.4028C25.8113 5.83777 25.3079 5.34465 24.7429 5.30356L20.4589 4.96454C19.8939 4.92345 19.8939 4.85154 20.4589 4.82072L24.7942 4.56389Z" fill="#F48E06"/>
<path d="M13.4728 3.5674C14.2274 3.5674 14.8391 2.95567 14.8391 2.20106C14.8391 1.44645 14.2274 0.834717 13.4728 0.834717C12.7182 0.834717 12.1064 1.44645 12.1064 2.20106C12.1064 2.95567 12.7182 3.5674 13.4728 3.5674Z" fill="#302C43"/>
<path d="M4.97709 10.8614C4.57644 10.8511 3.57993 10.7689 3.09709 10.2861C2.60397 9.79296 2.51151 8.79646 2.50124 8.38553C2.4807 8.79646 2.38824 9.80324 1.90539 10.2861C1.41228 10.7792 0.426047 10.8511 0.0253906 10.8614C0.426047 10.8717 1.41228 10.9538 1.90539 11.4367C2.39851 11.9298 2.49097 12.9263 2.50124 13.3372C2.52179 12.9263 2.61425 11.9195 3.09709 11.4367C3.57993 10.9641 4.57644 10.8819 4.97709 10.8614C4.97709 10.8717 4.97709 10.8717 4.97709 10.8614Z" fill="#00AC6B"/>
<path d="M24.9068 32.2195C24.2905 32.199 22.7803 32.0757 22.0406 31.336C21.2907 30.5861 21.1571 29.0554 21.1263 28.439H21.1057C21.0852 29.0656 20.9414 30.5963 20.1914 31.336C19.4518 32.0757 17.9416 32.199 17.3252 32.2195C17.9416 32.2401 19.4415 32.3531 20.1914 33.103C20.9414 33.853 21.0749 35.3837 21.1057 36.0001H21.1263C21.1468 35.3734 21.2907 33.8427 22.0406 33.103C22.7803 32.3633 24.2905 32.2503 24.9068 32.2195C24.9068 32.2298 24.8966 32.2298 24.9068 32.2195Z" fill="#09A6D1"/>
<path d="M33.2592 25.2337C33.6563 25.2337 33.9783 24.9117 33.9783 24.5145C33.9783 24.1174 33.6563 23.7954 33.2592 23.7954C32.862 23.7954 32.54 24.1174 32.54 24.5145C32.54 24.9117 32.862 25.2337 33.2592 25.2337Z" fill="#F4362C"/>
<path d="M3.88807 29.5073C4.28523 29.5073 4.6072 29.1854 4.6072 28.7882C4.6072 28.391 4.28523 28.0691 3.88807 28.0691C3.49091 28.0691 3.16895 28.391 3.16895 28.7882C3.16895 29.1854 3.49091 29.5073 3.88807 29.5073Z" fill="#A39A8B"/>
<path d="M8.66501 24.0215C8.75747 24.1961 8.93211 24.3091 9.1273 24.3091H11.7162C12.0449 24.3091 12.2812 24.0112 12.3634 23.8571L13.8119 21.0731C13.8324 21.0217 13.9249 20.9703 13.966 20.9703H20.8182C20.8593 20.9703 20.9415 21.0217 20.9723 21.0731L22.4209 23.8571C22.5031 24.0112 22.7393 24.3091 23.0681 24.3091H25.6569C25.8521 24.3091 26.0268 24.1961 26.1192 24.0215C26.2117 23.8468 26.2117 23.6311 26.109 23.4667L19.0615 10.6765C18.9691 10.5019 18.7944 10.3992 18.6095 10.3992H16.1747C15.9898 10.3992 15.8152 10.5019 15.7227 10.6765L8.67528 23.4667C8.58282 23.6311 8.57255 23.8468 8.66501 24.0215ZM15.6303 17.5802L17.3973 14.19L19.1643 17.5802C19.1848 17.611 19.1951 17.6624 19.1951 17.6829C19.1848 17.6829 19.1745 17.6932 19.1437 17.6932H15.6611C15.6303 17.6932 15.6097 17.6932 15.6097 17.6829C15.5994 17.6624 15.62 17.611 15.6303 17.5802Z" fill="#302C43"/>
<path d="M27.7323 15.813C27.7631 15.7308 27.8556 15.6589 27.9583 15.6383L30.1568 15.2993C30.2493 15.289 30.3314 15.3199 30.3623 15.3815C30.3931 15.4431 30.3725 15.5253 30.3006 15.587L28.6672 17.0869C28.585 17.1588 28.472 17.1896 28.3898 17.1588C28.3076 17.1279 28.2665 17.056 28.2973 16.9636C28.3076 16.943 28.3076 16.9225 28.3179 16.9019C28.3693 16.717 28.359 16.5321 28.2768 16.3677C28.1946 16.2034 28.0508 16.0698 27.8556 15.9979C27.8453 15.9979 27.835 15.9876 27.8248 15.9876C27.7837 15.9773 27.7529 15.9465 27.7323 15.9157C27.722 15.8952 27.722 15.8541 27.7323 15.813Z" fill="#A39A8B"/>
<path d="M5.12079 18.8949C5.96319 16.4294 11.8703 14.2822 11.8703 14.2822C11.8909 14.272 11.9114 14.272 11.9217 14.272C12.0141 14.272 12.0963 14.3542 12.0963 14.4466C12.0963 14.5185 12.0552 14.5699 11.9936 14.6007C11.0279 15.0733 6.71314 17.2512 6.26112 18.9155C6.1892 19.1107 6.17893 19.2956 6.27139 19.4702C6.64123 20.1585 8.54177 20.4462 11.3669 20.2305C14.0174 20.025 17.2638 19.6551 21.2498 18.4326C23.099 17.8676 24.866 17.2307 26.5097 16.5321L26.561 16.5115L26.7768 16.4294C26.8487 16.3985 26.9206 16.3883 27.0028 16.3883C27.3418 16.3883 27.6192 16.6554 27.6295 16.9944C27.6295 17.0252 27.6397 17.0663 27.6397 17.0971C27.6295 17.3129 27.4754 17.4978 27.2493 17.5902L27.0747 17.6621C25.4207 18.3504 23.6948 18.9668 21.8148 19.5524C18.2603 20.6414 14.9728 21.2372 11.1306 21.4735C10.617 21.5043 10.1341 21.5249 9.6821 21.5249C9.35336 21.5249 9.03489 21.5146 8.73697 21.5043C8.61369 21.4941 8.50068 21.4941 8.3774 21.4838C7.32953 21.3811 4.42221 20.929 5.12079 18.8949Z" fill="url(#paint0_linear_202_14283)"/>
</g>
<defs>
<linearGradient id="paint0_linear_202_14283" x1="5.01639" y1="17.9005" x2="27.6397" y2="17.9005" gradientUnits="userSpaceOnUse">
<stop stop-color="#F4362C"/>
<stop offset="0.787" stop-color="#FF9A09"/>
</linearGradient>
<clipPath id="clip0_202_14283">
<rect width="34" height="36.0001" fill="white"/>
</clipPath>
</defs>
</svg>
