<svg width="37" height="36" viewBox="0 0 37 36" fill="none" xmlns="http://www.w3.org/2000/svg">
<path d="M18.002 0.197416C13.2375 0.190464 8.66528 2.07557 5.29018 5.4384C1.91508 8.80122 0.0133295 13.3666 0.00292434 18.131C-0.0418907 22.4074 1.46558 26.5549 4.24579 29.8045C7.026 33.0541 10.8903 35.1853 15.1221 35.8028C16.562 35.8028 17.4783 34.821 17.4783 33.1847C17.4783 31.8103 15.973 31.3521 15.973 31.3521C11.7841 30.6321 9.10061 26.7705 9.10061 22.4508C9.11505 21.7144 9.24764 20.9852 9.49332 20.2909C10.2133 21.2726 11.5223 22.4508 14.0749 23.5634C15.1407 24.0094 16.0836 24.7053 16.8238 25.5924C17.0856 25.9197 17.2165 26.2469 17.3474 26.3778C17.4783 26.5087 17.4783 26.6396 17.4783 26.7051V26.7443L18.002 28.1843L18.5256 26.7443C18.5256 26.6789 19.2455 24.7808 21.929 23.5372C23.7326 22.897 25.32 21.7631 26.5106 20.2647C26.7456 20.9618 26.8779 21.6894 26.9033 22.4246C26.9033 26.7443 24.2198 30.606 20.0309 31.3259C20.0309 31.3259 18.5256 31.8495 18.5256 33.1585C18.5256 34.7294 19.4419 35.7766 20.8818 35.7766C25.1136 35.1591 28.9779 33.0279 31.7581 29.7783C34.5383 26.5287 36.0458 22.3812 36.001 18.1048C35.9976 15.7464 35.529 13.4119 34.6221 11.2348C33.7152 9.05777 32.3879 7.08097 30.716 5.4176C29.0441 3.75423 27.0605 2.43696 24.8789 1.5412C22.6972 0.64545 20.3603 0.188806 18.002 0.197416ZM15.7112 9.42601C16.6686 7.67199 17.4576 5.83112 18.0674 3.92812C18.6772 5.83112 19.4662 7.67199 20.4236 9.42601C21.34 11.1932 22.3217 12.764 22.8453 13.6149C22.7815 13.76 22.6929 13.8928 22.5835 14.0076C22.2563 14.5312 21.6018 15.0548 20.1618 15.7748C19.327 16.1493 18.6049 16.736 18.0674 17.4765C17.5459 16.721 16.8192 16.1306 15.973 15.7748C15.0128 15.3655 14.1612 14.738 13.4858 13.9421C13.4369 13.8436 13.3703 13.7549 13.2895 13.6803C13.8131 12.764 14.7294 11.1932 15.7112 9.42601ZM25.5943 19.8327C24.4646 21.087 23.0506 22.0521 21.4709 22.6471C20.0589 23.2169 18.8505 24.1973 18.002 25.4615C17.1534 24.1973 15.945 23.2169 14.5331 22.6471C12.0459 21.5999 10.8678 20.4872 10.2787 19.6364C10.1658 19.4759 10.0775 19.2994 10.0169 19.1128L10.2133 18.7201C10.9582 17.2544 11.7887 15.8339 12.7004 14.4657C13.3938 15.4436 14.379 16.1768 15.5148 16.5602C16.161 16.8221 16.7257 17.2513 17.1511 17.8037C17.282 18.0001 17.4129 18.131 17.4129 18.3273C17.4198 18.377 17.4428 18.4229 17.4783 18.4583L18.002 19.9636L18.5256 18.4583C18.7043 18.0053 18.9778 17.5957 19.3277 17.2571C19.6777 16.9184 20.0959 16.6585 20.5545 16.4947C21.6524 16.0417 22.6198 15.3218 23.3689 14.4003C24.3185 15.7444 25.1506 17.1678 25.8561 18.6546L26.0524 19.0473C25.8756 19.2943 25.7222 19.5572 25.5943 19.8327Z" fill="#1A1C3A"/>
</svg>
