<svg width="36" height="36" viewBox="0 0 36 36" fill="none" xmlns="http://www.w3.org/2000/svg">
<path d="M10.6761 16.6294C10.138 16.0547 9.29975 16.0873 8.9341 16.8186L0.111444 34.4643C-0.0521176 34.7912 -0.0346965 35.1796 0.157484 35.4906C0.349665 35.8016 0.689191 35.9909 1.05478 35.9908H13.3416C13.7438 36.0002 14.1136 35.7715 14.2851 35.4076C16.9345 29.9299 15.3293 21.6012 10.6761 16.6294Z" fill="url(#paint0_linear_202_9328)"/>
<path d="M17.1497 0.580336C12.2151 8.39866 12.5406 17.0576 15.791 23.5585L21.7155 35.4076C21.8942 35.7649 22.2594 35.9906 22.6588 35.9906H34.9455C35.311 35.9907 35.6506 35.8014 35.8427 35.4904C36.0349 35.1794 36.0524 34.791 35.8888 34.4641C35.8888 34.4641 19.3596 1.40086 18.9438 0.573623C18.572 -0.166946 17.6277 -0.177015 17.1497 0.580336Z" fill="#2681FF"/>
<defs>
<linearGradient id="paint0_linear_202_9328" x1="9.16076" y1="13.4397" x2="-3.20873" y2="26.7266" gradientUnits="userSpaceOnUse">
<stop stop-color="#0052CC"/>
<stop offset="0.923" stop-color="#2684FF"/>
</linearGradient>
</defs>
</svg>
