<svg width="37" height="37" viewBox="0 0 37 37" fill="none" xmlns="http://www.w3.org/2000/svg">
<g clip-path="url(#clip0_202_14864)">
<path d="M18.0022 36.0044C27.9433 36.0044 36.0022 27.9455 36.0022 18.0044C36.0022 8.06327 27.9433 0.00439453 18.0022 0.00439453C8.06107 0.00439453 0.00219727 8.06327 0.00219727 18.0044C0.00219727 27.9455 8.06107 36.0044 18.0022 36.0044Z" fill="#60B57D"/>
<path d="M16.5702 8.32133C16.7884 8.49665 16.8232 8.8157 16.6479 9.03395C16.4726 9.2522 16.1536 9.287 15.9353 9.11168C14.614 8.05024 13.5133 7.6998 12.8345 8.04633C12.0444 8.44923 11.738 9.7455 11.8975 11.5544L11.9215 11.7986C11.9349 11.9222 11.9504 12.0479 11.9679 12.1758L12.0057 12.4343C12.0526 12.7366 12.1105 13.0497 12.1794 13.3722C13.1309 13.2247 14.155 13.1283 15.2305 13.0882C15.6971 12.4888 16.1714 11.9262 16.6479 11.4052L16.8866 11.1478C17.4838 10.5132 18.0827 9.94512 18.6721 9.45343L18.9073 9.26085C21.0582 7.53328 23.0601 6.84971 24.3547 7.69025C25.4825 8.42191 25.7847 10.0793 25.3659 12.3004C25.314 12.5755 25.049 12.7564 24.7739 12.7045C24.4988 12.6527 24.3178 12.3876 24.3697 12.1125C24.7205 10.2524 24.4895 8.98614 23.8028 8.54063C22.9103 7.96117 21.2518 8.62825 19.3817 10.1861L19.1731 10.3629C19.0684 10.4531 18.9631 10.546 18.8573 10.6415L18.645 10.8361C18.4322 11.0342 18.2176 11.2427 18.0021 11.4612L17.7862 11.6829C17.7502 11.7204 17.7142 11.7582 17.6781 11.7963L17.4617 12.0278L17.245 12.2656L17.0282 12.5097C16.956 12.5921 16.8838 12.6755 16.8116 12.7599L16.5953 13.0162L16.5531 13.0673C17.0574 13.07 17.5705 13.0846 18.0904 13.1116L18.2922 13.1227L18.6933 13.1484C19.0261 13.1718 19.3552 13.1999 19.6801 13.2326L20.0679 13.2741C20.1321 13.2814 20.1963 13.2889 20.2602 13.2965L20.6415 13.3445C20.9574 13.3862 21.2686 13.4324 21.5745 13.4828L21.939 13.5453L22.2982 13.6118L22.652 13.6823C23.822 13.9235 24.8976 14.229 25.8456 14.587L26.1261 14.696C28.6157 15.6908 30.15 17.0602 30.0712 18.5738C30.006 19.8251 28.8844 20.858 27.0043 21.5982C26.7439 21.7008 26.4496 21.5728 26.347 21.3123C26.2444 21.0518 26.3725 20.7575 26.6329 20.655C28.1832 20.0446 29.0195 19.2744 29.0588 18.5211C29.109 17.5566 27.9551 16.5592 26.0343 15.7547L25.7954 15.6572C25.6335 15.5928 25.4667 15.5298 25.2951 15.4682L25.0342 15.377C24.946 15.347 24.8567 15.3174 24.7663 15.2881L24.4916 15.2016L24.2104 15.1176C24.163 15.1038 24.1153 15.0901 24.0674 15.0765L23.7766 14.9964C23.7276 14.9833 23.6783 14.9702 23.6288 14.9573L23.3289 14.8813C23.026 14.8067 22.7142 14.7363 22.3944 14.6706L22.072 14.6066C22.0179 14.5961 21.9635 14.5859 21.9089 14.5757L21.5788 14.5165L21.2438 14.4606C21.1875 14.4516 21.1311 14.4427 21.0745 14.434L20.7325 14.3833C20.6177 14.367 20.5022 14.3513 20.386 14.3362L20.0353 14.2928L19.6804 14.2532C19.502 14.2343 19.3221 14.2169 19.1409 14.201L18.7766 14.1712C18.6545 14.162 18.5319 14.1534 18.4088 14.1455L18.0377 14.124L17.6664 14.1069L17.2979 14.0943C16.8698 14.0822 16.4478 14.0792 16.0334 14.0846L15.7437 14.0901L15.6298 14.2411C15.559 14.3361 15.4885 14.4319 15.4181 14.5286L15.2077 14.8214C14.9632 15.1661 14.7218 15.5215 14.4849 15.8867C14.4172 15.991 14.3503 16.0954 14.2844 16.1997L14.0893 16.5125C13.8815 16.85 13.683 17.1867 13.4941 17.5217C13.5115 17.5641 13.5291 17.6067 13.5468 17.6493L13.6846 17.9748C13.708 18.0292 13.7317 18.0836 13.7555 18.1381L13.9013 18.466L14.0523 18.7952L14.2087 19.1256L14.3703 19.457L14.5372 19.7891L14.708 20.1192L14.8814 20.4446L15.057 20.7652C15.0865 20.8182 15.116 20.8711 15.1456 20.9237L15.3245 21.2367C15.3844 21.3403 15.4447 21.4429 15.5052 21.5447L15.6877 21.8473C15.7489 21.9473 15.8103 22.0464 15.8719 22.1446L16.0575 22.4363L16.2444 22.7224C16.4007 22.9583 16.5581 23.1883 16.7164 23.4119L16.9066 23.6772C17.0336 23.852 17.1611 24.0227 17.2887 24.189L17.4803 24.4352L17.6719 24.6749C17.7039 24.7143 17.7358 24.7534 17.7678 24.7922L17.9594 25.0217L18.1507 25.2443C18.3418 25.4634 18.5323 25.672 18.7215 25.8695L18.9102 26.0632L19.0978 26.2494C19.1914 26.3405 19.2844 26.4289 19.377 26.5142L19.5613 26.681C19.6531 26.7624 19.7443 26.8409 19.8348 26.9162L20.0148 27.0629C21.2385 28.0366 22.3229 28.4299 23.0428 28.0627C23.7189 27.718 24.0415 26.7116 24.0177 25.2843L24.0116 25.0671C24.0086 24.9937 24.0049 24.9192 24.0002 24.8438L23.9837 24.6145C23.9773 24.5371 23.97 24.4587 23.9619 24.3794L23.935 24.1387C23.9301 24.0982 23.925 24.0574 23.9197 24.0164L23.885 23.7676L23.8452 23.5138L23.8002 23.255C23.7606 23.0373 23.7156 22.8146 23.6653 22.5875L23.6023 22.3127L23.5342 22.0338C23.5224 21.987 23.5104 21.94 23.4982 21.8929L23.4224 21.6081L23.3415 21.3197C23.3276 21.2713 23.3135 21.2228 23.2992 21.1741L23.2106 20.8805L23.1169 20.5836C23.0688 20.4343 23.0187 20.2839 22.9668 20.1325L22.8604 19.8283L22.7489 19.5215C22.6728 19.3161 22.5934 19.1091 22.5106 18.9007L22.3838 18.5871L22.252 18.2716C22.2296 18.2189 22.207 18.1661 22.1842 18.1132L22.0448 17.7953L21.9004 17.4759C21.8759 17.4225 21.8512 17.3691 21.8263 17.3157L21.6742 16.9945C21.6485 16.9409 21.6225 16.8872 21.5963 16.8335C21.4737 16.5818 21.5782 16.2784 21.8299 16.1558C22.0815 16.0331 22.3849 16.1376 22.5076 16.3893L22.6757 16.7393C22.7308 16.8559 22.785 16.9722 22.8383 17.0884L22.9954 17.4362C23.1497 17.7834 23.2957 18.1285 23.4331 18.4707L23.5677 18.8119C23.5897 18.8686 23.6114 18.9252 23.6329 18.9817L23.759 19.3196C23.7795 19.3757 23.7998 19.4317 23.8198 19.4877L23.9372 19.8219C24.0135 20.0438 24.086 20.2639 24.1545 20.4819L24.2544 20.8075C25.4497 24.8024 25.2963 28.0516 23.5034 28.9658C22.0531 29.7055 19.9968 28.6781 17.927 26.5112L17.7128 26.283C17.5701 26.1282 17.4273 25.9681 17.2848 25.8028L17.0713 25.5512C16.5024 24.87 15.9386 24.1087 15.3925 23.2804L15.1886 22.9667C14.681 22.1747 14.1902 21.3254 13.7265 20.4294L13.6341 20.2496C13.5728 20.1294 13.5124 20.0092 13.453 19.8891L13.2775 19.5293C13.1395 19.2417 13.007 18.955 12.8802 18.6697L12.7984 18.8316C12.7731 18.8823 12.7481 18.9329 12.7233 18.9834L12.5774 19.2854L12.4372 19.5851L12.3026 19.8825C12.2806 19.9319 12.2589 19.9811 12.2374 20.0303L12.1113 20.3237C12.0908 20.3723 12.0705 20.4209 12.0505 20.4693L11.933 20.7583C11.9139 20.8062 11.895 20.854 11.8764 20.9017L11.7676 21.1858C11.75 21.2329 11.7326 21.2798 11.7154 21.3266L11.6154 21.6055L11.5212 21.8805C11.4756 22.0171 11.4322 22.1522 11.391 22.2856L11.3116 22.5504L11.2382 22.8107C11.2264 22.8536 11.215 22.8964 11.2037 22.9391L11.1393 23.1922C11.0882 23.4012 11.0433 23.605 11.0048 23.803L10.9617 24.0379C10.6748 25.7014 10.8618 26.9282 11.5727 27.3896C12.2887 27.8541 13.6164 27.5007 15.2546 26.318C15.4816 26.1541 15.7985 26.2053 15.9623 26.4323C16.1262 26.6593 16.075 26.9761 15.848 27.14C13.9064 28.5417 12.1901 28.9985 11.0209 28.24C9.60824 27.3233 9.50895 24.8992 10.4492 21.8836L10.5466 21.5801C10.6139 21.3765 10.6858 21.1704 10.7621 20.9621L10.88 20.648C11.0417 20.227 11.2212 19.7977 11.4179 19.3622L11.5686 19.0345L11.7257 18.7047C11.9259 18.2915 12.1408 17.8739 12.37 17.4536C12.3397 17.3759 12.3095 17.2985 12.2798 17.2212L12.1487 16.8731C11.9779 16.4105 11.8232 15.9545 11.6852 15.5072L11.5848 15.1734C11.5228 14.9619 11.4646 14.7524 11.4103 14.5453C11.3478 14.5578 11.286 14.5706 11.2245 14.5836L10.9489 14.6443L10.6799 14.7079C10.6356 14.7188 10.5917 14.7297 10.548 14.7408L10.2893 14.8088L10.0379 14.8796C9.95526 14.9037 9.87387 14.9282 9.79373 14.9532L9.55711 15.0295C9.4795 15.0553 9.40319 15.0816 9.32818 15.1083L9.10716 15.1897C7.58801 15.7681 6.66263 16.527 6.61963 17.3537C6.58033 18.1071 7.3322 18.96 8.811 19.7278C9.05944 19.8568 9.15627 20.1628 9.02727 20.4113C8.89826 20.6597 8.59228 20.7565 8.34383 20.6275C6.55044 19.6963 5.54196 18.5524 5.60723 17.3009C5.69797 15.5564 7.90011 14.2248 11.1756 13.5524C10.5126 10.3849 10.85 7.92036 12.3737 7.14332C13.4999 6.56842 14.9712 7.03689 16.5702 8.32133ZM19.348 17.7502C19.5162 18.5287 19.0215 19.2956 18.2431 19.4641C17.4647 19.6323 16.6978 19.1376 16.5292 18.3591C16.3614 17.5807 16.8557 16.8138 17.6342 16.6453C18.4126 16.4771 19.1795 16.9718 19.348 17.7502ZM14.4405 14.1493L14.349 14.1557C14.2792 14.1608 14.2097 14.1661 14.1405 14.1716L13.8108 14.2L13.4859 14.2321C13.4322 14.2378 13.3787 14.2436 13.3254 14.2496L13.0082 14.2871C12.9558 14.2937 12.9036 14.3004 12.8516 14.3072L12.5426 14.35L12.42 14.3687L12.4633 14.5305C12.5311 14.7771 12.6046 15.0277 12.6838 15.2818L12.7814 15.5883C12.7981 15.6397 12.8151 15.6912 12.8322 15.7428L12.9379 16.0541C12.967 16.1381 12.9967 16.2224 13.027 16.3069C13.1876 16.0399 13.3536 15.7723 13.5249 15.5048L13.6344 15.3349C13.8983 14.9282 14.1674 14.5327 14.4405 14.1493Z" fill="white"/>
</g>
<defs>
<clipPath id="clip0_202_14864">
<rect width="37" height="37" fill="white"/>
</clipPath>
</defs>
</svg>
