<svg width="37" height="34" viewBox="0 0 37 34" fill="none" xmlns="http://www.w3.org/2000/svg">
<g clip-path="url(#clip0_202_8457)">
<path d="M24.988 33.208H4.9192C2.20349 33.208 0.00195312 31.0064 0.00195312 28.2908C0.00195312 25.5747 2.20307 23.3725 4.9192 23.371L16.2908 23.3654C18.1615 23.3644 19.8901 24.3627 20.8242 25.9834L24.988 33.208Z" fill="#1E6EFA"/>
<path d="M3.72705 20.5994L13.7615 3.21921C15.1194 0.867328 18.1267 0.0615128 20.4785 1.41937C22.8308 2.77744 23.6375 5.78479 22.2806 8.13769L16.5997 17.9887C15.6652 19.6092 13.9363 20.607 12.0656 20.6057L3.72705 20.5994Z" fill="#FF3C5A"/>
<path d="M25.3079 8.49146L35.3424 25.8716C36.7003 28.2236 35.8945 31.2308 33.5425 32.5888C31.1904 33.9468 28.1825 33.1416 26.8234 30.7901L21.1325 20.9448C20.1964 19.3253 20.1968 17.3291 21.1332 15.7097L25.3079 8.49146Z" fill="#FFC5CE"/>
</g>
<defs>
<clipPath id="clip0_202_8457">
<rect width="37" height="34" fill="white"/>
</clipPath>
</defs>
</svg>
