<svg width="36" height="37" viewBox="0 0 36 37" fill="none" xmlns="http://www.w3.org/2000/svg">
<g clip-path="url(#clip0_202_10275)">
<path d="M0.000976562 13.0308C0.000976562 8.47034 0.000976562 6.19013 0.888495 4.44827C1.66918 2.9161 2.91488 1.6704 4.44705 0.889716C6.18891 0.00219727 8.46912 0.00219727 13.0295 0.00219727H22.9724C27.5328 0.00219727 29.813 0.00219727 31.5549 0.889716C33.0871 1.6704 34.3328 2.9161 35.1135 4.44827C36.001 6.19013 36.001 8.47034 36.001 13.0308V22.9736C36.001 27.5341 36.001 29.8143 35.1135 31.5561C34.3328 33.0883 33.0871 34.334 31.5549 35.1147C29.813 36.0022 27.5328 36.0022 22.9724 36.0022H13.0295C8.46912 36.0022 6.18891 36.0022 4.44705 35.1147C2.91488 34.334 1.66918 33.0883 0.888495 31.5561C0.000976562 29.8143 0.000976562 27.5341 0.000976562 22.9736V13.0308Z" fill="#00005B"/>
<path d="M14.0934 22.992H8.392L7.23199 26.7012C7.19978 26.839 7.07334 26.9366 6.93579 26.9298H4.04808C3.88341 26.9298 3.82582 26.8367 3.87531 26.6504L8.81155 12.017C8.86096 11.8646 8.91034 11.691 8.95969 11.4962C9.02425 11.1572 9.05731 10.8127 9.05842 10.4673C9.04427 10.3653 9.13364 10.2752 9.23119 10.2895H13.1555C13.2704 10.2895 13.3363 10.3318 13.3529 10.4165L18.9557 26.6758C19.005 26.8453 18.9556 26.93 18.8075 26.9298H15.5989C15.4864 26.9427 15.3789 26.8652 15.3521 26.752L14.0934 22.992ZM9.28052 19.791H13.1802C12.5395 17.5938 11.8164 15.4254 11.2304 13.2111C10.5981 15.4292 9.90824 17.6383 9.28052 19.791Z" fill="#9999FF"/>
<path d="M30.7321 14.2547V23.9278C30.7321 24.5916 30.727 25.2612 30.7937 25.9222C30.8184 26.1679 30.8389 26.315 30.8555 26.4841C30.8717 26.6198 30.8143 26.6873 30.6827 26.6873H28.0418C27.9174 26.7009 27.7954 26.6277 27.7456 26.5095C27.6815 26.2754 27.6254 26.0267 27.6222 25.7824C26.6796 26.6482 25.434 26.992 24.1915 27.0019C21.5017 27.0352 19.9847 24.7744 20.045 22.0987V14.2801C20.0288 14.1634 20.1292 14.0601 20.2425 14.0768H23.1756C23.2889 14.0603 23.3892 14.1635 23.3731 14.2801V21.6922C23.3731 23.0463 24.0356 23.9278 25.4009 23.9278C26.1189 23.937 26.8317 23.6419 27.41 23.2165V14.2547C27.41 14.1364 27.484 14.0768 27.6322 14.0768H30.5593C30.6584 14.0625 30.746 14.1527 30.7321 14.2547Z" fill="#9999FF"/>
</g>
<defs>
<clipPath id="clip0_202_10275">
<rect width="36.001" height="37" fill="white"/>
</clipPath>
</defs>
</svg>
