<svg width="41" height="23" viewBox="0 0 41 23" fill="none" xmlns="http://www.w3.org/2000/svg">
<g clip-path="url(#clip0_202_12874)">
<path d="M12.7564 1.59476C17.4651 -0.623774 23.1706 -0.492632 27.8417 1.77045C31.0728 3.30556 33.7892 5.86853 35.5252 8.99666C34.4444 9.54201 33.3591 10.075 32.2763 10.6124C30.5527 7.50212 27.7868 4.99408 24.5127 3.60248C20.1988 1.71799 15.0481 1.77341 10.8343 3.91129C8.47764 5.04703 6.52287 6.85086 4.90759 8.8863C6.71142 5.73788 9.45206 3.1175 12.7564 1.59476Z" fill="#F0A749"/>
<path d="M9.43481 11.3008C11.7236 7.74759 15.746 5.26578 20.0302 5.30833C24.3366 5.25786 28.4297 7.7659 30.6052 11.4384C29.5298 11.9743 28.4495 12.5039 27.3741 13.0418C25.4218 9.80084 21.8211 7.57735 18.0071 7.54716C14.7513 7.41602 11.6632 9.00408 9.43481 11.3008Z" fill="#E15436"/>
<path d="M0.00537109 9.3985C6.66841 12.7399 13.3369 16.069 20.0054 19.401C26.6709 16.0695 33.3394 12.7404 40.0054 9.40345C40.0004 10.3422 39.9994 11.281 40.0024 12.2198C33.3339 15.5496 26.6672 18.8831 20.0024 22.2203C13.3387 18.8844 6.67388 15.5509 0.00784507 12.2198C0.00784507 11.278 0.00784548 10.3383 0.00537109 9.3985Z" fill="#191918"/>
<path d="M14.3069 13.7351C15.5352 12.0392 17.3217 10.5718 19.4947 10.4412C22.0349 10.1774 24.4197 11.7353 25.7133 13.8435C24.6409 14.3864 23.5601 14.9164 22.4872 15.4568C21.4851 13.9365 19.8946 12.6978 18.0249 12.5895C16.6764 12.4336 15.4119 13.0294 14.3069 13.7351Z" fill="#84164D"/>
</g>
<defs>
<clipPath id="clip0_202_12874">
<rect width="41" height="23" fill="white"/>
</clipPath>
</defs>
</svg>
