<svg width="37" height="36" viewBox="0 0 37 36" fill="none" xmlns="http://www.w3.org/2000/svg">
<g clip-path="url(#clip0_202_15970)">
<path d="M23.5759 6.95792L20.2347 9.18787L16.7927 4.02963L20.1339 1.79968L23.5759 6.95792Z" fill="url(#paint0_linear_202_15970)"/>
<path d="M26.2923 22.4544L32.001 31.009L25.2005 35.5472L19.4918 26.9925L18.4958 25.5003L25.2965 20.962L26.2923 22.4544Z" fill="url(#paint1_linear_202_15970)"/>
<path d="M17.7266 28.1702L18.9835 30.0536L13.8073 33.5079L11.5544 30.1321L12.6853 29.3775L16.7308 26.6779L17.7266 28.1702Z" fill="url(#paint2_linear_202_15970)"/>
<path d="M29.1204 18.4101L30.5723 17.4413L32.825 20.8171L29.4834 23.047L28.2265 21.1636L30.1162 19.9025L29.1204 18.4101ZM28.2265 21.1636L27.2307 19.6712L29.1204 18.4101L30.1162 19.9025L28.2265 21.1636Z" fill="url(#paint3_linear_202_15970)"/>
<path d="M5.68993 18.8941L4.55922 19.6488L1.11694 14.4905L6.29317 11.0363L8.70598 14.652L4.6606 17.3516L8.70598 14.652L9.73545 16.1946L5.68993 18.8941Z" fill="url(#paint4_linear_202_15970)"/>
<path d="M18.3005 10.4787L11.4998 15.0169L10.4705 13.4743L4.81519 4.99979L11.6158 0.461548L17.2711 8.93602L18.3005 10.4787Z" fill="url(#paint5_linear_202_15970)"/>
<path d="M22.1247 7.92689L20.235 9.18787L19.2055 7.64537L16.7927 4.02963L20.1343 1.79968L23.5766 6.95792L22.1247 7.92689Z" fill="url(#paint6_linear_202_15970)"/>
<path d="M13.6812 30.8699L12.6853 29.3775L16.7308 26.6779L17.7266 28.1702L13.6812 30.8699Z" fill="#714896"/>
<path d="M28.2265 21.1635L27.2307 19.6711L29.1204 18.41L30.1162 19.9024L28.2265 21.1635Z" fill="#6F4795"/>
<path d="M5.68973 18.8941L4.6604 17.3516L8.70578 14.652L9.73525 16.1946L5.68973 18.8941Z" fill="#88519F"/>
<path d="M20.2348 9.18801L19.2053 7.64551L21.0952 6.3844L22.1245 7.92703L20.2348 9.18801Z" fill="#85509E"/>
<path d="M26.2923 22.4544L19.4918 26.9925L18.4958 25.5003L25.2965 20.962L26.2923 22.4544Z" fill="#8D166A"/>
<path d="M17.2711 8.93591L18.3004 10.4785L11.4998 15.0168L10.4705 13.4742L17.2711 8.93591Z" fill="#A70D6F"/>
<path d="M3.76115 7.70349L5.04475 9.62699L3.12125 10.9106L1.83765 8.98709L3.76115 7.70349Z" fill="#9E61AD"/>
<path d="M10.6928 30.7626L11.9764 32.6861L10.0529 33.9697L8.76929 32.0462L10.6928 30.7626Z" fill="#8053A3"/>
<path d="M5.63264 32.6997L0.0012207 24.1924L30.0961 4.0636L36.0012 12.4352L5.63264 32.6997Z" fill="url(#paint7_linear_202_15970)"/>
</g>
<defs>
<linearGradient id="paint0_linear_202_15970" x1="-9.53602" y1="-6.59903" x2="35.569" y2="25.4494" gradientUnits="userSpaceOnUse">
<stop stop-color="#C06FBB"/>
<stop offset="1" stop-color="#6E4D9B"/>
</linearGradient>
<linearGradient id="paint1_linear_202_15970" x1="28.3473" y1="32.5594" x2="3.32572" y2="5.43566" gradientUnits="userSpaceOnUse">
<stop stop-color="#6E4D9B"/>
<stop offset="0.14" stop-color="#77327A"/>
<stop offset="0.29" stop-color="#B31777"/>
<stop offset="0.84" stop-color="#CD0F7E"/>
<stop offset="1" stop-color="#ED2C89"/>
</linearGradient>
<linearGradient id="paint2_linear_202_15970" x1="-5.69673" y1="-20.6954" x2="25.9514" y2="35.9883" gradientUnits="userSpaceOnUse">
<stop stop-color="#C06FBB"/>
<stop offset="1" stop-color="#6E4D9B"/>
</linearGradient>
<linearGradient id="paint3_linear_202_15970" x1="-18.7088" y1="-8.73355" x2="33.0205" y2="33.4409" gradientUnits="userSpaceOnUse">
<stop stop-color="#C06FBB"/>
<stop offset="1" stop-color="#6E4D9B"/>
</linearGradient>
<linearGradient id="paint4_linear_202_15970" x1="-10.9571" y1="-8.85224" x2="37.156" y2="33.6322" gradientUnits="userSpaceOnUse">
<stop stop-color="#C06FBB"/>
<stop offset="1" stop-color="#6E4D9B"/>
</linearGradient>
<linearGradient id="paint5_linear_202_15970" x1="30.5834" y1="33.2208" x2="5.50145" y2="5.93406" gradientUnits="userSpaceOnUse">
<stop stop-color="#6E4D9B"/>
<stop offset="0.14" stop-color="#77327A"/>
<stop offset="0.29" stop-color="#B31777"/>
<stop offset="0.84" stop-color="#CD0F7E"/>
<stop offset="1" stop-color="#ED2C89"/>
</linearGradient>
<linearGradient id="paint6_linear_202_15970" x1="-9.53501" y1="-8.44976" x2="36.2621" y2="30.8034" gradientUnits="userSpaceOnUse">
<stop stop-color="#C06FBB"/>
<stop offset="1" stop-color="#6E4D9B"/>
</linearGradient>
<linearGradient id="paint7_linear_202_15970" x1="4.14248" y1="29.7367" x2="26.0095" y2="2.3309" gradientUnits="userSpaceOnUse">
<stop stop-color="#6E4D9B"/>
<stop offset="0.14" stop-color="#77327A"/>
<stop offset="0.53" stop-color="#B31777"/>
<stop offset="0.79" stop-color="#CD0F7E"/>
<stop offset="1" stop-color="#ED2C89"/>
</linearGradient>
<clipPath id="clip0_202_15970">
<rect width="37" height="36" fill="white"/>
</clipPath>
</defs>
</svg>
