<svg width="37" height="32" viewBox="0 0 37 32" fill="none" xmlns="http://www.w3.org/2000/svg">
<g clip-path="url(#clip0_202_13691)">
<path d="M21.9317 8.31043H14.0746L18.0095 15.0861L21.9317 8.31043Z" fill="#63C4B1"/>
<path d="M13.3078 8.7487L9.3831 15.5362H17.2419L13.3078 8.7487Z" fill="#63C4B1"/>
<path d="M17.2418 16.4183H9.38282L13.3076 23.2107L17.2418 16.4183Z" fill="#63C4B1"/>
<path d="M8.62868 16.8574L4.6814 23.6433H12.5517L8.62868 16.8574Z" fill="#63C4B1"/>
<path d="M22.6869 8.7487L18.7655 15.5362H26.6231L22.6869 8.7487Z" fill="#63C4B1"/>
<path d="M26.6234 16.4183H18.7652L22.687 23.2107L26.6234 16.4183Z" fill="#63C4B1"/>
<path d="M18.0094 0.630737L14.0749 7.42821H21.9316L18.0094 0.630737Z" fill="#63C4B1"/>
<path d="M12.5519 24.5271H4.6814L8.62882 31.3638L12.5519 24.5271Z" fill="#63C4B1"/>
<path d="M27.3785 16.8574L23.4453 23.6433H31.313L27.3785 16.8574Z" fill="#63C4B1"/>
<path d="M31.3133 24.5271H23.4454L27.3786 31.3638L31.3133 24.5271Z" fill="#63C4B1"/>
<path d="M18.0092 16.8574L14.0747 23.6432H21.9314L18.0092 16.8574Z" fill="white"/>
<path d="M12.5517 8.31038H4.68121L8.62864 15.086L12.5517 8.31038Z" fill="white"/>
<path d="M0.00219727 15.536H7.85847L3.92523 8.74851L0.00219727 15.536Z" fill="white"/>
<path d="M3.92523 23.2108L7.85847 16.4184H0.00219727L3.92523 23.2108Z" fill="white"/>
<path d="M32.0674 8.74865L28.1469 15.5362H36.0019L32.0674 8.74865Z" fill="white"/>
<path d="M36.0022 16.4183H28.1468L32.0677 23.2106L36.0022 16.4183Z" fill="white"/>
<path d="M26.6232 0.190857H18.7651L22.6868 6.97074L26.6232 0.190857Z" fill="white"/>
<path d="M21.9315 24.527H14.0619L18.0094 31.3638L21.9315 24.527Z" fill="white"/>
<path d="M22.6867 24.9644L18.7653 31.8111H26.6229L22.6867 24.9644Z" fill="white"/>
<path d="M17.2416 0.190857H9.38264L13.3074 6.97074L17.2416 0.190857Z" fill="white"/>
<path d="M8.6285 0.630689L4.68121 7.42816H12.5515L8.6285 0.630689Z" fill="white"/>
<path d="M27.3783 0.630689L23.4451 7.42816H31.3128L27.3783 0.630689Z" fill="white"/>
<path d="M31.3131 8.31038H23.4452L27.3785 15.086L31.3131 8.31038Z" fill="white"/>
<path d="M13.3077 24.9644L9.38292 31.8111H17.2417L13.3077 24.9644Z" fill="white"/>
</g>
<defs>
<clipPath id="clip0_202_13691">
<rect width="37" height="32" fill="white"/>
</clipPath>
</defs>
</svg>
