<svg width="37" height="36" viewBox="0 0 37 36" fill="none" xmlns="http://www.w3.org/2000/svg">
<g clip-path="url(#clip0_202_14545)">
<path d="M36.0012 18C36.0012 27.942 27.9426 36.0004 18.0008 36.0004C8.05964 36.0004 0.0012207 27.942 0.0012207 18C0.0012207 8.05887 8.05964 0.000396729 18.0008 0.000396729C27.9426 0.000396729 36.0012 8.05887 36.0012 18Z" fill="#EC1C24"/>
<path d="M16.4577 14.188L20.7737 18.5025C21.3967 19.1263 22.4081 19.1263 23.0326 18.5025C23.6558 17.8787 23.6572 16.8681 23.0326 16.2443L18.7165 11.9281C15.6281 8.8392 10.6368 8.7895 7.48306 11.7712C7.45392 11.7957 7.42477 11.8215 7.39794 11.8483C7.38424 11.8622 7.37297 11.8768 7.35927 11.8891C7.3451 11.9026 7.33094 11.9148 7.31746 11.9282C7.29029 11.9554 7.26532 11.9839 7.24152 12.0122C4.25828 15.1674 4.30961 20.1589 7.39806 23.2477L11.7142 27.5627C12.3385 28.1862 13.3486 28.1862 13.9728 27.5627C14.5976 26.9388 14.5976 25.9269 13.9744 25.3044L9.65828 20.9884C7.77408 19.105 7.76143 16.0484 9.61914 14.1489C11.5184 12.2911 14.5734 12.3046 16.4577 14.188ZM22.0282 8.4403C21.4045 9.06426 21.4045 10.0747 22.0299 10.6985L26.3444 15.0147C28.2274 16.8981 28.2396 19.9543 26.382 21.8542C24.4821 23.7103 21.4282 23.6981 19.5445 21.8145L15.2284 17.4989C14.6042 16.875 13.5925 16.875 12.9691 17.4989C12.3443 18.1223 12.3443 19.136 12.9691 19.7581L17.2838 24.0744C20.373 27.1632 25.3638 27.2135 28.5181 24.2313C28.5474 24.2055 28.575 24.1815 28.604 24.1542C28.6172 24.1408 28.6295 24.1271 28.6424 24.1134C28.6563 24.1001 28.67 24.0876 28.6831 24.0728C28.7108 24.047 28.7344 24.0187 28.7591 23.9892C31.7424 20.8352 31.6926 15.8454 28.604 12.7548L24.288 8.44018C23.6643 7.81541 22.6514 7.81541 22.0282 8.4403Z" fill="white"/>
</g>
<defs>
<clipPath id="clip0_202_14545">
<rect width="37" height="36.0004" fill="white"/>
</clipPath>
</defs>
</svg>
