<svg width="34" height="36" viewBox="0 0 34 36" fill="none" xmlns="http://www.w3.org/2000/svg">
<g clip-path="url(#clip0_202_14543)">
<path d="M26.4652 29.1236L22.8513 17.9999L32.3115 11.1269H20.6177L17.0035 0.00361391L17.0024 0.000611207H28.6979L32.313 11.1258L32.3132 11.1256L32.3162 11.1239C34.4155 17.578 32.2534 24.9187 26.4652 29.1236ZM7.54093 29.1236L7.53792 29.1257L17.0005 36.0004L26.4652 29.1238L17.0035 22.2489L7.54093 29.1236ZM1.69231 11.1241C-0.517675 17.9276 2.0477 25.1366 7.539 29.1249L7.53985 29.1214L11.1542 17.9984L1.69617 11.1267H13.3872L17.0016 0.00339943L17.0024 0.000396729H5.30627L1.69231 11.1241Z" fill="#EB5424"/>
</g>
<defs>
<clipPath id="clip0_202_14543">
<rect width="34" height="36.0004" fill="white"/>
</clipPath>
</defs>
</svg>
