<svg width="36" height="36" viewBox="0 0 36 36" fill="none" xmlns="http://www.w3.org/2000/svg">
<g clip-path="url(#clip0_202_13349)">
<path d="M18.001 34.1376C26.913 34.1376 34.1377 26.913 34.1377 18.0009C34.1377 9.08885 26.913 1.8642 18.001 1.8642C9.08891 1.8642 1.86426 9.08885 1.86426 18.0009C1.86426 26.913 9.08891 34.1376 18.001 34.1376Z" fill="#5D83AC"/>
<path d="M0.000976562 18.0009C0.000976562 8.05978 8.05984 0.000915527 18.001 0.000915527C27.9421 0.000915527 36.001 8.05978 36.001 18.0009C36.001 27.942 27.9421 36.0009 18.001 36.0009C8.05984 36.0009 0.000976562 27.942 0.000976562 18.0009ZM18.001 3.58685C10.0403 3.58685 3.58691 10.0402 3.58691 18.0009C3.58691 25.9616 10.0403 32.415 18.001 32.415C25.9617 32.415 32.415 25.9616 32.415 18.0009C32.415 10.0402 25.9617 3.58685 18.001 3.58685Z" fill="#F0F0F0"/>
<path d="M29.0274 23.3447L20.798 11.4337C20.5092 11.0138 20.1582 10.6628 19.7448 10.3804C19.3313 10.0983 18.816 9.95715 18.1993 9.95715C17.556 9.95715 17.0245 10.1082 16.6046 10.41C16.1844 10.712 15.8368 11.0532 15.5612 11.4337L7.11523 23.3447H11.9387L18.1205 14.6034L20.483 18.0881C20.706 18.4031 20.9389 18.7412 21.182 19.102C21.4246 19.4632 21.6378 19.7615 21.8218 19.9978C21.5068 19.9716 21.1358 19.9584 20.7095 19.9584H19.479H16.1715L13.7105 23.3447H29.0274Z" fill="#F0F0F0"/>
</g>
<defs>
<clipPath id="clip0_202_13349">
<rect width="36.001" height="36.0009" fill="white"/>
</clipPath>
</defs>
</svg>
