<svg width="30" height="37" viewBox="0 0 30 37" fill="none" xmlns="http://www.w3.org/2000/svg">
<g clip-path="url(#clip0_202_11782)">
<path d="M29.9135 15.8934L22.673 16.1934L17.9795 15.894L25.7428 15.1499L29.9135 15.8934Z" fill="#634B1E"/>
<path d="M25.7258 15.4751L29.9133 15.8935V7.45852L25.7258 5.3645L25.4043 5.71166V15.1162L25.7258 15.4751Z" fill="#D9A740"/>
<path d="M17.9795 7.45352L25.726 5.35693V15.475L17.9795 15.894V7.45352Z" fill="#886A2A"/>
<path d="M0.090332 15.8936L7.3308 16.1936L12.0243 15.8942L4.28315 15.0651L0.090332 15.8936Z" fill="#634B1E"/>
<path d="M4.27779 15.475L0.090332 15.881V7.42048L4.27779 5.32996L4.47059 5.69005V15.159L4.27779 15.475Z" fill="#886A2A"/>
<path d="M12.0244 7.45364L4.27783 5.35706V15.4751L12.0244 15.8941V7.45364Z" fill="#D9A740"/>
<path d="M29.9135 20.2554L22.673 19.9553L17.9795 20.2548L25.709 21.0362L29.9135 20.2554Z" fill="#FAD791"/>
<path d="M25.7258 20.6738L29.9133 20.2554V28.6903L25.7258 30.7843L25.5059 30.3054V21.1042L25.7258 20.6738Z" fill="#D9A740"/>
<path d="M17.9795 28.6954L25.726 30.792V20.6739L17.9795 20.2549V28.6954Z" fill="#886A2A"/>
<path d="M0.090332 20.2554L7.3308 19.9553L12.0243 20.2548L4.22711 21.1039L0.090332 20.2554Z" fill="#FAD791"/>
<path d="M4.27779 20.6738L0.090332 20.2554V28.6903L4.27779 30.7843L4.53163 30.4068V21.1038L4.27779 20.6738Z" fill="#886A2A"/>
<path d="M12.0244 28.6954L4.27783 30.792V20.6739L12.0244 20.2549V28.6954Z" fill="#D9A740"/>
<path d="M11.2217 12.3505L15.0621 11.677L22.7292 12.7626L23.3896 13.1425L19.6657 13.55L11.2217 12.3505Z" fill="#634B1E"/>
<path d="M18.7817 12.3505L14.9413 11.677L6.94404 12.9179L6.61377 13.1425L10.3377 13.55L18.7817 12.3505Z" fill="#634B1E"/>
<path d="M11.2217 23.7984L15.0621 24.4719L22.7098 23.4025L23.3896 23.0064L19.6657 22.5989L11.2217 23.7984Z" fill="#FAD791"/>
<path d="M18.7817 23.7986L14.9413 24.472L6.88579 23.3249L6.61377 23.0065L10.3377 22.599L18.7817 23.7986Z" fill="#FAD791"/>
<path d="M23.3896 13.1425V8.97346L19.4622 7.68909V2.23241L15.0017 0.00244141V0.0025579L14.8156 0.298808L14.7817 35.5492L15.0017 36.0024L19.4622 33.7725V28.4599L23.3896 27.1755V23.0065L19.4622 23.6979V12.4511L23.3896 13.1425Z" fill="#D9A740"/>
<path d="M10.5412 2.23241V7.68909L6.61377 8.97346V13.1425L10.5412 12.4511V23.6979L6.61377 23.0065V27.1755L10.5412 28.4599V33.7725L15.0017 36.0024V0.00244141L10.5412 2.23241Z" fill="#886A2A"/>
</g>
<defs>
<clipPath id="clip0_202_11782">
<rect width="30" height="37" fill="white"/>
</clipPath>
</defs>
</svg>
