<svg width="32" height="37" viewBox="0 0 32 37" fill="none" xmlns="http://www.w3.org/2000/svg">
<g clip-path="url(#clip0_202_12113)">
<path d="M0.0313721 28.0461L3.77133 32.429L4.10761 32.0296V3.99541L3.77133 3.57178L0.0313721 7.95311V28.0461Z" fill="#1A476F"/>
<path d="M3.77161 32.4291L10.9179 36.0019L11.2151 35.5237L11.2199 0.376786L10.9228 0.00244141L3.77161 3.56383V32.4291Z" fill="#1F5B98"/>
<path d="M31.9755 7.95311L28.2346 3.57178L27.8162 3.7043L27.8993 32.0713L28.2346 32.429L31.9755 28.0466V7.95311Z" fill="#2D72B8"/>
<path d="M21.0884 36.0019L28.2346 32.4291V3.56383L21.0834 0.00244141L20.7452 0.460016L20.7501 35.482L21.0884 36.0019Z" fill="#5294CF"/>
<path d="M10.923 0.00244141H21.0832V36.0024H10.923V0.00244141Z" fill="#2D72B8"/>
</g>
<defs>
<clipPath id="clip0_202_12113">
<rect width="32" height="37" fill="white"/>
</clipPath>
</defs>
</svg>
