<svg width="32" height="37" viewBox="0 0 32 37" fill="none" xmlns="http://www.w3.org/2000/svg">
<g clip-path="url(#clip0_202_11932)">
<path d="M25.738 7.00245L28.8451 6.20239L28.8682 6.23651L28.9467 24.997L28.8451 25.099L28.2049 25.1264L25.7744 24.7481L25.738 24.6523V7.00245Z" fill="#7A3E65"/>
<path d="M7.76831 26.4023L7.77976 26.4032L15.9813 28.7864L16.0022 28.8024L16.0379 28.8309L16.0263 35.9721L16.0022 36.0024L7.76831 32.0024V26.4023Z" fill="#7A3E65"/>
<path d="M25.7379 24.6523L16.0157 26.9807L11.1343 25.8024L7.76831 26.4023L16.0022 28.8024L28.7102 25.3619L28.845 25.099L25.7379 24.6523Z" fill="#CFB2C1"/>
<path d="M24.2361 9.60242L24.1569 9.51212L16.0907 7.16837L16.0022 7.20249L15.9212 7.16113L3.22875 10.8211L3.15942 10.9058L3.2613 10.9617L6.16386 11.3872L6.26646 11.3524L15.9887 9.0242L20.8701 10.2025L24.2361 9.60242Z" fill="#512843"/>
<path d="M6.26633 29.0023L3.15929 29.7524L3.15387 29.7344L3.03149 11.0439L3.15929 10.9058L6.26633 11.3523V29.0023Z" fill="#C17B9E"/>
<path d="M10.4612 21.7524L16.0023 22.4023L16.0439 22.3403L16.0664 13.6733L16.0023 13.6023L10.4612 14.2524V21.7524Z" fill="#7A3E65"/>
<path d="M21.5433 21.7524L16.0022 22.4023V13.6023L21.5433 14.2524V21.7524Z" fill="#C17B9E"/>
<path d="M24.2361 9.60243L16.0022 7.20249V0.00244141L24.2361 4.00237V9.60243Z" fill="#C17B9E"/>
<path d="M16.0022 0.00244141L0.570068 7.45242V28.5523L3.15941 29.7524V10.9058L16.0022 7.20249V0.00244141Z" fill="#7A3E65"/>
<path d="M28.845 6.20239V25.099L16.0022 28.8024V36.0024L31.4343 28.5523V7.45239L28.845 6.20239Z" fill="#C17B9E"/>
</g>
<defs>
<clipPath id="clip0_202_11932">
<rect width="32" height="37" fill="white"/>
</clipPath>
</defs>
</svg>
