<svg width="30" height="37" viewBox="0 0 30 37" fill="none" xmlns="http://www.w3.org/2000/svg">
<g clip-path="url(#clip0_202_13038)">
<path d="M15.0022 26.7146L27.5099 29.7482L27.5203 29.7279L27.5223 6.27699L27.511 6.25684L15.0022 9.28535V26.7146Z" fill="#8C3123"/>
<path d="M27.51 6.25684L29.9137 7.45841V28.5476L27.51 29.7482V6.25684Z" fill="#E05243"/>
<path d="M15.0026 26.7146L2.49397 29.7417L2.49118 29.7353L2.49048 6.26208L2.49397 6.25684L15.0026 9.28535V26.7146Z" fill="#E05243"/>
<path d="M2.49382 6.25684L0.0900879 7.45841V28.5476L2.49382 29.7417V6.25684Z" fill="#8C3123"/>
<path d="M15.0024 36.0024L15.0542 35.9372L15.012 0.0110623L15.0024 0.00244141L9.54663 2.73004V33.2753L15.0024 36.0024Z" fill="#8C3123"/>
<path d="M15.0022 36.0024V0.00244141L20.457 2.73004V33.2753L15.0022 36.0024Z" fill="#E05243"/>
</g>
<defs>
<clipPath id="clip0_202_13038">
<rect width="30" height="37" fill="white"/>
</clipPath>
</defs>
</svg>
