<svg width="30" height="37" viewBox="0 0 30 37" fill="none" xmlns="http://www.w3.org/2000/svg">
<g clip-path="url(#clip0_202_11983)">
<path d="M2.5108 6.24841L0.111328 7.44838V28.5089L2.5108 29.7019L2.52523 29.6846V6.26493L2.5108 6.24841Z" fill="#8C3123"/>
<path d="M15.3523 26.6451L2.51074 29.7019V6.24841L15.3523 9.23856V26.6451Z" fill="#E05243"/>
<path d="M9.55566 21.8594L15.0026 22.5528L15.0368 22.4739L15.0674 13.5422L15.0026 13.4724L9.55566 14.1558V21.8594Z" fill="#8C3123"/>
<path d="M15.0029 26.6794L27.4949 29.7084L27.5145 29.6771L27.5142 6.26935L27.4944 6.24841L15.0029 9.27288V26.6794Z" fill="#8C3123"/>
<path d="M20.4514 21.8595L15.0029 22.5529V13.4725L20.4514 14.1559V21.8595Z" fill="#E05243"/>
<path d="M20.4511 10.4305L15.0026 11.4235L9.55566 10.4305L14.9958 9.00464L20.4511 10.4305Z" fill="#5E1F18"/>
<path d="M20.4511 25.5749L15.0026 24.5754L9.55566 25.5749L14.996 27.0936L20.4511 25.5749Z" fill="#F2B0A9"/>
<path d="M9.55566 10.4304L15.0026 9.08249L15.0467 9.06887V0.038857L15.0026 0.00244141L9.55566 2.7264V10.4304Z" fill="#8C3123"/>
<path d="M20.4514 10.4304L15.0029 9.08249V0.00244141L20.4514 2.7264V10.4304Z" fill="#E05243"/>
<path d="M15.0027 36.0024L9.55518 33.2794V25.5754L15.0027 26.9229L15.0829 27.014L15.0611 35.8452L15.0027 36.0024Z" fill="#8C3123"/>
<path d="M15.0029 36.0024L20.451 33.2794V25.5754L15.0029 26.9229V36.0024Z" fill="#E05243"/>
<path d="M27.4946 6.24854L29.8951 7.4485V28.509L27.4946 29.7085V6.24854Z" fill="#E05243"/>
</g>
<defs>
<clipPath id="clip0_202_11983">
<rect width="30" height="37" fill="white"/>
</clipPath>
</defs>
</svg>
