<svg width="30" height="37" viewBox="0 0 30 37" fill="none" xmlns="http://www.w3.org/2000/svg">
<g clip-path="url(#clip0_202_11831)">
<path d="M19.4498 14.9184L26.3777 14.1796L29.9674 14.9249L29.9804 14.9328L23.3619 15.3277L19.4436 14.9249L19.4498 14.9184Z" fill="#5E1F18"/>
<path d="M19.4436 14.925L26.3717 14.3837L26.4193 14.3143L26.4196 5.76666L26.372 5.66895L19.4436 7.47072V14.925Z" fill="#8C3123"/>
<path d="M29.9805 14.933L26.3718 14.3837L26.3721 5.66895L29.9804 7.47435L29.9805 14.933Z" fill="#E05243"/>
<path d="M19.4441 21.0795L19.5453 21.1504L26.3734 21.6137L29.8573 21.1504L29.9808 21.0827L23.3624 20.676L19.4441 21.0795Z" fill="#F2B0A9"/>
<path d="M19.4441 21.0795L26.3734 21.5949L26.3948 21.6237L26.3895 30.2765L26.3724 30.3217L19.4441 28.5342V21.0795Z" fill="#8C3123"/>
<path d="M29.9807 21.0828L26.3733 21.5951L26.3723 30.3218L29.9807 28.5303V21.0828Z" fill="#E05243"/>
<path d="M10.4522 14.9118L3.60297 14.3251L0.0462667 14.9154L0.0236816 14.9331L6.64204 15.3279L10.489 14.9329L10.4522 14.9118Z" fill="#5E1F18"/>
<path d="M0.0236816 14.933L3.59949 14.4095L3.70469 14.3349V5.769L3.59949 5.66895L0.0236816 7.4747V14.933Z" fill="#8C3123"/>
<path d="M10.4889 14.9328L3.59937 14.4095V5.66895L10.4892 7.47072L10.4889 14.9328Z" fill="#E05243"/>
<path d="M10.4887 21.0828L10.3306 21.1981L3.59924 21.7028L0.137406 21.1981L0.0231934 21.0828L6.64179 20.6761L10.4887 21.0828Z" fill="#F2B0A9"/>
<path d="M0.0231934 21.0828L3.59912 21.5906L3.69005 21.702L3.69976 30.1665L3.59924 30.3218L0.0234274 28.5303L0.0231934 21.0828Z" fill="#8C3123"/>
<path d="M10.489 21.0826L3.59937 21.5905L3.59948 30.3217L10.489 28.5342V21.0826Z" fill="#E05243"/>
<path d="M22.1525 22.1966L15.0021 21.4915L7.78052 22.1967L7.88233 22.2828L14.9669 23.4081L22.0505 22.2828L22.1525 22.1966Z" fill="#F2B0A9"/>
<path d="M7.78052 22.1968L14.9669 23.2497L15.0398 23.3472L15.049 35.8637L14.9669 36.0024L7.78052 32.4092V22.1968Z" fill="#8C3123"/>
<path d="M22.1526 22.1965L14.967 23.2496V36.0023L22.1527 32.4091L22.1526 22.1965Z" fill="#E05243"/>
<path d="M15.0021 14.5051L7.78052 13.8079L7.79912 13.7972L14.9665 12.6853L22.1308 13.7998L22.1526 13.8079L15.0021 14.5051Z" fill="#5E1F18"/>
<path d="M7.78052 13.808L14.9669 12.7608L15.0013 12.7294L14.9854 0.0217499L14.9669 0.00244141L7.78052 3.59604V13.808Z" fill="#8C3123"/>
<path d="M22.1527 13.808L14.967 12.7608V0.00244141L22.1527 3.59604V13.808Z" fill="#E05243"/>
</g>
<defs>
<clipPath id="clip0_202_11831">
<rect width="30" height="37" fill="white"/>
</clipPath>
</defs>
</svg>
