<svg width="30" height="37" viewBox="0 0 30 37" fill="none" xmlns="http://www.w3.org/2000/svg">
<g clip-path="url(#clip0_202_12032)">
<path d="M29.9148 11.6774L29.4357 11.6694L15.0135 7.3995L15.0049 7.20191V0.00244141L29.9158 7.45938L29.9148 11.6774Z" fill="#D9A741"/>
<path d="M15.0033 7.63344L15.0048 0.00244141L0.0928009 7.45647L0.0908203 28.5454L0.0982766 28.5491V28.5494L15.0018 36.0024L15.0513 35.9336L15.0321 28.8419L15.0028 28.8024L14.0713 28.1381L2.5374 24.7012L2.59565 11.3616L15.0033 7.63344Z" fill="#876929"/>
<path d="M17.2331 22.7555L1.99561 24.899L1.99665 11.103L17.2342 13.2495L17.2331 22.7555Z" fill="#D9A741"/>
<path d="M9.51172 21.8834L15.0028 22.5824L15.0037 13.4185L9.51277 14.1169L9.51172 21.8834Z" fill="#876929"/>
<path d="M3.98047 21.1795L7.54397 21.6325L7.54502 14.3669L3.98047 14.821V21.1795Z" fill="#876929"/>
<path d="M1.99658 11.1029L15.0046 7.2019L29.9145 11.6774L17.2435 13.2504L1.99658 11.1029Z" fill="#624A1E"/>
<path d="M29.9074 20.6674L15.0029 22.5484L15.0039 13.4185L29.9074 15.317V20.6674Z" fill="#D9A741"/>
<path d="M29.9064 24.3323L29.5857 24.3461L15.0488 28.7465L15.003 28.8023L15.002 36.0023L29.9064 28.5518V24.3323Z" fill="#D9A741"/>
<path d="M1.99561 24.8989L15.0027 28.8024L29.9061 24.3324L17.2331 22.7554L1.99561 24.8989Z" fill="#FAD791"/>
</g>
<defs>
<clipPath id="clip0_202_12032">
<rect width="30" height="37" fill="white"/>
</clipPath>
</defs>
</svg>
