<svg width="30" height="37" viewBox="0 0 30 37" fill="none" xmlns="http://www.w3.org/2000/svg">
<g clip-path="url(#clip0_202_11772)">
<path d="M2.11987 24.8998L2.37124 25.1852L15.0683 28.7843L15.1259 26.5533L6.23334 24.3218L5.79818 24.1648L2.11987 24.8998Z" fill="#B7CA9D"/>
<path d="M27.8822 24.9L14.9148 29.2284L14.8762 26.5535L23.7686 24.3219L24.1562 23.8857L27.8822 24.9Z" fill="#B7CA9D"/>
<path d="M14.8762 9.60953L23.7686 11.682L27.6795 11.4965L27.8822 11.1046L15.4924 6.64478L14.8762 9.60953Z" fill="#3C4929"/>
<path d="M6.23356 24.3219L2.12009 24.8999L2.00562 24.4729V11.5542L2.12009 11.1045L5.83699 11.3809L6.23356 11.6824V24.3219Z" fill="#759C3E"/>
<path d="M15.1259 9.60945L6.23334 11.682L2.11987 11.1045L2.2749 10.8611L15.0683 7.21997L15.1259 9.60945Z" fill="#3C4929"/>
<path d="M14.9835 0.00244141L0.215088 7.4569L0.222134 28.5519L14.9835 36.0024L15.2035 35.6685V0.435632L14.9835 0.00244141ZM10.665 27.4644L2.12009 24.8999V11.1045L10.665 8.54092V27.4644Z" fill="#4B612C"/>
<path d="M23.7683 24.3219L27.8819 24.8999L28.1123 24.4922V11.4964L27.8819 11.1045L23.7683 11.6824V24.3219Z" fill="#4B612C"/>
<path d="M14.9836 36.0024L29.7806 28.5524L29.7877 7.45748L14.9836 0.00244141V36.0024ZM19.3372 8.54092L27.8822 11.1045V24.8999L19.3372 27.4644V8.54092Z" fill="#759C3E"/>
</g>
<defs>
<clipPath id="clip0_202_11772">
<rect width="30" height="37" fill="white"/>
</clipPath>
</defs>
</svg>
