<svg width="31" height="37" viewBox="0 0 31 37" fill="none" xmlns="http://www.w3.org/2000/svg">
<g clip-path="url(#clip0_202_11867)">
<path d="M0.0983887 24.331L15.0021 36.0024L29.9059 24.331L15.0016 22.478L0.0983887 24.331Z" fill="#99BCE3"/>
<path d="M15.0022 0.00244141L0.00219727 11.6733L14.9055 13.5264L30.0022 11.6739L15.0022 0.00244141Z" fill="#19486F"/>
<path d="M15.0022 0.00244141L0.00219727 7.45451V11.6739L15.0022 7.20256V0.00244141Z" fill="#1F5B99"/>
<path d="M0.00219727 28.5503L15.0022 36.0024V28.8021L0.00219727 24.3315V28.5503Z" fill="#1F5B99"/>
<path d="M15.0022 23.4462L8.5022 22.4941V13.5835L15.0022 12.646L15.1556 12.9427L15.1395 23.1496L15.0022 23.4462Z" fill="#1F5B99"/>
<path d="M15.0022 0.00244141V7.20256L30.0022 11.6739V7.45451L15.0022 0.00244141Z" fill="#5294CF"/>
<path d="M15.0022 28.8021V36.0024L30.0022 28.5503V24.3315L15.0022 28.8021Z" fill="#5294CF"/>
<path d="M15.0022 23.4462L21.5022 22.4941V13.5835L15.0022 12.646V23.4462Z" fill="#5294CF"/>
</g>
<defs>
<clipPath id="clip0_202_11867">
<rect width="31" height="37" fill="white"/>
</clipPath>
</defs>
</svg>
