<svg width="30" height="37" viewBox="0 0 30 37" fill="none" xmlns="http://www.w3.org/2000/svg">
<g clip-path="url(#clip0_202_11964)">
<path d="M0.104248 20.0994L0.218893 20.16L2.02179 20.365L4.28617 20.2392L4.3858 20.1868L2.37608 20.012L0.104248 20.0994Z" fill="#B6C99C"/>
<path d="M15.0023 0.00244141L8.71118 3.14802V23.3427L15.0023 24.4969L15.2177 24.2059V0.520497L15.0023 0.00244141Z" fill="#4C612C"/>
<path d="M15.0022 0.00244141V25.3407L21.2935 23.4621V3.14802L15.0022 0.00244141Z" fill="#769B3F"/>
<path d="M25.6189 20.1869L25.7262 20.2594L27.9771 20.3844L29.7993 20.1774L29.9005 20.0995L27.6286 20.0122L25.6189 20.1869Z" fill="#B6C99C"/>
<path d="M25.6189 24.3812L27.9781 24.687L28.0413 24.5709V20.451L27.9781 20.3181L25.6189 20.187V24.3812Z" fill="#4C612C"/>
<path d="M4.38562 24.3812L2.02638 24.687L1.98657 24.5793V20.3891L2.02638 20.3181L4.38562 20.187V24.3812Z" fill="#769B3F"/>
<path d="M14.7402 24.2062L4.29844 22.3713L2.02661 22.5897L2.12997 22.6934L12.0491 24.7029L12.1625 24.6432L14.7402 24.2062Z" fill="#B6C99C"/>
<path d="M0.104248 22.1967V28.5317L10.546 33.7679V33.7744L15.0023 36.0026L15.1885 35.653V21.8201L15.0023 21.384L10.546 20.9472V24.3096L2.02656 22.5857V20.3181L0.104248 20.0996V22.1967Z" fill="#4C612C"/>
<path d="M15.0022 24.25L17.5361 24.6869L17.8625 24.7007L27.7889 22.707L27.9779 22.5898L25.7497 22.3713L15.0022 24.25Z" fill="#B6C99C"/>
<path d="M27.9779 20.318V22.5856L19.4586 24.3095V20.7985L15.0022 21.2355V35.6529V36.0024L29.9002 28.5315V20.0995L27.9779 20.318Z" fill="#769B3F"/>
<path d="M19.4588 21.1481L15.0025 20.7986L10.5461 21.1481L15.0025 21.585L19.4588 21.1481Z" fill="#B6C99C"/>
</g>
<defs>
<clipPath id="clip0_202_11964">
<rect width="30" height="37" fill="white"/>
</clipPath>
</defs>
</svg>
