<svg width="30" height="37" viewBox="0 0 30 37" fill="none" xmlns="http://www.w3.org/2000/svg">
<g clip-path="url(#clip0_202_11744)">
<path d="M4.30198 30.5023L0.102051 28.5023V7.45238L4.30198 5.35242L4.31723 5.37418L4.34517 30.4598L4.30198 30.5023Z" fill="#4B612C"/>
<path d="M19.7018 26.3524L4.30176 30.5024V5.35254L19.7018 9.55247V26.3524Z" fill="#759C3E"/>
<path d="M7.05225 14.4523L15.0022 13.4524L15.1963 13.6219V22.1583L15.0022 22.4523L7.05225 21.5023V14.4523Z" fill="#4B612C"/>
<path d="M29.9022 12.7524L22.6522 13.5024L7.05225 11.0025L14.9052 8.44189L29.9022 12.7524Z" fill="#3C4929"/>
<path d="M29.9022 23.2523L22.6522 22.5024L7.05225 25.0024L15.4873 27.1445L29.9022 23.2523Z" fill="#B7CA9D"/>
<path d="M7.05225 32.0024L15.0022 36.0025L15.3383 27.0895L7.05225 25.0024V32.0024Z" fill="#4B612C"/>
<path d="M29.9019 28.5524L15.002 36.0024V27.0023L29.9019 23.2523V28.5524Z" fill="#759C3E"/>
<path d="M7.05225 3.95245L15.0022 0.00244141L15.0598 0.0836929L15.0354 8.94756L15.0022 9.00238L7.05225 11.0025V3.95245Z" fill="#4B612C"/>
<path d="M29.9019 20.6024L15.002 22.4525V13.4525L29.9019 15.3525V20.6024Z" fill="#759C3E"/>
<path d="M29.9019 12.7524L15.002 9.00238V0.00244141L29.9019 7.45244V12.7524Z" fill="#759C3E"/>
</g>
<defs>
<clipPath id="clip0_202_11744">
<rect width="30" height="37" fill="white"/>
</clipPath>
</defs>
</svg>
