<svg width="36" height="37" viewBox="0 0 36 37" fill="none" xmlns="http://www.w3.org/2000/svg">
<g clip-path="url(#clip0_202_12349)">
<path d="M13.9158 32.5698L10.2058 31.5301L6.69678 27.5288L11.086 27.4077L13.9158 32.5698Z" fill="#995B80"/>
<path d="M5.33629 29.9311L3.2485 29.3464L1.27539 27.0959L3.67294 26.7017L5.33629 29.9311Z" fill="#995B80"/>
<path d="M0.0380859 26.8125L2.17205 27.2463L2.48181 26.7015V8.21345L2.17205 7.854L0.0380859 9.0692V26.8125Z" fill="#7B3F65"/>
<path d="M10.4152 9.78613L2.17285 7.854V27.2463L3.4077 27.1315L5.33674 29.9306L6.82451 26.814L10.4152 26.4803V9.78613Z" fill="#C17B9D"/>
<path d="M4.8042 27.8112L8.46228 28.548L8.70313 27.9803V5.25708L8.46228 4.74268L4.8042 6.59649V27.8112Z" fill="#7B3F65"/>
<path d="M29.3351 11.4434L8.4624 4.74268V28.5486L10.8795 28.2376L13.9158 32.5692L16.3195 27.5375L29.3351 25.8626V11.4434Z" fill="#C17B9D"/>
<path d="M25.5592 36.0022L20.2866 34.525L15.3027 28.8406L21.7637 28.7749L25.5592 36.0022Z" fill="#995B80"/>
<path d="M12.6128 29.3297L17.9926 30.3707L18.4104 30.0105V0.580284L17.9926 0.00244141L12.6128 2.69137V29.3297Z" fill="#7B3F65"/>
<path d="M35.9692 8.98981L17.9932 0.00244141V30.3707L21.1648 29.7352L25.5594 36.0024L29.3351 28.0992L29.3327 28.0989L35.9692 26.7693V8.98981Z" fill="#C17B9D"/>
</g>
<defs>
<clipPath id="clip0_202_12349">
<rect width="36" height="37" fill="white"/>
</clipPath>
</defs>
</svg>
