<svg width="22" height="41" viewBox="0 0 22 41" fill="none" xmlns="http://www.w3.org/2000/svg">
<g clip-path="url(#clip0_202_11900)">
<path d="M2.26789 13.5322L0.553711 14.0919L2.32911 14.2975L2.26789 13.5322Z" fill="#3C4929"/>
<path d="M2.18262 16.8835L11.0021 17.4474L19.8215 16.8835L11.0021 15.1648L2.18262 16.8835Z" fill="#3C4929"/>
<path d="M19.6953 14.2975L21.4503 14.0918L19.6953 13.624V14.2975Z" fill="#3C4929"/>
<path d="M13.4009 28.8112L18.0215 29.9046L13.3887 31.3018L13.4009 28.8112Z" fill="#B7CA9D"/>
<path d="M2.18259 7.53023V4.41189L11.0021 0.00244141L11.0414 0.0355006L11.0212 3.99412L11.0021 4.00244L10.969 4.09362L6.14496 6.04093L6.10072 12.9007L8.66807 12.4689L11.0021 12.0019V40.0024L8.35985 38.6819V34.9458L6.04537 34.0203V16.4969L2.18259 16.8835V13.7658L0.553711 14.0919V8.18137L2.18259 7.53023Z" fill="#4B612C"/>
<path d="M8.66819 12.4692L6.04541 12.9936V5.98413L8.66819 6.80188V12.4692Z" fill="#759C3E"/>
<path d="M15.567 2.28467L19.8203 4.41189V7.53023L21.4503 8.18137V14.0914L19.8203 13.7658V16.8835L17.7436 16.6764L15.9575 16.4969V20.0019H19.8214V23.2085L18.0258 23.3697V26.603L13.6431 27.4741V31.2102L18.0159 29.9124L18.0258 33.2086L13.6431 34.9458V38.6819L11.002 40.0024V12.0019L13.3342 12.468L15.8306 12.7976V6.04011L11.0686 4.20365L11.002 4.00244V0.00244141L15.567 2.28467Z" fill="#759C3E"/>
<path d="M13.6432 5.05858L11.0021 4.00305L6.04541 5.98415L8.66819 6.8019L13.6432 5.05858Z" fill="#3C4929"/>
<path d="M6.04541 5.98415L11.0021 4.00305L12.0449 4.41968L13.6432 5.05858L15.9576 5.9853L15.834 6.11109L13.4769 6.845L13.3348 6.8019L11.0021 5.98415L8.66819 6.8019L6.04541 5.98415Z" fill="#3C4929"/>
<path d="M13.335 6.80195L15.9577 5.98535V12.9942L13.335 12.4681V6.80195Z" fill="#4B612C"/>
</g>
<defs>
<clipPath id="clip0_202_11900">
<rect width="22" height="41" fill="white"/>
</clipPath>
</defs>
</svg>
