<svg width="32" height="37" viewBox="0 0 32 37" fill="none" xmlns="http://www.w3.org/2000/svg">
<g clip-path="url(#clip0_202_11957)">
<path d="M7.87081 5.74243L0.568848 17.3675L7.87081 28.9945L7.99815 28.9037L7.9047 5.76631L7.87081 5.74243Z" fill="#876929"/>
<path d="M16.0257 26.9049L7.87061 28.9945V5.74243L16.0257 7.83152V26.9049Z" fill="#D9A741"/>
<path d="M31.4351 8.66843L27.5041 9.31849L18.4796 0.00244141L13.9931 1.96696L14.585 3.07065L11.4097 4.3399V33.6929L16.0255 36.0024L16.1024 35.9423L16.0313 5.76843L25.8156 20.5962L31.4351 8.66843Z" fill="#876929"/>
<path d="M18.48 0.00244141L30.4995 6.01189L25.7465 14.6359L18.48 0.00244141Z" fill="#D9A741"/>
<path d="M31.4349 8.66833L31.4379 28.2904L16.026 36.0023L16.0239 2.49634L25.7465 20.1364L31.4349 8.66833Z" fill="#D9A741"/>
</g>
<defs>
<clipPath id="clip0_202_11957">
<rect width="32" height="37" fill="white"/>
</clipPath>
</defs>
</svg>
