<svg width="30" height="37" viewBox="0 0 30 37" fill="none" xmlns="http://www.w3.org/2000/svg">
<g clip-path="url(#clip0_202_11699)">
<path d="M0.101318 28.5524L2.0013 29.5024L2.31304 28.9489V6.90916L2.0013 6.50244L0.101318 7.45243V28.5524Z" fill="#9D5025"/>
<path d="M5.65125 7.40238L2.00122 6.50244V29.5024L5.65125 28.6524V7.40238Z" fill="#F68536"/>
<path d="M16.8513 9.15245L19.4512 7.80249L28.1013 11.1524L25.8013 11.4524L16.8513 9.15245Z" fill="#6B3A19"/>
<path d="M16.9514 26.8526L19.5014 28.2025L28.1513 24.8526L25.8514 24.5525L16.9514 26.8526Z" fill="#FBBF93"/>
<path d="M17.6013 23.1524L22.1513 23.7524L22.4125 23.2837V12.8071L22.1513 12.2524L17.6013 12.8524V23.1524Z" fill="#9D5025"/>
<path d="M4.25122 5.35253L7.05125 3.95251L7.35717 4.54234V31.4322L7.05125 32.0525L4.25122 30.6525V5.35253Z" fill="#9D5025"/>
<path d="M12.7512 30.1525L7.05127 32.0024V3.95251L12.7512 5.80256V30.1525Z" fill="#F68536"/>
<path d="M10.5513 33.7524L15.0012 36.0024L15.4669 35.4676V0.662115L15.0012 0.00244141L10.5513 2.25246V33.7524Z" fill="#9D5025"/>
<path d="M25.7012 11.4523L28.0012 11.1523L28.1988 11.4393V24.5641L28.0012 24.9024L25.7012 24.6024V11.4523Z" fill="#9D5025"/>
<path d="M22.1514 12.2524V23.8024L26.9013 18.0024L22.1514 12.2524Z" fill="#F68536"/>
<path d="M28.0012 6.50244L15.0012 0.00244141V36.0024L29.9012 28.5524V7.45244L28.0012 6.50244ZM28.0012 24.9199L19.4512 27.4734V8.53152L28.0012 11.085V24.9199Z" fill="#F68536"/>
</g>
<defs>
<clipPath id="clip0_202_11699">
<rect width="30" height="37" fill="white"/>
</clipPath>
</defs>
</svg>
