<svg width="32" height="37" viewBox="0 0 32 37" fill="none" xmlns="http://www.w3.org/2000/svg">
<g clip-path="url(#clip0_202_12045)">
<path d="M20.6516 36.0024H21.0893L28.2345 32.4294L28.3535 32.2613V3.74144L28.2345 3.57248L21.0893 0.00244141H20.6462L20.6516 36.0024Z" fill="#5294CF"/>
<path d="M11.3528 36.0024H10.909L3.76988 32.4294L3.62501 32.1802L3.55151 3.88668L3.76988 3.57248L10.909 0.00244141H11.3583L11.3528 36.0024Z" fill="#1F5B98"/>
<path d="M10.9216 0.00244141H21.0822V36.0024H10.9216V0.00244141Z" fill="#2D72B8"/>
<path d="M31.9745 17.1937L31.733 17.1402L28.2855 16.8187L28.2343 16.8442L21.0828 16.5582H10.9217L3.77002 16.8442V11.3907L3.76254 11.3947L3.77002 11.3787L10.9217 9.72156H21.0828L28.2343 11.3787L30.8634 12.7761V11.8777L31.9745 11.7561L31.8594 11.5318L28.3415 9.01629L28.2343 9.0511L21.0828 6.83508H10.9217L3.77002 9.0511V3.57251L0.0300293 7.95401V11.7806L0.0589789 11.7596L1.1411 11.8777V12.7946L0.0300293 13.3892V17.1967L0.0589789 17.1937L1.1411 17.2097V18.8078L0.207471 18.8217L0.0300293 18.8048V22.6138L1.1411 23.2112V24.1387L0.0765733 24.2563L0.0300293 24.2213V28.0473L3.77002 32.4294V26.9513L10.9217 29.1674H21.0828L28.2554 26.9449L28.3508 26.9867L31.8223 24.5082L31.9745 24.2613L30.8634 24.1387V23.2298L30.7178 23.1717L28.3415 24.4526L28.2554 24.6322L21.0828 26.2798V26.2818H10.9217V26.2798L3.77002 24.6253V19.1518L10.9217 19.4368V19.4438H21.0828L28.2343 19.1518L28.3972 19.2267L31.7387 18.9389L31.9745 18.8237L30.8634 18.8078V17.2097L31.9745 17.1937Z" fill="#1A476F"/>
<path d="M28.2341 26.9514V32.4295L31.9743 28.0474V24.2463L28.2557 26.9449L28.2341 26.9514Z" fill="#2D72B8"/>
<path d="M28.2341 24.6373L28.2557 24.6324L31.9743 22.6323V18.8079L28.2341 19.1519V24.6373Z" fill="#2D72B8"/>
<path d="M28.2557 11.3837L28.2341 11.3787V16.8442L31.9743 17.1937V13.3711L28.2557 11.3837Z" fill="#2D72B8"/>
<path d="M28.2557 9.07257L31.9743 11.7561V7.95501L28.2341 3.57251V9.0511L28.2557 9.05859V9.07257Z" fill="#2D72B8"/>
</g>
<defs>
<clipPath id="clip0_202_12045">
<rect width="32" height="37" fill="white"/>
</clipPath>
</defs>
</svg>
