<svg width="30" height="37" viewBox="0 0 30 37" fill="none" xmlns="http://www.w3.org/2000/svg">
<g clip-path="url(#clip0_202_12007)">
<path d="M29.8367 18.5233L29.9304 18.021H27.5245L23.3975 30.0133L25.7488 30.648L25.9616 30.3775L29.8367 18.5233Z" fill="#4B612C"/>
<path d="M29.9302 18.021V28.5754L25.7388 30.6725L29.9302 18.021Z" fill="#759C3E"/>
<path d="M4.00314 30.2733L0.169816 18.5233L0.0761719 18.021H2.39907L6.56103 30.0265L4.25865 30.648L4.00314 30.2733Z" fill="#759C3E"/>
<path d="M15.0036 25.3415L8.75317 17.0649L4.32812 5.35095L15.0036 8.24598L15.1698 8.64831L15.2532 24.6066L15.0036 25.3415Z" fill="#759C3E"/>
<path d="M15.0034 25.3416L21.4717 16.8463L25.6784 5.35107L15.0034 8.2461V25.3416Z" fill="#4B612C"/>
<path d="M29.93 11.7506V7.44401L25.6785 5.35107L15.0034 25.3416V36.0025L22.8999 32.0546L29.93 11.7506Z" fill="#759C3E"/>
<path d="M15.0038 18.021L15.0455 17.9236L15.0605 0.0555023L15.0038 0.00244141L7.13281 3.94597L15.0038 18.021Z" fill="#4B612C"/>
<path d="M0.0761719 18.021V28.5754L4.26821 30.6725L0.0761719 18.021Z" fill="#4B612C"/>
<path d="M15.0034 18.021V0.00244141L22.8739 3.94597L15.0034 18.021Z" fill="#759C3E"/>
<path d="M0.0761719 11.7504V7.44388L4.32816 5.35095L15.0037 25.3415V36.0024L7.10715 32.0545L0.0761719 11.7504Z" fill="#4B612C"/>
</g>
<defs>
<clipPath id="clip0_202_12007">
<rect width="30" height="37" fill="white"/>
</clipPath>
</defs>
</svg>
