<svg width="32" height="37" viewBox="0 0 32 37" fill="none" xmlns="http://www.w3.org/2000/svg">
<g clip-path="url(#clip0_202_11719)">
<path d="M31.9115 24.7748L16.0073 22.4385L0.0922852 24.7778L16.0032 30.6742L31.9115 24.7748Z" fill="#B7CA9D"/>
<path d="M3.27686 24.5024L5.96533 25.3428L6.21032 25.0646V6.25245L5.96533 5.93115L3.27686 6.95956V24.5024Z" fill="#4B612C"/>
<path d="M15.4839 23.6709L5.96533 25.3427V5.93164L15.4839 8.07223V23.6709Z" fill="#759C3E"/>
<path d="M11.2397 26.9604L7.52979 25.8168V1.85789L11.2397 0.00292969L11.5644 0.356546V26.5649L11.2397 26.9604Z" fill="#4B612C"/>
<path d="M23.9527 23.978L11.2397 26.9604V0.00244141L23.9527 4.95754V23.978Z" fill="#759C3E"/>
<path d="M15.9976 30.4189L0.0922852 24.7778V28.0497L15.9976 36.0024V30.4189Z" fill="#4B612C"/>
<path d="M31.9115 28.0458L15.9976 36.0024V30.4188L31.9115 24.7748V28.0458Z" fill="#759C3E"/>
<path d="M27.4418 19.354H23.5855L12.5923 20.103L16.0019 20.7316L27.4418 19.354Z" fill="#B7CA9D"/>
<path d="M12.5923 27.3354L16.0004 28.3579L16.0985 28.2524L16.0956 20.5649L15.9976 20.4707L12.5923 20.103V27.3354Z" fill="#4B612C"/>
<path d="M27.4418 19.354L15.9976 20.4702L16.0004 28.3579L27.4418 24.9135V19.354Z" fill="#759C3E"/>
</g>
<defs>
<clipPath id="clip0_202_11719">
<rect width="32" height="37" fill="white"/>
</clipPath>
</defs>
</svg>
