<svg width="30" height="37" viewBox="0 0 30 37" fill="none" xmlns="http://www.w3.org/2000/svg">
<g clip-path="url(#clip0_202_12984)">
<path d="M0.0524902 20.1011L14.9734 26.9698L29.8941 20.1011L14.9734 19.4829L0.0524902 20.1011Z" fill="#FCBF92"/>
<path d="M15.0193 0.00244141L0.0593262 7.46338V17.9908H17.9977V1.49169L15.0193 0.00244141Z" fill="#9D5025"/>
<path d="M0.0593262 25.4121L15.028 36.0024L29.9518 25.4121L14.9957 23.2358L0.0593262 25.4121Z" fill="#FCBF92"/>
<path d="M15.0193 17.9907H22.9119V6.75731L20.6072 5.83545L15.0193 7.46531V17.9907Z" fill="#9D5025"/>
<path d="M20.6072 17.9907H26.7077V10.7045L24.9627 10.1812L20.6072 10.9205V17.9907Z" fill="#9D5025"/>
<path d="M24.9626 9.60995V17.9908H29.8942L29.9519 9.5727L28.4539 8.97424L24.9626 9.60995Z" fill="#9D5025"/>
<path d="M15.0193 0.00244141V17.9908H17.9977V1.49169L15.0193 0.00244141Z" fill="#F68534"/>
<path d="M22.9119 6.75742L20.6072 5.83545V17.9908H22.9119V6.75742Z" fill="#F68534"/>
<path d="M26.7077 10.7045L24.9626 10.1812V17.9907H26.7077V10.7045Z" fill="#F68534"/>
<path d="M28.4539 17.9908H29.9519V9.5727L28.4539 8.97424V17.9908Z" fill="#F68534"/>
<path d="M14.9734 21.5932V26.9696L29.8941 23.2504V20.1011L14.9734 21.5932Z" fill="#F68534"/>
<path d="M14.9734 30.6938V36.0024L29.9517 28.5136V25.4121L14.9734 30.6938Z" fill="#F68534"/>
<path d="M0.0593262 28.5459L14.9735 36.0024V30.6549L0.0593262 25.4121V28.5459Z" fill="#9D5025"/>
<path d="M0.0524902 23.2504L14.9734 26.9697V21.5932L0.0524902 20.1011V23.2504Z" fill="#9D5025"/>
</g>
<defs>
<clipPath id="clip0_202_12984">
<rect width="30" height="37" fill="white"/>
</clipPath>
</defs>
</svg>
