<svg width="30" height="37" viewBox="0 0 30 37" fill="none" xmlns="http://www.w3.org/2000/svg">
<g clip-path="url(#clip0_202_11912)">
<path d="M8.69897 32.8519L14.9995 36.0024L15.6149 35.5433L15.3559 0.421489L14.9995 0.00244141L8.69897 3.15298V32.8519Z" fill="#9D5025"/>
<path d="M21.2998 32.8519L14.9993 36.0024V0.00244141L21.2998 3.15298V32.8519Z" fill="#F68536"/>
<path d="M12.6239 13.1065L10.4129 13.4284L0.095459 12.266L0.139134 12.1515L1.81334 11.6492L1.99142 11.75L2.03172 11.6492L12.5574 12.8794L12.6239 13.1065Z" fill="#6B3A19"/>
<path d="M0.095459 7.45497L1.99142 6.50647V11.75L0.095459 12.266V7.45497Z" fill="#9D5025"/>
<path d="M29.9108 15.2669L19.3518 15.834L17.3748 15.6984L17.7472 15.5435L28.04 14.9539L29.9108 15.2669Z" fill="#6B3A19"/>
<path d="M12.6239 13.1065L1.99146 11.75V6.50647L12.6239 9.00049V13.1065Z" fill="#F68536"/>
<path d="M28.0072 9.57886L17.3748 11.4063V15.6984L28.0072 15.0604L28.0691 14.9392L28.0473 9.67646L28.0072 9.57886Z" fill="#9D5025"/>
<path d="M29.9111 15.2669L28.0076 15.0194V9.57886L29.9111 10.2759V15.2669Z" fill="#F68536"/>
</g>
<defs>
<clipPath id="clip0_202_11912">
<rect width="30" height="37" fill="white"/>
</clipPath>
</defs>
</svg>
