<svg width="30" height="37" viewBox="0 0 30 37" fill="none" xmlns="http://www.w3.org/2000/svg">
<g clip-path="url(#clip0_202_13008)">
<path d="M5.07387 28.4785L1.58936 29.2735V6.70703L5.07387 7.50356V28.4785Z" fill="#F68536"/>
<path d="M9.42127 29.8104L5.07373 31.0459V4.96545L9.42127 6.19944V29.8104Z" fill="#F68536"/>
<path d="M14.9984 31.179L9.42139 33.22V2.7915L14.9984 4.83157V31.179Z" fill="#F68536"/>
<path d="M29.91 28.5465L14.998 36.0024V0.00244141L29.91 7.45842V28.5465Z" fill="#F68536"/>
<path d="M12.0259 1.48893L14.9984 0.00244141V36.0024L12.0259 34.5164V1.48893Z" fill="#9D5025"/>
<path d="M7.12012 3.94149L9.42119 2.79102V33.214L7.12012 32.0636V3.94149Z" fill="#9D5025"/>
<path d="M3.24072 5.88146L5.07371 4.96497V31.04L3.24072 30.1229V5.88146Z" fill="#9D5025"/>
<path d="M1.58923 6.70691L0.0942383 7.45441V28.5508L1.58923 29.2979V6.70691Z" fill="#9D5025"/>
</g>
<defs>
<clipPath id="clip0_202_13008">
<rect width="30" height="37" fill="white"/>
</clipPath>
</defs>
</svg>
