<svg width="30" height="37" viewBox="0 0 30 37" fill="none" xmlns="http://www.w3.org/2000/svg">
<g clip-path="url(#clip0_202_11681)">
<path d="M14.9142 6.71411L3.00811 10.6959L2.91455 22.0695L5.34085 21.5305V11.0889L15.0013 8.56083L24.6618 11.0889V21.5305L27.1607 22.0695L27.1652 10.5826L14.9142 6.71411Z" fill="#876929"/>
<path d="M26.8925 21.705L24.6619 21.5305L15.0014 22.8445L5.34094 21.5305L3.11035 21.705L15.0431 24.0858L26.8925 21.705Z" fill="#FAD791"/>
<path d="M15.1682 23.9087L15.0015 23.5585L3.11104 21.7048V10.7528L15.0015 7.18547L15.1188 7.02067V0.226279L15.0015 0.00244141L0.125488 7.44046V25.4475L10.552 29.1584V33.763L15.0115 36.0024L15.1474 35.6171L15.1682 23.9087Z" fill="#876929"/>
<path d="M15.0017 0.00244141V7.18547L26.8922 10.7528V21.7048L15.0017 23.5585V25.142L14.9917 25.144V36.0024L19.4513 33.763V29.1584L29.8777 25.4475V7.44046L15.0017 0.00244141Z" fill="#D9A741"/>
</g>
<defs>
<clipPath id="clip0_202_11681">
<rect width="30" height="37" fill="white"/>
</clipPath>
</defs>
</svg>
