<svg width="36" height="36" viewBox="0 0 36 36" fill="none" xmlns="http://www.w3.org/2000/svg">
<g clip-path="url(#clip0_202_12618)">
<path d="M17.9819 0.000396729C18.0201 0.000396729 18.0582 0.0480993 18.1155 0.133965C18.1632 0.21029 22.1798 5.02831 27.0455 10.8385C31.9112 16.6488 35.8801 21.4286 35.861 21.4573C35.8515 21.4859 31.978 24.6629 27.2554 28.5078C22.5328 32.3527 18.5162 35.6251 18.3349 35.7777C18.0201 36.0353 18.001 36.0449 17.8865 35.9304C17.8197 35.8636 13.7936 32.5721 8.93739 28.6127C4.08122 24.6534 0.121857 21.3905 0.140938 21.3428C0.160019 21.2951 4.148 16.5343 9.02326 10.7527C13.8985 4.97106 17.8865 0.191209 17.9056 0.114884C17.9247 0.0385589 17.9533 0.000396729 17.9819 0.000396729Z" fill="#00BEF2"/>
<path d="M17.3235 30.2728C16.7702 30.0724 16.1023 29.5 15.8257 28.9657C15.4822 28.3074 15.5108 27.277 15.8925 26.4565C16.1882 25.8459 16.1882 25.8269 15.9974 25.6838C15.8925 25.6074 14.6236 24.9014 13.1925 24.1286C11.7614 23.3558 10.5115 22.6785 10.4257 22.6308C10.3112 22.564 10.1204 22.6308 9.77691 22.8502C8.66066 23.5562 7.4967 23.4799 6.5808 22.6308C5.9225 22.0202 5.73169 21.5908 5.73169 20.7131C5.73169 19.864 5.90342 19.4251 6.44724 18.8813C7.18186 18.1467 8.16455 17.8986 9.10907 18.2134C9.62426 18.3852 9.6338 18.3852 9.95819 18.1371C10.3398 17.8509 13.4024 15.0555 14.8811 13.653L15.902 12.6799L15.5967 12.0407C14.9766 10.7527 15.2914 9.32158 16.379 8.46292C16.9705 7.99543 17.4094 7.85233 18.2585 7.85233C20.243 7.85233 21.6264 9.93218 20.8822 11.7926C20.6818 12.3078 20.6818 12.3173 20.8727 12.6322C21.0349 12.9089 23.7921 16.2385 25.2518 17.9368C25.5094 18.2325 25.7956 18.471 25.891 18.471C25.9864 18.471 26.3108 18.3756 26.6161 18.2611C28.0377 17.6983 29.5355 18.3279 30.1271 19.7399C30.5087 20.6463 30.1748 21.8675 29.3638 22.6021C28.7914 23.1173 28.3716 23.2795 27.6083 23.2795C27.0741 23.2795 26.8737 23.2223 26.3108 22.917C25.891 22.688 25.5666 22.5735 25.4331 22.6117C25.2041 22.6689 21.6836 25.0827 20.9013 25.7124C20.4243 26.1035 20.3861 26.2467 20.6341 26.8286C20.8727 27.4011 20.844 28.2979 20.5769 28.8608C20.2811 29.4809 19.5465 30.1011 18.9073 30.2919C18.2585 30.4731 17.8674 30.4731 17.3235 30.2728ZM17.4857 19.759V14.3209L17.1804 13.9011C17.0087 13.6721 16.8465 13.4813 16.8179 13.4813C16.6939 13.4813 10.5306 19.0816 10.5306 19.1961C10.5306 19.2248 10.626 19.511 10.7405 19.8163C10.855 20.1311 10.9409 20.5795 10.9313 20.8371C10.9218 21.0947 10.9218 21.3809 10.9218 21.4763C10.9313 21.6958 12.9921 23.0124 16.0833 24.7965C16.9324 25.2926 17.2281 25.4166 17.3331 25.3307C17.4571 25.2258 17.4857 24.1668 17.4857 19.759ZM20.0999 24.5675C24.1833 22.0011 24.9465 21.4859 24.9942 21.2951C25.0228 21.1806 25.061 20.7322 25.0705 20.2838L25.0992 19.4823L23.0193 17.0113C20.7868 14.3686 19.9663 13.4718 19.7755 13.4718C19.7087 13.4718 19.3748 13.6626 19.0313 13.8915L18.4016 14.3113L18.4303 19.7399C18.4589 24.6057 18.497 25.4262 18.6783 25.4262C18.6974 25.4357 19.3462 25.0445 20.0999 24.5675Z" fill="white"/>
</g>
<defs>
<clipPath id="clip0_202_12618">
<rect width="36" height="36.0004" fill="white"/>
</clipPath>
</defs>
</svg>
