<svg width="36" height="28" viewBox="0 0 36 28" fill="none" xmlns="http://www.w3.org/2000/svg">
<g clip-path="url(#clip0_202_12626)">
<path d="M16.6555 26.4534C21.2806 25.6363 25.1008 24.9602 25.1446 24.9509L25.2244 24.934L20.8578 19.74C18.4562 16.8834 16.4912 14.535 16.4912 14.5215C16.4912 14.4959 21.0001 2.07933 21.0254 2.03513C21.0339 2.02039 24.1023 7.31797 28.4635 14.8768C32.5465 21.9536 35.9128 27.7884 35.9441 27.8431L36.001 27.9425L22.1235 27.9407L8.24608 27.9389L16.6555 26.4534V26.4534ZM0.000976562 24.8695C0.000976562 24.8621 2.0585 21.2904 4.57326 16.9323L9.14554 9.00851L14.474 4.53685C17.4047 2.07744 19.8104 0.0621911 19.82 0.0584147C19.8296 0.0548411 19.7911 0.151872 19.7343 0.274141C19.6776 0.39641 17.0739 5.98103 13.9484 12.6844L8.26561 24.8724L4.1333 24.8776C1.86052 24.8804 0.000976562 24.8768 0.000976562 24.8695V24.8695Z" fill="#0089D6"/>
</g>
<defs>
<clipPath id="clip0_202_12626">
<rect width="36.001" height="28" fill="white"/>
</clipPath>
</defs>
</svg>
