<svg width="37" height="36" viewBox="0 0 37 36" fill="none" xmlns="http://www.w3.org/2000/svg">
<g clip-path="url(#clip0_202_12967)">
<path d="M29.1859 31.1921H16.8166L23.0013 17.7351L23.0071 17.7477L23.0127 17.7351H23.1282L26.9957 26.2424L28.89 30.5353L29.1881 31.1921H29.1859ZM35.9277 34.4791L24.018 8.45403C23.9425 8.30364 23.8436 8.17535 23.6827 8.09957V5.89308H29.3919V5.72168L27.8245 3.22661L29.3919 0.731584V0.514954H22.6043V8.13125C22.476 8.20982 22.3815 8.32358 22.3161 8.45403L15.8442 22.4597L11.6084 13.2039C11.4923 12.9723 11.3377 12.7785 10.9509 12.7785H10.5641C10.2164 12.7785 10.0227 12.9723 9.90655 13.2039L1.62925 31.1166L1.32968 31.7809L0.0829144 34.4791C-0.149331 34.9813 0.160494 35.485 0.740409 35.485H4.10438L4.76786 35.4894L21.3317 35.485H35.2709C35.8508 35.485 36.16 34.9813 35.9277 34.4791Z" fill="#2D2E2B"/>
</g>
<defs>
<clipPath id="clip0_202_12967">
<rect width="37" height="36" fill="white"/>
</clipPath>
</defs>
</svg>
