<svg width="30" height="37" viewBox="0 0 30 37" fill="none" xmlns="http://www.w3.org/2000/svg">
<g clip-path="url(#clip0_202_8915)">
<path d="M0.509521 0.00439453V19.4739L15.0013 27.7349V22.1195L5.3065 16.5931V7.91265L15.0013 13.4391V8.26531L0.509521 0.00439453Z" fill="#002A41"/>
<path d="M29.493 0.00439453V19.4739L15.0012 27.7349V22.1195L24.696 16.5931V7.91265L15.0012 13.4391V8.26531L29.493 0.00439453Z" fill="#0071B5"/>
<path d="M0.509521 36.0044V16.5348L15.0013 8.27393V13.8893L5.3065 19.4157V27.6546L15.0013 22.1281V27.7435L0.509521 36.0044Z" fill="#0071B5"/>
<path d="M29.493 36.0044V16.5348L15.0012 8.27393V13.8893L24.696 19.4157V27.6546L15.0012 22.1281V27.7435L29.493 36.0044Z" fill="#002A41"/>
</g>
<defs>
<clipPath id="clip0_202_8915">
<rect width="30" height="37" fill="white"/>
</clipPath>
</defs>
</svg>
