<svg width="37" height="36" viewBox="0 0 37 36" fill="none" xmlns="http://www.w3.org/2000/svg">
<g clip-path="url(#clip0_202_10279)">
<path d="M25.6784 26.8495C18.5303 28.8345 11.3929 26.571 6.97329 21.8752C6.97202 22.004 6.85235 22.3131 6.85502 22.4591C6.89974 24.9469 7.43313 29.7608 11.4326 34.5275C11.5257 34.6383 11.9894 34.8732 12.086 34.9837C13.0712 35.3273 14.0943 35.5838 15.1491 35.7525C15.2537 35.7204 15.6854 35.6988 15.7885 35.665C21.3128 33.8552 24.3458 29.5792 25.6098 27.3974C25.6975 27.2458 25.6081 26.9789 25.6784 26.8495Z" fill="#F99D59"/>
<path d="M31.3022 5.89837C31.2216 5.86687 31.0534 5.72231 30.9734 5.69208C26.7969 4.11497 23.546 4.40606 21.2004 5.08556C21.1678 5.09498 21.119 5.21184 21.0868 5.2214C26.9268 9.48065 29.6776 18.8852 25.6785 26.8495C25.7969 26.8207 25.8969 26.9085 26.0272 26.871C28.219 26.2426 32.1304 24.3561 35.8353 18.6107C35.9102 18.4947 35.9251 18.2289 35.9999 18.1098C36.0001 18.073 36.0054 18.0374 36.0054 18.0004C36.0054 13.3341 34.2147 9.09647 31.3022 5.89837Z" fill="#178DBC"/>
<path d="M11.6158 1.18912C7.66003 2.69395 4.37236 5.54118 2.31881 9.18857C2.31979 9.30037 2.17734 9.55588 2.17959 9.66599C2.32415 16.7846 5.11022 20.3348 6.6038 21.7469C6.71854 21.8554 6.8745 21.7911 6.97336 21.8752C7.02665 15.2646 13.35 6.45834 21.0868 5.2214C21.0982 5.16613 21.1336 5.12845 21.0184 5.03366C20.3337 4.4692 18.3022 2.38246 12.3111 1.21274C12.1709 1.18546 11.759 1.21401 11.6158 1.18912Z" fill="#E5D332"/>
<path d="M21.0868 5.22141C23.48 4.51997 26.9892 4.20821 31.3022 5.89838L31.2725 5.86435C27.9842 2.26604 23.2645 0.000427246 18.0054 0.000427246C15.7519 0.000427246 13.604 0.432849 11.6158 1.18913C17.3556 2.1856 20.0438 4.18838 21.0868 5.22141Z" fill="#3E7947"/>
<path d="M12.086 34.9837C7.59026 29.8351 6.94634 24.3387 6.96842 21.9642C6.96842 21.934 6.97334 21.9019 6.97362 21.8714C6.97362 21.8727 6.97334 21.8739 6.97334 21.8752C5.56681 20.6795 2.38967 17.0855 2.31879 9.18857C1.60442 10.5599 0.00537109 14.1251 0.00537109 18.0004C0.00537109 25.8561 5.04523 32.5185 12.0631 34.9731L12.086 34.9837Z" fill="#E57428"/>
<path d="M35.9999 18.1098C32.0056 24.4816 27.8279 26.3264 25.6785 26.8495C25.6681 26.8701 25.6609 26.8912 25.6506 26.9116C25.6283 26.9179 25.6728 26.9054 25.6506 26.9116C24.5494 28.9394 21.2589 33.8863 15.1492 35.7525C16.0765 35.9066 17.0338 36.0004 18.0054 36.0004C27.9466 36.0004 36.0054 27.9416 36.0054 18.0004C36.0054 18.0374 36.0001 18.073 35.9999 18.1098Z" fill="#4A6F5D"/>
</g>
<defs>
<clipPath id="clip0_202_10279">
<rect width="37" height="36.0004" fill="white"/>
</clipPath>
</defs>
</svg>
