<svg width="34" height="37" viewBox="0 0 34 37" fill="none" xmlns="http://www.w3.org/2000/svg">
<g clip-path="url(#clip0_202_14044)">
<path d="M17.7646 21.5331V32.0349C18.2098 31.9563 18.6383 31.8027 19.032 31.5806L27.7219 26.5844C28.9953 25.85 29.7807 24.4924 29.7825 23.0224V13.0583C29.7825 12.6539 29.7154 12.2615 29.5992 11.8856L20.1548 17.3344C18.2129 18.7076 17.793 20.0076 17.7655 21.5331" fill="#FFC600"/>
<path d="M33.0461 9.8963L29.5994 11.8855C29.7155 12.2606 29.7818 12.6538 29.7818 13.0565V23.0232C29.7818 24.4884 28.9928 25.8539 27.722 26.5852L19.0321 31.5806C18.6387 31.8028 18.2105 31.9567 17.7656 32.0357V36.0021C18.3801 35.9137 18.9725 35.7109 19.5122 35.4041L30.797 28.9151C32.3709 28.0064 33.3417 26.3282 33.3446 24.5108V11.5689C33.3425 10.9983 33.2415 10.4324 33.0461 9.8963Z" fill="#F6EB61"/>
<path d="M16.9732 18.232C17.4869 17.3931 18.2526 16.6695 19.3531 15.9769L28.8603 10.4911C28.5474 10.0899 28.1611 9.75185 27.722 9.49477L19.0321 4.49937C17.7617 3.77149 16.2005 3.77214 14.9307 4.5011L6.27694 9.49391C5.82094 9.75633 5.43892 10.1099 5.12402 10.5126L14.5865 15.9726C15.693 16.6695 16.4596 17.3931 16.9732 18.232Z" fill="#439879"/>
<path d="M6.27682 9.49417L14.9306 4.50135C16.2002 3.77213 17.7614 3.77115 19.032 4.49877L27.7219 9.49589C28.1693 9.75314 28.5479 10.0982 28.8593 10.4914L32.3009 8.50644C31.8962 7.96096 31.3841 7.50417 30.7961 7.16424L19.5113 0.67522C17.9401 -0.22394 16.0101 -0.22263 14.4402 0.678661L3.20094 7.16252C2.60757 7.50956 2.09139 7.97421 1.68408 8.52796L5.12304 10.512C5.4383 10.1015 5.82975 9.75562 6.27596 9.49331" fill="#28CDFB"/>
<path d="M14.9308 31.5778L6.27701 26.5849C5.00629 25.8501 4.22285 24.4943 4.22069 23.0264V13.0537C4.22069 12.6613 4.28521 12.2793 4.39362 11.9128L0.9452 9.92273C0.757977 10.4496 0.661111 11.0043 0.658691 11.5635V24.5166C0.6614 26.3316 1.63002 28.0079 3.20113 28.9166L14.4395 35.4013C14.9729 35.7076 15.558 35.9046 16.1809 36.0001V32.0312C15.7417 31.9512 15.3191 31.7979 14.9308 31.5778Z" fill="#FDD757"/>
<path d="M13.7771 17.3237L4.39376 11.9119C4.28535 12.2785 4.22168 12.6605 4.22168 13.0528V23.0255C4.22168 24.4899 5.00979 25.8536 6.278 26.5841L14.93 31.5777C15.3232 31.8032 15.7465 31.9477 16.1802 32.0294V21.5302C16.1526 20.0073 15.7336 18.7072 13.7763 17.3237" fill="#EC8B00"/>
</g>
<defs>
<clipPath id="clip0_202_14044">
<rect width="34" height="37" fill="white"/>
</clipPath>
</defs>
</svg>
