<svg width="32" height="37" viewBox="0 0 32 37" fill="none" xmlns="http://www.w3.org/2000/svg">
<g clip-path="url(#clip0_202_9893)">
<path d="M30.5768 20.4659H23.0921C22.6039 20.4604 22.1863 20.8154 22.1131 21.2981C21.6879 24.3398 19.085 26.6022 16.0137 26.5995L18.0403 35.8563C25.3827 34.8971 31.034 28.8998 31.5559 21.5135C31.5749 21.2421 31.4802 20.9751 31.2945 20.7764C31.1088 20.5777 30.8488 20.4652 30.5768 20.4659Z" fill="#2684FF"/>
<path d="M17.6242 20.2309L28.3936 10.9741C28.6043 10.7882 28.7251 10.5208 28.7251 10.2398C28.7251 9.95884 28.6043 9.6914 28.3936 9.50554L17.6242 0.234068C17.3336 -0.0112025 16.9273 -0.0660276 16.5821 0.0934561C16.2369 0.25294 16.0153 0.59788 16.0137 0.978136V19.4868C16.0153 19.8671 16.2369 20.212 16.5821 20.3715C16.9273 20.531 17.3336 20.4762 17.6242 20.2309Z" fill="#2684FF"/>
<path d="M0.588867 22.4875C1.6189 30.2205 8.21231 35.9979 16.0136 36.0031V26.5995C12.6237 26.5995 9.87334 23.8557 9.86524 20.4658L0.588867 22.4875Z" fill="url(#paint0_linear_202_9893)"/>
<path d="M0.441895 20.319V20.4659H9.86512C9.87322 17.076 12.6236 14.3322 16.0135 14.3322L13.9918 5.07544C6.31084 6.07631 0.535337 12.5738 0.441895 20.319Z" fill="url(#paint1_linear_202_9893)"/>
</g>
<defs>
<linearGradient id="paint0_linear_202_9893" x1="8.30368" y1="5.19285" x2="8.30368" y2="26.4037" gradientUnits="userSpaceOnUse">
<stop stop-color="#0052CC"/>
<stop offset="1" stop-color="#2684FF"/>
</linearGradient>
<linearGradient id="paint1_linear_202_9893" x1="8.23013" y1="5.19292" x2="8.23013" y2="26.4038" gradientUnits="userSpaceOnUse">
<stop stop-color="#0052CC"/>
<stop offset="1" stop-color="#2684FF"/>
</linearGradient>
<clipPath id="clip0_202_9893">
<rect width="32" height="37" fill="white"/>
</clipPath>
</defs>
</svg>
