<svg width="37" height="32" viewBox="0 0 37 32" fill="none" xmlns="http://www.w3.org/2000/svg">
<g clip-path="url(#clip0_202_14523)">
<path d="M0.00537109 31.2094V0.791443H36.0054V31.2094H0.00537109ZM15.6519 23.1571C18.403 23.1571 19.8215 21.4392 19.8215 19.2705C19.8215 17.4882 18.6179 16.0066 17.0704 15.7704C18.4245 15.4913 19.5421 14.2673 19.5421 12.4851C19.5421 10.574 18.1451 8.83465 15.4155 8.83465H7.87164V23.1571H15.6519ZM28.4009 23.1571L23.3042 15.7577L28.3863 8.83465H24.6251L19.502 15.7577L20.6704 17.4023L24.6251 23.1571H28.4009ZM14.8782 17.2091C16.0603 17.2091 16.7051 17.9392 16.7051 18.841C16.7051 19.8717 16.0173 20.473 14.8782 20.473H10.9236V17.2091H14.8782ZM14.7493 11.5188C15.7809 11.5188 16.4257 12.1415 16.4257 13.0219C16.4257 13.9452 15.7809 14.525 14.7493 14.525H10.9236V11.5188H14.7493Z" fill="#02161F"/>
</g>
<defs>
<clipPath id="clip0_202_14523">
<rect width="37" height="32" fill="white"/>
</clipPath>
</defs>
</svg>
