<svg width="32" height="37" viewBox="0 0 32 37" fill="none" xmlns="http://www.w3.org/2000/svg">
<g clip-path="url(#clip0_202_14992)">
<path d="M29.4959 7.33702L18.1564 0.604628C16.8087 -0.199183 15.1287 -0.199183 13.7809 0.604628L2.43917 7.33702C1.07491 8.16004 0.244293 9.64014 0.252502 11.2334V24.6959C0.245094 26.2884 1.07561 27.7674 2.43917 28.59L13.7787 35.3202C15.1265 36.1235 16.8063 36.1235 18.1541 35.3202L29.4936 28.59C30.8588 27.7676 31.6903 26.2874 31.6826 24.6937V11.2334C31.6908 9.64014 30.8602 8.16004 29.4959 7.33702Z" fill="white"/>
<path d="M29.5603 7.35318L18.1959 0.605956C16.8451 -0.199625 15.1614 -0.199625 13.8107 0.605956L2.44399 7.35318C1.07672 8.17801 0.244275 9.66137 0.252502 11.2581V24.7503C0.245078 26.3463 1.07742 27.8286 2.44399 28.653L13.8085 35.398C15.1593 36.203 16.8427 36.203 18.1936 35.398L29.558 28.653C30.9262 27.8287 31.7595 26.3453 31.7518 24.748V11.2581C31.76 9.66137 30.9276 8.17801 29.5603 7.35318ZM14.2067 34.7084L2.84222 27.9635C1.71917 27.283 1.03514 26.0635 1.0399 24.7503V11.2581C1.03469 9.94489 1.71884 8.72517 2.84222 8.04497L14.2067 1.29775C15.3127 0.637898 16.6916 0.637898 17.7976 1.29775L29.153 8.04497C30.0891 8.61195 30.7276 9.56272 30.8984 10.6437C30.5206 9.84043 29.6718 9.6197 28.6819 10.1886L17.9387 16.8425C16.5984 17.6231 15.6107 18.5037 15.6085 20.1194V33.3681C15.6085 34.3352 15.9976 34.961 16.5984 35.1454C16.4016 35.1814 16.2022 35.2005 16.0022 35.2023C15.3702 35.2018 14.75 35.0312 14.2067 34.7084Z" fill="#2F3A3E"/>
<path d="M26.5503 26.0258L23.7256 27.7152C23.65 27.7456 23.5993 27.8176 23.5962 27.8991V28.6416C23.5962 28.7324 23.6575 28.7687 23.7324 28.7256L26.6002 26.9818C26.6705 26.9291 26.7041 26.8407 26.6865 26.7547V26.103C26.6842 26.019 26.6184 25.9827 26.5503 26.0258Z" fill="#3AB14A"/>
<path d="M20.539 19.8063C20.6298 19.7608 20.7047 19.8063 20.707 19.9357L20.7161 20.9211C21.0557 20.7668 21.4347 20.7208 21.8014 20.7894C21.8718 20.8076 21.9013 20.903 21.8741 21.0165L21.6584 21.8816C21.642 21.9469 21.6083 22.0065 21.5607 22.0542C21.544 22.0707 21.5249 22.0844 21.504 22.095C21.4783 22.1089 21.4487 22.1137 21.42 22.1087C21.0624 22.0295 20.688 22.0896 20.3732 22.2767C19.9128 22.4841 19.6119 22.9368 19.5989 23.4415C19.5989 23.8957 19.826 24.0205 20.6184 24.0342C21.6652 24.0523 22.1193 24.5087 22.1307 25.5646C22.1057 26.6667 21.5976 27.7021 20.741 28.396L20.7592 29.3633C20.7576 29.4834 20.6952 29.5946 20.5934 29.6585L20.0213 29.9877C19.9304 30.0331 19.8555 29.9877 19.8532 29.8606V28.9092C19.3628 29.1135 18.8655 29.1612 18.5476 29.0341C18.4886 29.0114 18.4613 28.9228 18.4863 28.8206L18.6929 27.9464C18.7086 27.8773 18.7442 27.8141 18.7951 27.7648C18.8113 27.7493 18.8296 27.7363 18.8496 27.7262C18.8792 27.7129 18.9131 27.7129 18.9427 27.7262C19.3475 27.8359 19.7792 27.7813 20.1439 27.5741C20.6701 27.3203 21.012 26.7955 21.0317 26.2117C21.0317 25.7212 20.7615 25.5169 20.1234 25.5123C19.2992 25.5123 18.534 25.3534 18.5181 24.15C18.5371 23.0986 19.0251 22.1108 19.8487 21.457L19.8078 20.467C19.8074 20.3451 19.8702 20.2318 19.9736 20.1673L20.539 19.8063Z" fill="white"/>
</g>
<defs>
<clipPath id="clip0_202_14992">
<rect width="32" height="37" fill="white"/>
</clipPath>
</defs>
</svg>
