<svg width="36" height="37" viewBox="0 0 36 37" fill="none" xmlns="http://www.w3.org/2000/svg">
<g clip-path="url(#clip0_202_9917)">
<path d="M34.1729 0.00415039H1.8291C0.819456 0.00415039 0.000976562 0.82263 0.000976562 1.83228V34.176C0.000976562 35.1857 0.819456 36.0042 1.8291 36.0042H34.1729C35.1825 36.0042 36.001 35.1857 36.001 34.176V1.83228C36.001 0.82263 35.1825 0.00415039 34.1729 0.00415039Z" fill="#1A293B"/>
<path d="M12.5107 23.0452V8.28418H14.7665V13.7544C15.7252 12.5208 16.9517 11.9075 18.4603 11.9075C19.9688 11.9075 21.1954 12.4573 22.0836 13.5499C22.9718 14.6426 23.4511 16.0101 23.4511 17.6526C23.4511 19.295 22.9718 20.6626 22.0836 21.7552C21.1954 22.8478 19.9618 23.3977 18.4603 23.3977C16.9588 23.3977 15.7252 22.7844 14.7665 21.5508V23.1228H12.5107V23.0452ZM14.7665 17.6455C14.7665 18.7382 15.0414 19.5629 15.5842 20.2396C16.1975 20.9234 16.9517 21.2618 17.9739 21.2618C18.9326 21.2618 19.7503 20.9234 20.2296 20.2396C20.7795 19.5559 21.0473 18.6677 21.0473 17.6455C21.0473 16.6234 20.7724 15.7281 20.2931 15.0514C19.7432 14.3676 18.996 14.0293 18.0373 14.0293C17.0152 14.0293 16.2609 14.3676 15.7111 15.0514C15.0414 15.7352 14.7665 16.5529 14.7665 17.6455Z" fill="white"/>
<path d="M23.4907 25.6542H12.5107V27.8142H23.4907V25.6542Z" fill="#53B6E4"/>
</g>
<defs>
<clipPath id="clip0_202_9917">
<rect width="36.001" height="37" fill="white"/>
</clipPath>
</defs>
</svg>
