<svg width="30" height="37" viewBox="0 0 30 37" fill="none" xmlns="http://www.w3.org/2000/svg">
<g clip-path="url(#clip0_202_12971)">
<path d="M23.8196 15.2506C22.2056 19.4866 18.117 22.5019 13.3144 22.5019H0.939941V13.502V0.00219727H13.3144C19.5283 0.00219727 24.5643 5.03946 24.5643 11.252C24.5643 12.6627 24.2936 14.0067 23.8196 15.2506Z" fill="#0077CC"/>
<path d="M23.8196 15.2508C22.081 14.1495 20.0257 13.5022 17.8144 13.5022H0.939941V22.5021H13.3144C18.117 22.5021 22.2056 19.4868 23.8196 15.2508Z" fill="#343741"/>
<path d="M26.4622 17.5593C24.1056 22.4513 19.0977 25.8359 13.3144 25.8359H0.939941V36.0024H17.8144C24.0283 36.0024 29.0642 30.9651 29.0642 24.7526C29.0642 22.0159 28.0862 19.5093 26.4622 17.5593Z" fill="#00BFB3"/>
</g>
<defs>
<clipPath id="clip0_202_12971">
<rect width="30" height="37" fill="white"/>
</clipPath>
</defs>
</svg>
