<svg width="36" height="24" viewBox="0 0 36 24" fill="none" xmlns="http://www.w3.org/2000/svg">
<path d="M32.3941 2.22857V4.41932H23.436V2.22857H32.3941ZM25.4347 19.0103C26.0949 19.6405 27.0402 19.9556 28.2557 19.9556C29.141 19.9556 29.9062 19.7456 30.5515 19.2954C31.1967 18.8603 31.5718 18.3801 31.7219 17.8849H35.6082C35.008 19.8056 34.0326 21.1861 32.7572 22.0114C31.4818 22.8516 29.9362 23.2568 28.1356 23.2568C26.8902 23.2568 25.7648 23.0617 24.7295 22.6566C23.7241 22.2514 22.8688 21.6812 22.1486 20.946C21.4583 20.2107 20.9181 19.3254 20.528 18.2901C20.1529 17.2547 19.9728 16.1143 19.9728 14.8839C19.9728 13.6685 20.1679 12.5731 20.573 11.5378C20.9782 10.4874 21.5484 9.6171 22.2536 8.85184C23.0039 8.08658 23.8592 7.50138 24.8645 7.05122C25.8698 6.60107 26.9652 6.406 28.1956 6.406C29.5611 6.406 30.7315 6.64608 31.7669 7.18627C32.7722 7.69644 33.5975 8.41669 34.2577 9.28699C34.9179 10.1723 35.3831 11.1776 35.6682 12.318C35.9533 13.4434 36.0433 14.6288 35.9833 15.8893H24.4444C24.4444 17.1497 24.8645 18.3501 25.5097 18.9953L25.4347 19.0103ZM30.4719 10.5909C29.9467 10.0207 29.0614 9.70563 27.9811 9.70563C27.2908 9.70563 26.7056 9.81067 26.2405 10.0658C25.7753 10.2908 25.4152 10.5909 25.1301 10.9511C24.845 11.3112 24.6499 11.6713 24.5299 12.0764C24.4249 12.4666 24.3498 12.8267 24.3348 13.1418H31.4773C31.3722 12.0164 30.9821 11.1911 30.4719 10.6059V10.5909ZM10.4145 0.747559C11.4649 0.747559 12.4252 0.837589 13.2955 1.03266C14.1658 1.22772 14.9011 1.52783 15.5163 1.94797C16.1315 2.36811 16.6267 2.9233 16.9568 3.62855C17.3019 4.33379 17.467 5.20409 17.467 6.22444C17.467 7.33482 17.2119 8.26514 16.7167 9.01539C16.2065 9.76565 15.4563 10.3659 14.4509 10.846C15.8164 11.2362 16.8217 11.9264 17.497 12.9017C18.1572 13.8921 18.4873 15.0775 18.4873 16.4429C18.4873 17.5683 18.2922 18.5287 17.8721 19.3389C17.452 20.1642 16.8668 20.8394 16.1315 21.3646C15.4113 21.8898 14.556 22.2649 13.6256 22.52C12.7103 22.7601 11.75 22.8952 10.7597 22.8952H0.000976562V0.762564H10.4145V0.747559ZM9.78433 9.67262C10.6396 9.67262 11.3599 9.47755 11.9301 9.05741C12.4853 8.65227 12.7554 7.97704 12.7554 7.04672C12.7554 6.53654 12.6503 6.10139 12.4853 5.77128C12.2902 5.44117 12.0351 5.18608 11.735 5.00602C11.4199 4.82596 11.0598 4.69091 10.6546 4.61589C10.2495 4.54086 9.81434 4.51085 9.3942 4.51085H4.84764V9.67262H9.78433ZM4.86264 13.0158V19.0928H10.0544V19.0778C10.5346 19.0778 10.9847 19.0328 11.4199 18.9278C11.855 18.8378 12.2302 18.6877 12.5603 18.4776C12.8754 18.2826 13.1455 17.9975 13.3406 17.6073C13.5356 17.2472 13.6256 16.752 13.6256 16.1668C13.6256 15.0415 13.2955 14.2312 12.6653 13.736C12.0201 13.2558 11.1798 13.0158 10.1294 13.0158H4.86264Z" fill="#1769FF"/>
</svg>
