<svg width="26" height="17" viewBox="0 0 26 17" fill="none" xmlns="http://www.w3.org/2000/svg">
<rect width="26" height="17" rx="8.5" fill="#1769FF"/>
<path fill-rule="evenodd" clip-rule="evenodd" d="M12.4711 4.04712C12.4711 3.12201 12.2288 2.32907 11.7456 1.66531C10.9404 0.584285 9.57517 0.0304107 7.64553 0.00219727H0.000732422V15.6087H7.12926C7.93302 15.6087 8.67658 15.5404 9.36445 15.3993C10.0523 15.2568 10.6469 14.9969 11.1511 14.6153C11.5996 14.2827 11.9729 13.8728 12.2709 13.3873C12.7421 12.6537 12.9769 11.8236 12.9769 10.8985C12.9769 10.0016 12.7707 9.23839 12.3613 8.61176C11.9473 7.98364 11.3392 7.5248 10.5325 7.23375C11.0638 6.96647 11.4657 6.66948 11.7396 6.34577C12.2288 5.76665 12.4711 4.99895 12.4711 4.04712ZM23.1383 2.67208H16.359V0.729807H23.1383V2.67208ZM17.1492 8.6964C17.2606 7.94503 17.533 7.34958 17.965 6.91004C18.397 6.4705 19.0081 6.25074 19.7908 6.25074C20.5133 6.25074 21.1169 6.45714 21.6076 6.87143C22.0922 7.28869 22.3662 7.89454 22.4219 8.6964H17.1492ZM22.5408 4.30252C23.3581 4.66187 24.0309 5.23208 24.5607 6.01018C25.0439 6.69621 25.354 7.49213 25.4954 8.39644C25.5782 8.92507 25.6113 9.69129 25.5978 10.6877H17.074C17.1251 11.8444 17.5285 12.6567 18.2992 13.1215C18.7658 13.411 19.3272 13.5565 19.9865 13.5565C20.6804 13.5565 21.2478 13.3798 21.6828 13.0279C21.9221 12.8363 22.1329 12.572 22.3135 12.2335H25.4367C25.354 12.9165 24.9746 13.613 24.3033 14.3198C23.2557 15.4409 21.7882 16.0022 19.9022 16.0022C18.3443 16.0022 16.9701 15.53 15.7825 14.5826C14.5889 13.6367 13.9959 12.0954 13.9959 9.96303C13.9959 7.96285 14.5332 6.42893 15.6064 5.36127C16.6826 4.29658 18.0749 3.76053 19.7893 3.76053C20.8083 3.76053 21.725 3.94169 22.5408 4.30252ZM3.15408 12.9002V8.73797H7.04948C7.72681 8.74391 8.25513 8.83301 8.63142 9.00229C9.30424 9.3067 9.63839 9.86354 9.63839 10.6773C9.63839 11.6365 9.2922 12.284 8.59831 12.6255C8.2175 12.8081 7.68166 12.9002 6.9953 12.9002H3.15408ZM3.15408 2.71217V6.1557H7.00132C7.68617 6.1557 8.24459 6.02651 8.67507 5.76814C9.10254 5.50976 9.31779 5.05241 9.31779 4.39904C9.31779 3.66995 9.03481 3.19032 8.46886 2.9557C7.97818 2.79384 7.35503 2.71217 6.59793 2.71217H3.15408Z" fill="white"/>
</svg>
