<svg width="41" height="34" viewBox="0 0 41 34" fill="none" xmlns="http://www.w3.org/2000/svg">
<g clip-path="url(#clip0_202_11290)">
<path d="M0.00463867 5.60757H9.35631V8.35806H0.00463867V5.60757ZM0.00463867 0.499512H9.35631V3.25H0.00463867V0.499512ZM16.7826 10.6763H0.00463867V13.4268H16.154C17.9221 13.4268 22.0479 13.4661 23.5803 15.9416V14.4091C22.8337 11.973 20.6333 10.6763 16.7826 10.6763ZM16.8219 15.7844H0.00463867V18.5349H16.154C20.0832 18.5349 22.5587 18.692 23.5803 19.2421V18.0241C22.7944 16.0987 19.4938 15.7844 16.8219 15.7844ZM16.7826 28.751H0.00463867V26.0005H16.154C17.9221 26.0005 22.0479 25.9612 23.5803 23.4858V25.0182C22.8337 27.4543 20.6333 28.751 16.7826 28.751ZM16.8219 23.6429H0.00463867V20.8924H16.154C20.0832 20.8924 22.5587 20.7353 23.5803 20.1852V21.4032C22.7944 23.3286 19.4938 23.6429 16.8219 23.6429ZM27.6667 33.5054H40.0046V31.8158H28.0204C26.9595 31.8158 24.4447 31.7765 23.541 30.3227V31.2657C23.9732 32.7196 25.3092 33.5054 27.6667 33.5054ZM27.6274 30.4013H39.9653V28.7117H28.0204C25.6235 28.7117 24.1304 28.6331 23.541 28.2795V29.026C24.0125 30.2048 26.0164 30.4013 27.6274 30.4013Z" fill="#010101"/>
</g>
<defs>
<clipPath id="clip0_202_11290">
<rect width="41" height="34" fill="white"/>
</clipPath>
</defs>
</svg>
