<svg width="37" height="32" viewBox="0 0 37 32" fill="none" xmlns="http://www.w3.org/2000/svg">
<g clip-path="url(#clip0_202_15325)">
<path d="M25.5603 22.9279C22.6266 22.5809 21.1602 20.7411 20.8955 20.3755C20.3133 19.5717 19.6546 18.1357 19.09 16.8379C18.9194 16.4458 18.3127 16.3733 18.0902 16.3605L18.0069 16.3586C17.903 16.3596 17.1208 16.3792 16.9208 16.8379C16.3552 18.1347 15.6985 19.5697 15.1153 20.3755C14.8506 20.7411 13.3832 22.5819 10.4505 22.9279C9.93979 22.9897 9.39969 23.0191 8.83999 23.0191C7.61572 23.0191 6.40516 22.876 5.42888 22.6309L6.42869 26.6674L14.7448 30.0942L17.8373 30.4677L20.9083 30.0942L29.2243 26.6674L30.2026 22.7182C29.2998 22.9073 28.2392 23.0191 27.1679 23.0191C26.6111 23.0191 26.0691 22.9897 25.5603 22.9279ZM21.6131 28.1426H14.0018V27.3389H17.405V25.6372C17.1659 25.6 16.9287 25.5598 16.6905 25.5137C16.3611 25.451 16.0337 25.3824 15.7112 25.2922C15.4201 25.2128 15.1143 25.1236 14.8526 24.9677C14.3791 24.6825 14.0214 24.1326 14.3115 23.5905C14.4497 23.3337 14.6957 23.0955 14.9702 22.9907C15.2809 22.8711 15.6387 22.8554 15.969 22.8436C15.7818 22.8505 16.0955 22.8436 16.0024 22.8426H15.9857H16.0024C16.3464 22.8426 16.6875 22.8515 17.0326 22.874C17.3394 22.8946 17.654 22.9632 17.9588 22.9279C18.6234 22.8524 19.3056 22.8074 19.9741 22.8652C20.2751 22.8917 20.6074 22.9279 20.8593 23.1102C21.0935 23.2808 21.3033 23.5111 21.3778 23.7974C21.5239 24.3571 21.0494 24.8442 20.5799 25.0599C19.9918 25.3304 19.3135 25.4471 18.6803 25.5578C18.5234 25.5853 18.3656 25.6117 18.2078 25.6372V27.3389H21.6131V28.1426ZM31.7533 13.7071C31.3377 13.5797 30.7917 13.4817 30.0556 13.4239C29.1773 13.3572 28.0275 13.3503 26.4994 13.4258C26.4994 13.4258 24.093 13.6366 22.6825 14.1247C21.9169 14.3903 20.9632 14.7991 20.7387 15.5068C20.5142 16.2145 20.6897 17.774 21.0436 18.6082C21.3974 19.4443 22.3149 20.5607 23.0863 21.0822C23.7999 21.5664 25.1712 22.1634 27.0552 22.1516C28.2177 22.1447 29.4429 22.033 30.4594 21.6899C30.8936 21.5439 31.2916 21.3557 31.6278 21.1145C31.9542 20.8813 32.2169 20.6039 32.4296 20.3059C32.9511 19.5746 33.1707 18.7052 33.2736 17.9642C33.4177 16.9202 33.5804 15.1353 32.9678 14.4442C32.7188 14.1629 32.3855 13.9022 31.7533 13.7071ZM12.9265 21.0832C13.6969 20.5617 14.6144 19.4443 14.9663 18.6091C15.3211 17.774 15.4976 16.2155 15.2721 15.5078C15.0476 14.8001 14.0949 14.3903 13.3284 14.1257C11.9188 13.6375 9.51144 13.4268 9.51144 13.4268C7.76667 13.3396 6.51201 13.3621 5.59453 13.4572C4.81527 13.5395 4.27616 13.6758 3.88702 13.8453C3.48513 14.0179 3.2391 14.2257 3.04404 14.4462C2.43239 15.1373 2.59314 16.9212 2.73723 17.9661C2.81761 18.5425 2.96856 19.1963 3.27635 19.8021C3.5263 20.2941 3.88113 20.7568 4.38594 21.1165C4.61629 21.2822 4.87898 21.4223 5.15834 21.5429C6.24245 22.0026 7.63924 22.1457 8.95762 22.1536C10.8396 22.1634 12.2119 21.5674 12.9265 21.0832ZM6.68746 12.226C8.16953 12.2378 9.66141 12.3417 11.1494 12.5407C11.9776 12.6515 12.803 12.7897 13.6234 12.9573C14.2919 13.1014 14.8271 13.2347 15.2995 13.3523C16.3444 13.614 17.0345 13.7846 18.0088 13.7865C18.9802 13.7846 19.6683 13.6121 20.7122 13.3523C21.1847 13.2347 21.7199 13.1014 22.3845 12.9583C23.1137 12.8083 23.845 12.6858 24.5792 12.5809C26.0387 12.3741 27.5031 12.2554 28.9597 12.2309C29.1616 12.227 29.3655 12.2231 29.5684 12.2231C29.6792 12.2231 29.7899 12.2241 29.8987 12.2251L29.8184 11.6203L29.7791 11.4977L27.9197 5.93116L23.2696 5.02055L17.8393 3.95997V3.95801H17.8353C17.8353 3.95801 17.8334 3.95801 17.8285 3.95899C17.8236 3.95801 17.8206 3.95801 17.8206 3.95801H17.8167V3.96095C17.6128 3.98349 14.9251 4.50986 12.3756 5.01271C9.99566 5.48125 7.73628 5.93214 7.73628 5.93214L5.87683 11.4987L5.83566 11.6213L5.75627 12.2319C5.97975 12.227 6.20912 12.2241 6.44339 12.2241C6.52475 12.2231 6.60611 12.226 6.68746 12.226Z" fill="white"/>
<path d="M35.6751 12.8415C35.6565 12.8356 34.1548 12.4396 31.6102 12.2857L31.4681 10.9173L31.1652 10.0097L32.9717 8.07377C34.6126 6.31528 34.5165 3.56091 32.758 1.92102L32.414 1.59951C30.6565 -0.04037 27.9011 0.0556901 26.2612 1.8132L24.7046 3.48151L17.8393 2.04551V2.04355H17.8344C17.8344 2.04355 17.8314 2.04355 17.8265 2.04453C17.8207 2.04355 17.8177 2.04355 17.8177 2.04355H17.8138V2.04649C17.5619 2.07491 14.0184 2.81987 10.9367 3.47171L9.38991 1.81418C7.75199 0.0556901 4.99663 -0.0393898 3.23912 1.60049L2.89507 1.922C1.13756 3.56287 1.0415 6.31626 2.68138 8.07475L4.48888 10.0107L4.18502 10.9183L4.04191 12.3092C1.71588 12.4788 0.351434 12.8366 0.335751 12.8425C0.0956008 12.9101 -0.00339996 13.1532 0.00542189 13.3649L0.292622 15.4214L0.416128 15.4871C0.811151 15.6968 0.912112 16.0134 1.44828 17.8876L1.54336 18.2179C2.12757 20.2518 2.61571 21.1438 3.58121 21.8368L5.22502 27.5054L14.3223 31.2243L17.8403 31.5811L21.3327 31.2243L30.7917 27.5054L32.0866 22.0633C32.1013 22.0544 32.117 22.0456 32.1317 22.0368C33.303 21.3075 33.8274 20.4508 34.4675 18.2179L34.5635 17.8827C35.0987 16.0125 35.1987 15.6968 35.5947 15.4871L35.7182 15.4214L36.0025 13.3924L36.0045 13.3659C36.0123 13.1532 35.9143 12.9101 35.6751 12.8415ZM5.8347 11.6202L5.87587 11.4976L7.73532 5.93104C7.73532 5.93104 9.99568 5.48015 12.3746 5.01161C14.9242 4.50778 17.6119 3.98239 17.8158 3.95985V3.95789H17.8197C17.8197 3.95789 17.8226 3.95789 17.8275 3.95887C17.8324 3.95789 17.8344 3.95789 17.8344 3.95789H17.8383V3.96083L23.2686 5.02141L27.9187 5.93202L29.7782 11.4986L29.8174 11.6211L29.8978 12.2259C29.789 12.2249 29.6782 12.224 29.5674 12.224C29.3645 12.224 29.1607 12.2279 28.9587 12.2318C27.5031 12.2563 26.0387 12.3749 24.5782 12.5817C23.844 12.6856 23.1128 12.8082 22.3835 12.9591C21.7189 13.1022 21.1837 13.2355 20.7113 13.3532C19.6683 13.6139 18.9793 13.7854 18.0079 13.7874C17.0336 13.7854 16.3445 13.6139 15.2986 13.3532C14.8261 13.2355 14.2909 13.1022 13.6224 12.9581C12.801 12.7905 11.9757 12.6523 11.1484 12.5415C9.66045 12.3426 8.16857 12.2377 6.6865 12.2269C6.60515 12.2269 6.52379 12.224 6.44145 12.224C6.20718 12.224 5.97683 12.2269 5.75433 12.2318L5.8347 11.6202ZM5.15738 21.5408C4.87802 21.4202 4.61533 21.2801 4.38498 21.1144C3.88017 20.7547 3.52534 20.292 3.27539 19.8C2.96858 19.1942 2.81665 18.5404 2.73627 17.964C2.59218 16.9201 2.43045 15.1352 3.04308 14.4441C3.23814 14.2226 3.48417 14.0148 3.88606 13.8433C4.2752 13.6737 4.81431 13.5374 5.59357 13.4551C6.51203 13.359 7.76571 13.3375 9.51048 13.4247C9.51048 13.4247 11.9169 13.6355 13.3274 14.1236C14.0939 14.3892 15.0477 14.798 15.2711 15.5057C15.4966 16.2134 15.3211 17.7729 14.9653 18.6071C14.6134 19.4432 13.696 20.5596 12.9255 21.0811C12.2109 21.5653 10.8387 22.1623 8.95568 22.1505C7.63926 22.1446 6.24247 22.0005 5.15738 21.5408ZM29.2253 26.6683L20.9093 30.0951L17.8383 30.4685L14.7458 30.0951L6.42969 26.6683L5.42988 22.6318C6.40616 22.8759 7.61672 23.0199 8.84099 23.0199C9.39971 23.0199 9.94078 22.9905 10.4515 22.9288C13.3842 22.5818 14.8516 20.7419 15.1163 20.3763C15.6995 19.5706 16.3562 18.1356 16.9218 16.8388C17.1218 16.38 17.904 16.3604 18.0079 16.3594L18.0912 16.3614C18.3137 16.3751 18.9204 16.4467 19.091 16.8388C19.6556 18.1366 20.3143 19.5726 20.8965 20.3763C21.1612 20.7419 22.6276 22.5828 25.5613 22.9288C26.071 22.9905 26.6121 23.0199 27.1708 23.0199C28.2422 23.0199 29.3028 22.9092 30.2056 22.719L29.2253 26.6683ZM33.2736 17.965C33.1707 18.7061 32.9511 19.5755 32.4296 20.3067C32.216 20.6057 31.9542 20.8821 31.6278 21.1154C31.2906 21.3565 30.8937 21.5447 30.4594 21.6908C29.443 22.0339 28.2177 22.1456 27.0552 22.1525C25.1712 22.1642 23.7999 21.5673 23.0863 21.0831C22.3149 20.5616 21.3974 19.4442 21.0436 18.609C20.6907 17.7739 20.5143 16.2154 20.7387 15.5077C20.9632 14.7999 21.9169 14.3902 22.6825 14.1256C24.092 13.6374 26.4994 13.4267 26.4994 13.4267C28.0275 13.3512 29.1763 13.3581 30.0556 13.4247C30.7917 13.4825 31.3387 13.5806 31.7533 13.708C32.3855 13.9031 32.7178 14.1638 32.9678 14.4461C33.5794 15.1362 33.4177 16.9201 33.2736 17.965ZM18.2088 25.6361C18.3666 25.6106 18.5244 25.5842 18.6813 25.5567C19.3145 25.446 19.9928 25.3303 20.5809 25.0588C21.0504 24.8431 21.5258 24.356 21.3788 23.7963C21.3043 23.51 21.0945 23.2797 20.8603 23.1091C20.6084 22.9268 20.2751 22.8906 19.9752 22.8641C19.3067 22.8063 18.6244 22.8514 17.9598 22.9268C17.654 22.9621 17.3404 22.8945 17.0336 22.8729C16.6885 22.8504 16.3474 22.8415 16.0034 22.8415C16.0965 22.8425 15.7818 22.8494 15.97 22.8425C15.6397 22.8553 15.2829 22.87 14.9712 22.9896C14.6967 23.0944 14.4507 23.3336 14.3125 23.5894C14.0224 24.1325 14.3792 24.6814 14.8536 24.9666C15.1153 25.1225 15.4211 25.2117 15.7122 25.2911C16.0347 25.3813 16.3621 25.4489 16.6915 25.5126C16.9287 25.5587 17.1659 25.5989 17.406 25.6361V27.3387H14.0028V28.1415H21.6141V27.3387H18.2088V25.6361Z" fill="#454545"/>
</g>
<defs>
<clipPath id="clip0_202_15325">
<rect width="37" height="32" fill="white"/>
</clipPath>
</defs>
</svg>
