<svg width="28" height="40" viewBox="0 0 28 40" fill="none" xmlns="http://www.w3.org/2000/svg">
<g clip-path="url(#clip0_202_15231)">
<path d="M12.8784 13.8723C12.8724 13.9203 12.8724 13.9748 12.8724 14.0284C12.8724 14.2364 12.9139 14.4365 12.989 14.6205L13.056 14.7585L13.321 15.4367L14.6979 18.949L15.8987 22.0163C16.2412 22.6354 16.7899 23.1215 17.4515 23.3806L17.6571 23.4561C17.6651 23.4586 17.6786 23.4586 17.6896 23.4616L20.9809 24.5934V24.5959L22.2392 25.028L22.3252 25.057C22.3282 25.057 22.3332 25.06 22.3362 25.06C22.5842 25.1225 22.8273 25.2065 23.0594 25.309C23.596 25.5406 24.0826 25.8707 24.4982 26.2733C24.6657 26.4333 24.8198 26.6058 24.9623 26.7899C25.0836 26.9444 25.1946 27.1068 25.2944 27.276C25.7335 28.0052 25.9856 28.8624 25.9856 29.7751C25.9856 29.9381 25.9775 30.0957 25.961 30.2557C25.9555 30.3262 25.947 30.3942 25.9365 30.4618V30.4673C25.9255 30.5388 25.912 30.6128 25.8985 30.6853C25.8845 30.7558 25.8715 30.8258 25.8555 30.8959C25.853 30.9039 25.85 30.9124 25.847 30.9204C25.832 30.9914 25.813 31.0614 25.7935 31.1319C25.776 31.1984 25.754 31.2669 25.7295 31.3315C25.7079 31.4021 25.6827 31.4715 25.654 31.5395C25.6295 31.6095 25.6005 31.6805 25.568 31.7476C25.4789 31.9531 25.3729 32.1507 25.2539 32.3392C25.1004 32.5869 24.9252 32.8204 24.7303 33.0369C26.2746 31.3765 27.3014 29.2325 27.5569 26.8599C27.5999 26.4708 27.6219 26.0762 27.6219 25.6791C27.6219 25.4256 27.6109 25.1745 27.5944 24.9224C27.3999 22.0773 26.1046 19.5327 24.1276 17.7167C23.5825 17.2121 22.9868 16.763 22.3462 16.3819L21.1359 15.7633L15.0029 12.616C14.8144 12.5352 14.6114 12.4937 14.4063 12.494C13.6121 12.494 12.9565 13.0996 12.8784 13.8723Z" fill="#7F7F7F"/>
<path d="M12.8784 13.8723C12.8724 13.9203 12.8724 13.9748 12.8724 14.0284C12.8724 14.2364 12.9139 14.4365 12.989 14.6205L13.056 14.7585L13.321 15.4367L14.6979 18.949L15.8987 22.0163C16.2412 22.6354 16.7899 23.1215 17.4515 23.3806L17.6571 23.4561C17.6651 23.4586 17.6786 23.4586 17.6896 23.4616L20.9809 24.5934V24.5959L22.2392 25.028L22.3252 25.057C22.3282 25.057 22.3332 25.06 22.3362 25.06C22.5842 25.1225 22.8273 25.2065 23.0594 25.309C23.596 25.5406 24.0826 25.8707 24.4982 26.2733C24.6657 26.4333 24.8198 26.6058 24.9623 26.7899C25.0836 26.9444 25.1946 27.1068 25.2944 27.276C25.7335 28.0052 25.9856 28.8624 25.9856 29.7751C25.9856 29.9381 25.9775 30.0957 25.961 30.2557C25.9555 30.3262 25.947 30.3942 25.9365 30.4618V30.4673C25.9255 30.5388 25.912 30.6128 25.8985 30.6853C25.8845 30.7558 25.8715 30.8258 25.8555 30.8959C25.853 30.9039 25.85 30.9124 25.847 30.9204C25.832 30.9914 25.813 31.0614 25.7935 31.1319C25.776 31.1984 25.754 31.2669 25.7295 31.3315C25.7079 31.4021 25.6827 31.4715 25.654 31.5395C25.6295 31.6095 25.6005 31.6805 25.568 31.7476C25.4789 31.9531 25.3729 32.1507 25.2539 32.3392C25.1004 32.5869 24.9252 32.8204 24.7303 33.0369C26.2746 31.3765 27.3014 29.2325 27.5569 26.8599C27.5999 26.4708 27.6219 26.0762 27.6219 25.6791C27.6219 25.4256 27.6109 25.1745 27.5944 24.9224C27.3999 22.0773 26.1046 19.5327 24.1276 17.7167C23.5825 17.2121 22.9868 16.763 22.3462 16.3819L21.1359 15.7633L15.0029 12.616C14.8144 12.5352 14.6114 12.4937 14.4063 12.494C13.6121 12.494 12.9565 13.0996 12.8784 13.8723Z" fill="url(#paint0_linear_202_15231)"/>
<path d="M1.95838 3.05176e-05C1.08568 0.0155342 0.38501 0.729704 0.38501 1.60291V29.5626C0.388511 29.7576 0.399513 29.9501 0.413517 30.1457C0.42602 30.2487 0.439523 30.3557 0.458527 30.4598C0.857122 32.7038 2.80959 34.4067 5.16715 34.4067C5.99384 34.4067 6.76903 34.1962 7.44719 33.8301C7.45119 33.8271 7.45819 33.8231 7.46169 33.8231L7.70575 33.6755L8.69498 33.0934L9.95328 32.3467L9.95628 7.50431C9.95628 5.85342 9.13009 4.39808 7.86529 3.53337C7.83528 3.51537 7.80627 3.49636 7.77977 3.47486L2.8836 0.273095C2.63554 0.109056 2.33647 0.00603194 2.0159 3.05176e-05H1.95838Z" fill="#7F7F7F"/>
<path d="M1.95838 3.05176e-05C1.08568 0.0155342 0.38501 0.729704 0.38501 1.60291V29.5626C0.388511 29.7576 0.399513 29.9501 0.413517 30.1457C0.42602 30.2487 0.439523 30.3557 0.458527 30.4598C0.857122 32.7038 2.80959 34.4067 5.16715 34.4067C5.99384 34.4067 6.76903 34.1962 7.44719 33.8301C7.45119 33.8271 7.45819 33.8231 7.46169 33.8231L7.70575 33.6755L8.69498 33.0934L9.95328 32.3467L9.95628 7.50431C9.95628 5.85342 9.13009 4.39808 7.86529 3.53337C7.83528 3.51537 7.80627 3.49636 7.77977 3.47486L2.8836 0.273095C2.63554 0.109056 2.33647 0.00603194 2.0159 3.05176e-05H1.95838Z" fill="url(#paint1_linear_202_15231)"/>
<path d="M21.3724 25.5431L10.1153 32.2157L9.95323 32.3132V32.3487L8.69493 33.0939L7.70619 33.6775L7.46364 33.8241L7.44713 33.8321C6.77047 34.1997 5.99479 34.4077 5.16859 34.4077C2.81153 34.4077 0.856567 32.7058 0.459473 30.4608C0.648017 32.1032 1.20765 33.632 2.05185 34.9639C3.79026 37.708 6.72996 39.617 10.1308 39.9485H12.2103C14.0497 39.7565 15.5856 39.0198 17.1999 38.0251L19.6825 36.5067C20.8008 35.79 23.836 34.0271 24.7302 33.0379C24.9248 32.8213 25.1003 32.5893 25.2539 32.3407C25.3729 32.1517 25.4789 31.9541 25.5679 31.7486C25.5979 31.6786 25.6265 31.6106 25.654 31.541C25.68 31.472 25.7045 31.4025 25.7295 31.332C25.776 31.197 25.813 31.0614 25.8485 30.9219C25.8665 30.8424 25.883 30.7639 25.8995 30.6858C25.9535 30.3913 25.983 30.0887 25.983 29.7751C25.983 28.8624 25.731 28.0052 25.2944 27.277C25.1943 27.107 25.0843 26.9444 24.9623 26.7909C24.8198 26.6059 24.6657 26.4343 24.4982 26.2743C24.0826 25.8717 23.5975 25.5416 23.0593 25.3096C22.8273 25.207 22.5852 25.1225 22.3362 25.061C22.3332 25.061 22.3282 25.058 22.3252 25.058L22.2391 25.029L21.3724 25.5431Z" fill="#7F7F7F"/>
<path d="M21.3724 25.5431L10.1153 32.2157L9.95323 32.3132V32.3487L8.69493 33.0939L7.70619 33.6775L7.46364 33.8241L7.44713 33.8321C6.77047 34.1997 5.99479 34.4077 5.16859 34.4077C2.81153 34.4077 0.856567 32.7058 0.459473 30.4608C0.648017 32.1032 1.20765 33.632 2.05185 34.9639C3.79026 37.708 6.72996 39.617 10.1308 39.9485H12.2103C14.0497 39.7565 15.5856 39.0198 17.1999 38.0251L19.6825 36.5067C20.8008 35.79 23.836 34.0271 24.7302 33.0379C24.9248 32.8213 25.1003 32.5893 25.2539 32.3407C25.3729 32.1517 25.4789 31.9541 25.5679 31.7486C25.5979 31.6786 25.6265 31.6106 25.654 31.541C25.68 31.472 25.7045 31.4025 25.7295 31.332C25.776 31.197 25.813 31.0614 25.8485 30.9219C25.8665 30.8424 25.883 30.7639 25.8995 30.6858C25.9535 30.3913 25.983 30.0887 25.983 29.7751C25.983 28.8624 25.731 28.0052 25.2944 27.277C25.1943 27.107 25.0843 26.9444 24.9623 26.7909C24.8198 26.6059 24.6657 26.4343 24.4982 26.2743C24.0826 25.8717 23.5975 25.5416 23.0593 25.3096C22.8273 25.207 22.5852 25.1225 22.3362 25.061C22.3332 25.061 22.3282 25.058 22.3252 25.058L22.2391 25.029L21.3724 25.5431Z" fill="url(#paint2_linear_202_15231)"/>
<path opacity="0.15" d="M25.983 29.7751C25.983 30.0887 25.9535 30.3918 25.899 30.6863C25.883 30.7644 25.8665 30.8424 25.848 30.9214C25.813 31.0614 25.776 31.197 25.7295 31.3325C25.705 31.4025 25.68 31.4725 25.654 31.5405C25.627 31.6106 25.5979 31.6786 25.5674 31.7486C25.4783 31.9535 25.3736 32.1513 25.2544 32.3402C25.101 32.5879 24.9256 32.8213 24.7302 33.0374C23.836 34.0271 20.8008 35.79 19.6825 36.5067L17.1999 38.0251C15.38 39.1463 13.6606 39.94 11.4921 39.9945C11.3896 39.9975 11.289 40 11.1895 40C11.0495 40 10.9115 39.9975 10.7729 39.992C7.10105 39.852 3.89879 37.879 2.05185 34.9639C1.18763 33.6024 0.643202 32.0628 0.459473 30.4608C0.856567 32.7058 2.81153 34.4077 5.16859 34.4077C5.99479 34.4077 6.77047 34.1992 7.44713 33.8321L7.46364 33.8236L7.70619 33.6775L8.69493 33.0939L9.95323 32.3487V32.3132L10.1153 32.2157L21.3724 25.5426L22.2391 25.029L22.3252 25.058C22.3277 25.058 22.3332 25.061 22.3362 25.061C22.5852 25.1225 22.8278 25.207 23.0593 25.3096C23.5975 25.5416 24.0821 25.8717 24.4982 26.2743C24.6657 26.4346 24.8208 26.6073 24.9623 26.7909C25.0843 26.9444 25.1943 27.107 25.2944 27.277C25.731 28.0052 25.983 28.8624 25.983 29.7751Z" fill="#7F7F7F"/>
<path opacity="0.15" d="M25.983 29.7751C25.983 30.0887 25.9535 30.3918 25.899 30.6863C25.883 30.7644 25.8665 30.8424 25.848 30.9214C25.813 31.0614 25.776 31.197 25.7295 31.3325C25.705 31.4025 25.68 31.4725 25.654 31.5405C25.627 31.6106 25.5979 31.6786 25.5674 31.7486C25.4783 31.9535 25.3736 32.1513 25.2544 32.3402C25.101 32.5879 24.9256 32.8213 24.7302 33.0374C23.836 34.0271 20.8008 35.79 19.6825 36.5067L17.1999 38.0251C15.38 39.1463 13.6606 39.94 11.4921 39.9945C11.3896 39.9975 11.289 40 11.1895 40C11.0495 40 10.9115 39.9975 10.7729 39.992C7.10105 39.852 3.89879 37.879 2.05185 34.9639C1.18763 33.6024 0.643202 32.0628 0.459473 30.4608C0.856567 32.7058 2.81153 34.4077 5.16859 34.4077C5.99479 34.4077 6.77047 34.1992 7.44713 33.8321L7.46364 33.8236L7.70619 33.6775L8.69493 33.0939L9.95323 32.3487V32.3132L10.1153 32.2157L21.3724 25.5426L22.2391 25.029L22.3252 25.058C22.3277 25.058 22.3332 25.061 22.3362 25.061C22.5852 25.1225 22.8278 25.207 23.0593 25.3096C23.5975 25.5416 24.0821 25.8717 24.4982 26.2743C24.6657 26.4346 24.8208 26.6073 24.9623 26.7909C25.0843 26.9444 25.1943 27.107 25.2944 27.277C25.731 28.0052 25.983 28.8624 25.983 29.7751Z" fill="url(#paint3_linear_202_15231)"/>
</g>
<defs>
<linearGradient id="paint0_linear_202_15231" x1="14.6995" y1="14.2068" x2="27.4863" y2="28.4574" gradientUnits="userSpaceOnUse">
<stop stop-color="#37BDFF"/>
<stop offset="0.25" stop-color="#26C6F4"/>
<stop offset="0.5" stop-color="#15D0E9"/>
<stop offset="0.75" stop-color="#3BD6DF"/>
<stop offset="1" stop-color="#62DCD4"/>
</linearGradient>
<linearGradient id="paint1_linear_202_15231" x1="5.82725" y1="33.8021" x2="5.416" y2="2.179" gradientUnits="userSpaceOnUse">
<stop stop-color="#1B48EF"/>
<stop offset="0.5" stop-color="#2080F1"/>
<stop offset="1" stop-color="#26B8F4"/>
</linearGradient>
<linearGradient id="paint2_linear_202_15231" x1="13.2212" y1="32.4887" x2="44.169" y2="32.4887" gradientUnits="userSpaceOnUse">
<stop stop-color="#39D2FF"/>
<stop offset="0.5" stop-color="#248FFA"/>
<stop offset="1" stop-color="#104CF5"/>
</linearGradient>
<linearGradient id="paint3_linear_202_15231" x1="13.2212" y1="32.4887" x2="44.169" y2="32.4887" gradientUnits="userSpaceOnUse">
<stop stop-color="white"/>
<stop offset="1"/>
</linearGradient>
<clipPath id="clip0_202_15231">
<rect width="28" height="40" fill="white"/>
</clipPath>
</defs>
</svg>
