<svg width="37" height="37" viewBox="0 0 37 37" fill="none" xmlns="http://www.w3.org/2000/svg">
<g clip-path="url(#clip0_202_9241)">
<path d="M35.4669 22.3554C33.0619 32.0035 23.287 37.8683 13.6528 35.4633C4.0045 33.0583 -1.86042 23.2837 0.544621 13.6497C2.94966 4.00161 12.7105 -1.86319 22.3588 0.541801C31.993 2.93272 37.872 12.7074 35.4669 22.3554Z" fill="url(#paint0_linear_202_9241)"/>
<path d="M26.5757 15.7595C26.9273 13.3689 25.1132 12.0752 22.6101 11.2174L23.4257 7.96892L21.457 7.47673L20.6695 10.6408C20.1492 10.5142 19.6148 10.3877 19.0804 10.2752L19.8679 7.09705L17.8992 6.60486L17.0976 9.83923C16.6617 9.7408 16.2398 9.64236 15.832 9.54392V9.52986L13.1039 8.85486L12.5835 10.9642C12.5835 10.9642 14.046 11.3017 14.0179 11.3158C14.8195 11.5127 14.9601 12.047 14.932 12.4689L14.0039 16.1674C14.0601 16.1814 14.1304 16.1955 14.2148 16.2377C14.1445 16.2236 14.0742 16.2095 14.0039 16.1814L12.7101 21.3564C12.6117 21.5955 12.3585 21.9611 11.8101 21.8205C11.8242 21.8486 10.3757 21.4689 10.3757 21.4689L9.39136 23.733L11.9648 24.3799C12.4429 24.5064 12.907 24.6189 13.371 24.7455L12.5554 28.022L14.5242 28.5142L15.3398 25.2658C15.8742 25.4064 16.4085 25.547 16.9148 25.6736L16.1132 28.908L18.082 29.4002L18.8976 26.1236C22.2726 26.7564 24.8039 26.5033 25.8585 23.4517C26.7164 21.0049 25.8164 19.5845 24.0445 18.6564C25.3523 18.3611 26.3226 17.5033 26.5757 15.7595ZM22.0617 22.0877C21.457 24.5345 17.3226 23.2127 15.9867 22.8752L17.0695 18.5299C18.4054 18.8674 22.7085 19.5283 22.0617 22.0877ZM22.6804 15.7174C22.1179 17.9533 18.6867 16.8142 17.5757 16.533L18.5601 12.5955C19.671 12.8767 23.257 13.397 22.6804 15.7174Z" fill="white"/>
</g>
<defs>
<linearGradient id="paint0_linear_202_9241" x1="17.9958" y1="-0.00591542" x2="17.9958" y2="35.9989" gradientUnits="userSpaceOnUse">
<stop stop-color="#F9AA4B"/>
<stop offset="1" stop-color="#F7931A"/>
</linearGradient>
<clipPath id="clip0_202_9241">
<rect width="37" height="37" fill="white"/>
</clipPath>
</defs>
</svg>
