<svg width="34" height="37" viewBox="0 0 34 37" fill="none" xmlns="http://www.w3.org/2000/svg">
<g clip-path="url(#clip0_202_14111)">
<path d="M18.8081 0.495114C22.9622 2.89218 27.1162 5.28925 31.2703 7.68631C32.4375 8.36402 33.065 9.48097 33.065 10.9117V25.2188C33.065 26.5742 32.45 27.6284 31.2954 28.3061C27.1539 30.7032 22.9998 33.0877 18.8583 35.4847C17.6535 36.1875 16.3483 36.175 15.1309 35.4722C11.0019 33.0877 6.86041 30.7032 2.73143 28.3061C1.73997 27.7413 0.936768 26.5993 0.936768 25.156V10.2716C0.936768 8.96642 1.55172 8.30126 2.70633 7.63611L7.67616 4.77469V23.3865L17.0009 28.7705L26.3256 23.3865V12.6185L17.0009 7.23451L13.0852 9.49352V1.71247C13.7881 1.31087 14.4909 0.896716 15.2062 0.495114C16.2981 -0.14494 17.6535 -0.170041 18.8081 0.495114Z" fill="#2A5D84"/>
<path d="M20.9165 15.7184V17.9774V20.2364L18.9586 21.3659L17.0008 22.508L15.043 21.3659L13.0852 20.2364V17.9774V15.7184L15.043 14.5889L17.0008 13.4594L18.9586 14.5889L20.9165 15.7184Z" fill="#1A3B54"/>
<path d="M20.7785 15.8063L17.001 13.6226L13.2234 15.8063L17.001 18.0025L20.7785 15.8063Z" fill="url(#paint0_linear_202_14111)"/>
<path d="M17.0007 22.3447L20.7783 20.161V15.8062L17.0007 17.9773V22.3447Z" fill="url(#paint1_linear_202_14111)"/>
<path d="M17.001 22.3447L13.2234 20.161V15.8062L17.001 17.9773V22.3447Z" fill="url(#paint2_linear_202_14111)"/>
<path d="M13.2234 1.80024V9.25499L17.001 7.07127L26.4637 12.5306V12.5682L32.5003 9.10439C32.2117 8.57728 31.785 8.13803 31.1951 7.79918C27.041 5.41466 22.887 3.0176 18.7329 0.62053C17.6536 -0.00697368 16.3484 -0.00697368 15.2691 0.62053C14.5913 1.00958 13.9011 1.39864 13.2234 1.80024Z" fill="url(#paint3_linear_202_14111)"/>
<path d="M7.53824 23.4492V23.3864C7.53824 17.0737 7.56334 11.0873 7.56334 4.77466L2.80686 7.51058C1.70246 8.15063 1.07495 9.00404 1.07495 10.2716V25.156C1.07495 25.7709 1.2381 26.3734 1.52675 26.9005L7.53824 23.4492Z" fill="url(#paint4_linear_202_14111)"/>
</g>
<defs>
<linearGradient id="paint0_linear_202_14111" x1="14.3228" y1="15.8113" x2="44.3268" y2="15.8113" gradientUnits="userSpaceOnUse">
<stop stop-color="white" stop-opacity="0"/>
<stop offset="1" stop-color="white"/>
</linearGradient>
<linearGradient id="paint1_linear_202_14111" x1="17.1986" y1="21.2273" x2="35.6912" y2="13.3501" gradientUnits="userSpaceOnUse">
<stop stop-color="white" stop-opacity="0"/>
<stop offset="1" stop-color="white"/>
</linearGradient>
<linearGradient id="paint2_linear_202_14111" x1="15.591" y1="18.6839" x2="-2.71812" y2="23.6348" gradientUnits="userSpaceOnUse">
<stop stop-color="white" stop-opacity="0"/>
<stop offset="1" stop-color="white"/>
</linearGradient>
<linearGradient id="paint3_linear_202_14111" x1="15.3697" y1="2.62168" x2="50.2631" y2="74.7458" gradientUnits="userSpaceOnUse">
<stop stop-color="white" stop-opacity="0"/>
<stop offset="1" stop-color="white"/>
</linearGradient>
<linearGradient id="paint4_linear_202_14111" x1="4.52129" y1="5.33533" x2="-0.435775" y2="28.2488" gradientUnits="userSpaceOnUse">
<stop stop-color="#1A3B54" stop-opacity="0"/>
<stop offset="1" stop-color="#1A3B54"/>
</linearGradient>
<clipPath id="clip0_202_14111">
<rect width="34" height="37" fill="white"/>
</clipPath>
</defs>
</svg>
