<svg width="36" height="30" viewBox="0 0 36 30" fill="none" xmlns="http://www.w3.org/2000/svg">
<g clip-path="url(#clip0_202_14128)">
<path d="M17.6533 5.30426L18.6922 5.30503C23.1886 5.31844 26.6186 5.46076 28.8017 5.59325L29.0451 5.60829C31.3541 5.75149 33.2694 7.36246 33.8064 9.61781L33.8871 9.96229C34.3176 11.8106 34.8805 14.4164 35.2676 17.023L35.3435 17.5383C35.6064 19.3612 35.822 21.4961 35.9901 23.8838C36.0796 25.2979 35.6142 26.6583 34.6655 27.7143C33.7169 28.7704 32.4102 29.379 30.9961 29.4506L30.0942 29.4909C27.0433 29.6233 22.7588 29.7685 18.2022 29.7727L17.3985 29.772C12.9922 29.76 8.86889 29.6194 5.90775 29.4909L5.00584 29.4506C3.57387 29.3969 2.28509 28.7704 1.33641 27.7143C0.387733 26.6583 -0.0776574 25.2979 0.0118408 23.8838L0.0458309 23.4108C0.206491 21.2201 0.396272 19.2633 0.639158 17.5522L0.692027 17.1894C1.10372 14.3612 1.73021 11.5152 2.1777 9.61781C2.70891 7.38671 4.58892 5.76869 6.88198 5.61286L7.62968 5.56801C9.88108 5.43989 13.2758 5.3108 17.6533 5.30426ZM18.3616 7.75651H17.675C12.8891 7.76373 9.30342 7.92068 7.118 8.06054C5.88292 8.15004 4.88054 8.99133 4.59415 10.1906L4.48385 10.6505C4.05066 12.4779 3.50657 15.0278 3.14428 17.5474L3.09141 17.897C2.83124 19.6651 2.63302 21.7292 2.48199 24.0449C2.42829 24.7967 2.67889 25.5127 3.18008 26.0676C3.68127 26.6225 4.36145 26.9447 5.11324 26.9805L6.29617 27.0332C9.30264 27.1621 13.4164 27.2985 17.7985 27.3026L18.6071 27.3018C23.442 27.2884 27.9159 27.1179 30.8887 26.9805C31.6405 26.9447 32.3207 26.6225 32.8219 26.0676C33.3052 25.5127 33.5558 24.7967 33.5558 24.0449L33.5218 23.5851C33.3497 21.3031 33.1452 19.2758 32.8935 17.5474C32.4818 14.8087 31.8732 12.0343 31.4436 10.1906C31.1572 8.99133 30.1369 8.13214 28.9198 8.06054L28.257 8.02026C26.0375 7.89214 22.6773 7.76305 18.3616 7.75651ZM21.9926 20.0175C21.9926 22.2192 20.2026 24.0091 18.001 24.0091C15.8036 24.0091 14.0273 22.2372 13.992 20.0829L13.9915 20.0175H21.9926ZM9.05116 15.0593C10.4105 15.0593 11.4913 16.1389 11.5207 17.4737L11.5213 17.5295H6.58101C6.58101 16.1691 7.69078 15.0593 9.05116 15.0593ZM26.9508 15.0593C28.3102 15.0593 29.391 16.1389 29.4203 17.4737L29.4209 17.5295H24.4806C24.4806 16.1691 25.5904 15.0593 26.9508 15.0593ZM18.001 0.238403C18.8602 0.238403 19.5403 0.936489 19.5403 1.77777C19.5403 2.61906 18.8423 3.29924 18.001 3.29924C17.1597 3.29924 16.4616 2.60116 16.4616 1.77777C16.4616 0.91859 17.1597 0.238403 18.001 0.238403Z" fill="#683D87"/>
</g>
<defs>
<clipPath id="clip0_202_14128">
<rect width="36.001" height="30" fill="white"/>
</clipPath>
</defs>
</svg>
