<svg width="37" height="30" viewBox="0 0 37 30" fill="none" xmlns="http://www.w3.org/2000/svg">
<g clip-path="url(#clip0_202_10740)">
<path d="M14.128 16.5787C14.2589 14.2436 15.4024 12.1863 17.1275 10.728C18.8192 9.29555 21.0963 8.42004 23.5808 8.42004C26.0629 8.42004 28.3399 9.29555 30.0329 10.728C31.7568 12.1863 32.9002 14.2436 33.0324 16.5762C33.1633 18.9756 32.1989 21.2045 30.5071 22.8567C28.782 24.5373 26.3284 25.5919 23.5808 25.5919C20.8333 25.5919 18.3747 24.5373 16.6508 22.8567C14.9578 21.2045 13.9959 18.9756 14.128 16.5787Z" fill="white"/>
<path d="M18.7315 16.787C18.7987 15.5888 19.3854 14.5332 20.2706 13.7849C21.1386 13.0499 22.307 12.6007 23.5818 12.6007C24.8554 12.6007 26.0238 13.0499 26.8925 13.7849C27.777 14.5332 28.3637 15.5888 28.4315 16.7857C28.4987 18.0168 28.0038 19.1605 27.1358 20.0083C26.2506 20.8706 24.9916 21.4117 23.5818 21.4117C22.172 21.4117 20.9105 20.8706 20.026 20.0083C19.1573 19.1605 18.6637 18.0168 18.7315 16.787Z" fill="#265787"/>
<path d="M11.0312 19.2485C11.0394 19.7183 11.1893 20.6314 11.414 21.3445C11.8865 22.8538 12.6878 24.2501 13.8028 25.4807C14.947 26.7456 16.356 27.7615 17.9834 28.4828C19.6941 29.2404 21.5475 29.6264 23.4728 29.6233C25.3948 29.6207 27.2483 29.227 28.9589 28.4638C30.5863 27.7355 31.9941 26.7151 33.1364 25.4496C34.2508 24.2139 35.0508 22.8151 35.5245 21.3058C35.7626 20.5432 35.9131 19.7691 35.9734 18.9926C36.0325 18.2274 36.0077 17.461 35.8991 16.6952C35.6871 15.2031 35.1708 13.803 34.3759 12.5267C33.6488 11.3539 32.7116 10.3271 31.5972 9.46293L31.5998 9.46103L20.3538 0.826062C20.3436 0.818442 20.3354 0.810188 20.3246 0.803203C19.5867 0.236809 18.346 0.238714 17.5345 0.806378C16.7141 1.38039 16.6202 2.32967 17.3504 2.92845L17.3472 2.93162L22.0377 6.74589L7.74137 6.76113H7.72232C6.54064 6.7624 5.40468 7.5377 5.1799 8.51746C4.94877 9.51563 5.75137 10.3436 6.98004 10.3481L6.97814 10.3525L14.2244 10.3386L1.29388 20.2638C1.27737 20.2758 1.25959 20.2885 1.24435 20.3006C0.0245731 21.2347 -0.369744 22.7878 0.398571 23.7707C1.17831 24.7702 2.83622 24.7721 4.0687 23.7764L11.1258 18.0007C11.1258 18.0007 11.0229 18.7805 11.0312 19.2485ZM29.1653 21.8595C27.7112 23.3409 25.6755 24.1809 23.4728 24.1854C21.2669 24.1892 19.2312 23.3567 17.7771 21.8779C17.0665 21.1572 16.5446 20.3279 16.2227 19.4447C15.9071 18.5767 15.7845 17.6553 15.8658 16.7257C15.9427 15.8171 16.2132 14.9503 16.6449 14.1662C17.0691 13.3953 17.6533 12.6987 18.3746 12.1095C19.788 10.9577 21.5875 10.3341 23.4696 10.3316C25.3535 10.329 27.1518 10.9469 28.5665 12.0949C29.2866 12.6816 29.8701 13.3756 30.2943 14.1452C30.7279 14.9288 30.9965 15.7923 31.0765 16.7035C31.1565 17.6318 31.034 18.5519 30.7184 19.4205C30.3959 20.3063 29.8758 21.1356 29.1653 21.8595Z" fill="#EA7600"/>
</g>
<defs>
<clipPath id="clip0_202_10740">
<rect width="37" height="30" fill="white"/>
</clipPath>
</defs>
</svg>
