<svg width="34" height="37" viewBox="0 0 34 37" fill="none" xmlns="http://www.w3.org/2000/svg">
<g clip-path="url(#clip0_202_12611)">
<path d="M17.0022 0.00415039C16.1481 0.00415039 15.2939 0.225066 14.5286 0.667023L3.22472 7.19329C1.69393 8.07708 0.750977 9.71033 0.750977 11.4778V24.5304C0.750977 26.298 1.69393 27.9313 3.22472 28.8149L14.5286 35.3413C15.2939 35.7831 16.1481 36.0041 17.0022 36.0041C17.8564 36.0041 18.7105 35.7831 19.4759 35.3413L30.7798 28.8149C32.3106 27.9313 33.2536 26.298 33.2536 24.5304V11.4778C33.2536 9.71033 32.3106 8.07708 30.7798 7.19329L19.4759 0.667023C18.7105 0.225066 17.8564 0.00415039 17.0022 0.00415039Z" fill="white"/>
<path d="M30.7798 7.19363L19.4759 0.667235C17.9452 -0.216552 16.0594 -0.216552 14.5286 0.667235L3.22472 7.19363C1.69393 8.07729 0.750977 9.71054 0.750977 11.478V24.5306C0.750977 26.2982 1.69393 27.9315 3.22472 28.8151L14.5286 35.3415C16.0594 36.2253 17.9452 36.2253 19.4759 35.3415L30.7798 28.8151C32.3106 27.9315 33.2536 26.2982 33.2536 24.5306V11.478C33.2536 9.71054 32.3106 8.07729 30.7798 7.19363ZM31.6988 23.9064C31.6988 25.5047 30.8461 26.9817 29.4618 27.7809L19.2393 33.6829C17.855 34.4821 16.1495 34.4821 14.7652 33.6829L4.54272 27.7809C3.15844 26.9817 2.30576 25.5047 2.30576 23.9064V12.1024C2.30576 10.5039 3.15844 9.02697 4.54272 8.22787L14.7652 2.32588C16.1495 1.52665 17.855 1.52665 19.2393 2.32588L29.4618 8.22787C30.8461 9.02697 31.6988 10.5039 31.6988 12.1024V23.9064Z" fill="#298AEC"/>
<path d="M10.0356 14.0039H24.4366V15.2664H10.0356V14.0039Z" fill="#44546C"/>
<path d="M10.0356 18.2494H24.4366V19.5119H10.0356V18.2494Z" fill="#44546C"/>
<path d="M10.0356 22.4808H24.4366V23.7434H10.0356V22.4808Z" fill="#44546C"/>
</g>
<defs>
<clipPath id="clip0_202_12611">
<rect width="34" height="37" fill="white"/>
</clipPath>
</defs>
</svg>
