<svg width="37" height="37" viewBox="0 0 37 37" fill="none" xmlns="http://www.w3.org/2000/svg">
<g clip-path="url(#clip0_202_10582)">
<path d="M4.11517 35.8607C3.44148 35.6832 2.86016 35.4221 2.32401 35.0561C1.87142 34.7471 1.20992 34.1084 0.958355 33.7375C0.651109 33.2845 0.297942 32.5087 0.15401 31.9707C0.00720582 31.4219 0.00482646 31.2033 0.00219223 18.03C-0.000426758 4.92328 0.00255319 4.63508 0.146444 4.07181C0.655306 2.07989 2.23106 0.564345 4.26335 0.112219C4.84768 -0.0177779 30.9505 -0.0405144 31.5808 0.0884276C33.2872 0.437489 34.6285 1.46375 35.4047 3.01408C36.0217 4.24662 35.9666 2.89029 35.9948 17.5244C36.0128 26.8355 35.9962 30.7446 35.9369 31.2316C35.659 33.5105 34.0898 35.2781 31.8319 35.8557C31.2543 36.0034 31.0534 36.0055 17.9398 36.0015C5.26057 35.9977 4.60937 35.991 4.11517 35.8607Z" fill="#F06A35"/>
<path d="M23.1118 29.0378C24.7248 28.8178 25.9887 28.1713 27.1745 26.9599C28.0323 26.0836 28.5693 25.135 28.9202 23.8761C29.0659 23.3531 29.0782 23.0985 29.1049 20.0278C29.125 17.7102 29.1082 16.6248 29.0479 16.3507C28.9604 15.9535 28.7124 15.5847 28.4295 15.4309C28.3425 15.3836 27.7847 15.3233 27.19 15.2969C26.1934 15.2526 26.0819 15.2332 25.7674 15.0489C25.2684 14.7565 25.131 14.4407 25.1297 13.5835C25.1271 11.9456 24.4455 10.4251 23.0987 9.05266C22.1392 8.07494 21.0689 7.41314 19.8474 7.04231C19.555 6.95354 18.9002 6.92333 16.7069 6.89741C13.2655 6.85674 12.5016 6.92729 11.3301 7.39394C9.17011 8.25427 7.61814 10.0674 7.05203 12.3919C6.9457 12.8285 6.92506 13.5282 6.89994 17.5477C6.86848 22.5831 6.90318 23.3226 7.21783 24.3205C7.47778 25.1449 7.74007 25.6502 8.28041 26.3673C9.30977 27.7333 10.8525 28.7199 12.3948 28.9985C13.1288 29.1312 22.1844 29.1643 23.1118 29.0378Z" fill="white"/>
<path d="M22.8275 21.1582C23.4229 21.7141 23.2973 22.7038 22.5798 23.1101L21.8426 23.23L17.4918 23.2804C14.5584 23.3077 13.677 23.25 13.4968 23.1785L13.4911 23.1761C13.1371 23.0219 12.8075 22.5935 12.7505 22.2136C12.6963 21.8517 12.8781 21.3543 13.1569 21.102L13.219 21.048C13.4937 20.8222 13.8099 20.7817 16.4019 20.7726L19.3996 20.7695C22.43 20.7717 22.4566 20.8118 22.8275 21.1582ZM18.5564 12.9525C19.0184 13.1859 19.2192 13.515 19.2192 14.039C19.2192 14.494 19.0449 14.8182 18.6576 15.0793L18.5825 15.1273C18.3941 15.2397 18.2093 15.2594 16.7485 15.2707L15.806 15.2761C14.6376 15.2785 13.7381 15.254 13.5944 15.2144C12.7698 14.9871 12.4617 13.8041 13.0677 13.1922L13.1242 13.1362C13.4486 12.822 13.655 12.7894 15.5558 12.7865L16.9882 12.7877C18.1987 12.7933 18.2954 12.8207 18.5564 12.9525Z" fill="#F06A35"/>
</g>
<defs>
<clipPath id="clip0_202_10582">
<rect width="37" height="37" fill="white"/>
</clipPath>
</defs>
</svg>
