<svg width="37" height="37" viewBox="0 0 37 37" fill="none" xmlns="http://www.w3.org/2000/svg">
<g clip-path="url(#clip0_202_13002)">
<path d="M18.0051 8.76653C15.0072 11.4857 13.2355 16.5445 12.9398 19.7432C13.7805 20.4041 14.5938 21.1532 15.4312 22.0214C15.634 22.2059 16.8647 23.3607 18.0064 25.266C19.1494 23.3614 20.3788 22.2059 20.5816 22.0214C21.4191 21.1532 22.2317 20.4041 23.0725 19.7432C22.7761 16.5439 21.0043 11.485 18.0051 8.76653Z" fill="#122941"/>
<path d="M21.6161 23.0539L21.5748 23.0931C21.5362 23.1278 17.7794 26.5444 17.43 31.651C20.2153 31.4613 23.1837 30.402 23.5265 30.2764C29.886 27.1031 31.2554 21.6864 31.1723 17.3826C26.8522 18.7023 24.3646 20.1967 21.6161 23.0539Z" fill="#122941"/>
<path d="M17.1899 26.8172C15.99 24.4972 14.4629 23.116 14.438 23.0931L14.3968 23.0539C11.6482 20.1967 9.16002 18.7023 4.84052 17.3826C4.75677 21.6864 6.12682 27.1031 12.4857 30.2764C12.7206 30.3621 14.1933 30.8888 15.9939 31.2722C16.1431 29.5913 16.6089 28.0937 17.1899 26.8172Z" fill="#122941"/>
<path d="M18.0064 2.6216C9.5238 2.6216 2.62319 9.52221 2.62319 18.0042C2.62319 26.4868 9.5238 33.3874 18.0064 33.3874C26.4884 33.3874 33.389 26.4868 33.389 18.0042C33.389 9.52221 26.4884 2.6216 18.0064 2.6216ZM18.0064 36.0045C8.08113 36.0045 0.00610352 27.9295 0.00610352 18.0042C0.00610352 8.07889 8.08113 0.0045166 18.0064 0.0045166C27.9317 0.0045166 36.0061 8.07889 36.0061 18.0042C36.0061 27.9295 27.9317 36.0045 18.0064 36.0045Z" fill="#122941"/>
</g>
<defs>
<clipPath id="clip0_202_13002">
<rect width="37" height="37" fill="white"/>
</clipPath>
</defs>
</svg>
