<svg width="29" height="37" viewBox="0 0 29 37" fill="none" xmlns="http://www.w3.org/2000/svg">
<g clip-path="url(#clip0_202_8938)">
<path d="M14.1474 36.0022C22.5199 36.0022 28.2889 32.2678 28.2889 18.0015C28.2889 3.73586 22.5199 0.00219727 14.1474 0.00219727C5.77523 0.00219727 0.00317383 3.73648 0.00317383 18.0015C0.00317383 32.2679 5.77467 36.0022 14.1474 36.0022Z" fill="white"/>
<path d="M15.6962 8.89076L18.8665 11.8673L15.6981 14.8413L15.6962 8.89076ZM15.6962 27.1111L18.8665 24.1353L15.6981 21.1606L15.6962 27.1111ZM12.3112 18.001L5.45768 11.5502L7.4442 9.68567L12.9038 14.8138V2.52467L22.8332 11.8459L16.2771 18.001L22.8344 24.1578L12.9046 33.4792V21.1892L7.44353 26.318L5.4569 24.4524L12.3112 18.001ZM14.1474 36.0022C22.5199 36.0022 28.2889 32.2678 28.2889 18.0015C28.2889 3.73586 22.5199 0.00219727 14.1474 0.00219727C5.77523 0.00219727 0.00317383 3.73648 0.00317383 18.0015C0.00317383 32.2679 5.77467 36.0022 14.1474 36.0022Z" fill="#0060A9"/>
</g>
<defs>
<clipPath id="clip0_202_8938">
<rect width="29" height="37" fill="white"/>
</clipPath>
</defs>
</svg>
