<svg width="32" height="37" viewBox="0 0 32 37" fill="none" xmlns="http://www.w3.org/2000/svg">
<g clip-path="url(#clip0_202_12749)">
<path d="M23.7401 13.5923L31.4782 18.1799V27.1804L23.7401 31.5912L16.002 27.1804V18.1821" fill="#00B46F"/>
<path d="M16.0023 0.00415039L23.7404 4.59176V13.5923L16.0023 18.003L8.26416 13.5923V4.59397" fill="#2294D9"/>
<path d="M23.7401 4.5918L31.4782 9.1794V18.1811L23.7401 22.5918L16.002 18.1811V9.1794" fill="#2294D9"/>
<path d="M8.26401 4.5918L16.0021 9.1794V18.1811L8.26401 22.5918L0.525879 18.1811V9.1794" fill="#F85551"/>
<path d="M8.26401 13.5923L16.0021 18.1799V27.1804L8.26401 31.5912L0.525879 27.1804V18.1821" fill="#F85551"/>
<path d="M16.0023 18.0042L23.7404 22.5918V31.5923L16.0023 36.003L8.26416 31.5923V22.5918" fill="#00B46F"/>
<path d="M23.7404 4.59176L16.0023 9.17936L8.26416 4.59176L16.0023 0.00415039L23.7404 4.59176ZM31.4786 9.17936L23.7404 13.7692L16.0023 9.18157L23.7404 4.59397L31.4786 9.18157V9.17936Z" fill="#30B2E9"/>
<path d="M16.0023 27.0037V18.0054L8.26416 22.593V31.5913" fill="#00AB64"/>
<path d="M23.7404 22.5918L16.0023 27.0025L8.26416 22.5918L16.0023 18.0042" fill="#00CE8E"/>
<path d="M16.0023 27.0037L8.26416 22.593L16.0023 18.0054V27.0037Z" fill="#00C783"/>
<path d="M16.0023 9.17936L8.26416 4.59176L16.0023 0.00415039V9.17936Z" fill="#2CAEE7"/>
<path d="M16.0021 9.17939L8.26401 13.7692L0.525879 9.1816L8.26401 4.59399" fill="#FB716C"/>
<path d="M31.4782 18.181L23.7401 22.5917L16.002 18.0041L23.7401 13.7703" fill="#1F8ED6"/>
<path d="M8.14462 31.5161L0.525879 27.1053L8.14462 22.5155V31.5161Z" fill="#F64743"/>
<path d="M8.26416 13.7692V4.59399L16.0023 9.1816V18.0031" fill="#F96560"/>
<path d="M16.0023 18.0042V9.17944L8.26416 13.7693V22.5907" fill="#B71D1D"/>
<path d="M16.0023 18.0042L8.26416 13.7704L16.0023 9.17944V18.0042Z" fill="#B21A1A"/>
<path d="M31.4784 27.1805L23.7402 22.5929L31.4784 18.1821V27.1805Z" fill="#10161A" fill-opacity="0.2"/>
<path d="M23.7401 31.5922V22.5916L16.002 27.0024V36.004L23.7401 31.5933V31.5922ZM31.4782 27.1815V18.1809L23.7401 22.5916V31.5922L31.4782 27.1815Z" fill="#007233"/>
<path d="M31.4784 27.1805L23.7402 22.5929L31.4784 18.1821V27.1805Z" fill="#00682C"/>
<path d="M31.4784 18.181V9.17932L23.7402 13.7691V22.5906" fill="#0759BA"/>
<path d="M31.4784 18.181L23.7402 13.7702L31.4784 9.17932V18.181Z" fill="#0860BF"/>
<path opacity="0.78" d="M0.525879 9.17932L8.26401 13.5923L16.0021 9.18153L8.44088 13.8576L8.26401 22.5552C8.26401 22.5552 8.26401 22.5586 8.26401 22.5552L8.08714 13.8554L0.525879 9.17932Z" fill="#FEBCB7"/>
<path opacity="0.78" d="M16.002 9.17944L23.7401 13.5924L31.4782 9.18165L23.917 13.8577L23.7401 22.5907L23.5632 13.8577" fill="#4EDCF8"/>
<path opacity="0.78" d="M8.26416 22.5918L16.0023 26.8279L23.7404 22.5918L16.1792 27.091L16.0023 35.9976C16.0023 35.9976 16.0023 36.0009 16.0023 35.9976L15.8254 27.0921L8.26416 22.5929V22.5918Z" fill="#00F3C9"/>
</g>
<defs>
<clipPath id="clip0_202_12749">
<rect width="32" height="37" fill="white"/>
</clipPath>
</defs>
</svg>
