<svg width="40" height="22" viewBox="0 0 40 22" fill="none" xmlns="http://www.w3.org/2000/svg">
<g clip-path="url(#clip0_202_11419)">
<path d="M39.9591 17.863C39.1427 12.8671 27.5957 4.23605 23.358 1.82557C22.4249 1.28127 21.2197 0.989685 19.995 0.989685C18.7703 0.989685 17.6234 1.28127 16.6903 1.82557C13.7355 3.55567 4.05476 10.3205 0.963916 15.5108C0.497373 16.3078 0.166905 17.0854 0.0502692 17.7852C-0.105245 18.7378 0.108587 19.5542 0.672326 20.1957C1.13887 20.7206 1.78037 20.9927 2.57738 20.9927C4.75458 20.9927 7.90374 18.8933 11.2473 16.6577C14.5131 14.4611 17.915 12.2062 20.0144 12.2062C20.4615 12.2062 20.9669 12.3228 21.4918 12.4977C21.5112 12.4977 21.5307 12.4977 21.5307 12.5172C22.1916 12.7505 22.8914 13.0809 23.669 13.5086C23.7468 13.5475 23.8245 13.6058 23.9023 13.6447C24.2133 13.8196 24.5243 13.9946 24.8354 14.189C26.0212 14.9082 27.2458 15.7441 28.4705 16.5606C30.1617 17.7075 31.8141 18.8155 33.3109 19.6514C34.8271 20.4873 36.1879 21.0121 37.3348 21.0121C38.1707 21.0121 38.8511 20.7206 39.3565 20.1568C39.9008 19.5736 40.0952 18.7961 39.9591 17.863Z" fill="url(#paint0_linear_202_11419)"/>
<path opacity="0.4" d="M21.4918 12.517C20.9475 12.3226 20.4421 12.2254 20.0144 12.2254C17.915 12.2254 14.5325 14.4804 11.2473 16.677C7.90374 18.8931 4.75458 21.012 2.57738 21.012C1.78037 21.012 1.13887 20.7398 0.672326 20.215C0.108587 19.5735 -0.105245 18.757 0.0502692 17.8045C0.166905 17.1047 0.477934 16.3271 0.963916 15.5301C8.31196 8.59028 16.8847 10.5925 21.4918 12.517Z" fill="#1D1D1B"/>
</g>
<defs>
<linearGradient id="paint0_linear_202_11419" x1="27.9167" y1="4.45771" x2="24.2778" y2="29.6126" gradientUnits="userSpaceOnUse">
<stop offset="0.0137585" stop-color="#21D4FD"/>
<stop offset="0.996" stop-color="#B721FF"/>
</linearGradient>
<clipPath id="clip0_202_11419">
<rect width="40.001" height="22" fill="white"/>
</clipPath>
</defs>
</svg>
