<svg width="37" height="37" viewBox="0 0 37 37" fill="none" xmlns="http://www.w3.org/2000/svg">
<g clip-path="url(#clip0_202_15966)">
<path d="M0.00488281 31.3606C0.00488281 33.9245 2.08311 36.0024 4.64674 36.0024H31.363C33.9269 36.0024 36.0049 33.9242 36.0049 31.3606V4.6443C36.0049 2.08039 33.9267 0.00244141 31.363 0.00244141H4.64674C2.08283 0.00244141 0.00488281 2.08067 0.00488281 4.6443V31.3606Z" fill="#563D7C"/>
<path d="M14.9333 15.9265V10.8284H19.4208C19.8482 10.8284 20.2604 10.864 20.6572 10.9352C21.0541 11.0065 21.4052 11.1337 21.7104 11.3168C22.0157 11.5 22.2599 11.7544 22.4431 12.08C22.6263 12.4057 22.7178 12.8229 22.7178 13.3317C22.7178 14.2475 22.4431 14.909 21.8936 15.316C21.3441 15.723 20.642 15.9265 19.7872 15.9265H14.9333ZM10.1404 7.104V28.9009H20.703C21.6799 28.9009 22.6313 28.7788 23.5574 28.5345C24.4834 28.2903 25.3076 27.9138 26.0301 27.405C26.7526 26.8962 27.3276 26.2399 27.7549 25.436C28.1823 24.6321 28.396 23.6806 28.396 22.5816C28.396 21.218 28.0653 20.0529 27.4039 19.0862C26.7424 18.1195 25.7401 17.4428 24.3969 17.0561C25.3738 16.588 26.1115 15.9876 26.6101 15.2549C27.1088 14.5223 27.3581 13.6064 27.3581 12.5074C27.3581 11.4898 27.1902 10.6351 26.8544 9.94309C26.5186 9.25113 26.0454 8.69654 25.4348 8.27933C24.8243 7.86211 24.0916 7.56192 23.2368 7.37875C22.382 7.19559 21.4357 7.104 20.3977 7.104H10.1404ZM14.9333 25.1765V19.193H20.1535C21.1915 19.193 22.0259 19.4322 22.6568 19.9104C23.2877 20.3887 23.6032 21.1875 23.6032 22.3069C23.6032 22.8767 23.5065 23.3448 23.3131 23.7111C23.1198 24.0775 22.8603 24.3675 22.5347 24.5812C22.2091 24.7949 21.8325 24.9475 21.4052 25.0391C20.9778 25.1307 20.53 25.1765 20.0619 25.1765H14.9333Z" fill="white"/>
</g>
<defs>
<clipPath id="clip0_202_15966">
<rect width="37" height="37" fill="white"/>
</clipPath>
</defs>
</svg>
