<svg width="37" height="37" viewBox="0 0 37 37" fill="none" xmlns="http://www.w3.org/2000/svg">
<g clip-path="url(#clip0_202_15414)">
<mask id="mask0_202_15414" style="mask-type:alpha" maskUnits="userSpaceOnUse" x="0" y="0" width="37" height="37">
<path d="M36.0054 1.29109C36.0054 0.581011 35.4297 0.00537109 34.7197 0.00537109H1.29109C0.581011 0.00537109 0.00537109 0.581011 0.00537109 1.29109V34.7197C0.00537109 35.4297 0.581011 36.0054 1.29109 36.0054H34.7197C35.4297 36.0054 36.0054 35.4297 36.0054 34.7197V1.29109Z" fill="white"/>
</mask>
<g mask="url(#mask0_202_15414)">
<path d="M36.0054 1.29109C36.0054 0.581011 35.4297 0.00537109 34.7197 0.00537109H1.29109C0.581011 0.00537109 0.00537109 0.581011 0.00537109 1.29109V34.7197C0.00537109 35.4297 0.581011 36.0054 1.29109 36.0054H34.7197C35.4297 36.0054 36.0054 35.4297 36.0054 34.7197V1.29109Z" fill="#1F5296"/>
<path d="M1.29109 0.00537109H34.7197C35.4297 0.00537109 36.0054 0.581011 36.0054 1.29109V16.7197C36.0054 17.4297 35.4297 18.0054 34.7197 18.0054H1.29109C0.581011 18.0054 0.00537109 17.4297 0.00537109 16.7197V1.29109C0.00537109 0.581011 0.581011 0.00537109 1.29109 0.00537109Z" fill="#4BA2D9"/>
<path d="M1.29109 18.0054H34.7197C35.4297 18.0054 36.0054 18.581 36.0054 19.2911V34.7197C36.0054 35.4297 35.4297 36.0054 34.7197 36.0054H1.29109C0.581011 36.0054 0.00537109 35.4297 0.00537109 34.7197V19.2911C0.00537109 18.581 0.581011 18.0054 1.29109 18.0054Z" fill="#1F5296"/>
<path d="M7.71955 7.7196L18.0053 18.0053L7.71955 28.291L-2.56616 18.0053L7.71955 7.7196Z" fill="#356EB6"/>
<path d="M7.71972 28.8365L-3.11145 18.0054L7.71972 7.17419L18.5509 18.0054L7.71972 28.8365ZM-2.02055 18.0054L7.71972 27.7456L17.46 18.0054L7.71972 8.2651L-2.02055 18.0054Z" fill="white"/>
<path d="M28.2911 7.7196L38.5768 18.0053L28.2911 28.291L18.0054 18.0053L28.2911 7.7196Z" fill="#356EB6"/>
<path d="M28.2911 28.8365L17.46 18.0054L28.2911 7.17419L39.1223 18.0054L28.2911 28.8365ZM18.5509 18.0054L28.2911 27.7456L38.0314 18.0054L28.2911 8.2651L18.5509 18.0054Z" fill="white"/>
<path d="M7.59106 -2.69458H7.89964V38.7054H7.59106V-2.69458Z" fill="white"/>
<path d="M17.8768 -2.69458H18.1854V38.7054H17.8768V-2.69458Z" fill="white"/>
<path d="M28.1625 -2.69458H28.471V38.7054H28.1625V-2.69458Z" fill="white"/>
<path d="M7.71966 4.50537C9.49487 4.50537 10.9339 5.94445 10.9339 7.71966C10.9339 9.49487 9.49487 10.9339 7.71966 10.9339C5.94445 10.9339 4.50537 9.49487 4.50537 7.71966C4.50537 5.94445 5.94445 4.50537 7.71966 4.50537Z" fill="#1F5296"/>
<path d="M7.71969 11.5768C5.59286 11.5768 3.86255 9.84652 3.86255 7.71969C3.86255 5.59286 5.59286 3.86255 7.71969 3.86255C9.84652 3.86255 11.5768 5.59286 11.5768 7.71969C11.5768 9.84652 9.84652 11.5768 7.71969 11.5768ZM7.71969 5.14826C6.30181 5.14826 5.14826 6.30181 5.14826 7.71969C5.14826 9.13758 6.30181 10.2911 7.71969 10.2911C9.13758 10.2911 10.2911 9.13758 10.2911 7.71969C10.2911 6.30181 9.13758 5.14826 7.71969 5.14826Z" fill="white"/>
<path d="M28.2912 4.50537C30.0664 4.50537 31.5055 5.94445 31.5055 7.71966C31.5055 9.49487 30.0664 10.9339 28.2912 10.9339C26.516 10.9339 25.0769 9.49487 25.0769 7.71966C25.0769 5.94445 26.516 4.50537 28.2912 4.50537Z" fill="#1F5296"/>
<path d="M28.291 11.5768C26.1642 11.5768 24.4338 9.84652 24.4338 7.71969C24.4338 5.59286 26.1642 3.86255 28.291 3.86255C30.4179 3.86255 32.1481 5.59286 32.1481 7.71969C32.1481 9.84652 30.4179 11.5768 28.291 11.5768ZM28.291 5.14826C26.8731 5.14826 25.7196 6.30181 25.7196 7.71969C25.7196 9.13758 26.8731 10.2911 28.291 10.2911C29.7089 10.2911 30.8624 9.13758 30.8624 7.71969C30.8624 6.30181 29.7089 5.14826 28.291 5.14826Z" fill="white"/>
<path d="M7.71966 25.0768C9.49487 25.0768 10.9339 26.5159 10.9339 28.2911C10.9339 30.0663 9.49487 31.5054 7.71966 31.5054C5.94445 31.5054 4.50537 30.0663 4.50537 28.2911C4.50537 26.5159 5.94445 25.0768 7.71966 25.0768Z" fill="#4BA2D9"/>
<path d="M7.71969 32.1482C5.59286 32.1482 3.86255 30.4179 3.86255 28.2911C3.86255 26.1643 5.59286 24.434 7.71969 24.434C9.84652 24.434 11.5768 26.1643 11.5768 28.2911C11.5768 30.4179 9.84652 32.1482 7.71969 32.1482ZM7.71969 25.7197C6.30181 25.7197 5.14826 26.8732 5.14826 28.2911C5.14826 29.709 6.30181 30.8625 7.71969 30.8625C9.13758 30.8625 10.2911 29.709 10.2911 28.2911C10.2911 26.8732 9.13758 25.7197 7.71969 25.7197Z" fill="white"/>
<path d="M28.2912 25.0768C30.0664 25.0768 31.5055 26.5159 31.5055 28.2911C31.5055 30.0663 30.0664 31.5054 28.2912 31.5054C26.516 31.5054 25.0769 30.0663 25.0769 28.2911C25.0769 26.5159 26.516 25.0768 28.2912 25.0768Z" fill="#4BA2D9"/>
<path d="M28.291 32.1482C26.1642 32.1482 24.4338 30.4179 24.4338 28.2911C24.4338 26.1643 26.1642 24.434 28.291 24.434C30.4179 24.434 32.1481 26.1643 32.1481 28.2911C32.1481 30.4179 30.4179 32.1482 28.291 32.1482ZM28.291 25.7197C26.8731 25.7197 25.7196 26.8732 25.7196 28.2911C25.7196 29.709 26.8731 30.8625 28.291 30.8625C29.7089 30.8625 30.8624 29.709 30.8624 28.2911C30.8624 26.8732 29.7089 25.7197 28.291 25.7197Z" fill="white"/>
</g>
</g>
<defs>
<clipPath id="clip0_202_15414">
<rect width="37" height="37" fill="white"/>
</clipPath>
</defs>
</svg>
