<svg width="32" height="37" viewBox="0 0 32 37" fill="none" xmlns="http://www.w3.org/2000/svg">
<g clip-path="url(#clip0_202_11695)">
<path d="M11.5921 25.4377C11.9356 25.4377 12.2167 25.7162 12.2167 26.0605L12.215 29.5951C12.215 29.9385 12.4321 30.0423 12.6985 29.8243L17.5756 25.8322C17.8421 25.6142 18.3403 25.4368 18.6837 25.4368L26.752 25.442C27.7104 25.3858 28.5253 24.2561 28.5833 23.3512L28.5729 12.078C28.5729 11.7346 28.854 11.527 29.1983 11.527H30.7606C31.104 11.527 31.3851 11.7337 31.3851 12.078L31.4007 23.6358C31.4007 26.1349 29.5106 28.8278 26.6992 28.8278H19.6889C19.3455 28.8278 18.8464 28.7162 18.5808 28.9333L9.88369 35.9064C9.61726 36.1244 9.40013 35.9488 9.40013 35.6054L9.40359 28.9082C9.40359 28.5657 9.12245 28.2655 8.77903 28.2655L5.64499 28.2612C3.20212 28.2612 0.735023 25.8737 0.601807 23.4291V18.5632C0.601807 18.2189 1.0499 18.4464 1.39418 18.4464H2.95645C3.29987 18.4464 3.58101 18.4733 3.58101 18.8167L3.59744 23.3763C3.59744 24.2569 4.69777 25.3581 5.60693 25.4982L11.5921 25.4377ZM7.54895 15.8228C7.38891 16.1273 6.97715 16.3755 6.63287 16.3755H1.39418C1.05076 16.3755 0.769624 16.0944 0.769624 15.751V14.1887C0.769624 13.8453 1.05076 13.5641 1.39418 13.5641H4.93393C5.27735 13.5641 5.68997 13.315 5.85001 13.0114L10.5896 4.00891C10.7496 3.70528 11.0299 3.69404 11.2124 3.98469L15.2132 10.3497C15.3966 10.6412 15.6821 10.6325 15.8481 10.3315L21.4285 0.233877C21.5946 -0.0662916 21.8827 -0.075807 22.0686 0.213116L25.8947 6.16459C26.0807 6.45352 26.5132 6.68967 26.8575 6.68967H30.7597C31.1031 6.68967 31.3843 6.97081 31.3843 7.3151V8.8765C31.3843 9.21992 31.1031 9.50192 30.7597 9.50192H25.3203C24.9769 9.50192 24.5435 9.26576 24.3575 8.97684L22.2468 5.70266C22.0609 5.41374 21.7719 5.42325 21.6059 5.72429L16.0039 15.8565C15.8378 16.1567 15.5523 16.1645 15.3689 15.8747L11.4312 9.60572C11.2487 9.31507 10.9676 9.32545 10.8076 9.62908L7.54895 15.8228Z" fill="#0385CD"/>
</g>
<defs>
<clipPath id="clip0_202_11695">
<rect width="32" height="37" fill="white"/>
</clipPath>
</defs>
</svg>
