<svg width="37" height="36" viewBox="0 0 37 36" fill="none" xmlns="http://www.w3.org/2000/svg">
<g clip-path="url(#clip0_202_10829)">
<path d="M7.25522 35.7411C5.13445 35.7411 3.3424 34.1081 3.0455 32.0298C3.01368 31.7328 0.0764241 5.15965 0.0764241 4.86274C0.0446126 4.78852 0.00219727 4.71429 0.00219727 4.64006L0.00926649 3.74934C0.00926649 3.00707 0.299104 2.2648 0.892919 1.81944C1.38776 1.1514 2.52591 0.260681 18.0393 0.260681C33.5174 0.260681 34.6661 1.1514 35.1857 1.81944C35.7088 2.33903 36.0022 3.00707 36.0022 3.82357L35.9916 4.56584C35.9916 4.71429 36.0022 4.78852 35.928 4.93697L32.7751 32.0298C32.7751 32.104 32.7362 32.1782 32.7362 32.2524C32.3509 34.2566 30.5836 35.7411 28.5795 35.7411H7.25522Z" fill="#E5D1BF"/>
<path d="M34.896 3.77901C34.896 3.25943 34.6875 2.81406 34.3906 2.51716C33.6236 1.62644 26.5968 1.32953 17.9865 1.32953C9.41149 1.32953 2.39883 1.55221 1.58233 2.44293C1.28189 2.81406 1.06274 3.1852 1.06274 3.70479L1.06981 4.52128C1.06981 4.59551 1.06274 4.66973 1.13697 4.74396C1.10516 4.81819 4.10604 31.8367 4.10604 31.8367C4.32165 33.3955 5.66481 34.5831 7.22357 34.5831H28.5337C30.1597 34.5831 31.4957 33.3955 31.6442 31.8367H31.6795L34.8607 4.74396V4.52128V3.77901H34.896Z" fill="#FEF9EC"/>
<path d="M17.912 4.37286C26.1519 4.37286 32.8316 4.0073 32.8316 3.55636C32.8316 3.10543 26.1519 2.73987 17.912 2.73987C9.67216 2.73987 2.99243 3.10543 2.99243 3.55636C2.99243 4.0073 9.67216 4.37286 17.912 4.37286Z" fill="#E5D1BF"/>
<path d="M30.1593 29.2387C30.1239 30.2036 29.417 30.9459 28.4521 30.9459H7.36105C6.44205 30.9459 5.73866 30.2036 5.66443 29.2387C5.52305 26.715 4.62526 19.1438 4.62526 19.1438C4.60405 18.4758 4.92217 18.1047 5.66443 18.1047H30.1593C30.8309 18.1047 31.1985 18.4758 31.1985 19.1438C31.2197 19.1438 30.2335 26.715 30.1593 29.2387Z" fill="url(#paint0_linear_202_10829)"/>
<path opacity="0.65" d="M13.6878 19.4854C13.2637 20.005 13.3626 20.8215 13.9565 21.2668L18.5656 24.9039C19.1311 25.2751 19.9688 25.2009 20.34 24.607L23.9382 19.9307C24.3623 19.4112 24.274 18.5947 23.6802 18.1493L19.0604 14.5122C18.4949 14.1411 17.6678 14.2153 17.2224 14.8091L13.6878 19.4854Z" fill="#FEF9EC"/>
<path opacity="0.65" d="M9.26991 16.071C8.56299 16.1452 8.09289 16.8133 8.16712 17.4813L8.91645 23.3452C9.02249 24.0875 9.65165 24.5329 10.3939 24.4586L16.1624 23.7164C16.8693 23.5679 17.3712 22.9741 17.2228 22.2318L16.5159 16.3679C16.4098 15.6999 15.7383 15.1803 15.0702 15.3287L9.26991 16.071Z" fill="#FEF9EC"/>
</g>
<defs>
<linearGradient id="paint0_linear_202_10829" x1="17.0202" y1="17.8365" x2="17.6882" y2="35.8782" gradientUnits="userSpaceOnUse">
<stop stop-color="#FF992E"/>
<stop offset="0.635" stop-color="#FF4C2E"/>
<stop offset="1" stop-color="#E3302E"/>
</linearGradient>
<clipPath id="clip0_202_10829">
<rect width="37" height="36" fill="white"/>
</clipPath>
</defs>
</svg>
