<svg width="37" height="32" viewBox="0 0 37 32" fill="none" xmlns="http://www.w3.org/2000/svg">
<g clip-path="url(#clip0_202_15992)">
<path d="M35.3168 15.6366C33.4652 13.8574 24.2063 12.7467 21.2847 12.4234C21.4262 12.0892 21.5467 11.7435 21.6462 11.3876C22.0444 11.2132 22.4744 11.0509 22.9189 10.9154C22.9731 11.0752 23.2282 11.6874 23.3736 11.9779C29.2484 12.14 29.55 7.61221 29.7889 6.37179C30.0226 5.15892 30.0106 3.98699 32.0257 1.84456C29.0236 0.969716 24.7064 3.20049 23.2604 6.52076C22.7169 6.31715 22.1723 6.16678 21.6336 6.07377C21.2476 4.51664 19.2375 0.178467 13.9626 0.178467C7.28397 0.178467 0.00488281 5.68818 0.00488281 15.0151C0.00488281 22.8552 5.35761 29.726 8.38189 29.726C9.70263 29.726 10.8388 28.737 11.1055 27.8504C11.3291 28.4583 12.0152 30.3481 12.2405 30.8292C12.5736 31.5405 14.1138 32.1561 14.7878 31.4179C15.6545 31.8994 17.2447 32.1894 18.1115 30.9053C19.7806 31.2584 21.2562 30.2631 21.2885 29.0754C22.1075 29.0317 22.5093 27.8817 22.3304 26.9658C22.1986 26.2916 20.7902 23.8721 20.2408 23.037C21.3283 23.9216 24.0829 24.1719 24.4174 23.0375C26.1708 24.4138 28.9032 23.6914 29.1198 22.5722C31.2503 23.1257 33.6939 21.91 33.2926 20.4375C36.7152 20.2008 36.2771 16.5593 35.3168 15.6366Z" fill="#543729"/>
<path d="M25.7871 7.87026C26.5243 6.4077 27.4506 4.81073 28.6206 3.82272C27.3328 4.34171 26.0614 5.89315 25.3097 7.55138C24.9265 7.30784 24.5375 7.09061 24.1453 6.90062C25.1939 4.6623 27.6305 2.79299 30.3159 2.64697C28.5172 4.2782 29.1557 7.6686 27.6768 9.46342C27.2537 9.03838 26.282 8.2181 25.7871 7.87026ZM24.6245 10.2519C24.6253 10.1959 24.6462 9.76417 24.6855 9.5671C24.5824 9.54281 23.9413 9.41742 23.6071 9.42529C23.5828 9.84504 23.7835 10.5592 23.9819 10.989C25.3482 10.9604 26.3352 10.5512 26.916 10.1751C26.4215 9.94451 25.5776 9.73958 24.936 9.61699C24.8644 9.76511 24.6881 10.1425 24.6245 10.2519Z" fill="#00ACEE"/>
<path d="M19.5474 21.823L19.5488 21.8295C19.3756 21.4568 19.1917 21.0042 18.972 20.4125C19.8273 21.6573 22.5077 21.0153 22.3671 19.8998C23.6791 20.887 26.3796 19.7353 25.7657 18.3512C27.0799 18.9635 28.5799 17.7314 28.2435 17.1945C30.4841 17.6266 32.6313 18.0573 33.3053 18.2298C32.8575 18.9599 31.8378 19.4755 30.3006 19.1172C31.1312 20.2487 29.5185 21.6062 27.2722 20.8585C27.7667 21.9694 25.7667 22.9694 23.4936 21.8116C23.5225 22.9229 20.6736 23.0509 19.5474 21.823ZM23.992 16.206C26.5925 16.4056 30.8929 16.7934 33.5553 17.166C33.3871 16.2996 32.9276 16.052 31.4824 15.6638C29.928 15.8296 25.9844 16.217 23.992 16.206Z" fill="#2BAF2B"/>
<path d="M22.3671 19.8999C23.6791 20.887 26.3796 19.7354 25.7657 18.3512C27.0799 18.9636 28.5799 17.7315 28.2435 17.1946C25.5945 16.6838 22.8149 16.1712 22.1844 16.0816C22.5668 16.102 23.2008 16.1454 23.992 16.2062C25.9845 16.2171 29.928 15.8298 31.4824 15.664C28.9655 15.0258 23.827 14.0946 20.2783 13.8651C20.1138 14.1055 19.8115 14.5131 19.285 14.9462C17.7324 18.2313 14.9193 20.4149 11.8067 20.4149C10.8997 20.4149 9.88481 20.2619 8.74728 19.8983C8.03791 20.6582 5.0134 21.2341 2.55933 20.0296C4.50593 24.5876 9.02024 27.6303 14.0172 27.6303C18.2256 27.6303 20.0917 23.3328 19.6834 22.1957C19.5843 21.9197 19.1916 21.0043 18.9719 20.4127C19.8273 21.6574 22.5076 21.0154 22.3671 19.8999Z" fill="#FFCC2F"/>
<path d="M19.8167 11.2509C20.1883 11.0487 21.4724 10.2704 22.696 9.9779C22.6767 9.84239 22.6621 9.70572 22.6531 9.56827C21.8503 9.76051 20.3369 10.4092 19.4696 9.51526C21.2993 10.0674 22.2129 9.02328 23.5578 9.02328C24.3592 9.02328 25.5027 9.24713 26.4041 9.60103C25.6791 8.93128 23.3016 6.90996 20.3579 6.90295C19.7007 7.69973 18.9903 9.42567 19.8167 11.2509Z" fill="#CECECE"/>
<path d="M8.7473 19.8982C9.88483 20.2618 10.8997 20.4148 11.8068 20.4148C14.9193 20.4148 17.7323 18.2311 19.285 14.9461C18.1367 15.9047 16.1409 16.7249 13.0241 16.7249C15.8003 16.0954 18.1902 14.7119 19.406 12.6897C18.5514 11.3295 17.6245 8.32028 19.9717 5.9414C19.6107 4.78138 17.8532 1.71912 13.9626 1.71912C7.17274 1.71912 1.54565 7.40069 1.54565 15.0149C1.54565 16.8174 1.90952 18.5078 2.55943 20.0294C5.01342 21.234 8.03793 20.6581 8.7473 19.8982Z" fill="#EF5734"/>
<path d="M10.7844 8.30482C10.7844 10.0368 12.1885 11.4409 13.9205 11.4409C15.6525 11.4409 17.0567 10.0368 17.0567 8.30482C17.0567 6.57281 15.6525 5.1687 13.9205 5.1687C12.1885 5.1687 10.7844 6.57281 10.7844 8.30482Z" fill="#FFCC2F"/>
<path d="M12.0428 8.30477C12.0428 9.34166 12.8836 10.1823 13.9204 10.1823C14.9575 10.1823 15.7981 9.34166 15.7981 8.30477C15.7981 7.2678 14.9575 6.42712 13.9204 6.42712C12.8836 6.42712 12.0428 7.2678 12.0428 8.30477Z" fill="#543729"/>
<path d="M13.9204 8.1519C14.5246 8.1519 15.0145 7.84734 15.0145 7.47164C15.0145 7.09594 14.5246 6.79138 13.9204 6.79138C13.3161 6.79138 12.8263 7.09594 12.8263 7.47164C12.8263 7.84734 13.3161 8.1519 13.9204 8.1519Z" fill="white"/>
</g>
<defs>
<clipPath id="clip0_202_15992">
<rect width="37" height="32" fill="white"/>
</clipPath>
</defs>
</svg>
