<svg width="37" height="37" viewBox="0 0 37 37" fill="none" xmlns="http://www.w3.org/2000/svg">
<g clip-path="url(#clip0_202_13167)">
<path d="M30.0344 36.0014H5.96952C2.67369 36.0014 0.00195312 33.3297 0.00195312 30.0338V5.96897C0.00195312 2.67314 2.67369 0.00140381 5.96952 0.00140381H30.0344C33.3302 0.00140381 36.002 2.67314 36.002 5.96897V30.0338C36.002 33.3297 33.3302 36.0014 30.0344 36.0014Z" fill="#00AEEF"/>
<path d="M18.4265 15.1588C16.5535 15.1588 14.9237 16.2124 14.1029 17.7591C13.2818 16.2124 11.6528 15.1588 9.77852 15.1588C8.67798 15.1588 7.66127 15.5229 6.84086 16.1377V12.0142C6.83116 11.4813 6.39663 11.0548 5.86197 11.0548C5.32731 11.0548 4.897 11.4813 4.88477 12.0142V20.1341H4.88575C4.92892 22.8002 7.10158 24.948 9.77852 24.948C11.6528 24.948 13.2818 23.8934 14.1029 22.3483C14.9237 23.8934 16.5535 24.948 18.4265 24.948C21.1288 24.948 23.3208 22.7568 23.3208 20.0524C23.3208 17.3495 21.1288 15.1588 18.4265 15.1588ZM9.77852 22.9884C8.15697 22.9884 6.84086 21.6748 6.84086 20.0531C6.84086 18.432 8.15697 17.1183 9.77852 17.1183C11.3999 17.1183 12.7132 18.432 12.7132 20.0524C12.7132 21.6744 11.3999 22.9884 9.77852 22.9884ZM18.4265 22.9884C16.8046 22.9884 15.4894 21.6744 15.4894 20.0524C15.4894 18.432 16.8046 17.1183 18.4265 17.1183C20.0478 17.1183 21.3622 18.432 21.3622 20.0524C21.3622 21.6744 20.0478 22.9884 18.4265 22.9884Z" fill="white"/>
<path d="M30.9155 23.3093L28.2552 20.0461L30.9188 16.7765C31.2556 16.3452 31.159 15.7429 30.6941 15.423C30.2286 15.1003 29.5755 15.183 29.2154 15.6015V15.6009L26.9238 18.4095L24.6342 15.6009V15.6015C24.2778 15.183 23.6206 15.1003 23.1565 15.423C22.6925 15.7432 22.5955 16.3452 22.9339 16.7765H22.933L25.5919 20.0461L22.933 23.3093H22.9339C22.5955 23.742 22.6925 24.3423 23.1565 24.6636C23.6206 24.985 24.2778 24.9031 24.6342 24.4841L26.9238 21.6794L29.2121 24.4841C29.5727 24.9031 30.2255 24.985 30.691 24.6636C31.156 24.3423 31.253 23.742 30.9155 23.3093Z" fill="white"/>
</g>
<defs>
<clipPath id="clip0_202_13167">
<rect width="37" height="37" fill="white"/>
</clipPath>
</defs>
</svg>
