<svg width="33" height="32" viewBox="0 0 33 32" fill="none" xmlns="http://www.w3.org/2000/svg">
<g clip-path="url(#clip0_202_13091)">
<path fill-rule="evenodd" clip-rule="evenodd" d="M0.00195312 31.0563H26.1361V27.0807H3.97756V4.92214H26.1464V19.4685H24.2459L28.1188 23.3517L32.002 19.4685H30.1117V0.946533H0.00195312V31.0563ZM10.0796 7.36708C10.5933 7.2849 11.1788 7.22326 11.8568 7.1719C12.5349 7.12053 13.367 7.09999 14.3737 7.09999C15.2469 7.09999 16.079 7.1719 16.8597 7.31572C17.6405 7.45954 18.3288 7.70608 18.904 8.04509C19.4896 8.39437 19.9416 8.84637 20.2806 9.42165C20.6196 9.99694 20.784 10.716 20.784 11.579C20.784 12.0926 20.7121 12.5652 20.558 13.0069C20.4039 13.4486 20.1984 13.8287 19.9519 14.1574C19.6951 14.4862 19.4074 14.7533 19.089 14.969C18.7705 15.1847 18.4418 15.3183 18.113 15.3594C18.4829 15.4107 18.8835 15.5237 19.3355 15.6984C19.7772 15.873 20.1984 16.1298 20.5785 16.4791C20.9586 16.8181 21.2873 17.2701 21.5339 17.8043C21.7907 18.3488 21.914 18.996 21.914 19.7664C21.914 20.804 21.7188 21.6566 21.3284 22.3141C20.9381 22.9818 20.4142 23.4955 19.7464 23.8859C19.089 24.266 18.3185 24.5331 17.4453 24.6769C16.5721 24.8207 15.6578 24.8926 14.7024 24.8926C13.9628 24.8926 13.2437 24.8721 12.5246 24.831C11.8055 24.7899 10.9939 24.718 10.0796 24.605V7.36708ZM13.5519 21.9751V16.9928H14.9901C15.4832 16.9928 15.9352 17.0339 16.3461 17.116C16.757 17.1982 17.1063 17.3318 17.4042 17.5372C17.7021 17.7324 17.9281 17.9995 18.0822 18.3282C18.2363 18.657 18.3185 19.0679 18.3185 19.561C18.3185 20.0849 18.2158 20.5164 18.0103 20.8451C17.8048 21.1738 17.5377 21.4306 17.2193 21.6156C16.9008 21.8005 16.5516 21.9237 16.192 21.9854C15.8222 22.047 15.4729 22.0778 15.1339 22.0778C14.8976 22.0778 14.6305 22.0676 14.3326 22.0573C14.0347 22.0367 13.7779 22.0059 13.5519 21.9751ZM14.61 14.3629H13.5519V9.76066C13.8601 9.7093 14.2299 9.68875 14.6819 9.68875C15.0003 9.68875 15.3291 9.71957 15.6475 9.77093C15.9763 9.83257 16.2742 9.9353 16.531 10.1099C16.7981 10.2743 17.0138 10.5106 17.1782 10.8085C17.3426 11.1064 17.4247 11.4865 17.4247 11.9488C17.4247 12.4316 17.3528 12.822 17.209 13.1404C17.0652 13.4486 16.87 13.6952 16.6132 13.8801C16.3564 14.065 16.0585 14.1883 15.7092 14.2602C15.3804 14.3218 15.0106 14.3629 14.61 14.3629Z" fill="#40D1F5"/>
</g>
<defs>
<clipPath id="clip0_202_13091">
<rect width="33" height="32" fill="white"/>
</clipPath>
</defs>
</svg>
