<svg width="37" height="36" viewBox="0 0 37 36" fill="none" xmlns="http://www.w3.org/2000/svg">
<g clip-path="url(#clip0_202_14274)">
<path d="M36.002 18.0041C36.002 8.07656 27.927 0.00463867 18.0025 0.00463867C8.07798 0.00463867 0.00195312 8.07656 0.00195312 18.0041C0.00195312 27.3829 7.21221 35.1081 16.3807 35.9298H16.4248C16.5753 35.9427 16.726 35.954 16.8772 35.9636L16.9644 35.9687C17.1011 35.9769 17.24 35.9831 17.3808 35.9872H17.4906C17.6609 35.9872 17.8312 35.9954 18.0035 35.9954C18.1758 35.9954 18.3287 35.9954 18.4907 35.9882H18.5595C18.7024 35.9841 18.8446 35.9783 18.9862 35.9708H19.0149C19.3343 35.953 19.6516 35.9267 19.9669 35.8918C28.9702 34.9153 36.002 27.266 36.002 18.0041ZM19.9053 34.1787L19.7319 29.2006L24.0792 26.5335C25.0965 27.2308 26.4192 27.298 27.5019 26.7073C28.5845 26.1165 29.2439 24.968 29.2082 23.7352C29.1385 22.0086 27.7548 20.6249 26.0282 20.5553C25.05 20.5202 24.1079 20.9267 23.4624 21.6625C22.8169 22.3983 22.5364 23.3854 22.6985 24.3507L19.6304 26.2484L19.4078 19.9757L23.6864 17.3589C25.1894 18.4814 27.2821 18.3596 28.6449 17.0704C30.0076 15.7811 30.2451 13.6984 29.2076 12.1355C28.1701 10.5725 26.1585 9.98275 24.4413 10.738C22.7241 11.4933 21.7994 13.3746 22.2502 15.1955L19.3052 17.0235L19.1308 12.0176C20.532 11.4758 21.4326 10.1018 21.3701 8.60073C21.2972 6.85049 19.9436 5.42267 18.1997 5.25644C16.4559 5.09022 14.8569 6.23661 14.4546 7.94155C14.0523 9.64649 14.9701 11.3867 16.6043 12.0176L16.2863 22.3894L13.0807 20.347C13.2946 19.473 13.1925 18.5516 12.7925 17.7456C12.1514 16.4121 10.8589 15.4663 9.38483 15.374C7.56183 15.255 5.88357 16.3673 5.28293 18.0927C4.6823 19.818 5.30699 21.732 6.80976 22.7708C8.31254 23.8097 10.3238 23.7178 11.7257 22.5463L16.194 25.3734L15.9252 34.1592C7.92411 33.1386 1.70989 26.2833 1.70989 18.0041C1.71604 9.02439 9.0217 1.71668 18.0025 1.71668C26.9832 1.71668 34.2889 9.02233 34.2889 18.0031C34.2889 26.3407 27.9916 33.233 19.9053 34.1787Z" fill="#333E48"/>
<path d="M17.8997 6.63702C19.0701 6.63815 20.0187 7.5867 20.0198 8.75714C20.0198 9.92804 19.0706 10.8773 17.8997 10.8773C16.7288 10.8773 15.7796 9.92804 15.7796 8.75714C15.7796 7.58623 16.7288 6.63702 17.8997 6.63702ZM25.8923 21.9145C26.9541 21.914 27.8162 22.7724 27.8201 23.8342C27.8222 24.6129 27.3549 25.3161 26.6362 25.6158C25.9175 25.9155 25.089 25.7526 24.5372 25.2032C23.9855 24.6538 23.8191 23.826 24.1157 23.106C24.4124 22.3861 25.1136 21.9158 25.8923 21.9145ZM27.0787 16.3304C25.954 16.8769 24.5992 16.4098 24.0504 15.2862C23.6489 14.4625 23.7833 13.4781 24.3907 12.7921C24.9981 12.1061 25.959 11.8535 26.8252 12.1522C27.6914 12.4509 28.2924 13.242 28.3479 14.1566C28.4034 15.0712 27.9024 15.9292 27.0787 16.3304ZM9.05258 16.9604C10.4015 16.9616 11.4947 18.0548 11.4959 19.4037C11.4953 20.7523 10.4018 21.8452 9.05326 21.845C7.7047 21.8448 6.61152 20.7516 6.61133 19.403C6.61114 18.0545 7.70401 16.961 9.05258 16.9604Z" fill="#009BDE"/>
</g>
<defs>
<clipPath id="clip0_202_14274">
<rect width="37" height="36" fill="white"/>
</clipPath>
</defs>
</svg>
