<svg width="34" height="40" viewBox="0 0 34 40" fill="none" xmlns="http://www.w3.org/2000/svg">
<g clip-path="url(#clip0_202_12027)">
<path d="M32.5899 9.64145L33.4788 7.31667C33.4788 7.31667 32.3164 6.01752 30.8805 4.58162C29.4446 3.14573 26.436 3.96624 26.436 3.96624L23.0172 0.000427246H17.0001H10.9831L7.56425 3.96624C7.56425 3.96624 4.55571 3.14573 3.11981 4.58162C1.68391 6.01752 0.521518 7.31667 0.521518 7.31667L1.54716 9.64145L0.384766 13.0603C0.384766 13.0603 3.80357 26.3252 4.21383 27.9662C5.03434 31.1799 5.58135 32.4107 7.76938 33.9833C9.95741 35.556 14.1284 38.4278 14.7437 38.838C15.4275 39.2483 16.248 40.0004 17.0001 40.0004C17.7523 40.0004 18.5728 39.2483 19.2566 38.838C19.9403 38.4278 24.0429 35.6244 26.2309 33.9833C28.419 32.3423 29.0343 31.1115 29.7865 27.9662C30.1967 26.3252 33.6155 13.0603 33.6155 13.0603L32.5899 9.64145Z" fill="url(#paint0_linear_202_12027)"/>
<path d="M17.0686 24.8893C17.2737 24.8893 18.778 25.4363 19.9404 26.0517C21.1028 26.6671 21.9916 27.0773 22.2652 27.2825C22.5387 27.4876 22.4019 27.7611 22.1284 27.9662C21.8549 28.1714 18.5728 30.7697 18.231 31.0432C17.8891 31.3167 17.4104 31.7953 17.1369 31.7953C16.8634 31.7953 16.3164 31.3167 16.0429 31.0432C15.701 30.7697 12.419 28.103 12.1455 27.9662C11.872 27.7611 11.7352 27.4876 12.0087 27.2825C12.2822 27.0773 13.1028 26.6671 14.3335 26.0517C15.3592 25.3679 16.8634 24.8893 17.0686 24.8893ZM17.0686 6.15427C17.2053 6.15427 17.8207 6.22264 18.7096 6.49615C19.7352 6.83803 20.7609 7.24828 21.3079 7.24828C21.8549 7.24828 25.5472 6.49615 25.5472 6.49615C25.5472 6.49615 29.9233 11.8979 29.9233 13.0602C29.9233 14.2226 29.3763 14.4961 28.8293 15.1115C28.2822 15.7269 25.8207 18.3252 25.5472 18.6671C25.2053 19.009 24.5899 19.4876 25.0002 20.4449C25.4104 21.3338 25.9575 22.5645 25.3421 23.7269C24.7267 24.8893 23.6327 25.7098 22.9489 25.5731C22.2652 25.4363 20.6241 24.5474 20.0771 24.2055C19.4617 23.7953 17.6156 22.2226 17.6156 21.6073C17.6156 20.9919 19.5301 19.8979 19.9404 19.6927C20.2822 19.4192 21.9233 18.462 21.9916 18.1201C21.9916 17.7782 21.9916 17.6414 21.513 16.6842C21.0344 15.7269 20.1455 14.4961 20.2822 13.6756C20.419 12.8551 21.8549 12.4449 22.8122 12.0346C23.8378 11.6244 25.7523 10.9406 25.9575 10.8038C26.231 10.6671 26.1626 10.5987 25.4104 10.5303C24.6583 10.462 22.607 10.1885 21.6498 10.462C20.6925 10.7355 19.1199 11.1457 18.9831 11.3508C18.8463 11.556 18.7096 11.6244 18.8463 12.3765C18.9831 13.1286 19.6669 16.6842 19.7352 17.2996C19.8036 17.915 19.9404 18.3252 19.2566 18.5303C18.5728 18.6671 17.4788 18.9406 17.0686 18.9406C16.6583 18.9406 15.5643 18.6671 14.8805 18.5303C14.1968 18.3936 14.3335 17.9833 14.4019 17.2996C14.4703 16.6842 15.154 13.1286 15.2908 12.3765C15.4275 11.6244 15.2908 11.6244 15.154 11.4192C15.0173 11.2141 13.4446 10.8038 12.4874 10.5303C11.5301 10.2568 9.47882 10.5303 8.72669 10.5987C7.97455 10.6671 7.90617 10.8038 8.17968 10.8722C8.45318 11.009 10.3677 11.6927 11.325 12.103C12.3506 12.5132 13.7181 12.9235 13.8549 13.744C13.9916 14.5645 13.1028 15.7953 12.6241 16.7526C12.1455 17.7098 12.1455 17.7782 12.1455 18.1885C12.1455 18.5303 13.7865 19.4876 14.1968 19.7611C14.5387 20.0346 16.5216 21.1286 16.5216 21.6756C16.5216 22.291 14.607 23.8637 14.06 24.2739C13.4446 24.6842 11.872 25.5047 11.1882 25.6414C10.5045 25.7782 9.41045 24.9577 8.79506 23.7953C8.17968 22.6329 8.72669 21.4021 9.13694 20.5132C9.5472 19.6244 8.86344 19.0773 8.58994 18.7355C8.24806 18.3936 5.85489 15.7953 5.30788 15.1799C4.76088 14.5645 4.21387 14.291 4.21387 13.1286C4.21387 11.9662 8.58994 6.56452 8.58994 6.56452C8.58994 6.56452 12.2822 7.31666 12.8293 7.31666C13.3763 7.31666 14.4019 6.9064 15.4275 6.56452C16.3164 6.15427 16.9318 6.15427 17.0686 6.15427Z" fill="white"/>
<path d="M26.5042 4.03469L23.0854 0.0688782H17.0683H11.0512L7.63243 4.03469C7.63243 4.03469 4.62389 3.21418 3.18799 4.65007C3.18799 4.65007 7.22218 4.30819 8.5897 6.5646C8.5897 6.5646 12.282 7.31674 12.829 7.31674C13.376 7.31674 14.4017 6.90648 15.4273 6.5646C16.4529 6.22272 17.0683 6.22272 17.0683 6.22272C17.0683 6.22272 17.7521 6.22272 18.7094 6.5646C19.735 6.90648 20.7606 7.31674 21.3076 7.31674C21.8547 7.31674 25.547 6.5646 25.547 6.5646C26.9145 4.30819 30.9487 4.65007 30.9487 4.65007C29.5128 3.1458 26.5042 4.03469 26.5042 4.03469Z" fill="url(#paint1_linear_202_12027)"/>
</g>
<defs>
<linearGradient id="paint0_linear_202_12027" x1="0.372685" y1="19.9987" x2="33.7387" y2="19.9987" gradientUnits="userSpaceOnUse">
<stop stop-color="#FF5500"/>
<stop offset="0.4099" stop-color="#FF5500"/>
<stop offset="0.582" stop-color="#FF2000"/>
<stop offset="1" stop-color="#FF2000"/>
</linearGradient>
<linearGradient id="paint1_linear_202_12027" x1="3.8315" y1="3.65299" x2="30.9298" y2="3.65299" gradientUnits="userSpaceOnUse">
<stop stop-color="#FF452A"/>
<stop offset="1" stop-color="#FF2000"/>
</linearGradient>
<clipPath id="clip0_202_12027">
<rect width="34" height="40.0004" fill="white"/>
</clipPath>
</defs>
</svg>
