<svg width="36" height="37" viewBox="0 0 36 37" fill="none" xmlns="http://www.w3.org/2000/svg">
<g clip-path="url(#clip0_202_10207)">
<path d="M16.2664 20.6223C16.561 17.8078 18.3282 15.5169 20.3901 15.5169C22.4519 15.5169 23.5646 17.8078 23.2701 20.6223C22.9755 23.4369 21.2737 25.7605 19.3428 25.7605C17.4119 25.7605 15.841 23.9932 16.2664 20.6223ZM18.001 33.386C13.4195 33.3925 9.07454 31.3521 6.1537 27.8223C8.70643 28.6405 11.5537 27.9205 13.7792 25.7278C14.0142 25.492 14.2329 25.2405 14.4337 24.9751C15.4482 27.1678 17.4119 28.2805 19.3755 28.2805C22.7137 28.2805 25.5282 24.8442 25.8555 20.5896C26.1828 16.3351 23.7937 12.9642 20.6192 12.9642C19.4672 12.9482 18.3338 13.2542 17.3464 13.8478L18.3282 8.12051C18.4261 7.66207 18.3185 7.18376 18.0337 6.81142C17.7392 6.35324 17.4773 6.15688 17.0846 6.15688H12.5028C12.2319 6.17099 12.0107 6.37838 11.9792 6.64779C11.8574 7.18716 11.77 7.73371 11.7173 8.28415C11.6846 8.64415 11.9464 8.77506 12.241 8.77506H15.5792C15.0555 12.0478 14.0082 18.3969 13.7137 20.0005C13.4049 21.5184 12.6666 22.9157 11.5864 24.026C9.7537 25.8587 6.38279 26.2842 4.38643 24.2878C3.69916 23.5678 2.61916 21.8005 2.61916 18.0042C2.61916 9.50901 9.50583 2.62233 18.001 2.62233C26.4961 2.62233 33.3828 9.50901 33.3828 18.0042C33.3828 26.4993 26.4961 33.386 18.001 33.386ZM18.001 0.00415039C8.05985 0.00415039 0.000976563 8.06302 0.000976562 18.0042C0.000976562 27.9453 8.05985 36.0042 18.001 36.0042C27.9421 36.0042 36.001 27.9453 36.001 18.0042C36.001 13.2303 34.1046 8.65188 30.7289 5.27623C27.3532 1.90057 22.7749 0.00415039 18.001 0.00415039Z" fill="#212124"/>
</g>
<defs>
<clipPath id="clip0_202_10207">
<rect width="36.001" height="37" fill="white"/>
</clipPath>
</defs>
</svg>
