<svg width="37" height="36" viewBox="0 0 37 36" fill="none" xmlns="http://www.w3.org/2000/svg">
<g clip-path="url(#clip0_202_13158)">
<path fill-rule="evenodd" clip-rule="evenodd" d="M24.9703 18.5869L24.9442 18.8037L24.8749 18.9945L23.2202 21.8651L21.2827 25.2127L21.131 25.4642L20.9418 25.6724L20.732 25.8632L20.5157 26.0107L20.2384 26.141L19.9913 26.2275L19.6867 26.2968L19.4085 26.3229H12.2162L12.0636 26.2968L11.9119 26.2624L11.7853 26.1668L11.6648 26.08L11.5702 25.9846L11.5077 25.8285L11.4497 25.6724V25.3344L11.5389 25.152L13.4132 21.8651L15.1033 18.8991L15.2612 18.6823L15.4451 18.4654L15.6602 18.2833L15.9065 18.1011L16.1484 17.9797L16.4269 17.8843L16.7052 17.8236H24.3631L24.4759 17.8843L24.632 17.945L24.7274 18.0318L24.8489 18.1618L24.9096 18.2833L24.9442 18.4394L24.9703 18.5869ZM24.9703 16.0631L24.9442 15.8463L24.8749 15.6555L23.2202 12.7763L21.2827 9.41123L21.131 9.1944L20.9418 8.97757L20.732 8.7868L20.5157 8.6307L20.2384 8.50925L19.9913 8.41387L19.6867 8.35315L19.4085 8.32709H12.2162L12.0636 8.35315L11.9119 8.38781L11.7853 8.44853L11.6648 8.53531L11.5702 8.66561L11.5077 8.82147L11.4497 8.94291V9.31585L11.5389 9.49801L13.4132 12.7763L15.1033 15.7509L15.2612 15.968L15.4451 16.1848L15.6602 16.3667L15.9065 16.5231L16.1484 16.6445L16.4269 16.7399L16.7052 16.8006L17.0096 16.8267H24.2018L24.3631 16.8006L24.4759 16.766L24.632 16.7052L24.7274 16.6099L24.8489 16.4884L24.9096 16.367L24.9442 16.2195L24.9703 16.0631Z" fill="#94C039"/>
<path fill-rule="evenodd" clip-rule="evenodd" d="M36.0018 18.5608L35.9757 18.7776L35.8803 18.9684L34.2413 21.8479L32.2985 25.1955L32.1424 25.447L31.9604 25.6638L31.7434 25.8457L31.5265 26.0021L31.2404 26.1321L30.9717 26.2189L30.6939 26.2882L30.3817 26.3143H23.1845L23.0267 26.2882L22.8731 26.2536L22.7464 26.1582L22.625 26.0714L22.5358 25.976L22.4404 25.8199L22.4092 25.6638L22.3772 25.5077L22.4092 25.3169L22.5038 25.1348L24.3894 21.8479L26.0891 18.8733L26.2366 18.6562L26.4274 18.4394L26.6442 18.2574L26.8871 18.075L27.1386 17.9536L27.4159 17.8582L27.6937 17.7975H35.386L35.5074 17.8582L35.6635 17.9189L35.7589 18.0057L35.8457 18.136L35.9411 18.2572L35.9755 18.4133L36.0018 18.5608ZM22.3772 28.0747L22.4092 28.2655L22.5038 28.4563L24.1403 31.3355L26.0891 34.7092L26.2366 34.9606L26.4274 35.1428L26.6442 35.3336L26.8871 35.5244L27.1386 35.6458L27.4161 35.7326L27.6934 35.7933H35.3862L35.5076 35.7326L35.6637 35.6719L35.7591 35.5765L35.8459 35.455L35.9413 35.3336L35.9757 35.1775L36.002 35.0214L35.976 34.8045L35.8806 34.6484L33.9984 31.3355L32.2987 28.3869L32.1426 28.1441L31.9604 27.9272L31.7436 27.7365L31.5268 27.589L31.2406 27.4675L30.9717 27.3721L30.6941 27.3028L30.3819 27.2767H23.1845L23.0267 27.3028L22.8731 27.3372L22.7464 27.4328L22.625 27.5196L22.5358 27.6497L22.4404 27.7711L22.4092 27.9272L22.3772 28.0747Z" fill="#D4247B"/>
<path fill-rule="evenodd" clip-rule="evenodd" d="M10.6993 10.0357L14.2864 16.306L14.413 16.5489L14.5032 16.8351L14.5664 17.1473V17.6938L14.5032 17.9799L14.413 18.2489L14.2864 18.5004L12.5537 21.4317L10.6674 24.71L10.5459 24.8575L10.3613 24.9789L10.2399 25.0482L10.0865 25.0743H9.92864L9.77524 25.0482L9.64863 25.0136L9.49498 24.9268L9.40574 24.8314L9.31036 24.71L5.72334 18.4396L5.56993 18.1535L5.47529 17.8845L5.44824 17.607L5.41727 17.3294L5.44849 17.0258L5.50651 16.7397L5.60189 16.4968L5.72334 16.2453L7.67283 12.8717L9.34231 10.0357L9.46376 9.8449L9.61642 9.72346L9.77524 9.66273L9.92864 9.62832H10.0865L10.2086 9.66273L10.3613 9.72346L10.4828 9.79278L10.6094 9.91423L10.6993 10.0357ZM4.20701 0.296314L4.05361 0.426608L3.927 0.58247L2.25776 3.45312L0.308021 6.79209L0.186577 7.06988L0.0921756 7.31253L0.0341579 7.59868L0.00195312 7.87648L0.0341579 8.17984L0.0921756 8.45739L0.186577 8.73494L0.308021 9.0211L3.89479 15.2568L3.99043 15.4129L4.11187 15.4997L4.23848 15.595L4.36508 15.6295L4.51873 15.6558H4.67213L4.82455 15.6297L4.9782 15.569L5.13701 15.4475L5.25846 15.2914L7.14477 12.0132L8.87744 9.08182L9.00404 8.79566L9.09328 8.55278L9.15671 8.27498V7.68546L9.09328 7.40766L9.00404 7.13036L8.87744 6.85281L5.28992 0.608528L5.20069 0.461026L5.07359 0.365641L4.94723 0.270256L4.79382 0.244197L4.67238 0.209534H4.51898L4.36533 0.244197L4.20701 0.296314Z" fill="#069BB3"/>
</g>
<defs>
<clipPath id="clip0_202_13158">
<rect width="37" height="36" fill="white"/>
</clipPath>
</defs>
</svg>
