<svg width="36" height="37" viewBox="0 0 36 37" fill="none" xmlns="http://www.w3.org/2000/svg">
<g clip-path="url(#clip0_202_9590)">
<path fill-rule="evenodd" clip-rule="evenodd" d="M14.8649 34.9271C14.5651 34.6692 14.2829 34.2947 14.1164 33.9538C15.107 29.6867 12.2745 26.4946 12.2745 26.4946C12.2745 26.4946 9.46243 23.0878 8.71901 22.3343C6.23094 22.5852 3.60399 22.1026 2.01829 20.5537C0.210217 18.7876 -0.120564 15.6245 3.09565 13.6471C2.6087 11.168 3.18515 9.56495 3.76227 8.43161C4.27936 7.41617 5.59995 5.81982 7.07169 4.98463C8.36557 4.25036 10.1829 3.48242 12.3661 3.42043C12.9523 2.61002 13.7093 1.91009 14.4061 1.60905C14.4782 1.56659 14.5448 1.52714 14.6069 1.49031C15.1558 1.16482 15.3602 1.0436 16.0571 0.854378C16.9769 0.60459 18.1429 0.533981 19.3909 1.01196C20.0125 0.694382 20.83 0.357454 21.6592 0.179105C22.6129 -0.0260165 23.3713 -0.00966722 23.8887 0.0298704C25.0896 0.121644 26.3268 0.792094 27.2145 1.442C27.9299 1.96582 28.3851 2.30246 28.7995 3.04779C29.1314 3.62817 29.256 3.96444 29.3464 4.44676C29.9485 4.55258 30.7082 4.7061 31.3431 4.97134C31.956 5.22734 32.5411 5.56893 33.0577 5.98626C33.5273 6.36553 33.9096 6.83777 34.2892 7.30655C34.3357 7.36401 34.3822 7.42142 34.4288 7.4786C34.7527 7.87608 35.268 8.98983 35.3286 9.5969C35.3871 10.1818 35.2509 11.1177 34.959 11.845C34.6199 12.6897 33.7725 13.7021 33.7725 13.7021C33.9833 14.0961 34.2342 14.6168 34.3941 15.1015C34.541 15.5472 34.7249 16.2211 34.808 16.7902C34.9315 17.6363 34.8442 18.3573 34.5604 19.0654C34.1913 19.9863 33.4864 20.9473 32.7497 21.4276C31.9377 21.9569 31.4296 22.2238 30.0337 22.2708C29.4565 22.2903 28.9959 22.1993 28.5999 22.1211L28.5815 22.1175C28.133 22.0289 27.8198 21.9334 27.6285 21.875C27.5959 21.865 27.5668 21.8562 27.5412 21.8486C27.4833 21.9107 27.4139 21.9848 27.3355 22.0685C26.7309 22.714 25.5922 23.9296 25.1037 24.5885C24.5743 25.3026 23.8873 26.4111 23.4712 27.2042C23.0355 28.0346 22.7371 28.6711 22.5837 30.0684C22.4794 31.0172 22.4311 31.591 22.5251 32.4066C22.5586 32.6976 22.6103 33.0912 22.688 33.5316C22.7614 33.9479 22.86 34.4111 22.9227 34.7052C22.8392 34.8832 22.439 35.1574 21.8113 35.4043C21.4789 35.5352 21.0693 35.6517 20.6382 35.7568C19.9538 35.9235 19.3474 35.995 18.5792 36.0034C18.1469 36.0082 17.6882 36.0094 17.3145 35.9423C16.954 35.8776 16.5083 35.7687 16.171 35.6439C15.6878 35.465 15.2313 35.2422 14.8649 34.9271ZM12.0133 19.4213C11.7601 19.8375 11.4384 20.3663 11.0649 20.7398C11.0649 20.7398 11.8629 21.9461 12.8617 22.8778C13.5066 23.4794 14.4061 24.1535 14.9459 24.3473C15.0974 24.4017 15.2175 24.3762 15.3409 24.3179C15.5677 23.8254 15.6068 23.5767 15.5662 22.1737C15.5352 21.1036 15.0474 19.3621 14.9773 19.1518C14.7275 19.2978 14.1028 19.3849 13.5133 19.412C12.9713 19.4369 12.4207 19.4055 12.1099 19.3877C12.0836 19.3862 12.059 19.3848 12.0363 19.3836C12.0287 19.396 12.021 19.4086 12.0133 19.4213ZM22.2339 21.76C22.1515 21.2256 22.1639 20.6138 22.1832 20.4434C22.4813 20.4305 23.2197 20.371 23.8483 20.235C24.3472 20.1313 25.3388 19.8408 25.3388 19.8408C25.4425 20.1065 25.7341 20.5471 25.9414 20.735C25.6693 20.9877 24.2601 22.0879 24.2601 22.0879C24.1973 22.1348 24.133 22.1846 24.0668 22.2358C23.676 22.5385 23.2195 22.8921 22.6044 23.0029C22.3997 22.807 22.3176 22.3027 22.2339 21.76Z" fill="#598527"/>
</g>
<defs>
<clipPath id="clip0_202_9590">
<rect width="36" height="37" fill="white"/>
</clipPath>
</defs>
</svg>
