<svg width="37" height="37" viewBox="0 0 37 37" fill="none" xmlns="http://www.w3.org/2000/svg">
<g clip-path="url(#clip0_202_14219)">
<path d="M13.3458 35.3839C3.74582 32.8116 -1.95125 22.944 0.621067 13.344C3.19338 3.74399 13.061 -1.95308 22.661 0.619236C32.261 3.19155 37.9581 13.0592 35.3858 22.6592C32.8135 32.2592 22.9458 37.9563 13.3458 35.3839Z" fill="#EEAA33"/>
<path d="M14.2919 31.8532C12.3794 31.3407 12.4907 24.7237 14.5405 17.0737C16.5903 9.42362 19.8024 3.63747 21.7149 4.14992C23.6274 4.66238 23.5161 11.2794 21.4663 18.9294C19.4165 26.5795 16.2044 32.3656 14.2919 31.8532Z" fill="white"/>
<path d="M24.8049 27.2471C23.8486 26.9909 23.9043 23.6824 24.9292 19.8574C25.9541 16.0323 27.5601 13.1393 28.5164 13.3955C29.4727 13.6517 29.417 16.9602 28.3921 20.7852C27.3672 24.6103 25.7611 27.5033 24.8049 27.2471Z" fill="white"/>
<path d="M7.49042 22.6077C6.53416 22.3515 6.58982 19.043 7.61473 15.218C8.63964 11.3929 10.2457 8.49986 11.2019 8.75608C12.1582 9.01231 12.1025 12.3208 11.0776 16.1458C10.0527 19.9709 8.44667 22.8639 7.49042 22.6077Z" fill="white"/>
</g>
<defs>
<clipPath id="clip0_202_14219">
<rect width="37" height="37" fill="white"/>
</clipPath>
</defs>
</svg>
