<svg width="37" height="34" viewBox="0 0 37 34" fill="none" xmlns="http://www.w3.org/2000/svg">
<g clip-path="url(#clip0_202_13815)">
<path d="M18.3204 17.8377C17.233 17.878 16.1644 17.8987 15.128 17.8987C8.03935 17.8987 2.43952 16.9372 2.35978 14.7929C2.29777 13.127 5.17341 11.8579 9.68564 11.1138L9.67735 11.8185L9.65906 13.3607L11.065 13.9949C13.2598 14.9851 15.4532 15.4871 17.5843 15.4871C19.9791 15.4871 22.3299 14.8566 24.5715 13.6129L25.7502 12.9588L25.7844 11.6112L25.8105 10.5775C30.3503 10.969 33.5846 11.903 33.6427 13.4669C33.7341 15.9249 26.8454 17.5208 18.3204 17.8377ZM12.0467 10.7912C12.0533 10.7905 12.0593 10.7897 12.0659 10.7888L12.0937 8.41382C12.0851 8.4148 12.0771 8.41593 12.0685 8.41691C12.0706 8.41579 12.0728 8.41495 12.0747 8.41382L12.0834 7.67188C12.4966 4.73198 15.1813 3.30688 17.8484 3.30688C20.5723 3.30688 23.278 4.79371 23.5261 7.67188L23.516 8.07238L23.4563 10.4271L23.4278 11.5516C21.4986 12.622 19.5503 13.1298 17.5843 13.1298C15.7491 13.1298 13.8983 12.6871 12.0344 11.8463L12.0467 10.7912ZM30.1325 8.80293C28.9147 8.54727 27.4778 8.35166 25.8703 8.21737L25.8825 7.73165L25.8859 7.6003L25.8747 7.46952C25.549 3.69163 22.1734 0.949585 17.8484 0.949585C13.6087 0.949585 10.2781 3.57899 9.7492 7.34395L9.72811 7.49329L9.72642 7.64418L9.71377 8.72207C8.27503 8.94538 6.97706 9.21749 5.85178 9.53685C1.88166 10.6631 -0.0858261 12.461 0.00417391 14.8805C0.14044 18.5478 4.94616 20.2559 15.128 20.2559C16.1866 20.2559 17.2902 20.2349 18.4081 20.1933C22.945 20.0247 26.8928 19.5193 29.8243 18.7318C34.0112 17.6069 36.0885 15.8061 35.9984 13.3793C35.873 10.0077 31.5523 9.10091 30.1325 8.80293ZM18.6145 33.0617C17.9783 33.0617 17.4544 32.555 17.4368 31.9153L17.1913 22.9283C17.1737 22.2775 17.6867 21.7356 18.3374 21.7178C18.984 21.7069 19.5301 22.2131 19.5479 22.8637L19.7934 31.8508C19.811 32.5016 19.2981 33.0434 18.6473 33.0613C18.6365 33.0616 18.6255 33.0617 18.6145 33.0617ZM26.1289 29.7226C25.6442 29.7226 25.1901 29.4213 25.0184 28.9384L22.6611 22.3086C22.443 21.6953 22.7636 21.0213 23.3769 20.8032C23.9903 20.5857 24.6643 20.9057 24.8821 21.519L27.2394 28.1488C27.4575 28.7622 27.1371 29.436 26.5236 29.6541C26.3933 29.7006 26.26 29.7226 26.1289 29.7226ZM11.004 30.1644C10.9101 30.1644 10.8145 30.1532 10.7191 30.1296C10.0875 29.9728 9.70242 29.3336 9.85922 28.7017L11.4798 22.17C11.6367 21.5384 12.2752 21.1532 12.9077 21.3101C13.5394 21.4668 13.9244 22.1061 13.7676 22.7379L12.147 29.2695C12.0139 29.8058 11.5329 30.1644 11.004 30.1644Z" fill="#5581B5"/>
</g>
<defs>
<clipPath id="clip0_202_13815">
<rect width="37" height="34" fill="white"/>
</clipPath>
</defs>
</svg>
