<svg width="37" height="37" viewBox="0 0 37 37" fill="none" xmlns="http://www.w3.org/2000/svg">
<g clip-path="url(#clip0_202_10902)">
<path d="M18.002 0.00177002C27.943 0.00177002 36.002 8.06071 36.002 18.0018C36.002 27.9428 27.943 36.0018 18.002 36.0018C8.06089 36.0018 0.00195312 27.9428 0.00195312 18.0018C0.00195312 8.06071 8.06089 0.00177002 18.002 0.00177002Z" fill="#FFD539"/>
<path d="M24.6073 8.21417C24.7544 8.7252 24.3661 13.3411 31.7429 16.1214C31.2178 17.1851 28.8741 18.1926 24.6716 19.1427C24.1736 12.9853 23.0163 9.9177 24.6073 8.21417Z" fill="white"/>
<path d="M25.8598 18.6782C25.5371 18.7507 25.2107 18.8155 24.8803 18.8728C24.8003 17.3858 24.6258 16.0853 24.4538 14.9218C24.9996 15.0234 25.5305 14.6748 25.6476 14.1287C25.7667 13.5733 25.413 13.0266 24.8577 12.9073C24.7154 12.8768 24.5683 12.8768 24.4263 12.9073C24.7687 13.001 24.9706 13.3548 24.8768 13.6972C24.8065 13.9544 24.5898 14.1322 24.3412 14.1652C24.0037 11.9079 23.7788 10.1681 24.5097 8.50829C24.4991 10.3568 25.3007 12.0217 26.7394 13.4267C28.0557 14.7127 29.8881 15.7101 31.343 16.0828C31.4238 16.1791 31.4277 16.2965 31.3227 16.4571C31.204 16.5494 31.0723 16.6402 30.9358 16.7205C29.548 17.534 27.8499 18.2307 25.8598 18.6782ZM32.6136 15.199C32.6136 14.3468 31.9228 13.656 31.0708 13.656C30.3467 13.656 29.7409 14.1555 29.5745 14.8283C27.1902 13.5872 24.4635 11.0701 25.1301 7.43462C25.6259 6.74668 26.3167 6.05593 27.2741 5.33003C25.4835 5.12007 23.5801 5.44478 21.7672 6.14101C21.7388 5.19868 21.8518 4.1897 22.1469 3.00648C20.4087 3.44987 18.7558 4.42736 17.3181 5.71745C16.9518 4.84572 16.6961 3.85909 16.547 2.64465C15.0755 3.68697 13.8778 5.20262 12.9964 6.93386C12.3363 6.24831 11.7394 5.41454 11.1607 4.32611C10.1624 5.82348 9.5878 7.66314 9.38417 9.59097C8.54098 9.18934 7.70173 8.63218 6.79133 7.84089C6.39631 9.5949 6.51837 11.5163 7.01815 13.3873C6.06753 13.3199 5.06544 13.1011 3.90542 12.6789C4.16544 14.4595 4.96925 16.211 6.10789 17.7797C5.21267 18.0455 4.21817 18.1948 3.01245 18.2161C3.89642 19.7905 5.28087 21.1415 6.91325 22.1995C6.16048 22.7878 5.26569 23.2967 4.11748 23.7606H4.11776C5.50123 24.9088 7.26861 25.6723 9.1624 26.0764C8.67528 26.8718 8.03389 27.6468 7.1533 28.468C8.85303 29.0431 10.7723 29.1234 12.6814 28.8241C12.5138 29.7549 12.1929 30.7211 11.6564 31.821H11.6567C13.4546 31.7484 15.2806 31.1323 16.9595 30.164C17.1394 31.0976 17.1872 32.1202 17.0797 33.3472C20.7046 31.7854 23.5205 27.7389 24.5135 23.7332C24.7829 23.009 24.9262 21.9613 24.9262 20.5151C24.9262 20.1273 24.9169 19.7544 24.9034 19.3894C27.8356 18.8916 29.9694 17.8832 31.1957 17.164C31.6454 16.9004 32.1013 16.5131 32.2475 16.1956C32.4755 15.9267 32.6136 15.5791 32.6136 15.199Z" fill="black"/>
</g>
<defs>
<clipPath id="clip0_202_10902">
<rect width="37" height="37" fill="white"/>
</clipPath>
</defs>
</svg>
