<svg width="37" height="32" viewBox="0 0 37 32" fill="none" xmlns="http://www.w3.org/2000/svg">
<g clip-path="url(#clip0_202_10875)">
<path d="M15.5452 0.829129C14.9209 0.840705 14.1397 1.23005 13.581 1.09555C13.358 1.04187 13.0854 1.01873 12.8186 1.0332C12.8139 1.03347 12.8091 1.03293 12.8044 1.0332C12.5331 1.04932 12.2683 1.10652 12.0732 1.22593C12.0651 1.23086 12.0559 1.23543 12.0477 1.2401C12.0399 1.25144 12.0317 1.26172 12.0222 1.27128C11.7629 1.53058 11.1893 1.55429 10.9225 1.82113C10.7045 2.03908 10.5026 2.4564 10.2621 2.83013C10.2598 2.83369 10.2587 2.83792 10.2564 2.84147C9.40078 3.83904 8.71799 5.0665 8.47648 6.06972C8.27804 6.89401 8.28078 8.00733 7.95497 8.82747C7.86386 9.05684 7.48608 10.3265 7.77925 10.5734C7.97894 10.7415 8.83015 10.8703 9.08018 10.5734C9.21475 10.4136 10.4487 10.0142 10.8346 9.55588C11.2891 9.01619 11.5236 8.08401 11.8351 7.29979C11.8847 7.175 11.9485 7.04259 12.0222 6.9115C12.1989 7.25383 12.3392 7.53334 12.4133 7.7051C12.5675 8.06261 12.7372 8.55701 12.8781 9.08539C12.5728 9.55312 12.7 10.1931 12.9206 10.4855C12.0279 10.7635 12.4532 11.7239 12.419 11.7581C12.3602 11.8169 12.1739 11.8955 12.0987 11.9707C12.0056 12.0638 11.991 12.2581 11.991 12.3987C11.991 12.5343 12.0081 12.6549 12.0335 12.7615C11.2212 14.8049 10.4545 17.3627 9.48549 18.7418C9.20659 18.869 8.92127 18.9782 8.58702 19.0451C7.93571 19.2079 6.2894 19.5306 4.90245 19.9974C4.84226 20.0774 4.77211 20.1561 4.69272 20.2355C4.55529 20.3729 4.28029 20.373 4.14287 20.5104C4.03598 20.6173 3.70274 20.497 3.59585 20.6039C3.27868 20.9211 2.81055 21.0858 2.31192 21.3352C2.2566 21.3628 2.07935 21.2928 2.037 21.3352C1.81048 21.5617 1.40491 21.6923 1.21222 21.885C0.835232 22.262 0.519193 22.6716 0.112519 23.0782C-0.291641 23.4824 0.532586 24.5952 0.662369 24.725C1.04428 25.1069 1.74579 25.1678 2.12769 25.5497C2.28836 25.7104 2.82704 25.4955 3.02049 25.6234C3.07045 25.6304 3.11513 25.6396 3.1452 25.6546C3.70789 25.9359 4.81165 26.1439 5.47781 26.366C6.39588 26.672 7.12412 27.4897 8.07118 27.7265C8.79215 27.9067 9.61095 28.0026 10.3386 28.2451C10.6428 28.3465 11.0123 28.277 11.3079 28.3755C11.8609 28.5598 12.3601 28.7886 12.8639 28.9565C13.0385 29.0147 13.269 28.9118 13.4478 28.9565C13.8501 29.0571 14.285 29.0863 14.6779 29.2173C15.3776 29.4505 16.3108 28.9841 17.0105 29.2173C17.4716 29.371 20.3423 29.125 20.5732 28.8942C20.7429 28.7245 21.3884 28.9401 21.6105 28.829C21.8034 28.7326 22.389 28.8272 22.5175 28.6986C22.8495 28.3666 23.5311 28.352 24.0055 28.1148C24.2051 28.015 24.5127 28.1531 24.7197 28.0496C24.8389 27.99 25.0808 28.0633 25.3433 28.1771C25.8427 28.1666 26.2271 28.1148 26.7264 28.1148C27.3201 28.1148 28.1396 27.8329 29.008 27.4062C29.9691 27.1897 31.1439 26.9397 31.1989 26.8847C31.6165 26.4671 32.7264 26.5873 33.1404 26.1733C33.4337 25.88 33.8106 25.761 34.1126 25.459C34.3816 25.19 34.7511 24.882 35.1386 24.5577C35.206 24.3697 35.3787 24.1928 35.5382 24.0334C35.6051 23.9665 36.077 22.5856 35.9917 22.415C35.8355 22.1027 35.5775 21.8444 35.2803 21.6044C35.1881 21.5728 35.1174 21.5407 35.0847 21.508C34.7672 21.1905 34.0065 21.1412 33.7243 20.859C33.2698 20.4045 32.5866 19.9961 31.7714 19.7224C31.6007 19.6378 31.4409 19.5478 31.3265 19.4334C31.1813 19.2882 30.3422 19.1028 30.0964 18.9799C29.9641 18.9137 29.6764 19.0162 29.5777 18.9175C29.3384 18.6782 28.3353 18.5076 27.6107 18.277C27.5051 18.2837 27.3355 18.203 27.3046 18.1721C27.2828 18.1503 26.7211 18.0676 26.5365 17.883C26.5156 17.862 26.4402 17.1095 26.4402 17.0157C26.4402 16.9811 26.3562 16.8417 26.4061 16.7918C26.4139 16.784 26.4215 16.7749 26.4288 16.7663C26.0935 14.6997 25.837 12.4178 25.5955 12.2144C25.2369 11.9124 25.0377 10.2452 24.6432 9.913C24.2308 9.56571 23.9727 9.18595 23.6541 8.88982C23.6539 8.88892 23.6542 8.88789 23.6541 8.887C23.5342 8.22815 23.3066 7.48794 23.2346 7.42734C23.1177 7.3289 23.2948 6.8824 23.1779 6.78396C22.8141 6.47758 22.3401 4.67637 21.9988 4.38899C21.5519 4.01261 21.332 3.42844 20.9076 3.07105C19.859 2.18798 18.117 0.87391 16.1914 0.973682C16.1086 0.950345 16.028 0.922288 15.9505 0.891488C15.8281 0.842852 15.6892 0.826462 15.5452 0.829134V0.829129Z" fill="#3C6991"/>
<path d="M15.1295 12.2653C14.9677 12.2361 14.8096 12.2344 14.6855 12.2756C14.4789 12.3441 14.1458 12.1818 13.9301 12.2207C13.1145 12.3679 12.475 12.5889 12.3649 12.8631C13.5754 12.516 14.9194 13.2907 15.47 14.0268C15.6989 14.3328 15.3458 14.7965 15.4705 15.1719C15.4987 15.2569 15.5212 15.8011 15.4232 15.8744C15.2184 16.0276 15.2387 16.5622 15.0693 16.8062C14.6707 17.3805 14.323 17.8001 13.9843 18.288C13.6351 18.791 12.7013 18.8918 12.1802 19.0648C12.065 19.103 11.92 19.0235 11.7986 19.0638C11.77 19.0734 11.7365 19.075 11.7031 19.0703C11.7148 19.0835 11.7284 19.0962 11.738 19.1091C11.782 19.1679 11.9964 19.1119 12.059 19.1554C12.464 19.4365 14.0665 19.3287 14.5108 19.1812C14.7873 19.0895 15.0437 18.9539 15.3201 18.8622C15.6747 18.7445 16.0236 18.1932 16.2783 17.9093C17.154 16.9331 17.5542 15.2421 17.1211 13.9372C16.9034 13.2812 16.3334 12.8881 15.8482 12.5513C15.6823 12.4361 15.3991 12.3139 15.1295 12.2653L15.1295 12.2653Z" fill="#E6B35A"/>
<path d="M17.0827 11.0047C17.0306 11.003 17.0233 11.5135 17.0192 11.7568C16.9947 11.7583 16.9958 11.789 17.0024 11.8237C16.7392 11.9406 16.1662 12.1747 16.2101 12.2215C16.2122 12.2226 16.2124 12.2241 16.2134 12.2249C16.1927 12.2259 16.1709 12.2329 16.17 12.2616C16.1679 12.2994 16.2458 12.2637 16.2836 12.265C16.3446 12.2671 16.8775 12.4635 17.0893 12.5525C17.1156 12.7538 17.1929 12.874 17.1929 13.1041C17.1929 13.2475 17.2212 13.4451 17.2297 13.4451C17.2328 13.4451 17.2386 13.4407 17.243 13.4384C17.2492 13.4633 17.2563 13.478 17.2664 13.4685C17.308 13.4295 17.3836 13.325 17.4603 13.2077C17.4636 13.2027 17.4671 13.1994 17.4702 13.1943C17.6054 13.027 17.7596 12.8128 17.8915 12.6193C18.147 12.6565 18.3812 12.6862 18.4397 12.6862C18.4678 12.6862 19.439 12.8531 19.1585 12.5725C19.1415 12.5554 19.1215 12.5409 19.1017 12.5257C19.1079 12.5208 19.1114 12.5157 19.1116 12.509C19.1137 12.4549 18.5715 12.2056 18.4831 12.1112C18.4405 12.0656 18.3787 12.0364 18.336 11.9908C18.3248 11.9789 18.346 11.9454 18.3795 11.8972V11.8939C18.4549 11.8106 18.5353 11.7247 18.5934 11.6666C18.6213 11.6387 18.7782 11.3451 18.6294 11.3644C18.5289 11.3775 18.2009 11.3982 17.7712 11.5241C17.7712 11.5241 17.6552 11.3723 17.6544 11.3728C17.5611 11.3346 17.2968 11.0117 17.0824 11.0046L17.0827 11.0047Z" fill="#E6B35A"/>
<path d="M14.6562 10.9296C14.6252 10.9446 14.5783 11.0053 14.5633 10.9744C14.5484 10.9435 14.6871 10.9147 14.6562 10.9296C14.5638 10.9742 14.2068 11.2958 14.3383 11.3975C14.4466 11.4812 14.848 11.3247 15.0183 11.3842C15.0438 11.3931 15.3267 11.8272 15.371 11.7004C15.4432 11.4935 15.3538 11.1419 15.3561 11.1356C15.3894 11.0402 15.6506 11.0793 15.7145 11.0485C15.7672 11.0231 15.8742 10.978 15.8889 10.9358C15.8929 10.9243 15.8958 10.8905 15.901 10.9014C15.9053 10.9103 15.8312 10.8385 15.741 10.8069C15.6062 10.7598 15.4697 10.7893 15.3731 10.7556C15.3285 10.74 15.3822 10.4779 15.366 10.4444C15.3129 10.3342 15.2792 10.2051 15.2885 10.2243C15.3149 10.279 15.1744 10.2778 15.1372 10.3259C15.091 10.3857 14.9699 10.5885 14.8915 10.5874C14.7976 10.5859 14.4216 10.4964 14.3963 10.5687C14.3943 10.5728 14.6307 10.8068 14.6562 10.9296L14.6562 10.9296Z" fill="#E6B35A"/>
<path d="M18.2923 14.5775C18.2671 14.5541 18.1934 14.5326 18.2168 14.5074C18.2402 14.4822 18.3175 14.6009 18.2923 14.5775C18.2172 14.5078 17.7875 14.2925 17.7408 14.4521C17.7024 14.5834 17.9944 14.9002 18.0011 15.0805C18.0031 15.1074 17.701 15.5291 17.8352 15.5241C18.0541 15.516 18.349 15.3046 18.3557 15.3043C18.4567 15.3005 18.5155 15.5581 18.5674 15.6063C18.6103 15.6462 18.6913 15.7294 18.736 15.7277C18.7482 15.7272 18.7806 15.7175 18.7724 15.7263C18.7657 15.7335 18.8056 15.6384 18.802 15.5429C18.7966 15.4001 18.7195 15.2838 18.7157 15.1815C18.7137 15.1343 18.9777 15.0887 19.0029 15.0615C19.0861 14.9719 19.1941 14.8934 19.1796 14.9091C19.1383 14.9536 19.0882 14.8223 19.0299 14.8053C18.9573 14.784 18.7243 14.7451 18.6968 14.6718C18.6639 14.5839 18.6102 14.201 18.5337 14.2039C18.5293 14.204 18.3974 14.5089 18.2923 14.5774V14.5775Z" fill="#E6B35A"/>
<path d="M26.5593 17.9685C26.4861 18.2204 26.027 19.028 25.8337 19.2213C25.5852 19.4698 25.3714 19.7289 25.1535 19.9468C24.9991 20.1013 24.5583 20.4967 24.4279 20.6271C24.1444 20.9106 23.9783 20.8046 23.657 21.1259C23.4978 21.2852 23.1772 21.2883 23.0221 21.4433C22.8819 21.5836 21.7566 21.668 21.4803 21.8061C21.4134 21.8396 21.2137 21.7553 21.1628 21.8061C20.9643 22.0047 19.3955 22.0769 19.3489 22.1236C19.1087 22.3638 18.4693 22.0872 18.1245 22.2596C17.8187 22.4125 17.2118 22.305 16.8547 22.305C16.657 22.305 16.1317 22.3012 15.5907 22.288C15.4629 22.2699 15.3623 22.2555 15.3582 22.2596C15.3555 22.2624 15.3433 22.2749 15.3356 22.2823C15.234 22.2792 15.1361 22.2749 15.038 22.2709C14.9769 22.2477 14.9121 22.2333 14.8594 22.2596C14.857 22.2608 14.8535 22.2613 14.8509 22.2624C14.4288 22.242 14.0842 22.2121 13.9978 22.1689C13.6429 21.9915 13.2618 21.9422 12.8187 21.9422C12.1252 21.9422 10.5896 21.1224 10.0525 20.8538C9.97021 20.8127 9.74208 20.5735 9.61883 20.508C9.61786 20.4606 9.61617 20.4175 9.59899 20.4003C9.47262 20.2739 9.41728 19.9916 9.3269 19.8108C9.28929 19.7356 9.3269 19.4599 9.3269 19.4933C9.3269 19.4948 9.41805 19.1306 9.41759 19.1306C9.33989 19.1306 8.93348 19.66 8.78272 19.8108C8.78131 19.8122 8.78555 19.8204 8.78838 19.8278C8.70342 19.9449 8.64384 20.1197 8.64384 20.3833C8.64384 21.2821 9.13959 21.3297 9.60466 21.7948C9.71884 21.909 9.9633 21.8332 10.0525 21.9223C10.1435 22.0134 10.2772 22.0943 10.4351 22.1661C10.2376 22.2819 9.85695 22.3106 9.7322 22.4353C9.61019 22.5573 9.04447 22.9082 8.83373 23.0135C8.79411 23.0333 8.60242 23.0549 8.57865 23.0787C7.38067 24.2767 6.02867 25.0505 4.92242 26.1567C4.82929 26.2499 4.79488 27.4662 4.79488 27.6958C4.79488 28.0965 4.65879 28.5205 4.92242 28.7841C5.03365 28.8953 5.40242 28.8163 5.50062 28.9145C5.52191 28.9358 5.79007 29.1352 5.82089 29.1044C5.93792 28.9874 5.7557 28.3755 5.7557 28.2088C5.7557 27.333 5.85021 26.4477 6.39909 25.8988C7.45748 24.8404 8.96653 24.3574 9.92493 23.399C10.2067 23.1173 10.7228 22.9672 11.0983 22.6592C11.0852 22.7496 11.1005 22.8347 11.1663 22.9058C11.2101 22.9531 11.3661 22.8595 11.4214 22.8888C11.798 23.0885 12.9457 23.5166 13.2836 23.1042C13.3448 23.2207 13.3934 23.3388 13.4536 23.399C13.6786 23.624 13.5027 24.7095 13.3884 24.938C12.9574 25.8 12.7301 28.2889 12.3624 28.6566C12.2989 28.7201 12.4386 29.3248 12.49 29.4275C12.6236 29.6947 12.3922 30.2905 12.49 30.3883C12.5862 30.4845 12.5241 30.7399 12.6203 30.8361C12.7079 30.9237 13.1081 30.8138 13.1957 30.9013C13.2304 30.936 13.6866 31.2465 13.7739 31.1593C13.8462 31.087 13.576 30.2533 13.516 30.1332C13.4642 30.0298 13.6552 28.1319 13.7087 28.0784C13.7835 28.0036 13.6339 27.7054 13.7087 27.6306C13.8544 27.4849 14.029 24.466 14.029 24.0395C14.029 23.9676 14.213 23.5178 14.0942 23.399C14.0935 23.3984 13.9879 23.1558 13.8447 22.92C14.0562 22.9357 14.2345 22.9612 14.2869 23.0135C14.381 23.1077 16.2785 23.0135 16.594 23.0135C17.8469 23.0135 19.818 22.9165 20.5705 22.7556C20.8705 22.6915 21.5819 22.6354 21.982 22.4353C22.2142 22.3192 23.0322 22.2398 23.1752 22.2029C23.4807 22.1242 24.4623 21.888 24.7369 21.6134C24.9405 21.4097 25.6369 20.7042 25.8933 20.576C26.1823 20.4315 26.3274 19.9182 26.497 19.6804C26.5187 19.5044 26.9924 19.0445 26.8994 18.8585C26.7939 18.429 26.7279 17.985 26.5593 17.9685L26.5593 17.9685Z" fill="#E6B35A"/>
</g>
<defs>
<clipPath id="clip0_202_10875">
<rect width="37" height="32" fill="white"/>
</clipPath>
</defs>
</svg>
