<svg width="37" height="37" viewBox="0 0 37 37" fill="none" xmlns="http://www.w3.org/2000/svg">
<g clip-path="url(#clip0_202_8921)">
<path d="M18.0249 36.0022C27.9553 36.0022 36.0054 27.9521 36.0054 18.0217C36.0054 8.09134 27.9553 0.0411987 18.0249 0.0411987C8.09458 0.0411987 0.0444336 8.09134 0.0444336 18.0217C0.0444336 27.9521 8.09458 36.0022 18.0249 36.0022Z" fill="#F5BB60"/>
<path d="M16.1917 32.3749C25.1312 32.3749 32.3781 25.128 32.3781 16.1885C32.3781 7.24907 25.1312 0.00219727 16.1917 0.00219727C7.25225 0.00219727 0.00537109 7.24907 0.00537109 16.1885C0.00537109 25.128 7.25225 32.3749 16.1917 32.3749Z" fill="#E86F32"/>
<path d="M18.3369 28.0845C26.0917 28.0845 32.3781 21.7981 32.3781 14.0434C32.3781 6.28864 26.0917 0.00219727 18.3369 0.00219727C10.5822 0.00219727 4.29578 6.28864 4.29578 14.0434C4.29578 21.7981 10.5822 28.0845 18.3369 28.0845Z" fill="#E53D42"/>
<path d="M19.4681 28.0846C26.5981 28.0846 32.3781 22.3045 32.3781 15.1745C32.3781 8.04444 26.5981 2.2644 19.4681 2.2644C12.338 2.2644 6.55798 8.04444 6.55798 15.1745C6.55798 22.3045 12.338 28.0846 19.4681 28.0846Z" fill="#BFD141"/>
<path d="M18.532 28.0845C25.145 28.0845 30.506 22.7236 30.506 16.1105C30.506 9.49748 25.145 4.13654 18.532 4.13654C11.9189 4.13654 6.55798 9.49748 6.55798 16.1105C6.55798 22.7236 11.9189 28.0845 18.532 28.0845Z" fill="#6DB64C"/>
<path d="M16.6208 24.3012C22.1784 24.3012 26.6837 19.7959 26.6837 14.2384C26.6837 8.68082 22.1784 4.17554 16.6208 4.17554C11.0633 4.17554 6.55798 8.68082 6.55798 14.2384C6.55798 19.7959 11.0633 24.3012 16.6208 24.3012Z" fill="#AFDBE7"/>
<path d="M18.2589 20.9859C22.9118 20.9859 26.6836 17.2141 26.6836 12.5612C26.6836 7.9084 22.9118 4.13654 18.2589 4.13654C13.6061 4.13654 9.83423 7.9084 9.83423 12.5612C9.83423 17.2141 13.6061 20.9859 18.2589 20.9859Z" fill="#57BADF"/>
<path d="M19.312 21.025C23.4048 21.025 26.7226 17.7071 26.7226 13.6144C26.7226 9.52158 23.4048 6.20374 19.312 6.20374C15.2192 6.20374 11.9014 9.52158 11.9014 13.6144C11.9014 17.7071 15.2192 21.025 19.312 21.025Z" fill="#02B2D6"/>
<path d="M18.2199 20.986C21.7095 20.986 24.5384 18.1571 24.5384 14.6675C24.5384 11.1778 21.7095 8.34894 18.2199 8.34894C14.7303 8.34894 11.9014 11.1778 11.9014 14.6675C11.9014 18.1571 14.7303 20.986 18.2199 20.986Z" fill="url(#paint0_radial_202_8921)"/>
<path d="M18.2199 20.986C21.7095 20.986 24.5384 18.1571 24.5384 14.6675C24.5384 11.1778 21.7095 8.34894 18.2199 8.34894C14.7303 8.34894 11.9014 11.1778 11.9014 14.6675C11.9014 18.1571 14.7303 20.986 18.2199 20.986Z" fill="#231F20"/>
<path d="M19.8792 13.8395C20.5057 14.1206 21.3696 13.5549 21.8088 12.5761C22.2481 11.5972 22.0963 10.5758 21.4698 10.2947C20.8433 10.0136 19.9794 10.5792 19.5402 11.5581C19.101 12.537 19.2528 13.5584 19.8792 13.8395Z" fill="white"/>
</g>
<defs>
<radialGradient id="paint0_radial_202_8921" cx="0" cy="0" r="1" gradientUnits="userSpaceOnUse" gradientTransform="translate(18.2377 14.6679) scale(6.33354)">
<stop stop-color="#797979"/>
<stop offset="1" stop-color="#4C4C4C"/>
</radialGradient>
<clipPath id="clip0_202_8921">
<rect width="37" height="37" fill="white"/>
</clipPath>
</defs>
</svg>
