<svg width="28" height="41" viewBox="0 0 28 41" fill="none" xmlns="http://www.w3.org/2000/svg">
<g clip-path="url(#clip0_202_11742)">
<path d="M15.9102 11.8981V39.5086C15.9102 39.802 16.2036 39.9853 16.4602 39.8386L27.0571 34.0818C27.1671 34.0085 27.2404 33.8985 27.2404 33.7518V18.0949C27.2404 17.9482 27.1671 17.8382 27.0571 17.7649L16.4969 11.5681C16.2402 11.4214 15.9102 11.6048 15.9102 11.8981ZM14.4069 39.6186V0.384555C14.4069 0.127884 14.1502 -0.055453 13.8935 0.0178817L1.02327 4.78464C0.876604 4.85797 0.766602 4.96797 0.766602 5.15131V34.9985C0.766602 35.1452 0.876604 35.2919 1.02327 35.3652L13.8935 39.9853C14.1502 40.0586 14.4069 39.8753 14.4069 39.6186Z" fill="#F14646"/>
</g>
<defs>
<clipPath id="clip0_202_11742">
<rect width="28" height="41" fill="white"/>
</clipPath>
</defs>
</svg>
