<svg width="37" height="32" viewBox="0 0 37 32" fill="none" xmlns="http://www.w3.org/2000/svg">
<g clip-path="url(#clip0_202_13946)">
<path d="M10.196 0.331299H7.58337V7.7223L10.7695 10.9084H6.94646L2.77289 6.73482V0.331299H0.0012207V7.91345L5.67187 13.5845H13.3179L16.0578 16.324H8.73027L14.9109 22.6958L5.86302 31.6799H9.4314L18.4789 22.5685L15.0382 19.1278H33.3251V20.2747L25.4241 24.9896L18.7977 31.6799H22.5569L27.0806 27.0923L36.0012 21.7401V16.324H27.5906L24.7234 13.4568L27.9729 10.2072V2.94355H25.2647V8.99688L22.6207 11.6091L20.2631 9.14024V2.94355H17.7143V10.3349L23.6736 16.324H20.0375L10.196 6.5754V0.331299Z" fill="#4A69A5"/>
<path d="M24.0222 20.7843H20.4542L22.1746 22.632L24.0222 20.7843Z" fill="#4A69A5"/>
</g>
<defs>
<clipPath id="clip0_202_13946">
<rect width="37" height="32" fill="white"/>
</clipPath>
</defs>
</svg>
