<svg width="32" height="37" viewBox="0 0 32 37" fill="none" xmlns="http://www.w3.org/2000/svg">
<g clip-path="url(#clip0_202_13675)">
<mask id="mask0_202_13675" style="mask-type:alpha" maskUnits="userSpaceOnUse" x="0" y="0" width="32" height="37">
<path d="M14.5795 0.383235C11.5437 2.13065 4.47988 6.21794 1.44419 7.96522C0.570353 8.4688 0.0224609 9.41653 0.0224609 10.4236V25.5878C0.0224609 26.5947 0.570353 27.5426 1.44419 28.046C4.46515 29.7934 11.5437 33.8806 14.5795 35.6281C15.4679 36.1314 16.549 36.1314 17.4227 35.6281C20.4438 33.8806 27.5223 29.7934 30.558 28.046C31.4317 27.5426 31.9797 26.5947 31.9797 25.5878V10.4236C31.9797 9.4018 31.4317 8.4688 30.558 7.96522C27.5371 6.21794 20.4585 2.13065 17.4227 0.383235C16.9784 0.131447 16.4861 0.00561523 15.9955 0.00561523C15.505 0.00561523 15.0163 0.131447 14.5795 0.383235Z" fill="white"/>
</mask>
<g mask="url(#mask0_202_13675)">
<path d="M14.5795 0.383235C11.5437 2.13065 4.47988 6.21794 1.44419 7.96522C0.570353 8.4688 0.0224609 9.41653 0.0224609 10.4236V25.5878C0.0224609 26.5947 0.570353 27.5426 1.44419 28.046C4.46515 29.7934 11.5437 33.8806 14.5795 35.6281C15.4679 36.1314 16.549 36.1314 17.4227 35.6281C20.4438 33.8806 27.5223 29.7934 30.558 28.046C31.4317 27.5426 31.9797 26.5947 31.9797 25.5878V10.4236C31.9797 9.4018 31.4317 8.4688 30.558 7.96522C27.5371 6.21794 20.4585 2.13065 17.4227 0.383235C16.9784 0.131447 16.4861 0.00561523 15.9955 0.00561523C15.505 0.00561523 15.0163 0.131447 14.5795 0.383235Z" fill="#00C9FF"/>
<path d="M8.3301 18.0056L16.0011 36.4869L0.0224609 27.2314L8.3301 18.0056Z" fill="#1A67FD"/>
<path d="M8.33011 18.0065L0.0224609 8.72144V27.2323L8.33011 18.0065Z" fill="#0DA7FE"/>
<path d="M8.33008 18.0062L16.0011 -0.445557L31.9797 27.2319L8.33008 18.0062Z" fill="#00C9FF"/>
<path d="M8.3301 18.0062L16.0011 -0.445557L0.0224609 8.72106L8.3301 18.0062Z" fill="#05BBFF"/>
<path d="M16.0011 36.4879L31.9797 27.2324L8.33008 18.0066L16.0011 36.4879Z" fill="#1A86FD"/>
<path d="M31.9796 27.2319V8.78023L16.001 -0.445557L31.9796 27.2319Z" fill="#05BBFF"/>
<path d="M19.3777 16.4513L21.4065 18.4801L20.3995 19.4872L19.3777 20.5089L13.6615 26.2251L11.6328 24.1962L17.3489 18.4801L11.6328 12.7639L13.6615 10.7351L19.3777 16.4513Z" fill="#1A67FD" fill-opacity="0.5"/>
<path d="M21.4065 17.5617L19.3777 15.533L11.6328 23.278L13.6616 25.3068L21.4065 17.5617Z" fill="#D6FFFF"/>
<path d="M13.6615 9.83179L11.6475 11.8606L19.3925 19.6056L21.4213 17.5767C21.4064 17.562 13.6615 9.83179 13.6615 9.83179Z" fill="#D6FFFF"/>
</g>
</g>
<defs>
<clipPath id="clip0_202_13675">
<rect width="32" height="37" fill="white"/>
</clipPath>
</defs>
</svg>
