<svg width="36" height="37" viewBox="0 0 36 37" fill="none" xmlns="http://www.w3.org/2000/svg">
<g clip-path="url(#clip0_202_11076)">
<path d="M19.164 0.2109C24.3995 2.63947 29.721 5.14745 34.9493 7.59116C35.2283 7.72164 35.5941 7.81041 35.5945 8.20542C35.5951 8.60112 35.2297 8.68921 34.9501 8.81982C29.7009 11.2748 24.4509 13.7283 19.1977 16.1746C18.3976 16.5472 17.5759 16.5424 16.7748 16.169C11.5117 13.7156 6.25079 11.2579 0.990795 8.79822C0.720067 8.67173 0.37942 8.5758 0.390018 8.19083C0.399928 7.83064 0.72571 7.73705 0.986253 7.61524C6.26827 5.14731 11.6038 2.64029 16.8927 0.187364C17.4518 -0.0715269 18.5814 -0.0539096 19.164 0.2109ZM17.9855 36.0024C17.6047 36.0024 17.3192 35.8579 16.7752 35.6544C11.5196 33.2164 6.27047 30.7646 1.02176 28.312C0.742776 28.1816 0.381485 28.0895 0.384788 27.692C0.388229 27.2966 0.749796 27.2094 1.02878 27.0767C1.89946 26.6627 2.77454 26.258 3.64921 25.8527C4.52306 25.4476 5.39126 25.4533 6.26772 25.8641C9.74699 27.4951 13.2301 29.1179 16.7109 30.7453C17.5751 31.1494 18.4322 31.141 19.2954 30.7367C22.7858 29.1021 26.278 27.471 29.7705 25.8406C30.5952 25.4556 31.4308 25.4449 32.2594 25.8203C33.191 26.2425 34.1159 26.6797 35.0415 27.1148C35.1788 27.1794 35.3179 27.2522 35.4328 27.3489C35.6802 27.5573 35.6835 27.8396 35.431 28.0418C35.2776 28.1647 35.094 28.2552 34.9139 28.3392C29.7076 30.7716 24.502 33.2056 19.2887 35.623C18.8835 35.8107 18.3664 36.0024 17.9855 36.0024ZM17.9671 26.2547C17.793 26.2547 17.1164 26.07 16.7314 25.8912C11.4974 23.4606 6.27047 21.015 1.0431 18.5703C0.762321 18.439 0.396212 18.3542 0.388917 17.963C0.38121 17.5481 0.764385 17.4651 1.05342 17.3276C1.93373 16.9085 2.81652 16.4941 3.70248 16.0869C4.5426 15.701 5.3841 15.7101 6.22354 16.1022C9.73804 17.7438 13.2524 19.3858 16.7695 21.022C17.5836 21.4008 18.4104 21.3979 19.2252 21.0185C22.7524 19.3761 26.2771 17.7287 29.8037 16.0852C30.6192 15.7051 31.4429 15.7054 32.259 16.0777C33.1888 16.5019 34.1129 16.9389 35.0379 17.3734C35.165 17.4332 35.2952 17.4962 35.4041 17.5826C35.6847 17.8056 35.6825 18.1 35.3986 18.3232C35.2893 18.4091 35.1595 18.4726 35.0323 18.532C29.7514 21.0008 24.4714 23.4717 19.1841 25.9265C18.8206 26.0953 18.1411 26.2547 17.9671 26.2547Z" fill="black"/>
</g>
<defs>
<clipPath id="clip0_202_11076">
<rect width="36" height="37" fill="white"/>
</clipPath>
</defs>
</svg>
