<svg width="36" height="37" viewBox="0 0 36 37" fill="none" xmlns="http://www.w3.org/2000/svg">
<g clip-path="url(#clip0_202_11067)">
<path d="M18.892 36.0022H17.1188C17.0536 35.989 16.9889 35.9716 16.9231 35.9632C16.1135 35.8598 15.2935 35.8082 14.4957 35.6469C10.5651 34.8518 7.21866 32.982 4.58819 29.9561C0.508804 25.2633 -0.863979 19.8187 0.553876 13.7742C2.40287 5.89176 9.35247 0.298238 17.4156 0.040589C17.5918 0.0349808 17.7676 0.0153107 17.9436 0.00219727H18.1085C18.1671 0.0130839 18.2256 0.0333725 18.2842 0.033455C19.4148 0.0347746 20.5337 0.160135 21.6374 0.393125C25.6138 1.23242 28.9691 3.16748 31.6106 6.25139C35.006 10.2155 36.4121 14.8311 35.8842 20.0263C35.674 22.0951 35.095 24.0638 34.1694 25.9243C32.3355 29.6108 29.5649 32.3676 25.8742 34.1904C23.9094 35.1608 21.8279 35.7309 19.6437 35.9229C19.3927 35.945 19.1425 35.9756 18.892 36.0022ZM8.04596 17.7213C8.42695 17.334 8.57878 17.0618 8.58786 16.7004C8.59755 16.3158 8.60118 15.9304 8.5874 15.5461C8.5627 14.8587 8.15087 14.3554 7.46971 14.2747C6.92736 14.2103 6.37334 14.228 5.82501 14.2381C5.5747 14.2427 5.40047 14.4715 5.40014 14.7388C5.39759 16.8074 5.39709 18.876 5.40072 20.9445C5.40126 21.2409 5.61478 21.4425 5.91606 21.4457C6.36959 21.4506 6.8234 21.4558 7.27676 21.4449C8.15738 21.4238 8.78765 20.7744 8.79049 19.8977C8.7914 19.6021 8.78992 19.3066 8.79078 19.0111C8.79239 18.4445 8.58901 17.9944 8.04596 17.7213ZM18.2339 17.2327C18.2339 17.1449 18.2339 17.0707 18.2339 16.9965C18.2339 16.2474 18.2342 15.4983 18.2338 14.7491C18.2335 14.3618 18.0404 14.147 17.6919 14.1449C17.3376 14.1427 17.1365 14.3532 17.1363 14.7367C17.1352 16.8055 17.1351 18.8742 17.1364 20.9429C17.1366 21.3234 17.3414 21.5335 17.6972 21.5296C18.0364 21.5259 18.2333 21.3107 18.2337 20.9404C18.2343 20.1295 18.2338 19.3185 18.2339 18.5075V18.2848H19.4449V18.5408C19.445 19.3449 19.4433 20.149 19.4458 20.9532C19.4469 21.3207 19.65 21.5292 19.9961 21.5297C20.3447 21.5302 20.5422 21.3236 20.5428 20.9539C20.5439 20.2666 20.5432 19.5794 20.5432 18.8921C20.5431 17.4969 20.5436 16.1017 20.5427 14.7065C20.5426 14.4199 20.4066 14.226 20.1661 14.1603C19.7807 14.0549 19.4496 14.2947 19.4467 14.6939C19.4413 15.4568 19.445 16.2197 19.4449 16.9826V17.2327C19.0329 17.2327 18.65 17.2327 18.2339 17.2327ZM14.2651 19.8415C14.321 19.851 14.3677 19.8599 14.4146 19.867C15.3601 20.009 16.0773 19.5198 16.1971 18.6257C16.2369 18.3285 16.2069 18.0222 16.2141 17.7202C16.2213 17.4208 16.1989 17.1311 15.9738 16.8828C16.0623 16.8713 16.1291 16.8659 16.1946 16.8535C16.5311 16.7895 16.6653 16.6016 16.6152 16.2675C16.5727 15.9836 16.4245 15.8867 16.0753 15.9155C16.0343 15.9189 15.9937 15.9263 15.9527 15.9307C15.4759 15.9817 15.0001 16.0499 14.522 16.0792C13.8609 16.1196 13.3554 16.5269 13.2439 17.1813C13.1983 17.4495 13.2136 17.7278 13.1994 18.0015C13.1705 18.5567 13.2192 19.0896 13.6511 19.5128C13.3758 19.7118 13.2039 19.9487 13.1789 20.2742C13.1534 20.6053 13.263 20.8777 13.5593 21.0706C13.4962 21.1141 13.4629 21.137 13.4296 21.16C13.0447 21.425 12.8976 21.7968 12.961 22.25C13.0228 22.692 13.2981 22.9663 13.7102 23.0925C14.3305 23.2826 14.9633 23.3075 15.5649 23.0479C15.825 22.9357 16.0875 22.7499 16.2601 22.5284C16.9223 21.678 16.442 20.4685 15.4063 20.3435C15.1217 20.3091 14.83 20.3358 14.5416 20.3295C14.2102 20.3222 14.1162 20.165 14.2651 19.8415ZM29.447 16.4711C29.343 16.3844 29.2754 16.3139 29.1952 16.2636C28.823 16.0302 28.4288 16.0105 28.0368 16.1949C27.6733 16.3659 27.5339 16.6954 27.5311 17.0737C27.5224 18.2275 27.5181 19.3816 27.5319 20.5354C27.5396 21.1771 27.9991 21.5887 28.6413 21.5704C28.9892 21.5605 29.2469 21.3823 29.4627 21.0957C29.5345 21.3239 29.65 21.4857 29.8788 21.5245C30.2547 21.5883 30.5018 21.3779 30.5028 20.9841C30.5057 19.8027 30.5039 18.6213 30.5039 17.4399C30.5039 16.5264 30.5027 15.6129 30.5047 14.6994C30.5052 14.4938 30.4529 14.3175 30.2642 14.2092C29.8832 13.9903 29.4498 14.2357 29.4477 14.6728C29.4449 15.2622 29.447 15.8516 29.447 16.4711ZM11.406 21.0907C11.4253 21.1494 11.4324 21.1758 11.4425 21.2011C11.5493 21.4673 11.7566 21.5767 12.0542 21.5245C12.2873 21.4836 12.4157 21.3092 12.4193 21.0273C12.4202 20.9586 12.4195 20.8899 12.4195 20.8212C12.4195 19.4335 12.4204 18.0458 12.4188 16.6581C12.4184 16.3107 12.2252 16.122 11.8833 16.1243C11.5501 16.1265 11.3641 16.3193 11.3634 16.6768C11.3613 17.8584 11.3634 19.04 11.3606 20.2215C11.3604 20.3002 11.3597 20.4038 11.3135 20.4528C11.1769 20.5977 10.9957 20.6351 10.8024 20.5795C10.6329 20.5307 10.5686 20.401 10.5587 20.2367C10.5525 20.134 10.5458 20.0311 10.5458 19.9283C10.5448 18.8497 10.5463 17.7711 10.5445 16.6926C10.5439 16.3187 10.3616 16.1252 10.0195 16.1243C9.67227 16.1233 9.48876 16.3147 9.48856 16.6837C9.48773 17.9408 9.48534 19.198 9.48938 20.4551C9.49181 21.2059 9.9168 21.6096 10.6535 21.5697C10.9787 21.5521 11.2251 21.3954 11.406 21.0907ZM22.4857 19.1379C22.9679 19.1379 23.4271 19.1392 23.8862 19.1374C24.181 19.1363 24.3273 18.9918 24.3299 18.6936C24.3335 18.2815 24.3393 17.869 24.3289 17.4571C24.3088 16.6637 23.779 16.1095 23.0289 16.0833C22.082 16.0502 21.4938 16.4837 21.4513 17.3469C21.4025 18.3404 21.4103 19.3385 21.4408 20.3332C21.4604 20.973 21.8333 21.3909 22.401 21.5185C22.5796 21.5587 22.7682 21.5685 22.9523 21.5685C23.7965 21.5685 24.3284 21.0155 24.3031 20.1742C24.2937 19.864 24.1214 19.694 23.8115 19.6895C23.4833 19.6847 23.3141 19.8453 23.3027 20.1728C23.3013 20.2139 23.3021 20.2553 23.2981 20.2962C23.2721 20.5582 23.1333 20.6951 22.8923 20.6981C22.6566 20.701 22.4984 20.5598 22.4892 20.2977C22.4758 19.9214 22.4857 19.5441 22.4857 19.1379ZM26.0839 16.6285C26.0422 16.4059 25.9736 16.2304 25.7516 16.1756C25.3647 16.08 25.0973 16.2842 25.0954 16.6828C25.0924 17.3554 25.0945 18.0281 25.0945 18.7007C25.0945 19.4557 25.0934 20.2107 25.0952 20.9657C25.0959 21.2704 25.2209 21.4544 25.4601 21.5168C25.846 21.6173 26.1503 21.387 26.1509 20.988C26.1526 19.8006 26.1514 18.6132 26.1516 17.4258C26.1517 17.1946 26.2166 17.1382 26.4484 17.1662C26.5569 17.1794 26.6655 17.2055 26.7739 17.2045C27.0448 17.2021 27.2126 17.0069 27.2235 16.6972C27.2359 16.3438 27.0955 16.152 26.8048 16.1252C26.4259 16.0904 26.2777 16.1897 26.0839 16.6285ZM6.48955 20.4878V18.2537C6.73482 18.2537 6.97466 18.2314 7.20843 18.2596C7.47854 18.2921 7.65652 18.4676 7.67173 18.7353C7.69544 19.1518 7.69619 19.5716 7.6726 19.9882C7.6573 20.2579 7.47326 20.4145 7.20439 20.4591C7.10988 20.4748 7.01355 20.4834 6.91775 20.4867C6.78171 20.4912 6.64542 20.4878 6.48955 20.4878ZM6.49107 17.2788V15.1762C6.71841 15.192 6.93606 15.1943 7.14938 15.226C7.31878 15.2511 7.45462 15.3704 7.46221 15.5393C7.48204 15.9822 7.49012 16.4275 7.46629 16.8699C7.45466 17.0856 7.28526 17.2221 7.06381 17.2482C6.88175 17.2697 6.69709 17.2687 6.49107 17.2788ZM14.2342 17.985C14.2341 17.7926 14.2243 17.5996 14.2364 17.408C14.2543 17.1215 14.4276 16.9559 14.6929 16.9511C14.9729 16.9461 15.1627 17.1076 15.1745 17.4019C15.19 17.786 15.1891 18.1716 15.1754 18.5558C15.1649 18.8491 14.9749 19.017 14.6992 19.014C14.434 19.0112 14.2559 18.8454 14.2369 18.5619C14.224 18.3704 14.2344 18.1774 14.2342 17.985ZM14.6947 22.3831C14.5996 22.3713 14.5029 22.3668 14.4097 22.3462C14.008 22.2579 13.8608 21.8565 14.0778 21.449C14.1632 21.2885 14.2672 21.1748 14.4789 21.2033C14.6611 21.2279 14.8486 21.2095 15.0321 21.2271C15.2527 21.2483 15.4214 21.3492 15.4831 21.5816C15.5452 21.8158 15.4779 22.0768 15.2712 22.1992C15.1004 22.3004 14.8976 22.3477 14.709 22.4188C14.7042 22.4069 14.6995 22.395 14.6947 22.3831ZM29.4469 18.8268C29.4469 19.3073 29.4472 19.7879 29.4469 20.2684C29.4467 20.5059 29.3472 20.6126 29.0924 20.6505C28.8577 20.6854 28.6826 20.5915 28.6209 20.3874C28.5975 20.3099 28.5862 20.2259 28.586 20.1449C28.5836 19.2594 28.5818 18.3737 28.5856 17.4882C28.5873 17.0864 28.8713 16.8947 29.2318 17.0423C29.3756 17.1012 29.4573 17.1842 29.4519 17.3647C29.4373 17.8516 29.4469 18.3394 29.4469 18.8268ZM23.2722 18.2909H22.4941C22.4941 17.954 22.4782 17.6271 22.4996 17.3026C22.5141 17.0835 22.6844 16.9624 22.8954 16.9666C23.1036 16.9707 23.2521 17.0798 23.2667 17.3001C23.2881 17.6242 23.2722 17.9508 23.2722 18.2909Z" fill="#222222"/>
<path d="M31.9348 20.2429C32.3148 20.2403 32.572 20.49 32.5759 20.8655C32.58 21.253 32.3199 21.5219 31.9418 21.5212C31.5718 21.5206 31.3132 21.2588 31.311 20.8827C31.3089 20.5026 31.5595 20.2456 31.9348 20.2429Z" fill="#6DB6D1"/>
</g>
<defs>
<clipPath id="clip0_202_11067">
<rect width="36" height="37" fill="white"/>
</clipPath>
</defs>
</svg>
