<svg width="28" height="41" viewBox="0 0 28 41" fill="none" xmlns="http://www.w3.org/2000/svg">
<g clip-path="url(#clip0_202_15556)">
<path d="M7.17186 0.241335C7.7593 0.569641 8.12314 1.19009 8.12285 1.86305L8.14071 18.1882H14.0054C17.2104 18.1877 20.1001 20.118 21.3269 23.0789C22.5538 26.0398 21.8762 29.4482 19.61 31.7147C17.3439 33.9812 13.9356 34.6593 10.9745 33.4329C8.01339 32.2065 6.08266 29.3171 6.08266 26.1121L6.07552 20.2557H2.17844V26.1121C2.17844 32.6439 7.47354 37.939 14.0054 37.939C20.5372 37.939 25.8323 32.6439 25.8323 26.1121C25.8323 19.5802 20.5372 14.2851 14.0054 14.2851H12.2128C11.6421 14.2851 11.1796 13.8226 11.1796 13.2519C11.1796 12.6813 11.6421 12.2188 12.2128 12.2188H14.0054C21.6784 12.2188 27.8987 18.439 27.8987 26.1121C27.8987 33.7851 21.6784 40.0054 14.0054 40.0054C6.33584 39.9968 0.120588 33.7816 0.112061 26.1121V19.2225C0.112061 18.6517 0.574443 18.1888 1.14525 18.1882H6.07314L6.05647 2.238L2.17844 4.62457V13.7066C2.17844 14.2773 1.71587 14.7398 1.14525 14.7398C0.574635 14.7398 0.112061 14.2773 0.112061 13.7066V4.50673C0.113649 3.86201 0.448074 3.26383 0.996462 2.9248L5.29229 0.281124C5.86532 -0.0717484 6.58441 -0.0869712 7.17186 0.241335ZM13.9994 20.2557H8.14309V26.1109C8.14261 28.4796 9.56915 30.6154 11.7575 31.5223C13.9458 32.4291 16.4649 31.9283 18.14 30.2535C19.8152 28.5787 20.3165 26.0597 19.4101 23.8712C18.5037 21.6827 16.3682 20.2557 13.9994 20.2557ZM14.0054 24.4551C14.9205 24.4551 15.6623 25.197 15.6623 26.1121C15.6623 27.0271 14.9205 27.769 14.0054 27.769C13.0903 27.769 12.3485 27.0271 12.3485 26.1121C12.3485 25.197 13.0903 24.4551 14.0054 24.4551Z" fill="#000D47"/>
</g>
<defs>
<clipPath id="clip0_202_15556">
<rect width="28" height="41" fill="white"/>
</clipPath>
</defs>
</svg>
