<svg width="41" height="22" viewBox="0 0 41 22" fill="none" xmlns="http://www.w3.org/2000/svg">
<g clip-path="url(#clip0_202_13695)">
<path d="M40.0012 15.4448H38.5123C33.3615 6.30993 20.8865 11.7827 23.1804 21.1918H20.5093V18.6943H19.8001V21.1918H17.2723V18.6716H13.9978V21.1918H11.5984V18.6641H10.7383V21.1918H8.31622V18.6716H6.63356V21.1918H0.0012207C0.0012207 5.99102 14.3903 -1.77085 26.2515 1.62211C26.3961 1.24477 26.7393 0.966646 27.2548 0.819458C27.7398 1.08696 28.0886 1.56321 28.2618 2.30758C28.6315 2.45649 28.9976 2.6168 29.3595 2.78915C29.3595 2.78915 30.0164 2.12477 30.9368 2.13243C31.4047 2.81149 31.3972 3.91524 31.3972 3.91524C35.1309 6.28555 38.2401 10.0768 40.0012 15.4448Z" fill="#FC5252"/>
<path d="M29.7192 7.03391C29.7192 8.16735 28.8003 9.08626 27.6668 9.08626C26.5334 9.08626 25.6145 8.16735 25.6145 7.03391C25.6145 5.90047 26.5334 4.98157 27.6668 4.98157C28.8003 4.98157 29.7192 5.90047 29.7192 7.03391Z" fill="#F9FFFF"/>
<path d="M29.2368 7.63735C29.2368 8.07079 28.8854 8.42204 28.4521 8.42204C28.0186 8.42204 27.6672 8.07079 27.6672 7.63735C27.6672 7.20407 28.0186 6.85266 28.4521 6.85266C28.8854 6.85266 29.2368 7.20407 29.2368 7.63735Z" fill="#FC5252"/>
</g>
<defs>
<clipPath id="clip0_202_13695">
<rect width="41" height="22" fill="white"/>
</clipPath>
</defs>
</svg>
