<svg width="37" height="36" viewBox="0 0 37 36" fill="none" xmlns="http://www.w3.org/2000/svg">
<g clip-path="url(#clip0_202_8389)">
<mask id="mask0_202_8389" style="mask-type:alpha" maskUnits="userSpaceOnUse" x="0" y="0" width="37" height="37">
<path fill-rule="evenodd" clip-rule="evenodd" d="M0.00219727 18.0004C0.00219727 19.5951 1.10823 20.9315 2.59505 21.2843C3.88101 27.3474 8.65529 32.1216 14.7183 33.4076C15.0711 34.8944 16.4075 36.0004 18.0022 36.0004C19.5969 36.0004 20.9333 34.8944 21.2861 33.4076C27.3491 32.1216 32.1234 27.3474 33.4094 21.2844C34.8962 20.9316 36.0022 19.5952 36.0022 18.0005C36.0022 16.4058 34.8962 15.0694 33.4094 14.7165C32.1235 8.65349 27.3492 3.87921 21.2861 2.59325C20.9333 1.10643 19.5969 0.000396729 18.0022 0.000396729C16.4075 0.000396729 15.0711 1.10643 14.7183 2.59325C8.65526 3.87921 3.88101 8.65349 2.59505 14.7165C1.10823 15.0693 0.00219727 16.4057 0.00219727 18.0004Z" fill="#8DF7DB"/>
</mask>
<g mask="url(#mask0_202_8389)">
<path d="M18.0022 36.0004C27.9434 36.0004 36.0022 27.9416 36.0022 18.0004C36.0022 8.05928 27.9434 0.000396729 18.0022 0.000396729C8.06108 0.000396729 0.00219727 8.05928 0.00219727 18.0004C0.00219727 27.9416 8.06108 36.0004 18.0022 36.0004Z" fill="url(#paint0_linear_202_8389)"/>
<path fill-rule="evenodd" clip-rule="evenodd" d="M19.5022 6.39959C20.6135 5.84733 21.3772 4.70054 21.3772 3.3754C21.3772 1.51144 19.8662 0.000396729 18.0022 0.000396729C16.1382 0.000396729 14.6272 1.51144 14.6272 3.3754C14.6272 4.70054 15.3909 5.84733 16.5022 6.39959V8.62541H19.5022V6.39959Z" fill="#9DF3F9"/>
<path fill-rule="evenodd" clip-rule="evenodd" d="M16.5022 29.6012C15.3909 30.1535 14.6272 31.3003 14.6272 32.6254C14.6272 34.4894 16.1382 36.0004 18.0022 36.0004C19.8662 36.0004 21.3772 34.4894 21.3772 32.6254C21.3772 31.3003 20.6135 30.1535 19.5022 29.6012V27.3754H16.5022V29.6012Z" fill="#82EBF1"/>
<path fill-rule="evenodd" clip-rule="evenodd" d="M6.40139 16.5004C5.84913 15.3892 4.70234 14.6254 3.3772 14.6254C1.51324 14.6254 0.00219718 16.1365 0.00219727 18.0004C0.00219735 19.8644 1.51324 21.3754 3.3772 21.3754C4.70234 21.3754 5.84913 20.6117 6.40139 19.5004H8.62721V16.5004H6.40139Z" fill="#9DF3F9"/>
<g filter="url(#filter0_f_202_8389)">
<path d="M18.0022 28.5004C23.387 28.5004 27.7522 24.1352 27.7522 18.7504C27.7522 13.3656 23.387 9.0004 18.0022 9.0004C12.6174 9.0004 8.2522 13.3656 8.2522 18.7504C8.2522 24.1352 12.6174 28.5004 18.0022 28.5004Z" fill="black" fill-opacity="0.32"/>
<path fill-rule="evenodd" clip-rule="evenodd" d="M22.2462 20.2505C21.6284 21.9983 19.9615 23.2505 18.0022 23.2505C15.5169 23.2505 13.5022 21.2357 13.5022 18.7505C13.5022 16.2652 15.5169 14.2505 18.0022 14.2505C19.9615 14.2505 21.6284 15.5027 22.2462 17.2505H30.0022V20.2505H22.2462Z" fill="black" fill-opacity="0.32"/>
<path d="M32.6272 22.1255C30.7632 22.1255 29.2522 20.6144 29.2522 18.7505C29.2522 16.8865 30.7632 15.3755 32.6272 15.3755C34.4912 15.3755 36.0022 16.8865 36.0022 18.7505C36.0022 20.6144 34.4912 22.1255 32.6272 22.1255Z" fill="black" fill-opacity="0.32"/>
</g>
<g filter="url(#filter1_f_202_8389)">
<path d="M18.0022 27.8929C23.387 27.8929 27.7522 23.5277 27.7522 18.1429C27.7522 12.7581 23.387 8.39291 18.0022 8.39291C12.6174 8.39291 8.2522 12.7581 8.2522 18.1429C8.2522 23.5277 12.6174 27.8929 18.0022 27.8929Z" fill="black" fill-opacity="0.24"/>
<path fill-rule="evenodd" clip-rule="evenodd" d="M22.2462 19.643C21.6284 21.3908 19.9615 22.643 18.0022 22.643C15.5169 22.643 13.5022 20.6283 13.5022 18.143C13.5022 15.6577 15.5169 13.643 18.0022 13.643C19.9615 13.643 21.6284 14.8952 22.2462 16.643H30.0022V19.643H22.2462Z" fill="black" fill-opacity="0.24"/>
<path d="M32.6272 21.518C30.7632 21.518 29.2522 20.007 29.2522 18.143C29.2522 16.2791 30.7632 14.768 32.6272 14.768C34.4912 14.768 36.0022 16.2791 36.0022 18.143C36.0022 20.007 34.4912 21.518 32.6272 21.518Z" fill="black" fill-opacity="0.24"/>
</g>
<path d="M18.0022 27.7504C23.387 27.7504 27.7522 23.3852 27.7522 18.0004C27.7522 12.6156 23.387 8.2504 18.0022 8.2504C12.6174 8.2504 8.2522 12.6156 8.2522 18.0004C8.2522 23.3852 12.6174 27.7504 18.0022 27.7504Z" fill="url(#paint1_linear_202_8389)"/>
<path fill-rule="evenodd" clip-rule="evenodd" d="M22.2462 19.5005C21.6284 21.2483 19.9615 22.5005 18.0022 22.5005C15.5169 22.5005 13.5022 20.4857 13.5022 18.0005C13.5022 15.5152 15.5169 13.5005 18.0022 13.5005C19.9615 13.5005 21.6284 14.7527 22.2462 16.5005H30.0022V19.5005H22.2462Z" fill="url(#paint2_linear_202_8389)"/>
<path d="M32.6272 21.3755C30.7632 21.3755 29.2522 19.8644 29.2522 18.0005C29.2522 16.1365 30.7632 14.6255 32.6272 14.6255C34.4912 14.6255 36.0022 16.1365 36.0022 18.0005C36.0022 19.8644 34.4912 21.3755 32.6272 21.3755Z" fill="url(#paint3_linear_202_8389)"/>
</g>
</g>
<defs>
<filter id="filter0_f_202_8389" x="0.252197" y="1.0004" width="43.75" height="35.5" filterUnits="userSpaceOnUse" color-interpolation-filters="sRGB">
<feFlood flood-opacity="0" result="BackgroundImageFix"/>
<feBlend mode="normal" in="SourceGraphic" in2="BackgroundImageFix" result="shape"/>
<feGaussianBlur stdDeviation="4" result="effect1_foregroundBlur_202_8389"/>
</filter>
<filter id="filter1_f_202_8389" x="7.4922" y="7.63291" width="29.27" height="21.02" filterUnits="userSpaceOnUse" color-interpolation-filters="sRGB">
<feFlood flood-opacity="0" result="BackgroundImageFix"/>
<feBlend mode="normal" in="SourceGraphic" in2="BackgroundImageFix" result="shape"/>
<feGaussianBlur stdDeviation="0.38" result="effect1_foregroundBlur_202_8389"/>
</filter>
<linearGradient id="paint0_linear_202_8389" x1="8.51572" y1="4.25718" x2="27.2455" y2="31.7437" gradientUnits="userSpaceOnUse">
<stop stop-color="#009CA8"/>
<stop offset="1" stop-color="#007D85"/>
</linearGradient>
<linearGradient id="paint1_linear_202_8389" x1="11.9211" y1="9.85176" x2="24.813" y2="31.2572" gradientUnits="userSpaceOnUse">
<stop stop-color="#36E3EE"/>
<stop offset="1" stop-color="#00B1BE"/>
</linearGradient>
<linearGradient id="paint2_linear_202_8389" x1="11.6779" y1="9.00042" x2="28.2185" y2="23.8383" gradientUnits="userSpaceOnUse">
<stop stop-color="#D2F6F9"/>
<stop offset="1" stop-color="#82EBF1"/>
</linearGradient>
<linearGradient id="paint3_linear_202_8389" x1="36.3671" y1="19.0951" x2="27.1238" y2="15.8112" gradientUnits="userSpaceOnUse">
<stop stop-color="#9AEEF3"/>
<stop offset="1" stop-color="#82EBF1"/>
</linearGradient>
<clipPath id="clip0_202_8389">
<rect width="37" height="36.0004" fill="white"/>
</clipPath>
</defs>
</svg>
