<svg width="28" height="41" viewBox="0 0 28 41" fill="none" xmlns="http://www.w3.org/2000/svg">
<g clip-path="url(#clip0_202_9810)">
<path d="M14.9696 18.4743C13.5329 19.0893 11.9023 19.7868 9.7891 19.7868C8.90508 19.7849 8.02535 19.6637 7.17383 19.4262L8.63537 34.4317C8.6871 35.0589 8.97282 35.6436 9.43579 36.0699C9.89874 36.4962 10.5051 36.7328 11.1344 36.7327C11.1344 36.7327 13.2067 36.8403 13.8981 36.8403C14.6425 36.8403 16.874 36.7327 16.874 36.7327C17.5033 36.7327 18.1095 36.496 18.5723 36.0698C19.0351 35.6435 19.3208 35.0588 19.3725 34.4317L20.9379 17.85C20.2384 17.6111 19.5323 17.4524 18.7364 17.4524C17.36 17.4518 16.2508 17.9259 14.9696 18.4743Z" fill="#FFDD00"/>
<path d="M27.6978 10.6937L27.4777 9.58355C27.2802 8.58749 26.832 7.64631 25.8095 7.2863C25.4818 7.17115 25.11 7.12164 24.8587 6.88325C24.6074 6.64487 24.5331 6.27464 24.475 5.93132C24.3674 5.30117 24.2662 4.67049 24.1559 4.04144C24.0607 3.50062 23.9853 2.89308 23.7372 2.39693C23.4143 1.73074 22.7443 1.34114 22.0782 1.08338C21.7368 0.955945 21.3884 0.848145 21.0348 0.760504C19.3703 0.321396 17.6204 0.15996 15.9081 0.0679415C13.8528 -0.0454667 11.7921 -0.0112985 9.74174 0.170185C8.21562 0.309019 6.60825 0.476914 5.15802 1.00481C4.62797 1.198 4.08177 1.42992 3.67872 1.83944C3.18418 2.34259 3.02275 3.12071 3.38383 3.74815C3.64051 4.19372 4.07532 4.50853 4.53649 4.71678C5.13718 4.98511 5.76452 5.18929 6.40808 5.32593C8.20002 5.72199 10.056 5.8775 11.8867 5.94369C13.9158 6.02559 15.9481 5.95922 17.9675 5.74512C18.4669 5.69024 18.9654 5.62441 19.463 5.54764C20.049 5.45777 20.4251 4.69148 20.2523 4.15766C20.0457 3.51946 19.4904 3.27192 18.8624 3.36824C18.7698 3.38277 18.6778 3.39623 18.5853 3.40968L18.5185 3.41936C18.3057 3.44628 18.0931 3.47138 17.8803 3.4947C17.4409 3.54206 17.0002 3.5808 16.5587 3.61094C15.5696 3.67982 14.5779 3.71156 13.5866 3.71317C12.6126 3.71317 11.6381 3.68573 10.6662 3.6217C10.2228 3.59263 9.78048 3.55569 9.33922 3.51084C9.1385 3.48986 8.93832 3.4678 8.73815 3.44304L8.54764 3.41882L8.50621 3.41291L8.30872 3.38438C7.90513 3.32358 7.50154 3.25362 7.10225 3.16913C7.06196 3.1602 7.02592 3.13779 7.00009 3.1056C6.97426 3.07341 6.96018 3.03337 6.96018 2.99209C6.96018 2.95083 6.97426 2.91079 7.00009 2.8786C7.02592 2.84641 7.06196 2.82399 7.10225 2.81505H7.10978C7.45579 2.74133 7.8045 2.67838 8.15428 2.62348C8.27087 2.60519 8.38782 2.58725 8.50514 2.56967H8.50836C8.72738 2.55514 8.94747 2.51586 9.16541 2.49003C11.0616 2.29279 12.9691 2.22556 14.8743 2.28877C15.7994 2.31568 16.7239 2.37003 17.6446 2.46366C17.8426 2.48411 18.0396 2.50564 18.2366 2.52985C18.3119 2.53899 18.3878 2.54976 18.4636 2.55891L18.6164 2.58097C19.062 2.64734 19.5052 2.72788 19.9462 2.82259C20.5994 2.96465 21.4384 3.01093 21.729 3.72664C21.8215 3.95372 21.8635 4.2061 21.9146 4.44449L21.9797 4.74852C21.9814 4.75398 21.9826 4.75956 21.9834 4.7652C22.1374 5.4827 22.2914 6.20019 22.4458 6.91769C22.457 6.97069 22.4573 7.02546 22.4465 7.07858C22.4357 7.13168 22.414 7.182 22.383 7.22638C22.3519 7.27076 22.312 7.30826 22.2658 7.33654C22.2194 7.36481 22.1679 7.38325 22.1142 7.39071H22.1099L22.0157 7.40362L21.9226 7.416C21.6278 7.45438 21.3325 7.49026 21.0369 7.52362C20.4546 7.58998 19.8715 7.64739 19.2875 7.69581C18.1269 7.79232 16.9641 7.85565 15.7988 7.88578C15.2051 7.90156 14.6116 7.90892 14.0182 7.90784C11.6563 7.90598 9.29661 7.76871 6.9505 7.49671C6.6965 7.46658 6.44252 7.43429 6.18852 7.40146C6.38547 7.42676 6.04538 7.3821 5.9765 7.37241C5.81506 7.3498 5.65363 7.32631 5.49219 7.30191C4.9503 7.22065 4.41164 7.12056 3.87083 7.03286C3.21701 6.92523 2.59171 6.97904 2.00032 7.30191C1.51487 7.56756 1.12197 7.97492 0.874029 8.46964C0.61896 8.997 0.54308 9.57117 0.429003 10.1378C0.31492 10.7045 0.137339 11.3141 0.204604 11.8959C0.349359 13.1513 1.22704 14.1716 2.48947 14.3998C3.67711 14.615 4.87119 14.7893 6.06852 14.9378C10.7719 15.5139 15.5235 15.5828 20.2416 15.1434C20.6258 15.1076 21.0095 15.0684 21.3926 15.0262C21.5123 15.013 21.6334 15.0267 21.7471 15.0665C21.8607 15.1062 21.9641 15.1708 22.0495 15.2556C22.1349 15.3405 22.2003 15.4434 22.2408 15.5566C22.2814 15.67 22.296 15.791 22.2837 15.9108L22.1643 17.072C21.9236 19.4187 21.6829 21.7651 21.4421 24.1112C21.191 26.5751 20.9382 29.0388 20.6839 31.5023C20.6121 32.1961 20.5404 32.8898 20.4686 33.5833C20.3998 34.2661 20.3901 34.9706 20.2604 35.6454C20.056 36.7066 19.3375 37.3581 18.2893 37.5966C17.3289 37.8151 16.3478 37.9298 15.3629 37.9388C14.2711 37.9447 13.1798 37.8963 12.088 37.9022C10.9224 37.9087 9.49474 37.801 8.595 36.9336C7.8045 36.1716 7.69526 34.9786 7.58764 33.947C7.44414 32.5812 7.3019 31.2156 7.16091 29.8503L6.36987 22.258L5.85811 17.3454C5.8495 17.2642 5.84089 17.184 5.83282 17.1022C5.77147 16.5162 5.35659 15.9426 4.70276 15.9721C4.14312 15.9969 3.50706 16.4726 3.57272 17.1022L3.95208 20.7442L4.73666 28.2779C4.96016 30.4179 5.18312 32.5581 5.40555 34.6987C5.4486 35.1088 5.48896 35.5199 5.53416 35.93C5.78009 38.1707 7.49131 39.3782 9.61044 39.7184C10.8481 39.9175 12.116 39.9584 13.3719 39.9788C14.982 40.0046 16.6081 40.0666 18.1919 39.7749C20.5386 39.3444 22.2994 37.7773 22.5507 35.3467C22.6224 34.6449 22.6942 33.9431 22.7659 33.241C23.0045 30.9192 23.2427 28.5972 23.4805 26.275L24.2587 18.6875L24.6154 15.2101C24.6332 15.0377 24.7061 14.8757 24.8231 14.7478C24.9401 14.6199 25.0953 14.5332 25.2655 14.5003C25.9366 14.3696 26.578 14.1463 27.0553 13.6356C27.8151 12.8226 27.9663 11.7624 27.6978 10.6937ZM2.45503 11.4438C2.46526 11.439 2.44642 11.5267 2.43835 11.5676C2.43673 11.5057 2.43996 11.4508 2.45503 11.4438ZM2.52015 11.9476C2.52553 11.9437 2.54166 11.9653 2.55835 11.9911C2.53305 11.9674 2.51692 11.9497 2.5196 11.9476H2.52015ZM2.58418 12.032C2.60732 12.0713 2.6197 12.0961 2.58418 12.032V12.032ZM2.71279 12.1364H2.71602C2.71602 12.1402 2.72194 12.1439 2.72409 12.1478C2.72052 12.1436 2.71656 12.1398 2.71225 12.1364H2.71279ZM25.2342 11.9803C24.9932 12.2096 24.63 12.3161 24.271 12.3694C20.2459 12.9668 16.1621 13.2692 12.0928 13.1357C9.18048 13.0362 6.29883 12.7128 3.41558 12.3054C3.13306 12.2656 2.82688 12.2139 2.63262 12.0057C2.26669 11.6128 2.44642 10.8218 2.54166 10.3471C2.62885 9.91234 2.79566 9.33279 3.31279 9.2709C4.11998 9.1762 5.05739 9.51683 5.85597 9.63791C6.8174 9.78463 7.78244 9.90212 8.75106 9.99037C12.8849 10.3671 17.0882 10.3084 21.2037 9.75736C21.9539 9.65656 22.7013 9.53943 23.4461 9.40597C24.1096 9.28704 24.8453 9.06373 25.2461 9.75091C25.5211 10.2191 25.5577 10.8454 25.5152 11.3744C25.5021 11.6049 25.4014 11.8217 25.2338 11.9803H25.2342Z" fill="black"/>
</g>
<defs>
<clipPath id="clip0_202_9810">
<rect width="28" height="41" fill="white"/>
</clipPath>
</defs>
</svg>
