<svg width="34" height="36" viewBox="0 0 34 36" fill="none" xmlns="http://www.w3.org/2000/svg">
<g clip-path="url(#clip0_202_14668)">
<path d="M33.0161 10.5844C33.0158 9.97909 32.8864 9.4442 32.6245 8.98514C32.3674 8.53371 31.9823 8.15536 31.4657 7.85621C27.2015 5.39745 22.9331 2.94621 18.6703 0.484951C17.5211 -0.178521 16.4068 -0.154333 15.2661 0.518664C13.5688 1.51964 5.07117 6.38815 2.53897 7.85483C1.49614 8.45852 0.988696 9.38242 0.988446 10.5833C0.986816 15.528 0.988446 20.4726 0.986816 25.4174C0.987067 26.0094 1.11101 26.5339 1.36129 26.9861C1.61858 27.4512 2.00909 27.8399 2.53759 28.1459C5.06991 29.6125 13.5687 34.4807 15.2656 35.4819C16.4068 36.1553 17.5211 36.1793 18.6707 35.5156C22.9336 33.0542 27.2022 30.6031 31.467 28.1444C31.9955 27.8386 32.3861 27.4496 32.6433 26.9848C32.8932 26.5327 33.0174 26.0082 33.0177 25.416C33.0177 25.416 33.0177 15.5292 33.0161 10.5844Z" fill="#5C8DBC"/>
<path d="M17.0513 17.9521L1.36133 26.9861C1.61862 27.4512 2.00913 27.8399 2.53763 28.1459C5.06995 29.6125 13.5688 34.4807 15.2657 35.4819C16.4069 36.1553 17.5211 36.1793 18.6707 35.5156C22.9337 33.0542 27.2023 30.6031 31.4671 28.1443C31.9956 27.8386 32.3861 27.4495 32.6434 26.9848L17.0513 17.9521Z" fill="#1A4674"/>
<path d="M12.4041 20.6281C13.317 22.222 15.0334 23.297 17.0022 23.297C18.9833 23.297 20.7094 22.2083 21.6177 20.5974L17.0512 17.9521L12.4041 20.6281Z" fill="#1A4674"/>
<path d="M33.0161 10.5844C33.0158 9.97909 32.8864 9.4442 32.6246 8.98514L17.0513 17.9522L32.6434 26.9848C32.8933 26.5327 33.0175 26.0082 33.0177 25.416C33.0177 25.416 33.0177 15.5292 33.0161 10.5844Z" fill="#1B598E"/>
<path d="M32.1588 18.5978H30.9404V19.8165H29.7217V18.5978H28.5034V17.3795H29.7217V16.1611H30.9404V17.3795H32.1588V18.5978Z" fill="white"/>
<path d="M27.7127 18.5978H26.4944V19.8165H25.276V18.5978H24.0576V17.3795H25.276V16.1611H26.4944V17.3795H27.7127V18.5978Z" fill="white"/>
<path d="M21.6177 20.5974C20.7093 22.2083 18.9832 23.297 17.0022 23.297C15.0334 23.297 13.317 22.222 12.404 20.6281C11.9605 19.8536 11.7055 18.9569 11.7055 18.0003C11.7055 15.0751 14.077 12.7037 17.0022 12.7037C18.9584 12.7037 20.6657 13.7653 21.5832 15.3429L26.2129 12.677C24.3727 9.50048 20.9372 7.36343 17.0022 7.36343C11.1275 7.36343 6.36523 12.1258 6.36523 18.0003C6.36523 19.9275 6.87794 21.7349 7.77402 23.2938C9.60953 26.4871 13.0548 28.6373 17.0022 28.6373C20.9568 28.6373 24.4076 26.4784 26.2404 23.2757L21.6177 20.5974Z" fill="white"/>
</g>
<defs>
<clipPath id="clip0_202_14668">
<rect width="34" height="36.0004" fill="white"/>
</clipPath>
</defs>
</svg>
