<svg width="33" height="36" viewBox="0 0 33 36" fill="none" xmlns="http://www.w3.org/2000/svg">
<g clip-path="url(#clip0_202_14663)">
<path d="M32.0003 10.5844C32.0001 9.97903 31.8707 9.44415 31.6092 8.98515C31.3523 8.53365 30.9675 8.1554 30.4515 7.85615C26.1913 5.3974 21.9271 2.94615 17.6685 0.484898C16.5203 -0.178478 15.4071 -0.154353 14.2675 0.518647C12.5718 1.51965 4.08233 6.38815 1.55258 7.85478C0.510828 8.45853 0.00382813 9.3824 0.00357813 10.5833C0.00195312 15.528 0.00357813 20.4725 0.00195312 25.4174C0.00220313 26.0094 0.126078 26.5339 0.376078 26.9862C0.633078 27.4512 1.0232 27.8399 1.5512 28.1459C4.08108 29.6125 12.5717 34.4807 14.267 35.4819C15.4071 36.1553 16.5203 36.1793 17.6688 35.5157C21.9276 33.0543 26.1921 30.6032 30.4528 28.1444C30.9808 27.8385 31.371 27.4495 31.628 26.9849C31.8776 26.5327 32.0017 26.0082 32.002 25.416C32.002 25.416 32.002 15.5293 32.0003 10.5844Z" fill="#A9B9CB"/>
<path d="M17.6396 0.517141C16.4933 -0.144609 15.382 -0.120484 14.2442 0.550766C12.5513 1.54914 4.0757 6.40502 1.55008 7.86789C0.509953 8.47002 0.00382813 9.39152 0.00357813 10.5893C0.00195312 15.5211 0.00357813 20.4529 0.00195312 25.3849C0.00220313 25.9754 0.125828 26.4985 0.375453 26.9495C0.632078 27.4134 1.02158 27.8012 1.5487 28.1063C2.12733 28.4414 3.01858 28.9548 4.06858 29.5588L27.4551 6.17227C24.1828 4.28802 20.9097 2.40527 17.6396 0.517141Z" fill="#7F8B99"/>
<path d="M19.309 15.7464L24.2888 15.7815C24.2888 13.7066 22.1886 8.6254 16.1672 8.6254C12.3308 8.6254 7.17334 11.0644 7.17334 18.0767C7.17334 25.0888 12.2292 27.3754 16.1672 27.3754C22.5443 27.3754 24.0685 22.9627 24.0685 20.4689L19.3176 20.1973C19.3176 20.1973 19.4447 23.0817 16.1418 23.0817C13.0931 23.0817 12.5843 19.3469 12.5843 18.0767C12.5843 16.1458 13.271 13.0461 16.1418 13.0461C19.0128 13.0461 19.309 15.7464 19.309 15.7464Z" fill="white"/>
</g>
<defs>
<clipPath id="clip0_202_14663">
<rect width="33" height="36.0004" fill="white"/>
</clipPath>
</defs>
</svg>
