<svg width="32" height="37" viewBox="0 0 32 37" fill="none" xmlns="http://www.w3.org/2000/svg">
<g clip-path="url(#clip0_202_11891)">
<path d="M25.2369 20.0334C25.2369 25.6598 20.6758 30.2209 15.0494 30.2209C9.42314 30.2209 4.86206 25.6598 4.86206 20.0334V15.4681H25.2369V20.0334Z" fill="white"/>
<path d="M26.7905 23.8359H26.0051C26.42 22.6438 26.6485 21.3651 26.6485 20.0335V19.68H26.7905C27.9362 19.68 28.8683 20.612 28.8683 21.7577C28.8683 22.9035 27.9362 23.8359 26.7905 23.8359ZM15.0491 28.809C10.2103 28.809 6.27353 24.8723 6.27353 20.0335V16.88H21.5713H23.8248V20.0335C23.8248 22.2857 22.9711 24.342 21.5713 25.8974C19.9638 27.6835 17.6358 28.809 15.0491 28.809ZM26.7905 16.8219H26.6485V15.4681C26.6485 14.6883 26.0166 14.0563 25.2366 14.0563H4.8618C4.08198 14.0563 3.44995 14.6883 3.44995 15.4681V20.0335C3.44995 26.4295 8.65326 31.6328 15.0491 31.6328C18.9679 31.6328 22.4364 29.6776 24.5373 26.6936H26.7905C29.5122 26.6936 31.7261 24.4794 31.7261 21.7577C31.7261 19.0361 29.5122 16.8219 26.7905 16.8219Z" fill="#303846"/>
<path d="M15.7819 7.51708H14.0046V5.73977C14.0046 5.15417 13.53 4.6795 12.9444 4.6795C12.3589 4.6795 11.8842 5.15417 11.8842 5.73977V7.51708H10.1069C9.5213 7.51708 9.04663 7.99175 9.04663 8.57735C9.04663 9.16283 9.5213 9.63762 10.1069 9.63762H11.8842V11.4148C11.8842 12.0004 12.3589 12.4751 12.9444 12.4751C13.53 12.4751 14.0046 12.0004 14.0046 11.4148V9.63762H15.7819C16.3675 9.63762 16.8423 9.16283 16.8423 8.57735C16.8423 7.99175 16.3675 7.51708 15.7819 7.51708Z" fill="#303846"/>
<path d="M21.8765 2.83917H20.0995V1.06186C20.0995 0.47638 19.6247 0.00158691 19.0391 0.00158691C18.4536 0.00158691 17.9788 0.47638 17.9788 1.06186V2.83917H16.2016C15.616 2.83917 15.1414 3.31384 15.1414 3.89943C15.1414 4.48491 15.616 4.95958 16.2016 4.95958H17.9788V6.73689C17.9788 7.32249 18.4536 7.79716 19.0391 7.79716C19.6247 7.79716 20.0995 7.32249 20.0995 6.73689V4.95958H21.8765C22.4621 4.95958 22.9369 4.48491 22.9369 3.89943C22.9369 3.31384 22.4621 2.83917 21.8765 2.83917Z" fill="#303846"/>
<path d="M28.498 36.0016H1.68992C0.91011 36.0016 0.278076 35.3696 0.278076 34.5897C0.278076 33.8098 0.91011 33.1779 1.68992 33.1779H28.498C29.278 33.1779 29.9098 33.8098 29.9098 34.5897C29.9098 35.3696 29.278 36.0016 28.498 36.0016Z" fill="#303846"/>
</g>
<defs>
<clipPath id="clip0_202_11891">
<rect width="32" height="37" fill="white"/>
</clipPath>
</defs>
</svg>
