<svg width="41" height="32" viewBox="0 0 41 32" fill="none" xmlns="http://www.w3.org/2000/svg">
<g clip-path="url(#clip0_202_9036)">
<path fill-rule="evenodd" clip-rule="evenodd" d="M0.00195312 19.1259C0.00195312 22.5721 8.9541 25.3693 19.9988 25.3693V31.6103C8.9541 31.6103 0.00195312 28.8156 0.00195312 25.3693V19.1259ZM40.002 19.1259V25.3681C40.002 26.8394 38.3661 28.1893 35.6423 29.2571L19.9975 25.3681V19.1259L35.6423 23.0136C38.3661 21.9471 40.0032 20.5972 40.002 19.1259ZM19.9988 0.394165C31.0447 0.394165 40.002 3.19392 40.002 6.63764V12.8849C40.002 14.3512 38.3661 15.7062 35.6435 16.7689L19.9988 12.8849V19.1259C8.9541 19.1259 0.00195312 16.3299 0.00195312 12.8849V6.63764C0.00195312 3.19392 8.9541 0.394165 19.9988 0.394165Z" fill="#D33C44"/>
</g>
<defs>
<clipPath id="clip0_202_9036">
<rect width="41" height="32" fill="white"/>
</clipPath>
</defs>
</svg>
