<svg width="36" height="36" viewBox="0 0 36 36" fill="none" xmlns="http://www.w3.org/2000/svg">
<g clip-path="url(#clip0_202_10389)">
<path d="M33.75 7.87497H2.25V3.53585C2.28046 3.1673 2.45498 2.82562 2.73571 2.58491C3.01644 2.34419 3.38075 2.22385 3.74962 2.24997H32.2504C32.6193 2.22385 32.9836 2.34419 33.2643 2.58491C33.545 2.82562 33.7195 3.1673 33.75 3.53585V7.87497Z" fill="#0364B8"/>
<path d="M2.25 23.625H13.5V33.75H3.72263C3.33206 33.75 2.95749 33.5948 2.68132 33.3187C2.40515 33.0425 2.25 32.6679 2.25 32.2774V23.625Z" fill="#064A8C"/>
<path d="M2.25 14.625H13.5V24.75H2.25V14.625Z" fill="#0364B8"/>
<path d="M12.375 23.625H24.75V33.75H12.375V23.625Z" fill="#0364B8"/>
<path d="M2.25 6.75H13.5V15.75H2.25V6.75Z" fill="#0078D4"/>
<path d="M12.375 14.625H24.75V24.75H12.375V14.625Z" fill="#0078D4"/>
<path d="M12.375 6.75H23.625V15.75H12.375V6.75Z" fill="#28A8EA"/>
<path d="M23.625 23.625H33.75V32.2774C33.75 32.6679 33.5948 33.0425 33.3187 33.3187C33.0425 33.5948 32.6679 33.75 32.2774 33.75H23.625V23.625Z" fill="#0078D4"/>
<path d="M23.625 6.75H33.75V16.875H23.625V6.75Z" fill="#50D9FF"/>
<path d="M23.625 15.75H33.75V24.75H23.625V15.75Z" fill="#28A8EA"/>
</g>
<defs>
<clipPath id="clip0_202_10389">
<rect width="36" height="36" fill="white"/>
</clipPath>
</defs>
</svg>
