<svg width="40" height="28" viewBox="0 0 40 28" fill="none" xmlns="http://www.w3.org/2000/svg">
<g clip-path="url(#clip0_202_10377)">
<path d="M39.725 1.12135C39.4936 0.79046 39.1401 0.565248 38.7424 0.495431C38.3448 0.425614 37.9357 0.516933 37.6054 0.749229L0.272315 26.8861C0.556349 27.2928 1.02133 27.5349 1.51737 27.5343L1.51892 27.5358H38.4799C39.3203 27.5358 40.001 26.8536 40.001 26.0132V1.96793C39.9962 1.66345 39.9 1.36742 39.725 1.11825V1.12135ZM2.39341 0.747679C1.93259 0.425464 1.3316 0.383763 0.830697 0.639247C0.329793 0.894731 0.010698 1.40572 0.000976562 1.96793V26.0582L17.7744 11.4989L2.39496 0.744578" fill="#7856FF"/>
</g>
<defs>
<clipPath id="clip0_202_10377">
<rect width="40.001" height="28" fill="white"/>
</clipPath>
</defs>
</svg>
