<svg width="36" height="37" viewBox="0 0 36 37" fill="none" xmlns="http://www.w3.org/2000/svg">
<g clip-path="url(#clip0_202_16078)">
<path d="M5.60681 7.61414L0.0448973 13.1831L8.62227 21.7861L0.0012207 30.433L5.54573 36.0044L14.1841 27.3551L22.7758 35.9426L28.3377 30.3736L5.60681 7.61414Z" fill="#53B9FF"/>
<path d="M19.7611 21.7863L14.1843 27.3551L22.7759 35.9427L28.3378 30.3738L19.7611 21.7863Z" fill="#119EFF"/>
<path d="M19.7611 21.7863L14.1843 27.3551L16.3311 29.49L19.7611 21.7863Z" fill="black" fill-opacity="0.2"/>
<path d="M27.3622 14.2052L36.0007 5.55589L30.4364 0.00439453L21.8005 8.63631L13.2081 0.0481272L7.64624 5.61706L30.3772 28.3766L35.9391 22.8076L27.3622 14.2052Z" fill="#53B9FF"/>
<path d="M16.2236 14.2054L21.8005 8.63653L13.2081 0.0483398L7.64624 5.61727L16.2236 14.2054Z" fill="#119EFF"/>
<path d="M16.2234 14.2052L21.8003 8.63634L19.6529 6.50085L16.2234 14.2052Z" fill="black" fill-opacity="0.2"/>
</g>
<defs>
<clipPath id="clip0_202_16078">
<rect width="36.0006" height="37" fill="white"/>
</clipPath>
</defs>
</svg>
