<svg width="36" height="37" viewBox="0 0 36 37" fill="none" xmlns="http://www.w3.org/2000/svg">
<g clip-path="url(#clip0_202_13131)">
<path d="M30.2783 9.91655C29.8088 9.2534 29.283 8.63238 28.7078 8.06145C28.1331 7.49076 27.5089 6.96993 26.8427 6.50526L25.6972 8.14296C25.1306 7.74791 24.5275 7.40069 23.8948 7.10701L23.0497 8.9207C23.5767 9.16476 24.0789 9.45331 24.5507 9.78185C25.0264 10.1124 25.4724 10.4827 25.8831 10.889L24.4713 12.3024L23.0583 13.7158C23.3057 13.9581 23.5313 14.2222 23.7332 14.5043C23.935 14.7854 24.114 15.0833 24.2653 15.3978L27.8851 13.7083L29.6961 12.8632L31.5061 12.0181C31.1568 11.2799 30.7461 10.5771 30.2783 9.91655ZM33.5507 7.6238C32.9466 6.76919 32.2712 5.96968 31.5319 5.23466C30.7927 4.49952 29.9907 3.82864 29.1335 3.23034C28.2821 2.63585 27.377 2.11324 26.4273 1.67094C25.4895 1.23507 24.508 0.877137 23.4916 0.606428C22.498 0.341907 21.4705 0.160204 20.4165 0.0697699L20.2427 2.06112C21.1788 2.14144 22.0918 2.30267 22.9744 2.53733L22.4577 4.46894C23.2475 4.6792 24.0099 4.95681 24.7382 5.29511C25.4775 5.63804 26.1811 6.04393 26.8427 6.50526C27.5089 6.96993 28.1331 7.49076 28.7078 8.06145C29.283 8.63238 29.8088 9.2534 30.2783 9.91655C30.7461 10.5771 31.1568 11.2799 31.5061 12.0181L33.3159 11.1731L35.1264 10.3283C34.6782 9.37847 34.1508 8.47353 33.5507 7.6238ZM24.7382 5.29511C24.0099 4.95681 23.2475 4.6792 22.4577 4.46894C21.6856 4.26308 20.8871 4.12291 20.0685 4.05234C19.6686 4.01784 19.2648 3.99939 18.8563 3.99939C18.4479 3.99939 18.0429 4.01784 17.6436 4.05234C16.8254 4.12291 16.0271 4.26308 15.2549 4.46894L15.7716 6.40007C15.095 6.57952 14.4414 6.81738 13.8178 7.10701L14.6623 8.92094C15.1824 8.68022 15.7255 8.48162 16.2887 8.33181C16.8394 8.18616 17.4089 8.08716 17.9922 8.03694C18.277 8.01219 18.5645 7.9972 18.8563 7.9972C19.1474 7.9972 19.4351 8.01219 19.7204 8.03694C20.3037 8.08716 20.8727 8.18616 21.4232 8.33181C21.9871 8.48162 22.5302 8.67962 23.0497 8.9207L23.8948 7.10701C24.5275 7.40069 25.1306 7.74791 25.6972 8.14296L26.8427 6.50526C26.1811 6.04393 25.4775 5.63804 24.7382 5.29511ZM20.2427 2.06112L20.4165 0.0697699C19.9022 0.0255045 19.3821 0.00158691 18.8563 0.00158691C18.3306 0.00158691 17.8105 0.0255045 17.2961 0.0697699C16.2421 0.160204 15.2146 0.341907 14.2206 0.606428C13.2034 0.877137 12.2232 1.23507 11.2853 1.67153C10.335 2.11371 9.4295 2.63609 8.57857 3.2307C7.72192 3.82923 6.91878 4.49952 6.18018 5.23466L7.59246 6.64806C8.24892 5.99538 8.96231 5.39958 9.72397 4.86804L10.8695 6.50586C11.5315 6.04393 12.2346 5.63828 12.9733 5.29534C13.7017 4.95681 14.4644 4.6792 15.2549 4.46894C16.0271 4.26308 16.8254 4.12291 17.6436 4.05234C18.0429 4.01784 18.4479 3.99939 18.8563 3.99939C19.2648 3.99939 19.6686 4.01784 20.0685 4.05234C20.8871 4.12291 21.6856 4.26308 22.4577 4.46894L22.9744 2.53733C22.0918 2.30267 21.1788 2.14144 20.2427 2.06112ZM15.7716 6.40007L15.2549 4.46894C14.4644 4.6792 13.7017 4.95681 12.9733 5.29534C12.2346 5.63828 11.5315 6.04393 10.8695 6.50586C10.2038 6.96993 9.57893 7.49076 9.00427 8.06145C8.42949 8.63274 7.90381 9.25341 7.43364 9.91715L9.06989 11.0634C8.66892 11.6291 8.31561 12.2308 8.01651 12.8632L9.82751 13.7083C10.0773 13.1822 10.3735 12.6824 10.7077 12.2116C11.0438 11.7392 11.4182 11.2957 11.829 10.889C12.2392 10.4827 12.6856 10.1127 13.1609 9.78185C13.6338 9.45331 14.1353 9.16475 14.6623 8.92094L13.8178 7.10701C14.4414 6.81738 15.095 6.57952 15.7716 6.40007ZM9.72397 4.86804C8.96231 5.39958 8.24892 5.99538 7.59246 6.64806L6.18018 5.23466C5.44147 5.97027 4.76481 6.76955 4.16197 7.62415C3.56139 8.47353 3.03381 9.37847 2.58563 10.3286C2.14328 11.2666 1.77963 12.2494 1.503 13.2683C1.23255 14.2654 1.04496 15.2968 0.948905 16.3543L2.93835 16.5288C3.02406 15.5887 3.19085 14.672 3.43253 13.7857L5.36146 14.3033C5.57723 13.5113 5.86147 12.7475 6.20657 12.0181C6.55524 11.2799 6.96657 10.5771 7.43364 9.91715C7.90381 9.25341 8.42949 8.63274 9.00427 8.06145C9.57893 7.49076 10.2038 6.96993 10.8695 6.50586L9.72397 4.86804ZM6.14559 23.8554C5.80738 23.1196 5.53003 22.3504 5.32187 21.5528C5.11811 20.7739 4.9801 19.9686 4.91388 19.1437C4.88333 18.7669 4.86728 18.3862 4.86728 18.0018C4.86728 17.5636 4.88856 17.1303 4.92826 16.703C5.00363 15.8801 5.14986 15.0782 5.36146 14.3033L3.43253 13.7857C3.19085 14.672 3.02406 15.5887 2.93835 16.5288L0.948905 16.3543C0.900045 16.897 0.873535 17.4462 0.873535 18.0018C0.873535 18.5037 0.894933 19.0006 0.93452 19.4918C1.02202 20.5525 1.20033 21.5868 1.4627 22.5876C1.73196 23.612 2.08919 24.6008 2.52524 25.5452C2.96771 26.5029 3.49113 27.4149 4.08838 28.2732L5.72452 27.1265C5.19408 26.3634 4.72867 25.5521 4.33577 24.7001L6.14559 23.8554ZM8.8955 18.7947C8.87481 18.5331 8.86162 18.2688 8.86162 18.0018C8.86162 17.6808 8.87826 17.3641 8.90703 17.0514C8.96231 16.464 9.06989 15.8921 9.2223 15.3385C9.37767 14.774 9.58012 14.2283 9.82751 13.7083L8.01651 12.8632C8.31561 12.2308 8.66892 11.6291 9.06989 11.0634L7.43364 9.91715C6.96657 10.5771 6.55524 11.2799 6.20657 12.0181C5.86147 12.7475 5.57723 13.5113 5.36146 14.3033C5.14986 15.0782 5.00363 15.8801 4.92826 16.703C4.88856 17.1303 4.86728 17.5636 4.86728 18.0018C4.86728 18.3862 4.88333 18.7669 4.91388 19.1437C4.9801 19.9686 5.11811 20.7739 5.32187 21.5528L7.25128 21.0351C7.42912 21.7192 7.66558 22.3795 7.95552 23.0099L9.76771 22.1646C9.52722 21.6381 9.32822 21.0881 9.18093 20.5174C9.03649 19.9609 8.94162 19.3847 8.8955 18.7947ZM12.9129 30.6795C12.169 30.3297 11.4603 29.9165 10.7952 29.446C10.1261 28.9729 9.50071 28.4429 8.92546 27.8627C8.35127 27.2825 7.82666 26.6526 7.36065 25.98C6.89643 25.3114 6.48903 24.6008 6.14559 23.8554L4.33577 24.7001C4.72867 25.5521 5.19408 26.3634 5.72452 27.1265L4.08838 28.2732C4.68896 29.1368 5.36265 29.9453 6.10136 30.6893C6.84055 31.4342 7.64489 32.114 8.50427 32.7208C9.35925 33.3244 10.2694 33.8545 11.2243 34.3037L12.069 32.492C12.9077 32.8865 13.7868 33.2101 14.698 33.4551L15.2146 31.5236C14.4173 31.3091 13.6476 31.0255 12.9129 30.6795ZM14.6013 27.0551C14.0692 26.804 13.5635 26.5063 13.0878 26.1688C12.6092 25.8297 12.161 25.4513 11.7501 25.0353C11.3394 24.6198 10.966 24.1681 10.633 23.6861C10.3022 23.2072 10.0128 22.6985 9.76771 22.1646L7.95552 23.0099C7.66558 22.3795 7.42912 21.7192 7.25128 21.0351L5.32187 21.5528C5.53003 22.3504 5.80738 23.1196 6.14559 23.8554C6.48903 24.6008 6.89643 25.3114 7.36065 25.98C7.82666 26.6526 8.35127 27.2825 8.92546 27.8627C9.50071 28.4429 10.1261 28.9729 10.7952 29.446L11.9401 27.8086C12.5107 28.2125 13.1183 28.5675 13.7568 28.8676C14.3874 29.1647 15.0479 29.4083 15.7324 29.5926L16.2497 27.6599C15.6784 27.506 15.1271 27.303 14.6013 27.0551ZM28.0629 31.0837C27.3029 31.6204 26.4929 32.0923 25.6437 32.492C24.8044 32.8865 23.9247 33.2101 23.0141 33.4551L22.4968 31.5236C21.7167 31.7335 20.9101 31.8773 20.0823 31.9495C19.678 31.985 19.2694 32.0037 18.8563 32.0037C18.4427 32.0037 18.0336 31.985 17.6298 31.9495C16.8019 31.8773 15.9953 31.7335 15.2146 31.5236L14.698 33.4551C13.7868 33.2101 12.9077 32.8865 12.069 32.492L11.2243 34.3037C12.1685 34.747 13.1568 35.1109 14.1813 35.3863C15.183 35.6551 16.2192 35.8398 17.2823 35.9321C17.8012 35.9773 18.3258 36.0016 18.8563 36.0016C19.3867 36.0016 19.9114 35.9773 20.4303 35.9321C21.4935 35.8398 22.529 35.6551 23.5313 35.3863C24.5552 35.1109 25.5436 34.747 26.4871 34.3037C27.4433 33.8547 28.3534 33.3244 29.2084 32.7208L28.0629 31.0837ZM31.9881 27.1265L30.352 25.98C29.8855 26.6526 29.3614 27.2831 28.7871 27.8627C28.2119 28.4429 27.5859 28.9733 26.9175 29.446C26.2523 29.9165 25.5436 30.3297 24.7993 30.6795C24.0651 31.0255 23.2947 31.3091 22.4968 31.5236L23.0141 33.4551C23.9247 33.2101 24.8044 32.8865 25.6437 32.492C26.4929 32.0923 27.3029 31.6204 28.0629 31.0837L29.2084 32.7208C30.0678 32.1144 30.8715 31.4342 31.6107 30.6899C32.3494 29.9456 33.0237 29.1368 33.6237 28.2732L31.9881 27.1265ZM28.7165 24.8335L27.0796 23.6861C26.746 24.1683 26.3732 24.6201 25.9625 25.0353C25.5506 25.4513 25.1029 25.83 24.6249 26.1688L25.7713 27.8086C25.2007 28.2125 24.5932 28.5675 23.9552 28.8678L24.7993 30.6795C25.5436 30.3297 26.2523 29.9165 26.9175 29.446C27.5859 28.9733 28.2119 28.4429 28.7871 27.8627C29.3614 27.2831 29.8855 26.6526 30.352 25.98L28.7165 24.8335ZM25.7713 27.8086L24.6249 26.1688C24.1491 26.5065 23.6428 26.804 23.1101 27.0551C22.5849 27.303 22.0343 27.506 21.4624 27.6599C20.9044 27.8106 20.3268 27.9136 19.7342 27.9652C19.4444 27.9905 19.152 28.0059 18.8563 28.0059C18.5606 28.0059 18.2678 27.9905 17.9785 27.9652C17.3858 27.9136 16.8083 27.8106 16.2497 27.6599L15.7324 29.5926C15.0479 29.4083 14.3874 29.1647 13.7568 28.8676C13.1183 28.5675 12.5107 28.2125 11.9401 27.8086L10.7952 29.446C11.4603 29.9165 12.169 30.3297 12.9129 30.6795C13.6476 31.0255 14.4173 31.3091 15.2146 31.5236C15.9953 31.7335 16.8019 31.8773 17.6298 31.9495C18.0336 31.985 18.4427 32.0037 18.8563 32.0037C19.2694 32.0037 19.678 31.985 20.0823 31.9495C20.9101 31.8773 21.7167 31.7335 22.4968 31.5236C23.2947 31.3091 24.0651 31.0255 24.7993 30.6795L23.9552 28.8678C24.5932 28.5675 25.2007 28.2125 25.7713 27.8086Z" fill="#52C1DB"/>
<path d="M30.2784 9.91654C29.8089 9.25339 29.2831 8.63237 28.7079 8.06144C28.1332 7.49075 27.509 6.96992 26.8428 6.50525L25.6972 8.14295C25.1307 7.74789 24.5276 7.40067 23.8949 7.107L23.0498 8.92069C23.5768 9.16474 24.0789 9.4533 24.5508 9.78184C25.0265 10.1124 25.4724 10.4827 25.8832 10.8889L24.4714 12.3023L23.0584 13.7157C23.3058 13.9581 23.5314 14.2222 23.7332 14.5043C23.9351 14.7854 24.1141 15.0833 24.2653 15.3978L27.8852 13.7082L29.6962 12.8632L31.5062 12.0181C31.1569 11.2798 30.7462 10.5771 30.2784 9.91654Z" fill="#52C1DB"/>
<path d="M33.5506 7.62373C32.9466 6.76912 32.2711 5.96961 31.5318 5.23459C30.7926 4.49945 29.9906 3.82857 29.1334 3.23027C28.282 2.63578 27.377 2.11317 26.4272 1.67087C25.4894 1.235 24.5079 0.877069 23.4915 0.60636C22.4979 0.341839 21.4705 0.160137 20.4165 0.0697021L20.2427 2.06105C21.1787 2.14137 22.0917 2.3026 22.9743 2.53726L22.4576 4.46887C23.2475 4.67913 24.0098 4.95674 24.7381 5.29504C25.4774 5.63798 26.181 6.04386 26.8426 6.5052C27.5088 6.96986 28.133 7.4907 28.7077 8.06139C29.283 8.63231 29.8088 9.25334 30.2782 9.91648C30.746 10.577 31.1567 11.2798 31.506 12.018L33.3158 11.173L35.1263 10.3282C34.6782 9.3784 34.1507 8.47346 33.5506 7.62373Z" fill="#3B528A"/>
<path d="M24.7382 5.2951C24.01 4.95681 23.2476 4.6792 22.4578 4.46894C21.6856 4.26308 20.8871 4.1229 20.0685 4.05234C19.6686 4.01783 19.2649 3.99939 18.8563 3.99939C18.448 3.99939 18.043 4.01783 17.6436 4.05234C16.8255 4.1229 16.0271 4.26308 15.255 4.46894L15.7716 6.40007C15.0951 6.57951 14.4415 6.81738 13.8179 7.10701L14.6624 8.92094C15.1825 8.68021 15.7255 8.48161 16.2888 8.3318C16.8394 8.18616 17.409 8.08715 17.9923 8.03694C18.277 8.01219 18.5646 7.99719 18.8563 7.99719C19.1475 7.99719 19.4351 8.01219 19.7205 8.03694C20.3038 8.08715 20.8728 8.18616 21.4233 8.3318C21.9871 8.48161 22.5303 8.67962 23.0498 8.9207L23.8949 7.10701C24.5276 7.40068 25.1306 7.7479 25.6972 8.14296L26.8427 6.50526C26.1812 6.04393 25.4775 5.63804 24.7382 5.2951Z" fill="#00AEE8"/>
<path d="M20.2427 2.06112L20.4165 0.0697699C19.9022 0.0255045 19.3821 0.00158691 18.8563 0.00158691C18.3306 0.00158691 17.8105 0.0255045 17.2961 0.0697699C16.2421 0.160204 15.2146 0.341907 14.2206 0.606428C13.2034 0.877137 12.2232 1.23507 11.2853 1.67153C10.335 2.11371 9.4295 2.63609 8.57856 3.2307C7.72192 3.82923 6.91877 4.49952 6.18018 5.23466L7.59246 6.64805C8.24891 5.99538 8.9623 5.39958 9.72396 4.86804L10.8695 6.50586C11.5315 6.04393 12.2346 5.63828 12.9733 5.29534C13.7017 4.95681 14.4644 4.6792 15.2549 4.46894C16.0271 4.26308 16.8254 4.12291 17.6436 4.05234C18.0429 4.01784 18.4479 3.99939 18.8563 3.99939C19.2648 3.99939 19.6686 4.01784 20.0685 4.05234C20.8871 4.12291 21.6856 4.26308 22.4577 4.46894L22.9743 2.53733C22.0918 2.30267 21.1788 2.14144 20.2427 2.06112Z" fill="#3F8ABD"/>
<path d="M15.7715 6.40007L15.2549 4.46893C14.4643 4.67919 13.7016 4.9568 12.9732 5.29534C12.2345 5.63828 11.5315 6.04392 10.8694 6.50585C10.2037 6.96993 9.57889 7.49076 9.00422 8.06145C8.42944 8.63273 7.90376 9.2534 7.43359 9.91714L9.06985 11.0634C8.66887 11.6291 8.31556 12.2308 8.01646 12.8632L9.82746 13.7083C10.0772 13.1822 10.3735 12.6824 10.7076 12.2116C11.0437 11.7392 11.4182 11.2957 11.8289 10.889C12.2392 10.4827 12.6856 10.1126 13.1608 9.78185C13.6337 9.45331 14.1353 9.16475 14.6623 8.92093L13.8178 7.10701C14.4414 6.81738 15.095 6.57951 15.7715 6.40007Z" fill="#52C1DB"/>
<path d="M9.72379 4.86804C8.96213 5.39958 8.24874 5.99538 7.59229 6.64806L6.18001 5.23466C5.44129 5.97027 4.76463 6.76955 4.1618 7.62416C3.56122 8.47353 3.03363 9.37847 2.58546 10.3286C2.14311 11.2666 1.77946 12.2494 1.50283 13.2683C1.23238 14.2654 1.04478 15.2968 0.94873 16.3543L2.93817 16.5288C3.02388 15.5887 3.19067 14.672 3.43235 13.7857L5.36129 14.3033C5.57705 13.5113 5.86129 12.7475 6.2064 12.0181C6.55507 11.2799 6.96639 10.5771 7.43347 9.91715C7.90363 9.25341 8.42932 8.63274 9.0041 8.06145C9.57876 7.49076 10.2036 6.96993 10.8693 6.50586L9.72379 4.86804Z" fill="#00AEE8"/>
<path d="M6.14559 23.8554C5.80737 23.1196 5.53003 22.3503 5.32187 21.5527C5.11811 20.7739 4.98009 19.9686 4.91388 19.1437C4.88333 18.7669 4.86728 18.3862 4.86728 18.0017C4.86728 17.5636 4.88856 17.1302 4.92826 16.7029C5.00363 15.8801 5.14985 15.0782 5.36146 14.3033L3.43253 13.7857C3.19085 14.672 3.02406 15.5887 2.93835 16.5287L0.948905 16.3543C0.900045 16.897 0.873535 17.4462 0.873535 18.0017C0.873535 18.5037 0.894933 19.0006 0.93452 19.4918C1.02202 20.5525 1.20033 21.5868 1.4627 22.5876C1.73196 23.612 2.08919 24.6007 2.52524 25.5452C2.96771 26.5028 3.49113 27.4149 4.08838 28.2732L5.72452 27.1265C5.19408 26.3634 4.72867 25.5521 4.33577 24.7001L6.14559 23.8554Z" fill="#3F8ABD"/>
<path d="M8.89541 18.7947C8.87472 18.533 8.86153 18.2688 8.86153 18.0017C8.86153 17.6808 8.87817 17.364 8.90694 17.0513C8.96222 16.464 9.0698 15.8921 9.22221 15.3384C9.37758 14.7739 9.58003 14.2282 9.82742 13.7082L8.01641 12.8631C8.31551 12.2308 8.66882 11.6291 9.0698 11.0634L7.43355 9.91711C6.96647 10.577 6.55515 11.2798 6.20648 12.0181C5.86137 12.7475 5.57713 13.5113 5.36137 14.3033C5.14976 15.0782 5.00354 15.8801 4.92817 16.7029C4.88847 17.1302 4.86719 17.5636 4.86719 18.0017C4.86719 18.3862 4.88324 18.7669 4.91379 19.1437C4.98 19.9686 5.11802 20.7739 5.32178 21.5527L7.25119 21.0351C7.42903 21.7192 7.66548 22.3795 7.95543 23.0099L9.76762 22.1646C9.52713 21.638 9.32813 21.088 9.18084 20.5174C9.0364 19.9608 8.94153 19.3847 8.89541 18.7947Z" fill="#3B528A"/>
<path d="M12.9129 30.6795C12.1689 30.3297 11.4603 29.9166 10.7952 29.4461C10.1261 28.9729 9.50071 28.4429 8.92545 27.8627C8.35127 27.2825 7.82665 26.6526 7.36065 25.98C6.89642 25.3114 6.48902 24.6008 6.14558 23.8554L4.33577 24.7001C4.72866 25.5521 5.19407 26.3634 5.72451 27.1265L4.08838 28.2733C4.68896 29.1368 5.36264 29.9453 6.10136 30.6893C6.84055 31.4342 7.64489 32.114 8.50426 32.7209C9.35924 33.3244 10.2694 33.8545 11.2243 34.3037L12.069 32.492C12.9077 32.8865 13.7868 33.2102 14.698 33.4552L15.2146 31.5237C14.4173 31.3091 13.6476 31.0256 12.9129 30.6795Z" fill="#52C1DB"/>
<path d="M14.6012 27.055C14.0691 26.8039 13.5634 26.5062 13.0877 26.1687C12.6091 25.8296 12.1609 25.4512 11.75 25.0352C11.3393 24.6197 10.9659 24.168 10.6329 23.686C10.3021 23.2071 10.0127 22.6984 9.76762 22.1645L7.95543 23.0098C7.66548 22.3794 7.42903 21.7191 7.25119 21.035L5.32178 21.5527C5.52993 22.3503 5.80728 23.1196 6.14549 23.8553C6.48893 24.6007 6.89633 25.3113 7.36055 25.9799C7.82656 26.6525 8.35117 27.2824 8.92536 27.8626C9.50062 28.4428 10.126 28.9728 10.7951 29.4459L11.94 27.8085C12.5106 28.2125 13.1182 28.5674 13.7567 28.8675C14.3873 29.1646 15.0478 29.4082 15.7323 29.5925L16.2496 27.6598C15.6783 27.5059 15.127 27.3029 14.6012 27.055Z" fill="#00AEE8"/>
<path d="M28.0626 31.0836C27.3026 31.6203 26.4927 32.0922 25.6434 32.4919C24.8042 32.8864 23.9245 33.21 23.0138 33.455L22.4966 31.5235C21.7165 31.7334 20.9099 31.8772 20.082 31.9494C19.6777 31.9849 19.2691 32.0036 18.856 32.0036C18.4425 32.0036 18.0334 31.9849 17.6296 31.9494C16.8017 31.8772 15.9951 31.7334 15.2144 31.5235L14.6978 33.455C13.7866 33.21 12.9074 32.8864 12.0688 32.4919L11.2241 34.3036C12.1683 34.7469 13.1566 35.1108 14.1811 35.3862C15.1828 35.655 16.2189 35.8396 17.2821 35.932C17.801 35.9772 18.3256 36.0015 18.856 36.0015C19.3865 36.0015 19.9112 35.9772 20.4301 35.932C21.4933 35.8396 22.5288 35.655 23.5311 35.3862C24.555 35.1108 25.5434 34.7469 26.4869 34.3036C27.443 33.8546 28.3532 33.3243 29.2082 32.7207L28.0626 31.0836Z" fill="#3B528A"/>
<path d="M31.9884 27.1266L30.3522 25.9801C29.8858 26.6527 29.3616 27.2832 28.7873 27.8628C28.2122 28.443 27.5862 28.9734 26.9177 29.4461C26.2526 29.9166 25.5438 30.3298 24.7995 30.6796C24.0653 31.0256 23.295 31.3092 22.4971 31.5237L23.0143 33.4552C23.9249 33.2102 24.8046 32.8866 25.6439 32.4921C26.4932 32.0924 27.3031 31.6205 28.0631 31.0838L29.2086 32.7209C30.068 32.1145 30.8717 31.4343 31.6109 30.69C32.3497 29.9457 33.0239 29.1369 33.6239 28.2733L31.9884 27.1266Z" fill="#00AEE8"/>
<path d="M28.7163 24.8336L27.0795 23.6862C26.7459 24.1684 26.3731 24.6203 25.9624 25.0354C25.5504 25.4514 25.1027 25.8301 24.6247 26.1689L25.7712 27.8087C25.2006 28.2126 24.5931 28.5676 23.9551 28.8679L24.7991 30.6796C25.5434 30.3298 26.2522 29.9166 26.9173 29.4461C27.5858 28.9734 28.2118 28.443 28.7869 27.8628C29.3612 27.2832 29.8854 26.6527 30.3518 25.9801L28.7163 24.8336Z" fill="#52C1DB"/>
<path d="M25.7716 27.8085L24.6251 26.1688C24.1493 26.5065 23.643 26.804 23.1103 27.0551C22.5851 27.3029 22.0345 27.5059 21.4627 27.6599C20.9047 27.8106 20.327 27.9136 19.7344 27.9651C19.4446 27.9905 19.1523 28.0058 18.8565 28.0058C18.5608 28.0058 18.268 27.9905 17.9787 27.9651C17.3861 27.9136 16.8086 27.8106 16.2499 27.6599L15.7326 29.5926C15.0481 29.4083 14.3876 29.1647 13.757 28.8676C13.1185 28.5675 12.511 28.2125 11.9403 27.8085L10.7954 29.446C11.4605 29.9165 12.1692 30.3296 12.9131 30.6795C13.6478 31.0255 14.4175 31.3091 15.2149 31.5236C15.9955 31.7335 16.8021 31.8773 17.63 31.9495C18.0338 31.985 18.4429 32.0036 18.8565 32.0036C19.2696 32.0036 19.6782 31.985 20.0825 31.9495C20.9104 31.8773 21.717 31.7335 22.497 31.5236C23.295 31.3091 24.0653 31.0255 24.7995 30.6795L23.9554 28.8678C24.5935 28.5675 25.2009 28.2125 25.7716 27.8085Z" fill="#3F8ABD"/>
</g>
<defs>
<clipPath id="clip0_202_13131">
<rect width="36" height="37" fill="white"/>
</clipPath>
</defs>
</svg>
