<svg width="30" height="37" viewBox="0 0 30 37" fill="none" xmlns="http://www.w3.org/2000/svg">
<g clip-path="url(#clip0_202_14972)">
<path d="M28.6337 10.1534L20.8226 15.4196C19.1788 13.1131 15.6844 12.8236 13.6639 14.8205C11.756 16.7058 11.9472 19.8753 14.059 21.5373C16.3646 23.3517 19.9204 22.5631 21.1981 19.9603L29.7586 23.938C28.2654 27.4054 25.0912 31.4281 18.094 31.7325L18.4419 36.0044C12.5735 35.1556 7.20491 31.402 5.32548 25.7995L1.69363 28.222C0.578974 25.4892 0.1766 22.4808 0.635101 19.5683C1.07826 16.7518 2.32454 14.2262 4.21931 12.0708L0.24585 10.2244C2.11134 8.0454 4.32672 6.25642 7.03471 5.15207C9.80994 4.02025 12.9324 3.66109 15.8839 4.27626L15.5362 0.00439453C21.3766 0.84952 26.7464 4.57829 28.6337 10.1534Z" fill="#4B608E"/>
</g>
<defs>
<clipPath id="clip0_202_14972">
<rect width="30" height="37" fill="white"/>
</clipPath>
</defs>
</svg>
