<svg width="37" height="36" viewBox="0 0 37 36" fill="none" xmlns="http://www.w3.org/2000/svg">
<g clip-path="url(#clip0_202_9245)">
<path d="M36.0024 27.9858C36.0024 32.4121 32.4146 36 27.9884 36H8.01645C3.59033 36 0.00244141 32.4121 0.00244141 27.9858V8.01404C0.00244141 3.58792 3.59033 3.05176e-05 8.01645 3.05176e-05H27.9884C32.4146 3.05176e-05 36.0024 3.58792 36.0024 8.01404V27.9858Z" fill="url(#paint0_linear_202_9245)"/>
<path d="M18.0263 29.1175C11.9091 29.1175 6.93262 24.1411 6.93262 18.0238C6.93262 11.9066 11.9091 6.93015 18.0263 6.93015C21.5671 6.93015 24.9242 8.64258 27.0078 11.5109C27.0995 11.644 27.1355 11.8078 27.1081 11.9671C27.0808 12.1264 26.9923 12.2688 26.8615 12.3638C26.7307 12.4588 26.5679 12.4989 26.4079 12.4757C26.2479 12.4524 26.1034 12.3675 26.0051 12.2392C24.1542 9.69073 21.1715 8.16912 18.0263 8.16912C12.5925 8.16912 8.17184 12.5898 8.17184 18.0236C8.17184 23.4572 12.5925 27.8781 18.0263 27.8781C21.1651 27.8781 24.144 26.3619 25.9959 23.8217C26.0945 23.6938 26.2391 23.6093 26.3989 23.5865C26.5588 23.5636 26.7213 23.604 26.8518 23.6991C26.9823 23.7943 27.0705 23.9366 27.0976 24.0958C27.1247 24.255 27.0886 24.4185 26.9969 24.5515C24.9133 27.4108 21.5596 29.1175 18.0263 29.1175ZM16.0072 13.2754C15.9119 13.2052 15.8027 13.1431 15.7131 13.1431C15.604 13.1432 15.4993 13.1866 15.4221 13.2638C15.3449 13.341 15.3015 13.4456 15.3015 13.5548V22.3443C15.3017 22.4175 15.3214 22.4895 15.3587 22.5526C15.3959 22.6157 15.4493 22.6677 15.5134 22.7033C15.5775 22.7389 15.6499 22.7567 15.7232 22.755C15.7965 22.7532 15.8679 22.732 15.9303 22.6934C16.0074 22.6448 23.4529 18.3988 23.5252 18.3358C23.612 18.2603 23.6668 18.1492 23.6668 18.0251C23.6668 17.9184 23.6264 17.8214 23.5599 17.7482C23.4845 17.6655 16.1315 13.367 16.0072 13.2754Z" fill="white"/>
</g>
<defs>
<linearGradient id="paint0_linear_202_9245" x1="18.0024" y1="3.05176e-05" x2="18.0024" y2="36" gradientUnits="userSpaceOnUse">
<stop stop-color="#0BD319"/>
<stop offset="0.22" stop-color="#18D722"/>
<stop offset="1" stop-color="#86FC6F"/>
</linearGradient>
<clipPath id="clip0_202_9245">
<rect width="37" height="36" fill="white"/>
</clipPath>
</defs>
</svg>
