<svg width="40" height="41" viewBox="0 0 40 41" fill="none" xmlns="http://www.w3.org/2000/svg">
<path opacity="0.9671" fill-rule="evenodd" clip-rule="evenodd" d="M9.33224 0.00256348C4.24035 0.00256348 0.112549 4.13036 0.112549 9.22227V30.7829C0.112549 35.8748 4.24034 40.0026 9.33224 40.0026H30.6786C35.7705 40.0026 39.8983 35.8748 39.8983 30.7829V9.22227C39.8983 4.13035 35.7705 0.00256348 30.6786 0.00256348H9.33224ZM26.4696 14.88C24.9509 13.5947 23.0265 12.888 21.037 12.8849C19.3978 12.8849 17.7587 13.4282 17.7587 14.9362C17.7587 16.3109 19.2181 16.8489 21.0159 17.5116C21.1902 17.5757 21.3678 17.6412 21.5475 17.7087C25.1021 18.9076 28.0291 20.3782 28.0291 23.8625C28.0291 27.6467 25.0927 30.2319 20.2876 30.5269L19.8521 32.5548C19.7701 32.9336 19.4341 33.2032 19.0465 33.2011H16.0258C15.7787 33.195 15.547 33.0797 15.3932 32.8862C15.2395 32.6927 15.1796 32.4409 15.2296 32.1989L15.698 30.0586C13.8842 29.5961 12.2169 28.6826 10.8507 27.4032C10.6925 27.2504 10.6031 27.04 10.6031 26.82C10.6031 26.6001 10.6925 26.3897 10.8507 26.237L12.5274 24.5979C12.8445 24.286 13.353 24.286 13.6701 24.5979C15.206 26.0632 17.2566 26.8656 19.379 26.8318C21.5662 26.8318 23.0508 25.9044 23.0508 24.4339C23.0508 23.1045 21.8335 22.6592 19.5235 21.8143C19.2784 21.7246 19.0211 21.6305 18.7515 21.5303C15.7822 20.4719 12.9723 18.9592 12.9723 15.442C12.9723 11.3722 16.3724 9.3865 20.3813 9.18976L20.8028 7.12445C20.8863 6.74924 21.2193 6.48245 21.6036 6.48284H24.615C24.8603 6.48205 25.0929 6.59183 25.2483 6.78171C25.4036 6.97158 25.4652 7.22133 25.4158 7.46165L24.9475 9.77048C26.4805 10.2716 27.9011 11.0671 29.1297 12.1122C29.2991 12.2577 29.3999 12.4675 29.4079 12.6907C29.4159 12.9139 29.3303 13.1303 29.1718 13.2876L27.6076 14.8566C27.2944 15.1648 26.7951 15.175 26.4696 14.88Z" fill="#00D54B"/>
</svg>
