<svg width="37" height="37" viewBox="0 0 37 37" fill="none" xmlns="http://www.w3.org/2000/svg">
<g clip-path="url(#clip0_202_15089)">
<path d="M15.1696 16.6886L16.4717 17.9834L15.1696 19.278H6.00385V23.5916L0.414185 17.9834L6.00385 12.4693V16.6886H15.1696ZM19.1985 5.67322H30.3353V16.8102H19.1985V5.67322Z" fill="#932279"/>
<path d="M19.32 15.1674L18.0254 16.4695L16.7309 15.1674V6.00166H12.417L18.0254 0.411987L23.5392 6.00166H19.32V15.1674ZM19.1986 19.1964H30.3354V30.3334H19.1986V19.1964Z" fill="#EFA724"/>
<path d="M20.8414 19.3178L19.5391 18.0232L20.8414 16.7287H30.0069V12.4148L35.5968 18.0232L30.0069 23.5371V19.3178H20.8414ZM5.67542 19.1964H16.8122V30.3334H5.67542V19.1964Z" fill="#262577"/>
<path d="M16.6908 20.8392L17.9854 19.5369L19.2802 20.8392V30.0049H23.5938L17.9854 35.5946L12.4718 30.0049H16.6908V20.8392ZM5.67542 5.67322H16.8122V16.8102H5.67542V5.67322Z" fill="#9CCD2A"/>
<path d="M5.27759 5.27539H17.21V17.2078H5.27759V5.27539ZM6.07296 16.4124H16.4144V6.07102H6.07296V16.4124ZM18.801 5.27539H30.7334V17.2078H18.801V5.27539ZM19.5964 16.4124H29.9378V6.07102H19.5964V16.4124ZM18.801 18.7988H30.7334V30.7315H18.801V18.7988ZM19.5964 29.9356H29.9378V19.5942H19.5964V29.9356ZM5.27759 18.7988H17.21V30.7315H5.27759V18.7988ZM6.07296 29.9356H16.4144V19.5942H6.07296V29.9356Z" fill="white"/>
<path d="M8.44308 26.4409L0.00537109 18.0032L8.44282 9.56572L16.8805 18.0032L8.44308 26.4409ZM1.13047 18.0032L8.44308 25.3158L15.7554 18.0032L8.44282 10.6908L1.13047 18.0032ZM18.0054 16.8783L9.56792 8.44088L18.0054 0.00317383L26.4428 8.44088L18.0054 16.8783ZM10.693 8.44088L18.0054 15.7532L25.318 8.44088L18.0054 1.12827L10.693 8.44088ZM27.5679 26.4409L19.1305 18.0032L27.5679 9.56572L36.0054 18.0032L27.5679 26.4409ZM20.2553 18.0032L27.5679 25.3158L34.8803 18.0032L27.5679 10.6908L20.2553 18.0032ZM18.0054 36.0032L9.56792 27.5657L18.0054 19.1283L26.4428 27.5657L18.0054 36.0032ZM10.693 27.5657L18.0054 34.8781L25.318 27.5657L18.0054 20.2534L10.693 27.5657Z" fill="white"/>
</g>
<defs>
<clipPath id="clip0_202_15089">
<rect width="37" height="37" fill="white"/>
</clipPath>
</defs>
</svg>
