<svg width="32" height="37" viewBox="0 0 32 37" fill="none" xmlns="http://www.w3.org/2000/svg">
<g clip-path="url(#clip0_202_8958)">
<path d="M1.76116 26.2262L16.0013 34.4479L30.2422 26.2262V9.78298L16.0013 1.56145L1.76116 9.78298V26.2262ZM16.0013 36.0044L0.412842 27.0043V9.00476L16.0013 0.00439453L31.5905 9.00476V27.0043L16.0013 36.0044Z" fill="#A1070C"/>
<path d="M1.57935 9.67783L16.0016 1.3512L30.4238 9.67783V26.3312L16.0016 34.6579L1.57935 26.3312V9.67783Z" fill="url(#paint0_linear_202_8958)"/>
<path d="M22.6187 11.9116C22.6187 12.5657 22.4896 13.2156 22.2314 13.8612C21.9731 14.5067 21.6267 15.1049 21.192 15.6558C20.7573 16.2067 20.2559 16.6887 19.6878 17.1019C19.1197 17.515 18.5301 17.812 17.919 17.9927L17.6479 17.5409C18.0094 17.3601 18.3408 17.1277 18.642 16.8436C18.9433 16.5596 19.2015 16.239 19.4167 15.8818C19.6319 15.5245 19.7976 15.1458 19.9138 14.7456C20.03 14.3453 20.0881 13.9386 20.0881 13.5255C20.0881 13.052 20.0192 12.6045 19.8815 12.1827C19.7438 11.7609 19.5415 11.393 19.2747 11.0788C19.0078 10.7646 18.6786 10.5171 18.287 10.3364C17.8953 10.1556 17.4456 10.0652 16.9377 10.0652C16.318 10.0652 15.7499 10.1857 15.2335 10.4268C14.717 10.6678 14.2522 10.9927 13.839 11.4016C13.4259 11.8104 13.0665 12.2795 12.761 12.8089C12.4554 13.3382 12.2015 13.8934 11.9992 14.4744C11.7969 15.0554 11.6441 15.6429 11.5408 16.2368C11.4376 16.8307 11.3859 17.3902 11.3859 17.9153C11.3859 18.4489 11.4419 18.9998 11.5538 19.5679C11.6657 20.136 11.8292 20.6955 12.0444 21.2464C12.2596 21.7973 12.5264 22.318 12.8449 22.8086C13.1634 23.2993 13.5313 23.7296 13.9488 24.0998C14.3663 24.4699 14.8311 24.7647 15.3432 24.9842C15.8554 25.2037 16.4127 25.3134 17.0152 25.3134C17.4284 25.3134 17.8308 25.2575 18.2224 25.1456C18.6141 25.0337 18.9906 24.883 19.3521 24.6937C19.7137 24.5043 20.0558 24.2805 20.3786 24.0223C20.7014 23.7641 21.0005 23.4843 21.2759 23.1831L21.702 23.5962C21.3233 24.0955 20.8735 24.5753 20.3528 25.0358C19.832 25.4963 19.2704 25.9052 18.6679 26.2624C18.0653 26.6196 17.4348 26.9037 16.7764 27.1145C16.1179 27.3254 15.4659 27.4309 14.8203 27.4309C14.192 27.4309 13.6002 27.3211 13.045 27.1016C12.4898 26.8821 11.9798 26.5852 11.515 26.2108C11.0502 25.8363 10.6349 25.3973 10.2691 24.8938C9.90327 24.3903 9.5934 23.8545 9.33948 23.2864C9.08556 22.7183 8.89189 22.133 8.75847 21.5304C8.62506 20.9279 8.55835 20.3383 8.55835 19.7616C8.55835 18.9267 8.69822 18.0681 8.97797 17.1858C9.25771 16.3035 9.64289 15.4471 10.1335 14.6165C10.6242 13.7858 11.203 13.0004 11.8701 12.2602C12.5372 11.5199 13.2559 10.8744 14.0263 10.3235C14.7966 9.77259 15.6014 9.33576 16.4407 9.01298C17.2799 8.6902 18.117 8.52881 18.9519 8.52881C19.4684 8.52881 19.9504 8.60412 20.398 8.75476C20.8455 8.90539 21.2329 9.12272 21.56 9.40677C21.8871 9.69082 22.1453 10.0437 22.3346 10.4655C22.524 10.8873 22.6187 11.3693 22.6187 11.9116Z" fill="#A1070C"/>
</g>
<defs>
<linearGradient id="paint0_linear_202_8958" x1="16.0016" y1="16.4147" x2="16.0016" y2="34.6579" gradientUnits="userSpaceOnUse">
<stop stop-color="#F7F6F3"/>
<stop offset="1" stop-color="#FEF6D5"/>
</linearGradient>
<clipPath id="clip0_202_8958">
<rect width="32" height="37" fill="white"/>
</clipPath>
</defs>
</svg>
