<svg width="34" height="36" viewBox="0 0 34 36" fill="none" xmlns="http://www.w3.org/2000/svg">
<g clip-path="url(#clip0_202_14613)">
<path d="M31.499 25.5436C31.0671 25.2376 31.9489 25.8495 31.499 25.5436C31.8949 25.7955 32.0388 26.3173 31.8589 26.7492C31.6969 27.1271 31.319 27.3611 30.9051 27.3431C30.4913 27.3251 30.1314 27.0371 30.0054 26.6413C29.8794 26.2454 30.0234 25.7955 30.3653 25.5616C30.7072 25.3276 31.1571 25.3096 31.499 25.5436ZM18.9385 34.703C19.1544 34.703 19.3883 34.703 19.6043 34.685C20.0541 34.667 20.504 34.631 20.9359 34.5771C20.1981 34.667 21.2958 34.5411 20.9359 34.5771C21.3858 34.5231 21.7457 34.937 21.6557 35.3868C21.6017 35.5848 21.4578 35.7467 21.2778 35.8367C21.1518 35.8907 21.0259 35.8907 20.8999 35.9087C20.756 35.9267 20.594 35.9447 20.45 35.9447C19.2624 36.0347 18.0747 36.0167 16.887 35.8907C15.8073 35.7647 14.7636 35.5668 13.7199 35.2429C12.7122 34.937 11.7404 34.5411 10.8047 34.0552C9.85097 33.5693 8.96921 32.9935 8.12345 32.3457C7.15172 31.6259 6.26996 30.7981 5.47818 29.8804C4.6864 28.9806 3.98459 27.9909 3.39076 26.9652C2.77893 25.9035 2.27506 24.7878 1.89717 23.6181C1.50128 22.4304 1.24935 21.2068 1.10539 19.9651C0.961428 18.7055 0.961428 17.4278 1.08739 16.1682C1.21336 14.9265 1.46529 13.6848 1.86118 12.4972C2.23907 11.3275 2.72494 10.2118 3.33677 9.1321C3.93061 8.0704 4.65041 7.08067 5.44219 6.16292C6.23397 5.26317 7.11573 4.4354 8.06946 3.69761C9.04119 2.95981 10.0849 2.31199 11.1646 1.79013C12.2803 1.25028 13.45 0.836399 14.6556 0.530483C15.8793 0.224568 17.139 0.0626127 18.3986 0.00862768C19.6583 -0.0273624 20.9359 0.0626127 22.1776 0.278553C23.3832 0.494493 24.5709 0.836399 25.7226 1.28627C26.8563 1.73615 27.936 2.31199 28.9437 2.97781C29.9514 3.64362 30.8871 4.41741 31.7509 5.28117C32.1108 5.64107 32.4347 6.00097 32.6687 6.46884C32.8666 6.86473 32.9746 7.31461 33.0106 7.74649C33.0645 8.64624 32.7586 9.56398 32.1468 10.2298C31.445 11.0216 30.3833 11.4535 29.3396 11.3815C28.8357 11.3455 28.3319 11.2015 27.882 10.9496C27.648 10.8236 27.4321 10.6617 27.2522 10.4817C27.0362 10.2838 26.8383 10.0498 26.6223 9.8519C25.7406 9.02413 24.7328 8.35832 23.6352 7.85446C22.5015 7.3506 21.2958 7.02669 20.0721 6.91872C18.8125 6.81075 17.5348 6.90072 16.3112 7.20664C15.1235 7.51255 13.9898 8.01641 12.9461 8.68223C11.9384 9.34804 11.0386 10.1758 10.3008 11.1116C9.54505 12.0653 8.95122 13.145 8.53733 14.2967C8.12345 15.4664 7.90751 16.708 7.90751 17.9497C7.90751 19.2093 8.10545 20.451 8.51934 21.6386C8.91523 22.7903 9.50906 23.852 10.2469 24.8058C10.9847 25.7595 11.8844 26.5873 12.8921 27.2531C13.9178 27.9369 15.0515 28.4408 16.2572 28.7467C17.4809 29.0706 18.7585 29.1606 20.0182 29.0526C21.2418 28.9446 22.4475 28.6387 23.5812 28.1348C23.7071 28.0809 23.8151 28.0089 23.9411 27.9909C24.049 27.9729 24.157 27.9729 24.265 28.0089C24.4809 28.0809 24.6429 28.2428 24.6969 28.4588C24.7508 28.6567 24.7149 28.8906 24.5709 29.0526C24.4989 29.1426 24.3909 29.1966 24.283 29.2505C24.139 29.3045 24.0131 29.3765 23.8691 29.4305C22.7174 29.9164 21.5117 30.2223 20.2701 30.3302C19.0104 30.4562 17.7328 30.3842 16.5091 30.1323C16.6711 30.3122 16.815 30.5102 16.959 30.7081C17.103 30.9061 17.2469 31.122 17.3729 31.32C17.3909 31.356 17.4449 31.4279 17.4449 31.4279C17.4449 31.4279 17.4629 31.4279 17.4988 31.4279C17.5708 31.4279 17.6248 31.4459 17.6968 31.4459C17.8228 31.4639 17.9487 31.4639 18.0747 31.4819C18.5965 31.5179 19.1184 31.5179 19.6403 31.4999C20.666 31.4459 21.6917 31.302 22.6814 31.014C23.6352 30.7441 24.5709 30.3662 25.4527 29.8984C26.3164 29.4305 27.1262 28.8906 27.864 28.2428C28.0439 28.0809 28.2239 27.9189 28.4038 27.757C28.5658 27.613 28.6918 27.433 28.8897 27.3431C29.2316 27.1631 29.6455 27.2171 29.9334 27.451C30.2393 27.685 30.3653 28.0809 30.2753 28.4588C30.2213 28.6567 30.1314 28.8187 29.9874 28.9446C29.8074 29.1066 29.6455 29.2865 29.4655 29.4485C28.7457 30.0963 27.972 30.6901 27.1442 31.194C26.2984 31.7159 25.4167 32.1477 24.4809 32.4896C23.5272 32.8495 22.5555 33.1015 21.5477 33.2634C20.522 33.4254 19.4783 33.4974 18.4346 33.4614C18.5246 33.6953 18.5965 33.9292 18.6685 34.1632C18.7045 34.2711 18.7225 34.3791 18.7585 34.4871C18.7585 34.5231 18.7945 34.6131 18.7945 34.6131L18.9385 34.703ZM28.9797 31.3919C27.1262 32.7596 29.2676 31.176 28.9797 31.3919C29.0696 31.32 29.1956 31.266 29.3396 31.23C29.5735 31.212 29.8254 31.338 29.9514 31.5539C30.0774 31.7698 30.0774 32.0578 29.9334 32.2557C29.8434 32.3817 29.7175 32.4537 29.6095 32.5436C29.4835 32.6336 29.3396 32.7236 29.2136 32.8135C28.9617 32.9935 28.6918 33.1735 28.4218 33.3354C27.3421 34.0012 26.1904 34.5591 25.0028 34.973C24.4089 35.1889 23.7971 35.3688 23.1853 35.5128C22.9154 35.5668 22.6454 35.5308 22.4655 35.2969C22.3035 35.0989 22.2675 34.829 22.3935 34.5951C22.4475 34.4871 22.5195 34.3971 22.6274 34.3431C22.7534 34.2711 22.8974 34.2532 23.0233 34.2172C23.3292 34.1452 23.6352 34.0552 23.9411 33.9652C24.5529 33.7673 25.1467 33.5513 25.7226 33.2994C26.8743 32.7956 27.972 32.1477 28.9797 31.3919ZM31.1391 29.4485C30.9051 29.7004 31.391 29.1786 31.1391 29.4485C31.427 29.1426 31.9489 29.1965 32.1648 29.5564C32.2548 29.7004 32.2728 29.8984 32.2368 30.0603C32.1828 30.2763 32.0208 30.4202 31.8769 30.5642C31.7149 30.7441 31.535 30.9241 31.355 31.086C31.1931 31.23 30.9951 31.32 30.7612 31.284C30.3833 31.23 30.1314 30.8341 30.2393 30.4562C30.3113 30.2583 30.4733 30.1323 30.6172 29.9883C30.7972 29.8084 30.9771 29.6284 31.1391 29.4485ZM27.0542 25.6695C26.4244 26.3353 27.3061 25.4176 27.0542 25.6695C27.2701 25.4536 27.6121 25.4176 27.882 25.5616C28.1519 25.7235 28.2599 26.0654 28.1519 26.3533C28.0799 26.4973 27.972 26.6053 27.864 26.7132C27.738 26.8392 27.63 26.9652 27.5041 27.0731C27.2881 27.2711 27.0722 27.469 26.8563 27.649C26.6223 27.8289 26.3704 28.0089 26.1185 28.1888C25.8485 28.3868 25.5246 28.4048 25.2727 28.1888C25.0568 28.0089 24.9848 27.703 25.0928 27.451C25.1467 27.3251 25.2367 27.2171 25.3447 27.1451C25.4706 27.0551 25.6146 26.9472 25.7406 26.8572C26.2084 26.4973 26.6403 26.1014 27.0542 25.6695ZM19.0104 13.7568C19.2264 13.7568 19.4423 13.7748 19.6762 13.7748C20.522 13.9188 21.3318 14.3147 21.9616 14.9085C22.5734 15.5023 23.0233 16.2941 23.1853 17.1399C23.3652 18.0216 23.2573 18.9394 22.8974 19.7492C22.5375 20.5409 21.9616 21.1888 21.2238 21.6386C20.468 22.1065 19.5683 22.3225 18.6865 22.2505C17.8228 22.1965 16.977 21.8546 16.3112 21.2967C15.6454 20.7569 15.1595 20.0191 14.9256 19.1913C14.6736 18.3276 14.7096 17.3918 15.0155 16.564C15.3035 15.7543 15.8433 15.0525 16.5451 14.5486C17.2649 14.0267 18.1287 13.7568 19.0104 13.7568Z" fill="#FF6C36"/>
</g>
<defs>
<clipPath id="clip0_202_14613">
<rect width="34" height="36.0009" fill="white"/>
</clipPath>
</defs>
</svg>
