<svg width="40" height="40" viewBox="0 0 40 40" fill="none" xmlns="http://www.w3.org/2000/svg">
<path d="M20.0002 20.0004L28.6607 25.0003L20.0002 40.0003C31.0459 40.0003 40.0002 31.0461 40.0002 20.0004C40.0002 16.3564 39.0208 12.943 37.3179 10.0002H20L20.0002 20.0004Z" fill="#FBBF12"/>
<path d="M20.0003 0.000427246C12.5977 0.000427246 6.13943 4.02504 2.68115 10.0029L11.3398 25.0006L20.0003 20.0007V10.0005H37.3182C33.8594 4.02416 27.402 0.000427246 20.0003 0.000427246Z" fill="url(#paint0_linear_202_12410)"/>
<path d="M0.00011811 20.0004C0.00011811 31.0461 8.95407 40.0003 20.0001 40.0003L28.6605 25.0003L20.0001 20.0004L11.3396 25.0003L2.68093 10.0026C0.979047 12.9445 0 16.3567 0 20.0001" fill="url(#paint1_linear_202_12410)"/>
<path d="M30.0002 20.0004C30.0002 25.5232 25.523 30.0005 20.0001 30.0005C14.4773 30.0005 10 25.5232 10 20.0004C10 14.4775 14.4773 10.0002 20.0001 10.0002C25.523 10.0002 30.0002 14.4775 30.0002 20.0004Z" fill="white"/>
<path d="M28.1252 20.0004C28.1252 24.4877 24.4874 28.1255 20.0001 28.1255C15.5128 28.1255 11.875 24.4877 11.875 20.0004C11.875 15.513 15.5128 11.8752 20.0001 11.8752C24.4874 11.8752 28.1252 15.513 28.1252 20.0004Z" fill="#1A73E8"/>
<defs>
<linearGradient id="paint0_linear_202_12410" x1="8.68117" y1="12.5004" x2="26.7775" y2="12.5004" gradientUnits="userSpaceOnUse">
<stop stop-color="#DB3328"/>
<stop offset="1" stop-color="#E53D30"/>
</linearGradient>
<linearGradient id="paint1_linear_202_12410" x1="7.62179" y1="13.564" x2="15.0385" y2="26.4102" gradientUnits="userSpaceOnUse">
<stop stop-color="#32A651"/>
<stop offset="1" stop-color="#279847"/>
</linearGradient>
</defs>
</svg>
