<svg width="37" height="36" viewBox="0 0 37 36" fill="none" xmlns="http://www.w3.org/2000/svg">
<g clip-path="url(#clip0_202_9378)">
<path d="M33.9525 9.6543C8.74095 29.7961 21.3467 19.7252 33.9525 9.6543V9.6543ZM33.9525 9.6543L19.3798 9.65997C23.3926 10.3181 26.4546 13.8014 26.4547 18.0004C26.4517 20.0655 25.6929 22.0581 24.3214 23.602L17.0942 35.9777C17.3949 35.9927 17.6974 36.0004 18.0018 36.0004C27.9429 36.0004 36.0018 27.9415 36.0018 18.0004C36.0018 14.988 35.2606 12.1492 33.9525 9.6543V9.6543Z" fill="#91B0E8"/>
<path d="M18.0016 0.000396729C11.5302 0.000373689 5.85729 3.41607 2.68504 8.54237L9.7092 19.6045C9.74179 20.131 9.5491 18.0382 9.54871 18.0004C9.54875 13.332 13.3332 9.54755 18.0016 9.54751C18.4399 9.55102 19.345 9.63938 19.7775 9.71072L33.9523 9.65428C30.9435 3.91593 24.9303 0.000371929 18.0016 0.000396729ZM2.68287 8.54587C-1.68237 29.4266 0.500251 18.9862 2.68287 8.54587V8.54587Z" fill="#396BD7"/>
<path d="M2.68515 8.54236C0.984323 11.2909 0.00169618 14.5307 0.00170898 18.0004C0.00167482 27.6372 7.57474 35.505 17.0942 35.9777L24.3214 23.602C22.7194 25.4123 20.419 26.4502 18.0017 26.4533C13.9544 26.4499 10.4774 23.5782 9.70931 19.6044L2.68515 8.54236Z" fill="#6199F6"/>
<path opacity="0.1" d="M2.67114 8.54269L9.723 19.5989L12.3852 16.6536L2.67114 8.54269ZM33.9539 9.6501L19.7776 9.71071L21.1735 12.9461L33.9539 9.65011V9.6501ZM19.6549 22.52L17.094 35.9794L24.3164 23.6103L19.6549 22.52Z" fill="#367100"/>
<path d="M18.0018 26.4533C22.6702 26.4533 26.4547 22.6688 26.4547 18.0004C26.4547 13.3319 22.6702 9.54742 18.0018 9.54742C13.3333 9.54742 9.54883 13.3319 9.54883 18.0004C9.54883 22.6688 13.3333 26.4533 18.0018 26.4533Z" fill="white"/>
<path d="M18.0016 24.9754C21.8538 24.9754 24.9766 21.8526 24.9766 18.0004C24.9766 14.1482 21.8538 11.0254 18.0016 11.0254C14.1494 11.0254 11.0266 14.1482 11.0266 18.0004C11.0266 21.8526 14.1494 24.9754 18.0016 24.9754Z" fill="#4688F4"/>
</g>
<defs>
<clipPath id="clip0_202_9378">
<rect width="37" height="36.0004" fill="white"/>
</clipPath>
</defs>
</svg>
