<svg width="37" height="37" viewBox="0 0 37 37" fill="none" xmlns="http://www.w3.org/2000/svg">
<g clip-path="url(#clip0_202_8612)">
<path d="M18.0022 36.0042C27.9433 36.0042 36.0022 27.9453 36.0022 18.0042C36.0022 8.06302 27.9433 0.00415039 18.0022 0.00415039C8.06107 0.00415039 0.00219727 8.06302 0.00219727 18.0042C0.00219727 27.9453 8.06107 36.0042 18.0022 36.0042Z" fill="#FC521F"/>
<path d="M22.2435 26.3033L19.376 24.6482L28.0025 19.6725C28.3333 19.4817 28.6448 19.2626 28.9348 19.0185C30.0562 20.6151 30.1662 22.7174 29.1669 24.4489C28.2569 26.0152 26.583 26.9797 24.7715 26.9817C23.8877 26.9817 23.0143 26.7475 22.2435 26.3028V26.3033ZM21.5526 27.4985C21.8834 27.6897 22.2289 27.8504 22.5859 27.9798C21.7623 29.7473 19.9955 30.8936 17.9942 30.8936C15.2006 30.8936 12.9265 28.6221 12.9265 25.8302V15.8778L17.3033 18.4037V24.6487C17.3033 24.8953 17.4353 25.123 17.6488 25.2463L21.5526 27.4985ZM11.2302 26.9808C9.41979 26.979 7.74673 26.0151 6.83707 24.4497C6.16182 23.288 5.97985 21.9042 6.3318 20.6074C6.67613 19.3079 7.52636 18.2004 8.69273 17.5319L11.5594 15.8778L11.5598 25.8285C11.5598 26.2105 11.5924 26.589 11.659 26.9641C11.5164 26.9752 11.3729 26.9808 11.2302 26.9808ZM22.3853 14.6821L18.0097 17.2063L12.5961 14.084C12.3824 13.9611 12.1194 13.9611 11.9057 14.084L8.00185 16.3358C7.67102 16.5261 7.35909 16.744 7.06865 16.9893C5.94812 15.3931 5.83856 13.2904 6.83707 11.5589C7.74681 9.99258 9.42057 9.02783 11.232 9.02573C12.1149 9.02573 12.9892 9.26118 13.76 9.70544L22.3853 14.6821ZM17.9942 5.11462C20.7891 5.11462 23.062 7.38619 23.062 10.1793V13.4876L14.438 8.5123C14.1081 8.32126 13.7619 8.15993 13.4034 8.03023C14.2266 6.26136 15.9942 5.11462 17.9942 5.11462ZM29.1664 11.5607C30.5628 13.9792 29.731 17.0821 27.3108 18.4785L18.6855 23.4538V18.4046L24.0987 15.2814C24.3127 15.1581 24.4446 14.9304 24.4446 14.6838V10.1793C24.4446 9.7991 24.4102 9.42015 24.3449 9.04678C26.3026 8.88365 28.1793 9.86215 29.1664 11.5607Z" fill="white"/>
</g>
<defs>
<clipPath id="clip0_202_8612">
<rect width="37" height="37" fill="white"/>
</clipPath>
</defs>
</svg>
