<svg width="41" height="32" viewBox="0 0 41 32" fill="none" xmlns="http://www.w3.org/2000/svg">
<g clip-path="url(#clip0_202_9372)">
<path d="M25.4138 22.5735H14.5978V3.13574H25.4138V22.5735Z" fill="#2271CE"/>
<path d="M15.2839 12.8551C15.2839 8.91203 17.1301 5.39969 20.0051 3.1362C17.9027 1.48102 15.2494 0.493101 12.3658 0.493101C5.53914 0.493101 0.00537109 6.02765 0.00537109 12.8551C0.00537109 19.6825 5.53914 25.217 12.3658 25.217C15.2494 25.217 17.9027 24.2291 20.0051 22.5739C17.1301 20.3104 15.2839 16.7981 15.2839 12.8551Z" fill="#005EB6"/>
<path d="M40.0053 12.8551C40.0053 19.6825 34.4715 25.217 27.6449 25.217C24.7613 25.217 22.108 24.2291 20.0056 22.5739C22.8806 20.3104 24.7267 16.7981 24.7267 12.8551C24.7267 8.91203 22.8806 5.39969 20.0056 3.1362C22.108 1.48102 24.7613 0.493101 27.6449 0.493101C34.4715 0.493101 40.0053 6.02765 40.0053 12.8551Z" fill="#0099DF"/>
<path d="M28.3961 28.4063C28.0527 28.1799 27.5787 28.0628 27.0577 28.0628C26.2261 28.0628 25.6909 28.4613 25.6909 29.1136C25.6909 29.6488 26.0894 29.9781 26.8234 30.0819L27.1606 30.1298C27.5512 30.1848 27.7367 30.2878 27.7367 30.4725C27.7367 30.7271 27.4758 30.871 26.9885 30.871C26.4941 30.871 26.1373 30.713 25.8968 30.5275L25.5605 31.0839C25.9518 31.3724 26.4462 31.5099 26.9814 31.5099C27.9293 31.5099 28.4786 31.0635 28.4786 30.4387C28.4786 29.8618 28.0464 29.56 27.3319 29.4563L26.9956 29.4083C26.6867 29.3675 26.4391 29.3054 26.4391 29.0861C26.4391 28.8456 26.6725 28.7018 27.0639 28.7018C27.4828 28.7018 27.8884 28.8597 28.0872 28.9831L28.3961 28.4063ZM11.533 29.7862C11.533 30.782 12.2262 31.5098 13.284 31.5098C13.7784 31.5098 14.1077 31.3997 14.4645 31.1184L14.121 30.5415C13.8538 30.734 13.5725 30.837 13.2628 30.837C12.693 30.8299 12.2749 30.4181 12.2749 29.7862C12.2749 29.1543 12.693 28.7425 13.2628 28.7354C13.5725 28.7354 13.8538 28.8384 14.121 29.0309L14.4645 28.454C14.1077 28.1727 13.7784 28.0626 13.284 28.0626C12.2262 28.0626 11.533 28.7904 11.533 29.7862ZM18.4165 28.0629C18.0047 28.0629 17.7367 28.2554 17.5512 28.5439V28.1454H16.8446V31.4275H17.5583V29.5868C17.5583 29.0445 17.7917 28.7427 18.2585 28.7427C18.4031 28.7427 18.554 28.7631 18.7049 28.8252L18.9242 28.1525C18.767 28.0904 18.5603 28.0629 18.4165 28.0629ZM21.0684 28.0629C20.6566 28.0629 20.3886 28.2554 20.2031 28.5439V28.1454H19.4966V31.4275H20.2102V29.5868C20.2102 29.0445 20.4436 28.7427 20.9105 28.7427C21.0551 28.7427 21.206 28.7631 21.3569 28.8252L21.5761 28.1525C21.419 28.0904 21.2123 28.0629 21.0684 28.0629ZM16.0654 31.426H15.3471V28.1486H16.0654V31.426ZM15.7023 26.5107C15.773 26.5107 15.8391 26.5233 15.9011 26.55C15.9627 26.5759 16.0159 26.6121 16.0615 26.6577C16.1067 26.7033 16.1432 26.7567 16.1692 26.818C16.1962 26.8801 16.2081 26.9461 16.2081 27.0169C16.2081 27.0876 16.1956 27.1536 16.1692 27.2149C16.1434 27.277 16.1069 27.3297 16.0615 27.3745C16.0162 27.4185 15.9624 27.4539 15.9011 27.4782C15.8389 27.5034 15.773 27.516 15.7023 27.516C15.6316 27.516 15.5656 27.5034 15.5043 27.4782C15.442 27.4539 15.3895 27.4185 15.3447 27.3745C15.3007 27.3297 15.2661 27.277 15.2409 27.2149C15.2158 27.1536 15.2032 27.0876 15.2032 27.0169C15.2032 26.9461 15.2158 26.8801 15.2409 26.818C15.2661 26.7567 15.3007 26.7033 15.3447 26.6577C15.3893 26.6121 15.4421 26.576 15.5043 26.55C15.5659 26.5233 15.6316 26.5107 15.7023 26.5107ZM25.1182 30.0374C25.1182 30.2975 25.075 30.5207 24.9901 30.7078C24.9044 30.8948 24.792 31.0473 24.6521 31.166C24.5122 31.2847 24.3527 31.3719 24.1727 31.4277C23.9919 31.4835 23.8073 31.5118 23.6186 31.5118C23.4292 31.5118 23.2445 31.4835 23.0645 31.4277C22.8838 31.3719 22.7234 31.2847 22.5828 31.166C22.4421 31.0473 22.3297 30.8948 22.2448 30.7078C22.1607 30.5207 22.1183 30.2975 22.1183 30.0374V28.1488H22.828V29.9722C22.828 30.1293 22.8484 30.2637 22.8885 30.3746C22.9294 30.4846 22.9852 30.5742 23.0559 30.6426C23.1266 30.7109 23.2107 30.7612 23.3074 30.7919C23.4041 30.8225 23.5078 30.8383 23.6186 30.8383C23.7287 30.8383 23.8324 30.8225 23.9291 30.7919C24.0257 30.7612 24.1098 30.7109 24.1806 30.6426C24.2521 30.5742 24.3071 30.4846 24.348 30.3746C24.3888 30.2637 24.4085 30.1293 24.4085 29.9722V28.1488H25.1182V30.0374Z" fill="#231F20"/>
</g>
<defs>
<clipPath id="clip0_202_9372">
<rect width="41" height="32" fill="white"/>
</clipPath>
</defs>
</svg>
