<svg width="37" height="37" viewBox="0 0 37 37" fill="none" xmlns="http://www.w3.org/2000/svg">
<g clip-path="url(#clip0_202_13879)">
<path d="M18.002 36.0056C27.9431 36.0056 36.002 27.9467 36.002 18.0056C36.002 8.06449 27.9431 0.00561523 18.002 0.00561523C8.06083 0.00561523 0.00195312 8.06449 0.00195312 18.0056C0.00195312 27.9467 8.06083 36.0056 18.002 36.0056Z" fill="black"/>
<path d="M23.2002 9.91968C24.9713 9.91968 26.4058 11.3598 26.4058 13.1348C26.4058 14.108 25.9746 14.9805 25.2931 15.5702C25.9746 16.16 26.4058 17.0325 26.4058 18.0056C26.4058 18.9788 25.9745 19.8514 25.293 20.4411C25.9745 21.0306 26.4058 21.9032 26.4058 22.8764C26.4058 24.6337 24.9998 26.0627 23.2532 26.0911L23.2002 26.0916H10.3776C9.94701 26.0916 9.5979 25.7424 9.5979 25.3118C9.5979 24.8903 9.93231 24.5469 10.3503 24.5325L10.3776 24.5321H23.2002C24.1086 24.5321 24.8463 23.7915 24.8463 22.8764C24.8463 21.9735 24.1282 21.2405 23.2364 21.2212L23.2002 21.2208H10.3776C9.94701 21.2208 9.5979 20.8717 9.5979 20.441C9.5979 20.0195 9.93231 19.6762 10.3503 19.6617L10.3776 19.6613H23.2002C24.1086 19.6613 24.8463 18.9207 24.8463 18.0056C24.8463 17.1027 24.1282 16.3697 23.2364 16.3504L23.2002 16.35H10.3776C9.94701 16.35 9.5979 16.0009 9.5979 15.5702C9.5979 15.1487 9.93231 14.8054 10.3503 14.7909L10.3776 14.7905H23.2002C24.1086 14.7905 24.8463 14.0499 24.8463 13.1348C24.8463 12.232 24.1282 11.499 23.2364 11.4796L23.2002 11.4792C22.7695 11.4792 22.4204 11.1301 22.4204 10.6994C22.4204 10.2688 22.7695 9.91968 23.2002 9.91968Z" fill="#FAFAFA"/>
</g>
<defs>
<clipPath id="clip0_202_13879">
<rect width="37" height="37" fill="white"/>
</clipPath>
</defs>
</svg>
