<svg width="26" height="37" viewBox="0 0 26 37" fill="none" xmlns="http://www.w3.org/2000/svg">
<g clip-path="url(#clip0_202_8965)">
<path d="M14.5015 0.490054C14.0743 0.18817 13.5675 0.0193421 13.0446 0.00479999C12.692 -0.0109575 12.34 0.0449583 12.0097 0.169179C11.6794 0.2934 11.3777 0.483351 11.1229 0.727511C10.8681 0.971672 10.6655 1.26498 10.5273 1.5897C10.3892 1.91441 10.3183 2.26377 10.319 2.61666C10.3113 3.13967 10.4584 3.65329 10.7418 4.09291C11.0252 4.53254 11.4323 4.87854 11.9119 5.08739C12.3914 5.29625 12.9221 5.35863 13.437 5.2667C13.9519 5.17476 14.4282 4.93261 14.8058 4.57071C15.1835 4.20881 15.4457 3.74331 15.5594 3.23277C15.6732 2.72223 15.6335 2.18944 15.4452 1.70142C15.257 1.2134 14.9286 0.791938 14.5015 0.490054Z" fill="#005463"/>
<path d="M12.7584 25.0994C12.8305 25.0188 12.9044 24.9363 12.9807 24.8505C13.0399 24.9137 13.093 24.9694 13.1417 25.0206C13.2339 25.1174 13.3105 25.1979 13.3839 25.2818C16.246 28.563 19.1015 31.8497 21.9503 35.142C22.4073 35.671 22.9492 36.1559 23.6386 35.9468C24.1939 35.7661 24.6742 35.4078 25.0056 34.927C25.419 34.2835 25.1244 33.6006 24.6311 33.0338C21.6972 29.6624 18.7652 26.2894 15.8351 22.9148C15.6986 22.758 15.5713 22.593 15.445 22.4292C15.3885 22.3561 15.3323 22.2831 15.2755 22.2113C15.3442 22.1293 15.4042 22.0571 15.4589 21.9914C15.5629 21.8663 15.6472 21.765 15.7336 21.6654C18.6662 18.2938 21.5967 14.9196 24.525 11.5429C25.3655 10.5747 25.3788 9.54535 24.5776 8.87367C23.7917 8.21578 22.7663 8.39502 21.9399 9.34134C21.5244 9.81721 21.111 10.2939 20.6973 10.7709C20.5253 10.9691 20.3534 11.1674 20.1812 11.3657C17.7995 14.1055 15.4175 16.8454 12.9908 19.6366C12.5793 19.1636 12.1704 18.6937 11.7635 18.2261C10.6969 17.0005 9.6438 15.7903 8.59157 14.5794C7.01823 12.7766 5.44987 10.9695 3.88646 9.15788C3.67464 8.88056 3.38404 8.67364 3.05266 8.56424C2.72129 8.45483 2.3646 8.44804 2.02929 8.54473C1.34945 8.72116 0.842668 9.22625 0.867149 9.88724C0.901841 10.5027 1.12812 11.0918 1.51433 11.5722C3.64325 14.0785 5.80231 16.5597 7.96151 19.0411C8.71672 19.909 9.47195 20.777 10.2259 21.646C10.3382 21.7756 10.443 21.9119 10.5521 22.0537C10.6025 22.1194 10.6539 22.1862 10.7074 22.2541C10.6096 22.3677 10.515 22.4778 10.4226 22.5854C10.1968 22.8483 9.98398 23.0961 9.76976 23.3425C6.98662 26.5381 4.20575 29.7359 1.42711 32.9359C0.6108 33.876 0.596165 34.8212 1.36858 35.5407C2.14888 36.2676 3.16047 36.1305 3.99957 35.1668C6.7799 31.9685 9.56012 28.77 12.3403 25.5714C12.4757 25.4154 12.6135 25.2614 12.7584 25.0994Z" fill="#005463"/>
</g>
<defs>
<clipPath id="clip0_202_8965">
<rect width="26" height="37" fill="white"/>
</clipPath>
</defs>
</svg>
