<svg width="40" height="40" viewBox="0 0 40 40" fill="none" xmlns="http://www.w3.org/2000/svg">
<path fill-rule="evenodd" clip-rule="evenodd" d="M13.3147 3.72463C12.6239 3.19631 12.4921 2.20805 13.0205 1.51725C13.5488 0.82645 14.537 0.694653 15.2278 1.22297C15.5686 1.4629 15.7987 1.82987 15.8661 2.24123C16.0115 3.09768 15.4358 3.91009 14.5796 4.05684C14.4917 4.07155 14.4029 4.07903 14.3139 4.07914C13.988 4.07925 13.6702 3.97769 13.4049 3.7886C13.3741 3.76833 13.3441 3.74704 13.3147 3.72463ZM24.9789 3.911C25.198 4.0206 25.4394 4.07812 25.6844 4.07925C25.8553 4.07744 26.0247 4.04868 26.1866 3.99388C27.0194 3.71251 27.4665 2.80929 27.1851 1.97639C27.0517 1.58168 26.769 1.25502 26.3975 1.06649C25.6121 0.674838 24.6577 0.994027 24.266 1.77949C23.8743 2.56495 24.1933 3.51934 24.9789 3.911ZM35.3675 7.67027C34.5303 7.40713 33.6383 7.8725 33.3752 8.7097C33.112 9.54691 33.5774 10.4389 34.4146 10.7021C34.569 10.7495 34.7295 10.774 34.8911 10.7747C35.1473 10.7751 35.3997 10.7122 35.6258 10.5917C36.4038 10.1875 36.7069 9.2293 36.3028 8.45131C36.1091 8.07846 35.7755 7.79754 35.375 7.67027H35.3675ZM39.6834 19.0286C39.1579 18.3252 38.1616 18.181 37.4583 18.7065C36.7549 19.2319 36.6107 20.2282 37.1361 20.9316C37.6616 21.635 38.6579 21.7792 39.3613 21.2537C39.6983 21.002 39.9217 20.627 39.9828 20.2109C40.045 19.7927 39.9372 19.3668 39.6834 19.0286ZM34.8859 29.187H34.8677C33.9635 29.2277 33.2633 29.9936 33.304 30.8979C33.3423 31.7523 34.0311 32.4335 34.8859 32.4625H34.9169C35.8211 32.4218 36.5213 31.656 36.4807 30.7516C36.4423 29.8972 35.7535 29.216 34.8988 29.187H34.8859ZM26.6031 36.2171C25.8866 35.7094 24.8943 35.8787 24.3866 36.5952C23.8789 37.3117 24.0482 38.304 24.7647 38.8117C25.4812 39.3194 26.4735 39.1502 26.9812 38.4337C27.2251 38.0896 27.3221 37.6627 27.2513 37.2469C27.1808 36.8312 26.9476 36.4604 26.6031 36.2171ZM13.8049 36.0288C12.9882 36.3076 12.552 37.1956 12.8308 38.0125C13.0454 38.641 13.6337 39.0654 14.2979 39.0703C14.4655 39.0694 14.6318 39.0419 14.7909 38.989C15.6211 38.7532 16.1027 37.8889 15.8669 37.0587C15.631 36.2286 14.7668 35.7469 13.9366 35.9827C13.8879 35.9966 13.8398 36.0127 13.7927 36.0313L13.8049 36.0288ZM5.58038 29.3037C4.74034 29.041 3.84641 29.5091 3.58372 30.3492C3.32103 31.1892 3.78912 32.0832 4.62926 32.3459C4.78258 32.3932 4.94189 32.4178 5.10233 32.4188C5.98336 32.415 6.69454 31.6978 6.6908 30.8167C6.68786 30.125 6.23948 29.5139 5.58038 29.3037ZM0.642518 18.7033C-0.0626639 19.2266 -0.209973 20.2225 0.313252 20.9276C0.83659 21.6328 1.83243 21.7801 2.53761 21.2569C3.24279 20.7336 3.3901 19.7377 2.86688 19.0326L2.8645 19.0294C2.34025 18.3268 1.34634 18.181 0.642518 18.7033ZM5.11003 10.7758H5.12758C6.00555 10.7364 6.68537 9.99268 6.64596 9.11472C6.60871 8.28521 5.93988 7.62373 5.11003 7.59565H5.09248C4.21451 7.63506 3.53469 8.37874 3.5741 9.2567C3.61135 10.0862 4.28007 10.7477 5.11003 10.7758ZM10.2298 9.18209C10.4982 9.37344 10.8196 9.47614 11.1493 9.47603C11.2393 9.47591 11.3292 9.46833 11.4181 9.45338C12.2836 9.30437 12.8644 8.482 12.7154 7.6166C12.5664 6.7512 11.744 6.17023 10.8786 6.31924C10.4651 6.39046 10.0965 6.62212 9.85302 6.96396C9.34554 7.6808 9.51413 8.67313 10.2298 9.18209ZM19.2622 6.34268C19.4798 6.45217 19.7198 6.50969 19.9634 6.51048C20.1338 6.50867 20.3027 6.47991 20.4642 6.42533C21.2965 6.15008 21.7482 5.25218 21.473 4.41984C21.1978 3.58751 20.3 3.13584 19.4675 3.41098C18.6352 3.68624 18.1834 4.58414 18.4587 5.41647C18.4595 5.41896 18.4603 5.42134 18.4612 5.42383C18.593 5.82579 18.8819 6.15732 19.2622 6.34268ZM28.2126 9.33494C28.3663 9.38239 28.5263 9.40696 28.6873 9.40775C29.5655 9.40832 30.2778 8.69691 30.2784 7.81871C30.279 6.94052 29.5676 6.2282 28.6894 6.22764C27.8112 6.22707 27.0988 6.93848 27.0983 7.81667C27.0978 8.51189 27.5492 9.12683 28.2126 9.33494ZM33.9509 16.8616C34.0287 16.8736 34.1073 16.8795 34.186 16.8792C35.0642 16.8793 35.7762 16.1676 35.7763 15.2894C35.7764 14.4112 35.0646 13.6992 34.1864 13.6991C33.3083 13.699 32.5963 14.4107 32.5962 15.2889C32.5961 16.0763 33.1722 16.7451 33.9509 16.8616ZM34.2038 26.2521C35.0817 26.2127 35.7616 25.469 35.7222 24.591C35.6849 23.7615 35.0161 23.1 34.1862 23.072H34.1687C33.2907 23.1114 32.6109 23.855 32.6503 24.733C32.6875 25.5625 33.3564 26.224 34.1862 26.2521H34.2038ZM29.6085 30.8875C28.8919 30.3796 27.8993 30.5487 27.3913 31.2653C26.8834 31.9819 27.0525 32.9746 27.7692 33.4826C28.4852 33.9902 29.4772 33.8217 29.9855 33.1061C30.493 32.3891 30.3244 31.3967 29.6085 30.8875ZM19.4939 33.5075C18.6557 33.7935 18.2081 34.705 18.4942 35.5432C18.7143 36.1882 19.3183 36.6237 19.9998 36.6288C20.1718 36.6278 20.3426 36.5996 20.5057 36.5454C21.3301 36.2216 21.736 35.291 21.4123 34.4666C21.1107 33.6984 20.2752 33.2845 19.4812 33.5101L19.4939 33.5075ZM12.6775 31.5164C12.4833 31.1424 12.1469 30.862 11.7439 30.7384C10.9062 30.4765 10.0146 30.9433 9.75259 31.7811C9.4907 32.6189 9.95742 33.5104 10.7953 33.7723C10.9482 33.8195 11.1071 33.8441 11.2671 33.8451C11.9629 33.8449 12.578 33.3925 12.7854 32.7283C12.914 32.3264 12.8752 31.8893 12.6775 31.5164ZM6.05944 23.1145C5.20661 22.963 4.39251 23.5317 4.24101 24.3845C4.08951 25.2373 4.65814 26.0514 5.51097 26.2029C5.54188 26.2085 5.57302 26.213 5.60427 26.2166C5.68047 26.2273 5.75735 26.233 5.83435 26.234C6.17086 26.2342 6.4982 26.1247 6.76689 25.9222C7.46086 25.4039 7.60308 24.4211 7.08472 23.7272C6.83709 23.3957 6.46854 23.1754 6.05944 23.1145ZM5.80661 13.6991H5.78906C4.91109 13.7385 4.23127 14.4822 4.27067 15.3601C4.30792 16.1896 4.97676 16.8511 5.80661 16.8792H5.82416C6.70212 16.8398 7.38194 16.0961 7.34254 15.2181C7.30529 14.3886 6.63657 13.7272 5.80661 13.6991ZM15.2255 8.17968C14.7207 8.89822 14.8938 9.88987 15.6124 10.3948C16.3309 10.8995 17.3225 10.7264 17.8274 10.0079C18.3322 9.28931 18.159 8.29767 17.4405 7.79278C17.0969 7.55138 16.6717 7.4557 16.2579 7.52658C15.8403 7.59758 15.4684 7.83275 15.2255 8.17968ZM21.8737 9.56514C22.0995 10.2332 22.7259 10.6831 23.4311 10.6838C23.6076 10.6828 23.7827 10.6539 23.9502 10.5982C24.8087 10.3097 25.2727 9.38171 24.9884 8.52174C24.6416 7.68171 23.6794 7.2819 22.8393 7.62872C22.081 7.94179 21.6692 8.76552 21.8737 9.55993V9.56514ZM30.5629 13.7986C30.826 12.9617 30.3608 12.07 29.524 11.8069C28.6871 11.5439 27.7953 12.009 27.5323 12.8459C27.2693 13.6828 27.7344 14.5746 28.5713 14.8376L28.5736 14.8384C28.7274 14.8881 28.8881 14.9134 29.0497 14.9136C29.7392 14.9063 30.3459 14.4565 30.5529 13.7986H30.5629ZM30.3459 18.7349C29.6485 19.2516 29.5022 20.2359 30.019 20.9332C30.2683 21.2696 30.6415 21.4927 31.0559 21.5528C31.1332 21.5647 31.2112 21.5704 31.2893 21.5701C31.6258 21.5703 31.9534 21.4614 32.2229 21.2597C32.9383 20.7661 33.1183 19.7857 32.6245 19.0703C32.1308 18.3548 31.1505 18.1749 30.435 18.6686C30.4045 18.6897 30.3749 18.7118 30.3459 18.7349ZM27.9255 25.5632C27.2924 26.2094 27.303 27.2465 27.9492 27.8797C28.2559 28.1802 28.6684 28.3483 29.0978 28.3477H29.1159C30.0197 28.2819 30.6989 27.496 30.6331 26.5922C30.5737 25.775 29.9205 25.127 29.1029 25.074H29.0847C28.6485 25.0754 28.2309 25.2515 27.9255 25.5632ZM24.7422 31.8018C25.2527 31.0854 25.0857 30.0908 24.3693 29.5804C23.6529 29.07 22.6583 29.237 22.1479 29.9534C21.6401 30.6715 21.8108 31.665 22.5288 32.1727C22.7957 32.3615 23.1143 32.4635 23.4413 32.4649C23.5313 32.4649 23.6212 32.4573 23.7099 32.4422C24.1257 32.3749 24.4972 32.1443 24.7422 31.8018ZM18.0346 30.3112C17.7548 29.4788 16.8533 29.031 16.0211 29.3107C15.1888 29.5905 14.741 30.492 15.0206 31.3242C15.2385 31.9723 15.8463 32.4086 16.5301 32.4075C16.7007 32.4076 16.8701 32.3797 17.0315 32.3247C17.8609 32.0459 18.3093 31.1494 18.0346 30.3185V30.3112ZM11.4143 25.1803C11.0125 25.0543 10.5771 25.0931 10.2038 25.288C9.42706 25.6965 9.12848 26.6572 9.53689 27.4339C9.73221 27.8054 10.0666 28.0845 10.4669 28.2103C10.6201 28.2589 10.7799 28.2835 10.9406 28.283C11.8167 28.287 12.5302 27.5799 12.5341 26.7037C12.5373 26.0045 12.0825 25.3859 11.4143 25.1803ZM10.3057 20.2084C10.4318 19.3394 9.82959 18.5328 8.96056 18.4066C8.09154 18.2805 7.28491 18.8828 7.15877 19.7518C7.09854 20.1672 7.20497 20.5896 7.45486 20.9267C7.97775 21.6323 8.97347 21.7803 9.67899 21.2575C10.0192 21.0053 10.2449 20.6277 10.3057 20.2084ZM10.976 11.6245H10.9585C10.0803 11.6294 9.37237 12.3452 9.37724 13.2233C9.38211 14.1015 10.0979 14.8094 10.976 14.8045H10.9936C11.8702 14.7651 12.5489 14.0227 12.5095 13.1461C12.4723 12.3178 11.8045 11.6575 10.976 11.6294V11.6245Z" fill="#3F2FFF"/>
</svg>
