<svg width="37" height="37" viewBox="0 0 37 37" fill="none" xmlns="http://www.w3.org/2000/svg">
<g clip-path="url(#clip0_202_10849)">
<path d="M13.8392 14.5733L11.4204 15.5858L13.6142 0.0045166L21.8829 4.56077L13.8392 14.5733Z" fill="url(#paint0_linear_202_10849)"/>
<path d="M12.5455 21.6045L13.7267 0.0045166L3.32046 6.52952L0.00170898 26.442L12.5455 21.6045Z" fill="url(#paint1_linear_202_10849)"/>
<path d="M35.2705 10.8045L30.658 1.35449L21.883 4.56074L15.4705 11.6482L0.00170898 26.442L11.7017 34.992L26.3267 21.717L35.2705 10.8045Z" fill="url(#paint2_linear_202_10849)"/>
<path d="M15.1329 15.3607L13.1079 27.6795L21.3204 34.0357L30.3204 36.0045L36.0017 23.1795L15.1329 15.3607Z" fill="url(#paint3_linear_202_10849)"/>
<path d="M29.2517 6.75452H6.75171V29.2545H29.2517V6.75452Z" fill="black"/>
<path d="M8.88916 25.0357H17.3267V26.442H8.88916V25.0357ZM8.72041 14.4045C8.69169 13.1129 9.19212 11.8657 10.1056 10.9522C11.0191 10.0387 12.2663 9.53825 13.5579 9.56697C15.3017 9.56697 16.3704 10.1295 17.2142 11.0295L15.9204 12.5482C15.1892 11.8732 14.4579 11.4795 13.5579 11.4795C11.9829 11.4795 10.8579 12.7732 10.8579 14.4045C10.8579 15.9795 11.9829 17.3295 13.5579 17.3295C14.6267 17.3295 15.3017 16.8795 16.0329 16.2607L17.3267 17.5545C16.3704 18.567 15.3017 19.242 13.5017 19.242C12.2238 19.2421 10.9991 18.7306 10.1008 17.8217C9.20247 16.9129 8.70538 15.6823 8.72041 14.4045ZM18.7329 9.67947H20.8142V17.2732H24.8642V19.017H18.7329V9.67947Z" fill="white"/>
</g>
<defs>
<linearGradient id="paint0_linear_202_10849" x1="11.4457" y1="7.79514" x2="23.4804" y2="7.79514" gradientUnits="userSpaceOnUse">
<stop stop-color="#ED358C"/>
<stop offset="0.16" stop-color="#E9388C"/>
<stop offset="0.3" stop-color="#DE418C"/>
<stop offset="0.43" stop-color="#CC508C"/>
<stop offset="0.57" stop-color="#B2658D"/>
<stop offset="0.7" stop-color="#90808D"/>
<stop offset="0.83" stop-color="#67A18E"/>
<stop offset="0.95" stop-color="#37C78F"/>
<stop offset="1" stop-color="#22D88F"/>
</linearGradient>
<linearGradient id="paint1_linear_202_10849" x1="9.16483" y1="4.61983" x2="-7.11671" y2="34.073" gradientUnits="userSpaceOnUse">
<stop offset="0.09" stop-color="#22D88F"/>
<stop offset="0.9" stop-color="#029DE0"/>
</linearGradient>
<linearGradient id="paint2_linear_202_10849" x1="3744.89" y1="-22221.6" x2="-163.369" y2="-26979.4" gradientUnits="userSpaceOnUse">
<stop offset="0.09" stop-color="#22D88F"/>
<stop offset="0.9" stop-color="#029DE0"/>
</linearGradient>
<linearGradient id="paint3_linear_202_10849" x1="1380.65" y1="-15242.4" x2="2285.49" y2="-15417.9" gradientUnits="userSpaceOnUse">
<stop offset="0.09" stop-color="#22D88F"/>
<stop offset="0.9" stop-color="#029DE0"/>
</linearGradient>
<clipPath id="clip0_202_10849">
<rect width="37" height="37" fill="white"/>
</clipPath>
</defs>
</svg>
