<svg width="37" height="36" viewBox="0 0 37 36" fill="none" xmlns="http://www.w3.org/2000/svg">
<g clip-path="url(#clip0_202_16058)">
<path d="M9.89309 22.6469C8.76134 22.6469 7.90592 22.3171 7.31783 21.6577C6.72973 20.9984 6.43555 20.0538 6.43555 18.8242C6.43555 17.5677 6.73859 16.6054 7.35341 15.9281C7.96822 15.2509 8.8505 14.9122 10.0178 14.9122C10.802 14.9122 11.5148 15.0548 12.1386 15.3489L11.6574 16.6231C10.9891 16.3648 10.4366 16.231 9.99997 16.231C8.70791 16.231 8.06623 17.0864 8.06623 18.7974C8.06623 19.635 8.22669 20.2588 8.54745 20.6864C8.86822 21.1054 9.34058 21.3191 9.96439 21.3191C10.6684 21.3191 11.3366 21.1409 11.9693 20.7935V22.1747C11.6841 22.344 11.3812 22.4597 11.0604 22.531C10.7395 22.6113 10.3475 22.6469 9.89309 22.6469Z" fill="#96CA4B"/>
<path d="M14.7584 12.0162H16.3445V22.5132H14.7584V12.0162Z" fill="#96CA4B"/>
<path d="M16.5999 2.38255L16.8435 2.3609V0.0355225L16.5549 0.0587256C12.0622 0.418726 7.89045 2.4464 4.80838 5.76824C1.70886 9.10865 0.00195312 13.4542 0.00195312 18.0043C0.00195312 22.5545 1.70886 26.9 4.80838 30.2404C7.89045 33.5622 12.0622 35.5899 16.5549 35.95L16.8435 35.9732V33.639L16.5999 33.6172C12.7195 33.2725 9.11952 31.4928 6.46297 28.6055C3.79053 25.7009 2.31875 21.9328 2.31875 17.9954C2.31875 14.0586 3.79053 10.2921 6.46297 7.38993C9.11881 4.50543 12.7188 2.72723 16.5999 2.38255Z" fill="#96CA4B"/>
<path d="M18.8839 25.8281C18.4117 25.8281 18.0106 25.7747 17.6987 25.6588V24.4023C18.0018 24.4825 18.3137 24.5271 18.6344 24.5271C19.3117 24.5271 19.6503 24.144 19.6503 23.3776V15.0458H21.2364V23.4845C21.2364 24.2509 21.0314 24.839 20.6305 25.231C20.2206 25.6321 19.6413 25.8281 18.8839 25.8281ZM19.5523 13.0767C19.5523 12.7915 19.6325 12.5776 19.7839 12.4261C19.9355 12.2747 20.1583 12.1944 20.4523 12.1944C20.7285 12.1944 20.9512 12.2747 21.1027 12.4261C21.2543 12.5776 21.3344 12.8003 21.3344 13.0767C21.3344 13.344 21.2543 13.5577 21.1027 13.7182C20.9512 13.8696 20.7285 13.9498 20.4523 13.9498C20.1671 13.9498 19.9444 13.8696 19.7839 13.7182C19.6236 13.5577 19.5523 13.344 19.5523 13.0767Z" fill="#5F7FBF"/>
<path d="M29.5413 20.3924C29.5413 21.1231 29.274 21.6756 28.7483 22.0677C28.2137 22.4597 27.4563 22.6469 26.4671 22.6469C25.4691 22.6469 24.676 22.4954 24.07 22.1924V20.8202C24.9433 21.2211 25.7632 21.4261 26.5206 21.4261C27.4919 21.4261 27.9819 21.1321 27.9819 20.544C27.9819 20.3568 27.9285 20.1964 27.8216 20.0716C27.7146 19.9469 27.5364 19.8132 27.287 19.6796C27.0374 19.5458 26.6987 19.3944 26.2532 19.2251C25.3978 18.8954 24.8097 18.5568 24.5067 18.2271C24.2038 17.8974 24.0523 17.4608 24.0523 16.935C24.0523 16.2935 24.3106 15.8034 24.8276 15.4469C25.3444 15.0904 26.0393 14.9211 26.9305 14.9211C27.8038 14.9211 28.6325 15.0994 29.4166 15.4558L28.8998 16.6498C28.0978 16.3202 27.4206 16.1509 26.868 16.1509C26.0305 16.1509 25.6117 16.3915 25.6117 16.8637C25.6117 17.0954 25.7186 17.2915 25.9413 17.4608C26.1552 17.6211 26.6364 17.844 27.3671 18.129C27.9819 18.3696 28.4276 18.5835 28.7126 18.7796C28.9889 18.9756 29.1938 19.2074 29.3364 19.4657C29.47 19.7151 29.5413 20.0271 29.5413 20.3924Z" fill="#5F7FBF"/>
<path d="M31.1954 5.76824C28.1133 2.4464 23.9415 0.418726 19.4488 0.0587256L19.1602 0.0355225V2.3609L19.4038 2.38255C23.2842 2.72709 26.8844 4.50698 29.5408 7.39429C32.2132 10.2989 33.685 14.0669 33.685 18.0043C33.685 21.9417 32.2132 25.7097 29.5408 28.6143C26.8844 31.5016 23.2842 33.2815 19.4038 33.6262L19.1602 33.6479V35.9732L19.4488 35.95C23.9415 35.5899 28.1133 33.5622 31.1954 30.2404C34.2949 26.9 36.0018 22.5545 36.0018 18.0043C36.0018 13.4542 34.2949 9.10865 31.1954 5.76824Z" fill="#5F7FBF"/>
</g>
<defs>
<clipPath id="clip0_202_16058">
<rect width="37" height="36" fill="white"/>
</clipPath>
</defs>
</svg>
