<svg width="37" height="36" viewBox="0 0 37 36" fill="none" xmlns="http://www.w3.org/2000/svg">
<g clip-path="url(#clip0_202_13226)">
<path d="M18.0017 0.000915527C8.07715 0.000915527 0.00219727 8.07587 0.00219727 18.0007C0.00219727 27.9264 8.07715 36.0009 18.0017 36.0009C27.9265 36.0009 36.0015 27.9264 36.0015 18.0007C36.0015 8.07587 27.9265 0.000915527 18.0017 0.000915527Z" fill="white"/>
<path d="M17.3432 18.3245C17.1815 18.675 17.0031 19.0687 16.8183 19.4878C16.1651 20.9677 15.4417 22.7685 15.1775 23.9221C15.0826 24.333 15.0238 24.8422 15.0249 25.4068C15.0249 25.6301 15.0369 25.8648 15.0559 26.1039C15.9793 26.4432 16.9768 26.6298 18.0183 26.6316C18.9666 26.6298 19.8775 26.4732 20.7301 26.1897C20.5297 26.0064 20.3385 25.8111 20.1644 25.591C19.0085 24.117 18.3636 21.9568 17.3432 18.3245Z" fill="#91DC47"/>
<path d="M13.0757 11.0012C10.8681 12.5571 9.42345 15.1231 9.41797 18.0312C9.42345 20.8958 10.8246 23.4287 12.9767 24.991C13.5046 22.7921 14.8278 20.7787 16.8122 16.7428C16.6943 16.4191 16.56 16.0647 16.4097 15.6925C15.86 14.3136 15.0666 12.7122 14.3586 11.987C13.9976 11.6081 13.5596 11.2808 13.0757 11.0012Z" fill="#91DC47"/>
<path d="M25.51 27.8958C24.371 27.7531 23.4309 27.5808 22.6085 27.2907C21.2254 27.9775 19.6677 28.3655 18.0183 28.3655C12.3113 28.3655 7.68499 23.7399 7.68429 18.0312C7.68429 14.9337 9.04889 12.157 11.2077 10.2632C10.6303 10.1237 10.0282 10.0423 9.4131 10.0434C6.381 10.072 3.1803 11.75 1.84776 16.2818C1.72317 16.9415 1.75284 17.4403 1.75284 18.0315C1.75284 27.0151 9.03581 34.2981 18.0188 34.2981C23.5202 34.2981 28.3801 31.5645 31.3232 27.3838C29.7313 27.7805 28.2005 27.9702 26.8896 27.9743C26.3983 27.9743 25.9371 27.948 25.51 27.8958Z" fill="#63B132"/>
<path d="M22.4533 24.7439C22.5537 24.7937 22.7814 24.875 23.0982 24.9648C25.2296 23.4001 26.6148 20.8798 26.6202 18.0312H26.6194C26.6114 13.2822 22.7683 9.43972 18.0182 9.4303C17.0741 9.43213 16.1671 9.58794 15.3179 9.86932C17.0643 11.86 17.9041 14.7048 18.7164 17.8166C18.7169 17.818 18.7176 17.8191 18.7178 17.8202C18.7194 17.8228 18.9777 18.6844 19.4212 19.8275C19.8617 20.9691 20.4891 22.3823 21.1734 23.4122C21.6227 24.1024 22.1168 24.5984 22.4533 24.7439Z" fill="#90B4FE"/>
<path d="M18.0187 1.76459C12.5704 1.76459 7.75101 4.44668 4.79907 8.55917C6.33537 7.59704 7.90401 7.24998 9.27297 7.26236C11.1638 7.26784 12.6503 7.85409 13.3635 8.25515C13.5358 8.35443 13.6993 8.4613 13.8595 8.57113C15.1321 8.01061 16.5384 7.69716 18.0183 7.69716C23.726 7.69786 28.353 12.3235 28.3539 18.0312H28.353C28.353 20.9089 27.176 23.5108 25.2786 25.3845C25.7443 25.4367 26.241 25.4691 26.7482 25.4666C28.5497 25.4675 30.4969 25.0699 31.9567 23.8421C32.9086 23.0403 33.7061 21.8663 34.1483 20.1059C34.2348 19.426 34.2846 18.7349 34.2846 18.0315C34.2846 9.04826 27.0023 1.76459 18.0187 1.76459Z" fill="#5881D8"/>
</g>
<defs>
<clipPath id="clip0_202_13226">
<rect width="37" height="36.0009" fill="white"/>
</clipPath>
</defs>
</svg>
