<svg width="37" height="36" viewBox="0 0 37 36" fill="none" xmlns="http://www.w3.org/2000/svg">
<g clip-path="url(#clip0_202_11528)">
<path d="M8.00196 8.0004H16.002C16.002 6.41815 15.5328 4.87143 14.6537 3.55584C13.7747 2.24024 12.5252 1.21486 11.0634 0.609364C9.60161 0.00386298 7.99308 -0.154564 6.44123 0.154118C4.88939 0.4628 3.46392 1.22473 2.3451 2.34355C1.22628 3.46237 0.464356 4.88783 0.155674 6.43968C-0.153007 7.99153 0.00541937 9.60006 0.61092 11.0619C1.21642 12.5237 2.2418 13.7731 3.55739 14.6522C4.87299 15.5312 6.41971 16.0004 8.00196 16.0004V8.0004Z" fill="#0066CF"/>
<path d="M28.002 8.0004H20.002C20.002 6.41815 20.4711 4.87143 21.3502 3.55584C22.2292 2.24024 23.4787 1.21486 24.9405 0.609364C26.4023 0.00386298 28.0108 -0.154564 29.5627 0.154118C31.1145 0.4628 32.54 1.22473 33.6588 2.34355C34.7776 3.46237 35.5396 4.88783 35.8482 6.43968C36.1569 7.99153 35.9985 9.60006 35.393 11.0619C34.7875 12.5237 33.7621 13.7731 32.4465 14.6522C31.1309 15.5312 29.5842 16.0004 28.002 16.0004V8.0004Z" fill="#FD0100"/>
<path d="M8.00196 28.0004H16.002C16.002 29.5826 15.5328 31.1294 14.6537 32.445C13.7747 33.7605 12.5252 34.7859 11.0634 35.3914C9.60161 35.9969 7.99308 36.1554 6.44123 35.8467C4.88939 35.538 3.46392 34.7761 2.3451 33.6572C1.22628 32.5384 0.464356 31.113 0.155674 29.5611C-0.153007 28.0093 0.00541937 26.4007 0.61092 24.9389C1.21642 23.4771 2.2418 22.2277 3.55739 21.3486C4.87299 20.4696 6.41971 20.0004 8.00196 20.0004V28.0004Z" fill="#FEC502"/>
<path d="M28.002 28.0004H20.002C20.002 29.5826 20.4711 31.1294 21.3502 32.445C22.2292 33.7605 23.4787 34.7859 24.9405 35.3914C26.4023 35.9969 28.0108 36.1554 29.5627 35.8467C31.1145 35.538 32.54 34.7761 33.6588 33.6572C34.7776 32.5384 35.5396 31.113 35.8482 29.5611C36.1569 28.0093 35.9985 26.4007 35.393 24.9389C34.7875 23.4771 33.7621 22.2277 32.4465 21.3486C31.1309 20.4696 29.5842 20.0004 28.002 20.0004V28.0004Z" fill="#009338"/>
</g>
<defs>
<clipPath id="clip0_202_11528">
<rect width="37" height="36.0004" fill="white"/>
</clipPath>
</defs>
</svg>
