<svg width="37" height="36" viewBox="0 0 37 36" fill="none" xmlns="http://www.w3.org/2000/svg">
<g clip-path="url(#clip0_202_13257)">
<path d="M27.3117 23.4794C27.3811 22.9804 27.4405 22.4721 27.49 21.9553C26.9535 22.6048 26.3834 23.2513 25.7815 23.8916C26.312 23.7667 26.8222 23.6289 27.3117 23.4794ZM8.72696 12.597C8.65566 13.0921 8.59365 13.5958 8.5426 14.1083C9.07107 13.4624 9.63357 12.8203 10.228 12.1854C9.7081 12.3107 9.20832 12.4486 8.72696 12.597ZM27.6514 16.6596C27.9396 16.1933 28.2042 15.7322 28.4453 15.2777C28.1373 14.8707 27.8151 14.4643 27.4797 14.0591C27.5651 14.9051 27.6227 15.7733 27.6514 16.6596ZM7.60871 20.7238C7.90388 21.1191 8.21199 21.5139 8.53318 21.9072C8.45555 21.0844 8.40282 20.2408 8.37596 19.3799C8.09822 19.8331 7.84355 20.2813 7.60871 20.7238ZM23.4233 27.3463C23.2008 28.0549 22.9553 28.7206 22.6882 29.3364C22.2641 30.3145 21.7878 31.1678 21.2737 31.883C20.2976 33.2411 19.1851 34.0966 18.0289 34.321C16.8111 34.059 15.6806 33.1983 14.707 31.8523C13.7495 32.2118 12.8142 32.4669 11.9135 32.609C12.2043 33.0117 12.5119 33.385 12.838 33.7227C14.2397 35.1738 15.4639 36.0009 18.0138 36.0009C20.5639 36.0009 22.008 35.0645 23.4552 33.4361C23.673 33.1909 23.8816 32.9283 24.0828 32.6525C24.6203 31.9159 25.0985 31.0743 25.5162 30.1415C25.98 29.1051 26.3692 27.9572 26.6839 26.7204C25.6544 26.9808 24.5634 27.1896 23.4233 27.3463ZM23.4019 2.62624C21.9442 0.960681 20.5338 0.000915527 18.0138 0.000915527C15.4938 0.000915527 14.5976 0.710087 13.2607 1.96699C12.8045 2.3959 12.379 2.89048 11.983 3.4406C11.467 4.15765 11.003 4.97173 10.5929 5.86948C10.1055 6.93626 9.69432 8.12018 9.36272 9.39832C10.3839 9.13184 11.4649 8.91612 12.5944 8.75313C12.8225 8.01415 13.0759 7.32101 13.3528 6.68159C13.7648 5.73012 14.2274 4.89621 14.7267 4.19056C15.7133 2.7964 16.8454 1.90849 18.0289 1.65101C19.2023 1.86884 20.3306 2.7431 21.3171 4.13656C22.2395 3.78696 23.1414 3.5382 24.0136 3.39715C23.8167 3.12645 23.6135 2.86812 23.4019 2.62624ZM23.4609 8.73921C22.9741 8.67171 22.4784 8.61378 21.9747 8.5654C22.6107 9.08684 23.243 9.64104 23.8682 10.2265C23.7442 9.71163 23.6076 9.21621 23.4609 8.73921ZM12.5784 27.3238C13.0858 27.3973 13.6023 27.4609 14.1281 27.5129C13.4685 26.9693 12.8121 26.391 12.162 25.78C12.2881 26.3155 12.4274 26.8302 12.5784 27.3238ZM32.7757 25.0676C32.757 24.7491 32.7201 24.4251 32.6698 24.0973C32.5311 23.1953 32.276 22.2609 31.9128 21.3046C31.504 20.2286 30.9592 19.1254 30.2959 18.0117C29.7532 18.9245 29.1302 19.8445 28.4356 20.7624C28.7895 21.4385 29.0938 22.0997 29.3454 22.74C29.7356 23.7325 30.0007 24.6739 30.1402 25.5432C30.4029 27.1801 30.2192 28.5602 29.5645 29.5303C28.5278 30.1999 27.1366 30.3938 25.5162 30.1415C25.0985 31.0743 24.6203 31.9159 24.0828 32.6525C24.5547 32.7263 25.0184 32.7699 25.4708 32.7778C27.4882 32.8127 28.9387 32.532 30.7418 30.7289C32.5449 28.9258 32.9038 27.2424 32.7757 25.0676ZM10.9522 3.31952C8.74369 3.17257 7.06786 3.49109 5.28586 5.27309C3.504 7.05495 3.37168 8.19007 3.31514 10.0242C3.2956 10.6586 3.3458 11.3186 3.45802 11.9971C3.60216 12.8681 3.85121 13.7709 4.19714 14.6944C4.60285 15.7776 5.1413 16.889 5.79914 18.0105C6.33394 17.1006 6.94664 16.1845 7.63079 15.2715C7.28021 14.6059 6.97632 13.954 6.72516 13.3225C6.3421 12.3592 6.07786 11.4433 5.92936 10.5912C5.63363 8.89404 5.80435 7.45446 6.46332 6.42917C7.45627 5.74713 8.88938 5.57023 10.5929 5.86948C11.003 4.97173 11.467 4.15765 11.983 3.4406C11.6342 3.38379 11.29 3.34202 10.9522 3.31952ZM27.4797 14.0591C27.4304 13.5705 27.3719 13.0894 27.3041 12.6169C27.1403 11.4754 26.9224 10.3833 26.6528 9.35206C26.3296 8.11484 25.9319 6.96579 25.462 5.92727C24.6115 6.07085 23.6937 6.3327 22.7272 6.71365C22.9943 7.34028 23.2393 8.01837 23.4609 8.73921C23.6076 9.21621 23.7442 9.71163 23.8682 10.2265C23.995 10.7527 24.1092 11.298 24.2102 11.8609C24.403 12.9342 24.5461 14.0719 24.6336 15.2631C24.6982 16.1433 24.7339 17.051 24.7339 17.986C24.7339 18.9288 24.6976 19.8434 24.6319 20.7297C25.4225 19.8174 26.1358 18.9068 26.7641 18.0094C27.0818 17.5554 27.3761 17.1056 27.6514 16.6596C27.6227 15.7733 27.5651 14.9051 27.4797 14.0591ZM12.5784 27.3238C12.4274 26.8302 12.2881 26.3155 12.162 25.78C12.0423 25.2718 11.9332 24.7468 11.8376 24.2032C11.6453 23.1108 11.505 21.9478 11.4196 20.7272C11.3578 19.8428 11.3239 18.929 11.3239 17.986C11.3239 17.0448 11.3597 16.1326 11.4246 15.2493C10.6319 16.1646 9.91889 17.0815 9.28777 17.9877C8.96222 18.4554 8.65777 18.9199 8.37596 19.3799C8.40282 20.2408 8.45555 21.0844 8.53318 21.9072C8.58239 22.4286 8.64089 22.9422 8.71036 23.4455C8.86618 24.5736 9.07346 25.653 9.3308 26.6727C9.64749 27.9266 10.0408 29.0892 10.5102 30.1381C11.3811 29.9934 12.3202 29.7264 13.3092 29.334C13.042 28.7125 12.7978 28.0407 12.5784 27.3238ZM15.3009 7.59199C14.8868 7.90503 14.473 8.23268 14.0606 8.57398C14.9242 8.48679 15.8108 8.42829 16.7164 8.40017C16.2387 8.10612 15.7666 7.83823 15.3009 7.59199ZM6.43055 29.5904C5.74866 28.5974 5.57161 27.1643 5.871 25.4608C4.97325 25.0507 4.15904 24.5867 3.44213 24.0706C3.38532 24.4195 3.34341 24.7637 3.32091 25.1015C3.17396 27.31 3.49261 28.9858 5.27447 30.7677C7.05633 32.5496 8.19146 32.6819 10.0256 32.7386C10.6336 32.7573 11.2648 32.7116 11.9135 32.609C11.3881 31.8819 10.9199 31.054 10.5102 30.1381C8.84902 30.414 7.43925 30.2385 6.43055 29.5904ZM15.2752 28.4216C14.6037 28.7756 13.9461 29.0813 13.3092 29.334C13.7242 30.299 14.1938 31.1429 14.707 31.8523C15.7808 31.4493 16.8821 30.9158 17.9936 30.2651C17.0912 29.7259 16.1822 29.109 15.2752 28.4216ZM20.7473 28.4284C21.1353 28.1382 21.5226 27.8358 21.9087 27.5205C21.1034 27.5965 20.278 27.6484 19.4361 27.6758C19.8784 27.9477 20.3157 28.1988 20.7473 28.4284ZM13.3092 29.334C12.3202 29.7264 11.3811 29.9934 10.5102 30.1381C10.9199 31.054 11.3881 31.8819 11.9135 32.609C12.8142 32.4669 13.7495 32.2118 14.707 31.8523C14.1938 31.1429 13.7242 30.299 13.3092 29.334ZM30.7303 5.3119C28.9272 3.50881 27.2439 3.14979 25.069 3.2779C24.7229 3.29829 24.3705 3.33949 24.0136 3.39715C23.1414 3.5382 22.2395 3.78696 21.3171 4.13656C20.2313 4.54817 19.118 5.09829 17.9941 5.76907C18.9145 6.30753 19.8417 6.92571 20.7657 7.61702C21.4361 7.26617 22.092 6.96396 22.7272 6.71365C23.6937 6.3327 24.6115 6.07085 25.462 5.92727C27.1351 5.6449 28.5454 5.82349 29.5317 6.48921C30.2014 7.52576 30.3952 8.9171 30.1429 10.5375C31.0756 10.9552 31.9173 11.4333 32.654 11.9709C32.7278 11.4988 32.7714 11.0352 32.7792 10.5828C32.8142 8.56554 32.5335 7.11499 30.7303 5.3119ZM29.3378 13.3655C29.09 13.9858 28.7916 14.6248 28.4453 15.2777C28.2042 15.7322 27.9396 16.1933 27.6514 16.6596C27.3761 17.1056 27.0818 17.5554 26.7641 18.0094C26.1358 18.9068 25.4225 19.8174 24.6319 20.7297C24.0392 21.4139 23.4043 22.0991 22.7224 22.7809C22.061 23.4423 21.3949 24.0585 20.7286 24.6341C21.9443 24.549 23.1025 24.4093 24.1911 24.2182C24.7395 24.122 25.269 24.0124 25.7815 23.8916C26.3834 23.2513 26.9535 22.6048 27.49 21.9553C27.8178 21.5584 28.1341 21.1606 28.4356 20.7624C29.1302 19.8445 29.7532 18.9245 30.2959 18.0117C30.9457 16.9191 31.4798 15.8367 31.8844 14.7799C31.1693 14.2659 30.3158 13.7896 29.3378 13.3655ZM11.8488 11.8458C11.2907 11.9462 10.75 12.0597 10.228 12.1854C9.63357 12.8203 9.07107 13.4624 8.5426 14.1083C8.22633 14.495 7.92188 14.8828 7.63079 15.2715C6.94664 16.1845 6.33394 17.1006 5.79914 18.0105C5.14004 19.132 4.59933 20.2435 4.19208 21.3268C4.89774 21.8263 5.7315 22.2889 6.68311 22.7009C6.9399 22.0606 7.25039 21.3991 7.60871 20.7238C7.84355 20.2813 8.09822 19.8331 8.37596 19.3799C8.65777 18.9199 8.96222 18.4554 9.28777 17.9877C9.91889 17.0815 10.6319 16.1646 11.4246 15.2493C11.99 14.5965 12.594 13.9447 13.24 13.2987C13.9107 12.6279 14.5874 12.0034 15.2646 11.4201C14.0683 11.5078 12.926 11.6518 11.8488 11.8458ZM33.4374 12.5984C33.1923 12.3806 32.9296 12.172 32.654 11.9709C31.9173 11.4333 31.0756 10.9552 30.1429 10.5375C29.0873 10.065 27.9161 9.66987 26.6528 9.35206C26.9224 10.3833 27.1403 11.4754 27.3041 12.6169C28.029 12.8429 28.7093 13.093 29.3378 13.3655C30.3158 13.7896 31.1693 14.2659 31.8844 14.7799C33.2425 15.7561 34.098 16.8686 34.3224 18.0248C34.0642 19.2251 33.2252 20.3406 31.9128 21.3046C32.276 22.2609 32.5311 23.1953 32.6698 24.0973C33.0497 23.8191 33.403 23.5258 33.724 23.2157C35.1753 21.814 36.0024 20.5898 36.0024 18.0397C36.0024 15.4898 35.0659 14.0457 33.4374 12.5984ZM8.71036 23.4455C7.98811 23.2209 7.30974 22.9723 6.68311 22.7009C5.7315 22.2889 4.89774 21.8263 4.19208 21.3268C2.79793 20.3402 1.90988 19.2083 1.65239 18.0248C1.87332 16.8347 2.76882 15.6907 4.19714 14.6944C3.85121 13.7709 3.60216 12.8681 3.45802 11.9971C3.16538 12.207 2.88722 12.4247 2.62777 12.6518C0.962207 14.1095 0.00244141 15.5199 0.00244141 18.0397C0.00244141 20.5599 0.711473 21.4559 1.96838 22.793C2.39729 23.2492 2.892 23.6747 3.44213 24.0706C4.15904 24.5867 4.97325 25.0507 5.871 25.4608C6.91838 25.9393 8.0791 26.3443 9.3308 26.6727C9.07346 25.653 8.86618 24.5736 8.71036 23.4455ZM18.0407 9.26853C17.596 8.95971 17.1542 8.66946 16.7164 8.40017C15.8108 8.42829 14.9242 8.48679 14.0606 8.57398C13.5638 8.62418 13.0748 8.68381 12.5944 8.75313C11.4649 8.91612 10.3839 9.13184 9.36272 9.39832C8.12227 9.72204 6.97027 10.1204 5.92936 10.5912C6.07786 11.4433 6.3421 12.3592 6.72516 13.3225C7.34518 13.0585 8.01511 12.8162 8.72696 12.597C9.20832 12.4486 9.7081 12.3107 10.228 12.1854C10.75 12.0597 11.2907 11.9462 11.8488 11.8458C12.926 11.6518 14.0683 11.5078 15.2646 11.4201C16.1446 11.3554 17.0524 11.3198 17.9874 11.3198C18.9581 11.3198 19.8991 11.3584 20.8099 11.4278C19.8843 10.6258 18.9569 9.90513 18.0407 9.26853ZM29.3454 22.74C28.7172 23.0107 28.0374 23.2578 27.3117 23.4794C26.8222 23.6289 26.312 23.7667 25.7815 23.8916C25.269 24.0124 24.7395 24.122 24.1911 24.2182C23.1025 24.4093 21.9443 24.549 20.7286 24.6341C19.8442 24.6959 18.9306 24.7298 17.9874 24.7298C17.0742 24.7298 16.1881 24.6964 15.3293 24.6352C16.2314 25.4165 17.1316 26.1219 18.0193 26.7446C18.4959 27.079 18.9684 27.3881 19.4361 27.6758C20.278 27.6484 21.1034 27.5965 21.9087 27.5205C22.4219 27.472 22.9276 27.4145 23.4233 27.3463C24.5634 27.1896 25.6544 26.9808 26.6839 26.7204C27.9345 26.4041 29.0938 26.0113 30.1402 25.5432C30.0007 24.6739 29.7356 23.7325 29.3454 22.74ZM20.7473 28.4284C20.3157 28.1988 19.8784 27.9477 19.4361 27.6758C18.9684 27.3881 18.4959 27.079 18.0193 26.7446C17.1316 26.1219 16.2314 25.4165 15.3293 24.6352C14.6433 24.041 13.9564 23.4046 13.2727 22.7209C12.6114 22.0596 11.9952 21.3935 11.4196 20.7272C11.505 21.9478 11.6453 23.1108 11.8376 24.2032C11.9332 24.7468 12.0423 25.2718 12.162 25.78C12.8121 26.391 13.4685 26.9693 14.1281 27.5129C14.5096 27.8275 14.8922 28.1314 15.2752 28.4216C16.1822 29.109 17.0912 29.7259 17.9936 30.2651C19.1027 30.9279 20.2014 31.4724 21.2737 31.883C21.7878 31.1678 22.2641 30.3145 22.6882 29.3364C22.0588 29.085 21.4101 28.7812 20.7473 28.4284ZM24.2102 11.8609C24.1092 11.298 23.995 10.7527 23.8682 10.2265C23.243 9.64104 22.6107 9.08684 21.9747 8.5654C21.5729 8.23592 21.1696 7.91937 20.7657 7.61702C19.8417 6.92571 18.9145 6.30753 17.9941 5.76907C16.8893 5.12304 15.7943 4.5919 14.7267 4.19056C14.2274 4.89621 13.7648 5.73012 13.3528 6.68159C13.9838 6.93471 14.6356 7.24029 15.3009 7.59199C15.7666 7.83823 16.2387 8.10612 16.7164 8.40017C17.1542 8.66946 17.596 8.95971 18.0407 9.26853C18.9569 9.90513 19.8843 10.6258 20.8099 11.4278C21.4607 11.9919 22.1107 12.5943 22.755 13.2386C23.4256 13.9093 24.0503 14.5858 24.6336 15.2631C24.5461 14.0719 24.403 12.9342 24.2102 11.8609Z" fill="#49BC82"/>
<path d="M27.3116 23.4794C27.3811 22.9804 27.4404 22.4721 27.4899 21.9553C26.9535 22.6048 26.3834 23.2513 25.7815 23.8915C26.3119 23.7667 26.8221 23.6288 27.3116 23.4794Z" fill="#49BC82"/>
<path d="M8.72684 12.597C8.65554 13.0921 8.59353 13.5958 8.54248 14.1083C9.07095 13.4624 9.63345 12.8203 10.2279 12.1854C9.70798 12.3107 9.2082 12.4486 8.72684 12.597Z" fill="#49BC82"/>
<path d="M27.6514 16.6596C27.9396 16.1933 28.2042 15.7322 28.4453 15.2777C28.1373 14.8707 27.8151 14.4643 27.4797 14.059C27.5651 14.905 27.6228 15.7732 27.6514 16.6596Z" fill="#57B6DF"/>
<path d="M7.60864 20.7238C7.90381 21.1191 8.21192 21.5139 8.53311 21.9072C8.45549 21.0844 8.40275 20.2408 8.37589 19.3799C8.09816 19.8331 7.84349 20.2813 7.60864 20.7238Z" fill="#57B6DF"/>
<path d="M23.4233 27.3463C23.2008 28.0549 22.9553 28.7206 22.6883 29.3364C22.2641 30.3145 21.7878 31.1678 21.2737 31.883C20.2976 33.2412 19.1852 34.0966 18.0289 34.321C16.8111 34.0591 15.6806 33.1983 14.7071 31.8524C13.7496 32.2118 12.8143 32.4669 11.9136 32.6091C12.2044 33.0117 12.5119 33.385 12.838 33.7227C14.2398 35.1738 15.4639 36.0009 18.0139 36.0009C20.564 36.0009 22.0081 35.0645 23.4552 33.4361C23.6731 33.191 23.8816 32.9283 24.0828 32.6525C24.6203 31.9159 25.0986 31.0743 25.5162 30.1415C25.98 29.1051 26.3693 27.9572 26.684 26.7204C25.6545 26.9808 24.5635 27.1897 23.4233 27.3463Z" fill="#49BC82"/>
<path d="M23.4019 2.62624C21.9442 0.960681 20.5339 0.000915527 18.0139 0.000915527C15.4939 0.000915527 14.5977 0.710087 13.2608 1.96699C12.8046 2.3959 12.3791 2.89048 11.9831 3.4406C11.4671 4.15765 11.003 4.97173 10.593 5.86948C10.1056 6.93626 9.69439 8.12018 9.36279 9.39832C10.384 9.13184 11.465 8.91612 12.5945 8.75313C12.8226 8.01415 13.076 7.32101 13.3529 6.68159C13.7649 5.73012 14.2274 4.89621 14.7268 4.19056C15.7134 2.7964 16.8454 1.90849 18.0289 1.65101C19.2023 1.86884 20.3307 2.7431 21.3172 4.13656C22.2395 3.78696 23.1415 3.5382 24.0137 3.39715C23.8168 3.12645 23.6136 2.86812 23.4019 2.62624Z" fill="#49BC82"/>
<path d="M23.4609 8.73924C22.974 8.67174 22.4783 8.6138 21.9746 8.56543C22.6107 9.08687 23.2429 9.64107 23.8681 10.2265C23.7441 9.71166 23.6075 9.21624 23.4609 8.73924Z" fill="#276392"/>
<path d="M12.5783 27.3238C13.0856 27.3974 13.6021 27.4609 14.1279 27.5129C13.4684 26.9693 12.812 26.391 12.1619 25.78C12.288 26.3155 12.4272 26.8302 12.5783 27.3238Z" fill="#276392"/>
<path d="M32.7756 25.0676C32.7569 24.7491 32.7201 24.4251 32.6697 24.0973C32.5311 23.1954 32.276 22.2609 31.9128 21.3047C31.504 20.2286 30.9592 19.1254 30.2959 18.0118C29.7532 18.9246 29.1302 19.8445 28.4355 20.7624C28.7895 21.4385 29.0938 22.0997 29.3454 22.74C29.7356 23.7325 30.0007 24.6739 30.1402 25.5432C30.4029 27.1801 30.2192 28.5602 29.5645 29.5304C28.5278 30.1999 27.1366 30.3938 25.5162 30.1415C25.0985 31.0743 24.6202 31.9159 24.0828 32.6525C24.5547 32.7264 25.0183 32.77 25.4707 32.7778C27.4881 32.8127 28.9387 32.532 30.7418 30.7289C32.5449 28.9258 32.9037 27.2424 32.7756 25.0676Z" fill="#57B6DF"/>
<path d="M10.9522 3.31953C8.74371 3.17257 7.06788 3.49109 5.28588 5.27309C3.50402 7.05495 3.3717 8.19007 3.31517 10.0242C3.29562 10.6586 3.34582 11.3186 3.45804 11.9971C3.60218 12.8681 3.85123 13.7709 4.19717 14.6944C4.60287 15.7776 5.14132 16.889 5.79917 18.0105C6.33396 17.1006 6.94667 16.1845 7.63081 15.2715C7.28023 14.6059 6.97634 13.954 6.72518 13.3225C6.34212 12.3592 6.07788 11.4433 5.92938 10.5912C5.63365 8.89404 5.80437 7.45446 6.46334 6.42917C7.45629 5.74714 8.8894 5.57023 10.5929 5.86948C11.003 4.97173 11.4671 4.15765 11.983 3.4406C11.6343 3.38379 11.29 3.34203 10.9522 3.31953Z" fill="#57B6DF"/>
<path d="M27.4796 14.059C27.4303 13.5705 27.3718 13.0894 27.304 12.6169C27.1401 11.4753 26.9223 10.3832 26.6527 9.35203C26.3294 8.11481 25.9318 6.96576 25.4619 5.92725C24.6114 6.07082 23.6936 6.33267 22.7271 6.71362C22.9942 7.34025 23.2392 8.01834 23.4608 8.73918C23.6075 9.21618 23.7441 9.71161 23.8681 10.2264C23.9949 10.7527 24.1091 11.298 24.2101 11.8609C24.4029 12.9342 24.546 14.0718 24.6335 15.2631C24.698 16.1432 24.7338 17.051 24.7338 17.986C24.7338 18.9287 24.6975 19.8434 24.6318 20.7297C25.4224 19.8173 26.1357 18.9068 26.764 18.0093C27.0816 17.5554 27.376 17.1055 27.6513 16.6596C27.6226 15.7732 27.565 14.905 27.4796 14.059Z" fill="#49BC82"/>
<path d="M12.5784 27.3238C12.4274 26.8302 12.2882 26.3155 12.162 25.78C12.0424 25.2718 11.9332 24.7468 11.8376 24.2031C11.6454 23.1108 11.505 21.9478 11.4197 20.7272C11.3578 19.8428 11.3239 18.929 11.3239 17.986C11.3239 17.0448 11.3598 16.1325 11.4246 15.2493C10.6319 16.1646 9.91891 17.0815 9.28779 17.9877C8.96224 18.4554 8.65779 18.9199 8.37598 19.3798C8.40284 20.2408 8.45557 21.0844 8.5332 21.9072C8.58241 22.4286 8.64091 22.9422 8.71038 23.4455C8.8662 24.5735 9.07348 25.653 9.33082 26.6727C9.64751 27.9266 10.0408 29.0892 10.5102 30.1381C11.3811 29.9934 12.3202 29.7263 13.3092 29.334C13.0421 28.7124 12.7978 28.0407 12.5784 27.3238Z" fill="#49BC82"/>
<path d="M15.3009 7.59198C14.8867 7.90501 14.473 8.23267 14.0605 8.57396C14.9241 8.48678 15.8108 8.42828 16.7164 8.40015C16.2387 8.10611 15.7666 7.83821 15.3009 7.59198Z" fill="#FABB66"/>
<path d="M6.43056 29.5904C5.74867 28.5974 5.57163 27.1643 5.87102 25.4608C4.97327 25.0507 4.15905 24.5867 3.44214 24.0706C3.38533 24.4194 3.34342 24.7637 3.32092 25.1015C3.17397 27.31 3.49263 28.9858 5.27449 30.7677C7.05634 32.5495 8.19147 32.6819 10.0256 32.7385C10.6336 32.7572 11.2648 32.7115 11.9135 32.609C11.3882 31.8819 10.9199 31.054 10.5102 30.1381C8.84903 30.414 7.43927 30.2385 6.43056 29.5904Z" fill="#FABB66"/>
<path d="M15.275 28.4216C14.6035 28.7756 13.946 29.0813 13.3091 29.334C13.7241 30.299 14.1936 31.1429 14.7069 31.8523C15.7807 31.4493 16.8819 30.9158 17.9934 30.2651C17.0911 29.7259 16.182 29.109 15.275 28.4216Z" fill="#FABB66"/>
<path d="M20.7475 28.4284C21.1355 28.1381 21.5227 27.8358 21.9089 27.5205C21.1035 27.5964 20.2782 27.6483 19.4363 27.6758C19.8785 27.9477 20.3159 28.1987 20.7475 28.4284Z" fill="#FABB66"/>
<path d="M13.3093 29.334C12.3202 29.7264 11.3811 29.9934 10.5103 30.1381C10.9199 31.054 11.3882 31.8819 11.9136 32.6091C12.8143 32.4669 13.7496 32.2118 14.7071 31.8524C14.1938 31.1429 13.7242 30.299 13.3093 29.334Z" fill="#FABB66"/>
<path d="M30.7303 5.31189C28.9272 3.50879 27.2439 3.14978 25.069 3.27789C24.7229 3.29828 24.3705 3.33948 24.0136 3.39714C23.1414 3.53818 22.2395 3.78695 21.3171 4.13654C20.2313 4.54815 19.118 5.09828 17.9941 5.76906C18.9145 6.30751 19.8417 6.9257 20.7657 7.61701C21.4361 7.26615 22.092 6.96395 22.7272 6.71364C23.6937 6.33268 24.6115 6.07084 25.462 5.92726C27.135 5.64489 28.5454 5.82348 29.5317 6.4892C30.2014 7.52575 30.3952 8.91709 30.1429 10.5375C31.0756 10.9552 31.9173 11.4333 32.654 11.9709C32.7278 11.4988 32.7714 11.0352 32.7792 10.5828C32.8142 8.56553 32.5335 7.11498 30.7303 5.31189Z" fill="#FABB66"/>
<path d="M29.338 13.3655C29.0902 13.9858 28.7918 14.6248 28.4454 15.2777C28.2044 15.7322 27.9397 16.1933 27.6516 16.6596C27.3762 17.1055 27.0819 17.5554 26.7642 18.0093C26.1359 18.9068 25.4227 19.8174 24.6321 20.7297C24.0394 21.4139 23.4044 22.0991 22.7225 22.7809C22.0612 23.4422 21.395 24.0585 20.7288 24.634C21.9445 24.549 23.1027 24.4093 24.1912 24.2182C24.7397 24.122 25.2691 24.0123 25.7817 23.8915C26.3836 23.2513 26.9537 22.6048 27.4902 21.9553C27.8179 21.5584 28.1342 21.1606 28.4357 20.7624C29.1304 19.8445 29.7534 18.9245 30.296 18.0117C30.9459 16.9191 31.48 15.8367 31.8845 14.7799C31.1695 14.2659 30.316 13.7896 29.338 13.3655Z" fill="#FABB66"/>
<path d="M11.8489 11.8458C11.2907 11.9462 10.75 12.0597 10.228 12.1854C9.63362 12.8203 9.07112 13.4624 8.54265 14.1083C8.22639 14.495 7.92194 14.8829 7.63084 15.2715C6.9467 16.1845 6.334 17.1007 5.7992 18.0105C5.14009 19.132 4.59939 20.2435 4.19214 21.3269C4.89779 21.8264 5.73156 22.2889 6.68317 22.7009C6.93995 22.0606 7.25045 21.3991 7.60876 20.7239C7.84361 20.2813 8.09828 19.8331 8.37601 19.3799C8.65783 18.9199 8.96228 18.4554 9.28783 17.9877C9.91895 17.0815 10.6319 16.1647 11.4246 15.2493C11.9901 14.5965 12.5941 13.9447 13.2401 13.2987C13.9107 12.6279 14.5874 12.0034 15.2647 11.4201C14.0684 11.5079 12.9261 11.6519 11.8489 11.8458Z" fill="#FABB66"/>
<path d="M33.4374 12.5984C33.1923 12.3806 32.9296 12.172 32.654 11.9709C31.9173 11.4333 31.0756 10.9552 30.1429 10.5375C29.0873 10.065 27.9161 9.66986 26.6528 9.35205C26.9224 10.3833 27.1402 11.4753 27.3041 12.6169C28.029 12.8429 28.7093 13.093 29.3378 13.3655C30.3158 13.7896 31.1693 14.2659 31.8844 14.7799C33.2425 15.7561 34.0979 16.8686 34.3224 18.0248C34.0642 19.225 33.2252 20.3406 31.9128 21.3046C32.276 22.2609 32.5311 23.1953 32.6698 24.0973C33.0497 23.8191 33.403 23.5258 33.724 23.2157C35.1753 21.814 36.0024 20.5898 36.0024 18.0397C36.0024 15.4898 35.0659 14.0457 33.4374 12.5984Z" fill="#276392"/>
<path d="M8.71036 23.4455C7.98811 23.2209 7.30974 22.9723 6.68311 22.7009C5.7315 22.2889 4.89774 21.8263 4.19208 21.3268C2.79793 20.3402 1.90988 19.2083 1.65239 18.0248C1.87332 16.8347 2.76882 15.6907 4.19714 14.6944C3.85121 13.7709 3.60216 12.8681 3.45802 11.9971C3.16538 12.207 2.88722 12.4247 2.62777 12.6518C0.962207 14.1095 0.00244141 15.5199 0.00244141 18.0397C0.00244141 20.5599 0.711473 21.4559 1.96838 22.793C2.39729 23.2492 2.892 23.6747 3.44213 24.0706C4.15904 24.5867 4.97325 25.0507 5.871 25.4608C6.91838 25.9393 8.0791 26.3443 9.3308 26.6727C9.07346 25.653 8.86618 24.5736 8.71036 23.4455Z" fill="#276392"/>
<path d="M18.0408 9.26851C17.5961 8.95969 17.1543 8.66944 16.7165 8.40015C15.8109 8.42827 14.9242 8.48677 14.0607 8.57396C13.5638 8.62416 13.0749 8.68379 12.5945 8.75312C11.465 8.9161 10.384 9.13182 9.3628 9.3983C8.12235 9.72202 6.97035 10.1204 5.92944 10.5912C6.07794 11.4433 6.34218 12.3592 6.72524 13.3224C7.34526 13.0585 8.01519 12.8162 8.72704 12.597C9.2084 12.4486 9.70818 12.3106 10.2281 12.1853C10.7501 12.0596 11.2908 11.9461 11.8489 11.8457C12.9261 11.6518 14.0684 11.5078 15.2647 11.4201C16.1447 11.3554 17.0525 11.3198 17.9875 11.3198C18.9582 11.3198 19.8991 11.3583 20.81 11.4278C19.8844 10.6258 18.9569 9.90511 18.0408 9.26851Z" fill="#276392"/>
<path d="M29.3454 22.74C28.7173 23.0107 28.0375 23.2578 27.3117 23.4794C26.8222 23.6289 26.312 23.7667 25.7816 23.8916C25.269 24.0124 24.7395 24.1221 24.1911 24.2182C23.1025 24.4093 21.9443 24.549 20.7286 24.6341C19.8443 24.6959 18.9306 24.7298 17.9874 24.7298C17.0742 24.7298 16.1881 24.6964 15.3293 24.6352C16.2315 25.4165 17.1316 26.1219 18.0194 26.7446C18.4959 27.079 18.9684 27.3881 19.4362 27.6758C20.2781 27.6484 21.1034 27.5965 21.9088 27.5205C22.4219 27.472 22.9276 27.4145 23.4233 27.3463C24.5635 27.1896 25.6545 26.9808 26.684 26.7204C27.9345 26.4041 29.0939 26.0114 30.1403 25.5432C30.0008 24.6739 29.7357 23.7325 29.3454 22.74Z" fill="#276392"/>
<path d="M20.7473 28.4284C20.3158 28.1988 19.8784 27.9478 19.4361 27.6758C18.9684 27.3881 18.4959 27.079 18.0194 26.7446C17.1316 26.1219 16.2314 25.4165 15.3293 24.6352C14.6434 24.0411 13.9564 23.4046 13.2727 22.7209C12.6115 22.0597 11.9953 21.3935 11.4197 20.7272C11.505 21.9479 11.6454 23.1108 11.8376 24.2032C11.9332 24.7469 12.0424 25.2718 12.162 25.78C12.8121 26.391 13.4686 26.9693 14.1281 27.513C14.5096 27.8275 14.8923 28.1314 15.2752 28.4217C16.1822 29.109 17.0912 29.726 17.9936 30.2651C19.1027 30.9279 20.2014 31.4724 21.2737 31.883C21.7878 31.1678 22.2641 30.3145 22.6882 29.3364C22.0588 29.085 21.4101 28.7813 20.7473 28.4284Z" fill="#57B6DF"/>
<path d="M24.2102 11.8609C24.1092 11.298 23.995 10.7527 23.8682 10.2265C23.2429 9.64104 22.6107 9.08683 21.9746 8.5654C21.5729 8.23591 21.1696 7.91936 20.7657 7.61702C19.8416 6.92571 18.9145 6.30752 17.9941 5.76907C16.8892 5.12304 15.7943 4.5919 14.7267 4.19055C14.2273 4.89621 13.7648 5.73011 13.3528 6.68158C13.9838 6.93471 14.6356 7.24029 15.3009 7.59199C15.7666 7.83822 16.2387 8.10611 16.7164 8.40016C17.1542 8.66946 17.596 8.95971 18.0407 9.26852C18.9568 9.90513 19.8843 10.6258 20.8098 11.4278C21.4607 11.9919 22.1106 12.5943 22.755 13.2386C23.4256 13.9093 24.0503 14.5858 24.6336 15.2631C24.5461 14.0718 24.403 12.9342 24.2102 11.8609Z" fill="#57B6DF"/>
</g>
<defs>
<clipPath id="clip0_202_13257">
<rect width="37" height="36.0009" fill="white"/>
</clipPath>
</defs>
</svg>
