<svg width="37" height="34" viewBox="0 0 37 34" fill="none" xmlns="http://www.w3.org/2000/svg">
<g clip-path="url(#clip0_202_9316)">
<path d="M10.6038 0.824707C9.45153 0.844992 8.3963 1.47432 7.83072 2.4784L0.431251 15.3086C-0.141146 16.3048 -0.141146 17.53 0.431251 18.526L7.82791 31.4632C8.38772 32.4812 9.44007 33.1312 10.6009 33.1761H25.3971C26.5579 33.1361 27.6122 32.4888 28.173 31.4717L35.5696 18.6077C35.8579 18.1016 36.002 17.5383 36.002 16.9751C36.002 16.4118 35.8579 15.8485 35.5696 15.3424L28.173 2.4784C27.607 1.47472 26.5521 0.845554 25.3999 0.824707H10.6038Z" fill="#4285F4"/>
<path d="M33.2593 22.6256L28.1729 31.4717C27.6121 32.4888 26.5578 33.1361 25.397 33.1761H19.7613L11.5386 24.8798L13.9626 17.0633L11.5386 9.15738L14.0284 10.8298L17.3761 14.2075L15.8123 9.15738L27.5371 17.0335L33.2593 22.6256Z" fill="black" fill-opacity="0.07"/>
<path d="M11.5386 9.15736L14.0284 10.8299L15.9801 17.1044L14.0631 23.1903L11.5386 24.8799L13.9774 17.0335L11.5386 9.15736ZM17.9156 11.9468L19.1239 15.8551H23.763L17.9156 11.9468ZM27.537 17.0335L15.8123 24.8798L18.2511 17.0335L15.8123 9.15732L27.537 17.0335Z" fill="white"/>
</g>
<defs>
<clipPath id="clip0_202_9316">
<rect width="37" height="34" fill="white"/>
</clipPath>
</defs>
</svg>
