<svg width="24" height="36" viewBox="0 0 24 36" fill="none" xmlns="http://www.w3.org/2000/svg">
<g clip-path="url(#clip0_202_13289)">
<path d="M13.4381 11.5871L19.9611 7.65876V22.9357L13.6563 26.6821V30.0285L23.453 24.1359V2.17841L13.4381 8.22855V11.5871Z" fill="#C08A07"/>
<path d="M13.6015 8.12242L23.4532 2.1785L20.0341 0.117371L10.3566 5.90547L13.6015 8.12242Z" fill="#F6B71F"/>
<path d="M3.78724 13.9635L13.527 8.14986L10.333 5.90546L0.562134 11.7569L3.78724 13.9635Z" fill="#4286C5"/>
<path d="M13.4383 8.22864L3.78723 13.9635V35.8847L13.6566 30.0286V26.6821L7.18207 30.5984V15.2851L13.4383 11.5872V8.22864Z" fill="#22496E"/>
<path d="M0.562134 11.7568V34.0659L3.78724 35.8846V13.9634L0.562134 11.7568Z" fill="#30689C"/>
<path d="M7.18225 30.5984L13.7177 26.6213L10.6911 24.6664L7.18225 26.7549V30.5984Z" fill="#4286C5"/>
<path d="M13.7178 26.6212L19.9616 22.9357L16.7607 21.0685L10.6608 24.6951L13.7178 26.6212Z" fill="#F6B71F"/>
<path d="M19.9613 22.9358V7.65887L16.7604 9.59273V21.0686L19.9613 22.9358Z" fill="#E4A409"/>
<path d="M13.7729 29.8225V26.7483L20.0184 23.0368C20.0187 23.0366 20.019 23.0367 20.0193 23.0365C20.0196 23.0364 20.0196 23.036 20.02 23.0358L20.0206 23.0354C20.0209 23.0353 20.0208 23.0349 20.0211 23.0347C20.0559 23.0134 20.0778 22.976 20.0778 22.9354V7.65874C20.0778 7.61674 20.0551 7.57807 20.0187 7.5573C20.0187 7.5573 20.0185 7.55739 20.0184 7.5573C19.9821 7.53689 19.9372 7.53743 19.901 7.55902L19.8117 7.61294L13.6434 11.296V8.2092L23.3366 2.38479V24.0698L13.7729 29.8225ZM3.90377 14.0296L13.4104 8.34804V11.4356L7.12283 15.1847C7.08733 15.2057 7.06538 15.2438 7.06538 15.285V30.5982C7.06538 30.6403 7.08814 30.679 7.12481 30.6994C7.14243 30.7097 7.1623 30.7148 7.1819 30.7148C7.20268 30.7148 7.22373 30.7091 7.24215 30.6977L13.5399 26.8883V29.9618L3.90377 35.6798V14.0296ZM0.678483 11.9776L3.67072 14.0247V35.6849L0.678483 33.9975V11.9776ZM10.3213 6.03399L13.3844 8.12411L3.79176 13.8252L0.777303 11.763L10.3213 6.03399ZM20.0335 0.252753L23.2278 2.1783L13.5949 7.9982L10.5321 5.90834L20.0335 0.252753ZM16.7761 20.9395L7.29843 26.5485V15.3515L16.7761 9.73034V20.9395ZM17.0092 20.9393V9.59612L19.8448 7.86505V22.7325L17.0092 20.9393ZM16.8927 21.1412L19.7315 22.9363L13.739 26.4907L10.8307 24.6732L16.8927 21.1412ZM7.29843 26.8205L10.6122 24.8027L13.5222 26.6214L7.29843 30.3919V26.8205ZM23.5145 2.08101C23.5137 2.08047 23.5139 2.07912 23.5131 2.07857L20.094 0.0174457C20.0573 -0.00468487 20.0113 -0.00441389 19.9747 0.0171748L0.501981 11.657C0.500174 11.6581 0.500806 11.6609 0.49909 11.662C0.468739 11.6823 0.448957 11.7144 0.44697 11.7512C0.44697 11.752 0.445706 11.7524 0.445706 11.7534C0.445706 11.7537 0.446157 11.7538 0.446157 11.7542C0.446067 11.7552 0.445435 11.7558 0.445435 11.7568V34.0657C0.445435 34.1078 0.468197 34.1464 0.504781 34.1669L3.7288 35.9848C3.72917 35.985 3.72926 35.9854 3.72953 35.9856C3.7475 35.9958 3.76738 36.0009 3.78725 36.0009C3.80739 36.0009 3.8279 35.9952 3.84605 35.985C3.84632 35.9848 3.84641 35.9846 3.84668 35.9844L23.5131 24.2352C23.5481 24.2141 23.5697 24.1767 23.5697 24.1357V2.1783C23.5697 2.13828 23.5481 2.10233 23.5145 2.08101Z" fill="#241200"/>
</g>
<defs>
<clipPath id="clip0_202_13289">
<rect width="24" height="36.0009" fill="white"/>
</clipPath>
</defs>
</svg>
