<svg width="36" height="36" viewBox="0 0 36 36" fill="none" xmlns="http://www.w3.org/2000/svg">
<g clip-path="url(#clip0_202_13883)">
<path d="M14.0219 0.81273C14.5002 0.688134 14.9569 0.573444 15.4112 0.450103C16.3209 0.203422 17.2491 0.102685 18.1884 0.109382C20.3005 0.12459 22.2874 0.635532 24.1036 1.71727C27.2179 3.57213 29.1264 6.29357 29.846 9.84798C29.9494 10.3589 29.8576 10.8602 29.774 11.3589C29.3617 13.818 28.2588 15.9207 26.487 17.6735C26.4157 17.744 26.342 17.8121 26.2689 17.8807C26.2612 17.888 26.2502 17.8916 26.2195 17.9088C26.2912 17.6624 26.3596 17.433 26.4247 17.2025C26.7031 16.2166 26.8555 15.2116 26.8945 14.1876C26.963 12.386 26.6822 10.641 26.0076 8.97037C25.8238 8.51509 25.5715 8.07322 25.278 7.67948C24.5823 6.74591 23.8967 5.79546 23.1107 4.94031C21.1641 2.8219 18.7341 1.5444 15.9041 1.0403C15.2942 0.931605 14.6726 0.889608 14.0219 0.81273ZM23.793 12.3204C21.7287 8.48063 18.6202 6.06293 14.3251 5.27908C10.0315 4.49564 6.27949 5.66864 3.00162 8.52082C3.15468 8.24623 3.29727 7.96509 3.46261 7.69817C5.28774 4.75167 7.88585 2.86529 11.2868 2.19501C14.7078 1.52082 17.8905 2.19919 20.771 4.18353C21.0518 4.37691 21.2733 4.67173 21.4846 4.9484C22.679 6.5136 23.4302 8.27204 23.6888 10.2255C23.774 10.8696 23.7728 11.5251 23.8095 12.1754C23.8117 12.2171 23.8003 12.2595 23.793 12.3204ZM17.7723 9.94802C13.6879 8.70904 9.79204 9.13194 6.23972 11.5912C2.6902 14.0485 0.910269 17.5343 0.642798 21.8486C0.608615 21.7449 0.58043 21.6615 0.553502 21.5776C0.52462 21.4875 0.494483 21.3976 0.468949 21.3065C0.142599 20.1394 -0.0392024 18.9488 0.00851536 17.7383C0.129484 14.6731 1.2249 12.0053 3.3581 9.78673C4.91465 8.16796 6.79057 7.083 8.96661 6.52448C9.31696 6.43463 9.67247 6.34115 10.0306 6.31255C10.3488 6.28715 10.6768 6.33013 10.9956 6.37617C13.2756 6.70601 15.2828 7.63218 17.0043 9.16459C17.2816 9.41155 17.5261 9.6952 17.7723 9.94802ZM27.5335 3.29614C28.8415 3.93392 29.9785 4.78474 30.9624 5.83858C32.5823 7.57358 33.6092 9.61316 33.9899 11.9541C34.5143 15.1783 33.8535 18.1538 31.9677 20.83C31.722 21.1786 31.3397 21.4439 30.9867 21.7014C29.3855 22.8689 27.5917 23.5622 25.624 23.7863C25.0298 23.854 24.4281 23.8573 23.83 23.8702C27.6181 21.8209 30.08 18.7612 30.8516 14.5035C31.6226 10.2493 30.4021 6.52504 27.5335 3.29614ZM12.0849 12.373C8.30819 14.4017 5.84822 17.4538 5.07776 21.7074C4.30897 25.951 5.51684 29.6718 8.36163 32.8836C8.35228 32.8973 8.34293 32.9111 8.33358 32.9248C7.82418 32.6095 7.29593 32.3205 6.80871 31.9741C4.3638 30.2353 2.75284 27.9087 2.08703 24.9829C1.29257 21.4915 1.93927 18.2555 3.99629 15.3133C4.0655 15.2144 4.15717 15.1279 4.25023 15.0496C5.99081 13.5852 7.99105 12.7077 10.2484 12.436C10.8554 12.3631 11.4705 12.3599 12.0821 12.3247C12.0829 12.3407 12.0839 12.3568 12.0849 12.373ZM21.6625 35.2698C21.3277 35.3633 20.9948 35.4643 20.6577 35.549C19.5795 35.8202 18.4803 35.9427 17.3734 35.8758C13.2747 35.6275 10.0834 33.7813 7.82125 30.3552C6.94377 29.026 6.39376 27.556 6.14736 25.984C6.09015 25.6191 6.14917 25.2276 6.20261 24.8552C6.49478 22.8236 7.27877 20.9976 8.56185 19.3953C8.90606 18.9656 9.30496 18.5796 9.67959 18.1743C9.70484 18.1471 9.73735 18.1266 9.77335 18.0973C8.52376 22.2166 8.94959 26.1122 11.411 29.664C13.8725 33.2159 17.3603 34.9972 21.6625 35.2698ZM12.1845 23.8061C14.2252 27.6033 17.2809 30.0543 21.5264 30.8241C25.7734 31.5941 29.4951 30.3801 32.7263 27.538C32.577 27.8078 32.4377 28.0838 32.2769 28.3465C30.5649 31.1432 28.1336 32.9993 24.9458 33.7748C21.4463 34.6259 18.1872 34.0026 15.2112 31.9598C15.071 31.8636 14.9435 31.74 14.8341 31.6089C13.4911 30.0017 12.6481 28.1654 12.3126 26.0961C12.1952 25.3724 12.1528 24.6454 12.1729 23.9135C12.1736 23.8861 12.1786 23.8586 12.1845 23.8061ZM35.4141 14.1716C35.5564 14.7943 35.7208 15.413 35.8362 16.0405C36.024 17.061 36.0408 18.0941 35.9394 19.1243C35.7769 20.7759 35.294 22.3324 34.4695 23.7761C33.1178 26.1429 31.1856 27.8614 28.6771 28.9291C27.8376 29.2864 26.9672 29.5515 26.0641 29.6712C25.7072 29.7186 25.3296 29.6655 24.9678 29.6137C23.2003 29.3603 21.5793 28.7238 20.1093 27.7082C19.4461 27.25 18.8383 26.7267 18.2861 26.1393C18.2572 26.1086 18.2321 26.0742 18.205 26.0412C22.3171 27.2888 26.2121 26.8676 29.765 24.4096C33.3142 21.9541 35.0969 18.4701 35.3626 14.1874C35.3798 14.1822 35.3969 14.1769 35.4141 14.1716ZM13.1786 23.2908C13.9383 23.9814 14.7635 24.577 15.652 25.0868C15.7067 25.1184 15.7523 25.1749 15.7879 25.229C16.8774 26.8896 18.2755 28.2261 19.9874 29.2338C20.0181 29.2519 20.0473 29.2726 20.067 29.3047C16.9646 28.2249 14.6706 26.2167 13.1786 23.2908ZM22.8018 12.6877C22.5561 12.4812 22.3227 12.2573 22.0621 12.0716C21.5224 11.6871 20.9676 11.3237 20.421 10.949C20.3494 10.8999 20.2726 10.845 20.2262 10.7746C19.1456 9.12929 17.7624 7.80072 16.0712 6.79321C16.034 6.77103 15.9981 6.74647 15.9736 6.70824C19.0496 7.78398 21.3258 9.77724 22.8018 12.6877ZM29.4318 15.742C28.3372 18.8341 26.3448 21.1201 23.4251 22.6041C23.4527 22.5681 23.4778 22.53 23.5081 22.4965C24.1395 21.7992 24.6865 21.0411 25.1563 20.2263C25.1991 20.1521 25.261 20.0787 25.3318 20.0322C26.9969 18.9382 28.3369 17.5354 29.3484 15.8187C29.3623 15.795 29.3788 15.7727 29.395 15.7502C29.3969 15.7475 29.4033 15.7481 29.4318 15.742ZM12.571 13.383C12.2226 13.8288 11.8619 14.2677 11.5275 14.7258C11.2914 15.0491 11.0947 15.401 10.8718 15.7344C10.806 15.8328 10.7245 15.932 10.6274 15.9966C9.00889 17.0737 7.69623 18.4412 6.70072 20.112C6.67351 20.1579 6.64239 20.2016 6.59496 20.2739C7.45471 17.4937 9.6994 14.7565 12.571 13.383ZM8.37363 11.6426C11.3125 10.2131 14.3346 10.0158 17.4371 11.0175C16.5403 11.0663 15.6535 11.1859 14.7861 11.4162C14.4908 11.4947 14.2157 11.4935 13.9191 11.4384C12.0899 11.0985 10.2719 11.1588 8.46906 11.6258C8.43795 11.6339 8.40544 11.6371 8.37363 11.6426ZM10.8227 18.4655C10.8918 19.0348 10.9495 19.6156 11.037 20.1918C11.0937 20.5654 11.1856 20.9345 11.2781 21.3015C11.3187 21.4629 11.3246 21.6135 11.2912 21.7759C11.0549 22.9243 10.9621 24.0859 11.0797 25.2524C11.1577 26.0261 11.3051 26.7928 11.4055 27.4583C11.0587 26.8952 10.3545 25.0373 10.2325 23.0828C10.1337 21.5002 10.3242 19.9579 10.8227 18.4655ZM24.5591 8.40473C25.979 11.3982 26.1778 14.4292 25.1923 17.5353C25.1103 16.9046 25.0344 16.2712 24.9427 15.64C24.9043 15.3763 24.853 15.1105 24.7701 14.8579C24.6793 14.581 24.6963 14.3175 24.7503 14.0396C25.0063 12.7211 25.0494 11.3943 24.8544 10.0645C24.7754 9.52568 24.6646 8.99157 24.5591 8.40473ZM18.5522 24.976C19.575 24.9382 20.5747 24.7574 21.5653 24.5058C21.6951 24.4729 21.8496 24.5208 21.9895 24.5477C23.8644 24.9091 25.7252 24.8426 27.5728 24.367C27.604 24.3589 27.6357 24.3526 27.669 24.3617C24.7146 25.7867 21.6751 25.9848 18.5522 24.976Z" fill="#265597"/>
</g>
<defs>
<clipPath id="clip0_202_13883">
<rect width="36.001" height="36" fill="white"/>
</clipPath>
</defs>
</svg>
