<svg width="37" height="34" viewBox="0 0 37 34" fill="none" xmlns="http://www.w3.org/2000/svg">
<g clip-path="url(#clip0_202_9293)">
<mask id="mask0_202_9293" style="mask-type:alpha" maskUnits="userSpaceOnUse" x="0" y="0" width="37" height="34">
<path d="M35.5697 15.3425L28.173 2.47847C27.607 1.47477 26.552 0.84564 25.3999 0.824768H10.6038C9.45154 0.845072 8.39631 1.47436 7.83075 2.47847L0.431271 15.3087C-0.141153 16.3048 -0.141153 17.5301 0.431271 18.5261L7.82794 31.4633C8.3877 32.4812 9.44013 33.1313 10.601 33.176H25.3971C26.5579 33.1362 27.6122 32.4889 28.173 31.4717L35.5697 18.6077C36.1461 17.5956 36.1461 16.3546 35.5697 15.3425Z" fill="white"/>
</mask>
<g mask="url(#mask0_202_9293)">
<path d="M35.5697 15.3425L28.173 2.47847C27.607 1.47477 26.552 0.84564 25.3999 0.824768H10.6038C9.45154 0.845072 8.39631 1.47436 7.83075 2.47847L0.431271 15.3087C-0.141153 16.3048 -0.141153 17.5301 0.431271 18.5261L7.82794 31.4633C8.3877 32.4812 9.44013 33.1313 10.601 33.176H25.3971C26.5579 33.1362 27.6122 32.4889 28.173 31.4717L35.5697 18.6077C36.1461 17.5956 36.1461 16.3546 35.5697 15.3425Z" fill="#4285F4"/>
<path opacity="0.07" d="M26.3223 12.7402L25.3025 13.8524L25.5323 20.4615L24.5657 21.8623L24.0054 21.302H24.5209V19.0102L22.047 16.5364L20.1772 17.471L13.9755 11.2553L10.989 12.855L10.6191 15.9536L11.667 21.6242L13.1854 23.1118L12.4934 24.0952L21.5282 33.3424H25.3025C26.4589 33.3028 27.7112 32.5449 28.2698 31.5317L34.4262 20.8437L26.3223 12.7402Z" fill="black"/>
<path d="M12.4935 24.0952L13.9756 22.6131L11.7539 20.3914V13.477L13.9756 11.2553L12.4935 9.77319L9.52661 12.7401V21.1282L12.4935 24.0952Z" fill="white"/>
<path d="M14.7882 17.9848C15.3684 17.9848 15.8388 17.5145 15.8388 16.9342C15.8388 16.354 15.3684 15.8836 14.7882 15.8836C14.2079 15.8836 13.7375 16.354 13.7375 16.9342C13.7375 17.5145 14.2079 17.9848 14.7882 17.9848Z" fill="white"/>
<path d="M17.9315 17.9848C18.5117 17.9848 18.9821 17.5145 18.9821 16.9342C18.9821 16.354 18.5117 15.8836 17.9315 15.8836C17.3512 15.8836 16.8809 16.354 16.8809 16.9342C16.8809 17.5145 17.3512 17.9848 17.9315 17.9848Z" fill="white"/>
<path d="M21.075 17.9848C21.6553 17.9848 22.1256 17.5145 22.1256 16.9342C22.1256 16.354 21.6553 15.8836 21.075 15.8836C20.4948 15.8836 20.0244 16.354 20.0244 16.9342C20.0244 17.5145 20.4948 17.9848 21.075 17.9848Z" fill="white"/>
<path d="M23.3554 9.77319L21.8733 11.2553L24.095 13.477V20.3914L21.8733 22.6131L23.3554 24.0952L26.3223 21.1282V12.7401L23.3554 9.77319Z" fill="white"/>
</g>
</g>
<defs>
<clipPath id="clip0_202_9293">
<rect width="37" height="34" fill="white"/>
</clipPath>
</defs>
</svg>
