<svg width="41" height="28" viewBox="0 0 41 28" fill="none" xmlns="http://www.w3.org/2000/svg">
<g clip-path="url(#clip0_202_13079)">
<path d="M34.1618 26.1701C33.6523 26.1701 33.178 25.8458 33.0108 25.3351C32.8028 24.6993 33.1495 24.015 33.7856 23.807C36.0901 23.0527 37.579 21.0328 37.579 18.6609C37.579 15.6569 35.1351 13.2127 32.1312 13.2127C31.9225 13.2127 31.698 13.2292 31.4248 13.2646L30.2402 13.4182L30.0702 12.2355C29.3422 7.16418 24.9245 3.33975 19.794 3.33975C15.5526 3.33975 11.7767 5.87892 10.1755 9.80878L9.87404 10.5481L9.07611 10.5627C5.40912 10.6302 2.42575 13.6671 2.42575 17.3322C2.42575 20.0079 3.97918 22.4479 6.3831 23.5483C6.99136 23.8269 7.25892 24.5457 6.98028 25.154C6.70164 25.7622 5.98318 26.0292 5.37492 25.7515C2.11101 24.2575 0.00219727 20.9531 0.00219727 17.3322C0.00219727 12.6206 3.63246 8.67362 8.24367 8.18883C10.3683 3.74633 14.8212 0.917114 19.7937 0.917114C25.7452 0.917114 30.9188 5.08984 32.2604 10.7913C36.541 10.8607 40.0022 14.3643 40.0022 18.6612C40.0022 22.0471 37.8066 25.0403 34.5392 26.1096C34.4142 26.1504 34.2869 26.1701 34.1618 26.1701Z" fill="#0071CE"/>
<path d="M15.6299 26.6942C15.6296 26.6939 15.6296 26.6939 15.6292 26.6939C15.6289 26.6939 15.6286 26.6936 15.6283 26.6936H15.628L15.6277 26.6932L15.6273 26.6929C15.6273 26.6929 15.627 26.6929 15.627 26.6926H15.6267L15.6264 26.6923C15.6267 26.692 15.6261 26.692 15.6261 26.692L15.6258 26.6917H15.6255L15.6251 26.6913C15.6255 26.6917 15.6248 26.691 15.6248 26.691C15.6248 26.691 15.6242 26.6907 15.6239 26.6907L15.6236 26.6904L15.6232 26.6901L15.6229 26.6898C15.622 26.6894 15.6223 26.6894 15.622 26.6894C15.6217 26.6898 15.6217 26.6891 15.6213 26.6891L15.621 26.6888C15.621 26.6888 15.6207 26.6885 15.6204 26.6885L15.6201 26.6882C15.6198 26.6879 15.6191 26.6879 15.6188 26.6879C15.6185 26.6879 15.6179 26.6875 15.6175 26.6875C15.6172 26.6872 15.6172 26.6872 15.6169 26.6872H15.6166C15.6163 26.6869 15.616 26.6869 15.6157 26.6869C15.6153 26.6866 15.6147 26.6866 15.6147 26.6866H15.6144L15.6138 26.6863C15.6134 26.6863 15.6134 26.686 15.6134 26.686H15.6131C15.5945 26.6793 15.5745 26.6752 15.5537 26.6743H15.553H15.5524H15.5518C15.5518 26.6743 15.5518 26.6743 15.5515 26.6743H15.5511H15.5508L15.5505 26.674H15.5499H15.5492H15.5489H15.5486H15.5483H15.5477H15.5474H15.5477H15.5474H15.547H15.5467H15.5464H15.5461H15.5458H15.5455H15.5451C15.0215 26.674 14.593 26.2477 14.5899 25.7253V15.08H15.4016H15.4057C15.53 15.0853 15.6147 14.9898 15.6147 14.8751C15.6147 14.7894 15.5622 14.716 15.4876 14.6853L11.5733 11.9837C11.5031 11.9353 11.4104 11.9353 11.3402 11.9837L7.39526 14.7065C7.32126 14.7574 7.28933 14.8507 7.31589 14.9364C7.34277 15.0221 7.42182 15.0803 7.51162 15.0803H8.32743L8.32806 25.7282C8.33217 26.4643 8.92348 27.0651 9.67573 27.0841C9.68427 27.085 9.69249 27.0856 9.70103 27.0856H15.5448H15.5483C15.6021 27.0847 15.6508 27.0632 15.6868 27.0287C15.6868 27.0287 15.6868 27.0287 15.6871 27.0284C15.6877 27.0278 15.6884 27.0272 15.6887 27.0268C15.689 27.0265 15.6893 27.0265 15.6896 27.0259L15.69 27.0256L15.6903 27.0253L15.6906 27.0249L15.6909 27.0246L15.6912 27.0243L15.6915 27.024C15.6922 27.0237 15.6919 27.0237 15.6922 27.0234C15.6922 27.0234 15.6922 27.0234 15.6925 27.023L15.6928 27.0227C15.6928 27.0227 15.6928 27.0227 15.6931 27.0224C15.7285 26.9857 15.7507 26.9361 15.751 26.8811V26.8804V26.8801V26.8798V26.8795V26.8792V26.8789V26.8785V26.8779C15.7494 26.797 15.7004 26.7261 15.6299 26.6942Z" fill="#DC8327"/>
<path d="M24.0843 26.6942C24.0843 26.6942 24.084 26.6939 24.0836 26.6939C24.0833 26.6939 24.083 26.6936 24.0827 26.6936H24.0824L24.0821 26.6933L24.0817 26.693H24.0814L24.0811 26.6926L24.0808 26.6923C24.0811 26.692 24.0805 26.692 24.0802 26.692L24.0798 26.6917H24.0795C24.0792 26.6917 24.0792 26.6914 24.0792 26.6914C24.0786 26.6917 24.0786 26.6911 24.0786 26.6911L24.0779 26.6907L24.0776 26.6904H24.0773L24.077 26.6901L24.0767 26.6898C24.0764 26.6895 24.076 26.6895 24.076 26.6895C24.0757 26.6898 24.0757 26.6892 24.0751 26.6892L24.0748 26.6888L24.0745 26.6885C24.0745 26.6885 24.0741 26.6885 24.0738 26.6882C24.0735 26.6879 24.0729 26.6879 24.0726 26.6879C24.0723 26.6879 24.0716 26.6876 24.0713 26.6876C24.071 26.6873 24.071 26.6873 24.0707 26.6873C24.0704 26.6873 24.0704 26.6873 24.07 26.687C24.07 26.687 24.0697 26.687 24.0694 26.6866C24.0685 26.6863 24.0691 26.6863 24.0688 26.6863C24.0678 26.6863 24.0685 26.6863 24.0681 26.686C24.0681 26.686 24.0678 26.6857 24.0675 26.6857L24.0672 26.6854H24.0669C24.0482 26.6787 24.0283 26.6746 24.0074 26.6737H24.0068H24.0065H24.0058H24.0055H24.0052H24.0049L24.0046 26.6734H24.0039H24.0033H24.003H24.0027H24.0024H24.0017H24.0011H24.0008H24.0005H24.0002H23.9998H23.9995H23.9992H23.9989H23.9986H23.9983C23.4749 26.6734 23.0465 26.2471 23.0433 25.7247V17.4639H23.8588C23.8617 17.4636 23.8639 17.4636 23.867 17.4639C23.9802 17.4639 24.0719 17.3722 24.0719 17.259C24.0719 17.1733 24.0194 17.0999 23.9448 17.0692L20.0302 14.3676C19.96 14.3192 19.8673 14.3192 19.7972 14.3676L15.8538 17.0901C15.7798 17.141 15.7478 17.2343 15.7744 17.32C15.8013 17.4057 15.8803 17.4639 15.9701 17.4639H16.7821L16.7828 25.7279C16.7862 26.4643 17.3785 27.0654 18.1311 27.0841C18.1393 27.0851 18.1475 27.0854 18.1557 27.0854H23.9995H24.003C24.0568 27.0844 24.1055 27.0629 24.1415 27.0285C24.1415 27.0285 24.1415 27.0285 24.1418 27.0281C24.1424 27.0275 24.1437 27.0269 24.1434 27.0266C24.1437 27.0262 24.144 27.0262 24.1443 27.0256L24.1447 27.0253L24.145 27.025L24.1453 27.0247C24.1453 27.0247 24.1456 27.0247 24.1456 27.0243L24.1459 27.024C24.1462 27.024 24.1462 27.0237 24.1462 27.0237C24.1472 27.0234 24.1469 27.0234 24.1469 27.0231C24.1469 27.0231 24.1469 27.0231 24.1472 27.0228C24.1472 27.0228 24.1472 27.0228 24.1475 27.0224C24.1475 27.0224 24.1475 27.0224 24.1478 27.0221C24.1832 26.9854 24.2054 26.9358 24.2057 26.8808V26.8802V26.8798V26.8795V26.8792V26.8789V26.8786V26.8783V26.8776C24.2038 26.797 24.1548 26.7262 24.0843 26.6942Z" fill="#F4B21B"/>
<path d="M32.5606 26.6942L32.56 26.6939C32.5597 26.6939 32.5593 26.6935 32.559 26.6935H32.5587L32.5584 26.6932L32.5581 26.6929C32.5578 26.6929 32.5578 26.6929 32.5578 26.6926H32.5574L32.5571 26.6923L32.5568 26.692C32.5568 26.692 32.5565 26.692 32.5565 26.6916H32.5562L32.5559 26.6913C32.5555 26.6916 32.5555 26.691 32.5552 26.691C32.5555 26.6907 32.5549 26.6907 32.5546 26.6907L32.5543 26.6904H32.554L32.5536 26.6901L32.5533 26.6897C32.5524 26.6894 32.5527 26.6894 32.5527 26.6894C32.5524 26.6897 32.5524 26.6891 32.5517 26.6891L32.5514 26.6888C32.5517 26.6885 32.5511 26.6885 32.5508 26.6885C32.5508 26.6885 32.5505 26.6885 32.5505 26.6882C32.5502 26.6878 32.5495 26.6878 32.5492 26.6878C32.5489 26.6878 32.5483 26.6875 32.548 26.6875L32.5473 26.6872C32.5473 26.6872 32.547 26.6872 32.5467 26.6869L32.5461 26.6866C32.5451 26.6863 32.5451 26.6863 32.5454 26.6863C32.5445 26.6863 32.5445 26.6863 32.5448 26.686C32.5445 26.686 32.5445 26.6856 32.5445 26.6856C32.5442 26.6856 32.5438 26.6853 32.5438 26.6853H32.5435C32.5249 26.6787 32.5049 26.6746 32.4841 26.6736H32.4838H32.4831H32.4822H32.4819H32.4815H32.4812C32.4809 26.6733 32.4809 26.6733 32.4806 26.6733H32.48H32.4793H32.479H32.4787H32.4784H32.4778H32.4771C32.4771 26.6733 32.4771 26.6733 32.4768 26.6733H32.4765H32.4762H32.4759H32.4755H32.4752H32.4749H32.4762H32.4759C31.9525 26.6733 31.5241 26.2471 31.5209 25.7247V19.8467H32.3345H32.3386C32.454 19.8439 32.5476 19.7566 32.5476 19.6418C32.5476 19.5561 32.4951 19.4828 32.4205 19.4521L28.5059 16.7505C28.436 16.7021 28.3431 16.7021 28.2729 16.7505L24.3279 19.473C24.2539 19.5239 24.2219 19.6172 24.2485 19.7029C24.2754 19.7886 24.3544 19.8467 24.4442 19.8467H25.2578L25.2585 25.7278C25.2626 26.4643 25.8545 27.0657 26.6068 27.0841C26.615 27.085 26.6232 27.0853 26.6314 27.0853H32.4752H32.4787C32.5325 27.0844 32.5812 27.0629 32.6172 27.0284L32.6175 27.0281C32.6181 27.0275 32.6191 27.0268 32.6191 27.0265C32.6194 27.0262 32.6197 27.0262 32.62 27.0256L32.6204 27.0252L32.6207 27.0249L32.621 27.0246L32.6213 27.0243L32.6216 27.024L32.6219 27.0237C32.6229 27.0233 32.6223 27.0233 32.6226 27.023C32.6226 27.023 32.6226 27.023 32.6229 27.0227L32.6232 27.0224C32.6232 27.0224 32.6232 27.0224 32.6235 27.0221C32.6589 26.9854 32.6811 26.9358 32.6814 26.8807V26.8801V26.8798V26.8795V26.8792V26.8788V26.8785V26.8782V26.8776C32.6801 26.7969 32.6308 26.7261 32.5606 26.6942Z" fill="#F2D864"/>
</g>
<defs>
<clipPath id="clip0_202_13079">
<rect width="41" height="28" fill="white"/>
</clipPath>
</defs>
</svg>
