<svg width="34" height="37" viewBox="0 0 34 37" fill="none" xmlns="http://www.w3.org/2000/svg">
<g clip-path="url(#clip0_202_12591)">
<path d="M16.8493 0.00466027C20.2943 -0.0250355 23.2573 2.43716 23.8584 5.82943C27.0982 4.5965 30.7536 5.90246 32.4788 8.90923L32.4818 8.91536L32.514 8.97665C34.1779 11.9381 33.5112 15.6631 30.9235 17.8636C33.6048 20.068 34.3024 23.8862 32.5738 26.8962L32.5621 26.9163C32.5539 26.9295 32.545 26.9422 32.5355 26.9544C30.8225 29.8864 27.2593 31.1758 24.0668 30.0189C23.5451 33.4383 20.6192 35.9738 17.1604 36.0041C13.7016 36.0339 10.7321 33.5497 10.151 30.1399C7.00912 31.3353 3.47652 30.1431 1.69258 27.3275L1.67964 27.3067L1.73133 27.3926L1.52908 27.0632C1.51684 27.0431 1.50609 27.0221 1.4969 27.0004C-0.168576 24.0395 0.497579 20.3137 3.08583 18.1134C0.39815 15.9095 -0.300081 12.0845 1.43561 9.07318L1.44719 9.05332C1.45536 9.04015 1.46421 9.02721 1.47238 9.01495C3.18963 6.08725 6.74963 4.79927 9.9426 5.95047C10.4846 2.54826 13.4043 0.0348972 16.8493 0.00466027ZM16.8882 1.2388C13.7572 1.25069 11.2286 3.79852 11.2404 6.92957C11.2489 7.06032 11.2208 7.19085 11.1592 7.30651C11.0727 7.46915 10.925 7.59064 10.7488 7.64412C10.5725 7.69761 10.3822 7.67867 10.2199 7.5915L10.1393 7.54925C7.47206 6.17819 4.18934 7.12302 2.66293 9.71672C2.65465 9.73505 2.64544 9.75294 2.63535 9.77035L2.58988 9.85079C1.113 12.5125 1.98814 15.8744 4.59049 17.4744C4.70478 17.5318 4.80081 17.6199 4.86783 17.7288C5.07002 18.0557 4.97086 18.4845 4.64565 18.6895L4.4843 18.7938L4.41725 18.8399C2.04723 20.4924 1.2798 23.6737 2.66194 26.2326L2.70584 26.3124C2.71794 26.3292 2.7292 26.3466 2.73954 26.3645L2.78612 26.4441C4.34127 29.0526 7.68465 29.976 10.3624 28.5204C10.5723 28.3825 10.8403 28.369 11.0629 28.4851C11.2855 28.6012 11.4279 28.8286 11.435 29.0796L11.4442 29.3187L11.4319 29.0796C11.4396 31.1051 12.5272 32.9726 14.2852 33.9786C16.0431 34.9847 18.2042 34.9765 19.9544 33.9572C21.7047 32.9378 22.7782 31.0622 22.7705 29.0367C22.7528 28.7845 22.8735 28.5426 23.0858 28.4053C23.298 28.2679 23.5682 28.2568 23.791 28.3763L23.8716 28.4185C26.5369 29.7859 29.8152 28.8423 31.3419 26.2526L31.3694 26.1975H31.3725C32.9119 23.5259 32.0476 20.1145 29.422 18.498C29.1974 18.3836 29.0517 18.1574 29.0402 17.9057C29.0288 17.654 29.1535 17.4156 29.3668 17.2814H29.3683C31.9443 15.663 32.7988 12.3091 31.3112 9.65543C31.2996 9.63915 31.2889 9.62227 31.279 9.60486L31.2325 9.52522C29.6794 6.91388 26.333 5.99031 23.6561 7.45054C23.5493 7.52065 23.4253 7.56037 23.2976 7.56545C22.9131 7.57749 22.5915 7.27578 22.579 6.89127V6.88667C22.5671 3.75561 20.0193 1.22699 16.8882 1.2388ZM12.4672 19.5637C12.8181 18.8736 13.6476 18.5788 14.3552 18.8928C15.0628 19.2067 15.4009 20.0196 15.1246 20.7427C14.8779 21.2698 14.8642 21.5808 15.0312 21.9516L16.2999 24.653C16.5481 25.1969 17.0859 25.3808 17.5257 25.4881H17.5241C18.9047 25.8207 19.9021 27.0216 19.9756 28.4397C20.0492 29.8579 19.1813 31.1555 17.8426 31.6292C16.5038 32.1028 15.013 31.6396 14.1784 30.4907C13.3438 29.3419 13.364 27.7809 14.2283 26.6541C14.5822 26.1914 14.6879 25.868 14.5531 25.2873L13.8728 22.3669C13.7793 21.99 13.5863 21.8015 13.0377 21.4843C12.3671 21.0976 12.1164 20.2537 12.4672 19.5637ZM12.9836 14.9378C13.7609 14.8976 14.4334 15.4735 14.5132 16.2478C14.593 17.0221 14.0521 17.7231 13.2829 17.8422C12.7037 17.8897 12.4279 18.0337 12.1889 18.3647L10.4896 20.8163C10.1449 21.3035 10.2536 21.8628 10.3824 22.2979C10.7842 23.6657 10.2382 25.1348 9.04068 25.9081C7.84311 26.6814 6.27946 26.5746 5.1982 25.6456C4.11695 24.7166 3.77585 23.1868 4.36002 21.8865C4.94418 20.5861 6.31432 19.8251 7.72698 20.0164C8.30464 20.093 8.63713 20.0241 9.07076 19.6165L11.2527 17.5648C11.5331 17.2952 11.5974 17.0332 11.5974 16.3988C11.5968 15.6204 12.2062 14.9781 12.9836 14.9378ZM23.8492 20.8806C24.5923 20.0924 25.6841 19.7342 26.7497 19.9291C28.2672 20.2031 29.377 21.5152 29.3954 23.0572C29.4138 24.5991 28.3357 25.9374 26.8251 26.2475C25.3146 26.5577 23.7964 25.7526 23.2057 24.3281C22.9835 23.7873 22.7582 23.5344 22.1883 23.3613L19.3291 22.4925C18.9552 22.3853 18.6978 22.4588 18.1508 22.776C17.8527 22.9502 17.502 23.0116 17.1625 22.9491C16.3887 22.7864 15.8846 22.0378 16.0248 21.2596C16.1649 20.4814 16.8985 19.9557 17.6804 20.0731C18.0241 20.1345 18.3339 20.3185 18.5523 20.591C18.8832 21.0706 19.1468 21.2392 19.5482 21.2775L22.5162 21.5272C23.1091 21.5839 23.5428 21.2085 23.8492 20.8806ZM23.6966 10.0464C24.701 8.90724 26.3687 8.62414 27.6946 9.37447C29.0357 10.1334 29.6504 11.7366 29.1606 13.1976C28.6708 14.6587 27.2139 15.5673 25.6864 15.3645C25.1102 15.2864 24.7777 15.3569 24.3441 15.7645L22.1653 17.8146C21.8849 18.0858 21.8205 18.3463 21.8205 18.9822C21.8212 19.6281 21.397 20.1975 20.7779 20.3818C20.1588 20.566 19.4923 20.3212 19.1397 19.78C18.7871 19.2388 18.8323 18.5302 19.251 18.0383C19.4758 17.7706 19.7898 17.5933 20.1351 17.5388C20.7158 17.4913 20.9916 17.3473 21.226 17.0163L22.9237 14.5647C23.27 14.0759 23.1597 13.5182 23.0325 13.0815C22.7236 12.0407 22.9604 10.9143 23.6623 10.086L23.6966 10.0464ZM16.64 3.53873C17.8689 3.53793 18.9909 4.23714 19.5316 5.34068C20.0723 6.44421 19.9372 7.75936 19.1835 8.72996C18.8342 9.18963 18.7239 9.51293 18.8664 10.1013L19.5467 13.0126C19.6401 13.391 19.8332 13.5795 20.3802 13.8951C21.0509 14.2815 21.3019 15.1252 20.9515 15.8153C20.6012 16.5055 19.7719 16.8008 19.0642 16.4874C18.3565 16.174 18.0178 15.3616 18.2933 14.6383C18.54 14.1112 18.5553 13.7986 18.3868 13.4293L17.1196 10.7265C16.8699 10.1825 16.3336 9.99865 15.8938 9.89293L15.8877 9.89599C14.5053 9.55929 13.5069 8.35659 13.4303 6.93588C13.3537 5.51518 14.217 4.2121 15.5552 3.72873C15.9029 3.60256 16.2701 3.53825 16.64 3.53873ZM6.59234 9.13323C8.1031 8.82285 9.62162 9.6281 10.2123 11.0528C10.4344 11.5922 10.6612 11.8465 11.2297 12.0197L14.0904 12.8885C14.4627 12.9957 14.7217 12.9206 15.2687 12.6035C15.9417 12.2141 16.8017 12.4198 17.2258 13.0714C17.6499 13.7231 17.4896 14.5928 16.8611 15.0504C16.2325 15.5081 15.3557 15.3936 14.8657 14.79C14.5347 14.3104 14.2727 14.1418 13.8697 14.1035L10.9033 13.8538C10.3103 13.7971 9.87671 14.1709 9.57027 14.5004C8.82636 15.2874 7.73526 15.6453 6.66974 15.4519C5.15183 15.1786 4.04131 13.8667 4.02242 12.3245C4.00353 10.7823 5.08159 9.44361 6.59234 9.13323Z" fill="#005EEC"/>
</g>
<defs>
<clipPath id="clip0_202_12591">
<rect width="34" height="37" fill="white"/>
</clipPath>
</defs>
</svg>
