<svg width="32" height="36" viewBox="0 0 32 36" fill="none" xmlns="http://www.w3.org/2000/svg">
<g clip-path="url(#clip0_202_13306)">
<path d="M24.499 27.4479L25.6456 29.4333C25.7268 29.5739 25.6786 29.7538 25.538 29.835L24.947 30.1763C24.8088 30.256 24.632 30.2087 24.5521 30.0705L23.405 28.0838C23.3294 27.9531 23.1674 27.9052 23.0311 27.9701C21.8581 28.5287 20.5722 28.8884 19.2152 29.0003C19.0642 29.0127 18.947 29.1358 18.947 29.2873V31.5715C18.947 31.7315 18.8173 31.8612 18.6573 31.8612H17.9764C17.8135 31.8612 17.6813 31.7291 17.6813 31.5661V29.287C17.6813 29.1364 17.5647 29.014 17.4144 29.0021C16.0564 28.8942 14.7684 28.5395 13.5934 27.9844C13.4548 27.919 13.2905 27.9679 13.2138 28.1006L12.0793 30.0659C11.9979 30.2066 11.8179 30.2548 11.6772 30.1736L11.0868 29.8326C10.9484 29.7528 10.901 29.5757 10.9808 29.4373L12.1177 27.4681C12.1942 27.3356 12.1542 27.169 12.0284 27.0819C10.9353 26.3258 9.98556 25.3779 9.2277 24.286C9.14157 24.1619 8.97704 24.1225 8.84613 24.1981L6.88062 25.3328C6.74076 25.4136 6.56187 25.3657 6.48102 25.2257L6.14374 24.6416C6.0613 24.4989 6.11025 24.3163 6.25294 24.234L8.21206 23.1029C8.34297 23.0274 8.39107 22.8654 8.32617 22.7289C7.76743 21.5529 7.40979 20.2631 7.29961 18.9029C7.28734 18.7515 7.16404 18.6339 7.01215 18.6339H4.74912C4.58618 18.6339 4.45417 18.5018 4.45417 18.3389V17.6572C4.45417 17.4976 4.58349 17.3682 4.74298 17.3682H7.00798C7.1622 17.3682 7.28734 17.2489 7.29986 17.0951C7.4104 15.7372 7.76755 14.4496 8.32506 13.2753C8.39045 13.1376 8.34199 12.9742 8.20998 12.898L6.25024 11.7663C6.10902 11.6847 6.06068 11.5041 6.14227 11.3628L6.48053 10.7769C6.56163 10.6365 6.74112 10.5884 6.88161 10.6695L8.8465 11.8042C8.97704 11.8797 9.14132 11.8404 9.22721 11.7165C9.98568 10.6237 10.9362 9.67505 12.0303 8.91854C12.1551 8.83217 12.1948 8.66703 12.1189 8.53562L10.9811 6.56484C10.9011 6.4262 10.9486 6.24891 11.0872 6.16892L11.6777 5.82796C11.8182 5.74674 11.9978 5.79496 12.079 5.93544L13.2154 7.90389C13.2912 8.03505 13.4535 8.08351 13.5906 8.01873C14.7657 7.46318 16.0538 7.10812 17.4121 6.9999C17.5637 6.98788 17.6813 6.86458 17.6813 6.71256V4.43861C17.6813 4.27408 17.8148 4.1406 17.9795 4.1406H18.6561C18.8167 4.1406 18.947 4.27089 18.947 4.4315V6.71453C18.947 6.86605 19.0642 6.98911 19.2152 7.00162C20.5707 7.11339 21.8553 7.47226 23.0275 8.03001C23.1658 8.09578 23.3304 8.04707 23.4069 7.91432L24.5515 5.9325C24.6318 5.79361 24.8093 5.74601 24.9482 5.82624L25.5368 6.1661C25.6781 6.24769 25.7264 6.42841 25.6448 6.56963L24.501 8.55059C24.4245 8.68298 24.4642 8.84947 24.5897 8.9367C25.1515 9.3271 25.6761 9.76719 26.1556 10.2519C26.5135 10.6138 27.0829 10.6538 27.4732 10.3273L31.3775 7.06149C31.7827 6.72275 31.8208 6.11175 31.4606 5.72564C27.9539 1.96689 22.8581 -0.290009 17.2421 0.0311949C8.72614 0.518154 0.986685 8.11062 0.350902 16.6168C-0.438858 27.1831 7.90031 36.0009 18.2991 36.0009C23.4299 36.0009 28.0577 33.8527 31.3362 30.4082C31.7686 29.954 31.7175 29.2247 31.2366 28.8224L27.3867 25.6021C27.045 25.3164 26.5445 25.3493 26.2346 25.6691C25.7329 26.1869 25.1806 26.6548 24.5866 27.0673C24.4628 27.1532 24.4237 27.3175 24.499 27.4479Z" fill="#248BD2"/>
<path d="M18.3112 19.6957C17.3461 19.6957 16.5637 18.9133 16.5637 17.9482C16.5637 16.9831 17.3461 16.2007 18.3112 16.2007C19.2763 16.2007 20.0587 16.9831 20.0587 17.9482C20.0587 18.9133 19.2763 19.6957 18.3112 19.6957ZM18.6303 12.6137C16.1674 12.4705 14.0413 13.9969 13.2739 16.1657C13.2265 16.2996 13.2861 16.449 13.4092 16.5199L15.4473 17.6968C15.6409 17.8084 15.6409 18.0878 15.4473 18.1996L13.4088 19.3766C13.286 19.4475 13.2265 19.5967 13.2738 19.7304C14.0077 21.8051 15.9851 23.2919 18.3112 23.2919C21.3484 23.2919 23.7939 20.7581 23.6488 17.6889C23.5275 15.1224 21.1954 12.7629 18.6303 12.6137Z" fill="#423B3D"/>
</g>
<defs>
<clipPath id="clip0_202_13306">
<rect width="32" height="36.0009" fill="white"/>
</clipPath>
</defs>
</svg>
