<svg width="37" height="37" viewBox="0 0 37 37" fill="none" xmlns="http://www.w3.org/2000/svg">
<g clip-path="url(#clip0_202_15826)">
<path d="M36.0042 18.0042C36.0042 27.9452 27.9452 36.0042 18.0042 36.0042C8.06309 36.0042 0.00415039 27.9452 0.00415039 18.0042C0.00415039 8.06309 8.06309 0.00415039 18.0042 0.00415039C27.9452 0.00415039 36.0042 8.06309 36.0042 18.0042Z" fill="black"/>
<path d="M12.2121 8.67676L15.6535 12.1181L10.4632 17.3083C9.10926 18.6624 10.4256 19.9786 11.7796 18.6247L19.5273 10.877C24.5672 5.83712 32.5595 13.8294 27.5196 18.8693L25.2066 21.1823L28.4787 24.4543L24.5672 28.3658L18.2486 22.0472L24.0782 16.2176C25.1814 15.1144 23.6206 13.5536 22.5174 14.6568L14.356 22.8183C9.20333 27.294 1.9821 20.148 6.34485 14.8073L12.2121 8.67676Z" fill="white"/>
</g>
<defs>
<clipPath id="clip0_202_15826">
<rect width="37" height="37" fill="white"/>
</clipPath>
</defs>
</svg>
