<svg width="37" height="37" viewBox="0 0 37 37" fill="none" xmlns="http://www.w3.org/2000/svg">
<g clip-path="url(#clip0_202_14840)">
<path d="M36.0031 36.0016H0.00317383V0.00158691H36.0031V36.0016Z" fill="#FA2A00"/>
<path d="M22.7005 19.173C22.1595 22.141 19.6105 24.569 15.6786 24.569C10.9816 24.569 8.15356 21.119 8.15356 17.187C8.15356 13.3341 10.8416 9.80103 15.6376 9.80103C19.7515 9.80103 22.3005 12.389 22.6805 15.619H19.2895C18.9895 13.9741 17.7446 12.7311 15.6786 12.7311C12.9886 12.7311 11.4646 14.858 11.4646 17.187C11.4646 19.654 13.1696 21.6411 15.7185 21.6411C17.6045 21.6411 18.8485 20.5571 19.2495 19.173H22.7005Z" fill="white"/>
<path d="M26.639 10.129L24.567 11.017L27.164 17.09L24.566 23.165L26.639 24.051L28.382 19.9461L28.391 19.965L29.597 17.09L26.639 10.129Z" fill="white"/>
</g>
<defs>
<clipPath id="clip0_202_14840">
<rect width="37" height="37" fill="white"/>
</clipPath>
</defs>
</svg>
