<svg width="37" height="36" viewBox="0 0 37 36" fill="none" xmlns="http://www.w3.org/2000/svg">
<g clip-path="url(#clip0_202_13926)">
<path d="M5.82603 14.7413L0.613151 13.3464C1.85514 8.74483 4.86969 4.8228 8.99689 2.43889L11.6932 7.10531C8.80499 8.77499 6.69547 11.5205 5.82603 14.7413ZM14.7347 5.84703L13.3326 0.634155C14.8504 0.231213 16.4143 0.0281718 17.9846 0.0301659V5.42281C16.8875 5.42298 15.795 5.56558 14.7347 5.84703ZM21.2705 5.84703L22.6654 0.641345C27.2641 1.88059 31.1855 4.88948 33.5729 9.01071L28.8993 11.707C27.2299 8.82302 24.4874 6.71644 21.2705 5.84703ZM0.00196934 18.0056H5.39462C5.39323 19.1028 5.53585 20.1955 5.81884 21.2556L0.60596 22.6505C0.202911 21.1352 -0.00013676 19.5736 0.00196934 18.0056ZM2.41069 26.9933L7.10588 24.297C7.65758 25.2469 8.3294 26.1217 9.10475 26.8999L5.28676 30.7107C4.16951 29.6028 3.20256 28.353 2.41069 26.9933ZM8.99689 33.5723L11.6932 28.9059C13.6033 30.0101 15.7711 30.5905 17.9774 30.5884V35.9811C14.8239 35.9841 11.7256 35.1531 8.99689 33.5723ZM28.8921 24.3114L33.5585 27.0149C31.168 31.1349 27.244 34.1413 22.6438 35.3771L21.2489 30.1642C24.47 29.2999 27.2179 27.1957 28.8921 24.3114ZM35.3633 22.8374L30.1791 21.4138C30.7539 19.2755 30.7539 17.0234 30.1791 14.8851L35.4064 13.4902C36.2148 16.5554 36.2 19.7798 35.3633 22.8374Z" fill="black"/>
</g>
<defs>
<clipPath id="clip0_202_13926">
<rect width="37" height="36" fill="white"/>
</clipPath>
</defs>
</svg>
