<svg width="37" height="37" viewBox="0 0 37 37" fill="none" xmlns="http://www.w3.org/2000/svg">
<g clip-path="url(#clip0_202_13377)">
<path d="M34.5071 18.1218C34.5071 27.2397 27.1155 34.6313 17.9976 34.6313C8.87977 34.6313 1.48828 27.2397 1.48828 18.1218C1.48828 9.00397 8.87977 1.61243 17.9976 1.61243C27.1155 1.61243 34.5071 9.00397 34.5071 18.1218Z" fill="white"/>
<path d="M18.002 36.0056C13.194 36.0056 8.67379 34.1333 5.27408 30.7335C1.87431 27.3338 0.00195312 22.8136 0.00195312 18.0056C0.00195312 13.1976 1.87431 8.67745 5.27408 5.27768C8.67379 1.87791 13.194 0.00561523 18.002 0.00561523C22.8099 0.00561523 27.3301 1.87791 30.7298 5.27768C34.1296 8.67745 36.002 13.1976 36.002 18.0056C36.002 22.8136 34.1296 27.3338 30.7298 30.7335C27.3301 34.1333 22.8099 36.0056 18.002 36.0056ZM18.002 1.96925C13.7185 1.96925 9.69143 3.63733 6.66255 6.66621C3.63367 9.69503 1.96559 13.7222 1.96559 18.0056C1.96559 22.2891 3.63367 26.3161 6.66255 29.345C9.69143 32.3739 13.7185 34.042 18.002 34.042C22.2854 34.042 26.3125 32.3739 29.3414 29.345C32.3702 26.3161 34.0383 22.2891 34.0383 18.0056C34.0383 13.7222 32.3702 9.69503 29.3414 6.66621C26.3125 3.63733 22.2854 1.96925 18.002 1.96925Z" fill="#3C4655"/>
<path d="M12.1775 13.3877C12.1775 12.3944 12.1826 11.4542 12.1736 10.5141C12.1715 10.2984 12.3061 10.2219 12.4579 10.1462C13.1269 9.81214 13.8503 9.64625 14.5686 9.4625C17.5034 8.71191 20.3792 8.9964 23.213 9.96043C23.9555 10.213 23.9493 10.2315 23.9493 11.0055V13.3717C23.8336 13.3876 23.7819 13.3175 23.72 13.2751C22.0516 12.1318 20.239 11.2879 18.3221 10.655C18.0627 10.5693 17.8352 10.573 17.5785 10.6626C15.7299 11.3077 13.9816 12.1507 12.3671 13.2634C12.3197 13.2961 12.2709 13.3266 12.1775 13.3877Z" fill="#3C4655"/>
<path d="M15.2122 6.49888C15.2122 6.11234 15.233 5.72426 15.2055 5.33962C15.1831 5.02538 15.3356 4.86228 15.5871 4.74149C16.1384 4.47669 16.7275 4.34453 17.3284 4.27212C18.3217 4.1524 19.2841 4.3052 20.2134 4.66371C20.7572 4.87347 20.7957 4.94344 20.7957 5.51284C20.7957 6.25628 20.7909 6.99979 20.7988 7.74311C20.8009 7.9415 20.7797 8.01814 20.5395 7.97036C18.8388 7.63226 17.1344 7.62678 15.4346 7.98083C15.2218 8.02516 15.2063 7.94775 15.2095 7.77757C15.2174 7.35146 15.2122 6.92517 15.2122 6.49888Z" fill="#6E717E"/>
<path d="M31.3314 22.1803C30.8073 21.8423 30.3025 21.4737 29.7734 21.1442C28.7059 20.479 27.6203 19.8438 26.407 19.472C26.0393 19.3593 25.6648 19.2476 25.2717 19.3697C24.8848 19.4899 24.5686 19.7265 24.2657 19.9817C23.6202 20.5256 23.0544 21.1527 22.4485 21.7379C22.3772 21.8067 22.3321 21.9246 22.2039 21.9162C22.1679 21.8603 22.1955 21.816 22.2096 21.7693C22.8125 19.7692 23.769 17.9646 25.1853 16.4182C25.3323 16.2577 25.3391 16.1775 25.1659 16.0291C23.1283 14.2837 20.8751 12.9187 18.3099 12.0927C18.1128 12.0292 17.9344 12.0189 17.7378 12.0885C15.1921 12.989 12.8719 14.2797 10.8266 16.0533C10.6697 16.1894 10.6912 16.257 10.8214 16.3954C11.7884 17.424 12.5209 18.6067 13.0685 19.9038C13.306 20.4665 13.5585 21.0262 13.6645 21.6351C13.8833 22.5477 14.0913 24.6739 14.2036 24.7791C12.7307 24.4206 12.4342 24.2587 11.5061 23.8072C10.2887 23.215 9.04624 22.8412 7.66807 22.9246C6.83834 22.9748 6.1381 23.1268 5.35734 23.3907C5.21917 23.4374 4.92653 23.5992 4.98264 23.7151C5.00109 23.7705 5.0149 23.7735 5.03864 23.8265C5.80059 25.53 6.8556 27.0287 8.21931 28.301C10.9977 30.893 14.2898 32.239 18.0937 32.2494C20.5915 32.2562 22.9305 31.5964 25.0841 30.33C28.1477 28.5284 30.2876 25.956 31.4662 22.5926C31.5352 22.3956 31.504 22.2916 31.3314 22.1803ZM18.5582 19.103C18.5177 21.2386 18.2363 22.2529 18.0746 23.7885C18.0622 23.9065 18.0097 24.2142 18.0097 24.2142C18.0097 24.2142 17.9163 23.8214 17.9065 23.7844C17.7359 22.389 17.6027 21.3416 17.442 19.9451C17.313 18.8233 17.2634 17.6914 17.2754 16.5673C17.2824 15.8993 17.544 15.2342 17.6908 14.5677C17.7871 14.1303 17.8615 13.7324 18.002 13.2585C18.1675 14.0757 18.3455 14.9005 18.5487 15.7083C18.8344 16.8442 18.5796 17.9732 18.5582 19.103Z" fill="#3C4655"/>
<path d="M13.6644 21.6897C14.2764 22.4038 15.0418 22.9265 15.8417 23.3969C16.4036 23.7273 16.9966 24.0024 17.6365 24.1566C17.7392 24.1814 18.2657 24.289 18.399 24.3012C18.5763 24.3173 18.6909 24.328 18.944 24.3379C18.3356 24.6034 17.7513 24.8154 17.144 24.923C15.3656 25.1482 13.8066 24.98 12.2142 24.2378C11.2361 23.7819 10.2888 23.2848 9.20518 23.1181C7.83254 22.9068 6.45038 23.0684 5.1589 23.5643C5.09428 23.5891 5.04769 23.6918 4.98253 23.7152C4.72791 23.2199 4.57713 22.6862 4.4035 22.1606C4.36077 22.0314 4.36077 22.0314 4.50442 21.8807C5.93097 20.6362 7.52681 19.812 9.48098 19.9071C10.9151 19.9769 12.1675 20.5283 13.2921 21.3979C13.4168 21.4944 13.5404 21.5924 13.6644 21.6897Z" fill="#777885"/>
</g>
<defs>
<clipPath id="clip0_202_13377">
<rect width="37" height="37" fill="white"/>
</clipPath>
</defs>
</svg>
