<svg width="33" height="33" viewBox="0 0 33 33" fill="none" xmlns="http://www.w3.org/2000/svg">
<path fill-rule="evenodd" clip-rule="evenodd" d="M31.9844 10.9188C31.9865 10.929 31.9886 10.9395 31.9902 10.9504C31.9982 11.0084 32.0022 11.0684 32.0022 11.1294V20.8794C32.0022 20.9394 31.9982 20.9994 31.9902 21.0594C31.9888 21.0684 31.9869 21.0776 31.985 21.0869L31.9819 21.1025L31.9792 21.1184C31.9722 21.1574 31.9652 21.1954 31.9552 21.2334C31.9538 21.2387 31.9523 21.244 31.9506 21.2492C31.9478 21.2581 31.9447 21.2668 31.9417 21.2755L31.9372 21.2884L31.9285 21.3146C31.919 21.3431 31.9093 21.3723 31.8982 21.4014C31.8892 21.4234 31.8782 21.4454 31.8672 21.4674C31.8532 21.4984 31.8382 21.5284 31.8202 21.5594C31.8122 21.5733 31.8034 21.5873 31.7945 21.6012L31.7812 21.6224C31.7632 21.6514 31.7442 21.6784 31.7232 21.7054C31.7082 21.7264 31.6922 21.7464 31.6762 21.7654C31.6542 21.7904 31.6312 21.8164 31.6072 21.8394L31.6063 21.8404C31.5886 21.859 31.5719 21.8767 31.5532 21.8934C31.5272 21.9164 31.5012 21.9384 31.4752 21.9594L31.4563 21.974C31.4419 21.985 31.4278 21.996 31.4132 22.0064C31.4092 22.0089 31.4054 22.0119 31.4017 22.0149C31.398 22.0179 31.3942 22.0209 31.3902 22.0234L16.7652 31.7734C16.5342 31.9274 16.2682 32.0044 16.0022 32.0044C15.7362 32.0044 15.4702 31.9274 15.2392 31.7734L0.615197 22.0234C0.611197 22.0209 0.607447 22.0179 0.603697 22.0149C0.599947 22.0119 0.596197 22.0089 0.592197 22.0064C0.570197 21.9914 0.550197 21.9754 0.530197 21.9594C0.503197 21.9384 0.477197 21.9164 0.452197 21.8934C0.433197 21.8764 0.415197 21.8584 0.397197 21.8394C0.373197 21.8164 0.350197 21.7904 0.329197 21.7654C0.312197 21.7464 0.296197 21.7264 0.281197 21.7054C0.261197 21.6784 0.242197 21.6514 0.224197 21.6224C0.210197 21.6014 0.197197 21.5804 0.184197 21.5594C0.167197 21.5284 0.152197 21.4984 0.137197 21.4674L0.126978 21.4454C0.120088 21.4307 0.113198 21.4161 0.107197 21.4014C0.0945894 21.3708 0.0844144 21.3402 0.0744815 21.3103L0.0711973 21.3004L0.0647072 21.2806C0.0595765 21.2651 0.054397 21.2495 0.0501973 21.2334C0.0401973 21.1954 0.0331973 21.1574 0.0261973 21.1184L0.0228938 21.1026C0.0197664 21.0879 0.0166693 21.0734 0.0151972 21.0594C0.00719721 20.9994 0.00219727 20.9394 0.00219727 20.8794V11.1294C0.00219727 11.0684 0.00719721 11.0084 0.0151972 10.9504C0.016674 10.9349 0.0197862 10.9205 0.0229238 10.9059L0.0261973 10.8904C0.0331966 10.8514 0.0401982 10.8124 0.0501973 10.7754C0.0543958 10.7593 0.0595737 10.7437 0.064703 10.7282L0.0711973 10.7084C0.0821973 10.6744 0.0931973 10.6414 0.107197 10.6084C0.11598 10.5859 0.126667 10.5635 0.136471 10.5429L0.137197 10.5414C0.152197 10.5094 0.167197 10.4794 0.184197 10.4504C0.197197 10.4284 0.210197 10.4074 0.224197 10.3864C0.242197 10.3574 0.261197 10.3294 0.281197 10.3024C0.296197 10.2824 0.312197 10.2624 0.329197 10.2434C0.350197 10.2174 0.373197 10.1924 0.397197 10.1684L0.407986 10.1575C0.422421 10.1429 0.436994 10.1282 0.452197 10.1154C0.477197 10.0924 0.503197 10.0704 0.530197 10.0494C0.550197 10.0334 0.570197 10.0174 0.592197 10.0024C0.596197 9.99989 0.599947 9.99689 0.603697 9.99389C0.607439 9.9909 0.611207 9.98789 0.615197 9.98539L15.2392 0.235394C15.7022 -0.0726054 16.3032 -0.0726054 16.7652 0.235394L31.3902 9.98539C31.3942 9.9879 31.398 9.9909 31.4017 9.99389L31.4049 9.99646C31.4076 9.99857 31.4103 10.0006 31.4132 10.0024L31.4277 10.013L31.4396 10.022L31.4752 10.0494C31.5012 10.0704 31.5272 10.0924 31.5532 10.1154C31.5668 10.1268 31.5793 10.1398 31.5919 10.1528L31.6072 10.1684C31.6312 10.1924 31.6542 10.2174 31.6762 10.2434C31.6922 10.2624 31.7082 10.2824 31.7232 10.3024C31.7442 10.3294 31.7632 10.3574 31.7812 10.3864L31.7921 10.4038C31.8018 10.4191 31.8115 10.4345 31.8202 10.4504C31.8382 10.4794 31.8532 10.5094 31.8672 10.5414C31.8782 10.5624 31.8892 10.5854 31.8982 10.6084C31.9112 10.6414 31.9222 10.6744 31.9332 10.7084C31.9358 10.7166 31.9387 10.7248 31.9416 10.7331C31.9465 10.747 31.9514 10.761 31.9552 10.7754C31.9652 10.8124 31.9722 10.8514 31.9792 10.8904L31.9814 10.9036L31.9844 10.9188ZM28.1512 11.1314L17.3772 3.94939V10.3624L23.3392 14.3504L28.1512 11.1314ZM14.6272 3.94939V10.3624L8.6662 14.3504L3.8532 11.1314L14.6272 3.94939ZM6.1932 16.0044L2.7522 13.7034V18.3054L6.1932 16.0044ZM14.6272 28.0594L3.8532 20.8774L8.6662 17.6594L14.6272 21.6464V28.0594ZM11.1392 16.0044L16.0022 19.2574L20.8662 16.0044L16.0022 12.7514L11.1392 16.0044ZM17.3772 28.0594V21.6464L23.3392 17.6594L28.1512 20.8774L17.3772 28.0594ZM25.8122 16.0044L29.2522 18.3054V13.7034L25.8122 16.0044Z" fill="#0B0B0A"/>
</svg>
