<svg width="34" height="37" viewBox="0 0 34 37" fill="none" xmlns="http://www.w3.org/2000/svg">
<g clip-path="url(#clip0_202_14036)">
<path d="M28.6065 4.80095C25.5135 1.70869 21.4016 0.00561523 17.0146 0.00561523C7.97211 0.0116552 0.610347 7.37781 0.603758 16.4247L0.598633 19.2045L2.7591 17.7321C4.22881 16.7307 5.93098 16.2014 7.68237 16.2014C8.2051 16.2014 8.73296 16.2492 9.25093 16.3436C10.8839 16.641 12.3478 17.3803 13.5331 18.4913C13.8047 17.8928 14.1244 17.3111 14.5018 16.7565C14.6567 16.529 14.8203 16.3101 14.9896 16.0965C13.4963 14.8355 11.7026 13.9868 9.74474 13.6302C9.06222 13.5061 8.36726 13.4434 7.6789 13.4434C6.25311 13.4434 4.86411 13.7049 3.54081 14.2212C4.61226 7.65693 10.3138 2.76824 17.0265 2.7633C20.6649 2.7633 24.0848 4.17976 26.6569 6.75112C28.7088 8.80287 30.0215 11.3687 30.4743 14.1989C29.1507 13.6818 27.756 13.4172 26.3218 13.4115L26.1208 13.4106C25.9738 13.4135 25.828 13.4166 25.685 13.4249C25.4345 13.4377 25.1855 13.4604 24.939 13.4889C24.8654 13.497 24.7931 13.5085 24.7203 13.5186C24.5437 13.5424 24.3678 13.5691 24.1937 13.6004C24.1165 13.6145 24.0396 13.6301 23.9631 13.6454C23.7857 13.6815 23.6099 13.7216 23.4358 13.7655C23.3728 13.7816 23.3099 13.7966 23.2475 13.8134C23.0276 13.8729 22.8098 13.9386 22.5951 14.0106C22.5823 14.015 22.569 14.0186 22.5562 14.0228C22.0686 14.1892 21.596 14.3889 21.1392 14.6186C21.1267 14.625 21.1144 14.6316 21.1016 14.638C20.8879 14.7463 20.6785 14.8622 20.4722 14.9841C20.4554 14.9942 20.4382 15.0044 20.4211 15.0147C19.3422 15.6615 18.3767 16.491 17.5632 17.4819C17.5295 17.5227 17.496 17.5633 17.4627 17.6047C17.2862 17.8258 17.1144 18.0518 16.9531 18.2885C16.816 18.4898 16.6888 18.6954 16.5655 18.9031C16.5375 18.9505 16.5098 18.9985 16.4826 19.0462C16.3702 19.2419 16.2627 19.4401 16.1626 19.6407C16.1569 19.6522 16.1513 19.663 16.1456 19.6746C15.9132 20.144 15.7158 20.6267 15.5513 21.1192C15.5513 21.1196 15.5511 21.1197 15.5511 21.1203V21.1208C15.1481 22.3288 14.9526 23.5956 14.9733 24.8773C14.9739 24.9282 14.9739 24.9791 14.9757 25.0301C14.9784 25.1297 14.9834 25.2296 14.989 25.3298C14.9934 25.4094 14.9986 25.4884 15.0044 25.5675C15.0106 25.6519 15.0174 25.7365 15.026 25.821C15.0361 25.9241 15.0483 26.0269 15.0613 26.13C15.0694 26.1955 15.0765 26.2614 15.0862 26.3265C15.1108 26.498 15.1382 26.6692 15.1706 26.8403C15.7266 29.7799 17.3827 32.3429 19.834 34.0575L20.1475 34.2579L20.1501 34.2517C21.5427 35.1571 23.14 35.751 24.7933 35.9754L25.0172 36.0056L26.6798 33.3372L26.082 33.321C21.4816 33.1947 17.7392 29.3478 17.7392 24.7454C17.7392 20.2154 21.2794 16.4536 25.797 16.1811L26.0829 16.1701C27.9143 16.1238 29.7188 16.6647 31.2505 17.7076L33.4011 19.1712L33.4057 16.4057C33.4092 12.0205 31.7048 7.89907 28.6065 4.80095Z" fill="#E0225C"/>
</g>
<defs>
<clipPath id="clip0_202_14036">
<rect width="34" height="37" fill="white"/>
</clipPath>
</defs>
</svg>
