<svg width="41" height="26" viewBox="0 0 41 26" fill="none" xmlns="http://www.w3.org/2000/svg">
<g clip-path="url(#clip0_202_9629)">
<path d="M21.8088 0.249425L1.41384 13.0885C0.45321 13.6695 -0.0162888 14.32 0.00666159 15.0406V16.9947C0.029612 17.716 0.510258 18.3553 1.44925 18.9133L11.5428 24.7394C11.6027 24.7745 11.6696 24.7961 11.7388 24.8026C11.8079 24.8091 11.8776 24.8003 11.9431 24.777C12.0084 24.7537 12.068 24.7164 12.1175 24.6676C12.1669 24.6189 12.2051 24.56 12.2294 24.4948L14.4955 19.0182L9.68908 16.297C9.55052 16.2251 9.43407 16.117 9.35204 15.9842C9.2906 15.8844 9.24968 15.7733 9.23165 15.6575C9.21355 15.5417 9.21879 15.4235 9.24692 15.3097C9.27505 15.1959 9.32555 15.0889 9.39551 14.9948C9.46548 14.9008 9.55348 14.8216 9.65433 14.7619L18.4784 9.35415L22.117 0.49401C22.1316 0.452512 22.1329 0.407517 22.1208 0.365235C22.1088 0.322953 22.0838 0.285467 22.0495 0.257949C22.0154 0.23077 21.9735 0.215269 21.93 0.213608C21.8863 0.212199 21.8435 0.224712 21.8075 0.249425H21.8088Z" fill="#19223C"/>
<path d="M38.5628 7.40142L28.6076 1.36615C28.5499 1.33016 28.4851 1.30696 28.4176 1.29811C28.3502 1.28926 28.2816 1.29498 28.2166 1.31486C28.1515 1.33474 28.0915 1.36834 28.0405 1.41338C27.9895 1.45843 27.9488 1.51387 27.921 1.57599L25.5867 7.05257L30.3243 9.87875C30.4607 9.95284 30.5741 10.0637 30.6534 10.1987C30.7329 10.3343 30.7748 10.4886 30.7748 10.6456C30.7748 10.8027 30.7329 10.957 30.6534 11.0925C30.5748 11.2274 30.461 11.3385 30.3243 11.4138L21.432 16.6465L17.655 25.4378C17.6184 25.4796 17.5997 25.534 17.6029 25.5895C17.6061 25.6449 17.6309 25.6969 17.6721 25.7342C17.6922 25.7525 17.7158 25.7666 17.7415 25.7757C17.7671 25.7847 17.7944 25.7886 17.8216 25.787C17.8487 25.7854 17.8753 25.7784 17.8997 25.7664C17.9242 25.7544 17.946 25.7376 17.9639 25.7171L24.4877 21.7749L27.0627 25.4732C27.119 25.5584 27.1953 25.6284 27.2852 25.677C27.375 25.7257 27.4753 25.7514 27.5774 25.7519H33.7576C33.8703 25.7523 33.9809 25.7215 34.0772 25.6629C34.1735 25.6043 34.2517 25.5203 34.3032 25.4201C34.3561 25.3196 34.3812 25.2068 34.3758 25.0933C34.3704 24.9798 34.3347 24.8699 34.2724 24.7748L30.0836 18.3553L38.5641 13.2275C39.5254 12.6459 40.006 11.9948 40.006 11.2735V9.35482C40.006 8.63353 39.5254 7.98305 38.5635 7.40142H38.5628Z" fill="#67A4AC"/>
</g>
<defs>
<clipPath id="clip0_202_9629">
<rect width="41" height="26" fill="white"/>
</clipPath>
</defs>
</svg>
