<svg width="41" height="20" viewBox="0 0 41 20" fill="none" xmlns="http://www.w3.org/2000/svg">
<g clip-path="url(#clip0_202_13365)">
<path d="M9.45515 11.4935H5.82277C5.2976 11.4935 4.94749 11.6248 4.68491 12.1062C3.72211 14.1194 2.71555 16.1325 1.70898 18.1456C1.35887 18.8458 1.62145 19.1959 2.54049 19.1959H9.23633C10.0241 19.1959 10.5055 18.8896 10.8118 18.2331C11.7309 16.2638 12.6499 14.2506 13.6565 12.2813C14.0066 11.5811 13.7002 11.4498 13 11.4498C11.8184 11.4935 10.6368 11.4935 9.45515 11.4935ZM31.9497 10.5307C30.8556 8.0362 30.7681 5.6292 31.7309 3.17843C31.9934 2.52198 31.7309 2.47822 31.1182 2.39069C28.7112 2.04058 29.3239 5.01651 27.3545 5.19156C27.0482 5.23533 26.9606 5.54167 26.9606 5.84802C27.0482 6.98587 26.3479 8.47384 28.3611 8.91148C28.5799 8.95524 28.8425 9.26159 28.93 9.4804C29.4989 10.8371 30.5492 10.8371 31.9497 10.5307ZM0.00219727 1.16531C3.63458 3.39725 7.66084 2.91585 11.6871 2.82833C11.2932 1.55918 10.5055 1.12154 9.2801 1.16531H0.00219727ZM24.2473 7.02964V2.2594C24.2473 1.95305 24.291 1.60294 23.8096 1.55918C23.4595 1.55918 23.3282 1.86552 23.372 2.12811C23.4595 3.39725 22.8468 4.57887 22.9344 5.89178C23.0657 7.77362 22.8906 9.65546 23.3282 11.4935C23.4158 11.7999 23.2407 12.325 23.7221 12.3688C24.291 12.4126 24.2473 11.8874 24.2473 11.4935V7.02964ZM26.0854 6.94211V2.82833C26.0854 2.52198 26.0416 2.12811 25.6477 2.12811C25.2538 2.12811 25.2101 2.52198 25.2101 2.87209V11.231C25.2101 11.5373 25.2538 11.9312 25.6477 11.9312C26.0416 11.9312 26.0854 11.5373 26.0854 11.1872V6.94211ZM35.5821 5.10404H38.0328C38.3392 5.10404 38.6455 5.01651 38.6455 4.6664C38.6455 4.44758 38.4267 4.27253 38.1641 4.27253H33.0875C32.7812 4.27253 32.5186 4.44758 32.5624 4.75393C32.6061 5.01651 32.8687 5.06027 33.1313 5.06027C33.919 5.10404 34.7506 5.10404 35.5821 5.10404ZM36.9387 5.89178H34.6193C34.2692 5.89178 33.8753 5.93555 33.919 6.32942C33.9628 6.67953 34.3129 6.67953 34.5755 6.67953H39.3457C39.6521 6.67953 40.0022 6.63576 40.0022 6.28566C40.0022 5.97931 39.7396 5.84802 39.3895 5.84802C38.558 5.89178 37.7703 5.89178 36.9387 5.89178ZM35.8884 7.68609H33.5689C33.3064 7.68609 32.9125 7.68609 32.8687 7.99244C32.8687 8.34255 33.1751 8.47384 33.5689 8.47384H38.3829C38.7331 8.47384 38.9956 8.29878 38.9956 8.0362C38.9956 7.72986 38.6455 7.64233 38.3392 7.64233C37.5514 7.68609 36.7199 7.68609 35.8884 7.68609Z" fill="#57ABDF"/>
<path d="M21.9716 0.815186C21.9716 4.75392 22.0153 8.34254 22.0153 12.0625C22.0153 12.4126 22.1466 12.9377 21.6652 12.9377C21.0088 12.9815 21.1401 12.3688 21.1838 12.0187C21.3589 10.8808 20.9212 10.5745 19.6083 10.6182C15.0569 10.7058 10.5055 10.6182 5.95406 10.6182C3.59082 10.6182 1.97157 9.21781 1.9278 7.29221C1.88404 5.23532 3.63459 3.74735 6.08535 3.70359C10.593 3.70359 15.1007 3.65982 19.6083 3.74735C20.8337 3.74735 21.4464 3.5723 21.1838 2.34691C21.0963 1.82175 21.1401 1.25282 21.4026 0.815186H21.9716Z" fill="#57ABDF"/>
<path d="M9.45537 11.4934H12.9565C13.6567 11.4934 13.963 11.5809 13.6129 12.3249C12.6501 14.2943 11.7311 16.3074 10.7683 18.2768C10.4619 18.8895 9.98053 19.1958 9.19278 19.1958H2.49694C1.62167 19.1958 1.31532 18.8457 1.66543 18.1455C2.672 16.1324 3.67856 14.1192 4.64136 12.1061C4.86018 11.6247 5.21029 11.4934 5.77922 11.4934C7.04836 11.4934 8.27375 11.4934 9.45537 11.4934Z" fill="#7BCD33"/>
<path d="M31.9495 10.5308C30.5491 10.8372 29.4988 10.8372 28.9736 9.48049C28.8861 9.26168 28.6235 8.95533 28.4047 8.91157C26.3915 8.43017 27.0918 6.98596 27.0042 5.84811C26.9605 5.54176 27.0918 5.23542 27.3981 5.19165C29.3237 5.06036 28.711 2.04067 31.1618 2.39078C31.7745 2.47831 32.0371 2.52207 31.7745 3.17852C30.7679 5.62929 30.8554 8.03629 31.9495 10.5308Z" fill="#7BCD33"/>
<path d="M0.00219727 1.16528C3.10942 1.16528 6.17287 1.20905 9.2801 1.16528C10.5492 1.16528 11.337 1.55916 11.6871 2.8283C7.66084 2.91583 3.63458 3.39723 0.00219727 1.16528Z" fill="#7BCD33"/>
<path d="M24.247 7.02972V11.5374C24.247 11.9313 24.2908 12.4564 23.7219 12.4127C23.2405 12.3689 23.4155 11.8875 23.328 11.5374C22.8466 9.69931 23.0216 7.81747 22.9341 5.93563C22.8466 4.62272 23.4593 3.4411 23.3718 2.17196C23.3718 1.90937 23.4593 1.60303 23.8094 1.60303C24.2908 1.60303 24.247 1.9969 24.247 2.30325V7.02972Z" fill="#7BCD33"/>
<path d="M26.0855 6.94218V11.1873C26.0855 11.4936 26.0417 11.9312 25.6478 11.9312C25.254 11.9312 25.2102 11.5374 25.2102 11.231V2.87216C25.2102 2.56581 25.254 2.17194 25.6478 2.12817C26.0417 2.12817 26.0855 2.52205 26.0855 2.82839V6.94218Z" fill="#7BCD33"/>
<path d="M35.5823 5.10391H33.1316C32.9128 5.10391 32.6064 5.06014 32.5627 4.79756C32.5189 4.49122 32.7815 4.31616 33.0878 4.31616H38.1644C38.427 4.31616 38.6896 4.49122 38.6458 4.71004C38.6458 5.01638 38.3395 5.10391 38.0331 5.14767C37.2016 5.10391 36.4139 5.10391 35.5823 5.10391Z" fill="#57ABDF"/>
<path d="M36.9388 5.8918H39.3896C39.6959 5.8918 40.0023 6.02309 40.0023 6.32944C40.0023 6.67955 39.6522 6.72331 39.3458 6.72331H34.5756C34.2692 6.72331 33.9191 6.67955 33.9191 6.3732C33.8754 5.93556 34.2692 5.93556 34.6193 5.93556C35.4071 5.84804 36.1511 5.8918 36.9388 5.8918Z" fill="#57ABDF"/>
<path d="M35.8886 7.68604H38.3394C38.6457 7.68604 38.9958 7.77356 38.9958 8.07991C38.9958 8.34249 38.6895 8.51755 38.3831 8.51755H33.5691C33.1752 8.51755 32.8689 8.38625 32.8689 8.03614C32.8689 7.68604 33.2628 7.7298 33.5691 7.7298C34.3569 7.68604 35.1008 7.68604 35.8886 7.68604Z" fill="#57ABDF"/>
</g>
<defs>
<clipPath id="clip0_202_13365">
<rect width="41" height="20" fill="white"/>
</clipPath>
</defs>
</svg>
