<svg width="36" height="37" viewBox="0 0 36 37" fill="none" xmlns="http://www.w3.org/2000/svg">
<g clip-path="url(#clip0_202_14144)">
<path d="M8.06138 3.98297C8.06138 6.18045 6.29809 7.96032 4.1238 7.96032C1.94786 7.96032 0.18457 6.18045 0.18457 3.98297C0.18457 1.78548 1.94786 0.00561523 4.1238 0.00561523C6.29809 0.00561523 8.06138 1.78548 8.06138 3.98297ZM8.06138 18.0064C8.06138 20.2023 6.29809 21.9838 4.1238 21.9838C1.94786 21.9838 0.18457 20.2023 0.18457 18.0064C0.18457 15.809 1.94786 14.0291 4.1238 14.0291C6.29809 14.0291 8.06138 15.809 8.06138 18.0064ZM8.06138 32.0283C8.06138 34.2257 6.29809 36.0056 4.1238 36.0056C1.94786 36.0056 0.18457 34.2257 0.18457 32.0283C0.18457 29.8308 1.94786 28.0509 4.1238 28.0509C6.29809 28.0509 8.06138 29.8308 8.06138 32.0283Z" fill="#F44A6A"/>
<path d="M16.9688 0.00561523C14.7945 0.00561523 13.0312 1.78548 13.0312 3.98297C13.0312 6.18045 14.7945 7.96032 16.9688 7.96032H31.8839C34.0582 7.96032 35.8198 6.18045 35.8198 3.98297C35.8198 1.78548 34.0582 0.00561523 31.8822 0.00561523H16.9672H16.9688Z" fill="url(#paint0_linear_202_14144)"/>
<path d="M16.9688 14.0275C14.7945 14.0275 13.0312 15.809 13.0312 18.0048C13.0312 20.2023 14.7945 21.9838 16.9688 21.9838H25.4837C27.658 21.9838 29.4213 20.2023 29.4213 18.0065C29.4213 15.809 27.658 14.0291 25.4837 14.0291H16.9688V14.0275Z" fill="url(#paint1_linear_202_14144)"/>
</g>
<defs>
<linearGradient id="paint0_linear_202_14144" x1="13.0308" y1="3.98281" x2="35.8203" y2="3.98281" gradientUnits="userSpaceOnUse">
<stop stop-color="#0AA1A5"/>
<stop offset="1" stop-color="#50D690"/>
</linearGradient>
<linearGradient id="paint1_linear_202_14144" x1="13.0309" y1="18.0055" x2="29.4216" y2="18.0055" gradientUnits="userSpaceOnUse">
<stop stop-color="#0AA1A5"/>
<stop offset="1" stop-color="#50D690"/>
</linearGradient>
<clipPath id="clip0_202_14144">
<rect width="36" height="37" fill="white"/>
</clipPath>
</defs>
</svg>
