<svg width="37" height="37" viewBox="0 0 37 37" fill="none" xmlns="http://www.w3.org/2000/svg">
<g clip-path="url(#clip0_202_12043)">
<path d="M3.97059 7.94166C6.1624 7.94166 7.93922 6.16484 7.93922 3.97303C7.93922 1.78121 6.1624 0.00439453 3.97059 0.00439453C1.77877 0.00439453 0.00195312 1.78121 0.00195312 3.97303C0.00195312 6.16484 1.77877 7.94166 3.97059 7.94166Z" fill="#3E8DCC"/>
<path d="M18.002 7.94166C20.1938 7.94166 21.9706 6.16484 21.9706 3.97303C21.9706 1.78121 20.1938 0.00439453 18.002 0.00439453C15.8101 0.00439453 14.0333 1.78121 14.0333 3.97303C14.0333 6.16484 15.8101 7.94166 18.002 7.94166Z" fill="#3E8DCC"/>
<path d="M32.0333 7.94166C34.2251 7.94166 36.002 6.16484 36.002 3.97303C36.002 1.78121 34.2251 0.00439453 32.0333 0.00439453C29.8415 0.00439453 28.0647 1.78121 28.0647 3.97303C28.0647 6.16484 29.8415 7.94166 32.0333 7.94166Z" fill="#3E8DCC"/>
<path d="M18.002 21.973C20.1938 21.973 21.9706 20.1962 21.9706 18.0044C21.9706 15.8126 20.1938 14.0358 18.002 14.0358C15.8101 14.0358 14.0333 15.8126 14.0333 18.0044C14.0333 20.1962 15.8101 21.973 18.002 21.973Z" fill="#3E8DCC"/>
<path d="M32.0333 21.973C34.2251 21.973 36.002 20.1962 36.002 18.0044C36.002 15.8126 34.2251 14.0358 32.0333 14.0358C29.8415 14.0358 28.0647 15.8126 28.0647 18.0044C28.0647 20.1962 29.8415 21.973 32.0333 21.973Z" fill="#3E8DCC"/>
<path d="M32.0333 36.0044C34.2251 36.0044 36.002 34.2276 36.002 32.0358C36.002 29.8439 34.2251 28.0671 32.0333 28.0671C29.8415 28.0671 28.0647 29.8439 28.0647 32.0358C28.0647 34.2276 29.8415 36.0044 32.0333 36.0044Z" fill="#3E8DCC"/>
</g>
<defs>
<clipPath id="clip0_202_12043">
<rect width="37" height="37" fill="white"/>
</clipPath>
</defs>
</svg>
