<svg width="37" height="28" viewBox="0 0 37 28" fill="none" xmlns="http://www.w3.org/2000/svg">
<g clip-path="url(#clip0_202_13890)">
<path d="M15.8283 13.688L10.0117 9.43368L15.496 18.6071L36.0034 1.65596L15.8283 13.688ZM13.333 24.9379C7.29288 24.9379 2.39644 20.0415 2.39644 14.0013C2.39644 7.9613 7.29288 3.06472 13.333 3.06472C16.0076 3.06472 18.4567 4.02617 20.357 5.62045L21.8901 3.79119C19.5729 1.84606 16.5881 0.671692 13.333 0.671692C5.98296 0.671692 0.00341797 6.65137 0.00341797 14.0013C0.00341797 21.3514 5.98296 27.3311 13.333 27.3311C17.1447 27.3311 20.5852 25.7203 23.0169 23.1467L21.282 21.5083C19.2882 23.6188 16.4655 24.9379 13.333 24.9379ZM13.333 21.7678C9.04367 21.7678 5.56657 18.2907 5.56657 14.0014C5.56657 9.71202 9.04367 6.23477 13.333 6.23477C15.2323 6.23477 16.9706 6.91877 18.32 8.05095L19.4709 6.6776C17.8089 5.28231 15.6678 4.43996 13.333 4.43996C8.06084 4.43996 3.77162 8.72918 3.77162 14.0014C3.77162 19.2734 8.06084 23.5626 13.333 23.5626C16.0671 23.5626 18.5351 22.4073 20.2792 20.5613L18.9741 19.3288C17.5583 20.8275 15.5576 21.7678 13.333 21.7678Z" fill="url(#paint0_radial_202_13890)"/>
</g>
<defs>
<radialGradient id="paint0_radial_202_13890" cx="0" cy="0" r="1" gradientUnits="userSpaceOnUse" gradientTransform="translate(13.9342 14.7768) scale(15.7604 11.6712)">
<stop stop-color="#20A4C1"/>
<stop offset="0.488799" stop-color="#008490"/>
<stop offset="1" stop-color="#1FA4BF"/>
</radialGradient>
<clipPath id="clip0_202_13890">
<rect width="37" height="28" fill="white"/>
</clipPath>
</defs>
</svg>
