<svg width="32" height="37" viewBox="0 0 32 37" fill="none" xmlns="http://www.w3.org/2000/svg">
<g clip-path="url(#clip0_202_14937)">
<path d="M15.6831 26.0934L15.7971 35.5818L16.0022 36.0041L31.5875 27.0016L22.7614 21.8979L16.0022 25.7967L15.6831 26.0934Z" fill="#A3BAF0"/>
<path d="M0.416992 27.0014L16.0023 36.0039V25.8063L9.25291 21.9076V14.11L9.25291 13.7292L0.992388 9.00635H0.416992V27.0014Z" fill="#4474E1"/>
<path d="M0.749634 9.19898C2.00878 9.92627 6.53474 12.5405 8.97428 13.9496C9.06716 14.0032 9.25291 14.1105 9.25291 14.1105L16.0023 10.2117L22.7615 14.1105L31.5876 9.00684L16.0023 0.00439453L0.416992 9.00684C0.416992 9.00684 0.536524 9.07589 0.749634 9.19898Z" fill="#C7D6F7"/>
</g>
<defs>
<clipPath id="clip0_202_14937">
<rect width="32" height="37" fill="white"/>
</clipPath>
</defs>
</svg>
