<svg width="37" height="37" viewBox="0 0 37 37" fill="none" xmlns="http://www.w3.org/2000/svg">
<g clip-path="url(#clip0_202_12387)">
<path d="M36.0022 18.0044C36.0022 27.9455 27.9433 36.0044 18.0022 36.0044C8.06099 36.0044 0.00219727 27.9455 0.00219727 18.0044C0.00219727 8.06319 8.06099 0.00439453 18.0022 0.00439453C27.9433 0.00439453 36.0022 8.06319 36.0022 18.0044Z" fill="#237DAC"/>
<path d="M18.1826 8.54468C18.1826 8.54468 23.785 17.667 23.785 20.99C23.785 23.6392 22.546 26.8266 18.1826 26.8266C13.8191 26.8266 12.5781 23.6374 12.5781 20.9883C12.5781 17.7795 18.1826 8.54468 18.1826 8.54468Z" fill="white"/>
<path d="M14.1395 11.6085C14.1395 11.6085 17.6655 17.35 17.6655 19.4415C17.6655 21.1089 16.8858 23.115 14.1395 23.115C11.3931 23.115 10.6121 21.1077 10.6121 19.4403C10.6121 17.4208 14.1395 11.6085 14.1395 11.6085Z" fill="#61AAD4"/>
</g>
<defs>
<clipPath id="clip0_202_12387">
<rect width="37" height="37" fill="white"/>
</clipPath>
</defs>
</svg>
