<svg width="37" height="30" viewBox="0 0 37 30" fill="none" xmlns="http://www.w3.org/2000/svg">
<g clip-path="url(#clip0_202_15541)">
<path d="M14.2914 1.797C14.3242 1.99347 14.2259 2.1572 13.8985 2.32093C13.4728 2.09171 12.5559 1.96073 11.8027 2.02622C10.9841 2.09171 10.2964 2.35368 10.3947 2.91036C10.5256 3.46704 11.3115 3.7945 12.7196 3.66351C16.1579 3.3688 16.1252 1.04384 21.1681 0.585399C25.0976 0.225194 27.2915 1.43679 27.5863 2.91036C27.8155 4.05646 26.8658 5.16982 24.017 5.39905C21.4955 5.62827 20.022 4.9406 19.891 4.25294C19.8255 3.89274 20.022 3.3688 21.2336 3.23782C21.3645 3.7945 22.0522 4.38392 23.6895 4.22019C24.8683 4.12196 25.8507 3.69626 25.7197 3.04134C25.5888 2.35368 24.3444 1.96073 22.3797 2.12446C18.3847 2.48466 17.4023 4.67864 13.9967 4.97335C11.5735 5.20257 9.60876 4.31843 9.34679 3.0086C9.24856 2.51741 9.24856 1.3713 11.8027 1.14208C13.1126 1.04384 14.1604 1.27306 14.2914 1.797ZM1.52053 15.4848C0.407165 16.8929 -0.0840237 18.5301 0.014214 20.1347C0.112452 21.7392 0.898353 23.0491 2.1427 24.0642C3.45253 25.0793 4.86061 25.374 6.46516 25.0793C7.08733 24.9811 7.77499 24.6536 8.39716 24.4572C7.08733 24.4572 5.97397 24.0315 4.86061 23.1473C3.64901 22.2632 2.83036 21.0188 2.63389 19.5125C2.33917 18.1045 2.63389 16.7946 3.41979 15.6485C4.30393 14.5352 5.45003 13.913 6.95634 13.7165C8.46266 13.6183 9.77249 14.0112 11.0823 14.9281C10.7876 14.5024 10.3619 14.2077 9.96897 13.8147C8.65913 12.9306 7.25106 12.5049 5.51552 12.9306C3.94372 13.2581 2.63389 14.0767 1.52053 15.4848ZM19.0723 7.92048C14.8481 7.92048 11.0823 7.49478 8.36442 6.90536C5.45003 6.18495 3.91098 5.39905 3.91098 4.38392C3.91098 3.95823 4.10745 3.59802 4.69688 3.17233C2.86311 3.89274 1.88073 4.48216 1.88073 5.39905C1.97897 6.41417 3.61626 7.42929 6.95634 8.21519C10.0999 9.00109 14.1277 9.42679 18.9741 9.42679C23.9187 9.42679 27.8482 9.00109 30.9918 8.21519C34.3319 7.42929 35.9365 6.38142 35.9365 5.39905C35.9365 4.67864 35.2161 3.99097 33.9062 3.46704C34.2009 3.66351 34.4301 3.99097 34.4301 4.35118C34.4301 5.3663 32.9238 6.18495 29.8785 6.87261C27.0623 7.49478 23.4603 7.92048 19.0723 7.92048ZM31.1228 10.7366C27.9792 11.457 23.9515 11.9482 19.1051 11.9482C14.1604 11.9482 10.1327 11.4243 6.98909 10.7366C4.17294 10.0162 2.66663 9.23032 2.1427 8.41167C2.66663 11.9482 3.87823 15.2883 5.48278 18.2354C6.69438 20.0692 7.90597 21.6738 9.11757 23.4093C9.64151 24.4244 10.0017 25.4395 10.2309 26.4547C11.0168 27.568 12.1629 28.2884 13.571 28.6814C15.3065 29.3035 17.1076 29.5655 18.9413 29.4673H19.1378C20.9716 29.5655 22.9036 29.2708 24.6719 28.6814C25.9817 28.2557 27.0951 27.568 27.9137 26.4547H28.012C28.2084 25.4395 28.5359 24.4244 29.0271 23.4093C30.2387 21.6738 31.4503 20.0692 32.6619 18.2354C34.2664 15.3211 35.3798 11.981 36.002 8.41167C35.347 9.32855 33.8407 10.1145 31.1228 10.7366Z" fill="#28334C"/>
</g>
<defs>
<clipPath id="clip0_202_15541">
<rect width="37" height="30" fill="white"/>
</clipPath>
</defs>
</svg>
