<svg width="37" height="32" viewBox="0 0 37 32" fill="none" xmlns="http://www.w3.org/2000/svg">
<g clip-path="url(#clip0_202_8903)">
<mask id="mask0_202_8903" style="mask-type:alpha" maskUnits="userSpaceOnUse" x="0" y="0" width="37" height="32">
<path d="M0.031984 2.03588C-0.154228 1.10692 0.556247 0.239899 1.50371 0.239899H10.7522C11.4729 0.239899 12.0918 0.752093 12.2267 1.46004L12.4231 2.4914H34.5006C35.4577 2.4914 36.1704 3.37511 35.9675 4.3105L33.8518 14.067C33.7022 14.7574 33.0913 15.2499 32.385 15.2499H14.8533L15.5681 19.0024H30.0319C30.9855 19.0024 31.6974 19.8801 31.5006 20.8132L29.4425 30.5697C29.296 31.264 28.6834 31.7609 27.9738 31.7609H7.22026C6.505 31.7609 5.8891 31.2562 5.74853 30.5549L0.031984 2.03588Z" fill="url(#paint0_linear_202_8903)"/>
</mask>
<g mask="url(#mask0_202_8903)">
<path d="M35.9672 4.3105C36.17 3.37511 35.4574 2.49139 34.5003 2.49139H0.712891L3.10547 15.2499H32.3846C33.091 15.2499 33.7018 14.7573 33.8515 14.067L35.9672 4.3105Z" fill="url(#paint1_linear_202_8903)"/>
<path d="M31.5005 20.8132C31.6973 19.8801 30.9854 19.0024 30.0318 19.0024H5.53633C4.60016 19.0024 3.8924 19.85 4.05942 20.7712L5.82843 30.5277C5.95789 31.2418 6.57968 31.7609 7.30538 31.7609H27.9737C28.6833 31.7609 29.2959 31.264 29.4424 30.5697L31.5005 20.8132Z" fill="url(#paint2_linear_202_8903)"/>
<g filter="url(#filter0_f_202_8903)">
<path d="M1.50347 0.990387C0.556002 0.990387 -0.154472 1.8574 0.03174 2.78637L5.74827 31.3054C5.88884 32.0067 6.50474 32.5114 7.22 32.5114H17.998L12.2264 2.21055C12.0916 1.50258 11.4726 0.990387 10.7519 0.990387H1.50347Z" fill="black" fill-opacity="0.32"/>
</g>
<g filter="url(#filter1_f_202_8903)">
<path d="M1.50347 0.382507C0.556002 0.382507 -0.154472 1.24953 0.03174 2.17853L5.74827 30.6976C5.88884 31.3989 6.50474 31.9035 7.22 31.9035H17.998L12.2264 1.60266C12.0916 0.894705 11.4726 0.382507 10.7519 0.382507H1.50347Z" fill="black" fill-opacity="0.24"/>
</g>
<path d="M1.50347 0.239899C0.556002 0.239899 -0.154472 1.10692 0.03174 2.03588L5.74827 30.5549C5.88884 31.2562 6.50474 31.7609 7.22 31.7609H17.998L12.2264 1.46004C12.0916 0.752093 11.4726 0.239899 10.7519 0.239899H1.50347Z" fill="url(#paint3_linear_202_8903)"/>
</g>
</g>
<defs>
<filter id="filter0_f_202_8903" x="-7.99805" y="-7.00961" width="33.9961" height="47.521" filterUnits="userSpaceOnUse" color-interpolation-filters="sRGB">
<feFlood flood-opacity="0" result="BackgroundImageFix"/>
<feBlend mode="normal" in="SourceGraphic" in2="BackgroundImageFix" result="shape"/>
<feGaussianBlur stdDeviation="4" result="effect1_foregroundBlur_202_8903"/>
</filter>
<filter id="filter1_f_202_8903" x="-0.758047" y="-0.377493" width="19.5161" height="33.041" filterUnits="userSpaceOnUse" color-interpolation-filters="sRGB">
<feFlood flood-opacity="0" result="BackgroundImageFix"/>
<feBlend mode="normal" in="SourceGraphic" in2="BackgroundImageFix" result="shape"/>
<feGaussianBlur stdDeviation="0.38" result="effect1_foregroundBlur_202_8903"/>
</filter>
<linearGradient id="paint0_linear_202_8903" x1="-4.70437" y1="-7.64036" x2="13.4159" y2="33.7663" gradientUnits="userSpaceOnUse">
<stop stop-color="#FAC240"/>
<stop offset="0.199984" stop-color="#F29800"/>
</linearGradient>
<linearGradient id="paint1_linear_202_8903" x1="36.3617" y1="2.49139" x2="28.9491" y2="24.682" gradientUnits="userSpaceOnUse">
<stop stop-color="#FFED80"/>
<stop offset="1" stop-color="#FFDB00"/>
</linearGradient>
<linearGradient id="paint2_linear_202_8903" x1="31.8825" y1="19.0024" x2="5.16908" y2="34.2645" gradientUnits="userSpaceOnUse">
<stop stop-color="#EA8200"/>
<stop offset="1" stop-color="#C46A08"/>
</linearGradient>
<linearGradient id="paint3_linear_202_8903" x1="-4.70459" y1="-7.64036" x2="13.4157" y2="33.7663" gradientUnits="userSpaceOnUse">
<stop stop-color="#FAC240"/>
<stop offset="0.199984" stop-color="#F29800"/>
</linearGradient>
<clipPath id="clip0_202_8903">
<rect width="37" height="32" fill="white"/>
</clipPath>
</defs>
</svg>
