<svg width="36" height="36" viewBox="0 0 36 36" fill="none" xmlns="http://www.w3.org/2000/svg">
<g clip-path="url(#clip0_202_10351)">
<path d="M33.2134 36.0009H2.78662C1.24762 36.0009 0 34.7533 0 33.2143V2.78754C0 1.24854 1.24762 0.000915527 2.78662 0.000915527H33.2134C34.7524 0.000915527 36 1.24854 36 2.78754V33.2143C36 34.7533 34.7524 36.0009 33.2134 36.0009Z" fill="#26C6DA"/>
<path d="M8.07855 18.3417L15.7779 12.4508C15.9281 12.3359 16.1369 12.337 16.286 12.4534L27.0714 20.8825C27.222 21.0002 27.2218 21.228 27.0711 21.3456L19.5094 27.243C19.3294 27.3833 19.0767 27.3828 18.8974 27.2414L8.07587 18.7108C7.95606 18.6163 7.95733 18.4344 8.07855 18.3417Z" fill="#21AFD0"/>
<path d="M8.07855 20.4642L15.7779 14.5735C15.9281 14.4584 16.1369 14.4595 16.286 14.576L27.0714 23.0051C27.222 23.1228 27.2218 23.3506 27.0711 23.4681L19.5094 29.3655C19.3294 29.506 19.0767 29.5053 18.8974 29.364L8.07587 20.8334C7.95606 20.739 7.95733 20.5569 8.07855 20.4642Z" fill="#21AFD0"/>
<path d="M15.778 14.5735L9.20605 19.6016L18.8975 27.2414C19.0768 27.3827 19.3295 27.3833 19.5095 27.2429L26.0085 22.1744L16.2861 14.576C16.137 14.4595 15.9282 14.4584 15.778 14.5735Z" fill="#1D9CC8"/>
<path d="M10.993 18.482L18.4303 12.6428C18.6062 12.5046 18.6096 12.2391 18.437 12.0965L16.3943 10.4091C16.1741 10.2271 15.857 10.2229 15.6318 10.3988L8.10515 16.2827C7.97619 16.3834 7.97521 16.5782 8.10318 16.6803L10.3568 18.4794C10.5426 18.6278 10.806 18.6288 10.993 18.482Z" fill="#D3FAFF"/>
<path d="M14.1076 16.9598L21.6718 22.8532C21.849 22.9899 21.8546 23.2554 21.6833 23.3994L19.6555 25.1048C19.4368 25.2885 19.1197 25.2956 18.8932 25.1216L11.1703 19.1768C11.0406 19.0771 11.0379 18.8825 11.1649 18.7793L13.4715 16.9679C13.656 16.818 13.9194 16.8146 14.1076 16.9598Z" fill="#D3FAFF"/>
<path d="M22.6692 22.6874L27.0198 19.2938C27.1959 19.1556 27.1993 18.8901 27.0267 18.7475L24.984 17.06C24.7638 16.8782 24.4465 16.8738 24.2215 17.0497L19.7813 20.4882C19.6525 20.5888 19.6515 20.7836 19.7793 20.8858L22.033 22.6849C22.2188 22.8332 22.4823 22.8342 22.6692 22.6874Z" fill="#D3FAFF"/>
<path opacity="0.8" d="M4.59102 19.1307L4.52197 19.0409L4.61169 18.9719L4.68074 19.0616L4.59102 19.1307ZM4.77046 18.9927L4.70141 18.9028L4.79113 18.8338L4.86018 18.9237L4.77046 18.9927ZM4.94989 18.8546L4.88099 18.7648L4.97057 18.6958L5.03961 18.7856L4.94989 18.8546ZM5.12947 18.7165L5.06029 18.6268L5.15 18.5578L5.21919 18.6475L5.12947 18.7165ZM5.30877 18.5784L5.23986 18.4887L5.32958 18.4197L5.39863 18.5095L5.30877 18.5784ZM5.48835 18.4405L5.4193 18.3506L5.50902 18.2817L5.57807 18.3714L5.48835 18.4405ZM5.66778 18.3024L5.59874 18.2127L5.68846 18.1436L5.7575 18.2333L5.66778 18.3024ZM5.84722 18.1643L5.77818 18.0746L5.86789 18.0055L5.93694 18.0954L5.84722 18.1643ZM6.0268 18.0263L5.95761 17.9365L6.04733 17.8674L6.11652 17.9573L6.0268 18.0263ZM6.2061 17.8882L6.13719 17.7985L6.22691 17.7295L6.29596 17.8192L6.2061 17.8882ZM6.38568 17.7501L6.31663 17.6604L6.40635 17.5914L6.47539 17.6812L6.38568 17.7501ZM6.56511 17.6122L6.49607 17.5223L6.58578 17.4534L6.65483 17.5431L6.56511 17.6122ZM6.74455 17.4741L6.6755 17.3844L6.76522 17.3153L6.83427 17.405L6.74455 17.4741ZM6.92413 17.336L6.85494 17.2463L6.94466 17.1772L7.01385 17.267L6.92413 17.336ZM7.10343 17.198L7.03452 17.1083L7.12424 17.0393L7.19314 17.129L7.10343 17.198ZM7.283 17.06L7.21396 16.9702L7.30368 16.9012L7.37272 16.9909L7.283 17.06ZM7.4623 16.9219L7.39339 16.8321L7.46539 16.7767L7.53444 16.8666L7.4623 16.9219Z" fill="white"/>
<path opacity="0.8" d="M15.9021 27.921L15.833 27.8311L15.9227 27.7622L15.9918 27.852L15.9021 27.921ZM16.0815 27.7829L16.0124 27.6932L16.1022 27.6241L16.1712 27.7139L16.0815 27.7829ZM16.2609 27.6448L16.1919 27.5551L16.2816 27.4862L16.3506 27.5759L16.2609 27.6448ZM16.4405 27.5069L16.3713 27.417L16.461 27.3481L16.5302 27.4378L16.4405 27.5069ZM16.6198 27.3688L16.5508 27.279L16.6406 27.21L16.7097 27.2997L16.6198 27.3688ZM16.7994 27.2307L16.7302 27.141L16.8199 27.0719L16.8891 27.1616L16.7994 27.2307ZM16.9788 27.0927L16.9098 27.003L16.9995 26.934L17.0685 27.0237L16.9788 27.0927ZM17.1583 26.9546L17.0892 26.8649L17.1789 26.7959L17.248 26.8856L17.1583 26.9546ZM17.3377 26.8167L17.2686 26.7268L17.3584 26.6578L17.4274 26.7476L17.3377 26.8167ZM17.5171 26.6786L17.4481 26.5889L17.5379 26.5198L17.6069 26.6095L17.5171 26.6786ZM17.6966 26.5405L17.6277 26.4508L17.7174 26.3817L17.7863 26.4714L17.6966 26.5405ZM17.876 26.4024L17.8071 26.3127L17.8968 26.2436L17.9659 26.3333L17.876 26.4024ZM18.0556 26.2644L17.9865 26.1747L18.0763 26.1057L18.1453 26.1954L18.0556 26.2644ZM18.235 26.1263L18.166 26.0366L18.2557 25.9676L18.3247 26.0573L18.235 26.1263ZM18.4145 25.9884L18.3454 25.8985L18.4353 25.8295L18.5042 25.9193L18.4145 25.9884ZM18.5939 25.8503L18.525 25.7604L18.6147 25.6915L18.6836 25.7812L18.5939 25.8503ZM18.7733 25.7122L18.7044 25.6225L18.7764 25.5671L18.8453 25.6568L18.7733 25.7122Z" fill="white"/>
<path opacity="0.8" d="M27.5638 18.8307L27.4946 18.741L27.5843 18.672L27.6535 18.7617L27.5638 18.8307ZM27.7433 18.6926L27.6742 18.6029L27.7639 18.5339L27.833 18.6237L27.7433 18.6926ZM27.9227 18.5547L27.8536 18.4648L27.9434 18.3959L28.0124 18.4856L27.9227 18.5547ZM28.1021 18.4166L28.0331 18.3269L28.1228 18.2578L28.1918 18.3475L28.1021 18.4166ZM28.2816 18.2785L28.2125 18.1888L28.3024 18.1197L28.3713 18.2096L28.2816 18.2785ZM28.4611 18.1405L28.392 18.0507L28.4817 17.9816L28.5509 18.0715L28.4611 18.1405ZM28.6406 18.0024L28.5715 17.9127L28.6613 17.8437L28.7303 17.9334L28.6406 18.0024ZM28.82 17.8644L28.751 17.7746L28.8407 17.7056L28.9096 17.7954L28.82 17.8644ZM28.9995 17.7264L28.9304 17.6365L29.0201 17.5675L29.0892 17.6574L28.9995 17.7264ZM29.1789 17.5883L29.1098 17.4986L29.1997 17.4295L29.2686 17.5193L29.1789 17.5883ZM29.3583 17.4502L29.2894 17.3605L29.3791 17.2914L29.4481 17.3813L29.3583 17.4502ZM29.5378 17.3123L29.4689 17.2224L29.5586 17.1534L29.6276 17.2432L29.5378 17.3123ZM29.7173 17.1742L29.6482 17.0844L29.7379 17.0154L29.8071 17.1051L29.7173 17.1742ZM29.8968 17.0361L29.8277 16.9464L29.9175 16.8773L29.9865 16.967L29.8968 17.0361ZM30.0762 16.8981L30.0072 16.8083L30.097 16.7392L30.1659 16.8291L30.0762 16.8981ZM30.2557 16.76L30.1868 16.6702L30.2763 16.6013L30.3454 16.691L30.2557 16.76ZM30.4351 16.6219L30.3661 16.5322L30.4382 16.4768L30.5071 16.5665L30.4351 16.6219Z" fill="white"/>
<path opacity="0.8" d="M16.2287 9.99418L16.1597 9.90432L16.2494 9.83541L16.3184 9.92513L16.2287 9.99418ZM16.4082 9.85609L16.3391 9.76637L16.4288 9.69732L16.4979 9.78704L16.4082 9.85609ZM16.5876 9.71799L16.5185 9.62827L16.6083 9.55937L16.6773 9.64909L16.5876 9.71799ZM16.7672 9.58004L16.698 9.49032L16.7877 9.42127L16.8567 9.51099L16.7672 9.58004ZM16.9465 9.44195L16.8776 9.35223L16.9673 9.28318L17.0362 9.3729L16.9465 9.44195ZM17.126 9.30385L17.057 9.21413L17.1467 9.14509L17.2158 9.23495L17.126 9.30385ZM17.3055 9.1659L17.2364 9.07618L17.3262 9.00713L17.3952 9.09685L17.3055 9.1659ZM17.4849 9.02781L17.4159 8.93809L17.5056 8.86904L17.5746 8.9589L17.4849 9.02781ZM17.6645 8.88971L17.5953 8.79999L17.685 8.73095L17.7541 8.82081L17.6645 8.88971ZM17.8438 8.75176L17.7747 8.66204L17.8646 8.59299L17.9335 8.68271L17.8438 8.75176ZM18.0232 8.61366L17.9543 8.52395L18.044 8.4549L18.1129 8.54462L18.0232 8.61366ZM18.2027 8.47571L18.1338 8.38585L18.2235 8.31681L18.2925 8.40666L18.2027 8.47571ZM18.3822 8.33762L18.3132 8.2479L18.4029 8.17885L18.472 8.26857L18.3822 8.33762ZM18.5617 8.19952L18.4926 8.10981L18.5824 8.04076L18.6514 8.13048L18.5617 8.19952ZM18.7411 8.06157L18.6721 7.97171L18.7619 7.90266L18.8308 7.99252L18.7411 8.06157ZM18.9206 7.92348L18.8517 7.83362L18.9414 7.76471L19.0103 7.85443L18.9206 7.92348ZM19.1 7.78538L19.0311 7.69566L19.1031 7.64026L19.172 7.72998L19.1 7.78538Z" fill="white"/>
<path opacity="0.8" d="M12.6709 7.61583L12.7408 7.52667L12.8299 7.59656L12.7601 7.68572L12.6709 7.61583ZM12.8491 7.75561L12.919 7.66645L13.0081 7.7362L12.9382 7.82536L12.8491 7.75561ZM13.0274 7.89511L13.0973 7.80609L13.1863 7.87584L13.1164 7.965L13.0274 7.89511ZM13.2056 8.03489L13.2754 7.94574L13.3645 8.01549L13.2947 8.10464L13.2056 8.03489ZM13.3837 8.17439L13.4536 8.08538L13.5428 8.15527L13.4729 8.24428L13.3837 8.17439ZM13.562 8.31417L13.6318 8.22502L13.7209 8.29477L13.6511 8.38406L13.562 8.31417ZM13.7402 8.45381L13.81 8.36466L13.8991 8.43455L13.8294 8.5237L13.7402 8.45381ZM13.9184 8.59345L13.9883 8.5043L14.0773 8.57419L14.0075 8.6632L13.9184 8.59345ZM14.0966 8.73324L14.1664 8.64394L14.2556 8.71383L14.1857 8.80298L14.0966 8.73324ZM14.2747 8.87274L14.3446 8.78372L14.4338 8.85361L14.3639 8.94263L14.2747 8.87274ZM14.453 9.01238L14.5229 8.92336L14.6119 8.99311L14.5421 9.08227L14.453 9.01238ZM14.6312 9.15202L14.7011 9.063L14.7903 9.13289L14.7204 9.22191L14.6312 9.15202ZM14.8094 9.2918L14.8793 9.20264L14.9684 9.27239L14.8985 9.36169L14.8094 9.2918ZM14.9877 9.43144L15.0576 9.34228L15.1466 9.41217L15.0769 9.50133L14.9877 9.43144ZM15.1659 9.57108L15.2358 9.48192L15.3249 9.55181L15.255 9.64097L15.1659 9.57108ZM15.3442 9.71072L15.4139 9.6217L15.5031 9.69145L15.4332 9.78061L15.3442 9.71072ZM15.5224 9.85036L15.5922 9.7612L15.6637 9.81731L15.5938 9.90647L15.5224 9.85036Z" fill="white"/>
<path opacity="0.8" d="M4.56787 13.9401L4.63776 13.8508L4.72692 13.9207L4.65703 14.0099L4.56787 13.9401ZM4.74604 14.0798L4.81593 13.9906L4.90509 14.0604L4.8352 14.1495L4.74604 14.0798ZM4.92436 14.2193L4.99425 14.1303L5.08326 14.2L5.01337 14.2892L4.92436 14.2193ZM5.10253 14.359L5.17242 14.2699L5.26143 14.3396L5.19168 14.4289L5.10253 14.359ZM5.2807 14.4987L5.35059 14.4095L5.43975 14.4794L5.36986 14.5684L5.2807 14.4987ZM5.45901 14.6383L5.52876 14.5492L5.61792 14.6191L5.54803 14.7082L5.45901 14.6383ZM5.63718 14.7781L5.70693 14.6888L5.79609 14.7587L5.72634 14.8479L5.63718 14.7781ZM5.81536 14.9176L5.88525 14.8286L5.97426 14.8983L5.90437 14.9875L5.81536 14.9176ZM5.99353 15.0574L6.06342 14.9682L6.15257 15.038L6.08268 15.1271L5.99353 15.0574ZM6.1717 15.1969L6.24159 15.1079L6.33075 15.1778L6.26086 15.2668L6.1717 15.1969ZM6.35001 15.3367L6.4199 15.2475L6.50892 15.3174L6.43903 15.4064L6.35001 15.3367ZM6.52818 15.4763L6.59807 15.3872L6.68723 15.457L6.61734 15.5461L6.52818 15.4763ZM6.70636 15.616L6.77625 15.5268L6.8654 15.5965L6.79551 15.6858L6.70636 15.616ZM6.88467 15.7556L6.95456 15.6664L7.04357 15.7363L6.97382 15.8255L6.88467 15.7556ZM7.06284 15.8952L7.13273 15.8062L7.22189 15.876L7.152 15.9651L7.06284 15.8952ZM7.24101 16.0349L7.3109 15.9459L7.40006 16.0156L7.33017 16.1048L7.24101 16.0349ZM7.41918 16.1745L7.48907 16.0855L7.56065 16.1415L7.49076 16.2306L7.41918 16.1745Z" fill="white"/>
<path opacity="0.8" d="M19.3794 25.5061L19.4493 25.417L19.5384 25.4867L19.4686 25.5759L19.3794 25.5061ZM19.5576 25.6458L19.6275 25.5566L19.7166 25.6265L19.6467 25.7157L19.5576 25.6458ZM19.7359 25.7854L19.8058 25.6963L19.8948 25.7662L19.8249 25.8552L19.7359 25.7854ZM19.9141 25.9252L19.9839 25.8359L20.073 25.9058L20.0032 25.995L19.9141 25.9252ZM20.0922 26.0647L20.1621 25.9757L20.2513 26.0454L20.1814 26.1346L20.0922 26.0647ZM20.2705 26.2045L20.3403 26.1152L20.4294 26.1851L20.3596 26.2742L20.2705 26.2045ZM20.4487 26.3441L20.5185 26.255L20.6076 26.3247L20.5379 26.4139L20.4487 26.3441ZM20.6269 26.4836L20.6968 26.3946L20.7858 26.4645L20.716 26.5535L20.6269 26.4836ZM20.8051 26.6234L20.8749 26.5343L20.9641 26.604L20.8942 26.6933L20.8051 26.6234ZM20.9832 26.7631L21.0531 26.6739L21.1423 26.7438L21.0724 26.8328L20.9832 26.7631ZM21.1615 26.9027L21.2314 26.8135L21.3204 26.8834L21.2506 26.9724L21.1615 26.9027ZM21.3397 27.0423L21.4096 26.9532L21.4988 27.0231L21.4289 27.1122L21.3397 27.0423ZM21.5179 27.1821L21.5878 27.0928L21.6769 27.1627L21.607 27.2519L21.5179 27.1821ZM21.6962 27.3218L21.7659 27.2326L21.8551 27.3024L21.7853 27.3915L21.6962 27.3218ZM21.8744 27.4613L21.9443 27.3722L22.0333 27.4421L21.9635 27.5312L21.8744 27.4613ZM22.0525 27.601L22.1224 27.5119L22.2116 27.5818L22.1417 27.6708L22.0525 27.601ZM22.2308 27.7407L22.3006 27.6515L22.3722 27.7076L22.3023 27.7967L22.2308 27.7407Z" fill="white"/>
<path opacity="0.8" d="M27.478 19.3931L27.5479 19.3038L27.6371 19.3737L27.5672 19.4628L27.478 19.3931ZM27.6562 19.5327L27.7261 19.4436L27.8152 19.5133L27.7454 19.6025L27.6562 19.5327ZM27.8345 19.6722L27.9044 19.5832L27.9934 19.6529L27.9235 19.7421L27.8345 19.6722ZM28.0127 19.812L28.0826 19.7228L28.1717 19.7926L28.1018 19.8819L28.0127 19.812ZM28.1909 19.9516L28.2607 19.8625L28.3499 19.9324L28.28 20.0215L28.1909 19.9516ZM28.3692 20.0913L28.4389 20.0021L28.5281 20.0719L28.4582 20.1612L28.3692 20.0913ZM28.5473 20.2311L28.6172 20.1418L28.7062 20.2116L28.6365 20.3008L28.5473 20.2311ZM28.7255 20.3706L28.7954 20.2815L28.8846 20.3513L28.8147 20.4404L28.7255 20.3706ZM28.9037 20.5103L28.9736 20.4212L29.0627 20.4909L28.9928 20.5801L28.9037 20.5103ZM29.0819 20.6498L29.1517 20.5608L29.2409 20.6307L29.171 20.7197L29.0819 20.6498ZM29.2602 20.7895L29.3301 20.7005L29.4191 20.7704L29.3492 20.8594L29.2602 20.7895ZM29.4383 20.9291L29.5082 20.8401L29.5974 20.91L29.5275 20.999L29.4383 20.9291ZM29.6165 21.0689L29.6864 20.9797L29.7756 21.0495L29.7057 21.1388L29.6165 21.0689ZM29.7948 21.2085L29.8647 21.1194L29.9537 21.1893L29.884 21.2784L29.7948 21.2085ZM29.973 21.3482L30.0429 21.2592L30.132 21.3289L30.0622 21.4181L29.973 21.3482ZM30.1513 21.4878L30.2211 21.3988L30.3102 21.4686L30.2403 21.5577L30.1513 21.4878ZM30.3295 21.6275L30.3992 21.5384L30.4708 21.5944L30.4009 21.6836L30.3295 21.6275Z" fill="white"/>
</g>
<defs>
<clipPath id="clip0_202_10351">
<rect width="36" height="36.0009" fill="white"/>
</clipPath>
</defs>
</svg>
