<svg width="37" height="36" viewBox="0 0 37 36" fill="none" xmlns="http://www.w3.org/2000/svg">
<g clip-path="url(#clip0_202_11534)">
<mask id="mask0_202_11534" style="mask-type:alpha" maskUnits="userSpaceOnUse" x="0" y="0" width="37" height="36">
<path d="M36.0054 0.0449219C35.5304 9.68128 34.1245 18.5828 30.3712 26.9638C27.4904 33.3968 20.9037 36.7452 13.4755 35.803C7.36996 35.0287 1.77097 29.8062 0.407892 23.6141C-1.11298 16.7049 1.74087 9.47676 7.87007 6.33061C16.5221 1.88935 25.9807 0.625574 36.0054 0.0449219Z" fill="white"/>
</mask>
<g mask="url(#mask0_202_11534)">
<path d="M36.0054 0.0449219C35.5304 9.68128 34.1245 18.5828 30.3712 26.9638C27.4904 33.3968 20.9037 36.7452 13.4755 35.803C7.36996 35.0287 1.77097 29.8062 0.407892 23.6141C-1.11298 16.7049 1.74087 9.47676 7.87007 6.33061C16.5221 1.88935 25.9807 0.625574 36.0054 0.0449219Z" fill="white"/>
<path d="M16.0213 10.755C16.0213 10.755 15.1919 15.3515 14.8618 17.6804C13.1817 16.3709 9.85685 13.9886 9.85685 13.9886C9.85685 13.9886 12.4653 17.4965 13.697 19.0634C11.357 19.3286 6.66645 20.0589 6.66645 20.0589C6.66645 20.0589 11.4637 20.8305 13.6977 21.0887C12.402 22.7294 9.84489 26.0559 9.84489 26.0559C9.84489 26.0559 13.3187 23.6564 14.8796 22.4537C15.198 24.6859 16.0213 29.4402 16.0213 29.4402C16.0213 29.4402 16.7745 24.6898 17.0607 22.3748C18.6039 23.5776 21.8622 26.0899 21.8622 26.0899C21.8622 26.0899 19.5923 22.6921 18.3493 21.0871C20.6072 20.822 25.195 20.0589 25.195 20.0589C25.195 20.0589 20.5624 19.3212 18.3657 19.0672C19.5026 17.5263 21.884 13.9868 21.884 13.9868C21.884 13.9868 18.5468 16.5749 17.0577 17.7668C16.7822 15.4667 16.0213 10.755 16.0213 10.755ZM36.0093 0.109863C35.5343 9.74622 34.1284 18.6477 30.3751 27.0287C27.4943 33.4617 20.9076 36.8102 13.4794 35.868C7.37386 35.0936 1.77487 29.8711 0.411798 23.6791C-1.10907 16.7699 1.74478 9.54171 7.87397 6.39556C16.526 1.95429 25.9847 0.690516 36.0093 0.109863Z" fill="#E21708"/>
<path d="M0.877823 14.6689C1.42561 13.0557 2.22627 11.549 3.26166 10.2217C3.65264 9.74032 4.08721 9.25946 4.57003 8.76357C4.99658 8.35004 5.44818 7.96462 5.92733 7.60732C6.36711 7.28656 6.8519 6.97129 7.37212 6.66445C7.53695 6.57112 7.70431 6.48074 7.8742 6.39359C9.96902 5.31831 12.1108 4.42927 14.2969 3.69105C19.9641 1.77761 25.926 0.877601 32.1218 0.3751C33.6504 0.258576 34.9734 0.18183 36.0095 0.109863C25.4623 2.38464 19.8587 4.62289 13.0343 7.60732C6.20988 10.5918 0.38409 17.0756 0.0751953 18.9321C0.256901 17.2524 0.511739 15.8717 0.877823 14.6689Z" fill="#FA524A" fill-opacity="0.3"/>
<path d="M13.6599 36.5104C12.9974 36.4261 12.3101 36.2976 11.6143 36.1112C9.05077 35.372 6.37202 33.7912 4.23444 31.4849C2.3728 29.4552 0.999176 26.9673 0.411866 24.2994C0.137198 23.0516 0.00527828 21.793 0.00949746 20.5503C0.0860052 31.8066 13.239 33.5465 16.7565 33.5466C22.3402 33.5467 22.2704 32.4346 30.9427 26.3353C30.7591 26.7762 30.5704 27.2134 30.3752 27.6491C28.3445 32.1837 24.4719 35.1857 19.7617 36.2325C18.5255 36.5062 17.2468 36.6452 15.9297 36.6452C15.1843 36.6452 14.427 36.6007 13.6599 36.5104Z" fill="#AE0E10" fill-opacity="0.3"/>
</g>
</g>
<defs>
<clipPath id="clip0_202_11534">
<rect width="37" height="36" fill="white"/>
</clipPath>
</defs>
</svg>
