<svg width="41" height="24" viewBox="0 0 41 24" fill="none" xmlns="http://www.w3.org/2000/svg">
<g clip-path="url(#clip0_202_15227)">
<path d="M31.6232 5.0625H31.6032L23.8432 0.542505L16.1832 5.0025L8.32317 0.442505L0.00317383 5.28251V14.0825L16.0632 23.4425L23.7432 19.0025L31.6232 23.5625L40.0032 18.7225V9.92251L31.6232 5.0625ZM31.5832 14.0825L25.0032 10.2625L31.6432 6.3825L38.2232 10.2425L31.5832 14.0825ZM16.0032 6.3225L22.6432 10.1625L16.0832 13.9825L9.46317 10.1225L16.0032 6.3225ZM30.4432 5.7225L23.9432 9.50251L17.3232 5.6625L23.8432 1.8625L30.4432 5.7225ZM14.9432 5.6025L13.6032 6.3825L8.18317 9.4425L1.72317 5.6025L8.34317 1.7625L14.9432 5.6025ZM1.16317 6.5625L7.66317 10.4825V17.4025L1.16317 13.4425V6.5625ZM8.96317 11.1625L15.4632 15.0225V21.9225L8.96317 18.0625V11.1625ZM24.4232 11.2425L31.0432 15.1425V21.9825L24.4232 18.0425V11.2425Z" fill="black"/>
<path opacity="0.5" d="M8.96333 18.0826L15.4633 21.9026V15.0226L8.96333 11.1626V18.0826ZM1.16333 13.4226L7.66333 17.3826V10.4826L1.16333 6.56262V13.4226ZM24.4233 18.0626L31.0433 22.0026V15.1426L24.4233 11.2426V18.0626Z" fill="black"/>
</g>
<defs>
<clipPath id="clip0_202_15227">
<rect width="41" height="24" fill="white"/>
</clipPath>
</defs>
</svg>
