<svg width="34" height="37" viewBox="0 0 34 37" fill="none" xmlns="http://www.w3.org/2000/svg">
<g clip-path="url(#clip0_202_9656)">
<path d="M16.8241 0.00140381L0.107422 8.01478L16.8241 18.2181L33.8965 8.92378L16.8241 0.00140381Z" fill="#AFD4E5"/>
<path d="M0.107422 23.9904L16.8241 36.0016V18.2183L0.107422 8.01508V23.9904Z" fill="#6699CC"/>
<path d="M16.8242 18.218V36.0013L33.8967 24.8892V8.92377L16.8242 18.218Z" fill="#7DA7D3"/>
<path d="M26.0606 29.9896L26.4587 29.7304L26.1212 13.1567L25.8198 13.3207L26.0606 29.9896Z" fill="#336699"/>
<path d="M22.876 10.8373L27.1652 8.52146C27.1652 8.52146 20.7008 1.46813 13.0873 5.5637C9.5054 7.49054 8.43792 9.42709 10.0236 11.4948C12.6479 14.9174 15.8133 14.5332 15.8133 14.5332L19.941 12.5242C19.941 12.5242 15.4585 13.1155 13.5629 11.5456C12.008 10.2576 12.6609 8.61821 14.8067 7.12435C16.6894 5.81359 20.4367 6.34178 21.7647 7.34429C23.0925 8.34653 23.6084 9.74828 22.876 10.8373Z" fill="#6699CC"/>
</g>
<defs>
<clipPath id="clip0_202_9656">
<rect width="34" height="37" fill="white"/>
</clipPath>
</defs>
</svg>
