<svg width="37" height="37" viewBox="0 0 37 37" fill="none" xmlns="http://www.w3.org/2000/svg">
<g clip-path="url(#clip0_202_15684)">
<path d="M31.155 0.00415039H4.84025C2.16942 0.00415039 0.00463867 2.16893 0.00463867 4.83976V31.1685C0.00463867 33.8394 2.16942 36.0042 4.84025 36.0042H31.169C33.8399 36.0042 36.0046 33.8394 36.0046 31.1685V4.83976C35.9906 2.16893 33.8258 0.00415039 31.155 0.00415039Z" fill="url(#paint0_linear_202_15684)"/>
<path d="M31.0426 0.158813H4.93869C2.29597 0.158813 0.159302 2.29548 0.159302 4.9382V31.0421C0.159302 33.6848 2.31002 35.8355 4.95274 35.8355H31.0566C33.6993 35.8355 35.85 33.6848 35.85 31.0421V4.9382C35.836 2.29548 33.6993 0.158813 31.0426 0.158813Z" fill="#010101"/>
<path opacity="0.3" d="M34.4724 30.3814C34.4724 32.8273 32.4904 34.7953 30.0585 34.7953H5.97884C3.53292 34.7953 1.56494 32.8132 1.56494 30.3814V6.31576C1.56494 3.86984 3.54698 1.90186 5.97884 1.90186H30.0444C32.4904 1.90186 34.4583 3.88389 34.4583 6.31576V30.3814H34.4724Z" fill="url(#paint1_radial_202_15684)"/>
<path opacity="0.3" d="M30.1569 1.35364H5.83829C3.36426 1.35364 1.36816 3.34973 1.36816 5.80971V14.6094C6.18972 15.9308 11.8828 16.7039 17.9976 16.7039C24.0983 16.7039 29.8055 15.9308 34.627 14.6094V5.80971C34.627 3.34973 32.6309 1.35364 30.1569 1.35364Z" fill="url(#paint2_linear_202_15684)"/>
<path opacity="0.64" d="M5.83827 2.66096H30.1569C32.6169 2.66096 34.613 4.65705 34.613 7.11703V5.79567C34.613 3.33569 32.6169 1.3396 30.1569 1.3396H5.83827C3.3783 1.3396 1.3822 3.34975 1.3822 5.80973V7.13109C1.3822 4.65705 3.3783 2.66096 5.83827 2.66096Z" fill="url(#paint3_linear_202_15684)"/>
<path d="M5.58522 35.1326C2.97061 35.1326 0.862061 33.024 0.862061 30.4094V5.58473C0.862061 2.97012 2.97061 0.861572 5.58522 0.861572H30.4099C33.0245 0.861572 35.133 2.97012 35.133 5.58473V30.4094C35.133 33.024 33.0245 35.1326 30.4099 35.1326H5.58522ZM1.19943 5.58473V30.4094C1.19943 32.8272 3.16741 34.7952 5.58522 34.7952H30.4099C32.8277 34.7952 34.7957 32.8272 34.7957 30.4094V5.58473C34.7957 3.16692 32.8277 1.19894 30.4099 1.19894H5.58522C3.16741 1.19894 1.19943 3.16692 1.19943 5.58473Z" fill="url(#paint4_linear_202_15684)"/>
<path d="M30.4099 35.2169H5.58521C2.92843 35.2169 0.77771 33.0521 0.77771 30.4094V5.58472C0.77771 2.92794 2.94249 0.777222 5.58521 0.777222H30.4099C33.0667 0.777222 35.2174 2.942 35.2174 5.58472V30.4094C35.2174 33.0662 33.0667 35.2169 30.4099 35.2169ZM5.58521 0.945906C3.02683 0.945906 0.946394 3.02634 0.946394 5.58472V30.4094C0.946394 32.9678 3.02683 35.0482 5.58521 35.0482H30.4099C32.9683 35.0482 35.0487 32.9678 35.0487 30.4094V5.58472C35.0487 3.02634 32.9683 0.945906 30.4099 0.945906H5.58521ZM30.4099 34.8795H5.58521C3.12523 34.8795 1.11508 32.8694 1.11508 30.4094V5.58472C1.11508 3.12474 3.12523 1.11459 5.58521 1.11459H30.4099C32.8699 1.11459 34.88 3.12474 34.88 5.58472V30.4094C34.88 32.8694 32.8699 34.8795 30.4099 34.8795ZM1.28376 5.58472V30.4094C1.28376 32.771 3.20957 34.6968 5.58521 34.7108H30.4099C32.7715 34.7108 34.7113 32.785 34.7113 30.4094V5.58472C34.7113 3.22314 32.7855 1.29733 30.4099 1.28327H5.58521C3.22363 1.29733 1.29782 3.22314 1.28376 5.58472Z" fill="#010101"/>
<path d="M29.3136 21.8769C26.7271 18.7984 22.763 25.2928 20.6263 26.6844C19.1504 27.6543 16.9012 27.7246 15.3269 26.8109C13.1761 25.5458 13.8368 22.5095 16.1 21.7645C18.1242 21.0897 21.6666 23.2264 22.9458 21.0897C24.5342 18.4611 19.1222 17.8426 17.5197 17.9128C14.6381 18.0253 11.8548 18.9671 10.1539 21.146C8.31241 23.4935 8.73411 26.333 10.7583 28.4697C12.8247 30.4657 15.8188 31.2389 18.813 30.9999C19.5721 30.9437 20.8653 30.6204 21.8493 30.0722C23.8173 28.9898 29.8337 22.4954 29.3136 21.8769ZM10.435 19.5856C11.4331 19.7824 9.49319 14.2018 9.36668 13.4287C9.21205 12.5009 8.87469 11.1936 7.94692 11.053C6.87859 10.8984 6.58339 12.1214 6.79425 13.1897C7.04727 14.2861 9.50725 19.3888 10.435 19.5856ZM18.7146 16.6899C20.2609 16.9148 20.1625 9.47863 20.1625 8.46653C20.1625 7.55282 20.5139 5.03662 19.2909 4.81171C17.6041 4.4884 17.4354 6.7094 17.4073 7.89019C17.4635 9.08504 17.098 16.465 18.7146 16.6899ZM22.3975 17.8847C24.0844 18.5876 25.3776 11.0811 25.5744 10.1253C25.7572 9.14127 25.7993 7.06083 24.1125 7.72151C23.2691 8.05888 23.1144 9.42241 22.9879 10.1815C22.7771 11.1233 21.0902 17.3365 22.3975 17.8847ZM14.2585 17.2522C16.1703 17.3927 14.371 9.84412 14.2163 8.83201C14.0617 7.80585 13.3729 5.75353 11.9532 6.94837C11.2363 7.55282 11.5596 8.94447 11.7001 9.73166C11.8267 10.7438 12.7966 17.1397 14.2585 17.2522Z" fill="white"/>
</g>
<defs>
<linearGradient id="paint0_linear_202_15684" x1="17.9976" y1="0.00415039" x2="17.9976" y2="35.9892" gradientUnits="userSpaceOnUse">
<stop stop-color="#7A7A7A"/>
<stop offset="1"/>
</linearGradient>
<radialGradient id="paint1_radial_202_15684" cx="0" cy="0" r="1" gradientUnits="userSpaceOnUse" gradientTransform="translate(17.7725 24.1317) scale(20.5137 20.5049)">
<stop stop-color="white"/>
<stop offset="0.653161" stop-color="#6B6B6B"/>
<stop offset="1"/>
</radialGradient>
<linearGradient id="paint2_linear_202_15684" x1="17.997" y1="1.34976" x2="17.997" y2="16.7047" gradientUnits="userSpaceOnUse">
<stop stop-color="white"/>
<stop offset="0.2182" stop-color="#FCFCFC"/>
<stop offset="0.3538" stop-color="#F4F4F4"/>
<stop offset="0.4671" stop-color="#E5E5E5"/>
<stop offset="0.5679" stop-color="#D1D1D1"/>
<stop offset="0.6605" stop-color="#B6B6B6"/>
<stop offset="0.7472" stop-color="#959595"/>
<stop offset="0.8292" stop-color="#6E6E6E"/>
<stop offset="0.9075" stop-color="#414141"/>
<stop offset="0.9803" stop-color="#0F0F0F"/>
<stop offset="1"/>
</linearGradient>
<linearGradient id="paint3_linear_202_15684" x1="17.9975" y1="1.3466" x2="17.9975" y2="7.12542" gradientUnits="userSpaceOnUse">
<stop stop-color="white"/>
<stop offset="0.00587422" stop-color="#F7F7F7"/>
<stop offset="0.0362775" stop-color="#D3D3D3"/>
<stop offset="0.0704863" stop-color="#B2B2B2"/>
<stop offset="0.1083" stop-color="#979797"/>
<stop offset="0.151" stop-color="#818181"/>
<stop offset="0.2009" stop-color="#707070"/>
<stop offset="0.2625" stop-color="#646464"/>
<stop offset="0.349" stop-color="#5E5E5E"/>
<stop offset="0.5892" stop-color="#5C5C5C"/>
</linearGradient>
<linearGradient id="paint4_linear_202_15684" x1="17.9969" y1="0.863976" x2="17.9969" y2="35.1293" gradientUnits="userSpaceOnUse">
<stop/>
<stop offset="0.2757" stop-color="#666666"/>
<stop offset="0.3135"/>
<stop offset="0.6216" stop-color="#404040"/>
<stop offset="0.9405" stop-color="#383838"/>
<stop offset="1"/>
</linearGradient>
<clipPath id="clip0_202_15684">
<rect width="37" height="37" fill="white"/>
</clipPath>
</defs>
</svg>
