<svg width="37" height="36" viewBox="0 0 37 36" fill="none" xmlns="http://www.w3.org/2000/svg">
<g clip-path="url(#clip0_202_13976)">
<path d="M20.5277 21.317C21.9046 21.2025 22.928 19.9934 22.8134 18.6164C22.6988 17.2394 21.4897 16.2161 20.1127 16.3307C18.7358 16.4452 17.7124 17.6544 17.827 19.0313C17.9416 20.4083 19.1507 21.4316 20.5277 21.317ZM23.4426 21.2819C22.9029 21.8779 22.2349 22.3437 21.4891 22.6442L21.4833 22.661C22.0488 24.8355 22.9341 26.914 24.1102 28.8284C23.0816 29.3751 21.9617 29.7294 20.8058 29.8738L20.6425 29.895L20.4482 29.9097L20.0589 29.9395C19.82 29.9395 19.586 29.9614 19.3358 29.9469C18.3518 29.9261 17.3763 29.7596 16.4411 29.4526C16.004 29.3128 15.5773 29.142 15.1645 28.9415C14.7905 28.7622 14.4278 28.5603 14.0783 28.3369C13.7805 28.1473 13.4932 27.9416 13.2177 27.7208C12.9643 27.5302 12.7659 27.3371 12.5937 27.1864C12.2645 26.8704 12.0829 26.6795 12.0829 26.6795C12.0829 26.6795 12.2358 26.8918 12.5222 27.2532C12.6733 27.4267 12.8473 27.6485 13.0762 27.8759C13.3259 28.139 13.5898 28.3882 13.8667 28.6226C14.1962 28.9025 14.5423 29.1622 14.9033 29.4001C15.3084 29.6698 15.7321 29.9104 16.1712 30.1201C16.6438 30.3488 17.1321 30.5434 17.6324 30.7025C18.1544 30.8669 18.6878 30.9927 19.2282 31.079C19.4973 31.1313 19.7883 31.1485 20.0694 31.1832L20.4603 31.2064L20.6547 31.2177L20.8781 31.2213C21.4185 31.2268 21.9587 31.1932 22.4944 31.1208C23.4132 30.9944 24.3131 30.7561 25.174 30.4114C25.5019 30.8574 25.8462 31.291 26.2067 31.7124L26.1569 31.7432L25.7265 32.0094L25.6673 32.046L25.6522 32.0553L25.6484 32.0577C25.5761 32.0938 25.7429 32.0112 25.7241 32.0204L25.7163 32.0244L25.6845 32.0406L25.554 32.1069L25.2787 32.2468L25.1341 32.3201L25.06 32.3577L25.0225 32.3767L25.0132 32.3815L25.0084 32.3839C24.9954 32.3894 25.1052 32.3442 25.0564 32.3644L25.037 32.3729L24.7178 32.5131L24.3818 32.6607L24.3387 32.6796L24.3333 32.6819C24.4075 32.6555 24.3509 32.6759 24.3659 32.6705L24.3553 32.6755L24.3331 32.6842L24.2442 32.719L24.0631 32.7897C22.4202 33.422 20.6671 33.7177 18.9077 33.6593L18.679 33.651L18.4206 33.6306L17.9024 33.5891C17.581 33.5382 17.2596 33.516 16.9298 33.4438C15.626 33.208 14.3643 32.7806 13.1856 32.1754C12.8998 32.0326 12.6239 31.8824 12.3624 31.7195C12.0932 31.5681 11.8459 31.3955 11.6018 31.2304C11.1451 30.9151 10.7079 30.5725 10.2927 30.2043C9.93931 29.892 9.60313 29.5608 9.28565 29.2121C8.99161 28.9075 8.77011 28.6124 8.57475 28.3784C8.38469 28.1405 8.25318 27.9401 8.15471 27.8093L8.00775 27.6057L8.13396 27.823C8.21867 27.9628 8.32974 28.1772 8.49566 28.4348C8.66687 28.6889 8.86011 29.009 9.12481 29.3461C9.41099 29.733 9.71794 30.1042 10.0443 30.4579C10.4319 30.8793 10.8448 31.2769 11.2805 31.6484C11.5147 31.8445 11.7538 32.0498 12.0166 32.2357C12.2718 32.4329 12.5434 32.6189 12.8266 32.799C13.408 33.1752 14.0155 33.5095 14.6445 33.7993C15.2993 34.0988 15.9753 34.3498 16.6669 34.5504C17.0102 34.6626 17.3825 34.7315 17.7407 34.8225L18.2532 34.9166L18.5082 34.9632L18.7929 35.0039C19.4945 35.0987 20.202 35.1428 20.9099 35.1359C22.1807 35.1215 23.4444 34.945 24.6705 34.6107L24.8578 34.5587L24.9499 34.5332L25.0785 34.4922L25.428 34.3795L25.7597 34.2724L26.1197 34.1335L26.4077 34.0223L26.5443 33.9694L26.5776 33.9566L26.5859 33.9534L26.6736 33.9101L26.6894 33.9024L26.7521 33.8719L27.2074 33.6508L27.7761 33.3744C28.1626 33.7443 28.5608 34.103 28.9741 34.4461C28.9741 34.4461 30.9428 36.4733 32.0271 35.6395C33.0466 34.8559 31.8722 32.3983 31.8722 32.3983C30.2946 27.9022 27.3464 24.0142 23.4426 21.2819ZM16.5753 17.9501L16.5638 17.9365C14.4277 17.3066 12.2104 16.9947 9.98342 17.0107C10.0495 15.7993 10.3457 14.6115 10.856 13.5108L10.9248 13.3611L11.0149 13.1885L11.1959 12.8426C11.3224 12.64 11.4278 12.4297 11.5727 12.2252C12.1116 11.4016 12.7697 10.6625 13.5255 10.0321C13.8756 9.73539 14.2465 9.46407 14.6352 9.22015C14.9855 8.99819 15.3489 8.7977 15.7236 8.6198C16.0422 8.46765 16.3689 8.33294 16.7021 8.21628C16.9986 8.10266 17.2669 8.03628 17.4857 7.9701C17.9281 7.85744 18.1865 7.8045 18.1865 7.8045C18.1865 7.8045 17.9255 7.82165 17.4671 7.87322C17.24 7.90943 16.9597 7.9395 16.6456 8.01309C16.2901 8.08573 15.9389 8.17763 15.5934 8.28838C15.1815 8.41955 14.7778 8.57559 14.3848 8.75564C13.9415 8.95637 13.513 9.18831 13.1025 9.44971C12.6581 9.72927 12.2342 10.0403 11.8342 10.3803C11.4182 10.736 11.0289 11.1217 10.6694 11.5344C10.4823 11.735 10.3137 11.9727 10.1355 12.1927L9.90867 12.512L9.79611 12.6708L9.67466 12.8583C9.3837 13.3138 9.12602 13.7897 8.90362 14.2823C8.50428 15.1703 8.22032 16.1058 8.05868 17.0659L8.05222 17.1046C7.50925 17.1544 6.96843 17.2239 6.42977 17.313L6.43104 17.0299L6.43326 16.5239V16.4541V16.4322C6.44099 16.3517 6.42268 16.5368 6.42479 16.5161L6.42554 16.5073L6.42861 16.4718L6.44163 16.326L6.46874 16.0189L6.48303 15.8574L6.49034 15.7748L6.49404 15.7331L6.49489 15.7225L6.49542 15.7172C6.49754 15.7033 6.47774 15.8203 6.48652 15.7683L6.48949 15.7471L6.53968 15.4021L6.59262 15.039L6.59939 14.9923L6.60024 14.9864C6.58309 15.0636 6.59611 15.0044 6.59262 15.0202L6.59484 15.0086L6.59918 14.9853L6.61687 14.8914L6.65287 14.7008C6.98693 12.9724 7.66495 11.3288 8.64665 9.86752L8.77487 9.67789L8.92904 9.46961L9.23874 9.05212C9.4521 8.80647 9.6411 8.54557 9.87722 8.30416C10.7679 7.32334 11.7988 6.47967 12.9364 5.80055C13.2088 5.634 13.4824 5.47941 13.7591 5.34388C14.0303 5.19564 14.3076 5.07748 14.5768 4.95783C15.0862 4.7375 15.6084 4.54826 16.1406 4.39114C16.5927 4.25692 17.0518 4.14735 17.5157 4.06291C17.9297 3.97481 18.2974 3.94336 18.5994 3.90154C18.9023 3.86564 19.1419 3.86024 19.3046 3.84606L19.5553 3.82933L19.3046 3.82043C19.1411 3.818 18.9004 3.79926 18.5942 3.80296C18.2884 3.81355 17.9141 3.80783 17.4879 3.85379C17.0081 3.89141 16.5306 3.95504 16.0577 4.04438C15.4949 4.14987 14.9391 4.28937 14.3931 4.46208C14.1028 4.55738 13.802 4.65087 13.5052 4.77539C13.2027 4.88731 12.901 5.01892 12.5983 5.16398C11.9712 5.45771 11.3658 5.79584 10.7869 6.1758C10.1859 6.5726 9.61479 7.01295 9.07823 7.49331C8.80124 7.72498 8.54553 8.0043 8.2786 8.26001L7.92728 8.64479L7.75278 8.83665L7.56748 9.05657C7.11528 9.60144 6.703 10.1782 6.33384 10.7825C5.6728 11.8679 5.15302 13.0332 4.7871 14.2502L4.73193 14.4366L4.70483 14.5283L4.67148 14.6592L4.5819 15.0151L4.49719 15.3532C4.4722 15.4835 4.44789 15.6099 4.42424 15.7325L4.3659 16.0356L4.33826 16.1793L4.33148 16.2145L4.32979 16.2232L4.32016 16.3204L4.31825 16.3379L4.31094 16.4073L4.25726 16.9104C4.20802 17.372 4.1751 17.6822 4.16197 17.8052C3.63837 17.9474 3.11838 18.1062 2.60411 18.2863C2.60411 18.2863 -0.147478 18.9294 0.00859418 20.2882C0.155348 21.5659 2.86638 21.8251 2.86638 21.8251C7.53283 22.7892 12.3841 22.2651 16.7371 20.3268C16.504 19.557 16.4487 18.7444 16.5753 17.9501ZM35.9528 16.4738C35.8918 15.7562 35.7782 15.0441 35.613 14.3432C35.542 13.989 35.4189 13.6309 35.3221 13.2738L35.1527 12.7812L35.068 12.5363L34.9636 12.2683C34.7014 11.6107 34.3921 10.9728 34.0381 10.3597C33.401 9.26005 32.6263 8.24622 31.7326 7.34274L31.5949 7.20509L31.5274 7.13743L31.4282 7.04616L31.1585 6.79734L30.9022 6.56101L30.6041 6.31546L30.3657 6.11926L30.2529 6.02619L30.2254 6.00342L30.2185 5.99781L30.1377 5.94286L30.1232 5.9328L30.066 5.8931L29.6494 5.60552L29.0912 5.21968C29.2353 4.64614 29.3571 4.06636 29.4567 3.48034C29.5563 2.89431 30.2249 0.76094 28.9601 0.240312C27.771 -0.249291 26.2327 1.99797 26.2327 1.99797C23.1316 5.61584 21.2436 10.1153 20.8344 14.8628C21.6207 15.0313 22.3584 15.376 22.9921 15.871L23.0096 15.8676C24.5545 14.3421 25.8725 12.6027 26.9231 10.7027C27.9312 11.3352 28.8123 12.1503 29.5212 13.1063L29.6196 13.2383L29.7281 13.4L29.9452 13.7243C30.0628 13.9324 30.1968 14.1255 30.3073 14.3506C30.7727 15.2177 31.1071 16.149 31.2993 17.1142C31.3922 17.5637 31.453 18.0193 31.4812 18.4775C31.5087 18.8913 31.5111 19.3064 31.4884 19.7205C31.4696 20.0731 31.4317 20.4244 31.3748 20.7729C31.3324 21.0874 31.2625 21.3552 31.216 21.5789C31.1026 22.021 31.0254 22.2729 31.0254 22.2729C31.0254 22.2729 31.1353 22.0354 31.309 21.6083C31.3859 21.3914 31.4935 21.1309 31.5791 20.8199C31.6855 20.4731 31.7728 20.1207 31.8409 19.7644C31.9228 19.3399 31.9788 18.9108 32.0086 18.4795C32.0443 17.9942 32.0456 17.507 32.0124 17.0215C31.9794 16.4974 31.909 15.9764 31.8017 15.4624C31.6884 14.927 31.5359 14.4006 31.3453 13.8876C31.2587 13.6274 31.1306 13.3655 31.0226 13.1041L30.8507 12.7522L30.765 12.5774L30.6585 12.3812C30.3976 11.9078 30.1028 11.4539 29.7766 11.0229C29.199 10.2631 28.5282 9.57881 27.78 8.98615C28.0118 8.46916 28.2241 7.94387 28.417 7.41029L28.5043 7.4572L28.9476 7.70073L29.0087 7.7344L29.0243 7.74287L29.0282 7.74499C29.0951 7.7902 28.9414 7.6857 28.9584 7.69734L28.9658 7.70221L28.9956 7.72201L29.1175 7.80312L29.3741 7.97444L29.5091 8.06423L29.5783 8.11018L29.6131 8.13337L29.6219 8.13919L29.6263 8.14216C29.6376 8.15073 29.5443 8.07746 29.5857 8.11039L29.6027 8.1231L29.8824 8.33169L30.1762 8.55171L30.2139 8.57998L30.2186 8.58358C30.159 8.5317 30.2048 8.5713 30.1925 8.56071L30.2017 8.56823L30.2201 8.58327L30.2942 8.64373L30.4449 8.76655C31.803 9.88661 32.9222 11.2682 33.736 12.8292L33.8411 13.0325L33.9503 13.2675L34.1689 13.7392C34.2825 14.0442 34.4211 14.3349 34.5204 14.6578C34.9558 15.9091 35.2037 17.218 35.2559 18.5419C35.2719 18.8608 35.2771 19.1751 35.2634 19.4829C35.2634 19.7917 35.2351 20.092 35.2113 20.3856C35.1612 20.9383 35.0776 21.4874 34.961 22.03C34.8628 22.4913 34.7395 22.9468 34.5918 23.3947C34.4712 23.8005 34.323 24.1385 34.2153 24.4236C34.1015 24.7061 33.9915 24.919 33.926 25.0695L33.8209 25.2974L33.9485 25.0816C34.0287 24.9391 34.1602 24.737 34.3036 24.4659C34.4402 24.1922 34.6245 23.8663 34.7879 23.4701C34.9843 23.0307 35.1567 22.581 35.3043 22.1229C35.4808 21.5782 35.6242 21.0233 35.7336 20.4612C35.7893 20.1608 35.85 19.8517 35.8832 19.5316C35.9297 19.2125 35.9581 18.8845 35.9757 18.5493C36.0175 17.8578 36.0098 17.1642 35.9528 16.4738Z" fill="#4DA9E1"/>
</g>
<defs>
<clipPath id="clip0_202_13976">
<rect width="37" height="36" fill="white"/>
</clipPath>
</defs>
</svg>
