<svg width="32" height="32" viewBox="0 0 32 32" fill="none" xmlns="http://www.w3.org/2000/svg">
<path d="M1.1614 24.1021C0.830439 24.6418 0.45875 25.2681 0.143068 25.7671C-0.139492 26.2446 0.0121978 26.8604 0.484208 27.152L7.10334 31.2253C7.33568 31.3688 7.61591 31.4129 7.8811 31.3478C8.14629 31.2827 8.37422 31.1138 8.51372 30.8791C8.77849 30.4361 9.11963 29.8608 9.49132 29.2447C12.1135 24.9168 14.751 25.4463 19.5066 27.7172L26.0697 30.8384C26.3183 30.9567 26.6041 30.9693 26.8622 30.8734C27.1202 30.7775 27.3284 30.5812 27.4393 30.3292L30.5911 23.2009C30.8137 22.6918 30.5872 22.0982 30.0819 21.8669C28.697 21.2152 25.9424 19.9168 23.4628 18.7203C14.5422 14.3873 6.96077 14.6673 1.1614 24.1021Z" fill="url(#paint0_linear_202_9606)"/>
<path d="M30.8403 7.92607C31.1713 7.38636 31.5429 6.76009 31.8586 6.26111C32.1412 5.78361 31.9895 5.1678 31.5175 4.87618L24.8984 0.802869C24.6641 0.6451 24.3749 0.591694 24.0997 0.65541C23.8246 0.719126 23.5883 0.89424 23.4472 1.13892C23.1825 1.58189 22.8413 2.15724 22.4697 2.77333C19.8475 7.10123 17.21 6.5717 12.4544 4.30082L5.91164 1.19492C5.66307 1.07661 5.37719 1.06398 5.11916 1.1599C4.86112 1.25583 4.65291 1.45214 4.54199 1.70409L1.39026 8.83238C1.16759 9.34149 1.39416 9.93512 1.89943 10.1664C3.28435 10.8181 6.03893 12.1165 8.51856 13.313C17.4595 17.6409 25.0409 17.3507 30.8403 7.92607Z" fill="url(#paint1_linear_202_9606)"/>
<defs>
<linearGradient id="paint0_linear_202_9606" x1="41.909" y1="28.3171" x2="34.4967" y2="11.312" gradientUnits="userSpaceOnUse">
<stop offset="0.18" stop-color="#0052CC"/>
<stop offset="1" stop-color="#2684FF"/>
</linearGradient>
<linearGradient id="paint1_linear_202_9606" x1="2513.57" y1="-24922.5" x2="2427.27" y2="-25317.4" gradientUnits="userSpaceOnUse">
<stop offset="0.18" stop-color="#0052CC"/>
<stop offset="1" stop-color="#2684FF"/>
</linearGradient>
</defs>
</svg>
