<svg width="37" height="36" viewBox="0 0 37 36" fill="none" xmlns="http://www.w3.org/2000/svg">
<g clip-path="url(#clip0_202_14124)">
<path d="M17.8868 35.8828C13.1103 35.8828 8.61985 34.0227 5.24232 30.6453C1.86493 27.2678 0.00488281 22.7774 0.00488281 18.0009C0.00488281 13.2246 1.86493 8.73398 5.24232 5.35659C8.61985 1.97906 13.1103 0.119019 17.8868 0.119019C21.8919 0.119019 25.593 1.31039 28.7509 3.7591C29.2514 4.14722 29.3425 4.86764 28.9544 5.36813C28.5662 5.86875 27.8458 5.95988 27.3452 5.57161C24.5933 3.43777 21.3783 2.41275 17.8868 2.41275C13.723 2.41275 9.80855 4.0343 6.86429 6.97842C3.92002 9.92269 2.29862 13.8373 2.29862 18.0009C2.29862 22.1646 3.92002 26.0792 6.86429 29.0234C9.80855 31.9676 13.723 33.589 17.8868 33.589C21.3555 33.589 24.6386 32.4743 27.3808 30.3655C27.8829 29.9793 28.6029 30.0733 28.989 30.5753C29.3751 31.0775 29.2812 31.7975 28.779 32.1836C25.6324 34.6036 21.8659 35.8828 17.8868 35.8828ZM21.5867 17.9488C21.5867 20.0218 19.9062 21.7021 17.8334 21.7021C15.7604 21.7021 14.08 20.0218 14.08 17.9488C14.08 15.8759 15.7604 14.1955 17.8334 14.1955C19.9062 14.1955 21.5867 15.8759 21.5867 17.9488ZM26.4984 17.943C26.4984 18.7332 25.8579 19.3737 25.0677 19.3737C24.2777 19.3737 23.6371 18.7332 23.6371 17.943C23.6371 17.1528 24.2777 16.5123 25.0677 16.5123C25.8579 16.5123 26.4984 17.1528 26.4984 17.943ZM31.1568 15.2323C31.1568 16.0224 30.5163 16.663 29.7261 16.663C28.9361 16.663 28.2955 16.0224 28.2955 15.2323C28.2955 14.4421 28.9361 13.8015 29.7261 13.8015C30.5163 13.8015 31.1568 14.4421 31.1568 15.2323ZM31.1568 20.9086C31.1568 21.6988 30.5163 22.3393 29.7261 22.3393C28.9361 22.3393 28.2955 21.6988 28.2955 20.9086C28.2955 20.1184 28.9361 19.4779 29.7261 19.4779C30.5163 19.4779 31.1568 20.1184 31.1568 20.9086ZM36.0049 15.2323C36.0049 16.0224 35.3643 16.663 34.5742 16.663C33.7841 16.663 33.1436 16.0224 33.1436 15.2323C33.1436 14.4421 33.7841 13.8015 34.5742 13.8015C35.3643 13.8015 36.0049 14.4421 36.0049 15.2323ZM33.6417 9.77601C33.6417 10.5662 33.0011 11.2067 32.2109 11.2067C31.4209 11.2067 30.7804 10.5662 30.7804 9.77601C30.7804 8.98584 31.4209 8.3453 32.2109 8.3453C33.0011 8.3453 33.6417 8.98584 33.6417 9.77601ZM33.6417 26.2143C33.6417 27.0045 33.0011 27.645 32.2109 27.645C31.4209 27.645 30.7804 27.0045 30.7804 26.2143C30.7804 25.4241 31.4209 24.7836 32.2109 24.7836C33.0011 24.7836 33.6417 25.4241 33.6417 26.2143ZM36.0049 20.9086C36.0049 21.6988 35.3643 22.3393 34.5742 22.3393C33.7841 22.3393 33.1436 21.6988 33.1436 20.9086C33.1436 20.1184 33.7841 19.4779 34.5742 19.4779C35.3643 19.4779 36.0049 20.1184 36.0049 20.9086Z" fill="#694A9C"/>
</g>
<defs>
<clipPath id="clip0_202_14124">
<rect width="37" height="36" fill="white"/>
</clipPath>
</defs>
</svg>
