<svg width="41" height="24" viewBox="0 0 41 24" fill="none" xmlns="http://www.w3.org/2000/svg">
<path d="M9.49544 8.75333C9.87877 8.68666 10.1454 8.85333 10.4954 9.40333C11.4955 11.0034 11.4955 13.0534 10.4954 14.6534C10.1288 15.2034 9.72877 15.4034 9.3121 15.2367C9.09543 15.1201 8.92876 14.9034 8.84543 14.6701C8.76209 14.4201 8.82876 14.2034 9.1121 13.7367C9.47877 13.1367 9.57877 12.8034 9.57877 12.0034C9.57877 11.22 9.47877 10.8867 9.1121 10.27C9.0121 10.1033 8.9121 9.92001 8.82876 9.73667C8.71209 9.33667 9.04543 8.83666 9.49544 8.75333ZM12.0805 8.92209C11.6304 8.00542 11.6304 7.82208 12.0138 7.47208C12.1971 7.28874 12.2805 7.25541 12.5471 7.25541C12.9805 7.25541 13.2138 7.47208 13.6138 8.28875C14.2305 9.55543 14.4805 10.6388 14.4805 12.0388C14.4805 13.4721 14.2305 14.4555 13.5805 15.7888C13.2138 16.5388 13.0305 16.7389 12.6471 16.7889C12.5138 16.8055 12.3805 16.7889 12.2471 16.7388C11.9971 16.6055 11.8138 16.3888 11.7471 16.1055C11.6971 15.9555 11.7638 15.7888 12.0471 15.2055C13.0971 13.0721 13.1138 11.0055 12.0805 8.92209ZM15.381 18.355C14.9977 18.2383 14.7144 17.755 14.831 17.3883C14.8477 17.305 15.031 16.905 15.231 16.505C16.0644 14.805 16.4144 12.9716 16.2477 11.1716C16.1144 9.68824 15.8477 8.75489 15.181 7.40488C14.731 6.4882 14.7144 6.3382 14.9644 5.97153C15.2144 5.62152 15.831 5.57152 16.1644 5.87153C16.3811 6.07153 17.0811 7.53821 17.3477 8.35489C18.2477 11.1049 18.0977 14.0716 16.9644 16.7216C16.3811 18.0883 15.9644 18.5217 15.381 18.355ZM18.7146 19.9786C18.6146 19.9786 18.5146 19.9786 18.4313 19.9452C18.1646 19.8619 17.9146 19.5619 17.8646 19.2786C17.8313 19.0786 17.8646 18.9619 18.1313 18.4286C19.2313 16.3119 19.698 14.3785 19.698 12.0118C19.698 9.72845 19.2813 7.9451 18.248 5.81174C18.0146 5.36174 17.8313 4.94506 17.8313 4.8784C17.8313 4.64506 18.0146 4.32839 18.2313 4.19506C18.5146 4.01172 18.9813 4.04505 19.2146 4.26172C19.298 4.34506 19.5146 4.71173 19.7146 5.0784C20.448 6.54508 20.9647 8.16177 21.2147 9.84512C21.3813 10.8785 21.4147 12.8452 21.2813 13.7952C21.0647 15.4785 20.5813 17.1119 19.848 18.6452C19.398 19.5619 19.1146 19.9452 18.8813 19.9452C18.8313 19.9452 18.7646 19.9619 18.7146 19.9786ZM30.1229 19.0186C27.4895 21.5853 23.7228 23.2187 19.1727 23.7687C18.4394 23.8687 15.5894 23.902 14.806 23.8353C10.0393 23.4187 5.82259 21.652 3.08923 18.9186C1.52254 17.3519 0.572533 15.6686 0.155861 13.6685C-0.0441412 12.7519 -0.0441412 11.2519 0.155861 10.3352C0.755868 7.56848 2.53922 5.13512 5.35592 3.2851C11.806 -0.93162 21.6561 -0.914953 28.0395 3.3351C28.8895 3.90177 29.4229 4.35177 30.1895 5.10178C31.1562 6.05179 31.8396 7.00181 32.5562 8.40182C32.5896 8.45182 32.7229 8.51849 32.8562 8.55182C33.3062 8.63516 33.9063 9.00183 34.3896 9.45183C34.7729 9.80184 35.0563 10.1852 35.7729 11.2685C36.5063 12.3685 39.7897 17.4353 39.9897 17.7686C40.0563 17.8853 39.9063 18.1019 39.7397 18.1019C39.623 18.1019 39.523 18.0186 39.3396 17.7353L37.4896 14.8519C34.3229 9.93517 34.1563 9.7185 33.2729 9.2685L32.8062 9.03516H31.4396C30.0895 9.03516 30.0729 9.03516 30.0395 9.18516C29.8729 9.96851 29.8395 10.1685 29.8729 10.2018C29.9062 10.2185 30.6729 10.6685 31.5896 11.1685L33.2562 12.1185L33.1562 12.3352C33.1062 12.4519 33.0396 12.5519 33.0062 12.5519C32.9896 12.5519 31.5729 11.7685 29.8895 10.8185C28.1895 9.8685 26.7062 9.0685 26.5895 9.03516C26.1062 8.90183 25.3562 9.43517 25.3562 9.91851C25.3562 10.4018 25.5062 10.5352 28.4895 12.9852C30.3395 14.5019 31.4062 15.4186 31.5729 15.6352C31.8562 16.0186 32.1562 16.6019 32.4396 17.3186C32.9229 18.5686 33.7063 19.2686 35.0063 19.6019L35.4229 19.702L35.3896 19.9353C35.3729 20.0353 35.3563 20.1186 35.3229 20.202C35.2729 20.2686 34.4229 19.9853 33.9229 19.752C33.1396 19.3853 32.6062 18.8519 32.0896 17.9353C31.8562 18.0019 31.6396 18.0686 31.4229 18.1519C30.7562 18.4019 30.7395 18.4186 30.1229 19.0186ZM27.7678 16.6922C27.9179 16.8755 30.0679 17.8922 30.3179 17.9089C30.4345 17.9089 30.8012 17.8089 31.1346 17.6922C31.4679 17.5589 31.7679 17.4589 31.7846 17.4255C31.8012 17.4089 31.7346 17.1922 31.6346 16.9422C31.4346 16.4422 31.4679 16.4588 30.7512 16.5922C29.9679 16.7422 29.5179 16.6088 28.6679 15.9922C28.4345 15.8088 28.2012 15.6755 28.1345 15.6755C28.0679 15.6755 27.9345 15.7588 27.8345 15.8755C27.6178 16.1088 27.5845 16.4755 27.7678 16.6922ZM31.0929 15.8675C31.0429 15.7508 28.0762 13.2841 27.8262 13.1341C27.6095 13.0175 27.4428 13.0508 27.2595 13.2341C26.7428 13.7842 26.8095 13.9008 28.1428 14.9175C29.7428 16.1508 29.9095 16.2342 30.7928 16.0508C31.1095 15.9842 31.1429 15.9675 31.0929 15.8675ZM24.2949 6.1406C24.5616 6.09059 29.595 6.97394 29.845 7.12394C30.245 7.34061 30.3617 7.72395 30.245 8.29062L30.195 8.52396H30.4617C30.6283 8.52396 30.9784 8.50729 31.2784 8.49062L31.795 8.44062L31.545 7.95728C30.745 6.4906 29.3283 5.02392 27.5616 3.84057C26.7283 3.29056 24.9783 2.44055 23.9283 2.05721C22.2783 1.49054 20.5782 1.1072 18.8449 0.923868C17.8949 0.823867 15.3782 0.823867 14.4448 0.940535C12.2115 1.17387 10.1948 1.67388 8.42809 2.44055C4.32804 4.19057 1.56134 7.07394 0.861336 10.374C0.678001 11.2407 0.661334 12.7573 0.828002 13.5407C1.19467 15.274 2.01135 16.774 3.3447 18.1741C6.04473 21.0241 10.1781 22.7575 15.1282 23.1575C15.7782 23.2075 18.6615 23.1408 19.3282 23.0408C21.4116 22.7741 23.0283 22.3574 24.7283 21.6574C26.5116 20.9408 28.1783 19.8908 29.3617 18.7741L29.8283 18.3407L28.6617 17.7741C27.4116 17.1907 27.295 17.0907 27.1283 16.5574C27.0283 16.224 27.145 15.8574 27.4616 15.524L27.7116 15.2574L27.1783 14.8407C26.745 14.524 26.6116 14.374 26.5283 14.1574C26.395 13.824 26.445 13.424 26.6616 13.1407L26.8283 12.9073L25.1116 12.6073C24.4616 12.4907 23.8116 12.374 23.1783 12.2407C22.9116 12.1573 22.6616 11.874 22.5949 11.574C22.5616 11.424 23.3949 7.34061 23.5783 6.75727C23.7116 6.45727 23.9783 6.22393 24.2949 6.1406ZM29.5598 8.92303C29.7764 7.88968 29.7931 7.60635 29.5764 7.55634C29.5264 7.52301 28.3431 7.32301 26.9597 7.07301C24.5097 6.63967 24.243 6.60633 24.1264 6.80634C24.0597 6.90634 23.1263 11.2231 23.1263 11.4064C23.1263 11.5064 23.1763 11.6231 23.2263 11.6564C23.293 11.7064 24.0764 11.8897 24.993 12.0397C26.7764 12.3731 26.8264 12.3731 26.8264 12.3231C26.8264 12.3064 26.4931 12.0231 26.0764 11.6897C25.0597 10.8564 24.843 10.5397 24.843 9.92304C24.843 9.40637 25.193 8.90636 25.743 8.62302C26.0764 8.47302 26.4431 8.43969 26.7931 8.52302C26.9764 8.58969 27.8597 9.07303 29.0931 9.77304L29.3431 9.92304L29.5598 8.92303Z" fill="black"/>
</svg>
