<svg width="32" height="37" viewBox="0 0 32 37" fill="none" xmlns="http://www.w3.org/2000/svg">
<g clip-path="url(#clip0_202_15636)">
<path d="M10.9702 25.0916C9.05774 23.2916 7.93274 20.8166 7.93274 18.0041C7.93274 15.1916 9.05774 12.7166 10.8577 10.9166C12.4327 9.3416 12.4327 6.8666 10.8577 5.2916C9.28274 3.7166 6.80774 3.7166 5.23274 5.2916C2.08274 8.5541 0.0577393 13.0541 0.0577393 18.0041C0.0577393 22.9541 2.08274 27.4541 5.34524 30.7166C6.92024 32.2916 9.39524 32.2916 10.9702 30.7166C12.4327 29.1416 12.4327 26.6666 10.9702 25.0916Z" fill="#FAE501"/>
<path d="M10.9702 10.9167C12.7702 9.00415 15.2452 7.87915 18.0577 7.87915C20.8702 7.87915 23.3452 9.00415 25.1452 10.8042C26.7202 12.3792 29.1952 12.3792 30.7702 10.8042C32.3452 9.22915 32.3452 6.75415 30.7702 5.17915C27.5077 2.02915 23.0077 0.00415039 18.0577 0.00415039C13.1077 0.00415039 8.60769 2.02915 5.34519 5.29165C3.77019 6.86665 3.77019 9.34165 5.34519 10.9167C6.92019 12.3792 9.39519 12.3792 10.9702 10.9167Z" fill="#4FB5E1"/>
<path d="M25.1452 25.0916C23.3452 27.0041 20.8702 28.1291 18.0577 28.1291C15.2452 28.1291 12.7702 27.0041 10.9702 25.2041C9.39519 23.6291 6.92019 23.6291 5.34519 25.2041C3.77019 26.7791 3.77019 29.2541 5.34519 30.8291C8.60769 33.9791 13.1077 36.0041 18.0577 36.0041C23.0077 36.0041 27.5077 33.9791 30.7702 30.7166C32.3452 29.1416 32.3452 26.6666 30.7702 25.0916C29.1952 23.6291 26.7202 23.6291 25.1452 25.0916Z" fill="#F05751"/>
<path d="M8.15772 12.0416C10.3323 12.0416 12.0952 10.2787 12.0952 8.10413C12.0952 5.92951 10.3323 4.16663 8.15772 4.16663C5.98309 4.16663 4.22021 5.92951 4.22021 8.10413C4.22021 10.2787 5.98309 12.0416 8.15772 12.0416Z" fill="#0681B6"/>
<path d="M8.15772 31.8416C10.3323 31.8416 12.0952 30.0787 12.0952 27.9041C12.0952 25.7294 10.3323 23.9666 8.15772 23.9666C5.98309 23.9666 4.22021 25.7294 4.22021 27.9041C4.22021 30.0787 5.98309 31.8416 8.15772 31.8416Z" fill="#CD4739"/>
</g>
<defs>
<clipPath id="clip0_202_15636">
<rect width="32" height="37" fill="white"/>
</clipPath>
</defs>
</svg>
