<svg width="37" height="37" viewBox="0 0 37 37" fill="none" xmlns="http://www.w3.org/2000/svg">
<g clip-path="url(#clip0_202_14007)">
<path d="M36.0022 18.0056C36.0022 27.9467 27.9433 36.0056 18.0022 36.0056C8.06113 36.0056 0.00219727 27.9467 0.00219727 18.0056C0.00219727 8.06455 8.06113 0.00561523 18.0022 0.00561523C27.9433 0.00561523 36.0022 8.06455 36.0022 18.0056Z" fill="#8CAFC4"/>
<path d="M34.2022 18.0057C34.2022 26.9526 26.9492 34.2057 18.0022 34.2057C9.05526 34.2057 1.80225 26.9526 1.80225 18.0057C1.80225 9.05868 9.05526 1.80566 18.0022 1.80566C26.9492 1.80566 34.2022 9.05868 34.2022 18.0057Z" fill="#1777BB"/>
<g filter="url(#filter0_d_202_14007)">
<path d="M25.0736 18.0057C25.0736 21.9111 21.9076 25.0771 18.0021 25.0771C14.0967 25.0771 10.9307 21.9111 10.9307 18.0057C10.9307 14.1002 14.0967 10.9342 18.0021 10.9342C21.9076 10.9342 25.0736 14.1002 25.0736 18.0057Z" fill="#EB9B23"/>
</g>
</g>
<defs>
<filter id="filter0_d_202_14007" x="10.9307" y="10.9342" width="21.1428" height="21.1429" filterUnits="userSpaceOnUse" color-interpolation-filters="sRGB">
<feFlood flood-opacity="0" result="BackgroundImageFix"/>
<feColorMatrix in="SourceAlpha" type="matrix" values="0 0 0 0 0 0 0 0 0 0 0 0 0 0 0 0 0 0 127 0" result="hardAlpha"/>
<feOffset dx="4" dy="4"/>
<feGaussianBlur stdDeviation="1.5"/>
<feColorMatrix type="matrix" values="0 0 0 0 0 0 0 0 0 0 0 0 0 0 0 0 0 0 0.55 0"/>
<feBlend mode="normal" in2="BackgroundImageFix" result="effect1_dropShadow_202_14007"/>
<feBlend mode="normal" in="SourceGraphic" in2="effect1_dropShadow_202_14007" result="shape"/>
</filter>
<clipPath id="clip0_202_14007">
<rect width="37" height="37" fill="white"/>
</clipPath>
</defs>
</svg>
