<svg width="37" height="37" viewBox="0 0 37 37" fill="none" xmlns="http://www.w3.org/2000/svg">
<g clip-path="url(#clip0_202_14183)">
<path d="M18.0051 34.1162C26.9044 34.1162 34.1187 26.902 34.1187 18.0027C34.1187 9.10344 26.9044 1.88916 18.0051 1.88916C9.10588 1.88916 1.8916 9.10344 1.8916 18.0027C1.8916 26.902 9.10588 34.1162 18.0051 34.1162Z" fill="black"/>
<path d="M18.0049 33.6444C26.6437 33.6444 33.6468 26.6412 33.6468 18.0024C33.6468 9.36365 26.6437 2.36052 18.0049 2.36052C9.36609 2.36052 2.36296 9.36365 2.36296 18.0024C2.36296 26.6412 9.36609 33.6444 18.0049 33.6444ZM18.0049 36.0024C8.06376 36.0024 0.00488281 27.9436 0.00488281 18.0024C0.00488281 8.06132 8.06376 0.00244141 18.0049 0.00244141C27.946 0.00244141 36.0049 8.06132 36.0049 18.0024C36.0049 27.9436 27.946 36.0024 18.0049 36.0024Z" fill="white"/>
<path d="M30.3095 13.0753C29.4993 14.2097 28.6206 15.1709 27.6626 16.3164L26.3661 17.775C25.2857 18.8013 22.5848 20.8001 21.3423 21.6104C20.6401 22.0965 19.8838 22.4747 19.1275 22.7988L18.1411 23.2763C18.3032 23.4384 18.6046 23.527 18.8773 23.6545C19.0394 23.6545 19.6137 23.339 19.7757 23.2309L21.5044 22.2586C21.8285 22.0425 22.1526 21.7724 22.5307 21.7184C22.3687 22.0965 21.9905 22.3126 21.6124 22.5287L20.586 23.1229C20.586 23.1229 19.5083 23.7371 19.3609 23.8392C19.6563 23.9559 20.0999 24.0899 20.3812 24.2033C20.6513 24.2033 21.0182 23.9332 21.2343 23.8252C21.8285 23.501 22.5848 23.0149 23.179 22.5827L24.1513 21.9345C24.9076 21.3403 25.6639 20.692 26.3661 19.9898C26.9063 19.5036 27.4465 19.0174 27.8787 18.4232C28.4729 17.721 28.851 16.9107 29.2832 16.1004C29.7694 15.3441 29.9314 14.8579 30.2015 14.0476C30.2555 13.7775 30.4176 13.3454 30.3095 13.0753ZM5.51459 12.8052C5.35253 13.3994 5.56861 14.1016 5.78469 14.6418C6.27086 15.9383 7.08116 17.0727 7.89145 18.1531C8.37762 18.8554 9.18792 19.7197 9.78213 20.3139L10.4304 20.8541L11.8349 22.0965C12.9693 22.9608 15.076 24.2573 16.3725 24.8515L18.1011 25.6078L18.8034 25.8779C19.6137 26.202 20.424 26.4181 21.2883 26.5802C21.7745 26.6882 22.3147 26.8503 22.8008 26.8503C22.6388 26.256 22.3147 26.3101 21.8285 26.148L20.0458 25.4457C17.5609 24.4194 14.8059 23.393 12.8612 21.4483C13.2394 21.4483 13.5095 21.7724 13.7796 21.9885C14.1577 22.2586 14.6439 22.5827 15.076 22.8528C16.2645 23.5551 18.9655 24.7975 20.3159 25.2837C20.8561 25.4998 21.7745 25.8779 22.3147 25.8779C22.7468 25.9319 23.341 25.6618 23.6651 25.4457C23.4491 25.2297 23.233 25.2837 22.9089 25.2297L21.2343 24.7435C19.7757 24.3654 18.3712 23.8252 17.0207 23.1229L16.2645 22.7988L15.2381 22.1506L13.9957 21.3403L12.6992 20.3139L10.4844 18.5853L8.43164 16.4785L7.40527 15.2901L6.32488 14.1016L5.51459 12.8052ZM22.8549 26.148C22.9629 26.3641 23.179 26.6882 23.179 26.9583C23.179 27.5525 22.4767 28.0927 21.9365 28.0387C21.7204 27.9847 21.2343 27.7146 21.0722 28.0387C21.0182 28.1467 21.0182 28.2548 21.0722 28.3088C21.0722 28.5249 21.3423 28.6329 21.5584 28.7409C22.1526 28.903 22.8008 28.6869 23.287 28.3628C23.6651 28.1467 23.9352 27.7686 24.0433 27.3364L24.1513 26.6342C24.2053 26.4181 24.4214 26.3641 24.6915 25.9859C25.0156 25.5538 25.3398 24.7975 25.7719 24.4734C25.934 24.3654 26.096 24.3113 26.3121 24.2573C26.2041 24.0953 26.096 23.9872 25.988 23.8252C25.8799 23.7711 25.7719 23.6631 25.6639 23.6631C25.5018 23.6091 25.2857 23.6091 25.1237 23.7171C24.3674 24.0953 24.5295 24.7975 24.0973 25.3377C23.7732 25.7699 23.3951 25.9859 22.8549 26.148ZM24.5835 26.8503C24.9616 27.0123 25.2857 26.9583 25.6639 26.9583L26.4742 27.0123C26.8523 27.0123 26.9603 26.7962 27.1224 26.4721C27.1764 26.3641 27.2304 26.148 27.1224 26.04C27.0144 25.9319 26.7983 25.9319 26.6362 25.9319L25.7179 25.9859C25.5558 25.9859 25.2857 25.9859 25.1237 26.04C24.8536 26.202 24.6375 26.5802 24.5835 26.8503ZM27.5005 27.6065C27.2304 27.4985 27.0684 27.3904 26.9063 27.1744C26.8523 27.2284 26.7983 27.2284 26.7443 27.2824C26.6902 27.5525 27.3925 28.2007 27.5005 27.6065ZM27.1224 25.7699L27.5546 26.04C27.4465 26.256 27.1764 26.6882 27.2304 26.9583C27.2845 27.4985 28.0407 27.4985 28.3648 27.1744C28.743 26.7422 28.743 26.094 28.2028 25.7699C27.8787 25.6078 27.5005 25.6618 27.1224 25.7699ZM7.72939 27.2824L7.78341 27.3364C8.21557 27.2284 8.48566 27.0663 8.53968 26.6342C8.21557 26.6882 7.89145 27.0123 7.72939 27.2824ZM8.10753 25.2837C7.94547 25.1756 7.78341 25.1216 7.56733 25.1216C7.40527 25.1216 7.24321 25.1216 7.08116 25.1756C6.54096 25.3917 6.48694 26.256 6.9191 26.6342C7.13518 26.8503 7.67537 26.9583 7.89145 26.6882C8.10753 26.4721 8.05351 26.202 7.94547 25.9319C7.89145 25.7699 7.78341 25.5538 7.89145 25.4457C7.94547 25.3377 8.05351 25.3377 8.10753 25.2837ZM8.05351 25.4998C8.10753 25.6618 8.37762 26.3101 8.48566 26.4181C8.64772 26.5261 8.80978 26.5261 8.97184 26.5261L9.94419 26.4721H10.6464C10.6464 26.3101 10.6464 26.148 10.5924 26.04C10.4304 25.6078 9.83615 25.3917 9.40399 25.3917L8.91782 25.4457C8.5937 25.4457 8.3236 25.3917 8.05351 25.4998ZM9.07988 23.7711C10.1062 24.0412 10.1062 24.9055 10.5384 25.4998C10.7005 25.7158 11.1326 26.04 11.1866 26.256C11.2407 26.4181 11.1866 26.4721 11.2407 26.8503C11.3487 27.3364 11.6728 27.8226 12.105 28.0927C12.5911 28.4168 13.0233 28.6329 13.6175 28.4708C13.9416 28.3628 14.2658 28.1467 14.1037 27.7686C13.9416 27.3904 13.3474 27.7686 12.9693 27.6605C12.5911 27.4985 12.159 26.9583 12.159 26.5261L12.3751 25.7699C11.7809 25.5538 11.0786 25.0676 10.8085 24.4734C10.6464 24.0953 10.6464 23.5551 10.3763 23.285C9.89017 22.9068 9.24194 23.2309 9.07988 23.7711ZM11.6728 25.0136C11.8349 25.2297 11.9429 25.2837 12.159 25.3917C12.9153 25.8239 13.4014 25.4998 14.1577 25.3377L15.7243 24.8515C15.5168 24.7122 15.0534 24.4221 14.86 24.3113L13.8336 24.5814L11.6728 25.0136ZM12.4291 26.5802C13.8336 26.5802 15.1301 26.148 16.4806 25.8239C16.4806 25.8239 17.0748 25.5427 17.2733 25.5427C17.0859 25.406 16.3214 25.1301 16.2018 25.0222C16.0398 25.0703 15.4002 25.2837 15.1841 25.3377L13.8336 25.7158L13.1854 25.8779C12.8072 26.04 12.5371 26.094 12.4291 26.5802Z" fill="white"/>
<path fill-rule="evenodd" clip-rule="evenodd" d="M5.489 12.6316L6.38112 14.059L7.45846 15.2441L8.48344 16.4309L10.5314 18.5327L12.7428 20.2587L14.0367 21.2831L15.2756 22.0911L15.2765 22.0916L16.2973 22.7363L17.0508 23.0593L17.0531 23.0605C18.399 23.7603 19.7985 24.2986 21.2519 24.6754L21.2529 24.6756L22.9244 25.1609C23.0009 25.1735 23.0715 25.1799 23.1393 25.1857L23.1547 25.187C23.2176 25.1924 23.2797 25.1976 23.339 25.2075C23.4713 25.2296 23.5941 25.2752 23.7148 25.396L23.7755 25.4566L23.7041 25.5042C23.5375 25.6153 23.3029 25.7394 23.0543 25.8292C22.8085 25.9179 22.5414 25.9759 22.3103 25.9482C22.0283 25.9472 21.6562 25.8495 21.293 25.7285C20.9585 25.617 20.6242 25.483 20.3637 25.3785C20.3387 25.3685 20.3145 25.3588 20.2909 25.3494C18.9365 24.8616 16.2326 23.6179 15.0402 22.9133L15.0387 22.9124C14.6055 22.6416 14.1181 22.3167 13.7387 22.0457L13.7371 22.0446L13.7356 22.0434C13.6788 21.9979 13.6219 21.9478 13.5656 21.8981C13.5533 21.8873 13.5411 21.8765 13.5289 21.8657C13.4599 21.8051 13.391 21.7462 13.3195 21.6942C13.2399 21.6363 13.1588 21.5884 13.0736 21.5573C14.8353 23.2353 17.2144 24.2096 19.4637 25.1307C19.6678 25.2142 19.8707 25.2973 20.0721 25.3805C20.0723 25.3806 20.0725 25.3806 20.0726 25.3807L21.8525 26.0818C21.9471 26.1133 22.0349 26.1363 22.1188 26.1582C22.1397 26.1637 22.1604 26.1691 22.1808 26.1746C22.2823 26.2016 22.3796 26.2301 22.4676 26.2741C22.5571 26.3189 22.637 26.3795 22.7051 26.4704C22.7727 26.5605 22.8265 26.6774 22.8686 26.8317L22.8929 26.9205H22.8008C22.4103 26.9205 21.9847 26.8181 21.5881 26.7227C21.4809 26.6969 21.3758 26.6716 21.2742 26.649C20.407 26.4864 19.5926 26.2693 18.7777 25.9433C18.7775 25.9433 18.7774 25.9432 18.7772 25.9431L18.0744 25.6728L16.3432 24.9154C15.0414 24.3188 12.9302 23.0195 11.7922 22.1524L11.7902 22.1509L10.3845 20.9074L9.73463 20.3658L9.73237 20.3636C9.13812 19.7693 8.32448 18.9018 7.83436 18.1942C7.02455 17.1144 6.20904 15.9734 5.71908 14.6672C5.5032 14.1274 5.27796 13.4054 5.44671 12.7866L5.489 12.6316ZM5.54738 12.9903C5.46682 13.5226 5.65448 14.127 5.84993 14.6157L5.8505 14.6171C6.33276 15.9031 7.13729 17.0304 7.94766 18.1109L7.94846 18.1119L7.94922 18.113C8.43093 18.8088 9.23591 19.6681 9.82956 20.2619L10.4761 20.8007L11.8795 22.0421C13.0107 22.9036 15.1108 24.1958 16.4012 24.7873C16.4014 24.7874 16.4016 24.7875 16.4018 24.7876L18.1278 25.5427L18.8295 25.8126C19.6346 26.1346 20.4403 26.3496 21.3012 26.511L21.3024 26.5112L21.3035 26.5115C21.4114 26.5355 21.5209 26.5618 21.6311 26.5882C21.9919 26.6749 22.3601 26.7634 22.7051 26.7779C22.6721 26.6822 22.6343 26.6104 22.5926 26.5548C22.5392 26.4836 22.4773 26.4362 22.4047 26.3999C22.3307 26.3629 22.2457 26.3374 22.1446 26.3104C22.1253 26.3053 22.1054 26.3001 22.085 26.2948C22.0002 26.2726 21.9063 26.248 21.8062 26.2147L21.8044 26.2141L20.019 25.5107C19.8166 25.4271 19.6123 25.3435 19.4066 25.2593C17.0925 24.312 14.6087 23.2952 12.8115 21.498L12.6915 21.3779H12.8612C13.0715 21.3779 13.2481 21.4684 13.4022 21.5805C13.4793 21.6365 13.5523 21.6991 13.6217 21.7601C13.6344 21.7713 13.6471 21.7824 13.6596 21.7935C13.7153 21.8426 13.7686 21.8896 13.822 21.9324C14.1984 22.2012 14.6822 22.5237 15.1125 22.7927C16.297 23.4925 18.9931 24.7327 20.3397 25.2175L20.3409 25.2179L20.342 25.2184C20.3659 25.2279 20.3905 25.2378 20.4157 25.2479C20.6767 25.3525 21.0072 25.485 21.3375 25.5951C21.7017 25.7165 22.0569 25.8075 22.3146 25.8075H22.319L22.3233 25.8081C22.5233 25.8331 22.7676 25.7832 23.0065 25.6969C23.207 25.6245 23.3982 25.5285 23.5477 25.4372C23.4749 25.3843 23.4005 25.3603 23.3159 25.3462C23.2624 25.3373 23.2059 25.3325 23.1415 25.3271L23.1274 25.3258C23.058 25.3199 22.9813 25.313 22.8973 25.299L22.8932 25.2983L21.2156 24.8113C19.7531 24.432 18.3447 23.8904 16.9906 23.1865L16.2316 22.8612L15.2005 22.21L15.1997 22.2094L13.9545 21.3974L12.6559 20.3693L12.6555 20.369L10.4373 18.6377L8.37977 16.526L7.35261 15.3367L6.26857 14.1442L5.54738 12.9903ZM30.327 12.9297L30.3748 13.0491C30.4369 13.2045 30.4193 13.3978 30.3853 13.5747C30.368 13.6648 30.3456 13.7544 30.3245 13.8371C30.3224 13.8451 30.3204 13.8531 30.3183 13.861C30.2994 13.9352 30.2822 14.0024 30.2704 14.0614L30.2696 14.0657L30.2678 14.0711C29.9979 14.8807 29.8336 15.3736 29.3438 16.1359C29.2734 16.268 29.2043 16.4004 29.1352 16.5327C28.7837 17.2058 28.4345 17.8745 27.934 18.4666C27.4977 19.0659 26.9536 19.5556 26.4157 20.0396L26.4145 20.0408C25.7101 20.745 24.9521 21.3947 24.1947 21.9897L24.1926 21.9914L23.2191 22.6404C22.623 23.0738 21.8648 23.5613 21.2679 23.8868L21.2668 23.8874L21.2657 23.888C21.2142 23.9137 21.153 23.9496 21.0834 23.9904L21.0778 23.9937C21.0105 24.0332 20.9367 24.0766 20.861 24.1168C20.7084 24.1979 20.5354 24.2736 20.3812 24.2736H20.3676L20.3549 24.2685C20.2164 24.2127 20.0372 24.1515 19.8536 24.089L19.8406 24.0846C19.6623 24.0239 19.4811 23.9622 19.335 23.9046L19.2127 23.8562L19.3208 23.7814C19.3976 23.7282 19.7075 23.5471 19.9935 23.3818C20.1376 23.2986 20.277 23.2186 20.3804 23.1594C20.4321 23.1298 20.4748 23.1054 20.5045 23.0884L20.5504 23.0622L20.5508 23.062L20.551 23.0619L20.5511 23.0618L21.5771 22.4678L21.5775 22.4676C21.9117 22.2766 22.2237 22.0961 22.3983 21.8194C22.2739 21.8563 22.1534 21.916 22.0334 21.988C21.9257 22.0526 21.8227 22.1243 21.7185 22.1969C21.6608 22.237 21.6028 22.2774 21.5433 22.3171L21.5411 22.3185L19.8124 23.2909C19.7271 23.3475 19.542 23.4537 19.358 23.546C19.265 23.5927 19.1709 23.6365 19.0891 23.6688C19.0482 23.685 19.0094 23.6986 18.9748 23.7084C18.9411 23.7178 18.9072 23.7247 18.8773 23.7247H18.8617L18.8475 23.7181C18.7809 23.687 18.7121 23.658 18.643 23.6293C18.6351 23.626 18.6272 23.6227 18.6193 23.6195C18.5584 23.5941 18.4973 23.5687 18.4388 23.5425C18.308 23.4836 18.182 23.4167 18.0914 23.326L18.0214 23.2561L19.0983 22.7348L19.0998 22.7341C19.8536 22.411 20.6053 22.035 21.3022 21.5525L21.3038 21.5514C22.5438 20.7427 25.2381 18.7488 26.3155 17.726L27.6086 16.2713C27.6088 16.271 27.6091 16.2708 27.6093 16.2705C27.8644 15.9654 28.1136 15.6738 28.357 15.3889C29.0297 14.6015 29.659 13.865 30.2523 13.0344L30.327 12.9297ZM20.6208 23.184L20.6206 23.1841L20.5743 23.2105C20.5445 23.2275 20.5019 23.2519 20.4502 23.2814C20.3469 23.3406 20.2077 23.4205 20.0639 23.5036C19.8599 23.6215 19.6494 23.7441 19.5181 23.8235C19.6324 23.8652 19.7598 23.9085 19.8879 23.9521L19.8989 23.9559C20.0758 24.016 20.2533 24.0766 20.3942 24.1327C20.5079 24.1285 20.6483 24.0706 20.795 23.9926C20.8679 23.9538 20.9395 23.9118 21.0074 23.872L21.0122 23.8691C21.0801 23.8293 21.1453 23.791 21.2016 23.7628C21.7926 23.4404 22.5458 22.9562 23.1376 22.5258L23.1387 22.525L24.11 21.8775C24.864 21.2849 25.6173 20.6391 26.3164 19.94L26.3177 19.9387L26.319 19.9375C26.8601 19.4505 27.3947 18.9691 27.8218 18.3818L27.8233 18.3797L27.825 18.3777C28.3154 17.7982 28.6566 17.1449 29.0085 16.4713C29.0786 16.3373 29.149 16.2024 29.2211 16.0672L29.2224 16.0647L29.224 16.0623C29.7043 15.3151 29.8644 14.8364 30.1334 14.0295C30.1459 13.9677 30.1637 13.8982 30.182 13.8266L30.1882 13.8023C30.2093 13.7196 30.2308 13.6336 30.2472 13.5481C30.2683 13.4382 30.2799 13.3349 30.274 13.2447C29.704 14.0289 29.0998 14.736 28.4606 15.4842C28.2176 15.7685 27.9696 16.0588 27.7165 16.3615L27.7158 16.3623L26.4167 17.8239L26.4145 17.8259C25.3299 18.8562 22.6259 20.857 21.3815 21.6687C20.6747 22.1579 19.9146 22.5378 19.1567 22.8627L18.2701 23.2919C18.3327 23.3355 18.4094 23.375 18.4965 23.4142C18.553 23.4396 18.6122 23.4642 18.6734 23.4896C18.6812 23.4929 18.6891 23.4962 18.697 23.4994C18.7607 23.5259 18.8262 23.5535 18.8906 23.5831C18.9017 23.5816 18.917 23.5785 18.9368 23.5729C18.9652 23.565 18.9992 23.5531 19.0374 23.538C19.1139 23.5078 19.2039 23.466 19.295 23.4203C19.4776 23.3287 19.6589 23.2243 19.7367 23.1724L19.7389 23.1709L21.4675 22.1986C21.5212 22.1627 21.5762 22.1245 21.6321 22.0856C21.7392 22.0111 21.8497 21.9342 21.9611 21.8674C22.1336 21.7639 22.3184 21.6777 22.5208 21.6488L22.6446 21.6311L22.5953 21.7461C22.4239 22.1459 22.0278 22.3723 21.6581 22.5835L21.6476 22.5895L21.6473 22.5897L20.6208 23.184ZM9.57948 23.1187C9.84345 23.0087 10.1543 23.0232 10.4195 23.2294L10.4229 23.2321L10.426 23.2352C10.5761 23.3853 10.6471 23.6056 10.7011 23.8216C10.7154 23.8788 10.7285 23.9357 10.7415 23.9917C10.779 24.1542 10.8149 24.3096 10.8728 24.4449C11.0017 24.7283 11.2358 24.9898 11.5136 25.2081C11.7913 25.4263 12.1089 25.5982 12.3991 25.7037L12.4606 25.7261L12.2293 26.5357C12.2325 26.7285 12.3305 26.9529 12.4788 27.1527C12.6279 27.3537 12.8195 27.5185 12.9928 27.5941C13.0725 27.6158 13.1675 27.6138 13.2743 27.6001C13.3395 27.5917 13.4018 27.5802 13.4653 27.5684C13.5113 27.56 13.5579 27.5514 13.6066 27.5438C13.7155 27.5268 13.8284 27.5161 13.927 27.5388C14.0311 27.5628 14.1181 27.6238 14.1683 27.7408C14.2132 27.8457 14.2262 27.9438 14.211 28.0343C14.1957 28.1246 14.1532 28.2022 14.0956 28.2675C13.9821 28.3961 13.806 28.4821 13.6397 28.5375L13.6379 28.5381L13.636 28.5386C13.0111 28.7091 12.5562 28.4779 12.0668 28.1517C11.618 27.8708 11.2837 27.3684 11.172 26.8655L11.1714 26.8628L11.171 26.8602C11.1434 26.6665 11.1433 26.5548 11.1433 26.4721C11.1433 26.3917 11.143 26.3476 11.1199 26.2782L11.119 26.2757L11.1184 26.273C11.1086 26.234 11.0792 26.1828 11.0301 26.1206C10.9821 26.0598 10.9203 25.9946 10.8533 25.9276C10.8212 25.8955 10.7875 25.8627 10.7538 25.8298C10.6505 25.7291 10.5462 25.6274 10.4821 25.5419L10.4815 25.5411C10.369 25.3864 10.2856 25.2155 10.2085 25.046C10.1928 25.0117 10.1775 24.9774 10.1622 24.9434C10.1014 24.8078 10.042 24.6751 9.97065 24.5483C9.79524 24.2365 9.55243 23.9682 9.06194 23.8391L8.99159 23.8206L9.01249 23.7509C9.09967 23.4603 9.31725 23.228 9.57948 23.1187ZM9.17064 23.7237C9.65854 23.8719 9.91278 24.1586 10.0932 24.4794C10.168 24.6123 10.2308 24.7524 10.2918 24.8885C10.3067 24.9219 10.3216 24.9551 10.3365 24.9878C10.4129 25.1558 10.4915 25.3156 10.5949 25.4579C10.6519 25.5338 10.7439 25.6235 10.8443 25.7215C10.8798 25.7561 10.9163 25.7917 10.9527 25.8281C11.0207 25.8961 11.0872 25.966 11.1405 26.0335C11.192 26.0988 11.2364 26.1681 11.2541 26.2362C11.2839 26.3268 11.2839 26.39 11.2839 26.47V26.4726C11.2839 26.5514 11.2839 26.6551 11.3098 26.8376C11.4147 27.3058 11.7279 27.7741 12.1422 28.033L12.1431 28.0336L12.1439 28.0342C12.626 28.3555 13.0349 28.5561 13.5971 28.4035C13.7542 28.3509 13.9014 28.275 13.9902 28.1744C14.0338 28.125 14.0622 28.0708 14.0723 28.0109C14.0824 27.9512 14.0751 27.8804 14.039 27.7962C14.0082 27.7242 13.9601 27.6907 13.8954 27.6759C13.8252 27.6597 13.7356 27.666 13.6283 27.6827C13.5884 27.689 13.5442 27.697 13.4986 27.7054C13.4302 27.7179 13.3585 27.731 13.2922 27.7395C13.178 27.7542 13.0584 27.7591 12.9499 27.7281L12.9456 27.7269L12.9415 27.7251C12.7378 27.6378 12.5261 27.4525 12.3658 27.2365C12.2059 27.021 12.0886 26.7633 12.0886 26.5261V26.5162L12.2896 25.8128C12.0029 25.7011 11.6969 25.5309 11.4268 25.3187C11.1377 25.0915 10.8857 24.8131 10.7445 24.5024L10.7438 24.5011C10.6803 24.3529 10.6403 24.1793 10.602 24.0132C10.5896 23.9595 10.5774 23.9066 10.5647 23.8557C10.5111 23.6413 10.4476 23.4578 10.3296 23.3377C10.1094 23.1684 9.85461 23.1564 9.63357 23.2485C9.43022 23.3333 9.25687 23.5059 9.17064 23.7237ZM25.6759 23.5931C25.7468 23.5967 25.8113 23.6318 25.8632 23.6642C25.8853 23.6781 25.9053 23.6914 25.924 23.7039C25.9574 23.7262 25.9871 23.7461 26.0194 23.7622L26.0361 23.7706L26.0465 23.7861C26.0985 23.8643 26.1507 23.9296 26.2049 23.9973L26.2056 23.9981C26.2592 24.0652 26.3149 24.1347 26.3706 24.2183L26.4259 24.3013L26.3291 24.3255C26.1164 24.3787 25.964 24.4301 25.8125 24.5308C25.6088 24.6842 25.4262 24.9431 25.2509 25.2261C25.1984 25.311 25.1465 25.3982 25.0949 25.4847C24.9775 25.6818 24.8624 25.8751 24.7482 26.0274C24.6178 26.2098 24.499 26.3198 24.407 26.4049C24.4006 26.4108 24.3943 26.4166 24.3882 26.4223C24.2939 26.5099 24.2421 26.5645 24.2203 26.6482L24.1122 27.3503L24.1115 27.3534C23.9994 27.8017 23.7191 28.196 23.324 28.4226C22.8289 28.752 22.1604 28.978 21.5398 28.8087L21.5331 28.8069L21.5269 28.8038C21.507 28.7938 21.4861 28.7836 21.4646 28.7732C21.3746 28.7293 21.2745 28.6805 21.1934 28.6225C21.0985 28.5548 21.0135 28.4634 21.003 28.3356C20.9733 28.2945 20.9613 28.2438 20.9613 28.1939C20.9613 28.1339 20.9783 28.0691 21.0093 28.0072C21.0591 27.9075 21.1365 27.8509 21.2268 27.8264C21.3137 27.8029 21.4088 27.8101 21.4979 27.8279C21.5876 27.8458 21.6777 27.876 21.7566 27.904C21.7736 27.9101 21.79 27.9159 21.8056 27.9216C21.8625 27.942 21.9101 27.9591 21.9486 27.9692C22.1936 27.9917 22.4836 27.8805 22.7153 27.6875C22.9483 27.4933 23.1086 27.2278 23.1086 26.9583C23.1086 26.8396 23.0605 26.703 22.9939 26.5631C22.961 26.494 22.9247 26.4263 22.8893 26.3614C22.8834 26.3507 22.8776 26.34 22.8718 26.3293C22.8429 26.2766 22.815 26.2256 22.7919 26.1794L22.7545 26.1046L22.8346 26.0806C23.3649 25.9215 23.7284 25.7123 24.041 25.2955L24.0417 25.2946L24.0424 25.2937C24.2011 25.0953 24.2742 24.8775 24.3505 24.6503C24.3736 24.5817 24.3969 24.5122 24.423 24.4421C24.534 24.1439 24.6909 23.8562 25.0884 23.6561C25.2694 23.5375 25.502 23.538 25.6759 23.5931ZM25.6416 23.7298C25.4936 23.6804 25.3016 23.6829 25.1626 23.7756L25.159 23.778L25.1551 23.78C24.7991 23.958 24.6596 24.2095 24.5548 24.4911C24.532 24.5524 24.5107 24.6162 24.4888 24.6814C24.4115 24.9123 24.3283 25.1611 24.1528 25.3808C23.8341 25.8053 23.4638 26.0276 22.9562 26.1902C22.9683 26.2128 22.9813 26.2365 22.9947 26.2611C23.0007 26.2719 23.0067 26.2829 23.0128 26.2941C23.0483 26.3592 23.0862 26.4299 23.1209 26.5026C23.1893 26.6463 23.2492 26.8068 23.2492 26.9583C23.2492 27.2829 23.0584 27.5846 22.8053 27.7955C22.5524 28.0063 22.2236 28.138 21.9295 28.1086L21.9244 28.1081L21.9194 28.1069C21.8726 28.0951 21.8142 28.0741 21.754 28.0525C21.7393 28.0472 21.7244 28.0418 21.7096 28.0365C21.6314 28.0088 21.5494 27.9816 21.4703 27.9658C21.3905 27.9498 21.3202 27.9469 21.2636 27.9622C21.2104 27.9766 21.1662 28.0077 21.1351 28.0701C21.112 28.1162 21.102 28.1595 21.102 28.1939C21.102 28.2289 21.1119 28.2491 21.1219 28.259L21.1425 28.2796V28.3087C21.1425 28.3828 21.1874 28.4455 21.2751 28.5081C21.3457 28.5585 21.4319 28.6006 21.521 28.6442C21.5417 28.6543 21.5626 28.6645 21.5835 28.6748C22.1487 28.8261 22.7727 28.6211 23.248 28.3043L23.25 28.3029L23.2521 28.3017C23.6112 28.0965 23.8699 27.7364 23.9742 27.3224L24.0823 26.6202L24.0831 26.6171C24.1157 26.4864 24.1989 26.4062 24.2925 26.3193C24.2986 26.3136 24.3048 26.3079 24.311 26.3021C24.4022 26.2177 24.5122 26.1159 24.6343 25.945L24.6352 25.9437C24.7449 25.7974 24.8538 25.6147 24.9692 25.4209C25.0217 25.3328 25.0755 25.2424 25.1314 25.1521C25.3068 24.8687 25.5019 24.588 25.7297 24.4171L25.7312 24.4159L25.7329 24.4148C25.8782 24.318 26.023 24.2627 26.1962 24.2149C26.163 24.17 26.1294 24.1281 26.0951 24.0851L26.0944 24.0843C26.044 24.0213 25.9919 23.9561 25.9396 23.8791C25.9047 23.8601 25.8683 23.8359 25.8356 23.8142C25.8188 23.8029 25.8029 23.7924 25.7886 23.7835C25.7353 23.7502 25.6962 23.7334 25.6638 23.7334H25.6524L25.6416 23.7298ZM14.8699 24.236L14.8949 24.2503C15.0899 24.362 15.5549 24.653 15.7635 24.7931L15.8854 24.8751L14.1755 25.4058L14.1724 25.4064C14.0063 25.442 13.8534 25.4855 13.7055 25.5276C13.6876 25.5327 13.6697 25.5378 13.6518 25.5429C13.4882 25.5893 13.3291 25.6326 13.1689 25.657C12.8446 25.7064 12.5182 25.6775 12.1258 25.4537L12.124 25.4528C12.0188 25.4002 11.9333 25.3575 11.8542 25.3C11.773 25.2409 11.7006 25.1679 11.6165 25.0557L11.5496 24.9665L13.8177 24.5129L14.8699 24.236ZM14.8498 24.3867L13.8494 24.6499L11.8003 25.0597C11.8479 25.1139 11.8914 25.1531 11.937 25.1863C12.0056 25.2362 12.0811 25.2742 12.1904 25.3288L12.1921 25.3297L12.1938 25.3306C12.5569 25.5381 12.8512 25.5631 13.1477 25.518C13.2982 25.4951 13.4496 25.4541 13.6135 25.4076C13.6312 25.4026 13.649 25.3975 13.667 25.3924C13.8137 25.3506 13.9701 25.3061 14.1398 25.2696L15.5613 24.8284C15.3419 24.6862 15.0181 24.4846 14.8498 24.3867ZM16.2196 24.9436L16.2489 24.97C16.2575 24.9777 16.2765 24.9906 16.3085 25.0084C16.3394 25.0255 16.3782 25.0449 16.4233 25.0662C16.5135 25.1088 16.625 25.1572 16.7401 25.2071L16.7426 25.2082C16.8563 25.2575 16.9732 25.3082 17.0734 25.3551C17.1728 25.4017 17.2616 25.4471 17.3147 25.4858L17.4892 25.6129H17.2733C17.2355 25.6129 17.1703 25.6273 17.0868 25.6536C17.0057 25.6792 16.9147 25.7136 16.8289 25.7484C16.7432 25.7831 16.6635 25.8179 16.6052 25.8441C16.5761 25.8571 16.5524 25.868 16.5359 25.8756C16.5277 25.8794 16.5213 25.8823 16.517 25.8844L16.5122 25.8867L16.511 25.8872L16.5107 25.8874L16.504 25.8905L16.4969 25.8922C16.2166 25.9595 15.9377 26.0317 15.659 26.1039C14.6028 26.3775 13.549 26.6504 12.429 26.6504H12.3414L12.3604 26.5649C12.4175 26.3081 12.52 26.1571 12.6642 26.0508C12.7711 25.9721 12.9014 25.9188 13.0395 25.8623C13.0784 25.8464 13.1179 25.8303 13.1576 25.8132L13.1628 25.811L13.8155 25.6478L15.167 25.2694C15.3083 25.2341 15.6294 25.1309 15.8808 25.0501C16.0119 25.008 16.124 24.9719 16.1818 24.9548L16.2196 24.9436ZM15.2021 25.4056L13.8506 25.784L13.2078 25.9447C13.1635 25.9637 13.1216 25.9808 13.0819 25.9971C12.9477 26.0521 12.8391 26.0966 12.7476 26.164C12.6502 26.2358 12.5722 26.3348 12.52 26.5092C13.5863 26.4951 14.5899 26.2353 15.6148 25.9699C15.8934 25.8978 16.1736 25.8253 16.4571 25.7571L16.4574 25.757C16.4619 25.7549 16.4685 25.7518 16.4769 25.7479C16.4938 25.7401 16.518 25.729 16.5477 25.7157C16.607 25.6891 16.6883 25.6536 16.776 25.6181C16.8635 25.5826 16.9584 25.5467 17.0445 25.5195C17.054 25.5165 17.0635 25.5136 17.073 25.5108C17.0543 25.5017 17.0346 25.4922 17.0138 25.4825C16.9154 25.4364 16.8001 25.3864 16.6855 25.3367L16.6841 25.3361C16.5697 25.2865 16.4559 25.2371 16.3633 25.1934C16.3169 25.1715 16.275 25.1506 16.2404 25.1314C16.2218 25.1211 16.2039 25.1105 16.188 25.0999C16.1305 25.1176 16.041 25.1464 15.9378 25.1796C15.684 25.2611 15.3477 25.3691 15.2021 25.4056ZM7.56279 25.0513H7.56729C7.79769 25.0513 7.97325 25.1096 8.14649 25.2251L8.21785 25.2727L8.15721 25.3334C8.13573 25.3548 8.11091 25.369 8.08998 25.3795C8.07976 25.3846 8.06927 25.3894 8.05987 25.3937L8.05887 25.3941C8.04884 25.3987 8.03977 25.4029 8.03089 25.4073C7.99683 25.4243 7.97163 25.4425 7.9543 25.4771L7.9492 25.4874L7.94113 25.4954C7.91503 25.5215 7.90669 25.5684 7.92616 25.6527C7.93889 25.7079 7.9591 25.7627 7.97995 25.8194C7.99059 25.8483 8.00141 25.8776 8.01148 25.9077C8.11946 26.1783 8.18951 26.4867 7.94383 26.7352C7.81377 26.8948 7.59627 26.9346 7.39774 26.9134C7.1978 26.8919 6.99326 26.8067 6.87102 26.6855C6.63554 26.4783 6.53691 26.1443 6.56544 25.8376C6.59407 25.5299 6.75304 25.2311 7.055 25.1103L7.05692 25.1096L7.05888 25.1089C7.2318 25.0513 7.40358 25.0513 7.56279 25.0513ZM7.10533 25.2417C6.86826 25.3375 6.7308 25.5783 6.70547 25.8506C6.68005 26.1238 6.76993 26.4102 6.96536 26.5812L6.96712 26.5828L6.96878 26.5844C7.06281 26.6784 7.23545 26.7546 7.41272 26.7735C7.59107 26.7927 7.75018 26.7521 7.8365 26.6442L7.83894 26.6412L7.84169 26.6384C8.02437 26.4558 7.98742 26.2262 7.88014 25.958L7.87938 25.9561L7.87872 25.9541C7.87134 25.932 7.86206 25.9067 7.85213 25.8796C7.82963 25.8183 7.80381 25.7479 7.78913 25.6843C7.7688 25.5962 7.76032 25.4857 7.83367 25.4044C7.86995 25.3383 7.92219 25.3046 7.96674 25.2822C7.84833 25.2218 7.72382 25.1919 7.56729 25.1919C7.40437 25.1919 7.25425 25.1924 7.10533 25.2417ZM9.40006 25.3214H9.40395C9.63041 25.3214 9.89752 25.3777 10.1301 25.4905C10.361 25.6024 10.5666 25.7745 10.657 26.0119C10.6886 26.0767 10.7027 26.1531 10.7097 26.2294C10.7167 26.3068 10.7167 26.3905 10.7167 26.4703V26.5424H9.9461L8.97375 26.5964H8.96642C8.85838 26.5964 8.74058 26.5964 8.61988 26.5591L8.60941 26.6429C8.58053 26.8739 8.49232 27.0396 8.3486 27.1606C8.20781 27.2791 8.01953 27.3498 7.80042 27.4046L7.7618 27.4143L7.64081 27.2933L7.66906 27.2462C7.75389 27.1048 7.8803 26.9504 8.02797 26.8238C8.17491 26.6979 8.34852 26.5947 8.52808 26.5648L8.60038 26.5527C8.54941 26.5353 8.49798 26.5108 8.44662 26.4766L8.44083 26.4727L8.43591 26.4678C8.40015 26.432 8.35848 26.3615 8.31791 26.2846C8.27558 26.2042 8.22933 26.1065 8.18513 26.0079C8.097 25.8113 8.01487 25.6063 7.98676 25.522L7.9658 25.4591L8.02735 25.4344C8.1741 25.3757 8.3192 25.3619 8.46537 25.3619C8.53552 25.3619 8.60705 25.3651 8.67902 25.3683L8.68713 25.3687C8.76113 25.372 8.83605 25.3753 8.91391 25.3754L9.40006 25.3214ZM9.40779 25.462L8.92167 25.516H8.91778C8.83497 25.516 8.75584 25.5126 8.68082 25.5092L8.67396 25.5089C8.60098 25.5056 8.53228 25.5025 8.46537 25.5025C8.35164 25.5025 8.24643 25.5115 8.14363 25.5426C8.18047 25.6402 8.24463 25.7969 8.31345 25.9504C8.35703 26.0476 8.40193 26.1423 8.44232 26.219C8.4814 26.2932 8.51226 26.3425 8.53111 26.3638C8.67063 26.4541 8.80971 26.4558 8.96985 26.4558L9.9422 26.4018H10.5759C10.5755 26.3457 10.5742 26.2921 10.5696 26.2421C10.5632 26.1711 10.5507 26.1138 10.5295 26.0714L10.5278 26.0681L10.5265 26.0646C10.4542 25.8716 10.2825 25.7206 10.0688 25.617C9.85706 25.5144 9.61271 25.4626 9.40779 25.462ZM27.103 25.7022C27.4835 25.5935 27.8846 25.5322 28.2342 25.7069L28.2366 25.7081L28.2389 25.7095C28.5285 25.8833 28.6762 26.1468 28.6982 26.426C28.7201 26.7034 28.6179 26.9918 28.4177 27.2206L28.4162 27.2224L28.4145 27.224C28.2352 27.4034 27.9429 27.4894 27.6883 27.4603C27.5599 27.4456 27.436 27.4011 27.3394 27.3191C27.2423 27.2367 27.1767 27.1197 27.1608 26.9686C27.1454 26.8882 27.1543 26.8007 27.1746 26.715C27.1954 26.6274 27.2293 26.537 27.2673 26.4505C27.3183 26.3347 27.3804 26.2186 27.4308 26.1243C27.442 26.1035 27.4525 26.0837 27.4623 26.0652L26.951 25.7456L27.103 25.7022ZM27.2976 25.7964L27.646 26.0142L27.6174 26.0714C27.5982 26.1098 27.5753 26.1526 27.5505 26.1989C27.5014 26.2906 27.445 26.3958 27.396 26.5071C27.3598 26.5894 27.3295 26.6712 27.3115 26.7474C27.2933 26.8242 27.2886 26.8907 27.2993 26.9445L27.3 26.9478L27.3004 26.9513C27.3121 27.0687 27.3611 27.1531 27.4303 27.2119C27.5009 27.2717 27.5964 27.3082 27.7043 27.3205C27.9216 27.3454 28.1684 27.27 28.3135 27.1262C28.4903 26.9232 28.5766 26.6722 28.5581 26.4371C28.5396 26.2039 28.4179 25.9818 28.1689 25.8315C27.9124 25.7043 27.6144 25.7211 27.2976 25.7964ZM26.6341 25.8616H26.6385C26.7181 25.8616 26.8171 25.8616 26.9102 25.8759C27.003 25.8902 27.1021 25.9203 27.1721 25.9902C27.2476 26.0657 27.2607 26.1724 27.2532 26.2618C27.2456 26.3531 27.2156 26.4427 27.1852 26.5035L27.1815 26.511C27.1035 26.6669 27.0316 26.8108 26.929 26.9134C26.8195 27.0229 26.6792 27.0826 26.4741 27.0826H26.4718L25.6615 27.0286C25.5895 27.0286 25.5182 27.0308 25.4471 27.033C25.1581 27.0418 24.8725 27.0506 24.5557 26.9148L24.5033 26.8924L24.5145 26.8364C24.5435 26.6913 24.6149 26.5212 24.7132 26.3668C24.8113 26.2127 24.94 26.0681 25.0875 25.9796L25.0941 25.9757L25.1014 25.9732C25.1914 25.9432 25.307 25.9293 25.4164 25.9225C25.526 25.9156 25.6352 25.9156 25.7158 25.9156L26.6341 25.8616ZM26.6382 26.0022L25.7199 26.0562H25.7178C25.6366 26.0562 25.5307 26.0562 25.4251 26.0628C25.322 26.0693 25.2246 26.0817 25.1532 26.1043C25.0331 26.1783 24.9212 26.3019 24.8318 26.4423C24.7543 26.5642 24.6965 26.6943 24.6657 26.8076C24.9289 26.9071 25.1635 26.9002 25.4301 26.8924C25.5051 26.8902 25.5825 26.8879 25.6638 26.8879H25.6662L26.4764 26.942C26.6481 26.9415 26.7503 26.8932 26.8296 26.814C26.9143 26.7292 26.9768 26.6059 27.0595 26.4406C27.0831 26.3934 27.1072 26.321 27.1131 26.2502C27.1191 26.1776 27.1052 26.1222 27.0726 26.0896C27.0345 26.0515 26.9716 26.0276 26.8888 26.0149C26.808 26.0024 26.7197 26.0022 26.6382 26.0022ZM7.83322 27.2506C8.0138 27.2007 8.15465 27.1401 8.25802 27.053C8.35015 26.9754 8.41628 26.8736 8.45115 26.7294C8.33841 26.7686 8.22483 26.8403 8.11948 26.9306C8.0071 27.0269 7.90787 27.1412 7.83322 27.2506ZM26.9139 27.0673L26.9625 27.1321C27.115 27.3354 27.2653 27.4367 27.5266 27.5412L27.5799 27.5625L27.5697 27.6191C27.54 27.7821 27.4636 27.8856 27.345 27.913C27.2362 27.9382 27.1191 27.8914 27.0226 27.827C26.9234 27.7609 26.8308 27.6664 26.766 27.5696C26.7335 27.5211 26.7068 27.4704 26.6901 27.4206C26.6736 27.3715 26.6653 27.3187 26.6753 27.2686L26.6794 27.2477L26.6945 27.2326C26.7296 27.1975 26.7652 27.1797 26.7921 27.1663L26.7938 27.1655C26.8208 27.152 26.8384 27.1427 26.8566 27.1246L26.9139 27.0673ZM26.8116 27.3169C26.812 27.3325 26.8155 27.3521 26.8234 27.3758C26.8352 27.4109 26.8554 27.4504 26.8828 27.4914C26.9379 27.5736 27.0175 27.6546 27.1006 27.71C27.1864 27.7673 27.2617 27.788 27.3133 27.776C27.3488 27.7678 27.3914 27.739 27.4184 27.6487C27.1939 27.5534 27.0398 27.4502 26.8934 27.2718C26.8808 27.2792 26.8689 27.2851 26.8584 27.2904L26.8567 27.2912C26.8384 27.3004 26.8244 27.3076 26.8116 27.3169Z" fill="black"/>
<path d="M18.118 19.1408C21.6317 19.1408 24.4802 16.2924 24.4802 12.7787C24.4802 9.26493 21.6317 6.4165 18.118 6.4165C14.6043 6.4165 11.7559 9.26493 11.7559 12.7787C11.7559 16.2924 14.6043 19.1408 18.118 19.1408ZM18.118 18.0604C15.201 18.0604 12.8362 15.6957 12.8362 12.7787C12.8362 9.86162 15.201 7.49689 18.118 7.49689C21.035 7.49689 23.3998 9.86162 23.3998 12.7787C23.3998 15.6957 21.035 18.0604 18.118 18.0604ZM18.0705 9.13995C16.3462 9.13995 14.9015 10.3409 14.5269 11.9517H16.2656C16.5794 11.2684 17.2698 10.7939 18.0705 10.7939C19.1661 10.7939 20.0553 11.6831 20.0553 12.7787C20.0553 13.8742 19.1661 14.7634 18.0705 14.7634C17.2698 14.7634 16.5793 14.2889 16.2656 13.6056H14.5269C14.9015 15.2164 16.3462 16.4174 18.0705 16.4174C20.0791 16.4174 21.7092 14.7872 21.7092 12.7787C21.7092 10.7701 20.079 9.13995 18.0705 9.13995Z" fill="white"/>
</g>
<defs>
<clipPath id="clip0_202_14183">
<rect width="37" height="37" fill="white"/>
</clipPath>
</defs>
</svg>
