<svg width="37" height="37" viewBox="0 0 37 37" fill="none" xmlns="http://www.w3.org/2000/svg">
<g clip-path="url(#clip0_202_14232)">
<path d="M18.0049 36.0024C27.946 36.0024 36.0049 27.9436 36.0049 18.0024C36.0049 8.06132 27.946 0.00244141 18.0049 0.00244141C8.06376 0.00244141 0.00488281 8.06132 0.00488281 18.0024C0.00488281 27.9436 8.06376 36.0024 18.0049 36.0024ZM18.0049 32.329C10.0926 32.329 3.67835 25.9148 3.67835 18.0024C3.67835 10.0901 10.0926 3.67591 18.0049 3.67591C25.9172 3.67591 32.3314 10.0901 32.3314 18.0024C32.3314 25.9148 25.9172 32.329 18.0049 32.329ZM17.8579 7.9004C13.0824 7.9004 9.07835 11.2433 8.04978 15.7249H12.862C13.7437 13.8147 15.6539 12.4922 17.8579 12.4922C20.9069 12.4922 23.3681 14.9535 23.3681 18.0024C23.3681 21.0514 20.9069 23.5126 17.8579 23.5126C15.6539 23.5126 13.7437 22.1902 12.862 20.3167H8.04978C9.07835 24.7616 13.0824 28.1045 17.8579 28.1045C23.4416 28.1045 27.96 23.5861 27.96 18.0024C27.96 12.4188 23.4416 7.9004 17.8579 7.9004Z" fill="black"/>
</g>
<defs>
<clipPath id="clip0_202_14232">
<rect width="37" height="37" fill="white"/>
</clipPath>
</defs>
</svg>
