<svg width="37" height="36" viewBox="0 0 37 36" fill="none" xmlns="http://www.w3.org/2000/svg">
<g clip-path="url(#clip0_202_15763)">
<path d="M32.7292 35.1863H26.8997L27.3088 30.2772H24.4451L24.036 35.1863H11.9679L11.5588 30.2772H8.69514L9.10423 35.1863H3.27468L0.00195312 13.9135L8.18377 0.822632H27.8201L36.002 13.9135L32.7292 35.1863ZM26.1838 7.36809H20.924L21.2747 9.82263H14.7292L15.0799 7.36809H9.82014L6.54741 13.9135L8.18377 27.0045H27.8201L29.4565 13.9135L26.1838 7.36809ZM23.3201 22.6599C22.8683 22.6599 22.502 21.2972 22.502 19.6163C22.502 17.9353 22.8683 16.5726 23.3201 16.5726C23.772 16.5726 24.1383 17.9353 24.1383 19.6163C24.1383 21.2972 23.772 22.6599 23.3201 22.6599ZM12.9906 22.9135C12.5387 22.9135 12.1724 21.5509 12.1724 19.8699C12.1724 18.1889 12.5387 16.8263 12.9906 16.8263C13.4424 16.8263 13.8088 18.1889 13.8088 19.8699C13.8088 21.5509 13.4424 22.9135 12.9906 22.9135Z" fill="#444444"/>
</g>
<defs>
<clipPath id="clip0_202_15763">
<rect width="37" height="36" fill="white"/>
</clipPath>
</defs>
</svg>
