<svg width="37" height="37" viewBox="0 0 37 37" fill="none" xmlns="http://www.w3.org/2000/svg">
<g clip-path="url(#clip0_202_15099)">
<path d="M18.0065 0.00317383C8.07968 0.00317383 0.00537109 8.07787 0.00537109 18.0031C0.00537109 27.929 8.07968 36.0032 18.0065 36.0032C27.9304 36.0032 36.0054 27.929 36.0054 18.0031C36.0054 8.07787 27.9304 0.00317383 18.0065 0.00317383Z" fill="#53A3DA"/>
<path d="M18.0859 1.58557C15.2195 1.58557 12.7884 6.17052 11.9104 12.5432C11.8824 12.7482 11.8552 12.9556 11.8311 13.1644C11.7112 14.1673 11.63 15.2102 11.5893 16.2838C11.5699 16.775 11.5603 17.2716 11.5603 17.7744C11.5603 18.2768 11.5699 18.7744 11.5893 19.2646C11.63 20.338 11.7112 21.3815 11.8311 22.3844C13.1752 22.5584 14.6123 22.6765 16.1112 22.7325C16.7592 22.7568 17.4168 22.7712 18.086 22.7712C18.7533 22.7712 19.4128 22.7566 20.0588 22.7325C21.5596 22.6765 22.9957 22.5584 24.3409 22.3844C24.4889 22.3655 24.6345 22.3448 24.7819 22.3234C30.3801 21.5373 34.2744 19.7972 34.2744 17.7744C34.2742 8.83309 27.0257 1.58557 18.0859 1.58557Z" fill="#F1606D"/>
<path d="M24.7816 13.225C24.6193 12.9882 24.4451 12.7613 24.2595 12.5433C22.7742 10.7925 20.5616 9.67993 18.0859 9.67993C17.2834 9.67993 16.5687 10.9084 16.1111 12.816C15.9294 13.5766 15.7882 14.4445 15.6973 15.3864C15.6257 16.1411 15.587 16.9439 15.587 17.7744C15.587 18.605 15.6257 19.4079 15.6973 20.162C16.4526 20.2337 17.2542 20.2722 18.0859 20.2722C18.9167 20.2722 19.7182 20.2337 20.4735 20.162C22.1338 20.0045 23.5671 19.6852 24.5825 19.2646C25.5852 18.8498 26.1786 18.3334 26.1786 17.7744C26.1784 16.0881 25.6635 14.5218 24.7816 13.225Z" fill="white"/>
</g>
<defs>
<clipPath id="clip0_202_15099">
<rect width="37" height="37" fill="white"/>
</clipPath>
</defs>
</svg>
