<svg width="37" height="36" viewBox="0 0 37 36" fill="none" xmlns="http://www.w3.org/2000/svg">
<g clip-path="url(#clip0_202_8942)">
<mask id="mask0_202_8942" style="mask-type:alpha" maskUnits="userSpaceOnUse" x="0" y="0" width="37" height="37">
<path d="M34.2877 0.000396729H1.71624C0.769465 0.000396729 0.00195312 0.767909 0.00195312 1.71468V34.2861C0.00195312 35.2329 0.769465 36.0004 1.71624 36.0004H34.2877C35.2344 36.0004 36.002 35.2329 36.002 34.2861V1.71468C36.002 0.767909 35.2344 0.000396729 34.2877 0.000396729Z" fill="#C4C4C4"/>
</mask>
<g mask="url(#mask0_202_8942)">
<path d="M34.2877 0.000396729H1.71624C0.769465 0.000396729 0.00195312 0.767909 0.00195312 1.71468V34.2861C0.00195312 35.2329 0.769465 36.0004 1.71624 36.0004H34.2877C35.2344 36.0004 36.002 35.2329 36.002 34.2861V1.71468C36.002 0.767909 35.2344 0.000396729 34.2877 0.000396729Z" fill="url(#paint0_linear_202_8942)"/>
<g filter="url(#filter0_f_202_8942)">
<path d="M0.00195312 10.449H24.002C24.9487 10.449 25.7162 11.2165 25.7162 12.1633V36.1633H0.00195312V10.449Z" fill="black" fill-opacity="0.24"/>
</g>
<g filter="url(#filter1_f_202_8942)">
<path d="M0.00195312 10.449H24.002C24.9487 10.449 25.7162 11.2165 25.7162 12.1633V36.1633H0.00195312V10.449Z" fill="black" fill-opacity="0.32"/>
</g>
<path d="M0.00195312 10.2861H24.002C24.9487 10.2861 25.7162 11.0536 25.7162 12.0004V36.0004H0.00195312V10.2861Z" fill="url(#paint1_linear_202_8942)"/>
<g filter="url(#filter2_f_202_8942)">
<path fill-rule="evenodd" clip-rule="evenodd" d="M7.71624 18.1633C11.9767 18.1633 15.4305 14.7094 15.4305 10.449C15.4305 6.18849 11.9767 2.73468 7.71624 2.73468C3.45577 2.73468 0.00195312 6.18849 0.00195312 10.449C0.00195312 14.7094 3.45577 18.1633 7.71624 18.1633ZM13.7162 20.7347H0.00195312V36.1633H15.4305V22.449C15.4305 21.5022 14.663 20.7347 13.7162 20.7347Z" fill="black" fill-opacity="0.24"/>
</g>
<g filter="url(#filter3_f_202_8942)">
<path fill-rule="evenodd" clip-rule="evenodd" d="M7.71624 18.8575C11.9767 18.8575 15.4305 15.4037 15.4305 11.1432C15.4305 6.88277 11.9767 3.42896 7.71624 3.42896C3.45577 3.42896 0.00195312 6.88277 0.00195312 11.1432C0.00195312 15.4037 3.45577 18.8575 7.71624 18.8575ZM13.7162 21.429H0.00195312V36.8575H15.4305V23.1432C15.4305 22.1965 14.663 21.429 13.7162 21.429Z" fill="black" fill-opacity="0.32"/>
</g>
<path fill-rule="evenodd" clip-rule="evenodd" d="M7.71624 18.0004C11.9767 18.0004 15.4305 14.5466 15.4305 10.2861C15.4305 6.02565 11.9767 2.57184 7.71624 2.57184C3.45577 2.57184 0.00195312 6.02565 0.00195312 10.2861C0.00195312 14.5466 3.45577 18.0004 7.71624 18.0004ZM13.7162 20.5718H0.00195312V36.0004H15.4305V22.2861C15.4305 21.3394 14.663 20.5718 13.7162 20.5718Z" fill="url(#paint2_linear_202_8942)"/>
</g>
</g>
<defs>
<filter id="filter0_f_202_8942" x="-0.758047" y="9.68897" width="27.2344" height="27.2343" filterUnits="userSpaceOnUse" color-interpolation-filters="sRGB">
<feFlood flood-opacity="0" result="BackgroundImageFix"/>
<feBlend mode="normal" in="SourceGraphic" in2="BackgroundImageFix" result="shape"/>
<feGaussianBlur stdDeviation="0.38" result="effect1_foregroundBlur_202_8942"/>
</filter>
<filter id="filter1_f_202_8942" x="-7.99805" y="2.44897" width="41.7144" height="41.7143" filterUnits="userSpaceOnUse" color-interpolation-filters="sRGB">
<feFlood flood-opacity="0" result="BackgroundImageFix"/>
<feBlend mode="normal" in="SourceGraphic" in2="BackgroundImageFix" result="shape"/>
<feGaussianBlur stdDeviation="4" result="effect1_foregroundBlur_202_8942"/>
</filter>
<filter id="filter2_f_202_8942" x="-0.758047" y="1.97468" width="16.9485" height="34.9486" filterUnits="userSpaceOnUse" color-interpolation-filters="sRGB">
<feFlood flood-opacity="0" result="BackgroundImageFix"/>
<feBlend mode="normal" in="SourceGraphic" in2="BackgroundImageFix" result="shape"/>
<feGaussianBlur stdDeviation="0.38" result="effect1_foregroundBlur_202_8942"/>
</filter>
<filter id="filter3_f_202_8942" x="-7.99805" y="-4.57104" width="31.4285" height="49.4286" filterUnits="userSpaceOnUse" color-interpolation-filters="sRGB">
<feFlood flood-opacity="0" result="BackgroundImageFix"/>
<feBlend mode="normal" in="SourceGraphic" in2="BackgroundImageFix" result="shape"/>
<feGaussianBlur stdDeviation="4" result="effect1_foregroundBlur_202_8942"/>
</filter>
<linearGradient id="paint0_linear_202_8942" x1="0.00195312" y1="0.000396729" x2="34.7197" y2="37.1972" gradientUnits="userSpaceOnUse">
<stop stop-color="#8661C5"/>
<stop offset="1" stop-color="#5C428B"/>
</linearGradient>
<linearGradient id="paint1_linear_202_8942" x1="0.00195312" y1="10.2861" x2="10.0097" y2="41.1012" gradientUnits="userSpaceOnUse">
<stop stop-color="#CD9EF0"/>
<stop offset="1" stop-color="#9F75D3"/>
</linearGradient>
<linearGradient id="paint2_linear_202_8942" x1="-0.47173" y1="2.57184" x2="25.9461" y2="18.0338" gradientUnits="userSpaceOnUse">
<stop stop-color="#F1D9FF"/>
<stop offset="1" stop-color="#E4B4FF"/>
</linearGradient>
<clipPath id="clip0_202_8942">
<rect width="37" height="36.0004" fill="white"/>
</clipPath>
</defs>
</svg>
