<svg width="41" height="28" viewBox="0 0 41 28" fill="none" xmlns="http://www.w3.org/2000/svg">
<g clip-path="url(#clip0_202_15558)">
<path d="M32.503 18.3776C32.503 20.0353 31.6298 20.8476 30.0031 20.8764V20.8775H10.0033V20.8764C8.3765 20.8476 7.50333 20.0353 7.50333 18.3776C7.50333 16.7202 8.3765 15.9075 10.0033 15.8791V15.8776H30.0031V15.8791C31.6298 15.9075 32.503 16.7202 32.503 18.3776ZM30.0031 22.1291V22.1277H10.0033V22.1291C8.3765 22.1575 7.50333 22.9702 7.50333 24.6279C7.50333 26.2857 8.3765 27.0976 10.0033 27.1264V27.1275H30.0031V27.1261C31.6298 27.0976 32.503 26.2853 32.503 24.6276C32.503 22.9698 31.6298 22.1575 30.0031 22.1291ZM36.2531 8.3804V8.37894C34.6263 8.40774 33.7532 9.22003 33.7532 10.8778V24.6276C33.7532 26.2853 34.6263 27.0973 36.2531 27.1261V27.1235C38.6932 27.0378 40.0032 24.6006 40.0032 19.6277V13.3777C40.0032 10.0626 38.6932 8.438 36.2531 8.3804ZM3.75325 8.37894V8.3804C1.31311 8.438 0.00317383 10.0626 0.00317383 13.3777V19.6277C0.00317383 24.6006 1.31311 27.0375 3.75325 27.1235V27.1261C5.38001 27.0976 6.25319 26.2853 6.25319 24.6276V10.8778C6.25319 9.22003 5.38001 8.40774 3.75325 8.37894ZM36.2531 7.1277C36.2531 2.98351 34.07 0.952789 30.0031 0.880967V0.877686H10.0033V0.880967C5.93673 0.952789 3.75325 2.98351 3.75325 7.1277V7.12988C6.19339 7.1729 7.50333 8.39133 7.50333 10.8778C7.50333 13.3642 8.81327 14.5826 11.2534 14.6257V14.6275H28.7533V14.6257C31.1931 14.5826 32.503 13.3642 32.503 10.8778C32.503 8.39133 33.813 7.1729 36.2531 7.12988V7.1277Z" fill="#E42528"/>
</g>
<defs>
<clipPath id="clip0_202_15558">
<rect width="41" height="28" fill="white"/>
</clipPath>
</defs>
</svg>
