<svg width="37" height="37" viewBox="0 0 37 37" fill="none" xmlns="http://www.w3.org/2000/svg">
<g clip-path="url(#clip0_202_15506)">
<path d="M18.0032 0.00256348C8.0787 0.00256348 0.00317383 8.0509 0.00317383 18.0026C0.00317383 27.927 8.05151 36.0026 18.0032 36.0026C27.9276 36.0026 36.0032 27.9542 36.0032 18.0026C36.0032 8.0509 27.9276 0.00256348 18.0032 0.00256348V0.00256348ZM30.1573 21.1566C30.1573 22.2443 29.5319 23.1959 28.3083 23.4134C26.1875 23.7941 21.7282 24.0116 18.0032 24.0116C14.2781 24.0116 9.81888 23.7941 7.69804 23.4134C6.47447 23.1959 5.84909 22.2443 5.84909 21.1566V14.1415C5.84909 13.0539 6.692 12.0479 7.69804 11.8847C8.32342 11.776 9.79169 11.6672 10.9337 11.6672C11.3687 11.6672 11.7222 11.9935 11.7222 12.5101V17.4316L18.0304 17.2956L24.3385 17.4316V12.5101C24.3385 11.9935 24.692 11.6672 25.127 11.6672C26.269 11.6672 27.7373 11.776 28.3627 11.8847C29.3959 12.0479 30.2116 13.0539 30.2116 14.1415C30.1573 16.4527 30.1573 18.8183 30.1573 21.1566Z" fill="#ED2226"/>
</g>
<defs>
<clipPath id="clip0_202_15506">
<rect width="37" height="37" fill="white"/>
</clipPath>
</defs>
</svg>
