<svg width="34" height="37" viewBox="0 0 34 37" fill="none" xmlns="http://www.w3.org/2000/svg">
<g clip-path="url(#clip0_202_13354)">
<path d="M14.0719 7.10608C14.0719 7.10608 14.0718 3.76703 14.0809 2.40706C14.091 0.938734 15.0175 0.0131333 16.4713 0.0088093C17.8994 0.00448528 19.3275 0.00461631 20.7556 0.0088093C22.1946 0.0128712 23.1238 0.927334 23.1272 2.35845C23.1337 5.14665 23.1295 7.93485 23.1281 10.7231C23.1279 10.8699 23.1116 11.0167 23.0991 11.2244C20.4733 9.7039 17.7938 9.47839 15.0697 10.74C13.0332 11.683 11.622 13.2547 10.8717 15.3742C9.37563 19.6012 11.6641 24.2445 15.9421 25.6929C20.3817 27.1958 25.4036 24.7256 26.6483 19.6536C26.7757 19.7597 30.987 23.8954 32.9673 25.8581C34.0433 26.9246 34.0416 28.2019 32.9702 29.2678C31.994 30.2391 31.0147 31.2075 30.033 32.1732C28.9419 33.2463 27.6485 33.2506 26.5651 32.186C25.5829 31.2208 23.1164 28.8096 23.1164 28.8096C23.1164 28.8096 23.1363 32.2781 23.1269 33.6892C23.1177 35.0613 22.1871 35.9924 20.8196 35.9999C19.3575 36.008 17.8954 36.0069 16.4333 36.0003C15.0379 35.9943 14.0994 35.0703 14.0826 33.6665C14.0665 32.3067 14.0788 28.838 14.0788 28.838C14.0788 28.838 11.7004 31.2262 10.7297 32.1789C9.63926 33.2492 8.35149 33.2493 7.26184 32.1808C6.29077 31.2284 5.32311 30.2727 4.35741 29.3149C3.23304 28.1995 3.2371 26.9519 4.34038 25.8328C5.4126 24.7453 7.6341 22.4692 7.6341 22.4692C7.6341 22.4692 4.11684 22.4751 2.63777 22.4675C1.11532 22.4597 0.238991 21.5776 0.234012 20.0553C0.229426 18.6782 0.228378 17.3011 0.234405 15.9239C0.240825 14.4386 1.1245 13.5527 2.61785 13.5427C4.06286 13.5331 7.65231 13.5403 7.65231 13.5403C7.65231 13.5403 5.22811 11.1169 4.22874 10.1208C3.20304 9.0984 3.19439 7.80461 4.21066 6.78781C5.23231 5.76577 6.25854 4.74832 7.29407 3.7403C8.26894 2.79151 9.61462 2.78233 10.5748 3.74672C11.6884 4.86507 14.0719 7.10608 14.0719 7.10608Z" fill="#9B1B1D"/>
<path d="M21.9514 17.9871C21.953 19.8167 20.492 21.27 18.6453 21.2759C16.7694 21.2818 15.3002 19.8263 15.3075 17.9697C15.3147 16.1527 16.8044 14.6878 18.6374 14.6952C20.476 14.7027 21.9497 16.1667 21.9514 17.9871Z" fill="#9B1B1D"/>
</g>
<defs>
<clipPath id="clip0_202_13354">
<rect width="34" height="37" fill="white"/>
</clipPath>
</defs>
</svg>
