<svg width="32" height="37" viewBox="0 0 32 37" fill="none" xmlns="http://www.w3.org/2000/svg">
<g clip-path="url(#clip0_202_15680)">
<path d="M31.2841 8.65247L16.4825 0.132797C16.1851 -0.0384062 15.8186 -0.0384062 15.5212 0.132797L0.719345 8.65247C0.420623 8.82432 0.236572 9.14295 0.236572 9.48761V26.5215C0.236572 26.8662 0.420623 27.1848 0.719345 27.3566L15.5212 35.876C15.8186 36.0472 16.1851 36.0472 16.4825 35.876L31.2844 27.3566C31.5831 27.1848 31.7671 26.8662 31.7671 26.5215V9.48761C31.7671 9.14263 31.5831 8.82432 31.2841 8.65247ZM14.8736 5.59395C14.8736 5.65144 14.8431 5.70444 14.7933 5.73303L9.49856 8.78385C9.39127 8.84552 9.39127 9.00034 9.49856 9.06233L14.793 12.1096C14.8428 12.1382 14.8736 12.1912 14.8736 12.2487V14.4628C14.8736 14.5864 14.74 14.6635 14.633 14.6019L5.0097 9.0633C4.90242 9.00162 4.90242 8.8468 5.0097 8.78481L14.6327 3.24015C14.7397 3.17847 14.8736 3.25589 14.8736 3.37923V5.59395ZM26.9937 9.0633L17.3626 14.6067C17.2557 14.6683 17.1221 14.5909 17.1221 14.4676V12.2535C17.1221 12.196 17.1529 12.143 17.2027 12.1144L22.5052 9.06265C22.6124 9.00098 22.6124 8.84616 22.5052 8.78417L17.2027 5.72885C17.1529 5.70027 17.1224 5.64727 17.1224 5.58977V3.37505C17.1224 3.25139 17.256 3.1743 17.3633 3.23597L26.9943 8.78513C27.101 8.8468 27.101 9.00162 26.9937 9.0633Z" fill="#405261"/>
</g>
<defs>
<clipPath id="clip0_202_15680">
<rect width="32" height="37" fill="white"/>
</clipPath>
</defs>
</svg>
