<svg width="37" height="28" viewBox="0 0 37 28" fill="none" xmlns="http://www.w3.org/2000/svg">
<path d="M0.112568 17.4897C0.0825684 17.1897 0.0375684 16.9047 0.00756836 16.5897V15.4347C0.0225684 15.3747 0.0375684 15.3147 0.0375684 15.2397C0.0975684 14.1447 0.337568 13.0647 0.727568 12.0297C1.82257 9.25474 3.68257 7.19974 6.33757 5.86474C7.70257 5.18974 9.20257 4.79974 10.7326 4.72474C11.4826 4.67974 12.2326 4.72474 12.9826 4.82974C13.0576 4.84474 13.1476 4.81474 13.1926 4.75474C14.2576 3.65974 15.5026 2.75974 16.8826 2.08474C18.2026 1.42474 19.6426 1.00474 21.1276 0.839741C21.4726 0.794741 21.8326 0.764741 22.1776 0.734741H23.2726C23.3476 0.749741 23.4076 0.764741 23.4826 0.764741C24.0226 0.824741 24.5476 0.869741 25.0876 0.959741C26.7226 1.22974 28.2976 1.82974 29.6926 2.72974C31.8376 4.04974 33.5626 5.93974 34.6876 8.18974C35.3476 9.50974 35.7676 10.9347 35.9326 12.4047C35.9326 12.7197 35.9776 13.0647 36.0076 13.4097V14.5947C35.9926 14.6547 35.9776 14.7147 35.9776 14.7897C35.9176 15.2997 35.8726 15.8247 35.7976 16.3347C35.5276 17.9847 34.9276 19.5747 34.0276 20.9847C32.7076 23.1147 30.8026 24.8397 28.5526 25.9347C27.2326 26.5947 25.8076 27.0147 24.3376 27.1797C24.0526 27.2247 23.7826 27.2547 23.5126 27.2697H10.6576C10.6126 27.2697 10.5676 27.2547 10.5226 27.2547C9.24757 27.1797 8.00257 26.8797 6.84757 26.3697C4.29757 25.2597 2.40757 23.4447 1.16257 20.9847C0.607568 19.8747 0.262568 18.7047 0.112568 17.4897ZM14.8397 24.6076C14.0897 23.9026 13.3247 23.1976 12.6047 22.4776C12.4547 22.3426 12.3347 22.2676 12.1247 22.2826C11.3597 22.2976 10.5947 22.2976 9.87469 22.1326C6.18469 21.2926 4.03969 17.2876 5.40469 13.7476C6.45469 10.9576 9.42469 9.26262 12.3647 9.78762C13.6847 10.0276 14.8097 10.5826 15.7697 11.5726C16.9247 12.7576 18.0947 13.9126 19.2797 15.0976C19.5197 15.3526 19.8647 15.4876 20.2247 15.4426C20.7047 15.3676 21.0797 15.1276 21.2447 14.6626C21.4097 14.1976 21.3347 13.7626 20.9897 13.4176C19.7597 12.1726 18.5747 10.9126 17.2997 9.71262C15.5147 8.06262 13.5047 7.23762 11.3297 7.26762C10.4297 7.28262 9.54469 7.43262 8.68969 7.70262C4.33969 9.02262 1.81969 13.4926 2.79469 17.9026C3.67969 21.9076 7.23469 24.7576 11.3297 24.7576H14.7797C14.8397 24.7576 14.8997 24.7426 14.9897 24.7426C14.9447 24.6976 14.8847 24.6526 14.8397 24.6076ZM21.7329 3.30415C20.3379 3.42415 18.9879 3.82915 17.7729 4.48915C17.0979 4.81915 16.4679 5.23915 15.8829 5.71915C15.8979 5.74915 15.9129 5.76415 15.9129 5.76415C16.6479 6.12415 17.3529 6.55915 18.0279 7.05415C18.0729 7.08415 18.1779 7.06915 18.2229 7.03915C20.0379 5.86915 22.0479 5.46415 24.1629 5.83915C26.2479 6.21415 27.9579 7.26415 29.2779 8.92915C30.7479 10.8192 31.3029 12.9492 30.9129 15.3342C30.6429 16.9242 29.9979 18.3642 28.9329 19.5492C26.9529 21.7392 24.4629 22.6392 21.5529 22.2492C19.7829 22.0242 18.1479 21.2142 16.9029 19.9392C15.2529 18.2742 13.6029 16.6242 11.9529 14.9592C11.7279 14.7342 11.4879 14.5542 11.1729 14.5242C10.6329 14.4342 10.1079 14.7342 9.86794 15.2292C9.65794 15.6792 9.68794 16.1742 10.1379 16.6242C11.9829 18.4392 13.7979 20.2542 15.6429 22.0692C15.9579 22.3842 16.2879 22.6692 16.6479 22.9242C18.0129 23.8992 19.5129 24.4392 21.1629 24.6492C22.4379 24.8292 23.7279 24.7842 25.0029 24.4992C27.3579 23.9892 29.4729 22.6992 30.9879 20.8242C32.3079 19.2492 33.0729 17.4342 33.3579 15.4242C33.5229 14.2692 33.4779 13.0842 33.2529 11.9442C32.9079 10.0842 32.0679 8.37415 30.8229 6.96415C28.6329 4.51915 25.9179 3.28915 22.7379 3.27415C22.3929 3.27415 22.0629 3.28915 21.7329 3.30415Z" fill="white"/>
<path d="M0.112568 17.4897C0.0825684 17.1897 0.0375684 16.9047 0.00756836 16.5897V15.4347C0.0225684 15.3747 0.0375684 15.3147 0.0375684 15.2397C0.0975684 14.1447 0.337568 13.0647 0.727568 12.0297C1.82257 9.25474 3.68257 7.19974 6.33757 5.86474C7.70257 5.18974 9.20257 4.79974 10.7326 4.72474C11.4826 4.67974 12.2326 4.72474 12.9826 4.82974C13.0576 4.84474 13.1476 4.81474 13.1926 4.75474C14.2576 3.65974 15.5026 2.75974 16.8826 2.08474C18.2026 1.42474 19.6426 1.00474 21.1276 0.839741C21.4726 0.794741 21.8326 0.764741 22.1776 0.734741H23.2726C23.3476 0.749741 23.4076 0.764741 23.4826 0.764741C24.0226 0.824741 24.5476 0.869741 25.0876 0.959741C26.7226 1.22974 28.2976 1.82974 29.6926 2.72974C31.8376 4.04974 33.5626 5.93974 34.6876 8.18974C35.3476 9.50974 35.7676 10.9347 35.9326 12.4047C35.9326 12.7197 35.9776 13.0647 36.0076 13.4097V14.5947C35.9926 14.6547 35.9776 14.7147 35.9776 14.7897C35.9176 15.2997 35.8726 15.8247 35.7976 16.3347C35.5276 17.9847 34.9276 19.5747 34.0276 20.9847C32.7076 23.1147 30.8026 24.8397 28.5526 25.9347C27.2326 26.5947 25.8076 27.0147 24.3376 27.1797C24.0526 27.2247 23.7826 27.2547 23.5126 27.2697H10.6576C10.6126 27.2697 10.5676 27.2547 10.5226 27.2547C9.24757 27.1797 8.00257 26.8797 6.84757 26.3697C4.29757 25.2597 2.40757 23.4447 1.16257 20.9847C0.607568 19.8747 0.262568 18.7047 0.112568 17.4897ZM14.8397 24.6076C14.0897 23.9026 13.3247 23.1976 12.6047 22.4776C12.4547 22.3426 12.3347 22.2676 12.1247 22.2826C11.3597 22.2976 10.5947 22.2976 9.87469 22.1326C6.18469 21.2926 4.03969 17.2876 5.40469 13.7476C6.45469 10.9576 9.42469 9.26262 12.3647 9.78762C13.6847 10.0276 14.8097 10.5826 15.7697 11.5726C16.9247 12.7576 18.0947 13.9126 19.2797 15.0976C19.5197 15.3526 19.8647 15.4876 20.2247 15.4426C20.7047 15.3676 21.0797 15.1276 21.2447 14.6626C21.4097 14.1976 21.3347 13.7626 20.9897 13.4176C19.7597 12.1726 18.5747 10.9126 17.2997 9.71262C15.5147 8.06262 13.5047 7.23762 11.3297 7.26762C10.4297 7.28262 9.54469 7.43262 8.68969 7.70262C4.33969 9.02262 1.81969 13.4926 2.79469 17.9026C3.67969 21.9076 7.23469 24.7576 11.3297 24.7576H14.7797C14.8397 24.7576 14.8997 24.7426 14.9897 24.7426C14.9447 24.6976 14.8847 24.6526 14.8397 24.6076ZM21.7329 3.30415C20.3379 3.42415 18.9879 3.82915 17.7729 4.48915C17.0979 4.81915 16.4679 5.23915 15.8829 5.71915C15.8979 5.74915 15.9129 5.76415 15.9129 5.76415C16.6479 6.12415 17.3529 6.55915 18.0279 7.05415C18.0729 7.08415 18.1779 7.06915 18.2229 7.03915C20.0379 5.86915 22.0479 5.46415 24.1629 5.83915C26.2479 6.21415 27.9579 7.26415 29.2779 8.92915C30.7479 10.8192 31.3029 12.9492 30.9129 15.3342C30.6429 16.9242 29.9979 18.3642 28.9329 19.5492C26.9529 21.7392 24.4629 22.6392 21.5529 22.2492C19.7829 22.0242 18.1479 21.2142 16.9029 19.9392C15.2529 18.2742 13.6029 16.6242 11.9529 14.9592C11.7279 14.7342 11.4879 14.5542 11.1729 14.5242C10.6329 14.4342 10.1079 14.7342 9.86794 15.2292C9.65794 15.6792 9.68794 16.1742 10.1379 16.6242C11.9829 18.4392 13.7979 20.2542 15.6429 22.0692C15.9579 22.3842 16.2879 22.6692 16.6479 22.9242C18.0129 23.8992 19.5129 24.4392 21.1629 24.6492C22.4379 24.8292 23.7279 24.7842 25.0029 24.4992C27.3579 23.9892 29.4729 22.6992 30.9879 20.8242C32.3079 19.2492 33.0729 17.4342 33.3579 15.4242C33.5229 14.2692 33.4779 13.0842 33.2529 11.9442C32.9079 10.0842 32.0679 8.37415 30.8229 6.96415C28.6329 4.51915 25.9179 3.28915 22.7379 3.27415C22.3929 3.27415 22.0629 3.28915 21.7329 3.30415Z" fill="url(#paint0_radial_202_10519)"/>
<path d="M0.112568 17.4897C0.0825684 17.1897 0.0375684 16.9047 0.00756836 16.5897V15.4347C0.0225684 15.3747 0.0375684 15.3147 0.0375684 15.2397C0.0975684 14.1447 0.337568 13.0647 0.727568 12.0297C1.82257 9.25474 3.68257 7.19974 6.33757 5.86474C7.70257 5.18974 9.20257 4.79974 10.7326 4.72474C11.4826 4.67974 12.2326 4.72474 12.9826 4.82974C13.0576 4.84474 13.1476 4.81474 13.1926 4.75474C14.2576 3.65974 15.5026 2.75974 16.8826 2.08474C18.2026 1.42474 19.6426 1.00474 21.1276 0.839741C21.4726 0.794741 21.8326 0.764741 22.1776 0.734741H23.2726C23.3476 0.749741 23.4076 0.764741 23.4826 0.764741C24.0226 0.824741 24.5476 0.869741 25.0876 0.959741C26.7226 1.22974 28.2976 1.82974 29.6926 2.72974C31.8376 4.04974 33.5626 5.93974 34.6876 8.18974C35.3476 9.50974 35.7676 10.9347 35.9326 12.4047C35.9326 12.7197 35.9776 13.0647 36.0076 13.4097V14.5947C35.9926 14.6547 35.9776 14.7147 35.9776 14.7897C35.9176 15.2997 35.8726 15.8247 35.7976 16.3347C35.5276 17.9847 34.9276 19.5747 34.0276 20.9847C32.7076 23.1147 30.8026 24.8397 28.5526 25.9347C27.2326 26.5947 25.8076 27.0147 24.3376 27.1797C24.0526 27.2247 23.7826 27.2547 23.5126 27.2697H10.6576C10.6126 27.2697 10.5676 27.2547 10.5226 27.2547C9.24757 27.1797 8.00257 26.8797 6.84757 26.3697C4.29757 25.2597 2.40757 23.4447 1.16257 20.9847C0.607568 19.8747 0.262568 18.7047 0.112568 17.4897ZM14.8397 24.6076C14.0897 23.9026 13.3247 23.1976 12.6047 22.4776C12.4547 22.3426 12.3347 22.2676 12.1247 22.2826C11.3597 22.2976 10.5947 22.2976 9.87469 22.1326C6.18469 21.2926 4.03969 17.2876 5.40469 13.7476C6.45469 10.9576 9.42469 9.26262 12.3647 9.78762C13.6847 10.0276 14.8097 10.5826 15.7697 11.5726C16.9247 12.7576 18.0947 13.9126 19.2797 15.0976C19.5197 15.3526 19.8647 15.4876 20.2247 15.4426C20.7047 15.3676 21.0797 15.1276 21.2447 14.6626C21.4097 14.1976 21.3347 13.7626 20.9897 13.4176C19.7597 12.1726 18.5747 10.9126 17.2997 9.71262C15.5147 8.06262 13.5047 7.23762 11.3297 7.26762C10.4297 7.28262 9.54469 7.43262 8.68969 7.70262C4.33969 9.02262 1.81969 13.4926 2.79469 17.9026C3.67969 21.9076 7.23469 24.7576 11.3297 24.7576H14.7797C14.8397 24.7576 14.8997 24.7426 14.9897 24.7426C14.9447 24.6976 14.8847 24.6526 14.8397 24.6076ZM21.7329 3.30415C20.3379 3.42415 18.9879 3.82915 17.7729 4.48915C17.0979 4.81915 16.4679 5.23915 15.8829 5.71915C15.8979 5.74915 15.9129 5.76415 15.9129 5.76415C16.6479 6.12415 17.3529 6.55915 18.0279 7.05415C18.0729 7.08415 18.1779 7.06915 18.2229 7.03915C20.0379 5.86915 22.0479 5.46415 24.1629 5.83915C26.2479 6.21415 27.9579 7.26415 29.2779 8.92915C30.7479 10.8192 31.3029 12.9492 30.9129 15.3342C30.6429 16.9242 29.9979 18.3642 28.9329 19.5492C26.9529 21.7392 24.4629 22.6392 21.5529 22.2492C19.7829 22.0242 18.1479 21.2142 16.9029 19.9392C15.2529 18.2742 13.6029 16.6242 11.9529 14.9592C11.7279 14.7342 11.4879 14.5542 11.1729 14.5242C10.6329 14.4342 10.1079 14.7342 9.86794 15.2292C9.65794 15.6792 9.68794 16.1742 10.1379 16.6242C11.9829 18.4392 13.7979 20.2542 15.6429 22.0692C15.9579 22.3842 16.2879 22.6692 16.6479 22.9242C18.0129 23.8992 19.5129 24.4392 21.1629 24.6492C22.4379 24.8292 23.7279 24.7842 25.0029 24.4992C27.3579 23.9892 29.4729 22.6992 30.9879 20.8242C32.3079 19.2492 33.0729 17.4342 33.3579 15.4242C33.5229 14.2692 33.4779 13.0842 33.2529 11.9442C32.9079 10.0842 32.0679 8.37415 30.8229 6.96415C28.6329 4.51915 25.9179 3.28915 22.7379 3.27415C22.3929 3.27415 22.0629 3.28915 21.7329 3.30415Z" fill="url(#paint1_radial_202_10519)"/>
<path d="M0.112568 17.4897C0.0825684 17.1897 0.0375684 16.9047 0.00756836 16.5897V15.4347C0.0225684 15.3747 0.0375684 15.3147 0.0375684 15.2397C0.0975684 14.1447 0.337568 13.0647 0.727568 12.0297C1.82257 9.25474 3.68257 7.19974 6.33757 5.86474C7.70257 5.18974 9.20257 4.79974 10.7326 4.72474C11.4826 4.67974 12.2326 4.72474 12.9826 4.82974C13.0576 4.84474 13.1476 4.81474 13.1926 4.75474C14.2576 3.65974 15.5026 2.75974 16.8826 2.08474C18.2026 1.42474 19.6426 1.00474 21.1276 0.839741C21.4726 0.794741 21.8326 0.764741 22.1776 0.734741H23.2726C23.3476 0.749741 23.4076 0.764741 23.4826 0.764741C24.0226 0.824741 24.5476 0.869741 25.0876 0.959741C26.7226 1.22974 28.2976 1.82974 29.6926 2.72974C31.8376 4.04974 33.5626 5.93974 34.6876 8.18974C35.3476 9.50974 35.7676 10.9347 35.9326 12.4047C35.9326 12.7197 35.9776 13.0647 36.0076 13.4097V14.5947C35.9926 14.6547 35.9776 14.7147 35.9776 14.7897C35.9176 15.2997 35.8726 15.8247 35.7976 16.3347C35.5276 17.9847 34.9276 19.5747 34.0276 20.9847C32.7076 23.1147 30.8026 24.8397 28.5526 25.9347C27.2326 26.5947 25.8076 27.0147 24.3376 27.1797C24.0526 27.2247 23.7826 27.2547 23.5126 27.2697H10.6576C10.6126 27.2697 10.5676 27.2547 10.5226 27.2547C9.24757 27.1797 8.00257 26.8797 6.84757 26.3697C4.29757 25.2597 2.40757 23.4447 1.16257 20.9847C0.607568 19.8747 0.262568 18.7047 0.112568 17.4897ZM14.8397 24.6076C14.0897 23.9026 13.3247 23.1976 12.6047 22.4776C12.4547 22.3426 12.3347 22.2676 12.1247 22.2826C11.3597 22.2976 10.5947 22.2976 9.87469 22.1326C6.18469 21.2926 4.03969 17.2876 5.40469 13.7476C6.45469 10.9576 9.42469 9.26262 12.3647 9.78762C13.6847 10.0276 14.8097 10.5826 15.7697 11.5726C16.9247 12.7576 18.0947 13.9126 19.2797 15.0976C19.5197 15.3526 19.8647 15.4876 20.2247 15.4426C20.7047 15.3676 21.0797 15.1276 21.2447 14.6626C21.4097 14.1976 21.3347 13.7626 20.9897 13.4176C19.7597 12.1726 18.5747 10.9126 17.2997 9.71262C15.5147 8.06262 13.5047 7.23762 11.3297 7.26762C10.4297 7.28262 9.54469 7.43262 8.68969 7.70262C4.33969 9.02262 1.81969 13.4926 2.79469 17.9026C3.67969 21.9076 7.23469 24.7576 11.3297 24.7576H14.7797C14.8397 24.7576 14.8997 24.7426 14.9897 24.7426C14.9447 24.6976 14.8847 24.6526 14.8397 24.6076ZM21.7329 3.30415C20.3379 3.42415 18.9879 3.82915 17.7729 4.48915C17.0979 4.81915 16.4679 5.23915 15.8829 5.71915C15.8979 5.74915 15.9129 5.76415 15.9129 5.76415C16.6479 6.12415 17.3529 6.55915 18.0279 7.05415C18.0729 7.08415 18.1779 7.06915 18.2229 7.03915C20.0379 5.86915 22.0479 5.46415 24.1629 5.83915C26.2479 6.21415 27.9579 7.26415 29.2779 8.92915C30.7479 10.8192 31.3029 12.9492 30.9129 15.3342C30.6429 16.9242 29.9979 18.3642 28.9329 19.5492C26.9529 21.7392 24.4629 22.6392 21.5529 22.2492C19.7829 22.0242 18.1479 21.2142 16.9029 19.9392C15.2529 18.2742 13.6029 16.6242 11.9529 14.9592C11.7279 14.7342 11.4879 14.5542 11.1729 14.5242C10.6329 14.4342 10.1079 14.7342 9.86794 15.2292C9.65794 15.6792 9.68794 16.1742 10.1379 16.6242C11.9829 18.4392 13.7979 20.2542 15.6429 22.0692C15.9579 22.3842 16.2879 22.6692 16.6479 22.9242C18.0129 23.8992 19.5129 24.4392 21.1629 24.6492C22.4379 24.8292 23.7279 24.7842 25.0029 24.4992C27.3579 23.9892 29.4729 22.6992 30.9879 20.8242C32.3079 19.2492 33.0729 17.4342 33.3579 15.4242C33.5229 14.2692 33.4779 13.0842 33.2529 11.9442C32.9079 10.0842 32.0679 8.37415 30.8229 6.96415C28.6329 4.51915 25.9179 3.28915 22.7379 3.27415C22.3929 3.27415 22.0629 3.28915 21.7329 3.30415Z" fill="url(#paint2_radial_202_10519)"/>
<path d="M0.112568 17.4897C0.0825684 17.1897 0.0375684 16.9047 0.00756836 16.5897V15.4347C0.0225684 15.3747 0.0375684 15.3147 0.0375684 15.2397C0.0975684 14.1447 0.337568 13.0647 0.727568 12.0297C1.82257 9.25474 3.68257 7.19974 6.33757 5.86474C7.70257 5.18974 9.20257 4.79974 10.7326 4.72474C11.4826 4.67974 12.2326 4.72474 12.9826 4.82974C13.0576 4.84474 13.1476 4.81474 13.1926 4.75474C14.2576 3.65974 15.5026 2.75974 16.8826 2.08474C18.2026 1.42474 19.6426 1.00474 21.1276 0.839741C21.4726 0.794741 21.8326 0.764741 22.1776 0.734741H23.2726C23.3476 0.749741 23.4076 0.764741 23.4826 0.764741C24.0226 0.824741 24.5476 0.869741 25.0876 0.959741C26.7226 1.22974 28.2976 1.82974 29.6926 2.72974C31.8376 4.04974 33.5626 5.93974 34.6876 8.18974C35.3476 9.50974 35.7676 10.9347 35.9326 12.4047C35.9326 12.7197 35.9776 13.0647 36.0076 13.4097V14.5947C35.9926 14.6547 35.9776 14.7147 35.9776 14.7897C35.9176 15.2997 35.8726 15.8247 35.7976 16.3347C35.5276 17.9847 34.9276 19.5747 34.0276 20.9847C32.7076 23.1147 30.8026 24.8397 28.5526 25.9347C27.2326 26.5947 25.8076 27.0147 24.3376 27.1797C24.0526 27.2247 23.7826 27.2547 23.5126 27.2697H10.6576C10.6126 27.2697 10.5676 27.2547 10.5226 27.2547C9.24757 27.1797 8.00257 26.8797 6.84757 26.3697C4.29757 25.2597 2.40757 23.4447 1.16257 20.9847C0.607568 19.8747 0.262568 18.7047 0.112568 17.4897ZM14.8397 24.6076C14.0897 23.9026 13.3247 23.1976 12.6047 22.4776C12.4547 22.3426 12.3347 22.2676 12.1247 22.2826C11.3597 22.2976 10.5947 22.2976 9.87469 22.1326C6.18469 21.2926 4.03969 17.2876 5.40469 13.7476C6.45469 10.9576 9.42469 9.26262 12.3647 9.78762C13.6847 10.0276 14.8097 10.5826 15.7697 11.5726C16.9247 12.7576 18.0947 13.9126 19.2797 15.0976C19.5197 15.3526 19.8647 15.4876 20.2247 15.4426C20.7047 15.3676 21.0797 15.1276 21.2447 14.6626C21.4097 14.1976 21.3347 13.7626 20.9897 13.4176C19.7597 12.1726 18.5747 10.9126 17.2997 9.71262C15.5147 8.06262 13.5047 7.23762 11.3297 7.26762C10.4297 7.28262 9.54469 7.43262 8.68969 7.70262C4.33969 9.02262 1.81969 13.4926 2.79469 17.9026C3.67969 21.9076 7.23469 24.7576 11.3297 24.7576H14.7797C14.8397 24.7576 14.8997 24.7426 14.9897 24.7426C14.9447 24.6976 14.8847 24.6526 14.8397 24.6076ZM21.7329 3.30415C20.3379 3.42415 18.9879 3.82915 17.7729 4.48915C17.0979 4.81915 16.4679 5.23915 15.8829 5.71915C15.8979 5.74915 15.9129 5.76415 15.9129 5.76415C16.6479 6.12415 17.3529 6.55915 18.0279 7.05415C18.0729 7.08415 18.1779 7.06915 18.2229 7.03915C20.0379 5.86915 22.0479 5.46415 24.1629 5.83915C26.2479 6.21415 27.9579 7.26415 29.2779 8.92915C30.7479 10.8192 31.3029 12.9492 30.9129 15.3342C30.6429 16.9242 29.9979 18.3642 28.9329 19.5492C26.9529 21.7392 24.4629 22.6392 21.5529 22.2492C19.7829 22.0242 18.1479 21.2142 16.9029 19.9392C15.2529 18.2742 13.6029 16.6242 11.9529 14.9592C11.7279 14.7342 11.4879 14.5542 11.1729 14.5242C10.6329 14.4342 10.1079 14.7342 9.86794 15.2292C9.65794 15.6792 9.68794 16.1742 10.1379 16.6242C11.9829 18.4392 13.7979 20.2542 15.6429 22.0692C15.9579 22.3842 16.2879 22.6692 16.6479 22.9242C18.0129 23.8992 19.5129 24.4392 21.1629 24.6492C22.4379 24.8292 23.7279 24.7842 25.0029 24.4992C27.3579 23.9892 29.4729 22.6992 30.9879 20.8242C32.3079 19.2492 33.0729 17.4342 33.3579 15.4242C33.5229 14.2692 33.4779 13.0842 33.2529 11.9442C32.9079 10.0842 32.0679 8.37415 30.8229 6.96415C28.6329 4.51915 25.9179 3.28915 22.7379 3.27415C22.3929 3.27415 22.0629 3.28915 21.7329 3.30415Z" fill="url(#paint3_radial_202_10519)"/>
<path d="M0.112568 17.4897C0.0825684 17.1897 0.0375684 16.9047 0.00756836 16.5897V15.4347C0.0225684 15.3747 0.0375684 15.3147 0.0375684 15.2397C0.0975684 14.1447 0.337568 13.0647 0.727568 12.0297C1.82257 9.25474 3.68257 7.19974 6.33757 5.86474C7.70257 5.18974 9.20257 4.79974 10.7326 4.72474C11.4826 4.67974 12.2326 4.72474 12.9826 4.82974C13.0576 4.84474 13.1476 4.81474 13.1926 4.75474C14.2576 3.65974 15.5026 2.75974 16.8826 2.08474C18.2026 1.42474 19.6426 1.00474 21.1276 0.839741C21.4726 0.794741 21.8326 0.764741 22.1776 0.734741H23.2726C23.3476 0.749741 23.4076 0.764741 23.4826 0.764741C24.0226 0.824741 24.5476 0.869741 25.0876 0.959741C26.7226 1.22974 28.2976 1.82974 29.6926 2.72974C31.8376 4.04974 33.5626 5.93974 34.6876 8.18974C35.3476 9.50974 35.7676 10.9347 35.9326 12.4047C35.9326 12.7197 35.9776 13.0647 36.0076 13.4097V14.5947C35.9926 14.6547 35.9776 14.7147 35.9776 14.7897C35.9176 15.2997 35.8726 15.8247 35.7976 16.3347C35.5276 17.9847 34.9276 19.5747 34.0276 20.9847C32.7076 23.1147 30.8026 24.8397 28.5526 25.9347C27.2326 26.5947 25.8076 27.0147 24.3376 27.1797C24.0526 27.2247 23.7826 27.2547 23.5126 27.2697H10.6576C10.6126 27.2697 10.5676 27.2547 10.5226 27.2547C9.24757 27.1797 8.00257 26.8797 6.84757 26.3697C4.29757 25.2597 2.40757 23.4447 1.16257 20.9847C0.607568 19.8747 0.262568 18.7047 0.112568 17.4897ZM14.8397 24.6076C14.0897 23.9026 13.3247 23.1976 12.6047 22.4776C12.4547 22.3426 12.3347 22.2676 12.1247 22.2826C11.3597 22.2976 10.5947 22.2976 9.87469 22.1326C6.18469 21.2926 4.03969 17.2876 5.40469 13.7476C6.45469 10.9576 9.42469 9.26262 12.3647 9.78762C13.6847 10.0276 14.8097 10.5826 15.7697 11.5726C16.9247 12.7576 18.0947 13.9126 19.2797 15.0976C19.5197 15.3526 19.8647 15.4876 20.2247 15.4426C20.7047 15.3676 21.0797 15.1276 21.2447 14.6626C21.4097 14.1976 21.3347 13.7626 20.9897 13.4176C19.7597 12.1726 18.5747 10.9126 17.2997 9.71262C15.5147 8.06262 13.5047 7.23762 11.3297 7.26762C10.4297 7.28262 9.54469 7.43262 8.68969 7.70262C4.33969 9.02262 1.81969 13.4926 2.79469 17.9026C3.67969 21.9076 7.23469 24.7576 11.3297 24.7576H14.7797C14.8397 24.7576 14.8997 24.7426 14.9897 24.7426C14.9447 24.6976 14.8847 24.6526 14.8397 24.6076ZM21.7329 3.30415C20.3379 3.42415 18.9879 3.82915 17.7729 4.48915C17.0979 4.81915 16.4679 5.23915 15.8829 5.71915C15.8979 5.74915 15.9129 5.76415 15.9129 5.76415C16.6479 6.12415 17.3529 6.55915 18.0279 7.05415C18.0729 7.08415 18.1779 7.06915 18.2229 7.03915C20.0379 5.86915 22.0479 5.46415 24.1629 5.83915C26.2479 6.21415 27.9579 7.26415 29.2779 8.92915C30.7479 10.8192 31.3029 12.9492 30.9129 15.3342C30.6429 16.9242 29.9979 18.3642 28.9329 19.5492C26.9529 21.7392 24.4629 22.6392 21.5529 22.2492C19.7829 22.0242 18.1479 21.2142 16.9029 19.9392C15.2529 18.2742 13.6029 16.6242 11.9529 14.9592C11.7279 14.7342 11.4879 14.5542 11.1729 14.5242C10.6329 14.4342 10.1079 14.7342 9.86794 15.2292C9.65794 15.6792 9.68794 16.1742 10.1379 16.6242C11.9829 18.4392 13.7979 20.2542 15.6429 22.0692C15.9579 22.3842 16.2879 22.6692 16.6479 22.9242C18.0129 23.8992 19.5129 24.4392 21.1629 24.6492C22.4379 24.8292 23.7279 24.7842 25.0029 24.4992C27.3579 23.9892 29.4729 22.6992 30.9879 20.8242C32.3079 19.2492 33.0729 17.4342 33.3579 15.4242C33.5229 14.2692 33.4779 13.0842 33.2529 11.9442C32.9079 10.0842 32.0679 8.37415 30.8229 6.96415C28.6329 4.51915 25.9179 3.28915 22.7379 3.27415C22.3929 3.27415 22.0629 3.28915 21.7329 3.30415Z" fill="url(#paint4_radial_202_10519)"/>
<path d="M0.112568 17.4897C0.0825684 17.1897 0.0375684 16.9047 0.00756836 16.5897V15.4347C0.0225684 15.3747 0.0375684 15.3147 0.0375684 15.2397C0.0975684 14.1447 0.337568 13.0647 0.727568 12.0297C1.82257 9.25474 3.68257 7.19974 6.33757 5.86474C7.70257 5.18974 9.20257 4.79974 10.7326 4.72474C11.4826 4.67974 12.2326 4.72474 12.9826 4.82974C13.0576 4.84474 13.1476 4.81474 13.1926 4.75474C14.2576 3.65974 15.5026 2.75974 16.8826 2.08474C18.2026 1.42474 19.6426 1.00474 21.1276 0.839741C21.4726 0.794741 21.8326 0.764741 22.1776 0.734741H23.2726C23.3476 0.749741 23.4076 0.764741 23.4826 0.764741C24.0226 0.824741 24.5476 0.869741 25.0876 0.959741C26.7226 1.22974 28.2976 1.82974 29.6926 2.72974C31.8376 4.04974 33.5626 5.93974 34.6876 8.18974C35.3476 9.50974 35.7676 10.9347 35.9326 12.4047C35.9326 12.7197 35.9776 13.0647 36.0076 13.4097V14.5947C35.9926 14.6547 35.9776 14.7147 35.9776 14.7897C35.9176 15.2997 35.8726 15.8247 35.7976 16.3347C35.5276 17.9847 34.9276 19.5747 34.0276 20.9847C32.7076 23.1147 30.8026 24.8397 28.5526 25.9347C27.2326 26.5947 25.8076 27.0147 24.3376 27.1797C24.0526 27.2247 23.7826 27.2547 23.5126 27.2697H10.6576C10.6126 27.2697 10.5676 27.2547 10.5226 27.2547C9.24757 27.1797 8.00257 26.8797 6.84757 26.3697C4.29757 25.2597 2.40757 23.4447 1.16257 20.9847C0.607568 19.8747 0.262568 18.7047 0.112568 17.4897ZM14.8397 24.6076C14.0897 23.9026 13.3247 23.1976 12.6047 22.4776C12.4547 22.3426 12.3347 22.2676 12.1247 22.2826C11.3597 22.2976 10.5947 22.2976 9.87469 22.1326C6.18469 21.2926 4.03969 17.2876 5.40469 13.7476C6.45469 10.9576 9.42469 9.26262 12.3647 9.78762C13.6847 10.0276 14.8097 10.5826 15.7697 11.5726C16.9247 12.7576 18.0947 13.9126 19.2797 15.0976C19.5197 15.3526 19.8647 15.4876 20.2247 15.4426C20.7047 15.3676 21.0797 15.1276 21.2447 14.6626C21.4097 14.1976 21.3347 13.7626 20.9897 13.4176C19.7597 12.1726 18.5747 10.9126 17.2997 9.71262C15.5147 8.06262 13.5047 7.23762 11.3297 7.26762C10.4297 7.28262 9.54469 7.43262 8.68969 7.70262C4.33969 9.02262 1.81969 13.4926 2.79469 17.9026C3.67969 21.9076 7.23469 24.7576 11.3297 24.7576H14.7797C14.8397 24.7576 14.8997 24.7426 14.9897 24.7426C14.9447 24.6976 14.8847 24.6526 14.8397 24.6076ZM21.7329 3.30415C20.3379 3.42415 18.9879 3.82915 17.7729 4.48915C17.0979 4.81915 16.4679 5.23915 15.8829 5.71915C15.8979 5.74915 15.9129 5.76415 15.9129 5.76415C16.6479 6.12415 17.3529 6.55915 18.0279 7.05415C18.0729 7.08415 18.1779 7.06915 18.2229 7.03915C20.0379 5.86915 22.0479 5.46415 24.1629 5.83915C26.2479 6.21415 27.9579 7.26415 29.2779 8.92915C30.7479 10.8192 31.3029 12.9492 30.9129 15.3342C30.6429 16.9242 29.9979 18.3642 28.9329 19.5492C26.9529 21.7392 24.4629 22.6392 21.5529 22.2492C19.7829 22.0242 18.1479 21.2142 16.9029 19.9392C15.2529 18.2742 13.6029 16.6242 11.9529 14.9592C11.7279 14.7342 11.4879 14.5542 11.1729 14.5242C10.6329 14.4342 10.1079 14.7342 9.86794 15.2292C9.65794 15.6792 9.68794 16.1742 10.1379 16.6242C11.9829 18.4392 13.7979 20.2542 15.6429 22.0692C15.9579 22.3842 16.2879 22.6692 16.6479 22.9242C18.0129 23.8992 19.5129 24.4392 21.1629 24.6492C22.4379 24.8292 23.7279 24.7842 25.0029 24.4992C27.3579 23.9892 29.4729 22.6992 30.9879 20.8242C32.3079 19.2492 33.0729 17.4342 33.3579 15.4242C33.5229 14.2692 33.4779 13.0842 33.2529 11.9442C32.9079 10.0842 32.0679 8.37415 30.8229 6.96415C28.6329 4.51915 25.9179 3.28915 22.7379 3.27415C22.3929 3.27415 22.0629 3.28915 21.7329 3.30415Z" fill="url(#paint5_radial_202_10519)"/>
<path d="M0.112568 17.4897C0.0825684 17.1897 0.0375684 16.9047 0.00756836 16.5897V15.4347C0.0225684 15.3747 0.0375684 15.3147 0.0375684 15.2397C0.0975684 14.1447 0.337568 13.0647 0.727568 12.0297C1.82257 9.25474 3.68257 7.19974 6.33757 5.86474C7.70257 5.18974 9.20257 4.79974 10.7326 4.72474C11.4826 4.67974 12.2326 4.72474 12.9826 4.82974C13.0576 4.84474 13.1476 4.81474 13.1926 4.75474C14.2576 3.65974 15.5026 2.75974 16.8826 2.08474C18.2026 1.42474 19.6426 1.00474 21.1276 0.839741C21.4726 0.794741 21.8326 0.764741 22.1776 0.734741H23.2726C23.3476 0.749741 23.4076 0.764741 23.4826 0.764741C24.0226 0.824741 24.5476 0.869741 25.0876 0.959741C26.7226 1.22974 28.2976 1.82974 29.6926 2.72974C31.8376 4.04974 33.5626 5.93974 34.6876 8.18974C35.3476 9.50974 35.7676 10.9347 35.9326 12.4047C35.9326 12.7197 35.9776 13.0647 36.0076 13.4097V14.5947C35.9926 14.6547 35.9776 14.7147 35.9776 14.7897C35.9176 15.2997 35.8726 15.8247 35.7976 16.3347C35.5276 17.9847 34.9276 19.5747 34.0276 20.9847C32.7076 23.1147 30.8026 24.8397 28.5526 25.9347C27.2326 26.5947 25.8076 27.0147 24.3376 27.1797C24.0526 27.2247 23.7826 27.2547 23.5126 27.2697H10.6576C10.6126 27.2697 10.5676 27.2547 10.5226 27.2547C9.24757 27.1797 8.00257 26.8797 6.84757 26.3697C4.29757 25.2597 2.40757 23.4447 1.16257 20.9847C0.607568 19.8747 0.262568 18.7047 0.112568 17.4897ZM14.8397 24.6076C14.0897 23.9026 13.3247 23.1976 12.6047 22.4776C12.4547 22.3426 12.3347 22.2676 12.1247 22.2826C11.3597 22.2976 10.5947 22.2976 9.87469 22.1326C6.18469 21.2926 4.03969 17.2876 5.40469 13.7476C6.45469 10.9576 9.42469 9.26262 12.3647 9.78762C13.6847 10.0276 14.8097 10.5826 15.7697 11.5726C16.9247 12.7576 18.0947 13.9126 19.2797 15.0976C19.5197 15.3526 19.8647 15.4876 20.2247 15.4426C20.7047 15.3676 21.0797 15.1276 21.2447 14.6626C21.4097 14.1976 21.3347 13.7626 20.9897 13.4176C19.7597 12.1726 18.5747 10.9126 17.2997 9.71262C15.5147 8.06262 13.5047 7.23762 11.3297 7.26762C10.4297 7.28262 9.54469 7.43262 8.68969 7.70262C4.33969 9.02262 1.81969 13.4926 2.79469 17.9026C3.67969 21.9076 7.23469 24.7576 11.3297 24.7576H14.7797C14.8397 24.7576 14.8997 24.7426 14.9897 24.7426C14.9447 24.6976 14.8847 24.6526 14.8397 24.6076ZM21.7329 3.30415C20.3379 3.42415 18.9879 3.82915 17.7729 4.48915C17.0979 4.81915 16.4679 5.23915 15.8829 5.71915C15.8979 5.74915 15.9129 5.76415 15.9129 5.76415C16.6479 6.12415 17.3529 6.55915 18.0279 7.05415C18.0729 7.08415 18.1779 7.06915 18.2229 7.03915C20.0379 5.86915 22.0479 5.46415 24.1629 5.83915C26.2479 6.21415 27.9579 7.26415 29.2779 8.92915C30.7479 10.8192 31.3029 12.9492 30.9129 15.3342C30.6429 16.9242 29.9979 18.3642 28.9329 19.5492C26.9529 21.7392 24.4629 22.6392 21.5529 22.2492C19.7829 22.0242 18.1479 21.2142 16.9029 19.9392C15.2529 18.2742 13.6029 16.6242 11.9529 14.9592C11.7279 14.7342 11.4879 14.5542 11.1729 14.5242C10.6329 14.4342 10.1079 14.7342 9.86794 15.2292C9.65794 15.6792 9.68794 16.1742 10.1379 16.6242C11.9829 18.4392 13.7979 20.2542 15.6429 22.0692C15.9579 22.3842 16.2879 22.6692 16.6479 22.9242C18.0129 23.8992 19.5129 24.4392 21.1629 24.6492C22.4379 24.8292 23.7279 24.7842 25.0029 24.4992C27.3579 23.9892 29.4729 22.6992 30.9879 20.8242C32.3079 19.2492 33.0729 17.4342 33.3579 15.4242C33.5229 14.2692 33.4779 13.0842 33.2529 11.9442C32.9079 10.0842 32.0679 8.37415 30.8229 6.96415C28.6329 4.51915 25.9179 3.28915 22.7379 3.27415C22.3929 3.27415 22.0629 3.28915 21.7329 3.30415Z" fill="url(#paint6_radial_202_10519)"/>
<defs>
<radialGradient id="paint0_radial_202_10519" cx="0" cy="0" r="1" gradientTransform="matrix(14.7 11.5665 -15.6923 11.3979 29.9326 23.4142)" gradientUnits="userSpaceOnUse">
<stop stop-color="#68E048"/>
<stop offset="1" stop-color="#5CE049" stop-opacity="0"/>
</radialGradient>
<radialGradient id="paint1_radial_202_10519" cx="0" cy="0" r="1" gradientTransform="matrix(-16.125 10.9429 -14.8462 -12.5028 5.70757 23.3008)" gradientUnits="userSpaceOnUse">
<stop stop-color="#308CFE"/>
<stop offset="1" stop-color="#2F8BFF" stop-opacity="0"/>
</radialGradient>
<radialGradient id="paint2_radial_202_10519" cx="0" cy="0" r="1" gradientTransform="matrix(12.75 1.30407 -1.76923 9.88593 29.2576 15.5898)" gradientUnits="userSpaceOnUse">
<stop stop-color="#FDD511"/>
<stop offset="1" stop-color="#FDD20D" stop-opacity="0"/>
</radialGradient>
<radialGradient id="paint3_radial_202_10519" cx="0" cy="0" r="1" gradientTransform="matrix(-11.475 -11.1696 15.1538 -8.89734 6.15757 10.3168)" gradientUnits="userSpaceOnUse">
<stop stop-color="#F928C2"/>
<stop offset="1" stop-color="#F922BC" stop-opacity="0"/>
</radialGradient>
<radialGradient id="paint4_radial_202_10519" cx="0" cy="0" r="1" gradientTransform="matrix(8.55 -12.5871 17.0769 6.62939 20.4076 5.15724)" gradientUnits="userSpaceOnUse">
<stop stop-color="#F90700"/>
<stop offset="1" stop-color="#F90700" stop-opacity="0"/>
</radialGradient>
<radialGradient id="paint5_radial_202_10519" cx="0" cy="0" r="1" gradientTransform="matrix(4.725 -7.71103 10.4615 3.66361 34.0576 4.59026)" gradientUnits="userSpaceOnUse">
<stop stop-color="#FB4200"/>
<stop offset="1" stop-color="#FB4300" stop-opacity="0"/>
</radialGradient>
<radialGradient id="paint6_radial_202_10519" cx="0" cy="0" r="1" gradientTransform="matrix(-7.05 -5.44308 7.38462 -5.46634 3.75757 3.96657)" gradientUnits="userSpaceOnUse">
<stop stop-color="#FE0D88"/>
<stop offset="1" stop-color="#FE0D88" stop-opacity="0"/>
</radialGradient>
</defs>
</svg>
