<svg width="37" height="37" viewBox="0 0 37 37" fill="none" xmlns="http://www.w3.org/2000/svg">
<g clip-path="url(#clip0_202_10471)">
<path d="M0.0012207 13.0308C0.0012207 8.47034 0.0012207 6.19013 0.888739 4.44827C1.66942 2.9161 2.91512 1.6704 4.4473 0.889716C6.18915 0.00219727 8.46936 0.00219727 13.0298 0.00219727H22.9727C27.5331 0.00219727 29.8133 0.00219727 31.5551 0.889716C33.0873 1.6704 34.333 2.9161 35.1137 4.44827C36.0012 6.19013 36.0012 8.47034 36.0012 13.0308V22.9736C36.0012 27.5341 36.0012 29.8143 35.1137 31.5561C34.333 33.0883 33.0873 34.334 31.5551 35.1147C29.8133 36.0022 27.5331 36.0022 22.9727 36.0022H13.0298C8.46936 36.0022 6.18915 36.0022 4.4473 35.1147C2.91512 34.334 1.66942 33.0883 0.888739 31.5561C0.0012207 29.8143 0.0012207 27.5341 0.0012207 22.9736V13.0308Z" fill="white"/>
<path d="M0.0012207 13.0308C0.0012207 8.47034 0.0012207 6.19013 0.888739 4.44827C1.66942 2.9161 2.91512 1.6704 4.4473 0.889716C6.18915 0.00219727 8.46936 0.00219727 13.0298 0.00219727H22.9727C27.5331 0.00219727 29.8133 0.00219727 31.5551 0.889716C33.0873 1.6704 34.333 2.9161 35.1137 4.44827C36.0012 6.19013 36.0012 8.47034 36.0012 13.0308V22.9736C36.0012 27.5341 36.0012 29.8143 35.1137 31.5561C34.333 33.0883 33.0873 34.334 31.5551 35.1147C29.8133 36.0022 27.5331 36.0022 22.9727 36.0022H13.0298C8.46936 36.0022 6.18915 36.0022 4.4473 35.1147C2.91512 34.334 1.66942 33.0883 0.888739 31.5561C0.0012207 29.8143 0.0012207 27.5341 0.0012207 22.9736V13.0308Z" fill="url(#paint0_radial_202_10471)"/>
<path d="M0.0012207 13.0308C0.0012207 8.47034 0.0012207 6.19013 0.888739 4.44827C1.66942 2.9161 2.91512 1.6704 4.4473 0.889716C6.18915 0.00219727 8.46936 0.00219727 13.0298 0.00219727H22.9727C27.5331 0.00219727 29.8133 0.00219727 31.5551 0.889716C33.0873 1.6704 34.333 2.9161 35.1137 4.44827C36.0012 6.19013 36.0012 8.47034 36.0012 13.0308V22.9736C36.0012 27.5341 36.0012 29.8143 35.1137 31.5561C34.333 33.0883 33.0873 34.334 31.5551 35.1147C29.8133 36.0022 27.5331 36.0022 22.9727 36.0022H13.0298C8.46936 36.0022 6.18915 36.0022 4.4473 35.1147C2.91512 34.334 1.66942 33.0883 0.888739 31.5561C0.0012207 29.8143 0.0012207 27.5341 0.0012207 22.9736V13.0308Z" fill="url(#paint1_radial_202_10471)"/>
<path d="M0.0012207 13.0308C0.0012207 8.47034 0.0012207 6.19013 0.888739 4.44827C1.66942 2.9161 2.91512 1.6704 4.4473 0.889716C6.18915 0.00219727 8.46936 0.00219727 13.0298 0.00219727H22.9727C27.5331 0.00219727 29.8133 0.00219727 31.5551 0.889716C33.0873 1.6704 34.333 2.9161 35.1137 4.44827C36.0012 6.19013 36.0012 8.47034 36.0012 13.0308V22.9736C36.0012 27.5341 36.0012 29.8143 35.1137 31.5561C34.333 33.0883 33.0873 34.334 31.5551 35.1147C29.8133 36.0022 27.5331 36.0022 22.9727 36.0022H13.0298C8.46936 36.0022 6.18915 36.0022 4.4473 35.1147C2.91512 34.334 1.66942 33.0883 0.888739 31.5561C0.0012207 29.8143 0.0012207 27.5341 0.0012207 22.9736V13.0308Z" fill="url(#paint2_radial_202_10471)"/>
<path d="M0.0012207 13.0308C0.0012207 8.47034 0.0012207 6.19013 0.888739 4.44827C1.66942 2.9161 2.91512 1.6704 4.4473 0.889716C6.18915 0.00219727 8.46936 0.00219727 13.0298 0.00219727H22.9727C27.5331 0.00219727 29.8133 0.00219727 31.5551 0.889716C33.0873 1.6704 34.333 2.9161 35.1137 4.44827C36.0012 6.19013 36.0012 8.47034 36.0012 13.0308V22.9736C36.0012 27.5341 36.0012 29.8143 35.1137 31.5561C34.333 33.0883 33.0873 34.334 31.5551 35.1147C29.8133 36.0022 27.5331 36.0022 22.9727 36.0022H13.0298C8.46936 36.0022 6.18915 36.0022 4.4473 35.1147C2.91512 34.334 1.66942 33.0883 0.888739 31.5561C0.0012207 29.8143 0.0012207 27.5341 0.0012207 22.9736V13.0308Z" fill="url(#paint3_radial_202_10471)"/>
<path d="M0.0012207 13.0308C0.0012207 8.47034 0.0012207 6.19013 0.888739 4.44827C1.66942 2.9161 2.91512 1.6704 4.4473 0.889716C6.18915 0.00219727 8.46936 0.00219727 13.0298 0.00219727H22.9727C27.5331 0.00219727 29.8133 0.00219727 31.5551 0.889716C33.0873 1.6704 34.333 2.9161 35.1137 4.44827C36.0012 6.19013 36.0012 8.47034 36.0012 13.0308V22.9736C36.0012 27.5341 36.0012 29.8143 35.1137 31.5561C34.333 33.0883 33.0873 34.334 31.5551 35.1147C29.8133 36.0022 27.5331 36.0022 22.9727 36.0022H13.0298C8.46936 36.0022 6.18915 36.0022 4.4473 35.1147C2.91512 34.334 1.66942 33.0883 0.888739 31.5561C0.0012207 29.8143 0.0012207 27.5341 0.0012207 22.9736V13.0308Z" fill="url(#paint4_radial_202_10471)"/>
<path d="M0.0012207 13.0308C0.0012207 8.47034 0.0012207 6.19013 0.888739 4.44827C1.66942 2.9161 2.91512 1.6704 4.4473 0.889716C6.18915 0.00219727 8.46936 0.00219727 13.0298 0.00219727H22.9727C27.5331 0.00219727 29.8133 0.00219727 31.5551 0.889716C33.0873 1.6704 34.333 2.9161 35.1137 4.44827C36.0012 6.19013 36.0012 8.47034 36.0012 13.0308V22.9736C36.0012 27.5341 36.0012 29.8143 35.1137 31.5561C34.333 33.0883 33.0873 34.334 31.5551 35.1147C29.8133 36.0022 27.5331 36.0022 22.9727 36.0022H13.0298C8.46936 36.0022 6.18915 36.0022 4.4473 35.1147C2.91512 34.334 1.66942 33.0883 0.888739 31.5561C0.0012207 29.8143 0.0012207 27.5341 0.0012207 22.9736V13.0308Z" fill="url(#paint5_radial_202_10471)"/>
<path d="M0.0012207 13.0308C0.0012207 8.47034 0.0012207 6.19013 0.888739 4.44827C1.66942 2.9161 2.91512 1.6704 4.4473 0.889716C6.18915 0.00219727 8.46936 0.00219727 13.0298 0.00219727H22.9727C27.5331 0.00219727 29.8133 0.00219727 31.5551 0.889716C33.0873 1.6704 34.333 2.9161 35.1137 4.44827C36.0012 6.19013 36.0012 8.47034 36.0012 13.0308V22.9736C36.0012 27.5341 36.0012 29.8143 35.1137 31.5561C34.333 33.0883 33.0873 34.334 31.5551 35.1147C29.8133 36.0022 27.5331 36.0022 22.9727 36.0022H13.0298C8.46936 36.0022 6.18915 36.0022 4.4473 35.1147C2.91512 34.334 1.66942 33.0883 0.888739 31.5561C0.0012207 29.8143 0.0012207 27.5341 0.0012207 22.9736V13.0308Z" fill="url(#paint6_radial_202_10471)"/>
<path d="M28.8912 10.8484C26.9862 8.74067 24.3012 7.55605 21.5112 7.57144C18.7812 7.57144 16.0062 8.77144 14.2212 10.7099C13.8912 10.6791 13.5612 10.6484 13.2462 10.6484C7.89117 10.6484 4.57617 15.2637 4.57617 19.5407C4.59117 21.8484 5.46117 24.0637 7.00617 25.7561C8.62617 27.5253 10.8762 28.5253 13.2462 28.5253H21.5112C27.1212 28.5253 31.6812 23.8022 31.6812 18.0176C31.6512 15.3561 30.6612 12.8022 28.8912 10.8484ZM13.0812 27.0176C9.10617 27.0176 5.89617 23.7099 5.89617 19.633C5.89617 15.5868 9.09117 12.2945 13.0512 12.2637C14.8062 12.2637 16.6512 12.8484 17.8212 14.1253L20.8362 17.2945C21.3312 17.8176 21.3162 18.6484 20.8062 19.1561C20.2962 19.6637 19.4862 19.6484 18.9912 19.1253L16.0512 16.0176C14.1312 14.3253 11.2362 14.5407 9.58617 16.5099C8.86617 17.3561 8.47617 18.4484 8.47617 19.5714C8.47617 22.1561 10.6212 24.3407 13.1562 24.3407H13.7412C14.5812 25.5407 16.9362 27.0176 16.9362 27.0176H13.0812ZM27.8112 24.3714C26.2062 26.0945 23.9862 27.0637 21.6612 27.0791C19.4562 27.0791 17.2062 26.0637 15.4812 24.3099L11.5512 20.2484C11.0562 19.7253 11.0712 18.8945 11.5662 18.3868C11.8062 18.1407 12.1212 18.0176 12.4662 18.0176C12.8112 18.0176 13.1412 18.1561 13.3812 18.4176L17.2962 22.433C18.5412 23.7099 20.1312 24.433 21.6612 24.433C23.2962 24.433 24.8562 23.7407 25.9812 22.5099C27.1362 21.2945 27.7812 19.6637 27.7812 17.9714C27.7812 14.4945 25.0212 11.6791 21.6312 11.6637C20.3412 11.6637 19.2762 11.9253 18.2262 12.6791C17.6318 12.0695 16.3512 11.4638 15.7662 11.3407C17.3862 9.78682 19.4112 9.03298 21.6312 9.03298C26.4462 9.03298 30.3312 13.033 30.3462 17.9714C30.3462 20.3561 29.4462 22.6637 27.8112 24.3714Z" fill="white"/>
</g>
<defs>
<radialGradient id="paint0_radial_202_10471" cx="0" cy="0" r="1" gradientTransform="matrix(14.7 15.6923 -15.6923 15.4635 29.9262 30.7714)" gradientUnits="userSpaceOnUse">
<stop stop-color="#68E048"/>
<stop offset="1" stop-color="#5CE049" stop-opacity="0"/>
</radialGradient>
<radialGradient id="paint1_radial_202_10471" cx="0" cy="0" r="1" gradientTransform="matrix(-16.125 14.8462 -14.8462 -16.9625 5.70122 30.6176)" gradientUnits="userSpaceOnUse">
<stop stop-color="#308CFE"/>
<stop offset="1" stop-color="#2F8BFF" stop-opacity="0"/>
</radialGradient>
<radialGradient id="paint2_radial_202_10471" cx="0" cy="0" r="1" gradientTransform="matrix(12.75 1.76923 -1.76923 13.4122 29.2512 20.156)" gradientUnits="userSpaceOnUse">
<stop stop-color="#FDD511"/>
<stop offset="1" stop-color="#FDD20D" stop-opacity="0"/>
</radialGradient>
<radialGradient id="paint3_radial_202_10471" cx="0" cy="0" r="1" gradientTransform="matrix(-11.475 -15.1538 15.1538 -12.071 6.15122 13.0022)" gradientUnits="userSpaceOnUse">
<stop stop-color="#F928C2"/>
<stop offset="1" stop-color="#F922BC" stop-opacity="0"/>
</radialGradient>
<radialGradient id="paint4_radial_202_10471" cx="0" cy="0" r="1" gradientTransform="matrix(8.55 -17.0769 17.0769 8.99408 20.4012 6.0022)" gradientUnits="userSpaceOnUse">
<stop stop-color="#F90700"/>
<stop offset="1" stop-color="#F90700" stop-opacity="0"/>
</radialGradient>
<radialGradient id="paint5_radial_202_10471" cx="0" cy="0" r="1" gradientTransform="matrix(4.725 -10.4615 10.4615 4.97041 34.0512 5.23297)" gradientUnits="userSpaceOnUse">
<stop stop-color="#FB4200"/>
<stop offset="1" stop-color="#FB4300" stop-opacity="0"/>
</radialGradient>
<radialGradient id="paint6_radial_202_10471" cx="0" cy="0" r="1" gradientTransform="matrix(-7.05 -7.38462 7.38462 -7.41617 3.75122 4.38681)" gradientUnits="userSpaceOnUse">
<stop stop-color="#FE0D88"/>
<stop offset="1" stop-color="#FE0D88" stop-opacity="0"/>
</radialGradient>
<clipPath id="clip0_202_10471">
<rect width="37" height="37" fill="white"/>
</clipPath>
</defs>
</svg>
