<svg width="36" height="36" viewBox="0 0 36 36" fill="none" xmlns="http://www.w3.org/2000/svg">
<g clip-path="url(#clip0_202_11543)">
<path d="M18.0049 0.000915527C8.36008 0.000915527 0.543335 3.2961 0.543335 7.35347C0.546999 7.56118 0.568086 7.76821 0.606373 7.97239L3.68379 24.1216C4.98203 31.0111 11 36.0009 18.0107 36.0009C25.0213 36.0009 31.0393 31.0111 32.3375 24.1216L35.4035 7.97239C35.4415 7.77009 35.4625 7.56499 35.4665 7.3592C35.4665 3.2961 27.6498 0.000915527 18.0049 0.000915527ZM18.0049 26.7463C12.9619 26.7463 13.3802 15.0269 7.7297 13.2963C7.25977 13.153 6.81278 12.9983 6.37724 12.8321C10.1146 11.5362 14.0498 10.904 18.0049 10.9638C21.9601 10.904 25.8953 11.5362 29.6326 12.8321C29.1971 12.9925 28.7501 13.153 28.2802 13.2963C22.6296 15.0155 23.0537 26.7463 18.0049 26.7463Z" fill="#2684FF"/>
<path d="M6.37724 12.8378C10.1146 11.5418 14.0498 10.9096 18.0049 10.9696C21.9601 10.9096 25.8953 11.5418 29.6326 12.8378C33.2086 11.4911 35.4665 9.53688 35.4665 7.35347C35.4665 3.2961 27.6498 0.000915527 18.0049 0.000915527C8.36008 0.000915527 0.543335 3.2961 0.543335 7.35347C0.543335 9.53115 2.79552 11.4911 6.37724 12.8378Z" fill="url(#paint0_linear_202_11543)"/>
</g>
<defs>
<linearGradient id="paint0_linear_202_11543" x1="18.0049" y1="12.7518" x2="18.0049" y2="0.230145" gradientUnits="userSpaceOnUse">
<stop offset="0.18" stop-color="#0052CC"/>
<stop offset="1" stop-color="#2684FF"/>
</linearGradient>
<clipPath id="clip0_202_11543">
<rect width="36" height="36.0009" fill="white"/>
</clipPath>
</defs>
</svg>
