<svg width="26" height="36" viewBox="0 0 26 36" fill="none" xmlns="http://www.w3.org/2000/svg">
<g clip-path="url(#clip0_202_14684)">
<path d="M12.9865 36.0004L2.57084 33.1089L0.249756 7.07523H25.7545L23.4309 33.1048L12.9865 36.0004Z" fill="#264DE4"/>
<path d="M21.4418 31.4474L23.4274 9.20389H13.0022V33.7872L21.4418 31.4474Z" fill="#2965F1"/>
<path d="M5.5708 18.8594L5.85697 22.0523H13.0021V18.8594H5.5708Z" fill="#EBEBEB"/>
<path d="M4.99585 12.3969L5.2861 15.5898H13.0022V12.3969H4.99585Z" fill="#EBEBEB"/>
<path d="M13.002 27.1518L12.988 27.1555L9.43203 26.1953L9.20471 23.6488H5.99951L6.44684 28.6622L12.9873 30.4778L13.002 30.4738V27.1518Z" fill="#EBEBEB"/>
<path d="M6.2522 0.000396729H10.1194V1.61758H7.86938V3.23477H10.1194V4.85196H6.2522V0.000396729Z" fill="black"/>
<path d="M10.8928 0.000396729H14.76V1.40665H12.51V1.6879H14.76V4.92227H10.8928V3.44571H13.1428V3.16446H10.8928V0.000396729Z" fill="black"/>
<path d="M15.5334 0.000396729H19.4006V1.40665H17.1506V1.6879H19.4006V4.92227H15.5334V3.44571H17.7834V3.16446H15.5334V0.000396729Z" fill="black"/>
<path d="M20.4131 18.8594L20.9895 12.3969H12.9912V15.5898H17.4904L17.1998 18.8594H12.9912V22.0523H16.9229L16.5523 26.1933L12.9912 27.1545V30.4763L19.5369 28.6622L19.5849 28.1227L20.3352 19.7168L20.4131 18.8594Z" fill="white"/>
</g>
<defs>
<clipPath id="clip0_202_14684">
<rect width="26" height="36.0004" fill="white"/>
</clipPath>
</defs>
</svg>
