<svg width="34" height="41" viewBox="0 0 34 41" fill="none" xmlns="http://www.w3.org/2000/svg">
<g clip-path="url(#clip0_202_11506)">
<path d="M13.6118 2.59331C12.8073 2.59331 12.1733 2.9845 11.7156 3.7765C11.256 4.56561 10.9371 5.43662 10.7666 6.38182L9.17198 14.1814C8.94266 15.1912 8.60447 16.0468 8.15837 16.752C7.70937 17.4535 7.24593 18.0316 6.75839 18.4738C6.26797 18.9199 5.78718 19.2629 5.31217 19.5096C4.83909 19.7524 4.46717 19.9046 4.21281 19.9663L4.17137 20.0887C4.37275 20.1224 4.62904 20.2081 4.947 20.3498C5.26206 20.4905 5.57039 20.7284 5.87486 21.0599C6.17643 21.3894 6.43465 21.8056 6.65241 22.3096C6.8663 22.8135 6.97422 23.4542 6.97422 24.226C6.97422 24.4871 6.94627 24.7424 6.8875 25.0026C6.82776 25.2637 6.77188 25.5489 6.71503 25.8678L5.12043 33.6269C5.03371 34.1183 4.99228 34.6001 4.99228 35.0924C4.99228 35.7553 5.07803 36.3035 5.25147 36.7525C5.42586 37.2006 5.81126 37.4164 6.41635 37.4164H8.57075L8.01095 40.0024H4.99325C4.55967 40.0024 4.12416 39.9167 3.67806 39.7433C3.22906 39.5689 2.83884 39.328 2.49294 39.012C2.14512 38.7017 1.86956 38.2951 1.6518 37.8056C1.4379 37.3133 1.32999 36.7554 1.32999 36.1272C1.32999 35.8661 1.34444 35.5857 1.37142 35.2822C1.3984 34.9816 1.44369 34.6742 1.5015 34.3563L3.13753 26.5577C3.19341 26.2397 3.2387 25.9323 3.26568 25.6259C3.29266 25.3253 3.30614 25.0459 3.30614 24.7858C3.30614 23.7808 3.04311 22.9859 2.51125 22.3953C1.98036 21.8076 1.3377 21.5089 0.593872 21.5089L1.23942 18.5789C1.69709 18.5789 2.16728 18.4584 2.6394 18.2137C3.11248 17.9699 3.56051 17.6356 3.97482 17.202C4.39009 16.7713 4.76682 16.2414 5.09827 15.6084C5.42779 14.9734 5.68023 14.272 5.85173 13.4954L7.48777 5.64667C7.66023 4.72844 7.96181 3.9191 8.39154 3.21092C8.82222 2.50949 9.31168 1.91886 9.85703 1.44674C10.4004 0.972693 10.9766 0.611378 11.5827 0.369538C12.1858 0.12577 12.761 0.00244141 13.3035 0.00244141H16.3231L15.7653 2.58849H13.6128L13.6118 2.59331Z" fill="url(#paint0_linear_202_11506)"/>
<path d="M20.1803 7.14697L15.0631 33.4815H12.1947L17.3061 7.14697H20.1803Z" fill="url(#paint1_linear_202_11506)"/>
<path d="M25.138 8.61768L20.5026 32.0049H18.4513L23.1031 8.61768H25.138Z" fill="url(#paint2_linear_202_11506)"/>
<path d="M29.7304 9.71924L25.5921 30.9048H24.1998L28.3439 9.71924H29.7304Z" fill="url(#paint3_linear_202_11506)"/>
<path d="M33.4168 11.3081L29.7584 29.318H28.9818L32.6248 11.3081H33.4168Z" fill="url(#paint4_linear_202_11506)"/>
</g>
<defs>
<linearGradient id="paint0_linear_202_11506" x1="8.45888" y1="0.00350126" x2="8.45826" y2="40.0022" gradientUnits="userSpaceOnUse">
<stop stop-color="#5C70B5"/>
<stop offset="0.675" stop-color="#507DBF"/>
<stop offset="1" stop-color="#428BCA"/>
</linearGradient>
<linearGradient id="paint1_linear_202_11506" x1="16.1874" y1="-0.000130442" x2="16.1874" y2="40.0032" gradientUnits="userSpaceOnUse">
<stop stop-color="#5C70B5"/>
<stop offset="0.675" stop-color="#507DBF"/>
<stop offset="1" stop-color="#428BCA"/>
</linearGradient>
<linearGradient id="paint2_linear_202_11506" x1="21.7953" y1="-0.0015697" x2="21.7953" y2="40.0061" gradientUnits="userSpaceOnUse">
<stop stop-color="#5C70B5"/>
<stop offset="0.675" stop-color="#507DBF"/>
<stop offset="1" stop-color="#428BCA"/>
</linearGradient>
<linearGradient id="paint3_linear_202_11506" x1="26.965" y1="0.00149845" x2="26.965" y2="40.0064" gradientUnits="userSpaceOnUse">
<stop stop-color="#5C70B5"/>
<stop offset="0.675" stop-color="#507DBF"/>
<stop offset="1" stop-color="#428BCA"/>
</linearGradient>
<linearGradient id="paint4_linear_202_11506" x1="31.1992" y1="-0.000384848" x2="31.1992" y2="40.004" gradientUnits="userSpaceOnUse">
<stop stop-color="#5C70B5"/>
<stop offset="0.675" stop-color="#507DBF"/>
<stop offset="1" stop-color="#428BCA"/>
</linearGradient>
<clipPath id="clip0_202_11506">
<rect width="34" height="41" fill="white"/>
</clipPath>
</defs>
</svg>
