<svg width="32" height="37" viewBox="0 0 32 37" fill="none" xmlns="http://www.w3.org/2000/svg">
<g clip-path="url(#clip0_202_14531)">
<path d="M16.1685 0.00140381C7.4164 0.00140381 0.333496 7.10392 0.333496 15.8802C0.333496 23.6072 5.85716 30.0275 13.1465 31.4559V36.0014C22.6234 34.5687 31.0146 27.025 31.6408 17.1226C32.0177 11.1622 29.054 5.0773 24.0557 2.12262C23.7695 1.95345 23.4788 1.78551 23.1794 1.63777C22.8742 1.48723 22.5609 1.34051 22.2426 1.21353C22.1415 1.17113 22.0425 1.13267 21.9404 1.09231C21.6623 0.989378 21.3817 0.873466 21.0942 0.789283C19.5447 0.27716 17.8884 0.00140381 16.1685 0.00140381Z" fill="#00A818"/>
<path d="M19.449 5.86866C18.9062 5.81286 18.3346 6.00226 17.9349 6.47595C17.6442 6.86462 17.4626 7.24114 17.2688 7.62981C16.6874 8.99015 16.8812 10.4477 17.7533 11.5165C19.1098 11.225 20.2605 10.3566 20.8419 8.99622C21.0357 8.60755 21.1447 8.10957 21.1447 7.7209C21.2053 6.6885 20.3536 5.96165 19.449 5.86866ZM12.3935 5.95975C11.5088 6.0442 10.6675 6.74923 10.6675 7.7209C10.6675 8.10957 10.7765 8.60755 10.9703 8.99622C11.5517 10.3566 12.7932 11.225 14.1498 11.5165C14.925 10.4477 15.1249 8.99015 14.5435 7.62981C14.3497 7.24114 14.168 6.85855 13.8773 6.56705C13.4776 6.09336 12.9244 5.90908 12.3935 5.95975ZM7.63944 10.6359C6.11144 10.7145 5.42894 12.64 6.70073 13.642C7.08833 13.9335 7.46381 14.1461 7.85141 14.3404C9.20799 14.9234 10.7765 14.723 11.9393 13.9457C11.6486 12.6825 10.6615 11.5226 9.30489 10.9396C8.8204 10.7452 8.42674 10.6359 7.94225 10.6359C7.83324 10.6238 7.74131 10.6307 7.63944 10.6359ZM22.5679 16.5267C21.6803 16.5096 20.7813 16.7696 20.0546 17.2554C20.3453 18.5186 21.3325 19.6785 22.689 20.2615C23.1735 20.4558 23.5672 20.5652 24.0517 20.5652C25.7959 20.6623 26.6498 18.5004 25.2932 17.5287C24.9056 17.2372 24.5301 17.055 24.1425 16.8607C23.6338 16.642 23.1005 16.5369 22.5679 16.5267ZM9.33517 16.6178C8.80261 16.628 8.26928 16.7331 7.76057 16.9518C7.27607 17.1461 6.90059 17.3587 6.60989 17.6502C5.35021 18.719 6.19807 20.7534 7.94225 20.6563C8.42674 20.6563 8.91729 20.5469 9.30489 20.3526C10.6615 19.7696 11.6244 18.6097 11.8182 17.3465C11.0915 16.8607 10.2228 16.6007 9.33517 16.6178ZM14.2407 19.5935C12.8841 19.885 11.7334 20.7534 11.152 22.1138C10.9582 22.5024 10.8492 22.97 10.8492 23.3587C10.7523 25.0106 12.9992 25.8972 13.9681 24.634C14.2588 24.2454 14.4405 23.8688 14.6343 23.4802C15.2157 22.217 15.0159 20.7595 14.2407 19.5935ZM17.8441 19.6846C17.0689 20.7534 16.8691 22.2109 17.4504 23.5713C17.6442 23.9599 17.8259 24.3425 18.1166 24.634C19.1825 25.8 21.4233 24.9377 21.3264 23.4802C21.3264 23.0915 21.2174 22.5935 21.0236 22.2049C20.4422 20.8445 19.2007 19.9761 17.8441 19.6846Z" fill="white"/>
</g>
<defs>
<clipPath id="clip0_202_14531">
<rect width="32" height="37" fill="white"/>
</clipPath>
</defs>
</svg>
