<svg width="32" height="33" viewBox="0 0 32 33" fill="none" xmlns="http://www.w3.org/2000/svg">
<g clip-path="url(#clip0_202_10480)">
<path d="M14.3077 9.81542L21.5097 25.8708L26.0206 15.9607L27.6373 18.7147L28.8395 22.1534L25.7188 28.9768C24.861 30.8711 23.2865 32.0025 21.5086 32.0025C19.7485 32.0025 18.1878 30.8925 17.3232 29.0311L17.2973 28.9745L14.2173 22.1782L11.5137 16.0059L14.3077 9.81542ZM8.70952 3.09375C10.2984 3.09375 11.6969 4.07595 12.461 5.72414L12.4857 5.77812L14.3077 9.81542L11.5137 16.0059L8.70952 9.79169L5.87873 16.0223L4.79089 19.5841L3.09211 22.1556L0.31958 15.9369L4.93331 5.77812C5.69172 4.09742 7.10342 3.09375 8.70952 3.09375Z" fill="#174EA6"/>
<path d="M25.7358 3.0225C24.8813 1.13157 23.3171 0.00244141 21.5493 0.00244141C19.7805 0.00244141 18.215 1.13157 17.3617 3.02476L8.71067 22.2223L5.90196 15.9753L3.09326 22.1567L4.93333 26.2358C5.69174 27.9165 7.10343 28.9202 8.70954 28.9202C10.3156 28.9202 11.7273 27.9165 12.4857 26.2358L21.5493 6.12281L28.8361 22.1805L31.6844 15.9369L25.7358 3.0225Z" fill="#4285F4"/>
</g>
<defs>
<clipPath id="clip0_202_10480">
<rect width="32" height="33" fill="white"/>
</clipPath>
</defs>
</svg>
