<svg width="37" height="32" viewBox="0 0 37 32" fill="none" xmlns="http://www.w3.org/2000/svg">
<g clip-path="url(#clip0_202_12740)">
<mask id="mask0_202_12740" style="mask-type:alpha" maskUnits="userSpaceOnUse" x="0" y="0" width="37" height="32">
<path d="M1.5022 0.248596H11.0625C11.494 0.248596 11.9046 0.434401 12.1894 0.758536L18.0028 7.37504L23.8151 0.758626C24.0997 0.434446 24.5103 0.248596 24.9419 0.248596H34.5021C35.3306 0.248596 36.0022 0.920176 36.0022 1.7486V11.0908C36.0022 11.4501 35.8733 11.7974 35.6388 12.0696L19.1388 31.2309C18.5404 31.9259 17.4639 31.9259 16.8655 31.2311L0.365539 12.0696C0.131126 11.7974 0.00219727 11.4501 0.00219727 11.0909V1.7486C0.00219727 0.920176 0.67377 0.248596 1.5022 0.248596Z" fill="white"/>
</mask>
<g mask="url(#mask0_202_12740)">
<path d="M24.9417 0.248596H34.502C35.3304 0.248596 36.0021 0.920176 36.0021 1.7486V11.0908C36.0021 11.4501 35.8731 11.7974 35.6387 12.0696L19.1387 31.23C18.5403 31.925 17.4639 31.925 16.8654 31.23L7.05493 19.8376L23.8149 0.758626C24.0998 0.434446 24.5102 0.248596 24.9417 0.248596Z" fill="url(#paint0_linear_202_12740)"/>
<path opacity="0.5" fill-rule="evenodd" clip-rule="evenodd" d="M-1.1228 2.19902C-1.1228 0.749258 0.0524653 -0.425964 1.5022 -0.425964H11.0625C11.8176 -0.425964 12.5361 -0.100867 13.0345 0.466401C13.0345 0.466396 13.0345 0.466407 13.0345 0.466401L30.4414 20.278L19.9914 32.4153C18.9441 33.6316 17.0603 33.6316 16.0131 32.4157L-0.486956 13.2541C-0.897172 12.7778 -1.1228 12.17 -1.1228 11.5413V2.19902ZM1.5022 1.82404C1.29508 1.82404 1.1272 1.99193 1.1272 2.19902V11.5413C1.1272 11.6311 1.15943 11.7179 1.21804 11.786L17.7178 30.9473C17.8675 31.1211 18.1367 31.121 18.2863 30.9473L27.4595 20.2929L11.3442 1.95151C11.2731 1.87051 11.1704 1.82404 11.0625 1.82404H1.5022Z" fill="black" fill-opacity="0.5"/>
<path d="M11.0625 0.248596H1.5022C0.67377 0.248596 0.00219727 0.920176 0.00219727 1.7486V11.0909C0.00219727 11.4501 0.131127 11.7974 0.365541 12.0696L16.8655 31.2311C17.4639 31.9259 18.5404 31.9259 19.1388 31.2309L28.9505 19.835L12.1894 0.758536C11.9046 0.434401 11.494 0.248596 11.0625 0.248596Z" fill="url(#paint1_linear_202_12740)"/>
<path fill-rule="evenodd" clip-rule="evenodd" d="M17.9988 7.37555L7.05103 19.8381L16.8615 31.2305C17.46 31.9253 18.5364 31.9253 19.1348 31.2305L23.186 26.5262L28.9464 19.8355L17.9988 7.37555Z" fill="url(#paint2_linear_202_12740)"/>
</g>
</g>
<defs>
<linearGradient id="paint0_linear_202_12740" x1="10.5021" y1="-3.5014" x2="34.1964" y2="31.5558" gradientUnits="userSpaceOnUse">
<stop stop-color="#8661C5"/>
<stop offset="1" stop-color="#5C428B"/>
</linearGradient>
<linearGradient id="paint1_linear_202_12740" x1="-8.06032" y1="-9.12641" x2="19.1274" y2="22.0952" gradientUnits="userSpaceOnUse">
<stop stop-color="#EBC7FF"/>
<stop offset="0.493452" stop-color="#E4B4FF"/>
</linearGradient>
<linearGradient id="paint2_linear_202_12740" x1="-2.3142" y1="-1.05038" x2="12.9484" y2="41.7509" gradientUnits="userSpaceOnUse">
<stop stop-color="#CD9EF0"/>
<stop offset="0.894187" stop-color="#9F75D3"/>
</linearGradient>
<clipPath id="clip0_202_12740">
<rect width="37" height="32" fill="white"/>
</clipPath>
</defs>
</svg>
