<svg width="37" height="36" viewBox="0 0 37 36" fill="none" xmlns="http://www.w3.org/2000/svg">
<g clip-path="url(#clip0_202_8195)">
<mask id="mask0_202_8195" style="mask-type:alpha" maskUnits="userSpaceOnUse" x="0" y="0" width="37" height="36">
<path d="M24.0022 1.50911C24.0022 0.208008 25.5454 -0.476082 26.5095 0.397634L35.5095 8.55388C35.8232 8.83821 36.0022 9.24193 36.0022 9.66535V30.0004C36.0022 30.8288 35.3306 31.5004 34.5022 31.5004H24.0022V1.50911Z" fill="url(#paint0_linear_202_8195)"/>
<path d="M12.0022 6.0004C12.0022 5.17198 12.6737 4.5004 13.5022 4.5004H24.0022V31.5004H12.0022V34.4917C12.0022 35.7928 10.459 36.4769 9.49491 35.6032L0.494917 27.4469C0.181161 27.1626 0.00219727 26.7589 0.00219727 26.3354V10.5004C0.00219727 9.67198 0.67377 9.0004 1.5022 9.0004H12.0022V6.0004Z" fill="url(#paint1_linear_202_8195)"/>
</mask>
<g mask="url(#mask0_202_8195)">
<path d="M24.0022 1.50908C24.0022 0.207979 25.5454 -0.476115 26.5095 0.397605L35.5095 8.55387C35.8232 8.83819 36.0022 9.24192 36.0022 9.66533V30.0004C36.0022 30.8288 35.3306 31.5004 34.5022 31.5004H24.0022V1.50908Z" fill="url(#paint2_linear_202_8195)"/>
<g filter="url(#filter0_f_202_8195)">
<path d="M12.0022 6.75037C12.0022 5.92195 12.6738 5.25037 13.5022 5.25037H24.0022V32.2504H12.0022V6.75037Z" fill="black" fill-opacity="0.32"/>
</g>
<g filter="url(#filter1_f_202_8195)">
<path d="M12.0022 6.14288C12.0022 5.31447 12.6738 4.64288 13.5022 4.64288H24.0022V31.6429H12.0022V6.14288Z" fill="black" fill-opacity="0.24"/>
</g>
<path d="M12.0022 6.00037C12.0022 5.17195 12.6738 4.50037 13.5022 4.50037H24.0022V31.5004H12.0022V6.00037Z" fill="url(#paint3_linear_202_8195)"/>
<g filter="url(#filter2_f_202_8195)">
<path d="M0.00219727 11.2504C0.00219727 10.422 0.67377 9.75037 1.5022 9.75037H12.0022V35.2417C12.0022 36.5428 10.459 37.2269 9.49491 36.3531L0.494917 28.1969C0.181161 27.9126 0.00219727 27.5088 0.00219727 27.0854V11.2504Z" fill="black" fill-opacity="0.32"/>
</g>
<g filter="url(#filter3_f_202_8195)">
<path d="M0.00219727 10.6429C0.00219727 9.81447 0.67377 9.14288 1.5022 9.14288H12.0022V34.6342C12.0022 35.9353 10.459 36.6194 9.49491 35.7456L0.494917 27.5894C0.181161 27.3051 0.00219727 26.9014 0.00219727 26.4779V10.6429Z" fill="black" fill-opacity="0.24"/>
</g>
<path d="M0.00219727 10.5004C0.00219727 9.67195 0.67377 9.00037 1.5022 9.00037H12.0022V34.4917C12.0022 35.7928 10.459 36.4769 9.49491 35.6031L0.494917 27.4469C0.181161 27.1626 0.00219727 26.7588 0.00219727 26.3354V10.5004Z" fill="url(#paint4_linear_202_8195)"/>
</g>
</g>
<defs>
<filter id="filter0_f_202_8195" x="4.0022" y="-2.74963" width="28" height="43" filterUnits="userSpaceOnUse" color-interpolation-filters="sRGB">
<feFlood flood-opacity="0" result="BackgroundImageFix"/>
<feBlend mode="normal" in="SourceGraphic" in2="BackgroundImageFix" result="shape"/>
<feGaussianBlur stdDeviation="4" result="effect1_foregroundBlur_202_8195"/>
</filter>
<filter id="filter1_f_202_8195" x="11.2422" y="3.88288" width="13.52" height="28.52" filterUnits="userSpaceOnUse" color-interpolation-filters="sRGB">
<feFlood flood-opacity="0" result="BackgroundImageFix"/>
<feBlend mode="normal" in="SourceGraphic" in2="BackgroundImageFix" result="shape"/>
<feGaussianBlur stdDeviation="0.38" result="effect1_foregroundBlur_202_8195"/>
</filter>
<filter id="filter2_f_202_8195" x="-7.9978" y="1.75037" width="28" height="42.9943" filterUnits="userSpaceOnUse" color-interpolation-filters="sRGB">
<feFlood flood-opacity="0" result="BackgroundImageFix"/>
<feBlend mode="normal" in="SourceGraphic" in2="BackgroundImageFix" result="shape"/>
<feGaussianBlur stdDeviation="4" result="effect1_foregroundBlur_202_8195"/>
</filter>
<filter id="filter3_f_202_8195" x="-0.757803" y="8.38288" width="13.52" height="28.5143" filterUnits="userSpaceOnUse" color-interpolation-filters="sRGB">
<feFlood flood-opacity="0" result="BackgroundImageFix"/>
<feBlend mode="normal" in="SourceGraphic" in2="BackgroundImageFix" result="shape"/>
<feGaussianBlur stdDeviation="0.38" result="effect1_foregroundBlur_202_8195"/>
</filter>
<linearGradient id="paint0_linear_202_8195" x1="0.564697" y1="0.239856" x2="7.64053" y2="41.2223" gradientUnits="userSpaceOnUse">
<stop stop-color="#C3F488"/>
<stop offset="1" stop-color="#8FDC50"/>
</linearGradient>
<linearGradient id="paint1_linear_202_8195" x1="0.564696" y1="0.239856" x2="7.64053" y2="41.2223" gradientUnits="userSpaceOnUse">
<stop stop-color="#C3F488"/>
<stop offset="1" stop-color="#8FDC50"/>
</linearGradient>
<linearGradient id="paint2_linear_202_8195" x1="22.8772" y1="-0.562117" x2="36.1897" y2="31.6879" gradientUnits="userSpaceOnUse">
<stop stop-color="#158915"/>
<stop offset="1" stop-color="#065F18"/>
</linearGradient>
<linearGradient id="paint3_linear_202_8195" x1="12.0022" y1="4.50037" x2="24.7384" y2="31.1485" gradientUnits="userSpaceOnUse">
<stop stop-color="#6AD116"/>
<stop offset="1" stop-color="#34A117"/>
</linearGradient>
<linearGradient id="paint4_linear_202_8195" x1="0.189697" y1="9.18787" x2="12.1897" y2="38.0629" gradientUnits="userSpaceOnUse">
<stop stop-color="#C3F488"/>
<stop offset="1" stop-color="#8FDC50"/>
</linearGradient>
<clipPath id="clip0_202_8195">
<rect width="37" height="36" fill="white"/>
</clipPath>
</defs>
</svg>
