<svg width="32" height="37" viewBox="0 0 32 37" fill="none" xmlns="http://www.w3.org/2000/svg">
<path d="M16.0022 0.00219727L0.385254 9.02468L8.41856 13.6408L16.0022 9.26449V0.00219727Z" fill="#4E8DCB"/>
<path d="M23.5859 22.3636L16.0022 26.7399L16.0322 36.0022L31.6192 27.0097V17.7474L23.5859 22.3636Z" fill="#1F6DAE"/>
<path d="M16.0022 0.00219727V9.26449L23.5859 13.6408L31.5892 8.99471L16.0022 0.00219727Z" fill="#1F6DAE"/>
<path d="M0.415039 27.0097L16.032 36.0022L16.0021 26.7399L8.41837 22.3936L0.415039 27.0097Z" fill="#4E8DCB"/>
<path d="M0.415228 27.0097L8.41856 22.3936V13.6409L0.385254 9.02472L0.415228 27.0097Z" fill="#1F6DAE"/>
<path d="M16.0022 9.26453L23.5859 13.6409V22.3936L16.0022 18.0172V9.26453Z" fill="#888888"/>
<path d="M16.0021 9.26453L8.41846 13.6409V22.3936L16.0021 18.0172V9.26453Z" fill="#595757"/>
</svg>
