<svg width="37" height="37" viewBox="0 0 37 37" fill="none" xmlns="http://www.w3.org/2000/svg">
<g clip-path="url(#clip0_202_15767)">
<path d="M35.9966 27.8931C35.9797 28.2588 35.8784 28.6188 35.6928 28.945L32.2841 34.8513C31.8734 35.5656 31.1141 36.0044 30.2928 36.0044H11.3759C10.5547 36.0044 9.79532 35.5656 9.3847 34.8569L0.311572 19.1575C0.103447 18.7975 0.00219727 18.4038 0.00219727 18.0044C0.00219727 17.605 0.0809473 17.1888 0.322822 16.7838L9.39032 1.15189C9.80095 0.443145 10.5603 0.00439453 11.3759 0.00439453H30.2928C31.1141 0.00439453 31.8734 0.443145 32.2841 1.15189C32.2841 1.15189 35.5634 6.52377 35.7997 6.90627C36.0359 7.28877 35.9966 7.77252 35.9966 8.16627C35.9966 8.50377 35.9009 8.96502 35.8109 9.33064C35.7209 9.69627 32.9759 20.8225 32.9759 20.8225L26.9853 8.08189H14.7059L8.9572 18.0044L14.7059 27.9269H26.9797L35.9966 27.8931Z" fill="url(#paint0_linear_202_15767)"/>
<path d="M31.6204 17.9989L35.7829 26.8245C36.1035 27.5052 36.0697 28.2983 35.6929 28.9508L26.9854 27.9327L31.6204 17.9989Z" fill="url(#paint1_linear_202_15767)"/>
</g>
<defs>
<linearGradient id="paint0_linear_202_15767" x1="10.5076" y1="35.8572" x2="31.1363" y2="0.133579" gradientUnits="userSpaceOnUse">
<stop offset="0.4147" stop-color="#51D3D9"/>
<stop offset="1" stop-color="#C8FF8C"/>
</linearGradient>
<linearGradient id="paint1_linear_202_15767" x1="30.0614" y1="29.7028" x2="37.0229" y2="21.5308" gradientUnits="userSpaceOnUse">
<stop offset="0.4147" stop-color="#51D3D9"/>
<stop offset="1" stop-color="#5A919B"/>
</linearGradient>
<clipPath id="clip0_202_15767">
<rect width="37" height="37" fill="white"/>
</clipPath>
</defs>
</svg>
