<svg width="37" height="37" viewBox="0 0 37 37" fill="none" xmlns="http://www.w3.org/2000/svg">
<g clip-path="url(#clip0_202_15592)">
<mask id="mask0_202_15592" style="mask-type:alpha" maskUnits="userSpaceOnUse" x="0" y="0" width="37" height="37">
<path d="M18.0022 0.00439453C27.9513 0.00439453 36.0022 8.0553 36.0022 18.0044C36.0022 27.9535 27.9513 36.0044 18.0022 36.0044C8.05311 36.0044 0.00219727 27.9535 0.00219727 18.0044C0.00219727 8.0553 8.05311 0.00439453 18.0022 0.00439453Z" fill="white"/>
</mask>
<g mask="url(#mask0_202_15592)">
<g filter="url(#filter0_d_202_15592)">
<path d="M18.0022 0.42627C27.7181 0.42627 35.5803 8.28849 35.5803 18.0044C35.5803 27.7203 27.7181 35.5825 18.0022 35.5825C8.28629 35.5825 0.424072 27.7203 0.424072 18.0044C0.424072 8.28849 8.28629 0.42627 18.0022 0.42627Z" fill="black"/>
</g>
<path d="M18.0022 0.42627C27.7181 0.42627 35.5803 8.28849 35.5803 18.0044C35.5803 27.7203 27.7181 35.5825 18.0022 35.5825C8.28629 35.5825 0.424072 27.7203 0.424072 18.0044C0.424072 8.28849 8.28629 0.42627 18.0022 0.42627Z" fill="white"/>
<path d="M18.0021 1.04309C27.3771 1.04309 34.9635 8.62944 34.9635 18.0044C34.9635 27.3794 27.3771 34.9658 18.0021 34.9658C8.62712 34.9658 1.04077 27.3794 1.04077 18.0044C1.04077 8.62944 8.62712 1.04309 18.0021 1.04309Z" fill="#5C5C5E"/>
<path d="M27.0071 25.4673C26.3904 27.3794 25.4652 28.7979 24.17 29.8465C22.8747 30.895 21.1478 31.4501 18.989 31.6351L18.5573 28.7979C19.9759 28.6129 21.0244 28.3045 21.7029 27.8111C21.9496 27.6261 22.443 27.071 22.443 27.071L17.3237 10.6647H21.5795L24.54 22.9386L27.6856 10.6647H31.818L27.0071 25.4673ZM12.1428 10.1096C13.1297 10.1096 14.0548 10.233 14.795 10.5414C15.5968 10.8498 16.3369 11.2815 17.077 11.8983L15.3501 14.242C14.8566 13.872 14.3632 13.6252 13.9315 13.4402C13.4997 13.2552 12.9446 13.1935 12.4512 13.1935C10.3542 13.1935 9.30565 14.7971 9.30565 18.066C9.30565 19.7313 9.55236 20.9032 10.1075 21.5817C10.6626 22.3218 11.4027 22.6302 12.4512 22.6302C12.9446 22.6302 13.4381 22.5685 13.8698 22.3835C14.3015 22.1984 14.795 21.9517 15.4117 21.5817L17.1387 24.0488C15.7201 25.2206 14.1165 25.7757 12.2662 25.7757C10.7859 25.7757 9.55236 25.4673 8.44216 24.8506C7.39364 24.2338 6.53016 23.3086 5.97506 22.1368C5.41996 20.9649 5.11157 19.608 5.11157 18.0044C5.11157 16.4624 5.41996 15.0438 5.97506 13.872C6.53016 12.6384 7.39364 11.7132 8.44216 11.0348C9.49068 10.4797 10.7242 10.1096 12.1428 10.1096Z" fill="white"/>
</g>
</g>
<defs>
<filter id="filter0_d_202_15592" x="-3.57593" y="-3.57373" width="43.1562" height="43.1562" filterUnits="userSpaceOnUse" color-interpolation-filters="sRGB">
<feFlood flood-opacity="0" result="BackgroundImageFix"/>
<feColorMatrix in="SourceAlpha" type="matrix" values="0 0 0 0 0 0 0 0 0 0 0 0 0 0 0 0 0 0 127 0" result="hardAlpha"/>
<feOffset/>
<feGaussianBlur stdDeviation="2"/>
<feColorMatrix type="matrix" values="0 0 0 0 0 0 0 0 0 0 0 0 0 0 0 0 0 0 0.3 0"/>
<feBlend mode="normal" in2="BackgroundImageFix" result="effect1_dropShadow_202_15592"/>
<feBlend mode="normal" in="SourceGraphic" in2="effect1_dropShadow_202_15592" result="shape"/>
</filter>
<clipPath id="clip0_202_15592">
<rect width="37" height="37" fill="white"/>
</clipPath>
</defs>
</svg>
