<svg width="37" height="36" viewBox="0 0 37 36" fill="none" xmlns="http://www.w3.org/2000/svg">
<g clip-path="url(#clip0_202_15809)">
<path d="M35.9479 25.6569C35.964 25.5001 35.9756 25.3418 35.9846 25.1827C35.9955 24.9944 24.6518 14.2314 24.6518 14.2314H24.3806C24.3806 14.2314 35.8785 26.3595 35.9479 25.6569Z" fill="url(#paint0_linear_202_15809)"/>
<path d="M11.7456 21.9235C11.7306 21.9565 11.7156 21.9895 11.7002 22.0225C11.6841 22.057 11.6676 22.0915 11.6511 22.1257C11.2895 22.8796 16.7133 28.182 17.1496 27.5379C17.1695 27.5094 17.1894 27.4794 17.2093 27.4509C17.2314 27.4171 17.2531 27.3849 17.2749 27.3511C17.6238 26.8214 11.9005 21.5791 11.7456 21.9235Z" fill="url(#paint1_linear_202_15809)"/>
<path d="M19.4102 29.3799C19.3948 29.4136 19.2856 29.5982 19.1858 29.6957C19.169 29.7295 24.4807 34.9973 24.4807 34.9973H24.9589C24.9593 34.9973 19.9728 29.6027 19.4102 29.3799Z" fill="url(#paint2_linear_202_15809)"/>
<path d="M35.992 25.0886C35.7437 30.5954 31.1879 34.9986 25.6218 34.9986H24.8693L19.3108 29.5226C19.768 28.8777 20.1931 28.2097 20.5716 27.5131H25.6218C27.2191 27.5131 28.5189 26.214 28.5189 24.616C28.5189 23.0187 27.2191 21.7189 25.6218 21.7189H22.6332C22.8609 20.5152 22.9855 19.2739 22.9855 18.0041C22.9855 16.7148 22.8587 15.4559 22.6227 14.233H24.4792L35.9594 25.5448C35.9729 25.3932 35.9838 25.2417 35.992 25.0886ZM3.02339 0.954102H0.00366211V8.43964H3.02339C8.29759 8.43964 12.589 12.7299 12.589 18.0041C12.589 19.4389 12.269 20.801 11.7003 22.0239L17.2093 27.4523C19.0182 24.7458 20.0756 21.4965 20.0756 18.0041C20.0756 8.60282 12.4258 0.954102 3.02339 0.954102Z" fill="url(#paint3_linear_202_15809)"/>
<path d="M25.6219 0.954102H13.3937C16.3804 2.77757 18.8536 5.36328 20.5386 8.43964H25.6219C27.2191 8.43964 28.5189 9.73869 28.5189 11.3367C28.5189 12.9343 27.2191 14.2334 25.6219 14.2334H24.4796L35.9598 25.5452C35.9868 25.2383 36.0037 24.9296 36.0037 24.616C36.0037 22.0926 35.0982 19.7777 33.5947 17.976C35.0982 16.175 36.0037 13.8598 36.0037 11.3367C36.0037 5.61198 31.347 0.954102 25.6219 0.954102Z" fill="url(#paint4_linear_202_15809)"/>
<path d="M24.8693 34.9991H13.481C15.7734 33.5834 17.7551 31.7145 19.3108 29.5231L24.8693 34.9991ZM17.2093 27.4528L11.7007 22.0244C10.1788 25.2951 6.86238 27.5698 3.02339 27.5698H0.00366211V35.0546H3.02339C8.93305 35.0546 14.1491 32.0319 17.2093 27.4528Z" fill="url(#paint5_linear_202_15809)"/>
</g>
<defs>
<linearGradient id="paint0_linear_202_15809" x1="14.7914" y1="3.59909" x2="36.1241" y2="26.6538" gradientUnits="userSpaceOnUse">
<stop stop-color="#F9A03C"/>
<stop offset="1" stop-color="#F7974E"/>
</linearGradient>
<linearGradient id="paint1_linear_202_15809" x1="-3.01206" y1="7.75378" x2="17.254" y2="27.4207" gradientUnits="userSpaceOnUse">
<stop stop-color="#F9A03C"/>
<stop offset="1" stop-color="#F7974E"/>
</linearGradient>
<linearGradient id="paint2_linear_202_15809" x1="6.30227" y1="14.664" x2="24.0477" y2="35.5731" gradientUnits="userSpaceOnUse">
<stop stop-color="#F9A03C"/>
<stop offset="1" stop-color="#F7974E"/>
</linearGradient>
<linearGradient id="paint3_linear_202_15809" x1="4.08428" y1="0.333914" x2="27.9143" y2="33.5858" gradientUnits="userSpaceOnUse">
<stop stop-color="#F26D58"/>
<stop offset="1" stop-color="#F9A03C"/>
</linearGradient>
<linearGradient id="paint4_linear_202_15809" x1="16.9759" y1="1.90283" x2="41.7075" y2="16.8444" gradientUnits="userSpaceOnUse">
<stop stop-color="#B84E51"/>
<stop offset="1" stop-color="#F68E48"/>
</linearGradient>
<linearGradient id="paint5_linear_202_15809" x1="11.6866" y1="25.0821" x2="12.0213" y2="41.2481" gradientUnits="userSpaceOnUse">
<stop stop-color="#F9A03C"/>
<stop offset="1" stop-color="#F7974E"/>
</linearGradient>
<clipPath id="clip0_202_15809">
<rect width="37" height="36" fill="white"/>
</clipPath>
</defs>
</svg>
