<svg width="36" height="36" viewBox="0 0 36 36" fill="none" xmlns="http://www.w3.org/2000/svg">
<g clip-path="url(#clip0_202_14695)">
<path d="M9.80238 9.80118L7.47559 7.4744L7.48543 24.2932L7.51327 25.0793C7.52481 25.4491 7.59343 25.8665 7.7079 26.2991L26.1445 32.8002L30.753 30.7583L30.7547 30.7527L9.80238 9.80118Z" fill="#00D2B8"/>
<path d="M7.70779 26.2992L7.70892 26.3003C7.70779 26.2927 7.70386 26.2843 7.70386 26.2764C7.70386 26.2843 7.70498 26.2916 7.70779 26.2992ZM30.7529 30.7584L26.1444 32.8003L7.70892 26.3003C8.06105 27.6514 8.84067 29.1702 9.67965 30.0007L15.6962 35.9829L29.0739 36.0004L30.7546 30.7528L30.7529 30.7584Z" fill="#55DDCA"/>
<path d="M0.310057 18.2978C-0.285633 18.9337 0.0102434 20.2454 0.969309 21.2118L5.10623 25.3831L7.7078 26.2991C7.59333 25.8665 7.52471 25.4491 7.51318 25.0793L7.48533 24.2932L7.47549 7.4744L0.310057 18.2978Z" fill="#0081C6"/>
<path d="M26.2958 7.69048C25.8632 7.57994 25.4484 7.5116 25.0723 7.49979L24.2415 7.4711L7.47559 7.47335L30.757 30.7528H30.7589L32.8036 26.1397L26.2958 7.69048Z" fill="#0079B3"/>
<path d="M26.2747 7.68588C26.2837 7.68785 26.2907 7.69038 26.2966 7.69123L26.2958 7.69038C26.2907 7.68785 26.2837 7.68785 26.2747 7.68588ZM29.9939 9.66561C29.149 8.8137 27.6503 8.03942 26.2966 7.69123L32.8036 26.1396L30.7589 30.7527H30.757L35.7537 29.1569L35.7643 15.4577L29.9939 9.66561Z" fill="#00A4E4"/>
<path d="M25.3842 5.10469L21.2141 0.96524C20.2497 0.00983036 18.9374 -0.287452 18.3032 0.30655L7.47559 7.47339L24.2415 7.47114L25.0723 7.49983C25.4484 7.51164 25.8632 7.57998 26.2958 7.69051L25.3842 5.10469Z" fill="#00D2B8"/>
</g>
<defs>
<clipPath id="clip0_202_14695">
<rect width="36" height="36.0004" fill="white"/>
</clipPath>
</defs>
</svg>
