<svg width="28" height="36" viewBox="0 0 28 36" fill="none" xmlns="http://www.w3.org/2000/svg">
<g clip-path="url(#clip0_202_15288)">
<path d="M7.68545 23.6083C7.68545 23.1555 8.42894 22.8679 9.04159 23.0839L12.8203 24.4722C13.1162 24.5771 13.3 24.7785 13.3 24.9976V35.4023C13.3 35.856 12.5617 36.1437 11.9501 35.9277L8.16519 34.5383C7.86925 34.4335 7.68545 34.232 7.68545 34.0129V23.6083ZM0.675293 0.990072C0.675293 0.537335 1.41982 0.248663 2.03143 0.464648L5.81532 1.85401C6.11126 1.96408 6.29609 2.16034 6.29609 2.37944V35.0129C6.29609 35.4656 5.55157 35.7532 4.93995 35.5383L1.15503 34.1479C0.859088 34.0441 0.675293 33.8416 0.675293 33.6225V0.990072ZM14.6946 21.8617C14.6946 21.4089 15.4391 21.1203 16.0507 21.3363L19.8356 22.7256C20.1316 22.8305 20.3154 23.0319 20.3154 23.251V32.8395C20.3154 33.2923 19.5709 33.5799 18.9592 33.3639L15.1743 31.9746V31.9725C14.8794 31.8686 14.6946 31.6672 14.6946 31.4481V21.8617ZM21.7079 10.1788C21.7079 9.72604 22.4461 9.43736 23.0578 9.65335L26.8427 11.0427H26.8479C27.1438 11.1476 27.3287 11.349 27.3287 11.5681V27.3163C27.3287 27.7691 26.5841 28.0567 25.9725 27.8407L22.1876 26.4514C21.8916 26.3475 21.7079 26.1461 21.7079 25.927V10.1788ZM14.6946 4.64832C14.6946 4.20077 15.4391 3.91314 16.0507 4.12912L19.8356 5.51849C20.1316 5.62232 20.3154 5.81858 20.3154 6.03768V15.6262C20.3154 16.0789 19.5709 16.3676 18.9592 16.1516L15.1743 14.7622C14.8794 14.6573 14.6946 14.4559 14.6946 14.2368V4.64832ZM7.68545 0.593408C7.68545 0.145863 8.42894 -0.141771 9.04159 0.0742138L12.8203 1.46254C13.1162 1.56742 13.3 1.76886 13.3 1.98796V12.4196C13.3 12.8724 12.5617 13.161 11.9501 12.945L8.16519 11.5557C7.86925 11.4518 7.68545 11.2494 7.68545 11.0303V0.593408Z" fill="#10363D"/>
</g>
<defs>
<clipPath id="clip0_202_15288">
<rect width="28" height="36.0009" fill="white"/>
</clipPath>
</defs>
</svg>
