<svg width="37" height="36" viewBox="0 0 37 36" fill="none" xmlns="http://www.w3.org/2000/svg">
<g clip-path="url(#clip0_202_15316)">
<path d="M17.7261 14.8594H12.1742C11.764 15.763 10.856 16.3926 9.79907 16.3926C8.35795 16.3926 7.18978 15.2244 7.18978 13.7834C7.18978 12.3423 8.35795 11.1741 9.79907 11.1741C10.856 11.1741 11.764 11.8037 12.1742 12.7074H16.4837L14.6564 9.5426H4.88775L0.00341797 18.0026L2.21109 21.8263H8.58857C8.77068 21.3699 9.21478 21.0463 9.73621 21.0463C10.4197 21.0463 10.9736 21.6002 10.9736 22.2836C10.9736 22.9671 10.4197 23.521 9.73621 23.521C9.22476 23.521 8.78601 23.2105 8.59757 22.7678H2.75461L4.88775 26.4625H14.6564L19.5407 18.0026L17.7261 14.8594Z" fill="#83292A"/>
<path d="M35.9675 8.49856L31.0832 0.0386963H26.7016L23.5243 5.54402C23.8286 5.9299 23.8868 6.47637 23.6261 6.92806C23.2845 7.51995 22.5278 7.72287 21.9359 7.38115C21.3441 7.03957 21.1413 6.28287 21.4827 5.69098C21.7385 5.24801 22.2268 5.02315 22.7043 5.08123L25.6146 0.0386963H21.3145L16.4301 8.49856L21.3145 16.9586H25.0596L27.7876 12.1416C27.2033 11.3393 27.1029 10.2389 27.6238 9.31924C28.334 8.06529 29.9263 7.62443 31.1801 8.33459C32.434 9.04474 32.8749 10.6369 32.1647 11.8909C31.6439 12.8105 30.6485 13.2905 29.6602 13.202L27.5327 16.9586H31.0832L35.9675 8.49856Z" fill="#83292A"/>
<path d="M33.874 31.1948L36.0035 27.5065L31.1192 19.0465H21.3505L19.5368 22.1881L22.3252 27.0353C23.3131 26.9401 24.3117 27.4133 24.8387 28.3294C25.5573 29.5785 25.1273 31.1737 23.8783 31.8923C22.6291 32.6109 21.034 32.1809 20.3154 30.9317C19.7883 30.0155 19.8811 28.9144 20.46 28.1084L18.2931 24.342L16.4661 27.5065L21.3505 35.9664H31.1192L33.3311 32.1352L30.151 26.6538C29.6647 26.7253 29.162 26.5036 28.9003 26.0524C28.5574 25.4614 28.7585 24.7041 29.3497 24.3611C29.9408 24.0183 30.698 24.2195 31.0409 24.8106C31.2976 25.253 31.2491 25.7884 30.9608 26.1735L33.874 31.1948Z" fill="#83292A"/>
<path d="M30.9691 10.6381C30.9691 11.2323 30.4875 11.714 29.8932 11.714C29.2989 11.714 28.8171 11.2323 28.8171 10.6381C28.8171 10.0438 29.2989 9.56213 29.8932 9.56213C30.4875 9.56213 30.9691 10.0438 30.9691 10.6381Z" fill="#B3B2B2"/>
<path d="M10.8751 13.7827C10.8751 14.3769 10.3933 14.8586 9.79921 14.8586C9.20493 14.8586 8.72314 14.3769 8.72314 13.7827C8.72314 13.1884 9.20493 12.7067 9.79921 12.7067C10.3933 12.7067 10.8751 13.1884 10.8751 13.7827Z" fill="#B3B2B2"/>
<path d="M23.6254 29.6538C23.6254 30.2481 23.1436 30.7297 22.5493 30.7297C21.9552 30.7297 21.4734 30.2481 21.4734 29.6538C21.4734 29.0595 21.9552 28.5778 22.5493 28.5778C23.1436 28.5778 23.6254 29.0595 23.6254 29.6538Z" fill="#B3B2B2"/>
<path d="M29.8931 8.76526C28.8781 8.76526 28.0522 9.59115 28.0522 10.6062C28.0522 11.0856 28.2416 11.5169 28.5441 11.8434L25.3402 17.4539H21.0488L18.6099 13.2963H11.5357C11.323 12.5167 10.6184 11.9394 9.77207 11.9394C8.75704 11.9394 7.93115 12.7653 7.93115 13.7804C7.93115 14.7954 8.75704 15.6211 9.77207 15.6211C10.6032 15.6211 11.2981 15.0648 11.5247 14.3066H18.0061L20.1606 17.9822L17.7762 22.1589L21.2801 28.3407C20.9459 28.6734 20.7355 29.1297 20.7355 29.6375C20.7355 30.6526 21.5614 31.4784 22.5764 31.4784C23.5914 31.4784 24.4173 30.6526 24.4173 29.6375C24.4173 28.6225 23.5914 27.797 22.5764 27.797C22.4373 27.797 22.3036 27.8166 22.1735 27.8464L18.9573 22.1519L21.1025 18.4813H25.9185L29.4286 12.3786C29.5777 12.419 29.7314 12.447 29.8931 12.447C30.9082 12.447 31.734 11.6212 31.734 10.6062C31.734 9.59115 30.9082 8.76526 29.8931 8.76526ZM29.8931 12.1456C29.6775 12.1456 29.4727 12.1003 29.2863 12.0202L25.744 18.1804H20.9298L18.6097 22.1494L22.0347 28.2013C22.2039 28.1373 22.3852 28.098 22.5764 28.098C23.4254 28.098 24.116 28.7886 24.116 29.6375C24.116 30.4866 23.4254 31.1775 22.5764 31.1775C21.7273 31.1775 21.0368 30.4866 21.0368 29.6375C21.0368 29.1296 21.287 28.6818 21.6677 28.4013L18.1229 22.1598L20.5087 17.9801L18.1789 14.0052L11.2889 14.0058C11.1787 14.7473 10.544 15.3198 9.77207 15.3198C8.92312 15.3198 8.23251 14.6292 8.23251 13.7804C8.23251 12.9314 8.92312 12.2408 9.77207 12.2408C10.5587 12.2408 11.2018 12.8356 11.2932 13.5981L18.4372 13.5977L20.876 17.7553H25.5152L28.9225 11.7912C28.5781 11.5087 28.3536 11.0854 28.3536 10.6062C28.3536 9.75723 29.044 9.06662 29.8931 9.06662C30.7421 9.06662 31.4327 9.75723 31.4327 10.6062C31.4327 11.455 30.7421 12.1456 29.8931 12.1456Z" fill="#040707"/>
</g>
<defs>
<clipPath id="clip0_202_15316">
<rect width="37" height="36" fill="white"/>
</clipPath>
</defs>
</svg>
