<svg width="32" height="30" viewBox="0 0 32 30" fill="none" xmlns="http://www.w3.org/2000/svg">
<g clip-path="url(#clip0_202_11351)">
<path d="M28.0035 21.7644H16.3838C13.5737 21.7644 12 23.7315 12 25.825C12 27.7569 13.3348 29.8856 16.3838 29.8856H28.0035V21.7644Z" fill="#669DF6"/>
<path d="M28.0037 29.8786C30.2114 29.8786 32.0011 28.0606 32.0011 25.818C32.0011 23.5754 30.2114 21.7574 28.0037 21.7574C25.796 21.7574 24.0063 23.5754 24.0063 25.818C24.0063 28.0606 25.796 29.8786 28.0037 29.8786Z" fill="#1A73E8"/>
<path d="M16.0045 10.9385H4.38473C1.57463 10.9385 0.000976562 12.9055 0.000976562 14.9991C0.000976562 16.931 1.33577 19.0597 4.38473 19.0597H16.0045V10.9385Z" fill="#669DF6"/>
<path d="M16.0042 19.0597C18.2119 19.0597 20.0016 17.2417 20.0016 14.9991C20.0016 12.7565 18.2119 10.9385 16.0042 10.9385C13.7965 10.9385 12.0068 12.7565 12.0068 14.9991C12.0068 17.2417 13.7965 19.0597 16.0042 19.0597Z" fill="#1A73E8"/>
<path d="M28.0035 0.119629H16.3838C13.5737 0.119629 12 2.0867 12 4.18022C12 6.11216 13.3348 8.24081 16.3838 8.24081H28.0035V0.119629Z" fill="#669DF6"/>
<path d="M28.0037 8.24081C30.2114 8.24081 32.0011 6.42283 32.0011 4.18022C32.0011 1.93762 30.2114 0.119629 28.0037 0.119629C25.796 0.119629 24.0063 1.93762 24.0063 4.18022C24.0063 6.42283 25.796 8.24081 28.0037 8.24081Z" fill="#1A73E8"/>
</g>
<defs>
<clipPath id="clip0_202_11351">
<rect width="32.001" height="30" fill="white"/>
</clipPath>
</defs>
</svg>
