<svg width="37" height="30" viewBox="0 0 37 30" fill="none" xmlns="http://www.w3.org/2000/svg">
<g clip-path="url(#clip0_202_9911)">
<path d="M5.67875 3.29452L19.3805 11.2297L30.9285 3.29452H5.67875ZM21.6836 12.563L25.4226 14.7293L30.6658 6.39136L21.6836 12.563ZM4.83211 5.57922L11.7023 16.5053L17.1894 12.7356L4.83211 5.57922ZM27.5142 15.9401L33.5799 19.4528V6.29438L27.5142 15.9401ZM2.42837 6.29438V22.8775L9.70948 17.8744L2.42837 6.29438ZM12.9828 18.5419L18.0042 26.5265L24.144 16.763L19.4919 14.0689L12.9828 18.5419ZM18.0035 29.1009C17.219 29.1009 16.4965 28.6672 16.0204 27.9104V27.9098L10.99 19.911L3.39252 25.1319C2.6212 25.662 1.78119 25.7619 1.09122 25.4056C0.400053 25.0492 0.00415039 24.3126 0.00415039 23.3838V3.88236C0.00415039 2.72335 0.677245 1.71665 1.65826 1.22401C1.95775 1.036 2.39222 0.901535 3.02132 0.90094H3.02193H3.02434H32.984H32.9864H32.987C33.5733 0.901535 33.9921 1.02291 34.2916 1.19486C35.3039 1.67679 36.0042 2.70014 36.0042 3.88236V19.7575C36.0042 20.666 35.6155 21.4073 34.937 21.7917C34.2578 22.1748 33.4124 22.1314 32.6194 21.6721L26.2349 17.9743L19.9873 27.9098C19.5112 28.6672 18.7887 29.1009 18.0035 29.1009Z" fill="url(#paint0_linear_202_9911)"/>
</g>
<defs>
<linearGradient id="paint0_linear_202_9911" x1="0.00415039" y1="0.90094" x2="27.3837" y2="35.8536" gradientUnits="userSpaceOnUse">
<stop stop-color="#7D58FF"/>
<stop offset="1" stop-color="#FF007D"/>
</linearGradient>
<clipPath id="clip0_202_9911">
<rect width="37" height="30" fill="white"/>
</clipPath>
</defs>
</svg>
