<svg width="30" height="37" viewBox="0 0 30 37" fill="none" xmlns="http://www.w3.org/2000/svg">
<g clip-path="url(#clip0_202_15079)">
<path d="M17.8293 19.0231C17.2328 19.0314 17.9422 19.3305 18.721 19.4503C18.9361 19.2824 19.1313 19.1124 19.3052 18.9471C18.8202 19.0659 18.3266 19.0686 17.8293 19.0231Z" fill="#A80030"/>
<path d="M21.031 18.2251C21.3862 17.7348 21.6451 17.198 21.7364 16.643C21.6568 17.0387 21.442 17.3803 21.2398 17.7408C20.1248 18.4428 21.1349 17.3238 21.2392 16.8986C20.0402 18.4077 21.0745 17.8035 21.031 18.2251Z" fill="#A80030"/>
<path d="M22.2128 15.1499C22.2848 14.0757 22.0013 14.4153 21.9061 14.8252C22.0173 14.883 22.1052 15.5824 22.2128 15.1499Z" fill="#A80030"/>
<path d="M15.5674 0.467576C15.8858 0.524672 16.2552 0.56849 16.2034 0.644508C16.5517 0.568158 16.6307 0.497784 15.5674 0.467576Z" fill="#A80030"/>
<path d="M16.2034 0.644508L15.9784 0.690981L16.1878 0.672392L16.2034 0.644508Z" fill="#A80030"/>
<path d="M26.1302 15.5572C26.1657 16.5218 25.848 16.9899 25.5615 17.8184L25.046 18.076C24.6241 18.8953 25.0868 18.5962 24.7848 19.2478C24.1262 19.8334 22.7861 21.0802 22.3572 21.1941C22.0442 21.1871 22.5693 20.8246 22.638 20.6825C21.7563 21.288 21.9306 21.5914 20.5822 21.9592L20.5427 21.8716C17.2172 23.4361 12.5978 20.3356 12.6585 16.1052C12.623 16.3738 12.5576 16.3067 12.4839 16.4153C12.3123 14.2387 13.4891 12.0524 15.4738 11.1598C17.4151 10.1988 19.6909 10.5931 21.0815 11.8891C20.3177 10.8886 18.7973 9.82799 16.9955 9.92725C15.2305 9.95513 13.5793 11.0768 13.0283 12.2944C12.1241 12.8637 12.0192 14.489 11.6251 14.7864C11.095 18.6825 12.6223 20.3658 15.2059 22.346C15.6126 22.6201 15.3204 22.6616 15.3755 22.8704C14.5171 22.4684 13.731 21.8616 13.0847 21.1187C13.4276 21.6206 13.7978 22.1086 14.2761 22.492C13.4668 22.2178 12.3856 20.5308 12.07 20.4621C13.4652 22.9601 17.7304 24.8429 19.9638 23.9088C18.9304 23.947 17.6176 23.93 16.4564 23.5008C15.9687 23.2499 15.3055 22.73 15.424 22.6328C18.472 23.7714 21.6206 23.4952 24.2579 21.381C24.9288 20.8585 25.6618 19.9695 25.8736 19.9572C25.5546 20.4369 25.928 20.1879 25.683 20.6115C26.3516 19.5333 25.3926 20.1727 26.3742 18.7496L26.7366 19.2488C26.6019 18.3539 27.848 17.2671 27.7215 15.8516C28.0074 15.4188 28.0406 16.3173 27.7372 17.3132C28.1581 16.2085 27.848 16.0309 27.9562 15.1193C28.0731 15.4257 28.2264 15.7514 28.3051 16.0747C28.0309 15.0071 28.5866 14.2768 28.724 13.6564C28.5886 13.5963 28.3008 14.1284 28.2351 12.8674C28.2447 12.3196 28.3874 12.5802 28.4426 12.4454C28.335 12.3837 28.0528 11.9638 27.8812 11.1585C28.0057 10.9692 28.2138 11.6491 28.3831 11.677C28.2743 11.0366 28.0867 10.5483 28.0791 10.057C27.5845 9.02334 27.9041 10.1948 27.5028 9.61322C26.9763 7.97105 27.9396 9.23214 28.0047 8.48591C28.8027 9.6421 29.2578 11.434 29.4666 12.1762C29.3073 11.2713 29.0497 10.3946 28.7353 9.5465C28.9777 9.64841 28.345 7.68457 29.0504 8.98516C28.2968 6.21269 25.8254 3.62213 23.5519 2.40652C23.8301 2.66112 24.1813 2.98079 24.0551 3.03092C22.9245 2.35772 23.1233 2.30527 22.9613 2.02079C22.0402 1.64601 21.9798 2.05099 21.3696 2.02145C19.6335 1.10061 19.2989 1.19854 17.7012 0.621603L17.7739 0.961191C16.6237 0.578117 16.4338 1.10659 15.1906 0.962519C15.115 0.903431 15.589 0.748741 15.979 0.691977C14.867 0.8387 14.9191 0.472888 13.831 0.732475C14.0992 0.544258 14.3827 0.419775 14.6688 0.259774C13.7619 0.314878 12.5038 0.787579 12.8922 0.3577C11.413 1.01762 8.78594 1.9441 7.31174 3.32636L7.26526 3.01665C6.58974 3.82761 4.31951 5.43858 4.1386 6.48888L3.95801 6.53103C3.60647 7.12623 3.37909 7.80076 3.10025 8.41321C2.64049 9.19662 2.42638 8.71462 2.49178 8.83745C1.58754 10.6708 1.1384 12.2114 0.750349 13.4748C1.02687 13.8881 0.756988 15.9628 0.861554 17.6233C0.407442 25.8238 6.61696 33.7861 13.4044 35.6244C14.3993 35.9803 15.8788 35.9667 17.1372 36.0032C15.6524 35.5786 15.4605 35.7781 14.0142 35.2739C12.9709 34.7826 12.7422 34.2216 12.0032 33.5802L12.2957 34.0971C10.8464 33.5842 11.4529 33.4624 10.2738 33.089L10.5861 32.681C10.1164 32.6455 9.34196 31.8893 9.13018 31.4707L8.61631 31.4909C7.99888 30.7291 7.66991 30.18 7.69382 29.7548L7.52784 30.0506C7.33962 29.7276 5.25628 27.1935 6.33712 27.7833C6.13629 27.5998 5.8694 27.4846 5.57994 26.9588L5.80002 26.7072C5.27985 26.0379 4.84267 25.1802 4.87586 24.8944C5.15338 25.2691 5.34591 25.3392 5.53645 25.4032C4.22291 22.1441 4.14922 25.2237 3.15435 22.0857L3.36481 22.0688C3.20348 21.8258 3.10556 21.5619 2.97576 21.303L3.06738 20.3901C2.12165 19.2966 2.80282 15.7407 2.93925 13.7905C3.03386 12.9975 3.72863 12.1533 4.2571 10.8295L3.93511 10.7741C4.55055 9.70052 7.44917 6.46265 8.79158 6.62929C9.44188 5.81236 8.66245 6.62631 8.53532 6.42049C9.96371 4.94231 10.4128 5.37617 11.3768 5.11027C12.4165 4.49317 10.4845 5.35094 10.9775 4.87492C12.7747 4.41583 12.2512 3.83126 14.5958 3.59823C14.8431 3.73898 14.0218 3.81566 13.8157 3.99823C15.3131 3.26561 18.5543 3.43225 20.6596 4.40487C23.1024 5.54646 25.847 8.9211 25.9552 12.0962L26.0784 12.1294C26.016 13.3915 26.2716 14.8511 25.8288 16.1919L26.1302 15.5572Z" fill="#A80030"/>
<path d="M11.3184 19.842L11.2348 20.2603C11.6268 20.7927 11.9378 21.3697 12.4384 21.7859C12.0783 21.0829 11.8107 20.7924 11.3184 19.842Z" fill="#A80030"/>
<path d="M12.2452 19.8055C12.0378 19.5761 11.9149 19.2999 11.7775 19.0248C11.909 19.5084 12.1782 19.924 12.4288 20.3466L12.2452 19.8055Z" fill="#A80030"/>
<path d="M28.645 16.241L28.5574 16.4608C28.3967 17.602 28.0499 18.7313 27.5181 19.7783C28.1056 18.6736 28.4857 17.4652 28.645 16.241Z" fill="#A80030"/>
<path d="M15.6853 0.181433C16.0886 0.0337135 16.6768 0.100436 17.1047 0.00317383C16.547 0.0499792 15.992 0.0778633 15.4439 0.148569L15.6853 0.181433Z" fill="#A80030"/>
<path d="M1.52579 7.7108C1.61874 8.57122 0.878483 8.90516 1.68978 8.33786C2.12464 7.35826 1.51982 8.06731 1.52579 7.7108Z" fill="#A80030"/>
<path d="M0.572422 11.6929C0.759312 11.1193 0.793171 10.7747 0.864541 10.4428C0.348022 11.103 0.626863 11.2438 0.572422 11.6929Z" fill="#A80030"/>
</g>
<defs>
<clipPath id="clip0_202_15079">
<rect width="30" height="37" fill="white"/>
</clipPath>
</defs>
</svg>
