<svg width="37" height="37" viewBox="0 0 37 37" fill="none" xmlns="http://www.w3.org/2000/svg">
<g clip-path="url(#clip0_202_13064)">
<path d="M18.0032 0.00219727C8.06211 0.00219727 0.00317383 8.06113 0.00317383 18.0022C0.00317383 27.9433 8.06211 36.0022 18.0032 36.0022C27.9442 36.0022 36.0032 27.9433 36.0032 18.0022C36.0032 8.06113 27.9442 0.00219727 18.0032 0.00219727ZM11.5715 26.6353C15.6675 29.9552 22.0796 29.0268 25.773 24.6065C22.1903 24.1316 17.96 23.0094 14.5283 21.6712C13.6003 23.4627 12.8881 24.8871 11.5715 26.6353ZM22.1039 8.53462C19.8593 9.11006 16.924 14.1173 15.1974 19.5993C19.3844 21.4986 22.665 22.2755 27.1974 22.8223C27.1974 22.8223 31.3845 13.4554 22.1039 8.53462ZM20.5931 31.5562C15.7021 32.4967 9.37006 29.9375 7.01755 26.1821C7.01755 26.1821 10.3834 22.45 11.3125 20.2684C10.3107 19.4911 9.70813 19.0439 9.06899 18.474C5.38067 15.1853 5.44621 10.6592 9.20947 7.4452C13.4053 3.86179 19.7919 3.28228 24.7196 6.0381C29.6953 8.82079 32.5335 14.5462 31.6323 19.9829C30.6441 25.9432 26.1719 30.4834 20.5931 31.5562ZM18.8665 7.81518C16.046 7.7744 13.9141 8.34042 11.9328 9.7409C8.67608 12.0429 8.83442 15.7155 12.3238 17.9066C13.9888 14.0741 15.3364 10.5882 18.8665 7.81518Z" fill="#4C4C4B"/>
</g>
<defs>
<clipPath id="clip0_202_13064">
<rect width="37" height="37" fill="white"/>
</clipPath>
</defs>
</svg>
