<svg width="37" height="32" viewBox="0 0 37 32" fill="none" xmlns="http://www.w3.org/2000/svg">
<g clip-path="url(#clip0_202_9870)">
<path d="M6.75586 16.0022H33.7674V30.2603C33.7674 31.0874 33.0978 31.757 32.2707 31.757H8.26044C7.43332 31.757 6.76374 31.0874 6.76374 30.2603V16.0022H6.75586Z" fill="#8C193F"/>
<path d="M8.26044 0.247314H32.2707C33.0978 0.247314 33.7674 0.916892 33.7674 1.74402V16.0021H6.75586V1.74402C6.75586 0.916892 7.42544 0.247314 8.26044 0.247314Z" fill="#D23062"/>
<path d="M34.5 27.259H6.75586V16.0022H33.7674L35.9652 25.4157C36.1543 26.2192 35.6501 27.0305 34.8466 27.2196C34.7285 27.2432 34.6182 27.259 34.5 27.259Z" fill="#E8467C"/>
<path d="M34.5 4.74536H6.75586V16.0021H33.7674L35.9652 6.58867C36.1543 5.78518 35.6501 4.97381 34.8466 4.78475C34.7285 4.76112 34.6182 4.74536 34.5 4.74536Z" fill="#BC1948"/>
<path opacity="0.1" d="M18.2961 6.03687H6.75574V26.6677H18.2961C19.1311 26.6677 19.8086 25.9903 19.8086 25.1553V7.54932C19.8086 6.71432 19.1311 6.04474 18.2961 6.03687Z" fill="black"/>
<path opacity="0.2" d="M17.469 6.86401H6.75574V27.4949H17.469C18.304 27.4949 18.9814 26.8174 18.9814 25.9824V8.37647C18.9814 7.54147 18.304 6.86401 17.469 6.86401Z" fill="black"/>
<path opacity="0.2" d="M17.469 6.86401H6.75574V25.8406H17.469C18.304 25.8406 18.9814 25.1632 18.9814 24.3282V8.37647C18.9814 7.54147 18.304 6.86401 17.469 6.86401Z" fill="black"/>
<path opacity="0.2" d="M16.6419 6.86401H6.75574V25.8406H16.6419C17.4769 25.8406 18.1543 25.1632 18.1543 24.3282V8.37647C18.1543 7.54147 17.4769 6.86401 16.6419 6.86401Z" fill="black"/>
<path d="M1.50159 6.99829H16.508C17.3351 6.99829 18.0047 7.66787 18.0047 8.49499V23.5014C18.0047 24.3285 17.3351 24.9981 16.508 24.9981H1.50159C0.674461 24.9981 0.00488281 24.3285 0.00488281 23.5014V8.50287C0.00488281 7.66787 0.674461 6.99829 1.50159 6.99829Z" fill="url(#paint0_linear_202_9870)"/>
<path d="M5.25916 11.1258H8.39436C9.82016 11.0234 11.2302 11.4567 12.3488 12.339C13.2941 13.2685 13.7825 14.5604 13.688 15.8759C13.7037 16.7976 13.4753 17.7035 13.0263 18.4991C12.5851 19.2553 11.9313 19.8619 11.1514 20.2557C10.2771 20.6811 9.30813 20.8938 8.33921 20.878H5.25916V11.1258ZM8.35497 19.3104C8.97728 19.3262 9.59172 19.1844 10.1431 18.9087C10.6394 18.6487 11.0412 18.2391 11.2932 17.735C11.5689 17.1678 11.7107 16.5455 11.695 15.9153C11.7501 15.0409 11.4429 14.1823 10.8442 13.5442C10.1668 12.9534 9.2845 12.6541 8.38648 12.7171H7.15761V19.3104H8.35497Z" fill="white"/>
</g>
<defs>
<linearGradient id="paint0_linear_202_9870" x1="3.13311" y1="5.82722" x2="14.8821" y2="26.1771" gradientUnits="userSpaceOnUse">
<stop stop-color="#C32050"/>
<stop offset="0.5" stop-color="#BC1948"/>
<stop offset="1" stop-color="#9C1942"/>
</linearGradient>
<clipPath id="clip0_202_9870">
<rect width="37" height="32" fill="white"/>
</clipPath>
</defs>
</svg>
