<svg width="37" height="37" viewBox="0 0 37 37" fill="none" xmlns="http://www.w3.org/2000/svg">
<g clip-path="url(#clip0_202_15888)">
<path d="M16.5874 0.0136478C16.6716 0.00479372 17.402 0.000366675 18.2034 0.00922076C19.2526 0.0180748 19.8193 0.0402101 20.2089 0.0933346C23.8127 0.575882 26.9294 1.93941 29.6699 4.23262C30.1835 4.65762 31.3522 5.82635 31.7773 6.33989C34.0794 9.08908 35.4253 12.1747 35.9211 15.827C36.0318 16.6372 36.0318 19.3731 35.9211 20.1833C35.4253 23.8356 34.0794 26.9212 31.7773 29.6704C31.3522 30.1839 30.1835 31.3527 29.6699 31.7777C26.9206 34.0797 23.8348 35.4256 20.1823 35.9214C19.3722 36.0321 16.6361 36.0321 15.826 35.9214C12.1735 35.4256 9.08771 34.0797 6.33841 31.7777C5.82485 31.3527 4.65606 30.1839 4.23105 29.6704C1.92889 26.9212 0.58301 23.8356 0.0871609 20.1833C-0.0235198 19.3731 -0.0235198 16.6372 0.0871609 15.827C0.58301 12.1747 1.92889 9.08908 4.23105 6.33989C4.65606 5.82635 5.82485 4.65762 6.33841 4.23262C9.1187 1.904 12.5277 0.438644 15.9898 0.0756264C16.2333 0.0534912 16.5033 0.0225019 16.5874 0.0136478ZM17.5836 13.0247C16.6716 12.8875 15.4673 12.9052 14.6173 13.0646C11.9477 13.5693 9.34449 15.008 8.08273 16.6682C7.79939 17.0401 7.48949 17.6775 7.3788 18.1158C7.27698 18.5143 7.25484 19.2226 7.33453 19.5767C7.48063 20.232 7.97205 20.7853 8.77338 21.2015C9.46846 21.5601 10.3008 21.8744 10.7656 21.9585C11.6201 22.1134 12.8509 22.1621 13.6433 22.078C14.79 21.9585 16.7778 21.4228 17.7695 20.9668C17.9776 20.8739 18.2034 20.7942 18.2786 20.7942C18.7125 20.7942 19.0534 21.2635 18.863 21.5911C18.7568 21.7637 18.0617 22.1134 17.2604 22.3923C16.8221 22.5429 16.7203 22.5916 16.7424 22.6491C16.8486 22.9147 17.039 24.1189 17.1364 25.1105C17.3091 26.8371 17.3356 29.9493 17.2028 32.4152C17.1763 32.9243 17.1497 33.5751 17.1497 33.854L17.1408 34.3631L18.2034 34.3586C19.6644 34.3542 20.6206 34.2391 22.0993 33.8761C23.308 33.5795 24.2244 33.2607 25.1763 32.8003C25.8625 32.4683 25.8049 32.5745 25.7562 31.7954C25.7297 31.4279 25.6987 30.8303 25.6854 30.4673C25.6367 29.2144 25.4109 26.1553 25.2382 24.4686C24.8575 20.7056 24.5564 19.3023 23.7817 17.7174C23.2504 16.6283 22.6837 15.858 21.7629 14.9771C21.1431 14.3838 20.8774 14.1846 20.3196 13.8969C19.4563 13.4541 18.5841 13.1752 17.5836 13.0247ZM11.1951 31.3394C11.0224 31.3217 11.0268 31.2863 11.1198 32.1982C11.1729 32.7029 11.2084 32.8712 11.2615 32.911C11.443 33.0482 11.4563 32.9995 11.4253 32.3355C11.4076 31.9902 11.381 31.6272 11.3677 31.5298C11.3412 31.3704 11.3235 31.3527 11.1951 31.3394ZM9.14084 28.4972C9.04344 28.4972 9.03901 28.5858 9.12313 29.3605C9.15855 29.6748 9.19839 30.1441 9.2161 30.4009C9.23381 30.6576 9.27366 31.0738 9.30465 31.3305C9.34007 31.5829 9.35777 31.8042 9.34892 31.8219C9.32678 31.8485 9.42861 31.9503 9.54372 32.0167C9.61898 32.061 9.6057 31.8308 9.43747 30.1352C9.37991 29.5155 9.32679 28.9178 9.32679 28.8027C9.32679 28.692 9.30465 28.5814 9.27366 28.5504C9.24267 28.5194 9.18511 28.4972 9.14084 28.4972ZM27.1242 25.9827C27.0844 25.9783 27.0401 25.9871 27.0224 26.0048C26.987 26.0358 27.0313 31.6449 27.0623 31.6803C27.0755 31.6936 27.1154 31.6626 27.1597 31.6139C27.2305 31.5342 27.2349 31.335 27.2128 28.7629C27.1951 26.3103 27.1818 25.996 27.1242 25.9827ZM12.6089 26.7707L12.4568 26.7707L12.4878 27.1337C12.6074 28.6478 12.7048 29.6306 12.7358 29.6615C12.7535 29.6837 12.8154 29.6881 12.8686 29.6704C12.966 29.6394 12.966 29.6261 12.9394 29.21C12.8951 28.5902 12.7844 27.2754 12.7535 27.0009C12.7313 26.7795 12.7225 26.7707 12.5941 26.7707L12.6089 26.7707ZM5.75844 23.9772C5.71417 23.902 5.60791 23.9374 5.60791 24.0304C5.60791 24.0835 5.67432 24.6457 5.75844 25.2832C5.90454 26.4077 6.09491 28.2449 6.09491 28.5238C6.09491 28.6256 6.1259 28.6832 6.21002 28.7407L6.3207 28.8116L6.29856 28.6212C6.28528 28.5149 6.2233 27.9527 6.16132 27.3683C5.95324 25.4337 5.785 24.0171 5.75844 23.9772ZM31.308 23.9817C31.2903 23.9817 31.2017 24.0569 31.1132 24.1455L30.9494 24.3137L30.9405 26.2129C30.9272 28.2847 30.9139 28.2139 31.1663 27.842L31.277 27.6782L31.308 25.8277C31.3213 24.8139 31.3213 23.9817 31.308 23.9817ZM14.0816 23.1272C14.0595 23.0608 13.9311 23.021 13.8824 23.0741C13.8691 23.083 13.8957 23.4858 13.9355 23.9684C13.9798 24.4509 14.0462 25.2744 14.0816 25.7967C14.179 27.0584 14.1879 27.1249 14.272 27.1249C14.3473 27.1249 14.3428 26.8991 14.2189 25.1105C14.1835 24.6236 14.1436 23.9949 14.1303 23.716C14.1126 23.4371 14.0905 23.1715 14.0816 23.1272ZM3.81489 19.3642C3.7839 19.1163 3.74405 19.0721 3.62452 19.1518C3.56696 19.1872 3.56253 19.1562 4.25318 23.9285C4.35944 24.6678 4.46126 25.2832 4.47454 25.2965C4.5808 25.4072 4.56309 25.146 4.32402 23.3176C4.16464 22.1356 3.85473 19.7273 3.81489 19.3642ZM32.9682 15.526C32.9384 15.526 32.925 15.9919 32.924 16.9236L32.9239 17.0401C32.9195 17.8768 32.9106 18.8374 32.9018 19.1783C32.8929 19.5192 32.8708 20.9845 32.8619 22.4322C32.8354 25.3275 32.8221 25.1947 33.0966 24.535C33.2648 24.1322 33.2692 23.9949 33.3046 19.3244L33.3356 15.6588L33.1763 15.5924C33.0877 15.557 32.9947 15.526 32.9682 15.526ZM10.4026 23.0077C10.2831 23.0077 10.2831 22.9988 10.345 23.7913C10.4036 24.5272 10.4029 24.5562 10.5593 24.5572L10.5979 24.5572C10.7697 24.5592 10.76 24.6084 10.6948 23.7603C10.655 23.2822 10.624 23.1051 10.5753 23.0608C10.5354 23.0343 10.4602 23.0077 10.4026 23.0077ZM6.66602 20.9491L6.69258 21.1705C6.70495 21.2818 6.74802 21.6847 6.7932 22.0935L6.80326 22.1843C6.84754 22.6181 6.90509 22.9944 6.92723 23.0166C6.99806 23.0874 7.15744 22.9723 7.15744 22.8483C7.15744 22.7022 7.02905 21.5025 7.00249 21.3918C6.98921 21.3431 6.90952 21.2236 6.82097 21.1262L6.66602 20.9491ZM4.12922 9.29273C4.10266 9.26617 3.84145 9.68231 3.81046 9.80184C3.79718 9.85939 3.84588 10.3951 3.92557 10.9971C4.00083 11.6036 4.12037 12.5422 4.1912 13.0911C4.26204 13.6401 4.39043 14.6362 4.47897 15.3047C4.56309 15.9731 4.68262 16.8984 4.7446 17.3632C5.04123 19.6697 5.17405 20.6968 5.25374 21.3033C5.30243 21.6663 5.34228 22.0028 5.34228 22.0426C5.34228 22.1356 5.38655 22.1444 5.49281 22.0647C5.56364 22.0116 5.56364 21.9762 5.50166 21.4582C5.46624 21.1528 5.40426 20.6171 5.36884 20.2629C5.329 19.9088 5.12092 18.0184 4.89956 16.0572C4.6782 14.0961 4.42142 11.7763 4.32402 10.9042C4.22662 10.0276 4.13807 9.30601 4.12922 9.29273ZM28.8863 5.64042L28.9128 6.27791C28.9261 6.62765 28.9483 9.51408 28.966 12.6927C28.9881 17.9387 28.997 18.4744 29.0634 18.5231C29.1032 18.5541 29.1696 18.5807 29.2183 18.5807C29.298 18.5807 29.298 18.4213 29.2847 12.281C29.2714 6.93312 29.2626 5.96359 29.2095 5.90161C29.174 5.86177 29.0899 5.78651 29.0147 5.73339L28.8863 5.64042ZM6.49779 16.3052C6.4845 16.2963 6.40481 16.3317 6.32955 16.3848C6.16132 16.4911 6.16132 16.5221 6.24543 17.2304L6.29856 17.6731L6.44023 17.3721C6.56862 17.0887 6.57748 17.0533 6.55091 16.6947C6.53763 16.4911 6.51107 16.314 6.49779 16.3052ZM2.81433 11.8516C2.80105 11.8516 2.7435 11.9844 2.69037 12.1482L2.58854 12.4492L2.90288 14.6185C3.07997 15.8093 3.24377 16.9471 3.27034 17.1419C3.2969 17.3367 3.33232 17.5137 3.35003 17.5315C3.36774 17.5492 3.42086 17.5315 3.47399 17.4872L3.56696 17.4075L3.48284 16.7877C3.43414 16.4468 3.32789 15.6278 3.24377 14.9726C3.15966 14.313 3.03569 13.3435 2.96929 12.8122C2.89845 12.2854 2.83204 11.8516 2.81433 11.8516ZM31.0202 13.0911C30.9936 13.0911 30.9759 13.8791 30.9759 15.2781L30.976 15.4656C30.9766 17.2459 30.9868 17.4702 31.0468 17.4916C31.1442 17.527 31.3744 17.5226 31.3788 17.4828C31.4009 17.3677 31.4275 14.6052 31.4186 13.3966C31.4186 13.2461 31.4009 13.2284 31.2416 13.162C31.1442 13.1221 31.0423 13.0911 31.0202 13.0911ZM27.0667 12.1615H26.925L26.9383 14.4502C26.9555 16.8894 26.9518 16.9 27.1981 16.8985L27.3456 16.8984L27.3456 14.5351C27.3454 12.5628 27.3361 12.2936 27.2748 12.2323C27.2393 12.1924 27.1419 12.1615 27.0667 12.1615ZM12.7889 15.5703C13.1962 15.3224 13.754 15.65 13.754 16.1369C13.754 16.6416 13.2095 16.9736 12.7889 16.7213C12.3639 16.4601 12.3639 15.8315 12.7889 15.5703ZM9.78722 15.1453C10.3273 14.9106 10.832 15.495 10.5221 15.9997C10.3583 16.2742 10.0396 16.3494 9.72523 16.1901C9.29137 15.9687 9.32678 15.3445 9.78722 15.1453ZM7.47178 8.73492C7.44079 8.65523 7.42308 8.65966 7.26812 8.80575L7.09546 8.96513L7.21942 10.2401C7.28583 10.944 7.41865 12.2677 7.51162 13.1797C7.60459 14.0916 7.69314 14.9948 7.71085 15.1895L7.74184 15.5393L7.91007 15.3666L8.08273 15.194L7.93221 13.556C7.84809 12.6529 7.7197 11.2185 7.64001 10.3685C7.56475 9.51408 7.48949 8.77919 7.47178 8.73492ZM24.9549 6.71619V14.2466L25.1143 14.313C25.2028 14.3484 25.2825 14.3705 25.2914 14.3617C25.3135 14.344 25.3091 8.34534 25.2869 7.36696C25.2825 7.07921 25.2604 6.82687 25.2382 6.80916C25.2161 6.78702 25.1453 6.76046 25.0789 6.74275L24.9549 6.71619ZM16.8088 1.58082L16.6893 1.58525C16.6184 1.58967 16.5077 1.60296 16.4413 1.61181L16.3174 1.62952L16.3439 2.61232C16.3705 3.50658 16.6317 9.62033 16.7114 11.1964C16.7291 11.5549 16.7601 11.8604 16.7734 11.8781C16.7911 11.8914 16.8929 11.918 17.0036 11.9268L17.2028 11.949L17.1807 11.6258C17.1586 11.3026 17.0125 7.67686 16.9638 6.29562C16.9505 5.90604 16.9195 5.15787 16.8929 4.63548C16.8442 3.56856 16.8088 2.44409 16.8088 1.92613V1.58082ZM5.59463 7.30941C5.55036 7.26072 5.20946 7.70785 5.20946 7.8141C5.20946 7.99118 5.65219 11.9091 5.67432 11.9312C5.70974 11.9667 6.05064 11.7984 6.05064 11.7453C6.05064 11.7187 5.98866 11.099 5.91339 10.3685C5.84256 9.63804 5.74516 8.65523 5.69646 8.18597C5.65219 7.71227 5.60791 7.31827 5.59463 7.30941ZM10.8055 3.30294C10.7745 3.24539 10.6948 3.25867 10.5531 3.33393C10.438 3.39591 10.4336 3.41362 10.4557 3.60841C10.469 3.72351 10.5576 4.78157 10.655 5.96359C10.8232 7.97347 11.0623 10.7537 11.1242 11.3292C11.1375 11.4708 11.1641 11.5859 11.1774 11.5859C11.1951 11.5859 11.2748 11.5461 11.3545 11.4974C11.4961 11.4089 11.5006 11.4 11.4784 11.1742C11.4651 11.0503 11.381 10.0586 11.2969 8.97398C11.0401 5.78208 10.832 3.34278 10.8055 3.30294ZM22.8298 8.57555H22.728L22.7546 9.55835C22.7723 10.1029 22.7856 10.7182 22.7856 10.9307V11.3115L22.9228 11.3602C23.1619 11.4443 23.2106 11.3779 23.2017 10.9794C23.2017 10.7891 23.1929 10.2047 23.1884 9.68231L23.184 8.72607L23.0556 8.65081C22.9848 8.61096 22.883 8.57555 22.8298 8.57555ZM12.9438 6.85343C12.8376 6.86228 12.6074 6.94197 12.5852 6.97296C12.5631 7.00837 12.718 9.18648 12.7623 9.44767C12.78 9.58049 12.7977 9.59377 12.9305 9.59377C13.1829 9.59377 13.1918 9.54507 13.1386 8.76591C13.1121 8.38076 13.0811 7.88493 13.0678 7.668C13.0545 7.44665 13.0324 7.1766 13.0191 7.05707C13.0058 6.94197 12.9704 6.849 12.9438 6.85343ZM18.5354 5.50761V5.83521C18.5354 6.15395 18.6682 9.43439 18.6815 9.44325C18.6859 9.44767 18.7833 9.46096 18.9029 9.47424L19.111 9.50523L19.1065 8.85002C19.1021 7.76097 19.0401 5.61386 19.0136 5.58729C19.0003 5.57401 18.8896 5.55188 18.7612 5.53417L18.5354 5.50761ZM14.8165 4.3548C14.8156 4.1928 14.8052 4.19313 14.6749 4.1972C14.5952 4.1972 14.4712 4.21934 14.4004 4.2459C14.2809 4.29017 14.2764 4.29902 14.303 4.52038C14.3155 4.63745 14.3557 5.16125 14.39 5.71137L14.396 5.80865C14.4314 6.39302 14.4845 7.15889 14.5066 7.51306C14.5332 7.86722 14.5553 8.25237 14.5642 8.37633C14.573 8.59768 14.573 8.59768 14.7191 8.59326C15.0158 8.57555 15.0069 8.60211 14.9759 7.8318C14.9582 7.45108 14.9184 6.5701 14.883 5.87505C14.8475 5.18001 14.8165 4.52038 14.8165 4.40085L14.8165 4.3548ZM20.8066 1.76676C20.6206 1.73577 20.5719 1.74019 20.5542 1.78889C20.5277 1.8553 20.5587 4.51595 20.5941 5.29954C20.6029 5.5563 20.6251 6.34432 20.6428 7.05707L20.6738 8.34534L20.8774 8.36305C20.9881 8.37633 21.0988 8.37633 21.1165 8.36305C21.1386 8.3542 21.1431 8.21253 21.1298 8.04873C21.1165 7.88936 21.0944 6.42401 21.0766 4.79043C21.0634 3.16127 21.0501 1.82431 21.0457 1.81988C21.0412 1.81545 20.935 1.79332 20.8066 1.76676ZM27.0977 5.00735C26.9162 4.93209 26.9162 4.93209 26.8984 4.9985C26.8896 5.02949 26.8852 5.71568 26.894 6.52583L26.9073 7.9956L27.0932 8.08415L27.2792 8.17711L27.2925 7.21202C27.3013 6.6852 27.2925 5.98573 27.2792 5.66255L27.2482 5.06933L27.0977 5.00735ZM22.9936 4.19278C22.6908 4.09041 22.6962 4.0086 22.697 5.28933L22.697 5.48859C22.6976 6.18161 22.7106 6.78378 22.7236 6.83572C22.7457 6.91983 23.0113 7.07035 23.1397 7.07035C23.1884 7.07035 23.2017 4.95423 23.1574 4.51152C23.1309 4.25918 23.1176 4.23705 22.9936 4.19278Z" fill="#222222"/>
</g>
<defs>
<clipPath id="clip0_202_15888">
<rect width="37" height="37" fill="white"/>
</clipPath>
</defs>
</svg>
