<svg width="41" height="26" viewBox="0 0 41 26" fill="none" xmlns="http://www.w3.org/2000/svg">
<g clip-path="url(#clip0_202_15919)">
<path d="M4.10042 25.9632C5.5598 19.7224 7.37871 13.5991 10.984 8.21101C10.4345 8.82992 9.84371 9.41742 9.3423 10.0732C6.77902 13.4241 5.08449 17.2266 3.66386 21.1643C3.20152 22.4459 2.73386 23.7301 2.37308 25.0418C2.16902 25.7837 2.0962 25.9632 2.0962 25.9632H0.00463867C0.0272949 25.7763 0.0952637 25.6171 0.133389 25.5006C1.78433 20.4531 3.77636 15.5634 6.78668 11.1457C7.97074 9.40804 9.35855 7.85913 11.0696 6.62554C11.4887 6.32351 11.5834 5.99694 11.6003 5.48851C11.3481 3.79929 12.0278 0.333032 12.1653 0.29022C13.3948 1.39131 14.3523 2.59882 15.2228 3.90163C15.9745 2.66897 17.2193 0.200845 17.645 0.0455322C18.0187 1.09303 18.2329 2.36382 18.3889 3.44882C18.5176 4.34429 18.4765 5.26413 18.6026 6.16022C18.6251 6.32007 18.6064 6.61554 18.7001 6.78132C18.8006 6.95913 19.0175 7.00398 19.1598 7.07101C20.5079 7.70741 21.6631 8.32429 23.2756 8.82929C24.0128 9.06007 24.7933 9.25226 25.4748 9.60538C25.779 9.76304 26.0601 10.2485 26.0898 10.5718C26.1139 10.8329 26.1809 11.2754 26.1809 11.2754C26.1809 11.2754 26.5908 11.4534 26.8226 11.5762C29.1375 12.801 31.4069 14.1143 33.7423 15.2973C34.83 15.8482 36.0181 16.2165 37.185 16.5913C38.5615 17.0335 39.6048 17.8491 39.909 19.266C40.2259 20.7416 39.744 22.0941 38.6262 23.1276C37.5594 24.1138 36.3228 23.9584 35.0933 23.4446C33.0526 22.5923 30.9336 22.5404 28.7886 22.8356C26.8047 23.1085 24.829 23.4396 22.8459 23.7185C21.044 23.972 19.2726 23.9163 17.4753 22.921C17.3362 23.9482 17.2965 24.9716 17.1623 25.9632H4.10042ZM31.1647 22.1354C30.8112 22.0899 26.2942 22.0145 24.0653 22.1907C21.3031 22.4091 18.9242 22.4787 17.0118 20.0801C16.9975 20.062 16.6822 19.6868 16.6048 19.682C16.57 19.6798 16.7457 20.3495 16.9167 20.6301C18.2239 22.7762 20.3515 23.1663 22.5698 23.0257C25.2781 22.8543 31.1486 22.1698 31.1647 22.1354ZM34.4559 17.2605C33.3281 16.8107 32.1367 16.4738 31.0478 15.944C29.5651 15.2224 28.1967 14.3877 26.7283 13.6354C26.3447 13.4388 25.9036 13.2957 25.9036 13.2957C25.9036 13.2957 25.5173 13.6129 25.2918 14.2193C28.5683 15.073 31.0737 17.1854 34.4559 17.2605ZM19.8881 11.3865C20.3984 12.5918 21.592 13.3443 22.5625 13.1282C23.2229 12.981 23.5068 12.5287 23.5384 11.8118C22.4392 11.6654 21.5997 11.6732 20.5532 11.5377C20.4272 11.5215 20.0909 11.3865 19.8881 11.3865ZM12.6273 3.22788C12.1403 5.1471 13.2454 7.21444 14.9684 6.53694C13.5586 5.82632 13.0742 4.82929 12.6273 3.22788ZM38.3614 20.1876C37.5173 20.3055 37.214 19.9346 37.0598 18.9102C36.7748 19.5759 36.8415 20.5384 37.3839 20.7705C37.9023 20.9926 38.3545 20.5013 38.3614 20.1876Z" fill="#E84B52"/>
</g>
<defs>
<clipPath id="clip0_202_15919">
<rect width="41" height="26" fill="white"/>
</clipPath>
</defs>
</svg>
