<svg width="37" height="37" viewBox="0 0 37 37" fill="none" xmlns="http://www.w3.org/2000/svg">
<g clip-path="url(#clip0_202_12019)">
<mask id="mask0_202_12019" style="mask-type:alpha" maskUnits="userSpaceOnUse" x="0" y="0" width="37" height="37">
<path d="M18.0022 36.0044C27.9433 36.0044 36.0022 27.9455 36.0022 18.0044C36.0022 8.06327 27.9433 0.00439453 18.0022 0.00439453C8.06107 0.00439453 0.00219727 8.06327 0.00219727 18.0044C0.00219727 27.9455 8.06107 36.0044 18.0022 36.0044Z" fill="white"/>
</mask>
<g mask="url(#mask0_202_12019)">
<path d="M18.0022 36.0044C27.9433 36.0044 36.0022 27.9455 36.0022 18.0044C36.0022 8.06327 27.9433 0.00439453 18.0022 0.00439453C8.06107 0.00439453 0.00219727 8.06327 0.00219727 18.0044C0.00219727 27.9455 8.06107 36.0044 18.0022 36.0044Z" fill="#B3BBC6"/>
<path d="M5.44653 24.8566L20.5412 36.0846L57.6672 38.4196L29.2177 12.0874V18.0904L26.5635 16.1895L21.6246 12.0874L18.6843 16.8804L14.5507 13.4295L7.28226 12.9684L5.44653 24.8566Z" fill="#666C76"/>
</g>
<path d="M16.7137 18.4486C16.7137 14.6333 14.3686 12.0463 9.90188 12.0463H5.49097V24.8882H9.99493C14.3314 24.8882 16.7137 22.2639 16.7137 18.4486ZM13.5125 18.4672C13.5125 21.2217 12.098 22.4128 9.82743 22.4128H8.67352V14.5216H9.82743C12.005 14.5216 13.5125 15.7686 13.5125 18.4672ZM29.388 24.8882V12.0463H26.4288V19.2303L21.7015 12.0463H18.612V24.8882H21.5712V17.2016L26.6336 24.8882H29.388Z" fill="white"/>
</g>
<defs>
<clipPath id="clip0_202_12019">
<rect width="37" height="37" fill="white"/>
</clipPath>
</defs>
</svg>
