<svg width="30" height="37" viewBox="0 0 30 37" fill="none" xmlns="http://www.w3.org/2000/svg">
<g clip-path="url(#clip0_202_11668)">
<mask id="mask0_202_11668" style="mask-type:alpha" maskUnits="userSpaceOnUse" x="0" y="0" width="30" height="37">
<path d="M27.9736 7.11134L16.2282 0.333455C15.4662 -0.107897 14.5264 -0.107897 13.7644 0.333455L2.01698 7.11134C1.2563 7.55384 0.788086 8.3674 0.788086 9.24742V22.8132C0.788757 23.6915 1.25695 24.503 2.01698 24.9433L7.89368 28.3402V35.266C7.8947 35.5296 8.03602 35.7727 8.26458 35.9041C8.49314 36.0355 8.77437 36.0352 9.00268 35.9034L27.9856 24.9493C28.7465 24.5099 29.215 23.6978 29.2145 22.8192V9.24542C29.2099 8.36398 28.7374 7.55135 27.9736 7.11134Z" fill="white"/>
</mask>
<g mask="url(#mask0_202_11668)">
<path d="M29.2025 7.82666L14.9993 16.0293L0.788086 7.82666V24.2319L7.89368 28.3302V36.5348L29.2025 24.2319V7.82666Z" fill="#EF6C00"/>
<path d="M14.9993 16.0294L0.788086 7.82675L14.9993 -0.375854L29.2025 7.82675L14.9993 16.0294Z" fill="#FF9800"/>
<path d="M14.7475 15.7796L0.878005 7.77278L0.788086 7.82673L14.9993 16.0293L29.2025 7.82673L28.8688 7.62891L14.7475 15.7796Z" fill="#FF9800"/>
<path d="M14.9993 16.1312V16.0293L0.878005 7.87463L0.788086 7.92859L14.9993 16.1312Z" fill="#FF9800"/>
</g>
</g>
<defs>
<clipPath id="clip0_202_11668">
<rect width="30" height="37" fill="white"/>
</clipPath>
</defs>
</svg>
