<svg width="36" height="37" viewBox="0 0 36 37" fill="none" xmlns="http://www.w3.org/2000/svg">
<path d="M18.0001 29.0479V36.0016C29.7861 36.0016 38.9629 24.6154 35.1074 12.265C33.4226 6.86779 29.134 2.57918 23.7368 0.89435C11.3864 -2.96111 0 6.21582 0 18.0018H6.96955C6.97057 18.0018 6.97139 18 6.97139 18C6.97241 10.6034 14.2924 4.88494 22.0689 7.70673C24.9499 8.75224 27.2479 11.0498 28.294 13.9306C31.1162 21.7025 25.4063 29.0197 18.016 29.0302V22.099C18.016 22.099 18.0154 22.0986 18.0148 22.0986H11.0667C11.0661 22.0986 11.0655 22.0996 11.0655 22.0996V29.0479H18.0001ZM11.0642 34.3884H5.72563L5.72441 34.3871V29.0479H11.0655V34.3871C11.0655 34.3871 11.0649 34.3884 11.0642 34.3884ZM5.72808 29.0479H1.2527C1.25086 29.0479 1.24943 29.0467 1.24943 29.0467V24.5734C1.24943 24.5734 1.25086 24.5701 1.2527 24.5701H5.72482C5.72665 24.5701 5.72808 24.5715 5.72808 24.5715V29.0479Z" fill="#0080FF"/>
</svg>
