<svg width="37" height="37" viewBox="0 0 37 37" fill="none" xmlns="http://www.w3.org/2000/svg">
<g clip-path="url(#clip0_202_10633)">
<path d="M0.00756836 13.0308C0.00756836 8.47034 0.00756836 6.19013 0.895087 4.44827C1.67577 2.9161 2.92147 1.6704 4.45365 0.889716C6.1955 0.00219727 8.47571 0.00219727 13.0361 0.00219727H22.979C27.5394 0.00219727 29.8196 0.00219727 31.5615 0.889716C33.0937 1.6704 34.3394 2.9161 35.1201 4.44827C36.0076 6.19013 36.0076 8.47034 36.0076 13.0308V22.9736C36.0076 27.5341 36.0076 29.8143 35.1201 31.5561C34.3394 33.0883 33.0937 34.334 31.5615 35.1147C29.8196 36.0022 27.5394 36.0022 22.979 36.0022H13.0361C8.47571 36.0022 6.1955 36.0022 4.45365 35.1147C2.92147 34.334 1.67577 33.0883 0.895087 31.5561C0.00756836 29.8143 0.00756836 27.5341 0.00756836 22.9736V13.0308Z" fill="#013301"/>
<path d="M5.15129 26.3137V10.5604C5.1414 10.4582 5.22022 10.3658 5.32034 10.3623C5.56182 10.346 5.91602 10.3336 6.38294 10.3251C6.84971 10.317 7.3971 10.3087 8.0251 10.3004C8.65301 10.2922 9.32117 10.2881 10.0296 10.288C11.9616 10.288 13.5635 10.6265 14.8354 11.3035C16.0409 11.916 17.0382 12.8872 17.6972 14.0901C18.333 15.2708 18.651 16.629 18.6511 18.1646C18.6694 19.239 18.5018 20.3083 18.156 21.3227C17.8535 22.191 17.3948 22.9934 16.8036 23.6881C16.2441 24.3386 15.588 24.8945 14.8595 25.3353C14.1371 25.7722 13.3559 26.0976 12.5411 26.3013C11.7432 26.5049 10.9243 26.6089 10.102 26.6109H8.30282C7.66664 26.6109 7.07497 26.6068 6.5278 26.5985C5.98031 26.59 5.56977 26.5776 5.29616 26.5614C5.19956 26.5614 5.15127 26.4788 5.15129 26.3137ZM8.48395 13.3346V23.589C8.96758 23.589 9.44927 23.6392 9.93298 23.6386C10.6634 23.6483 11.3901 23.5311 12.0823 23.2918C12.7024 23.0758 13.2676 22.7203 13.7366 22.2515C14.2085 21.7684 14.5712 21.185 14.7992 20.5424C15.0589 19.8042 15.1857 19.0237 15.1735 18.2389C15.1883 17.4994 15.0654 16.7638 14.8113 16.0716C14.5847 15.4744 14.2249 14.94 13.7608 14.5111C13.2866 14.0814 12.7259 13.7642 12.1185 13.5823C11.4403 13.378 10.7364 13.2779 10.0296 13.2851C9.70732 13.2851 9.43764 13.2892 9.22055 13.2974C9.00317 13.306 8.75764 13.3183 8.48395 13.3346Z" fill="#33FF66"/>
<path d="M20.1271 26.3383V17.1242C20.1271 16.8436 20.1231 16.5298 20.115 16.1829C20.1067 15.8362 20.0947 15.5059 20.0788 15.1922C20.0626 14.8787 20.0465 14.631 20.0305 14.4491C19.986 14.3323 20.0914 14.2424 20.1995 14.2509H22.7112C23.1642 14.2357 23.2407 14.9117 23.2666 15.2665C23.7335 14.8469 24.2746 14.5232 24.8605 14.3129C25.443 14.106 26.0553 14.0013 26.6717 14.0033C27.1518 14.0055 27.6285 14.0849 28.0845 14.2386C28.611 14.4112 29.0912 14.7069 29.4872 15.1024C29.8832 15.4978 30.1843 15.9822 30.3667 16.5173C30.6082 17.1532 30.729 17.9747 30.729 18.9818V26.3383C30.729 26.4869 30.6646 26.5613 30.5358 26.5612H27.6136C27.475 26.5817 27.3522 26.4557 27.3721 26.3135V19.2791C27.3865 18.8471 27.3124 18.4167 27.1548 18.0159C26.5216 16.4957 24.4632 16.8293 23.4839 17.7681V26.3383C23.4839 26.4869 23.4195 26.5612 23.2907 26.5612H20.3444C20.2197 26.5795 20.1093 26.4662 20.1271 26.3383Z" fill="#33FF66"/>
</g>
<defs>
<clipPath id="clip0_202_10633">
<rect width="37" height="37" fill="white"/>
</clipPath>
</defs>
</svg>
