<svg width="34" height="36" viewBox="0 0 34 36" fill="none" xmlns="http://www.w3.org/2000/svg">
<path d="M15.4959 17.139C15.4959 18.249 14.6409 19.164 13.5909 19.164C12.5409 19.164 11.6859 18.264 11.6859 17.154C11.6859 16.044 12.5409 15.144 13.5909 15.144C14.6409 15.144 15.4959 16.044 15.4959 17.139ZM22.3164 17.139C22.3164 18.249 21.4614 19.164 20.4114 19.164C19.3614 19.164 18.5064 18.264 18.5064 17.154C18.5064 16.044 19.3614 15.144 20.4114 15.144C21.4614 15.144 22.3164 16.044 22.3164 17.139ZM29.2284 32.595L27.0234 30.585L24.6234 28.485L25.6284 31.8H4.56842C2.46842 31.8 0.758423 30.195 0.758423 28.08V3.72C0.758423 1.71 2.46842 0 4.56842 0H29.3334C31.4484 0 33.1434 1.71 33.2484 3.72V36L29.2284 32.595ZM20.1039 8.535L20.0739 8.55H20.0889L20.1039 8.535ZM20.1189 8.52L20.1039 8.535L20.1489 8.52H20.1189ZM19.8189 8.82C22.9239 9.72 24.4239 11.13 24.4239 11.13C22.4289 10.125 20.6139 9.63 18.8139 9.42C17.5089 9.225 16.2039 9.33 15.0939 9.42H14.7939C14.0889 9.42 12.5889 9.72 10.5789 10.53C9.88892 10.83 9.48392 11.025 9.48392 11.025C9.48392 11.025 10.9839 9.525 14.2989 8.73L14.0889 8.52C14.0889 8.52 11.5839 8.43 8.88392 10.425C8.88392 10.425 6.16892 15.15 6.16892 20.955C6.16892 20.955 7.66892 23.565 11.7789 23.67C11.7789 23.67 12.3789 22.875 12.9939 22.17C10.6839 21.465 9.78392 20.055 9.78392 20.055C9.78392 20.055 9.97892 20.16 10.2789 20.355H10.3689C10.4139 20.355 10.4439 20.385 10.4589 20.4V20.415C10.4889 20.43 10.5039 20.46 10.5489 20.46C11.0439 20.655 11.5389 20.865 11.9439 21.06C12.6489 21.36 13.5489 21.66 14.6439 21.855C16.0389 22.065 17.6439 22.155 19.4589 21.855C20.3589 21.66 21.2589 21.465 22.1589 21.06C22.7439 20.76 23.4639 20.46 24.2589 19.95C24.2589 19.95 23.3589 21.36 20.9589 22.065C21.4539 22.755 22.1439 23.565 22.1439 23.565C26.2539 23.475 27.8589 20.865 27.9489 20.97C27.9489 15.165 25.2339 10.44 25.2339 10.44C22.8039 8.64 20.5389 8.55 20.0889 8.55L19.8189 8.82Z" fill="#5865F2"/>
</svg>
