<svg width="37" height="28" viewBox="0 0 37 28" fill="none" xmlns="http://www.w3.org/2000/svg">
<path d="M30.4989 3.10178C28.1685 2.07744 25.6767 1.33295 23.0718 0.909088C22.7518 1.45251 22.378 2.1834 22.1204 2.76485C19.3512 2.3736 16.6074 2.3736 13.8891 2.76485C13.6315 2.1834 13.2492 1.45251 12.9265 0.909088C10.3186 1.33295 7.82405 2.08016 5.49371 3.10721C0.793384 9.78038 -0.480799 16.2878 0.156293 22.7028C3.2738 24.8901 6.29502 26.2187 9.26528 27.0882C9.99865 26.14 10.6527 25.132 11.2162 24.0695C10.1431 23.6864 9.11522 23.2137 8.144 22.6648C8.40167 22.4855 8.65368 22.298 8.89719 22.1051C14.8208 24.708 21.2567 24.708 27.1096 22.1051C27.3558 22.298 27.6079 22.4855 27.8627 22.6648C26.8887 23.2163 25.858 23.6891 24.7848 24.0722C25.3483 25.132 25.9995 26.1427 26.7357 27.0909C29.7088 26.2214 32.7329 24.8928 35.8504 22.7028C36.598 15.2662 34.5734 8.81852 30.4989 3.10178ZM12.0232 18.7577C10.245 18.7577 8.78676 17.198 8.78676 15.2988C8.78676 13.3995 10.2138 11.8373 12.0232 11.8373C13.8325 11.8373 15.2907 13.3968 15.2596 15.2988C15.2625 17.198 13.8325 18.7577 12.0232 18.7577ZM23.9836 18.7577C22.2053 18.7577 20.7471 17.198 20.7471 15.2988C20.7471 13.3995 22.1742 11.8373 23.9836 11.8373C25.7928 11.8373 27.2511 13.3968 27.22 15.2988C27.22 17.198 25.7928 18.7577 23.9836 18.7577Z" fill="#5865F2"/>
</svg>
