<svg width="34" height="37" viewBox="0 0 34 37" fill="none" xmlns="http://www.w3.org/2000/svg">
<g clip-path="url(#clip0_202_11340)">
<path d="M26.4051 14.0777C28.518 12.7951 31.2699 13.4683 32.5509 15.5812C33.8335 17.694 33.1603 20.4459 31.0475 21.727C30.9911 21.7611 30.9348 21.7937 30.8784 21.8249L7.56865 35.2479C5.45578 36.5305 2.70385 35.8573 1.4213 33.7444C0.138753 31.6316 0.811907 28.8796 2.92478 27.5971C2.98112 27.563 3.03746 27.5304 3.09381 27.4992L26.4051 14.0777Z" fill="#81C995"/>
<path d="M9.6562 4.50516C9.66658 2.03941 7.67529 0.0303248 5.20953 0.0199458C4.89223 0.0184631 4.57641 0.0510829 4.26504 0.116322C2.17589 0.629342 0.715418 2.51536 0.745072 4.66826V31.329L9.6473 31.4906L9.6562 4.50516Z" fill="#34A853"/>
<path d="M26.5059 21.8411C28.6603 22.9576 31.3114 22.243 32.6132 20.1938C33.8646 18.0884 33.1722 15.3661 31.0667 14.1147C31.0504 14.1058 31.0356 14.0969 31.0193 14.0865L7.55379 0.639768C5.46464 -0.622025 2.74682 0.0481635 1.48354 2.13731C1.45241 2.18921 1.42127 2.24258 1.39161 2.29596C0.152063 4.41773 0.866732 7.14445 2.9885 8.38548C3.00333 8.39438 3.01815 8.40179 3.03298 8.41069L26.5059 21.8411Z" fill="#5BB974"/>
<path d="M30.8651 21.8723L9.64893 33.7236V23.5433L26.4837 14.1562C28.7152 12.9196 31.5279 13.7262 32.7645 15.9592C32.8801 16.1668 32.978 16.3833 33.0595 16.6057C33.6912 18.6592 32.7689 20.8729 30.8651 21.8723Z" fill="#81C995"/>
<path d="M5.20502 36.0026C7.66331 36.0026 9.65614 34.0097 9.65614 31.5515C9.65614 29.0932 7.66331 27.1003 5.20502 27.1003C2.74674 27.1003 0.753906 29.0932 0.753906 31.5515C0.753906 34.0097 2.74674 36.0026 5.20502 36.0026Z" fill="#1E8E3E"/>
</g>
<defs>
<clipPath id="clip0_202_11340">
<rect width="34" height="37" fill="white"/>
</clipPath>
</defs>
</svg>
