<svg width="37" height="36" viewBox="0 0 37 36" fill="none" xmlns="http://www.w3.org/2000/svg">
<g clip-path="url(#clip0_202_13027)">
<path d="M18.6614 35.4842C14.3834 35.4842 10.4718 33.9209 7.44756 31.3348L0.00488281 32.3517L2.88022 25.255C1.87844 23.0445 1.31642 20.5905 1.31642 18.0022C1.31642 8.34768 9.08206 0.520142 18.6614 0.520142C28.24 0.520142 36.0049 8.34768 36.0049 18.0022C36.0049 27.6584 28.2403 35.4842 18.6614 35.4842ZM28.132 17.9522V17.9035C28.132 12.8588 24.5745 9.26167 18.4405 9.26167H11.8155V26.7437H18.3424C24.524 26.7439 28.132 22.9966 28.132 17.9522ZM18.5135 22.4485H16.5758V13.5581H18.5135C21.3596 13.5581 23.2487 15.1807 23.2487 17.9791V18.0278C23.2487 20.8498 21.3596 22.4485 18.5135 22.4485Z" fill="#2E9FFF"/>
</g>
<defs>
<clipPath id="clip0_202_13027">
<rect width="37" height="36" fill="white"/>
</clipPath>
</defs>
</svg>
