<svg width="37" height="37" viewBox="0 0 37 37" fill="none" xmlns="http://www.w3.org/2000/svg">
<g clip-path="url(#clip0_202_9042)">
<path d="M32.0647 0.00219727H3.9397C1.76508 0.00219727 0.00219727 1.76508 0.00219727 3.9397V32.0647C0.00219727 34.2393 1.76508 36.0022 3.9397 36.0022H32.0647C34.2393 36.0022 36.0022 34.2393 36.0022 32.0647V3.9397C36.0022 1.76508 34.2393 0.00219727 32.0647 0.00219727Z" fill="#092E20"/>
<path d="M26.2115 13.2487V22.5619C26.2115 25.7708 25.9768 27.3098 25.2724 28.6404C24.6201 29.9189 23.7591 30.7274 21.9853 31.6145L18.2547 29.8405C20.0287 29.0057 20.8895 28.2755 21.4373 27.1533C22.0114 26.0055 22.1941 24.675 22.1941 21.1793V13.2487H26.2115ZM19.8203 7.04449V25.6405C17.7594 26.0318 16.2462 26.1883 14.6028 26.1883C9.69818 26.1883 7.1416 23.971 7.1416 19.7185C7.1416 15.6227 9.85487 12.9619 14.0549 12.9619C14.707 12.9619 15.2026 13.0139 15.8028 13.1705V7.04449H19.8203ZM14.4463 16.1966C12.4114 16.1966 11.2374 17.4489 11.2374 19.6401C11.2374 21.7795 12.3593 22.9533 14.4202 22.9533C14.8635 22.9533 15.2289 22.9272 15.8028 22.8491V16.4051C15.3332 16.2488 14.9419 16.1966 14.4463 16.1966ZM26.2115 7.06587V11.1878H22.1941V7.06587H26.2115Z" fill="#FFFFFD"/>
</g>
<defs>
<clipPath id="clip0_202_9042">
<rect width="37" height="37" fill="white"/>
</clipPath>
</defs>
</svg>
