<svg width="34" height="37" viewBox="0 0 34 37" fill="none" xmlns="http://www.w3.org/2000/svg">
<g clip-path="url(#clip0_202_13847)">
<path d="M31.1608 7.57445L18.9563 0.5291C17.7471 -0.16888 16.2578 -0.16888 15.0485 0.5291L2.84406 7.57445C1.63531 8.27296 0.890137 9.56299 0.890137 10.959V25.0512C0.890137 26.4472 1.63531 27.7372 2.84406 28.4352L15.0485 35.4821C16.2578 36.1801 17.7471 36.1801 18.9563 35.4821L31.1608 28.4352C32.3695 27.7372 33.1142 26.4472 33.1142 25.0512V10.959C33.1142 9.56299 32.3695 8.27296 31.1608 7.57445ZM29.9882 24.6831C29.9882 25.1021 29.7648 25.4891 29.4019 25.6989L26.5466 27.3476C26.1837 27.5568 25.7369 27.5568 25.374 27.3476L22.5181 25.6989C22.1557 25.4896 21.9323 25.1021 21.9323 24.6831V21.3857C21.9323 20.9667 22.1557 20.5802 22.5181 20.3704L25.374 18.7217C25.7369 18.5125 26.1837 18.5125 26.5466 18.7217L29.4019 20.3704C29.7648 20.5796 29.9882 20.9667 29.9882 21.3857V24.6831Z" fill="url(#paint0_linear_202_13847)"/>
</g>
<defs>
<linearGradient id="paint0_linear_202_13847" x1="25.7158" y1="4.75173" x2="5.64519" y2="29.3982" gradientUnits="userSpaceOnUse">
<stop stop-color="#7236DC"/>
<stop offset="1" stop-color="#3F37AE"/>
</linearGradient>
<clipPath id="clip0_202_13847">
<rect width="34" height="37" fill="white"/>
</clipPath>
</defs>
</svg>
