<svg width="28" height="37" viewBox="0 0 28 37" fill="none" xmlns="http://www.w3.org/2000/svg">
<g clip-path="url(#clip0_202_15436)">
<path d="M22.5742 11.7788C22.5429 11.7449 22.5144 11.7093 22.4814 11.6764L11.7189 0.961053C10.4314 -0.320738 8.34834 -0.316479 7.06633 0.971168C5.78433 2.25882 5.78891 4.34175 7.07645 5.62365L10.6332 9.16481C4.73615 10.665 0.374146 16.0094 0.374146 22.3733C0.374146 29.9006 6.47623 36.0026 14.0034 36.0026C21.5306 36.0026 27.6327 29.9006 27.6327 22.3733C27.6327 18.0941 25.6591 14.2775 22.5742 11.7788Z" fill="#FE8439"/>
<path d="M22.0567 20.689L14.2787 13.0049C13.2446 11.9834 11.5785 11.9939 10.5567 13.0275C9.53514 14.0616 9.54525 15.728 10.5794 16.7496L13.7982 19.9295H7.00084C5.54719 19.9295 4.3689 21.1077 4.3689 22.5613C4.3689 24.0149 5.54719 25.1932 7.00084 25.1932H13.868L10.5974 28.4842C9.57283 29.5151 9.57816 31.1815 10.609 32.2063C11.1224 32.7165 11.7934 32.9713 12.4643 32.9713C13.1404 32.9713 13.8168 32.7122 14.3312 32.1947L21.8625 24.6163C21.8763 24.6025 21.8879 24.5872 21.9014 24.573C22.2194 24.3053 22.477 23.9621 22.6416 23.5611C23.0472 22.5736 22.816 21.4393 22.0567 20.689Z" fill="white"/>
</g>
<defs>
<clipPath id="clip0_202_15436">
<rect width="28" height="37" fill="white"/>
</clipPath>
</defs>
</svg>
