<svg width="36" height="37" viewBox="0 0 36 37" fill="none" xmlns="http://www.w3.org/2000/svg">
<g clip-path="url(#clip0_202_9064)">
<path fill-rule="evenodd" clip-rule="evenodd" d="M32.3708 19.8559H27.1786C26.4623 19.8531 24.9169 19.68 23.77 19.3365C23.3862 19.222 22.3639 18.916 21.3736 18.294C20.453 17.716 19.6038 16.919 18.7611 15.8482C17.5693 14.3321 16.8365 12.8747 16.4178 10.972C16.22 10.067 16.1714 9.26728 16.1155 8.10665C16.0917 7.59366 15.9195 6.47883 15.9195 6.47883C15.5393 4.5255 14.4453 2.78376 12.8507 1.59318C11.2562 0.402606 9.2754 -0.151475 7.29454 0.0389587C5.31368 0.229393 3.47474 1.15069 2.13622 2.62325C0.797697 4.09581 0.0555434 6.01406 0.0544434 8.00405C0.0544434 11.9202 2.86763 15.1749 6.58129 15.8683C6.58129 15.8683 7.91781 16.0726 8.58377 16.0818C11.1368 16.1166 13.5689 16.8531 15.8059 18.6046C17.4209 19.8696 19.6799 21.7942 19.9428 26.9901V32.2821C19.9428 33.2294 20.319 34.138 20.9888 34.808C21.6586 35.4779 22.5671 35.8544 23.5145 35.8547H32.3699C33.3174 35.8547 34.2261 35.4783 34.8961 34.8083C35.5661 34.1383 35.9425 33.2296 35.9425 32.2821V23.4276C35.9426 22.9585 35.8503 22.494 35.6709 22.0606C35.4914 21.6272 35.2283 21.2334 34.8966 20.9017C34.5649 20.5701 34.1712 20.307 33.7378 20.1275C33.3044 19.9481 32.8399 19.8558 32.3708 19.8559Z" fill="#2360A5"/>
<path d="M13.7887 33.657C12.2871 35.1586 10.2504 36.0022 8.12681 36.0022C6.00317 36.0022 3.96652 35.1586 2.46488 33.657C0.96324 32.1554 0.119629 30.1187 0.119629 27.9951C0.119629 25.8714 0.96324 23.8348 2.46488 22.3331C3.96652 20.8315 6.00317 19.9879 8.12681 19.9879C10.2504 19.9879 12.2871 20.8315 13.7887 22.3331C15.2904 23.8348 16.134 25.8714 16.134 27.9951C16.134 30.1187 15.2904 32.1554 13.7887 33.657Z" fill="black"/>
<path d="M33.6041 2.4469C35.1059 3.94836 35.9497 5.98492 35.95 8.10856C35.9502 10.2322 35.1068 12.269 33.6054 13.7708C32.1039 15.2726 30.0673 16.1164 27.9437 16.1167C25.8201 16.1169 23.7833 15.2735 22.2815 13.7721C20.7797 12.2706 19.9358 10.234 19.9356 8.1104C19.9354 5.98676 20.7787 3.95001 22.2802 2.4482C23.7817 0.946385 25.8182 0.102538 27.9419 0.102295C30.0655 0.102052 32.1023 0.945429 33.6041 2.4469Z" fill="black"/>
</g>
<defs>
<clipPath id="clip0_202_9064">
<rect width="36" height="37" fill="white"/>
</clipPath>
</defs>
</svg>
