<svg width="36" height="32" viewBox="0 0 36 32" fill="none" xmlns="http://www.w3.org/2000/svg">
<g clip-path="url(#clip0_202_14334)">
<path d="M33.2318 7.11798H17.7241V13.3949H33.2318V7.11798Z" fill="white"/>
<path d="M3.69328 27.6103C2.3275 27.6103 1.13765 26.8668 0.498884 25.7641C0.184115 26.3076 0.000976562 26.937 0.000976562 27.6103C0.000976562 29.6495 1.65402 31.3026 3.69328 31.3026H7.38559V27.6103H3.69328Z" fill="#3ECC5F"/>
<path d="M20.3051 8.11047L33.2319 7.3026V5.45644C33.2319 3.41718 31.5786 1.76413 29.5396 1.76413H12.9242L12.4626 0.96475C12.2573 0.609366 11.7447 0.609366 11.5396 0.96475L11.078 1.76413L10.6165 0.96475C10.4112 0.609366 9.89852 0.609366 9.69341 0.96475L9.23187 1.76413L8.77033 0.96475C8.56504 0.609366 8.05236 0.609366 7.84726 0.96475L7.38572 1.76413C7.38166 1.76413 7.37778 1.76469 7.37372 1.76469L6.60904 1.0002C6.31901 0.710166 5.82387 0.842719 5.71753 1.23909L5.46498 2.18137L4.50627 1.92438C4.1099 1.81823 3.74732 2.18081 3.85366 2.57718L4.11046 3.53589L3.16836 3.78826C2.772 3.8946 2.63926 4.38992 2.92929 4.67995L3.69378 5.44463C3.69378 5.4485 3.69341 5.45238 3.69341 5.45644L2.89384 5.91798C2.53864 6.12309 2.53864 6.63595 2.89384 6.84106L3.69341 7.3026L2.89384 7.76414C2.53864 7.96924 2.53864 8.4821 2.89384 8.68721L3.69341 9.14875L2.89384 9.61029C2.53864 9.8154 2.53864 10.3283 2.89384 10.5334L3.69341 10.9949L2.89384 11.4564C2.53864 11.6616 2.53864 12.1744 2.89384 12.3795L3.69341 12.8411L2.89384 13.3026C2.53864 13.5077 2.53864 14.0206 2.89384 14.2257L3.69341 14.6872L2.89384 15.1488C2.53864 15.3539 2.53864 15.8667 2.89384 16.0718L3.69341 16.5334L2.89384 16.9949C2.53864 17.2 2.53864 17.7129 2.89384 17.918L3.69341 18.3795L2.89384 18.8411C2.53864 19.0462 2.53864 19.559 2.89384 19.7641L3.69341 20.2257L2.89384 20.6872C2.53864 20.8923 2.53864 21.4052 2.89384 21.6103L3.69341 22.0718L2.89384 22.5334C2.53864 22.7385 2.53864 23.2513 2.89384 23.4564L3.69341 23.918L2.89384 24.3795C2.53864 24.5846 2.53864 25.0975 2.89384 25.3026L3.69341 25.7641L2.89384 26.2257C2.53864 26.4308 2.53864 26.9436 2.89384 27.1488L3.69341 27.6103C3.69341 29.6495 5.34646 31.3026 7.38572 31.3026H29.5396C31.5786 31.3026 33.2319 29.6495 33.2319 27.6103V12.8411L20.3051 12.0332C19.2694 11.9684 18.4626 11.1096 18.4626 10.0718C18.4626 9.0341 19.2694 8.17527 20.3051 8.11047Z" fill="#3ECC5F"/>
<path d="M25.8472 31.3026H31.3856V23.918H25.8472V31.3026Z" fill="#3ECC5F"/>
<path d="M35.078 26.6872C35.0375 26.6872 34.999 26.694 34.96 26.699C34.953 26.6713 34.9463 26.6434 34.9386 26.6157C35.272 26.4765 35.5063 26.1479 35.5063 25.7641C35.5063 25.2542 35.0931 24.841 34.5832 24.841C34.3731 24.841 34.1817 24.9141 34.0264 25.0323C34.0059 25.0114 33.9854 24.9907 33.9646 24.9702C34.0803 24.8159 34.1512 24.6265 34.1512 24.4188C34.1512 23.9089 33.738 23.4957 33.2281 23.4957C32.8469 23.4957 32.5198 23.727 32.3791 24.0571C32.3518 24.0494 32.3243 24.0429 32.2969 24.0359C32.3019 23.9969 32.3087 23.9584 32.3087 23.9179C32.3087 23.408 31.8956 22.9948 31.3857 22.9948C30.8758 22.9948 30.4626 23.408 30.4626 23.9179C30.4626 23.9584 30.4694 23.9969 30.4744 24.0359C30.4471 24.0429 30.4196 24.0494 30.3923 24.0571C30.2516 23.727 29.9244 23.4957 29.5432 23.4957C29.0333 23.4957 28.6201 23.9089 28.6201 24.4188C28.6201 24.6265 28.691 24.8159 28.8068 24.9702C28.1206 25.6408 27.6934 26.5751 27.6934 27.6102C27.6934 29.6495 29.3464 31.3025 31.3857 31.3025C33.1098 31.3025 34.5537 30.1191 34.96 28.5215C34.999 28.5265 35.0375 28.5333 35.078 28.5333C35.5879 28.5333 36.0011 28.1201 36.0011 27.6102C36.0011 27.1003 35.5879 26.6872 35.078 26.6872Z" fill="#44D860"/>
<path d="M27.6934 20.2257H33.2318V16.5334H27.6934V20.2257Z" fill="#3ECC5F"/>
<path d="M35.078 18.8411C35.333 18.8411 35.5396 18.6345 35.5396 18.3796C35.5396 18.1246 35.333 17.9181 35.078 17.9181C35.0579 17.9181 35.0385 17.9216 35.0192 17.924C35.0155 17.9101 35.0123 17.8963 35.0084 17.8824C35.175 17.8128 35.2922 17.6483 35.2922 17.4565C35.2922 17.2016 35.0856 16.995 34.8307 16.995C34.7256 16.995 34.6298 17.0313 34.5523 17.0906C34.5421 17.0801 34.5318 17.0697 34.5212 17.0596C34.5792 16.9826 34.6147 16.8877 34.6147 16.7838C34.6147 16.529 34.4081 16.3222 34.1531 16.3222C33.9624 16.3222 33.7988 16.438 33.7285 16.603C33.5703 16.5589 33.4043 16.5334 33.2319 16.5334C32.2124 16.5334 31.3857 17.3601 31.3857 18.3796C31.3857 19.399 32.2124 20.2257 33.2319 20.2257C33.4043 20.2257 33.5703 20.2003 33.7285 20.1561C33.7988 20.3212 33.9624 20.4369 34.1531 20.4369C34.4081 20.4369 34.6147 20.2302 34.6147 19.9754C34.6147 19.8715 34.5792 19.7766 34.5212 19.6996C34.5318 19.6894 34.5421 19.6791 34.5523 19.6686C34.6298 19.7278 34.7256 19.7642 34.8307 19.7642C35.0856 19.7642 35.2922 19.5576 35.2922 19.3027C35.2922 19.1109 35.175 18.9464 35.0084 18.8768C35.0123 18.8631 35.0155 18.8491 35.0192 18.8352C35.0385 18.8376 35.0579 18.8411 35.078 18.8411Z" fill="#44D860"/>
<path d="M11.0782 7.76407C10.8232 7.76407 10.6166 7.55749 10.6166 7.30254C10.6166 6.53897 9.99558 5.91792 9.23201 5.91792C8.46844 5.91792 7.84739 6.53897 7.84739 7.30254C7.84739 7.55749 7.64081 7.76407 7.38585 7.76407C7.1309 7.76407 6.92432 7.55749 6.92432 7.30254C6.92432 6.02998 7.95946 4.99484 9.23201 4.99484C10.5046 4.99484 11.5397 6.02998 11.5397 7.30254C11.5397 7.55749 11.3331 7.76407 11.0782 7.76407Z" fill="black"/>
<path d="M18.4624 31.3026H29.5393C31.5786 31.3026 33.2316 29.6496 33.2316 27.6103V14.6872H22.1547C20.1155 14.6872 18.4624 16.3403 18.4624 18.3795V31.3026Z" fill="#FFFF50"/>
<path d="M30.466 20.4103H21.2281C21.126 20.4103 21.0435 20.3277 21.0435 20.2256C21.0435 20.1236 21.126 20.041 21.2281 20.041H30.466C30.5681 20.041 30.6507 20.1236 30.6507 20.2256C30.6507 20.3277 30.5681 20.4103 30.466 20.4103Z" fill="black"/>
<path d="M30.466 24.1026H21.2281C21.126 24.1026 21.0435 24.02 21.0435 23.918C21.0435 23.8159 21.126 23.7333 21.2281 23.7333H30.466C30.5681 23.7333 30.6507 23.8159 30.6507 23.918C30.6507 24.02 30.5681 24.1026 30.466 24.1026Z" fill="black"/>
<path d="M30.466 27.7949H21.2281C21.126 27.7949 21.0435 27.7124 21.0435 27.6103C21.0435 27.5082 21.126 27.4256 21.2281 27.4256H30.466C30.5681 27.4256 30.6507 27.5082 30.6507 27.6103C30.6507 27.7124 30.5681 27.7949 30.466 27.7949Z" fill="black"/>
<path d="M30.466 18.5984H21.2281C21.126 18.5984 21.0435 18.5156 21.0435 18.4137C21.0435 18.3116 21.126 18.2291 21.2281 18.2291H30.466C30.5681 18.2291 30.6507 18.3116 30.6507 18.4137C30.6507 18.5156 30.5681 18.5984 30.466 18.5984Z" fill="black"/>
<path d="M30.466 22.2564H21.2281C21.126 22.2564 21.0435 22.1739 21.0435 22.0718C21.0435 21.9697 21.126 21.8872 21.2281 21.8872H30.466C30.5681 21.8872 30.6507 21.9697 30.6507 22.0718C30.6507 22.1739 30.5681 22.2564 30.466 22.2564Z" fill="black"/>
<path d="M30.466 25.9487H21.2281C21.126 25.9487 21.0435 25.8662 21.0435 25.7641C21.0435 25.662 21.126 25.5795 21.2281 25.5795H30.466C30.5681 25.5795 30.6507 25.662 30.6507 25.7641C30.6507 25.8662 30.5681 25.9487 30.466 25.9487Z" fill="black"/>
<path d="M33.2317 8.89227C33.2295 8.89227 33.2276 8.89116 33.2254 8.89135C32.6549 8.91073 32.385 9.48138 32.1469 9.98482C31.8984 10.5108 31.7062 10.8531 31.3912 10.8427C31.0425 10.8302 30.8431 10.4362 30.6319 10.0192C30.3893 9.54046 30.1124 8.99732 29.531 9.01762C28.9687 9.03682 28.6979 9.53344 28.459 9.97153C28.2048 10.4382 28.0318 10.722 27.6982 10.7089C27.3424 10.696 27.1534 10.3757 26.9346 10.0049C26.6907 9.59215 26.4088 9.12802 25.8387 9.1439C25.286 9.16292 25.0144 9.58421 24.7748 9.95621C24.5213 10.3494 24.3437 10.5891 24.0059 10.5749C23.6416 10.5617 23.4535 10.2961 23.2358 9.98833C22.9914 9.64255 22.716 9.25116 22.1475 9.27018C21.607 9.28864 21.3354 9.63369 21.096 9.93812C20.8685 10.2269 20.6909 10.4554 20.3152 10.441C20.2133 10.4369 20.1279 10.5169 20.1242 10.619C20.1203 10.7207 20.2 10.8064 20.3019 10.8102C20.8589 10.8289 21.141 10.4777 21.386 10.1665C21.6033 9.8903 21.7909 9.65196 22.1601 9.63941C22.5157 9.62427 22.6824 9.84526 22.9346 10.2016C23.174 10.5401 23.4458 10.9241 23.9926 10.9439C24.5655 10.9631 24.8411 10.535 25.0851 10.1561C25.3034 9.81756 25.4917 9.52532 25.8513 9.51295C26.1823 9.50058 26.3625 9.76218 26.6165 10.1925C26.856 10.5981 27.1272 11.0576 27.6849 11.0779C28.2618 11.0979 28.5404 10.5941 28.7832 10.1484C28.9935 9.76292 29.1919 9.39867 29.5436 9.38667C29.8746 9.37892 30.0472 9.68113 30.3026 10.1861C30.5411 10.6574 30.8115 11.1913 31.3779 11.2118C31.3885 11.2121 31.3988 11.2123 31.4091 11.2123C31.9748 11.2123 32.2432 10.6446 32.4808 10.1427C32.6911 9.69775 32.8901 9.27849 33.2317 9.2615V8.89227Z" fill="black"/>
<path d="M14.77 31.3026H22.1546V23.9179H14.77V31.3026Z" fill="#3ECC5F"/>
<path d="M25.847 26.6872C25.8066 26.6872 25.768 26.694 25.729 26.699C25.722 26.6713 25.7154 26.6434 25.7076 26.6157C26.041 26.4765 26.2753 26.1479 26.2753 25.7641C26.2753 25.2542 25.8622 24.841 25.3522 24.841C25.1422 24.841 24.9507 24.9141 24.7954 25.0323C24.775 25.0114 24.7545 24.9907 24.7336 24.9702C24.8494 24.8159 24.9202 24.6265 24.9202 24.4188C24.9202 23.9089 24.5071 23.4957 23.9972 23.4957C23.6159 23.4957 23.2888 23.727 23.1481 24.0571C23.1208 24.0494 23.0933 24.0429 23.066 24.0359C23.071 23.9969 23.0778 23.9584 23.0778 23.9179C23.0778 23.408 22.6646 22.9948 22.1547 22.9948C21.6448 22.9948 21.2316 23.408 21.2316 23.9179C21.2316 23.9584 21.2385 23.9969 21.2434 24.0359C21.2161 24.0429 21.1886 24.0494 21.1613 24.0571C21.0206 23.727 20.6935 23.4957 20.3122 23.4957C19.8023 23.4957 19.3892 23.9089 19.3892 24.4188C19.3892 24.6265 19.4601 24.8159 19.5758 24.9702C18.8896 25.6408 18.4624 26.5751 18.4624 27.6102C18.4624 29.6495 20.1155 31.3025 22.1547 31.3025C23.8788 31.3025 25.3227 30.1191 25.729 28.5215C25.768 28.5265 25.8066 28.5333 25.847 28.5333C26.3569 28.5333 26.7701 28.1201 26.7701 27.6102C26.7701 27.1003 26.3569 26.6872 25.847 26.6872Z" fill="#44D860"/>
<path d="M14.77 20.2257H22.1546V16.5334H14.77V20.2257Z" fill="#3ECC5F"/>
<path d="M24.0009 18.8411C24.2559 18.8411 24.4624 18.6345 24.4624 18.3795C24.4624 18.1246 24.2559 17.918 24.0009 17.918C23.9808 17.918 23.9614 17.9215 23.942 17.9239C23.9383 17.9101 23.9352 17.8962 23.9313 17.8824C24.0978 17.8128 24.2151 17.6483 24.2151 17.4565C24.2151 17.2015 24.0085 16.9949 23.7535 16.9949C23.6485 16.9949 23.5527 17.0313 23.4751 17.0905C23.465 17.08 23.4546 17.0697 23.4441 17.0595C23.5021 16.9825 23.5375 16.8877 23.5375 16.7837C23.5375 16.5289 23.3309 16.3222 23.076 16.3222C22.8853 16.3222 22.7217 16.4379 22.6514 16.603C22.4931 16.5589 22.3272 16.5334 22.1547 16.5334C21.1353 16.5334 20.3086 17.3601 20.3086 18.3795C20.3086 19.399 21.1353 20.2257 22.1547 20.2257C22.3272 20.2257 22.4931 20.2002 22.6514 20.1561C22.7217 20.3211 22.8853 20.4369 23.076 20.4369C23.3309 20.4369 23.5375 20.2301 23.5375 19.9753C23.5375 19.8714 23.5021 19.7765 23.4441 19.6995C23.4546 19.6894 23.465 19.679 23.4751 19.6685C23.5527 19.7278 23.6485 19.7641 23.7535 19.7641C24.0085 19.7641 24.2151 19.5576 24.2151 19.3026C24.2151 19.1108 24.0978 18.9463 23.9313 18.8767C23.9352 18.863 23.9383 18.849 23.942 18.8352C23.9614 18.8376 23.9808 18.8411 24.0009 18.8411Z" fill="#44D860"/>
<path d="M25.8473 5.22557C25.8177 5.22557 25.7864 5.22187 25.7568 5.21634C25.7273 5.2108 25.6976 5.20157 25.67 5.19049C25.6424 5.17941 25.6165 5.16464 25.5905 5.14803C25.5665 5.13141 25.5427 5.1111 25.5203 5.0908C25.5002 5.06864 25.4799 5.04649 25.4633 5.02064C25.4467 4.9948 25.4319 4.96895 25.4206 4.94126C25.4097 4.91357 25.4005 4.88403 25.395 4.85449C25.3894 4.82495 25.3857 4.79357 25.3857 4.76403C25.3857 4.73449 25.3894 4.7031 25.395 4.67357C25.4005 4.64403 25.4097 4.61634 25.4206 4.5868C25.4319 4.5591 25.4467 4.53326 25.4633 4.50741C25.4799 4.48341 25.5002 4.45941 25.5203 4.43726C25.5427 4.41695 25.5665 4.39664 25.5905 4.38003C25.6165 4.36341 25.6424 4.34864 25.67 4.33757C25.6976 4.32649 25.7273 4.31726 25.7568 4.31172C25.8159 4.2988 25.8768 4.2988 25.9377 4.31172C25.9671 4.31726 25.9968 4.32649 26.0245 4.33757C26.052 4.34864 26.078 4.36341 26.1039 4.38003C26.1279 4.39664 26.1517 4.41695 26.174 4.43726C26.1944 4.45941 26.2147 4.48341 26.2313 4.50741C26.2479 4.53326 26.2627 4.5591 26.2737 4.5868C26.2848 4.61634 26.294 4.64403 26.2996 4.67357C26.3049 4.7031 26.3088 4.73449 26.3088 4.76403C26.3088 4.88587 26.2588 5.00587 26.174 5.0908C26.1517 5.1111 26.1279 5.13141 26.1039 5.14803C26.078 5.16464 26.052 5.17941 26.0245 5.19049C25.9968 5.20157 25.9671 5.2108 25.9377 5.21634C25.9082 5.22187 25.8768 5.22557 25.8473 5.22557Z" fill="black"/>
<path d="M29.5396 4.9948C29.4177 4.9948 29.2996 4.94495 29.2126 4.86003C29.1925 4.83787 29.1722 4.81387 29.1556 4.78987C29.139 4.76403 29.1242 4.73818 29.1129 4.71049C29.102 4.6828 29.0928 4.65326 29.0873 4.62372C29.0817 4.59418 29.078 4.5628 29.078 4.53326C29.078 4.41141 29.1279 4.29326 29.2126 4.20649C29.235 4.18618 29.2588 4.16587 29.2828 4.14926C29.3088 4.13264 29.3347 4.11787 29.3624 4.1068C29.3899 4.09572 29.4196 4.08649 29.4491 4.08095C29.5082 4.06803 29.571 4.06803 29.6301 4.08095C29.6594 4.08649 29.6891 4.09572 29.7168 4.1068C29.7443 4.11787 29.7704 4.13264 29.7962 4.14926C29.8202 4.16587 29.844 4.18618 29.8664 4.20649C29.9511 4.29326 30.0011 4.41141 30.0011 4.53326C30.0011 4.5628 29.9972 4.59418 29.9919 4.62372C29.9864 4.65326 29.9771 4.6828 29.966 4.71049C29.9531 4.73818 29.9402 4.76403 29.9236 4.78987C29.907 4.81387 29.8867 4.83787 29.8664 4.86003C29.844 4.88034 29.8202 4.90064 29.7962 4.91726C29.7704 4.93387 29.7443 4.94864 29.7168 4.95972C29.6891 4.9708 29.6594 4.98003 29.6301 4.98557C29.6005 4.9911 29.5691 4.9948 29.5396 4.9948Z" fill="black"/>
</g>
<defs>
<clipPath id="clip0_202_14334">
<rect width="36.001" height="32" fill="white"/>
</clipPath>
</defs>
</svg>
