<svg width="37" height="37" viewBox="0 0 37 37" fill="none" xmlns="http://www.w3.org/2000/svg">
<g clip-path="url(#clip0_202_9326)">
<path d="M15.866 11.8646H18.4379C19.3998 11.8646 24.2393 12.2517 24.247 18.229C24.2546 24.1351 19.3754 24.129 18.5904 24.128C18.581 24.128 18.5721 24.128 18.5639 24.128H15.866V19.0579H19.9122V16.935H15.866V11.8646Z" fill="#C2A633"/>
<path fill-rule="evenodd" clip-rule="evenodd" d="M0.00585938 18.0026C0.00585938 8.06134 8.06464 0.00256348 18.0059 0.00256348C27.9471 0.00256348 36.0059 8.06134 36.0059 18.0026C36.0059 27.9438 27.9471 36.0026 18.0059 36.0026C8.06464 36.0026 0.00585938 27.9438 0.00585938 18.0026ZM12.1944 27.7244H18.7133C18.7133 27.7244 27.879 28.4926 27.879 18.159C27.879 8.226 19.509 8.26123 17.8913 8.26804C17.8534 8.2682 17.8192 8.26834 17.789 8.26834H12.1942V16.9352H9.8965V19.0581H12.1944V27.7244Z" fill="#C2A633"/>
</g>
<defs>
<clipPath id="clip0_202_9326">
<rect width="37" height="37" fill="white"/>
</clipPath>
</defs>
</svg>
