<svg width="41" height="30" viewBox="0 0 41 30" fill="none" xmlns="http://www.w3.org/2000/svg">
<g clip-path="url(#clip0_202_16104)">
<path d="M4.86304 19.1058L4.95752 19.2552C5.44538 19.9474 6.01429 20.5787 6.65213 21.1357C8.13573 22.3508 9.99505 23.0133 11.9127 23.0101H12.2754C13.6072 22.9018 14.9124 22.5775 16.1401 22.0501C15.5895 22.1384 15.0335 22.1893 14.476 22.2025C12.5593 22.2009 10.7335 21.3855 9.4531 19.9592C7.88248 19.9721 6.32407 19.6824 4.86304 19.1058Z" fill="url(#paint0_linear_202_16104)"/>
<path d="M11.9095 6.38138C14.8223 6.37884 17.5238 7.90186 19.0293 10.3954C17.2841 8.81245 14.8417 8.25031 12.5801 8.9111C14.104 9.64563 16.1796 10.2064 19.0385 10.4015C19.0385 10.4015 18.8983 7.67977 15.4146 6.25642C10.538 4.27227 9.86443 4.66544 8.63005 2.599C8.44778 4.04292 8.84445 5.50028 9.73337 6.65264C10.4436 6.46661 11.1754 6.37539 11.9095 6.38138Z" fill="#F15A24"/>
<path d="M15.4144 6.25663C13.7472 5.5922 12.5738 5.17769 11.696 4.86072C11.9229 5.41906 12.231 5.94081 12.6104 6.40903C15.2697 6.62854 17.6619 8.11148 19.0414 10.3956C17.9981 9.44703 16.6839 8.84909 15.2834 8.68577C16.4417 9.37687 17.6671 9.94873 18.9408 10.3926H19.0475C19.0475 10.3926 18.9012 7.67998 15.4144 6.25663Z" fill="#ED1C24"/>
<path d="M19.0322 10.4013H19.0505C19.1054 10.0965 19.4315 7.7527 16.7798 5.6954C12.8237 2.62621 12.0526 2.33971 11.8637 0.71521C11.2217 2.01041 11.1608 3.51748 11.696 4.86029C12.5708 5.16507 13.7472 5.57653 15.4114 6.2562C18.9012 7.67955 19.0383 10.4013 19.0383 10.4013H19.0322Z" fill="#C1272D"/>
<path d="M31.0379 7.72492C32.5226 7.7231 33.9578 8.25781 35.0794 9.23056C36.376 9.28674 37.61 9.80328 38.56 10.6874C38.56 10.6874 35.2348 5.85659 29.3738 7.86512C28.8486 8.05443 28.3458 8.30074 27.8743 8.59965C28.8302 8.02715 29.9237 7.72483 31.0379 7.72492Z" fill="url(#paint1_linear_202_16104)"/>
<path d="M31.0378 7.72501C29.9237 7.72385 28.8303 8.02512 27.8741 8.59669L28.0448 8.49307C23.3084 11.2819 17.5023 19.8524 9.45288 19.9591C10.736 21.3797 12.5614 22.1894 14.4757 22.1871C15.0333 22.1739 15.5892 22.123 16.1399 22.0347C21.3761 19.8768 26.405 14.7198 28.6879 12.2175C30.8031 9.89813 33.1225 9.10873 35.0884 9.2276C33.964 8.25389 32.5251 7.72014 31.0378 7.72501Z" fill="url(#paint2_linear_202_16104)"/>
<path d="M18.81 24.3362C18.7041 24.6821 18.6476 25.0412 18.6423 25.4029C18.6415 25.8216 18.7052 26.238 18.8313 26.6373C18.6941 25.6265 19.0716 24.6141 19.8371 23.9399L19.8615 23.8485C20.1285 22.9703 20.7102 22.2214 21.4951 21.7455C21.2472 21.8252 21.004 21.9188 20.7667 22.0259C19.824 22.4935 19.1161 23.3294 18.81 24.3362Z" fill="url(#paint3_linear_202_16104)"/>
<path d="M40.0046 15.2077C40.0065 13.582 39.498 11.9967 38.5508 10.6755C37.6013 9.79803 36.3711 9.28608 35.0793 9.23083C36.4375 10.4055 37.2165 12.1136 37.2128 13.9093C37.2128 15.9849 36.46 18.3591 34.0187 19.6362C30.4649 21.4954 25.0123 20.6115 21.4707 21.7697C20.6875 22.2455 20.107 22.993 19.8401 23.8697L19.8157 23.9611C20.8519 23.0467 22.8971 22.3976 26.8867 22.9126C29.7364 23.2784 31.9979 23.379 33.9425 22.8212C35.8223 22.411 37.4742 21.2978 38.56 19.7093C39.4979 18.3955 40.0028 16.8219 40.0046 15.2077Z" fill="url(#paint4_linear_202_16104)"/>
<path opacity="0.49" d="M40.0046 15.2077C40.0065 13.582 39.498 11.9967 38.5508 10.6755C37.6013 9.79803 36.3711 9.28608 35.0793 9.23083C36.4375 10.4055 37.2165 12.1136 37.2128 13.9093C37.2128 15.9849 36.46 18.3591 34.0187 19.6362C30.4649 21.4954 25.0123 20.6115 21.4707 21.7697C20.6875 22.2455 20.107 22.993 19.8401 23.8697L19.8157 23.9611C20.8519 23.0467 22.8971 22.3976 26.8867 22.9126C29.7364 23.2784 31.9979 23.379 33.9425 22.8212C35.8223 22.411 37.4742 21.2978 38.56 19.7093C39.4979 18.3955 40.0028 16.8219 40.0046 15.2077Z" fill="url(#paint5_linear_202_16104)"/>
<path d="M22.3487 28.5272C20.4029 27.931 19.2901 25.8894 19.8434 23.931C19.0778 24.6052 18.7003 25.6176 18.8376 26.6284C19.2296 27.8553 20.2119 28.8032 21.4521 29.1511C22.6922 29.499 24.0242 29.2005 24.9973 28.3565C24.1652 28.7364 23.2226 28.7972 22.3487 28.5272Z" fill="url(#paint6_linear_202_16104)"/>
<path d="M23.6467 28.256C24.0338 27.1253 25.2895 25.3819 26.6336 26.1805C26.6336 26.1805 27.7278 26.79 27.9564 25.0619C27.9564 25.0619 28.7763 29.1399 24.8262 29.0028C24.8262 29.0028 25.7162 28.3536 25.7071 27.6861C25.0757 28.0379 24.3692 28.2333 23.6467 28.256Z" fill="#2DB5F9"/>
<path d="M25.2258 25.7592C25.6661 25.4619 26.2345 25.4314 26.704 25.68C27.2618 25.9269 27.9628 24.9607 27.3563 24.0951C27.3563 24.0951 27.3959 24.9881 26.6766 24.979C26.0866 24.9537 25.53 25.2531 25.2258 25.7592Z" fill="#5FD2FF"/>
<path d="M29.1938 12.785C28.249 14.0743 26.8592 15.1532 26.6976 15.4184C26.5361 15.6835 26.9719 16.5369 27.612 16.5979C28.252 16.6588 27.7613 16.351 27.7065 16.0493C27.6516 15.7475 27.8985 16.2413 28.6726 16.1255C29.4468 16.0096 28.3922 15.7231 28.4654 15.333C28.5385 14.9429 29.334 14.2023 29.651 13.4586C29.968 12.7149 30.5105 13.4586 30.2331 14.0407C30.1234 14.2724 31.114 13.3915 30.6141 12.721C30.1143 12.0505 29.7455 12.0322 29.1938 12.785Z" fill="#219058"/>
<path d="M26.4966 15.6039C26.3564 15.738 25.948 16.0367 25.948 16.0367C25.948 16.0367 26.3503 16.5944 26.8624 16.5853C26.8624 16.5853 26.9721 16.5335 26.8136 16.3689C26.6371 16.1494 26.5271 15.8839 26.4966 15.6039Z" fill="#219058"/>
<path d="M12.5798 8.91046C11.4657 8.40301 10.4903 7.63461 9.73616 6.67029C7.19467 7.35822 5.1292 9.20927 4.16794 11.6605C3.20669 14.1117 3.46325 16.8733 4.8596 19.1055C6.32159 19.6825 7.88106 19.9722 9.45271 19.9589C7.88776 18.2284 7.32333 15.8143 7.95875 13.5693C8.59418 11.3243 10.34 9.56415 12.5798 8.91046Z" fill="url(#paint7_linear_202_16104)"/>
<path d="M12.5955 6.40857C12.9642 6.94194 14.0249 7.86239 15.2745 8.68531C16.674 8.84925 17.987 9.44715 19.0295 10.3952C17.6494 8.1102 15.2559 6.62713 12.5955 6.40857Z" fill="#F7B852"/>
<path d="M12.5955 6.40866C12.3699 6.39037 12.1413 6.38123 11.9127 6.38123C11.1771 6.38617 10.4453 6.48866 9.73657 6.68601C10.4907 7.65033 11.4661 8.41874 12.5802 8.92618C13.454 8.67028 14.3706 8.59458 15.2745 8.70369C14.0249 7.86248 12.9642 6.94203 12.5955 6.40866Z" fill="#FF8431"/>
<path d="M17.2099 8.30115C16.57 7.70052 15.8079 7.24516 14.9758 6.96619C15.5123 7.98722 15.9755 8.30115 17.2099 8.30115Z" fill="#FFFB69"/>
<path d="M14.8567 3.95777C15.2732 4.2116 15.6733 4.49155 16.0545 4.79593C16.149 4.86907 15.8838 4.14673 15.576 4.00958C15.3451 3.92846 15.0968 3.91057 14.8567 3.95777Z" fill="#C1272D"/>
<path d="M16.3352 5.00311C16.7471 5.26395 17.144 5.54786 17.5239 5.85346C17.6214 5.92356 17.3593 5.20122 17.0514 5.06102C16.8221 4.9784 16.5749 4.95841 16.3352 5.00311Z" fill="#C1272D"/>
<path d="M17.7249 6.02771C17.9768 6.26356 18.1934 6.53457 18.368 6.83234C18.4167 6.90244 18.3679 6.35993 18.2003 6.20449C18.0604 6.10426 17.8963 6.04324 17.7249 6.02771Z" fill="#C1272D"/>
<path d="M11.3183 19.2066C11.2817 19.0877 11.7481 18.9353 11.873 18.9292C12.1005 18.9664 12.3207 19.0394 12.5253 19.1456C12.238 19.2542 11.9358 19.3179 11.6292 19.3346C11.5178 19.3139 11.412 19.2703 11.3183 19.2066Z" fill="#44C688"/>
<path d="M12.9979 18.8076C12.9583 18.7162 13.3179 18.5547 13.4185 18.5394C13.6035 18.5503 13.7856 18.5904 13.958 18.6583C13.7373 18.769 13.5008 18.845 13.257 18.8838C13.1663 18.8767 13.078 18.8507 12.9979 18.8076Z" fill="#44C688"/>
<path d="M14.4059 18.2926C14.3663 18.2194 14.6467 18.0579 14.7259 18.0335C14.8789 18.0257 15.0322 18.0421 15.1801 18.0823C15.0119 18.1927 14.8279 18.2769 14.6345 18.3322C14.5563 18.3356 14.4784 18.3221 14.4059 18.2926Z" fill="#44C688"/>
<path d="M15.5242 17.7828C15.4815 17.7188 15.7284 17.5512 15.7985 17.5237C15.9368 17.5017 16.0778 17.5017 16.2161 17.5237C16.067 17.6367 15.9015 17.7261 15.7254 17.7889C15.6586 17.8006 15.5901 17.7985 15.5242 17.7828Z" fill="#44C688"/>
<path d="M16.5668 17.2134C16.5272 17.1615 16.7314 17.0031 16.7924 16.9756C16.9125 16.9565 17.0349 16.9565 17.1551 16.9756C17.0318 17.0816 16.8931 17.1679 16.7436 17.2316C16.684 17.2378 16.6239 17.2316 16.5668 17.2134Z" fill="#44C688"/>
<path d="M9.63304 19.341C9.61475 19.2069 10.1329 19.1276 10.267 19.1429C10.5011 19.2215 10.7212 19.3367 10.9192 19.4842C10.5975 19.5505 10.2676 19.5669 9.94087 19.533C9.82597 19.4912 9.7211 19.4258 9.63304 19.341Z" fill="#44C688"/>
<path d="M9.95288 3.62303C10.3058 3.93578 10.7215 4.16958 11.172 4.3088C11.022 3.86283 10.9639 3.39107 11.0013 2.92202C11.0013 2.8885 9.94983 2.90374 9.7822 2.0412C9.73648 1.86747 9.58714 3.20852 9.95288 3.62303Z" fill="#C1272D"/>
<path d="M6.37448 23.5493C6.40442 23.2649 6.55405 23.0066 6.78594 22.8392L6.81947 22.8209C6.73294 22.8011 6.64545 22.7858 6.55735 22.7752C5.30468 22.5892 4.98466 23.336 4.92065 24.1741C4.92065 24.2229 4.92065 24.2716 4.92065 24.3174C5.2123 23.8026 5.77551 23.5032 6.36534 23.5493H6.37448Z" fill="#F15A24"/>
<path d="M7.90145 23.2697C6.65487 22.5138 5.95387 22.4589 5.67651 24.5772C5.67651 24.5772 6.98709 23.5409 7.60885 24.2267C8.28243 24.9734 9.19678 24.2846 8.71827 23.8518C8.47595 23.6188 8.20074 23.4227 7.90145 23.2697Z" fill="#F15A24"/>
<path d="M7.38655 23.5219C6.67944 23.9912 6.67944 25.0976 6.67944 25.0976C6.67944 25.0976 7.96868 24.3996 7.86811 23.9638C7.82623 23.7244 7.62864 23.5431 7.38655 23.5219Z" fill="#F15A24"/>
<path d="M1.52856 14.8144C1.76877 14.6595 2.06357 14.614 2.33929 14.6895H2.37587C2.33721 14.6101 2.29449 14.5328 2.24786 14.4578C1.59562 13.3759 0.815367 13.5953 0.120457 14.0677C0.0777871 14.0951 0.0412129 14.1256 0.00463867 14.1561C0.588448 14.0617 1.17417 14.3136 1.50723 14.8023L1.52856 14.8144Z" fill="#F15A24"/>
<path d="M2.85134 16.1165C2.39721 14.3182 2.03146 13.6233 0.294189 14.8669C0.294189 14.8669 1.78154 14.4402 1.95222 16.5554C2.03146 17.5551 2.99459 17.7562 2.98239 17.1101C2.98752 16.7742 2.94336 16.4395 2.85134 16.1165Z" fill="#F15A24"/>
<path d="M2.21751 15.1526C1.39154 14.9576 0.580811 15.7135 0.580811 15.7135C0.580811 15.7135 1.85176 15.6708 2.00416 16.4388C2.09254 16.8686 2.21751 15.1526 2.21751 15.1526Z" fill="#F15A24"/>
<path d="M28.6877 12.2205C29.4866 11.2926 30.4469 10.5171 31.5222 9.93154C32.5712 9.39392 33.7298 9.10504 34.9084 9.08728L35.2467 9.39207H35.0699C33.8675 9.31371 32.6655 9.55117 31.5832 10.0809C30.4972 10.6141 29.5164 11.3389 28.6877 12.2205Z" fill="#29B36E"/>
<path d="M35.0364 9.09994C35.6963 9.16207 36.3422 9.32766 36.9505 9.59065C37.5545 9.84747 38.1023 10.2202 38.5628 10.6879C38.0726 10.2562 37.5019 9.92579 36.8834 9.71561C36.3471 9.54612 35.7945 9.43374 35.2346 9.38035L34.8962 9.07556L35.0364 9.09994Z" fill="#6FD191"/>
<path d="M19.9162 23.6931C20.0983 23.5648 20.2887 23.4487 20.4862 23.3457C20.6241 23.2757 20.7655 23.2126 20.9098 23.1567C21.0531 23.0958 21.2146 23.05 21.3457 23.0013C21.9317 22.8217 22.5358 22.7073 23.1469 22.6599C24.3596 22.5815 25.5772 22.6295 26.78 22.8032C27.9732 22.9789 29.1746 23.0939 30.3795 23.1476C31.5862 23.2091 32.7953 23.0899 33.9668 22.794C32.7986 23.112 31.5895 23.2538 30.3795 23.2146C29.1707 23.1835 27.9642 23.091 26.7647 22.9373C25.5714 22.7914 24.3661 22.7699 23.1683 22.8733C22.5749 22.9268 21.9893 23.0454 21.4219 23.2268C21.2817 23.2756 21.1415 23.3213 21.0074 23.3823C20.8712 23.4385 20.7379 23.5016 20.6081 23.5712C20.3507 23.7085 20.1094 23.8741 19.8888 24.065L19.7913 24.1503C19.8221 23.9952 19.8639 23.8424 19.9162 23.6931Z" fill="#C83AD7"/>
<path d="M12.8057 9.44763C11.6415 9.70365 11.8213 10.6272 11.8213 10.6272C11.8213 10.6272 12.1901 10.1822 14.2169 9.94138C13.7344 9.8138 13.2626 9.64872 12.8057 9.44763Z" fill="#C1272D"/>
<path d="M18.8314 26.643C18.7929 26.3866 18.7878 26.1264 18.8161 25.8688C18.842 25.6061 18.8982 25.3474 18.9838 25.0977C19.0696 24.8466 19.1842 24.6063 19.3251 24.3814C19.472 24.1602 19.6426 23.9558 19.8341 23.7719L19.9164 23.6957C19.9164 23.6957 19.8006 24.0645 19.7884 24.1559C19.6791 24.2669 19.5773 24.385 19.4836 24.5095C19.1766 24.9131 18.9679 25.3827 18.874 25.881C18.8271 26.1321 18.8127 26.3882 18.8314 26.643Z" fill="#FBA9FF"/>
<path d="M9.18467 19.959C8.46549 19.1038 7.96638 18.0857 7.73084 16.9934C7.60597 16.4233 7.55576 15.8393 7.5815 15.2561L7.60588 14.8203L7.66684 14.3875C7.68789 14.2439 7.71638 14.1015 7.75218 13.9608C7.78024 13.8185 7.81688 13.6781 7.8619 13.5402C8.02422 12.9841 8.25996 12.4521 8.56291 11.9584C8.71206 11.711 8.87592 11.4729 9.05361 11.2452L9.33401 10.916C9.42545 10.8063 9.53517 10.7088 9.6388 10.6112C10.0492 10.2084 10.5091 9.85916 11.0073 9.57191C11.5057 9.29019 12.0357 9.0682 12.5861 8.91052C12.043 9.0845 11.5223 9.32184 11.0347 9.61762C10.5516 9.91612 10.1081 10.2746 9.71499 10.6844C9.62051 10.788 9.51688 10.8855 9.4285 10.9892L9.14809 11.3275C8.98056 11.5558 8.82688 11.7939 8.68787 12.0407C8.40699 12.5301 8.19276 13.055 8.05087 13.6012C8.01097 13.7363 7.97941 13.8737 7.95638 14.0126C7.92875 14.1506 7.9084 14.29 7.89543 14.4302L7.84971 14.8477V15.2683C7.84239 15.8282 7.90796 16.3865 8.04477 16.9294C8.31699 18.0131 8.85907 19.0102 9.62051 19.8279L9.74242 19.959C9.74242 19.959 9.28525 19.9681 9.18467 19.959Z" fill="#FF737D"/>
<path d="M16.14 22.0506C15.5395 22.1846 14.9265 22.2541 14.3113 22.2578C13.6906 22.2403 13.0753 22.1378 12.4826 21.953C11.8893 21.7769 11.317 21.5367 10.7758 21.2368C10.227 20.9365 9.72572 20.5564 9.28841 20.1091L9.1604 19.975H9.70292C10.0643 20.3613 10.4741 20.6994 10.9221 20.9808C11.442 21.2955 11.9949 21.552 12.5709 21.7458C13.1371 21.9521 13.7288 22.0803 14.3296 22.1268C14.934 22.1641 15.5408 22.1386 16.14 22.0506Z" fill="#FFF4C0"/>
</g>
<defs>
<linearGradient id="paint0_linear_202_16104" x1="10.5016" y1="22.8273" x2="10.5016" y2="19.6727" gradientUnits="userSpaceOnUse">
<stop stop-color="#FFFA8F"/>
<stop offset="1" stop-color="#FB784B"/>
</linearGradient>
<linearGradient id="paint1_linear_202_16104" x1="34.0096" y1="8.98673" x2="34.1355" y2="7.90842" gradientUnits="userSpaceOnUse">
<stop stop-color="#5BCB99"/>
<stop offset="1" stop-color="#85A8E8"/>
</linearGradient>
<linearGradient id="paint2_linear_202_16104" x1="11.9795" y1="20.5504" x2="30.2837" y2="-9.29141" gradientUnits="userSpaceOnUse">
<stop stop-color="#34E28B"/>
<stop offset="1"/>
</linearGradient>
<linearGradient id="paint3_linear_202_16104" x1="18.6423" y1="24.196" x2="21.4951" y2="24.196" gradientUnits="userSpaceOnUse">
<stop stop-color="#C297FF"/>
<stop offset="1" stop-color="#AE31BB"/>
</linearGradient>
<linearGradient id="paint4_linear_202_16104" x1="7.01775" y1="37.9385" x2="31.5771" y2="1.95664" gradientUnits="userSpaceOnUse">
<stop/>
<stop offset="1" stop-color="#D23DE2"/>
</linearGradient>
<linearGradient id="paint5_linear_202_16104" x1="33.6956" y1="7.39908" x2="32.9018" y2="12.4325" gradientUnits="userSpaceOnUse">
<stop/>
<stop offset="1" stop-opacity="0"/>
</linearGradient>
<linearGradient id="paint6_linear_202_16104" x1="20.3462" y1="26.4699" x2="30.3619" y2="29.6994" gradientUnits="userSpaceOnUse">
<stop stop-color="#2DB5F9"/>
<stop offset="1"/>
</linearGradient>
<linearGradient id="paint7_linear_202_16104" x1="12.3299" y1="0.644687" x2="0.631575" y2="15.3386" gradientUnits="userSpaceOnUse">
<stop/>
<stop offset="0.21" stop-color="#48080A"/>
<stop offset="0.42" stop-color="#891014"/>
<stop offset="0.61" stop-color="#BC151B"/>
<stop offset="0.78" stop-color="#E01A21"/>
<stop offset="0.91" stop-color="#F71C24"/>
<stop offset="1" stop-color="#FF1D25"/>
</linearGradient>
<clipPath id="clip0_202_16104">
<rect width="41" height="30" fill="white"/>
</clipPath>
</defs>
</svg>
