<svg width="28" height="41" viewBox="0 0 28 41" fill="none" xmlns="http://www.w3.org/2000/svg">
<g clip-path="url(#clip0_202_11619)">
<path d="M14.0002 13.3391C18.9462 13.3391 23.2399 16.0221 25.5452 20.0029C26.7272 17.9812 27.349 15.681 27.3467 13.3391C27.3467 5.9776 21.3715 0.00244141 14.0002 0.00244141C6.64368 0.00244141 0.668518 5.97662 0.668518 13.3391C0.668518 15.7634 1.32969 18.043 2.46313 20.0029C4.77035 16.0211 9.07388 13.3391 14.0002 13.3391Z" fill="#B9D532"/>
<path d="M14.0002 26.6717C9.0729 26.6717 4.77035 23.9906 2.46313 20.0049C1.28751 22.03 0.668372 24.3301 0.668518 26.6717C0.668518 34.0302 6.64368 40.0024 14.0002 40.0024C21.3715 40.0024 27.3467 34.0312 27.3467 26.6717C27.3467 24.2366 26.6904 21.9658 25.5452 20.0049C23.2399 23.9906 18.9472 26.6717 14.0002 26.6717Z" fill="#359F47"/>
<path d="M14.0005 26.6715C18.9465 26.6715 23.2402 23.9904 25.5455 20.0047C23.2392 16.0229 18.9465 13.3408 14.0005 13.3408C9.07321 13.3408 4.77066 16.0239 2.46344 20.0047C4.77066 23.9904 9.07419 26.6715 14.0005 26.6715Z" fill="#036C40"/>
</g>
<defs>
<clipPath id="clip0_202_11619">
<rect width="28" height="41" fill="white"/>
</clipPath>
</defs>
</svg>
