<svg width="37" height="36" viewBox="0 0 37 36" fill="none" xmlns="http://www.w3.org/2000/svg">
<path d="M19.8012 0.000427246V1.80043H18.0012V12.6004H16.2012V14.4004H12.6012V16.2004H10.8012V18.0004H9.00122V19.8004H5.40122V18.0004H3.60122V16.2004H1.80122V12.6004H0.0012207V23.4004H1.80122V25.2004H3.60122V27.0004H5.40122V28.8004H7.20122V36.0004H10.8012V34.2004H9.00122V32.4004H10.8012V30.6004H12.6012V28.8004H14.4012V30.6004H16.2012V36.0004H19.8012V34.2004H18.0012V27.0004H19.8012V25.2004H21.6012V23.4004H23.4012V18.0004H25.2012V19.8004H27.0012V16.2004H23.4012V12.6004H32.4012V10.8004H27.0012V9.00043H36.0012V1.80043H34.2012V0.000427246H19.8012ZM21.6012 1.80043H23.4012V3.60043H21.6012V1.80043Z" fill="#1E2226"/>
</svg>
