<svg width="37" height="36" viewBox="0 0 37 36" fill="none" xmlns="http://www.w3.org/2000/svg">
<g clip-path="url(#clip0_202_13247)">
<path d="M35.5429 26.9257C32.6255 28.5534 29.2385 29.457 25.638 29.3833C15.0243 29.1697 6.59142 20.5677 6.79941 10.1753C6.87384 6.64571 7.92908 3.37007 9.71333 0.583435C4.03086 3.75613 0.147245 9.68903 0.0060354 16.5568C-0.20404 26.9507 8.23585 35.552 18.8523 35.7662C25.862 35.9088 32.0759 32.3549 35.5429 26.9257Z" fill="#1F3244"/>
<path d="M25.4517 27.1482C25.5692 27.1503 25.6875 27.1524 25.8057 27.1524C28.5757 27.1524 31.3081 26.4665 33.7371 25.1755C35.1687 22.7214 36.0021 19.8728 36.0021 16.8225C36.0021 7.6613 28.5952 0.231445 19.4562 0.231445C16.5749 0.231445 13.8669 0.97297 11.5088 2.27168C9.98539 4.72303 9.14578 7.54166 9.08457 10.4368C8.90371 19.4638 16.2452 26.9625 25.4517 27.1482Z" fill="#3E95BE"/>
</g>
<defs>
<clipPath id="clip0_202_13247">
<rect width="37" height="36" fill="white"/>
</clipPath>
</defs>
</svg>
