<svg width="36" height="37" viewBox="0 0 36 37" fill="none" xmlns="http://www.w3.org/2000/svg">
<g clip-path="url(#clip0_202_10601)">
<path d="M0 13.0308C0 8.47034 0 6.19013 0.887518 4.44827C1.6682 2.9161 2.9139 1.6704 4.44608 0.889716C6.18793 0.00219727 8.46814 0.00219727 13.0286 0.00219727H22.9714C27.5319 0.00219727 29.8121 0.00219727 31.5539 0.889716C33.0861 1.6704 34.3318 2.9161 35.1125 4.44827C36 6.19013 36 8.47034 36 13.0308V22.9736C36 27.5341 36 29.8143 35.1125 31.5561C34.3318 33.0883 33.0861 34.334 31.5539 35.1147C29.8121 36.0022 27.5319 36.0022 22.9714 36.0022H13.0286C8.46814 36.0022 6.18793 36.0022 4.44608 35.1147C2.9139 34.334 1.6682 33.0883 0.887518 31.5561C0 29.8143 0 27.5341 0 22.9736V13.0308Z" fill="#470137"/>
<path d="M3.85811 26.6114V10.5696C3.84663 10.4681 3.92069 10.3745 4.01763 10.3678C5.49146 10.2607 6.98545 10.2924 8.46172 10.2921C11.3482 10.2921 14.2776 11.3374 15.6976 14.1639C16.2976 15.3663 16.5977 16.7493 16.5978 18.313C16.6154 19.405 16.4574 20.4923 16.1306 21.529C15.8484 22.407 15.4159 23.2234 14.8543 23.9378C14.3313 24.5957 13.712 25.1619 13.0197 25.6151C10.4179 27.3162 6.94851 27.0528 3.99482 26.8637C3.90366 26.8637 3.85808 26.7796 3.85811 26.6114ZM7.00312 13.3945V23.8369C10.4796 23.8369 13.3748 22.3645 13.316 18.3887C13.3924 14.3586 10.3509 13.1802 7.00312 13.3945Z" fill="#FF61F6"/>
<path d="M29.9398 26.8662H27.151C26.998 26.8881 26.9253 26.7467 26.8833 26.6139C26.3143 23.6704 25.7183 20.7721 25.1877 17.912C24.5599 20.8206 23.9216 23.7223 23.2244 26.6139C23.1944 26.7822 23.1129 26.8662 22.979 26.8662H20.1902C20.0344 26.8838 19.9221 26.7927 19.8778 26.6392L16.9775 14.5321C16.9329 14.3977 16.9924 14.3304 17.156 14.3303H19.9671C20.1009 14.3303 20.1753 14.3808 20.1902 14.4817C20.8309 17.4529 21.3926 20.4303 21.8635 23.4359C22.4402 20.4588 23.1107 17.4821 23.7152 14.5826C23.7283 14.4214 23.7779 14.3303 23.9383 14.3303H26.861C26.9503 14.3303 27.0022 14.3894 27.0172 14.5069C27.6718 17.4693 28.1768 20.3804 28.6905 23.5367C29.3816 20.5644 29.781 17.5151 30.453 14.5321C30.4826 14.3977 30.5495 14.3304 30.6538 14.3303H33.2641C33.3979 14.3303 33.45 14.406 33.4203 14.5573L30.2076 26.6392C30.1672 26.7729 30.0871 26.8856 29.9398 26.8662Z" fill="#FF61F6"/>
</g>
<defs>
<clipPath id="clip0_202_10601">
<rect width="36" height="37" fill="white"/>
</clipPath>
</defs>
</svg>
