<svg width="37" height="37" viewBox="0 0 37 37" fill="none" xmlns="http://www.w3.org/2000/svg">
<g clip-path="url(#clip0_202_10813)">
<path d="M18.002 35.4399C27.6324 35.4399 35.4395 27.6329 35.4395 18.0024C35.4395 8.37198 27.6324 0.564941 18.002 0.564941C8.37149 0.564941 0.564453 8.37198 0.564453 18.0024C0.564453 27.6329 8.37149 35.4399 18.002 35.4399Z" fill="#EA4C89"/>
<path fill-rule="evenodd" clip-rule="evenodd" d="M18.002 0.00244141C8.06486 0.00244141 0.00195312 8.06535 0.00195312 18.0024C0.00195312 27.9396 8.06486 36.0024 18.002 36.0024C27.9195 36.0024 36.002 27.9396 36.002 18.0024C36.002 8.06535 27.9195 0.00244141 18.002 0.00244141ZM29.8913 8.29962C32.0388 10.9157 33.3274 14.2541 33.3664 17.8658C32.8588 17.7682 27.7828 16.7334 22.6679 17.3777C22.5508 17.1239 22.4531 16.8506 22.336 16.5773C22.0236 15.8355 21.6723 15.0741 21.3208 14.3517C26.9824 12.048 29.5594 8.72912 29.8913 8.29962ZM18.002 2.65754C21.9065 2.65754 25.4792 4.12175 28.1929 6.52305C27.9195 6.91351 25.5963 10.0176 20.1299 12.0675C17.6115 7.44061 14.8198 3.6532 14.3903 3.06752C15.542 2.7942 16.7525 2.65754 18.002 2.65754ZM11.4619 4.10222C11.8718 4.64886 14.605 8.4558 17.1625 12.9851C9.97809 14.8983 3.63319 14.8593 2.94989 14.8593C3.94555 10.0957 7.16681 6.13259 11.4619 4.10222ZM2.61801 18.022C2.61801 17.8658 2.61801 17.7096 2.61801 17.5535C3.28178 17.5729 10.7395 17.6706 18.4119 15.3669C18.861 16.2258 19.271 17.1044 19.6614 17.9829C19.4661 18.0415 19.2514 18.1001 19.0562 18.1586C11.1299 20.7161 6.91302 27.7052 6.5616 28.2909C4.12125 25.5773 2.61801 21.9656 2.61801 18.022ZM18.002 33.3864C14.4488 33.3864 11.169 32.176 8.57245 30.1456C8.84577 29.5795 11.9694 23.5665 20.6375 20.5404C20.6765 20.5209 20.6961 20.5209 20.7351 20.5014C22.9021 26.1044 23.7807 30.8093 24.015 32.1564C22.1603 32.9568 20.1299 33.3864 18.002 33.3864ZM26.5724 30.7508C26.4163 29.8137 25.5963 25.3235 23.5854 19.7985C28.4076 19.0371 32.6245 20.2866 33.1517 20.4624C32.4879 24.7378 30.028 28.4276 26.5724 30.7508Z" fill="#C32361"/>
</g>
<defs>
<clipPath id="clip0_202_10813">
<rect width="37" height="37" fill="white"/>
</clipPath>
</defs>
</svg>
