<svg width="37" height="36" viewBox="0 0 37 36" fill="none" xmlns="http://www.w3.org/2000/svg">
<g clip-path="url(#clip0_202_14166)">
<path d="M7.18804 4.07634L7.00968 4.23849L13.2525 10.4002C12.3336 11.8848 11.8556 13.6 11.8742 15.3458C11.8 17.72 12.7173 20.018 14.4062 21.6884C16.095 23.3588 18.403 24.2509 20.7763 24.1506C22.5384 24.1767 24.2712 23.6984 25.7705 22.7723L32.0457 29.0151C28.6654 33.431 23.4022 35.9965 17.8413 35.9389C13.1264 36.0085 8.58113 34.1807 5.22702 30.8663C1.8729 27.5518 -0.00878952 23.0286 0.0047747 18.3132C-0.0719099 12.6787 2.61041 7.36246 7.18804 4.07634ZM10.6743 1.69273C13.0619 0.608039 15.6567 0.0547893 18.2791 0.0712224C22.9772 0.0234065 27.4981 1.86189 30.8295 5.17493C34.1608 8.48798 36.0241 12.9987 36.0022 17.697C36.0299 20.3258 35.4762 22.9282 34.3807 25.3181L28.7865 19.7239C29.6883 18.2616 30.1655 16.5773 30.1648 14.8593C30.2622 12.467 29.3533 10.1432 27.6587 8.45166C25.9641 6.76016 23.6387 5.85554 21.2465 5.95728C19.5273 5.9478 17.8407 6.42569 16.382 7.33556L10.6743 1.69273ZM21.3438 19.9347C19.9257 19.9841 18.5498 19.447 17.5403 18.4497C16.5309 17.4525 15.9769 16.0834 16.009 14.6648C15.954 13.2323 16.4979 11.8416 17.51 10.8264C18.5221 9.81119 19.9111 9.26316 21.3438 9.3138C22.7695 9.28213 24.1457 9.8368 25.151 10.8482C26.1564 11.8597 26.7026 13.2393 26.6623 14.6648C26.7176 16.0916 26.175 17.4767 25.1654 18.4864C24.1557 19.496 22.7706 20.0386 21.3438 19.9833V19.9347Z" fill="#00ABE4"/>
</g>
<defs>
<clipPath id="clip0_202_14166">
<rect width="37" height="36" fill="white"/>
</clipPath>
</defs>
</svg>
