<svg width="37" height="37" viewBox="0 0 37 37" fill="none" xmlns="http://www.w3.org/2000/svg">
<g clip-path="url(#clip0_202_16033)">
<path d="M18.0049 6.00439C11.3774 6.00439 6.00488 11.3769 6.00488 18.0044V30.0044H18.0049C24.6324 30.0044 30.0049 24.6319 30.0049 18.0044C30.0049 11.3769 24.6324 6.00439 18.0049 6.00439ZM18.0049 27.0044H9.00488V18.0044C9.00488 13.0339 13.0344 9.00439 18.0049 9.00439C22.9754 9.00439 27.0049 13.0339 27.0049 18.0044C27.0049 22.9749 22.9759 27.0044 18.0049 27.0044Z" fill="#028BF4"/>
<path d="M18.0049 12.0044C14.6914 12.0044 12.0049 14.6909 12.0049 18.0044V24.0044H18.0049C21.3184 24.0044 24.0049 21.3179 24.0049 18.0044C24.0049 14.6909 21.3184 12.0044 18.0049 12.0044ZM18.0049 21.0044H15.0049V18.0044C15.0049 16.3479 16.3484 15.0044 18.0049 15.0044C19.6614 15.0044 21.0049 16.3479 21.0049 18.0044C21.0049 19.6609 19.6619 21.0044 18.0049 21.0044Z" fill="#028BF4"/>
<path d="M18.0049 0.00439453H0.00488281V36.0044H18.0049C27.9459 36.0044 36.0049 27.9454 36.0049 18.0044C36.0049 8.06339 27.9459 0.00439453 18.0049 0.00439453ZM18.0049 33.0044H3.00488V18.0044C3.00488 9.7204 9.72088 3.00439 18.0049 3.00439C26.2889 3.00439 33.0049 9.7204 33.0049 18.0044C33.0049 26.2884 26.2894 33.0044 18.0049 33.0044Z" fill="#028BF4"/>
</g>
<defs>
<clipPath id="clip0_202_16033">
<rect width="37" height="37" fill="white"/>
</clipPath>
</defs>
</svg>
