<svg width="30" height="41" viewBox="0 0 30 41" fill="none" xmlns="http://www.w3.org/2000/svg">
<g clip-path="url(#clip0_202_13221)">
<mask id="mask0_202_13221" style="mask-type:alpha" maskUnits="userSpaceOnUse" x="0" y="0" width="30" height="41">
<path d="M15.0022 0.00140381C15.0022 0.00140381 0.25 10.497 0.25 25.2492C0.25 33.3979 6.8535 40.0014 15.0022 40.0014C23.1509 40.0014 29.7544 33.3979 29.7544 25.2492C29.7544 10.497 15.0022 0.00140381 15.0022 0.00140381ZM15.0022 33.8061L7.08673 24.6953H10.6144V14.2871H19.3899V24.6953H22.9176L15.0022 33.8061Z" fill="white"/>
</mask>
<g mask="url(#mask0_202_13221)">
<path d="M15.0022 0.00140381C15.0022 0.00140381 0.25 10.497 0.25 25.2492C0.25 33.3979 6.8535 40.0014 15.0022 40.0014C23.1509 40.0014 29.7544 33.3979 29.7544 25.2492C29.7544 10.497 15.0022 0.00140381 15.0022 0.00140381ZM15.0022 33.8061L7.08673 24.6953H10.6144V14.2871H19.3899V24.6953H22.9176L15.0022 33.8061Z" fill="#38DEDF"/>
</g>
</g>
<defs>
<clipPath id="clip0_202_13221">
<rect width="30" height="41" fill="white"/>
</clipPath>
</defs>
</svg>
