<svg width="33" height="30" viewBox="0 0 33 30" fill="none" xmlns="http://www.w3.org/2000/svg">
<rect width="33" height="30" rx="15" fill="#0F287F"/>
<path fill-rule="evenodd" clip-rule="evenodd" d="M32.002 6.07364L25.4932 11.223L16.002 5.43291L22.5888 0.00146484L32.002 6.07364ZM9.41541 0.00149268L16.002 5.43291L6.51107 11.223L0.00222543 6.07367L9.41541 0.00149268ZM16.0021 17.0133L9.41538 22.445L0.00219727 16.3729L6.51107 11.223L16.0021 17.0133ZM16.0021 17.0133L25.4932 11.223L32.002 16.3728L22.5888 22.445L16.0021 17.0133ZM22.6275 23.5976L16.0214 18.1818L9.41542 23.5976L6.58845 21.7741V23.8183L16.0214 29.4069L25.4544 23.8183V21.7741L22.6275 23.5976Z" fill="#DAF8FE"/>
</svg>
