<svg width="37" height="37" viewBox="0 0 37 37" fill="none" xmlns="http://www.w3.org/2000/svg">
<g clip-path="url(#clip0_202_15753)">
<path d="M18.0116 0.00415143C27.9501 0.0074926 36.0049 8.06557 36.0049 18.0042V18.0108C36.0015 27.9511 27.9401 36.0075 17.9982 36.0042C8.05795 36.0008 0.00154475 27.9377 0.00488385 17.9975C0.00822503 8.05722 8.06965 0.000812329 18.0116 0.00415143ZM17.9197 4.63358C17.4254 6.50406 15.7586 8.16578 14.0134 9.911C11.4031 12.528 8.43539 15.489 8.43539 19.9364C8.44207 25.1671 12.6774 29.4074 17.908 29.4207C23.1487 29.4207 27.399 25.1754 27.404 19.9364C27.404 15.489 24.4447 12.5297 21.826 9.911L21.5921 9.67705C19.9337 8.01669 18.3903 6.4219 17.9197 4.63358ZM18.0483 18.8358C19.1372 19.9965 19.8286 20.7965 20.5451 21.67C20.5985 21.7351 20.6469 21.8052 20.6904 21.8804C21.5671 23.1446 21.4486 24.8481 20.4048 25.9771C19.1756 27.3081 17.1014 27.3899 15.7703 26.1608C14.4393 24.9316 14.3575 22.8574 15.5866 21.5263C16.2847 20.7013 17.1281 19.8897 18.0483 18.8358ZM13.7145 14.4836L14.1721 14.9162L16.2964 17.089C16.3766 17.1808 16.3766 17.3161 16.2964 17.4079L14.0752 19.8629L13.2986 20.8082C13.003 21.1689 12.7525 21.5614 12.5521 21.9823C12.5237 22.0524 12.4636 22.1042 12.3901 22.1209H12.3116C12.0962 22.1025 11.849 21.705 11.849 21.705L11.8097 21.6455C11.7584 21.5655 11.7114 21.4832 11.6686 21.3977L11.6269 21.3075C11.3229 20.3189 11.2996 19.2651 11.5551 18.263L11.5838 18.1588C11.8197 17.327 12.1919 16.5382 12.6857 15.8264C13.003 15.3588 13.3471 14.9112 13.7145 14.4836ZM17.9331 10.0914C18.4992 10.7343 19.1372 11.379 19.7384 11.9802L19.7518 12.022C21.0093 13.1927 22.145 14.487 23.1454 15.8848C23.9937 17.0773 24.458 18.5002 24.4747 19.9648C24.4747 20.5978 24.3795 21.2257 24.1925 21.8303L24.1832 21.8552C24.1329 21.9778 24.0234 22.0672 23.8919 22.0891H23.8318C23.7015 22.0474 23.5929 21.9605 23.5245 21.842L23.4237 21.6908C22.8822 20.8874 22.2716 20.1333 21.5989 19.4354L20.7321 18.5202L17.8429 15.5107C17.3552 15.0414 16.4835 14.1997 16.116 13.7421C16.1043 13.7171 16.091 13.6937 16.0743 13.6703C15.9741 13.5334 15.8973 13.3814 15.8455 13.2194V13.1292C15.7954 12.8353 15.8355 12.533 15.9591 12.2625C16.0392 12.0904 16.1494 11.9335 16.2847 11.7998C16.8442 11.2404 17.4037 10.6926 17.9331 10.0914Z" fill="#009DDE"/>
</g>
<defs>
<clipPath id="clip0_202_15753">
<rect width="37" height="37" fill="white"/>
</clipPath>
</defs>
</svg>
