<svg width="37" height="36" viewBox="0 0 37 36" fill="none" xmlns="http://www.w3.org/2000/svg">
<g clip-path="url(#clip0_202_11197)">
<path d="M18.004 2.65524C26.4788 2.65524 33.349 9.52544 33.349 18.0003C33.349 26.475 26.4788 33.3452 18.004 33.3452C9.52926 33.3452 2.65906 26.475 2.65906 18.0003C2.65906 9.52544 9.52926 2.65524 18.004 2.65524Z" fill="#DE5833"/>
<path d="M18.0037 36C27.9448 36 36.0037 27.9411 36.0037 18C36.0037 8.05893 27.9448 3.05176e-05 18.0037 3.05176e-05C8.06256 3.05176e-05 0.00366211 8.05893 0.00366211 18C0.00366211 27.9411 8.06256 36 18.0037 36ZM18.0037 34.5C8.89095 34.5 1.50366 27.1127 1.50366 18C1.50366 8.88732 8.89095 1.50003 18.0037 1.50003C27.1164 1.50003 34.5037 8.88732 34.5037 18C34.5037 27.1127 27.1164 34.5 18.0037 34.5Z" fill="#DE5833"/>
<path d="M10.5287 7.63954C10.5257 7.38149 10.7131 7.237 10.9622 7.13573C10.8482 7.15437 10.739 7.1829 10.6407 7.22697C10.3811 7.34463 10.187 7.79011 10.1889 8.00098C11.4492 7.87358 13.3129 7.96172 14.6757 8.3685C14.7763 8.35437 14.8769 8.34025 14.979 8.32852C13.6196 7.72499 12.0035 7.49194 10.5287 7.63954Z" fill="#D5D7D8"/>
<path d="M10.787 6.0887C10.8154 6.08362 10.8442 6.08009 10.8728 6.07529C10.6009 6.10904 10.4575 6.20622 10.2534 6.23969C10.475 6.25933 11.3147 6.65128 11.8424 6.86681C11.9164 6.83871 11.9831 6.80749 12.0375 6.77063C11.7639 6.73023 11.0841 6.11582 10.787 6.0887Z" fill="#D5D7D8"/>
<path d="M12.0975 9.1404C12.0219 9.16949 11.9502 9.19986 11.888 9.23249C9.83363 10.3148 8.92614 12.8429 9.46696 15.8723C9.9606 18.6291 11.9839 28.0482 12.9103 32.4784C13.1808 32.5734 13.4545 32.6617 13.7316 32.7418C12.9066 28.7531 10.6548 18.3011 10.1294 15.3657C9.59676 12.3794 10.115 10.2366 12.0975 9.1404Z" fill="#D5D7D8"/>
<path d="M20.4107 30.8723C20.3768 30.8949 20.3364 30.9161 20.2933 30.9367C20.2614 31.0605 20.2126 31.1542 20.1416 31.2014C19.7173 31.4829 18.5189 31.6247 17.8861 31.4829C17.7772 31.4588 17.6947 31.4188 17.6303 31.3638C16.5499 31.9637 14.9963 32.7623 14.6807 32.5823C14.1878 32.2997 14.1163 28.5638 14.1878 27.647C14.2399 26.9549 16.671 28.076 17.8536 28.664C18.115 28.4198 18.7556 28.2564 19.3225 28.2008C18.4659 26.116 17.8341 23.7312 18.2214 22.0401C17.6861 21.6671 16.9766 20.802 17.1244 19.899C17.2382 19.2117 19.0142 17.9114 20.2717 17.8329C21.532 17.7534 21.9248 17.7713 22.9748 17.5199C23.0273 17.5073 23.0851 17.4935 23.1456 17.479C23.7919 15.2068 22.2417 11.2538 20.5126 9.52401C19.9489 8.96031 19.0823 8.60551 18.1057 8.41822C17.7302 7.90283 17.1244 7.41003 16.2667 6.95367C14.6742 6.10819 12.7061 5.76398 10.8727 6.07528C10.8441 6.08009 10.8153 6.08362 10.7869 6.0887C11.084 6.11582 11.7638 6.73023 12.0374 6.77062C11.983 6.80749 11.9163 6.8387 11.8423 6.86681C11.5855 6.96455 11.2365 7.02387 10.9621 7.13573C10.7131 7.23701 10.5256 7.3815 10.5286 7.63955C12.0035 7.49195 13.6196 7.725 14.9789 8.32853C14.8768 8.34026 14.7762 8.35438 14.6756 8.3685C13.7117 8.5041 12.8256 8.75381 12.1855 9.09153C12.1554 9.1072 12.1269 9.12415 12.0974 9.1404C10.1149 10.2366 9.59668 12.3794 10.1293 15.3657C10.6547 18.3011 12.9213 28.915 13.7463 32.9037C15.1026 33.2962 16.3708 33.6099 17.8536 33.6099C19.1124 33.6099 20.6263 33.3309 21.7971 33.0449C21.3859 32.2521 20.857 31.3754 20.531 30.7468C20.4875 30.7986 20.4532 30.8439 20.4107 30.8723ZM21.2402 15.8213C20.7029 15.8213 20.2646 15.3843 20.2646 14.8439C20.2646 14.3061 20.7029 13.8689 21.2402 13.8689C21.7804 13.8689 22.217 14.3061 22.217 14.8439C22.217 15.3843 21.7804 15.8213 21.2402 15.8213ZM21.8279 12.1479C21.8279 12.1479 21.2125 11.7963 20.735 11.8023C19.7536 11.8151 19.4864 12.2487 19.4864 12.2487C19.4864 12.2487 19.6511 11.2151 20.906 11.4225C21.5864 11.5356 21.8279 12.1479 21.8279 12.1479ZM11.4811 13.4186C11.4811 13.4186 11.0392 12.4338 12.217 11.9511C13.3961 11.4684 13.9703 12.2258 13.9703 12.2258C13.9703 12.2258 13.1141 11.8386 12.2816 12.3617C11.4505 12.8843 11.4811 13.4186 11.4811 13.4186ZM12.5108 15.5178C12.5108 14.8898 13.0186 14.3816 13.6474 14.3816C14.2745 14.3816 14.783 14.8898 14.783 15.5178C14.783 16.1459 14.2745 16.6535 13.6474 16.6535C13.0186 16.6538 12.5108 16.1459 12.5108 15.5178Z" fill="white"/>
<path d="M14.783 15.5178C14.783 14.8898 14.2746 14.3817 13.6474 14.3817C13.0186 14.3817 12.5109 14.8898 12.5109 15.5178C12.5109 16.1459 13.0186 16.6538 13.6474 16.6535C14.2746 16.6535 14.783 16.1459 14.783 15.5178ZM14.1506 15.4343C13.9893 15.4348 13.8566 15.3021 13.8566 15.1391C13.8566 14.9757 13.9888 14.8442 14.1506 14.8442C14.3135 14.8442 14.4458 14.9757 14.4458 15.1391C14.4458 15.3021 14.3135 15.4343 14.1506 15.4343Z" fill="#2D4F8E"/>
<path d="M14.1505 14.8442C13.9888 14.8442 13.8566 14.9757 13.8566 15.1391C13.8566 15.3021 13.9892 15.4347 14.1505 15.4343C14.3135 15.4343 14.4457 15.3021 14.4457 15.1391C14.4457 14.9757 14.3135 14.8442 14.1505 14.8442Z" fill="white"/>
<path d="M21.2402 13.8689C20.7029 13.8689 20.2646 14.3061 20.2646 14.8439C20.2646 15.3843 20.7029 15.8213 21.2402 15.8213C21.7805 15.8213 22.217 15.3843 22.217 14.8439C22.217 14.3061 21.7805 13.8689 21.2402 13.8689ZM21.6734 14.772C21.5357 14.772 21.422 14.66 21.422 14.5194C21.422 14.3805 21.5357 14.2665 21.6734 14.2665C21.817 14.2665 21.9272 14.3805 21.9272 14.5194C21.9272 14.66 21.817 14.772 21.6734 14.772Z" fill="#2D4F8E"/>
<path d="M21.6734 14.2665C21.5357 14.2665 21.422 14.3805 21.422 14.5194C21.422 14.66 21.5357 14.772 21.6734 14.772C21.8171 14.772 21.9272 14.66 21.9272 14.5194C21.9272 14.3805 21.8171 14.2665 21.6734 14.2665Z" fill="white"/>
<path d="M13.9703 12.2258C13.9703 12.2258 13.3961 11.4684 12.217 11.9511C11.0392 12.4337 11.4811 13.4186 11.4811 13.4186C11.4811 13.4186 11.4505 12.8843 12.2816 12.3617C13.114 11.8386 13.9703 12.2258 13.9703 12.2258Z" fill="url(#paint0_linear_202_11197)"/>
<path d="M20.9061 11.4224C19.6511 11.2151 19.4865 12.2487 19.4865 12.2487C19.4865 12.2487 19.7537 11.8151 20.735 11.8023C21.2126 11.7963 21.828 12.1479 21.828 12.1479C21.828 12.1479 21.5865 11.5356 20.9061 11.4224Z" fill="url(#paint1_linear_202_11197)"/>
<path d="M20.2717 17.8329C19.0143 17.9115 17.2383 19.2117 17.1244 19.899C16.9767 20.802 17.6862 21.6671 18.2215 22.0401C18.2229 22.0411 18.2244 22.0424 18.2258 22.0434C18.761 22.4157 22.3244 23.6178 24.0924 23.5845C25.8623 23.55 28.7691 22.4661 28.4499 21.5976C28.1321 20.7288 25.2452 22.3641 22.2342 22.085C20.0042 21.8778 19.6106 20.8788 20.1044 20.1492C20.7254 19.2321 21.8566 20.3232 23.7225 19.7649C25.5911 19.2081 28.2044 18.2115 29.174 17.6688C31.416 16.4189 28.2359 15.9006 27.4847 16.2473C26.7727 16.5763 24.2945 17.2017 23.1456 17.479C23.0852 17.4935 23.0274 17.5074 22.9749 17.5199C21.9249 17.7713 21.5321 17.7534 20.2717 17.8329Z" fill="#FDD209"/>
<path d="M17.4633 29.2271C17.4633 29.097 17.5679 28.9819 17.734 28.8837C17.7387 28.8048 17.7816 28.7313 17.8537 28.6639C16.671 28.076 14.24 26.9549 14.1878 27.647C14.1164 28.5638 14.1878 32.2997 14.6808 32.5823C14.9963 32.7623 16.55 31.9637 17.6304 31.3638C17.3186 31.0981 17.4633 30.4532 17.4633 29.2271Z" fill="#65BC46"/>
<path d="M20.5154 30.7406C20.5205 30.7426 20.526 30.7447 20.5311 30.7467C21.4992 31.1203 23.4263 31.8236 23.8448 31.67C24.4091 31.4543 24.2678 26.945 23.6345 26.8014C23.1271 26.6888 21.1849 28.0573 20.4208 28.6148C20.5559 29.1856 20.7195 30.3161 20.5154 30.7406Z" fill="#65BC46"/>
<path d="M18.1551 31.1538C17.5202 31.0131 17.7324 30.3779 17.7324 28.898C17.7324 28.8932 17.7338 28.8885 17.7341 28.8837C17.568 28.9819 17.4633 29.097 17.4633 29.2271C17.4633 30.4532 17.3187 31.0981 17.6304 31.3638C17.6948 31.4188 17.7773 31.4587 17.8862 31.4829C18.519 31.6247 19.7174 31.4829 20.1417 31.2014C20.2128 31.1542 20.2615 31.0604 20.2934 30.9367C19.7968 31.1745 18.7363 31.286 18.1551 31.1538Z" fill="#43A244"/>
<path d="M17.8536 28.664C17.7816 28.7313 17.7386 28.8048 17.734 28.8837C17.7337 28.8885 17.7323 28.8932 17.7323 28.898C17.7323 30.3779 17.5201 31.0131 18.155 31.1538C18.7362 31.286 19.7967 31.1745 20.2933 30.9367C20.3364 30.9161 20.3768 30.8949 20.4107 30.8723C20.4532 30.8439 20.4875 30.7986 20.5153 30.7406C20.7194 30.3161 20.5559 29.1856 20.4207 28.6148C20.3909 28.4892 20.3627 28.3904 20.3399 28.3325C20.2816 28.1881 19.8323 28.151 19.3225 28.2008C18.7556 28.2563 18.1151 28.4197 17.8536 28.664Z" fill="#65BC46"/>
</g>
<defs>
<linearGradient id="paint0_linear_202_11197" x1="13.225" y1="13.4186" x2="11.3999" y2="13.4186" gradientUnits="userSpaceOnUse">
<stop stop-color="#394A9F"/>
<stop offset="1" stop-color="#6176B9"/>
</linearGradient>
<linearGradient id="paint1_linear_202_11197" x1="21.149" y1="12.2487" x2="19.4865" y2="12.2487" gradientUnits="userSpaceOnUse">
<stop stop-color="#394A9F"/>
<stop offset="1" stop-color="#6176B9"/>
</linearGradient>
<clipPath id="clip0_202_11197">
<rect width="37" height="36" fill="white"/>
</clipPath>
</defs>
</svg>
