<svg width="41" height="40" viewBox="0 0 41 40" fill="none" xmlns="http://www.w3.org/2000/svg">
<g clip-path="url(#clip0_202_15603)">
<path d="M40.0037 21.1364C39.4559 31.6932 30.6946 40 20.0037 40C8.96048 40 0.00366211 31.0455 0.00366211 20C0.00366211 8.95455 8.96048 0 20.0037 0H36.8218C38.565 0 40.0037 1.43864 40.0037 3.18182V21.1364Z" fill="#1A73E8"/>
<path opacity="0.2" d="M36.8218 0H20.0037C8.95821 0 0.00366211 8.95 0.00366211 19.9886V19.9841C0.0650258 8.99773 8.99684 0.227273 20.0037 0.227273H36.8218C38.5673 0.227273 40.0037 1.66591 40.0037 3.40909V3.18182C40.0037 1.43864 38.5673 0 36.8218 0Z" fill="white"/>
<path d="M40.0037 21.1363V20.6818C39.4559 31.2409 30.6968 39.7727 20.0037 39.7727C8.99684 39.7727 0.0672985 30.7681 0.00593489 19.7727C0.00593489 19.8113 0.00366211 19.9613 0.00366211 20C0.00366211 31.0477 8.95821 40.0204 20.0037 40C30.865 39.9795 39.5196 31.6772 40.0037 20.9091" fill="#1A237E" fill-opacity="0.2"/>
<path d="M28.1855 23.8636C28.1855 25.7908 26.6855 27.0431 24.7764 27.0454H13.4128C11.5059 27.0477 10.0059 25.8045 10.0037 23.8795V24.9999C10.0059 26.9272 11.5059 28.4113 13.4128 28.409H24.7764C26.6832 28.4068 28.1878 26.9272 28.1855 24.9999V23.8636ZM33.64 24.7727C33.6332 25.334 32.8878 25.6408 32.5037 25.2272L28.1855 20.909V22.0454L32.5037 26.3636C32.9582 26.7977 33.64 26.5249 33.64 25.909V24.7727Z" fill="#185ABC"/>
<path d="M32.5039 13.8636L28.1857 18.1818V20.9113L32.5039 25.2272C32.9061 25.6545 33.6402 25.359 33.6402 24.7727V14.3181C33.6402 13.7454 32.9152 13.459 32.5039 13.8636Z" fill="#F1F3F4"/>
<path d="M24.7764 11.8182H13.4128C11.5059 11.8205 10.0014 13.35 10.0037 15.2273V23.8636C10.0059 25.7409 11.5059 27.275 13.4128 27.2727H24.7764C26.6832 27.2705 28.1878 25.7409 28.1855 23.8636V15.2273C28.1832 13.35 26.6832 11.8159 24.7764 11.8182Z" fill="white"/>
<path d="M28.1857 21.1818L28.1879 20.9091L29.0948 21.8181V17.2727L28.1857 18.1818V21.1818Z" fill="#BDC1C6"/>
</g>
<defs>
<clipPath id="clip0_202_15603">
<rect width="41" height="40" fill="white"/>
</clipPath>
</defs>
</svg>
