<svg width="28" height="36" viewBox="0 0 28 36" fill="none" xmlns="http://www.w3.org/2000/svg">
<g clip-path="url(#clip0_202_8885)">
<mask id="mask0_202_8885" style="mask-type:alpha" maskUnits="userSpaceOnUse" x="0" y="0" width="28" height="37">
<path d="M27.3189 11.5586C27.3189 9.95053 26.308 8.51605 24.7936 7.9752L2.71728 0.0908718C1.72609 -0.263129 0.68335 0.471703 0.68335 1.52423V13.5122C0.68335 14.1554 1.08771 14.7292 1.69348 14.9455L11.5867 18.4788C12.5779 18.8328 13.6206 18.0979 13.6206 17.0454V10.1621C13.6206 9.63033 14.152 9.2625 14.6496 9.44978L17.2439 10.4261C18.7268 10.9842 19.7087 12.4028 19.7087 13.9873V16.9849L8.53215 21.0686C7.93182 21.2879 7.53248 21.859 7.53248 22.4982V34.4776C7.53248 35.5348 8.58386 36.27 9.57687 35.9071L24.8197 30.3376C26.3205 29.7892 27.3189 28.3616 27.3189 26.7637L27.3189 11.5586Z" fill="white"/>
</mask>
<g mask="url(#mask0_202_8885)">
<path d="M0.68335 -0.635498L27.3189 8.87711V21.9379C27.3189 22.9904 26.2763 23.7252 25.2851 23.3714L19.7087 21.3804V13.9852C19.7087 12.3999 18.7259 10.9807 17.242 10.4232L14.6493 9.44905C14.1517 9.26211 13.6206 9.6299 13.6206 10.1614V19.2052L0.68335 14.5848V-0.635498Z" fill="url(#paint0_linear_202_8885)"/>
<g filter="url(#filter0_f_202_8885)">
<path d="M27.3189 11.6929C27.3189 13.2908 26.3205 14.7213 24.8196 15.2697L7.53247 21.5862V36.8065L27.3189 29.5768V11.6929Z" fill="black" fill-opacity="0.24"/>
</g>
<g filter="url(#filter1_f_202_8885)">
<path d="M27.3189 12.3017C27.3189 13.8996 26.3205 15.33 24.8196 15.8784L7.53247 22.1949V37.4152L27.3189 30.1855V12.3017Z" fill="black" fill-opacity="0.32"/>
</g>
<path d="M27.3189 11.5406C27.3189 13.1386 26.3205 14.569 24.8196 15.1174L7.53247 21.4339V36.6542L27.3189 29.4245V11.5406Z" fill="url(#paint1_linear_202_8885)"/>
<path opacity="0.5" d="M27.3189 11.5406C27.3189 13.1386 26.3205 14.569 24.8196 15.1174L7.53247 21.4339V36.6542L27.3189 29.4245V11.5406Z" fill="url(#paint2_linear_202_8885)"/>
<path opacity="0.5" d="M19.7093 16.9897L13.6177 19.2182L13.6177 28.1442C13.6177 28.6759 14.1492 29.0437 14.6468 28.8564L17.2446 27.8786C18.7275 27.3204 19.7093 25.9018 19.7093 24.3174V16.9897Z" fill="#B0ADFF"/>
</g>
</g>
<defs>
<filter id="filter0_f_202_8885" x="6.73247" y="10.8929" width="21.3864" height="26.7135" filterUnits="userSpaceOnUse" color-interpolation-filters="sRGB">
<feFlood flood-opacity="0" result="BackgroundImageFix"/>
<feBlend mode="normal" in="SourceGraphic" in2="BackgroundImageFix" result="shape"/>
<feGaussianBlur stdDeviation="0.4" result="effect1_foregroundBlur_202_8885"/>
</filter>
<filter id="filter1_f_202_8885" x="-0.467529" y="4.3017" width="35.7864" height="41.1135" filterUnits="userSpaceOnUse" color-interpolation-filters="sRGB">
<feFlood flood-opacity="0" result="BackgroundImageFix"/>
<feBlend mode="normal" in="SourceGraphic" in2="BackgroundImageFix" result="shape"/>
<feGaussianBlur stdDeviation="4" result="effect1_foregroundBlur_202_8885"/>
</filter>
<linearGradient id="paint0_linear_202_8885" x1="10.5937" y1="-0.635498" x2="17.6762" y2="17.9041" gradientUnits="userSpaceOnUse">
<stop stop-color="#0B53CE"/>
<stop offset="1" stop-color="#7252AA"/>
</linearGradient>
<linearGradient id="paint1_linear_202_8885" x1="20.5221" y1="35.3195" x2="20.5221" y2="13.2207" gradientUnits="userSpaceOnUse">
<stop stop-color="#2266E3"/>
<stop offset="1" stop-color="#AE7FE2"/>
</linearGradient>
<linearGradient id="paint2_linear_202_8885" x1="27.3189" y1="21.3524" x2="19.7378" y2="21.3524" gradientUnits="userSpaceOnUse">
<stop stop-color="#94B9FF"/>
<stop offset="0.287843" stop-color="#94B9FF" stop-opacity="0.523646"/>
<stop offset="1" stop-color="#538FFF" stop-opacity="0"/>
</linearGradient>
<clipPath id="clip0_202_8885">
<rect width="28" height="36.0009" fill="white"/>
</clipPath>
</defs>
</svg>
