<svg width="26" height="40" viewBox="0 0 26 40" fill="none" xmlns="http://www.w3.org/2000/svg">
<path d="M0.7146 40.0009C0.7146 30.933 0.7146 21.9572 0.7146 12.8893C1.22093 13.2115 1.68123 13.4877 2.0955 13.7639C4.12081 15.0527 6.1001 16.3415 8.12542 17.6304C8.44763 17.8145 8.53969 18.0446 8.4016 18.4129C7.43497 21.2667 6.46834 24.0746 5.54774 26.9284C4.81126 29.0918 4.12082 31.3013 3.38434 33.4647C2.83198 35.0757 2.27962 36.6407 1.72726 38.2518C1.68123 38.3899 1.6352 38.4819 1.68123 38.666C1.86535 38.5279 2.14153 38.3899 2.27962 38.2057C3.4764 36.9169 4.67318 35.582 5.86995 34.3392C7.75718 32.3599 9.6444 30.4727 11.5316 28.4934C13.0966 26.8824 14.6156 25.2713 16.1346 23.7063C17.9758 21.8191 19.771 19.9319 21.6122 18.0446C22.4868 17.124 23.3613 16.2495 24.2359 15.3289C24.6041 14.9606 24.9263 14.5464 25.3866 14.2242C25.3866 14.4083 25.3866 14.6384 25.3866 14.8225C25.3866 18.551 25.3866 22.2334 25.3866 25.9618C25.3866 26.376 25.2485 26.6062 24.8803 26.8364C22.9471 27.849 21.0598 28.9077 19.1266 29.9204C16.5029 31.3473 13.8792 32.8202 11.2094 34.2472C8.99999 35.4439 6.79055 36.6407 4.58111 37.8375C3.43037 38.4819 2.32565 39.0803 1.1749 39.7247C1.12887 39.8168 0.944749 39.8628 0.7146 40.0009Z" fill="url(#paint0_linear_202_12646)"/>
<path d="M0.622523 0.000915527C8.63173 4.32773 16.5489 8.65454 24.5121 12.9814C23.7295 13.5337 23.0391 14.0861 22.3486 14.5924C20.5074 15.8812 18.6663 17.1701 16.8711 18.5049C16.5949 18.6891 16.3648 18.7351 16.0886 18.551C14.4775 17.7224 12.8205 16.9399 11.2094 16.1574C8.03334 14.5924 4.85727 13.0274 1.63518 11.5544C0.806641 11.1862 0.576493 10.7719 0.622523 9.89735C0.622523 6.67525 0.622523 3.3611 0.622523 0.000915527Z" fill="url(#paint1_linear_202_12646)"/>
<defs>
<linearGradient id="paint0_linear_202_12646" x1="0.733426" y1="26.436" x2="25.4096" y2="26.436" gradientUnits="userSpaceOnUse">
<stop offset="0.5248" stop-color="#61C3FF"/>
<stop offset="1" stop-color="#13A4FF"/>
</linearGradient>
<linearGradient id="paint1_linear_202_12646" x1="0.58777" y1="9.34274" x2="24.5192" y2="9.34274" gradientUnits="userSpaceOnUse">
<stop offset="0.5248" stop-color="#61C3FF"/>
<stop offset="1" stop-color="#13A4FF"/>
</linearGradient>
</defs>
</svg>
