<svg width="37" height="34" viewBox="0 0 37 34" fill="none" xmlns="http://www.w3.org/2000/svg">
<g clip-path="url(#clip0_202_12650)">
<mask id="mask0_202_12650" style="mask-type:alpha" maskUnits="userSpaceOnUse" x="0" y="0" width="37" height="34">
<path d="M7.97187 0.937896C8.2354 0.45655 8.74047 0.157227 9.28924 0.157227H26.2499C26.7857 0.157227 27.2808 0.442583 27.5493 0.906132L35.8 15.1456C36.0656 15.6039 36.0701 16.1683 35.8118 16.6308L29.142 28.5737C28.5953 29.5525 27.208 29.609 26.5836 28.678L24.6588 25.8087L19.237 33.2279C18.6371 34.0488 17.4118 34.0488 16.8119 33.2279L11.3608 25.7686L9.40847 28.6764C8.78327 29.6077 7.39492 29.5498 6.84937 28.5699L0.192053 16.6104C-0.0589245 16.1596 -0.0608635 15.6115 0.186918 15.1588L7.97187 0.937896Z" fill="white"/>
</mask>
<g mask="url(#mask0_202_12650)">
<path d="M7.97187 0.937896C8.2354 0.45655 8.74047 0.157227 9.28924 0.157227H26.2499C26.7857 0.157227 27.2808 0.442583 27.5493 0.906132L35.8 15.1456C36.0656 15.6039 36.0701 16.1683 35.8118 16.6308L29.142 28.5737C28.5953 29.5525 27.208 29.609 26.5836 28.678L19.2461 17.7387C18.6513 16.8519 17.3471 16.8516 16.7519 17.7381L9.40847 28.6764C8.78327 29.6077 7.39492 29.5498 6.84937 28.5699L0.192053 16.6104C-0.0589245 16.1596 -0.0608635 15.6115 0.186918 15.1588L7.97187 0.937896Z" fill="url(#paint0_linear_202_12650)"/>
<path opacity="0.3" fill-rule="evenodd" clip-rule="evenodd" d="M25.4661 10.5492C21.4994 6.11272 14.5559 6.11273 10.5892 10.5492L9.77083 9.81748L10.5892 10.5492C7.45072 14.0593 7.19319 19.2857 9.97132 23.0872L9.97133 23.0873L17.7245 33.697C17.8744 33.9022 18.1808 33.9022 18.3308 33.697C18.3308 33.697 18.3308 33.697 18.3308 33.697L26.0839 23.0873L26.9394 23.7124L26.0839 23.0873C28.862 19.2857 28.6045 14.0593 25.4661 10.5492ZM27.1455 9.04764L26.3058 9.79841L27.1455 9.04765C30.9925 13.3502 31.3081 19.7565 27.9028 24.4164L20.1496 35.0262L20.1496 35.0262C19.0997 36.4628 16.9556 36.4628 15.9057 35.0262L15.9056 35.0262L8.15247 24.4164C8.15247 24.4164 8.15247 24.4164 8.15246 24.4164C4.74711 19.7565 5.06281 13.3502 8.90982 9.04764C13.7721 3.60956 22.2832 3.60957 27.1455 9.04764Z" fill="black" fill-opacity="0.5"/>
<path d="M9.74934 8.66432C14.1638 3.72705 21.8911 3.72705 26.3057 8.66432C29.7983 12.5707 30.0849 18.387 26.9932 22.6178L19.24 33.2273C18.6401 34.0485 17.4149 34.0485 16.8149 33.2273L9.06173 22.6178C5.96999 18.387 6.25661 12.5707 9.74934 8.66432Z" fill="url(#paint1_linear_202_12650)"/>
<path d="M18.0244 22.6848C21.7569 22.6848 24.7826 19.659 24.7826 15.9265C24.7826 12.194 21.7569 9.16824 18.0244 9.16824C14.2919 9.16824 11.2661 12.194 11.2661 15.9265C11.2661 19.659 14.2919 22.6848 18.0244 22.6848Z" fill="url(#paint2_linear_202_12650)"/>
</g>
</g>
<defs>
<linearGradient id="paint0_linear_202_12650" x1="3.16432" y1="-2.50569" x2="41.5114" y2="17.1749" gradientUnits="userSpaceOnUse">
<stop stop-color="#F5B240"/>
<stop offset="0.553929" stop-color="#EA8200"/>
</linearGradient>
<linearGradient id="paint1_linear_202_12650" x1="3.76004" y1="-0.594129" x2="40.76" y2="18.3763" gradientUnits="userSpaceOnUse">
<stop stop-color="#FDD340"/>
<stop offset="1" stop-color="#F9AE00"/>
</linearGradient>
<linearGradient id="paint2_linear_202_12650" x1="11.2661" y1="9.16824" x2="24.3012" y2="23.1342" gradientUnits="userSpaceOnUse">
<stop stop-color="#FFED80"/>
<stop offset="1" stop-color="#FCD680"/>
</linearGradient>
<clipPath id="clip0_202_12650">
<rect width="37" height="34" fill="white"/>
</clipPath>
</defs>
</svg>
