<svg width="36" height="37" viewBox="0 0 36 37" fill="none" xmlns="http://www.w3.org/2000/svg">
<g clip-path="url(#clip0_202_15377)">
<path d="M12.222 3.01994C11.7593 5.46184 11.1938 9.08612 10.8854 12.7618C10.3456 19.2393 10.6797 23.5833 10.6797 23.5833L1.55476 32.2456C1.55476 32.2456 0.860744 27.3875 0.500886 21.9125C0.295252 18.5196 0.21814 15.5379 0.21814 13.7386C0.21814 13.6358 0.269548 13.5329 0.269548 13.4301C0.269548 13.3016 0.423773 12.0935 1.60616 10.9625C2.89137 9.72873 12.3762 2.30022 12.222 3.01994Z" fill="#1496FF"/>
<path d="M12.222 3.01972C11.7593 5.46162 11.1938 9.08591 10.8854 12.7616C10.8854 12.7616 0.783631 11.5535 0.21814 13.9954C0.21814 13.8669 0.398069 12.376 1.58046 11.2451C2.86567 10.0113 12.3762 2.30001 12.222 3.01972Z" fill="#1284EA"/>
<path d="M0.217955 13.4043V13.9698C0.320772 13.5328 0.500701 13.2244 0.860559 12.736C1.60598 11.785 2.81408 11.5279 3.30246 11.4765C5.77006 11.1424 9.42005 10.7568 13.0957 10.654C19.5989 10.4483 23.8915 10.9881 23.8915 10.9881L33.0165 2.32583C33.0165 2.32583 28.2355 1.42618 22.7862 0.783578C19.2133 0.346607 16.0774 0.11527 14.3038 0.0124529C14.1753 0.0124529 12.9158 -0.141772 11.7334 0.989211C10.4482 2.22301 3.91936 8.41772 1.29753 10.911C0.115138 12.042 0.217955 13.3015 0.217955 13.4043Z" fill="#B4DC00"/>
<path d="M32.6825 24.4829C30.2149 24.8171 26.5649 25.2283 22.8892 25.3569C16.386 25.5625 12.0677 25.0227 12.0677 25.0227L2.94275 33.7107C2.94275 33.7107 7.77513 34.6618 13.2244 35.2787C16.566 35.6642 19.5219 35.8699 21.3212 35.9727C21.4498 35.9727 21.6554 35.8699 21.7839 35.8699C21.9124 35.8699 23.1719 35.6385 24.3543 34.5075C25.6395 33.2737 33.4022 24.4058 32.6825 24.4829Z" fill="#6F2DA8"/>
<path d="M32.6822 24.4829C30.2146 24.8171 26.5646 25.2283 22.8889 25.3569C22.8889 25.3569 23.5829 35.51 21.141 35.947C21.2695 35.947 22.9403 35.8699 24.1227 34.7389C25.4079 33.5051 33.4019 24.4058 32.6822 24.4829Z" fill="#591F91"/>
<path d="M21.6811 35.9984C21.5012 35.9984 21.3212 35.9727 21.1156 35.9727C21.5783 35.8956 21.8867 35.7414 22.3751 35.3815C23.3519 34.6875 23.6603 33.4794 23.7631 32.991C24.2001 30.5491 24.7913 26.9248 25.074 23.2491C25.5881 16.7717 25.2797 12.4534 25.2797 12.4534L34.4047 3.76538C34.4047 3.76538 35.073 8.59776 35.4585 14.0728C35.6899 17.6456 35.767 20.8072 35.7927 22.5551C35.7927 22.6836 35.8955 23.9432 34.7131 25.0741C33.4279 26.3079 26.899 32.5283 24.3029 35.0217C23.0691 36.1526 21.8096 35.9984 21.6811 35.9984Z" fill="#73BE28"/>
</g>
<defs>
<clipPath id="clip0_202_15377">
<rect width="36" height="37" fill="white"/>
</clipPath>
</defs>
</svg>
