<svg width="37" height="34" viewBox="0 0 37 34" fill="none" xmlns="http://www.w3.org/2000/svg">
<g clip-path="url(#clip0_202_12640)">
<path d="M0.0012207 33.702C0.0012207 32.824 0.0012207 31.9878 0.0012207 31.1933C0.0012207 31.0261 0.126657 30.9007 0.252093 30.7752C3.0953 27.7648 5.68763 24.5871 7.94547 21.1167C11.5831 15.5557 14.5099 9.70205 16.266 3.26302C16.5587 2.21773 16.7678 1.17243 17.0186 0.127136C17.8549 0.168948 17.8549 0.168948 17.8549 0.963373C17.8549 9.32574 17.8549 17.6463 17.8549 26.0087C17.8549 26.7195 17.8131 26.7613 17.1023 26.8449C14.2591 27.1376 11.4995 27.7648 8.78171 28.7264C6.52387 29.5627 4.39146 30.608 2.3845 31.946C2.25906 32.0296 2.13363 32.1132 2.05 32.2804C2.71899 31.9041 3.34617 31.5696 4.01516 31.1933C7.98728 29.1446 12.2521 27.932 16.6841 27.5139C17.1023 27.4721 17.5204 27.4303 17.8967 27.4303C18.3148 27.3885 18.5239 27.263 18.4821 26.8031C18.4402 24.4616 18.4821 22.0784 18.4821 19.7369C18.4821 19.3606 18.6075 19.1097 18.8584 18.817C22.3287 15.1376 24.9211 10.9146 26.8862 6.31529C26.928 6.23167 26.9699 6.10623 27.0117 6.02261C27.7643 6.14804 27.7643 6.14804 27.7643 6.85884C27.7643 14.1759 27.7643 21.493 27.7643 28.8101C27.7643 29.0191 27.7643 29.1864 27.7643 29.479C27.3044 29.5209 26.8026 29.6045 26.3845 29.5209C18.4402 28.0574 10.7051 28.6428 3.26254 31.9878C2.80261 32.1968 2.34268 32.4477 1.92457 32.7822C2.09181 32.7404 2.21725 32.6567 2.3845 32.6149C7.56916 30.4407 13.0047 29.2282 18.6493 29.2282C21.6179 29.2282 24.5866 29.5627 27.4716 30.3153C28.1824 30.4825 28.4751 30.3153 28.4751 29.5627C28.4751 25.9669 28.4751 22.371 28.4751 18.7752C28.4751 18.3989 28.5587 18.1899 28.8514 17.8972C31.1092 15.8066 33.3253 13.716 35.5831 11.5836C35.9176 11.6254 36.0012 11.9181 36.0012 12.378C36.0012 19.277 36.0012 26.1759 36.0012 33.0749C36.0012 33.7439 35.6249 34.0365 34.9559 33.7857C32.3636 32.9076 29.7294 32.1968 27.0117 31.8205C24.5866 31.486 22.1615 31.1933 19.6946 31.0679C14.0082 30.7752 8.36359 31.4442 2.88624 32.9494C2.13363 33.1585 1.38101 33.4094 0.628398 33.6602C0.419339 33.6184 0.252092 33.6602 0.0012207 33.702Z" fill="url(#paint0_linear_202_12640)"/>
</g>
<defs>
<linearGradient id="paint0_linear_202_12640" x1="0.0154367" y1="16.9354" x2="36.0308" y2="16.9354" gradientUnits="userSpaceOnUse">
<stop stop-color="#00DDFF"/>
<stop offset="1" stop-color="#005FED"/>
</linearGradient>
<clipPath id="clip0_202_12640">
<rect width="37" height="34" fill="white"/>
</clipPath>
</defs>
</svg>
