<svg width="37" height="36" viewBox="0 0 37 36" fill="none" xmlns="http://www.w3.org/2000/svg">
<g clip-path="url(#clip0_202_13466)">
<path d="M12.6012 30.9122C14.8503 30.8138 16.9729 30.3077 18.9268 29.4643C11.3782 27.3276 5.85382 20.3835 5.85382 12.1601C5.85382 9.86882 6.28959 7.67592 7.06272 5.66577C5.33371 6.21399 3.78744 7.11364 2.71911 8.49123C1.00415 11.2464 0.00610352 14.5076 0.00610352 17.9938C0.00610352 21.4658 0.990094 24.699 2.69099 27.4541C4.20915 29.5346 9.38213 31.0527 12.6012 30.9122Z" fill="url(#paint0_linear_202_13466)"/>
<path d="M29.568 19.3995C30.5942 17.2488 31.1705 14.8732 31.1705 12.357C31.1705 8.88491 29.6945 4.56941 27.4173 2.71388C24.6762 1.01298 21.443 0.0289917 17.971 0.0289917C11.5047 0.0289917 5.74137 3.44484 2.67694 8.5616C5.43211 6.8607 8.66523 5.86265 12.1373 5.86265C20.5293 5.86265 27.586 11.626 29.568 19.3995Z" fill="url(#paint1_linear_202_13466)"/>
<path d="M27.4174 2.69989C29.2448 5.32855 30.1586 8.646 30.1586 12.1181C30.1586 22.0564 22.1039 30.1251 12.1515 30.1251C8.67945 30.1251 5.43228 29.1552 2.69116 27.4402C5.83993 32.5851 11.533 35.9728 17.9992 35.9728C27.9375 35.9728 36.0063 27.9182 36.0063 17.9658C35.9922 11.4996 32.5342 5.59563 27.4174 2.69989Z" fill="url(#paint2_linear_202_13466)"/>
</g>
<defs>
<linearGradient id="paint0_linear_202_13466" x1="0.985343" y1="13.2633" x2="29.2018" y2="26.9269" gradientUnits="userSpaceOnUse">
<stop/>
<stop offset="1" stop-color="#E6E7E8"/>
</linearGradient>
<linearGradient id="paint1_linear_202_13466" x1="5.49472" y1="1.61829" x2="26.0489" y2="19.6797" gradientUnits="userSpaceOnUse">
<stop stop-color="#939598"/>
<stop offset="1"/>
</linearGradient>
<linearGradient id="paint2_linear_202_13466" x1="16.7287" y1="16.7953" x2="31.0662" y2="30.0843" gradientUnits="userSpaceOnUse">
<stop stop-color="#FEFAD8"/>
<stop offset="1" stop-color="#FCEE21"/>
</linearGradient>
<clipPath id="clip0_202_13466">
<rect width="37" height="36" fill="white"/>
</clipPath>
</defs>
</svg>
