<svg width="37" height="34" viewBox="0 0 37 34" fill="none" xmlns="http://www.w3.org/2000/svg">
<g clip-path="url(#clip0_202_14854)">
<path d="M35.3794 21.6551C34.6429 24.1622 33.2771 26.4099 31.2787 28.3952L31.1908 28.4831C28.6953 30.9625 25.7892 32.4491 22.4755 32.9493C21.6381 33.0755 20.776 33.1418 19.8862 33.1418C15.435 33.1418 11.6287 31.561 8.46317 28.3952C6.47756 26.4093 5.1213 24.1622 4.39042 21.6551H35.3794ZM36.0015 17.9064C35.9718 18.5037 35.9101 19.0873 35.8207 19.6597L35.7899 19.8501H3.98295C3.88771 19.2802 3.82024 18.6993 3.7839 18.105L3.77295 17.9064H36.0015ZM35.7892 14.1577C35.885 14.728 35.9528 15.3089 35.9895 15.903L36.0005 16.1015H3.77295C3.80232 15.5045 3.86347 14.9209 3.95232 14.3482L3.98295 14.1577H35.7892Z" fill="#2C2255"/>
<path d="M35.3801 12.3524C34.6442 9.83836 33.2781 7.58078 31.2786 5.581C28.7702 3.07254 25.843 1.56759 22.5012 1.06122C21.6559 0.932975 20.7852 0.865723 19.8862 0.865723C15.435 0.865723 11.6283 2.43792 8.46314 5.581C6.47688 7.58078 5.11995 9.83836 4.3894 12.3524" fill="#2C2255"/>
<path d="M2.81453 17.0044C2.81453 8.49096 9.20849 1.41723 17.5264 0.173051C17.32 0.165468 17.1127 0.157227 16.9043 0.157227C7.57002 0.157227 0.00244141 7.70008 0.00244141 17.0044C0.00244141 26.309 7.56969 33.8515 16.9043 33.8515C17.1133 33.8515 17.3207 33.8436 17.5277 33.836C9.20849 32.5918 2.81453 25.5181 2.81453 17.0044Z" fill="#F7941E"/>
<path d="M30.854 16.1011C30.8 15.4348 30.6879 14.785 30.5204 14.1573H9.25339C9.08592 14.7847 8.9735 15.4345 8.91943 16.1011H30.854Z" fill="url(#paint0_linear_202_14854)"/>
<path d="M30.854 17.9064H8.91968C8.97374 18.5726 9.0855 19.2224 9.2533 19.8501H30.5207C30.6881 19.2224 30.7999 18.5726 30.854 17.9064Z" fill="url(#paint1_linear_202_14854)"/>
<path d="M19.8867 28.0114C24.3033 28.0114 28.1104 25.4093 29.8635 21.655H9.90991C11.6631 25.4093 15.4701 28.0114 19.8867 28.0114Z" fill="url(#paint2_linear_202_14854)"/>
<path d="M35.7856 19.8498C35.6772 20.4643 35.5351 21.0669 35.359 21.6551H4.39014C4.21376 21.0666 4.0908 20.464 3.98266 19.8498H35.7856ZM35.9732 16.1011C35.991 16.412 36.0026 16.7242 36.0026 17.039C36.0026 17.3301 35.994 17.6192 35.9788 17.9064H3.76739C3.75222 17.6192 3.74365 17.3301 3.74365 17.039C3.74365 16.7242 3.75519 16.4116 3.77299 16.1011H35.9732ZM35.2535 12.3524C35.4326 12.9405 35.576 13.5435 35.6874 14.1577H3.98299C4.09409 13.5432 4.20981 12.9402 4.38915 12.3524H35.2535Z" fill="white"/>
</g>
<defs>
<linearGradient id="paint0_linear_202_14854" x1="19.8867" y1="35.3323" x2="19.8867" y2="11.0571" gradientUnits="userSpaceOnUse">
<stop offset="0.3033" stop-color="#473788"/>
<stop offset="0.872" stop-color="#2C2255"/>
</linearGradient>
<linearGradient id="paint1_linear_202_14854" x1="19.8866" y1="35.3327" x2="19.8866" y2="11.0574" gradientUnits="userSpaceOnUse">
<stop offset="0.3033" stop-color="#473788"/>
<stop offset="0.872" stop-color="#2C2255"/>
</linearGradient>
<linearGradient id="paint2_linear_202_14854" x1="19.8865" y1="35.332" x2="19.8865" y2="11.058" gradientUnits="userSpaceOnUse">
<stop offset="0.3033" stop-color="#473788"/>
<stop offset="0.8631" stop-color="#2C2255"/>
</linearGradient>
<clipPath id="clip0_202_14854">
<rect width="37" height="34" fill="white"/>
</clipPath>
</defs>
</svg>
