<svg width="40" height="40" viewBox="0 0 40 40" fill="none" xmlns="http://www.w3.org/2000/svg">
<g clip-path="url(#clip0_202_12603)">
<path d="M36.1019 29.7689C35.5687 30.0478 35.0187 30.2936 34.4552 30.5048C32.6616 31.1759 30.7616 31.5178 28.8465 31.5141C21.4536 31.5141 15.0137 26.4287 15.0137 19.9029C15.0232 19.0276 15.266 18.1707 15.7173 17.4207C16.1685 16.6706 16.8118 16.0546 17.5806 15.6362C10.8938 15.9174 9.17529 22.8854 9.17529 26.9677C9.17529 38.5101 19.8132 39.6803 22.1051 39.6803C23.3409 39.6803 25.2047 39.321 26.3234 38.9679L26.528 38.8992C30.8326 37.411 34.5023 34.5017 36.9331 30.6501C37.0075 30.5328 37.0408 30.394 37.0276 30.2557C37.0143 30.1174 36.9554 29.9875 36.8601 29.8864C36.7647 29.7853 36.6384 29.7189 36.5011 29.6976C36.3639 29.6764 36.2234 29.7015 36.1019 29.7689Z" fill="url(#paint0_linear_202_12603)"/>
<path opacity="0.35" d="M36.1019 29.7689C35.5687 30.0478 35.0187 30.2936 34.4552 30.5048C32.6616 31.1759 30.7616 31.5178 28.8465 31.5141C21.4536 31.5141 15.0137 26.4287 15.0137 19.9029C15.0232 19.0276 15.266 18.1707 15.7173 17.4207C16.1685 16.6706 16.8118 16.0546 17.5806 15.6362C10.8938 15.9174 9.17529 22.8854 9.17529 26.9677C9.17529 38.5101 19.8132 39.6803 22.1051 39.6803C23.3409 39.6803 25.2047 39.321 26.3234 38.9679L26.528 38.8992C30.8326 37.411 34.5023 34.5017 36.9331 30.6501C37.0075 30.5328 37.0408 30.394 37.0276 30.2557C37.0143 30.1174 36.9554 29.9875 36.8601 29.8864C36.7647 29.7853 36.6384 29.7189 36.5011 29.6976C36.3639 29.6764 36.2234 29.7015 36.1019 29.7689Z" fill="url(#paint1_radial_202_12603)"/>
<path d="M16.5201 37.718C15.1266 36.8531 13.919 35.7198 12.9674 34.384C11.8828 32.8981 11.1365 31.1928 10.7807 29.3879C10.425 27.583 10.4684 25.722 10.908 23.9357C11.3476 22.1493 12.1727 20.4807 13.3255 19.047C14.4782 17.6133 15.9307 16.4491 17.581 15.6362C18.0684 15.4065 18.9011 14.9909 20.0088 15.0112C20.7892 15.0169 21.5577 15.2032 22.254 15.5556C22.9504 15.908 23.5556 16.4168 24.0224 17.0423C24.6533 17.8846 25.0012 18.9052 25.0161 19.9575C25.0161 19.9247 28.8375 7.52145 12.5175 7.52145C5.65887 7.52145 0.018882 14.0301 0.018882 19.7404C-0.00817135 22.7611 0.638145 25.7498 1.91086 28.4894C3.99082 32.9273 7.62811 36.4468 12.132 38.3797C16.636 40.3125 21.6929 40.5241 26.3425 38.9742C24.7145 39.4875 22.9945 39.6415 21.3012 39.4258C19.6078 39.21 17.9815 38.6295 16.5342 37.7243L16.5201 37.718Z" fill="url(#paint2_linear_202_12603)"/>
<path opacity="0.41" d="M16.5201 37.718C15.1266 36.8531 13.919 35.7198 12.9674 34.384C11.8828 32.8981 11.1365 31.1928 10.7807 29.3879C10.425 27.583 10.4684 25.722 10.908 23.9357C11.3476 22.1493 12.1727 20.4807 13.3255 19.047C14.4782 17.6133 15.9307 16.4491 17.581 15.6362C18.0684 15.4065 18.9011 14.9909 20.0088 15.0112C20.7892 15.0169 21.5577 15.2032 22.254 15.5556C22.9504 15.908 23.5556 16.4168 24.0224 17.0423C24.6533 17.8846 25.0012 18.9052 25.0161 19.9575C25.0161 19.9247 28.8375 7.52145 12.5175 7.52145C5.65887 7.52145 0.018882 14.0301 0.018882 19.7404C-0.00817135 22.7611 0.638145 25.7498 1.91086 28.4894C3.99082 32.9273 7.62811 36.4468 12.132 38.3797C16.636 40.3125 21.6929 40.5241 26.3425 38.9742C24.7145 39.4875 22.9945 39.6415 21.3012 39.4258C19.6078 39.21 17.9815 38.6295 16.5342 37.7243L16.5201 37.718Z" fill="url(#paint3_radial_202_12603)"/>
<path d="M23.8003 23.2572C23.6738 23.4212 23.2848 23.6478 23.2848 24.1415C23.2848 24.5492 23.5504 24.9414 24.0222 25.271C26.2688 26.8333 30.5043 26.6271 30.5152 26.6271C32.1799 26.6231 33.813 26.1726 35.2444 25.3226C36.6883 24.4795 37.8866 23.2735 38.7206 21.8243C39.5545 20.3751 39.9951 18.733 39.9985 17.061C40.0391 13.5598 38.7486 11.232 38.2268 10.2008C34.9163 3.72501 27.7702 0.000427344 19.9992 0.000427344C14.7438 -9.23158e-05 9.6995 2.06816 5.95717 5.75786C2.21485 9.44755 0.0753684 14.4621 0.00146484 19.7169C0.0764564 14.0082 5.75082 9.3978 12.5001 9.3978C13.0469 9.3978 16.1653 9.45092 19.0618 10.9711C21.6146 12.3115 22.952 13.9301 23.8816 15.5346C24.8471 17.2016 25.019 19.3076 25.019 20.1466C25.019 20.9856 24.5909 22.2292 23.8003 23.2572Z" fill="url(#paint4_radial_202_12603)"/>
<path d="M23.8003 23.2572C23.6738 23.4212 23.2848 23.6478 23.2848 24.1415C23.2848 24.5492 23.5504 24.9414 24.0222 25.271C26.2688 26.8333 30.5043 26.6271 30.5152 26.6271C32.1799 26.6231 33.813 26.1726 35.2444 25.3226C36.6883 24.4795 37.8866 23.2735 38.7206 21.8243C39.5545 20.3751 39.9951 18.733 39.9985 17.061C40.0391 13.5598 38.7486 11.232 38.2268 10.2008C34.9163 3.72501 27.7702 0.000427344 19.9992 0.000427344C14.7438 -9.23158e-05 9.6995 2.06816 5.95717 5.75786C2.21485 9.44755 0.0753684 14.4621 0.00146484 19.7169C0.0764564 14.0082 5.75082 9.3978 12.5001 9.3978C13.0469 9.3978 16.1653 9.45092 19.0618 10.9711C21.6146 12.3115 22.952 13.9301 23.8816 15.5346C24.8471 17.2016 25.019 19.3076 25.019 20.1466C25.019 20.9856 24.5909 22.2292 23.8003 23.2572Z" fill="url(#paint5_radial_202_12603)"/>
</g>
<defs>
<linearGradient id="paint0_linear_202_12603" x1="9.17529" y1="27.6614" x2="37.0378" y2="27.6614" gradientUnits="userSpaceOnUse">
<stop stop-color="#0C59A4"/>
<stop offset="1" stop-color="#114A8B"/>
</linearGradient>
<radialGradient id="paint1_radial_202_12603" cx="0" cy="0" r="1" gradientUnits="userSpaceOnUse" gradientTransform="translate(24.5642 27.881) scale(14.9014 14.1564)">
<stop offset="0.72" stop-opacity="0"/>
<stop offset="0.95" stop-opacity="0.53"/>
<stop offset="1"/>
</radialGradient>
<linearGradient id="paint2_linear_202_12603" x1="23.8646" y1="15.5752" x2="6.46191" y2="34.5309" gradientUnits="userSpaceOnUse">
<stop stop-color="#1B9DE2"/>
<stop offset="0.16" stop-color="#1595DF"/>
<stop offset="0.67" stop-color="#0680D7"/>
<stop offset="1" stop-color="#0078D4"/>
</linearGradient>
<radialGradient id="paint3_radial_202_12603" cx="0" cy="0" r="1" gradientTransform="matrix(3.35681 -22.1549 -17.903 -2.68545 11.0308 31.092)" gradientUnits="userSpaceOnUse">
<stop offset="0.76" stop-opacity="0"/>
<stop offset="0.95" stop-opacity="0.5"/>
<stop offset="1"/>
</radialGradient>
<radialGradient id="paint4_radial_202_12603" cx="0" cy="0" r="1" gradientTransform="matrix(-1.26504 31.6261 67.3636 2.53009 4.04202 7.40222)" gradientUnits="userSpaceOnUse">
<stop stop-color="#35C1F1"/>
<stop offset="0.11" stop-color="#34C1ED"/>
<stop offset="0.23" stop-color="#2FC2DF"/>
<stop offset="0.31" stop-color="#2BC3D2"/>
<stop offset="0.67" stop-color="#36C752"/>
</radialGradient>
<radialGradient id="paint5_radial_202_12603" cx="0" cy="0" r="1" gradientTransform="matrix(4.25814 14.5994 11.862 -3.49776 37.5085 12.0938)" gradientUnits="userSpaceOnUse">
<stop stop-color="#66EB6E"/>
<stop offset="1" stop-color="#66EB6E" stop-opacity="0"/>
</radialGradient>
<clipPath id="clip0_202_12603">
<rect width="40" height="40.0004" fill="white"/>
</clipPath>
</defs>
</svg>
