<svg width="38" height="40" viewBox="0 0 38 40" fill="none" xmlns="http://www.w3.org/2000/svg">
<path d="M12.2411 16.1185H26.4046C26.4046 11.0901 24.2104 7.66192 18.2279 7.66192C11.158 7.66188 3.96829 12.2644 0.550293 18.0032C1.60901 8.04235 8.75105 0.000427246 19.5035 0.000427246C28.7197 0.000427246 37.4515 7.0469 37.4515 18.7604V23.2137H12.3166C12.3166 29.2751 17.6042 31.6766 23.142 31.6766C29.8813 31.6766 34.0549 28.6483 34.0549 28.6483V37.1386C34.0549 37.1386 29.3435 40.0004 21.8338 40.0004C12.0749 40.0004 5.18625 33.0066 5.18625 24.3095C5.18625 17.483 9.3155 12.0327 15.035 9.78376C12.2509 12.8414 12.2411 16.1185 12.2411 16.1185H12.2411Z" fill="#137AD4"/>
</svg>
