<svg width="37" height="36" viewBox="0 0 37 36" fill="none" xmlns="http://www.w3.org/2000/svg">
<g clip-path="url(#clip0_202_13894)">
<path d="M8.62964 21.0281C9.38975 20.6914 10.0177 19.8498 9.63762 19.255C8.59659 19.558 8.64616 20.2538 8.62964 21.0281Z" fill="#E3E3F8"/>
<path d="M16.6194 22.958C17.3316 22.7784 18.0153 22.15 17.6307 21.4991C17.0752 21.8021 16.7191 22.2173 16.6194 22.958Z" fill="#E3E3F8"/>
<path d="M0.920081 32.25C0.920081 32.957 1.09963 33.7201 1.5934 33.9894C3.41135 35.0106 9.78539 34.2139 11.9512 33.7313C13.0846 33.4732 14.0048 32.6316 15.0709 32.1715C17.4724 31.1279 19.2118 30.2862 21.1307 28.8835C22.5223 27.8623 24.733 24.9895 24.9686 23.2725L23.0721 22.8461C23.0272 24.7763 22.5896 25.2139 20.8726 25.6628C19.7168 25.977 17.4612 26.0443 16.2829 25.8423C14.723 25.5842 14.016 24.765 13.3091 23.8336C11.94 22.0157 13.6121 20.7476 11.4462 20.6241C9.16818 23.4184 5.15074 21.4097 3.3889 21.1291C2.63703 22.2177 0.875194 29.2875 0.897425 30.9034C1.98616 30.5331 2.6707 30.9371 3.64701 31.3186C7.10335 32.654 4.08466 33.8323 2.70437 33.4845C1.76172 33.26 1.46995 32.6428 0.920081 32.25Z" fill="#FDFDFD"/>
<path d="M5.44263 16.124C6.84537 16.3934 8.091 16.9769 9.28052 17.5717C11.2219 18.5368 11.5698 18.4021 11.7493 19.7487C11.7718 19.9956 11.7269 20.1303 12.4339 20.3547C13.6234 20.725 11.7493 20.0629 14.9364 20.0742C16.8329 20.0854 21.1757 20.8485 22.5785 21.735C23.162 22.1053 23.0498 22.5766 25.0249 22.5205C25.0024 20.1976 24.3852 16.73 23.4762 14.5979C22.3653 12.0168 20.8952 11.6241 17.8989 10.659C16.1483 10.0979 11.0087 9.48067 9.41518 10.4682C7.92267 11.3996 7.64212 12.5106 6.2506 14.4632C5.84662 15.0355 5.70073 15.4732 5.44263 16.124Z" fill="#FDFDFD"/>
<path d="M17.7981 20.893C18.9203 21.3531 17.742 24.327 16.1822 23.6088C15.6772 22.1836 16.8779 21.3756 17.2034 20.7359C16.53 20.6349 14.6111 20.332 14.0388 20.5452C13.2981 20.8257 13.1298 22.408 13.5114 23.1487C15.3069 26.6723 23.2407 25.9205 22.3991 23.1823C22.0624 22.0713 21.7482 21.8918 20.6148 21.5103C19.7058 21.2073 18.7969 20.893 17.7981 20.893Z" fill="#FDFDFD"/>
<path d="M3.69214 20.5001C4.58989 21.3642 6.62106 21.4989 7.93402 21.5662C8.10235 19.8268 8.24823 18.5251 9.63975 18.6261C10.3243 19.5575 9.96519 20.6572 9.24698 21.3642C10.4702 21.353 11.1772 20.4328 10.9976 19.0974C9.96519 18.3567 6.83427 16.8754 5.26321 16.6622C4.82555 17.1336 3.74825 19.7146 3.69214 20.5001Z" fill="#FDFDFD"/>
<path d="M1.58231 31.6103C2.32296 31.543 4.25313 32.1041 4.41023 32.7325C3.20949 32.8784 1.68331 32.7662 1.58231 31.6103ZM0.920221 32.25C1.47009 32.6427 1.76186 33.2599 2.7045 33.4844C4.0848 33.8323 7.10349 32.654 3.64714 31.3186C2.67084 30.937 1.9863 30.533 0.897564 30.9033C0.875333 29.2874 2.63717 22.2176 3.38904 21.1291C5.15088 21.4096 9.16832 23.4183 11.4464 20.6241C13.6122 20.7475 11.9401 22.0156 13.3092 23.8335C14.0162 24.765 14.7232 25.5842 16.283 25.8423C17.4613 26.0443 19.7169 25.9769 20.8728 25.6627C22.5897 25.2138 23.0274 24.7762 23.0723 22.846L24.9688 23.2724C24.7331 24.9894 22.5224 27.8622 21.1309 28.8834C19.2119 30.2861 17.4725 31.1278 15.071 32.1714C14.005 32.6315 13.0848 33.4732 11.9514 33.7313C9.78553 34.2138 3.41148 35.0106 1.59354 33.9894C1.09977 33.72 0.920221 32.957 0.920221 32.25ZM16.6197 22.9582C16.7194 22.2176 17.0755 21.8024 17.631 21.4994C18.0156 22.1503 17.3319 22.7787 16.6197 22.9582ZM17.798 20.8934C18.7967 20.8934 19.7057 21.2076 20.6147 21.5106C21.7481 21.8922 22.0623 22.0717 22.399 23.1827C23.2406 25.9208 15.3067 26.6727 13.5112 23.149C13.1297 22.4084 13.298 20.8261 14.0386 20.5455C14.6109 20.3323 16.5299 20.6353 17.2032 20.7363C16.8778 21.3759 15.677 22.1839 16.182 23.6091C17.7419 24.3273 18.9202 21.3535 17.798 20.8934ZM8.62967 21.0281C8.6462 20.2538 8.59662 19.558 9.63765 19.255C10.0177 19.8498 9.38979 20.6914 8.62967 21.0281ZM3.69203 20.5006C3.74814 19.7151 4.82545 17.1341 5.2631 16.6627C6.83417 16.876 9.96508 18.3572 10.9975 19.0979C11.177 20.4333 10.4701 21.3535 9.24688 21.3647C9.96508 20.6577 10.3242 19.558 9.63964 18.6266C8.24813 18.5256 8.10224 19.8273 7.93391 21.5667C6.62095 21.4994 4.58978 21.3647 3.69203 20.5006ZM2.56984 19.6029C2.15463 18.4582 2.15463 16.674 3.91647 16.5281L3.01872 19.0306C2.78306 19.5692 2.78306 19.4458 2.56984 19.6029ZM5.44265 16.1241C5.70075 15.4732 5.84664 15.0356 6.25063 14.4632C7.64214 12.5106 7.92269 11.3997 9.41521 10.4682C11.0087 9.48072 16.1484 10.0979 17.899 10.659C20.8952 11.6241 22.3653 12.0169 23.4763 14.5979C24.3852 16.7301 25.0024 20.1976 25.0249 22.5206C23.0498 22.5767 23.162 22.1054 22.5785 21.735C21.1758 20.8485 16.8329 20.0854 14.9364 20.0742C11.7494 20.063 13.6234 20.7251 12.4339 20.3547C11.7269 20.1303 11.7718 19.9956 11.7494 19.7488C11.5698 18.4021 11.2219 18.5368 9.28054 17.5717C8.09102 16.977 6.84539 16.3934 5.44265 16.1241ZM25.3054 15.5742C25.0922 14.8672 25.485 14.9121 26.1695 14.4296C26.5623 14.149 26.8765 13.8573 27.359 13.5879C29.1658 12.578 32.5323 12.4096 33.9687 13.6104C34.5523 14.0929 35.5061 15.0356 35.3603 16.27C35.0573 18.7276 33.374 20.0742 31.9937 21.1964C30.5909 22.341 28.2568 23.5193 25.8441 22.7338C25.6421 22.24 25.7992 19.1091 25.5635 17.9533C25.3503 16.9208 25.4625 16.8086 26.0573 16.1914C27.8079 14.3735 31.6009 13.0493 33.7555 14.6091C34.6645 15.2824 34.4064 15.5406 34.8777 16.0568C35.4613 15.4283 34.3727 13.3186 30.3553 13.4533C27.6284 13.5431 26.4501 15.6752 25.3054 15.5742ZM8.96633 9.18895C9.02244 7.6291 10.4588 4.39719 11.8952 3.275C13.6346 1.92837 15.4526 0.660298 18.1234 2.17526C18.7855 2.54558 18.7518 2.73635 18.8192 3.65655C18.8753 4.54308 18.7967 4.86851 18.5723 5.58672C16.7992 11.3099 15.3179 8.02187 9.63964 9.37972C9.85286 7.51689 11.4688 5.85604 12.3666 4.99196C13.904 3.49944 15.0149 2.53436 17.3267 2.84857C17.9663 3.91465 18.0336 4.58797 17.2593 5.8336C16.2269 7.49444 15.9688 7.39344 16.1259 8.52686C16.9339 8.32486 17.1808 7.53933 17.5511 6.7538C19.8067 2.04059 16.5299 1.46828 14.5212 2.33236C13.1745 2.90468 10.7731 5.55305 9.98752 7.14656C9.83042 7.46078 9.66209 7.86476 9.5162 8.21264L8.96633 9.18895ZM17.8541 9.42461C18.0897 8.02187 19.4813 7.67399 19.4813 3.35356C19.4813 1.49072 17.192 -0.181345 14.1957 1.06429C11.6259 2.11915 11.2332 2.92712 9.86408 4.99196C8.57356 6.94457 8.61845 9.08795 7.50748 10.8947C7.18205 11.4109 6.89028 11.5904 6.53117 12.1066C6.27307 12.4882 6.0823 12.9707 5.82419 13.4196C5.29677 14.2837 4.75811 14.9121 4.33168 15.9445C2.98505 15.9782 1.85164 16.0006 1.71698 17.3922C1.53743 19.2999 2.43518 19.7712 2.43518 20.4894C2.42396 21.2637 -0.718178 29.0742 0.157131 33.7313C0.404013 35.0106 1.24566 35.0218 2.59228 35.1789C5.83542 35.5717 10.0436 35.437 12.9501 34.2699L18.2244 31.745C19.5598 30.9931 21.8042 29.5679 22.8029 28.5243C23.5099 27.7949 23.8802 27.1777 24.4862 26.3136C25.3167 25.1016 25.3391 25.1241 25.5186 23.4744C26.6184 23.6764 28.672 24.159 29.3565 24.7537C29.278 25.5281 28.8964 25.1577 28.8964 25.8535C29.3341 25.8647 30.0635 25.3148 30.2431 24.7089C29.783 24.0355 29.3004 24.1478 28.6383 23.6091C29.1658 23.1939 30.1196 23.0031 30.8491 22.7001C32.4201 22.0493 35.1022 20.0742 35.7642 18.2787C36.2917 16.8311 35.8989 14.4184 35.046 13.4757C34.1483 12.4882 32.061 11.9832 30.3553 11.9832C28.3241 11.9832 26.2256 13.4421 24.5872 14.0705C23.9588 13.5206 23.9139 12.8922 23.4538 12.2862C22.9264 11.568 19.4925 9.77249 17.8541 9.42461Z" fill="#020202"/>
<path d="M25.3054 15.5746C26.4501 15.6756 27.6284 13.5435 30.3553 13.4537C34.3727 13.319 35.4612 15.4287 34.8777 16.0572C34.4064 15.541 34.6645 15.2829 33.7555 14.6095C31.6009 13.0497 27.8079 14.3739 26.0573 16.1918C25.4625 16.809 25.3503 16.9213 25.5635 17.9537C25.7992 19.1095 25.6421 22.2404 25.8441 22.7342C28.2568 23.5197 30.5909 22.3414 31.9937 21.1968C33.374 20.0746 35.0573 18.728 35.3602 16.2704C35.5061 15.036 34.5523 14.0933 33.9687 13.6108C32.5323 12.41 29.1658 12.5784 27.359 13.5883C26.8765 13.8577 26.5623 14.1494 26.1695 14.43C25.485 14.9125 25.0922 14.8676 25.3054 15.5746Z" fill="#FDF2F2"/>
<path d="M8.96655 9.1892L9.51643 8.21289C9.66231 7.86501 9.83064 7.46102 9.98775 7.14681C10.7733 5.5533 13.1748 2.90493 14.5214 2.33261C16.5301 1.46852 19.8069 2.04084 17.5513 6.75404C17.181 7.53958 16.9341 8.32511 16.1261 8.5271C15.969 7.39369 16.2271 7.49469 17.2595 5.83385C18.0339 4.58821 17.9665 3.9149 17.3269 2.84882C15.0152 2.53461 13.9042 3.49969 12.3668 4.9922C11.469 5.85629 9.85308 7.51713 9.63987 9.37997C15.3182 8.02212 16.7994 11.3101 18.5725 5.58696C18.7969 4.86876 18.8755 4.54333 18.8194 3.6568C18.7521 2.7366 18.7857 2.54583 18.1236 2.1755C15.4528 0.660546 13.6349 1.92862 11.8955 3.27525C10.4591 4.39744 9.02266 7.62935 8.96655 9.1892Z" fill="#FEF3F3"/>
<path d="M2.57006 19.6032C2.78328 19.4461 2.78328 19.5696 3.01894 19.0309L3.91669 16.5284C2.15485 16.6743 2.15485 18.4586 2.57006 19.6032Z" fill="#EFEFEF"/>
<path d="M4.4102 32.7323C4.25309 32.1039 2.32292 31.5428 1.58228 31.6101C1.68327 32.766 3.20945 32.8782 4.4102 32.7323Z" fill="#FAF1F1"/>
</g>
<defs>
<clipPath id="clip0_202_13894">
<rect width="37" height="36" fill="white"/>
</clipPath>
</defs>
</svg>
