<svg width="36" height="37" viewBox="0 0 36 37" fill="none" xmlns="http://www.w3.org/2000/svg">
<g clip-path="url(#clip0_202_12421)">
<path d="M18.0022 36.0044C16.0266 36.0044 14.1607 35.5667 12.4046 34.9102C10.6485 34.1442 9.11192 33.1594 7.9046 31.7369C6.58752 30.4238 5.59971 28.8919 4.94118 27.1412C4.72166 26.4846 4.50215 25.8281 4.28264 25.0621H4.17288L4.06312 23.9679C2.74605 23.4208 1.75824 22.1077 1.42897 20.9041C0.989944 19.3722 0.550919 17.0743 0.441162 14.9953C0.441162 13.3539 1.31921 11.822 2.8558 11.1655C3.84361 10.7278 5.27044 10.2901 6.91679 10.0713C8.01436 7.77339 9.22168 5.69436 10.5388 4.16245C12.8436 1.42689 15.368 0.00439453 18.0022 0.00439453C20.6363 0.00439453 23.1607 1.42689 25.4656 4.16245C26.7827 5.69436 27.99 7.66397 28.9778 10.0713C30.6242 10.3995 32.051 10.7278 33.1486 11.1655C34.6852 11.822 35.5632 13.3539 35.5632 14.9953C35.4535 17.4026 34.9047 20.0287 34.5754 21.0135C34.2461 22.3266 33.2583 23.6397 31.9413 24.0773L31.8315 25.1716H31.7217C31.612 25.8281 31.3925 26.5941 31.0632 27.2506C30.4047 29.0014 29.4169 30.5333 28.0998 31.8463C26.7827 33.1594 25.2461 34.2536 23.5998 35.0196C21.8437 35.6761 19.9778 36.0044 18.0022 36.0044Z" fill="white"/>
<path d="M17.8538 2.64502C24.0909 2.64502 29.1243 15.9946 29.1243 22.2316C29.1243 28.4687 24.0909 33.5022 17.8538 33.5022C11.6167 33.5022 6.58325 28.4687 6.58325 22.2316C6.58325 15.9946 11.6167 2.64502 17.8538 2.64502Z" fill="#FCFBFA"/>
<path d="M32.1883 13.3687L27.5925 15.01C27.5925 15.01 28.2491 17.1984 28.3585 17.1984L32.9542 16.6513L32.1883 13.3687Z" fill="#252526"/>
<path d="M3.62899 13.3687L8.22474 15.01C8.22474 15.01 7.5682 17.1984 7.45878 17.1984L2.86304 16.6513L3.62899 13.3687Z" fill="#252526"/>
<path d="M13.149 13.0405C14.3526 13.0405 14.5715 14.0253 14.5715 14.2442C14.6809 14.9007 14.7903 15.7761 14.8997 16.6515C14.8997 16.8703 14.8997 17.0892 14.7903 17.308C14.6809 16.7609 14.6809 16.2138 14.5715 15.6667C14.5715 15.4478 14.2432 14.463 13.149 14.463C12.4924 14.463 10.1946 14.5725 8.0061 14.9007C8.11553 14.3536 8.33437 13.9159 8.55322 13.3688C10.5228 13.0405 12.4924 12.9311 13.149 13.0405Z" fill="#E0E0E0"/>
<path d="M29.1244 21.685C25.0757 21.4662 21.5742 20.1531 20.8083 19.7154C20.1517 19.3871 19.3858 18.84 19.1669 17.3081C19.0575 19.0589 19.3858 20.5908 20.9177 21.3567C21.0271 21.4662 24.0909 22.8887 29.015 23.2169V22.2321C29.1244 22.0133 29.1244 21.7944 29.1244 21.685Z" fill="#E0E0E0"/>
<path d="M6.69263 21.685C10.7413 21.4662 14.2428 20.1531 15.0087 19.7154C15.6653 19.3871 16.4312 18.84 16.6501 17.3081C16.7595 19.0589 16.4312 20.5908 14.8993 21.3567C14.7899 21.4662 11.7261 22.8887 6.80205 23.2169V22.2321C6.69263 22.0133 6.69263 21.7944 6.69263 21.685Z" fill="#E0E0E0"/>
<path d="M22.5591 13.0405C21.3555 13.0405 21.1366 14.0253 21.1366 14.2442C21.0272 14.9007 20.9178 15.7761 20.8083 16.6515C20.8083 16.8703 20.8084 17.0892 20.9178 17.308C21.0272 16.7609 21.0272 16.2138 21.1366 15.6667C21.1366 15.4478 21.4649 14.463 22.5591 14.463C23.2156 14.463 25.5135 14.5725 27.702 14.9007C27.5925 14.3536 27.3737 13.9159 27.1549 13.3688C25.1853 13.0405 23.2156 12.9311 22.5591 13.0405Z" fill="#E0E0E0"/>
<path d="M8.0061 11.7276C9.10033 9.10142 10.4134 6.69413 11.8359 5.05279C13.6961 2.75492 15.7751 1.55127 17.8541 1.55127C19.9332 1.55127 21.9028 2.75492 23.8724 5.05279C25.2949 6.80355 26.6079 9.10142 27.7022 11.7276V11.837H27.5927C27.155 11.837 26.9362 11.7276 26.4985 11.7276C25.2949 8.77315 23.1064 5.05279 20.3708 3.41145C19.4955 2.97376 18.7295 2.64549 17.8541 2.64549C16.9787 2.64549 16.2128 2.86434 15.3374 3.41145C12.6018 4.94337 10.5228 8.77315 9.20975 11.7276C8.77206 11.7276 8.55322 11.837 8.11553 11.837H8.0061V11.7276Z" fill="#56555C"/>
<path d="M29.2339 20.2625H28.3585H28.2491V20.153C28.0303 17.9646 27.3737 15.5573 26.4983 13.15L26.3889 12.9312H26.6078C26.936 12.9312 27.2643 13.0406 27.5926 13.0406H27.702V13.15C28.4679 15.5573 29.1245 18.074 29.3433 20.153V20.2625H29.2339Z" fill="#56555C"/>
<path d="M28.2491 14.9007C28.0303 14.3536 27.9208 13.8065 27.702 13.2594V13.15H27.5926C27.2643 13.0405 26.936 13.0405 26.6078 13.0405H26.3889L26.4983 13.2594C26.7172 13.8065 26.8266 14.3536 27.0455 14.9007C27.5926 14.7913 27.9208 14.7913 28.2491 14.9007Z" fill="#252526"/>
<path d="M6.47388 20.0437C6.69272 17.9646 7.34926 15.4479 8.11521 13.0406V12.9312H8.22464C8.5529 12.9312 8.88117 12.8218 9.20944 12.8218H9.42828L9.31886 13.0406C8.44348 15.4479 7.89637 17.9646 7.5681 20.0437V20.1531H7.45868H6.5833H6.47388V20.0437Z" fill="#56555C"/>
<path d="M8.22465 13.0406C7.89638 13.6972 7.78696 14.2443 7.56812 14.7914C8.11523 14.682 8.33407 14.682 8.77176 14.682C8.99061 14.1348 9.10003 13.5877 9.31887 13.0406L9.4283 12.8218H9.20945C8.88119 12.9312 8.55292 13.0406 8.22465 13.0406Z" fill="#252526"/>
<path d="M17.8537 34.4866C16.2124 34.4866 14.571 34.1583 13.0391 33.5018C11.5072 32.8452 10.1941 31.9698 9.09991 30.7662C8.00568 29.5625 7.1303 28.2495 6.47377 26.7176C5.81723 25.1856 5.59839 23.4349 5.59839 21.6841V21.5747H5.70781H6.69261H6.80204V21.6841C6.69261 23.3255 7.02088 24.748 7.56799 26.2799C8.11511 27.7024 8.88106 28.906 9.86587 30.0002C10.8507 31.0945 12.1637 31.9698 13.4768 32.517C14.8993 33.1735 16.3218 33.3923 17.8537 33.3923C19.3856 33.3923 20.9175 33.0641 22.2306 32.517C23.5437 31.9698 24.8567 31.0945 25.8415 30.0002C26.8264 28.906 27.7017 27.7024 28.1394 26.2799C28.6865 24.8574 28.9054 23.3255 28.9054 21.6841V21.5747H29.0148H29.9996H30.109V21.6841C30.2184 23.4349 29.8902 25.0762 29.2336 26.7176C28.6865 28.2495 27.8112 29.5625 26.6075 30.7662C25.5133 31.9698 24.0908 32.8452 22.6683 33.5018C21.2458 34.0489 19.6045 34.4866 17.8537 34.4866Z" fill="#56555C"/>
<path d="M6.80204 23.1066V21.6841V21.5747H6.69261H5.70781H5.59839V21.6841V23.1066H6.80204Z" fill="#252526"/>
<path d="M30.1091 21.5747H29.1243H29.0149V21.6841V23.1066H30.1091V21.5747Z" fill="#252526"/>
<path d="M30.7657 22.5601C28.2489 22.5601 25.9511 21.9035 23.7626 21.3564C22.6684 21.0282 21.6836 20.481 20.9176 20.1528V20.0434C19.0575 19.168 18.948 17.1984 19.0575 15.557C19.0575 15.1193 18.948 14.5722 18.5103 14.244C18.2915 14.1345 18.0727 14.0251 17.8538 14.0251C17.635 14.0251 17.3067 14.1345 17.1973 14.244C16.7596 14.5722 16.6502 15.1193 16.6502 15.557C16.869 17.1984 16.7596 19.0585 14.79 19.9339C14.024 20.2622 13.0392 21.0282 11.945 21.3564C9.75655 21.9035 7.45867 22.5601 4.94196 22.5601C3.95715 22.5601 3.08177 21.5753 2.86293 20.5905C2.53466 19.168 1.98755 16.8701 1.98755 14.9005C1.98755 14.1345 2.42524 13.2592 3.1912 12.9309C5.81734 11.7272 11.179 11.2896 13.4769 11.2896C14.3523 11.2896 15.0088 11.6178 15.5559 12.1649C16.3219 11.8367 17.0879 11.6178 17.8538 11.6178C18.6198 11.6178 19.3857 11.8367 20.1517 12.1649C20.5894 11.7272 21.2459 11.2896 22.2307 11.2896C23.5438 11.2896 29.4526 11.5084 32.5164 12.8215C33.2824 13.1497 33.7201 13.9157 33.7201 14.6816C33.6106 16.6513 33.173 19.168 32.8447 20.5905C32.6258 21.5753 31.7505 22.5601 30.7657 22.5601ZM22.559 13.0403C21.4648 13.0403 21.2459 14.0251 21.1365 14.1345C21.0271 14.6816 20.9176 15.557 20.8082 16.5418C20.8082 17.4172 21.1365 18.0737 21.793 18.402C24.2003 19.4962 27.0453 20.0434 30.328 20.0434C30.5468 20.0434 30.7657 19.8245 30.8751 19.6057C31.2034 18.402 31.641 16.5418 31.641 14.7911C31.641 14.6816 31.5316 14.4628 31.4222 14.4628C29.3432 13.3686 24.4192 13.0403 22.559 13.0403ZM4.176 14.4628C4.06658 14.5722 3.95715 14.6816 3.95715 14.7911C3.95715 16.5418 4.39484 18.402 4.72311 19.6057C4.83253 19.8245 5.05138 20.0434 5.27022 20.0434C8.66232 20.0434 11.3979 19.4962 13.8052 18.402C14.4617 18.0737 14.79 17.4172 14.79 16.5418C14.79 15.7759 14.6806 15.0099 14.4617 14.1345C14.4617 13.9157 14.2429 13.0403 13.0392 13.0403C12.1638 13.0403 6.80214 13.2592 4.176 14.4628Z" fill="#252526"/>
</g>
<defs>
<clipPath id="clip0_202_12421">
<rect width="36" height="37" fill="white"/>
</clipPath>
</defs>
</svg>
