<svg width="34" height="36" viewBox="0 0 34 36" fill="none" xmlns="http://www.w3.org/2000/svg">
<g clip-path="url(#clip0_202_13396)">
<path d="M2.64844 10.1259H26.5432C29.1764 10.1259 31.5278 8.91846 33.1055 7.03347C29.8144 2.75844 24.6491 0.000915527 18.837 0.000915527C11.7203 0.000915527 5.56976 4.13197 2.64844 10.1259Z" fill="#F0BF1A"/>
<path d="M24.5181 12.9384H1.56371C1.09366 14.5449 0.836914 16.2425 0.836914 18.0009C0.836914 19.7593 1.09366 21.457 1.56371 23.0634H24.5181C27.2743 23.0634 29.5806 20.8134 29.5806 18.0009C29.5806 15.1884 27.3307 12.9384 24.5181 12.9384Z" fill="#07A5DE"/>
<path d="M33.1669 28.8902C31.5991 27.0475 29.2667 25.8759 26.6555 25.8759H2.64844C5.56976 31.87 11.7203 36.0009 18.8368 36.0009C24.6848 36.0009 29.8791 33.2103 33.1669 28.8902Z" fill="#3EBEB0"/>
<path d="M1.56371 12.9384C1.09353 14.5449 0.836914 16.2425 0.836914 18.0009C0.836914 19.7593 1.09353 21.457 1.56371 23.0634H16.5868C16.9806 21.5447 17.2055 19.8572 17.2055 18.0009C17.2055 16.1447 16.9806 14.4572 16.5868 12.9384H1.56371Z" fill="#231F20"/>
<path d="M9.78053 2.41986C6.74289 4.21986 4.21167 6.9198 2.63672 10.1262H15.9118C14.5617 7.03233 12.4243 4.44491 9.78053 2.41986Z" fill="#D7A229"/>
<path d="M10.343 33.8635C12.9304 31.7822 15.0117 29.026 16.3055 25.8759H2.63672C4.3242 29.251 7.02427 32.0635 10.343 33.8635Z" fill="#019B8F"/>
</g>
<defs>
<clipPath id="clip0_202_13396">
<rect width="34" height="36.0009" fill="white"/>
</clipPath>
</defs>
</svg>
