<svg width="34" height="37" viewBox="0 0 34 37" fill="none" xmlns="http://www.w3.org/2000/svg">
<g clip-path="url(#clip0_202_13948)">
<path d="M12.1146 7.73909C7.41018 6.88225 3.69054 7.77904 2.20807 10.3468C1.10182 12.2628 1.41803 14.8033 2.97495 17.5188C3.10747 17.7499 3.40226 17.8299 3.6334 17.6974C3.86453 17.5648 3.94447 17.27 3.81196 17.0389C2.40947 14.5927 2.13656 12.4002 3.04363 10.8292C4.27512 8.69615 7.59297 7.89623 11.9418 8.68829C12.2039 8.73603 12.4551 8.56224 12.5028 8.30013C12.5505 8.03801 12.3768 7.78683 12.1146 7.73909ZM19.072 3.36929C18.6882 4.11171 17.9132 4.61918 17.0198 4.61918C15.7446 4.61918 14.7109 3.58545 14.7109 2.31029C14.7109 1.03513 15.7446 0.00140381 17.0198 0.00140381C18.295 0.00140381 19.3287 1.03513 19.3287 2.31029C19.3287 2.34365 19.328 2.37684 19.3266 2.40985C23.1486 4.38655 25.8044 11.1272 25.8044 18.9146C25.8044 22.1175 25.3566 25.1911 24.5228 27.8555C24.4433 28.1097 24.1726 28.2514 23.9184 28.1718C23.6641 28.0922 23.5225 27.8216 23.602 27.5673C24.4059 24.9985 24.8396 22.0219 24.8396 18.9146C24.8396 11.5819 22.4021 5.272 19.072 3.36929ZM2.53438 25.0803C2.59132 25.0761 2.64883 25.074 2.70684 25.074C3.982 25.074 5.01572 26.1077 5.01572 27.3829C5.01572 28.658 3.982 29.6917 2.70684 29.6917C1.43167 29.6917 0.397949 28.658 0.397949 27.3829C0.397949 26.5148 0.877001 25.7586 1.58516 25.3643C1.23738 21.049 5.77307 15.2644 12.6275 11.307C15.4746 9.66319 18.4392 8.49646 21.2243 7.89972C21.4848 7.84391 21.7413 8.00985 21.7971 8.27036C21.8529 8.53087 21.687 8.78731 21.4265 8.84313C18.7423 9.41822 15.8718 10.5479 13.1099 12.1425C6.65478 15.8694 2.38647 21.241 2.53438 25.0803ZM29.292 28.5242C29.1002 28.1876 28.9906 27.798 28.9906 27.3829C28.9906 26.1077 30.0244 25.074 31.2995 25.074C32.5747 25.074 33.6084 26.1077 33.6084 27.3829C33.6084 28.658 32.5747 29.6917 31.2995 29.6917C30.797 29.6917 30.332 29.5312 29.953 29.2587C26.2697 31.4256 19.2341 30.3203 12.6133 26.4978C9.79496 24.8706 7.32365 22.9099 5.42143 20.8195C5.24212 20.6225 5.2565 20.3174 5.45355 20.138C5.6506 19.9587 5.95571 19.9731 6.13502 20.1702C7.96857 22.1851 10.3616 24.0837 13.0958 25.6623C19.3441 29.2697 25.924 30.3433 29.292 28.5242V28.5242ZM29.1408 20.2327C28.9687 20.436 28.6643 20.4613 28.461 20.2892C28.2576 20.117 28.2323 19.8127 28.4044 19.6093C31.2515 16.246 32.2106 12.9821 30.9818 10.8537C30.0898 9.30866 28.1072 8.45106 25.3565 8.41529C25.0901 8.41182 24.877 8.19305 24.8804 7.92665C24.8839 7.66024 25.1027 7.44709 25.3691 7.45055C28.4275 7.49033 30.7288 8.48578 31.8174 10.3713C33.2968 12.9337 32.2212 16.5937 29.1408 20.2327ZM9.81152 28.7352C9.72169 28.4844 9.85221 28.2082 10.103 28.1184C10.3539 28.0286 10.63 28.1591 10.7198 28.4099C12.2086 32.5669 14.5586 35.0366 17.0198 35.0366C18.7899 35.0366 20.5109 33.7686 21.9119 31.438C22.0492 31.2097 22.3456 31.1359 22.5739 31.2731C22.8022 31.4104 22.8761 31.7068 22.7388 31.9351C21.1798 34.5284 19.1806 36.0014 17.0198 36.0014C14.057 36.0014 11.4221 33.2325 9.81152 28.7352ZM32.6436 27.3829C32.6436 26.6406 32.0418 26.0388 31.2995 26.0388C30.5572 26.0388 29.9555 26.6406 29.9555 27.3829C29.9555 28.1252 30.5572 28.7269 31.2995 28.7269C32.0418 28.7269 32.6436 28.1252 32.6436 27.3829ZM2.70684 28.7269C3.44915 28.7269 4.05091 28.1252 4.05091 27.3829C4.05091 26.6406 3.44915 26.0388 2.70684 26.0388C1.96453 26.0388 1.36276 26.6406 1.36276 27.3829C1.36276 28.1252 1.96453 28.7269 2.70684 28.7269ZM17.0198 3.65436C17.7621 3.65436 18.3639 3.0526 18.3639 2.31029C18.3639 1.56798 17.7621 0.966219 17.0198 0.966219C16.2775 0.966219 15.6757 1.56798 15.6757 2.31029C15.6757 3.0526 16.2775 3.65436 17.0198 3.65436ZM17.3725 20.5475C16.4706 20.7423 15.5821 20.1692 15.3869 19.2674C15.1924 18.3655 15.7652 17.4771 16.667 17.2818C17.5688 17.087 18.4573 17.6601 18.6525 18.5619C18.8474 19.4637 18.2743 20.3522 17.3725 20.5475Z" fill="#47848F"/>
</g>
<defs>
<clipPath id="clip0_202_13948">
<rect width="34" height="37" fill="white"/>
</clipPath>
</defs>
</svg>
