<svg width="32" height="37" viewBox="0 0 32 37" fill="none" xmlns="http://www.w3.org/2000/svg">
<g clip-path="url(#clip0_202_8546)">
<path d="M31.7663 25.7892C31.7573 27.2832 30.9812 27.6165 30.9812 27.6165C30.9812 27.6165 17.5894 35.3547 16.7187 35.8396C15.856 36.2099 15.2794 35.8396 15.2794 35.8396C15.2794 35.8396 1.26676 27.7127 0.755299 27.3555C0.243709 26.9982 0.231848 26.4418 0.231848 26.4418C0.231848 26.4418 0.245925 10.3493 0.231848 9.60415C0.217771 8.85884 1.14776 8.29888 1.14776 8.29888L15.1485 0.206355C16.0105 -0.248606 16.8496 0.206355 16.8496 0.206355C16.8496 0.206355 29.218 7.39561 30.5886 8.16831C31.9321 8.80706 31.7663 10.1262 31.7663 10.1262C31.7663 10.1262 31.7746 24.4007 31.7663 25.7892ZM26.1763 9.63807C23.3096 7.98805 16.5564 4.07509 16.5564 4.07509C16.5564 4.07509 15.8975 3.719 15.2207 4.07509L4.22839 10.4083C4.22839 10.4083 3.49822 10.8467 3.5093 11.4299C3.52038 12.013 3.5093 24.6072 3.5093 24.6072C3.5093 24.6072 3.51855 25.0427 3.92027 25.3222C4.32185 25.6018 15.3235 31.962 15.3235 31.962C15.3235 31.962 15.7763 32.2518 16.4535 31.962C17.1372 31.5825 27.6514 25.5265 27.6514 25.5265C27.6514 25.5265 28.2608 25.2656 28.2678 24.0964C28.2697 23.7592 28.2705 22.4504 28.2707 20.806L15.8917 28.307V25.4374C15.8917 24.2588 16.8041 23.4809 16.8041 23.4809L27.7535 16.883C28.1666 16.4515 28.2519 15.7604 28.2695 15.499C28.2691 14.3004 28.2686 13.2534 28.2682 12.5901L15.8917 20.0895V17.0895C15.8917 15.9109 16.6738 15.3938 16.6738 15.3938L26.1763 9.63807Z" fill="#409EFF"/>
</g>
<defs>
<clipPath id="clip0_202_8546">
<rect width="32" height="37" fill="white"/>
</clipPath>
</defs>
</svg>
