<svg width="37" height="34" viewBox="0 0 37 34" fill="none" xmlns="http://www.w3.org/2000/svg">
<g clip-path="url(#clip0_202_11551)">
<path d="M18.0054 24.2437C18.8293 24.2437 19.6532 24.222 20.4672 24.1789C19.6662 25.2573 18.8422 26.2535 18.0054 27.1546C17.1682 26.2535 16.3446 25.2573 15.5439 24.1789C16.3575 24.222 17.1813 24.2437 18.0054 24.2437ZM10.765 31.7972C10.3364 31.7972 9.95347 31.705 9.62609 31.516C8.05348 30.608 7.77645 27.4758 8.87304 23.2741C10.4458 23.6373 12.1422 23.902 13.9288 24.0633C14.9614 25.5297 16.039 26.8665 17.1404 28.0472C14.6931 30.4628 12.3963 31.7972 10.765 31.7972ZM25.2462 31.7968C23.615 31.7968 21.3178 30.4628 18.8705 28.0472C19.9713 26.8669 21.0491 25.5305 22.0815 24.0644L22.0835 24.0633C23.8696 23.902 25.5657 23.6373 27.138 23.2741C28.2342 27.4758 27.9574 30.608 26.3847 31.516C26.0573 31.7048 25.6749 31.7968 25.2462 31.7968ZM22.9895 22.7224C23.4336 22.0395 23.8644 21.3373 24.2765 20.6232C24.6891 19.9084 25.0823 19.1841 25.4508 18.4592C25.9846 19.6918 26.4356 20.9033 26.7972 22.0788C25.5987 22.3527 24.3242 22.5681 22.9895 22.7224ZM13.0213 22.7224C11.6868 22.5681 10.412 22.3527 9.2135 22.0788C9.57533 20.9033 10.0262 19.6918 10.56 18.4588C10.9288 19.1846 11.3219 19.9092 11.7342 20.6232C12.1462 21.3368 12.577 22.0391 13.0213 22.7224ZM8.00792 21.7757C3.82081 20.6244 1.24681 18.8185 1.24681 17.0025C1.24681 15.1867 3.82081 13.3805 8.00792 12.2294C8.47986 13.7733 9.09875 15.375 9.85236 17.0025C9.09875 18.6302 8.47986 20.2317 8.00792 21.7757ZM28.0027 21.7757C27.531 20.2321 26.912 18.6302 26.1584 17.0025C26.912 15.3748 27.531 13.7732 28.0027 12.2294C32.1899 13.3804 34.7639 15.1865 34.7639 17.0025C34.7639 18.8185 32.1899 20.6244 28.0027 21.7757ZM10.56 15.5459C10.0262 14.3135 9.57533 13.1018 9.2135 11.9265C10.412 11.6523 11.6868 11.4367 13.0213 11.2827C12.5771 11.9653 12.1464 12.6677 11.7342 13.3818C11.3219 14.096 10.9288 14.8201 10.56 15.5459ZM25.4508 15.5459C25.0823 14.8208 24.6891 14.0966 24.2765 13.3818C23.8639 12.6673 23.4332 11.9649 22.9895 11.2827C24.3242 11.4367 25.5987 11.6523 26.7972 11.9265C26.4356 13.1015 25.9846 14.313 25.4508 15.5459ZM18.0051 23.0021C16.8653 23.0021 15.7257 22.9596 14.615 22.8748C13.9859 21.9547 13.3791 20.9898 12.8091 20.0024C12.2383 19.0137 11.7062 18.0058 11.2247 17.0025C11.7062 15.9991 12.2383 14.9911 12.8091 14.0025C13.3797 13.0142 13.9864 12.0493 14.615 11.1301C15.7257 11.0453 16.8655 11.0029 18.0054 11.0029C19.1453 11.0029 20.2853 11.0453 21.3961 11.1301C22.0237 12.0483 22.6302 13.0132 23.2016 14.0025C23.773 14.9923 24.3052 16.0001 24.786 17.0025C24.3052 18.005 23.773 19.0129 23.2016 20.0024C22.6311 20.9905 22.0244 21.9554 21.3961 22.8748C20.2849 22.9596 19.1449 23.0021 18.0051 23.0021ZM15.5439 9.82611C16.3446 8.74766 17.1685 7.75161 18.0054 6.85063C18.8422 7.75133 19.6662 8.74766 20.4672 9.82611C19.6532 9.78294 18.8297 9.76114 18.0054 9.76114C17.181 9.76114 16.3575 9.78294 15.5439 9.82611ZM8.87304 10.7309C7.77645 6.52916 8.05348 3.39702 9.62609 2.489C9.95332 2.30014 10.3361 2.20803 10.7647 2.20803C12.3957 2.20803 14.6929 3.54228 17.1402 5.95794C16.0394 7.1382 14.962 8.4747 13.9295 9.94058L13.9274 9.9417C12.1413 10.103 10.4454 10.3678 8.87304 10.7309ZM27.138 10.7309C25.5652 10.3677 23.8687 10.1027 22.0822 9.9417C21.0495 8.47513 19.9717 7.13834 18.8705 5.95794C21.3181 3.542 23.6148 2.20775 25.2459 2.20775C25.6745 2.20775 26.0573 2.3 26.3847 2.489C27.9574 3.39702 28.2342 6.52916 27.138 10.7309ZM25.2466 0.963501C23.2532 0.963642 20.7286 2.37903 18.01 5.06272L18.0054 5.0578L18.0007 5.06272C15.2817 2.37861 12.7574 0.963782 10.7639 0.963782C10.1183 0.963782 9.52807 1.11228 9.00537 1.41406C6.86829 2.64791 6.39003 6.13456 7.66746 11.0283L7.661 11.03L7.66282 11.0366C2.78567 12.3772 0.00537109 14.5347 0.00537109 17.0025C0.00537109 19.4703 2.78567 21.6278 7.66282 22.9685L7.661 22.975L7.66746 22.9767C6.39003 27.8707 6.86829 31.3572 9.00537 32.5909C9.52807 32.8925 10.1177 33.0408 10.7633 33.0408C12.7565 33.0408 15.2816 31.6265 18.0004 28.9427L18.0054 28.9475L18.01 28.9427C20.7294 31.6266 23.2534 33.0415 25.2471 33.0415C25.8925 33.041 26.4825 32.8927 27.0054 32.5909C29.1422 31.3572 29.6207 27.8707 28.3433 22.9767L28.3497 22.975L28.3482 22.9685C33.2248 21.6278 36.0054 19.4703 36.0054 17.0025C36.0054 14.5347 33.2248 12.3772 28.3482 11.0366L28.3497 11.03L28.3433 11.0283C29.6207 6.13442 29.1422 2.64791 27.0054 1.41406C26.4824 1.112 25.8926 0.96336 25.2466 0.963501Z" fill="#EBF8F9"/>
<path d="M26.0349 16.7379C25.5067 15.6174 24.9151 14.4884 24.2762 13.3818C23.6378 12.2758 22.9556 11.1989 22.2493 10.1809L22.0824 9.94068L21.791 9.91649C19.3164 9.71062 16.693 9.71062 14.2194 9.91649L13.9279 9.94068L13.761 10.1809C13.0537 11.2001 12.3718 12.277 11.7339 13.3818C11.0956 14.4869 10.5043 15.6162 9.97567 16.7379L9.85107 17.0024L9.97567 17.2671C10.5043 18.3884 11.0956 19.5179 11.7339 20.6231C12.3709 21.7267 13.0531 22.8036 13.761 23.824L13.9279 24.0644L14.2194 24.0887C15.4562 24.1918 16.7299 24.2438 18.0051 24.2438C19.28 24.2438 20.5538 24.1918 21.791 24.0887L22.0824 24.0644L22.2493 23.824C22.9565 22.8048 23.6385 21.728 24.2762 20.6231C24.9151 19.5167 25.5067 18.3873 26.0349 17.2671L26.1594 17.0024L26.0349 16.7379Z" fill="#31ADB8"/>
<path d="M20.4086 14.7365V13.4852H15.5225V20.5561H20.4979V19.3047H16.9824V17.5767H20.1801V16.3354H16.9824V14.7365H20.4086Z" fill="white"/>
</g>
<defs>
<clipPath id="clip0_202_11551">
<rect width="37" height="34" fill="white"/>
</clipPath>
</defs>
</svg>
