<svg width="37" height="37" viewBox="0 0 37 37" fill="none" xmlns="http://www.w3.org/2000/svg">
<g clip-path="url(#clip0_202_15087)">
<path d="M18.0059 0.00317383C8.06472 0.00317383 0.00585938 8.06203 0.00585938 18.0032C0.00585938 27.9443 8.06472 36.0032 18.0059 36.0032C27.947 36.0032 36.0059 27.9443 36.0059 18.0032C36.0059 8.06203 27.947 0.00317383 18.0059 0.00317383V0.00317383ZM18.0059 1.50232C25.5633 1.50232 31.9353 6.58089 33.8883 13.5109C32.2104 16.9823 29.8126 20.1066 26.9004 22.6343C25.499 23.8467 23.969 24.928 22.2796 25.6892C20.5901 26.4503 18.731 26.8823 16.8796 26.7769C15.491 26.6959 14.1153 26.3089 12.9016 25.6326C16.1287 23.884 19.0383 21.5543 21.4207 18.7643C22.9893 16.9322 24.3521 14.8493 24.8793 12.499C25.1467 11.3239 25.1879 10.0947 24.9436 8.91446C24.6993 7.73417 24.1541 6.61303 23.3287 5.7336C22.5226 4.87732 21.4644 4.26789 20.3304 3.95675C19.199 3.64432 17.9904 3.61989 16.8333 3.83075C14.519 4.25503 12.449 5.59989 10.7943 7.27003C7.87186 10.2143 6.06543 14.3697 6.39715 18.5046C6.56429 20.572 7.256 22.6035 8.44143 24.3032C8.70757 24.6837 8.99943 25.045 9.31057 25.387C7.58129 25.9952 5.78772 26.4259 3.97486 26.6689C2.41529 24.1489 1.514 21.1789 1.514 17.9993C1.514 8.8836 8.89915 1.49846 18.0123 1.49846L18.0059 1.50232ZM18.1087 4.83232C19.271 4.83232 20.4384 5.1846 21.3641 5.8866C22.1973 6.5166 22.817 7.40889 23.1641 8.39375C23.5151 9.3786 23.6051 10.447 23.4856 11.4859C23.2477 13.5623 22.1999 15.4665 20.9347 17.1302C18.6937 20.0745 15.7147 22.4312 12.4027 24.082C12.0646 24.2492 11.7213 24.4112 11.3741 24.5655C10.6541 23.9355 10.037 23.1897 9.56386 22.354C8.58029 20.6106 8.25629 18.5419 8.44529 16.5503C8.63815 14.5575 9.31957 12.6392 10.2389 10.861C11.3034 8.80003 12.755 6.8496 14.7864 5.72717C15.8021 5.16532 16.9503 4.82717 18.11 4.82717L18.1087 4.83232ZM34.3576 15.7892C34.454 16.5117 34.5054 17.2485 34.5054 17.998C34.5054 27.1112 27.1229 34.4989 18.0097 34.4989C12.8926 34.4989 8.31543 32.1692 5.294 28.5113C7.16086 28.087 8.98657 27.4763 10.7377 26.701C11.5053 27.2822 12.35 27.7605 13.25 28.105C15.8381 29.0976 18.7786 28.9536 21.3989 28.0472C24.0179 27.1395 26.3424 25.5143 28.3674 23.6179C30.7807 21.3627 32.816 18.7039 34.364 15.7879L34.3576 15.7892Z" fill="#333333"/>
</g>
<defs>
<clipPath id="clip0_202_15087">
<rect width="37" height="37" fill="white"/>
</clipPath>
</defs>
</svg>
