<svg width="37" height="37" viewBox="0 0 37 37" fill="none" xmlns="http://www.w3.org/2000/svg">
<g clip-path="url(#clip0_202_11151)">
<path fill-rule="evenodd" clip-rule="evenodd" d="M36.002 18.0024C36.002 27.9435 27.9427 36.0024 18.002 36.0024C8.06061 36.0024 0.00195312 27.9435 0.00195312 18.0024C0.00195312 8.06131 8.06061 0.00244141 18.002 0.00244141C27.9427 0.00244141 36.002 8.06131 36.002 18.0024ZM18.002 28.8025C13.0811 28.8025 8.78483 25.4718 7.55492 20.702C7.41317 20.1524 7.7442 19.591 8.29384 19.4491C8.84459 19.3068 9.40477 19.6385 9.54659 20.1887C10.5427 24.0491 14.0192 26.7458 18.002 26.7458C21.9841 26.7458 25.4612 24.0491 26.4568 20.1887C26.5985 19.6385 27.1581 19.3062 27.7095 19.4491C28.2597 19.591 28.5907 20.1524 28.4484 20.702C27.2184 25.4718 22.9228 28.8025 18.002 28.8025Z" fill="black"/>
</g>
<defs>
<clipPath id="clip0_202_11151">
<rect width="37" height="37" fill="white"/>
</clipPath>
</defs>
</svg>
