<svg width="37" height="37" viewBox="0 0 37 37" fill="none" xmlns="http://www.w3.org/2000/svg">
<g clip-path="url(#clip0_202_9760)">
<path fill-rule="evenodd" clip-rule="evenodd" d="M18.0061 0.00256348C27.9472 0.00256348 36.0061 8.06147 36.0061 18.0026C36.0061 27.9438 27.9472 36.0026 18.0061 36.0026C8.06501 36.0026 0.00610352 27.9438 0.00610352 18.0026C0.00610352 8.06147 8.06501 0.00256348 18.0061 0.00256348Z" fill="#0E0E11"/>
<path fill-rule="evenodd" clip-rule="evenodd" d="M12.6653 16.7076L7.1441 19.0868C7.13553 18.9917 7.13079 18.8955 7.13079 18.7981C7.13079 17.0516 8.54655 15.6359 10.293 15.6359C11.2379 15.6359 12.0859 16.0506 12.6653 16.7076ZM10.293 13.271C12.8983 13.271 15.0821 15.0737 15.6663 17.4998L13.4386 18.4739L13.4381 18.4693L11.1591 19.4706L5.69192 21.861C5.10705 20.9842 4.76593 19.931 4.76593 18.7981C4.76593 15.7455 7.24044 13.271 10.293 13.271ZM14.1551 22.7518C12.1762 24.6301 9.55816 24.8144 7.25777 23.4179L8.55748 21.4418C9.86648 22.2242 11.1815 22.0973 12.5025 21.0601L14.1551 22.7518ZM16.4056 21.3837L16.3917 10.9316H18.3719V21.1015C18.3719 21.1991 18.3839 21.285 18.5119 21.3347L20.2346 22.0047L19.4585 24.0226L17.4405 23.1689C16.6753 22.8451 16.4069 22.3759 16.4056 21.3837Z" fill="white"/>
<path fill-rule="evenodd" clip-rule="evenodd" d="M23.8617 21.208C23.1194 20.6309 22.6415 19.7301 22.6415 18.7171C22.6415 17.8165 23.0196 17.0047 23.6249 16.4299L22.3459 14.3571C21.0602 15.3757 20.2346 16.9495 20.2346 18.7171C20.2346 20.6223 21.193 22.3032 22.6538 23.3053L23.8617 21.208Z" fill="#2091C3"/>
<path fill-rule="evenodd" clip-rule="evenodd" d="M24.7287 15.7482C25.062 15.6283 25.4213 15.5626 25.7959 15.5626C27.1465 15.5626 28.2982 16.4118 28.748 17.605L31.1988 17.4003C30.6073 14.9646 28.4135 13.1558 25.7959 13.1558C25.0563 13.1558 24.3511 13.3014 23.7056 13.5635L24.7287 15.7482Z" fill="#FAEC32"/>
<path fill-rule="evenodd" clip-rule="evenodd" d="M28.9464 18.8699C28.8666 20.5409 27.4867 21.8714 25.796 21.8714C25.5309 21.8714 25.2737 21.8382 25.0278 21.7767L24.0664 24.0026C24.6109 24.1805 25.1919 24.2782 25.796 24.2782C28.7907 24.2782 31.2312 21.9108 31.3513 18.9456L28.9464 18.8699Z" fill="#D0352A"/>
</g>
<defs>
<clipPath id="clip0_202_9760">
<rect width="37" height="37" fill="white"/>
</clipPath>
</defs>
</svg>
