<svg width="37" height="36" viewBox="0 0 37 36" fill="none" xmlns="http://www.w3.org/2000/svg">
<g clip-path="url(#clip0_202_16177)">
<path d="M8.12286 27.2092C8.151 27.1389 8.17913 27.0686 8.20727 26.9982L8.22134 26.9701C8.29168 26.8013 8.36201 26.6184 8.43235 26.4496C8.51676 26.2245 8.60117 25.9853 8.68558 25.7603C8.74185 25.6336 8.78405 25.507 8.82625 25.3664C8.91157 25.1317 9.02113 24.8405 9.14882 24.5418C9.18957 24.4464 9.23217 24.3503 9.27642 24.255C9.38897 24.0158 9.47337 23.847 9.57185 23.6923C9.68439 23.5094 9.79693 23.3406 9.92355 23.1718L10.022 23.0311L10.1768 22.9326C10.1908 22.9185 10.219 22.9045 10.2471 22.8904C10.2913 22.8639 10.341 22.843 10.3858 22.8241C10.4123 22.8129 10.4372 22.8024 10.4581 22.7919C10.5566 22.7497 10.6832 22.7075 10.8239 22.6653C11.0208 22.6091 11.2459 22.5528 11.5132 22.4965C11.9071 22.4121 12.3291 22.3277 12.8637 22.2433C13.5461 22.1355 14.2693 22.038 15.1026 21.9419C15.2485 21.9251 15.3977 21.9084 15.5507 21.8916C17.3654 21.6946 19.1802 21.554 20.9246 21.4696C21.8531 21.4274 22.5565 21.4133 23.2177 21.4133C23.3583 21.4133 23.499 21.4133 23.6397 21.4133C24.0758 21.4274 24.5822 21.4414 25.0465 21.5118C25.2153 21.5399 25.37 21.568 25.4826 21.6102C25.5248 21.6243 25.567 21.6384 25.5811 21.6524L25.7217 21.7087L25.8343 21.8072C25.8765 21.8494 25.9187 21.8916 25.9609 21.9338C26.1156 22.0885 26.2844 22.2714 26.4533 22.4824C26.9878 23.1577 27.4661 23.9736 27.8882 24.9021C28.1044 25.3793 28.2771 25.8287 28.4148 26.2631C28.5369 26.6484 28.6314 27.0218 28.7041 27.3921L28.9151 28.5035H28.223H26.3267L26.1719 27.7579C26.0031 26.9701 23.8788 24.888 22.8238 24.4801C22.7112 24.4379 22.261 24.3113 20.8683 24.3113C17.9985 24.3113 13.9469 24.8177 13.3702 24.9443C12.6808 25.2679 11.6258 26.6184 11.0208 27.9689L10.7676 28.5175" fill="white"/>
<path d="M30.758 25.7462C30.053 25.7462 29.3102 25.4607 28.6964 25.0698C28.3182 24.8289 27.9889 24.548 27.7475 24.2691C27.1707 23.6079 27.1145 23.017 27.1707 22.6372C27.1837 22.5518 27.2071 22.4664 27.241 22.3839C27.3913 22.0179 27.7477 21.7087 28.3102 21.7087C28.3616 21.7087 28.4131 21.711 28.4635 21.7147C28.4936 21.7169 28.5233 21.7196 28.5524 21.7226C28.5949 21.7269 28.6363 21.7319 28.676 21.7368C28.7042 21.6098 28.7422 21.4482 28.8003 21.2774C28.857 21.1111 28.9328 20.936 29.0373 20.7755C29.09 20.6947 29.15 20.6177 29.2185 20.5473C29.2465 20.5185 29.2759 20.4909 29.3069 20.4646C29.5107 20.2912 29.7801 20.1753 30.139 20.1753C30.1953 20.1753 30.2375 20.1753 30.2938 20.1753C30.8143 20.2316 31.2082 20.5551 31.3629 21.0475C31.5318 20.9631 31.7287 20.8928 31.9538 20.8928C32.2914 20.8928 32.615 21.0335 32.8541 21.2867C33.234 21.6946 33.3184 22.2574 33.0792 22.7919C33.3324 22.9467 33.5294 23.1858 33.6138 23.4953C33.7263 23.8892 33.656 24.3113 33.4028 24.6489C32.9241 25.3191 31.8336 25.6435 30.946 25.6869C30.9207 25.6881 30.8955 25.6891 30.8706 25.6899C30.8143 25.7462 30.7862 25.7462 30.758 25.7462Z" fill="white"/>
<path d="M14.2846 4.99611C14.6644 4.41933 14.5378 3.92695 14.4393 3.6878C14.2402 3.2612 13.8623 3.12208 13.5379 3.0767C12.6873 3.41837 11.9617 3.84329 11.3823 4.30178C11.4455 4.28636 11.5106 4.27865 11.5836 4.27865C11.9493 4.27865 12.2869 4.4756 12.4839 4.81323C12.6525 5.10962 12.7228 5.58793 12.7088 6.13756C12.755 6.13821 12.8008 6.13902 12.8462 6.13998C13.4791 5.85192 14.0124 5.41676 14.2846 4.99611Z" fill="white"/>
<path d="M23.5091 3.42222C23.5565 3.41075 23.6035 3.39832 23.6503 3.385C22.4046 2.75854 20.6647 2.32576 18.2095 2.25288C17.9471 2.23907 17.7117 2.23882 17.4902 2.23881C16.0749 2.23894 14.5418 2.3927 13.1004 3.05475H13.131C13.2365 3.05475 13.381 3.05475 13.5379 3.0767C14.7597 2.58594 16.2394 2.26695 17.9141 2.26695H18.0266C20.2203 2.28389 22.0519 2.67307 23.5091 3.42222Z" fill="white"/>
<path d="M11.2255 4.29329C11.2593 4.30527 11.2898 4.31462 11.3163 4.32085C11.3382 4.31355 11.3601 4.30719 11.3823 4.30178C11.9617 3.84329 12.6873 3.41837 13.5379 3.0767C13.381 3.05475 13.2365 3.05475 13.131 3.05475H13.1004C12.4504 3.35335 11.819 3.75535 11.2255 4.29329Z" fill="white"/>
<path d="M10.0816 3.723C9.07814 3.17935 7.93931 2.56237 6.80048 2.56237C6.3694 2.56237 5.97545 2.65093 5.62508 2.82419C5.48387 2.91886 5.35041 3.02388 5.22489 3.13915L6.06369 4.73586C6.19568 4.72449 6.33414 4.71475 6.46286 4.71475C7.6031 4.71475 8.56466 5.2508 9.41547 5.72511L9.44524 5.74171L9.51467 5.77999L9.51486 5.7801C9.61684 5.83635 9.71673 5.89145 9.815 5.94446C10.2477 5.28485 10.7183 4.73963 11.2154 4.28967C10.9702 4.20071 10.5608 3.98065 10.2293 3.80247C10.1919 3.78239 10.1555 3.76284 10.1205 3.74407L10.0816 3.723Z" fill="white"/>
<path d="M7.23659 6.26222H7.10998C7.03433 6.26803 6.95989 6.28228 6.88765 6.30432L8.35642 9.1002C8.70862 8.00373 9.12564 7.07924 9.59193 6.30042C9.29902 6.33374 9.00148 6.37248 8.69964 6.41696H8.57303C8.34795 6.41696 8.08066 6.37476 7.85557 6.33256C7.63049 6.29035 7.43354 6.26222 7.23659 6.26222Z" fill="white"/>
<path d="M14.726 21.225C14.9582 21.1991 15.1996 21.1729 15.4522 21.146C17.281 20.9631 19.1098 20.8224 20.8824 20.7521C21.0475 20.7466 21.2056 20.7411 21.3577 20.7358L21.3579 20.7358C21.9831 20.714 22.506 20.6958 22.9926 20.6958H23.6397L23.6733 20.6969C24.115 20.7106 24.6099 20.7261 25.145 20.8084H25.159C25.1932 20.816 25.2325 20.8236 25.2761 20.832C25.394 20.8548 25.5434 20.8836 25.7077 20.935H25.7217C25.7533 20.9508 25.7938 20.9666 25.8407 20.9849C25.8772 20.9991 25.9177 21.0149 25.9609 21.0335C25.9917 21.052 26.0199 21.0678 26.0453 21.082C26.0779 21.1003 26.106 21.1161 26.1297 21.1319L26.2 21.1882L26.2563 21.2304L26.3126 21.2867L26.4673 21.4414C26.6502 21.6243 26.819 21.8213 27.0019 22.0604C27.083 22.1659 27.1627 22.2736 27.241 22.3839C27.3913 22.0179 27.7477 21.7087 28.3102 21.7087C28.3616 21.7087 28.4131 21.711 28.4635 21.7147L26.8894 20.9209C26.9175 20.8576 26.9456 20.7908 26.9738 20.724L26.9739 20.7236C27.002 20.6569 27.0301 20.5902 27.0582 20.527C27.635 19.1484 28.0711 17.9385 27.3817 17.1648C26.9847 16.7267 25.965 16.1155 24.6692 15.438C24.4626 15.4545 24.2414 15.4626 24.0055 15.4626C22.5846 15.4626 20.2071 15.1109 19.3912 14.3231C18.9083 13.8612 18.6526 13.172 18.4486 12.4369C18.027 12.2357 17.6193 12.0399 17.226 11.849C16.8694 12.692 16.3764 13.5709 15.607 14.1261C15.1286 14.4778 13.3983 14.7873 12.0619 14.7873C11.8052 14.7873 11.5604 14.7769 11.3277 14.7561L14.726 21.225Z" fill="white"/>
<path d="M29.5341 0.874232C29.3653 0.803892 29.1965 0.775757 29.0136 0.775757C28.9432 0.775757 28.8735 0.780566 28.8043 0.790037C27.8083 0.926361 26.9187 2.02858 25.7217 3.65967C25.552 3.89878 25.3485 4.18019 25.1622 4.42272C25.6003 4.83967 25.9269 5.28908 26.1763 5.74518C26.2792 5.89476 26.3748 6.04605 26.464 6.19853C26.7601 6.70528 26.9839 7.22518 27.1577 7.739C27.1936 7.75532 27.2274 7.76748 27.2551 7.76748H27.3114C27.4705 7.76748 27.6934 7.7249 27.8969 7.68604L27.9441 7.67704C27.9584 7.67432 27.9726 7.67163 27.9867 7.669C28.1298 7.63321 28.273 7.60754 28.4075 7.58341L28.4519 7.57543L28.479 7.57053H28.6056C28.9395 7.57053 29.2486 7.7189 29.4825 7.9778C29.4905 7.96847 29.4983 7.95932 29.506 7.95036C30.5611 6.71239 31.2785 5.36187 31.4473 4.22238C31.6865 2.67492 30.9831 1.45101 29.5341 0.874232Z" fill="white"/>
<path d="M24.7651 4.89764C24.4416 4.96797 23.921 5.23526 23.921 6.22001C23.921 6.38112 23.9338 6.58532 23.9637 6.81434C24.0057 6.83957 24.0474 6.86364 24.0886 6.88654C24.6446 6.95965 25.1213 7.05677 25.5269 7.16126C25.761 7.0867 25.962 6.94041 26.1016 6.72645C26.2078 6.57039 26.3125 6.41759 26.4158 6.26817C26.3268 6.06019 26.2246 5.85156 26.106 5.64471C26.0416 5.55441 25.9745 5.46478 25.9046 5.37594C25.6598 5.06392 25.3899 4.77492 25.0952 4.50916C24.9677 4.67207 24.8518 4.81094 24.7651 4.89764Z" fill="white"/>
<path d="M9.3327 27.1952L8.74185 28.5035H9.0232H9.02972L9.64219 27.1811C9.88465 26.6634 10.2858 25.9443 10.786 25.2654C10.6958 25.2327 10.6064 25.1994 10.5179 25.1655C10.0374 25.8194 9.62452 26.5401 9.3327 27.1952Z" fill="white"/>
<path d="M9.27642 24.255C9.38897 24.0158 9.47337 23.847 9.57185 23.6923C9.68439 23.5094 9.79693 23.3406 9.92355 23.1718L10.022 23.0311L10.1768 22.9326C10.1908 22.9185 10.219 22.9045 10.2471 22.8904C10.2913 22.8639 10.341 22.843 10.3858 22.8241C10.4123 22.8129 10.4372 22.8024 10.4581 22.7919C10.5566 22.7497 10.6832 22.7075 10.8239 22.6653C11.0208 22.6091 11.2459 22.5528 11.5132 22.4965C11.9071 22.4121 12.3291 22.3277 12.8637 22.2433C13.5461 22.1355 14.2693 22.038 15.1026 21.9419L14.726 21.225C13.9886 21.3073 13.3436 21.3873 12.723 21.4836C12.1744 21.568 11.7383 21.6524 11.3303 21.7368L11.3076 21.7417C11.113 21.7834 10.8554 21.8385 10.5847 21.9197C10.5503 21.9312 10.5138 21.9427 10.4756 21.9547C10.373 21.987 10.2575 22.0233 10.1346 22.0745C10.0642 22.1026 9.96575 22.1448 9.83914 22.2152C9.79694 22.2292 9.71253 22.2714 9.62812 22.3418H9.61405C9.52965 22.398 9.4171 22.4965 9.29049 22.6513C9.14981 22.8341 9.00914 23.0311 8.88252 23.228C8.74185 23.4391 8.6293 23.6219 8.53083 23.8048C8.46786 23.9098 8.40739 24.0172 8.34831 24.1279C8.6009 24.2685 8.86836 24.4071 9.14882 24.5418C9.18957 24.4464 9.23217 24.3503 9.27642 24.255Z" fill="white"/>
<path d="M16.0853 26.1964C16.4229 26.1964 16.7605 26.1823 17.0841 26.1541C17.1584 26.1481 17.2322 26.1419 17.3057 26.1356L16.6205 24.8313C15.0863 24.9758 13.8104 25.1447 13.4686 25.2116C13.2773 25.3073 13.0302 25.5146 12.7626 25.8034C13.8322 26.0486 14.9572 26.1964 16.0853 26.1964Z" fill="white"/>
<path d="M24.1321 27.5891H20.6714V28.5035H24.1321V27.5891Z" fill="white"/>
<path d="M29.0417 26.0135C29.1965 26.5058 29.309 26.9701 29.3934 27.4203L29.5623 28.5035H28.9151H28.223L28.2258 28.5175H29.6834L29.9421 28.0955C30.2502 27.5894 30.6184 26.6273 30.946 25.6869C30.9207 25.6881 30.8955 25.6891 30.8706 25.6899C30.8143 25.7462 30.7862 25.7462 30.758 25.7462C30.053 25.7462 29.3102 25.4607 28.6964 25.0698C28.7444 25.1856 28.7904 25.3011 28.8342 25.4161L28.8448 25.4086L28.8375 25.4247C28.9127 25.6228 28.9811 25.8195 29.0417 26.0135Z" fill="white"/>
<path fill-rule="evenodd" clip-rule="evenodd" d="M25.9742 2.07679C25.2493 2.60103 24.5056 3.13884 23.6592 3.38244C22.4139 2.75736 20.6755 2.32566 18.2236 2.25288C17.9563 2.23881 17.7171 2.23881 17.492 2.23881L17.4902 2.23881L17.478 2.23881C16.0621 2.23881 14.5283 2.39242 13.0864 3.05475H12.8919H12.6105C12.2588 3.05475 11.7946 3.02661 11.4429 2.9C10.1346 2.42169 8.96693 2.18254 7.98218 2.18254C7.05019 2.18254 6.25936 2.39899 5.62508 2.82419C5.19795 3.03541 4.83558 3.3725 4.54963 3.82848C4.22607 4.33492 3.97285 5.20713 4.54963 6.4873C4.86825 7.19359 5.38734 7.89185 6.007 8.5034C6.02968 8.59324 6.05951 8.67707 6.09709 8.75222C6.23991 9.05085 6.50256 9.22964 6.71915 9.37708C6.73723 9.38939 6.755 9.40149 6.77235 9.41341C6.78642 9.42045 6.79697 9.42748 6.80752 9.43451C6.81807 9.44155 6.82862 9.44858 6.84269 9.45562C7.03695 10.3048 7.26844 11.0533 7.53716 11.6984C7.32628 12.0987 7.05518 12.5409 6.77366 13.0001L6.73014 13.0711L6.66782 13.173C5.90939 14.4133 5.06111 15.8005 4.73251 17.3477C4.33861 19.289 4.85912 21.0616 6.30811 22.6231C6.5461 22.8811 6.86795 23.161 7.26057 23.4468C7.58028 23.6742 7.94538 23.9037 8.34831 24.1279C8.20941 24.3882 8.07816 24.6665 7.93998 24.9725C7.7571 25.3945 7.60235 25.7884 7.47574 26.1542C7.4054 26.3511 7.33506 26.548 7.27879 26.7591C7.26472 26.8083 7.25066 26.8611 7.23659 26.9138C7.22252 26.9666 7.20845 27.0193 7.19438 27.0686L7.15218 27.2233L7.12404 27.3499V27.3921C7.10998 27.5891 7.10998 28.0674 7.67269 28.3909L7.70083 28.405L7.93998 28.5175H9.0232H9.58592L9.59225 28.5035H11.0771H20.6714V30.5855H24.1321V28.5035H26.0561L26.0594 28.5175H27.0019H27.0582H27.1426L29.6748 28.5316L29.6834 28.5175H29.717L29.9843 28.0674C30.969 26.4074 31.4614 25.1131 31.4192 24.2269C31.377 23.3547 30.8002 22.6794 29.914 22.4824C29.7451 22.4402 29.5623 22.4262 29.3794 22.4262C28.6619 22.4262 28.1133 22.7075 27.86 23.1858C27.8441 23.2165 27.8286 23.2463 27.8129 23.2751C27.6302 22.9607 27.4401 22.6643 27.241 22.3839C27.1627 22.2736 27.083 22.1659 27.0019 22.0604C26.819 21.8213 26.6502 21.6243 26.4673 21.4414L26.3126 21.2867L26.2563 21.2304L26.2 21.1882L26.1297 21.1319C26.106 21.1161 26.0779 21.1003 26.0453 21.082C26.0199 21.0678 25.9917 21.052 25.9609 21.0335C25.9177 21.0149 25.8772 20.9991 25.8407 20.9849C25.7938 20.9666 25.7533 20.9508 25.7217 20.935H25.7077C25.5434 20.8836 25.394 20.8548 25.2761 20.832C25.2325 20.8236 25.1932 20.816 25.159 20.8084H25.145C24.6099 20.7261 24.115 20.7106 23.6733 20.6969L23.6397 20.6958H22.9926C22.506 20.6958 21.9831 20.714 21.3579 20.7358L21.3577 20.7358C21.2056 20.7411 21.0475 20.7466 20.8824 20.7521C19.1098 20.8224 17.281 20.9631 15.4522 21.146C15.1996 21.1729 14.9582 21.1991 14.726 21.225L11.3277 14.7561C11.5604 14.7769 11.8052 14.7873 12.0619 14.7873C13.3983 14.7873 15.1286 14.4778 15.607 14.1261C16.3764 13.5709 16.8694 12.692 17.226 11.849C17.6193 12.0399 18.027 12.2357 18.4486 12.4369C18.6526 13.172 18.9083 13.8612 19.3912 14.3231C20.2071 15.1109 22.5846 15.4626 24.0055 15.4626C24.2414 15.4626 24.4626 15.4545 24.6692 15.438C25.965 16.1155 26.9847 16.7267 27.3817 17.1648C28.0711 17.9385 27.635 19.1484 27.0582 20.527C27.0301 20.5902 27.002 20.6569 26.9739 20.7236L26.9738 20.724C26.9456 20.7908 26.9175 20.8576 26.8894 20.9209L28.4635 21.7147L28.5353 21.7509C28.541 21.7415 28.5467 21.7321 28.5524 21.7226C28.6342 21.5865 28.7176 21.438 28.8003 21.2774C28.8807 21.1214 28.9605 20.954 29.0373 20.7755C29.1991 20.4003 29.3483 19.9761 29.465 19.506C29.4988 19.3699 29.5299 19.2299 29.5578 19.0862C29.8763 17.444 29.7767 15.3079 28.5368 12.782C28.4418 12.4852 28.3402 12.1813 28.2319 11.8702C28.252 11.8311 28.2722 11.7918 28.2923 11.7527L28.2942 11.7491L28.2945 11.7486L28.2957 11.7461L28.2959 11.7457L28.296 11.7455L28.2962 11.7452L28.2964 11.7447L28.2966 11.7445C28.415 11.514 28.5296 11.2909 28.6056 11.1578C28.6478 11.1297 28.7041 11.1016 28.7463 11.0875L28.7609 11.0808C29.0956 10.9275 29.4955 10.7442 29.7451 10.356C30.125 9.76511 29.9421 8.73816 29.6748 8.24578C29.6187 8.14681 29.5541 8.05712 29.4825 7.9778C29.2486 7.7189 28.9395 7.57053 28.6056 7.57053H28.479L28.4519 7.57543L28.4075 7.58341C28.273 7.60754 28.1298 7.63321 27.9867 7.669C27.9726 7.67163 27.9584 7.67432 27.9441 7.67704L27.8969 7.68604C27.6934 7.7249 27.4705 7.76748 27.3114 7.76748H27.2551C27.2274 7.76748 27.1936 7.75532 27.1577 7.739C26.9839 7.22518 26.7601 6.70528 26.464 6.19853C26.3748 6.04605 26.2792 5.89476 26.1763 5.74518C25.9269 5.28908 25.6003 4.83967 25.1622 4.42272C25.3485 4.18019 25.552 3.89878 25.7217 3.65967C26.9187 2.02858 27.8083 0.926361 28.8043 0.790037C28.7943 0.789896 28.7844 0.789825 28.7745 0.789825C27.7616 0.789825 26.9175 1.39474 26.0031 2.05593L25.9742 2.07679ZM28.9151 28.5035H28.223L28.2258 28.5175H29.6834L29.9421 28.0955C30.2502 27.5894 30.6184 26.6273 30.946 25.6869C30.9207 25.6881 30.8955 25.6891 30.8706 25.6899C30.8143 25.7462 30.7862 25.7462 30.758 25.7462C30.053 25.7462 29.3102 25.4607 28.6964 25.0698C28.7444 25.1856 28.7904 25.3011 28.8342 25.4161L28.8448 25.4086L28.8375 25.4247C28.728 25.666 28.5886 25.9455 28.4148 26.2631C28.5369 26.6484 28.6314 27.0218 28.7041 27.3921L28.9151 28.5035ZM24.1321 28.5035V27.5891H20.6714V28.5035H24.1321ZM14.726 21.225L15.1026 21.9419C14.2693 22.038 13.5461 22.1355 12.8637 22.2433C12.3291 22.3277 11.9071 22.4121 11.5132 22.4965C11.2459 22.5528 11.0208 22.6091 10.8239 22.6653C10.6832 22.7075 10.5566 22.7497 10.4581 22.7919C10.4372 22.8024 10.4123 22.8129 10.3858 22.8241C10.341 22.843 10.2913 22.8639 10.2471 22.8904C10.219 22.9045 10.1908 22.9185 10.1768 22.9326L10.022 23.0311L9.92355 23.1718C9.79693 23.3406 9.68439 23.5094 9.57185 23.6923C9.47337 23.847 9.38897 24.0158 9.27642 24.255C9.23217 24.3503 9.18957 24.4464 9.14882 24.5418C8.86836 24.4071 8.6009 24.2685 8.34831 24.1279C8.40739 24.0172 8.46786 23.9098 8.53083 23.8048C8.6293 23.6219 8.74185 23.4391 8.88252 23.228C9.00914 23.0311 9.14981 22.8341 9.29049 22.6513C9.4171 22.4965 9.52965 22.398 9.61405 22.3418H9.62812C9.71253 22.2714 9.79694 22.2292 9.83914 22.2152C9.96575 22.1448 10.0642 22.1026 10.1346 22.0745C10.2575 22.0233 10.373 21.987 10.4756 21.9547C10.5138 21.9427 10.5503 21.9312 10.5847 21.9197C10.8554 21.8385 11.113 21.7834 11.3076 21.7417L11.3303 21.7368C11.7383 21.6524 12.1744 21.568 12.723 21.4836C13.3436 21.3873 13.9886 21.3073 14.726 21.225ZM5.62508 2.82419C5.97545 2.65093 6.3694 2.56237 6.80048 2.56237C7.93931 2.56237 9.07814 3.17935 10.0816 3.723L10.1205 3.74407C10.1555 3.76284 10.1919 3.78239 10.2293 3.80247C10.5608 3.98065 10.9702 4.20071 11.2154 4.28967C10.7183 4.73963 10.2477 5.28485 9.815 5.94446C9.71673 5.89145 9.61684 5.83635 9.51486 5.7801L9.51467 5.77999L9.44524 5.74171L9.41547 5.72511C8.56466 5.2508 7.6031 4.71475 6.46286 4.71475C6.33414 4.71475 6.19568 4.72449 6.06369 4.73586L5.22489 3.13915C5.35041 3.02388 5.48387 2.91886 5.62508 2.82419ZM17.4902 2.23881C17.7117 2.23882 17.9471 2.23907 18.2095 2.25288C20.6647 2.32576 22.4046 2.75854 23.6503 3.385C23.6035 3.39832 23.5565 3.41075 23.5091 3.42222C22.0519 2.67307 20.2203 2.28389 18.0266 2.26695H17.9141C16.2394 2.26695 14.7597 2.58594 13.5379 3.0767C13.8623 3.12208 14.2402 3.2612 14.4393 3.6878C14.5378 3.92695 14.6644 4.41933 14.2846 4.99611C14.0124 5.41676 13.4791 5.85192 12.8462 6.13998C12.8008 6.13902 12.755 6.13821 12.7088 6.13756C12.7228 5.58793 12.6525 5.10962 12.4839 4.81323C12.2869 4.4756 11.9493 4.27865 11.5836 4.27865C11.5106 4.27865 11.4455 4.28636 11.3823 4.30178C11.3601 4.30719 11.3382 4.31355 11.3163 4.32085C11.2898 4.31462 11.2593 4.30527 11.2255 4.29329C11.819 3.75535 12.4504 3.35335 13.1004 3.05475C14.5418 2.3927 16.0749 2.23894 17.4902 2.23881ZM9.02972 28.5035H9.0232H8.74185L9.3327 27.1952C9.62452 26.5401 10.0374 25.8194 10.5179 25.1655C10.6064 25.1994 10.6958 25.2327 10.786 25.2654C10.2858 25.9443 9.88465 26.6634 9.64219 27.1811L9.02972 28.5035ZM28.5116 12.731C28.3988 12.5034 28.2766 12.2727 28.1447 12.0389C28.1711 11.988 28.1982 11.9357 28.2254 11.883C28.3264 12.1719 28.4219 12.4545 28.5116 12.731ZM7.10998 6.26222H7.23659C7.43354 6.26222 7.63049 6.29035 7.85557 6.33256C8.08066 6.37476 8.34795 6.41696 8.57303 6.41696H8.69964C9.00148 6.37248 9.29902 6.33374 9.59193 6.30042C9.12564 7.07924 8.70862 8.00373 8.35642 9.1002L6.88765 6.30432C6.95989 6.28228 7.03433 6.26803 7.10998 6.26222ZM25.5269 7.16126C25.761 7.0867 25.962 6.94041 26.1016 6.72645C26.2078 6.57039 26.3125 6.41759 26.4158 6.26817C26.3268 6.06019 26.2246 5.85156 26.106 5.64471C26.0416 5.55441 25.9745 5.46478 25.9046 5.37594C25.6598 5.06392 25.3899 4.77492 25.0952 4.50916C24.9677 4.67207 24.8518 4.81094 24.7651 4.89764C24.4416 4.96797 23.921 5.23526 23.921 6.22001C23.921 6.38112 23.9338 6.58532 23.9637 6.81434C24.0057 6.83957 24.0474 6.86364 24.0886 6.88654C24.6446 6.95965 25.1213 7.05677 25.5269 7.16126ZM24.7229 23.3828C24.7823 23.4422 24.8418 23.5086 24.9012 23.5819C24.7996 23.5063 24.6989 23.434 24.5996 23.3655C24.6413 23.3706 24.6825 23.3763 24.7229 23.3828ZM16.0853 26.1964C16.4229 26.1964 16.7605 26.1823 17.0841 26.1541C17.1584 26.1481 17.2322 26.1419 17.3057 26.1356L16.6205 24.8313C15.0863 24.9758 13.8104 25.1447 13.4686 25.2116C13.2773 25.3073 13.0302 25.5146 12.7626 25.8034C13.8322 26.0486 14.9572 26.1964 16.0853 26.1964Z" fill="white"/>
<path d="M28.7041 27.3921L28.9151 28.5035H29.5623L29.3934 27.4203C29.309 26.9701 29.1965 26.5058 29.0417 26.0135C28.9811 25.8195 28.9127 25.6228 28.8375 25.4247C28.728 25.666 28.5886 25.9455 28.4148 26.2631C28.5369 26.6484 28.6314 27.0218 28.7041 27.3921Z" fill="white"/>
<path d="M28.676 21.7368C28.7042 21.6098 28.7422 21.4482 28.8003 21.2774C28.7176 21.438 28.6342 21.5865 28.5524 21.7226C28.5949 21.7269 28.6363 21.7319 28.676 21.7368Z" fill="white"/>
<path d="M29.2185 20.5473C29.3258 20.2183 29.4081 19.8718 29.465 19.506C29.3483 19.9761 29.1991 20.4003 29.0373 20.7755C29.09 20.6947 29.15 20.6177 29.2185 20.5473Z" fill="white"/>
<path d="M29.3069 20.4646C29.432 20.0359 29.5157 19.5777 29.5578 19.0862C29.5299 19.2299 29.4988 19.3699 29.465 19.506C29.4081 19.8718 29.3258 20.2183 29.2185 20.5473C29.2465 20.5185 29.2759 20.4909 29.3069 20.4646Z" fill="white"/>
<path d="M28.1447 12.0389C28.2766 12.2727 28.3988 12.5034 28.5116 12.731C28.4219 12.4545 28.3264 12.1719 28.2254 11.883C28.1982 11.9357 28.1711 11.988 28.1447 12.0389Z" fill="white"/>
<path d="M25.7076 23.1015C25.581 22.9327 25.4403 22.7779 25.2856 22.6373C25.2575 22.6091 25.2153 22.5669 25.1871 22.5388C25.1871 22.5388 25.173 22.5388 25.159 22.5247C25.0886 22.4966 24.9902 22.4825 24.8917 22.4684C24.4837 22.4122 24.0476 22.3981 23.6115 22.384C22.7252 22.37 21.839 22.3981 20.9527 22.4403C19.1801 22.5247 17.3935 22.6654 15.635 22.8623C14.7488 22.9608 13.8625 23.0734 12.9903 23.214C12.5542 23.2844 12.1181 23.3547 11.6961 23.4532C11.485 23.4954 11.274 23.5517 11.0771 23.6079C10.9786 23.6361 10.8801 23.6642 10.7957 23.7064C10.7535 23.7205 10.7113 23.7345 10.6972 23.7627C10.6972 23.7627 10.6832 23.7627 10.6832 23.7767C10.5847 23.9174 10.4862 24.0581 10.3877 24.2129C10.2893 24.3676 10.2189 24.5364 10.1345 24.7052C9.97977 25.0429 9.8391 25.3945 9.71248 25.7462C9.58587 26.0979 9.4452 26.4637 9.31859 26.8295C9.24825 27.0124 9.17791 27.1952 9.0935 27.3781C9.06536 27.4625 9.02316 27.5469 8.98096 27.6313H10.1767C10.8238 26.1823 12.0477 24.5223 13.0606 24.1144C13.342 24.0018 17.8718 23.4391 20.8683 23.4391C21.9796 23.4391 22.7393 23.5235 23.1613 23.6783C24.3852 24.1566 26.8331 26.4215 27.0863 27.6454H27.7756C27.6349 26.8717 27.3536 26.112 27.03 25.3805C26.6642 24.5364 26.2281 23.7627 25.7076 23.1015Z" fill="#BA8449"/>
<path d="M27.6767 25.0287C27.2968 24.1846 26.8607 23.3828 26.284 22.6512C26.1433 22.4684 25.9885 22.2855 25.8197 22.1167C25.7775 22.0745 25.7353 22.0323 25.6931 21.9901L25.665 21.9619L25.6509 21.9479L25.6228 21.9197C25.5946 21.9056 25.5665 21.8916 25.5524 21.8775C25.5102 21.8494 25.468 21.8353 25.4258 21.8212C25.2711 21.765 25.1585 21.7509 25.0319 21.7228C24.5536 21.6524 24.1034 21.6384 23.6533 21.6243C22.7389 21.6102 21.8526 21.6243 20.9522 21.6665C19.1516 21.7368 17.3649 21.8775 15.5783 22.0604C14.6921 22.1589 13.7917 22.2573 12.8914 22.398C12.4412 22.4684 12.0051 22.5387 11.5549 22.6372C11.3298 22.6935 11.1048 22.7357 10.8797 22.806C10.7671 22.8341 10.6546 22.8763 10.528 22.9326C10.4717 22.9607 10.4014 22.9889 10.331 23.0311C10.3029 23.0592 10.2607 23.0733 10.2185 23.1014C10.1763 23.1296 10.1341 23.1718 10.0778 23.2421C9.95119 23.3968 9.82458 23.5797 9.71204 23.7485C9.5995 23.9174 9.48696 24.1002 9.38848 24.2831C9.19153 24.6348 9.00865 25.0006 8.83983 25.3663C8.68509 25.7321 8.53034 26.0979 8.40373 26.4777C8.33339 26.6606 8.27712 26.8435 8.23492 27.0404C8.20678 27.1389 8.17865 27.2233 8.15051 27.3218L8.10831 27.4625L8.09424 27.5328C8.09424 27.5469 8.12237 27.5609 8.17865 27.6031H8.19271H9.00865C9.05085 27.5187 9.07899 27.4343 9.12119 27.3499C9.19153 27.167 9.27594 26.9841 9.34628 26.8153C9.48695 26.4496 9.61357 26.0979 9.74018 25.7321C9.86679 25.3804 10.0075 25.0146 10.1622 24.6911C10.2466 24.5223 10.331 24.3675 10.4154 24.1987C10.5139 24.044 10.5983 23.9033 10.7109 23.7626C10.7109 23.7626 10.7249 23.7626 10.7249 23.7485C10.7531 23.7345 10.7953 23.7204 10.8234 23.6923C10.9078 23.6641 11.0063 23.6219 11.1048 23.5938C11.3017 23.5375 11.5127 23.4812 11.7237 23.439C12.1458 23.3406 12.5819 23.2702 13.018 23.1999C13.8902 23.0592 14.7765 22.9467 15.6627 22.8482C17.4353 22.6512 19.2078 22.5106 20.9804 22.4262C21.8667 22.384 22.7529 22.3558 23.6392 22.3699C24.0753 22.384 24.5255 22.398 24.9194 22.4543C25.0179 22.4684 25.1163 22.4965 25.1867 22.5106C25.2007 22.5106 25.2148 22.5106 25.2148 22.5246C25.2429 22.5528 25.2851 22.595 25.3133 22.6231C25.468 22.7779 25.5946 22.9326 25.7353 23.0873C26.2558 23.7485 26.6919 24.5223 27.0577 25.3101C27.3813 26.0416 27.6626 26.8013 27.8033 27.575H28.5067C28.4363 27.1389 28.3238 26.7169 28.1972 26.3089C28.0284 25.8728 27.8596 25.4507 27.6767 25.0287Z" fill="#895B2E"/>
<path d="M23.0621 23.8891C22.6963 23.7485 21.9507 23.6641 20.8816 23.6641C17.8711 23.6641 13.4256 24.2268 13.1865 24.3253C12.2721 24.691 11.1326 26.2385 10.4995 27.589H26.8041C26.5369 26.5339 24.2719 24.3675 23.0621 23.8891Z" fill="#FFF8EE"/>
<path d="M23.1609 23.622C22.7529 23.4672 21.9792 23.3828 20.8678 23.3828C17.8714 23.3828 13.3415 23.9455 13.0602 24.0581C12.0332 24.4801 10.8234 26.126 10.1763 27.575H10.4858C11.1188 26.2386 12.2583 24.6911 13.1727 24.3113C13.4119 24.2128 17.8573 23.6501 20.8678 23.6501C21.937 23.6501 22.6826 23.7204 23.0483 23.8752C24.2582 24.3394 26.5231 26.5199 26.7904 27.575H27.0718C26.8326 26.3652 24.3848 24.1003 23.1609 23.622Z" fill="#E5D0AE"/>
<path d="M28.7314 23.7485C28.5625 24.1002 27.6763 25.0006 26.9307 24.7895C26.5368 24.677 26.6071 26.759 27.5075 27.589H29.1393C29.5895 26.8716 30.2929 24.677 30.3773 24.4519C30.4758 24.1846 28.9002 23.3968 28.7314 23.7485Z" fill="#BA8449"/>
<path d="M30.4626 24.269C30.4344 23.8189 30.1672 23.4953 29.6888 23.3828C29.309 23.2984 28.8026 23.3687 28.676 23.6078C28.4227 24.0862 28.1133 24.6629 26.5799 24.7473C26.4814 24.7473 26.397 24.8458 26.397 24.9443C26.397 25.0428 26.4954 25.1272 26.5939 25.1272C28.1977 25.0568 28.6619 24.4378 28.9995 23.8048C29.0699 23.7485 29.4497 23.6782 29.7592 23.8048C29.9843 23.9033 30.0827 24.058 30.0968 24.2972C30.139 25.1694 29.2246 26.7872 28.7322 27.6031H29.1683C29.717 26.6465 30.5048 25.1694 30.4626 24.269Z" fill="#895B2E"/>
<path opacity="0.15" d="M27.302 27.6313C28.3008 27.3921 29.1871 26.3933 29.2574 24.9724C29.2715 24.7052 28.7229 24.1987 28.7229 24.058C28.7229 23.9174 30.3969 24.0862 30.4813 24.4801C30.5517 24.874 29.4403 27.2514 29.0605 27.6453C28.6947 28.0252 26.7112 27.7719 27.302 27.6313Z" fill="#E3AB5E"/>
<path opacity="0.15" d="M9.68873 25.657C15.8364 29.188 28.0332 25.6007 27.3861 24.4471C26.5279 22.9137 26.1903 21.9571 24.3052 22.0415C22.4342 22.14 10.3921 23.0966 9.89975 23.4624C9.42144 23.8422 8.88686 25.1927 9.68873 25.657Z" fill="#E3AB5E"/>
<path d="M28.0852 22.7778C27.9586 23.65 29.6608 24.8458 30.8143 24.8176C31.7709 24.7895 32.8542 24.3393 32.6994 23.8047C32.5447 23.2561 31.6162 23.9032 31.5318 23.5234C31.4615 23.1576 32.615 22.4683 32.1508 21.9618C31.7147 21.4976 31.2082 22.6934 30.7018 22.5246C30.1953 22.3557 30.8003 21.1881 30.1672 21.1178C29.4216 21.0474 29.703 22.7074 29.1403 22.7356C28.7464 22.7778 28.1274 22.4964 28.0852 22.7778Z" fill="#FCD4C3"/>
<path fill-rule="evenodd" clip-rule="evenodd" d="M29.86 21.0452C29.9526 20.9899 30.0601 20.9664 30.1805 20.9778L30.1817 20.9779L30.1828 20.978C30.2854 20.9894 30.3733 21.0246 30.4433 21.0852C30.5125 21.1451 30.5545 21.2214 30.5803 21.2995C30.6295 21.4488 30.627 21.6317 30.6227 21.7881C30.6222 21.8055 30.6217 21.8225 30.6212 21.8394C30.6169 21.9867 30.6132 22.1141 30.6321 22.2183C30.6521 22.3283 30.6894 22.3722 30.7464 22.3911C30.8123 22.4131 30.8918 22.3971 31.0042 22.3245C31.0995 22.2629 31.1945 22.1767 31.2985 22.0823C31.3182 22.0644 31.3382 22.0462 31.3587 22.0279C31.4778 21.9208 31.6166 21.8011 31.7619 21.7461C31.8384 21.7172 31.924 21.703 32.0135 21.7221C32.1036 21.7413 32.1835 21.7912 32.2534 21.8656L32.2546 21.8668L32.2546 21.8668C32.4094 22.0357 32.4283 22.2272 32.375 22.4079C32.3251 22.5772 32.2115 22.7404 32.0996 22.8824C32.0514 22.9437 32.0008 23.0042 31.9529 23.0615C31.9443 23.0718 31.9357 23.0821 31.9273 23.0922C31.8712 23.1595 31.8202 23.2215 31.7776 23.2796C31.7346 23.3382 31.7041 23.3874 31.6863 23.4283C31.6694 23.4671 31.6687 23.4873 31.6698 23.4953C31.6705 23.4981 31.6712 23.4999 31.6717 23.501C31.6764 23.5034 31.6925 23.5093 31.73 23.5098C31.7972 23.5107 31.8799 23.4957 31.9833 23.4769C32.0093 23.4722 32.0365 23.4672 32.0651 23.4622C32.1941 23.4397 32.3522 23.4165 32.4917 23.4449C32.5647 23.4598 32.6383 23.4897 32.7014 23.5452C32.7648 23.6011 32.8092 23.6757 32.8348 23.7661C32.8893 23.9549 32.8295 24.1296 32.7144 24.2728C32.6018 24.4128 32.431 24.5312 32.2359 24.6273C31.8444 24.8203 31.3141 24.9437 30.8185 24.9583L30.8178 24.9583C30.1991 24.9734 29.4552 24.664 28.8868 24.249C28.6007 24.0401 28.351 23.7988 28.1798 23.5477C28.01 23.2987 27.9073 23.0246 27.946 22.7576L27.9461 22.757L27.9461 22.757C27.9557 22.6929 27.9841 22.6354 28.0331 22.5918C28.0796 22.5504 28.135 22.5304 28.1853 22.5205C28.2814 22.5015 28.3966 22.5129 28.5008 22.5278C28.5527 22.5352 28.6069 22.5443 28.6602 22.5533L28.6679 22.5546C28.7243 22.5641 28.78 22.5734 28.8348 22.5812C28.9462 22.5968 29.0447 22.6044 29.1254 22.5957L29.1293 22.5953L29.1333 22.5951C29.1866 22.5925 29.243 22.5558 29.303 22.4081C29.3525 22.2864 29.3871 22.1314 29.4257 21.9583C29.4329 21.9257 29.4404 21.8924 29.4481 21.8586C29.494 21.6564 29.5502 21.433 29.6506 21.2649C29.7021 21.1786 29.7694 21.0994 29.86 21.0452ZM29.1515 22.8759C29.0363 22.8877 28.9112 22.876 28.7956 22.8598C28.7364 22.8514 28.6772 22.8415 28.6212 22.8321L28.6148 22.831C28.5604 22.8218 28.5093 22.8132 28.461 22.8063C28.356 22.7913 28.2839 22.7878 28.2398 22.7965C28.2324 22.7979 28.2274 22.7995 28.2241 22.8007C28.2006 22.9692 28.2633 23.1707 28.4123 23.3892C28.5607 23.6068 28.7849 23.8262 29.0527 24.0218C29.5921 24.4156 30.2758 24.69 30.8106 24.677C31.2715 24.6634 31.7611 24.5477 32.1115 24.375C32.2874 24.2882 32.4182 24.1921 32.4951 24.0965C32.5694 24.0041 32.587 23.9222 32.5644 23.8439L32.5641 23.843L32.5641 23.843C32.551 23.7965 32.5325 23.7714 32.5154 23.7563C32.4977 23.7407 32.4727 23.7282 32.4356 23.7206C32.3549 23.7042 32.2465 23.7162 32.1135 23.7394C32.0922 23.7431 32.07 23.7472 32.0472 23.7514C31.942 23.7707 31.8238 23.7924 31.7263 23.7911C31.6648 23.7903 31.5929 23.7809 31.529 23.7435C31.4586 23.7024 31.4129 23.6364 31.3945 23.5539L31.3941 23.552L31.3937 23.55C31.3774 23.4652 31.3987 23.3839 31.4284 23.3159C31.4584 23.2471 31.5028 23.1784 31.5508 23.1131C31.5992 23.0472 31.6553 22.9791 31.7112 22.9121C31.72 22.9015 31.7288 22.8909 31.7376 22.8804C31.7855 22.823 31.8331 22.7661 31.8786 22.7084C31.9882 22.5691 32.0716 22.4421 32.1052 22.3283C32.1353 22.2261 32.1245 22.1417 32.0477 22.0576C32.0089 22.0164 31.9778 22.0022 31.9548 21.9973C31.9312 21.9923 31.9017 21.9941 31.8615 22.0093C31.7734 22.0426 31.6722 22.1244 31.5468 22.2371C31.529 22.2531 31.5107 22.2697 31.492 22.2867C31.3888 22.3806 31.2735 22.4855 31.157 22.5608C31.0184 22.6503 30.8447 22.7205 30.6574 22.6581C30.4611 22.5926 30.3841 22.4272 30.3553 22.2686C30.3307 22.1331 30.3356 21.9736 30.3399 21.8326C30.3404 21.8149 30.341 21.7975 30.3414 21.7804C30.346 21.6151 30.3443 21.4824 30.3131 21.3876C30.2986 21.3437 30.2801 21.316 30.2592 21.2979C30.2392 21.2806 30.2079 21.2641 30.1529 21.2578C30.0876 21.2518 30.0411 21.2648 30.0044 21.2867C29.9654 21.31 29.928 21.3492 29.8922 21.4091C29.8181 21.5333 29.7696 21.7134 29.7224 21.921C29.7155 21.9513 29.7087 21.9822 29.7017 22.0135C29.6635 22.1853 29.6229 22.3683 29.5637 22.514C29.4953 22.6823 29.3769 22.8625 29.1515 22.8759Z" fill="#F8A38F"/>
<path opacity="0.5" d="M28.5687 22.7697C28.7516 22.9104 29.4128 23.0932 29.5113 22.8541C29.6238 22.6149 29.7082 22.1366 29.6379 22.0663C29.5816 22.2914 29.5113 22.7134 29.2721 22.8119C29.0892 22.8822 28.6953 22.7978 28.5687 22.7697Z" fill="#FCD4C3"/>
<path opacity="0.5" d="M30.3869 21.8412C30.3588 21.9959 30.2322 22.7275 30.612 22.8259C30.9356 22.9103 31.1747 22.7134 31.428 22.3054C31.2873 22.432 30.9356 22.7415 30.6683 22.629C30.401 22.5024 30.3729 22.221 30.3869 21.8412Z" fill="#FCD4C3"/>
<path opacity="0.25" d="M28.7572 23.8129C30.6704 22.8704 31.0643 24.4038 30.9659 24.7133C30.2062 24.8399 28.8697 24.0521 28.7572 23.8129Z" fill="#FCD4C3"/>
<path opacity="0.5" d="M31.5388 23.2133C31.2152 23.579 31.37 23.8744 31.581 23.9166C31.8483 23.9729 32.2 23.6916 32.1437 23.6916C32.0734 23.6916 31.5528 23.8604 31.4544 23.6072C31.384 23.4102 31.4966 23.2977 31.5388 23.2133Z" fill="#FCD4C3"/>
<path d="M23.0906 4.44748C25.8479 4.19426 27.4657 1.33848 29.1398 1.77459C28.0143 2.47798 26.903 3.88476 25.3414 6.19189C24.9616 6.74054 22.3309 4.51782 23.0906 4.44748Z" fill="#FFF8EE"/>
<path fill-rule="evenodd" clip-rule="evenodd" d="M26.6449 3.0237C25.7128 3.6958 24.6036 4.48957 23.204 4.64799C23.2144 4.66557 23.2269 4.68507 23.2417 4.70645C23.371 4.89251 23.6231 5.14525 23.9219 5.38805C24.2192 5.62969 24.5445 5.84665 24.8108 5.96892C24.9457 6.03088 25.0504 6.06142 25.1212 6.06698C25.1497 6.06924 25.1651 6.06724 25.1724 6.06536C26.4954 4.11101 27.5133 2.77435 28.5072 1.96959C28.3352 2.00457 28.157 2.07022 27.9688 2.16221C27.5668 2.3588 27.1468 2.66171 26.6749 3.00209C26.6649 3.00928 26.6549 3.01648 26.6449 3.0237ZM25.1778 6.06307C25.178 6.06321 25.177 6.06391 25.1745 6.06473C25.1764 6.06334 25.1776 6.06293 25.1778 6.06307ZM27.7834 1.78308C28.2371 1.56125 28.7064 1.44363 29.193 1.57039C29.2746 1.59164 29.3357 1.65937 29.3484 1.74267C29.3612 1.82597 29.3231 1.90887 29.2517 1.95354C28.1702 2.62945 27.0819 3.99692 25.5163 6.31018L25.515 6.31201C25.4065 6.46882 25.2309 6.49896 25.088 6.48772C24.9451 6.47647 24.7879 6.42282 24.6347 6.35245C24.3246 6.21007 23.9686 5.96983 23.6557 5.71557C23.3443 5.46248 23.0573 5.18065 22.8952 4.9473C22.8539 4.88795 22.8176 4.82729 22.7909 4.76738C22.7652 4.70958 22.7426 4.63955 22.7427 4.56505C22.7427 4.4839 22.7705 4.39484 22.8459 4.32742C22.9147 4.26584 22.9994 4.24401 23.0712 4.23737L23.0714 4.23735C24.3846 4.11675 25.4341 3.37648 26.398 2.68139C26.4137 2.6701 26.4293 2.65882 26.445 2.64754C26.9027 2.31737 27.3485 1.99579 27.7834 1.78308ZM23.0989 4.6593C23.0989 4.65929 23.0992 4.6592 23.0999 4.65905C23.0992 4.65924 23.0989 4.65931 23.0989 4.6593Z" fill="#E5D0AE"/>
<path d="M5.85791 3.82844C7.09588 2.67488 9.33267 3.12505 11.1334 3.77217C12.1603 4.13793 13.4967 3.84251 13.5812 4.05353C13.8062 4.5459 12.4698 5.55879 11.3725 5.53065C10.2893 5.51658 8.47453 3.47675 5.85791 3.82844Z" fill="#BA8449"/>
<path fill-rule="evenodd" clip-rule="evenodd" d="M6.33172 3.64896C7.46878 3.61645 8.4434 4.00314 9.25426 4.41713C9.4857 4.5353 9.70465 4.65615 9.90994 4.77022C9.92909 4.78086 9.94812 4.79143 9.96701 4.80194C10.1514 4.90448 10.3238 5.00032 10.4865 5.08435C10.8505 5.2724 11.1403 5.38699 11.3744 5.39003L11.3762 5.39005L11.3762 5.39006C11.8855 5.40312 12.4648 5.17221 12.8919 4.8722C13.1047 4.72277 13.2707 4.56238 13.3689 4.41722C13.4596 4.2831 13.4752 4.1899 13.4605 4.13264C13.4593 4.13228 13.458 4.13191 13.4566 4.13153C13.4253 4.12291 13.3746 4.11624 13.3005 4.11252C13.1954 4.10724 13.0649 4.10853 12.9114 4.11005C12.8485 4.11067 12.7817 4.11134 12.7113 4.1116C12.2379 4.11336 11.625 4.09664 11.0862 3.90474L11.0858 3.9046C10.1913 3.58312 9.19666 3.31378 8.27731 3.26558C7.54172 3.22701 6.86824 3.3305 6.33172 3.64896ZM13.4765 4.1387C13.4764 4.13873 13.4756 4.13836 13.4743 4.13752C13.4759 4.13824 13.4765 4.13867 13.4765 4.1387ZM11.1808 3.63976C10.2747 3.31415 9.25068 3.03487 8.29204 2.98461C7.33469 2.93441 6.42071 3.11182 5.76206 3.72556C5.71725 3.76732 5.70461 3.83327 5.7308 3.88864C5.75699 3.94401 5.816 3.97607 5.87671 3.96791C7.1429 3.79772 8.21959 4.20478 9.12632 4.66772C9.35296 4.78343 9.56813 4.90217 9.77329 5.01616C9.79253 5.02685 9.81169 5.0375 9.83077 5.04811C10.0144 5.1502 10.1906 5.24818 10.3573 5.33431C10.7196 5.52151 11.0625 5.66708 11.3698 5.67135C11.9575 5.68614 12.5947 5.42477 13.0536 5.10244C13.284 4.94062 13.4785 4.75723 13.6019 4.57487C13.7204 4.39975 13.7962 4.18893 13.7103 3.99763C13.6724 3.90797 13.5838 3.87472 13.5312 3.86026C13.4693 3.84322 13.3937 3.83549 13.3146 3.83152C13.2005 3.82579 13.0567 3.82721 12.8989 3.82877C12.8378 3.82938 12.7746 3.83 12.7102 3.83024C12.2376 3.832 11.6689 3.81355 11.1808 3.63976Z" fill="#895B2E"/>
<path d="M24.9761 5.81204C25.6092 5.99492 28.0148 1.28219 29.1824 1.74643C32.8963 3.22355 28.057 8.90696 26.5236 9.03357C24.9761 9.14612 24.6244 5.69949 24.9761 5.81204Z" fill="#FCD4C3"/>
<path fill-rule="evenodd" clip-rule="evenodd" d="M25.0144 5.95792C24.9982 6.02279 24.9889 6.13246 24.9926 6.28019C25 6.57297 25.0573 6.97797 25.173 7.38425C25.2891 7.79182 25.4606 8.18869 25.6893 8.47382C25.9161 8.75659 26.1873 8.9167 26.5127 8.8933C26.6704 8.88008 26.8903 8.79187 27.1558 8.62548C27.4179 8.46114 27.711 8.22913 28.012 7.94667C28.6141 7.38161 29.2378 6.62383 29.699 5.82602C30.1621 5.02496 30.4512 4.20098 30.409 3.49882C30.3881 3.15062 30.2859 2.83416 30.0844 2.56219C29.8827 2.28997 29.5752 2.05399 29.1305 1.87713C29.0342 1.83887 28.9117 1.84767 28.7523 1.92262C28.5927 1.99771 28.4129 2.13184 28.2178 2.31428C27.828 2.67872 27.4045 3.20962 26.9912 3.75834C26.8549 3.93938 26.7194 4.12269 26.587 4.30187C26.3217 4.66073 26.0687 5.00304 25.8454 5.27744C25.6778 5.48328 25.521 5.65858 25.3824 5.77752C25.3133 5.83685 25.2433 5.88705 25.174 5.91909C25.1266 5.94099 25.0719 5.95787 25.0144 5.95792ZM28.6326 1.66802C28.8307 1.57482 29.0388 1.5379 29.2344 1.61569L29.2345 1.61569C29.7183 1.80811 30.072 2.07287 30.3104 2.39467C30.5491 2.71674 30.6662 3.08763 30.6899 3.48195C30.7369 4.26482 30.4168 5.14657 29.9426 5.96683C29.4665 6.79034 28.825 7.56947 28.2045 8.15182C27.8942 8.44307 27.5867 8.68739 27.3052 8.86386C27.0273 9.03806 26.7608 9.15513 26.5352 9.17376L26.5339 9.17387L26.5339 9.17386C26.0859 9.20644 25.733 8.97796 25.4698 8.64987C25.2084 8.32392 25.0238 7.88727 24.9024 7.46132C24.7808 7.03408 24.7194 6.60556 24.7114 6.28727C24.7074 6.13003 24.7161 5.99005 24.7418 5.88831C24.7541 5.83962 24.7742 5.78304 24.8119 5.73917C24.8322 5.71563 24.8612 5.69149 24.9006 5.67829C24.9396 5.66521 24.9789 5.66625 25.014 5.67649C25.0165 5.67655 25.0289 5.67617 25.0559 5.66371C25.0919 5.64703 25.1396 5.61519 25.1991 5.56406C25.3179 5.46209 25.4619 5.30284 25.6272 5.09983C25.8465 4.83042 26.0925 4.49746 26.355 4.14226C26.4884 3.9618 26.626 3.77559 26.7665 3.58907C27.1797 3.0405 27.6161 2.49169 28.0256 2.10878C28.2301 1.91755 28.4347 1.76108 28.6326 1.66802Z" fill="#F8A38F"/>
<path d="M11.5551 5.24932C10.5282 5.69949 6.8846 1.88711 5.3512 4.33491C4.33832 5.95271 7.40511 9.21645 9.59969 9.56815C11.7943 9.91985 12.0897 5.01017 11.5551 5.24932Z" fill="#FCD4C3"/>
<path fill-rule="evenodd" clip-rule="evenodd" d="M11.0946 5.10349C11.2863 5.15727 11.4159 5.15683 11.4987 5.12053C11.5357 5.10417 11.5784 5.09578 11.6237 5.10261C11.6693 5.10946 11.7071 5.13008 11.7367 5.15528C11.7917 5.20218 11.8251 5.2707 11.8474 5.33417C11.8933 5.46529 11.9176 5.6532 11.9244 5.86835C11.938 6.30331 11.881 6.89633 11.7375 7.48433C11.5945 8.07062 11.3622 8.66647 11.0158 9.09638C10.6656 9.53114 10.1891 9.80513 9.57746 9.70711C8.43471 9.52398 7.09198 8.59364 6.16606 7.51816C5.70125 6.97826 5.33259 6.39186 5.14565 5.83013C4.95895 5.26911 4.94817 4.71365 5.232 4.26031L5.23201 4.26028C5.64308 3.60408 6.20565 3.36116 6.82459 3.36781C7.43029 3.37431 8.085 3.61912 8.70398 3.91623C9.01525 4.06564 9.32178 4.23047 9.61253 4.38894C9.65506 4.41212 9.69723 4.43514 9.73901 4.45796C9.98401 4.59177 10.2158 4.71833 10.4313 4.82645C10.6842 4.95334 10.907 5.05084 11.0946 5.10349ZM5.47045 4.40965C5.24785 4.76521 5.24059 5.22438 5.41262 5.74129C5.58441 6.25751 5.92969 6.81236 6.37929 7.33459C7.28219 8.38335 8.57015 9.26073 9.62198 9.4293C10.1076 9.50712 10.4911 9.29929 10.7967 8.91987C11.1063 8.53561 11.3258 7.98493 11.4642 7.41766C11.6021 6.8521 11.6559 6.28451 11.6431 5.87716C11.6367 5.67116 11.6135 5.51748 11.5819 5.42725C11.5771 5.41373 11.5727 5.40309 11.5688 5.39482C11.4039 5.45081 11.2118 5.4286 11.0186 5.37438C10.8044 5.31427 10.5622 5.2069 10.3051 5.07793C10.0848 4.96742 9.84809 4.83813 9.60339 4.70448C9.56177 4.68175 9.51992 4.6589 9.47789 4.63599C9.18746 4.4777 8.88643 4.3159 8.58223 4.16988C7.97028 3.87615 7.3624 3.65496 6.82157 3.64915C6.29399 3.64348 5.8261 3.84194 5.47047 4.40962" fill="#F8A38F"/>
<path d="M27.8409 2.66089C27.6439 3.30801 25.9839 4.98208 26.209 6.41701C26.2934 6.95158 26.8561 8.52718 27.0953 8.47091C27.3344 8.41464 27.9393 8.03481 27.8831 8.11922C27.8268 8.20362 27.039 8.7804 26.7436 8.93515C26.4482 8.7804 25.1961 5.86836 25.379 5.71361C25.9276 5.22124 27.6017 2.68902 27.8409 2.66089Z" fill="#FCD4C3"/>
<path d="M5.39795 4.4335C6.52338 3.74418 8.57728 4.0396 9.77305 5.20723C10.1951 5.62927 10.3217 7.03605 9.36508 7.99267C8.98525 8.3725 11.6159 6.64215 11.63 6.13571C11.63 5.62927 11.4612 5.48859 11.0673 5.34791C9.6183 4.81333 8.09898 3.57536 6.7766 3.6035C5.91846 3.61757 5.52456 4.20842 5.39795 4.4335Z" fill="#FCD4C3"/>
<path opacity="0.25" d="M28.2962 2.29164C30.8565 3.69842 26.7347 5.83674 27.0442 8.49556C26.5096 8.43929 25.1872 5.86487 25.5108 5.63979C25.9609 5.3303 27.8601 2.1791 28.2962 2.29164Z" fill="#FCD4C3"/>
<path d="M8.54428 10.9328C8.58648 10.7499 8.61462 10.5529 8.61462 10.37C8.62869 10.1731 8.64276 9.97614 8.68496 9.79326C8.69903 9.69478 8.72716 9.59631 8.76937 9.5119C8.81157 9.4275 8.8397 9.32902 8.86784 9.24461C8.93818 9.06173 9.00852 8.87885 9.09293 8.71004C9.41649 7.99258 9.78225 7.31732 10.2324 6.68427C10.6826 6.05121 11.175 5.46036 11.7377 4.95392C12.3004 4.43341 12.9616 4.01137 13.665 3.73002C14.3684 3.43459 15.128 3.25171 15.8877 3.1673C16.6474 3.06883 17.407 3.05476 18.1667 3.06883C18.9263 3.0829 19.686 3.1251 20.4457 3.22358C21.2053 3.32205 21.965 3.49086 22.6965 3.75815C23.0623 3.89883 23.414 4.05358 23.7516 4.25053C24.0892 4.44748 24.4128 4.68663 24.7082 4.96799C25.0037 5.23528 25.2569 5.55884 25.4679 5.89647C25.6789 6.23409 25.8337 6.59986 25.9743 6.97969C26.101 7.34545 26.1994 7.72529 26.2838 8.10512C26.3682 8.48495 26.4245 8.85071 26.5089 9.20241C26.5511 9.37122 26.6074 9.54004 26.6637 9.70885C26.734 9.87767 26.8043 10.0605 26.8606 10.2434C26.9872 10.5951 27.1279 10.9609 27.2545 11.3126C27.7469 12.7475 28.183 14.2106 28.4503 15.7018C28.5769 16.4473 28.6754 17.207 28.6894 17.9667C28.7035 18.7263 28.6332 19.486 28.4221 20.2175C28.3659 20.4004 28.3096 20.5833 28.2393 20.7521C28.1689 20.9209 28.0704 21.0897 28.0142 21.2726C27.986 21.3711 27.9579 21.4555 27.9157 21.5399C27.8735 21.6243 27.8172 21.7087 27.761 21.7931C27.6625 21.9479 27.5359 22.1167 27.4093 22.2574C26.9169 22.8482 26.2838 23.3265 25.6086 23.6923C24.9333 24.0581 24.2018 24.3394 23.4703 24.5504C22.7247 24.7614 21.9931 24.9303 21.2335 25.0709C20.4738 25.2116 19.7282 25.3101 18.9826 25.4086C18.6028 25.4508 18.223 25.493 17.8431 25.5352L17.2804 25.5914C17.0975 25.6055 16.9006 25.6196 16.7036 25.6337C15.1562 25.7181 13.6087 25.493 12.1316 25.085C11.386 24.874 10.6685 24.6208 9.96513 24.3113C9.26174 24.0018 8.57242 23.6501 7.92529 23.2281C7.60173 23.017 7.27817 22.7779 6.98275 22.5106C6.91241 22.4403 6.828 22.3699 6.75766 22.2996C6.68732 22.2292 6.63105 22.1448 6.56071 22.0745C6.4341 21.9197 6.30749 21.765 6.19495 21.6102C5.75885 20.9631 5.40715 20.2035 5.29461 19.4157C5.168 18.6138 5.28054 17.7979 5.50563 17.0523C5.73071 16.2926 6.08241 15.6033 6.44817 14.928C6.828 14.2668 7.23597 13.6197 7.62987 12.9867C7.82682 12.6631 8.0097 12.3395 8.17852 12.016C8.33326 11.5939 8.47394 11.2704 8.54428 10.9328ZM9.10699 11.0594C9.00852 11.4533 8.8397 11.819 8.65682 12.1707C8.47394 12.5224 8.27699 12.846 8.08004 13.1695C7.68614 13.8167 7.27817 14.4497 6.92648 15.0968C6.57478 15.744 6.25122 16.4192 6.05427 17.1085C5.85732 17.7979 5.77291 18.5153 5.88546 19.2187C5.998 19.908 6.29343 20.5692 6.71546 21.146C6.81394 21.2867 6.94055 21.4274 7.05309 21.568C7.10936 21.6384 7.1797 21.7087 7.23597 21.765C7.29224 21.8353 7.36258 21.8916 7.41885 21.9479C7.67207 22.187 7.9675 22.398 8.27699 22.6091C8.89598 23.003 9.5431 23.3547 10.2324 23.6501C10.9077 23.9455 11.6111 24.1987 12.3285 24.3957C13.046 24.5926 13.7634 24.7474 14.495 24.8459C15.2265 24.9443 15.958 24.9725 16.6896 24.9443C16.8724 24.9303 17.0553 24.9162 17.2382 24.9021L17.8009 24.8459C18.1667 24.8177 18.5465 24.7755 18.9263 24.7333C19.6719 24.663 20.4175 24.5645 21.1491 24.4379C21.8947 24.3113 22.6121 24.1706 23.3296 23.9736C24.047 23.7767 24.7504 23.5516 25.4257 23.2562C26.0869 22.9467 26.734 22.5669 27.2545 22.0464C27.3811 21.9197 27.5077 21.7791 27.6203 21.6384C27.6765 21.568 27.7328 21.4836 27.7891 21.4133C27.8454 21.343 27.9157 21.2726 27.972 21.1882C28.0986 21.0335 28.1549 20.8647 28.2393 20.6958C28.3096 20.527 28.3659 20.3441 28.4081 20.1613C28.591 19.4297 28.6332 18.6701 28.591 17.9245C28.5347 17.1789 28.4081 16.4333 28.2252 15.7018C27.8735 14.2387 27.353 12.8319 26.8043 11.4392C26.6637 11.0875 26.523 10.7358 26.3823 10.3982L26.1572 9.87767C26.0869 9.69478 26.0165 9.49783 25.9603 9.31495C25.8618 8.93512 25.7915 8.56936 25.7071 8.20359C25.6367 7.83783 25.5382 7.48613 25.4257 7.1485C25.1865 6.45918 24.8348 5.84019 24.3143 5.34782C23.8079 4.85545 23.1748 4.47561 22.4996 4.19426C21.8243 3.9129 21.0928 3.73002 20.3613 3.60341C19.6297 3.4768 18.8841 3.40646 18.1386 3.36425C17.393 3.33612 16.6333 3.32205 15.8877 3.40646C15.1421 3.49086 14.4106 3.64561 13.7212 3.94104C13.0319 4.22239 12.3989 4.63036 11.8643 5.1368C11.3156 5.64324 10.8795 6.26223 10.556 6.90935C10.2184 7.57054 9.9792 8.27393 9.76818 8.97732C9.71191 9.14614 9.66971 9.32902 9.6275 9.5119C9.59937 9.59631 9.5853 9.69478 9.55716 9.77919C9.5431 9.82139 9.5431 9.87767 9.52903 9.91987C9.51496 9.96207 9.50089 10.0043 9.47276 10.0465C9.40242 10.2153 9.31801 10.3841 9.2336 10.5529C9.20547 10.7077 9.1492 10.8765 9.10699 11.0594Z" fill="#E5D0AE"/>
<path d="M8.82602 11.0031C8.23517 13.6198 3.07227 17.7557 6.9972 21.9901C8.33364 23.425 12.6665 25.6337 17.0135 25.2257C28.3241 24.1566 31.1798 21.4274 26.4108 9.72296C25.6371 7.8238 26.5093 3.43463 18.1952 3.18141C14.7064 3.08294 10.5142 3.56124 8.82602 11.0031Z" fill="#FFF8EE"/>
<path d="M10.7816 5.88239C11.1474 5.31968 11.6257 4.85544 12.1603 4.47561C12.6948 4.09578 13.2998 3.81442 13.9047 3.58934C15.1426 3.13916 16.4369 2.97035 17.7311 2.92815C19.0254 2.90001 20.3337 2.99849 21.5998 3.32205C22.2328 3.49086 22.8518 3.71595 23.4427 4.03951C24.0335 4.36307 24.5822 4.75697 25.0464 5.24934C25.5106 5.74171 25.8905 6.29036 26.1859 6.89528C26.4813 7.5002 26.6923 8.13325 26.8471 8.7663C27.0018 9.41342 27.1003 10.0465 27.1847 10.6795C27.2269 11.0031 27.2691 11.3126 27.3395 11.608C27.3676 11.7628 27.4098 11.9034 27.452 12.016C27.4661 12.0441 27.4801 12.0722 27.4942 12.1004L27.5083 12.1144L27.5223 12.1285L27.5505 12.1848L27.6771 12.3958C28.2961 13.5353 28.7603 14.7873 28.9291 16.0956C29.0135 16.7428 29.0276 17.404 28.9573 18.0651C28.8869 18.7123 28.7181 19.3594 28.4649 19.9643C28.3383 20.2597 28.1976 20.5552 28.0288 20.8506C27.9866 20.9209 27.9444 20.9913 27.9022 21.0616C27.86 21.1319 27.8178 21.1882 27.7615 21.2726C27.7474 21.2867 27.7474 21.3007 27.7334 21.3148C27.6912 21.2867 27.7896 21.4133 27.5083 21.3148C27.4379 21.1882 27.4801 21.2163 27.4661 21.1882C27.4661 21.146 27.4801 21.1319 27.4801 21.1038L27.5223 20.9772L27.5927 20.7521C27.7896 20.1472 27.9584 19.5423 28.0288 18.9092C28.0569 18.5997 28.071 18.2902 28.0288 17.9667C27.9866 17.6572 27.9022 17.3618 27.7474 17.1085C27.7052 17.0382 27.663 16.9819 27.6068 16.9256C27.5505 16.8694 27.5083 16.8131 27.452 16.7568C27.3395 16.6443 27.2269 16.5458 27.1003 16.4473C26.8471 16.2504 26.5798 16.0956 26.2984 15.955C25.7217 15.7017 25.0886 15.6033 24.4696 15.6314C23.8366 15.6595 23.2176 15.7862 22.6127 15.955C22.3032 16.0394 22.0077 16.1379 21.6983 16.2363C21.5435 16.2926 21.3888 16.3348 21.234 16.377C21.1496 16.4051 21.0793 16.4192 20.9808 16.4333C20.8964 16.4473 20.8261 16.4614 20.7416 16.4614C20.0945 16.5317 19.4615 16.574 18.8003 16.5599C18.1532 16.5458 17.506 16.4755 16.8589 16.3348C16.2259 16.1941 15.5928 15.9831 15.002 15.7158C14.4111 15.4345 13.8484 15.0968 13.342 14.6748C12.8355 14.2528 12.3853 13.7745 11.9914 13.2539C11.2036 12.1989 10.6831 10.975 10.4299 9.69478C10.3033 9.04766 10.247 8.40054 10.2752 7.73935C10.2892 7.41579 10.3314 7.07816 10.4018 6.7546C10.4862 6.50138 10.5987 6.17782 10.7816 5.88239ZM11.063 6.06528C10.9082 6.3185 10.8097 6.59985 10.7394 6.90935C10.6691 7.20477 10.6409 7.51426 10.6128 7.82376C10.5847 8.44274 10.655 9.07579 10.7816 9.68071C11.0489 10.9046 11.5694 12.0722 12.3291 13.057C12.7089 13.5494 13.145 13.9995 13.6233 14.3934C14.1016 14.7873 14.6362 15.125 15.1989 15.3923C15.7616 15.6595 16.3525 15.8565 16.9715 15.9972C17.5764 16.1379 18.2094 16.2223 18.8284 16.2363C19.4615 16.2645 20.0805 16.2363 20.7135 16.166L20.9527 16.1379C21.023 16.1238 21.0933 16.1097 21.1777 16.0956C21.3325 16.0534 21.4732 16.0112 21.6279 15.969C21.9374 15.8846 22.2469 15.7862 22.5564 15.7158C23.1754 15.5611 23.8225 15.4485 24.4837 15.4485C25.1308 15.4485 25.792 15.5611 26.3828 15.8424C26.6783 15.9831 26.9596 16.1519 27.2129 16.3489C27.3395 16.4473 27.4661 16.5599 27.5786 16.6724C27.6349 16.7287 27.6912 16.785 27.7474 16.8412C27.8037 16.8975 27.86 16.9679 27.9022 17.0382C28.0851 17.3195 28.1835 17.6431 28.2257 17.9807C28.2679 18.3184 28.2679 18.6419 28.2398 18.9655C28.1835 19.6126 28.0429 20.2457 27.86 20.8646L27.7896 21.0897L27.7615 21.2023C27.7615 21.2163 27.7474 21.2445 27.7615 21.2445C27.7474 21.2304 27.7896 21.2726 27.7334 21.146C27.4661 21.0475 27.5645 21.1741 27.5364 21.1319C27.5645 21.0757 27.6068 21.0053 27.649 20.935C27.6912 20.8646 27.7193 20.7943 27.7615 20.724C27.9022 20.4426 28.0288 20.1613 28.1413 19.8658C28.5634 18.6982 28.6478 17.418 28.4368 16.1941C28.3383 15.5751 28.1554 14.9843 27.9303 14.4075C27.7052 13.8307 27.4379 13.268 27.1284 12.7194L27.0159 12.5224L26.9878 12.4661L26.9737 12.438L26.9596 12.4099C26.9315 12.3677 26.9174 12.3255 26.9034 12.2833C26.833 12.1144 26.7908 11.9316 26.7486 11.7768C26.6783 11.4533 26.622 11.1297 26.5798 10.8202C26.4813 10.1872 26.3969 9.56817 26.2422 8.96325C26.1015 8.35833 25.9045 7.76748 25.6373 7.21884C25.37 6.67019 25.0464 6.16375 24.6244 5.71358C23.8084 4.82731 22.683 4.23646 21.4872 3.88476C20.2915 3.53306 19.0254 3.42052 17.7593 3.42052C16.5072 3.42052 15.2411 3.57527 14.0594 3.96917C13.4686 4.16612 12.9059 4.43341 12.3853 4.7851C11.8508 5.12273 11.4006 5.54476 11.063 6.06528Z" fill="#E5BFA1"/>
<path d="M10.6131 5.81204C10.8241 5.47442 11.0773 5.20713 11.3305 4.95391C11.5978 4.70068 11.8792 4.48967 12.1746 4.29272C12.7654 3.89882 13.3985 3.58933 14.0597 3.35017C15.3821 2.88593 16.7748 2.70305 18.1534 2.73119C19.518 2.77339 20.8967 2.9422 22.219 3.42051C22.8802 3.65966 23.5133 3.96916 24.0901 4.39119C24.6668 4.79916 25.1733 5.3056 25.5953 5.88238C26.0033 6.45917 26.3128 7.09222 26.5519 7.75341C26.777 8.4146 26.9318 9.08985 27.0443 9.75104C27.1006 10.0887 27.1428 10.4122 27.199 10.7499C27.2553 11.0734 27.2975 11.411 27.3538 11.7065C27.3819 11.8612 27.4241 12.0019 27.4804 12.1144L27.4945 12.1426L27.5085 12.1707L27.5367 12.227L27.5929 12.3395L27.7196 12.5646C27.8743 12.86 28.029 13.1695 28.1697 13.479C28.437 14.098 28.6621 14.7592 28.8168 15.4345C28.9716 16.0956 29.0419 16.785 29.0419 17.4743C29.0279 18.8529 28.648 20.2175 27.9306 21.3851C27.8743 21.4696 27.7618 21.5118 27.6774 21.4555C27.5929 21.3992 27.5648 21.3007 27.5929 21.2304C27.7899 20.724 28.0009 20.2457 28.1557 19.7533C28.3245 19.2609 28.437 18.7545 28.437 18.2621C28.437 17.7697 28.3104 17.2914 28.015 16.9116C28.0009 16.8834 27.9728 16.8553 27.9587 16.8412L27.9306 16.8131L27.9024 16.7709C27.8602 16.7287 27.818 16.6865 27.7758 16.6443C27.6914 16.5599 27.5929 16.4755 27.4945 16.4051C27.2975 16.2504 27.0724 16.1097 26.8614 15.969C25.9751 15.4204 25.0326 14.9421 24.076 14.4638C23.1194 13.9995 22.1487 13.5494 21.1921 13.1133C19.2507 12.227 17.3094 11.3407 15.3961 10.3841C14.4395 9.89172 13.497 9.39935 12.5685 8.8085C12.0761 8.4568 11.6259 8.14731 11.1898 7.75341C10.9788 7.55646 10.7678 7.33137 10.599 7.02188C10.5146 6.86713 10.4442 6.68425 10.4302 6.45917C10.4302 6.34662 10.4302 6.23408 10.4583 6.12154C10.4724 6.06527 10.4864 6.00899 10.5146 5.95272C10.5287 5.91052 10.5709 5.82611 10.5849 5.81204H10.6131ZM11.4009 6.29035C11.3727 6.33255 11.3868 6.31849 11.3727 6.33256C11.3727 6.34662 11.3727 6.34662 11.3587 6.36069C11.3587 6.37476 11.3587 6.38883 11.3587 6.41696C11.3587 6.45917 11.3868 6.52951 11.4149 6.61391C11.4993 6.78273 11.6541 6.96561 11.8229 7.12035C12.1746 7.45798 12.5826 7.76748 13.0187 8.04883C13.8768 8.62561 14.8053 9.13206 15.7478 9.6385C17.6188 10.6232 19.5461 11.5377 21.4594 12.4661C22.416 12.9304 23.3726 13.4087 24.3292 13.887C25.2858 14.3794 26.2284 14.8717 27.1428 15.4767C27.3679 15.6314 27.5929 15.7861 27.804 15.969C27.9165 16.0534 28.015 16.1519 28.1275 16.2504C28.1838 16.3067 28.226 16.3489 28.2823 16.4192L28.3104 16.4614L28.3526 16.5036C28.3807 16.5317 28.3948 16.5599 28.4229 16.588C28.5918 16.8272 28.7184 17.0945 28.8028 17.3758C28.8872 17.6572 28.9013 17.9526 28.9013 18.234C28.8872 18.7967 28.7324 19.3453 28.5496 19.8658C28.3667 20.3863 28.1416 20.8646 27.9306 21.357L27.5929 21.1882C28.2541 20.0628 28.5636 18.7685 28.5496 17.4743C28.5214 16.18 28.1838 14.8999 27.6352 13.7182C27.4945 13.4227 27.3538 13.1273 27.185 12.846L26.9318 12.3958C26.8333 12.2129 26.7911 12.03 26.7489 11.8612C26.6645 11.5095 26.6082 11.186 26.5519 10.8483C26.4957 10.5107 26.4394 10.1871 26.3831 9.87765C26.2565 9.23053 26.1018 8.61155 25.8767 8.00663C25.6516 7.41578 25.3562 6.839 24.9904 6.34662C24.6246 5.84018 24.1604 5.40408 23.6539 5.05238C23.1334 4.70068 22.5707 4.41933 21.9658 4.22238C20.756 3.81441 19.4617 3.67373 18.1675 3.65966C17.5204 3.65966 16.8873 3.6878 16.2543 3.80034C15.6212 3.89882 15.0022 4.05356 14.4114 4.26458C13.8205 4.4756 13.2437 4.74289 12.7232 5.08052C12.4559 5.24933 12.2168 5.43221 11.9917 5.64323C11.7666 5.85425 11.5556 6.06527 11.4009 6.29035Z" fill="#895B2E"/>
<path d="M10.9218 5.96676C9.37433 8.3583 11.2172 17.5446 20.9381 16.3066C21.9651 16.18 25.3835 14.3512 27.6907 16.9115C28.9427 18.3183 27.2546 21.8775 27.6907 21.1319C28.183 20.316 30.0681 17.1648 27.2405 12.3114C26.3402 10.7498 27.8313 3.25167 18.0964 3.15319C14.3684 3.13913 11.9487 4.3771 10.9218 5.96676Z" fill="#BA8449"/>
<path opacity="0.15" d="M10.6641 6.54821C13.4636 4.74752 21.9324 4.87413 24.6334 9.19296C26.4341 12.0628 23.1423 19.153 21.9183 20.0533C20.7085 20.9537 19.0204 21.7415 14.5749 20.6723C10.8048 19.772 16.4741 16.2691 12.0568 15.7626C8.01932 15.2984 7.61135 8.5177 10.6641 6.54821Z" fill="#E3AB5E"/>
<path opacity="0.4" d="M5.65821 4.67494C7.51516 5.15325 7.21974 8.36072 8.31703 8.61394C9.42839 8.86716 10.8774 5.96918 11.0181 5.33613C8.87974 4.42172 7.88092 3.35256 6.34753 3.66205C5.84109 3.76053 5.1377 4.53426 5.65821 4.67494Z" fill="#FCD4C3"/>
<path opacity="0.25" d="M18.4895 13.5165C18.4895 13.7275 18.0815 13.9104 17.5751 13.9104C17.0686 13.9104 16.6606 13.7415 16.6606 13.5165C16.6606 13.3054 17.0686 13.1226 17.5751 13.1226C18.0815 13.1366 18.4895 13.3054 18.4895 13.5165Z" fill="#E3AB5E"/>
<path d="M16.8721 12.3677C17.0831 12.227 18.2086 12.2692 18.3492 12.4239C18.4899 12.5646 18.7994 13.1555 18.4477 13.4087C18.3211 13.4931 18.3211 13.1414 18.0397 13.1977C17.7021 13.268 17.885 13.7041 17.6177 13.7041C17.2097 13.69 17.6036 13.2258 17.2519 13.1695C16.9847 13.1133 16.9284 13.3806 16.8018 13.3524C16.3938 13.268 16.5767 12.5646 16.8721 12.3677Z" fill="#F8A38F"/>
<path d="M17.4799 12.2841C17.2126 12.2841 16.9594 12.3122 16.875 12.3685C16.5795 12.5654 16.3967 13.2688 16.7906 13.3391H16.8046C16.9031 13.3391 16.9594 13.1422 17.1704 13.1422C17.1985 13.1422 17.2126 13.1422 17.2407 13.1422C17.5924 13.1985 17.2126 13.6768 17.6065 13.6768C17.8597 13.6768 17.6768 13.2547 18.0285 13.1844C18.0567 13.1844 18.0707 13.1844 18.0848 13.1844C18.2818 13.1844 18.3099 13.4095 18.3943 13.4095C18.4084 13.4095 18.4224 13.4095 18.4365 13.3954C18.8023 13.1422 18.4928 12.5514 18.338 12.4107C18.2677 12.3403 17.8597 12.2841 17.4799 12.2841ZM17.4799 12.3825C17.9019 12.3825 18.2255 12.4388 18.2818 12.481C18.3662 12.5654 18.535 12.8749 18.5068 13.1C18.4928 13.1844 18.4646 13.2547 18.4084 13.2969C18.4084 13.2829 18.3943 13.2829 18.3802 13.2688C18.324 13.1985 18.2396 13.0859 18.0848 13.0859C18.0567 13.0859 18.0285 13.0859 18.0145 13.1C17.7753 13.1563 17.7331 13.3391 17.6909 13.4658C17.6628 13.5924 17.6487 13.5924 17.6065 13.5924C17.494 13.5924 17.494 13.5642 17.494 13.4376C17.494 13.311 17.494 13.1141 17.2407 13.0719C17.2126 13.0719 17.1845 13.0719 17.1563 13.0719C17.0016 13.0719 16.9031 13.1703 16.8328 13.2266C16.8187 13.2407 16.7906 13.2688 16.7765 13.2688C16.7202 13.2547 16.664 13.2266 16.6358 13.1141C16.5936 12.9171 16.7343 12.5795 16.889 12.4669C16.9734 12.4107 17.1704 12.3825 17.4799 12.3825Z" fill="#F8A38F"/>
<path opacity="0.25" d="M26.2552 16.0605C26.6772 18.7615 23.301 22.1519 18.757 22.8553C14.2131 23.5446 10.865 19.4931 10.4429 16.778C10.0209 14.0769 12.8063 15.1039 17.3503 14.4146C21.8942 13.7252 25.8332 13.3595 26.2552 16.0605Z" fill="#F7E8D0"/>
<path opacity="0.5" d="M14.3985 20.172C14.2719 19.975 14.2015 19.7359 14.1312 19.5108C14.0608 19.2857 13.9905 19.0606 13.9202 18.8355C13.7795 18.3854 13.6247 17.9352 13.4137 17.5132C13.2027 17.0911 12.9354 16.6972 12.5978 16.4018C12.2602 16.1064 11.8522 15.9094 11.4161 15.825C11.2613 15.7688 11.191 15.614 11.2473 15.4733C11.3035 15.3327 11.4442 15.2623 11.5708 15.2904C12.5837 15.5296 13.6388 15.6421 14.6798 15.6562C15.7209 15.6703 16.79 15.614 17.8451 15.4874C18.9002 15.3608 19.9412 15.1779 20.9682 14.9388C21.9951 14.6996 23.0221 14.4182 24.0209 14.0806C24.1756 14.0243 24.3304 14.1087 24.3726 14.2494C24.4148 14.362 24.3726 14.4745 24.2882 14.5449C24.26 14.573 24.2038 14.6152 24.1616 14.6574C24.1194 14.6996 24.0772 14.7559 24.0349 14.7981C23.9505 14.8966 23.8661 15.0091 23.7817 15.1216C23.6129 15.3467 23.4582 15.5718 23.3175 15.811C23.008 16.2752 22.7266 16.7535 22.4593 17.2459C22.1921 17.7383 21.9248 18.2306 21.6856 18.723C21.559 18.9762 21.4465 19.2294 21.348 19.4827C21.2917 19.6093 21.2495 19.7359 21.1932 19.8766C21.1651 19.9469 21.151 20.0032 21.137 20.0735C21.137 20.0735 21.137 20.0876 21.137 20.1017C21.137 20.1157 21.137 20.1157 21.1229 20.1298C21.1229 20.1439 21.1088 20.1579 21.0948 20.1579C21.0807 20.172 21.0666 20.1861 21.0385 20.2001C21.0104 20.2283 20.9682 20.2423 20.94 20.2564C20.6727 20.3689 20.3914 20.4252 20.1241 20.4815C19.8568 20.5378 19.5754 20.58 19.2941 20.6081C18.7314 20.6784 18.1827 20.7347 17.62 20.7488C17.0573 20.7769 16.4946 20.7769 15.9459 20.7206C15.6646 20.6925 15.3832 20.6503 15.1159 20.58C14.9753 20.5378 14.8486 20.4956 14.722 20.4252C14.5954 20.3689 14.4829 20.2845 14.3985 20.172ZM14.4125 20.1579C14.4829 20.2705 14.6095 20.3549 14.7361 20.4111C14.8627 20.4674 14.9893 20.5096 15.13 20.5518C15.3973 20.6222 15.6786 20.6644 15.96 20.6784C16.5227 20.7206 17.0714 20.7206 17.6341 20.6925C18.1968 20.6644 18.7454 20.594 19.2941 20.5237C19.5614 20.4815 19.8427 20.4393 20.11 20.3689C20.3773 20.2986 20.6587 20.2423 20.8978 20.1298C20.926 20.1157 20.9541 20.1017 20.9822 20.0735C21.0104 20.0594 21.0244 20.0454 21.0244 20.0313C21.0385 19.961 21.0526 19.8906 21.0807 19.8203C21.1229 19.6796 21.1651 19.553 21.2073 19.4123C21.3058 19.145 21.4043 18.8918 21.5168 18.6245C21.7419 18.104 21.967 17.5976 22.2061 17.0911C22.4453 16.5847 22.6985 16.0782 22.9658 15.5859C23.0924 15.3327 23.2331 15.0935 23.3878 14.8403C23.4582 14.7137 23.5426 14.5871 23.627 14.4745C23.6692 14.4182 23.7114 14.3479 23.7536 14.2916C23.8099 14.2354 23.8521 14.165 23.9224 14.1087L24.1897 14.5871C23.1627 14.9388 22.1358 15.2201 21.0807 15.4593C20.0256 15.6984 18.9705 15.8954 17.9014 16.022C16.8322 16.1486 15.749 16.2189 14.6658 16.1908C13.5825 16.1627 12.4993 16.036 11.4302 15.7828L11.5849 15.2201C12.0491 15.5015 12.4712 15.7688 12.7947 16.1486C13.1183 16.5284 13.3434 16.9645 13.5263 17.4147C13.6951 17.8649 13.8358 18.3291 13.9483 18.7793C14.0046 19.0044 14.0749 19.2435 14.1312 19.4686C14.2156 19.7359 14.2859 19.961 14.4125 20.1579Z" fill="#D8CAB2"/>
<path opacity="0.5" d="M14.4007 20.1737C14.2741 19.9768 14.2037 19.7517 14.1334 19.5266C14.0631 19.3015 14.0068 19.0764 13.9364 18.8513C13.7958 18.4012 13.6551 17.951 13.4441 17.5149C13.2471 17.0929 12.9798 16.699 12.6563 16.3895C12.3186 16.0659 11.9107 15.8408 11.4746 15.7423V15.7283C11.4042 15.7001 11.362 15.6157 11.3902 15.5454C11.4183 15.4751 11.4886 15.4329 11.559 15.4469C12.5859 15.6861 13.641 15.7986 14.7102 15.8127C15.7793 15.8268 16.8344 15.7705 17.8895 15.6439C18.9446 15.5173 19.9856 15.3203 21.0266 15.0952C22.0677 14.8561 23.0946 14.5747 24.0934 14.2371C24.1638 14.2089 24.2482 14.2512 24.2763 14.3215C24.2904 14.3778 24.2763 14.434 24.2341 14.4762C24.1497 14.5466 24.0512 14.6591 23.9668 14.7576C23.8824 14.8561 23.798 14.9827 23.7136 15.0812C23.5588 15.3062 23.4041 15.5454 23.2634 15.7845C22.968 16.2488 22.6866 16.7412 22.4194 17.2335C22.1521 17.7259 21.8988 18.2183 21.6738 18.7247C21.5612 18.9779 21.4487 19.2312 21.3361 19.4844C21.2799 19.611 21.2377 19.7376 21.1954 19.8783C21.1673 19.9486 21.1532 20.0049 21.1392 20.0752C21.1251 20.1315 21.0829 20.1456 21.0548 20.1737C21.0266 20.2019 20.9844 20.2159 20.9563 20.23C20.689 20.3425 20.4076 20.3988 20.1404 20.4551C19.8731 20.5113 19.5917 20.5535 19.3104 20.5958C18.7617 20.6661 18.199 20.7224 17.6363 20.7505C17.0736 20.7786 16.5109 20.7786 15.9622 20.7224C15.6809 20.6942 15.3995 20.652 15.1322 20.5817C14.9915 20.5395 14.8649 20.4973 14.7383 20.441C14.5976 20.3707 14.471 20.2863 14.4007 20.1737ZM14.4007 20.1596C14.471 20.2722 14.5976 20.3566 14.7242 20.4269C14.8509 20.4832 14.9775 20.5254 15.1181 20.5676C15.3854 20.638 15.6668 20.6802 15.9481 20.6942C16.5109 20.7505 17.0595 20.7364 17.6222 20.7083C18.1849 20.6802 18.7336 20.6239 19.2963 20.5395C19.5636 20.4973 19.8449 20.4551 20.1263 20.3847C20.3936 20.3285 20.6749 20.2581 20.9141 20.1456C20.9422 20.1315 20.9704 20.1174 20.9985 20.0893C21.0266 20.0752 21.0548 20.0471 21.0548 20.033C21.0688 19.9627 21.0829 19.8924 21.111 19.822C21.1532 19.6813 21.1954 19.5547 21.2517 19.4281C21.3502 19.1608 21.4627 18.9076 21.5753 18.6544C21.8004 18.1339 22.0395 17.6415 22.2927 17.1351C22.546 16.6286 22.7992 16.1362 23.0805 15.6439C23.2212 15.3906 23.3619 15.1515 23.5166 14.9264C23.587 14.7998 23.6714 14.6873 23.7558 14.5747C23.8402 14.4622 23.9246 14.3496 24.0512 14.2371L24.1919 14.4903C23.179 14.842 22.138 15.1234 21.097 15.3625C20.056 15.6017 19.0009 15.7845 17.9317 15.9252C16.8626 16.0518 15.7934 16.1222 14.7102 16.094C13.641 16.0659 12.5578 15.9534 11.5027 15.7142L11.573 15.4469C12.0373 15.6298 12.4593 15.9112 12.7829 16.2769C13.1064 16.6427 13.3456 17.0647 13.5285 17.5008C13.7114 17.9369 13.852 18.3871 13.9786 18.8513C14.0349 19.0764 14.1053 19.3015 14.1756 19.5407C14.2037 19.7376 14.2741 19.9627 14.4007 20.1596Z" fill="#D8CAB2"/>
<path d="M14.4098 20.1612C15.1272 21.2867 20.9935 20.5129 21.092 20.0628C21.3452 18.9233 23.4554 14.8999 24.1307 14.3372C22.9208 14.7592 16.6325 16.7709 11.5259 15.547C13.8189 16.3207 13.8471 19.289 14.4098 20.1612Z" fill="#333333"/>
<path d="M16.8155 20.7521C15.6056 20.7521 14.8178 20.5833 14.5084 20.2457C14.4802 20.2175 14.4802 20.0487 14.6209 19.7252C14.9585 18.9514 15.9995 17.6291 17.8002 17.5165C17.9268 17.5165 18.0394 17.5024 18.1519 17.5024C20.2621 17.5024 21.5282 18.5716 21.5282 18.7545C21.5001 18.8108 21.4719 18.8952 21.4297 19.0077C21.3172 19.275 21.1484 19.697 20.9936 20.1472C20.8107 20.3301 18.7006 20.7521 16.8155 20.7521Z" fill="#FCD4C3"/>
<path d="M18.1523 17.4321C18.0257 17.4321 17.9131 17.4321 17.7865 17.4462C15.3247 17.6009 14.1852 20.0347 14.4384 20.3301C14.8042 20.724 15.7467 20.8647 16.8159 20.8647C18.715 20.8647 21.0081 20.4286 21.0784 20.2176C21.2894 19.5845 21.5286 19.064 21.6271 18.8108C21.7115 18.5576 20.2906 17.4181 18.1523 17.4321ZM18.1523 17.615C20.0374 17.615 21.3035 18.5154 21.4301 18.7826C21.402 18.8389 21.3738 18.9093 21.3457 18.9937C21.2332 19.261 21.0643 19.6549 20.9096 20.105C20.6142 20.2738 18.6447 20.6537 16.8159 20.6537C15.6764 20.6537 14.8886 20.4849 14.5931 20.1894C14.5791 20.091 14.6775 19.6971 15.0292 19.2047C15.3387 18.7545 16.2391 17.6994 17.8006 17.615C17.9131 17.615 18.0398 17.615 18.1523 17.615Z" fill="#F8A38F"/>
<path d="M14.4786 20.1777C14.3098 20.9374 18.9662 17.2094 21.4703 18.996C21.9908 18.3067 19.2195 17.1391 17.6016 17.4064C16.2371 17.6455 14.8303 18.5177 14.4786 20.1777Z" fill="#FCD4C3"/>
<path d="M15.4233 16.1659C15.6625 16.588 16.0986 18.6419 16.2815 18.6841C16.4644 18.7263 17.6179 19.0498 17.7727 18.9795C17.9415 18.9092 17.9274 18.5153 18.0962 18.6278C18.2369 18.7263 18.3072 18.9092 18.4479 18.8388C18.7011 18.7122 19.4467 18.248 19.5734 18.051C19.6859 17.84 19.6718 16.6724 19.5734 15.7439C19.095 15.969 16.2674 16.2644 15.4233 16.1659Z" fill="#FFF7E3"/>
<path d="M19.5802 15.751C19.1582 15.9339 16.9495 16.1871 15.8381 16.1871C15.6693 16.1871 15.5427 16.1871 15.4302 16.173C15.6693 16.595 16.1054 18.649 16.2883 18.6912C16.4571 18.7334 17.4137 19.0006 17.7092 19.0006C17.7373 19.0006 17.7654 19.0006 17.7795 18.9866C17.9202 18.9303 17.9343 18.6208 18.0468 18.6208C18.0609 18.6208 18.089 18.6208 18.1031 18.649C18.2297 18.7193 18.2859 18.874 18.3985 18.874C18.4126 18.874 18.4407 18.874 18.4548 18.86C18.708 18.7334 19.4536 18.2691 19.5802 18.0722C19.7068 17.8612 19.6787 16.6935 19.5802 15.751ZM19.5099 15.8776C19.5943 16.8342 19.5943 17.8471 19.5099 18.0159C19.4114 18.1847 18.7361 18.6208 18.4266 18.7756H18.4126C18.3844 18.7756 18.3422 18.7334 18.3141 18.6912C18.2719 18.649 18.2297 18.6067 18.1734 18.5645C18.1312 18.5364 18.1031 18.5223 18.0609 18.5223C17.9342 18.5223 17.892 18.649 17.8498 18.7474C17.8217 18.8037 17.7936 18.8881 17.7514 18.9022C17.7514 18.9022 17.7373 18.9022 17.7092 18.9022C17.47 18.9022 16.7526 18.7052 16.4571 18.6349C16.4009 18.6208 16.3587 18.6067 16.3305 18.6067C16.2461 18.5083 16.0632 17.8471 15.9226 17.3688C15.7959 16.9327 15.6834 16.5247 15.5849 16.2856C15.6553 16.2856 15.7537 16.2856 15.8522 16.2856C16.9073 16.2856 18.8768 16.0605 19.5099 15.8776Z" fill="#FFDC99"/>
<path d="M15.7543 17.1577C15.684 16.3981 19.1869 16.1448 19.623 16.2152C19.623 16.0323 19.5948 15.9198 19.5948 15.7087C19.0181 16.0042 15.8669 16.3137 15.4448 16.187C15.487 16.2715 15.6418 16.6935 15.7543 17.1577Z" fill="#EADCBE"/>
<path d="M17.4999 16.5835C17.5703 16.7523 17.6406 16.9071 17.6969 17.0759C17.7532 17.2447 17.8094 17.4135 17.8657 17.5823L18.0204 18.0888L18.1752 18.5952L17.936 18.6655L17.8235 18.145L17.6969 17.6245C17.6547 17.4557 17.6125 17.2869 17.5703 17.1181C17.514 16.9493 17.4718 16.7804 17.4155 16.6257L17.4999 16.5835Z" fill="#FFDC99"/>
<path opacity="0.5" d="M10.8045 14.0604C13.1398 14.2433 15.0671 14.3418 15.7564 13.6243C16.4457 12.9069 16.699 9.72754 17.8244 9.81195C18.781 9.88229 19.1046 14.0182 19.7235 14.1308C20.3425 14.2574 24.7176 15.4532 25.8149 14.3277C26.8981 13.2023 27.4046 12.4989 27.1514 11.8237C26.8981 11.1484 20.4973 8.96788 19.189 8.84127C17.8807 8.71466 9.04604 9.82601 8.82096 10.3747C8.59587 10.9374 8.35672 10.853 8.39892 11.4438C8.48333 12.5833 8.46926 13.8776 10.8045 14.0604Z" fill="#E3AB5E"/>
<path d="M17.3511 9.35715C17.5199 9.35715 18.1811 9.30088 18.3359 9.42749C19.1799 10.0887 19.1518 12.8038 20.0381 13.6478C20.8259 14.4075 25.1306 14.9562 25.8762 14.098C26.6218 13.2399 27.7191 10.6233 27.9723 10.4263C28.2256 10.2434 28.7883 10.1028 28.9571 9.83546C29.1259 9.58224 28.9852 8.42868 28.5913 8.48495C28.1974 8.54122 27.4518 8.78037 26.9876 8.65376C26.5233 8.51308 24.2584 7.09223 18.5609 7.95037C18.0123 8.03478 17.4637 7.95037 17.0838 7.85189C16.704 7.75342 14.5657 6.51545 8.84006 7.33138C8.27735 7.41579 7.48955 7.16257 7.20819 7.19071C6.92684 7.21884 6.84243 8.10512 6.95497 8.3302C7.06751 8.55529 7.65836 8.75224 7.7287 9.03359C7.79904 9.31495 8.31955 12.0722 9.67007 13.2117C11.105 14.4216 14.7626 13.5775 15.0862 13.3524C16.5352 12.3255 16.8587 9.35715 17.3511 9.35715Z" fill="#333333"/>
<path d="M12.419 7.06738C11.4202 7.06738 10.2244 7.13772 8.8176 7.34874C8.73319 7.36281 8.64879 7.36281 8.56438 7.36281C8.07201 7.36281 7.49522 7.20806 7.22794 7.20806C7.21387 7.20806 7.1998 7.20806 7.18573 7.20806C6.90438 7.2362 6.81997 8.12247 6.93251 8.34756C7.04505 8.58671 7.6359 8.76959 7.70624 9.05095C7.77658 9.33231 8.29709 12.0896 9.64761 13.2291C10.2103 13.7074 11.1388 13.8622 12.0673 13.8622C13.4741 13.8622 14.8668 13.5105 15.0637 13.3698C16.5268 12.3288 16.8644 9.36044 17.3568 9.36044C17.4271 9.36044 17.61 9.34638 17.7788 9.34638C18.0039 9.34638 18.2431 9.36044 18.3275 9.41671C19.1715 10.0779 19.1434 12.793 20.0297 13.6371C20.5361 14.1154 22.4775 14.5233 23.9968 14.5233C24.8549 14.5233 25.5865 14.3967 25.8538 14.0872C26.5994 13.2291 27.6966 10.6125 27.9499 10.4155C28.2031 10.2186 28.7658 10.092 28.9346 9.82468C29.0894 9.57146 28.9628 8.47417 28.5829 8.47417C28.5829 8.47417 28.5689 8.47417 28.5548 8.47417C28.2453 8.51637 27.7107 8.67112 27.2746 8.67112C27.1621 8.67112 27.0495 8.65705 26.951 8.62891C26.5853 8.51637 25.1644 7.65823 21.9288 7.65823C20.9581 7.65823 19.8327 7.72857 18.5244 7.92552C18.3697 7.95366 18.2009 7.95366 18.0602 7.95366C17.6803 7.95366 17.3286 7.89738 17.0614 7.82705C16.78 7.79891 15.4858 7.06738 12.419 7.06738ZM12.419 7.34874C14.9652 7.34874 16.2736 7.85518 16.7519 8.05213C16.8503 8.09434 16.9207 8.12247 16.991 8.13654C17.2442 8.19281 17.6241 8.27722 18.0602 8.27722C18.229 8.27722 18.4119 8.26315 18.5666 8.23502C19.7624 8.05213 20.8878 7.96772 21.9288 7.96772C24.6017 7.96772 25.9944 8.55857 26.5994 8.82586C26.726 8.88213 26.8104 8.91027 26.8807 8.93841C27.0073 8.98061 27.1339 8.99468 27.2887 8.99468C27.5982 8.99468 27.9358 8.92434 28.2172 8.86807C28.3438 8.83993 28.4704 8.8118 28.5689 8.79773C28.6955 8.93841 28.7799 9.55739 28.7095 9.7262C28.6533 9.81061 28.4141 9.92316 28.2453 9.9935C28.0765 10.0638 27.9217 10.1342 27.8092 10.2186C27.6544 10.3311 27.4997 10.6265 27.0495 11.5269C26.6134 12.385 26.0788 13.4542 25.6709 13.9184C25.5302 14.0872 25.0238 14.2561 24.0109 14.2561C22.5337 14.2561 20.6487 13.8622 20.2266 13.4542C19.8327 13.0884 19.6358 12.2303 19.4388 11.4003C19.2137 10.4718 19.0027 9.5996 18.5103 9.2057C18.3837 9.10722 18.1868 9.06502 17.7929 9.06502C17.6803 9.06502 17.5678 9.06502 17.4834 9.06502C17.4271 9.06502 17.3849 9.06502 17.3568 9.06502C16.9629 9.06502 16.7941 9.52926 16.4986 10.3733C16.1751 11.3018 15.7108 12.5538 14.909 13.1306C14.7261 13.2432 13.4037 13.5808 12.0673 13.5808C11.0403 13.5808 10.2666 13.3838 9.83049 13.0181C9.29591 12.5679 8.55031 11.5128 8.01574 9.10722C8.00167 9.05095 7.9876 9.00875 7.9876 8.98061C7.91726 8.71332 7.66404 8.55858 7.45302 8.4179C7.36861 8.36163 7.22793 8.26315 7.1998 8.22095C7.14353 8.09434 7.1998 7.6301 7.28421 7.47535C7.38268 7.47535 7.52336 7.50349 7.67811 7.53162C7.9454 7.57383 8.28303 7.6301 8.59252 7.6301C8.69099 7.6301 8.80353 7.6301 8.88794 7.60196C10.14 7.44722 11.3357 7.34874 12.419 7.34874Z" fill="#1A1A1A"/>
<path opacity="0.5" fill-rule="evenodd" clip-rule="evenodd" d="M15.7675 8.76261C15.9076 8.84268 16.0404 8.93881 16.1273 9.05472C16.2197 9.17793 16.229 9.33651 16.2266 9.44378C16.2239 9.56773 16.2018 9.71003 16.168 9.85858C16.1 10.1574 15.976 10.5181 15.8168 10.8792C15.6574 11.2408 15.4586 11.6123 15.2369 11.9304C15.0191 12.2431 14.7625 12.5287 14.4799 12.6896L14.4779 12.6907L14.4758 12.6918C14.3688 12.7505 14.2294 12.7943 14.0836 12.829C13.9334 12.8647 13.7577 12.8948 13.5673 12.9195C13.1862 12.9689 12.7322 12.998 12.2772 13.0025C11.8227 13.007 11.3603 12.9869 10.9634 12.9358C10.5822 12.8867 10.2128 12.8036 9.98169 12.6532C9.65187 12.4417 9.43012 12.1022 9.28004 11.7434C9.12874 11.3817 9.03969 10.9755 8.99024 10.5964C8.94062 10.216 8.92952 9.85236 8.93924 9.57037C8.94409 9.42967 8.95427 9.30521 8.96851 9.20665C8.97558 9.15776 8.9843 9.11056 8.99534 9.0688C9.00333 9.03859 9.02157 8.97315 9.0639 8.91585C9.16839 8.77362 9.34538 8.62257 9.52116 8.50349C9.69319 8.38695 9.90579 8.27259 10.0989 8.23191C11.2875 7.92531 12.6563 7.96823 13.775 8.15469C14.3372 8.2484 14.8454 8.37984 15.245 8.52691C15.4446 8.60036 15.622 8.67952 15.7675 8.76261ZM13.6825 8.70975C12.6088 8.5308 11.3219 8.49615 10.2331 8.77842L10.2255 8.78041L10.2177 8.78197C10.1317 8.79917 9.98928 8.86605 9.83676 8.96937C9.70243 9.06037 9.5941 9.1566 9.53637 9.22504C9.5332 9.2393 9.52939 9.25976 9.52544 9.28713C9.51495 9.35969 9.506 9.46273 9.50162 9.58976C9.49288 9.84323 9.50288 10.1759 9.54822 10.5236C9.59373 10.8725 9.6735 11.2259 9.79916 11.5263C9.92588 11.8292 10.0889 12.0538 10.2861 12.18L10.2872 12.1807L10.2882 12.1814C10.4019 12.2556 10.6561 12.3288 11.0353 12.3777C11.3994 12.4246 11.8347 12.4441 12.2717 12.4398C12.7083 12.4355 13.1397 12.4075 13.495 12.3615C13.6727 12.3384 13.828 12.3113 13.9535 12.2815C14.0817 12.251 14.1625 12.2214 14.2037 12.1993C14.3778 12.0994 14.5758 11.895 14.7752 11.6088C14.9716 11.3268 15.1535 10.9887 15.3019 10.6522C15.4504 10.3153 15.5611 9.98927 15.6193 9.7337C15.6486 9.60507 15.6624 9.50327 15.664 9.43131C15.6647 9.40356 15.6633 9.38556 15.6621 9.37512C15.6351 9.34748 15.5816 9.30449 15.4883 9.25121C15.3779 9.18813 15.2309 9.12133 15.0506 9.05499C14.6906 8.92245 14.2175 8.79892 13.6825 8.70975ZM9.54229 9.20305C9.54233 9.20315 9.54186 9.20473 9.54079 9.2075C9.54172 9.20433 9.54226 9.20295 9.54229 9.20305ZM20.1297 9.63129C20.127 9.64163 20.1231 9.66009 20.12 9.68946C20.1123 9.76189 20.1129 9.8654 20.1255 9.99729C20.1504 10.2594 20.2186 10.5978 20.323 10.9517C20.4272 11.3051 20.5647 11.6642 20.7239 11.9692C20.8858 12.2794 21.057 12.5078 21.2179 12.629C21.2541 12.6554 21.3291 12.6949 21.4522 12.7418C21.5717 12.7874 21.7212 12.8341 21.8936 12.8799C22.2383 12.9713 22.661 13.055 23.0926 13.1161C23.5244 13.1773 23.9582 13.215 24.3254 13.2165C24.706 13.218 24.9682 13.1796 25.0927 13.1216C25.3036 13.0182 25.4941 12.8134 25.6591 12.5278C25.823 12.2438 25.9487 11.9023 26.0397 11.5618C26.1305 11.2224 26.1841 10.894 26.2082 10.6423C26.2203 10.516 26.2245 10.4135 26.2231 10.3411C26.2226 10.3146 26.2214 10.2949 26.2201 10.2811C26.1714 10.2062 26.0749 10.0956 25.9518 9.98564C25.8133 9.86194 25.6794 9.77359 25.5953 9.74259L25.5917 9.74126L25.5881 9.73982C24.546 9.32298 23.2659 9.19085 22.1784 9.22871C21.6364 9.24758 21.1514 9.30838 20.7772 9.39297C20.5899 9.43531 20.4355 9.48246 20.3179 9.53075C20.2187 9.57149 20.1601 9.60725 20.1297 9.63129ZM26.2169 10.2591C26.217 10.2589 26.2174 10.2605 26.2179 10.2641C26.2171 10.2609 26.2168 10.2592 26.2169 10.2591ZM25.7938 9.21604C24.656 8.76172 23.2929 8.62686 22.1588 8.66634C21.5894 8.68616 21.0685 8.75021 20.6532 8.8441C20.4457 8.891 20.2594 8.9465 20.1042 9.0102C19.9546 9.07161 19.8103 9.15005 19.709 9.25432L19.7081 9.25524L19.7072 9.25618C19.6016 9.36677 19.5719 9.52188 19.5604 9.62979C19.5472 9.7537 19.5508 9.89825 19.5653 10.0506C19.5944 10.3569 19.6714 10.7315 19.7833 11.1109C19.8953 11.4908 20.0453 11.8853 20.2251 12.2296C20.4017 12.568 20.6205 12.8843 20.8814 13.08L20.8823 13.0807L20.8833 13.0814C20.9811 13.1534 21.1129 13.2148 21.2518 13.2677C21.3952 13.3223 21.5646 13.3748 21.7494 13.4238C22.1191 13.5219 22.5641 13.6096 23.0136 13.6733C23.4627 13.7369 23.9232 13.7776 24.3231 13.7792C24.7081 13.7807 25.0854 13.7473 25.3343 13.6298L25.3359 13.6291L25.3376 13.6283C25.6887 13.4571 25.9513 13.147 26.1464 12.8092C26.3429 12.4688 26.4845 12.0771 26.5834 11.7071C26.6826 11.3361 26.7415 10.9769 26.7684 10.6959C26.7818 10.5557 26.7877 10.4306 26.7857 10.3304C26.7848 10.2807 26.7818 10.232 26.7756 10.1882C26.7712 10.1573 26.7605 10.09 26.724 10.0272C26.6386 9.87657 26.4836 9.70605 26.3266 9.56589C26.1709 9.42682 25.9758 9.28412 25.7938 9.21604Z" fill="#333333"/>
<mask id="mask0_202_16177" style="mask-type:alpha" maskUnits="userSpaceOnUse" x="9" y="8" width="18" height="6">
<path d="M9.29023 9.07579C9.16362 9.2446 9.07921 11.7346 10.1343 12.4099C10.8236 12.86 13.7497 12.7616 14.3406 12.438C15.255 11.9175 16.1553 9.5541 15.9021 9.21647C15.4801 8.65375 12.4414 7.90816 10.1624 8.49901C9.88108 8.56935 9.44497 8.86477 9.29023 9.07579Z" fill="white"/>
<path d="M26.4812 10.1731C26.5937 10.356 26.3405 12.8319 25.215 13.3805C24.4695 13.7322 21.5855 13.2539 21.051 12.86C20.2069 12.227 19.616 9.76511 19.9115 9.45562C20.4038 8.94918 23.5128 8.61155 25.6934 9.48375C25.9606 9.58223 26.3405 9.93392 26.4812 10.1731Z" fill="white"/>
</mask>
<g mask="url(#mask0_202_16177)">
<path d="M9.29023 9.07579C9.16362 9.2446 9.07921 11.7346 10.1343 12.4099C10.8236 12.86 13.7497 12.7616 14.3406 12.438C15.255 11.9175 16.1553 9.5541 15.9021 9.21647C15.4801 8.65375 12.4414 7.90816 10.1624 8.49901C9.88108 8.56935 9.44497 8.86477 9.29023 9.07579Z" fill="white"/>
<path d="M26.4812 10.1731C26.5937 10.356 26.3405 12.8319 25.215 13.3805C24.4695 13.7322 21.5855 13.2539 21.051 12.86C20.2069 12.227 19.616 9.76511 19.9115 9.45562C20.4038 8.94918 23.5128 8.61155 25.6934 9.48375C25.9606 9.58223 26.3405 9.93392 26.4812 10.1731Z" fill="white"/>
<path d="M9.32006 10.7886C9.41853 9.57879 9.53107 8.59404 11.9367 8.5237C13.864 8.46743 15.3974 8.9176 15.6084 9.38184C15.7491 9.67727 15.6365 10.9715 14.6799 12.1532C15.2989 11.6046 16.31 9.37832 15.888 9.11103C14.3265 8.11222 11.1911 8.1298 10.0375 8.53777C9.8265 8.60811 9.43094 8.85781 9.20585 9.11103C9.16365 9.42053 9.22158 10.6198 9.32006 10.7886Z" fill="#D0DDDC"/>
<path d="M9.32006 10.8695C9.68582 13.2329 14.1577 12.5155 14.4109 12.417C14.3968 12.5436 12.0593 13.1837 10.1742 12.4521C9.41453 12.1708 9.29192 10.6022 9.32006 10.8695Z" fill="#D0DDDC"/>
<path d="M26.2782 11.8454C26.3345 10.6215 26.3345 9.6508 23.9711 9.28504C22.0719 8.98962 20.4963 9.24284 20.2149 9.67894C20.0461 9.94623 19.9959 11.3338 20.8119 12.628C20.2632 11.9949 19.4331 9.54714 19.8973 9.32205C21.5714 8.52018 24.7729 8.97555 25.8561 9.5242C26.0531 9.62267 26.3767 9.88996 26.5595 10.1854C26.5455 10.4808 26.4048 11.6906 26.2782 11.8454Z" fill="#D0DDDC"/>
<path d="M26.2278 11.9246C25.5807 14.2177 21.2619 12.9656 21.0227 12.839C21.0227 12.9656 23.2573 13.8749 25.2267 13.3966C26.0145 13.1996 26.3123 11.6573 26.2278 11.9246Z" fill="#D0DDDC"/>
<path d="M12.6245 10.5952C12.5542 11.1438 12.2728 11.5518 12.0055 11.5096C11.7382 11.4674 11.5976 11.0032 11.6679 10.4545C11.7382 9.90587 12.0196 9.49791 12.2869 9.54011C12.5542 9.58231 12.6949 10.0466 12.6245 10.5952Z" fill="black"/>
<path d="M23.8366 11.2142C23.8929 11.7628 23.724 12.2271 23.4708 12.2552C23.2035 12.2833 22.9503 11.8613 22.894 11.3127C22.8378 10.764 23.0066 10.2998 23.2598 10.2716C23.513 10.2576 23.7662 10.6796 23.8366 11.2142Z" fill="black"/>
<g opacity="0.25">
<path d="M12.5504 9.89178C12.5504 9.82144 12.4941 9.7511 12.4097 9.7511C12.3253 9.7511 12.269 9.80737 12.269 9.89178C12.269 9.97618 12.3253 10.0325 12.4097 10.0325C12.4941 10.0325 12.5504 9.97618 12.5504 9.89178Z" fill="white"/>
<path d="M23.664 10.553C23.664 10.4826 23.6077 10.4123 23.5233 10.4123C23.453 10.4123 23.3826 10.4686 23.3826 10.553C23.3826 10.6374 23.4389 10.6936 23.5233 10.6936C23.5937 10.6936 23.664 10.6233 23.664 10.553Z" fill="white"/>
</g>
</g>
<path opacity="0.3" d="M7.21879 7.9996C7.54235 8.21062 7.83778 8.08401 7.90812 8.50604C7.97845 8.92808 8.94914 12.5857 10.159 13.0078C12.1425 13.6971 14.6466 13.0218 14.9842 12.8108C15.3219 12.5998 16.9115 9.04062 17.1788 8.89994C17.4461 8.75926 18.2902 8.91401 18.4731 8.99842C19.0217 9.23757 20.0346 13.0922 20.3019 13.2891C21.5258 14.1473 25.4507 14.0769 25.6336 13.8518C25.8306 13.6127 27.2936 10.2505 27.5609 10.0535C27.9407 9.75808 28.827 9.56113 28.8551 9.68774C28.8833 9.81435 28.1377 9.94097 27.9126 10.2083C27.6875 10.4896 26.2104 13.7111 25.7461 13.9925C25.2819 14.2739 21.8493 14.7381 20.1049 13.5142C19.2749 12.9233 18.9514 9.42046 18.2902 9.22351C17.8682 9.09689 17.5446 9.11096 17.2351 9.19537C16.8271 9.46266 16.2503 12.445 15.0264 13.1906C14.5341 13.4861 10.7217 14.2317 9.58219 13.0359C7.45794 10.8132 8.10507 8.8296 7.41574 8.54825C6.9515 8.3513 6.85303 8.09808 6.85303 7.92926C6.89523 7.74638 7.04998 7.88706 7.21879 7.9996Z" fill="#333333"/>
<path opacity="0.3" d="M7.25723 7.25401C7.03215 7.1696 8.21384 7.66197 8.64995 7.63384C9.08605 7.6057 9.81758 7.29621 10.0567 7.22587C10.2677 7.15553 8.95944 7.39468 8.63588 7.38062C8.31232 7.36655 7.38384 7.29621 7.25723 7.25401Z" fill="#333333"/>
<path opacity="0.3" d="M16.3804 7.91516C16.7883 8.09804 16.9712 8.56228 17.3651 8.60448C17.759 8.64669 18.2373 8.71703 18.4624 8.59042C18.6875 8.46381 19.2502 8.16838 19.405 8.14025C19.5738 8.11211 18.1811 8.32313 17.6605 8.28093C17.14 8.22465 16.5351 7.92923 16.3804 7.91516Z" fill="#333333"/>
<path opacity="0.3" d="M26.3648 8.45321C26.196 8.38287 26.9838 9.01593 27.2229 8.98779C27.4621 8.95965 27.8841 8.69236 28.067 8.62203C28.2077 8.56575 27.5043 8.76271 27.2933 8.7205C27.0823 8.70643 26.5336 8.52355 26.3648 8.45321Z" fill="#333333"/>
<path opacity="0.3" d="M8.84712 8.71352C9.88814 7.68657 12.3641 8.03826 12.8142 8.12267C9.84593 8.33369 9.78966 8.55877 9.26915 9.07928C9.19881 9.48725 9.10034 10.8378 9.56458 12.0195C9.04406 11.7381 8.49542 9.06522 8.84712 8.71352Z" fill="#333333"/>
<path opacity="0.3" d="M27.0522 9.8211C26.1519 8.66754 23.6619 8.68161 23.1976 8.72381C26.1097 9.32873 26.1378 9.55382 26.588 10.1447C26.6161 10.5526 26.5317 11.9031 25.9268 13.0145C26.4614 12.7894 27.3476 10.2009 27.0522 9.8211Z" fill="#333333"/>
<g opacity="0.1">
<path d="M7.29639 7.84837C7.63402 8.22821 7.84503 8.27041 8.2952 8.21414C12.6703 7.65143 15.09 7.66549 16.2857 8.77685C16.539 9.01601 16.3983 8.05939 15.92 7.93278C12.2342 6.9621 9.56131 7.83431 8.9986 7.90465C8.42182 7.98906 8.01385 7.86244 7.29639 7.84837Z" fill="#D0DDDC"/>
<path d="M19.3947 8.41109C19.2963 8.50956 19.3385 9.52245 19.8168 9.14262C21.1954 8.04532 24.0793 8.29854 26.091 8.9738C25.7675 8.34075 23.4181 7.90464 22.0958 7.91871C21.4627 7.94685 19.662 8.12973 19.3947 8.41109Z" fill="#D0DDDC"/>
</g>
<path d="M27.7191 9.21642C27.7191 9.25863 27.494 9.28676 27.2267 9.28676C26.9594 9.28676 26.7343 9.25863 26.7343 9.21642C26.7343 9.17422 26.9594 9.14609 27.2267 9.14609C27.5081 9.14609 27.7191 9.18829 27.7191 9.21642Z" fill="#D0DDDC"/>
<path d="M8.75562 8.00659C8.75562 8.04879 8.53053 8.04879 8.26324 8.00659C7.99595 7.96439 7.78494 7.89405 7.799 7.85184C7.81307 7.80964 8.02409 7.80964 8.29138 7.85184C8.55867 7.87998 8.76969 7.95032 8.75562 8.00659Z" fill="#D0DDDC"/>
<path d="M35.9966 30.5484C35.9122 29.6902 35.2791 29.3104 34.7024 29.3104C34.4351 29.3104 34.224 29.3807 34.1396 29.4229L34.0271 29.4792L33.9286 29.5496C33.7879 29.648 33.5488 29.8028 33.3378 29.8731C33.3237 29.7043 33.3378 29.4792 33.3659 29.2823V29.2541C33.5207 27.7489 33.2112 26.8626 32.4234 26.6375C32.2968 26.5953 32.1561 26.5812 32.0154 26.5812C31.5371 26.5812 31.1151 26.8063 30.8478 27.0033C30.6227 26.7078 30.2288 26.5531 29.7505 26.5531C29.033 26.5531 28.4562 26.8907 28.2452 27.4253C28.2171 27.4816 28.1889 27.566 28.1608 27.6785C27.7388 26.7501 26.8806 26.3984 26.0788 26.3984C25.3191 26.3984 24.5876 26.6938 24.3203 26.9048C24.3062 26.9189 24.2921 26.9189 24.2781 26.9329C23.5606 27.4394 22.9979 28.0865 22.604 28.8602C22.4071 28.199 21.985 27.566 21.2394 27.1017L21.2254 27.0877C21.1972 27.0736 21.1832 27.0595 21.1691 27.0595C21.9147 25.7512 22.5618 24.0068 22.1679 22.3468C21.7459 20.5743 20.7048 20.321 20.1281 20.321C19.8889 20.321 19.6357 20.3632 19.3825 20.4477H19.3684H19.3543C18.257 20.8838 17.7787 21.5309 17.6662 21.6856C17.5536 21.8544 16.3579 23.6833 16.0625 26.3562C16.0343 26.6516 15.9921 26.9611 15.964 27.2706C15.7952 27.0314 15.5138 26.8063 15.0777 26.6797C14.937 26.6375 14.7964 26.6234 14.6557 26.6234C14.0508 26.6234 13.5584 26.9892 13.2911 27.2424C13.066 26.9048 12.7002 26.6938 12.2923 26.6797C12.2641 26.6797 12.2219 26.6797 12.1938 26.6797C11.5467 26.6797 11.0402 26.9611 10.6604 27.2846C10.4213 26.8626 9.97108 26.5953 9.45057 26.5953C9.40837 26.5953 9.36616 26.5953 9.32396 26.5953C9.29582 26.5953 9.26769 26.5953 9.23956 26.5953C8.5221 26.5953 7.95938 26.9329 7.73429 27.4956C7.72023 27.5378 7.69209 27.5941 7.67802 27.6645C7.11531 26.9611 6.39785 26.6375 5.42717 26.6375C5.39903 26.6375 5.37089 26.6375 5.32869 26.6375C4.72377 26.6516 3.23258 26.9048 2.3041 28.9728C2.16342 29.2963 2.05089 29.6199 1.96648 29.9294C1.76953 29.8309 1.57258 29.8168 1.44597 29.8168C0.96766 29.8168 0.601894 30.0841 0.43308 30.3514C0.292401 30.5624 -0.157766 31.294 0.0673194 32.0255C0.19393 32.4194 0.461216 32.7148 0.855115 32.8696C1.20681 33.0102 1.64292 33.1369 1.96648 33.2353C2.16343 33.6996 2.52919 34.2201 3.17631 34.7125C3.62648 35.0641 4.21733 35.233 4.89259 35.233C6.04615 35.233 7.15752 34.7406 7.27006 34.6843L7.31226 34.6562L7.32632 34.6421C7.55141 34.8672 7.83277 35.036 8.19853 35.1063C8.31108 35.1345 8.45175 35.1486 8.62057 35.1486C9.23955 35.1486 9.67566 34.825 10.0836 34.2341C10.4072 34.7547 11.0121 35.036 11.7155 35.036C11.7577 35.036 11.7858 35.0641 11.8421 35.0641C12.2079 35.0641 12.6862 34.9375 13.066 34.3045C13.3896 34.8813 13.9804 35.2189 14.6838 35.2189C15.3028 35.2189 15.8514 34.9657 15.9499 34.9094L15.978 34.8953C16.1891 34.7828 16.3579 34.6843 16.4986 34.614C16.9628 34.8672 17.6662 35.1345 18.5384 35.1345C18.6931 35.1345 18.8338 35.1345 18.9886 35.1063H19.0308H19.073C20.9018 34.7406 22.0976 34.3045 22.815 33.9669C23.3074 34.5296 24.1093 35.0641 25.2347 35.1486C25.3613 35.1626 25.4879 35.1626 25.6145 35.1626C26.543 35.1626 27.2886 34.8953 27.8372 34.614C28.0061 34.7969 28.2311 34.9657 28.5125 35.0782C28.6813 35.1486 28.8642 35.1767 29.033 35.1767C30.1725 35.1767 30.7071 33.8262 30.8478 33.3619L31.1151 32.6304C31.3542 32.8836 31.6637 33.0946 32.0576 33.2072C32.2686 33.2635 32.5078 33.3057 32.7329 33.3057C33.9849 33.3057 35.1947 32.4194 35.3776 32.2646C35.7012 31.9411 36.0669 31.3502 35.9966 30.5484Z" fill="white"/>
<path d="M24.5041 30.9249C24.5041 30.9249 24.3493 30.3622 24.9402 29.293C25.531 28.2239 25.9812 28.8007 25.9812 28.8007C25.9812 28.8007 26.4876 29.3493 25.9109 30.1652C25.3341 30.9812 24.5041 30.9249 24.5041 30.9249ZM19.9883 31.6986C19.313 33.4571 17.6812 32.7397 17.6812 32.7397C17.6812 32.7397 17.4983 32.1066 18.0329 30.3481C18.5675 28.5896 19.8054 29.279 19.8054 29.279C19.8054 29.279 20.6636 29.9402 19.9883 31.6986ZM18.7644 24.313C18.7644 24.313 19.7773 21.6542 20.0305 22.9484C20.2837 24.2427 17.8922 28.0832 17.8922 28.0832C17.9203 27.2251 18.7644 24.313 18.7644 24.313ZM4.20419 30.9249C4.24639 29.2227 5.35775 28.4771 5.75165 28.8429C6.14555 29.2086 6.00487 30.0246 5.25927 30.5169C4.54181 31.0234 4.20419 30.9249 4.20419 30.9249ZM35.055 30.6436C34.9987 30.0668 34.4782 30.2778 34.4782 30.2778C34.4782 30.2778 33.6482 30.9249 32.9167 30.8546C32.1851 30.7842 32.4243 29.1524 32.4243 29.1524C32.4243 29.1524 32.579 27.6471 32.157 27.5205C31.7209 27.3939 31.2004 27.9144 31.2004 27.9144C31.2004 27.9144 30.5392 28.6459 30.2297 29.5744L30.1453 29.6025C30.1453 29.6025 30.2438 27.9707 30.1312 27.5908C30.0468 27.408 29.259 27.422 29.1324 27.7456C29.0058 28.0691 28.3727 30.3622 28.3305 31.3329C28.3305 31.3329 27.0926 32.3739 26.0234 32.5568C24.9402 32.7256 24.687 32.0503 24.687 32.0503C24.687 32.0503 27.6131 31.2344 27.5146 28.8991C27.4161 26.5639 25.1512 27.422 24.898 27.619C24.6448 27.8018 23.3364 28.6037 22.9425 30.7983C22.9285 30.8686 22.9003 31.2063 22.9003 31.2063C22.9003 31.2063 21.7609 31.9659 21.1419 32.1629C21.1419 32.1629 22.9003 29.1946 20.748 27.8441C19.7773 27.2532 18.9895 28.4912 18.9895 28.4912C18.9895 28.4912 21.9015 25.2556 21.2544 22.5123C20.9449 21.204 20.2978 21.0634 19.6929 21.2744C18.7785 21.6401 18.4408 22.1606 18.4408 22.1606C18.4408 22.1606 17.2591 23.8629 16.9919 26.4091C16.7246 28.9554 16.3166 32.0081 16.3166 32.0081C16.3166 32.0081 15.7539 32.5568 15.2474 32.5849C14.7269 32.6131 14.9661 31.0515 14.9661 31.0515C14.9661 31.0515 15.36 28.6741 15.3319 28.2661C15.3037 27.8581 15.2756 27.6471 14.7973 27.5064C14.333 27.3657 13.8125 27.9707 13.8125 27.9707C13.8125 27.9707 12.4479 30.0386 12.3354 30.3481L12.2651 30.4747L12.1947 30.3903C12.1947 30.3903 13.1513 27.5768 12.2369 27.5346C11.3225 27.4924 10.7176 28.5334 10.7176 28.5334C10.7176 28.5334 9.67658 30.2919 9.63437 30.4888L9.56403 30.4044C9.56403 30.4044 10.0001 28.3646 9.91573 27.8581C9.83132 27.3517 9.35302 27.4642 9.35302 27.4642C9.35302 27.4642 8.7481 27.3939 8.59335 27.7878C8.4386 28.1817 7.86182 30.742 7.79149 31.558C7.79149 31.558 6.28622 32.6412 5.30148 32.6412C4.31673 32.6553 4.4152 32.0081 4.4152 32.0081C4.4152 32.0081 8.0447 30.7702 7.05996 28.3083C6.60978 27.6752 6.10334 27.4783 5.37181 27.4924C4.64029 27.5064 3.78215 27.9566 3.1913 29.2649C2.90994 29.898 2.7974 30.4888 2.7974 30.939C2.7974 30.939 2.12214 31.0656 1.77045 30.7842C1.41875 30.5029 1.2218 30.7842 1.2218 30.7842C1.2218 30.7842 0.616882 31.6424 1.20773 31.8675C1.79858 32.0925 2.69892 32.3176 2.69892 32.3176C2.78333 32.6834 3.02248 33.3024 3.73994 33.837C4.8091 34.6529 6.87708 33.7103 6.87708 33.7103L7.72115 33.2039C7.72115 33.2039 7.74928 33.9636 8.36827 34.0761C8.98725 34.1887 9.24047 34.062 10.3237 31.4595C10.9567 30.123 10.999 30.1934 10.999 30.1934L11.0693 30.1793C11.0693 30.1793 10.5769 32.7256 10.7739 33.4149C10.9708 34.1042 11.7727 34.0339 11.7727 34.0339C11.7727 34.0339 12.2229 34.1887 12.5746 32.9225C12.9403 31.6564 13.6156 30.3341 13.6156 30.3341H13.7C13.7 30.3341 13.4046 32.8803 13.8547 33.7103C14.319 34.5403 15.5007 33.9636 15.5007 33.9636C15.5007 33.9636 16.3307 33.5275 16.4573 33.4009C16.4573 33.4009 17.442 34.2309 18.8347 34.0761C21.9437 33.4571 23.0551 32.6271 23.0551 32.6271C23.0551 32.6271 23.5897 33.9776 25.2497 34.1042C27.1488 34.2449 28.1758 33.0492 28.1758 33.0492C28.1758 33.0492 28.1617 33.8229 28.8229 34.0902C29.4841 34.3575 29.9343 32.9225 29.9343 32.9225L31.0456 29.9542H31.1441C31.1441 29.9542 31.2004 31.8534 32.2977 32.1629C33.395 32.4724 34.8158 31.3751 34.8158 31.3751C34.8158 31.3751 35.1253 31.2203 35.055 30.6436Z" fill="#E24B31"/>
</g>
<defs>
<clipPath id="clip0_202_16177">
<rect width="37" height="36" fill="white"/>
</clipPath>
</defs>
</svg>
