<svg width="32" height="37" viewBox="0 0 32 37" fill="none" xmlns="http://www.w3.org/2000/svg">
<g clip-path="url(#clip0_202_13423)">
<path d="M15.8962 0.00140381L28.6636 11.6959C32.7809 15.4673 32.8961 21.9192 28.9163 25.8354L20.5012 34.1156C17.9298 36.6457 13.7988 36.6277 11.2497 34.0751L3.02503 25.8391C-0.86691 21.9419 -0.760326 15.5967 3.26033 11.8323L15.8962 0.00140381Z" fill="#4EC6E6"/>
<path d="M24.4524 15.6994L15.9778 7.43695L6.5396 16.4002C5.55908 17.3807 5.47734 20.2255 6.66226 21.4103L15.937 30.399L15.9778 26.3133L9.48144 20.1028C8.81052 19.432 8.87185 18.6492 9.54276 17.9783L11.5651 16.0018L21.2637 25.3633L24.5567 22.0948C26.3658 20.2766 26.1962 17.4432 24.4524 15.6994ZM22.2654 19.9917L21.0109 21.2462L13.6898 14.1377L16.085 11.6352L22.1728 17.437C23.0325 18.2966 23.125 19.1321 22.2654 19.9917Z" fill="white"/>
</g>
<defs>
<clipPath id="clip0_202_13423">
<rect width="32" height="37" fill="white"/>
</clipPath>
</defs>
</svg>
