<svg width="37" height="37" viewBox="0 0 37 37" fill="none" xmlns="http://www.w3.org/2000/svg">
<g clip-path="url(#clip0_202_15954)">
<path d="M18.0059 36.0024C27.947 36.0024 36.0059 27.9436 36.0059 18.0024C36.0059 8.06132 27.947 0.00244141 18.0059 0.00244141C8.06473 0.00244141 0.00585938 8.06132 0.00585938 18.0024C0.00585938 27.9436 8.06473 36.0024 18.0059 36.0024Z" fill="#1C1C20"/>
<path d="M25.1944 17.5161L23.1897 15.5115L24.2207 11.2731L19.925 12.2467L17.9777 10.2994L27.6 7.8938L25.1944 17.5161Z" fill="#BAFFA9"/>
<path d="M21.8724 30.804L4.6897 13.6213L14.312 11.2157L16.2594 13.1631L9.3863 14.8813L13.281 18.7761L17.8058 17.6878L16.6603 22.1553L20.5551 26.0501L22.2733 19.177L24.278 21.1817L21.8724 30.804Z" fill="#7ACB16"/>
</g>
<defs>
<clipPath id="clip0_202_15954">
<rect width="37" height="37" fill="white"/>
</clipPath>
</defs>
</svg>
