<svg width="36" height="37" viewBox="0 0 36 37" fill="none" xmlns="http://www.w3.org/2000/svg">
<g clip-path="url(#clip0_202_8724)">
<mask id="mask0_202_8724" style="mask-type:alpha" maskUnits="userSpaceOnUse" x="0" y="0" width="36" height="37">
<path d="M16.5125 0.00219727C14.8192 0.0103087 13.1344 0.242747 11.5022 0.693444C0.858779 4.06388 -2.90606 15.7383 2.52566 26.4626C4.25758 29.7867 7.24053 33.6879 10.8794 35.4177C11.0849 35.5222 11.2731 35.6073 11.4427 35.6709C15.148 37.2479 13.9786 32.7883 13.7205 30.8308C13.6776 29.849 13.6763 28.8055 13.8465 27.8652C11.7416 27.4479 9.64986 26.0184 8.22308 24.6594C3.32554 19.8795 3.20722 12.8972 8.32203 9.12472C9.7668 8.14493 11.37 7.53257 13.25 7.27863C17.594 6.84686 22.1061 8.70194 24.0968 12.419C25.7596 15.8739 24.2996 19.4215 20.3694 20.4808C18.9267 20.8503 17.3899 20.7216 15.9417 21.0178C13.9821 21.6364 14.4761 23.4645 15.0581 24.9542C15.1148 25.0684 15.1833 25.1971 15.2566 25.3355C15.7887 24.9715 16.4931 24.7674 17.4224 24.7888C19.9985 25.1175 22.4812 26.2031 25.0884 26.4066C32.2237 26.8743 36.6625 21.8059 35.8584 15.119C34.6572 7.80934 28.209 2.16589 20.7423 0.42082C19.4127 0.153021 18.0605 0.0128437 16.7042 0.00219727H16.5125Z" fill="white"/>
</mask>
<g mask="url(#mask0_202_8724)">
<path fill-rule="evenodd" clip-rule="evenodd" d="M16.5125 0.00219727C14.8192 0.0103087 13.1344 0.242747 11.5022 0.693444C0.858779 4.06388 -2.90606 15.7383 2.52566 26.4626C4.25758 29.7867 7.24053 33.6879 10.8794 35.4177C11.0849 35.5222 11.2731 35.6073 11.4427 35.6709C15.148 37.2479 13.9786 32.7883 13.7205 30.8308C13.6776 29.849 13.6763 28.8055 13.8465 27.8652C11.7416 27.4479 9.64986 26.0184 8.22308 24.6594C3.32554 19.8795 3.20722 12.8972 8.32203 9.12472C9.7668 8.14493 11.37 7.53257 13.25 7.27863C17.594 6.84686 22.1061 8.70194 24.0968 12.419C25.7596 15.8739 24.2996 19.4215 20.3694 20.4808C18.9267 20.8503 17.3899 20.7216 15.9417 21.0178C13.9821 21.6364 14.4761 23.4645 15.0581 24.9542C15.1148 25.0684 15.1833 25.1971 15.2566 25.3355C15.7887 24.9715 16.4931 24.7674 17.4224 24.7888C19.9985 25.1175 22.4812 26.2031 25.0884 26.4066C32.2237 26.8743 36.6625 21.8059 35.8584 15.119C34.6572 7.80934 28.209 2.16589 20.7423 0.42082C19.4127 0.153021 18.0605 0.0128437 16.7042 0.00219727H16.5125Z" fill="url(#paint0_linear_202_8724)"/>
</g>
<mask id="mask1_202_8724" style="mask-type:alpha" maskUnits="userSpaceOnUse" x="0" y="0" width="29" height="17">
<path d="M16.5134 0.00219727C14.8201 0.0103087 13.1353 0.242747 11.5031 0.693444C4.07372 3.04604 -0.00248931 9.44509 0.0597852 16.7423C1.5528 16.6389 3.04133 16.4784 4.5221 16.2614C4.59268 13.5393 5.84232 10.9542 8.32292 9.12472C9.76769 8.14493 11.3709 7.53257 13.2509 7.27863C16.5438 6.95134 19.9336 7.93874 22.2489 10.0554C24.962 8.31308 27.172 6.30092 28.7496 4.09847C26.3557 2.34604 23.6324 1.09514 20.7432 0.42082C19.4136 0.153021 18.0614 0.0128437 16.7051 0.00219727H16.5134Z" fill="white"/>
</mask>
<g mask="url(#mask1_202_8724)">
<path fill-rule="evenodd" clip-rule="evenodd" d="M16.5134 0.00219727C14.8201 0.0103087 13.1353 0.242747 11.5031 0.693444C4.07372 3.04604 -0.00248931 9.44509 0.0597852 16.7423C1.5528 16.6389 3.04133 16.4784 4.5221 16.2614C4.59268 13.5393 5.84232 10.9542 8.32292 9.12472C9.76769 8.14493 11.3709 7.53257 13.2509 7.27863C16.5438 6.95134 19.9336 7.93874 22.2489 10.0554C24.962 8.31308 27.172 6.30092 28.7496 4.09847C26.3557 2.34604 23.6324 1.09514 20.7432 0.42082C19.4136 0.153021 18.0614 0.0128437 16.7051 0.00219727H16.5134Z" fill="#0068A6"/>
</g>
</g>
<defs>
<linearGradient id="paint0_linear_202_8724" x1="18.0042" y1="36.0022" x2="18.0042" y2="0.0738389" gradientUnits="userSpaceOnUse">
<stop stop-color="#0095DA"/>
<stop offset="1" stop-color="#0068A6"/>
</linearGradient>
<clipPath id="clip0_202_8724">
<rect width="36" height="37" fill="white"/>
</clipPath>
</defs>
</svg>
