<svg width="37" height="36" viewBox="0 0 37 36" fill="none" xmlns="http://www.w3.org/2000/svg">
<g clip-path="url(#clip0_202_14136)">
<path d="M10.229 18.0099C10.229 13.8262 13.6205 10.4347 17.8041 10.4347C21.9877 10.4347 25.3792 13.8262 25.3792 18.0099C25.3792 22.1935 21.9877 25.585 17.8041 25.585C13.6205 25.585 10.229 22.1935 10.229 18.0099ZM0.00317383 18.0099C0.00317383 27.8387 7.97104 35.8066 17.7999 35.8066C27.6288 35.8066 35.5966 27.8387 35.5966 18.0099C35.5966 8.181 27.6288 0.213135 17.7999 0.213135C7.97678 0.226973 0.0170125 8.18674 0.00317383 18.0099Z" fill="url(#paint0_linear_202_14136)"/>
<path d="M21.4432 5.67773L17.7917 10.4389C21.9025 10.5356 25.1846 13.8958 25.1846 18.0077C25.1846 22.1197 21.9025 25.4799 17.7917 25.5766L13.219 30.7732L17.7917 35.7982C24.1557 35.9451 30.1138 32.6824 33.4178 27.2413C36.7219 21.8001 36.8689 15.0088 33.8034 9.42981C30.7379 3.8508 24.9266 0.333372 18.5622 0.204712C18.3068 0.204712 18.0471 0.204712 17.7917 0.204712L21.4432 5.67773Z" fill="url(#paint1_linear_202_14136)"/>
</g>
<defs>
<linearGradient id="paint0_linear_202_14136" x1="21.733" y1="29.5827" x2="13.6888" y2="10.2469" gradientUnits="userSpaceOnUse">
<stop stop-color="#477CD8"/>
<stop offset="0.16" stop-color="#4573D2"/>
<stop offset="0.43" stop-color="#3F5BC2"/>
<stop offset="0.76" stop-color="#3633A7"/>
<stop offset="1" stop-color="#2F1391"/>
</linearGradient>
<linearGradient id="paint1_linear_202_14136" x1="27.5405" y1="7.22041" x2="21.9826" y2="27.4167" gradientUnits="userSpaceOnUse">
<stop stop-color="#2055DA"/>
<stop offset="0.11" stop-color="#2055DA"/>
<stop offset="1" stop-color="#00BFF6"/>
</linearGradient>
<clipPath id="clip0_202_14136">
<rect width="37" height="36" fill="white"/>
</clipPath>
</defs>
</svg>
