<svg width="32" height="37" viewBox="0 0 32 37" fill="none" xmlns="http://www.w3.org/2000/svg">
<g clip-path="url(#clip0_202_13885)">
<path d="M20.3924 21.9159C19.9498 22.4323 19.5072 22.9487 19.0646 23.3175C18.7696 23.5389 18.4744 23.6863 18.1794 23.9077L18.0318 36.006C19.286 35.8584 20.6138 35.5634 21.868 35.1946L21.9416 23.2437C21.868 23.1699 21.7942 23.0961 21.7942 23.0225C21.3514 22.5799 20.9088 22.2109 20.3924 21.9159ZM11.7613 21.7683C11.2449 22.0633 10.8023 22.4323 10.3597 22.8749C10.2859 22.9487 10.2121 23.0225 10.1384 23.0961V35.1208C11.3925 35.5634 12.6466 35.7847 13.9007 35.9322L13.9744 23.7601C13.6794 23.6125 13.3843 23.3913 13.0892 23.1699C12.5728 22.8011 12.1302 22.2847 11.7613 21.7683Z" fill="#F56857" fill-opacity="0.5"/>
<path d="M16.1139 0.00561523C13.0155 0.00561523 10.4335 5.09578 10.4335 11.3663C10.4335 11.9565 10.4335 12.5466 10.5073 13.1368C8.07293 14.9073 6.44995 17.7105 6.44995 20.9565C6.44995 22.3581 6.74498 23.6121 7.26138 24.7925C8.22038 22.5794 10.0647 20.7351 12.3515 19.7761C13.3106 21.6203 14.6385 22.7269 16.1139 22.7269C17.5893 22.7269 18.9171 21.6203 19.9499 19.7761C22.1631 20.7351 24.0073 22.5794 24.9663 24.7925C25.4827 23.6121 25.7778 22.2843 25.7778 20.9565C25.7778 17.7105 24.2286 14.8335 21.7942 13.1368C21.8679 12.5466 21.8679 11.9564 21.8679 11.3663C21.7205 5.16957 19.2123 0.00561523 16.1139 0.00561523ZM16.0401 7.38261C17.4417 7.38261 18.5483 8.48919 18.5483 9.8908C18.5483 11.2925 17.4417 12.3991 16.0401 12.3991C14.6385 12.3991 13.5319 11.2925 13.5319 9.8908C13.6057 8.48919 14.7122 7.38261 16.0401 7.38261Z" fill="#F96853"/>
<path d="M8.29435 29.9568C6.37634 28.2601 5.04852 25.9732 4.53212 23.3175C3.13039 23.1699 1.87635 23.0224 0.769775 22.8749C1.28617 27.8175 4.16318 32.0224 8.29435 34.4568V29.9568ZM4.60579 18.5961C4.82715 17.5633 5.26976 16.5307 5.71237 15.5715C5.85994 15.2765 5.93373 14.9815 6.08119 14.7601C6.74516 13.4323 7.70416 12.2519 8.88453 11.2929V11.1453V10.1863C8.88453 9.22734 8.95832 8.34212 9.03211 7.45679C4.67958 9.74373 1.50753 14.0224 0.843563 19.0387C1.95014 18.8913 3.20418 18.7437 4.60579 18.5961ZM23.7124 34.383C27.7698 32.0224 30.6468 27.7437 31.237 22.8011C30.1304 22.9487 28.8764 23.1699 27.4747 23.2437C26.9583 25.8995 25.6304 28.1864 23.7124 29.883V34.383ZM31.1632 19.0387C30.4992 14.0224 27.401 9.81752 23.0485 7.53057C23.1222 8.41579 23.196 9.30113 23.196 10.2601V11.2191V11.3667C24.3026 12.3257 25.2616 13.506 25.9255 14.8339C26.073 15.1289 26.2206 15.3503 26.2944 15.6453C26.8108 16.5307 27.1796 17.5633 27.401 18.5961C28.8026 18.7437 30.0566 18.8913 31.1632 19.0387Z" fill="#F56857" fill-opacity="0.8"/>
</g>
<defs>
<clipPath id="clip0_202_13885">
<rect width="32" height="37" fill="white"/>
</clipPath>
</defs>
</svg>
