<svg width="37" height="36" viewBox="0 0 37 36" fill="none" xmlns="http://www.w3.org/2000/svg">
<g clip-path="url(#clip0_202_14659)">
<path d="M36.0032 0.000396729H0.00317383V36.0004H36.0032V0.000396729Z" fill="#F26522"/>
<path d="M14.8442 22.4946H20.3507V20.9966H16.5448V18.6752H20.0538V17.1771H16.5448V15.0043H20.3507V13.5062H14.8442V22.4946ZM27.7061 20.0518C27.7061 18.2568 27.5846 17.8654 25.1688 17.2851C23.6167 16.9072 23.5898 16.8802 23.5898 15.8545C23.5898 15.0717 23.7922 14.8288 24.9394 14.8288C25.7222 14.8288 26.5994 14.9368 27.3417 15.0987L27.5306 13.6681C26.6399 13.4657 25.6952 13.3712 24.9124 13.3712C22.6315 13.3712 21.8892 14.181 21.8892 15.814C21.8892 17.717 22.1862 18.1354 24.359 18.6212C25.9786 18.9721 26.0056 19.0531 26.0056 20.0518C26.0056 20.9156 25.8031 21.172 24.575 21.172C23.6842 21.172 22.8745 21.01 22.0377 20.7536L21.7408 22.0897C22.3346 22.3732 23.5223 22.6296 24.548 22.6296C27.2067 22.6296 27.7061 21.7523 27.7061 20.0518ZM30.8372 16.7048C30.8372 15.3282 31.4985 15.0582 33.0911 15.0582C33.3745 15.0582 33.9683 15.0987 34.3597 15.1797L34.4677 13.8031C34.0628 13.7086 33.415 13.6411 32.9156 13.6411C30.4593 13.6411 29.1907 14.3969 29.1907 16.7723V20.0518C29.1907 21.6039 29.6495 22.6296 31.9709 22.6296C34.0898 22.6296 34.7376 21.5769 34.7376 20.1733V19.5255C34.7376 17.9734 34.0763 17.2986 32.4432 17.2986C31.8629 17.2986 31.3096 17.3796 30.8372 17.5415V16.7048ZM32.1868 18.7157C32.7807 18.7157 33.0911 18.9181 33.0911 19.566V20.2273C33.0911 20.9156 32.8211 21.2125 31.9709 21.2125C31.1206 21.2125 30.8372 20.9696 30.8372 20.2273V18.9991C31.2151 18.8372 31.701 18.7157 32.1868 18.7157Z" fill="white"/>
</g>
<defs>
<clipPath id="clip0_202_14659">
<rect width="37" height="36.0004" fill="white"/>
</clipPath>
</defs>
</svg>
