<svg width="36" height="37" viewBox="0 0 36 37" fill="none" xmlns="http://www.w3.org/2000/svg">
<g clip-path="url(#clip0_202_10373)">
<path d="M18.001 36.0014C27.9421 36.0014 36.001 27.9425 36.001 18.0014C36.001 8.06028 27.9421 0.00140381 18.001 0.00140381C8.05985 0.00140381 0.000976562 8.06028 0.000976562 18.0014C0.000976562 27.9425 8.05985 36.0014 18.001 36.0014Z" fill="#E55151"/>
<path d="M29.1611 18.2629C29.2403 17.6847 29.2822 17.0923 29.2822 16.4891C29.2822 13.4406 28.2142 10.6445 26.2749 8.61612C26.0578 8.38902 25.8302 8.1758 25.5964 7.97148V4.13586L22.3387 6.05091C21.0529 5.58043 19.6409 5.33615 18.1293 5.33615C16.5847 5.33615 15.1521 5.57553 13.8576 6.03739L10.4812 4.13586V8.03413C10.2725 8.22172 10.069 8.41571 9.87553 8.62199C8.00605 10.6157 6.97644 13.4095 6.97644 16.4891C6.97644 16.8984 6.99611 17.3024 7.03233 17.7007C5.99382 20.1578 6.87748 25.4914 9.62467 27.2831C10.157 26.6508 10.5584 25.9553 10.8298 25.2315C11.7421 25.9797 12.7817 26.56 13.9301 26.9629V29.4103C13.9301 30.0349 14.4363 30.5411 15.0609 30.5411H15.8831C16.2811 30.5411 16.7165 30.2185 16.7165 29.8207V31.9323C16.7165 32.5494 17.2168 33.0497 17.8338 33.0497H18.4895C19.1067 33.0497 19.607 32.5494 19.607 31.9323V29.8207C19.607 30.2185 20.0424 30.5411 20.4402 30.5411H21.2625C21.887 30.5411 22.3934 30.0349 22.3934 29.4103V26.9302C23.4303 26.555 24.3798 26.0342 25.2262 25.3725C25.4959 26.0456 25.88 26.6919 26.3776 27.2831C28.9306 25.6181 29.8737 20.8947 29.1611 18.2629ZM18.1293 26.8086C15.1847 26.8086 12.8143 25.8857 11.0901 24.3589C11.6646 21.7896 10.6327 19.0368 7.8504 17.5004C7.82388 17.1675 7.80974 16.8304 7.80974 16.4891C7.80974 10.7897 11.4996 6.16945 18.1293 6.16945C24.4853 6.16945 28.4488 10.7897 28.4488 16.4891C28.4488 16.7827 28.4363 17.0727 28.4164 17.3601C25.3732 18.8958 24.2752 21.8276 24.9515 24.5225C23.24 25.9515 20.9391 26.8086 18.1293 26.8086ZM25.8025 13.9733C25.7157 10.1714 20.2819 8.03606 17.973 12.7234C15.7855 8.08812 10.2302 10.0846 10.126 14.008C10.2128 17.2024 12.6086 18.5218 16.7057 18.0357L17.973 19.5461L19.2576 18.0357C23.754 18.2787 25.6689 17.2647 25.8025 13.9733Z" fill="white"/>
</g>
<defs>
<clipPath id="clip0_202_10373">
<rect width="36.001" height="37" fill="white"/>
</clipPath>
</defs>
</svg>
