<svg width="37" height="32" viewBox="0 0 37 32" fill="none" xmlns="http://www.w3.org/2000/svg">
<g clip-path="url(#clip0_202_8872)">
<path d="M10.9687 11.5226L17.7989 7.57917C17.9698 7.48045 18.1805 7.48045 18.3514 7.57917L25.1817 11.5226C25.3525 11.6213 25.458 11.8036 25.458 12.0011V19.8878C25.458 20.0851 25.3525 20.2676 25.1817 20.3665L18.3514 24.3099C18.1805 24.4086 17.9698 24.4086 17.7989 24.3099L10.9687 20.3665C10.7977 20.2678 10.6924 20.0853 10.6924 19.8878V12.0011C10.6925 11.8036 10.7979 11.6213 10.9687 11.5226Z" fill="#8080F2"/>
<path d="M35.7822 15.2981L27.6128 1.08557C27.3161 0.571686 26.7679 0.192627 26.1745 0.192627H9.83543C9.24193 0.192627 8.6936 0.571686 8.39685 1.08557L0.227446 15.2667C-0.0693049 15.7808 -0.0693049 16.4295 0.227446 16.9435L8.39685 31.0395C8.6936 31.5534 9.24193 31.8162 9.83543 31.8162H26.1744C26.7677 31.8162 27.3161 31.5613 27.6127 31.0473L35.7821 16.9283C36.0791 16.4145 36.0791 15.812 35.7822 15.2981ZM29.0175 22.1324C29.0175 22.3414 28.8917 22.5347 28.7106 22.6393L18.3046 28.6431C18.1236 28.7475 17.8968 28.7475 17.7159 28.6431L7.30175 22.6393C7.12077 22.5347 6.99413 22.3415 6.99413 22.1324V10.1247C6.99413 9.91559 7.11893 9.72246 7.30006 9.61785L17.7057 3.61404C17.8867 3.50943 18.1131 3.50943 18.2941 3.61404L28.7089 9.61785C28.89 9.72246 29.0175 9.91559 29.0175 10.1247V22.1324Z" fill="#4B32C3"/>
</g>
<defs>
<clipPath id="clip0_202_8872">
<rect width="37" height="32" fill="white"/>
</clipPath>
</defs>
</svg>
