<svg width="34" height="36" viewBox="0 0 34 36" fill="none" xmlns="http://www.w3.org/2000/svg">
<g clip-path="url(#clip0_202_14826)">
<path d="M14.0993 0.80257L3.51423 6.89135C1.73443 7.92176 0.610352 9.84206 0.610352 11.9029V24.1273C0.610352 26.1881 1.73443 28.1084 3.51423 29.1388L14.0993 35.2276C15.8791 36.258 18.1273 36.258 19.9071 35.2276L30.4922 29.1388C32.272 28.1084 33.3961 26.1881 33.3961 24.1273V11.9497C33.3961 9.8889 32.272 7.96859 30.4922 6.93819L19.9071 0.849406C18.1273 -0.274676 15.8791 -0.274676 14.0993 0.80257Z" fill="#32BEBE"/>
<path d="M20.5747 9.01339C20.6444 8.97035 20.7061 9.01145 20.7818 9.04981C24.7322 11.0548 27.5186 14.606 27.4506 19.0869C27.4424 19.6256 27.3797 20.1856 27.2217 20.6862C27.176 20.8312 27.1381 21.0335 27.0477 21.1091C26.9584 21.039 26.9649 20.8711 26.9495 20.7594C26.2864 15.9377 21.397 16.2623 20.2062 20.8616C20.1264 20.8576 20.1243 20.8212 20.07 20.7775C18.1558 19.0952 12.5247 14.5071 14.48 11.9534C15.4115 10.8584 16.3902 11.1743 16.6636 11.2331C16.5612 11.0936 16.154 10.6135 16.1432 10.4845C17.447 10.7697 18.3537 11.1027 19.1193 12.269C19.4436 12.763 19.6402 13.6659 19.3111 14.2428L19.2833 14.2214C19.2809 14.2192 19.2777 14.2161 19.2753 14.2137C19.1455 14.0011 18.8859 13.6167 18.7427 13.3947C18.4183 12.8919 18.4319 13.1688 18.093 13.5983C18.0479 13.6594 17.7139 14.1049 17.6622 14.1261C17.6403 13.6189 17.5989 13.2476 17.3694 12.8732C16.8641 12.0491 15.415 12.0498 15.373 13.1674C15.5261 17.0761 23.6435 17.1085 21.5036 10.9129C21.2994 10.3218 21.1387 9.99056 20.8253 9.46193C20.7619 9.35497 20.5748 9.11927 20.5747 9.01339ZM6.5542 20.1908L6.59327 19.0766C6.76964 14.6151 8.26591 10.3977 13.0423 9.119C13.1492 9.0904 13.3838 9.00287 13.4919 9.01199C13.3921 9.19274 13.1763 9.44498 13.0459 9.6533C8.40152 17.0692 22.3825 19.3211 19.7628 25.2301C17.9408 28.5074 14.3368 26.4207 14.4784 25.4901L16.3637 25.7757C16.4527 25.8932 16.1207 26.0932 16.1414 26.1955C16.1613 26.2937 16.8023 26.7707 17.432 26.391C20.1329 24.7624 18.423 19.9719 13.5354 20.6335C13.5055 20.5895 13.4946 20.5099 13.4845 20.4582C12.7862 16.856 8.83693 16.2792 6.86225 19.6838C6.8093 19.7751 6.61808 20.1607 6.5542 20.1908Z" fill="white"/>
</g>
<defs>
<clipPath id="clip0_202_14826">
<rect width="34" height="36.0004" fill="white"/>
</clipPath>
</defs>
</svg>
