<svg width="37" height="36" viewBox="0 0 37 36" fill="none" xmlns="http://www.w3.org/2000/svg">
<g clip-path="url(#clip0_202_14832)">
<path d="M35.4984 18.621C35.3294 18.6352 35.1595 18.6418 34.979 18.6418C33.9319 18.6418 32.9161 18.3962 31.9996 17.9465C32.3047 16.1961 32.4345 14.4327 32.4005 12.6757C31.4069 11.2385 30.2713 9.88244 28.9894 8.63313C29.5456 7.59041 30.3677 6.69324 31.394 6.05707L31.8347 5.78464L31.4913 5.3974C29.7221 3.40517 27.6105 1.86491 25.2166 0.819769L24.7392 0.612061L24.6179 1.11668C24.3324 2.29272 23.7357 3.35365 22.9165 4.20509C21.3419 3.36814 19.697 2.69172 18.0007 2.17937C16.3085 2.69059 14.6664 3.36508 13.0925 4.20074C12.2767 3.35043 11.6814 2.29208 11.397 1.11942L11.275 0.614959L10.7994 0.821701C8.43552 1.85171 6.26585 3.43367 4.52561 5.39627L4.1812 5.78431L4.62142 6.05675C5.6445 6.6905 6.46438 7.58236 7.01956 8.61945C5.74159 9.86393 4.60725 11.2156 3.61443 12.6462C3.57579 14.4024 3.69897 16.1787 4.00554 17.9533C3.09355 18.3988 2.08335 18.6416 1.0432 18.6416C0.86061 18.6416 0.689774 18.635 0.523769 18.6212L0.0065918 18.5817L0.055057 19.0981C0.308493 21.7105 1.11968 24.1953 2.46737 26.4841L2.73047 26.9308L3.12543 26.5955C4.0408 25.8191 5.1468 25.305 6.32285 25.0978C7.09813 26.683 8.01704 28.1723 9.05944 29.5551C10.7227 30.1369 12.4557 30.5711 14.2454 30.8296C14.417 32.0132 14.2803 33.2374 13.8134 34.3693L13.6165 34.849L14.1229 34.9604C15.4195 35.2455 16.7276 35.3908 18.0084 35.3908L21.8929 34.9604L22.3998 34.849L22.2024 34.3683C21.7367 33.2364 21.6 32.0108 21.7717 30.827C23.5543 30.5684 25.2808 30.1351 26.938 29.5551C27.9813 28.1712 28.901 26.6809 29.6776 25.0936C30.8574 25.2995 31.9696 25.814 32.8906 26.5926L33.2856 26.9274L33.5474 26.4819C34.8975 24.1902 35.7086 21.7055 35.9581 19.0973L36.0066 18.5819L35.4984 18.621ZM23.5599 24.9345C21.7222 25.4343 19.8559 25.6866 18.0007 25.6866C16.1405 25.6866 14.2765 25.4345 12.4372 24.9345C11.4281 23.3666 10.6303 21.6869 10.0561 19.9184C9.48436 18.1582 9.14977 16.3141 9.05268 14.4153C10.2405 12.9467 11.5912 11.6602 13.0837 10.5772C14.6003 9.47411 16.2502 8.57791 18.0007 7.90374C19.7484 8.57807 21.3952 9.47298 22.9083 10.5714C24.4065 11.6602 25.7632 12.9567 26.9568 14.4345C26.855 16.3225 26.5164 18.156 25.9437 19.9133C25.371 21.6814 24.5706 23.3664 23.5599 24.9345ZM19.5184 16.0755C19.5184 17.3738 20.5705 18.4239 21.867 18.4239C23.1631 18.4239 24.2141 17.3739 24.2141 16.0755C24.2141 14.7823 23.1631 13.7281 21.867 13.7281C20.5705 13.7281 19.5184 14.7823 19.5184 16.0755ZM16.484 16.0755C16.484 17.3738 15.4321 18.4239 14.1356 18.4239C12.8381 18.4239 11.7891 17.3739 11.7891 16.0755C11.7891 14.7827 12.8383 13.7286 14.1356 13.7286C15.4321 13.7286 16.484 14.7827 16.484 16.0755Z" fill="#419EDA"/>
</g>
<defs>
<clipPath id="clip0_202_14832">
<rect width="37" height="36" fill="white"/>
</clipPath>
</defs>
</svg>
