<svg width="37" height="36" viewBox="0 0 37 36" fill="none" xmlns="http://www.w3.org/2000/svg">
<g clip-path="url(#clip0_202_12659)">
<path d="M18.0026 0.00769043C27.9439 0.00769043 36.0024 8.06516 36.0024 18.0041C36.0024 27.9437 27.9439 36.0006 18.0026 36.0006C8.06151 36.0008 0.00244141 27.9438 0.00244141 18.0041C0.00244141 8.06516 8.06151 0.00769043 18.0026 0.00769043Z" fill="#24373E"/>
<path d="M18.0022 6.61609C24.293 6.61609 29.3925 11.7153 29.3925 18.0044C29.3925 24.2943 24.293 29.3929 18.0022 29.3929C11.7119 29.3929 6.6123 24.2943 6.6123 18.0044C6.6123 11.7153 11.7119 6.61609 18.0022 6.61609Z" fill="#E5D4C4"/>
<path d="M18.0027 11.2284C21.7459 11.2284 24.7808 14.2621 24.7808 18.0048C24.7808 21.7472 21.7459 24.7813 18.0027 24.7813C14.2597 24.7813 11.2251 21.7474 11.2251 18.0048C11.2251 14.2621 14.2597 11.2284 18.0027 11.2284Z" fill="#8FB1BE"/>
<path opacity="0.25" d="M18.583 0.00769043C34.8029 1.2794 36.0024 16.7333 36.0024 16.7333C36.0024 16.7333 24.7341 10.5123 17.6732 10.6378C10.6402 10.2184 0.179688 15.3928 0.179688 15.3928C0.179688 15.3928 2.27445 0.215801 18.583 0.00769043Z" fill="url(#paint0_linear_202_12659)"/>
</g>
<defs>
<linearGradient id="paint0_linear_202_12659" x1="0.179688" y1="8.37056" x2="36.0024" y2="8.37056" gradientUnits="userSpaceOnUse">
<stop stop-color="white" stop-opacity="0"/>
<stop offset="1" stop-color="white"/>
</linearGradient>
<clipPath id="clip0_202_12659">
<rect width="37" height="36.0006" fill="white"/>
</clipPath>
</defs>
</svg>
