<svg width="37" height="37" viewBox="0 0 37 37" fill="none" xmlns="http://www.w3.org/2000/svg">
<g clip-path="url(#clip0_202_13414)">
<mask id="mask0_202_13414" style="mask-type:alpha" maskUnits="userSpaceOnUse" x="0" y="0" width="37" height="37">
<path d="M13.7331 34.237L1.77227 22.276C-0.586199 19.9175 -0.586199 16.0937 1.77227 13.7353L13.7331 1.77447C16.0915 -0.584001 19.9153 -0.584001 22.2738 1.77447L34.2346 13.7353C36.593 16.0937 36.593 19.9175 34.2346 22.276L22.2738 34.237C19.9153 36.5955 16.0915 36.5955 13.7331 34.237Z" fill="white"/>
</mask>
<g mask="url(#mask0_202_13414)">
<path d="M13.7331 34.237L1.77227 22.276C-0.586199 19.9175 -0.586199 16.0937 1.77227 13.7353L13.7331 1.77447C16.0915 -0.584001 19.9153 -0.584001 22.2738 1.77447L34.2346 13.7353C36.593 16.0937 36.593 19.9175 34.2346 22.276L22.2738 34.237C19.9153 36.5955 16.0915 36.5955 13.7331 34.237Z" fill="white"/>
<path d="M34.7732 14.3567C34.6111 14.1443 34.439 13.9372 34.2446 13.7429L30.0273 9.52551C21.6172 13.2521 4.89307 14.0239 1.18066 14.1484C1.19507 14.1313 -0.00577569 16.3704 0.00594461 16.3304C4.71335 16.5621 27.6932 17.4792 34.7732 14.3567Z" fill="#F4922E"/>
<path d="M4.54834 10.8418C9.03209 10.7048 19.0449 9.89492 26.3212 5.59283L22.2384 1.6177C19.8531 -0.847226 15.9068 -0.688025 13.5217 1.7769L4.54834 10.8418Z" fill="#F4922E"/>
<path d="M13.5197 34.2519C15.8782 36.6103 19.7481 36.9378 22.4034 34.3129L26.6186 30.0977C19.5952 25.9803 9.48669 25.5351 4.88403 25.6142L13.5197 34.2519Z" fill="#F4922E"/>
<path d="M-0.345459 19.1793L1.21749 22.1888C5.91245 22.3428 20.2561 23.0597 30.2489 26.2794L34.2446 22.2837C34.5608 21.9675 34.8311 21.6235 35.0625 21.2619C28.2767 17.9504 4.62151 18.9552 0.135562 19.1793" fill="#F4922E"/>
</g>
</g>
<defs>
<clipPath id="clip0_202_13414">
<rect width="37" height="37" fill="white"/>
</clipPath>
</defs>
</svg>
