<svg width="28" height="32" viewBox="0 0 28 32" fill="none" xmlns="http://www.w3.org/2000/svg">
<path fill-rule="evenodd" clip-rule="evenodd" d="M26.6061 5.56782C26.3685 4.29075 25.6122 3.66145 24.9285 3.41401C24.1909 3.14633 22.6951 2.86905 20.8157 2.64666C19.3037 2.46789 17.5266 2.48212 16.4531 2.51544C16.3243 1.62949 15.7053 0.820157 15.0127 0.539955C13.1675 -0.205724 10.3165 -0.0255787 9.58455 0.180381C9.00285 0.343593 8.35907 0.678126 8.00075 1.19352C7.76044 1.53782 7.60497 1.97891 7.60376 2.59514C7.60376 2.9439 7.61343 3.76548 7.62227 4.49538C7.62959 5.10539 7.63745 5.6617 7.63987 5.83302L7.64062 5.88696C7.64029 6.53887 7.11403 7.06944 6.46184 7.07026H3.47005C2.83192 7.07026 2.34428 7.17793 1.97184 7.34782C1.5988 7.51787 1.3346 7.74716 1.13385 8.01837C0.734218 8.55688 0.664884 9.22153 0.666532 9.89975C0.666532 9.89975 0.672411 10.454 0.80542 11.5267C0.915958 12.3567 1.81252 18.155 2.66414 19.9185C2.99427 20.6046 3.21425 20.8903 3.86292 21.1927C5.30822 21.814 8.60948 22.5051 10.1567 22.703C10.4127 22.7359 10.6528 22.7748 10.878 22.8112C12.0117 22.9948 12.7663 23.117 13.2483 22.1024C13.2502 22.0994 13.364 21.7998 13.5205 21.3605C14.022 19.8346 14.0919 18.4808 14.0919 17.5011C14.0919 17.4015 14.2374 17.3969 14.2374 17.5011C14.2374 17.5396 14.237 17.5835 14.2366 17.6323C14.2289 18.4597 14.2083 20.677 15.9475 21.2971C16.6745 21.5559 18.1827 21.7867 19.7151 21.967C21.1007 22.1269 22.1063 22.6744 22.1063 26.2434C22.1063 28.4148 21.652 28.7125 19.2772 28.7125L19.1006 28.7126C17.307 28.7141 16.6184 28.7147 16.6184 27.2271C16.6184 26.0918 17.6415 26.104 18.5095 26.1143C18.5903 26.1152 18.6698 26.1162 18.747 26.1162C19.0017 26.1162 18.9797 25.9964 18.9285 25.7168C18.8983 25.5522 18.858 25.3321 18.858 25.0483C18.858 24.7255 18.9432 24.4604 19.0073 24.2612C19.0943 23.9905 19.1422 23.8417 18.8836 23.8352C15.7506 23.7487 13.9071 23.8316 13.9071 27.7656C13.9071 31.3369 15.2684 32 19.7151 32C23.2016 32 24.4306 31.8854 25.8701 27.4009C26.1551 26.5156 26.844 23.8139 27.2609 19.2778C27.5244 16.4095 27.0123 7.75273 26.6061 5.56782ZM20.5285 15.1363C20.0978 15.1212 19.6835 15.1485 19.2972 15.2109C19.4059 14.3293 19.7683 13.2475 21.0523 13.2928C22.4735 13.3419 22.6727 14.6905 22.6778 15.6041C22.0785 15.3358 21.3366 15.1649 20.5285 15.1363ZM3.3299 6.19789C2.59524 6.19789 1.98151 6.32359 1.47535 6.55288C1.45232 6.563 1.29069 6.64328 1.17073 6.70286L1.16753 6.70446C1.17082 6.69199 1.17791 6.6798 1.18928 6.67042L7.00145 0.883865C7.01283 0.872447 7.02431 0.866821 7.03574 0.86489L6.93344 1.05778C6.71934 1.48724 6.59649 1.99982 6.59649 2.58769V2.59613C6.59649 3.28488 6.63012 5.69405 6.63266 5.87606L6.63281 5.88696C6.63242 6.05773 6.49458 6.19789 6.32317 6.19789H3.3299Z" fill="#20C05C"/>
</svg>
