<svg width="37" height="34" viewBox="0 0 37 34" fill="none" xmlns="http://www.w3.org/2000/svg">
<g clip-path="url(#clip0_202_14517)">
<path d="M17.061 12.715C17.3554 12.2811 17.6777 12.2259 17.9391 12.2259C18.2006 12.2259 18.6361 12.2811 18.9306 12.715C21.2513 15.9025 25.0818 22.252 27.9074 26.9358C29.7501 29.9903 31.1654 32.3363 31.4558 32.6348C32.5458 33.7556 34.0407 33.0571 34.9094 31.7858C35.7646 30.5343 36.002 29.6554 36.002 28.7179C36.002 28.0793 23.6122 5.03666 22.3645 3.11864C21.1645 1.27384 20.7737 0.807861 18.7199 0.807861H17.183C15.1354 0.807861 14.8395 1.27384 13.6394 3.11864C12.3918 5.03666 0.00195312 28.0793 0.00195312 28.7179C0.00195312 29.6554 0.239368 30.5343 1.09458 31.7858C1.96325 33.0571 3.45816 33.7556 4.54815 32.6348C4.83855 32.3363 6.25385 29.9903 8.09654 26.9358C10.9221 22.252 14.7404 15.9025 17.061 12.715Z" fill="#000020"/>
</g>
<defs>
<clipPath id="clip0_202_14517">
<rect width="37" height="34" fill="white"/>
</clipPath>
</defs>
</svg>
