<svg width="41" height="32" viewBox="0 0 41 32" fill="none" xmlns="http://www.w3.org/2000/svg">
<g clip-path="url(#clip0_202_13404)">
<path d="M30.6079 28.6496C30.4054 29.5176 30.3015 30.0462 29.8693 30.6296C29.5812 31.0187 29.1093 31.2419 28.6285 31.1857C28.2107 31.1369 27.8062 30.9579 27.3995 30.8013C22.6959 28.991 18.8999 25.8035 15.0649 22.6746C14.1508 21.9288 12.2219 20.2022 11.1265 19.2952C13.7935 17.4097 14.8976 16.2437 14.8976 16.2437C19.1952 19.9747 24.2059 24.3426 29.4351 26.5273C30.2684 26.8755 31.048 26.7627 30.6079 28.6496Z" fill="#FEC32D"/>
<path d="M25.2923 14.6267C24.0825 13.6706 21.9664 12.0833 20.7717 11.1617C17.7359 8.81997 14.4982 6.86559 10.784 5.752C8.77228 5.14887 8.50806 3.12684 10.029 1.34074C10.3054 1.01605 10.7376 0.802928 11.1551 0.890272C18.0728 2.33855 23.3078 6.57731 29.1373 11.927C27.165 12.969 25.2923 14.6267 25.2923 14.6267Z" fill="#FEC32D"/>
<path d="M21.1255 19.6472C25.4449 15.2754 33.8314 9.99302 38.0608 9.7988C38.5552 9.77614 39.0247 10.0233 39.2844 10.4446C39.701 11.1204 39.8357 11.9294 39.96 12.725C40.0802 13.4938 39.6794 14.1499 38.9504 14.3541C33.8975 15.7694 28.9903 19.2105 25.0072 22.4958C23.6675 21.8632 21.1255 19.6472 21.1255 19.6472Z" fill="#2C6DB0"/>
<path d="M18.7676 11.3683C13.8057 15.5114 8.42167 20.4545 2.6012 22.2242C2.10979 22.3736 1.56729 22.2503 1.21385 21.8777C0.738383 21.3762 0.556352 20.8603 0.363539 20.3581C-0.309899 18.6036 -0.118962 18.0905 1.62448 17.4195C5.71698 15.8442 9.12214 13.2262 12.4167 10.4278C12.9156 10.004 13.9051 9.19045 14.4509 8.7417C16.2557 9.22545 18.7676 11.3683 18.7676 11.3683Z" fill="#2C6DB0"/>
<path d="M9.8281 26.6554C11.2511 25.9262 13.4417 25.0655 14.8698 24.2632C16.0234 25.2804 18.6944 27.3066 18.6944 27.3066C16.7576 28.6013 13.6687 30.529 11.5183 31.0851C10.9984 31.2196 10.4464 31.0173 10.1179 30.5924C9.4892 29.7788 9.1256 28.9151 9.09435 27.8872C9.07873 27.3716 9.36919 26.8905 9.8281 26.6554Z" fill="#2C6DB0"/>
<path d="M21.3656 3.95855C23.9086 2.42042 26.7698 1.26542 28.7305 0.845886C29.2697 0.730573 29.8331 0.966042 30.129 1.43136C30.6917 2.31589 30.9256 3.20479 30.8681 4.17714C30.8398 4.65683 30.5739 5.09214 30.1523 5.3223C28.9223 5.99402 26.7315 6.51777 25.4725 7.0673C25.4725 7.0673 23.2522 5.19433 21.3656 3.95855Z" fill="#2C6DB0"/>
<path d="M36.4938 16.6655C39.9282 17.9994 41.195 18.4518 38.6894 21.9127C38.3957 22.3183 37.9289 22.321 37.4414 22.2058C35.8788 21.8368 33.1058 20.239 31.5708 19.346C34.4002 17.3887 36.4938 16.6655 36.4938 16.6655Z" fill="#FEC32D"/>
<path d="M3.95675 15.1147C3.10863 14.8722 1.49503 14.6162 0.756126 14.1662C0.422063 13.9628 0.197375 13.6086 0.149406 13.2205C0.0279998 12.239 0.280031 11.3551 0.758626 10.4658C1.02019 9.97998 1.5541 9.69889 2.10253 9.75967C3.74941 9.94264 6.72566 11.1872 8.33692 11.9239C6.00348 14.0726 3.95675 15.1147 3.95675 15.1147Z" fill="#FEC32D"/>
</g>
<defs>
<clipPath id="clip0_202_13404">
<rect width="41" height="32" fill="white"/>
</clipPath>
</defs>
</svg>
