<svg width="49" height="49" viewBox="0 0 49 49" fill="none" xmlns="http://www.w3.org/2000/svg">
<path d="M48.0022 24.0024C48.0022 10.7462 37.2584 0.00244141 24.0022 0.00244141C10.746 0.00244141 0.00219727 10.7462 0.00219727 24.0024C0.00219727 35.9837 8.7772 45.9118 20.2522 47.7118V30.9399H14.1584V24.0024H20.2522V18.7149C20.2522 12.7008 23.8335 9.37744 29.3178 9.37744C31.9428 9.37744 34.6897 9.84619 34.6897 9.84619V15.7524H31.6616C28.6803 15.7524 27.7522 17.604 27.7522 19.5024V24.0024H34.4084L33.3444 30.9399H27.7522V47.7118C39.2272 45.9118 48.0022 35.9837 48.0022 24.0024Z" fill="#1877F2"/>
<path d="M33.3444 30.9399L34.4084 24.0024H27.7522V19.5024C27.7522 17.604 28.6803 15.7524 31.6616 15.7524H34.6897V9.84619C34.6897 9.84619 31.9428 9.37744 29.3178 9.37744C23.8335 9.37744 20.2522 12.7008 20.2522 18.7149V24.0024H14.1584V30.9399H20.2522V47.7118C21.4756 47.904 22.7272 48.0024 24.0022 48.0024C25.2772 48.0024 26.5288 47.904 27.7522 47.7118V30.9399H33.3444Z" fill="white"/>
</svg>
