<svg width="41" height="40" viewBox="0 0 41 40" fill="none" xmlns="http://www.w3.org/2000/svg">
<path d="M20.0042 0C8.74021 0 0.00598145 8.25427 0.00598145 19.3983C0.00598145 25.2278 2.39577 30.2673 6.28543 33.747C6.6104 34.037 6.81038 34.4469 6.82038 34.8869L6.93037 38.4466C6.96536 39.5815 8.13526 40.3214 9.17517 39.8615L13.1448 38.1116C13.4798 37.9616 13.8598 37.9366 14.2147 38.0316C16.0396 38.5316 17.9794 38.8016 20.0042 38.8016C31.2682 38.8016 40.0024 30.5473 40.0024 19.4033C40.0024 8.25927 31.2682 0 20.0042 0Z" fill="url(#paint0_radial_202_15817)"/>
<path d="M7.99513 25.0728L13.8696 15.7536C14.8045 14.2687 16.8044 13.9037 18.2092 14.9537L22.8838 18.4583C23.3138 18.7783 23.9037 18.7783 24.3287 18.4533L30.6381 13.6638C31.4781 13.0238 32.578 14.0337 32.018 14.9287L26.1385 24.2428C25.2036 25.7277 23.2038 26.0927 21.7989 25.0428L17.1243 21.5381C16.6944 21.2181 16.1044 21.2181 15.6795 21.5431L9.37001 26.3326C8.53008 26.9726 7.43018 25.9677 7.99513 25.0728Z" fill="white"/>
<defs>
<radialGradient id="paint0_radial_202_15817" cx="0" cy="0" r="1" gradientUnits="userSpaceOnUse" gradientTransform="translate(7.7053 39.7787) scale(43.5801 43.5801)">
<stop stop-color="#0099FF"/>
<stop offset="0.6098" stop-color="#A033FF"/>
<stop offset="0.9348" stop-color="#FF5280"/>
<stop offset="1" stop-color="#FF7061"/>
</radialGradient>
</defs>
</svg>
