<svg width="41" height="14" viewBox="0 0 41 14" fill="none" xmlns="http://www.w3.org/2000/svg">
<path d="M10.0037 7.01424H8.07007V5.69734C8.07007 5.14724 8.33678 4.59714 9.22027 4.59714H10.0871V2.89684C10.0871 2.89684 9.28695 2.74681 8.53681 2.74681C6.93653 2.74681 5.90301 3.73032 5.90301 5.48063V7.01424H4.11936V9.03127H5.90301V13.9155C2.55241 13.3987 0.00195312 10.4982 0.00195312 7.01424C0.00195312 3.14688 3.13585 0.0296577 6.98654 0.0296577C10.8372 0.0296577 13.9711 3.14688 13.9711 7.01424C13.9711 10.4982 11.4207 13.3987 8.07007 13.9155V9.03127H9.68702L10.0037 7.01424ZM40.002 0.784626V13.2202C40.002 13.4202 39.9353 13.6203 39.7852 13.7536C39.6352 13.9036 39.4352 13.987 39.2351 13.987H15.7976C15.5976 13.987 15.3975 13.9036 15.2642 13.7536C15.1142 13.6036 15.0308 13.4202 15.0308 13.2035V0.784626C15.0308 0.58459 15.1142 0.384555 15.2642 0.251197C15.3975 0.101171 15.5976 0.0178223 15.7976 0.0178223H39.2351C39.4352 0.0178223 39.6352 0.101171 39.7852 0.251197C39.9353 0.384555 40.002 0.58459 40.002 0.784626ZM23.8467 9.96044H24.9136V4.04271H23.8467V9.96044ZM18.937 9.96044H22.7044V9.02694H20.0039V4.04271H18.937V9.96044ZM27.9873 9.96044H29.2042L31.2546 4.04271H30.121L28.6541 8.72688H28.5707L27.0871 4.04271H25.9203L27.9873 9.96044ZM35.9554 6.53049H33.3383V4.96354H36.1054V4.04671H32.2714V9.96444H36.1054V9.04761H33.3383V7.38064H35.9554V6.53049Z" fill="#1877F2"/>
</svg>
