<svg width="37" height="34" viewBox="0 0 37 34" fill="none" xmlns="http://www.w3.org/2000/svg">
<g clip-path="url(#clip0_202_12912)">
<path d="M23.4539 15.716L15.2237 20.5881C14.4669 21.037 13.5061 20.4956 13.5061 19.6226V9.87663C13.5061 9.00266 14.4669 8.46175 15.2237 8.9109L23.4539 13.7832C24.1912 14.2201 24.1912 15.2792 23.4539 15.716Z" fill="#1877F2"/>
<path fill-rule="evenodd" clip-rule="evenodd" d="M31.1309 29.0005H4.88059C2.19201 29.0005 0.00537109 26.8134 0.00537109 24.125V5.37472C0.00537109 2.68718 2.19201 0.499756 4.88059 0.499756H31.1304C33.8187 0.499756 36.0054 2.68639 36.0054 5.37472V24.125C36.0054 26.8128 33.8187 29.0005 31.1309 29.0005ZM4.88059 2.75044C3.43277 2.75044 2.25527 3.92846 2.25527 5.3755V24.1256C2.25527 25.5726 3.43277 26.7506 4.88059 26.7506H31.1304C32.5782 26.7506 33.7555 25.5726 33.7555 24.1256V5.37472C33.7555 3.92768 32.5782 2.74966 31.1304 2.74966H4.88059V2.75044Z" fill="#1877F2"/>
<path d="M10.9841 33.5003H25.0288C25.1408 33.5004 25.2518 33.4783 25.3552 33.4355C25.4587 33.3926 25.5528 33.3298 25.632 33.2506C25.7112 33.1714 25.7741 33.0774 25.8169 32.9739C25.8598 32.8705 25.8819 32.7595 25.8819 32.6475V32.1032C25.8819 31.9912 25.8599 31.8802 25.8171 31.7767C25.7743 31.6732 25.7115 31.5791 25.6323 31.4999C25.5531 31.4206 25.459 31.3578 25.3556 31.3149C25.252 31.272 25.1411 31.2499 25.0291 31.2499H10.9841C10.872 31.2499 10.7611 31.272 10.6575 31.3149C10.554 31.3577 10.46 31.4206 10.3808 31.4998C10.3015 31.5791 10.2387 31.6732 10.1959 31.7767C10.153 31.8802 10.131 31.9912 10.131 32.1032V32.6475C10.1311 32.8737 10.221 33.0906 10.3809 33.2506C10.5409 33.4105 10.7579 33.5003 10.9841 33.5003Z" fill="#1877F2"/>
</g>
<defs>
<clipPath id="clip0_202_12912">
<rect width="37" height="34" fill="white"/>
</clipPath>
</defs>
</svg>
