<svg width="37" height="36" viewBox="0 0 37 36" fill="none" xmlns="http://www.w3.org/2000/svg">
<path d="M0.00463867 12.8C0.00463867 8.31958 0.00463867 6.07937 0.876587 4.36808C1.64357 2.86278 2.86742 1.63893 4.37271 0.871948C6.08401 0 8.32422 0 12.8046 0H23.2046C27.6851 0 29.9253 0 31.6366 0.871948C33.1419 1.63893 34.3657 2.86278 35.1327 4.36808C36.0046 6.07937 36.0046 8.31958 36.0046 12.8V23.2C36.0046 27.6804 36.0046 29.9206 35.1327 31.6319C34.3657 33.1372 33.1419 34.3611 31.6366 35.1281C29.9253 36 27.6851 36 23.2046 36H12.8046C8.32422 36 6.08401 36 4.37271 35.1281C2.86742 34.3611 1.64357 33.1372 0.876587 31.6319C0.00463867 29.9206 0.00463867 27.6804 0.00463867 23.2V12.8Z" fill="url(#paint0_linear_202_15805)"/>
<path d="M5.54785 12.2298C5.14746 12.9914 5.14746 13.9884 5.14746 15.9824V20.0176C5.14746 22.0116 5.14746 23.0086 5.54785 23.7703C5.90003 24.4402 6.462 24.9849 7.15321 25.3262C7.93901 25.7143 8.96768 25.7143 11.025 25.7143H17.2291C19.2864 25.7143 20.3151 25.7143 21.1009 25.3262C21.7921 24.9849 22.3541 24.4402 22.7063 23.7703C23.1066 23.0086 23.1066 22.0116 23.1066 20.0176V15.9824C23.1066 13.9884 23.1066 12.9914 22.7063 12.2298C22.3541 11.5598 21.7921 11.0151 21.1009 10.6738C20.3151 10.2857 19.2864 10.2857 17.2291 10.2857H11.025C8.96768 10.2857 7.93901 10.2857 7.15321 10.6738C6.462 11.0151 5.90003 11.5598 5.54785 12.2298Z" fill="white"/>
<path d="M24.5068 14.6575L28.5155 11.4007C29.4452 10.6454 30.8617 11.2861 30.8617 12.4619V23.5715C30.8617 24.7417 29.457 25.3842 28.525 24.6403L24.5177 21.4418C24.1411 21.1412 23.923 20.6931 23.923 20.2203V15.8702C23.923 15.4022 24.1367 14.9582 24.5068 14.6575Z" fill="white"/>
<defs>
<linearGradient id="paint0_linear_202_15805" x1="18.0046" y1="0" x2="18.0046" y2="36" gradientUnits="userSpaceOnUse">
<stop stop-color="#61F677"/>
<stop offset="1" stop-color="#10BC2B"/>
</linearGradient>
</defs>
</svg>
