<svg width="32" height="37" viewBox="0 0 32 37" fill="none" xmlns="http://www.w3.org/2000/svg">
<g clip-path="url(#clip0_202_15700)">
<path d="M23.2599 23.1099V23.1111L16.0147 27.4147L16.0053 27.409V27.4085L8.7511 23.1111L1.49646 27.4085L16.0053 36.0042L30.5145 27.4085L23.2599 23.1099Z" fill="#4CAD31"/>
<path d="M16.0052 27.4067L23.2594 31.7037L16.0052 36.0024V27.4067Z" fill="#64B32C"/>
<path d="M8.7511 23.1099V31.7043L1.49646 27.4073L8.7511 23.1099Z" fill="#8BBE2D"/>
<path d="M16.0053 27.4067V36.0024L8.7511 31.7037L16.0053 27.4067Z" fill="#76B828"/>
<path d="M23.2599 31.7043V23.1099L16.0052 27.4073L23.2599 31.7043Z" fill="#5DB12E"/>
<path d="M8.7511 31.7043L16.0147 27.4135L8.7511 23.1099V31.7043Z" fill="#82BB24"/>
<path d="M31.4248 8.60005L31.424 8.59957V8.59921L31.4236 8.59945L16.9152 0.00439453V8.59921L24.1698 12.8975V21.4937L31.424 25.7906V8.60066L31.4248 8.60005Z" fill="#751F82"/>
<path d="M24.1698 12.8965L31.424 17.1939V8.59814L24.1698 12.8965Z" fill="#934C98"/>
<path d="M24.1698 12.8969L24.1693 4.30127L31.4248 8.59946L24.1698 12.8969Z" fill="#8A398D"/>
<path d="M24.1698 21.4945L31.424 25.7915V17.1958L24.1698 21.4945Z" fill="#B987BB"/>
<path d="M31.424 17.1964L24.1698 21.4951V12.8989L31.424 17.1964Z" fill="#A466A7"/>
<path d="M24.1693 4.30127L16.9152 8.59862L24.1698 12.8969L24.1693 4.30127Z" fill="#7B1F82"/>
<path d="M0.586779 8.59957L0.586297 8.59921V8.59981L0.585815 8.60005L0.586297 8.6003V25.7906L7.84046 21.4937V12.8975L15.0955 8.59921V0.00439453L0.586779 8.59957Z" fill="#0062AE"/>
<path d="M7.84046 12.8965L0.586304 17.1951V8.59814L7.84046 12.8965Z" fill="#007EC6"/>
<path d="M15.0955 8.59921L7.84082 4.30186L15.0955 0.00439453V8.59921Z" fill="#26B2E7"/>
<path d="M7.84046 12.8969L0.585815 8.59946L7.84082 4.30127L7.84046 12.8969Z" fill="#008BD0"/>
<path d="M0.586304 17.1976L7.84046 21.4951V12.8989L0.586304 17.1976Z" fill="#0071BB"/>
<path d="M7.84082 4.30127L7.84045 12.8969L15.0955 8.59862L7.84082 4.30127Z" fill="#009DDC"/>
</g>
<defs>
<clipPath id="clip0_202_15700">
<rect width="32" height="37" fill="white"/>
</clipPath>
</defs>
</svg>
