<svg width="47" height="44" viewBox="0 0 47 44" fill="none" xmlns="http://www.w3.org/2000/svg">
<g clip-path="url(#clip0_202_12845)">
<path d="M22.9954 28.3792L21.8772 23.5113C21.0924 22.7263 20.4699 21.7945 20.0452 20.7689C19.6205 19.7433 19.402 18.6442 19.4022 17.5342L16.2522 16.3867L14.0798 15.5969C3.50143 15.5969 7.13068 23.5608 9.17031 25.9334L11.1863 27.9483L11.4664 28.225C16.5019 33.2617 22.5803 31.6518 22.9954 28.3792Z" fill="url(#paint0_linear_202_12845)"/>
<g opacity="0.4" filter="url(#filter0_f_202_12845)">
<path opacity="0.4" d="M23.0022 11.1364C23.0022 14.0389 19.9827 16.3856 16.2522 16.3856H14.0022C12.8928 16.3838 11.8046 16.6901 10.859 17.2704C9.91343 17.8506 9.14748 18.6819 8.64653 19.6718C8.14558 20.6617 7.9293 21.7713 8.02178 22.8768C8.11426 23.9824 8.51188 25.0406 9.17033 25.9335L7.81471 24.5756C5.99919 22.523 4.99863 19.8763 5.00221 17.136C5.00229 16.6685 5.03122 16.2015 5.08883 15.7376C5.43008 13.0175 6.75265 10.5155 8.80816 8.70147C10.8637 6.88748 13.5107 5.88632 16.2522 5.88599C19.9827 5.88599 23.0022 8.23386 23.0022 11.1364Z" fill="black"/>
</g>
<g opacity="0.3" filter="url(#filter1_f_202_12845)">
<path opacity="0.3" d="M23.0022 11.1364C23.0022 14.0389 19.9827 16.3856 16.2522 16.3856H14.0022C12.8928 16.3838 11.8046 16.6901 10.859 17.2704C9.91343 17.8506 9.14748 18.6819 8.64653 19.6718C8.14558 20.6617 7.9293 21.7713 8.02178 22.8768C8.11426 23.9824 8.51188 25.0406 9.17033 25.9335L7.81471 24.5756C5.99919 22.523 4.99863 19.8763 5.00221 17.136C5.00229 16.6685 5.03122 16.2015 5.08883 15.7376C5.43008 13.0175 6.75265 10.5155 8.80816 8.70147C10.8637 6.88748 13.5107 5.88632 16.2522 5.88599C19.9827 5.88599 23.0022 8.23386 23.0022 11.1364Z" fill="black"/>
</g>
<g opacity="0.24" filter="url(#filter2_f_202_12845)">
<path opacity="0.24" d="M37.706 17.2248C37.1941 16.7127 36.5938 16.2973 35.9342 15.9986C34.7068 15.6008 33.4301 15.3759 32.1407 15.3303L29.7523 16.3856L27.8769 18.0112C27.8769 20.2526 26.9867 22.4022 25.4019 23.9872L23.0023 28.3859L22.9956 28.3792C21.4127 29.8204 19.3413 30.6063 17.2009 30.5779C15.0604 30.5495 13.0106 29.7089 11.4666 28.2262L20.3934 37.0552C21.088 37.7421 22.0254 38.1273 23.0023 38.1273C23.9792 38.1273 24.9166 37.7421 25.6112 37.0552L36.7712 26.0167C37.5407 25.0087 39.4644 22.8341 39.4644 21.4672C39.4653 20.6791 39.3103 19.8986 39.0086 19.1705C38.7068 18.4425 38.2642 17.7813 37.706 17.2248Z" fill="black"/>
</g>
<g opacity="0.2" filter="url(#filter3_f_202_12845)">
<path opacity="0.2" d="M37.706 17.2248C37.1941 16.7127 36.5938 16.2973 35.9342 15.9986C34.7068 15.6008 33.4301 15.3759 32.1407 15.3303L29.7523 16.3856L27.8769 18.0112C27.8769 20.2526 26.9867 22.4022 25.4019 23.9872L23.0023 28.3859L22.9956 28.3792C21.4127 29.8204 19.3413 30.6063 17.2009 30.5779C15.0604 30.5495 13.0106 29.7089 11.4666 28.2262L20.3934 37.0552C21.088 37.7421 22.0254 38.1273 23.0023 38.1273C23.9792 38.1273 24.9166 37.7421 25.6112 37.0552L36.7712 26.0167C37.5407 25.0087 39.4644 22.8341 39.4644 21.4672C39.4653 20.6791 39.3103 19.8986 39.0086 19.1705C38.7068 18.4425 38.2642 17.7813 37.706 17.2248Z" fill="black"/>
</g>
<path d="M37.706 17.2248C37.1941 16.7127 36.5938 16.2973 35.9342 15.9986C34.7068 15.6008 33.4301 15.3759 32.1407 15.3303L29.7523 16.3856L27.8769 18.0112C27.8769 20.2526 26.9867 22.4022 25.4019 23.9872L23.0023 28.3859L22.9956 28.3792C21.4127 29.8204 19.3413 30.6063 17.2009 30.5779C15.0604 30.5495 13.0106 29.7089 11.4666 28.2262L20.3934 37.0552C21.088 37.7421 22.0254 38.1273 23.0023 38.1273C23.9792 38.1273 24.9166 37.7421 25.6112 37.0552L36.7712 26.0167C37.5407 25.0087 39.4644 22.8341 39.4644 21.4672C39.4653 20.6791 39.3103 19.8986 39.0086 19.1705C38.7068 18.4425 38.2642 17.7813 37.706 17.2248Z" fill="url(#paint1_linear_202_12845)"/>
<g opacity="0.4" filter="url(#filter4_f_202_12845)">
<path opacity="0.4" d="M23.0022 11.1364C23.0022 14.0389 26.0217 16.3856 29.7522 16.3856H32.0022C33.1116 16.3838 34.1998 16.6901 35.1454 17.2704C36.091 17.8506 36.8569 18.6819 37.3579 19.6718C37.8588 20.6617 38.0751 21.7713 37.9826 22.8768C37.8901 23.9824 37.4925 25.0406 36.8341 25.9335L38.1908 24.5756C40.0059 22.5228 41.0061 19.8762 41.0022 17.136C41.0021 16.6685 40.9732 16.2015 40.9156 15.7376C40.5743 13.0175 39.2518 10.5155 37.1962 8.70147C35.1407 6.88748 32.4937 5.88632 29.7522 5.88599C26.0217 5.88599 23.0022 8.23386 23.0022 11.1364Z" fill="black"/>
</g>
<g opacity="0.3" filter="url(#filter5_f_202_12845)">
<path opacity="0.3" d="M23.0022 11.1364C23.0022 14.0389 26.0217 16.3856 29.7522 16.3856H32.0022C33.1116 16.3838 34.1998 16.6901 35.1454 17.2704C36.091 17.8506 36.8569 18.6819 37.3579 19.6718C37.8588 20.6617 38.0751 21.7713 37.9826 22.8768C37.8901 23.9824 37.4925 25.0406 36.8341 25.9335L38.1908 24.5756C40.0059 22.5228 41.0061 19.8762 41.0022 17.136C41.0021 16.6685 40.9732 16.2015 40.9156 15.7376C40.5743 13.0175 39.2518 10.5155 37.1962 8.70147C35.1407 6.88748 32.4937 5.88632 29.7522 5.88599C26.0217 5.88599 23.0022 8.23386 23.0022 11.1364Z" fill="black"/>
</g>
<path d="M29.7522 16.3856V18.135C29.7523 19.245 29.5338 20.3441 29.1092 21.3697C28.6845 22.3953 28.062 23.3271 27.2772 24.1121L23.2812 28.1058C23.1882 28.1996 23.0929 28.2907 22.9954 28.3792L18.7283 24.1121C17.9433 23.3272 17.3206 22.3954 16.8957 21.3698C16.4709 20.3443 16.2522 19.2451 16.2522 18.135V11.1364H29.7522V16.3856Z" fill="url(#paint2_linear_202_12845)"/>
<path d="M23.0022 11.1364C23.0022 14.0389 19.9827 16.3856 16.2522 16.3856H14.0022C12.8928 16.3838 11.8046 16.6901 10.859 17.2704C9.91343 17.8506 9.14748 18.6819 8.64653 19.6718C8.14558 20.6617 7.9293 21.7713 8.02178 22.8768C8.11426 23.9824 8.51188 25.0406 9.17033 25.9335L7.81471 24.5756C5.99919 22.523 4.99863 19.8763 5.00221 17.136C5.00229 16.6685 5.03122 16.2015 5.08883 15.7376C5.43008 13.0175 6.75265 10.5155 8.80816 8.70147C10.8637 6.88748 13.5107 5.88632 16.2522 5.88599C19.9827 5.88599 23.0022 8.23386 23.0022 11.1364Z" fill="url(#paint3_linear_202_12845)"/>
<path d="M23.0022 11.1364C23.0022 14.0389 26.0217 16.3856 29.7522 16.3856H32.0022C33.1116 16.3838 34.1998 16.6901 35.1454 17.2704C36.091 17.8506 36.8569 18.6819 37.3579 19.6718C37.8588 20.6617 38.0751 21.7713 37.9826 22.8768C37.8901 23.9824 37.4925 25.0406 36.8341 25.9335L38.1908 24.5756C40.0059 22.5228 41.0061 19.8762 41.0022 17.136C41.0021 16.6685 40.9732 16.2015 40.9156 15.7376C40.5743 13.0175 39.2518 10.5155 37.1962 8.70147C35.1407 6.88748 32.4937 5.88632 29.7522 5.88599C26.0217 5.88599 23.0022 8.23386 23.0022 11.1364Z" fill="url(#paint4_linear_202_12845)"/>
</g>
<defs>
<filter id="filter0_f_202_12845" x="0.00219727" y="0.885986" width="28" height="30.0475" filterUnits="userSpaceOnUse" color-interpolation-filters="sRGB">
<feFlood flood-opacity="0" result="BackgroundImageFix"/>
<feBlend mode="normal" in="SourceGraphic" in2="BackgroundImageFix" result="shape"/>
<feGaussianBlur stdDeviation="2.5" result="effect1_foregroundBlur_202_12845"/>
</filter>
<filter id="filter1_f_202_12845" x="4.4022" y="5.28599" width="19.2" height="21.2475" filterUnits="userSpaceOnUse" color-interpolation-filters="sRGB">
<feFlood flood-opacity="0" result="BackgroundImageFix"/>
<feBlend mode="normal" in="SourceGraphic" in2="BackgroundImageFix" result="shape"/>
<feGaussianBlur stdDeviation="0.3" result="effect1_foregroundBlur_202_12845"/>
</filter>
<filter id="filter2_f_202_12845" x="6.46655" y="10.3303" width="37.9978" height="32.797" filterUnits="userSpaceOnUse" color-interpolation-filters="sRGB">
<feFlood flood-opacity="0" result="BackgroundImageFix"/>
<feBlend mode="normal" in="SourceGraphic" in2="BackgroundImageFix" result="shape"/>
<feGaussianBlur stdDeviation="2.5" result="effect1_foregroundBlur_202_12845"/>
</filter>
<filter id="filter3_f_202_12845" x="10.8666" y="14.7303" width="29.1978" height="23.997" filterUnits="userSpaceOnUse" color-interpolation-filters="sRGB">
<feFlood flood-opacity="0" result="BackgroundImageFix"/>
<feBlend mode="normal" in="SourceGraphic" in2="BackgroundImageFix" result="shape"/>
<feGaussianBlur stdDeviation="0.3" result="effect1_foregroundBlur_202_12845"/>
</filter>
<filter id="filter4_f_202_12845" x="18.0022" y="0.885986" width="28" height="30.0475" filterUnits="userSpaceOnUse" color-interpolation-filters="sRGB">
<feFlood flood-opacity="0" result="BackgroundImageFix"/>
<feBlend mode="normal" in="SourceGraphic" in2="BackgroundImageFix" result="shape"/>
<feGaussianBlur stdDeviation="2.5" result="effect1_foregroundBlur_202_12845"/>
</filter>
<filter id="filter5_f_202_12845" x="22.4022" y="5.28599" width="19.2" height="21.2475" filterUnits="userSpaceOnUse" color-interpolation-filters="sRGB">
<feFlood flood-opacity="0" result="BackgroundImageFix"/>
<feBlend mode="normal" in="SourceGraphic" in2="BackgroundImageFix" result="shape"/>
<feGaussianBlur stdDeviation="0.3" result="effect1_foregroundBlur_202_12845"/>
</filter>
<linearGradient id="paint0_linear_202_12845" x1="21.8108" y1="34.9098" x2="10.5732" y2="15.4439" gradientUnits="userSpaceOnUse">
<stop stop-color="#0C9D8C"/>
<stop offset="1" stop-color="#047769"/>
</linearGradient>
<linearGradient id="paint1_linear_202_12845" x1="18.9906" y1="36.3869" x2="32.0698" y2="13.7328" gradientUnits="userSpaceOnUse">
<stop stop-color="#0E4D44"/>
<stop offset="1" stop-color="#0B5B50"/>
</linearGradient>
<linearGradient id="paint2_linear_202_12845" x1="28.4618" y1="25.2236" x2="19.3088" y2="9.37123" gradientUnits="userSpaceOnUse">
<stop stop-color="#24CDB9"/>
<stop offset="1" stop-color="#30E5D0"/>
</linearGradient>
<linearGradient id="paint3_linear_202_12845" x1="17.4942" y1="21.1275" x2="9.82845" y2="7.85136" gradientUnits="userSpaceOnUse">
<stop stop-color="#0C9D8C"/>
<stop offset="1" stop-color="#24CDB9"/>
</linearGradient>
<linearGradient id="paint4_linear_202_12845" x1="38.7274" y1="24.84" x2="27.7171" y2="5.77011" gradientUnits="userSpaceOnUse">
<stop stop-color="#047769"/>
<stop offset="1" stop-color="#0C9D8C"/>
</linearGradient>
<clipPath id="clip0_202_12845">
<rect width="47" height="44" fill="white"/>
</clipPath>
</defs>
</svg>
