<svg width="37" height="36" viewBox="0 0 37 36" fill="none" xmlns="http://www.w3.org/2000/svg">
<g clip-path="url(#clip0_202_13455)">
<path d="M30.4391 9.89164C28.9343 9.89164 27.5701 10.49 26.5685 11.4605L20.2176 6.91278C20.2573 6.7467 20.2805 6.57429 20.2805 6.39598C20.2805 5.16678 19.284 4.17017 18.0547 4.17017C16.8255 4.17017 15.8289 5.16678 15.8289 6.39598C15.8289 7.62533 16.8255 8.6218 18.0547 8.6218C18.4851 8.6218 18.8856 8.49748 19.2262 8.28598L27.0005 13.9436C27.6066 12.6794 28.9434 11.695 30.4391 11.695C32.5163 11.695 34.2003 13.3789 34.2003 15.456C34.2003 17.116 33.1249 18.5248 31.6329 19.0237L32.1432 20.7547C34.3828 20.0349 36.0035 17.9348 36.0035 15.456C36.0035 12.383 33.5123 9.89164 30.4391 9.89164Z" fill="#0A7BFF"/>
<path d="M12.5989 4.48588C12.1445 5.91632 12.3013 7.39401 12.9213 8.63925L6.68038 13.3032C6.53441 13.2155 6.37747 13.1414 6.20802 13.0875C5.03943 12.7163 3.7911 13.3627 3.41999 14.5313C3.04874 15.6999 3.69519 16.9482 4.86364 17.3193C6.03224 17.6906 7.28057 17.0443 7.65182 15.8757C7.78176 15.4665 7.78457 15.0482 7.68627 14.6607L15.4125 8.97843C14.3937 8.02049 13.8615 6.45238 14.3131 5.03052C14.9404 3.05586 17.0498 1.96349 19.0245 2.59082C20.6024 3.092 21.6169 4.53974 21.6408 6.10884L23.4404 6.14638C23.4325 3.80005 21.9254 1.625 19.569 0.876454C16.6476 -0.0515317 13.5269 1.56439 12.5989 4.48588Z" fill="#EB3D00"/>
<path d="M2.29081 19.5265C3.5016 20.4101 4.94779 20.7335 6.31888 20.5472L8.78095 27.9052C8.65242 28.0145 8.53345 28.1385 8.42952 28.2807C7.71374 29.2617 7.93537 30.6421 8.92453 31.3638C9.91368 32.0856 11.2957 31.8754 12.0115 30.8944C12.7275 29.9134 12.5058 28.5331 11.5167 27.8113C11.1703 27.5586 10.7757 27.4226 10.3786 27.3915L7.41716 18.3118C6.1933 18.9649 4.54447 18.9656 3.34086 18.0874C1.66953 16.8677 1.29505 14.5353 2.50456 12.8776C3.47122 11.5529 5.15675 11.06 6.6478 11.5377L7.24518 9.85684C5.024 9.11617 2.49683 9.84067 1.05345 11.8187C-0.736003 14.2712 -0.18208 17.7222 2.29081 19.5265Z" fill="#00BCD4"/>
<path d="M30.7793 28.1743C30.3209 26.7554 29.338 25.652 28.1132 25.0047L30.4892 17.6233C30.6587 17.6098 30.8292 17.5789 30.9981 17.5243C32.1633 17.1479 32.8043 15.9029 32.43 14.7439C32.0555 13.5846 30.8073 12.9501 29.6421 13.3265C28.4769 13.7028 27.8357 14.9478 28.2102 16.107C28.3414 16.5128 28.5812 16.8524 28.8854 17.1088L25.8909 26.1726C27.2739 26.357 28.6142 27.3161 29.0699 28.7265C29.7027 30.6853 28.6194 32.7889 26.6506 33.425C25.0771 33.9333 23.4141 33.3507 22.4866 32.0965L21.0012 33.1078C22.3657 34.9993 24.8503 35.8846 27.1998 35.1255C30.1129 34.1845 31.7155 31.0723 30.7793 28.1743Z" fill="#86C351"/>
<path d="M13.542 34.128C14.7492 33.2448 15.4925 31.9641 15.7264 30.5976L23.4906 30.5185C23.5564 30.6748 23.6389 30.8269 23.7436 30.9699C24.4651 31.9561 25.8494 32.1705 26.8356 31.4491C27.8218 30.7276 28.0363 29.3433 27.3149 28.3571C26.5933 27.3708 25.209 27.1563 24.2228 27.8778C23.8776 28.1305 23.6291 28.4651 23.48 28.8348L13.9223 28.8591C14.1781 30.2291 13.6835 31.8034 12.4836 32.6813C10.8172 33.9005 8.47785 33.538 7.25863 31.8716C6.28438 30.5398 6.32024 28.7785 7.22418 27.5025L5.7988 26.4133C4.42461 28.3052 4.35711 30.9413 5.81188 32.9299C7.61568 35.3955 11.0766 35.9318 13.542 34.128Z" fill="#9032E9"/>
</g>
<defs>
<clipPath id="clip0_202_13455">
<rect width="37" height="36" fill="white"/>
</clipPath>
</defs>
</svg>
