<svg width="40" height="26" viewBox="0 0 40 26" fill="none" xmlns="http://www.w3.org/2000/svg">
<g clip-path="url(#clip0_202_14988)">
<path d="M38.742 3.81867L40.001 0.557774L39.9462 0.355761L27.4905 3.6375C28.8185 1.71642 28.3624 0.175903 28.3624 0.175903C28.3624 0.175903 24.3847 2.71606 21.3766 2.64959C18.3686 2.58312 17.3989 1.78028 12.7865 3.25172C8.17406 4.72186 6.87074 9.23524 5.53354 10.2049C4.19634 11.1746 0.000976562 14.3325 0.000976562 14.3325L0.0100998 14.3885L3.79232 13.1843C3.79232 13.1843 2.75488 14.1618 0.550975 17.132C0.550975 17.132 0.513179 17.0968 0.448013 17.0369L0.451923 17.0577C0.451923 17.0577 2.22313 19.7647 3.96175 19.2642C4.13639 19.2134 4.33319 19.13 4.54824 19.0205C5.24812 19.4102 6.16174 19.7934 7.17051 19.8989C7.17051 19.8989 6.48757 19.1052 5.91802 18.202C6.07181 18.103 6.22951 18 6.38982 17.8958L6.31553 17.9479L7.75569 18.477L7.59669 17.1229C7.6019 17.1203 7.60581 17.1164 7.61103 17.1138L9.02642 17.6338L8.85048 16.4022C9.03033 16.3083 9.20889 16.2197 9.38744 16.1376L10.8628 10.5568L16.9636 6.39532L16.4788 7.61522C15.2419 10.6572 12.9194 11.3753 12.9194 11.3753L11.9498 11.7428C11.229 12.5952 10.9254 12.805 10.6777 15.6658C11.259 15.5198 11.8142 15.4846 12.3173 15.6202C14.9239 16.3227 15.8271 19.4636 15.1246 20.333C14.9487 20.5506 14.5303 20.9221 14.0025 21.3587H12.9442L12.9298 22.2162C12.8934 22.2449 12.8569 22.2723 12.8217 22.301H11.7451L11.7321 23.1377C11.637 23.2107 11.5418 23.281 11.4506 23.3501C10.4392 23.371 9.15806 22.4886 9.15806 22.4886C9.15806 23.2915 9.82666 24.527 9.82666 24.527C9.82666 24.527 9.87097 24.5062 9.94526 24.4697C9.88009 24.5179 9.8436 24.544 9.8436 24.544C9.8436 24.544 12.5506 26.349 14.2553 25.6805C15.7711 25.0861 19.6953 21.9921 23.0827 20.5271L33.3332 17.8267L34.6848 14.3247L26.8727 16.3826V13.2377L36.0389 10.8227L37.3904 7.32067L26.8753 10.0915V6.94531L38.742 3.81867Z" fill="black"/>
</g>
<defs>
<clipPath id="clip0_202_14988">
<rect width="40.001" height="26" fill="white"/>
</clipPath>
</defs>
</svg>
