<svg width="37" height="37" viewBox="0 0 37 37" fill="none" xmlns="http://www.w3.org/2000/svg">
<g clip-path="url(#clip0_202_12978)">
<path d="M18.0042 1.28217C27.2383 1.28217 34.7242 8.76806 34.7242 18.0022C34.7242 27.2363 27.2383 34.7222 18.0042 34.7222C8.77001 34.7222 1.28412 27.2363 1.28412 18.0022C1.28412 8.76806 8.77001 1.28217 18.0042 1.28217ZM18.0042 0.00219727C8.07898 0.00219727 0.00415039 8.07703 0.00415039 18.0022C0.00415039 27.9274 8.07898 36.0022 18.0042 36.0022C27.9293 36.0022 36.0042 27.9274 36.0042 18.0022C36.0042 8.07703 27.9293 0.00219727 18.0042 0.00219727ZM20.9334 3.59151C19.4667 3.32488 15.9199 8.71153 14.7467 11.9916C14.6576 12.2404 14.4534 13.1516 14.4534 13.3915C14.4534 13.3915 15.3718 15.368 15.6266 15.8315C15.1999 15.6093 14.3156 13.8971 14.3156 13.8971C13.8889 14.7104 13.48 18.4449 13.6133 19.1383C13.6133 19.1383 14.5642 20.5533 14.9333 20.9071C14.4267 20.7382 13.5733 19.5915 13.5733 19.5915C13.4133 20.0849 13.4445 21.1113 13.52 21.4582C14.16 22.3915 15.0133 22.4983 15.0133 22.4983C15.0133 22.4983 14.08 31.805 15.4933 32.4982C16.3733 32.3116 16.5867 22.0982 16.5867 22.0982C16.5867 22.0982 17.6533 22.1782 17.8933 21.9116C18.4356 21.5382 19.697 17.6613 19.7156 17.1019C19.7156 17.1019 18.2516 17.3764 17.5377 17.6537C18.0757 17.1194 19.7946 16.7605 19.7946 16.7605C20.2608 16.2009 21.2418 12.3945 21.3406 11.2211C21.3654 10.9268 21.4226 10.5662 21.3783 10.0401C21.3783 10.0401 19.9804 10.3463 19.6888 10.2404C19.9847 10.2071 21.4133 9.65821 21.4133 9.65821C21.6666 7.37826 21.7449 3.73917 20.9334 3.59151ZM15.8174 27.7356C15.7056 30.4772 15.6355 31.2517 15.52 31.8982C15.4667 32.0187 15.4134 32.0384 15.36 31.8848C14.871 29.636 14.9066 12.6982 20.48 4.99157C17.2386 10.9108 15.7641 22.2689 15.8174 27.7356Z" fill="#333333"/>
</g>
<defs>
<clipPath id="clip0_202_12978">
<rect width="37" height="37" fill="white"/>
</clipPath>
</defs>
</svg>
