<svg width="37" height="37" viewBox="0 0 37 37" fill="none" xmlns="http://www.w3.org/2000/svg">
<g clip-path="url(#clip0_202_15062)">
<path d="M36.0065 18.0039C36.0065 8.06249 27.9474 0.00317383 18.006 0.00317383C8.06907 0.00317383 0.0131348 8.05574 0.00610352 17.9913V31.9209C0.0114473 34.1769 1.84114 36.0032 4.09848 36.0032H18.0133C27.9514 35.9992 36.0065 27.9427 36.0065 18.0039Z" fill="#294172"/>
<path d="M23.2911 4.26514C18.6351 4.26514 14.8471 8.05292 14.8471 12.7091V17.1908H10.3839C5.72792 17.1908 1.94 20.9789 1.94 25.6349C1.94 30.2908 5.72792 34.0788 10.3839 34.0788C15.0399 34.0788 18.8279 30.2908 18.8279 25.6349V21.153H23.2911C27.9471 21.153 31.7351 17.3651 31.7351 12.7091C31.7351 8.05292 27.9471 4.26514 23.2911 4.26514ZM14.8784 25.6349C14.8784 28.113 12.8622 30.1292 10.3839 30.1292C7.90567 30.1292 5.8895 28.113 5.8895 25.6349C5.8895 23.1566 7.90567 21.1405 10.3839 21.1405H14.8471V21.153H14.8784V25.6349ZM23.2911 17.2035H18.8279V17.1908H18.7968V12.7091C18.7968 10.2308 20.8129 8.21464 23.2911 8.21464C25.7692 8.21464 27.7855 10.2308 27.7855 12.7091C27.7855 15.1873 25.7692 17.2035 23.2911 17.2035Z" fill="#3C6EB4"/>
<path d="M25.1574 4.52118C24.502 4.3499 23.9989 4.27002 23.2911 4.27002C18.6255 4.27002 14.843 8.05274 14.843 12.718V17.1959H11.3048C10.2016 17.1959 9.31 18.0628 9.3107 19.1641C9.3107 20.2584 10.1924 21.129 11.284 21.129L14.2134 21.1296C14.5611 21.1296 14.8432 21.4109 14.8432 21.7581V25.6328C14.8389 28.0925 12.8437 30.0849 10.384 30.0849C9.55075 30.0849 9.34445 29.9757 8.77562 29.9757C7.58071 29.9757 6.78125 30.7767 6.78125 31.8781C6.78153 32.7892 7.56229 33.5725 8.51771 33.8226C9.17303 33.9939 9.67619 34.0739 10.384 34.0739C15.0495 34.0739 18.8321 30.2912 18.8321 25.6257V21.148H22.3703C23.4735 21.148 24.3651 20.2811 24.3644 19.1798C24.3644 18.0853 23.4826 17.2148 22.3911 17.2148L19.4617 17.2143C19.1139 17.2143 18.8318 16.9329 18.8318 16.5857V12.711C18.8362 10.2513 20.8314 8.25889 23.2911 8.25889C24.1243 8.25889 24.3306 8.36816 24.8994 8.36816C26.0944 8.36816 26.8938 7.56701 26.8938 6.46576C26.8935 5.5545 26.1128 4.77121 25.1574 4.52118Z" fill="white"/>
</g>
<defs>
<clipPath id="clip0_202_15062">
<rect width="37" height="37" fill="white"/>
</clipPath>
</defs>
</svg>
