<svg width="25" height="37" viewBox="0 0 25 37" fill="none" xmlns="http://www.w3.org/2000/svg">
<g clip-path="url(#clip0_202_12733)">
<path d="M12.0032 18.0042C12.0032 16.4129 12.6353 14.8867 13.7605 13.7615C14.8858 12.6363 16.4119 12.0042 18.0032 12.0042C19.5945 12.0042 21.1206 12.6363 22.2458 13.7615C23.371 14.8867 24.0032 16.4129 24.0032 18.0042C24.0032 19.5954 23.371 21.1216 22.2458 22.2468C21.1206 23.372 19.5945 24.0042 18.0032 24.0042C16.4119 24.0042 14.8858 23.372 13.7605 22.2468C12.6353 21.1216 12.0032 19.5954 12.0032 18.0042Z" fill="#1ABCFE"/>
<path d="M0.00317383 30.0041C0.00317383 28.4128 0.635315 26.8867 1.76053 25.7615C2.88575 24.6363 4.41188 24.0042 6.00317 24.0042H12.0032V30.0041C12.0032 31.5954 11.371 33.1216 10.2458 34.2468C9.1206 35.372 7.59447 36.0041 6.00317 36.0041C4.41188 36.0041 2.88575 35.372 1.76053 34.2468C0.635315 33.1216 0.00317383 31.5954 0.00317383 30.0041H0.00317383Z" fill="#0ACF83"/>
<path d="M12.0032 0.00415039V12.0042H18.0032C19.5945 12.0042 21.1206 11.372 22.2458 10.2468C23.371 9.12157 24.0032 7.59545 24.0032 6.00415C24.0032 4.41285 23.371 2.88673 22.2458 1.76151C21.1206 0.636291 19.5945 0.00415039 18.0032 0.00415039L12.0032 0.00415039Z" fill="#FF7262"/>
<path d="M0.00317383 6.00415C0.00317383 7.59545 0.635315 9.12157 1.76053 10.2468C2.88575 11.372 4.41188 12.0041 6.00317 12.0042H12.0032V0.00415039H6.00317C4.41188 0.00415039 2.88575 0.636291 1.76053 1.76151C0.635315 2.88673 0.00317383 4.41285 0.00317383 6.00415H0.00317383Z" fill="#F24E1E"/>
<path d="M0.00317383 18.0042C0.00317383 19.5954 0.635315 21.1216 1.76053 22.2468C2.88575 23.372 4.41188 24.0042 6.00317 24.0042H12.0032V12.0042H6.00317C4.41188 12.0042 2.88575 12.6363 1.76053 13.7615C0.635315 14.8867 0.00317383 16.4129 0.00317383 18.0042H0.00317383Z" fill="#A259FF"/>
</g>
<defs>
<clipPath id="clip0_202_12733">
<rect width="24" height="36" fill="white" transform="translate(0.00317383 0.00415039)"/>
</clipPath>
</defs>
</svg>
