<svg width="35" height="31" viewBox="0 0 35 31" fill="none" xmlns="http://www.w3.org/2000/svg">
<g clip-path="url(#clip0_202_9098)">
<g filter="url(#filter0_d_202_9098)">
<rect x="1.00342" y="1.28613" width="32" height="27.4286" rx="13.7143" fill="#283544"/>
</g>
<path fill-rule="evenodd" clip-rule="evenodd" d="M18.3921 1.28613H32.0374C32.5204 1.28613 32.8827 1.6166 33.0034 2.16737V27.8335C33.0034 28.2741 32.5204 28.7147 32.0374 28.7147H20.9279C20.4449 27.1725 20.2034 25.6304 19.9619 24.0882C22.86 23.5374 25.5166 22.2156 27.3279 20.1226C27.9317 19.2414 26.8449 18.6906 26.3619 19.2414C25.0336 21.2242 22.4978 22.4359 19.8411 22.8765C19.4789 18.4703 19.8411 14.9453 19.8411 14.9453H15.1317C15.1317 14.9453 15.1317 7.89542 18.3921 1.28613ZM24.4298 11.6407C25.0336 11.6407 25.3959 11.2001 25.3959 10.7594V8.99697C25.3959 8.4462 24.9128 8.11573 24.4298 8.11573C23.826 8.11573 23.4638 8.55635 23.4638 8.99697V10.7594C23.4638 11.3102 23.9468 11.6407 24.4298 11.6407Z" fill="url(#paint0_linear_202_9098)"/>
<path fill-rule="evenodd" clip-rule="evenodd" d="M16.943 24.3085C12.9581 24.3085 8.97323 22.8765 6.55813 20.1226C5.95436 19.2414 7.04115 18.6906 7.52417 19.2414C9.45625 21.7749 13.1997 23.0968 16.9431 23.0968C17.807 23.0968 18.8751 22.9866 18.8751 22.9866C18.5128 19.9023 18.6336 17.1484 18.7544 15.8266H14.1657V14.9453C14.1657 14.9453 14.1657 7.89542 17.4261 1.28613H1.96946C1.36568 1.28613 1.00342 1.72675 1.00342 2.16737V27.8335C1.00342 28.2741 1.48644 28.7147 1.96946 28.7147H19.8605C19.8033 28.4743 19.746 28.2405 19.6895 28.0102C19.3946 26.8072 19.1221 25.6958 18.9959 24.1983C18.9959 24.1983 17.5927 24.3085 16.943 24.3085ZM9.45625 8.11573C8.85247 8.11573 8.49021 8.55635 8.49021 8.99697V10.7595C8.49021 11.2001 8.97323 11.5305 9.45625 11.5305C9.93926 11.5305 10.4223 11.2001 10.4223 10.7595V8.99697C10.4223 8.55635 10.06 8.11573 9.45625 8.11573Z" fill="url(#paint1_linear_202_9098)"/>
</g>
<defs>
<filter id="filter0_d_202_9098" x="0.00341797" y="0.786133" width="34" height="29.4286" filterUnits="userSpaceOnUse" color-interpolation-filters="sRGB">
<feFlood flood-opacity="0" result="BackgroundImageFix"/>
<feColorMatrix in="SourceAlpha" type="matrix" values="0 0 0 0 0 0 0 0 0 0 0 0 0 0 0 0 0 0 127 0" result="hardAlpha"/>
<feOffset dy="0.5"/>
<feGaussianBlur stdDeviation="0.5"/>
<feColorMatrix type="matrix" values="0 0 0 0 0 0 0 0 0 0 0 0 0 0 0 0 0 0 0.25 0"/>
<feBlend mode="normal" in2="BackgroundImageFix" result="effect1_dropShadow_202_9098"/>
<feBlend mode="normal" in="SourceGraphic" in2="effect1_dropShadow_202_9098" result="shape"/>
</filter>
<linearGradient id="paint0_linear_202_9098" x1="24.0676" y1="1.28613" x2="24.0676" y2="28.7147" gradientUnits="userSpaceOnUse">
<stop stop-color="#F7F6F7"/>
<stop offset="1" stop-color="#D9E4F0"/>
</linearGradient>
<linearGradient id="paint1_linear_202_9098" x1="10.432" y1="1.28613" x2="10.432" y2="28.7147" gradientUnits="userSpaceOnUse">
<stop stop-color="#2FD4FB"/>
<stop offset="1" stop-color="#2777EE"/>
</linearGradient>
<clipPath id="clip0_202_9098">
<rect width="35" height="31" fill="white"/>
</clipPath>
</defs>
</svg>
