<svg width="34" height="37" viewBox="0 0 34 37" fill="none" xmlns="http://www.w3.org/2000/svg">
<path d="M31.3252 7.54286L27.7028 5.47293L19.4231 0.748067L19.1711 0.590571C17.8211 -0.187905 16.1562 -0.187905 14.8062 0.590571L14.5452 0.739067L2.92208 7.39887L2.66559 7.55186C1.32013 8.33484 0.483154 9.7613 0.483154 11.3048V25.2093C0.483154 26.7663 1.32013 28.1927 2.67009 28.9622L14.5497 35.766C15.4227 36.261 16.5297 35.9685 17.0427 35.109C17.5376 34.2541 17.2497 33.1426 16.3857 32.6521L16.3722 32.6386L4.75803 25.9743C4.38004 25.7628 4.12805 25.3443 4.12805 24.8943V11.6107C4.12805 11.1608 4.38004 10.7648 4.75803 10.5308L6.82797 9.34731L16.3677 3.86647C16.7592 3.65048 17.2362 3.65048 17.6276 3.86647L29.2373 10.5263C29.6288 10.7513 29.8673 11.1563 29.8673 11.6062V24.9258C29.8673 25.3758 29.6288 25.7808 29.2373 26.0058L25.3089 28.2557L23.329 25.2588C25.3359 23.4904 26.4789 20.939 26.4789 18.2705C26.4789 13.0957 22.222 8.87482 17.0022 8.87482C11.7823 8.87482 7.53444 13.0867 7.53444 18.266C7.53444 23.4499 11.7868 27.6708 17.0067 27.6708C18.1046 27.6708 19.1846 27.4908 20.2151 27.1128L23.23 31.6576C23.2885 31.7296 23.338 31.8061 23.392 31.8556L23.41 31.8826L23.617 32.0761C23.6305 32.0896 23.662 32.0986 23.662 32.1121C23.752 32.1796 23.842 32.2291 23.932 32.2696L23.9905 32.2876C24.067 32.3326 24.1569 32.3551 24.2334 32.3776L24.2874 32.3911C24.3774 32.4181 24.4674 32.4361 24.5754 32.4451H24.7419C24.7869 32.4451 24.8499 32.4451 24.9039 32.4271H24.9804C25.0839 32.4136 25.1874 32.3821 25.2864 32.3596C25.3179 32.3596 25.3449 32.3596 25.3764 32.3416C25.4484 32.3146 25.5249 32.2741 25.6014 32.2381C25.6149 32.2246 25.6464 32.2246 25.6464 32.2111L31.3342 28.9577C32.6842 28.1927 33.5212 26.7528 33.5212 25.1913V11.3048C33.5212 9.7568 32.6842 8.31684 31.3342 7.54286H31.3252ZM11.1478 18.2525C11.1298 15.0261 13.7128 12.4027 16.9392 12.3667C20.1656 12.3217 22.789 14.9226 22.834 18.149C22.852 21.389 20.2691 23.9989 17.0427 24.0439H16.9977C13.7893 24.0574 11.1793 21.4789 11.1478 18.257V18.2525Z" fill="url(#paint0_linear_202_10312)"/>
<path d="M31.3252 7.54286L27.7028 5.47293L19.4231 0.748067L19.1711 0.590571C17.8211 -0.187905 16.1562 -0.187905 14.8062 0.590571L14.5452 0.739067L2.92208 7.39887L2.66559 7.55186C1.32013 8.33484 0.483154 9.7613 0.483154 11.3048V25.2093C0.483154 26.7663 1.32013 28.1927 2.67009 28.9622L14.5497 35.766C15.4227 36.261 16.5297 35.9685 17.0427 35.109C17.5376 34.2541 17.2497 33.1426 16.3857 32.6521L16.3722 32.6386L4.75803 25.9743C4.38004 25.7628 4.12805 25.3443 4.12805 24.8943V11.6107C4.12805 11.1608 4.38004 10.7648 4.75803 10.5308L6.82797 9.34731L16.3677 3.86647C16.7592 3.65048 17.2362 3.65048 17.6276 3.86647L29.2373 10.5263C29.6288 10.7513 29.8673 11.1563 29.8673 11.6062V24.9258C29.8673 25.3758 29.6288 25.7808 29.2373 26.0058L25.3089 28.2557L23.329 25.2588C25.3359 23.4904 26.4789 20.939 26.4789 18.2705C26.4789 13.0957 22.222 8.87482 17.0022 8.87482C11.7823 8.87482 7.53444 13.0867 7.53444 18.266C7.53444 23.4499 11.7868 27.6708 17.0067 27.6708C18.1046 27.6708 19.1846 27.4908 20.2151 27.1128L23.23 31.6576C23.2885 31.7296 23.338 31.8061 23.392 31.8556L23.41 31.8826L23.617 32.0761C23.6305 32.0896 23.662 32.0986 23.662 32.1121C23.752 32.1796 23.842 32.2291 23.932 32.2696L23.9905 32.2876C24.067 32.3326 24.1569 32.3551 24.2334 32.3776L24.2874 32.3911C24.3774 32.4181 24.4674 32.4361 24.5754 32.4451H24.7419C24.7869 32.4451 24.8499 32.4451 24.9039 32.4271H24.9804C25.0839 32.4136 25.1874 32.3821 25.2864 32.3596C25.3179 32.3596 25.3449 32.3596 25.3764 32.3416C25.4484 32.3146 25.5249 32.2741 25.6014 32.2381C25.6149 32.2246 25.6464 32.2246 25.6464 32.2111L31.3342 28.9577C32.6842 28.1927 33.5212 26.7528 33.5212 25.1913V11.3048C33.5212 9.7568 32.6842 8.31684 31.3342 7.54286H31.3252ZM11.1478 18.2525C11.1298 15.0261 13.7128 12.4027 16.9392 12.3667C20.1656 12.3217 22.789 14.9226 22.834 18.149C22.852 21.389 20.2691 23.9989 17.0427 24.0439H16.9977C13.7893 24.0574 11.1793 21.4789 11.1478 18.257V18.2525Z" fill="url(#paint1_linear_202_10312)"/>
<path d="M31.3252 7.54286L27.7028 5.47292L22.6675 2.57501C22.0953 2.25047 21.4501 2.07614 20.7923 2.06827C20.1345 2.0604 19.4854 2.21925 18.9056 2.53001L16.3677 3.86647C16.7592 3.65047 17.2361 3.65047 17.6276 3.86647L29.2373 10.5263C29.6288 10.7513 29.8673 11.1562 29.8673 11.6062V24.9258C29.8673 25.3758 29.6288 25.7898 29.2373 26.0058L25.3089 28.2557L25.9254 29.2322C26.2789 29.7966 26.8374 30.202 27.4836 30.3631C28.1297 30.5243 28.8132 30.4286 29.3903 30.0962L31.3252 28.9712C32.6752 28.2062 33.5122 26.7663 33.5122 25.2093V11.3047C33.5122 9.75679 32.6752 8.31683 31.3252 7.54286Z" fill="url(#paint2_linear_202_10312)"/>
<path d="M29.8673 11.6062V18.0545H33.5122V11.3047C33.5122 9.74329 32.6752 8.31683 31.3252 7.54286L27.7028 5.47292L22.6675 2.57501C22.0953 2.25047 21.4501 2.07614 20.7923 2.06827C20.1345 2.0604 19.4854 2.21925 18.9056 2.53001L16.3677 3.86647C16.7592 3.65047 17.2361 3.65047 17.6276 3.86647L29.2373 10.5263C29.6288 10.7513 29.8673 11.1562 29.8673 11.6062Z" fill="url(#paint3_linear_202_10312)"/>
<path opacity="0.9" d="M29.8673 19.103V24.9078C29.8673 25.3578 29.6153 25.7763 29.2373 25.9878L25.2954 28.2377L25.9119 29.2187C26.6499 30.3886 28.1798 30.7801 29.3768 30.0871L31.3117 28.9622C32.6617 28.1972 33.5032 26.7572 33.5032 25.2003V19.0895H29.8673V19.103Z" fill="url(#paint4_linear_202_10312)"/>
<path opacity="0.9" d="M25.0253 27.8192L23.3154 25.2543C22.4019 26.0642 21.3354 26.6942 20.179 27.1127L21.9924 29.8486C23.0274 29.2007 24.0353 28.5167 25.0253 27.8237V27.8192Z" fill="url(#paint5_linear_202_10312)"/>
<defs>
<linearGradient id="paint0_linear_202_10312" x1="23.6431" y1="4.60427" x2="7.43407" y2="32.6845" gradientUnits="userSpaceOnUse">
<stop stop-color="#FF980E"/>
<stop offset="0.21" stop-color="#FF7139"/>
<stop offset="0.36" stop-color="#FF5854"/>
<stop offset="0.46" stop-color="#FF4F5E"/>
<stop offset="0.69" stop-color="#FF3750"/>
<stop offset="0.86" stop-color="#F92261"/>
<stop offset="1" stop-color="#F5156C"/>
</linearGradient>
<linearGradient id="paint1_linear_202_10312" x1="23.6431" y1="4.60427" x2="7.43407" y2="32.6845" gradientUnits="userSpaceOnUse">
<stop stop-color="#FFF44F" stop-opacity="0.8"/>
<stop offset="0.09" stop-color="#FFF44F" stop-opacity="0.7"/>
<stop offset="0.75" stop-color="#FFF44F" stop-opacity="0"/>
</linearGradient>
<linearGradient id="paint2_linear_202_10312" x1="24.9373" y1="37.1912" x2="24.9373" y2="2.41129" gradientUnits="userSpaceOnUse">
<stop stop-color="#3A8EE6"/>
<stop offset="0.24" stop-color="#5C79F0"/>
<stop offset="0.63" stop-color="#9059FF"/>
<stop offset="1" stop-color="#C139E6"/>
</linearGradient>
<linearGradient id="paint3_linear_202_10312" x1="19.0228" y1="2.28221" x2="33.474" y2="16.7442" gradientUnits="userSpaceOnUse">
<stop stop-color="#6E008B" stop-opacity="0.5"/>
<stop offset="0.5" stop-color="#C846CB" stop-opacity="0"/>
</linearGradient>
<linearGradient id="paint4_linear_202_10312" x1="32.1112" y1="20.1676" x2="25.3283" y2="26.9531" gradientUnits="userSpaceOnUse">
<stop offset="0.14" stop-color="#6A2BEA" stop-opacity="0"/>
<stop offset="0.34" stop-color="#642DE4" stop-opacity="0.03"/>
<stop offset="0.55" stop-color="#5131D3" stop-opacity="0.12"/>
<stop offset="0.76" stop-color="#3139B7" stop-opacity="0.27"/>
<stop offset="0.98" stop-color="#054490" stop-opacity="0.48"/>
<stop offset="1" stop-color="#00458B" stop-opacity="0.5"/>
</linearGradient>
<linearGradient id="paint5_linear_202_10312" x1="21.2283" y1="26.013" x2="23.1905" y2="28.3563" gradientUnits="userSpaceOnUse">
<stop stop-color="#960E18" stop-opacity="0.6"/>
<stop offset="0.19" stop-color="#AC1624" stop-opacity="0.48"/>
<stop offset="0.58" stop-color="#E42C41" stop-opacity="0.16"/>
<stop offset="0.75" stop-color="#FF3750" stop-opacity="0"/>
</linearGradient>
</defs>
</svg>
