<svg width="36" height="37" viewBox="0 0 36 37" fill="none" xmlns="http://www.w3.org/2000/svg">
<g clip-path="url(#clip0_202_10322)">
<path d="M34.1665 12.0838C33.4084 10.2596 31.8705 8.29009 30.6663 7.66748C31.5252 9.33097 32.1213 11.1175 32.4333 12.9635L32.4364 12.9927C30.4637 8.07445 27.1184 6.09138 24.3862 1.7732C24.2451 1.55306 24.1081 1.33033 23.9752 1.10513C23.9067 0.987494 23.8426 0.867362 23.7829 0.744979C23.6696 0.525538 23.5823 0.293626 23.5227 0.0539448C23.5228 0.0428848 23.5188 0.0321823 23.5115 0.0238792C23.5042 0.015576 23.4941 0.0102533 23.4831 0.0089263C23.4724 0.00597639 23.461 0.00597639 23.4503 0.0089263C23.448 0.0089263 23.4444 0.012978 23.4417 0.0138783C23.439 0.0147787 23.4332 0.0188304 23.4291 0.0206311L23.4359 0.0089263C19.0533 2.57498 17.5663 7.32534 17.4295 9.70142C15.6793 9.82172 14.006 10.4667 12.6278 11.5521C12.484 11.4303 12.3337 11.3164 12.1776 11.2109C11.7801 9.81934 11.7631 8.34661 12.1285 6.94628C10.5191 7.72597 9.08902 8.83123 7.92877 10.1921H7.92066C7.22918 9.31561 7.2778 6.42542 7.31742 5.82172C7.11285 5.90393 6.91758 6.00761 6.73488 6.131C6.12444 6.56667 5.55378 7.05553 5.02957 7.59185C4.43222 8.19749 3.88664 8.8521 3.39855 9.54881V9.55151V9.54835C2.2768 11.1387 1.48117 12.9354 1.05759 14.8349L1.03418 14.9501C0.969822 15.3121 0.912638 15.6753 0.862658 16.0396C0.862658 16.0526 0.859957 16.0648 0.858606 16.0778C0.705875 16.8717 0.611235 17.6756 0.575439 18.4832V18.5732C0.579265 22.9419 2.22178 27.1503 5.17837 30.3666C8.13495 33.5828 12.1905 35.573 16.5435 35.9437C20.8964 36.3145 25.2301 35.0388 28.688 32.3688C32.1459 29.6989 34.4764 25.8289 35.219 21.5237C35.2483 21.2986 35.2721 21.0758 35.2982 20.8485C35.6576 17.8782 35.2686 14.8653 34.1665 12.0838ZM14.0567 25.7415C14.1382 25.7807 14.2147 25.823 14.2984 25.8604L14.3106 25.868C14.226 25.8275 14.1413 25.7853 14.0567 25.7415ZM32.4378 12.9968V12.9801L32.4409 12.9986L32.4378 12.9968Z" fill="url(#paint0_linear_202_10322)"/>
<path d="M34.1665 12.0837C33.4084 10.2595 31.8705 8.28996 30.6663 7.66736C31.5252 9.33085 32.1213 11.1174 32.4333 12.9633V12.98L32.4364 12.9985C33.7812 16.8468 33.5867 21.0661 31.8935 24.7744C29.8938 29.0651 25.0534 33.463 17.4767 33.2491C9.29013 33.0173 2.08041 26.9425 0.732554 18.9859C0.487203 17.7313 0.732554 17.0951 0.855905 16.0755C0.687638 16.8675 0.593741 17.6735 0.575439 18.4831V18.5731C0.579265 22.9418 2.22178 27.1502 5.17837 30.3665C8.13495 33.5827 12.1905 35.5729 16.5435 35.9436C20.8964 36.3144 25.2301 35.0387 28.688 32.3687C32.1459 29.6988 34.4764 25.8288 35.219 21.5236C35.2483 21.2985 35.2721 21.0757 35.2982 20.8483C35.6576 17.8781 35.2686 14.8652 34.1665 12.0837Z" fill="url(#paint1_radial_202_10322)"/>
<path d="M34.1665 12.0837C33.4084 10.2595 31.8705 8.28996 30.6663 7.66736C31.5252 9.33085 32.1213 11.1174 32.4333 12.9633V12.98L32.4364 12.9985C33.7812 16.8468 33.5867 21.0661 31.8935 24.7744C29.8938 29.0651 25.0534 33.463 17.4767 33.2491C9.29013 33.0173 2.08041 26.9425 0.732554 18.9859C0.487203 17.7313 0.732554 17.0951 0.855905 16.0755C0.687638 16.8675 0.593741 17.6735 0.575439 18.4831V18.5731C0.579265 22.9418 2.22178 27.1502 5.17837 30.3665C8.13495 33.5827 12.1905 35.5729 16.5435 35.9436C20.8964 36.3144 25.2301 35.0387 28.688 32.3687C32.1459 29.6988 34.4764 25.8288 35.219 21.5236C35.2483 21.2985 35.2721 21.0757 35.2982 20.8483C35.6576 17.8781 35.2686 14.8652 34.1665 12.0837Z" fill="url(#paint2_radial_202_10322)"/>
<path d="M25.6876 14.1348C25.7255 14.1614 25.7606 14.1879 25.7961 14.2145C25.3579 13.4374 24.8123 12.7258 24.1755 12.1009C18.7525 6.67706 22.7542 0.340698 23.4291 0.0188152L23.4358 0.00891113C19.0533 2.57497 17.5663 7.32532 17.4294 9.7014C17.6329 9.68745 17.8346 9.67034 18.0426 9.67034C19.5976 9.67319 21.1242 10.0878 22.467 10.8719C23.8098 11.6561 24.921 12.7819 25.6876 14.1348Z" fill="url(#paint3_radial_202_10322)"/>
<path d="M18.0539 15.218C18.0251 15.652 16.4918 17.1489 15.9556 17.1489C10.9941 17.1489 10.1887 20.1503 10.1887 20.1503C10.4084 22.6776 12.1695 24.7593 14.2985 25.8604C14.3957 25.9108 14.4943 25.9563 14.5929 26.0009C14.7637 26.0765 14.9344 26.1464 15.1052 26.2107C15.8358 26.4693 16.6011 26.6169 17.3755 26.6487C26.0717 27.0566 27.7563 16.2494 21.4807 13.1134C22.9612 12.9208 24.4604 13.2848 25.6877 14.1349C24.9211 12.782 23.8099 11.6562 22.467 10.872C21.1242 10.0878 19.5977 9.67326 18.0427 9.67041C17.8356 9.67041 17.633 9.68752 17.4295 9.70147C15.6793 9.82178 14.006 10.4667 12.6278 11.5522C12.8939 11.7773 13.1942 12.078 13.8267 12.7015C15.0107 13.8679 18.0472 15.0762 18.0539 15.218Z" fill="url(#paint4_radial_202_10322)"/>
<path d="M18.0539 15.218C18.0251 15.652 16.4918 17.1489 15.9556 17.1489C10.9941 17.1489 10.1887 20.1503 10.1887 20.1503C10.4084 22.6776 12.1695 24.7593 14.2985 25.8604C14.3957 25.9108 14.4943 25.9563 14.5929 26.0009C14.7637 26.0765 14.9344 26.1464 15.1052 26.2107C15.8358 26.4693 16.6011 26.6169 17.3755 26.6487C26.0717 27.0566 27.7563 16.2494 21.4807 13.1134C22.9612 12.9208 24.4604 13.2848 25.6877 14.1349C24.9211 12.782 23.8099 11.6562 22.467 10.872C21.1242 10.0878 19.5977 9.67326 18.0427 9.67041C17.8356 9.67041 17.633 9.68752 17.4295 9.70147C15.6793 9.82178 14.006 10.4667 12.6278 11.5522C12.8939 11.7773 13.1942 12.078 13.8267 12.7015C15.0107 13.8679 18.0472 15.0762 18.0539 15.218Z" fill="url(#paint5_radial_202_10322)"/>
<path d="M14.0566 25.7416C14.1413 25.7851 14.2259 25.8273 14.3105 25.8681L14.2984 25.8604C14.216 25.8231 14.1381 25.7807 14.0566 25.7416Z" fill="url(#paint6_radial_202_10322)"/>
<path d="M14.0566 25.7416C14.1413 25.7851 14.2259 25.8273 14.3105 25.8681L14.2984 25.8604C14.216 25.8231 14.1381 25.7807 14.0566 25.7416Z" fill="url(#paint7_radial_202_10322)"/>
<path d="M11.8142 10.9717C11.9556 11.0618 12.0722 11.1401 12.1744 11.2108C11.7768 9.81922 11.7599 8.3465 12.1253 6.94617C10.5159 7.72585 9.08579 8.83111 7.92554 10.192C8.01062 10.1898 10.5416 10.1443 11.8142 10.9717Z" fill="url(#paint8_radial_202_10322)"/>
<path d="M0.734789 18.986C2.08129 26.9426 9.29236 33.0174 17.479 33.2492C25.0556 33.4635 29.896 29.0652 31.8957 24.7745C33.589 21.0662 33.7835 16.8469 32.4387 12.9985V12.9819C32.4387 12.9688 32.4359 12.9612 32.4387 12.9652L32.4418 12.9945C33.0608 17.0358 31.0053 20.9511 27.7918 23.5986L27.7819 23.6211C21.5208 28.7204 15.5288 26.6977 14.316 25.872C14.2313 25.8315 14.1467 25.7893 14.0621 25.7455C10.4115 24.0006 8.9034 20.6746 9.22664 17.8223C8.36008 17.835 7.50841 17.5963 6.77481 17.1348C6.04122 16.6734 5.45719 16.0091 5.09348 15.2224C6.05176 14.6354 7.1444 14.3035 8.2673 14.2584C9.3902 14.2133 10.5059 14.4566 11.5082 14.9649C13.5745 15.903 15.9257 15.9954 18.0593 15.2224C18.0525 15.0806 15.016 13.8719 13.832 12.7059C13.1995 12.0824 12.8992 11.7821 12.6332 11.5566C12.4894 11.4348 12.3391 11.3209 12.183 11.2153C12.0795 11.1447 11.9629 11.0681 11.8229 10.9763C10.5502 10.1489 8.01924 10.1943 7.9355 10.1966H7.9274C7.23592 9.32006 7.28454 6.42987 7.32415 5.82617C7.11959 5.90839 6.92432 6.01206 6.74161 6.13545C6.13118 6.57112 5.56052 7.05998 5.03631 7.5963C4.43682 8.20024 3.88898 8.85334 3.39854 9.54876V9.55146V9.5483C2.27678 11.1386 1.48115 12.9354 1.05757 14.8348C1.04902 14.8704 0.429113 17.5805 0.734789 18.986Z" fill="url(#paint9_radial_202_10322)"/>
<path d="M24.1765 12.1009C24.8135 12.7265 25.3591 13.4388 25.7972 14.2168C25.8931 14.2893 25.9826 14.3613 26.0587 14.4311C30.0145 18.0776 27.9418 23.2322 27.7874 23.5991C31.0009 20.9516 33.0546 17.0363 32.4374 12.995C30.4638 8.07445 27.1185 6.09138 24.3863 1.7732C24.2452 1.55306 24.1081 1.33033 23.9753 1.10513C23.9068 0.987494 23.8426 0.867362 23.783 0.744979C23.6697 0.525538 23.5824 0.293626 23.5228 0.0539448C23.5229 0.0428848 23.5189 0.0321823 23.5116 0.0238792C23.5043 0.015576 23.4942 0.0102533 23.4832 0.0089263C23.4725 0.00597639 23.4611 0.00597639 23.4503 0.0089263C23.4481 0.0089263 23.4445 0.012978 23.4418 0.0138783C23.4391 0.0147787 23.4332 0.0188304 23.4292 0.0206311C22.7544 0.340713 18.7527 6.67707 24.1765 12.1009Z" fill="url(#paint10_radial_202_10322)"/>
<path d="M26.0559 14.4289C25.9721 14.3535 25.8848 14.282 25.7944 14.2146C25.7588 14.1881 25.7237 14.1615 25.6859 14.1349C24.4586 13.2849 22.9593 12.9208 21.4789 13.1135C27.7545 16.2513 26.0708 27.0566 17.3736 26.6488C16.5993 26.617 15.834 26.4693 15.1034 26.2107C14.9326 26.1468 14.7618 26.0769 14.5911 26.0009C14.4925 25.9559 14.3939 25.9109 14.2966 25.8605L14.3088 25.8681C15.5216 26.696 21.5118 28.7187 27.7747 23.6172L27.7846 23.5947C27.9409 23.23 30.0135 18.0741 26.0559 14.4289Z" fill="url(#paint11_radial_202_10322)"/>
<path d="M10.1887 20.1502C10.1887 20.1502 10.9941 17.1488 15.9556 17.1488C16.4918 17.1488 18.0265 15.652 18.0539 15.218C15.9204 15.9909 13.5691 15.8985 11.5028 14.9605C10.5006 14.4521 9.38485 14.2089 8.26195 14.254C7.13905 14.299 6.04641 14.6309 5.08813 15.218C5.45184 16.0046 6.03587 16.6689 6.76946 17.1304C7.50306 17.5918 8.35473 17.8306 9.22129 17.8178C8.89805 20.6706 10.4062 23.9966 14.0567 25.7411C14.1382 25.7802 14.2147 25.8226 14.2985 25.8599C12.1677 24.7592 10.4084 22.6776 10.1887 20.1502Z" fill="url(#paint12_radial_202_10322)"/>
<path d="M34.1665 12.0838C33.4084 10.2596 31.8705 8.29009 30.6663 7.66748C31.5252 9.33097 32.1213 11.1175 32.4333 12.9635L32.4364 12.9927C30.4637 8.07445 27.1184 6.09138 24.3862 1.7732C24.2451 1.55306 24.1081 1.33033 23.9752 1.10513C23.9067 0.987494 23.8426 0.867362 23.7829 0.744979C23.6696 0.525538 23.5823 0.293626 23.5227 0.0539448C23.5228 0.0428848 23.5188 0.0321823 23.5115 0.0238792C23.5042 0.015576 23.4941 0.0102533 23.4831 0.0089263C23.4724 0.00597639 23.461 0.00597639 23.4503 0.0089263C23.448 0.0089263 23.4444 0.012978 23.4417 0.0138783C23.439 0.0147787 23.4332 0.0188304 23.4291 0.0206311L23.4359 0.0089263C19.0533 2.57498 17.5663 7.32534 17.4295 9.70142C17.633 9.68746 17.8346 9.67035 18.0426 9.67035C19.5977 9.6732 21.1242 10.0878 22.467 10.872C23.8098 11.6561 24.9211 12.7819 25.6877 14.1348C24.4604 13.2848 22.9612 12.9207 21.4807 13.1134C27.7563 16.2512 26.0726 27.0565 17.3755 26.6486C16.6011 26.6168 15.8358 26.4692 15.1052 26.2106C14.9344 26.1467 14.7636 26.0768 14.5929 26.0008C14.4943 25.9558 14.3957 25.9108 14.2984 25.8604L14.3106 25.868C14.226 25.8275 14.1413 25.7853 14.0567 25.7415C14.1382 25.7807 14.2147 25.823 14.2984 25.8604C12.1677 24.7592 10.4084 22.6776 10.1887 20.1502C10.1887 20.1502 10.9941 17.1488 15.9556 17.1488C16.4917 17.1488 18.0264 15.652 18.0539 15.218C18.0471 15.0762 15.0106 13.8674 13.8266 12.7015C13.1941 12.0779 12.8939 11.7777 12.6278 11.5521C12.484 11.4303 12.3337 11.3164 12.1776 11.2109C11.7801 9.81934 11.7631 8.34661 12.1285 6.94628C10.5191 7.72597 9.08902 8.83123 7.92877 10.1921H7.92066C7.22918 9.31561 7.2778 6.42542 7.31742 5.82172C7.11285 5.90393 6.91758 6.00761 6.73488 6.131C6.12444 6.56667 5.55378 7.05553 5.02957 7.59185C4.43222 8.19749 3.88664 8.8521 3.39855 9.54881V9.55151V9.54835C2.2768 11.1387 1.48117 12.9354 1.05759 14.8349L1.03418 14.9501C1.00131 15.1036 0.854104 15.8834 0.832945 16.0508C0.6983 16.8557 0.612308 17.668 0.575439 18.4832V18.5732C0.579265 22.9419 2.22178 27.1503 5.17837 30.3666C8.13495 33.5828 12.1905 35.573 16.5435 35.9437C20.8964 36.3145 25.2301 35.0388 28.688 32.3688C32.1459 29.6989 34.4764 25.8289 35.219 21.5237C35.2483 21.2986 35.2721 21.0758 35.2982 20.8485C35.6576 17.8782 35.2686 14.8653 34.1665 12.0838ZM32.4355 12.9801L32.4387 12.9986L32.4355 12.9801Z" fill="url(#paint13_linear_202_10322)"/>
</g>
<defs>
<linearGradient id="paint0_linear_202_10322" x1="33.6654" y1="9.25303" x2="3.47553" y2="28.2702" gradientUnits="userSpaceOnUse">
<stop stop-color="#3FE1B0"/>
<stop offset="0.406" stop-color="#00B3F4"/>
<stop offset="0.421" stop-color="#03B0F4"/>
<stop offset="0.818" stop-color="#5561E9"/>
<stop offset="1" stop-color="#7542E5"/>
</linearGradient>
<radialGradient id="paint1_radial_202_10322" cx="0" cy="0" r="1" gradientUnits="userSpaceOnUse" gradientTransform="translate(30.5186 4.00195) scale(36.3736 36.3736)">
<stop offset="0.108" stop-color="#3FE1B0"/>
<stop offset="0.122" stop-color="#3BDCB3"/>
<stop offset="0.254" stop-color="#1BB3D3"/>
<stop offset="0.358" stop-color="#0799E6"/>
<stop offset="0.42" stop-color="#0090ED"/>
<stop offset="0.487" stop-color="#2482F1"/>
<stop offset="0.64" stop-color="#7165FB"/>
<stop offset="0.71" stop-color="#9059FF"/>
<stop offset="0.795" stop-color="#7D49ED"/>
<stop offset="0.86" stop-color="#7542E5"/>
</radialGradient>
<radialGradient id="paint2_radial_202_10322" cx="0" cy="0" r="1" gradientUnits="userSpaceOnUse" gradientTransform="translate(17.2273 18.8725) scale(36.3736 36.3736)">
<stop offset="0.3" stop-color="#45278D"/>
<stop offset="0.341" stop-color="#562896" stop-opacity="0.787"/>
<stop offset="0.43" stop-color="#782AA9" stop-opacity="0.364"/>
<stop offset="0.495" stop-color="#8D2BB5" stop-opacity="0.1"/>
<stop offset="0.53" stop-color="#952BB9" stop-opacity="0"/>
</radialGradient>
<radialGradient id="paint3_radial_202_10322" cx="0" cy="0" r="1" gradientUnits="userSpaceOnUse" gradientTransform="translate(21.6126 -4.25254) scale(26.3512 26.3512)">
<stop offset="0.132" stop-color="#3FE1B0"/>
<stop offset="0.289" stop-color="#28D0C8"/>
<stop offset="0.526" stop-color="#00B3F4"/>
</radialGradient>
<radialGradient id="paint4_radial_202_10322" cx="0" cy="0" r="1" gradientUnits="userSpaceOnUse" gradientTransform="translate(13.2041 28.3738) scale(17.3191 17.3191)">
<stop offset="0.287" stop-color="#0060DF"/>
<stop offset="0.417" stop-color="#2357E1"/>
<stop offset="0.604" stop-color="#4F4CE3"/>
<stop offset="0.748" stop-color="#6B45E4"/>
<stop offset="0.833" stop-color="#7542E5"/>
</radialGradient>
<radialGradient id="paint5_radial_202_10322" cx="0" cy="0" r="1" gradientTransform="matrix(8.92532 -2.15787 2.52517 10.4496 19.215 15.8917)" gradientUnits="userSpaceOnUse">
<stop offset="0.206" stop-color="#45278D" stop-opacity="0"/>
<stop offset="0.251" stop-color="#44268A" stop-opacity="0.055"/>
<stop offset="0.725" stop-color="#371F6F" stop-opacity="0.591"/>
<stop offset="0.956" stop-color="#321C64" stop-opacity="0.8"/>
</radialGradient>
<radialGradient id="paint6_radial_202_10322" cx="0" cy="0" r="1" gradientUnits="userSpaceOnUse" gradientTransform="translate(14.1057 25.8807) scale(0.281816 0.281818)">
<stop offset="0.353" stop-color="#3A8EE6"/>
<stop offset="0.472" stop-color="#5C79F0"/>
<stop offset="0.669" stop-color="#9059FF"/>
<stop offset="1" stop-color="#C139E6"/>
</radialGradient>
<radialGradient id="paint7_radial_202_10322" cx="0" cy="0" r="1" gradientTransform="matrix(0.0980178 -0.0236979 0.0277314 0.114758 15.6717 27.0491)" gradientUnits="userSpaceOnUse">
<stop offset="0.206" stop-color="#9059FF" stop-opacity="0"/>
<stop offset="0.278" stop-color="#8C4FF3" stop-opacity="0.064"/>
<stop offset="0.747" stop-color="#7716A8" stop-opacity="0.45"/>
<stop offset="0.975" stop-color="#6E008B" stop-opacity="0.6"/>
</radialGradient>
<radialGradient id="paint8_radial_202_10322" cx="0" cy="0" r="1" gradientUnits="userSpaceOnUse" gradientTransform="translate(16.7681 2.51364) scale(12.4593)">
<stop stop-color="#00DDFF"/>
<stop offset="0.235" stop-color="#00D6FD"/>
<stop offset="0.572" stop-color="#00C3F8"/>
<stop offset="0.792" stop-color="#00B3F4"/>
</radialGradient>
<radialGradient id="paint9_radial_202_10322" cx="0" cy="0" r="1" gradientUnits="userSpaceOnUse" gradientTransform="translate(26.5615 -5.38885) scale(53.1583 53.1583)">
<stop offset="0.126" stop-color="#3FE1B0"/>
<stop offset="0.429" stop-color="#00DDFF"/>
<stop offset="0.479" stop-color="#1EC1FF"/>
<stop offset="0.624" stop-color="#7077FF"/>
<stop offset="0.69" stop-color="#9059FF"/>
<stop offset="0.904" stop-color="#B833E1"/>
</radialGradient>
<radialGradient id="paint10_radial_202_10322" cx="0" cy="0" r="1" gradientTransform="matrix(4.08876 38.7459 -25.4282 2.6869 22.0812 -2.43308)" gradientUnits="userSpaceOnUse">
<stop stop-color="#54FFBD"/>
<stop offset="0.095" stop-color="#4CF3B8"/>
<stop offset="0.197" stop-color="#3FE1B0"/>
<stop offset="0.257" stop-color="#33D8BD"/>
<stop offset="0.369" stop-color="#12C0E1"/>
<stop offset="0.423" stop-color="#00B3F4"/>
<stop offset="0.737" stop-color="#0060DF"/>
</radialGradient>
<radialGradient id="paint11_radial_202_10322" cx="0" cy="0" r="1" gradientUnits="userSpaceOnUse" gradientTransform="translate(16.4746 7.12871) scale(33.1877 33.1877)">
<stop offset="0.137" stop-color="#3FE1B0"/>
<stop offset="0.435" stop-color="#00DDFF"/>
<stop offset="0.484" stop-color="#1EC1FF"/>
<stop offset="0.622" stop-color="#7077FF"/>
<stop offset="0.685" stop-color="#9059FF"/>
</radialGradient>
<radialGradient id="paint12_radial_202_10322" cx="0" cy="0" r="1" gradientUnits="userSpaceOnUse" gradientTransform="translate(25.2353 9.07115) scale(36.3237 36.3237)">
<stop offset="0.094" stop-color="#54FFBD"/>
<stop offset="0.242" stop-color="#41F7CC"/>
<stop offset="0.543" stop-color="#0FE3F3"/>
<stop offset="0.626" stop-color="#00DDFF"/>
</radialGradient>
<linearGradient id="paint13_linear_202_10322" x1="31.509" y1="5.43456" x2="6.86318" y2="30.08" gradientUnits="userSpaceOnUse">
<stop offset="0.167" stop-color="#54FFBD" stop-opacity="0.8"/>
<stop offset="0.236" stop-color="#43F8CA" stop-opacity="0.639"/>
<stop offset="0.361" stop-color="#27EDE1" stop-opacity="0.368"/>
<stop offset="0.466" stop-color="#12E4F1" stop-opacity="0.169"/>
<stop offset="0.545" stop-color="#05DFFB" stop-opacity="0.046"/>
<stop offset="0.589" stop-color="#00DDFF" stop-opacity="0"/>
</linearGradient>
<clipPath id="clip0_202_10322">
<rect width="36" height="37" fill="white"/>
</clipPath>
</defs>
</svg>
