<svg width="36" height="37" viewBox="0 0 36 37" fill="none" xmlns="http://www.w3.org/2000/svg">
<path d="M34.4177 13.5771C30.6697 9.34762 26.6701 5.348 22.4406 1.59996C21.1933 0.570063 19.6263 0.00671387 18.0088 0.00671387C16.3913 0.00671387 14.8243 0.570063 13.577 1.59996C9.35049 5.34972 5.35387 9.35085 1.60887 13.5816C0.578974 14.8288 0.015625 16.3959 0.015625 18.0134C0.015625 19.6309 0.578974 21.1979 1.60887 22.4452C5.35718 26.6716 9.3568 30.6682 13.586 34.4133C14.8202 35.4627 16.3934 36.0287 18.0133 36.0061C19.6401 36.0281 21.2197 35.4589 22.4586 34.4043C24.6633 32.4156 26.6744 30.4899 28.6136 28.5237C28.9432 28.1332 29.111 27.6313 29.0826 27.121C29.0541 26.6108 28.8316 26.1307 28.4607 25.7792L22.5126 20.2225C23.2705 19.5487 23.8689 18.7146 24.2642 17.7807C24.6596 16.8468 24.842 15.8366 24.7982 14.8234C24.7176 13.1208 24.0122 11.5076 22.8169 10.2924C21.6216 9.07718 20.0203 8.3452 18.3192 8.23642C17.3849 8.18132 16.4491 8.3186 15.5699 8.63978C14.6908 8.96096 13.8869 9.45919 13.2081 10.1036C12.5174 10.7568 11.9697 11.546 11.5995 12.4216C11.2294 13.2971 11.0448 14.2399 11.0575 15.1904C11.0702 16.1409 11.2798 17.0785 11.6732 17.9438C12.0666 18.8092 12.6352 19.5836 13.343 20.218L11.1924 22.1662C10.8487 22.4741 10.6414 22.9059 10.6161 23.3666C10.5908 23.8273 10.7495 24.2792 11.0574 24.6228C11.3653 24.9665 11.797 25.1738 12.2577 25.1991C12.7184 25.2244 13.1703 25.0657 13.514 24.7578L15.8986 22.5982L15.9571 22.5397C16.2751 22.22 16.5233 21.8378 16.6859 21.4173C16.8486 20.9967 16.9221 20.547 16.902 20.0966C16.8866 19.6421 16.7776 19.1958 16.5817 18.7854C16.3858 18.3751 16.1073 18.0096 15.7636 17.7119C15.229 17.2613 14.8457 16.6572 14.6659 15.9815C14.486 15.3057 14.5182 14.591 14.758 13.9342C14.9979 13.2774 15.4339 12.7102 16.0069 12.3094C16.5799 11.9086 17.2623 11.6937 17.9616 11.6937C18.6608 11.6937 19.3432 11.9086 19.9162 12.3094C20.4892 12.7102 20.9252 13.2774 21.1651 13.9342C21.4049 14.591 21.4371 15.3057 21.2573 15.9815C21.0774 16.6572 20.6941 17.2613 20.1595 17.7119C19.808 18.0086 19.5218 18.3748 19.3189 18.7875C19.116 19.2003 19.0008 19.6506 18.9806 20.1101C18.9626 20.5582 19.0372 21.0053 19.1998 21.4234C19.3624 21.8414 19.6094 22.2214 19.9255 22.5397L19.9705 22.5847L24.9647 27.2639C23.4349 28.7757 21.8422 30.2785 20.1505 31.8172C19.5356 32.2776 18.7882 32.5264 18.02 32.5264C17.2519 32.5264 16.5045 32.2776 15.8896 31.8172C11.7603 28.1548 7.85389 24.2484 4.19147 20.1191C3.73109 19.5042 3.48227 18.7568 3.48227 17.9886C3.48227 17.2205 3.73109 16.4731 4.19147 15.8582C7.85166 11.7268 11.7582 7.82026 15.8896 4.16006C16.5037 3.7018 17.2494 3.45422 18.0155 3.45422C18.7817 3.45422 19.5274 3.7018 20.1415 4.16006C24.2729 7.82026 28.1794 11.7268 31.8396 15.8582C32.2979 16.4723 32.5455 17.2179 32.5455 17.9841C32.5455 18.7503 32.2979 19.496 31.8396 20.1101C31.2412 20.7849 30.6428 21.4598 30.0399 22.0762C29.7285 22.4145 29.5642 22.8627 29.5831 23.3221C29.6021 23.7816 29.8028 24.2147 30.1411 24.5261C30.4794 24.8376 30.9276 25.0019 31.387 24.9829C31.8465 24.9639 32.2796 24.7632 32.591 24.4249C33.1849 23.7815 33.7968 23.1066 34.3907 22.4137C35.4186 21.1713 35.9833 19.6105 35.9882 17.998C35.9931 16.3855 35.438 14.8213 34.4177 13.5726V13.5771Z" fill="url(#paint0_linear_202_10266)"/>
<path d="M34.4177 13.5771C30.6697 9.34762 26.6701 5.348 22.4406 1.59996C21.1933 0.570063 19.6263 0.00671387 18.0088 0.00671387C16.3913 0.00671387 14.8243 0.570063 13.577 1.59996C9.35049 5.34972 5.35387 9.35085 1.60887 13.5816C0.578974 14.8288 0.015625 16.3959 0.015625 18.0134C0.015625 19.6309 0.578974 21.1979 1.60887 22.4452C5.35718 26.6716 9.3568 30.6682 13.586 34.4133C14.8202 35.4627 16.3934 36.0287 18.0133 36.0061C19.6401 36.0281 21.2197 35.4589 22.4586 34.4043C24.6633 32.4156 26.6744 30.4899 28.6136 28.5237C28.9432 28.1332 29.111 27.6313 29.0826 27.121C29.0541 26.6108 28.8316 26.1307 28.4607 25.7792L22.5126 20.2225C23.2705 19.5487 23.8689 18.7146 24.2642 17.7807C24.6596 16.8468 24.842 15.8366 24.7982 14.8234C24.7176 13.1208 24.0122 11.5076 22.8169 10.2924C21.6216 9.07718 20.0203 8.3452 18.3192 8.23642C17.3849 8.18132 16.4491 8.3186 15.5699 8.63978C14.6908 8.96096 13.8869 9.45919 13.2081 10.1036C12.5174 10.7568 11.9697 11.546 11.5995 12.4216C11.2294 13.2971 11.0448 14.2399 11.0575 15.1904C11.0702 16.1409 11.2798 17.0785 11.6732 17.9438C12.0666 18.8092 12.6352 19.5836 13.343 20.218L11.1924 22.1662C10.8487 22.4741 10.6414 22.9059 10.6161 23.3666C10.5908 23.8273 10.7495 24.2792 11.0574 24.6228C11.3653 24.9665 11.797 25.1738 12.2577 25.1991C12.7184 25.2244 13.1703 25.0657 13.514 24.7578L15.8986 22.5982L15.9571 22.5397C16.2751 22.22 16.5233 21.8378 16.6859 21.4173C16.8486 20.9967 16.9221 20.547 16.902 20.0966C16.8866 19.6421 16.7776 19.1958 16.5817 18.7854C16.3858 18.3751 16.1073 18.0096 15.7636 17.7119C15.229 17.2613 14.8457 16.6572 14.6659 15.9815C14.486 15.3057 14.5182 14.591 14.758 13.9342C14.9979 13.2774 15.4339 12.7102 16.0069 12.3094C16.5799 11.9086 17.2623 11.6937 17.9616 11.6937C18.6608 11.6937 19.3432 11.9086 19.9162 12.3094C20.4892 12.7102 20.9252 13.2774 21.1651 13.9342C21.4049 14.591 21.4371 15.3057 21.2573 15.9815C21.0774 16.6572 20.6941 17.2613 20.1595 17.7119C19.808 18.0086 19.5218 18.3748 19.3189 18.7875C19.116 19.2003 19.0008 19.6506 18.9806 20.1101C18.9626 20.5582 19.0372 21.0053 19.1998 21.4234C19.3624 21.8414 19.6094 22.2214 19.9255 22.5397L19.9705 22.5847L24.9647 27.2639C23.4349 28.7757 21.8422 30.2785 20.1505 31.8172C19.5356 32.2776 18.7882 32.5264 18.02 32.5264C17.2519 32.5264 16.5045 32.2776 15.8896 31.8172C11.7603 28.1548 7.85389 24.2484 4.19147 20.1191C3.73109 19.5042 3.48227 18.7568 3.48227 17.9886C3.48227 17.2205 3.73109 16.4731 4.19147 15.8582C7.85166 11.7268 11.7582 7.82026 15.8896 4.16006C16.5037 3.7018 17.2494 3.45422 18.0155 3.45422C18.7817 3.45422 19.5274 3.7018 20.1415 4.16006C24.2729 7.82026 28.1794 11.7268 31.8396 15.8582C32.2979 16.4723 32.5455 17.2179 32.5455 17.9841C32.5455 18.7503 32.2979 19.496 31.8396 20.1101C31.2412 20.7849 30.6428 21.4598 30.0399 22.0762C29.7285 22.4145 29.5642 22.8627 29.5831 23.3221C29.6021 23.7816 29.8028 24.2147 30.1411 24.5261C30.4794 24.8376 30.9276 25.0019 31.387 24.9829C31.8465 24.9639 32.2796 24.7632 32.591 24.4249C33.1849 23.7815 33.7968 23.1066 34.3907 22.4137C35.4186 21.1713 35.9833 19.6105 35.9882 17.998C35.9931 16.3855 35.438 14.8213 34.4177 13.5726V13.5771Z" fill="url(#paint1_linear_202_10266)"/>
<path d="M31.8262 15.8807C32.2844 16.4948 32.532 17.2404 32.532 18.0066C32.532 18.7728 32.2844 19.5185 31.8262 20.1326C31.2233 20.8074 30.6249 21.4823 30.0265 22.0987C29.8565 22.2628 29.7218 22.4599 29.6308 22.6779C29.5398 22.8959 29.4943 23.1302 29.4972 23.3665C29.5001 23.6027 29.5513 23.8359 29.6476 24.0516C29.7439 24.2673 29.8834 24.461 30.0574 24.6209C30.2313 24.7807 30.4362 24.9033 30.6593 24.981C30.8824 25.0588 31.119 25.09 31.3546 25.073C31.5903 25.0559 31.8199 24.9907 32.0294 24.8816C32.239 24.7725 32.424 24.6216 32.5731 24.4384C33.167 23.7995 33.7789 23.1246 34.3728 22.4317C36.5414 20.0336 31.8217 15.8762 31.8217 15.8762L31.8262 15.8807Z" fill="url(#paint2_linear_202_10266)"/>
<path d="M24.9648 27.2595C23.435 28.7757 21.8423 30.274 20.1506 31.8173C19.5357 32.2777 18.7883 32.5265 18.0201 32.5265C17.252 32.5265 16.5046 32.2777 15.8897 31.8173C11.7604 28.1548 7.85399 24.2485 4.19156 20.1191C3.73118 19.5043 3.48236 18.7568 3.48236 17.9887C3.48236 17.2206 3.73118 16.4731 4.19156 15.8583L3.40419 16.7581C2.45591 17.8353 1.94031 19.2256 1.95693 20.6606C1.97355 22.0956 2.52121 23.4735 3.49417 24.5284C6.68892 27.9918 10.0572 31.2911 13.5861 34.4134C14.8203 35.4628 16.3935 36.0287 18.0134 36.0061C19.6402 36.0281 21.2198 35.459 22.4587 34.4044C23.7185 33.2705 25.1133 31.9612 26.3596 30.7599C26.5075 30.6184 26.6253 30.4483 26.7057 30.26C26.7862 30.0717 26.8276 29.8691 26.8276 29.6644C26.8276 29.4596 26.7862 29.257 26.7057 29.0687C26.6253 28.8804 26.5075 28.7103 26.3596 28.5688L24.9648 27.2595Z" fill="url(#paint3_linear_202_10266)"/>
<path opacity="0.9" d="M3.51651 24.5464C4.8303 25.9727 6.1396 27.3359 7.47589 28.6677L8.0158 27.7904C8.46573 27.0705 8.91566 26.3731 9.39708 25.6757C7.66486 23.912 5.95512 22.0943 4.2004 20.1416C3.74002 19.5267 3.4912 18.7793 3.4912 18.0112C3.4912 17.243 3.74002 16.4956 4.2004 15.8807L3.41752 16.7806C2.47431 17.8552 1.96096 19.2402 1.9759 20.67C1.99085 22.0998 2.53304 23.4737 3.49851 24.5284L3.51651 24.5464Z" fill="url(#paint4_linear_202_10266)"/>
<path d="M31.8262 15.8807C32.2844 16.4948 32.532 17.2404 32.532 18.0066C32.532 18.7728 32.2844 19.5185 31.8262 20.1326C31.2233 20.8074 30.6249 21.4823 30.0265 22.0987C29.8565 22.2628 29.7218 22.4599 29.6308 22.6779C29.5398 22.8959 29.4943 23.1302 29.4972 23.3665C29.5001 23.6027 29.5513 23.8359 29.6476 24.0516C29.7439 24.2673 29.8834 24.461 30.0574 24.6209C30.2313 24.7807 30.4362 24.9033 30.6593 24.981C30.8824 25.0588 31.119 25.09 31.3546 25.073C31.5903 25.0559 31.8199 24.9907 32.0294 24.8816C32.239 24.7725 32.424 24.6216 32.5731 24.4384C33.167 23.7995 33.7789 23.1246 34.3728 22.4317C36.5414 20.0336 31.8217 15.8762 31.8217 15.8762L31.8262 15.8807Z" fill="url(#paint5_linear_202_10266)"/>
<path opacity="0.9" d="M26.337 28.5687L24.9647 27.2639C23.435 28.7757 21.8422 30.2784 20.1415 31.8172C19.7577 32.1121 19.3164 32.3233 18.846 32.4372C18.3756 32.5511 17.8866 32.5652 17.4104 32.4786V35.9745C17.6084 35.9745 17.8063 36.0015 18.0088 36.0015C19.6341 36.0225 21.2119 35.4534 22.4496 34.3998C23.7094 33.266 25.1042 31.9567 26.3505 30.7554C26.4982 30.6132 26.6154 30.4426 26.695 30.2537C26.7747 30.0649 26.8151 29.8618 26.8138 29.6569C26.8126 29.452 26.7696 29.2494 26.6877 29.0616C26.6057 28.8737 26.4864 28.7045 26.337 28.5642V28.5687Z" fill="url(#paint6_linear_202_10266)"/>
<defs>
<linearGradient id="paint0_linear_202_10266" x1="25.9455" y1="4.27254" x2="9.63111" y2="32.5236" gradientUnits="userSpaceOnUse">
<stop stop-color="#FF980E"/>
<stop offset="0.11" stop-color="#FF851B"/>
<stop offset="0.57" stop-color="#FF3750"/>
<stop offset="0.8" stop-color="#F92261"/>
<stop offset="1" stop-color="#F5156C"/>
</linearGradient>
<linearGradient id="paint1_linear_202_10266" x1="25.8016" y1="-0.34823" x2="12.4702" y2="31.0703" gradientUnits="userSpaceOnUse">
<stop stop-color="#FFF261" stop-opacity="0.8"/>
<stop offset="0.06" stop-color="#FFF261" stop-opacity="0.68"/>
<stop offset="0.19" stop-color="#FFF261" stop-opacity="0.48"/>
<stop offset="0.31" stop-color="#FFF261" stop-opacity="0.31"/>
<stop offset="0.42" stop-color="#FFF261" stop-opacity="0.17"/>
<stop offset="0.53" stop-color="#FFF261" stop-opacity="0.08"/>
<stop offset="0.63" stop-color="#FFF261" stop-opacity="0.02"/>
<stop offset="0.72" stop-color="#FFF261" stop-opacity="0"/>
</linearGradient>
<linearGradient id="paint2_linear_202_10266" x1="32.2806" y1="34.1389" x2="32.2806" y2="12.7402" gradientUnits="userSpaceOnUse">
<stop stop-color="#0090ED"/>
<stop offset="0.5" stop-color="#9059FF"/>
<stop offset="0.81" stop-color="#B833E1"/>
</linearGradient>
<linearGradient id="paint3_linear_202_10266" x1="8.06546" y1="35.3222" x2="21.8378" y2="11.8854" gradientUnits="userSpaceOnUse">
<stop offset="0.02" stop-color="#0090ED"/>
<stop offset="0.49" stop-color="#9059FF"/>
<stop offset="1" stop-color="#B833E1"/>
</linearGradient>
<linearGradient id="paint4_linear_202_10266" x1="9.85601" y1="26.2921" x2="1.82477" y2="18.2609" gradientUnits="userSpaceOnUse">
<stop offset="0.14" stop-color="#592ACB" stop-opacity="0"/>
<stop offset="0.33" stop-color="#542BC8" stop-opacity="0.03"/>
<stop offset="0.53" stop-color="#462FBF" stop-opacity="0.11"/>
<stop offset="0.74" stop-color="#2F35B1" stop-opacity="0.25"/>
<stop offset="0.95" stop-color="#0F3D9C" stop-opacity="0.44"/>
<stop offset="1" stop-color="#054096" stop-opacity="0.5"/>
</linearGradient>
<linearGradient id="paint5_linear_202_10266" x1="34.1478" y1="17.4285" x2="30.103" y2="24.4294" gradientUnits="userSpaceOnUse">
<stop stop-color="#722291" stop-opacity="0.5"/>
<stop offset="0.5" stop-color="#B833E1" stop-opacity="0"/>
</linearGradient>
<linearGradient id="paint6_linear_202_10266" x1="25.5901" y1="27.4394" x2="20.8929" y2="32.7351" gradientUnits="userSpaceOnUse">
<stop stop-color="#054096" stop-opacity="0.5"/>
<stop offset="0.03" stop-color="#0F3D9C" stop-opacity="0.44"/>
<stop offset="0.17" stop-color="#2F35B1" stop-opacity="0.25"/>
<stop offset="0.3" stop-color="#462FBF" stop-opacity="0.11"/>
<stop offset="0.43" stop-color="#542BC8" stop-opacity="0.03"/>
<stop offset="0.56" stop-color="#592ACB" stop-opacity="0"/>
</linearGradient>
</defs>
</svg>
