<svg width="40" height="40" viewBox="0 0 40 40" fill="none" xmlns="http://www.w3.org/2000/svg">
<g clip-path="url(#clip0_202_12392)">
<path d="M37.9188 13.4163C37.0788 11.3899 35.3763 9.20235 34.0399 8.51131C35.1277 10.6489 35.7569 12.793 35.9975 14.3927C35.9975 14.3927 35.9975 14.404 36.0015 14.425C33.8155 8.96286 30.108 6.75995 27.0804 1.96466C26.9267 1.72276 26.7738 1.48086 26.6242 1.22202C26.5397 1.07608 26.4713 0.943838 26.4118 0.818856C26.2863 0.576392 26.1894 0.320141 26.1229 0.0552545C26.1235 0.0426758 26.1193 0.0303495 26.1113 0.0206655C26.1033 0.0109816 26.0919 0.00463011 26.0795 0.00284262C26.0676 -0.000377877 26.0551 -0.000377877 26.0433 0.00284262C26.0401 0.00430284 26.0371 0.00620257 26.0344 0.00848698C26.0296 0.00848698 26.0248 0.0141313 26.02 0.015744L26.028 0.00526163C21.1708 2.85647 19.523 8.13072 19.3718 10.7699C17.4308 10.9029 15.575 11.6192 14.0463 12.8252C13.8865 12.6898 13.7195 12.5633 13.5459 12.4462C13.1054 10.9007 13.0867 9.26502 13.492 7.70982C11.5055 8.61694 9.96071 10.0482 8.83752 11.3149H8.82867C8.06192 10.3417 8.11582 7.13167 8.15927 6.4616C8.15042 6.41968 7.58802 6.75431 7.51561 6.8051C6.83902 7.28884 6.20657 7.83175 5.62567 8.42746C4.96464 9.09912 4.36072 9.82492 3.82021 10.5973C2.57667 12.3635 1.69476 14.3592 1.22547 16.4691C1.21662 16.511 1.20857 16.5545 1.19972 16.5973C1.16352 16.7674 1.03237 17.6213 1.00904 17.8068V17.8495C0.838074 18.7318 0.731588 19.6255 0.69043 20.5233V20.6225C0.69043 31.3242 9.34762 40.0004 20.0259 40.0004C29.5898 40.0004 37.5302 33.0417 39.0854 23.9011C39.1176 23.6535 39.1441 23.4036 39.1731 23.1536C39.5577 19.8299 39.1305 16.3368 37.9188 13.4163ZM15.6321 28.5851C15.7222 28.6278 15.8075 28.6754 15.9001 28.7173L15.9129 28.7254C15.8204 28.6802 15.7263 28.6335 15.6329 28.5851H15.6321ZM36.0031 14.4339V14.4153V14.4363V14.4339Z" fill="url(#paint0_linear_202_12392)"/>
<path d="M37.9188 13.4163C37.0788 11.39 35.3764 9.20238 34.04 8.51135C35.1277 10.649 35.7569 12.793 35.9975 14.3928V14.4323C37.8223 19.3896 36.8278 24.4309 35.3957 27.5111C33.1799 32.2765 27.8158 37.1613 19.4185 36.9235C10.3534 36.6654 2.36155 29.9156 0.869072 21.0822C0.597127 19.688 0.869072 18.9808 1.00585 17.8495C0.839303 18.7212 0.775742 18.9736 0.692871 20.5234V20.6225C0.692871 31.3242 9.35006 40.0004 20.0283 40.0004C29.5923 40.0004 37.5326 33.0417 39.0878 23.9011C39.12 23.6536 39.1466 23.4036 39.1755 23.1536C39.5577 19.8299 39.1305 16.3369 37.9188 13.4163Z" fill="url(#paint1_radial_202_12392)"/>
<path d="M37.9188 13.4163C37.0788 11.39 35.3764 9.20238 34.04 8.51135C35.1277 10.649 35.7569 12.793 35.9975 14.3928V14.4323C37.8223 19.3896 36.8278 24.4309 35.3957 27.5111C33.1799 32.2765 27.8158 37.1613 19.4185 36.9235C10.3534 36.6654 2.36155 29.9156 0.869072 21.0822C0.597127 19.688 0.869072 18.9808 1.00585 17.8495C0.839303 18.7212 0.775742 18.9736 0.692871 20.5234V20.6225C0.692871 31.3242 9.35006 40.0004 20.0283 40.0004C29.5923 40.0004 37.5326 33.0417 39.0878 23.9011C39.12 23.6536 39.1466 23.4036 39.1755 23.1536C39.5577 19.8299 39.1305 16.3369 37.9188 13.4163Z" fill="url(#paint2_radial_202_12392)"/>
<path d="M28.5223 15.6934C28.5649 15.7232 28.6028 15.7531 28.643 15.7829C28.1577 14.9194 27.5531 14.1289 26.8472 13.4349C20.837 7.41152 25.2718 0.373806 26.0193 0.0157924L26.0273 0.00531006C21.1701 2.85652 19.5224 8.13077 19.3711 10.7699C19.5964 10.7546 19.8208 10.7352 20.0502 10.7352C23.6747 10.7352 26.8319 12.7333 28.5223 15.6934Z" fill="url(#paint3_radial_202_12392)"/>
<path d="M20.0621 16.8965C20.0307 17.3803 18.3315 19.0413 17.7369 19.0413C12.2385 19.0413 11.3462 22.3747 11.3462 22.3747C11.5876 25.1824 13.5395 27.4942 15.9009 28.7174C16.0087 28.773 16.1173 28.823 16.2227 28.873C16.4118 28.9537 16.6017 29.0343 16.7907 29.1061C17.6006 29.3923 18.4486 29.5554 19.3066 29.5899C28.9438 30.043 30.812 18.0415 23.8565 14.5565C25.637 14.2461 27.4859 14.9645 28.5182 15.691C26.8286 12.731 23.6706 10.7328 20.046 10.7328C19.8167 10.7328 19.5922 10.7522 19.367 10.7675C17.4274 10.9022 15.5733 11.6193 14.0463 12.8253C14.3416 13.0761 14.6747 13.4099 15.3755 14.1017C16.6902 15.4015 20.0549 16.7393 20.0621 16.8965Z" fill="url(#paint4_radial_202_12392)"/>
<path d="M20.0621 16.8965C20.0307 17.3803 18.3315 19.0413 17.7369 19.0413C12.2385 19.0413 11.3462 22.3747 11.3462 22.3747C11.5876 25.1824 13.5395 27.4942 15.9009 28.7174C16.0087 28.773 16.1173 28.823 16.2227 28.873C16.4118 28.9537 16.6017 29.0343 16.7907 29.1061C17.6006 29.3923 18.4486 29.5554 19.3066 29.5899C28.9438 30.043 30.812 18.0415 23.8565 14.5565C25.637 14.2461 27.4859 14.9645 28.5182 15.691C26.8286 12.731 23.6706 10.7328 20.046 10.7328C19.8167 10.7328 19.5922 10.7522 19.367 10.7675C17.4274 10.9022 15.5733 11.6193 14.0463 12.8253C14.3416 13.0761 14.6747 13.4099 15.3755 14.1017C16.6902 15.4015 20.0549 16.7393 20.0621 16.8965Z" fill="url(#paint5_radial_202_12392)"/>
<path d="M13.1474 12.181C13.3043 12.2826 13.433 12.3681 13.5497 12.4463C13.1091 10.9008 13.0905 9.26507 13.4958 7.70987C11.5093 8.617 9.96449 10.0482 8.84131 11.315C8.93223 11.3126 11.737 11.2618 13.1474 12.181Z" fill="url(#paint6_radial_202_12392)"/>
<path d="M0.869429 21.082C2.36191 29.9155 10.3537 36.6653 19.4253 36.9233C27.8226 37.1612 33.1834 32.2764 35.4025 27.511C36.8346 24.4299 37.829 19.3895 36.0043 14.4322V14.3951C36.0043 14.3999 36.0043 14.4064 36.0083 14.4273C36.6938 18.9162 34.416 23.2648 30.855 26.2055C30.8513 26.2138 30.8479 26.2221 30.8446 26.2305C23.9051 31.8934 17.265 29.6469 15.9206 28.7301C15.8272 28.685 15.7331 28.6382 15.6398 28.5898C11.5936 26.6546 9.92247 22.9576 10.2805 19.7895C6.8651 19.7895 5.70008 16.9012 5.70008 16.9012C5.70008 16.9012 8.76711 14.7095 12.8093 16.6157C16.5529 18.3816 20.0689 16.902 20.0689 16.9012C20.0617 16.7439 16.697 15.4022 15.3847 14.1064C14.6839 13.4146 14.3508 13.0807 14.0556 12.83C13.8958 12.6946 13.7287 12.5681 13.5551 12.451C13.4401 12.3704 13.3137 12.2897 13.1528 12.1857C11.7424 11.2665 8.93767 11.3173 8.84515 11.3197H8.8363C8.06954 10.3465 8.12345 7.13643 8.16689 6.46636C8.15804 6.42443 7.59565 6.75906 7.52324 6.80986C6.84665 7.2936 6.21419 7.83651 5.6333 8.43221C4.97227 9.10388 4.36835 9.82968 3.82784 10.6021C2.58429 12.3683 1.70239 14.364 1.2331 16.4738C1.21781 16.5109 0.5299 19.521 0.869429 21.082Z" fill="url(#paint7_radial_202_12392)"/>
<path d="M26.8468 13.4348C27.5528 14.1288 28.1573 14.9193 28.6426 15.7829C28.7432 15.8586 28.8398 15.9393 28.9323 16.0248C33.3156 20.0694 31.0225 25.7952 30.8479 26.2064C34.409 23.2657 36.6867 18.9171 36.0012 14.4282C33.8152 8.96286 30.1077 6.75995 27.0801 1.96466C26.9265 1.72276 26.7736 1.48086 26.6239 1.22202C26.5395 1.07608 26.4711 0.943838 26.4115 0.818856C26.2861 0.576393 26.1891 0.320141 26.1227 0.0552546C26.1232 0.0426758 26.1191 0.0303495 26.111 0.0206655C26.103 0.0109816 26.0917 0.00463011 26.0792 0.00284262C26.0674 -0.000377877 26.0549 -0.000377877 26.043 0.00284262C26.0398 0.00430285 26.0369 0.00620257 26.0342 0.00848698C26.0294 0.00848698 26.0245 0.0141313 26.0197 0.015744C25.2715 0.373758 20.8367 7.41147 26.8468 13.4348Z" fill="url(#paint8_radial_202_12392)"/>
<path d="M28.9309 16.0207C28.8385 15.9353 28.7418 15.8545 28.6413 15.7788C28.6019 15.749 28.5608 15.7192 28.5206 15.6893C27.4883 14.9636 25.6394 14.2444 23.8589 14.5548C30.8136 18.0398 28.9462 30.0413 19.3091 29.5882C18.451 29.5537 17.603 29.3906 16.7932 29.1044C16.6041 29.0334 16.4142 28.9552 16.2251 28.8713C16.1157 28.8213 16.0071 28.7714 15.9033 28.7157L15.9162 28.7238C17.2606 29.643 23.9008 31.8895 30.8402 26.2241C30.8402 26.2241 30.8442 26.2137 30.8506 26.1991C31.0228 25.7952 33.3158 20.0694 28.9309 16.0207Z" fill="url(#paint9_radial_202_12392)"/>
<path d="M11.3463 22.3748C11.3463 22.3748 12.2386 19.0414 17.737 19.0414C18.3316 19.0414 20.0308 17.3787 20.0622 16.8965C20.0936 16.4143 16.5462 18.3769 12.8026 16.6111C8.76039 14.7049 5.69336 16.8965 5.69336 16.8965C5.69336 16.8965 6.85838 19.7848 10.2738 19.7848C9.91575 22.9529 11.5868 26.6467 15.633 28.5852C15.7232 28.6279 15.8084 28.6755 15.901 28.7174C13.5395 27.4966 11.5901 25.1824 11.3463 22.3748Z" fill="url(#paint10_radial_202_12392)"/>
<path d="M37.9188 13.4163C37.0788 11.3899 35.3763 9.20235 34.0399 8.51131C35.1277 10.6489 35.7569 12.793 35.9975 14.3927C35.9975 14.3927 35.9975 14.404 36.0015 14.425C33.8155 8.96286 30.108 6.75995 27.0804 1.96466C26.9267 1.72276 26.7738 1.48086 26.6242 1.22202C26.5397 1.07608 26.4713 0.943838 26.4118 0.818856C26.2863 0.576392 26.1894 0.320141 26.1229 0.0552545C26.1235 0.0426758 26.1193 0.0303495 26.1113 0.0206655C26.1033 0.0109816 26.0919 0.00463011 26.0795 0.00284262C26.0676 -0.000377877 26.0551 -0.000377877 26.0433 0.00284262C26.0401 0.00430284 26.0371 0.00620257 26.0344 0.00848698C26.0296 0.00848698 26.0248 0.0141313 26.02 0.015744L26.028 0.00526163C21.1708 2.85647 19.523 8.13072 19.3718 10.7699C19.5971 10.7545 19.8215 10.7352 20.0508 10.7352C23.6754 10.7352 26.8326 12.7333 28.523 15.6934C27.4907 14.9677 25.6418 14.2484 23.8613 14.5588C30.816 18.0438 28.9486 30.0454 19.3114 29.5922C18.4534 29.5577 17.6054 29.3947 16.7955 29.1084C16.6065 29.0374 16.4166 28.9592 16.2275 28.8754C16.1181 28.8254 16.0095 28.7754 15.9057 28.7197L15.9186 28.7278C15.8252 28.6826 15.7311 28.6359 15.6378 28.5875C15.7279 28.6302 15.8132 28.6778 15.9057 28.7197C13.5394 27.4965 11.59 25.1823 11.3462 22.3747C11.3462 22.3747 12.2384 19.0413 17.7369 19.0413C18.3315 19.0413 20.0307 17.3786 20.0621 16.8964C20.0549 16.7392 16.6901 15.3974 15.3779 14.1017C14.6771 13.4098 14.344 13.076 14.0487 12.8252C13.889 12.6898 13.7219 12.5633 13.5483 12.4462C13.1078 10.9007 13.0892 9.26502 13.4944 7.70982C11.5079 8.61694 9.96312 10.0482 8.83994 11.3149H8.83109C8.06433 10.3417 8.11824 7.13167 8.16168 6.4616C8.15283 6.41968 7.59044 6.75431 7.51803 6.8051C6.84144 7.28884 6.20898 7.83175 5.62809 8.42746C4.96705 9.09912 4.36314 9.82492 3.82263 10.5973C2.57908 12.3635 1.69717 14.3592 1.22788 16.4691C1.21903 16.511 1.21099 16.5545 1.20214 16.5973C1.16593 16.7674 1.0018 17.6334 0.979271 17.8189C0.979271 17.8052 0.979271 17.8334 0.979271 17.8189C0.828621 18.7137 0.732165 19.6168 0.69043 20.5233V20.6225C0.69043 31.3242 9.34762 40.0004 20.0259 40.0004C29.5898 40.0004 37.5302 33.0417 39.0854 23.9011C39.1176 23.6535 39.1441 23.4036 39.1731 23.1536C39.5577 19.8299 39.1305 16.3368 37.9188 13.4163ZM36.0007 14.4113V14.4322V14.4113Z" fill="url(#paint11_linear_202_12392)"/>
</g>
<defs>
<linearGradient id="paint0_linear_202_12392" x1="35.3594" y1="6.19713" x2="3.19239" y2="37.1642" gradientUnits="userSpaceOnUse">
<stop offset="0.05" stop-color="#FFF44F"/>
<stop offset="0.11" stop-color="#FFE847"/>
<stop offset="0.22" stop-color="#FFC830"/>
<stop offset="0.37" stop-color="#FF980E"/>
<stop offset="0.4" stop-color="#FF8B16"/>
<stop offset="0.46" stop-color="#FF672A"/>
<stop offset="0.53" stop-color="#FF3647"/>
<stop offset="0.7" stop-color="#E31587"/>
</linearGradient>
<radialGradient id="paint1_radial_202_12392" cx="0" cy="0" r="1" gradientUnits="userSpaceOnUse" gradientTransform="translate(33.8758 4.44016) scale(40.3099 40.3983)">
<stop offset="0.13" stop-color="#FFBD4F"/>
<stop offset="0.19" stop-color="#FFAC31"/>
<stop offset="0.25" stop-color="#FF9D17"/>
<stop offset="0.28" stop-color="#FF980E"/>
<stop offset="0.4" stop-color="#FF563B"/>
<stop offset="0.47" stop-color="#FF3750"/>
<stop offset="0.71" stop-color="#F5156C"/>
<stop offset="0.78" stop-color="#EB0878"/>
<stop offset="0.86" stop-color="#E50080"/>
</radialGradient>
<radialGradient id="paint2_radial_202_12392" cx="0" cy="0" r="1" gradientUnits="userSpaceOnUse" gradientTransform="translate(19.1465 20.9556) scale(40.3099 40.3983)">
<stop offset="0.3" stop-color="#960E18"/>
<stop offset="0.35" stop-color="#B11927" stop-opacity="0.74"/>
<stop offset="0.43" stop-color="#DB293D" stop-opacity="0.34"/>
<stop offset="0.5" stop-color="#F5334B" stop-opacity="0.09"/>
<stop offset="0.53" stop-color="#FF3750" stop-opacity="0"/>
</radialGradient>
<radialGradient id="paint3_radial_202_12392" cx="0" cy="0" r="1" gradientUnits="userSpaceOnUse" gradientTransform="translate(24.007 -4.72789) scale(29.2027 29.2668)">
<stop offset="0.13" stop-color="#FFF44F"/>
<stop offset="0.25" stop-color="#FFDC3E"/>
<stop offset="0.51" stop-color="#FF9D12"/>
<stop offset="0.53" stop-color="#FF980E"/>
</radialGradient>
<radialGradient id="paint4_radial_202_12392" cx="0" cy="0" r="1" gradientUnits="userSpaceOnUse" gradientTransform="translate(14.6884 31.5081) scale(19.1931 19.2352)">
<stop offset="0.35" stop-color="#3A8EE6"/>
<stop offset="0.47" stop-color="#5C79F0"/>
<stop offset="0.67" stop-color="#9059FF"/>
<stop offset="1" stop-color="#C139E6"/>
</radialGradient>
<radialGradient id="paint5_radial_202_12392" cx="0" cy="0" r="1" gradientTransform="matrix(9.87094 -2.44765 2.84934 11.6264 19.7254 16.1544)" gradientUnits="userSpaceOnUse">
<stop offset="0.21" stop-color="#9059FF" stop-opacity="0"/>
<stop offset="0.28" stop-color="#8C4FF3" stop-opacity="0.06"/>
<stop offset="0.75" stop-color="#7716A8" stop-opacity="0.45"/>
<stop offset="0.97" stop-color="#6E008B" stop-opacity="0.6"/>
</radialGradient>
<radialGradient id="paint6_radial_202_12392" cx="0" cy="0" r="1" gradientUnits="userSpaceOnUse" gradientTransform="translate(18.637 2.78718) scale(13.8081 13.8384)">
<stop stop-color="#FFE226"/>
<stop offset="0.12" stop-color="#FFDB27"/>
<stop offset="0.3" stop-color="#FFC82A"/>
<stop offset="0.5" stop-color="#FFA930"/>
<stop offset="0.73" stop-color="#FF7E37"/>
<stop offset="0.79" stop-color="#FF7139"/>
</radialGradient>
<radialGradient id="paint7_radial_202_12392" cx="0" cy="0" r="1" gradientUnits="userSpaceOnUse" gradientTransform="translate(29.4913 -5.98993) scale(58.9115 59.0408)">
<stop offset="0.11" stop-color="#FFF44F"/>
<stop offset="0.46" stop-color="#FF980E"/>
<stop offset="0.62" stop-color="#FF5634"/>
<stop offset="0.72" stop-color="#FF3647"/>
<stop offset="0.9" stop-color="#E31587"/>
</radialGradient>
<radialGradient id="paint8_radial_202_12392" cx="0" cy="0" r="1" gradientTransform="matrix(4.31548 42.817 -28.0506 3.02747 23.7962 0.460763)" gradientUnits="userSpaceOnUse">
<stop stop-color="#FFF44F"/>
<stop offset="0.06" stop-color="#FFE847"/>
<stop offset="0.17" stop-color="#FFC830"/>
<stop offset="0.3" stop-color="#FF980E"/>
<stop offset="0.36" stop-color="#FF8B16"/>
<stop offset="0.45" stop-color="#FF672A"/>
<stop offset="0.57" stop-color="#FF3647"/>
<stop offset="0.74" stop-color="#E31587"/>
</radialGradient>
<radialGradient id="paint9_radial_202_12392" cx="0" cy="0" r="1" gradientUnits="userSpaceOnUse" gradientTransform="translate(18.3122 7.91221) scale(36.7785 36.8593)">
<stop offset="0.14" stop-color="#FFF44F"/>
<stop offset="0.48" stop-color="#FF980E"/>
<stop offset="0.59" stop-color="#FF5634"/>
<stop offset="0.66" stop-color="#FF3647"/>
<stop offset="0.9" stop-color="#E31587"/>
</radialGradient>
<radialGradient id="paint10_radial_202_12392" cx="0" cy="0" r="1" gradientUnits="userSpaceOnUse" gradientTransform="translate(28.021 10.0701) scale(40.2543 40.3427)">
<stop offset="0.09" stop-color="#FFF44F"/>
<stop offset="0.23" stop-color="#FFE141"/>
<stop offset="0.51" stop-color="#FFAF1E"/>
<stop offset="0.63" stop-color="#FF980E"/>
</radialGradient>
<linearGradient id="paint11_linear_202_12392" x1="34.9732" y1="6.03102" x2="7.60137" y2="33.3438" gradientUnits="userSpaceOnUse">
<stop offset="0.17" stop-color="#FFF44F" stop-opacity="0.8"/>
<stop offset="0.27" stop-color="#FFF44F" stop-opacity="0.63"/>
<stop offset="0.49" stop-color="#FFF44F" stop-opacity="0.22"/>
<stop offset="0.6" stop-color="#FFF44F" stop-opacity="0"/>
</linearGradient>
<clipPath id="clip0_202_12392">
<rect width="40" height="40.0004" fill="white"/>
</clipPath>
</defs>
</svg>
