<svg width="36" height="37" viewBox="0 0 36 37" fill="none" xmlns="http://www.w3.org/2000/svg">
<g clip-path="url(#clip0_202_10018)">
<path d="M10.0591 20.9889L11.158 24.0355L12.8092 26.2636L16.6857 27.0034L18.5402 27.1609L21.7066 26.3698L23.0706 25.0625L10.0591 20.9889Z" fill="#09204D"/>
<path d="M26.4656 16.4945L26.0772 15.2065L24.9674 13.1121L23.6979 11.7737L22.3501 10.8111L21.18 10.3521L19.776 9.8526L17.4642 9.70544L16.0061 9.96826L14.8167 10.3341L12.7061 11.5694L11.3871 13.0415L10.1707 15.0171L9.69234 16.6983L9.60278 19.2495L10.0591 20.9888L11.0654 22.9689L11.7746 23.9252L12.7561 24.8253L13.9815 25.6542L15.4927 26.3117L18.0213 26.6083L19.3422 26.6452L21.2962 26.0948L23.0431 25.1358L24.1668 24.1768L25.0385 23.1373L26.2707 20.7251L26.5425 19.0749L26.4656 16.4945Z" fill="#09204D"/>
<path d="M17.5064 10.8649L16.4709 11.8918L18.1599 12.5768L19.4163 11.0183L17.5064 10.8649Z" fill="#0E56D7"/>
<path d="M18.1599 12.5766L21.4298 12.4772L19.4164 11.0182L18.1599 12.5766Z" fill="#1053D1"/>
<path d="M21.1866 11.0074L19.4163 11.0182L21.4297 12.4772L23.2914 12.3557L21.1866 11.0074Z" fill="#0B4FBF"/>
<path d="M23.2914 12.3558L22.2329 10.8964L23.6977 11.7739L23.2914 12.3558Z" fill="#0B48B0"/>
<path d="M24.6929 13.2494L23.2915 12.3557L23.6979 11.7738L24.6929 13.2494Z" fill="#0C45A7"/>
<path d="M23.2913 12.3556L23.0569 13.3555L24.3385 13.8681L23.2913 12.3556Z" fill="#0F46AF"/>
<path d="M23.2915 12.3557L24.6929 13.2495L24.3387 13.8682L23.2915 12.3557Z" fill="#0C47AD"/>
<path d="M21.4297 12.4772L23.2914 12.3557L23.057 13.3557L21.4297 12.4772Z" fill="#0E4FC3"/>
<path d="M21.4296 12.4772L19.9585 13.8092L21.8517 14.7363L21.4296 12.4772Z" fill="#174DCA"/>
<path d="M18.1599 12.5766L21.4298 12.4772L19.9587 13.8092L18.1599 12.5766Z" fill="#1650D4"/>
<path d="M23.0569 13.3556L23.947 15.0828L24.3385 13.8682L23.0569 13.3556Z" fill="#1246B2"/>
<path d="M23.947 15.0829L24.3385 13.8683L25.2714 16.0869L23.947 15.0829Z" fill="#133EA1"/>
<path d="M24.3386 13.8682L25.7602 14.9095L25.2715 16.0868L24.3386 13.8682Z" fill="#103D98"/>
<path d="M24.6929 13.2494L24.9674 13.1122L25.7603 14.9096L24.6929 13.2494Z" fill="#0B3785"/>
<path d="M25.7602 14.9096L26.077 15.2066L24.9673 13.1122L25.7602 14.9096Z" fill="#0B3685"/>
<path d="M25.7602 14.9096L24.6928 13.2494L24.3386 13.8682L25.7602 14.9096ZM23.6978 11.7738L24.6928 13.2494L24.9673 13.1144L23.6978 11.7738Z" fill="#0C3B91"/>
<path d="M26.394 17.5008L26.0771 15.2065L26.4655 16.4945L26.389 17.5008H26.394Z" fill="#0B3279"/>
<path d="M25.7603 14.9095L26.3939 17.5008L26.0771 15.2066L25.7603 14.9095Z" fill="#0F388D"/>
<path d="M25.2715 16.0868L26.3938 17.5008L25.7602 14.9095L25.2715 16.0868Z" fill="#0D3481"/>
<path d="M26.3889 17.5008L26.4654 16.4945L26.5424 19.0749L26.3939 17.5008H26.3889Z" fill="#0B2E71"/>
<path d="M26.2058 19.5402L26.5424 19.0749L26.3939 17.5007L26.2058 19.5402Z" fill="#0E2F77"/>
<path d="M26.2706 20.7253L26.0015 20.8549L26.5424 19.0751L26.2706 20.7253Z" fill="#0E2969"/>
<path d="M26.0015 20.8549L26.5424 19.0751L26.2058 19.5404L26.0015 20.8549Z" fill="#0C2A69"/>
<path d="M26.2058 19.5402L26.3939 17.5007L25.8174 18.1807L26.2058 19.5402Z" fill="#123180"/>
<path d="M26.0014 20.8547L26.2058 19.5402L25.0938 21.4091L26.0014 20.8547Z" fill="#112B70"/>
<path d="M25.2715 16.0868L26.3938 17.5008L25.8174 18.1807L25.2715 16.0868Z" fill="#12378C"/>
<path d="M26.2057 19.5403L25.8173 18.1808L25.231 19.8549L26.2057 19.5403Z" fill="#122E7B"/>
<path d="M25.0383 23.1374L26.0014 20.8549L25.1004 22.5186L25.0383 23.1374Z" fill="#11296C"/>
<path d="M25.1005 22.5185L26.0014 20.8547L25.0938 21.4092L25.1005 22.5185Z" fill="#142A72"/>
<path d="M26.0016 20.8547L25.0385 23.1359L26.2707 20.7238L26.0016 20.8547ZM24.1673 24.1768L25.0385 23.1372L25.1007 22.5184L24.1673 24.1768ZM23.0423 25.1358L24.1673 24.1768L22.9792 24.7231L23.0423 25.1358Z" fill="#112768"/>
<path d="M16.4836 25.8036L15.3481 26.0818L15.3828 25.2888L16.4836 25.8036Z" fill="#1C226A"/>
<path d="M10.1705 15.0171L10.4837 14.901L9.69214 16.6984L10.1705 15.0171Z" fill="#182B7A"/>
<path d="M9.69214 16.6984L10.2916 16.5868L10.4837 14.901L9.69214 16.6984Z" fill="#1F308D"/>
<path d="M9.72814 18.8572L9.69214 16.6984L10.2916 16.5868L9.72814 18.8572Z" fill="#1E2B7F"/>
<path d="M23.0569 13.3556L21.8517 14.7362L23.947 15.0828L23.0569 13.3556ZM12.5408 11.9398L14.0789 10.8872L12.7059 11.5703L12.5408 11.9398Z" fill="#1346B5"/>
<path d="M12.7061 11.5695L14.8167 10.3342L14.0791 10.8873L12.7061 11.5695Z" fill="#1244AC"/>
<path d="M14.0791 10.8872L16.0061 9.96826L14.8167 10.3341L14.0791 10.8872Z" fill="#0E4AB6"/>
<path d="M21.4296 12.4772L21.8517 14.7363L23.0569 13.3557L21.4296 12.4772ZM15.2517 10.7802L17.0473 10.0602L16.005 9.96655L15.2517 10.7802Z" fill="#0E4BBA"/>
<path d="M17.4642 9.70544L16.0061 9.96826L17.0484 10.0619L17.4642 9.70544Z" fill="#0A4EBC"/>
<path d="M18.843 10.0443L17.0483 10.0619L17.4642 9.70544" fill="#0C54CC"/>
<path d="M22.233 10.8954L21.1867 11.0065L23.2915 12.3566L22.233 10.8954ZM18.843 10.0444L21.18 10.3522L19.7759 9.85266L18.843 10.0444Z" fill="#0B4BB4"/>
<path d="M22.233 10.8962L21.1799 10.3522L22.35 10.8112L22.233 10.8962Z" fill="#0C3889"/>
<path d="M10.0589 20.9889L10.7515 21.5573L9.72998 18.8572L10.0589 20.9889ZM19.5945 26.359L20.202 24.9289L17.9883 25.5234L19.5945 26.359ZM20.202 24.9289L22.0525 25.4424L22.1645 24.0113L20.202 24.9289Z" fill="#202575"/>
<path d="M22.9791 24.7232L22.1646 24.0113L24.1325 22.7035L22.9791 24.7232Z" fill="#1B2773"/>
<path d="M24.1327 22.7034L22.9792 24.7231L24.1673 24.1768L25.1007 22.5184L24.1327 22.7034Z" fill="#15276D"/>
<path d="M22.35 10.8112L22.233 10.8962L23.6978 11.7738L22.35 10.8112ZM21.1867 11.0074L22.233 10.8962L21.1799 10.3522L21.1867 11.0074Z" fill="#0C409D"/>
<path d="M17.4641 9.70544L18.843 10.0443L19.7759 9.8526L17.4641 9.70544ZM21.1799 10.3521L18.843 10.0443L21.1867 11.0074L21.1799 10.3521Z" fill="#0B4CB7"/>
<path d="M18.843 10.0443L19.4163 11.0182L21.1867 11.0074L18.843 10.0443Z" fill="#0B55CE"/>
<path d="M18.8429 10.0443L19.4162 11.0182L17.5063 10.8647L18.8429 10.0443Z" fill="#0A52C5"/>
<path d="M17.0483 10.0619L17.5065 10.8647L18.843 10.0443L17.0483 10.0619Z" fill="#0951C4"/>
<path d="M15.2527 10.7801L17.0483 10.0619L17.5064 10.8647L15.2527 10.7801Z" fill="#0B50C4"/>
<path d="M14.0791 10.8872L15.2528 10.7801L16.0061 9.97009L14.0791 10.8872ZM15.2528 10.7801L16.471 11.8917L17.506 10.8647L15.2528 10.7801Z" fill="#0F4DBF"/>
<path d="M15.2528 10.7802L13.2695 12.6401L14.0791 10.8873L15.2528 10.7802Z" fill="#1546B6"/>
<path d="M13.2695 12.6401L14.535 12.8503L15.2528 10.7802L13.2695 12.6401Z" fill="#1549BD"/>
<path d="M14.5349 12.8503L15.2527 10.7802L16.4709 11.8917L14.5349 12.8503Z" fill="#144BC3"/>
<path d="M11.387 13.0415L11.4639 13.7894L12.5408 11.9398L11.387 13.0415Z" fill="#173794"/>
<path d="M10.4839 14.9011L11.3871 13.0416L11.464 13.7896L10.4839 14.9011Z" fill="#192F84"/>
<path d="M11.4639 13.7894L12.5408 11.9398L13.2694 12.6401L11.4639 13.7894Z" fill="#1A389B"/>
<path d="M11.3988 15.3933L11.464 13.7894L10.4839 14.901L11.3988 15.3933Z" fill="#1D3089"/>
<path d="M11.3987 15.3933L11.4639 13.7894L12.7361 14.8222L11.3987 15.3933Z" fill="#1E389F"/>
<path d="M12.7361 14.8222L13.2694 12.64L11.4639 13.7894L12.7361 14.8222Z" fill="#1C40AF"/>
<path d="M12.7361 14.8223L13.2694 12.6401L14.5348 12.8503L12.7361 14.8223Z" fill="#1E41B7"/>
<path d="M10.2917 16.5868L10.4839 14.901L11.3988 15.3933L10.2917 16.5868Z" fill="#192C7D"/>
<path d="M19.5945 26.3591L21.296 26.0949L22.0525 25.4424L19.5945 26.3591ZM9.604 19.2487L9.72956 18.8563L9.69356 16.6962L9.604 19.2487ZM10.293 16.5859L9.72956 18.8563L10.7511 21.5564L10.2511 18.4288L10.293 16.5859Z" fill="#162467"/>
<path d="M10.7498 21.5572L11.5926 21.6756L11.0022 20.2976L10.7498 21.5572Z" fill="#1A236A"/>
<path d="M22.9791 24.7232L22.0525 25.4433L21.296 26.0958L23.043 25.1368L22.9791 24.7232ZM18.0212 26.6084L19.342 26.6453L21.296 26.0949L19.5945 26.359L18.0212 26.6084ZM11.5364 23.1243L12.422 23.2944L11.5926 21.6743L11.5364 23.1243Z" fill="#132668"/>
<path d="M15.3829 25.289L13.8829 24.1342L13.2597 24.7341L15.3482 26.0819L15.3829 25.289ZM10.0591 20.989L11.0654 22.9691L10.7503 21.5574L10.0591 20.989ZM9.60278 19.2497L10.0591 20.989L9.72834 18.8573L9.60278 19.2497ZM17.9885 25.5234L15.3829 25.289L16.4836 25.8038L15.3482 26.0819L13.9815 25.6562L15.4927 26.3137L18.0213 26.6102L19.5964 26.3609L17.9885 25.5234ZM11.5928 21.6757L10.7517 21.5574L11.5383 23.1244L11.5928 21.6757ZM10.2513 18.4288L10.7517 21.5574L11.0042 20.2973L10.2513 18.4288ZM12.4222 23.2945L11.5365 23.1244L11.0667 22.9691L11.7759 23.9254L12.7574 24.8254L13.9815 25.6562L13.2615 24.7359L12.4222 23.2945Z" fill="#1B2268"/>
<path d="M10.2917 16.5869L11.4812 18.427L11.3988 15.3934L10.2917 16.5869Z" fill="#212A81"/>
<path d="M10.2512 18.4287L11.0023 20.2976L11.4811 18.4269L10.2512 18.4287Z" fill="#21267A"/>
<path d="M11.0022 20.2976L11.481 18.4269L12.0755 19.9052L11.0022 20.2976Z" fill="#262781"/>
<path d="M11.5928 21.6757L13.8735 23.0892L12.0756 19.9053L11.5928 21.6757Z" fill="#272379"/>
<path d="M11.0665 22.969L11.5377 23.1242L10.7515 21.5573L11.0665 22.969ZM16.104 23.7822L15.384 25.2888L17.9896 25.5233L16.104 23.7822ZM11.5926 21.6756L12.4219 23.2957L13.2594 24.7358L13.8827 24.1359L13.8733 23.0909L11.5926 21.6756Z" fill="#1E226D"/>
<path d="M22.1647 24.0111L22.0526 25.4422L22.9792 24.7222L22.1647 24.0111ZM18.177 23.8055L17.9875 25.5232L20.2021 24.9287L20.1234 22.9977L18.177 23.8055Z" fill="#222475"/>
<path d="M10.2512 18.4288H11.4811L10.2917 16.5886L10.2512 18.4288ZM20.1234 22.9978L20.2021 24.9289L22.1647 24.0113L20.1234 22.9978Z" fill="#23277D"/>
<path d="M20.1233 22.9978L21.3865 21.8539L22.1646 24.0113L20.1233 22.9978Z" fill="#1E2776"/>
<path d="M22.1646 24.0113L23.1195 21.119L21.3865 21.8539L22.1646 24.0113Z" fill="#222B86"/>
<path d="M24.1325 22.7035L22.1646 24.0113L23.1195 21.119L24.1325 22.7035Z" fill="#192974"/>
<path d="M25.0939 21.4093L23.1196 21.119L24.1326 22.7035L25.1006 22.5186L25.0939 21.4093Z" fill="#172A75"/>
<path d="M25.2311 19.8548L23.1196 21.1189L25.0939 21.4092L26.2059 19.5398L25.2311 19.8548Z" fill="#172D7D"/>
<path d="M10.4837 14.9005L11.3869 13.041L10.1719 15.0166L10.4837 14.9005ZM24.4434 17.2024L25.231 19.8543L25.816 18.1803L24.4434 17.2024Z" fill="#18338A"/>
<path d="M25.8175 18.1807L25.2716 16.0868L24.4436 17.2028L25.8175 18.1807Z" fill="#153791"/>
<path d="M23.1196 21.1189L25.2311 19.8548L23.1849 18.944L23.1196 21.1189Z" fill="#1B318B"/>
<path d="M23.1195 21.119L21.2061 19.1857L21.3865 21.8538L23.1195 21.119Z" fill="#242D8D"/>
<path d="M20.1234 22.9979L18.6541 21.6969L21.3866 21.854L20.1234 22.9979Z" fill="#2A2B8F"/>
<path d="M11.5926 21.6757L12.0755 19.9053L11.0022 20.2977L11.5926 21.6757ZM18.6539 21.6959L18.1769 23.8056L20.1223 22.9978L18.6539 21.6959Z" fill="#27267F"/>
<path d="M15.6126 22.1283L14.1987 21.4092L13.8733 23.0891L16.1027 23.7821L18.1778 23.8055L15.6126 22.1283Z" fill="#2D2381"/>
<path d="M18.1779 23.8057L18.654 21.6969L15.6128 22.1285L18.1779 23.8057Z" fill="#2F2485"/>
<path d="M11.481 18.427L12.0908 16.4793L11.3987 15.3934L11.481 18.427Z" fill="#233196"/>
<path d="M12.7361 14.8222L15.4137 14.0419L13.9993 16.9315L12.7361 14.8222Z" fill="#293CB7"/>
<path d="M23.1195 21.1189L21.2061 19.1856L23.1848 18.944L23.1195 21.1189Z" fill="#25339C"/>
<path d="M25.2311 19.8547L24.4435 17.2028L23.1848 18.9439L25.2311 19.8547Z" fill="#19348F"/>
<path d="M21.3865 21.8538L19.198 19.7378L21.206 19.1857L21.3865 21.8538Z" fill="#2A309A"/>
<path d="M18.6541 21.6967L21.3866 21.8538L19.1981 19.7378L18.6541 21.6967Z" fill="#302B96"/>
<path d="M18.654 21.6967L17.1577 20.4781L19.1981 19.7378L18.654 21.6967Z" fill="#3630A7"/>
<path d="M12.5408 11.9398L12.706 11.5695L11.387 13.0415L12.5408 11.9398ZM23.9471 15.0828L24.4421 17.2028L25.2701 16.0868L23.9471 15.0828Z" fill="#173DA2"/>
<path d="M12.7362 14.8221L13.9994 16.9314L12.0908 16.4791L12.7362 14.8221Z" fill="#2A36A8"/>
<path d="M12.0908 16.4791L13.9994 16.9314L12.7087 18.9641L12.0908 16.4791Z" fill="#312E9F"/>
<path d="M15.4138 14.0419L16.4709 11.8917L14.5349 12.8503L15.4138 14.0419Z" fill="#184DCD"/>
<path d="M11.481 18.4269L12.7086 18.9642L12.0754 19.9052L11.481 18.4269Z" fill="#272986"/>
<path d="M12.7086 18.9642L12.0754 19.9052L13.8733 23.0891L14.1986 21.4092L12.7086 18.9642Z" fill="#2C2584"/>
<path d="M14.1988 21.4092L14.3977 18.4512L12.7087 18.9642L14.1988 21.4092Z" fill="#32268B"/>
<path d="M14.1987 21.4092L17.1576 20.4781L14.3976 18.4512L14.1987 21.4092Z" fill="#372999"/>
<path d="M17.1577 20.4782L16.8692 18.1912L14.3977 18.4513L17.1577 20.4782Z" fill="#392DA5"/>
<path d="M16.8691 18.1911L18.9563 17.4108L19.198 19.7378L16.8691 18.1911Z" fill="#3338BC"/>
<path d="M15.6128 22.1284L18.654 21.6968L17.1577 20.4781L15.6128 22.1284Z" fill="#362896"/>
<path d="M15.6127 22.1284L14.1987 21.4092L17.1576 20.4781L15.6127 22.1284Z" fill="#35268F"/>
<path d="M15.4138 14.0419L17.2261 14.2336L16.4709 11.8917L15.4138 14.0419Z" fill="#2648D3"/>
<path d="M18.1599 12.5767L16.4709 11.8917L17.2261 14.2336L18.1599 12.5767Z" fill="#1057DC"/>
<path d="M18.1599 12.5765L19.9586 13.8091L17.2261 14.2335L18.1599 12.5765Z" fill="#1653DA"/>
<path d="M17.2261 14.2335L19.9064 15.6551L18.9564 17.4107L17.2261 14.2335Z" fill="#2B46D5"/>
<path d="M19.9064 15.6552L19.9586 13.8092L17.2261 14.2336L19.9064 15.6552Z" fill="#244AD7"/>
<path d="M19.9065 15.6552L19.9587 13.8092L21.8519 14.7363L19.9065 15.6552Z" fill="#2547CF"/>
<path d="M17.226 14.2335L18.9564 17.4107L15.9219 15.8905L17.226 14.2335Z" fill="#333CC5"/>
<path d="M16.8692 18.1911L18.9564 17.4108L15.9219 15.8906L16.8692 18.1911Z" fill="#3833B6"/>
<path d="M18.9563 17.4108L21.6326 16.9216L19.9063 15.6553L18.9563 17.4108Z" fill="#2A41C6"/>
<path d="M21.8519 14.7362L21.6328 16.9215L19.9065 15.6552L21.8519 14.7362Z" fill="#2045C1"/>
<path d="M21.8517 14.7363L23.1149 16.4523L21.6326 16.9216L21.8517 14.7363Z" fill="#1B43B7"/>
<path d="M23.9471 15.0828L21.8518 14.7363L23.115 16.4523L23.9471 15.0828Z" fill="#1742AF"/>
<path d="M13.2716 12.64L14.0816 10.8849L12.5435 11.9375L13.2716 12.64ZM23.9493 15.0827L23.1172 16.4521L24.4456 17.2027L23.9493 15.0827Z" fill="#1740A9"/>
<path d="M23.1847 18.944L24.4435 17.2029L23.115 16.4523L23.1847 18.944Z" fill="#1B3CA4"/>
<path d="M23.1847 18.944L23.1149 16.4523L21.6326 16.9216L23.1847 18.944Z" fill="#1F3DAD"/>
<path d="M12.7361 14.8222L15.4137 14.0419L14.5348 12.8502L12.7361 14.8222ZM18.9563 17.4107L21.2064 19.1856L21.633 16.9216L18.9563 17.4107Z" fill="#2543C3"/>
<path d="M19.198 19.7378L21.206 19.1857L18.9563 17.4108L19.198 19.7378Z" fill="#2E37B2"/>
<path d="M15.4138 14.0419L15.9219 15.8906L17.2261 14.2336L15.4138 14.0419Z" fill="#2D40C7"/>
<path d="M15.4139 14.0419L13.9995 16.9315L15.922 15.8906L15.4139 14.0419Z" fill="#3537B8"/>
<path d="M15.9219 15.8906L14.3977 18.4513L16.8692 18.1911L15.9219 15.8906Z" fill="#3931B0"/>
<path d="M16.8692 18.1911L17.1577 20.4781L19.1981 19.7379L16.8692 18.1911ZM14.3968 18.4513L15.921 15.8906L13.9985 16.9315L14.3968 18.4513Z" fill="#3735B8"/>
<path d="M12.7087 18.9643L13.9994 16.9315L14.3977 18.4512L12.7087 18.9643Z" fill="#342892"/>
<path d="M13.9814 25.6561L15.3481 26.0836L13.2595 24.7358L13.9814 25.6561ZM13.8828 24.1359L15.3827 25.2907L16.1028 23.784L13.8734 23.0909L13.8828 24.1359ZM17.9884 25.5251L18.1778 23.8074L16.1028 23.784L17.9884 25.5251ZM20.202 24.9288L19.5945 26.359L22.0525 25.4423L20.202 24.9288Z" fill="#232372"/>
<path d="M11.481 18.4268L12.0907 16.4791L12.7086 18.9641L11.481 18.4268Z" fill="#2A2F96"/>
<path d="M12.0909 16.4791L12.7362 14.8221L11.3992 15.3955L12.0909 16.4791ZM21.6313 16.9215L21.2047 19.1856L23.1848 18.9439L21.6313 16.9215Z" fill="#2636A5"/>
<path d="M26.5807 19.0772V19.0736L26.5024 16.4932V16.4842L26.1144 15.1967V15.194L25.0047 13.0996L23.7257 11.7477H23.723L22.3757 10.786H22.3703L21.2002 10.327H21.1921L19.788 9.82745H19.7786L17.4668 9.6803H17.4569L15.9988 9.94356H15.9934L14.8049 10.309H14.7973L12.6867 11.5366L11.3681 13.0078L10.1531 14.9829V14.9879L9.67423 16.6691V16.6754L9.58423 19.2266V19.2388L10.0401 20.9768V20.9826L11.0459 22.9627V22.9658L11.7416 23.946V23.9482L12.7227 24.8483H12.7254L13.9508 25.6772H13.9535L15.4647 26.3343H15.4741L18.0028 26.6308H18.0064L19.3268 26.6677H19.3371L21.2911 26.1169H21.2979L23.0439 25.1584L23.0471 25.1561H23.0493L24.1744 24.1976L25.0456 23.1576L25.0488 23.1531L26.2809 20.7409V20.7315L26.551 19.0822V19.0781L26.5807 19.0772ZM12.7798 24.7952L12.5256 24.5621L13.0971 25.0098L12.7798 24.7952ZM16.4889 25.7641L15.5956 25.3465L17.7107 25.5368L16.4889 25.7641ZM16.8143 18.1587L14.4697 18.4053L15.9156 15.9752L16.8143 18.1587ZM15.9961 15.9703L18.861 17.4054L16.8903 18.1407L15.9961 15.9703ZM16.8359 18.233L17.1086 20.3931L14.4985 18.4773L16.8359 18.233ZM17.0744 20.4642L14.2393 21.3561L14.4296 18.521L17.0744 20.4642ZM16.9169 18.269L19.1134 19.7275L17.1892 20.4259L16.9169 18.269ZM16.952 18.2006L18.9231 17.4634L19.1512 19.6613L16.952 18.2006ZM19.9802 15.662L21.8068 14.7997L21.6007 16.8514L19.9802 15.662ZM21.5382 16.9L19.027 17.359L19.919 15.7106L21.5382 16.9ZM18.9555 17.3307L17.3219 14.3268L19.856 15.6705L18.9555 17.3307ZM18.8655 17.3221L15.9817 15.8776L17.2211 14.3025L18.8655 17.3221ZM14.4125 18.3536L14.0448 16.9504L15.8193 15.9901L14.4125 18.3536ZM14.1695 21.2868L12.7672 18.9868L14.3558 18.5039L14.1695 21.2868ZM17.0312 20.5582L15.6055 22.0811L14.3005 21.4178L17.0312 20.5582ZM19.1422 19.799L18.6337 21.6306L17.2319 20.4912L19.1422 19.799ZM19.0045 17.4967L21.1241 19.1686L19.2341 19.6892L19.0045 17.4967ZM19.0468 17.4328L21.5854 16.9693L21.1804 19.1164L19.0468 17.4328ZM21.6772 16.8681L21.8806 14.8389L23.0534 16.432L21.6772 16.8681ZM23.079 16.5035L23.1438 18.827L21.6966 16.9419L23.079 16.5035ZM19.9473 15.594L19.9959 13.8696L21.765 14.7358L19.9473 15.594ZM19.8708 15.594L17.3462 14.2548L19.9199 13.8552L19.8708 15.594ZM15.9394 15.8087L15.4665 14.0869L17.1545 14.2669L15.9394 15.8087ZM15.8778 15.8731L14.0862 16.841L15.4039 14.1495L15.8778 15.8731ZM14.3518 18.4256L12.7969 18.8981L13.9854 17.0256L14.3518 18.4256ZM14.0705 21.2711L12.1282 19.8958L12.7074 19.0358L14.0705 21.2711ZM14.2271 21.4664L15.5322 22.1297L13.9274 23.0163L14.2271 21.4664ZM17.1617 20.5303L18.5631 21.6716L15.7153 22.0766L17.1617 20.5303ZM19.2183 19.8103L21.2884 21.8102L18.7057 21.6621L19.2183 19.8103ZM19.2732 19.7572L21.1714 19.2352L21.342 21.758L19.2732 19.7572ZM21.6547 17.0121L23.1141 18.9134L21.2537 19.1384L21.6547 17.0121ZM23.1555 16.517L24.3873 17.215L23.2172 18.8301L23.1555 16.517ZM23.1686 16.4369L23.9336 15.1809L24.3873 17.1268L23.1686 16.4369ZM23.1123 16.382L21.9387 14.788L23.8859 15.1098L23.1123 16.382ZM20.0265 13.798L21.405 12.5501L21.8005 14.6674L20.0265 13.798ZM17.2985 14.1823L18.1733 12.6302L19.8582 13.7849L17.2985 14.1823ZM15.4723 14.0095L16.4624 11.9934L17.1707 14.1895L15.4723 14.0095ZM13.9962 16.8514L12.7947 14.8452L15.3414 14.1027L13.9962 16.8514ZM12.7245 18.8688L12.1431 16.531L13.9386 16.9563L12.7245 18.8688ZM12.0841 19.8238L11.5513 18.5007L12.6516 18.9823L12.0841 19.8238ZM14.1565 21.4259L13.8567 22.9798L12.1917 20.0349L14.1565 21.4259ZM15.5898 22.1842L16.0456 23.7241L13.9701 23.0788L15.5898 22.1842ZM18.6049 21.7418L18.1526 23.7435L15.7185 22.1513L18.6049 21.7418ZM21.2934 21.8862L20.1233 22.946L18.762 21.7409L21.2934 21.8862ZM21.251 19.2847L23.0511 21.1055L21.4189 21.7976L21.251 19.2847ZM21.288 19.2136L23.1452 18.9886L23.0822 21.029L21.288 19.2136ZM24.4291 17.2879L25.1707 19.786L23.2428 18.9283L24.4291 17.2879ZM24.0083 15.1764L25.2184 16.094L24.462 17.1138L24.0083 15.1764ZM21.9256 14.7097L23.0507 13.4231L23.8801 15.0324L21.9256 14.7097ZM21.8748 14.6517L21.4819 12.5487L22.9967 13.3664L21.8748 14.6517ZM19.9554 13.7606L18.2778 12.6113L21.3271 12.5186L19.9554 13.7606ZM17.236 14.1387L16.5326 11.9579L18.1054 12.5955L17.236 14.1387ZM15.4071 13.9686L14.593 12.8642L16.3872 11.9754L15.4071 13.9686ZM15.3508 14.0208L12.8559 14.748L14.5318 12.9106L15.3508 14.0208ZM13.9202 16.8735L12.1426 16.4522L12.7438 14.9091L13.9202 16.8735ZM12.6529 18.8986L11.5279 18.4058L12.0873 16.6205L12.6529 18.8986ZM12.0256 19.8827L11.0576 20.2369L11.4892 18.5493L12.0256 19.8827ZM13.7667 22.978L11.6372 21.6581L12.0873 20.0047L13.7667 22.978ZM15.9354 23.77L13.9206 24.0896L13.9121 23.1409L15.9354 23.77ZM15.6789 22.217L18.0478 23.766L16.1311 23.7444L15.6789 22.217ZM18.6774 21.767L20.0522 22.9847L18.2314 23.7408L18.6774 21.767ZM21.3721 21.9209L22.0989 23.9352L20.1926 22.9901L21.3721 21.9209ZM21.4369 21.8759L23.057 21.1883L22.1632 23.8951L21.4369 21.8759ZM23.2235 19.003L25.1509 19.8607L23.1623 21.0515L23.2235 19.003ZM24.5137 17.2992L25.7738 18.1961L25.2337 19.732L24.5137 17.2992ZM24.4998 17.1952L25.2571 16.1746L25.7562 18.0899L24.4998 17.1952ZM23.9939 15.0693L24.3423 13.978L25.1797 15.9707L23.9939 15.0693ZM23.9413 14.9843L23.1375 13.429L24.2914 13.8903L23.9413 14.9843ZM21.5665 12.5091L23.2446 12.3993L23.0331 13.2994L21.5665 12.5091ZM18.244 12.5384L19.4253 11.0727L21.319 12.4448L18.244 12.5384ZM18.1742 12.5033L17.5658 10.9098L19.3434 11.0529L18.1742 12.5033ZM18.095 12.5105L16.5411 11.8805L17.4938 10.9354L18.095 12.5105ZM14.6038 12.7773L15.2721 10.8495L16.4066 11.8845L14.6038 12.7773ZM12.8113 14.6886L13.3005 12.6855L14.462 12.8786L12.8113 14.6886ZM12.085 16.3987L11.4577 15.4136L12.67 14.8961L12.085 16.3987ZM12.0517 16.4887L11.5153 18.1988L11.4433 15.5319L12.0517 16.4887ZM11.4338 18.4688L10.9964 20.1789L10.3101 18.4688H11.4338ZM10.2926 18.3941L10.329 16.7159L11.4131 18.3927L10.2926 18.3941ZM12.0215 19.9692L11.5846 21.5609L11.0536 20.3202L12.0215 19.9692ZM13.7658 23.0689L12.4459 23.2557L11.6917 21.7832L13.7658 23.0689ZM13.8378 23.1355L13.8464 24.0707L12.5413 23.3196L13.8378 23.1355ZM16.0389 23.8339L15.3688 25.2299L13.9764 24.158L16.0389 23.8339ZM16.1172 23.8479L17.8804 25.4761L15.4408 25.2565L16.1172 23.8479ZM16.2036 23.824L18.1387 23.8461L17.9623 25.4468L16.2036 23.824ZM20.0895 23.059L20.1633 24.8672L18.267 23.811L20.0895 23.059ZM20.1665 23.0658L22.0791 24.0153L20.2403 24.8748L20.1665 23.0658ZM23.133 21.2126L24.0826 22.6976L22.2375 23.9235L23.133 21.2126ZM23.1992 21.1739L25.0272 21.4439L24.1348 22.6364L23.1992 21.1739ZM23.2329 21.1019L25.1887 19.9318L25.0614 21.3719L23.2329 21.1019ZM25.8161 18.3117L26.1612 19.52L25.2949 19.7999L25.8161 18.3117ZM25.3544 16.2506L26.3444 17.4981L25.8359 18.0984L25.3544 16.2506ZM24.4273 13.9785L25.7139 14.9208L25.2715 15.986L24.4273 13.9785ZM23.1015 13.3309L23.309 12.4466L24.2351 13.784L23.1015 13.3309ZM21.4621 12.4371L21.2371 11.0871L23.1722 12.3264L21.4621 12.4371ZM21.3771 12.3921L19.532 11.056L21.152 11.0457L21.3771 12.3921ZM17.6261 10.836L18.8299 10.097L19.347 10.9746L17.6261 10.836ZM16.47 11.8404L15.3553 10.8234L17.4169 10.9008L16.47 11.8404ZM14.5093 12.8075L13.3518 12.6149L15.1659 10.9138L14.5093 12.8075ZM12.7137 14.7547L11.5292 13.793L13.2101 12.7229L12.7137 14.7547ZM12.6633 14.8123L11.4397 15.3344L11.4991 13.8669L12.6633 14.8123ZM11.4392 18.2919L10.3398 16.5913L11.3632 15.4878L11.4392 18.2919ZM10.9626 20.3008L10.7543 21.3413L10.3425 18.7577L10.9626 20.3008ZM11.0157 20.425L11.531 21.6279L10.7966 21.5253L11.0157 20.425ZM12.3523 23.2417L11.5756 23.091L11.6251 21.821L12.3523 23.2417ZM13.8198 24.1418L13.2681 24.6723L12.5269 23.3983L13.8198 24.1418ZM13.8855 24.1841L15.2109 25.2061L13.3347 24.7155L13.8855 24.1841ZM18.2094 23.8663L20.0994 24.9158L18.0293 25.4716L18.2094 23.8663ZM22.1214 24.0729L22.0179 25.3928L20.3119 24.9189L22.1214 24.0729ZM24.0196 22.8241L22.9692 24.666L22.2271 24.0153L24.0196 22.8241ZM25.0546 21.5235L25.06 22.4866L24.2198 22.6472L25.0546 21.5235ZM25.2652 19.8832L26.1203 19.6069L25.1464 21.2459L25.2652 19.8832ZM25.8579 18.1893L26.3431 17.6173L26.1873 19.3333L25.8579 18.1893ZM25.3138 16.0805L25.7495 15.0315L26.3138 17.3397L25.3138 16.0805ZM24.3873 13.8574L24.6933 13.3232L25.6154 14.757L24.3873 13.8574ZM24.3342 13.7966L23.4287 12.4916L24.6402 13.2638L24.3342 13.7966ZM21.297 11.034L22.2132 10.9363L23.1402 12.2148L21.297 11.034ZM19.4361 10.98L18.9316 10.1227L20.9945 10.9705L19.4361 10.98ZM17.5181 10.8117L17.1131 10.0997L18.7053 10.0835L17.5181 10.8117ZM17.4371 10.8238L15.4318 10.7487L17.0298 10.1101L17.4371 10.8238ZM13.3869 12.4781L14.107 10.9233L15.1483 10.8283L13.3869 12.4781ZM13.2578 12.5753L12.6016 11.9453L13.9868 10.9975L13.2578 12.5753ZM13.2087 12.6338L11.5765 13.6729L12.5517 12.0011L13.2087 12.6338ZM11.3636 15.3308L10.5446 14.8902L11.4221 13.8952L11.3636 15.3308ZM11.338 15.4032L10.3425 16.4756L10.5153 14.9613L11.338 15.4032ZM10.2116 18.4107L9.79079 18.7545L10.244 16.9297L10.2116 18.4107ZM10.2219 18.5007L10.6512 21.1946L9.77144 18.8697L10.2219 18.5007ZM11.5513 21.7089L11.5022 22.9748L10.8164 21.6059L11.5513 21.7089ZM12.396 23.329L13.0962 24.531L11.6588 23.1882L12.396 23.329ZM15.3418 25.3181L15.3117 26.0134L13.4792 24.8312L15.3418 25.3181ZM15.417 25.3478L16.3683 25.7924L15.3873 26.0323L15.417 25.3478ZM17.9501 25.5692L17.9798 26.5444L16.5978 25.8212L17.9501 25.5692ZM20.135 24.9842L19.5743 26.3041L18.0919 25.5332L20.135 24.9842ZM20.225 24.9725L21.9301 25.4459L19.6656 26.2906L20.225 24.9725ZM22.1979 24.0882L22.9202 24.7182L22.0971 25.3591L22.1979 24.0882ZM24.1582 22.7359L24.9907 22.5766L23.1654 24.4739L24.1582 22.7359ZM25.1388 22.3678L25.1329 21.4286L25.9011 20.9592L25.1388 22.3678ZM25.2063 21.2945L26.1378 19.7293L25.9664 20.8314L25.2063 21.2945ZM26.3953 17.9103L26.5042 19.0624L26.2575 19.403L26.3953 17.9103ZM25.8273 15.0252L26.0402 15.225L26.2535 16.7686L25.8273 15.0252ZM24.7473 13.2647L24.9475 13.1639L25.5272 14.4775L24.7473 13.2647ZM23.3446 12.3449L23.6965 11.8413L24.5578 13.1189L23.3446 12.3449ZM23.2897 12.29L22.3725 11.0245L23.6425 11.7855L23.2897 12.29ZM21.2236 10.9651L21.2177 10.4152L22.1016 10.8715L21.2236 10.9651ZM21.1471 10.9503L19.1269 10.1204L21.1412 10.3855L21.1471 10.9503ZM17.1513 10.0228L17.4731 9.7469L18.5392 10.0093L17.1513 10.0228ZM15.3963 10.6816L16.0213 10.0066L16.8863 10.0844L15.3963 10.6816ZM15.2347 10.7437L14.2897 10.8297L15.8445 10.0889L15.2347 10.7437ZM12.6309 11.8319L12.7353 11.5974L13.6043 11.1658L12.6309 11.8319ZM11.4901 13.6688L11.4266 13.0555L12.3717 12.1554L11.4901 13.6688ZM11.4244 13.7768L10.6404 14.6656L11.3627 13.1806L11.4244 13.7768ZM10.2566 16.5544L9.75614 16.6475L10.4172 15.1467L10.2566 16.5544ZM10.2399 16.6354L9.76154 18.5637L9.73094 16.7299L10.2399 16.6354ZM10.6616 21.4367L10.0928 20.9687L9.82004 19.2136L10.6616 21.4367ZM11.459 23.0568L11.0959 22.9375L10.8528 21.8489L11.459 23.0568ZM13.012 24.5544L11.8069 23.901L11.6129 23.2494L13.012 24.5544ZM13.2326 24.7614L13.755 25.4275L12.1575 24.176L13.2326 24.7614ZM13.4279 24.887L15.0898 25.9594L14.0021 25.6192L13.4279 24.887ZM16.4768 25.8419L17.7683 26.517L15.5232 26.0746L16.4768 25.8419ZM18.0271 25.585L19.4726 26.337L18.0563 26.562L18.0271 25.585ZM21.8649 25.5499L21.2799 26.0566L19.959 26.2614L21.8649 25.5499ZM22.9494 24.7911L22.9985 25.1062L22.2397 25.3406L22.9494 24.7911ZM24.9183 22.7588L24.1397 24.1476L23.1465 24.6044L24.9183 22.7588ZM25.1361 22.5275L25.6586 21.5622L25.1001 22.8866L25.1361 22.5275ZM26.2404 19.5529L26.4376 19.2802L26.1225 20.3233L26.2404 19.5529ZM26.4304 17.4954L26.4277 17.4751L26.4475 17.2168L26.4673 17.886L26.4304 17.4954ZM26.3777 17.1151L26.1806 15.6849L26.425 16.495L26.3777 17.1151ZM25.7927 14.8848L25.4327 14.068L25.9367 15.0198L25.7927 14.8848ZM24.7063 13.1981L23.9863 12.1311L24.9043 13.0987L24.7063 13.1981ZM22.3023 10.8954L22.3505 10.8607L22.9022 11.2554L22.3023 10.8954ZM22.2294 10.8535L21.8554 10.6604L22.2713 10.8238L22.2294 10.8535ZM19.072 10.0358L19.7732 9.89181L20.828 10.2671L19.072 10.0358ZM18.8434 10.0052L17.8889 9.7703L19.4892 9.87201L18.8434 10.0052ZM17.0352 10.0228L16.2909 9.95571L17.3327 9.7676L17.0352 10.0228ZM14.4085 10.6879L14.8342 10.3688L15.5209 10.1573L14.4085 10.6879ZM14.0588 10.8544L13.6893 11.038L14.2573 10.7059L14.0588 10.8544ZM12.5089 11.9174L12.0706 12.3359L12.5715 11.777L12.5089 11.9174ZM10.4559 14.8709L10.2611 14.9429L11.0184 13.7129L10.4559 14.8709ZM10.2021 15.0459L10.4123 14.9681L9.88079 16.1755L10.2021 15.0459ZM9.67873 18.1794L9.68953 18.8513L9.65083 18.9737L9.67873 18.1794ZM9.71519 19.0232L9.90689 20.2585L9.64273 19.2505L9.71519 19.0232ZM10.7156 21.5784L10.9617 22.681L10.1756 21.1343L10.7156 21.5784ZM11.5054 23.1535L11.6764 23.7286L11.1674 23.0424L11.5054 23.1535ZM15.3234 26.1133L15.3945 26.2272L14.6474 25.9022L15.3234 26.1133ZM15.5151 26.2753L15.4251 26.1358L17.0501 26.4558L15.5151 26.2753ZM19.496 26.4103L19.325 26.6038L18.433 26.5791L19.496 26.4103ZM19.6143 26.3919L20.6777 26.2267L19.4564 26.5705L19.6143 26.3919ZM22.0714 25.4734L22.6952 25.2808L21.5971 25.8869L22.0714 25.4734ZM23.0705 25.0598L23.0214 24.7448L23.9327 24.3258L23.0705 25.0598ZM25.0443 22.6936L25.0015 23.1189L24.4021 23.8339L25.0443 22.6936ZM26.0312 20.88L26.1851 20.8057L25.4799 22.1909L26.0312 20.88ZM26.2359 20.6964L26.0631 20.7801L26.4106 19.637L26.2359 20.6964Z" fill="url(#paint0_radial_202_10018)"/>
<path d="M26.5807 19.0772V19.0736L26.5024 16.4932V16.4842L26.1144 15.1967V15.194L25.0047 13.0996L23.7257 11.7477H23.723L22.3757 10.786H22.3703L21.2002 10.327H21.1921L19.788 9.82745H19.7786L17.4668 9.6803H17.4569L15.9988 9.94356H15.9934L14.8049 10.309H14.7973L12.6867 11.5366L11.3681 13.0078L10.1531 14.9829V14.9879L9.67423 16.6691V16.6754L9.58423 19.2266V19.2388L10.0401 20.9768V20.9826L11.0459 22.9627V22.9658L11.7416 23.946V23.9482L12.7227 24.8483H12.7254L13.9508 25.6772H13.9535L15.4647 26.3343H15.4741L18.0028 26.6308H18.0064L19.3268 26.6677H19.3371L21.2911 26.1169H21.2979L23.0439 25.1584L23.0471 25.1561H23.0493L24.1744 24.1976L25.0456 23.1576L25.0488 23.1531L26.2809 20.7409V20.7315L26.551 19.0822V19.0781L26.5807 19.0772ZM12.7798 24.7952L12.5256 24.5621L13.0971 25.0098L12.7798 24.7952ZM16.4889 25.7641L15.5956 25.3465L17.7107 25.5368L16.4889 25.7641ZM16.8143 18.1587L14.4697 18.4053L15.9156 15.9752L16.8143 18.1587ZM15.9961 15.9703L18.861 17.4054L16.8903 18.1407L15.9961 15.9703ZM16.8359 18.233L17.1086 20.3931L14.4985 18.4773L16.8359 18.233ZM17.0744 20.4642L14.2393 21.3561L14.4296 18.521L17.0744 20.4642ZM16.9169 18.269L19.1134 19.7275L17.1892 20.4259L16.9169 18.269ZM16.952 18.2006L18.9231 17.4634L19.1512 19.6613L16.952 18.2006ZM19.9802 15.662L21.8068 14.7997L21.6007 16.8514L19.9802 15.662ZM21.5382 16.9L19.027 17.359L19.919 15.7106L21.5382 16.9ZM18.9555 17.3307L17.3219 14.3268L19.856 15.6705L18.9555 17.3307ZM18.8655 17.3221L15.9817 15.8776L17.2211 14.3025L18.8655 17.3221ZM14.4125 18.3536L14.0448 16.9504L15.8193 15.9901L14.4125 18.3536ZM14.1695 21.2868L12.7672 18.9868L14.3558 18.5039L14.1695 21.2868ZM17.0312 20.5582L15.6055 22.0811L14.3005 21.4178L17.0312 20.5582ZM19.1422 19.799L18.6337 21.6306L17.2319 20.4912L19.1422 19.799ZM19.0045 17.4967L21.1241 19.1686L19.2341 19.6892L19.0045 17.4967ZM19.0468 17.4328L21.5854 16.9693L21.1804 19.1164L19.0468 17.4328ZM21.6772 16.8681L21.8806 14.8389L23.0534 16.432L21.6772 16.8681ZM23.079 16.5035L23.1438 18.827L21.6966 16.9419L23.079 16.5035ZM19.9473 15.594L19.9959 13.8696L21.765 14.7358L19.9473 15.594ZM19.8708 15.594L17.3462 14.2548L19.9199 13.8552L19.8708 15.594ZM15.9394 15.8087L15.4665 14.0869L17.1545 14.2669L15.9394 15.8087ZM15.8778 15.8731L14.0862 16.841L15.4039 14.1495L15.8778 15.8731ZM14.3518 18.4256L12.7969 18.8981L13.9854 17.0256L14.3518 18.4256ZM14.0705 21.2711L12.1282 19.8958L12.7074 19.0358L14.0705 21.2711ZM14.2271 21.4664L15.5322 22.1297L13.9274 23.0163L14.2271 21.4664ZM17.1617 20.5303L18.5631 21.6716L15.7153 22.0766L17.1617 20.5303ZM19.2183 19.8103L21.2884 21.8102L18.7057 21.6621L19.2183 19.8103ZM19.2732 19.7572L21.1714 19.2352L21.342 21.758L19.2732 19.7572ZM21.6547 17.0121L23.1141 18.9134L21.2537 19.1384L21.6547 17.0121ZM23.1555 16.517L24.3873 17.215L23.2172 18.8301L23.1555 16.517ZM23.1686 16.4369L23.9336 15.1809L24.3873 17.1268L23.1686 16.4369ZM23.1123 16.382L21.9387 14.788L23.8859 15.1098L23.1123 16.382ZM20.0265 13.798L21.405 12.5501L21.8005 14.6674L20.0265 13.798ZM17.2985 14.1823L18.1733 12.6302L19.8582 13.7849L17.2985 14.1823ZM15.4723 14.0095L16.4624 11.9934L17.1707 14.1895L15.4723 14.0095ZM13.9962 16.8514L12.7947 14.8452L15.3414 14.1027L13.9962 16.8514ZM12.7245 18.8688L12.1431 16.531L13.9386 16.9563L12.7245 18.8688ZM12.0841 19.8238L11.5513 18.5007L12.6516 18.9823L12.0841 19.8238ZM14.1565 21.4259L13.8567 22.9798L12.1917 20.0349L14.1565 21.4259ZM15.5898 22.1842L16.0456 23.7241L13.9701 23.0788L15.5898 22.1842ZM18.6049 21.7418L18.1526 23.7435L15.7185 22.1513L18.6049 21.7418ZM21.2934 21.8862L20.1233 22.946L18.762 21.7409L21.2934 21.8862ZM21.251 19.2847L23.0511 21.1055L21.4189 21.7976L21.251 19.2847ZM21.288 19.2136L23.1452 18.9886L23.0822 21.029L21.288 19.2136ZM24.4291 17.2879L25.1707 19.786L23.2428 18.9283L24.4291 17.2879ZM24.0083 15.1764L25.2184 16.094L24.462 17.1138L24.0083 15.1764ZM21.9256 14.7097L23.0507 13.4231L23.8801 15.0324L21.9256 14.7097ZM21.8748 14.6517L21.4819 12.5487L22.9967 13.3664L21.8748 14.6517ZM19.9554 13.7606L18.2778 12.6113L21.3271 12.5186L19.9554 13.7606ZM17.236 14.1387L16.5326 11.9579L18.1054 12.5955L17.236 14.1387ZM15.4071 13.9686L14.593 12.8642L16.3872 11.9754L15.4071 13.9686ZM15.3508 14.0208L12.8559 14.748L14.5318 12.9106L15.3508 14.0208ZM13.9202 16.8735L12.1426 16.4522L12.7438 14.9091L13.9202 16.8735ZM12.6529 18.8986L11.5279 18.4058L12.0873 16.6205L12.6529 18.8986ZM12.0256 19.8827L11.0576 20.2369L11.4892 18.5493L12.0256 19.8827ZM13.7667 22.978L11.6372 21.6581L12.0873 20.0047L13.7667 22.978ZM15.9354 23.77L13.9206 24.0896L13.9121 23.1409L15.9354 23.77ZM15.6789 22.217L18.0478 23.766L16.1311 23.7444L15.6789 22.217ZM18.6774 21.767L20.0522 22.9847L18.2314 23.7408L18.6774 21.767ZM21.3721 21.9209L22.0989 23.9352L20.1926 22.9901L21.3721 21.9209ZM21.4369 21.8759L23.057 21.1883L22.1632 23.8951L21.4369 21.8759ZM23.2235 19.003L25.1509 19.8607L23.1623 21.0515L23.2235 19.003ZM24.5137 17.2992L25.7738 18.1961L25.2337 19.732L24.5137 17.2992ZM24.4998 17.1952L25.2571 16.1746L25.7562 18.0899L24.4998 17.1952ZM23.9939 15.0693L24.3423 13.978L25.1797 15.9707L23.9939 15.0693ZM23.9413 14.9843L23.1375 13.429L24.2914 13.8903L23.9413 14.9843ZM21.5665 12.5091L23.2446 12.3993L23.0331 13.2994L21.5665 12.5091ZM18.244 12.5384L19.4253 11.0727L21.319 12.4448L18.244 12.5384ZM18.1742 12.5033L17.5658 10.9098L19.3434 11.0529L18.1742 12.5033ZM18.095 12.5105L16.5411 11.8805L17.4938 10.9354L18.095 12.5105ZM14.6038 12.7773L15.2721 10.8495L16.4066 11.8845L14.6038 12.7773ZM12.8113 14.6886L13.3005 12.6855L14.462 12.8786L12.8113 14.6886ZM12.085 16.3987L11.4577 15.4136L12.67 14.8961L12.085 16.3987ZM12.0517 16.4887L11.5153 18.1988L11.4433 15.5319L12.0517 16.4887ZM11.4338 18.4688L10.9964 20.1789L10.3101 18.4688H11.4338ZM10.2926 18.3941L10.329 16.7159L11.4131 18.3927L10.2926 18.3941ZM12.0215 19.9692L11.5846 21.5609L11.0536 20.3202L12.0215 19.9692ZM13.7658 23.0689L12.4459 23.2557L11.6917 21.7832L13.7658 23.0689ZM13.8378 23.1355L13.8464 24.0707L12.5413 23.3196L13.8378 23.1355ZM16.0389 23.8339L15.3688 25.2299L13.9764 24.158L16.0389 23.8339ZM16.1172 23.8479L17.8804 25.4761L15.4408 25.2565L16.1172 23.8479ZM16.2036 23.824L18.1387 23.8461L17.9623 25.4468L16.2036 23.824ZM20.0895 23.059L20.1633 24.8672L18.267 23.811L20.0895 23.059ZM20.1665 23.0658L22.0791 24.0153L20.2403 24.8748L20.1665 23.0658ZM23.133 21.2126L24.0826 22.6976L22.2375 23.9235L23.133 21.2126ZM23.1992 21.1739L25.0272 21.4439L24.1348 22.6364L23.1992 21.1739ZM23.2329 21.1019L25.1887 19.9318L25.0614 21.3719L23.2329 21.1019ZM25.8161 18.3117L26.1612 19.52L25.2949 19.7999L25.8161 18.3117ZM25.3544 16.2506L26.3444 17.4981L25.8359 18.0984L25.3544 16.2506ZM24.4273 13.9785L25.7139 14.9208L25.2715 15.986L24.4273 13.9785ZM23.1015 13.3309L23.309 12.4466L24.2351 13.784L23.1015 13.3309ZM21.4621 12.4371L21.2371 11.0871L23.1722 12.3264L21.4621 12.4371ZM21.3771 12.3921L19.532 11.056L21.152 11.0457L21.3771 12.3921ZM17.6261 10.836L18.8299 10.097L19.347 10.9746L17.6261 10.836ZM16.47 11.8404L15.3553 10.8234L17.4169 10.9008L16.47 11.8404ZM14.5093 12.8075L13.3518 12.6149L15.1659 10.9138L14.5093 12.8075ZM12.7137 14.7547L11.5292 13.793L13.2101 12.7229L12.7137 14.7547ZM12.6633 14.8123L11.4397 15.3344L11.4991 13.8669L12.6633 14.8123ZM11.4392 18.2919L10.3398 16.5913L11.3632 15.4878L11.4392 18.2919ZM10.9626 20.3008L10.7543 21.3413L10.3425 18.7577L10.9626 20.3008ZM11.0157 20.425L11.531 21.6279L10.7966 21.5253L11.0157 20.425ZM12.3523 23.2417L11.5756 23.091L11.6251 21.821L12.3523 23.2417ZM13.8198 24.1418L13.2681 24.6723L12.5269 23.3983L13.8198 24.1418ZM13.8855 24.1841L15.2109 25.2061L13.3347 24.7155L13.8855 24.1841ZM18.2094 23.8663L20.0994 24.9158L18.0293 25.4716L18.2094 23.8663ZM22.1214 24.0729L22.0179 25.3928L20.3119 24.9189L22.1214 24.0729ZM24.0196 22.8241L22.9692 24.666L22.2271 24.0153L24.0196 22.8241ZM25.0546 21.5235L25.06 22.4866L24.2198 22.6472L25.0546 21.5235ZM25.2652 19.8832L26.1203 19.6069L25.1464 21.2459L25.2652 19.8832ZM25.8579 18.1893L26.3431 17.6173L26.1873 19.3333L25.8579 18.1893ZM25.3138 16.0805L25.7495 15.0315L26.3138 17.3397L25.3138 16.0805ZM24.3873 13.8574L24.6933 13.3232L25.6154 14.757L24.3873 13.8574ZM24.3342 13.7966L23.4287 12.4916L24.6402 13.2638L24.3342 13.7966ZM21.297 11.034L22.2132 10.9363L23.1402 12.2148L21.297 11.034ZM19.4361 10.98L18.9316 10.1227L20.9945 10.9705L19.4361 10.98ZM17.5181 10.8117L17.1131 10.0997L18.7053 10.0835L17.5181 10.8117ZM17.4371 10.8238L15.4318 10.7487L17.0298 10.1101L17.4371 10.8238ZM13.3869 12.4781L14.107 10.9233L15.1483 10.8283L13.3869 12.4781ZM13.2578 12.5753L12.6016 11.9453L13.9868 10.9975L13.2578 12.5753ZM13.2087 12.6338L11.5765 13.6729L12.5517 12.0011L13.2087 12.6338ZM11.3636 15.3308L10.5446 14.8902L11.4221 13.8952L11.3636 15.3308ZM11.338 15.4032L10.3425 16.4756L10.5153 14.9613L11.338 15.4032ZM10.2116 18.4107L9.79079 18.7545L10.244 16.9297L10.2116 18.4107ZM10.2219 18.5007L10.6512 21.1946L9.77144 18.8697L10.2219 18.5007ZM11.5513 21.7089L11.5022 22.9748L10.8164 21.6059L11.5513 21.7089ZM12.396 23.329L13.0962 24.531L11.6588 23.1882L12.396 23.329ZM15.3418 25.3181L15.3117 26.0134L13.4792 24.8312L15.3418 25.3181ZM15.417 25.3478L16.3683 25.7924L15.3873 26.0323L15.417 25.3478ZM17.9501 25.5692L17.9798 26.5444L16.5978 25.8212L17.9501 25.5692ZM20.135 24.9842L19.5743 26.3041L18.0919 25.5332L20.135 24.9842ZM20.225 24.9725L21.9301 25.4459L19.6656 26.2906L20.225 24.9725ZM22.1979 24.0882L22.9202 24.7182L22.0971 25.3591L22.1979 24.0882ZM24.1582 22.7359L24.9907 22.5766L23.1654 24.4739L24.1582 22.7359ZM25.1388 22.3678L25.1329 21.4286L25.9011 20.9592L25.1388 22.3678ZM25.2063 21.2945L26.1378 19.7293L25.9664 20.8314L25.2063 21.2945ZM26.3953 17.9103L26.5042 19.0624L26.2575 19.403L26.3953 17.9103ZM25.8273 15.0252L26.0402 15.225L26.2535 16.7686L25.8273 15.0252ZM24.7473 13.2647L24.9475 13.1639L25.5272 14.4775L24.7473 13.2647ZM23.3446 12.3449L23.6965 11.8413L24.5578 13.1189L23.3446 12.3449ZM23.2897 12.29L22.3725 11.0245L23.6425 11.7855L23.2897 12.29ZM21.2236 10.9651L21.2177 10.4152L22.1016 10.8715L21.2236 10.9651ZM21.1471 10.9503L19.1269 10.1204L21.1412 10.3855L21.1471 10.9503ZM17.1513 10.0228L17.4731 9.7469L18.5392 10.0093L17.1513 10.0228ZM15.3963 10.6816L16.0213 10.0066L16.8863 10.0844L15.3963 10.6816ZM15.2347 10.7437L14.2897 10.8297L15.8445 10.0889L15.2347 10.7437ZM12.6309 11.8319L12.7353 11.5974L13.6043 11.1658L12.6309 11.8319ZM11.4901 13.6688L11.4266 13.0555L12.3717 12.1554L11.4901 13.6688ZM11.4244 13.7768L10.6404 14.6656L11.3627 13.1806L11.4244 13.7768ZM10.2566 16.5544L9.75614 16.6475L10.4172 15.1467L10.2566 16.5544ZM10.2399 16.6354L9.76154 18.5637L9.73094 16.7299L10.2399 16.6354ZM10.6616 21.4367L10.0928 20.9687L9.82004 19.2136L10.6616 21.4367ZM11.459 23.0568L11.0959 22.9375L10.8528 21.8489L11.459 23.0568ZM13.012 24.5544L11.8069 23.901L11.6129 23.2494L13.012 24.5544ZM13.2326 24.7614L13.755 25.4275L12.1575 24.176L13.2326 24.7614ZM13.4279 24.887L15.0898 25.9594L14.0021 25.6192L13.4279 24.887ZM16.4768 25.8419L17.7683 26.517L15.5232 26.0746L16.4768 25.8419ZM18.0271 25.585L19.4726 26.337L18.0563 26.562L18.0271 25.585ZM21.8649 25.5499L21.2799 26.0566L19.959 26.2614L21.8649 25.5499ZM22.9494 24.7911L22.9985 25.1062L22.2397 25.3406L22.9494 24.7911ZM24.9183 22.7588L24.1397 24.1476L23.1465 24.6044L24.9183 22.7588ZM25.1361 22.5275L25.6586 21.5622L25.1001 22.8866L25.1361 22.5275ZM26.2404 19.5529L26.4376 19.2802L26.1225 20.3233L26.2404 19.5529ZM26.4304 17.4954L26.4277 17.4751L26.4475 17.2168L26.4673 17.886L26.4304 17.4954ZM26.3777 17.1151L26.1806 15.6849L26.425 16.495L26.3777 17.1151ZM25.7927 14.8848L25.4327 14.068L25.9367 15.0198L25.7927 14.8848ZM24.7063 13.1981L23.9863 12.1311L24.9043 13.0987L24.7063 13.1981ZM22.3023 10.8954L22.3505 10.8607L22.9022 11.2554L22.3023 10.8954ZM22.2294 10.8535L21.8554 10.6604L22.2713 10.8238L22.2294 10.8535ZM19.072 10.0358L19.7732 9.89181L20.828 10.2671L19.072 10.0358ZM18.8434 10.0052L17.8889 9.7703L19.4892 9.87201L18.8434 10.0052ZM17.0352 10.0228L16.2909 9.95571L17.3327 9.7676L17.0352 10.0228ZM14.4085 10.6879L14.8342 10.3688L15.5209 10.1573L14.4085 10.6879ZM14.0588 10.8544L13.6893 11.038L14.2573 10.7059L14.0588 10.8544ZM12.5089 11.9174L12.0706 12.3359L12.5715 11.777L12.5089 11.9174ZM10.4559 14.8709L10.2611 14.9429L11.0184 13.7129L10.4559 14.8709ZM10.2021 15.0459L10.4123 14.9681L9.88079 16.1755L10.2021 15.0459ZM9.67873 18.1794L9.68953 18.8513L9.65083 18.9737L9.67873 18.1794ZM9.71519 19.0232L9.90689 20.2585L9.64273 19.2505L9.71519 19.0232ZM10.7156 21.5784L10.9617 22.681L10.1756 21.1343L10.7156 21.5784ZM11.5054 23.1535L11.6764 23.7286L11.1674 23.0424L11.5054 23.1535ZM15.3234 26.1133L15.3945 26.2272L14.6474 25.9022L15.3234 26.1133ZM15.5151 26.2753L15.4251 26.1358L17.0501 26.4558L15.5151 26.2753ZM19.496 26.4103L19.325 26.6038L18.433 26.5791L19.496 26.4103ZM19.6143 26.3919L20.6777 26.2267L19.4564 26.5705L19.6143 26.3919ZM22.0714 25.4734L22.6952 25.2808L21.5971 25.8869L22.0714 25.4734ZM23.0705 25.0598L23.0214 24.7448L23.9327 24.3258L23.0705 25.0598ZM25.0443 22.6936L25.0015 23.1189L24.4021 23.8339L25.0443 22.6936ZM26.0312 20.88L26.1851 20.8057L25.4799 22.1909L26.0312 20.88ZM26.2359 20.6964L26.0631 20.7801L26.4106 19.637L26.2359 20.6964Z" fill="url(#paint1_radial_202_10018)"/>
<path d="M34.1794 12.0799C33.4207 10.2564 31.8843 8.28753 30.6764 7.6656C31.5357 9.32806 32.1316 11.1139 32.4428 12.9592C32.4428 12.9552 32.4428 12.9628 32.4455 12.9759L32.4486 12.9943C33.7948 16.841 33.6 21.0593 31.905 24.7655C29.9042 29.0551 25.0597 33.451 17.4768 33.2372C9.28554 33.0054 2.06853 26.9328 0.721167 18.9796C0.475905 17.7254 0.721167 17.0895 0.844473 16.0702C0.675533 16.8617 0.580917 17.6673 0.561859 18.4765V18.5665C0.571948 22.9351 2.21896 27.1413 5.17795 30.3553C8.13694 33.5692 12.193 35.5575 16.5459 35.9278C20.8988 36.2981 25.2325 35.0235 28.6918 32.3556C32.1512 29.6876 34.485 25.8201 35.2329 21.5159C35.2622 21.2909 35.286 21.0682 35.3121 20.8431C35.6723 17.8733 35.2829 14.8605 34.1794 12.0799Z" fill="url(#paint2_radial_202_10018)"/>
<path d="M34.1794 12.0799C33.4207 10.2564 31.8843 8.28753 30.6764 7.6656C31.5357 9.32806 32.1316 11.1139 32.4428 12.9592C32.4428 12.9552 32.4428 12.9628 32.4455 12.9759L32.4486 12.9943C33.7948 16.841 33.6 21.0593 31.905 24.7655C29.9042 29.0551 25.0597 33.451 17.4768 33.2372C9.28554 33.0054 2.06853 26.9328 0.721167 18.9796C0.475905 17.7254 0.721167 17.0895 0.844473 16.0702C0.675533 16.8617 0.580917 17.6673 0.561859 18.4765V18.5665C0.571948 22.9351 2.21896 27.1413 5.17795 30.3553C8.13694 33.5692 12.193 35.5575 16.5459 35.9278C20.8988 36.2981 25.2325 35.0235 28.6918 32.3556C32.1512 29.6876 34.485 25.8201 35.2329 21.5159C35.2622 21.2909 35.286 21.0682 35.3121 20.8431C35.6723 17.8733 35.2829 14.8605 34.1794 12.0799Z" fill="url(#paint3_radial_202_10018)"/>
<path d="M0.721167 18.9796C2.06853 26.9328 9.28553 33.0054 17.4786 33.2372C25.0615 33.4514 29.906 29.0551 31.9068 24.7655C33.6018 21.0593 33.7966 16.841 32.4504 12.9943V12.9777C32.4504 12.9646 32.4477 12.957 32.4477 12.961L32.4513 12.9903C33.0706 17.0301 31.0135 20.944 27.7976 23.5905L27.7877 23.613C21.518 28.7082 15.5219 26.6862 14.3069 25.8591C14.2216 25.8179 14.1368 25.7756 14.0526 25.7322C10.3993 23.9883 8.88997 20.6631 9.21353 17.8118C8.34653 17.8249 7.49433 17.5863 6.76015 17.125C6.02596 16.6636 5.44129 15.9993 5.07693 15.2125C6.0363 14.6257 7.12982 14.294 8.25352 14.249C9.37722 14.2041 10.4937 14.4473 11.4969 14.9555C13.565 15.8934 15.9177 15.9858 18.0529 15.2129C18.0466 15.0712 15.0076 13.8629 13.8227 12.6973C13.1895 12.074 12.8889 11.7738 12.6229 11.5484C12.4791 11.4268 12.3288 11.3129 12.1729 11.2073C12.0689 11.1366 11.9524 11.0601 11.8129 10.9683C10.5393 10.1412 8.00657 10.1871 7.92287 10.1889H7.91477C7.22218 9.31268 7.27124 6.42354 7.31084 5.82051C7.10547 5.90246 6.90937 6.00594 6.72581 6.12922C6.11505 6.56475 5.544 7.05342 5.01933 7.58955C4.42183 8.19497 3.87586 8.84917 3.3871 9.54534C2.26445 11.1339 1.468 12.9293 1.04383 14.8277C1.03573 14.8655 0.415602 17.5746 0.721167 18.9796Z" fill="url(#paint4_radial_202_10018)"/>
<path d="M24.1813 12.097C24.8182 12.7222 25.3636 13.4343 25.8013 14.2121C25.8922 14.2793 25.9797 14.3507 26.0637 14.4263C30.0239 18.0715 27.948 23.2238 27.7936 23.591C31.0094 20.9444 33.0665 17.0306 32.4473 12.9907C30.4726 8.07422 27.1249 6.09187 24.3919 1.77571C24.2507 1.55547 24.1136 1.33267 23.9806 1.10743C23.9119 0.989941 23.8478 0.869846 23.7884 0.747411C23.6746 0.527554 23.587 0.295103 23.5274 0.0548274C23.5275 0.0437713 23.5235 0.0330728 23.5162 0.0247726C23.5089 0.0164725 23.4988 0.0111517 23.4878 0.00982518C23.4771 0.00666214 23.4657 0.00666214 23.4549 0.00982518L23.4464 0.0143254L23.4333 0.0197257C22.7583 0.341491 18.7535 6.67555 24.1813 12.097Z" fill="url(#paint5_linear_202_10018)"/>
<path d="M17.4642 9.70555L19.776 9.85271L21.1801 10.3522L22.3501 10.8113L23.6979 11.7739L24.9675 13.1122L25.4085 13.9443C25.5046 14.0047 25.5997 14.0667 25.6938 14.1302C25.732 14.1567 25.7667 14.1833 25.8022 14.2098C25.3643 13.4328 24.8189 12.7215 24.1822 12.097C18.7535 6.67555 22.7583 0.341491 23.4333 0.0197257L23.4423 0.00982478C19.056 2.57495 17.5677 7.32313 17.4314 9.69835V9.71185L17.4642 9.70555Z" fill="url(#paint6_linear_202_10018)"/>
<path d="M11.8093 10.9683C11.9309 11.0454 12.051 11.1251 12.1693 11.2073C11.771 9.8165 11.7541 8.34423 12.1202 6.94466C10.5098 7.7237 9.07861 8.82839 7.91702 10.1889C8.00297 10.1871 10.5357 10.1412 11.8093 10.9683Z" fill="url(#paint7_radial_202_10018)"/>
<path d="M10.1824 20.1434C10.1824 20.1434 10.9884 17.1431 15.954 17.1431C16.4908 17.1431 18.0241 15.6467 18.0538 15.2129C15.9186 15.9858 13.5659 15.8934 11.4978 14.9555C10.4946 14.4473 9.37812 14.2041 8.25442 14.249C7.13072 14.294 6.0372 14.6257 5.07783 15.2125C5.44218 15.9993 6.02686 16.6636 6.76105 17.125C7.49523 17.5863 8.34743 17.8249 9.21443 17.8118C8.89087 20.6631 10.4002 23.9883 14.0535 25.7322C14.1354 25.7713 14.2119 25.8141 14.2956 25.8514C12.1634 24.7502 10.4025 22.6698 10.1824 20.1434Z" fill="url(#paint8_radial_202_10018)"/>
<path d="M26.0646 14.424C25.9806 14.3485 25.8931 14.277 25.8022 14.2098C25.7667 14.1833 25.732 14.1567 25.6938 14.1302C24.4652 13.2802 22.9649 12.9164 21.4834 13.1091C27.7643 16.2457 26.0781 27.0467 17.3751 26.639C16.6001 26.6074 15.8342 26.4598 15.103 26.2011C14.9301 26.136 14.759 26.0662 14.5899 25.9918C14.4918 25.9468 14.3933 25.9018 14.2956 25.8514L14.3078 25.8591C15.5228 26.6862 21.518 28.7082 27.7846 23.6112L27.7945 23.5887C27.9489 23.2215 30.023 18.0679 26.0646 14.424Z" fill="url(#paint9_radial_202_10018)"/>
<path d="M34.1781 12.0794C33.4193 10.2555 31.8829 8.28708 30.6751 7.6647C31.5347 9.32729 32.131 11.1132 32.4428 12.9588L32.4464 12.9876C30.4721 8.07152 27.124 6.08917 24.3901 1.77256C24.2487 1.55261 24.1116 1.32996 23.9788 1.10473C23.9103 0.987038 23.8461 0.866957 23.7861 0.744712C23.6729 0.52535 23.5856 0.293521 23.526 0.0539277C23.5261 0.0428717 23.5221 0.0321731 23.5148 0.0238729C23.5075 0.0155728 23.4974 0.010252 23.4864 0.0089255C23.4757 0.00597666 23.4643 0.00597666 23.4536 0.0089255C23.4509 0.0089255 23.4473 0.0129757 23.4446 0.0138757C23.4419 0.0147758 23.436 0.018826 23.432 0.0206261L23.4392 0.0107256C19.0528 2.57585 17.5655 7.33843 17.4287 9.71365L17.4642 9.70735L19.776 9.85451L21.077 10.3171L22.3501 10.8122L23.6979 11.7748L24.9661 13.1122C24.9661 13.1122 25.4026 13.9313 25.4085 13.9452C24.2352 13.2221 22.8481 12.9267 21.482 13.1091C27.7625 16.2457 26.0768 27.0467 17.3738 26.639C16.5988 26.6074 15.8329 26.4599 15.1016 26.2016C14.9318 26.138 14.7608 26.0678 14.5886 25.9909C14.4893 25.9466 14.3912 25.8998 14.2943 25.8505L14.3064 25.8582C14.2211 25.8172 14.1363 25.7751 14.0522 25.7317C14.1336 25.7704 14.2106 25.8132 14.2943 25.8505C12.1621 24.7498 10.4011 22.6689 10.1811 20.1425C10.1811 20.1425 10.9871 17.1422 15.9526 17.1422C16.4895 17.1422 18.0227 15.6458 18.0524 15.212C18.0461 15.0703 15.0067 13.862 13.8222 12.6964C13.189 12.0736 12.8884 11.773 12.622 11.5475C12.4776 11.4257 12.3266 11.312 12.1697 11.2068C11.7718 9.81586 11.7548 8.34352 12.1207 6.94377C10.5103 7.72304 9.0791 8.82786 7.91747 10.1884H7.90937C7.21723 9.31268 7.26629 6.42354 7.30544 5.82006C7.10019 5.90228 6.90412 6.00574 6.72041 6.12878C6.10955 6.56434 5.53849 7.05318 5.01393 7.58955C4.41687 8.19404 3.87135 8.84734 3.38305 9.54264C2.26131 11.1322 1.46579 12.9284 1.04248 14.8273C1.03393 14.8651 1.02718 14.9042 1.01908 14.942C0.986229 15.0959 0.839072 15.8749 0.817471 16.0423C0.682781 16.8476 0.596821 17.6603 0.560059 18.476V18.566C0.566174 22.9373 2.21135 27.1473 5.17062 30.3645C8.1299 33.5817 12.1881 35.5722 16.5436 35.9427C20.8991 36.3133 25.2352 35.037 28.6955 32.366C32.1557 29.6949 34.4884 25.8233 35.2329 21.5159C35.2626 21.2909 35.2865 21.0659 35.3126 20.8409C35.6718 17.8715 35.2817 14.8594 34.1781 12.0794Z" fill="url(#paint10_linear_202_10018)"/>
<path d="M18.0538 15.2129C18.0538 15.2129 17.98 15.2435 17.8432 15.2903C17.502 15.8668 16.2892 16.9676 15.8257 16.9653C10.8602 16.9437 10.0411 19.9111 10.0411 19.9111C10.1319 20.9255 10.4656 21.903 11.0141 22.7611C10.5503 21.9592 10.2665 21.0659 10.1824 20.1434C10.1824 20.1434 10.9884 17.1431 15.954 17.1431C16.4908 17.1431 18.0241 15.6467 18.0538 15.2129Z" fill="url(#paint11_linear_202_10018)"/>
<path d="M32.4504 12.9943V12.9777C32.4504 12.9646 32.4477 12.957 32.4504 12.961C32.4531 12.9651 32.4504 12.9709 32.4536 12.9903C32.3363 12.6989 32.2111 12.4108 32.0783 12.1262C32.0333 12.0308 31.9882 11.9417 31.941 11.8486C31.8532 11.6685 31.7664 11.4885 31.6755 11.3193C31.6192 11.2136 31.5603 11.1132 31.5027 11.0106C31.4181 10.8599 31.3344 10.7082 31.2475 10.5606C31.1836 10.4544 31.1179 10.3527 31.0531 10.2492C30.9681 10.1142 30.8834 9.97916 30.7966 9.84776C30.7277 9.7438 30.6571 9.64345 30.5873 9.54219C30.5005 9.41709 30.4141 9.29198 30.3254 9.17002C30.2525 9.06922 30.1783 8.97066 30.104 8.87211C30.014 8.75465 29.9271 8.6372 29.8376 8.52199C29.7608 8.42386 29.6834 8.3262 29.6054 8.22903C29.5154 8.11697 29.4254 8.00402 29.3331 7.89376C29.2536 7.79746 29.1737 7.7016 29.0933 7.6062C29.0483 7.55445 29.0064 7.50134 28.9623 7.44959L29.0181 7.51799C27.4997 5.73321 25.8576 4.08838 24.3914 1.77346C24.2502 1.55325 24.1131 1.33046 23.9801 1.10518C23.9114 0.987691 23.8473 0.867595 23.7879 0.745161C23.6892 0.548672 23.6087 0.343494 23.5476 0.132231C23.5445 0.120981 23.5391 0.10388 23.5373 0.0948792C23.5338 0.0814128 23.5305 0.0679114 23.5274 0.0543773C23.5275 0.0433212 23.5235 0.0326226 23.5162 0.0243225C23.5089 0.0160223 23.4988 0.0107015 23.4878 0.00937505C23.4771 0.00621202 23.4657 0.00621202 23.4549 0.00937505L23.4464 0.0143254C23.4419 0.0163102 23.4375 0.0185643 23.4333 0.0210756C23.3949 0.0423809 23.3593 0.0685473 23.3276 0.0989294C23.319 0.106178 23.3106 0.113682 23.3024 0.121431C23.2534 0.167371 23.2073 0.216211 23.1642 0.267688L23.1593 0.272638C22.1148 1.5003 19.443 6.84521 23.7483 11.6397C19.7175 6.89651 22.2579 1.77076 23.3618 0.427896C23.4206 0.608756 23.4926 0.785041 23.5773 0.955321C23.6366 1.07781 23.7007 1.19791 23.7695 1.31534C23.9045 1.5462 24.0427 1.76536 24.1808 1.98317C26.9152 6.29978 30.2633 8.28348 32.2362 13.1982C32.2362 13.1793 32.2331 13.1721 32.2331 13.1694C32.2331 13.1667 32.2331 13.173 32.2353 13.186L32.238 13.2027C33.5854 17.0499 33.3912 21.2694 31.6962 24.9766C31.0019 26.449 30.064 27.7936 28.9222 28.9539C30.1588 27.7468 31.1695 26.3284 31.9068 24.7655C33.6015 21.0593 33.7963 16.841 32.4504 12.9943Z" fill="url(#paint12_linear_202_10018)"/>
<path d="M23.4333 0.0197257L23.4423 0.00982478C19.4911 2.32159 17.8918 6.40284 17.5137 8.92566C18.1464 5.62958 20.0385 2.70972 22.7884 0.785663C22.9483 0.488619 23.1679 0.227846 23.4333 0.0197257Z" fill="url(#paint13_linear_202_10018)"/>
<path d="M27.7846 23.6112L27.7945 23.5887C27.9489 23.2215 30.023 18.0679 26.0646 14.424C25.9806 14.3485 25.8931 14.277 25.8022 14.2098C25.7667 14.1833 25.732 14.1567 25.6938 14.1302C24.5094 13.3145 23.0748 12.9439 21.6436 13.0839H21.6422C21.5891 13.091 21.5362 13.0993 21.4834 13.1086C27.6932 16.2102 26.115 26.8037 17.6667 26.6462L17.7356 26.6502C26.3 26.9868 27.9876 16.4838 22.0369 13.1905C23.2064 13.1968 24.3513 13.5274 25.3441 14.1455C25.3816 14.1701 25.4187 14.1955 25.4553 14.2215C25.5487 14.2847 25.6388 14.3526 25.7253 14.4249C29.8236 17.9113 27.9529 23.1419 27.8125 23.5154L27.8035 23.5388" fill="url(#paint14_linear_202_10018)"/>
<path d="M11.5446 15.1301C13.5559 15.9685 15.808 16.0239 17.858 15.2854C15.7721 15.9807 13.5006 15.8629 11.4978 14.9555C10.5086 14.4577 9.41054 14.2155 8.30371 14.2509C7.19688 14.2863 6.1165 14.5981 5.16108 15.158L5.13813 15.1729H5.13588L5.11698 15.1855L5.10258 15.1954L5.09358 15.2017H5.09088L5.08458 15.2062H5.08233L5.09043 15.2255V15.2282L5.10033 15.2507V15.2552L5.11518 15.2876V15.2903C5.15091 15.3647 5.18919 15.4378 5.22994 15.5095C5.6235 16.2172 6.20207 16.8047 6.90376 17.2089C7.60545 17.6132 8.40385 17.8191 9.21353 17.8046C8.89852 20.5704 10.3107 23.7818 13.73 25.5639C10.4619 23.6805 9.08888 20.2626 9.4705 17.544C6.94722 17.4774 5.81902 15.9649 5.49635 15.3236C6.42354 14.8339 7.45013 14.562 8.49815 14.5285C9.54617 14.4949 10.5881 14.7007 11.5446 15.1301Z" fill="url(#paint15_linear_202_10018)"/>
<path d="M12.1688 11.1978L12.0833 11.1479L12.1733 11.2073L12.1688 11.1978ZM12.1508 11.1339C11.7733 9.76427 11.7635 8.3193 12.1225 6.94466C10.5834 7.68492 9.20908 8.72731 8.08128 10.0098C9.15097 8.93679 10.3976 8.05625 11.7665 7.40684C11.6046 8.6622 11.7361 9.93802 12.1508 11.1339Z" fill="url(#paint16_linear_202_10018)"/>
<path d="M1.14239 20.8076L1.12844 20.7576C0.960049 20.1731 0.824826 19.5794 0.723417 18.9796C0.610942 18.2338 0.610942 17.4753 0.723417 16.7295C0.635809 17.3079 0.582463 17.8909 0.563659 18.4756V18.5656C0.565091 22.1883 1.69406 25.7208 3.79393 28.6729C5.8938 31.6249 8.86044 33.8502 12.2822 35.04C9.31514 33.8918 6.71353 31.963 4.75258 29.4577C2.79163 26.9524 1.54425 23.9636 1.14239 20.8076Z" fill="url(#paint17_linear_202_10018)"/>
<path d="M1.00243 19.0498C0.696865 17.6448 1.31745 14.9362 1.3251 14.8979C1.74903 12.9989 2.5455 11.2028 3.66836 9.61375C4.15665 8.91842 4.70202 8.26498 5.29879 7.6602C5.82346 7.12408 6.39451 6.6354 7.00527 6.19988C7.02944 6.18417 7.05405 6.16917 7.07908 6.15488C7.07278 7.48154 7.14838 9.7204 7.76266 10.4544H7.77076C7.85492 10.4499 10.3966 10.3378 11.6968 11.1294C11.8412 11.2194 11.96 11.291 12.0662 11.3589C12.2263 11.4603 12.3809 11.5701 12.5293 11.6879C12.802 11.9066 13.1116 12.1987 13.7637 12.8049C14.7088 13.6828 16.7649 14.5559 17.6537 14.9717C16.7879 14.5356 14.7448 13.6036 13.8236 12.6968C13.1904 12.0736 12.8898 11.7734 12.6238 11.5479C12.48 11.4263 12.3297 11.3124 12.1738 11.2068C12.0698 11.1362 11.9533 11.0597 11.8138 10.9679C10.5402 10.1407 8.00747 10.1866 7.92377 10.1884H7.91567C7.28294 9.38783 7.26944 6.90641 7.30184 6.02482C7.30184 5.99062 7.30184 5.95957 7.30544 5.93032V5.87316C7.30544 5.85426 7.30544 5.83581 7.30859 5.82006C7.30859 5.82006 7.30544 5.81691 7.30139 5.81691H7.28564L7.27574 5.82051L7.26134 5.82591L7.24739 5.83176L7.23074 5.83941L7.21273 5.84796L7.19473 5.85696L7.17268 5.86776L7.15513 5.87721L7.12903 5.89071L7.11418 5.89881C6.98265 5.97045 6.853 6.04548 6.72536 6.12383C6.1146 6.55935 5.54355 7.04802 5.01888 7.58415C4.4213 8.19131 3.87548 8.84732 3.3871 9.54534C2.26445 11.1339 1.468 12.9293 1.04383 14.8277C1.03573 14.8655 0.413802 17.5728 0.721167 18.9796C1.86782 25.7461 7.26584 31.1532 13.8983 32.7566C7.39499 31.0703 2.13289 25.7223 1.00243 19.0498Z" fill="url(#paint18_linear_202_10018)"/>
<path d="M34.1794 12.0799C33.5104 10.4707 32.4584 9.04944 31.1148 7.93966L31.0837 7.91761C31.0494 7.89356 31.0149 7.86986 30.9802 7.84651C30.9673 7.83751 30.9542 7.82896 30.941 7.82086C30.908 7.79986 30.8756 7.77961 30.8438 7.76011L30.806 7.7376C30.7633 7.71285 30.7201 7.689 30.6764 7.66605C30.7232 7.75785 30.7691 7.85011 30.8141 7.94281C30.8424 8.00009 30.8703 8.05754 30.8978 8.11517C31.6409 9.64802 32.1612 11.2792 32.4428 12.9592L32.4464 12.9885C33.0656 17.0283 31.0085 20.9421 27.7927 23.5887L27.7828 23.6112C23.7852 26.8626 19.8984 27.2173 17.2919 26.8329C19.889 27.3181 23.9855 27.1133 28.2049 23.6828L28.2144 23.6603C31.4302 21.0137 33.4877 17.0999 32.8685 13.06L32.8649 13.0308C32.6223 11.5657 32.1945 10.1375 31.5918 8.7803C32.3562 9.59056 32.9993 10.5072 33.5012 11.5016C34.7555 14.1688 35.3109 17.1111 35.115 20.052C35.1015 20.2748 35.0902 20.4971 35.0731 20.718C34.5662 24.7751 32.6456 28.5238 29.6487 31.3051C26.6518 34.0864 22.7705 35.7224 18.6869 35.9256C17.5359 35.9903 16.3813 35.9433 15.2393 35.7852C19.7789 36.5148 24.4231 35.4261 28.1655 32.7551C31.908 30.0842 34.4472 26.0461 35.2329 21.5159C35.2622 21.2909 35.286 21.0682 35.3121 20.8431C35.6723 17.8733 35.2829 14.8605 34.1794 12.0799Z" fill="url(#paint19_linear_202_10018)"/>
</g>
<defs>
<radialGradient id="paint0_radial_202_10018" cx="0" cy="0" r="1" gradientUnits="userSpaceOnUse" gradientTransform="translate(18.9323 13.9272) scale(10.1979 10.1925)">
<stop offset="0.1" stop-color="#00DDFF" stop-opacity="0.4"/>
<stop offset="0.9" stop-color="#7542E5" stop-opacity="0.25"/>
</radialGradient>
<radialGradient id="paint1_radial_202_10018" cx="0" cy="0" r="1" gradientUnits="userSpaceOnUse" gradientTransform="translate(17.9529 18.6327) scale(8.66818 8.66359)">
<stop offset="0.91" stop-color="#7542E5" stop-opacity="0"/>
<stop offset="1" stop-color="#00DDFF" stop-opacity="0.4"/>
</radialGradient>
<radialGradient id="paint2_radial_202_10018" cx="0" cy="0" r="1" gradientUnits="userSpaceOnUse" gradientTransform="translate(24.904 -4.67329) scale(36.2835 46.08)">
<stop stop-color="#80EBFF"/>
<stop offset="0.26" stop-color="#00DDFF"/>
<stop offset="0.53" stop-color="#0090ED"/>
<stop offset="0.86" stop-color="#0060DF"/>
</radialGradient>
<radialGradient id="paint3_radial_202_10018" cx="0" cy="0" r="1" gradientUnits="userSpaceOnUse" gradientTransform="translate(14.024 14.4067) scale(36.2835 46.08)">
<stop offset="0.3" stop-color="#321C64" stop-opacity="0.8"/>
<stop offset="0.37" stop-color="#212F83" stop-opacity="0.5"/>
<stop offset="0.48" stop-color="#0A47AC" stop-opacity="0.14"/>
<stop offset="0.53" stop-color="#0250BB" stop-opacity="0"/>
</radialGradient>
<radialGradient id="paint4_radial_202_10018" cx="0" cy="0" r="1" gradientUnits="userSpaceOnUse" gradientTransform="translate(26.8374 -17.9933) scale(61.4277 75.6)">
<stop stop-color="#80EBFF"/>
<stop offset="0.47" stop-color="#00B3F4"/>
<stop offset="0.84" stop-color="#0060DF"/>
<stop offset="1" stop-color="#592ACB"/>
</radialGradient>
<linearGradient id="paint5_linear_202_10018" x1="15.2107" y1="-3.59329" x2="22.2593" y2="40.9801" gradientUnits="userSpaceOnUse">
<stop stop-color="#AAF2FF"/>
<stop offset="0.29" stop-color="#00DDFF"/>
<stop offset="0.61" stop-color="#0090ED"/>
<stop offset="0.89" stop-color="#0250BB"/>
</linearGradient>
<linearGradient id="paint6_linear_202_10018" x1="13.8154" y1="0.00671398" x2="23.0802" y2="44.5335" gradientUnits="userSpaceOnUse">
<stop stop-color="#AAF2FF"/>
<stop offset="0.29" stop-color="#00DDFF"/>
<stop offset="0.74" stop-color="#0090ED"/>
<stop offset="1" stop-color="#0250BB"/>
</linearGradient>
<radialGradient id="paint7_radial_202_10018" cx="0" cy="0" r="1" gradientUnits="userSpaceOnUse" gradientTransform="translate(73.1154 -37.4985) scale(104.647 107.726)">
<stop stop-color="#00DDFF"/>
<stop offset="0.82" stop-color="#0090ED"/>
</radialGradient>
<radialGradient id="paint8_radial_202_10018" cx="0" cy="0" r="1" gradientUnits="userSpaceOnUse" gradientTransform="translate(47.6278 -16.1933) scale(97.5758 112.68)">
<stop offset="0.29" stop-color="#80EBFF"/>
<stop offset="1" stop-color="#00B3F4"/>
</radialGradient>
<radialGradient id="paint9_radial_202_10018" cx="0" cy="0" r="1" gradientUnits="userSpaceOnUse" gradientTransform="translate(5.04408 -15.4733) scale(78.7372 82.8)">
<stop offset="0.18" stop-color="#AAF2FF"/>
<stop offset="0.43" stop-color="#00DDFF"/>
<stop offset="0.69" stop-color="#0060DF"/>
</radialGradient>
<linearGradient id="paint10_linear_202_10018" x1="30.5589" y1="5.40671" x2="6.77739" y2="29.4973" gradientUnits="userSpaceOnUse">
<stop offset="0.24" stop-color="#80EBFF" stop-opacity="0.5"/>
<stop offset="0.7" stop-color="#00DDFF" stop-opacity="0"/>
</linearGradient>
<linearGradient id="paint11_linear_202_10018" x1="21.8383" y1="-3.59329" x2="6.66697" y2="53.4153" gradientUnits="userSpaceOnUse">
<stop stop-color="#BFF3FF" stop-opacity="0.9"/>
<stop offset="1" stop-color="#80EBFF" stop-opacity="0.5"/>
</linearGradient>
<linearGradient id="paint12_linear_202_10018" x1="18.3501" y1="-0.713286" x2="17.2355" y2="50.0452" gradientUnits="userSpaceOnUse">
<stop stop-color="#BFF3FF"/>
<stop offset="1" stop-color="#00DDFF" stop-opacity="0"/>
</linearGradient>
<linearGradient id="paint13_linear_202_10018" x1="18.6989" y1="-1.43329" x2="16.8414" y2="51.4827" gradientUnits="userSpaceOnUse">
<stop stop-color="#BFF3FF"/>
<stop offset="1" stop-color="#AAF2FF" stop-opacity="0.5"/>
</linearGradient>
<linearGradient id="paint14_linear_202_10018" x1="19.0477" y1="-0.713286" x2="16.8188" y2="51.1209" gradientUnits="userSpaceOnUse">
<stop stop-color="#BFF3FF"/>
<stop offset="1" stop-color="#00DDFF" stop-opacity="0"/>
</linearGradient>
<linearGradient id="paint15_linear_202_10018" x1="17.6524" y1="-0.713286" x2="20.6239" y2="44.2748" gradientUnits="userSpaceOnUse">
<stop stop-color="#BFF3FF" stop-opacity="0.8"/>
<stop offset="1" stop-color="#80EBFF" stop-opacity="0.2"/>
</linearGradient>
<linearGradient id="paint16_linear_202_10018" x1="41.3724" y1="-8.27329" x2="7.4275" y2="45.1305" gradientUnits="userSpaceOnUse">
<stop stop-color="#BFF3FF" stop-opacity="0.8"/>
<stop offset="1" stop-color="#80EBFF" stop-opacity="0.2"/>
</linearGradient>
<linearGradient id="paint17_linear_202_10018" x1="18.6989" y1="-0.353286" x2="16.8414" y2="49.3225" gradientUnits="userSpaceOnUse">
<stop stop-color="#00DDFF" stop-opacity="0.4"/>
<stop offset="1" stop-color="#00DDFF" stop-opacity="0"/>
</linearGradient>
<linearGradient id="paint18_linear_202_10018" x1="18.0012" y1="-4.31329" x2="18.0012" y2="35.6467" gradientUnits="userSpaceOnUse">
<stop stop-color="#BFF3FF"/>
<stop offset="1" stop-color="#00DDFF" stop-opacity="0"/>
</linearGradient>
<linearGradient id="paint19_linear_202_10018" x1="19.0477" y1="-1.07329" x2="16.8188" y2="51.1209" gradientUnits="userSpaceOnUse">
<stop stop-color="#BFF3FF" stop-opacity="0.8"/>
<stop offset="1" stop-color="#00DDFF" stop-opacity="0"/>
</linearGradient>
<clipPath id="clip0_202_10018">
<rect width="36" height="37" fill="white"/>
</clipPath>
</defs>
</svg>
