<svg width="37" height="36" viewBox="0 0 37 36" fill="none" xmlns="http://www.w3.org/2000/svg">
<path d="M9.73149 15.5061C9.73149 15.5061 9.74649 15.5061 9.73149 15.5061V15.5061ZM2.19574 15.8722C3.41094 15.8722 4.3861 16.8474 4.3861 18.0626C4.3861 19.2778 3.41094 20.2529 2.19574 20.2529C0.980534 20.2529 0.00537109 19.2778 0.00537109 18.0626C0.00537109 16.8474 0.980534 15.8722 2.19574 15.8722ZM9.73599 7.96437C11.0712 7.96437 12.1664 9.05956 12.1664 10.3948C12.1664 11.73 11.0712 12.8252 9.73599 12.8252C8.40077 12.8252 7.30559 11.73 7.30559 10.3948C7.30559 9.05956 8.40077 7.96437 9.73599 7.96437ZM9.73599 23.1649V23.1499C11.0712 23.1499 12.1664 24.2301 12.1664 25.5803C12.1664 26.9305 11.0712 28.0407 9.73599 28.0407C8.40077 28.0407 7.30559 26.9455 7.30559 25.5953C7.30559 24.2601 8.40077 23.1649 9.73599 23.1649ZM9.71649 15.5061C11.1717 15.5211 12.2669 16.6013 12.2669 18.0566C12.2669 19.5268 11.1867 20.622 9.73149 20.622C8.26125 20.622 7.18107 19.5268 7.18107 18.0566C7.18107 16.6013 8.26125 15.5211 9.71649 15.5061ZM17.2702 30.5926C18.7405 30.5926 19.9557 31.8078 19.9557 33.2631C19.9557 34.7333 18.7405 35.9485 17.2702 35.9485C15.815 35.9485 14.5998 34.7183 14.5998 33.2631C14.5998 31.8078 15.815 30.5926 17.2702 30.5926ZM19.9557 2.7405C19.9557 4.19574 18.7405 5.41095 17.2702 5.41095C15.815 5.41095 14.5998 4.19574 14.5998 2.7405C14.5998 1.27026 15.815 0.0550537 17.2702 0.0550537C18.7405 0.0550537 19.9557 1.27026 19.9557 2.7405ZM17.2717 22.8048C18.847 22.8048 20.0772 24.1401 20.0772 25.5953C20.0772 27.1856 18.862 28.4008 17.2868 28.4008C15.6965 28.4008 14.4813 27.1856 14.4813 25.5953C14.4813 24.0201 15.6965 22.8048 17.2717 22.8048ZM17.2717 7.59831C18.847 7.59831 20.0772 8.81351 20.0772 10.4038C20.0772 11.979 18.862 13.1942 17.2868 13.1942C15.6965 13.1942 14.4813 11.979 14.4813 10.4038C14.4813 8.81351 15.6965 7.59831 17.2717 7.59831ZM17.2687 15.1431H17.2838C18.859 15.1431 20.1942 16.4783 20.1942 18.0686C20.1942 19.6438 18.859 20.979 17.2838 20.979C15.6935 20.979 14.3583 19.6438 14.3583 18.0686C14.3583 16.4783 15.6935 15.1431 17.2687 15.1431ZM24.7025 22.4403C26.3978 22.4403 27.853 23.8955 27.853 25.6058C27.853 27.3011 26.3978 28.7713 24.7025 28.7713C22.9922 28.7713 21.537 27.3011 21.537 25.6058C21.537 23.9105 22.9922 22.4403 24.7025 22.4403ZM24.7025 7.23075C26.3978 7.23075 27.853 8.701 27.853 10.3963C27.853 12.0916 26.3978 13.5618 24.7025 13.5618C22.9922 13.5618 21.537 12.1066 21.537 10.3963C21.537 8.701 22.9922 7.23075 24.7025 7.23075ZM24.6995 14.777C26.5148 14.777 27.985 16.2323 27.985 18.0626C27.985 19.8929 26.5298 21.3481 24.6995 21.3481C22.8842 21.3481 21.4139 19.8929 21.4139 18.0626C21.4139 16.2323 22.8692 14.777 24.6995 14.777ZM32.3598 14.4124V14.3974C34.3101 14.3974 35.8853 15.9727 36.0054 18.0431C36.0054 20.1134 34.4301 21.7187 32.3598 21.7187C30.2894 21.7187 28.7142 20.0084 28.7142 18.0581C28.7142 15.9877 30.4094 14.4124 32.3598 14.4124Z" fill="#00B0B9"/>
</svg>
