<svg width="22" height="41" viewBox="0 0 22 41" fill="none" xmlns="http://www.w3.org/2000/svg">
<g clip-path="url(#clip0_202_14330)">
<path d="M6.24969 18.5084H9.81799C10.0019 18.5084 10.1511 18.3593 10.1511 18.1754V12.2285C10.1511 7.82136 13.7366 4.2359 18.1439 4.2359H20.5225C20.7064 4.2359 20.8556 4.08674 20.8556 3.90283V0.334832C20.8556 0.150929 20.7064 0.00177002 20.5225 0.00177002H18.1437C11.4017 0.00177002 5.91662 5.48665 5.91662 12.2285V18.1754C5.91662 18.3593 6.06578 18.5084 6.24969 18.5084ZM16.0629 4.16514C15.5308 4.30211 15.0193 4.49019 14.5341 4.72394C13.9275 5.01625 13.3617 5.37988 12.8477 5.80407C12.5393 6.05855 12.2495 6.33486 11.9807 6.63063C11.8015 6.82781 11.6316 7.03354 11.4719 7.24728C11.2321 7.56779 11.0149 7.90631 10.8227 8.26011C11.0149 7.90613 11.2321 7.56779 11.4719 7.24728C11.6318 7.03354 11.8015 6.82781 11.9807 6.63063C12.2494 6.33486 12.5391 6.05855 12.8477 5.80407C13.3617 5.37988 13.9275 5.01625 14.5341 4.72394C15.0195 4.49019 15.5308 4.30193 16.0629 4.16514C16.7279 3.99397 17.4252 3.90302 18.1437 3.90302C17.4252 3.90302 16.7279 3.99397 16.0629 4.16514ZM20.5225 0.334832V3.90302V0.334832ZM21.4155 13.0849H21.4146H11.0073C10.8234 13.0849 10.6742 13.234 10.6742 13.4179V16.9861C10.6742 17.17 10.8234 17.3192 11.0073 17.3192H20.7455C20.9058 17.3192 21.0433 17.2049 21.0728 17.0476L21.7386 13.4972C21.7448 13.4718 21.748 13.4454 21.748 13.4181C21.748 13.234 21.5994 13.0849 21.4155 13.0849ZM20.3004 19.0318H20.2995H16.9542C16.7703 19.0318 16.6211 19.1809 16.6211 19.3648V22.933C16.6211 23.1169 16.7703 23.2661 16.9542 23.2661H19.6304C19.7907 23.2661 19.9282 23.1519 19.9577 22.9945L20.6235 19.4441C20.6297 19.4189 20.6329 19.3923 20.6329 19.365C20.6329 19.1808 20.4843 19.0318 20.3004 19.0318ZM20.5225 5.94868H18.1437C14.6809 5.94868 11.8637 8.76579 11.8637 12.2285C11.8637 12.4124 12.0129 12.5615 12.1968 12.5615H15.7651C15.949 12.5615 16.0982 12.4124 16.0982 12.2285C16.0982 11.1005 17.0159 10.1828 18.1439 10.1828H20.5225C20.7064 10.1828 20.8556 10.0336 20.8556 9.84975V6.28174C20.8556 6.09784 20.7064 5.94868 20.5225 5.94868ZM15.8133 11.7492C15.8449 11.5944 15.8917 11.445 15.9519 11.3026C15.8917 11.4448 15.8449 11.5942 15.8133 11.7492ZM20.5225 9.84975H18.1437C17.4048 9.84975 16.7445 10.1866 16.3081 10.7154C16.7443 10.1868 17.4046 9.84975 18.1437 9.84975H20.5225V6.28156V9.84975ZM15.7649 17.8423H12.1966C12.0127 17.8423 11.8635 17.9915 11.8635 18.1754V31.2585C11.8635 33.3933 11.0322 35.4006 9.52239 36.9102C9.46 36.9726 9.42489 37.0573 9.42489 37.1457C9.42489 37.2341 9.46 37.3187 9.52239 37.3813L12.0454 39.9043C12.1104 39.9692 12.1957 40.0018 12.281 40.0018C12.3663 40.0018 12.4515 39.9692 12.5164 39.9043C14.8259 37.595 16.0976 34.5245 16.0976 31.2587V18.1756C16.098 17.9915 15.9488 17.8423 15.7649 17.8423ZM13.7335 37.9083C13.3061 38.5409 12.8193 39.1305 12.2812 39.6685C12.8193 39.1303 13.3061 38.5409 13.7335 37.9083C13.9473 37.5919 14.1463 37.2647 14.3293 36.9276C14.1461 37.2647 13.9473 37.5919 13.7335 37.9083ZM14.592 36.4148C14.759 36.0681 14.9098 35.7122 15.0431 35.3478C14.9098 35.7122 14.759 36.0681 14.592 36.4148ZM10.1509 24.1221C10.1509 23.9382 10.0017 23.7891 9.81781 23.7891H6.24969C6.06578 23.7891 5.91662 23.9382 5.91662 24.1221V31.2583C5.91662 31.8047 5.70379 32.3184 5.31742 32.705C5.18735 32.835 5.18735 33.0458 5.31742 33.1759L7.84047 35.6989C7.90541 35.7638 7.99073 35.7964 8.07604 35.7964C8.16136 35.7964 8.24649 35.7638 8.31161 35.6989C9.49783 34.5129 10.1511 32.9358 10.1511 31.2583V24.1221H10.1509ZM8.45987 35.0411C8.64159 34.8208 8.80786 34.5873 8.95684 34.3421C8.80786 34.5873 8.64159 34.8208 8.45987 35.0411ZM9.23134 33.8366C9.44017 33.4033 9.59788 32.9407 9.69702 32.4568C9.59806 32.9407 9.44017 33.4033 9.23134 33.8366ZM11.3404 22.9328V19.3647C11.3404 19.1808 11.1912 19.0316 11.0073 19.0316H1.25833C1.09807 19.0316 0.960549 19.1456 0.93108 19.3032L0.262024 22.8714C0.243833 22.9687 0.269846 23.0693 0.33315 23.1455C0.396453 23.2217 0.490318 23.2659 0.589457 23.2659H11.0073C11.1912 23.2659 11.3404 23.1167 11.3404 22.9328ZM1.70437 17.319H5.0602C5.24411 17.319 5.39327 17.1698 5.39327 16.9859V13.4179C5.39327 13.234 5.24411 13.0849 5.0602 13.0849H2.37342C2.21316 13.0849 2.07564 13.1991 2.04617 13.3564L1.37712 16.9246C1.35893 17.0219 1.38494 17.1224 1.44824 17.1988C1.51136 17.275 1.60541 17.319 1.70437 17.319Z" fill="#54A3DA"/>
</g>
<defs>
<clipPath id="clip0_202_14330">
<rect width="22" height="41" fill="white"/>
</clipPath>
</defs>
</svg>
