<svg width="37" height="37" viewBox="0 0 37 37" fill="none" xmlns="http://www.w3.org/2000/svg">
<g clip-path="url(#clip0_202_14984)">
<path d="M36.0012 4.00468V18.0022C36.0012 27.9433 27.9423 36.0022 18.0012 36.0022H3.1469L12.1908 26.7358L14.2068 28.7518L9.81842 33.1395C10.3847 33.1404 11.2048 33.1411 12.1096 33.1416L12.3198 33.1417C12.4256 33.1418 12.5324 33.1418 12.6398 33.1419L12.8556 33.142C12.8917 33.142 12.9278 33.142 12.964 33.142L13.1817 33.1421C13.218 33.1421 13.2544 33.1422 13.2908 33.1422L13.6187 33.1423C13.6551 33.1423 13.6915 33.1423 13.7279 33.1423L14.0548 33.1424C14.091 33.1425 14.1271 33.1425 14.1632 33.1425L14.4863 33.1426C14.522 33.1426 14.5576 33.1426 14.593 33.1426L15.117 33.1427C15.1513 33.1427 15.1854 33.1427 15.2194 33.1427L15.8126 33.1429C15.8444 33.1429 15.876 33.1429 15.9074 33.1429L16.8498 33.143C16.8752 33.143 16.9002 33.143 16.9249 33.143L18.0005 33.1431C26.3489 33.1431 33.1414 26.3542 33.1414 18.0022L33.1413 17.9089C33.1413 17.8977 33.1413 17.8855 33.1413 17.8725L33.1412 17.6086C33.1412 17.5866 33.1412 17.5639 33.1412 17.5403L33.1411 17.3068C33.1411 17.2786 33.141 17.2496 33.141 17.2198L33.1409 17.0329C33.1409 17.0004 33.1409 16.9671 33.1409 16.9332L33.1408 16.722C33.1408 16.6856 33.1408 16.6485 33.1408 16.6108L33.1406 16.3776C33.1406 16.2575 33.1405 16.1325 33.1405 16.0029L33.1404 15.738C33.1394 13.7545 33.1381 10.8919 33.1372 8.93961L33.1371 8.6792C33.1371 8.55198 33.137 8.42938 33.137 8.31195L33.1369 8.08417C33.1368 8.04741 33.1368 8.01127 33.1368 7.97577L33.1367 7.77059C33.1367 7.73772 33.1367 7.70554 33.1367 7.67405L33.1366 7.4102C33.1366 7.38312 33.1366 7.3568 33.1365 7.33126L33.1364 7.00973C33.1364 6.99257 33.1364 6.9763 33.1364 6.96094L33.1363 6.64348L36.0012 4.00468ZM32.8555 0.00219727L23.8116 9.2686L21.7956 7.2526L26.1833 2.86492C25.617 2.86398 24.797 2.86329 23.8921 2.86278L23.6819 2.86266C23.5761 2.86261 23.4693 2.86255 23.3619 2.8625L23.1461 2.8624C23.11 2.86238 23.0739 2.86237 23.0377 2.86235L22.82 2.86226C22.7837 2.86225 22.7473 2.86223 22.7109 2.86222L22.383 2.86209C22.3466 2.86208 22.3102 2.86207 22.2738 2.86206L21.9469 2.86195C21.9107 2.86194 21.8746 2.86193 21.8385 2.86192L21.5154 2.86182C21.4797 2.86181 21.4442 2.8618 21.4087 2.86179L20.8848 2.86167C20.8505 2.86166 20.8163 2.86165 20.7823 2.86165L20.1891 2.86153C20.1573 2.86153 20.1257 2.86152 20.0943 2.86151L19.1519 2.86139C19.1266 2.86139 19.1015 2.86138 19.0768 2.86138L18.0012 2.86132C9.64922 2.86132 2.86034 9.6502 2.86034 18.0022L2.8604 18.3326C2.86041 18.3528 2.86041 18.3739 2.86042 18.3958L2.86054 18.9715C2.86055 19.004 2.86056 19.0372 2.86056 19.0711L2.86067 19.5085C2.86068 19.5473 2.86068 19.5868 2.86069 19.6268L2.86082 20.1325C2.86083 20.1766 2.86084 20.2213 2.86085 20.2664L2.86096 20.6838C2.86097 20.7314 2.86098 20.7794 2.86099 20.8278L2.86107 21.1223C2.86109 21.1721 2.8611 21.2222 2.86111 21.2726L2.86124 21.734C2.86126 21.7861 2.86127 21.8384 2.86129 21.8909L2.86138 22.2086C2.86139 22.2619 2.86141 22.3154 2.86142 22.3691L2.86152 22.6929C2.86157 22.8556 2.86162 23.0194 2.86167 23.1836L2.86178 23.5126C2.8618 23.5675 2.86182 23.6224 2.86184 23.6773L2.86195 24.0064C2.86204 24.2803 2.86214 24.5529 2.86224 24.8217L2.86236 25.1421C2.86319 27.2639 2.86423 29.0703 2.86538 29.2169V29.3609L0.0012207 31.999V18.0022C0.0012207 8.06107 8.06009 0.00219727 18.0012 0.00219727H32.8555Z" fill="black"/>
</g>
<defs>
<clipPath id="clip0_202_14984">
<rect width="37" height="37" fill="white"/>
</clipPath>
</defs>
</svg>
