<svg width="36" height="37" viewBox="0 0 36 37" fill="none" xmlns="http://www.w3.org/2000/svg">
<g clip-path="url(#clip0_202_10578)">
<path d="M12.9323 0.000915527C4.39056 0.000915527 0.0310059 4.92858 0.0310059 14.129V20.5558V33.431L8.39833 25.0416V15.2367C8.39833 11.4251 9.40679 8.99961 12.7899 8.45507C13.9718 8.22361 16.4315 8.30474 17.9954 8.30474V14.1265C17.9954 14.1796 18.0026 14.2743 18.0162 14.323C18.0817 14.5586 18.2946 14.7313 18.5466 14.7318C18.6893 14.7321 18.8228 14.6579 18.9604 14.5219L33.4609 0.00314713L23.7276 0.000915527H12.9323Z" fill="url(#paint0_linear_202_10578)"/>
<path d="M27.6062 10.9609V20.7657C27.6062 24.5772 26.5975 27.003 23.2147 27.5475C22.0328 27.7787 19.5731 27.6976 18.0092 27.6976V21.8761C18.0092 21.8232 18.002 21.7282 17.9883 21.6796C17.9228 21.4437 17.7102 21.2713 17.4579 21.2708C17.3153 21.2703 17.1818 21.3447 17.0441 21.4804L2.5437 35.9992L12.277 36.0014H23.0723C31.614 36.0014 35.9736 31.0737 35.9736 21.8736V15.4465V2.57154L27.6062 10.9609Z" fill="url(#paint1_linear_202_10578)"/>
</g>
<defs>
<linearGradient id="paint0_linear_202_10578" x1="16.7461" y1="33.431" x2="16.7461" y2="0.00190781" gradientUnits="userSpaceOnUse">
<stop stop-color="#EA5F29"/>
<stop offset="1" stop-color="#FABD1F"/>
</linearGradient>
<linearGradient id="paint1_linear_202_10578" x1="19.2575" y1="2.57204" x2="19.2575" y2="36.0012" gradientUnits="userSpaceOnUse">
<stop stop-color="#ABD33C"/>
<stop offset="1" stop-color="#6CB02F"/>
</linearGradient>
<clipPath id="clip0_202_10578">
<rect width="36" height="37" fill="white"/>
</clipPath>
</defs>
</svg>
