<svg width="37" height="28" viewBox="0 0 37 28" fill="none" xmlns="http://www.w3.org/2000/svg">
<g clip-path="url(#clip0_202_15923)">
<mask id="mask0_202_15923" style="mask-type:alpha" maskUnits="userSpaceOnUse" x="0" y="0" width="37" height="28">
<path fill-rule="evenodd" clip-rule="evenodd" d="M26.683 0.452881H9.40158C9.16432 0.452881 8.93668 0.547318 8.76911 0.715297L0.00585938 9.50288L17.9809 27.5028L36.0059 9.50288L27.3181 0.718047C27.1502 0.548418 26.9216 0.452881 26.683 0.452881ZM26.9953 7.23766C26.8783 7.89913 25.5387 9.2497 24.8052 9.40517C24.7695 9.41273 24.7656 9.52779 24.801 9.53714C25.5062 9.72299 26.842 11.0896 26.9917 11.7158C27.0004 11.7521 27.058 11.7518 27.0683 11.7159C27.2569 11.0577 28.6222 9.679 29.2486 9.53714C29.2839 9.52916 29.2798 9.41259 29.2443 9.40517C28.6381 9.27788 27.2676 7.9126 27.0664 7.23697C27.0565 7.20398 27.0013 7.20357 26.9953 7.23766Z" fill="#57BBFB"/>
</mask>
<g mask="url(#mask0_202_15923)">
<path fill-rule="evenodd" clip-rule="evenodd" d="M26.683 0.452881H9.40158C9.16432 0.452881 8.93668 0.547318 8.76911 0.715297L0.00585938 9.50288L17.9809 27.5028L36.0059 9.50288L27.3181 0.718047C27.1502 0.548418 26.9216 0.452881 26.683 0.452881ZM26.9953 7.23766C26.8783 7.89913 25.5387 9.2497 24.8052 9.40517C24.7695 9.41273 24.7656 9.52779 24.801 9.53714C25.5062 9.72299 26.842 11.0896 26.9917 11.7158C27.0004 11.7521 27.058 11.7518 27.0683 11.7159C27.2569 11.0577 28.6222 9.679 29.2486 9.53714C29.2839 9.52916 29.2798 9.41259 29.2443 9.40517C28.6381 9.27788 27.2676 7.9126 27.0664 7.23697C27.0565 7.20398 27.0013 7.20357 26.9953 7.23766Z" fill="#57BBFB"/>
<path d="M27.1684 0.596591C27.0249 0.503529 26.8567 0.452393 26.683 0.452393H9.40157C9.16431 0.452393 8.93667 0.54683 8.7691 0.714947L9.05585 1.07744L13.4434 5.38992L22.5559 5.35239L27.1684 0.596591Z" fill="#48ACEC"/>
<path d="M18.0623 27.4211L17.981 27.5024L0.00592041 9.50238L0.157679 9.35034H9.65595L18.0623 26.9149V27.4211Z" fill="#2B8FCF"/>
<path d="M12.024 15.4467L13.5187 18.4778H22.5317L24.013 15.5157L17.9363 9.47632L12.024 15.4467Z" fill="#2D91D1"/>
<path d="M27.0583 9.47632H35.9839L26.9933 0.458618L22.481 4.95145L27.0583 9.47618V9.47632Z" fill="#7ACBFF"/>
<path d="M22.4809 4.95153L17.9934 0.515747L13.4926 5.0281L17.9364 9.4764L22.4809 4.95153Z" fill="#55B9F9"/>
<path d="M17.9363 9.47632H9.05591L12.024 15.4476L17.9363 9.47701L24.0131 15.5166L27.0583 9.47632H17.9363Z" fill="#3B9FDF"/>
<path d="M9.05591 9.47624V9.47637H17.9363L13.4927 5.02808L9.05591 9.47624Z" fill="#52B6F7"/>
<path d="M22.4809 4.95154L17.9364 9.4764H27.0583L27.0584 9.47626L22.4809 4.95154Z" fill="#8FD3FF"/>
<path d="M22.4809 4.95153L17.9934 0.515747L22.4809 4.95153Z" fill="#FF2690"/>
<path d="M13.4926 5.02814L9.02152 0.55249L0.012207 9.47644H9.05602L9.05589 9.4763L13.4926 5.02814Z" fill="#41A5E5"/>
<path d="M17.9934 27.5524L22.5317 18.4778H13.5187L17.9934 27.5524Z" fill="#3CA0E0"/>
<path d="M24.0131 15.5159L22.5318 18.4779H26.9934L24.0131 15.5159Z" fill="#4EB2F2"/>
<path d="M9.02252 18.4778H13.5187L12.024 15.4468L9.02252 18.4778Z" fill="#1A7EBE"/>
</g>
</g>
<defs>
<clipPath id="clip0_202_15923">
<rect width="37" height="28" fill="white"/>
</clipPath>
</defs>
</svg>
