<svg width="30" height="41" viewBox="0 0 30 41" fill="none" xmlns="http://www.w3.org/2000/svg">
<g clip-path="url(#clip0_202_15801)">
<path d="M0.501709 24.2466C0.749167 19.2246 3.05199 14.7907 7.92433 11.9226C14.7084 7.92915 21.5535 4.03944 28.3678 0.0972097C28.6497 -0.065837 28.7318 -0.0190036 28.8466 0.276949C30.4884 4.51071 28.9103 8.98488 25.9594 11.6113C25.7028 11.8398 25.4127 12.0219 25.1151 12.1937C21.5685 14.2396 18.0227 16.2869 14.4779 18.3359C13.9714 18.6287 13.7177 19.1139 13.7967 19.609C13.8831 20.1506 14.3207 20.5993 14.8598 20.6973C15.2078 20.7605 15.5032 20.6185 15.7911 20.4523C19.2687 18.4453 22.7462 16.4381 26.2235 14.4308C26.5542 14.24 26.8904 14.0578 27.2129 13.854C27.399 13.7363 27.479 13.7775 27.552 13.9745C28.0608 15.3495 28.3328 16.764 28.2315 18.2323C28.0095 21.4506 26.606 24.0474 23.9687 25.8958C22.7012 26.7842 21.2994 27.4811 19.9572 28.2626C19.3542 28.6138 18.7657 28.9956 18.1401 29.3011C16.72 29.9944 16.0314 31.2138 15.7173 32.6689C15.0677 35.6786 17.4515 38.5599 20.5321 38.5336C20.7022 38.5321 20.8721 38.503 21.0419 38.4842C21.1932 38.4674 21.3116 38.5275 21.3509 38.6688C21.388 38.802 21.2954 38.8962 21.1763 38.9408C20.7829 39.0882 20.3922 39.2464 19.9907 39.3681C12.1083 41.7582 3.56779 37.1978 1.17146 29.3216C0.723614 27.8495 0.536755 26.3381 0.501709 24.2466Z" fill="#00ACEE"/>
</g>
<defs>
<clipPath id="clip0_202_15801">
<rect width="30" height="41" fill="white"/>
</clipPath>
</defs>
</svg>
