<svg width="36" height="37" viewBox="0 0 36 37" fill="none" xmlns="http://www.w3.org/2000/svg">
<g clip-path="url(#clip0_202_14980)">
<path d="M18.001 32.613C9.93163 32.613 3.39018 26.0715 3.39018 18.0022C3.39018 9.93285 9.93163 3.3914 18.001 3.3914C26.0703 3.3914 32.6118 9.93285 32.6118 18.0022C32.6118 26.0715 26.0703 32.613 18.001 32.613ZM18.001 0.00219727C8.05991 0.00219727 0.000976562 8.06113 0.000976562 18.0022C0.000976562 27.9433 8.05991 36.0022 18.001 36.0022C27.942 36.0022 36.001 27.9433 36.001 18.0022C36.001 8.06113 27.942 0.00219727 18.001 0.00219727ZM19.8188 16.4681C20.26 15.3604 20.6158 14.2108 21.1488 13.1497C21.7097 12.0328 22.4372 11.3057 23.808 11.3478C25.1205 11.388 26.1411 12.2284 26.598 13.3317C27.3203 15.0759 27.8477 16.8049 28.4372 18.6015C28.8136 19.7484 29.1812 20.9987 30.2927 21.5861C31.3202 22.2697 30.9149 22.9152 30.6484 23.3753C30.1318 24.016 29.2863 23.7984 29.2122 23.7887C28.3443 23.675 27.0313 22.2784 26.6394 21.2881C25.837 19.2609 25.6619 18.0942 24.9033 16.0493C24.8256 15.8395 24.6159 15.0542 24.5002 14.8305C24.2639 14.3733 23.6147 14.3473 23.3475 14.787C23.2698 14.9147 23.2059 15.0361 23.1565 15.1632C22.5902 16.622 21.3862 20.117 21.2662 20.3788C19.7148 23.7655 17.4498 24.178 14.7978 21.3397C14.3476 20.8581 13.9335 20.2073 13.4958 19.7175C12.7102 18.8383 12.0288 18.7633 11.3259 19.6968C10.8063 20.3867 10.2608 21.047 9.7683 21.7585C9.0535 22.7911 8.11244 23.6551 6.84133 23.7887C6.12133 23.8644 5.38642 23.5558 5.18814 22.7761C5.00209 22.0448 5.50159 21.4289 6.15002 21.2582C7.13059 21 7.27319 20.8281 7.76102 20.0481C7.82655 19.9433 8.31648 19.1617 8.38103 19.0561C10.74 15.1958 13.6375 15.2372 16.275 18.875C16.4629 19.1343 16.7721 19.5635 17.0515 19.952C17.3369 20.3486 17.9399 20.3054 18.1654 19.8722C19.0549 18.8082 19.4896 17.2945 19.8188 16.4681Z" fill="#298EEA"/>
</g>
<defs>
<clipPath id="clip0_202_14980">
<rect width="36.001" height="37" fill="white"/>
</clipPath>
</defs>
</svg>
