<svg width="41" height="30" viewBox="0 0 41 30" fill="none" xmlns="http://www.w3.org/2000/svg">
<g clip-path="url(#clip0_202_10643)">
<path d="M5.88091 14.9929L5.72116 15.0115L0.978358 10.2688H0.978202C0.330234 9.6207 0.00601562 8.77133 0.00585938 7.9218C0.00585938 7.07243 0.329765 6.22305 0.977889 5.57477C2.27414 4.27868 4.37554 4.27868 5.67195 5.57493L10.4149 10.3179L10.3807 10.5599L6.00991 14.9779L10.3964 19.3802L10.415 19.7053L5.71376 24.4064C4.41735 25.7028 2.31611 25.7031 1.01955 24.4067C-0.276547 23.1105 -0.276547 21.0091 1.02001 19.7127L5.7211 15.0116L5.88091 14.9929Z" fill="#1DB2CA"/>
<path d="M19.9982 19.9017L15.1082 15.0119L19.8965 10.2236C20.0562 10.0262 20.2249 9.83686 20.4032 9.65655C21.7763 7.89093 21.5454 6.4378 20.3768 5.26937C19.7294 4.62202 18.8226 4.20031 17.9743 4.19952C17.9743 4.19952 16.6201 4.19312 15.541 5.20499C15.483 5.25937 15.4218 5.31077 15.3648 5.36781L10.4144 10.3181L5.7207 15.0119L10.4144 19.7056L15.3232 24.6142C15.416 24.707 15.514 24.7917 15.614 24.872C17.2971 26.2243 19.2708 26.0734 20.4743 24.8701C21.6777 23.6664 21.6201 21.7972 20.2744 20.2108C20.1796 20.1101 20.0874 20.0073 19.9982 19.9017Z" fill="#2A3645"/>
<path d="M25.8119 0.807434C22.1913 0.807434 18.888 2.16384 16.3805 4.39524C16.0899 4.65384 15.8095 4.92352 15.541 5.20477C16.1621 4.66665 16.9348 4.39618 17.7084 4.39524H17.7151C18.5634 4.39618 19.4115 4.72009 20.0588 5.36743C21.2273 6.53586 21.3418 8.35867 20.4032 9.65633C20.6043 9.45274 20.8171 9.26102 21.0399 9.08102C22.3462 8.02618 24.006 7.39258 25.8119 7.39258C30.0072 7.39258 33.4204 10.8057 33.4204 15.001C33.4204 19.1963 30.0072 22.6094 25.8119 22.6094C24.006 22.6094 22.3462 21.9758 21.0399 20.9208C20.7687 20.7018 20.5132 20.4641 20.2744 20.2105C21.3059 21.5133 21.2209 23.4105 20.0173 24.6141C18.814 25.8176 16.9168 25.9029 15.614 24.8718C15.853 25.1188 16.1012 25.3571 16.3577 25.5863C16.3612 25.5894 16.3646 25.5926 16.368 25.5955C18.8771 27.8337 22.1854 29.1944 25.8119 29.1944C33.6508 29.1944 40.0055 22.8399 40.0055 15.001C40.0055 7.16211 33.6508 0.807434 25.8119 0.807434Z" fill="#6AC08F"/>
</g>
<defs>
<clipPath id="clip0_202_10643">
<rect width="41" height="30" fill="white"/>
</clipPath>
</defs>
</svg>
