<svg width="37" height="37" viewBox="0 0 37 37" fill="none" xmlns="http://www.w3.org/2000/svg">
<g clip-path="url(#clip0_202_14126)">
<path d="M29.31 29.3102C26.2894 32.3308 22.2731 33.9944 18.0012 33.9944C13.7293 33.9944 9.71321 32.3308 6.69244 29.3102C3.67181 26.2896 2.00822 22.2733 2.00822 18.0014C2.00822 13.7295 3.67181 9.71339 6.69244 6.69262C9.71321 3.672 13.7293 2.0084 18.0012 2.0084C22.2731 2.0084 26.2894 3.672 29.31 6.69262C32.3306 9.71339 33.9942 13.7295 33.9942 18.0014C33.9942 22.2733 32.3306 26.2896 29.31 29.3102ZM34.5863 10.9946C33.6796 8.85108 32.382 6.9262 30.7292 5.27344C29.0764 3.62067 27.1514 2.32298 25.008 1.41637C22.7882 0.477419 20.4308 0.00140381 18.0012 0.00140381C15.5716 0.00140381 13.2143 0.477419 10.9944 1.41637C8.85089 2.32298 6.92602 3.62067 5.27325 5.27344C3.62049 6.9262 2.3228 8.85108 1.41619 10.9946C0.477236 13.2145 0.0012207 15.5718 0.0012207 18.0014C0.0012207 20.431 0.477236 22.7884 1.41619 25.0082C2.3228 27.1516 3.62049 29.0766 5.27325 30.7294C6.92602 32.3821 8.85089 33.6798 10.9944 34.5864C13.2143 35.5252 15.5716 36.0014 18.0012 36.0014C20.4308 36.0014 22.7882 35.5252 25.008 34.5864C27.1514 33.6798 29.0764 32.3821 30.7292 30.7294C32.382 29.0766 33.6796 27.1516 34.5863 25.0082C35.5252 22.7884 36.0012 20.431 36.0012 18.0014C36.0012 15.5718 35.5252 13.2145 34.5863 10.9946ZM26.4376 5.69535H11.0843V29.3024C11.0843 29.7179 11.4212 30.055 11.8369 30.055C12.2526 30.055 12.5895 29.7179 12.5895 29.3024V20.1956H23.4522C23.8679 20.1956 24.2049 19.8587 24.2049 19.4431C24.2049 19.0274 23.8679 18.6905 23.4522 18.6905H12.5895V17.3107H23.3018C23.7173 17.3107 24.0542 16.9738 24.0542 16.5581C24.0542 16.1424 23.7173 15.8054 23.3018 15.8054H12.5895V7.2006H26.4376C26.8532 7.2006 27.1902 6.86366 27.1902 6.44798C27.1902 6.03229 26.8532 5.69535 26.4376 5.69535Z" fill="#3B99ED"/>
</g>
<defs>
<clipPath id="clip0_202_14126">
<rect width="37" height="37" fill="white"/>
</clipPath>
</defs>
</svg>
