<svg width="40" height="16" viewBox="0 0 40 16" fill="none" xmlns="http://www.w3.org/2000/svg">
<g clip-path="url(#clip0_202_13194)">
<path d="M32.0365 0.0375977C30.4665 0.0375977 29.0042 0.493956 27.7706 1.27804L19.9998 6.98525L15.9039 3.97755C15.6571 4.378 15.4085 4.77618 15.1707 5.18845C15.1135 5.28754 15.0603 5.38799 15.0039 5.48708L18.4275 8.00114L11.2435 13.2765C10.259 13.8902 9.12626 14.2147 7.96309 14.2147C4.53722 14.2147 1.74953 11.4275 1.74953 8.00114C1.74953 4.57482 4.53677 1.78758 7.96309 1.78758C9.12626 1.78758 10.2594 2.11167 11.2435 2.72575L11.9576 3.24983C12.2526 2.73984 12.5585 2.24166 12.8671 1.74712L12.229 1.27849C10.9958 0.493956 9.53307 0.0380522 7.96309 0.0380522C3.56541 0.0380522 0 3.60347 0 8.00114C0 12.3988 3.56496 15.9642 7.96309 15.9642C9.53307 15.9642 10.9958 15.5079 12.229 14.7238L19.9998 9.01704L24.1115 12.0366C24.3634 11.6238 24.6147 11.2097 24.8634 10.7784C24.9124 10.6929 24.957 10.6079 25.0056 10.5225L21.5725 8.00114L28.756 2.72575C29.7406 2.11212 30.8737 1.78758 32.0365 1.78758C35.4628 1.78758 38.25 4.57482 38.25 8.00114C38.25 11.4275 35.4628 14.2147 32.0365 14.2147C30.8733 14.2147 29.7406 13.8906 28.756 13.2765L28.0524 12.7597C27.7542 13.2747 27.4524 13.7752 27.1492 14.267L27.771 14.7233C29.0047 15.5079 30.4669 15.9638 32.0369 15.9638C36.4346 15.9638 40 12.3984 40 8.00069C39.9995 3.60301 36.4346 0.0375977 32.0365 0.0375977Z" fill="#44B74A"/>
</g>
<defs>
<clipPath id="clip0_202_13194">
<rect width="40" height="16" fill="white"/>
</clipPath>
</defs>
</svg>
