<svg width="32" height="41" viewBox="0 0 32 41" fill="none" xmlns="http://www.w3.org/2000/svg">
<g clip-path="url(#clip0_202_16050)">
<path d="M31.5118 38.4955C31.5118 39.1152 31.0732 39.5647 30.4555 39.5647H1.65657C1.03887 39.5647 0.498657 39.1152 0.498657 38.4955V1.55562C0.498657 0.935801 1.03887 0.445801 1.65657 0.445801H30.4555C31.0733 0.445801 31.5118 0.935801 31.5118 1.55562V38.4955Z" fill="white"/>
<path d="M30.4556 40.0044H1.65668C0.77535 40.0044 0.0582275 39.3271 0.0582275 38.4945V1.55475C0.0582275 0.699839 0.77535 0.00439453 1.65668 0.00439453H30.4556C31.3089 0.00439453 31.9525 0.67081 31.9525 1.55475V38.4945C31.9525 39.3553 31.3089 40.0044 30.4556 40.0044ZM1.65668 0.885473C1.26784 0.885473 0.939306 1.19196 0.939306 1.55475V38.4945C0.939306 38.8881 1.3041 39.1233 1.65668 39.1233H30.4556C30.8297 39.1233 31.0714 38.8765 31.0714 38.4945V1.55475C31.0714 1.16069 30.8182 0.885473 30.4556 0.885473H1.65668Z" fill="black"/>
<path d="M25.4041 7.40436C23.5229 7.40436 21.9926 8.93478 21.9926 10.8159C21.9926 11.598 22.2577 12.3189 22.702 12.895L16.9687 18.6284C16.6498 18.4228 16.2707 18.3028 15.8641 18.3028C15.4597 18.3028 15.0827 18.4213 14.7651 18.6248L9.03534 12.895C9.47962 12.3189 9.74486 11.598 9.74486 10.8159C9.74486 8.93478 8.21443 7.40436 6.3333 7.40436C4.45216 7.40436 2.92173 8.93478 2.92173 10.8159C2.92173 12.6971 4.45216 14.2275 6.3333 14.2275C7.11533 14.2275 7.83631 13.9624 8.4124 13.5181L14.1422 19.2478C13.9387 19.5654 13.8202 19.9424 13.8202 20.3468C13.8202 21.3414 14.5344 22.1719 15.4767 22.3534V30.5002C13.7796 30.6953 12.4571 32.14 12.4571 33.8885C12.4571 35.7697 13.9875 37.3001 15.8687 37.3001C17.7498 37.3001 19.2802 35.7697 19.2802 33.8885C19.2802 32.1735 18.008 30.7506 16.3578 30.5125V22.33C17.247 22.1086 17.9079 21.3036 17.9079 20.3468C17.9079 19.9448 17.7908 19.5699 17.5896 19.2534L23.325 13.518C23.9011 13.9624 24.622 14.2275 25.4041 14.2275C27.2853 14.2275 28.8156 12.6971 28.8156 10.8159C28.8156 8.93478 27.2853 7.40436 25.4041 7.40436ZM6.3333 13.3464C4.93792 13.3464 3.80281 12.2113 3.80281 10.8159C3.80281 9.42067 4.93792 8.28544 6.3333 8.28544C7.72855 8.28544 8.86378 9.42067 8.86378 10.8159C8.86378 11.3548 8.69397 11.8545 8.40568 12.2654L7.40101 11.2606C7.46504 11.1139 7.50118 10.9522 7.50118 10.7822C7.50118 10.1207 6.96296 9.58251 6.3014 9.58251C5.63997 9.58251 5.10188 10.1207 5.10188 10.7822C5.10188 11.4437 5.63997 11.9818 6.3014 11.9818C6.47047 11.9818 6.63131 11.9463 6.77732 11.8829L7.78274 12.8883C7.37185 13.1766 6.87214 13.3464 6.3333 13.3464ZM18.3992 33.8885C18.3992 35.2839 17.2641 36.419 15.8687 36.419C14.4734 36.419 13.3382 35.2839 13.3382 33.8885C13.3382 32.6266 14.2669 31.5775 15.4767 31.3885V32.8018C15.0067 32.9644 14.6677 33.4103 14.6677 33.9349C14.6677 34.5963 15.2058 35.1345 15.8673 35.1345C16.5287 35.1345 17.067 34.5963 17.067 33.9349C17.067 33.4483 16.7752 33.0291 16.3578 32.8411V31.4059C17.5198 31.6344 18.3992 32.6605 18.3992 33.8885ZM25.4041 13.3464C24.8652 13.3464 24.3655 13.1766 23.9546 12.8883L24.96 11.8829C25.1061 11.9463 25.2668 11.9818 25.4358 11.9818C26.0973 11.9818 26.6355 11.4437 26.6355 10.7822C26.6355 10.1207 26.0973 9.58251 25.4358 9.58251C24.7744 9.58251 24.2362 10.1207 24.2362 10.7822C24.2362 10.9523 24.2723 11.1139 24.3364 11.2607L23.3317 12.2654C23.0435 11.8545 22.8736 11.3548 22.8736 10.8159C22.8736 9.42067 24.0088 8.28544 25.4041 8.28544C26.7994 8.28544 27.9347 9.42067 27.9347 10.8159C27.9347 12.2113 26.7994 13.3464 25.4041 13.3464Z" fill="black"/>
<path d="M16.3679 1.67361L15.3155 2.90366L14.2633 1.67361H13.1533L14.7606 3.55562L13.158 5.42779H14.2732L15.3156 4.20758L16.3629 5.42779H18.2955L19.3379 4.20758L20.3852 5.42779H21.4981L19.893 3.55574L21.5081 1.67361H20.3899L19.3378 2.90366L18.2855 1.67361H16.3679ZM17.3279 5.25524L15.8708 3.55574L17.3303 1.85494L18.7828 3.55562L17.3279 5.25524ZM2.89632 3.13564H5.12356V3.96564H2.89632V3.13564ZM2.40295 1.67373C2.34502 1.67373 2.28995 1.68432 2.23937 1.70538C2.18841 1.72656 2.14369 1.75683 2.10656 1.79508C2.06968 1.83283 2.04053 1.87743 2.01972 1.92739C1.99867 1.97785 1.98795 2.03217 1.98795 2.08861V5.42779H2.81297V2.4985H5.41297V1.67373H2.40295ZM6.58571 4.6029V1.67361H5.76082V5.01291C5.76082 5.0711 5.77141 5.12616 5.79247 5.1765C5.81352 5.22708 5.84305 5.27156 5.88005 5.30843C5.9173 5.34569 5.96178 5.37521 6.01211 5.39614C6.06257 5.4172 6.11764 5.42779 6.17582 5.42779H9.22322V4.6029H6.58571ZM12.1909 1.67361V4.60315H11.1387C11.1201 4.60315 11.0807 4.60016 11.0206 4.59468C10.9619 4.58944 10.8926 4.57561 10.8141 4.55381C10.7362 4.53226 10.6526 4.49849 10.5654 4.45327C10.4817 4.40991 10.4034 4.34899 10.3325 4.27212C10.262 4.19562 10.2027 4.09795 10.1562 3.98208C10.1099 3.86671 10.0864 3.72157 10.0864 3.55076V1.67361H9.26146V3.55064C9.26146 3.76742 9.28788 3.9675 9.33995 4.14554C9.39203 4.32357 9.46491 4.48442 9.55673 4.62345C9.64855 4.76237 9.75707 4.88422 9.87966 4.98575C10.001 5.08642 10.1327 5.17052 10.2714 5.23592C10.4092 5.30096 10.5538 5.3498 10.7012 5.38094C10.8478 5.41209 10.9951 5.42779 11.1387 5.42779H12.6009C12.6573 5.42779 12.7115 5.4172 12.762 5.39614C12.8121 5.37521 12.8565 5.34606 12.8943 5.30943C12.9327 5.27205 12.9628 5.22745 12.9841 5.17637C13.0051 5.12579 13.0158 5.07085 13.0158 5.01291V1.67361H12.1909ZM25.3578 2.57549C25.2789 2.38126 25.1674 2.21195 25.0266 2.07216C24.8858 1.93225 24.7171 1.82137 24.5251 1.74251C24.333 1.66352 24.1216 1.62365 23.8966 1.62365H23.0182C22.7931 1.62365 22.5812 1.66352 22.3884 1.74238C22.1956 1.82137 22.0264 1.93225 21.8857 2.07216C21.7448 2.21195 21.6329 2.38126 21.5531 2.57525C21.4733 2.76898 21.4329 2.98215 21.4329 3.20877V3.8925C21.4329 4.12075 21.4733 4.33441 21.5532 4.52752C21.6331 4.72063 21.7448 4.88982 21.8855 5.03023C22.0263 5.17114 22.1957 5.28215 22.3888 5.36026C22.5817 5.43825 22.7933 5.47775 23.0182 5.47775H23.8966C24.1217 5.47775 24.333 5.43813 24.5249 5.36026C24.7171 5.28202 24.8859 5.17101 25.0267 5.03023C25.1674 4.8897 25.2789 4.72051 25.3578 4.52715C25.4367 4.33441 25.4767 4.12087 25.4767 3.8925V3.20877C25.4767 2.9819 25.4367 2.76885 25.3578 2.57549ZM24.6518 3.20889V3.89263C24.6518 4.00912 24.6332 4.11539 24.5969 4.20858C24.5609 4.30053 24.509 4.38001 24.4434 4.44505C24.3772 4.51033 24.2971 4.56178 24.2049 4.59779C24.1117 4.63429 24.0063 4.65286 23.8915 4.65286H23.0182C22.9034 4.65286 22.798 4.63429 22.7048 4.59779C22.6127 4.56178 22.5325 4.51033 22.4663 4.44505C22.4005 4.38001 22.3489 4.3004 22.3129 4.20858C22.2764 4.11526 22.2579 4.00899 22.2579 3.89263V3.20889C22.2579 3.09253 22.2764 2.98613 22.3129 2.89294C22.3491 2.801 22.4006 2.72139 22.4662 2.65648C22.5323 2.59119 22.6127 2.53986 22.7048 2.50373C22.798 2.46723 22.9034 2.44867 23.0182 2.44867H23.8966C24.0096 2.44867 24.1142 2.46723 24.2075 2.50361C24.2997 2.53986 24.3793 2.59119 24.4444 2.6561C24.5094 2.72114 24.5606 2.80075 24.5967 2.89282C24.6332 2.98601 24.6518 3.09241 24.6518 3.20889ZM28.6205 4.23898C28.6396 4.23586 28.6589 4.23225 28.6783 4.22839C28.7753 4.20895 28.8724 4.17694 28.9673 4.13358C29.0621 4.09022 29.1539 4.03416 29.2401 3.96713C29.3282 3.89898 29.4069 3.81576 29.4741 3.71983C29.5415 3.62377 29.5955 3.51189 29.6347 3.38743C29.6738 3.26297 29.6936 3.12056 29.6936 2.96433L29.6935 2.5502C29.6935 2.46237 29.6784 2.36731 29.6486 2.26789C29.618 2.16623 29.5676 2.07029 29.4986 1.98283C29.4286 1.89438 29.3373 1.82025 29.227 1.76232C29.115 1.70351 28.9778 1.67373 28.8194 1.67373H26.3567C26.2987 1.67373 26.2437 1.68432 26.1929 1.70538C26.1421 1.72656 26.0975 1.75671 26.06 1.79508C26.0233 1.83283 25.9941 1.87743 25.9733 1.92764C25.9522 1.97823 25.9417 2.03242 25.9417 2.08861V5.42779H26.7665V2.4985H28.8194C28.8298 2.4985 28.8413 2.49912 28.8535 2.50037L28.8632 2.50946C28.8632 2.50946 28.8685 2.52093 28.8685 2.55506V2.96433C28.8685 3.03734 28.8571 3.10212 28.8349 3.15707C28.8133 3.21076 28.7821 3.25711 28.7422 3.29473C28.7018 3.33348 28.6522 3.36475 28.595 3.38805C28.5364 3.41197 28.4703 3.42705 28.4052 3.43265H26.8499V4.25754H27.3718L28.7242 5.42779H29.997L28.6205 4.23898Z" fill="black"/>
<path d="M29.4489 38.6828H2.67879C2.01113 38.6828 1.46793 38.2201 1.46793 37.6512V7.02462C1.46793 6.45712 2.01113 5.99553 2.67879 5.99553H29.4489C30.0599 5.99553 30.4547 6.39944 30.4547 7.02462V37.6512C30.4547 38.2779 30.0599 38.6828 29.4489 38.6828ZM2.67879 6.25978C2.15689 6.25978 1.7323 6.60289 1.7323 7.02462V37.6512C1.7323 38.0743 2.15689 38.4184 2.67879 38.4184H29.4489C29.9131 38.4184 30.1903 38.1316 30.1903 37.6512V7.02462C30.1903 6.54571 29.9131 6.25978 29.4489 6.25978H2.67879Z" fill="black"/>
</g>
<defs>
<clipPath id="clip0_202_16050">
<rect width="32" height="41" fill="white"/>
</clipPath>
</defs>
</svg>
