<svg width="26" height="40" viewBox="0 0 26 40" fill="none" xmlns="http://www.w3.org/2000/svg">
<g clip-path="url(#clip0_202_11442)">
<path d="M13.0751 33.2006C13.1218 33.2144 13.1711 33.2217 13.2154 33.2421C13.2598 33.2624 13.2976 33.2946 13.3383 33.3215L13.3462 33.3283L13.3861 33.3636L13.4544 33.4251C13.555 33.5163 13.6542 33.6091 13.7523 33.7031C13.9355 33.8787 14.1146 34.0586 14.2892 34.2428C14.4793 34.4436 14.6642 34.6496 14.8412 34.862C14.9559 34.9996 15.0674 35.1399 15.1742 35.2835C15.2769 35.4212 15.3755 35.5622 15.4684 35.7068C15.551 35.8359 15.6293 35.9679 15.7006 36.1035C15.7632 36.2222 15.8205 36.3438 15.8703 36.4684C15.9565 36.6841 16.0211 36.9107 16.0427 37.1424C16.0467 37.1854 16.0492 37.2284 16.0501 37.2714C16.0509 37.3094 16.0505 37.3472 16.0496 37.3851C16.0479 37.4494 16.0441 37.5135 16.0384 37.5776C16.0149 37.8346 15.9562 38.0886 15.8591 38.3279C15.7927 38.4913 15.7088 38.6476 15.6088 38.7928C15.5271 38.9116 15.4348 39.023 15.3336 39.1258C15.2533 39.2073 15.1673 39.2834 15.0767 39.3535C15.0043 39.4096 14.929 39.4621 14.8513 39.5107C14.7881 39.5501 14.7232 39.5872 14.6569 39.6218C14.2698 39.8238 13.8405 39.9385 13.4068 39.9813C13.3399 39.9879 13.2729 39.9927 13.2056 39.996C13.1315 39.9996 13.0574 40.0011 12.9832 40.0009C12.8299 40.0002 12.6767 39.9913 12.5244 39.9734C12.2707 39.9437 12.0196 39.8889 11.7778 39.8062C11.57 39.735 11.3693 39.6429 11.1815 39.5287C10.9808 39.4066 10.7956 39.2593 10.6341 39.0886C10.527 38.9753 10.4304 38.8518 10.3467 38.7201C10.2676 38.5958 10.2 38.4644 10.1446 38.3279C10.0522 38.1004 9.99442 37.8596 9.96899 37.6155C9.9609 37.539 9.956 37.462 9.95417 37.3851C9.95246 37.3236 9.95258 37.2623 9.95634 37.2008C9.96329 37.0884 9.98074 36.9769 10.0062 36.8672C10.0342 36.7465 10.0718 36.6278 10.1163 36.512C10.1613 36.3944 10.2133 36.2795 10.2701 36.1671C10.3391 36.031 10.4152 35.8983 10.4962 35.7686C10.5828 35.6301 10.6751 35.4949 10.7712 35.3628C10.9191 35.159 11.0765 34.9619 11.2397 34.7703C11.4116 34.5683 11.59 34.3722 11.7734 34.1809C11.9366 34.0106 12.1036 33.8442 12.2743 33.6812C12.3453 33.6133 12.417 33.546 12.4894 33.4797C12.5449 33.4287 12.6009 33.3781 12.6576 33.3283L12.6653 33.3215C12.7878 33.2423 12.7889 33.2418 12.9286 33.2006H13.0751ZM13.3065 0.00650199L13.6506 0.0144826L13.8031 0.0240594L14.7364 0.0994197L16.0245 0.279669L16.1182 0.300418L17.3675 0.607674L17.7198 0.711308L18.1199 0.847435L18.6069 1.02974L18.9847 1.18775L19.572 1.46286L19.9006 1.62863L20.5655 2.0158L20.7689 2.13802L21.6761 2.79335L21.8976 2.98625L22.5227 3.5514L23.0594 4.12156L23.2067 4.28402L23.8364 5.11207L23.9308 5.26051L24.4158 6.07078L24.5519 6.32912L24.8256 6.93143L25.1102 7.63305L25.2046 7.90564L25.5082 9.00116L25.7453 10.4826L25.7865 10.943L25.8244 11.6045L25.8275 11.7007L25.8137 12.4401L25.8049 12.5792L25.7688 12.8714L25.5604 14.0519L25.5289 14.1955L25.0487 15.6786L24.6028 16.7475L24.035 17.8719L23.0178 19.6279L22.4944 20.4186L21.8607 21.3572L21.4039 21.9775L20.5122 23.1588L19.9012 23.9204L18.9968 25.0116L18.3652 25.7428L17.3834 26.8383L16.7653 27.5097L14.9388 29.3992L14.8974 29.4416L13.919 30.3942L13.378 30.9036L13.3447 30.9342L13.3027 30.9735L13.2492 31.0112L13.2101 31.0288L13.1031 31.0643L12.848 31.0534L12.8253 31.0458L12.6865 30.9589L12.6687 30.9424L12.6508 30.9261L12.5779 30.8588C12.5106 30.7963 12.4436 30.7339 12.3766 30.671L12.3615 30.6566L10.5693 28.8936L10.0146 28.324L8.59644 26.8135L8.2584 26.4472L6.54848 24.4677L6.06999 23.8802L4.56438 21.9382L4.41503 21.7401L3.27083 20.0711L2.96061 19.5751L2.13917 18.1774L1.89998 17.744L1.18195 16.2433L1.06828 15.9492L0.655907 14.8005L0.513281 14.3119L0.397448 13.839L0.2994 13.3227L0.220847 12.745L0.190521 12.3934L0.17627 11.7344L0.179234 11.6222L0.196221 11.2668L0.339417 9.82933L0.373278 9.64383L0.700029 8.20902L0.706983 8.18235L0.761138 8.02216L0.989499 7.35897L1.06007 7.19183L1.43186 6.38077L1.68461 5.90797L2.04135 5.32242L2.39751 4.80231L2.64537 4.47738L2.93712 4.13022L3.25578 3.78113L3.51561 3.5205L4.20092 2.92264L4.7127 2.5081L5.31821 2.10154L5.74871 1.82826L6.66215 1.35136L7.9581 0.818363L8.02308 0.792597L9.17526 0.459005L9.62731 0.358905L10.2493 0.234863L10.6712 0.171132L11.3211 0.090869L11.7601 0.0523338L12.6351 0.00513388H12.6366L12.6405 0.00501987L12.9655 0.00159958L12.9983 0.00171359L13.0014 0.00114355L13.0262 0.000915527L13.3065 0.00650199ZM12.5678 2.04476C12.4374 2.05844 12.3078 2.07634 12.1791 2.10108C11.9864 2.13802 11.7962 2.18864 11.6106 2.25215C11.4103 2.32044 11.2155 2.40378 11.0272 2.50034C10.9024 2.56453 10.7807 2.63442 10.6623 2.70978C9.78054 3.27036 9.10788 4.10868 8.6116 5.01813C8.52871 5.16999 8.45096 5.3247 8.37742 5.48123C8.28986 5.66775 8.20835 5.85712 8.1323 6.04877C8.03334 6.2988 7.94362 6.55269 7.86256 6.80933C7.76325 7.12388 7.67684 7.44242 7.60182 7.7637C7.50742 8.16798 7.4308 8.57636 7.36912 8.9868C7.2908 9.50873 7.23699 10.0342 7.20313 10.5608C7.18169 10.8953 7.16869 11.2304 7.16231 11.5656C7.15479 11.951 7.15764 12.3364 7.18477 12.7211C7.24839 13.6217 7.40378 14.5136 7.60695 15.3926C7.86278 16.5005 8.19615 17.5905 8.57261 18.6629C9.04552 20.0103 9.58775 21.3328 10.1739 22.6346C10.8983 24.2442 11.6913 25.8214 12.5339 27.3723L12.5978 27.4889V2.04191L12.5678 2.04476ZM15.8995 2.10872C16.009 2.18237 16.1158 2.26001 16.2199 2.34096C17.175 3.08453 17.8812 4.1056 18.3862 5.19655C18.4791 5.39721 18.5655 5.60094 18.6459 5.80696C18.7511 6.07648 18.8467 6.3501 18.9316 6.62657C19.3271 7.91374 19.5322 9.25187 19.6131 10.5941C19.6331 10.9274 19.6455 11.2611 19.6508 11.5949C19.655 11.8556 19.6557 12.1166 19.6468 12.3774C19.637 12.6628 19.616 12.9478 19.5871 13.2319C19.5205 13.8846 19.4117 14.5336 19.2738 15.1749C19.1129 15.9232 18.9176 16.6632 18.6963 17.3958C18.4008 18.3741 18.0608 19.3385 17.6912 20.2912C17.3544 21.1588 16.9931 22.0167 16.6127 22.8661C15.9293 24.3922 15.1845 25.8902 14.3942 27.3636L14.5372 27.2172C15.6523 26.0687 16.7319 24.8851 17.7651 23.6621C18.7531 22.4925 19.6994 21.2859 20.5746 20.0293C21.2848 19.0097 21.948 17.9559 22.5234 16.8538C22.7826 16.3575 23.022 15.8508 23.2342 15.3327C23.4049 14.9163 23.5575 14.4919 23.6824 14.0595C23.8349 13.5313 23.9497 12.9907 23.9932 12.442C24.0126 12.1972 24.014 11.9515 24.0087 11.706C24.003 11.4426 23.9894 11.1791 23.9673 10.9163C23.8829 9.91392 23.6711 8.9193 23.3064 7.98066C23.059 7.34392 22.7414 6.73431 22.3574 6.16905C21.7069 5.21172 20.8659 4.39244 19.9063 3.74715C19.1981 3.27093 18.4282 2.88923 17.6269 2.5968C17.064 2.39135 16.4861 2.22991 15.8995 2.10872Z" fill="url(#paint0_linear_202_11442)"/>
</g>
<defs>
<linearGradient id="paint0_linear_202_11442" x1="3.99381" y1="3.60302" x2="25.3935" y2="13.4536" gradientUnits="userSpaceOnUse">
<stop stop-color="#3285EF"/>
<stop offset="1" stop-color="#A63EE1"/>
</linearGradient>
<clipPath id="clip0_202_11442">
<rect width="26" height="40.0009" fill="white"/>
</clipPath>
</defs>
</svg>
