<svg width="37" height="37" viewBox="0 0 37 37" fill="none" xmlns="http://www.w3.org/2000/svg">
<path d="M3.8572 0.00219727H32.1472C34.2772 0.00219727 36.0022 1.7272 36.0022 3.8572V32.1472C36.0022 34.2772 34.2772 36.0022 32.1472 36.0022H3.8572C1.7272 36.0022 0.00219727 34.2772 0.00219727 32.1472V3.8572C0.00219727 1.7272 1.7272 0.00219727 3.8572 0.00219727V0.00219727ZM13.0417 8.6872C13.0417 7.2022 11.8417 6.0022 10.3417 6.0022C8.8567 6.0022 7.6567 7.2022 7.6567 8.6872C7.6567 9.5122 8.0467 10.2922 8.7067 10.8022V28.3672C8.7067 28.8022 8.8867 29.2222 9.1867 29.5372C9.4867 29.8372 9.9067 30.0022 10.3417 30.0022C11.1667 30.0022 11.9317 29.3722 11.9317 28.3672V24.7222C12.0217 24.6772 12.1267 24.6772 12.2167 24.6322C13.8067 23.9122 15.7717 23.2372 17.6467 23.2372C20.2417 23.2372 21.2467 24.5722 23.4067 24.5722C24.9367 24.5722 26.3767 24.0472 27.7267 23.4772C28.0567 23.3272 28.3417 23.1922 28.3417 22.8472V11.5672C28.3417 11.2372 28.0117 10.9522 27.6217 10.9522C27.1417 10.9522 25.1317 12.2422 23.3017 12.2422C21.9367 12.2422 20.4067 10.9522 17.3617 10.9522C14.7367 10.9522 12.1717 12.2272 11.9767 12.2872V10.8022C12.6517 10.3072 13.0567 9.5272 13.0417 8.6872Z" fill="#228BE6"/>
</svg>
