<svg width="36" height="37" viewBox="0 0 36 37" fill="none" xmlns="http://www.w3.org/2000/svg">
<g clip-path="url(#clip0_202_15125)">
<mask id="mask0_202_15125" style="mask-type:alpha" maskUnits="userSpaceOnUse" x="0" y="0" width="37" height="37">
<path d="M1.12598 0.00158691H34.876C35.4973 0.00158691 36.001 0.505267 36.001 1.12659V34.8766C36.001 35.4979 35.4973 36.0016 34.876 36.0016H1.12598C0.504656 36.0016 0.000976562 35.4979 0.000976562 34.8766V1.12659C0.000976562 0.505267 0.504656 0.00158691 1.12598 0.00158691Z" fill="white"/>
</mask>
<g mask="url(#mask0_202_15125)">
<path d="M1.12598 0.00158691H34.876C35.4973 0.00158691 36.001 0.505267 36.001 1.12659V34.8766C36.001 35.4979 35.4973 36.0016 34.876 36.0016H1.12598C0.504656 36.0016 0.000976562 35.4979 0.000976562 34.8766V1.12659C0.000976562 0.505267 0.504656 0.00158691 1.12598 0.00158691Z" fill="#9B183D"/>
<path d="M36.001 0.00158691H0.000976562V36.0016H36.001V0.00158691Z" fill="#9B183D"/>
<path d="M36.001 0.00158691H18.001V18.0016H36.001V0.00158691Z" fill="#EE0036"/>
<path d="M18.001 18.0016H0.000976562V36.0016H18.001V18.0016Z" fill="#702440"/>
<path d="M20.3684 12.2222C24.7093 11.8952 27.3333 9.82806 28.1509 7.07306C22.4222 9.71261 15.274 6.4835 13.9211 12.3158L13.2275 15.425C14.434 13.553 16.0277 12.5493 20.3684 12.2222ZM18.1113 12.7517C15.9778 13.059 14.2665 14.0487 13.3061 15.787C12.9969 16.3464 12.8883 16.9475 12.8883 16.9475L12.3974 19.1483C13.0123 18.0516 14.1121 16.65 16.9945 15.9831C17.0593 15.6341 17.4529 13.6338 18.1113 12.7517ZM11.9494 21.1564L11.1996 24.5179C13.1862 20.7353 17.4615 20.0011 17.9894 19.8908C21.7124 19.1122 23.5048 17.2637 24.2176 14.8615C20.9691 16.6985 13.3867 14.3919 11.9494 21.1564ZM10.8385 26.1375L10.2866 28.6115C14.6894 28.3637 15.175 24.1325 15.8934 20.7713C14.5236 21.2494 11.5048 23.1231 10.8385 26.1375Z" fill="white"/>
</g>
</g>
<defs>
<clipPath id="clip0_202_15125">
<rect width="36.001" height="37" fill="white"/>
</clipPath>
</defs>
</svg>
