<svg width="41" height="20" viewBox="0 0 41 20" fill="none" xmlns="http://www.w3.org/2000/svg">
<g clip-path="url(#clip0_202_14134)">
<path d="M0.00463867 10.0009C0.00463867 7.29403 0.974003 4.97121 2.91273 3.03248C4.85146 1.09375 7.17428 0.12439 9.88118 0.12439C12.5881 0.12439 14.9109 1.09375 16.8496 3.03248L20.0321 6.05032L23.2145 2.97761C25.1167 1.07546 27.4212 0.12439 30.1281 0.12439C32.7984 0.12439 35.1121 1.09375 37.0691 3.03248C39.0261 4.97121 40.0046 7.29403 40.0046 10.0009C40.0046 12.7078 39.0261 15.0307 37.0691 16.9694C35.1121 18.9081 32.7984 19.8775 30.1281 19.8775C27.4212 19.8775 25.0984 18.9081 23.1596 16.9694L20.0321 13.9516L16.7948 17.0243C14.8926 18.9264 12.5881 19.8775 9.88118 19.8775C7.17428 19.8775 4.85146 18.9081 2.91273 16.9694C0.974003 15.0307 0.00463867 12.7078 0.00463867 10.0009ZM9.88118 5.83084C8.74721 5.83084 7.7687 6.24236 6.94565 7.0654C6.12261 7.88845 5.71109 8.86696 5.71109 10.0009C5.71109 11.1715 6.11346 12.1591 6.91822 12.9639C7.72297 13.7687 8.71063 14.171 9.88118 14.171C11.0517 14.171 12.0394 13.7687 12.8441 12.9639L15.862 10.0009L12.8441 7.09284C12.0028 6.2515 11.0152 5.83084 9.88118 5.83084ZM33.0911 12.9639C33.8958 12.1591 34.2982 11.1715 34.2982 10.0009C34.2982 8.83038 33.8958 7.84273 33.0911 7.03797C32.2863 6.23321 31.3078 5.83084 30.1555 5.83084C29.0033 5.83084 28.0248 6.23321 27.22 7.03797L24.1473 10.0009L27.1651 12.909C27.9699 13.7138 28.9575 14.1253 30.1281 14.1436C31.2987 14.1619 32.2863 13.7687 33.0911 12.9639Z" fill="black"/>
</g>
<defs>
<clipPath id="clip0_202_14134">
<rect width="41" height="20" fill="white"/>
</clipPath>
</defs>
</svg>
