<svg width="37" height="34" viewBox="0 0 37 34" fill="none" xmlns="http://www.w3.org/2000/svg">
<g clip-path="url(#clip0_202_9639)">
<path d="M36.0053 17.0023V32.2144C36.0053 33.06 35.3188 33.7465 34.4733 33.7465H9.90953C9.06395 33.7465 8.37744 33.06 8.37744 32.2144V17.0023L22.61 15.3279L36.0053 17.0023Z" fill="#036C70"/>
<path d="M9.90953 0.258057H34.4733C35.3188 0.258057 36.0053 0.944568 36.0053 1.79015V17.0022H8.37744V1.79015C8.37744 0.944568 9.06395 0.258057 9.90953 0.258057Z" fill="#37C6D0"/>
<path d="M23.4473 21.1882H31.8194V29.5603H23.4473V21.1882Z" fill="#1A9BA1"/>
<path d="M27.6332 13.6532C30.4075 13.6532 32.6565 11.4042 32.6565 8.62995C32.6565 5.85568 30.4075 3.60669 27.6332 3.60669C24.859 3.60669 22.61 5.85568 22.61 8.62995C22.61 11.4042 24.859 13.6532 27.6332 13.6532Z" fill="#1A9BA1"/>
<path d="M27.6333 11.1417C29.0205 11.1417 30.145 10.0172 30.145 8.63004C30.145 7.2429 29.0205 6.11841 27.6333 6.11841C26.2462 6.11841 25.1217 7.2429 25.1217 8.63004C25.1217 10.0172 26.2462 11.1417 27.6333 11.1417Z" fill="#036C70"/>
<path opacity="0.1" d="M18.5663 6.95569H8.37744V27.8859H18.5663C19.4119 27.8859 20.0984 27.1994 20.0984 26.3538V8.48778C20.0984 7.6422 19.4119 6.95569 18.5663 6.95569Z" fill="black"/>
<path opacity="0.2" d="M17.7291 7.79272H8.37744V28.723H17.7291C18.5747 28.723 19.2612 28.0364 19.2612 27.1909V9.32482C19.2612 8.47924 18.5747 7.79272 17.7291 7.79272Z" fill="black"/>
<path opacity="0.2" d="M17.7291 7.79272H8.37744V27.0485H17.7291C18.5747 27.0485 19.2612 26.362 19.2612 25.5164V9.32482C19.2612 8.47924 18.5747 7.79272 17.7291 7.79272Z" fill="black"/>
<path opacity="0.2" d="M16.8919 7.79272H8.37744V27.0485H16.8919C17.7374 27.0485 18.424 26.362 18.424 25.5164V9.32482C18.424 8.47924 17.7374 7.79272 16.8919 7.79272Z" fill="black"/>
<path d="M1.53746 7.79272H16.8835C17.7291 7.79272 18.4156 8.47924 18.4156 9.32482V24.6709C18.4156 25.5164 17.7291 26.203 16.8835 26.203H1.53746C0.691883 26.2113 0.00537109 25.5248 0.00537109 24.6792V9.32482C0.00537109 8.47924 0.691883 7.79272 1.53746 7.79272Z" fill="url(#paint0_linear_202_9639)"/>
<path d="M12.3207 13.6366H8.00075V16.3576H12.0277V17.9734H8.00075V21.992H6.05005V12.0125H12.3291L12.3207 13.6366Z" fill="white"/>
</g>
<defs>
<linearGradient id="paint0_linear_202_9639" x1="3.20505" y1="6.59362" x2="15.2243" y2="27.4104" gradientUnits="userSpaceOnUse">
<stop stop-color="#058F92"/>
<stop offset="0.5" stop-color="#038489"/>
<stop offset="1" stop-color="#026D71"/>
</linearGradient>
<clipPath id="clip0_202_9639">
<rect width="37" height="34" fill="white"/>
</clipPath>
</defs>
</svg>
