<svg width="34" height="36" viewBox="0 0 34 36" fill="none" xmlns="http://www.w3.org/2000/svg">
<g clip-path="url(#clip0_202_11471)">
<path d="M30.5902 6.98671L19.7199 0.720276C18.0254 -0.238871 15.9472 -0.238871 14.2527 0.720276L3.38239 6.98671C1.40015 8.10571 0.696777 9.76823 0.696777 11.7185V24.2833C0.696777 26.2336 1.71987 28.024 3.41436 29.0151L14.2847 35.2816C15.9792 36.2407 18.0573 36.2407 19.7518 35.2816L30.5902 29.0151C32.2847 28.056 33.3078 26.2336 33.3078 24.2833V11.7185C33.3078 9.76823 32.2847 7.97783 30.5902 6.98671ZM23.3007 27.1608C23.3007 27.4805 23.0769 27.7043 22.7891 27.7043H11.2474C10.9277 27.7043 10.7039 27.4805 10.7039 27.1608V24.7949C10.7039 24.5071 10.7998 24.2514 11.0236 24.0276L12.3984 22.6848L13.2296 14.9476C13.2616 14.7238 13.1657 14.532 13.0058 14.4041L11.8868 13.413C11.663 13.2212 11.5671 12.9334 11.5671 12.6457V8.87303C11.5671 8.55331 11.7909 8.29754 12.1106 8.29754H13.8051C14.0929 8.29754 14.3806 8.55331 14.3806 8.84106V9.70429H15.7874V8.87303C15.7874 8.55331 16.0431 8.29754 16.3629 8.29754H17.7376C18.0254 8.29754 18.2492 8.55331 18.2492 8.84106V9.70429H19.6559V8.905C19.6559 8.58529 19.9756 8.29754 20.2954 8.29754H21.9579C22.2456 8.29754 22.5653 8.55331 22.5653 8.84106V12.7416C22.5653 12.9974 22.4375 13.2212 22.2776 13.413L21.0627 14.4041C20.9028 14.532 20.8389 14.7238 20.8389 14.9157L21.7021 22.6848L23.0769 24.0915C23.2367 24.2514 23.3007 24.4432 23.3007 24.667V27.1608ZM17.0343 19.04C16.1391 19.008 15.4357 19.8073 15.4357 20.6705V23.9956C15.4357 24.1874 15.5955 24.3473 15.7874 24.3473H18.1852C18.3771 24.3473 18.5689 24.1554 18.5689 23.9636V20.6705C18.5369 19.8073 17.9295 19.072 17.0343 19.04Z" fill="#524B5A"/>
</g>
<defs>
<clipPath id="clip0_202_11471">
<rect width="34" height="36.0009" fill="white"/>
</clipPath>
</defs>
</svg>
