<svg width="28" height="41" viewBox="0 0 28 41" fill="none" xmlns="http://www.w3.org/2000/svg">
<g clip-path="url(#clip0_202_11385)">
<path d="M27.4891 38.3652C27.4891 39.2694 21.4526 40.0025 14.0061 40.0025C6.55963 40.0025 0.523132 39.2694 0.523132 38.3652C0.523132 37.4609 7.60434 36.728 14.0061 36.728C21.6267 36.728 27.4891 37.4609 27.4891 38.3652Z" fill="#1A4658"/>
<path d="M26.6543 26.5516C26.237 26.5516 25.7875 26.359 25.4664 24.8823C25.1453 23.4057 24.6639 21.8968 24.6639 21.8968C25.1776 21.8968 25.4664 21.672 25.4664 21.672C25.1133 21.5114 24.3428 20.9658 23.8293 20.2916C23.3156 19.6175 21.9994 18.5259 21.9994 18.5259V16.3431C21.9994 14.8663 22.9465 13.7107 22.9465 13.7107C22.3045 13.7107 21.9994 14.2885 21.9994 14.2885V11.1746C21.9994 8.09271 23.5563 6.71244 23.5563 6.71244C23.0747 6.68038 22.7538 6.90502 22.7538 6.90502C22.9785 4.62584 23.6768 3.95164 23.6768 3.95164C21.1086 3.27743 19.676 4.78629 19.676 4.78629C19.3871 3.40596 20.5167 2.60308 20.5167 2.60308C19.2006 2.31418 18.112 2.69941 18.112 2.69941C18.112 0.677 18.916 0.00244141 18.916 0.00244141C14.9032 0.00244141 12.6248 3.01967 12.6248 3.01967C12.4644 1.73552 12.8177 0.610834 12.8177 0.610834C8.93345 2.24808 7.90642 5.87377 7.90642 5.87377C7.64965 5.2639 7.61759 3.87927 7.61759 3.87927C7.61759 3.87927 6.0124 6.56785 5.7235 8.42967C5.43459 10.2917 5.98027 15.6367 5.98027 15.6367C5.98027 15.6367 5.72357 15.3158 5.17782 15.2516C5.17782 15.2516 5.75563 15.8937 5.75563 17.3383C5.75563 17.3383 5.53085 17.1457 5.14569 17.242C5.14569 17.242 5.75556 17.7877 5.81982 18.7186C5.81982 18.7186 5.11355 19.2002 4.72832 19.6818C4.72832 19.6818 4.11831 19.7138 3.79734 19.8101C3.79734 19.8101 4.31103 20.099 4.40736 20.3559C4.40736 20.3559 2.8985 21.8968 2.12803 23.1488C2.12803 23.1488 2.80224 22.7315 3.28373 22.8599C3.28373 22.8599 2.22429 24.1439 1.87119 26.2627C1.87119 26.2627 2.38481 26.006 2.60952 26.1344C2.60952 26.1344 1.96745 27.4826 1.93538 28.8951L1.22919 29.3125L1.77494 29.6977C1.77494 29.6977 1.35757 31.4312 1.26125 32.4264C1.26125 32.4264 1.58222 32.1054 1.83906 32.0091C1.83906 32.0091 2.19223 32.8437 2.67378 33.4857C3.15534 34.1278 4.24691 34.6735 4.88891 34.6735L6.09562 34.6265C5.94595 35.2723 5.65071 35.8199 5.02836 35.8486L4.95931 35.9595C4.94627 35.9585 4.93345 35.9579 4.9209 35.9576C4.90857 36.1462 4.52799 36.1802 4.42335 36.3108C4.1052 36.7077 3.86259 37.2531 3.70102 37.7393C3.58264 38.0957 3.63859 38.0956 3.55657 38.4617C3.52972 38.5815 3.40542 38.7094 3.36399 38.8308C3.7106 38.7143 4.67125 38.6366 5.17725 38.5994L5.18578 39.0473C5.18578 39.0473 5.26921 39.1249 5.40739 39.1811C5.41218 39.1802 5.41676 39.1789 5.42254 39.1793C5.46947 39.1832 5.51478 39.1901 5.5591 39.201C6.31843 39.1331 6.84713 39.2612 7.72723 39.1882C7.89846 39.1678 8.05905 39.1437 8.20893 39.0584C8.25156 38.931 8.25727 38.9232 8.27735 38.7587C8.28165 38.7294 8.28165 38.6993 8.28869 38.6635C8.30251 38.6612 8.31589 38.6592 8.32935 38.6573C8.3345 38.6553 8.34267 38.6536 8.36078 38.6529C8.36451 38.6518 8.36769 38.65 8.37191 38.6497C8.38587 38.6484 8.39975 38.6473 8.4137 38.6461C8.42328 38.6425 8.43244 38.6415 8.44069 38.6437C8.60001 38.6295 8.85572 38.6161 9.01497 38.6074C9.53268 38.6065 10.2138 38.6661 10.2138 38.6661C10.2559 38.0859 10.2981 37.1855 11.2371 34.5611L11.4698 34.4167C11.4698 34.4167 14.3539 35.4329 17.0299 34.3756C17.2417 34.8969 17.9269 36.6487 18.0346 37.7531C18.1267 37.8826 18.1165 38.0468 18.1196 38.2209C18.1222 38.3682 18.1346 38.5155 18.1385 38.6623C18.2348 38.6492 18.5823 38.6067 19.0209 38.6074C19.1801 38.6161 19.4359 38.6295 19.5952 38.6437C19.6035 38.6415 19.6126 38.6425 19.6222 38.6461C19.6361 38.6473 19.65 38.6484 19.664 38.6497C19.6682 38.65 19.6714 38.6518 19.6752 38.6529C19.6932 38.6536 19.7014 38.6553 19.7066 38.6573C19.72 38.6592 19.7334 38.6612 19.7472 38.6635C19.7542 38.6993 19.7542 38.7294 19.7586 38.7587C19.7786 38.9232 19.7843 38.931 19.8269 39.0584C19.8407 39.0662 19.8546 39.0729 19.8685 39.0798C20.3477 39.019 20.8332 39.0079 21.3154 39.0307C21.6947 39.0487 22.0674 39.1199 22.4407 39.1878C22.4408 39.1913 22.441 39.1949 22.441 39.1985C22.4787 39.2025 22.5154 39.2052 22.5522 39.2076C22.7524 39.2434 22.9532 39.2767 23.1553 39.2986C23.1592 39.0457 23.1578 38.8247 23.1525 38.6306C23.5546 38.6498 24.1366 38.7299 24.3807 38.7654C24.4775 38.7886 24.5562 38.8029 24.6387 38.8207C24.6499 38.824 24.6617 38.8274 24.672 38.8308C24.6715 38.8298 24.6711 38.8288 24.6707 38.8279C24.7535 38.8465 24.8429 38.87 24.9609 38.911C24.9429 38.6938 24.9445 38.6984 24.9158 38.4261C24.8936 38.2155 24.7426 37.5758 24.4601 37.3119C24.4601 37.3119 24.7679 37.4449 24.8619 37.4979C24.5585 37.0868 24.411 36.4991 23.4576 36.0938C23.4576 36.0938 23.6318 36.0117 23.7909 35.991C23.6246 35.8885 23.4975 35.8482 23.3291 35.8604C23.3863 35.6979 23.6381 35.288 23.8493 35.2354C23.8493 35.2354 23.7197 35.1452 23.5077 35.2149C23.4289 35.2562 23.3524 35.3005 23.278 35.353C23.2499 35.3728 23.2089 35.3523 23.2006 35.3215C23.1339 35.075 23.0906 34.8246 23.0513 34.5731C24.9723 34.5034 25.2418 33.5179 25.2418 33.5179C25.4023 33.6464 25.4022 33.9352 25.4022 33.9352C26.2368 32.8437 26.1406 31.7522 26.1406 31.7522C26.3332 31.7843 26.4937 31.9127 26.4937 31.9127C26.5901 30.2434 26.0765 27.3863 26.0765 27.3863C26.3333 27.5147 26.4937 27.3542 26.4937 27.3542C26.2048 27.2258 26.1728 26.9047 26.1728 26.9047C26.5901 26.9369 26.6543 26.5516 26.6543 26.5516Z" fill="#EDF7FA"/>
<path d="M8.28891 38.6636C8.28891 38.6636 8.36416 37.8517 8.09943 37.2659C8.09943 37.2659 8.60085 37.2999 8.68513 38.6241C8.68513 38.6241 8.33393 38.6649 8.28891 38.6636Z" fill="#CDE9EE"/>
<path d="M5.77216 35.9256L5.77526 35.9006C5.77709 35.913 5.77681 35.9225 5.77216 35.9256Z" fill="#CDE9EE"/>
<path d="M6.24151 38.6006C6.23862 38.5999 6.237 38.5994 6.237 38.5994C6.237 38.5994 6.23904 38.5939 6.24285 38.5842L6.24151 38.6006Z" fill="#CDE9EE"/>
<path d="M12.625 3.01967C12.4645 1.73552 12.8179 0.610834 12.8179 0.610834C8.93352 2.24808 7.90642 5.87377 7.90642 5.87377C7.64965 5.2639 7.61759 3.87927 7.61759 3.87927C7.61759 3.87927 6.0124 6.56785 5.7235 8.42967C5.43459 10.2917 5.98027 15.6367 5.98027 15.6367C5.98027 15.6367 5.72357 15.3158 5.17782 15.2516C5.17782 15.2516 5.75563 15.8937 5.75563 17.3383C5.75563 17.3383 5.53085 17.1457 5.14569 17.242C5.14569 17.242 5.75556 17.7877 5.81982 18.7186C5.81982 18.7186 5.11355 19.2002 4.72832 19.6818C4.72832 19.6818 4.11831 19.7138 3.79734 19.8101C3.79734 19.8101 4.31103 20.099 4.40736 20.3559C4.40736 20.3559 2.8985 21.8968 2.12803 23.1488C2.12803 23.1488 2.80224 22.7315 3.28373 22.8599C3.28373 22.8599 2.22429 24.1439 1.87119 26.2627C1.87119 26.2627 2.38481 26.006 2.60952 26.1344C2.60952 26.1344 1.96745 27.4826 1.93538 28.8951L1.22919 29.3125L1.77494 29.6977C1.77494 29.6977 1.35757 31.4312 1.26125 32.4264C1.26125 32.4264 1.58222 32.1054 1.83906 32.0091C1.83906 32.0091 2.19223 32.8437 2.67378 33.4857C3.15534 34.1278 4.24691 34.6735 4.88891 34.6735L4.97016 34.6624C4.93436 34.8837 4.89406 35.1042 4.83529 35.3215C4.82697 35.3523 4.78603 35.3728 4.75785 35.353C4.68351 35.3005 4.60705 35.2562 4.5282 35.2149C4.31625 35.1452 4.18652 35.2354 4.18652 35.2354C4.39777 35.288 4.64954 35.6979 4.70683 35.8604C4.53835 35.8482 4.4113 35.8885 4.24494 35.991C4.40419 36.0117 4.57823 36.0938 4.57823 36.0938C3.62499 36.4991 3.47736 37.0868 3.17401 37.4979C3.26794 37.4449 3.57573 37.3119 3.57573 37.3119C3.29324 37.5758 3.1423 38.2155 3.12011 38.4261C3.09143 38.6984 3.09298 38.6938 3.07508 38.911C3.32777 38.8231 3.45059 38.8145 3.65515 38.7654C3.97125 38.7194 4.85467 38.5983 5.17916 38.632L5.128 39.2561C5.128 39.2561 5.13448 39.2561 5.14392 39.2559C5.3105 39.2081 5.44622 39.2145 5.59483 39.1985C5.59701 39.0265 5.60603 38.8546 5.62012 38.6833C5.61019 38.3904 5.64655 38.1237 5.70637 37.8264C5.70835 37.8164 5.71081 37.806 5.71286 37.796C5.83074 37.3901 6.03573 37.159 6.1689 37.0169C6.21309 36.9697 6.25149 36.9138 6.28433 36.8565C6.36381 36.7508 6.44639 36.613 6.51016 36.4391C6.64215 36.079 6.58556 35.2878 6.32033 34.5156C6.60001 34.9179 6.85474 35.2709 6.97551 35.3917L6.96748 34.4087C6.96748 34.4087 7.4811 34.9219 7.94081 35.3097C8.16214 35.503 8.43512 35.7543 8.62897 35.8545C8.64299 35.8633 8.6556 35.7699 8.67104 35.9108H8.6709C8.67287 35.9108 8.67477 35.8829 8.67674 35.8841C8.93711 36.0301 9.20495 36.1461 9.45566 36.3084C9.48251 36.3257 9.50992 36.3341 9.53627 36.3523C9.65233 36.4322 9.8566 36.521 10.0402 36.6177L10.2138 38.6681C10.3703 36.5132 11.5982 34.4498 11.5982 34.4498L11.5533 34.4359C11.1733 34.3185 8.39326 33.3567 6.7508 29.9225C6.64264 29.6963 7.36074 30.1792 7.36074 30.1792C6.68654 28.542 6.42969 25.9096 6.42969 25.9096C6.65441 26.1022 6.87919 26.1343 6.87919 26.1343C6.39763 24.7859 6.20505 23.1166 6.20505 21.6078C6.07667 13.4859 9.07825 11.624 9.07825 11.624C8.56463 11.4314 8.01888 11.4475 8.01888 11.4475C8.61283 10.0189 10.587 8.02858 10.587 8.02858C10.0573 8.06072 7.98668 8.62239 7.98668 8.62239C9.70419 4.14415 11.4378 2.95639 11.4378 2.95639C11.3094 4.03175 11.7267 5.17145 11.7267 5.17145C15.4506 0.564679 18.4425 0.779597 18.4425 0.779597C18.6644 0.317489 18.9165 0.00244141 18.9165 0.00244141C14.9036 0.00244141 12.625 3.01967 12.625 3.01967Z" fill="#CDE9EE"/>
<path d="M23.1513 38.6382C23.1513 38.6382 23.1151 37.4744 22.8503 36.8885C22.8503 36.8885 23.5405 37.3139 23.5366 38.6581C23.5366 38.6581 23.1963 38.6395 23.1513 38.6382Z" fill="#CDE9EE"/>
<path d="M5.19383 32.6527C5.64846 28.1999 5.7722 19.489 5.7722 19.489C4.78506 21.4392 3.99057 24.9785 3.99057 24.9785L4.18315 25.749L3.74979 25.5564C3.05325 27.9737 3.52452 31.2097 3.6806 32.1213C4.12368 32.4721 4.65146 32.5904 5.19383 32.6527Z" fill="#ABD8D7"/>
<path d="M4.26239 32.5564C4.40353 33.2691 4.54996 33.9554 4.71259 34.6633C4.83301 34.6814 4.96845 34.6723 4.96845 34.6723C5.07894 34.2418 5.09726 33.5755 5.18315 32.7558C4.86662 32.7187 4.55609 32.6625 4.26239 32.5564Z" fill="#ABD8D7"/>
<path d="M19.3488 36.3937C19.3229 36.4012 19.3032 36.3896 19.2926 36.3719C19.2426 36.3817 19.2044 36.3907 19.1787 36.3974C19.1787 36.3972 19.1788 36.3972 19.1788 36.3972C19.8411 35.9152 19.902 35.4056 19.902 35.4056C19.4626 35.6036 18.9962 35.6776 18.7693 35.7037C20.3002 34.3768 20.5545 31.9128 20.5545 31.9128C19.9275 32.6825 19.0377 33.333 18.3501 33.7696L18.3515 33.7666C18.3515 33.7666 17.8908 34.0242 17.465 34.2249C17.4463 34.222 17.4276 34.227 17.4136 34.2488C17.1949 34.3501 16.9909 34.4328 16.8708 34.4529C16.8708 34.4529 17.2254 35.1076 17.3734 35.4606L17.3444 35.4841C17.3444 35.4841 17.8573 36.6965 18.044 37.8709C18.0638 38.0693 18.079 38.2433 18.0896 38.3761C18.0986 38.5479 18.1108 38.6663 18.1108 38.6663C18.789 38.5659 19.7469 38.6636 19.7469 38.6636C19.7424 38.7741 19.803 39.0394 19.8142 39.0874C20.1363 39.044 20.4612 39.0251 20.7862 39.0222C20.7819 37.884 20.7318 35.9926 19.3488 36.3937Z" fill="#CDE9EE"/>
<path d="M5.15826 32.9961C4.09473 32.8162 3.12958 31.594 3.12958 31.594C3.90504 32.4185 4.87041 32.5289 4.87041 32.5289C4.99781 31.5873 4.21946 29.4319 4.21946 29.4319C4.79593 30.1498 5.11126 30.9801 5.28368 31.6598L5.15826 32.9961Z" fill="#83BAC0"/>
<path d="M7.57196 31.3289C7.57196 31.3289 8.40866 32.8035 9.14297 33.4416C9.93549 34.1301 10.6718 35.1029 10.9848 35.6927C10.9848 35.6927 11.3821 34.7699 11.5988 34.4488C11.5988 34.4488 9.25135 33.7606 7.57196 31.3289Z" fill="#ABD8D7"/>
<path d="M18.4921 34.2051C18.6084 34.0414 18.7417 33.8893 18.8687 33.7339C19.0769 33.479 19.3148 33.2315 19.4896 32.9541C19.1879 33.1799 18.8519 33.3755 18.5084 33.5822C17.5116 34.2576 16.8171 34.4489 16.8171 34.4489C17.0338 34.77 17.431 35.6928 17.431 35.6928C17.6204 35.3358 17.9655 34.8385 18.3837 34.3488C18.4188 34.3001 18.4578 34.2534 18.4921 34.2051Z" fill="#ABD8D7"/>
<path d="M7.25433 9.36793C7.16308 9.37455 6.87093 9.38195 6.87093 9.38195C4.22414 9.56671 2.27861 7.51562 2.27861 7.51562C2.27861 7.51562 2.1047 9.11665 3.25447 10.5196C4.4046 11.9226 6.73515 12.1626 6.73515 12.1626C6.8109 12.4907 6.64686 13.2224 6.64686 13.2224C6.64686 13.2224 7.32832 12.4685 7.50138 11.0402C7.62286 10.0393 7.31084 9.36384 7.25433 9.36793Z" fill="#545352"/>
<path d="M7.25374 9.36793C7.16594 9.37293 6.87034 9.38195 6.87034 9.38195C4.22355 9.56671 2.27802 7.51562 2.27802 7.51562C2.27802 7.51562 3.48719 11.015 7.52545 10.7385C7.52545 10.7385 7.63707 10.0912 7.25374 9.36793Z" fill="#6E7979"/>
<path d="M20.469 9.36793C20.5602 9.37455 20.8523 9.38195 20.8523 9.38195C23.4992 9.56671 25.4446 7.51562 25.4446 7.51562C25.4446 7.51562 25.6185 9.11665 24.4688 10.5196C23.3187 11.9226 20.9881 12.1626 20.9881 12.1626C20.9124 12.4907 21.0765 13.2224 21.0765 13.2224C21.0765 13.2224 20.3949 12.4685 20.2219 11.0402C20.1004 10.0393 20.4125 9.36384 20.469 9.36793Z" fill="#545352"/>
<path d="M20.4692 9.36793C20.5569 9.37293 20.8525 9.38195 20.8525 9.38195C23.4994 9.56671 25.4449 7.51562 25.4449 7.51562C25.4449 7.51562 24.2357 11.015 20.1975 10.7385C20.1975 10.7385 20.0858 10.0912 20.4692 9.36793Z" fill="#6E7979"/>
<path d="M5.87262 21.2227C5.87262 21.2227 3.97007 28.0605 5.87262 32.4425V21.2227Z" fill="#CDE9EE"/>
<path d="M24.8164 32.0388C23.8774 32.7554 22.9004 32.8007 22.9004 32.8007C22.8568 31.8646 23.8802 29.818 23.8802 29.818C23.6473 29.9555 23.4602 30.1217 23.3062 30.3042L23.2995 29.6174L24.0378 29.0075L23.444 28.5259L24.1983 25.4922L23.4761 25.9738C23.4761 25.9738 23.2514 21.6561 23.4119 19.7942C23.4119 19.7942 22.497 18.8791 22.0475 18.51C22.0475 18.51 22.1325 19.8394 22.2293 21.9635C22.6394 23.6674 23.2762 27.1936 22.484 30.2948C22.4932 30.9234 22.4999 31.5618 22.5036 32.2063C22.5036 32.2063 22.8983 33.5779 23.0267 34.5409C23.0267 34.5409 23.155 34.5771 23.3477 34.545L23.3332 33.0701C24.325 32.7706 24.8164 32.0388 24.8164 32.0388Z" fill="#CDE9EE"/>
<path d="M15.9157 18.7984C15.9157 19.5277 16.3828 20.1189 16.9591 20.1189C17.5353 20.1189 18.0025 19.5277 18.0025 18.7984C18.0025 18.069 17.5353 17.4778 16.9591 17.4778C16.3828 17.4778 15.9157 18.069 15.9157 18.7984Z" fill="#CDE9EE"/>
<path d="M15.9479 18.4457C15.9479 19.1637 16.4078 19.7458 16.9752 19.7458C17.5426 19.7458 18.0025 19.1637 18.0025 18.4457C18.0025 17.7275 17.5426 17.1455 16.9752 17.1455C16.4078 17.1455 15.9479 17.7275 15.9479 18.4457Z" fill="white"/>
<path d="M16.7031 17.7754C16.6949 17.8073 16.6893 17.8406 16.6893 17.8759C16.6893 18.059 16.8086 18.2073 16.9558 18.2073C17.0865 18.2073 17.1949 18.09 17.2174 17.9355C17.3013 18.0456 17.353 18.1937 17.353 18.3574C17.353 18.6966 17.1321 18.9714 16.8595 18.9714C16.587 18.9714 16.3659 18.6966 16.3659 18.3574C16.3659 18.0864 16.5072 17.8568 16.7031 17.7754Z" fill="#474746"/>
<path d="M10.9079 18.7984C10.9079 19.5277 11.375 20.1189 11.9513 20.1189C12.5275 20.1189 12.9947 19.5277 12.9947 18.7984C12.9947 18.069 12.5275 17.4778 11.9513 17.4778C11.375 17.4778 10.9079 18.069 10.9079 18.7984Z" fill="#CDE9EE"/>
<path d="M10.9401 18.4457C10.9401 19.1637 11.4 19.7458 11.9674 19.7458C12.5348 19.7458 12.9947 19.1637 12.9947 18.4457C12.9947 17.7275 12.5348 17.1455 11.9674 17.1455C11.4 17.1455 10.9401 17.7275 10.9401 18.4457Z" fill="white"/>
<path d="M11.8877 17.7754C11.8795 17.8073 11.8738 17.8406 11.8738 17.8759C11.8738 18.059 11.9931 18.2073 12.1403 18.2073C12.271 18.2073 12.3794 18.09 12.402 17.9355C12.4859 18.0456 12.5376 18.1937 12.5376 18.3574C12.5376 18.6966 12.3166 18.9714 12.044 18.9714C11.7715 18.9714 11.5505 18.6966 11.5505 18.3574C11.5505 18.0864 11.6918 17.8568 11.8877 17.7754Z" fill="#474746"/>
<path d="M19.6755 19.8345C19.61 20.0316 19.3877 20.0839 18.7543 20.2064L18.7112 20.2147C18.0906 20.3339 16.981 20.3183 16.3734 20.2295C16.3471 20.2258 16.3218 20.2219 16.2977 20.2179C15.7345 20.1226 15.6704 20.0497 15.4892 19.7577C15.3022 19.4556 15.1872 18.5684 15.1659 18.3935L15.1649 18.3847C15.1424 18.1998 15.1313 18.1072 15.3688 18.0008C15.6883 17.8576 17.1063 17.6575 17.6874 17.6313C18.1461 17.6111 19.1185 17.6749 19.5632 17.7399C19.6328 17.7502 19.6845 17.7596 19.7164 17.768C19.7676 17.7816 19.9559 17.8732 19.9463 18.0735C19.9339 18.3375 19.764 19.5682 19.6755 19.8345ZM13.4909 18.3847L13.4898 18.3935C13.4687 18.5684 13.3537 19.4556 13.1666 19.7577C12.9854 20.0497 12.9213 20.1226 12.358 20.2179C12.334 20.2219 12.3087 20.2258 12.2824 20.2295C11.6748 20.3183 10.5652 20.3339 9.94458 20.2147L9.90152 20.2064C9.26812 20.0839 9.0458 20.0316 8.98034 19.8345C8.89183 19.5682 8.72194 18.3375 8.70947 18.0735C8.69982 17.8732 8.88824 17.7816 8.9394 17.768C8.97125 17.7596 9.0229 17.7502 9.09259 17.7399C9.53729 17.6749 10.5096 17.6111 10.9684 17.6313C11.5495 17.6575 12.9674 17.8576 13.2869 18.0008C13.5245 18.1072 13.5134 18.1998 13.4909 18.3847ZM20.4888 17.2128C20.0236 17.1448 19.2115 17.0677 18.2368 17.1174C16.9684 17.1827 15.8815 17.3588 15.2323 17.4639C15.0385 17.4953 14.8862 17.5201 14.77 17.5355L14.6432 17.5527C14.5008 17.5723 14.4075 17.5847 14.3279 17.5886C14.2484 17.5847 14.1549 17.5723 14.0126 17.5527L13.8857 17.5355C13.7696 17.5201 13.6173 17.4953 13.4235 17.4639C12.7743 17.3588 11.6875 17.1827 10.419 17.1174C9.44428 17.0677 8.63224 17.1448 8.16696 17.2128C8.16696 17.2128 7.67047 17.276 7.24585 17.4556L7.32681 17.9953C7.32681 17.9953 7.77546 17.8885 8.21368 17.83C8.29514 18.591 8.45361 19.5689 8.45361 19.5689L8.45615 19.5992C8.4682 19.6485 8.4794 19.6964 8.49152 19.7486C8.58179 20.1331 8.67142 20.3592 9.03206 20.4947C9.38621 20.6284 10.2243 20.7523 11.0694 20.7958C11.3837 20.8121 11.7404 20.7927 12.1012 20.7402C12.6362 20.6621 13.1201 20.5181 13.305 20.3814C13.5741 20.1825 13.718 19.6821 13.8132 19.3511L13.8418 19.2535C13.8755 19.1406 13.9047 19.0221 13.933 18.9071C13.9736 18.7421 14.0155 18.5715 14.0514 18.5126C14.0579 18.5023 14.088 18.4667 14.2057 18.4494C14.242 18.4442 14.2829 18.4414 14.3279 18.4408C14.3729 18.4414 14.4137 18.4442 14.4502 18.4494C14.5677 18.4667 14.5979 18.5023 14.6044 18.5126C14.6402 18.5715 14.6822 18.7421 14.7228 18.9071C14.7511 19.0221 14.7804 19.1406 14.814 19.2535L14.8425 19.3511C14.9378 19.6821 15.0817 20.1825 15.3508 20.3814C15.5357 20.5181 16.0196 20.6621 16.5546 20.7402C16.9154 20.7927 17.2721 20.8121 17.5863 20.7958C18.4316 20.7523 19.2695 20.6284 19.6238 20.4947C19.9843 20.3592 20.074 20.1331 20.1643 19.7486C20.1764 19.6964 20.1876 19.6485 20.1996 19.5992L20.2021 19.5689C20.2021 19.5689 20.3606 18.591 20.4421 17.83C20.8804 17.8885 21.329 17.9953 21.329 17.9953L21.41 17.4556C20.9853 17.276 20.4888 17.2128 20.4888 17.2128Z" fill="#545352"/>
<path d="M12.2737 15.846C12.2737 15.846 11.1133 15.2926 10.4491 16.3202C10.4491 16.3202 10.3805 15.2983 11.3177 15.1841C12.2549 15.0697 12.2737 15.846 12.2737 15.846Z" fill="#A0D1DE"/>
<path d="M11.8383 14.3444C11.8383 14.3444 10.7625 13.8367 10.2724 14.8125C10.2724 14.8125 10.1123 13.96 10.88 13.7542C11.6478 13.5484 11.8383 14.3444 11.8383 14.3444Z" fill="#A0D1DE"/>
<path d="M16.4304 16.4727C16.4304 16.4727 17.3316 16.0428 17.8475 16.8411C17.8475 16.8411 17.9007 16.0474 17.1729 15.9586C16.4449 15.8698 16.4304 16.4727 16.4304 16.4727Z" fill="#A0D1DE"/>
<path d="M17.071 15.0512C17.071 15.0512 17.9829 14.9035 18.1391 15.7371C18.1391 15.7371 18.4418 15.1353 17.9131 14.8167C17.3843 14.498 17.071 15.0512 17.071 15.0512Z" fill="#A0D1DE"/>
<path d="M12.1926 23.9419C12.1926 23.9419 12.8294 23.514 13.2052 23.4551C13.2052 23.4551 13.2872 24.2625 13.6607 24.6604C13.6607 24.6604 14.4667 23.9339 15.2638 23.8822C15.2638 23.8822 15.4696 24.325 15.8037 24.4892L15.8018 24.4944C15.9223 24.5696 16.07 24.6457 16.2131 24.6775C16.2131 24.6775 16.6705 24.4006 16.8029 23.895C16.8029 23.895 16.847 24.9624 16.1769 25.5443C16.1769 25.5443 15.666 25.2949 15.2979 24.8958C15.1873 24.7881 15.0724 24.6629 15.0166 24.5611C15.0166 24.5611 13.8345 25.3974 13.7913 25.8743C13.7913 25.8743 12.9379 25.0423 12.647 24.4013C12.647 24.4013 12.0775 24.581 11.9195 24.6969C11.9195 24.6969 11.4618 23.9483 11.3688 23.2727C11.3688 23.2727 11.9193 23.7984 12.1926 23.9419Z" fill="#B2DCE5"/>
<path d="M14.3418 21.8441C14.2946 21.834 15.5408 21.9303 16.7645 21.8868C16.7645 21.8868 16.8299 21.6534 16.9238 21.5251C16.9238 21.5251 16.9033 21.9181 17.0133 21.9985C17.0133 21.9985 16.4009 22.2395 15.7834 22.2378C15.7834 22.2378 16.4563 22.1254 16.682 22.0093C16.682 22.0093 15.454 22.0777 14.3418 21.8441Z" fill="#545352"/>
</g>
<defs>
<clipPath id="clip0_202_11385">
<rect width="28" height="41" fill="white"/>
</clipPath>
</defs>
</svg>
