<svg width="24" height="33" viewBox="0 0 24 33" fill="none" xmlns="http://www.w3.org/2000/svg">
<path d="M20.6534 0.00244141H3.57427C1.22772 0.00244141 0.534424 1.77569 0.534424 2.8823V30.0009C0.534424 31.2542 1.20106 31.7342 1.5877 31.8808C1.96102 32.0408 3.0143 32.1608 3.64094 31.4409C3.64094 31.4409 11.6939 22.0947 11.8405 21.948C12.0538 21.748 12.0538 21.748 12.2538 21.748H17.4669C19.6668 21.748 20.0135 20.1881 20.2534 19.2681C20.4534 18.5082 22.5867 7.56206 23.2933 4.08224C23.8399 1.44237 23.16 0.00244141 20.6534 0.00244141V0.00244141ZM5.09953 3.52227H18.7922C19.2988 3.52227 19.7655 4.00224 19.6321 4.61554V4.62888L18.9255 8.34869C18.8322 8.762 18.3255 9.18865 17.8589 9.18865H11.2192C10.4593 9.18865 9.92595 9.70862 9.92595 10.4419V11.2685C9.92595 12.0285 10.4726 12.5485 11.2192 12.5485H16.8589C17.3789 12.5485 17.8989 13.1218 17.7922 13.6818L17.0723 17.3616C17.0056 17.6816 16.659 18.2015 16.0323 18.2015H11.4192C10.5793 18.2015 10.3259 18.3215 9.76596 19.0015C9.20599 19.7081 4.15291 25.7612 4.15291 25.7612C4.11291 25.8278 4.05958 25.8012 4.05958 25.7478V4.56221C4.05958 4.08224 4.47289 3.52227 5.09953 3.52227Z" fill="#FA4778"/>
</svg>
