<svg width="43" height="43" viewBox="0 0 43 43" fill="none" xmlns="http://www.w3.org/2000/svg">
<g clip-path="url(#clip0_202_10899)">
<circle cx="21.0022" cy="21.0024" r="21" fill="#FA4778"/>
<path d="M28.2493 11.6179L27.5972 14.9142C27.5227 15.2653 27.2059 15.5773 26.8146 15.5773H21.1505C20.517 15.5773 19.9953 16.1234 19.9953 16.7866V17.5083C19.9953 18.1714 20.517 18.7176 21.1505 18.7176H25.939C26.3861 18.7176 26.7588 19.1662 26.6656 19.6538C26.5724 20.1609 26.0694 22.7355 26.0135 23.0086C25.9762 23.3011 25.6781 23.6717 25.2309 23.6717H21.3182C20.4984 23.6912 20.3307 23.7107 19.8463 24.3349C19.3618 24.959 15.002 30.5018 15.002 30.5018V11.4619C15.002 11.0133 15.356 10.6427 15.7845 10.6427H27.5413C27.9512 10.6427 28.3611 11.0718 28.2493 11.6179ZM29.1064 7.50244H14.592C12.5984 7.50244 12.0022 9.08232 12.0022 10.0771V34.2236C12.0022 35.6391 13.4872 36.726 14.6479 35.5109C14.6479 35.5109 21.5418 27.1044 21.6536 26.9679C21.7654 26.8314 21.8213 26.8314 21.8958 26.8314H26.2557C28.1189 26.8314 28.4729 25.4856 28.6778 24.6664C28.8455 23.9837 30.7646 14.2315 31.3608 11.1498C31.808 8.77025 31.2305 7.50244 29.1064 7.50244Z" fill="white"/>
</g>
<defs>
<clipPath id="clip0_202_10899">
<rect width="43" height="43" fill="white"/>
</clipPath>
</defs>
</svg>
