<svg width="37" height="36" viewBox="0 0 37 36" fill="none" xmlns="http://www.w3.org/2000/svg">
<g clip-path="url(#clip0_202_15077)">
<path d="M35.5946 0.885997C37.5029 2.79343 32.2126 11.1778 31.3183 12.0726C30.4239 12.9657 28.1523 12.1441 26.2449 10.2362C24.3365 8.32874 23.5145 6.05669 24.4088 5.16233C25.3028 4.26752 33.6867 -1.02233 35.5946 0.885997Z" fill="#B5010F"/>
<path d="M8.83429 2.90411C5.92093 1.25106 1.77536 -0.587645 0.45658 0.731136C-0.879606 2.06687 1.02649 6.30572 2.69694 9.22444C4.18353 6.63999 6.29804 4.46433 8.83429 2.90411Z" fill="#B5010F"/>
<path d="M32.6844 11.4148C32.9526 12.3248 32.9044 13.0763 32.4693 13.5106C31.4531 14.5272 28.7079 13.445 26.2333 11.0899C26.0606 10.9351 25.8892 10.7744 25.7209 10.6057C24.8261 9.71045 24.1299 8.75762 23.6845 7.88022C22.8178 6.32535 22.6009 4.95213 23.2561 4.29698C23.6131 3.94039 24.1844 3.8431 24.881 3.96851C25.3353 3.6811 25.8718 3.36111 26.46 3.03309C24.0683 1.78571 21.3491 1.08103 18.4647 1.08103C8.89767 1.08103 1.14163 8.83572 1.14163 18.4037C1.14163 27.9699 8.89767 35.7255 18.4647 35.7255C28.0318 35.7255 35.7874 27.9699 35.7874 18.4037C35.7874 15.314 34.9765 12.4167 33.56 9.90503C33.2538 10.4638 32.9562 10.9757 32.6844 11.4148Z" fill="#B5010F"/>
</g>
<defs>
<clipPath id="clip0_202_15077">
<rect width="37" height="36" fill="white"/>
</clipPath>
</defs>
</svg>
