<svg width="37" height="33" viewBox="0 0 37 33" fill="none" xmlns="http://www.w3.org/2000/svg">
<g clip-path="url(#clip0_202_13025)">
<path d="M12.7506 20.8805C14.0276 20.8805 14.6086 21.4875 14.6976 22.5055H14.7146C14.7114 22.5528 14.7087 22.6002 14.7066 22.6475C14.7086 22.6955 14.7096 22.7455 14.7096 22.7965V22.9425C14.8006 24.4645 15.9916 25.6975 17.5196 25.8905C17.6356 25.8775 17.7586 25.8715 17.8876 25.8715H18.3496C19.8166 25.6285 20.9436 24.4215 21.0326 22.9415V22.7965C21.0326 22.7335 21.0346 22.6735 21.0376 22.6135C21.0368 22.5775 21.0351 22.5415 21.0326 22.5055H21.0446C21.1346 21.4875 21.7146 20.8805 22.9926 20.8805H24.9516V22.7965C24.9516 24.1185 24.2626 24.7125 22.9916 24.7125H22.6526C21.2416 24.8695 20.1086 25.9125 19.8476 27.2575V27.7875C19.8476 28.0745 19.8146 28.3265 19.7516 28.5455V30.7105C19.7516 31.4215 19.1526 32.0045 18.4296 32.0045H17.1936C16.4656 32.0045 15.8726 31.4215 15.8726 30.7105V27.7475C15.8726 27.6255 15.8896 27.5075 15.9226 27.3945C15.7096 25.9845 14.5486 24.8745 13.0896 24.7125H12.7496C11.4796 24.7125 10.7906 24.1185 10.7906 22.7965V20.8805H12.7506ZM17.8886 20.8805C19.2826 20.8805 19.8476 22.0285 19.8476 22.7965C19.8476 24.1185 19.1576 24.7125 17.8876 24.7125C16.6176 24.7125 15.9286 23.9885 15.9286 22.7965C15.9286 21.6045 16.4936 20.8805 17.8886 20.8805ZM2.07859 15.5115C3.35559 15.5115 3.93659 16.1185 4.02559 17.1355H4.04359C4.04059 17.1835 4.03659 17.2305 4.03459 17.2785C4.03659 17.3275 4.03759 17.3765 4.03759 17.4275V17.5725C4.12959 19.0955 5.32759 20.3295 6.85459 20.5205C6.96859 20.5085 7.08959 20.5025 7.21659 20.5025H7.67559C9.11759 20.2655 10.2386 19.0955 10.3616 17.6495V17.4275C10.3616 17.3575 10.3636 17.2905 10.3676 17.2245L10.3616 17.1355H10.3736C10.4636 16.1185 11.0496 15.5115 12.3266 15.5115H14.2866V17.4275C14.2866 18.7495 13.5916 19.3425 12.3266 19.3425H11.9836C10.5746 19.4995 9.43759 20.5425 9.17559 21.8885V22.4175C9.17559 23.7395 8.48759 24.3325 7.21659 24.3325C5.62459 24.3325 5.25759 23.6095 5.25759 22.4175C5.25759 22.3255 5.26059 22.2375 5.26759 22.1505C5.10759 20.6805 3.91959 19.5095 2.42159 19.3425H2.07859C0.808592 19.3425 0.118592 18.7495 0.118592 17.4275V15.5115H2.07859ZM23.7996 15.5115C25.0766 15.5115 25.6576 16.1185 25.7466 17.1355H25.7646C25.7616 17.1835 25.7576 17.2305 25.7556 17.2785C25.7576 17.3275 25.7586 17.3765 25.7586 17.4275V17.5725C25.8495 19.0782 27.0215 20.3014 28.5237 20.5136L28.5751 20.5204L28.6442 20.514C28.7379 20.5064 28.8352 20.5025 28.9376 20.5025H29.3966C30.8636 20.2625 31.9986 19.0535 32.0886 17.5725V17.4275C32.0886 17.3775 32.0886 17.3275 32.0916 17.2785L32.0816 17.1355H32.1006C32.1896 16.1185 32.7706 15.5115 34.0476 15.5115H36.0066V17.4275C36.0066 18.7495 35.3126 19.3425 34.0466 19.3425H33.7036C32.2956 19.4995 31.1586 20.5435 30.8966 21.8895V22.4175C30.8966 23.7395 30.2076 24.3325 28.9376 24.3325C27.3456 24.3325 26.9776 23.6095 26.9776 22.4175C26.9776 22.3255 26.9816 22.2375 26.9876 22.1505C26.8276 20.6805 25.6406 19.5095 24.1426 19.3425H23.7996C22.5296 19.3425 21.8396 18.7495 21.8396 17.4275V15.5115H23.7996ZM28.9376 15.5115C30.3326 15.5115 30.8976 16.6585 30.8976 17.4275C30.8976 18.7495 30.2076 19.3425 28.9376 19.3425C27.6726 19.3425 26.9776 18.6195 26.9776 17.4275C26.9776 16.2345 27.5426 15.5115 28.9376 15.5115ZM7.21759 15.5115C8.61159 15.5115 9.17559 16.6585 9.17559 17.4275C9.17559 18.7319 8.50582 19.3266 7.26712 19.3422L7.21714 19.3424L7.16569 19.3421C5.92784 19.3226 5.25759 18.6032 5.25759 17.4275C5.25759 16.2345 5.82259 15.5115 7.21759 15.5115ZM12.7506 10.2905C14.0266 10.2905 14.6086 10.8975 14.6966 11.9155H14.7146L14.7066 12.0575C14.7086 12.1065 14.7096 12.1565 14.7096 12.2075V12.3525C14.8016 13.8755 15.9936 15.1085 17.5226 15.2995C17.6376 15.2875 17.7596 15.2815 17.8876 15.2815H18.3456C19.8146 15.0395 20.9436 13.8325 21.0326 12.3515V12.2065C21.0326 12.1445 21.0346 12.0835 21.0376 12.0235C21.0374 11.9875 21.0358 11.9514 21.0326 11.9155H21.0456C21.1336 10.8975 21.7156 10.2905 22.9926 10.2905H24.9516V12.2065C24.9516 13.5285 24.2626 14.1225 22.9916 14.1225H22.6526C21.2416 14.2795 20.1086 15.3225 19.8476 16.6685V17.1975C19.8476 18.5195 19.1576 19.1125 17.8876 19.1125C16.2956 19.1125 15.9286 18.3895 15.9286 17.1975C15.9286 17.1055 15.9326 17.0175 15.9386 16.9305C15.7786 15.4605 14.5916 14.2895 13.0896 14.1225H12.7496C11.4796 14.1225 10.7906 13.5285 10.7906 12.2065V10.2905H12.7506ZM17.8886 10.2895C19.2826 10.2895 19.8476 11.4365 19.8476 12.2055C19.8476 13.5275 19.1576 14.1215 17.8876 14.1215C16.6176 14.1215 15.9286 13.3975 15.9286 12.2055C15.9286 11.0135 16.4936 10.2895 17.8886 10.2895ZM1.96659 5.16952C3.24259 5.16952 3.82459 5.77652 3.91259 6.79452H3.93059L3.92159 6.93652C3.92359 6.98552 3.92459 7.03452 3.92459 7.08552V7.22952C4.01659 8.75352 5.21459 9.98852 6.74159 10.1795V10.1785C6.85559 10.1665 6.97659 10.1605 7.10359 10.1605H7.56259C9.03059 9.92052 10.1666 8.71052 10.2546 7.22752V7.08552C10.2546 7.03552 10.2546 6.98552 10.2576 6.93752C10.2551 6.88982 10.2521 6.84215 10.2486 6.79452H10.2666C10.3556 5.77652 10.9366 5.16952 12.2136 5.16952H14.1736V7.08552C14.1736 8.40752 13.4786 9.00052 12.2136 9.00052H11.8706C10.4616 9.15752 9.32459 10.2005 9.06259 11.5465V12.0755C9.06259 13.3975 8.37459 13.9915 7.10359 13.9915C5.51759 13.9915 5.14459 13.2685 5.14459 12.0755C5.14459 11.9835 5.14759 11.8955 5.15459 11.8095C4.99459 10.3395 3.80759 9.16752 2.30959 9.00052H1.96559C0.696592 9.00052 0.0065918 8.40752 0.0065918 7.08552V5.16952H1.96659ZM36.0066 5.16852V7.08452C36.0066 8.40652 35.3126 8.99952 34.0466 8.99952H33.7036C32.2956 9.15652 31.1586 10.2005 30.8966 11.5465V12.0745C30.8966 13.3965 30.2076 13.9905 28.9376 13.9905C27.3456 13.9905 26.9776 13.2675 26.9776 12.0745C26.9776 11.9825 26.9816 11.8945 26.9876 11.8075C26.8276 10.3375 25.6406 9.16752 24.1426 8.99952H23.7996C22.5296 8.99952 21.8396 8.40652 21.8396 7.08452V5.16952H23.7996C25.0766 5.16952 25.6576 5.77652 25.7466 6.79452H25.7646L25.7556 6.93652C25.7576 6.98552 25.7586 7.03452 25.7586 7.08552V7.22952C25.8506 8.75352 27.0486 9.98752 28.5756 10.1795L28.5746 10.1785C28.6896 10.1665 28.8096 10.1605 28.9376 10.1605H29.3966C30.8636 9.92052 31.9986 8.71152 32.0886 7.23052V7.08452C32.0886 7.03452 32.0886 6.98452 32.0916 6.93552L32.0816 6.79352H32.1006C32.1886 5.77552 32.7706 5.16852 34.0476 5.16852H36.0066ZM7.10459 5.16952C8.49859 5.16952 9.06259 6.31652 9.06259 7.08552C9.06259 8.40752 8.37459 9.00052 7.10359 9.00052C5.83859 9.00052 5.14459 8.27752 5.14459 7.08552C5.14459 5.89252 5.71459 5.16952 7.10459 5.16952ZM28.9376 5.16952C30.3326 5.16952 30.8976 6.31652 30.8976 7.08552C30.8976 8.40752 30.2076 9.00052 28.9376 9.00052C27.6726 9.00052 26.9776 8.27752 26.9776 7.08552C26.9776 5.89252 27.5426 5.16952 28.9376 5.16952ZM12.7506 0.0045166C14.0276 0.0045166 14.6086 0.611517 14.6966 1.62952H14.7146L14.7066 1.77152C14.7086 1.82052 14.7096 1.86952 14.7096 1.92052V2.06652C14.8016 3.58952 15.9936 4.82252 17.5226 5.01352V5.01452C17.6376 5.00252 17.7596 4.99652 17.8876 4.99652H18.3456C19.8146 4.75452 20.9436 3.54752 21.0326 2.06652V1.92152C21.0326 1.85952 21.0346 1.79852 21.0376 1.73852C21.0374 1.70246 21.0358 1.66643 21.0326 1.63052H21.0456C21.1336 0.611517 21.7156 0.0045166 22.9926 0.0045166H24.9516V1.92052C24.9516 3.24252 24.2626 3.83652 22.9916 3.83652H22.6476C21.2386 3.99652 20.1076 5.03852 19.8476 6.38152V6.91152C19.8476 8.23352 19.1576 8.82652 17.8876 8.82652C16.2956 8.82652 15.9286 8.10252 15.9286 6.91152C15.9286 6.81952 15.9326 6.73152 15.9386 6.64452C15.7786 5.17552 14.5946 4.00552 13.0946 3.83652H12.7496C11.4796 3.83652 10.7906 3.24252 10.7906 1.92052V0.0045166H12.7506ZM17.8886 0.0045166C19.2826 0.0045166 19.8476 1.15152 19.8476 1.92052C19.8476 3.24252 19.1576 3.83652 17.8876 3.83652C16.6176 3.83652 15.9286 3.11252 15.9286 1.92052C15.9286 0.728517 16.4936 0.0045166 17.8886 0.0045166Z" fill="#38A1E7"/>
</g>
<defs>
<clipPath id="clip0_202_13025">
<rect width="37" height="33" fill="white"/>
</clipPath>
</defs>
</svg>
