<svg width="37" height="37" viewBox="0 0 37 37" fill="none" xmlns="http://www.w3.org/2000/svg">
<g clip-path="url(#clip0_202_14240)">
<path d="M36.0054 18.0024C36.0054 27.9436 27.9465 36.0024 18.0054 36.0024C8.06425 36.0024 0.00537109 27.9436 0.00537109 18.0024C0.00537109 8.06132 8.06425 0.00244141 18.0054 0.00244141V18.0024H36.0054Z" fill="url(#paint0_linear_202_14240)"/>
<path d="M18.0054 33.431C9.48439 33.431 2.57678 26.5234 2.57678 18.0024C2.57678 9.48146 9.48439 2.57385 18.0054 2.57385C26.5263 2.57385 33.4339 9.48146 33.4339 18.0024H18.0054V33.431Z" fill="url(#paint1_linear_202_14240)"/>
<path d="M5.14828 18.0025C5.14828 10.9017 10.9046 5.14535 18.0054 5.14535C25.1062 5.14535 30.8625 10.9017 30.8625 18.0025C30.8625 25.1033 25.1062 30.8596 18.0054 30.8596V18.0025H5.14828Z" fill="url(#paint2_linear_202_14240)"/>
<path d="M18.0054 7.7168C23.6861 7.7168 28.2911 12.3219 28.2911 18.0025C28.2911 23.6831 23.6861 28.2882 18.0054 28.2882C12.3248 28.2882 7.71973 23.6831 7.71973 18.0025H18.0054V7.7168Z" fill="url(#paint3_linear_202_14240)"/>
<path d="M25.7196 18.0024C25.7196 22.2629 22.2658 25.7167 18.0053 25.7167C13.7448 25.7167 10.291 22.2629 10.291 18.0024C10.291 13.7419 13.7448 10.2881 18.0053 10.2881V18.0024H25.7196Z" fill="url(#paint4_linear_202_14240)"/>
<path d="M18.0054 23.2481C15.1651 23.2481 12.8625 20.9456 12.8625 18.1053C12.8625 15.2649 15.1651 12.9624 18.0054 12.9624C20.8457 12.9624 23.1483 15.2649 23.1483 18.1053H18.0054V23.2481Z" fill="url(#paint5_linear_202_14240)"/>
<path d="M15.4339 18.0025C15.4339 17.0839 15.924 16.235 16.7196 15.7756C17.5152 15.3163 18.4955 15.3163 19.2911 15.7756C20.0867 16.235 20.5768 17.0839 20.5768 18.0025C20.5768 18.9212 20.0867 19.7701 19.2911 20.2295C18.4955 20.6888 17.5152 20.6888 16.7196 20.2295C15.924 19.7701 15.4339 18.9212 15.4339 18.0025Z" fill="url(#paint6_linear_202_14240)"/>
</g>
<defs>
<linearGradient id="paint0_linear_202_14240" x1="0.00537109" y1="0.00244141" x2="18.0054" y2="18.0024" gradientUnits="userSpaceOnUse">
<stop stop-color="#FF5959"/>
<stop offset="1" stop-color="#DF0000"/>
</linearGradient>
<linearGradient id="paint1_linear_202_14240" x1="2.83802" y1="33.1821" x2="18.0177" y2="18.0024" gradientUnits="userSpaceOnUse">
<stop stop-color="#FFB73D"/>
<stop offset="1" stop-color="#FFA000"/>
</linearGradient>
<linearGradient id="paint2_linear_202_14240" x1="6.9949" y1="6.99197" x2="18.0054" y2="18.0025" gradientUnits="userSpaceOnUse">
<stop stop-color="#FFF18D"/>
<stop offset="1" stop-color="#FFCD01"/>
</linearGradient>
<linearGradient id="paint3_linear_202_14240" x1="24.6234" y1="24.6205" x2="8.55827" y2="8.55533" gradientUnits="userSpaceOnUse">
<stop stop-color="white"/>
<stop offset="1" stop-color="white" stop-opacity="0"/>
</linearGradient>
<linearGradient id="paint4_linear_202_14240" x1="10.7391" y1="25.2686" x2="18.0053" y2="18.0024" gradientUnits="userSpaceOnUse">
<stop stop-color="#00A000" stop-opacity="0.258929"/>
<stop offset="1" stop-color="#008000"/>
</linearGradient>
<linearGradient id="paint5_linear_202_14240" x1="12.8625" y1="18.1053" x2="23.1483" y2="18.1053" gradientUnits="userSpaceOnUse">
<stop stop-color="#263CCE"/>
<stop offset="1" stop-color="#263CCE" stop-opacity="0"/>
</linearGradient>
<linearGradient id="paint6_linear_202_14240" x1="18.0054" y1="18.0025" x2="22.777" y2="20.7575" gradientUnits="userSpaceOnUse">
<stop stop-color="#652F99"/>
<stop offset="1" stop-color="#502679" stop-opacity="0.651786"/>
</linearGradient>
<clipPath id="clip0_202_14240">
<rect width="37" height="37" fill="white"/>
</clipPath>
</defs>
</svg>
