<svg width="29" height="41" viewBox="0 0 29 41" fill="none" xmlns="http://www.w3.org/2000/svg">
<g clip-path="url(#clip0_202_10368)">
<path d="M0.0012207 6.66012C0.0012207 2.98414 2.98121 0.00415039 6.65723 0.00415039H12.8012H28.0012V9.47614C28.0012 11.3141 26.5112 12.8042 24.6732 12.8042H15.9492C14.2205 12.8316 12.8248 14.2296 12.8012 15.9592V36.6761C12.8012 38.5142 11.3112 40.0042 9.47319 40.0042H0.0012207V12.8042V6.66012Z" fill="#001B38"/>
<path d="M7.44093 16.0846C7.44093 20.8563 11.3092 24.7246 16.0809 24.7246C20.8527 24.7246 24.7209 20.8563 24.7209 16.0846C24.7209 11.3128 20.8527 7.44458 16.0809 7.44458C11.3092 7.44458 7.44093 11.3128 7.44093 16.0846Z" fill="url(#paint0_linear_202_10368)"/>
<path opacity="0.5" d="M7.44093 16.0846C7.44093 20.8563 11.3092 24.7246 16.0809 24.7246C20.8527 24.7246 24.7209 20.8563 24.7209 16.0846C24.7209 11.3128 20.8527 7.44458 16.0809 7.44458C11.3092 7.44458 7.44093 11.3128 7.44093 16.0846Z" fill="url(#paint1_linear_202_10368)"/>
</g>
<defs>
<linearGradient id="paint0_linear_202_10368" x1="9.99615" y1="9.60786" x2="22.989" y2="22.6904" gradientUnits="userSpaceOnUse">
<stop stop-color="#FF0057" stop-opacity="0.16"/>
<stop offset="0.861354" stop-color="#FF0057"/>
</linearGradient>
<linearGradient id="paint1_linear_202_10368" x1="9.99615" y1="9.60786" x2="22.989" y2="22.6904" gradientUnits="userSpaceOnUse">
<stop stop-color="#FF0057" stop-opacity="0.16"/>
<stop offset="0.861354" stop-color="#FF0057"/>
</linearGradient>
<clipPath id="clip0_202_10368">
<rect width="29" height="41" fill="white"/>
</clipPath>
</defs>
</svg>
