<svg width="37" height="34" viewBox="0 0 37 34" fill="none" xmlns="http://www.w3.org/2000/svg">
<g clip-path="url(#clip0_202_9181)">
<path d="M14.9998 0.941069C23.8473 0.365621 31.472 7.0552 32.1194 15.8308C32.1194 16.4782 32.1194 17.1255 32.1194 17.7729C32.1194 17.9887 31.9755 18.1326 31.7597 18.1326C31.6878 18.1326 31.6878 18.1326 31.6878 18.1326C31.5439 18.1326 31.472 18.0606 31.4001 17.9887C31.3281 17.9168 31.3281 17.7729 31.3281 17.701C31.4001 17.1255 31.4001 16.4782 31.3281 15.9027C30.7527 7.48679 23.4877 1.15686 15.0717 1.73231C6.65582 2.30776 0.325895 9.57279 0.901343 17.9887C1.47679 26.4046 8.74182 32.7346 17.0139 32.1591C18.6683 32.0153 20.1788 31.6556 21.6894 31.0802C21.7613 31.0802 21.7613 31.0802 21.8333 31.0802C22.0491 31.0082 22.1929 31.1521 22.2648 31.2959C22.3368 31.5117 22.2648 31.7275 22.0491 31.7995C20.4666 32.4468 18.8122 32.8065 17.1577 32.9504C8.31023 33.5977 0.613619 26.9082 0.0381712 18.0606C-0.537277 9.21313 6.15231 1.58845 14.9998 0.941069ZM33.3422 20.5782C34.9966 21.873 36.0037 23.8151 36.0037 26.045C36.0037 29.9293 32.6229 33.0942 28.8106 33.0942C24.9982 33.0942 21.8333 30.0012 21.8333 26.1169C21.8333 24.6064 22.3368 23.2397 23.128 22.0888C25.8614 18.1326 24.9263 12.6658 20.9701 9.86051C17.0139 7.12713 11.5471 8.06224 8.74182 12.0184C6.00844 15.9746 6.94354 21.4414 10.8997 24.2467C14.1366 26.4766 18.3086 26.2608 21.2578 24.0309C20.8982 25.3976 20.8982 26.8362 21.2578 28.131C17.4455 30.0012 12.698 29.7854 8.95761 27.1239C3.347 23.1677 2.05224 15.5431 5.93651 10.0044C9.89272 4.39376 17.5174 3.099 23.0561 6.98327C28.6667 10.9395 29.9615 18.5642 26.0772 24.1028C25.6456 24.6783 25.4298 25.3976 25.4298 26.1169C25.4298 28.059 27.0123 29.6415 28.9544 29.6415C30.8966 29.6415 32.479 28.059 32.479 26.1169C32.479 25.0379 31.9755 24.0309 31.1843 23.3835C30.6088 22.88 29.8895 22.5923 29.0264 22.5923C28.7386 22.5923 28.4509 22.5923 28.1632 22.6642C28.6667 21.5133 29.0264 20.3624 29.2421 19.0677C30.7527 19.0677 32.1913 19.6431 33.3422 20.5782Z" fill="#ED1D7F"/>
</g>
<defs>
<clipPath id="clip0_202_9181">
<rect width="37" height="34" fill="white"/>
</clipPath>
</defs>
</svg>
