<svg width="37" height="37" viewBox="0 0 37 37" fill="none" xmlns="http://www.w3.org/2000/svg">
<g clip-path="url(#clip0_202_11014)">
<path d="M23.8422 18.0018C23.8422 18.0958 23.8396 18.1887 23.835 18.2816C23.8346 18.2896 23.8334 18.2979 23.8332 18.3061L23.8417 18.347L36.0015 35.9857V36.0017V34.0157V33.7078L23.2399 15.0048C23.1919 14.9201 22.9794 14.9009 22.9267 14.8194L22.9111 14.7943L22.9105 14.7947C22.7136 14.496 22.4841 14.2215 22.2278 13.974C23.2269 15.0219 23.8422 16.4394 23.8422 18.0018Z" fill="#68A5C6"/>
<path d="M18.0018 23.8428C17.9076 23.8428 17.8147 23.8403 17.7217 23.8358C17.7139 23.8352 17.7056 23.8344 17.6976 23.8338L17.0174 24.0986L0.540722 35.3254L0.00170898 36.0023H1.98831L2.65023 35.7237L20.4392 23.7004L20.9351 23.0789C21.0197 23.0307 21.103 22.9804 21.1843 22.9272L21.2096 22.9119L21.2093 22.911C21.5078 22.7144 21.7826 22.4849 22.0298 22.2286C20.9819 23.2281 19.5643 23.8428 18.0018 23.8428Z" fill="#98B7D4"/>
<path d="M0.00170898 1.9888L0.235989 2.70008L12.3768 20.6532L12.9251 20.9356C12.9733 21.0202 13.0237 21.1035 13.0768 21.1853L13.0922 21.2105L13.093 21.2101C13.2896 21.5086 13.5191 21.7831 13.7755 22.0307C12.7759 20.9829 12.1612 19.5652 12.1612 18.0027C12.1612 17.9086 12.1638 17.8155 12.1683 17.7227C12.1688 17.7148 12.1697 17.7064 12.1702 17.6987L11.9783 17.0206L0.587691 0.333087L0.00170898 0.00219727V1.9888Z" fill="#347294"/>
<path d="M34.0151 0.00244141L33.3064 0.262878L15.4704 12.2863L15.0683 12.9261C14.9837 12.9741 14.9005 13.0244 14.8191 13.0774L14.7939 13.0929L14.7942 13.0935C14.4956 13.2903 14.2209 13.5197 13.9736 13.7762C15.0214 12.7766 16.4392 12.1618 18.0017 12.1618C18.0958 12.1618 18.1887 12.1643 18.2817 12.169C18.2895 12.1694 18.2978 12.1704 18.3057 12.1708L18.8454 12.0284L35.4626 0.661267L36.0016 0.00244141H34.0151Z" fill="#5089AF"/>
<path d="M0.00170898 36.0022L17.6973 23.8345C16.2774 23.7612 14.9923 23.1814 14.0179 22.2719C13.9344 22.1941 13.8541 22.1128 13.7752 22.0301C13.5187 21.7831 13.2893 21.5083 13.0926 21.2097L13.0919 21.21L13.0764 21.1847C13.0235 21.1034 12.973 21.0202 12.9248 20.9355L0.00170898 1.98877V36.0022Z" fill="#367BA0"/>
<path d="M0.00170898 0.00219727L12.1698 17.6978C12.2429 16.2779 12.8229 14.9929 13.732 14.0185C13.8098 13.935 13.8912 13.8545 13.9736 13.7757C14.221 13.5192 14.4956 13.2898 14.7941 13.0932L14.7939 13.0924L14.819 13.0769C14.9006 13.0239 14.9837 12.9735 15.0682 12.9253L34.0151 0.00219727H0.00170898Z" fill="#5495BF"/>
<path d="M18.3062 12.1703C19.726 12.2434 21.0111 12.8233 21.9855 13.7328C22.069 13.8108 22.1494 13.892 22.2283 13.9745C22.4848 14.2216 22.7142 14.4964 22.9108 14.795L22.9116 14.7946L22.9271 14.8199C22.9801 14.9012 23.0304 14.9845 23.0787 15.0691L36.0018 34.016V0.00219727L18.3062 12.1703Z" fill="#71B6DB"/>
<path d="M22.2715 21.9859C22.1936 22.0694 22.1126 22.1497 22.0299 22.2286C21.7829 22.4851 21.5079 22.7145 21.2093 22.9112L21.2097 22.9119L21.1844 22.9274C21.1032 22.9804 21.0198 23.0307 20.9352 23.079L1.98828 36.0021H36.0017L23.834 18.3065C23.761 19.7263 23.1809 21.0115 22.2715 21.9859Z" fill="#A5C8E8"/>
</g>
<defs>
<clipPath id="clip0_202_11014">
<rect width="37" height="37" fill="white"/>
</clipPath>
</defs>
</svg>
