<svg width="37" height="36" viewBox="0 0 37 36" fill="none" xmlns="http://www.w3.org/2000/svg">
<g clip-path="url(#clip0_202_14217)">
<path d="M18.002 3.05176e-05C8.06083 3.05176e-05 0.00195312 8.0589 0.00195312 18C0.00195312 27.9412 8.06083 36 18.002 36C27.9431 36 36.002 27.9412 36.002 18C36.002 13.2261 34.1055 8.64776 30.7299 5.27211C27.3542 1.89645 22.7759 3.05176e-05 18.002 3.05176e-05ZM27.074 25.0272L23.0228 14.376C23.0228 14.376 21.386 18.6336 20.9276 19.896C20.6108 20.772 20.378 21.4272 19.8164 22.212C19.0229 23.3153 17.9444 24.1822 16.6964 24.72C13.9794 25.8512 10.8485 25.235 8.76281 23.1586C6.67712 21.0822 6.047 17.9541 7.16609 15.2321C8.28519 12.5101 10.9333 10.7298 13.8764 10.7208C15.512 10.6953 17.1044 11.2468 18.374 12.2784L17.3876 14.88C16.7348 14.208 15.8468 13.2864 13.8356 13.2864C11.2612 13.3394 9.19329 15.4254 9.16275 18C9.15633 20.2277 10.7118 22.155 12.8906 22.6191C15.0694 23.0832 17.2753 21.9569 18.1772 19.92C18.2396 19.7832 18.2828 19.68 18.3116 19.5888H12.65V17.3568L21.1484 17.34L19.3484 16.86L21.5084 11.184C22.0011 11.075 22.5037 11.0171 23.0084 11.0112C23.511 11.0039 24.013 11.0498 24.506 11.148C26.138 15.4296 27.7692 19.7136 29.3996 24C28.6865 24.4686 27.9006 24.8157 27.074 25.0272Z" fill="black"/>
</g>
<defs>
<clipPath id="clip0_202_14217">
<rect width="37" height="36" fill="white"/>
</clipPath>
</defs>
</svg>
