<svg width="37" height="37" viewBox="0 0 37 37" fill="none" xmlns="http://www.w3.org/2000/svg">
<g clip-path="url(#clip0_202_8979)">
<path d="M18.0059 0.00439453C8.06474 0.00439453 0.00585938 8.06324 0.00585938 18.0044C0.00585938 27.9456 8.06477 36.0044 18.0059 36.0044C27.947 36.0044 36.0059 27.9455 36.0059 18.0044C36.0059 8.06324 27.947 0.00439453 18.0059 0.00439453ZM3.87361 18.192L17.8182 32.1367C10.161 32.0368 3.97338 25.8492 3.87361 18.192ZM21.1694 31.7833L4.22695 14.8409C5.6636 8.55767 11.2871 3.86978 18.0059 3.86978C22.7024 3.86978 26.8631 6.16097 29.4334 9.68592L27.4764 11.4127C25.3914 8.42274 21.9274 6.46593 18.0059 6.46593C13.0129 6.46593 8.76111 9.63737 7.15399 14.0756L21.9347 28.8563C25.5242 27.5564 28.2849 24.5264 29.2094 20.7736H23.0828V18.0044H29.5443V18.0044H32.1405V18.0044C32.1405 24.7231 27.4526 30.3467 21.1694 31.7833Z" fill="#744C9E"/>
</g>
<defs>
<clipPath id="clip0_202_8979">
<rect width="37" height="37" fill="white"/>
</clipPath>
</defs>
</svg>
