<svg width="34" height="37" viewBox="0 0 34 37" fill="none" xmlns="http://www.w3.org/2000/svg">
<g clip-path="url(#clip0_202_10926)">
<path d="M17.0075 36.0018C25.9648 36.0018 33.226 28.7559 33.226 19.8177C33.226 10.8794 25.9648 3.63354 17.0075 3.63354C8.05033 3.63354 0.789062 10.8794 0.789062 19.8177C0.789062 28.7559 8.05033 36.0018 17.0075 36.0018Z" fill="#6FC0BF"/>
<path fill-rule="evenodd" clip-rule="evenodd" d="M11.5518 35.0625C13.2567 35.6703 15.0931 36.0021 17.0072 36.0021C18.8828 36.0021 20.6838 35.6833 22.3595 35.0988L22.0683 30.2635H11.8333L11.5518 35.0625Z" fill="#D4D4D4"/>
<path fill-rule="evenodd" clip-rule="evenodd" d="M28.0675 16.3662C26.0391 16.2362 26.7228 17.9278 26.5928 19.952C26.4624 21.9761 25.5672 23.5665 27.5959 23.6963C29.6242 23.8263 30.1097 22.2096 30.2401 20.1855C30.3698 18.1617 30.0958 16.4963 28.0675 16.3662Z" fill="#A3A3A3"/>
<path fill-rule="evenodd" clip-rule="evenodd" d="M22.2904 34.0428L22.0686 30.2635H11.8339L11.7178 32.2419C13.3845 34.3474 21.3651 34.9406 22.2904 34.0428Z" fill="#A3A3A3"/>
<path fill-rule="evenodd" clip-rule="evenodd" d="M5.83478 16.3662C7.86311 16.2362 7.17943 17.9278 7.30949 19.952C7.43986 21.9761 8.335 23.5665 6.30635 23.6963C4.27803 23.8263 3.79251 22.2096 3.66213 20.1855C3.53176 18.1614 3.80613 16.4963 5.83478 16.3662Z" fill="#BFBFBF"/>
<path fill-rule="evenodd" clip-rule="evenodd" d="M16.951 2.10724C10.6893 2.10724 5.61328 7.17254 5.61328 13.421V26.9952C5.61328 28.4897 7.4775 32.5058 16.951 32.5058C26.4245 32.5058 28.2887 28.49 28.2887 26.9952V13.421C28.2887 7.17254 23.2127 2.10724 16.951 2.10724Z" fill="#D4D4D4"/>
<path fill-rule="evenodd" clip-rule="evenodd" d="M16.9512 32.5058C26.4247 32.5058 28.2889 28.49 28.2889 26.9952V13.421C28.2889 7.17254 23.2129 2.10724 16.9512 2.10724V32.5058Z" fill="#B3B3B3"/>
<path d="M7.1098 11.1346C7.00861 11.5121 6.9285 11.8984 6.87109 12.2921" stroke="#F0F0F0" stroke-width="3.238"/>
<path d="M12.0159 4.87384C10.2872 5.83092 8.86703 7.27514 7.94141 9.02098" stroke="#F0F0F0" stroke-width="3.238"/>
<path fill-rule="evenodd" clip-rule="evenodd" d="M27.0988 14.4103C25.5612 14.2916 23.2082 14.2436 20.3133 14.7651C19.206 14.9646 18.4121 15.7196 16.9507 15.7196C15.489 15.7196 14.6953 14.9646 13.5881 14.7651C10.6929 14.2436 8.3402 14.2916 6.80226 14.4103C5.49393 14.5112 3.59599 14.7706 3.66182 15.4611C3.69945 15.8574 3.73836 15.943 3.8149 16.3329C3.89047 16.7195 4.46323 16.6705 4.65945 17.1278C4.87026 17.6188 5.45761 19.7328 5.60777 20.2102C5.91004 21.1705 6.53631 21.8912 7.50377 22.2226C8.87469 22.6926 10.2712 22.6825 11.6882 22.4863C12.7228 22.3429 13.5716 21.8308 14.2552 21.0414C14.7972 20.4158 15.1828 19.7013 15.4948 18.9414C15.6495 18.5642 15.7812 18.1708 15.9894 17.8248C16.1126 17.6201 16.3494 17.3824 16.5628 17.3509C16.7062 17.3299 16.8339 17.3133 16.9504 17.3052C17.0665 17.3133 17.1946 17.3299 17.3379 17.3509C17.5517 17.3821 17.7881 17.6198 17.9113 17.8248C18.1199 18.1712 18.2512 18.5642 18.4059 18.9414C18.7179 19.7013 19.1036 20.4158 19.6455 21.0414C20.3292 21.8308 21.1783 22.3429 22.2125 22.4863C23.6295 22.6828 25.026 22.6926 26.397 22.2226C27.3644 21.8912 27.9907 21.1705 28.293 20.2102C28.4434 19.7325 29.0305 17.6188 29.2416 17.1278C29.4378 16.6708 30.0103 16.7198 30.0862 16.3329C30.1624 15.943 30.201 15.8574 30.2389 15.4611C30.3054 14.7709 28.4074 14.5115 27.0988 14.4103ZM14.5046 17.7414C14.4424 19.0679 13.9322 20.2008 12.918 21.0787C12.345 21.5749 11.4832 21.7718 9.71437 21.7718C7.92409 21.7718 6.92939 21.0158 6.69815 20.516C6.14031 19.3095 5.92496 18.0035 6.14128 16.6728C6.27588 15.8461 6.36961 15.4018 9.12053 15.4018C12.1685 15.4018 13.3805 15.967 13.7519 16.1461C14.3431 16.4312 14.5348 17.0963 14.5046 17.7414ZM27.2026 20.516C26.9713 21.0158 25.9766 21.7718 24.1864 21.7718C22.4178 21.7718 21.5558 21.5749 20.9827 21.0787C19.9689 20.2008 19.4587 19.0679 19.3964 17.7414C19.3659 17.0967 19.5579 16.4312 20.1489 16.1464C20.5202 15.9674 21.7322 15.4021 24.7802 15.4021C27.5308 15.4021 27.6245 15.8461 27.7594 16.6731C27.9758 18.0035 27.7604 19.3095 27.2026 20.516Z" fill="#333333"/>
<path opacity="0.5" fill-rule="evenodd" clip-rule="evenodd" d="M14.5047 17.7418C14.4424 19.0683 13.9323 20.2012 12.9181 21.0791C12.345 21.5753 11.4833 21.7722 9.71444 21.7722C7.92417 21.7722 6.92947 21.0162 6.69822 20.5164C6.14039 19.3099 5.92503 18.0039 6.14136 16.6732C6.27595 15.8465 6.36968 15.4022 9.1206 15.4022C12.1686 15.4022 13.3806 15.9675 13.752 16.1465C14.3432 16.4316 14.5349 17.0968 14.5047 17.7418ZM27.2027 20.5164C26.9714 21.0162 25.9767 21.7722 24.1864 21.7722C22.4179 21.7722 21.5558 21.5753 20.9828 21.0791C19.9689 20.2012 19.4588 19.0683 19.3965 17.7418C19.366 17.0971 19.558 16.4316 20.1489 16.1468C20.5203 15.9678 21.7323 15.4025 24.7803 15.4025C27.5309 15.4025 27.6246 15.8465 27.7595 16.6735C27.9758 18.0039 27.7605 19.3099 27.2027 20.5164Z" fill="white"/>
<path fill-rule="evenodd" clip-rule="evenodd" d="M18.1278 17.9598C18.1278 18.1729 17.9549 18.3455 17.7415 18.3455H16.274C16.0606 18.3455 15.8877 18.1729 15.8877 17.9598V15.4528C15.8877 15.2397 16.0606 15.0672 16.274 15.0672H17.7415C17.9549 15.0672 18.1278 15.2397 18.1278 15.4528V17.9598Z" fill="white"/>
<path fill-rule="evenodd" clip-rule="evenodd" d="M25.0176 25.7672C24.236 24.1955 23.1054 26.1224 16.9503 26.1224C10.7953 26.1224 9.66472 24.1955 8.8831 25.7672C8.03759 27.4676 12.9469 29.2294 16.9503 29.2294C20.9538 29.2294 25.8634 27.4676 25.0176 25.7672Z" fill="white"/>
<path fill-rule="evenodd" clip-rule="evenodd" d="M25.0184 25.7672C24.2368 24.1955 23.1062 26.1224 16.9512 26.1224V29.2294C20.9546 29.2294 25.8643 27.4676 25.0184 25.7672Z" fill="#F0F0F0"/>
<path fill-rule="evenodd" clip-rule="evenodd" d="M16.9515 0.00177002C14.4688 0.00177002 12.6743 0.959824 12.9082 2.13355C13.1423 3.30696 13.5983 5.75042 16.9515 5.75042C20.3047 5.75042 20.7607 3.30696 20.9949 2.13355C21.2287 0.959824 19.4342 0.00177002 16.9515 0.00177002Z" fill="#666666"/>
<path fill-rule="evenodd" clip-rule="evenodd" d="M16.9511 0.00177002C19.4338 0.00177002 21.2283 0.959824 20.9945 2.13355C20.7606 3.30728 20.3043 5.75042 16.9511 5.75042V0.00177002Z" fill="#4D4D4D"/>
</g>
<defs>
<clipPath id="clip0_202_10926">
<rect width="34" height="37" fill="white"/>
</clipPath>
</defs>
</svg>
