<svg width="37" height="36" viewBox="0 0 37 36" fill="none" xmlns="http://www.w3.org/2000/svg">
<g clip-path="url(#clip0_202_10991)">
<path d="M24.9272 0.000396729H2.77338C1.24398 0.000396729 0.00415039 1.24022 0.00415039 2.76963V24.9235C0.00415039 26.4529 1.24398 27.6927 2.77338 27.6927H24.9272C26.4566 27.6927 27.6965 26.4529 27.6965 24.9235V2.76963C27.6965 1.24022 26.4566 0.000396729 24.9272 0.000396729Z" fill="#FFAAAA"/>
<path d="M33.235 8.30807H11.0811C9.55172 8.30807 8.31189 9.5479 8.31189 11.0773V33.2312C8.31189 34.7606 9.55172 36.0004 11.0811 36.0004H33.235C34.7644 36.0004 36.0042 34.7606 36.0042 33.2312V11.0773C36.0042 9.5479 34.7644 8.30807 33.235 8.30807Z" fill="#AAFFAA"/>
<path d="M12.4657 15.2312H20.7734V18.0004H12.4657V15.2312Z" fill="#FF0000"/>
<path d="M23.5426 15.2312H31.8503V18.0004H23.5426V15.2312Z" fill="#FF0000"/>
<path d="M12.4657 24.9235H15.2349V22.1542H18.0042V24.9235H20.7734V27.6927H18.0042V30.4619H15.2349V27.6927H12.4657V24.9235Z" fill="#008000"/>
<path d="M23.5426 24.9235H26.3119V22.1542H29.0811V24.9235H31.8503V27.6927H29.0811V30.4619H26.3119V27.6927H23.5426V24.9235Z" fill="#008000"/>
</g>
<defs>
<clipPath id="clip0_202_10991">
<rect width="37" height="36.0004" fill="white"/>
</clipPath>
</defs>
</svg>
