<svg width="37" height="34" viewBox="0 0 37 34" fill="none" xmlns="http://www.w3.org/2000/svg">
<g clip-path="url(#clip0_202_13471)">
<path d="M35.897 12.2203L27.4042 1.35423C26.9156 0.74927 26.0082 0.795806 25.5661 1.42404L21.9596 6.56623C20.8194 5.91473 19.4699 5.56571 18.0738 5.58898C16.5614 5.58898 15.1421 5.96127 13.9554 6.61276L10.4653 1.58691C10.0232 0.95868 9.09245 0.912145 8.6271 1.51711L0.111069 12.3832C-0.237949 12.8253 0.343747 13.3837 0.762568 13.0114L8.09194 6.47316C8.30135 6.28701 8.65036 6.31028 8.83651 6.51969L9.74395 9.35837C5.57901 10.3822 2.48439 14.1515 2.48439 18.619C2.50766 23.6216 6.39338 27.7167 11.3029 28.089C11.4425 29.9039 12.4663 31.8816 15.8169 33.0683C16.0961 33.1614 16.3055 32.8589 16.1426 32.6262C15.8169 32.1841 15.4678 31.5792 15.3515 30.9277C16.1426 31.2069 16.9802 31.3697 17.8877 31.3697C18.6788 31.3697 19.4234 31.2301 20.1679 30.9975C20.0516 31.6257 19.7026 32.2074 19.4001 32.6262C19.2372 32.8589 19.4466 33.1614 19.7259 33.0683C23.0997 31.8816 24.2398 29.8806 24.4492 28.0657C29.5914 27.9261 33.7098 23.6914 33.6866 18.5259C33.6633 13.9887 30.4989 10.2193 26.2641 9.2653L27.1948 6.35682C27.381 6.12414 27.7067 6.10087 27.9394 6.31028L35.2688 12.8485C35.6643 13.2208 36.246 12.6391 35.897 12.2203Z" fill="url(#paint0_linear_202_13471)"/>
<path d="M5.98188 22.3416C7.9522 25.5499 11.4579 26.9787 13.8122 25.5329C16.1664 24.0871 16.4776 20.3142 14.5073 17.1059C12.537 13.8976 9.03122 12.4688 6.677 13.9146C4.32277 15.3604 4.01155 19.1333 5.98188 22.3416Z" fill="white"/>
<path d="M8.26421 22.7261C8.26421 22.7261 8.17114 22.4236 8.17114 21.8652C8.17114 21.3068 8.26421 21.0275 8.26421 21.0275L10.8237 19.9572L8.26421 18.8636C8.26421 18.8636 8.17114 18.5612 8.17114 18.026C8.17114 17.4676 8.26421 17.1884 8.26421 17.1884L12.6851 19.073C12.6851 19.073 12.7782 19.3988 12.7782 19.934C12.7782 20.4691 12.6851 20.8414 12.6851 20.8414L8.26421 22.7261Z" fill="#E54D42"/>
<path d="M30.3397 22.4637C32.3234 19.2334 31.9876 15.421 29.5896 13.9483C27.1916 12.4756 23.6394 13.9003 21.6557 17.1305C19.6719 20.3608 20.0077 24.1732 22.4057 25.6459C24.8038 27.1186 28.3559 25.6939 30.3397 22.4637Z" fill="white"/>
<path d="M22.8765 20.8653C22.8765 20.8653 22.7834 20.6559 22.7834 20.0742C22.7834 19.4925 22.8765 19.2831 22.8765 19.2831H28.74C28.74 19.2831 28.8331 19.4925 28.8331 20.0742C28.8331 20.6326 28.74 20.8653 28.74 20.8653H22.8765Z" fill="#E54D42"/>
</g>
<defs>
<linearGradient id="paint0_linear_202_13471" x1="17.9832" y1="33.0983" x2="17.9832" y2="0.916554" gradientUnits="userSpaceOnUse">
<stop stop-color="#E14760"/>
<stop offset="1" stop-color="#FA8816"/>
</linearGradient>
<clipPath id="clip0_202_13471">
<rect width="37" height="34" fill="white"/>
</clipPath>
</defs>
</svg>
