<svg width="32" height="40" viewBox="0 0 32 40" fill="none" xmlns="http://www.w3.org/2000/svg">
<path fill-rule="evenodd" clip-rule="evenodd" d="M4.89539 35.5172H27.1948V4.51559H4.89539V35.5172Z" fill="#121119"/>
<path fill-rule="evenodd" clip-rule="evenodd" d="M4.89427 36.4445H0.449829V3.55559H4.89427V36.4445Z" fill="#00FF99"/>
<path fill-rule="evenodd" clip-rule="evenodd" d="M27.1165 36.4444H31.5609V12.4445H27.1165V36.4444Z" fill="#9933FF"/>
<path fill-rule="evenodd" clip-rule="evenodd" d="M31.5609 40H0.449829V35.5556H31.5609V40Z" fill="#00CCFF"/>
<path fill-rule="evenodd" clip-rule="evenodd" d="M0.449829 4.44447H18.2276V3.05176e-05H0.449829V4.44447Z" fill="#FFF35C"/>
<path fill-rule="evenodd" clip-rule="evenodd" d="M27.1165 8.88891V4.44447H22.6721V3.05176e-05H18.2277V4.47292V4.47958V8.91069V8.91736V13.3334H22.677H27.1108H31.561V8.88892H27.1165" fill="#FF6666"/>
<path d="M18.2277 4.44447H13.7775L18.2277 3.05176e-05V4.44447Z" fill="#9F983D"/>
<path d="M27.1165 17.8136V13.3334H31.5551L27.1165 17.8136Z" fill="#62259F"/>
</svg>
