<svg width="49" height="48" viewBox="0 0 49 48" fill="none" xmlns="http://www.w3.org/2000/svg">
<path d="M47.0987 21.8629L26.1466 0.905442C25.5665 0.325943 24.7802 0.000427246 23.9603 0.000427246C23.1404 0.000427246 22.354 0.325943 21.774 0.905442L17.4175 5.25873L22.9376 10.7788C25.8369 9.79952 28.582 12.5756 27.5866 15.4589L32.9074 20.7797C36.5749 19.5154 39.4625 24.1012 36.7078 26.8537C33.8695 29.692 29.1852 26.5462 30.7077 22.853L25.7416 17.8932V30.9488C28.4523 32.2924 28.1266 35.4328 26.7144 36.8418C26.0245 37.5313 25.0889 37.9187 24.1135 37.9187C23.138 37.9187 22.2025 37.5313 21.5126 36.8418C19.63 34.956 20.3265 31.8156 22.7179 30.8417V17.6629C20.4893 16.7511 20.0822 14.3692 20.7208 12.8414L15.2789 7.39305L0.908632 21.7654C0.32887 22.3453 0.00317383 23.1317 0.00317383 23.9517C0.00317383 24.7717 0.32887 25.5581 0.908632 26.138L21.8672 47.0955C22.447 47.6749 23.2332 48.0004 24.053 48.0004C24.8727 48.0004 25.6589 47.6749 26.2387 47.0955L47.0987 26.2355C47.6785 25.6556 48.0042 24.8692 48.0042 24.0492C48.0042 23.2292 47.6785 22.4428 47.0987 21.8629Z" fill="#EE513B"/>
</svg>
