<svg width="36" height="26" viewBox="0 0 36 26" fill="none" xmlns="http://www.w3.org/2000/svg">
<path d="M16.0479 21.834C16.6793 21.834 17.0581 22.3391 17.0581 22.8442C17.0581 23.4756 16.553 23.8545 16.0479 23.8545C15.4165 23.8545 15.0376 23.3493 15.0376 22.8442C15.0376 22.3391 15.4165 21.834 16.0479 21.834ZM32.5909 15.3936C31.9595 15.3936 31.5806 14.8884 31.5806 14.3833C31.5806 13.8782 32.0857 13.373 32.5909 13.373C33.2223 13.373 33.6011 13.8782 33.6011 14.3833C33.6011 14.8884 33.096 15.3936 32.5909 15.3936ZM32.5909 11.1C30.8229 11.1 29.3075 12.6154 29.3075 14.3833C29.3075 14.7622 29.3075 15.141 29.4338 15.3936L18.6998 21.0763C18.0684 20.1923 17.0581 19.6872 16.0479 19.6872C14.7851 19.6872 13.6485 20.4449 13.1434 21.4551L3.54594 16.4038C2.53568 15.8987 1.77799 14.1307 1.90427 12.6154C1.90427 11.8577 2.28312 11.2262 2.66197 10.9737C2.91453 10.8474 3.29338 10.8474 3.54594 10.9737H3.67222C6.19787 12.3628 14.6588 16.6564 14.9113 16.909C15.4165 17.1615 15.7953 17.2878 16.6793 16.7827L33.98 7.81663C34.2325 7.69035 34.4851 7.43778 34.4851 7.05893C34.4851 6.5538 33.98 6.30124 33.98 6.30124C32.9697 5.79611 31.4543 5.1647 30.0652 4.40701C26.9082 2.89162 23.3723 1.24995 21.7306 0.492253C20.3415 -0.265441 19.3312 0.365971 19.0787 0.492253L18.6998 0.618535C11.628 4.15444 2.15684 8.82689 1.65171 9.07945C0.64145 9.71086 0.136322 10.8474 0.0100399 12.2365C-0.116242 14.5096 1.0203 16.909 2.78825 17.7929L13.0171 23.0968C13.2697 24.7385 14.6588 25.875 16.1742 25.875C17.9421 25.875 19.4575 24.4859 19.4575 22.7179L30.6966 16.6564C31.328 17.1615 31.9595 17.2878 32.7172 17.2878C34.4851 17.2878 36.0005 15.7724 36.0005 14.0045C35.7479 12.4891 34.3588 11.1 32.5909 11.1Z" fill="#346DDB"/>
</svg>
