<svg width="37" height="36" viewBox="0 0 37 36" fill="none" xmlns="http://www.w3.org/2000/svg">
<g clip-path="url(#clip0_202_11687)">
<path d="M29.3589 22.1064L27.6776 25.1887L22.1435 29.1816L18.0105 29.4618V19.3043H29.569L29.3589 22.1064Z" fill="#F39800"/>
<path d="M36.0076 18.0045C36.0076 27.6886 27.9374 35.4781 18.0427 35.4781C8.14792 35.4781 0.00756836 27.6886 0.00756836 18.0045C0.00756836 8.32031 8.07774 0.530884 17.9725 0.530884C27.8672 0.530884 36.0076 8.39049 36.0076 18.0045ZM18.0427 1.72386C8.7795 1.72386 1.3409 9.02206 1.3409 18.0045C1.3409 26.9869 8.84967 34.2851 18.0427 34.2851C27.2356 34.2851 34.7444 26.9869 34.7444 18.0045C34.7444 9.02206 27.2356 1.72386 18.0427 1.72386ZM29.8321 18.7062H18.6742V11.2677C18.6742 11.2677 18.6041 10.7063 18.0427 10.7063C17.4813 10.7063 17.4111 11.2677 17.4111 11.2677V29.1623C11.4462 28.8114 6.53388 23.9693 6.53388 18.0045C6.53388 12.0396 11.5163 6.77646 18.183 6.77646C21.2707 6.77646 23.2356 7.82909 24.7795 8.88171C25.9725 9.65364 27.1655 10.9168 27.7269 11.8291C27.797 11.8992 28.1479 12.2501 28.569 11.9694C29.0602 11.6887 28.7795 11.1975 28.7795 11.1273C26.4637 7.75891 22.5339 5.51331 18.1128 5.51331C11.0953 5.51331 5.3409 10.9168 5.3409 18.0045C5.3409 25.022 11.0251 30.4956 18.1128 30.4956C23.2356 30.4956 27.7269 27.5483 29.8321 23.1272C30.3234 22.0746 30.5339 21.0922 30.8146 19.8992C30.8848 19.2676 30.6041 18.7062 29.8321 18.7062ZM29.2006 20.8816C28.2181 24.1799 26.3234 26.0044 24.9198 26.9869C23.376 28.0395 21.4111 29.0921 18.6041 29.2325V19.8992H29.4111C29.4111 19.8992 29.2707 20.6009 29.2006 20.8816Z" fill="#3E3A39"/>
</g>
<defs>
<clipPath id="clip0_202_11687">
<rect width="37" height="36" fill="white"/>
</clipPath>
</defs>
</svg>
