<svg width="49" height="49" viewBox="0 0 49 49" fill="none" xmlns="http://www.w3.org/2000/svg">
<path d="M24.0048 0.00561523C10.7516 0.00561523 0.00463867 11.0226 0.00463867 24.6132C0.00463867 35.4855 6.88142 44.7095 16.4174 47.9633C17.6169 48.1911 18.0572 47.4295 18.0572 46.7796C18.0572 46.1928 18.035 44.2543 18.0247 42.1981C11.3478 43.6867 9.93888 39.2948 9.93888 39.2948C8.84713 36.4505 7.27409 35.6942 7.27409 35.6942C5.09655 34.1669 7.43823 34.1982 7.43823 34.1982C9.84826 34.3718 11.1173 36.7341 11.1173 36.7341C13.2578 40.496 16.7318 39.4084 18.1014 38.7797C18.3168 37.1892 18.9388 36.1037 19.6251 35.4892C14.2944 34.8669 8.69054 32.757 8.69054 23.328C8.69054 20.6414 9.62809 18.4462 11.1634 16.723C10.9142 16.1032 10.0927 13.6004 11.3959 10.2108C11.3959 10.2108 13.4113 9.54948 17.9976 12.7332C19.9121 12.188 21.9652 11.9146 24.0048 11.9052C26.0445 11.9146 28.0992 12.188 30.0172 12.7332C34.598 9.54948 36.6106 10.2108 36.6106 10.2108C37.917 13.6004 37.0951 16.1032 36.8459 16.723C38.3848 18.4462 39.316 20.6414 39.316 23.328C39.316 32.7794 33.7014 34.8604 28.3571 35.4696C29.218 36.2333 29.985 37.7308 29.985 40.0266C29.985 43.3191 29.9572 45.9691 29.9572 46.7796C29.9572 47.4344 30.3892 48.2017 31.6057 47.9601C41.1366 44.7026 48.0046 35.4818 48.0046 24.6132C48.0046 11.0226 37.2592 0.00561523 24.0048 0.00561523Z" fill="#161514"/>
<path d="M9.16549 35.1679C9.11273 35.289 8.92549 35.3253 8.75491 35.2421C8.58116 35.1627 8.48357 34.9976 8.5399 34.8762C8.59147 34.7515 8.77911 34.7168 8.95246 34.8003C9.12661 34.8798 9.22578 35.0465 9.16549 35.1679Z" fill="#161514"/>
<path d="M10.1358 36.2686C10.0216 36.3763 9.79821 36.3263 9.64668 36.156C9.48998 35.9862 9.46063 35.759 9.57646 35.6497C9.69428 35.5419 9.91088 35.5924 10.068 35.7622C10.2247 35.9341 10.2552 36.1596 10.1358 36.2686Z" fill="#161514"/>
<path d="M11.0803 37.6719C10.9336 37.7756 10.6936 37.6783 10.5452 37.4617C10.3984 37.245 10.3984 36.9852 10.5484 36.8811C10.6971 36.777 10.9336 36.8706 11.0839 37.0856C11.2303 37.3059 11.2303 37.5658 11.0803 37.6719Z" fill="#161514"/>
<path d="M12.3743 39.0275C12.243 39.1748 11.9634 39.1353 11.7587 38.9343C11.5492 38.7378 11.4909 38.459 11.6226 38.3118C11.7555 38.1641 12.0368 38.2057 12.243 38.405C12.4509 38.6011 12.5144 38.8819 12.3743 39.0275Z" fill="#161514"/>
<path d="M14.1595 39.8147C14.1016 40.0056 13.8322 40.0923 13.5609 40.0112C13.2899 39.9277 13.1126 39.7042 13.1673 39.5113C13.2237 39.3192 13.4942 39.2289 13.7675 39.3156C14.0381 39.3987 14.2158 39.6206 14.1595 39.8147Z" fill="#161514"/>
<path d="M16.1199 39.9608C16.1267 40.1617 15.8966 40.3283 15.6118 40.332C15.3254 40.3384 15.0937 40.1758 15.0905 39.9781C15.0905 39.7752 15.3154 39.6102 15.6019 39.6053C15.8867 39.5997 16.1199 39.7611 16.1199 39.9608Z" fill="#161514"/>
<path d="M17.9443 39.6448C17.9784 39.8409 17.7805 40.0423 17.4977 40.0959C17.2196 40.1476 16.9621 40.0265 16.9268 39.8321C16.8923 39.6311 17.0938 39.4298 17.3715 39.3777C17.6547 39.3277 17.9082 39.4455 17.9443 39.6448Z" fill="#161514"/>
</svg>
