<svg width="37" height="32" viewBox="0 0 37 32" fill="none" xmlns="http://www.w3.org/2000/svg">
<g clip-path="url(#clip0_202_9693)">
<path d="M34.8457 7.40503C34.6974 7.01953 34.2526 6.84161 33.8968 6.98988C33.6299 7.10849 33.452 7.37538 33.452 7.64226C33.452 7.73123 33.452 7.82019 33.5113 7.8795C34.1933 9.68839 34.5788 11.6456 34.5788 13.7213C34.5788 22.1134 28.3218 29.0821 20.1966 30.12V22.3803C20.7007 22.2914 21.1752 22.1431 21.6496 21.9948V28.4891C28.2625 26.8877 33.2147 20.8976 33.2147 13.7213C33.2147 7.99811 30.0417 2.98658 25.3564 0.40668C25.0005 0.199102 24.5557 0.347372 24.3778 0.732874C24.3185 0.821836 24.3185 0.940453 24.3185 1.05907C24.3185 1.32595 24.4668 1.56319 24.6744 1.6818C28.9149 4.02447 31.7913 8.56154 31.7913 13.751C31.7913 19.5928 28.1735 24.5747 23.0434 26.5912V20.8383C23.933 20.5714 24.5854 19.7411 24.5854 18.7329C24.5854 17.9026 24.1702 17.2205 23.4882 16.835C23.9923 11.8531 26.2757 13.1876 26.2757 11.5863V10.667C26.2757 8.29465 20.7897 0.55495 18.2098 0.377026H17.7353C15.1554 0.55495 9.66941 8.29465 9.66941 10.667V11.5863C9.66941 13.1579 11.9231 11.8531 12.4569 16.835C11.8045 17.2205 11.3893 17.9322 11.3893 18.7329C11.3893 19.7115 12.0417 20.5418 12.9314 20.8383V26.5912C7.83086 24.5747 4.18342 19.5928 4.18342 13.751C4.18342 8.56154 7.05986 4.02447 11.3004 1.6818C11.6266 1.50388 11.7748 1.08872 11.5969 0.732874C11.508 0.465988 11.2411 0.317718 10.9742 0.317718C10.8556 0.317718 10.737 0.347372 10.6183 0.40668C5.933 2.98658 2.76002 7.99811 2.76002 13.7213C2.76002 20.8976 7.71225 26.8877 14.3844 28.5187V22.0245C14.8589 22.1727 15.3333 22.321 15.8375 22.41V30.1497C7.71225 29.0821 1.45525 22.1431 1.45525 13.7213C1.45525 11.6752 1.84075 9.71805 2.52279 7.8795C2.67106 7.52365 2.49314 7.10849 2.13729 6.96022C2.04833 6.93057 1.95936 6.90091 1.8704 6.90091C1.57386 6.90091 1.30697 7.07884 1.18836 7.37538C0.417354 9.3622 0.00219727 11.4973 0.00219727 13.7213C0.00219727 23.4182 7.65294 31.3062 17.2608 31.6917V22.5879C17.5277 22.6176 18.0022 22.6176 18.0022 22.6176C18.0022 22.6176 18.4767 22.6176 18.7435 22.5879V31.6917C28.3515 31.3062 36.0022 23.4182 36.0022 13.7213C35.9725 11.4973 35.587 9.3622 34.8457 7.40503ZM21.3235 17.6653C21.5903 17.3984 21.9462 17.2205 22.3613 17.2205C22.7765 17.2205 23.1323 17.3984 23.3992 17.6653C23.6661 17.9322 23.844 18.2881 23.844 18.7032C23.844 19.1184 23.6661 19.4742 23.3992 19.7411C23.1323 20.008 22.7765 20.1859 22.3613 20.1859C21.9462 20.1859 21.5903 20.008 21.3235 19.7411C21.0566 19.4742 20.8786 19.1184 20.8786 18.7032C20.8786 18.2881 21.0566 17.9322 21.3235 17.6653ZM14.6809 19.7411C14.4141 20.008 14.0582 20.1859 13.6431 20.1859C13.2279 20.1859 12.872 20.008 12.6052 19.7411C12.3086 19.4742 12.1604 19.1184 12.1604 18.7032C12.1604 18.2881 12.3383 17.9322 12.6052 17.6653C12.872 17.3984 13.2279 17.2205 13.6431 17.2205C14.0582 17.2205 14.4141 17.3984 14.6809 17.6653C14.9478 17.9322 15.1258 18.2881 15.1258 18.7032C15.0961 19.1184 14.9478 19.4742 14.6809 19.7411Z" fill="#128379"/>
</g>
<defs>
<clipPath id="clip0_202_9693">
<rect width="37" height="32" fill="white"/>
</clipPath>
</defs>
</svg>
