<svg width="30" height="41" viewBox="0 0 30 41" fill="none" xmlns="http://www.w3.org/2000/svg">
<g clip-path="url(#clip0_202_11359)">
<path d="M24.6532 2.23899C22.1147 0.410828 19.213 -0.730588 19.213 0.544598C19.213 0.710667 19.189 20.9817 19.189 20.9817H28.4606V6.61978C28.4824 5.7623 27.0586 3.97118 24.6532 2.23899Z" fill="#D53A56"/>
<path d="M28.1767 6.61304C27.706 7.25567 25.4225 6.38346 23.0764 4.66493C20.7303 2.94639 19.2099 1.03232 19.6807 0.389693C20.1515 -0.252936 22.4349 0.619192 24.781 2.33773C27.1272 4.05626 28.6474 5.97041 28.1767 6.61304Z" fill="#E47176"/>
<path d="M18.2476 40.0031H29.3465V38.7545H18.2476V40.0031Z" fill="#505457"/>
<path d="M18.4419 22.9519H29.1524V13.4067H18.4419V22.9519Z" fill="#E8E8E3"/>
<path d="M18.2476 24.4918H29.3465V22.9518H18.2476V24.4918Z" fill="#ADBBB5"/>
<path d="M17.6372 38.8362H29.9571V24.4908H17.6372V38.8362Z" fill="#393D3E"/>
<path d="M23.2616 6.02556C22.2386 6.05653 20.8747 6.27363 19.0768 9.18735C18.2089 10.8613 17.5889 12.004 17.5889 12.004C17.5889 12.004 13.0632 11.5433 10.0563 13.2791C8.16543 14.333 4.87962 16.7819 5.56162 20.5636C5.93363 21.9585 7.14255 23.5705 11.4203 23.9424C11.4513 24.0045 4.9726 26.1743 4.44567 28.5612C4.07375 30.3282 4.78663 31.2891 7.97955 32.25L1.99677 33.8309C1.99677 33.8309 0.0515701 34.4253 0.0454102 36.1186V36.1328C0.0457431 36.249 0.0551495 36.3702 0.0749611 36.4968C0.198909 37.2097 1.40784 39.2866 7.97955 39.1626C10.5833 38.9456 19.3558 38.1396 19.2629 32.25C19.2318 30.8242 18.0849 29.3981 15.822 28.3753C13.8072 27.5693 11.3892 26.6703 11.3892 26.6703C11.3892 26.6703 9.09541 25.9884 11.0173 24.9035C12.4432 24.1595 13.2181 23.9116 13.2181 23.9116L13.9621 23.7255C13.9621 23.7255 19.3558 23.2296 21.7736 18.8898C22.1146 18.0839 24.2521 13.5286 18.3666 12.1328C18.4577 12.1086 19.8104 8.4917 21.5567 7.32747C21.6805 7.26554 22.2076 7.17256 21.9597 7.48239C21.442 8.12984 20.837 8.60599 20.5008 9.40278C19.8731 10.8902 20.7377 12.3055 22.3048 12.4559C24.8829 12.7033 27.2638 9.27151 25.7631 6.98193C25.2833 6.2499 24.4384 6.01241 23.6075 6.01233C23.4916 6.01233 23.376 6.01699 23.2616 6.02556ZM12.5982 23.0272C11.5957 22.8274 11.5209 20.3006 12.1446 17.4427C12.7683 14.5849 14.1413 12.4986 15.14 12.7167C16.1389 12.9347 16.3852 15.3743 15.7614 18.2321C15.1719 20.9334 14.0553 23.0485 12.8148 23.0488C12.7428 23.0488 12.6708 23.0417 12.5982 23.0272ZM6.80151 37.3957C6.83256 34.8539 8.94042 32.3429 8.94042 32.3429C8.94042 32.3429 9.99917 32.744 11.456 33.1779C14.0861 34.025 14.1481 34.6368 13.9931 35.3882C13.6211 37.4104 10.6763 38.1396 9.62242 38.3257C9.1536 38.4011 8.76245 38.4334 8.4363 38.4334C6.88608 38.4335 6.80151 37.703 6.80151 37.3957Z" fill="#F93954"/>
</g>
<defs>
<clipPath id="clip0_202_11359">
<rect width="30" height="41" fill="white"/>
</clipPath>
</defs>
</svg>
