<svg width="37" height="37" viewBox="0 0 37 37" fill="none" xmlns="http://www.w3.org/2000/svg">
<g clip-path="url(#clip0_202_11275)">
<path d="M36.0059 10.5455V25.4571L35.5253 25.504L18.1769 18.2165L18.0059 18.0013L36.0059 10.5455Z" fill="#F36A22"/>
<path d="M36.0059 25.4572L25.4617 36.0014L25.3007 35.8775L17.9448 18.495L18.0059 18.0014L36.0059 25.4572Z" fill="#F3852F"/>
<path d="M18.0059 18.0014L17.6082 18.2746L10.4875 35.6978L10.5501 36.0014H25.4617L18.0059 18.0014Z" fill="#F2C32E"/>
<path d="M0.00585938 25.4572L0.452203 25.1101L17.6082 17.938L18.0059 18.0014L10.5501 36.0014L0.00585938 25.4572Z" fill="#CBDC38"/>
<path d="M0.00585938 10.5456L0.452203 10.5153L17.7591 17.6131L18.0059 18.0014L0.00585938 25.4571V10.5456Z" fill="#B5D66D"/>
<path d="M10.5501 0.00140381L0.00585938 10.5456L18.0059 18.0014L18.0375 17.5435L11.3256 0.426935L10.5501 0.00140381Z" fill="#69C5E5"/>
<path d="M10.5501 0.00140381H25.4617L18.0059 18.0014L10.5501 0.00140381Z" fill="#6D9FD5"/>
</g>
<defs>
<clipPath id="clip0_202_11275">
<rect width="37" height="37" fill="white"/>
</clipPath>
</defs>
</svg>
