<svg width="37" height="37" viewBox="0 0 37 37" fill="none" xmlns="http://www.w3.org/2000/svg">
<g clip-path="url(#clip0_202_15898)">
<path d="M36.0076 18.0044C36.0076 27.9455 27.9486 36.0044 18.0076 36.0044C8.06637 36.0044 0.00756836 27.9455 0.00756836 18.0044C0.00756836 8.06333 8.06637 0.00439453 18.0076 0.00439453C27.9486 0.00439453 36.0076 8.06333 36.0076 18.0044Z" fill="#F8835A"/>
<path d="M11.0648 19.7441C10.6621 19.7441 10.2589 19.5936 9.94672 19.2912C9.30927 18.6735 9.2931 17.6561 9.91072 17.0187L20.7591 5.82223C21.3766 5.18478 22.394 5.16861 23.0316 5.78623C23.6689 6.40386 23.6851 7.42142 23.0675 8.05887L12.2192 19.2553C11.9041 19.5806 11.4846 19.7441 11.0648 19.7441ZM18.1398 20.1711C17.7383 20.1711 17.3363 20.0212 17.0251 19.7197C16.3896 19.1039 16.3736 18.0896 16.9894 17.4541L25.5572 8.61105C26.173 7.97557 27.1872 7.95968 27.8228 8.57533C28.4583 9.19099 28.4743 10.2053 27.8587 10.8408L19.2907 19.6839C18.9764 20.0081 18.5583 20.1711 18.1398 20.1711ZM14.6677 31.3207C14.2648 31.3207 13.8617 31.1704 13.5496 30.8678C12.9121 30.2503 12.8959 29.2327 13.5136 28.5953L28.4997 13.1281C29.1172 12.4908 30.1347 12.4746 30.7722 13.0922C31.4098 13.7098 31.4258 14.7273 30.808 15.3649L15.8221 30.8319C15.5069 31.1572 15.0874 31.3207 14.6677 31.3207ZM9.96524 28.5869C9.56235 28.5869 9.15932 28.4364 8.84713 28.1339C8.20968 27.5163 8.19351 26.4987 8.81113 25.8614L12.8967 21.6446C13.5145 21.0072 14.5319 20.991 15.1694 21.6086C15.8068 22.2264 15.8228 23.2438 15.2052 23.8813L11.1196 28.0981C10.8045 28.4233 10.385 28.5869 9.96524 28.5869ZM6.70567 16.3858C6.30278 16.3858 5.89961 16.2353 5.58742 15.9328C4.94996 15.3152 4.93393 14.2978 5.55156 13.6603L9.63714 9.44355C10.2549 8.8061 11.2723 8.79007 11.9098 9.40769C12.5472 10.0253 12.5633 11.0427 11.9456 11.6803L7.86006 15.897C7.54478 16.2222 7.12543 16.3858 6.70567 16.3858ZM27.7197 25.5679C27.3169 25.5679 26.9138 25.4174 26.6016 25.1149C25.9641 24.4973 25.948 23.4799 26.5656 22.8424L28.4997 20.8463C29.1172 20.209 30.1348 20.1925 30.7722 20.8104C31.4097 21.428 31.4257 22.4455 30.8081 23.0829L28.8741 25.0791C28.5589 25.4044 28.1395 25.5679 27.7197 25.5679ZM23.9536 29.553C23.9536 30.4406 23.2341 31.16 22.3464 31.16C21.459 31.16 20.7394 30.4406 20.7394 29.553C20.7394 28.6653 21.459 27.9458 22.3464 27.9458C23.2341 27.9458 23.9536 28.6653 23.9536 29.553ZM8.59422 22.3536C8.59422 23.2412 7.87464 23.9608 6.98702 23.9608C6.09939 23.9608 5.37995 23.2412 5.37995 22.3536C5.37995 21.4659 6.09939 20.7465 6.98702 20.7465C7.87464 20.7465 8.59422 21.4659 8.59422 22.3536ZM16.2279 6.58352C16.2279 7.47115 15.5083 8.19058 14.6209 8.19058C13.7332 8.19058 13.0137 7.47115 13.0137 6.58352C13.0137 5.6959 13.7332 4.97632 14.6209 4.97632C15.5083 4.97632 16.2279 5.6959 16.2279 6.58352Z" fill="white"/>
</g>
<defs>
<clipPath id="clip0_202_15898">
<rect width="37" height="37" fill="white"/>
</clipPath>
</defs>
</svg>
