<svg width="41" height="32" viewBox="0 0 41 32" fill="none" xmlns="http://www.w3.org/2000/svg">
<g clip-path="url(#clip0_202_14870)">
<path fill-rule="evenodd" clip-rule="evenodd" d="M12.1332 3.02028C8.35941 2.26237 -0.513581 6.1257 0.0267941 10.4607C1.36922 10.8598 2.53824 11.3479 2.34719 11.8479H39.2736C39.4956 10.3693 38.3354 9.23554 39.1204 8.00157C39.3682 7.61189 39.5568 7.16736 39.6879 6.72409V4.32487C39.6684 4.30722 39.6469 4.29209 39.6242 4.28074C30.4549 7.24807 34.9078 6.62068 25.1217 4.282C23.4237 2.15076 17.7873 0.607197 15.1598 0.435059C14.1509 0.435059 12.1332 3.02028 12.1332 3.02028Z" fill="url(#paint0_linear_202_14870)"/>
<path fill-rule="evenodd" clip-rule="evenodd" d="M24.3026 10.5868V11.7218H2.36734C2.38752 12.0572 1.83327 12.4015 0.342041 12.7306C1.66618 14.37 5.57491 15.9458 6.96274 16.1356C6.7143 16.1873 6.43876 16.2793 6.14555 16.4048C10.5833 16.9635 15.8301 17.1526 18.4392 17.2075H27.048C26.9553 17.1867 26.8601 17.1659 26.7618 17.1444C24.8468 16.7838 25.6123 17.0442 24.681 16.5139C37.0093 13.5459 29.8666 13.9848 39.6242 16.1356C39.9401 15.5681 38.4268 14.1809 39.1204 12.416C39.384 11.7445 39.3196 11.1467 39.1872 10.5868H24.3026Z" fill="url(#paint1_linear_202_14870)"/>
<path fill-rule="evenodd" clip-rule="evenodd" d="M15.7274 15.0636V16.1986C13.6661 16.1557 10.1029 16.1317 6.73835 16.191C4.51569 16.8203 0.589299 20.1748 0.0268555 22.1477V22.9511C0.0445107 22.9927 0.0653185 23.033 0.0899097 23.0715C1.26272 23.4202 2.30311 23.8363 2.42039 24.2695H18.9431V23.1345H39.2018C38.99 22.195 38.5606 21.3665 39.1205 20.4863C39.6962 19.2466 39.966 18.396 40.0032 17.8355V17.5864C39.8418 15.5018 35.3202 18.8204 32.8151 18.8469C29.9776 18.3418 30.5451 17.9641 26.7618 17.1444C24.8469 16.7837 25.6124 17.0441 24.6811 16.5138C27.0248 15.9495 28.6648 15.5088 29.8515 15.179V15.0636H15.7274Z" fill="url(#paint2_linear_202_14870)"/>
<path fill-rule="evenodd" clip-rule="evenodd" d="M14.2139 6.10993H14.2769C15.7883 8.78658 14.8255 10.8415 14.0247 13.4873C13.799 14.0226 14.6136 14.4369 14.8444 13.8656C15.4869 11.4077 16.5046 8.70587 15.2858 6.23604H15.4119C21.2463 6.28081 27.1507 7.34012 32.4366 9.89318C32.7878 9.97263 33.9177 10.8415 34.139 10.1454C31.5929 7.13393 21.6852 5.41885 17.4927 5.54181C17.3105 5.57649 16.8741 5.521 16.3754 5.46614C15.9844 5.42264 15.5544 5.37976 15.1767 5.37976C14.4749 5.37976 13.9566 5.52983 14.2139 6.10993Z" fill="#974DFF"/>
<path fill-rule="evenodd" clip-rule="evenodd" d="M14.2139 6.10997H14.277C15.1881 7.83387 15.4221 9.94114 14.5292 11.7218H15.412C15.871 9.93295 16.0249 8.0161 15.2228 6.29913C21.1266 6.31679 27.1161 7.28341 32.4366 9.95628C32.7866 10.0181 33.9833 10.967 34.1391 10.2085C31.4631 7.14027 21.8044 5.41952 17.4928 5.54185C17.2847 5.58157 16.8521 5.52356 16.3666 5.46492C15.9921 5.42016 15.5854 5.37476 15.2266 5.37476C14.5671 5.37476 14.0664 5.52672 14.2139 6.10997Z" fill="#F1A5FF"/>
<path fill-rule="evenodd" clip-rule="evenodd" d="M11.944 6.42526H12.0071C13.2316 8.09179 13.1774 10.1064 12.3854 11.911C12.1199 12.3498 12.7795 12.7887 13.0159 12.2893C13.4586 11.3555 13.7638 10.2999 13.7726 9.2627C13.7814 8.09557 13.2486 6.89186 12.6376 5.92083C12.5575 5.77643 12.4415 5.71716 12.3223 5.71716C12.0172 5.71716 11.6975 6.10684 11.944 6.42526Z" fill="#974DFF"/>
<path fill-rule="evenodd" clip-rule="evenodd" d="M13.2683 11.7218C13.634 10.1959 13.9051 8.57348 13.0791 7.11881C12.9637 6.87984 12.6232 6.19003 12.6377 5.92078C12.3748 5.43401 11.6749 5.91826 11.9441 6.36216H12.0072C13.1283 7.96311 13.2683 9.95815 12.4486 11.7218H13.2683Z" fill="#F1A5FF"/>
<path fill-rule="evenodd" clip-rule="evenodd" d="M11.944 6.36219H12.0071C13.1275 7.96313 13.2682 9.9588 12.4485 11.7218H13.2682C13.6339 10.1959 13.905 8.5735 13.079 7.11884C12.9636 6.87986 12.6225 6.19005 12.6376 5.92081C12.5594 5.77641 12.4434 5.71777 12.3255 5.71777C12.0449 5.71777 11.7549 6.05007 11.944 6.36219Z" fill="#F1A5FF"/>
<path fill-rule="evenodd" clip-rule="evenodd" d="M18.8799 23.1345V24.2695H2.42024C2.51608 24.6245 1.99021 24.9915 0.405029 25.3414C3.45875 28.3088 7.25965 29.2457 10.6192 28.4941C11.1444 30.8618 15.5677 32.2169 18.5016 31.2685C18.5419 30.6626 18.4341 30.0572 18.1863 29.503C22.2867 30.201 32.2934 27.0546 32.8149 26.7917C33.2872 26.704 34.7399 27.223 36.1845 27.7425C37.8258 28.3327 39.4564 28.9223 39.6241 28.6202C39.94 28.0528 38.4267 26.6656 39.1203 24.9C39.3738 24.2544 39.324 23.6762 39.2017 23.1345H18.8799Z" fill="url(#paint3_linear_202_14870)"/>
<path fill-rule="evenodd" clip-rule="evenodd" d="M14.2139 18.7208H14.2769C15.8029 21.4132 14.7965 23.494 14.0247 26.1612C13.799 26.6971 14.6136 27.1108 14.8444 26.5395C15.5342 24.1106 16.4782 21.4163 15.2858 18.9724L15.4119 18.9099C21.2444 18.9572 27.1558 19.9188 32.4366 22.504C32.7878 22.5835 33.9177 23.4517 34.139 22.7562C31.5929 19.7454 21.6852 18.0297 17.4927 18.1533C17.3105 18.188 16.8748 18.1325 16.3766 18.0776C15.9851 18.0341 15.5544 17.9906 15.1767 17.9906C14.4749 17.9906 13.9566 18.1413 14.2139 18.7208Z" fill="#373FFF"/>
<path fill-rule="evenodd" clip-rule="evenodd" d="M14.214 18.7208H14.277C15.18 20.4264 15.4215 22.5078 14.5292 24.2695H15.412C15.8742 22.4813 16.0249 20.5638 15.2228 18.8469C21.1203 18.8671 27.0928 19.9245 32.4366 22.504C32.7866 22.5835 33.919 23.4524 34.1391 22.7562C31.5936 19.7454 21.6853 18.0291 17.4928 18.1533C17.3106 18.188 16.8755 18.1325 16.3767 18.0776C15.9852 18.0341 15.5545 17.9906 15.1768 17.9906C14.475 17.9906 13.9567 18.1413 14.214 18.7208Z" fill="#F1A5FF"/>
<path fill-rule="evenodd" clip-rule="evenodd" d="M11.944 19.0362H12.007C13.2315 20.7027 13.1773 22.7173 12.3853 24.5219C12.1199 24.9608 12.7794 25.3996 13.0159 24.9002C13.4585 23.9664 13.7637 22.9115 13.7725 21.8736C13.7971 20.6737 13.1981 19.4984 12.6376 18.4687C12.3261 17.9208 11.5158 18.6024 11.944 19.0362Z" fill="#373FFF"/>
<path fill-rule="evenodd" clip-rule="evenodd" d="M13.2681 24.2695C13.4308 23.2373 13.8198 22.1887 13.5834 21.1168C13.5519 20.4932 11.9887 16.7951 11.8179 18.973H12.007C13.1389 20.5739 13.2694 22.5658 12.4484 24.3326L13.2681 24.2695Z" fill="#F1A5FF"/>
<path fill-rule="evenodd" clip-rule="evenodd" d="M11.8179 18.9723H12.007C13.1389 20.5739 13.2694 22.5658 12.4484 24.3325L13.2681 24.2695C13.4308 23.2379 13.8198 22.1887 13.5834 21.1168C13.5588 20.6319 12.6105 18.2932 12.1079 18.2932C11.9635 18.2932 11.8563 18.4862 11.8179 18.9723Z" fill="#F1A5FF"/>
<path fill-rule="evenodd" clip-rule="evenodd" d="M6.8365 6.86658C7.77664 6.86658 8.53896 7.6289 8.53896 8.56904C8.53896 9.50918 7.77664 10.2715 6.8365 10.2715C5.89636 10.2715 5.13403 9.50918 5.13403 8.56904C5.13403 7.6289 5.89636 6.86658 6.8365 6.86658Z" fill="black"/>
<path fill-rule="evenodd" clip-rule="evenodd" d="M5.07104 8.44289C5.10572 7.43339 5.95191 6.64332 6.96141 6.67863C7.97091 6.71331 8.76098 7.56013 8.72567 8.56899C8.69225 9.55327 7.88453 10.3339 6.89962 10.3345C5.962 10.4064 5.14356 9.7046 5.07168 8.76762C5.07105 8.76446 5.07104 8.76131 5.07104 8.75816C5.16941 9.46563 5.81067 9.96817 6.52129 9.89313C7.32208 9.89313 7.97154 9.24431 7.97154 8.44289C7.97154 7.6421 7.32208 6.99264 6.52129 6.99264C5.7205 6.99264 5.07104 7.6421 5.07104 8.44289Z" fill="white"/>
<path fill-rule="evenodd" clip-rule="evenodd" d="M5.82792 8.44287C6.10599 8.44287 6.33235 8.66861 6.33235 8.94731C6.33235 9.226 6.10599 9.45174 5.82792 9.45174C5.54922 9.45174 5.32349 9.226 5.32349 8.94731C5.32349 8.66861 5.54922 8.44287 5.82792 8.44287Z" fill="white"/>
<path fill-rule="evenodd" clip-rule="evenodd" d="M6.8365 19.4777C7.77664 19.4777 8.53896 20.2394 8.53896 21.1795C8.53896 22.1196 7.77664 22.882 6.8365 22.882C5.89636 22.882 5.13403 22.1196 5.13403 21.1795C5.13403 20.2394 5.89636 19.4777 6.8365 19.4777Z" fill="black"/>
<path fill-rule="evenodd" clip-rule="evenodd" d="M5.07104 20.9906C5.10572 19.9811 5.95191 19.191 6.96141 19.2264C7.97091 19.261 8.76098 20.1079 8.72567 21.1167C8.69225 22.1016 7.88453 22.8816 6.89962 22.8822C5.962 22.9541 5.14356 22.253 5.07168 21.3153C5.07105 21.3122 5.07104 21.309 5.07104 21.3059C5.13662 22.0342 5.78104 22.5714 6.50931 22.5052C6.51373 22.5045 6.51688 22.5039 6.52129 22.5039C7.32208 22.5033 7.97091 21.8532 7.97028 21.0524C7.96965 20.2516 7.31956 19.6028 6.51814 19.6034C5.74257 19.6047 5.10509 20.2157 5.07104 20.9906Z" fill="white"/>
<path fill-rule="evenodd" clip-rule="evenodd" d="M5.82792 21.0541C6.10599 21.0541 6.33235 21.2792 6.33235 21.5585C6.33235 21.8366 6.10599 22.0629 5.82792 22.0629C5.54922 22.0629 5.32349 21.8366 5.32349 21.5585C5.32349 21.2792 5.54922 21.0541 5.82792 21.0541Z" fill="white"/>
</g>
<defs>
<linearGradient id="paint0_linear_202_14870" x1="19.3214" y1="0.435058" x2="19.3214" y2="11.7785" gradientUnits="userSpaceOnUse">
<stop stop-color="#E459FF"/>
<stop offset="1" stop-color="#914DFF"/>
</linearGradient>
<linearGradient id="paint1_linear_202_14870" x1="9.63331" y1="13.675" x2="21.2513" y2="21.4336" gradientUnits="userSpaceOnUse">
<stop stop-color="#F0A5FF"/>
<stop offset="1" stop-color="#FF676B"/>
</linearGradient>
<linearGradient id="paint2_linear_202_14870" x1="20.015" y1="14.8618" x2="20.015" y2="24.5533" gradientUnits="userSpaceOnUse">
<stop stop-color="#6E3BFF"/>
<stop offset="1" stop-color="#3633FF"/>
</linearGradient>
<linearGradient id="paint3_linear_202_14870" x1="16.3339" y1="27.1577" x2="19.3251" y2="30.7399" gradientUnits="userSpaceOnUse">
<stop stop-color="#F0A5FF"/>
<stop offset="1" stop-color="#FF676B"/>
</linearGradient>
<clipPath id="clip0_202_14870">
<rect width="41" height="32" fill="white"/>
</clipPath>
</defs>
</svg>
