<svg width="36" height="28" viewBox="0 0 36 28" fill="none" xmlns="http://www.w3.org/2000/svg">
<g clip-path="url(#clip0_202_9851)">
<path d="M2.45552 27.1316H8.18279V13.2225L0.000976562 7.08614V24.677C0.000976562 26.0332 1.09939 27.1316 2.45552 27.1316Z" fill="#4285F4"/>
<path d="M27.8193 27.1316H33.5466C34.9027 27.1316 36.0012 26.0332 36.0012 24.677V7.08614L27.8193 13.2225V27.1316Z" fill="#34A853"/>
<path d="M27.8193 2.58616V13.2225L36.0012 7.08616V3.81343C36.0012 0.780023 32.5382 -0.952477 30.1102 0.867978L27.8193 2.58616Z" fill="#FBBC04"/>
<path fill-rule="evenodd" clip-rule="evenodd" d="M8.18262 13.2225V2.58614L18.0008 9.94977L27.819 2.58614V13.2225L18.0008 20.5861L8.18262 13.2225Z" fill="#EA4335"/>
<path d="M0.000976562 3.81343V7.08616L8.18279 13.2225V2.58616L5.89189 0.867978C3.46393 -0.952477 0.000976562 0.780023 0.000976562 3.81343Z" fill="#C5221F"/>
</g>
<defs>
<clipPath id="clip0_202_9851">
<rect width="36.001" height="28" fill="white"/>
</clipPath>
</defs>
</svg>
