<svg width="37" height="36" viewBox="0 0 37 36" fill="none" xmlns="http://www.w3.org/2000/svg">
<g clip-path="url(#clip0_202_11349)">
<path d="M7.61073 20.8982C7.36605 20.9148 7.04752 21.0244 6.83381 21.4075C6.65936 21.7203 6.25067 21.7702 6.05985 21.7071C5.74199 21.6021 5.33572 21.5293 4.94218 21.8097C4.54864 22.09 4.12365 21.878 4.19818 21.3669C4.27272 20.8559 4.45733 20.4007 4.94736 20.1188C6.01757 19.5031 5.27378 19.0746 5.86116 18.4567C6.44969 17.8376 6.31968 17.6482 6.30015 16.8073C4.31103 16.5085 3.18366 15.9352 1.92479 14.3624C0.665922 12.7895 0.177915 11.4948 0.04743 9.52285C-0.0830553 7.55089 0.0300589 6.2729 0.882051 4.63605C1.73404 2.99919 2.63108 2.21123 4.18559 1.39391C5.7401 0.576728 7.26324 0.381 8.67111 0.404835C10.079 0.428602 11.0171 0.531752 11.8126 0.985622C12.608 1.43949 13.3357 2.01065 13.7996 2.01476C14.2636 2.01887 14.5794 1.89734 14.8049 1.72457C14.8651 3.25316 13.4894 3.38593 12.2586 3.41825C11.0277 3.4505 10.2714 2.94135 9.13777 3.13075C8.00414 3.32015 6.14806 3.83603 5.24388 5.40987C4.33971 6.98371 4.30887 7.54005 4.38401 8.85985C4.45915 10.1797 5.59514 11.1644 6.23639 11.1751C6.87758 11.1858 7.02072 11.0001 7.58198 10.6341C8.14331 10.2679 11.0088 6.72072 11.9866 5.92393C12.9644 5.12715 13.9293 4.88113 14.9712 4.86834C16.013 4.85554 16.2793 4.89089 17.1195 5.23528C17.9598 5.57961 18.4762 6.21379 19.1536 6.60147C19.4999 6.39767 19.715 6.09334 20.0328 5.86111C21.1691 5.0306 21.7595 4.8068 23.1101 4.93822C23.8863 5.01377 24.8651 5.4572 25.4491 5.965C26.489 6.86918 27.3482 8.12798 28.0424 9.08426C28.583 9.829 29.2191 10.72 30.1273 10.9986C31.1188 11.3026 31.865 10.0183 31.9745 9.30598C32.0366 8.90234 32.1176 8.54859 32.1183 8.10434C32.1189 7.66003 32.0736 7.12086 31.9455 6.65783C31.8174 6.1948 31.5981 5.73406 31.3605 5.35203C30.9739 4.73024 30.3414 4.07957 29.6832 3.7448C29.3138 3.55695 28.4448 3.21539 27.897 3.2034C27.2258 3.18886 26.7144 3.41435 26.0939 3.45663C25.3427 3.50787 24.001 3.67673 23.4121 3.09641C23.0374 2.72711 22.9902 2.48075 22.9262 1.99921C23.0918 2.13562 23.3233 2.2253 23.5294 2.24274C23.9998 2.28246 24.4402 1.89841 24.8198 1.67589C25.1326 1.49255 25.5755 1.16492 25.9863 0.999358C27.0417 0.573833 28.3382 0.586087 29.4524 0.700076C30.3455 0.791376 31.5033 1.18869 32.2866 1.63192C33.0735 2.07711 33.8319 2.82777 34.3874 3.53541C35.0862 4.42578 35.4682 5.1897 35.7213 6.30017C36.0448 7.71828 36.1345 9.84859 35.7434 11.2468C35.4351 12.3487 34.4117 14.0413 33.5404 14.871C32.6811 15.6894 31.689 16.0844 30.5607 16.3005C30.6048 16.5282 30.6121 16.7405 30.6705 16.9273C30.7534 17.1923 30.9121 17.4877 31.2379 17.3943C31.3679 17.357 31.4374 17.3248 31.6088 17.4746C31.78 17.6245 31.6909 18.2035 31.209 18.4633C30.9646 18.5951 30.7068 18.6237 30.3154 18.6315C29.9241 18.6393 29.3134 18.641 28.8885 18.5666C28.4637 18.4923 28.21 18.1551 27.7395 18.1024C27.0124 18.021 26.4556 17.4957 25.8726 17.12C25.6294 16.9632 25.5473 16.9616 25.4071 16.8823C25.4828 17.1142 25.5838 17.3551 25.6342 17.578C25.6847 17.8009 25.6632 18.0074 25.6899 18.1859C25.7166 18.3641 25.7661 18.5028 25.7949 18.6474C25.9114 18.7516 25.9486 18.91 26.1443 18.9598C26.3401 19.0096 26.6466 18.9321 26.8469 18.9051C27.0473 18.8782 27.1815 18.7691 27.3387 18.799C27.4959 18.8288 27.6449 18.9414 27.7767 19.0469C27.9085 19.1524 28.0217 19.1678 28.1284 19.4311C28.235 19.6943 28.3328 20.2334 28.3475 20.5938C28.3621 20.9541 28.3217 21.2794 28.2149 21.5653C28.1081 21.8513 28.0142 21.9781 27.7251 22.2613C27.4359 22.5445 26.965 22.9601 26.4951 23.2497C26.5816 23.3778 26.62 23.4951 26.7549 23.6341C26.8898 23.7732 27.1711 23.9291 27.2963 24.0758C27.4213 24.2225 27.4848 24.3278 27.4866 24.4923C27.4885 24.6568 27.4805 24.8706 27.3469 25.05C27.0143 25.4966 26.6208 25.5766 26.1423 25.7867C26.2228 26.2891 26.2884 26.648 26.1722 27.1497C26.1247 27.3541 26.0193 27.8176 25.7671 27.9365C25.5149 28.0554 25.0286 27.9978 24.7207 28.0467C24.4129 28.0957 24.2406 28.1421 24.0006 28.1898C23.8548 28.4006 23.6377 28.6332 23.5633 28.8222C23.4887 29.0112 23.5112 29.0789 23.5738 29.2719C23.6363 29.4648 23.8493 29.7458 23.9096 29.9717C23.9699 30.1977 23.9817 30.441 23.9254 30.6675C23.8689 30.8941 23.7725 31.0585 23.5794 31.2597C23.3863 31.461 23.0065 31.619 22.8173 31.782C22.628 31.9452 22.4395 31.9648 22.4912 32.2347C22.5622 32.6054 23.1039 33.2067 23.4957 33.3498C23.7306 33.4357 24.0458 33.4086 24.331 33.2882C24.3117 33.6049 24.0377 33.8183 23.8586 34.0286C24.3435 33.8899 24.8137 33.6245 25.1389 33.2727C25.038 33.5783 24.691 34.0688 24.1719 34.4995C23.6529 34.9302 23.656 34.8421 23.398 35.0134C23.8688 35.108 24.3066 35.0824 24.6712 35.0169C24.4713 35.1271 24.1437 35.2821 23.7096 35.3277C23.2755 35.3732 23.0079 35.341 22.6167 35.246C22.2254 35.151 21.8683 34.7953 21.3942 34.5502C21.4404 34.726 21.4733 34.9375 21.6726 35.1184C21.872 35.2992 22.1736 35.3912 22.4943 35.5476C22.0861 35.5013 21.6572 35.4873 21.2561 35.3989C20.9592 35.3334 20.7597 35.2639 20.5424 35.1563C20.3253 35.0487 20.1577 34.8917 19.9653 34.7595C20.0575 34.9356 20.0848 35.1427 20.2417 35.2878C20.3986 35.433 20.6535 35.4871 20.8598 35.5868C20.6446 35.5821 20.4377 35.6287 20.2148 35.5727C19.9916 35.5166 19.7824 35.4284 19.5504 35.2575C19.3185 35.0867 19.0792 34.8763 18.8813 34.6611C18.6835 34.446 18.4392 34.1671 18.3653 33.9688C18.2912 33.7704 18.4097 33.6316 18.4319 33.4632C18.2953 33.553 18.1273 33.6024 18.0223 33.7327C17.9173 33.8629 17.8243 33.9819 17.8707 34.209C17.9173 34.4361 18.1269 34.7137 18.275 34.9663C17.8328 34.6047 17.5859 34.4655 17.4806 34.0292C17.3821 33.6208 17.637 33.2501 17.8307 32.9413C17.9269 32.7879 18.0708 32.6451 18.1608 32.4971C17.961 32.3016 17.7327 32.1336 17.5615 31.9107C17.3903 31.6879 17.3184 31.3862 17.1437 31.173C16.9689 30.9597 16.7338 30.8247 16.529 30.6508C16.709 31.0374 17.0048 31.5116 17.069 31.8108C17.1332 32.11 16.9971 32.2931 16.8909 32.4547C16.7846 32.6162 16.6132 32.6522 16.4506 32.7515C16.288 32.8508 16.0351 32.7725 15.9382 32.9199C15.8414 33.0672 15.8154 33.2888 15.908 33.4348L16.2877 34.0342C16.1478 33.9635 15.9068 33.7581 15.7981 33.6124C15.6894 33.4667 15.5227 33.3321 15.4999 33.1351C15.4771 32.9382 15.466 32.7672 15.5936 32.5918C15.7212 32.4164 16.0707 32.3576 16.2271 32.2228C16.3835 32.0879 16.4712 32.0001 16.4623 31.8258C16.4534 31.6515 16.2831 31.5268 16.1367 31.4169C15.6898 31.0817 15.1166 30.7729 14.7371 30.3689C14.5227 30.1407 14.4199 29.9564 14.3768 29.7989C14.3338 29.6415 14.3793 29.5187 14.4858 29.325C14.5923 29.1313 14.9576 28.8727 15.002 28.6623C15.0464 28.452 14.8619 28.4068 14.6954 28.3326C14.5289 28.2584 14.2126 28.3706 14.0582 28.2416C13.9038 28.1125 14.1036 27.8413 13.9295 27.6926C13.7555 27.5438 13.3573 27.6268 13.1517 27.4669C12.9462 27.3068 12.8612 27.1082 12.7904 26.8761C12.7195 26.6439 12.7115 26.3896 12.7595 26.2215C12.8075 26.0534 12.9517 26.0239 13.0387 25.9368C13.1257 25.8497 13.2012 25.7774 13.0853 25.6475C12.9693 25.5176 12.5894 25.6548 12.371 25.488C12.1525 25.3212 12.2863 24.9217 12.1318 24.7533C11.9774 24.585 11.7003 24.6509 11.554 24.5971C11.4079 24.5433 11.3505 24.7331 11.2608 24.4329C11.1711 24.1327 11.1687 23.2378 11.0481 22.9039C10.9274 22.5699 10.6905 22.8813 10.5804 22.5494C10.4704 22.2175 10.5747 21.6867 10.5252 21.1855L10.3006 19.8216C9.51731 20.3477 9.00022 20.513 8.15866 20.6616C8.08844 22.7207 7.895 23.9333 8.59388 26.2177C9.29277 28.5021 10.7072 29.8484 12.6152 31.7824C10.0974 29.8961 8.89538 28.3626 8.14304 26.3981C7.39056 24.4333 7.53505 22.7901 7.61073 20.8982ZM20.9897 20.0705C21.1834 20.0792 21.4188 20.1284 21.5548 20.2167C21.6909 20.3051 21.8353 20.3772 21.9588 20.5029C22.2669 20.8167 22.498 21.1951 22.6001 21.6299C22.6652 21.9071 22.6749 22.2626 22.6986 22.5881C22.6054 22.2873 22.5427 21.9736 22.4098 21.704C22.2004 21.2791 21.8445 20.8642 21.4027 20.6732C21.2568 20.6101 21.1595 20.6218 21.0793 20.633C21.1152 20.6932 21.1753 20.7437 21.1779 20.832C21.1805 20.9203 21.1608 21.093 21.0111 21.1655C20.7698 21.2826 20.5016 21.2003 20.3152 21.0355C20.1273 20.8695 20.0633 20.5886 20.1616 20.3472C20.2788 20.0596 20.7255 20.0588 20.9897 20.0705ZM18.561 19.6612C18.5853 19.1666 18.7638 18.7496 19.207 18.5071C19.4361 18.3817 19.7892 18.2196 20.1137 18.1815C20.4254 18.1449 21.1835 18.1716 21.6395 18.3798C21.9897 18.5396 22.2282 18.7885 22.5357 18.9703C22.8432 19.1522 23.0619 19.2742 23.3546 19.4782C23.804 19.7913 24.0674 20.1361 24.3789 20.3428C24.5287 20.4421 24.7395 20.4274 24.9383 20.4881C24.7837 20.534 24.5816 20.5847 24.4147 20.5314C24.2067 20.4648 23.9158 20.2746 23.7544 20.1383C23.4692 19.8974 23.3214 19.7798 23.0101 19.5981C22.8243 19.4898 22.5182 19.3622 22.314 19.2291C22.1097 19.0959 21.755 18.8037 21.5587 18.7048C21.3091 18.5791 20.8597 18.5092 20.5818 18.5174C20.199 18.5286 19.6449 18.5917 19.3486 18.8605C19.0543 19.1277 18.9426 19.3627 19.0089 19.7097C19.1198 19.582 19.1936 19.4216 19.3046 19.3267C19.5346 19.1302 19.7985 19.1207 20.0848 19.158C20.4064 19.1998 20.5684 19.3856 20.6746 19.6909C20.6031 19.6384 20.4717 19.5231 20.3679 19.4873C20.1244 19.4033 19.9402 19.4292 19.7121 19.5515C19.4428 19.696 19.5161 19.9098 19.4773 20.1476C19.4595 20.2573 19.4181 20.3457 19.3885 20.4447C19.2873 20.4179 19.1936 20.3758 19.117 20.2998C19.1202 20.4109 19.104 20.5081 19.1268 20.633C19.1494 20.7579 19.2103 20.9063 19.2519 21.0429C19.0644 20.8553 18.8725 20.6807 18.7514 20.4385C18.6301 20.1962 18.548 19.9273 18.561 19.6612ZM18.8855 16.0617C19.0238 15.8566 19.0642 15.5419 19.1495 15.286C19.1154 15.6101 19.1809 15.9665 19.0227 16.2012C18.8644 16.4359 18.5866 16.3947 18.3564 16.463C18.5355 16.3265 18.7472 16.2669 18.8855 16.0617ZM15.5762 20.8669C15.7537 20.7232 16.2327 20.8381 16.5909 20.8638C16.3335 20.9297 16.076 20.9957 15.8185 21.0616C15.7945 21.1492 15.8054 21.2496 15.7466 21.3242C15.6878 21.399 15.576 21.4266 15.4908 21.4777C15.4992 21.2476 15.3987 21.0105 15.5762 20.8669ZM18.1005 10.8873C18.3143 11.0024 18.5857 11.1547 18.7746 11.1594C18.9634 11.1641 19.0128 11.0359 19.1239 10.9619C19.2987 11.5318 19.4994 12.1581 19.797 12.6752C19.9217 12.8919 20.0012 12.7912 20.096 13.0089C20.1906 13.2266 20.2327 13.6696 20.3225 13.9477C20.4125 14.2258 20.5298 14.4305 20.6334 14.6719C20.3703 14.2991 20.0303 13.8237 19.8837 13.5135C19.7372 13.2033 19.831 13.1763 19.7123 12.8809C19.5937 12.5854 19.3539 12.1249 19.1746 11.7469C19.0463 11.7639 18.8874 11.7873 18.7898 11.7572C18.6923 11.7271 18.7117 11.6233 18.6236 11.5563C18.5353 11.4892 18.387 11.5152 18.2634 11.4082C18.1398 11.3012 18.1116 11.0816 18.1005 10.8873ZM16.949 13.6996C17.1503 13.682 17.4002 13.7359 17.5887 13.7252C17.7771 13.7145 17.9117 13.6656 18.0732 13.6358C18.0432 13.3519 18.0716 12.8304 17.8096 12.6408C17.6403 12.5184 16.9451 12.6106 16.7594 12.6507C16.3416 12.7407 15.855 12.9901 15.4509 13.1461C15.8382 12.8755 16.1727 12.6248 16.6372 12.4852C16.9165 12.4012 17.5681 12.2921 17.8563 12.3699C17.9878 12.4054 18.0144 12.4598 18.0942 12.5713C18.3685 12.9543 18.3677 13.2853 18.4389 13.7314C18.5088 13.8404 18.5833 13.9132 18.64 14.0256C18.6966 14.138 18.7286 14.315 18.7445 14.4596C18.6727 14.3555 18.7166 14.225 18.5178 14.1475C18.3188 14.07 18.0142 14.1424 17.7462 14.1704C17.9416 14.3114 18.0386 14.4472 18.0461 14.7452C18.0549 15.0952 17.7586 15.3471 17.4492 15.3711C17.0197 15.4044 16.7982 15.3101 16.6245 14.943C16.5484 14.7822 16.6036 14.5888 16.5972 14.432C16.0812 14.4679 16.0896 14.4511 15.7124 14.7656C15.9174 15.0659 16.0466 15.2386 16.3854 15.4183C16.5754 15.5192 16.7905 15.6172 17.0259 15.6573C17.2615 15.6973 17.6477 15.7361 17.8951 15.6981C18.1425 15.6601 18.2827 15.5895 18.4661 15.4199C18.6496 15.2502 18.6664 15.0073 18.7381 14.8152C18.7218 15.0001 18.7006 15.2355 18.632 15.3695C18.4232 15.7771 18.0623 15.8978 17.6313 15.8992C17.2176 15.9005 16.7059 15.8051 16.3211 15.6456C16.0134 15.518 15.5033 15.1569 15.3822 14.8431C15.2995 14.6287 15.365 14.3657 15.3563 14.1269C15.7824 13.8436 15.8878 13.9133 16.3919 13.8303C16.6028 13.7956 16.7478 13.7173 16.949 13.6996ZM14.4672 11.7806C14.4792 11.6109 14.498 11.6145 14.5134 11.5314C14.1252 11.4276 13.9696 11.6794 13.742 12.1471C13.6568 12.3221 13.7411 12.4263 13.6497 12.5415C13.5585 12.6567 13.4115 12.6405 13.2633 12.7511C13.1151 12.8617 12.9682 13.0734 12.8297 13.188C12.5453 13.423 12.161 13.5665 11.8312 13.7246C12.0565 13.5585 12.4935 13.3065 12.6349 13.065C12.7099 12.937 12.6988 12.6956 12.8155 12.5806C12.9322 12.4654 12.9731 12.3858 13.1238 12.3564C13.2745 12.3271 13.2139 12.1524 13.2625 12.0136C13.3111 11.8748 13.4079 11.7762 13.5109 11.6375C13.6139 11.4988 13.7439 11.2905 13.9473 11.2149C14.1507 11.1392 14.4679 11.221 14.6219 11.1775C14.7758 11.1339 14.6874 11.022 14.7992 10.9548C14.9112 10.8876 15.1289 10.9173 15.2784 10.8454C15.5435 10.718 15.6703 10.5052 15.8297 10.2774C15.8529 10.7677 15.8472 11.1207 15.671 11.582C15.4726 12.1012 15.2715 12.407 14.7083 12.7263C14.5143 12.8362 14.3212 12.8744 14.1603 12.9321C14.2541 12.8042 14.3884 12.7486 14.4418 12.5483C14.495 12.3479 14.4552 11.9504 14.4672 11.7806ZM23.5593 14.1713C23.2915 14.1887 23.228 14.1535 23.0138 14.3046C23.1299 14.4853 23.246 14.666 23.362 14.8468C23.3518 14.49 23.3865 14.4185 23.5593 14.1713ZM22.8577 13.9121C23.2286 13.7541 23.5517 13.6263 23.9551 13.6011C24.1169 13.5909 24.3679 13.616 24.5313 13.6234C24.6704 13.4186 24.8477 13.257 24.9126 13.0233C24.9556 12.8682 24.9344 12.1485 24.8583 11.9617C24.6364 11.4179 24.4208 11.395 24.1154 11.0835C23.8939 10.8576 23.885 10.5136 23.8188 10.1281C23.7945 9.98655 23.725 9.80739 23.6924 9.66128C23.2933 9.59402 22.864 9.57187 22.4049 9.59483C22.6275 9.38126 22.8428 9.18613 22.9067 8.86551C22.9704 8.54488 22.9185 8.15067 22.7363 7.86317C22.554 7.57567 22.2629 7.3252 21.9956 7.09096C21.7283 6.85672 21.3451 6.66335 21.0918 6.47173C21.4212 6.35377 21.7576 6.18046 22.0803 6.11791C22.921 5.95484 23.6453 6.20423 24.4562 6.69446C24.9276 6.9796 25.3175 7.25047 25.8104 7.76642C26.3031 8.2823 26.9143 9.22862 27.3913 9.78981C27.8683 10.351 28.2535 10.7948 28.6696 11.1295C29.0859 11.4643 29.4626 11.5596 29.8589 11.7746L30.4768 12.4307L30.9768 11.812L31.7813 11.903L31.9475 10.9999L32.6859 10.7976L32.5655 9.58028L33.0964 9.2035L32.6974 8.44611L33.1028 7.61849L32.5742 6.67244L32.778 5.76153L32.1661 5.24006L32.0863 4.27206L31.2327 3.94645L30.8902 3.10429L29.9305 3.09352L29.4597 2.46836L28.8137 2.51361L28.0934 2.43517L27.6861 2.13447L27.0951 2.52687L26.3798 2.15393L24.958 2.69371L25.8849 1.88764L26.8451 1.73426L27.5808 1.54675L28.5743 1.87303L29.4488 1.65152L30.2919 2.14996L31.1842 2.10061L31.6225 2.88709L32.5109 2.98963L32.9916 3.86404L33.5504 4.16911L33.6987 5.28928L34.1963 5.76126L33.9775 6.74139L34.5638 7.48363L34.0141 8.27893L34.6019 8.77603L33.8505 9.44199L34.6115 10.2345L33.6924 10.5309L34.2911 11.381L33.5403 11.5105L34.0327 12.4452L33.1866 12.4339L33.6128 13.134L32.6848 13.0223L32.9068 14.0295L32.2055 13.4126L31.9652 14.6333L31.4813 13.7568L31.2191 14.85L30.6217 14.0439L30.638 15.1902L29.9777 14.1595C30.117 14.7443 30.0891 15.3847 30.4732 15.936C31.6633 15.775 32.4412 15.4751 33.353 14.5977C34.1834 13.7986 35.176 12.1326 35.4448 11.0758C35.7515 9.86994 35.7609 7.65209 35.4588 6.4244C35.1681 5.24235 34.7903 4.67772 34.1151 3.71316C33.4698 3.02781 32.8352 2.30381 32.0162 1.81506C30.814 1.09766 29.2724 0.904221 27.9022 0.922871C27.1435 0.93324 26.6353 1.07894 26.1817 1.2439C25.3885 1.53234 24.7541 2.16154 23.9477 2.47247C23.6847 2.5738 23.4739 2.57696 23.2668 2.46634C23.4696 2.87207 23.6903 3.05406 24.196 3.20172C24.5619 3.3085 25.4349 3.24097 26.0359 3.18549C26.681 3.1259 27.0176 2.93408 27.8956 2.94613C28.7531 2.95792 29.4326 3.28366 29.8041 3.49608C30.5707 3.9344 31.1204 4.42066 31.598 5.19091C31.8603 5.61388 32.0441 6.09111 32.1735 6.57811C32.3029 7.06511 32.3596 7.61055 32.3679 8.08731C32.3761 8.56407 32.3397 8.98967 32.2231 9.41869C31.9503 10.4231 31.3486 11.4452 30.1126 11.2873C29.3562 11.1906 28.2159 9.77089 27.834 9.25003C27.0634 8.19881 26.2705 7.03555 25.3023 6.16013C24.7119 5.62654 23.9036 5.25932 23.1099 5.18667C21.6207 5.0504 21.1791 5.33325 20.0582 6.25715C20.2863 6.32986 20.5088 6.36999 20.7425 6.4753C21.2612 6.709 21.7355 7.01104 22.1493 7.39846C22.5828 7.80452 22.7773 8.06152 22.7927 8.64298C22.803 9.02912 22.4853 9.3387 22.1941 9.61718C22.016 9.78773 21.7802 9.94386 21.6359 10.0762C21.4447 10.2519 21.2079 10.4441 21.4481 10.7239C21.5385 10.8291 21.6953 10.9084 21.8276 11.0066C22.0376 11.1625 21.9415 11.7418 21.6648 11.8954C21.3108 12.0918 20.8878 12.0699 20.5958 11.807C20.9643 11.7518 21.1984 11.7029 21.1888 11.4015C21.1833 11.2268 20.9612 11.0816 20.7432 10.9822C20.2174 10.7425 19.8203 10.7779 19.297 10.4014C18.7684 10.0209 18.7568 9.81257 18.6139 9.21522C18.3591 9.24188 18.1244 9.24774 17.7837 9.36059C17.4429 9.47336 17.0663 9.74187 16.757 9.80833C15.9778 9.97598 15.8226 9.92629 15.3962 9.81594C14.6454 9.62162 13.6679 9.9543 12.6969 10.2649C12.5354 10.3165 11.8824 10.2666 11.4428 10.4209C10.7639 10.6591 9.81121 11.236 9.26099 11.6994C8.42731 12.4015 7.33172 14.503 6.71268 16.915C6.64764 17.6482 6.85616 18.1422 6.39428 18.5003C5.9324 18.8585 5.94519 19.776 5.78858 20.0333C5.63197 20.2906 5.45065 20.1769 5.11353 20.5382C4.77641 20.8996 4.60479 20.8392 4.61327 21.5225C4.9038 21.3314 5.32737 21.1094 5.6993 21.096C6.02868 21.0841 6.03218 21.5177 6.87758 20.682C7.3297 20.2348 8.19832 20.2212 8.80099 20.024C9.40373 19.8267 10.4898 19.4203 11.5776 18.2042C12.6654 16.9881 13.1859 15.7078 13.3969 13.8569C13.4305 14.1851 13.4888 14.5552 13.3482 15.4605C13.2077 16.3657 12.9049 17.3825 13.5429 18.6003L13.9404 19.3591C13.7037 19.0361 13.2415 18.5092 13.1023 18.1338L12.7813 17.2677C12.0631 18.3954 11.898 18.5971 10.9003 19.405C10.8605 19.9062 10.8508 20.4289 11.0146 20.9085C11.1784 21.3881 10.9173 21.9408 11.0419 22.2567C11.1666 22.5725 11.4548 22.3928 11.5489 22.7125C11.643 23.0323 11.4998 23.6644 11.6457 23.9761C11.7917 24.2878 12.1498 24.0986 12.3234 24.1993C12.497 24.3 12.5538 24.438 12.6466 24.5705C12.7394 24.7028 12.6103 25.0158 12.7991 25.1174C12.9878 25.2191 13.2823 25.1329 13.4787 25.2305C13.6751 25.3281 13.7049 25.5626 13.6578 25.7727C13.6107 25.9829 13.4008 26.0793 13.3087 26.2929C13.2165 26.5066 13.2269 26.6553 13.3375 26.8515C13.4482 27.0478 13.6933 27.1559 13.9376 27.2549C14.1819 27.354 14.5251 27.2983 14.7772 27.4353C15.0293 27.5722 15.2558 27.8451 15.3889 28.0435C15.5221 28.2418 15.559 28.3817 15.5522 28.5902C15.5454 28.7987 15.4608 29.0388 15.3495 29.2402C15.2382 29.4416 14.9926 29.6867 15.376 30.0713C15.7594 30.4558 15.7453 30.29 15.9649 30.5395C15.941 30.108 15.7627 29.7564 15.893 29.4316C16.0235 29.1067 16.415 29.0502 16.6214 28.9041C16.8277 28.7579 16.9466 28.5571 17.1092 28.3837C17.1069 28.6069 17.1308 28.8469 17.1054 29.0149C17.0537 29.3566 16.9528 29.6599 17.462 29.7147C17.6914 29.7394 17.9092 29.5907 18.1506 29.5014C18.0242 29.7278 17.8043 29.9099 17.7712 30.1809C17.7382 30.4517 17.7779 30.7493 17.9655 31.0182C18.1531 31.2869 18.4771 31.4865 18.7145 31.6444C18.9518 31.8024 19.079 31.8151 19.2614 31.9005C19.2704 32.1669 19.2179 32.4488 19.2483 32.6997C19.2787 32.9506 19.3577 33.1726 19.5027 33.38C19.6479 33.5874 19.8807 33.7064 20.0999 33.8598C19.9797 33.5799 19.7359 33.3143 19.7392 33.0201C19.7425 32.7259 19.8307 32.5174 20.1177 32.2564C20.4046 31.9953 21.0764 31.7688 21.3932 31.515C21.71 31.2611 21.8122 31.1056 21.9259 30.8591C22.0397 30.6126 22.008 30.2155 22.029 29.9939C22.1333 30.3043 22.1482 30.4008 22.1821 30.7255C22.2161 31.0503 21.9928 31.5059 21.8983 31.7463C22.2901 31.557 22.5388 31.2545 22.6644 30.9589C22.7484 31.0087 22.7061 31.1453 22.737 31.4086C22.8766 31.2696 23.0354 31.1627 23.176 31.0315C23.3167 30.9005 23.4708 30.7852 23.5406 30.6023C23.6103 30.4194 23.5818 30.2248 23.5299 30.0123C23.478 29.7997 23.2404 29.5532 23.1125 29.3207C22.9847 29.0883 23.1351 28.8601 23.1264 28.58C22.8705 28.5361 22.6532 28.4057 22.359 28.4481C22.0647 28.4904 21.7277 28.8206 21.4269 28.8244C21.1261 28.8283 20.9573 28.5465 20.7107 28.4691C20.4641 28.3916 20.2147 28.4001 19.9668 28.3657C20.2808 28.0648 21.4996 27.9216 22.3333 27.7856C23.0668 27.666 23.7948 27.5968 24.5381 27.5864C24.87 27.5817 25.2966 27.6913 25.5271 27.625C25.7577 27.5589 25.7085 27.4018 25.7769 27.2306C25.9683 26.752 25.874 26.3258 25.7699 25.8439C25.1026 25.7656 24.4074 25.6699 23.7351 25.7215C23.0778 25.772 22.2995 26.0845 21.6215 26.1057C21.0321 26.124 20.1593 25.9928 19.6532 25.6842C19.0347 25.3073 18.5562 24.4976 18.3863 24.2377C18.1097 23.8142 17.7607 22.9835 17.5484 22.6037C17.3361 22.2239 17.2893 22.1176 17.1127 21.9591C16.9361 21.8006 16.6942 21.7883 16.485 21.7029C16.7262 21.7275 16.9895 21.6512 17.2086 21.7768C17.5378 21.9657 17.9062 22.7485 18.111 23.0891C18.328 22.3617 18.2774 22.0756 18.9053 21.6655C18.3993 22.2326 18.3867 22.6623 18.2633 23.3301C18.6841 24.0207 19.2692 25.1209 20.0347 25.4262C20.3112 25.5365 20.7861 25.6057 21.0851 25.6427C22.0154 25.7579 22.9128 25.4631 23.8265 25.2374C24.4944 25.0725 25.1722 25.1389 25.9845 25.1867C26.2603 25.2028 26.9106 25.0369 27.0452 24.758C27.1179 24.6075 27.1126 24.4267 27.0081 24.2663C26.9036 24.1059 26.6251 24.0283 26.4758 23.884C26.3266 23.7396 26.2407 23.5683 26.1231 23.4104C25.5027 23.5294 24.9923 23.5751 24.5318 23.5877C24.8621 23.4516 25.179 23.374 25.5228 23.2395C25.8666 23.105 26.257 22.8843 26.5345 22.7012C26.8119 22.518 26.9891 22.4117 27.1899 22.1986C27.3905 21.9853 27.6479 21.7656 27.7958 21.5049C27.9439 21.2442 27.9668 20.9526 27.9751 20.6299C27.9833 20.3073 27.9694 19.8547 27.845 19.5948C27.7207 19.335 27.481 19.2561 27.2884 19.1947C27.0958 19.1332 26.9639 19.2886 26.7636 19.3097C26.5632 19.3307 26.3759 19.457 26.0861 19.3207C25.7963 19.1844 25.4528 18.907 25.1598 18.4953C24.8669 18.0835 24.6574 17.4105 24.3588 16.8927C23.8441 16.0002 23.2026 15.1664 22.5892 14.3394C22.5387 14.1355 22.4628 13.8536 22.4376 13.577C22.3935 13.0949 22.3853 12.5941 22.5349 12.1241C22.6495 11.7641 22.8163 11.3838 23.1933 11.2362C23.3441 11.1771 23.5349 11.1536 23.6697 11.2036C23.8046 11.2535 23.9369 11.4057 23.884 11.5816C23.8257 11.775 23.6917 11.7802 23.6007 11.8778C23.4462 12.0435 23.3844 12.165 23.326 12.3715C23.493 12.3688 23.7187 12.3561 23.8558 12.3922C24.0348 12.4393 24.2014 12.5579 24.2922 12.8115C24.0787 12.6221 23.9726 12.5352 23.706 12.5285C23.5839 12.5254 23.4355 12.5691 23.3003 12.5895C23.2498 12.7537 23.2202 12.9552 23.1489 13.0823C23.0775 13.2094 22.9387 13.1789 22.8866 13.3275C22.8345 13.4757 22.8315 13.7172 22.8577 13.9121ZM24.7238 13.6894C24.8056 13.7217 24.8367 13.7287 24.9404 13.8076C25.044 13.8864 25.1869 13.9651 25.269 14.1535C25.3512 14.342 25.3474 14.6334 25.3299 14.7521C25.2578 14.731 25.1596 14.7452 25.0849 14.6813C25.0103 14.6174 24.9658 14.4727 24.8702 14.4108C24.7745 14.3489 24.6947 14.3625 24.5889 14.3491C24.6432 14.5036 24.6696 14.6583 24.6444 14.7985C24.5896 15.1045 24.4097 15.2595 24.1184 15.2961C23.9912 15.3121 23.7892 15.2702 23.6785 15.2501C23.7298 15.3647 23.8168 15.465 23.8681 15.5796C24.1144 15.544 24.297 15.5491 24.4294 15.4871C24.5618 15.4252 24.7038 15.2864 24.8738 15.2276C25.0438 15.1689 25.1954 15.1698 25.3814 15.1408C25.2349 15.267 25.1387 15.3933 24.9924 15.5196C25.0997 15.8315 25.2071 16.1434 25.3143 16.4553C25.5418 16.5976 25.7553 16.6726 26.0419 16.8483C26.3288 17.0241 26.6726 17.3386 27.0461 17.5101C27.4196 17.6816 27.642 17.7749 28.0322 17.8485C28.4224 17.9221 28.7329 18.2381 29.1168 18.2895C29.5008 18.3408 30.218 18.3512 30.5139 18.3223C30.8499 18.2895 31.2864 18.1162 31.3256 17.7478C31.0439 17.8173 30.6136 17.7549 30.3964 17.2249C30.3 16.9895 30.3472 16.5566 30.1996 16.2783C30.0521 15.9999 29.8464 15.9105 29.6007 15.5675C29.3549 15.2245 28.9529 14.6836 28.7272 14.224C28.5016 13.7646 28.4485 13.2441 28.2577 12.8324C28.0669 12.4207 27.7791 12.0882 27.556 11.7709C27.0689 11.0774 26.6761 10.6034 25.8737 10.2536C25.4878 10.0853 25.0484 10.0405 24.6357 9.9339C24.4678 10.0091 24.2375 10.0922 24.1966 10.2886C24.1558 10.485 24.2343 10.7751 24.3768 10.9225C24.6154 11.169 24.9688 11.4354 25.1078 11.8272C25.1971 12.0786 25.223 12.9215 25.1457 13.1502C25.0654 13.3877 24.8788 13.5313 24.7238 13.6894ZM24.8015 15.6843C24.7269 15.7486 24.6701 15.8147 24.5502 15.8681C24.4304 15.9215 24.2668 15.9353 24.1078 15.975C24.3308 16.322 24.5649 16.6727 24.7785 17.0375C24.9922 17.4023 25.1774 17.8018 25.3813 18.1838C25.3717 17.9649 25.3846 17.7314 25.3528 17.5268C25.3209 17.3223 25.2282 17.1432 25.1363 16.8362C25.0445 16.5291 24.9315 16.1113 24.8015 15.6843ZM18.8034 8.05425C18.7719 8.39561 18.8297 8.92927 18.9004 9.2635C18.9851 9.66357 19.0666 9.87101 19.3913 10.1121C19.9858 10.5534 20.3654 10.479 20.8227 10.7349C21.0403 10.8567 21.3161 11.0609 21.3966 11.2767C21.4771 11.4925 21.3435 11.7268 21.1784 11.8189C21.4671 11.8618 21.7907 11.5364 21.6557 11.2023C21.5892 11.0379 21.2725 10.9647 21.1754 10.7988C21.0785 10.6329 21.0787 10.4622 21.1244 10.2937C21.2069 9.99005 21.8076 9.71413 22.0199 9.4741C22.3466 9.10473 22.4721 8.79576 22.287 8.32007C22.0272 7.65182 21.0234 7.1156 20.4226 6.85335C20.1475 6.73331 19.9932 6.72476 19.7787 6.66046C20.218 6.91792 20.6811 7.12301 20.9034 7.69855C21.089 8.17922 20.9282 8.36033 20.9344 8.77886C20.9373 8.9729 21.1929 9.06992 21.3063 9.19253C21.4051 9.29911 21.3971 9.37823 21.3182 9.52534C21.3095 9.39263 21.2528 9.29359 21.1509 9.22148C20.9827 9.10224 20.8015 9.12789 20.7119 8.88342C20.5759 8.51176 20.8456 8.15976 20.5424 7.74245C20.3155 7.43024 20.0138 7.0808 19.6068 7.07164C19.4142 7.06726 19.2694 7.09635 19.0636 7.15721L18.7893 6.8271L18.783 6.82279C18.225 6.31357 17.8433 5.8939 17.0605 5.54392C16.2778 5.19401 15.8921 5.14102 14.9947 5.16095C14.0972 5.18081 13.2066 5.25589 12.1671 6.15225C11.1278 7.04861 8.44892 10.481 7.79925 10.9154C7.14966 11.3498 7.00577 11.497 6.19404 11.4972C5.38231 11.4974 4.11543 10.3493 4.06581 8.91432C4.01612 7.47932 3.99619 6.9693 4.99369 5.2406C5.99124 3.51184 7.79838 2.98101 9.13919 2.80178C10.4801 2.62255 11.2858 3.0948 12.2776 3.09702C13.2694 3.09931 14.2496 2.92809 14.5386 2.13932C14.3972 2.22355 14.2076 2.31848 13.6747 2.29054C13.1417 2.2626 12.4027 1.64552 11.5713 1.23205C10.74 0.818644 9.81491 0.770234 8.62835 0.747813C7.4418 0.725392 5.96122 0.816086 4.49437 1.60795C3.02752 2.39982 2.02626 3.24003 1.17547 4.78983C0.324695 6.33969 0.197576 7.60509 0.334727 9.48164C0.471878 11.3582 1.05065 12.7538 2.16502 14.1273C3.2794 15.5007 4.3931 16.1728 6.40128 16.4226L6.82405 14.5578L6.06935 15.6409L6.088 14.4363L5.40534 15.2834L5.10592 14.1346L4.55288 15.0556L4.27817 13.773L3.47674 14.4212L3.73044 13.3628L2.67 13.4802L3.15713 12.7445L2.1902 12.7563L2.75281 11.7742L1.89489 11.638L2.57897 10.7447L1.52862 10.4333L2.39825 9.60055L1.53959 8.90079L2.21121 8.37844L1.58316 7.54275L2.25309 6.76286L2.00303 5.73299L2.5719 5.2371L2.74123 4.06011L3.37965 3.73948L3.92893 2.8207L4.9442 2.7129L5.44513 1.8865L6.46484 1.93841L7.42847 1.41465L8.42785 1.64741L9.56303 1.30456L10.4038 1.50157L11.501 1.66283L12.5603 2.50984L10.9354 1.94265L10.118 2.33458L9.44237 1.92218L8.97719 2.23816L8.15408 2.32057L7.41595 2.2729L6.87784 2.92977L5.78097 2.94108L5.38972 3.826L4.41438 4.16817L4.32315 5.18532L3.62372 5.73326L3.85675 6.69042L3.25274 7.68454L3.7161 8.55411L3.26008 9.34995L3.86678 9.74585L3.72916 11.025L4.57294 11.2376L4.76301 12.1865L5.68247 12.0909L6.2537 12.7411L6.95972 12.0517C8.2468 11.4099 8.77682 11.0509 9.7799 9.96602C10.9217 8.73098 11.5762 7.58914 13.0972 6.74354C14.1881 6.13703 15.0778 5.91875 16.3032 6.1305C17.4538 6.32926 17.839 7.01939 18.6864 7.74642C18.7762 7.58382 18.7944 7.54073 18.9424 7.42101C18.896 7.63216 18.8222 7.85118 18.8034 8.05425Z" fill="black"/>
</g>
<defs>
<clipPath id="clip0_202_11349">
<rect width="37" height="36" fill="white"/>
</clipPath>
</defs>
</svg>
