<svg width="41" height="16" viewBox="0 0 41 16" fill="none" xmlns="http://www.w3.org/2000/svg">
<g clip-path="url(#clip0_202_14703)">
<path d="M22.8576 1.56694L22.9454 1.62556C23.9776 2.3072 24.7176 3.24202 25.2045 4.37159C25.3214 4.54687 25.2435 4.64425 25.0098 4.70267L24.6142 4.80387C23.7199 5.03426 23.0102 5.228 22.1277 5.45839L21.6244 5.58954C21.4431 5.63438 21.3931 5.61553 21.2003 5.39602L21.1731 5.36483C20.8982 5.05323 20.6922 4.84513 20.328 4.65936L20.2578 4.62477C19.0308 4.02103 17.8428 4.19631 16.7327 4.9169C15.4084 5.77382 14.7268 7.03971 14.7463 8.61722C14.7657 10.1752 15.8369 11.4606 17.3754 11.6748C18.6998 11.8501 19.8099 11.3827 20.6862 10.3895C20.8615 10.1752 21.0173 9.94154 21.2121 9.66889H17.4533C17.0444 9.66889 16.947 9.41571 17.0833 9.08463L17.1508 8.9257C17.4011 8.34335 17.7893 7.50627 18.0415 7.02768L18.0965 6.92469C18.1638 6.80796 18.3005 6.65021 18.5634 6.65021L24.8309 6.65016C25.1124 5.75839 25.5691 4.91573 26.1783 4.11841C27.6 2.24878 29.3138 1.27501 31.6314 0.866026C33.6179 0.515469 35.4875 0.710223 37.1819 1.85927C38.7204 2.91094 39.6747 4.33264 39.9279 6.20227C40.259 8.83145 39.4994 10.9737 37.6882 12.8044C36.4029 14.1093 34.8254 14.9272 33.0141 15.2973C32.4883 15.3946 31.9625 15.4141 31.4561 15.4725C29.6839 15.4336 28.0674 14.9272 26.7041 13.7587C25.7453 12.9299 25.0848 11.9112 24.7566 10.7253C24.5289 11.1853 24.2566 11.6258 23.9386 12.0449C22.5364 13.895 20.7057 15.0441 18.3882 15.3557C16.4796 15.6089 14.7073 15.2388 13.1493 14.0703C11.7081 12.9797 10.8901 11.5385 10.6759 9.74679C10.4227 7.62397 11.0459 5.71539 12.3313 4.04051C13.7141 2.2293 15.5448 1.08025 17.7844 0.671272C19.5812 0.346322 21.3029 0.546672 22.8576 1.56694ZM32.1222 4.35772L32.0599 4.37159C30.2486 4.78057 29.0801 5.92962 28.6517 7.7603C28.3011 9.27938 29.0412 10.8179 30.4434 11.4411C31.5145 11.9086 32.5857 11.8501 33.6179 11.3243C35.1564 10.5258 35.9939 9.27938 36.0913 7.6045C36.0718 7.35132 36.0718 7.15657 36.0328 6.96181C35.6862 5.05542 33.9497 3.96775 32.1222 4.35772ZM9.09841 7.9161C9.17631 7.9161 9.21526 7.97453 9.21526 8.05243L9.17631 8.51984C9.17631 8.59774 9.09841 8.65617 9.03998 8.65617L4.79436 8.63669C4.71645 8.63669 4.69698 8.57827 4.73593 8.51984L5.00858 8.03296C5.04754 7.97453 5.12544 7.9161 5.20334 7.9161H9.09841ZM9.52687 6.12437C9.60477 6.12437 9.64372 6.1828 9.62424 6.24122L9.46844 6.70863C9.44897 6.78653 9.37107 6.82549 9.29316 6.82549L0.0813194 6.84496C0.00341797 6.84496 -0.0160574 6.80601 0.0228933 6.74758L0.431876 6.22175C0.470827 6.16332 0.568203 6.12437 0.646105 6.12437H9.52687ZM10.5396 4.33264C10.6175 4.33264 10.637 4.39107 10.598 4.44949L10.2669 4.95585C10.228 5.01428 10.1306 5.0727 10.0722 5.0727L3.0221 5.05323C2.9442 5.05323 2.92472 5.01428 2.96367 4.95585L3.37265 4.43002C3.41161 4.37159 3.50898 4.33264 3.58688 4.33264H10.5396Z" fill="#00ACD7"/>
</g>
<defs>
<clipPath id="clip0_202_14703">
<rect width="41" height="16" fill="white"/>
</clipPath>
</defs>
</svg>
