<svg width="30" height="36" viewBox="0 0 30 36" fill="none" xmlns="http://www.w3.org/2000/svg">
<g clip-path="url(#clip0_202_13817)">
<path d="M12.1494 32.7547C12.1882 32.7464 12.2744 32.7932 12.2799 32.8248C12.2993 32.9367 12.3084 33.0575 12.1862 33.1318C12.0862 33.1926 11.9682 33.2371 11.891 33.3196C11.7091 33.5142 11.5567 33.7365 11.3734 33.9297C11.2296 34.0814 11.184 34.3018 11.0605 34.4347C10.8113 34.7027 10.8844 34.9672 10.9485 35.2492C10.9575 35.2884 11.0212 35.3167 11.062 35.3467C11.0951 35.3711 11.146 35.3821 11.1646 35.4135C11.3097 35.6579 11.5531 35.6443 11.7991 35.6612C12.178 35.6579 12.5087 35.482 12.8357 35.2949C12.9215 35.2459 13.0112 35.2033 13.095 35.1511C13.2121 35.0783 13.3299 35.0051 13.4388 34.9209C13.5247 34.8544 13.6256 34.7639 13.7104 34.8541C13.785 34.9333 13.7618 35.0753 13.6635 35.1498C13.3445 35.3917 13.0576 35.6834 12.6596 35.8066C12.5776 35.832 12.5049 35.8862 12.4239 35.9166C12.0913 36.0417 11.7423 35.9885 11.4004 35.9955C11.1758 36.0002 11.0035 35.8582 10.8446 35.7108C10.7882 35.6586 10.7167 35.6171 10.676 35.555C10.621 35.4712 10.5698 35.3759 10.5518 35.2791C10.5241 35.1298 10.5795 34.9665 10.4531 34.8332C10.4317 34.8107 10.4635 34.7278 10.4836 34.6779C10.5295 34.5633 10.5821 34.4513 10.6349 34.3396C10.6495 34.3089 10.6769 34.2844 10.6941 34.2546C10.7204 34.209 10.7457 34.1623 10.7665 34.114C10.8143 34.0029 10.8386 33.8747 10.9099 33.7823C11.0389 33.6149 11.1923 33.4658 11.3414 33.3148C11.4229 33.2322 11.5169 33.1619 11.6038 33.0845C11.6309 33.0603 11.6631 33.035 11.6764 33.0032C11.7658 32.7893 11.971 32.7927 12.1494 32.7547ZM15.4078 32.4335C15.6696 32.3663 15.9143 32.435 16.153 32.535C16.1884 32.5498 16.2302 32.5873 16.2384 32.6216C16.2568 32.6989 16.2559 32.7808 16.2629 32.8608C16.1793 32.8586 16.0787 32.8857 16.0154 32.8488C15.8247 32.7374 15.6612 32.7138 15.4941 32.8893C15.4484 32.9373 15.3663 32.9636 15.297 32.9739C15.0784 33.0064 14.8966 33.3647 15.0258 33.6141C15.1195 33.3713 15.3264 33.3633 15.5062 33.3156C15.5656 33.2998 15.6398 33.3394 15.7073 33.3537C15.6809 33.4094 15.6659 33.4753 15.6262 33.5189C15.4786 33.6815 15.3181 33.8203 15.0778 33.8336C14.9624 33.84 14.8626 34.0032 14.8802 34.1117C14.9063 34.2734 14.9325 34.4352 14.9565 34.5972C14.9891 34.8171 14.9881 34.8114 15.2009 34.8069C15.4923 34.8008 15.7841 34.7967 16.075 34.8099C16.1398 34.8128 16.2012 34.8908 16.2642 34.9342C16.2101 34.9975 16.1625 35.1076 16.101 35.116C15.772 35.1609 15.4516 35.2954 15.1082 35.222C15.0589 35.2115 14.9924 35.2516 14.9423 35.2822C14.8464 35.3409 14.7754 35.3331 14.7244 35.2276C14.6556 35.0854 14.5834 34.9446 14.5195 34.8002C14.499 34.7541 14.493 34.6985 14.4923 34.6472C14.4887 34.3862 14.4895 34.1253 14.4877 33.8643C14.4863 33.6563 14.4818 33.4482 14.4831 33.2402C14.4832 33.2127 14.5036 33.167 14.524 33.161C14.6622 33.1197 14.6661 33.0001 14.7011 32.8922C14.7167 32.8443 14.7649 32.7871 14.8105 32.7725C15.01 32.7085 15.1944 32.6251 15.3376 32.4659C15.3535 32.4482 15.383 32.4398 15.4078 32.4335ZM17.3548 32.1686C17.3729 32.1513 17.4575 32.1801 17.4944 32.209C17.7005 32.3704 17.693 32.4559 17.4702 32.583C17.1776 32.75 17.1598 33.2436 17.4097 33.4981C17.6945 33.7882 17.8916 34.1389 17.9276 34.5532C17.95 34.8122 17.7992 35.0187 17.6542 35.2154C17.6249 35.2551 17.5422 35.2705 17.484 35.2708C17.365 35.2713 17.2458 35.2538 17.1128 35.2427C17.1111 35.0728 17.1894 34.9728 17.3181 34.9258C17.5241 34.8504 17.5738 34.787 17.5431 34.5678C17.5287 34.4647 17.5148 34.3592 17.4802 34.262C17.456 34.1937 17.3983 34.137 17.3536 34.0765C17.3228 34.0348 17.289 33.9952 17.2561 33.955C17.1815 33.864 17.1159 33.763 17.03 33.6844C16.7834 33.4588 16.7126 33.09 16.8697 32.7887C16.8746 32.7794 16.8861 32.7698 16.8849 32.7618C16.8305 32.3988 17.1724 32.3446 17.3548 32.1686ZM9.12553 32.9445C9.12724 32.9508 9.12894 32.9572 9.13061 32.9636C9.25602 32.9636 9.38282 32.9524 9.50633 32.9677C9.58337 32.9772 9.67051 33.0103 9.72692 33.0616C9.90679 33.2252 10.0807 33.3995 9.95439 33.6802C9.94439 33.7025 9.94162 33.736 9.95095 33.7576C10.0339 33.9486 9.92127 34.0819 9.81927 34.2189C9.69395 34.3871 9.58997 34.579 9.4373 34.7169C9.28031 34.8589 9.14244 35.0508 8.88632 35.0549C8.73792 35.0573 8.5897 35.1257 8.4423 35.1225C8.25222 35.1183 8.06185 35.0785 7.87381 35.0425C7.69118 35.0075 7.48879 34.6342 7.5504 34.4553C7.56141 34.4233 7.58905 34.3843 7.6182 34.3735C7.75516 34.3229 7.77049 34.1944 7.83148 34.0877C7.94455 33.8896 7.99487 33.6511 8.19776 33.5063C8.41624 33.3503 8.62232 33.1766 8.84462 33.0266C8.92163 32.9746 9.03098 32.9705 9.12553 32.9445ZM20.0367 30.9649C20.0527 30.9735 20.0686 30.9783 20.0796 30.9884C20.2939 31.1835 20.2942 31.1841 20.0587 31.3547C19.9797 31.4119 19.8968 31.4636 19.8186 31.5218C19.7001 31.6098 19.7302 31.884 19.8465 32.0362C20.025 32.2697 20.1847 32.5175 20.3535 32.7584C20.4416 32.8843 20.5373 33.0053 20.6206 33.1342C20.8237 33.4483 20.8275 33.7807 20.7024 34.124C20.6813 34.1822 20.6791 34.2469 20.6636 34.3074C20.6538 34.3457 20.6461 34.3946 20.6193 34.4168C20.5209 34.4981 20.3966 34.5564 20.4446 34.726C20.4486 34.7404 20.3422 34.7983 20.2813 34.8159C20.1865 34.8432 20.0817 34.8397 19.9899 34.8732C19.7856 34.9478 19.5943 34.9329 19.3937 34.8533C19.2929 34.8134 19.2489 34.7542 19.2818 34.6686C19.3049 34.6086 19.375 34.5362 19.4333 34.5269C19.55 34.5082 19.6738 34.5222 19.7933 34.5353C19.9461 34.552 20.0981 34.5822 20.1124 34.3568C20.113 34.3469 20.1183 34.33 20.124 34.3288C20.3217 34.2878 20.3542 34.1183 20.4034 33.9653C20.4273 33.8908 20.4716 33.7963 20.4459 33.7373C20.3754 33.5755 20.2729 33.4276 20.1825 33.2746C20.1746 33.2613 20.154 33.2512 20.1533 33.2389C20.1356 32.9321 19.8544 32.8118 19.7048 32.5988C19.5979 32.4465 19.505 32.2835 19.4161 32.1197C19.3632 32.0223 19.3001 31.9159 19.2938 31.8104C19.2764 31.5205 19.4693 31.3282 19.6677 31.1591C19.7708 31.0712 19.9124 31.0282 20.0367 30.9649ZM9.37805 33.3161C9.2087 33.2597 8.7365 33.4212 8.63223 33.5659C8.57263 33.6486 8.51326 33.7364 8.4358 33.7999C8.33645 33.8815 8.26231 33.9641 8.26875 34.101C8.26995 34.1266 8.2519 34.1615 8.23139 34.1783C8.04664 34.3293 8.00765 34.4325 8.07971 34.6422C8.09624 34.6903 8.14123 34.7489 8.18568 34.7629C8.27891 34.7924 8.3805 34.7956 8.47865 34.8095C8.87292 34.8662 9.09935 34.5623 9.38512 34.3889C9.40007 34.3798 9.4132 34.3529 9.41241 34.335C9.40566 34.1846 9.56719 34.1354 9.60252 34.0305C9.64038 33.9181 9.58233 33.777 9.59066 33.65C9.60069 33.4969 9.52968 33.3665 9.37805 33.3161ZM6.91291 31.273C6.97803 31.1806 7.25175 31.2345 7.33009 31.3251C7.34892 31.3469 7.37902 31.36 7.40562 31.3739C7.53787 31.443 7.5492 31.4613 7.53983 31.6042C7.55393 31.9775 7.3379 32.2469 7.11605 32.4965L7.08006 32.5368C6.98519 32.6426 6.8136 32.6888 6.74223 32.8395C6.74028 32.8436 6.7339 32.8487 6.7298 32.8485C6.49814 32.8373 6.3584 32.9964 6.19533 33.1219C6.14633 33.1596 6.04635 33.1258 5.97151 33.1367C5.91375 33.1452 5.81809 33.1618 5.80989 33.1932C5.78143 33.3022 5.6918 33.3251 5.62043 33.3809C5.56194 33.4266 5.47837 33.5292 5.49493 33.5631C5.52784 33.6305 5.61671 33.6794 5.6924 33.7145C5.77821 33.7544 5.87494 33.7707 5.96685 33.7975C6.00635 33.809 6.05156 33.8399 6.08411 33.8298C6.27814 33.7693 6.42888 33.8663 6.59505 33.9395C6.75744 34.011 6.9426 34.0303 7.10634 34.0996C7.17092 34.1269 7.24762 34.2302 7.24317 34.2936C7.23484 34.4123 7.10946 34.3975 7.02759 34.3815C6.78684 34.3341 6.5494 34.27 6.3096 34.2174C6.21293 34.1963 6.11358 34.1784 6.01512 34.1763C5.85109 34.1729 5.69265 34.1682 5.55188 34.0635C5.50951 34.032 5.44218 34.0362 5.38924 34.0162C5.20966 33.9485 5.02141 33.8944 4.85773 33.7986C4.794 33.7613 4.74658 33.6178 4.76495 33.5399C4.78473 33.4561 4.87761 33.3661 4.96124 33.3258C5.14262 33.2384 5.2533 33.0959 5.36675 32.9397C5.49039 32.7695 5.50373 32.5368 5.71351 32.4087C5.8055 32.3526 5.80885 32.1635 5.89728 32.086C5.98559 32.0085 6.12383 31.998 6.14403 31.8386C6.14983 31.7928 6.23101 31.7508 6.28455 31.7184C6.32793 31.6922 6.41191 31.6962 6.42586 31.6642C6.52022 31.4474 6.78593 31.4535 6.91291 31.273ZM4.50971 29.5194C4.62575 29.3929 4.80082 29.4234 4.93452 29.5734C5.0204 29.6697 5.13133 29.732 5.22563 29.8089C5.38785 29.9412 5.61305 30.0074 5.70748 30.2266C5.74881 30.3224 5.85888 30.3902 5.894 30.4867C5.95908 30.6654 5.99202 30.8559 6.04405 31.0644C5.99439 31.1755 5.96517 31.3002 5.89274 31.3901C5.75524 31.5605 5.6765 31.8009 5.41461 31.8412C5.26453 32.1469 4.94654 32.0219 4.71185 32.1088C4.41642 32.2183 4.11421 32.153 3.81916 32.0705C3.78947 32.0623 3.75209 32.0511 3.72704 32.0618C3.57869 32.1252 3.44044 32.1285 3.29674 32.0395C3.27229 32.0243 3.18688 32.0765 3.15155 32.1169C3.09473 32.1817 2.76886 32.5173 2.70386 32.5669C2.65954 32.6008 2.62606 32.6493 2.58969 32.6929C2.55517 32.7342 2.53138 32.7993 2.48832 32.8157C2.4027 32.8483 2.30704 32.8547 2.21554 32.8719C2.22151 32.785 2.20813 32.6906 2.23794 32.6128C2.28489 32.4903 2.30316 32.333 2.48431 32.3104C2.51069 32.3072 2.53145 32.2586 2.55483 32.231C2.59309 32.1859 2.63354 32.1424 2.66907 32.0951C2.70147 32.052 2.74933 32.0056 2.75109 31.9593C2.75239 31.9251 2.69557 31.8801 2.65528 31.855C2.57634 31.8057 2.49469 31.7548 2.40705 31.7269C2.30199 31.6934 2.30691 31.6144 2.33666 31.5539C2.36118 31.504 2.4333 31.4494 2.48545 31.4482C2.55795 31.4466 2.63916 31.4808 2.70323 31.521C2.95124 31.6765 3.12524 31.6271 3.26538 31.3638C3.34463 31.215 3.43224 31.069 3.53121 30.9328C3.64208 30.7801 3.78197 30.6477 3.88721 30.4917C3.99675 30.3293 4.07241 30.1445 4.1768 29.9783C4.27726 29.8183 4.38269 29.6579 4.50971 29.5194ZM7.05189 31.7417C7.01939 31.7075 6.88329 31.7709 6.79454 31.7912C6.78533 31.7933 6.77716 31.8028 6.76996 31.8103C6.60572 31.9812 6.43592 32.1471 6.2795 32.3248C6.15955 32.461 6.02285 32.5934 5.99944 32.7866C6.0118 32.8001 6.02417 32.8137 6.03654 32.8273C6.16374 32.7427 6.30322 32.6716 6.41544 32.5704C6.61537 32.39 6.79839 32.191 6.98933 32.0006C7.06555 31.9245 7.12802 31.822 7.05189 31.7417ZM8.16749 2.55024C8.48387 2.45503 8.7921 2.50825 9.06895 2.64029C9.23553 2.71976 9.40451 2.88817 9.47231 3.05686C9.55676 3.26695 9.68201 3.44861 9.77688 3.64873C9.79704 3.69122 9.83216 3.7288 9.84326 3.77297C9.89989 3.99794 9.97022 4.22213 9.99618 4.45109C10.0103 4.57548 9.95271 4.71102 9.91362 4.83725C9.89305 4.90366 9.8774 4.95348 9.96305 4.96316C10.1069 4.97944 10.3676 4.79952 10.4155 4.65149C10.6054 4.72761 10.7598 4.69626 10.9135 4.54103C10.9863 4.46755 11.1446 4.48715 11.2523 4.43837C11.4839 4.33347 11.7031 4.20055 11.9363 4.09972C12.1723 3.99766 12.4098 3.91617 12.6841 3.9303C12.9625 3.94463 13.242 3.88146 13.5248 3.94788C13.6479 3.97677 13.6956 4.02445 13.6995 4.14222C13.7037 4.26943 13.6248 4.27454 13.5386 4.27582L13.5193 4.27608C13.1745 4.28145 12.8288 4.27501 12.4854 4.30053C12.3428 4.31113 12.204 4.38717 12.0662 4.44064C11.9482 4.48648 11.8335 4.54113 11.7185 4.59441C11.4957 4.69764 11.2751 4.80579 11.0506 4.90521C10.9701 4.94082 10.8756 4.94597 10.7968 4.98427C10.5643 5.09731 10.3366 5.21997 10.1069 5.33872C10.0931 5.34585 10.0785 5.35813 10.0648 5.35759C9.69741 5.3426 9.45713 5.6091 9.16685 5.76354C8.93594 5.88639 8.70919 6.0171 8.48096 6.14493C8.4491 6.16276 8.41932 6.18428 8.38853 6.20403C8.29596 6.26334 8.20131 6.31972 8.11133 6.38275C8.0087 6.45468 7.9192 6.55126 7.8083 6.60451C7.39728 6.80201 7.02266 7.04636 6.70783 7.37968C6.45235 7.65012 6.1908 7.91485 5.93469 8.18472C5.91216 8.20844 5.91604 8.25542 5.89702 8.28467C5.85222 8.35348 5.81373 8.45513 5.74981 8.47712C5.58888 8.53252 5.54793 8.66354 5.48883 8.80176C5.3544 8.7976 5.29386 8.86868 5.21773 8.99137C5.10848 9.16751 5.06525 9.41161 4.83002 9.4948C4.74112 9.76527 4.40843 9.88242 4.38767 10.1978C4.38571 10.2272 4.3535 10.2657 4.3252 10.2806C4.19453 10.3492 4.17115 10.4613 4.16354 10.5964C4.15714 10.7102 4.15149 10.8417 3.99558 10.8779C3.97526 10.8826 3.96217 10.9239 3.94816 10.9496C3.82111 11.1825 3.64487 11.4032 3.58212 11.6525C3.52164 11.8928 3.33036 11.9959 3.21732 12.173C3.09866 12.3588 2.98417 12.548 2.87971 12.742C2.64413 13.1798 2.47446 13.6417 2.40407 14.1362C2.36063 14.4416 2.36659 14.764 2.26434 15.0477C2.18821 15.259 2.25532 15.401 2.29293 15.5837C2.327 15.7491 2.25071 15.9343 2.24768 16.1112C2.2445 16.2969 2.2721 16.4831 2.28346 16.6692C2.29838 16.9137 2.32085 17.1582 2.32189 17.4027C2.32447 17.9901 2.29864 18.5781 2.31993 19.1646C2.33119 19.4751 2.41619 19.7831 2.46948 20.0919C2.49352 20.2315 2.51068 20.3736 2.55021 20.5089C2.59971 20.6784 2.67294 20.8409 2.7284 21.0089C2.76844 21.1302 2.81992 21.2547 2.82447 21.3793C2.83365 21.6306 2.81033 21.8828 2.80932 22.1348C2.80901 22.2047 2.82977 22.2793 2.85857 22.3438C2.92599 22.4949 3.00534 22.6406 3.07768 22.7896C3.16671 22.9729 3.25458 23.1569 3.34077 23.3416C3.36705 23.398 3.3857 23.4579 3.40851 23.516C3.44665 23.6129 3.47552 23.7151 3.52549 23.8056C3.71835 24.1548 3.9162 24.5012 4.11622 24.8463C4.17317 24.9445 4.25169 25.0304 4.30681 25.1295C4.54062 25.55 4.73711 25.9902 5.02339 26.383C5.13804 26.5402 5.25098 26.6826 5.4027 26.8086C5.53912 26.9219 5.59512 27.1072 5.6457 27.3243C5.27515 27.1822 5.0019 27.0004 4.81021 26.6868C4.62498 26.3837 4.40291 26.1035 4.28116 25.7634C4.27065 25.7341 4.208 25.7235 4.16954 25.7041C4.14808 25.7521 4.09615 25.8129 4.1101 25.846C4.19736 26.0534 4.2899 26.2599 4.39868 26.4568C4.55201 26.7343 4.72682 26.9999 4.88154 27.2767C5.03519 27.5515 5.17164 27.836 5.32443 28.1114C5.35497 28.1664 5.41936 28.2112 5.47817 28.2406C5.74785 28.3753 5.96324 28.6129 6.27725 28.6634C6.29214 28.6658 6.30921 28.6707 6.31994 28.6803C6.62776 28.9578 6.99714 29.1665 7.24335 29.5133C7.3644 29.6839 7.47155 29.8756 7.62753 30.0073C7.82641 30.1753 8.01003 30.3918 8.31934 30.3827C8.52753 30.3766 8.73705 30.4066 8.94553 30.4255C8.99926 30.4304 9.05125 30.4545 9.14703 30.4822C9.07611 30.5299 9.04377 30.5605 9.00531 30.576C8.82681 30.6483 8.64584 30.7145 8.46762 30.7874C8.4338 30.8013 8.40828 30.8354 8.37893 30.8602C8.40963 30.8826 8.43837 30.9088 8.47169 30.9261C8.4939 30.9377 8.52258 30.9404 8.54845 30.9408C8.68976 30.943 8.81135 30.9809 8.9443 31.0467C9.17852 31.1627 9.4393 31.229 9.69356 31.2996C10.0401 31.3959 10.3893 31.4837 10.7403 31.5618C11.0194 31.624 11.3032 31.6643 11.5842 31.7185C11.6971 31.7403 11.8068 31.7901 11.9199 31.7974C12.105 31.8095 12.2922 31.7883 12.4778 31.7971C12.8233 31.8134 13.1682 31.8463 13.5138 31.8612C13.6207 31.8658 13.729 31.8326 13.837 31.8199C13.8889 31.8138 13.9482 31.7985 13.9931 31.8159C14.2499 31.9155 14.4857 31.8109 14.7307 31.7608C15.0514 31.6953 15.3775 31.6563 15.6998 31.5978C15.7835 31.5826 15.8604 31.5329 15.9429 31.507C16.0121 31.4851 16.085 31.4616 16.1563 31.4616C16.3994 31.4614 16.6309 31.4309 16.832 31.277C16.8585 31.2567 16.9026 31.2604 16.9375 31.2495C17.2553 31.1504 17.5733 31.0518 17.8903 30.9505C18.3313 30.8095 18.774 30.6733 19.2109 30.5204C19.3864 30.4589 19.5458 30.3527 19.7175 30.2783C19.8078 30.2393 19.9106 30.23 20.0045 30.198C20.0964 30.1667 20.1832 30.1208 20.2742 30.0865C20.3416 30.0611 20.4135 30.0233 20.4808 30.028C20.5831 30.0351 20.648 30.0089 20.7042 29.9229C20.728 29.8865 20.7861 29.8586 20.8319 29.853C20.9826 29.8344 21.0959 29.7697 21.2107 29.6643C21.3133 29.5703 21.466 29.5269 21.6015 29.4736C21.7827 29.4024 21.9739 29.355 22.1506 29.2749C22.276 29.218 22.3781 29.1114 22.502 29.0499C22.6427 28.9799 22.7706 28.9151 22.8715 28.7791C22.9372 28.6907 23.0829 28.6631 23.1899 28.6032C23.3107 28.5356 23.4382 28.4746 23.5452 28.3888C23.7166 28.2515 23.874 28.0965 24.0363 27.948C24.0592 27.9271 24.0739 27.8972 24.0974 27.8773C24.2622 27.7374 24.4552 27.6201 24.5858 27.4537C24.6941 27.3157 24.8745 27.2545 24.9377 27.064C24.9781 26.9425 25.0886 26.8274 25.1965 26.7496C25.3385 26.6472 25.4261 26.5176 25.5002 26.3681C25.5175 26.3332 25.5502 26.3023 25.5828 26.2794C25.6816 26.2102 25.7375 26.1167 25.8029 26.0147C25.9151 25.8396 26.0146 25.6313 26.2317 25.5419C26.2576 25.5312 26.2858 25.5084 26.2976 25.4838C26.3825 25.3055 26.4542 25.1203 26.5484 24.9472C26.6418 24.7755 26.7575 24.6161 26.8615 24.4502C26.9073 24.3772 26.9477 24.3008 26.9917 24.2266C27.0362 24.1517 27.0815 24.0773 27.1276 24.0034C27.2861 23.7495 27.4453 23.4962 27.6033 23.2421C27.6112 23.2295 27.6054 23.203 27.6146 23.1976C27.8798 23.0404 27.811 22.7064 27.9938 22.4885C28.1157 22.343 28.0975 22.0811 28.1457 21.8721C28.1617 21.8029 28.1883 21.7361 28.2117 21.6687C28.2254 21.6293 28.2551 21.5912 28.2556 21.5523C28.2608 21.1732 28.5148 20.8436 28.4701 20.4526C28.4618 20.3803 28.5275 20.3024 28.5443 20.2239C28.5732 20.0888 28.5941 19.9515 28.612 19.8143C28.6574 19.4673 28.7201 19.1208 28.7371 18.7721C28.7567 18.3707 28.7421 17.967 28.7279 17.5648C28.7195 17.3265 28.6889 17.0885 28.6579 16.8518C28.6281 16.6242 28.6429 16.3647 28.535 16.1791C28.3427 15.8483 28.4246 15.4942 28.351 15.1578C28.3071 14.9569 28.2688 14.7545 28.2185 14.5552C28.2102 14.5222 28.1529 14.5015 28.1533 14.5018C28.1159 14.3177 28.1109 14.1501 28.0459 14.0105C27.9694 13.8459 27.8356 13.7089 27.7367 13.5535C27.6722 13.4522 27.6247 13.34 27.5714 13.2317C27.4833 13.0524 27.3962 12.8726 27.3096 12.6925C27.1957 12.4558 27.001 12.2713 26.9049 12.0186C26.7913 11.7196 26.5396 11.5135 26.3265 11.2841C26.1527 11.097 25.9567 10.9253 25.8113 10.7182C25.5955 10.4107 25.2787 10.2104 25.0402 9.93334C24.673 9.50679 24.212 9.19631 23.7697 8.86419C23.5666 8.71162 23.3032 8.64026 23.0952 8.49255C22.9081 8.35966 22.6649 8.31426 22.5199 8.11591C22.4945 8.08114 22.4251 8.08149 22.3812 8.05644C22.3001 8.01013 22.2224 7.9576 22.1443 7.90623C22.1278 7.89544 22.1178 7.87295 22.1007 7.86535C21.8533 7.75581 21.606 7.64608 21.3571 7.54023C21.2028 7.47464 21.0443 7.43561 20.9105 7.31005C20.8076 7.21351 20.6413 7.18436 20.503 7.12571C20.4656 7.10987 20.4006 7.10321 20.394 7.07955C20.3496 6.92045 20.2183 6.92123 20.0953 6.89988C20.0173 6.88631 19.9217 6.90032 19.9037 6.78081C19.9008 6.76122 19.8556 6.74039 19.8267 6.73348C19.6364 6.68777 19.445 6.64676 19.2545 6.60189C19.1991 6.58886 19.1425 6.57432 19.0915 6.54996C18.9618 6.48819 18.8363 6.4178 18.7068 6.35575C18.5158 6.26428 18.3161 6.18898 18.1324 6.08508C17.882 5.94349 17.606 5.88576 17.336 5.8072C17.0303 5.71829 16.7228 5.63573 16.416 5.55055C16.401 5.54638 16.3841 5.53736 16.3707 5.54073C15.9862 5.63787 15.6158 5.49533 15.2388 5.47978C14.7631 5.46019 14.2822 5.45391 13.8098 5.50253C13.4277 5.54187 13.0548 5.67091 12.6779 5.76032C12.6472 5.7676 12.6163 5.78445 12.5864 5.78269C12.3565 5.76925 12.1774 5.91734 11.9696 5.97315C11.9444 5.9799 11.9195 5.99053 11.8939 5.99249C11.4291 6.02839 11.0729 6.31858 10.6695 6.50094C10.4681 6.59199 10.3285 6.74428 10.1553 6.86031C9.99564 6.96739 9.85342 7.10024 9.70025 7.21748C9.66599 7.2437 9.60172 7.24058 9.58011 7.27127C9.53708 7.33232 9.51404 7.4075 9.48278 7.47688C9.54982 7.47653 9.62204 7.49209 9.6828 7.4724C9.78928 7.43792 9.88847 7.38129 9.99126 7.33507C10.0341 7.31582 10.0981 7.31204 10.1185 7.27973C10.2184 7.1222 10.369 7.12406 10.5286 7.11283C10.6222 7.10624 10.7246 7.0633 10.8012 7.00708C10.9703 6.88303 11.1648 6.92123 11.3483 6.89849C11.504 6.87921 11.6628 6.88533 11.8202 6.88132C11.9811 6.87725 12.1363 6.8864 12.2936 6.804C12.3896 6.75368 12.5302 6.78743 12.6508 6.78519C13.0545 6.77781 13.4583 6.76466 13.862 6.76598C14.3339 6.76753 14.8057 6.78687 15.2776 6.7892C15.6106 6.79087 15.9358 6.82709 16.2524 6.93445C16.3002 6.95067 16.3577 6.95111 16.4085 6.94354C16.8479 6.87801 17.2247 7.05403 17.6045 7.23613C17.8133 7.33623 18.0416 7.3958 18.2502 7.49638C18.429 7.58257 18.5943 7.69791 18.7617 7.80619C18.9406 7.92185 19.1197 8.03814 19.2901 8.16554C19.4909 8.31555 19.6817 8.47879 19.8784 8.63433C19.9915 8.7238 20.1051 8.81318 20.2231 8.89593C20.4519 9.05636 20.6888 9.20553 20.9133 9.3717C21.1024 9.51174 21.276 9.67258 21.4612 9.81828C21.7415 10.0388 22.0177 10.2662 22.3115 10.4676C22.5096 10.6034 22.7064 10.7268 22.8598 10.9215C22.9552 11.0427 23.1175 11.1088 23.235 11.2159C23.3719 11.3407 23.484 11.4929 23.6224 11.6156C23.7943 11.7679 23.983 11.901 24.1626 12.0448C24.2222 12.0925 24.2874 12.1395 24.3303 12.2007C24.4368 12.3522 24.4447 12.3632 24.6404 12.387C24.6336 12.6071 24.8593 12.6583 24.9554 12.8087C24.9626 12.82 24.9878 12.8197 24.9951 12.8309C25.0682 12.944 25.1334 13.0585 25.2915 13.0793C25.3295 13.0843 25.361 13.1633 25.3892 13.2119C25.4531 13.322 25.5092 13.4367 25.5753 13.5454C25.6899 13.7338 25.8121 13.9175 25.9263 14.1061C25.9907 14.2126 26.0752 14.3188 26.0989 14.4357C26.1618 14.7459 26.3672 15.0207 26.312 15.3636C26.297 15.4563 26.4085 15.5641 26.4095 15.6655C26.4149 16.2421 26.4003 16.819 26.4005 17.3957C26.4007 18.0304 26.4329 18.666 26.4072 19.2995C26.3864 19.8104 26.3066 20.3194 26.2396 20.8275C26.2132 21.0283 26.1366 21.2224 26.1084 21.4231C26.0844 21.5929 26.1085 21.769 26.0903 21.9401C26.0752 22.0819 26.0291 22.2204 25.997 22.3603C25.9646 22.5024 25.928 22.6437 25.9017 22.7869C25.8803 22.9034 25.8598 23.0047 25.7729 23.1069C25.6738 23.2235 25.6256 23.3878 25.5716 23.5372C25.4744 23.8061 25.3217 24.0413 25.1661 24.2779C25.0891 24.3952 25.0652 24.5489 24.9827 24.6606C24.892 24.7835 24.7635 24.8792 24.648 24.9828C24.4884 25.1261 24.3254 25.2656 24.164 25.407C24.1562 25.4138 24.1514 25.4243 24.1434 25.4307C23.9264 25.6034 23.7091 25.7759 23.4917 25.9482C23.4794 25.9579 23.4584 25.9637 23.4542 25.9758C23.3681 26.2217 23.1119 26.1942 22.939 26.3001C22.794 26.389 22.6573 26.4915 22.5169 26.588C22.5 26.5996 22.4849 26.6154 22.4664 26.623C22.2474 26.7129 22.0292 26.8049 21.8083 26.8898C21.5703 26.9812 21.327 27.0591 21.0912 27.1553C20.9175 27.2263 20.7564 27.3288 20.5814 27.3957C20.445 27.4477 20.2973 27.4838 20.152 27.4958C19.9536 27.5122 19.7528 27.4985 19.553 27.499C19.5271 27.4991 19.4985 27.5007 19.4758 27.5114C19.1152 27.6822 18.7223 27.6536 18.3505 27.6331C17.7746 27.6012 17.2111 27.7168 16.6405 27.7059C15.9426 27.6925 15.2448 27.666 14.5469 27.6522C14.2745 27.6468 13.9999 27.6419 13.7297 27.6696C13.3973 27.7036 13.0867 27.6276 12.7708 27.5523C12.62 27.5164 12.4621 27.505 12.3066 27.4957C12.0906 27.4826 11.8851 27.4911 11.6666 27.403C11.3354 27.2696 10.9716 27.2166 10.6215 27.1303C10.5911 27.1229 10.5559 27.1289 10.5286 27.1163C10.2276 26.9777 9.91911 26.9839 9.60569 27.0624C9.58595 27.0673 9.55944 27.0708 9.54351 27.0618C9.325 26.9385 9.07406 27.0265 8.85258 26.9584C8.65247 26.8968 8.46437 26.7921 8.27684 26.695C8.14272 26.6255 8.0117 26.5904 7.83073 26.6381C8.12219 26.8262 8.26681 27.1418 8.59167 27.2425C8.62817 27.2538 8.67922 27.3316 8.66922 27.3579C8.64139 27.4312 8.59896 27.5153 8.53674 27.5556C8.42115 27.6305 8.24864 27.5609 8.17456 27.4347C8.1544 27.4003 8.13212 27.3623 8.10076 27.3402C7.9369 27.2246 7.75461 27.13 7.60863 26.9957C7.49063 26.8871 7.40949 26.7359 7.32241 26.5971C7.25543 26.4903 7.2072 26.3719 7.14441 26.2623C7.13261 26.2417 7.0893 26.2254 7.06466 26.2299C7.04317 26.2338 7.02342 26.2677 7.01067 26.2923C7.00187 26.3094 7.00613 26.3332 7.00477 26.354C6.9984 26.4541 6.97427 26.5474 6.86072 26.5702C6.77532 26.5874 6.60006 26.4483 6.61148 26.3531C6.636 26.1492 6.67389 25.944 6.73572 25.7486C6.77172 25.6349 6.8104 25.5437 6.70969 25.4506C6.69133 25.4336 6.66884 25.4099 6.66714 25.3878C6.64486 25.0967 6.41272 24.9381 6.26059 24.728C6.19509 24.6375 6.16209 24.5241 6.10666 24.4255C5.95794 24.1609 5.80508 23.8986 5.6539 23.6353C5.60288 23.5464 5.54733 23.4598 5.50189 23.3681C5.37731 23.1167 5.1958 22.8963 5.12971 22.6118C5.08194 22.4064 5.02468 22.1878 4.9088 22.018C4.79141 21.846 4.76027 21.6762 4.73607 21.4833C4.72216 21.3724 4.63079 21.2732 4.58712 21.1636C4.48907 20.9174 4.39439 20.6695 4.30848 20.4189C4.28204 20.3418 4.28513 20.2537 4.28056 20.1702C4.25292 19.6681 4.22257 19.166 4.20207 18.6635C4.18787 18.3149 4.18856 17.9656 4.18159 17.6167C4.17806 17.4395 4.15544 17.2609 4.17175 17.0858C4.19238 16.864 4.19875 16.624 4.29062 16.4292C4.54529 15.8895 4.38669 15.3075 4.50857 14.7582C4.51958 14.7086 4.52261 14.6407 4.55551 14.6154C4.67508 14.5234 4.67168 14.393 4.69789 14.2659C4.77267 13.9038 4.851 13.5422 4.94218 13.184C4.97209 13.0665 5.05938 12.9644 5.0956 12.8475C5.13529 12.7196 5.14671 12.5829 5.16946 12.4499C5.17741 12.4034 5.16605 12.3431 5.19145 12.3117C5.36652 12.0955 5.31282 11.8174 5.39974 11.58C5.46337 11.406 5.55957 11.2439 5.6421 11.077C5.66507 11.0305 5.69819 10.9878 5.71441 10.9393C5.76574 10.7857 5.82957 10.6481 5.94453 10.5218C6.03167 10.4261 6.05246 10.2701 6.10357 10.1413C6.12389 10.09 6.13313 10.0254 6.16998 9.99113C6.46437 9.71685 6.76409 9.44824 7.06238 9.17814C7.23054 9.02592 7.38472 8.85199 7.57247 8.7298C7.70312 8.64477 7.77373 8.52839 7.87131 8.42456C7.97236 8.3171 8.12616 8.24684 8.26939 8.19481C8.42465 8.13837 8.5392 8.05786 8.63155 7.91876C8.8021 7.66182 8.97074 7.39854 9.17786 7.17246C9.35122 6.98323 9.57569 6.83981 9.78243 6.68253C9.96403 6.54438 10.1454 6.40361 10.3396 6.28489C10.5747 6.14121 10.8341 6.03571 11.0624 5.88301C11.2358 5.76707 11.4232 5.73009 11.6144 5.67532C12.022 5.55856 12.4184 5.40226 12.8274 5.2919C13.0367 5.23543 13.2631 5.2407 13.4821 5.22212C14.0221 5.17631 14.562 5.1288 15.1026 5.09173C15.2139 5.08409 15.3277 5.12245 15.4408 5.13372C15.5381 5.1434 15.6355 5.15271 15.7329 5.16182L16.3172 5.21581C16.338 5.21776 16.3628 5.21704 16.3784 5.22802C16.6337 5.40782 16.9336 5.30654 17.208 5.3628C17.271 5.37573 17.3294 5.4099 17.3908 5.43173C17.5118 5.4747 17.6334 5.51619 17.7549 5.55777C17.9392 5.62074 18.1253 5.67867 18.3075 5.747C18.6186 5.86367 18.9283 5.98422 19.2366 6.10793C19.5064 6.21611 19.7942 6.29826 20.0359 6.45188C20.2797 6.60685 20.5298 6.74598 20.7982 6.83085C21.0129 6.89874 21.1915 7.01295 21.3828 7.11709C21.6332 7.25345 21.8973 7.36479 22.1557 7.48663C22.1791 7.49767 22.2143 7.49972 22.226 7.51767C22.3628 7.72766 22.6286 7.73678 22.8028 7.89229C22.9173 7.99438 23.0491 8.10925 23.1905 8.14071C23.3684 8.1803 23.5176 8.23431 23.6387 8.36909C23.652 8.38389 23.6898 8.38402 23.7146 8.38004C23.87 8.35502 23.934 8.45263 24.0232 8.56044C24.1282 8.68742 24.29 8.76639 24.4222 8.87234C24.615 9.02677 24.8034 9.18679 24.9939 9.34419C25.0413 9.38337 25.0887 9.42249 25.1376 9.45984C25.1845 9.49581 25.2341 9.52834 25.2811 9.56437C25.3491 9.61661 25.4153 9.67116 25.4834 9.72334C25.4952 9.73237 25.518 9.7301 25.526 9.74048C25.6418 9.89147 25.7561 10.0437 25.8705 10.1958C25.8921 10.2245 25.9105 10.2768 25.9346 10.2794C26.1239 10.3 26.1941 10.4723 26.3148 10.5761C26.4175 10.6644 26.4792 10.7997 26.5801 10.891C26.8706 11.1538 27.0571 11.485 27.2399 11.8203L27.3085 11.9461C27.3567 12.034 27.4421 12.1014 27.4916 12.1889C27.5593 12.3085 27.6048 12.4404 27.6683 12.5627C27.6969 12.6178 27.7493 12.6601 27.7845 12.7124C27.8162 12.7597 27.861 12.8126 27.8619 12.8636C27.8644 13.0031 27.9037 13.0795 28.0491 13.1406C28.1334 13.1759 28.1587 13.3409 28.2216 13.4405C28.3393 13.6267 28.3787 13.8462 28.5269 14.0275C28.6342 14.159 28.6465 14.3772 28.6761 14.5608C28.7251 14.8651 28.722 15.1814 28.8021 15.476C28.8594 15.6869 28.8672 15.894 28.8947 16.1038C28.9114 16.2313 28.9906 16.3511 29.0037 16.4784C29.0411 16.8413 29.0766 17.206 29.0801 17.5704C29.0832 17.9684 29.0295 18.3672 29.0384 18.7648C29.0461 19.1131 28.9518 19.4346 28.8784 19.766C28.8267 19.9989 28.8376 20.2451 28.8046 20.4831C28.7841 20.6297 28.7338 20.7721 28.6962 20.9164C28.6871 20.9517 28.6716 20.9857 28.6658 21.0215C28.6181 21.3137 28.5725 21.6062 28.5247 21.8985C28.5198 21.9289 28.507 21.9585 28.4945 21.9871C28.3989 22.2065 28.287 22.4203 28.2106 22.6461C28.1377 22.8618 28.0341 23.0548 27.9187 23.2497C27.7638 23.5116 27.6555 23.8007 27.5107 24.0691C27.4285 24.2214 27.3115 24.3548 27.2139 24.4991C27.1887 24.5364 27.1763 24.5828 27.1599 24.6256C27.1451 24.6642 27.1446 24.7193 27.1173 24.7403C26.9507 24.8683 26.9 25.0628 26.8091 25.2363C26.7502 25.3487 26.651 25.4395 26.5745 25.5434C26.5287 25.6055 26.4913 25.6738 26.4517 25.7403C26.4384 25.7627 26.4348 25.7921 26.4185 25.8113C26.2766 25.9797 26.1316 26.1456 25.9902 26.3143C25.9402 26.3739 25.9015 26.4432 25.8502 26.5016C25.7792 26.5825 25.7006 26.6568 25.6263 26.7349C25.5914 26.7716 25.5572 26.8095 25.5259 26.8494C25.5038 26.8776 25.4936 26.9283 25.4671 26.9377C25.2641 27.0093 25.2254 27.2447 25.0533 27.3466C25.0287 27.3612 25.0256 27.4098 25.009 27.4407C24.9879 27.48 24.9711 27.5268 24.9387 27.5537C24.8175 27.6544 24.6631 27.728 24.5729 27.8499C24.4621 27.9998 24.3069 28.1039 24.2003 28.2346C24.0111 28.4665 23.7567 28.5659 23.5302 28.7228C23.4133 28.8038 23.3284 28.932 23.2095 29.0088C23.0313 29.1238 22.8464 29.2286 22.6608 29.3319L22.475 29.4351C22.2283 29.5724 21.9831 29.714 21.7281 29.8344C21.4747 29.954 21.2093 30.048 20.9508 30.1572C20.8974 30.1798 20.851 30.2193 20.802 30.252C20.7855 30.2631 20.773 30.2847 20.7555 30.2892C20.5415 30.3449 20.3263 30.3954 20.113 30.4537C20.0334 30.4754 19.9575 30.5117 19.8814 30.545C19.7657 30.5956 19.6507 30.6478 19.5368 30.7024C19.4841 30.7276 19.4347 30.7599 19.3841 30.7893C19.3628 30.8017 19.3438 30.8199 19.321 30.8273C19.0331 30.9215 18.7453 31.0159 18.4562 31.1063C18.3366 31.1437 18.2099 31.1612 18.0935 31.2062C17.9069 31.2785 17.7269 31.3674 17.5428 31.4465C17.4953 31.467 17.4433 31.4771 17.3934 31.492C17.209 31.5472 17.0249 31.6037 16.8399 31.6569C16.7905 31.6711 16.7383 31.677 16.687 31.6835C16.6352 31.69 16.5748 31.6771 16.5321 31.6994C16.2414 31.8506 15.9149 31.8491 15.6059 31.9189C15.2139 32.0075 14.8139 32.0604 14.4194 32.1388C13.8773 32.2465 13.335 32.1857 12.7924 32.1552C12.5307 32.1406 12.2671 32.1362 12.0085 32.0989C11.7418 32.0604 11.4799 31.9879 11.2162 31.9294C11.1908 31.9238 11.1675 31.9091 11.1421 31.9033C10.8705 31.841 10.6004 31.7702 10.3264 31.7212C10.1262 31.6853 9.91677 31.6965 9.71877 31.6533C9.50742 31.6072 9.3009 31.5314 9.09908 31.4514C8.79958 31.3328 8.50254 31.2065 8.21147 31.0687C8.06773 31.0005 7.93658 30.9037 7.80524 30.812C7.57651 30.6524 7.34573 30.4946 7.12801 30.3207C6.98111 30.2034 6.85599 30.059 6.71916 29.9287C6.69026 29.9012 6.64962 29.8862 6.61981 29.8594C6.5546 29.8008 6.45935 29.7486 6.43667 29.6752C6.38994 29.524 6.30249 29.4577 6.15496 29.4571C6.06 29.4568 6.00441 29.4301 5.94576 29.3382C5.83531 29.1651 5.71936 28.9856 5.51224 28.8984C5.47495 28.8827 5.46104 28.8157 5.43192 28.7757C5.33544 28.6431 5.25117 28.4976 5.13627 28.3832C4.88539 28.1332 4.7561 27.804 4.554 27.5225C4.47358 27.4105 4.47131 27.2421 4.43509 27.0989C4.41764 27.0299 4.41695 26.9535 4.38616 26.8917C4.28217 26.6832 4.16118 26.4832 4.0594 26.2737C3.87443 25.8929 3.70132 25.5064 3.51641 25.1256C3.48353 25.0579 3.41444 25.0087 3.36737 24.9469C3.17466 24.6942 3.09103 24.3944 3.00032 24.097C2.98748 24.0549 2.9382 24.024 2.90577 23.9878C2.83784 23.6855 2.67962 23.4164 2.55633 23.1347C2.5232 23.059 2.4996 22.9792 2.46787 22.9028C2.4125 22.7696 2.35205 22.6385 2.29766 22.5049C2.22626 22.3295 2.12303 22.1574 2.09846 21.9752C2.067 21.742 1.96276 21.5395 1.88562 21.329C1.75059 20.9603 1.56344 20.6111 1.41147 20.2482C1.34339 20.0857 1.31846 19.9054 1.25401 19.7409C1.18375 19.5617 1.08771 19.3928 1.0084 19.2169C0.97546 19.1439 0.939778 19.0656 0.935014 18.9879C0.924072 18.8097 0.924072 18.6301 0.934099 18.4519C0.941324 18.3223 0.871632 18.173 1.0213 18.0689C1.04809 18.0503 1.04121 17.9799 1.04566 17.9331C1.07891 17.5841 1.09431 17.2323 1.14955 16.8869C1.1863 16.6568 1.27941 16.4358 1.34733 16.2107C1.35036 16.2007 1.35525 16.1908 1.35635 16.1806C1.41116 15.6818 1.69611 15.2337 1.67863 14.7188C1.67775 14.6931 1.67598 14.6548 1.69087 14.6431C1.85013 14.5179 1.7782 14.3398 1.80637 14.1834C1.84786 13.953 1.93427 13.7296 1.96257 13.4984C1.99611 13.2244 2.0246 12.9537 2.14114 12.6991C2.1667 12.6434 2.16402 12.5752 2.18638 12.5174C2.26564 12.3126 2.31952 12.2983 2.51011 12.4209C2.54018 12.4402 2.57356 12.4544 2.61246 12.4747C2.7083 12.2645 2.79516 12.0585 2.89514 11.8591C2.98549 11.679 3.09466 11.5083 3.18735 11.3292C3.29941 11.1128 3.3939 10.8869 3.51227 10.6743C3.6787 10.3753 3.85288 10.08 4.03773 9.79209C4.15856 9.6039 4.30608 9.43297 4.43749 9.2513C4.47311 9.20206 4.49058 9.14006 4.5221 9.08734C4.55617 9.0303 4.58514 8.95266 4.63726 8.9277C4.74187 8.87764 4.81485 8.82511 4.8056 8.69705C4.80358 8.66935 4.82065 8.63029 4.84217 8.6125C4.96606 8.51005 5.09668 8.4156 5.21893 8.31133C5.2565 8.2793 5.29373 8.22687 5.2984 8.18046C5.30796 8.08518 5.33768 8.03814 5.44198 8.03827C5.48893 8.03833 5.54329 8.00826 5.58156 7.97649C5.74388 7.84181 5.90759 7.70757 6.05729 7.55951C6.10849 7.50884 6.1131 7.41403 6.15228 7.34718C6.17948 7.30084 6.22384 7.2442 6.27021 7.23326C6.40701 7.20098 6.49813 7.14063 6.51381 6.99011C6.51699 6.95957 6.5458 6.92278 6.57321 6.90514C6.85858 6.72159 7.14501 6.53958 7.43394 6.36171C7.49101 6.32656 7.5596 6.30953 7.62374 6.28659C7.64806 6.27788 7.6793 6.28315 7.69974 6.27012C7.8579 6.16932 8.01249 6.06291 8.17162 5.96371C8.28167 5.89513 8.39708 5.83518 8.51027 5.77171C8.56952 5.73852 8.62915 5.70602 8.68862 5.67324C8.6843 5.65826 8.68001 5.64327 8.67569 5.62828C8.62729 5.6251 8.57703 5.6292 8.53084 5.61734C8.39916 5.58351 8.26914 5.54329 8.13856 5.50527C8.12865 5.50237 8.11834 5.49152 8.11017 5.49332C7.875 5.54484 7.76325 5.33639 7.59771 5.24442C7.5413 5.21309 7.51859 5.12659 7.46833 5.07778C7.24934 4.86526 7.29096 4.58243 7.27209 4.32312C7.24177 3.90598 7.27563 3.4817 7.49748 3.12182C7.65068 2.87331 7.85683 2.64369 8.16749 2.55024ZM4.9054 30.0376C4.80943 29.9273 4.672 29.9345 4.60468 30.0655C4.5335 30.2039 4.47293 30.3491 4.38932 30.4795C4.27789 30.6534 4.14891 30.816 4.02707 30.9831C3.9683 31.0638 3.90605 31.1421 3.85071 31.225C3.83128 31.2541 3.83629 31.3002 3.81557 31.3275C3.73171 31.4377 3.64214 31.5436 3.55472 31.651C3.56576 31.6702 3.57683 31.6894 3.58791 31.7086C3.67773 31.7208 3.76723 31.7371 3.85746 31.7444C4.18378 31.771 4.50627 31.8294 4.83227 31.6992C5.11407 31.5866 5.43316 31.5425 5.4849 31.1602C5.48553 31.1557 5.49004 31.1505 5.49411 31.1477C5.65883 31.034 5.64637 30.8931 5.5592 30.7388C5.54667 30.7166 5.54323 30.6891 5.53673 30.6637C5.50254 30.5303 5.49282 30.3833 5.3293 30.3271C5.30478 30.3187 5.27658 30.2824 5.27368 30.2564C5.2586 30.1223 5.15297 30.1365 5.06384 30.1141C5.00743 30.0999 4.94105 30.0786 4.9054 30.0376ZM12.146 9.99981C12.1178 10.0703 12.0719 10.1389 12.0641 10.2116C12.004 10.7742 11.8909 11.3305 11.9467 11.9052C11.9789 12.2365 11.9379 12.5759 11.9189 12.911C11.8917 13.392 11.8461 13.8743 12.2432 14.2517C12.2537 14.2617 12.2585 14.2795 12.2622 14.2945C12.3132 14.5014 12.383 14.6983 12.336 14.9256C12.2751 15.2195 12.3638 15.5287 12.2653 15.8265C12.2311 15.9296 12.3216 15.978 12.4202 15.9616C12.4749 15.9525 12.5233 15.9068 12.5782 15.8956C12.7074 15.8693 12.8395 15.8367 12.9688 15.8423C13.0206 15.8446 13.0683 15.9408 13.1178 15.9942C13.0642 16.039 13.0142 16.0894 12.9557 16.1266C12.9139 16.1532 12.86 16.1599 12.813 16.1791C12.7248 16.2153 12.6359 16.2504 12.5506 16.2926C12.4315 16.3515 12.2912 16.395 12.2083 16.4881C12.1662 16.5353 12.2306 16.6768 12.2457 16.7758C12.2488 16.7964 12.249 16.818 12.2467 16.8387C12.2157 17.1213 12.1846 17.4038 12.1513 17.686C12.1485 17.71 12.1293 17.7319 12.1188 17.7553C12.09 17.82 12.0482 17.8825 12.0359 17.9503C12.0011 18.1409 11.9644 18.3332 11.9548 18.5261C11.9443 18.7349 11.8135 18.9303 11.889 19.148C11.8963 19.1691 11.8789 19.1984 11.8743 19.2242C11.8271 19.4857 11.7653 19.7398 11.7805 20.0156C11.7915 20.2142 11.7074 20.4283 11.6269 20.6191C11.5303 20.848 11.4201 21.0739 11.2063 21.2336C11.0427 21.3558 11.0227 21.5636 10.9718 21.7478C10.8852 22.0617 10.6673 22.3178 10.6056 22.6498C10.5649 22.8693 10.5172 23.0718 10.586 23.2917C10.6023 23.3441 10.5775 23.4517 10.5392 23.4717C10.3245 23.5839 10.3168 23.819 10.2106 23.9932C10.1381 24.112 10.1054 24.2545 10.0387 24.3776C9.90627 24.6218 9.7641 24.8608 9.62289 25.1002C9.56708 25.1948 9.50307 25.2845 9.44277 25.3763L9.37154 25.3677C9.34721 25.2605 9.27231 25.1305 9.30828 25.0503C9.40577 24.8331 9.55477 24.6396 9.67469 24.4317C9.76076 24.2825 9.88718 24.1471 9.87689 23.9037C9.73366 23.9999 9.61434 24.0702 9.50647 24.1551C9.38753 24.2488 9.28613 24.3653 9.16467 24.4551C8.87763 24.6672 8.58303 24.869 8.29195 25.0756C8.04079 25.2539 7.79117 25.4345 7.53884 25.6111C7.46726 25.6612 7.36292 25.6936 7.41179 25.8081C7.4558 25.9113 7.52875 26.0075 7.65844 25.9907C7.85594 25.9651 7.92447 26.1463 8.05786 26.222C8.1114 26.2524 8.15194 26.3119 8.20775 26.3311C8.37893 26.3899 8.55873 26.4249 8.72758 26.4891C8.96089 26.5779 9.1847 26.6903 9.44656 26.6631C9.58661 26.6486 9.72927 26.6577 9.86875 26.6401C10.3511 26.5796 10.789 26.7905 11.2502 26.8579C11.2601 26.8593 11.269 26.8671 11.2789 26.8698C11.6551 26.9714 12.0262 27.1033 12.4087 27.1681C13.3314 27.3242 14.2751 27.1859 15.2022 27.3535C15.5692 27.4198 15.9558 27.3953 16.3326 27.3835C16.6914 27.3722 17.0485 27.314 17.4074 27.2939C17.8035 27.2717 18.2008 27.2717 18.5973 27.256C18.654 27.2537 18.7224 27.2312 18.7624 27.1936C18.8297 27.1304 18.8701 27.1512 18.9383 27.1919C18.994 27.2252 19.0737 27.2184 19.1427 27.2293C19.1205 27.1662 19.1108 27.0942 19.0737 27.0416C18.9642 26.8866 18.8093 26.7541 18.7367 26.5851C18.6524 26.3889 18.4375 26.2352 18.5073 25.9804C18.5084 25.9767 18.5028 25.9713 18.5009 25.9664C18.3952 25.7115 18.2682 25.4629 18.1898 25.1998C18.1072 24.9224 18.0714 24.631 18.014 24.346C18.0048 24.3004 18.0036 24.2413 17.9746 24.2139C17.8511 24.0971 17.8712 23.9383 17.8324 23.796C17.7976 23.6685 17.7405 23.5472 17.6963 23.4222C17.5807 23.095 17.412 22.7746 17.3671 22.4378C17.3171 22.0637 17.204 21.7211 17.0729 21.3766C17.0527 21.3236 17.0322 21.27 17.0195 21.2149C16.9375 20.8593 16.8571 20.5034 16.7779 20.1472C16.7691 20.1076 16.7605 20.0628 16.77 20.0251C16.8231 19.8153 16.7572 19.62 16.6582 19.4513C16.4676 19.1265 16.6272 18.9006 16.8227 18.6786C16.9303 18.5563 16.9303 18.4792 16.8485 18.374C16.7903 18.2992 16.7809 18.2439 16.855 18.1719C16.918 18.1107 16.9594 18.0278 17.0197 17.9632C17.0659 17.9136 17.1232 17.8472 17.1815 17.8406C17.4756 17.8075 17.7452 17.6042 18.0599 17.7119C18.086 17.7208 18.1214 17.703 18.1523 17.6969C18.3666 17.6549 18.5741 17.5844 18.8025 17.6357C18.9078 17.6594 19.0279 17.617 19.1414 17.6053C19.1722 17.6022 19.204 17.5965 19.2342 17.6005C19.496 17.6349 19.7602 17.7135 20.0185 17.6974C20.432 17.6715 20.8494 17.7138 21.2608 17.5708C21.6809 17.4247 22.1349 17.3853 22.5513 17.2113C22.6757 17.1593 22.8273 17.159 22.9373 17.0891C23.1091 16.98 23.2952 16.9561 23.4835 16.9113C23.6889 16.8624 23.8881 16.7815 24.0835 16.6991C24.1807 16.6582 24.1782 16.539 24.1122 16.494C23.9734 16.3991 23.8193 16.3094 23.6585 16.2685C23.4523 16.216 23.2339 16.2064 23.0198 16.1922C22.8774 16.1828 22.7884 16.091 22.7908 15.9828C22.7923 15.9148 22.9093 15.8201 22.9937 15.7884C23.3358 15.6595 23.6629 15.7852 23.9926 15.8719C24.1839 15.9222 24.3379 16.0551 24.5603 16.0512C24.8297 16.0465 25.1016 16.1109 25.3701 16.159C25.554 16.192 25.5521 16.1971 25.5612 16.0014C25.574 15.7245 25.6016 15.4484 25.6144 15.1715C25.6244 14.9546 25.6672 14.7326 25.5327 14.5315C25.3575 14.2696 25.1889 14.0033 25.0132 13.7419C24.9956 13.7157 24.9492 13.7011 24.914 13.6959C24.7126 13.6659 24.4918 13.6825 24.3133 13.603C24.0766 13.4976 23.8469 13.4675 23.5985 13.4858C23.5313 13.4907 23.4628 13.4768 23.3948 13.4738C23.2024 13.4653 23.01 13.4585 22.8176 13.4498C22.6678 13.4431 22.5115 13.4595 22.3698 13.4216C22.0859 13.3457 21.8004 13.3463 21.5118 13.3433C21.1025 13.3391 20.6933 13.324 20.2841 13.3122C19.9801 13.3035 19.6762 13.2901 19.3721 13.2833C18.9093 13.273 18.4462 13.2738 17.984 13.2532C17.8772 13.2485 17.7375 13.2051 17.6768 13.1287C17.5868 13.0155 17.4781 13.0338 17.3802 13.0364C17.3372 13.0376 17.2831 13.1442 17.2596 13.2117C17.2347 13.2835 17.2374 13.3656 17.2326 13.4435C17.2228 13.602 17.1251 13.6891 16.9821 13.6927C16.7787 13.6978 16.5737 13.6793 16.3711 13.6565C16.3094 13.6496 16.247 13.6028 16.1954 13.5613C16.008 13.4111 15.8637 13.1998 15.6023 13.1562C15.5724 13.1512 15.5465 13.1213 15.513 13.0991C15.6209 12.9883 15.7242 12.9666 15.8339 13.0651C15.946 12.904 15.9335 12.7453 15.8047 12.7398C15.5831 12.7302 15.6165 12.5894 15.6243 12.4578C15.6331 12.3078 15.8371 12.1674 15.973 12.1931C16.1483 12.2261 16.3252 12.2377 16.5001 12.1708C16.5559 12.1495 16.6236 12.1575 16.686 12.1554C16.7522 12.1532 16.8185 12.1549 16.8804 12.1549C16.9275 11.9969 16.8631 11.8802 16.7415 11.8513C16.5987 11.8174 16.4789 11.7558 16.3488 11.6974C16.1298 11.5993 15.8843 11.5424 15.6444 11.5123C15.039 11.4364 14.4367 11.2811 13.818 11.4191C13.6291 11.4612 13.4699 11.3963 13.3703 11.2111C13.3459 11.1657 13.2858 11.1297 13.2342 11.1103C13.0564 11.0436 12.9927 10.88 12.9322 10.7319C12.8478 10.5251 12.8 10.3033 12.7234 10.0434C12.7068 10.116 12.7014 10.1512 12.6906 10.1848C12.6578 10.2868 12.642 10.4024 12.5813 10.4843C12.548 10.5291 12.4344 10.5338 12.363 10.5215C12.3332 10.5164 12.3124 10.4218 12.2991 10.3652C12.2705 10.2446 12.2495 10.1223 12.2254 10.0008L12.146 9.99981ZM25.8696 16.3212C25.7806 16.3336 25.7196 16.3375 25.6611 16.3516C25.5926 16.3682 25.4896 16.3738 25.4653 16.4187C25.3703 16.5934 25.216 16.6119 25.0563 16.623L25.0048 16.6264C24.9254 16.632 24.8067 16.684 24.843 16.512C24.8458 16.4987 24.7743 16.4572 24.7338 16.4506C24.684 16.4425 24.6224 16.4423 24.5804 16.4654C24.5039 16.5074 24.4237 16.5589 24.3758 16.6278C24.359 16.652 24.4331 16.7389 24.4652 16.7974C24.4839 16.8315 24.525 16.8778 24.5148 16.898C24.4986 16.9306 24.4509 16.9531 24.4119 16.9675C24.3094 17.005 24.1966 17.0215 24.1022 17.0727C23.9587 17.1504 23.81 17.1905 23.6521 17.2292C23.368 17.2989 23.0933 17.4089 22.817 17.5087C22.7152 17.5454 22.6246 17.6171 22.5213 17.645C22.2167 17.727 21.9077 17.7924 21.602 17.8704C21.5069 17.8946 21.419 17.9593 21.3239 17.9694C20.9135 18.0134 20.502 18.0612 20.0899 18.0731C19.8362 18.0805 19.5812 18.0134 19.3258 18.002C19.0022 17.9876 18.6773 17.9877 18.3537 18C18.2703 18.0032 18.1912 18.0798 18.1071 18.1154C18.0273 18.1492 17.9453 18.1877 17.8611 18.1975C17.7914 18.2057 17.7159 18.1592 17.6451 18.1645C17.317 18.189 17.2718 18.1577 17.2576 18.504C17.2503 18.6808 17.2833 18.8605 17.2642 19.0353C17.2289 19.3572 17.4129 19.6182 17.4844 19.9093C17.5542 20.1936 17.6969 20.4592 17.7798 20.7413C17.8664 21.0359 17.9226 21.3396 17.9869 21.6405C18.037 21.8745 18.0667 22.1135 18.1282 22.3441C18.1927 22.5856 18.1226 22.8699 18.3475 23.0633C18.3653 23.0786 18.3773 23.1098 18.378 23.1341C18.3853 23.3773 18.4425 23.584 18.6135 23.7858C18.7747 23.9758 18.8531 24.2372 18.9606 24.4706C18.9854 24.5244 18.9784 24.5923 18.9892 24.6531C19.0226 24.842 19.0455 25.0339 19.0946 25.2187C19.1734 25.5146 19.2759 25.8041 19.3531 26.1003C19.3665 26.1514 19.3169 26.2604 19.2744 26.274C19.2244 26.2901 19.1262 26.249 19.0916 26.2015C19.0148 26.0959 18.9463 25.9767 18.9072 25.8527C18.8122 25.5518 18.7387 25.2443 18.6512 24.9409C18.5922 24.7361 18.5277 24.5328 18.4566 24.3319C18.446 24.302 18.382 24.2693 18.3494 24.2752C18.3193 24.2806 18.2835 24.3334 18.2769 24.3701C18.2682 24.4184 18.2798 24.4729 18.2928 24.5221C18.3364 24.6885 18.3842 24.8539 18.4313 25.0194C18.4395 25.0481 18.4519 25.0757 18.4627 25.1036C18.5046 25.2117 18.5557 25.3172 18.5866 25.4283C18.6374 25.6109 18.6499 25.8079 18.7239 25.9793C18.8445 26.2585 19.0419 26.4898 19.2669 26.6973C19.3222 26.7482 19.3498 26.8292 19.3903 26.8964L19.3971 26.908C19.4599 27.0187 19.4964 27.1705 19.6512 27.1702C19.9779 27.1696 20.3004 27.1535 20.6017 26.9812C20.8111 26.8615 21.051 26.7956 21.2757 26.7018C21.5079 26.6049 21.7613 26.5362 21.9627 26.3945C22.1596 26.2561 22.3676 26.1457 22.5763 26.0342C22.743 25.945 22.9225 25.8799 23.0955 25.8023C23.143 25.781 23.1947 25.7613 23.2324 25.7275C23.3398 25.6312 23.4405 25.5275 23.5446 25.4275C23.8532 25.1311 24.2022 24.882 24.5084 24.5794C24.66 24.4296 24.7212 24.2403 24.8506 24.0842C25.0591 23.8327 25.1945 23.5171 25.3405 23.2186C25.4122 23.0719 25.4449 22.9045 25.4839 22.7437C25.5769 22.3596 25.6797 21.9767 25.7463 21.5877C25.7892 21.3366 25.7587 21.0736 25.7918 20.8198C25.82 20.6034 25.933 20.3933 25.9365 20.1792C25.9467 19.5708 26.0502 18.9655 25.9972 18.3554C25.9936 18.3136 25.9952 18.2715 25.9924 18.2296C25.9639 17.7968 25.9002 17.3679 25.9338 16.9291C25.9492 16.7276 26.0013 16.4971 25.8696 16.3212ZM13.8259 7.02544C13.8002 7.02459 13.7742 7.03276 13.7481 7.03437C13.4991 7.04992 13.2502 7.06936 13.001 7.07863C12.8191 7.08539 12.6353 7.05797 12.4687 7.16836C12.4253 7.1971 12.3577 7.19562 12.301 7.19666C12.0702 7.20098 11.837 7.18133 11.609 7.20723C11.311 7.24111 11.0062 7.23196 10.7218 7.37457C10.5039 7.48385 10.2617 7.54462 10.0312 7.62939C9.99785 7.64166 9.97151 7.67239 9.93838 7.68605C9.83932 7.72691 9.73905 7.76508 9.6381 7.80121C9.58061 7.82178 9.51385 7.8249 9.46385 7.85604C9.38233 7.90683 9.31292 7.97668 9.23499 8.03385C9.13126 8.10995 9.02323 8.18014 8.91896 8.25555C8.77453 8.36004 8.64584 8.50851 8.485 8.56262C8.27233 8.63411 8.10569 8.75444 7.94415 8.89354C7.85563 8.96973 7.78145 9.06258 7.69293 9.13874C7.62737 9.19515 7.5454 9.23206 7.47726 9.28585C7.34705 9.38867 7.22079 9.49651 7.09415 9.60377C6.93552 9.7382 6.77737 9.8732 6.6211 10.0103C6.59861 10.0301 6.58971 10.0646 6.57119 10.0898C6.51967 10.1601 6.46494 10.2281 6.4142 10.299C6.37354 10.3559 6.33536 10.4147 6.29899 10.4744C6.27217 10.5184 6.25239 10.5668 6.22529 10.6106C6.18055 10.6829 6.13247 10.7531 6.08575 10.8241C6.01927 10.9252 5.94974 11.0245 5.88736 11.1281C5.84824 11.193 5.80931 11.2614 5.78868 11.3335C5.7193 11.5763 5.65907 11.8217 5.59291 12.0655C5.58222 12.1049 5.55849 12.1406 5.54184 12.1784C5.50508 12.262 5.4623 12.3435 5.43394 12.4298C5.35342 12.6749 5.42892 12.9663 5.19804 13.1723C5.16454 13.2022 5.19464 13.3783 5.24496 13.4115C5.34809 13.4795 5.36797 13.354 5.40987 13.2861C5.44886 13.2229 5.50073 13.1674 5.54893 13.1102C5.58569 13.0665 5.64254 13.0315 5.66027 12.9818C5.69223 12.8924 5.74164 12.894 5.80382 12.9331C5.86279 12.9702 5.9157 13.0169 5.97163 13.0597C5.79335 13.2755 5.75766 13.5443 5.57335 13.7402C5.4753 13.8443 5.45779 14.0236 5.40135 14.168C5.35847 14.2777 5.29875 14.3824 5.26909 14.4952C5.21082 14.7171 5.1735 14.9445 5.11747 15.167C5.07273 15.3449 4.9936 15.516 4.96521 15.6957C4.93202 15.9058 4.93871 16.122 4.92382 16.3353C4.9223 16.3566 4.89224 16.3771 4.87315 16.3957C4.80018 16.4667 4.77453 16.8527 4.85646 16.8993C4.9914 16.9761 4.96613 17.0741 4.94313 17.1899C4.93316 17.2402 4.95417 17.299 4.96966 17.3515C4.98991 17.42 5.02295 17.4849 5.04282 17.5535C5.08626 17.7033 5.12315 17.8549 5.16596 18.0049C5.19707 18.1138 5.22868 18.223 5.26868 18.3287C5.30657 18.4289 5.35598 18.5247 5.39977 18.6226C5.42249 18.6735 5.4617 18.7246 5.46284 18.7762C5.46688 18.9626 5.43542 19.1489 5.5654 19.3167C5.62017 19.3874 5.64999 19.4884 5.66188 19.5795C5.69845 19.8592 5.72249 20.1407 5.74839 20.4218C5.77483 20.7088 5.79978 20.996 5.82124 21.2835C5.8313 21.418 5.78458 21.5835 5.84736 21.681C5.94188 21.8279 5.9114 21.9827 5.95873 22.1272C5.97655 22.1817 5.99488 22.2363 6.01763 22.2888C6.05398 22.3728 6.09609 22.4543 6.13234 22.5383C6.20421 22.705 6.26018 22.8806 6.35048 23.0364C6.39016 23.1048 6.40127 23.1326 6.3707 23.2087C6.33836 23.2891 6.3199 23.4292 6.36496 23.4755C6.45796 23.5712 6.47456 23.6677 6.47901 23.7861C6.48156 23.8544 6.50601 23.9241 6.53147 23.9889C6.56656 24.0782 6.64606 24.1633 6.64669 24.2506C6.64893 24.5606 6.81699 24.757 7.04916 24.9233C7.22553 25.0497 7.25704 25.068 7.12829 25.2903C7.11441 25.3143 7.11668 25.3476 7.11192 25.3739C7.26749 25.4504 7.37576 25.4004 7.47385 25.2813C7.53313 25.2093 7.60755 25.1484 7.6811 25.0899C7.84351 24.9607 8.00965 24.8361 8.17285 24.7108C8.04962 24.5334 8.06385 24.3652 8.15648 24.1975C8.22494 24.0736 8.29624 23.9511 8.36978 23.8301C8.41042 23.7633 8.45405 23.6973 8.50381 23.6371C8.59871 23.5224 8.69812 23.4113 8.79747 23.3003C8.82482 23.2698 8.8588 23.2454 8.88934 23.2176C9.0845 23.0404 9.28017 22.8638 9.47442 22.6856C9.5867 22.5826 9.68018 22.4415 9.8114 22.3808C10.0121 22.288 10.1129 22.1064 10.2626 21.9702C10.289 21.9462 10.3025 21.8761 10.2865 21.8468C10.2714 21.8193 10.2046 21.7985 10.1687 21.8076C10.0113 21.847 9.84749 21.8792 9.7029 21.949C9.30768 22.1397 8.92105 22.3481 8.53088 22.5493C8.48901 22.5709 8.44765 22.6043 8.40367 22.6088C8.31044 22.6182 8.18888 22.6715 8.14269 22.5429C8.10379 22.4345 8.13222 22.322 8.24214 22.2573C8.29877 22.224 8.36761 22.2123 8.42799 22.1843C8.51349 22.1448 8.59716 22.1009 8.67998 22.056C8.778 22.0028 8.87164 21.941 8.97209 21.8932C9.07283 21.8452 9.18653 21.8219 9.282 21.7662C9.40034 21.6972 9.50319 21.6123 9.65633 21.674C9.69091 21.6879 9.75054 21.6425 9.79761 21.622C9.94718 21.5569 10.0976 21.4935 10.2449 21.4236C10.3043 21.3955 10.4055 21.3492 10.4033 21.317C10.3949 21.1961 10.4869 21.17 10.5422 21.1018C10.5943 21.0377 10.6353 20.8923 10.5991 20.8438C10.5254 20.7449 10.4317 20.8448 10.3584 20.8977C10.3266 20.9207 10.3133 20.9678 10.2846 20.9971C10.2529 21.0295 10.2172 21.0649 10.1763 21.0798C10.0225 21.1363 9.86635 21.1869 9.71 21.2362C9.45132 21.3178 9.19641 21.4302 8.93124 21.4669C8.68878 21.5005 8.48639 21.5991 8.27858 21.7043C8.25059 21.7184 8.2121 21.7473 8.19349 21.7382C8.11818 21.7018 8.04082 21.6614 7.98132 21.6045C7.96024 21.5844 7.97274 21.4813 7.99583 21.4703C8.16885 21.3875 8.34464 21.3069 8.52684 21.2482C8.70957 21.1893 8.90912 21.1778 9.08646 21.1078C9.46423 20.9587 9.83563 20.7921 10.203 20.6187C10.3813 20.5346 10.5665 20.4427 10.7083 20.3109C10.8405 20.1881 10.9544 20.019 10.8869 19.7765C10.7617 19.8808 10.6644 19.9816 10.5493 20.0541C10.1495 20.3056 9.74833 20.5559 9.33765 20.7891C9.14344 20.8994 8.92906 20.9768 8.71818 21.0535C8.66127 21.0742 8.58375 21.0383 8.47522 21.0224C8.69304 20.8009 8.83681 20.5795 9.13277 20.5693C9.19511 20.5671 9.25654 20.5161 9.31696 20.4848C9.40634 20.4386 9.49426 20.3896 9.5832 20.3424C9.60626 20.3302 9.6339 20.3247 9.654 20.3091C9.84635 20.1601 10.0285 19.9957 10.2313 19.863C10.4883 19.695 10.7634 19.5548 11.0269 19.3964C11.0713 19.3697 11.0968 19.3117 11.1311 19.2682C11.1211 19.2534 11.1112 19.2386 11.1012 19.2238C11.0399 19.2406 10.9723 19.2462 10.9185 19.2764C10.7686 19.3607 10.6279 19.4612 10.4773 19.5442C10.2291 19.6812 9.97435 19.8062 9.72568 19.9423C9.54171 20.043 9.37482 20.2025 9.17959 20.2491C8.78056 20.3444 8.4515 20.5572 8.11973 20.7731C8.0289 20.8322 7.95245 20.8731 7.88386 20.7633C7.82376 20.6671 7.88282 20.5851 7.95681 20.5351C8.12067 20.4243 8.29299 20.3258 8.4633 20.2247C8.58019 20.1553 8.70058 20.0918 8.81756 20.0225C8.97812 19.9274 9.13 19.8146 9.29812 19.736C9.56235 19.6125 9.83518 19.5067 10.1076 19.4018C10.4346 19.2759 10.7639 19.1559 11.0946 19.0403C11.1626 19.0165 11.2413 19.0234 11.3554 19.0122C11.3769 18.9305 11.411 18.8001 11.4452 18.6698L11.3973 18.628C10.2685 19.1343 9.15293 19.6684 8.05038 20.2601C8.04893 20.1857 8.04344 20.0933 8.08464 20.0616C8.30817 19.8895 8.53425 19.717 8.77693 19.5744C9.01383 19.4353 9.27389 19.336 9.51976 19.2113C9.68725 19.1264 9.84254 19.0164 10.0126 18.9376C10.5133 18.7052 11.0187 18.4827 11.5164 18.259V18.0252C10.4114 18.324 9.50101 18.9915 8.52504 19.5247C8.34593 19.3405 8.36606 19.2455 8.59404 19.1664C8.63174 19.1534 8.66414 19.1245 8.69847 19.1021C8.87442 18.9871 9.04459 18.8616 9.22796 18.7599C9.36081 18.6862 9.51553 18.653 9.65255 18.5857C9.86885 18.4793 10.0727 18.3464 10.2927 18.2494C10.4612 18.1753 10.6465 18.1396 10.8241 18.0861C10.8438 18.0801 10.8618 18.0687 10.8811 18.0611C11.0492 17.9945 11.2125 17.901 11.387 17.8693C11.572 17.8357 11.669 17.7435 11.7072 17.5766C11.7238 17.5039 11.7334 17.3673 11.7096 17.3585C11.6221 17.3261 11.5086 17.3048 11.4244 17.3345C11.2322 17.4026 11.0527 17.5058 10.866 17.5901C10.4759 17.7664 10.084 17.9388 9.69394 18.1151C9.61084 18.1526 9.53301 18.2016 9.4512 18.2422C9.0993 18.417 8.74547 18.588 8.39559 18.7667C8.31536 18.8077 8.27511 18.7897 8.24034 18.7168C8.20933 18.6518 8.18345 18.6014 8.2793 18.556C8.50523 18.449 8.72654 18.3317 8.94644 18.2125C9.12268 18.1169 9.29052 18.0055 9.46852 17.9136C9.67984 17.8044 9.89667 17.7056 10.1136 17.6078C10.3742 17.4906 10.6338 17.3692 10.9008 17.2682C11.1405 17.1775 11.3904 17.1138 11.6341 17.0331C11.6684 17.0217 11.6932 16.9813 11.7477 16.931C11.6711 16.9242 11.6318 16.9093 11.6012 16.9198C11.2483 17.0405 10.8616 17.038 10.5267 17.23C10.3796 17.3143 10.2079 17.3548 10.0507 17.4226C9.74625 17.5539 9.44397 17.6902 9.1411 17.825C8.96544 17.9032 8.79027 17.9826 8.60719 18.065C8.57227 17.988 8.54331 17.9243 8.51759 17.8676C8.61177 17.7861 8.68291 17.6968 8.77551 17.6498C9.00058 17.5354 9.23603 17.4415 9.4665 17.3377C9.57452 17.289 9.67924 17.2327 9.78808 17.1861C10.0902 17.0567 10.4339 17.0529 10.7216 16.8784C10.7383 16.8682 10.7616 16.8565 10.7782 16.8606C11.007 16.9173 11.21 16.8127 11.419 16.7546C11.4652 16.7418 11.4984 16.6816 11.5659 16.6153C11.4798 16.6079 11.4441 16.5985 11.41 16.6028C11.1186 16.6393 10.8274 16.6778 10.5363 16.717C10.4664 16.7264 10.3941 16.7318 10.3281 16.7542C10.1841 16.8032 10.0475 16.8881 9.9004 16.912C9.48089 16.9804 9.06743 17.0564 8.69528 17.2786C8.48756 17.4025 8.38521 17.3868 8.21049 17.2197C8.14288 17.1551 8.15803 17.0542 8.24485 17.0239C8.44901 16.9524 8.66146 16.9006 8.85829 16.8133C9.12444 16.6952 9.39848 16.6247 9.68621 16.5965C9.71523 16.5937 9.76231 16.5771 9.76729 16.558C9.80297 16.4217 9.91339 16.4462 10.0048 16.4475C10.221 16.4507 10.4276 16.4287 10.6379 16.36C10.8516 16.2901 11.0829 16.2737 11.3069 16.2367C11.3366 16.2318 11.37 16.2399 11.3999 16.2484C11.6132 16.3092 11.7512 16.1557 11.9102 16.0662C11.9304 16.0548 11.9315 16.0014 11.9332 15.967C11.9412 15.8105 11.9378 15.6529 11.9543 15.4973C11.9784 15.2693 12.0137 15.0423 12.0488 14.8155C12.0659 14.7047 12.0311 14.6237 11.9432 14.5549C11.8829 14.5076 11.8223 14.4533 11.7822 14.3894C11.7356 14.3152 11.7088 14.228 11.6777 14.1448C11.6127 13.9709 11.5127 13.7994 11.4957 13.6204C11.4683 13.3305 11.4959 13.0354 11.5007 12.7426C11.5066 12.3823 11.5112 12.022 11.5204 11.6618C11.5226 11.5733 11.5274 11.481 11.5539 11.3978C11.6585 11.0694 11.6981 10.7359 11.6961 10.3908L11.6961 10.3623C11.6969 10.1802 11.7153 9.97824 11.8015 9.83045C11.8855 9.68615 11.9454 9.55222 11.972 9.39072C12.0162 9.12337 12.302 9.00793 12.5248 9.16388C12.7706 9.33601 12.9916 9.53058 13.1406 9.80115C13.2069 9.92147 13.233 10.0355 13.232 10.1705C13.2313 10.2697 13.2706 10.3705 13.3004 10.4681C13.3487 10.6259 13.4172 10.7787 13.4523 10.9391C13.485 11.0888 13.5198 11.1185 13.6716 11.1076C13.9641 11.0866 14.2576 11.0754 14.5509 11.0706C14.7075 11.068 14.8779 11.0519 15.0181 11.1053C15.2324 11.1868 15.4472 11.1983 15.6651 11.1935C15.9879 11.1863 16.256 11.3484 16.5432 11.4513C16.63 11.4824 16.7169 11.522 16.7926 11.5739C16.9681 11.6943 17.1376 11.8235 17.3075 11.9518C17.342 11.9779 17.3678 12.0157 17.3995 12.0502C17.337 12.1058 17.2869 12.1506 17.2423 12.1904C17.3199 12.273 17.4061 12.3412 17.4613 12.429C17.5597 12.5853 17.6347 12.7561 17.7302 12.9145C17.7525 12.9514 17.8155 12.976 17.8632 12.983C17.9666 12.998 18.0722 13.003 18.1769 13.0032C18.7894 13.0049 19.4019 12.9997 20.0144 13.0056C20.4543 13.0098 20.8945 13.0189 21.3338 13.0415C21.9972 13.0756 22.6603 13.1184 23.3227 13.168C23.5552 13.1854 23.8013 13.0476 24.0211 13.2254C24.0337 13.2355 24.0624 13.2234 24.0829 13.2264C24.2058 13.2446 24.3287 13.2633 24.4513 13.2833C24.5175 13.2941 24.5831 13.316 24.6494 13.3171C24.6913 13.3178 24.7671 13.2933 24.7693 13.2735C24.7743 13.2287 24.756 13.1672 24.7243 13.135C24.6346 13.0435 24.5294 12.9674 24.4376 12.8777C24.2924 12.7358 24.1575 12.5832 24.0103 12.4435C23.818 12.2609 23.653 12.0483 23.4109 11.919C23.3481 11.8854 23.3181 11.7939 23.2671 11.734C23.2349 11.6962 23.1941 11.6644 23.1529 11.636C23.0975 11.5977 23.0314 11.5728 22.9813 11.529C22.7369 11.315 22.4954 11.0977 22.255 10.8793C22.1755 10.8071 22.1097 10.7181 22.0247 10.6539C21.8367 10.5119 21.6406 10.3805 21.4476 10.2451C21.4063 10.2161 21.3624 10.1904 21.3226 10.1595C21.1202 10.0027 20.9201 9.84288 20.7167 9.68757C20.591 9.59163 20.4582 9.50499 20.3329 9.40855C20.0788 9.213 19.8289 9.01219 19.5751 8.81633C19.4148 8.69263 19.2114 8.60227 19.0984 8.44573C18.958 8.25148 18.7152 8.23188 18.5736 8.05127C18.4871 7.941 18.3531 7.85534 18.2236 7.79452C18.0443 7.71034 17.8492 7.65987 17.6609 7.59519C17.6263 7.58333 17.5907 7.5744 17.5568 7.56105C17.1392 7.39684 16.7168 7.25487 16.2651 7.21111C15.9844 7.18391 15.7074 7.11312 15.4266 7.09444C14.8939 7.05895 14.3596 7.04667 13.8259 7.02544ZM10.2116 22.7283C10.0661 22.6713 9.9758 22.6985 9.88752 22.7864C9.80635 22.8674 9.71006 22.935 9.61384 22.9987C9.10236 23.3368 8.72345 23.7889 8.45257 24.3359C8.51122 24.4379 8.58839 24.4489 8.68515 24.3872C8.76863 24.3339 8.86025 24.2922 8.93934 24.2334C9.14498 24.0805 9.34059 23.9138 9.54992 23.7664C9.72527 23.6429 9.91683 23.5428 10.0962 23.4247C10.1907 23.3625 10.2416 23.269 10.2545 23.1608C10.1744 23.2088 10.0729 23.2892 10.0578 23.2754C9.96933 23.1944 10.0068 23.0966 10.0659 23.0084C10.0834 22.9823 10.1088 22.9606 10.1223 22.9328C10.1535 22.8687 10.1798 22.8022 10.2116 22.7283ZM4.66805 17.6319L4.61404 17.6568C4.55952 17.9244 4.56394 18.1837 4.67524 18.447C4.71496 18.5409 4.68524 18.667 4.67691 18.7777C4.66925 18.8801 4.63265 18.9821 4.63621 19.0834C4.64098 19.2176 4.6913 19.3513 4.68909 19.4847C4.68038 20.0075 4.81295 20.4981 5.01317 20.9728C5.10677 21.1948 5.11706 21.4418 5.25023 21.6539C5.31932 21.7639 5.3255 21.9124 5.36652 22.0415C5.38737 22.1071 5.44413 22.1671 5.44706 22.2313C5.45542 22.4141 5.50063 22.5794 5.6061 22.7298C5.63219 22.7671 5.63547 22.8197 5.65879 22.8596C5.76965 23.0498 5.8838 23.238 5.99678 23.427C6.01359 23.4201 6.03038 23.4131 6.04719 23.4062C6.05114 23.3818 6.06445 23.3543 6.05767 23.3333C5.94232 22.9787 5.94526 22.5906 5.74066 22.2598C5.67668 22.1563 5.63456 22.0288 5.61942 21.9077C5.56831 21.4988 5.53833 21.0874 5.49142 20.6779C5.45665 20.3741 5.41548 20.0706 5.36267 19.7695C5.33604 19.6177 5.27291 19.4726 5.23414 19.3224C5.19009 19.1519 5.16495 18.9759 5.11217 18.8084C5.07775 18.6991 4.99285 18.6056 4.95862 18.4963C4.89198 18.2833 4.85047 18.0625 4.78711 17.8483C4.7643 17.7712 4.70868 17.7037 4.66805 17.6319ZM17.2203 20.1043C17.1927 20.1563 17.1463 20.2067 17.142 20.2606C17.1354 20.341 17.1543 20.4246 17.1696 20.5055C17.2122 20.7299 17.1989 20.9617 17.3188 21.176C17.4201 21.3571 17.4784 21.5636 17.5433 21.7629C17.5642 21.8268 17.547 21.919 17.6453 21.8954C17.6937 21.8838 17.727 21.8089 17.7707 21.7585C17.6995 21.5661 17.6355 21.4055 17.5804 21.2419C17.5026 21.0109 17.3621 20.7988 17.3858 20.5367C17.395 20.4357 17.3793 20.3275 17.3501 20.2301C17.335 20.1797 17.2653 20.1457 17.2203 20.1043ZM1.8331 15.9634C1.8235 15.9853 1.8064 16.0068 1.80543 16.0291C1.79054 16.3629 1.73539 16.7017 1.77293 17.0298C1.86471 17.8319 1.87846 18.6256 1.69882 19.4167C1.69084 19.4519 1.68292 19.4928 1.69289 19.5255C1.77946 19.8093 1.86644 20.093 1.96065 20.3743C2.04662 20.6309 2.13912 20.8855 2.2351 21.1386C2.25415 21.1887 2.30226 21.2278 2.33697 21.272C2.3682 21.2205 2.43187 21.164 2.4248 21.1185C2.40092 20.9644 2.3683 20.8075 2.30946 20.6639C2.15663 20.2907 1.99665 19.9219 2.0187 19.5056C2.02006 19.4799 2.01078 19.4539 2.00882 19.4279C1.98781 19.147 1.95749 18.8663 1.94888 18.5849C1.93541 18.1454 1.93935 17.7055 1.93077 17.2659C1.92629 17.0355 1.9072 16.8054 1.9013 16.575C1.89616 16.3733 1.90026 16.1714 1.90026 15.9697C1.87786 15.9676 1.8555 15.9655 1.8331 15.9634ZM11.5038 19.6805C11.2179 20.0119 10.9707 20.6533 11.0552 20.8296C11.3548 20.6918 11.6021 20.0724 11.5038 19.6805ZM23.8442 13.7953C23.9198 13.7279 24.2183 13.8774 24.2344 13.9828C24.2407 14.0236 24.2113 14.0823 24.1795 14.1142C24.0762 14.218 24.0209 14.3354 24.012 14.4838C23.998 14.7178 23.91 14.7901 23.6691 14.7893C23.5413 14.7888 23.2285 14.5663 23.1823 14.4334C23.1293 14.2811 23.0807 14.1267 23.0418 13.9704C23.0297 13.9213 23.0368 13.8435 23.0682 13.8143C23.0987 13.7858 23.1811 13.7822 23.2241 13.8027C23.4341 13.903 23.6319 13.9845 23.8442 13.7953ZM16.7686 12.4585C16.7166 12.4642 16.6586 12.457 16.6136 12.4777C16.2411 12.6496 16.1867 13.2024 16.5195 13.4413C16.5543 13.4663 16.6428 13.4781 16.6553 13.4602C16.6871 13.4148 16.6965 13.3496 16.7014 13.2912C16.7036 13.2657 16.6713 13.2381 16.6574 13.2101C16.5996 13.0941 16.6294 12.8603 16.7261 12.808C16.8479 12.7423 16.9571 12.7912 17.0424 12.8947C17.0457 12.8987 17.0492 12.9042 17.0536 12.9054C17.0965 12.9164 17.1438 12.942 17.1812 12.9317C17.2055 12.9251 17.2263 12.867 17.2299 12.8302C17.247 12.656 16.9974 12.4572 16.7686 12.4585ZM15.1495 12.9432C15.2706 12.9267 15.4465 13.0526 15.4172 13.1237C15.3898 13.1903 15.309 13.2349 15.2827 13.2597C15.0921 13.2598 14.9776 13.1671 15.0039 13.0593C15.0159 13.0099 15.0946 12.9506 15.1495 12.9432ZM26.3928 4.07689C26.5405 4.01827 26.7388 4.08411 26.914 4.09929C26.96 4.10326 27.007 4.14387 27.049 4.13756C27.3758 4.08828 27.5223 4.313 27.67 4.53694C27.7267 4.62281 27.7237 4.69219 27.6108 4.73147C27.4754 4.77857 27.3627 4.78987 27.2337 4.68099C27.128 4.59174 26.9748 4.55811 26.8416 4.50236C26.8131 4.49043 26.7776 4.49507 26.7495 4.48255C26.5787 4.40639 26.4206 4.35692 26.2822 4.55145C26.1863 4.68604 25.9994 4.74245 25.967 4.94045C25.9553 5.01261 25.8733 5.07239 25.8266 5.14003C25.7982 5.18121 25.7649 5.22373 25.7526 5.27058C25.6815 5.5414 25.7118 5.58974 25.9863 5.64883C26.3078 5.71805 26.6312 5.77941 26.9514 5.85415C27.0697 5.88176 27.2038 5.90321 27.2539 6.04647C27.1467 6.08216 27.0392 6.14841 26.9323 6.14746C26.673 6.14513 26.4124 6.15422 26.1609 6.03963C26.0137 5.97252 25.8377 5.96514 25.6733 5.94037C25.5707 5.92495 25.4139 6.06503 25.3785 6.16683C25.28 6.44993 25.1708 6.7293 25.0705 7.01179C25.0432 7.08902 25.019 7.17199 25.0184 7.25254C25.018 7.30501 25.0629 7.35779 25.0875 7.41044C25.1291 7.38006 25.1706 7.34971 25.2301 7.30624C25.2947 7.56977 25.5366 7.56494 25.7233 7.637C25.8141 7.67205 25.9209 7.6629 26.0173 7.68656C26.2195 7.73613 26.4196 7.79418 26.6166 7.84768C26.6126 8.0031 26.5812 8.08494 26.4423 8.06519C26.1318 8.02095 25.8211 7.97792 25.5109 7.93173C25.4665 7.92511 25.4085 7.9164 25.3838 7.88643C25.2616 7.73805 25.1024 7.74401 24.9364 7.75916C24.8796 7.76433 24.8218 7.75966 24.7645 7.75771C24.6117 7.75247 24.5072 7.71376 24.5137 7.52008C24.5167 7.43183 24.4424 7.34097 24.3961 7.23531C24.4285 7.13909 24.4957 7.05586 24.6253 7.03261C24.6506 7.02804 24.6813 6.99869 24.6916 6.97345C24.7643 6.79691 24.8319 6.61831 24.9017 6.44059C25.0237 6.13018 25.1354 5.81525 25.2709 5.51083C25.4215 5.17234 25.5937 4.84353 25.7566 4.51053C25.7612 4.50126 25.7643 4.48901 25.7719 4.48378C25.9768 4.34329 26.1674 4.1663 26.3928 4.07689ZM5.80276 2.18038C5.88296 2.1223 6.02739 2.10236 6.12163 2.13198C6.184 2.15161 6.22735 2.28623 6.24603 2.37627C6.2682 2.48297 6.23375 2.56765 6.08897 2.56976C6.02127 2.57077 5.94669 2.61664 5.88857 2.66005C5.71063 2.79291 5.53879 2.93396 5.36549 3.07297C5.33359 3.09856 5.28977 3.1244 5.27914 3.15866C5.24143 3.28019 5.15688 3.32069 5.04261 3.35931C4.97623 3.38177 4.93793 3.48721 4.87676 3.56896C4.80785 3.64609 4.73346 3.72326 4.66639 3.8063C4.60815 3.87842 4.5506 3.95304 4.50586 4.03377C4.22716 4.5367 4.13188 5.07827 4.17665 5.64764C4.18526 5.75728 4.19498 5.86691 4.20782 5.9761C4.21261 6.01699 4.21589 6.06655 4.23997 6.09533C4.49015 6.39419 4.74684 6.68558 5.18853 6.66873C5.20951 6.66794 5.23658 6.66129 5.25068 6.67141C5.49449 6.84661 5.74098 6.76625 5.96375 6.64788C6.12387 6.56279 6.26896 6.43183 6.38913 6.29377C6.52082 6.14249 6.61777 5.96058 6.7268 5.79005C6.80189 5.67266 6.75233 5.42522 6.63799 5.32505C6.35695 5.07884 6.04099 5.12364 5.81749 5.42686C5.70745 5.57618 5.5791 5.71408 5.44483 5.84227C5.40243 5.88278 5.30816 5.89732 5.24853 5.88183C5.20673 5.87098 5.16603 5.79242 5.15524 5.73806C5.1265 5.59297 5.15641 5.47131 5.28598 5.36569C5.46521 5.21955 5.62245 5.04644 5.78957 4.88538C5.97555 4.70609 6.19921 4.69744 6.43898 4.76928C6.66481 4.83692 6.82735 4.96126 6.96708 5.13358C7.05034 5.23618 7.12975 5.34269 7.20077 5.4539C7.2173 5.4798 7.2019 5.5364 7.18509 5.57104C7.15455 5.63389 7.10587 5.68796 7.07571 5.75093C7.03157 5.84312 6.97541 5.9372 6.96295 6.03538C6.93579 6.24897 6.78956 6.38107 6.66661 6.53178C6.65042 6.55159 6.64515 6.58058 6.62824 6.59945C6.46353 6.78291 6.2854 6.9516 6.05342 7.04628C5.98294 7.07502 5.90047 7.07364 5.82402 7.08891C5.76802 7.10007 5.70477 7.10307 5.65902 7.13219C5.54781 7.20302 5.45278 7.24703 5.33943 7.12708C5.30851 7.09436 5.21913 7.1226 5.15909 7.11049C5.03952 7.08635 4.92156 7.05417 4.80331 7.02379C4.78899 7.0201 4.77763 7.00035 4.76394 6.99918C4.45485 6.97293 4.2877 6.72341 4.06316 6.5621C3.91652 6.45675 3.91428 6.29551 3.88863 6.15672C3.83607 5.8724 3.71473 5.5959 3.76127 5.29644C3.76685 5.26034 3.75815 5.22116 3.76793 5.18677C3.84907 4.90182 3.93419 4.61794 4.01521 4.33295C4.03231 4.27279 4.04824 4.209 4.04641 4.14741C4.04187 3.99348 4.05411 3.86527 4.20984 3.76734C4.30713 3.70613 4.35919 3.57596 4.43914 3.4833C4.50255 3.40985 4.57732 3.34622 4.64739 3.27861C4.66998 3.25678 4.70595 3.2404 4.71507 3.21428C4.8147 2.92892 5.0775 2.80969 5.28914 2.63611C5.46613 2.49095 5.61835 2.31399 5.80276 2.18038ZM21.4629 2.38799C21.5659 2.26741 21.8932 2.3235 21.9911 2.47008C22.1732 2.74267 22.2045 3.04178 22.1847 3.35696C22.1762 3.49101 22.2006 3.62459 22.0612 3.72016C22.0169 3.75054 21.9914 3.83995 21.9941 3.90071C21.9996 4.02382 21.9302 4.09045 21.8399 4.13329C21.5911 4.25126 21.3337 4.33221 21.0506 4.27807C20.9341 4.25577 20.8147 4.24652 20.6962 4.23671C20.6001 4.22873 20.4889 4.42137 20.5375 4.52848C20.5911 4.64669 20.677 4.75078 20.7263 4.87035C20.8244 5.10813 21.0472 5.23793 21.1958 5.4323C21.2823 5.5455 21.4339 5.61043 21.5596 5.69186C21.6774 5.76811 21.8212 5.81708 21.9144 5.91526C22.0236 6.03048 22.2194 6.09581 22.1922 6.27902C22.4326 6.37758 22.6526 6.4845 22.8834 6.55653C23.04 6.6054 23.2117 6.62152 23.3769 6.62313C23.6141 6.6254 23.7193 6.44926 23.6215 6.23006C23.5589 6.08966 23.4811 5.95608 23.4109 5.819C23.2929 5.5885 23.1782 5.35621 23.0563 5.12779C23.0183 5.05661 22.9612 4.99566 22.9132 4.92982C22.7366 4.68777 22.8505 4.40017 22.9836 4.21545C23.015 4.17175 23.0904 4.1485 23.1494 4.13812C23.302 4.11134 23.4569 4.09875 23.6103 4.07729C23.7738 4.05445 23.908 3.99038 24.0374 3.87308C24.2552 3.67545 24.4983 3.50316 24.7447 3.34125C24.8045 3.30197 24.9182 3.34478 25.0071 3.34986C24.9967 3.43823 25.0178 3.55367 24.9697 3.6097C24.8446 3.75546 24.6931 3.87989 24.5446 4.00378C24.4177 4.10976 24.2875 4.21557 24.1453 4.29833C24.0257 4.36789 23.8873 4.40569 23.7561 4.45465C23.6198 4.50554 23.4771 4.5429 23.3486 4.60846C23.3141 4.62603 23.2913 4.74011 23.3138 4.78393C23.4736 5.09548 23.6464 5.40047 23.8159 5.7071C23.8354 5.74253 23.868 5.77256 23.8804 5.80982C23.9122 5.90548 23.9412 6.00274 23.9614 6.1014C23.9748 6.16689 23.96 6.23892 23.9773 6.30278C24.0463 6.55735 23.9028 6.87139 23.6533 6.92569C23.5057 6.9578 23.3424 6.9184 23.1861 6.91073C23.0867 6.90584 22.9873 6.89922 22.8878 6.89505C22.7384 6.88884 22.5897 6.90329 22.4708 6.76873C22.4213 6.71282 22.3235 6.68317 22.2439 6.67402C22.0881 6.65607 22.0535 6.58902 22.1156 6.45283C22.1254 6.43134 22.1207 6.40323 22.1231 6.37272C21.7255 6.28669 21.4154 6.05761 21.09 5.83705C20.7654 5.61702 20.5252 5.33649 20.3043 5.02576L20.2515 5.02932C20.2465 5.12542 20.2348 5.22184 20.2386 5.31759C20.2419 5.40053 20.2724 5.48259 20.2738 5.56535C20.2762 5.70126 20.1873 5.78606 20.0609 5.78452C19.9159 5.78278 19.812 5.69517 19.8104 5.56446C19.8087 5.42801 19.8089 5.2909 19.8211 5.15524C19.8262 5.09861 19.8691 5.04642 19.8864 4.98963C19.9381 4.82015 19.9924 4.65092 20.0309 4.47832C20.0434 4.42219 20.022 4.35048 19.9959 4.29542C19.934 4.16459 19.9679 4.04735 20.0378 3.93895C20.0642 3.898 20.1272 3.85118 20.169 3.85512C20.2991 3.8674 20.3411 3.7943 20.3543 3.69227C20.3707 3.56471 20.4537 3.50808 20.5508 3.43779C20.6457 3.36908 20.7077 3.25127 20.7748 3.14886C20.8687 3.00538 20.9648 2.87227 21.1079 2.76525C21.2441 2.66326 21.3506 2.51955 21.4629 2.38799ZM9.1623 3.31632C8.90104 3.08172 8.66909 2.815 8.28135 2.91407C8.13938 2.95035 8.01123 3.07342 7.89778 3.1794C7.78691 3.28301 7.67217 3.39709 7.71454 3.58449C7.72549 3.63282 7.67643 3.69816 7.64728 3.75148C7.5803 3.87405 7.57077 4.12925 7.64702 4.1513C7.88017 4.21869 7.81903 4.36515 7.76779 4.51983C7.69687 4.73399 7.75738 4.94206 7.958 5.02424C8.2144 5.1293 8.4885 5.19117 8.64464 5.23833C9.13836 5.24408 9.40709 5.07945 9.578 4.75267C9.60999 4.69146 9.65415 4.62357 9.65185 4.56021C9.64725 4.43184 9.61617 4.30416 9.59301 4.17673C9.5809 4.11004 9.58241 4.02766 9.54335 3.98138C9.37624 3.78335 9.37299 3.50552 9.1623 3.31632ZM16.4327 0.000915527C16.4651 0.0502586 16.526 0.100043 16.5252 0.148913C16.52 0.514064 16.5241 0.881392 16.4838 1.24342C16.4273 1.75275 16.3348 2.25804 16.2581 2.76514C16.2269 2.97144 16.2544 3.00488 16.4938 3.04848C16.6938 3.08489 16.7393 3.05252 16.7702 2.8566C16.8039 2.64332 16.8822 2.45589 16.9966 2.28155C17.0411 2.21375 17.1189 2.16772 17.1821 2.11241C17.2128 2.0855 17.2557 2.06613 17.2742 2.03288C17.3622 1.87532 17.5146 1.85043 17.6705 1.82011C17.736 1.80739 17.8025 1.77345 17.8563 1.73284C17.9321 1.67561 18.2043 1.67527 18.3028 1.74556C18.3238 1.76061 18.3426 1.79219 18.3631 1.79272C18.6353 1.79985 18.7716 1.9923 18.9062 2.18649C18.9319 2.22362 18.9605 2.26549 18.9667 2.30821C19.018 2.66042 19.0726 3.01251 19.1094 3.36634C19.1359 3.62043 18.9885 3.83488 18.921 4.06796C18.8556 4.29398 18.7044 4.44999 18.574 4.62515C18.5371 4.67481 18.4654 4.69967 18.4079 4.73274C18.3254 4.78015 18.2363 4.81767 18.1591 4.87234C18.07 4.93557 17.9427 4.91541 17.8914 4.81215C17.8686 4.76624 17.8605 4.71308 17.8377 4.63654C17.9002 4.6521 17.9421 4.66695 17.9852 4.67238C18.0787 4.68412 18.1398 4.66891 18.222 4.58373C18.4222 4.37617 18.473 4.09661 18.6227 3.86699C18.6865 3.76919 18.6744 3.6217 18.6957 3.49664C18.7007 3.46764 18.7011 3.43789 18.7041 3.40855C18.7144 3.30731 18.7434 3.20376 18.7312 3.10536C18.7099 2.93522 18.6615 2.76857 18.6273 2.59988C18.6028 2.4793 18.5661 2.37213 18.4318 2.32887C18.4005 2.31878 18.3806 2.27764 18.3507 2.25792C18.2405 2.1851 18.1682 2.01483 17.9837 2.14242C17.8693 2.22154 17.731 2.26555 17.6056 2.32957C17.5643 2.35064 17.5336 2.395 17.4913 2.41159C17.1866 2.53101 17.1035 2.80391 17.0852 3.07728C17.0644 3.38807 17.1027 3.70382 17.1296 4.01619C17.1385 4.11945 17.1934 4.21842 17.2229 4.32064C17.229 4.34159 17.2155 4.36815 17.211 4.39204C16.9494 4.34449 16.8606 4.25517 16.8175 4.01344C16.7828 3.81815 16.7495 3.6222 16.7015 3.43C16.6904 3.38546 16.6268 3.33226 16.5796 3.32311C16.4887 3.30545 16.3858 3.29601 16.3002 3.32261C16.2424 3.3405 16.1763 3.42038 16.1646 3.48215C16.1193 3.72133 16.0914 3.96401 16.0631 4.20608C16.048 4.33585 16.0478 4.46728 16.0362 4.59755C16.0207 4.77063 15.9186 4.86982 15.7486 4.86303C15.7143 4.86168 15.6522 4.79583 15.6547 4.76365C15.666 4.6154 15.7017 4.46917 15.7174 4.32105C15.7461 4.05083 15.7665 3.7797 15.7911 3.50903C15.803 3.37744 15.7159 3.35934 15.6267 3.35773L15.6069 3.3576C15.3919 3.35839 15.1762 3.36003 14.9621 3.3777C14.804 3.39073 14.6743 3.36078 14.5827 3.21654C14.5673 3.21648 14.5519 3.21642 14.5366 3.21635C14.5059 3.31952 14.457 3.4212 14.4483 3.5262C14.4299 3.75073 14.4265 3.97697 14.4278 4.20242C14.429 4.4003 14.2833 4.4882 14.1633 4.60058C13.9735 4.49933 13.9377 4.35329 13.9705 4.15172C14.0045 3.94214 13.988 3.7248 14.0042 3.51162C14.0095 3.44202 14.0483 3.37504 14.0711 3.30665C14.0899 3.25017 14.1258 3.19247 14.123 3.13682C14.1015 2.69834 14.1511 2.27101 14.2763 1.84901C14.3188 1.70584 14.3221 1.54878 14.3275 1.39751C14.3342 1.21051 14.4259 1.07015 14.5504 0.947362C14.6255 0.873284 14.7186 0.881455 14.7523 0.983517C14.7891 1.09485 14.8057 1.21786 14.8047 1.33561C14.8031 1.53809 14.7967 1.74307 14.7634 1.94214C14.7215 2.19267 14.6444 2.43709 14.5946 2.68655C14.5675 2.82246 14.5655 2.96336 14.5521 3.10202L14.5925 3.11385C14.6131 3.0852 14.6302 3.05277 14.6552 3.0286C14.7454 2.94143 14.8054 2.80568 14.9713 2.97327C15.0462 3.04898 15.2298 3.02207 15.3647 3.03188C15.4684 3.03942 15.5734 3.02772 15.6776 3.03151C15.8004 3.03595 15.8809 2.9926 15.8917 2.86152C15.9127 2.60572 15.9295 2.34957 15.9535 2.09408C15.9591 2.0342 15.9865 1.97637 16.0037 1.91756C16.0225 1.85368 16.0515 1.7908 16.0583 1.72562C16.0972 1.35637 16.1216 0.985347 16.1701 0.617451C16.1923 0.449325 16.2519 0.284669 16.3086 0.12339C16.3259 0.0741098 16.39 0.041267 16.4327 0.000915527ZM21.6528 2.76907C21.5264 2.73831 21.4981 2.83974 21.4423 2.91335C21.3911 2.98083 21.3259 3.03806 21.2641 3.09696C21.2194 3.13949 21.1575 3.16909 21.1255 3.21874C21.001 3.41195 20.8828 3.60935 20.7676 3.80824C20.703 3.9197 20.7327 3.98006 20.86 3.98242C20.995 3.98492 21.1318 3.97517 21.2654 3.95517C21.5284 3.91582 21.7629 3.63059 21.7452 3.36365C21.7452 3.23326 21.7469 3.10283 21.7445 2.97247C21.743 2.893 21.7721 2.7981 21.6528 2.76907Z" fill="black"/>
</g>
<defs>
<clipPath id="clip0_202_13817">
<rect width="30" height="36.0009" fill="white"/>
</clipPath>
</defs>
</svg>
