<svg width="37" height="36" viewBox="0 0 37 36" fill="none" xmlns="http://www.w3.org/2000/svg">
<g clip-path="url(#clip0_202_12880)">
<path d="M4.50586 16.7727V19.2273C4.50586 20.47 3.49849 21.4773 2.25586 21.4773C1.01323 21.4773 0.00585938 20.47 0.00585938 19.2273V16.7727C0.00585938 15.5301 1.01323 14.5227 2.25586 14.5227C3.49849 14.5227 4.50586 15.5301 4.50586 16.7727Z" fill="#0066D9"/>
<path d="M31.5068 16.8367C31.5062 16.8154 31.5059 16.7941 31.5059 16.7727C31.5059 15.5301 32.5132 14.5227 33.7559 14.5227C34.9985 14.5227 36.0059 15.5301 36.0059 16.7727C36.0059 16.7941 36.0056 16.8155 36.0049 16.8367H36.0059V19.2913H36.0049C35.9712 20.5043 34.9771 21.4773 33.7559 21.4773C32.5346 21.4773 31.5406 20.5043 31.5068 19.2913H31.5059V16.8366H31.5068V16.8367Z" fill="#4285F4"/>
<path d="M12.2786 24.1364V26.5909C12.2786 27.8336 11.2713 28.8409 10.0286 28.8409C8.78586 28.8409 7.77856 27.8336 7.77856 26.5909V24.1363C7.77856 22.8938 8.78593 21.8863 10.0286 21.8863C11.2712 21.8863 12.2786 22.8938 12.2786 24.1363V24.1364ZM12.2786 9.4091V17.4375H12.278C12.2509 18.6565 11.2541 19.6364 10.0286 19.6364C8.80302 19.6364 7.80634 18.6565 7.7792 17.4375H7.77856V9.4091C7.77856 8.16647 8.78593 7.1591 10.0286 7.1591C11.2712 7.1591 12.2786 8.16647 12.2786 9.4091Z" fill="#EA4335"/>
<path d="M23.7332 11.8636C23.7332 13.1063 24.7405 14.1136 25.9832 14.1136C27.2259 14.1136 28.2332 13.1063 28.2332 11.8636V9.4091C28.2332 8.16647 27.2258 7.1591 25.9832 7.1591C24.7405 7.1591 23.7332 8.16647 23.7332 9.4091V11.8636Z" fill="#34A853"/>
<path d="M15.7559 4.70464C15.7559 5.9472 16.7632 6.95464 18.0059 6.95464C19.2485 6.95464 20.2559 5.9472 20.2559 4.70464V2.25003C20.2559 1.0074 19.2485 3.05176e-05 18.0059 3.05176e-05C16.7632 3.05176e-05 15.7559 1.0074 15.7559 2.25003V4.70464ZM15.7559 31.2954C15.7559 30.0529 16.7632 29.0454 18.0059 29.0454C19.2485 29.0454 20.2559 30.0529 20.2559 31.2954V33.75C20.2559 34.9927 19.2485 36 18.0059 36C16.7632 36 15.7559 34.9927 15.7559 33.75V31.2954Z" fill="#FAB908"/>
<path d="M23.7332 18.6136C23.7332 17.371 24.7405 16.3636 25.9832 16.3636C27.2259 16.3636 28.2332 17.371 28.2332 18.6136V26.591C28.2332 27.8336 27.2258 28.841 25.9832 28.841C24.7405 28.841 23.7332 27.8336 23.7332 26.591V18.6136Z" fill="#34A853"/>
<path d="M20.2559 11.4546V24.5454C20.2559 25.7881 19.2485 26.7954 18.0059 26.7954C16.7632 26.7954 15.7559 25.7881 15.7559 24.5454V11.4546C15.7559 10.2119 16.7632 9.20464 18.0059 9.20464C19.2485 9.20464 20.2559 10.2119 20.2559 11.4546Z" fill="#FAB908"/>
</g>
<defs>
<clipPath id="clip0_202_12880">
<rect width="37" height="36" fill="white"/>
</clipPath>
</defs>
</svg>
