<svg width="36" height="34" viewBox="0 0 36 34" fill="none" xmlns="http://www.w3.org/2000/svg">
<path d="M9.81916 0.638062C7.21521 0.638062 4.71792 1.67247 2.87666 3.51374C1.03539 5.35501 0.000976563 7.8523 0.000976562 10.4562C0.000976563 13.0602 1.03539 15.5575 2.87666 17.3987C4.71792 19.24 7.21521 20.2744 9.81916 20.2744C12.4231 20.2744 14.9204 19.24 16.7617 17.3987C18.6029 15.5575 19.6373 13.0602 19.6373 10.4562C19.6373 7.8523 18.6029 5.35501 16.7617 3.51374C14.9204 1.67247 12.4231 0.638062 9.81916 0.638062Z" fill="#4285F4"/>
<path d="M26.1828 21.9108C24.6639 21.9108 23.2071 22.5142 22.133 23.5882C21.059 24.6623 20.4556 26.1191 20.4556 27.638C20.4556 29.157 21.059 30.6138 22.133 31.6878C23.2071 32.7619 24.6639 33.3653 26.1828 33.3653C27.7018 33.3653 29.1586 32.7619 30.2326 31.6878C31.3067 30.6138 31.9101 29.157 31.9101 27.638C31.9101 26.1191 31.3067 24.6623 30.2326 23.5882C29.1586 22.5142 27.7018 21.9108 26.1828 21.9108Z" fill="#FBBC04"/>
<path d="M26.1828 10.4562C24.8808 10.4562 23.6322 10.9734 22.7115 11.894C21.7909 12.8146 21.2737 14.0633 21.2737 15.3653C21.2737 16.6672 21.7909 17.9159 22.7115 18.8365C23.6322 19.7572 24.8808 20.2744 26.1828 20.2744C27.4847 20.2744 28.7334 19.7572 29.654 18.8365C30.5747 17.9159 31.0919 16.6672 31.0919 15.3653C31.0919 14.0633 30.5747 12.8146 29.654 11.894C28.7334 10.9734 27.4847 10.4562 26.1828 10.4562Z" fill="#EA4335"/>
<path d="M33.5463 7.18347C32.8954 7.18347 32.271 7.44207 31.8107 7.90239C31.3504 8.36271 31.0918 8.98703 31.0918 9.63802C31.0918 10.289 31.3504 10.9133 31.8107 11.3736C32.271 11.834 32.8954 12.0926 33.5463 12.0926C34.1973 12.0926 34.8217 11.834 35.282 11.3736C35.7423 10.9133 36.0009 10.289 36.0009 9.63802C36.0009 8.98703 35.7423 8.36271 35.282 7.90239C34.8217 7.44207 34.1973 7.18347 33.5463 7.18347Z" fill="#34A853"/>
</svg>
