<svg width="37" height="32" viewBox="0 0 37 32" fill="none" xmlns="http://www.w3.org/2000/svg">
<g clip-path="url(#clip0_202_8760)">
<path d="M7.82103 0.934182C9.84417 0.671796 11.9463 1.12215 13.6779 2.20162C14.6553 2.77779 15.4371 3.61175 16.2389 4.40121C16.8204 4.97048 17.3958 5.54666 17.9789 6.11439L18.0004 6.17347C17.5648 6.60228 17.0706 7.45972 16.5177 8.74579C15.3582 9.15371 14.5668 9.5655 14.1436 9.98114C13.1992 9.07199 12.2854 8.13063 11.3448 7.21688C10.4503 6.37908 9.09844 6.04151 7.9269 6.42588C6.59272 6.80105 5.57463 8.07692 5.50405 9.46174C5.45802 10.1821 5.64599 10.9141 6.03573 11.5217C6.27817 11.913 6.63262 12.2114 6.95024 12.5383C7.71362 13.3055 8.49541 14.055 9.24728 14.833C8.84577 15.2276 8.37035 15.9914 7.82103 17.1244C6.65256 17.6782 5.84187 18.1818 5.38897 18.6353C4.37395 17.6809 3.40343 16.6751 2.39761 15.7099C1.19999 14.464 0.399026 12.8474 0.122829 11.1419C-0.180986 9.31213 0.107485 7.38566 0.954487 5.73386C1.66569 4.34904 2.74209 3.14605 4.05172 2.30135C5.19026 1.58554 6.47994 1.08379 7.82103 0.934182Z" fill="#EA4335"/>
<path d="M18.0173 23.471L26.7934 14.8215L29.1663 16.2308L30.6509 18.6437L18.0173 31.1424L9.25342 22.4721L10.9352 20.1055L13.1347 18.6407L18.0173 23.471Z" fill="#34A853"/>
<path d="M14.1512 9.98956L16.3587 11.1836L18.0172 13.8226L9.25336 22.4721L5.38892 18.6353L14.1512 9.98956Z" fill="#FBBC05"/>
<path d="M28.5995 0.987129C31.1712 1.4229 33.5365 3.02868 34.8331 5.30039C36.3099 7.79613 36.3905 11.0345 35.0801 13.617C34.5369 14.7264 33.7076 15.6623 32.8245 16.5132C32.0918 17.2137 31.396 17.9609 30.651 18.6437C29.3621 17.3732 28.0716 16.1035 26.7935 14.8215C27.7041 13.9016 28.6294 12.9971 29.5431 12.0802C30.1324 11.4849 30.5014 10.6686 30.5313 9.82847C30.572 8.87483 30.1953 7.90738 29.504 7.24604C28.7997 6.57933 27.8131 6.20033 26.8418 6.28089C26.0063 6.32078 25.2 6.69979 24.6107 7.29054C22.4119 9.46635 20.2185 11.6483 18.0173 13.8226C16.723 12.5505 15.4272 11.28 14.1513 9.98959C14.1498 9.98729 14.146 9.98345 14.1437 9.98115C15.4326 8.71525 16.7131 7.44091 18.0004 6.17348C18.9334 5.25436 19.8632 4.3314 20.7969 3.41152C22.0061 2.19702 23.6003 1.40142 25.2659 1.03623C26.3638 0.82985 27.4962 0.806834 28.5995 0.987129Z" fill="#4285F4"/>
</g>
<defs>
<clipPath id="clip0_202_8760">
<rect width="37" height="32" fill="white"/>
</clipPath>
</defs>
</svg>
