<svg width="37" height="28" viewBox="0 0 37 28" fill="none" xmlns="http://www.w3.org/2000/svg">
<g clip-path="url(#clip0_202_9997)">
<path d="M0.00195312 27.8L17.402 0.199997H28.202V4.04L13.202 27.8" fill="#FBBC04"/>
<path d="M28.2019 27.8H17.4019V0.199997H28.2019V27.8Z" fill="#1A73E8"/>
<path d="M36.0019 20C36.0019 24.308 32.5099 27.8 28.2019 27.8V12.2C32.5099 12.2 36.0019 15.692 36.0019 20Z" fill="#34A853"/>
<path d="M28.2021 27.8C23.8941 27.8 20.4021 24.308 20.4021 20C20.4021 15.692 23.8941 12.2 28.2021 12.2V27.8Z" fill="#0D652D"/>
<path d="M34.2019 6.2C34.2019 9.5132 31.5163 12.2 28.2019 12.2V0.199997C31.5163 0.199997 34.2019 2.8868 34.2019 6.2Z" fill="#1A73E8"/>
<path d="M28.2019 12.2C24.8875 12.2 22.2019 9.5132 22.2019 6.2C22.2019 2.8868 24.8875 0.199997 28.2019 0.199997V12.2Z" fill="#174EA6"/>
<path d="M0.601807 5.6C0.601807 2.618 3.01981 0.199997 6.00181 0.199997C8.98381 0.199997 11.4018 2.618 11.4018 5.6C11.4018 8.582 8.98381 11 6.00181 11C3.01981 11 0.601807 8.582 0.601807 5.6Z" fill="#EA4335"/>
</g>
<defs>
<clipPath id="clip0_202_9997">
<rect width="37" height="28" fill="white"/>
</clipPath>
</defs>
</svg>
