<svg width="20" height="41" viewBox="0 0 20 41" fill="none" xmlns="http://www.w3.org/2000/svg">
<g clip-path="url(#clip0_202_13125)">
<path d="M19.9322 31.3609V35.5562C19.9322 38.0106 17.9483 40.0014 15.5007 40.0014C13.0531 40.0014 11.0691 38.0128 11.0691 35.5562V24.5727L19.9322 31.3609Z" fill="#34A853"/>
<path d="M19.9322 4.44653V31.361L11.0691 24.5727V13.8688L18.321 7.87362C19.3845 6.9964 19.9322 5.72601 19.9322 4.44653Z" fill="url(#paint0_linear_202_13125)"/>
<path d="M19.93 4.29214C19.9322 4.34214 19.9322 4.39214 19.9322 4.44441C19.9322 5.72388 19.3845 6.99427 18.321 7.87149L11.0691 13.8666V4.44668C11.0691 2.99221 11.7668 1.69683 12.8508 0.885508C12.9281 0.82642 13.0053 0.771878 13.0894 0.719608C13.1281 0.694609 13.1644 0.669611 13.2031 0.646885C13.2735 0.601432 13.3485 0.560526 13.4167 0.524164L13.6121 0.426442L13.7758 0.351446C13.8417 0.324175 13.9076 0.296903 13.978 0.271905C14.0439 0.246906 14.1144 0.22418 14.1826 0.201454C14.3098 0.16282 14.4394 0.126458 14.5734 0.0991868C14.6121 0.0900964 14.653 0.0832786 14.6962 0.0741882C14.7257 0.069643 14.7553 0.0650978 14.7848 0.0605526C14.8371 0.0514621 14.8893 0.0446443 14.9416 0.0378265C15.003 0.0287361 15.0643 0.0219183 15.128 0.0173731C15.178 0.0128279 15.228 0.00828266 15.2779 0.00601005C15.3507 0.00373745 15.4257 0.00146484 15.5007 0.00146484H15.5029C15.6643 0.00146484 15.8211 0.0105553 15.9802 0.0264635C16.0575 0.0355539 16.137 0.0469169 16.2188 0.0605526C16.2961 0.0719156 16.3733 0.0878238 16.4552 0.106005C16.5324 0.121913 16.6097 0.142366 16.687 0.165092C16.7506 0.181001 16.8165 0.201454 16.8801 0.22418C17.0051 0.265087 17.1301 0.310539 17.2483 0.362809C17.3074 0.387808 17.3665 0.415079 17.4256 0.44235C17.5006 0.478712 17.5755 0.517346 17.6483 0.55598C17.7574 0.617341 17.8619 0.680974 17.9664 0.751424C17.9778 0.760515 17.9892 0.767333 18.0005 0.77415C18.1119 0.851419 18.2187 0.935505 18.3255 1.02186C18.3778 1.06732 18.43 1.1105 18.4823 1.15822L18.4869 1.16277C18.5369 1.21049 18.5869 1.25822 18.6369 1.30821C18.6869 1.35821 18.7368 1.41048 18.7846 1.46048C18.8823 1.56502 18.9709 1.67637 19.055 1.79C19.1141 1.86727 19.1686 1.94909 19.2209 2.02863C19.2459 2.06726 19.2709 2.10362 19.2936 2.14226C19.3391 2.21271 19.38 2.2877 19.4164 2.35588C19.4436 2.41043 19.4868 2.49906 19.5141 2.55133C19.5391 2.60587 19.5641 2.66041 19.5868 2.71495C19.6141 2.78086 19.6413 2.84904 19.6663 2.91722C19.6913 2.98312 19.7141 3.05357 19.7345 3.12175C19.7641 3.21947 19.7891 3.31719 19.8118 3.41264C19.8254 3.4581 19.8345 3.50128 19.8413 3.54673C19.855 3.61036 19.8663 3.67172 19.8777 3.73308C19.8868 3.78308 19.8913 3.83308 19.8981 3.88307C19.9072 3.94443 19.9141 4.00579 19.9186 4.06943C19.9231 4.11942 19.9277 4.16942 19.93 4.21942C19.9277 4.24214 19.93 4.26714 19.93 4.29214Z" fill="#EA4335"/>
<path d="M12.6782 1.01443C12.7328 0.968974 12.7896 0.925795 12.8464 0.884888C11.7669 1.69621 11.0692 2.98932 11.0692 4.44606V13.8683L7.30578 16.984C6.4831 17.6681 5.4877 17.9976 4.49457 17.9976C3.21964 17.9976 1.9538 17.4476 1.08112 16.3818C-0.471073 14.4864 -0.202906 11.6866 1.68108 10.1276L12.6782 1.01443Z" fill="#FBBC04"/>
</g>
<defs>
<linearGradient id="paint0_linear_202_13125" x1="15.5007" y1="31.5701" x2="15.5007" y2="4.43585" gradientUnits="userSpaceOnUse">
<stop stop-color="#1A73E8"/>
<stop offset="1" stop-color="#4285F4"/>
</linearGradient>
<clipPath id="clip0_202_13125">
<rect width="20" height="41" fill="white"/>
</clipPath>
</defs>
</svg>
