<svg width="37" height="30" viewBox="0 0 37 30" fill="none" xmlns="http://www.w3.org/2000/svg">
<g clip-path="url(#clip0_202_10164)">
<path d="M14.6938 3.95316H2.46949C1.12369 3.95316 0.00219727 5.07465 0.00219727 6.42045V19.2055C0.00219727 18.869 0.114347 18.5326 0.338646 18.3083L14.6938 3.95316Z" fill="#34A853"/>
<path d="M33.5349 29.2991H2.46949C1.12369 29.2991 0.00219727 28.1776 0.00219727 26.8318V19.2056C0.00219727 18.8692 0.114347 18.5327 0.338646 18.3084L17.6097 1.03738C17.834 0.813077 18.1704 0.700928 18.5069 0.700928H33.5349C34.8807 0.700928 36.0022 1.82242 36.0022 3.16822V26.9439C36.0022 28.2897 34.8807 29.2991 33.5349 29.2991Z" fill="#4285F4"/>
<path d="M17.6097 1.03738L0.338646 18.3084C0.114347 18.5327 0.00219727 18.8692 0.00219727 19.2056V19.3178C0.00219727 18.9813 0.226496 18.757 0.562945 18.757H15.4788C16.8246 18.757 17.9461 17.6355 17.9461 16.2897V1.37382C17.9461 1.03738 18.1704 0.813077 18.5069 0.700928H18.3947C18.1704 0.700928 17.834 0.813077 17.6097 1.03738Z" fill="#EA4335"/>
<path d="M0.00219727 19.3179C0.00219727 18.8693 0.338646 18.4207 0.787244 18.3085L11.6657 14.8319C12.7872 14.4954 13.6844 13.5982 14.0209 12.4767L17.4975 1.59823C17.6097 1.14964 18.0583 0.813187 18.619 0.813187H18.5069C18.1704 0.813187 17.834 0.925336 17.6097 1.14964L0.338646 18.3085C0.114347 18.5328 0.00219727 18.8693 0.00219727 19.3179H0.00219727Z" fill="#FBBC04"/>
</g>
<defs>
<clipPath id="clip0_202_10164">
<rect width="37" height="30" fill="white"/>
</clipPath>
</defs>
</svg>
