<svg width="38" height="33" viewBox="0 0 38 33" fill="none" xmlns="http://www.w3.org/2000/svg">
<g clip-path="url(#clip0_202_14352)">
<path d="M34.1481 6.19463C30.4404 4.05436 25.6993 5.32615 23.5567 9.03385L18.1556 18.39C16.5928 21.0918 18.6047 22.0359 20.8481 23.381L26.0452 26.3806C27.8052 27.3957 30.0531 26.7931 31.0683 25.0355L36.6206 15.4203C38.4859 12.1892 37.3791 8.05997 34.1481 6.19463Z" fill="#EA4335"/>
<path d="M28.0367 10.0671L22.8396 7.06756C19.9706 5.47496 18.3459 5.36955 17.168 7.24172L9.50299 20.5165C7.36268 24.2219 8.63678 28.9607 12.3422 31.0964C15.5732 32.9617 19.7025 31.8549 21.5678 28.6239L29.3796 15.0924C30.3993 13.3326 29.7966 11.0823 28.0367 10.0671Z" fill="#FBBC04"/>
<path d="M29.0371 3.2431L25.3867 1.13491C21.3491 -1.19557 16.1863 0.186216 13.8559 4.22386L6.90567 16.2612C5.87907 18.0371 6.48862 20.3103 8.26457 21.3346L12.3526 23.6949C14.3714 24.8613 16.9516 24.1692 18.1181 22.1504L26.0581 8.39903C27.7035 5.55065 31.3447 4.57447 34.193 6.21978L29.0371 3.2431Z" fill="#34A853"/>
<path d="M14.8432 7.66792L10.8972 5.39474C9.13726 4.38189 6.88932 4.98226 5.87418 6.73757L1.13991 14.9183C-1.19056 18.9445 0.191221 24.0958 4.22887 26.4194L7.23305 28.1495L10.8765 30.2485L12.4577 31.1582C9.65059 29.2792 8.75919 25.5142 10.4755 22.549L11.7015 20.4317L16.1906 12.6749C17.2034 10.9242 16.6008 8.68077 14.8432 7.66792Z" fill="#4285F4"/>
</g>
<defs>
<clipPath id="clip0_202_14352">
<rect width="38" height="33" fill="white"/>
</clipPath>
</defs>
</svg>
