<svg width="32" height="36" viewBox="0 0 32 36" fill="none" xmlns="http://www.w3.org/2000/svg">
<g clip-path="url(#clip0_202_10338)">
<path d="M12.4167 16.2397H0.439564C0.439564 16.2397 -0.191275 24.0876 6.69502 30.5813C12.9681 36.4927 20.4985 35.9898 20.4985 35.9898V24.3391C16.5414 24.3391 12.4167 21.0481 12.4167 16.2397Z" fill="#F4B500"/>
<path d="M19.3207 9.31364V0.00545418C19.3207 0.00545418 12.6858 -0.356286 7.56852 5.03893C3.5585 9.20777 3.20117 14.4662 3.20117 14.4662C3.20117 14.4662 10.6301 15.8558 12.4123 16.2396C12.3638 12.3134 15.4386 9.31364 19.3207 9.31364Z" fill="#4481F6"/>
<path d="M3.20554 14.4662C3.20554 14.4662 3.04673 15.4235 3.13937 16.2396H12.4167L3.20554 14.4662Z" fill="#3566C5"/>
<path d="M19.3207 9.31362L21.1073 2.88171C21.1073 2.88171 19.9515 2.73172 19.3207 2.8023V9.31362Z" fill="#AF362B"/>
<path d="M19.3207 9.31363C19.3207 9.31363 25.0512 9.19452 25.3159 15.3573H31.5801C31.5801 15.3573 32.1448 5.29478 21.1073 2.88171C20.6662 4.48307 19.3207 9.31363 19.3207 9.31363Z" fill="#DB4533"/>
<path d="M20.5029 24.3391L22.6601 19.5438C22.6601 19.5438 25.2055 18.3351 25.3202 15.3529C26.1452 15.7147 28.1303 16.5352 29.0391 16.9367C28.8406 18.4718 26.7893 24.1626 20.5029 24.3391Z" fill="#CCCCCC"/>
<path d="M22.6601 19.5438C22.6601 19.5438 21.7558 20.1614 20.5029 20.0556V24.3391L22.6601 19.5438ZM25.3158 15.3529H29.2553C29.2553 15.3529 29.3479 15.9264 29.0347 16.9367C28.2098 16.5793 25.3158 15.3529 25.3158 15.3529Z" fill="#B7B7B7"/>
</g>
<defs>
<clipPath id="clip0_202_10338">
<rect width="32" height="36.0004" fill="white"/>
</clipPath>
</defs>
</svg>
