<svg width="30" height="41" viewBox="0 0 30 41" fill="none" xmlns="http://www.w3.org/2000/svg">
<g clip-path="url(#clip0_202_11222)">
<path d="M3.33763 0.00177002H19.4487L29.4487 10.0018V37.224C29.4487 38.7581 28.205 40.0018 26.6709 40.0018H3.33763C1.80349 40.0018 0.559814 38.7581 0.559814 37.224V2.77958C0.559814 1.24544 1.80349 0.00177002 3.33763 0.00177002Z" fill="#DB4437"/>
<path d="M0.559692 36.6683C0.559692 38.2024 1.80336 39.4461 3.3375 39.4461H26.6708C28.2049 39.4461 29.4486 38.2024 29.4486 36.6683V37.2238C29.4486 38.758 28.2049 40.0016 26.6708 40.0016H3.3375C1.80336 40.0016 0.559692 38.758 0.559692 37.2238V36.6683Z" fill="#3E2723" fill-opacity="0.2"/>
<path d="M3.33758 0.00177002H19.4487V0.557317H3.33758C1.80344 0.557317 0.559692 1.80099 0.559692 3.33513V2.77958C0.559771 1.24544 1.80344 0.00177002 3.33758 0.00177002Z" fill="white" fill-opacity="0.2"/>
<path d="M20.004 8.89044L29.4485 18.3349V10.0015" fill="url(#paint0_linear_202_11222)"/>
<path d="M19.4484 0.00177002L29.4484 10.0018H22.2261C20.692 10.0018 19.4484 8.7581 19.4484 7.22396V0.00177002Z" fill="#EDA29B"/>
<path d="M17.2265 22.2237C17.2265 19.1556 14.7391 16.6683 11.671 16.6683C8.60286 16.6683 6.11536 19.1556 6.11536 22.2237C6.11536 25.2919 8.60278 27.7794 11.6709 27.7794C14.739 27.7794 17.2265 25.2919 17.2265 22.2237ZM11.671 25.5571C9.83286 25.5571 8.33762 24.0619 8.33762 22.2237C8.33762 20.3857 9.83286 18.8905 11.6709 18.8905C13.509 18.8905 15.0043 20.3857 15.0043 22.2237C15.0043 24.0619 13.509 25.5571 11.6709 25.5571H11.671ZM18.8932 24.446C18.3376 26.6682 16.6709 28.3349 15.0043 28.8905V33.3349H23.8932V24.446H18.8932Z" fill="#F1F1F1"/>
<path d="M3.33763 0.00177002H19.4487L29.4487 10.0018V37.224C29.4487 38.7581 28.205 40.0018 26.6709 40.0018H3.33763C1.80349 40.0018 0.559814 38.7581 0.559814 37.224V2.77958C0.559814 1.24544 1.80349 0.00177002 3.33763 0.00177002Z" fill="url(#paint1_radial_202_11222)" fill-opacity="0.1"/>
</g>
<defs>
<linearGradient id="paint0_linear_202_11222" x1="24.7267" y1="9.70134" x2="24.7267" y2="18.3362" gradientUnits="userSpaceOnUse">
<stop stop-color="#1A237E" stop-opacity="0.2"/>
<stop offset="1" stop-color="#1A237E" stop-opacity="0.02"/>
</linearGradient>
<radialGradient id="paint1_radial_202_11222" cx="0" cy="0" r="1" gradientUnits="userSpaceOnUse" gradientTransform="translate(1.47502 0.800592) scale(46.5828 46.5826)">
<stop stop-color="white"/>
<stop offset="1" stop-color="white" stop-opacity="0"/>
</radialGradient>
<clipPath id="clip0_202_11222">
<rect width="30" height="41" fill="white"/>
</clipPath>
</defs>
</svg>
