<svg width="28" height="37" viewBox="0 0 28 37" fill="none" xmlns="http://www.w3.org/2000/svg">
<g clip-path="url(#clip0_202_11173)">
<path d="M17.2744 0.00177002H3.36683C2.01683 0.00177002 0.912354 1.10553 0.912354 2.45553V33.548C0.912354 34.898 2.01611 36.0018 3.36611 36.0018H24.6356C25.9856 36.0018 27.0894 34.898 27.0894 33.548V9.81753L21.3589 5.72505L17.2744 0.00177002Z" fill="#F4B400"/>
<path d="M19.3206 16.3638H8.6891C8.01374 16.3638 7.45862 16.9189 7.45862 17.5942V28.2323C7.45862 28.9076 8.01374 29.4627 8.6891 29.4627H19.3271C20.0025 29.4627 20.5576 28.9076 20.5576 28.2323V17.5942C20.5511 16.9189 19.9953 16.3638 19.3206 16.3638ZM18.9124 25.7713H9.09734V20.0408H18.9131V25.7713H18.9124Z" fill="#F1F1F1"/>
<path d="M17.9987 9.1004L27.0973 18.1983V9.81752L17.9987 9.1004Z" fill="url(#paint0_linear_202_11173)"/>
<path d="M17.2761 0.00476074V7.36676C17.2761 8.72396 18.3727 9.82052 19.7299 9.82052H27.0919L17.2761 0.00476074Z" fill="#FADA80"/>
<path d="M17.2744 0.00177002V0.20553L26.8929 9.81753H27.0974L17.2744 0.00177002Z" fill="white" fill-opacity="0.1"/>
<path d="M3.36683 0.00177002C2.01683 0.00177002 0.912354 1.10553 0.912354 2.45553V2.65929C0.912354 1.30929 2.01611 0.20553 3.36611 0.20553H17.2736V0.00177002H3.36683Z" fill="white" fill-opacity="0.2"/>
<path d="M24.6428 35.798H3.36685C2.01685 35.798 0.913086 34.6942 0.913086 33.3442V33.548C0.913086 34.898 2.01685 36.0018 3.36685 36.0018H24.6364C25.9864 36.0018 27.0901 34.898 27.0901 33.548V33.3442C27.0973 34.6942 25.9928 35.798 24.6428 35.798Z" fill="#BF360C" fill-opacity="0.2"/>
<path d="M19.7353 9.81753C18.3781 9.81753 17.2815 8.72097 17.2815 7.36377V7.56753C17.2815 8.92473 18.3781 10.0213 19.7353 10.0213H27.0973V9.81753H19.7353Z" fill="#BF360C" fill-opacity="0.1"/>
<path d="M17.2744 0.00177002H3.36683C2.01683 0.00177002 0.912354 1.10553 0.912354 2.45553V33.548C0.912354 34.898 2.01611 36.0018 3.36611 36.0018H24.6356C25.9856 36.0018 27.0894 34.898 27.0894 33.548V9.81753L17.2744 0.00177002Z" fill="url(#paint1_radial_202_11173)"/>
</g>
<defs>
<linearGradient id="paint0_linear_202_11173" x1="22.5477" y1="9.88437" x2="22.5477" y2="18.2027" gradientUnits="userSpaceOnUse">
<stop stop-color="#BF360C" stop-opacity="0.2"/>
<stop offset="1" stop-color="#BF360C" stop-opacity="0.02"/>
</linearGradient>
<radialGradient id="paint1_radial_202_11173" cx="0" cy="0" r="1" gradientUnits="userSpaceOnUse" gradientTransform="translate(1.7437 0.977681) scale(42.218 42.218)">
<stop stop-color="white" stop-opacity="0.1"/>
<stop offset="1" stop-color="white" stop-opacity="0"/>
</radialGradient>
<clipPath id="clip0_202_11173">
<rect width="28" height="37" fill="white"/>
</clipPath>
</defs>
</svg>
