<svg width="41" height="30" viewBox="0 0 41 30" fill="none" xmlns="http://www.w3.org/2000/svg">
<g clip-path="url(#clip0_202_12889)">
<path d="M34.8335 0.409485H11.1822C9.12496 0.409485 7.45435 2.0801 7.45435 4.13737V7.86526H36.278C38.3353 7.86526 40.0059 9.53588 40.0059 11.5931V5.58184C40.0059 2.72209 37.6933 0.409485 34.8335 0.409485Z" fill="#4285F4"/>
<path d="M5.17821 0.409485C2.31846 0.409485 0.00585938 2.72209 0.00585938 5.58184V18.4142C0.00585938 20.4715 1.67648 22.1421 3.73375 22.1421H7.46163V4.13737C7.46163 2.0801 9.12495 0.409485 11.1822 0.409485H5.17821Z" fill="#34A853"/>
<path d="M5.17821 29.5906H28.8295C30.8868 29.5906 32.5574 27.92 32.5574 25.8627V22.1348H3.73375C1.67648 22.1348 0.00585938 20.4715 0.00585938 18.4142V24.4183C0.00585938 27.278 2.31846 29.5906 5.17821 29.5906Z" fill="#FBBC04"/>
<path d="M34.8335 29.5906C37.6933 29.5906 40.0059 27.278 40.0059 24.4182V11.5859C40.0059 9.52859 38.3352 7.85797 36.278 7.85797H32.5501V25.8627C32.5501 27.92 30.8795 29.5906 28.8222 29.5906H34.8335Z" fill="#EA4335"/>
</g>
<defs>
<clipPath id="clip0_202_12889">
<rect width="41" height="30" fill="white"/>
</clipPath>
</defs>
</svg>
