<svg width="37" height="36" viewBox="0 0 37 36" fill="none" xmlns="http://www.w3.org/2000/svg">
<g clip-path="url(#clip0_202_9635)">
<path fill-rule="evenodd" clip-rule="evenodd" d="M18.0022 33.1983L12.4399 36L9.50613 30.2956L3.43992 29.1246L4.25526 22.6965L0.00219727 18L4.25526 13.3035L3.43992 6.87537L9.50613 5.70438L12.4399 0L18.0022 2.80174L23.5645 0L26.4983 5.70438L32.5645 6.87537L31.7491 13.3035L36.0022 18L31.7491 22.6965L32.5645 29.1246L26.4983 30.2956L23.5645 36L18.0022 33.1983Z" fill="#4285F4"/>
<path fill-rule="evenodd" clip-rule="evenodd" d="M14.8961 20.0039L12.0256 17.1336L9.49438 19.6649L12.3648 22.5353L12.3604 22.5397L14.8916 25.0709L14.8961 25.0665L14.9004 25.0709L17.4317 22.5397L17.4273 22.5353L26.4625 13.5L23.9312 10.9688L14.8961 20.0039Z" fill="white"/>
</g>
<defs>
<clipPath id="clip0_202_9635">
<rect width="37" height="36" fill="white"/>
</clipPath>
</defs>
</svg>
