<svg width="37" height="32" viewBox="0 0 37 32" fill="none" xmlns="http://www.w3.org/2000/svg">
<g clip-path="url(#clip0_202_9925)">
<path d="M3.27246 3.72644H32.7253V28.2674H3.27246V3.72644Z" fill="#0F9D58"/>
<path d="M24.5428 16.8207C25.5625 16.8207 26.3832 15.9938 26.3832 14.9803C26.3832 13.9669 25.5563 13.1399 24.5428 13.1399C23.5293 13.1399 22.7024 13.9669 22.7024 14.9803C22.7024 15.9938 23.5293 16.8207 24.5428 16.8207ZM24.5428 18.0456C22.5718 18.0456 20.4516 19.0902 20.4516 20.3834V21.7264H28.634V20.3834C28.634 19.0902 26.5138 18.0456 24.5428 18.0456ZM11.4547 16.8207C12.4744 16.8207 13.2951 15.9938 13.2951 14.9803C13.2951 13.9669 12.4682 13.1399 11.4547 13.1399C10.4412 13.1399 9.6143 13.9669 9.6143 14.9803C9.6143 15.9938 10.4412 16.8207 11.4547 16.8207ZM11.4547 18.0456C9.48373 18.0456 7.36353 19.0902 7.36353 20.3834V21.7264H15.5459V20.3834C15.5459 19.0902 13.4257 18.0456 11.4547 18.0456Z" fill="#57BB8A"/>
<path d="M18.0021 15.1793C19.3575 15.1793 20.458 14.0788 20.4518 12.7233C20.4518 11.3679 19.3513 10.2674 17.9958 10.2736C16.6404 10.2736 15.5461 11.3741 15.5461 12.7295C15.5461 14.085 16.6466 15.1793 18.0021 15.1793ZM18.0021 16.8207C15.2414 16.8207 12.2756 18.2881 12.2756 20.0912V21.7264H23.7285V20.0912C23.7285 18.2819 20.7627 16.8207 18.0021 16.8207Z" fill="#F7F7F7"/>
<path d="M21.2725 26.6384H28.6341V28.2736H21.2725V26.6384Z" fill="#F1F1F1"/>
<path d="M33.546 0.455963H2.45791C1.10247 0.455963 0.00195312 1.55648 0.00195312 2.91192V29.0943C0.00195312 30.4435 1.10247 31.544 2.45791 31.544H33.546C34.9014 31.544 36.002 30.4435 36.002 29.0881V2.91192C35.9957 1.55648 34.9014 0.455963 33.546 0.455963ZM32.7253 28.2736H3.27242V3.72643H32.7253V28.2736Z" fill="#F4B400"/>
<path opacity="0.2" d="M33.546 0.455963H2.45791C1.10247 0.455963 0.00195312 1.55648 0.00195312 2.91192V3.1171C0.00195312 1.76166 1.10247 0.661144 2.45791 0.661144H33.546C34.9014 0.661144 36.002 1.76166 36.002 3.1171V2.91192C35.9957 1.55648 34.9014 0.455963 33.546 0.455963Z" fill="white"/>
<path opacity="0.2" d="M33.546 31.3389H2.45791C1.10247 31.3389 0.00195312 30.2383 0.00195312 28.8829V29.0881C0.00195312 30.4435 1.10247 31.544 2.45791 31.544H33.546C34.9014 31.544 36.002 30.4435 36.002 29.0881V28.8829C35.9957 30.2383 34.9014 31.3389 33.546 31.3389Z" fill="#BF360C"/>
<path d="M28.6217 28.2736H21.26L24.5305 31.544H31.8859L28.6217 28.2736Z" fill="url(#paint0_linear_202_9925)"/>
<path opacity="0.2" d="M3.27246 3.52126H32.7253V3.72644H3.27246V3.52126Z" fill="#263238"/>
<path opacity="0.2" d="M3.27246 28.2736H32.7253V28.4788H3.27246V28.2736Z" fill="white"/>
<path d="M33.546 0.455963H2.45791C1.10247 0.455963 0.00195312 1.55648 0.00195312 2.91192V29.0943C0.00195312 30.4435 1.10247 31.544 2.45791 31.544H33.546C34.9014 31.544 36.002 30.4435 36.002 29.0881V2.91192C35.9957 1.55648 34.9014 0.455963 33.546 0.455963Z" fill="url(#paint1_radial_202_9925)"/>
</g>
<defs>
<linearGradient id="paint0_linear_202_9925" x1="26.5749" y1="28.317" x2="26.5749" y2="31.5782" gradientUnits="userSpaceOnUse">
<stop stop-color="#BF360C" stop-opacity="0.2"/>
<stop offset="1" stop-color="#BF360C" stop-opacity="0.02"/>
</linearGradient>
<radialGradient id="paint1_radial_202_9925" cx="0" cy="0" r="1" gradientUnits="userSpaceOnUse" gradientTransform="translate(1.24201 1.18463) scale(42.9932 42.993)">
<stop stop-color="white" stop-opacity="0.1"/>
<stop offset="1" stop-color="white" stop-opacity="0"/>
</radialGradient>
<clipPath id="clip0_202_9925">
<rect width="37" height="32" fill="white"/>
</clipPath>
</defs>
</svg>
