<svg width="30" height="36" viewBox="0 0 30 36" fill="none" xmlns="http://www.w3.org/2000/svg">
<g clip-path="url(#clip0_202_9545)">
<path d="M18.1116 22.6512L29.0412 33.5808V11.2752L18.1116 22.2048V22.6512Z" fill="url(#paint0_linear_202_9545)"/>
<path d="M18.1116 22.2192L4.67638 8.784H3.13558C1.92598 8.784 0.946777 9.7056 0.946777 10.9152V18.6336C0.946777 19.4112 1.58038 20.0448 2.35798 20.0448C2.70358 20.0448 3.02038 19.9152 3.25078 19.7136L3.48118 19.5264C4.14358 18.9504 5.00758 18.6048 5.95798 18.6048C8.03158 18.6048 9.71638 20.304 9.71638 22.3776C9.71638 24.4512 8.03158 26.1216 5.95798 26.1216C5.00758 26.1216 4.14358 25.776 3.48118 25.2L3.25078 25.0128C2.99158 24.7968 2.67478 24.6816 2.35798 24.6816C1.58038 24.6816 0.946777 25.3152 0.946777 26.0928V33.7248C0.946777 34.9344 1.92598 35.9856 3.13558 35.9856H4.77718L18.126 22.6368V22.2192H18.1116Z" fill="url(#paint1_linear_202_9545)"/>
<path d="M29.0413 11.5056V10.9152C29.0413 9.7056 28.062 8.784 26.8524 8.784H18.7308C17.9532 8.784 17.3196 8.1792 17.3196 7.4016C17.3196 7.056 17.4492 6.7248 17.6508 6.48L17.838 6.2496C18.414 5.5872 18.7596 4.7232 18.7596 3.7728C18.7596 1.6848 17.0748 0 15.0012 0C12.9276 0 11.2284 1.6848 11.2284 3.7584C11.2284 4.7088 11.574 5.5728 12.15 6.2352L12.3372 6.4656C12.5388 6.7104 12.6684 7.0416 12.6684 7.3728C12.6684 8.1504 12.0348 8.7552 11.2572 8.7552H4.46045L18.1116 22.4064L29.0413 11.5056Z" fill="url(#paint2_linear_202_9545)"/>
<path d="M4.54688 36H26.8669C28.0765 36 29.0557 34.9488 29.0557 33.7392V33.3648L18.1261 22.4352L4.54688 36Z" fill="url(#paint3_linear_202_9545)"/>
<path opacity="0.25" d="M15.0012 0.216C17.046 0.216 18.702 1.8432 18.7596 3.8736C18.7596 3.8304 18.7596 3.8016 18.7596 3.7584C18.7596 1.6848 17.0748 0 15.0012 0C12.9276 0 11.2284 1.6848 11.2284 3.7584C11.2284 3.8016 11.2284 3.8304 11.2284 3.8736C11.3004 1.8576 12.9564 0.216 15.0012 0.216ZM3.13558 9H11.2572C12.0348 9 12.6684 8.3952 12.6684 7.6176C12.6684 7.5888 12.6684 7.56 12.6684 7.5456C12.5964 8.2512 11.9916 8.7984 11.2572 8.7984H3.13558C1.92598 8.784 0.946777 9.7056 0.946777 10.9152V11.1312C0.946777 9.9216 1.92598 9 3.13558 9ZM2.35798 24.9264C2.70358 24.9264 3.02038 25.056 3.25078 25.2576L3.48118 25.4448C4.14358 26.0208 5.00758 26.3664 5.95798 26.3664C8.03158 26.3664 9.71638 24.696 9.71638 22.6224C9.71638 22.5792 9.71638 22.5504 9.71638 22.5072C9.65878 24.5376 8.00278 26.1504 5.95798 26.1504C5.00758 26.1504 4.14358 25.8048 3.48118 25.2288L3.25078 25.0416C2.99158 24.8256 2.67478 24.7104 2.35798 24.7104C1.58038 24.7104 0.946777 25.344 0.946777 26.1216V26.3376C0.946777 25.56 1.58038 24.9264 2.35798 24.9264ZM26.8668 8.784H18.7452C18.0108 8.784 17.406 8.2512 17.334 7.5312C17.334 7.56 17.334 7.5888 17.334 7.6176C17.334 8.3952 17.9676 9 18.7452 9H26.8668C28.0764 9 29.0556 9.9216 29.0556 11.1312V10.9152C29.0412 9.7056 28.062 8.784 26.8668 8.784Z" fill="white"/>
<g opacity="0.12">
<path d="M12.3372 6.48002C12.5244 6.71042 12.6396 6.99842 12.654 7.31522C12.6972 6.94082 12.582 6.55202 12.3372 6.26402L12.15 6.03362C11.5884 5.40002 11.2572 4.57922 11.2284 3.67202V3.77282C11.2284 4.72322 11.574 5.58722 12.15 6.24962C12.1644 6.24962 12.3372 6.48002 12.3372 6.48002Z" fill="#231F20"/>
<path d="M17.6508 6.24962C17.4492 6.49442 17.3196 6.82562 17.3196 7.17122V7.31522C17.334 6.99842 17.4492 6.69602 17.6364 6.46562L17.8236 6.23522C18.3996 5.57282 18.7452 4.70882 18.7452 3.75842V3.65762C18.7164 4.56482 18.3852 5.38562 17.8236 6.01922L17.6508 6.24962Z" fill="#231F20"/>
<path d="M2.35798 20.0448C2.70358 20.0448 3.02038 19.9152 3.25078 19.7136L3.48118 19.5264C4.14358 18.9504 5.00758 18.6048 5.95798 18.6048C8.00278 18.6048 9.65878 20.2464 9.71638 22.2768V22.1616C9.71638 20.088 8.03158 18.3888 5.95798 18.3888C5.00758 18.3888 4.14358 18.7344 3.48118 19.3104L3.25078 19.4976C2.99158 19.7136 2.67478 19.8288 2.35798 19.8288C1.58038 19.8288 0.946777 19.1952 0.946777 18.4176V18.6336C0.946777 19.4112 1.58038 20.0448 2.35798 20.0448Z" fill="#231F20"/>
<path d="M26.8668 35.784H3.13558C1.92598 35.784 0.946777 34.7328 0.946777 33.5232V33.7392C0.946777 34.9488 1.92598 36 3.13558 36H26.8668C28.0764 36 29.0556 34.9488 29.0556 33.7392V33.5232C29.0412 34.7328 28.062 35.784 26.8668 35.784Z" fill="#231F20"/>
</g>
</g>
<defs>
<linearGradient id="paint0_linear_202_9545" x1="29.8737" y1="22.4368" x2="3.8494" y2="22.4368" gradientUnits="userSpaceOnUse">
<stop stop-color="#FFE000"/>
<stop offset="0.409" stop-color="#FFBD00"/>
<stop offset="0.775" stop-color="#FFA500"/>
<stop offset="1" stop-color="#FF9C00"/>
</linearGradient>
<linearGradient id="paint1_linear_202_9545" x1="17.1848" y1="8.69178" x2="-8.20895" y2="18.791" gradientUnits="userSpaceOnUse">
<stop stop-color="#00A0FF"/>
<stop offset="0.007" stop-color="#00A1FF"/>
<stop offset="0.26" stop-color="#00BEFF"/>
<stop offset="0.512" stop-color="#00D2FF"/>
<stop offset="0.76" stop-color="#00DFFF"/>
<stop offset="1" stop-color="#00E3FF"/>
</linearGradient>
<linearGradient id="paint2_linear_202_9545" x1="1.60726" y1="-5.73555" x2="13.1573" y2="8.13419" gradientUnits="userSpaceOnUse">
<stop stop-color="#32A071"/>
<stop offset="0.069" stop-color="#2DA771"/>
<stop offset="0.476" stop-color="#15CF74"/>
<stop offset="0.801" stop-color="#06E775"/>
<stop offset="1" stop-color="#00F076"/>
</linearGradient>
<linearGradient id="paint3_linear_202_9545" x1="23.6765" y1="28.4637" x2="13.1644" y2="62.7426" gradientUnits="userSpaceOnUse">
<stop stop-color="#FF3A44"/>
<stop offset="1" stop-color="#C31162"/>
</linearGradient>
<clipPath id="clip0_202_9545">
<rect width="30" height="36" fill="white"/>
</clipPath>
</defs>
</svg>
