<svg width="36" height="36" viewBox="0 0 36 36" fill="none" xmlns="http://www.w3.org/2000/svg">
<g clip-path="url(#clip0_202_15797)">
<path d="M18.9663 7.19884V15.8374C18.9663 16.3701 19.3982 16.8021 19.9309 16.8021H28.5695C28.5695 14.1529 27.9792 11.2734 26.2371 9.53126C24.495 7.78914 21.6154 7.19884 18.9663 7.19884Z" fill="#00832D"/>
<path d="M28.3823 35.8214C24.351 36.4837 19.4702 35.2887 14.791 32.4955L16.3603 28.9969L19.9165 27.3556L25.4884 30.5374L28.3823 35.8214Z" fill="#00832D"/>
<path d="M0.422091 7.86113C-0.240201 11.8925 0.940407 16.7733 3.74795 21.4525L7.34737 19.768L8.88792 16.3126L5.86441 11.3742L0.422091 7.86113Z" fill="#00832D"/>
<path d="M20.4061 0C19.6142 0 18.9663 0.647895 18.9663 1.43977V7.19883C24.2646 7.19883 28.5695 11.5037 28.5695 16.8021H34.3286C35.1205 16.8021 35.7684 16.1542 35.7684 15.3623C35.7684 6.88208 28.8863 0 20.4061 0Z" fill="#34A853"/>
<path d="M34.4006 32.5099C35.1637 31.7756 35.1925 30.5806 34.4726 29.8176L27.5329 22.4172C26.7698 21.6973 25.5892 21.7117 24.8549 22.446L19.9309 27.3556L28.3824 35.807C30.6716 35.4758 32.3849 34.4968 33.9399 32.9418L34.4006 32.5099Z" fill="#34A853"/>
<path d="M3.76238 21.4525C5.02937 23.5546 6.7139 25.671 8.62879 27.5859C10.5437 29.5008 12.7033 31.2141 14.8054 32.4811L19.9453 27.3556L8.88794 16.3125" fill="#34A853"/>
<path d="M12.5881 12.7275L13.38 11.9645C14.3159 11.0286 14.3159 9.48806 13.38 8.55221L6.85787 2.03007C5.92203 1.09422 4.38148 1.09422 3.44563 2.03007L3.21527 2.18844C1.70351 3.7002 0.796458 5.65828 0.422119 7.86112L8.88794 16.3125L12.5881 12.7275Z" fill="#34A853"/>
</g>
<defs>
<clipPath id="clip0_202_15797">
<rect width="36" height="36" fill="white"/>
</clipPath>
</defs>
</svg>
