<svg width="41" height="34" viewBox="0 0 41 34" fill="none" xmlns="http://www.w3.org/2000/svg">
<g clip-path="url(#clip0_202_13148)">
<path d="M26.6041 9.80136L30.0811 6.32433L30.3129 4.86027C23.9768 -0.901142 13.9047 -0.247861 8.19301 6.22339C6.60645 8.02074 5.42941 10.2615 4.80176 12.5754L6.04707 12.4L13.001 11.2532L13.5379 10.7042C16.6311 7.30699 21.8613 6.84995 25.4329 9.74042L26.6041 9.80136Z" fill="#EA4335"/>
<path d="M35.0343 12.4732C34.2351 9.53004 32.5943 6.88426 30.3129 4.86035L25.4329 9.74035C27.4935 11.4241 28.6674 13.9607 28.6171 16.6211V17.4874C31.0157 17.4874 32.9604 19.4319 32.9604 21.8305C32.9604 24.2293 31.0157 26.125 28.6171 26.125H19.9185L19.0645 27.0522V32.2616L19.9185 33.079H28.6171C34.8562 33.1276 39.9534 28.158 40.002 21.919C40.0313 18.1372 38.1668 14.5919 35.0343 12.4732Z" fill="#4285F4"/>
<path d="M11.232 33.0791H19.9184V26.125H11.232C10.613 26.1248 10.0137 25.9919 9.45086 25.7347L8.21852 26.1128L4.71711 29.5898L4.41211 30.7733C6.3757 32.2559 8.77149 33.0897 11.232 33.0791Z" fill="#34A853"/>
<path d="M11.2319 10.5213C4.99272 10.5584 -0.0347853 15.6466 0.00240224 21.8856C0.0231835 25.3697 1.65037 28.6494 4.41209 30.7733L9.45084 25.7347C7.26475 24.747 6.29334 22.1744 7.281 19.9884C8.2685 17.8025 10.8413 16.8311 13.0271 17.8186C13.9904 18.2538 14.7618 19.0253 15.1969 19.9884L20.2357 14.9498C18.0918 12.1472 14.7605 10.5086 11.2319 10.5213Z" fill="#FBBC05"/>
</g>
<defs>
<clipPath id="clip0_202_13148">
<rect width="41" height="34" fill="white"/>
</clipPath>
</defs>
</svg>
