<svg width="36" height="36" viewBox="0 0 36 36" fill="none" xmlns="http://www.w3.org/2000/svg">
<g clip-path="url(#clip0_202_10532)">
<path d="M27.6712 31.0427C25.2881 33.433 22.342 35.1969 19.0661 36.0004C10.6136 33.9298 4.33837 25.4514 4.33837 16.3625V7.70409L0.85083 4.22087L3.61552 1.45474L35.156 32.9967L32.3928 35.7614L27.6712 31.0427ZM16.9854 20.3554L15.7902 21.5506L11.5611 17.32L9.24569 19.6355L15.7902 26.18L19.3008 22.6694L16.9854 20.3554ZM24.7697 17.2019L32.0832 24.5125C33.1819 21.9754 33.7895 19.1977 33.7895 16.3625V6.54493L19.0661 0.000396729L11.1047 3.5369L22.4557 14.8851L26.5668 10.774L28.8822 13.0909L24.7697 17.2019Z" fill="#CCCCCC"/>
</g>
<defs>
<clipPath id="clip0_202_10532">
<rect width="36" height="36.0004" fill="white"/>
</clipPath>
</defs>
</svg>
