<svg width="32" height="33" viewBox="0 0 32 33" fill="none" xmlns="http://www.w3.org/2000/svg">
<g clip-path="url(#clip0_202_10503)">
<path d="M24.5976 25.12C24.6005 26.2576 24.9992 27.4209 24.9988 28.5586C24.9983 29.7133 24.5988 30.8424 24.6023 31.9971C18.8668 31.9963 13.1312 31.9971 7.39579 31.9967C7.39855 30.8615 6.8613 29.6937 6.86084 28.5586C6.8604 27.4015 7.39674 26.2771 7.39906 25.12C13.132 25.1218 18.8646 25.1205 24.5976 25.12Z" fill="#3BAB59"/>
<path d="M17.9612 6.15187C18.7579 5.35686 20.0298 4.93799 20.8173 4.13391C24.0806 7.41727 27.3577 10.6878 30.6287 13.9644C30.9234 14.2678 31.2827 14.547 31.3977 14.9751C31.5101 15.2537 31.4758 15.5573 31.4809 15.8501C31.4813 20.6476 31.4804 25.4446 31.4816 30.2416C31.554 31.1882 30.6516 32.0724 29.7091 31.9972C28.0067 31.9972 26.3047 31.9976 24.6023 31.9972C24.5954 29.7048 24.6036 27.4125 24.5977 25.1201C24.6018 22.5999 24.5995 20.0801 24.5986 17.5603C22.474 15.4391 20.3539 13.3129 18.2307 11.1907C17.49 10.4436 16.7377 9.70731 16.0039 8.95376C16.4063 8.5687 17.5449 6.56732 17.9612 6.15187Z" fill="#4586F7"/>
<path d="M7.39352 17.5696C7.40308 20.0861 7.39255 22.6033 7.39896 25.1201C7.39437 27.4125 7.40126 29.7044 7.39582 31.9968C5.60443 31.9959 3.81305 31.9973 2.02166 31.9959C1.27356 31.9019 0.614855 31.2721 0.519527 30.518C0.513599 28.4953 0.517712 26.4724 0.518196 24.4499C1.71185 23.2674 2.45655 21.7316 3.64609 20.5448C4.74804 19.4383 6.29665 18.6813 7.39352 17.5696Z" fill="#FDC00D"/>
<path d="M15.9099 0.00461613C16.058 0.0230042 16.234 -0.0353053 16.3656 0.0476829C16.7231 0.117364 17.0365 0.324109 17.2879 0.582147C18.3559 1.65253 19.4248 2.72194 20.4938 3.79135C20.601 3.90591 20.7261 4.00451 20.8173 4.13371C19.6182 5.35809 18.3966 6.55996 17.1888 7.77563C16.7928 8.16711 16.4062 8.56862 16.0039 8.95368C15.473 9.45379 14.9706 9.98317 14.4508 10.4948C12.0993 12.854 9.7396 15.2047 7.39354 17.5695C6.29667 18.6811 5.18649 19.7803 4.08442 20.8868C2.895 22.0736 1.71187 23.2672 0.518219 24.4497C0.514105 21.8568 0.518219 19.2636 0.517372 16.671C0.520154 16.1815 0.509508 15.6919 0.526445 15.2028C0.521485 15.1038 0.596126 15.0254 0.591529 14.9264C0.660847 14.81 0.722665 14.6889 0.790048 14.5716C0.959653 14.3461 1.17051 14.1573 1.36722 13.9561C5.81677 9.49734 10.2676 5.03956 14.7185 0.581663C14.9006 0.390524 15.109 0.216805 15.3626 0.130187C15.5404 0.070668 15.7164 -0.0159495 15.9099 0.00461613Z" fill="#EC5043"/>
</g>
<defs>
<clipPath id="clip0_202_10503">
<rect width="32" height="33" fill="white"/>
</clipPath>
</defs>
</svg>
