<svg width="40" height="42" viewBox="0 0 40 42" fill="none" xmlns="http://www.w3.org/2000/svg">
<g clip-path="url(#clip0_202_14190)">
<path d="M23.7904 23.7783C22.2972 25.2715 20.3541 26.0692 18.3905 26.1715C18.2677 26.1715 18.1246 26.1919 18.0018 26.1919C17.8791 26.1919 17.7359 26.1919 17.6132 26.1715C15.5064 26.1101 13.4201 25.5374 11.5383 24.4738C10.5361 23.9011 9.59519 23.2056 8.75657 22.3465C7.46796 21.0579 6.50661 19.5852 5.87254 18.0103C4.37938 14.3285 4.64529 10.1354 6.62934 6.63776C2.66124 8.86726 0.00219727 13.1217 0.00219727 17.9898C0.00219727 22.8579 2.66124 27.1124 6.62934 29.3623C8.53157 30.4464 10.7406 31.0805 13.0928 31.0805C14.8314 31.0805 16.4882 30.7327 18.0018 30.1191C20.7427 29.0146 23.0336 27.0101 24.4653 24.4533C25.4881 22.6533 26.1017 20.5875 26.163 18.3784C26.0812 20.3625 25.2835 22.2852 23.7904 23.7783Z" fill="#4FC3F7"/>
<path d="M27.2472 3.83553C22.1337 -1.278 13.8498 -1.278 8.73623 3.83553C7.87716 4.69461 7.18172 5.6355 6.609 6.6173C4.62495 10.115 4.3795 14.3081 5.87265 17.9898C6.50673 19.5648 7.46808 21.0579 8.75669 22.3261C9.61576 23.1851 10.5567 23.8806 11.5385 24.4533C13.4202 25.5169 15.5066 26.0896 17.6133 26.151C15.6497 26.0487 13.727 25.251 12.2134 23.7579C10.618 22.1829 9.8203 20.0761 9.8203 17.9898V17.9693C9.8203 15.7398 10.393 13.5103 11.5385 11.5058C12.1112 10.5036 12.8066 9.56269 13.6657 8.72407C14.9543 7.43546 16.427 6.47412 18.002 5.84004C21.6837 4.34689 25.8973 4.61279 29.3949 6.59684C28.8222 5.61504 28.1063 4.67415 27.2472 3.83553Z" fill="#4285F4"/>
<path opacity="0.2" d="M18.0017 5.65595C16.4268 6.29003 14.9336 7.25137 13.6654 8.53998C12.8064 9.39906 12.1109 10.3399 11.5382 11.3217C10.3928 13.3058 9.82007 15.5353 9.82007 17.7648V17.7853C9.82007 17.8057 9.82007 17.8466 9.82007 17.8671C9.84052 15.6785 10.4132 13.4694 11.5382 11.5058C12.1109 10.5036 12.8064 9.56269 13.6654 8.72407C14.9541 7.43546 16.4268 6.47411 18.0017 5.84004C21.6835 4.34688 25.897 4.61279 29.3947 6.59684C29.3333 6.49457 29.272 6.3923 29.2106 6.29003C25.7538 4.40825 21.6221 4.18325 18.0017 5.65595Z" fill="#1A237E"/>
<path opacity="0.2" d="M8.75649 22.1215C7.46788 20.8329 6.50654 19.3602 5.87246 17.7853C5.23838 16.2103 4.91111 14.5535 4.91111 12.8967C4.89066 14.6353 5.19747 16.3535 5.87246 17.9898C6.50654 19.5648 7.46788 21.0579 8.75649 22.3261C9.61557 23.1852 10.5565 23.8806 11.5383 24.4533C13.42 25.5169 15.5064 26.0896 17.6131 26.151C16.7541 26.1101 15.895 25.926 15.0768 25.6192C13.8496 25.3328 12.6632 24.8829 11.5383 24.2488C10.536 23.6965 9.59511 22.9806 8.75649 22.1215Z" fill="#1A237E"/>
<path d="M32.156 8.74452C31.2969 7.88545 30.356 7.19001 29.3742 6.61729C25.8766 4.63324 21.663 4.36733 17.9813 5.86049C16.4063 6.49457 14.9131 7.45591 13.645 8.74452C12.7859 9.60359 12.0905 10.5445 11.5178 11.5263C10.3928 13.5103 9.82007 15.7398 9.82007 17.9693C9.82007 15.883 10.6178 13.7967 12.2132 12.2013C13.7064 10.7081 15.6495 9.91041 17.6131 9.80814C17.879 9.78768 18.1449 9.78768 18.3904 9.80814C20.4971 9.8695 22.5835 10.4422 24.4652 11.5058C25.4675 12.0785 26.4084 12.774 27.247 13.6331C28.5356 14.9217 29.497 16.3944 30.131 17.9693C31.6242 21.6511 31.3583 25.8646 29.3742 29.3418C30.3765 28.7691 31.3174 28.0737 32.156 27.2146C37.2695 22.142 37.2695 13.8376 32.156 8.74452Z" fill="#FFC107"/>
<path opacity="0.2" d="M9.82007 18.1943C9.82007 20.2807 10.6178 22.3874 12.2132 23.9829C13.7064 25.476 15.6495 26.2737 17.6131 26.376C17.7358 26.376 17.879 26.3965 18.0017 26.3965C18.1244 26.3965 18.2676 26.3965 18.3904 26.376C20.3539 26.2737 22.2766 25.476 23.7902 23.9829C25.1607 22.6124 25.9379 20.8738 26.1425 19.0943C26.1629 18.8693 26.1834 18.6239 26.1834 18.3989C26.0811 20.3625 25.2834 22.2852 23.7902 23.7783C22.2971 25.2715 20.3539 26.0692 18.3904 26.1715C18.2676 26.1715 18.1244 26.1919 18.0017 26.1919C17.879 26.1919 17.7358 26.1919 17.6131 26.1715C15.6495 26.0692 13.7268 25.2715 12.2132 23.7783C10.6382 22.2034 9.86098 20.1579 9.82007 18.0921C9.82007 18.1125 9.82007 18.1534 9.82007 18.1943C9.82007 18.1943 9.82007 18.1739 9.82007 18.1943Z" fill="white"/>
<path opacity="0.2" d="M30.1515 17.7853C29.5174 16.2103 28.5561 14.7171 27.2674 13.449C26.4084 12.5899 25.4675 11.8945 24.4857 11.3218C22.6039 10.2581 20.5176 9.68542 18.4108 9.62406C18.1449 9.60361 17.879 9.60361 17.6335 9.62406C15.67 9.72633 13.7473 10.5036 12.2337 12.0172C10.6178 13.5922 9.82007 15.6785 9.82007 17.7648V17.7853C9.82007 17.8262 9.82007 17.8466 9.82007 17.8875C9.84052 15.8217 10.6382 13.7763 12.2132 12.2013C13.7064 10.7081 15.6495 9.91042 17.6131 9.80815C17.879 9.78769 18.1449 9.78769 18.3904 9.80815C20.4971 9.86951 22.5835 10.4422 24.4652 11.5058C25.4675 12.0786 26.4084 12.774 27.247 13.6331C28.5356 14.9217 29.497 16.3944 30.131 17.9693C30.7651 19.5443 31.0719 21.2011 31.0719 22.8579C31.1128 21.1397 30.806 19.4216 30.1515 17.7853Z" fill="#BF360C"/>
<path opacity="0.2" d="M32.1562 27.0305C31.3585 27.8282 30.4585 28.5032 29.5176 29.0555C29.4563 29.1577 29.4154 29.26 29.354 29.3623C30.3563 28.7896 31.2971 28.0941 32.1358 27.2351C34.713 24.6578 36.0016 21.2625 35.9607 17.8671C35.9811 21.2011 34.6925 24.5147 32.1562 27.0305Z" fill="#BF360C"/>
<g opacity="0.2">
<path opacity="0.2" d="M27.247 13.8581C28.5356 15.1467 29.497 16.6194 30.1311 18.1943C30.7651 19.7693 31.0719 21.4261 31.0719 23.0829C31.0924 21.3443 30.7856 19.6261 30.1311 17.9898C29.497 16.4148 28.5356 14.9217 27.247 13.6535C26.3879 12.7944 25.4471 12.099 24.4653 11.5263C22.5835 10.4627 20.4972 9.88996 18.3904 9.8286C19.2495 9.86951 20.1085 10.0536 20.9267 10.3604C22.1539 10.6468 23.3403 11.0968 24.4653 11.7308C25.4675 12.2831 26.4084 12.999 27.247 13.8581Z" fill="#1A237E"/>
</g>
<g opacity="0.2">
<path opacity="0.2" d="M32.1561 8.74453C31.297 7.88545 30.3561 7.19001 29.3743 6.6173C28.8016 5.61504 28.1062 4.67415 27.2471 3.83553C22.1336 -1.278 13.8497 -1.278 8.73612 3.83553C7.87704 4.69461 7.1816 5.6355 6.60888 6.6173C2.66124 8.86725 0.00219727 13.1217 0.00219727 17.9898C0.00219727 18.0307 0.00219727 18.0512 0.00219727 18.0921C0.0431055 13.3263 2.62033 9.17406 6.44525 6.92411C5.42254 8.8468 4.91119 10.974 4.91119 13.1013C4.9521 10.9331 5.50436 8.76498 6.60888 6.82184C7.1816 5.81958 7.87704 4.87869 8.73612 4.04007C13.8497 -1.07346 22.1336 -1.07346 27.2471 4.04007C28.0039 4.79688 28.6584 5.6355 29.1903 6.53548C25.7335 4.63324 21.6018 4.40825 17.9814 5.88095C16.4064 6.51502 14.9133 7.47637 13.6451 8.76498C12.786 9.62405 12.0906 10.5649 11.5179 11.5467C10.3929 13.5103 9.82018 15.7398 9.82018 17.9693C9.82018 17.7034 9.84064 17.4171 9.86109 17.1512C10.0043 15.2694 10.577 13.4081 11.5383 11.7104C12.111 10.7081 12.8065 9.76723 13.6656 8.92861C14.9542 7.64 16.4269 6.67866 18.0018 6.04458C21.6836 4.55143 25.8971 4.81733 29.3948 6.80138C30.397 7.3741 31.3379 8.06954 32.1766 8.92861C34.7129 11.4649 35.981 14.758 36.002 18.0921C36.0219 14.6967 34.7538 11.3217 32.1561 8.74453Z" fill="white"/>
</g>
<g filter="url(#filter0_d_202_14190)">
<path d="M30.1522 17.9898C29.5181 16.4148 28.5568 14.9217 27.2682 13.6535C26.4091 12.7944 25.4682 12.099 24.4864 11.5263C22.6046 10.4627 20.5183 9.88996 18.4115 9.8286C20.3751 9.93087 22.2978 10.7081 23.8114 12.2217C25.2841 13.6944 26.0818 15.6376 26.1841 17.5807C26.1841 17.7239 26.2045 17.8466 26.2045 17.9898C26.2045 18.133 26.2045 18.2557 26.1841 18.3989C26.1227 20.6079 25.5091 22.6738 24.4864 24.4738C23.0342 27.0101 20.7637 29.035 18.0229 30.1396C16.5093 30.7532 14.8525 31.1009 13.1139 31.1009C10.7617 31.1009 8.55263 30.4668 6.65039 29.3828C7.22311 30.385 7.91855 31.3259 8.77762 32.1645C13.8912 37.2781 22.1751 37.2781 27.2886 32.1645C28.1477 31.3054 28.8431 30.3646 29.4158 29.3828C31.3794 25.8851 31.6249 21.6715 30.1522 17.9898Z" fill="black"/>
</g>
<path d="M30.1517 17.9898C29.5176 16.4148 28.5563 14.9217 27.2677 13.6535C26.4086 12.7944 25.4677 12.099 24.4859 11.5263C22.6041 10.4627 20.5178 9.88996 18.411 9.8286C20.3746 9.93087 22.2973 10.7081 23.8109 12.2217C25.2836 13.6944 26.0813 15.6376 26.1836 17.5807C26.1836 17.7239 26.2041 17.8466 26.2041 17.9898C26.2041 18.133 26.2041 18.2557 26.1836 18.3989C26.1222 20.6079 25.5086 22.6738 24.4859 24.4738C23.0337 27.0101 20.7633 29.035 18.0224 30.1396C16.5088 30.7532 14.852 31.1009 13.1134 31.1009C10.7612 31.1009 8.55214 30.4668 6.6499 29.3828C7.22262 30.385 7.91806 31.3259 8.77713 32.1645C13.8907 37.2781 22.1746 37.2781 27.2881 32.1645C28.1472 31.3054 28.8426 30.3646 29.4154 29.3828C31.379 25.8851 31.6244 21.6715 30.1517 17.9898Z" fill="#3367D6"/>
<g opacity="0.2">
<path opacity="0.2" d="M18.0019 30.3237C20.7428 29.2191 23.0132 27.2146 24.4655 24.6579C25.4882 22.8579 26.1018 20.792 26.1632 18.583C26.1632 18.4398 26.1836 18.3171 26.1836 18.1739C26.1836 18.133 26.1836 18.1125 26.1836 18.0716C26.1836 18.1739 26.1836 18.2762 26.1836 18.3784C26.1222 20.5875 25.5086 22.6534 24.4859 24.4533C23.0337 26.9896 20.7633 29.0146 18.0224 30.1191C16.5088 30.7327 14.852 31.0805 13.1134 31.0805C10.7612 31.0805 8.55214 30.4464 6.6499 29.3623C6.71126 29.4646 6.77263 29.5669 6.83399 29.6691C8.69532 30.6918 10.843 31.285 13.1339 31.285C14.8316 31.285 16.4883 30.9373 18.0019 30.3237Z" fill="#1A237E"/>
</g>
<g opacity="0.2">
<path opacity="0.2" d="M6.79297 29.4646C8.6543 30.4873 10.802 31.0804 13.0928 31.0804C14.8314 31.0804 16.4882 30.7327 18.0018 30.1191C20.7427 29.0146 23.0336 27.0101 24.4653 24.4533C25.4881 22.6533 26.1017 20.5875 26.163 18.3784C26.163 18.542 26.1426 18.7057 26.1221 18.8693C25.9585 20.8125 25.3858 22.6329 24.4653 24.2488C23.0131 26.8055 20.7427 28.81 18.0018 29.9145C16.4882 30.5282 14.8314 30.8759 13.0928 30.8759C10.7406 30.8759 8.53157 30.2418 6.62934 29.1577C2.70214 26.9282 0.0431055 22.7147 0.00219727 17.8875C0.00219727 17.9284 0.00219727 17.9489 0.00219727 17.9898C0.00219727 22.8579 2.66124 27.1123 6.62934 29.3623" fill="#1A237E"/>
</g>
<path d="M27.3699 13.7762C28.5971 15.0239 29.5176 16.4762 30.1312 17.9898C31.6243 21.6715 31.3584 25.8851 29.3744 29.3623C30.3766 28.7896 31.3175 28.0941 32.1561 27.2351C33.7311 25.6601 34.8152 23.7988 35.4083 21.8147L27.3699 13.7762Z" fill="url(#paint0_linear_202_14190)"/>
<path opacity="0.2" d="M29.3743 29.1577C28.8016 30.16 28.1062 31.1009 27.2471 31.9395C22.1336 37.053 13.8497 37.053 8.73612 31.9395C7.97931 31.1827 7.32478 30.3441 6.79297 29.4646C6.73161 29.4237 6.67025 29.4032 6.60889 29.3623C7.1816 30.3645 7.87704 31.3054 8.73612 32.1441C13.8497 37.2576 22.1336 37.2576 27.2471 32.1441C28.1062 31.285 28.8016 30.3441 29.3743 29.3623C30.5198 27.3578 31.0925 25.1078 31.072 22.8783C31.0516 25.0465 30.4993 27.2146 29.3743 29.1577Z" fill="#1A237E"/>
<path d="M32.1561 8.74453C31.297 7.88545 30.3561 7.19001 29.3743 6.6173C28.8016 5.61504 28.1062 4.67415 27.2471 3.83553C22.1336 -1.278 13.8497 -1.278 8.73612 3.83553C7.87704 4.69461 7.1816 5.6355 6.60888 6.6173C2.66124 8.86725 0.00219727 13.1217 0.00219727 17.9898C0.00219727 22.8579 2.66124 27.1123 6.62934 29.3623C7.20205 30.3645 7.8975 31.3054 8.75657 32.1441C13.8701 37.2576 22.154 37.2576 27.2676 32.1441C28.1266 31.285 28.8221 30.3441 29.3948 29.3623C30.3971 28.7896 31.3379 28.0941 32.1766 27.2351C37.2696 22.142 37.2696 13.8376 32.1561 8.74453ZM26.1835 17.9898C26.1835 22.5102 22.5222 26.1715 18.0018 26.1715C13.4815 26.1715 9.82018 22.5102 9.82018 17.9898C9.82018 13.4694 13.4815 9.80814 18.0018 9.80814C22.5222 9.80814 26.1835 13.4694 26.1835 17.9898Z" fill="url(#paint1_radial_202_14190)" fill-opacity="0.1"/>
</g>
<defs>
<filter id="filter0_d_202_14190" x="2.65039" y="3.8286" width="36.4485" height="38.1711" filterUnits="userSpaceOnUse" color-interpolation-filters="sRGB">
<feFlood flood-opacity="0" result="BackgroundImageFix"/>
<feColorMatrix in="SourceAlpha" type="matrix" values="0 0 0 0 0 0 0 0 0 0 0 0 0 0 0 0 0 0 127 0" result="hardAlpha"/>
<feOffset dx="2"/>
<feGaussianBlur stdDeviation="3"/>
<feColorMatrix type="matrix" values="0 0 0 0 0.768627 0 0 0 0 0.489469 0 0 0 0 0.0235294 0 0 0 0.2 0"/>
<feBlend mode="normal" in2="BackgroundImageFix" result="effect1_dropShadow_202_14190"/>
<feBlend mode="normal" in="SourceGraphic" in2="effect1_dropShadow_202_14190" result="shape"/>
</filter>
<linearGradient id="paint0_linear_202_14190" x1="27.4875" y1="20.6744" x2="34.7587" y2="22.6085" gradientUnits="userSpaceOnUse">
<stop stop-color="#BF360C" stop-opacity="0.2"/>
<stop offset="1" stop-color="#BF360C" stop-opacity="0"/>
</linearGradient>
<radialGradient id="paint1_radial_202_14190" cx="0" cy="0" r="1" gradientUnits="userSpaceOnUse" gradientTransform="translate(4.6368 4.83098) scale(35.7298 35.7298)">
<stop stop-color="white"/>
<stop offset="1" stop-color="white" stop-opacity="0"/>
</radialGradient>
<clipPath id="clip0_202_14190">
<rect width="40" height="42" fill="white"/>
</clipPath>
</defs>
</svg>
