<svg width="28" height="37" viewBox="0 0 28 37" fill="none" xmlns="http://www.w3.org/2000/svg">
<g clip-path="url(#clip0_202_11071)">
<path d="M24.6417 36.0018H3.36897C2.01079 36.0018 0.914429 34.9054 0.914429 33.5472V2.45632C0.914429 1.09813 2.01079 0.00177002 3.36897 0.00177002H18.0962L27.0962 9.00177V33.5472C27.0962 34.9054 25.9999 36.0018 24.6417 36.0018Z" fill="#FFBA00"/>
<path d="M18.0962 0.00177002L27.0962 9.00177H18.0962V0.00177002Z" fill="#FF9500"/>
<path d="M16.869 24.1381V26.1836H11.1417V24.1381H16.869ZM13.9971 12.2746L14.0769 12.2752C16.9736 12.3221 19.3071 14.6848 19.3071 17.5927C19.3071 19.4908 18.313 21.1517 16.8199 22.0927H11.1744C9.67713 21.1517 8.68713 19.4908 8.68713 17.5927C8.68713 14.6554 11.068 12.2745 14.0053 12.2745L13.9971 12.2746Z" fill="white"/>
</g>
<defs>
<clipPath id="clip0_202_11071">
<rect width="28" height="37" fill="white"/>
</clipPath>
</defs>
</svg>
