<svg width="36" height="36" viewBox="0 0 36 36" fill="none" xmlns="http://www.w3.org/2000/svg">
<g clip-path="url(#clip0_202_10253)">
<path d="M12.415 21.7511C6.27975 13.6342 -0.0190735 19.8021 1.62517 25.4752C5.76094 34.5206 16.4464 38.5006 25.4918 34.3648C28.6096 32.9393 31.2558 30.6534 33.1193 27.7759C28.3768 32.2178 19.765 31.4754 12.415 21.7511Z" fill="#255FDB"/>
<path d="M17.8999 16.1619C9.4619 3.36383 0.00343353 10.1841 0.00343353 18.0025C2.03762e-05 20.5918 0.558203 23.1511 1.63949 25.5038C0.516747 20.205 6.60493 16.119 12.2739 23.7246C20.5053 34.768 28.5833 32.8252 33.103 27.8004C34.5545 25.5722 35.492 23.049 35.8475 20.4136V20.4484C33.9067 26.4691 25.3419 27.4487 17.8999 16.1619Z" fill="#4285F4"/>
<path d="M23.6834 10.4357C17.4173 0.0978496 9.47214 1.02835 4.09359 6.56846C1.4423 9.78834 -0.00401406 13.8315 0.00344669 18.0025C0.565846 10.4357 9.71755 5.16964 18.0001 18.0025C25.3624 29.4242 34.5345 26.4486 35.8393 20.4811V20.4238C35.9535 19.611 36.002 18.7904 35.9845 17.9698V17.1517C32.7962 19.434 28.6038 18.5526 23.6834 10.4357Z" fill="#91BFFF"/>
<path d="M23.7262 12.2763C29.4647 21.5016 34.4117 19.1416 35.9967 17.1681C35.9326 15.7891 35.7096 14.4221 35.332 13.0943C32.6571 13.1495 32.0333 12.7037 29.4013 8.69534C25.3786 2.53149 20.3109 -1.63024 11.4558 1.23286C8.58671 2.35817 6.05254 4.19755 4.09351 6.57664C10.1776 0.977228 17.6421 2.49672 23.7262 12.2763Z" fill="#C4E1FF"/>
<path d="M29.0087 9.48883C31.6325 13.5033 33.2297 13.7078 35.3321 13.0943C32.6062 3.51967 22.6347 -2.03235 13.06 0.693528C12.5171 0.848084 11.9818 1.02807 11.4558 1.23286C19.3662 -1.26214 24.9758 3.32292 29.0087 9.48883Z" fill="#F5F5F5"/>
<path d="M18.0001 35.9991C27.9394 35.9991 35.9967 27.9417 35.9967 18.0025C35.9967 8.06319 27.9394 0.0058136 18.0001 0.0058136C8.0608 0.0058136 0.00341797 8.06319 0.00341797 18.0025C0.00341797 27.9417 8.0608 35.9991 18.0001 35.9991Z" fill="url(#paint0_radial_202_10253)" fill-opacity="0.1"/>
<path d="M18.0001 0.210322C27.8995 0.210322 35.9405 8.20534 35.9967 18.1047V18.0025C35.9967 8.0632 27.9393 0.0058136 18.0001 0.0058136C8.06081 0.0058136 0.00341797 8.0632 0.00341797 18.0025V18.1047C0.0596506 8.20534 8.10068 0.210322 18.0001 0.210322Z" fill="white" fill-opacity="0.2"/>
<path d="M18.0001 35.7946C8.10068 35.7946 0.0596587 27.7996 0.00341797 17.9002V18.0025C0.00341797 27.9417 8.06079 35.9991 18.0001 35.9991C27.9394 35.9991 35.9967 27.9417 35.9967 18.0025V17.9002C35.9405 27.7996 27.8995 35.7946 18.0001 35.7946Z" fill="#1A237E" fill-opacity="0.2"/>
</g>
<defs>
<radialGradient id="paint0_radial_202_10253" cx="0" cy="0" r="1" gradientUnits="userSpaceOnUse" gradientTransform="translate(5.43913 5.44172) scale(35.7561)">
<stop stop-color="white"/>
<stop offset="1" stop-color="white" stop-opacity="0"/>
</radialGradient>
<clipPath id="clip0_202_10253">
<rect width="36" height="36" fill="white"/>
</clipPath>
</defs>
</svg>
