<svg width="32" height="32" viewBox="0 0 32 32" fill="none" xmlns="http://www.w3.org/2000/svg">
<g clip-path="url(#clip0_202_10556)">
<path d="M29.8688 32C31.0387 32 31.9972 31.0576 31.9972 29.9036V8.52008C31.9972 7.36612 31.0387 6.42372 29.8688 6.42372H9.09424L17.4316 32H29.8688Z" fill="#DBDBDB"/>
<path d="M29.8688 7.38536C30.1797 7.38536 30.4746 7.50716 30.6958 7.72513C30.9137 7.9399 31.0355 8.22198 31.0355 8.52008V29.9036C31.0355 30.2017 30.9169 30.4838 30.6958 30.6986C30.4746 30.9166 30.1797 31.0384 29.8688 31.0384H18.1304L10.4181 7.38536H29.8688ZM29.8688 6.42372H9.09424L17.4316 32H29.8688C31.0387 32 31.9972 31.0576 31.9972 29.9036V8.52008C31.9972 7.36612 31.0387 6.42372 29.8688 6.42372Z" fill="#DCDCDC"/>
<path d="M15.4634 25.9577L17.4315 32L22.9032 25.9577H15.4634Z" fill="#4352B8"/>
<path d="M30.0096 15.2611V14.0078H23.9673V11.982H22.0056V14.0078H18.1494V15.2611H25.8233C25.413 16.7068 24.5058 18.0723 23.6211 19.1333C22.0537 17.2774 22.0472 16.6747 22.0472 16.6747H20.4189C20.4189 16.6747 20.4862 17.5787 22.6851 20.1559C21.9703 20.8867 21.4286 21.3194 21.4286 21.3194L21.9286 22.8837C21.9286 22.8837 22.6851 22.233 23.6307 21.2297C24.5795 22.2586 25.804 23.4959 27.3875 24.9704L28.4165 23.9415C26.7208 22.4029 25.4771 21.1816 24.5635 20.2007C25.788 18.7519 27.0317 16.928 27.2946 15.2579H30.0064V15.2611H30.0096Z" fill="#607988"/>
<path d="M2.13184 0C0.961847 0 0.00341797 0.958429 0.00341797 2.13162V23.8325C0.00341797 25.0025 0.961847 25.9609 2.13184 25.9609H22.9064L14.569 0H2.13184Z" fill="#4285F4"/>
<path d="M17.1304 6.42372H29.8688C31.0388 6.42372 31.9972 7.36612 31.9972 8.52008V21.3483L17.1304 6.42372Z" fill="url(#paint0_linear_202_10556)"/>
<path d="M11.9085 13.8027C11.8283 14.7739 10.9981 16.2132 8.98829 16.2132C7.24773 16.2132 5.83734 14.7739 5.83734 13.0013C5.83734 11.2287 7.24773 9.78944 8.98829 9.78944C9.97878 9.78944 10.6391 10.219 11.0173 10.5684L12.338 9.299C11.4693 8.49764 10.3378 7.99759 8.98829 7.99759C6.2284 7.99759 3.98779 10.2382 3.98779 12.9981C3.98779 15.758 6.2284 17.9986 8.98829 17.9986C11.8796 17.9986 13.7901 15.9695 13.7901 13.1071C13.7901 12.6968 13.7388 12.3955 13.6715 12.0877H8.9915V13.7995L11.9085 13.8027Z" fill="#EEEEEE"/>
<path d="M29.8686 6.42372H16.6333L14.569 0H2.13184C0.961847 0 0.00341797 0.958429 0.00341797 2.13162V23.8325C0.00341797 25.0025 0.961847 25.9609 2.13184 25.9609H15.4633L17.4314 32H29.8686C31.0386 32 31.997 31.0576 31.997 29.9036V8.52008C31.997 7.36612 31.0386 6.42372 29.8686 6.42372Z" fill="url(#paint1_radial_202_10556)"/>
</g>
<defs>
<linearGradient id="paint0_linear_202_10556" x1="17.1304" y1="13.886" x2="31.9972" y2="13.886" gradientUnits="userSpaceOnUse">
<stop stop-color="white" stop-opacity="0.2"/>
<stop offset="1" stop-color="white" stop-opacity="0.02"/>
</linearGradient>
<radialGradient id="paint1_radial_202_10556" cx="0" cy="0" r="1" gradientUnits="userSpaceOnUse" gradientTransform="translate(2.09363 0.620768) scale(44.8209 44.8209)">
<stop stop-color="white" stop-opacity="0.1"/>
<stop offset="1" stop-color="white" stop-opacity="0"/>
</radialGradient>
<clipPath id="clip0_202_10556">
<rect width="32" height="32" fill="white"/>
</clipPath>
</defs>
</svg>
