<svg width="48" height="48" viewBox="0 0 48 48" fill="none" xmlns="http://www.w3.org/2000/svg">
<g clip-path="url(#clip0_202_12935)">
<path d="M35.3335 5.33334H12.6668C11.2523 5.33334 9.89579 5.89525 8.89559 6.89544C7.8954 7.89563 7.3335 9.25219 7.3335 10.6667C7.3335 12.0812 7.8954 13.4377 8.89559 14.4379C9.89579 15.4381 11.2523 16 12.6668 16H35.3335V5.33334Z" fill="#34A853"/>
<path d="M35.5333 16.0667C38.5893 16.0667 41.0667 13.5893 41.0667 10.5334C41.0667 7.47739 38.5893 5.00003 35.5333 5.00003C32.4774 5.00003 30 7.47739 30 10.5334C30 13.5893 32.4774 16.0667 35.5333 16.0667Z" fill="#188038"/>
<path opacity="0.2" d="M12.6668 5.33331H35.3335C36.0877 5.23826 36.8536 5.30555 37.5797 5.53068C38.3058 5.7558 38.9754 6.13355 39.5436 6.63861C40.1118 7.14367 40.5654 7.76435 40.8741 8.45907C41.1828 9.15378 41.3395 9.90646 41.3335 10.6666C41.3395 9.90646 41.1828 9.15378 40.8741 8.45907C40.5654 7.76435 40.1118 7.14367 39.5436 6.63861C38.9754 6.13355 38.3058 5.7558 37.5797 5.53068C36.8536 5.30555 36.0877 5.23826 35.3335 5.33331H12.6668C11.2523 5.33331 9.89579 5.89521 8.89559 6.89541C7.8954 7.8956 7.3335 9.25216 7.3335 10.6666C7.3335 9.25216 7.8954 7.8956 8.89559 6.89541C9.89579 5.89521 11.2523 5.33331 12.6668 5.33331Z" fill="white"/>
<path opacity="0.3" d="M35.3335 16H12.6668C11.2523 16 9.89579 15.4381 8.89559 14.4379C7.8954 13.4377 7.3335 12.0812 7.3335 10.6667C7.3335 12.0812 7.8954 13.4377 8.89559 14.4379C9.89579 15.4381 11.2523 16 12.6668 16H35.3335C36.0877 16.0951 36.8536 16.0278 37.5797 15.8027C38.3058 15.5775 38.9754 15.1998 39.5436 14.6947C40.1118 14.1897 40.5654 13.569 40.8741 12.8743C41.1828 12.1796 41.3395 11.4269 41.3335 10.6667C41.3395 11.4269 41.1828 12.1796 40.8741 12.8743C40.5654 13.569 40.1118 14.1897 39.5436 14.6947C38.9754 15.1998 38.3058 15.5775 37.5797 15.8027C36.8536 16.0278 36.0877 16.0951 35.3335 16Z" fill="#0D652D"/>
<path d="M35.5333 16.0667C38.5893 16.0667 41.0667 13.5893 41.0667 10.5334C41.0667 7.47739 38.5893 5.00003 35.5333 5.00003C32.4774 5.00003 30 7.47739 30 10.5334C30 13.5893 32.4774 16.0667 35.5333 16.0667Z" fill="#188038"/>
<path d="M21.3332 19.3333H12.6665V30H21.3332C22.7477 30 24.1042 29.4381 25.1044 28.4379C26.1046 27.4377 26.6665 26.0811 26.6665 24.6666C26.6665 23.2521 26.1046 21.8956 25.1044 20.8954C24.1042 19.8952 22.7477 19.3333 21.3332 19.3333V19.3333Z" fill="#FBBC04"/>
<path d="M7.3335 37.3333C7.3335 38.7478 7.8954 40.1044 8.89559 41.1046C9.89579 42.1048 11.2523 42.6667 12.6668 42.6667C14.0813 42.6667 15.4379 42.1048 16.4381 41.1046C17.4383 40.1044 18.0002 38.7478 18.0002 37.3333V24.6667H7.3335V37.3333Z" fill="#EA4335"/>
<path opacity="0.3" d="M47.9998 47.3333L18.6665 18.6667L8.6665 28.6667L27.9998 47.3333H47.9998Z" fill="url(#paint0_linear_202_12935)"/>
<path d="M21.3335 19.3333H12.6668C11.2523 19.3333 9.89579 19.8952 8.89559 20.8954C7.8954 21.8956 7.3335 23.2521 7.3335 24.6666C7.3335 26.0811 7.8954 27.4377 8.89559 28.4379C9.89579 29.4381 11.2523 30 12.6668 30H21.3335C22.748 30 24.1045 29.4381 25.1047 28.4379C26.1049 27.4377 26.6668 26.0811 26.6668 24.6666C26.6668 23.2521 26.1049 21.8956 25.1047 20.8954C24.1045 19.8952 22.748 19.3333 21.3335 19.3333V19.3333Z" fill="#FA7B17"/>
<path d="M12.6668 19.3333C11.2523 19.3333 9.89579 19.8952 8.89559 20.8954C7.8954 21.8956 7.3335 23.2521 7.3335 24.6666C7.3335 26.0811 7.8954 27.4377 8.89559 28.4379C9.89579 29.4381 11.2523 30 12.6668 30H18.0002V24.6666C18.0002 23.2521 17.4383 21.8956 16.4381 20.8954C15.4379 19.8952 14.0813 19.3333 12.6668 19.3333V19.3333Z" fill="#FA7B17"/>
<path d="M41.3333 24.6666C41.3333 23.1637 40.7363 21.7224 39.6736 20.6597C38.6109 19.597 37.1696 19 35.6667 19C34.1638 19 32.7224 19.597 31.6597 20.6597C30.597 21.7224 30 23.1637 30 24.6666V37.3333C30 38.8362 30.597 40.2775 31.6597 41.3402C32.7224 42.4029 34.1638 43 35.6667 43C37.1696 43 38.6109 42.4029 39.6736 41.3402C40.7363 40.2775 41.3333 38.8362 41.3333 37.3333V24.6666Z" fill="#4285F4"/>
<path opacity="0.2" d="M35.3333 5.33336C36.0876 5.23831 36.8534 5.30561 37.5795 5.53073C38.3057 5.75585 38.9753 6.13361 39.5434 6.63866C40.1116 7.14372 40.5653 7.76441 40.874 8.45912C41.1827 9.15383 41.3393 9.90651 41.3333 10.6667C41.3333 9.1638 40.7363 7.72247 39.6736 6.65976C38.6109 5.59705 37.1696 5.00003 35.6667 5.00003C34.1638 5.00003 32.7224 5.59705 31.6597 6.65976C30.597 7.72247 30 9.1638 30 10.6667C30 9.25221 30.5619 7.89565 31.5621 6.89546C32.5623 5.89527 33.9188 5.33336 35.3333 5.33336Z" fill="white"/>
<path opacity="0.3" d="M35.3333 16.0001C33.9188 16.0001 32.5623 15.4382 31.5621 14.438C30.5619 13.4378 30 12.0812 30 10.6667C30 12.1696 30.597 13.611 31.6597 14.6737C32.7224 15.7364 34.1638 16.3334 35.6667 16.3334C37.1696 16.3334 38.6109 15.7364 39.6736 14.6737C40.7363 13.611 41.3333 12.1696 41.3333 10.6667C41.3393 11.4269 41.1827 12.1796 40.874 12.8743C40.5653 13.569 40.1116 14.1897 39.5434 14.6948C38.9753 15.1998 38.3057 15.5776 37.5795 15.8027C36.8534 16.0278 36.0876 16.0951 35.3333 16.0001Z" fill="#0D652D"/>
<path opacity="0.2" d="M35.3333 19.3333C33.9188 19.3333 32.5623 19.8952 31.5621 20.8954C30.5619 21.8956 30 23.2521 30 24.6666C30 23.1637 30.597 21.7224 31.6597 20.6597C32.7224 19.597 34.1638 19 35.6667 19C37.1696 19 38.6109 19.597 39.6736 20.6597C40.7363 21.7224 41.3333 23.1637 41.3333 24.6666C41.3393 23.9064 41.1827 23.1538 40.874 22.4591C40.5653 21.7643 40.1116 21.1437 39.5434 20.6386C38.9753 20.1335 38.3057 19.7558 37.5795 19.5307C36.8534 19.3055 36.0876 19.2383 35.3333 19.3333Z" fill="white"/>
<path opacity="0.3" d="M35.3333 42.6666C33.9188 42.6666 32.5623 42.1047 31.5621 41.1045C30.5619 40.1043 30 38.7478 30 37.3333C30 38.8362 30.597 40.2775 31.6597 41.3402C32.7224 42.4029 34.1638 42.9999 35.6667 42.9999C37.1696 42.9999 38.6109 42.4029 39.6736 41.3402C40.7363 40.2775 41.3333 38.8362 41.3333 37.3333C41.3393 38.0935 41.1827 38.8461 40.874 39.5408C40.5653 40.2356 40.1116 40.8562 39.5434 41.3613C38.9753 41.8664 38.3057 42.2441 37.5795 42.4692C36.8534 42.6944 36.0876 42.7617 35.3333 42.6666Z" fill="#174EA6"/>
<path opacity="0.3" d="M12.6668 42.6666C11.2523 42.6666 9.89579 42.1047 8.89559 41.1045C7.8954 40.1043 7.3335 38.7478 7.3335 37.3333C7.3335 38.7478 7.8954 40.1043 8.89559 41.1045C9.89579 42.1047 11.2523 42.6666 12.6668 42.6666C14.0813 42.6666 15.4379 42.1047 16.4381 41.1045C17.4383 40.1043 18.0002 38.7478 18.0002 37.3333C18.0002 38.7478 17.4383 40.1043 16.4381 41.1045C15.4379 42.1047 14.0813 42.6666 12.6668 42.6666Z" fill="#A50E0E"/>
<path opacity="0.2" d="M12.6668 19.3333H21.3335C22.0877 19.2383 22.8536 19.3056 23.5797 19.5307C24.3058 19.7558 24.9754 20.1336 25.5436 20.6386C26.1118 21.1437 26.5654 21.7644 26.8741 22.4591C27.1828 23.1538 27.3395 23.9065 27.3335 24.6667C27.3395 23.9065 27.1828 23.1538 26.8741 22.4591C26.5654 21.7644 26.1118 21.1437 25.5436 20.6386C24.9754 20.1336 24.3058 19.7558 23.5797 19.5307C22.8536 19.3056 22.0877 19.2383 21.3335 19.3333H12.6668C11.2523 19.3333 9.89579 19.8952 8.89559 20.8954C7.8954 21.8956 7.3335 23.2522 7.3335 24.6667C7.3335 23.2522 7.8954 21.8956 8.89559 20.8954C9.89579 19.8952 11.2523 19.3333 12.6668 19.3333V19.3333Z" fill="white"/>
<path opacity="0.3" d="M21.3335 30H12.6668C11.2523 30 9.89579 29.4381 8.89559 28.4379C7.8954 27.4377 7.3335 26.0811 7.3335 24.6666C7.3335 26.0811 7.8954 27.4377 8.89559 28.4379C9.89579 29.4381 11.2523 30 12.6668 30H21.3335C22.0877 30.095 22.8536 30.0277 23.5797 29.8026C24.3058 29.5775 24.9754 29.1997 25.5436 28.6947C26.1118 28.1896 26.5654 27.5689 26.8741 26.8742C27.1828 26.1795 27.3395 25.4268 27.3335 24.6666C27.3395 25.4268 27.1828 26.1795 26.8741 26.8742C26.5654 27.5689 26.1118 28.1896 25.5436 28.6947C24.9754 29.1997 24.3058 29.5775 23.5797 29.8026C22.8536 30.0277 22.0877 30.095 21.3335 30V30Z" fill="#E37400"/>
<path d="M7.3335 10.6667C7.3335 9.25219 7.8954 7.89563 8.89559 6.89544C9.89579 5.89525 11.2523 5.33334 12.6668 5.33334H35.3335C36.748 5.33334 38.1045 5.89525 39.1047 6.89544C40.1049 7.89563 40.6668 9.25219 40.6668 10.6667C40.6668 12.0812 40.1049 13.4377 39.1047 14.4379C38.1045 15.4381 36.748 16 35.3335 16H12.6668C11.2523 16 9.89579 15.4381 8.89559 14.4379C7.8954 13.4377 7.3335 12.0812 7.3335 10.6667ZM21.3335 19.3333H12.6668C11.2523 19.3333 9.89579 19.8952 8.89559 20.8954C7.8954 21.8956 7.3335 23.2522 7.3335 24.6667V37.3333C7.3335 38.7478 7.8954 40.1044 8.89559 41.1046C9.89579 42.1048 11.2523 42.6667 12.6668 42.6667C14.0813 42.6667 15.4379 42.1048 16.4381 41.1046C17.4383 40.1044 18.0002 38.7478 18.0002 37.3333V30H21.3335C22.748 30 24.1045 29.4381 25.1047 28.4379C26.1049 27.4377 26.6668 26.0812 26.6668 24.6667C26.6668 23.2522 26.1049 21.8956 25.1047 20.8954C24.1045 19.8952 22.748 19.3333 21.3335 19.3333ZM35.3335 19.3333C33.919 19.3333 32.5625 19.8952 31.5623 20.8954C30.5621 21.8956 30.0002 23.2522 30.0002 24.6667V37.3333C30.0002 38.8362 30.5972 40.2776 31.6599 41.3403C32.7226 42.403 34.1639 43 35.6668 43C37.1697 43 38.6111 42.403 39.6738 41.3403C40.7365 40.2776 41.3335 38.8362 41.3335 37.3333V24.6667C41.3395 23.9065 41.1828 23.1538 40.8741 22.4591C40.5654 21.7644 40.1118 21.1437 39.5436 20.6386C38.9754 20.1336 38.3058 19.7558 37.5797 19.5307C36.8536 19.3056 36.0877 19.2383 35.3335 19.3333Z" fill="url(#paint1_radial_202_12935)"/>
</g>
<defs>
<linearGradient id="paint0_linear_202_12935" x1="13.7332" y1="23.7333" x2="37.8665" y2="47.8667" gradientUnits="userSpaceOnUse">
<stop stop-color="#A50E0E" stop-opacity="0.3"/>
<stop offset="0.1" stop-color="#910C0C" stop-opacity="0.3"/>
<stop offset="0.4" stop-color="#410606" stop-opacity="0.1"/>
<stop offset="0.7" stop-color="#110101" stop-opacity="0.1"/>
<stop offset="1" stop-opacity="0"/>
</linearGradient>
<radialGradient id="paint1_radial_202_12935" cx="0" cy="0" r="1" gradientUnits="userSpaceOnUse" gradientTransform="translate(25.1202 23.9333) scale(26.7 26.7)">
<stop stop-color="white" stop-opacity="0.1"/>
<stop offset="0.1" stop-color="white" stop-opacity="0.1"/>
<stop offset="0.6" stop-color="white" stop-opacity="0"/>
<stop offset="1" stop-color="white" stop-opacity="0"/>
</radialGradient>
<clipPath id="clip0_202_12935">
<rect width="48" height="48" fill="white"/>
</clipPath>
</defs>
</svg>
