<svg width="28" height="37" viewBox="0 0 28 37" fill="none" xmlns="http://www.w3.org/2000/svg">
<g clip-path="url(#clip0_202_11124)">
<path d="M17.276 0.00177002H3.36614C2.05867 0.00177002 0.912476 1.14652 0.912476 2.45687V33.5467C0.912476 34.8556 2.05723 36.0018 3.36758 36.0018H24.6398C25.9488 36.0018 27.0949 34.857 27.0949 33.5467V9.8193L21.3683 5.72842L17.276 0.00177002Z" fill="#4285F4"/>
<path d="M7.45703 26.1828H20.5475V24.547H7.45847L7.45703 26.1828ZM7.45703 29.4558H17.2746V27.82H7.45703V29.4558ZM7.45703 18.001V19.6368H20.5475V18.001H7.45703ZM7.45703 22.9098H20.5475V21.274H7.45847L7.45703 22.9098Z" fill="#F1F1F1"/>
<path d="M17.276 0.00177002V7.36563C17.276 8.67454 18.4208 9.8193 19.7297 9.8193H27.0935L17.276 0.00177002Z" fill="#A1C2FA"/>
</g>
<defs>
<clipPath id="clip0_202_11124">
<rect width="28" height="37" fill="white"/>
</clipPath>
</defs>
</svg>
