<svg width="30" height="40" viewBox="0 0 30 40" fill="none" xmlns="http://www.w3.org/2000/svg">
<g clip-path="url(#clip0_202_9665)">
<path fill-rule="evenodd" clip-rule="evenodd" d="M3.2587 0C1.76457 0 0.553223 1.21079 0.553223 2.71532V40L12.2923 34.582L24.0312 40V2.71532C24.0312 1.21079 25.2426 0 26.7438 0H3.2587Z" fill="#FFC517"/>
<path fill-rule="evenodd" clip-rule="evenodd" d="M29.4492 2.71532C29.4492 1.21571 28.2444 0 26.7437 0C25.2425 0 24.0312 1.21079 24.0312 2.71532V31.7937L29.4492 34.5026V2.71532Z" fill="#EEA90F"/>
<path fill-rule="evenodd" clip-rule="evenodd" d="M17.5843 17.9779H12.4182V20.0712H15.3918C15.1147 21.401 13.9555 22.1645 12.4182 22.1645C10.6039 22.1645 9.14228 20.7361 9.14228 18.9629C9.14228 17.1898 10.6039 15.7613 12.4182 15.7613C13.1994 15.7613 13.9051 16.0323 14.4595 16.4756L16.0722 14.8994C15.0894 14.0621 13.8294 13.545 12.4182 13.545C9.34387 13.545 6.87427 15.9585 6.87427 18.9629C6.87427 21.9675 9.34387 24.381 12.4182 24.381C15.1902 24.381 17.7103 22.4108 17.7103 18.9629C17.7103 18.6428 17.6598 18.298 17.5843 17.9779Z" fill="white"/>
</g>
<defs>
<clipPath id="clip0_202_9665">
<rect width="30" height="40" fill="white"/>
</clipPath>
</defs>
</svg>
