<svg width="36" height="32" viewBox="0 0 36 32" fill="none" xmlns="http://www.w3.org/2000/svg">
<g clip-path="url(#clip0_202_11566)">
<path d="M22.2823 29.8984L35.4272 6.63703C36.6062 4.58001 35.908 1.95856 33.8635 0.760018C31.8413 -0.419008 29.2464 0.266667 28.0687 2.28885C28.059 2.30557 28.0492 2.3223 28.0408 2.33763L14.79 25.5405L22.2823 29.8984Z" fill="#FCC934"/>
<path d="M8.2424 16.9723L20.8159 23.9851C22.8116 25.0415 23.5739 27.5152 22.5175 29.5109C22.4855 29.5709 22.452 29.6308 22.4172 29.6893C21.1713 31.7227 18.5456 32.4181 16.4566 31.2683L3.85938 24.2416L8.2424 16.9723Z" fill="#FBBC04"/>
<path d="M9.04051 23.6025C10.7048 21.9382 10.7048 19.2398 9.04051 17.5755C7.37619 15.9112 4.67781 15.9112 3.0135 17.5755C1.34919 19.2398 1.34919 21.9382 3.0135 23.6025C4.67781 25.2668 7.37619 25.2668 9.04051 23.6025Z" fill="#F29900"/>
</g>
<defs>
<clipPath id="clip0_202_11566">
<rect width="36.0002" height="32" fill="white"/>
</clipPath>
</defs>
</svg>
