<svg width="40" height="38" viewBox="0 0 40 38" fill="none" xmlns="http://www.w3.org/2000/svg">
<g clip-path="url(#clip0_202_12924)">
<path d="M31.1421 4.45384L27.9855 6.19149L26.4224 9.18115L27.9855 12.8386L30.9448 16.0407L34.1469 14.2575L36.1122 10.8657L34.1469 6.66953L31.1421 4.45384Z" fill="#0066DA"/>
<path d="M18.9178 16.6781L26.4223 9.17357C28.6304 10.8505 30.2542 13.2559 30.9447 16.0331L20.6479 26.3376C19.7221 27.2633 18.2197 27.2633 17.294 26.3376L10.351 19.3946C9.60735 18.6509 9.60735 17.452 10.351 16.716L13.3103 13.7567C14.0539 13.0131 15.2528 13.0131 15.9888 13.7567L18.9178 16.6781ZM39.4433 4.85601L36.4308 1.84359C35.6948 1.10755 34.4883 1.10755 33.7523 1.84359L31.142 4.45385C33.2287 6.19908 34.9284 8.38442 36.1121 10.8657L39.4433 7.53457C40.1869 6.79853 40.1869 5.59204 39.4433 4.85601ZM31.3014 19C31.3014 25.814 25.7773 31.3305 18.9709 31.3305C12.1645 31.3305 6.64045 25.814 6.64045 19C6.64045 12.186 12.1569 6.66954 18.9709 6.66954C21.7709 6.66954 24.3508 7.60286 26.4223 9.18116L31.142 4.46144C27.8488 1.69183 23.6072 0.0300598 18.9709 0.0300598C8.49192 0.0300598 0.000976562 8.521 0.000976562 19C0.000976562 29.479 8.49192 37.9699 18.9709 37.9699C29.4499 37.9699 37.9408 29.479 37.9408 19C37.9408 16.0938 37.2807 13.3318 36.1121 10.8657L30.9447 16.0407C31.1724 16.9892 31.3014 17.9832 31.3014 19Z" fill="#2684FC"/>
</g>
<defs>
<clipPath id="clip0_202_12924">
<rect width="40.001" height="38" fill="white"/>
</clipPath>
</defs>
</svg>
