<svg width="37" height="37" viewBox="0 0 37 37" fill="none" xmlns="http://www.w3.org/2000/svg">
<g clip-path="url(#clip0_202_12838)">
<path d="M26.0026 5.00301C27.3265 5.00753 28.595 5.53546 29.5311 6.47163C30.4673 7.4078 30.9952 8.67622 30.9997 10.0001V14.003H36.0012V10.0001C36.0017 8.68696 35.7435 7.38654 35.2412 6.1732C34.7389 4.95986 34.0025 3.85741 33.0739 2.92884C32.1454 2.00028 31.0429 1.26381 29.8296 0.761536C28.6162 0.259261 27.3158 0.0010246 26.0026 0.00158783H21.9998V5.00301H26.0026Z" fill="#FBBC05"/>
<path d="M5.00265 10.0001C5.00716 8.67622 5.5351 7.4078 6.47127 6.47163C7.40743 5.53546 8.67585 5.00753 9.99978 5.00301H14.0026V0.00158783H9.99978C8.6866 0.0010246 7.38617 0.259261 6.17283 0.761536C4.9595 1.26381 3.85704 2.00028 2.92848 2.92884C1.99991 3.85741 1.26345 4.95986 0.76117 6.1732C0.258894 7.38654 0.000658385 8.68696 0.00122162 10.0001V14.003H5.00265V10.0001Z" fill="#EA4335"/>
<path d="M9.99978 31.0002C8.67585 30.9957 7.40743 30.4677 6.47127 29.5316C5.5351 28.5954 5.00716 27.327 5.00265 26.003V22.0002H0.00122162V26.003C0.000658385 27.3162 0.258894 28.6166 0.76117 29.83C1.26345 31.0433 1.99991 32.1458 2.92848 33.0743C3.85704 34.0029 4.9595 34.7394 6.17283 35.2416C7.38617 35.7439 8.6866 36.0022 9.99978 36.0016H14.0026V31.0002H9.99978Z" fill="#4285F4"/>
<path d="M30.0013 34.0001C30.7921 34.0001 31.5652 33.7656 32.2227 33.3262C32.8803 32.8868 33.3928 32.2623 33.6954 31.5317C33.9981 30.801 34.0773 29.9971 33.923 29.2214C33.7687 28.4458 33.3879 27.7333 32.8287 27.1741C32.2695 26.6149 31.557 26.234 30.7813 26.0798C30.0057 25.9255 29.2017 26.0047 28.4711 26.3073C27.7404 26.6099 27.1159 27.1225 26.6766 27.78C26.2372 28.4376 26.0027 29.2107 26.0027 30.0015C26.0027 30.5266 26.1061 31.0466 26.3071 31.5317C26.508 32.0168 26.8025 32.4576 27.1738 32.8289C27.5451 33.2002 27.9859 33.4947 28.4711 33.6957C28.9562 33.8966 29.4762 34.0001 30.0013 34.0001Z" fill="#34A853"/>
<path d="M18.0013 25.0001C19.3854 25.0001 20.7385 24.5897 21.8894 23.8207C23.0404 23.0516 23.9374 21.9586 24.4671 20.6798C24.9968 19.401 25.1354 17.9938 24.8653 16.6362C24.5953 15.2786 23.9288 14.0316 22.95 13.0528C21.9712 12.0741 20.7242 11.4075 19.3666 11.1375C18.009 10.8674 16.6018 11.006 15.323 11.5357C14.0442 12.0654 12.9512 12.9625 12.1822 14.1134C11.4131 15.2643 11.0027 16.6174 11.0027 18.0016C11.0027 19.8577 11.74 21.6378 13.0525 22.9503C14.365 24.2628 16.1451 25.0001 18.0013 25.0001Z" fill="#4285F4"/>
</g>
<defs>
<clipPath id="clip0_202_12838">
<rect width="37" height="37" fill="white"/>
</clipPath>
</defs>
</svg>
