<svg width="37" height="32" viewBox="0 0 37 32" fill="none" xmlns="http://www.w3.org/2000/svg">
<g clip-path="url(#clip0_202_11444)">
<path d="M32.0618 8.15991H3.05739C2.36824 8.15991 1.80957 8.71858 1.80957 9.40773V30.4657C1.80957 31.1549 2.36824 31.7135 3.05739 31.7135H32.0618C32.7509 31.7135 33.3096 31.1549 33.3096 30.4657V9.40773C33.3096 8.71858 32.7509 8.15991 32.0618 8.15991Z" fill="#4989F5"/>
<path d="M31.6979 7.98291H3.38683C2.50984 7.98291 1.82739 14.7701 1.82739 15.6471L17.3314 31.7135H31.6979C32.5776 31.7111 33.2901 30.9986 33.2925 30.1189V9.5772C33.2899 8.69763 32.5775 7.98531 31.6979 7.98291Z" fill="url(#paint0_linear_202_11444)"/>
<path d="M9.0022 12.1043H18.0022V0.291992H10.3498L9.0022 12.1043Z" fill="#3C4BA6"/>
<path d="M27.0022 12.1043H18.0022V0.291992H25.6546L27.0022 12.1043ZM33.3096 2.53117L33.3208 2.57143C33.3181 2.55722 33.3127 2.54402 33.3096 2.53117Z" fill="#7BABF7"/>
<path d="M33.3208 2.57106L33.3096 2.5308C33.0243 1.22421 31.8678 0.292472 30.5304 0.291626H25.6545L27.0012 12.1043H36.0012L33.3208 2.57106Z" fill="#3F51B5"/>
<path d="M2.68329 2.57106L2.69445 2.5308C2.97978 1.22421 4.13625 0.292472 5.47363 0.291626H10.3499L9.00122 12.1043H0.0012207L2.68329 2.57106Z" fill="#7BABF7"/>
<path fill-rule="evenodd" clip-rule="evenodd" d="M9.01739 12.1012C9.01739 14.5851 7.00379 16.5987 4.51992 16.5987C2.03606 16.5987 0.0224609 14.5851 0.0224609 12.1012H9.01739Z" fill="#709BE0"/>
<path fill-rule="evenodd" clip-rule="evenodd" d="M18.0125 12.1012C18.0125 14.5851 15.9989 16.5987 13.515 16.5987C11.0312 16.5987 9.01758 14.5851 9.01758 12.1012H18.0125Z" fill="#3C4BA6"/>
<path fill-rule="evenodd" clip-rule="evenodd" d="M27.0074 12.1012C27.0074 14.5851 24.9938 16.5987 22.5099 16.5987C20.026 16.5987 18.0125 14.5851 18.0125 12.1012H27.0074Z" fill="#709BE0"/>
<path fill-rule="evenodd" clip-rule="evenodd" d="M36.0013 12.1012C36.0013 14.5851 33.9877 16.5987 31.5038 16.5987C29.0199 16.5987 27.0063 14.5851 27.0063 12.1012H36.0013Z" fill="#3C4BA6"/>
<path d="M31.504 24.2861C31.4881 24.0719 31.4617 23.8764 31.4242 23.6267H26.5182C26.5182 24.3128 26.5182 25.0616 26.5155 25.7481H29.3576C29.2972 26.0681 29.1742 26.3729 28.9956 26.6452C28.8171 26.9174 28.5865 27.1517 28.3172 27.3346C28.3172 27.3346 28.3172 27.3228 28.3151 27.3224C27.9673 27.5508 27.5754 27.7038 27.1647 27.7714C26.7531 27.8467 26.331 27.8449 25.92 27.766C25.5026 27.6796 25.1075 27.5084 24.7591 27.2629C24.2449 26.8982 23.8482 26.3914 23.6179 25.8046C23.6003 25.7589 23.584 25.7129 23.5675 25.6662V25.6612L23.5719 25.6578C23.3482 25.0015 23.3477 24.2898 23.5702 23.6331C23.7269 23.1725 23.9848 22.7528 24.325 22.4049C25.1231 21.5794 26.3155 21.2689 27.4148 21.6003C27.8363 21.7296 28.2215 21.9563 28.5391 22.2621L29.498 21.3033C29.6672 21.1324 29.8428 20.9669 30.0055 20.7903C29.5193 20.3368 28.9486 19.9834 28.326 19.7503C27.1928 19.3394 25.9531 19.3285 24.8129 19.7195C24.7732 19.733 24.7337 19.7471 24.6945 19.7618C23.4644 20.2242 22.4524 21.1311 21.8585 22.3034C21.6487 22.7183 21.496 23.1597 21.4044 23.6155C20.8613 26.3146 22.5082 28.9713 25.1672 29.6854C26.0364 29.9182 26.9604 29.9125 27.8364 29.7135C28.6323 29.5338 29.3682 29.1514 29.9727 28.6034C30.6034 28.0232 31.0554 27.25 31.2922 26.4289C31.4902 25.733 31.562 25.0073 31.504 24.2861Z" fill="white"/>
</g>
<defs>
<linearGradient id="paint0_linear_202_11444" x1="1.82739" y1="19.848" x2="33.2922" y2="19.848" gradientUnits="userSpaceOnUse">
<stop offset="0.03" stop-color="#4079D8"/>
<stop offset="1" stop-color="#4989F5"/>
</linearGradient>
<clipPath id="clip0_202_11444">
<rect width="37" height="32" fill="white"/>
</clipPath>
</defs>
</svg>
