<svg width="32" height="37" viewBox="0 0 32 37" fill="none" xmlns="http://www.w3.org/2000/svg">
<g clip-path="url(#clip0_202_10545)">
<path d="M10.2192 6.13262C10.2192 7.17448 9.37462 8.01908 8.33275 8.01908C7.29089 8.01908 6.44629 7.17448 6.44629 6.13262C6.44629 5.09075 7.29089 4.24615 8.33275 4.24615C9.37462 4.24615 10.2192 5.09075 10.2192 6.13262Z" fill="#EA4335"/>
<path d="M10.2192 13.9929C10.2192 15.0347 9.37462 15.8793 8.33275 15.8793C7.29089 15.8793 6.44629 15.0347 6.44629 13.9929C6.44629 12.951 7.29089 12.1064 8.33275 12.1064C9.37462 12.1064 10.2192 12.951 10.2192 13.9929Z" fill="#EA4335"/>
<path d="M8.33275 23.7396C9.37462 23.7396 10.2192 22.895 10.2192 21.8531C10.2192 20.8113 9.37462 19.9667 8.33275 19.9667C7.29089 19.9667 6.44629 20.8113 6.44629 21.8531C6.44629 22.895 7.29089 23.7396 8.33275 23.7396Z" fill="#EA4335"/>
<path d="M10.2192 29.7134C10.2192 30.7553 9.37462 31.5999 8.33275 31.5999C7.29089 31.5999 6.44629 30.7553 6.44629 29.7134C6.44629 28.6715 7.29089 27.8269 8.33275 27.8269C9.37462 27.8269 10.2192 28.6715 10.2192 29.7134Z" fill="#EA4335"/>
<path d="M15.0927 4.40333C16.3082 4.40333 17.2936 3.41797 17.2936 2.20246C17.2936 0.986952 16.3082 0.00158691 15.0927 0.00158691C13.8772 0.00158691 12.8918 0.986952 12.8918 2.20246C12.8918 3.41797 13.8772 4.40333 15.0927 4.40333Z" fill="#FBBC04"/>
<path d="M15.0927 12.2636C16.3082 12.2636 17.2936 11.2782 17.2936 10.0627C17.2936 8.84721 16.3082 7.86185 15.0927 7.86185C13.8772 7.86185 12.8918 8.84721 12.8918 10.0627C12.8918 11.2782 13.8772 12.2636 15.0927 12.2636Z" fill="#FBBC04"/>
<path d="M17.2936 17.923C17.2936 19.1385 16.3082 20.1239 15.0927 20.1239C13.8772 20.1239 12.8918 19.1385 12.8918 17.923C12.8918 16.7075 13.8772 15.7221 15.0927 15.7221C16.3082 15.7221 17.2936 16.7075 17.2936 17.923Z" fill="#FBBC04"/>
<path d="M15.0927 27.9841C16.3082 27.9841 17.2936 26.9988 17.2936 25.7833C17.2936 24.5677 16.3082 23.5824 15.0927 23.5824C13.8772 23.5824 12.8918 24.5677 12.8918 25.7833C12.8918 26.9988 13.8772 27.9841 15.0927 27.9841Z" fill="#FBBC04"/>
<path d="M17.2936 33.8007C17.2936 35.0162 16.3082 36.0016 15.0927 36.0016C13.8772 36.0016 12.8918 35.0162 12.8918 33.8007C12.8918 32.5852 13.8772 31.5998 15.0927 31.5998C16.3082 31.5998 17.2936 32.5852 17.2936 33.8007Z" fill="#FBBC04"/>
<path d="M24.3677 6.2112C24.3677 7.64376 23.2064 8.80508 21.7738 8.80508C20.3413 8.80508 19.1799 7.64376 19.1799 6.2112C19.1799 4.77863 20.3413 3.61731 21.7738 3.61731C23.2064 3.61731 24.3677 4.77863 24.3677 6.2112Z" fill="#34A853"/>
<path d="M24.3677 14.0715C24.3677 15.504 23.2064 16.6653 21.7738 16.6653C20.3413 16.6653 19.1799 15.504 19.1799 14.0715C19.1799 12.6389 20.3413 11.4776 21.7738 11.4776C23.2064 11.4776 24.3677 12.6389 24.3677 14.0715Z" fill="#34A853"/>
<path d="M21.7738 24.5256C23.2064 24.5256 24.3677 23.3643 24.3677 21.9317C24.3677 20.4992 23.2064 19.3378 21.7738 19.3378C20.3413 19.3378 19.1799 20.4992 19.1799 21.9317C19.1799 23.3643 20.3413 24.5256 21.7738 24.5256Z" fill="#34A853"/>
<path d="M24.3677 29.792C24.3677 31.2246 23.2064 32.3859 21.7738 32.3859C20.3413 32.3859 19.1799 31.2246 19.1799 29.792C19.1799 28.3594 20.3413 27.1981 21.7738 27.1981C23.2064 27.1981 24.3677 28.3594 24.3677 29.792Z" fill="#34A853"/>
<path d="M31.442 10.0627C31.442 11.7123 30.1047 13.0496 28.4551 13.0496C26.8055 13.0496 25.4682 11.7123 25.4682 10.0627C25.4682 8.41309 26.8055 7.07581 28.4551 7.07581C30.1047 7.07581 31.442 8.41309 31.442 10.0627Z" fill="#4285F4"/>
<path d="M3.14508 10.0627C3.14508 10.9309 2.44125 11.6348 1.57303 11.6348C0.704808 11.6348 0.000976562 10.9309 0.000976562 10.0627C0.000976562 9.19449 0.704808 8.49066 1.57303 8.49066C2.44125 8.49066 3.14508 9.19449 3.14508 10.0627Z" fill="#4285F4"/>
<path d="M1.57303 19.495C2.44125 19.495 3.14508 18.7912 3.14508 17.923C3.14508 17.0547 2.44125 16.3509 1.57303 16.3509C0.704808 16.3509 0.000976562 17.0547 0.000976562 17.923C0.000976562 18.7912 0.704808 19.495 1.57303 19.495Z" fill="#4285F4"/>
<path d="M3.14508 25.7832C3.14508 26.6514 2.44125 27.3553 1.57303 27.3553C0.704808 27.3553 0.000976562 26.6514 0.000976562 25.7832C0.000976562 24.915 0.704808 24.2112 1.57303 24.2112C2.44125 24.2112 3.14508 24.915 3.14508 25.7832Z" fill="#4285F4"/>
<path d="M28.4551 20.9099C30.1047 20.9099 31.442 19.5726 31.442 17.923C31.442 16.2733 30.1047 14.9361 28.4551 14.9361C26.8055 14.9361 25.4682 16.2733 25.4682 17.923C25.4682 19.5726 26.8055 20.9099 28.4551 20.9099Z" fill="#4285F4"/>
<path d="M31.442 25.7832C31.442 27.4329 30.1047 28.7701 28.4551 28.7701C26.8055 28.7701 25.4682 27.4329 25.4682 25.7832C25.4682 24.1336 26.8055 22.7963 28.4551 22.7963C30.1047 22.7963 31.442 24.1336 31.442 25.7832Z" fill="#4285F4"/>
</g>
<defs>
<clipPath id="clip0_202_10545">
<rect width="32" height="37" fill="white"/>
</clipPath>
</defs>
</svg>
