<svg width="36" height="36" viewBox="0 0 36 36" fill="none" xmlns="http://www.w3.org/2000/svg">
<g clip-path="url(#clip0_202_11284)">
<path d="M3.38419 7.20425L11.4787 15.2987H0.0012207V20.6899H11.4787L15.3873 16.8083V11.3901L7.29282 3.2957L3.38419 7.20425Z" fill="#FBBC01"/>
<path d="M15.3215 16.781L24.6255 15.309L32.7199 7.21459L28.8113 3.30596L20.7169 11.4004V0H15.3255L15.3215 16.781Z" fill="#EB4435"/>
<path d="M3.32666 28.7814L7.23529 32.6925L15.3298 24.5936V36H20.721V24.5937L15.3218 16.781L3.32666 28.7814Z" fill="#38A752"/>
<path d="M15.2929 19.1818L28.7835 32.6675L32.6937 28.7588L24.5965 20.6643H36.0007V15.2731H17.1667C14.6323 15.7553 14.6731 17.71 15.2929 19.1818Z" fill="#4886F4"/>
</g>
<defs>
<clipPath id="clip0_202_11284">
<rect width="36.0008" height="36" fill="white"/>
</clipPath>
</defs>
</svg>
