<svg width="37" height="36" viewBox="0 0 37 36" fill="none" xmlns="http://www.w3.org/2000/svg">
<g clip-path="url(#clip0_202_14225)">
<path d="M24.3584 11.6438C27.874 15.1594 27.874 20.8547 24.3584 24.3703C22.6006 26.1282 22.6006 28.9828 24.3584 30.7266C26.1162 32.4844 28.9709 32.4844 30.7287 30.7266C37.76 23.6953 37.76 12.3047 30.7287 5.27347L24.3584 11.6438Z" fill="#EA4335"/>
<path d="M30.7147 5.27347C23.6834 -1.75778 12.3069 -1.75778 5.27563 5.27347C-1.75562 12.3047 -1.75562 23.6953 5.27563 30.7266L11.6459 24.3703C8.13032 20.8547 8.13032 15.1594 11.6459 11.6438C15.1616 8.12816 20.8569 8.12816 24.3725 11.6438C26.1303 13.4016 28.985 13.4016 30.7428 11.6438C32.4725 9.88597 32.4725 7.03128 30.7147 5.27347Z" fill="url(#paint0_linear_202_14225)"/>
<path d="M30.7147 30.7266L24.3444 24.3704C20.8288 27.886 15.1335 27.886 11.6179 24.3704L5.24756 30.7266C12.3069 37.7579 23.6835 37.7579 30.7147 30.7266Z" fill="#FBBC04"/>
<path d="M24.3584 24.3704C26.1162 22.6125 28.9568 22.6125 30.7146 24.3704C32.4725 26.1282 32.4725 28.9829 30.7146 30.7407C28.9568 32.4985 26.1162 32.4985 24.3584 30.7407C22.6006 28.9829 22.6006 26.1282 24.3584 24.3704Z" fill="#EA4335"/>
<path d="M5.27563 24.3704C7.03345 22.6125 9.87407 22.6125 11.6319 24.3704C13.3897 26.1282 13.3897 28.9829 11.6319 30.7407C9.87407 32.4985 7.03345 32.4985 5.27563 30.7407C3.51782 28.9829 3.51782 26.1282 5.27563 24.3704Z" fill="#34A853"/>
</g>
<defs>
<linearGradient id="paint0_linear_202_14225" x1="0.00219727" y1="15.3633" x2="32.0364" y2="15.3633" gradientUnits="userSpaceOnUse">
<stop stop-color="#246FDB"/>
<stop offset="0.0552" stop-color="#2973DF"/>
<stop offset="0.2781" stop-color="#377DEB"/>
<stop offset="0.5491" stop-color="#3F83F2"/>
<stop offset="1" stop-color="#4285F4"/>
</linearGradient>
<clipPath id="clip0_202_14225">
<rect width="37" height="36" fill="white"/>
</clipPath>
</defs>
</svg>
