<svg width="37" height="30" viewBox="0 0 37 30" fill="none" xmlns="http://www.w3.org/2000/svg">
<g clip-path="url(#clip0_202_10211)">
<path d="M28.6341 20.251C28.6308 20.7557 28.2207 21.163 27.7161 21.163H8.29087C7.78458 21.1652 7.37199 20.7573 7.36865 20.251V1.18975C7.37199 0.685034 7.7821 0.277704 8.28675 0.277704H27.7119C28.2182 0.2755 28.6308 0.68347 28.6341 1.18975V20.251Z" fill="#0C9D58"/>
<path opacity="0.2" d="M28.6341 5.17704L21.3527 4.24053L28.6341 6.19529V5.17704ZM18.353 1.2715L7.32568 6.19529L19.5125 1.76016V1.74793C19.3225 1.29759 18.8048 1.08483 18.353 1.2715Z" fill="#004D40"/>
<path opacity="0.2" d="M27.7161 0.277766H8.29087C7.78458 0.275491 7.37199 0.683461 7.36865 1.18975V1.39419C7.37199 0.889543 7.7821 0.482213 8.28675 0.482213H27.7119C28.2182 0.479938 28.6308 0.887908 28.6341 1.39419V1.18975C28.6308 0.685025 28.2207 0.277695 27.7161 0.277695V0.277766Z" fill="white"/>
<path d="M12.0839 19.6662C11.9398 20.1335 12.2002 20.6295 12.6666 20.7765L30.6605 25.6164C31.1379 25.7219 31.6109 25.4224 31.7197 24.9457L35.9585 9.12339C36.103 8.65776 35.8459 8.16264 35.3818 8.01307L17.388 3.17323C16.9106 3.06767 16.4375 3.36723 16.3288 3.84387L12.0839 19.6662Z" fill="#EA4335"/>
<path opacity="0.2" d="M31.9057 14.771L32.8524 20.5209L31.9057 24.0542V14.771ZM21.4365 4.47563L22.2851 4.70468L22.8126 8.25236L21.4365 4.47563Z" fill="#3E2723"/>
<path opacity="0.2" d="M35.3818 8.01307L17.388 3.17323C16.9106 3.06767 16.4375 3.36723 16.3288 3.84387L12.0839 19.6662C12.0839 19.6927 12.0839 19.7193 12.0696 19.7459L16.2777 4.04213C16.3864 3.56549 16.8594 3.26593 17.3369 3.3715L35.3307 8.21141C35.539 8.27767 35.7153 8.419 35.8252 8.60793C35.9352 8.79687 35.971 9.01993 35.9257 9.23378L35.9584 9.11315C36.0965 8.6508 35.8406 8.16271 35.3819 8.01307H35.3818Z" fill="white"/>
<path d="M26.256 17.7175C26.4407 18.1703 26.2252 18.6873 25.7735 18.8748L6.78377 25.7861C6.31758 25.9335 5.81982 25.6769 5.6694 25.2116L0.0667971 9.81656C-0.116324 9.36373 0.100066 8.84799 0.551399 8.66125L19.541 1.75006C20.0079 1.59986 20.5083 1.85598 20.6595 2.3226L26.256 17.7176V17.7175Z" fill="#FFC107"/>
<path opacity="0.2" d="M0.138261 10.0108C-0.0450019 9.55858 0.17025 9.04305 0.620873 8.85552L19.6105 1.94427C20.0702 1.79968 20.5613 2.04834 20.7168 2.50444L20.6595 2.32245C20.5091 1.85726 20.0114 1.60056 19.5451 1.74793L0.551279 8.66124C0.0996608 8.84877 -0.115876 9.36572 0.0687378 9.81854L5.67142 25.2116V25.2259L0.138261 10.0108Z" fill="white"/>
<path d="M30.9855 8.25235H5.01708C4.50889 8.25235 4.09692 8.66432 4.09692 9.1725V28.8021C4.09692 29.3103 4.50889 29.7223 5.01708 29.7223H30.9855C31.4937 29.7223 31.9057 29.3103 31.9057 28.8021V9.1725C31.9057 8.66432 31.4937 8.25235 30.9855 8.25235Z" fill="#4285F4"/>
<path d="M19.1771 13.9777H26.9471C27.0556 13.9777 27.1596 14.0207 27.2363 14.0974C27.313 14.1741 27.3561 14.2782 27.3561 14.3866V15.6135C27.3561 15.7219 27.313 15.8259 27.2363 15.9026C27.1596 15.9793 27.0556 16.0224 26.9471 16.0224H19.177V13.9777H19.1771ZM19.1771 21.7477H26.9471C27.0556 21.7477 27.1596 21.7908 27.2363 21.8675C27.313 21.9442 27.3561 22.0482 27.3561 22.1567V23.3836C27.3561 23.492 27.313 23.596 27.2363 23.6727C27.1596 23.7494 27.0556 23.7925 26.9471 23.7925H19.177V21.7477H19.1771ZM19.1771 17.8627H28.1739C28.2823 17.8627 28.3864 17.9058 28.463 17.9825C28.5397 18.0592 28.5828 18.1632 28.5829 18.2716V19.4985C28.5829 19.607 28.5398 19.711 28.4631 19.7877C28.3864 19.8644 28.2824 19.9075 28.1739 19.9075H19.1771V17.8627Z" fill="white"/>
<path opacity="0.2" d="M30.9856 29.5179H5.01708C4.50937 29.5167 4.09806 29.1054 4.09692 28.5977V28.8021C4.09806 29.3099 4.50937 29.7212 5.01708 29.7223H30.9856C31.4933 29.7212 31.9046 29.3099 31.9057 28.8021V28.5977C31.9046 29.1054 31.4933 29.5167 30.9856 29.5179Z" fill="#1A237E"/>
<path opacity="0.2" d="M5.01708 8.4568H30.9856C31.4933 8.45793 31.9046 8.86925 31.9057 9.37695V9.17243C31.9046 8.66473 31.4933 8.25342 30.9856 8.25235H5.01708C4.50937 8.25342 4.09806 8.66473 4.09692 9.17243V9.37695C4.09806 8.86925 4.50937 8.45793 5.01708 8.4568Z" fill="white"/>
<path d="M12.225 18.0672V19.9075H14.8708C14.652 21.0321 13.6645 21.8459 12.225 21.8459C10.5875 21.8459 9.26004 20.5185 9.26004 18.881C9.26004 17.2436 10.5875 15.9161 12.225 15.9161C12.9285 15.9027 13.6087 16.1689 14.1163 16.6563L15.517 15.2557C14.6273 14.4182 13.4467 13.9598 12.225 13.9777C11.5789 13.9752 10.9388 14.1003 10.3412 14.3458C9.74367 14.5914 9.20047 14.9524 8.74279 15.4084C8.28512 15.8643 7.92197 16.4061 7.67417 17.0028C7.42638 17.5994 7.29883 18.239 7.29883 18.8851C7.29883 19.5311 7.42638 20.1708 7.67417 20.7674C7.92197 21.364 8.28512 21.9058 8.74279 22.3618C9.20047 22.8177 9.74367 23.1788 10.3412 23.4243C10.9388 23.6698 11.5789 23.7949 12.225 23.7925C15.059 23.7925 16.9279 21.8009 16.9279 18.9976C16.9269 18.6859 16.9009 18.3747 16.8502 18.0672H12.225Z" fill="white"/>
<path opacity="0.2" d="M12.2759 19.9075V20.1119H14.8728C14.8918 20.0451 14.9082 19.977 14.9218 19.9075H12.2759H12.2759Z" fill="#1A237E"/>
<path opacity="0.2" d="M12.276 23.7925C9.60527 23.7931 7.42431 21.6576 7.36865 18.9873V19.0895C7.36865 21.7998 9.56575 23.997 12.2761 23.997C15.1101 23.997 16.979 22.0054 16.979 19.202V19.1366C16.9115 21.8664 15.0631 23.7925 12.2761 23.7925H12.276ZM14.1593 16.6563C13.653 16.1724 12.9763 15.9079 12.2761 15.9202C10.6584 15.9459 9.36173 17.2672 9.36635 18.8851V18.9873C9.41426 17.4107 10.6928 16.1502 12.2699 16.1246C12.9701 16.1123 13.6469 16.3769 14.1532 16.8607L15.6561 15.3579C15.6213 15.3252 15.5824 15.2965 15.5456 15.2638L14.1532 16.6563H14.1593ZM27.3562 15.818V15.6134C27.3562 15.7219 27.3131 15.8259 27.2364 15.9026C27.1597 15.9793 27.0557 16.0224 26.9472 16.0224H19.1771V16.2269H26.9472C27.0557 16.2269 27.1597 16.1838 27.2364 16.1071C27.3131 16.0304 27.3562 15.9264 27.3562 15.818ZM26.9472 23.7925H19.1771V23.997H26.9472C27.0557 23.997 27.1597 23.9539 27.2364 23.8772C27.3131 23.8005 27.3562 23.6965 27.3562 23.588V23.3836C27.3562 23.492 27.3131 23.596 27.2364 23.6727C27.1597 23.7494 27.0557 23.7925 26.9472 23.7925ZM28.1741 19.9075H19.1772V20.1119H28.1741C28.2826 20.1119 28.3866 20.0688 28.4633 19.9921C28.54 19.9154 28.5831 19.8114 28.5831 19.703V19.4985C28.5831 19.607 28.54 19.711 28.4633 19.7877C28.3866 19.8644 28.2826 19.9075 28.1741 19.9075H28.1741Z" fill="#1A237E"/>
<path d="M35.3817 8.01307L28.6341 6.2076V1.18975C28.6307 0.685034 28.2206 0.277704 27.716 0.277704H8.29077C7.78449 0.2755 7.3719 0.68347 7.36856 1.18975V6.17895L0.551279 8.66132C0.0996608 8.84878 -0.115876 9.36579 0.0687378 9.81862L4.0969 20.8889V28.8021C4.09804 29.3098 4.50935 29.7212 5.01706 29.7223H30.9855C31.4933 29.7212 31.9046 29.3098 31.9057 28.8021V24.2587L35.9605 9.12751C36.1075 8.66004 35.8487 8.16172 35.3818 8.01307H35.3817Z" fill="url(#paint0_radial_202_10211)"/>
</g>
<defs>
<radialGradient id="paint0_radial_202_10211" cx="0" cy="0" r="1" gradientUnits="userSpaceOnUse" gradientTransform="translate(6.60782 2.66389) scale(28.6261 28.626)">
<stop stop-color="white" stop-opacity="0.1"/>
<stop offset="1" stop-color="white" stop-opacity="0"/>
</radialGradient>
<clipPath id="clip0_202_10211">
<rect width="37" height="30" fill="white"/>
</clipPath>
</defs>
</svg>
