<svg width="36" height="36" viewBox="0 0 36 36" fill="none" xmlns="http://www.w3.org/2000/svg">
<g clip-path="url(#clip0_202_8411)">
<path d="M9.00098 8.17712C13.969 8.17712 18.001 12.2091 18.001 17.1771V18H0.823834C0.371262 18 0.000976562 17.6297 0.000976562 17.1771C0.000976562 12.2091 4.03298 8.17712 9.00098 8.17712Z" fill="#FBBB05"/>
<path d="M27.8238 9C27.8238 13.968 23.7918 18 18.8238 18H18.001V0.822857C18.001 0.370286 18.3713 0 18.8238 0C23.7918 0 27.8238 4.032 27.8238 9Z" fill="#E94335"/>
<path d="M27.001 27.8229C22.033 27.8229 18.001 23.7909 18.001 18.8229V18H35.1781C35.6307 18 36.001 18.3703 36.001 18.8229C36.001 23.7909 31.969 27.8229 27.001 27.8229Z" fill="#4285F4"/>
<path d="M8.17822 27C8.17822 22.032 12.2102 18 17.1782 18H18.0011V35.1771C18.0011 35.6297 17.6308 36 17.1782 36C12.2102 36 8.17822 31.968 8.17822 27Z" fill="#0F9D58"/>
</g>
<defs>
<clipPath id="clip0_202_8411">
<rect width="36.001" height="36" fill="white"/>
</clipPath>
</defs>
</svg>
