<svg width="37" height="33" viewBox="0 0 37 33" fill="none" xmlns="http://www.w3.org/2000/svg">
<path d="M2.72385 27.5684L4.31147 30.3107C4.64136 30.888 5.1156 31.3416 5.6723 31.6715L11.3424 21.8571H0.00219727C0.00219727 22.4962 0.167138 23.1354 0.497035 23.7127L2.72385 27.5684Z" fill="#0066DA"/>
<path d="M18.0022 10.3106L12.3321 0.496155C11.7754 0.826051 11.3012 1.27966 10.9713 1.85698L0.497035 20.0013C0.173205 20.5662 0.00262843 21.2059 0.00219727 21.857H11.3424L18.0022 10.3106Z" fill="#00AC47"/>
<path d="M30.3321 31.6715C30.8888 31.3416 31.363 30.888 31.6929 30.3107L32.3527 29.1766L35.5073 23.7127C35.8372 23.1354 36.0021 22.4962 36.0021 21.8571H24.6611L27.0743 26.5993L30.3321 31.6715Z" fill="#EA4335"/>
<path d="M18.0021 10.3107L23.6722 0.496249C23.1155 0.166352 22.4764 0.00140381 21.8166 0.00140381H14.1877C13.5279 0.00140381 12.8887 0.186971 12.332 0.496249L18.0021 10.3107Z" fill="#00832D"/>
<path d="M24.662 21.8571H11.3425L5.67236 31.6715C6.22906 32.0014 6.86824 32.1663 7.52803 32.1663H28.4765C29.1363 32.1663 29.7754 31.9808 30.3321 31.6715L24.662 21.8571Z" fill="#2684FC"/>
<path d="M30.2702 10.9291L25.0331 1.85698C24.7032 1.27966 24.229 0.826051 23.6723 0.496155L18.0022 10.3106L24.662 21.857H35.9816C35.9816 21.2178 35.8166 20.5786 35.4867 20.0013L30.2702 10.9291Z" fill="#FFBA00"/>
</svg>
