<svg width="34" height="44" viewBox="0 0 34 44" fill="none" xmlns="http://www.w3.org/2000/svg">
<g filter="url(#filter0_d_202_10293)">
<path fill-rule="evenodd" clip-rule="evenodd" d="M31.0909 15.2029L31.0907 15.2802C31.0905 15.3127 31.0902 15.3453 31.0898 15.3778C31.0905 15.4158 31.0909 15.4541 31.0909 15.4928C31.0909 21.5587 26.365 26.9281 23.2025 30.5212C22.2849 31.5638 21.4989 32.4568 20.9981 33.1739C19.2171 35.7247 18.2771 38.488 18.0297 39.5507C18.0297 40.3512 17.3652 41 16.5455 41C15.7257 41 15.0612 40.3512 15.0612 39.5507C14.8138 38.488 13.8738 35.7247 12.0928 33.1739C11.5921 32.4568 10.8061 31.5638 9.88842 30.5212C6.72595 26.9281 2 21.5587 2 15.4928C2 15.4541 2.00036 15.4158 2.00109 15.3778C2.00036 15.3196 2 15.2613 2 15.2029C2 7.35884 8.5122 1 16.5455 1C24.5787 1 31.0909 7.35884 31.0909 15.2029ZM16.5455 20.4203C19.6604 20.4203 22.1855 17.9546 22.1855 14.913C22.1855 11.8715 19.6604 9.4058 16.5455 9.4058C13.4305 9.4058 10.9054 11.8715 10.9054 14.913C10.9054 17.9546 13.4305 20.4203 16.5455 20.4203Z" fill="#34A851"/>
<path d="M29.4643 8.67012C27.6832 5.31902 24.5747 2.74868 20.8188 1.62323L12.4651 11.1117C13.4922 10.0609 14.9406 9.40629 16.5457 9.40629C19.6606 9.40629 22.1857 11.872 22.1857 14.9135C22.1857 16.1543 21.7655 17.2993 21.0564 18.2201L29.4643 8.67012Z" fill="#4285F5"/>
<path d="M10.0566 30.7131C10.0009 30.6498 9.94463 30.5859 9.88789 30.5215C7.8033 28.153 5.03939 25.0128 3.39746 21.41L12.0799 11.5482C11.3432 12.4788 10.9049 13.646 10.9049 14.9133C10.9049 17.9549 13.43 20.4206 16.5449 20.4206C18.1228 20.4206 19.5494 19.7878 20.573 18.7681L10.0566 30.7131Z" fill="#F9BB0E"/>
<path d="M5.44159 6.02849C3.29468 8.50344 2 11.7056 2 15.2031C2 15.2615 2.00036 15.3198 2.00109 15.3781C2.00036 15.4161 2 15.4544 2 15.493C2 17.5605 2.54901 19.5471 3.39799 21.41L12.0658 11.5648L5.44159 6.02849Z" fill="#E74335"/>
<path d="M20.8181 1.62281C19.467 1.21796 18.032 1 16.545 1C12.0936 1 8.10926 2.95249 5.44116 6.02824L12.0653 11.5645L12.0798 11.5481C12.2002 11.3959 12.3287 11.25 12.4645 11.111L20.8181 1.62281Z" fill="#1A73E6"/>
</g>
<defs>
<filter id="filter0_d_202_10293" x="-0.457764" y="0" width="34" height="44" filterUnits="userSpaceOnUse" color-interpolation-filters="sRGB">
<feFlood flood-opacity="0" result="BackgroundImageFix"/>
<feColorMatrix in="SourceAlpha" type="matrix" values="0 0 0 0 0 0 0 0 0 0 0 0 0 0 0 0 0 0 127 0" result="hardAlpha"/>
<feOffset dy="1"/>
<feGaussianBlur stdDeviation="1"/>
<feColorMatrix type="matrix" values="0 0 0 0 0.0627451 0 0 0 0 0.0941176 0 0 0 0 0.156863 0 0 0 0.05 0"/>
<feBlend mode="normal" in2="BackgroundImageFix" result="effect1_dropShadow_202_10293"/>
<feBlend mode="normal" in="SourceGraphic" in2="effect1_dropShadow_202_10293" result="shape"/>
</filter>
</defs>
</svg>
