<svg width="37" height="36" viewBox="0 0 37 36" fill="none" xmlns="http://www.w3.org/2000/svg">
<g clip-path="url(#clip0_202_11647)">
<path d="M9.00122 0.000396729L18.0012 9.0004L9.00122 18.0004L0.0012207 9.0004L9.00122 0.000396729Z" fill="#76D275"/>
<path d="M0.0012207 9.0004V18.0004L9.00122 27.0004V18.0004L0.0012207 9.0004Z" fill="#43A047"/>
<path d="M27.0012 0.000396729L36.0012 9.0004L27.0012 18.0004L18.0012 9.0004L27.0012 0.000396729Z" fill="#76D275"/>
<path d="M36.0012 9.0004V18.0004L27.0012 27.0004V18.0004L36.0012 9.0004Z" fill="#43A047"/>
<path d="M18.0012 9.0004L27.0012 18.0004L18.0012 27.0004L9.00122 18.0004L18.0012 9.0004Z" fill="#43A047"/>
<path d="M18.0012 27.0004V36.0004L9.00122 27.0004V18.0004L18.0012 27.0004Z" fill="#00701A"/>
<path d="M18.0012 27.0004L27.0012 18.0004V27.0004L18.0012 36.0004V27.0004Z" fill="#004300"/>
</g>
<defs>
<clipPath id="clip0_202_11647">
<rect width="37" height="36.0004" fill="white"/>
</clipPath>
</defs>
</svg>
