<svg width="32" height="32" viewBox="0 0 32 32" fill="none" xmlns="http://www.w3.org/2000/svg">
<path d="M16.3243 6.1867C19.3288 6.1867 21.3555 7.48448 22.511 8.56892L27.0266 4.16003C24.2532 1.58225 20.6443 3.05176e-05 16.3243 3.05176e-05C10.0666 3.05176e-05 4.66212 3.59114 2.03101 8.81781L7.20434 12.8356C8.50212 8.97781 12.0932 6.1867 16.3243 6.1867Z" fill="#EA4335"/>
<path d="M31.6841 16.3556C31.6841 15.04 31.5774 14.08 31.3463 13.0845H16.3241V19.0223H25.1419C24.9641 20.4978 24.0041 22.72 21.8708 24.2134L26.9197 28.1245C29.9419 25.3334 31.6841 21.2267 31.6841 16.3556Z" fill="#4285F4"/>
<path d="M7.222 19.1645C6.88422 18.1689 6.68866 17.1023 6.68866 16C6.68866 14.8978 6.88422 13.8311 7.20422 12.8356L2.03089 8.81781C0.946441 10.9867 0.324219 13.4223 0.324219 16C0.324219 18.5778 0.946441 21.0134 2.03089 23.1823L7.222 19.1645Z" fill="#FBBC05"/>
<path d="M16.3245 32C20.6445 32 24.2712 30.5778 26.9201 28.1245L21.8712 24.2133C20.5201 25.1556 18.7067 25.8133 16.3245 25.8133C12.0934 25.8133 8.50228 23.0222 7.22228 19.1645L2.04895 23.1822C4.68006 28.4089 10.0667 32 16.3245 32Z" fill="#34A853"/>
</svg>
