<svg width="33" height="32" viewBox="0 0 33 32" fill="none" xmlns="http://www.w3.org/2000/svg">
<g clip-path="url(#clip0_202_14234)">
<path d="M18.7849 30.6891L13.2305 25.2729L25.1594 13.0912L30.9102 18.7275L18.7849 30.6891Z" fill="#8AB4F8"/>
<path d="M18.8085 6.74221L13.2741 1.09138L1.17242 13.0785C-0.387553 14.6385 -0.387553 17.1675 1.17242 18.7293L13.0923 30.7273L18.7285 25.4547L9.64685 15.9039L18.8085 6.74221Z" fill="#4285F4"/>
<path d="M30.8301 13.1712L18.8303 1.17138C17.2685 -0.390418 14.7358 -0.390418 13.174 1.17138C11.6122 2.73317 11.6122 5.26586 13.174 6.82766L25.1739 18.8275C26.7357 20.3893 29.2684 20.3893 30.8301 18.8275C32.3919 17.2657 32.3919 14.733 30.8301 13.1712Z" fill="#8AB4F8"/>
<path d="M15.9105 32C18.0694 32 19.8195 30.2499 19.8195 28.091C19.8195 25.9321 18.0694 24.182 15.9105 24.182C13.7516 24.182 12.0015 25.9321 12.0015 28.091C12.0015 30.2499 13.7516 32 15.9105 32Z" fill="#246FDB"/>
</g>
<defs>
<clipPath id="clip0_202_14234">
<rect width="33" height="32" fill="white"/>
</clipPath>
</defs>
</svg>
