<svg width="37" height="34" viewBox="0 0 37 34" fill="none" xmlns="http://www.w3.org/2000/svg">
<g clip-path="url(#clip0_202_11005)">
<path d="M34.7574 0.225525C35.4338 0.225525 36.0019 0.766621 36.0019 1.47005C36.0019 1.63238 35.9749 1.7947 35.8937 1.95703L23.3403 31.9608C22.8533 33.0701 21.7711 33.7735 20.5807 33.7735H12.0043C11.3279 33.8005 10.7598 33.2595 10.7598 32.5831C10.7598 32.4208 10.7868 32.2314 10.8409 32.0961L11.8149 29.7423L13.9522 17.243L20.1748 9.66765L23.3673 2.0382C23.8543 0.92895 24.7201 0.225525 25.9375 0.225525L34.7574 0.225525Z" fill="#4285F4"/>
<path d="M20.256 9.53239C15.5756 4.90601 8.02727 4.98718 3.42795 9.66766C-1.17136 14.3481 -1.14431 21.8694 3.53617 26.4958C5.72761 28.6601 8.67659 29.8776 11.7608 29.9317C11.7879 29.8506 17.5235 20.8413 17.5235 20.8413L20.256 9.53239Z" fill="#FBBC04"/>
<path d="M20.256 9.53235L11.7607 29.9046H12.0583C18.6056 29.8505 23.8813 24.4937 23.8542 17.9464C23.8272 14.781 22.5286 11.7508 20.256 9.53235Z" fill="#EA4335"/>
</g>
<defs>
<clipPath id="clip0_202_11005">
<rect width="37" height="34" fill="white"/>
</clipPath>
</defs>
</svg>
