<svg width="37" height="36" viewBox="0 0 37 36" fill="none" xmlns="http://www.w3.org/2000/svg">
<g clip-path="url(#clip0_202_14549)">
<path d="M18.0012 36.0004C27.9423 36.0004 36.0012 27.9415 36.0012 18.0004C36.0012 8.05927 27.9423 0.000396729 18.0012 0.000396729C8.06009 0.000396729 0.0012207 8.05927 0.0012207 18.0004C0.0012207 27.9415 8.06009 36.0004 18.0012 36.0004Z" fill="#616161"/>
<path d="M18.0012 29.4545C11.6744 29.4545 6.54707 24.3272 6.54707 18.0004C6.54707 11.6736 11.6744 6.54625 18.0012 6.54625C21.1632 6.54625 24.0264 7.82844 26.1005 9.90112L30.7289 5.27276C27.4712 2.01506 22.9704 0.000396729 18.0012 0.000396729C8.05988 0.000396729 0.0012207 8.05906 0.0012207 18.0004C0.0012207 27.9417 8.05988 36.0004 18.0012 36.0004C22.9719 36.0004 27.4712 33.9857 30.7303 30.7295L26.1019 26.1011C24.0264 28.1724 21.1632 29.4545 18.0012 29.4545Z" fill="#9E9E9E"/>
<path d="M29.4554 18.0004H23.7276C23.7276 14.8384 21.1632 12.2726 17.9998 12.2726C14.8364 12.2726 12.2734 14.837 12.2734 18.0004C12.2734 19.5408 12.8826 20.9375 13.8733 21.9688L13.8689 21.9731L20.9601 29.0644L20.9616 29.0658C25.8525 27.7604 29.4554 23.3018 29.4554 18.0004Z" fill="#424242"/>
<path d="M35.9999 18.0004H29.454C29.454 23.3018 25.8497 27.7604 20.9617 29.0658L26.0165 34.1206C31.9343 31.1719 35.9999 25.0612 35.9999 18.0004Z" fill="#616161"/>
<path d="M18.0012 35.7945C8.09469 35.7945 0.0592384 27.7909 0.00267115 17.8974C0.00267115 17.9322 0.0012207 17.9656 0.0012207 18.0004C0.0012207 27.9417 8.05988 36.0004 18.0012 36.0004C27.9426 36.0004 36.0012 27.9417 36.0012 18.0004C36.0012 17.9656 35.9998 17.9322 35.9998 17.8974C35.9432 27.7909 27.9063 35.7945 18.0012 35.7945Z" fill="#212121" fill-opacity="0.1"/>
<path d="M20.9631 29.0658L21.1227 29.2254C25.9295 27.8678 29.4555 23.4497 29.4555 18.2049V18.0004C29.4555 23.3018 25.8511 27.7604 20.9631 29.0658Z" fill="white" fill-opacity="0.05"/>
<path d="M32.7284 16.3636H18.0006C17.097 16.3636 16.3645 17.0961 16.3645 17.9997C16.3645 18.9034 17.097 19.6358 18.0006 19.6358H32.727C33.6306 19.6358 34.3631 18.9034 34.3631 17.9997C34.3645 17.0961 33.632 16.3636 32.7284 16.3636Z" fill="#9E9E9E"/>
<path opacity="0.5" d="M32.7284 16.3636H18.0006C17.097 16.3636 16.3645 17.0961 16.3645 17.9997C16.3645 18.9034 17.097 19.6358 18.0006 19.6358H32.727C33.6306 19.6358 34.3631 18.9034 34.3631 17.9997C34.3645 17.0961 33.632 16.3636 32.7284 16.3636Z" fill="#BDBDBD"/>
<path d="M3.27346 19.2277C3.95116 19.2277 4.50054 18.6783 4.50054 18.0006C4.50054 17.3229 3.95116 16.7735 3.27346 16.7735C2.59577 16.7735 2.04639 17.3229 2.04639 18.0006C2.04639 18.6783 2.59577 19.2277 3.27346 19.2277Z" fill="#BDBDBD"/>
<path d="M18.0012 4.49987C18.6789 4.49987 19.2283 3.95049 19.2283 3.27279C19.2283 2.5951 18.6789 2.04572 18.0012 2.04572C17.3235 2.04572 16.7742 2.5951 16.7742 3.27279C16.7742 3.95049 17.3235 4.49987 18.0012 4.49987Z" fill="#BDBDBD"/>
<path d="M18.0012 33.954C18.6789 33.954 19.2283 33.4046 19.2283 32.727C19.2283 32.0493 18.6789 31.4999 18.0012 31.4999C17.3235 31.4999 16.7742 32.0493 16.7742 32.727C16.7742 33.4046 17.3235 33.954 18.0012 33.954Z" fill="#BDBDBD"/>
<path d="M7.5696 8.81349C8.2473 8.81349 8.79668 8.26411 8.79668 7.58642C8.79668 6.90872 8.2473 6.35934 7.5696 6.35934C6.89191 6.35934 6.34253 6.90872 6.34253 7.58642C6.34253 8.26411 6.89191 8.81349 7.5696 8.81349Z" fill="#BDBDBD"/>
<path d="M7.5696 29.6593C8.2473 29.6593 8.79668 29.1099 8.79668 28.4322C8.79668 27.7545 8.2473 27.2051 7.5696 27.2051C6.89191 27.2051 6.34253 27.7545 6.34253 28.4322C6.34253 29.1099 6.89191 29.6593 7.5696 29.6593Z" fill="#BDBDBD"/>
<path d="M28.4329 29.659C29.1106 29.659 29.66 29.1097 29.66 28.432C29.66 27.7543 29.1106 27.2049 28.4329 27.2049C27.7552 27.2049 27.2058 27.7543 27.2058 28.432C27.2058 29.1097 27.7552 29.659 28.4329 29.659Z" fill="#757575"/>
<path d="M18.0013 16.5688H32.7277C33.5965 16.5688 34.3072 17.2476 34.358 18.1034C34.3594 18.0686 34.3638 18.0352 34.3638 18.0004C34.3638 17.0968 33.6313 16.3643 32.7277 16.3643H18.0013C17.0977 16.3643 16.3652 17.0968 16.3652 18.0004C16.3652 18.0352 16.3667 18.0686 16.371 18.1034C16.4218 17.2476 17.1311 16.5688 18.0013 16.5688Z" fill="white" fill-opacity="0.2"/>
<path d="M34.358 18.1019C34.3043 18.9562 33.5951 19.6365 32.7277 19.6365H18.0013C17.1325 19.6365 16.4218 18.9577 16.371 18.1019C16.3667 18.1367 16.3652 18.1701 16.3652 18.2035C16.3652 19.1071 17.0977 19.8396 18.0013 19.8396H32.7277C33.6313 19.8396 34.3638 19.1071 34.3638 18.2035C34.3638 18.1701 34.3623 18.1367 34.358 18.1019Z" fill="#212121" fill-opacity="0.2"/>
<path d="M18.0013 6.75075C21.1632 6.75075 24.0264 8.03295 26.1005 10.1056L30.829 5.37428C30.7942 5.33947 30.7608 5.30466 30.7275 5.2713L26.1005 9.89967C24.0264 7.82698 21.1632 6.54479 18.0013 6.54479C11.6744 6.54479 6.54712 11.6721 6.54712 17.9989C6.54712 18.0338 6.54857 18.0671 6.54857 18.1019C6.60369 11.823 11.7092 6.75075 18.0013 6.75075Z" fill="#212121" fill-opacity="0.1"/>
<path d="M18.0012 36.0004C27.9423 36.0004 36.0012 27.9415 36.0012 18.0004C36.0012 8.05927 27.9423 0.000396729 18.0012 0.000396729C8.06009 0.000396729 0.0012207 8.05927 0.0012207 18.0004C0.0012207 27.9415 8.06009 36.0004 18.0012 36.0004Z" fill="url(#paint0_radial_202_14549)"/>
</g>
<defs>
<radialGradient id="paint0_radial_202_14549" cx="0" cy="0" r="1" gradientUnits="userSpaceOnUse" gradientTransform="translate(5.27983 5.23802) scale(35.9378)">
<stop stop-color="white" stop-opacity="0.1"/>
<stop offset="1" stop-color="white" stop-opacity="0"/>
</radialGradient>
<clipPath id="clip0_202_14549">
<rect width="37" height="36.0004" fill="white"/>
</clipPath>
</defs>
</svg>
