<svg width="28" height="37" viewBox="0 0 28 37" fill="none" xmlns="http://www.w3.org/2000/svg">
<g clip-path="url(#clip0_202_11137)">
<path d="M17.4332 0.00177002H2.86239C1.49012 0.00177002 0.290649 1.20124 0.290649 2.57351V33.43C0.290649 34.8009 1.49012 36.0018 2.86239 36.0018H25.1469C26.5178 36.0018 27.7187 34.8023 27.7187 33.43V10.2873L21.7184 6.00201L17.4332 0.00177002Z" fill="#673AB7"/>
<path d="M10.5762 26.5716H20.8617V24.858H10.5762V26.5716ZM10.5762 15.4293V17.1428H20.8617V15.4293H10.5762ZM9.03254 16.2875C9.03254 16.9729 8.51848 17.6583 7.66172 17.6583C6.80495 17.6583 6.29089 17.1443 6.29089 16.2875C6.29089 15.4307 6.80495 14.9167 7.66172 14.9167C8.51848 14.9167 9.03254 15.6007 9.03254 16.2875ZM9.03254 21.0868C9.03254 21.7723 8.51848 22.4577 7.66172 22.4577C6.80495 22.4577 6.29089 21.9436 6.29089 21.0868C6.29089 20.2301 6.80495 19.716 7.66172 19.716C8.51848 19.716 9.03254 20.4014 9.03254 21.0868ZM9.03254 25.7148C9.03254 26.4002 8.51848 27.0856 7.66172 27.0856C6.80495 27.0856 6.29089 26.5716 6.29089 25.7148C6.29089 24.858 6.80495 24.344 7.66172 24.344C8.51848 24.344 9.03254 25.0294 9.03254 25.7148ZM10.5762 22.2863H20.8617V20.5713H10.5762V22.2863Z" fill="#F1F1F1"/>
<path d="M18.1185 9.60187L27.7186 19.0306V10.2873L18.1185 9.60187Z" fill="url(#paint0_linear_202_11137)"/>
<path d="M17.4331 0.00177002V7.71554C17.4331 9.08637 18.6326 10.2873 20.0048 10.2873H27.7186L17.4331 0.00177002Z" fill="#B39DDB"/>
<path d="M2.86239 0.00177002C1.49012 0.00177002 0.290649 1.20124 0.290649 2.57351V2.74486C0.290649 1.3726 1.49012 0.173123 2.86239 0.173123H17.4332V0.00177002H2.86239Z" fill="white" fill-opacity="0.2"/>
<path d="M25.1469 35.829H2.86239C1.49012 35.829 0.290649 34.6295 0.290649 33.2573V33.4286C0.290649 34.7994 1.49012 36.0004 2.86239 36.0004H25.1469C26.5178 36.0004 27.7187 34.8009 27.7187 33.4286V33.2573C27.7187 34.6295 26.5178 35.829 25.1469 35.829Z" fill="#311B92" fill-opacity="0.2"/>
<path d="M20.0035 10.2873C18.6327 10.2873 17.4318 9.08778 17.4318 7.71552V7.88687C17.4318 9.25769 18.6312 10.4586 20.0035 10.4586H27.7173V10.2873H20.0035Z" fill="#311B92" fill-opacity="0.1"/>
<path d="M17.4332 0.00177002H2.86239C1.49012 0.00177002 0.290649 1.20124 0.290649 2.57351V33.43C0.290649 34.8009 1.49012 36.0018 2.86239 36.0018H25.1469C26.5178 36.0018 27.7187 34.8023 27.7187 33.43V10.2873L17.4332 0.00177002Z" fill="url(#paint1_radial_202_11137)"/>
</g>
<defs>
<linearGradient id="paint0_linear_202_11137" x1="22.918" y1="10.3523" x2="22.918" y2="19.0667" gradientUnits="userSpaceOnUse">
<stop stop-color="#311B92" stop-opacity="0.2"/>
<stop offset="1" stop-color="#311B92" stop-opacity="0.02"/>
</linearGradient>
<radialGradient id="paint1_radial_202_11137" cx="0" cy="0" r="1" gradientUnits="userSpaceOnUse" gradientTransform="translate(1.15837 0.962504) scale(353.788 353.785)">
<stop stop-color="white" stop-opacity="0.1"/>
<stop offset="1" stop-color="white" stop-opacity="0"/>
</radialGradient>
<clipPath id="clip0_202_11137">
<rect width="28" height="37" fill="white"/>
</clipPath>
</defs>
</svg>
