<svg width="30" height="32" viewBox="0 0 30 32" fill="none" xmlns="http://www.w3.org/2000/svg">
<g clip-path="url(#clip0_202_14130)">
<path d="M29.4556 27.9958C29.4615 29.1359 28.9779 30.2238 28.1275 30.9832C27.277 31.7426 26.1415 32.1005 25.0093 31.966C22.9719 31.6646 21.4789 29.8916 21.5285 27.8326V4.16046C21.4794 2.09923 22.976 0.325393 25.0161 0.0270171C26.1473 -0.105374 27.2808 0.253478 28.1297 1.01265C28.9786 1.77183 29.4613 2.85848 29.4556 3.9973V27.9958Z" fill="#F9AB00"/>
<path d="M4.51207 24.073C6.70104 24.073 8.47555 25.8476 8.47555 28.0365C8.47555 30.2255 6.70104 32 4.51207 32C2.3231 32 0.548584 30.2255 0.548584 28.0365C0.548584 25.8476 2.3231 24.073 4.51207 24.073ZM14.9409 12.0602C12.7415 12.1808 11.0351 14.0256 11.0861 16.2277V26.874C11.0861 29.7633 12.3575 31.5173 14.2202 31.8912C15.3897 32.1283 16.6037 31.8267 17.5263 31.0702C18.449 30.3136 18.9825 29.1821 18.9791 27.9889V16.0441C18.9811 14.9775 18.5545 13.9547 17.7951 13.2056C17.0358 12.4565 16.0074 12.0438 14.9409 12.0602Z" fill="#E37400"/>
</g>
<defs>
<clipPath id="clip0_202_14130">
<rect width="30" height="32" fill="white"/>
</clipPath>
</defs>
</svg>
