<svg width="41" height="18" viewBox="0 0 41 18" fill="none" xmlns="http://www.w3.org/2000/svg">
<g clip-path="url(#clip0_202_14385)">
<g clip-path="url(#clip1_202_14385)">
<path fill-rule="evenodd" clip-rule="evenodd" d="M18.4558 13.6507V8.81716H20.9505C21.9727 8.81716 22.8356 8.47462 23.539 7.79907L23.7078 7.6278C24.9926 6.22912 24.9082 4.05022 23.539 2.7562C22.8543 2.07113 21.9165 1.70005 20.9505 1.71908H16.9459V13.6507H18.4558ZM18.456 7.35178V3.18427H20.9886C21.5326 3.18427 22.0485 3.3936 22.4331 3.7742C23.2491 4.57344 23.2679 5.90552 22.48 6.73331C22.0954 7.14245 21.5514 7.37081 20.9886 7.35178H18.456Z" fill="#3C4043"/>
<path fill-rule="evenodd" clip-rule="evenodd" d="M30.7511 6.12442C30.1039 5.52498 29.2224 5.22051 28.1063 5.22051C26.6714 5.22051 25.5929 5.75334 24.8801 6.80949L26.2119 7.65631C26.6995 6.93318 27.3654 6.57162 28.2095 6.57162C28.7441 6.57162 29.2599 6.77143 29.6632 7.13299C30.057 7.47553 30.2821 7.9703 30.2821 8.49362V8.84567C29.7007 8.52216 28.9691 8.35089 28.0688 8.35089C27.0184 8.35089 26.1743 8.59828 25.546 9.10257C24.9176 9.60686 24.5988 10.2729 24.5988 11.1197C24.58 11.8904 24.9083 12.6231 25.4897 13.1178C26.0806 13.6507 26.8308 13.9171 27.7124 13.9171C28.7534 13.9171 29.5787 13.4509 30.2071 12.5184H30.2728V13.6507H31.717V8.61731C31.717 7.56116 31.3982 6.72385 30.7511 6.12442ZM26.6529 12.1473C26.3434 11.919 26.1558 11.5479 26.1558 11.1483C26.1558 10.7011 26.3621 10.33 26.7655 10.0351C27.1782 9.74009 27.6941 9.58785 28.3038 9.58785C29.148 9.57834 29.8046 9.76864 30.2736 10.1492C30.2736 10.7962 30.0203 11.3576 29.5232 11.8334C29.0729 12.2901 28.4632 12.547 27.8254 12.547C27.4033 12.5565 26.9906 12.4138 26.6529 12.1473Z" fill="#3C4043"/>
<path d="M34.962 17.2378L40.0077 5.48691H38.3664L36.0312 11.3481H36.003L33.6115 5.48691H31.9703L35.2809 13.1273L33.4052 17.2378H34.962Z" fill="#3C4043"/>
<g clip-path="url(#clip2_202_14385)">
<path d="M13.2429 7.77052C13.2429 7.30429 13.2054 6.83806 13.1304 6.38135H6.76239V9.01696H10.4106C10.2606 9.86378 9.77289 10.625 9.06012 11.1007V12.8134H11.2359C12.5114 11.624 13.2429 9.86378 13.2429 7.77052Z" fill="#4285F4"/>
<path d="M6.76267 14.469C8.5821 14.469 10.1202 13.8601 11.2362 12.8135L9.06041 11.1008C8.4508 11.5194 7.67239 11.7573 6.76267 11.7573C4.99952 11.7573 3.50834 10.5489 2.97376 8.9314H0.7323V10.7012C1.87648 13.0133 4.21172 14.469 6.76267 14.469Z" fill="#34A853"/>
<path d="M2.97399 8.93139C2.69259 8.08457 2.69259 7.16163 2.97399 6.30529V4.54504H0.732173C-0.233966 6.47656 -0.233966 8.76012 0.732173 10.6916L2.97399 8.93139Z" fill="#FBBC04"/>
<path d="M6.76267 3.47936C7.72866 3.46033 8.65713 3.83141 9.35114 4.50696L11.2831 2.5469C10.0545 1.38609 8.44142 0.748596 6.76267 0.767626C4.21172 0.767626 1.87648 2.23291 0.7323 4.54502L2.97376 6.31479C3.50833 4.68775 4.99952 3.47936 6.76267 3.47936Z" fill="#EA4335"/>
</g>
</g>
</g>
<defs>
<clipPath id="clip0_202_14385">
<rect width="41" height="18" fill="white"/>
</clipPath>
<clipPath id="clip1_202_14385">
<rect width="40" height="16.4706" fill="white" transform="translate(0.00756836 0.767212)"/>
</clipPath>
<clipPath id="clip2_202_14385">
<rect width="13.2354" height="13.7018" fill="white" transform="translate(0.00756836 0.767212)"/>
</clipPath>
</defs>
</svg>
