<svg width="36" height="36" viewBox="0 0 36 36" fill="none" xmlns="http://www.w3.org/2000/svg">
<g clip-path="url(#clip0_202_15587)">
<path d="M8.5796 19.4194V7.71878H3.46734C1.96247 7.71878 0.745605 8.94284 0.745605 10.4477V34.6337C0.745605 35.8506 2.21448 36.4554 3.07132 35.5986L8.6948 29.9751H24.7084C26.2133 29.9751 27.4301 28.7582 27.4301 27.2534V22.1411H11.3085C9.80366 22.1411 8.5796 20.9242 8.5796 19.4194Z" fill="#00AC47"/>
<path d="M32.5424 0H11.3085C9.80365 0 8.58679 1.21686 8.58679 2.72174V7.71878H24.7084C26.2133 7.71878 27.4301 8.93565 27.4301 10.4405V22.1339H32.5424C34.0473 22.1339 35.2641 20.917 35.2641 19.4122V2.72174C35.2641 1.21686 34.0473 0 32.5424 0Z" fill="#5BB974"/>
<path d="M24.7084 7.71878H8.57959V19.4122C8.57959 20.917 9.79645 22.1339 11.3013 22.1339H27.4229V10.4477C27.4301 8.94284 26.2133 7.71878 24.7084 7.71878Z" fill="#00832D"/>
</g>
<defs>
<clipPath id="clip0_202_15587">
<rect width="36" height="36" fill="white"/>
</clipPath>
</defs>
</svg>
