<svg width="37" height="36" viewBox="0 0 37 36" fill="none" xmlns="http://www.w3.org/2000/svg">
<g clip-path="url(#clip0_202_11159)">
<path d="M25.5799 35.9806H2.84308C1.27534 35.976 0.00556658 34.707 0.000976562 33.14V2.84057C0.00556658 1.27367 1.27534 0.00458455 2.84308 0H33.1589C34.7266 0.00458455 35.9964 1.27367 36.001 2.84057V25.5652L29.8431 29.826L25.5799 35.9806Z" fill="#F4B400"/>
<path d="M11.9757 8.16885C8.64404 11.4934 8.63972 16.8878 11.966 20.2176L11.9709 20.2225L13.7378 21.9932V28.4058L21.3167 35.9806H25.5799L36.0009 25.5652V20.142L24.0309 8.17849C20.7046 4.84865 15.3073 4.84433 11.9757 8.16885Z" fill="url(#paint0_linear_202_11159)"/>
<path opacity="0.2" d="M25.5801 35.9806V28.4058C25.5796 26.8374 26.8514 25.5656 28.4206 25.5652H36.0011L25.5801 35.9806Z" fill="#3E2723"/>
<path d="M25.5801 35.9806V28.4058C25.5796 26.8374 26.8514 25.5656 28.4206 25.5652H36.0011L25.5801 35.9806Z" fill="#FADA80"/>
<path d="M28.4206 25.5652C26.8514 25.5656 25.5796 26.8374 25.5801 28.4058V28.6409C25.5805 27.0725 26.853 25.8015 28.4222 25.8019H35.7643L36.0011 25.5652H28.4222L28.4206 25.5652Z" fill="white" fill-opacity="0.2"/>
<path opacity="0.1" d="M18.0009 5.68115C13.2925 5.68058 9.47518 9.49496 9.47461 14.2008C9.47424 17.2455 11.0994 20.0591 13.7378 21.5813V28.4058H15.6325V30.2995H20.843V28.4058H22.7378V21.2877C26.653 18.6733 27.7064 13.3817 25.0906 9.46858C23.5086 7.10192 20.8487 5.68098 18.0009 5.68115ZM20.843 26.512H15.6325V24.6183H20.843V26.512ZM20.843 20.1894V22.7246H15.6325V20.393C12.2104 19.0864 10.496 15.2546 11.8033 11.8343C13.1105 8.41404 16.9445 6.70057 20.3666 8.00713C23.7886 9.3137 25.503 13.1455 24.1958 16.5658C23.5865 18.1599 22.3856 19.4578 20.843 20.1894Z" fill="#3E2723"/>
<path d="M18.0009 5.68115C13.2925 5.68058 9.47518 9.49496 9.47461 14.2008C9.47424 17.2455 11.0994 20.0591 13.7378 21.5813V28.4058H15.6325V30.2995H20.843V28.4058H22.7378V21.2877C26.653 18.6733 27.7064 13.3817 25.0906 9.46858C23.5086 7.10192 20.8487 5.68098 18.0009 5.68115ZM20.843 26.512H15.6325V24.6183H20.843V26.512ZM20.843 20.1894V22.7246H15.6325V20.393C12.2104 19.0864 10.496 15.2546 11.8033 11.8343C13.1105 8.41404 16.9445 6.70057 20.3666 8.00713C23.7886 9.3137 25.503 13.1455 24.1958 16.5658C23.5865 18.1599 22.3856 19.4578 20.843 20.1894Z" fill="#F1F1F1"/>
<path d="M15.6325 26.7488H20.843V26.512H15.6325V26.7488ZM15.6325 22.9613H20.843V22.7246H15.6325V22.9613ZM15.6325 20.393C13.1002 19.4217 11.4141 17.0082 11.3741 14.2976C11.3741 14.3449 11.3693 14.3923 11.3693 14.442C11.3732 17.1878 13.0676 19.6481 15.6325 20.6321V20.393H15.6325ZM20.843 20.1894V20.4261C23.1552 19.3276 24.6296 16.9984 24.6325 14.4396C24.6325 14.3923 24.6301 14.3473 24.6278 14.2999C24.5904 16.823 23.1232 19.1061 20.843 20.1894ZM18.0009 5.68115C13.2921 5.68153 9.47498 9.49662 9.47461 14.2029C9.47461 14.236 9.47698 14.2692 9.47698 14.3047C9.5508 9.59957 13.4269 5.84514 18.1346 5.91892C22.7391 5.99108 26.4539 9.70499 26.5249 14.307C26.5249 14.2715 26.5272 14.2384 26.5272 14.2029C26.5269 9.49662 22.7097 5.68153 18.0009 5.68115Z" fill="white" fill-opacity="0.4"/>
<path d="M13.7378 21.5813C11.132 20.0774 9.51263 17.3118 9.47698 14.3047C9.47698 14.3497 9.47461 14.3946 9.47461 14.4396C9.47346 17.484 11.099 20.2973 13.7378 21.818V21.5813ZM15.6325 24.855H20.843V24.6183H15.6325V24.855ZM18.0009 7.81159C21.6068 7.81557 24.5496 10.6968 24.6278 14.2999C24.6278 14.2668 24.6325 14.236 24.6325 14.2029C24.6325 10.5423 21.6635 7.57487 18.0009 7.57487C14.3384 7.57487 11.3694 10.5423 11.3694 14.2029C11.3694 14.2337 11.3717 14.2644 11.3741 14.2952C11.4543 10.6937 14.3966 7.81502 18.0009 7.81159ZM20.843 28.6425H22.7378V28.4058H20.843V28.6425ZM26.5249 14.307C26.4933 17.1162 25.0761 19.7287 22.7378 21.2878V21.5245C25.1069 19.9448 26.5291 17.286 26.5272 14.4396C26.5272 14.3946 26.5249 14.352 26.5249 14.307ZM15.6325 28.4058H13.7378V28.6425H15.6325V28.4058ZM15.6325 30.5362H20.843V30.2995H15.6325V30.5362Z" fill="#BF360C" fill-opacity="0.1"/>
<path d="M33.1589 0H2.84308C1.27534 0.00458456 0.00556658 1.27367 0.000976562 2.84057V3.07729C0.00556658 1.51039 1.27534 0.2413 2.84308 0.236716H33.1589C34.7266 0.2413 35.9964 1.51039 36.001 3.07729V2.84057C35.9964 1.27367 34.7266 0.00458456 33.1589 0Z" fill="white" fill-opacity="0.2"/>
<path d="M2.84308 35.7439C1.27534 35.7393 0.00556658 34.4702 0.000976562 32.9033V33.14C0.00556658 34.7069 1.27534 35.976 2.84308 35.9806H25.5799L36.001 25.5652H35.7641L25.5799 35.7439H2.84308Z" fill="#BF360C" fill-opacity="0.1"/>
<path d="M25.5799 35.9806H2.84308C1.27534 35.976 0.00556658 34.707 0.000976562 33.14V2.84057C0.00556658 1.27367 1.27534 0.00458455 2.84308 0H33.1589C34.7266 0.00458455 35.9964 1.27367 36.001 2.84057V25.5652L25.5799 35.9806Z" fill="url(#paint1_radial_202_11159)"/>
</g>
<defs>
<linearGradient id="paint0_linear_202_11159" x1="11.5063" y1="10.9175" x2="30.9673" y2="30.3894" gradientUnits="userSpaceOnUse">
<stop stop-color="#BF360C" stop-opacity="0.1"/>
<stop offset="1" stop-color="#BF360C" stop-opacity="0.02"/>
</linearGradient>
<radialGradient id="paint1_radial_202_11159" cx="0" cy="0" r="1" gradientUnits="userSpaceOnUse" gradientTransform="translate(1.08699 1.1583) scale(41.9444 41.9211)">
<stop stop-color="white" stop-opacity="0.1"/>
<stop offset="1" stop-color="white" stop-opacity="0"/>
</radialGradient>
<clipPath id="clip0_202_11159">
<rect width="37" height="36" fill="white"/>
</clipPath>
</defs>
</svg>
