<svg width="36" height="36" viewBox="0 0 36 36" fill="none" xmlns="http://www.w3.org/2000/svg">
<g clip-path="url(#clip0_202_10484)">
<path d="M30.8418 3.46111C30.6022 3.38694 30.3479 3.34694 30.0847 3.34694H2.58738C1.16956 3.34694 0.00952148 4.50699 0.00952148 5.92482V33.4221C0.00952148 33.6853 0.0495366 33.9396 0.123695 34.1793L30.8418 3.46111H30.8418Z" fill="#139F5A"/>
<path d="M32.5628 34.1314L32.5686 34.1104L32.5779 34.0763L32.5838 34.0534L32.5927 34.017L32.5973 33.9982L32.6087 33.9459L32.6128 33.9256L32.6199 33.8888L32.6239 33.8672L32.6309 33.8251L32.6333 33.8105L32.6411 33.7554L32.6434 33.7363L32.6481 33.6962L32.6501 33.6763L32.6546 33.6268L32.6553 33.6182L32.659 33.5606L32.6598 33.5424L32.6615 33.4997L32.662 33.4811L32.6628 33.422L32.6628 33.422V5.92481C32.6628 5.66162 32.6227 5.40733 32.5486 5.16768L1.83032 35.8858C2.06997 35.96 2.32428 36 2.58745 36L30.1618 35.9987L30.2058 35.997L30.2231 35.9962L30.2814 35.9925L30.2882 35.9919L30.3396 35.9873L30.3585 35.9853L30.3999 35.9805L30.4179 35.9783L30.4736 35.9705L30.4867 35.9684L30.5305 35.9611L30.5511 35.9573L30.5892 35.95L30.6084 35.9461L30.6614 35.9345L30.6788 35.9303L30.7167 35.921L30.7386 35.9153L30.774 35.9057L30.7937 35.9002L30.842 35.8858L30.8419 35.8858C31.6537 35.6345 32.2972 34.9909 32.5485 34.1792L32.5485 34.1792L32.5629 34.1314H32.5628Z" fill="#CDCDCD"/>
<path d="M30.0847 3.34694L0.00952148 33.4221C0.00952148 34.84 1.16956 36 2.58738 36H3.01703L32.6626 6.35447V5.92482C32.6626 4.507 31.5026 3.34696 30.0847 3.34696L30.0847 3.34694Z" fill="#F5F5F5"/>
<path opacity="0.2" d="M30.0847 3.34694H2.58738C1.16956 3.34694 0.00952148 4.50699 0.00952148 5.92482V6.13964C0.00952148 4.72182 1.16956 3.56178 2.58738 3.56178H30.0847C31.5025 3.56178 32.6626 4.72182 32.6626 6.13964V5.92482C32.6626 4.507 31.5025 3.34694 30.0847 3.34694H30.0847Z" fill="white"/>
<path d="M26.6698 19.8532H32.6625V14.511L21.3179 14.634L26.6698 19.8532Z" fill="url(#paint0_linear_202_10484)"/>
<path d="M23.2193 19.4542C20.9078 20.0921 16.2517 21.8097 16.2517 24.4509V36H30.0846L30.1441 35.9992L30.1617 35.9987L30.2056 35.997L30.2229 35.9962L30.2812 35.9925L30.2881 35.9919L30.3395 35.9873L30.3584 35.9853L30.3998 35.9805L30.4177 35.9783L30.4734 35.9705L30.4866 35.9684L30.5303 35.9611L30.5509 35.9573L30.5891 35.95L30.6082 35.9461L30.6612 35.9345L30.6786 35.9303L30.7165 35.921L30.7385 35.9153L30.7738 35.9057L30.7936 35.9002L30.8418 35.8858L30.8418 35.8858C31.6535 35.6345 32.2971 34.991 32.5483 34.1792L32.5484 34.1792L32.5627 34.1313L32.5685 34.1104L32.5778 34.0762L32.5837 34.0534L32.5926 34.017L32.5972 33.9982L32.6086 33.9458L32.6127 33.9256L32.6198 33.8888L32.6238 33.8671L32.6308 33.8251L32.6332 33.8105L32.641 33.7554L32.6433 33.7363L32.648 33.6962L32.65 33.6763L32.6545 33.6268L32.6552 33.6182L32.6589 33.5606L32.6597 33.5423L32.6614 33.4996L32.6619 33.4811L32.6627 33.422V19.9492C32.6627 19.9492 22.4833 19.6576 23.2195 19.4542H23.2193Z" fill="#FFC108"/>
<path d="M23.3638 19.4149L23.2986 19.4325L23.2839 19.4365L23.2193 19.4542C22.4831 19.6576 21.5142 19.9707 20.5359 20.3885L27.6064 27.4779L32.6625 22.3834V19.6768C29.8082 18.7614 27.018 18.4358 23.3638 19.415V19.4149Z" fill="#F79022"/>
<path opacity="0.2" d="M23.2193 19.7267L23.2207 19.7264L23.2839 19.709L23.2986 19.705L23.3638 19.6874C27.018 18.7082 29.8082 19.0338 32.6625 19.9492V19.6767C29.8082 18.7613 27.0181 18.4357 23.3638 19.4149L23.2986 19.4325L23.2839 19.4365L23.2193 19.4542C20.9078 20.0921 16.2517 21.8097 16.2517 24.4509V24.7234C16.2517 22.0822 20.9078 20.3645 23.2193 19.7267Z" fill="white"/>
<path fill-rule="evenodd" clip-rule="evenodd" d="M27.4096 0C32.1509 0 35.9945 3.8436 35.9945 8.58488C35.9945 13.3262 32.1509 17.1698 27.4096 17.1698C22.6683 17.1698 18.8247 13.3262 18.8247 8.58488C18.8247 3.8436 22.6683 0 27.4096 0Z" fill="#FFC20B"/>
<path opacity="0.2" fill-rule="evenodd" clip-rule="evenodd" d="M27.4096 0.262411C32.1071 0.262411 35.9233 4.03531 35.9934 8.71609L35.9945 8.58488C35.9945 3.8436 32.151 0 27.4096 0C22.6683 0 18.8247 3.8436 18.8247 8.58488L18.8258 8.71609C18.896 4.03532 22.7121 0.262411 27.4096 0.262411Z" fill="white"/>
<path opacity="0.1" fill-rule="evenodd" clip-rule="evenodd" d="M27.4096 16.9578C22.7037 16.9578 18.8822 13.1714 18.8254 8.4789L18.8247 8.58487C18.8247 13.3262 22.6683 17.1698 27.4096 17.1698C32.1509 17.1698 35.9945 13.3262 35.9945 8.58487L35.9938 8.4789C35.937 13.1714 32.1156 16.9578 27.4096 16.9578Z" fill="#263238"/>
<path opacity="0.1" d="M30.0847 35.7852H2.58738C1.16956 35.7852 0.00952148 34.6251 0.00952148 33.2073V33.4221C0.00952148 34.84 1.16956 36 2.58738 36H30.0847C31.5025 36 32.6626 34.84 32.6626 33.4221V33.2073C32.6626 34.6251 31.5025 35.7852 30.0847 35.7852L30.0847 35.7852Z" fill="#263238"/>
<path d="M7.28324 9.87229V11.7026H9.82674C9.6248 12.7896 8.671 13.5801 7.28324 13.5801C5.74081 13.5801 4.48625 12.2741 4.48625 10.7359C4.48625 9.19765 5.74081 7.89162 7.28324 7.89162C7.97928 7.89162 8.59795 8.13221 9.09206 8.59624L10.4454 7.24286C9.62482 6.4738 8.5593 6.00548 7.28324 6.00548C4.67099 6.00548 2.55713 8.11934 2.55713 10.7316C2.55713 13.3438 4.67099 15.4577 7.28324 15.4577C10.0115 15.4577 11.8203 13.5372 11.8203 10.839C11.8203 10.5039 11.7902 10.1816 11.7344 9.87231L7.28323 9.87229H7.28324Z" fill="#EEEEEE"/>
<path fill-rule="evenodd" clip-rule="evenodd" d="M32.6626 22.4439V15.3754C32.8525 15.2282 33.0362 15.0733 33.2129 14.911L33.2134 14.9106L33.3014 14.8286C33.4464 14.6918 33.5865 14.55 33.7217 14.4035L33.7243 14.4007L33.8015 14.3158L33.8051 14.3118C33.9373 14.1643 34.0644 14.0121 34.1863 13.8557L34.1917 13.8487L34.2581 13.7622L34.2646 13.7536L34.332 13.6632L34.3342 13.6601C34.4051 13.5636 34.4739 13.4657 34.5408 13.3662L34.5421 13.3642L34.6043 13.2702L34.6124 13.2577L34.6676 13.1716L34.6768 13.157L34.7321 13.0682L34.7383 13.0581C34.8002 12.957 34.86 12.8544 34.9178 12.7506L34.9226 12.7418L34.9729 12.6497L34.9831 12.6307L35.0276 12.5466L35.0386 12.5253L35.0825 12.4394L35.0915 12.4214L35.1415 12.3199L35.1424 12.3181L35.2431 12.1022L35.2503 12.086L35.2896 11.9969L35.3008 11.971L35.3352 11.8897L35.347 11.8614L35.3805 11.7789L35.3908 11.7533L35.4278 11.6586L35.4329 11.6455L35.514 11.4238L35.5222 11.4L35.5514 11.3143L35.5622 11.2819L35.5877 11.2033L35.5988 11.1686L35.6233 11.0895L35.6333 11.0566L35.6594 10.9678L35.666 10.945L35.7274 10.7178L35.735 10.6875L35.7555 10.6048L35.7645 10.5666L35.7822 10.4904L35.7912 10.45L35.8078 10.3734L35.816 10.3347L35.833 10.2503L35.8391 10.2195L35.8608 10.1028C35.8608 10.1027 35.8608 10.1026 35.8608 10.1026L35.8805 9.98734L35.8861 9.95185L35.8988 9.87091L35.905 9.82834L35.9156 9.75327L35.9216 9.70883L35.9311 9.63347L35.9363 9.59041L35.9454 9.50821L35.9493 9.4722L35.9607 9.35353L35.9609 9.35084L35.9703 9.23496L35.973 9.19638L35.9784 9.11547L35.981 9.07019L35.9849 8.99495L35.987 8.94793L35.9897 8.87237L35.9912 8.82675L35.993 8.74486L35.9938 8.70581L35.9947 8.58486C35.9945 3.8436 32.151 0 27.4096 0L27.2884 0.000904864L27.2494 0.00164886L27.1673 0.00345859L27.1217 0.00490638L27.0459 0.00772151L26.999 0.0098027L26.9233 0.0138243L26.8783 0.0163881L26.7961 0.0218676L26.7587 0.0244816L26.6396 0.0341838L26.6358 0.0345457L26.5212 0.0456052L26.4833 0.0496972L26.4027 0.0586654L26.3589 0.0639538L26.284 0.0734046L26.2393 0.0793767L26.1639 0.090034L26.1216 0.0962172L26.0385 0.109187L26.0051 0.114516L25.8883 0.134624L25.885 0.135247L25.773 0.156129L25.7381 0.163026L25.6576 0.179254L25.617 0.18783L25.5419 0.204117L25.5006 0.213367L25.4247 0.231002L25.3863 0.240111L25.3012 0.261204L25.2733 0.268202L25.1587 0.298344C25.1586 0.298374 25.1585 0.298414 25.1584 0.298444L25.0469 0.329511L25.0162 0.338419L24.935 0.362348L24.8986 0.373427L24.8227 0.396984L24.7859 0.408687L24.7085 0.433822L24.6753 0.444841L24.5865 0.475225L24.5661 0.482283L24.3457 0.563047L24.3205 0.572799L24.2378 0.605173L24.2064 0.617781L24.1293 0.64923L24.0976 0.662421L24.0184 0.696042L23.9912 0.707775L23.898 0.748926L23.8862 0.754174L23.6727 0.853991L23.6532 0.863522L23.5691 0.905076L23.5432 0.918166L23.4648 0.958261L23.4387 0.971834L23.3577 1.01477L23.3369 1.02593L23.2387 1.07973L23.2367 1.08084L23.0308 1.19938L23.0169 1.20772L22.932 1.25902L22.9114 1.27172L22.8324 1.32102L22.8118 1.33401L22.7296 1.38693L22.7149 1.39648C22.6162 1.46109 22.5189 1.52768 22.423 1.59621L22.414 1.60272L22.3295 1.66402L22.3138 1.67564L22.2351 1.7344L22.2195 1.74623L22.1373 1.8095L22.1282 1.81659C22.0347 1.88966 21.9427 1.96462 21.8524 2.04142L21.847 2.04605L21.7648 2.11698L21.7529 2.12734L21.6762 2.19537L21.6647 2.20569L21.584 2.27934L21.5795 2.28351C21.4919 2.36457 21.406 2.44745 21.3219 2.53206L21.319 2.53498L21.2408 2.61481L21.2317 2.6242L21.1588 2.70065L21.1501 2.70986L21.0716 2.79461C20.9907 2.88305 20.9117 2.97317 20.8346 3.06497L20.8326 3.06731L20.7605 3.15436L20.753 3.16359L20.6858 3.24704L20.6787 3.25593L20.6075 3.34692C20.6075 3.34698 20.6074 3.34702 20.6074 3.34709H2.58738C2.25507 3.34709 1.93693 3.41082 1.64457 3.52666C1.5861 3.54982 1.52865 3.57508 1.47235 3.60232C1.39724 3.63864 1.32415 3.67849 1.25329 3.72168C1.18243 3.76486 1.11376 3.81136 1.04754 3.86097C1.01445 3.88576 0.981954 3.91133 0.950078 3.93767C0.663336 4.17458 0.428172 4.47202 0.264733 4.80994C0.219329 4.9038 0.179455 5.00078 0.145553 5.10047C0.0975632 5.24152 0.0620335 5.3865 0.039372 5.53376C0.0327992 5.57649 0.0273079 5.61937 0.0229034 5.66238L0.0170721 5.72739C0.0120752 5.79244 0.00952148 5.85834 0.00952148 5.92481L0.0107883 33.4992L0.0124774 33.5432L0.0133018 33.5605L0.0170218 33.6186L0.0176452 33.6259L0.0221996 33.6768L0.0242104 33.696L0.0289359 33.7369L0.0312081 33.7553L0.0390301 33.8108L0.0412621 33.8246L0.0484206 33.8675V33.8676L0.0522713 33.8887L0.05947 33.926L0.0634614 33.9458L0.0749934 33.9985L0.0793469 34.0166L0.0884558 34.0537L0.0942671 34.0761L0.103748 34.1109V34.111L0.109378 34.1311L0.123725 34.1792L0.123766 34.1792L0.131336 34.203L0.140284 34.2304L0.148287 34.2543L0.163007 34.2958L0.171985 34.3201L0.182592 34.3478L0.195903 34.3815L0.207707 34.4102L0.217831 34.4341L0.23253 34.4675L0.245731 34.4965L0.257796 34.5223L0.268856 34.5451L0.28832 34.5841L0.300083 34.6069L0.313486 34.6322L0.330236 34.6629L0.346121 34.6913L0.35899 34.7136L0.375841 34.742L0.393757 34.7714L0.408838 34.7956L0.422481 34.817L0.44641 34.8532L0.460566 34.874L0.476653 34.8973L0.495303 34.9234L0.516215 34.952L0.531528 34.9724L0.55056 34.9972L0.572377 35.0249L0.590736 35.0477L0.606792 35.0672L0.634843 35.1003L0.65107 35.1189L0.669942 35.1401L0.687577 35.1597L0.715828 35.19L0.733322 35.2083L0.754366 35.2298L0.7794 35.2549L0.800966 35.2759L0.819264 35.2934L0.849728 35.3218L0.869112 35.3393L0.890326 35.3581L0.908926 35.3744L0.942085 35.4024L0.961549 35.4184L0.984412 35.4369L1.012 35.4586L1.03686 35.4777L1.05723 35.493L1.08614 35.5141L1.11205 35.5325L1.13541 35.5487L1.15619 35.5629L1.19242 35.5868L1.21377 35.6004L1.23804 35.6156L1.26734 35.6335L1.29585 35.6504L1.31812 35.6632L1.34657 35.6792L1.37716 35.6958L1.4026 35.7093L1.42526 35.721L1.46431 35.7405L1.48716 35.7515L1.5129 35.7635L1.54206 35.7768L1.57547 35.7914L1.5993 35.8015L1.62809 35.8134L1.66172 35.8267L1.68947 35.8373L1.71364 35.8463L1.7553 35.8611L1.77909 35.8691L1.8066 35.8781L1.83035 35.8856L1.83033 35.8856L1.87836 35.9L1.89883 35.9057C1.89884 35.9057 1.89885 35.9057 1.89886 35.9057C1.89887 35.9057 1.89888 35.9057 1.89889 35.9057L1.93331 35.9151H1.93333L1.95596 35.9209L1.99275 35.93L2.01113 35.9344L2.06367 35.9459L2.08368 35.9499L2.12088 35.9571H2.12094L2.14232 35.9609L2.18468 35.968C2.18469 35.968 2.18471 35.968 2.18472 35.968H2.18477L2.19902 35.9703L2.25425 35.9781L2.27312 35.9805L2.3134 35.9851L2.33317 35.9872H2.33321L2.38284 35.9916L2.39135 35.9923L2.44896 35.996L2.46705 35.9969L2.50983 35.9985L2.52838 35.999L2.5875 35.9998L30.1619 35.9985L30.2059 35.9969H30.206L30.223 35.996H30.2231L30.2814 35.9923L30.2881 35.9918H30.2881C30.2882 35.9918 30.2882 35.9918 30.2883 35.9917L30.3396 35.9871H30.3396L30.3584 35.9852C30.3584 35.9852 30.3585 35.9852 30.3585 35.9852L30.3999 35.9804C30.4 35.9804 30.4 35.9804 30.4001 35.9804L30.4178 35.9782H30.4179L30.4364 35.9756L30.4736 35.9704C30.4736 35.9704 30.4736 35.9703 30.4737 35.9703L30.4863 35.9683C30.4864 35.9683 30.4866 35.9683 30.4867 35.9682L30.5304 35.9609C30.5305 35.9609 30.5305 35.9609 30.5306 35.9609L30.5509 35.9572C30.551 35.9572 30.551 35.9572 30.5511 35.9572L30.5892 35.9498C30.5893 35.9498 30.5894 35.9498 30.5895 35.9498L30.6083 35.946C30.6083 35.946 30.6083 35.946 30.6084 35.946L30.6614 35.9344C30.6614 35.9344 30.6615 35.9344 30.6615 35.9343L30.6783 35.9303C30.6784 35.9303 30.6786 35.9303 30.6787 35.9302L30.7132 35.9218L30.7166 35.9209C30.7167 35.9209 30.7167 35.9209 30.7168 35.9209L30.7384 35.9152C30.7385 35.9152 30.7385 35.9152 30.7386 35.9152L30.7739 35.9056C30.7741 35.9055 30.7742 35.9055 30.7744 35.9055L30.7935 35.9001C30.7936 35.9001 30.7936 35.9001 30.7937 35.9001L30.8419 35.8857L30.8419 35.8856C30.8419 35.8856 30.842 35.8856 30.842 35.8856C30.8421 35.8856 30.842 35.8856 30.842 35.8856L30.8653 35.8782L30.8934 35.869C30.8934 35.869 30.8934 35.869 30.8934 35.869C30.8934 35.869 30.8934 35.869 30.8934 35.869L30.9167 35.8612C30.9168 35.8612 30.9168 35.8612 30.9168 35.8612C30.917 35.8611 30.9172 35.861 30.9175 35.861L30.9588 35.8463L30.9825 35.8375L30.992 35.834L31.0111 35.8266L31.0434 35.8138L31.0732 35.8016L31.0965 35.7917C31.0965 35.7917 31.0965 35.7917 31.0965 35.7917C31.0965 35.7917 31.0965 35.7917 31.0966 35.7917L31.1316 35.7763C31.1316 35.7763 31.1317 35.7763 31.1318 35.7762C31.1318 35.7762 31.1318 35.7762 31.1318 35.7762L31.1587 35.764L31.1854 35.7514L31.2076 35.7408L31.2471 35.7211L31.2691 35.7097C31.2691 35.7097 31.2691 35.7097 31.2691 35.7097C31.2691 35.7097 31.2691 35.7097 31.2691 35.7097L31.2957 35.6956L31.3243 35.6801L31.3544 35.6632L31.3759 35.6508L31.4062 35.6328L31.4333 35.6163L31.4589 35.6003L31.4793 35.5872C31.4794 35.5872 31.4794 35.5872 31.4794 35.5872C31.4794 35.5872 31.4794 35.5872 31.4794 35.5872L31.5163 35.5628L31.536 35.5494C31.536 35.5494 31.536 35.5494 31.5361 35.5494C31.5361 35.5493 31.5361 35.5493 31.5361 35.5493L31.5608 35.5322C31.5608 35.5322 31.5608 35.5321 31.5609 35.5321C31.5609 35.5321 31.5609 35.5321 31.5609 35.5321L31.584 35.5157L31.6152 35.4929C31.6152 35.4929 31.6152 35.4929 31.6153 35.4929C31.6153 35.4929 31.6153 35.4928 31.6153 35.4928L31.6348 35.4782L31.6615 35.4577L31.6867 35.4378L31.711 35.4182L31.7296 35.403C31.7296 35.403 31.7296 35.4029 31.7296 35.4029C31.7297 35.4029 31.7297 35.4029 31.7297 35.4029L31.7635 35.3743C31.7635 35.3743 31.7635 35.3743 31.7635 35.3743C31.7635 35.3743 31.7635 35.3743 31.7635 35.3742L31.781 35.359C31.781 35.359 31.781 35.359 31.781 35.3589C31.7811 35.3589 31.7811 35.3589 31.7811 35.3589L31.8037 35.3388L31.8207 35.3235L31.8533 35.2932L31.8706 35.2767L31.8706 35.2766L31.8776 35.2699L31.8826 35.2651L31.894 35.2537L31.9164 35.2313L31.9327 35.2149L31.9393 35.2079L31.9394 35.2079L31.9559 35.1906L31.9862 35.158L32.0014 35.1411L32.0014 35.1411L32.0217 35.1183C32.0217 35.1183 32.0217 35.1183 32.0217 35.1183L32.0369 35.1009L32.0369 35.1008L32.0378 35.0998L32.0657 35.0668C32.0657 35.0668 32.0657 35.0668 32.0657 35.0668C32.0657 35.0668 32.0657 35.0668 32.0657 35.0668L32.0877 35.04L32.0997 35.025L32.1008 35.0237L32.12 34.9992C32.1201 34.9992 32.1201 34.9992 32.1201 34.9992L32.1202 34.9991L32.141 34.9719C32.141 34.9719 32.141 34.9719 32.141 34.9719C32.141 34.9719 32.141 34.9719 32.141 34.9719L32.1554 34.9527C32.1554 34.9527 32.1554 34.9527 32.1554 34.9527C32.1555 34.9527 32.1555 34.9526 32.1555 34.9526L32.179 34.9204L32.1946 34.8985C32.1946 34.8984 32.1946 34.8984 32.1946 34.8984C32.1946 34.8984 32.1946 34.8984 32.1946 34.8984L32.2121 34.8732C32.2121 34.8732 32.2121 34.8732 32.2122 34.8731C32.2122 34.8731 32.2122 34.8731 32.2122 34.8731L32.2254 34.8537L32.2483 34.8191L32.2492 34.8177L32.25 34.8164C32.25 34.8164 32.25 34.8164 32.25 34.8164L32.2628 34.7965L32.2793 34.77L32.2948 34.7446C32.2948 34.7446 32.2948 34.7446 32.2948 34.7446C32.2949 34.7446 32.2949 34.7445 32.2949 34.7445L32.3137 34.7129L32.3258 34.6919L32.3274 34.6891L32.3296 34.6853L32.3435 34.6604C32.3435 34.6604 32.3435 34.6604 32.3435 34.6603L32.358 34.6336L32.3672 34.6165L32.3726 34.606L32.3837 34.5847L32.4028 34.5465L32.4038 34.5446C32.4038 34.5446 32.4038 34.5446 32.4038 34.5446L32.414 34.5232L32.4271 34.4953C32.4271 34.4953 32.4271 34.4953 32.4271 34.4952C32.4272 34.4952 32.4272 34.4952 32.4272 34.4952L32.4381 34.4712C32.4381 34.4712 32.4381 34.4712 32.4382 34.4711C32.4382 34.471 32.4383 34.4708 32.4384 34.4707L32.4547 34.4334L32.4643 34.411C32.4643 34.4109 32.4643 34.4109 32.4643 34.4109C32.4643 34.4109 32.4643 34.4108 32.4643 34.4108L32.4772 34.3795C32.4772 34.3795 32.4772 34.3795 32.4772 34.3794L32.4891 34.3494C32.4891 34.3494 32.4891 34.3494 32.4891 34.3494L32.4969 34.3293L32.4991 34.3234L32.5006 34.3193L32.509 34.2965C32.5091 34.2965 32.509 34.2965 32.5091 34.2965C32.5091 34.2964 32.5091 34.2964 32.5091 34.2964L32.5242 34.2538C32.5242 34.2538 32.5242 34.2537 32.5242 34.2537C32.5242 34.2537 32.5242 34.2537 32.5242 34.2537L32.5316 34.2315L32.5413 34.2019C32.5413 34.2019 32.5413 34.2018 32.5413 34.2018C32.5413 34.2018 32.5413 34.2018 32.5414 34.2017L32.5483 34.1798C32.5483 34.1797 32.5484 34.1797 32.5484 34.1797C32.5484 34.1795 32.5485 34.1794 32.5485 34.1792L32.5486 34.1792L32.5628 34.1313C32.5629 34.1311 32.5629 34.1309 32.563 34.1308L32.5682 34.112L32.5687 34.1104L32.5733 34.0934L32.5779 34.0763C32.578 34.076 32.5781 34.0757 32.5782 34.0754L32.5836 34.0542C32.5836 34.0542 32.5836 34.0542 32.5837 34.0542L32.5838 34.0537C32.5838 34.0536 32.5838 34.0535 32.5838 34.0534L32.5928 34.017L32.5932 34.0154C32.5932 34.0152 32.5933 34.0151 32.5933 34.0149C32.5933 34.0149 32.5933 34.0149 32.5933 34.0149L32.5972 33.9987C32.5972 33.9987 32.5972 33.9987 32.5972 33.9987C32.5972 33.9987 32.5972 33.9986 32.5972 33.9985C32.5973 33.9984 32.5973 33.9983 32.5973 33.9982L32.6088 33.9459C32.6088 33.9457 32.6089 33.9454 32.6089 33.9452C32.6089 33.9452 32.6089 33.9452 32.6089 33.9452L32.6126 33.927L32.6129 33.9256L32.6164 33.9072L32.6187 33.8951L32.6199 33.8888L32.6201 33.8878L32.6237 33.8679C32.6237 33.8679 32.6237 33.8679 32.6237 33.8679C32.6238 33.8676 32.6238 33.8674 32.6239 33.8672L32.6309 33.8251C32.6309 33.8249 32.631 33.8247 32.631 33.8245L32.6312 33.8233C32.6312 33.8232 32.6312 33.8231 32.6312 33.8231L32.6332 33.8109C32.6332 33.8108 32.6332 33.8106 32.6333 33.8105L32.641 33.7554L32.6411 33.7547C32.6411 33.7547 32.6411 33.7547 32.6412 33.7546L32.6432 33.7377L32.6434 33.7363L32.648 33.6962L32.6481 33.6954L32.6501 33.677L32.6501 33.6763L32.6545 33.6268L32.6552 33.6187V33.6187C32.6552 33.6185 32.6553 33.6184 32.6553 33.6182L32.659 33.5606L32.659 33.56L32.6598 33.5436V33.5435C32.6598 33.5431 32.6598 33.5428 32.6598 33.5424L32.6606 33.521L32.6614 33.4997C32.6615 33.4995 32.6615 33.4993 32.6615 33.4991C32.6615 33.4989 32.6615 33.4988 32.6615 33.4987V33.4986L32.662 33.4817C32.662 33.4815 32.662 33.4813 32.662 33.4811L32.6622 33.462L32.6624 33.4468L32.6627 33.4239L32.6627 33.4219V22.4439H32.6626Z" fill="url(#paint1_radial_202_10484)"/>
</g>
<defs>
<linearGradient id="paint0_linear_202_10484" x1="24.2218" y1="11.8038" x2="31.0223" y2="18.6044" gradientUnits="userSpaceOnUse">
<stop stop-color="#263238" stop-opacity="0.2"/>
<stop offset="1" stop-color="#263238" stop-opacity="0.02"/>
</linearGradient>
<radialGradient id="paint1_radial_202_10484" cx="0" cy="0" r="1" gradientUnits="userSpaceOnUse" gradientTransform="translate(1.93165 3.81853) scale(42.6466 42.6466)">
<stop stop-color="white" stop-opacity="0.1"/>
<stop offset="1" stop-color="white" stop-opacity="0"/>
</radialGradient>
<clipPath id="clip0_202_10484">
<rect width="36" height="36" fill="white"/>
</clipPath>
</defs>
</svg>
