<svg width="28" height="37" viewBox="0 0 28 37" fill="none" xmlns="http://www.w3.org/2000/svg">
<g clip-path="url(#clip0_202_11253)">
<path d="M17.2764 0.00250244H3.37131C2.02134 0.00250244 0.917603 1.11344 0.917603 2.46269V33.5481C0.917603 34.898 2.02134 36.0018 3.37131 36.0018H24.6361C25.9861 36.0018 27.0898 34.898 27.0898 33.5481V9.82311L21.3609 5.73215L17.2764 0.00250244Z" fill="#0F9D58"/>
<path d="M7.46301 17.591V29.4571H20.5524V17.591H7.46301ZM13.1855 27.8191H9.0945V25.7736H13.1855V27.8191ZM13.1855 24.5432H9.0945V22.4977H13.1855V24.5432ZM13.1855 21.2745H9.0945V19.229H13.1855V21.2745ZM18.9144 27.8191H14.8234V25.7736H18.9144V27.8191ZM18.9144 24.5432H14.8234V22.4977H18.9144V24.5432ZM18.9144 21.2745H14.8234V19.229H18.9144V21.2745Z" fill="#F1F1F1"/>
<path d="M17.9935 9.10602L27.0898 18.2023V9.82312L17.9935 9.10602Z" fill="url(#paint0_linear_202_11253)"/>
<path d="M17.2782 0.00549316V7.36591C17.2782 8.72236 18.3747 9.81962 19.7319 9.81962H27.0916L17.2782 0.00549316Z" fill="#87CEAC"/>
<path d="M3.37131 0.00249C2.02134 0.00249 0.917603 1.11343 0.917603 2.46268V2.66644C0.917603 1.31646 2.02134 0.212726 3.37131 0.212726H17.2764V0.00177002H3.37131V0.00249Z" fill="white" fill-opacity="0.2"/>
<path d="M24.6368 35.7908H3.37131C2.02134 35.7908 0.917603 34.6871 0.917603 33.3371V33.5409C0.917603 34.8908 2.02134 35.9946 3.37131 35.9946H24.6361C25.9861 35.9946 27.0898 34.8908 27.0898 33.5409V33.3371C27.0898 34.6871 25.9861 35.7908 24.6368 35.7908Z" fill="#263238" fill-opacity="0.2"/>
<path d="M19.7301 9.8231C18.3736 9.8231 17.2764 8.72656 17.2764 7.36938V7.57314C17.2764 8.92959 18.3729 10.0269 19.7301 10.0269H27.0898V9.8231H19.7301Z" fill="#263238" fill-opacity="0.1"/>
<path d="M17.2764 0.00250244H3.37131C2.02134 0.00250244 0.917603 1.11344 0.917603 2.46269V33.5481C0.917603 34.898 2.02134 36.0018 3.37131 36.0018H24.6361C25.9861 36.0018 27.0898 34.898 27.0898 33.5481V9.82311L17.2764 0.00250244Z" fill="url(#paint1_radial_202_11253)"/>
</g>
<defs>
<linearGradient id="paint0_linear_202_11253" x1="22.5418" y1="9.88606" x2="22.5418" y2="18.2024" gradientUnits="userSpaceOnUse">
<stop stop-color="#263238" stop-opacity="0.2"/>
<stop offset="1" stop-color="#263238" stop-opacity="0.02"/>
</linearGradient>
<radialGradient id="paint1_radial_202_11253" cx="0" cy="0" r="1" gradientUnits="userSpaceOnUse" gradientTransform="translate(1.7457 0.981325) scale(42.2091 42.2091)">
<stop stop-color="white" stop-opacity="0.1"/>
<stop offset="1" stop-color="white" stop-opacity="0"/>
</radialGradient>
<clipPath id="clip0_202_11253">
<rect width="28" height="37" fill="white"/>
</clipPath>
</defs>
</svg>
