<svg width="30" height="40" viewBox="0 0 30 40" fill="none" xmlns="http://www.w3.org/2000/svg">
<g clip-path="url(#clip0_202_14800)">
<path d="M0.699216 21.6549C0.756593 22.8369 1.93855 22.2861 2.46642 21.9188C2.97133 21.5631 3.12051 21.8615 3.16641 21.173C3.20084 20.7139 3.24674 20.2664 3.22379 19.8074C2.45494 19.7385 1.62872 19.9221 0.997574 20.3812C0.66479 20.6107 0.0680736 21.368 0.699216 21.6549Z" fill="#F6D2A2"/>
<path d="M24.2579 36.182C25.1645 36.7443 26.8284 38.4426 25.4628 39.2688C24.1547 40.4623 23.4202 37.9492 22.2727 37.6049C22.7661 36.9279 23.3858 36.3082 24.2579 36.182Z" fill="#F6D2A2"/>
<path d="M8.03198 38.0984C6.96478 38.2591 6.36806 39.223 5.47298 39.7164C4.63528 40.2099 4.31398 39.5558 4.24512 39.4181C4.1189 39.3607 4.13037 39.4754 3.92382 39.2689C3.14349 38.041 4.72709 37.1459 5.55331 36.5378C6.70084 36.3082 7.42379 37.3066 8.03198 38.0984Z" fill="#F6D2A2"/>
<path d="M29.2956 21.5045C29.2383 22.6865 28.0563 22.1357 27.5284 21.7685C27.0235 21.4127 26.8743 21.7111 26.8284 21.0226C26.794 20.5636 26.7481 20.116 26.7711 19.657C27.5399 19.5881 28.3661 19.7718 28.9973 20.2308C29.3186 20.4603 29.9268 21.2176 29.2956 21.5045Z" fill="#F6D2A2"/>
<path d="M26.1628 7.09311C30.2595 5.64722 27.0578 0.0357908 23.489 2.51446C21.1481 0.506279 17.9235 0.139069 14.5383 0.139069C11.2219 0.403001 8.06619 1.01119 5.86293 2.93905C2.30558 0.643983 -0.976364 6.15214 3.20065 7.54065C2.03017 12.0849 3.36131 16.7209 3.1777 21.3455C3.00557 25.4995 1.91542 31.0651 4.22196 34.7945C6.18424 37.9847 10.4072 39.1207 13.8842 39.247C18.3251 39.4076 23.707 38.3175 25.8644 34.0142C27.93 29.9175 27.3562 24.811 27.0923 20.393C26.8283 15.9291 27.3218 11.3964 26.1628 7.09311Z" fill="#69D7E2"/>
<path d="M29.6055 20.8052C29.4907 20.5642 29.2727 20.2888 29.0661 20.1396C28.5383 19.7609 27.8612 19.5543 27.1612 19.5314C27.1383 18.8199 27.1153 18.0396 27.1153 17.0527V16.1576C27.1039 13.3347 27.0694 12.0954 26.9088 10.5462C26.7825 9.32983 26.5875 8.20525 26.3121 7.14952C27.2416 6.79379 27.8498 6.20854 28.0907 5.45117C28.3202 4.75118 28.2055 3.95938 27.8153 3.25939C27.4137 2.57087 26.7711 2.05448 26.0252 1.84792C25.2219 1.62989 24.3498 1.79055 23.5121 2.35284C22.7662 1.72169 21.9055 1.23973 20.9416 0.872521C19.2318 0.241379 17.2466 0.000396729 14.5499 0.000396729V0.11515L14.5384 0.000396729C11.6581 0.229903 9.52367 0.677441 7.75647 1.53809C7.045 1.88235 6.41385 2.29546 5.86304 2.77742C5.01387 2.24956 4.13027 2.12333 3.31552 2.37579C2.55815 2.60529 1.90405 3.14463 1.51389 3.84463C1.12373 4.54462 1.03193 5.3479 1.29586 6.03642C1.55979 6.72493 2.16799 7.26427 3.07454 7.59706C2.78765 8.75607 2.63847 9.98393 2.61552 11.338C2.59257 12.6577 2.64995 13.7134 2.8565 16.1003C3.00568 17.8789 3.06306 18.6937 3.08601 19.6806C2.30569 19.6461 1.52537 19.8527 0.940127 20.2773C0.733571 20.4265 0.504064 20.6904 0.400787 20.9429C0.251607 21.2642 0.308984 21.551 0.607342 21.7232C0.653244 22.274 0.963077 22.5265 1.43357 22.4805C1.77782 22.4461 2.19094 22.2625 2.54667 22.0101C2.627 21.9527 2.70733 21.9068 2.78765 21.8724C2.82208 21.8609 2.84503 21.8494 2.87946 21.8379C2.87946 21.8379 2.94831 21.815 2.97126 21.8035C3.00568 21.792 3.04011 21.7806 3.06306 21.7576C3.04011 22.2969 2.99421 22.8592 2.89093 24.1445C2.77618 25.5904 2.7188 26.3822 2.69585 27.2658C2.59257 30.5477 2.98273 32.9346 4.15322 34.828C4.52043 35.4247 4.96796 35.9526 5.49583 36.4345C5.39255 36.5034 4.95649 36.8247 4.81879 36.928C4.33682 37.2952 4.00404 37.605 3.80896 37.9493C3.5565 38.3968 3.5565 38.8444 3.84338 39.3148L3.85486 39.3263L3.86633 39.3378C3.99256 39.464 4.06141 39.4985 4.15322 39.4985H4.16469H4.18764C4.19912 39.5214 4.21059 39.5329 4.22207 39.5558C4.25649 39.6132 4.29092 39.6591 4.32535 39.705C4.61223 40.0378 5.01387 40.1181 5.55321 39.7968C5.84009 39.6476 6.04664 39.4755 6.48271 39.1083C6.49418 39.0968 6.49418 39.0968 6.50566 39.0853C7.20565 38.4886 7.54991 38.2706 8.0663 38.1903L8.24991 38.1558C8.31876 38.1903 8.38761 38.2132 8.46794 38.2476C10.0974 38.9017 11.9909 39.2575 13.9072 39.3263C16.3859 39.4181 18.7728 39.1083 20.7924 38.3739C21.3318 38.1788 21.8367 37.9493 22.3186 37.6968C22.617 37.8116 22.8695 38.0526 23.3514 38.6149C23.3744 38.6378 23.3744 38.6378 23.3859 38.6608C23.4088 38.6837 23.4088 38.6952 23.4203 38.7067C23.4432 38.7411 23.4777 38.764 23.5006 38.7985C23.8793 39.246 24.1318 39.464 24.4186 39.5903C24.7973 39.7509 25.1645 39.6706 25.5432 39.3263C26.2088 38.9132 26.2547 38.2706 25.8186 37.5362C25.5088 37.0198 24.9694 36.4804 24.4645 36.1362C25.0613 35.5509 25.5776 34.8509 25.9793 34.0591C27.0809 31.8559 27.5055 29.2854 27.4825 25.9805C27.4711 24.81 27.4252 23.7887 27.2989 21.8379V21.7806C27.3563 21.8035 27.4137 21.8379 27.4711 21.8838C27.8268 22.1248 28.2399 22.3199 28.5842 22.3543C29.0547 22.4002 29.3645 22.1478 29.4104 21.597C29.6973 21.4133 29.7547 21.1265 29.6055 20.8052ZM25.9563 2.08891C26.6448 2.27251 27.2416 2.75447 27.6088 3.39709C27.976 4.03971 28.0793 4.76265 27.8727 5.40527C27.6547 6.08232 27.1039 6.62166 26.2432 6.94297C26.0711 6.3233 25.8645 5.71511 25.635 5.12986C25.9678 4.84298 26.1285 4.48725 25.8645 3.98233C25.6006 3.47742 25.1416 3.42004 24.6711 3.56922C24.3727 3.17906 24.0399 2.8348 23.6957 2.51349C24.4531 2.03153 25.2334 1.89382 25.9563 2.08891ZM1.49094 5.96756C1.24996 5.3479 1.33029 4.61348 1.6975 3.97086C2.06471 3.32824 2.66142 2.82333 3.37289 2.61677C4.10731 2.39874 4.89911 2.50202 5.67943 2.96103C5.2319 3.36267 4.83026 3.82168 4.486 4.32659C3.88928 4.01676 3.28109 3.95938 2.93683 4.59052C2.5811 5.26757 2.99421 5.69216 3.57945 6.01346C3.49912 6.20855 3.4188 6.4151 3.34994 6.62166C3.26962 6.87411 3.18929 7.13805 3.12044 7.40198C2.28274 7.08067 1.73192 6.58723 1.49094 5.96756ZM2.87946 21.6084C2.86798 21.6084 2.79913 21.6314 2.79913 21.6429C2.7647 21.6543 2.73028 21.6658 2.69585 21.6888C2.60405 21.7232 2.51225 21.7806 2.42044 21.8494C2.09913 22.0789 1.70897 22.251 1.41061 22.274C1.06636 22.3084 0.871275 22.1592 0.836849 21.7461C1.07783 21.6658 1.18111 21.6084 1.27291 21.4707L1.08931 21.333C1.02045 21.4248 0.951602 21.4592 0.745046 21.5281C0.733571 21.5281 0.733571 21.5281 0.722096 21.5396C0.53849 21.4363 0.504064 21.2756 0.607342 21.0461C0.699145 20.8396 0.905701 20.5986 1.07783 20.4724C1.62865 20.0707 2.36307 19.8757 3.09749 19.9216C3.09749 20.2084 3.10896 20.4953 3.09749 20.7707C3.09749 20.8052 3.09749 20.8281 3.08601 20.8625C3.07454 21.0232 3.07454 21.092 3.06306 21.1724C3.02863 21.5051 3.00568 21.551 2.87946 21.6084ZM6.345 38.9247C6.33353 38.9362 6.33353 38.9362 6.32205 38.9476C5.89747 39.3148 5.69091 39.464 5.42698 39.6132C4.99091 39.8771 4.69256 39.8198 4.486 39.5673C4.45157 39.5329 4.42862 39.487 4.40567 39.4525C4.3942 39.4411 4.38272 39.4181 4.37125 39.4066C4.37125 39.4066 4.37125 39.4066 4.37125 39.3952C4.3942 39.1886 4.47453 39.0394 4.68108 38.7181C4.69256 38.7067 4.69256 38.7067 4.69256 38.6952C4.81878 38.5116 4.87616 38.4083 4.93354 38.2821L4.72698 38.1903C4.68108 38.2935 4.6237 38.3853 4.50895 38.569C4.49748 38.5804 4.49748 38.5804 4.49748 38.5919C4.29092 38.8903 4.19912 39.0739 4.15322 39.2804H4.14174C4.14174 39.2804 4.14174 39.2804 4.13027 39.2804H4.10732C4.08436 39.2689 4.04994 39.246 4.00404 39.2001C3.5565 38.4886 3.91223 37.8804 4.92206 37.1231C5.04829 37.0313 5.47288 36.7329 5.58763 36.6411C5.61058 36.6411 5.63353 36.6296 5.65648 36.6181C6.27615 37.146 6.9991 37.605 7.80237 37.9837C7.80237 37.9952 7.81384 38.0067 7.82532 38.0181C7.35483 38.1329 6.98762 38.3739 6.345 38.9247ZM25.6121 37.6739C25.9678 38.2706 25.9563 38.7526 25.5088 39.0853C25.4744 39.0165 25.4514 38.9362 25.4055 38.8214C25.4055 38.8099 25.4055 38.8099 25.394 38.7985C25.2334 38.3624 25.1301 38.1788 24.935 37.9722L24.7744 38.1329C24.9465 38.2935 25.0268 38.4657 25.1875 38.8673C25.1875 38.8788 25.1875 38.8788 25.199 38.8903C25.2563 39.0394 25.2908 39.1312 25.3252 39.2116C25.0268 39.464 24.7629 39.5099 24.4875 39.3837C24.2465 39.2804 24.017 39.0624 23.6498 38.6493C23.6268 38.6263 23.6039 38.5919 23.5809 38.5575C23.5695 38.546 23.558 38.5345 23.5465 38.5116C23.5236 38.4886 23.5236 38.4886 23.5121 38.4657C23.0875 37.9722 22.835 37.7083 22.5596 37.5591C23.2022 37.1919 23.776 36.7788 24.2924 36.2968C24.7744 36.6526 25.3137 37.1804 25.6121 37.6739ZM25.7727 33.9559C24.7858 35.9411 23.0416 37.3411 20.7006 38.1903C18.7039 38.9132 16.34 39.2116 13.8958 39.1198C9.68432 38.9706 6.03517 37.5017 4.32535 34.7247C3.17781 32.8772 2.79913 30.5247 2.90241 27.2887C2.93683 26.4051 2.98273 25.6133 3.09749 24.1674C3.22372 22.5379 3.25814 22.0674 3.29257 21.333C3.31552 20.8052 3.31552 20.2658 3.30404 19.692C3.28109 18.6822 3.22372 17.8789 3.07454 16.0773C2.86798 13.6905 2.8106 12.6462 2.83355 11.338C2.86798 9.61672 3.09749 8.10197 3.57945 6.66756C4.35977 4.33807 5.79419 2.76595 7.85974 1.74465C9.59252 0.895472 11.6925 0.45941 14.5499 0.229903C17.2236 0.229903 19.1744 0.470885 20.8613 1.09055C22.8809 1.83645 24.3842 3.14463 25.417 5.15282C26.0826 6.78231 26.4727 8.53804 26.6793 10.5577C26.8399 12.0954 26.8744 13.3347 26.8858 16.1462V17.0412C26.8973 18.4298 26.9203 19.4052 26.9776 20.3806C27.0006 20.7593 27.0121 20.9199 27.0694 21.8265C27.1957 23.7773 27.2416 24.7871 27.253 25.9576C27.276 29.251 26.8629 31.787 25.7727 33.9559ZM29.2842 21.3904C29.2727 21.3904 29.2612 21.3789 29.2497 21.3789C29.0432 21.3101 28.9743 21.2642 28.9055 21.1838L28.7219 21.3215C28.8252 21.4592 28.9284 21.5166 29.1579 21.597C29.112 22.0101 28.917 22.1592 28.5842 22.1248C28.2858 22.1019 27.8957 21.9183 27.5743 21.7002C27.4825 21.6314 27.3907 21.5855 27.2989 21.5396C27.2875 21.5396 27.276 21.5281 27.2645 21.5281C27.2186 20.897 27.2186 20.7363 27.1957 20.4035C27.1842 20.197 27.1727 19.9904 27.1612 19.7838C27.8039 19.7953 28.435 19.9904 28.917 20.3461C29.0891 20.4724 29.2956 20.7134 29.3874 20.9199C29.5022 21.115 29.4792 21.2871 29.2842 21.3904Z" fill="black"/>
<path d="M16.2781 11.973C16.2896 12.5582 16.4043 13.2008 16.3011 13.8205C16.1404 14.1188 15.842 14.1533 15.5781 14.268C15.2109 14.2106 14.9011 13.9697 14.7519 13.6254C14.6601 12.9254 14.7748 12.2598 14.8093 11.5598C14.8093 11.5369 15.2453 11.5713 15.6355 11.6861C15.9683 11.7893 16.2781 11.9615 16.2781 11.973Z" fill="white"/>
<path d="M13.0305 12.0193C12.7092 13.2357 13.4551 15.2209 14.6829 13.5914C14.5911 12.9029 14.6944 12.2373 14.7288 11.5603C14.7403 11.5029 13.042 11.939 13.0305 12.0193Z" fill="white"/>
<path d="M16.4158 12.5122C16.3929 12.1679 16.3814 12.0302 16.3814 11.8581V11.7778L16.301 11.7548L14.8552 11.3073V11.227L14.706 11.2614H14.6945V11.2729L13.065 11.686L13.0076 11.6974L12.9847 11.7548C12.7322 12.363 12.7896 13.281 13.1109 13.8433C13.4781 14.4859 14.0748 14.4974 14.683 13.763C14.8552 14.0958 15.1765 14.3253 15.5437 14.3827H15.5781L15.6125 14.3712C15.6584 14.3482 15.7043 14.3368 15.7847 14.3023C15.7961 14.3023 15.7961 14.3023 15.8076 14.2909C16.1404 14.1761 16.2781 14.0843 16.3929 13.8663L16.4043 13.8548V13.8319C16.4388 13.6253 16.4502 13.4073 16.4502 13.1663C16.4502 12.9942 16.4388 12.8335 16.4158 12.5122ZM14.5798 12.0876C14.5683 12.2942 14.5568 12.3745 14.5453 12.4892C14.5224 12.9138 14.5224 13.2351 14.5568 13.5564C14.0175 14.245 13.5929 14.245 13.306 13.7286C13.0306 13.2466 12.9732 12.4319 13.1798 11.8925L14.6257 11.5253C14.6142 11.6745 14.6027 11.8237 14.5798 12.0876ZM16.1863 13.786C16.106 13.9237 16.0027 13.9925 15.7273 14.0843C15.7158 14.0843 15.7158 14.0843 15.7043 14.0958C15.6355 14.1187 15.5896 14.1417 15.5552 14.1532C15.2453 14.0958 14.9814 13.8892 14.8552 13.6024C14.8207 13.2925 14.8207 12.9712 14.8437 12.5466C14.8552 12.4319 14.8552 12.3515 14.8781 12.145C14.9011 11.8811 14.9125 11.7204 14.9125 11.5712L16.1633 11.9499C16.1633 12.0991 16.1748 12.2368 16.1978 12.5351C16.2207 12.845 16.2322 13.0056 16.2322 13.1892C16.2322 13.4073 16.2207 13.6024 16.1863 13.786Z" fill="black"/>
<path d="M6.12283 6.9741C7.17855 11.0823 13.7539 10.0265 13.5015 5.9069C13.2031 0.972508 5.113 1.92496 6.12283 6.9741Z" fill="white"/>
<path d="M13.6162 5.89572C13.5473 4.70229 13.0195 3.77279 12.1473 3.18755C11.367 2.65968 10.3342 2.45313 9.31293 2.57935C8.29163 2.71706 7.35065 3.17607 6.73098 3.89902C6.04246 4.70229 5.77853 5.75802 6.01951 6.9744L6.12279 6.95145L6.01951 6.9744C7.09819 11.1973 13.8686 10.176 13.6162 5.89572ZM6.22607 6.95145C5.99656 5.79244 6.24902 4.80557 6.89164 4.05967C7.47688 3.38263 8.36048 2.93509 9.33588 2.80886C10.3113 2.68263 11.2867 2.87771 12.0211 3.38263C12.8359 3.93344 13.3293 4.79409 13.3981 5.93015C13.6391 9.93503 7.24737 10.899 6.22607 6.95145Z" fill="black"/>
<path d="M7.93586 7.50201C8.55061 7.50201 9.04897 6.96255 9.04897 6.2971C9.04897 5.63165 8.55061 5.09219 7.93586 5.09219C7.32111 5.09219 6.82275 5.63165 6.82275 6.2971C6.82275 6.96255 7.32111 7.50201 7.93586 7.50201Z" fill="black"/>
<path d="M8.44069 6.88178C8.58646 6.88178 8.70462 6.74307 8.70462 6.57195C8.70462 6.40083 8.58646 6.26212 8.44069 6.26212C8.29492 6.26212 8.17676 6.40083 8.17676 6.57195C8.17676 6.74307 8.29492 6.88178 8.44069 6.88178Z" fill="white"/>
<path d="M15.3442 6.20446C16.159 10.9208 23.8704 9.67001 22.7573 4.91922C21.7589 0.650404 15.0688 1.83236 15.3442 6.20446Z" fill="white"/>
<path d="M22.8606 4.89658C21.8393 0.501531 14.9541 1.70644 15.2295 6.21624V6.22772C15.6082 8.45393 17.5934 9.58999 19.7852 9.22277C20.7835 9.05065 21.6786 8.56868 22.2638 7.85721C22.9065 7.06541 23.136 6.04411 22.8606 4.89658ZM22.0917 7.71951C21.5409 8.38508 20.7032 8.84409 19.7508 9.00474C17.6737 9.349 15.8147 8.2818 15.4475 6.19329C15.195 1.94742 21.6901 0.811365 22.654 4.94248C22.9065 6.03264 22.6999 6.98509 22.0917 7.71951Z" fill="black"/>
<path d="M17.2376 7.20318C17.8397 7.20318 18.3278 6.66373 18.3278 5.99827C18.3278 5.33282 17.8397 4.79337 17.2376 4.79337C16.6355 4.79337 16.1475 5.33282 16.1475 5.99827C16.1475 6.66373 16.6355 7.20318 17.2376 7.20318Z" fill="black"/>
<path d="M17.7424 6.58295C17.8819 6.58295 17.9949 6.44424 17.9949 6.27312C17.9949 6.102 17.8819 5.96329 17.7424 5.96329C17.603 5.96329 17.49 6.102 17.49 6.27312C17.49 6.44424 17.603 6.58295 17.7424 6.58295Z" fill="white"/>
<path d="M13.2673 9.53873C12.3608 9.61906 11.6263 10.6863 12.0968 11.5354C12.7165 12.66 14.105 11.4322 14.9657 11.5469C15.964 11.5699 16.7788 12.6026 17.5706 11.7305C18.4542 10.7666 17.1919 9.82562 16.1935 9.41251L13.2673 9.53873Z" fill="#F6D2A2"/>
<path d="M17.6853 10.3073C17.3755 9.91718 16.8362 9.56145 16.2509 9.32047L16.228 9.30899H16.205L13.2673 9.42374C12.246 9.51555 11.5116 10.6975 12.0051 11.5926C12.2001 11.9368 12.4641 12.109 12.8198 12.1319C13.0837 12.1434 13.3591 12.086 13.7837 11.9368C13.8182 11.9254 13.8641 11.9139 13.9214 11.8909C14.4952 11.6959 14.7247 11.6385 14.9542 11.6729H14.9657C15.2411 11.6729 15.4706 11.7532 15.9067 11.9254C16.3886 12.1204 16.5378 12.1778 16.7788 12.2008C17.1116 12.2237 17.3985 12.109 17.6624 11.8221C18.1099 11.3286 18.087 10.8008 17.6853 10.3073ZM17.4903 11.6614C17.2722 11.9024 17.0542 11.9827 16.7903 11.9713C16.5837 11.9598 16.446 11.9024 15.987 11.7188C15.528 11.5237 15.2755 11.4549 14.9772 11.4434C14.6903 11.409 14.4493 11.4664 13.8411 11.6729C13.7837 11.6959 13.7378 11.7073 13.7034 11.7188C12.8657 12.0057 12.4641 11.9827 12.1887 11.4778C11.7756 10.7319 12.4067 9.7221 13.2673 9.64177L16.1706 9.52702C16.7214 9.75653 17.2149 10.0893 17.5017 10.445C17.846 10.8582 17.8575 11.2713 17.4903 11.6614Z" fill="#231F20"/>
<path d="M16.423 9.0456C16.0673 7.73741 13.0837 7.93249 13.1525 9.49314C13.3017 10.6521 16.7673 10.3423 16.423 9.0456Z" fill="black"/>
</g>
<defs>
<clipPath id="clip0_202_14800">
<rect width="30" height="40.0004" fill="white"/>
</clipPath>
</defs>
</svg>
