<svg width="41" height="30" viewBox="0 0 41 30" fill="none" xmlns="http://www.w3.org/2000/svg">
<g clip-path="url(#clip0_202_9334)">
<path d="M37.8285 2.18119C35.4119 -0.236501 31.5139 -0.303918 29.0152 2.02876C28.8953 2.14188 28.8254 2.29816 28.8212 2.46296C28.8221 2.62705 28.8866 2.78439 29.0013 2.90177L29.7912 3.71936C30.0042 3.93145 30.3405 3.95505 30.5811 3.77479C31.2076 3.30194 31.9717 3.04723 32.7567 3.04959C34.2295 3.04314 35.5602 3.92708 36.1253 5.28717C36.6904 6.64725 36.3779 8.21396 35.3342 9.2531C30.2993 14.288 23.5784 0.181098 8.32602 7.43777C7.80145 7.68299 7.40327 8.13634 7.22781 8.68818C7.05234 9.24001 7.11557 9.84007 7.40219 10.3432L10.0166 14.8654C10.5843 15.8444 11.8319 16.1876 12.8204 15.6368L12.8851 15.5998L12.8343 15.6368L13.9937 14.9855C15.2858 14.1831 16.5067 13.2713 17.6428 12.2602C17.8833 12.0539 18.2384 12.0539 18.4789 12.2602C18.6209 12.3715 18.7042 12.5416 18.7052 12.7221C18.7086 12.8975 18.6362 13.0658 18.5066 13.184C17.31 14.2462 16.0224 15.2014 14.6589 16.0386H14.6219L13.4625 16.6853C12.9725 16.963 12.4183 17.1079 11.855 17.1056C10.6711 17.1057 9.57586 16.4781 8.97732 15.4566L6.50608 11.1839C1.7576 14.5374 -1.12475 20.9996 0.422665 29.1986C0.479377 29.4809 0.725928 29.6851 1.01392 29.6882H3.83159C4.13463 29.6882 4.39017 29.4623 4.42746 29.1616C4.68724 27.0991 6.44122 25.5522 8.52003 25.5522C10.5988 25.5522 12.3528 27.0991 12.6126 29.1616C12.652 29.4631 12.9091 29.6882 13.2131 29.6882H15.9569C16.2599 29.6882 16.5154 29.4623 16.5527 29.1616C16.8208 27.1047 18.5733 25.5659 20.6476 25.5659C22.7219 25.5659 24.4743 27.1047 24.7425 29.1616C24.7798 29.4623 25.0353 29.6882 25.3383 29.6882H28.0498C28.3778 29.6882 28.6452 29.425 28.6503 29.0969C28.7149 25.2769 29.745 20.8887 32.6828 18.69C42.8587 11.0777 40.1843 4.55081 37.8285 2.18119ZM27.4493 13.6967L25.5092 12.7221C25.5071 12.1463 25.908 11.6475 26.4707 11.5257C27.0334 11.4039 27.6046 11.6922 27.8408 12.2173C28.077 12.7424 27.9138 13.3611 27.4493 13.7013V13.6967Z" fill="#02303A"/>
</g>
<defs>
<clipPath id="clip0_202_9334">
<rect width="41" height="30" fill="white"/>
</clipPath>
</defs>
</svg>
