<svg width="34" height="37" viewBox="0 0 34 37" fill="none" xmlns="http://www.w3.org/2000/svg">
<g clip-path="url(#clip0_202_15461)">
<path d="M33.516 15.893C33.4565 15.288 33.3574 14.5938 33.159 13.8202C32.9607 13.0566 32.6631 12.2136 32.2268 11.3409C31.7904 10.4682 31.2251 9.5657 30.4912 8.68306C30.2036 8.33595 29.8863 7.99876 29.5491 7.67149C30.0549 5.65826 28.9342 3.91281 28.9342 3.91281C27.0003 3.7938 25.7706 4.51777 25.3144 4.84504C25.235 4.81529 25.1656 4.77562 25.0863 4.74587C24.759 4.61694 24.4218 4.48802 24.0648 4.37892C23.7177 4.26983 23.3607 4.17066 22.9937 4.0814C22.6268 3.99215 22.2598 3.92273 21.883 3.86322C21.8136 3.8533 21.754 3.84339 21.6846 3.83347C20.8417 1.13595 18.4218 0.00537109 18.4218 0.00537109C15.7144 1.72107 15.2086 4.12107 15.2086 4.12107C15.2086 4.12107 15.1987 4.17066 15.1788 4.25992C15.0301 4.29959 14.8813 4.34917 14.7326 4.38884C14.5243 4.44835 14.316 4.52768 14.1177 4.60702C13.9094 4.68636 13.7111 4.7657 13.5028 4.85496C13.0962 5.03347 12.6896 5.23182 12.2929 5.45C11.9061 5.66818 11.5293 5.9062 11.1623 6.15413C11.1127 6.1343 11.0631 6.11446 11.0631 6.11446C7.31438 4.68636 3.99206 6.40207 3.99206 6.40207C3.68463 10.3888 5.48958 12.8979 5.84661 13.3541C5.75735 13.6021 5.67801 13.85 5.59868 14.0979C5.32099 15.0004 5.11272 15.9227 4.9838 16.8847C4.96396 17.0236 4.94413 17.1624 4.93421 17.3012C1.46314 19.0169 0.44165 22.5178 0.44165 22.5178C3.3276 25.8401 6.6995 26.0483 6.6995 26.0483L6.70942 26.0384C7.13587 26.8021 7.63173 27.526 8.1871 28.2103C8.42512 28.4979 8.66314 28.7657 8.92099 29.0335C7.86975 32.0483 9.06975 34.5475 9.06975 34.5475C12.283 34.6665 14.3954 33.1393 14.8417 32.7921C15.159 32.9012 15.4863 33.0004 15.8136 33.0798C16.8053 33.3376 17.8169 33.4864 18.8284 33.526C19.0764 33.5359 19.3342 33.5459 19.5821 33.5359H19.7012H19.7805H19.9392L20.0978 33.526V33.5359C21.6152 35.6979 24.2731 36.0054 24.2731 36.0054C26.1673 34.012 26.2764 32.0285 26.2764 31.6021C26.2764 31.6021 26.2764 31.5921 26.2764 31.5723C26.2764 31.5326 26.2764 31.5128 26.2764 31.5128C26.2764 31.4831 26.2764 31.4533 26.2764 31.4236C26.6731 31.1459 27.0499 30.8483 27.4069 30.5211C28.1607 29.8368 28.8251 29.0533 29.3805 28.2103C29.4301 28.131 29.4797 28.0517 29.5293 27.9723C31.6714 28.0913 33.1888 26.6434 33.1888 26.6434C32.8317 24.412 31.5623 23.3211 31.2945 23.1128C31.2945 23.1128 31.2846 23.1029 31.2648 23.093C31.245 23.0831 31.245 23.0731 31.245 23.0731C31.235 23.0632 31.2152 23.0533 31.1954 23.0434C31.2053 22.9045 31.2152 22.7756 31.2251 22.6368C31.245 22.3988 31.245 22.1508 31.245 21.9128V21.7343V21.645V21.5955C31.245 21.5359 31.245 21.5558 31.245 21.5359L31.235 21.3872L31.2251 21.1888C31.2251 21.1194 31.2152 21.0599 31.2053 21.0004C31.1954 20.9409 31.1954 20.8715 31.1855 20.812L31.1656 20.6236L31.1359 20.4351C31.0962 20.1872 31.0565 19.9492 30.997 19.7012C30.7689 18.7393 30.3921 17.8269 29.9061 17.0037C29.4102 16.1806 28.7954 15.4566 28.0912 14.8417C27.397 14.2269 26.6136 13.731 25.8003 13.364C24.9772 12.9971 24.1243 12.7591 23.2714 12.65C22.845 12.5905 22.4185 12.5707 21.9921 12.5806H21.8334H21.7937C21.7838 12.5806 21.7342 12.5806 21.7441 12.5806H21.6747L21.516 12.5905C21.4565 12.5905 21.397 12.6004 21.3474 12.6004C21.1293 12.6202 20.9111 12.65 20.7028 12.6897C19.8499 12.8483 19.0466 13.1558 18.3425 13.5822C17.6383 14.0087 17.0235 14.5343 16.5276 15.1293C16.0317 15.7244 15.645 16.3888 15.3772 17.0731C15.1094 17.7574 14.9607 18.4715 14.921 19.1558C14.9111 19.3244 14.9111 19.5029 14.9111 19.6715C14.9111 19.7112 14.9111 19.7607 14.9111 19.8004L14.921 19.9393C14.9309 20.0186 14.9309 20.1079 14.9408 20.1872C14.9706 20.5343 15.04 20.8715 15.1293 21.1888C15.3177 21.8335 15.6152 22.4186 15.9821 22.9145C16.3491 23.4103 16.7954 23.8169 17.2615 24.1442C17.7276 24.4616 18.2334 24.6897 18.7293 24.8384C19.2251 24.9872 19.721 25.0467 20.1871 25.0467C20.2466 25.0467 20.3061 25.0467 20.3557 25.0467C20.3855 25.0467 20.4152 25.0467 20.445 25.0467C20.4747 25.0467 20.5045 25.0467 20.5342 25.0368C20.5838 25.0368 20.6334 25.0269 20.683 25.0269C20.6929 25.0269 20.7127 25.0269 20.7226 25.0169L20.7722 25.007C20.802 25.007 20.8317 24.9971 20.8615 24.9971C20.921 24.9872 20.9706 24.9773 21.0301 24.9674C21.0896 24.9574 21.1392 24.9475 21.1888 24.9277C21.2978 24.9079 21.397 24.8682 21.4962 24.8384C21.6945 24.769 21.8929 24.6897 22.0615 24.6004C22.24 24.5112 22.3987 24.4021 22.5574 24.3029C22.597 24.2731 22.6466 24.2434 22.6863 24.2037C22.845 24.0748 22.8747 23.8368 22.7458 23.6781C22.6367 23.5393 22.4383 23.4996 22.2797 23.5888C22.24 23.6087 22.2003 23.6285 22.1607 23.6483C22.0218 23.7178 21.883 23.7773 21.7342 23.8269C21.5855 23.8764 21.4268 23.9161 21.2681 23.9459C21.1888 23.9558 21.1094 23.9657 21.0202 23.9756C20.9805 23.9756 20.9408 23.9855 20.8912 23.9855C20.8516 23.9855 20.802 23.9855 20.7722 23.9855C20.7326 23.9855 20.6929 23.9855 20.6532 23.9855C20.6036 23.9855 20.554 23.9855 20.5045 23.9756C20.5045 23.9756 20.4747 23.9756 20.4945 23.9756H20.4747H20.445C20.4251 23.9756 20.3954 23.9756 20.3755 23.9657C20.3259 23.9558 20.2863 23.9558 20.2367 23.9459C19.8697 23.8963 19.5028 23.7872 19.1557 23.6285C18.7987 23.4698 18.4615 23.2517 18.154 22.974C17.8466 22.6963 17.5788 22.369 17.3706 21.9921C17.1623 21.6153 17.0136 21.1988 16.9441 20.7624C16.9144 20.5442 16.8945 20.3161 16.9045 20.0979C16.9045 20.0384 16.9144 19.9789 16.9144 19.9194C16.9144 19.9393 16.9144 19.9095 16.9144 19.9095V19.8897V19.8401C16.9144 19.8103 16.9243 19.7806 16.9243 19.7508C16.9342 19.6318 16.954 19.5128 16.9739 19.3938C17.1425 18.4417 17.6185 17.5095 18.3524 16.8054C18.5408 16.6269 18.7392 16.4682 18.9474 16.3194C19.1557 16.1707 19.3838 16.0417 19.6218 15.9326C19.8598 15.8236 20.0978 15.7343 20.3557 15.6649C20.6036 15.5955 20.8615 15.5558 21.1293 15.526C21.2582 15.5161 21.3871 15.5062 21.5259 15.5062C21.5656 15.5062 21.5855 15.5062 21.6152 15.5062H21.7243H21.7937C21.8235 15.5062 21.7937 15.5062 21.8036 15.5062H21.8334L21.9425 15.5161C22.2301 15.5359 22.5078 15.5756 22.7854 15.645C23.3408 15.764 23.8863 15.9723 24.3921 16.25C25.4036 16.8153 26.2664 17.688 26.7921 18.7393C27.0598 19.2649 27.2483 19.8302 27.3375 20.4153C27.3574 20.564 27.3772 20.7128 27.3871 20.8616L27.397 20.9707L27.4069 21.0798C27.4069 21.1194 27.4069 21.1591 27.4069 21.1888C27.4069 21.2285 27.4069 21.2682 27.4069 21.2979V21.3971V21.5062C27.4069 21.5756 27.397 21.6946 27.397 21.764C27.3871 21.9227 27.3673 22.0913 27.3474 22.25C27.3276 22.4087 27.2978 22.5674 27.2681 22.726C27.2383 22.8847 27.1987 23.0434 27.159 23.1921C27.0797 23.4996 26.9805 23.807 26.8615 24.1145C26.6235 24.7095 26.3061 25.2847 25.9293 25.8103C25.1656 26.8616 24.1243 27.7145 22.9342 28.2599C22.3392 28.5277 21.7144 28.726 21.0697 28.8252C20.7524 28.8847 20.4251 28.9145 20.0978 28.9244H20.0383H19.9888H19.8797H19.721H19.6416C19.6813 28.9244 19.6317 28.9244 19.6317 28.9244H19.602C19.4235 28.9244 19.2549 28.9145 19.0764 28.8946C18.3821 28.845 17.6978 28.7161 17.0235 28.5277C16.359 28.3393 15.7144 28.0715 15.0995 27.7541C13.8797 27.0996 12.7788 26.207 11.9259 25.126C11.4995 24.5905 11.1226 24.0054 10.8152 23.4004C10.5078 22.7955 10.2598 22.1508 10.0813 21.5062C9.90281 20.8517 9.79372 20.1872 9.74413 19.5128L9.73421 19.3839V19.3541V19.3244V19.2649V19.1558V19.126V19.0864V19.007V18.8483V18.8186C9.73421 18.8186 9.73421 18.8285 9.73421 18.8087V18.7492C9.73421 18.6698 9.73421 18.5806 9.73421 18.5012C9.74413 18.174 9.77388 17.8269 9.81355 17.4897C9.85322 17.1525 9.91272 16.8054 9.98215 16.4682C10.0516 16.131 10.1309 15.7938 10.2301 15.4566C10.4185 14.7921 10.6565 14.1475 10.9342 13.5426C11.4995 12.3326 12.2334 11.2517 13.116 10.3888C13.3342 10.1707 13.5623 9.97231 13.8003 9.77397C14.0383 9.58554 14.2863 9.40702 14.5441 9.23843C14.7921 9.06983 15.0598 8.92107 15.3276 8.78223C15.4565 8.71281 15.5954 8.64339 15.7342 8.58388C15.8036 8.55413 15.8731 8.52438 15.9425 8.49463C16.0119 8.46488 16.0813 8.43512 16.1507 8.40537C16.4284 8.28636 16.716 8.18719 17.0136 8.09793C17.083 8.0781 17.1623 8.05826 17.2317 8.02851C17.3012 8.00868 17.3805 7.98884 17.4499 7.96901C17.5987 7.92934 17.7474 7.88967 17.8962 7.85992C17.9656 7.84008 18.045 7.83016 18.1243 7.81033C18.2036 7.79049 18.2731 7.78058 18.3524 7.76074C18.4317 7.75083 18.5012 7.73099 18.5805 7.72107L18.6896 7.70124L18.8086 7.6814C18.8879 7.67149 18.9574 7.66157 19.0367 7.65165C19.1259 7.64173 19.2053 7.63182 19.2945 7.6219C19.364 7.61198 19.483 7.60207 19.5524 7.59215C19.602 7.58223 19.6615 7.58223 19.7111 7.57231L19.8202 7.5624L19.8697 7.55248H19.9293C20.0185 7.54256 20.0978 7.54256 20.1871 7.53264L20.316 7.52273C20.316 7.52273 20.3656 7.52273 20.3259 7.52273H20.3557H20.4152C20.4846 7.52273 20.564 7.51281 20.6334 7.51281C20.921 7.50289 21.2185 7.50289 21.5061 7.51281C22.0813 7.53264 22.6466 7.60207 23.1921 7.70124C24.2929 7.9095 25.3243 8.25661 26.2664 8.72273C27.2086 9.17892 28.0417 9.74421 28.7755 10.3591C28.8251 10.3988 28.8648 10.4384 28.9144 10.4781C28.954 10.5178 29.0036 10.5574 29.0433 10.5971C29.1326 10.6764 29.2119 10.7558 29.3012 10.8351C29.3904 10.9145 29.4697 10.9938 29.5491 11.0731C29.6284 11.1525 29.7078 11.2318 29.7871 11.3211C30.0945 11.6483 30.3821 11.9756 30.64 12.3128C31.1557 12.9773 31.5722 13.6517 31.8995 14.2864C31.9193 14.326 31.9392 14.3657 31.959 14.4054C31.9788 14.445 31.9987 14.4847 32.0185 14.5244C32.0582 14.6037 32.0978 14.6831 32.1276 14.7624C32.1673 14.8417 32.197 14.9112 32.2367 14.9905C32.2664 15.0698 32.3061 15.1393 32.3359 15.2186C32.4549 15.5161 32.5739 15.8037 32.6631 16.0715C32.8119 16.5079 32.921 16.8946 33.0102 17.2318C33.04 17.3707 33.1689 17.4599 33.3078 17.4401C33.4565 17.4302 33.5656 17.3112 33.5656 17.1624C33.5755 16.8054 33.5656 16.3789 33.516 15.893Z" fill="url(#paint0_linear_202_15461)"/>
</g>
<defs>
<linearGradient id="paint0_linear_202_15461" x1="17.0036" y1="44.0875" x2="17.0036" y2="11.2154" gradientUnits="userSpaceOnUse">
<stop stop-color="#FFF100"/>
<stop offset="1" stop-color="#F05A28"/>
</linearGradient>
<clipPath id="clip0_202_15461">
<rect width="34" height="37" fill="white"/>
</clipPath>
</defs>
</svg>
