<svg width="37" height="37" viewBox="0 0 37 37" fill="none" xmlns="http://www.w3.org/2000/svg">
<g clip-path="url(#clip0_202_14404)">
<path d="M18.0021 0.00219727C8.0612 0.00219727 0.00219727 8.06009 0.00219727 18.0015C0.00219727 27.9426 8.06147 36.0014 18.0021 36.0014C27.9435 36.0014 36.0022 27.9426 36.0022 18.0015C36.0022 8.06009 27.9435 0.00219727 18.0021 0.00219727ZM27.5448 8.67813C27.4466 8.60271 27.321 8.53894 27.171 8.48681C27.0243 8.43496 26.864 8.38228 26.6932 8.33098C26.5255 8.27997 26.3661 8.21065 26.2216 8.12414C26.078 8.03957 25.9574 7.92478 25.862 7.78558C25.7677 7.64695 25.72 7.46117 25.72 7.23242C25.72 7.0106 25.7638 6.81318 25.8512 6.64792C25.9393 6.48017 26.0575 6.33821 26.2033 6.22619C26.35 6.11278 26.5211 6.02683 26.7107 5.96999C26.9029 5.91342 27.1039 5.88431 27.3063 5.88431C27.5425 5.88431 27.7732 5.91869 27.992 5.98468C28.2027 6.04956 28.3965 6.15659 28.5671 6.30383L27.9643 6.96346C27.888 6.87557 27.7871 6.80847 27.6637 6.76577C27.5326 6.71918 27.4058 6.69617 27.2888 6.69617C27.2201 6.69617 27.148 6.70338 27.0751 6.72002C27.0019 6.73638 26.932 6.76188 26.8665 6.79682C26.8 6.83259 26.7443 6.88 26.7029 6.93795C26.6602 6.99757 26.6386 7.07077 26.6386 7.15423C26.6386 7.29148 26.6885 7.39296 26.792 7.46644C26.8884 7.5352 27.0118 7.5951 27.1596 7.64223C27.3041 7.6902 27.4618 7.739 27.6279 7.78558C27.7921 7.833 27.9474 7.90038 28.0904 7.98605C28.2324 8.07145 28.3513 8.18819 28.4434 8.33098C28.5366 8.47378 28.5831 8.66704 28.5831 8.90882C28.5831 9.13785 28.5399 9.34137 28.4542 9.51301C28.3685 9.68409 28.2518 9.82771 28.106 9.93973C27.9604 10.0512 27.7876 10.1374 27.5958 10.1912C27.4009 10.2467 27.1934 10.2741 26.9783 10.2741C26.7085 10.2741 26.454 10.2331 26.2227 10.1507C25.9984 10.0706 25.7874 9.94167 25.5925 9.7656L26.2191 9.07685C26.3134 9.19608 26.4329 9.29063 26.5712 9.35746C26.719 9.42677 26.8746 9.4631 27.0321 9.4631C27.11 9.4631 27.1885 9.45423 27.2672 9.4362C27.3462 9.4179 27.4178 9.38879 27.4821 9.3533C27.547 9.31559 27.5991 9.26651 27.6396 9.20884C27.6798 9.14922 27.7003 9.07741 27.7003 8.99811C27.7009 8.86086 27.6493 8.7566 27.5448 8.67813ZM22.5835 5.99189H23.4663V9.35496H25.1901V10.1671H22.5838V5.99189H22.5835ZM20.6622 5.99189H21.5445V10.1671H20.6622V5.99189ZM17.5637 5.99189H18.3021L20.1185 10.1671H19.1209L18.7574 9.27178H17.084L16.7321 10.1671H15.7589L17.5637 5.99189ZM12.0914 5.99189H13.7015C13.9134 5.99189 14.1172 6.01241 14.3082 6.05428C14.4965 6.09421 14.6642 6.16408 14.8062 6.25918C14.9476 6.35457 15.0613 6.48378 15.1447 6.64432C15.2282 6.80486 15.2703 7.00977 15.2703 7.25072C15.2703 7.54186 15.1938 7.79307 15.0424 7.99714C14.8974 8.19262 14.6845 8.31962 14.41 8.37729L14.3451 8.39115L15.4129 10.1671H14.3545L13.4719 8.4796H12.9745V10.1671H12.0917V5.99189H12.0914ZM7.45174 7.1692C7.56265 6.89941 7.72042 6.66678 7.92062 6.47712C8.11998 6.28747 8.35982 6.14023 8.63377 6.03736C8.90827 5.93561 9.21272 5.88403 9.53824 5.88403C9.87236 5.88403 10.184 5.92507 10.4654 6.0052C10.7366 6.08284 10.9795 6.21787 11.1869 6.40503L10.5642 7.08463C10.4397 6.96069 10.2977 6.86503 10.1438 6.79876C9.98243 6.72944 9.77891 6.69617 9.53824 6.69617C9.33721 6.69617 9.15255 6.72944 8.98951 6.79876C8.82564 6.8678 8.68368 6.96457 8.56667 7.08741C8.44938 7.21107 8.35899 7.35914 8.29632 7.528C8.23394 7.69713 8.20344 7.88263 8.20344 8.0795C8.20344 8.27997 8.23394 8.46629 8.29632 8.63405C8.35899 8.80069 8.44993 8.94792 8.56667 9.07131C8.68396 9.19359 8.82592 9.29091 8.98951 9.35967C9.15227 9.42816 9.33749 9.46254 9.53824 9.46254C9.74287 9.46254 9.92116 9.43953 10.0703 9.39295C10.2106 9.34941 10.326 9.3045 10.413 9.25847L10.4191 9.25486L10.4288 9.24571L10.4383 9.2288V8.51981H9.68131V7.70933H11.2856V9.87818C11.0164 10.0165 10.7336 10.1177 10.4455 10.179C10.1507 10.2428 9.8449 10.2738 9.53824 10.2738C9.21272 10.2738 8.90855 10.2226 8.63377 10.1205C8.35982 10.0193 8.1197 9.87069 7.92062 9.68104C7.72126 9.49221 7.56265 9.25847 7.45174 8.98812C7.34028 8.71861 7.28344 8.41306 7.28344 8.0795C7.28344 7.74649 7.34028 7.44038 7.45174 7.1692ZM13.2144 21.496C12.9446 21.6147 12.6002 21.7494 12.4657 21.821C12.2175 21.9532 11.8335 22.2427 11.6178 22.5749C11.4581 22.8219 11.3095 23.1577 11.2612 23.3779C11.2318 23.5165 11.2171 23.7195 11.2202 23.9579C11.226 24.5141 11.3219 25.2539 11.513 25.7613C11.7304 26.3375 11.8488 26.5294 12.0994 27.113C12.2059 27.3601 12.3057 27.5955 12.354 27.7103C12.3742 27.7558 12.3681 27.8079 12.3409 27.8489C12.2744 27.9507 12.1249 28.1426 11.8773 28.2757C11.4462 28.5086 10.5381 28.5926 10.0875 28.5956H10.0856C9.63584 28.5923 8.72776 28.5086 8.29605 28.2757C8.04844 28.1426 7.89954 27.9507 7.833 27.8489C7.80527 27.8079 7.8 27.7558 7.81941 27.7103C7.86821 27.5955 7.96831 27.3598 8.0745 27.113C8.32516 26.5294 8.44356 26.3375 8.66094 25.7613C8.85198 25.2539 8.94792 24.5141 8.95347 23.9579C8.95624 23.7197 8.9421 23.5165 8.91187 23.3779C8.86363 23.1574 8.71529 22.8217 8.55558 22.5749C8.34041 22.243 7.95555 21.9532 7.70795 21.821C7.52162 21.722 6.92936 21.4999 6.69645 21.3715C6.39976 21.2074 6.01296 20.9523 5.75344 20.7487C5.46424 20.523 4.89638 19.9652 4.67428 19.6896C4.24866 19.1616 3.8566 18.5425 3.66694 17.8748C3.43098 17.0468 3.43985 16.6925 3.4088 16.4252C3.40325 16.38 3.43763 16.3392 3.48366 16.3367C3.7113 16.3293 4.53121 16.3104 7.39518 16.306C7.45175 16.3051 7.50221 16.3403 7.52245 16.393C8.32793 18.5269 10.4291 20.2918 13.2019 21.252C13.3153 21.2905 13.325 21.4478 13.2144 21.496ZM20.2657 27.5689C20.6181 28.5047 20.8106 28.815 21.2179 29.7638C21.3901 30.1644 21.5526 30.5474 21.6316 30.732C21.6635 30.8072 21.6549 30.8901 21.6105 30.9588C21.5015 31.1247 21.2589 31.4349 20.8577 31.6515C20.1576 32.03 18.6828 32.1669 17.951 32.1697H17.9483C17.2165 32.1669 15.7423 32.03 15.0419 31.6515C14.6407 31.4349 14.3991 31.1247 14.2902 30.9588C14.2458 30.8901 14.2372 30.8072 14.2691 30.732C14.3481 30.5474 14.5095 30.1644 14.6817 29.7638C15.0893 28.815 15.2817 28.5047 15.6344 27.5689C15.945 26.7445 16.1011 25.5439 16.1105 24.6392C16.1144 24.2546 16.0914 23.9233 16.0428 23.6976C15.9649 23.3407 15.7234 22.797 15.4639 22.3952C15.1145 21.8542 14.4895 21.3862 14.0878 21.1719C13.7839 21.0099 12.8231 20.6498 12.4446 20.4407C11.9627 20.1753 11.3347 19.76 10.9135 19.4306C10.4441 19.0635 9.52188 18.1587 9.16198 17.7101C8.47045 16.8522 7.83328 15.8468 7.52522 14.7635C7.14314 13.4187 7.15783 12.8442 7.10681 12.4097C7.09822 12.3346 7.15395 12.2688 7.22826 12.2661C7.69436 12.2492 9.68658 12.2059 17.9508 12.2142C26.2141 12.2059 28.2063 12.2492 28.6722 12.2661C28.7473 12.2688 28.8033 12.3346 28.7939 12.4097C28.7429 12.8442 28.7576 13.419 28.3757 14.7635C28.0671 15.8468 27.4302 16.8522 26.7387 17.7101C26.3785 18.1584 25.4569 19.0632 24.9874 19.4306C24.5657 19.76 23.9374 20.1753 23.4555 20.4407C23.0776 20.6498 22.1163 21.0099 21.8135 21.1719C21.4112 21.3862 20.7867 21.8542 20.4363 22.3952C20.1773 22.797 19.9358 23.3407 19.8584 23.6976C19.8091 23.9233 19.7869 24.2549 19.7908 24.6392C19.7988 25.5439 19.9555 26.7445 20.2657 27.5689ZM31.3296 19.6893C31.108 19.9649 30.5404 20.5228 30.2512 20.7485C29.9912 20.952 29.6046 21.2071 29.3074 21.3712C29.0745 21.4996 28.4825 21.7217 28.2967 21.8207C28.0486 21.953 27.6637 22.2424 27.448 22.5746C27.2888 22.8217 27.1399 23.1574 27.0922 23.3776C27.0615 23.5162 27.0484 23.7192 27.0501 23.9576C27.0559 24.5139 27.1524 25.2536 27.3432 25.761C27.5608 26.3372 27.679 26.5291 27.9296 27.1128C28.0358 27.3598 28.1354 27.5952 28.1847 27.71C28.2041 27.7555 28.1988 27.8076 28.1711 27.8486C28.104 27.9504 27.9557 28.1423 27.7081 28.2754C27.2758 28.5083 26.3688 28.5923 25.9183 28.5954H25.9166C25.466 28.592 24.5579 28.5083 24.1268 28.2754C23.8786 28.1423 23.7303 27.9504 23.6632 27.8486C23.6355 27.8076 23.6302 27.7555 23.6496 27.71C23.6984 27.5952 23.7979 27.3595 23.9047 27.1128C24.1553 26.5291 24.2735 26.3372 24.4906 25.761C24.6816 25.2536 24.7781 24.5139 24.7842 23.9576C24.7859 23.7195 24.7723 23.5162 24.7426 23.3776C24.6944 23.1572 24.5455 22.8214 24.3863 22.5746C24.1709 22.2427 23.7863 21.953 23.5381 21.8207C23.4039 21.7492 23.0584 21.6144 22.7898 21.4957C22.6789 21.4475 22.6886 21.2905 22.8022 21.2514C25.5755 20.2912 27.6762 18.5264 28.4814 16.3925C28.5019 16.3398 28.5529 16.3046 28.6087 16.3054C31.4729 16.3101 32.2928 16.3287 32.5202 16.3362C32.5662 16.339 32.6003 16.3794 32.595 16.4246C32.5648 16.6919 32.5729 17.046 32.3372 17.8742C32.1475 18.5422 31.7555 19.1613 31.3296 19.6893ZM14.3517 7.24379C14.3517 7.36524 14.3243 7.45979 14.2722 7.52716C14.2198 7.59426 14.1529 7.64334 14.0733 7.67467C13.9965 7.70545 13.9081 7.72403 13.8133 7.73068C13.719 7.73623 13.6294 7.73956 13.5468 7.73956H12.9742V6.73138H13.6061C13.6896 6.73138 13.7767 6.73693 13.8657 6.74996C13.9555 6.76078 14.0362 6.78573 14.1055 6.81928C14.1765 6.85533 14.2367 6.90745 14.2816 6.97428C14.3279 7.04138 14.3517 7.13343 14.3517 7.24379ZM17.9058 7.13122L18.4596 8.53312H17.3577L17.9058 7.13122Z" fill="#FEB672"/>
</g>
<defs>
<clipPath id="clip0_202_14404">
<rect width="37" height="37" fill="white"/>
</clipPath>
</defs>
</svg>
