<svg width="37" height="36" viewBox="0 0 37 36" fill="none" xmlns="http://www.w3.org/2000/svg">
<g clip-path="url(#clip0_202_9440)">
<path fill-rule="evenodd" clip-rule="evenodd" d="M36.0059 17.9992C36.0059 27.8803 27.9477 35.8914 18.005 35.8914C8.06398 35.8914 0.00585938 27.8803 0.00585938 17.9992C0.00585938 8.11811 8.06398 0.108597 18.005 0.108597C27.9477 0.108597 36.0059 8.11811 36.0059 17.9992Z" fill="#15C39A"/>
<path fill-rule="evenodd" clip-rule="evenodd" d="M21.5572 20.4238C20.8099 20.4238 20.2185 21.094 20.3582 21.8626C20.4638 22.4488 21.0178 22.8493 21.6173 22.8493H23.5035L24.5969 22.6975C22.8471 25.2473 19.8107 26.4213 16.4884 25.9045C13.7866 25.4814 11.4634 23.6648 10.4838 21.1263C8.25965 15.3614 12.495 9.85968 18.0123 9.85968C20.8895 9.85968 23.4109 11.5326 24.8568 13.5528C24.8568 13.5528 24.8584 13.5948 24.8584 13.5964C25.2435 14.147 26.0021 14.3037 26.5561 13.9226C27.0825 13.5608 27.2271 12.8713 26.9119 12.3304H26.9201C24.9185 9.22667 21.3249 7.24044 17.2828 7.51011C12.0207 7.86053 7.76089 12.1414 7.45871 17.3767C7.10617 23.4662 11.967 28.4398 18.0123 28.4398C21.1884 28.4398 24.0315 27.0656 25.9697 24.8404L25.739 26.1161V27.2691C25.739 27.8633 26.1435 28.4156 26.7316 28.5205C27.5065 28.6594 28.1791 28.0716 28.1791 27.3288V20.4238H21.5572Z" fill="#FEFEFE"/>
</g>
<defs>
<clipPath id="clip0_202_9440">
<rect width="37" height="36" fill="white"/>
</clipPath>
</defs>
</svg>
