<svg width="32" height="37" viewBox="0 0 32 37" fill="none" xmlns="http://www.w3.org/2000/svg">
<g clip-path="url(#clip0_202_13385)">
<path d="M15.9871 0.00140381L18.6139 1.5386L17.2458 2.34955L18.6527 1.519V4.62306L5.99809 12.072L5.99808 23.9017L6.01048 23.8945L15.9276 29.6596L26.0073 23.8325V15.1995L15.9917 21.1042L15.9916 21.0793L13.4 19.5363L13.4 16.4777L13.346 16.4444L28.5673 7.5066L31.2547 8.99433L31.26 8.99125L31.2599 8.99731L31.2624 8.99863L31.2599 9.00005L31.26 26.9869L16.0785 35.9501L16.0786 35.9992L16.0371 35.9745L15.9917 36.0014L15.9916 35.9475L0.73877 26.8946V8.94141L1.40921 9.33688L0.765766 8.93917L15.9871 0.00140381Z" fill="#F25F3F"/>
<path d="M18.6526 1.51898V4.62304L5.99796 12.072V23.9213L3.38428 25.4282V10.5335L18.6526 1.51898Z" fill="#F25F3F"/>
<path d="M18.6137 1.5386L15.9869 0.00140381L0.765625 8.93917L3.39265 10.5629L18.6137 1.5386Z" fill="#FFAA5B"/>
<path d="M31.12 23.8948L28.522 22.3793L15.9277 29.6599L6.01064 23.8948L3.375 25.435L13.3007 31.3171L15.9277 32.9408L31.12 23.8948Z" fill="#FFAA5B"/>
<path d="M31.2626 8.99832L28.5675 7.50629L13.3462 16.4441L15.9732 18.0678L31.2626 8.99832Z" fill="#FFAA5B"/>
<path d="M0.73877 8.94183L3.39908 10.5111V25.4232L16.0786 32.8505V35.9996L0.73877 26.895V8.94183Z" fill="#EB1919"/>
<path d="M26.0073 12.142V23.8711L28.6707 25.3777V12.7093L26.0073 12.142Z" fill="#EB1919"/>
<path d="M15.9915 36.0014V32.8973L28.6461 25.3769L28.6461 13.6438L15.9915 21.1042V18.0142L31.2598 8.99125L31.2598 26.9869L15.9915 36.0014Z" fill="#F25F3F"/>
<path d="M13.3999 16.4194V19.5367L16.0053 21.0878V18.0018L13.3999 16.4194Z" fill="#EB1919"/>
</g>
<defs>
<clipPath id="clip0_202_13385">
<rect width="32" height="37" fill="white"/>
</clipPath>
</defs>
</svg>
