<svg width="34" height="37" viewBox="0 0 34 37" fill="none" xmlns="http://www.w3.org/2000/svg">
<g clip-path="url(#clip0_202_9891)">
<path fill-rule="evenodd" clip-rule="evenodd" d="M20.0793 4.12773L27.4817 8.40164C27.6901 8.18086 27.9336 7.98591 28.2098 7.82549C29.745 6.94295 31.7032 7.46696 32.5949 9.0022C33.4774 10.5374 32.9534 12.4956 31.4182 13.3873C31.1441 13.5448 30.8562 13.6576 30.5632 13.7277V22.2789C30.853 22.3492 31.1378 22.4612 31.409 22.6171C32.9534 23.5088 33.4774 25.467 32.5857 27.0022C31.7032 28.5374 29.7358 29.0614 28.2006 28.1789C27.895 28.0032 27.6294 27.7845 27.407 27.5348L20.0498 31.7826C20.1549 32.1004 20.2118 32.4404 20.2118 32.7938C20.2118 34.5589 18.7777 36.0022 17.0035 36.0022C15.2292 36.0022 13.7951 34.5681 13.7951 32.7938C13.7951 32.4784 13.8404 32.1738 13.9249 31.8861L6.52443 27.6133C6.31822 27.8297 6.07812 28.021 5.80632 28.1789C4.26189 29.0614 2.30377 28.5374 1.42124 27.0022C0.538705 25.467 1.06271 23.5088 2.59795 22.6171C2.86939 22.4611 3.15406 22.349 3.44371 22.2787V13.7277C3.15071 13.6576 2.86285 13.5448 2.58876 13.3873C1.05352 12.5048 0.529512 10.5374 1.41205 9.0022C2.29458 7.46696 4.26189 6.94295 5.79713 7.82549C6.07183 7.98504 6.31415 8.17874 6.52184 8.39805L13.9263 4.12298C13.8409 3.83387 13.7951 3.52765 13.7951 3.21057C13.7951 1.43631 15.2292 0.00219727 17.0035 0.00219727C18.7777 0.00219727 20.2118 1.43631 20.2118 3.21057C20.2118 3.52939 20.1655 3.83723 20.0793 4.12773ZM19.308 5.44454L26.7281 9.72863C26.4987 10.5342 26.5829 11.4274 27.0331 12.2106C27.4848 12.9963 28.2206 13.5171 29.0372 13.7201V22.282C28.9956 22.2922 28.9541 22.3032 28.913 22.3151L19.2219 5.53011C19.2511 5.50213 19.2798 5.4736 19.308 5.44454ZM14.7871 5.53205L5.09615 22.3168C5.05425 22.3046 5.01211 22.2933 4.96976 22.2828V13.7201C5.78636 13.5171 6.52217 12.9963 6.97384 12.2106C7.42494 11.4259 7.50856 10.5307 7.2775 9.72385L14.6955 5.44097C14.7254 5.47194 14.7559 5.50231 14.7871 5.53205ZM17.8999 6.29245L27.5887 23.0734C27.3718 23.2801 27.1807 23.521 27.0239 23.7938C26.868 24.065 26.756 24.3498 26.6857 24.6396H7.32143C7.25114 24.3499 7.13908 24.0653 6.98304 23.7938C6.82558 23.5227 6.63488 23.2832 6.41912 23.0773L16.1097 6.29323C16.3933 6.37509 16.6932 6.41895 17.0035 6.41895C17.3147 6.41895 17.6155 6.37481 17.8999 6.29245ZM19.3762 30.6323L26.748 26.3761C26.7259 26.3066 26.7062 26.2364 26.6888 26.1656H7.31733C7.30705 26.2072 7.29595 26.2486 7.28404 26.2898L14.6921 30.5669C15.2754 29.9616 16.0948 29.5854 17.0035 29.5854C17.9444 29.5854 18.7897 29.9888 19.3762 30.6323Z" fill="#E535AB"/>
</g>
<defs>
<clipPath id="clip0_202_9891">
<rect width="34" height="37" fill="white"/>
</clipPath>
</defs>
</svg>
