<svg width="37" height="36" viewBox="0 0 37 36" fill="none" xmlns="http://www.w3.org/2000/svg">
<g clip-path="url(#clip0_202_14529)">
<path d="M18.0076 0.000427246C16.0186 0.000427246 14.4076 1.61143 14.4076 3.60043V16.2004C14.4076 18.1872 16.0186 19.8004 18.0076 19.8004C19.9966 19.8004 21.6076 18.1872 21.6076 16.2004V7.81693C25.8016 9.30193 28.8076 13.2979 28.8076 18.0004C28.8076 23.9629 23.9701 28.8004 18.0076 28.8004C12.0451 28.8004 7.20757 23.9629 7.20757 18.0004C7.20757 15.0169 8.41582 12.3169 10.3711 10.3639C11.7773 8.95768 11.7773 6.67843 10.3711 5.27218C8.96482 3.86593 6.68557 3.86593 5.27932 5.27218C2.02357 8.52793 0.00756836 13.0279 0.00756836 18.0004C0.00756836 27.9409 8.06707 36.0004 18.0076 36.0004C27.9481 36.0004 36.0076 27.9409 36.0076 18.0004C36.0076 8.05993 27.9481 0.000427246 18.0076 0.000427246Z" fill="#1E8CBE"/>
</g>
<defs>
<clipPath id="clip0_202_14529">
<rect width="37" height="36.0004" fill="white"/>
</clipPath>
</defs>
</svg>
