<svg width="37" height="37" viewBox="0 0 37 37" fill="none" xmlns="http://www.w3.org/2000/svg">
<g clip-path="url(#clip0_202_15535)">
<path d="M19.1631 13.3546C19.3737 13.1439 19.3737 12.8026 19.1631 12.5921C18.9524 12.3815 18.6113 12.3815 18.4006 12.5921C18.1899 12.8026 18.1899 13.1439 18.4006 13.3546C18.6113 13.565 18.9524 13.565 19.1631 13.3546ZM17.2366 13.7574C17.0258 13.9679 17.0258 14.3093 17.2366 14.5199C17.4469 14.7303 17.7883 14.7303 17.999 14.5199C18.2094 14.3093 18.2094 13.9679 17.999 13.7574C17.7883 13.5468 17.4469 13.5468 17.2366 13.7574ZM20.5787 14.0408C20.2491 13.7111 19.7149 13.7114 19.3856 14.0408L18.6838 14.7425C18.3542 15.0722 18.3542 15.6064 18.6838 15.9356L19.4543 16.7063C19.7838 17.036 20.318 17.0357 20.6474 16.7063L21.3491 16.0046C21.6786 15.6749 21.6786 15.1408 21.3491 14.8112L20.5787 14.0408ZM27.3445 11.5092C28.2349 9.81359 26.9754 8.82315 26.1096 8.01019C24.7228 6.70662 23.3397 6.14305 21.7599 7.94804C20.1811 9.75313 21.1842 11.8466 22.6283 12.8798C24.073 13.9131 26.4529 13.2044 27.3445 11.5092ZM24.9524 10.8139C24.3961 10.147 25.4361 8.93629 26.0887 9.65925C27.2906 10.9912 25.5098 11.4807 24.9524 10.8139ZM18.0057 0.00415039C8.06441 0.00415039 0.00537109 8.06315 0.00537109 18.0035C0.00537109 27.9447 8.06441 36.0042 18.0057 36.0042C27.9464 36.0042 36.0054 27.9447 36.0054 18.0035C36.0054 8.06315 27.9464 0.00415039 18.0057 0.00415039ZM27.7393 20.9536C25.8623 19.7131 24.7897 18.665 23.8554 16.7857C23.2164 18.0733 21.7246 19.9879 19.2081 21.494C17.9518 25.4023 11.9756 32.8819 10.0414 31.8217C9.46872 31.508 9.35995 31.0949 9.48928 30.6688C9.628 29.6003 11.8382 27.1448 11.8382 27.1448C11.8382 27.1448 11.8849 27.66 12.5919 28.7455C11.658 25.8463 14.1349 22.2691 14.7911 21.0514C15.8222 20.7228 15.8968 19.3989 15.8968 19.3989C15.9628 17.3526 15.0487 15.8711 14.1629 14.9851C14.7993 15.7618 15.0053 16.9357 15.0355 18.0107V18.0167C15.0388 18.1382 15.0388 18.2574 15.0383 18.3762C15.0081 19.2661 14.7389 20.4954 14.1629 20.4954L14.1646 20.5031C13.5724 20.4778 12.8413 20.6042 12.1881 20.8084L10.744 21.1535C10.744 21.1535 11.5141 21.1183 11.93 21.4776C11.4668 22.2318 10.4375 23.1677 9.28935 23.6995C7.6189 24.4742 7.1388 22.9327 7.98692 21.9303C8.19518 21.6853 8.40553 21.4787 8.60441 21.3095C8.4764 21.177 8.39567 20.9996 8.37445 20.7745C8.37425 20.7734 8.3734 20.7722 8.37313 20.7711C8.25668 20.2596 8.32092 19.5956 9.04462 18.5403C9.18752 18.3169 9.35881 18.0879 9.56404 17.8552C9.57059 17.8473 9.57608 17.8399 9.58272 17.8321C9.59153 17.8214 9.60138 17.8113 9.61048 17.8009C9.61568 17.7951 9.62061 17.7893 9.6261 17.7832C9.67775 17.7245 9.73271 17.6671 9.79146 17.6117C10.6539 16.7283 12.0162 15.8096 14.1629 14.9851C16.6664 11.3052 17.5832 10.615 17.5832 10.615C17.8604 10.3316 18.3448 9.97921 18.5229 9.88939C17.2155 7.61765 16.9515 4.41516 17.294 3.55217C17.2663 3.5989 17.2408 3.64664 17.2196 3.69611C17.3465 3.40059 17.4316 3.30555 17.5635 3.15006C17.9205 2.72766 19.1307 2.50633 19.5652 3.40115C19.7967 3.87821 19.8404 4.49617 19.8327 4.95952C18.8744 4.90957 18.0051 6.00376 18.0051 6.00376C18.0051 6.00376 18.7989 5.62921 19.7849 5.62258C19.7849 5.62258 20.0478 5.85112 20.3757 6.28034C19.9329 7.11177 19.2051 8.87308 19.7322 10.7221C19.8195 11.0866 19.9516 11.3997 20.1156 11.6661C20.1219 11.6776 20.1271 11.6892 20.1334 11.701C20.1466 11.7183 20.1584 11.7326 20.1708 11.7485C21.0423 13.0606 22.6397 13.2141 22.6397 13.2141C21.8877 12.8389 21.2752 12.2413 20.8764 11.5167C20.6691 11.1292 20.5421 10.802 20.4641 10.5439C20.0411 8.91024 20.6638 7.95656 21.0203 7.3172C21.8405 6.04497 23.3346 5.27483 24.9405 5.45827C27.1944 5.71544 28.8132 7.75114 28.5556 10.0044C28.3985 11.381 27.5773 12.5197 26.449 13.1394C26.7203 13.8738 26.4303 14.7643 26.4303 14.7643C27.1136 15.6239 27.1438 16.1194 27.1202 16.5797C26.2517 16.4336 25.4079 17.0197 25.4079 17.0197C25.4079 17.0197 27.0834 16.6198 28.0568 17.488C28.6898 18.1689 29.112 18.7842 29.3636 19.2386C29.724 19.8867 31.3972 19.9329 31.2066 21.0986C31.016 22.2625 29.7399 22.2735 27.7393 20.9536Z" fill="#221E1F"/>
</g>
<defs>
<clipPath id="clip0_202_15535">
<rect width="37" height="37" fill="white"/>
</clipPath>
</defs>
</svg>
