<svg width="37" height="36" viewBox="0 0 37 36" fill="none" xmlns="http://www.w3.org/2000/svg">
<g clip-path="url(#clip0_202_15104)">
<path d="M18.0023 0.595459C28.4621 0.595459 36.0022 8.64889 36.0022 18.0178C36.0022 27.5472 28.8472 35.4081 18.0023 35.4081C7.15744 35.4081 0.00229863 27.5472 0.00229863 18.0178C-0.0296847 8.64889 7.51038 0.595459 18.0023 0.595459ZM6.09862 18.0178C6.09862 24.4028 11.5852 30.0178 17.9702 30.0178C24.3552 30.0178 29.8418 24.4028 29.8418 18.0178C29.8418 11.1195 24.3552 5.95372 17.9702 5.95372C11.6173 5.95372 6.09862 11.1195 6.09862 18.0178Z" fill="#FF3633"/>
<path d="M10.3978 17.0552C10.8791 17.0552 11.2962 17.3119 11.5208 17.729H12.5796L14.248 13.7184C14.3122 13.5258 14.5047 13.3654 14.6972 13.3012C15.0502 13.2371 15.4031 13.4296 15.4673 13.7825L17.232 21.5472L19.0287 11.0874C19.0608 10.8307 19.2533 10.6382 19.51 10.574C19.863 10.4777 20.2159 10.7023 20.3122 11.0553L22.2373 18.9162L23.2319 15.9964C23.264 15.8681 23.3603 15.7397 23.4886 15.6435C23.7774 15.451 24.1945 15.5151 24.387 15.8039L25.2212 16.9911C25.2533 17.2798 25.2533 17.5686 25.2533 17.8574C25.2533 18.2424 25.2212 18.6274 25.1891 18.9804C25.0608 18.9483 24.9645 18.852 24.8683 18.7558L24.0341 17.6007L22.7506 21.483C22.6223 21.836 22.2694 21.9964 21.9164 21.9001C21.6918 21.836 21.5314 21.6434 21.4993 21.4509L19.7667 14.4563L17.9378 25.0766C17.8737 25.4295 17.5528 25.6541 17.1999 25.622C16.9111 25.5899 16.7186 25.3654 16.6544 25.0766L14.6972 16.0927L13.6384 18.6274C13.5421 18.8841 13.2855 19.0445 13.0288 19.0445H11.5208C11.2962 19.4296 10.8791 19.6862 10.3978 19.6862C9.6919 19.6862 9.08228 19.1087 9.08228 18.3707C9.11436 17.6649 9.6919 17.0552 10.3978 17.0552Z" fill="#A6AFBD"/>
</g>
<defs>
<clipPath id="clip0_202_15104">
<rect width="37" height="36" fill="white"/>
</clipPath>
</defs>
</svg>
