<svg width="26" height="41" viewBox="0 0 26 41" fill="none" xmlns="http://www.w3.org/2000/svg">
<g clip-path="url(#clip0_202_9744)">
<path fill-rule="evenodd" clip-rule="evenodd" d="M9.65409 36.7743C9.65409 38.5559 11.0973 40.0022 12.8814 40.0022C14.6646 40.0022 16.1075 38.5555 16.1075 36.7743C16.1075 36.1192 15.9121 35.5094 15.5763 35.0001L17.1097 34.6941C18.3718 34.4715 19.2199 33.2711 19.0067 32.0064C18.7933 30.737 17.5887 29.8765 16.3142 30.0942L9.11658 31.3174C8.89983 31.3538 8.69497 31.2077 8.65878 30.9921L8.65852 30.9906C8.62194 30.7747 8.76722 30.5694 8.98463 30.5328L17.0657 29.1669C18.3358 28.9527 19.1944 27.7485 18.9789 26.4773L6.6901 25.781C6.90521 27.0503 8.10778 27.9101 9.3804 27.6954L16.612 26.474C16.8282 26.4373 17.0332 26.5824 17.0698 26.7997L17.07 26.8008C17.1063 27.0147 16.9611 27.221 16.7437 27.2577L8.66283 28.6235C7.39182 28.838 6.53435 30.0419 6.74943 31.3134C6.96331 32.5849 8.16806 33.441 9.43864 33.2266L16.6403 32.0027C16.8559 31.9659 17.061 32.1116 17.0973 32.3275L17.0974 32.3281C17.134 32.5445 16.9874 32.7511 16.7705 32.7878L16.7567 32.7902L12.9568 33.5485C12.9317 33.5479 12.9066 33.5476 12.8814 33.5476C11.0976 33.5476 9.65409 34.9936 9.65409 36.7743ZM14.1713 36.7743C14.1713 36.1287 13.6969 35.5934 13.0779 35.4987L13.0543 35.5034L13.0526 35.4951C12.9966 35.4877 12.9394 35.4838 12.8814 35.4838C12.1676 35.4838 11.5903 36.0623 11.5903 36.7743C11.5903 37.4879 12.1679 38.066 12.8814 38.066C13.5933 38.066 14.1713 37.4882 14.1713 36.7743Z" fill="#8CC63F"/>
<path d="M6.6901 25.781L18.9788 26.4767C18.764 25.2059 17.56 24.3491 16.288 24.5652L9.05815 25.7862C8.84321 25.8224 8.63621 25.6768 8.59907 25.4574C8.57055 25.2893 8.65434 25.1248 8.79928 25.0447L8.92695 25.0001L16.85 23.682L18.3646 23.412C18.7638 22.5521 19.1369 22.2674 19.6969 21.8399C19.9593 21.6397 20.2627 21.4081 20.6291 21.0714L20.7178 20.9899C21.8365 19.9624 23.1488 18.7571 24.3341 16.8548C26.9328 12.6842 25.9735 4.71624 18.7188 1.13208C18.4755 0.472383 17.8411 0.00219727 17.0972 0.00219727C16.1426 0.00219727 15.3687 0.775473 15.3687 1.73006C15.3687 2.68405 16.1426 3.45853 17.0972 3.45853C17.4572 3.45853 17.7915 3.34827 18.0682 3.15971C23.9325 6.25063 24.4726 12.6591 22.5507 15.7436C21.5179 17.4011 20.3847 18.4424 19.2604 19.4754L19.2073 19.5242C18.4983 20.1757 17.7702 20.8465 17.1324 21.6722L9.789 22.8939C9.00738 21.3341 7.88368 20.2978 6.80451 19.306L6.7514 19.2572C5.62709 18.2242 4.49389 17.1829 3.46112 15.5254C1.57415 12.497 2.06045 6.26455 7.62869 3.1135C7.91738 3.33013 8.27614 3.45853 8.66506 3.45853C9.61905 3.45853 10.3929 2.68405 10.3929 1.73006C10.3929 0.775473 9.61905 0.00219727 8.66506 0.00219727C7.96475 0.00219727 7.36223 0.41785 7.09054 1.01587C0.0205733 4.64715 -0.896646 12.5051 1.67769 16.6366C2.86297 18.5389 4.17526 19.7442 5.29394 20.7717L5.38265 20.8532C6.35338 21.7453 7.12917 22.48 7.70007 23.4485C6.95734 23.9426 6.53089 24.8418 6.6901 25.781Z" fill="#8CC63F"/>
<path d="M13.9984 15.8737V13.2224H16.6497V11.1211H13.9984V8.46812H11.8971V11.1211H9.24471V13.2224H11.8971V15.8737H13.9984Z" fill="#8CC63F"/>
</g>
<defs>
<clipPath id="clip0_202_9744">
<rect width="26" height="41" fill="white"/>
</clipPath>
</defs>
</svg>
