<svg width="37" height="36" viewBox="0 0 37 36" fill="none" xmlns="http://www.w3.org/2000/svg">
<g clip-path="url(#clip0_202_15110)">
<path d="M32.5506 14.9033C34.2818 14.8201 35.8145 16.1632 35.964 17.8963C36.6116 26.2795 29.0776 35.6549 18.2658 35.9552C16.5331 36.0034 15.0896 34.6338 15.0415 32.8964C14.9936 31.1588 16.3592 29.7113 18.0919 29.6631C25.2646 29.4639 29.8085 23.2686 29.566 18.1977C29.4829 16.4616 30.8191 14.9867 32.5506 14.9033Z" fill="url(#paint0_linear_202_15110)"/>
<path d="M3.1758 14.7249C4.90917 14.7249 6.31435 16.134 6.31435 17.8721C6.31435 25.127 12.1477 29.8221 17.974 29.6783C19.7069 29.6356 21.1462 31.0096 21.1888 32.7472C21.2316 34.4849 19.8613 35.9283 18.1285 35.971C9.01729 36.1958 0.00610352 28.9014 0.00610352 17.8721C0.00610352 16.134 1.44243 14.7249 3.1758 14.7249Z" fill="url(#paint1_linear_202_15110)"/>
<path d="M24.7102 18.1161C24.7102 16.3367 26.1618 14.894 27.9523 14.894H32.6771C34.4678 14.894 35.9642 16.3367 35.9642 18.1161C35.9642 19.8958 34.4678 21.3384 32.6771 21.3384H27.9523C26.1618 21.3384 24.7102 19.8958 24.7102 18.1161Z" fill="url(#paint2_linear_202_15110)"/>
<path d="M14.7961 18.1209C14.7961 16.3387 16.2385 14.894 18.0156 14.894C19.7929 14.894 21.2352 16.3387 21.2352 18.1209C21.2352 19.903 19.7929 21.3478 18.0156 21.3478C16.2385 21.3478 14.7961 19.903 14.7961 18.1209Z" fill="url(#paint3_linear_202_15110)"/>
<path d="M21.1464 3.04419C21.2185 4.78088 19.8727 6.2472 18.1408 6.31933C10.6646 6.63067 6.10043 12.5067 6.32259 18.0862C6.39175 19.8229 5.07186 21.2871 3.33987 21.3565C1.60789 21.4258 0.0847801 20.0241 0.0156241 18.2874C-0.34641 9.19513 7.22421 0.206749 17.8804 0.0302275C19.6123 -0.0418963 21.0746 1.3075 21.1464 3.04419Z" fill="url(#paint4_linear_202_15110)"/>
</g>
<defs>
<linearGradient id="paint0_linear_202_15110" x1="19.4294" y1="43.4896" x2="29.1559" y2="44.7397" gradientUnits="userSpaceOnUse">
<stop stop-color="#1A7D75"/>
<stop offset="1" stop-color="#1A8864"/>
</linearGradient>
<linearGradient id="paint1_linear_202_15110" x1="1.25147" y1="17.0874" x2="-3.68737" y2="30.073" gradientUnits="userSpaceOnUse">
<stop offset="0.0129262" stop-color="#168A81"/>
<stop offset="1" stop-color="#31A97F"/>
</linearGradient>
<linearGradient id="paint2_linear_202_15110" x1="8.47058" y1="18.3375" x2="12.8946" y2="25.0454" gradientUnits="userSpaceOnUse">
<stop stop-color="#27A59B"/>
<stop offset="1" stop-color="#64D8A2"/>
</linearGradient>
<linearGradient id="paint3_linear_202_15110" x1="5.5613" y1="18.7967" x2="14.5115" y2="26.5498" gradientUnits="userSpaceOnUse">
<stop stop-color="#27A59B"/>
<stop offset="1" stop-color="#64D8A2"/>
</linearGradient>
<linearGradient id="paint4_linear_202_15110" x1="44.1656" y1="-30.2465" x2="18.1655" y2="-39.0223" gradientUnits="userSpaceOnUse">
<stop stop-color="#27A59B"/>
<stop offset="1" stop-color="#64D8A2"/>
</linearGradient>
<clipPath id="clip0_202_15110">
<rect width="37" height="36" fill="white"/>
</clipPath>
</defs>
</svg>
