<svg width="44" height="44" viewBox="0 0 44 44" fill="none" xmlns="http://www.w3.org/2000/svg">
<g clip-path="url(#clip0_202_15830)">
<path d="M9.42053 27.6353L14.3019 18.2539L18.1917 24.8132L13.2341 32.7454L9.42053 27.6353Z" fill="#92C83E"/>
<path d="M12.548 31.9826L21.8531 13.8301L26.887 23.2877L19.7175 35.7199L12.548 31.9826Z" fill="#4B843D"/>
<path d="M18.4205 35.2628L31.3104 8.94922C31.3104 8.94922 35.5053 13.7543 36.4968 15.9662C37.4121 18.0255 37.1832 22.6018 35.7341 26.1865C34.2849 29.7713 31.3104 32.4407 29.6324 33.1272C22.6917 36.178 18.4205 35.2628 18.4205 35.2628Z" fill="#92C83E"/>
<g filter="url(#filter0_d_202_15830)">
<path d="M39.1664 20.161C39.1664 10.7034 31.463 3 22.0054 3C12.5477 3 4.84436 10.7034 4.84436 20.161C4.84436 28.8559 11.4037 36.1017 19.8698 37.1695V39L23.4545 37.2458C32.2257 36.5593 39.1664 29.161 39.1664 20.161ZM22.0054 34.2712C14.6833 34.2712 7.89521 27.483 7.89521 20.161C7.89521 12.839 14.6833 6.05085 22.0054 6.05085C29.3274 6.05085 36.1155 12.839 36.1155 20.161C36.1155 27.483 29.3274 34.2712 22.0054 34.2712Z" fill="white"/>
</g>
</g>
<defs>
<filter id="filter0_d_202_15830" x="0.84436" y="0" width="42.322" height="44" filterUnits="userSpaceOnUse" color-interpolation-filters="sRGB">
<feFlood flood-opacity="0" result="BackgroundImageFix"/>
<feColorMatrix in="SourceAlpha" type="matrix" values="0 0 0 0 0 0 0 0 0 0 0 0 0 0 0 0 0 0 127 0" result="hardAlpha"/>
<feOffset dy="1"/>
<feGaussianBlur stdDeviation="2"/>
<feColorMatrix type="matrix" values="0 0 0 0 0 0 0 0 0 0 0 0 0 0 0 0 0 0 0.243359 0"/>
<feBlend mode="normal" in2="BackgroundImageFix" result="effect1_dropShadow_202_15830"/>
<feBlend mode="normal" in="SourceGraphic" in2="effect1_dropShadow_202_15830" result="shape"/>
</filter>
<clipPath id="clip0_202_15830">
<rect width="44" height="44" fill="white"/>
</clipPath>
</defs>
</svg>
