<svg width="28" height="37" viewBox="0 0 28 37" fill="none" xmlns="http://www.w3.org/2000/svg">
<g clip-path="url(#clip0_202_16272)">
<path d="M2.37639 8.75516C2.37639 8.75516 2.99292 11.133 3.08083 11.9258C3.16906 12.7184 1.49561 14.4797 1.49561 15.3605C1.49561 16.2413 1.84745 17.8265 3.78527 18.6193C5.72309 19.412 5.98702 21.4375 5.98702 22.6708C5.98702 23.9037 5.28258 26.2814 5.28258 26.2814C5.28258 26.2814 4.84241 32.1821 7.22008 33.2389C9.59776 34.2956 9.06956 34.2956 9.59776 34.2956C10.1261 34.2956 14.0014 35.8813 16.291 35.2648C18.5809 34.6482 19.197 33.9438 19.197 33.9438C19.197 33.9438 21.4871 34.1197 22.1915 32.0939C22.8964 30.0685 23.3365 25.8412 23.0722 23.9035C22.808 21.9657 22.4558 19.4121 24.0409 18.5312C25.6266 17.6504 27.2997 16.5939 27.0354 15.713C26.7712 14.8322 25.3624 13.5992 25.3624 13.5992C25.3624 13.5992 25.01 11.3976 25.2741 10.8691C25.5381 10.3407 27.1236 9.01931 26.2428 8.05072C25.3625 7.08202 23.7768 7.08202 23.7768 7.08202L21.7514 7.25795C21.7514 7.25795 18.3167 4.17562 13.825 4.35175C9.33361 4.52789 6.51511 7.25795 6.51511 7.25795C6.51511 7.25795 5.01811 6.72954 3.69693 7.25795C2.37575 7.78657 2.11235 7.25784 2.37639 8.75516Z" fill="#FBA919"/>
<path d="M10.4239 21.8678C10.4239 21.8678 8.67985 24.5346 7.40058 26.427C7.20263 26.7198 8.67985 26.7401 8.67985 26.7401L10.4239 21.8678Z" fill="#E78724"/>
<path d="M11.2543 16.339C11.2543 16.339 10.7286 17.6506 10.4406 18.3459C10.1279 19.1018 8.93604 19.4778 8.93604 19.4778C8.93604 19.4778 9.55385 18.8298 9.55385 17.1882C9.55385 16.4994 10.443 16.2256 10.443 16.2256L11.2543 16.339Z" fill="#E78724"/>
<path d="M10.7231 17.0806C10.7231 17.0806 9.64602 18.3628 7.64608 17.6447C5.64572 16.9269 5.44067 14.3622 5.44067 13.6441C5.44067 12.926 9.23604 14.3622 9.74908 14.67C10.2621 14.9778 11.236 16.2086 10.7231 17.0806Z" fill="#E78724"/>
<path d="M3.16846 3.37964C3.16846 3.37964 5.01472 3.02038 6.24552 3.99499C7.47686 4.96938 7.83537 5.73894 7.83537 5.73894L5.76074 7.38349C5.76074 7.38349 4.7583 6.9187 4.45052 5.58505C4.14285 4.25151 4.348 3.63616 3.16846 3.37964Z" fill="#E78724"/>
<path d="M10.1847 13.3771C9.38975 12.2487 8.07975 11.7565 7.03378 11.6749C5.25029 11.5354 4.40356 12.1659 4.40356 12.1659C4.40356 12.1659 7.32448 12.2896 8.16636 13.3953C9.73364 15.4533 12.0201 15.6205 12.3857 15.1685C11.9629 15.1896 11.4978 14.9801 11 14.5094C10.689 14.215 10.4369 13.7353 10.1847 13.3771Z" fill="#E78724"/>
<path d="M5.25384 17.3669C5.25384 17.3669 2.013 16.2528 2.629 15.1247C3.24434 13.9962 2.75452 13.3813 2.75452 13.3813C2.75452 13.3813 0.944903 14.7322 1.40604 16.1681C1.68942 17.0496 2.16485 17.6877 4.77551 18.9112C6.0277 21.2371 5.03407 25.4236 5.09361 25.4433C5.1928 25.4763 6.85175 24.6233 6.73848 20.7065C6.70398 19.5038 6.6078 17.8618 5.25384 17.3669Z" fill="#E78724"/>
<path d="M9.5008 5.3866C8.1419 6.07696 6.28027 7.03834 6.28027 7.03834L7.01297 7.40491C6.94301 7.51818 6.90927 7.58577 6.90927 7.58577L7.66131 7.92773C7.66131 7.92773 9.49715 9.25761 10.622 10.1126C10.2469 8.95779 9.14606 7.14355 9.14606 7.14355C9.14606 7.14355 8.83408 6.30994 9.5008 5.3866Z" fill="#E78724"/>
<path d="M14.0149 33.5275C9.83812 33.5275 8.42334 31.4071 8.42334 31.4071L9.07609 32.9966C9.32283 33.6843 11.9549 35.8242 14.0085 35.8242" fill="#E78724"/>
<path d="M8.8811 29.9744C8.8811 29.9744 9.2654 32.323 10.8041 32.323C12.1116 32.323 12.4969 30.3392 12.4969 29.9292L8.8811 29.9744Z" fill="#E78724"/>
<path d="M6.32055 26.4325C6.45725 26.0561 6.9359 24.5346 7.08969 23.1499C7.27399 21.4915 7.20682 19.0659 7.20682 19.0659C7.20682 19.0659 6.7963 20.6559 6.43726 20.9128C6.07843 21.1691 5.4115 22.9128 5.4115 22.9128C5.4115 22.9128 5.05429 25.5087 4.88428 26.3812C5.35476 26.4755 5.75088 26.1982 6.32055 26.4325Z" fill="#E78724"/>
<path d="M2.60469 16.1425C2.60469 16.1425 3.47634 15.8345 3.73307 13.9371C3.98938 12.0393 3.42508 10.3981 3.42508 10.3981C3.42508 10.3981 3.47634 13.0138 3.16877 13.5268C2.86078 14.0395 2.60469 14.1934 2.24543 14.8604C1.88617 15.5274 2.39921 15.9373 2.60469 16.1425Z" fill="#E78724"/>
<path d="M3.64551 3.82855L3.46755 3.71582C2.9428 3.73355 3.64551 3.82855 3.64551 3.82855Z" fill="#FDC168"/>
<path d="M10.2102 4.82468C10.2102 4.82468 9.38978 4.68799 8.97926 4.07264C8.56874 3.45707 7.40639 2.22595 5.55336 2.21219C3.70044 2.19833 1.86719 2.70471 1.86719 2.70471L3.46746 3.71585C3.63672 3.71037 3.93268 3.71263 4.42207 3.72896C6.43039 3.7957 6.73957 5.7822 6.73957 5.7822L13.8175 4.80759" fill="#FBA919"/>
<path d="M10.8943 15.7965C10.8943 15.7965 9.93675 16.754 8.4663 16.446C6.99585 16.1385 6.10668 15.4887 6.03833 14.3602C5.96998 13.2318 6.34632 12.7874 6.34632 12.7874C6.34632 12.7874 7.98743 13.3006 8.77429 13.9845C9.56073 14.6682 10.1419 15.7624 10.8943 15.7965Z" fill="white"/>
<path d="M9.73522 15.4545C9.73522 15.4545 8.90483 15.8339 7.97665 15.5249C6.76165 15.1197 6.68072 13.8561 6.68072 13.8561C6.68072 13.8561 5.93534 16.0434 8.02512 16.4645C9.70126 16.8021 10.6925 15.8309 10.6925 15.8309L9.73522 15.4545Z" fill="#C9C9C9"/>
<path d="M10.3253 4.36074C10.236 2.48482 11.7738 0.990723 12.3066 0.927103C12.3361 1.24499 12.2769 2.48492 12.8097 2.86621C12.9647 1.85346 13.4892 0.736889 15.56 0.00537109C15.1165 1.18169 15.5008 2.16704 15.6838 2.62377C17.098 1.3402 18.0507 1.55234 18.0507 1.55234C18.0507 1.55234 17.0682 3.24782 17.4525 4.36031C14.6137 4.13774 10.3391 4.66196 10.3253 4.36074Z" fill="#463014"/>
<path d="M4.30733 7.21813C3.62998 6.65619 4.13485 6.13466 4.08133 5.49621C4.05221 5.15651 4.02534 4.83594 3.91336 4.65916C3.29006 3.67488 1.81961 3.37623 1.80489 3.37312L1.11475 3.23793L1.57158 2.7035C1.6308 2.63429 3.50693 0.844238 6.41022 1.78155C8.4411 2.43656 9.94455 4.65765 10.0005 4.74739L8.98219 5.22625C8.97026 5.20734 7.78169 3.11961 6.03936 2.55778C4.63091 2.1033 3.33284 2.53564 2.77681 2.81903C3.36787 3.05502 4.14065 3.48477 4.6063 4.21995C4.82596 4.56717 4.86304 5.00434 4.89882 5.42764C4.946 5.98808 4.99017 6.51713 5.40262 6.85973L4.30733 7.21813Z" fill="#463014"/>
<path d="M2.49805 15.4213C2.49805 15.4213 3.35143 14.3631 3.60419 12.3039C3.70349 11.4929 3.52714 9.89317 3.24493 9.27771C3.29619 10.7907 2.91157 12.3039 2.91157 12.3039C2.91157 12.3039 2.65226 15.1135 2.49805 15.4213Z" fill="#463014"/>
<path d="M6.99799 6.14934C6.99756 6.14709 6.72417 4.95239 5.96621 4.3493C4.89704 3.49881 3.59155 3.95124 3.57897 3.95522L3.3894 3.36964C3.45259 3.34911 4.94475 2.87895 6.31988 3.8456C7.70329 4.81774 7.86932 5.69896 7.88372 5.79632L6.99799 6.14934Z" fill="#463014"/>
<path d="M5.17841 14.6625C5.17841 14.6625 4.73071 14.0215 4.8112 13.3167C4.85128 12.9686 5.01259 12.6113 5.3006 12.4845C5.83578 12.2493 6.07295 12.856 6.07295 12.856C6.07295 12.856 5.31973 13.0419 5.17841 14.6625Z" fill="#463014"/>
<path d="M10.0941 15.6393C10.1128 15.6742 10.1224 15.6937 10.1224 15.6937C10.1224 15.6937 8.72596 16.7417 7.29484 15.6783C6.52883 15.1085 6.60115 13.6991 6.83585 13.1013C7.44615 13.2397 7.96381 13.489 8.39647 13.7801C7.84968 13.2921 7.37103 12.9328 7.37232 12.9246L6.75085 12.7486L5.54294 12.3345C5.52746 12.4266 5.08685 14.4917 6.3586 15.8989C6.92226 16.5228 9.56484 17.9201 10.8195 15.5309L10.0941 15.6393Z" fill="#463014"/>
<path d="M9.96344 15.7929C10.7497 16.9895 12.7334 16.3057 12.6992 15.0406C12.6992 15.0406 11.3737 15.7721 10.2027 14.4253C9.51896 13.6389 7.32817 11.4708 4.35718 12.1914C6.40891 12.6425 9.1251 14.517 9.96344 15.7929Z" fill="#463014"/>
<path d="M4.07953 19.17C4.26867 19.2793 4.93571 19.9701 4.93614 21.0033C4.93614 21.5214 4.88455 24.1241 4.62814 25.7141C5.01383 25.9647 5.2825 26.018 5.66658 26.2735C5.85884 24.432 5.99671 21.7629 5.93245 20.6855C5.85894 19.4573 5.20136 18.633 4.59149 18.2815C4.40053 18.1717 4.20096 18.0637 4 17.955C2.95544 17.3906 1.8753 16.8067 1.8753 15.8098C1.8753 15.0299 2.17846 14.786 2.49946 14.5274L2.53407 14.4993C2.74706 14.3273 2.98811 14.1321 3.13093 13.8117C3.5206 12.9355 3.58433 10.7037 3.13093 10.1371C2.90493 9.85479 2.29936 8.90544 2.47346 8.26752C2.53976 8.02401 2.69311 7.84357 2.94276 7.71569C3.20691 7.58039 3.5638 7.51183 4.00312 7.51183C4.86607 7.51183 5.82316 7.77447 6.31696 7.93083C8.08144 8.49008 10.2105 10.1025 10.8208 10.5834C10.8384 10.5968 10.8487 10.6047 10.8505 10.606L11.241 10.8775L10.9968 10.4688C10.9817 10.4434 9.43486 7.89988 6.66902 6.9673C6.13094 6.7859 5.0738 6.48145 4.03493 6.48145C3.41636 6.48145 2.8915 6.58945 2.47593 6.80223C1.96944 7.06133 1.62641 7.47475 1.48391 7.99735C1.13465 9.27845 2.27217 10.7048 2.31097 10.7504C2.44358 10.9872 2.49978 12.7069 2.1934 13.3952C2.15127 13.4902 2.03575 13.5836 1.88949 13.7016C1.84371 13.7387 1.79245 13.7772 1.73818 13.8183C1.30595 14.1446 0.652344 14.6375 0.652344 15.7738C0.652344 17.3285 2.228 18.1714 3.49427 18.8492C3.702 18.961 3.90028 19.0667 4.07953 19.17Z" fill="#463014"/>
<path d="M4.30733 7.21813C3.62998 6.65619 4.13485 6.13466 4.08133 5.49621C4.05221 5.15651 4.02534 4.83594 3.91336 4.65916C3.29006 3.67488 1.81961 3.37623 1.80489 3.37312L1.11475 3.23793L1.57158 2.7035C1.6308 2.63429 3.50693 0.844238 6.41022 1.78155C8.4411 2.43656 9.94455 4.65765 10.0005 4.74739L8.98219 5.22625C8.97026 5.20734 7.78169 3.11961 6.03936 2.55778C4.63091 2.1033 3.33284 2.53564 2.77681 2.81903C3.36787 3.05502 4.14065 3.48477 4.6063 4.21995C4.82596 4.56717 4.86304 5.00434 4.89882 5.42764C4.946 5.98808 4.99017 6.51713 5.40262 6.85973L4.30733 7.21813Z" fill="#463014"/>
<path d="M4.28515 7.33319L4.24141 7.29698C3.73911 6.88012 3.8282 6.46949 3.9145 6.07219C3.95372 5.88886 3.9951 5.69929 3.97833 5.50488C3.95093 5.17797 3.9246 4.86955 3.82616 4.71383C3.23263 3.77673 1.79829 3.47647 1.7841 3.47357L0.922119 3.30453L1.49351 2.63652C1.50394 2.62405 2.70852 1.40808 4.74865 1.40808C5.30478 1.40808 5.87456 1.50061 6.44144 1.68373C8.56109 2.36721 10.0732 4.67009 10.0875 4.69287L10.1487 4.79067L8.9441 5.35723L8.89574 5.2805C8.76614 5.05955 7.62399 3.176 6.00825 2.65479C5.61138 2.52669 5.19334 2.462 4.76595 2.462C3.99187 2.462 3.36417 2.67295 3.03016 2.81459C3.58834 3.06595 4.26527 3.48904 4.69362 4.16457C4.9265 4.53253 4.96422 4.98228 5.00119 5.41676C5.04654 5.9571 5.08942 6.4652 5.46845 6.77985L5.61149 6.8985L4.28515 7.33319Z" fill="#463014"/>
<path d="M6.99799 6.14934C6.99756 6.14709 6.72417 4.95239 5.96621 4.3493C4.89704 3.49881 3.59155 3.95124 3.57897 3.95522L3.3894 3.36964C3.45259 3.34911 4.94475 2.87895 6.31988 3.8456C7.70329 4.81774 7.86932 5.69896 7.88372 5.79632L6.99799 6.14934Z" fill="#463014"/>
<path d="M6.92451 6.28899L6.89786 6.17142C6.89506 6.15992 6.62694 5.00606 5.90208 4.42973C5.48898 4.10077 4.99077 3.93377 4.42217 3.93377C3.97834 3.93377 3.64853 4.03973 3.61253 4.0522L3.51452 4.08476L3.26025 3.30359L3.35773 3.27211C3.40146 3.25824 3.79747 3.13477 4.35769 3.13477C5.09673 3.13477 5.79547 3.35163 6.37923 3.7615C7.79724 4.75803 7.97036 5.67955 7.98519 5.78121L7.99766 5.8616L6.92451 6.28899ZM4.42228 3.72894C5.02967 3.72894 5.58602 3.91572 6.03007 4.26885C6.67368 4.78146 6.97641 5.68643 7.06797 6.01087L7.76564 5.73285C7.70245 5.48654 7.42433 4.74729 6.26112 3.92958C5.70456 3.53841 5.06439 3.34024 4.3578 3.34024C3.97006 3.34024 3.66884 3.40193 3.52 3.43954L3.64584 3.82846C3.79178 3.78923 4.07259 3.72894 4.42228 3.72894Z" fill="#463014"/>
<path d="M10.7397 31.7596C10.4367 31.7596 10.1274 31.6496 9.91299 31.464C9.74889 31.3226 9.19394 30.8129 8.94924 30.1884C8.8579 29.9549 8.87842 29.7681 9.01093 29.6337C9.10227 29.5416 9.29184 29.4314 9.67668 29.4314L9.9505 29.431C10.2768 29.4307 10.8261 29.4307 11.2956 29.4307H11.7458C12.0386 29.4307 12.2484 29.494 12.3691 29.6173C12.5241 29.7766 12.4744 29.9792 12.4311 30.0858C12.3557 30.2725 12.0435 30.8804 11.515 31.4454C11.3257 31.6479 11.0503 31.7596 10.7397 31.7596Z" fill="#463014"/>
<path d="M11.0576 15.8632L9.96338 15.7928C9.96338 15.7928 10.2431 16.2859 10.4243 16.9236C10.6289 17.6449 10.2372 18.699 10.2372 18.699C10.2372 18.699 11.6962 17.0473 11.0576 15.8632Z" fill="#463014"/>
<path d="M9.69163 34.6488C5.79719 34.3495 4.427 30.6695 4.427 29.9031L5.44406 29.9035L4.93553 29.9031H5.44406C5.44911 30.2344 6.48411 33.3823 9.76955 33.6349L9.69163 34.6488Z" fill="#463014"/>
<path d="M8.59718 28.0556C8.53636 27.7039 8.53002 27.3703 8.60428 27.0425C8.30832 26.8201 7.77722 26.7374 7.37874 26.6083C7.0529 26.402 5.38547 26.8197 4.17573 25.3556C2.66003 23.5224 2.97899 22.4279 2.97899 22.4279C2.5904 22.8597 2.21373 22.6951 1.62138 24.7084C1.02817 26.7221 1.89982 28.1259 3.52438 29.5352C4.2919 30.2009 5.37687 30.4752 6.3101 30.5802C5.99748 30.2663 6.8441 30.2349 7.42764 30.0165C7.3811 29.5454 7.45902 29.088 7.81032 28.7198C8.02214 28.4977 8.29467 28.365 8.57741 28.2593C8.59321 28.2227 8.60653 28.189 8.62158 28.1539C8.61223 28.1219 8.60309 28.0896 8.59718 28.0556Z" fill="white"/>
<path d="M7.41973 30.0043C7.38598 29.9055 7.36051 29.8047 7.33547 29.7032C7.3085 29.5924 7.17417 29.2785 7.33977 29.6369C7.29721 29.5452 7.26938 29.4506 7.24886 29.3553C4.61788 29.3519 2.32897 27.5455 2.77119 23.7478C2.42677 23.2905 1.94446 24.6699 1.94446 24.6699C1.94446 24.6699 0.627364 28.4944 4.02908 29.9766C5.16252 30.471 6.16421 30.8253 6.40052 30.6822C6.89282 30.7823 7.33719 30.4391 7.50387 30.2134C7.4726 30.1441 7.44412 30.0746 7.41973 30.0043Z" fill="#C9C9C9"/>
<path d="M8.54977 27.5049C8.55385 27.1843 8.6193 26.8739 8.77426 26.5645C8.78512 26.5432 8.79769 26.5228 8.8093 26.5021C7.79686 26.4933 6.63086 26.3964 5.63799 25.999C4.54668 25.5625 3.18154 24.069 2.94694 22.3143C2.94694 22.3143 0.891665 23.9003 1.49562 27.2949C2.0625 30.4826 4.7299 31.5218 7.77204 31.6976C7.77365 31.6769 7.42987 30.9668 7.53852 30.5321C5.81112 30.6576 3.87942 29.9903 2.94694 28.4559C2.09324 27.0515 2.33267 24.6539 2.68355 24.3026C3.5394 27.0031 6.61893 27.552 8.54977 27.5049Z" fill="#463014"/>
<path d="M8.86849 25.5717C8.32106 27.1782 7.20288 28.4783 7.20288 28.4783C7.20288 28.4783 8.74104 28.4084 8.82593 28.1362C8.8888 27.9355 10.2148 24.8314 10.7238 21.1951C10.245 21.9816 8.91535 25.4342 8.86849 25.5717Z" fill="#463014"/>
<path d="M17.583 21.8678C17.583 21.8678 19.3266 24.5346 20.6063 26.427C20.8043 26.7198 19.3266 26.7401 19.3266 26.7401L17.583 21.8678Z" fill="#E78724"/>
<path d="M16.7524 16.339C16.7524 16.339 17.2783 17.6506 17.5658 18.3459C17.8785 19.1018 19.0703 19.4778 19.0703 19.4778C19.0703 19.4778 18.4525 18.8298 18.4525 17.1882C18.4525 16.4994 17.5635 16.2256 17.5635 16.2256L16.7524 16.339Z" fill="#E78724"/>
<path d="M17.2835 17.0806C17.2835 17.0806 18.3606 18.3628 20.3611 17.6447C22.3615 16.9266 22.5665 14.3622 22.5665 13.6441C22.5665 12.926 18.7711 14.3622 18.2581 14.67C17.745 14.9778 16.7707 16.2086 17.2835 17.0806Z" fill="#E78724"/>
<path d="M24.8383 3.37964C24.8383 3.37964 22.9921 3.02038 21.7609 3.99499C20.53 4.96938 20.1709 5.73894 20.1709 5.73894L22.2456 7.38338C22.2456 7.38338 23.2485 6.91859 23.5563 5.58494C23.8638 4.25151 23.6588 3.63616 24.8383 3.37964Z" fill="#E78724"/>
<path d="M17.8221 13.3771C18.617 12.2487 19.9266 11.7565 20.973 11.6749C22.7566 11.5354 23.6029 12.1659 23.6029 12.1659C23.6029 12.1659 20.682 12.2896 19.84 13.3953C18.2726 15.4533 15.9869 15.6205 15.6213 15.1685C16.044 15.1896 16.5093 14.9801 17.0068 14.5094C17.3177 14.215 17.5699 13.7353 17.8221 13.3771Z" fill="#E78724"/>
<path d="M22.753 17.3669C22.753 17.3669 25.9934 16.2528 25.378 15.1247C24.7626 13.9962 25.252 13.3813 25.252 13.3813C25.252 13.3813 27.0621 14.7322 26.6005 16.1681C26.3171 17.0496 25.8417 17.6877 23.231 18.9112C21.9788 21.2371 22.9725 25.4236 22.9132 25.4433C22.8139 25.4763 21.1552 24.6233 21.2685 20.7065C21.3029 19.5038 21.3991 17.8618 22.753 17.3669Z" fill="#E78724"/>
<path d="M18.5062 5.3866C19.8647 6.07696 21.7266 7.03834 21.7266 7.03834L20.994 7.40491C21.064 7.51818 21.0978 7.58577 21.0978 7.58577L20.3458 7.92773C20.3458 7.92773 18.5099 9.25761 17.385 10.1126C17.7596 8.95779 18.8605 7.14355 18.8605 7.14355C18.8605 7.14355 19.173 6.30994 18.5062 5.3866Z" fill="#E78724"/>
<path d="M13.9919 33.5275C18.1681 33.5275 19.5828 31.4071 19.5828 31.4071L18.9305 32.9966C18.6838 33.6843 16.0515 35.8242 13.9983 35.8242" fill="#E78724"/>
<path d="M19.1257 29.9744C19.1257 29.9744 18.741 32.323 17.2027 32.323C15.8954 32.323 15.51 30.3392 15.51 29.9292L19.1257 29.9744Z" fill="#E78724"/>
<path d="M21.6862 26.4325C21.5495 26.0561 21.0709 24.5346 20.9167 23.1499C20.7323 21.4915 20.7999 19.0659 20.7999 19.0659C20.7999 19.0659 21.2104 20.6559 21.569 20.9128C21.9283 21.1691 22.5948 22.9128 22.5948 22.9128C22.5948 22.9128 22.952 25.5087 23.1221 26.3812C22.6517 26.4755 22.256 26.1982 21.6862 26.4325Z" fill="#E78724"/>
<path d="M25.4024 16.1425C25.4024 16.1425 24.5304 15.8345 24.274 13.9371C24.0177 12.0393 24.5819 10.3981 24.5819 10.3981C24.5819 10.3981 24.5304 13.0138 24.8382 13.5268C25.1462 14.0398 25.4024 14.1934 25.7616 14.8604C26.1203 15.5273 25.6075 15.9373 25.4024 16.1425Z" fill="#E78724"/>
<path d="M24.3611 3.82855L24.5394 3.71582C25.0642 3.73355 24.3611 3.82855 24.3611 3.82855Z" fill="#FDC168"/>
<path d="M17.7963 4.82468C17.7963 4.82468 18.6171 4.68799 19.0272 4.07264C19.4376 3.45707 20.6004 2.22595 22.4536 2.21219C24.3065 2.19833 26.1397 2.70471 26.1397 2.70471L24.5394 3.71585C24.3701 3.71037 24.0741 3.71263 23.5843 3.72896C21.5763 3.7957 21.2671 5.7822 21.2671 5.7822L14.1895 4.80759" fill="#FBA919"/>
<path d="M17.1128 15.7965C17.1128 15.7965 18.0703 16.754 19.5404 16.446C21.011 16.1385 21.9001 15.4887 21.9685 14.3602C22.0368 13.2318 21.6608 12.7874 21.6608 12.7874C21.6608 12.7874 20.0193 13.3006 19.2329 13.9845C18.4464 14.6684 17.8653 15.7624 17.1128 15.7965Z" fill="white"/>
<path d="M18.271 15.4545C18.271 15.4545 19.1017 15.8339 20.0296 15.5249C21.2449 15.1197 21.3258 13.8561 21.3258 13.8561C21.3258 13.8561 22.0708 16.0434 19.981 16.4645C18.3052 16.8021 17.3137 15.8309 17.3137 15.8309L18.271 15.4545Z" fill="#C9C9C9"/>
<path d="M23.6996 7.21813C24.377 6.65619 23.8725 6.13466 23.926 5.49621C23.9546 5.15651 23.9815 4.83594 24.0936 4.65916C24.717 3.67488 26.1873 3.37623 26.2025 3.37312L26.8927 3.23793L26.4358 2.7035C26.3766 2.63429 24.5004 0.844238 21.5967 1.78155C19.5662 2.43656 18.0627 4.65765 18.0068 4.74739L19.0247 5.22625C19.0371 5.20734 20.2258 3.11961 21.9681 2.55778C23.3765 2.1033 24.6745 2.53564 25.2302 2.81903C24.6395 3.05502 23.8664 3.48477 23.4007 4.21995C23.1811 4.56717 23.1443 5.00434 23.1087 5.42764C23.0615 5.98808 23.0169 6.51713 22.6043 6.85973L23.6996 7.21813Z" fill="#463014"/>
<path d="M25.5084 15.4213C25.5084 15.4213 24.6555 14.3631 24.4027 12.3039C24.3034 11.4929 24.4794 9.89317 24.7615 9.27771C24.7103 10.7907 25.0952 12.3039 25.0952 12.3039C25.0952 12.3039 25.3546 15.1135 25.5084 15.4213Z" fill="#463014"/>
<path d="M21.0087 6.14934C21.0092 6.14709 21.2826 4.95239 22.0406 4.3493C23.1097 3.49881 24.4153 3.95124 24.4274 3.95522L24.6175 3.36964C24.5541 3.34911 23.0622 2.87895 21.6866 3.8456C20.3032 4.81774 20.1376 5.69896 20.1228 5.79632L21.0087 6.14934Z" fill="#463014"/>
<path d="M22.8285 14.6625C22.8285 14.6625 23.2762 14.0215 23.1953 13.3167C23.1556 12.9686 22.9943 12.6113 22.7063 12.4845C22.1711 12.2493 21.9338 12.856 21.9338 12.856C21.9338 12.856 22.6872 13.0419 22.8285 14.6625Z" fill="#463014"/>
<path d="M17.9128 15.6393C17.8941 15.6742 17.8845 15.6938 17.8845 15.6938C17.8845 15.6938 19.2804 16.7418 20.7116 15.6783C21.4781 15.1085 21.4057 13.6991 21.1705 13.1014C20.5606 13.2397 20.043 13.489 19.6101 13.7801C20.157 13.2921 20.6357 12.9329 20.634 12.9246L21.2559 12.7487L22.4637 12.3347C22.4792 12.4268 22.9197 14.492 21.6475 15.8991C21.0839 16.5231 18.4413 17.9203 17.187 15.5312L17.9128 15.6393Z" fill="#463014"/>
<path d="M18.0429 15.7929C17.2567 16.9895 15.2735 16.3057 15.3078 15.0406C15.3078 15.0406 16.6329 15.7721 17.8039 14.4253C18.4876 13.6389 20.6788 11.4708 23.6497 12.1914C21.5981 12.6425 18.8817 14.517 18.0429 15.7929Z" fill="#463014"/>
<path d="M23.9277 19.17C23.7385 19.2793 23.0711 19.9701 23.0711 21.0033C23.0707 21.5214 23.1224 24.1241 23.3791 25.7141C22.9933 25.9647 22.7246 26.018 22.3405 26.2735C22.1483 24.432 22.01 21.7629 22.0747 20.6855C22.1481 19.4573 22.8054 18.633 23.4152 18.2815C23.6062 18.1717 23.8058 18.0637 24.0072 17.955C25.0518 17.3906 26.1319 16.8067 26.1319 15.8098C26.1319 15.0299 25.8284 14.786 25.5074 14.5274L25.4733 14.4993C25.2603 14.3273 25.0188 14.1321 24.8764 13.8117C24.4866 12.9355 24.4227 10.7037 24.876 10.1371C25.102 9.85479 25.708 8.90544 25.5339 8.26752C25.4671 8.02401 25.3137 7.84357 25.0641 7.71569C24.7999 7.58039 24.4435 7.51183 24.0038 7.51183C23.1414 7.51183 22.1837 7.77447 21.6904 7.93083C19.9259 8.49008 17.7968 10.1025 17.1861 10.5834C17.1687 10.5968 17.1585 10.6047 17.1566 10.606L16.7659 10.8775L17.0101 10.4688C17.0256 10.4434 18.5722 7.89988 21.3379 6.9673C21.8761 6.7859 22.9331 6.48145 23.9721 6.48145C24.5907 6.48145 25.115 6.58945 25.531 6.80223C26.0376 7.06133 26.3804 7.47475 26.5231 7.99735C26.8724 9.27845 25.7347 10.7048 25.6959 10.7504C25.5633 10.9872 25.5072 12.7069 25.8132 13.3952C25.8553 13.4902 25.9708 13.5836 26.1174 13.7016C26.1632 13.7387 26.214 13.7772 26.2687 13.8183C26.7011 14.1446 27.3543 14.6375 27.3543 15.7738C27.3543 17.3285 25.7787 18.1714 24.5128 18.8492C24.3049 18.961 24.1064 19.0667 23.9277 19.17Z" fill="#463014"/>
<path d="M22.048 7.03527C21.7974 6.61078 21.1564 5.79114 19.6792 5.0709C18.0307 4.26738 16.1227 3.85955 14.0075 3.85858V3.85815H14.0034H13.9993V3.85837C11.8838 3.85944 9.97549 4.26728 8.3274 5.07069C6.85018 5.79103 6.20947 6.61056 5.95865 7.03505L5.85107 7.17744L7.11605 7.459L7.15614 7.40839L7.17731 7.36196C7.19687 7.27835 7.36645 6.827 8.77682 6.13922C10.2846 5.40383 12.0431 5.03103 14.0032 5.03039C15.9635 5.03103 17.7213 5.40383 19.2289 6.13922C20.6394 6.827 20.8095 7.27835 20.8289 7.36196L20.8499 7.40839L20.8896 7.459L22.155 7.17744L22.048 7.03527Z" fill="#463014"/>
<path d="M23.6996 7.21813C24.377 6.65619 23.8725 6.13466 23.926 5.49621C23.9546 5.15651 23.9815 4.83594 24.0936 4.65916C24.717 3.67488 26.1873 3.37623 26.2025 3.37312L26.8927 3.23793L26.4358 2.7035C26.3766 2.63429 24.5004 0.844238 21.5967 1.78155C19.5662 2.43656 18.0627 4.65765 18.0068 4.74739L19.0247 5.22625C19.0371 5.20734 20.2258 3.11961 21.9681 2.55778C23.3765 2.1033 24.6745 2.53564 25.2302 2.81903C24.6395 3.05502 23.8664 3.48477 23.4007 4.21995C23.1811 4.56717 23.1443 5.00434 23.1087 5.42764C23.0615 5.98808 23.0169 6.51713 22.6043 6.85973L23.6996 7.21813Z" fill="#463014"/>
<path d="M22.3957 6.899L22.5382 6.78036C22.9176 6.4657 22.9601 5.95749 23.0059 5.41726C23.0426 4.98257 23.0806 4.53282 23.3135 4.16508C23.7414 3.48976 24.4189 3.06656 24.9769 2.81499C24.6428 2.67345 24.015 2.4625 23.2408 2.4625C22.8132 2.4625 22.3959 2.52719 21.9989 2.65529C20.3828 3.1765 19.2407 5.06005 19.1114 5.281L19.063 5.35762L17.8584 4.79117L17.9197 4.69338C17.9338 4.67059 19.4456 2.36771 21.5653 1.68423C22.1322 1.50111 22.7019 1.40869 23.2585 1.40869C25.2986 1.40869 26.5033 2.62488 26.5136 2.63713L27.085 3.30514L26.2229 3.47418C26.2086 3.47708 24.7743 3.77713 24.1804 4.71444C24.0819 4.87026 24.0562 5.17837 24.0282 5.50549C24.012 5.70001 24.0528 5.88958 24.0926 6.0728C24.1788 6.4701 24.2678 6.88105 23.7652 7.29759L23.7216 7.33381L22.3957 6.899Z" fill="#463014"/>
<path d="M21.0087 6.14934C21.0092 6.14709 21.2826 4.95239 22.0406 4.3493C23.1097 3.49881 24.4153 3.95124 24.4274 3.95522L24.6175 3.36964C24.5541 3.34911 23.0622 2.87895 21.6866 3.8456C20.3032 4.81774 20.1376 5.69896 20.1228 5.79632L21.0087 6.14934Z" fill="#463014"/>
<path d="M20.0098 5.8616L20.0217 5.78121C20.0367 5.67955 20.21 4.75825 21.6278 3.7615C22.2111 3.35163 22.91 3.13477 23.6491 3.13477C24.2096 3.13477 24.6056 3.25803 24.6495 3.27211L24.7468 3.30359L24.4927 4.08476L24.3946 4.0522C24.3579 4.03984 24.0282 3.93377 23.5846 3.93377C23.0161 3.93377 22.5182 4.10056 22.1051 4.42973C21.3802 5.00628 21.1118 6.16003 21.1094 6.17142L21.0827 6.28877L20.0098 5.8616ZM24.361 3.82846L24.4873 3.43954C24.3384 3.40171 24.0368 3.34024 23.6491 3.34024C22.9426 3.34024 22.3022 3.53862 21.746 3.92958C20.5823 4.7475 20.3042 5.48654 20.2411 5.73285L20.9393 6.01087C21.0307 5.68621 21.3331 4.78125 21.977 4.26885C22.4214 3.91572 22.9771 3.72894 23.5845 3.72894C23.9338 3.72894 24.2151 3.78923 24.361 3.82846Z" fill="#463014"/>
<path d="M16.4922 31.4454C15.9638 30.8805 15.6511 30.2725 15.5756 30.0858C15.5324 29.9794 15.4832 29.7766 15.6381 29.6173C15.7589 29.494 15.9683 29.4307 16.261 29.4307H16.7115C17.181 29.4307 17.7301 29.4307 18.0565 29.431L18.3304 29.4314C18.715 29.4314 18.9044 29.5415 18.9957 29.6337C19.1283 29.7679 19.149 29.9547 19.0577 30.1884C18.813 30.813 18.2579 31.3227 18.0938 31.464C17.8789 31.6496 17.5704 31.7596 17.2673 31.7596C16.9566 31.7596 16.6814 31.6479 16.4922 31.4454Z" fill="#463014"/>
<path d="M16.9497 15.8632L18.0432 15.7928C18.0432 15.7928 17.7639 16.2859 17.5827 16.9236C17.3781 17.6449 17.7698 18.699 17.7698 18.699C17.7698 18.699 16.3108 17.0473 16.9497 15.8632Z" fill="#463014"/>
<path d="M14.0034 11.9567C13.3061 11.9567 12.3968 11.9375 11.7146 11.4473C11.7146 11.4473 12.6079 13.0131 14.0022 13.0131L14.0034 12.815L14.0046 13.0131C15.3991 13.0131 16.2922 11.4473 16.2922 11.4473C15.61 11.9375 14.7001 11.9567 14.0034 11.9567Z" fill="#E78724"/>
<path d="M15.9237 11.9492C15.2242 12.3725 14.5995 12.5192 14.0036 12.5322C13.4076 12.5192 12.7831 12.3725 12.0835 11.9492C12.0835 11.9492 13.1022 13.1923 13.9984 13.2018V13.2026C14 13.2026 14.0016 13.2022 14.0035 13.2022C14.0051 13.2022 14.0067 13.2026 14.0085 13.2026V13.2018C14.9046 13.1923 15.9237 11.9492 15.9237 11.9492Z" fill="#463014"/>
<path d="M18.3153 34.6487L18.2373 33.6348C21.522 33.3822 22.557 30.2343 22.5624 29.903H23.5794C23.5798 30.6693 22.2092 34.3495 18.3153 34.6487Z" fill="#463014"/>
<path d="M19.4093 28.0556C19.4705 27.7039 19.4764 27.3703 19.4022 27.0425C19.6986 26.8201 20.2293 26.7374 20.6278 26.6083C20.9536 26.402 22.6215 26.8197 23.8312 25.3556C25.3469 23.5224 25.0275 22.4279 25.0275 22.4279C25.4164 22.8597 25.7928 22.6951 26.3856 24.7084C26.9788 26.7221 26.1067 28.1259 24.4821 29.5352C23.7147 30.2009 22.6296 30.4752 21.6964 30.5802C22.009 30.2663 21.1624 30.2349 20.5792 30.0165C20.6258 29.5454 20.5475 29.088 20.1963 28.7198C19.9849 28.4977 19.7119 28.365 19.4294 28.2593C19.4135 28.2227 19.3999 28.189 19.3853 28.1539C19.3946 28.1219 19.4034 28.0896 19.4093 28.0556Z" fill="white"/>
<path d="M20.5866 30.0043C20.6208 29.9055 20.6458 29.8047 20.6709 29.7032C20.6983 29.5924 20.8326 29.2785 20.6668 29.6369C20.7093 29.5452 20.7372 29.4506 20.7577 29.3553C23.3887 29.3519 25.6776 27.5455 25.2349 23.7478C25.5794 23.2905 26.062 24.6699 26.062 24.6699C26.062 24.6699 27.3792 28.4944 23.9775 29.9766C22.844 30.471 21.8425 30.8253 21.606 30.6822C21.1133 30.7823 20.6689 30.4391 20.5027 30.2134C20.5337 30.1441 20.5629 30.0746 20.5866 30.0043Z" fill="#C9C9C9"/>
<path d="M19.4566 27.5049C19.453 27.1843 19.3871 26.8739 19.2325 26.5645C19.2216 26.5432 19.209 26.5228 19.1975 26.5021C20.2098 26.4933 21.3759 26.3964 22.3688 25.999C23.46 25.5625 24.8252 24.069 25.0599 22.3143C25.0599 22.3143 27.1151 23.9003 26.5112 27.2949C25.9439 30.4826 23.2768 31.5218 20.2348 31.6976C20.2332 31.6769 20.577 30.9668 20.4683 30.5321C22.1953 30.6576 24.127 29.9903 25.06 28.4559C25.9131 27.0515 25.6738 24.6539 25.3229 24.3026C24.4674 27.0031 21.3876 27.552 19.4566 27.5049Z" fill="#463014"/>
<path d="M20.685 28.3045C20.3216 27.9116 19.6533 27.4433 18.1126 27.4433C18.1126 27.4433 15.1915 27.4415 14.0087 27.4408H14.0037H13.9986C12.8159 27.4417 9.89407 27.4433 9.89407 27.4433C8.35376 27.4433 7.68554 27.9117 7.32188 28.3045C6.79218 28.8763 6.70911 29.6718 7.07557 30.6661C8.04931 33.3125 9.41767 36.0012 13.9984 36.0049V36.0054C14.0001 36.0054 14.0016 36.0049 14.0034 36.0049C14.0051 36.0049 14.0067 36.0054 14.0085 36.0054V36.0049C18.5888 36.001 19.9571 33.3125 20.9312 30.6661C21.2977 29.6718 21.2144 28.8763 20.685 28.3045ZM19.9719 30.4805C19.5079 31.8094 18.2611 35.026 14.0033 35.0316C9.74501 35.026 8.49863 31.8095 8.0347 30.4805C7.77796 29.7431 7.79752 29.1975 8.09477 28.8586C8.29777 28.6269 8.76418 28.3504 9.82712 28.3504L10.9376 28.35C11.7568 28.3492 12.7853 28.3483 14.0034 28.3479C15.2211 28.3483 16.2502 28.3492 17.0692 28.35L18.1792 28.3504C19.2425 28.3504 19.7088 28.6268 19.9119 28.8586C20.2088 29.1979 20.2286 29.7431 19.9719 30.4805Z" fill="#463014"/>
<path d="M19.138 25.5717C19.6855 27.1782 20.8035 28.4783 20.8035 28.4783C20.8035 28.4783 19.2655 28.4084 19.1805 28.1362C19.118 27.9355 17.7919 24.8314 17.283 21.1951C17.7614 21.9816 19.0911 25.4342 19.138 25.5717Z" fill="#463014"/>
</g>
<defs>
<clipPath id="clip0_202_16272">
<rect width="28" height="37" fill="white"/>
</clipPath>
</defs>
</svg>
