<svg width="20" height="41" viewBox="0 0 20 41" fill="none" xmlns="http://www.w3.org/2000/svg">
<g clip-path="url(#clip0_202_16346)">
<path fill-rule="evenodd" clip-rule="evenodd" d="M18.9408 1.06802L18.9422 1.06632L18.9496 1.05859L18.9487 1.05786C19.0443 0.921815 18.8746 0.600067 18.5606 0.327979C18.2384 0.0490847 17.8863 -0.0721928 17.7738 0.0571778L13.0511 5.0573L12.1159 8.86133C11.4382 8.83841 10.731 8.82618 10.0034 8.82618C5.02947 8.82618 0.997314 9.39304 0.997314 10.0921C0.997314 10.7913 5.02947 11.3581 10.0034 11.3581C14.9772 11.3581 19.0093 10.7913 19.0093 10.0921C19.0093 9.57733 16.8224 9.13422 13.6832 8.93643L14.4887 5.75244L18.931 1.07812C18.9344 1.07494 18.9377 1.07158 18.9408 1.06802ZM12.527 10.761C13.0402 10.7588 13.2147 10.7197 13.2147 10.7197L13.2237 10.7185C13.3754 10.698 13.6002 10.6676 13.6011 10.4875C13.6013 10.3794 13.5105 10.317 13.4064 10.2847L13.329 10.4057C13.3929 10.421 13.4296 10.4404 13.4296 10.461C13.4291 10.529 12.9438 10.5621 12.542 10.567C12.1403 10.5721 11.6152 10.5249 11.6155 10.4559C11.6156 10.4412 11.6349 10.4274 11.6687 10.4157L11.591 10.2938C11.5088 10.3273 11.4443 10.3808 11.4439 10.4717C11.4437 10.5194 11.465 10.5899 11.504 10.6254C11.6492 10.7577 12.0137 10.7631 12.527 10.761Z" fill="#D34A47"/>
<path d="M14.8939 38.7995L15.2776 32.4046L16.3373 30.5957C16.3373 30.5957 13.9255 31.5823 9.88766 31.5823C5.84977 31.5823 3.47449 30.6139 3.47449 30.6139L4.6621 32.5872L5.08222 38.7995C5.08222 39.4655 7.27859 40.0053 9.98808 40.0053C12.6974 40.0053 14.8939 39.4655 14.8939 38.7995Z" fill="#D34A47"/>
<path d="M15.8772 21.3468C15.3481 21.8741 14.6191 22.6008 14.6793 23.1797C14.8108 24.4449 16.8651 23.3225 17.5142 22.6904L16.7209 29.8226C16.7209 29.8226 14.9599 31.1434 9.84451 31.1434C4.72912 31.1434 3.03102 29.8017 3.03102 29.8017L2.3921 23.6439C3.46763 24.1714 4.33781 23.3057 4.88834 22.758C4.96743 22.6793 5.03992 22.6072 5.10547 22.5467C5.11606 22.6527 5.02866 22.9199 4.9243 23.239C4.70593 23.9067 4.4133 24.8015 4.78902 24.9204C5.21728 25.056 5.45376 24.1776 5.74282 23.1039C5.82849 22.7857 5.91877 22.4504 6.02004 22.1192C6.08585 21.9038 6.15715 21.6838 6.22774 21.4659C6.58015 20.3784 6.91503 19.3449 6.46181 19.2213C6.08065 19.1173 5.88408 19.7805 5.71499 20.351C5.64277 20.5946 5.57556 20.8214 5.50113 20.9642C5.14797 21.6417 3.06079 23.9238 2.81095 22.2302C2.61485 20.9018 4.09897 18.2373 4.78902 17.562C5.13503 17.2233 5.67042 16.9106 6.05498 17.0081C6.32061 17.0754 6.46519 17.3375 6.59913 17.5804C6.7339 17.8247 6.8579 18.0496 7.08361 18.0367C8.14683 17.976 6.90562 16.1857 5.97585 16.1378C3.93187 16.0324 2.63515 19.1716 2.08908 20.7236L1.0603 10.8076C1.0603 10.8076 2.15046 11.7929 9.88644 11.7929C17.6224 11.7929 18.8383 10.7866 18.8383 10.7866L17.6299 21.6504C17.1909 22.2425 16.1627 22.8938 15.528 22.9763C15.2846 23.008 15.4973 22.7956 15.8364 22.4573C16.4039 21.8909 17.3252 20.9714 17.0529 20.2521C16.6858 19.2815 15.165 20.2615 14.7584 20.7268C14.8586 20.4351 14.9279 20.0521 14.5147 20.0266C14.3043 20.0137 14.2084 20.3173 14.0831 20.7141C13.9624 21.0965 13.8144 21.5654 13.5103 21.9213C12.9855 22.5354 12.6688 22.639 12.1998 22.7924C12.1149 22.8202 12.0249 22.8496 11.9279 22.8839C11.3506 23.0885 12.4162 20.6427 13.197 18.8506C13.2723 18.6777 13.345 18.5109 13.4133 18.3532C13.5787 17.9712 13.9587 16.9464 13.4976 16.7944C13.1499 16.6797 12.7236 17.7871 12.2466 19.0263C12.0912 19.4302 11.9303 19.848 11.7651 20.2421C11.3808 21.1584 11.2389 21.7089 11.1501 22.0531C11.0835 22.3111 11.0469 22.4532 10.9605 22.5467C10.6488 22.8839 10.1364 23.0369 10.0111 22.9423C9.6716 22.686 10.0142 21.8636 10.3168 21.1373C10.5677 20.5352 10.7911 19.9991 10.5756 19.906C10.2321 19.7575 9.82881 20.6509 9.55345 21.261C9.44784 21.4949 9.36105 21.6872 9.30367 21.763L9.30227 21.7649C9.25193 21.8317 8.16735 23.2712 7.76567 22.9657C7.52828 22.7852 7.88362 21.9032 8.19124 21.2016C8.2155 21.1463 8.25163 21.0759 8.29246 20.9963C8.48696 20.6172 8.78807 20.0304 8.42078 19.8801C7.97647 19.6983 6.18962 23.3021 7.32094 23.7335C8.1824 24.0621 8.9001 23.2713 9.21987 22.7049C9.07498 24.0459 10.3594 23.7693 10.9605 23.2588C11.3195 24.2725 12.6717 23.2732 13.1288 22.9354C13.1476 22.9215 13.165 22.9087 13.1807 22.8972C13.0635 23.2892 12.8436 23.7728 12.6261 24.2511C12.207 25.1728 11.7967 26.0751 12.1473 26.2654C12.6002 26.5113 13.255 24.8507 13.5871 24.0086C13.6457 23.8601 13.6942 23.737 13.7298 23.6544C14.3776 22.1511 15.0184 20.7158 16.306 20.6422C16.5637 20.6625 16.2778 20.9475 15.8772 21.3468Z" fill="#D34A47"/>
</g>
<defs>
<clipPath id="clip0_202_16346">
<rect width="20" height="41" fill="white"/>
</clipPath>
</defs>
</svg>
