<svg width="40" height="26" viewBox="0 0 40 26" fill="none" xmlns="http://www.w3.org/2000/svg">
<g clip-path="url(#clip0_202_13978)">
<path opacity="0.263538" d="M40 23.7495C40 24.5305 31.0457 25.1636 20 25.1636C8.95431 25.1636 0 24.5305 0 23.7495C-2.12947e-07 23.2442 3.81198 22.7774 10 22.5248C16.188 22.2722 23.812 22.2722 30 22.5248C36.188 22.7774 40 23.2442 40 23.7495Z" fill="url(#paint0_linear_202_13978)"/>
<path d="M17.2971 24.3187C16.9099 24.1955 16.9086 24.1411 17.2653 23.058C17.6215 21.9764 17.4583 20.9719 16.7979 20.1824C15.8999 19.1087 15.4675 18.1926 15.3297 17.0717C15.2113 16.1093 15.1738 16.033 14.782 15.9578C14.5192 15.9074 14.1562 16.0073 13.291 16.3682C12.0322 16.8933 11.7324 17.1238 11.4354 17.7952C11.2793 18.1479 11.2606 18.3592 11.3491 18.7672C11.4572 19.2653 11.9001 20.0672 12.0678 20.0683C12.1115 20.0686 12.3533 20.2342 12.605 20.4362C13.0226 20.7716 13.0513 20.8298 12.9331 21.1032C12.6763 21.6971 12.0662 22.4172 11.8198 22.4172C11.6815 22.4172 11.1169 22.0217 10.4954 21.4896C9.27459 20.4443 9.22342 20.3395 9.09733 18.6261C8.94689 16.5817 9.44961 15.6277 11.6886 13.7082L13.0929 12.5043L13.1826 11.774C13.2751 11.0212 13.1447 9.22871 12.9256 8.23925C12.7961 7.65471 12.3688 7.09796 11.9633 6.98547C11.5216 6.8629 11.2626 7.11579 10.9265 7.99791C10.5639 8.94969 10.2174 9.28172 9.58661 9.28172C9.19374 9.28172 8.82712 9.03041 8.57396 8.58757C8.39256 8.27025 8.28727 6.36395 8.39571 5.36049C8.44787 4.87779 8.45086 4.38906 8.40236 4.27444C8.32343 4.08792 7.64373 3.68445 6.04129 2.8729C5.74998 2.72537 5.41037 2.52673 5.2866 2.43147C5.16284 2.33622 4.84167 2.16109 4.5729 2.0423C3.96412 1.77322 2.37679 0.845093 2.52539 0.845093C2.80652 0.845093 3.99793 1.21178 4.63217 1.49352C5.01935 1.66551 5.38997 1.80623 5.45578 1.80623C5.52158 1.80623 6.26803 2.04651 7.11454 2.34019C7.96106 2.63387 8.73477 2.87416 8.83389 2.87416C9.06934 2.87416 9.10626 2.67046 9.03081 1.78774C8.99654 1.38676 8.99805 1.05868 9.03418 1.05868C9.0703 1.05868 9.22629 1.13609 9.38083 1.23071C9.85296 1.51979 10.8685 1.69684 12.0621 1.69817C13.2035 1.69952 14.6932 1.92588 15.2626 2.18464C16.0794 2.55583 17.0269 3.71519 18.2288 5.81417C19.0644 7.27342 19.9622 7.89132 21.2489 7.89267C21.769 7.89328 23.1568 7.67882 25.0361 7.30757C26.5856 7.00146 28.6313 6.93266 29.4253 7.15995C30.3939 7.43722 31.6747 8.17848 32.7337 9.07469C33.7249 9.9135 33.8775 10.0997 34.4864 11.2128C35.213 12.5412 36.015 14.4292 36.7281 16.4902C36.8297 16.7839 37.0443 17.2779 37.2051 17.588C37.6338 18.4154 37.6125 18.4659 36.8333 18.4659C35.9875 18.4659 35.5909 18.3325 35.0365 17.8618C34.5048 17.4102 34.3659 17.134 33.5336 14.8727C33.1073 13.7145 32.6923 13.0195 32.4271 13.0195C32.2454 13.0195 31.8775 14.2606 31.8775 14.8739C31.8775 15.3094 32.1504 15.8978 32.8561 16.9834C34.0024 18.7471 34.6054 21.2403 34.364 23.2182L34.2598 24.0725L33.4958 24.1043C32.2931 24.1544 32.3051 24.1711 32.3051 22.4512C32.3051 20.6202 32.1804 20.2237 31.3724 19.4853C31.0368 19.1785 30.2838 18.3071 29.6991 17.5487C29.1144 16.7903 28.5545 16.1699 28.4548 16.1699C28.2257 16.1699 28.1115 16.7935 28.0993 18.1106C28.0913 18.978 28.0572 19.1249 27.8013 19.3921C27.1075 20.1168 26.6205 21.4362 26.3202 23.4047C26.2538 23.8404 26.1968 23.9219 25.9144 23.9853C25.4991 24.0785 24.3483 24.0938 24.2491 24.0074C24.1636 23.9328 24.3135 22.7497 24.6535 20.8153C24.7825 20.0811 24.9234 19.096 24.9665 18.6261C25.0432 17.7896 24.8717 16.2224 24.6687 15.9053C24.5843 15.7735 24.1545 15.7449 22.1444 15.7375C20.8119 15.7326 19.3507 15.6888 18.8971 15.6401L18.0725 15.5516V15.9176C18.0725 16.3094 18.1729 16.6548 18.8446 18.5727C19.0812 19.2482 19.424 20.2779 19.6064 20.861L19.938 21.9212L19.6582 22.7833C19.5042 23.2574 19.2758 23.8256 19.1505 24.0458C18.9295 24.4343 18.9036 24.446 18.2838 24.4379C17.9324 24.4332 17.4884 24.3796 17.2971 24.3187H17.2971Z" fill="#499848"/>
</g>
<defs>
<linearGradient id="paint0_linear_202_13978" x1="29.4863" y1="22.4514" x2="29.0919" y2="26.3571" gradientUnits="userSpaceOnUse">
<stop stop-color="#959595"/>
<stop offset="1" stop-color="#CCCCCC"/>
</linearGradient>
<clipPath id="clip0_202_13978">
<rect width="40" height="26" fill="white"/>
</clipPath>
</defs>
</svg>
