<svg width="37" height="36" viewBox="0 0 37 36" fill="none" xmlns="http://www.w3.org/2000/svg">
<g clip-path="url(#clip0_202_12969)">
<path d="M18.0761 33.1062C9.0886 33.1062 1.74879 25.7664 1.74879 16.7789C1.74879 7.79134 9.0886 0.451538 18.0761 0.451538C27.0636 0.451538 34.4034 7.79134 34.4034 16.7789C34.4034 25.7664 27.0636 33.1062 18.0761 33.1062ZM18.0761 1.59994C9.68777 1.59994 2.8972 8.39051 2.8972 16.7789C2.8972 25.1672 9.68777 31.9578 18.0761 31.9578C26.4645 31.9578 33.255 25.1672 33.255 16.7789C33.255 8.39051 26.4645 1.59994 18.0761 1.59994Z" fill="#EF0000"/>
<path d="M23.1365 19.8246C22.8059 20.1741 22.4882 20.5237 22.1704 20.8732C20.8223 22.3711 19.7738 23.4696 18.0262 23.4696C14.8306 23.4696 12.2342 20.8732 12.2342 17.6776C12.2342 14.4821 14.8306 11.8857 18.0262 11.8857C19.9735 11.8857 21.8209 12.9342 22.9194 14.6318C23.2689 15.1312 23.8681 15.231 24.3674 14.9814C24.8667 14.6318 24.9665 14.0327 24.7169 13.5334C23.2689 11.1866 20.7724 9.8385 18.0262 9.8385C13.6822 9.8385 10.1371 13.3336 10.1371 17.6776C10.1371 22.0216 13.6822 25.5667 18.0262 25.5667C20.6725 25.5667 22.1704 23.9689 23.6184 22.2712C23.6858 22.1971 23.7522 22.1239 23.8181 22.0515V24.2685C23.8181 24.7678 24.2675 25.2671 24.8168 25.2671C25.4659 25.2671 25.9152 24.8177 25.8154 24.2685V18.826C25.8154 18.3267 25.366 17.8274 24.8168 17.8274H19.7238C19.2245 17.8274 18.7252 18.3267 18.7252 18.826C18.7252 19.3253 19.1746 19.8246 19.7238 19.8246H23.1365Z" fill="#EF0000"/>
<path fill-rule="evenodd" clip-rule="evenodd" d="M0.0012207 19.2255C0.0012207 28.213 7.34103 35.5528 16.3285 35.5528C16.8931 35.5528 17.4511 35.5238 18.0012 35.4673C18.5513 35.5238 19.1094 35.5528 19.6739 35.5528C28.6614 35.5528 36.0012 28.213 36.0012 19.2255C36.0012 10.2379 28.6614 2.89814 19.6739 2.89814C19.1094 2.89814 18.5513 2.9271 18.0012 2.98361C17.4511 2.9271 16.8931 2.89814 16.3285 2.89814C7.34103 2.89814 0.0012207 10.2379 0.0012207 19.2255ZM18.0012 4.13749C18.5505 4.07739 19.1086 4.04655 19.6739 4.04655C20.9495 4.04655 22.19 4.20545 23.3763 4.50467C21.7187 3.706 19.9075 3.17941 18.0012 2.98361C16.1018 3.17871 14.2967 3.70223 12.644 4.4961C6.03844 6.14085 1.14963 12.108 1.14963 19.2255C1.14963 26.3429 6.03844 32.3101 12.644 33.9548C7.15481 31.3182 3.34657 25.6993 3.34657 19.2255C3.34657 12.7517 7.15481 7.13277 12.644 4.4961C13.8234 4.20242 15.0577 4.04655 16.3285 4.04655C16.8939 4.04655 17.452 4.07739 18.0012 4.13749ZM18.0012 4.13749C10.4011 4.96913 4.49498 11.4025 4.49498 19.2255C4.49498 27.0485 10.4011 33.4818 18.0012 34.3134C25.6014 33.4818 31.5075 27.0485 31.5075 19.2255C31.5075 11.4025 25.6014 4.96913 18.0012 4.13749ZM23.3585 33.9548C28.8476 31.3182 32.6559 25.6993 32.6559 19.2255C32.6559 12.7587 28.8559 7.14494 23.3763 4.50467C29.9451 6.16149 34.8528 12.1203 34.8528 19.2255C34.8528 26.3429 29.964 32.3101 23.3585 33.9548Z" fill="#EF0000"/>
<path d="M18.0012 4.13749C18.5505 4.07739 19.1086 4.04655 19.6739 4.04655C20.9495 4.04655 22.19 4.20545 23.3763 4.50467C21.7187 3.706 19.9075 3.17941 18.0012 2.98361C16.1018 3.17871 14.2967 3.70223 12.644 4.4961C13.8234 4.20242 15.0577 4.04655 16.3285 4.04655C16.8939 4.04655 17.452 4.07739 18.0012 4.13749Z" fill="#EF0000"/>
</g>
<defs>
<clipPath id="clip0_202_12969">
<rect width="37" height="36" fill="white"/>
</clipPath>
</defs>
</svg>
