<svg width="22" height="41" viewBox="0 0 22 41" fill="none" xmlns="http://www.w3.org/2000/svg">
<g clip-path="url(#clip0_202_14844)">
<path d="M1.04319 0.502854C0.535721 0.836659 0.278076 1.27335 0.278076 1.80184V38.15C0.278076 38.611 0.541942 39.0297 1.07043 39.4184C1.59514 39.8078 2.2419 40.0018 3.01382 40.0018C3.75162 40.0018 4.39847 39.8078 4.96033 39.4184C5.51916 39.0335 5.80345 38.611 5.80345 38.15V1.80504C5.80345 1.27335 5.53278 0.843552 4.98765 0.502854C4.44243 0.172161 3.78567 0.00177002 3.01382 0.00177002C2.20785 0.00177002 1.55109 0.172161 1.04319 0.502854ZM16.9387 14.9402L9.54103 19.5772C9.20958 19.8873 9.0671 20.3584 9.12838 21.0023C9.18546 21.6399 9.48026 22.247 10.0019 22.8198C10.5261 23.3963 11.1121 23.7576 11.7824 23.9111C12.4428 24.0608 12.9441 23.9791 13.2755 23.6721L16.2008 21.8477V38.15C16.2008 38.611 16.4548 39.0297 16.969 39.4184C17.4702 39.8078 18.1139 40.0018 18.8858 40.0018C19.6577 40.0018 20.3243 39.8078 20.8831 39.4184C21.445 39.0297 21.7264 38.611 21.7264 38.15V16.2323C21.7264 15.7001 21.4518 15.2708 20.9104 14.9402C20.3684 14.6026 19.6949 14.4385 18.8858 14.4385C18.0798 14.4385 17.433 14.6026 16.9387 14.9402Z" fill="black"/>
</g>
<defs>
<clipPath id="clip0_202_14844">
<rect width="22" height="41" fill="white"/>
</clipPath>
</defs>
</svg>
