<svg width="37" height="28" viewBox="0 0 37 28" fill="none" xmlns="http://www.w3.org/2000/svg">
<g clip-path="url(#clip0_202_15181)">
<path d="M13.2704 6.46235L10.8768 6.85118L8.69292 7.80869L6.83793 8.97546L5.07267 11.1295L4.0755 12.1858L3.11109 12.5413L2.85614 11.9179L3.30206 11.2743L3.40219 10.3665L3.70087 10.3786L4.02726 10.6763L3.93923 9.75157L3.57741 9.50885L3.58852 9.15644L2.73155 9.64132L1.95558 10.5569L1.79358 11.3752L2.12559 12.0305L2.43511 13.1437L3.06455 13.4417L3.72675 13.4092L4.35464 13.0444L3.93572 15.1687L4.35464 17.5322L3.89353 18.6236L2.38336 20.2506L2.65181 21.2228L3.36731 22.3492L4.71619 23.2984L5.43168 23.3964L6.2272 23.4234L5.73079 25.4608L7.55596 26.2086L9.82973 26.5079L10.6075 25.9994L10.6674 24.6229L11.5352 23.1869L11.595 22.0499L13.6893 22.1995L15.634 22.0201L13.6893 23.1869L14.0185 24.5931L15.2451 26.5079L16.4419 27.0165L17.3993 26.6275L17.7881 25.8497L19.7927 24.3238L20.1817 24.6529L23.3232 24.7726L23.9514 24.2641L24.0112 23.3663L23.8019 22.9776L23.6522 20.5541L22.6051 18.4598L22.7847 17.5322L23.4128 17.8614L25.1781 19.5069L26.0457 19.5668L27.0031 19.1778L27.9606 18.4598L28.4392 16.9039L31.2517 17.0835L32.957 16.4253L34.3333 15.1388L35.3207 13.2838L35.5599 11.0997L35.3505 8.55654L34.812 6.28291L34.2734 5.56488L33.5256 5.3254L32.209 6.76146L31.0123 7.18038L29.9651 5.44507L28.918 4.4877L28.3495 4.12868L26.0756 2.24375L24.2507 1.25642L22.4255 1.10693L20.3014 1.46595L18.4464 2.15389L17.1598 3.20112L16.1427 4.42779L15.0956 4.72704L13.2704 6.46235Z" fill="#FFFF00"/>
<path d="M6.32889 11.8621C4.27872 14.2534 4.7342 17.1535 5.30232 19.9951C4.99914 19.2288 4.69581 18.4626 4.39262 17.6967C4.28083 16.9943 4.16903 16.2919 4.05737 15.5895C4.08929 14.8712 4.12108 14.153 4.15314 13.4348C4.44044 12.7486 4.72773 12.0622 5.01503 11.3758C5.4459 10.7373 5.87692 10.0989 6.30793 9.46033C6.97829 8.90177 7.64879 8.34306 8.31915 7.7845C9.05321 7.48118 9.78755 7.17799 10.5218 6.87466C11.3836 6.763 12.2455 6.65135 13.1076 6.53955C12.3094 7.44925 11.5113 8.3591 10.7133 9.2688C8.79081 9.89233 7.65723 10.3124 6.32889 11.8621Z" fill="#FFFFCC"/>
<path d="M15.9804 4.57629C14.5551 5.96693 13.7765 7.01571 12.8695 8.64387C12.2208 9.80866 11.4929 10.9304 10.8107 12.0789C10.4658 12.6603 10.4331 13.1477 10.3299 13.818C9.99482 13.4191 9.65971 13.02 9.32446 12.621C9.48421 12.1421 9.64368 11.6632 9.80329 11.1844C10.346 10.2107 10.8888 9.23702 11.4314 8.26348C12.5806 7.13018 13.73 5.99703 14.8791 4.86373C15.2462 4.76783 15.6133 4.6722 15.9804 4.57629Z" fill="#FFFFCC"/>
<path d="M23.0198 1.12866C21.878 1.55658 19.9823 1.69763 19.8508 3.00783C19.7571 3.93835 19.921 4.40592 20.4818 5.39044C19.0965 3.95677 18.7539 4.17867 16.0764 4.62417C16.4596 4.0815 16.8427 3.53883 17.2256 2.99616C17.896 2.58104 18.5665 2.16605 19.2368 1.75107C20.0987 1.55954 20.9607 1.36801 21.8226 1.17647C22.2216 1.16058 22.6207 1.14469 23.0198 1.12866Z" fill="#FFFFCC"/>
<path d="M26.1696 18.8516C26.5495 19.0862 26.5414 19.2562 26.4778 19.4169C26.7776 19.297 27.0774 19.177 27.3771 19.0573C27.5714 18.7965 27.7655 18.5358 27.9599 18.2749C28.104 17.9032 28.2481 17.5318 28.3923 17.1602C28.2081 17.0217 28.024 16.8831 27.8396 16.7446C27.0345 16.8473 26.2295 16.9501 25.4242 17.053C25.3645 17.2156 25.3044 17.3784 25.2444 17.5413C25.2615 17.7725 25.2788 18.0038 25.2959 18.235C25.3729 18.3721 25.4501 18.509 25.5272 18.6462C25.6471 18.7061 25.7669 18.7661 25.8869 18.826C25.9813 18.8345 26.0753 18.8432 26.1696 18.8516Z" fill="#CCCC00"/>
<path d="M25.9447 14.7211C24.7339 15.0705 24.7433 15.1668 24.3859 16.3681C24.8578 15.6108 25.2073 15.2286 25.9447 14.7211Z" fill="#CCCC00"/>
<path d="M33.9951 5.73242C33.78 5.83184 33.5703 5.87966 33.4358 6.07653C33.1462 6.50037 32.898 6.85686 32.419 7.15428C32.1777 7.30419 31.9282 7.40122 31.6724 7.48109C31.4602 7.54705 31.3327 7.48798 31.1521 7.61792C31.2593 7.63648 31.3664 7.65533 31.4736 7.67403H32.1823C32.4736 7.49417 32.7648 7.31431 33.056 7.13459C33.2274 6.95459 33.3987 6.77473 33.57 6.59487C33.7116 6.30744 33.8534 6.01972 33.9951 5.73242Z" fill="#CCCC00"/>
<path d="M14.7089 8.41921C14.2326 9.72266 13.8164 10.8399 13.095 12.0199C14.0194 11.0237 14.58 10.177 15.1096 9.05076C15.3153 8.61327 15.3541 8.09985 15.9272 8.29068C15.9529 8.72774 16.0453 9.16438 16.0709 9.60116C16.3805 7.3821 17.2535 6.45398 19.2829 5.59265C18.709 5.66128 18.1351 5.72976 17.5614 5.79824C17.0216 5.9182 16.4821 6.03815 15.9423 6.15796C15.6768 6.54342 15.4112 6.92901 15.1458 7.31432C15.0002 7.68262 14.8546 8.05091 14.7089 8.41921Z" fill="#CCCC00"/>
<path d="M18.64 8.36792C19.0778 10.4277 19.7079 12.4046 19.9816 14.4971C20.1593 15.8568 20.1787 16.51 19.4947 17.6831C18.747 17.6347 18.2828 17.7189 17.5596 17.956C14.6807 18.8997 13.0295 20.2874 11.0896 17.4914C11.7089 17.7832 12.3282 18.075 12.9475 18.3669C13.389 18.2801 13.8304 18.1935 14.2718 18.1065C15.0513 17.6527 15.8308 17.1986 16.6103 16.7448C17.2183 16.6248 17.8265 16.5049 18.4346 16.3849C18.6316 15.5629 18.8286 14.7405 19.0256 13.9182C18.8799 12.8304 18.7342 11.7426 18.5887 10.6548C18.5717 10.1409 18.5545 9.62707 18.5374 9.11309C18.5717 8.86461 18.606 8.61626 18.64 8.36792Z" fill="#CCCC00"/>
<path d="M23.6001 21.113C23.3582 22.7864 24.157 23.686 23.8262 24.1482C23.7326 24.279 23.6057 24.5074 23.4641 24.5701C22.958 24.7935 22.2622 24.5282 22.2126 24.659H20.5424C20.3196 24.5647 20.097 24.4705 19.8743 24.3763C20.2168 23.9737 20.5594 23.5711 20.9021 23.1686C21.2361 22.4407 21.5702 21.7126 21.9042 20.9844C22.1184 20.2478 22.3325 19.5113 22.5466 18.7747H22.8807C23.1205 19.5541 23.3604 20.3335 23.6001 21.113Z" fill="#CCCC00"/>
<path d="M20.7925 16.2482C20.9282 17.008 21.1639 17.1885 21.5212 17.924C21.2833 19.1239 20.9012 20.5509 20.4412 21.6096C20.2473 22.0561 20.0908 22.3024 19.7486 22.6474C19.1714 23.2305 18.5878 23.7381 17.933 24.2435C17.4616 24.6068 17.1327 24.4247 16.5512 24.3423C16.3039 24.7906 16.2357 25.0396 15.7805 25.2673C15.0804 25.6172 14.4541 24.8631 13.9045 24.4193C14.3012 25.0389 14.6979 25.6584 15.0944 26.278C15.3686 26.535 15.6427 26.7917 15.9167 27.0487C16.1479 27.0829 16.3793 27.1173 16.6106 27.1517C16.9188 26.9632 17.2272 26.7746 17.5355 26.5862C17.6983 26.278 17.861 25.9696 18.0237 25.6613C18.3664 25.4043 18.7091 25.1473 19.0516 24.8903C19.4713 24.5307 19.8911 24.1708 20.3107 23.8111C20.5763 23.4342 20.8417 23.0575 21.1073 22.6805C21.3471 22.2351 21.5869 21.7898 21.8266 21.3444C22.1352 20.4194 22.4434 19.4942 22.752 18.5693C22.7775 18.218 22.8031 17.8669 22.8289 17.5156C22.4434 17.3445 22.0581 17.1729 21.6725 17.0016C21.3899 16.7363 21.0751 16.5137 20.7925 16.2482Z" fill="#CCCC00"/>
<path d="M11.5743 21.6013C12.8712 21.6013 14.2408 21.5293 15.4287 20.9845C15.7648 20.4803 16.0967 20.0684 16.5079 19.6228C16.1337 20.3297 16.0162 20.7294 15.917 21.5242C15.7884 21.7126 15.66 21.9009 15.5315 22.0895C14.555 22.1151 13.5786 22.1408 12.6021 22.1666C12.2852 22.1321 11.9683 22.0979 11.6514 22.0638C11.6171 22.0293 11.5829 21.9951 11.5486 21.961C11.5573 21.841 11.5659 21.7211 11.5743 21.6013Z" fill="#CCCC00"/>
<path d="M11.3944 20.7019C11.3609 20.3979 11.3273 20.0937 11.2937 19.7894C11.0722 21.1231 11.1254 22.0171 10.5115 23.2118C10.0531 23.743 9.48849 24.2263 8.8419 24.485C8.8966 24.8125 8.91291 25.0174 8.88113 25.2575C8.76723 26.1213 7.03923 25.7397 6.32837 25.7052C7.46898 25.999 8.6093 26.2925 9.74977 26.5861C10.0068 26.4833 10.2636 26.3807 10.5207 26.2779C10.6065 25.7812 10.6921 25.2842 10.7777 24.7875C11.0175 24.3422 11.2574 23.8965 11.4972 23.4514C11.5399 23.1771 11.5828 22.9033 11.6257 22.6291C11.5485 21.9867 11.4716 21.3443 11.3944 20.7019Z" fill="#CCCC00"/>
<path d="M9.46711 13.1731C9.4314 13.8217 9.38949 14.0919 9.67538 14.6647C10.0389 15.3926 10.4854 16.0767 10.8804 16.7962C10.9233 16.3163 10.966 15.8368 11.0089 15.3571C10.4951 14.629 9.9811 13.9011 9.46711 13.1731Z" fill="#CCCC00"/>
<path d="M4.19249 18.0719C4.08111 18.3086 3.97002 18.5454 3.85864 18.7822C4.16478 19.8134 4.43703 20.4666 5.01992 21.3674C4.91839 21.7324 4.84245 21.8921 4.60888 22.1895C4.09588 22.1108 3.64025 22.0879 3.12036 22.0896C3.69425 22.5348 4.26814 22.9804 4.84203 23.4258C5.12455 23.3742 5.40734 23.3228 5.69 23.2715C5.97251 22.9888 6.25531 22.7062 6.53797 22.4235C6.13536 21.7982 5.73275 21.1731 5.33028 20.5477C4.95088 19.7226 4.57161 18.8971 4.19249 18.0719Z" fill="#CCCC00"/>
<path d="M33.9987 5.39111C34.3483 6.96344 34.7991 8.41455 34.7572 10.025C34.7059 12.0008 34.3209 14.4966 32.4902 15.6879C30.44 17.0223 28.0334 16.3912 25.7839 15.8194C26.7005 16.1964 27.6171 16.5732 28.5334 16.9501C29.39 16.9929 30.2465 17.0358 31.1031 17.0784C31.6855 16.9073 32.268 16.736 32.8503 16.5647C33.3043 16.1877 33.7584 15.811 34.2123 15.434C34.5549 14.7145 34.8974 13.9951 35.2401 13.2757C35.3686 12.4447 35.497 11.6139 35.6254 10.7831C35.5228 9.9693 35.4198 9.15564 35.3172 8.34199C35.1287 7.53691 34.9402 6.73169 34.7519 5.92661C34.5008 5.74802 34.2498 5.56957 33.9987 5.39111Z" fill="#CCCC00"/>
<path d="M3.40389 10.0779C2.47324 10.6837 2.10761 10.9496 2.2097 12.0724C2.30238 12.4086 2.39519 12.7448 2.48786 13.0811C2.61934 13.1701 2.75069 13.259 2.88203 13.3478C3.04445 13.402 3.20673 13.456 3.36916 13.5101C3.66292 13.4406 3.95669 13.371 4.25031 13.3014C4.4012 12.8337 4.55195 12.3661 4.70256 11.8984C4.28519 12.1033 3.86767 12.3082 3.4503 12.5131H3.16047C3.05233 12.3469 2.94405 12.1806 2.83577 12.0144C2.96725 11.8211 3.09859 11.628 3.23008 11.4346C3.29969 11.0675 3.36916 10.7003 3.43877 10.3331C3.52764 10.3601 3.61652 10.3873 3.70539 10.4141C3.81367 10.4993 3.92181 10.5844 4.03009 10.6692C4.01462 10.4761 3.99916 10.2828 3.98369 10.0896C3.91028 9.96594 3.83673 9.84219 3.76333 9.71858C3.68992 9.65657 3.61652 9.59483 3.54311 9.53296C3.4967 9.71465 3.4503 9.89633 3.40389 10.0779Z" fill="#CCCC00"/>
<path d="M24.2848 1.23096C25.1108 1.99807 26.1246 2.66477 26.7854 3.60217C27.041 3.96499 27.3251 4.15061 26.781 4.66319C27.3559 4.49894 27.5695 4.5168 28.0298 4.57248C28.8669 4.67388 29.6516 5.86398 29.7015 6.71673C29.6917 6.79647 29.4691 6.97759 28.8218 7.15633C28.809 7.18122 28.4564 7.10809 28.4651 7.132C28.5325 7.31594 28.6224 7.3442 28.7596 7.43026C28.7894 7.63501 28.8086 7.95072 28.9481 8.17459C29.3553 8.16728 29.7534 8.21172 30.1522 8.29061C30.2864 8.51336 30.2663 8.73597 30.255 8.95871C30.4091 8.93312 30.5633 8.90739 30.7175 8.88179C30.6748 8.53051 30.6319 8.17937 30.5891 7.82823C30.7261 7.5969 30.8631 7.36558 31.0002 7.13453C30.8032 6.68889 30.6062 6.24367 30.4091 5.79817C30.0324 5.43845 29.6555 5.07873 29.2785 4.71902C29.2424 4.71719 29.2058 4.71536 29.1698 4.71353C28.7458 4.45338 28.3221 4.19336 27.8983 3.9332C27.207 3.36761 26.5158 2.80216 25.8245 2.23657C25.3112 1.90132 24.7981 1.56621 24.2848 1.23096Z" fill="#CCCC00"/>
<path d="M25.6764 7.56201C25.6328 7.63823 25.567 7.76001 25.4827 7.84439C25.8267 8.16979 25.9964 8.38776 26.1192 8.84803C25.7302 9.0411 25.3413 9.23432 24.9524 9.42726C24.6232 9.74282 24.294 10.0584 23.9651 10.3738C23.5319 10.1406 23.424 9.96163 23.2143 9.51698C22.9702 9.58167 22.739 9.64382 22.5374 9.56985C22.6653 9.57084 22.7438 9.53892 22.8716 9.45988C23.081 9.24234 23.2905 9.02479 23.4999 8.80724C23.8698 8.52712 24.2398 8.24685 24.6096 7.96673C24.8518 7.88784 25.0938 7.80895 25.3359 7.73006C25.4283 7.69209 25.5838 7.60012 25.6764 7.56201Z" fill="#CCCC00"/>
<path d="M26.7498 8.7229C25.5124 9.38918 24.3273 10.0593 23.6946 11.3246C23.6946 9.71852 25.3073 9.01146 26.7498 8.7229Z" fill="#CCCC00"/>
<path d="M23.4486 5.56348C22.5298 6.18996 21.8801 7.45432 21.9617 8.68647C21.6624 7.61955 21.7685 6.61141 22.6874 5.87454C22.8426 5.79916 22.9975 5.72365 23.1526 5.64841C23.2514 5.62015 23.3499 5.59188 23.4486 5.56348Z" fill="#CCCC00"/>
<path d="M35.814 8.47235C35.6472 7.4216 35.371 6.40165 34.9877 5.66829C34.941 5.57857 34.8701 5.48773 34.7824 5.40096C34.5919 5.21323 34.31 5.03548 34.0188 4.93535C33.7101 4.82918 33.3847 4.80753 33.1264 4.94252C33.0593 4.97768 32.997 5.02296 32.9414 5.07935C32.7741 5.24895 32.633 5.45482 32.4917 5.66126C32.3345 5.89104 32.1764 6.12195 31.9873 6.28338C31.7681 6.47084 31.4937 6.5846 31.235 6.68852C31.1215 6.41416 30.991 6.16315 30.8435 5.92746C30.6665 5.64537 30.4652 5.38127 30.2435 5.11704C30.0624 4.90146 29.8862 4.73946 29.6955 4.59434C29.5044 4.44851 29.3088 4.32574 29.0809 4.18315C28.47 3.80051 27.9498 3.34432 27.4192 2.87871C27.1782 2.66721 26.9346 2.45375 26.6964 2.25729C25.4331 1.21554 24.2545 0.710279 22.9941 0.630966C21.7422 0.552216 20.4203 0.896185 18.8597 1.55318C18.1065 1.87015 17.5471 2.24478 17.0598 2.6952C16.5944 3.12593 16.1992 3.62164 15.7648 4.20059C15.512 4.21859 15.2882 4.25599 15.0596 4.34754C14.8077 4.44823 14.5542 4.61135 14.2504 4.87952C14.0348 5.06951 13.8285 5.2609 13.6291 5.4537C13.4424 5.63426 13.2611 5.81806 13.0824 6.00382C11.6615 6.23205 10.5039 6.48405 9.46721 6.88568C8.40704 7.2963 7.47245 7.86133 6.51254 8.71254C6.12034 9.06016 5.78087 9.42761 5.48373 9.81686C5.19179 10.1992 4.9419 10.6013 4.72267 11.0253C4.53057 11.2377 4.33834 11.4522 4.13007 11.6398C3.92701 11.8226 3.71059 11.9766 3.46815 12.07L3.46829 12.0701C3.32725 12.1244 3.26889 12.1562 3.26256 12.154C3.25553 12.1501 3.25159 12.129 3.24161 12.0901C3.58993 11.7576 3.64464 11.2694 3.67684 10.7845C3.71861 10.8346 3.75882 10.8962 3.80045 10.9604C3.84643 11.0314 3.89354 11.1047 3.95007 11.176L4.18646 11.4743L4.26957 11.1022C4.33932 10.7904 4.3915 10.3751 4.31021 10.0151C4.25762 9.78157 4.1492 9.5733 3.96034 9.42579C3.97848 9.37854 3.9955 9.33508 4.01237 9.29219C4.07171 9.14046 4.13275 8.98479 4.18464 8.83769L4.28701 8.54604L3.98214 8.59891C3.57643 8.66936 2.70442 9.14861 2.09045 9.78578C1.86236 10.0225 1.66633 10.284 1.53765 10.5585C1.40378 10.8441 1.34387 11.143 1.39576 11.4421C1.44105 11.7035 1.57183 11.96 1.80948 12.2021C1.85279 12.3767 1.89273 12.5281 1.93548 12.6648C1.98442 12.8203 2.03715 12.9594 2.10311 13.0962C2.28184 13.4679 2.56675 13.6949 2.89637 13.8008C3.16145 13.8858 3.45451 13.8901 3.74195 13.8272C3.68584 14.152 3.6504 14.4917 3.63662 14.8626C3.61848 15.3476 3.6362 15.8834 3.68964 16.5051C3.70131 16.6415 3.71889 16.7917 3.74167 16.9548C3.76136 17.0941 3.78484 17.2307 3.81015 17.3665C3.75643 17.513 3.70243 17.6598 3.64857 17.8063C3.5649 18.0339 3.48123 18.2617 3.3977 18.4892C3.21362 18.6716 3.02954 18.854 2.84561 19.0362C2.6739 19.206 2.50206 19.3763 2.33036 19.5464C2.31615 19.5606 2.25822 19.6162 2.20576 19.6668C1.85772 20.0016 1.78881 20.0681 1.88767 20.6575C1.948 21.0186 2.06683 21.3845 2.25231 21.7374C2.42317 22.0628 2.65239 22.3796 2.94658 22.6746C3.31375 23.0426 3.91534 23.4997 4.5452 23.739C4.9052 23.8758 5.27631 23.9426 5.62449 23.8868C5.60678 23.9404 5.58948 23.9938 5.56993 24.0478C5.51509 24.1993 5.45392 24.3509 5.38628 24.4992C4.95906 25.4359 5.39767 25.925 6.0804 26.2364C6.42128 26.3918 6.82656 26.4972 7.20315 26.5955C7.28021 26.6153 7.35727 26.6356 7.45431 26.6618C7.90065 26.7824 8.67155 27.0039 9.37566 27.0483C10.1442 27.097 10.8373 26.9384 11.0231 26.2485C11.0966 25.9751 11.1394 25.7656 11.1567 25.5605C11.1727 25.3703 11.1665 25.1779 11.1443 24.9399C11.3634 24.4544 11.4563 24.3178 11.6165 24.0835C11.6479 24.0373 11.6858 23.9819 11.6972 23.9644C11.8691 23.7099 11.9495 23.5292 11.9788 23.3257C12.0069 23.1294 11.9831 22.9338 11.9476 22.6347C11.9442 22.6063 11.939 22.5648 11.9317 22.5099C12.3815 22.5676 12.8251 22.5985 13.2661 22.6014C13.4899 22.6028 13.7137 22.5961 13.9374 22.5843C13.8803 22.6137 13.8242 22.6427 13.7629 22.6742C13.7357 22.6881 13.7078 22.7026 13.6796 22.7171C13.0862 23.0222 13.0614 23.6004 13.2472 24.1951C13.4147 24.7314 13.7594 25.279 13.9756 25.6121C14.4303 26.3127 14.8641 26.9057 15.39 27.2281C15.9414 27.566 16.5713 27.6058 17.3844 27.1658C17.798 26.9417 17.9285 26.7135 18.1041 26.4058C18.1578 26.3119 18.2172 26.2095 18.2831 26.1085C18.4541 25.9953 18.8794 25.6446 19.2969 25.2994C19.4389 25.182 19.5809 25.065 19.7413 24.9345C19.8517 25.0156 19.985 25.072 20.146 25.1104C20.3552 25.1604 20.6044 25.1831 20.903 25.2045C21.1264 25.2209 21.8551 25.2204 22.3259 25.2202C22.4714 25.2202 22.5922 25.2202 22.6646 25.2206C23.1506 25.2236 23.5429 25.198 23.8394 25.0301C24.1553 24.8509 24.3426 24.5337 24.3836 23.9647C24.4014 23.712 24.4047 23.5562 24.3696 23.397C24.3369 23.2479 24.2729 23.1129 24.1631 22.9152C24.1565 22.6694 24.1499 22.4235 24.1434 22.1777C24.1365 21.9168 24.1293 21.6558 24.1224 21.3951C24.1141 21.0875 24.0802 20.8378 24.0178 20.592C23.9559 20.3478 23.8676 20.113 23.7494 19.8313C23.6692 19.6408 23.6042 19.4657 23.5407 19.294L23.3701 19.3564L23.3964 19.3467L23.5407 19.294V19.2933C23.439 19.0191 23.3387 18.7522 23.1984 18.4666C23.2075 18.4114 23.2167 18.3522 23.2255 18.2889C23.3158 18.3761 23.4062 18.4632 23.4965 18.5501L23.896 18.9351C24.2008 19.2286 24.4793 19.4955 24.8066 19.6884C25.1449 19.8881 25.5254 20.004 26.0182 19.9807C26.534 19.9563 27.086 19.7391 27.5405 19.4038C27.9801 19.0793 28.3329 18.6416 28.4801 18.1573C28.5227 18.0173 28.5653 17.8771 28.6077 17.7371C28.6416 17.6255 28.6756 17.5135 28.7096 17.4017C29.433 17.5244 30.2094 17.5639 30.9593 17.4854C31.683 17.4093 32.3822 17.2251 32.985 16.9035C33.8714 16.4306 34.5358 15.7339 35.0134 14.9068L35.0137 14.9069C35.5474 13.9825 35.8462 12.8932 35.9598 11.7723C36.0508 10.8732 36.0012 9.65107 35.814 8.47235ZM26.4418 16.0277C26.0249 15.8875 25.7351 15.6827 25.3688 15.452C25.4685 15.9013 25.5139 16.3765 25.3812 16.825C25.1705 17.5367 24.8303 18.7011 25.7966 18.916C26.1644 18.9977 26.3312 18.9859 26.8504 18.718C26.4302 18.8132 26.2183 18.7899 25.9295 18.7363C25.6678 18.6882 25.529 18.522 25.4558 18.3259C25.5472 18.3919 25.6964 18.4277 25.9513 18.4892C26.6676 18.6619 27.3502 18.3169 27.4838 17.8202C27.5616 17.53 27.5483 17.3776 27.7133 16.982C27.8615 17.0278 28.0148 17.0695 28.172 17.1076C28.0833 17.3968 27.9945 17.6864 27.9058 17.9756C27.6756 18.7267 26.7786 19.3322 25.9866 19.3185C25.2543 19.3055 24.7901 18.8469 24.2846 18.3972C23.9364 18.0872 23.6013 17.7909 23.2691 17.4972C22.3579 17.2097 21.6275 16.8737 20.7817 16.2476C21.3836 16.9548 21.7919 17.3465 22.6312 17.6985C22.5092 18.9437 22.0765 19.8516 21.7075 21.0432C21.5404 21.582 20.2222 23.7413 19.8569 23.9518C19.5964 24.1018 17.9647 25.476 17.6579 25.6574C17.4292 25.961 17.2286 26.3805 16.8849 26.562C15.8377 27.1158 15.1646 26.0555 14.6011 25.16C14.3445 24.7519 13.632 23.5769 14.2531 23.2477C14.8405 22.9367 15.1694 22.7144 15.7686 22.3209C15.8566 22.4814 16.0077 22.6364 16.1061 22.7967C16.0845 22.6213 16.0627 22.4461 16.0407 22.2706C16.0013 21.9529 16.0029 21.695 16.0282 21.3754C16.0527 21.066 16.0769 20.7565 16.1012 20.447C16.011 20.7616 15.8309 21.0761 15.7409 21.3906C15.7049 21.5164 15.6751 21.6181 15.6579 21.7123C14.3134 21.9871 12.9786 22.0043 11.6337 21.7644C11.5479 21.2664 11.4434 20.7476 11.3558 20.3757C11.3292 20.7922 11.3464 21.9438 11.3441 22.5887C11.3424 23.0882 11.3215 23.2592 11.0639 23.6843C10.8227 24.082 10.7206 24.1724 10.3828 24.8446C10.4109 25.2689 10.4115 25.5491 10.2989 25.9517C10.1114 26.6211 8.22071 26.1025 7.72206 25.9659C7.10781 25.7978 5.8381 25.548 6.15746 24.7293C6.43843 24.0086 6.6166 23.2488 6.75385 22.2405C5.62857 20.6195 4.58218 18.3981 4.38137 16.4297C4.22542 14.9016 4.31893 13.9609 4.64968 13.0261C5.17365 11.5449 5.90687 10.2628 7.0832 9.23032C8.66987 7.83799 10.1532 7.27887 12.4756 6.92533C11.917 7.55055 11.3645 8.21163 10.7622 8.92052C10.1526 9.63813 9.79037 10.3629 9.40322 11.1479C8.86843 12.232 8.87996 12.6445 9.58885 13.5963C10.1997 14.4166 10.5295 14.7857 10.7963 15.5884C10.576 16.0423 10.4959 16.4261 10.4219 17.0461C11.1699 17.8638 11.7258 18.4241 12.4521 18.5966C13.1645 18.7659 13.7594 18.7332 14.3968 18.4075C15.8123 17.6837 17.1221 16.7491 18.7191 16.7106C19.4578 14.8944 19.3831 13.3768 19.0284 11.6195C18.7861 10.4194 18.689 9.28319 18.6137 8.05976C18.3142 9.31975 18.258 10.4277 18.4801 11.6828C18.748 13.1952 18.9563 14.8664 18.2111 16.1956C16.7672 16.3061 15.5297 17.1846 14.2283 17.8586C13.7052 18.1296 13.1606 18.1561 12.5816 17.9972C12.0442 17.8495 11.6815 17.4939 11.1025 16.8262C11.0934 16.1557 11.2447 15.8463 11.5525 15.2391C12.0473 14.264 12.5932 13.3564 13.1924 12.397C12.4587 13.2826 11.7636 14.0224 11.1862 14.9127C10.9654 14.284 10.6499 13.9646 10.127 13.2565C9.61641 12.565 9.56298 12.2622 9.94477 11.4618C10.3287 10.6575 10.6542 9.9506 11.3077 9.24508C12.4368 8.02572 13.4711 6.66884 14.7058 5.4679C15.3763 4.81596 15.6485 4.83846 16.5377 4.70374C17.3415 4.58182 18.1262 4.42812 18.9459 4.23771C18.1532 4.31154 17.3869 4.33868 16.615 4.35781C16.607 4.35809 16.5991 4.35837 16.5911 4.35851C17.3505 3.38876 17.7912 2.84834 19.0244 2.31242C22.0607 0.993779 23.99 0.851185 26.3751 2.85607C26.9933 3.37582 27.5331 3.88024 28.1599 4.32856C27.9327 4.34796 27.7368 4.38874 27.4777 4.49042C27.793 4.43037 28.1571 4.48985 28.4843 4.54976C28.5762 4.60938 28.6705 4.66746 28.7671 4.72442C29.2097 4.98513 29.4608 5.12913 29.7601 5.54609C30.0763 5.98666 30.34 6.42696 30.5723 6.91226C30.42 6.85783 30.2923 6.81185 30.1786 6.7781C30.0948 6.73957 30.0036 6.7144 29.907 6.70498C29.7156 6.68655 29.5325 6.73366 29.38 6.8276C29.3738 6.83041 29.3677 6.83323 29.3615 6.83618C29.1167 6.95529 28.7376 7.09113 28.4839 7.13234C28.6133 7.17705 28.8996 7.19379 29.0346 7.14035C29.0526 7.13318 29.071 7.12769 29.0899 7.12319C29.029 7.22683 28.9893 7.3444 28.9769 7.47166C28.9608 7.64027 28.9951 7.80199 29.0675 7.94247C29.0678 7.9429 29.0679 7.94332 29.0682 7.94402C29.0911 7.99788 29.1229 8.04752 29.1579 8.08338C29.0421 8.12613 28.9236 8.17493 28.8016 8.22794C29.3675 8.14174 29.8776 8.12698 30.4299 8.19968C30.4663 8.37377 30.503 8.55827 30.537 8.74586C30.4685 8.75121 30.4003 8.75641 30.3319 8.7619C30.3265 8.76232 30.3208 8.76288 30.3153 8.76344C30.054 8.55462 29.7629 8.58963 29.3652 8.68047C28.1557 8.95624 28.4399 9.63489 27.8836 10.6575C28.4613 9.9513 28.4184 9.21246 29.3599 8.98943C29.5792 8.93754 29.7286 8.87243 29.8771 8.89479C29.6099 9.02922 29.3787 9.25211 29.287 9.51086C29.0285 10.2406 29.189 10.8554 28.9051 11.537C29.2568 10.9277 29.278 10.3331 29.5925 9.69199C29.7054 9.46179 30.1244 9.09321 30.3818 9.08758C30.4525 9.0859 30.5228 9.08449 30.5936 9.08294C30.6556 9.4885 30.6933 9.89125 30.6692 10.2252C30.6253 10.8348 30.467 11.7396 30.3722 12.0858C30.6907 11.6763 30.8359 10.8091 30.9758 10.1985C31.1215 9.56289 31.0846 8.8 30.9571 8.11713C30.7821 7.18015 31.7471 7.33258 32.3074 6.89102C32.7191 6.56632 33.0028 6.04798 33.3803 5.68066C33.7548 5.31659 34.3443 5.85166 34.4917 6.20759C35.1304 7.75291 35.4214 10.1842 35.2527 11.742C35.0633 13.49 34.219 15.3983 32.6773 16.2589C30.7118 17.3559 28.3945 16.6857 26.4418 16.0277ZM23.6491 23.7915C23.585 24.5127 23.3446 24.5604 22.7113 24.5493C22.4235 24.5442 21.2777 24.539 20.9869 24.514C20.5762 24.4786 20.3455 24.4419 20.2199 24.3482C20.8654 23.8744 21.9622 21.9182 22.1759 21.2447C22.402 20.5333 22.6495 19.9123 22.8336 19.2548C22.9183 19.5295 22.9852 19.8019 23.1084 20.0939C23.3141 20.5817 23.4147 20.8832 23.4294 21.4065C23.4449 21.9586 23.4605 22.5108 23.4761 23.0629C23.6529 23.3724 23.6804 23.4385 23.6491 23.7915ZM4.22443 18.3278C4.63435 19.7455 5.33256 21.1389 6.1067 22.3101C6.1067 22.3169 6.10656 22.3236 6.10656 22.3306C6.0579 22.532 6.00193 22.7281 5.88423 22.8856C5.33101 23.6258 3.92364 22.5392 3.51625 22.1235C3.07103 21.6687 2.7729 21.1304 2.70189 20.6253C2.65028 20.257 2.70048 20.248 2.9574 19.9874C3.30376 19.6367 3.65054 19.2858 3.99676 18.9353C4.07256 18.7328 4.1485 18.5301 4.22443 18.3278ZM3.44172 9.41116C3.33667 9.63672 3.26214 9.80758 3.21137 9.9835C2.99073 10.7456 3.31122 11.4258 2.61934 11.9781C2.94447 12.6341 2.92956 12.8957 3.68584 12.5927C3.9775 12.4757 4.21811 12.3117 4.43284 12.1178C4.33046 12.3824 4.23554 12.6555 4.14611 12.9375C4.1312 12.9842 4.117 13.0311 4.10321 13.0777C3.56237 13.3072 2.85109 13.453 2.57884 12.8846C2.44665 12.6087 2.37198 12.3378 2.27565 11.9892C1.38494 11.0665 2.71637 9.84808 3.44172 9.41116ZM3.87948 10.3886C3.76951 10.2787 3.68148 10.2041 3.53945 10.2203C3.5514 10.1271 3.56729 10.0372 3.58979 9.95271C3.60118 9.90926 3.61328 9.86664 3.62622 9.8239C3.81057 9.93133 3.85923 10.126 3.87948 10.3886ZM30.5865 6.94207C30.6201 7.01294 30.6532 7.08508 30.6857 7.15807C30.6588 7.17776 30.6332 7.19857 30.6093 7.22051C30.5654 7.11785 30.5017 7.02476 30.4228 6.94685C30.476 6.94488 30.5304 6.94319 30.5865 6.94207ZM4.87243 11.1306L4.87229 11.1304L4.87243 11.1306ZM1.97331 12.1102H1.97345H1.97331ZM11.7193 22.2986H11.7196H11.7193ZM19.7469 24.6951H19.7467H19.7469ZM23.0095 18.4938H23.0097L23.0095 18.494V18.4938ZM3.53354 12.2398V12.2397L3.5334 12.2398L3.5275 12.2241L3.53354 12.2398ZM34.8537 14.8145L34.8579 14.8171L34.8537 14.8145Z" fill="black"/>
<path d="M0.390841 12.0179C0.532591 10.4131 0.844637 9.72028 1.98482 8.51245C0.554669 9.52031 0.197763 9.97833 0.390841 12.0179Z" fill="black"/>
<path d="M0.0220869 10.7069C0.179587 9.98467 0.326399 9.71214 0.771617 9.11926C0.0492275 9.62397 -0.0449911 9.83125 0.0220869 10.7069Z" fill="black"/>
<path d="M16.8007 0.638672C15.944 0.845109 15.7806 1.00359 15.5237 1.84341C15.9336 1.22845 16.1697 1.02834 16.8007 0.638672Z" fill="black"/>
<path d="M18.1517 0.516357C16.4524 0.932888 15.953 1.22904 15.3885 3.1985C16.106 1.75611 16.6494 1.22497 18.1517 0.516357Z" fill="black"/>
<path d="M21.8113 7.69589C21.9925 6.89349 22.3144 6.12019 23.5606 5.52197C21.9087 5.93569 21.599 6.62939 21.8113 7.69589Z" fill="black"/>
<path d="M32.3218 7.75135C33.3 7.4026 33.7716 6.61623 34.0058 5.69092C33.6229 6.46646 33.0321 7.11503 32.2295 7.51229C31.7987 7.72534 31.5237 7.65109 31.0427 7.60553C31.5318 7.74587 31.8416 7.92249 32.3218 7.75135Z" fill="black"/>
<path d="M25.6578 8.53763C25.5274 8.2644 25.299 8.06865 25.0347 7.97176C25.2746 7.84365 25.5103 7.70907 25.6942 7.54187C25.1556 7.7912 24.5286 7.73031 24.0665 8.04249C23.6594 8.31742 23.0976 9.18873 22.6838 9.55815C22.9835 9.44185 23.2722 9.24076 23.5379 9.0287C23.539 9.18634 23.5736 9.34595 23.6457 9.49726C23.7534 9.72282 23.9277 9.89537 24.134 10.0032C23.985 10.1994 23.8614 10.4191 23.773 10.6626C24.5606 9.72915 25.7026 9.0242 26.7763 8.7227C26.4762 8.71848 26.1209 8.77459 25.7589 8.89356C25.7457 8.77318 25.7128 8.65295 25.6578 8.53763Z" fill="black"/>
<path d="M24.5247 15.5911C24.4865 15.8328 24.434 16.1332 24.3958 16.375C24.498 16.1014 24.6212 15.7834 24.7401 15.5226C24.8664 15.2465 24.9374 15.2205 25.2052 15.0748C25.395 14.9715 25.7398 14.8294 25.9297 14.7261C25.7344 14.759 25.3842 14.8308 25.1889 14.8637C24.667 14.9519 24.6056 15.0772 24.5247 15.5911Z" fill="black"/>
<path d="M15.611 6.25919C15.0054 6.85783 14.4173 8.91194 14.2292 9.73375C14.5254 9.05102 15.2662 7.14133 15.8346 6.65547C15.9916 6.52117 16.1012 6.43877 16.2191 6.37886C15.8123 7.06103 15.8421 7.23077 15.9849 8.14483C16.1062 7.21558 16.4275 6.85656 16.9548 6.16328C17.5328 6.01816 18.0738 5.84449 18.6667 5.61316C17.998 5.68882 17.3303 5.758 16.6614 5.82128C16.0997 5.87458 16.0093 5.86544 15.611 6.25919Z" fill="black"/>
<path d="M23.8609 9.75568C23.7505 9.52477 23.8492 9.24662 24.0807 9.13651C24.3122 9.02626 24.5909 9.12469 24.7013 9.35574C24.7118 9.37768 24.7201 9.40018 24.727 9.42268C24.5059 9.58679 24.3033 9.78001 24.1333 10.0039C24.019 9.9579 23.9176 9.87422 23.8609 9.75568Z" fill="#FFFFCC"/>
<path d="M29.0332 7.75497C29.0518 7.56358 29.2149 7.42253 29.4061 7.44109C29.5972 7.45966 29.7386 7.63052 29.7201 7.82177C29.7161 7.86255 29.7051 7.90066 29.6886 7.93581C29.5136 7.96577 29.3385 8.01695 29.1581 8.08333C29.0827 8.00612 29.0226 7.86522 29.0332 7.75497Z" fill="#FFFFCC"/>
</g>
<defs>
<clipPath id="clip0_202_15181">
<rect width="37" height="28" fill="white"/>
</clipPath>
</defs>
</svg>
