<svg width="32" height="37" viewBox="0 0 32 37" fill="none" xmlns="http://www.w3.org/2000/svg">
<g clip-path="url(#clip0_202_12703)">
<path d="M25.622 0.113105L25.3973 0.0332729C25.299 0.00967653 25.1975 0.000446339 25.096 0.00613447C24.9368 0.0150417 24.7817 0.0604426 24.6427 0.138805C23.1015 0.76776 21.3887 1.47081 19.6841 2.18748C19.3769 2.31662 19.3783 2.75152 19.6858 2.87958L23.821 4.6011C23.9613 4.65944 24.0525 4.79643 24.0528 4.94822C24.0549 6.30264 24.0729 7.57049 24.0561 8.92679C24.0542 9.07597 23.9639 9.20974 23.8264 9.26755L12.9387 13.8517C12.6909 13.956 12.4168 13.774 12.4168 13.5051L12.4172 3.29488C12.4172 2.90317 12.198 2.60542 11.8689 2.43949C11.8375 2.42266 11.8058 2.40676 11.7721 2.39274L6.32845 0.0869247C6.1817 0.0246261 6.02261 -0.00313739 5.86345 0.00578026C5.70427 0.0146875 5.54928 0.0600467 5.41042 0.138337C3.92888 0.742987 2.16032 1.47256 0.58717 2.13023C0.282905 2.25744 0.279035 2.68651 0.580658 2.81985L4.63316 4.61152C4.76931 4.67163 4.85714 4.80654 4.85714 4.95541V17.9862C4.88889 18.1283 4.94636 18.2502 5.02386 18.3507C5.10285 18.4825 5.2328 18.5985 5.42818 18.691L17.4027 24.3894L17.4672 24.4146C17.5972 24.4797 17.744 24.5157 17.8987 24.5157L17.9683 24.5133C18.2157 24.4943 18.4467 24.3824 18.6149 24.2C18.7832 24.0176 18.8761 23.7784 18.8752 23.5303V19.5097C18.8752 19.3459 18.9811 19.2009 19.1373 19.1514L23.5712 17.7422C23.8137 17.6652 24.0612 17.8462 24.0611 18.1007L24.0558 35.3837C24.0557 35.5365 24.1482 35.6742 24.2896 35.7319L24.4948 35.8157C24.5607 35.8425 24.6292 35.8625 24.6991 35.8755C24.9803 35.9715 25.2867 35.9633 25.5624 35.8522L30.9913 33.6314C31.1998 33.5402 31.3415 33.4379 31.4303 33.3229C31.5663 33.1799 31.6499 32.9915 31.6499 32.7218V3.29581C31.6499 3.00367 31.5168 2.76481 31.3134 2.5942C31.2255 2.51147 31.1217 2.44276 31.005 2.39321L25.622 0.113105Z" fill="url(#paint0_linear_202_12703)"/>
<path d="M12.4399 27.9951C12.4413 27.8486 12.3575 27.7146 12.2253 27.6518L6.18311 24.7803C6.06457 24.7304 5.93731 24.7044 5.80868 24.704C5.68005 24.7035 5.55261 24.7286 5.43373 24.7776C5.31484 24.8268 5.20688 24.899 5.11608 24.9901C5.02527 25.0812 4.95343 25.1894 4.90469 25.3084C4.88511 25.3556 4.86924 25.4041 4.85718 25.4533V35.3821C4.85718 35.5321 4.9463 35.6677 5.08396 35.7272L5.40017 35.8639C5.4326 35.8771 5.46566 35.8887 5.49927 35.8985C5.75682 36.0238 6.06392 36.0434 6.35045 35.9266L11.7328 33.782C11.9272 33.702 12.0935 33.5659 12.2106 33.3913C12.3276 33.2166 12.3902 33.0112 12.3904 32.8008C12.3933 32.7719 12.3942 32.7429 12.3942 32.7134L12.4399 27.9951Z" fill="url(#paint1_linear_202_12703)"/>
</g>
<defs>
<linearGradient id="paint0_linear_202_12703" x1="15.7166" y1="1.55359" x2="15.7166" y2="34.4277" gradientUnits="userSpaceOnUse">
<stop stop-color="#F1CB2B"/>
<stop offset="1" stop-color="#D62B5F"/>
</linearGradient>
<linearGradient id="paint1_linear_202_12703" x1="15.7167" y1="1.55361" x2="15.7167" y2="34.4278" gradientUnits="userSpaceOnUse">
<stop stop-color="#F1CB2B"/>
<stop offset="1" stop-color="#D62B5F"/>
</linearGradient>
<clipPath id="clip0_202_12703">
<rect width="32" height="37" fill="white"/>
</clipPath>
</defs>
</svg>
