<svg width="34" height="40" viewBox="0 0 34 40" fill="none" xmlns="http://www.w3.org/2000/svg">
<g clip-path="url(#clip0_202_9500)">
<path d="M16.0185 20.0631L13.2814 39.6098C13.2814 39.6098 8.81863 41.2462 4.77242 37.8247L9.2054 18.873L0.845215 1.91462C0.845215 1.91462 4.14764 0.516293 6.26 0.992318L13.6086 14.8565L26.3423 4.02698C26.3423 4.02698 30.6265 5.51455 31.0133 6.94263L16.0185 20.0631Z" fill="#ECDFA7"/>
<path d="M32.7387 22.0171C32.5304 21.6006 32.2627 21.2138 31.9652 20.8568C31.3701 20.1725 30.6561 19.6072 29.8826 19.1609C29.1388 18.6849 28.3057 18.2981 27.4727 18.0304L27.1454 17.9411C27.0562 17.9114 26.9669 17.8816 26.8776 17.8519C26.6991 17.7924 26.5504 17.7031 26.4016 17.6436C26.1041 17.4651 25.8958 17.2866 25.7471 17.0486C25.4496 16.6023 25.4198 15.918 25.5686 15.204C25.5983 15.0255 25.6578 14.8469 25.7173 14.6684C25.7768 14.4899 25.8363 14.3114 25.8958 14.1032C25.9553 13.8354 25.9851 13.5676 25.9851 13.2404L26.1339 13.1214L27.919 11.6338C28.2462 11.366 28.5735 11.0685 28.9008 10.8007C29.0198 10.8602 29.1388 10.9495 29.228 11.009C29.228 11.009 30.1503 11.0982 30.6561 9.69993L30.3883 9.52141L30.5668 9.37266L31.0131 8.98589C31.1619 8.86688 31.2809 8.71812 31.3404 8.45036C31.0726 8.42061 30.8941 8.50986 30.7453 8.62887L30.2693 8.98589L29.9421 9.2239L25.8363 6.3975C26.0446 6.21899 26.2231 6.07023 26.4314 5.89172L27.2942 5.11818C27.3239 5.08843 27.3537 5.05868 27.3834 5.02893C27.4727 5.08843 27.5322 5.14794 27.6214 5.20744C27.8297 5.3562 28.0677 5.50495 28.276 5.62396L29.585 6.338C30.0016 6.57601 30.4478 6.81402 30.8941 7.02228C31.1024 7.14129 31.3404 7.23055 31.5784 7.3198C31.6974 7.34955 31.8164 7.40905 31.9354 7.43881C31.9949 7.43881 32.0842 7.46856 32.1437 7.46856H32.2924C32.3519 7.46856 32.4114 7.43881 32.4709 7.34955V7.3198C32.4709 7.29005 32.4709 7.2603 32.5007 7.23055V7.11154C32.5007 7.05204 32.4709 7.02228 32.4412 6.99253C32.4114 6.93303 32.3519 6.87353 32.3222 6.81402C32.2329 6.72477 32.1437 6.60576 32.0544 6.54626C31.8759 6.36775 31.6676 6.21899 31.4891 6.07023C31.1024 5.77272 30.6858 5.50495 30.2693 5.23719C29.8528 4.96943 29.4363 4.73141 28.99 4.52315C28.7817 4.40415 28.5437 4.31489 28.3057 4.22564C28.1867 4.19589 28.0677 4.13638 27.919 4.10663C27.8594 4.10663 27.7702 4.07688 27.6809 4.07688C27.6214 4.07688 27.5917 4.07688 27.5024 4.10663C27.4429 4.13638 27.3537 4.16613 27.2644 4.25539C27.0562 4.34464 26.8776 4.4339 26.7289 4.5529L25.8363 5.05868C25.5686 5.26694 25.2711 5.50495 25.0033 5.71322L24.7058 5.50495C24.7058 5.50495 23.4562 5.62396 23.8727 6.42725C23.8727 6.42725 23.9025 6.457 23.9917 6.54626C22.8017 7.52806 21.6414 8.53961 20.4811 9.52141C19.291 10.533 18.1307 11.5445 16.9406 12.5858L15.1853 14.1329C15.096 14.2222 15.0068 14.3114 14.8878 14.4007C14.8283 14.2222 14.739 14.0734 14.6795 13.9246L14.263 13.0321L13.4597 11.247C12.9242 10.0569 12.3886 8.86688 11.8234 7.67682L10.1573 4.13638C10.068 3.95787 9.97876 3.77936 9.88951 3.60085H10.2465C10.2465 3.60085 10.3655 2.61905 9.65149 2.44054C9.65149 2.44054 9.53249 2.44054 9.35398 2.4703C9.08621 1.93477 8.8482 1.39924 8.58044 0.863711L8.46143 0.417437C8.43168 0.26868 8.34242 0.209176 8.28292 0.149673C8.22342 0.119922 8.16392 0.0901702 8.13416 0.0901702C8.04491 0.0604187 7.98541 0.0604187 7.89615 0.0306671C7.74739 0.000915527 7.62839 0.000915527 7.50938 0.000915527C7.24162 0.000915527 7.0036 0.0306671 6.76559 0.0604187C6.28957 0.119922 5.78379 0.209176 5.30777 0.328183C4.83174 0.447189 4.35572 0.566195 3.87969 0.714953C3.64168 0.804208 3.40367 0.863711 3.1954 0.982717C3.0764 1.04222 2.95739 1.10172 2.83839 1.16123C2.77888 1.19098 2.71938 1.25048 2.65988 1.28023C2.63013 1.30998 2.60037 1.33974 2.57062 1.36949C2.54087 1.39924 2.54087 1.42899 2.51112 1.45874V1.548V1.57775C2.54087 1.69675 2.60037 1.72651 2.65988 1.75626C2.71938 1.78601 2.74913 1.81576 2.77888 1.81576C2.86814 1.84551 2.92764 1.84551 2.98714 1.87526C3.10615 1.90502 3.25491 1.90502 3.37391 1.90502C3.61193 1.90502 3.87969 1.87526 4.1177 1.84551C4.59373 1.78601 5.0995 1.72651 5.57553 1.63725L7.03336 1.39924C7.27137 1.36949 7.50938 1.30998 7.77714 1.25048C7.98541 1.667 8.19367 2.11328 8.40193 2.5298C7.03336 2.6488 4.89124 2.82731 3.55242 2.97607C3.40367 2.70831 3.28466 2.4703 3.1359 2.20253C3.10615 2.14303 3.0169 2.08352 2.92764 2.11328C2.83839 2.14303 2.80863 2.23228 2.83839 2.32154C2.92764 2.55955 3.0169 2.76781 3.10615 3.00582C2.68963 3.06533 2.42186 3.12483 2.39211 3.18433C2.24335 3.4521 2.68963 4.85042 3.28466 5.20744C3.28466 5.20744 3.52267 5.11818 3.93919 5.02893C4.14745 5.50495 4.35572 5.98098 4.56398 6.457L6.34907 10.5032L8.16392 14.5494C8.75895 15.8883 9.38373 17.2271 10.0085 18.5956C10.0085 18.5956 10.0085 18.6254 10.0383 18.6254C9.94901 18.9229 9.85975 19.2204 9.7705 19.5179C9.53249 20.351 9.29447 21.184 9.05646 22.0171C8.61019 23.6832 8.19367 25.379 7.77714 27.0451L7.15236 29.574L6.55733 32.1029C6.14081 33.7987 5.75404 35.4648 5.27801 37.1309C5.27801 37.1606 5.27801 37.2201 5.30777 37.2499C5.54578 37.5771 5.87305 37.8152 6.17056 38.0532C6.49783 38.2912 6.82509 38.4697 7.15236 38.6482C7.83665 39.0052 8.55069 39.273 9.29447 39.511C10.0383 39.7192 10.8118 39.868 11.6151 39.8978C12.0019 39.9275 12.4184 39.8978 12.8052 39.8383C13.1919 39.7788 13.5787 39.7192 13.9952 39.6002C14.1142 39.5705 14.2035 39.4515 14.2332 39.3325V39.3027C14.5605 37.6664 14.8283 36.0003 15.1258 34.364L15.9588 29.3955C16.2266 27.7294 16.5241 26.093 16.7919 24.4269C16.8216 24.2484 16.8514 24.0402 16.8811 23.8617C16.9406 23.9212 16.9704 24.0104 17.0299 24.0699C17.3274 24.4269 17.6844 24.7245 18.0414 24.9922C18.7555 25.498 19.529 25.8848 20.3026 26.1823C21.0761 26.4798 21.8794 26.7178 22.6827 26.8963C23.2182 27.0153 23.724 27.1046 24.2595 27.1641C24.0215 27.6996 23.8727 28.2649 23.9025 28.8897C23.9025 28.9492 23.9322 29.0087 23.9917 29.0384H24.0215C24.5868 29.336 25.1818 29.574 25.8363 29.7227C26.4611 29.8417 27.1454 29.9012 27.7999 29.812C28.4842 29.7227 29.1685 29.455 29.704 29.0087C30.2396 28.5624 30.6263 27.9674 30.8644 27.3426L30.8941 27.3128V27.2831C30.9239 27.0153 30.9536 26.7476 30.9834 26.4798V26.4501C31.2809 26.2715 31.5784 26.093 31.8759 25.855C32.2329 25.5575 32.5602 25.2302 32.7982 24.8137C33.0362 24.3972 33.185 23.8914 33.1552 23.3856C33.1255 22.9096 32.947 22.4336 32.7387 22.0171ZM32.1734 7.02228C32.1734 7.02228 32.1734 7.05204 32.1734 7.02228V7.02228ZM30.0611 5.44545C30.4776 5.68346 30.8644 5.92148 31.2511 6.21899C31.4296 6.36775 31.6379 6.48676 31.8164 6.66527C31.9057 6.75452 31.9949 6.81402 32.0544 6.90328C32.0842 6.93303 32.0842 6.93303 32.1139 6.96278H32.0544C31.9354 6.93303 31.8462 6.90328 31.7271 6.87353C31.5189 6.78427 31.2809 6.69502 31.0726 6.60576C30.6561 6.3975 30.2098 6.18924 29.823 5.92148C29.4363 5.65371 29.0495 5.3562 28.7222 5.02893C28.6032 4.90992 28.4842 4.79092 28.395 4.67191C28.5437 4.73141 28.6925 4.79092 28.8412 4.85042C29.228 4.99918 29.6445 5.20744 30.0611 5.44545ZM28.038 4.13638C28.038 4.13638 28.038 4.13638 28.0677 4.16613V4.19589V4.22564C28.0677 4.22564 28.0677 4.19589 28.038 4.19589V4.13638ZM6.8251 0.804208C6.40857 1.01247 5.93255 1.16123 5.48627 1.28023C5.01025 1.39924 4.56398 1.48849 4.08795 1.51825C3.84994 1.548 3.61193 1.548 3.37391 1.548C3.25491 1.548 3.1359 1.548 3.04665 1.51825H2.95739C2.98714 1.51825 2.98714 1.48849 3.0169 1.48849C3.10615 1.42899 3.22516 1.39924 3.31441 1.33974C3.52267 1.25048 3.76068 1.19098 3.96895 1.10172C4.41522 0.982717 4.89124 0.863711 5.36727 0.774456C5.84329 0.685201 6.31932 0.625698 6.76559 0.595947C6.91435 0.595947 7.06311 0.595947 7.21187 0.566195C7.12261 0.65545 6.97385 0.714953 6.8251 0.804208ZM27.4727 10.9495L25.6281 12.3776L23.7835 13.8354C23.2777 14.2519 22.7719 14.6684 22.2662 15.0552C22.2959 15.0255 22.3257 14.966 22.3554 14.9362C22.5934 14.6089 22.8314 14.3114 23.0694 14.0139C23.5752 13.4189 24.0512 12.7941 24.5868 12.2288C25.1223 11.6635 25.6876 11.0982 26.2529 10.5925C26.5504 10.3247 26.8479 10.0867 27.1752 9.87843C27.2644 9.81893 27.3537 9.75943 27.4429 9.69993C27.7107 9.90819 28.0082 10.1164 28.276 10.3247C28.038 10.533 27.7404 10.7412 27.4727 10.9495ZM5.66478 7.29005L5.81354 7.43881C6.11106 7.73632 6.40857 8.03384 6.64659 8.3611C6.8846 8.68837 7.09286 9.04539 7.18211 9.40241C7.24162 9.69993 7.24162 10.0272 7.09286 10.295L7.06311 10.2057L5.66478 7.29005ZM7.12261 10.3842C7.21186 10.295 7.27137 10.1759 7.33087 10.0272C7.42013 9.81893 7.42013 9.58092 7.39037 9.37266C7.33087 8.92638 7.12261 8.50986 6.85485 8.1826C6.46808 7.67682 5.99205 7.2603 5.45652 6.90328L5.12926 6.21899C4.921 5.77272 4.71273 5.32645 4.47472 4.90992C4.921 4.79092 5.45652 4.61241 6.05155 4.46365C6.58708 5.32645 7.06311 6.21899 7.50938 7.14129C8.01516 8.3016 8.52093 9.52141 8.61019 10.771C8.63994 11.0685 8.61019 11.3958 8.61019 11.723C8.61019 12.0503 8.61019 12.3776 8.63994 12.7048C8.66969 13.1511 8.75895 13.6271 8.8482 14.0734L7.12261 10.3842ZM14.144 34.6317C14.0547 34.7507 13.9952 34.84 13.8762 34.9293C13.7275 35.0483 13.5787 35.1078 13.4002 35.078C13.2514 35.0483 13.1324 34.8995 13.0729 34.7507C13.0134 34.602 12.9539 34.4235 12.9539 34.245C12.9242 33.8879 12.9242 33.5309 13.0134 33.1739C13.0729 32.8169 13.1919 32.4896 13.3407 32.1624C13.4299 32.0136 13.5192 31.8648 13.6382 31.7458C13.7572 31.6268 13.906 31.5376 14.0547 31.5673C14.2035 31.5673 14.3522 31.7161 14.4415 31.8648C14.501 31.9541 14.5307 32.0434 14.5605 32.1326L14.2035 34.245C14.1737 34.3937 14.1737 34.5127 14.144 34.6317ZM15.8993 24.3674C15.7208 25.4088 15.5423 26.4501 15.3638 27.4914C15.334 27.2831 15.2745 27.0748 15.215 26.8666C15.0663 26.3013 14.8878 25.7658 14.7093 25.2302C14.3225 24.1592 13.8762 23.1179 13.3407 22.1361C13.668 23.2369 14.0547 24.2782 14.4415 25.3492C14.6498 25.8848 14.8283 26.4203 15.0068 26.9261C15.096 27.1938 15.1853 27.4616 15.2745 27.7294C15.2745 27.7591 15.3043 27.8186 15.3043 27.8484C15.215 28.3244 15.1258 28.8004 15.0663 29.3062L14.62 32.0136C14.5903 31.9541 14.5903 31.8946 14.5605 31.8351C14.4712 31.6566 14.3522 31.4781 14.1142 31.4186C13.906 31.3591 13.6977 31.4781 13.5192 31.5971C13.3704 31.7161 13.2514 31.8946 13.1324 32.0434C12.9242 32.3706 12.8052 32.7574 12.7457 33.1144C12.6862 33.5012 12.6564 33.8879 12.7457 34.2747C12.7754 34.4532 12.8349 34.6615 12.9539 34.84C13.0432 35.0185 13.2217 35.197 13.4299 35.2268C13.6382 35.2565 13.8465 35.1375 13.9655 34.9888C14.025 34.9292 14.0845 34.84 14.144 34.7805C13.9357 36.1788 13.6977 37.5771 13.4894 39.0052C13.2217 39.0945 12.9539 39.154 12.6862 39.1837C12.3291 39.2432 11.9721 39.273 11.6151 39.3027C10.8713 39.3325 10.1573 39.273 9.41348 39.0945C8.69944 38.9457 7.95565 38.7077 7.27137 38.4102C6.61683 38.1127 5.99205 37.7259 5.51603 37.1904C5.9623 35.554 6.46808 33.9177 6.97385 32.2814L7.74739 29.812L8.49118 27.3128C8.99696 25.6468 9.50274 23.9807 9.97876 22.3146C10.2168 21.4815 10.425 20.6485 10.663 19.8155C10.8416 18.9527 11.1986 18.1494 10.9308 17.1973V17.1676C10.9011 17.1378 10.8713 17.1378 10.8713 17.1676C10.7225 17.3163 10.6333 17.4353 10.5143 17.5841C10.187 16.8403 9.83 16.1263 9.50274 15.3825C9.41348 15.1147 9.32423 14.8469 9.26472 14.5494C9.11597 13.9246 8.99696 13.2999 8.96721 12.6751C8.93746 12.3478 8.93746 12.0503 8.93746 11.723C8.93746 11.3958 8.96721 11.0685 8.93746 10.7412C8.81845 9.43216 8.31267 8.1826 7.74739 7.02228C7.30112 6.09999 6.76559 5.23719 6.17056 4.40415C7.15236 4.13638 8.19367 3.86862 9.02671 3.71986C9.14572 3.98762 9.29447 4.22564 9.41348 4.4934L11.1986 8.00409C11.7936 9.1644 12.3886 10.3247 12.9837 11.485L13.8762 13.2106L14.3225 14.0734C14.4415 14.2519 14.501 14.4602 14.62 14.6089C14.2332 14.966 13.8465 15.323 13.4597 15.68C13.4299 15.7097 13.4002 15.7692 13.4597 15.8287C13.4894 15.8883 13.5787 15.8882 13.6085 15.8585C14.2332 15.4122 14.858 14.9362 15.4828 14.4602L17.3571 13.0321C18.6067 12.0801 19.8265 11.128 21.0463 10.176C22.2662 9.2239 23.486 8.2421 24.7058 7.2603L24.7355 7.23055C25.3901 7.85533 26.3719 8.77763 27.4132 9.58092C26.9669 9.81893 26.5504 10.0569 26.1636 10.3545C25.5388 10.8305 24.9438 11.366 24.4083 11.961C23.8727 12.5561 23.367 13.1511 22.9207 13.8056C22.5934 14.2519 22.2959 14.7279 21.9984 15.2337C20.1835 16.7213 18.3985 18.2386 16.6729 19.8155C16.6134 19.875 16.6134 19.9642 16.6431 20.0237C16.7026 20.0832 16.7919 20.113 16.8514 20.0832C16.6431 20.6783 16.5241 21.2733 16.4051 21.8683C16.2266 22.7014 16.0481 23.5344 15.8993 24.3674ZM29.0495 28.3542C28.633 28.6814 28.1272 28.8897 27.5917 29.0087C27.0562 29.1277 26.4611 29.1277 25.8958 29.0682C25.3603 29.0087 24.795 28.9194 24.2595 28.7707C24.2 28.2947 24.2893 27.7591 24.4975 27.2831C24.7058 27.3128 24.8843 27.3128 25.0926 27.3426C25.1818 27.3426 25.2413 27.3128 25.2711 27.2236C25.3008 27.1343 25.2711 27.0153 25.1521 26.9856C25.0033 26.9261 24.8843 26.8963 24.7355 26.8368C24.8545 26.6286 25.0033 26.4501 25.1521 26.2715C25.3306 26.093 25.5091 25.9145 25.6876 25.7658C26.0744 26.0038 26.4611 26.1823 26.9074 26.331C27.4132 26.4798 27.9487 26.5393 28.514 26.4798C29.0495 26.4203 29.6148 26.1525 29.9718 25.7063C30.2991 25.3195 30.4478 24.8732 30.4776 24.3972C30.5371 24.5757 30.5371 24.784 30.5073 24.9625C30.4776 25.2005 30.4478 25.4683 30.3883 25.7063C30.3586 25.855 30.3288 26.0038 30.2991 26.1525C30.1503 26.2418 30.0016 26.331 29.8528 26.4203C29.6743 26.5393 29.5255 26.6583 29.3768 26.9261C29.6445 27.0153 29.8528 26.9856 30.0611 26.9261C30.0908 26.9261 30.0908 26.8963 30.1206 26.8963C30.0908 26.9856 30.0908 27.0451 30.0611 27.1343C29.823 27.6104 29.466 28.0269 29.0495 28.3542ZM31.9949 24.4567C31.8462 24.784 31.6081 25.0815 31.3404 25.3492C31.2214 25.4683 31.0726 25.5873 30.9536 25.6765C30.9536 25.4087 30.9239 25.141 30.8644 24.8732C30.8346 24.7245 30.8049 24.6055 30.7453 24.4567C30.6858 24.3377 30.6263 24.1889 30.4776 24.0997C30.4478 24.0997 30.4181 24.0997 30.4181 24.1294C30.2396 24.5757 29.9421 24.9625 29.6148 25.2302C29.2875 25.498 28.871 25.617 28.4545 25.6468C28.038 25.6765 27.5917 25.5873 27.1454 25.4683C26.6991 25.3492 26.2529 25.2005 25.8066 25.0517L25.7471 25.022C25.6578 24.9922 25.5388 25.022 25.4793 25.0815C25.2413 25.379 25.0628 25.6468 24.8545 25.9443C24.7058 26.1823 24.5868 26.3906 24.4678 26.6286C23.9322 26.4203 23.4265 26.2418 22.8909 26.0335C22.1471 25.736 21.4034 25.4385 20.7191 25.0815C20.005 24.7542 19.3208 24.3674 18.7257 23.9212C18.1307 23.4749 17.5952 22.9989 17.3274 22.4038V22.3741C17.2679 22.2551 17.1786 22.1658 17.0596 22.1063C17.0596 22.0468 17.0894 21.9576 17.0894 21.8981C17.1786 21.184 17.2976 20.47 17.2381 19.7262C19.648 18.0304 21.9984 16.2453 24.319 14.4007C24.2893 14.4899 24.2595 14.5792 24.2298 14.6684C24.081 15.1147 24.0215 15.6205 24.0215 16.1263C24.0512 16.632 24.2 17.1973 24.5273 17.6733C24.8545 18.1494 25.3008 18.5064 25.7471 18.7146C25.9851 18.8337 26.2231 18.9229 26.4314 18.9824C26.5504 19.0122 26.6694 19.0419 26.7884 19.0717L27.0859 19.1312C27.8594 19.3394 28.6032 19.6369 29.2875 20.0237C29.9718 20.4105 30.6263 20.8865 31.1619 21.422C31.6974 21.9576 32.1139 22.6419 32.1734 23.3261C32.2032 23.8022 32.1437 24.1592 31.9949 24.4567Z" fill="#3F3E29"/>
<path d="M12.24 31.2998C12.002 31.6271 11.8235 32.0138 11.7343 32.4006C11.6747 32.6089 11.645 32.8171 11.645 32.9956L11.6152 33.5907C11.5557 34.3642 11.5855 35.1973 11.8235 35.9708C12.0615 36.7443 12.3888 37.4584 12.7756 38.1427C12.6565 37.7559 12.5078 37.3989 12.3888 37.0419C12.2698 36.6848 12.1508 36.2981 12.0615 35.9113C11.883 35.1675 11.883 34.394 11.9128 33.6204L11.9425 33.0254C11.9425 32.8469 11.9723 32.6386 12.002 32.4601C12.0913 32.1031 12.24 31.7461 12.4185 31.4188C12.6268 31.0915 12.8648 30.794 13.1623 30.5263C13.4301 30.2585 13.7574 30.0205 14.1144 29.842C13.3706 30.1395 12.6863 30.6155 12.24 31.2998Z" fill="#3F3E29"/>
</g>
<defs>
<clipPath id="clip0_202_9500">
<rect width="34" height="40.0009" fill="white"/>
</clipPath>
</defs>
</svg>
