<svg width="36" height="36" viewBox="0 0 36 36" fill="none" xmlns="http://www.w3.org/2000/svg">
<g clip-path="url(#clip0_202_10570)">
<path d="M21.3441 0.383972L35.5847 16.4689L24.6915 34.9703L3.70618 30.3139L1.65845 8.94321L21.3441 0.383972Z" fill="#DC3011" fill-opacity="0.65"/>
<path d="M24.6318 1.47437L35.2169 20.1686L20.7151 36.0009L1.15649 27.0831L3.59672 5.75368L24.6318 1.47437Z" fill="#DC3011" fill-opacity="0.65"/>
<path d="M17.902 0.000915527L35.1756 12.7736L28.3671 33.1355L6.87221 32.9439L0.426025 12.466L17.902 0.000915527Z" fill="#DC3011"/>
<path d="M18.0065 10.8862C21.9329 10.8862 25.1158 14.0691 25.1158 17.9955C25.1158 21.9218 21.9329 25.1048 18.0065 25.1048C14.0802 25.1048 10.8972 21.9218 10.8972 17.9955C10.8972 14.0691 14.0802 10.8862 18.0065 10.8862ZM18.0065 12.4134C14.9236 12.4134 12.4244 14.9126 12.4244 17.9955C12.4244 21.0784 14.9236 23.5776 18.0065 23.5776C21.0894 23.5776 23.5886 21.0784 23.5886 17.9955C23.5886 14.9126 21.0894 12.4134 18.0065 12.4134ZM20.5034 15.7542L21.4215 16.9928L18.0065 21.2388L14.6014 16.9928L15.5133 15.7542H20.5034Z" fill="white"/>
</g>
<defs>
<clipPath id="clip0_202_10570">
<rect width="36" height="36.0009" fill="white"/>
</clipPath>
</defs>
</svg>
