<svg width="37" height="36" viewBox="0 0 37 36" fill="none" xmlns="http://www.w3.org/2000/svg">
<g clip-path="url(#clip0_202_15624)">
<circle cx="18.0054" cy="18" r="18" fill="#0F9D58"/>
<path fill-rule="evenodd" clip-rule="evenodd" d="M18.0008 6.42857C24.3885 6.42857 29.5768 11.6078 29.5768 17.9954C29.5768 23.9143 25.0292 29.8642 18.0008 33.4286V28.9286C11.9495 28.9286 6.43396 24.0467 6.43396 17.9954C6.43396 11.6078 11.6132 6.42857 18.0008 6.42857ZM11.5768 19.2857V14.1429H16.7197V19.2857C16.7197 20.8286 15.4763 21.8571 14.1482 21.8571V19.2857H11.5768ZM19.2911 19.2857V14.1429H24.434V19.2857C24.434 20.8286 23.1905 21.8571 21.8625 21.8571V19.2857H19.2911Z" fill="white"/>
</g>
<defs>
<clipPath id="clip0_202_15624">
<rect width="37" height="36" fill="white"/>
</clipPath>
</defs>
</svg>
