<svg width="37" height="37" viewBox="0 0 37 37" fill="none" xmlns="http://www.w3.org/2000/svg">
<g clip-path="url(#clip0_202_13251)">
<path fill-rule="evenodd" clip-rule="evenodd" d="M2.476 12.0324C-0.822402 15.3308 -0.822402 20.678 2.476 23.9761L12.0305 33.5308C15.3289 36.8289 20.676 36.8289 23.9741 33.5308L33.5289 23.9761C36.827 20.6777 36.827 15.3305 33.5289 12.0324L23.9741 2.47796C20.6757 -0.820127 15.3285 -0.820127 12.0305 2.47796L2.476 12.0324ZM22.1824 22.1846C24.4913 19.8758 24.4913 16.1327 22.1824 13.8241C19.8738 11.5153 16.1307 11.5153 13.8222 13.8241C11.5133 16.133 11.5133 19.8758 13.8222 22.1846C16.1311 24.4932 19.8738 24.4932 22.1827 22.1846H22.1824Z" fill="#2962FF"/>
</g>
<defs>
<clipPath id="clip0_202_13251">
<rect width="37" height="37" fill="white"/>
</clipPath>
</defs>
</svg>
