<svg width="32" height="37" viewBox="0 0 32 37" fill="none" xmlns="http://www.w3.org/2000/svg">
<g clip-path="url(#clip0_202_16015)">
<path d="M16.0048 33.6204C22.7791 33.6204 28.2707 28.1288 28.2707 21.3546C28.2707 14.5803 22.7791 9.08875 16.0048 9.08875C9.23061 9.08875 3.73901 14.5803 3.73901 21.3546C3.73901 28.1288 9.23061 33.6204 16.0048 33.6204Z" fill="#FFC627"/>
<path d="M20.8877 25.043L16.3001 16.0926C15.8959 15.304 14.9272 14.9915 14.1364 15.396C13.3477 15.8012 13.0351 16.7696 13.4393 17.5585L15.3549 21.2931L11.9263 24.7122C11.2971 25.3399 11.2971 26.357 11.9228 26.9858C12.237 27.2998 12.6485 27.4579 13.06 27.4579C13.4716 27.4579 13.8814 27.2998 14.1953 26.9886L16.8931 24.2969L18.0275 26.5091C18.3125 27.0646 18.8735 27.384 19.4595 27.384C19.7052 27.384 19.9553 27.3269 20.1905 27.2065C20.9797 26.8022 21.2921 25.8338 20.8877 25.043Z" fill="#232323"/>
<path d="M27.0584 0.115312C26.1436 0.696399 27.6886 5.99614 24.0223 9.12208C21.7086 7.6215 18.951 6.74186 15.9863 6.74186C13.0306 6.74186 10.2805 7.61821 7.97027 9.10875C4.32583 5.98236 5.8636 0.696399 4.95271 0.115312C3.45888 -0.837436 0.650583 4.63503 0.86664 8.11121C0.983049 9.96997 1.47752 12.6932 2.82807 14.8031C1.82116 16.7826 1.24138 19.0086 1.24138 21.3716C1.24138 29.4406 7.85553 36.0056 15.9865 36.0056C24.119 36.0056 30.7317 29.4409 30.7317 21.3716C30.7317 19.0226 30.157 16.8077 29.1613 14.8381C30.5281 12.7222 31.0264 9.9794 31.143 8.11121C31.3602 4.63503 28.5503 -0.837586 27.0584 0.115312ZM15.9863 32.7775C9.64997 32.7775 4.49131 27.6628 4.49131 21.3715C4.49131 15.0832 9.64997 9.96637 15.9863 9.96637C22.3264 9.96637 27.4819 15.0832 27.4819 21.3715C27.4819 27.6631 22.3264 32.7775 15.9863 32.7775Z" fill="#232323"/>
</g>
<defs>
<clipPath id="clip0_202_16015">
<rect width="32" height="37" fill="white"/>
</clipPath>
</defs>
</svg>
