<svg width="37" height="36" viewBox="0 0 37 36" fill="none" xmlns="http://www.w3.org/2000/svg">
<g clip-path="url(#clip0_202_14738)">
<path d="M18.0044 4.50049L7.75211 3.36509L0.00415039 0.000407696H9.00398L18.0044 4.5011" fill="#FBC707"/>
<path d="M18.0044 4.50049L28.4915 3.59986L36.0047 0.000407696H27.0042L18.0044 4.5011" fill="#FBC707"/>
<path d="M18.0044 31.5003L27.7872 31.8525L36.0047 36.0004H27.0042L18.0044 31.4995" fill="#F68712"/>
<path d="M18.0044 31.5003H8.14342L0.00415039 36.0004H9.00398L18.0044 31.4995" fill="#F25C19"/>
<path d="M4.50406 18.0005V27.4698L0.00415039 36.0004V27.0005L4.50406 18.0003" fill="#FFF200"/>
<path d="M4.50406 18.0005L3.76072 8.60863L0.00415039 0.000404358V9.00017L4.50406 18.0003" fill="#FFF200"/>
<path d="M31.504 18.0005L32.4829 8.13907L36.0047 0.000404358V9.00017L31.504 18.0003" fill="#F1471D"/>
<path d="M31.504 18.0005L32.3264 28.5655L36.0047 36.0004V27.0005L31.504 18.0003" fill="#F1471D"/>
<path d="M0.00415039 0.000404358L18.0044 4.50049L15.1088 15.9653L4.50406 18.0005L0.00415039 0.00135422" fill="#FAB20B"/>
<path d="M36.0047 0.000404358L31.504 18.0005L19.4131 15.8082L18.0044 4.49994L36.0047 0.00135422" fill="#F47216"/>
<path d="M36.0047 36.0004L18.0044 31.5003L20.0392 19.5662L31.504 18.0014L36.0047 35.9993" fill="#F25C19"/>
<path d="M0.00415039 36.0004L4.50406 18.0005L15.3435 20.4262L18.0044 31.5003L0.00415039 35.9993" fill="#F89C0E"/>
<path d="M18.0044 4.50047L4.50403 18.0005L18.0044 31.5003L31.504 18.0005L18.0044 4.50108" fill="#F68712"/>
</g>
<defs>
<clipPath id="clip0_202_14738">
<rect width="37" height="36.0004" fill="white"/>
</clipPath>
</defs>
</svg>
