<svg width="37" height="30" viewBox="0 0 37 30" fill="none" xmlns="http://www.w3.org/2000/svg">
<g clip-path="url(#clip0_202_15272)">
<path d="M20.6493 17.7402C19.7242 17.759 18.7983 17.746 17.8727 17.746V17.7827C16.9979 17.7827 16.1229 17.7853 15.2481 17.782C14.3188 17.7783 13.597 18.1933 13.0348 18.9001C12.2238 19.9197 11.5873 21.098 10.3536 21.7247C10.2172 21.794 10.1077 22.0638 10.1225 22.2285C10.1313 22.3292 10.3909 22.4417 10.5553 22.4894C12.0189 22.9142 13.5055 22.9758 14.9959 22.6756C17.1067 22.2505 19.0098 21.417 20.381 19.6751C20.6953 19.2757 20.9115 18.7832 21.0982 18.3044C21.2301 17.9663 21.0848 17.7313 20.6493 17.7402ZM3.29583 15.0803C3.07729 14.7796 2.83964 14.4601 2.61 14.1349C2.42944 13.8791 2.25928 13.8211 1.99898 14.0622C0.904502 15.0752 0.512863 17.6411 1.25002 18.9248C1.9343 17.6391 2.62715 16.3369 3.29583 15.0803ZM32.69 15.628C32.1593 15.5238 32.1083 15.304 31.8778 15.0184C30.6739 13.5262 29.7797 12.1431 28.2002 10.598C25.6582 7.94696 22.499 6.57657 18.8122 6.37238C16.8118 6.26171 14.8397 6.43144 12.8749 6.73041C11.93 6.87413 11.3104 6.50584 10.8536 5.74759C10.681 5.46128 10.4971 5.15809 10.4259 4.83873C10.1632 3.65959 9.93472 2.47244 9.71661 1.28402C9.63772 0.85427 9.51566 0.754145 9.11614 0.930488C8.45858 1.22088 8.02321 1.73781 7.82675 2.40564C7.65758 2.98094 7.50613 3.59111 7.51527 4.18314C7.53636 5.54509 7.64 6.9069 7.75011 8.26547C7.81128 9.02147 7.70441 9.67692 7.181 10.2795C6.58588 10.9648 6.07373 11.7219 5.52121 12.4447C3.52504 15.0564 1.86328 17.8542 0.785393 20.9747C0.237379 22.5607 -0.18337 24.1663 0.0907073 25.8734C0.183801 26.453 0.23091 27.04 0.299957 27.6236C0.382925 28.3256 1.3455 29.1691 2.05228 29.1572C2.86354 29.1439 3.56667 28.8062 4.18007 28.327C5.26316 27.4809 6.45918 26.844 7.6836 26.2393C9.14145 25.5193 10.4805 24.6207 11.6108 23.4365C11.6941 23.3492 11.7603 23.2457 11.8455 23.1354C11.2687 22.9962 10.7384 22.8937 10.2244 22.7376C9.66415 22.5674 9.55306 22.1481 9.93064 21.6929C10.0571 21.5404 10.2373 21.4337 10.3863 21.2986C10.8195 20.9055 11.2806 20.5368 11.6716 20.1051C12.0427 19.6952 12.3262 19.2075 12.671 18.7721C13.2897 17.9907 14.0944 17.5501 15.1044 17.5302C15.7107 17.5184 16.3178 17.5087 16.924 17.5225C17.4034 17.5333 17.7866 17.3794 18.1637 17.0704C19.087 16.3138 19.8742 15.5563 20.8631 14.8913C22.4313 14.0145 23.6078 13.639 25.1157 13.7905C27.8239 14.0626 29.8448 15.4961 31.4817 17.5715C31.542 17.6478 31.5932 17.7544 31.5821 17.8641C31.5709 17.9738 31.4129 17.921 31.4129 17.921C31.4129 17.921 30.0978 16.545 29.481 15.9014C29.1419 16.373 28.9655 16.6961 28.6855 17.0389C28.3033 17.5069 27.8341 17.9135 27.5063 18.4142C26.9741 19.2272 27.2008 20.4401 27.9205 20.9116C27.9818 20.8174 28.0829 20.7289 28.0972 20.6281C28.1528 20.2383 28.1844 19.9444 28.6468 19.9143C28.8566 19.9006 28.7067 19.6561 29.1047 19.6347C29.2288 19.6443 29.2193 19.7494 29.3435 19.7399C29.4439 19.7255 29.4884 19.5527 29.5967 19.5057C29.8117 19.4125 30.0976 19.424 30.3093 19.4328C30.7016 19.4489 30.8891 19.2428 30.9401 18.9912C30.9739 18.8254 30.9892 18.695 31.0705 18.4039C31.2583 19.1542 31.7466 19.3806 32.3524 19.3752C32.6389 19.3727 32.9335 19.3131 33.2096 19.3624C33.8825 19.4053 34.0016 19.5562 34.3808 19.7004C34.9653 19.9223 35.4965 20.1899 35.6983 20.8818C35.758 20.8631 35.875 20.8483 35.9372 20.7289C35.9992 20.6094 35.9978 20.4474 36.0027 20.2439C36.0583 17.9444 34.8971 16.3151 32.69 15.628ZM8.94205 19.2197C9.47361 19.2111 9.55377 19.3331 9.33017 19.7961C9.28025 19.8994 9.23033 20.0124 9.22147 20.1242C9.15059 21.0214 8.70973 21.6632 7.93138 22.1073C7.53791 22.3317 7.19324 22.6422 6.79738 22.8615C6.58026 22.9817 6.24219 23.1102 6.06965 23.0208C5.97669 22.9727 5.92424 22.8461 5.88065 22.7024C5.79726 22.4261 5.77602 22.1304 5.84155 21.8493C6.17062 20.4384 7.51457 19.2431 8.94205 19.2197ZM5.74044 24.0206C5.74607 23.9008 6.29844 23.4255 6.43836 23.448C6.57815 23.4704 6.57027 23.5694 6.57083 23.7132C6.5714 23.857 6.0179 24.3528 5.75141 24.1871C5.68926 24.1338 5.72484 24.0438 5.74044 24.0206ZM10.9707 23.5408C10.2683 24.1907 9.4843 24.7111 8.72211 25.1916C8.12656 25.5669 7.47716 25.8561 6.87233 26.218C5.95138 26.7691 5.04716 27.3484 4.1376 27.9188C3.45993 28.3439 2.80111 28.8158 1.92909 28.7936C1.94273 28.7212 1.94091 28.67 1.95511 28.6649C2.8724 28.343 3.54895 27.7348 4.17501 26.9979C4.55301 26.5532 5.11945 26.2457 5.64384 25.953C6.74099 25.3405 7.62988 24.5322 8.30713 23.47C8.79045 22.712 8.8093 22.7422 9.61044 23.0922C10.0226 23.2724 10.376 23.3364 10.9707 23.5408ZM23.881 12.7884C24.9325 12.7666 25.414 12.8888 26.1596 13.0632C26.7502 13.2063 27.1629 13.6013 27.4042 13.9207C26.4637 13.633 25.988 13.4781 25.0571 13.3952C23.0563 13.1563 21.2999 13.7809 19.7596 15.0395C19.1082 15.5718 18.4623 16.1184 17.8752 16.7184C17.5282 17.0731 17.5213 17.1659 16.6871 17.1132C17.4248 15.9717 18.0974 14.8155 18.7562 13.6702C20.8871 9.96605 26.2423 10.6004 28.0825 12.7484C28.1576 12.8362 28.2716 13.0688 28.2716 13.0688C28.2716 13.0688 26.5301 12.1372 25.2493 12.1372C24.4778 12.1372 24.2845 12.1941 23.8076 12.2761C23.6818 12.2977 23.4714 12.4067 23.4731 12.5909C23.4749 12.7753 23.7386 12.7681 23.881 12.7884ZM35.1131 19.5253C34.554 18.6595 33.7091 18.8469 32.9181 18.8434C32.6824 18.8423 32.4466 18.8558 32.2108 18.8644C31.8127 18.8787 31.4769 18.7856 31.3032 18.376C31.2585 18.2706 31.1464 18.1077 31.0533 18.0911C30.9625 18.1159 30.9322 18.1752 30.9161 18.2096C30.557 18.9732 29.8605 19.0939 29.1374 19.1092C28.7192 19.118 28.3767 19.176 28.1709 19.5912C28.1311 19.6718 27.9276 19.7644 27.8925 19.7359C27.8033 19.6642 27.6939 19.5019 27.7219 19.4202C27.8286 19.1092 27.9418 18.7828 28.1341 18.5219C28.6216 17.8603 29.1532 17.231 29.7123 16.5324C29.9758 16.8101 30.265 17.122 30.5621 17.4259C30.7968 17.666 31.0162 17.9345 31.2917 18.1155C31.4369 18.211 31.7511 18.2256 31.8713 18.1296C31.9751 18.0468 31.988 17.7147 31.9075 17.5647C31.7429 17.258 31.4829 17.0037 31.2731 16.72C31.1165 16.5082 30.977 16.2839 30.7905 16.0067C32.6736 15.6706 35.4703 17.9572 35.1131 19.5253Z" fill="black"/>
</g>
<defs>
<clipPath id="clip0_202_15272">
<rect width="37" height="30" fill="white"/>
</clipPath>
</defs>
</svg>
