<svg width="37" height="30" viewBox="0 0 37 30" fill="none" xmlns="http://www.w3.org/2000/svg">
<g clip-path="url(#clip0_202_8338)">
<path d="M17.4147 29.1126L2.75078 14.4487C-5.43195 6.26597 6.55115 -4.81354 14.2983 2.92879L17.1399 5.84357C17.3274 6.11583 17.5783 6.33843 17.871 6.4922C18.1636 6.64598 18.4892 6.72632 18.8198 6.72632C19.1504 6.72632 19.4761 6.64598 19.7687 6.4922C20.0614 6.33843 20.3123 6.11583 20.4998 5.84357L23.8322 2.5556C23.9807 2.3565 24.1686 2.1901 24.3842 2.06675C24.5998 1.94341 24.8384 1.86577 25.0853 1.83867C25.3322 1.81156 25.582 1.83557 25.8192 1.9092C26.0565 1.98284 26.276 2.10451 26.4641 2.26665C26.6523 2.4288 26.805 2.62793 26.9129 2.85167C27.0207 3.07541 27.0814 3.31895 27.091 3.56714C27.1007 3.81533 27.0591 4.06285 26.969 4.29428C26.8788 4.52572 26.742 4.73612 26.567 4.91238L18.635 12.9043C17.1867 14.3527 19.0982 16.0819 20.4698 14.7115L22.523 12.7123C22.6763 12.5122 22.87 12.3466 23.0916 12.2264C23.3131 12.1061 23.5576 12.034 23.8089 12.0147C24.0603 11.9953 24.3128 12.0292 24.5502 12.1141C24.7876 12.199 25.0044 12.3329 25.1864 12.5073C25.3685 12.6816 25.5118 12.8924 25.6068 13.1259C25.7019 13.3593 25.7467 13.6102 25.7383 13.8622C25.7298 14.1141 25.6684 14.3615 25.5579 14.588C25.4474 14.8146 25.2903 15.0153 25.097 15.1771L18.9146 21.4026C17.3703 22.947 19.097 24.8442 20.6726 23.2674L29.4098 14.7115C31.5025 12.6187 33.7849 15.3715 31.9993 17.1571L20.2166 29.1174C19.8447 29.4891 19.3403 29.6979 18.8144 29.6979C18.2886 29.6979 17.7842 29.4891 17.4123 29.1174L17.4147 29.1126ZM32.2597 11.9635C32.2597 11.593 32.3696 11.2309 32.5754 10.9228C32.7812 10.6148 33.0738 10.3747 33.4161 10.2329C33.7584 10.0911 34.135 10.0541 34.4984 10.1263C34.8617 10.1986 35.1955 10.377 35.4575 10.639C35.7194 10.9009 35.8978 11.2347 35.9701 11.5981C36.0424 11.9614 36.0053 12.3381 35.8635 12.6804C35.7217 13.0226 35.4816 13.3152 35.1736 13.521C34.8656 13.7268 34.5034 13.8367 34.1329 13.8367C33.6361 13.8367 33.1597 13.6393 32.8084 13.2881C32.4571 12.9368 32.2597 12.4603 32.2597 11.9635ZM26.5826 8.75595C28.4906 6.84796 30.5113 4.79598 32.5381 2.768C34.5649 0.740013 37.0297 3.20119 35.1073 5.12358C33.1849 7.04596 29.0198 11.1475 29.0198 11.1475C28.8354 11.3469 28.613 11.5074 28.3657 11.6197C28.1185 11.7321 27.8512 11.7938 27.5798 11.8015C27.2231 11.8048 26.8746 11.6945 26.5848 11.4865C26.295 11.2785 26.079 10.9837 25.9679 10.6447C25.8568 10.3058 25.8565 9.94026 25.967 9.60111C26.0775 9.26197 26.2931 8.9668 26.5826 8.75835V8.75595Z" fill="#1B41E9"/>
</g>
<defs>
<clipPath id="clip0_202_8338">
<rect width="37" height="30" fill="white"/>
</clipPath>
</defs>
</svg>
