<svg width="34" height="41" viewBox="0 0 34 41" fill="none" xmlns="http://www.w3.org/2000/svg">
<g clip-path="url(#clip0_202_14990)">
<path d="M2.83113 23.4098L14.5349 11.706C16.0521 10.2129 16.9913 8.11779 16.9913 5.83001C16.9913 3.56632 16.0762 1.49527 14.6072 0.00219727L2.90337 11.706C1.38621 13.1991 0.447021 15.2942 0.447021 17.582C0.447021 19.8697 1.36213 21.9167 2.83113 23.4098ZM31.1755 16.5705L19.4717 28.2743C17.9545 29.7674 17.0154 31.8625 17.0154 34.1503C17.0154 36.414 17.9305 38.485 19.3995 39.9781L31.1033 28.2743C32.6204 26.7812 33.5596 24.6861 33.5596 22.3983C33.5596 20.1106 32.6445 18.0636 31.1755 16.5705ZM31.1033 11.7301C32.6204 10.237 33.5596 8.14187 33.5596 5.85409C33.5596 3.5904 32.6445 1.51936 31.1755 0.0262791L2.90337 28.2743C1.38621 29.7915 0.447021 31.8625 0.447021 34.1744C0.447021 36.4381 1.36213 38.5091 2.83113 40.0022L31.1033 11.7301Z" fill="#1292EE"/>
</g>
<defs>
<clipPath id="clip0_202_14990">
<rect width="34" height="41" fill="white"/>
</clipPath>
</defs>
</svg>
