<svg width="34" height="41" viewBox="0 0 34 41" fill="none" xmlns="http://www.w3.org/2000/svg">
<g clip-path="url(#clip0_202_15276)">
<path d="M13.7881 0.0030645C6.88875 0.0030645 1.88115 5.01067 1.88115 11.91C1.88115 17.1522 4.77628 21.2957 9.19175 22.9866L0.321386 37.9205C0.0683694 38.3459 0.0633591 38.8754 0.308333 39.3061C0.553308 39.7369 1.01109 40.0026 1.50644 40.0026H13.7881C14.5495 40.0026 15.1666 39.3851 15.1666 38.6241V22.4382V17.9475V1.38154C15.1666 0.619983 14.5495 0.0030645 13.7881 0.0030645ZM33.7326 38.0019L25.8992 22.5093C29.6992 20.5904 32.1279 16.7109 32.1279 11.9095C32.1279 5.01096 27.1206 0.00256348 20.2209 0.00256348C19.46 0.00256348 18.8425 0.620141 18.8425 1.38104C18.8425 2.14286 19.46 2.75951 20.2209 2.75951C25.6079 2.75951 29.3711 6.5226 29.3711 11.9095C29.3711 17.2975 25.6079 21.0597 20.2209 21.0597C19.46 21.0597 18.8425 21.6772 18.8425 22.4381C18.8425 23.199 19.46 23.8166 20.2209 23.8166C21.2947 23.8166 22.3156 23.6821 23.2859 23.4513L31.2717 39.2462C31.5152 39.7258 31.9995 40.0025 32.503 40.0025C32.7126 40.0025 32.9249 39.9547 33.1243 39.8545C33.8034 39.5109 34.0763 38.682 33.7326 38.0019Z" fill="#283174"/>
</g>
<defs>
<clipPath id="clip0_202_15276">
<rect width="34" height="41" fill="white"/>
</clipPath>
</defs>
</svg>
