<svg width="34" height="37" viewBox="0 0 34 37" fill="none" xmlns="http://www.w3.org/2000/svg">
<g clip-path="url(#clip0_202_14099)">
<path d="M29.9649 0.00561523C31.7362 0.00561523 33.1759 1.4271 33.2045 3.19203L33.2049 3.24562V32.7656C33.2049 34.5369 31.783 35.9766 30.0185 36.0052L29.9649 36.0056H4.04493C2.27362 36.0056 0.833981 34.5837 0.805366 32.8192L0.804932 32.7656V3.24562C0.804932 1.47386 2.22686 0.0346562 3.99136 0.00604923L4.04493 0.00561523H29.9649ZM29.9649 1.80562H4.04493C3.26353 1.80562 2.62516 2.43178 2.6054 3.20852L2.60493 3.24562V32.7656C2.60493 33.547 3.2311 34.1854 4.00783 34.2051L4.04493 34.2056H29.9649C30.7468 34.2056 31.3847 33.5794 31.4045 32.8027L31.4049 32.7656V3.24562C31.4049 2.45182 30.7592 1.80562 29.9649 1.80562ZM8.90493 23.4056L12.9549 27.0056L8.90493 30.6056V23.4056ZM12.5049 5.40561V15.6256C14.3022 15.0406 16.8146 14.4056 19.2549 14.4056C21.4802 14.4056 22.8122 15.2804 23.5376 16.0144C25.0701 17.5647 25.1066 19.5354 25.1046 19.7982L25.1045 19.8056L25.1049 30.6056H21.5049V19.8551C21.4874 19.015 21.0824 18.0056 19.2549 18.0056C15.6312 18.0056 11.5709 19.8099 11.4503 19.8639L11.4479 19.865L8.90493 21.017V5.40561H12.5049ZM25.1049 5.40561C24.8619 7.45041 24.033 9.41061 22.4049 11.2556H18.8049C20.2197 9.39936 21.108 7.44591 21.5049 5.40561H25.1049Z" fill="#430098"/>
</g>
<defs>
<clipPath id="clip0_202_14099">
<rect width="34" height="37" fill="white"/>
</clipPath>
</defs>
</svg>
