<svg width="32" height="36" viewBox="0 0 32 36" fill="none" xmlns="http://www.w3.org/2000/svg">
<g clip-path="url(#clip0_202_10595)">
<path d="M15.9843 0.000915527L0.405273 9.01702L0.407179 27.0218L16.0217 36.0009L31.6007 26.9847L31.6009 8.98981L15.9843 0.000915527H15.9843Z" fill="#0E83CD"/>
<path d="M8.67578 25.798L8.67696 18.0123L8.67813 10.2266L10.0926 9.39935L11.4476 10.2011L11.4622 13.3827L11.4768 16.5642H16.0037H20.5305L20.5452 13.3848L20.5598 10.2053L21.9357 9.41025L23.3306 10.2266L23.3299 18.0071L23.3292 25.7877L21.9483 26.559L20.5597 25.7777L20.5451 22.6139L20.5305 19.4501H16.0036H11.4767L11.4621 22.613L11.4663 25.7918L10.0778 26.6061L8.67578 25.798Z" fill="white"/>
</g>
<defs>
<clipPath id="clip0_202_10595">
<rect width="32" height="36.0009" fill="white"/>
</clipPath>
</defs>
</svg>
