<svg width="37" height="36" viewBox="0 0 37 36" fill="none" xmlns="http://www.w3.org/2000/svg">
<g clip-path="url(#clip0_202_15658)">
<path d="M25.0205 17.7018L24.7673 17.2657L16.2843 14.4943L16.0451 14.7756L15.6794 14.86L8.13892 32.4732L8.23739 33.0077L26.3992 25.3407L26.5539 25.0312L25.2878 17.9972L25.0205 17.7018Z" fill="#78758C"/>
<path d="M8.23734 33.0085L16.0451 14.7764L0.00756836 9.54309L8.23734 33.0085Z" fill="#A3EDBA"/>
<path d="M21.9959 0.904419L16.0451 14.7755L25.0205 17.7016L25.0627 17.5891L22.0521 1.03103L21.9959 0.904419Z" fill="#8087E8"/>
<path d="M25.0205 17.7014L26.3992 25.3403L27.0322 25.3262L35.6278 21.5982L36.0076 21.2746L35.5574 20.8948L25.4425 17.4904L25.0205 17.7014Z" fill="#30426B"/>
<path d="M26.3992 25.3412L28.1577 35.1044L36.0076 21.2755L26.3992 25.3412Z" fill="#6699A1"/>
<path d="M21.9958 0.904419L25.0205 17.7016L36.0076 21.2749L21.9958 0.904419Z" fill="#6699A1"/>
</g>
<defs>
<clipPath id="clip0_202_15658">
<rect width="37" height="36" fill="white"/>
</clipPath>
</defs>
</svg>
