<svg width="26" height="41" viewBox="0 0 26 41" fill="none" xmlns="http://www.w3.org/2000/svg">
<g clip-path="url(#clip0_202_9711)">
<path d="M19.878 13.3141C19.9881 10.4454 19.2636 9.28743 18.7198 8.45955C18.1679 7.68709 16.8442 6.47339 15.2176 6.42252C13.6794 6.37459 13.3094 7.22469 11.8903 7.2761C11.6576 4.69179 13.6079 3.2738 13.6079 3.2738C13.6079 3.2738 13.0746 2.52009 12.6333 2.33614C12.1257 2.7873 10.9085 4.0832 10.6482 5.82303C10.3741 3.26041 9.09288 1.62152 6.2526 0.479309C5.44588 3.30138 8.10944 5.9379 9.8399 6.97917C8.92259 6.67099 8.12657 6.26374 7.05746 6.47419C5.18884 6.84208 3.64848 7.97171 2.77054 10.4508C1.89286 12.9299 3.08059 15.8221 3.3387 16.6481C3.59707 17.4749 5.50799 20.9864 7.00578 21.5029C8.5033 22.0199 8.50383 21.787 9.3044 21.4775C10.105 21.1677 11.3184 20.5993 13.1008 21.2453C14.8819 21.8906 15.1143 22.0454 16.2244 21.3224C17.3355 20.5995 18.7811 18.3531 19.1166 17.7073C19.4523 17.062 19.6331 16.726 19.7369 16.3905C19.866 15.4079 19.779 15.8853 19.878 13.3141Z" fill="#D1D2D3"/>
<path d="M19.9853 17.284V18.6867C19.9853 19.0153 20.2518 19.2817 20.5803 19.2817H22.7876C23.4974 19.2817 24.1786 19.5639 24.6806 20.0659C25.1829 20.5682 25.4651 21.2491 25.4651 21.9591L25.4649 28.4286C25.4649 28.5006 25.4649 28.5724 25.4649 28.6439L25.4648 30.1009C25.4648 30.1677 25.4648 30.234 25.4648 30.2998L25.4646 31.0653C25.4646 31.1269 25.4646 31.188 25.4646 31.2484L25.4645 31.6032C25.4645 32.3149 25.1815 32.9973 24.6771 33.4996C24.1729 34.0019 23.4894 34.2828 22.7777 34.2804C22.0317 34.2823 21.2472 34.2809 20.5929 34.2718C20.4328 34.2686 20.2783 34.3297 20.1639 34.4418C20.0499 34.5538 19.9853 34.7069 19.9853 34.8665L19.9853 35.5746C19.9853 35.6033 19.9853 35.6321 19.9853 35.6611L19.9852 36.0132C19.9851 36.0427 19.9851 36.0723 19.9851 36.1018L19.985 36.2784C19.9847 36.7765 19.984 37.2482 19.9827 37.5327C19.9827 37.7089 19.9042 37.876 19.7687 37.9884C19.0868 38.5036 16.7044 39.6453 11.3756 39.6453C6.15694 39.6453 3.6717 38.7928 2.8963 38.3437C2.72521 38.2348 2.62159 38.0457 2.62106 37.8433C2.6187 36.6864 2.60992 32.5673 2.60082 28.3167L2.59958 27.7365C2.58901 22.8026 2.5784 17.8649 2.57725 17.3315L2.57715 17.284H19.9853ZM22.6241 21.6652H20.7289C20.545 21.6652 20.3678 21.7338 20.2318 21.8562L20.2033 21.8832C20.0731 22.0136 19.9961 22.1868 19.9864 22.3699L19.9854 22.4093V31.0643C19.9854 31.2482 20.0537 31.4254 20.1763 31.5616L20.2033 31.5901C20.3333 31.7203 20.5069 31.7971 20.6896 31.8068L20.7289 31.8078H22.6241C22.808 31.8078 22.9851 31.7397 23.1214 31.6172L23.1499 31.5901C23.2799 31.4599 23.3569 31.2864 23.3666 31.1036L23.3676 31.0643V22.4093C23.3676 22.2249 23.2993 22.0482 23.1769 21.9118L23.1499 21.8832C23.0197 21.7532 22.8461 21.676 22.6634 21.6663L22.6241 21.6652Z" fill="#FEFEFE"/>
<path d="M4.29297 17.1121V35.5549C4.29297 35.7678 4.40649 35.9643 4.59097 36.0706C5.34361 36.4294 7.52764 37.2859 11.3567 37.2859C15.2109 37.2859 17.3299 36.2452 18.0397 35.8162C18.2092 35.7072 18.3112 35.5193 18.3112 35.3179C18.3128 32.8723 18.3128 17.1121 18.3128 17.1121H4.29297Z" fill="#FAAF41"/>
<path d="M6.35401 19.4109C6.79338 19.4109 7.1527 19.7545 7.17787 20.1877L7.17921 20.2361V34.4887C7.17921 34.9444 6.80972 35.3139 6.35401 35.3139C5.91437 35.3139 5.55532 34.9703 5.53015 34.5374L5.52881 34.4887V20.2361C5.52881 19.7804 5.8983 19.4109 6.35401 19.4109Z" fill="#FFDA95"/>
<path d="M14.2752 20.8969C14.2752 20.5995 14.1001 20.2442 13.8125 20.0658C13.3445 19.7828 12.979 19.3485 12.7801 18.8313C8.97326 18.9592 5.49896 18.2909 3.74842 17.8189C3.29914 17.6914 2.84397 17.5857 2.38424 17.5021C1.33681 17.2941 0.540527 16.3741 0.540527 15.2681C0.540527 14.0506 1.50656 13.0613 2.71331 13.0179C2.94598 11.7303 4.06999 10.7527 5.42479 10.7527C6.94828 10.7527 8.1834 11.9879 8.1834 13.5114C8.1834 13.8319 8.12557 14.1387 8.02517 14.4252L8.0332 14.4265C8.37351 13.3625 9.36953 12.5914 10.5466 12.5914C11.7158 12.5914 12.7067 13.3534 13.0527 14.4075C13.0425 14.3125 13.0374 14.2158 13.0374 14.1178C13.0374 12.5333 14.3218 11.2492 15.9061 11.2492C17.1886 11.2492 18.274 12.091 18.6414 13.2516L18.8912 13.1863C19.2184 13.0021 19.5946 12.8955 19.9967 12.8955C21.2418 12.8955 22.2509 13.9049 22.2504 15.1494C22.2504 16.2898 21.404 17.232 20.3052 17.3825C20.0562 17.4175 19.8123 17.481 19.5774 17.5715C18.9241 17.8176 18.2564 18.0216 17.5819 18.19C17.5482 18.5225 17.4491 18.8358 17.2978 19.1169C17.0242 19.6305 16.9016 20.211 16.9439 20.7912C16.9436 20.8262 16.9449 21.0105 16.9449 21.0458C16.9449 21.7829 16.3473 22.2314 15.6094 22.2314C14.8728 22.2314 14.2752 21.6343 14.2752 20.8969Z" fill="#FEFEFE"/>
<path d="M13.7393 17.6404L13.7551 17.6886L13.75 17.6404H13.7393Z" fill="#010202"/>
<path d="M6.01885 0.00177002L6.38567 0.149032C8.74319 1.09713 10.1157 2.39919 10.7109 4.31894C11.0873 3.48464 11.659 2.74271 12.3233 2.13653L12.5642 1.92153L12.7709 2.00747C12.8601 2.04496 12.949 2.0961 13.0389 2.16009C13.1787 2.25942 13.3204 2.38848 13.4639 2.54083C13.5728 2.65623 13.6767 2.77886 13.7728 2.90122L13.8259 2.96949L13.885 3.04901L14.1022 3.35559L13.8176 3.56256L13.7787 3.59254L13.7252 3.63645L13.6593 3.69456L13.5819 3.76604C13.394 3.94436 13.2052 4.15722 13.029 4.40275C12.5361 5.08952 12.24 5.88367 12.2277 6.78491L12.2274 6.88986L12.3045 6.87728C12.5699 6.82882 12.8194 6.73591 13.1846 6.56964L13.3932 6.47405C14.0987 6.15463 14.5212 6.04485 15.2289 6.06681C16.7317 6.11393 18.1776 7.08773 19.0178 8.26448C19.0365 8.29313 19.0555 8.32178 19.0737 8.3507L19.1819 8.52206L19.285 8.69235C19.927 9.78289 20.2363 10.8416 20.2475 12.5517C21.5716 12.6778 22.6072 13.7924 22.6067 15.1491C22.6067 16.4579 21.6382 17.5591 20.3549 17.7347C20.3504 17.7355 20.3461 17.7366 20.3412 17.7374V18.6871C20.3412 18.8189 20.4483 18.926 20.5801 18.926H22.7874C23.592 18.926 24.3636 19.2454 24.9326 19.8143C25.5016 20.3836 25.821 21.1552 25.821 21.9595L25.8207 31.6036C25.8207 32.41 25.4997 33.1833 24.9283 33.7523C24.3569 34.3215 23.5829 34.6398 22.7786 34.6369C22.665 34.6372 22.5537 34.6374 22.4441 34.6377L21.7951 34.6374L21.0063 34.6331L20.5852 34.6283C20.5209 34.627 20.4591 34.6516 20.413 34.6966C20.3672 34.7416 20.3412 34.8029 20.3412 34.8669L20.3404 36.8174L20.3386 37.5331C20.3386 37.8153 20.213 38.0826 19.983 38.2729C19.6588 38.5179 19.2282 38.7498 18.6943 38.9597L18.5125 39.0285C18.2341 39.1311 17.9299 39.2277 17.6006 39.3171L17.377 39.3758L17.1462 39.4323C16.9117 39.4877 16.6659 39.5399 16.4091 39.5884L16.1486 39.6358L15.8808 39.6805C15.6543 39.7166 15.4206 39.7504 15.1793 39.7809L14.8859 39.8162L14.5855 39.8489L14.2778 39.8783L13.9629 39.9051L13.6408 39.9287L13.3115 39.949C13.2561 39.9522 13.2004 39.9552 13.1444 39.9581L12.8047 39.9737L12.4579 39.986C12.3409 39.9892 12.2231 39.9924 12.104 39.9948L11.743 39.9999C11.6218 40.0012 11.4991 40.0018 11.3754 40.0018H11.1872C11.0624 40.001 10.9385 39.9999 10.8158 39.9986L10.4514 39.9927L10.094 39.9841C9.97591 39.9809 9.85917 39.9769 9.7435 39.9729L9.40025 39.9587C9.34349 39.956 9.28726 39.9536 9.23103 39.9506L8.89822 39.9324L8.57264 39.9121L8.25429 39.8888C8.20154 39.885 8.1496 39.8807 8.09765 39.8765L7.79001 39.85C7.73941 39.8451 7.68907 39.8406 7.639 39.8355L7.34233 39.8055L7.05317 39.7731C7.00551 39.7675 6.95812 39.7619 6.91126 39.756L6.63307 39.7201L6.36238 39.6826L6.09945 39.6427C5.96986 39.6221 5.84294 39.6012 5.71898 39.5793L5.47506 39.5345C5.4349 39.5271 5.39527 39.5193 5.35591 39.5115L5.12324 39.4641L4.8986 39.4151L4.68172 39.364L4.47261 39.3118C4.26751 39.2585 4.0742 39.2028 3.8932 39.1452L3.71595 39.0869C3.6292 39.0574 3.54593 39.0274 3.46534 38.9966L3.30844 38.9353C3.07924 38.8419 2.8779 38.7447 2.70467 38.6446C2.43129 38.4702 2.26556 38.1685 2.26475 37.8443L2.22191 17.8285C1.04141 17.5495 0.184082 16.4972 0.184082 15.2677C0.184082 14.069 0.99536 13.0583 2.10357 12.7549C2.08991 12.3902 2.09822 12.0304 2.13597 11.6753C2.1863 11.2057 2.28457 10.7572 2.43504 10.332C3.298 7.89472 4.8338 6.54902 6.98891 6.12491C7.37366 6.0494 7.72575 6.04083 8.09578 6.09064C7.81625 5.82905 7.54797 5.54925 7.30378 5.25901C6.00895 3.71865 5.43971 2.02782 5.91015 0.381705L6.01885 0.00177002ZM19.6288 17.9315L19.4577 17.9945C19.4215 18.0076 19.383 18.0186 19.3463 18.0314C19.0121 18.149 18.6692 18.2558 18.3203 18.3557C18.1045 18.4175 18.1045 18.4175 17.8988 18.4759L17.8828 18.5573C17.8341 18.7755 17.7602 18.9859 17.6627 19.1854L17.5682 19.3699C17.5508 19.4055 17.539 19.4432 17.5235 19.4797C17.3476 19.884 17.267 20.3268 17.2999 20.7906L17.3002 20.8428L17.301 21.0452C17.301 21.9654 16.5657 22.5874 15.6093 22.5874C15.1239 22.5874 14.6872 22.3815 14.379 22.0535C14.1541 21.8142 13.9988 21.5103 13.9431 21.1716C13.9284 21.0819 13.9188 20.9903 13.9188 20.8966C13.9188 20.7057 13.7937 20.4733 13.628 20.3702C13.1712 20.0939 12.8017 19.6931 12.5621 19.2173L12.5506 19.1937L12.3163 19.1988C9.61418 19.2448 6.86387 18.9142 4.60621 18.3977C4.34382 18.3377 4.08625 18.2756 3.83804 18.2108L3.65116 18.1613C3.64607 18.1597 3.64045 18.1586 3.63509 18.157C3.40349 18.0919 3.16974 18.033 2.93466 17.9792L2.97723 37.8429C2.97723 37.924 3.019 38.0001 3.07469 38.0357C3.17804 38.0957 3.29398 38.1546 3.42277 38.2124L3.55557 38.2694C3.69266 38.3262 3.84206 38.3816 4.00405 38.436L4.16978 38.4893C4.25466 38.5155 4.34275 38.5415 4.43378 38.5672L4.61987 38.6175L4.81399 38.6665L5.01587 38.7144L5.22605 38.7605C5.26139 38.7683 5.29754 38.7757 5.33395 38.7832L5.55565 38.8272C5.63062 38.8416 5.7072 38.8561 5.78511 38.87L6.02234 38.9107C6.10266 38.9241 6.18432 38.9372 6.26732 38.9498L6.51981 38.987L6.78006 39.0226C6.82397 39.0282 6.86815 39.0341 6.91287 39.0395L7.18436 39.0724L7.46336 39.1029L7.74958 39.1311C7.79804 39.1359 7.84677 39.1402 7.8955 39.1447L8.19297 39.1701L8.49767 39.1932L8.8096 39.2138L9.12875 39.232L9.45514 39.2481C9.51003 39.2505 9.56545 39.2526 9.62087 39.255L9.95797 39.2673C10.0145 39.2692 10.0715 39.2708 10.1291 39.2724L10.4766 39.2807C10.535 39.2818 10.5936 39.2829 10.6528 39.2839L11.0108 39.288C11.131 39.2888 11.2525 39.2893 11.3754 39.2893L11.554 39.289C11.8507 39.2874 12.1398 39.2826 12.4218 39.274L12.7565 39.2625C12.8116 39.2606 12.8665 39.2582 12.9211 39.2556L13.2451 39.2395L13.5621 39.2202C13.6143 39.2167 13.6666 39.2132 13.718 39.2095L14.0245 39.1857C14.0746 39.1817 14.1249 39.1774 14.1747 39.1731L14.4703 39.1452C14.5188 39.1402 14.5673 39.1353 14.6155 39.1302L14.8998 39.0987C14.9467 39.093 14.9932 39.0874 15.0396 39.0818L15.3132 39.0462L15.5796 39.0079L15.8388 38.9677C15.9239 38.9538 16.008 38.9393 16.0905 38.9252L16.3349 38.8802C16.415 38.8646 16.4942 38.8491 16.5719 38.833L16.8016 38.7838L17.0236 38.7329C17.1692 38.6984 17.3095 38.6622 17.4453 38.6255L17.6448 38.569C17.6774 38.5594 17.7096 38.5495 17.7417 38.5399L17.9299 38.4812L18.1104 38.4207C18.7294 38.2068 19.2079 37.9663 19.541 37.7144C19.5948 37.6697 19.6261 37.6033 19.6261 37.5315L19.6288 34.8669C19.6288 34.6112 19.7319 34.3662 19.9145 34.1876C20.0971 34.0085 20.3439 33.9108 20.5975 33.9161L21.0146 33.9207L21.6331 33.9244L22.4452 33.9252L22.7788 33.9244C23.3957 33.9266 23.9883 33.6832 24.4255 33.2478C24.8624 32.8122 25.1082 32.2207 25.1082 31.6036L25.1085 21.9595C25.1085 21.344 24.8641 20.7536 24.4287 20.3182C23.9933 19.8829 23.403 19.6384 22.7874 19.6384H20.5801C20.0548 19.6384 19.6288 19.2124 19.6288 18.6871V17.9315ZM22.6238 21.3095C22.9154 21.3095 23.1952 21.4255 23.4016 21.6319C23.608 21.8381 23.7237 22.1179 23.7237 22.4097V31.0647C23.7237 31.3563 23.608 31.6361 23.4013 31.8425C23.1952 32.0487 22.9154 32.1643 22.6238 32.1643H20.729C20.4374 32.1643 20.1576 32.0487 19.9509 31.8422C19.7447 31.6361 19.6288 31.3563 19.6288 31.0647V22.4097C19.6288 22.1179 19.7447 21.8381 19.9511 21.6316C20.1576 21.4255 20.4374 21.3095 20.729 21.3095H22.6238ZM22.6238 22.0223H20.729C20.6261 22.0223 20.5276 22.063 20.455 22.1353C20.3825 22.2081 20.3412 22.3069 20.3412 22.4097V31.0647C20.3412 31.1675 20.3825 31.266 20.4548 31.3383C20.5276 31.4111 20.6261 31.4521 20.729 31.4521H22.6238C22.7266 31.4521 22.8252 31.4111 22.8974 31.3386C22.9703 31.266 23.0112 31.1675 23.0112 31.0647V22.4097C23.0112 22.3069 22.9703 22.2081 22.8977 22.1355C22.8252 22.063 22.7266 22.0223 22.6238 22.0223ZM5.42472 11.1085C4.25948 11.1085 3.26908 11.9458 3.06372 13.081L3.01284 13.3632L2.86424 13.3688L2.72608 13.3737C2.52768 13.3806 2.33758 13.4189 2.15926 13.4821C1.42242 13.7434 0.89656 14.4452 0.89656 15.2677C0.89656 16.1063 1.44625 16.8338 2.22031 17.0895C2.29447 17.1138 2.36998 17.1355 2.44816 17.1511C2.70493 17.1979 2.95983 17.2528 3.21312 17.3128C3.4241 17.3626 3.63375 17.4159 3.84126 17.4745C3.93042 17.4986 4.02574 17.5208 4.11757 17.5444C4.24449 17.5765 4.36899 17.6094 4.49911 17.6408C6.87404 18.2103 9.87229 18.5723 12.768 18.4748L13.0213 18.4662L13.1123 18.7029C13.2821 19.1444 13.5948 19.5171 14.0004 19.7627C14.3822 19.9996 14.6312 20.4631 14.6312 20.8966L14.6326 20.9485C14.6417 21.1223 14.6993 21.2824 14.7876 21.4208C14.9616 21.6926 15.2629 21.8749 15.6093 21.8749C16.196 21.8749 16.5885 21.5429 16.5885 21.0452L16.5874 20.8409L16.5885 20.8168C16.5821 20.7319 16.5794 20.6473 16.5794 20.563C16.5802 20.0012 16.7181 19.4465 16.984 18.9474L17.026 18.8649C17.1336 18.6427 17.2022 18.4028 17.2271 18.1538L17.2522 17.9045L17.4954 17.844C17.7436 17.7819 17.984 17.7112 18.2244 17.6408C18.4354 17.5789 18.644 17.5149 18.8502 17.448C19.0534 17.3819 19.2534 17.3125 19.4494 17.2386L19.5613 17.1974C19.6456 17.1682 19.7316 17.1452 19.8175 17.1221C19.9619 17.0833 20.1078 17.0501 20.2566 17.029L20.3198 17.0193C20.3273 17.018 20.3343 17.0161 20.3412 17.0148C21.232 16.8514 21.8942 16.0712 21.8942 15.1488C21.8945 14.1825 21.171 13.3862 20.2366 13.2682C20.1578 13.2583 20.0781 13.2516 19.9967 13.2516C19.8347 13.2516 19.6756 13.2725 19.5219 13.3123C19.3632 13.3536 19.2103 13.4152 19.0662 13.4963L19.0258 13.519L18.4036 13.681L18.3015 13.3587C17.9738 12.323 17.0094 11.6049 15.906 11.6049C14.5185 11.6049 13.3937 12.7297 13.3937 14.1175C13.3937 14.2026 13.3983 14.2869 13.4068 14.37L13.6751 16.928L13.7498 17.6408H13.7391L13.5051 16.928L12.7139 14.518C12.4089 13.5884 11.5393 12.9474 10.5465 12.9474C9.54644 12.9474 8.67251 13.5967 8.37263 14.5346L8.27892 14.8273L7.54823 14.7076L7.6888 14.3068C7.77984 14.0473 7.82696 13.7804 7.82696 13.5107C7.82696 12.1841 6.75141 11.1085 5.42472 11.1085ZM12.6783 2.78019L12.591 2.86561C11.795 3.66028 11.0493 4.99099 11.0041 5.81057C10.9585 6.63015 11.0922 7.64759 11.0922 7.64759L10.5896 7.55147C10.3727 7.50997 10.1775 7.46097 9.95181 7.39082L9.79598 7.34102C9.76894 7.33218 9.74163 7.32281 9.71351 7.31344L9.68433 7.30327L9.53734 7.2524L8.95043 7.04248L8.78925 6.98786C8.13407 6.77366 7.66952 6.71743 7.12653 6.82427C5.22043 7.19938 3.88651 8.3681 3.10682 10.5698C2.97536 10.9409 2.88914 11.335 2.84443 11.7511C2.84363 11.7581 2.84363 11.7653 2.84282 11.7725C3.39117 10.958 4.31008 10.4236 5.34413 10.3971L5.42472 10.396C6.95972 10.396 8.23528 11.5064 8.49231 12.9678L8.50409 13.0398L8.58094 12.9702C9.09261 12.5254 9.75287 12.2547 10.4662 12.236L10.5465 12.2349C11.4151 12.2349 12.2119 12.6087 12.765 13.2194L12.7974 13.2561L12.8178 13.186C13.21 11.8836 14.4037 10.9283 15.8251 10.8932L15.906 10.8924C17.1834 10.8924 18.3157 11.6419 18.8341 12.7648L18.8518 12.8047L18.886 12.7878C19.0919 12.6906 19.3107 12.6237 19.5353 12.5833C19.5286 10.9527 19.2416 9.99816 18.6303 8.98446L18.5326 8.82649L18.4301 8.66691C17.7154 7.6666 16.4557 6.81811 15.2066 6.77902C14.5978 6.76001 14.2647 6.85506 13.5849 7.16993L13.4716 7.22187C12.8488 7.50461 12.4863 7.61118 11.9034 7.63233L11.5661 7.64465L11.5358 7.30836C11.4207 6.032 11.7813 4.91897 12.4504 3.9872C12.677 3.67153 12.9043 3.41985 13.1035 3.23349L13.1153 3.22198L13.0373 3.13041L12.9455 3.02947C12.8695 2.94888 12.7958 2.87792 12.7265 2.81929L12.6783 2.78019ZM6.50669 0.973161L6.49759 1.03126C6.31472 2.27843 6.81808 3.57407 7.84945 4.80062C8.47893 5.54952 9.2886 6.22638 9.98099 6.6513C10.0886 6.71743 10.1939 6.77848 10.2948 6.83176L10.3529 6.86202L10.3526 6.80579C10.3481 6.44005 10.3267 6.09358 10.2878 5.76452C10.0161 3.46697 8.88349 2.03237 6.54391 0.989761L6.50669 0.973161Z" fill="#010202"/>
</g>
<defs>
<clipPath id="clip0_202_9711">
<rect width="26" height="41" fill="white"/>
</clipPath>
</defs>
</svg>
