<svg width="33" height="30" viewBox="0 0 33 30" fill="none" xmlns="http://www.w3.org/2000/svg">
<g clip-path="url(#clip0_202_10464)">
<path d="M31.6792 12.3618L28.7058 10.0135V4.67491C28.7058 4.31168 28.5622 4.21031 28.3045 4.21031H25.5845C25.2889 4.21031 25.1073 4.26944 25.1073 4.67491V7.17105C21.1751 4.06671 16.9135 0.700508 16.753 0.5738C16.432 0.320385 16.2335 0.252808 16.0012 0.252808C15.7731 0.252808 15.5746 0.320385 15.2494 0.5738C14.9284 0.827216 0.754062 12.024 0.323256 12.3618C-0.20047 12.7758 -0.0526442 13.3713 0.530211 13.3713H3.29666V28.3904C3.29666 29.3618 3.68523 29.7504 4.6102 29.7504H27.3922C28.3172 29.7504 28.7058 29.3618 28.7058 28.3904V13.3671H31.4722C32.0551 13.3671 32.2029 12.7758 31.6792 12.3618ZM26.3744 26.2786C26.3744 26.9501 26.028 27.4147 25.3269 27.4147H6.67131C5.97019 27.4147 5.62386 26.9501 5.62386 26.2786V12.2436C5.62386 11.4284 5.97864 10.9089 6.38833 10.5879L15.3592 3.50497C15.5958 3.31913 15.7985 3.23889 15.997 3.23889C16.1955 3.23889 16.3982 3.31913 16.6348 3.5092L25.6057 10.5922C26.0111 10.9131 26.3701 11.4326 26.3701 12.2478V26.2786H26.3744Z" fill="#FA9012"/>
<path d="M25.614 10.588L16.6389 3.50077C16.4024 3.31493 16.1912 3.23468 16.0011 3.23468C15.8069 3.23468 15.5999 3.31493 15.3634 3.50499L6.38825 10.588C5.98278 10.9089 5.62378 11.4284 5.62378 12.2436V26.2786C5.62378 26.9501 5.97011 27.4147 6.67123 27.4147H25.3268C26.0279 27.4147 26.3743 26.9501 26.3743 26.2786V12.2436C26.3743 11.4284 26.0195 10.9089 25.614 10.588ZM24.0513 24.171C24.0513 24.7961 23.6965 25.0875 23.177 25.0875H8.82948C8.30998 25.0875 7.9552 24.7961 7.9552 24.171V13.2108C7.9552 12.6026 8.0988 12.2563 8.52961 11.9142C8.77458 11.7199 15.3 6.56709 15.4732 6.43194C15.6464 6.29256 15.8322 6.22498 16.0011 6.22498C16.1701 6.22498 16.3559 6.29678 16.5291 6.43194C16.7023 6.57132 23.2277 11.7241 23.4727 11.9142C23.9035 12.2563 24.0471 12.6068 24.0471 13.2108L24.0513 24.171Z" fill="#FFAB1F"/>
<path d="M23.4728 11.9142C23.2278 11.7241 16.7024 6.56709 16.5292 6.43193C16.356 6.29255 16.1702 6.22498 16.0013 6.22498C15.8323 6.22498 15.6465 6.29678 15.4733 6.43193C15.3001 6.57131 8.7747 11.7241 8.52973 11.9142C8.09892 12.2563 7.95532 12.6068 7.95532 13.2108V24.171C7.95532 24.7961 8.3101 25.0875 8.82961 25.0875H23.1771C23.6966 25.0875 24.0514 24.7961 24.0514 24.171V13.2108C24.0472 12.6068 23.9036 12.2563 23.4728 11.9142ZM21.72 22.0634C21.72 22.566 21.4412 22.7603 21.0611 22.7603H10.9414C10.5613 22.7603 10.2825 22.566 10.2825 22.0634V14.1822C10.2825 13.8317 10.2825 13.5529 10.6669 13.2446C10.9203 13.0418 15.448 9.46869 15.5831 9.3631C15.7183 9.25751 15.8534 9.20261 16.0013 9.20261C16.1533 9.20683 16.3011 9.26596 16.4194 9.3631C16.5546 9.46869 21.0822 13.0418 21.3357 13.2446C21.72 13.5529 21.72 13.8317 21.72 14.1822V22.0634Z" fill="#FFBE41"/>
<path d="M21.3356 13.2446C21.0822 13.0418 16.5545 9.46866 16.4193 9.36307C16.3011 9.26171 16.1533 9.2068 16.0012 9.20258C15.8534 9.20258 15.7182 9.25748 15.5831 9.36307C15.4479 9.46866 10.916 13.0418 10.6668 13.2446C10.2825 13.5529 10.2825 13.8316 10.2825 14.1822V22.0634C10.2825 22.566 10.5612 22.7603 10.9414 22.7603H21.0568C21.437 22.7603 21.7157 22.566 21.7157 22.0634V14.1822C21.72 13.8274 21.72 13.5486 21.3356 13.2446ZM19.3928 19.9601C19.3928 20.3486 19.1985 20.4331 18.9282 20.4331H13.0785C12.8082 20.4331 12.6139 20.3444 12.6139 19.9601V15.1494C12.6139 14.8791 12.7364 14.6172 12.9433 14.4483C13.0616 14.3511 15.6042 12.3618 15.6929 12.29C15.8703 12.1422 16.1321 12.1422 16.3095 12.29C16.4025 12.3618 18.9408 14.3511 19.0591 14.4483C19.2703 14.6214 19.3928 14.8791 19.3885 15.1494L19.3928 19.9601Z" fill="#FFD260"/>
<path d="M16.0012 20.4289H18.9239C19.1942 20.4289 19.3885 20.3402 19.3885 19.9559V15.1494C19.3885 14.8791 19.266 14.6173 19.0591 14.4483C18.9408 14.3512 16.3982 12.3619 16.3095 12.2901C16.1321 12.1422 15.8703 12.1422 15.6929 12.2901C15.6042 12.3619 13.0616 14.3512 12.9433 14.4483C12.7321 14.6215 12.6097 14.8791 12.6139 15.1494V19.9559C12.6139 20.3445 12.8082 20.4289 13.0785 20.4289H16.0012Z" fill="#FFE780"/>
</g>
<defs>
<clipPath id="clip0_202_10464">
<rect width="33" height="30" fill="white"/>
</clipPath>
</defs>
</svg>
