<svg width="30" height="40" viewBox="0 0 30 40" fill="none" xmlns="http://www.w3.org/2000/svg">
<g clip-path="url(#clip0_202_14471)">
<path d="M22.5089 29.3049C21.3767 30.4032 20.2492 31.9112 19.1077 33.0002C19.6506 35.8625 18.588 37.1191 19.8687 38.1476C20.3327 38.5153 23.1168 39.3019 24.7177 38.3897C24.7502 36.905 23.9428 36.4629 23.0797 35.909C22.2027 34.0474 22.5182 31.1619 22.4997 29.3049" fill="#2E93EE"/>
<path d="M23.1585 38.8086C22.9725 37.9582 22.3727 37.2587 21.5623 36.947C22.2052 37.3411 22.5851 38.0534 22.5553 38.8086C22.7594 38.8179 22.959 38.8179 23.1585 38.8086Z" fill="#2E578B"/>
<path d="M24.5086 38.5013C24.3276 37.6515 23.7305 36.9511 22.9216 36.6396C23.7476 37.2773 24.0121 37.9614 23.8961 38.7061C24.1063 38.6575 24.3114 38.589 24.5086 38.5013Z" fill="#2E578B"/>
<path d="M21.1863 14.4863C20.6016 15.338 20.3418 17.1252 24.9913 19.7454C24.9913 19.7454 23.0377 23.1289 22.4206 23.7479C21.8034 24.3669 21.4276 26.0145 22.0308 26.8429C22.3431 27.2786 22.7008 27.6796 23.0981 28.039C23.0981 28.039 24.6386 28.3276 25.2975 27.9552C26.1126 27.0513 26.2964 25.7405 25.7615 24.6462C25.7615 24.6462 29.6825 20.532 29.4319 19.294C29.1814 18.056 23.0377 11.7869 21.1863 14.4863Z" fill="#2E93EE"/>
<path d="M25.7382 24.6462C25.7382 24.6462 24.1513 25.9586 23.7522 26.182C24.0755 26.0839 24.3868 25.9496 24.6802 25.7818C24.6802 25.7818 25.3856 26.6474 24.8705 27.3781C24.8705 27.3781 25.7985 26.8336 25.1814 25.5817C25.3952 25.3113 25.5906 25.0268 25.766 24.73L25.7382 24.6462Z" fill="#2E578B"/>
<path d="M9.39575 23.883C9.38447 24.1875 9.29149 24.4834 9.12662 24.7393C8.85749 25.1629 8.70436 25.1163 9.37255 25.4793C9.87012 25.7321 10.4066 25.8989 10.9595 25.9727C11.8875 26.1263 11.6787 26.0239 11.2658 25.1396C11.0842 24.7414 10.8684 24.3599 10.6208 23.9993C9.69273 22.7195 9.43287 22.8079 9.39575 23.8737" fill="#2E93EE"/>
<path d="M6.06412 23.4408C5.72074 24.0784 6.24509 24.1808 6.91792 24.4181C7.17009 24.5061 7.43176 24.5639 7.69747 24.5903C8.45383 24.6741 8.25894 24.5624 7.92484 23.9481C7.72363 23.5692 7.50052 23.2024 7.25665 22.8497C5.92491 20.9322 6.56062 22.5099 6.06412 23.4408Z" fill="#2E93EE"/>
<path d="M3.18711 23.157C3.19839 23.3026 3.19839 23.4488 3.18711 23.5944C3.14071 24.125 3.08039 24.0366 3.73466 24.0971C4.02607 24.13 4.32025 24.13 4.61166 24.0971C5.4469 23.9714 5.14064 23.6782 4.70446 23.1895C4.55545 23.0192 4.39077 22.8634 4.2126 22.7241C2.56069 21.4489 3.18247 22.3471 3.20568 23.1616" fill="#2E93EE"/>
<path d="M14.2535 4.45209C14.2535 4.45209 9.51589 6.90014 9.55766 7.67737C9.59942 8.45461 10.894 8.34756 11.4137 9.39008C11.4137 9.39008 8.51361 11.4006 8.69922 12.3222C8.88483 13.2437 10.7548 12.9086 11.2189 13.6393C11.2189 13.6393 10.7548 15.473 11.1771 16.1432C11.5993 16.8134 11.5344 16.2362 12.1051 17.0741C12.1469 17.0926 11.8128 10.2511 14.2535 4.45209Z" fill="#2E93EE"/>
<path d="M13.2608 6.67666C14.9312 8.26836 17.0379 9.26899 18.9589 10.5023C20.2812 11.2952 21.4468 12.3254 22.3973 13.5415C23.5481 15.0866 22.8613 16.9064 23.149 18.8006C23.2372 19.4428 23.279 20.0944 23.3068 20.746C23.3563 21.9306 23.3222 23.1173 23.2047 24.2971C22.9124 27.1174 22.7685 29.4166 20.7825 31.5295C18.3047 34.173 15.5762 34.7874 12.4812 32.4883C11.3904 31.7732 10.3968 30.919 9.52538 29.9471C8.88968 29.2025 8.10084 28.7278 7.41873 28.0343C6.55257 27.1134 5.51952 26.3663 4.37475 25.8329C3.17758 25.3675 2.35162 26.0005 1.76231 26.2704C1.4607 26.41 1.04308 26.68 0.704344 26.41C0.573846 26.3119 0.526116 26.1377 0.588339 25.9865C0.764938 25.5623 1.03271 25.1825 1.37253 24.8742C3.19614 23.1987 6.14267 23.1615 8.33285 24.3389C9.16345 24.8044 10.0683 25.293 11.0288 25.3535C11.7063 25.4326 12.3873 25.2384 12.922 24.8137C13.3368 24.4316 13.61 23.9196 13.6969 23.3616C13.8517 22.5853 13.7956 21.7816 13.5345 21.0345C13.1772 19.9548 12.5369 18.9774 12.1193 17.9116C10.7272 14.2861 10.2632 10.1533 12.523 6.76509L12.8385 6.29968L13.2608 6.67666Z" fill="#2E93EE"/>
<path d="M4.7644 25.991C6.36064 26.7915 8.05895 28.5833 9.68767 30.5148C11.8175 33.0513 17.112 36.7885 21.5248 30.915C25.6593 25.386 23.715 17.6369 23.4737 16.7573L23.4459 16.6642C23.3067 16.4873 19.6224 11.7681 16.2443 11.0793C15.3441 11.8612 15.1678 13.2434 16.3649 15.6263C18.3834 19.6335 19.9982 25.4744 16.4113 29.0627C15.8773 29.6105 15.2224 30.025 14.4996 30.2728C11.9521 31.1152 10.6018 29.5653 9.00556 28.0667C7.84373 26.946 6.36011 26.2199 4.7644 25.991Z" fill="#FFCF00"/>
<path d="M22.0217 30.2076C20.4685 30.0309 18.9943 29.4269 17.762 28.4623C18.6423 29.75 19.9954 30.6353 21.5252 30.9244C21.7015 30.6917 21.8917 30.4496 22.0217 30.2076Z" fill="#ECA93F"/>
<path d="M14.8479 30.5661C15.4539 31.8546 16.3309 32.9962 17.4186 33.9124C17.766 33.8305 18.1048 33.7152 18.4301 33.568C16.9712 32.9369 15.7266 31.8939 14.8479 30.5661Z" fill="#ECA93F"/>
<path d="M9.42798 30.2171L9.68783 30.5243L9.80848 30.6685C9.72576 30.2903 9.76643 29.8955 9.92448 29.5422C9.74353 29.7553 9.57763 29.9808 9.42798 30.2171Z" fill="#ECA93F"/>
<path d="M11.219 32.0089C11.4046 32.1578 11.5949 32.3067 11.7944 32.4743C11.6598 31.832 11.5995 31.1618 11.8176 30.7895C11.5737 31.1725 11.3729 31.5815 11.219 32.0089Z" fill="#ECA93F"/>
<path d="M7.72046 28.3601L8.13344 28.7836C8.12662 28.4846 8.15781 28.1859 8.22624 27.8947C8.04606 28.0367 7.87697 28.1923 7.72046 28.3601Z" fill="#FF9144"/>
<path d="M18.9031 25.3953C20.5175 24.9068 22.2398 24.9068 23.8542 25.3953C23.8959 25.1626 23.9331 24.9299 23.9655 24.7065C20.722 23.934 18.9031 25.3953 18.9031 25.3953Z" fill="#ECA93F"/>
<path d="M24.063 20.3037C24.0398 20.0245 24.012 19.7592 23.9841 19.5032C20.5458 19.4194 18.7732 21.0949 18.7732 21.0949C20.4037 20.2611 22.2609 19.9833 24.063 20.3037Z" fill="#ECA93F"/>
<path d="M22.7085 15.7894C22.5739 15.6358 22.4254 15.4683 22.2445 15.2914C18.5926 15.2914 17.6042 16.9948 17.6042 16.9948C19.1246 16.0346 20.9207 15.6104 22.7085 15.7894Z" fill="#ECA93F"/>
<path d="M24.017 19.7779C23.927 18.9505 23.7923 18.1286 23.6133 17.3159L23.3488 17.153C22.1841 16.3897 17.052 13.2948 15.5486 12.364C15.5225 12.5928 15.5225 12.8239 15.5486 13.0528C17.1262 15.2681 20.6667 19.0193 24.017 19.7779Z" fill="#ECA93F"/>
<path d="M12.379 28.7325C12.8506 28.037 13.6595 27.6509 14.4949 27.7225C16.8429 28.0297 16.1005 30.8175 15.539 32.4557C15.149 33.6335 14.9241 34.86 14.8708 36.0999C14.8708 37.7195 15.488 38.2082 14.7362 38.8411C13.5396 39.6819 12.0919 40.086 10.6343 39.9861C9.33039 39.6882 9.29791 36.9981 11.3767 36.314C11.9521 35.0574 11.9289 33.7728 11.8825 32.4325C11.85 31.5016 11.7711 29.64 12.379 28.7092" fill="#2E93EE"/>
<path d="M11.8733 39.972C12.0589 39.9441 12.2445 39.9115 12.4255 39.8696C12.2623 39.0787 12.5064 38.2586 13.0751 37.6868C12.2213 38.1755 11.9429 39.0086 11.8733 39.972Z" fill="#2E578B"/>
<path d="M10.6159 39.9907C10.422 39.1269 10.6552 38.2224 11.2423 37.5612C10.5205 38.009 10.0762 38.7951 10.0637 39.6463C10.2065 39.8171 10.4 39.9377 10.6159 39.9907Z" fill="#2E578B"/>
<path d="M11.8224 25.3256C11.8224 25.3256 11.5532 26.8847 12.6112 27.4059C13.5021 27.8714 14.5972 27.8713 15.1447 27.2058C15.9011 26.275 17.0008 24.4134 13.9893 22.5843C12.1332 21.4534 12.0172 25.293 12.0172 25.293L11.8224 25.3256Z" fill="#2E578B"/>
<path d="M12.0823 17.851C12.4767 18.712 12.834 19.3776 12.8525 19.4381C12.8711 19.4986 15.3026 16.3896 14.8478 15.887C14.3931 15.3843 12.4674 17.1762 12.0823 17.851Z" fill="#2E578B"/>
<path d="M14.4671 13.3925C17.0981 15.9383 11.6366 19.3079 11.6366 19.3079C12.2305 19.6849 12.9823 20.974 13.5437 21.9142C14.1052 22.8543 14.3279 22.7007 15.0147 23.4826C15.7014 24.2645 13.7433 25.4327 13.7433 25.4327C13.7433 25.4327 7.17272 21.8723 7.1912 19.5918C7.1912 19.3079 8.71791 16.7714 10.2585 15.1983C11.0334 14.4071 13.2096 12.1778 14.4671 13.3925Z" fill="#2E93EE"/>
<path d="M11.915 24.1667C11.915 24.1667 11.451 26.5915 12.8709 27.2989C12.8709 27.2989 14.0449 27.3734 14.6388 26.9452C14.6388 26.9452 16.1191 24.6647 15.0147 23.4826C13.9103 22.3004 11.915 24.1667 11.915 24.1667Z" fill="#2E93EE"/>
<path d="M11.8875 24.3391C11.8875 24.3391 13.7853 25.3583 14.1148 25.4514C13.7844 25.497 13.4479 25.4469 13.145 25.3071C13.145 25.3071 12.6809 26.2379 13.2238 26.815C13.2238 26.815 12.3515 26.6614 12.6624 25.2001L11.8689 24.3809L11.8875 24.3391Z" fill="#2E578B"/>
<path d="M13.5901 5.94595C13.5901 5.94595 14.5785 0.100408 16.996 0.00267247C18.5876 -0.0671389 19.3904 1.9667 19.3904 1.9667C20.3652 1.97102 21.3185 2.25527 22.1374 2.78582C22.1374 2.78582 22.6014 1.98066 23.3392 2.24129C24.077 2.50192 24.9168 4.19601 24.6152 6.97916C25.3453 7.09162 25.9843 7.53202 26.3507 8.17526C26.1552 8.4567 25.8566 8.64911 25.5201 8.71048C25.0189 8.75237 22.8566 7.96117 22.2719 8.47777C21.6764 8.89579 21.3746 9.62078 21.497 10.3394C21.497 10.3394 19.1073 10.0974 18.0447 8.73375C16.9821 7.3701 16.068 4.72658 13.5901 5.94595Z" fill="#2E93EE"/>
<path d="M21.8171 6.36959C21.8171 6.36959 22.4111 4.40557 23.5526 3.85638C23.5931 4.80706 23.697 5.75395 23.8635 6.69073C23.1882 6.54377 22.5049 6.43654 21.8171 6.36959Z" fill="#F1F1F2"/>
<path d="M16.648 2.34369C16.648 2.34369 18.1189 3.05576 19.1073 6.1135C18.0064 5.92555 16.8923 5.82595 15.7756 5.81564C16.323 4.73883 16.6212 3.55207 16.648 2.34369Z" fill="#F1F1F2"/>
<path d="M17.2514 3.70258C17.6087 3.70258 17.9011 4.10283 17.9011 4.60082C17.9011 5.0988 17.6087 5.4944 17.2514 5.4944C16.8941 5.4944 16.6018 5.09415 16.6018 4.60082C16.6018 4.10748 16.8895 3.70258 17.2514 3.70258Z" fill="#2E578B"/>
<path d="M22.7455 6.0855C23.0286 6.0855 23.256 5.78298 23.256 5.406C23.256 5.02902 23.0286 4.7265 22.7455 4.7265C22.6912 4.72953 22.6378 4.74214 22.5878 4.76373C22.4318 4.94477 22.3135 5.15521 22.2398 5.38273C22.2375 5.39816 22.2375 5.41384 22.2398 5.42927C22.2351 5.78298 22.4625 6.0855 22.7455 6.0855Z" fill="#2E578B"/>
<path d="M16.7872 7.4027C16.7872 7.4027 15.0239 6.00647 14.1284 7.00245C13.0611 8.2032 14.1284 10.0695 14.1284 10.0695C14.1284 10.0695 14.2583 9.26899 14.6574 9.00371C14.6574 9.00371 14.8151 11.5309 18.9171 14.342C23.019 17.153 24.8055 16.8459 25.7011 16.6085C26.5966 16.3711 27.5061 15.7289 27.1627 15.0075C26.8194 14.2861 24.5039 12.3267 24.5039 12.3267C24.5039 12.3267 23.6269 12.4338 21.8404 11.8055C20.0539 11.1772 17.6642 9.94383 16.1237 7.80295C16.3516 7.68111 16.5731 7.54752 16.7872 7.4027Z" fill="#FF9144"/>
<path d="M15.7571 10.6884C18.0542 10.1357 20.4741 10.7894 22.1838 12.4244L21.7197 12.1731C21.7197 12.1731 23.8264 12.0707 24.1187 12.3639C25.3688 13.2112 26.1703 14.5795 26.2996 16.0872C26.36 16.8086 24.657 17.2181 20.8613 15.3239C18.5041 14.1325 15.7571 10.6884 15.7571 10.6884Z" fill="#FF6B17"/>
<path d="M20.3694 11.1679L20.4576 11.2144L20.3694 11.1679Z" fill="#FF9144"/>
<path d="M24.3324 12.3128C24.3324 12.3128 23.822 14.4118 23.0332 14.1745C22.7687 14.0954 22.8754 13.4996 22.7687 13.0901C22.662 12.6805 22.3557 11.8986 22.3557 11.8986L24.3324 12.3128Z" fill="#EBEEF2"/>
<path d="M28.2346 11.5168C28.2346 11.5168 28.0721 13.6717 27.2555 13.5693C26.9817 13.5367 26.991 12.9317 26.8193 12.5454C26.6476 12.1591 26.2253 11.433 26.2253 11.433L28.2346 11.5168Z" fill="#EBEEF2"/>
<path d="M29.1024 9.62732C29.0003 8.11008 27.005 7.44455 25.5387 8.51033C24.3415 8.24505 23.0144 7.44455 21.8265 8.6453C21.3409 9.0525 21.1902 9.73708 21.4599 10.3115C21.4599 10.3115 18.9728 9.91122 18.1144 8.64065C17.2559 7.37008 16.133 5.66668 14.9312 5.54568C14.2908 5.48517 13.2097 5.39209 12.5832 6.61612C11.9568 7.84015 11.6552 10.0508 16.2954 13.5507C20.9356 17.0506 22.968 17.9954 23.9796 17.9908C25.2649 17.9908 25.3438 17.5253 26.824 17.3019C27.5804 17.1949 28.1558 15.9057 27.3252 14.7887C26.6312 13.9131 25.7894 13.1664 24.838 12.5827C24.7916 12.6292 26.6384 14.1139 26.9818 14.8352C27.3252 15.5566 26.309 16.0127 25.418 16.2315C24.5271 16.4502 23.381 16.6969 19.2837 13.9044C15.1864 11.112 14.7456 8.28694 14.7456 8.28694C14.2259 8.20782 14.1655 9.33876 14.1655 9.33876C14.1655 9.33876 13.567 8.03096 14.3697 7.24908C15.3395 6.31826 16.3418 7.46782 16.3418 7.46782H16.2815C15.6736 7.17461 15.5901 7.70052 15.5901 7.70052C17.2058 9.78677 19.3407 11.4096 21.7801 12.4058C23.5666 13.0341 24.5039 12.3267 24.5039 12.3267C25.3523 12.3207 26.1991 12.2522 27.0375 12.1219C27.6778 11.9497 29.2462 11.6798 29.1024 9.62732Z" fill="#FFCF00"/>
<path d="M23.1581 9.46456C23.5758 9.33425 23.8959 9.89739 23.3484 10.1394C23.2695 10.3488 23.3948 10.5769 23.7289 10.656C23.4009 10.8141 23.0072 10.6755 22.8496 10.3465C22.692 10.0175 22.8301 9.62264 23.1581 9.46456Z" fill="#ECA93F"/>
<path d="M27.8637 9.29215C27.5203 9.18045 27.2558 9.64586 27.7106 9.85064C27.7709 10.0228 27.6688 10.209 27.3904 10.2742C28.272 10.4557 28.3184 9.45505 27.8544 9.29215" fill="#ECA93F"/>
</g>
<defs>
<clipPath id="clip0_202_14471">
<rect width="30" height="40.0009" fill="white"/>
</clipPath>
</defs>
</svg>
