<svg width="37" height="36" viewBox="0 0 37 36" fill="none" xmlns="http://www.w3.org/2000/svg">
<g clip-path="url(#clip0_202_16044)">
<path d="M28.6844 35.6526H0.949779C0.42841 35.6526 0.00537109 35.2381 0.00537109 34.7267V1.28441C0.00537109 0.773264 0.428197 0.358521 0.949779 0.358521H35.061C35.5823 0.358521 36.0054 0.773056 36.0054 1.28441V15.8203C35.8686 15.4055 34.2665 10.6593 31.7909 8.24895C29.2007 5.7271 24.5043 3.66361 25.2027 5.32217C25.9011 6.98074 25.9011 11.3011 25.9011 11.3011L18.8691 13.9832L17.8143 17.8843L9.20826 20.1533C9.20826 20.1533 9.82155 24.5429 12.2952 25.3101C13.8819 25.8022 24.2822 26.9495 24.2822 26.9495L22.3078 35.6526H28.6844Z" fill="#A873D1"/>
</g>
<defs>
<clipPath id="clip0_202_16044">
<rect width="37" height="36" fill="white"/>
</clipPath>
</defs>
</svg>
