<svg width="30" height="40" viewBox="0 0 30 40" fill="none" xmlns="http://www.w3.org/2000/svg">
<g clip-path="url(#clip0_202_14620)">
<path d="M29.1739 7.86133L26.5922 36.7831L14.9873 40.0004L3.41431 36.7877L0.835327 7.86133H29.1739Z" fill="#E44D26"/>
<path d="M15.0046 37.5413L24.382 34.9415L26.5882 10.2265H15.0046V37.5413Z" fill="#F16529"/>
<path d="M15.0046 17.3219H9.98583L10.31 20.9548H15.0046V24.5025H7.06552L6.10864 13.7742H15.0046V17.3219Z" fill="#EBEBEB"/>
<path d="M7.22412 26.2764H10.7854L11.038 29.1059L14.9891 30.1727L15.0047 30.1686V33.8597L14.9883 33.8642L7.72115 31.8468L7.22412 26.2764Z" fill="#EBEBEB"/>
<path d="M5.27486 0.000396729H3.47205V5.39446H5.27494V3.58821H6.92416V5.39446H8.72705V0.000396729H6.92408V1.78165H5.27486V0.000396729Z" fill="black"/>
<path d="M9.51071 1.78915H11.0979L11.098 5.39446H12.9009V1.78915H14.4888V0.000396729H9.51071V1.78915Z" fill="black"/>
<path d="M15.2789 0.000396729H17.1588L18.3152 1.89571L19.4705 0.000396729H21.3511V5.39446H19.5556V2.72087L18.3152 4.63876H18.2842L17.043 2.72087V5.39446H15.2789V0.000396729Z" fill="black"/>
<path d="M24.0518 0.000396729H22.2484V5.39446H26.5872V3.61149H24.0518V0.000396729Z" fill="black"/>
<path d="M14.9923 17.3219V13.7742H23.8793L23.5617 17.3219H14.9923Z" fill="white"/>
<path d="M19.3609 24.5025H14.9923V20.9549H23.2389L23.1523 21.9075L22.2653 31.8468L14.9923 33.8625V30.1716L18.9491 29.1036L19.3609 24.5025Z" fill="white"/>
</g>
<defs>
<clipPath id="clip0_202_14620">
<rect width="30" height="40.0004" fill="white"/>
</clipPath>
</defs>
</svg>
