<svg width="36" height="36" viewBox="0 0 36 36" fill="none" xmlns="http://www.w3.org/2000/svg">
<g clip-path="url(#clip0_202_10749)">
<path d="M36.0005 0.000915527H0.000488281V36.0009H36.0005V0.000915527Z" fill="#222222"/>
<path d="M16.089 4.96173L12.9138 14.0381L3.28174 14.0647L11.0878 19.8333L8.28271 29.1473L16.1682 23.5644L24.266 29.4914L21.3018 19.8067L29.0288 14.0381L19.4233 14.0647L16.089 4.96173Z" fill="#E08524"/>
<path d="M16.4858 4.82935L19.6877 6.33767L22.3602 13.6414H19.7141L16.4858 4.82999" fill="#466770"/>
<path d="M21.9858 20.0033L25.148 21.5563L32.8009 15.9991L29.6387 14.3151L21.9858 20.0033Z" fill="#304A51"/>
<path d="M21.9814 19.9975L25.1479 21.5494L28.1417 31.2298L24.8673 29.5645L21.9814 19.9979" fill="#466770"/>
<path d="M8.73257 29.4784L16.168 24.1597L18.7745 26.0914L11.749 31.0133L8.73242 29.4785" fill="#304A51"/>
</g>
<defs>
<clipPath id="clip0_202_10749">
<rect width="36.0005" height="36.0009" fill="white"/>
</clipPath>
</defs>
</svg>
