<svg width="552" height="552" viewBox="0 0 552 552" fill="none" xmlns="http://www.w3.org/2000/svg">
<rect x="0.5" y="0.5" width="551" height="551" rx="4.5" stroke="#9747FF" stroke-dasharray="10 5"/>
<path d="M530.276 387.422C528.941 382.383 526.778 377.602 523.877 373.271C524.499 370.989 524.971 368.672 525.289 366.333C527.348 351.476 522.199 337.867 512.491 327.351C507.233 321.603 501.597 317.81 495.628 315.48C499.546 298.717 501.53 281.57 501.54 264.342C501.54 256.481 501.095 248.779 500.349 241.191C499.959 237.403 499.489 233.621 498.939 229.853C497.229 218.732 494.693 207.754 491.352 197.012C489.162 189.954 486.628 183.005 483.762 176.193C479.464 166.105 474.444 156.339 468.744 146.982C465.002 140.752 460.93 134.726 456.542 128.931C454.392 126.004 452.152 123.148 449.82 120.364C442.913 111.968 435.41 104.087 427.363 96.7782C424.693 94.3214 421.946 91.9502 419.124 89.6655C416.347 87.349 413.508 85.1061 410.612 82.9407C404.782 78.6025 398.756 74.5303 392.555 70.7415C358.297 49.9331 318.123 38 275.163 38C150.139 38 48.8065 139.332 48.8065 264.357C48.8033 281.789 50.823 299.162 54.8253 316.117C49.4554 318.449 44.3067 322.081 39.5359 327.339C29.8303 337.857 24.6792 351.411 26.7401 366.271C27.0509 368.632 27.5233 370.969 28.1497 373.266C25.251 377.6 23.0881 382.383 21.7506 387.422C18.7673 398.761 19.7493 408.986 23.5406 417.951C19.4211 429.663 20.4504 442.133 25.8178 452.98C29.7209 460.898 35.3071 467.021 42.1911 472.498C50.3777 479.004 60.6253 484.536 72.9935 489.838C87.7409 496.128 105.735 502.037 113.914 504.205C135.061 509.682 155.332 513.153 175.892 513.319C205.178 513.593 230.387 506.706 248.436 489.088C257.303 490.174 266.228 490.718 275.161 490.716C284.6 490.696 294.03 490.099 303.403 488.936C321.412 506.667 346.71 513.615 376.095 513.334C396.643 513.173 416.917 509.702 437.998 504.218C446.24 502.05 464.226 496.141 478.994 489.853C491.357 484.538 501.602 479.009 509.846 472.51C516.678 467.036 522.259 460.91 526.164 452.992C531.587 442.151 532.564 429.68 528.496 417.964C532.253 409.006 533.227 398.759 530.247 387.435L530.276 387.422ZM509.296 417.18C513.451 425.064 513.717 433.971 510.05 442.265C504.491 454.839 490.683 464.741 463.858 475.379C447.184 481.995 431.912 486.221 431.788 486.261C409.732 491.981 389.774 494.885 372.52 494.885C343.93 494.885 322.65 486.997 309.15 471.414C286.331 475.3 263.034 475.432 240.162 471.804C226.653 487.129 205.506 494.885 177.14 494.885C159.869 494.885 139.923 491.981 117.872 486.261C117.735 486.221 102.473 481.995 85.8017 475.379C58.977 464.746 45.1793 454.849 39.6105 442.265C35.9436 433.969 36.2096 425.061 40.3638 417.18C40.7491 416.45 41.1593 415.734 41.5994 415.045C39.1083 411.306 37.4402 407.08 36.6993 402.649C35.959 398.219 36.1651 393.68 37.304 389.334C38.9547 383.064 42.3656 377.848 46.9947 374.102C44.7656 370.437 43.3028 366.36 42.6938 362.114C41.3612 352.881 44.4241 343.66 51.3204 336.135C56.6878 330.285 64.2778 327.065 72.6832 327.065H72.907C66.57 306.757 63.358 285.598 63.3779 264.317C63.3779 148.292 157.451 54.2191 273.476 54.2191C389.525 54.2191 483.574 148.292 483.574 264.317C483.588 285.647 480.354 306.854 473.98 327.215C474.994 327.115 475.989 327.063 476.963 327.063C485.366 327.063 492.958 330.28 498.326 336.13C505.217 343.64 508.288 352.868 506.953 362.109C506.343 366.355 504.882 370.435 502.652 374.099C507.281 377.843 510.692 383.059 512.342 389.331C513.478 393.677 513.685 398.214 512.944 402.647C512.203 407.077 510.535 411.301 508.046 415.042C508.486 415.724 508.902 416.44 509.282 417.17L509.296 417.18Z" fill="white"/>
<path d="M507.902 415.018C510.39 411.276 512.059 407.052 512.799 402.622C513.54 398.189 513.334 393.652 512.198 389.307C510.547 383.037 507.136 377.821 502.507 374.075C504.735 370.41 506.199 366.333 506.808 362.087C508.141 352.853 505.078 343.633 498.181 336.107C492.814 330.257 485.221 327.038 476.819 327.038C475.842 327.038 474.85 327.088 473.835 327.19C480.202 306.834 483.431 285.623 483.412 264.292C483.412 148.267 389.339 54.1943 273.314 54.1943C157.289 54.1943 63.2159 148.242 63.2159 264.292C63.1958 285.565 66.4081 306.729 72.7451 327.041H72.5213C64.1184 327.041 56.5284 330.26 51.161 336.11C44.2696 343.62 41.2018 352.846 42.5343 362.089C43.1427 366.335 44.6057 370.412 46.8352 374.077C42.2062 377.823 38.7953 383.039 37.147 389.312C36.0089 393.657 35.8035 398.197 36.5449 402.63C37.2862 407.06 38.9571 411.286 41.4474 415.025C41.0024 415.714 40.5947 416.43 40.2118 417.161C36.0601 425.044 35.7916 433.952 39.4586 442.245C45.0149 454.817 58.8251 464.724 85.6498 475.36C102.324 481.975 117.596 486.201 117.72 486.241C139.776 491.961 159.735 494.868 176.988 494.868C205.354 494.868 226.511 487.111 240.01 471.785C262.872 475.412 286.176 475.28 308.998 471.394C322.49 486.977 343.778 494.868 372.368 494.868C389.637 494.868 409.585 491.961 431.636 486.241C431.77 486.201 447.035 481.975 463.707 475.36C490.531 464.729 504.329 454.822 509.898 442.245C513.565 433.949 513.299 425.041 509.144 417.161C508.764 416.422 508.346 415.709 507.906 415.025L507.902 415.018ZM230.456 447.784C229.293 449.82 228.047 451.806 226.72 453.738C223.227 458.852 218.633 462.758 213.303 465.664C203.107 471.22 190.207 473.164 177.105 473.164C156.401 473.164 135.165 468.319 123.282 465.231C122.698 465.08 50.3654 444.647 59.5142 427.244C61.0556 424.32 63.5938 423.152 66.7859 423.152C79.6812 423.152 103.157 442.354 113.251 442.354C115.503 442.354 117.094 441.392 117.743 439.053C122.044 423.627 52.3841 417.143 58.2513 394.801C59.288 390.848 62.0947 389.245 66.0451 389.245C83.0921 389.242 121.36 419.226 129.365 419.226C129.979 419.226 130.419 419.048 130.658 418.67L130.762 418.498C134.516 412.295 132.364 407.786 106.628 392.021L104.157 390.517C75.8402 373.376 55.9516 363.071 67.2633 350.765C68.5635 349.343 70.4057 348.714 72.6456 348.714C75.3032 348.714 78.5177 349.604 82.0579 351.093C97.0141 357.4 117.733 374.602 126.409 382.095C128.963 384.317 130.467 385.675 130.467 385.675C130.467 385.675 141.43 397.076 148.061 397.076C149.587 397.076 150.88 396.476 151.757 394.987C156.461 387.062 108.102 350.412 105.367 335.297C103.52 325.049 106.665 319.861 112.485 319.861C115.249 319.861 118.625 321.037 122.352 323.401C133.912 330.74 156.237 369.095 164.416 384.011C167.156 389.013 171.832 391.126 176.046 391.126C184.407 391.126 190.943 382.816 176.812 372.255C155.573 356.361 163.027 330.389 173.162 328.798C173.595 328.731 174.033 328.696 174.468 328.694C183.686 328.694 187.753 344.58 187.753 344.58C187.753 344.58 199.669 374.512 220.147 394.972C238.725 413.541 241.318 428.783 230.496 447.777L230.456 447.784ZM296.66 451.289L295.599 451.416L293.787 451.625C292.834 451.722 291.882 451.816 290.925 451.906L289.99 451.99L289.14 452.063L287.929 452.16C287.484 452.192 287.039 452.227 286.594 452.254L285.262 452.343L284.968 452.361L283.919 452.423L283.474 452.445L282.231 452.508L280.787 452.567L279.474 452.612L278.599 452.637H278.157C277.883 452.637 277.612 452.652 277.339 452.654H276.904C276.63 452.654 276.359 452.654 276.086 452.669L274.974 452.682H273.418C272.198 452.682 270.982 452.669 269.766 452.647L268.782 452.624C268.503 452.624 268.222 452.609 267.944 452.602L266.902 452.57L265.604 452.52L264.439 452.47L264.135 452.458L263.024 452.398C262.716 452.381 262.407 452.366 262.102 452.346L261.383 452.304C260.481 452.246 259.578 452.182 258.676 452.112L257.731 452.038L256.538 451.936L255.143 451.806C254.365 451.734 253.587 451.655 252.809 451.568H252.771C264.133 426.21 258.387 402.543 235.429 379.621C220.373 364.585 210.344 342.38 208.281 337.507C204.074 323.075 192.939 307.028 174.445 307.028C172.882 307.03 171.323 307.154 169.779 307.398C161.677 308.671 154.596 313.335 149.545 320.35C144.088 313.561 138.78 308.164 133.982 305.113C126.747 300.529 119.53 298.202 112.495 298.202C103.719 298.202 95.8705 301.807 90.4011 308.345L90.2644 308.512L89.9561 307.217L89.9437 307.162C88.9035 302.712 88.0297 298.222 87.3234 293.707C87.3234 293.675 87.3234 293.645 87.3085 293.615L87.1543 292.594C87.071 292.042 86.9897 291.487 86.9107 290.935C86.8461 290.475 86.7814 290.015 86.7217 289.558C86.6621 289.101 86.5974 288.641 86.5428 288.181C86.4831 287.718 86.4284 287.258 86.3737 286.798C86.3212 286.361 86.2708 285.923 86.222 285.486L86.2074 285.374C85.9831 283.355 85.791 281.334 85.6304 279.31L85.5434 278.14C85.5185 277.819 85.4961 277.496 85.4762 277.17C85.4762 277.095 85.4663 277.018 85.4613 276.949L85.3795 275.651C85.3497 275.181 85.3271 274.711 85.3022 274.241C85.2773 273.774 85.2525 273.304 85.2326 272.832L85.1829 271.601L85.168 271.228L85.1307 270.09L85.1036 269.125C85.1036 268.74 85.0859 268.352 85.0785 267.966L85.0586 266.751C85.0536 266.346 85.0586 265.943 85.0486 265.538C85.0362 265.13 85.0486 264.725 85.0486 264.317C85.0486 160.275 169.401 75.9225 273.468 75.9225C377.535 75.9225 461.887 160.275 461.887 264.317V266.751C461.887 267.156 461.877 267.564 461.867 267.966C461.867 268.305 461.855 268.635 461.845 268.973C461.845 269.274 461.832 269.573 461.82 269.863C461.82 270.244 461.798 270.622 461.785 271.002V271.034C461.753 271.86 461.718 272.685 461.683 273.51L461.668 273.784L461.604 275.017L461.544 275.994C461.405 278.309 461.223 280.623 461.002 282.933V282.965C460.962 283.398 460.918 283.833 460.87 284.265C460.761 285.272 460.649 286.279 460.537 287.286L460.41 288.298L460.254 289.486C460.199 289.921 460.139 290.354 460.077 290.786C460.01 291.271 459.938 291.753 459.868 292.236L459.694 293.374L459.491 294.667C459.421 295.097 459.351 295.525 459.269 295.955C459.185 296.382 459.12 296.81 459.046 297.24C458.896 298.095 458.742 298.948 458.576 299.801C458.245 301.499 457.9 303.192 457.534 304.882C457.442 305.302 457.348 305.725 457.251 306.145C451.948 300.991 444.927 298.185 437.181 298.185C430.152 298.185 422.928 300.509 415.696 305.096C410.895 308.144 405.593 313.544 400.131 320.333C395.072 313.315 387.991 308.654 379.899 307.378C378.355 307.137 376.794 307.013 375.23 307.01C356.736 307.01 345.596 323.053 341.395 337.489C339.309 342.365 329.29 364.563 314.222 379.628C291.281 402.495 285.483 426.068 296.675 451.302L296.66 451.289ZM491.171 400.549L491.096 400.77C491.044 400.912 490.992 401.053 490.934 401.193C490.845 401.404 490.75 401.61 490.651 401.817C490.41 402.309 490.136 402.786 489.836 403.244C489.42 403.863 488.965 404.454 488.471 405.011C488.356 405.14 488.247 405.267 488.118 405.394C487.944 405.585 487.757 405.772 487.573 405.958C484.225 409.277 479.123 412.183 473.355 414.854C472.702 415.149 472.04 415.445 471.369 415.741L470.703 416.037C470.258 416.233 469.815 416.43 469.348 416.621C468.893 416.815 468.436 417.006 467.978 417.195L466.591 417.77C463.347 419.105 460.023 420.375 456.778 421.633L455.394 422.17L454.021 422.707C453.111 423.063 452.211 423.418 451.324 423.774L450.004 424.306L448.709 424.838L448.07 425.104C447.647 425.283 447.229 425.457 446.817 425.636C437.275 429.728 430.414 433.892 431.855 439.06C431.895 439.207 431.94 439.346 431.99 439.481C432.119 439.863 432.296 440.226 432.514 440.564C432.644 440.768 432.793 440.96 432.959 441.134C434.655 442.894 437.74 442.615 441.631 441.218C441.946 441.104 442.27 440.982 442.595 440.853C442.819 440.768 443.04 440.679 443.264 440.589L443.6 440.448C444.49 440.07 445.432 439.65 446.396 439.19C446.638 439.078 446.881 438.968 447.125 438.839C451.881 436.515 457.273 433.38 462.623 430.528C463.443 430.083 464.266 429.658 465.084 429.235C466.422 428.542 467.772 427.873 469.134 427.234C474.201 424.853 478.962 423.162 482.793 423.162C484.588 423.162 486.176 423.53 487.496 424.375L487.717 424.522C488.386 424.994 488.968 425.573 489.443 426.24C489.552 426.396 489.667 426.558 489.764 426.724C489.868 426.896 489.967 427.073 490.062 427.252C491.954 430.841 490.37 434.563 486.666 438.21C483.108 441.711 477.574 445.144 471.282 448.323C470.817 448.56 470.347 448.796 469.875 449.025C451.152 458.218 426.642 465.142 426.294 465.229C419.761 466.922 410.418 469.147 399.892 470.81L398.333 471.051L398.08 471.088C395.693 471.446 393.299 471.762 390.9 472.036L390.679 472.058C386.316 472.555 381.841 472.916 377.358 473.067H377.291C375.68 473.127 374.072 473.154 372.461 473.154H370.606C368.15 473.12 365.696 473.01 363.247 472.821C363.19 472.821 363.131 472.821 363.071 472.809C362.196 472.742 361.318 472.66 360.446 472.563C358.944 472.401 357.445 472.202 355.951 471.968C355.369 471.872 354.748 471.77 354.148 471.665C353.875 471.616 353.604 471.566 353.333 471.511L353.268 471.499C352.406 471.335 351.548 471.153 350.693 470.957C350.198 470.845 349.701 470.733 349.211 470.601L348.918 470.524C348.674 470.464 348.435 470.4 348.197 470.335L348.065 470.3L347.297 470.079C347.018 470 346.742 469.917 346.464 469.835L346.364 469.806L345.641 469.584C345.368 469.5 345.097 469.41 344.826 469.323C344.602 469.249 344.381 469.172 344.157 469.1L343.667 468.928C343.195 468.764 342.727 468.59 342.26 468.411L341.817 468.239L341.452 468.093C340.748 467.809 340.047 467.513 339.354 467.203L338.891 466.981L338.814 466.947C338.65 466.87 338.489 466.793 338.325 466.723C338.004 466.569 337.686 466.41 337.37 466.248L337.275 466.201L336.818 465.96C336.005 465.537 335.207 465.085 334.426 464.602L333.999 464.341C333.777 464.207 333.576 464.07 333.365 463.934L332.808 463.563C332.607 463.429 332.405 463.292 332.209 463.15L331.851 462.897C331.473 462.626 331.103 462.35 330.737 462.064C330.543 461.915 330.352 461.761 330.16 461.619C329.735 461.278 329.32 460.928 328.91 460.567L328.892 460.552C328.492 460.207 328.102 459.849 327.721 459.483L327.702 459.459C327.503 459.27 327.309 459.081 327.115 458.884C326.923 458.688 326.729 458.494 326.543 458.298C326.354 458.099 326.165 457.897 325.981 457.691C325.802 457.497 325.628 457.301 325.454 457.102L325.394 457.035C324.497 455.993 323.657 454.902 322.879 453.765L322.57 453.311C322.366 453.01 322.165 452.706 321.966 452.403L321.379 451.501C321.091 451.061 320.81 450.616 320.537 450.168C320.34 449.85 320.146 449.532 319.955 449.211C319.793 448.938 319.632 448.667 319.478 448.398C319.391 448.251 319.309 448.102 319.227 447.953C319.145 447.799 319.048 447.642 318.961 447.486L318.821 447.24C318.774 447.157 318.759 447.133 318.734 447.078C318.565 446.782 318.401 446.481 318.242 446.176C318.17 446.044 318.098 445.91 318.021 445.778L317.797 445.35L317.576 444.925L317.148 444.062C317.079 443.921 317.011 443.779 316.944 443.637C316.798 443.331 316.658 443.031 316.519 442.73C316.465 442.608 316.407 442.486 316.358 442.364C316.166 441.949 315.985 441.529 315.813 441.104C315.696 440.823 315.589 440.545 315.475 440.266C315.154 439.446 314.854 438.618 314.578 437.78C314.496 437.531 314.413 437.285 314.341 437.037C314.162 436.472 314.001 435.903 313.857 435.329C313.68 434.66 313.523 433.984 313.392 433.305C313.307 432.905 313.233 432.502 313.17 432.097C313.103 431.697 313.046 431.296 312.999 430.899C312.897 430.106 312.825 429.31 312.783 428.512C312.783 428.38 312.77 428.246 312.768 428.114C312.755 427.851 312.748 427.587 312.745 427.324C312.606 416.703 317.983 406.488 329.477 395.005C349.947 374.552 361.87 344.612 361.87 344.612C361.87 344.612 362.191 343.357 362.86 341.552C363.083 340.953 363.317 340.356 363.563 339.767C363.844 339.1 364.145 338.442 364.468 337.795L364.562 337.606C364.978 336.781 365.428 335.978 365.917 335.195C366.029 335.013 366.139 334.832 366.268 334.653C366.631 334.111 367.016 333.586 367.421 333.077C367.735 332.686 368.068 332.309 368.418 331.951C369.607 330.727 370.962 329.728 372.496 329.193L372.689 329.131C372.819 329.089 372.946 329.049 373.077 329.012C373.231 328.972 373.386 328.935 373.54 328.903L373.609 328.89C373.935 328.826 374.261 328.781 374.591 328.758H374.621C374.793 328.758 374.964 328.741 375.141 328.741C375.581 328.743 376.018 328.778 376.453 328.845C378.298 329.136 380.056 330.235 381.567 331.931L381.771 332.169C382.263 332.746 382.711 333.363 383.109 334.009C383.407 334.489 383.688 334.993 383.954 335.523C384.061 335.747 384.163 335.951 384.265 336.169C384.314 336.281 384.364 336.391 384.411 336.505C384.511 336.726 384.603 336.95 384.695 337.184C385.214 338.516 385.617 339.891 385.9 341.293C386.201 342.807 386.375 344.344 386.425 345.887C386.442 346.566 386.442 347.252 386.425 347.948C386.413 348.212 386.4 348.478 386.38 348.744C386.176 351.7 385.533 354.609 384.468 357.376C384.362 357.649 384.245 357.927 384.135 358.206C383.601 359.484 382.979 360.722 382.278 361.915C381.878 362.596 381.445 363.273 380.983 363.944L380.7 364.346C379.603 365.878 378.38 367.315 377.043 368.642C375.725 369.963 374.313 371.183 372.819 372.299C371.32 373.406 369.915 374.634 368.617 375.969C364.881 379.892 364.011 383.35 364.851 385.973C364.95 386.269 365.067 386.56 365.201 386.84C365.512 387.45 365.915 388.009 366.397 388.496L366.529 388.628C366.666 388.76 366.81 388.887 366.957 389.008L367.106 389.13C367.469 389.409 367.852 389.657 368.252 389.873C368.366 389.936 368.473 389.998 368.605 390.057C369.154 390.331 369.729 390.55 370.32 390.716L370.484 390.759L370.706 390.818L370.9 390.865L371.106 390.91L371.312 390.952L371.509 390.985C371.655 391.012 371.804 391.034 371.951 391.054L372.095 391.074L372.351 391.102L372.51 391.117L372.774 391.136H372.926L373.199 391.149H374.062L374.308 391.136L374.591 391.119L374.937 391.087L375.26 391.047C375.332 391.047 375.407 391.027 375.481 391.015C376.62 390.848 377.729 390.527 378.778 390.06C379.002 389.965 379.223 389.861 379.427 389.752C379.864 389.533 380.289 389.287 380.697 389.016C381.266 388.643 381.803 388.223 382.308 387.765L382.659 387.432C382.713 387.377 382.771 387.325 382.823 387.268C383.166 386.925 383.489 386.562 383.79 386.182C384.322 385.51 384.794 384.797 385.204 384.046C390.07 375.201 395.169 366.485 400.496 357.918L401.227 356.747L401.965 355.573C402.336 354.981 402.706 354.395 403.077 353.816L403.452 353.231L404.2 352.065C405.205 350.512 406.212 348.975 407.226 347.454L407.984 346.32C409.506 344.068 411.025 341.875 412.526 339.789L413.277 338.76C414.91 336.503 416.613 334.297 418.381 332.144L419.085 331.304C419.199 331.162 419.306 331.026 419.433 330.889L420.121 330.091C420.236 329.959 420.345 329.83 420.464 329.703L421.131 328.95L421.466 328.587C421.789 328.236 422.118 327.891 422.451 327.548C422.674 327.326 422.881 327.103 423.097 326.896C424.357 325.606 425.747 324.45 427.246 323.448L427.592 323.227L427.942 323.003C428.166 322.864 428.392 322.73 428.624 322.603C434.501 319.269 439.368 319.023 442.168 321.822C443.866 323.52 444.803 326.332 444.753 330.243C444.753 330.417 444.753 330.588 444.738 330.767V330.961C444.738 331.138 444.723 331.319 444.711 331.501C444.711 331.722 444.684 331.946 444.661 332.167C444.639 332.391 444.629 332.56 444.607 332.756C444.607 332.813 444.594 332.87 444.587 332.928C444.569 333.102 444.547 333.278 444.524 333.452C444.524 333.507 444.524 333.559 444.502 333.614C444.477 333.85 444.442 334.086 444.4 334.32C444.373 334.536 444.338 334.752 444.296 334.969C444.278 335.093 444.254 335.215 444.234 335.339C444.169 335.692 444.084 336.043 443.983 336.386C443.791 337.027 443.557 337.656 443.281 338.268C443.162 338.534 443.035 338.8 442.906 339.061C442.638 339.6 442.334 340.152 442.001 340.724C441.835 341.005 441.663 341.296 441.479 341.587L441.201 342.029C440.917 342.474 440.621 342.924 440.313 343.379C440.005 343.834 439.674 344.299 439.319 344.769C438.859 345.395 438.374 346.034 437.862 346.68L437.474 347.17C436.378 348.535 435.254 349.878 434.105 351.198L433.193 352.229L432.728 352.751C432.094 353.46 431.458 354.164 430.816 354.862L430.324 355.394C429.998 355.747 429.658 356.105 429.332 356.461C428.999 356.821 428.661 357.179 428.323 357.537L427.299 358.616L426.262 359.698C425.916 360.058 425.568 360.423 425.218 360.784L423.107 362.959C413.026 373.299 402.403 383.604 398.808 390.033C398.569 390.453 398.353 390.883 398.157 391.323C397.647 392.491 397.433 393.491 397.578 394.299C397.625 394.565 397.719 394.821 397.856 395.052C398.06 395.403 398.306 395.726 398.589 396.014C398.721 396.143 398.858 396.265 399.007 396.375C399.745 396.902 400.64 397.173 401.548 397.145H401.831L402.122 397.125L402.415 397.091L402.657 397.056C402.689 397.053 402.721 397.046 402.754 397.038L402.975 396.996L403.034 396.981L403.278 396.929L403.626 396.839L403.937 396.747C404.141 396.685 404.345 396.616 404.553 396.539C405.003 396.38 405.443 396.196 405.874 395.989C405.983 395.937 406.095 395.887 406.202 395.83L406.532 395.666C406.965 395.447 407.395 395.211 407.828 394.955C408.173 394.751 408.516 394.542 408.859 394.321L409.192 394.1C409.302 394.03 409.414 393.958 409.523 393.876L409.854 393.655L410.028 393.533L410.505 393.2C410.95 392.892 411.365 392.576 411.788 392.255L411.825 392.228L412.491 391.711C413.404 390.99 414.272 390.264 415.055 389.58L415.577 389.12L415.626 389.075L415.897 388.834C416.539 388.26 417.111 387.723 417.588 387.278L417.782 387.089L418.252 386.644L418.533 386.371L418.63 386.271L418.657 386.244C418.896 386.005 418.896 386.005 419.134 385.764L419.154 385.744L419.244 385.665C419.271 385.635 419.308 385.605 419.351 385.568L419.385 385.535L419.48 385.451L419.984 385.006L420.268 384.75C420.407 384.63 420.559 384.494 420.713 384.347L421.053 384.049C421.113 383.999 421.173 383.942 421.235 383.887L421.59 383.576L422.115 383.119L422.391 382.878C423.472 381.935 424.79 380.799 426.299 379.519L426.918 378.997L427.942 378.139L428.987 377.264C430.354 376.13 431.826 374.925 433.382 373.672L434.404 372.851C435.274 372.16 436.169 371.452 437.074 370.741C437.437 370.455 437.807 370.169 438.185 369.885C439.112 369.169 440.045 368.456 440.979 367.752C443.112 366.141 445.313 364.528 447.538 362.954L448.495 362.291C449.161 361.828 449.827 361.368 450.496 360.918L451.1 360.508C452.296 359.703 453.502 358.914 454.717 358.144L455.322 357.763L455.921 357.39C456.52 357.02 457.119 356.652 457.711 356.297L458.305 355.944L459.496 355.25C459.886 355.024 460.274 354.802 460.662 354.584L460.895 354.452L461.82 353.947C462.203 353.738 462.588 353.537 462.969 353.341L463.54 353.047L464.092 352.766C465.355 352.132 466.641 351.546 467.948 351.009C468.127 350.934 468.304 350.862 468.48 350.785C468.831 350.638 469.179 350.504 469.524 350.385C469.87 350.268 470.211 350.146 470.546 350.027C470.852 349.925 471.148 349.83 471.436 349.741L471.533 349.711C471.687 349.664 471.841 349.619 471.996 349.579L472.04 349.567C472.354 349.477 472.667 349.395 472.983 349.321H473.007C473.472 349.209 473.925 349.114 474.367 349.04C474.519 349.015 474.668 348.99 474.812 348.97C475.242 348.906 475.675 348.861 476.108 348.831C476.381 348.811 476.657 348.804 476.93 348.804H477.139C477.418 348.804 477.686 348.821 477.952 348.848C478.074 348.848 478.196 348.871 478.315 348.888H478.365C478.484 348.901 478.606 348.92 478.723 348.945C478.84 348.97 478.959 348.988 479.073 349.015H479.113C479.228 349.04 479.334 349.072 479.454 349.104C480.403 349.36 481.276 349.843 482 350.509L482.064 350.574L482.191 350.698L482.315 350.83C483.312 351.879 484.138 353.08 484.759 354.387L484.856 354.609C485.067 355.106 485.234 355.62 485.351 356.147C485.674 357.617 485.587 359.148 485.097 360.57C484.886 361.189 484.627 361.791 484.322 362.368L484.118 362.736C483.342 364.036 482.427 365.246 481.385 366.345L481.162 366.581C480.672 367.101 480.162 367.606 479.638 368.091C479.471 368.247 479.3 368.404 479.126 368.56L478.862 368.799C478.315 369.284 477.756 369.756 477.189 370.219C477.09 370.298 476.988 370.378 476.891 370.462C476.495 370.78 476.088 371.104 475.665 371.427C474.208 372.541 472.724 373.615 471.212 374.651C470.322 375.26 469.403 375.874 468.453 376.498C466.683 377.659 464.9 378.796 463.1 379.909C462.581 380.23 462.059 380.556 461.527 380.879C456.637 383.887 451.215 387.104 445.432 390.602L443.935 391.512C442.297 392.511 440.751 393.466 439.296 394.373L438.563 394.836L437.176 395.726C436.626 396.074 436.092 396.417 435.572 396.755C435.179 397.006 434.796 397.255 434.421 397.501L433.68 397.988C433.32 398.224 432.962 398.46 432.604 398.702L432.256 398.923C431.888 399.169 431.53 399.41 431.182 399.649L430.612 400.037L429.944 400.501L429.327 400.932C428.353 401.615 427.391 402.314 426.436 403.025L426.103 403.278C425.727 403.562 425.364 403.845 425.014 404.121L424.556 404.487C423.786 405.106 423.087 405.7 422.456 406.267L422.147 406.55C421.971 406.712 421.797 406.873 421.633 407.032C421.516 407.142 421.409 407.254 421.292 407.363L421.131 407.522C420.775 407.878 420.43 408.243 420.094 408.618L419.93 408.807C419.564 409.23 419.246 409.635 418.965 410.031L418.841 410.21C418.518 410.682 418.232 411.182 417.988 411.701L417.904 411.883L417.851 412.009L417.809 412.119L417.752 412.271C417.735 412.323 417.7 412.415 417.68 412.494C417.578 412.79 417.503 413.096 417.454 413.407L417.429 413.573L417.409 413.725L417.396 413.872V414.652C417.396 414.717 417.396 414.784 417.411 414.851C417.414 414.891 417.419 414.931 417.424 414.97C417.424 415.035 417.441 415.1 417.449 415.167L417.496 415.44V415.453C417.513 415.54 417.531 415.627 417.553 415.714C417.575 415.801 417.598 415.898 417.625 415.99C417.705 416.271 417.802 416.549 417.914 416.82C417.914 416.84 417.931 416.862 417.938 416.882C417.968 416.949 417.996 417.019 418.028 417.086C418.15 417.369 418.286 417.645 418.436 417.916L418.592 418.197L418.756 418.481L418.928 418.764C418.958 418.811 418.99 418.854 419.027 418.896L419.085 418.956L419.144 419.01L419.211 419.062C419.256 419.095 419.303 419.122 419.353 419.149C419.403 419.172 419.457 419.197 419.512 419.217C419.572 419.236 419.631 419.254 419.691 419.269C421.126 419.592 424.074 418.404 427.99 416.335L428.693 415.962L429.884 415.313L430.468 414.99C430.881 414.767 431.306 414.518 431.736 414.272L432.524 413.827C437.703 410.846 443.891 407.015 450.285 403.276C450.881 402.925 451.483 402.577 452.085 402.229L453.293 401.459C453.897 401.11 454.499 400.767 455.103 400.429C457.673 398.968 460.279 397.563 462.911 396.218L464.092 395.619C464.878 395.231 465.656 394.853 466.424 394.485C467.913 393.779 469.418 393.11 470.936 392.476L471.769 392.138L471.871 392.099C476.282 390.351 480.282 389.269 483.518 389.269C484.22 389.264 484.918 389.322 485.609 389.441H485.629C485.853 389.481 486.054 389.525 486.258 389.578H486.295C486.594 389.65 486.887 389.742 487.171 389.856C487.397 389.938 487.616 390.035 487.827 390.149C488.754 390.619 489.547 391.313 490.139 392.168C490.189 392.24 490.236 392.315 490.281 392.392C490.499 392.725 490.688 393.076 490.842 393.443C490.934 393.655 491.019 393.874 491.099 394.11C491.178 394.348 491.248 394.577 491.32 394.823C491.847 396.708 491.795 398.701 491.171 400.556V400.549Z" fill="#FF9D00"/>
<path d="M461.661 265.456V264.237C461.661 160.195 377.333 75.843 273.266 75.843C169.224 75.843 84.8471 160.195 84.8471 264.237L84.8418 264.645C84.8418 264.916 84.8418 265.185 84.8418 265.456C84.8566 265.861 84.8608 266.266 84.8571 266.671L84.872 267.566L84.877 267.889L84.8894 268.332C84.8944 268.571 84.9018 268.807 84.9018 269.045L84.9267 270.013L84.9665 271.149L84.9789 271.522L85.0286 272.698V272.752L85.0982 274.127V274.162C85.1231 274.632 85.1479 275.102 85.1778 275.569C85.2026 276.004 85.23 276.437 85.2598 276.869L85.2673 276.946C85.2892 277.317 85.314 277.69 85.3419 278.06L85.3493 278.157C85.3742 278.515 85.4015 278.875 85.4314 279.231L85.4363 279.3L85.486 279.922C85.635 281.714 85.809 283.507 86.0081 285.294L86.0206 285.406L86.1697 286.719L86.3413 288.101C86.4564 289.021 86.5792 289.938 86.7092 290.856C86.7868 291.41 86.8673 291.962 86.9503 292.514L86.9628 292.581C87.1485 293.829 87.3489 295.077 87.5644 296.32C88.1827 299.927 88.9089 303.517 89.7422 307.082L89.7546 307.14L89.8342 307.475C89.9088 307.793 89.9834 308.112 90.0629 308.432L90.1996 308.266C95.669 301.727 103.515 298.123 112.293 298.123C119.329 298.123 126.548 300.447 133.78 305.034C138.579 308.082 143.884 313.481 149.343 320.271C154.395 313.253 161.475 308.591 169.575 307.319C171.121 307.075 172.682 306.951 174.244 306.948C192.733 306.948 203.878 322.993 208.079 337.427C210.155 342.305 220.174 364.501 235.277 379.541C258.236 402.48 263.991 426.155 252.62 451.488H252.657C253.433 451.573 254.211 451.652 254.991 451.724C255.456 451.769 255.921 451.814 256.386 451.854L256.55 451.869C256.891 451.901 257.234 451.931 257.577 451.956L258.522 452.033C259.422 452.102 260.324 452.164 261.231 452.224L261.947 452.266L262.517 452.299L262.872 452.319L263.981 452.378L264.284 452.391L265.453 452.44L266.748 452.49L267.792 452.52L267.966 452.527C268.185 452.535 268.409 452.545 268.63 452.545L268.866 452.55C270.333 452.585 271.797 452.602 273.264 452.602H274.82L275.934 452.59C276.207 452.575 276.478 452.575 276.752 452.575H277.184L277.56 452.567C277.707 452.562 277.856 452.557 278.002 452.557H278.447L279.32 452.532L280.633 452.488L282.08 452.426C282.495 452.408 282.907 452.388 283.323 452.366L283.768 452.341L284.426 452.304L284.817 452.281L285.108 452.264L286.443 452.174C286.888 452.147 287.333 452.112 287.778 452.077L288.986 451.983L289.839 451.911L290.771 451.826C291.728 451.737 292.683 451.642 293.632 451.543C294.239 451.476 294.841 451.409 295.445 451.337L296.506 451.21C285.321 425.976 291.111 402.408 313.978 379.561C329.049 364.503 339.063 342.295 341.151 337.422C345.36 322.991 356.485 306.943 374.986 306.943C376.55 306.946 378.111 307.067 379.655 307.314C387.747 308.586 394.83 313.25 399.889 320.266C405.351 313.476 410.654 308.077 415.452 305.029C422.684 300.442 429.909 298.118 436.937 298.118C444.683 298.118 451.707 300.927 457.009 306.078C457.3 304.78 457.581 303.483 457.85 302.18C458.014 301.367 458.175 300.551 458.334 299.734C458.528 298.729 458.712 297.72 458.881 296.71C458.926 296.437 458.973 296.164 459.026 295.888C459.108 295.457 459.18 295.032 459.247 294.6L459.274 294.436L459.451 293.31L459.625 292.168L459.627 292.156C459.697 291.679 459.769 291.199 459.834 290.719C459.886 290.356 459.936 289.993 459.983 289.628L460.013 289.419L460.167 288.23L460.294 287.219C460.371 286.552 460.445 285.886 460.517 285.217C460.55 284.951 460.577 284.683 460.604 284.414L460.629 284.198C460.676 283.753 460.719 283.311 460.758 282.866L460.858 281.831C461.064 279.539 461.231 277.247 461.36 274.95V274.935L461.427 273.717L461.44 273.443L461.489 272.287C461.509 271.852 461.527 271.412 461.542 270.967V270.935L461.554 270.614C461.566 270.341 461.576 270.067 461.576 269.796L461.581 269.684C461.591 269.431 461.601 269.167 461.601 268.906L461.609 268.682C461.616 268.421 461.624 268.163 461.624 267.902L461.629 267.681C461.636 267.347 461.643 267.017 461.643 266.684L461.661 265.456ZM226.553 453.676C241.472 431.794 240.415 415.366 219.943 394.905C199.47 374.445 187.549 344.513 187.549 344.513C187.549 344.513 183.102 327.13 172.958 328.729C162.815 330.325 155.374 356.299 176.61 372.185C197.847 388.084 172.387 398.861 164.212 383.944C156.036 369.023 133.733 330.668 122.148 323.334C110.578 315.997 102.441 320.109 105.168 335.23C106.523 342.735 119.123 355.543 130.899 367.499C142.842 379.643 153.933 390.918 151.563 394.895C146.857 402.821 130.283 385.585 130.283 385.585C130.283 385.585 78.3734 338.35 67.0866 350.656C56.6725 362 72.7325 371.643 97.4913 386.505C99.597 387.77 101.765 389.073 103.985 390.415C132.301 407.559 134.514 412.082 130.486 418.558C129.002 420.954 119.523 415.264 107.863 408.263C87.987 396.33 61.7714 380.593 58.0672 394.679C54.8626 406.868 74.1446 414.336 91.6291 421.106C106.197 426.749 119.523 431.91 117.559 438.916C115.528 446.178 104.517 440.122 92.4744 433.499C78.9626 426.063 64.158 417.916 59.3102 427.11C50.1515 444.487 122.481 464.948 123.078 465.097C146.447 471.158 205.79 484.001 226.548 453.604L226.553 453.676ZM322.665 453.676C307.743 431.794 308.802 415.366 329.275 394.905C349.748 374.445 361.669 344.513 361.669 344.513C361.669 344.513 366.114 327.13 376.257 328.729C386.4 330.325 393.843 356.299 372.605 372.185C351.366 388.071 376.829 398.861 385.005 383.944C393.18 369.023 415.485 330.668 427.045 323.334C438.605 316 446.754 320.109 444.027 335.23C442.672 342.735 430.073 355.546 418.296 367.524C406.356 379.666 395.265 390.94 397.635 394.92C402.338 402.846 418.928 385.6 418.928 385.6C418.928 385.6 470.837 338.365 482.124 350.671C492.538 362.015 476.475 371.661 451.719 386.52C449.613 387.783 447.448 389.083 445.228 390.428C416.912 407.569 414.699 412.094 418.726 418.57C420.211 420.967 429.69 415.276 441.347 408.278C461.226 396.345 487.439 380.608 491.143 394.691C494.348 406.881 475.066 414.351 457.581 421.118C443.013 426.762 429.688 431.92 431.651 438.929C433.683 446.19 444.688 440.132 456.711 433.509C470.223 426.073 485.027 417.924 489.875 427.12C499.034 444.51 426.704 464.958 426.108 465.107C402.738 471.185 343.396 484.028 322.662 453.631L322.665 453.676Z" fill="#FFD21E"/>
<path d="M334.623 212.95C337.559 213.989 339.744 217.154 341.822 220.162C344.632 224.232 347.247 228.015 351.259 225.882C355.995 223.366 359.876 219.503 362.414 214.78C364.953 210.056 366.032 204.689 365.517 199.351C365.134 195.361 363.871 191.505 361.818 188.062C359.764 184.618 356.972 181.673 353.646 179.438C350.317 177.203 346.533 175.736 342.571 175.139C338.605 174.543 334.558 174.833 330.72 175.99C325.586 177.536 321.026 180.569 317.615 184.706C314.207 188.843 312.099 193.897 311.559 199.229C311.022 204.564 312.079 209.939 314.595 214.673C316.454 218.171 320.581 216.522 324.937 214.78C328.353 213.415 331.908 211.993 334.623 212.95ZM206.888 212.952C203.952 213.991 201.765 217.156 199.686 220.164C196.877 224.232 194.262 228.018 190.249 225.885C186.711 224.003 183.636 221.358 181.242 218.143C178.848 214.929 177.197 211.224 176.407 207.294C175.616 203.366 175.706 199.309 176.67 195.42C177.637 191.53 179.452 187.903 181.985 184.797C184.524 181.695 187.716 179.194 191.335 177.471C194.955 175.748 198.913 174.853 202.921 174.843C206.928 174.835 210.888 175.714 214.516 177.419C218.143 179.124 221.347 181.613 223.898 184.703C227.309 188.84 229.417 193.894 229.957 199.229C230.494 204.564 229.437 209.939 226.919 214.673C225.054 218.171 220.927 216.52 216.572 214.777C213.158 213.412 209.603 211.993 206.888 212.952ZM314.858 329.176C335.102 313.225 342.528 287.186 342.528 271.151C342.528 258.472 333.996 262.462 320.34 269.222L319.572 269.605C307.035 275.813 290.336 284.076 272.038 284.076C253.718 284.076 237.034 275.81 224.505 269.602C210.406 262.619 201.563 258.239 201.563 271.154C201.563 287.698 209.474 314.859 231.197 330.645C234.061 324.828 238.093 319.664 243.046 315.478C247.996 311.291 253.758 308.174 259.971 306.317C262.139 305.67 264.371 309.402 266.658 313.22C268.864 316.907 271.116 320.676 273.411 320.676C275.852 320.676 278.253 316.962 280.598 313.335C283.047 309.546 285.433 305.852 287.743 306.59C299.368 310.322 309.091 318.414 314.866 329.169L314.858 329.176Z" fill="#32343D"/>
<path d="M314.734 329.248C304.191 337.557 290.177 343.128 271.924 343.128C254.778 343.128 241.37 338.21 231.078 330.725C233.944 324.91 237.979 319.746 242.929 315.562C247.879 311.376 253.641 308.256 259.852 306.396C264.11 305.126 268.62 320.756 273.289 320.756C278.288 320.756 283.104 305.225 287.624 306.67C299.243 310.404 308.964 318.496 314.747 329.248H314.734Z" fill="#FF323D"/>
<path d="M158.435 235.523C156.511 236.819 154.35 237.721 152.078 238.178C149.805 238.636 147.464 238.641 145.189 238.193C142.914 237.743 140.749 236.851 138.82 235.566C136.891 234.278 135.235 232.625 133.947 230.695C132.658 228.769 131.763 226.603 131.312 224.331C130.861 222.056 130.864 219.714 131.319 217.44C131.775 215.167 132.675 213.007 133.967 211.08C135.26 209.156 136.92 207.505 138.852 206.222C142.738 203.644 147.489 202.71 152.061 203.627C156.632 204.544 160.657 207.237 163.248 211.113C165.838 214.991 166.788 219.737 165.886 224.311C164.983 228.888 162.303 232.92 158.435 235.523ZM410.522 235.523C408.598 236.819 406.438 237.721 404.165 238.178C401.893 238.636 399.551 238.641 397.277 238.193C395.002 237.743 392.836 236.851 390.907 235.566C388.978 234.278 387.322 232.625 386.035 230.695C384.744 228.769 383.849 226.603 383.399 224.331C382.949 222.056 382.952 219.714 383.407 217.44C383.862 215.167 384.762 213.007 386.054 211.08C387.347 209.156 389.008 207.505 390.94 206.222C394.825 203.644 399.576 202.71 404.148 203.627C408.72 204.544 412.742 207.237 415.335 211.113C417.926 214.991 418.876 219.737 417.973 224.311C417.071 228.888 414.391 232.92 410.522 235.523Z" fill="#FFAD03"/>
</svg>
