<svg width="36" height="37" viewBox="0 0 36 37" fill="none" xmlns="http://www.w3.org/2000/svg">
<g clip-path="url(#clip0_202_14978)">
<path d="M19.765 15.579C21.2635 15.5375 22.6929 15.5733 24.1894 15.4755C24.4617 15.4577 24.7297 15.3781 25.0004 15.3312C25.5549 15.2355 25.9051 14.8933 26.0388 14.3712C26.181 13.8167 26.3304 13.248 26.351 12.681C26.4326 10.4317 26.4849 8.18077 26.5077 5.93009C26.5192 4.78799 26.1548 3.77505 25.2765 2.97682C24.8708 2.60813 24.4916 2.20158 24.1508 1.77203C23.606 1.08543 23.6981 0.755307 24.5419 0.580009C25.4688 0.387602 26.4162 0.224646 27.3593 0.194775C29.5081 0.126759 31.6597 0.126198 33.8096 0.148076C34.3474 0.153545 34.9041 0.289436 35.4147 0.470623C36.0354 0.690937 36.1036 1.14699 35.6916 1.66475C35.4495 1.96879 35.1396 2.16821 34.8245 2.40942C34.2505 2.84864 33.6309 3.23612 33.1025 3.72331C32.8533 3.95316 32.6763 4.35185 32.632 4.6953C32.5268 5.5112 32.5207 6.42275 32.5058 7.24665C32.4727 9.07297 32.4717 10.8997 32.4515 12.7262C32.4395 13.8268 32.4274 14.9275 32.3951 16.0275C32.3491 17.5989 31.1728 18.7575 29.6027 18.7713C27.4754 18.7901 25.3476 18.8125 23.2205 18.792C21.3703 18.7742 19.5189 18.6253 17.6713 18.6692C15.7758 18.7142 13.8843 18.9227 11.9912 19.0606C11.9164 19.0661 11.8417 19.0776 11.7682 19.0927C10.3082 19.3931 10.0138 19.7201 9.83307 21.228C9.53142 23.7459 9.61234 26.2729 9.65174 28.7989C9.66114 29.3992 9.69816 29.9994 9.69297 30.5995C9.68316 31.7596 10.0647 32.7468 10.8964 33.5675C11.2335 33.9003 11.5485 34.2616 11.8315 34.6413C12.2909 35.2579 12.1857 35.5635 11.4241 35.7422C10.8425 35.8786 10.2402 36.0035 9.6474 36.0022C7.17234 35.9974 4.69643 35.9684 2.22291 35.8872C1.66771 35.8691 1.09035 35.6711 0.577077 35.4376C-0.0591833 35.148 -0.121449 34.5877 0.403182 34.115C0.751253 33.8013 1.17968 33.5762 1.57445 33.3149C1.92827 33.081 2.30776 32.8799 2.63591 32.6147C3.26614 32.1054 3.64226 31.4387 3.68307 30.6158C3.76357 28.9927 3.86468 27.3696 3.89792 25.7453C3.94588 23.3938 3.93844 21.0413 3.96257 18.6892C3.96593 18.366 3.97449 18.0333 4.04993 17.7219C4.36042 16.4398 5.43717 15.6025 6.7892 15.5975C9.49201 15.5877 12.1948 15.5946 14.8978 15.5946C17.625 15.5586 18.166 15.6234 19.765 15.579ZM26.7315 23.6366C28.7384 23.4755 30.3751 23.9758 31.5073 25.649C32.0419 26.439 32.1451 27.337 32.1787 28.2859C32.2139 29.2809 32.3138 30.2767 32.4443 31.2643C32.5652 32.1783 33.1186 32.8801 33.9438 33.3395C34.3145 33.5459 34.6891 33.7501 35.0372 33.9911C35.3762 34.2257 35.8625 34.4234 35.7924 34.9222C35.7221 35.4216 35.2182 35.5019 34.8102 35.5982C34.3255 35.7125 33.8327 35.8273 33.3381 35.8593C30.8176 36.0223 28.2958 36.0921 25.7839 35.7387C25.4171 35.6871 25.0478 35.5884 24.7052 35.4487C24.2201 35.251 24.0975 34.9925 24.2742 34.4956C24.3791 34.2007 24.5731 33.9228 24.7793 33.682C25.1201 33.2843 25.502 32.9216 25.8689 32.5465C26.4217 31.9813 26.6683 31.3079 26.6709 30.5148C26.6777 28.3412 26.7096 26.1675 26.7313 23.9939C26.7323 23.8987 26.7315 23.8035 26.7315 23.6366ZM9.51888 10.73C7.46972 10.682 5.90915 9.84593 4.74349 8.25858C4.14019 7.43706 3.84247 6.49719 3.66492 5.49434C3.54909 4.84055 3.36341 4.16769 3.04844 3.59103C2.81214 3.15812 2.34346 2.83501 1.93579 2.51751C1.48408 2.16565 0.960432 1.90579 0.511249 1.55113C-0.00665008 1.14234 0.0466404 0.794545 0.68851 0.609852C1.40415 0.403982 2.14839 0.241166 2.88927 0.189979C5.35872 0.0193089 7.83294 -0.110411 10.3053 0.149169C10.7244 0.193064 11.1486 0.276506 11.5466 0.411695C12.1499 0.616863 12.287 1.01879 11.9805 1.58801C11.8763 1.7814 11.7226 1.95572 11.564 2.1104C11.3317 2.33702 11.0688 2.53181 10.8293 2.75157C10.1254 3.39694 9.63191 4.12674 9.63402 5.14992C9.63752 6.84961 9.5761 8.54943 9.54132 10.2493C9.53866 10.3736 9.52996 10.4978 9.51888 10.73Z" fill="#373737"/>
</g>
<defs>
<clipPath id="clip0_202_14978">
<rect width="36" height="37" fill="white"/>
</clipPath>
</defs>
</svg>
