<svg width="37" height="32" viewBox="0 0 37 32" fill="none" xmlns="http://www.w3.org/2000/svg">
<g clip-path="url(#clip0_202_13029)">
<path d="M1.8601 0.933685H34.1531C34.7884 0.933685 35.3035 1.44766 35.3035 2.08168V29.8794C35.3035 30.5135 34.7884 31.0274 34.1531 31.0274H1.8601C1.22476 31.0274 0.709717 30.5135 0.709717 29.8794V2.08168C0.709717 1.44766 1.22476 0.933685 1.8601 0.933685Z" fill="black"/>
<path d="M1.01556 2.3188V29.6821C1.01556 30.2391 1.46755 30.691 2.02492 30.691H33.9883C34.5459 30.691 34.9976 30.2393 34.9976 29.6821V2.3188C34.9976 1.76178 34.5456 1.30984 33.9883 1.30984H2.02492C1.46727 1.30984 1.01556 1.7615 1.01556 2.3188ZM0.0065918 2.3188C0.0065918 1.20433 0.909972 0.300873 2.02492 0.300873H33.9883C35.103 0.300873 36.0066 1.20463 36.0066 2.3188V29.6821C36.0066 30.7965 35.1032 31.7 33.9883 31.7H2.02492C0.91023 31.7 0.0065918 30.7962 0.0065918 29.6821V2.3188Z" fill="url(#paint0_linear_202_13029)"/>
<path d="M10.715 12.0162H16.1271V13.0671H10.715V12.0162ZM9.06367 9.29334L4.29857 13.5748L5.78163 9.82783L3.68823 8.41591L8.45333 4.13486L6.84028 8.12096L9.06367 9.29334Z" fill="white"/>
</g>
<defs>
<linearGradient id="paint0_linear_202_13029" x1="17.2694" y1="30.9447" x2="17.2694" y2="0.300873" gradientUnits="userSpaceOnUse">
<stop stop-color="#FFB300"/>
<stop offset="0.61372" stop-color="#DC3939"/>
<stop offset="1" stop-color="#FF1BB4"/>
</linearGradient>
<clipPath id="clip0_202_13029">
<rect width="37" height="32" fill="white"/>
</clipPath>
</defs>
</svg>
