<svg width="41" height="26" viewBox="0 0 41 26" fill="none" xmlns="http://www.w3.org/2000/svg">
<g clip-path="url(#clip0_202_13212)">
<path d="M22.9391 0.150577C21.0131 0.154468 19.1228 0.670918 17.4624 1.64689C15.802 2.62287 14.4313 4.02319 13.4911 5.70407C12.6817 5.30996 11.7936 5.10454 10.8934 5.10328C9.4825 5.10698 8.11879 5.61174 7.04549 6.52753C5.97218 7.44332 5.25908 8.71058 5.03336 10.1033C3.54301 10.7273 2.27033 11.7779 1.37523 13.123C0.480129 14.4681 0.0025299 16.0478 0.00244141 17.6635C0.00454402 19.8367 0.869593 21.9201 2.4074 23.4557C3.94521 24.9913 6.02988 25.8533 8.20309 25.8523C8.547 25.8492 8.89038 25.8244 9.23118 25.7782H32.0173C32.137 25.7868 32.2568 25.7926 32.3768 25.7956C32.491 25.7923 32.6052 25.7865 32.7193 25.7782H33.265V25.7376C35.1202 25.5182 36.8309 24.6225 38.0727 23.2203C39.3145 21.8181 40.0011 20.0068 40.0024 18.1298V18.1151C39.9981 16.3325 39.3756 14.6072 38.2421 13.2359C37.1085 11.8646 35.5347 10.9331 33.7915 10.6017C33.688 7.79346 32.499 5.13488 30.4749 3.18557C28.4507 1.23625 25.7492 0.148256 22.9391 0.150577Z" fill="url(#paint0_linear_202_13212)"/>
</g>
<defs>
<linearGradient id="paint0_linear_202_13212" x1="40.1239" y1="18.1506" x2="-0.0123326" y2="17.597" gradientUnits="userSpaceOnUse">
<stop stop-color="#3E82F4"/>
<stop offset="1" stop-color="#93DCF7"/>
</linearGradient>
<clipPath id="clip0_202_13212">
<rect width="41" height="26" fill="white"/>
</clipPath>
</defs>
</svg>
