<svg width="24" height="24" viewBox="0 0 24 24" fill="none" xmlns="http://www.w3.org/2000/svg">
<path d="M13.484 21.8C12.824 21.8 12.197 21.6746 11.603 21.4238C11.009 21.173 10.481 20.8232 10.019 20.3744C9.51739 20.546 8.99599 20.6318 8.45479 20.6318C7.57039 20.6318 6.75199 20.414 5.99959 19.9784C5.24719 19.5428 4.63999 18.9488 4.17799 18.1964C3.72919 17.444 3.50479 16.6058 3.50479 15.6818C3.50479 15.299 3.55759 14.8832 3.66319 14.4344C3.13519 13.946 2.72599 13.385 2.43559 12.7514C2.14519 12.1046 1.99999 11.4314 1.99999 10.7318C1.99999 10.019 2.15179 9.33259 2.45539 8.67259C2.75899 8.01259 3.18139 7.44499 3.72259 6.96979C4.27699 6.48139 4.91719 6.14479 5.64319 5.95999C5.78839 5.20759 6.09199 4.53439 6.55399 3.94039C7.02919 3.33319 7.60999 2.85799 8.29639 2.51479C8.98279 2.17159 9.71539 1.99999 10.4942 1.99999C11.1542 1.99999 11.7812 2.12539 12.3752 2.37619C12.9692 2.62699 13.4972 2.97679 13.9592 3.42559C14.4608 3.25399 14.9822 3.16819 15.5234 3.16819C16.4078 3.16819 17.2262 3.38599 17.9786 3.82159C18.731 4.25719 19.3316 4.85119 19.7804 5.60359C20.2424 6.35599 20.4734 7.19419 20.4734 8.11819C20.4734 8.50099 20.4206 8.91679 20.315 9.36559C20.843 9.85399 21.2522 10.4216 21.5426 11.0684C21.833 11.702 21.9782 12.3686 21.9782 13.0682C21.9782 13.781 21.8264 14.4674 21.5228 15.1274C21.2192 15.7874 20.7902 16.3616 20.2358 16.85C19.6946 17.3252 19.061 17.6552 18.335 17.84C18.1898 18.5924 17.8796 19.2656 17.4044 19.8596C16.9424 20.4668 16.3682 20.942 15.6818 21.2852C14.9954 21.6284 14.2628 21.8 13.484 21.8ZM8.59339 19.325C9.25339 19.325 9.82759 19.1864 10.316 18.9092L14.0384 16.7708C14.1704 16.6784 14.2364 16.553 14.2364 16.3946V14.6918L9.44479 17.444C9.15439 17.6156 8.86399 17.6156 8.57359 17.444L4.83139 15.2858C4.83139 15.3254 4.82479 15.3716 4.81159 15.4244C4.81159 15.4772 4.81159 15.5564 4.81159 15.662C4.81159 16.3352 4.96999 16.9556 5.28679 17.5232C5.61679 18.0776 6.07219 18.5132 6.65299 18.83C7.23379 19.16 7.88059 19.325 8.59339 19.325ZM8.79139 16.0976C8.87059 16.1372 8.94319 16.157 9.00919 16.157C9.07519 16.157 9.14119 16.1372 9.20719 16.0976L10.6922 15.2462L5.92039 12.4742C5.62999 12.3026 5.48479 12.0452 5.48479 11.702V7.40539C4.82479 7.69579 4.29679 8.14459 3.90079 8.75179C3.50479 9.34579 3.30679 10.0058 3.30679 10.7318C3.30679 11.3786 3.47179 11.999 3.80179 12.593C4.13179 13.187 4.56079 13.6358 5.08879 13.9394L8.79139 16.0976ZM13.484 20.4932C14.1836 20.4932 14.8172 20.3348 15.3848 20.018C15.9524 19.7012 16.4012 19.2656 16.7312 18.7112C17.0612 18.1568 17.2262 17.5364 17.2262 16.85V12.5732C17.2262 12.4148 17.1602 12.296 17.0282 12.2168L15.5234 11.3456V16.8698C15.5234 17.213 15.3782 17.4704 15.0878 17.642L11.3456 19.8002C11.9924 20.2622 12.7052 20.4932 13.484 20.4932ZM14.2364 13.2464V10.5536L11.999 9.28639L9.74179 10.5536V13.2464L11.999 14.5136L14.2364 13.2464ZM8.45479 6.93019C8.45479 6.58699 8.59999 6.32959 8.89039 6.15799L12.6326 3.99979C11.9858 3.53779 11.273 3.30679 10.4942 3.30679C9.79459 3.30679 9.16099 3.46519 8.59339 3.78199C8.02579 4.09879 7.57699 4.53439 7.24699 5.08879C6.93019 5.64319 6.77179 6.26359 6.77179 6.94999V11.207C6.77179 11.3654 6.83779 11.4908 6.96979 11.5832L8.45479 12.4544V6.93019ZM18.5132 16.3946C19.1732 16.1042 19.6946 15.6554 20.0774 15.0482C20.4734 14.441 20.6714 13.781 20.6714 13.0682C20.6714 12.4214 20.5064 11.801 20.1764 11.207C19.8464 10.613 19.4174 10.1642 18.8894 9.86059L15.1868 7.72219C15.1076 7.66939 15.035 7.64959 14.969 7.66279C14.903 7.66279 14.837 7.68259 14.771 7.72219L13.286 8.55379L18.0776 11.3456C18.2228 11.4248 18.3284 11.5304 18.3944 11.6624C18.4736 11.7812 18.5132 11.9264 18.5132 12.098V16.3946ZM14.5334 6.33619C14.8238 6.15139 15.1142 6.15139 15.4046 6.33619L19.1666 8.53399C19.1666 8.44159 19.1666 8.32279 19.1666 8.17759C19.1666 7.54399 19.0082 6.94339 18.6914 6.37579C18.3878 5.79499 17.9456 5.33299 17.3648 4.98979C16.7972 4.64659 16.1372 4.47499 15.3848 4.47499C14.7248 4.47499 14.1506 4.61359 13.6622 4.89079L9.93979 7.02919C9.80779 7.12159 9.74179 7.24699 9.74179 7.40539V9.10819L14.5334 6.33619Z" fill="black"/>
</svg>
