<svg width="36" height="37" viewBox="0 0 36 37" fill="none" xmlns="http://www.w3.org/2000/svg">
<rect x="0.000976562" y="0.00219727" width="36" height="36" rx="8" fill="#330000"/>
<path d="M26.1312 13.4612C25.6326 13.4755 25.149 13.289 24.7863 12.959C24.4387 12.6003 24.2574 12.1268 24.2725 11.639C24.2574 11.1512 24.4538 10.692 24.8165 10.362C25.1792 10.032 25.6628 9.85986 26.1615 9.85986C26.7508 9.85986 27.2042 10.032 27.5367 10.362C27.8691 10.7064 28.0505 11.1655 28.0354 11.639C28.0505 12.1268 27.8691 12.6003 27.5064 12.959C27.1589 13.3033 26.6451 13.4899 26.1312 13.4612Z" fill="#FF9A00"/>
<path d="M24.4387 25.9151V14.8673C24.4387 14.7238 24.4992 14.6664 24.6352 14.6664H27.6273C27.7633 14.6664 27.8238 14.7381 27.8238 14.8673V25.9151C27.8238 26.0729 27.7633 26.1446 27.6273 26.1446H24.6654C24.5143 26.1446 24.4387 26.0586 24.4387 25.9151Z" fill="#FF9A00"/>
<path fill-rule="evenodd" clip-rule="evenodd" d="M18.0464 22.5577H12.4248L11.2763 25.9294C11.2461 26.0586 11.1252 26.1446 10.9892 26.1303H8.14812C7.98189 26.1303 7.93655 26.0442 7.98189 25.872L12.8479 12.5716C12.8611 12.5298 12.8744 12.4868 12.8879 12.4425C12.921 12.3349 12.9562 12.2201 12.9991 12.0981C13.0595 11.7968 13.0897 11.4812 13.0897 11.1655C13.0746 11.0938 13.1351 11.022 13.2106 11.0077H17.1246C17.2455 11.0077 17.306 11.0507 17.3211 11.1225L22.8369 25.9007C22.8823 26.0586 22.8369 26.1303 22.6858 26.1303H19.5274C19.4216 26.1446 19.3158 26.0729 19.2856 25.9725L18.0464 22.5577ZM13.3013 19.6451H17.1397C17.049 19.3438 16.9282 18.9851 16.7921 18.612C16.6561 18.2246 16.5201 17.8086 16.3841 17.3781C16.3086 17.1557 16.2368 16.9369 16.165 16.7181C16.0932 16.4993 16.0214 16.2805 15.9459 16.0581C15.7948 15.6133 15.6588 15.1973 15.5379 14.7812C15.4843 14.6034 15.4338 14.4312 15.3849 14.2646C15.3233 14.0549 15.2644 13.854 15.2054 13.662H15.1752C15.0392 14.279 14.8729 14.896 14.6614 15.5129C14.575 15.7752 14.4887 16.0416 14.4016 16.3106C14.2599 16.7479 14.1159 17.1922 13.9662 17.6364C13.7546 18.3681 13.528 19.0425 13.3013 19.6451Z" fill="#FF9A00"/>
</svg>
