<svg width="45" height="46" viewBox="0 0 45 46" fill="none" xmlns="http://www.w3.org/2000/svg">
<g clip-path="url(#clip0_202_11369)">
<g filter="url(#filter0_dd_202_11369)">
<path d="M22.0046 4.25311C31.805 4.25311 39.7498 12.198 39.7498 21.9984C39.7498 31.7988 31.805 39.7437 22.0046 39.7437C12.2041 39.7437 4.25928 31.7988 4.25928 21.9984C4.25928 12.198 12.2041 4.25311 22.0046 4.25311Z" fill="white"/>
</g>
<path d="M22.0047 4.33313C31.7628 4.33313 39.6733 12.2436 39.6733 22.0017C39.6733 31.7598 31.7628 39.6703 22.0047 39.6703C12.2466 39.6703 4.33606 31.7598 4.33606 22.0017C4.33606 12.2436 12.2466 4.33313 22.0047 4.33313Z" fill="#447CAD"/>
<path d="M22.0046 40.0016C19.5748 40.0016 17.2175 39.5256 14.9981 38.5869C12.8546 37.6803 10.9297 36.3825 9.27672 34.7295C7.62373 33.0765 6.32589 31.1515 5.41931 29.0081C4.48059 26.7888 4.00464 24.4314 4.00464 22.0016C4.00464 19.5717 4.48059 17.2144 5.41931 14.9951C6.32589 12.8516 7.62373 10.9266 9.27672 9.27367C10.9297 7.62068 12.8546 6.32284 14.9981 5.41626C17.2175 4.47754 19.5748 4.00159 22.0046 4.00159C24.4345 4.00159 26.7918 4.47754 29.0111 5.41626C31.1546 6.32284 33.0796 7.62068 34.7326 9.27367C36.3855 10.9266 37.6833 12.8516 38.59 14.9951C39.5287 17.2144 40.0046 19.5717 40.0046 22.0016C40.0046 24.4314 39.5287 26.7888 38.59 29.0081C37.6833 31.1515 36.3855 33.0765 34.7326 34.7295C33.0796 36.3825 31.1546 37.6803 29.0111 38.5869C26.7918 39.5256 24.4345 40.0016 22.0046 40.0016ZM22.0046 4.66437C19.664 4.66437 17.3935 5.12272 15.2563 6.02669C13.1919 6.89987 11.3377 8.14999 9.74538 9.74233C8.15304 11.3347 6.90292 13.1888 6.02974 15.2533C5.12577 17.3905 4.66742 19.6609 4.66742 22.0016C4.66742 24.3422 5.12577 26.6127 6.02974 28.7499C6.90292 30.8144 8.15304 32.6685 9.74538 34.2608C11.3377 35.8532 13.1919 37.1033 15.2563 37.9765C17.3935 38.8804 19.664 39.3388 22.0046 39.3388C24.3453 39.3388 26.6157 38.8804 28.7529 37.9765C30.8174 37.1033 32.6716 35.8532 34.2639 34.2608C35.8562 32.6685 37.1064 30.8144 37.9795 28.7499C38.8835 26.6127 39.3419 24.3422 39.3419 22.0016C39.3419 19.6609 38.8835 17.3905 37.9795 15.2533C37.1064 13.1888 35.8562 11.3347 34.2639 9.74233C32.6716 8.14999 30.8174 6.89987 28.7529 6.02669C26.6157 5.12272 24.3453 4.66437 22.0046 4.66437Z" fill="#EBEDF4"/>
<path d="M31.1763 12.7768C33.0769 17.7541 34.3875 22.891 34.4292 28.2554C26.5111 28.6831 18.8767 29.3542 11.8124 31.3924C9.91193 26.4151 8.60142 21.2783 8.55981 15.914C16.4778 15.4861 24.1121 14.815 31.1763 12.7768Z" fill="#ECF7F9"/>
<path d="M33.8933 27.4466C26.3501 27.9911 19.0322 28.689 12.1987 30.5262C10.5718 26.0182 9.40881 21.3826 9.23254 16.5659C16.7654 16.0358 24.0639 15.3326 30.8691 13.4708C32.5192 17.9825 33.7015 22.6233 33.8933 27.4466Z" fill="#DBF0F6"/>
<path d="M33.4381 24.9042C32.3015 24.092 31.1277 23.3243 29.9359 22.5842C29.9379 22.5813 28.8665 21.7359 28.0517 21.8931C27.3207 22.0338 26.6048 22.9206 26.4674 23.0937C26.0689 22.8519 25.6687 22.6121 25.2675 22.3737C25.2686 22.372 24.0096 21.4128 23.0564 21.5907C22.1029 21.7664 21.1728 23.0182 21.1734 23.0185C21.0855 23.1187 20.9977 23.219 20.91 23.3193C20.1541 22.8758 19.3957 22.4329 18.6396 21.9864C18.6372 21.9888 17.1007 20.8028 15.9302 21.0082C14.7501 21.2115 13.6052 22.8052 13.612 22.8098C12.7131 23.8973 11.8498 25.0136 11.0543 26.1732C11.4386 27.5492 11.8782 28.9123 12.3585 30.2641C19.0791 28.5072 26.2495 27.8095 33.6278 27.2503C33.5898 26.4636 33.5258 25.6816 33.4381 24.9042Z" fill="#6CC077"/>
<path d="M23.1664 18.6051C23.165 18.5837 23.1782 18.5632 23.1732 18.5417C23.1016 18.2091 22.6153 18.0031 22.0857 18.0773C22.0159 18.0873 21.9577 18.1121 21.893 18.13C21.6988 17.9758 21.3847 17.8921 21.0375 17.9389C20.5882 17.9995 20.268 18.2504 20.2325 18.5283C19.807 18.658 19.5185 18.9388 19.5733 19.2362C19.6251 19.5172 19.9661 19.7102 20.3901 19.7417C20.5779 19.9795 20.9934 20.1162 21.4537 20.0542C21.871 19.9978 22.1931 19.7958 22.3141 19.5546C22.4275 19.5694 22.5472 19.5705 22.6715 19.553C23.1481 19.4869 23.4831 19.192 23.4203 18.8961C23.3941 18.775 23.2944 18.6792 23.1664 18.6051ZM26.9609 18.6869C26.9538 18.6719 26.939 18.6608 26.9355 18.6457C26.8786 18.4067 27.136 18.1615 27.51 18.0973C27.5596 18.0886 27.6058 18.0929 27.6534 18.0914C27.7335 17.944 27.9156 17.8183 28.1585 17.7748C28.475 17.7176 28.7653 17.8203 28.8759 18.0038C29.1969 18.0011 29.4747 18.1323 29.531 18.35C29.5847 18.5559 29.4196 18.7625 29.1509 18.8744C29.1006 19.078 28.8673 19.2603 28.5436 19.3134C28.2501 19.3618 27.9746 19.2899 27.8203 19.1517C27.7492 19.185 27.67 19.211 27.5827 19.2251C27.2459 19.2796 26.9329 19.1498 26.883 18.937C26.8612 18.8501 26.8974 18.7644 26.9609 18.6869Z" fill="#87C3E8"/>
<path d="M16.7657 20.5423C16.7579 20.5396 16.7489 20.5299 16.7424 20.5255C16.716 20.5072 16.699 20.4826 16.6888 20.4556L16.6885 20.4547L16.69 20.4571L16.6996 20.4549L16.6996 20.4544C16.7012 20.4403 16.6974 20.4258 16.695 20.4118L16.6878 20.3481C16.6814 20.3087 16.6669 20.2715 16.6465 20.2356C16.6294 20.2055 16.6089 20.1755 16.5824 20.1503C16.5679 20.1366 16.5527 20.1234 16.5369 20.1108C16.5321 20.107 16.5129 20.0926 16.5055 20.082C16.522 20.0902 16.5376 20.0983 16.5559 20.1052L16.5653 20.1023C16.5652 20.0932 16.5534 20.0839 16.5474 20.0767C16.5345 20.0609 16.5236 20.0433 16.5126 20.0266C16.4914 19.994 16.4769 19.959 16.447 19.9307C16.418 19.9033 16.3841 19.8878 16.345 19.8735C16.3273 19.867 16.3092 19.8609 16.2903 19.8576C16.2791 19.8558 16.2676 19.855 16.2563 19.8539C16.2402 19.8458 16.2238 19.8384 16.2079 19.8314C16.1853 19.8216 16.1614 19.8137 16.1366 19.8092L16.1358 19.809C16.1258 19.8058 16.1157 19.8029 16.1043 19.8009C16.0548 19.7925 16.0025 19.7998 15.9602 19.8228C15.9347 19.8366 15.9159 19.8507 15.8847 19.8552C15.8687 19.8575 15.8503 19.8534 15.8334 19.8479C15.8321 19.84 15.8295 19.8325 15.825 19.825C15.8213 19.8188 15.8175 19.8143 15.8154 19.8075C15.8136 19.8018 15.8073 19.7995 15.8046 19.7944C15.8184 19.7982 15.8296 19.8049 15.8457 19.8056L15.8523 19.8023C15.8542 19.7936 15.8349 19.7879 15.8282 19.7852C15.8012 19.7741 15.7929 19.7523 15.7835 19.7298C15.7751 19.7091 15.7587 19.6958 15.7427 19.6792L15.7351 19.6731L15.7441 19.6703C15.7492 19.6719 15.7537 19.6742 15.7577 19.6774C15.7672 19.6848 15.7718 19.6945 15.7799 19.7028L15.7892 19.6997C15.7857 19.6781 15.769 19.6533 15.756 19.6347C15.7468 19.6215 15.7339 19.61 15.7211 19.5994C15.7154 19.5947 15.6987 19.5895 15.6956 19.582C15.7053 19.5827 15.7159 19.5833 15.7222 19.5765L15.7218 19.5733C15.7122 19.5675 15.7019 19.5653 15.6909 19.5617C15.6747 19.5563 15.6667 19.5436 15.6586 19.5316C15.6448 19.5109 15.6337 19.4897 15.617 19.4703C15.6046 19.4559 15.5949 19.4386 15.5768 19.4283C15.5607 19.4192 15.5785 19.4257 15.5859 19.4292C15.5926 19.4324 15.5955 19.4339 15.6029 19.4333L15.6081 19.4294C15.6016 19.4128 15.5822 19.4033 15.5661 19.3938C15.5577 19.3888 15.5455 19.3815 15.5353 19.3792C15.5312 19.3782 15.5212 19.3762 15.5132 19.3735C15.5205 19.3743 15.5278 19.3746 15.5347 19.3739L15.5395 19.3693C15.5359 19.3656 15.5302 19.3645 15.5251 19.3631C15.5079 19.3586 15.494 19.3479 15.482 19.3371C15.4753 19.3311 15.4696 19.3304 15.4597 19.33C15.4533 19.3297 15.4446 19.3296 15.4362 19.3298L15.4332 19.3265L15.4239 19.312L15.4016 19.2892C15.389 19.2688 15.3844 19.2476 15.3666 19.2294C15.3604 19.2229 15.3513 19.2217 15.3423 19.2249C15.3303 19.2293 15.3393 19.2443 15.3411 19.2518C15.3439 19.2629 15.3379 19.2755 15.337 19.2867C15.3365 19.2953 15.3385 19.301 15.3427 19.3083C15.3307 19.3101 15.3189 19.3136 15.3077 19.3181L15.3022 19.3133C15.2867 19.3014 15.2722 19.2936 15.2605 19.2784C15.2521 19.2674 15.2434 19.256 15.2299 19.2492L15.2221 19.2506C15.2148 19.2566 15.2191 19.2686 15.2195 19.276C15.2199 19.2871 15.221 19.2981 15.2226 19.3092C15.2253 19.3286 15.2347 19.337 15.2489 19.3445C15.2426 19.3473 15.2365 19.3504 15.231 19.3543C15.2163 19.3649 15.2023 19.3755 15.1856 19.384C15.1816 19.386 15.1827 19.3894 15.1875 19.3891C15.1943 19.3888 15.2007 19.3875 15.2069 19.3857C15.1985 19.3928 15.1919 19.3999 15.1834 19.4098C15.1797 19.4141 15.188 19.414 15.1907 19.4125C15.1968 19.4088 15.2036 19.4059 15.2105 19.4032C15.1966 19.4138 15.1835 19.4236 15.1658 19.4317C15.1619 19.4335 15.1629 19.4374 15.1677 19.4368C15.1761 19.4357 15.1842 19.4339 15.1924 19.4316L15.1915 19.4324C15.1845 19.438 15.167 19.4461 15.164 19.454C15.1605 19.4633 15.1604 19.4726 15.1612 19.4823L15.1608 19.4831L15.1542 19.4939L15.1511 19.4976L15.1449 19.5039C15.1303 19.5147 15.1179 19.527 15.106 19.5397C15.0905 19.5551 15.0759 19.571 15.0589 19.5858L15.0394 19.6021C15.0254 19.6125 15.0152 19.6223 15.0048 19.6372C14.9982 19.6467 14.9923 19.6551 14.9911 19.6661C14.9903 19.6745 14.9987 19.6822 15.0053 19.6897L15.0086 19.6984C15.0141 19.7133 15.0106 19.7281 15.0195 19.7421C15.0266 19.7531 15.0504 19.7786 15.0689 19.7737L15.0804 19.7696L15.0839 19.7717C15.093 19.7772 15.1086 19.7731 15.1189 19.7742C15.1414 19.7763 15.1578 19.761 15.1667 19.7459L15.172 19.7375C15.2212 19.7223 15.2704 19.7066 15.3207 19.6939L15.3223 19.6935C15.3426 19.7007 15.3658 19.701 15.3879 19.6961L15.3931 19.7164C15.3944 19.7403 15.3928 19.7645 15.3964 19.788C15.4025 19.828 15.404 19.8678 15.4143 19.9073C15.4214 19.9344 15.4273 19.9617 15.4334 19.989C15.4309 20.005 15.4271 20.0207 15.4221 20.0365C15.4164 20.0485 15.4092 20.0601 15.4007 20.0719C15.3856 20.0926 15.3761 20.1247 15.3724 20.1484C15.3678 20.1782 15.3678 20.2147 15.378 20.2435L15.3817 20.252L15.3828 20.2711C15.3834 20.2834 15.3902 20.297 15.3977 20.3093C15.4048 20.3388 15.3996 20.366 15.4014 20.3955C15.4031 20.4227 15.4114 20.4463 15.4224 20.4719C15.4307 20.4912 15.4393 20.5105 15.4481 20.5298L15.4505 20.5396C15.456 20.5609 15.4637 20.5817 15.465 20.6036C15.4674 20.6439 15.4852 20.6836 15.4652 20.7225C15.4605 20.7317 15.4624 20.7478 15.4653 20.7569C15.4699 20.7711 15.4689 20.7844 15.4789 20.7972L15.483 20.8025C15.4865 20.8124 15.4904 20.8222 15.4933 20.8322C15.4987 20.8512 15.5016 20.8709 15.5038 20.8903L15.504 20.8929L15.5039 20.8933C15.5047 20.9065 15.5029 20.9196 15.5017 20.9328C15.5004 20.9479 15.4908 20.9652 15.4981 20.9796C15.5087 21.0002 15.5155 21.0239 15.5007 21.0449C15.4931 21.0557 15.4814 21.062 15.4826 21.0751L15.4834 21.0767L15.4827 21.0975C15.4818 21.1085 15.4805 21.119 15.4778 21.1299C15.4766 21.1351 15.4833 21.1396 15.4883 21.1409C15.4944 21.1425 15.5026 21.1421 15.509 21.1423C15.5174 21.1425 15.5258 21.1447 15.5342 21.144C15.5448 21.1431 15.588 21.138 15.5906 21.1256C15.5923 21.1168 15.5908 21.1067 15.5903 21.098C15.5897 21.0892 15.5911 21.0796 15.5886 21.071L15.5896 21.0681C15.5818 21.0526 15.5751 21.0382 15.5707 21.023L15.5722 21.005L15.573 21.0007C15.5787 20.9945 15.5823 20.9855 15.5846 20.9743C15.5872 20.961 15.5794 20.9487 15.5744 20.9365C15.5673 20.9191 15.5697 20.8953 15.5673 20.8769C15.5648 20.8584 15.5643 20.8402 15.5639 20.8216C15.5638 20.8091 15.5717 20.7923 15.5715 20.7789C15.5744 20.7699 15.5754 20.7603 15.5749 20.7528C15.5745 20.745 15.5756 20.7327 15.573 20.7227L15.5733 20.7211C15.5764 20.7038 15.5654 20.6917 15.5621 20.675L15.5599 20.6637C15.5629 20.638 15.5674 20.6121 15.5687 20.5863C15.5706 20.5497 15.5734 20.5109 15.5673 20.4743C15.572 20.4645 15.5775 20.4549 15.5814 20.4447C15.5841 20.4373 15.586 20.4296 15.587 20.4217C15.6044 20.4145 15.628 20.4156 15.6468 20.4179C15.6526 20.4187 15.6579 20.4198 15.663 20.4213L15.668 20.4278C15.6794 20.4408 15.6903 20.4519 15.6984 20.4668L15.7063 20.4825C15.7145 20.5398 15.7229 20.597 15.7314 20.6543L15.7317 20.6684L15.7316 20.6703C15.7281 20.6852 15.7217 20.7002 15.7163 20.7143C15.7134 20.7219 15.7151 20.7305 15.7167 20.7382C15.719 20.7501 15.7194 20.7624 15.7228 20.774C15.7253 20.7825 15.7311 20.7882 15.7371 20.7952C15.7409 20.7997 15.7439 20.8045 15.7468 20.8093C15.7562 20.8355 15.7583 20.8664 15.759 20.8897C15.7595 20.9069 15.7627 20.9236 15.7652 20.9407L15.7665 20.956L15.7655 20.9602C15.7624 20.9702 15.7558 20.9796 15.7559 20.9901C15.7559 20.9965 15.7597 21.007 15.7658 21.0155C15.7698 21.0267 15.7688 21.0401 15.7686 21.0508C15.7683 21.0691 15.7498 21.074 15.7443 21.0899L15.7483 21.0905L15.7483 21.0938L15.7511 21.0944C15.7506 21.1067 15.7483 21.1192 15.7466 21.1313C15.7458 21.1366 15.7417 21.1438 15.7464 21.1471C15.7474 21.1514 15.752 21.1539 15.76 21.1549C15.7756 21.157 15.7957 21.1576 15.8113 21.1561C15.8321 21.1541 15.864 21.1472 15.8658 21.1312C15.8671 21.1274 15.8663 21.1229 15.8656 21.1191C15.8639 21.1098 15.8646 21.0841 15.8516 21.0824L15.8516 21.0822L15.8583 21.0788C15.8444 21.067 15.8353 21.0525 15.8291 21.0371C15.8433 21.0202 15.8497 21.001 15.8441 20.9818L15.8408 20.9676C15.8359 20.9469 15.8288 20.9282 15.8275 20.9067C15.8262 20.8866 15.8221 20.8663 15.8225 20.8462C15.8228 20.8344 15.8215 20.8197 15.8196 20.807L15.8242 20.797C15.8374 20.7762 15.8254 20.7553 15.8284 20.734C15.8317 20.71 15.8119 20.6889 15.811 20.6655L15.8103 20.6492L15.8156 20.6338C15.8238 20.6084 15.8302 20.5836 15.8335 20.5573C15.8372 20.5274 15.8375 20.4986 15.8371 20.4686C15.8369 20.4512 15.8381 20.4328 15.8371 20.4149L15.838 20.415C15.8782 20.4154 15.9161 20.4118 15.9541 20.4024C15.9581 20.4175 15.9625 20.4326 15.9688 20.4472C15.9813 20.4758 15.9992 20.5017 16.015 20.5288C16.0233 20.543 16.0327 20.553 16.0328 20.5696C16.0329 20.583 16.0372 20.5971 16.0399 20.6103C16.0421 20.6208 16.0464 20.6303 16.0533 20.6388L16.0596 20.6554C16.0636 20.6658 16.0671 20.6763 16.0705 20.6869C16.0733 20.7063 16.0778 20.7259 16.0792 20.7452C16.0814 20.7753 16.086 20.807 16.0831 20.8372C16.081 20.8594 16.0646 20.8782 16.0766 20.8996C16.0938 20.9305 16.0586 20.9484 16.0467 20.975L16.0547 20.9752L16.0565 20.9743L16.0443 20.9808C16.0409 20.9835 16.0403 20.9868 16.0392 20.9903C16.0342 21.0071 16.027 21.0213 16.0183 21.037C16.0119 21.0487 16.0733 21.0396 16.0782 21.039C16.1005 21.0362 16.1412 21.0376 16.1498 21.0138C16.1547 21.0005 16.1557 20.9878 16.1432 20.9778C16.1331 20.9696 16.1282 20.9639 16.1315 20.9516L16.1332 20.945C16.1371 20.9419 16.1435 20.9439 16.1481 20.9426C16.1589 20.9397 16.1573 20.9245 16.1583 20.9173C16.1636 20.8798 16.1554 20.8422 16.1581 20.8047C16.1613 20.7591 16.1493 20.7134 16.1523 20.6676C16.1537 20.6474 16.1534 20.6266 16.1532 20.6064C16.153 20.59 16.1542 20.5742 16.1513 20.5581C16.1535 20.5451 16.1536 20.5334 16.1437 20.5212C16.1292 20.5033 16.1144 20.4789 16.1104 20.4575C16.1026 20.4159 16.115 20.3733 16.141 20.3377C16.1532 20.321 16.1733 20.3105 16.1843 20.2933L16.1898 20.2824C16.2054 20.3034 16.2225 20.3237 16.237 20.3451L16.2411 20.3511C16.2467 20.386 16.2579 20.4194 16.2666 20.4544L16.2667 20.4549C16.2695 20.4747 16.2721 20.4944 16.2751 20.5142L16.2775 20.5246L16.2759 20.54C16.2742 20.5497 16.2692 20.5603 16.2682 20.5697C16.2652 20.5985 16.2737 20.6256 16.2739 20.6541C16.2739 20.6678 16.2852 20.6771 16.293 20.6882C16.2971 20.6939 16.3 20.6994 16.3027 20.7051L16.3087 20.7497C16.3122 20.7689 16.3086 20.7946 16.3161 20.8146C16.3168 20.8287 16.3166 20.8428 16.313 20.8566C16.3078 20.8768 16.3049 20.8906 16.3137 20.9107L16.3164 20.9169C16.3166 20.9266 16.3148 20.9361 16.3124 20.9464C16.3098 20.9579 16.3004 20.9709 16.302 20.9827L16.3056 20.9835C16.3013 20.9976 16.3015 21.0163 16.3045 21.0288C16.306 21.0351 16.3067 21.0362 16.3146 21.0367C16.3277 21.0378 16.3411 21.0385 16.3542 21.0392C16.3697 21.04 16.3987 21.0307 16.4063 21.0191C16.4087 21.0156 16.4069 21.0012 16.4068 20.9976C16.4065 20.9866 16.4042 20.9774 16.4005 20.9671L16.4016 20.9653C16.401 20.9618 16.3985 20.9603 16.3953 20.958C16.3877 20.9524 16.3834 20.947 16.3799 20.9402L16.3738 20.9174C16.3843 20.9021 16.3886 20.89 16.3838 20.8721C16.3805 20.8597 16.3742 20.8474 16.3675 20.8355C16.3653 20.8191 16.3608 20.8024 16.3598 20.7866C16.3578 20.7547 16.3542 20.7219 16.3567 20.6901C16.358 20.6742 16.366 20.6591 16.368 20.6432C16.3697 20.63 16.3723 20.6167 16.3728 20.6034C16.3735 20.5867 16.3673 20.5701 16.3625 20.5541C16.3592 20.5432 16.3585 20.5311 16.3583 20.5193C16.3651 20.4991 16.3752 20.4803 16.3847 20.4609C16.3971 20.4355 16.3959 20.3988 16.3862 20.3686L16.3859 20.3657C16.3833 20.3437 16.3891 20.3162 16.394 20.2945L16.398 20.2735C16.3986 20.2809 16.3995 20.2885 16.4009 20.2959L16.4013 20.2963C16.4031 20.334 16.4199 20.372 16.4401 20.4045L16.4498 20.4019C16.4487 20.3905 16.4524 20.38 16.456 20.3695C16.4607 20.3927 16.4654 20.4156 16.4686 20.4391C16.47 20.4502 16.4718 20.4613 16.4717 20.4726C16.4716 20.4793 16.47 20.4879 16.4733 20.4943L16.4819 20.4929C16.4981 20.4837 16.5046 20.4607 16.5045 20.4453C16.5044 20.4296 16.5003 20.4146 16.4966 20.3994C16.4953 20.3942 16.4897 20.3799 16.49 20.3706C16.504 20.3853 16.4982 20.4126 16.5149 20.4248L16.5157 20.4332C16.5183 20.4678 16.5359 20.4969 16.5552 20.5267C16.573 20.5545 16.5963 20.5786 16.6227 20.601C16.6364 20.6126 16.6657 20.6349 16.687 20.6337L16.6949 20.6305C16.689 20.621 16.6687 20.6186 16.6585 20.6129C16.6379 20.6014 16.6209 20.5865 16.6096 20.568C16.5977 20.5484 16.5904 20.5295 16.5843 20.5082L16.5815 20.4949L16.5763 20.4891L16.5764 20.4875L16.5767 20.4878C16.5818 20.4915 16.5858 20.4964 16.5899 20.5008C16.6061 20.5182 16.6206 20.5368 16.6356 20.5549C16.6458 20.5672 16.6583 20.5802 16.666 20.5937C16.6701 20.6008 16.6728 20.615 16.6821 20.6187L16.6914 20.6162C16.6962 20.5943 16.691 20.5693 16.6823 20.5486C16.6748 20.5306 16.6601 20.5149 16.6493 20.4982L16.6561 20.5042C16.6692 20.5155 16.686 20.5231 16.7023 20.531C16.7224 20.5409 16.7486 20.5612 16.7736 20.5556L16.7793 20.5527C16.7769 20.5464 16.7729 20.5448 16.7657 20.5423ZM15.3319 19.3444C15.2366 19.249 15.1416 19.1534 15.047 19.0576C15.1103 19.1654 15.174 19.273 15.238 19.3805L15.3319 19.3444Z" fill="#BAB9D6"/>
<path d="M23.4082 32.7477L21.0351 35.4763L22.1905 36.1857L23.674 34.48L25.5973 35.6631L26.4886 34.6398L23.4082 32.7477ZM23.0612 30.4853L20.6881 33.2141L21.8435 33.9234L23.3269 32.2178L25.2503 33.4008L26.1415 32.3775L23.0612 30.4853ZM21.8068 10.2163L20.3233 11.922L18.4 10.739L17.5087 11.7623L20.589 13.6544L22.9621 10.9257L21.8068 10.2163ZM21.4597 7.95404L19.9762 9.65975L18.0529 8.47668L17.1616 9.49998L20.2419 11.3921L22.6151 8.66337L21.4597 7.95404Z" fill="#76A1C4"/>
</g>
<defs>
<filter id="filter0_dd_202_11369" x="0.259277" y="0.253113" width="44.4906" height="45.4905" filterUnits="userSpaceOnUse" color-interpolation-filters="sRGB">
<feFlood flood-opacity="0" result="BackgroundImageFix"/>
<feColorMatrix in="SourceAlpha" type="matrix" values="0 0 0 0 0 0 0 0 0 0 0 0 0 0 0 0 0 0 127 0" result="hardAlpha"/>
<feOffset dx="-1" dy="-1"/>
<feGaussianBlur stdDeviation="1.5"/>
<feColorMatrix type="matrix" values="0 0 0 0 0 0 0 0 0 0 0 0 0 0 0 0 0 0 0.317623 0"/>
<feBlend mode="normal" in2="BackgroundImageFix" result="effect1_dropShadow_202_11369"/>
<feColorMatrix in="SourceAlpha" type="matrix" values="0 0 0 0 0 0 0 0 0 0 0 0 0 0 0 0 0 0 127 0" result="hardAlpha"/>
<feOffset dx="1" dy="2"/>
<feGaussianBlur stdDeviation="2"/>
<feColorMatrix type="matrix" values="0 0 0 0 0 0 0 0 0 0 0 0 0 0 0 0 0 0 0.293133 0"/>
<feBlend mode="normal" in2="effect1_dropShadow_202_11369" result="effect2_dropShadow_202_11369"/>
<feBlend mode="normal" in="SourceGraphic" in2="effect2_dropShadow_202_11369" result="shape"/>
</filter>
<clipPath id="clip0_202_11369">
<rect width="45" height="46" fill="white"/>
</clipPath>
</defs>
</svg>
