<svg width="18" height="41" viewBox="0 0 18 41" fill="none" xmlns="http://www.w3.org/2000/svg">
<g clip-path="url(#clip0_202_15361)">
<path d="M13.276 1.02077C13.5021 1.29357 13.7017 1.56048 13.9132 1.84406C16.668 5.53634 17.4959 9.95888 16.6943 14.4625C16.6434 14.7489 16.4925 14.7612 16.2786 14.9676C14.9558 16.244 13.6824 17.5668 12.8916 19.2467C12.5593 19.9528 12.3905 20.7457 12.2288 21.5162C12.1805 21.7466 12.3448 22.1795 12.5256 22.2584C12.7286 22.3469 13.155 22.2261 13.3207 22.046C14.1637 21.13 14.9755 20.1826 15.7549 19.2115C16.2867 18.5488 16.7473 17.8291 17.2899 17.1595C17.4367 18.6247 17.4113 20.0648 16.74 21.3779C16.4574 22.2142 16.0934 22.3132 15.6392 22.8171C15.1224 23.2047 14.5269 23.7942 14.1609 24.2864C13.5892 25.2028 13.6196 25.9433 14.4765 26.5853C14.5303 26.6182 14.8126 26.7535 14.9041 26.7738C14.7103 26.9036 14.5397 26.9458 14.0956 27.075C14.0798 27.7408 13.5249 28.1847 13.3626 28.4959C13.2859 28.7943 13.2572 28.8393 13.2329 29.172C13.0235 32.0337 12.6009 35.1306 11.5363 37.824C11.1765 38.7345 10.7427 39.3047 9.84149 39.6822C9.73364 39.7274 9.22874 39.9893 9.16381 40.0032C9.38565 39.6508 9.42766 39.1305 9.1337 38.7311C8.92276 38.4445 8.08079 38.4605 7.80846 38.1984C7.86032 38.1865 8.22163 38.2138 8.27305 38.2155C8.70236 38.2303 9.10855 38.2085 9.23449 37.6799C9.33548 37.2558 9.10966 36.8323 8.6825 36.5352C8.3922 36.3331 8.19198 36.2758 7.94401 36.0227C7.88404 35.9615 7.7935 35.6248 7.85627 35.4028C7.86483 35.3724 7.90115 35.3611 7.9246 35.3821C8.20459 35.6332 8.56988 35.8991 8.80374 36.1787C8.95379 36.316 9.1431 36.4736 9.27382 36.4719C9.41191 36.4702 9.49141 36.3023 9.6529 36.1883C10.0247 35.8575 10.1565 35.6963 10.3906 35.2441C10.4312 34.9955 10.3429 34.5734 10.2652 34.267C9.93974 32.9854 9.83685 31.6521 10.1713 30.3662C10.411 29.4446 10.7539 28.5035 11.2658 27.7097C12.0845 26.4403 12.1223 25.2788 11.2646 24.0631C9.79857 21.9852 9.96724 19.8852 11.1551 17.7556C12.0016 16.2379 13.0907 14.917 14.2965 13.676C14.5461 13.4192 14.709 13.393 14.7779 13.0414C15.6607 8.97169 15.1176 4.84435 13.1737 1.2253C13.0876 1.06924 12.3611 0.0603692 12.3501 0.00334083C12.3729 -0.0120105 13.2531 1.03612 13.276 1.02077ZM5.32611 23.0281C5.27902 22.4329 5.2732 21.8713 5.18449 21.323C4.83037 19.1348 3.6704 17.3739 2.18949 15.7912C2.07184 15.6654 1.96333 15.523 1.82386 15.4273C1.08413 14.9196 0.858563 14.1732 0.762732 13.3304C0.228703 8.63345 1.42225 4.46744 4.54268 0.883923C4.56345 0.860014 5.18129 0.0539086 5.28202 0.0141259C4.407 1.53913 3.36559 3.02866 2.87174 5.57769C2.39363 8.04559 2.38853 10.4932 2.90479 12.9438C2.95751 13.194 3.14094 13.4428 3.32378 13.6353C4.61989 14.9997 5.84022 16.4301 6.58387 18.1728C6.94048 19.0083 7.18107 19.9264 7.28442 20.8288C7.4246 22.053 6.66514 22.8414 5.32611 23.0281ZM4.0085 26.8802C5.19126 26.0932 6.06838 26.3378 6.56334 27.4102C7.08992 28.5509 7.42465 30.1959 7.48233 31.453C7.18445 30.7244 6.77075 29.5699 6.48032 28.8383C6.34379 28.4944 6.16349 28.2445 5.74058 28.2522C5.34523 28.2594 5.08465 28.0279 4.99908 27.6577C4.95975 27.4876 4.91265 27.2328 4.80944 27.1177C4.63744 26.9257 4.35315 26.9219 4.0085 26.8802ZM3.59596 23.1397C2.05227 22.1065 0.935548 20.7827 0.724092 18.8096C1.5737 19.1741 3.11445 21.4662 3.59596 23.1397Z" fill="#2C6791"/>
</g>
<defs>
<clipPath id="clip0_202_15361">
<rect width="18" height="41" fill="white"/>
</clipPath>
</defs>
</svg>
