<svg width="36" height="37" viewBox="0 0 36 37" fill="none" xmlns="http://www.w3.org/2000/svg">
<g clip-path="url(#clip0_202_9767)">
<path d="M0 13.0308C0 8.47034 0 6.19013 0.887518 4.44827C1.6682 2.9161 2.9139 1.6704 4.44608 0.889716C6.18793 0.00219727 8.46814 0.00219727 13.0286 0.00219727H22.9714C27.5319 0.00219727 29.8121 0.00219727 31.5539 0.889716C33.0861 1.6704 34.3318 2.9161 35.1125 4.44827C36 6.19013 36 8.47034 36 13.0308V22.9736C36 27.5341 36 29.8143 35.1125 31.5561C34.3318 33.0883 33.0861 34.334 31.5539 35.1147C29.8121 36.0022 27.5319 36.0022 22.9714 36.0022H13.0286C8.46814 36.0022 6.18793 36.0022 4.44608 35.1147C2.9139 34.334 1.6682 33.0883 0.887518 31.5561C0 29.8143 0 27.5341 0 22.9736V13.0308Z" fill="#49021F"/>
<path d="M13.7476 10.4908V26.4987C13.7476 26.6664 13.6723 26.7502 13.5218 26.75H10.4863C10.3523 26.75 10.2854 26.6663 10.2856 26.4987V10.4908C10.2856 10.3568 10.3609 10.2898 10.5114 10.2897H13.5469C13.662 10.2733 13.7639 10.3754 13.7476 10.4908Z" fill="#FF3366"/>
<path d="M25.714 23.8097V26.3981C25.716 26.4438 25.7053 26.4891 25.6832 26.529C25.6611 26.5689 25.6283 26.6019 25.5886 26.6243C25.1611 26.7849 24.7138 26.8864 24.259 26.9259C23.7573 26.9761 23.2723 27.0013 22.8039 27.0013C21.8542 27.0164 20.9099 26.8545 20.0193 26.5238C19.2348 26.2288 18.5242 25.7656 17.9371 25.1667C17.3648 24.5751 16.9169 23.8744 16.6201 23.1061C16.3065 22.297 16.149 21.4358 16.1559 20.5679C16.1329 19.3818 16.4367 18.2123 17.034 17.1879C17.6279 16.1996 18.4831 15.3951 19.5051 14.8633C20.5669 14.294 21.8087 14.0092 23.2304 14.0089C23.7253 13.9999 24.2201 14.0293 24.7105 14.0969C24.9985 14.1416 25.2834 14.2045 25.5635 14.2854C25.6513 14.3462 25.7009 14.4555 25.6889 14.5618L25.6638 17.1502C25.6638 17.301 25.5969 17.3596 25.4631 17.3261C25.1864 17.2274 24.9007 17.1558 24.6102 17.1125C24.1951 17.0493 23.7756 17.0199 23.3558 17.0246C21.2909 16.9932 19.718 18.3333 19.7182 20.4423C19.7182 22.6384 21.3572 23.8795 23.4562 23.8851C23.8585 23.8869 24.2605 23.8659 24.6604 23.8223C24.9494 23.7962 25.2351 23.7415 25.5133 23.6589C25.6469 23.6256 25.7138 23.6758 25.714 23.8097Z" fill="#FF3366"/>
</g>
<defs>
<clipPath id="clip0_202_9767">
<rect width="36" height="37" fill="white"/>
</clipPath>
</defs>
</svg>
