<svg width="36" height="37" viewBox="0 0 36 37" fill="none" xmlns="http://www.w3.org/2000/svg">
<g clip-path="url(#clip0_202_9814)">
<path d="M0.000488281 13.0308C0.000488281 8.47034 0.000488281 6.19013 0.888007 4.44827C1.66869 2.9161 2.91439 1.6704 4.44657 0.889716C6.18842 0.00219727 8.46863 0.00219727 13.0291 0.00219727H22.9719C27.5323 0.00219727 29.8126 0.00219727 31.5544 0.889716C33.0866 1.6704 34.3323 2.9161 35.113 4.44827C36.0005 6.19013 36.0005 8.47034 36.0005 13.0308V22.9736C36.0005 27.5341 36.0005 29.8143 35.113 31.5561C34.3323 33.0883 33.0866 34.334 31.5544 35.1147C29.8126 36.0022 27.5323 36.0022 22.9719 36.0022H13.0291C8.46863 36.0022 6.18842 36.0022 4.44657 35.1147C2.91439 34.334 1.66869 33.0883 0.888007 31.5561C0.000488281 29.8143 0.000488281 27.5341 0.000488281 22.9736V13.0308Z" fill="#49021F"/>
<path d="M12.3332 10.5393V26.3172C12.3332 26.4825 12.2607 26.5651 12.1159 26.565H9.19363C9.06465 26.565 9.00027 26.4824 9.00049 26.3172V10.5393C9.00049 10.4073 9.07293 10.3412 9.2178 10.3411H12.14C12.2508 10.3249 12.3489 10.4256 12.3332 10.5393Z" fill="#FF3366"/>
<path d="M20.9789 26.8126C19.8673 26.8299 18.766 26.593 17.7549 26.119C15.6083 25.1001 14.6755 22.8449 14.6758 20.5212C14.6572 18.2032 15.8849 15.9946 17.8877 14.8986C19.2703 14.1131 20.8965 13.9136 22.452 14.0564V9.17688C22.452 9.06153 22.5004 9.0035 22.597 9.0035H25.6398C25.723 8.9913 25.7966 9.06678 25.7848 9.15208V23.7907C25.7848 24.3947 25.8446 24.9966 25.8814 25.5989C25.8873 25.7018 25.8278 25.8035 25.7364 25.8466C24.9514 26.1824 24.1338 26.4314 23.2973 26.5896C22.5325 26.7344 21.7566 26.809 20.9789 26.8126ZM22.452 23.7412V16.9792C20.2563 16.3691 18.1048 18.0455 18.105 20.3726C18.052 22.8096 20.2249 24.4093 22.452 23.7412Z" fill="#FF3366"/>
</g>
<defs>
<clipPath id="clip0_202_9814">
<rect width="36.0005" height="37" fill="white"/>
</clipPath>
</defs>
</svg>
