<svg width="37" height="37" viewBox="0 0 37 37" fill="none" xmlns="http://www.w3.org/2000/svg">
<g clip-path="url(#clip0_202_14324)">
<path d="M36.002 18.0018C36.002 27.9429 27.9431 36.0018 18.002 36.0018C8.06082 36.0018 0.00195312 27.9429 0.00195312 18.0018C0.00195312 8.06064 8.06082 0.00177002 18.002 0.00177002C27.9431 0.00177002 36.002 8.06064 36.002 18.0018Z" fill="#7D29E4"/>
<path d="M23.8924 17.6733H16.8483V8.89482C16.8483 8.48975 16.6496 8.16132 16.1148 8.16132C15.6068 8.16132 15.3813 8.48975 15.3813 8.89482V27.2615C15.3813 27.6666 15.58 27.995 16.1148 27.995C16.6229 27.995 16.8483 27.6666 16.8483 27.2615V19.1401H23.8924C24.2975 19.1401 24.6258 18.9415 24.6258 18.4067C24.6258 17.8986 24.2975 17.6733 23.8924 17.6733Z" fill="white"/>
</g>
<defs>
<clipPath id="clip0_202_14324">
<rect width="37" height="37" fill="white"/>
</clipPath>
</defs>
</svg>
