<svg width="36" height="37" viewBox="0 0 36 37" fill="none" xmlns="http://www.w3.org/2000/svg">
<g clip-path="url(#clip0_202_15628)">
<path d="M12.0438 7.97495L11.5913 8.27527C7.86119 10.7149 5.89594 14.1864 5.85089 18.6315C5.79308 24.3159 9.79863 29.2607 15.3393 30.5328C22.4915 32.1749 29.5698 26.9901 30.1452 19.6876C30.6002 13.9117 26.6948 8.72268 21.1843 6.92909C20.3534 6.00264 19.5988 2.88893 20.912 1.4707C26.3275 2.67412 30.3877 5.43934 33.0054 9.89298C38.7291 19.6309 33.5836 32.3245 22.7115 35.3563C12.6122 38.1727 2.39358 31.5151 0.883199 21.1349C-0.792871 11.4563 6.04101 2.84605 15.6829 1.39905C13.4336 3.43337 12.23 6.2271 12.0438 7.97495Z" fill="#494949"/>
<path d="M24.9998 16.2155C25.7784 14.7645 25.7431 13.247 25.301 11.7115C25.1923 11.3338 24.9661 10.686 24.8134 10.2625C27.4166 12.1862 29.6397 16.8118 28.5097 21.4086C27.4629 25.6676 23.3809 29.0981 19.1701 29.4947C13.7475 30.0054 9.53122 26.756 7.94417 22.8056C6.25195 18.5941 7.60708 13.4143 10.5155 10.8355C9.09235 13.7008 9.53284 15.9753 10.1143 16.824C10.7607 17.7675 11.7897 18.2567 12.7941 17.9773C13.85 17.6837 14.6598 16.739 14.6415 15.5347C14.6293 14.7305 14.4859 13.8236 14.1687 13.0991C12.2869 8.80039 13.8555 4.92362 16.8908 2.2538C17.7718 1.4788 18.7962 0.735143 20.1001 0.0045166C18.6673 2.03884 18.4238 4.51746 19.5126 6.82401C20.1508 8.08089 20.9687 9.39355 21.6902 10.6062C22.9871 12.7857 23.7825 15.0266 23.4381 17.6264C23.4343 17.6552 24.4697 17.2251 24.9998 16.2155Z" fill="#FB3239"/>
</g>
<defs>
<clipPath id="clip0_202_15628">
<rect width="36" height="37" fill="white"/>
</clipPath>
</defs>
</svg>
