<svg width="36" height="37" viewBox="0 0 36 37" fill="none" xmlns="http://www.w3.org/2000/svg">
<g clip-path="url(#clip0_202_15286)">
<path d="M35.6638 21.6675L32.2245 6.75317C32.0316 5.9496 31.2924 5.11389 30.4566 4.88889L14.8031 0.0674595C14.6102 0.00317383 14.3852 0.00317383 14.1281 0.00317383C13.4531 0.00317383 12.7781 0.260317 12.2959 0.678174L1.07807 11.1246C0.467354 11.671 0.145926 12.7639 0.338783 13.5353L4.00307 29.5103C4.19593 30.3139 4.93521 31.1496 5.77093 31.3746L20.4281 35.9389C20.6209 36.0032 20.8459 36.0032 21.1031 36.0032C21.7781 36.0032 22.4531 35.746 22.9352 35.3282L34.9245 24.1746C35.5352 23.5317 35.8566 22.5032 35.6638 21.6675ZM16.4424 3.60317L27.2102 6.91389C27.6281 7.04246 27.6281 7.23532 27.2102 7.33175L21.5531 8.61746C21.1352 8.74603 20.5245 8.55317 20.2352 8.23174L16.3138 3.98889C15.9602 3.63532 16.0245 3.4746 16.4424 3.60317ZM23.1602 22.8889C23.2888 23.3067 22.9995 23.5639 22.5816 23.4353L10.9781 19.8353C10.5602 19.7067 10.4638 19.3532 10.7852 19.0639L19.6566 10.8032C19.9781 10.4817 20.3316 10.6103 20.4281 11.0282L23.1602 22.8889ZM4.03521 12.3782L13.4531 3.60317C13.7745 3.28175 14.2566 3.34603 14.5781 3.63532L19.3031 8.74603C19.6245 9.06746 19.5602 9.5496 19.2709 9.87103L9.85307 18.646C9.53164 18.9675 9.0495 18.9032 8.72807 18.6139L4.00307 13.5032C3.68164 13.1496 3.71378 12.6353 4.03521 12.3782ZM6.31735 26.2639L3.84235 15.3353C3.71378 14.9175 3.90664 14.821 4.19593 15.1425L8.11735 19.3853C8.43878 19.7067 8.53521 20.3175 8.43878 20.7353L6.73521 26.2639C6.60664 26.7139 6.41378 26.7139 6.31735 26.2639ZM20.1066 32.6925L7.79593 28.8675C7.37807 28.7389 7.12093 28.2889 7.2495 27.8389L9.30664 21.2175C9.43521 20.7996 9.88521 20.5425 10.3352 20.671L22.6459 24.4639C23.0638 24.5925 23.3209 25.0425 23.1924 25.4925L21.1352 32.1139C20.9745 32.5317 20.5566 32.7889 20.1066 32.6925ZM31.0352 23.7246L22.8066 31.3746C22.4852 31.696 22.3245 31.5675 22.4531 31.1496L24.1566 25.621C24.2852 25.2032 24.7352 24.7532 25.1852 24.6889L30.8424 23.4032C31.2602 23.2425 31.3245 23.4353 31.0352 23.7246ZM31.9352 22.0532L25.1531 23.596C24.7352 23.7246 24.2852 23.4353 24.1888 23.0175L21.2959 10.4817C21.1674 10.0639 21.4566 9.61389 21.8745 9.51746L28.6566 7.9746C29.0745 7.84603 29.5245 8.13532 29.6209 8.55317L32.5138 21.0889C32.6102 21.571 32.3531 21.9889 31.9352 22.0532Z" fill="#292933"/>
</g>
<defs>
<clipPath id="clip0_202_15286">
<rect width="36" height="37" fill="white"/>
</clipPath>
</defs>
</svg>
