<svg width="37" height="36" viewBox="0 0 37 36" fill="none" xmlns="http://www.w3.org/2000/svg">
<g clip-path="url(#clip0_202_11428)">
<path d="M3.59399 3.60083L3.75192 4.2276L9.59418 10.1015L15.5627 4.10131L15.6111 3.60083H3.59399Z" fill="url(#paint0_linear_202_11428)"/>
<path d="M9.58176 9.57837L9.48853 9.94329L12.7519 23.5541L18.3099 17.9962L9.97284 9.62745L9.58176 9.57837Z" fill="#F6B937"/>
<path d="M26.1418 9.54274L31.8262 3.8373L32.4389 3.66138V15.5009L31.9526 15.4377L26.1418 9.54274Z" fill="#FFD500"/>
<path d="M19.1529 0.0383301L32.4392 3.66181L26.4922 9.54753L25.2396 10.2233L13.8701 13.1256L12.8657 12.8629L9.58228 9.57833L19.1529 0.0383301Z" fill="#FFF67D"/>
<path d="M26.4921 9.54712L26.0158 9.77437L23.0262 12.6797L23.0937 12.9455L23.0051 13.3323L26.1631 25.9644L26.4306 26.4058L26.4579 26.7222L32.016 32.2592L32.4288 32.4042L36.0013 19.0769L26.4921 9.54712Z" fill="#5ACDA5"/>
<path d="M3.64478 20.4895V32.4246L4.35156 32.2698L10.1622 26.3752L4.06735 20.6169L3.64478 20.4895Z" fill="url(#paint1_linear_202_11428)"/>
<path d="M3.64478 32.4251L9.61234 26.3757L10.1622 26.0964L23.1414 22.8752L26.4301 26.4063L26.2837 26.7438L21.0256 32.1914L20.5329 32.3933L17.013 35.9667L3.64478 32.4251Z" fill="#AFE682"/>
<path d="M23.094 12.9456L22.6212 13.2115L18.1053 17.6483L18.0168 18.0227L26.4309 26.4059L23.094 12.9456Z" fill="#7DD769"/>
<path d="M26.4919 9.54712L18.0164 18.0226L12.8655 12.8625L26.4919 9.54712Z" fill="#AADC50"/>
<path d="M20.5452 32.4049L26.4309 26.4065L32.4291 32.4049H20.5452Z" fill="url(#paint2_linear_202_11428)"/>
<path d="M0.0012207 16.9485L9.6128 26.3759L10.0679 26.1283L12.9891 23.586L12.8781 23.1311L9.58214 9.57866L3.59405 3.60083L0.0012207 16.9485Z" fill="#DC4B1E"/>
<path d="M9.61255 26.3753L18.0163 18.0227L23.1343 23.1202L9.61255 26.3753Z" fill="#AABE55"/>
</g>
<defs>
<linearGradient id="paint0_linear_202_11428" x1="8.19221" y1="4.23152" x2="9.0696" y2="6.73778" gradientUnits="userSpaceOnUse">
<stop stop-color="#DB221A"/>
<stop offset="1" stop-color="#9E020B"/>
</linearGradient>
<linearGradient id="paint1_linear_202_11428" x1="3.64478" y1="27.4564" x2="7.64373" y2="26.9459" gradientUnits="userSpaceOnUse">
<stop stop-color="#87D152"/>
<stop offset="1" stop-color="#5CA82C"/>
</linearGradient>
<linearGradient id="paint2_linear_202_11428" x1="27.1986" y1="32.0573" x2="26.9433" y2="29.3379" gradientUnits="userSpaceOnUse">
<stop stop-color="#39BE90"/>
<stop offset="1" stop-color="#2C8A72"/>
</linearGradient>
<clipPath id="clip0_202_11428">
<rect width="37" height="36" fill="white"/>
</clipPath>
</defs>
</svg>
