<svg width="37" height="37" viewBox="0 0 37 37" fill="none" xmlns="http://www.w3.org/2000/svg">
<g clip-path="url(#clip0_202_13051)">
<path d="M18.0022 35.0868C27.4379 35.0868 35.087 27.4377 35.087 18.0021C35.087 8.56646 27.4379 0.917358 18.0022 0.917358C8.56658 0.917358 0.91748 8.56646 0.91748 18.0021C0.91748 27.4377 8.56658 35.0868 18.0022 35.0868Z" fill="white"/>
<path d="M18.0022 0.00219727C8.06107 0.00219727 0.00219727 8.06107 0.00219727 18.0022C0.00219727 27.9434 8.06107 36.0022 18.0022 36.0022C27.9434 36.0022 36.0022 27.9434 36.0022 18.0022C36.0022 8.06107 27.9434 0.00219727 18.0022 0.00219727ZM18.0022 1.83271C26.9323 1.83271 34.1717 9.07204 34.1717 18.0022C34.1717 26.9323 26.9323 34.1717 18.0022 34.1717C9.07204 34.1717 1.83271 26.9323 1.83271 18.0022C1.83271 9.07204 9.07204 1.83271 18.0022 1.83271Z" fill="#4000BF"/>
<path d="M18.2054 5.18884C25.2822 5.18884 31.019 10.9257 31.019 18.0024C31.019 25.0791 25.2822 30.8159 18.2054 30.8159C11.1287 30.8159 5.39185 25.0791 5.39185 18.0024C5.39185 16.2729 5.7345 14.6235 6.35562 13.1181C7.26254 14.3531 8.72509 15.1549 10.3749 15.1549C13.127 15.1549 15.3579 12.9239 15.3579 10.1719C15.3579 8.52208 14.5562 7.05954 13.3211 6.15263C14.8264 5.5315 16.4759 5.18884 18.2054 5.18884Z" fill="url(#paint0_linear_202_13051)"/>
</g>
<defs>
<linearGradient id="paint0_linear_202_13051" x1="18.2054" y1="30.8159" x2="18.2054" y2="5.18884" gradientUnits="userSpaceOnUse">
<stop stop-color="#7400E1"/>
<stop offset="1" stop-color="#4000BF"/>
</linearGradient>
<clipPath id="clip0_202_13051">
<rect width="37" height="37" fill="white"/>
</clipPath>
</defs>
</svg>
