<svg width="37" height="37" viewBox="0 0 37 37" fill="none" xmlns="http://www.w3.org/2000/svg">
<path d="M25.2776 0.00244141H10.7268C4.81323 0.00244141 0.00219727 4.81347 0.00219727 10.727V25.2778C0.00219727 31.1914 4.81323 36.0024 10.7268 36.0024H25.2776C31.1912 36.0024 36.0022 31.1914 36.0022 25.2778V10.727C36.0021 4.81347 31.1911 0.00244141 25.2776 0.00244141ZM32.3806 25.2778C32.3806 29.2007 29.2004 32.3808 25.2776 32.3808H10.7268C6.80395 32.3808 3.6238 29.2007 3.6238 25.2778V10.727C3.6238 6.80413 6.80395 3.62404 10.7268 3.62404H25.2776C29.2004 3.62404 32.3806 6.80413 32.3806 10.727V25.2778Z" fill="url(#paint0_linear_202_10628)"/>
<path d="M18.0023 8.69153C12.8683 8.69153 8.69141 12.8684 8.69141 18.0023C8.69141 23.1363 12.8683 27.3132 18.0023 27.3132C23.1363 27.3132 27.3132 23.1364 27.3132 18.0023C27.3132 12.8683 23.1363 8.69153 18.0023 8.69153ZM18.0023 23.6917C14.8602 23.6917 12.313 21.1445 12.313 18.0024C12.313 14.8603 14.8602 12.3131 18.0023 12.3131C21.1444 12.3131 23.6916 14.8603 23.6916 18.0024C23.6916 21.1445 21.1444 23.6917 18.0023 23.6917Z" fill="url(#paint1_linear_202_10628)"/>
<path d="M27.3309 10.9927C28.5631 10.9927 29.562 9.99379 29.562 8.7616C29.562 7.52941 28.5631 6.53052 27.3309 6.53052C26.0987 6.53052 25.0999 7.52941 25.0999 8.7616C25.0999 9.99379 26.0987 10.9927 27.3309 10.9927Z" fill="url(#paint2_linear_202_10628)"/>
<defs>
<linearGradient id="paint0_linear_202_10628" x1="18.0022" y1="35.8976" x2="18.0022" y2="0.28206" gradientUnits="userSpaceOnUse">
<stop stop-color="#E09B3D"/>
<stop offset="0.3" stop-color="#C74C4D"/>
<stop offset="0.6" stop-color="#C21975"/>
<stop offset="1" stop-color="#7024C4"/>
</linearGradient>
<linearGradient id="paint1_linear_202_10628" x1="18.0023" y1="35.8976" x2="18.0023" y2="0.28203" gradientUnits="userSpaceOnUse">
<stop stop-color="#E09B3D"/>
<stop offset="0.3" stop-color="#C74C4D"/>
<stop offset="0.6" stop-color="#C21975"/>
<stop offset="1" stop-color="#7024C4"/>
</linearGradient>
<linearGradient id="paint2_linear_202_10628" x1="27.3309" y1="35.8978" x2="27.3309" y2="0.282193" gradientUnits="userSpaceOnUse">
<stop stop-color="#E09B3D"/>
<stop offset="0.3" stop-color="#C74C4D"/>
<stop offset="0.6" stop-color="#C21975"/>
<stop offset="1" stop-color="#7024C4"/>
</linearGradient>
</defs>
</svg>
