<svg width="36" height="37" viewBox="0 0 36 37" fill="none" xmlns="http://www.w3.org/2000/svg">
<g clip-path="url(#clip0_202_9633)">
<path d="M30.836 19.8141C30.836 20.135 30.713 20.4428 30.4943 20.6697C30.2754 20.8966 29.9786 21.0241 29.6692 21.0241C29.3597 21.0241 29.063 20.8966 28.8441 20.6697C28.6253 20.4428 28.5024 20.135 28.5024 19.8141V9.00426C28.5024 8.68334 28.6253 8.37557 28.8441 8.14867C29.063 7.92173 29.3597 7.79424 29.6692 7.79424C29.9786 7.79424 30.2754 7.92173 30.4943 8.14867C30.713 8.37557 30.836 8.68334 30.836 9.00426V19.8141ZM30.431 27.304C30.2767 27.4641 25.9374 31.214 17.9819 31.214C10.0265 31.214 5.71612 27.484 5.5329 27.3241C5.41741 27.2231 5.32233 27.0995 5.25302 26.9604C5.18371 26.8212 5.14161 26.6692 5.12903 26.5132C5.11651 26.3571 5.13379 26.2 5.17991 26.0508C5.22604 25.9017 5.3001 25.7635 5.39788 25.6441C5.59929 25.4024 5.88459 25.2532 6.1917 25.2288C6.4988 25.2044 6.80273 25.307 7.03716 25.5141C7.10469 25.5641 10.9811 28.824 17.9723 28.824C24.9634 28.824 28.8688 25.5441 28.9074 25.5141C29.1445 25.3089 29.4494 25.2077 29.7573 25.232C30.0652 25.2562 30.3519 25.4041 30.5563 25.6441C30.7531 25.8821 30.8513 26.191 30.8296 26.5037C30.8079 26.8165 30.6682 27.1076 30.4406 27.3141L30.431 27.304ZM5.11823 9.00426C5.13566 8.68233 5.27529 8.38065 5.5066 8.16514C5.73786 7.94967 6.04203 7.83787 6.35254 7.85424C6.6404 7.87119 6.91202 7.9981 7.11502 8.21045C7.31801 8.4228 7.438 8.70556 7.45183 9.00426V19.7941C7.45183 20.1151 7.3289 20.4228 7.11007 20.6497C6.89129 20.8767 6.59451 21.0041 6.28506 21.0041C5.9756 21.0041 5.67882 20.8767 5.45999 20.6497C5.24116 20.4228 5.11823 20.1151 5.11823 19.7941V9.00426ZM10.9715 6.60429C10.989 6.28235 11.1285 5.98068 11.3599 5.76516C11.5911 5.54969 11.8953 5.4379 12.2058 5.45427C12.4937 5.47121 12.7653 5.59812 12.9683 5.81047C13.1713 6.02282 13.2913 6.30559 13.3051 6.60429V22.6041C13.3051 22.925 13.1822 23.2328 12.9634 23.4597C12.7445 23.6866 12.4478 23.8141 12.1383 23.8141C11.8289 23.8141 11.5321 23.6866 11.3132 23.4597C11.0944 23.2328 10.9715 22.925 10.9715 22.6041V6.60429ZM16.8537 6.00429C16.8537 5.68337 16.9766 5.37559 17.1954 5.1487C17.4143 4.92176 17.7111 4.79427 18.0205 4.79427C18.33 4.79427 18.6267 4.92176 18.8455 5.1487C19.0644 5.37559 19.1873 5.68337 19.1873 6.00429V23.4041C19.1873 23.725 19.0644 24.0328 18.8455 24.2597C18.6267 24.4866 18.33 24.6141 18.0205 24.6141C17.7111 24.6141 17.4143 24.4866 17.1954 24.2597C16.9766 24.0328 16.8537 23.725 16.8537 23.4041V6.00429ZM22.6395 6.60429C22.6395 6.28336 22.7624 5.97559 22.9812 5.74869C23.2 5.52175 23.4968 5.39427 23.8063 5.39427C24.1157 5.39427 24.4125 5.52175 24.6313 5.74869C24.8501 5.97559 24.9731 6.28336 24.9731 6.60429V22.6041C24.9731 22.925 24.8501 23.2328 24.6313 23.4597C24.4125 23.6866 24.1157 23.8141 23.8063 23.8141C23.4968 23.8141 23.2 23.6866 22.9812 23.4597C22.7624 23.2328 22.6395 22.925 22.6395 22.6041V6.60429ZM31.1542 0.00424687H4.84824C4.27503 0.000364415 3.70671 0.113691 3.17584 0.337849C2.64491 0.561959 2.16189 0.892484 1.75433 1.31046C1.34677 1.72849 1.02272 2.22572 0.80077 2.77378C0.578772 3.32179 0.463237 3.90988 0.460693 4.50431V31.504C0.463237 32.0984 0.578772 32.6865 0.80077 33.2345C1.02272 33.7826 1.34677 34.2798 1.75433 34.6978C2.16189 35.1158 2.64491 35.4464 3.17584 35.6705C3.70671 35.8946 4.27503 36.0078 4.84824 36.0041H31.1542C31.7266 36.0078 32.2941 35.895 32.8244 35.6714C33.3546 35.4479 33.8373 35.1183 34.2447 34.7014C34.6521 34.2844 34.9764 33.7884 35.1989 33.2415C35.4215 32.6946 35.5379 32.1076 35.5417 31.514V4.50431C35.5392 3.9107 35.424 3.32347 35.2026 2.77608C34.9812 2.2287 34.658 1.7319 34.2515 1.31402C33.845 0.89618 33.363 0.565463 32.8333 0.340729C32.3035 0.115995 31.7362 0.0017084 31.1638 0.00424687" fill="black"/>
</g>
<defs>
<clipPath id="clip0_202_9633">
<rect width="36" height="37" fill="white"/>
</clipPath>
</defs>
</svg>
