<svg width="37" height="37" viewBox="0 0 37 37" fill="none" xmlns="http://www.w3.org/2000/svg">
<g clip-path="url(#clip0_202_8361)">
<path d="M33.8101 0.00219727H2.19231C0.982203 0.00219727 0.0012207 0.98318 0.0012207 2.19328V33.8111C0.0012207 35.0212 0.982203 36.0022 2.19231 36.0022H33.8101C35.0202 36.0022 36.0012 35.0212 36.0012 33.8111V2.19328C36.0012 0.98318 35.0202 0.00219727 33.8101 0.00219727Z" fill="#0056A8"/>
<path d="M18.0084 13.6992C20.3133 13.6992 22.1819 11.8306 22.1819 9.52567C22.1819 7.22071 20.3133 5.35217 18.0084 5.35217C15.7034 5.35217 13.8349 7.22071 13.8349 9.52567C13.8349 11.8306 15.7034 13.6992 18.0084 13.6992Z" fill="white"/>
<path fill-rule="evenodd" clip-rule="evenodd" d="M21.5379 14.8289C21.9948 14.8289 22.4085 14.8865 22.7755 15.0052C23.4555 15.2211 23.9808 15.624 24.3945 16.0845C25.0186 16.7808 25.5471 17.7422 26.0942 18.7376L26.0947 18.7385C26.175 18.8847 26.2558 19.0317 26.3374 19.1787C26.3515 19.204 26.3656 19.2294 26.3798 19.2548C26.3968 19.2854 26.4139 19.3161 26.4311 19.3468C27.0152 20.3933 27.6463 21.524 27.6326 22.9204C27.6182 24.3848 26.9166 25.4425 26.1935 26.2304C25.2149 27.299 23.9196 28.5942 21.948 28.569C20.955 28.5547 20.0268 27.997 20.1851 26.8421C20.2697 26.2249 20.6865 25.8539 21.1009 25.485L21.101 25.4849C21.2857 25.3205 21.47 25.1564 21.6242 24.9712C19.1669 25.2267 18.1055 23.9818 17.1629 22.4887C17.0698 22.3414 16.9848 22.178 16.8989 22.0126L16.8988 22.0126C16.6257 21.4875 16.3426 20.9431 15.7597 20.8337C14.2306 20.5459 14.4141 22.3052 14.7883 23.2802C14.8323 23.3955 14.9132 23.5433 14.9975 23.6975C15.1474 23.9717 15.3081 24.2657 15.292 24.4315C15.2488 24.8741 14.3746 25.054 13.8889 25.1511C13.6411 25.1995 13.3752 25.2248 13.1155 25.2496C12.7189 25.2873 12.3365 25.3237 12.054 25.4389C12.2282 25.808 12.6784 25.9823 13.0716 26.1345C13.0923 26.1426 13.1129 26.1506 13.1333 26.1585C13.5435 26.3168 14.0184 26.4499 14.5005 26.5543C15.1534 26.6948 15.8349 26.7041 16.5123 26.7134C16.9621 26.7195 17.41 26.7256 17.8465 26.7701C18.8539 26.8745 20.0052 27.7703 19.4295 29.1087C19.0086 30.0873 17.7421 30.6162 16.3714 30.6918C14.0256 30.8213 11.2049 29.616 10.0032 28.5331C9.01018 27.6372 8.25823 26.1837 8.38415 24.4315C8.50648 22.7262 9.33398 21.0496 10.0032 19.7184C10.1022 19.5216 10.1998 19.3232 10.2975 19.1247C11.0268 17.6426 11.7573 16.1582 13.0613 15.365C13.5435 15.0699 14.2378 14.8289 15.0402 14.8289H21.5379ZM24.0528 21.5424C24.0528 23.1321 22.7641 24.4207 21.1745 24.4207C19.5849 24.4207 18.2962 23.1321 18.2962 21.5424C18.2962 19.9528 19.5849 18.6642 21.1745 18.6642C22.7641 18.6642 24.0528 19.9528 24.0528 21.5424Z" fill="white"/>
</g>
<defs>
<clipPath id="clip0_202_8361">
<rect width="37" height="37" fill="white"/>
</clipPath>
</defs>
</svg>
