<svg width="40" height="40" viewBox="0 0 40 40" fill="none" xmlns="http://www.w3.org/2000/svg">
<g clip-path="url(#clip0_202_12582)">
<path d="M37.7392 12.4775C38.5872 10.5576 39.413 7.75577 39.413 5.61257C39.413 -0.0688411 33.191 -2.07267 23.0322 2.59874C14.6235 2.03772 6.53059 8.35421 4.50895 17.1657C6.91926 14.4421 10.6239 10.7362 14.0384 9.26273C9.79817 13.0356 6.18286 17.8131 3.43785 22.7915C1.81707 25.7545 0.000976562 30.5427 0.000976562 34.1213C0.000976562 41.8225 7.2552 40.8792 14.0831 37.4031C16.538 38.6085 19.283 38.6197 22.028 38.6197C29.6158 38.6197 36.4225 34.378 38.9666 27.2117H29.5265C25.4243 34.1331 14.15 31.352 14.15 23.5058H39.8369C40.3375 20.101 39.7076 16.028 37.7392 12.4775ZM5.04465 27.1002C6.42832 31.0963 9.2402 34.5902 12.8779 36.7334C5.94504 40.5568 -0.658555 39.0065 5.04465 27.1002ZM14.1054 18.5945C14.2616 14.2859 18.0332 11.1827 22.2288 11.1827C26.4021 11.1827 30.1961 14.2859 30.3523 18.5945H14.1054ZM28.5222 3.93827C30.1961 3.1346 32.3162 2.21929 34.1908 2.21929C36.6457 2.21929 38.431 3.91593 38.431 6.41632C38.431 7.97905 37.8508 10.245 37.2928 11.7184C35.2397 8.41437 32.1376 5.34468 28.5222 3.93827Z" fill="#21B5E7"/>
</g>
<defs>
<clipPath id="clip0_202_12582">
<rect width="40.001" height="40.0004" fill="white"/>
</clipPath>
</defs>
</svg>
