<svg width="37" height="37" viewBox="0 0 37 37" fill="none" xmlns="http://www.w3.org/2000/svg">
<g clip-path="url(#clip0_202_12636)">
<path d="M36.0034 0.00415039H0.00341797V36.0042H36.0034V0.00415039Z" fill="#FF0066"/>
<path d="M14.2923 9.49978C14.3033 10.6386 13.3921 11.5723 12.2533 11.5889C11.6999 11.5951 11.1669 11.38 10.7727 10.9915C10.3785 10.603 10.1557 10.0731 10.1538 9.51964C10.1539 8.38078 11.0743 7.45608 12.2132 7.45059C13.352 7.44514 14.2812 8.36096 14.2923 9.49978Z" fill="white"/>
<path d="M7.71491 24.2206C7.71916 23.6974 7.78146 23.1763 7.90067 22.6669L9.47747 16.2344H7.03955L7.77971 13.4984H13.6434L11.3279 22.6841C11.1976 23.1442 11.1251 23.6188 11.1119 24.0968C11.1119 24.6872 11.3999 24.8585 11.852 24.9608C12.1271 25.0227 14.3216 24.9795 15.5168 22.3241L17.0375 16.2416H14.5664L15.308 13.5056H20.5856L19.9074 16.6102C20.8333 14.8808 22.6852 13.2377 24.5068 13.2377C26.4522 13.2377 28.0578 14.623 28.0578 17.2784C28.0545 18.0411 27.94 18.7994 27.718 19.5291L26.7287 23.0787C26.6397 23.3907 26.5879 23.7121 26.5746 24.0363C26.5746 24.6541 26.8237 24.9622 27.2859 24.9622C27.7482 24.9622 28.3343 24.6224 29.014 22.7389L30.3719 23.2645C29.5698 26.0739 28.1183 27.2461 26.2967 27.2461C24.1669 27.2461 23.1488 25.9789 23.1488 24.2509C23.1464 23.7286 23.2192 23.2087 23.3648 22.7072L24.3829 19.0654C24.4907 18.7049 24.5426 18.33 24.537 17.9537C24.537 16.7801 23.8271 16.0702 22.6852 16.0702C21.2336 16.0702 20.2775 17.1113 19.7836 19.1187L17.8064 27.0387H14.3504L14.9711 24.5475C13.9559 26.2179 12.5432 27.2518 10.8023 27.2518C8.70275 27.2518 7.71491 26.0422 7.71491 24.2206Z" fill="white"/>
</g>
<defs>
<clipPath id="clip0_202_12636">
<rect width="37" height="37" fill="white"/>
</clipPath>
</defs>
</svg>
