<svg width="36" height="36" viewBox="0 0 36 36" fill="none" xmlns="http://www.w3.org/2000/svg">
<g clip-path="url(#clip0_202_16175)">
<path d="M18.0213 0.0258015C20.9431 0.0258015 23.6943 0.708434 26.2749 2.03071L26.6161 2.20132L26.3175 2.43592C25.5924 3.01175 25.0166 3.7582 24.654 4.61128L24.5474 4.84587L24.3341 4.73924C22.3507 3.80085 20.2393 3.31033 18.0427 3.31033C9.91706 3.31033 3.32701 9.9217 3.32701 18.026C3.32701 26.1302 9.89573 32.7416 18.0213 32.7416C26.1469 32.7416 32.737 26.1302 32.737 18.026C32.737 16.0852 32.3744 14.1871 31.6066 12.3956L31.5 12.161L31.7346 12.0544C32.609 11.7345 33.3768 11.2013 33.9953 10.5189L34.2299 10.2203L34.3791 10.5615C35.4668 12.9288 36 15.4454 36 17.9833C36 27.9004 27.9171 35.9833 18 35.9833C8.08294 35.9833 0 27.9004 0 17.9833C0 8.06625 8.08294 -0.0166845 18.0213 0.0258015ZM18.0213 9.8364C22.5213 9.8364 26.2109 13.5046 26.2322 18.0473C26.2322 22.59 22.564 26.2582 18.0213 26.2582C13.4787 26.2582 9.81043 22.59 9.81043 18.0473C9.81043 13.5046 13.5 9.8364 18.0213 9.8364ZM29.7725 3.05441C31.8455 3.05441 33.5261 4.73493 33.5261 6.80796C33.5261 8.88099 31.8455 10.5615 29.7725 10.5615C27.6995 10.5615 26.019 8.88099 26.019 6.80796C26.019 4.73493 27.6995 3.05441 29.7725 3.05441Z" fill="#3880FF"/>
</g>
<defs>
<clipPath id="clip0_202_16175">
<rect width="36" height="36" fill="white"/>
</clipPath>
</defs>
</svg>
