<svg width="36" height="36" viewBox="0 0 36 36" fill="none" xmlns="http://www.w3.org/2000/svg">
<g clip-path="url(#clip0_202_8934)">
<path d="M36 18.0004C36 27.9364 27.945 36.0004 18 36.0004C8.055 36.0004 0 27.9364 0 18.0004C0 8.05537 8.055 0.000366211 18 0.000366211C27.945 0.000366211 36 8.05537 36 18.0004Z" fill="#283544"/>
<path d="M6.53925 24.2224H8.50522V15.1002H6.53925V24.2224ZM7.51829 13.904C8.12624 13.904 8.61576 13.3876 8.61576 12.7422C8.61576 12.0796 8.12624 11.5718 7.51829 11.5718C6.91823 11.5718 6.42871 12.0796 6.42871 12.7422C6.42871 13.3876 6.91823 13.904 7.51829 13.904Z" fill="white"/>
<path d="M15.3743 11.5976C12.0503 11.5976 9.96588 14.0675 9.96588 18.0176C9.96588 21.9677 12.0503 24.429 15.3743 24.429C18.6904 24.429 20.7748 21.9677 20.7748 18.0176C20.7748 14.0675 18.6904 11.5976 15.3743 11.5976ZM15.3743 13.4909C17.4034 13.4909 18.6983 15.2465 18.6983 18.0176C18.6983 20.7801 17.4034 22.5357 15.3743 22.5357C13.3372 22.5357 12.0503 20.7801 12.0503 18.0176C12.0503 15.2465 13.3372 13.4909 15.3743 13.4909Z" fill="white"/>
<path d="M21.9354 20.7284C22.0223 23.0176 23.7435 24.429 26.3648 24.429C29.1203 24.429 30.8573 22.9487 30.8573 20.5907C30.8573 18.7405 29.8783 17.6992 27.5649 17.1226L26.2542 16.7956C24.8567 16.4341 24.2804 15.9522 24.2804 15.126C24.2804 14.0933 25.1489 13.4049 26.4358 13.4049C27.7386 13.4049 28.6308 14.1019 28.7255 15.2637H30.6678C30.6204 13.0778 28.9624 11.5976 26.4516 11.5976C23.9724 11.5976 22.2118 13.0864 22.2118 15.2895C22.2118 17.0623 23.2066 18.1639 25.3068 18.6888L26.7832 19.0675C28.2202 19.4376 28.8045 19.9539 28.8045 20.8489C28.8045 21.8816 27.8491 22.6217 26.4753 22.6217C25.0857 22.6217 24.0356 21.873 23.9093 20.7284H21.9354Z" fill="white"/>
</g>
<defs>
<clipPath id="clip0_202_8934">
<rect width="36" height="36.0004" fill="white"/>
</clipPath>
</defs>
</svg>
