<svg width="32" height="36" viewBox="0 0 32 36" fill="none" xmlns="http://www.w3.org/2000/svg">
<g clip-path="url(#clip0_202_15296)">
<path d="M1.35637 8.06723L14.6922 0.35904C15.4956 -0.109617 16.4633 -0.118295 17.2728 0.333003L17.3185 0.35904L30.6543 8.06723C31.458 8.53605 31.9329 9.36653 31.9499 10.2681L31.9504 10.3183V25.7347C31.9504 26.6388 31.4901 27.4772 30.6986 27.9593L30.6543 27.9858L17.2844 35.6598C16.9092 35.8645 16.4317 36.0009 15.9883 36.0009C15.5642 36.0009 15.1401 35.9073 14.7458 35.6902L14.6922 35.6598L1.35637 27.9516C0.585917 27.5162 0.0786614 26.653 0.0607908 25.7499L0.0603027 25.7006V10.3183C0.0603027 9.41415 0.553474 8.57576 1.31385 8.09365L1.35637 8.06723L14.6922 0.35904L1.35637 8.06723ZM23.4918 11.2051H8.51885C8.38242 11.2051 8.246 11.2733 8.14367 11.3756C8.04818 11.4711 8.0121 11.626 8.00771 11.7572L8.00725 11.7849L8.34832 14.9228C8.38116 15.1198 8.54051 15.3169 8.76547 15.3617L8.79171 15.3661L12.9869 16.0142V20.107L8.79171 20.721C8.5618 20.7538 8.39515 20.9132 8.35266 21.1381L8.34832 21.1643L8.00725 24.3022C8.00725 24.4386 8.04135 24.6092 8.14367 24.7115C8.23917 24.807 8.36439 24.8728 8.49158 24.8811L8.51885 24.882H23.4918C23.6283 24.882 23.7647 24.8138 23.867 24.7115C23.9625 24.616 23.9986 24.4611 24.003 24.3299L24.0035 24.3022L23.6624 21.1643C23.6295 20.9673 23.4702 20.7702 23.2452 20.7254L23.219 20.721L19.0238 20.0729V15.9801L23.219 15.3661C23.4489 15.3333 23.6156 15.1739 23.658 14.949L23.6624 14.9228L24.0035 11.7849C24.0035 11.6485 23.9693 11.4779 23.867 11.3756C23.7715 11.2801 23.6463 11.2143 23.5191 11.206L23.4918 11.2051ZM22.9461 12.2283L22.7074 14.377L18.444 15.0251C18.1806 15.058 18.0125 15.2499 17.9705 15.5087L17.9665 15.5367V20.5163C17.9665 20.7471 18.1259 20.9779 18.383 21.0238L22.6733 21.676L22.912 23.8247H9.09867L9.33742 21.676L13.6008 21.0279C13.8316 20.9949 14.0305 20.8026 14.0435 20.5434L14.0442 20.5163V15.5367C14.0442 15.3059 13.8848 15.0751 13.6277 15.0292L9.33742 14.377L9.09867 12.2283H22.9461Z" fill="#3177BC"/>
</g>
<defs>
<clipPath id="clip0_202_15296">
<rect width="32" height="36.0009" fill="white"/>
</clipPath>
</defs>
</svg>
