<svg width="37" height="36" viewBox="0 0 37 36" fill="none" xmlns="http://www.w3.org/2000/svg">
<g clip-path="url(#clip0_202_11636)">
<path d="M12.4154 34.9031L6.9636 35.7506C6.32931 35.873 5.71469 35.4645 5.5908 34.8382C5.56155 34.6904 5.56186 34.5383 5.59173 34.3906L6.22809 31.4471C2.41416 28.1881 0.0012207 23.3735 0.0012207 18.0024C0.0012207 8.18655 8.06009 0.229248 18.0012 0.229248C27.9423 0.229248 36.0012 8.18655 36.0012 18.0024C36.0012 27.8182 27.9423 35.7755 18.0012 35.7755C16.0513 35.7755 14.1738 35.4694 12.4154 34.9031ZM19.6999 16.4715L22.3887 11.444C22.4672 11.2972 22.5082 11.1338 22.5082 10.9679C22.5082 10.4048 22.0459 9.9484 21.4757 9.9484H14.9343C14.4434 9.9484 14.0203 10.2898 13.9225 10.7648L12.3431 18.4372C12.3295 18.5036 12.3224 18.5712 12.3224 18.6389C12.3217 19.202 12.7833 19.659 13.3536 19.6598L15.2719 19.6623L15.608 25.3007C15.6257 25.5965 15.7728 25.8701 16.0111 26.0502C16.4639 26.3925 17.112 26.3075 17.4586 25.8605L23.4673 18.1107C23.6052 17.9328 23.68 17.715 23.68 17.491C23.68 16.9279 23.2177 16.4715 22.6475 16.4715H19.6999Z" fill="#5146F9"/>
</g>
<defs>
<clipPath id="clip0_202_11636">
<rect width="37" height="36" fill="white"/>
</clipPath>
</defs>
</svg>
