<svg width="37" height="36" viewBox="0 0 37 36" fill="none" xmlns="http://www.w3.org/2000/svg">
<g clip-path="url(#clip0_202_8387)">
<path d="M15.1709 19.3317L17.4265 20.9616V22.1329L13.0354 28.1423L9.65915 25.7034L14.0497 19.6941L15.1709 19.3317Z" fill="#8A4182"/>
<path d="M14.8132 18.2379L15.6746 15.6013L14.9818 14.6531L7.87734 12.358L6.58785 16.3044L13.6931 18.6L14.8132 18.2379Z" fill="#8A4182"/>
<path d="M16.6105 14.9251H19.3988L20.0916 13.9767V6.54916H15.9182V13.9775L16.6105 14.9251Z" fill="#8A4182"/>
<path d="M20.839 19.3315L18.5829 20.9611L18.5834 22.1331L22.974 28.1423L26.3505 25.7034L21.959 19.6936L20.839 19.3315Z" fill="#8A4182"/>
<path d="M21.196 18.2376L20.3342 15.6007L21.027 14.6534L28.1318 12.3577L29.4216 16.3044L22.3171 18.5995L21.196 18.2376Z" fill="#8A4182"/>
<path d="M23.5073 20.2315L28.9078 21.9765L29.2648 20.8827L23.8643 19.1376L23.5073 20.2315Z" fill="#8A4182"/>
<path d="M22.02 13.3553L21.0841 12.6794L24.4216 8.11133L25.3575 8.78723L22.02 13.3553Z" fill="#8A4182"/>
<path d="M10.7103 8.74545L14.0473 13.3138L14.9833 12.6376L11.6462 8.06955L10.7103 8.74545Z" fill="#8A4182"/>
<path d="M7.07959 21.9082L6.72232 20.8144L12.1223 19.0702L12.4796 20.164L7.07959 21.9082Z" fill="#8A4182"/>
<path d="M18.5475 29.4096H17.3909V23.763H18.5475V29.4096Z" fill="#8A4182"/>
<path fill-rule="evenodd" clip-rule="evenodd" d="M18.0055 0.102112C8.07992 0.102112 0.00463867 8.13042 0.00463867 17.9985C0.00463867 27.8702 8.07992 35.9007 18.0055 35.9007C27.9302 35.9007 36.0046 27.8702 36.0046 17.9985C36.0046 8.13042 27.9302 0.102112 18.0055 0.102112ZM18.0055 3.72585C25.932 3.72585 32.3598 10.1151 32.3598 17.9985C32.3598 25.8844 25.932 32.2765 18.0055 32.2765C10.0765 32.2765 3.64946 25.8844 3.64946 17.9985C3.64946 10.1151 10.0765 3.72585 18.0055 3.72585Z" fill="#8A4182"/>
</g>
<defs>
<clipPath id="clip0_202_8387">
<rect width="37" height="36" fill="white"/>
</clipPath>
</defs>
</svg>
