<svg width="37" height="36" viewBox="0 0 37 36" fill="none" xmlns="http://www.w3.org/2000/svg">
<g clip-path="url(#clip0_202_14631)">
<rect x="0.00488281" y="0.000396729" width="36" height="36" fill="#FFCA28"/>
<path d="M21.862 29.9417L24.5126 28.1878C24.7203 28.8404 26.0357 30.3903 27.6972 30.3903C29.3587 30.3903 30.1302 29.4828 30.1302 28.8812C30.1302 27.2416 28.4335 26.6636 27.6186 26.3859C27.4858 26.3407 27.3764 26.3034 27.3016 26.2708C27.2632 26.2541 27.2052 26.2319 27.1307 26.2035C26.2244 25.8572 22.8807 24.5797 22.8807 20.8767C22.8807 16.798 26.817 16.3289 27.7071 16.3289C28.2894 16.3289 31.0895 16.4003 32.484 19.0209L29.9126 20.8155C29.3488 19.6735 28.4122 19.2962 27.8357 19.2962C26.4115 19.2962 26.1148 20.3403 26.1148 20.8155C26.1148 22.1491 27.6621 22.7468 28.9686 23.2515C29.3104 23.3835 29.6357 23.5092 29.9126 23.64C31.3368 24.313 33.4335 25.4143 33.4335 28.8812C33.4335 30.6177 31.977 33.429 28.3104 33.429C23.3851 33.429 22.0796 30.4719 21.862 29.9417Z" fill="#3E3E3E"/>
<path d="M9.00488 30.2899L11.7675 28.537C11.9839 29.1892 12.8251 30.3919 14.0456 30.3919C15.266 30.3919 15.8907 29.1383 15.8907 28.537V16.7147H19.2883V28.537C19.3433 30.1676 18.4389 33.429 14.4476 33.429C10.7779 33.429 9.25228 31.2479 9.00488 30.2899Z" fill="#3E3E3E"/>
</g>
<defs>
<clipPath id="clip0_202_14631">
<rect width="37" height="36.0004" fill="white"/>
</clipPath>
</defs>
</svg>
