<svg width="28" height="36" viewBox="0 0 28 36" fill="none" xmlns="http://www.w3.org/2000/svg">
<g clip-path="url(#clip0_202_14627)">
<path d="M21.679 26.3767C28.4331 22.8669 25.3103 19.4941 23.1306 19.9485C22.5963 20.0597 22.3581 20.1561 22.3581 20.1561C22.3581 20.1561 22.5564 19.8454 22.9352 19.7109C27.2474 18.1949 30.5638 24.1822 21.5432 26.5536C21.5432 26.5536 21.6477 26.4602 21.679 26.3767Z" fill="#5382A1"/>
<path d="M7.62477 21.9342C3.39886 21.3699 9.94179 19.8158 9.94179 19.8158C9.94179 19.8158 7.40092 19.6445 4.27592 21.1551C0.580768 22.9425 13.4162 23.7554 20.0604 22.008C20.7512 21.5363 21.706 21.1274 21.706 21.1274C21.706 21.1274 18.9871 21.613 16.2793 21.8415C12.9661 22.1191 9.40909 22.1731 7.62477 21.9342Z" fill="#5382A1"/>
<path d="M9.23276 25.2857C6.87625 25.042 8.41925 23.8998 8.41925 23.8998C2.3214 25.9237 11.812 28.2188 20.3327 25.7272C19.427 25.4079 18.851 24.8239 18.851 24.8239C14.6867 25.6258 12.2801 25.6001 9.23276 25.2857Z" fill="#5382A1"/>
<path d="M10.2591 28.912C7.90438 28.6412 9.2801 27.8412 9.2801 27.8412C3.74474 29.3879 12.647 32.5832 19.6944 29.5628C18.5401 29.114 17.7136 28.5957 17.7136 28.5957C14.5699 29.1907 13.1119 29.2374 10.2591 28.912Z" fill="#5382A1"/>
<path d="M24.9996 30.7565C24.9996 30.7565 26.0177 31.5954 23.8784 32.2443C19.8106 33.4766 6.94759 33.8487 3.37431 32.2934C2.0898 31.7346 4.49861 30.9591 5.25633 30.7964C6.04655 30.6251 6.49814 30.657 6.49814 30.657C5.06964 29.6507 -2.73509 32.6329 2.53372 33.487C16.9025 35.8172 28.7267 32.4377 24.9996 30.7565Z" fill="#5382A1"/>
<path d="M27.28 32.5893C27.0443 35.6569 17.0886 36.3022 10.6055 35.8872C6.37592 35.6159 5.52837 34.9381 5.51601 34.9282C9.56387 35.5956 16.3885 35.7171 21.9221 34.6757C26.8268 33.7522 27.28 32.5893 27.28 32.5893Z" fill="#5382A1"/>
<path d="M14.0594 9.4961C21.3477 3.74223 17.6071 0.000396729 17.6071 0.000396729C18.6142 3.96649 15.9083 6.08525 13.2637 8.15597C11.9451 9.18847 10.6417 10.209 9.82142 11.4407C8.1418 13.9626 10.6454 16.6722 14.0569 19.7502C13.7553 19.0685 13.2902 18.4061 12.8193 17.7354C11.2131 15.4481 9.53995 13.0652 14.0594 9.4961Z" fill="#E76F00"/>
<path d="M15.2227 21.0123C15.2227 21.0123 17.4154 19.2132 15.6789 17.214C9.79258 10.4315 22.1168 7.35342 22.1168 7.35342C14.6026 11.7114 15.6082 13.1083 17.3664 15.5503C17.4453 15.6599 17.5257 15.7716 17.6069 15.8858C19.6319 18.7361 15.2227 21.0123 15.2227 21.0123Z" fill="#E76F00"/>
</g>
<defs>
<clipPath id="clip0_202_14627">
<rect width="28" height="36.0004" fill="white"/>
</clipPath>
</defs>
</svg>
