<svg width="41" height="32" viewBox="0 0 41 32" fill="none" xmlns="http://www.w3.org/2000/svg">
<g clip-path="url(#clip0_202_9139)">
<path d="M40.0022 25.1963C40.0022 28.6193 37.2149 31.4066 33.7919 31.4066H0.00219727V6.81C0.00219727 3.38702 2.78948 0.599731 6.21247 0.599731H40.0022V25.1963Z" fill="white"/>
<path d="M28.9998 18.8882H31.567C31.6403 18.8882 31.8115 18.8638 31.8848 18.8638C32.3738 18.766 32.7895 18.3259 32.7895 17.7146C32.7895 17.1278 32.3738 16.6877 31.8848 16.5655C31.8115 16.541 31.6648 16.541 31.567 16.541H28.9998V18.8882Z" fill="url(#paint0_linear_202_9139)"/>
<path d="M31.2736 2.67798C28.8287 2.67798 26.8238 4.65842 26.8238 7.12786V11.7489H33.1074C33.2541 11.7489 33.4252 11.7489 33.5475 11.7733C34.9656 11.8467 36.0169 12.5802 36.0169 13.8516C36.0169 14.854 35.3079 15.7098 33.9876 15.8809V15.9298C35.4301 16.0276 36.5304 16.8345 36.5304 18.0814C36.5304 19.4261 35.3079 20.3063 33.6942 20.3063H26.7993V29.3528H33.3274C35.7724 29.3528 37.7773 27.3724 37.7773 24.9029V2.67798H31.2736Z" fill="url(#paint1_linear_202_9139)"/>
<path d="M32.4716 14.145C32.4716 13.5582 32.056 13.167 31.567 13.0937C31.5181 13.0937 31.3958 13.0692 31.3225 13.0692H28.9998V15.2208H31.3225C31.3958 15.2208 31.5425 15.2208 31.567 15.1964C32.056 15.123 32.4716 14.7318 32.4716 14.145Z" fill="url(#paint2_linear_202_9139)"/>
<path d="M6.67696 2.67798C4.23198 2.67798 2.22709 4.65842 2.22709 7.12786V18.1059C3.47403 18.7171 4.76987 19.1083 6.06572 19.1083C7.60606 19.1083 8.43736 18.1792 8.43736 16.9078V11.7244H12.2515V16.8834C12.2515 18.8882 11.0046 20.5264 6.77476 20.5264C4.20753 20.5264 2.20264 19.964 2.20264 19.964V29.3283H8.73075C11.1757 29.3283 13.1806 27.3479 13.1806 24.8785V2.67798H6.67696Z" fill="url(#paint3_linear_202_9139)"/>
<path d="M18.9753 2.67798C16.5303 2.67798 14.5254 4.65842 14.5254 7.12786V12.9469C15.6501 11.9934 17.6061 11.3821 20.7601 11.5288C22.4472 11.6022 24.2564 12.0667 24.2564 12.0667V13.9494C23.3518 13.4848 22.276 13.0692 20.8824 12.9714C18.4863 12.8002 17.0437 13.9738 17.0437 16.0276C17.0437 18.1059 18.4863 19.2794 20.8824 19.0838C22.276 18.986 23.3518 18.5459 24.2564 18.1059V19.9885C24.2564 19.9885 22.4716 20.453 20.7601 20.5264C17.6061 20.6731 15.6501 20.0618 14.5254 19.1083V29.3772H21.0535C23.4985 29.3772 25.5034 27.3968 25.5034 24.9274V2.67798H18.9753Z" fill="url(#paint4_linear_202_9139)"/>
</g>
<defs>
<linearGradient id="paint0_linear_202_9139" x1="26.8196" y1="17.7175" x2="37.8068" y2="17.7175" gradientUnits="userSpaceOnUse">
<stop stop-color="#007940"/>
<stop offset="0.2285" stop-color="#00873F"/>
<stop offset="0.7433" stop-color="#40A737"/>
<stop offset="1" stop-color="#5CB531"/>
</linearGradient>
<linearGradient id="paint1_linear_202_9139" x1="26.8194" y1="16.0047" x2="37.8073" y2="16.0047" gradientUnits="userSpaceOnUse">
<stop stop-color="#007940"/>
<stop offset="0.2285" stop-color="#00873F"/>
<stop offset="0.7433" stop-color="#40A737"/>
<stop offset="1" stop-color="#5CB531"/>
</linearGradient>
<linearGradient id="paint2_linear_202_9139" x1="26.8194" y1="14.1419" x2="37.8069" y2="14.1419" gradientUnits="userSpaceOnUse">
<stop stop-color="#007940"/>
<stop offset="0.2285" stop-color="#00873F"/>
<stop offset="0.7433" stop-color="#40A737"/>
<stop offset="1" stop-color="#5CB531"/>
</linearGradient>
<linearGradient id="paint3_linear_202_9139" x1="2.22191" y1="16.0047" x2="13.3791" y2="16.0047" gradientUnits="userSpaceOnUse">
<stop stop-color="#1F286F"/>
<stop offset="0.4751" stop-color="#004E94"/>
<stop offset="0.8261" stop-color="#0066B1"/>
<stop offset="1" stop-color="#006FBC"/>
</linearGradient>
<linearGradient id="paint4_linear_202_9139" x1="14.4622" y1="16.0047" x2="25.2984" y2="16.0047" gradientUnits="userSpaceOnUse">
<stop stop-color="#6C2C2F"/>
<stop offset="0.1735" stop-color="#882730"/>
<stop offset="0.5731" stop-color="#BE1833"/>
<stop offset="0.8585" stop-color="#DC0436"/>
<stop offset="1" stop-color="#E60039"/>
</linearGradient>
<clipPath id="clip0_202_9139">
<rect width="41" height="32" fill="white"/>
</clipPath>
</defs>
</svg>
