<svg width="32" height="37" viewBox="0 0 32 37" fill="none" xmlns="http://www.w3.org/2000/svg">
<g clip-path="url(#clip0_202_14172)">
<path d="M8.02026 22.6108L15.9973 18.0043V8.79138L8.02026 13.3978V22.6108ZM15.9973 18.0043V8.79138L23.9744 13.3978V22.6108L15.9973 18.0043Z" fill="#0064C8"/>
<path d="M31.5501 9.02139C30.9509 8.02626 29.945 7.6464 28.982 7.07929L18.9505 1.2851C16.0829 -0.384143 16.0829 -0.459045 13.0333 1.29045L8.01486 4.18487L23.9743 13.3817V22.6107L15.9973 27.2172L8.01486 22.6107V13.3817L0.0324707 18.0043V23.7931C0.0324707 27.2921 0.0966723 27.2493 2.99109 28.8971L13.0333 34.7181C15.9277 36.3873 15.9277 36.4676 18.9505 34.7181L28.9981 28.8971C31.8925 27.2279 31.9513 27.26 31.9513 23.7717V12.1994C31.9513 11.0651 32.1333 10.0219 31.5501 9.02139Z" fill="url(#paint0_linear_202_14172)"/>
<path d="M0.0324707 18.0042V23.7931C0.0324707 27.2921 0.0966723 27.2493 2.99109 28.8971L13.0333 34.718C15.9277 36.3873 15.9277 36.4675 18.9505 34.718L15.9919 27.2279L8.01487 22.6107V13.3817L0.0324707 18.0042Z" fill="#0056B3"/>
<path opacity="0.3" d="M31.5447 9.02671C30.9455 8.03159 29.9397 7.65173 28.9767 7.08462L18.9452 1.29043C16.0561 -0.378814 16.0508 -0.453716 13.0279 1.29043L8.00952 4.1902L23.969 13.3817V22.616L15.9866 27.2225L8.00952 22.616V13.3817L0.0324707 18.0096V23.8038C0.0324707 27.2921 0.091322 27.26 2.98574 28.9292L13.0279 34.7234C15.9224 36.3926 15.9224 36.4729 18.9452 34.7234L28.9874 28.9292C31.8818 27.26 31.9406 27.2921 31.9406 23.8038V12.2047C31.946 11.0705 32.1333 10.0325 31.5447 9.02671Z" fill="#0088FB"/>
<path d="M8.01489 22.6108L15.9919 18.0043V8.79138L8.01489 13.3978V22.6108ZM15.9919 18.0043V8.79138L23.9743 13.3978V22.6108L15.9919 18.0043Z" fill="#0064C8"/>
</g>
<defs>
<linearGradient id="paint0_linear_202_14172" x1="16.0079" y1="31.5668" x2="16.0079" y2="0.033331" gradientUnits="userSpaceOnUse">
<stop stop-color="#0056B3"/>
<stop offset="0.25" stop-color="#0056B3"/>
<stop offset="0.7" stop-color="#0088FB"/>
<stop offset="1" stop-color="#00ACFF"/>
</linearGradient>
<clipPath id="clip0_202_14172">
<rect width="32" height="37" fill="white"/>
</clipPath>
</defs>
</svg>
