<svg width="34" height="37" viewBox="0 0 34 37" fill="none" xmlns="http://www.w3.org/2000/svg">
<g clip-path="url(#clip0_202_8576)">
<path d="M31.2624 17.7263C31.2624 15.8757 29.7622 14.3755 27.9115 14.3755C27.7925 14.3755 27.6751 14.3818 27.5594 14.394L32.1618 0.819702H12.6031L17.1991 14.3822C17.1317 14.3781 17.0639 14.3755 16.9955 14.3755C15.1448 14.3755 13.6446 15.8757 13.6446 17.7263C13.6446 19.2222 14.6249 20.4886 15.978 20.9195C15.2634 22.1574 14.3641 23.2723 13.3432 24.2355C11.9549 25.5452 10.3661 26.5382 8.64764 27.1502C6.60174 26.0992 5.63554 23.7618 6.50738 21.7123C6.60575 21.4808 6.70633 21.2463 6.80233 21.0127C8.2846 20.6668 9.38902 19.338 9.38902 17.7504C9.38902 15.8997 7.88882 14.3995 6.03811 14.3995C4.18748 14.3995 2.6872 15.8997 2.6872 17.7504C2.6872 18.8852 3.25189 19.8876 4.11497 20.4938C3.28561 22.3821 2.06645 24.3584 1.68664 26.6489C1.23145 29.3939 1.68517 32.3077 4.05932 33.9533C9.58854 37.7855 15.5905 31.5776 21.9187 30.0171C24.2121 29.4515 26.7296 29.5426 28.7502 28.3723C30.2676 27.4935 31.2679 26.0371 31.5518 24.4019C31.8323 22.7866 31.4234 21.1783 30.4831 19.8742C30.9694 19.2925 31.2624 18.5438 31.2624 17.7263Z" fill="#99425B"/>
<path d="M30.7455 24.2619C30.499 25.6815 29.6223 26.9215 28.34 27.6642C27.1448 28.3565 25.7124 28.5631 24.1959 28.7818C23.3835 28.8989 22.5435 29.0201 21.7228 29.2225C19.5528 29.7576 17.451 30.8016 15.4184 31.8112C11.3508 33.8316 7.83793 35.5763 4.52557 33.2807C2.09928 31.599 2.21132 28.4878 2.49399 26.7828C2.75596 25.2032 3.4642 23.7485 4.14911 22.3416C4.26745 22.0984 4.38341 21.8597 4.49627 21.623C4.83574 21.7586 5.19681 21.8512 5.57319 21.8932C4.876 24.1941 5.9724 26.696 8.27372 27.8782L8.58864 28.04L8.92222 27.9213C10.7415 27.2733 12.4179 26.2337 13.9048 24.8308C14.866 23.924 15.6924 22.9208 16.3715 21.8489C16.5752 21.8796 16.7834 21.8957 16.9955 21.8957C19.1076 21.8957 20.8567 20.3167 21.1273 18.2773C21.9919 18.2457 22.9102 18.2454 23.7797 18.277C24.0502 20.3165 25.7993 21.8957 27.9115 21.8957C28.7947 21.8957 29.6139 21.6189 30.2887 21.1487C30.7572 22.1078 30.9321 23.1869 30.7455 24.2619ZM6.03812 15.2179C7.43462 15.2179 8.57063 16.354 8.57063 17.7504C8.57063 18.252 8.42349 18.7198 8.17077 19.1136C7.74971 19.7702 7.03435 20.2202 6.21211 20.2763C6.15458 20.2803 6.09664 20.283 6.03812 20.283C5.72697 20.283 5.42883 20.2262 5.15319 20.1231C4.59562 19.9144 4.13102 19.5144 3.83877 19.0036C3.62722 18.6337 3.50561 18.2061 3.50561 17.7504C3.50561 16.354 4.6417 15.2179 6.03812 15.2179ZM14.463 17.7264C14.463 16.4576 15.4009 15.4041 16.6196 15.2219C16.7423 15.2035 16.8678 15.1939 16.9955 15.1939C17.8073 15.1939 18.5301 15.5785 18.9938 16.1745C19.109 16.3225 19.2089 16.4832 19.2894 16.6547C19.4422 16.9804 19.528 17.3435 19.528 17.7264C19.528 17.9289 19.5035 18.1257 19.4584 18.3145C19.2115 19.3477 18.3305 20.1374 17.251 20.2461C17.167 20.2545 17.0817 20.2589 16.9955 20.2589C16.4899 20.2589 16.0188 20.1094 15.623 19.8531C14.9257 19.4014 14.463 18.6171 14.463 17.7264ZM25.0328 14.7149C24.4902 15.2341 24.0868 15.8973 23.8859 16.6431C22.9481 16.6079 21.9536 16.6079 21.0212 16.6431C20.8071 15.8482 20.3628 15.1469 19.7653 14.6142L22.3858 9.31536L25.0328 14.7149ZM13.7446 1.63819H31.0201L26.9399 13.6723C26.763 13.7148 26.5905 13.7682 26.423 13.8325L22.3923 5.60993L18.3502 13.7834C18.1754 13.7232 17.9954 13.6748 17.8111 13.638L13.7446 1.63819ZM30.444 17.7264C30.444 17.9803 30.4061 18.2254 30.3363 18.4569C30.17 19.0075 29.821 19.4793 29.3602 19.8019C28.9493 20.0895 28.45 20.2589 27.9115 20.2589C26.7422 20.2589 25.7558 19.462 25.4658 18.3829C25.4095 18.1734 25.379 17.9534 25.379 17.7264C25.379 17.3802 25.449 17.0501 25.5753 16.7494C25.6403 16.5944 25.7215 16.4479 25.8147 16.3102C26.2705 15.6376 27.0396 15.1939 27.9115 15.1939C27.9915 15.1939 28.0704 15.198 28.1485 15.2053C29.4342 15.3251 30.444 16.4098 30.444 17.7264ZM32.0808 17.7264C32.0808 15.6909 30.6143 13.9926 28.6826 13.6297L33.3033 0.00140381H11.4617L16.0894 13.6574C14.2248 14.0723 12.8262 15.7386 12.8262 17.7264C12.8262 19.219 13.615 20.5301 14.7972 21.2668C14.2286 22.114 13.5542 22.9112 12.7816 23.6402C11.556 24.7964 10.1908 25.6731 8.71893 26.25C7.23641 25.3188 6.60968 23.5626 7.26055 22.0326L7.31154 21.9127C7.34346 21.8378 7.37537 21.7628 7.40721 21.6877C9.03556 21.1198 10.2074 19.5699 10.2074 17.7504C10.2074 15.4514 8.33707 13.5811 6.03812 13.5811C3.73918 13.5811 1.86882 15.4514 1.86882 17.7504C1.86882 18.9108 2.34578 19.9617 3.11343 20.7183C2.97431 21.0148 2.82781 21.3163 2.67748 21.6251C1.97562 23.0667 1.18015 24.7006 0.879304 26.515C0.281796 30.1184 1.24562 32.9989 3.59317 34.6259C5.01775 35.6132 6.46434 36.0014 7.92018 36.0014C10.6615 36.0014 13.4344 34.6242 16.1466 33.2771C18.0998 32.3069 20.1196 31.3037 22.1147 30.8117C22.857 30.6286 23.6209 30.5184 24.4296 30.4018C26.0332 30.1704 27.6915 29.9313 29.1604 29.0806C30.8631 28.0943 32.0286 26.4401 32.3582 24.542C32.6411 22.9125 32.3006 21.2803 31.4702 19.8963C31.8573 19.2637 32.0808 18.5207 32.0808 17.7264Z" fill="white"/>
</g>
<defs>
<clipPath id="clip0_202_8576">
<rect width="34" height="37" fill="white"/>
</clipPath>
</defs>
</svg>
