<svg width="41" height="34" viewBox="0 0 41 34" fill="none" xmlns="http://www.w3.org/2000/svg">
<g clip-path="url(#clip0_202_10806)">
<path d="M22.7902 16.1373L5.20346 0.843337C4.33185 0.0232031 3.06474 -0.219213 1.95195 0.221281C0.839172 0.661776 0.081287 1.70579 0.00717165 2.90029C-0.0669437 4.09479 0.556069 5.22448 1.60586 5.79916L21.387 18.0793L21.4768 18.1354C22.0286 18.498 22.7699 18.3448 23.1325 17.793C23.4952 17.2413 23.3419 16.5 22.7902 16.1373Z" fill="url(#paint0_linear_202_10806)"/>
<path d="M39.9981 18.5814C39.9363 17.0368 39.0624 15.64 37.7004 14.9088C36.3384 14.1777 34.6913 14.2211 33.3698 15.0231L8.67485 29.0796L8.63276 29.102C7.90389 29.4103 7.39486 30.084 7.29741 30.8694C7.19996 31.6548 7.52891 32.4325 8.16033 32.9095C8.79175 33.3866 9.62973 33.4906 10.3586 33.1823L37.2648 22.7992L37.3322 22.7711C39.0058 22.065 40.0674 20.3966 39.9981 18.5814Z" fill="url(#paint1_linear_202_10806)"/>
<path d="M20.1101 17.9276C20.3964 17.3724 20.2069 16.6903 19.6752 16.3623C19.1435 16.0343 18.449 16.171 18.0812 16.676L7.65604 29.9046L7.63359 29.9495C7.18002 30.6379 7.14642 31.5212 7.54638 32.2421C7.94635 32.9629 8.71365 33.4018 9.53774 33.3812C10.3618 33.3606 11.1063 32.8839 11.4697 32.144L20.0372 18.0455C20.0637 18.0076 20.0881 17.9683 20.1101 17.9276Z" fill="url(#paint2_linear_202_10806)"/>
<path d="M27.0528 9.98608H12.7354V24.3035H27.0528V9.98608Z" fill="black"/>
<path d="M15.8025 14.8634C15.9011 14.9645 15.9547 15.101 15.9513 15.2422C15.9561 15.4746 15.8113 15.6839 15.5921 15.7613C15.8632 15.8095 16.0593 16.0473 16.0551 16.3226C16.0551 16.7239 15.7296 16.9652 15.1711 16.9652H13.9673V14.6557H15.1655C15.397 14.6374 15.6263 14.7121 15.8025 14.8634ZM15.0926 16.0392H14.5987V16.4685H15.0982C15.2974 16.4685 15.4069 16.3928 15.4069 16.2552C15.4097 16.1149 15.3114 16.0392 15.0926 16.0392ZM15.0364 15.1777H14.6127V15.5874H15.0196C15.216 15.5874 15.3283 15.52 15.3283 15.3853L15.3171 15.3769C15.3171 15.2478 15.2132 15.1777 15.0364 15.1777ZM19.605 14.6389L20.5984 16.9905H19.9053L19.7397 16.5695H18.8333L18.6677 16.9905H17.9914L17.9938 16.9849H17.562L17.0906 16.2777H16.81V16.9849H16.1645V14.6557H17.2562C17.5329 14.6333 17.807 14.7233 18.0167 14.9054C18.1585 15.0502 18.2337 15.2474 18.2243 15.4499C18.2371 15.7687 18.0435 16.0597 17.7445 16.1711L18.1121 16.7041L18.982 14.6389H19.605ZM19.2823 15.405L19.0185 16.0644H19.5433L19.2823 15.405ZM17.2281 15.2169H16.8016V15.7782H17.2309C17.3161 15.7993 17.4062 15.7793 17.4745 15.7242C17.5429 15.6691 17.5815 15.5853 17.5789 15.4976C17.5817 15.4092 17.5427 15.3247 17.4737 15.2695C17.4047 15.2143 17.3137 15.1948 17.2281 15.2169ZM13.9701 21.618H19.3384V22.5132H13.9701V21.618ZM13.9111 13.7549L14.3265 13.362C14.4076 13.4885 14.5441 13.5688 14.6941 13.5781C14.774 13.5743 14.8485 13.5366 14.8989 13.4745C14.9493 13.4123 14.9708 13.3316 14.9579 13.2526V11.7765H15.6005V13.2554C15.6188 13.4968 15.5354 13.7349 15.3704 13.912C15.1975 14.0736 14.9669 14.1586 14.7306 14.1478C14.4086 14.1636 14.1004 14.0159 13.9111 13.7549ZM15.7492 11.7765H17.6266V12.3237H16.389V12.6801H17.5115V13.1908H16.389V13.5613H17.6434V14.1225H15.7492V11.7877V11.7765ZM18.4741 12.3433H17.7781V11.7821H19.8211V12.3433H19.1223V14.1113H18.4769V12.3433H18.4741ZM20.6742 14.6557H21.3196V16.9905H20.6742V14.6557ZM21.4824 14.6557H22.0857L23.0454 15.8904V14.6557H23.6853V16.9905H23.124L22.125 15.7108V16.9905H21.4852V14.6557H21.4824ZM23.7246 16.6425L24.0837 16.2132C24.2967 16.3908 24.5642 16.4899 24.8414 16.4938C25.0182 16.4938 25.1221 16.4348 25.1221 16.3338C25.1221 16.2328 25.0463 16.1851 24.7264 16.1065C24.2297 15.9943 23.8452 15.854 23.8452 15.3769C23.8452 14.9447 24.1876 14.6304 24.7488 14.6304C25.0952 14.6168 25.4351 14.7261 25.7086 14.9391L25.3858 15.3965C25.1969 15.2541 24.9685 15.1737 24.732 15.1664C24.5748 15.1664 24.4991 15.231 24.4991 15.3152C24.4991 15.4218 24.5805 15.4695 24.906 15.5425C25.4392 15.6603 25.7731 15.8231 25.7731 16.2693C25.7731 16.7463 25.3971 17.0298 24.8302 17.0298C24.4265 17.0416 24.0327 16.9036 23.7246 16.6425Z" fill="white"/>
</g>
<defs>
<linearGradient id="paint0_linear_202_10806" x1="1.3084" y1="1.89848" x2="17.1119" y2="19.0432" gradientUnits="userSpaceOnUse">
<stop stop-color="#AA4A9B"/>
<stop offset="1" stop-color="#F05922"/>
</linearGradient>
<linearGradient id="paint1_linear_202_10806" x1="7.92278" y1="33.5555" x2="24.2924" y2="7.54321" gradientUnits="userSpaceOnUse">
<stop stop-color="#FFE42E"/>
<stop offset="1" stop-color="#ED417C"/>
</linearGradient>
<linearGradient id="paint2_linear_202_10806" x1="8.85992" y1="32.0739" x2="23.685" y2="19.7175" gradientUnits="userSpaceOnUse">
<stop stop-color="#FFE42E"/>
<stop offset="1" stop-color="#F05922"/>
</linearGradient>
<clipPath id="clip0_202_10806">
<rect width="41" height="34" fill="white"/>
</clipPath>
</defs>
</svg>
