<svg width="36" height="37" viewBox="0 0 36 37" fill="none" xmlns="http://www.w3.org/2000/svg">
<g clip-path="url(#clip0_202_15666)">
<path d="M35.8794 4.88458C35.8794 2.27608 33.7648 0.161499 31.1563 0.161499C28.7746 0.161499 26.8057 1.92475 26.4813 4.21695C26.451 4.20089 26.4334 4.19182 26.4334 4.19182C22.5709 2.44966 19.3173 5.5353 19.3173 5.5353L10.7111 14.1837L14.1116 17.4584L21.0386 10.653C24.2733 7.41822 26.0346 9.60765 26.0346 9.60765C28.4696 11.6647 26.1185 14.0998 26.1185 14.0998L29.6031 17.4584C32.4485 14.3852 32.6136 11.703 31.7487 9.56925C34.0773 9.27768 35.8794 7.29226 35.8794 4.88458Z" fill="#F9AE41"/>
<path d="M31.7926 26.6059C31.8087 26.5758 31.8177 26.5582 31.8177 26.5582C33.56 22.6956 30.4743 19.4421 30.4743 19.4421L21.8257 10.8356L18.5511 14.2362L25.3565 21.1633C28.5913 24.3981 26.4019 26.1594 26.4019 26.1594C24.3449 28.5944 21.9098 26.2433 21.9098 26.2433L18.5511 29.7277C21.6242 32.5732 24.3066 32.7383 26.4402 31.8733C26.7317 34.2021 28.7173 36.0042 31.125 36.0042C33.7335 36.0042 35.8479 33.8896 35.8479 31.2811C35.8479 28.8994 34.0848 26.9305 31.7926 26.6059Z" fill="#EE4035"/>
<path d="M21.8993 18.5498L14.9722 25.3551C11.7375 28.59 9.97617 26.4007 9.97617 26.4007C7.54112 24.3435 9.89225 21.9086 9.89225 21.9086L6.40779 18.5499C3.56233 21.623 3.39727 24.3052 4.26207 26.439C1.93327 26.7305 0.131348 28.7158 0.131348 31.1236C0.131348 33.7321 2.24593 35.8466 4.85442 35.8466C7.23614 35.8467 9.20508 34.0836 9.52946 31.7914C9.55976 31.8075 9.57736 31.8164 9.57736 31.8164C13.44 33.5588 16.6935 30.4729 16.6935 30.4729L25.2998 21.8244L21.8993 18.5498Z" fill="#4F91CD"/>
<path d="M10.6542 14.8451C7.41944 11.6103 9.60859 9.84898 9.60859 9.84898C11.6659 7.41392 14.1008 9.76505 14.1008 9.76505L17.4595 6.28073C14.3864 3.43527 11.7042 3.27021 9.57061 4.13501C9.2789 1.80608 7.29363 0.00415039 4.88566 0.00415039C2.2773 0.00415039 0.162859 2.11873 0.16272 4.72723C0.16272 7.10908 1.92583 9.07802 4.21803 9.40241C4.20197 9.43271 4.19304 9.4503 4.19304 9.4503C2.45046 13.3128 5.53638 16.5661 5.53638 16.5661L14.185 25.1726L17.4596 21.7721L10.6542 14.8451Z" fill="#7AC043"/>
</g>
<defs>
<clipPath id="clip0_202_15666">
<rect width="36" height="37" fill="white"/>
</clipPath>
</defs>
</svg>
