<svg width="37" height="37" viewBox="0 0 37 37" fill="none" xmlns="http://www.w3.org/2000/svg">
<g clip-path="url(#clip0_202_8720)">
<circle cx="18.0017" cy="18.0054" r="15.75" fill="#0769AD"/>
<path d="M25.4912 15.1042C26.9052 15.1042 28.2 14.6325 29.2011 13.8503C28.1619 15.2197 26.44 16.115 24.4917 16.115C21.3179 16.115 18.745 13.7391 18.745 10.8083C18.745 9.18323 19.536 7.7288 20.7818 6.75537C20.128 7.61676 19.7444 8.66573 19.7444 9.79745C19.7444 12.7283 22.3173 15.1042 25.4912 15.1042Z" fill="#78CFF5"/>
<path d="M29.1464 18.7463C27.6218 19.9422 25.6481 20.6636 23.4923 20.6636C18.6625 20.6636 14.7472 17.0431 14.7472 12.5771C14.7472 10.845 15.3362 9.24003 16.3391 7.92418C14.4481 9.40747 13.2481 11.6208 13.2481 14.0933C13.2481 18.5593 17.1634 22.1798 21.9931 22.1798C24.9497 22.1798 27.5635 20.8231 29.1464 18.7463Z" fill="#78CFF5"/>
<path d="M29.2517 23.3717C27.0792 25.4448 24.0696 26.7284 20.7438 26.7284C14.1202 26.7284 8.75059 21.6372 8.75059 15.3569C8.75059 13.3668 9.28974 11.4961 10.2371 9.869C8.08283 11.9248 6.75171 14.7569 6.75171 17.8839C6.75171 24.1642 12.1213 29.2554 18.745 29.2554C23.2698 29.2554 27.2094 26.8795 29.2517 23.3717Z" fill="#78CFF5"/>
</g>
<defs>
<clipPath id="clip0_202_8720">
<rect width="37" height="37" fill="white"/>
</clipPath>
</defs>
</svg>
