<svg width="37" height="28" viewBox="0 0 37 28" fill="none" xmlns="http://www.w3.org/2000/svg">
<g clip-path="url(#clip0_202_8751)">
<path d="M4.83062 0.578369H30.6285C31.1933 0.578369 31.6122 1.10206 31.4883 1.65302L27.8523 17.8147C27.726 18.3758 27.2278 18.7745 26.6528 18.7745H0.987208C0.356927 18.7745 -0.111072 18.1908 0.0258968 17.5755L3.59003 1.57301C3.71955 0.991806 4.23522 0.578369 4.83062 0.578369Z" fill="#0481A3"/>
<path d="M16.1294 4.979H35.3173C35.7555 4.979 36.0808 5.38513 35.9852 5.81263L32.7611 20.2298C32.6489 20.7309 32.2041 21.0873 31.6905 21.0873H12.4442C12.0479 21.0873 11.7538 20.72 11.8408 20.3333L15.1052 5.79871C15.2128 5.31946 15.6383 4.979 16.1294 4.979Z" fill="#14BEF0"/>
<path d="M16.1295 4.979C15.6385 4.979 15.2129 5.31946 15.1054 5.79871L12.1909 18.7744H26.6529C27.2279 18.7744 27.7263 18.3759 27.8524 17.8148L30.7402 4.979H16.1295Z" fill="#73D8F4"/>
<path d="M9.86162 9.78894H18.6442C19.1188 9.78894 19.4701 10.2305 19.3634 10.693L15.6812 26.643C15.5745 27.105 15.163 27.4324 14.6888 27.4324H5.77225C5.34447 27.4324 5.02708 27.0354 5.12144 26.6181L8.71707 10.7037C8.83801 10.1688 9.31318 9.78894 9.86162 9.78894Z" fill="#6ABA2F"/>
<path d="M11.8407 20.3332C11.7538 20.72 12.048 21.0874 12.4443 21.0874H16.9637L17.4977 18.7744H12.1909L11.8407 20.3332Z" fill="#B8EC00"/>
<path d="M18.6442 9.78894H14.209L12.1909 18.7744H17.4977L19.3633 10.693C19.4702 10.2305 19.1189 9.78894 18.6442 9.78894Z" fill="white"/>
<path d="M9.86158 9.78894C9.31314 9.78894 8.83797 10.1688 8.71704 10.7037L6.89355 18.7744H12.1909L14.209 9.78894H9.86158Z" fill="#81D958"/>
</g>
<defs>
<clipPath id="clip0_202_8751">
<rect width="37" height="28" fill="white"/>
</clipPath>
</defs>
</svg>
