<svg width="41" height="30" viewBox="0 0 41 30" fill="none" xmlns="http://www.w3.org/2000/svg">
<g clip-path="url(#clip0_202_13321)">
<path d="M39.5283 19.0204L36.6612 18.0079L36.3137 15.9095C36.2707 15.6489 36.0879 15.4343 35.8395 15.3489C35.591 15.2653 35.3164 15.3218 35.122 15.5001L31.5728 18.7784L29.6157 14.5845C32.0551 10.7542 33.2382 6.94101 33.3249 6.65476C33.4053 6.38335 33.3215 6.09148 33.1085 5.90648C32.8956 5.72163 32.594 5.68117 32.3379 5.79898L26.7376 8.41133L25.7249 6.23867L27.6721 1.75021C27.7909 1.47881 27.7279 1.16099 27.5143 0.954744C27.3002 0.745837 26.9824 0.692555 26.7131 0.817712L0.41969 13.0801C0.173596 13.194 0.0129701 13.4371 0.00484505 13.7078C-0.00156122 13.9768 0.141564 14.2301 0.380627 14.3584L5.16595 16.9421L8.86581 24.8773C8.94675 25.0478 9.09097 25.1811 9.26847 25.2461L20.1204 29.2061C20.1994 29.2351 20.2827 29.25 20.366 29.25C20.4683 29.25 20.5719 29.227 20.6674 29.1833L39.594 20.3426C39.8559 20.2193 40.0184 19.9498 40.0037 19.6595C39.9904 19.3696 39.8018 19.1165 39.5283 19.0204Z" fill="#4A0000"/>
<path d="M35.3182 18.6584L35.1192 17.4503L32.2073 20.141L33.0056 21.8517L37.4056 19.7877L35.786 19.2159C35.5417 19.1295 35.3618 18.9147 35.3182 18.6584Z" fill="#CA1F27"/>
<path d="M6.26168 15.9075L2.29761 13.7672L4.73761 12.6366L6.26168 15.9075Z" fill="#FFD440"/>
<path d="M27.596 14.9878C27.6065 14.9726 27.617 14.9595 27.6281 14.9446C29.4815 12.3356 30.7302 9.51993 31.3913 7.81946L17.2725 14.4032C17.0572 14.5024 16.8088 14.4893 16.605 14.3698C16.4019 14.2498 16.2716 14.0354 16.2554 13.8006C16.2541 13.7689 16.0319 10.6998 14.3099 9.6215C13.5052 9.11696 12.4355 9.12946 11.1378 9.65587L4.73657 12.6393L10.038 24.0047L20.3312 27.762L30.6418 22.9558C29.9673 21.9733 28.4695 19.9975 26.4682 18.58C24.8982 20.1543 23.0454 21.4583 20.8876 22.135C20.8165 22.1572 20.7449 22.1676 20.674 22.1676C20.3702 22.1676 20.0879 21.9712 19.9924 21.6654C19.8738 21.2892 20.0833 20.887 20.4604 20.7706C20.4604 20.7706 24.3226 19.7868 27.596 14.9878Z" fill="#CA1F27"/>
<path d="M9.97377 12.3913C9.0847 12.0677 8.09939 12.526 7.77704 13.4153C7.45298 14.3049 7.91205 15.2883 8.80064 15.6108C9.69049 15.9358 10.6744 15.4775 10.998 14.5866C11.3203 13.6981 10.863 12.7149 9.97377 12.3913Z" fill="#4A0000"/>
</g>
<defs>
<clipPath id="clip0_202_13321">
<rect width="41" height="30" fill="white"/>
</clipPath>
</defs>
</svg>
