<svg width="30" height="41" viewBox="0 0 30 41" fill="none" xmlns="http://www.w3.org/2000/svg">
<g clip-path="url(#clip0_202_13713)">
<path d="M1.72729 17.7888V34.2202C1.72729 37.408 7.67247 39.9925 15.0062 39.9925C22.34 39.9925 28.2851 37.408 28.2851 34.2202V17.7888C28.2851 17.7888 27.7327 23.3997 15.0062 23.3997C2.27944 23.3998 1.72729 17.7888 1.72729 17.7888Z" fill="#9EAAB2"/>
<path d="M15.0062 23.561C22.3399 23.561 28.2851 20.9769 28.2851 17.7892C28.2851 14.6015 22.3399 12.0173 15.0062 12.0173C7.67246 12.0173 1.72729 14.6015 1.72729 17.7892C1.72729 20.9769 7.67246 23.561 15.0062 23.561Z" fill="#8E979A"/>
<path d="M1.72729 17.7888V34.2202C1.72729 37.408 7.67247 39.9925 15.0062 39.9925C22.34 39.9925 28.2851 37.408 28.2851 34.2202V17.7888C28.2851 17.7888 27.7327 23.3997 15.0062 23.3997C2.27944 23.3998 1.72729 17.7888 1.72729 17.7888Z" fill="#9EAAB2"/>
<path d="M26.5091 20.5263C26.8838 20.2394 27.2493 19.9524 27.5254 19.564C27.6839 19.3406 27.8145 19.1027 27.9371 18.8605C28.0729 18.6244 28.1894 18.3803 28.285 18.1287V34.2202C28.285 35.6983 27.0063 37.0466 24.9041 38.0677V21.4956C25.471 21.2285 26.012 20.9065 26.5091 20.5263L26.5091 20.5263Z" fill="#8E979A"/>
<path d="M3.50325 20.5263C3.12832 20.2394 2.76308 19.9524 2.48696 19.564C2.32812 19.3406 2.19768 19.1027 2.07516 18.8605C1.93938 18.6244 1.82298 18.3803 1.72729 18.1287V34.2202C1.72729 35.6983 3.00602 37.0466 5.10812 38.0677V21.4956C4.54138 21.2285 4.00026 20.9065 3.50325 20.5263L3.50325 20.5263Z" fill="#8E979A"/>
<path d="M15.0059 39.5621C7.85304 39.5621 2.02304 37.1719 1.74658 34.1794C1.73967 34.2532 1.73511 34.3274 1.73511 34.4015C1.73511 37.4973 7.67661 40.0068 15.0059 40.0068C22.3351 40.0068 28.2766 37.4973 28.2766 34.4015C28.2766 34.3274 28.2724 34.2532 28.2652 34.1794C27.9886 37.1719 22.1587 39.5621 15.0059 39.5621Z" fill="#8E979A"/>
<path d="M15.0059 23.1713C7.85304 23.1713 2.02304 20.7812 1.74658 17.7888C1.73967 17.8626 1.73511 17.9365 1.73511 18.0111C1.73511 21.1068 7.67661 23.6161 15.0059 23.6161C22.3351 23.6161 28.2766 21.1068 28.2766 18.0111C28.2766 17.9365 28.2724 17.8626 28.2652 17.7888C27.9886 20.7812 22.1587 23.1713 15.0059 23.1713Z" fill="#DBE1E3"/>
<path d="M15.0059 37.722C7.85304 37.722 2.02304 35.332 1.74658 32.3396C1.73967 32.4136 1.73511 32.4873 1.73511 32.5619C1.73511 35.6576 7.67661 38.1669 15.0059 38.1669C22.3351 38.1669 28.2766 35.6576 28.2766 32.5619C28.2766 32.4873 28.2724 32.4136 28.2652 32.3396C27.9886 35.332 22.1587 37.722 15.0059 37.722Z" fill="#DBE1E3"/>
<path d="M27.1286 17.4861C27.1286 17.9944 26.9094 18.4527 26.505 18.9095C25.7047 19.8137 20.4078 21.9101 15.0878 21.9146C9.71327 21.9193 4.31501 19.8229 3.50611 18.9095C3.10089 18.4524 2.88257 17.9951 2.88257 17.4861C2.88257 14.9555 8.31035 12.9041 15.0056 12.9041C21.7009 12.9042 27.1286 14.9555 27.1286 17.4861Z" fill="#1A2B2F"/>
<path d="M3.50562 12.0154C5.41858 13.3499 10.2845 14.5955 15.0051 14.5955C19.7257 14.5955 24.8586 13.3054 26.5045 12.0154V11.2146C26.5045 11.2146 22.8976 13.5225 15.0051 13.5225C7.11244 13.5225 3.50562 11.2146 3.50562 11.2146V12.0154Z" fill="#1B3134"/>
<path d="M26.5055 18.446C26.5055 18.446 24.1676 21.7378 15.0061 21.7378C5.84439 21.7378 3.50659 18.446 3.50659 18.446V11.2986C3.50659 11.2986 6.81691 13.5526 14.7354 13.5526C22.6538 13.5526 26.5056 11.2986 26.5056 11.2986V18.446H26.5055Z" fill="#213F48"/>
<path d="M15.0016 21.3852C9.22799 21.3843 4.45539 19.714 3.50659 17.7869V18.9099C3.50659 18.9099 5.84316 22.0664 14.9971 22.0686H15.0016H15.0061C24.1603 22.0664 26.5055 18.9099 26.5055 18.9099V17.7869C25.5567 19.714 20.7753 21.3843 15.0016 21.3852Z" fill="#1B3134"/>
<path d="M15.0054 13.2887C7.32076 13.2887 1.05712 10.8984 0.759944 7.90601C0.752592 7.97974 0.747803 8.05393 0.747803 8.12833C0.747803 11.2241 7.13117 13.7334 15.0054 13.7334C22.8795 13.7334 29.2629 11.2241 29.2629 8.12833C29.2629 8.05393 29.2581 7.97974 29.2507 7.90601C28.9536 10.8984 22.69 13.2887 15.0054 13.2887Z" fill="#8E979A"/>
<path d="M15.0054 0.00561523C7.13117 0.00561523 0.747803 2.51517 0.747803 5.61084V8.05757C0.747803 11.153 7.13117 13.6626 15.0054 13.6626C22.8795 13.6626 29.2629 11.153 29.2629 8.05757V5.61084C29.2629 2.51517 22.8795 0.00561523 15.0054 0.00561523V0.00561523Z" fill="#9EAAB2"/>
<path d="M14.9766 1.89624C17.0837 1.89624 19.0248 2.18574 20.4976 2.66247L22.6077 1.89624L23.1186 4.07029H16.7454L16.6642 4.05381L18.93 3.23144C17.8878 2.88313 16.4973 2.67016 14.9825 2.67016C13.7683 2.67016 12.6307 2.80806 11.6902 3.04386L9.59679 2.61881C11.0652 2.16145 12.96 1.89624 14.9766 1.89624V1.89624ZM6.73592 3.89798C6.80665 3.5813 7.5828 3.32879 8.47077 3.32879C9.35853 3.32879 10.0449 3.58142 10.0032 3.89798C9.96091 4.22033 9.18231 4.48588 8.26515 4.48588C7.3481 4.48599 6.66385 4.22033 6.73592 3.89798ZM15.012 7.91426C12.5279 7.91426 10.3276 7.51928 8.81106 6.89975L6.01636 7.91426L6.5959 5.26603H13.2645L13.2948 5.27261L10.7201 6.20703C11.7851 6.62551 13.3037 6.89039 15.004 6.89039C16.4012 6.89039 17.667 6.71318 18.6576 6.42034L21.0971 6.94274C19.6156 7.52976 17.4769 7.91426 15.012 7.91426ZM21.9359 6.0913C20.9781 6.0913 20.1596 5.80147 20.1086 5.45049C20.0587 5.10564 20.7695 4.83096 21.6949 4.83096C22.6207 4.83096 23.4366 5.10564 23.5183 5.45049C23.6015 5.80147 22.8936 6.0913 21.9359 6.0913Z" fill="#DBE1E3"/>
<path d="M24.9031 12.0916V9.37218C24.9031 9.37218 28.7622 8.18602 29.2628 5.61108V8.05781C29.2628 9.64185 27.5907 11.0723 24.9031 12.0916Z" fill="#8E979A"/>
<path d="M5.10738 12.0916V9.34244C2.0713 8.39353 0.88492 6.67327 0.747803 5.61108V8.05781C0.747914 9.64185 2.41983 11.0723 5.10738 12.0916Z" fill="#8E979A"/>
<path d="M15.0054 10.7711C7.32076 10.7711 1.05712 8.38084 0.759944 5.38843C0.752592 5.46228 0.747803 5.53624 0.747803 5.61087C0.747803 8.70643 7.13117 11.2159 15.0054 11.2159C22.8795 11.2159 29.2629 8.70643 29.2629 5.61087C29.2629 5.53624 29.2581 5.46228 29.2507 5.38843C28.9536 8.38084 22.69 10.7711 15.0054 10.7711Z" fill="#DBE1E3"/>
<path d="M22.5966 17.3604C22.5966 18.4505 21.799 19.3345 20.7053 19.3345C19.6117 19.3345 18.8142 18.4505 18.8142 17.3604C18.8142 16.27 19.6117 15.3864 20.7053 15.3864C21.799 15.3864 22.5966 16.27 22.5966 17.3604Z" fill="#1B3134"/>
<path d="M20.7058 18.7048C21.6653 18.7048 22.4431 17.927 22.4431 16.9675C22.4431 16.008 21.6653 15.2302 20.7058 15.2302C19.7463 15.2302 18.9685 16.008 18.9685 16.9675C18.9685 17.927 19.7463 18.7048 20.7058 18.7048Z" fill="#51C3F1"/>
<path d="M20.7052 17.266C21.0182 17.266 21.2719 17.0123 21.2719 16.6993C21.2719 16.3863 21.0182 16.1326 20.7052 16.1326C20.3922 16.1326 20.1384 16.3863 20.1384 16.6993C20.1384 17.0123 20.3922 17.266 20.7052 17.266Z" fill="white"/>
<path d="M11.1504 17.3605C11.1504 18.4506 10.3529 19.3346 9.25916 19.3346C8.16567 19.3346 7.36792 18.4506 7.36792 17.3605C7.36792 16.2701 8.16556 15.3865 9.25916 15.3865C10.3529 15.3865 11.1504 16.2701 11.1504 17.3605Z" fill="#1B3134"/>
<path d="M9.27699 18.7046C10.2364 18.7046 11.0142 17.9268 11.0142 16.9674C11.0142 16.008 10.2364 15.2302 9.27699 15.2302C8.31756 15.2302 7.53979 16.008 7.53979 16.9674C7.53979 17.9268 8.31756 18.7046 9.27699 18.7046Z" fill="#51C3F1"/>
<path d="M9.25888 17.266C9.57188 17.266 9.82561 17.0123 9.82561 16.6993C9.82561 16.3863 9.57188 16.1326 9.25888 16.1326C8.94588 16.1326 8.69214 16.3863 8.69214 16.6993C8.69214 17.0123 8.94588 17.266 9.25888 17.266Z" fill="white"/>
<path d="M15.088 36.4629C14.4955 36.4629 13.8997 36.4318 12.9625 36.3524C12.5233 36.3148 12.1658 35.9221 12.1658 35.4761V26.5682C12.1658 26.1529 12.4803 25.8396 12.8976 25.8396C12.9206 25.8396 12.9445 25.8407 12.9681 25.8427C13.9017 25.922 14.4962 25.9531 15.088 25.9531C15.6797 25.9531 16.2741 25.922 17.2082 25.8426C17.2315 25.8406 17.2553 25.8396 17.2783 25.8396C17.6954 25.8396 18.0101 26.1528 18.0101 26.5682V35.4761C18.0101 35.9221 17.6525 36.3148 17.2133 36.3524C16.2758 36.4318 15.6801 36.4629 15.088 36.4629H15.088ZM12.8976 26.2845C12.7258 26.2845 12.6107 26.3983 12.6107 26.5682V35.4761C12.6107 35.6891 12.7927 35.8914 13.0003 35.9091C13.9238 35.9874 14.5091 36.0181 15.088 36.0181C15.6666 36.0181 16.2519 35.9875 17.1756 35.9091C17.3831 35.8915 17.5653 35.6891 17.5653 35.4761V26.5682C17.5653 26.3881 17.4313 26.2692 17.2463 26.286C16.2982 26.3665 15.6933 26.3979 15.088 26.3979C14.4826 26.3979 13.8776 26.3665 12.9299 26.286C12.919 26.2849 12.9079 26.2845 12.8976 26.2845H12.8976Z" fill="#DBE1E3"/>
<path d="M25.9483 25.9021C24.8922 26.5866 22.9265 27.8605 19.0046 28.7443C19.5679 31.7337 19.5679 31.7337 20.3085 35.6518C21.6653 35.248 24.4888 34.4072 26.7762 32.5214C26.5152 30.3309 26.306 28.6272 25.9483 25.9021" fill="#F5DD3E"/>
<path d="M23.3928 33.7755C22.6199 34.2019 22.0916 33.5823 22.0916 33.5823L22.5479 33.1487C22.5479 33.1487 22.8024 33.477 23.2229 33.197C23.4198 33.0661 23.2914 32.41 23.2914 32.41L22.9134 30.6061L23.5083 30.3552C23.5083 30.3552 23.869 32.4383 23.9066 32.6467C23.977 33.0369 24.035 33.4209 23.3928 33.7755V33.7755Z" fill="#3B3735"/>
<path d="M24.995 32.8631C24.5597 32.9288 24.3136 32.6042 24.3136 32.6042L24.7105 32.1185C24.7105 32.1185 24.8601 32.2844 25.0678 32.2534C25.244 32.2264 25.4509 32.1091 25.5231 31.8877C25.646 31.5085 25.5321 31.3786 25.1459 31.4216C24.7602 31.4647 24.275 31.5213 24.1891 30.7604C24.1129 30.0856 24.7029 29.5693 25.1023 29.4991C25.4987 29.4297 25.7198 29.7095 25.7198 29.7095L25.3246 30.1893C25.3246 30.1893 25.0624 30.0701 24.9047 30.2112C24.7614 30.3398 24.7062 30.5077 24.7608 30.6352C24.8086 30.747 24.953 30.7962 25.1848 30.7791C25.4167 30.7623 25.7985 30.6275 26.0335 31.1004C26.2979 31.6316 26.0225 32.7083 24.995 32.8631L24.995 32.8631Z" fill="#3B3735"/>
</g>
<defs>
<clipPath id="clip0_202_13713">
<rect width="30" height="41" fill="white"/>
</clipPath>
</defs>
</svg>
