<svg width="34" height="37" viewBox="0 0 34 37" fill="none" xmlns="http://www.w3.org/2000/svg">
<g clip-path="url(#clip0_202_15959)">
<path d="M16.8063 0.00537109L33.8925 5.99594L31.2973 28.0852L16.8063 36.0054L2.448 28.0745L0.111572 5.9991L16.8063 0.00537109Z" fill="#E14337"/>
<path d="M23.1032 18.561C23.1032 19.1051 22.6621 19.5462 22.1179 19.5462C21.5737 19.5462 21.1325 19.1051 21.1325 18.561C21.1325 18.0168 21.5737 17.5757 22.1179 17.5757C22.6621 17.5757 23.1032 18.0168 23.1032 18.561ZM17.2239 12.3894C17.2239 12.9335 16.7827 13.3746 16.2387 13.3746C15.6945 13.3746 15.2533 12.9335 15.2533 12.3894C15.2533 11.8452 15.6945 11.4041 16.2387 11.4041C16.7827 11.4041 17.2239 11.8452 17.2239 12.3894ZM16.964 10.7216C18.1654 9.53373 19.4902 8.51014 20.8408 7.75654C19.6127 7.23016 18.2604 6.93774 16.8395 6.93774C16.1745 6.93774 15.525 7.00372 14.8956 7.12565C15.0095 8.12958 15.3839 9.33117 15.9774 10.5912C16.0629 10.579 16.1497 10.5704 16.2387 10.5704C16.4966 10.5704 16.7417 10.6247 16.964 10.7216ZM11.8436 20.031C11.9374 19.2847 12.1133 18.5187 12.3779 17.7373C12.8792 16.2576 13.6906 14.7612 14.7027 13.361C14.5244 13.0797 14.4196 12.747 14.4196 12.3894C14.4196 11.8983 14.6151 11.4534 14.9314 11.1262C14.3128 9.82232 13.9018 8.5463 13.7522 7.41648C9.64691 8.72378 6.67261 12.5662 6.67261 17.1046C6.67261 17.402 6.68818 17.6956 6.71312 17.9866C7.97225 19.5125 9.39632 20.3761 10.8044 20.8237C11.0384 20.4446 11.4064 20.1581 11.8436 20.031ZM17.52 15.2024C17.2386 14.8563 16.9713 14.5019 16.7156 14.143C16.5633 14.1844 16.4039 14.2083 16.2387 14.2083C16.0158 14.2083 15.8032 14.1663 15.6058 14.093C14.6847 15.3809 13.9457 16.754 13.4854 18.1125C13.2892 18.6919 13.1147 19.3625 13.0163 20.0847C13.5227 20.284 13.9185 20.7024 14.0847 21.2244C14.4584 21.2061 14.8179 21.1689 15.1582 21.1187C16.9661 20.8526 18.7701 20.1463 20.3949 19.141C20.3335 18.9586 20.2988 18.764 20.2988 18.5609C20.2988 18.3901 20.3242 18.2254 20.3681 18.0687C19.4312 17.3115 18.4708 16.3718 17.52 15.2024ZM17.6843 13.4902C18.6135 14.7954 19.7434 16.0501 21.0312 17.1047C21.3346 16.8779 21.7099 16.742 22.1179 16.742C22.478 16.742 22.8127 16.8479 23.0951 17.0285C24.39 15.7606 25.4197 14.2926 26.0266 12.747C25.172 10.9487 23.806 9.44056 22.1154 8.41223C20.6275 9.11859 19.1477 10.2017 17.8248 11.5004C17.9724 11.7634 18.0576 12.0662 18.0576 12.3894C18.0576 12.8036 17.9176 13.1843 17.6843 13.4902ZM23.8954 18.945C24.766 19.3597 25.6799 19.6708 26.6299 19.8447C26.8733 18.9726 27.0065 18.0544 27.0065 17.1046C27.0065 16.1254 26.8651 15.1795 26.6068 14.2834C25.9194 15.5973 24.9621 16.8366 23.8235 17.9338C23.8956 18.1295 23.9369 18.3401 23.9369 18.5609C23.9369 18.6928 23.9221 18.8211 23.8954 18.945ZM10.5417 21.9563C9.28654 21.5675 8.13218 20.9294 7.10886 20.0544C8.10196 23.3348 10.7081 25.9123 14.0048 26.8681C13.5479 26.4192 13.18 25.9627 12.8996 25.4945C12.5368 24.8889 12.262 24.2457 12.0728 23.5721C11.259 23.4466 10.6229 22.7839 10.5417 21.9563ZM21.0981 20.0672C19.3119 21.192 17.322 21.9821 15.3284 22.2756C14.8998 22.3387 14.4769 22.378 14.0603 22.3953C13.9096 22.8113 13.6131 23.1572 13.2306 23.3688C13.3838 23.8804 13.6022 24.3919 13.9028 24.8936C14.3827 25.6947 15.19 26.4742 16.3529 27.2592C16.5142 27.2668 16.6764 27.2716 16.8395 27.2716C21.0901 27.2716 24.7295 24.6622 26.2482 20.9587C25.4197 20.7898 24.4103 20.4848 23.2966 19.9448C22.9791 20.2156 22.568 20.3799 22.1179 20.3799C21.7399 20.3799 21.3889 20.2646 21.0981 20.0672ZM13.3369 21.7767C13.3369 22.3208 12.8958 22.762 12.3516 22.762C11.8074 22.762 11.3663 22.3208 11.3663 21.7767C11.3663 21.2325 11.8074 20.7913 12.3516 20.7913C12.8958 20.7913 13.3369 21.2325 13.3369 21.7767Z" fill="#F9BD3E"/>
<path d="M33.8925 5.99594L16.8064 0.00537109V36.0054L31.2973 28.0852L33.8925 5.99594Z" fill="#440401" fill-opacity="0.3"/>
</g>
<defs>
<clipPath id="clip0_202_15959">
<rect width="34" height="37" fill="white"/>
</clipPath>
</defs>
</svg>
