<svg width="34" height="37" viewBox="0 0 34 37" fill="none" xmlns="http://www.w3.org/2000/svg">
<g clip-path="url(#clip0_202_11218)">
<path d="M31.1577 28.4138L18.9438 35.4618C17.749 36.1815 16.2542 36.1815 15.0594 35.4618L2.84552 28.4138C1.64416 27.693 0.92334 26.4116 0.92334 25.05V10.954C0.92334 9.55243 1.64416 8.31102 2.84552 7.5902L15.0594 0.542201C16.2608 -0.178618 17.7024 -0.178618 18.9438 0.542201L31.1577 7.5902C32.359 8.31102 33.0798 9.59248 33.0798 10.954V25.05C33.1187 26.4425 32.3771 27.7403 31.1577 28.4138Z" fill="#DBC01D"/>
<path d="M14.3776 6.86877C14.3776 6.86877 14.4176 9.15137 13.4966 11.7944C12.8558 13.6765 11.9748 14.6376 9.89247 16.8C8.89133 17.8012 6.08815 20.284 3.96574 22.9671C2.98223 24.1718 2.12353 25.4733 1.40283 26.8515C1.40283 26.8515 1.76324 27.7725 2.88451 28.4533L5.84788 30.1752L7.20942 27.9327C7.81011 27.0116 8.81124 25.7702 8.81124 25.7702L12.0149 30.6558L16.6201 27.5723L12.7357 21.7657C12.7357 21.7657 14.5778 20.0037 15.0583 19.4431L16.3398 17.9614C16.3398 17.9614 18.302 19.1227 19.0629 19.6433C20.1842 20.3641 21.6258 21.5254 21.6258 21.5254L17.5812 27.5723L22.1864 30.6558L25.5503 25.6501L27.4324 28.3732C27.8729 29.054 28.3534 30.0551 28.3534 30.0551L31.1566 28.4533C32.3179 27.7725 32.7584 26.6512 32.7584 26.6512C32.7584 26.6512 31.517 24.4087 30.3958 22.927C29.2344 21.3652 27.5926 19.6032 26.8317 18.8023C25.4702 17.4808 23.1075 15.6387 21.9061 14.8378C20.8249 14.117 18.9027 13.0758 18.9027 13.0758C18.9027 13.0758 19.3432 11.8344 19.6235 9.99232C19.7837 8.87105 19.8638 6.98891 19.8638 6.98891L14.3776 6.86877Z" fill="#383307"/>
</g>
<defs>
<clipPath id="clip0_202_11218">
<rect width="34" height="37" fill="white"/>
</clipPath>
</defs>
</svg>
