<svg width="37" height="26" viewBox="0 0 37 26" fill="none" xmlns="http://www.w3.org/2000/svg">
<g clip-path="url(#clip0_202_14852)">
<path fill-rule="evenodd" clip-rule="evenodd" d="M31.6358 11.8797C31.6486 11.6692 31.6677 11.4605 31.6677 11.2472C31.6677 5.42249 26.8729 0.700562 20.9579 0.700562C16.6926 0.700562 13.0206 3.16132 11.2981 6.71484C10.4623 6.07687 9.41603 5.69317 8.27771 5.69317C5.549 5.69317 3.33705 7.8714 3.33705 10.5582C3.33705 11.0631 3.41452 11.5507 3.56034 12.0082C1.43315 13.2541 0.00317383 15.5326 0.00317383 18.1464C0.00317383 22.0545 3.19031 25.2243 7.14484 25.2845L7.22869 25.289L7.25786 25.2899L7.28702 25.289H28.5261C28.6555 25.2953 28.7822 25.3082 28.9135 25.3082C32.8288 25.3082 36.0032 22.183 36.0032 18.3269C36.0032 15.4205 34.1995 12.9314 31.6358 11.8797ZM9.66758 19.9072C8.94849 19.2564 8.501 18.4672 8.32145 17.5376C8.26221 17.2268 8.23214 16.9015 8.23214 16.5588C8.23122 15.2336 8.71335 14.138 9.67943 13.2751C10.6446 12.4111 11.8722 11.9782 13.3633 11.979C14.8935 11.979 16.3362 12.5514 17.6104 13.697C17.9284 13.9824 18.2356 14.304 18.5318 14.6604L20.1704 16.5871C20.4539 16.9754 20.7583 17.3107 21.0727 17.5932C21.9139 18.3489 22.8271 18.727 23.5982 18.727C24.2543 18.727 24.8021 18.5265 25.2432 18.1236C25.6279 17.7573 25.8448 17.3189 25.8931 16.8112L25.903 16.589C25.903 16.3684 25.872 16.1597 25.8083 15.9638C25.7035 15.6376 25.5111 15.344 25.2323 15.0824C24.7967 14.6668 24.2479 14.4618 23.5827 14.4618C22.7651 14.4618 21.9567 14.737 21.0708 15.5954L19.6199 13.8893L19.4431 13.6915C20.7118 12.4484 21.9786 11.9818 23.6838 11.9818C25.1949 11.9818 26.418 12.411 27.354 13.2678L27.3749 13.2851C28.3263 14.14 28.8031 15.2455 28.8031 16.6017C28.8031 16.9371 28.773 17.2578 28.7138 17.5631C28.5352 18.4809 28.0868 19.2629 27.3704 19.9109C26.6669 20.559 25.8083 20.9646 24.7948 21.1258C24.4568 21.1795 24.1013 21.2069 23.7285 21.2069C22.1637 21.206 20.7163 20.6464 19.4713 19.529C19.1351 19.2264 18.8134 18.8838 18.5081 18.4991L16.8694 16.5861C16.5923 16.2024 16.2925 15.8707 15.9808 15.59C15.1414 14.8362 14.2163 14.4589 13.4234 14.4589C13.1774 14.4589 12.9468 14.488 12.7317 14.5455C12.3744 14.6412 12.0618 14.818 11.792 15.0751C11.4621 15.3895 11.2552 15.7514 11.1732 16.1605C11.1459 16.2963 11.1313 16.4385 11.1322 16.5852C11.1322 17.1667 11.3418 17.6643 11.761 18.0772L11.7929 18.1072C12.2432 18.5192 12.7964 18.7243 13.4526 18.7243C14.2774 18.7243 15.0895 18.4473 15.9735 17.5815L17.4171 19.2665L17.5766 19.4588C16.2588 20.7166 15.0056 21.1923 13.366 21.1914C11.8558 21.1914 10.6236 20.763 9.66758 19.9072Z" fill="#4679A4"/>
</g>
<defs>
<clipPath id="clip0_202_14852">
<rect width="37" height="26" fill="white"/>
</clipPath>
</defs>
</svg>
