<svg width="37" height="36" viewBox="0 0 37 36" fill="none" xmlns="http://www.w3.org/2000/svg">
<g clip-path="url(#clip0_202_14635)">
<path d="M17.9744 26.7978C25.9389 37.6553 33.7333 23.7674 33.7219 15.4158C33.7083 5.54142 23.7002 0.0227051 17.9679 0.0227051C8.7671 0.0227051 0.00488281 7.62682 0.00488281 18.0308C0.00488281 29.5949 10.049 36.0004 17.9679 36.0004C16.1759 35.7424 10.204 34.4628 10.1237 20.7079C10.0698 11.4049 13.1584 7.68814 17.9549 9.32309C18.0623 9.36293 23.2456 11.4076 23.2456 18.087C23.2456 24.7379 17.9744 26.7978 17.9744 26.7978Z" fill="url(#paint0_linear_202_14635)"/>
<path d="M17.9652 9.31558C12.7024 7.50166 6.25549 11.8391 6.25549 20.5271C6.25549 34.7129 16.7676 36.0004 18.0419 36.0004C27.2427 36.0004 36.0049 28.3963 36.0049 17.9923C36.0049 6.42822 25.9609 0.022701 18.0419 0.022701C20.2353 -0.281049 29.8636 2.39643 29.8636 15.556C29.8636 24.1377 22.6742 28.8096 17.9981 26.8135C17.8907 26.7737 12.7075 24.729 12.7075 18.0496C12.7075 11.3987 17.9652 9.31558 17.9652 9.31558Z" fill="url(#paint1_linear_202_14635)"/>
</g>
<defs>
<linearGradient id="paint0_linear_202_14635" x1="5.32924" y1="5.32476" x2="32.2209" y2="28.9431" gradientUnits="userSpaceOnUse">
<stop/>
<stop offset="1" stop-color="white"/>
</linearGradient>
<linearGradient id="paint1_linear_202_14635" x1="30.6904" y1="30.6859" x2="1.58402" y2="10.8093" gradientUnits="userSpaceOnUse">
<stop/>
<stop offset="1" stop-color="white"/>
</linearGradient>
<clipPath id="clip0_202_14635">
<rect width="37" height="36.0004" fill="white"/>
</clipPath>
</defs>
</svg>
