<svg width="32" height="37" viewBox="0 0 32 37" fill="none" xmlns="http://www.w3.org/2000/svg">
<g clip-path="url(#clip0_202_16003)">
<path d="M26 9.05099L15.9875 14.8365L5.9668 9.05282L15.9863 3.26624L26 9.05099Z" fill="#FEEA5F"/>
<path d="M13.1312 31.2092L3.19336 25.4735V13.9147L13.1312 19.6482V31.2092Z" fill="#E0CC41"/>
<path d="M18.666 19.5376L28.9198 13.6178V25.6036L18.666 31.5213V19.5376Z" fill="#EFDB50"/>
<path d="M6.62832 9.05298L15.987 14.4546L25.3381 9.05127L15.9859 3.64867C13.9204 4.84151 10.8013 6.64294 6.62832 9.05298ZM15.9601 0.0045166L31.4676 9.03118L24.0674 14.8368L15.8787 17.9671L8.19747 15.4582L0.533691 9.02996L15.9601 0.0045166Z" fill="#C3C2C2"/>
<path d="M19.1724 30.6381L28.4139 25.3046V14.502L19.1724 19.8374V30.6381ZM15.8722 17.9669L31.4678 9.05139V27.0975L15.8722 36.0043L15.0811 27.0975L15.8722 17.9669Z" fill="#B3B3B3"/>
<path d="M12.8061 19.8399L3.51872 14.4817V25.2839L12.8061 30.6443V19.8399ZM0.533691 9.05139L15.8787 17.9669L15.8719 36.0041L0.533691 27.1657V9.05139Z" fill="#A5A5A4"/>
</g>
<defs>
<clipPath id="clip0_202_16003">
<rect width="32" height="37" fill="white"/>
</clipPath>
</defs>
</svg>
