<svg width="36" height="30" viewBox="0 0 36 30" fill="none" xmlns="http://www.w3.org/2000/svg">
<g clip-path="url(#clip0_202_8785)">
<path d="M0.261719 1.01233H28.5407V28.9967H0.261719V1.01233Z" fill="#F7DF1E"/>
<path d="M28.801 29.2545H0.000976562V0.754517H28.801V29.2545ZM0.541877 28.716H28.2598V1.29302H0.541877V28.716Z" fill="#EEEEEE"/>
<path d="M19.2893 22.9768C19.8602 23.9092 20.603 24.5944 21.917 24.5944C23.0207 24.5944 23.7257 24.0427 23.7257 23.2807C23.7257 22.3675 23.0015 22.0438 21.7865 21.5125L21.1208 21.2269C19.1987 20.4082 17.9219 19.3822 17.9219 17.2135C17.9219 15.2158 19.4438 13.6951 21.8228 13.6951C23.5163 13.6951 24.734 14.2846 25.6112 15.8278L23.537 17.1595C23.0804 16.3405 22.5878 16.018 21.8228 16.018C21.0425 16.018 20.5481 16.513 20.5481 17.1595C20.5481 17.9584 21.0431 18.2821 22.1858 18.7771L22.8518 19.0624C25.115 20.0329 26.3927 21.0223 26.3927 23.2468C26.3927 25.6447 24.509 26.9587 21.9788 26.9587C19.505 26.9587 17.9069 25.78 17.1248 24.235C17.1248 24.2344 19.2893 22.9768 19.2893 22.9768ZM28.898 22.9768C29.4689 23.9092 30.2117 24.5944 31.5257 24.5944C32.6294 24.5944 33.3344 24.0427 33.3344 23.2807C33.3344 22.3675 32.6102 22.0438 31.3952 21.5125L30.7295 21.2269C28.8074 20.4082 27.5306 19.3822 27.5306 17.2135C27.5306 15.2158 29.0525 13.6951 31.4315 13.6951C33.125 13.6951 34.3427 14.2846 35.2199 15.8278L33.1457 17.1595C32.6891 16.3405 32.1965 16.018 31.4315 16.018C30.6512 16.018 30.1568 16.513 30.1568 17.1595C30.1568 17.9584 30.6518 18.2821 31.7945 18.7771L32.4605 19.0624C34.7234 20.0326 36.0011 21.022 36.0011 23.2465C36.0011 25.6444 34.1174 26.9584 31.5872 26.9584C29.1134 26.9584 27.5153 25.7797 26.7332 24.2347L28.898 22.9768ZM9.88013 23.2078C10.2986 23.9503 10.6793 24.5779 11.5943 24.5779C12.4694 24.5779 13.0214 24.2356 13.0214 22.9042V13.8469H15.6848V22.9399C15.6848 25.6978 14.0678 26.9533 11.7074 26.9533C9.57473 26.9533 8.33963 25.8496 7.71143 24.5203L9.88013 23.2078C9.88013 23.2078 9.88013 23.2075 9.88013 23.2078Z" fill="black"/>
</g>
<defs>
<clipPath id="clip0_202_8785">
<rect width="36.001" height="30" fill="white"/>
</clipPath>
</defs>
</svg>
