<svg width="37" height="36" viewBox="0 0 37 36" fill="none" xmlns="http://www.w3.org/2000/svg">
<g clip-path="url(#clip0_202_13811)">
<path d="M18.002 0.000915527C8.06118 0.000915527 0.00219727 8.05948 0.00219727 18.0004C0.00219727 27.9414 8.06118 36.0009 18.002 36.0009C27.9431 36.0009 36.0018 27.9414 36.0018 18.0004C36.0018 8.05948 27.9431 0.000915527 18.002 0.000915527Z" fill="#DD4813"/>
<path d="M9.26635 29.1309C9.11378 29.2835 8.91029 29.3677 8.69373 29.3677C8.47647 29.3677 8.27271 29.2834 8.11957 29.1301C7.96685 28.9774 7.88276 28.774 7.88276 28.5573C7.88276 28.3406 7.96685 28.1371 8.11971 27.9843C8.27299 27.8311 8.47675 27.7468 8.69373 27.7468C8.91029 27.7468 9.11364 27.831 9.26635 27.9837C9.41935 28.1367 9.50358 28.3405 9.50358 28.5573C9.50358 28.7743 9.41935 28.9781 9.26635 29.1309ZM12.7985 17.0261C12.7169 16.7664 12.5996 16.5529 12.4496 16.3916C12.3001 16.2302 12.1191 16.1096 11.9116 16.0328C11.7029 15.9552 11.4663 15.9158 11.2089 15.9158C10.9514 15.9158 10.7171 15.955 10.5126 16.0325C10.3085 16.1096 10.1293 16.2304 9.97968 16.3916C9.82991 16.5525 9.71278 16.7661 9.63107 17.0261C9.54895 17.2877 9.50732 17.6078 9.50732 17.9775V27.4106H7.87891V17.8332C7.87891 17.35 7.94444 16.9003 8.07353 16.4967C8.2029 16.0914 8.40667 15.7335 8.67877 15.433C8.9513 15.1319 9.29906 14.8953 9.71263 14.7292C10.1251 14.5634 10.6246 14.4793 11.1969 14.4793C11.769 14.4793 12.2721 14.5634 12.6927 14.7291C13.1142 14.8951 13.4662 15.1319 13.7388 15.433C14.0106 15.7331 14.2165 16.0909 14.3501 16.4964C14.4834 16.9001 14.5511 17.35 14.5511 17.8332V19.1331H12.9226V17.9775C12.9226 17.609 12.8807 17.2888 12.7985 17.0261ZM19.5947 23.6389C19.5947 24.123 19.5272 24.5729 19.394 24.9761C19.2607 25.3805 19.055 25.7382 18.7826 26.0393C18.5099 26.3403 18.1579 26.5771 17.7365 26.743C17.3156 26.9089 16.8122 26.993 16.2405 26.993C15.6688 26.993 15.1696 26.9088 14.7564 26.7429C14.3431 26.5771 13.9953 26.3403 13.7227 26.0393C13.4503 25.7382 13.2465 25.3804 13.1173 24.9756C12.9882 24.5721 12.923 24.1223 12.923 23.6389V19.5233H14.5512V23.4949C14.5512 23.8649 14.593 24.1848 14.6748 24.4458C14.7564 24.7061 14.8738 24.9195 15.0236 25.0808C15.1732 25.2423 15.3528 25.3631 15.5564 25.4397C15.7607 25.5172 15.9949 25.5566 16.2526 25.5566C16.5101 25.5566 16.7466 25.5172 16.9552 25.4397C17.1626 25.3629 17.3436 25.242 17.4934 25.0808C17.6433 24.9194 17.761 24.7058 17.8422 24.4459C17.9244 24.1835 17.9663 23.8636 17.9663 23.4949V19.5233H19.5947V23.6389ZM17.9702 18.3348C17.9702 17.8882 18.3333 17.5247 18.7799 17.5247C19.227 17.5247 19.5911 17.8882 19.5911 18.3348C19.5911 18.7818 19.227 19.1456 18.7799 19.1456C18.3333 19.1456 17.9702 18.7818 17.9702 18.3348ZM22.8859 6.84543C22.8043 6.5857 22.6867 6.37223 22.5367 6.21066C22.3869 6.04922 22.2058 5.92857 21.9984 5.85193C21.7901 5.7743 21.5536 5.73507 21.2958 5.73507C21.0385 5.73507 20.8042 5.7743 20.5999 5.85165C20.3958 5.92871 20.2166 6.0495 20.0666 6.21066C19.9172 6.37209 19.7999 6.58556 19.7183 6.84543C19.6363 7.10685 19.5947 7.42691 19.5947 7.79675V17.2299H17.9663V7.65261C17.9663 7.16957 18.0315 6.71986 18.1608 6.31584C18.2903 5.91057 18.4939 5.55268 18.7663 5.25217C19.0384 4.95138 19.3863 4.71457 19.8002 4.54863C20.2133 4.3827 20.7124 4.29846 21.2839 4.29846C21.8557 4.29846 22.3591 4.38255 22.78 4.54849C23.2018 4.71457 23.5535 4.95138 23.8258 5.25217C24.0982 5.55254 24.3039 5.91029 24.4375 6.31542C24.5705 6.71957 24.6382 7.16957 24.6382 7.65261V8.95239H23.0095V7.79675C23.0095 7.42761 22.9678 7.10755 22.8859 6.84543ZM29.6815 13.4582C29.6815 13.9421 29.614 14.392 29.481 14.7953C29.3476 15.2001 29.142 15.5579 28.8699 15.8585C28.5971 16.1596 28.2451 16.3963 27.8239 16.5623C27.4025 16.7281 26.8992 16.8122 26.328 16.8122C25.7559 16.8122 25.2564 16.728 24.8435 16.5621C24.43 16.3963 24.0825 16.1596 23.8098 15.8585C23.5376 15.5579 23.3339 15.2 23.2043 14.7948C23.0753 14.3905 23.0098 13.9408 23.0098 13.4582V9.34245H24.6382V13.3142C24.6382 13.6835 24.6799 14.0034 24.762 14.2653C24.8435 14.5251 24.9607 14.7386 25.111 14.9C25.2606 15.0616 25.4399 15.1824 25.6434 15.259C25.8482 15.3365 26.0821 15.3758 26.3395 15.3758C26.5975 15.3758 26.8338 15.3364 27.0422 15.2589C27.2497 15.1823 27.4307 15.0616 27.5808 14.9C27.7304 14.7389 27.8478 14.5254 27.9294 14.2653C28.0115 14.0034 28.0533 13.6835 28.0533 13.3142V9.34259H29.6815V13.4582Z" fill="white"/>
</g>
<defs>
<clipPath id="clip0_202_13811">
<rect width="37" height="36.0009" fill="white"/>
</clipPath>
</defs>
</svg>
