<svg width="26" height="41" viewBox="0 0 26 41" fill="none" xmlns="http://www.w3.org/2000/svg">
<g clip-path="url(#clip0_202_15755)">
<path d="M9.11789 3.56007C8.67695 3.11697 8.06179 2.84332 7.3779 2.84332C6.6966 2.84332 6.08619 3.11697 5.65044 3.56007H5.6379C5.19826 4.00101 4.92461 4.61661 4.92461 5.2979C4.92461 5.9818 5.19826 6.5922 5.6379 7.03055L5.65044 7.04049C6.08619 7.48144 6.6966 7.75249 7.3779 7.75249C8.06179 7.75249 8.67695 7.48144 9.11789 7.04049L9.12438 7.03055C9.56618 6.5922 9.83723 5.9818 9.83723 5.2979C9.83723 4.61661 9.56618 4.00101 9.12438 3.56007H9.11789ZM7.3779 37.1595C8.06179 37.1595 8.67695 36.8811 9.11789 36.4453L9.12438 36.4324C9.56618 35.9975 9.83723 35.3819 9.83723 34.7053C9.83723 34.0214 9.56618 33.4084 9.12438 32.9653H9.11789C8.67695 32.517 8.06179 32.246 7.3779 32.246C6.6966 32.246 6.08619 32.517 5.65044 32.9653H5.6379C5.19826 33.4084 4.92461 34.0214 4.92461 34.7053C4.92461 35.3819 5.19826 35.9975 5.6379 36.4324L5.65044 36.4453C6.08619 36.8811 6.6966 37.1595 7.3779 37.1595ZM20.7514 29.7231C21.3597 29.5636 21.9104 29.1732 22.2463 28.5831L22.2917 28.4971C22.5904 27.9373 22.6449 27.2914 22.4854 26.7191C22.3246 26.1061 21.9294 25.564 21.3407 25.2246L21.3065 25.2017C20.7328 24.8874 20.0792 24.8191 19.4788 24.9812C18.8683 25.1334 18.3202 25.5411 17.986 26.1264C17.6475 26.7061 17.5766 27.3749 17.7388 27.9905C17.9061 28.5957 18.2973 29.143 18.8822 29.4849H18.8861C19.4723 29.8217 20.1363 29.8826 20.7514 29.7231ZM9.89689 17.4861C9.2519 16.8428 8.3631 16.4399 7.3779 16.4399C6.39658 16.4399 5.50994 16.8428 4.86625 17.4861C4.22559 18.1272 3.83047 19.0138 3.83047 19.9964C3.83047 20.9816 4.22559 21.8709 4.86625 22.5193C5.50994 23.1574 6.39658 23.5577 7.3779 23.5577C8.3631 23.5577 9.2519 23.1574 9.89689 22.5193C10.5389 21.8709 10.934 20.9816 10.934 19.9964C10.934 19.0138 10.5389 18.1272 9.89689 17.4861ZM8.48069 13.3023C9.90813 13.5375 11.1925 14.2214 12.1725 15.2092H12.1803C12.3359 15.3661 12.4881 15.536 12.6286 15.708L15.0793 14.2901C14.7499 13.2945 14.7347 12.2536 14.9993 11.2783C15.349 9.97103 16.1963 8.80081 17.4664 8.06633L17.5083 8.04126C18.7646 7.32927 20.1929 7.18229 21.4824 7.53202C22.788 7.88131 23.966 8.7325 24.6992 10.0017V10.0043C25.4289 11.2658 25.5772 12.7144 25.2287 14.0165C24.8816 15.3229 24.0304 16.5009 22.7616 17.2302L22.427 17.4282H22.3929C21.2192 17.9875 19.9283 18.074 18.743 17.7623C17.7694 17.5038 16.8763 16.9617 16.1773 16.1892L13.7305 17.6028C14.0115 18.3472 14.1676 19.1504 14.1676 19.9964C14.1676 20.8398 14.0115 21.653 13.7305 22.4026L16.1773 23.811C16.8763 23.0286 17.7694 22.4964 18.743 22.2379C20.0485 21.8808 21.4963 22.033 22.7616 22.7701L22.8425 22.8081V22.8133C24.065 23.5525 24.8855 24.6977 25.2287 25.9894C25.5772 27.2837 25.4289 28.7327 24.6992 29.9968L24.6551 30.0854L24.6499 30.0776C23.9167 31.2962 22.7616 32.1219 21.4863 32.4712C20.1778 32.8158 18.7304 32.6688 17.4664 31.9421V31.9317C16.1963 31.1972 15.349 30.0244 14.9993 28.7202C14.7347 27.7475 14.7499 26.7061 15.0793 25.711L12.6286 24.2974C12.4881 24.4698 12.3359 24.632 12.1803 24.7889L12.1725 24.7962C11.1925 25.7793 9.90813 26.4632 8.48069 26.691V29.523C9.49788 29.7356 10.4096 30.2449 11.1242 30.959L11.1276 30.9668C12.0852 31.9192 12.6779 33.2463 12.6779 34.7053C12.6779 36.1596 12.0852 37.4785 11.1276 38.4361L11.1242 38.4512C10.1602 39.4087 8.8369 40.0014 7.3779 40.0014C5.92668 40.0014 4.60169 39.4087 3.64026 38.4512H3.6368V38.4361C2.67797 37.4785 2.08399 36.1596 2.08399 34.7053C2.08399 33.2463 2.67797 31.9192 3.6368 30.9668V30.959H3.64026C4.35355 30.2449 5.26656 29.7356 6.28116 29.523V26.691C4.85242 26.4632 3.57196 25.7793 2.59324 24.7962L2.58286 24.7889C1.35946 23.5603 0.594727 21.8709 0.594727 19.9964C0.594727 18.1272 1.35946 16.4378 2.58286 15.2092H2.59324C3.57196 14.2214 4.85242 13.5375 6.28116 13.3023V10.4829C5.26656 10.2624 4.35355 9.75359 3.64026 9.04419H3.6368V9.03641C2.67797 8.07412 2.08399 6.75691 2.08399 5.2979C2.08399 3.84625 2.67797 2.51651 3.6368 1.55897L3.64026 1.55421C4.60169 0.594083 5.92668 0.00140381 7.3779 0.00140381C8.8369 0.00140381 10.1602 0.594083 11.1242 1.55421V1.55897H11.1276C12.0852 2.51651 12.6779 3.84625 12.6779 5.2979C12.6779 6.75691 12.0852 8.07412 11.1276 9.03641L11.1242 9.04419C10.4096 9.75359 9.49788 10.2624 8.48069 10.4829V13.3023ZM22.2463 11.4227L22.226 11.3924C21.8875 10.8222 21.348 10.4422 20.7514 10.2775C20.1363 10.1154 19.4723 10.1842 18.8822 10.5209H18.8861C18.2973 10.8551 17.9035 11.4024 17.7388 12.0154C17.5766 12.6232 17.6475 13.2945 17.986 13.8794L17.9973 13.895C18.3366 14.4721 18.8761 14.8594 19.4788 15.0164C20.0844 15.1863 20.7592 15.1154 21.3407 14.776L21.3722 14.7609C21.9446 14.4189 22.3259 13.8794 22.4854 13.2868C22.6475 12.6763 22.5831 12.0076 22.2463 11.4227Z" fill="#1A1919"/>
</g>
<defs>
<clipPath id="clip0_202_15755">
<rect width="26" height="41" fill="white"/>
</clipPath>
</defs>
</svg>
