<svg width="16" height="40" viewBox="0 0 16 40" fill="none" xmlns="http://www.w3.org/2000/svg">
<g clip-path="url(#clip0_202_13707)">
<path d="M15.225 17.7926C15.225 16.8235 14.4366 16.0351 13.4675 16.0351C12.4983 16.0351 11.7099 16.8235 11.7099 17.7926C11.7099 18.5684 12.2156 19.2271 12.9143 19.4596V21.5594C12.9143 21.5594 12.9125 21.6608 12.8581 21.7847C12.8033 21.9087 12.7829 21.9351 12.7829 21.9351L8.0938 26.765L8.15968 16.3064C8.15968 16.3064 8.11516 15.7316 8.27217 15.4795C8.42918 15.2278 8.65749 15.0755 8.65749 15.0755L11.2792 12.3786C11.2792 12.3786 11.728 11.9741 11.8242 11.6925C11.9205 11.4113 11.8712 10.4334 11.8712 10.4334L11.7719 4.76799C12.7934 4.48043 13.5451 3.54256 13.5451 2.43053C13.5451 1.0905 12.455 0.000427246 11.115 0.000427246C9.77523 0.000427246 8.68516 1.0905 8.68516 2.43053C8.68516 3.54497 9.43985 4.48404 10.4646 4.76949L10.5368 10.4524C10.5368 10.4524 10.5907 10.9054 10.5368 11.0913C10.4833 11.2774 10.2739 11.5048 10.2739 11.5048L7.52982 14.3239C7.52982 14.3239 6.96372 14.9414 6.87228 15.1414C6.78054 15.3412 6.82506 16.3253 6.82506 16.3253V20.6853L4.2975 18.3268C4.2975 18.3268 4.19403 18.2288 4.11883 18.045C4.04363 17.8609 4.0719 17.5375 4.0719 17.5375L3.99069 10.2887C5.23176 10.0478 6.17204 8.95412 6.17204 7.64357C6.17204 6.15675 4.96255 4.94756 3.47603 4.94756C1.98922 4.94756 0.780029 6.15675 0.780029 7.64357C0.780029 8.96224 1.73234 10.061 2.98514 10.2926L3.06635 17.8007C3.06635 17.8007 3.04199 18.1972 3.15118 18.4207C3.26006 18.6445 3.50822 18.9471 3.50822 18.9471L6.57149 21.9069C6.57149 21.9069 6.66834 22.0203 6.82506 22.3298L6.81573 29.9506C6.81573 29.9506 6.89665 30.7357 6.21445 30.8058H3.88391V30.8169H3.87488V37.3751H5.75424V37.3646H5.76326V32.6963H11.3442V32.6852H11.3544V30.8058H8.78923C8.29894 30.7249 8.11335 30.4157 8.07485 29.9506L8.08448 28.4377C8.32361 27.938 8.80788 27.47 8.80788 27.47L13.6753 22.4332C13.6753 22.4332 13.8558 22.2798 13.9292 22.001C14.0056 21.7116 14.0137 21.4746 14.0137 21.4746L14.0053 19.4653C14.7121 19.2373 15.225 18.5741 15.225 17.7926ZM9.22358 2.43053C9.22358 1.38738 10.0718 0.538846 11.115 0.538846C12.1581 0.538846 13.0066 1.38738 13.0066 2.43053C13.0066 3.47368 12.1581 4.32222 11.115 4.32222C10.0718 4.32222 9.22358 3.47368 9.22358 2.43053ZM1.31845 7.64357C1.31845 6.45393 2.2864 5.48598 3.47603 5.48598C4.66567 5.48598 5.63362 6.45393 5.63362 7.64357C5.63362 8.8332 4.66567 9.80115 3.47603 9.80115C2.2864 9.80115 1.31845 8.8332 1.31845 7.64357ZM13.4675 19.0117C12.7952 19.0117 12.2483 18.4646 12.2483 17.7926C12.2483 17.1203 12.7952 16.5735 13.4675 16.5735C14.1397 16.5735 14.6866 17.1203 14.6866 17.7926C14.6866 18.4646 14.1397 19.0117 13.4675 19.0117ZM9.49489 38.1211H3.87488V40.0004H11.3742V33.4329H9.49489V38.1211Z" fill="#587635"/>
</g>
<defs>
<clipPath id="clip0_202_13707">
<rect width="16" height="40.0004" fill="white"/>
</clipPath>
</defs>
</svg>
