<svg width="37" height="37" viewBox="0 0 37 37" fill="none" xmlns="http://www.w3.org/2000/svg">
<g clip-path="url(#clip0_202_15083)">
<path d="M36.0076 0.00317383V36.0032H0.00756836V0.00317383L36.0076 0.00317383Z" fill="#1D99F3"/>
<path d="M20.1205 4.54663L15.6374 4.9758V23.4358L20.0731 22.768V14.8975L26.0355 23.6269L30.7097 22.1479L24.6044 13.7527L30.7576 5.83452L25.9881 4.73794L20.0732 12.6558L20.1205 4.54663ZM9.95843 9.04502C9.9078 9.05035 9.85891 9.07266 9.8209 9.11082L8.06139 10.87C7.98741 10.9442 7.97347 11.0593 8.02801 11.1491L10.088 14.5419C9.72266 15.1562 9.42982 15.8185 9.22052 16.5171L5.4386 17.3038C5.33338 17.3256 5.25757 17.4188 5.25757 17.5268V20.0147C5.25757 20.12 5.32956 20.2111 5.43095 20.2356L9.10168 21.1328C9.29743 21.942 9.60077 22.7091 10.0017 23.4141L7.87694 26.6541C7.81766 26.7446 7.83005 26.8639 7.90664 26.9402L9.66553 28.6994C9.73951 28.7731 9.855 28.7876 9.94521 28.7334L13.2747 26.7113C13.9287 27.0887 14.634 27.3857 15.3794 27.5871L16.1563 31.3221C16.1781 31.428 16.2717 31.5032 16.3789 31.5032H18.8672C18.9718 31.5032 19.0631 31.4317 19.0881 31.3291L20.0031 27.5864C20.7715 27.379 21.4982 27.0699 22.1682 26.6754L25.4493 28.8267C25.5395 28.8861 25.6588 28.8742 25.7354 28.7977L27.4949 27.0385C27.5693 26.9641 27.5827 26.849 27.528 26.7594L26.3302 24.7855L25.9427 24.908C25.8862 24.9259 25.8246 24.9048 25.7914 24.8556C25.7914 24.8556 25.0274 23.7372 24.0407 22.2931C22.8612 24.6016 20.4615 26.1829 17.6903 26.1829C13.7531 26.1829 10.5612 22.9908 10.5612 19.0535C10.5612 16.157 12.2888 13.666 14.7688 12.5502V10.7109C14.3175 10.8688 13.8811 11.0592 13.4667 11.285C13.4664 11.2847 13.4661 11.2839 13.4649 11.2829L10.1066 9.08032C10.0614 9.05077 10.009 9.03897 9.95837 9.04418L9.95843 9.04502Z" fill="#FCFCFC"/>
</g>
<defs>
<clipPath id="clip0_202_15083">
<rect width="37" height="37" fill="white"/>
</clipPath>
</defs>
</svg>
