<svg width="36" height="36" viewBox="0 0 36 36" fill="none" xmlns="http://www.w3.org/2000/svg">
<g clip-path="url(#clip0_202_14406)">
<path d="M11.5793 0.570698C8.45815 1.19533 5.96164 2.74273 4.15668 5.16827C1.84877 8.2732 0.550823 12.1082 0.0742336 17.2392C-0.112346 19.2672 0.0864018 21.3054 0.345991 23.5626C0.643533 26.4245 1.76034 29.1397 3.56246 31.3827C4.96181 33.1187 6.56802 34.2585 8.47032 34.8689C10.0888 35.3917 11.7734 35.6819 13.4735 35.7308C13.8717 35.7397 14.27 35.7228 14.666 35.6801L15.2906 35.6173C16.1505 35.5301 17.0124 35.4429 17.8723 35.3394C21.7436 34.8926 25.5013 33.745 28.9616 31.9526C31.9713 30.3809 34.0764 28.0628 35.2161 25.0573C35.7475 23.662 36.001 22.4877 36.001 21.3906C36.0011 21.0073 35.9692 20.6247 35.9057 20.2467C35.2972 16.6794 34.052 13.6049 32.0727 10.8508C29.6208 7.43764 27.1405 5.03442 24.2688 3.28422C19.8983 0.623427 15.7469 -0.264855 11.5793 0.570698ZM17.6087 2.2195C21.7033 3.11589 25.3152 5.22302 28.3411 8.48006C31.7725 12.1711 33.7275 16.0467 34.3218 20.3279C34.4292 21.1208 34.3035 21.999 34.1778 22.7615C33.5957 26.2518 31.6833 28.8558 28.4993 30.5005C25.1415 32.227 21.5007 33.3357 17.7506 33.7738C16.9131 33.8732 16.0714 33.9583 15.1142 34.0557L14.9824 34.0699C14.1547 34.1552 13.3198 34.1395 12.496 34.0232C11.4597 33.8772 10.2874 33.7089 9.15986 33.4412C6.50921 32.8105 4.5562 31.0075 3.19336 27.9533C2.16717 25.6474 1.63583 23.086 1.57093 20.1048C1.48004 16.6262 2.06549 13.1632 3.29476 9.9078C4.22563 7.44576 5.57022 4.72818 8.48857 3.28016C11.3583 1.85242 14.3476 1.50562 17.6107 2.2195H17.6087Z" fill="#F4E0C2"/>
<path d="M7.06489 8.34215C4.81579 11.5181 3.6517 15.2132 3.59897 19.3301C3.50623 21.586 3.91777 23.8343 4.80363 25.9111C6.42606 29.7643 9.38294 32.0074 13.364 32.4008C17.558 32.8064 21.679 31.8289 25.6316 29.4946C27.3105 28.5314 28.7357 27.182 29.7891 25.5582C30.9199 23.8386 31.5285 21.8282 31.5413 19.7702C31.5413 16.5253 30.0183 13.0634 26.9681 9.47583C26.644 9.09532 26.2907 8.74069 25.9115 8.41516C21.247 4.4037 16.8421 3.18079 12.35 4.68357C9.94876 5.47247 8.27157 6.64062 7.06489 8.34215ZM29.0894 23.7918C28.1403 25.7049 26.6154 27.2724 24.7291 28.2737C21.3484 30.1213 18.2556 30.9386 15.0412 30.8433H15.0087C12.6826 30.9345 10.6728 30.3646 8.86173 29.0991C7.81121 28.367 6.99999 27.2962 6.37941 25.8239C5.51773 23.7971 5.07287 21.6176 5.07133 19.4153C5.09754 16.9108 5.61931 14.4364 6.60655 12.1346C6.98171 11.2913 7.42035 10.4778 7.9187 9.70094L8.16206 9.29533C9.16797 7.63436 10.7498 6.83734 12.8164 6.14781C16.0613 5.07903 19.2494 5.63066 22.8654 7.88381C25.5403 9.55898 27.6069 12.0291 29.0022 15.2476C30.3326 18.2775 30.359 21.1553 29.0894 23.7918Z" fill="#F4E0C2"/>
<path d="M20.2411 8.98707C16.7812 7.46198 13.6601 7.79458 10.9689 9.97675C8.87593 11.6722 7.6226 14.0572 7.02433 17.4663C6.59025 19.8216 6.94675 22.2543 8.03835 24.386C9.63036 27.4666 12.2364 29.0505 15.5766 28.9612H15.5887C20.0261 28.728 23.2527 27.0873 25.4491 23.9398C26.4722 22.5221 27.028 20.8208 27.0391 19.0725C27.036 18.2401 26.9138 17.4123 26.676 16.6145C25.5951 12.962 23.4332 10.3966 20.2411 8.98707ZM15.536 27.351H15.4772C13.9704 27.4706 12.4858 27.0123 11.0622 25.9861C10.1741 25.3387 9.50022 24.4403 9.12741 23.4064C8.62298 22.1014 8.36179 20.715 8.35675 19.3159C8.37711 17.5668 8.75822 15.8408 9.47623 14.2458C10.4903 11.9115 12.062 10.4919 14.2989 9.90577C16.1383 9.42715 17.9697 9.6117 19.8943 10.4736C22.6889 11.7229 24.504 13.972 25.2929 17.1662C26.0818 20.3603 24.8873 23.4734 22.1941 25.3006C19.9754 26.7994 17.7973 27.4706 15.536 27.351Z" fill="#F4E0C2"/>
<path d="M15.9153 20.5976V23.4612H14.1833V13.1364H15.9153V18.7784L17.7628 16.7727H20.0261L17.2193 19.7093L20.6284 23.4612H18.4361L15.9153 20.5976Z" fill="#F4E0C2"/>
</g>
<defs>
<clipPath id="clip0_202_14406">
<rect width="36.001" height="36" fill="white"/>
</clipPath>
</defs>
</svg>
