<svg width="37" height="36" viewBox="0 0 37 36" fill="none" xmlns="http://www.w3.org/2000/svg">
<g clip-path="url(#clip0_202_14460)">
<path d="M3.46345 28.5992C3.80282 28.6132 4.14567 28.6601 4.46503 28.7776V28.7741L4.51376 28.7915L8.72715 24.6817L8.88204 24.8879C9.10046 25.1838 9.33279 25.4544 9.57818 25.725L9.66781 25.8286C9.73221 25.893 9.78355 25.9574 9.84794 26.0218L9.95236 26.1245L10.0542 26.228L10.1447 26.3176L10.2473 26.4212L10.3378 26.5108L10.4536 26.6144L10.558 26.7049C12.5115 28.3676 14.9767 29.3091 17.5412 29.372C19.6533 29.425 21.738 28.8848 23.5584 27.8126L23.8804 28.1476C24.2546 28.547 24.6409 28.9464 25.0151 29.3458C22.7747 30.7861 20.1523 31.5181 17.4898 31.4465C14.4864 31.3747 11.5966 30.2842 9.29451 28.3538L9.30756 28.3277L6.60392 30.9931C7.02468 32.3846 6.5058 33.889 5.3167 34.7253C4.12761 35.5615 2.53631 35.5411 1.36909 34.6746C0.201869 33.8081 -0.278197 32.2908 0.178168 30.9105C0.634533 29.5303 1.92447 28.5983 3.37818 28.5984H3.46519L3.46345 28.5992ZM29.2285 11.2157C30.5517 13.395 31.2182 15.9097 31.1481 18.4582C31.0722 21.5696 29.8995 24.5541 27.8371 26.885L27.8502 26.898L29.5122 28.6636C30.1822 28.5731 30.8523 28.8046 31.3161 29.2945C32.1064 30.1319 32.0718 31.4505 31.2386 32.2453C30.4013 33.0351 29.0834 33.0005 28.2887 32.1678C27.827 31.6796 27.6299 30.9981 27.7597 30.3387C26.7885 29.3003 25.8139 28.265 24.8359 27.2331L24.667 27.0529L24.8602 26.898C25.3642 26.4995 25.8302 26.0553 26.2525 25.571C28.0138 23.5937 29.0141 21.0542 29.0745 18.4069C29.1303 16.4095 28.6495 14.4338 27.6822 12.6854L29.2285 11.2157ZM5.74854 3.33975C6.34026 3.33105 6.89717 3.56513 7.30963 3.98716C7.77109 4.47595 7.96785 5.15763 7.83783 5.81714L11.034 9.16732L10.8399 9.32221C10.3378 9.72163 9.87404 10.1593 9.44853 10.6492C6.28594 14.2097 5.70806 19.3758 8.00577 23.547L6.47165 25.042C5.13169 22.8556 4.46022 20.3251 4.53986 17.7621C4.606 14.6599 5.81467 11.663 7.84479 9.32918L6.0853 7.4931C5.41721 7.58506 4.74573 7.34957 4.28142 6.86049C3.49129 6.02285 3.52628 4.70426 4.35974 3.90972C4.68708 3.60252 5.10369 3.40747 5.54927 3.3528C5.6154 3.34584 5.6824 3.3441 5.74941 3.33888L5.74854 3.33975ZM32.6379 0.663086C33.97 0.663306 35.177 1.44821 35.7176 2.66578C36.2581 3.88334 36.0308 5.30506 35.1374 6.29329C34.2441 7.28153 32.8525 7.65082 31.5867 7.23553V7.23988L31.5345 7.22161L26.96 11.5638L26.8051 11.3576C26.5614 11.0356 26.2899 10.7136 26.0062 10.4178L25.954 10.3525L25.8131 10.2107L25.5555 9.95309L25.465 9.87565L25.3754 9.79907L25.2596 9.69552L25.1691 9.61807L25.0525 9.51539C23.1077 7.87709 20.6629 6.94993 18.1207 6.88659C15.994 6.83438 13.9195 7.36345 12.1165 8.44595L10.6468 6.91183C12.8872 5.47148 15.5095 4.73947 18.172 4.81122C21.178 4.88183 24.0696 5.9776 26.3674 7.91688H26.3935L29.4217 5.04095C29.1009 4.01713 29.2868 2.90174 29.9222 2.03725C30.5576 1.17277 31.5667 0.662486 32.6396 0.663086H32.6379Z" fill="#2E3234"/>
<path d="M17.9481 8.18677C18.3293 8.18851 18.7095 8.21809 19.0872 8.2616C24.5249 8.94469 28.3772 13.9056 27.7072 19.3433C27.0241 24.7819 22.0632 28.6342 16.6255 27.9641C11.1877 27.2811 7.3346 22.3193 8.00464 16.8824C8.65379 11.838 12.8915 8.20417 17.9481 8.18677ZM18.0082 12.4402L17.7993 12.4454C15.5978 12.6221 14.0054 14.2867 13.9488 16.4996C13.9836 18.0363 14.6467 19.1214 15.9032 19.9707L16.206 20.1352L15.4403 23.7368H20.5752L19.8103 20.1343C21.22 19.4086 22.0267 18.0763 22.0667 16.4996C22.0371 14.2162 20.2706 12.4968 18.0082 12.4402Z" fill="#047AED"/>
</g>
<defs>
<clipPath id="clip0_202_14460">
<rect width="37" height="36" fill="white"/>
</clipPath>
</defs>
</svg>
