<svg width="37" height="37" viewBox="0 0 37 37" fill="none" xmlns="http://www.w3.org/2000/svg">
<g clip-path="url(#clip0_202_15643)">
<path d="M8.39632 0.00415039H27.6144C30.5321 0.00415039 31.5903 0.308023 32.6569 0.878459C33.7236 1.4489 34.5606 2.28606 35.1311 3.35264C35.7017 4.41939 36.0054 5.4773 36.0054 8.3951V27.6132C36.0054 30.5308 35.7017 31.5889 35.1311 32.6557C34.5606 33.7222 33.7236 34.5594 32.6569 35.1298C31.5903 35.7003 30.5322 36.0042 27.6144 36.0042H8.39632C5.47868 36.0042 4.42061 35.7003 3.35386 35.1298C2.28728 34.5594 1.45012 33.7222 0.87968 32.6557C0.309244 31.5889 0.00537109 30.531 0.00537109 27.6132V8.3951C0.00537109 5.47746 0.309244 4.41939 0.87968 3.35264C1.45012 2.28606 2.28728 1.4489 3.35386 0.878459C4.42061 0.308023 5.47852 0.00415039 8.39632 0.00415039ZM10.321 9.29215V27.986H14.4316V21.9642L16.7879 19.5816L22.417 27.986H27.5748L19.5632 16.6754L26.8679 9.29215H21.7363L14.4316 17.042V9.29215H10.321Z" fill="url(#paint0_linear_202_15643)"/>
</g>
<defs>
<linearGradient id="paint0_linear_202_15643" x1="0.00537109" y1="0.00415039" x2="18.0054" y2="25.8957" gradientUnits="userSpaceOnUse">
<stop stop-color="#5AE8FA"/>
<stop offset="1" stop-color="#2684FF"/>
</linearGradient>
<clipPath id="clip0_202_15643">
<rect width="37" height="37" fill="white"/>
</clipPath>
</defs>
</svg>
