<svg width="34" height="37" viewBox="0 0 34 37" fill="none" xmlns="http://www.w3.org/2000/svg">
<g clip-path="url(#clip0_202_12642)">
<path d="M2.41866 7.46343C1.17328 8.25166 0.383766 9.59144 0.297607 11.0628V24.946C0.383766 26.4173 1.17328 27.7571 2.41866 28.5454L14.875 35.5127C16.213 36.1683 17.7791 36.1683 19.1171 35.5127L31.5863 28.5454C32.8317 27.7571 33.6212 26.4173 33.7073 24.946V11.0628C33.6212 9.59144 32.8317 8.25166 31.5863 7.46343L19.1299 0.496103C17.7919 -0.159508 16.2259 -0.159508 14.8879 0.496103L2.41866 7.46343Z" fill="#14BF96"/>
<path d="M29.7995 14.5594C22.8836 14.5594 17.716 20.2926 17.716 27.3242V27.6199H16.3276V27.3242C16.3276 20.2926 11.1857 14.5851 4.21819 14.5594C4.21819 14.9964 4.21819 15.4463 4.21819 15.8448C4.19026 21.1644 7.47061 25.9415 12.4455 27.8255C13.9238 28.3676 15.4858 28.6461 17.0604 28.6483C18.6475 28.6461 20.2221 28.3677 21.7138 27.8255C26.6812 25.9342 29.9545 21.1601 29.9282 15.8448C29.8638 15.4335 29.8381 14.9964 29.7995 14.5594Z" fill="white"/>
<path d="M17.0089 15.0993C19.1388 15.0993 20.8654 13.3727 20.8654 11.2428C20.8654 9.11295 19.1388 7.38635 17.0089 7.38635C14.8791 7.38635 13.1525 9.11295 13.1525 11.2428C13.1525 13.3727 14.8791 15.0993 17.0089 15.0993Z" fill="white"/>
</g>
<defs>
<clipPath id="clip0_202_12642">
<rect width="34" height="37" fill="white"/>
</clipPath>
</defs>
</svg>
