<svg width="48" height="25" viewBox="0 0 48 25" fill="none" xmlns="http://www.w3.org/2000/svg">
<path d="M20.7828 20.9018H13.1456C11.9618 20.8596 10.6444 20.7541 9.537 20.5219C8.9833 20.4164 8.46779 20.2687 7.97137 20.1209C7.72316 20.0365 7.49404 19.9732 7.26492 19.8888C6.84724 19.7321 6.43341 19.5632 6.02387 19.3823C5.83294 19.2978 5.6611 19.1923 5.50836 19.1079C5.18377 18.918 4.89738 18.7702 4.68735 18.6225C4.45823 18.4748 4.2864 18.3481 4.17184 18.2637L4 18.1371C4 18.1371 4.05728 18.1793 4.19093 18.2637C4.30549 18.3481 4.47733 18.4537 4.70644 18.6014C4.93556 18.7491 5.22196 18.8969 5.54654 19.0657C5.87112 19.2345 6.25299 19.4034 6.67303 19.5511C6.88306 19.6355 7.09308 19.7199 7.3222 19.7833C7.55132 19.8677 7.78043 19.931 8.02865 19.9943C8.52507 20.1209 9.04058 20.2476 9.59428 20.3531C10.6826 20.5641 11.8664 20.6908 13.0501 20.733C13.6038 20.7752 20.7828 20.9018 20.7828 20.9018Z" fill="url(#paint0_linear_202_15465)"/>
<path d="M44 14.085C44 10.7083 41.4797 7.45813 38.4821 7.45813C36.1718 7.45813 33.5561 7.7747 28.5537 14.8026C22.0811 23.8354 18.7207 19.4245 18.5298 19.129C19.0071 20.1632 19.9618 20.9018 21.0883 20.9018H38.4821C41.5179 20.9018 44 17.4618 44 14.085Z" fill="url(#paint1_linear_202_15465)"/>
<path d="M21.1072 20.9018C19.5225 20.9018 18.2241 19.4878 18.2241 17.7361C18.2241 15.9844 19.5415 14.3171 21.0881 14.3171C24.1239 14.3171 24.5439 17.3562 29.279 18.8546C32.353 19.8255 38.4628 20.9018 38.4628 20.9018H21.1072Z" fill="url(#paint2_linear_202_15465)"/>
<path d="M38.4633 20.9018C37.8523 20.6275 35.4656 19.7622 35.0647 16.8919C34.6637 13.9795 36.2485 12.4177 35.752 9.06208C35.3129 6.10743 33.079 4.6512 30.8451 4.14469C29.6995 3.89143 28.4394 3.95475 27.1601 4.46126C23.5706 5.89638 22.3678 10.4128 23.036 13.5152C23.5897 16.0688 25.8809 18.5803 31.3797 19.6566C36.0766 20.5641 36.4585 20.6486 38.4633 20.9018Z" fill="url(#paint3_linear_202_15465)"/>
<path d="M35.0644 16.8919C34.6635 13.9795 36.2482 12.4177 35.7518 9.06206C35.6916 8.69737 35.6087 8.33773 35.5036 7.98572C33.7661 8.74549 31.5895 10.5183 28.5537 14.7814C22.0811 23.8353 18.7207 19.4245 18.5298 19.129C19.0071 20.1631 19.9809 20.9018 21.1074 20.9018H38.4821C37.852 20.6274 35.4654 19.7621 35.0644 16.8919Z" fill="url(#paint4_linear_202_15465)"/>
<path d="M23.7803 15.3723C24.5631 16.9763 27.8471 19.5721 38.4629 20.9017C30.0619 19.6988 26.1478 17.9471 23.7803 15.3723Z" fill="url(#paint5_linear_202_15465)"/>
<path d="M13.1646 20.9017C12.84 20.9017 12.5918 20.6063 12.5918 20.2475C12.5918 19.8887 12.8591 19.551 13.1646 19.551C13.7756 19.551 13.871 20.2897 14.8257 20.5852C15.4367 20.7751 16.6586 20.8806 16.6586 20.8806L13.1646 20.9017Z" fill="url(#paint6_linear_202_15465)"/>
<path d="M21.1075 20.9017C20.2865 20.9017 19.5037 20.4797 18.9691 19.8676C17.4607 19.2345 17.2125 18.2426 16.086 18.2426C15.4559 18.2426 14.9404 18.9179 14.9404 19.6144C14.9404 20.3108 15.4559 20.9017 16.086 20.9017H23.0359H21.1075Z" fill="url(#paint7_linear_202_15465)"/>
<path d="M41.4987 8.61889C41.3077 8.45005 41.0977 8.30232 40.9068 8.17569C40.6968 8.04906 40.4677 7.92243 40.2003 7.83801C39.7039 7.62697 39.1884 7.52144 38.692 7.45813H38.482C37.5846 7.45813 36.6299 7.50034 35.5034 7.98575C35.618 8.32342 35.7135 8.6822 35.7517 9.06209C36.0953 11.3836 35.4271 12.882 35.1216 14.5282C36.5918 13.2197 39.4175 13.1775 41.0023 13.283H41.1741C41.3459 13.283 41.4987 13.2619 41.6323 13.2197C43.1789 12.7765 43.2743 10.1806 41.4987 8.61889Z" fill="url(#paint8_linear_202_15465)"/>
<path opacity="0.47" d="M35.1407 14.5073C35.0071 15.2249 34.9498 16.0058 35.0644 16.8922C35.4653 19.7624 37.8138 20.5644 38.4629 20.902H38.482C39.5321 20.902 40.5059 20.48 41.3269 19.8257C41.136 19.6358 40.1049 18.6227 39.7994 17.5886C38.8257 14.3174 41.0405 13.3466 41.1741 13.2833C40.1049 13.2622 36.6109 13.2199 35.1407 14.5073Z" fill="#E35702"/>
<path d="M35.0646 16.892C35.4083 19.3824 37.2985 20.522 38.4632 20.9019C37.7949 20.5431 36.0766 19.3823 36.0956 17.3774C36.1529 13.4519 39.8761 13.3042 39.8761 13.3042C38.3104 13.3042 36.3057 13.4941 35.1219 14.5072C34.9692 15.2458 34.931 16.0056 35.0646 16.892Z" fill="url(#paint9_linear_202_15465)"/>
<path d="M21.8138 20.9017C21.1456 20.8806 19.4272 20.6484 18.5107 19.1289C19.0072 20.2475 20 20.9017 21.1265 20.9017H21.8138Z" fill="url(#paint10_linear_202_15465)"/>
<path d="M34.8542 16.8919C34.4532 13.9795 36.1716 12.4177 35.6752 9.06206C35.6179 8.68217 35.4843 7.98572 35.4843 7.98572C35.5988 8.32339 35.6943 8.68217 35.7325 9.06206C36.2289 12.4177 34.6442 13.9795 35.0451 16.8919C35.4461 19.7621 37.8327 20.6274 38.4437 20.9018C38.4628 20.9018 35.2933 20.0576 34.8542 16.8919Z" fill="url(#paint11_linear_202_15465)"/>
<path d="M20.7827 20.9019H13.1455C12.9164 20.9019 12.7827 20.733 12.7827 20.733C12.9927 20.7541 20.7827 20.9019 20.7827 20.9019Z" fill="#EB7808"/>
<path d="M21.0694 20.9017H16.4489C15.9143 20.9017 15.647 20.7961 15.647 20.7961L21.0694 20.9017Z" fill="#E35702"/>
<path d="M35.1406 14.507C36.6108 13.1986 39.5511 13.1563 41.1931 13.283C41.1931 13.283 38.902 13.2197 37.3172 13.5995C35.7134 14.0005 35.1406 14.507 35.1406 14.507Z" fill="#E35702"/>
<defs>
<linearGradient id="paint0_linear_202_15465" x1="3.84157" y1="19.0931" x2="5.51562" y2="25.0374" gradientUnits="userSpaceOnUse">
<stop stop-color="#FEEC7F"/>
<stop offset="1" stop-color="#F3A21B"/>
</linearGradient>
<linearGradient id="paint1_linear_202_15465" x1="31.2649" y1="3.89569" x2="31.2649" y2="21.8495" gradientUnits="userSpaceOnUse">
<stop stop-color="#FEEC7F"/>
<stop offset="0.19" stop-color="#FEE97B"/>
<stop offset="0.39" stop-color="#FCDF6E"/>
<stop offset="0.61" stop-color="#FACF58"/>
<stop offset="0.82" stop-color="#F6B93A"/>
<stop offset="1" stop-color="#F3A21B"/>
</linearGradient>
<linearGradient id="paint2_linear_202_15465" x1="11.8605" y1="17.6095" x2="27.7076" y2="17.6095" gradientUnits="userSpaceOnUse">
<stop stop-color="#FEEC7F"/>
<stop offset="0.11" stop-color="#FDE373"/>
<stop offset="0.71" stop-color="#F6B434"/>
<stop offset="1" stop-color="#F3A21B"/>
</linearGradient>
<linearGradient id="paint3_linear_202_15465" x1="30.6619" y1="2.40988" x2="30.6619" y2="20.6211" gradientUnits="userSpaceOnUse">
<stop stop-color="#FEEC7F"/>
<stop offset="0.61" stop-color="#F7BC3F"/>
<stop offset="1" stop-color="#F3A21B"/>
</linearGradient>
<linearGradient id="paint4_linear_202_15465" x1="28.5059" y1="8.1123" x2="28.5059" y2="21.1086" gradientUnits="userSpaceOnUse">
<stop stop-color="#F9C32E"/>
<stop offset="0.52" stop-color="#F19819"/>
<stop offset="1" stop-color="#E96C04"/>
</linearGradient>
<linearGradient id="paint5_linear_202_15465" x1="20.0647" y1="18.137" x2="34.7473" y2="18.137" gradientUnits="userSpaceOnUse">
<stop stop-color="#F7B425"/>
<stop offset="0.06" stop-color="#F3A620"/>
<stop offset="0.21" stop-color="#EC8816"/>
<stop offset="0.37" stop-color="#E6720E"/>
<stop offset="0.55" stop-color="#E26208"/>
<stop offset="0.74" stop-color="#E05805"/>
<stop offset="1" stop-color="#DF5504"/>
</linearGradient>
<linearGradient id="paint6_linear_202_15465" x1="14.6252" y1="19.0867" x2="14.6252" y2="21.4969" gradientUnits="userSpaceOnUse">
<stop stop-color="#FEEC7F"/>
<stop offset="0.61" stop-color="#F7BD40"/>
<stop offset="1" stop-color="#F3A21B"/>
</linearGradient>
<linearGradient id="paint7_linear_202_15465" x1="19.0168" y1="15.3238" x2="19.0168" y2="20.0892" gradientUnits="userSpaceOnUse">
<stop stop-color="#FEEC7F"/>
<stop offset="0.23" stop-color="#FEEA7C"/>
<stop offset="0.42" stop-color="#FCE271"/>
<stop offset="0.6" stop-color="#FBD560"/>
<stop offset="0.78" stop-color="#F8C347"/>
<stop offset="0.94" stop-color="#F4AC28"/>
<stop offset="1" stop-color="#F3A21B"/>
</linearGradient>
<linearGradient id="paint8_linear_202_15465" x1="38.9669" y1="7.96251" x2="38.9669" y2="17.1283" gradientUnits="userSpaceOnUse">
<stop stop-color="#F9C32E"/>
<stop offset="0.52" stop-color="#F19819"/>
<stop offset="1" stop-color="#E96C04"/>
</linearGradient>
<linearGradient id="paint9_linear_202_15465" x1="38.6598" y1="14.6992" x2="35.1749" y2="17.0255" gradientUnits="userSpaceOnUse">
<stop stop-color="#E66A09"/>
<stop offset="1" stop-color="#E66A09"/>
</linearGradient>
<linearGradient id="paint10_linear_202_15465" x1="20.1623" y1="18.6182" x2="20.1623" y2="20.9355" gradientUnits="userSpaceOnUse">
<stop stop-color="#F7B425"/>
<stop offset="0.06" stop-color="#F3A620"/>
<stop offset="0.21" stop-color="#EC8816"/>
<stop offset="0.37" stop-color="#E6720E"/>
<stop offset="0.55" stop-color="#E26208"/>
<stop offset="0.74" stop-color="#E05805"/>
<stop offset="1" stop-color="#DF5504"/>
</linearGradient>
<linearGradient id="paint11_linear_202_15465" x1="36.6184" y1="6.0589" x2="36.6184" y2="16.4634" gradientUnits="userSpaceOnUse">
<stop stop-color="#F7B425"/>
<stop offset="0.35" stop-color="#EF961A"/>
<stop offset="1" stop-color="#DF5504"/>
</linearGradient>
</defs>
</svg>
