<svg width="37" height="36" viewBox="0 0 37 36" fill="none" xmlns="http://www.w3.org/2000/svg">
<g clip-path="url(#clip0_202_14156)">
<path d="M23.7496 0.0631866C17.2443 0.0631866 11.8759 5.17898 11.5601 11.6211C5.11799 11.9369 0.00219727 17.2421 0.00219727 23.7474C0.00219727 30.4421 5.49693 35.9369 12.1917 35.9369H31.0127H31.0759C33.7917 35.9369 36.0022 33.7263 36.0022 31.0737V30.3158V12.2527C36.0022 5.49477 30.5075 0.0631866 23.7496 0.0631866ZM10.6759 30.5684C8.14957 29.9369 6.12851 27.9158 5.49693 25.4527C5.43378 25.1369 5.43378 25.0106 5.37062 24.6948H5.49693H10.6759V30.5684ZM17.118 30.7579H12.4443H12.1285V19.2632H17.118V30.7579ZM23.8759 30.7579H18.8864V9.7895H23.8759V30.7579ZM30.6338 29.7474C30.6338 30.3158 30.1917 30.8211 29.6232 30.8211H25.5811V13.8316H30.6338V29.7474Z" fill="#4551FF"/>
</g>
<defs>
<clipPath id="clip0_202_14156">
<rect width="37" height="36" fill="white"/>
</clipPath>
</defs>
</svg>
