<svg width="37" height="37" viewBox="0 0 37 37" fill="none" xmlns="http://www.w3.org/2000/svg">
<g clip-path="url(#clip0_202_14278)">
<path d="M28.5566 35.9862H18.0188C14.5068 35.9862 10.9929 36.0208 7.48109 35.9862C3.91583 35.951 0.779627 33.3845 0.148222 29.8501C-0.0781831 28.5827 0.0323478 27.2129 0.0323478 25.932V11.544C0.0323478 10.2031 0.0227853 8.86169 0.0323478 7.52074C0.0547071 4.3934 1.96383 1.53723 4.92875 0.455774C6.39814 -0.0802408 7.92842 0.00682122 9.46052 0.00682122H16.1088C20.1792 0.00682122 24.2494 0.00147654 28.3198 0.00682122C31.0749 0.0104781 33.6354 1.33315 35.0251 3.76075C35.9538 5.38329 36.0054 7.09105 36.0054 8.88503V22.8016V28.0246C36.0054 30.4538 35.2066 32.7147 33.2805 34.2966C31.9554 35.3849 30.2711 35.9862 28.5566 35.9862Z" fill="#3CB5E8"/>
<path d="M6.52551 8.88111V27.515H11.6343L11.6108 21.5088L13.9768 18.6395L16.8696 27.515H22.3462L17.8585 15.0845L22.3579 8.85748H15.9308L11.6108 13.9544V8.8693L6.52551 8.88111Z" fill="white"/>
<path d="M30.2565 8.86926H23.3269L27.3246 14.9354L23.4761 27.515H30.2565V8.86926Z" fill="white"/>
</g>
<defs>
<clipPath id="clip0_202_14278">
<rect width="37" height="37" fill="white"/>
</clipPath>
</defs>
</svg>
