<svg width="37" height="37" viewBox="0 0 37 37" fill="none" xmlns="http://www.w3.org/2000/svg">
<g clip-path="url(#clip0_202_13336)">
<path d="M10.8078 10.8063L5.11843 5.11981C5.0003 5.23794 4.95995 5.43509 5.02182 5.67738L6.48712 11.3622C6.61452 11.8512 6.33159 12.4024 5.86359 12.5861L0.401781 14.7408C0.165533 14.8337 0.0343317 14.983 0.00634766 15.1495L7.95368 16.4085C8.2937 14.2377 9.31997 12.2933 10.8078 10.8063Z" fill="#3C98FF"/>
<path d="M7.82777 18.0008C7.82777 17.4594 7.8701 16.9281 7.95377 16.4087L0.0064373 15.1497C-0.0188749 15.3167 0.0626866 15.5012 0.258434 15.6597L4.78566 19.397C5.17322 19.7192 5.27039 20.3298 5.00039 20.755L1.84776 25.7088C1.71318 25.9227 1.69448 26.1218 1.7676 26.271L8.93855 22.6203C8.23009 21.2326 7.82777 19.6638 7.82777 18.0008Z" fill="#1B5CED"/>
<path d="M16.4102 7.95146L15.1509 0.00708008C14.9845 0.0336579 14.8351 0.166969 14.7422 0.400966L12.5861 5.86222C12.4019 6.33204 11.8527 6.61272 11.3619 6.48658L5.67907 5.02044C5.43355 4.95477 5.23878 4.99879 5.11841 5.12001L10.8077 10.8065C12.2917 9.32183 14.2366 8.29317 16.4102 7.95146Z" fill="#009B4A"/>
<path d="M28.1741 18.0008C28.1741 18.5426 28.1319 19.0728 28.0495 19.5941L35.9967 20.8511C36.0233 20.6845 35.9417 20.5001 35.746 20.3392L31.2188 16.6037C30.8301 16.2827 30.7315 15.671 31.004 15.2459L34.1575 10.2924C34.2934 10.0795 34.3121 9.87926 34.2351 9.72852L27.0662 13.3823C27.7718 14.768 28.1741 16.3375 28.1741 18.0008Z" fill="#1B5CED"/>
<path d="M27.0659 13.3821L34.2349 9.7283C34.1573 9.57671 33.9846 9.47912 33.7329 9.46365L27.871 9.10028C27.3687 9.06977 26.9303 8.63383 26.9 8.12787L26.5417 2.2695C26.5265 2.01792 26.4237 1.84538 26.2745 1.76733L22.6221 8.93645C24.5326 9.91238 26.0905 11.4725 27.0659 13.3821Z" fill="#EB3200"/>
<path d="M18.002 7.82549C19.6662 7.82549 21.2347 8.22823 22.6221 8.93655L26.2745 1.76743C26.1237 1.69304 25.9239 1.71175 25.7085 1.84548L20.7556 4.99868C20.3317 5.26966 19.7186 5.17263 19.3981 4.78423L15.6604 0.254887C15.5024 0.0580148 15.3181 -0.0207343 15.1509 0.00696846L16.4102 7.95134C16.9295 7.87077 17.4594 7.82549 18.002 7.82549Z" fill="#EBAD00"/>
<path d="M19.5928 28.0488L20.8523 35.9974C21.0173 35.9708 21.1692 35.8351 21.2617 35.6027L23.4124 30.1389C23.6 29.6698 24.1518 29.3885 24.6395 29.5148L30.3251 30.984C30.5674 31.0445 30.7657 31.0023 30.8844 30.8838L25.1966 25.1957C23.7092 26.6798 21.7644 27.7093 19.5928 28.0488Z" fill="#009B4A"/>
<path d="M28.0494 19.5941C27.7109 21.7646 26.6811 23.7079 25.1965 25.1957L30.8843 30.8838C31.0057 30.7628 31.0483 30.566 30.9826 30.3234L29.5165 24.6387C29.3888 24.1503 29.6712 23.5986 30.1403 23.4137L35.5998 21.2583C35.8353 21.1663 35.9683 21.0176 35.9965 20.8511L28.0494 19.5941Z" fill="#3C98FF"/>
<path d="M18.0021 28.1748C16.3379 28.1748 14.7695 27.7715 13.3823 27.0645L9.72876 34.2316C9.88063 34.3105 10.0813 34.2894 10.2951 34.1529L15.2451 31.0023C15.6725 30.7323 16.2814 30.8301 16.605 31.2171L20.3408 35.7461C20.5015 35.943 20.6857 36.0219 20.8522 35.9974L19.5926 28.0488C19.0746 28.1323 18.544 28.1748 18.0021 28.1748Z" fill="#EBAD00"/>
<path d="M8.93853 22.6202L1.76758 26.271C1.84689 26.4224 2.01943 26.5251 2.27101 26.5405L8.1305 26.8987C8.63548 26.931 9.07184 27.3671 9.10235 27.8729L9.46544 33.7303C9.48049 33.983 9.58075 34.1554 9.72883 34.2315L13.3824 27.0644C11.4707 26.0889 9.91417 24.5299 8.93853 22.6202Z" fill="#EB3200"/>
<path d="M15.9054 19.8117C16.3014 19.8724 16.6994 19.8118 17.0549 19.628L17.3393 19.4818C18.2683 19.0101 18.6381 17.8731 18.1652 16.9464L16.3418 13.3635C16.2331 13.1566 16.039 13.0108 15.8186 12.9748C15.6969 12.9569 15.5742 12.9748 15.4695 13.0298C15.32 13.105 15.2121 13.2448 15.1663 13.4165C15.1238 13.5865 15.1455 13.7713 15.227 13.9323L16.984 17.3823C17.1817 17.7733 17.0284 18.2518 16.6357 18.4529C16.4844 18.5305 16.3173 18.5558 16.1509 18.5305C15.9019 18.4888 15.6845 18.3304 15.5644 18.1033L13.8079 14.6541C13.2371 13.5326 13.6604 12.1682 14.7451 11.6126C15.1545 11.4054 15.6115 11.3362 16.0691 11.4054C16.7904 11.5207 17.4198 11.9811 17.7566 12.6425L19.5809 16.2254C20.4518 17.9336 19.7711 20.0303 18.0626 20.8999L17.7777 21.046C17.1212 21.3794 16.3875 21.4961 15.6604 21.3811C14.5606 21.2077 13.6057 20.5149 13.1039 19.5274L10.536 14.4892L10.4986 14.4167C10.1619 15.1229 9.91584 15.886 9.78647 16.6978C9.06985 21.2356 12.1645 25.4981 16.7013 26.2133C21.2352 26.934 25.4965 23.8379 26.2175 19.3C26.9358 14.7651 23.8361 10.5059 19.3015 9.78826C16.2265 9.30001 13.2855 10.5663 11.4829 12.8446L14.5183 18.8064C14.791 19.3412 15.312 19.7172 15.9054 19.8117Z" fill="#EBAD00"/>
</g>
<defs>
<clipPath id="clip0_202_13336">
<rect width="37" height="37" fill="white"/>
</clipPath>
</defs>
</svg>
