<svg width="37" height="37" viewBox="0 0 37 37" fill="none" xmlns="http://www.w3.org/2000/svg">
<g clip-path="url(#clip0_202_15446)">
<path d="M35.8014 19.9759L31.3702 17.8353L35.568 15.872C35.8936 15.7193 36.0847 15.3165 35.8595 14.9411L35.4233 14.4361C35.1418 14.1282 34.8361 13.9037 34.4647 14.0498L31.3459 15.2254C31.2778 15.251 31.2031 15.2542 31.1331 15.2344L29.9258 14.8924C29.8363 14.8671 29.7401 14.8909 29.6726 14.9548L28.3812 16.1807C28.0918 14.5214 27.4174 12.9945 26.4489 11.6988L28.3368 11.684C28.4181 11.6833 28.4927 11.6389 28.532 11.5676L29.2002 10.3556C29.235 10.2924 29.2899 10.2428 29.3562 10.2146L32.4454 8.89741C32.6351 8.81655 32.7519 8.42238 32.7154 8.16672L32.6149 7.24422C32.5328 6.97928 32.1608 6.74613 31.9829 6.8118L27.336 8.43152L28.916 4.07495C29.0382 3.73675 28.8886 3.31698 28.4639 3.21053L27.7983 3.16201C27.3815 3.14345 27.0066 3.20068 26.8473 3.56673L25.4732 6.60325C25.4433 6.66949 25.3928 6.72447 25.3292 6.76005L24.2338 7.37191C24.1525 7.41733 24.1013 7.50213 24.0988 7.59508L24.0524 9.37568C22.7308 8.44699 21.1873 7.81389 19.5159 7.57328L20.8413 6.22694C20.8984 6.16886 20.9198 6.08463 20.8971 6.00658L20.5125 4.67697C20.4926 4.60778 20.4962 4.53381 20.5231 4.46701L21.7762 1.35118C21.8533 1.15993 21.6571 0.798524 21.4504 0.643555L20.7271 0.0623509C20.4816 -0.0667431 20.0537 0.0312727 19.9744 0.203398L17.8338 4.63478L15.8705 0.436976C15.7178 0.111288 15.3152 -0.0796806 14.9396 0.14532L14.4346 0.58168C14.1267 0.863211 13.9022 1.16879 14.0484 1.54032L15.2239 4.65897C15.2496 4.72717 15.2527 4.8017 15.2329 4.87173L14.891 6.07914C14.8656 6.16858 14.8894 6.26477 14.9535 6.33227L16.1792 7.62363C14.5199 7.91318 12.993 8.58747 11.6974 9.55596L11.6825 7.66821C11.682 7.58678 11.6374 7.51225 11.5662 7.47288L10.3541 6.80463C10.2911 6.76989 10.2414 6.71505 10.2131 6.64881L8.89605 3.55942C8.81519 3.36972 8.42102 3.253 8.16522 3.28956L7.24272 3.38997C6.97792 3.47223 6.74463 3.84418 6.8103 4.02193L8.43016 8.66904L4.07359 7.08897C3.73525 6.96663 3.31548 7.11639 3.20903 7.54108L3.16051 8.20666C3.14195 8.62333 3.19918 8.99838 3.56523 9.15757L6.60175 10.5316C6.66813 10.5617 6.72311 10.6122 6.75855 10.6758L7.37055 11.7712C7.41583 11.8524 7.50077 11.9037 7.59372 11.9061L9.37418 11.9525C8.44563 13.2741 7.81239 14.8176 7.57193 16.4889L6.22544 15.1635C6.1675 15.1064 6.08327 15.0852 6.00508 15.1077L4.67547 15.4923C4.60628 15.5124 4.53245 15.5086 4.46566 15.4818L1.34982 14.2287C1.15843 14.1517 0.797166 14.3479 0.642197 14.5545L0.0608524 15.2779C-0.0682416 15.5232 0.0299148 15.9512 0.20204 16.0305L4.63328 18.1711L0.435478 20.1343C0.10979 20.2871 -0.0811791 20.6898 0.143821 21.0653L0.580181 21.5703C0.861713 21.8781 1.16743 22.1027 1.53882 21.9566L4.65761 20.7809C4.72567 20.7554 4.8002 20.7521 4.87037 20.7719L6.07764 21.1139C6.16708 21.1393 6.26341 21.1155 6.33091 21.0515L7.62227 19.8257C7.91168 21.4849 8.58611 23.0118 9.5546 24.3075L7.66671 24.3223C7.58542 24.323 7.51075 24.3674 7.47152 24.4387L6.80327 25.6508C6.76839 25.7139 6.71355 25.7634 6.64731 25.7918L3.55806 27.1089C3.36836 27.1898 3.2515 27.584 3.28806 27.8396L3.38847 28.7621C3.47073 29.0271 3.84269 29.2602 4.02058 29.1945L8.66754 27.5748L7.08747 31.9314C6.96527 32.2696 7.11489 32.6894 7.53958 32.7958L8.20516 32.8443C8.62183 32.8629 8.99688 32.8057 9.15607 32.4396L10.5301 29.4031C10.5602 29.3369 10.6107 29.2819 10.6743 29.2463L11.7697 28.6344C11.8509 28.589 11.9022 28.5042 11.9046 28.4113L11.9511 26.6307C13.2727 27.5594 14.8161 28.1925 16.4876 28.4331L15.162 29.7794C15.1051 29.8375 15.0837 29.9217 15.1063 29.9998L15.491 31.3294C15.5109 31.3986 15.5071 31.4725 15.4803 31.5393L14.2272 34.6552C14.1502 34.8464 14.3464 35.2078 14.5531 35.3628L15.2764 35.944C15.5217 36.0731 15.9497 35.9751 16.0291 35.803L18.1696 31.3716L20.133 35.5694C20.2857 35.8951 20.6883 36.086 21.0639 35.861L21.5688 35.4247C21.8766 35.1431 22.1013 34.8374 21.9551 34.466L20.7796 31.3474C20.7538 31.2792 20.7508 31.2046 20.7706 31.1346L21.1124 29.9272C21.1378 29.8378 21.114 29.7416 21.05 29.6741L19.8243 28.3826C21.4834 28.0932 23.0105 27.4189 24.306 26.4502L24.3209 28.3383C24.3215 28.4196 24.3661 28.4942 24.4372 28.5335L25.6494 29.2017C25.7124 29.2365 25.7621 29.2913 25.7903 29.3575L27.1074 32.4469C27.1883 32.6366 27.5825 32.7534 27.8383 32.7168L28.7606 32.6164C29.0256 32.5341 29.2587 32.1622 29.1932 31.9844L27.5733 27.3373L31.9299 28.9174C32.2682 29.0397 32.688 28.89 32.7945 28.4653L32.843 27.7997C32.8615 27.383 32.8042 27.008 32.4383 26.8488L29.4017 25.4747C29.3354 25.4446 29.2804 25.3942 29.2448 25.3306L28.6329 24.2351C28.5875 24.154 28.5027 24.1027 28.4098 24.1003L26.6292 24.0539C27.5579 22.7323 28.191 21.1888 28.4316 19.5174L29.778 20.8428C29.836 20.8999 29.9202 20.9211 29.9983 20.8986L31.328 20.514C31.3971 20.4939 31.471 20.4977 31.5378 20.5246L34.6537 21.7777C34.8451 21.8546 35.2063 21.6584 35.3613 21.4519L35.9425 20.7285C36.0717 20.4831 35.9736 20.0552 35.8014 19.9759ZM25.5582 16.8278H23.3173C23.1543 16.0872 22.8407 15.4034 22.4099 14.8097L23.9805 13.2391C24.792 14.2561 25.3507 15.4836 25.5582 16.8278ZM20.9288 13.4139C20.3127 13.02 19.6127 12.7462 18.8606 12.6269V10.406C20.2169 10.5576 21.4656 11.0637 22.5125 11.8301L20.9288 13.4139ZM20.656 18.0032C20.656 19.4691 19.4677 20.6575 18.0017 20.6575C16.5358 20.6575 15.3474 19.4691 15.3474 18.0032C15.3474 16.5373 16.5358 15.3489 18.0017 15.3489C19.4677 15.3489 20.656 16.5373 20.656 18.0032ZM16.8263 10.4467V12.6875C16.0857 12.8507 15.4019 13.1643 14.8084 13.595L13.2376 12.0244C14.2547 11.2128 15.4821 10.6541 16.8263 10.4467ZM13.4124 15.0761C13.0186 15.6923 12.7447 16.3923 12.6256 17.1442H10.4045C10.5563 15.7879 11.0624 14.5393 11.8287 13.4923L13.4124 15.0761ZM10.4453 19.1785H12.6862C12.8492 19.9192 13.1628 20.6029 13.5936 21.1966L12.0229 22.7673C11.2114 21.7503 10.6527 20.5228 10.4453 19.1785ZM15.0746 22.5925C15.6908 22.9864 16.3908 23.2602 17.1427 23.3794V25.6003C15.7865 25.4487 14.5378 24.9426 13.491 24.1762L15.0746 22.5925ZM19.1772 25.5597V23.3188C19.9177 23.1557 20.6016 22.8421 21.1951 22.4114L22.7658 23.982C21.7488 24.7935 20.5213 25.3522 19.1772 25.5597ZM22.5911 20.9303C22.9849 20.3141 23.2587 19.614 23.3779 18.8621H25.599C25.4472 20.2184 24.9411 21.4671 24.1748 22.514L22.5911 20.9303Z" fill="#E16426"/>
</g>
<defs>
<clipPath id="clip0_202_15446">
<rect width="37" height="37" fill="white"/>
</clipPath>
</defs>
</svg>
