<svg width="36" height="32" viewBox="0 0 36 32" fill="none" xmlns="http://www.w3.org/2000/svg">
<g clip-path="url(#clip0_202_16169)">
<path d="M11.3525 27.2496L12.2125 26.1396H18.5761L21.8931 30.3775L21.3034 31.8153H13.097L13.2936 30.3775L11.3525 27.2496Z" fill="#169FCC"/>
<path d="M13.2979 12.7995L16.3706 7.49097H19.9512L36.0006 26.133L34.7562 31.8153H27.8743L28.306 30.2203L13.2979 12.7995Z" fill="#14B59A"/>
<path d="M17.0283 6.48242L18.4996 3.7616L22.9135 0.193726L30.4765 6.12306L29.4957 7.12412L30.8121 8.94656V10.8973L27.0435 13.9775L20.7195 6.48242H17.0283Z" fill="#1BC263"/>
<path d="M5.34031 18.3379H7.3394L12.5522 13.9775L19.4604 22.0046L17.512 24.928H11.1351L6.73208 30.5271L5.71988 31.8154H0.000976562V24.9528L5.34031 18.3379Z" fill="#16BDCC"/>
</g>
<defs>
<clipPath id="clip0_202_16169">
<rect width="36.0006" height="32" fill="white"/>
</clipPath>
</defs>
</svg>
