<svg width="32" height="37" viewBox="0 0 32 37" fill="none" xmlns="http://www.w3.org/2000/svg">
<g clip-path="url(#clip0_202_14012)">
<path d="M16.0004 0.00439453L16.3483 0.787014V8.55516L16.0004 9.04793L15.3211 9.1073L8.52218 5.13483L8.26123 4.5261L16.0004 0.00439453Z" fill="#C5E3EB"/>
<path d="M0.521973 9.04771L0.695861 9.59839L7.44003 13.463L8.2611 13.4825L8.57998 12.9607V5.01864L8.2611 4.52588L0.521973 9.04771Z" fill="#C5E3EB"/>
<path d="M0.521973 26.9607L0.811827 26.3955L7.76035 22.4138L8.2611 22.5259L8.89885 22.3521L15.7632 26.2856L16.0002 26.9607L16.2467 27.3955V35.6563L16.0002 36.0042L0.521973 26.9607Z" fill="#78ABDB"/>
<path d="M8.26123 4.52588L16.0004 9.04771L16.3483 9.8302V17.1925L16.0004 18.0042L15.058 17.9183L8.50767 14.0911L8.26123 13.4825V4.52588Z" fill="#A4C0C5"/>
<path d="M16.0002 18.0046L15.8415 18.4592L9.02922 22.4394L8.26111 22.5263L8.0293 21.9611V13.7873L8.26111 13.4829L16.0002 18.0046Z" fill="#7BA6C1"/>
<path d="M0.521973 26.9613L8.2611 22.5265V13.4831L0.521973 9.04834V26.9613Z" fill="#98C3E4"/>
<path d="M16.0004 18.0044L16.2033 18.5696V26.3087L16.0004 26.9609L8.26123 22.5261L16.0004 18.0044Z" fill="#4B7C9E"/>
<path d="M16 36.0043V26.9608L16.3855 26.8579L23.3334 30.9173L23.7391 31.4826L16 36.0043Z" fill="#F4BC6A"/>
<path d="M16 18.0044V26.9608L23.7391 31.4827L23.9856 30.8304V23.0913L23.7391 22.5261L23.2899 21.9175L16.524 17.9644L16 18.0044Z" fill="#B48340"/>
<path d="M23.7391 13.4829L23.9856 13.8742V21.8742L23.7391 22.5263L16 18.0046L16.3566 17.4355L22.8986 13.6133L23.7391 13.4829Z" fill="#8C3D33"/>
<path d="M16 9.04796L16.5073 8.91748L23.4506 12.8962L23.7391 13.4827L16 18.0044V9.04796Z" fill="#C47973"/>
<path d="M23.7393 31.4824V22.5258L24.1863 22.4243L31.1161 26.3953L31.4784 26.9605L23.7393 31.4824Z" fill="#F4BC6A"/>
<path d="M31.4784 9.04834H30.8542L24.0088 12.971L23.7393 13.4831V22.5265L31.4784 26.9613V9.04834Z" fill="#BB6651"/>
<path d="M16 0.00439453V9.04793L23.7391 13.4827L31.4783 9.04793L16 0.00439453Z" fill="#E1938A"/>
</g>
<defs>
<clipPath id="clip0_202_14012">
<rect width="32" height="37" fill="white"/>
</clipPath>
</defs>
</svg>
