<svg width="34" height="37" viewBox="0 0 34 37" fill="none" xmlns="http://www.w3.org/2000/svg">
<g clip-path="url(#clip0_202_12729)">
<path d="M17.0023 0.00219727L0.182617 8.26458V18.0022V27.7398L17.0023 36.0022L33.822 27.7398V18.0022V8.26458L17.0023 0.00219727Z" fill="#0081C2"/>
<path d="M29.774 24.2419C29.7211 23.8813 29.5737 23.5407 29.3805 23.2644C29.1868 22.9871 28.9555 22.7624 28.7131 22.5794C28.2261 22.2142 27.698 21.9895 27.1626 21.8498C27.119 21.8383 27.0755 21.8276 27.0314 21.8172C27.1658 21.642 27.2879 21.4632 27.4009 21.2773C27.629 20.8985 27.8203 20.4935 27.9493 20.0593C28.0754 19.626 28.1345 19.159 28.0781 18.6987C28.0239 18.2389 27.8492 17.7978 27.5876 17.4441C27.4588 17.2657 27.313 17.1054 27.1567 16.9619L27.0375 16.8574C26.9967 16.824 26.9558 16.7915 26.9141 16.7591L26.7861 16.6651L26.6616 16.5812C26.6055 16.5435 26.5291 16.5481 26.4781 16.5964C26.4188 16.6523 26.4167 16.7455 26.4725 16.8045L26.5756 16.9135L26.6686 17.0201L26.7584 17.131L26.8433 17.2438C26.9526 17.3963 27.0458 17.5561 27.1188 17.7204C27.2657 18.0492 27.3271 18.3939 27.302 18.7294C27.2777 19.0658 27.1708 19.3933 27.013 19.7019C26.8567 20.0107 26.6502 20.3024 26.4151 20.5699C26.298 20.7034 26.1735 20.8319 26.0456 20.95C26.0138 20.9794 25.9817 21.008 25.9502 21.0344C25.9347 21.0475 25.9192 21.0609 25.9056 21.0713L25.9005 21.0751L25.8989 21.0759C25.8965 21.0777 25.9187 21.0569 25.9075 21.067C25.9075 21.0668 25.9077 21.0665 25.9077 21.0662C25.9091 21.0646 25.9064 21.0668 25.9056 21.067L25.8861 21.0799C25.8262 21.1189 25.7544 21.1632 25.6825 21.203C25.3918 21.3644 25.0761 21.4926 24.7611 21.5706C24.4448 21.65 24.1285 21.6799 23.8226 21.6657C23.5161 21.6518 23.2201 21.5867 22.9359 21.4835C22.923 21.479 22.9102 21.4739 22.8974 21.4688C22.9567 21.4603 23.0157 21.4507 23.0759 21.4387C23.2626 21.401 23.4542 21.346 23.6441 21.2666C23.8332 21.1875 24.0216 21.0833 24.1926 20.9532C24.3644 20.8239 24.5185 20.6706 24.647 20.5055C24.7755 20.3406 24.8792 20.1651 24.958 19.9896C25.0379 19.8143 25.0956 19.6394 25.1394 19.4684C25.1808 19.2979 25.2086 19.1307 25.2249 18.9683C25.2575 18.6426 25.2508 18.3354 25.227 18.0388L25.2174 17.9274L25.2046 17.8125C25.2 17.7751 25.1963 17.7343 25.1912 17.7003L25.1763 17.6033L25.1688 17.5547L25.165 17.5307L25.1632 17.5187L25.1624 17.5125L25.1618 17.5096C25.1618 17.5109 25.16 17.4874 25.1608 17.4959L25.1455 17.403L25.1159 17.217C25.0766 16.9688 25.0432 16.7209 25.016 16.4725C24.9999 16.348 24.9927 16.2245 24.9807 16.1001C24.9703 15.9758 24.9647 15.8524 24.9558 15.7279C24.946 15.481 24.9379 15.2326 24.9468 14.9873C24.9481 14.8639 24.9588 14.7426 24.9644 14.62C24.9756 14.4992 24.9839 14.3764 25.0015 14.2567C25.0328 14.0162 25.0779 13.7785 25.1442 13.5498C25.2102 13.3211 25.2983 13.1017 25.4124 12.9003C25.5246 12.6975 25.6673 12.5151 25.8428 12.3735C25.9302 12.3019 26.0266 12.2431 26.1297 12.199C26.181 12.1768 26.2345 12.1581 26.289 12.1437C26.3162 12.136 26.3395 12.1325 26.3656 12.1261C26.3942 12.1213 26.4298 12.1194 26.4615 12.1157L26.4658 12.1154C26.5329 12.1079 26.5879 12.0548 26.5954 11.985C26.6039 11.9043 26.5454 11.8319 26.4648 11.8234C26.4314 11.8199 26.4017 11.8148 26.3651 11.8124C26.3261 11.8116 26.2844 11.8095 26.247 11.8114C26.1722 11.814 26.0971 11.8226 26.0234 11.8368C25.8762 11.8656 25.7333 11.9172 25.6005 11.9858C25.3336 12.1221 25.1039 12.3187 24.9128 12.5399C24.7215 12.7619 24.5666 13.0085 24.4368 13.2634C24.3075 13.5185 24.2035 13.7825 24.1162 14.0499C24.0702 14.1835 24.0347 14.3181 23.9962 14.4533C23.9631 14.5882 23.9289 14.7245 23.9024 14.8604C23.8445 15.1329 23.8049 15.406 23.7681 15.6798C23.7355 15.9531 23.7114 16.2272 23.6959 16.5005C23.6802 16.7738 23.6714 17.0469 23.6692 17.3194L23.6689 17.5237V17.6261C23.6698 17.6367 23.6679 17.6154 23.6681 17.6186V17.6218V17.6279L23.6679 17.6402V17.6648L23.6676 17.7139L23.6668 17.812C23.6665 17.8433 23.6641 17.8673 23.6631 17.8953L23.6585 17.976L23.6521 18.0602C23.6348 18.2851 23.6022 18.501 23.5493 18.6907C23.5228 18.7853 23.4918 18.8729 23.4587 18.9525C23.424 19.03 23.3863 19.0989 23.3465 19.1555C23.2658 19.2704 23.1843 19.3276 23.0988 19.3644C23.0139 19.4008 22.9081 19.4251 22.7644 19.4296C22.6222 19.4347 22.4496 19.4176 22.2661 19.3781C22.2399 19.3727 22.2137 19.3671 22.187 19.361C22.187 19.361 21.5173 19.1248 21.7374 18.3583C21.8867 18.0808 22.16 17.7949 22.6642 17.7204C22.6642 17.7204 23.7395 9.3936 17.0015 4.0411C16.9972 4.03789 16.9927 4.0411 16.9927 4.0411C10.2555 9.3928 11.3308 17.7196 11.3308 17.7196C11.8683 17.7989 12.144 18.119 12.2856 18.4126C12.447 19.0861 11.9052 19.327 11.8304 19.3567C11.7991 19.3642 11.7682 19.3714 11.7377 19.3773C11.5539 19.4168 11.3813 19.4339 11.2392 19.4288C11.0957 19.424 10.9899 19.4 10.9047 19.3636C10.8195 19.3265 10.7377 19.2693 10.6573 19.1547C10.6178 19.0981 10.5798 19.0292 10.5451 18.9517C10.512 18.8718 10.481 18.7844 10.4545 18.6899C10.4019 18.5002 10.3696 18.2841 10.3519 18.0594L10.3455 17.9752L10.3413 17.8945C10.3399 17.8668 10.3378 17.8427 10.3373 17.8112L10.3367 17.7131L10.3365 17.664L10.3362 17.6394V17.6271V17.621V17.6178C10.3365 17.6146 10.3346 17.6359 10.3354 17.6253V17.5229L10.3351 17.3186C10.333 17.0461 10.3244 16.773 10.3084 16.4997C10.2929 16.2264 10.2689 15.9523 10.2363 15.679C10.1994 15.4052 10.1599 15.1321 10.1019 14.8596C10.076 14.7237 10.0415 14.5874 10.0081 14.4525C9.96991 14.3173 9.93411 14.1827 9.88843 14.0491C9.8008 13.7819 9.69715 13.5177 9.56758 13.2626C9.438 13.008 9.28278 12.7614 9.0915 12.5391C8.90075 12.3179 8.67073 12.1213 8.40357 11.985C8.27079 11.9164 8.12813 11.8651 7.98066 11.836C7.90692 11.8221 7.83212 11.8132 7.75705 11.8106C7.71965 11.8087 7.6777 11.8108 7.63897 11.8116C7.60236 11.814 7.57271 11.8189 7.53931 11.8226C7.45863 11.8311 7.40013 11.9035 7.40868 11.9842C7.41589 12.054 7.47119 12.1071 7.53825 12.1146L7.54252 12.1149C7.57431 12.1186 7.60984 12.1205 7.63843 12.1253C7.66461 12.1317 7.68812 12.1352 7.7151 12.1429C7.7696 12.1573 7.8225 12.1758 7.87406 12.1982C7.97719 12.2423 8.0739 12.3011 8.16099 12.3727C8.33678 12.5143 8.47918 12.6967 8.59138 12.8995C8.70546 13.1007 8.79335 13.3203 8.85961 13.549C8.92586 13.7777 8.97101 14.0154 9.00227 14.2559C9.0199 14.3755 9.02845 14.4984 9.0394 14.6192C9.04502 14.7421 9.05597 14.8631 9.05677 14.9865C9.06585 15.2315 9.05784 15.4802 9.04822 15.7271C9.03914 15.8516 9.03353 15.975 9.02311 16.0992C9.01109 16.2237 9.00387 16.3472 8.98784 16.4717C8.96086 16.7201 8.92747 16.968 8.88793 17.2162L8.85801 17.4022L8.84331 17.4951C8.84385 17.4866 8.84197 17.5101 8.84197 17.5088L8.84171 17.5117L8.84091 17.5179L8.83904 17.5299L8.83503 17.5539L8.82755 17.6025L8.81286 17.6995C8.80805 17.7335 8.80377 17.7746 8.7995 17.8117L8.78694 17.9266L8.77732 18.038C8.75355 18.3343 8.74633 18.6418 8.77919 18.9675C8.79576 19.1299 8.82327 19.2971 8.86495 19.4676C8.90877 19.6388 8.9662 19.8135 9.04582 19.9888C9.1249 20.1641 9.22855 20.3396 9.35732 20.5047C9.48556 20.6698 9.63997 20.8229 9.81149 20.9524C9.98274 21.0825 10.1708 21.1867 10.3602 21.2658C10.5499 21.3452 10.7415 21.4002 10.9282 21.4379C10.9883 21.4499 11.0479 21.4595 11.1067 21.468C11.0938 21.4731 11.081 21.4782 11.0682 21.4827C10.7839 21.5859 10.4879 21.651 10.1818 21.6649C9.87587 21.6791 9.55929 21.6489 9.24351 21.5698C8.928 21.4918 8.61275 21.3636 8.32155 21.2022C8.24995 21.1624 8.17809 21.1183 8.11825 21.0791L8.09874 21.0662C8.09794 21.066 8.09527 21.0638 8.09634 21.0654C8.09634 21.0657 8.09687 21.066 8.09687 21.0662C8.08565 21.0561 8.10783 21.0769 8.10542 21.0751L8.10409 21.0745L8.09928 21.0708C8.08592 21.0604 8.07016 21.047 8.05466 21.0339C8.0234 21.0072 7.99108 20.9789 7.95929 20.9495C7.83132 20.8317 7.70682 20.7029 7.58981 20.5693C7.35471 20.3019 7.1482 20.0102 6.99191 19.7013C6.83402 19.393 6.72689 19.0652 6.70258 18.7289C6.67746 18.3933 6.73891 18.0487 6.88585 17.7198C6.95905 17.5555 7.05229 17.3958 7.16155 17.2432L7.24651 17.1305L7.33628 17.0196L7.42925 16.913L7.53237 16.804C7.5882 16.745 7.5858 16.6517 7.52676 16.5959C7.47573 16.5475 7.39906 16.543 7.34295 16.5807L7.21846 16.6646L7.09049 16.7586C7.04881 16.7909 7.00821 16.8238 6.96733 16.8569L6.84818 16.9614C6.69189 17.1048 6.54602 17.2651 6.41699 17.4436C6.15544 17.7976 5.98099 18.2386 5.92649 18.6982C5.87012 19.1585 5.92916 19.6255 6.05552 20.0588C6.18429 20.4929 6.37558 20.8979 6.60373 21.2768C6.71674 21.4627 6.8391 21.6417 6.97348 21.8172C6.92939 21.8274 6.88558 21.8375 6.84177 21.849C6.30665 21.9887 5.77848 22.2134 5.29145 22.5786C5.04941 22.7619 4.81778 22.9863 4.62409 23.2636C4.4312 23.5399 4.28373 23.8807 4.23084 24.2411C4.17473 24.6021 4.22469 24.9659 4.32915 25.2758C4.38312 25.4303 4.4491 25.574 4.52284 25.707C4.59845 25.8377 4.67859 25.9627 4.76649 26.073C4.85278 26.1866 4.94495 26.2886 5.03819 26.3872L5.11433 26.4631L5.15253 26.501C5.16535 26.5138 5.17844 26.5267 5.18806 26.535L5.32592 26.6578C5.51399 26.82 5.71035 26.9707 5.91072 27.1117C6.31386 27.3915 6.73731 27.6266 7.16476 27.8261C7.55615 28.0099 7.95127 28.1627 8.34052 28.3083C8.34266 28.314 8.34479 28.3193 8.34693 28.3249L8.37792 28.3978C8.38914 28.4216 8.40223 28.4443 8.41479 28.4678C8.4399 28.5141 8.46582 28.5597 8.49253 28.6052L8.51257 28.6388L8.53501 28.6703L8.5807 28.7334C8.61169 28.7745 8.64241 28.8167 8.67473 28.8563C8.94243 29.1681 9.28092 29.3826 9.62555 29.5092C9.97152 29.6367 10.3266 29.6781 10.6635 29.662C10.7054 29.6599 10.7479 29.6588 10.7898 29.6554L10.9132 29.6393L11.0361 29.6222C11.0767 29.6161 11.1163 29.6057 11.1561 29.5968L11.275 29.5696C11.295 29.5643 11.314 29.561 11.3348 29.5546L11.3979 29.5354L11.5226 29.4956L11.5846 29.475C11.6052 29.4681 11.6274 29.4606 11.6399 29.4544L11.8176 29.3778L11.8397 29.3682C11.8523 29.3631 11.8192 29.3754 11.8694 29.3564L11.8742 29.3543L11.8841 29.3497L11.9231 29.3316L12.0011 29.295C12.0529 29.269 12.1061 29.2471 12.159 29.225C12.2122 29.2028 12.2651 29.179 12.3196 29.1603C12.5352 29.0767 12.7572 29.0104 12.9826 28.9615C13.4331 28.864 13.9019 28.8269 14.3521 28.8937C14.5765 28.9271 14.7956 28.9861 14.9976 29.0754C15.1993 29.1651 15.3852 29.2843 15.5329 29.4395C15.5511 29.4593 15.5706 29.4782 15.5885 29.4985L15.6379 29.5618L15.663 29.5936L15.6847 29.6276L15.7282 29.696C15.7785 29.7913 15.826 29.8913 15.8525 30C15.8591 30.0272 15.8685 30.0539 15.8736 30.0817L15.8875 30.1659L15.8947 30.2081C15.8963 30.2223 15.8965 30.237 15.8979 30.2511L15.9043 30.3379C15.9078 30.3959 15.9037 30.4507 15.9046 30.5084C15.8992 30.5706 15.8904 30.6364 15.8837 30.7002V30.7018C15.8749 30.7828 15.9334 30.8549 16.0141 30.8634C16.0857 30.8709 16.1506 30.8258 16.1704 30.759C16.1888 30.6967 16.2086 30.6369 16.2262 30.5722C16.2401 30.5022 16.258 30.4298 16.2668 30.359L16.2786 30.253C16.2804 30.2354 16.2826 30.2174 16.2836 30.1996L16.2844 30.1456L16.285 30.0371C16.2847 30.0005 16.2794 29.9645 16.2767 29.9281C16.2663 29.7814 16.2289 29.6364 16.1819 29.494L16.1391 29.3898L16.1169 29.3374L16.0908 29.2875L16.0371 29.1873C16.0178 29.155 15.9965 29.1245 15.9756 29.0927C15.9358 29.0278 15.8867 28.9714 15.8396 28.9121C15.8167 28.8814 15.7894 28.8566 15.7638 28.8288C15.7376 28.8018 15.7125 28.7735 15.6852 28.7478C15.5749 28.6474 15.4584 28.5525 15.3339 28.474C15.0862 28.3126 14.8172 28.1924 14.5415 28.105C13.9888 27.9322 13.4101 27.8814 12.8416 27.9202C12.5571 27.9391 12.2736 27.9795 11.9952 28.042C11.925 28.0556 11.8563 28.0743 11.7871 28.0919C11.7177 28.109 11.6482 28.1269 11.5803 28.1486L11.4778 28.1798L11.4265 28.1956L11.4136 28.1999L11.4072 28.2017C11.4534 28.1844 11.4168 28.1977 11.4257 28.1945L11.4024 28.2007L11.2157 28.2522C11.1983 28.2579 11.189 28.2579 11.1785 28.2589L11.147 28.2629L11.085 28.2717L11.0543 28.2766C11.0439 28.2782 11.0308 28.2784 11.019 28.2795L10.9477 28.2846C10.9242 28.2859 10.9004 28.2896 10.8769 28.2894L10.8075 28.2878L10.7385 28.2872C10.7161 28.2854 10.6939 28.2816 10.6717 28.2795C10.4946 28.2613 10.3332 28.2098 10.2047 28.1371C10.076 28.0647 9.98301 27.9701 9.93038 27.8777C9.88068 27.7823 9.8692 27.6936 9.87828 27.5974C9.88897 27.5015 9.92423 27.3896 9.99716 27.2651C10.0701 27.1411 10.1754 27.0097 10.306 26.882C10.5761 26.629 10.9306 26.3931 11.3239 26.1967L11.3963 26.1588L11.4729 26.1238L11.626 26.0543C11.7254 26.0054 11.8355 25.9675 11.9399 25.9237L12.3003 25.7757L12.4793 25.7022L12.5015 25.6934L12.5269 25.6814L12.5784 25.6579L12.5787 25.6576L12.6813 25.6098C12.8066 25.5513 12.9335 25.4928 13.0513 25.4303C13.8464 25.0696 15.5108 24.4065 17.002 24.4065C18.4933 24.4065 20.1577 25.0696 20.953 25.4303C21.0703 25.4928 21.1975 25.5513 21.3228 25.6098L21.4259 25.6579L21.4772 25.6814L21.5028 25.6931L21.525 25.7022L21.704 25.7757L22.0644 25.9237C22.1691 25.9675 22.2792 26.006 22.3786 26.0543L22.5314 26.1238L22.6078 26.1588L22.6802 26.1967C23.0735 26.3931 23.428 26.629 23.6983 26.882C23.829 27.0097 23.9342 27.1411 24.0072 27.2651C24.0801 27.3896 24.1151 27.5015 24.1258 27.5974C24.1351 27.6933 24.1234 27.782 24.074 27.8777C24.0213 27.9701 23.9284 28.0644 23.7996 28.1371C23.6714 28.2098 23.5097 28.2613 23.3326 28.2795C23.3104 28.2819 23.2882 28.2854 23.2658 28.2872L23.1969 28.2878L23.1272 28.2894C23.1042 28.2896 23.0801 28.2859 23.0566 28.2846L22.985 28.2795C22.9733 28.2784 22.9602 28.2782 22.95 28.2766L22.9193 28.2717L22.8576 28.2629L22.8261 28.2589C22.8156 28.2579 22.8066 28.2576 22.7889 28.2522L22.6022 28.2007L22.5789 28.1945C22.5878 28.198 22.5509 28.1844 22.5971 28.2017L22.5907 28.1999L22.5779 28.1956L22.5266 28.1798L22.424 28.1486C22.3559 28.1269 22.2867 28.1093 22.2175 28.0919C22.148 28.0746 22.0794 28.0556 22.0091 28.042C21.7307 27.9795 21.4473 27.9391 21.1627 27.9202C20.594 27.8814 20.0153 27.9325 19.4628 28.105C19.1871 28.1924 18.9181 28.3124 18.6704 28.474C18.5457 28.5525 18.4292 28.6474 18.3191 28.7478C18.2919 28.7735 18.2668 28.8018 18.2406 28.8288C18.2152 28.8566 18.1879 28.8814 18.165 28.9121C18.118 28.9714 18.0688 29.0278 18.0287 29.0927C18.0079 29.1245 17.9868 29.155 17.9675 29.1873L17.9138 29.2875L17.8877 29.3374L17.8658 29.3898L17.8227 29.494C17.7757 29.6364 17.7386 29.7814 17.7282 29.9281C17.7252 29.9645 17.7202 30.0005 17.7202 30.0371L17.7207 30.1456L17.7215 30.1996C17.7223 30.2174 17.7247 30.2354 17.7266 30.253L17.7383 30.359C17.7471 30.4298 17.7656 30.5022 17.7789 30.5722C17.7966 30.6369 17.8166 30.6967 17.8348 30.759C17.8548 30.8258 17.9195 30.8709 17.9913 30.8634C18.072 30.8549 18.1305 30.7822 18.1217 30.7018L18.1214 30.7002C18.1147 30.6366 18.1057 30.5709 18.1009 30.5084C18.1014 30.4507 18.0974 30.3959 18.1011 30.3379L18.1073 30.2511C18.1086 30.237 18.1089 30.2223 18.1105 30.2081L18.1177 30.1659L18.1313 30.0817C18.1369 30.0539 18.146 30.0272 18.1524 30C18.1789 29.8915 18.2264 29.7913 18.2769 29.696L18.3207 29.6276L18.3418 29.5936L18.3672 29.5618L18.4169 29.4985C18.4345 29.4785 18.454 29.4595 18.4722 29.4395C18.6202 29.2843 18.8061 29.1651 19.0076 29.0754C19.2098 28.9861 19.4286 28.9271 19.6533 28.8937C20.1035 28.8266 20.5723 28.864 21.0228 28.9615C21.2482 29.0107 21.4702 29.0767 21.6853 29.1603C21.7398 29.179 21.7927 29.2028 21.8461 29.225C21.8996 29.2471 21.9522 29.269 22.004 29.295L22.0823 29.3316L22.1213 29.3497L22.1309 29.3543L22.136 29.3564C22.1862 29.3754 22.1531 29.3631 22.1657 29.3679L22.1878 29.3778L22.3655 29.4544C22.3778 29.4606 22.4 29.4681 22.4208 29.475L22.4825 29.4953L22.6073 29.5354L22.67 29.5546C22.6909 29.5608 22.7099 29.5643 22.7299 29.5696L22.849 29.5968C22.8886 29.6054 22.9281 29.6155 22.9687 29.6222L23.0916 29.6393L23.2153 29.6554C23.257 29.6591 23.2995 29.6602 23.3419 29.662C23.6786 29.6781 24.0336 29.6364 24.3796 29.5092C24.7245 29.3823 25.063 29.1681 25.3307 28.8563C25.363 28.8167 25.3937 28.7745 25.425 28.7334L25.4707 28.6703L25.4934 28.6388L25.5131 28.6052C25.5396 28.5597 25.5655 28.5141 25.5906 28.4678C25.6032 28.4443 25.6165 28.4216 25.6275 28.3978L25.6582 28.3249C25.6606 28.3193 25.6625 28.314 25.6646 28.3083C26.0541 28.1627 26.4493 28.0099 26.8406 27.8261C27.2678 27.6263 27.6913 27.3915 28.0944 27.1117C28.2945 26.9707 28.4909 26.82 28.679 26.6578L28.8168 26.535C28.8264 26.5267 28.8398 26.5138 28.8526 26.501L28.8908 26.4631L28.9669 26.3872C29.0605 26.2886 29.1521 26.1866 29.2386 26.073C29.3265 25.9627 29.407 25.8377 29.4823 25.707C29.556 25.574 29.622 25.4303 29.6763 25.2758C29.7799 24.9667 29.8299 24.6029 29.774 24.2419ZM10.0939 24.5401C10.0632 24.5612 10.0324 24.5804 10.002 24.6029L9.91114 24.6713L9.73054 24.8083C9.70035 24.8305 9.6707 24.8551 9.64131 24.8807L9.55288 24.9561C9.49437 25.0068 9.4356 25.0557 9.37789 25.1089L9.20825 25.2758C9.1802 25.3042 9.15214 25.3314 9.12463 25.3603L9.04341 25.4527C8.98998 25.5147 8.93601 25.5745 8.88419 25.6394C8.67874 25.9013 8.49093 26.1994 8.35441 26.5459C8.28602 26.7188 8.23339 26.9063 8.20187 27.1027L8.1829 27.2523C8.18236 27.2589 8.18156 27.2662 8.18076 27.2726C8.00577 27.1641 7.83452 27.0538 7.66862 26.9389C7.31357 26.6974 6.9855 26.4348 6.68895 26.1505C6.54175 26.0079 6.40096 25.8604 6.27032 25.7062L6.17307 25.5881C6.16265 25.5764 6.15731 25.5681 6.15143 25.5601L6.1338 25.5347L6.098 25.4848C6.04777 25.4105 5.99969 25.3368 5.96148 25.263C5.92007 25.1901 5.89095 25.1179 5.8637 25.0488C5.83966 24.9798 5.8231 24.9141 5.81321 24.8535C5.79825 24.7316 5.80867 24.6357 5.8426 24.5548C5.87599 24.4741 5.92702 24.3988 6.00743 24.3191C6.08758 24.2401 6.19444 24.1605 6.32375 24.0915C6.58156 23.9523 6.91176 23.857 7.25399 23.8129C7.59756 23.7677 7.95662 23.7766 8.30392 23.8289C8.65203 23.8802 8.98945 23.9801 9.29881 24.1215C9.37656 24.1562 9.4519 24.1944 9.52563 24.235L9.63463 24.2975L9.72814 24.3459L9.79493 24.3779L9.85958 24.4073C9.94721 24.446 10.0386 24.4816 10.1329 24.5139L10.0939 24.5401ZM14.9706 18.7505C14.6708 18.7505 14.428 18.5077 14.428 18.2079C14.428 17.9084 14.6708 17.6653 14.9706 17.6653C15.2703 17.6653 15.5132 17.9084 15.5132 18.2079C15.5132 18.5077 15.2703 18.7505 14.9706 18.7505ZM19.034 18.7505C18.7343 18.7505 18.4914 18.5077 18.4914 18.2079C18.4914 17.9084 18.7343 17.6653 19.034 17.6653C19.3338 17.6653 19.5766 17.9084 19.5766 18.2079C19.5769 18.5077 19.3341 18.7505 19.034 18.7505ZM28.1909 24.8532C28.181 24.9141 28.1644 24.9798 28.1406 25.0485C28.1134 25.1177 28.084 25.1895 28.0429 25.2627C28.0044 25.3365 27.9563 25.4102 27.9063 25.4845L27.8705 25.5344L27.8529 25.5598C27.8473 25.5678 27.8417 25.5764 27.8315 25.5879L27.7343 25.706C27.6036 25.8601 27.4626 26.0076 27.3156 26.1502C27.0194 26.4345 26.691 26.6971 26.3362 26.9386C26.1703 27.0535 25.9991 27.1638 25.8244 27.2726C25.8236 27.2659 25.8228 27.2587 25.822 27.252L25.803 27.1024C25.7717 26.906 25.7188 26.7185 25.6505 26.5456C25.5139 26.1991 25.3264 25.9013 25.1209 25.6392C25.0694 25.5743 25.0152 25.5144 24.9617 25.4524L24.8808 25.36C24.853 25.3311 24.8249 25.3039 24.7972 25.2756L24.627 25.1086C24.5695 25.0554 24.5105 25.0065 24.4523 24.9558L24.3638 24.8804C24.3347 24.8548 24.3048 24.8302 24.2746 24.808L24.094 24.671L24.0032 24.6026C23.973 24.5802 23.942 24.5609 23.9113 24.5398L23.872 24.5134C23.9666 24.481 24.0577 24.4452 24.1453 24.4068L24.2099 24.3774L24.2767 24.3453L24.3702 24.297L24.4792 24.2345C24.553 24.1941 24.6286 24.1556 24.7061 24.1209C25.0154 23.9799 25.3531 23.8799 25.7009 23.8284C26.0485 23.7763 26.4076 23.7672 26.7509 23.8124C27.0931 23.8564 27.4236 23.9515 27.6811 24.091C27.8102 24.1599 27.9176 24.2395 27.9972 24.3186C28.0778 24.3982 28.1289 24.4736 28.162 24.5542C28.1954 24.6352 28.2061 24.7314 28.1909 24.8532Z" fill="white"/>
</g>
<defs>
<clipPath id="clip0_202_12729">
<rect width="34" height="37" fill="white"/>
</clipPath>
</defs>
</svg>
