<svg width="36" height="37" viewBox="0 0 36 37" fill="none" xmlns="http://www.w3.org/2000/svg">
<g clip-path="url(#clip0_202_12669)">
<path d="M14.6754 10.8047C17.8685 10.8047 18.6261 9.96791 19.4334 9.07614C19.4927 9.01065 19.5522 8.94486 19.6131 8.87908C19.6827 8.87908 24.9692 1.37678 24.9692 1.37678C24.9692 1.37678 25.3132 1.51515 25.722 1.72271C25.722 1.72271 22.6327 6.12511 18.6546 11.6321C18.0372 12.4585 16.8682 13.8345 14.6043 13.8345H0.536598C0.74047 12.9701 1.0176 12.1821 1.25891 11.4959C1.34459 11.2523 1.42575 11.0215 1.49751 10.8047H14.6754Z" fill="#F03B25"/>
<path d="M4.44846 6.1943H11.8619C12.9183 6.1943 13.614 5.37953 14.0956 4.8156C14.208 4.68396 14.3087 4.56598 14.3996 4.47523C14.3996 4.5425 17.6254 0.00219727 17.6254 0.00219727C13.1649 0.0694609 8.15421 1.85867 4.44846 6.19382V6.1943Z" fill="#F03B25"/>
<path d="M0.330957 14.5864H15.7036C15.721 14.5864 15.7482 14.5869 15.7842 14.5877C16.4527 14.6012 20.1815 14.6764 21.7429 12.458C23.4581 10.1148 28.3333 3.23566 28.3333 3.23566C28.5391 3.35953 28.62 3.43461 28.7131 3.52095C28.7735 3.57693 28.8389 3.63765 28.9468 3.71947C28.9468 3.71947 20.7839 15.1399 20.7839 15.2071C19.3411 17.129 17.0075 17.6142 15.1568 17.6142H0.0551758C0.0551758 16.7878 0.124842 15.6155 0.330957 14.5826V14.5864Z" fill="#F03B25"/>
<path d="M35.9485 18.0291C35.9481 22.5687 34.3723 26.7625 31.4197 29.861L24.8322 20.7136C24.2124 19.8873 23.1136 18.5103 21.3297 18.0303C23.0806 17.489 24.1715 16.1543 24.7973 15.3887L24.8322 15.346L31.4193 6.12511C34.3723 9.22367 35.9481 13.4174 35.9485 18.0291Z" fill="#F03B25"/>
<path d="M13.8519 7.02068H3.7614V7.02116C2.9379 8.04933 2.11537 9.42824 1.90973 9.98076H13.1649C14.6053 9.91013 15.7709 9.28987 16.8682 7.57128C16.9384 7.50113 22.0158 0.414424 22.0158 0.414424L21.126 0.275092L17.6908 5.02679C17.6908 5.02679 16.2513 7.08794 13.8519 7.02068Z" fill="#F03B25"/>
<path d="M15.7036 21.4055H0.330957V21.4108C0.124842 20.373 0.0551758 19.2103 0.0551758 18.3791H15.1568C17.0075 18.3791 19.3411 18.8596 20.7839 20.7862C20.7839 20.8535 28.9468 32.2739 28.9468 32.2739C28.8365 32.3564 28.7705 32.4174 28.709 32.4743C28.6176 32.5588 28.536 32.6342 28.3333 32.7577C28.3333 32.7577 23.4581 25.8737 21.7429 23.5387C20.162 21.3555 16.3596 21.3983 15.7607 21.405C15.7361 21.4053 15.717 21.4055 15.7036 21.4055Z" fill="#F03B25"/>
<path d="M1.49799 25.1819H14.6754C17.8635 25.1819 18.6237 26.0203 19.4297 26.9091C19.4902 26.9759 19.551 27.0429 19.6131 27.1099C19.6827 27.1099 24.9692 34.6137 24.9692 34.6137C24.9692 34.6137 25.3132 34.4792 25.722 34.2726C25.722 34.2726 22.6327 29.8668 18.6546 24.3656C18.0372 23.5392 16.8682 22.1603 14.6043 22.1603C14.6043 22.2324 0.536598 22.1603 0.536598 22.1603C0.742035 23.0372 1.02266 23.8314 1.26565 24.5191L1.26569 24.5192C1.34888 24.7547 1.42766 24.9776 1.49751 25.1872L1.49799 25.1819Z" fill="#F03B25"/>
<path d="M4.44846 29.8043H11.8619C12.9189 29.8043 13.6148 30.6201 14.0964 31.1845C14.2085 31.3159 14.3089 31.4337 14.3996 31.5244L17.6254 36.0022C13.1649 35.9301 8.15421 34.1428 4.44846 29.8091V29.8043Z" fill="#F03B25"/>
<path d="M13.8519 28.9707H3.76139C2.93789 27.9397 2.32099 26.8366 1.90972 26.0111H13.1648C14.6053 26.0813 15.7708 26.6982 16.8682 28.4201C16.9383 28.4898 22.0158 35.5751 22.0158 35.5751L21.126 35.7144L17.6907 30.9685C17.6907 30.9685 16.2513 28.9707 13.8519 28.9707Z" fill="#F03B25"/>
</g>
<defs>
<clipPath id="clip0_202_12669">
<rect width="36" height="37" fill="white"/>
</clipPath>
</defs>
</svg>
