<svg width="33" height="32" viewBox="0 0 33 32" fill="none" xmlns="http://www.w3.org/2000/svg">
<g clip-path="url(#clip0_202_12793)">
<path d="M15.8937 0.478445C15.6108 0.492695 15.3336 0.562835 15.0785 0.684749L3.95368 6.00028C3.66574 6.13779 3.41275 6.33787 3.21348 6.58567C3.01421 6.83346 2.87378 7.1226 2.80264 7.43161L0.0580857 19.3716C-0.00529015 19.6467 -0.0123828 19.9317 0.0372276 20.2095C0.086838 20.4874 0.192143 20.7526 0.346912 20.9893C0.384439 21.0472 0.4248 21.1033 0.467848 21.1572L8.16797 30.7312C8.36729 30.9789 8.62031 31.1789 8.90825 31.3164C9.1962 31.4538 9.51166 31.5252 9.83121 31.5251L22.1796 31.5222C22.499 31.5225 22.8144 31.4514 23.1023 31.3142C23.3903 31.177 23.6434 30.9772 23.8428 30.7298L31.5401 21.1544C31.7395 20.9065 31.88 20.6173 31.9512 20.3082C32.0224 19.999 32.0224 19.6779 31.9513 19.3688L29.2025 7.42876C29.1313 7.11976 28.9909 6.83062 28.7916 6.58282C28.5924 6.33503 28.3394 6.13495 28.0514 5.99744L16.9252 0.684749C16.6042 0.531391 16.2495 0.460453 15.8937 0.478445Z" fill="#326CE5"/>
<path d="M16.0039 4.54178C15.6362 4.54182 15.338 4.87304 15.338 5.28163C15.338 5.2879 15.3393 5.29389 15.3395 5.30012C15.3389 5.35564 15.3362 5.42252 15.338 5.47086C15.3468 5.70652 15.3982 5.88688 15.4291 6.104C15.4851 6.5687 15.5321 6.95391 15.5031 7.31195C15.4749 7.44696 15.3755 7.57043 15.2868 7.65626L15.2712 7.93797C14.8716 7.97108 14.4693 8.0317 14.0675 8.12293C12.3385 8.5155 10.8499 9.40609 9.71661 10.6085C9.64307 10.5584 9.51441 10.4661 9.47616 10.4378C9.35727 10.4539 9.23712 10.4905 9.08062 10.3994C8.78264 10.1988 8.51124 9.92193 8.18284 9.58841C8.03237 9.42886 7.9234 9.27694 7.74462 9.12315C7.70402 9.08823 7.64207 9.04099 7.59665 9.00506C7.45688 8.89363 7.29203 8.83551 7.13282 8.83006C6.92813 8.82305 6.73108 8.90308 6.60213 9.06482C6.37288 9.35235 6.44627 9.79183 6.76575 10.0465C6.76899 10.0491 6.77244 10.0511 6.77571 10.0537C6.81961 10.0892 6.87336 10.1348 6.91372 10.1646C7.10343 10.3047 7.27673 10.3764 7.46576 10.4876C7.864 10.7335 8.19415 10.9375 8.45602 11.1834C8.55828 11.2924 8.57615 11.4844 8.58976 11.5675L8.80318 11.7582C7.66069 13.4775 7.13194 15.6013 7.44442 17.7652L7.16555 17.8463C7.09205 17.9412 6.9882 18.0905 6.87957 18.1351C6.53696 18.243 6.15136 18.2826 5.68585 18.3314C5.4673 18.3496 5.27872 18.3388 5.04702 18.3827C4.99602 18.3923 4.92497 18.4108 4.86917 18.4239C4.86723 18.4243 4.86542 18.4249 4.86348 18.4253C4.86044 18.426 4.85644 18.4275 4.85352 18.4282C4.46105 18.523 4.20893 18.8837 4.2901 19.2392C4.37128 19.5947 4.75464 19.8109 5.14946 19.7258C5.15231 19.7251 5.15645 19.725 5.15942 19.7243C5.16388 19.7233 5.1678 19.7212 5.17222 19.7201C5.22726 19.708 5.29623 19.6946 5.34438 19.6817C5.57218 19.6207 5.73716 19.5311 5.94195 19.4526C6.38253 19.2946 6.74744 19.1626 7.10295 19.1111C7.25143 19.0995 7.40786 19.2027 7.48568 19.2463L7.77592 19.1965C8.44385 21.2673 9.8436 22.941 11.616 23.9913L11.4951 24.2815C11.5387 24.3942 11.5868 24.5467 11.5543 24.658C11.425 24.9932 11.2037 25.3469 10.9516 25.7413C10.8295 25.9235 10.7046 26.0649 10.5945 26.2734C10.5681 26.3233 10.5345 26.4 10.5091 26.4527C10.338 26.8189 10.4635 27.2406 10.7922 27.3989C11.123 27.5581 11.5337 27.3902 11.7114 27.0232C11.7116 27.0227 11.7125 27.0223 11.7128 27.0218C11.713 27.0214 11.7126 27.0208 11.7128 27.0204C11.7381 26.9684 11.7739 26.9 11.7953 26.8511C11.8896 26.635 11.921 26.4497 11.9874 26.2407C12.1636 25.7982 12.2604 25.3338 12.5029 25.0445C12.5693 24.9652 12.6776 24.9348 12.7898 24.9047L12.9406 24.6315C14.4858 25.2246 16.2154 25.3838 17.9432 24.9915C18.3373 24.902 18.7178 24.7862 19.0857 24.6472C19.128 24.7224 19.2068 24.8669 19.2279 24.9033C19.342 24.9404 19.4665 24.9596 19.568 25.1096C19.7494 25.4196 19.8735 25.7864 20.0247 26.2293C20.0911 26.4384 20.1238 26.6236 20.2182 26.8397C20.2397 26.889 20.2754 26.9583 20.3007 27.0104C20.478 27.3785 20.89 27.5471 21.2213 27.3875C21.55 27.2291 21.6756 26.8074 21.5044 26.4413C21.479 26.3886 21.444 26.312 21.4176 26.2621C21.3075 26.0535 21.1826 25.9136 21.0605 25.7314C20.8084 25.337 20.5993 25.0094 20.47 24.6742C20.416 24.5014 20.4792 24.3939 20.5213 24.2815C20.496 24.2526 20.4421 24.0894 20.4103 24.0126C22.2523 22.925 23.6109 21.1889 24.249 19.1837C24.3351 19.1972 24.4849 19.2237 24.5335 19.2335C24.6337 19.1674 24.7257 19.0813 24.9063 19.0955C25.2618 19.1469 25.6267 19.2789 26.0673 19.4369C26.2721 19.5154 26.437 19.6065 26.6649 19.6674C26.713 19.6803 26.782 19.6924 26.837 19.7044C26.8414 19.7055 26.8454 19.7077 26.8498 19.7087C26.8528 19.7094 26.8569 19.7095 26.8598 19.7101C27.2546 19.7951 27.638 19.5791 27.7191 19.2235C27.8002 18.8681 27.5482 18.5073 27.1557 18.4125C27.0986 18.3996 27.0177 18.3775 26.9622 18.367C26.7305 18.3231 26.5419 18.3339 26.3234 18.3158C25.8579 18.267 25.4723 18.2273 25.1297 18.1194C24.99 18.0652 24.8906 17.899 24.8423 17.8306L24.5733 17.7524C24.7128 16.7437 24.6752 15.6939 24.4339 14.6436C24.1904 13.5834 23.7601 12.6138 23.1861 11.7596C23.2551 11.6969 23.3854 11.5815 23.4223 11.5476C23.4331 11.4281 23.4238 11.3028 23.5475 11.1705C23.8094 10.9247 24.1395 10.7208 24.5378 10.4748C24.7268 10.3636 24.9015 10.2919 25.0912 10.1518C25.1341 10.1202 25.1927 10.07 25.2378 10.0337C25.5572 9.77894 25.6307 9.33949 25.4014 9.05202C25.1721 8.76454 24.7277 8.73746 24.4083 8.99226C24.3628 9.02827 24.3012 9.07524 24.2603 9.11035C24.0816 9.26415 23.9712 9.41605 23.8207 9.5756C23.4923 9.90915 23.2209 10.1874 22.9229 10.388C22.7938 10.4632 22.6047 10.4372 22.5188 10.4321L22.2656 10.6128C20.8215 9.09849 18.8552 8.13031 16.7381 7.94224C16.7321 7.85352 16.7244 7.69314 16.7224 7.64488C16.6357 7.56194 16.531 7.49113 16.5047 7.31195C16.4758 6.95391 16.5241 6.5687 16.5801 6.104C16.6111 5.88688 16.6624 5.70652 16.6712 5.47086C16.6732 5.41729 16.67 5.33955 16.6698 5.28163C16.6697 4.87304 16.3716 4.54174 16.0039 4.54178ZM15.1702 9.7065L14.9724 13.1994L14.9582 13.2066C14.9449 13.519 14.6877 13.7686 14.372 13.7686C14.2426 13.7686 14.1232 13.727 14.0262 13.6562L14.0205 13.659L11.1565 11.6287C12.0367 10.7631 13.1626 10.1235 14.4602 9.82886C14.6972 9.77504 14.9341 9.73511 15.1702 9.7065ZM16.8391 9.7065C18.354 9.89282 19.755 10.5788 20.8286 11.6301L17.983 13.6476L17.973 13.6434C17.7205 13.8278 17.3646 13.7821 17.1677 13.5352C17.0871 13.4341 17.0448 13.3152 17.0397 13.1952L17.0369 13.1938L16.8391 9.7065ZM10.1178 12.9334L12.7329 15.2724L12.7301 15.2867C12.9661 15.4919 13.0009 15.848 12.8041 16.0948C12.7234 16.1959 12.6155 16.2638 12.4996 16.2954L12.4967 16.3068L9.14465 17.2743C8.97404 15.7142 9.34172 14.1977 10.1178 12.9334ZM21.8715 12.9348C22.26 13.5646 22.5543 14.268 22.7294 15.0306C22.9025 15.784 22.9459 16.5361 22.8745 17.2629L19.5054 16.2926L19.5025 16.2783C19.2008 16.1959 19.0154 15.889 19.0857 15.5812C19.1144 15.4551 19.1814 15.3484 19.272 15.2696L19.2706 15.2625L21.8715 12.9348ZM15.4675 15.4531H16.5389L17.2047 16.2855L16.9657 17.3241L16.0039 17.7865L15.0393 17.3227L14.8002 16.284L15.4675 15.4531ZM18.9021 18.3016C18.9477 18.2993 18.993 18.3034 19.0373 18.3115L19.043 18.3044L22.5103 18.8906C22.0029 20.3162 21.0319 21.5513 19.7345 22.3778L18.3885 19.1268L18.3928 19.1211C18.2691 18.8338 18.3929 18.4969 18.6773 18.3599C18.7502 18.3248 18.8262 18.3054 18.9021 18.3016ZM13.0787 18.3158C13.3433 18.3195 13.5806 18.5031 13.6421 18.7725C13.6709 18.8986 13.6569 19.0235 13.6094 19.1339L13.6193 19.1467L12.2876 22.365C11.0425 21.5661 10.0508 20.3698 9.52026 18.902L12.9577 18.3186L12.9634 18.3257C13.0019 18.3187 13.0409 18.3153 13.0787 18.3158ZM15.9826 19.7258C16.0747 19.7224 16.1683 19.7413 16.2572 19.7841C16.3737 19.8402 16.4637 19.9286 16.5204 20.0345H16.5332L18.2277 23.0963C18.0078 23.1701 17.7817 23.2331 17.5505 23.2856C16.2545 23.5798 14.9627 23.4907 13.7929 23.0921L15.4832 20.0359H15.486C15.5874 19.8463 15.7798 19.7332 15.9826 19.7258Z" fill="white"/>
</g>
<defs>
<clipPath id="clip0_202_12793">
<rect width="33" height="32" fill="white"/>
</clipPath>
</defs>
</svg>
