<svg width="30" height="33" viewBox="0 0 30 33" fill="none" xmlns="http://www.w3.org/2000/svg">
<path d="M10.7055 26.0011V28.8333C10.7055 29.4332 10.0502 29.8032 9.52847 29.4882L8.21129 28.6423L7.89619 28.4645C7.8737 28.4518 6.05242 27.3986 2.095 25.11L1.78068 24.9297C1.47078 24.7507 1.21654 24.4948 1.04085 24.1858C0.867097 23.8792 0.776674 23.5312 0.780074 23.1855L0.778564 16.1323V9.06785C0.778564 8.69283 0.884457 8.32665 1.0816 8.0119C1.27661 7.69611 1.55899 7.43662 1.85249 7.29473L7.57449 3.98724L7.88693 3.80432C7.99086 3.74475 7.99086 3.74475 8.2022 3.62435L13.6828 0.459645L14.0025 0.270198C14.3362 0.0779851 14.7135 -0.0134432 15.0961 0.0043834C15.4675 0.0224163 15.8337 0.144187 16.0904 0.326939L21.7934 3.62317L22.1094 3.8015C22.1322 3.81474 24.0343 4.91468 27.9066 7.15399L28.2228 7.33487C28.5326 7.51419 28.7862 7.76984 28.9618 8.07878C29.1351 8.38457 29.2255 8.73247 29.2226 9.07921L29.2238 15.5018C29.2239 16.0954 28.5812 16.4662 28.0673 16.1692L25.6067 14.7466C25.3684 14.6089 25.2217 14.3545 25.2217 14.0793V10.2203L20.2118 7.32279C20.1685 7.30133 20.0709 7.24564 19.8 7.08862L15.001 4.31054L10.008 7.19476C9.96011 7.22627 9.96011 7.22626 9.93146 7.24447C9.91991 7.25158 9.80211 7.32015 9.57804 7.45018L4.78098 10.2206V22.0441L9.79328 24.9426C9.82534 24.9587 9.89428 24.9981 10.2139 25.1826L10.3171 25.2743L10.4027 25.3887C10.5924 25.5337 10.7055 25.7596 10.7055 26.0011ZM25.2217 18.7219C25.2217 18.1289 25.8633 17.758 26.3772 18.054L28.8378 19.4714C29.0766 19.609 29.2238 19.8637 29.2238 20.1393V22.486C29.2238 22.6871 29.1452 22.8802 29.0045 23.0245L27.8445 24.2073C27.4094 24.7634 26.7708 24.9846 26.2009 24.6563L17.0576 19.3553L17.0553 29.3575C17.0874 29.7328 16.9324 30.1 16.6378 30.3374C16.3495 30.5705 16.3495 30.5705 14.9516 31.6998C14.7421 31.8939 14.4678 32.0022 14.1808 32.0022C13.5552 32.0022 13.0481 31.4947 13.0481 30.869L13.0496 17.0376L11.5088 16.1469L10.7298 16.5949C10.6927 16.6209 10.7059 16.6133 9.91959 17.0672C9.36543 17.3914 8.66766 17.2199 8.34889 16.67C8.27313 16.5391 8.27313 16.5391 7.9148 15.9199L7.48456 15.1779C7.16225 14.6217 7.33433 13.9252 7.88449 13.6071C8.01902 13.5298 8.01902 13.5298 8.64111 13.1726L10.5173 12.0925L10.8555 11.9016C11.216 11.6451 11.6937 11.6217 12.0808 11.8451L12.508 12.0941L25.2217 19.4419V18.7219Z" fill="black"/>
</svg>
