<svg width="36" height="36" viewBox="0 0 36 36" fill="none" xmlns="http://www.w3.org/2000/svg">
<g clip-path="url(#clip0_202_14120)">
<path d="M35.4707 8.14506C35.4837 8.19305 35.4904 8.24254 35.4904 8.29225V16.0196C35.4904 16.2214 35.3825 16.4079 35.2073 16.5083L28.7217 20.2424V27.6436C28.7217 27.845 28.6146 28.031 28.44 28.1324L14.9017 35.9259C14.8707 35.9435 14.8369 35.9548 14.8031 35.9667C14.7904 35.971 14.7784 35.9787 14.765 35.9822C14.6704 36.0071 14.5709 36.0071 14.4763 35.9822C14.4608 35.978 14.4467 35.9696 14.4319 35.9639C14.4009 35.9526 14.3685 35.9428 14.339 35.9259L0.803504 28.1324C0.628489 28.0318 0.520386 27.8455 0.520386 27.6436V4.4617C0.520386 4.41099 0.527428 4.36169 0.540105 4.3138C0.544331 4.29761 0.554191 4.28282 0.559825 4.26662C0.570389 4.23704 0.580249 4.20675 0.595743 4.17929C0.606307 4.16098 0.621801 4.14619 0.634478 4.12928C0.650677 4.10675 0.665466 4.08351 0.684482 4.06379C0.70068 4.04759 0.721808 4.03561 0.740119 4.02153C0.760543 4.00463 0.778855 3.98632 0.802096 3.97293H0.8028L7.57088 0.0761822C7.74528 -0.0241734 7.9599 -0.0241734 8.1343 0.0761822L14.9024 3.97293H14.9038C14.9263 3.98702 14.9453 4.00463 14.9658 4.02083C14.9841 4.03491 15.0045 4.04759 15.0207 4.06308C15.0404 4.08351 15.0545 4.10675 15.0714 4.12928C15.0834 4.14619 15.0996 4.16098 15.1094 4.17929C15.1256 4.20746 15.1348 4.23704 15.1461 4.26662C15.1517 4.28282 15.1616 4.29761 15.1658 4.31451C15.1787 4.3625 15.1854 4.41199 15.1855 4.4617V18.9409L20.8253 15.6935V8.29155C20.8253 8.24225 20.8324 8.19225 20.8451 8.14506C20.85 8.12816 20.8591 8.11337 20.8648 8.09717C20.876 8.06759 20.8859 8.0373 20.9014 8.00984C20.912 7.99153 20.9275 7.97674 20.9394 7.95983C20.9563 7.9373 20.9704 7.91406 20.9901 7.89434C21.0063 7.87814 21.0268 7.86617 21.0451 7.85208C21.0662 7.83518 21.0845 7.81687 21.107 7.80349H21.1077L27.8765 3.90673C28.0509 3.80623 28.2656 3.80623 28.44 3.90673L35.208 7.80349C35.232 7.81757 35.2503 7.83518 35.2714 7.85138C35.289 7.86546 35.3095 7.87814 35.3256 7.89363C35.3454 7.91406 35.3595 7.9373 35.3764 7.95983C35.389 7.97674 35.4045 7.99153 35.4144 8.00984C35.4306 8.0373 35.4397 8.06759 35.451 8.09717C35.4573 8.11337 35.4665 8.12816 35.4707 8.14506ZM34.3622 15.6935V9.26767L31.9937 10.6311L28.7217 12.5151V18.9409L34.3629 15.6935H34.3622ZM27.5941 27.3175V20.8875L24.3756 22.7257L15.1848 27.9711V34.4617L27.5941 27.3175ZM1.64863 5.43712V27.3175L14.0565 34.461V27.9718L7.5744 24.3032L7.57229 24.3018L7.56947 24.3004C7.54764 24.2877 7.52933 24.2694 7.5089 24.2539C7.4913 24.2399 7.47087 24.2286 7.45538 24.2131L7.45397 24.211C7.43566 24.1934 7.42298 24.1715 7.40749 24.1518C7.3934 24.1328 7.3765 24.1166 7.36523 24.0969L7.36453 24.0948C7.35185 24.0736 7.3441 24.0483 7.33495 24.0243C7.32579 24.0032 7.31382 23.9835 7.30819 23.961V23.9603C7.30114 23.9335 7.29974 23.9053 7.29692 23.8779C7.2941 23.8567 7.28847 23.8356 7.28847 23.8145V23.8131V8.68453L4.01711 6.79989L1.64863 5.43783V5.43712ZM7.8533 1.2157L2.21417 4.4617L7.85189 7.7077L13.4903 4.461L7.85189 1.2157H7.8533ZM10.7859 21.4735L14.0573 19.5902V5.43712L11.6888 6.8006L8.41672 8.68453V22.8376L10.7859 21.4735ZM28.1582 5.04625L22.5198 8.29225L28.1582 11.5383L33.796 8.29155L28.1582 5.04625ZM27.5941 12.5151L24.3221 10.6311L21.9536 9.26767V15.6935L25.2249 17.5767L27.5941 18.9409V12.5151ZM14.62 26.9957L22.8903 22.2742L27.0244 19.9149L21.3902 16.671L14.9031 20.4058L8.9907 23.8095L14.62 26.9957Z" fill="#FF2D20"/>
</g>
<defs>
<clipPath id="clip0_202_14120">
<rect width="36" height="36.0009" fill="white"/>
</clipPath>
</defs>
</svg>
