<svg width="37" height="36" viewBox="0 0 37 36" fill="none" xmlns="http://www.w3.org/2000/svg">
<g clip-path="url(#clip0_202_10174)">
<mask id="mask0_202_10174" style="mask-type:alpha" maskUnits="userSpaceOnUse" x="0" y="0" width="37" height="37">
<path d="M36.0054 36.0009V0.000915527H0.00537109V35.9709L36.0054 36.0009Z" fill="white"/>
</mask>
<g mask="url(#mask0_202_10174)">
<path d="M36.0054 36.0009V0.000915527H0.00537109V35.9709L36.0054 36.0009Z" fill="url(#paint0_linear_202_10174)"/>
<path d="M14.4335 0.000793457L14.4329 0.00150002L16.4693 2.03794L18.2938 0.213589L18.4211 0.340869L16.5967 2.16512L18.6331 4.20171L20.4576 2.37734L20.5849 2.50462L18.7604 4.32889L20.7969 6.36533L22.6213 4.54109L22.7486 4.66837L20.9242 6.49265L22.9606 8.5291L24.7851 6.70484L24.9124 6.83212L23.088 8.65642L25.1244 10.6929L26.9488 8.8686L27.0761 8.99587L25.2517 10.8202L27.2882 12.8566L29.1126 11.0323L29.2399 11.1596L27.4155 12.984L30.0459 15.6144L29.9187 15.7417L27.2882 13.1113L25.2517 15.1477L27.8822 17.7781L27.7549 17.9054L25.1245 15.2749L23.088 17.3115L25.7184 19.9419L25.5912 20.0692L22.9608 17.4388L20.9243 19.4752L23.5547 22.1056L23.4274 22.2329L20.797 19.6024L18.7606 21.639L21.391 24.2694L21.2637 24.3967L18.6332 21.7662L16.5968 23.8026L19.2272 26.4331L19.0999 26.5604L16.4695 23.93L14.433 25.9664L17.0635 28.5969L16.9362 28.7242L14.3057 26.0937L12.2693 28.1302L14.8997 30.7606L14.7725 30.8879L12.1419 28.2575L10.1055 30.2939L12.736 32.9244L12.6087 33.0517L9.97818 30.4211L7.94174 32.4576L10.5722 35.0881L10.445 35.2154L7.81442 32.5849L5.77798 34.6213L7.1334 35.9768L6.87872 35.9766L5.65065 34.7486L4.42476 35.9745L4.17037 35.9744L5.52347 34.6213L3.48689 32.5849L1.62024 34.4517L1.49296 34.3245L3.35971 32.4576L1.32326 30.4211L0.00524902 31.7391V31.4846L1.19594 30.2939L0.00524902 29.1032V28.8485L1.32326 30.1666L3.35971 28.1302L1.32326 26.0937L0.00524902 27.4116V27.157L1.19594 25.9664L0.00524902 24.7756V24.521L1.32326 25.8391L3.35971 23.8026L1.32326 21.7662L0.00524902 23.0842V22.8295L1.19594 21.6389L0.00524902 20.4481V20.1936L1.32326 21.5117L3.35971 19.4752L1.32312 17.4387L0.00524902 18.7566V18.5021L1.19594 17.3115L0.00524902 16.1207V15.866L1.32326 17.1842L3.35971 15.1477L1.32326 13.1113L0.00524902 14.4294V14.1745L1.19594 12.984L0.00524902 11.7931V11.5385L1.32326 12.8566L3.35971 10.8202L1.32326 8.78374L0.00524902 10.1018V9.847L1.19594 8.65642L0.00524902 7.4656V7.21093L1.32326 8.5291L3.35971 6.49265L1.32326 4.45621L0.00524902 5.77427V5.51945L1.19594 4.32889L0.00524902 3.1382V2.88352L1.32326 4.20171L3.35971 2.16527L1.32312 0.128681L0.00524902 1.44659V1.19219L1.19594 0.00150002L1.1951 0.000793457H1.4509L1.45044 0.0013587L3.48703 2.03794L5.52347 0.00150002L5.52264 0.000793457H5.77845L5.77798 0.0013587L7.81456 2.03794L9.851 0.00150002L9.85019 0.000793457H10.106L10.1055 0.0013587L12.1419 2.0378L14.1784 0.0013587L14.1777 0.000793457H14.4335ZM5.65065 30.4211L3.61421 32.4576L5.65065 34.4941L7.68724 32.4577L5.65065 30.4211ZM7.81442 28.2573L5.77798 30.2938L7.81442 32.3304L9.851 30.2939L7.81442 28.2573ZM3.48703 28.2575L1.45044 30.2939L3.48689 32.3304L5.52347 30.2939L3.48703 28.2575ZM5.65079 26.0937L3.61421 28.1302L5.65065 30.1666L7.68724 28.1302L5.65079 26.0937ZM9.97818 26.0937L7.94174 28.1302L9.97818 30.1666L12.0146 28.1302L9.97818 26.0937ZM7.81442 23.93L5.77798 25.9664L7.81442 28.0028L9.85086 25.9664L7.81442 23.93ZM12.1419 23.93L10.1055 25.9664L12.1419 28.0028L14.1784 25.9664L12.1419 23.93ZM3.48703 23.93L1.45044 25.9664L3.48703 28.0028L5.52347 25.9664L3.48703 23.93ZM9.97818 21.7662L7.94174 23.8026L9.97818 25.8391L12.0146 23.8026L9.97818 21.7662ZM5.65065 21.7662L3.61421 23.8026L5.65065 25.8391L7.6871 23.8026L5.65065 21.7662ZM14.3057 21.7662L12.2693 23.8026L14.3057 25.8391L16.3422 23.8026L14.3057 21.7662ZM7.81442 19.6024L5.77798 21.6389L7.81442 23.6753L9.85086 21.6389L7.81442 19.6024ZM12.1419 19.6024L10.1055 21.6389L12.1419 23.6753L14.1784 21.6389L12.1419 19.6024ZM3.48689 19.6024L1.45044 21.6389L3.48689 23.6753L5.52333 21.6389L3.48689 19.6024ZM16.4695 19.6024L14.433 21.6389L16.4695 23.6753L18.5059 21.6389L16.4695 19.6024ZM18.6332 17.4387L16.5968 19.4752L18.6332 21.5117L20.6697 19.4751L18.6332 17.4387ZM9.97818 17.4387L7.94174 19.4751L9.97818 21.5116L12.0146 19.4751L9.97818 17.4387ZM5.65065 17.4387L3.61421 19.4751L5.65065 21.5116L7.6871 19.4751L5.65065 17.4387ZM14.3057 17.4387L12.2693 19.4751L14.3057 21.5116L16.3422 19.4751L14.3057 17.4387ZM16.4695 15.275L14.433 17.3115L16.4695 19.3479L18.5059 17.3113L16.4695 15.275ZM3.48689 15.2749L1.45044 17.3113L3.48703 19.3479L5.52347 17.3115L3.48689 15.2749ZM20.797 15.275L18.7606 17.3115L20.797 19.3479L22.8335 17.3115L20.797 15.275ZM12.1419 15.2749L10.1055 17.3113L12.1419 19.3478L14.1784 17.3113L12.1419 15.2749ZM7.81442 15.2749L5.77798 17.3113L7.81442 19.3478L9.85086 17.3113L7.81442 15.2749ZM22.9608 13.1111L20.9242 15.1477L22.9606 17.1842L24.9972 15.1476L22.9608 13.1111ZM14.3057 13.1113L12.2693 15.1477L14.3057 17.1842L16.3422 15.1477L14.3057 13.1113ZM18.6332 13.1113L16.5968 15.1477L18.6332 17.1842L20.6697 15.1477L18.6332 13.1113ZM5.65065 13.1111L3.61421 15.1476L5.65079 17.1842L7.68724 15.1477L5.65065 13.1111ZM9.97818 13.1111L7.94174 15.1476L9.97818 17.184L12.0146 15.1476L9.97818 13.1111ZM12.1419 10.9475L10.1055 12.984L12.1419 15.0204L14.1784 12.984L12.1419 10.9475ZM3.48703 10.9475L1.45059 12.984L3.48703 15.0204L5.52347 12.984L3.48703 10.9475ZM7.81442 10.9474L5.77798 12.9838L7.81456 15.0204L9.851 12.984L7.81442 10.9474ZM16.4695 10.9475L14.433 12.984L16.4695 15.0204L18.5059 12.984L16.4695 10.9475ZM20.797 10.9474L18.7606 12.984L20.7969 15.0204L22.8335 12.9838L20.797 10.9474ZM25.1244 10.9475L23.088 12.984L25.1244 15.0204L27.1608 12.984L25.1244 10.9475ZM18.6332 8.78374L16.5968 10.8202L18.6332 12.8566L20.6697 10.82L18.6332 8.78374ZM22.9606 8.78374L20.9242 10.8202L22.9606 12.8566L24.9971 10.8202L22.9606 8.78374ZM9.97818 8.78374L7.94174 10.8202L9.97818 12.8566L12.0146 10.8202L9.97818 8.78374ZM5.65079 8.78374L3.61435 10.8202L5.65079 12.8566L7.68724 10.8202L5.65079 8.78374ZM14.3057 8.78374L12.2693 10.8202L14.3057 12.8566L16.3422 10.8202L14.3057 8.78374ZM3.48703 6.61998L1.45059 8.65642L3.48703 10.6929L5.52347 8.65642L3.48703 6.61998ZM16.4695 6.61998L14.433 8.65642L16.4695 10.6929L18.5059 8.65642L16.4695 6.61998ZM12.1419 6.61998L10.1055 8.65642L12.1419 10.6929L14.1784 8.65642L12.1419 6.61998ZM7.81442 6.61998L5.77798 8.65642L7.81442 10.6929L9.85086 8.65642L7.81442 6.61998ZM20.7969 6.61998L18.7606 8.65642L20.7969 10.6929L22.8333 8.65642L20.7969 6.61998ZM18.6331 4.45621L16.5968 6.49265L18.6332 8.5291L20.6695 6.49265L18.6331 4.45621ZM14.3057 4.45621L12.2693 6.49265L14.3057 8.5291L16.3422 6.49265L14.3057 4.45621ZM9.97818 4.45621L7.94174 6.49265L9.97818 8.5291L12.0146 6.49265L9.97818 4.45621ZM5.65065 4.45621L3.61421 6.49265L5.65065 8.5291L7.6871 6.49265L5.65065 4.45621ZM3.48689 2.29245L1.45044 4.32889L3.48703 6.36547L5.52347 4.32903L3.48689 2.29245ZM16.4695 2.29245L14.433 4.32889L16.4695 6.36533L18.5059 4.32889L16.4695 2.29245ZM12.1419 2.29245L10.1055 4.32889L12.1419 6.36533L14.1784 4.32889L12.1419 2.29245ZM7.81442 2.29245L5.77798 4.32889L7.81442 6.36533L9.85086 4.32889L7.81442 2.29245ZM5.65065 0.128681L3.61421 2.16512L5.65079 4.20171L7.68724 2.16527L5.65065 0.128681ZM9.97818 0.128681L7.94174 2.16512L9.97818 4.20157L12.0146 2.16512L9.97818 0.128681ZM14.3057 0.128681L12.2693 2.16512L14.3057 4.20157L16.3422 2.16512L14.3057 0.128681Z" fill="#115EDE"/>
<path d="M36.0054 36.0009V0.000915527H3.00537L30.0054 36.0009H36.0054Z" fill="url(#paint1_linear_202_10174)"/>
<path fill-rule="evenodd" clip-rule="evenodd" d="M36.0054 0.00091614L36.0054 0.103574L34.461 1.64784L36.0054 3.19218V3.44686L34.3338 1.77525L32.2973 3.81168L34.3339 5.84826L36.0054 4.17672V4.43126L34.4612 5.97552L36.0054 7.51973V7.77426L34.3339 6.10279L32.2975 8.13923L34.3339 10.1757L36.0054 8.50412V8.75866L34.4612 10.3029L36.0054 11.8471V12.1018L34.3338 10.4302L32.2973 12.4668L34.3338 14.5032L36.0054 12.8314V13.0859L34.461 14.6305L36.0054 16.1748V16.4293L34.3338 14.7577L32.2973 16.7942L34.3339 18.8307L36.0054 17.1592V17.4137L34.4612 18.958L36.0054 20.5022V20.7568L34.3339 19.0853L32.2973 21.1217L34.3338 23.1581L36.0054 21.4866V21.7411L34.461 23.2854L36.0054 24.8298V25.0843L34.3338 23.4127L32.2972 25.4491L34.3338 27.4857L36.0054 25.8139V26.0687L34.461 27.613L36.0054 29.1573V29.4118L34.3338 27.7402L32.2973 29.7767L34.3338 31.8131L36.0054 30.1414V30.396L34.461 31.9404L36.0054 33.4847V33.7392L34.3338 32.0676L32.2973 34.1041L34.1941 36.0008H33.9394L32.1701 34.2315L30.4005 36.0008H30.146L32.0428 34.1042L30.0064 32.0678L28.32 33.7539L28.2111 33.6083L29.8789 31.9404L27.8425 29.9039L26.4654 31.2809L26.3563 31.1354L27.7152 29.7767L25.6788 27.7402L24.6108 28.8081L24.5017 28.6627L25.5515 27.613L23.515 25.5764L22.7561 26.3352L22.6471 26.1898L23.3877 25.4491L21.3513 23.4127L20.9015 23.8624L20.7924 23.717L21.224 23.2854L19.1876 21.249L19.0469 21.3896L18.9378 21.2442L19.0603 21.1217L18.2033 20.2647L17.4392 19.246L19.1876 20.9943L21.224 18.9579L19.1876 16.9214L17.1923 18.9166L17.0832 18.7711L19.0603 16.7942L17.0239 14.7577L15.3376 16.4438L15.2286 16.2984L16.8966 14.6305L14.86 12.5939L13.483 13.9709L13.3738 13.8255L14.7328 12.4666L12.6963 10.4302L11.6284 11.4981L11.5192 11.3527L12.5691 10.3029L10.5326 8.26649L9.77376 9.02529L9.66463 8.87988L10.4054 8.13923L8.36878 6.10265L7.91902 6.55235L7.80989 6.40694L8.24151 5.97538L6.20508 3.93895L6.06442 4.07955L5.95529 3.93414L6.07781 3.81168L5.22065 2.95438L4.45718 1.93652L6.20508 3.68441L8.24151 1.64798L6.5943 0.000915527H6.84884L8.36878 1.52071L9.88851 0.000915527H10.143L8.49605 1.64798L10.5325 3.68441L12.5691 1.64798L10.9218 0.000915527H11.1764L12.6963 1.52071L14.2161 0.000915527H14.4706L12.8236 1.64798L14.86 3.68441L16.8966 1.64798L15.2494 0.000915527H15.5039L17.0239 1.52071L18.5437 0.000915527H18.7983L17.1511 1.64798L19.1876 3.68441L21.224 1.64798L19.5768 0.000915527H19.8313L21.3513 1.52071L22.871 0.000915527H23.1255L21.4785 1.64798L23.515 3.68441L25.5515 1.64798L23.9043 0.000915527H24.159L25.6788 1.52057L27.1985 0.000915527H27.4534L25.8062 1.64798L27.8427 3.68441L29.8791 1.64798L28.2319 0.000915527H28.4864L30.0064 1.52071L31.5262 0.000915527H31.7808L30.1336 1.64798L32.1701 3.68441L34.2065 1.64798L32.5593 0.000915527H32.814L34.3338 1.52057L35.8535 0.000915527L36.0054 0.00091614ZM36.0054 34.4688V34.7234L34.7279 36.0008H34.4734L36.0054 34.4688ZM32.1701 29.9039L30.1336 31.9404L32.1701 33.9768L34.2065 31.9404L32.1701 29.9039ZM30.0062 27.7401L27.9698 29.7765L30.0064 31.8131L32.0428 29.7767L30.0062 27.7401ZM32.1699 25.5764L30.1335 27.6128L32.1701 29.6494L34.2065 27.613L32.1699 25.5764ZM27.8427 25.5765L25.8061 27.613L27.8425 29.6492L29.8789 27.6128L27.8427 25.5765ZM25.6788 23.4127L23.6424 25.4491L25.6788 27.4855L27.7152 25.4491L25.6788 23.4127ZM30.0064 23.4128L27.9699 25.4493L30.0062 27.4855L32.0426 25.4491L30.0064 23.4128ZM27.8425 21.249L25.8061 23.2854L27.8425 25.3218L29.8789 23.2854L27.8425 21.249ZM23.5151 21.249L21.4785 23.2854L23.5151 25.3218L25.5515 23.2854L23.5151 21.249ZM32.1701 21.249L30.1336 23.2856L32.1699 25.3218L34.2065 23.2854L32.1701 21.249ZM30.0062 19.0851L27.9698 21.1217L30.0062 23.1581L32.0428 21.1217L30.0062 19.0851ZM21.3513 19.0851L19.3148 21.1216L21.3513 23.1581L23.3878 21.1217L21.3513 19.0851ZM25.6788 19.0853L23.6424 21.1217L25.6788 23.1581L27.7152 21.1217L25.6788 19.0853ZM23.515 16.9214L21.4785 18.9579L23.5151 20.9944L25.5515 18.958L23.515 16.9214ZM27.8425 16.9214L25.8061 18.958L27.8425 20.9944L29.8789 18.9579L27.8425 16.9214ZM32.1701 16.9214L30.1335 18.9579L32.1701 20.9944L34.2066 18.958L32.1701 16.9214ZM25.6788 14.7577L23.6422 16.7942L25.6788 18.8307L27.7152 16.7942L25.6788 14.7577ZM21.3513 14.7577L19.3148 16.7942L21.3513 18.8306L23.3877 16.7942L21.3513 14.7577ZM30.0064 14.7577L27.9698 16.7942L30.0062 18.8306L32.0428 16.7942L30.0064 14.7577ZM19.1876 12.594L17.1511 14.6305L19.1876 16.6669L21.224 14.6305L19.1876 12.594ZM23.515 12.5939L21.4785 14.6305L23.515 16.6669L25.5515 14.6305L23.515 12.5939ZM27.8427 12.594L25.8061 14.6305L27.8425 16.6669L29.8791 14.6305L27.8427 12.594ZM32.1701 12.594L30.1336 14.6305L32.1701 16.6669L34.2065 14.6305L32.1701 12.594ZM21.3513 10.4302L19.3148 12.4668L21.3513 14.5032L23.3877 12.4666L21.3513 10.4302ZM25.6788 10.4302L23.6422 12.4666L25.6788 14.5032L27.7154 12.4668L25.6788 10.4302ZM30.0064 10.4303L27.9699 12.4668L30.0064 14.5032L32.0428 12.4668L30.0064 10.4303ZM17.0237 10.4302L14.9873 12.4666L17.0239 14.5032L19.0603 12.4668L17.0237 10.4302ZM27.8425 8.26649L25.8061 10.3029L27.8427 12.3395L29.8791 10.3031L27.8425 8.26649ZM32.1701 8.26649L30.1336 10.3031L32.1701 12.3395L34.2065 10.3029L32.1701 8.26649ZM19.1876 8.26649L17.151 10.3029L19.1876 12.3395L21.224 10.3029L19.1876 8.26649ZM14.86 8.26649L12.8236 10.3029L14.86 12.3394L16.8965 10.3029L14.86 8.26649ZM23.5151 8.26649L21.4785 10.3029L23.515 12.3394L25.5515 10.3029L23.5151 8.26649ZM30.0062 6.10265L27.9698 8.13923L30.0064 10.1758L32.0428 8.13923L30.0062 6.10265ZM21.3514 6.10279L19.3148 8.13923L21.3513 10.1757L23.3878 8.13923L21.3514 6.10279ZM12.6963 6.10279L10.6599 8.13923L12.6963 10.1757L14.7328 8.13923L12.6963 6.10279ZM25.6788 6.10279L23.6424 8.13923L25.6788 10.1757L27.7152 8.13923L25.6788 6.10279ZM17.0237 6.10265L14.9873 8.13923L17.0237 10.1757L19.0603 8.13923L17.0237 6.10265ZM10.5325 3.93895L8.49605 5.97538L10.5326 8.01196L12.5691 5.97552L10.5325 3.93895ZM27.8425 3.93895L25.8061 5.97552L27.8425 8.01196L29.8789 5.97538L27.8425 3.93895ZM32.1701 3.93895L30.1336 5.97538L32.1702 8.01196L34.2066 5.97552L32.1701 3.93895ZM14.86 3.93895L12.8236 5.97552L14.86 8.01196L16.8965 5.97538L14.86 3.93895ZM19.1876 3.93895L17.151 5.97538L19.1876 8.01196L21.224 5.97538L19.1876 3.93895ZM23.5151 3.93909L21.4787 5.97552L23.5151 8.01196L25.5515 5.97552L23.5151 3.93909ZM25.6788 1.77525L23.6424 3.81182L25.6788 5.84826L27.7152 3.81168L25.6788 1.77525ZM12.6963 1.77525L10.6597 3.81168L12.6963 5.84826L14.7328 3.81168L12.6963 1.77525ZM17.0239 1.77525L14.9873 3.81168L17.0237 5.84811L19.0603 3.81168L17.0239 1.77525ZM30.0064 1.77525L27.9699 3.81168L30.0064 5.84811L32.0428 3.81168L30.0064 1.77525ZM8.36878 1.77525L6.33235 3.81168L8.36878 5.84811L10.4052 3.81168L8.36878 1.77525ZM21.3513 1.77525L19.3148 3.81168L21.3513 5.84811L23.3877 3.81168L21.3513 1.77525ZM5.81579 0.000915527L4.20982 1.60675L4.10083 1.46134L5.56125 0.000915527H5.81579Z" fill="#3582F7"/>
<path d="M26.2254 23.1909L0.00537109 30.6009V36.0009H36.0054V33.5409L26.2254 23.1909Z" fill="url(#paint2_linear_202_10174)" stroke="#0D57D9"/>
<mask id="mask1_202_10174" style="mask-type:alpha" maskUnits="userSpaceOnUse" x="0" y="24" width="35" height="13">
<path d="M22.0453 24.3723L23.4517 29.12L28.9745 27.4841L28.3773 25.4684L28.9243 26.0472L29.3197 27.3819L29.996 27.1814L30.2733 27.4748L29.4219 27.7271L31.0579 33.2499L34.7085 32.1683L34.9856 32.4618L31.1601 33.5951L31.8727 36.001H31.4972L30.8149 33.6973L25.2921 35.3333L25.4899 36.001H25.1143L24.9469 35.4355L23.0373 36.001H21.7696L24.8447 35.0903L23.2087 29.5675L17.686 31.2034L19.1071 36.001H18.7316L17.3409 31.3057L11.818 32.9416L12.7241 36.001H12.3486L11.4728 33.0438L5.95003 34.6798L6.34128 36.001H5.9658L5.60479 34.782L1.4892 36.001H0.221436L5.50255 34.4368L4.02936 29.4637L4.37586 29.3657L5.84779 34.3345L11.3705 32.6986L9.91914 27.7993L10.2656 27.7013L11.7158 32.5964L17.2387 30.9604L15.8091 26.1347L16.1556 26.0368L17.5838 30.8582L23.1065 29.2223L21.6987 24.4703L22.0453 24.3723ZM29.0767 27.8294L23.554 29.4653L25.1899 34.988L30.7126 33.3521L29.0767 27.8294Z" fill="white"/>
</mask>
<g mask="url(#mask1_202_10174)">
<path d="M22.0452 24.3723L23.4516 29.12L28.9743 27.4841L28.3771 25.4684L28.9242 26.0472L29.3196 27.3819L29.9959 27.1814L30.2732 27.4748L29.4218 27.7271L31.0578 33.2499L34.7083 32.1683L34.9855 32.4618L31.16 33.5951L31.8726 36.001H31.4971L30.8147 33.6973L25.292 35.3333L25.4898 36.001H25.1141L24.9468 35.4355L23.0372 36.001H21.7694L24.8445 35.0903L23.2086 29.5675L17.6859 31.2034L19.1069 36.001H18.7315L17.3408 31.3057L11.8179 32.9416L12.724 36.001H12.3485L11.4726 33.0438L5.94991 34.6798L6.34116 36.001H5.96568L5.60466 34.782L1.48907 36.001H0.221313L5.50243 34.4368L4.02924 29.4637L4.37574 29.3657L5.84767 34.3345L11.3704 32.6986L9.91901 27.7993L10.2655 27.7013L11.7157 32.5964L17.2385 30.9604L15.8089 26.1347L16.1554 26.0368L17.5836 30.8582L23.1064 29.2223L21.6986 24.4703L22.0452 24.3723ZM29.0766 27.8294L23.5538 29.4653L25.1898 34.988L30.7125 33.3521L29.0766 27.8294Z" fill="#1362DD"/>
</g>
<path fill-rule="evenodd" clip-rule="evenodd" d="M13.8051 6.36115L12.1851 15.6011L18.1251 18.7811L13.8051 6.36115Z" fill="#6AABD4"/>
<path d="M23.8252 15.6011L13.8052 6.36115L18.1252 18.7811L23.8252 15.6011Z" fill="#E4F6FE"/>
<path d="M23.8251 15.6011L18.1251 18.7811L29.4651 25.4411L23.8251 15.6011Z" fill="#A8CCE9"/>
<path d="M29.4651 25.4411L18.1251 18.7811L23.6451 27.9011L29.4651 25.4411Z" fill="#D8E9F8"/>
<path d="M23.6451 27.9011L18.1251 18.7811L6.6051 25.4411L23.6451 27.9011Z" fill="#84C1F2"/>
<path d="M6.6051 25.4411L18.1251 18.7811L12.1851 15.6011L6.6051 25.4411H6.6051Z" fill="#AECEE9"/>
</g>
</g>
<defs>
<linearGradient id="paint0_linear_202_10174" x1="0.00537112" y1="26.3709" x2="13.5954" y2="13.1708" gradientUnits="userSpaceOnUse">
<stop stop-color="#0060FF"/>
<stop offset="1" stop-color="#1F66D6"/>
</linearGradient>
<linearGradient id="paint1_linear_202_10174" x1="13.5053" y1="0.000915914" x2="38.5637" y2="30.5741" gradientUnits="userSpaceOnUse">
<stop stop-color="#1F6AE2"/>
<stop offset="1" stop-color="#2E7BED"/>
</linearGradient>
<linearGradient id="paint2_linear_202_10174" x1="27.5454" y1="27.841" x2="18.8464" y2="44.3804" gradientUnits="userSpaceOnUse">
<stop stop-color="#0D57D9"/>
<stop offset="1" stop-color="#0D57D9"/>
</linearGradient>
<clipPath id="clip0_202_10174">
<rect width="37" height="36.0009" fill="white"/>
</clipPath>
</defs>
</svg>
