<svg width="36" height="37" viewBox="0 0 36 37" fill="none" xmlns="http://www.w3.org/2000/svg">
<g clip-path="url(#clip0_202_10576)">
<path d="M14.2484 27.0041C26.2484 28.9327 26.2484 19.7184 26.0341 19.7184H9.96265C9.96265 19.7184 3.96265 25.0756 2.03408 26.7899C2.89122 30.2184 6.96265 33.647 9.31979 34.5041C9.53408 34.5041 13.8198 27.647 14.2484 27.0041ZM8.24836 4.28986C8.24836 1.93272 7.17693 0.00415039 4.6055 0.00415039C1.81979 0.00415039 0.962646 1.93272 0.962646 4.28986V19.9327C0.962646 22.0756 1.39122 24.2184 1.81979 25.0756L8.46265 19.2899C8.24836 19.2899 8.24836 6.00415 8.24836 4.28986ZM35.0341 4.28986C35.0341 1.93272 33.9626 0.00415039 31.3912 0.00415039C28.6055 0.00415039 27.7484 1.93272 27.7484 4.28986C27.7484 5.57558 27.9626 15.2184 27.7484 21.2184C27.7484 23.3613 24.7484 28.9327 17.8912 28.7184C16.3912 28.7184 15.5341 28.7184 15.1055 28.5042C14.6769 29.147 11.4626 34.7184 11.2484 34.9327C12.5341 35.3613 15.3198 36.0042 17.8912 36.0042C29.4626 36.0042 35.2484 28.7184 35.0341 19.0756C35.0341 9.64701 35.0341 6.00415 35.0341 4.28986ZM17.2484 18.0042V11.3613C17.2484 9.00415 16.1769 7.07558 13.6055 7.07558C10.8198 7.07558 9.96265 9.00415 9.96265 11.3613V18.0042H17.2484ZM26.2484 18.0042V11.3613C26.2484 9.00415 25.1769 7.07558 22.6055 7.07558C19.8198 7.07558 18.9626 9.00415 18.9626 11.3613V18.0042H26.2484Z" fill="#DC0000"/>
</g>
<defs>
<clipPath id="clip0_202_10576">
<rect width="36" height="37" fill="white"/>
</clipPath>
</defs>
</svg>
