<svg width="34" height="37" viewBox="0 0 34 37" fill="none" xmlns="http://www.w3.org/2000/svg">
<g clip-path="url(#clip0_202_11877)">
<path d="M31.7384 7.01733L18.3367 0.28937C17.5229 -0.0904344 16.6005 -0.0904344 15.7866 0.28937L4.501 5.87792L2.71049 6.8003C3.52436 6.42049 4.44674 6.42049 5.26061 6.8003L11.6088 9.6217L11.9343 9.73021L27.235 17.7061L11.88 25.7362L11.7173 25.7905L5.20635 29.2087C4.39248 29.5885 3.4701 29.6428 2.65623 29.2087L2.33069 29.046L15.7323 35.7197C16.5462 36.0995 17.4686 36.0995 18.2825 35.7197L31.7384 28.9917C32.715 28.5034 33.3661 27.5267 33.3661 26.4416V9.56744C33.3118 8.48229 32.715 7.50565 31.7384 7.01733Z" fill="#A4A7AD"/>
<path d="M11.6091 9.62169L5.26095 6.80029C4.44709 6.42048 3.52471 6.36623 2.71084 6.80029L2.3853 6.96306C2.33104 6.96306 2.33104 7.01732 2.27678 7.01732C1.30014 7.50564 0.649048 8.48228 0.649048 9.56743V26.4416C0.649048 27.5267 1.30014 28.5576 2.27678 29.046L2.60233 29.2087C3.41619 29.5885 4.33857 29.619 5.15244 29.2392L11.7719 25.7851L11.9347 9.78446L11.6091 9.62169Z" fill="#4D515D"/>
</g>
<defs>
<clipPath id="clip0_202_11877">
<rect width="34" height="37" fill="white"/>
</clipPath>
</defs>
</svg>
