<svg width="30" height="36" viewBox="0 0 30 36" fill="none" xmlns="http://www.w3.org/2000/svg">
<g clip-path="url(#clip0_202_9249)">
<path d="M24.2258 18.1439C24.2258 20.4583 22.3488 23.1263 20.0354 24.1029L4.67207 30.5897C2.35864 31.5673 0.482727 30.4835 0.482727 28.1691V12.8049C0.482727 10.4914 2.35864 7.82427 4.67207 6.84677L20.0354 0.36C22.3488 -0.61659 24.2258 0.467225 24.2258 2.78156V18.1439Z" fill="#4861B4"/>
<path d="M27.5087 5.10638V20.418C27.5087 22.7314 25.6327 25.3995 23.3183 26.376L7.95497 32.8629C7.16095 33.1988 6.41968 33.2871 5.78644 33.1696V33.2213C5.78644 35.5339 7.66246 36.6186 9.97589 35.642L25.3401 29.1552C27.6536 28.1777 29.5295 25.5105 29.5295 23.1962V7.83283C29.5295 6.31353 28.7185 5.33036 27.5087 5.10638Z" fill="#25336D"/>
<path d="M21.6696 29.7379C19.6911 29.7379 18.0136 29.0342 16.6354 27.6231C15.258 26.2128 14.5694 24.5174 14.5694 22.537V12.1008L18.3015 10.525L11.6078 4.85004L5.51788 15.9213L9.50696 14.2373V22.5324C9.50696 25.8525 10.7027 28.6786 13.0923 31.0081C13.9804 31.8727 15.1308 32.6909 16.1469 33.2346L24.1202 29.7379H21.6696Z" fill="white"/>
</g>
<defs>
<clipPath id="clip0_202_9249">
<rect width="30" height="36.001" fill="white"/>
</clipPath>
</defs>
</svg>
