<svg width="36" height="37" viewBox="0 0 36 37" fill="none" xmlns="http://www.w3.org/2000/svg">
<g clip-path="url(#clip0_202_10170)">
<path d="M0.000976562 13.0308C0.000976562 8.47034 0.000976562 6.19013 0.888495 4.44827C1.66918 2.9161 2.91488 1.6704 4.44705 0.889716C6.18891 0.00219727 8.46912 0.00219727 13.0295 0.00219727H22.9724C27.5328 0.00219727 29.813 0.00219727 31.5549 0.889716C33.0871 1.6704 34.3328 2.9161 35.1135 4.44827C36.001 6.19013 36.001 8.47034 36.001 13.0308V22.9736C36.001 27.5341 36.001 29.8143 35.1135 31.5561C34.3328 33.0883 33.0871 34.334 31.5549 35.1147C29.813 36.0022 27.5328 36.0022 22.9724 36.0022H13.0295C8.46912 36.0022 6.18891 36.0022 4.44705 35.1147C2.91488 34.334 1.66918 33.0883 0.888495 31.5561C0.000976562 29.8143 0.000976562 27.5341 0.000976562 22.9736V13.0308Z" fill="#001E36"/>
<path d="M18.9069 26.5138H9.39181C9.23075 26.5138 9.15026 26.423 9.15033 26.2413V10.5128C9.13252 10.3849 9.24296 10.2716 9.36772 10.2899H12.314C12.4111 10.2759 12.4965 10.3654 12.4831 10.4633V23.3929H19.4141C19.559 23.3929 19.6153 23.4672 19.5832 23.6158L19.1485 26.2909C19.1447 26.4256 19.0342 26.5124 18.9069 26.5138Z" fill="#31A8FF"/>
<path d="M21.3243 14.1861H23.9567C24.1018 14.1874 24.2321 14.2903 24.2706 14.4339C24.4635 14.8732 24.4872 15.403 24.488 15.8773C24.9394 15.3381 25.4838 14.8889 26.0939 14.5521C26.7482 14.1724 27.4901 13.9799 28.2419 13.9948C28.3666 13.9765 28.4771 14.0898 28.4592 14.2177V17.2148C28.4592 17.3305 28.3785 17.3882 28.2178 17.3882C27.1036 17.3093 25.3688 17.5793 24.5592 18.478V26.2709C24.5592 26.4195 24.4948 26.4938 24.366 26.4938H21.5416C21.4029 26.5143 21.2805 26.3862 21.3001 26.2461V17.7845C21.3001 16.6507 21.3241 15.4827 21.1552 14.3596C21.1292 14.2562 21.2257 14.1601 21.3243 14.1861Z" fill="#31A8FF"/>
</g>
<defs>
<clipPath id="clip0_202_10170">
<rect width="36.001" height="37" fill="white"/>
</clipPath>
</defs>
</svg>
