<svg width="33" height="33" viewBox="0 0 33 33" fill="none" xmlns="http://www.w3.org/2000/svg">
<path d="M7.16546 32.0024H0.531025V10.6377H7.16546V32.0024ZM3.84467 7.72333C1.72319 7.72333 0.00244141 5.96615 0.00244141 3.84467C0.00244141 1.72267 1.72267 0.00244141 3.84467 0.00244141C5.96667 0.00244141 7.6869 1.72267 7.6869 3.84467C7.6869 5.96615 5.96543 7.72333 3.84467 7.72333ZM31.996 32.0024H25.3759V21.6022C25.3759 19.1236 25.3259 15.9449 21.9265 15.9449C18.4771 15.9449 17.9486 18.6379 17.9486 21.4236V32.0024H11.3213V10.6377H17.6843V13.552H17.7771C18.6629 11.8734 20.8265 10.102 24.0544 10.102C30.7688 10.102 32.0032 14.5235 32.0032 20.2665V32.0024H31.996Z" fill="#2867B2"/>
</svg>
