<svg width="37" height="37" viewBox="0 0 37 37" fill="none" xmlns="http://www.w3.org/2000/svg">
<g clip-path="url(#clip0_202_10641)">
<path d="M33.4317 0.00244141H2.56657C1.15228 0.00244141 0.00317383 1.16762 0.00317383 2.59798V33.4069C0.00317383 34.8373 1.15228 36.0024 2.56657 36.0024H33.4317C34.846 36.0024 36.0032 34.8373 36.0032 33.4069V2.59798C36.0032 1.16762 34.846 0.00244141 33.4317 0.00244141ZM10.8835 30.8596H5.54782V13.6792H10.8916V30.8596H10.8835ZM8.21567 11.3328C6.50407 11.3328 5.12192 9.94262 5.12192 8.23905C5.12192 6.53548 6.50407 5.1453 8.21567 5.1453C9.91924 5.1453 11.3094 6.53548 11.3094 8.23905C11.3094 9.95066 9.92728 11.3328 8.21567 11.3328ZM30.8844 30.8596H25.5487V22.5024C25.5487 20.5096 25.5085 17.9462 22.7764 17.9462C19.996 17.9462 19.5701 20.1158 19.5701 22.3578V30.8596H14.2344V13.6792H19.3532V16.0257H19.4255C20.1407 14.6757 21.8844 13.2533 24.48 13.2533C29.88 13.2533 30.8844 16.8132 30.8844 21.4417V30.8596Z" fill="#2867B2"/>
</g>
<defs>
<clipPath id="clip0_202_10641">
<rect width="37" height="37" fill="white"/>
</clipPath>
</defs>
</svg>
