<svg width="32" height="37" viewBox="0 0 32 37" fill="none" xmlns="http://www.w3.org/2000/svg">
<g clip-path="url(#clip0_202_15949)">
<path d="M8.82376 16.607L7.34147 6.7677L1.33569 3.06201L3.12468 12.3135L8.82376 16.607ZM10.2294 27.1874L9.28373 20.2104L3.94247 15.7892L5.3225 22.6895L10.2294 27.1874ZM5.987 25.6285L6.93263 30.8675L11.4817 35.5955L10.8427 30.2541L5.987 25.6285ZM19.5575 24.0184L17.2191 22.2805C17.2191 22.2805 17.1858 22.9028 17.1233 22.945L15.4173 24.1462L17.2829 25.6795L17.3916 27.4238L19.6086 29.2319L19.5575 24.0184ZM26.6239 18.9199L26.2021 23.8331L24.6305 22.7981C24.6305 22.7981 24.8037 20.314 24.803 20.3127C24.7938 20.296 21.7745 18.2681 21.7745 18.2681L21.8703 16.0064L26.6239 18.9199Z" fill="#004711"/>
<path d="M16.6697 12.5435L16.2353 3.39429L7.34167 6.76772L8.82385 16.607L16.6697 12.5435ZM17.0787 22.9195L16.7209 15.9425L9.28394 20.2104L10.3829 27.3662L17.0787 22.9195ZM17.2064 25.7562L10.8428 30.2541L11.6352 35.7488L17.4364 31.1231L17.2064 25.7562ZM19.6599 23.9928L19.7621 29.3086L24.3622 25.5774L24.5922 20.5171L19.6599 23.9928ZM30.6172 16.2939L30.0166 20.958L26.4196 23.8459L26.8476 18.9454L30.6172 16.2939Z" fill="#00B159"/>
<path d="M17.4453 25.6671C17.445 25.6626 17.4434 25.6585 17.4429 25.6542C17.4417 25.6424 17.4397 25.6311 17.4367 25.6198C17.4349 25.6131 17.4328 25.6067 17.4304 25.6002C17.4264 25.5897 17.4214 25.5796 17.4157 25.5697C17.4124 25.564 17.4093 25.5581 17.4054 25.5526C17.3985 25.5427 17.3904 25.5338 17.3817 25.5252C17.3776 25.5211 17.3739 25.5165 17.3695 25.5126C17.3683 25.5116 17.3674 25.5103 17.3662 25.5092L15.6644 24.1201L17.2292 23.0658C17.2917 23.0236 17.3276 22.9525 17.3242 22.8778L17.3084 22.5066L19.3833 24.0904L19.4236 28.8998L17.5148 27.2928L17.4453 25.6671ZM9.09142 20.2777L10.0537 26.8538L5.49317 22.5575L4.17272 16.1796L9.09142 20.2777ZM16.8879 22.7753L10.5208 27.0648L9.52782 20.2791L16.6096 16.2482L16.8879 22.7753ZM16.0691 3.60583L16.4478 12.4597L8.95503 16.3587L7.5655 6.87335L16.0691 3.60583ZM7.12781 6.86397L8.49389 16.1895L3.34214 12.1744L1.52126 3.37784L7.12781 6.86397ZM7.20721 30.8329L6.23379 26.1294L10.5729 30.3968L11.2679 35.1429L7.20721 30.8329ZM17.2414 31.004L11.74 35.3868L11.0082 30.3927L17.031 26.0836L17.2414 31.004ZM24.1478 25.4977L19.8554 28.9213L19.8152 24.0934L24.4341 20.7898L24.1478 25.4977ZM24.747 22.7559L24.8924 20.364C24.8925 20.3613 24.8917 20.3589 24.8917 20.3562C24.8918 20.353 24.8927 20.3501 24.8926 20.3469C24.8925 20.3374 24.89 20.3283 24.8886 20.319C24.8876 20.3123 24.8875 20.3056 24.8858 20.2991C24.8816 20.2824 24.8755 20.2663 24.8675 20.2511C24.8668 20.2498 24.8666 20.2483 24.8659 20.247C24.8567 20.2303 24.845 20.2153 24.8318 20.2015C24.8291 20.1987 24.8258 20.1966 24.823 20.194C24.8143 20.1858 24.8058 20.1774 24.7958 20.1706L21.9042 18.261L21.9463 16.1654L26.4969 19.001L26.091 23.6914L24.747 22.7559ZM26.5321 23.5999L26.9295 19.0055L30.521 16.4352L29.9174 20.9014L26.5321 23.5999ZM31.0171 15.9561C31.0169 15.952 31.0153 15.9482 31.0149 15.9441C31.0139 15.9364 31.0123 15.929 31.0105 15.9214C31.0078 15.9094 31.0043 15.8979 30.9997 15.8866C30.9969 15.88 30.994 15.8735 30.9906 15.8671C30.9845 15.8558 30.9773 15.8455 30.9694 15.8355C30.9651 15.8301 30.9613 15.8247 30.9565 15.8198C30.9466 15.8095 30.9352 15.8007 30.9233 15.7925C30.9195 15.7899 30.9168 15.7863 30.9128 15.7839C30.912 15.7833 30.9108 15.7832 30.9099 15.7826C30.9086 15.7819 30.9077 15.7807 30.9063 15.78L25.9911 13.0565C25.9234 13.0192 25.8404 13.0206 25.7741 13.0615L21.6255 15.5977C21.6188 15.6017 21.6135 15.6074 21.6074 15.6121C21.6 15.6177 21.5924 15.6229 21.5858 15.6295C21.5789 15.6364 21.5734 15.6443 21.5675 15.6522C21.5624 15.659 21.5565 15.6653 21.5523 15.6727C21.5469 15.6818 21.5435 15.6917 21.5395 15.7015C21.5366 15.7089 21.5327 15.7157 21.5306 15.7234C21.5276 15.7339 21.5268 15.745 21.5255 15.756C21.5247 15.7632 21.5225 15.7698 21.5222 15.7771L21.4781 17.9795L19.7905 16.865C19.7206 16.8184 19.6305 16.817 19.5588 16.8607L17.1308 18.3449L17.0256 15.8766C17.0254 15.8714 17.0235 15.8667 17.023 15.8616C17.0216 15.8508 17.0202 15.84 17.0174 15.8295C17.0153 15.8218 17.0121 15.8145 17.0092 15.807C17.0056 15.7979 17.0019 15.7888 16.997 15.7803C16.9927 15.7727 16.9875 15.7658 16.9824 15.7588C16.9768 15.7513 16.9714 15.744 16.965 15.7374C16.9585 15.7307 16.9514 15.7249 16.944 15.7189C16.9393 15.7152 16.9354 15.7105 16.9304 15.707L14.4036 14.0098L16.7688 12.7791C16.8429 12.7403 16.8879 12.662 16.8845 12.5783L16.4873 3.28718C16.4868 3.2758 16.4841 3.2649 16.4819 3.25387C16.481 3.2493 16.4809 3.24449 16.4796 3.24003C16.4746 3.22139 16.4673 3.20368 16.4575 3.18726C16.4558 3.18421 16.4533 3.18174 16.4514 3.17893C16.4429 3.16568 16.433 3.15348 16.4218 3.14246C16.4176 3.13847 16.4132 3.13507 16.4087 3.13143C16.4025 3.12627 16.3971 3.12041 16.3903 3.11595C16.385 3.11243 16.3791 3.11056 16.3736 3.10751C16.3707 3.10598 16.3686 3.10364 16.3657 3.10223L9.99307 0.0272744C9.94358 0.00334939 9.88729 -0.000989954 9.8351 0.0154292L1.1435 2.72271C1.14292 2.72295 1.14233 2.72342 1.14174 2.72365C1.13822 2.72471 1.13518 2.72717 1.13166 2.72846C1.11547 2.73467 1.09976 2.74159 1.0858 2.75133C1.08545 2.75156 1.08498 2.75168 1.08451 2.75191C1.0797 2.75532 1.07642 2.76012 1.07196 2.76388C1.06094 2.77291 1.04991 2.78194 1.04088 2.79308C1.03443 2.80105 1.03009 2.8102 1.02481 2.819C1.01954 2.82768 1.01367 2.83577 1.00969 2.84515C1.00488 2.85641 1.00265 2.86837 0.999952 2.88034C0.998192 2.88761 0.995026 2.89418 0.99397 2.90156C0.993853 2.90262 0.994205 2.90367 0.994088 2.90473C0.992798 2.91564 0.994088 2.92654 0.994557 2.93769C0.994909 2.94777 0.994439 2.95786 0.996199 2.96771C0.996551 2.96935 0.996199 2.97088 0.996551 2.97252L2.93589 12.3394C2.94644 12.3895 2.97377 12.4342 3.01458 12.4657L5.64669 14.5173L3.74371 15.4234C3.74031 15.425 3.73761 15.4276 3.73433 15.4294C3.73139 15.431 3.72823 15.4314 3.72541 15.433C3.72119 15.4356 3.71849 15.4393 3.71451 15.4422C3.7036 15.4498 3.69351 15.4581 3.68425 15.4675C3.67897 15.4728 3.67381 15.4779 3.66912 15.4837C3.65985 15.4952 3.65247 15.5076 3.64566 15.5206C3.6432 15.5254 3.64003 15.5298 3.63792 15.5348C3.63042 15.5526 3.62479 15.5715 3.62232 15.5912C3.62221 15.592 3.62232 15.5927 3.62232 15.5936C3.62197 15.5966 3.62256 15.5997 3.62232 15.6027C3.62103 15.6204 3.62186 15.638 3.6249 15.6551C3.62526 15.6575 3.62479 15.6597 3.62526 15.6619L5.08422 22.7115C5.09325 22.7551 5.11529 22.7945 5.14755 22.8249L6.97969 24.5506L5.76561 25.2932C5.74989 25.3028 5.73594 25.3146 5.72339 25.3275C5.71999 25.3309 5.71753 25.3348 5.71448 25.3384C5.70392 25.3509 5.69501 25.3641 5.6875 25.3786C5.68504 25.3834 5.68269 25.3879 5.68058 25.3929C5.67249 25.4116 5.66616 25.4313 5.66358 25.4522C5.66123 25.473 5.66299 25.4935 5.66651 25.5137C5.66698 25.5159 5.66639 25.5181 5.66686 25.5205L6.7972 30.9803C6.80529 31.0191 6.82394 31.055 6.8515 31.0842L11.4233 35.9378C11.4302 35.9451 11.4382 35.9508 11.4458 35.9571C11.4486 35.9593 11.451 35.9619 11.4539 35.964C11.4682 35.9743 11.4833 35.9829 11.4994 35.9893C11.5001 35.9897 11.5007 35.9902 11.5015 35.9905C11.5028 35.9911 11.5043 35.9908 11.5057 35.9913C11.5298 36.0002 11.555 36.0056 11.5807 36.0056C11.602 36.0056 11.6231 36.0013 11.6439 35.9948C11.6487 35.9934 11.6533 35.9918 11.658 35.9899C11.6634 35.9878 11.6691 35.9867 11.6745 35.984C11.6833 35.9798 11.6899 35.973 11.6977 35.9677C11.7034 35.9641 11.7098 35.9623 11.7151 35.9581L17.5961 31.2729C17.65 31.2296 17.68 31.1636 17.6772 31.095L17.5398 27.878L19.5046 29.5317C19.508 29.5346 19.5124 29.5357 19.5161 29.5383C19.5272 29.5466 19.5379 29.5552 19.5505 29.5613C19.5548 29.5632 19.5591 29.564 19.5633 29.5658C19.5687 29.5679 19.5739 29.5695 19.5793 29.5712C19.6004 29.5779 19.6217 29.5824 19.6434 29.5824C19.6645 29.5824 19.6854 29.5781 19.7062 29.5718C19.711 29.5702 19.7157 29.5687 19.7205 29.5668C19.7254 29.565 19.7304 29.564 19.7353 29.5618C19.7462 29.5566 19.755 29.5491 19.7646 29.5425C19.7688 29.5395 19.7737 29.5383 19.7777 29.5352L24.492 25.7757C24.54 25.737 24.5691 25.6807 24.5728 25.6194L24.7162 23.2604L26.1507 24.2588C26.1536 24.2608 26.157 24.2615 26.16 24.2633C26.1642 24.2659 26.1673 24.2697 26.1717 24.272C26.1801 24.2765 26.1892 24.2787 26.1978 24.282C26.2038 24.2842 26.2094 24.2869 26.2157 24.2887C26.2347 24.294 26.2541 24.2974 26.2736 24.2974C26.2948 24.2974 26.3159 24.2931 26.3366 24.2868C26.3414 24.2854 26.346 24.2839 26.3506 24.2821C26.3555 24.2802 26.3605 24.2793 26.3653 24.2772C26.377 24.2716 26.3871 24.2637 26.3974 24.2563C26.4008 24.254 26.4049 24.253 26.4082 24.2504L30.2539 21.1855C30.2975 21.1507 30.3258 21.1003 30.3333 21.0453L31.0156 15.9975C31.0163 15.9921 31.015 15.9869 31.0153 15.9815C31.0158 15.973 31.0176 15.9648 31.0171 15.9561Z" fill="black"/>
</g>
<defs>
<clipPath id="clip0_202_15949">
<rect width="32" height="37" fill="white"/>
</clipPath>
</defs>
</svg>
