<svg width="37" height="34" viewBox="0 0 37 34" fill="none" xmlns="http://www.w3.org/2000/svg">
<g clip-path="url(#clip0_202_15053)">
<path opacity="0.26" d="M4.25772 21.3767L4.25171 14.4616V12.3907H0.00756836V0.866333L17.9052 0.95062L23.5039 0.962663C30.2042 0.962663 36.0076 6.03155 36.0076 12.7259V33.1399H16.7614C10.0671 33.1399 4.25772 28.065 4.25772 21.3767Z" fill="black"/>
<path d="M33.4365 27.8012V12.9595C33.4365 8.00103 29.0881 3.98159 23.7229 3.98159H18.1544V3.96962L3.09351 3.90381V9.31907H5.40544C7.01922 9.31907 7.30431 10.4331 7.30431 11.975L7.31629 21.5486C7.31629 26.5071 11.6647 30.5265 17.0239 30.5265H30.2558C31.9521 30.5265 33.4365 29.4522 33.4365 27.8012L33.4365 27.8012Z" fill="url(#paint0_linear_202_15053)"/>
<path opacity="0.175141" d="M32.1235 29.0551C28.7396 26.7232 26.343 24.0446 24.3242 20.4985C20.3447 13.1472 21.2752 9.49791 11.4206 8.63738C8.57664 8.63738 6.68361 8.00793 3.69019 8.00793V9.05046C3.69019 9.05046 4.87313 9.65079 5.91292 9.65079C7.46346 9.65079 7.73241 10.7264 7.73241 12.2079L7.74225 21.3837C7.74225 26.1478 11.9265 30.0091 17.0758 30.0091H29.7827C30.7154 30.0091 31.5533 29.6415 32.1235 29.0551Z" fill="url(#paint1_linear_202_15053)"/>
<path d="M20.3465 9.54503C19.139 9.54503 18.0661 9.99333 17.2041 10.8642C16.3425 11.7345 15.8901 12.8211 15.8901 14.0473V20.2457H18.7015V14.0473C18.7015 13.5773 18.8548 13.2098 19.1904 12.8708C19.5271 12.5308 19.8836 12.3768 20.3465 12.3768C20.8192 12.3768 21.1704 12.53 21.5078 12.8708C21.8434 13.2098 21.9967 13.5773 21.9967 14.0473V20.2457H24.8081V14.0473C24.8081 13.5773 24.9615 13.2098 25.2971 12.8708C25.6345 12.53 25.9857 12.3768 26.4583 12.3768C26.9212 12.3768 27.2778 12.5308 27.6144 12.8708C27.95 13.2098 28.1034 13.5773 28.1034 14.0473L28.1187 21.2898C28.1187 22.8348 26.6474 24.1369 24.7572 24.1369L15.6914 24.1012C14.2328 24.1012 12.987 22.6814 12.987 20.8569V7.21826H10.3284V21.3815C10.3284 22.8842 10.8782 24.2019 11.948 25.2675C12.8623 26.17 13.9619 26.7041 15.1974 26.8362V26.8872H25.292C26.8432 26.8872 28.206 26.3104 29.3054 25.1911H29.3105C30.2455 24.2304 30.7922 23.0793 30.925 21.7838L30.9148 14.0473C30.9148 12.8211 30.4624 11.7345 29.6008 10.8642C28.7387 9.99333 27.6658 9.54503 26.4583 9.54503C25.2731 9.54503 24.2359 9.98577 23.3973 10.7928C22.5612 9.9871 21.5313 9.54503 20.3465 9.54503H20.3465Z" fill="black" fill-opacity="0.080402"/>
<path d="M20.122 9.61888C18.9144 9.61888 17.8415 10.0672 16.9795 10.938C16.1179 11.8084 15.6655 12.8949 15.6655 14.1212V20.3196H18.4769V14.1212C18.4769 13.6512 18.6302 13.2837 18.9658 12.9447C19.3025 12.6046 19.659 12.4507 20.122 12.4507C20.5946 12.4507 20.9458 12.6038 21.2832 12.9447C21.6188 13.2837 21.7721 13.6512 21.7721 14.1212V20.3196H24.5835V14.1212C24.5835 13.6512 24.7369 13.2837 25.0725 12.9447C25.4099 12.6038 25.7611 12.4507 26.2337 12.4507C26.6967 12.4507 27.0532 12.6046 27.3899 12.9447C27.7254 13.2837 27.8788 13.6512 27.8788 14.1212L27.8941 21.3637C27.8941 22.9086 26.4228 24.2107 24.5326 24.2107L15.4668 24.1751C14.0082 24.1751 12.7624 22.7553 12.7624 20.9307V7.29211H10.1038V21.4553C10.1038 22.958 10.6536 24.2758 11.7234 25.3414C12.6377 26.2439 13.7373 26.8289 14.9728 26.961L25.0674 26.961C26.6186 26.961 27.9814 26.3842 29.0808 25.265H29.0859C30.0209 24.3043 30.5676 23.1532 30.7004 21.8577L30.6902 14.1212C30.6902 12.8949 30.2378 11.8084 29.3762 10.938C28.5141 10.0672 27.4412 9.61888 26.2337 9.61888C25.0485 9.61888 24.0114 10.0596 23.1728 10.8667C22.3366 10.061 21.3067 9.61888 20.122 9.61888H20.122Z" fill="white"/>
<path opacity="0.3" d="M18.469 24.1845V26.961H25.0726C26.6238 26.961 27.9785 26.3825 29.078 25.2632H29.0874C30.0224 24.3025 30.5679 23.1537 30.7007 21.8582V20.2823H27.8961V21.3611C27.8961 22.906 26.4282 24.2033 24.538 24.2033L18.469 24.1845H18.469Z" fill="#52A800"/>
<path d="M16.9357 32.5817C10.5452 32.5817 4.99943 27.7371 4.99943 21.3523L4.9937 13.5997V11.6228H0.942139V1.77258L18.0277 1.85305L23.3723 1.86454C29.7686 1.86454 35.3086 6.70342 35.3086 13.094V32.5817H16.9358L16.9357 32.5817ZM32.7052 27.3541V13.094C32.7052 8.32984 28.5272 4.4679 23.3723 4.4679H18.0219V4.45641L3.55122 4.39318V9.01944H5.17223C6.27275 9.01944 7.59702 10.0536 7.59702 11.5713L7.60852 21.3465C7.60852 26.1107 11.7865 29.9726 16.9357 29.9726H29.6491C31.279 29.9726 32.7052 28.9404 32.7052 27.3541H32.7052Z" fill="white"/>
</g>
<defs>
<linearGradient id="paint0_linear_202_15053" x1="5.98946" y1="7.3008" x2="21.7411" y2="24.5736" gradientUnits="userSpaceOnUse">
<stop stop-color="#C7F994"/>
<stop offset="1" stop-color="#87CF3E"/>
</linearGradient>
<linearGradient id="paint1_linear_202_15053" x1="9.32303" y1="27.7513" x2="19.0299" y2="12.5316" gradientUnits="userSpaceOnUse">
<stop stop-color="#3D3D3D"/>
<stop offset="1" stop-opacity="0.114007"/>
</linearGradient>
<clipPath id="clip0_202_15053">
<rect width="37" height="34" fill="white"/>
</clipPath>
</defs>
</svg>
