<svg width="58" height="50" viewBox="0 0 58 50" fill="none" xmlns="http://www.w3.org/2000/svg">
<g clip-path="url(#clip0_202_15017)">
<g filter="url(#filter0_f_202_15017)">
<path d="M44.1109 31.9548C44.1109 34.1861 37.3463 36.0041 28.9998 36.0041C20.6532 36.0041 13.8887 34.1979 13.8887 31.9548C13.8887 29.7236 20.6532 27.9055 28.9998 27.9055C37.3463 27.9055 44.0991 29.7236 44.1109 31.9548Z" fill="black" fill-opacity="0.2"/>
</g>
<path d="M20.7242 27.5986C19.2603 25.4972 18.9769 18.65 22.3887 14.4354C24.0769 12.4167 24.5137 11.0118 24.6436 9.11113C24.738 6.95071 23.1207 0.516694 29.2123 0.0326666C35.3866 -0.463166 35.0443 5.62849 35.0089 8.85141C34.9852 11.5667 37.004 13.1132 38.397 15.2382C40.9589 19.134 40.7464 25.8396 37.913 29.4757C34.3241 34.0208 31.2547 32.0493 29.2123 32.2146C25.3873 32.4389 25.2575 34.4694 20.7242 27.5986Z" fill="black"/>
<path d="M35.6229 15.6395C36.6854 16.6193 39.4361 20.9992 35.0798 23.7381C33.5451 24.6943 36.4493 28.3304 37.8423 26.5714C40.3097 23.4075 38.7395 18.3547 37.252 16.5485C36.2604 15.2735 34.7256 14.7777 35.6229 15.6395Z" fill="url(#paint0_linear_202_15017)"/>
<path d="M35.3275 15.0492C37.0747 16.4658 40.2504 21.4242 35.6108 24.6589C34.0879 25.6624 36.9566 28.8381 38.574 27.2207C44.1816 21.5776 38.4323 15.0964 36.449 12.8652C34.6782 10.9172 33.108 13.3138 35.3275 15.0492Z" fill="black"/>
<path fill-rule="evenodd" clip-rule="evenodd" d="M35.2186 12.078C35.602 12.1014 36.0464 12.3287 36.4957 12.823L36.4962 12.8235L36.4961 12.8235C37.4872 13.9385 39.4281 16.1245 40.4171 18.7414C40.9119 20.0507 41.1695 21.4708 40.9489 22.9203C40.7281 24.3706 40.0292 25.8457 38.6188 27.265L38.6186 27.2652C38.1982 27.6857 37.6941 27.795 37.2035 27.7057C36.7155 27.617 36.242 27.3325 35.8709 26.9675C35.5002 26.6027 35.2255 26.1513 35.1424 25.722C35.0587 25.2894 35.1699 24.8748 35.5757 24.607C36.7259 23.8049 37.388 22.8989 37.7104 21.9714C38.0331 21.0432 38.0173 20.0884 37.8033 19.1869C37.3746 17.3814 36.1529 15.7994 35.2885 15.0984C34.1652 14.2198 33.9795 13.1541 34.3379 12.5442C34.5177 12.2382 34.8326 12.0543 35.2186 12.078ZM34.4462 12.6078C34.1318 13.1429 34.2707 14.143 35.3664 14.9998L35.3672 15.0005L35.3672 15.0005C36.2501 15.7163 37.4895 17.3215 37.9255 19.1578C38.1438 20.0773 38.1613 21.0571 37.8291 22.0126C37.4968 22.9687 36.8162 23.8953 35.6469 24.7105L35.6456 24.7114L35.6456 24.7114C35.2906 24.9453 35.1894 25.3038 35.2658 25.6981C35.3428 26.0958 35.6008 26.5255 35.9591 26.8779C36.317 27.23 36.7687 27.499 37.226 27.5821C37.6805 27.6648 38.1415 27.5646 38.5297 27.1764C39.923 25.7743 40.6083 24.3231 40.8247 22.9014C41.0412 21.4788 40.789 20.081 40.2995 18.7858C39.32 16.1937 37.3948 14.0236 36.4025 12.9072C35.9665 12.4277 35.5505 12.2242 35.2109 12.2034C34.8739 12.1827 34.6029 12.3412 34.4462 12.6078Z" fill="black"/>
<path d="M32.8128 3.11382C32.7537 4.73118 30.9711 6.13604 28.8343 6.2659C26.6975 6.39576 25.0211 5.16798 25.0801 3.55062C25.1392 1.93326 26.9218 0.528404 29.0586 0.398543C31.1954 0.280488 32.8718 1.49646 32.8128 3.11382Z" fill="url(#paint1_linear_202_15017)"/>
<path d="M27.7011 6.96256C27.7602 8.01326 27.2643 8.89867 26.5796 8.93409C25.8949 8.96951 25.2928 8.15492 25.2338 7.10423C25.1747 6.05354 25.6706 5.16812 26.3553 5.1327C27.04 5.09729 27.6421 5.91187 27.7011 6.96256Z" fill="url(#paint2_linear_202_15017)"/>
<path d="M28.9406 7.0452C28.9643 8.26117 29.7552 9.22922 30.6997 9.20561C31.6441 9.182 32.3879 8.17853 32.3643 6.95075C32.3406 5.73478 31.5497 4.76673 30.6052 4.79034C29.6608 4.81395 28.9052 5.82923 28.9406 7.0452Z" fill="url(#paint3_linear_202_15017)"/>
<path d="M29.72 7.31671C29.7082 7.98963 30.0388 8.53269 30.4756 8.53269C30.9006 8.53269 31.2666 7.98963 31.2784 7.32852C31.2902 6.6556 30.9596 6.11255 30.5228 6.11255C30.086 6.11255 29.7318 6.6556 29.72 7.31671Z" fill="black"/>
<path d="M26.9927 7.32855C27.0517 7.88341 26.8392 8.35564 26.5323 8.40286C26.2254 8.43827 25.9302 8.02508 25.8712 7.47022C25.8122 6.91536 26.0247 6.44314 26.3316 6.39592C26.6386 6.3605 26.9337 6.77369 26.9927 7.32855Z" fill="black"/>
<path d="M29.8971 6.93887C29.8617 7.31665 30.0388 7.62359 30.2867 7.64721C30.5346 7.67082 30.7707 7.37568 30.8061 7.00971C30.8415 6.63193 30.6645 6.32498 30.4165 6.30137C30.1686 6.27776 29.9325 6.5729 29.8971 6.93887Z" fill="url(#paint4_linear_202_15017)"/>
<path d="M26.733 7.0333C26.7684 7.34024 26.6386 7.61177 26.4497 7.63538C26.2608 7.65899 26.0837 7.42288 26.0483 7.10413C26.0129 6.79718 26.1428 6.52566 26.3316 6.50205C26.5205 6.47843 26.6976 6.72635 26.733 7.0333Z" fill="url(#paint5_linear_202_15017)"/>
<path d="M23.0141 18.6264C23.8523 16.7257 25.635 13.3847 25.6704 10.7993C25.6704 8.74513 31.8211 8.2493 32.3169 10.3035C32.8127 12.3576 34.0641 15.4271 34.8669 16.9146C35.6697 18.3903 37.9954 23.1007 35.5162 27.209C33.2849 30.8451 26.5204 33.7257 22.9079 26.7132C21.6801 24.2812 21.9044 21.2708 23.0141 18.6264Z" fill="url(#paint6_linear_202_15017)"/>
<path d="M22.2586 17.2096C21.5385 18.5673 20.051 22.1326 23.6871 24.0805C27.5947 26.1583 27.5829 30.4201 22.8843 28.3895C18.5871 26.5596 20.4878 19.1458 21.692 17.3749C22.4711 16.1353 23.6517 14.6124 22.2586 17.2096Z" fill="url(#paint7_linear_202_15017)"/>
<path d="M22.8729 15.6751C21.7277 17.5404 18.9888 21.932 22.6604 24.2223C27.5951 27.2563 26.202 30.2786 21.6923 27.5515C15.3409 23.7501 20.925 16.0765 23.4631 13.1487C26.3673 9.86677 24.018 13.7508 22.8729 15.6751Z" fill="black"/>
<path fill-rule="evenodd" clip-rule="evenodd" d="M24.3742 12.2938C24.1649 12.4958 23.8857 12.7922 23.5234 13.2016C22.256 14.6636 20.2343 17.304 19.3202 20.0478C18.8633 21.4191 18.6854 22.8096 19.0102 24.0892C19.3345 25.3661 20.1616 26.5418 21.7334 27.4825L21.7337 27.4827C22.8554 28.161 23.7756 28.4768 24.446 28.5283C25.119 28.5799 25.5135 28.3663 25.6425 28.0193C25.7754 27.6617 25.6485 27.1148 25.1603 26.4536C24.6753 25.797 23.846 25.0457 22.6181 24.2907L22.6176 24.2904C21.685 23.7086 21.1547 22.9898 20.9068 22.2071C20.6595 21.4262 20.6954 20.5888 20.8818 19.7714C21.2477 18.1675 22.1989 16.6186 22.7739 15.6823C22.784 15.6658 22.794 15.6496 22.8039 15.6335C22.8447 15.565 22.8869 15.494 22.9304 15.421C23.499 14.4666 24.2741 13.1656 24.6132 12.426C24.7053 12.2253 24.7609 12.0748 24.775 11.9858C24.7761 11.9787 24.7769 11.9724 24.7774 11.9668C24.7459 11.9811 24.6992 12.0105 24.6348 12.0613C24.5651 12.1163 24.4788 12.1928 24.3742 12.2938ZM24.8067 11.9571C24.8066 11.9571 24.8058 11.9573 24.8045 11.9572C24.8061 11.957 24.8067 11.957 24.8067 11.9571ZM23.07 15.5007C23.0259 15.5748 22.983 15.6468 22.9417 15.7161L22.9411 15.7171L22.9411 15.7171C22.9324 15.7314 22.9235 15.7458 22.9146 15.7604C22.338 16.6993 21.3984 18.2293 21.0385 19.8071C20.856 20.6071 20.824 21.4136 21.06 22.1586C21.2954 22.9017 21.7995 23.5906 22.7025 24.154C23.9418 24.916 24.7888 25.6801 25.2895 26.3582C25.787 27.0318 25.9553 27.6389 25.7931 28.0753C25.627 28.5222 25.136 28.7424 24.4337 28.6885C23.7287 28.6344 22.7838 28.3054 21.6506 27.6202C20.0468 26.6603 19.1903 25.4513 18.8545 24.1288C18.5194 22.8089 18.7052 21.3853 19.1677 19.997C20.0922 17.222 22.1314 14.5619 23.4022 13.096L23.4028 13.0954L23.4028 13.0954C23.7664 12.6845 24.0489 12.3845 24.2625 12.1782C24.3693 12.0751 24.4598 11.9946 24.5353 11.9351C24.6095 11.8766 24.6737 11.8348 24.7274 11.8135C24.7754 11.7945 24.8537 11.7786 24.9056 11.8417C24.9274 11.8682 24.9352 11.8996 24.9378 11.9259C24.9404 11.9529 24.9383 11.9818 24.9337 12.0109C24.9158 12.1243 24.851 12.2931 24.7593 12.493C24.4163 13.241 23.6369 14.5492 23.07 15.5007Z" fill="black"/>
<path d="M33.9933 19.3465C33.9933 21.4243 31.9982 24.116 28.5746 24.0924C25.0447 24.116 23.5454 21.4243 23.5454 19.3465C23.5454 17.2688 25.8829 15.5806 28.7635 15.5806C31.6558 15.5924 33.9933 17.2688 33.9933 19.3465Z" fill="url(#paint8_linear_202_15017)"/>
<path d="M32.1283 12.8182C32.0929 14.9668 30.688 15.4744 28.9172 15.4744C27.1463 15.4744 25.8595 15.1557 25.7061 12.8182C25.7061 11.3543 27.1463 10.5043 28.9172 10.5043C30.688 10.4925 32.1283 11.3425 32.1283 12.8182Z" fill="url(#paint9_linear_202_15017)"/>
<path d="M21.4204 16.1236C22.5773 14.3645 25.0211 11.6611 21.8808 16.5013C19.3308 20.4916 20.9364 23.0534 21.7628 23.7617C24.1475 25.8867 24.053 27.3152 22.176 26.1937C18.1503 23.7972 18.9885 19.7597 21.4204 16.1236Z" fill="url(#paint10_linear_202_15017)"/>
<path d="M38.1726 16.8438C37.1691 14.7779 33.9817 9.5362 38.3261 15.6279C42.281 21.1411 39.5066 24.9779 39.0108 25.3556C38.515 25.7334 36.8504 26.5008 37.3344 25.1667C37.8303 23.8327 40.2858 21.3063 38.1726 16.8438Z" fill="url(#paint11_linear_202_15017)"/>
<path d="M20.547 33.1355C17.9025 31.7306 14.0657 33.407 15.4588 29.6056C15.7421 28.7438 15.0456 27.4452 15.4942 26.607C16.0255 25.5799 17.1706 25.8042 17.8553 25.1195C18.5282 24.4112 18.9532 23.1834 20.2164 23.3723C21.4678 23.5612 22.306 25.0959 23.1796 26.9848C23.8289 28.3306 26.1192 30.2313 25.9657 31.7424C25.7768 34.0563 23.1442 34.4931 20.547 33.1355Z" fill="url(#paint12_linear_202_15017)"/>
<path fill-rule="evenodd" clip-rule="evenodd" d="M18.649 24.766C18.4996 24.9712 18.3335 25.1993 18.1465 25.3961L18.143 25.3999L18.1393 25.4035C17.7781 25.7647 17.3038 25.9252 16.9344 26.0502C16.8705 26.0719 16.8098 26.0924 16.7533 26.1128C16.3414 26.2612 16.0448 26.4168 15.851 26.7915L15.8497 26.794L15.8484 26.7965C15.6975 27.0785 15.7251 27.4743 15.8115 28.0363C15.8179 28.0773 15.8244 28.1192 15.8311 28.1618C15.8664 28.3862 15.9047 28.6297 15.9214 28.8624C15.9415 29.1412 15.9348 29.4439 15.8404 29.731L15.8383 29.7374L15.836 29.7438C15.4953 30.6733 15.5279 31.1389 15.6516 31.3797C15.7677 31.6057 16.0335 31.7643 16.5705 31.8758C16.8295 31.9296 17.1238 31.9671 17.4526 32.0042C17.5249 32.0124 17.599 32.0206 17.6744 32.0289C17.9364 32.0577 18.2152 32.0884 18.4963 32.1279C19.2213 32.2298 20.0114 32.3963 20.7342 32.7799C21.9771 33.4294 23.1851 33.6251 24.0704 33.4239C24.5085 33.3244 24.8583 33.1306 25.1074 32.8567C25.3547 32.5849 25.5244 32.2105 25.5653 31.7096L25.5656 31.7057L25.566 31.7017C25.5935 31.4303 25.5134 31.1078 25.3262 30.7286C25.1403 30.352 24.8668 29.9552 24.5542 29.5451C24.3738 29.3085 24.1971 29.0884 24.0201 28.8679C23.8787 28.6916 23.737 28.5151 23.5931 28.3297C23.2881 27.9369 23 27.5371 22.8177 27.1593L22.8163 27.1563L22.8149 27.1533C22.3778 26.2083 21.9647 25.3865 21.5165 24.7796C21.0668 24.1707 20.6274 23.8406 20.1567 23.7695C19.6985 23.7011 19.3998 23.872 19.1077 24.184C18.9535 24.3486 18.8123 24.5417 18.6552 24.7575L18.649 24.766ZM18.5212 23.6347C18.9256 23.203 19.471 22.8545 20.2758 22.9749L20.2763 22.9749C21.0569 23.0928 21.6622 23.6245 22.1628 24.3023C22.6644 24.9815 23.1067 25.8703 23.5428 26.813C23.6853 27.1074 23.9264 27.4489 24.2277 27.837C24.3498 27.9942 24.4884 28.1671 24.6314 28.3456C24.8202 28.5813 25.0168 28.8266 25.1931 29.058C25.515 29.4802 25.826 29.9259 26.0466 30.3728C26.2653 30.8158 26.4137 31.2961 26.3658 31.7789C26.3116 32.4332 26.0816 32.9798 25.7017 33.3974C25.3229 33.8139 24.8168 34.0783 24.2485 34.2074C23.1212 34.4636 21.7147 34.1992 20.3608 33.4914L20.3596 33.4908L20.3584 33.4902C19.7593 33.1719 19.0786 33.0212 18.3844 32.9236C18.1165 32.8859 17.8538 32.857 17.5939 32.8284C17.5165 32.8198 17.4394 32.8114 17.3625 32.8027C17.0325 32.7654 16.7058 32.7245 16.4071 32.6625C15.8284 32.5423 15.231 32.3194 14.9368 31.7468C14.6509 31.1901 14.7253 30.4421 15.0789 29.4744C15.1247 29.3315 15.1366 29.1504 15.12 28.9202C15.1059 28.7241 15.0739 28.5202 15.0387 28.2955C15.0317 28.2506 15.0246 28.205 15.0174 28.1585C14.9387 27.6469 14.8425 26.9756 15.1386 26.4199C15.4761 25.7693 16.017 25.524 16.481 25.3568C16.5625 25.3274 16.6397 25.3007 16.713 25.2753C17.0813 25.1476 17.3504 25.0543 17.5677 24.8388C17.7132 24.6849 17.8495 24.4989 18.0057 24.2845L18.0138 24.2733C18.1631 24.0684 18.3306 23.8382 18.5212 23.6347Z" fill="#E68C3F"/>
<path d="M39.802 24.2103C39.4006 24.9658 37.7242 26.1818 36.6027 25.863C35.4694 25.5561 34.9499 23.8325 35.1742 22.5221C35.3867 21.0582 36.6027 20.9755 38.1374 21.7075C39.7902 22.5221 40.286 23.2068 39.802 24.2103Z" fill="url(#paint13_linear_202_15017)"/>
<path d="M38.881 32.486C40.8171 30.1367 45.1262 30.6208 42.222 27.3979C41.6081 26.7013 41.797 25.2138 41.0415 24.5763C40.156 23.7972 39.1762 24.4347 38.279 24.0333C37.3817 23.5965 36.4373 22.7583 35.3394 23.3486C34.2415 23.9506 34.1234 25.509 34.0172 27.5631C33.9227 29.0388 32.5769 31.5062 33.297 32.8638C34.3359 34.9652 37.0394 34.6819 38.881 32.486Z" fill="url(#paint14_linear_202_15017)"/>
<path fill-rule="evenodd" clip-rule="evenodd" d="M38.4486 23.6691C38.7334 23.7947 39.0197 23.7841 39.4118 23.7695C39.4884 23.7667 39.569 23.7637 39.6544 23.7615C40.1509 23.749 40.7454 23.7825 41.3038 24.2721C41.7977 24.6912 41.9582 25.3614 42.0764 25.8749C42.0859 25.9164 42.0952 25.9572 42.1043 25.9972C42.1569 26.2281 42.2043 26.4363 42.2669 26.6286C42.3393 26.8514 42.4211 27.0156 42.5221 27.1308C43.2541 27.9435 43.6345 28.6258 43.5985 29.2456C43.5602 29.9046 43.0698 30.3154 42.5738 30.6139C42.3169 30.7684 42.0246 30.9127 41.7295 31.0553C41.6845 31.0771 41.6394 31.0988 41.5942 31.1205C41.3377 31.2441 41.0776 31.3694 40.8168 31.508C40.2037 31.8339 39.6256 32.2144 39.191 32.7417L39.1899 32.743L39.1888 32.7443C38.2159 33.9044 36.987 34.5939 35.8199 34.687C34.6314 34.7818 33.5363 34.2501 32.9392 33.0469C32.7139 32.6188 32.6627 32.1293 32.6913 31.6467C32.7201 31.1609 32.8319 30.6483 32.9633 30.1546C33.0379 29.8741 33.1253 29.5771 33.2092 29.2923C33.2687 29.0905 33.3264 28.8947 33.3764 28.7152C33.5036 28.2588 33.5949 27.8634 33.616 27.5399C33.6686 26.5228 33.7254 25.5798 33.9165 24.8141C34.1095 24.0404 34.4574 23.374 35.1461 22.9963L35.1476 22.9955L35.1491 22.9947C35.8352 22.6259 36.4765 22.7143 37.031 22.9318C37.3017 23.0379 37.5589 23.1771 37.7929 23.3091C37.8447 23.3384 37.8951 23.3671 37.9443 23.3951C38.1227 23.4966 38.2857 23.5895 38.4486 23.6691ZM35.5311 23.7017C35.1227 23.9263 34.863 24.3399 34.6962 25.0087C34.5273 25.6855 34.4719 26.5479 34.4184 27.584L34.4182 27.5864L34.4181 27.5889C34.3916 28.0028 34.2794 28.4683 34.1505 28.9309C34.0923 29.1398 34.0326 29.342 33.973 29.5436C33.8936 29.8124 33.8146 30.0801 33.7399 30.3611C33.6129 30.8383 33.5175 31.2894 33.4935 31.6942C33.4694 32.1002 33.5196 32.4261 33.6519 32.6756L33.6546 32.6807L33.6571 32.6858C34.0995 33.5806 34.8743 33.9563 35.756 33.8859C36.6603 33.8138 37.7035 33.2642 38.572 32.2292C39.1054 31.5826 39.7914 31.143 40.4396 30.7984C40.7158 30.6516 40.9921 30.5186 41.2483 30.3952C41.2928 30.3738 41.3367 30.3527 41.3799 30.3318C41.6766 30.1884 41.9381 30.0586 42.1594 29.9254C42.6196 29.6484 42.7829 29.429 42.7963 29.199C42.8119 28.9301 42.6425 28.4648 41.9235 27.6669L41.922 27.6653L41.9205 27.6636C41.7151 27.4306 41.5907 27.1481 41.5026 26.8771C41.4278 26.647 41.3713 26.398 41.3193 26.1692C41.3105 26.1305 41.3018 26.0925 41.2932 26.0551C41.1638 25.4926 41.0414 25.1021 40.7823 24.8835L40.7791 24.8808L40.776 24.878C40.4498 24.591 40.1129 24.5538 39.6747 24.5649C39.615 24.5664 39.5513 24.5692 39.4844 24.5722C39.0923 24.5897 38.5889 24.6122 38.1148 24.4001L38.1089 24.3975L38.103 24.3946C37.9124 24.3018 37.7179 24.191 37.5345 24.0865C37.4882 24.0602 37.4427 24.0342 37.3981 24.009C37.1683 23.8794 36.9525 23.7641 36.7377 23.6799C36.3217 23.5168 35.9423 23.4812 35.5311 23.7017Z" fill="#E68C3F"/>
<path d="M38.0427 29.3459C41.0413 24.9188 38.8101 24.9542 38.0545 24.6119C37.299 24.2577 36.508 23.5612 35.6226 24.0452C34.7372 24.541 34.69 25.816 34.6664 27.4924C34.6309 28.6966 33.6275 30.7153 34.2295 31.8369C34.9615 33.1473 36.7323 31.2466 38.0427 29.3459Z" fill="url(#paint15_linear_202_15017)"/>
<path d="M19.9329 29.9833C15.4468 27.0791 17.5482 26.0874 18.2211 25.627C19.0357 25.0367 19.0475 23.9034 20.0509 24.0097C21.0544 24.1159 21.6447 25.3555 22.3176 26.8902C22.8134 27.9881 24.5371 29.452 24.4072 30.7152C24.2419 32.2027 21.869 31.2229 19.9329 29.9833Z" fill="url(#paint16_linear_202_15017)"/>
<path d="M39.542 24.175C39.1879 24.7888 37.7476 25.7569 36.7913 25.4972C35.8115 25.2493 35.3629 23.868 35.5636 22.8291C35.7407 21.6486 36.7913 21.5895 38.1136 22.1798C39.5184 22.8173 39.9552 23.3604 39.542 24.175Z" fill="black"/>
<path d="M38.5742 23.8327C38.3499 24.2577 37.4055 24.9306 36.7443 24.7535C36.0832 24.5764 35.7527 23.6202 35.8589 22.9C35.9534 22.0855 36.6617 22.0382 37.5589 22.4396C38.527 22.8882 38.8339 23.266 38.5742 23.8327Z" fill="url(#paint17_linear_202_15017)"/>
<path d="M26.3671 8.42646C26.8393 7.98965 27.9845 6.65563 30.1567 8.04868C30.5581 8.3084 30.8886 8.33201 31.656 8.66257C33.2025 9.30007 32.4706 10.8348 30.8178 11.3542C30.1095 11.5785 29.472 12.4403 28.197 12.3577C27.099 12.2987 26.8157 11.5785 26.1428 11.189C24.9504 10.516 24.7734 9.60701 25.4227 9.12299C26.072 8.63896 26.3199 8.46187 26.3671 8.42646Z" fill="url(#paint18_linear_202_15017)"/>
<path fill-rule="evenodd" clip-rule="evenodd" d="M26.6356 8.50405C26.5986 8.53938 26.5637 8.57274 26.5307 8.60331L26.5216 8.61175L26.5116 8.6192C26.5024 8.62615 26.482 8.64098 26.4489 8.6651C26.3334 8.74919 26.0629 8.94621 25.5666 9.31615C25.3198 9.50017 25.2412 9.74487 25.3228 10.0154C25.4103 10.3056 25.6949 10.6593 26.2612 10.9789L26.2623 10.9796L26.2635 10.9802C26.4528 11.0898 26.6109 11.2206 26.7535 11.3475C26.8018 11.3906 26.8471 11.432 26.891 11.4721C26.982 11.5553 27.0672 11.6332 27.1619 11.7097C27.4251 11.9224 27.7234 12.0907 28.2098 12.1169L28.2111 12.117L28.2124 12.1171C28.786 12.1542 29.2162 11.9815 29.6 11.7618C29.7294 11.6877 29.8463 11.6128 29.9646 11.5371C30.0291 11.4957 30.0941 11.4541 30.1617 11.4122C30.3444 11.2991 30.538 11.1899 30.7449 11.1243L30.7454 11.1242C31.5276 10.8783 32.0487 10.4044 32.2106 9.96863C32.289 9.75738 32.2828 9.5608 32.195 9.38831C32.1054 9.21235 31.9145 9.02982 31.564 8.88533L31.5623 8.8846L31.5605 8.88385C31.243 8.74709 31.0042 8.66495 30.7972 8.59374C30.7605 8.58109 30.7247 8.56879 30.6897 8.55659C30.4568 8.47545 30.2516 8.3971 30.026 8.25122C28.9921 7.58829 28.2395 7.59302 27.7033 7.77901C27.2185 7.94717 26.8815 8.26915 26.6356 8.50405ZM27.5453 7.32353C28.2427 7.0816 29.1486 7.11582 30.2867 7.84567L30.2875 7.8462C30.4632 7.95988 30.6239 8.02315 30.8483 8.10133C30.8816 8.11294 30.9162 8.12483 30.9523 8.13723C31.1596 8.20852 31.4151 8.29635 31.7495 8.44034C32.1713 8.61456 32.4683 8.86267 32.6246 9.16957C32.7828 9.48037 32.7803 9.81947 32.6625 10.1365C32.4319 10.7573 31.7607 11.3104 30.8903 11.584C30.7431 11.6306 30.5914 11.7132 30.4156 11.8221C30.3603 11.8563 30.3013 11.8941 30.2395 11.9336C30.1145 12.0136 29.9783 12.1007 29.8395 12.1802C29.409 12.4266 28.8834 12.6433 28.1826 12.5982C27.5718 12.5651 27.1799 12.344 26.8589 12.0847C26.7526 11.9988 26.6492 11.9043 26.5527 11.8162C26.5114 11.7784 26.4713 11.7418 26.4328 11.7075C26.299 11.5883 26.1697 11.4832 26.023 11.3981C25.3976 11.0449 24.9979 10.6079 24.8612 10.1546C24.7185 9.68145 24.876 9.22963 25.2785 8.92962C25.7794 8.5562 26.0332 8.37146 26.1496 8.28677C26.1785 8.26571 26.199 8.25083 26.2126 8.24078C26.2373 8.2177 26.2647 8.19129 26.2949 8.16225C26.5364 7.92978 26.9527 7.52911 27.5453 7.32353Z" fill="#E68C3F"/>
<path fill-rule="evenodd" clip-rule="evenodd" d="M30.9837 9.76558C31.2268 9.63056 31.4668 9.51675 31.671 9.50562L31.6885 9.82654C31.568 9.83311 31.3889 9.9082 31.1398 10.0465C31.0044 10.1217 30.8637 10.2064 30.7118 10.2977C30.5851 10.3739 30.4506 10.4548 30.3049 10.5387C29.6866 10.8952 28.9339 11.2671 28.1499 11.2671C27.3603 11.2671 26.7352 10.9004 26.2883 10.5478C26.0921 10.393 25.9267 10.2379 25.7975 10.1167C25.7796 10.0999 25.7624 10.0838 25.7459 10.0684C25.6764 10.0035 25.6229 9.95515 25.5813 9.92301C25.5605 9.90702 25.5472 9.89857 25.5397 9.89467C25.5388 9.89418 25.538 9.89382 25.5375 9.89355C25.5408 9.89478 25.5503 9.89761 25.5644 9.89761V9.57621C25.6163 9.57621 25.6601 9.59493 25.6887 9.60991C25.7196 9.62608 25.7497 9.64704 25.7775 9.6685C25.833 9.71125 25.897 9.76984 25.9651 9.83338C25.9822 9.84933 25.9998 9.86581 26.0179 9.88276C26.1475 10.0042 26.3027 10.1497 26.4874 10.2955C26.9083 10.6276 27.4638 10.9457 28.1499 10.9457C28.8415 10.9457 29.5291 10.615 30.1444 10.2603C30.2766 10.1841 30.4092 10.1045 30.5371 10.0276C30.6964 9.93201 30.8485 9.84069 30.9837 9.76558ZM25.5361 9.89299C25.5361 9.89296 25.5366 9.89312 25.5375 9.89355C25.5366 9.89323 25.5361 9.89302 25.5361 9.89299Z" fill="#E68C3F"/>
<path d="M27.0993 8.30822C27.3354 8.09572 28.0792 7.51725 29.059 8.10753C29.2715 8.22558 29.484 8.35544 29.791 8.53253C30.4167 8.8985 30.1097 9.42975 29.3542 9.7603C29.0118 9.90197 28.4451 10.2089 28.0201 10.1853C27.5479 10.1381 27.2292 9.83114 26.9222 9.63044C26.3437 9.25266 26.3792 8.93391 26.6507 8.686C26.8514 8.49711 27.0757 8.32003 27.0993 8.30822Z" fill="url(#paint19_linear_202_15017)"/>
</g>
<defs>
<filter id="filter0_f_202_15017" x="0.888672" y="14.9055" width="56.2222" height="34.0986" filterUnits="userSpaceOnUse" color-interpolation-filters="sRGB">
<feFlood flood-opacity="0" result="BackgroundImageFix"/>
<feBlend mode="normal" in="SourceGraphic" in2="BackgroundImageFix" result="shape"/>
<feGaussianBlur stdDeviation="6.5" result="effect1_foregroundBlur_202_15017"/>
</filter>
<linearGradient id="paint0_linear_202_15017" x1="36.8229" y1="28.8533" x2="37.598" y2="20.1637" gradientUnits="userSpaceOnUse">
<stop stop-color="#FFEED7"/>
<stop offset="1" stop-color="#BDBFC2"/>
</linearGradient>
<linearGradient id="paint1_linear_202_15017" x1="29.2873" y1="0.532099" x2="28.9175" y2="5.73772" gradientUnits="userSpaceOnUse">
<stop stop-color="white" stop-opacity="0.8"/>
<stop offset="1" stop-color="white" stop-opacity="0"/>
</linearGradient>
<linearGradient id="paint2_linear_202_15017" x1="26.5135" y1="8.48819" x2="26.2857" y2="5.51238" gradientUnits="userSpaceOnUse">
<stop stop-color="#FFEED7"/>
<stop offset="1" stop-color="#BDBFC2"/>
</linearGradient>
<linearGradient id="paint3_linear_202_15017" x1="30.6496" y1="8.56526" x2="30.6495" y2="5.39982" gradientUnits="userSpaceOnUse">
<stop stop-color="#FFEED7"/>
<stop offset="1" stop-color="#BDBFC2"/>
</linearGradient>
<linearGradient id="paint4_linear_202_15017" x1="30.3874" y1="6.34188" x2="30.2314" y2="7.55553" gradientUnits="userSpaceOnUse">
<stop stop-color="white" stop-opacity="0.65"/>
<stop offset="1" stop-color="white" stop-opacity="0"/>
</linearGradient>
<linearGradient id="paint5_linear_202_15017" x1="26.36" y1="6.56271" x2="26.5279" y2="7.54567" gradientUnits="userSpaceOnUse">
<stop stop-color="white" stop-opacity="0.65"/>
<stop offset="1" stop-color="white" stop-opacity="0"/>
</linearGradient>
<linearGradient id="paint6_linear_202_15017" x1="29.3519" y1="28.7674" x2="29.3519" y2="17.9333" gradientUnits="userSpaceOnUse">
<stop stop-color="#FFEED7"/>
<stop offset="1" stop-color="#BDBFC2"/>
</linearGradient>
<linearGradient id="paint7_linear_202_15017" x1="23.5895" y1="28.9208" x2="20.8242" y2="19.4938" gradientUnits="userSpaceOnUse">
<stop stop-color="#FFEED7"/>
<stop offset="1" stop-color="#BDBFC2"/>
</linearGradient>
<linearGradient id="paint8_linear_202_15017" x1="28.7528" y1="16.7066" x2="28.7805" y2="23.6391" gradientUnits="userSpaceOnUse">
<stop stop-color="white" stop-opacity="0.8"/>
<stop offset="1" stop-color="white" stop-opacity="0"/>
</linearGradient>
<linearGradient id="paint9_linear_202_15017" x1="28.9125" y1="12.3594" x2="28.9433" y2="15.1159" gradientUnits="userSpaceOnUse">
<stop stop-color="white" stop-opacity="0.65"/>
<stop offset="1" stop-color="white" stop-opacity="0"/>
</linearGradient>
<linearGradient id="paint10_linear_202_15017" x1="21.4679" y1="14.0606" x2="21.4679" y2="24.1764" gradientUnits="userSpaceOnUse">
<stop stop-color="white" stop-opacity="0.65"/>
<stop offset="1" stop-color="white" stop-opacity="0"/>
</linearGradient>
<linearGradient id="paint11_linear_202_15017" x1="38.2536" y1="13.0727" x2="38.2498" y2="22.2128" gradientUnits="userSpaceOnUse">
<stop stop-color="white" stop-opacity="0.65"/>
<stop offset="1" stop-color="white" stop-opacity="0"/>
</linearGradient>
<linearGradient id="paint12_linear_202_15017" x1="20.9429" y1="28.5133" x2="19.4427" y2="33.7209" gradientUnits="userSpaceOnUse">
<stop stop-color="#FFA63F"/>
<stop offset="1" stop-color="#FFFF00"/>
</linearGradient>
<linearGradient id="paint13_linear_202_15017" x1="37.6661" y1="27.9189" x2="37.4518" y2="18.2453" gradientUnits="userSpaceOnUse">
<stop stop-color="#FFEED7"/>
<stop offset="1" stop-color="#BDBFC2"/>
</linearGradient>
<linearGradient id="paint14_linear_202_15017" x1="36.1786" y1="26.939" x2="40.2633" y2="32.7259" gradientUnits="userSpaceOnUse">
<stop stop-color="#FFA63F"/>
<stop offset="1" stop-color="#FFFF00"/>
</linearGradient>
<linearGradient id="paint15_linear_202_15017" x1="37.3295" y1="22.4351" x2="35.9335" y2="29.269" gradientUnits="userSpaceOnUse">
<stop stop-color="white" stop-opacity="0.65"/>
<stop offset="1" stop-color="white" stop-opacity="0"/>
</linearGradient>
<linearGradient id="paint16_linear_202_15017" x1="20.6146" y1="24.1195" x2="20.8905" y2="31.7868" gradientUnits="userSpaceOnUse">
<stop stop-color="white" stop-opacity="0.65"/>
<stop offset="1" stop-color="white" stop-opacity="0"/>
</linearGradient>
<linearGradient id="paint17_linear_202_15017" x1="37.0688" y1="22.311" x2="37.392" y2="24.6053" gradientUnits="userSpaceOnUse">
<stop stop-color="white" stop-opacity="0.65"/>
<stop offset="1" stop-color="white" stop-opacity="0"/>
</linearGradient>
<linearGradient id="paint18_linear_202_15017" x1="28.7587" y1="8.29882" x2="28.7857" y2="12.3332" gradientUnits="userSpaceOnUse">
<stop stop-color="#FFA63F"/>
<stop offset="1" stop-color="#FFFF00"/>
</linearGradient>
<linearGradient id="paint19_linear_202_15017" x1="28.3004" y1="7.91716" x2="28.2931" y2="10.0504" gradientUnits="userSpaceOnUse">
<stop stop-color="white" stop-opacity="0.65"/>
<stop offset="1" stop-color="white" stop-opacity="0"/>
</linearGradient>
<clipPath id="clip0_202_15017">
<rect width="58" height="50" fill="white"/>
</clipPath>
</defs>
</svg>
