<svg width="37" height="36" viewBox="0 0 37 36" fill="none" xmlns="http://www.w3.org/2000/svg">
<g clip-path="url(#clip0_202_9775)">
<path d="M0.0012207 18.0044C0.0012207 19.7604 0.254205 21.4571 0.723049 23.0614L10.654 19.8087C10.5285 19.267 10.4618 18.7028 10.4618 18.1228C10.4618 17.4516 10.553 16.8022 10.7194 16.1836L0.717705 12.9657C0.252096 14.5646 0.0012207 16.2551 0.0012207 18.0044Z" fill="#6A7A55"/>
<path d="M13.1632 12.3802L6.88415 3.84839C4.24687 5.92219 2.20387 8.71697 1.05103 11.9355L11.076 15.161C11.5466 14.0765 12.2653 13.1249 13.1632 12.3802Z" fill="#A09440"/>
<path d="M17.4683 10.677V0.0125732C13.8644 0.117339 10.5266 1.282 7.75464 3.20476L14.0441 11.7508C15.0531 11.1356 16.2189 10.7521 17.4683 10.677Z" fill="#AFA148"/>
<path d="M10.9764 20.8417L1.05786 24.0904C2.2273 27.3452 4.30686 30.1658 6.99097 32.244L13.1125 23.8217C12.1726 23.0281 11.4333 22.0058 10.9764 20.8417Z" fill="#4C5C59"/>
<path d="M7.86694 32.8801C10.6167 34.7569 13.9128 35.8921 17.4684 35.9956V25.568C16.1955 25.4915 15.0096 25.0944 13.9876 24.4587L7.86694 32.8801Z" fill="#48555D"/>
<path d="M28.1471 3.13641C25.3995 1.25794 22.105 0.120144 18.551 0.0135498V10.6906C19.7586 10.7915 20.884 11.1803 21.8595 11.7872L28.1471 3.13641Z" fill="#E3B23B"/>
<path d="M18.551 25.555V35.9953C22.1329 35.8879 25.4512 34.733 28.2118 32.8281L21.9899 24.3739C20.9847 25.0288 19.813 25.4497 18.551 25.555Z" fill="#903024"/>
<path d="M22.8523 23.7192L29.0844 32.1872C31.7609 30.093 33.8282 27.2572 34.9805 23.9896L24.9049 20.7479C24.4703 21.901 23.7605 22.9192 22.8523 23.7192Z" fill="#D65841"/>
<path d="M36.0011 18.0044C36.0011 16.2266 35.7424 14.5095 35.2623 12.8876L25.1311 16.2059C25.2937 16.8178 25.3827 17.4596 25.3827 18.1228C25.3827 18.6674 25.3233 19.1981 25.2125 19.7094L35.3088 22.9579C35.7586 21.384 36.0011 19.7227 36.0011 18.0044Z" fill="#E6703E"/>
<path d="M24.7776 15.1819L34.9242 11.8584C33.7525 8.6329 31.6853 5.83714 29.0226 3.77234L22.7341 12.4244C23.6133 13.1671 24.3164 14.1101 24.7776 15.1819Z" fill="#F4A83A"/>
</g>
<defs>
<clipPath id="clip0_202_9775">
<rect width="37" height="36" fill="white"/>
</clipPath>
</defs>
</svg>
