<svg width="37" height="36" viewBox="0 0 37 36" fill="none" xmlns="http://www.w3.org/2000/svg">
<g clip-path="url(#clip0_202_14034)">
<path d="M23.3357 12.3036L31.572 27.554L28.8413 31.6095H7.18398L4.43432 27.473L12.6694 12.3036H23.3357ZM25.6011 8.50576H10.4096L0.00537109 27.6711L5.14832 35.4073H30.8624L36.0054 27.7698L25.6011 8.50576Z" fill="#497BBB"/>
<path d="M23.0692 21.1653H17.0559L19.2713 15.152H15.7899L11.0546 24.6746H24.9561L23.0692 21.1653Z" fill="#497BBB"/>
<path d="M1.23145 27.8116L7.56123 33.5084H29.0825L35.4123 27.8116H1.23145Z" fill="#497BBB"/>
<path d="M18.0054 0.593536C15.1804 0.593536 12.8903 2.89188 12.8903 5.72762C12.8903 6.02829 12.9213 6.32072 12.9707 6.60683H16.221C16.09 6.34035 16.0102 6.04474 16.0102 5.72762C16.0102 4.62181 16.9034 3.72551 18.0047 3.72551C19.1068 3.72551 19.9993 4.62181 19.9993 5.72762C19.9993 6.04474 19.9189 6.34035 19.7885 6.60683H23.0394C23.0888 6.32072 23.1198 6.02765 23.1198 5.72762C23.1205 2.89188 20.8304 0.593536 18.0054 0.593536Z" fill="#497BBB"/>
</g>
<defs>
<clipPath id="clip0_202_14034">
<rect width="37" height="36" fill="white"/>
</clipPath>
</defs>
</svg>
