<svg width="36" height="34" viewBox="0 0 36 34" fill="none" xmlns="http://www.w3.org/2000/svg">
<g clip-path="url(#clip0_202_15552)">
<path fill-rule="evenodd" clip-rule="evenodd" d="M0.000976562 0.606567H3.35691V22.8778H16.6281V25.6235H0.000976731L0.000976562 0.606567Z" fill="black"/>
<path fill-rule="evenodd" clip-rule="evenodd" d="M25.7806 7.16589C28.0688 6.8608 30.5094 7.31843 32.34 8.84385C34.323 10.2167 35.3908 12.6574 35.5434 14.9455C35.8484 17.6913 35.5434 20.4371 34.0179 22.7252C32.645 24.5557 30.5094 25.7761 28.0688 25.9286C25.7806 26.2337 23.1874 25.7761 21.2044 24.2506C19.3739 22.7252 18.4586 20.4371 18.1535 18.1489C17.8484 15.7083 18.1535 12.9625 19.6789 10.8269C20.8993 8.69131 23.34 7.31843 25.7806 7.16589ZM26.2383 9.75911C27.7637 9.60657 29.4417 10.0642 30.662 11.132C31.7298 12.3523 32.34 13.8778 32.4925 15.4032C32.645 17.0811 32.4925 18.9117 31.7298 20.4371C30.9671 21.9625 29.5942 23.0303 27.9162 23.3354C26.3908 23.6405 24.7128 23.1828 23.645 22.2676C22.4247 21.3523 21.662 19.9794 21.3569 18.6066C21.0518 16.6235 21.2044 14.6405 21.9671 12.81C22.7298 11.132 24.4078 9.91165 26.2383 9.75911Z" fill="black"/>
<path fill-rule="evenodd" clip-rule="evenodd" d="M0.000976562 29.589H36.001V33.4025H0.000976562V29.589Z" fill="#3492FF"/>
</g>
<defs>
<clipPath id="clip0_202_15552">
<rect width="36.001" height="34" fill="white"/>
</clipPath>
</defs>
</svg>
