<svg width="36" height="37" viewBox="0 0 36 37" fill="none" xmlns="http://www.w3.org/2000/svg">
<g clip-path="url(#clip0_202_10618)">
<path d="M28.44 36.0014H7.56004C3.40004 36.0014 0.0400391 32.6414 0.0400391 28.4814V7.5214C0.0400391 3.3614 3.40004 0.00140381 7.56004 0.00140381H28.44C32.6 0.00140381 35.96 3.3614 35.96 7.5214V28.4814C35.96 32.6414 32.6 36.0014 28.44 36.0014Z" fill="#F47721"/>
<path fill-rule="evenodd" clip-rule="evenodd" d="M29.0403 9.72149C28.8603 9.84149 28.6802 9.96149 28.5203 10.0815C28.6003 10.4015 28.6802 10.7215 28.6802 11.0415C29.0802 11.2015 29.4802 11.3615 29.8803 11.4415C29.8269 11.8148 29.7025 12.1882 29.578 12.5615C29.5158 12.7482 29.4536 12.9348 29.4002 13.1215C29.2002 13.0815 28.9803 13.0415 28.7603 13.0015C28.5402 12.9615 28.3202 12.9215 28.1202 12.8815C28.0402 13.0015 27.9402 13.1215 27.8402 13.2415C27.7402 13.3615 27.6403 13.4815 27.5602 13.6015C27.6403 13.8015 27.7403 14.0015 27.8403 14.2015C27.9403 14.4015 28.0402 14.6015 28.1202 14.8015C27.7202 15.2015 27.2402 15.4415 26.6803 15.6815C26.5603 15.5215 26.4403 15.3415 26.3203 15.1615C26.2003 14.9815 26.0802 14.8015 25.9603 14.6415C25.8003 14.6415 25.6402 14.6615 25.4802 14.6815C25.3202 14.7015 25.1603 14.7215 25.0002 14.7215C24.8402 15.1215 24.6803 15.5215 24.6003 15.9215C24.0403 15.8415 23.4803 15.7615 22.9203 15.5215C22.9603 15.3215 23.0003 15.1015 23.0403 14.8815C23.0803 14.6615 23.1203 14.4415 23.1603 14.2415C22.9203 14.0815 22.6803 13.9215 22.4403 13.6815C22.2402 13.7615 22.0403 13.8615 21.8403 13.9615C21.6403 14.0615 21.4403 14.1615 21.2403 14.2415C20.8403 13.7615 20.5203 13.2815 20.3603 12.7215C20.5203 12.6015 20.7003 12.4815 20.8802 12.3615C21.0602 12.2415 21.2402 12.1215 21.4003 12.0015C21.4003 11.8415 21.3803 11.6815 21.3603 11.5215C21.3403 11.3615 21.3203 11.2015 21.3203 11.0415C20.9203 10.9615 20.5203 10.8015 20.1202 10.6415L20.6003 8.96149C20.8003 9.00149 21.0203 9.04149 21.2403 9.08149C21.4603 9.12149 21.6803 9.16149 21.8803 9.20149C22.0402 8.9615 22.2003 8.72148 22.4403 8.48149C22.2003 8.0815 22.0403 7.68151 21.8803 7.28152C22.3603 6.88152 22.8403 6.56149 23.4003 6.40149C23.5203 6.56149 23.6403 6.74149 23.7603 6.92149C23.8803 7.10149 24.0002 7.28149 24.1203 7.44149C24.3603 7.36149 24.6803 7.28149 25.0002 7.28149C25.0802 7.08149 25.1402 6.88149 25.2002 6.6815C25.2602 6.48149 25.3202 6.28149 25.4003 6.08149C25.7736 6.13482 26.1469 6.25927 26.5203 6.38371C26.7069 6.44593 26.8936 6.50815 27.0802 6.56149C27.0402 6.76149 27.0002 6.98149 26.9602 7.20149C26.9202 7.42149 26.8802 7.64149 26.8403 7.84149C27.0454 7.94406 27.2177 8.07952 27.3781 8.2057C27.468 8.27634 27.5541 8.34406 27.6403 8.40149C27.8403 8.32149 28.0203 8.22149 28.2003 8.12149C28.3802 8.02149 28.5602 7.92149 28.7603 7.84149C29.0802 8.32149 29.4002 8.80149 29.5603 9.36149C29.4003 9.48149 29.2202 9.60149 29.0403 9.72149ZM27.4002 11.0414C27.4002 12.3669 26.3257 13.4414 25.0002 13.4414C23.6747 13.4414 22.6002 12.3669 22.6002 11.0414C22.6002 9.71595 23.6747 8.64144 25.0002 8.64144C26.3257 8.64144 27.4002 9.71595 27.4002 11.0414Z" fill="white"/>
<path d="M17.9602 27.2014C19.8802 27.1214 21.1602 28.4814 22.6802 29.2814C24.9202 30.4814 27.0802 30.2414 28.7602 28.2414C29.5602 27.2814 29.9602 26.3214 29.9602 25.2814C29.9602 24.3214 29.5602 23.2814 28.8402 22.4014C27.1602 20.3214 25.0002 20.3214 22.7602 21.4414C21.9602 21.8414 21.2402 22.4814 20.3602 22.8814C18.2802 23.8414 16.2802 23.7614 14.4402 22.0814C12.6002 20.3214 11.9602 18.3214 13.0802 16.0014C13.4802 15.2014 14.0402 14.4014 14.4402 13.6014C15.7202 11.2814 15.9602 8.9614 13.8002 7.1214C12.9202 6.3214 11.8802 6.0014 10.9202 6.0014C9.96021 6.0014 8.92021 6.4014 7.96021 7.1214C5.72021 8.8814 5.48021 11.3614 7.00021 13.5214C9.24021 16.6414 9.48021 19.4414 7.08021 22.5614C5.56021 24.5614 5.56021 26.8814 7.48021 28.7214C8.44021 29.6814 9.48021 30.0814 10.5202 30.0814C11.5602 30.0814 12.6802 29.6814 13.7202 29.0414C15.0802 28.1614 16.2802 27.0414 17.9602 27.2014Z" fill="white"/>
</g>
<defs>
<clipPath id="clip0_202_10618">
<rect width="36" height="37" fill="white"/>
</clipPath>
</defs>
</svg>
