<svg width="30" height="41" viewBox="0 0 30 41" fill="none" xmlns="http://www.w3.org/2000/svg">
<g clip-path="url(#clip0_202_14158)">
<path d="M14.787 0.681674C13.2366 0.682241 11.8129 1.39498 11.0843 2.53535C10.3556 3.67572 10.4407 5.05795 11.3055 6.13022L13.0981 4.63851C13.0388 4.4897 13.0089 4.33387 13.0096 4.17709C13.0096 3.36255 13.802 2.70223 14.7794 2.70223C15.7569 2.70223 16.5492 3.36255 16.5492 4.17709C16.5492 4.99163 15.7569 5.65194 14.7794 5.65194C14.5921 5.65229 14.406 5.62739 14.2282 5.5782L12.4382 7.06991C13.9289 7.91243 15.8986 7.8678 17.3321 6.95902C18.7657 6.05024 19.3429 4.48023 18.7664 3.05822C18.1898 1.6362 16.5882 0.67968 14.787 0.681674Z" fill="#34A853"/>
<path d="M13.1183 10.8689C13.121 9.68818 12.6621 8.53881 11.8111 7.59476L9.48504 9.53103C10.2125 10.6398 9.9507 12.0179 8.8479 12.8853L10.1121 15.46C11.9851 14.4547 13.1174 12.7255 13.1183 10.8689Z" fill="#FBBC04"/>
<path d="M6.61795 13.6478H6.55727C5.13054 13.6479 3.86152 12.8922 3.39946 11.7673C2.9374 10.6424 3.38451 9.39721 4.51204 8.66869C5.63957 7.94018 7.19812 7.88953 8.39031 8.54266L10.6936 6.62323C8.45393 5.11011 5.29106 4.99339 2.89964 6.33561C0.508214 7.67782 -0.55083 10.1641 0.289926 12.4624C1.13068 14.7607 3.67403 16.3319 6.55727 16.3341C7.00216 16.3343 7.44596 16.2976 7.88212 16.2246L6.61795 13.6478Z" fill="#EA4335"/>
<path d="M14.8754 15.8752C13.4196 15.874 11.9715 16.0507 10.5772 16.3998L12.4204 20.1523C13.2227 19.9866 14.0463 19.9031 14.8729 19.9036C19.6624 19.9048 23.7841 22.7251 24.7174 26.6399C25.6508 30.5547 23.1359 34.4738 18.7106 36.0006C14.2853 37.5274 9.18204 36.2368 6.52147 32.9179C3.8609 29.5991 4.38396 25.1762 7.7708 22.354C8.47751 21.7669 9.28431 21.27 10.1651 20.8792L8.3422 17.1372C1.54717 19.9104 -1.67005 26.4905 0.864366 32.4314C3.39878 38.3723 10.8783 41.7834 18.2491 40.3599C25.6199 38.9364 30.5364 33.1313 29.6766 26.867C28.8167 20.6028 22.4542 15.8728 14.888 15.8731L14.8754 15.8752Z" fill="#4285F4"/>
</g>
<defs>
<clipPath id="clip0_202_14158">
<rect width="30" height="41" fill="white"/>
</clipPath>
</defs>
</svg>
