<svg width="41" height="20" viewBox="0 0 41 20" fill="none" xmlns="http://www.w3.org/2000/svg">
<g clip-path="url(#clip0_202_8435)">
<path d="M30.626 0.587769C28.4471 0.587769 25.7622 1.91075 22.3771 4.63447C21.4822 5.37384 20.665 6.07422 19.9646 6.69682C19.3033 6.07422 18.4861 5.37384 17.5522 4.63447C14.2059 1.91075 11.4822 0.587769 9.34204 0.587769C4.20567 0.587769 0.00341797 4.82901 0.00341797 10.0042C0.00341797 15.2181 4.20567 19.4205 9.34204 19.4205C11.5209 19.4205 14.2059 18.0976 17.591 15.3738C18.4859 14.6345 19.303 13.9341 20.0034 13.3115C20.6648 13.9341 21.4819 14.6345 22.4158 15.3738C25.8012 18.0976 28.4859 19.4205 30.6648 19.4205C35.801 19.4205 40.0034 15.1793 40.0034 10.0042C39.9646 4.82901 35.7622 0.587769 30.626 0.587769ZM14.595 11.6384C11.0541 14.4399 9.57556 14.5957 9.34204 14.5957C6.85184 14.5957 4.82848 12.5333 4.82848 10.0042C4.82848 7.47497 6.85184 5.41262 9.34204 5.41262C9.61434 5.41262 11.0541 5.56817 14.595 8.36988C15.2953 8.91471 15.9569 9.49832 16.5015 10.0042C15.9179 10.51 15.2953 11.0548 14.595 11.6384ZM21.4042 12.222L18.1746 12.0275L17.9023 8.91471L19.9256 6.73581L20.1592 9.84861L23.4277 10.0431L21.4042 12.222ZM30.626 14.5957C30.3537 14.5957 28.914 14.4401 25.3731 11.6384C24.6727 11.0936 24.0111 10.51 23.4665 10.0042C24.0113 9.49832 24.6727 8.95349 25.3343 8.40887C28.8752 5.56838 30.3537 5.41283 30.5872 5.41283C33.0774 5.41283 35.1008 7.47518 35.1008 10.0044C35.1396 12.5333 33.1162 14.5957 30.626 14.5957Z" fill="#BC1B23"/>
</g>
<defs>
<clipPath id="clip0_202_8435">
<rect width="41" height="20" fill="white"/>
</clipPath>
</defs>
</svg>
