<svg width="32" height="36" viewBox="0 0 32 36" fill="none" xmlns="http://www.w3.org/2000/svg">
<g clip-path="url(#clip0_202_15312)">
<path d="M31.6407 9.28413C31.6398 9.02814 31.5028 8.79193 31.2811 8.66394L16.2708 0.0972511C16.0483 -0.0311963 15.7742 -0.0311963 15.5517 0.0972511L0.631263 8.81584C0.408178 8.94464 0.271033 9.18293 0.271731 9.44052L0.361616 26.7213C0.36252 26.9773 0.49945 27.2135 0.721146 27.3415L15.7315 35.9046C15.954 36.033 16.2281 36.033 16.4506 35.9046L31.371 27.186C31.5941 27.0572 31.7313 26.8189 31.7306 26.5613L31.6407 9.28413ZM15.9634 8.95336L22.265 12.5487L22.2848 18.8728L19.8014 17.4562L19.7897 13.9913L15.9787 11.817L12.1865 14.0326L12.1973 17.4958L11.3515 17.9883L9.72376 19.0337L9.70309 12.6098L15.9634 8.95336ZM14.8722 15.9354L13.0881 16.9754L13.0818 14.9162L14.8722 15.9354ZM4.76585 20.6803V15.4267L8.81056 13.0592L8.81955 15.9246L7.2511 16.8414L7.26368 19.2485L9.35435 20.4403L18.8999 14.8676L18.9079 17.7331L9.37052 23.3058L4.76585 20.6803ZM16.0389 27.0557L10.6981 24.0069L13.0476 22.4968L16.0236 24.1938L19.0275 22.4384L21.5145 23.8568L16.0389 27.0557ZM22.6902 23.2384L17.1453 20.0772L19.6081 18.6319L22.6713 20.3756L24.7494 19.1613L24.7368 16.7542L23.1675 15.8554L23.1585 12.9963L27.2364 15.3251V20.5787L22.6902 23.2384Z" fill="#3F5DFF"/>
</g>
<defs>
<clipPath id="clip0_202_15312">
<rect width="32" height="36.0009" fill="white"/>
</clipPath>
</defs>
</svg>
