<svg width="41" height="24" viewBox="0 0 41 24" fill="none" xmlns="http://www.w3.org/2000/svg">
<g clip-path="url(#clip0_202_15216)">
<path d="M38.5012 11.0196C36.5171 17.3784 29.1427 17.0347 24.6275 15.7848C21.6746 14.9723 18.8624 13.4256 16.1439 12.0664C16.2064 11.9882 16.2533 11.9101 16.3158 11.832C16.6595 11.4102 17.4719 10.5196 18.5968 9.47284C20.1592 10.1447 21.7215 10.8633 23.2526 11.5352C28.2834 13.7381 36.7514 14.0506 36.9233 5.87942C37.0483 0.129939 28.2834 -0.635617 23.6588 2.30162C21.8934 3.42652 20.456 4.81701 19.128 6.28563C12.8786 3.94209 4.53557 4.27019 0.129722 9.89468C5.55111 5.37946 11.3162 6.55123 16.9407 8.80103C16.1908 9.67595 15.4408 10.5196 14.6284 11.3477C10.41 9.36348 6.39478 8.19171 2.3014 11.2696C-2.91688 15.2223 1.64521 21.378 7.14471 20.6593C10.5038 20.2219 12.238 17.9877 13.8004 15.5504C17.9406 17.9096 22.4246 21.3624 26.0336 22.6592C35.0016 25.9089 43.5477 17.1753 38.5012 11.0196ZM32.4081 5.16073C33.6892 7.08243 31.3613 9.41035 28.1272 9.17599C25.0806 8.95726 23.3776 7.87924 21.3622 7.05119C25.1587 4.08271 30.002 1.55168 32.4081 5.16073ZM6.19167 17.1753C3.73877 17.1284 4.36371 13.4881 6.59789 13.2225C8.01963 13.0506 9.67573 13.5194 11.4412 14.3318C9.87884 15.8629 7.92589 17.7065 6.19167 17.1753Z" fill="#0664A8"/>
<path d="M6.11288 17.5822C6.40973 17.4885 6.70658 17.3791 6.98781 17.2697C6.72221 17.2853 6.4566 17.2541 6.191 17.176C3.7381 17.1291 4.36304 13.4888 6.59722 13.2232C8.01896 13.0514 9.65944 13.5201 11.4249 14.3169C7.98772 12.1452 4.75363 10.5516 2.31635 11.2703C1.69141 11.739 1.20708 12.2389 0.847737 12.7701C0.113428 15.0668 2.11325 18.9102 6.11288 17.5822Z" fill="url(#paint0_linear_202_15216)"/>
<path d="M24.3923 21.9735C24.9548 22.2547 25.5016 22.4891 26.0328 22.6766C35.0007 25.9106 43.5469 17.1771 38.5004 11.0214C36.5944 18.6457 30.2199 23.6921 24.3923 21.9735Z" fill="url(#paint1_linear_202_15216)"/>
<path d="M30.8141 3.74011C31.4078 4.02134 31.9546 4.49004 32.4077 5.16186C33.6888 7.08356 31.3609 9.41147 28.1268 9.17712C25.0802 8.95839 23.3772 7.88036 21.3618 7.05231C20.3306 7.86474 19.3776 8.70841 18.5652 9.47397C20.1432 10.1458 21.7055 10.8801 23.2366 11.5363C27.4081 13.3486 33.9075 13.8798 36.1417 9.38023C36.6417 6.53673 34.0325 4.33381 30.8141 3.74011Z" fill="url(#paint2_linear_202_15216)"/>
</g>
<defs>
<linearGradient id="paint0_linear_202_15216" x1="2.42953" y1="17.5282" x2="4.12537" y2="12.8682" gradientUnits="userSpaceOnUse">
<stop stop-color="#02364F"/>
<stop offset="1" stop-color="#0664A8"/>
</linearGradient>
<linearGradient id="paint1_linear_202_15216" x1="24.3892" y1="17.1919" x2="40.0001" y2="17.1919" gradientUnits="userSpaceOnUse">
<stop stop-color="#02364F"/>
<stop offset="1" stop-color="#0664A8"/>
</linearGradient>
<linearGradient id="paint2_linear_202_15216" x1="34.5718" y1="2.43895" x2="33.1622" y2="7.7052" gradientUnits="userSpaceOnUse">
<stop stop-color="#02364F"/>
<stop offset="1" stop-color="#0664A8"/>
</linearGradient>
<clipPath id="clip0_202_15216">
<rect width="41" height="24" fill="white"/>
</clipPath>
</defs>
</svg>
