<svg width="20" height="41" viewBox="0 0 20 41" fill="none" xmlns="http://www.w3.org/2000/svg">
<g clip-path="url(#clip0_202_13000)">
<path d="M1.22606 11.0997C1.39181 11.0997 1.5602 11.0644 1.72028 10.99L19.2742 2.82799C19.8622 2.55456 20.1172 1.85634 19.8438 1.26844C19.5705 0.680538 18.872 0.425537 18.2843 0.698886L0.730362 8.86094C0.142382 9.13429 -0.112619 9.83251 0.160808 10.4204C0.359677 10.8482 0.783461 11.0997 1.22606 11.0997ZM18.2843 5.68837L0.730385 13.8504C0.142405 14.1238 -0.112595 14.8219 0.160831 15.4098C0.359623 15.8376 0.783406 16.0891 1.22608 16.0891C1.39183 16.0891 1.56015 16.0539 1.7203 15.9794L19.2742 7.81747C19.8622 7.54404 20.1172 6.84582 19.8438 6.25792C19.5705 5.67002 18.8721 5.41502 18.2843 5.68837ZM18.2843 10.7198L0.730385 18.8818C0.142405 19.1552 -0.112595 19.8533 0.160831 20.4412C0.359623 20.869 0.783406 21.1205 1.22608 21.1205C1.39183 21.1205 1.56015 21.0853 1.7203 21.0108L19.2742 12.8489C19.8622 12.5754 20.1172 11.8772 19.8438 11.2893C19.5705 10.7014 18.8721 10.4464 18.2843 10.7198ZM1.22606 6.12419C1.3922 6.12419 1.56098 6.08874 1.72152 6.01395L9.81368 2.24041C10.4014 1.96643 10.6555 1.2679 10.3815 0.680235C10.1074 0.0925664 9.40887 -0.161424 8.82128 0.112391L0.729118 3.88594C0.141527 4.15999 -0.112697 4.85852 0.161274 5.44611C0.360532 5.87331 0.783927 6.12419 1.22606 6.12419ZM18.2798 15.7113L12.0744 18.6284C11.6628 18.8219 11.3999 19.236 11.3999 19.6909V25.5507H8.68853V21.1762C8.68853 20.5278 8.16298 20.0022 7.51459 20.0022C6.86613 20.0022 6.34058 20.5278 6.34058 21.1762V25.5507H4.65804C4.15845 25.5507 3.78054 26.0027 3.86909 26.4945L4.26512 28.6927C4.33384 29.0745 4.66612 29.3522 5.05407 29.3522H9.17311L4.81011 30.1444C4.49112 30.2023 4.2795 30.5079 4.33742 30.8268C4.38896 31.1102 4.63604 31.3091 4.91436 31.3091C4.94919 31.3091 4.98449 31.306 5.01994 31.2995L15.0268 29.4824C15.1826 29.4542 15.312 29.3663 15.3978 29.2471C15.605 29.1295 15.757 28.9227 15.7954 28.673L16.1349 26.4747C16.2099 25.989 15.8342 25.5507 15.3427 25.5507H13.7479V20.4363L19.2788 17.8362C19.8655 17.5604 20.1175 16.861 19.8417 16.2743C19.566 15.6878 18.8669 15.4354 18.2798 15.7113ZM14.8171 31.3184L4.81021 33.1352C4.49114 33.1931 4.27952 33.4987 4.33744 33.8176C4.38891 34.1011 4.63598 34.2999 4.91438 34.2999C4.94906 34.2999 4.98443 34.2968 5.0198 34.2903L15.0267 32.4734C15.3457 32.4156 15.5573 32.11 15.4994 31.7911C15.4415 31.4722 15.1363 31.2595 14.8171 31.3184ZM14.8171 34.4211L4.81021 36.2379C4.49114 36.2958 4.27952 36.6014 4.33744 36.9203C4.38891 37.2038 4.63598 37.4026 4.91438 37.4026C4.94906 37.4026 4.98443 37.3995 5.0198 37.393L15.0267 35.5761C15.3457 35.5183 15.5573 35.2127 15.4994 34.8938C15.4415 34.5749 15.1363 34.3622 14.8171 34.4211ZM13.6203 37.5507L6.15709 38.8366C5.83764 38.8915 5.62322 39.1952 5.67826 39.5147C5.72747 39.8004 5.97555 40.0022 6.25605 40.0022C6.28917 40.0022 6.32268 39.9992 6.35634 39.9935L13.8196 38.7077C14.1391 38.6526 14.3535 38.349 14.2985 38.0294C14.2435 37.7102 13.9404 37.4968 13.6203 37.5507Z" fill="#E54537"/>
</g>
<defs>
<clipPath id="clip0_202_13000">
<rect width="20" height="41" fill="white"/>
</clipPath>
</defs>
</svg>
