<svg width="33" height="24" viewBox="0 0 33 24" fill="none" xmlns="http://www.w3.org/2000/svg">
<g clip-path="url(#clip0_202_8336)">
<path d="M0.00219727 1.07082H4.8647V14.1146C4.8647 16.1833 5.8022 17.4146 6.5647 17.9271C5.77095 18.6208 3.3647 19.2333 1.5522 17.7521C0.489697 16.8771 0.00219727 15.4208 0.00219727 14.0646V1.07082ZM30.3709 11.9146V10.5396H31.8584V5.73957H30.2272C29.5959 2.84582 27.0272 0.695816 23.9584 0.695816C20.4209 0.695816 17.5397 3.57082 17.5397 7.11457V18.3146C18.5397 18.4583 19.7522 18.2958 20.7709 17.4396C21.8397 16.5646 22.3209 15.1146 22.3209 13.7521V13.3333H24.7459V8.53332H22.3209V7.07707C22.3209 4.91457 25.5834 4.91457 25.5834 7.07707V11.8958C25.5834 15.4333 28.4584 18.3146 32.0022 18.3146V13.5333C31.0959 13.5333 30.3709 12.8021 30.3709 11.9146ZM11.9772 5.72707V12.7896C11.9772 13.7521 10.4897 13.7521 10.4897 12.7896V5.72707H5.6897V14.0208C5.6897 15.5083 6.1897 17.3958 8.5022 18.0146C10.8147 18.6271 12.1397 17.3521 12.1397 17.3521C12.0084 18.1896 11.2334 18.8083 9.95845 18.9333C8.9897 19.0333 7.75845 18.7083 7.14595 18.4458V22.8396C8.7147 23.3083 10.3647 23.4521 11.9959 23.1333C14.9397 22.5646 16.7959 20.1083 16.7959 16.8333V5.69582H11.9772V5.72707Z" fill="#FF00BF"/>
</g>
<defs>
<clipPath id="clip0_202_8336">
<rect width="33" height="24" fill="white"/>
</clipPath>
</defs>
</svg>
