<svg width="31" height="36" viewBox="0 0 31 36" fill="none" xmlns="http://www.w3.org/2000/svg">
<g clip-path="url(#clip0_202_9938)">
<path d="M9.19845 8.38994C6.4248 8.38994 3.48777 10.0801 1.62903 12.9536C1.61747 12.971 1.60531 12.9897 1.59361 13.009L1.57959 13.0321V13.1561L28.3622 13.158L28.3894 13.1348C28.7939 12.7905 29.2468 12.477 29.7492 12.2007L29.8501 12.1452L29.7783 12.0553C27.9258 9.7358 25.3199 8.38772 22.8523 8.38772C21.2248 8.38772 20.0667 8.77634 19.0408 9.16168C18.9479 9.19659 18.8562 9.23142 18.7654 9.26589C17.8522 9.61257 17.0338 9.92326 16.0372 9.92326C14.9581 9.92326 14.0014 9.58086 12.9799 9.21529C12.9306 9.19765 12.8812 9.17996 12.8316 9.16224C11.7572 8.77869 10.6093 8.38994 9.19845 8.38994Z" fill="#61BB46"/>
<path d="M22.2413 0.0891035L22.2282 0.000427246L22.1388 0.00658347C20.1982 0.140169 17.9391 1.37684 16.6184 2.98573C15.4242 4.44225 14.428 6.61353 14.816 8.73417L14.83 8.81119L14.9083 8.81363C17.0323 8.87996 19.2181 7.60914 20.4862 5.97524C21.6655 4.45432 22.5686 2.29968 22.2413 0.0891035Z" fill="#61BB46"/>
<path fill-rule="evenodd" clip-rule="evenodd" d="M1.58147 13.0172C0.787337 14.2665 0.237858 16.0572 0.092041 17.6279L25.8555 17.6272C26.134 15.9089 27.0603 14.2672 28.5284 13.0191L1.58147 13.0172H1.58299L1.58147 13.0172Z" fill="#FDB827"/>
<path d="M25.8509 17.6428L25.8691 17.5303L0.105634 17.531L0.0960729 17.6173C-0.0622232 19.0455 -0.0213005 20.6007 0.230244 22.2126L0.326034 22.2052L0.32603 22.2946L26.4962 22.2956L26.4361 22.1594C25.8112 20.7451 25.6039 19.1628 25.8509 17.6428Z" fill="#F5821F"/>
<path d="M26.4106 22.1017L0.212891 22.1007L0.230307 22.2126C0.46289 23.7064 0.875898 25.2493 1.47844 26.7854V26.864L30.6253 26.8659L30.6792 26.7463C30.7284 26.6374 30.7792 26.5247 30.8315 26.4078L30.8736 26.314L30.7774 26.2776C28.7041 25.4911 27.2319 23.9612 26.4362 22.1595L26.4106 22.1017Z" fill="#E03A3E"/>
<path d="M30.6595 26.6719L1.43311 26.67L1.48516 26.8024C2.04937 28.2378 2.7794 29.6677 3.68108 31.0468L3.68123 31.047C3.75641 31.1613 3.83278 31.2765 3.90987 31.3918L3.93867 31.4349L28.0607 31.4327L28.0895 31.3904C28.2344 31.1783 28.3734 30.9683 28.5078 30.7634L28.5078 30.7633C29.5086 29.2337 29.9287 28.4032 30.6509 26.8089L30.6595 26.7898V26.6719Z" fill="#963D97"/>
<path d="M28.0897 31.3902L28.1926 31.2388L3.80884 31.241L3.90993 31.3919C4.65036 32.4971 5.51022 33.641 6.50147 34.512C7.49297 35.3833 8.62355 35.9883 9.90378 36.0002C11.0141 36.0106 11.7566 35.6783 12.5407 35.3274C12.5984 35.3016 12.6563 35.2756 12.7146 35.2498C13.5622 34.8733 14.5057 34.495 16.0711 34.4862C17.6358 34.4776 18.5631 34.8543 19.3945 35.2334C19.4569 35.2618 19.5189 35.2904 19.5807 35.3188C20.3444 35.6704 21.0715 36.0051 22.175 35.9951C23.4047 35.9835 24.5181 35.3668 25.5028 34.4914C26.4879 33.6158 27.3537 32.4729 28.0897 31.3902Z" fill="#009DDC"/>
</g>
<defs>
<clipPath id="clip0_202_9938">
<rect width="31" height="36.0004" fill="white"/>
</clipPath>
</defs>
</svg>
