<svg width="37" height="28" viewBox="0 0 37 28" fill="none" xmlns="http://www.w3.org/2000/svg">
<g clip-path="url(#clip0_202_9354)">
<path d="M22.8694 19.9067H13.135V2.41272H22.8694V19.9067Z" fill="#6C6BBD"/>
<path d="M13.7529 11.16C13.7529 7.61128 15.4144 4.45018 18.0019 2.41304C16.1098 0.923384 13.7218 0.034256 11.1265 0.034256C4.98258 0.034256 0.00219727 5.01535 0.00219727 11.16C0.00219727 17.3047 4.98258 22.2858 11.1265 22.2858C13.7218 22.2858 16.1098 21.3966 18.0019 19.907C15.4144 17.8698 13.7529 14.7087 13.7529 11.16Z" fill="#D32011"/>
<path d="M36.0021 11.16C36.0021 17.3047 31.0217 22.2858 24.8778 22.2858C22.2825 22.2858 19.8946 21.3966 18.0017 19.907C20.5899 17.8698 22.2514 14.7087 22.2514 11.16C22.2514 7.61128 20.5899 4.45018 18.0017 2.41304C19.8946 0.923384 22.2825 0.034256 24.8778 0.034256C31.0217 0.034256 36.0021 5.01535 36.0021 11.16Z" fill="#0099DF"/>
<path d="M26.1631 24.85C26.2926 24.85 26.4786 24.8747 26.6208 24.9306L26.4227 25.5361C26.2869 25.4802 26.1511 25.4618 26.0209 25.4618C25.6008 25.4618 25.3907 25.7334 25.3907 26.2215V27.8781H24.7477V24.9242H25.3843V25.2829C25.5513 25.0233 25.7925 24.85 26.1631 24.85ZM23.7879 25.5113H22.7375V26.8461C22.7375 27.1425 22.8422 27.3405 23.164 27.3405C23.3309 27.3405 23.541 27.2846 23.732 27.1736L23.9173 27.7232C23.7136 27.8654 23.3925 27.9524 23.1145 27.9524C22.3541 27.9524 22.0888 27.5442 22.0888 26.8581V25.5113H21.489V24.9242H22.0888V24.028H22.7375V24.9242H23.7879V25.5113ZM15.5622 26.1416C15.6308 25.715 15.8897 25.4243 16.3474 25.4243C16.7612 25.4243 17.0271 25.6839 17.095 26.1416H15.5622ZM17.7628 26.4012C17.7564 25.4802 17.1877 24.85 16.3594 24.85C15.4943 24.85 14.8888 25.4802 14.8888 26.4012C14.8888 27.3398 15.5191 27.9517 16.4032 27.9517C16.8482 27.9517 17.2556 27.8406 17.6142 27.5379L17.2987 27.0618C17.0519 27.2599 16.7364 27.3709 16.44 27.3709C16.0262 27.3709 15.6492 27.1792 15.5566 26.648H17.75C17.7564 26.5674 17.7628 26.4875 17.7628 26.4012ZM20.5865 25.6783C20.4075 25.5665 20.0432 25.4243 19.6662 25.4243C19.3139 25.4243 19.1039 25.5545 19.1039 25.7709C19.1039 25.9683 19.326 26.0242 19.604 26.0609L19.9067 26.1041C20.5497 26.1975 20.9387 26.4691 20.9387 26.9883C20.9387 27.5506 20.4443 27.9524 19.5919 27.9524C19.1095 27.9524 18.6646 27.8286 18.3124 27.569L18.6151 27.0682C18.8315 27.2351 19.1534 27.3773 19.5983 27.3773C20.0368 27.3773 20.2717 27.2479 20.2717 27.0187C20.2717 26.8524 20.1048 26.7591 19.7525 26.7103L19.4498 26.6671C18.7884 26.5738 18.4298 26.2774 18.4298 25.7957C18.4298 25.2086 18.9122 24.85 19.6598 24.85C20.1295 24.85 20.556 24.9554 20.8644 25.1591L20.5865 25.6783ZM28.5122 25.4604C28.3799 25.4604 28.2576 25.4837 28.1437 25.5297C28.0305 25.5764 27.9322 25.6415 27.8494 25.7249C27.7667 25.8084 27.7016 25.9089 27.6542 26.0256C27.6068 26.1423 27.5835 26.271 27.5835 26.4111C27.5835 26.5518 27.6068 26.6799 27.6542 26.7966C27.7016 26.9133 27.7667 27.0137 27.8494 27.0972C27.9322 27.1807 28.0305 27.2457 28.1437 27.2924C28.2576 27.3391 28.3799 27.3617 28.5122 27.3617C28.6445 27.3617 28.7676 27.3391 28.8807 27.2924C28.9946 27.2457 29.0936 27.1807 29.1764 27.0972C29.2606 27.0137 29.3256 26.9133 29.3737 26.7966C29.4211 26.6799 29.4445 26.5518 29.4445 26.4111C29.4445 26.271 29.4211 26.1423 29.3737 26.0256C29.3256 25.9089 29.2606 25.8084 29.1764 25.7249C29.0936 25.6415 28.9946 25.5764 28.8807 25.5297C28.7676 25.4837 28.6445 25.4604 28.5122 25.4604ZM28.5122 24.85C28.7414 24.85 28.9536 24.8896 29.1488 24.9695C29.344 25.0487 29.5131 25.1584 29.6553 25.2977C29.7981 25.4371 29.9092 25.6019 29.9898 25.7914C30.0705 25.9817 30.1108 26.1883 30.1108 26.4111C30.1108 26.6339 30.0705 26.8404 29.9898 27.0307C29.9092 27.2203 29.7981 27.3858 29.6553 27.5251C29.5131 27.6645 29.344 27.7734 29.1488 27.8533C28.9536 27.9326 28.7414 27.9722 28.5122 27.9722C28.283 27.9722 28.0708 27.9326 27.8756 27.8533C27.6804 27.7734 27.5127 27.6645 27.3713 27.5251C27.2298 27.3858 27.1187 27.2203 27.0381 27.0307C26.9575 26.8404 26.9171 26.6339 26.9171 26.4111C26.9171 26.1883 26.9575 25.9817 27.0381 25.7914C27.1187 25.6019 27.2298 25.4371 27.3713 25.2977C27.5127 25.1584 27.6804 25.0487 27.8756 24.9695C28.0708 24.8896 28.283 24.85 28.5122 24.85ZM11.8077 26.4012C11.8077 25.882 12.1479 25.4555 12.7039 25.4555C13.2351 25.4555 13.5937 25.8636 13.5937 26.4012C13.5937 26.9387 13.2351 27.3462 12.7039 27.3462C12.1479 27.3462 11.8077 26.9204 11.8077 26.4012ZM14.1992 26.4012V24.9242H13.5569V25.2829C13.3525 25.0169 13.0441 24.85 12.6239 24.85C11.7956 24.85 11.147 25.4986 11.147 26.4012C11.147 27.303 11.7956 27.9524 12.6239 27.9524C13.0441 27.9524 13.3525 27.7854 13.5569 27.5195V27.8781H14.1992V26.4012ZM10.5783 27.8781V26.0242C10.5783 25.326 10.1334 24.8563 9.41684 24.85C9.03983 24.8436 8.65009 24.961 8.37847 25.3755C8.17475 25.048 7.85291 24.85 7.40163 24.85C7.08686 24.85 6.77776 24.9426 6.53655 25.2885V24.9242H5.89429V27.8781H6.54292V26.2406C6.54292 25.7278 6.82727 25.4555 7.26582 25.4555C7.69235 25.4555 7.90879 25.7334 7.90879 26.2342V27.8781H8.55742V26.2406C8.55742 25.7278 8.85451 25.4555 9.28033 25.4555C9.71958 25.4555 9.92966 25.7334 9.92966 26.2342V27.8781H10.5783Z" fill="#110F0D"/>
</g>
<defs>
<clipPath id="clip0_202_9354">
<rect width="37" height="28" fill="white"/>
</clipPath>
</defs>
</svg>
