<svg width="37" height="37" viewBox="0 0 37 37" fill="none" xmlns="http://www.w3.org/2000/svg">
<g clip-path="url(#clip0_202_13087)">
<path d="M18.0642 11.2646C14.3362 11.2646 11.1898 14.2845 11.1898 18.117C11.1732 19.939 11.8921 21.6912 13.1849 22.9796C14.4778 24.268 16.236 24.9845 18.0642 24.968C21.7923 24.968 24.9372 21.948 24.9372 18.117C24.9372 14.2845 21.7923 11.2646 18.0642 11.2646ZM7.34567 17.9999C7.34567 12.1941 12.1225 7.43354 17.9482 7.43354C23.7724 7.43354 28.5492 12.1941 28.5492 17.9999C28.5492 18.3483 28.5492 18.8138 28.4332 19.1622C28.3157 20.206 29.1324 21.0184 30.1812 21.0184C31.9291 21.0184 32.1612 18.8138 32.1612 17.9999C32.1612 10.2193 25.7525 3.83242 17.9482 3.83242C10.141 3.83242 3.73509 10.2193 3.73509 17.9999C3.73509 25.7819 10.141 32.1674 17.9482 32.1674C22.1419 32.1674 25.87 30.4253 28.4332 27.5225L31.3446 29.9613C28.1996 33.6781 23.3067 36.0013 18.0628 36.0013C13.2679 36.0161 8.66525 34.1239 5.27542 30.7443C1.8856 27.3647 -0.0112239 22.777 0.0054805 17.9985C0.0054805 8.12892 8.04343 0.00140381 18.0642 0.00140381C27.9661 0.00140381 36.0054 8.13035 36.0054 18.0013C36.0054 21.9494 34.1413 25.2021 30.2972 25.2021C28.6653 25.2021 27.6179 24.3882 27.0348 23.5758C25.1708 26.5958 21.7909 28.5691 17.9467 28.5691C15.1319 28.5786 12.4295 27.4684 10.4391 25.4848C8.44866 23.5012 7.33468 20.808 7.34424 18.0027L7.34567 17.9999ZM18.0628 14.8643C19.8108 14.8643 21.2092 16.2579 21.2092 17.9999C21.2092 19.7419 19.8108 21.1356 18.0642 21.1356C17.2287 21.139 16.4264 20.8097 15.8356 20.2209C15.2448 19.6321 14.9144 18.8326 14.9178 17.9999C14.9178 16.2579 16.3162 14.8643 18.0642 14.8643H18.0628Z" fill="#C02428"/>
</g>
<defs>
<clipPath id="clip0_202_13087">
<rect width="37" height="37" fill="white"/>
</clipPath>
</defs>
</svg>
