<svg width="41" height="26" viewBox="0 0 41 26" fill="none" xmlns="http://www.w3.org/2000/svg">
<g clip-path="url(#clip0_202_8243)">
<path d="M3.33911 25.3567V18.7684H23.3391V25.3567H3.33911Z" fill="#393E42"/>
<path d="M0.00610352 25.3571V0.651245H6.67316L13.339 7.23948L20.0061 0.651245H26.6732C26.6732 0.651245 40.0061 0.651245 40.0061 13.0042C40.0061 25.3571 26.6732 25.3571 26.6732 25.3571H20.0061V8.88654L13.339 15.4748L6.67316 8.88654V25.3571H0.00610352ZM26.6732 7.23948V18.7689C26.6732 18.7689 33.2026 18.7689 33.339 13.0042C33.4767 7.23948 26.6732 7.23948 26.6732 7.23948Z" fill="#60676F"/>
<path d="M39.499 9.14637C39.8225 10.2758 40.006 11.5546 40.006 13.004C40.006 25.357 26.6731 25.357 26.6731 25.357V3.94519C26.6731 3.94519 34.699 5.31813 39.499 9.14637ZM26.6731 7.23931V18.7687C26.6731 18.7687 33.2025 18.7687 33.339 13.004C33.4766 7.23931 26.6731 7.23931 26.6731 7.23931Z" fill="url(#paint0_linear_202_8243)"/>
</g>
<defs>
<linearGradient id="paint0_linear_202_8243" x1="33.3396" y1="11.1729" x2="22.4101" y2="20.1897" gradientUnits="userSpaceOnUse">
<stop stop-color="#60676F"/>
<stop offset="1" stop-color="#303439"/>
</linearGradient>
<clipPath id="clip0_202_8243">
<rect width="41" height="26" fill="white"/>
</clipPath>
</defs>
</svg>
