<svg width="34" height="41" viewBox="0 0 34 41" fill="none" xmlns="http://www.w3.org/2000/svg">
<g clip-path="url(#clip0_202_11768)">
<path d="M20.0476 24.857C20.142 24.81 20.2403 24.7881 20.3363 24.7881C20.6865 24.7881 21.0071 25.076 21.0071 25.4589L21.006 37.8814L17.3577 39.8955C17.1382 40.042 16.837 40.042 16.5931 39.8955L12.9421 37.8789L12.9244 37.8695V25.4752C12.9244 24.9708 13.4445 24.6538 13.8838 24.8736L16.6324 26.2395C16.8193 26.3369 17.0388 26.3369 17.234 26.2395L20.0476 24.857ZM7.11713 14.008C7.11713 13.3652 7.63977 12.9109 8.20588 12.9109C8.38831 12.9109 8.57516 12.958 8.75039 13.0613L16.3631 17.341C16.6897 17.5375 17.1133 17.5375 17.4402 17.341L25.119 13.1277C25.8692 12.7014 26.7523 13.2246 26.7523 14.0744L26.816 34.7643L23.5522 36.5166V20.3113C23.5522 19.8487 23.2505 19.467 22.8601 19.2953C22.7469 19.2455 22.6165 19.2206 22.4781 19.2206C22.4394 19.2206 22.3979 19.2206 22.3563 19.2289C22.276 19.2289 22.1875 19.2455 22.1041 19.287C22.0629 19.2953 22.0241 19.3203 21.9826 19.3369L17.4039 21.5875C17.2517 21.6788 17.0717 21.7173 16.9001 21.701C16.7451 21.701 16.6011 21.6705 16.4627 21.5875C16.4544 21.5875 16.4378 21.5875 16.4295 21.5792L11.9477 19.359C11.8757 19.3286 11.801 19.2953 11.7373 19.2787C11.2972 19.1819 10.8432 19.3673 10.5913 19.7106C10.5747 19.7272 10.5664 19.741 10.5581 19.7576C10.5248 19.8075 10.4999 19.8487 10.4778 19.9044C10.4446 19.9708 10.4279 20.0345 10.4113 20.1175C10.3947 20.1898 10.3864 20.2615 10.3864 20.3445V36.5114L7.1365 34.756L7.11713 34.7449V14.008ZM32.1147 0.00537109H32.1512C32.7237 0.0145063 33.2383 0.465454 33.2383 1.09966V30.7614C33.2383 31.1075 33.0473 31.4258 32.7428 31.5919L30.0022 33.0563L29.9856 33.0646V7.67148C29.9856 6.82163 29.1053 6.29843 28.3856 6.72197L17.4731 12.8647C17.1465 13.028 16.7229 13.028 16.3935 12.8647L5.58075 6.72197C4.86073 6.29843 3.9807 6.85485 3.9807 7.67148V33.048L1.25675 31.5919C0.95224 31.4258 0.76123 31.1075 0.76123 30.7614V1.09966C0.76123 0.465731 1.27612 0.0145063 1.8486 0.00537109H1.88514C2.06591 0.00841617 2.25165 0.0557532 2.42772 0.155687L16.4461 8.58777C16.7728 8.78431 17.2268 8.78431 17.5534 8.58777L31.5718 0.155687C31.7479 0.0557532 31.9336 0.00841617 32.1147 0.00537109Z" fill="url(#paint0_linear_202_11768)"/>
<path d="M22.8782 19.3311C23.2686 19.5019 23.5695 19.8842 23.5695 20.3476V36.546L21.0243 37.9118V25.4948C21.0243 25.0071 20.5039 24.6735 20.0646 24.893L17.2512 26.2755C17.0561 26.3729 16.8365 26.3729 16.6494 26.2755L13.9008 24.9094C13.4618 24.6898 12.9413 25.0071 12.9413 25.5112V37.9118L10.4042 36.546V20.3802C10.4042 20.2988 10.4125 20.2255 10.4286 20.1524C10.4449 20.071 10.4613 20.006 10.4937 19.9409C10.5183 19.8842 10.5424 19.8435 10.575 19.7945C10.5831 19.7784 10.5914 19.7621 10.6077 19.7457C10.8596 19.4044 11.315 19.2173 11.754 19.3147C11.8191 19.3311 11.8925 19.3637 11.9655 19.3961L16.4462 21.616C16.4542 21.6243 16.4706 21.6243 16.4786 21.6243C16.617 21.7057 16.7632 21.7381 16.9177 21.7381C17.0885 21.7544 17.2673 21.7137 17.422 21.6243L22.0002 19.3718C22.0409 19.3554 22.0815 19.3311 22.1222 19.323C22.2033 19.2823 22.2928 19.266 22.3741 19.266C22.4148 19.258 22.4555 19.258 22.4962 19.258C22.6344 19.258 22.7645 19.2823 22.8782 19.3311ZM28.4028 6.75918C29.1215 6.33425 30.0037 6.85718 30.0037 7.70647V33.0927L26.8343 34.7918L26.7693 14.1103C26.7693 13.2607 25.8871 12.7383 25.1355 13.163L17.4575 17.3776C17.1308 17.5736 16.7062 17.5736 16.3795 17.3776L8.76683 13.0974C8.04791 12.6727 7.13328 13.1954 7.13328 14.0449V34.7918L3.99658 33.0927V7.70647C3.99658 6.88984 4.87882 6.33425 5.59746 6.75918L16.4122 12.9014C16.7388 13.0647 17.1635 13.0647 17.4904 12.9014L28.4028 6.75918Z" fill="white"/>
</g>
<defs>
<linearGradient id="paint0_linear_202_11768" x1="0.76123" y1="18.4662" x2="33.2383" y2="18.4662" gradientUnits="userSpaceOnUse">
<stop stop-color="#3933FF"/>
<stop offset="1" stop-color="#944DFF"/>
</linearGradient>
<clipPath id="clip0_202_11768">
<rect width="34" height="41" fill="white"/>
</clipPath>
</defs>
</svg>
