<svg width="37" height="36" viewBox="0 0 37 36" fill="none" xmlns="http://www.w3.org/2000/svg">
<g clip-path="url(#clip0_202_13105)">
<path d="M18.0024 0.193634C27.9439 0.193634 36.0024 8.16544 36.0024 18C36.0024 27.8346 27.9439 35.8064 18.0024 35.8064C8.06093 35.8064 0.00244141 27.8346 0.00244141 18C0.00244141 8.16544 8.06093 0.193634 18.0024 0.193634ZM26.2634 9.8279C22.6796 6.30268 17.0103 6.16247 13.5885 9.54748C7.53652 15.5343 9.32116 26.0803 9.39497 26.4997L9.39727 26.5126C9.39727 26.5126 20.3916 28.4555 26.5469 22.3665C29.9687 18.9815 29.8472 13.3531 26.2634 9.8279ZM20.0677 10.6291L21.8292 14.2144L25.4535 15.957L21.8292 17.6996L20.0677 21.2849L18.3062 17.6996L14.6819 15.957L18.3062 14.2144L20.0677 10.6291Z" fill="#485160"/>
</g>
<defs>
<clipPath id="clip0_202_13105">
<rect width="37" height="36" fill="white"/>
</clipPath>
</defs>
</svg>
