<svg width="37" height="36" viewBox="0 0 37 36" fill="none" xmlns="http://www.w3.org/2000/svg">
<g clip-path="url(#clip0_202_14168)">
<path d="M36.0032 18C36.0032 27.9411 27.9442 36 18.0032 36C8.06211 36 0.00317383 27.9411 0.00317383 18C0.00317383 8.05894 8.06211 0 18.0032 0C27.9442 0 36.0032 8.05894 36.0032 18Z" fill="#4CD960"/>
<path d="M11.4436 21.7595C11.3731 21.6878 11.2577 21.6872 11.1866 21.7582L8.20385 24.7396L8.39679 25.6551C8.69942 27.2304 10.236 28.3198 11.8114 28.0172L16.3818 27.139C16.5056 27.1152 16.5532 26.963 16.4647 26.873L11.4436 21.7595Z" fill="white"/>
<path d="M10.5519 21.0765C10.6267 21.0018 10.6274 20.8809 10.5533 20.8055L7.15999 17.35C7.02654 17.2142 6.79803 17.3342 6.83403 17.5212L7.93638 23.2588C7.96549 23.4101 8.15182 23.4675 8.26095 23.3588L10.5519 21.0765Z" fill="white"/>
<path d="M15.9143 15.4065C16.004 15.4976 16.1507 15.4983 16.2413 15.408L21.5814 10.0879C21.7074 9.96231 21.5947 9.74927 21.4199 9.78288L12.4694 11.5026C12.328 11.5297 12.2737 11.7037 12.3748 11.8065L15.9143 15.4065Z" fill="white"/>
<path d="M26.229 16.4315L29.6628 19.8865C29.7753 19.9997 29.9664 19.8992 29.9369 19.7424L28.8403 13.9135C28.8162 13.7859 28.6594 13.737 28.5672 13.8282L26.2304 16.1363C26.1483 16.2173 26.1477 16.3496 26.229 16.4315Z" fill="white"/>
<path d="M21.5982 11.703L25.2721 15.461C25.3598 15.5508 25.504 15.552 25.5933 15.4636L28.5656 12.5215L28.3782 11.406C28.0754 9.83069 26.5904 8.78936 25.0152 9.09213L23.6802 9.3333L21.6012 11.3833C21.5125 11.4709 21.5111 11.6138 21.5982 11.703Z" fill="white"/>
<path d="M11.4848 20.0718L15.2293 16.4131C15.3281 16.3166 15.3296 16.1584 15.2329 16.0601L11.0574 11.8134L8.78365 12.2108C7.29696 12.4964 6.28657 13.8024 6.43184 15.2813L11.1328 20.0682C11.2291 20.1662 11.3865 20.1678 11.4848 20.0718Z" fill="white"/>
<path d="M20.8649 20.2068L24.6793 16.4246C24.7435 16.361 24.744 16.2575 24.6806 16.1933L20.8794 12.3362C20.8155 12.2715 20.7112 12.2711 20.6469 12.3355L16.8534 16.129C16.7899 16.1926 16.7893 16.2955 16.8524 16.3596L20.6329 20.2053C20.6964 20.2701 20.8005 20.2707 20.8649 20.2068Z" fill="white"/>
<path d="M20.8615 21.7782C20.7904 21.7053 20.6735 21.7046 20.6014 21.7765L16.7993 25.5687C16.7278 25.6402 16.7277 25.7559 16.799 25.8275L17.8053 26.837L24.1953 25.607C24.3407 25.579 24.3967 25.4005 24.2932 25.2945L20.8615 21.7782Z" fill="white"/>
<path d="M30.3365 21.9375L25.5843 17.1146C25.5023 17.0314 25.3683 17.0311 25.2859 17.1139L21.5639 20.8551C21.4828 20.9367 21.4824 21.0685 21.5631 21.1506L25.6516 25.3098L28.0428 24.8503C29.4565 24.5787 30.3682 23.3327 30.3365 21.9375Z" fill="white"/>
<path d="M16.024 19.9063C15.4372 19.9063 14.9614 20.3819 14.9614 20.9688C14.9614 21.5556 15.4372 22.0313 16.024 22.0313C16.6108 22.0313 17.0864 21.5556 17.0864 20.9688C17.0864 20.3819 16.6108 19.9063 16.024 19.9063Z" fill="white"/>
<path d="M12.9743 10.8543L13.8577 10.6614C13.9564 10.6398 14.0292 10.5559 14.0367 10.4552L14.024 10.0522C14.0479 9.73366 14.2094 9.40656 14.4162 9.16328C14.6592 8.87739 14.9423 8.65352 15.3012 8.58109L17.4367 8.14361C17.9184 8.04644 18.6073 8.27088 18.9823 8.67714C19.2249 8.94672 19.3586 9.22938 19.4226 9.39531C19.4551 9.47941 19.5422 9.52891 19.6309 9.51274L20.4969 9.35453C20.6004 9.33555 20.6686 9.23472 20.6455 9.13192C20.5943 8.90383 20.4377 8.47492 19.9615 7.86461C19.451 7.17709 18.1692 6.7427 17.2399 6.9303L15.1368 7.3547C14.0904 7.56592 13.1595 8.33331 12.9094 9.40628C12.7692 9.8342 12.7649 10.4033 12.7743 10.6989C12.7777 10.8018 12.8736 10.8764 12.9743 10.8543Z" fill="white"/>
</g>
<defs>
<clipPath id="clip0_202_14168">
<rect width="37" height="36" fill="white"/>
</clipPath>
</defs>
</svg>
