<svg width="37" height="36" viewBox="0 0 37 36" fill="none" xmlns="http://www.w3.org/2000/svg">
<g clip-path="url(#clip0_202_9472)">
<path d="M24.5528 14.5583L35.8542 17.8937C36.0527 17.9526 36.0527 18.0474 35.8542 18.1061L22.5128 22.0439C22.3143 22.1024 22.1057 22.3108 22.047 22.5095L18.1091 35.8512C18.08 35.9503 18.0414 36 18.0031 36C17.9647 36 17.9263 35.9503 17.897 35.8512L14.8687 25.5908L21.4129 21.4808L21.699 21.3012L24.5528 14.5583ZM5.43183 20.5539L6.64639 20.9123L6.39543 29.4161L8.04419 28.855L8.26418 21.3899L9.47804 21.7484L9.28116 28.4342L14.3132 26.7219L14.6598 27.8969L9.24234 29.7403L9.21022 30.8428L15.0071 29.0727L15.3535 30.247L7.93628 32.5118L8.00537 30.1615L5.11987 31.1434L5.43183 20.5539ZM30.5745 20.5539L30.8862 31.1434L27.9712 30.1514L28.0407 32.5118L20.6503 30.2553L20.9969 29.0815L26.7668 30.8428L26.7342 29.7301L21.3461 27.8969L21.6932 26.7219L26.6958 28.4238L26.499 21.7569L27.7133 21.3985L27.9328 28.8451L29.6109 29.4161L29.3604 20.9123L30.5745 20.5539ZM25.6906 9.12028L20.843 20.5728L10.3113 27.1866L15.1592 15.734L25.6906 9.12028ZM18.0031 0C18.0414 0 18.08 0.0494512 18.1091 0.148816L21.2135 10.666L14.3032 15.0057L11.5649 21.4745L6.02848 19.8406L5.45794 19.6721L0.151874 18.1061C-0.0463929 18.0474 -0.0463929 17.9526 0.151874 17.8937L13.4938 13.9559C13.692 13.8974 13.9007 13.6892 13.9592 13.4905L17.897 0.148816C17.9263 0.0494512 17.9647 0 18.0031 0ZM19.4794 16.4693C18.6988 15.6885 17.4332 15.6885 16.6524 16.4693C15.8716 17.2497 15.8716 18.5155 16.6524 19.2964C17.4332 20.077 18.6988 20.077 19.4794 19.2964C20.2603 18.5155 20.2603 17.2497 19.4794 16.4693ZM7.93628 3.25384L15.417 5.53784L15.0704 6.71196L9.21022 4.9227L9.26037 6.63547L14.611 8.26967L14.2642 9.44379L9.2985 7.92698L9.48475 14.2496L8.27088 14.6082L8.06291 7.54962L6.39451 7.04009L6.63183 15.0919L5.41796 15.4503L5.12056 5.371L8.02478 6.25789L7.93628 3.25384ZM28.0407 3.25384L27.9518 6.26713L30.8856 5.371L30.5884 15.4503L29.3743 15.0919L29.6118 7.04009L27.9139 7.55864L27.7064 14.5997L26.4925 14.241L26.6783 7.93599L21.7419 9.44379L21.3958 8.26967L26.7162 6.64448L26.7668 4.9227L20.9334 6.70364L20.5868 5.52975L28.0407 3.25384Z" fill="#54485B"/>
</g>
<defs>
<clipPath id="clip0_202_9472">
<rect width="37" height="36" fill="white"/>
</clipPath>
</defs>
</svg>
