<svg width="30" height="37" viewBox="0 0 30 37" fill="none" xmlns="http://www.w3.org/2000/svg">
<g clip-path="url(#clip0_202_15836)">
<path d="M17.6492 16.3018L21.0255 8.31562C21.0655 8.21967 21.1775 8.17429 21.2742 8.21447C21.3706 8.25445 21.4167 8.3648 21.3762 8.46095L18.4006 15.4979L17.6492 16.3018Z" fill="#939598"/>
<path d="M20.5619 12.2389C20.5619 12.2389 18.9461 14.3565 17.8056 15.5799C16.6642 16.8037 15.001 18.7332 15.001 18.7332V23.0471C15.013 23.0463 15.024 23.0439 15.036 23.0439C15.3118 23.0439 15.5353 23.2648 15.5353 23.5376C15.5353 23.8107 15.3116 24.032 15.036 24.032C15.024 24.032 15.013 24.0292 15.001 24.0282V28.3805C15.001 28.3805 17.0956 26.9572 18.6128 25.5802C20.3236 24.0276 22.2249 21.6032 22.2249 21.6032L20.5619 12.2391V12.2389Z" fill="#931A2B"/>
<path d="M13.8148 4.34476L13.7992 6.02655L7.69556 8.47137L7.8029 6.97709L13.815 4.34436L13.8148 4.34476Z" fill="#A7A9AC"/>
<path d="M22.2944 6.91708L22.4133 8.41075L16.2789 6.01511L16.2499 4.33392L22.2944 6.91708ZM15.0299 3.81178L15.0363 5.52955L6.10761 2.04223L6.29292 0.0767822L15.0299 3.81178ZM6.29292 0.0767822L6.10761 2.04223L4.92358 2.74089L5.12828 0.821822L6.29292 0.0767822Z" fill="#BCBEC0"/>
<path d="M23.7272 0.0045166L23.9271 1.96877L15.0364 5.53045L15.0298 3.81248L23.7272 0.0045166Z" fill="#A7A9AC"/>
<path d="M24.9005 0.739961L25.1202 2.65763L23.9272 1.96857L23.7273 0.0045166L24.9005 0.739961Z" fill="#BCBEC0"/>
<path d="M8.91086 8.81525L7.69544 8.47182L13.7993 6.027L4.92358 2.74259L6.10761 2.04372L15.0363 5.53104L23.9272 1.96936L25.1202 2.65843L16.2789 6.0168L22.4133 8.41225L21.2009 8.76568L15.0419 6.48678L8.91086 8.81485V8.81525Z" fill="#808285"/>
<path d="M5.01985 13.7482C5.01345 13.7482 5.00705 13.7482 5.00085 13.7472C4.8965 13.7368 4.82014 13.6453 4.83054 13.5413L5.91861 2.68457C5.92901 2.58162 6.01976 2.50566 6.12651 2.51605C6.23086 2.52605 6.30722 2.61841 6.29683 2.72156L5.20895 13.5783C5.19896 13.6755 5.117 13.7482 5.02025 13.7482H5.01985ZM24.5842 13.7482C24.4848 13.7482 24.4007 13.6711 24.3949 13.5713L23.7372 2.63999C23.7308 2.53604 23.8106 2.44669 23.9155 2.44049C24.0229 2.43349 24.1106 2.51326 24.117 2.61721L24.7741 13.5479C24.7807 13.6519 24.7011 13.741 24.5962 13.7474C24.592 13.748 24.5882 13.748 24.5842 13.7482ZM11.8833 15.933L8.73585 8.51256C8.69527 8.4166 8.74085 8.30586 8.8372 8.26568C8.93435 8.22569 9.0457 8.27087 9.08628 8.36663L12.5798 16.6026L11.8833 15.933Z" fill="#939598"/>
<path d="M14.5373 23.538C14.5373 23.277 14.742 23.0655 15.0011 23.0473V18.7334C15.0011 18.7334 13.3373 16.8037 12.1965 15.5799C11.0558 14.3565 9.43981 12.2389 9.43981 12.2389L7.77661 21.604C7.77661 21.604 9.67769 24.0282 11.3885 25.5808C12.9057 26.9578 15.0007 28.3809 15.0007 28.3809V24.0284C14.7422 24.0102 14.5373 23.7985 14.5373 23.538Z" fill="#A81E2C"/>
<path d="M15.036 23.8198C14.99 23.8198 14.9432 23.8034 14.9068 23.7698L8.356 17.7473L8.354 17.232L15.0348 23.373L21.6308 17.1588L21.6574 17.653L15.1669 23.7676C15.1301 23.8028 15.083 23.82 15.0356 23.82H15.036V23.8198Z" fill="#939598"/>
<path d="M28.7375 13.5565L20.562 12.2391C20.562 12.2391 21.3224 16.5684 21.3224 23.8155C21.3224 31.0634 20.3243 36.0046 20.3243 36.0046L28.5949 35.1102C28.5949 35.1102 29.6402 31.1561 29.6402 24.3326C29.6398 17.5093 28.7371 13.5563 28.7371 13.5563L28.7375 13.5565ZM24.9583 32.6632C24.7352 32.6632 24.5543 32.4845 24.5543 32.2634C24.5543 32.0431 24.735 31.8636 24.9583 31.8636C25.1816 31.8636 25.3621 32.0431 25.3621 32.2634C25.3621 32.4841 25.1818 32.6632 24.9583 32.6632ZM8.67935 23.8153C8.67935 16.5682 9.43978 12.2389 9.43978 12.2389L1.26454 13.5563C1.26454 13.5563 0.361572 17.5095 0.361572 24.333C0.361572 31.1573 1.40707 35.1106 1.40707 35.1106L9.67747 36.0054C9.67747 36.0044 8.67935 31.0636 8.67935 23.8153ZM4.89158 32.637C4.68368 32.637 4.51476 32.4697 4.51476 32.2638C4.51476 32.0577 4.68328 31.8906 4.89138 31.8906C5.09928 31.8906 5.268 32.0577 5.268 32.2634C5.268 32.4689 5.09948 32.6364 4.89138 32.6364L4.89158 32.637Z" fill="#CE2227"/>
<path d="M24.9583 16.3028C25.1647 16.3028 25.332 16.1372 25.332 15.9329C25.332 15.7287 25.1647 15.5631 24.9583 15.5631C24.752 15.5631 24.5847 15.7287 24.5847 15.9329C24.5847 16.1372 24.752 16.3028 24.9583 16.3028Z" fill="#A51724"/>
<path d="M24.9587 32.45C24.9441 32.45 24.9292 32.448 24.9142 32.4444C24.8122 32.4206 24.749 32.3199 24.7732 32.2177C24.779 32.1945 25.3384 29.7891 25.3384 24.2182C25.3384 18.6365 24.7778 15.9966 24.7724 15.971C24.7506 15.869 24.8158 15.7691 24.9182 15.7471C25.0201 15.7251 25.1223 15.7899 25.144 15.8916C25.1498 15.9176 25.7186 18.5973 25.7186 24.2182C25.7186 29.8423 25.1666 32.2065 25.1432 32.3045C25.1223 32.3922 25.0443 32.4502 24.9585 32.4502V32.45H24.9587Z" fill="#939598"/>
<path d="M4.89156 16.3662C5.13356 16.3662 5.32975 16.172 5.32975 15.9324C5.32975 15.6929 5.13356 15.4987 4.89156 15.4987C4.64955 15.4987 4.45337 15.6929 4.45337 15.9324C4.45337 16.172 4.64955 16.3662 4.89156 16.3662Z" fill="#A51724"/>
<path d="M4.89111 32.4514C4.79855 32.4514 4.71759 32.384 4.7032 32.2907C4.6986 32.2595 4.22583 29.0898 4.22583 24.1214C4.22583 19.1528 4.6986 15.9374 4.7032 15.9054C4.71879 15.8024 4.81515 15.7315 4.91909 15.7468C5.02304 15.7618 5.09501 15.8578 5.07962 15.9603C5.07462 15.9923 4.60625 19.1828 4.60625 24.1218C4.60625 29.0628 5.07502 32.2049 5.07942 32.2351C5.09541 32.337 5.02344 32.434 4.91949 32.4494C4.9099 32.4502 4.9003 32.4514 4.89111 32.4514Z" fill="#939598"/>
</g>
<defs>
<clipPath id="clip0_202_15836">
<rect width="30" height="37" fill="white"/>
</clipPath>
</defs>
</svg>
