<svg width="41" height="28" viewBox="0 0 41 28" fill="none" xmlns="http://www.w3.org/2000/svg">
<g clip-path="url(#clip0_202_15167)">
<path d="M39.1242 0.722623C38.506 0.742376 38.7015 0.920497 37.3658 1.24922C36.0169 1.58117 34.3692 1.47938 32.9167 2.08856C28.5806 3.90704 27.7106 10.1223 23.7687 12.3488C20.8222 14.0131 17.8494 14.1458 15.1768 14.9833C13.4204 15.5341 11.499 16.6636 9.90765 18.035C8.67242 19.0998 8.64016 20.0361 7.34954 21.3716C5.96906 22.8002 1.86292 21.3958 0.00195312 23.5822C0.601439 24.1883 0.864258 24.3581 2.04565 24.2008C1.80106 24.6644 0.35924 25.0551 0.641478 25.7371C0.938454 26.4547 4.42417 26.9411 7.59284 25.0281C9.06853 24.1371 10.2439 22.853 12.5422 22.5464C15.5163 22.15 18.9424 22.8007 22.3853 23.2972C21.8748 24.8194 20.8499 25.8316 20.0288 27.044C19.7746 27.3178 20.5395 27.3485 21.4122 27.183C22.9819 26.7948 24.1132 26.4823 25.298 25.7927C26.7534 24.9454 26.974 22.7732 28.7597 22.3031C29.7547 23.8324 32.4609 24.1937 34.1401 22.9705C32.6666 22.5534 32.2594 19.417 32.7568 18.035C33.2279 16.7268 33.6934 14.6342 34.1679 12.9049C34.6773 11.0477 34.8652 8.7069 35.4817 7.76088C36.4092 6.33757 37.4341 5.84881 38.3239 5.04622C39.2136 4.24363 40.028 3.46238 40.0013 1.62589C39.9927 1.03437 39.6869 0.704643 39.1242 0.722623Z" fill="#002B64"/>
<path d="M37.7998 1.81067C37.9479 2.31568 38.1797 2.54745 39.1817 2.64016C39.0354 3.91057 38.1879 4.60543 37.2378 5.27213C36.4016 5.85854 35.4856 6.42322 34.897 7.3392C34.2939 8.27759 33.9111 11.4891 32.9761 14.6607C32.1679 17.4011 30.9474 20.1107 28.816 21.2979C28.5933 20.7375 28.8444 19.7031 28.4015 19.3631C28.1149 20.1803 27.7909 20.9602 27.4114 21.685C26.1607 24.0754 24.309 25.8652 21.2146 26.4117C22.6828 24.4249 24.0868 22.3732 24.1172 18.9488C23.0838 19.1723 23.1058 21.6131 22.0441 22.2656C21.3634 22.3397 20.6739 22.3392 19.9799 22.2975C17.1299 22.1268 14.2063 21.2702 11.5402 22.1257C9.72482 22.7083 8.24017 24.0827 6.70295 24.7494C4.89625 25.533 3.52804 25.8553 1.27821 25.533C0.992546 25.1482 2.92477 24.6516 2.80922 23.8161C1.92872 23.7188 1.41749 23.9321 0.6521 23.5844C0.736601 23.4287 0.860803 23.2989 1.01716 23.1909C2.41998 22.2199 6.40464 22.9616 7.471 21.9145C8.12927 21.2687 8.5611 20.5927 9.00822 19.9355C9.44182 19.2978 9.89006 18.6779 10.5729 18.1193C10.8251 17.913 11.0993 17.7092 11.3902 17.5102C12.554 16.7138 13.9936 15.9914 15.4104 15.4935C17.3404 14.815 19.2961 14.7592 21.3532 13.9731C22.6241 13.4874 24.006 12.8875 25.1325 12.048C25.4 11.8484 25.653 11.6357 25.887 11.4077C29.1036 8.27205 29.7413 2.74085 34.7597 2.22541C35.3665 2.16309 35.8633 2.18327 36.3156 2.16952C36.8368 2.154 37.2981 2.09345 37.7998 1.81067ZM31.6819 19.5136C31.7418 20.4722 32.2983 22.3741 32.7895 22.8363C31.8274 23.0702 30.17 22.6837 29.7448 22.005C29.9633 21.0251 31.1002 20.1293 31.6819 19.5136Z" fill="#C49A6C"/>
<path d="M38.1612 2.88401C37.9677 3.28972 37.5974 3.8128 37.5974 4.84556C37.5958 5.02288 37.4628 5.14434 37.4605 4.87099C37.4705 3.86161 37.7377 3.42525 38.0215 2.85177C38.1534 2.61679 38.2329 2.71374 38.1612 2.88401ZM37.9664 2.73122C37.7382 3.11831 37.1888 3.82437 37.098 4.85328C37.0812 5.02969 36.9377 5.13889 36.9595 4.86622C37.0585 3.86184 37.4975 3.23318 37.8308 2.68672C37.982 2.46446 38.0531 2.56798 37.9664 2.73122ZM37.7888 2.52871C37.5289 2.89513 36.6832 3.7431 36.5063 4.76088C36.4745 4.93501 36.3224 5.03218 36.3671 4.76224C36.5501 3.76943 37.2791 2.98913 37.6571 2.47308C37.8265 2.26399 37.8885 2.37319 37.7888 2.52871ZM37.6304 2.30281L37.5448 2.39378C37.1667 2.79918 36.2882 3.78798 35.9955 4.693C35.9392 4.861 35.775 4.93592 35.8575 4.67484C36.178 3.71767 37.061 2.68672 37.5078 2.22902C37.705 2.04581 37.7509 2.16273 37.6304 2.30281ZM33.0913 4.352C33.2872 3.51039 33.9418 3.12693 35.0717 3.22047C35.3444 4.47664 33.8185 4.98337 33.0913 4.352Z" fill="#002B64"/>
</g>
<defs>
<clipPath id="clip0_202_15167">
<rect width="41" height="28" fill="white"/>
</clipPath>
</defs>
</svg>
