<svg width="37" height="36" viewBox="0 0 37 36" fill="none" xmlns="http://www.w3.org/2000/svg">
<g clip-path="url(#clip0_202_8419)">
<mask id="mask0_202_8419" style="mask-type:alpha" maskUnits="userSpaceOnUse" x="0" y="0" width="37" height="37">
<path d="M18.0054 36.0004C27.9465 36.0004 36.0054 27.9415 36.0054 18.0004C36.0054 8.05926 27.9465 0.000396729 18.0054 0.000396729C8.06423 0.000396729 0.00537109 8.05926 0.00537109 18.0004C0.00537109 27.9415 8.06423 36.0004 18.0054 36.0004Z" fill="black"/>
</mask>
<g mask="url(#mask0_202_8419)">
<path d="M18.0054 36.0004C27.9465 36.0004 36.0054 27.9415 36.0054 18.0004C36.0054 8.05926 27.9465 0.000396729 18.0054 0.000396729C8.06423 0.000396729 0.00537109 8.05926 0.00537109 18.0004C0.00537109 27.9415 8.06423 36.0004 18.0054 36.0004Z" fill="url(#paint0_linear_202_8419)"/>
<g filter="url(#filter0_f_202_8419)">
<path d="M18.0054 0.750397C8.06423 0.750397 0.00537109 8.80926 0.00537109 18.7504C0.00537109 24.1265 2.36227 28.9522 6.09916 32.2504C8.34916 34.5004 13.4403 18.7504 18.0054 18.7504C22.5704 18.7504 27.6616 34.5004 29.9116 32.2504C33.6485 28.9522 36.0054 24.1265 36.0054 18.7504C36.0054 8.80926 27.9465 0.750397 18.0054 0.750397Z" fill="black" fill-opacity="0.32"/>
</g>
<g filter="url(#filter1_f_202_8419)">
<path d="M18.0054 0.142883C8.06423 0.142883 0.00537109 8.20174 0.00537109 18.1429C0.00537109 23.519 2.36227 28.3446 6.09916 31.6429C8.34916 33.8929 13.4403 18.1429 18.0054 18.1429C22.5704 18.1429 27.6616 33.8929 29.9116 31.6429C33.6485 28.3446 36.0054 23.519 36.0054 18.1429C36.0054 8.20174 27.9465 0.142883 18.0054 0.142883Z" fill="black" fill-opacity="0.24"/>
</g>
<path d="M18.0054 0.000396729C8.06423 0.000396729 0.00537109 8.05926 0.00537109 18.0004C0.00537109 23.3765 2.36227 28.2022 6.09916 31.5004C8.34916 33.7504 13.4403 18.0004 18.0054 18.0004C22.5704 18.0004 27.6616 33.7504 29.9116 31.5004C33.6485 28.2022 36.0054 23.3765 36.0054 18.0004C36.0054 8.05926 27.9465 0.000396729 18.0054 0.000396729Z" fill="url(#paint1_linear_202_8419)"/>
<g filter="url(#filter2_f_202_8419)">
<path d="M18.0054 0.750397C8.06423 0.750397 0.00537109 8.80926 0.00537109 18.7504C0.00537109 21.427 0.572709 23.975 1.6375 26.2504C3.56787 30.3754 10.7409 10.8754 18.0054 10.8754C25.2699 10.8754 32.8242 29.6254 34.3733 26.2504C35.4211 23.9672 36.0054 21.427 36.0054 18.7504C36.0054 8.80926 27.9465 0.750397 18.0054 0.750397Z" fill="black" fill-opacity="0.32"/>
</g>
<g filter="url(#filter3_f_202_8419)">
<path d="M18.0054 0.142883C8.06423 0.142883 0.00537109 8.20174 0.00537109 18.1429C0.00537109 20.8195 0.572709 23.3675 1.6375 25.6429C3.56787 29.7679 10.7409 10.2679 18.0054 10.2679C25.2699 10.2679 32.8242 29.0179 34.3733 25.6429C35.4211 23.3597 36.0054 20.8195 36.0054 18.1429C36.0054 8.20174 27.9465 0.142883 18.0054 0.142883Z" fill="black" fill-opacity="0.24"/>
</g>
<path d="M18.0054 0.000396729C8.06423 0.000396729 0.00537109 8.05926 0.00537109 18.0004C0.00537109 20.677 0.572709 23.225 1.6375 25.5004C3.56787 29.6254 10.7409 10.1254 18.0054 10.1254C25.2699 10.1254 32.8242 28.8754 34.3733 25.5004C35.4211 23.2172 36.0054 20.677 36.0054 18.0004C36.0054 8.05926 27.9465 0.000396729 18.0054 0.000396729Z" fill="url(#paint2_linear_202_8419)"/>
</g>
</g>
<defs>
<filter id="filter0_f_202_8419" x="-7.99463" y="-7.2496" width="52" height="47.72" filterUnits="userSpaceOnUse" color-interpolation-filters="sRGB">
<feFlood flood-opacity="0" result="BackgroundImageFix"/>
<feBlend mode="normal" in="SourceGraphic" in2="BackgroundImageFix" result="shape"/>
<feGaussianBlur stdDeviation="4" result="effect1_foregroundBlur_202_8419"/>
</filter>
<filter id="filter1_f_202_8419" x="-0.754629" y="-0.617117" width="37.52" height="33.24" filterUnits="userSpaceOnUse" color-interpolation-filters="sRGB">
<feFlood flood-opacity="0" result="BackgroundImageFix"/>
<feBlend mode="normal" in="SourceGraphic" in2="BackgroundImageFix" result="shape"/>
<feGaussianBlur stdDeviation="0.38" result="effect1_foregroundBlur_202_8419"/>
</filter>
<filter id="filter2_f_202_8419" x="-7.99463" y="-7.2496" width="52" height="42.073" filterUnits="userSpaceOnUse" color-interpolation-filters="sRGB">
<feFlood flood-opacity="0" result="BackgroundImageFix"/>
<feBlend mode="normal" in="SourceGraphic" in2="BackgroundImageFix" result="shape"/>
<feGaussianBlur stdDeviation="4" result="effect1_foregroundBlur_202_8419"/>
</filter>
<filter id="filter3_f_202_8419" x="-0.754629" y="-0.617117" width="37.52" height="27.593" filterUnits="userSpaceOnUse" color-interpolation-filters="sRGB">
<feFlood flood-opacity="0" result="BackgroundImageFix"/>
<feBlend mode="normal" in="SourceGraphic" in2="BackgroundImageFix" result="shape"/>
<feGaussianBlur stdDeviation="0.38" result="effect1_foregroundBlur_202_8419"/>
</filter>
<linearGradient id="paint0_linear_202_8419" x1="0.00537109" y1="0.000396729" x2="34.7231" y2="37.1972" gradientUnits="userSpaceOnUse">
<stop stop-color="#8661C5"/>
<stop offset="1" stop-color="#5C428B"/>
</linearGradient>
<linearGradient id="paint1_linear_202_8419" x1="0.00537109" y1="0.000396729" x2="11.1199" y2="38.8414" gradientUnits="userSpaceOnUse">
<stop stop-color="#CD9EF0"/>
<stop offset="0.669964" stop-color="#9F75D3"/>
</linearGradient>
<linearGradient id="paint2_linear_202_8419" x1="-2.05713" y1="-6.7496" x2="16.4322" y2="34.7862" gradientUnits="userSpaceOnUse">
<stop stop-color="#EBC7FF"/>
<stop offset="0.366584" stop-color="#E4B4FF"/>
</linearGradient>
<clipPath id="clip0_202_8419">
<rect width="37" height="36.0004" fill="white"/>
</clipPath>
</defs>
</svg>
