<svg width="41" height="26" viewBox="0 0 41 26" fill="none" xmlns="http://www.w3.org/2000/svg">
<g clip-path="url(#clip0_202_14705)">
<path d="M37.2509 25.3357H2.87962C1.32274 25.3357 0.00537109 24.0184 0.00537109 22.4615V3.53932C0.00537109 1.98243 1.32274 0.66507 2.87962 0.66507H37.1311C38.688 0.66507 40.0054 1.98243 40.0054 3.53932V22.4615C40.0054 24.0184 38.8078 25.3357 37.2509 25.3357ZM2.87962 2.58124C2.40058 2.58124 1.92154 3.06028 1.92154 3.53932V22.4615C1.92154 23.0603 2.40058 23.4196 2.87962 23.4196H37.1311C37.7299 23.4196 38.0892 22.9405 38.0892 22.4615V3.53932C38.0892 2.94052 37.6102 2.58124 37.1311 2.58124C37.2509 2.58124 2.87962 2.58124 2.87962 2.58124ZM5.75387 19.5872V6.41357H9.58621L13.4185 11.204L17.2509 6.41357H21.0832V19.5872H17.2509V12.0423L13.4185 16.8327L9.58621 12.0423V19.5872H5.75387ZM29.8257 19.5872L24.0772 13.2399H27.9096V6.41357H31.7419V13.1202H35.5742L29.8257 19.5872Z" fill="black"/>
</g>
<defs>
<clipPath id="clip0_202_14705">
<rect width="41" height="26" fill="white"/>
</clipPath>
</defs>
</svg>
