<svg width="34" height="37" viewBox="0 0 34 37" fill="none" xmlns="http://www.w3.org/2000/svg">
<g clip-path="url(#clip0_202_11184)">
<path d="M33.0784 21.5841C32.5848 24.1236 28.6573 26.9028 24.1467 27.4414C21.7946 27.722 19.4787 27.98 17.0092 27.8667C12.9707 27.6817 9.78394 26.9028 9.78394 26.9028C9.78394 27.2959 9.80818 27.6703 9.85667 28.0204C10.3817 32.006 13.8087 32.2447 17.055 32.3561C20.3315 32.4682 23.249 31.5482 23.249 31.5482L23.3836 34.5104C23.3836 34.5104 21.0918 35.741 17.0092 35.9674C14.758 36.0911 11.9627 35.9107 8.70689 35.049C1.64568 33.18 0.431313 25.6531 0.245502 18.0158C0.188866 15.7483 0.223778 13.6101 0.223778 11.8218C0.223778 4.01232 5.34057 1.72323 5.34057 1.72323C7.92059 0.538346 12.3477 0.0400691 16.9501 0.00244141H17.0632C21.6656 0.0400691 26.0956 0.538346 28.6754 1.72323C28.6754 1.72323 33.792 4.01232 33.792 11.8218C33.792 11.8218 33.8562 17.5837 33.0784 21.5841Z" fill="#3088D4"/>
<path d="M27.7565 12.4277V21.8837H24.0102V12.7056C24.0102 10.7709 23.1962 9.78891 21.5679 9.78891C19.7676 9.78891 18.8653 10.9538 18.8653 13.2573V18.2809H15.1411V13.2573C15.1411 10.9538 14.2387 9.78891 12.4384 9.78891C10.8101 9.78891 9.99604 10.7709 9.99604 12.7056V21.8837H6.24976V12.4277C6.24976 10.4951 6.74183 8.95935 7.73023 7.82315C8.74948 6.68695 10.0843 6.10449 11.7413 6.10449C13.6583 6.10449 15.1101 6.84134 16.07 8.31522L17.0031 9.87948L17.9365 8.31522C18.8962 6.84134 20.3479 6.10449 22.2652 6.10449C23.922 6.10449 25.2568 6.68695 26.2762 7.82315C27.2645 8.95935 27.7565 10.4951 27.7565 12.4277Z" fill="white"/>
</g>
<defs>
<clipPath id="clip0_202_11184">
<rect width="34" height="37" fill="white"/>
</clipPath>
</defs>
</svg>
