<svg width="37" height="28" viewBox="0 0 37 28" fill="none" xmlns="http://www.w3.org/2000/svg">
<g clip-path="url(#clip0_202_9539)">
<path d="M6.55334 27.9087V26.0546C6.55334 25.3439 6.12072 24.8804 5.37909 24.8804C5.00827 24.8804 4.60656 25.004 4.32844 25.4057C4.11213 25.0658 3.80312 24.8804 3.3396 24.8804C3.03059 24.8804 2.72158 24.9731 2.47437 25.313V24.9422H1.82544V27.9087H2.47437V26.2709C2.47437 25.7456 2.75248 25.4984 3.1851 25.4984C3.61771 25.4984 3.83402 25.7765 3.83402 26.2709V27.9087H4.48295V26.2709C4.48295 25.7456 4.79196 25.4984 5.19368 25.4984C5.6263 25.4984 5.84261 25.7765 5.84261 26.2709V27.9087H6.55334ZM16.1636 24.9422H15.113V24.0461H14.4641V24.9422H13.8769V25.5293H14.4641V26.889C14.4641 27.5688 14.7422 27.9705 15.4838 27.9705C15.7619 27.9705 16.0709 27.8778 16.2872 27.7542L16.1018 27.198C15.9164 27.3216 15.7001 27.3525 15.5456 27.3525C15.2366 27.3525 15.113 27.1671 15.113 26.8581V25.5293H16.1636V24.9422ZM21.6641 24.8804C21.2933 24.8804 21.046 25.0658 20.8915 25.313V24.9422H20.2426V27.9087H20.8915V26.24C20.8915 25.7456 21.1078 25.4675 21.5096 25.4675C21.6332 25.4675 21.7877 25.4984 21.9113 25.5293L22.0967 24.9113C21.9731 24.8804 21.7877 24.8804 21.6641 24.8804ZM13.3516 25.1894C13.0426 24.9731 12.61 24.8804 12.1465 24.8804C11.4048 24.8804 10.9104 25.2512 10.9104 25.8383C10.9104 26.3327 11.2812 26.6109 11.9302 26.7036L12.2392 26.7345C12.5791 26.7963 12.7645 26.889 12.7645 27.0435C12.7645 27.2598 12.5173 27.4143 12.0847 27.4143C11.652 27.4143 11.3121 27.2598 11.0958 27.1053L10.7868 27.5997C11.1267 27.8469 11.5902 27.9705 12.0538 27.9705C12.919 27.9705 13.4134 27.5688 13.4134 27.0126C13.4134 26.4873 13.0117 26.2091 12.3937 26.1164L12.0847 26.0855C11.8066 26.0546 11.5902 25.9928 11.5902 25.8074C11.5902 25.5911 11.8066 25.4675 12.1465 25.4675C12.5173 25.4675 12.8881 25.622 13.0735 25.7147L13.3516 25.1894ZM30.5945 24.8804C30.2237 24.8804 29.9765 25.0658 29.822 25.313V24.9422H29.1731V27.9087H29.822V26.24C29.822 25.7456 30.0383 25.4675 30.44 25.4675C30.5636 25.4675 30.7181 25.4984 30.8418 25.5293L31.0272 24.9113C30.9036 24.8804 30.7181 24.8804 30.5945 24.8804ZM22.313 26.4255C22.313 27.3216 22.931 27.9705 23.889 27.9705C24.3216 27.9705 24.6306 27.8778 24.9396 27.6306L24.6306 27.1053C24.3834 27.2907 24.1362 27.3834 23.8581 27.3834C23.3327 27.3834 22.9619 27.0126 22.9619 26.4255C22.9619 25.8692 23.3327 25.4984 23.8581 25.4675C24.1362 25.4675 24.3834 25.5602 24.6306 25.7456L24.9396 25.2203C24.6306 24.9731 24.3216 24.8804 23.889 24.8804C22.931 24.8804 22.313 25.5293 22.313 26.4255ZM28.3078 26.4255V24.9422H27.6589V25.313C27.4426 25.0349 27.1336 24.8804 26.7319 24.8804C25.8975 24.8804 25.2486 25.5293 25.2486 26.4255C25.2486 27.3216 25.8975 27.9705 26.7319 27.9705C27.1645 27.9705 27.4735 27.816 27.6589 27.5379V27.9087H28.3078V26.4255ZM25.9284 26.4255C25.9284 25.9001 26.2684 25.4675 26.8246 25.4675C27.3499 25.4675 27.7207 25.8692 27.7207 26.4255C27.7207 26.9508 27.3499 27.3834 26.8246 27.3834C26.2684 27.3525 25.9284 26.9508 25.9284 26.4255ZM18.1722 24.8804C17.307 24.8804 16.689 25.4984 16.689 26.4255C16.689 27.3525 17.307 27.9705 18.2031 27.9705C18.6357 27.9705 19.0684 27.8469 19.4083 27.5688L19.0993 27.1053C18.8521 27.2907 18.543 27.4143 18.234 27.4143C17.8323 27.4143 17.4306 27.2289 17.3379 26.7036H19.5319V26.4564C19.5628 25.4984 19.0066 24.8804 18.1722 24.8804ZM18.1722 25.4366C18.5739 25.4366 18.8521 25.6838 18.9139 26.1473H17.3688C17.4306 25.7456 17.7087 25.4366 18.1722 25.4366ZM34.2718 26.4255V23.7679H33.6229V25.313C33.4066 25.0349 33.0975 24.8804 32.6958 24.8804C31.8615 24.8804 31.2126 25.5293 31.2126 26.4255C31.2126 27.3216 31.8615 27.9705 32.6958 27.9705C33.1284 27.9705 33.4375 27.816 33.6229 27.5379V27.9087H34.2718V26.4255ZM31.8924 26.4255C31.8924 25.9001 32.2323 25.4675 32.7885 25.4675C33.3139 25.4675 33.6847 25.8692 33.6847 26.4255C33.6847 26.9508 33.3139 27.3834 32.7885 27.3834C32.2323 27.3525 31.8924 26.9508 31.8924 26.4255ZM10.1997 26.4255V24.9422H9.55076V25.313C9.33445 25.0349 9.02544 24.8804 8.62372 24.8804C7.78939 24.8804 7.14046 25.5293 7.14046 26.4255C7.14046 27.3216 7.78939 27.9705 8.62372 27.9705C9.05634 27.9705 9.36535 27.816 9.55076 27.5379V27.9087H10.1997V26.4255ZM7.78939 26.4255C7.78939 25.9001 8.1293 25.4675 8.68553 25.4675C9.21085 25.4675 9.58166 25.8692 9.58166 26.4255C9.58166 26.9508 9.21085 27.3834 8.68553 27.3834C8.1293 27.3525 7.78939 26.9508 7.78939 26.4255Z" fill="black"/>
<path d="M22.8692 2.41516H13.1353V19.9053H22.8692V2.41516Z" fill="#FF5F00"/>
<path d="M13.7533 11.1602C13.7533 7.60658 15.4219 4.45465 17.9867 2.41517C16.1018 0.931904 13.7224 0.0357666 11.1267 0.0357666C4.9773 0.0357666 0.00219727 5.01087 0.00219727 11.1602C0.00219727 17.3096 4.9773 22.2847 11.1267 22.2847C13.7224 22.2847 16.1018 21.3886 17.9867 19.9053C15.4219 17.8967 13.7533 14.7139 13.7533 11.1602Z" fill="#EB001B"/>
<path d="M36.0021 11.1602C36.0021 17.3096 31.027 22.2847 24.8777 22.2847C22.282 22.2847 19.9026 21.3886 18.0176 19.9053C20.6133 17.8658 22.2511 14.7139 22.2511 11.1602C22.2511 7.60658 20.5824 4.45465 18.0176 2.41517C19.9026 0.931904 22.282 0.0357666 24.8777 0.0357666C31.027 0.0357666 36.0021 5.04178 36.0021 11.1602Z" fill="#F79E1B"/>
</g>
<defs>
<clipPath id="clip0_202_9539">
<rect width="37" height="28" fill="white"/>
</clipPath>
</defs>
</svg>
