<svg width="42" height="22" viewBox="0 0 42 22" fill="none" xmlns="http://www.w3.org/2000/svg">
<g clip-path="url(#clip0_202_11473)">
<path d="M10.8787 1.401C11.0235 1.15469 11.2119 0.918027 11.4824 0.802113C11.5935 0.782794 11.7045 0.792454 11.8156 0.792454H17.2829C17.1235 0.927687 16.969 1.06775 16.8627 1.25128C16.5826 1.71011 16.3942 2.22206 16.2204 2.73401C15.7277 4.27953 15.3848 5.86852 15.0516 7.45751C14.9018 8.17714 14.7569 8.90161 14.6217 9.62124C14.2064 11.9782 13.7765 14.3302 13.2404 16.663C12.9844 17.7401 12.7236 18.8171 12.3276 19.8555C12.1441 20.2853 11.9653 20.7442 11.6128 21.0629C11.5307 21.1354 11.4486 21.2271 11.3327 21.2126H6.5029C6.17448 21.203 5.85088 21.232 5.52246 21.1982C5.7398 21.0291 5.93299 20.8263 6.05856 20.5848C6.42079 19.8941 6.64779 19.1455 6.86513 18.4017C7.20321 17.2039 7.47368 15.9917 7.72966 14.7794C7.88904 13.9825 8.0774 13.1904 8.19331 12.3887C8.32372 11.4952 8.52174 10.6113 8.68112 9.72266C8.93227 8.4138 9.1979 7.10494 9.49252 5.80574C9.72918 4.79149 9.97066 3.78207 10.2943 2.79197C10.4536 2.31383 10.6275 1.84051 10.8787 1.401Z" fill="#EB7077" stroke="#EB7077" stroke-width="0.09375"/>
<path d="M17.2833 0.792186C17.4233 0.792186 17.5634 0.787356 17.7035 0.792186C18.0126 0.956397 18.2734 1.2172 18.4183 1.5408C18.6114 1.90786 18.7708 2.29424 18.9157 2.69028C19.3987 4.18267 19.7271 5.71853 20.0555 7.24956C20.3357 8.62121 20.6013 9.99769 20.8524 11.379C20.8718 11.4514 20.8476 11.5529 20.9442 11.5722C20.5965 13.3882 20.2536 15.209 19.8189 17.0105C19.5822 17.9813 19.3311 18.9472 18.9737 19.8842C18.7805 20.3527 18.5825 20.8646 18.1719 21.1979C17.9111 21.2558 17.7228 21.0578 17.5634 20.8791C17.2881 20.5266 17.1191 20.1112 16.9548 19.6958C16.4091 18.2083 16.0758 16.6579 15.7377 15.1124C15.4818 13.9098 15.2548 12.6975 15.0181 11.4901C14.9119 10.8767 14.767 10.273 14.6849 9.65961C14.6704 9.64995 14.6366 9.63063 14.6221 9.62097C14.7573 8.90134 14.9022 8.17688 15.0519 7.45724C15.3852 5.86825 15.7281 4.27927 16.2207 2.73375C16.3946 2.22179 16.5829 1.70984 16.8631 1.25101C16.9693 1.06748 17.1239 0.927419 17.2833 0.792186Z" fill="#F6A2AD" stroke="#F6A2AD" stroke-width="0.09375"/>
<path d="M23.3252 1.62777C23.4991 1.29452 23.7116 0.922626 24.0883 0.797053C26.0057 0.787393 27.9231 0.792223 29.8406 0.792223C29.6619 0.970924 29.4735 1.14962 29.3527 1.37662C28.9809 2.04313 28.7635 2.78208 28.5414 3.51137C27.9714 5.52055 27.5706 7.57319 27.189 9.62584C26.8364 11.6495 26.4597 13.6732 26.0299 15.6872C25.8077 16.7014 25.5759 17.7108 25.2813 18.7106C25.0929 19.3288 24.8949 19.9518 24.5858 20.5266C24.4361 20.7874 24.2622 21.0723 23.9772 21.2076C22.1468 21.2221 20.3115 21.2076 18.481 21.2124C18.3796 21.2124 18.2733 21.2124 18.1719 21.1979C18.5824 20.8647 18.7804 20.3527 18.9736 19.8842C19.331 18.9473 19.5822 17.9813 19.8188 17.0105C20.2535 15.209 20.5964 13.3882 20.9442 11.5722C21.3643 9.2298 21.8038 6.88737 22.3641 4.57392C22.6249 3.57416 22.8761 2.55991 23.3252 1.62777Z" fill="#EB7077" stroke="#EB7077" stroke-width="0.09375"/>
<path d="M29.84 0.792186C29.9946 0.792186 30.1539 0.787356 30.3085 0.792186C30.5596 0.922589 30.7383 1.14476 30.8977 1.37176C31.1585 1.78711 31.3227 2.2556 31.4918 2.71443C31.8927 3.94601 32.1921 5.21141 32.4674 6.4768C32.8345 8.1817 33.1532 9.89627 33.4672 11.6108C33.5444 12.0214 33.6217 12.4367 33.67 12.8521C33.6893 12.8714 33.728 12.91 33.7425 12.9245C33.5686 13.166 33.501 13.4558 33.4044 13.7311C33.1001 14.7115 32.9021 15.7258 32.733 16.7352C32.6026 17.5273 32.4239 18.3145 32.1776 19.0776C31.9941 19.6427 31.7719 20.203 31.4048 20.6763C31.231 20.9033 30.9943 21.0771 30.7335 21.1931C30.3326 21.2365 30.096 20.8501 29.9028 20.5652C29.5019 19.8649 29.2846 19.0825 29.0528 18.3194C28.2897 15.4939 27.7922 12.6009 27.2561 9.72723C27.2513 9.68376 27.2271 9.64512 27.1885 9.6258C27.57 7.57316 27.9709 5.52051 28.5408 3.51134C28.763 2.78204 28.9803 2.04309 29.3522 1.37659C29.4729 1.14959 29.6613 0.970886 29.84 0.792186Z" fill="#F6A2AD" stroke="#F6A2AD" stroke-width="0.09375"/>
<path d="M1.00195 11.78C1.12753 11.7703 1.2531 11.751 1.3835 11.751H6.64793C6.8701 11.78 7.10193 11.7606 7.31444 11.8572C7.62354 11.9828 7.89884 12.1953 8.10169 12.4609C8.12584 12.4465 8.1693 12.4078 8.19345 12.3885C8.07754 13.1902 7.88918 13.9823 7.7298 14.7792C7.47382 15.9915 7.20335 17.2038 6.86527 18.4015C6.64793 19.1453 6.42093 19.8939 6.0587 20.5846C5.93313 20.8261 5.73994 21.0289 5.5226 21.198C5.44049 21.2125 5.37771 21.1545 5.31009 21.111C5.08309 20.9661 4.95269 20.715 4.81263 20.488C4.15095 18.9811 4.0785 17.3149 3.66798 15.7404C3.4603 14.9531 3.20432 14.1707 2.8276 13.4462C2.59577 13.0115 2.31082 12.5962 1.93892 12.2629C1.66363 12.0408 1.34487 11.8621 1.00195 11.78Z" fill="#F6A2AD" stroke="#F6A2AD" stroke-width="0.09375"/>
<path d="M34.1674 12.2826C34.4716 11.9397 34.9256 11.7224 35.3844 11.7417H39.3448C39.8954 11.7514 40.4509 11.7224 41.0014 11.7562C40.8372 11.8673 40.6392 11.9107 40.4653 12.0025C39.8616 12.2778 39.3448 12.7366 39.0164 13.3114C38.49 14.229 38.3064 15.2819 38.1519 16.3155C37.9973 17.3297 38.0022 18.3778 37.6738 19.363C37.4516 20.0537 37.1135 20.7492 36.5291 21.2032C34.7131 21.2225 32.8971 21.208 31.086 21.2128C30.9652 21.2128 30.8493 21.2177 30.7334 21.1935C30.9942 21.0776 31.2309 20.9037 31.4047 20.6767C31.7718 20.2034 31.994 19.6432 32.1775 19.0781C32.4238 18.315 32.6025 17.5277 32.7329 16.7357C32.902 15.7262 33.1 14.712 33.4042 13.7316C33.5008 13.4563 33.5685 13.1665 33.7423 12.925C33.8872 12.7125 33.9838 12.4662 34.1674 12.2826Z" fill="#EB7077" stroke="#EB7077" stroke-width="0.09375"/>
</g>
<defs>
<clipPath id="clip0_202_11473">
<rect width="42" height="22" fill="white"/>
</clipPath>
</defs>
</svg>
