<svg width="37" height="36" viewBox="0 0 37 36" fill="none" xmlns="http://www.w3.org/2000/svg">
<g clip-path="url(#clip0_202_15886)">
<path d="M0.960402 12.2296C3.55412 4.56789 10.8032 -0.201426 18.4868 0.00653597L16.0242 2.91647C11.4659 3.74065 7.52994 6.85328 5.98304 11.423C3.68144 18.2219 7.53914 25.6709 14.5995 28.0612C21.66 30.4512 29.2491 26.877 31.5507 20.0785C33.0926 15.5239 31.87 10.6779 28.7725 7.25606L28.5832 3.43539C34.7925 7.94218 37.6404 16.1206 35.0508 23.7701C31.8639 33.1838 21.6492 38.2316 12.2355 35.0449C2.82176 31.858 -2.2263 21.6433 0.960402 12.2296ZM23.2349 1.67681C23.3269 1.63692 23.433 1.62838 23.5353 1.663C23.6357 1.69697 23.7131 1.76599 23.7624 1.85058L23.7724 1.86702L23.7814 1.88586C23.8051 1.93101 23.8253 1.98272 23.8347 2.04627C23.8532 2.17153 23.8616 2.46602 23.865 2.76766L23.8658 2.84998C23.8666 2.94595 23.8669 3.04115 23.867 3.13036V3.20523C23.8668 3.44912 23.8647 3.63195 23.8647 3.63195L23.9355 6.29448L24.04 9.36789L24.1704 14.7089C24.1704 14.7089 24.1704 14.7099 24.1705 14.7119L24.1706 14.7205C24.1706 14.7224 24.1706 14.7246 24.1706 14.727L24.1706 14.7439C24.1696 15.049 24.107 17.2821 22.5229 18.834C20.8196 20.5027 18.7272 20.35 17.3659 19.8894C16.0047 19.4283 14.25 18.2787 13.9106 15.9184C13.6221 13.9123 14.6886 12.226 15.0151 11.7652L15.0369 11.7348C15.0813 11.6732 15.1073 11.6408 15.1073 11.6408L18.4553 7.47739L20.4054 5.09952L22.0789 3.02735C22.0789 3.02735 22.325 2.69771 22.5783 2.37305L22.629 2.30829C22.7134 2.20079 22.7968 2.09632 22.8704 2.00728L22.9134 1.9558C22.9758 1.88167 23.0288 1.82203 23.0659 1.78594C23.1093 1.74386 23.1538 1.71647 23.1974 1.69521L23.2294 1.679L23.2349 1.67681Z" fill="#0058CC"/>
</g>
<defs>
<clipPath id="clip0_202_15886">
<rect width="37" height="36" fill="white"/>
</clipPath>
</defs>
</svg>
