<svg width="41" height="21" viewBox="0 0 41 21" fill="none" xmlns="http://www.w3.org/2000/svg">
<g clip-path="url(#clip0_202_12709)">
<path fill-rule="evenodd" clip-rule="evenodd" d="M1.88324 17.5826C-0.618991 15.1023 -0.618951 11.0811 1.88332 8.60082L8.67959 1.86435C10.7949 -0.232327 14.0213 -0.556592 16.4802 0.891558C17.2408 1.33948 17.2341 2.36702 16.6085 2.98708C15.9829 3.60715 14.9618 3.55378 14.1127 3.30762C13.0253 2.9924 11.8026 3.2598 10.945 4.10981L4.14873 10.8462C2.89759 12.0864 2.89758 14.097 4.14868 15.3371C5.39983 16.5773 7.42838 16.5773 8.67951 15.3371L22.2719 1.86443C24.7743 -0.615812 28.8313 -0.615823 31.3335 1.86441L38.1298 8.60082C40.6322 11.081 40.6322 15.1023 38.1298 17.5826C35.6276 20.0628 31.5706 20.0628 29.0683 17.5826L26.8028 15.3371L23.9711 18.144C21.8558 20.2407 18.6295 20.5649 16.1705 19.1167C15.4099 18.6688 15.4166 17.6413 16.0422 17.0212C16.6678 16.4011 17.6889 16.4545 18.538 16.7007C19.6253 17.0159 20.8481 16.7485 21.7057 15.8985L24.6183 13.0115C25.8248 11.8156 27.7809 11.8156 28.9873 13.0115L31.3337 15.3371C32.5848 16.5772 34.6133 16.5772 35.8645 15.3371C37.1156 14.097 37.1156 12.0864 35.8644 10.8462L29.0682 4.10988C27.817 2.86977 25.7885 2.86977 24.5373 4.1099L10.9449 17.5826C8.44259 20.0629 4.38553 20.0629 1.88324 17.5826Z" fill="#0568FD"/>
</g>
<defs>
<clipPath id="clip0_202_12709">
<rect width="41" height="21" fill="white"/>
</clipPath>
</defs>
</svg>
