<svg width="37" height="32" viewBox="0 0 37 32" fill="none" xmlns="http://www.w3.org/2000/svg">
<g clip-path="url(#clip0_202_12372)">
<path d="M27.0172 0.14187V0.127808L26.9891 0.14187L26.975 0.127808V0.14187L18.0032 3.72781L9.0313 0.14187V0.127808L9.01724 0.14187L8.98911 0.127808V0.14187L0.00317383 3.74187V31.8809L9.01724 28.4356L17.975 31.8669V31.8809H18.0032H18.0313V31.8669L26.9891 28.4356L36.0032 31.8809V3.74187L27.0172 0.14187Z" fill="url(#paint0_linear_202_12372)"/>
<path d="M0.00317383 3.74187V31.8809L9.0313 28.4356V0.127808L0.00317383 3.74187Z" fill="url(#paint1_linear_202_12372)"/>
<path d="M18.0317 3.74187V31.8809L8.9895 28.4356V0.127808L18.0317 3.74187Z" fill="url(#paint2_linear_202_12372)"/>
<path d="M17.9749 3.74187V31.8809L27.017 28.4356V0.127808L17.9749 3.74187Z" fill="url(#paint3_linear_202_12372)"/>
<path d="M36.003 3.74187V31.8809L26.9749 28.4356V0.127808L36.003 3.74187Z" fill="url(#paint4_linear_202_12372)"/>
<path d="M30.9127 16.581C30.5893 15.6388 30.6877 14.0217 30.519 13.7826C29.4643 12.3342 25.6252 12.081 23.8956 10.1826C24.2049 9.24041 23.5862 8.46697 22.9534 7.87635C22.0112 7.18728 20.6893 7.49666 19.6768 7.76385C18.5237 7.52479 17.4549 7.10291 16.344 6.77947C13.8409 6.51229 11.3659 8.2701 11.3659 8.2701C9.57993 9.3951 6.78149 11.7435 5.44556 13.1217C5.76899 13.1638 6.12056 12.9248 6.48618 12.8826L9.05962 12.2217C7.99087 13.1076 5.74087 14.6545 5.09399 15.8779C5.89556 15.6107 7.56899 14.6826 8.41274 14.6123C7.68149 15.2592 6.16274 16.4826 5.67056 17.256C5.72681 17.2842 5.68462 17.3545 5.69868 17.3967C6.33149 17.0451 7.85024 16.1451 8.53931 16.0888C7.82212 16.8342 6.51431 18.2545 6.21899 19.2107C6.83774 18.8029 8.39868 17.9873 9.07368 17.7342C8.91899 18.1138 8.56743 18.3951 8.34243 18.7748C8.03306 19.2951 7.30181 19.8857 7.27368 20.5185C7.82212 20.0123 8.49712 19.5763 9.17212 19.2107C8.86274 19.8435 8.31431 20.3638 8.15962 21.1092C8.60962 20.6732 9.43931 20.4623 10.0159 20.2654L9.94556 20.3357C9.90337 20.3779 9.25649 20.8279 8.82056 21.3342C9.21431 21.306 8.91899 21.2638 9.41118 21.3763L9.67837 21.3904C9.55181 21.4607 9.39712 21.531 9.24243 21.6154C9.00337 21.742 8.75024 21.8826 8.48306 22.0232C9.55181 23.3873 10.8737 24.4701 12.3784 25.2154C14.3471 26.1857 16.5127 26.4951 18.6643 26.242C18.6362 26.1154 18.6081 25.9888 18.5799 25.8623C18.5377 25.7076 18.4956 25.5529 18.4393 25.4123C18.4393 25.3982 18.4393 25.3982 18.4252 25.3842C19.1565 24.0201 18.7768 21.6717 20.6612 20.7295C21.9268 20.0826 22.0815 19.731 23.5299 19.9982C24.3174 20.1529 26.0471 20.7435 26.8627 20.5607C27.6081 20.1388 27.9877 19.956 28.6346 19.4638C29.4502 19.6045 29.7034 19.5342 30.0127 19.0982C29.7456 19.4779 30.5331 17.6357 30.8706 16.9326L30.9127 16.581Z" fill="white"/>
<path d="M8.79243 21.3483C9.10181 21.3343 8.97524 21.2921 9.17212 21.3483V20.9686C9.04556 21.0671 8.91899 21.2077 8.79243 21.3483ZM5.09399 15.878C5.89556 15.6108 7.56899 14.6827 8.41274 14.6124C7.68149 15.2593 6.16274 16.4827 5.67056 17.2561C5.72681 17.2843 5.68462 17.3546 5.69868 17.3968C6.33149 17.0452 7.85024 16.1452 8.53931 16.0889C7.82212 16.8343 6.51431 18.2546 6.21899 19.2108C6.83774 18.803 8.39868 17.9874 9.07368 17.7343C8.91899 18.1139 8.56743 18.3952 8.34243 18.7749C8.03306 19.2952 7.30181 19.8858 7.27368 20.5186C7.82212 20.0124 8.49712 19.5764 9.17212 19.2108C8.86274 19.8436 8.31431 20.3639 8.15962 21.1093C8.41274 20.8561 8.80649 20.6874 9.20024 20.5468V9.85925C7.79399 10.9561 6.33149 12.2358 5.47368 13.1218C5.79712 13.1639 6.14868 12.9249 6.51431 12.8827L9.05962 12.2218C7.99087 13.0936 5.75493 14.6405 5.09399 15.878ZM9.18618 21.6577C8.96118 21.7843 8.72212 21.9108 8.46899 22.0374C8.69399 22.3186 8.93306 22.5999 9.18618 22.8671V21.6577Z" fill="#F2F2F2"/>
<path d="M26.9749 11.9827C25.8217 11.5468 24.6545 11.0264 23.9092 10.1968C24.2186 9.25457 23.5999 8.48113 22.967 7.8905C22.0249 7.20144 20.703 7.51082 19.6905 7.778C19.128 7.65144 18.5795 7.49675 18.0452 7.328V26.3124C18.2561 26.2983 18.453 26.2843 18.6639 26.2561C18.6358 26.1296 18.6077 26.003 18.5795 25.8764C18.5374 25.7218 18.4952 25.5671 18.4389 25.4264C18.4389 25.4124 18.4389 25.4124 18.4249 25.3983C19.1561 24.0343 18.7764 21.6858 20.6608 20.7436C21.9264 20.0968 22.0811 19.7452 23.5295 20.0124C24.317 20.1671 26.0467 20.7577 26.8624 20.5749C26.9045 20.5608 26.9327 20.5327 26.9749 20.5186V11.9827Z" fill="#F2F2F2"/>
</g>
<defs>
<linearGradient id="paint0_linear_202_12372" x1="18.0032" y1="31.887" x2="18.0032" y2="0.127808" gradientUnits="userSpaceOnUse">
<stop stop-color="#2075BC"/>
<stop offset="1" stop-color="#29AAE1"/>
</linearGradient>
<linearGradient id="paint1_linear_202_12372" x1="4.51943" y1="31.887" x2="4.51943" y2="0.127808" gradientUnits="userSpaceOnUse">
<stop stop-color="#0A6AA8"/>
<stop offset="1" stop-color="#1699C8"/>
</linearGradient>
<linearGradient id="paint2_linear_202_12372" x1="13.5089" y1="31.887" x2="13.5089" y2="0.127808" gradientUnits="userSpaceOnUse">
<stop stop-color="#2075BC"/>
<stop offset="1" stop-color="#29AAE1"/>
</linearGradient>
<linearGradient id="paint3_linear_202_12372" x1="22.4977" y1="31.887" x2="22.4977" y2="0.127808" gradientUnits="userSpaceOnUse">
<stop stop-color="#0A6AA8"/>
<stop offset="1" stop-color="#1699C8"/>
</linearGradient>
<linearGradient id="paint4_linear_202_12372" x1="31.4871" y1="31.887" x2="31.4871" y2="0.127808" gradientUnits="userSpaceOnUse">
<stop stop-color="#2075BC"/>
<stop offset="1" stop-color="#29AAE1"/>
</linearGradient>
<clipPath id="clip0_202_12372">
<rect width="37" height="32" fill="white"/>
</clipPath>
</defs>
</svg>
