<svg width="41" height="24" viewBox="0 0 41 24" fill="none" xmlns="http://www.w3.org/2000/svg">
<g clip-path="url(#clip0_202_10857)">
<path d="M22.5656 12.0026C22.5656 18.2757 17.5147 23.361 11.2846 23.361C5.05439 23.361 0.00317383 18.2746 0.00317383 12.0026C0.00317383 5.73066 5.05401 0.643799 11.2846 0.643799C17.5151 0.643799 22.5656 5.72951 22.5656 12.0026ZM34.9412 12.0026C34.9412 17.9074 32.4158 22.6961 29.3005 22.6961C26.1853 22.6961 23.6598 17.9074 23.6598 12.0026C23.6598 6.09784 26.1849 1.30917 29.3001 1.30917C32.4154 1.30917 34.9408 6.09631 34.9408 12.0026H34.9412ZM40.0032 12.0026C40.0032 17.2918 39.1151 21.5823 38.0193 21.5823C36.9235 21.5823 36.0359 17.293 36.0359 12.0026C36.0359 6.71223 36.9239 2.42297 38.0193 2.42297C39.1147 2.42297 40.0032 6.71185 40.0032 12.0026Z" fill="black"/>
</g>
<defs>
<clipPath id="clip0_202_10857">
<rect width="41" height="24" fill="white"/>
</clipPath>
</defs>
</svg>
