<svg width="36" height="36" viewBox="0 0 36 36" fill="none" xmlns="http://www.w3.org/2000/svg">
<g clip-path="url(#clip0_202_13666)">
<path d="M0 24.3252V11.6766C0 1.46038 1.45794 0.000915527 11.6636 0.000915527H24.3364C34.5421 0.000915527 36 1.46038 36 11.6766V24.3252C36 34.5415 34.5421 36.0009 24.3364 36.0009H11.6636C1.45794 36.0009 0 34.5415 0 24.3252Z" fill="url(#paint0_linear_202_13666)"/>
<path d="M7.76939 6.78613C5.99986 18.001 6.92564 28.501 6.92564 28.501H12.4569C11.9306 25.7013 10.0425 12.9104 11.6131 12.8682C12.4549 13.0018 16.3006 23.7197 16.3006 23.7197C16.3006 23.7197 17.1476 23.6143 17.9999 23.6143C18.8521 23.6143 19.6991 23.7197 19.6991 23.7197C19.6991 23.7197 23.5449 13.0018 24.3866 12.8682C25.9572 12.9104 24.0691 25.7013 23.5428 28.501H29.0741C29.0741 28.501 29.9999 18.001 28.2303 6.78613H23.1092C22.1345 6.79766 18.426 13.3018 17.9999 13.3018C17.5737 13.3018 13.8652 6.79766 12.8905 6.78613H7.76939Z" fill="url(#paint1_linear_202_13666)"/>
<path d="M16.9087 27.1919C16.9087 27.9149 16.3226 28.501 15.5996 28.501C14.8766 28.501 14.2905 27.9149 14.2905 27.1919C14.2905 26.4689 14.8766 25.8828 15.5996 25.8828C16.3226 25.8828 16.9087 26.4689 16.9087 27.1919Z" fill="url(#paint2_radial_202_13666)"/>
<path d="M21.709 27.1919C21.709 27.9149 21.1229 28.501 20.3999 28.501C19.6769 28.501 19.0908 27.9149 19.0908 27.1919C19.0908 26.4689 19.6769 25.8828 20.3999 25.8828C21.1229 25.8828 21.709 26.4689 21.709 27.1919Z" fill="url(#paint3_radial_202_13666)"/>
<path opacity="0.1" d="M27.9697 7.15688C28.768 12.56 28.9553 17.7455 28.9406 21.6082C28.9256 25.5591 28.6992 28.126 28.6992 28.126H24.0434L23.543 28.501H29.0742C29.0742 28.501 30 18.001 28.2305 6.78613L27.9697 7.15688ZM13.3125 7.02051C14.7656 8.63684 17.2788 12.9268 17.625 12.9268C16.7037 11.7484 14.4406 7.98932 13.3125 7.02051ZM11.2383 12.4932C9.66766 12.5354 11.5557 25.3263 12.082 28.126H7.25352L6.92578 28.501H12.457C11.9334 25.7155 10.0619 13.0382 11.5898 12.8682C11.4476 12.6545 11.3247 12.5069 11.2383 12.4932ZM24.0117 12.4932C23.17 12.6268 19.3242 23.3447 19.3242 23.3447C19.3242 23.3447 18.4773 23.2393 17.625 23.2393C17.1207 23.2393 16.6866 23.2703 16.393 23.2977L16.3008 23.7197C16.3008 23.7197 17.1477 23.6143 18 23.6143C18.8523 23.6143 19.6992 23.7197 19.6992 23.7197C19.6992 23.7197 23.516 13.0721 24.375 12.8682C24.2824 12.6337 24.1681 12.4974 24.0117 12.4932Z" fill="black"/>
<path opacity="0.3" d="M7.76939 6.78613C5.99986 18.001 6.92564 28.501 6.92564 28.501L7.25134 28.1349C7.08468 25.6577 6.63941 16.6993 8.14439 7.16113H13.2655C13.374 7.16241 13.5194 7.25129 13.6874 7.39551C13.352 7.02251 13.0733 6.78829 12.8905 6.78613H7.76939ZM23.1092 6.78613C22.1345 6.79766 18.426 13.3018 17.9999 13.3018C18.1736 13.524 18.3148 13.6768 18.3749 13.6768C18.801 13.6768 22.5095 7.17265 23.4842 7.16113H28.0035L28.2303 6.78613H23.1092ZM11.9647 13.2432C13.2087 15.1114 16.3006 23.7197 16.3006 23.7197L16.3911 23.3C15.6277 21.2067 12.719 13.3592 11.9881 13.2432C11.9802 13.2434 11.9725 13.2423 11.9647 13.2432ZM24.7616 13.2432C25.596 15.3713 24.0165 25.9813 23.5428 28.501L24.0446 28.1093C24.6851 24.3516 26.2274 13.2826 24.7616 13.2432Z" fill="white"/>
</g>
<defs>
<linearGradient id="paint0_linear_202_13666" x1="18" y1="36.0009" x2="18" y2="0.000913382" gradientUnits="userSpaceOnUse">
<stop stop-color="#574C4A"/>
<stop offset="1" stop-color="#80716D"/>
</linearGradient>
<linearGradient id="paint1_linear_202_13666" x1="26.7764" y1="28.141" x2="14.3332" y2="4.46713" gradientUnits="userSpaceOnUse">
<stop stop-color="#268D83"/>
<stop offset="1" stop-color="#2EA19E"/>
</linearGradient>
<radialGradient id="paint2_radial_202_13666" cx="0" cy="0" r="1" gradientUnits="userSpaceOnUse" gradientTransform="translate(15.3746 27.001) scale(1.30909)">
<stop stop-color="#DB7C7C"/>
<stop offset="1" stop-color="#C83737"/>
</radialGradient>
<radialGradient id="paint3_radial_202_13666" cx="0" cy="0" r="1" gradientUnits="userSpaceOnUse" gradientTransform="translate(20.2499 27.001) scale(1.30909)">
<stop stop-color="#DB7C7C"/>
<stop offset="1" stop-color="#C83737"/>
</radialGradient>
<clipPath id="clip0_202_13666">
<rect width="36" height="36.0009" fill="white"/>
</clipPath>
</defs>
</svg>
