<svg width="36" height="35" viewBox="0 0 36 35" fill="none" xmlns="http://www.w3.org/2000/svg">
<g clip-path="url(#clip0_202_9610)">
<path fill-rule="evenodd" clip-rule="evenodd" d="M0 8.62076H35.9824V32.9842C35.9824 34.6401 34.6403 35.9824 32.9842 35.9824H2.99824C1.34231 35.9824 0 34.6396 0 32.9842V8.62076Z" fill="#518FF5"/>
<path fill-rule="evenodd" clip-rule="evenodd" d="M12.6951 25.8286L22.0395 17.2841L35.9999 31.2237L35.9934 32.9839C35.9873 34.6399 34.6401 35.9825 32.9838 35.9825H22.8938L12.6951 25.8286Z" fill="url(#paint0_linear_202_9610)"/>
<path fill-rule="evenodd" clip-rule="evenodd" d="M0 2.99851C0 1.34249 1.34214 0 2.99824 0H32.9842C34.6401 0 35.9824 1.34231 35.9824 2.99851V8.62076H0V2.99851Z" fill="#4758B8"/>
<path fill-rule="evenodd" clip-rule="evenodd" d="M16.4919 4.12296H12.9307C12.2064 4.12296 11.6194 4.71031 11.6194 5.43488C11.6194 6.15953 12.2065 6.74671 12.9307 6.74671H23.0518C23.7761 6.74671 24.3631 6.15936 24.3631 5.43488C24.3631 4.71013 23.776 4.12296 23.0518 4.12296H19.4905V3.7482C19.4905 2.91979 18.8193 2.2489 17.9912 2.2489C17.163 2.2489 16.4919 2.92015 16.4919 3.7482V4.12296Z" fill="white"/>
<g filter="url(#filter0_d_202_9610)">
<path d="M12.0614 17.6398C11.3095 17.6398 10.6998 17.0302 10.6998 16.2782C10.6998 15.5262 11.3095 14.9165 12.0614 14.9165C12.8134 14.9165 13.4231 15.5262 13.4231 16.2782C13.4231 17.0302 12.8134 17.6398 12.0614 17.6398ZM26.5883 21.8242L18.3657 13.6016C18.0368 13.2727 17.58 13.0717 17.0775 13.0717H10.6822C10.442 13.0709 10.2041 13.1176 9.98198 13.2091C9.75992 13.3007 9.55815 13.4352 9.38831 13.6051C9.21847 13.7749 9.08391 13.9767 8.99238 14.1987C8.90085 14.4208 8.85416 14.6588 8.85499 14.899V21.2943C8.85499 21.7968 9.05599 22.2536 9.39403 22.5825L17.6074 30.805C17.9455 31.1339 18.4023 31.3441 18.9048 31.3441C19.4073 31.3441 19.8641 31.1339 20.193 30.805L26.5883 24.4097C26.9263 24.0808 27.1273 23.624 27.1273 23.1215C27.1273 22.6099 26.9172 22.1531 26.5883 21.8242Z" fill="black"/>
</g>
<path d="M12.0614 17.6398C11.3095 17.6398 10.6998 17.0302 10.6998 16.2782C10.6998 15.5262 11.3095 14.9165 12.0614 14.9165C12.8134 14.9165 13.4231 15.5262 13.4231 16.2782C13.4231 17.0302 12.8134 17.6398 12.0614 17.6398ZM26.5883 21.8242L18.3657 13.6016C18.0368 13.2727 17.58 13.0717 17.0775 13.0717H10.6822C10.442 13.0709 10.2041 13.1176 9.98198 13.2091C9.75992 13.3007 9.55815 13.4352 9.38831 13.6051C9.21847 13.7749 9.08391 13.9767 8.99238 14.1987C8.90085 14.4208 8.85416 14.6588 8.85499 14.899V21.2943C8.85499 21.7968 9.05599 22.2536 9.39403 22.5825L17.6074 30.805C17.9455 31.1339 18.4023 31.3441 18.9048 31.3441C19.4073 31.3441 19.8641 31.1339 20.193 30.805L26.5883 24.4097C26.9263 24.0808 27.1273 23.624 27.1273 23.1215C27.1273 22.6099 26.9172 22.1531 26.5883 21.8242Z" fill="white"/>
</g>
<defs>
<filter id="filter0_d_202_9610" x="-46.0498" y="-41.8331" width="176.886" height="176.886" filterUnits="userSpaceOnUse" color-interpolation-filters="sRGB">
<feFlood flood-opacity="0" result="BackgroundImageFix"/>
<feColorMatrix in="SourceAlpha" type="matrix" values="0 0 0 0 0 0 0 0 0 0 0 0 0 0 0 0 0 0 127 0" result="hardAlpha"/>
<feOffset dx="24.4021" dy="24.4021"/>
<feGaussianBlur stdDeviation="39.6535"/>
<feColorMatrix type="matrix" values="0 0 0 0 0 0 0 0 0 0 0 0 0 0 0 0 0 0 0.16 0"/>
<feBlend mode="normal" in2="BackgroundImageFix" result="effect1_dropShadow_202_9610"/>
<feBlend mode="normal" in="SourceGraphic" in2="effect1_dropShadow_202_9610" result="shape"/>
</filter>
<linearGradient id="paint0_linear_202_9610" x1="35.9999" y1="35.9825" x2="17.746" y2="13.2316" gradientUnits="userSpaceOnUse">
<stop stop-color="#4385F5"/>
<stop offset="1" stop-color="#3569D3"/>
</linearGradient>
<clipPath id="clip0_202_9610">
<rect width="36" height="35" fill="white"/>
</clipPath>
</defs>
</svg>
