<svg width="32" height="36" viewBox="0 0 32 36" fill="none" xmlns="http://www.w3.org/2000/svg">
<g clip-path="url(#clip0_202_13750)">
<path d="M23.692 21.9303V14.073L16.9164 18.0081L23.692 21.9303Z" fill="white"/>
<path d="M23.2536 22.6853L16.4661 18.7641V26.6217L23.2536 22.6853Z" fill="white"/>
<path d="M15.584 26.6218V18.7638L8.79169 22.6856L15.584 26.6218Z" fill="white"/>
<path d="M15.145 27.377L8.35913 23.4437V31.3116L15.145 27.377Z" fill="white"/>
<path d="M15.145 18.008L8.35913 14.0734V21.9302L15.145 18.008Z" fill="white"/>
<path d="M16.4664 0.000915527V7.85718L23.2539 3.92392L16.4664 0.000915527Z" fill="white"/>
<path d="M8.79156 3.92392L15.5839 7.85718V0.000915527L8.79156 3.92392Z" fill="white"/>
<path d="M23.2536 32.0661L16.4661 28.1456V36.0007L23.2536 32.0661Z" fill="white"/>
<path d="M15.584 36.0009V28.1454L8.79169 32.0663L15.584 36.0009Z" fill="white"/>
<path d="M23.692 31.3117V23.444L16.9164 27.3772L23.692 31.3117Z" fill="white"/>
<path d="M23.2535 13.3064L16.4661 9.38165V17.2405L23.2535 13.3064Z" fill="#00AEDE"/>
<path d="M15.5839 17.2403V9.3814L8.79162 13.3061L15.5839 17.2403Z" fill="#00AEDE"/>
<path d="M15.1449 8.62733L8.35906 4.67987V12.5503L15.1449 8.62733Z" fill="#00AEDE"/>
<path d="M31.3715 18.008L24.5742 14.0734V21.9302L31.3715 18.008Z" fill="#00AEDE"/>
<path d="M7.47518 12.5503V4.67987L0.638415 8.62733L7.47518 12.5503Z" fill="#00AEDE"/>
<path d="M7.47518 31.3118V23.444L0.638415 27.3773L7.47518 31.3118Z" fill="#00AEDE"/>
<path d="M23.6919 12.5503V4.67987L16.9163 8.62733L23.6919 12.5503Z" fill="#00AEDE"/>
<path d="M31.8114 26.6218V18.7638L25.0316 22.6856L31.8114 26.6218Z" fill="#00AEDE"/>
<path d="M7.47518 21.9303V14.0607L0.638415 18.0082L7.47518 21.9303Z" fill="#00AEDE"/>
<path d="M7.03781 22.6854L0.191162 18.7641V26.6217L7.03781 22.6854Z" fill="#00AEDE"/>
<path d="M31.8114 17.2403V9.3814L25.0316 13.3061L31.8114 17.2403Z" fill="#00AEDE"/>
<path d="M31.3715 8.62733L24.5742 4.67987V12.5503L31.3715 8.62733Z" fill="#00AEDE"/>
<path d="M31.3715 27.377L24.5742 23.4438V31.3116L31.3715 27.377Z" fill="#00AEDE"/>
<path d="M7.03781 13.3064L0.191162 9.38165V17.2405L7.03781 13.3064Z" fill="#00AEDE"/>
</g>
<defs>
<clipPath id="clip0_202_13750">
<rect width="32" height="36.0009" fill="white"/>
</clipPath>
</defs>
</svg>
