<svg width="36" height="36" viewBox="0 0 36 36" fill="none" xmlns="http://www.w3.org/2000/svg">
<g clip-path="url(#clip0_202_15632)">
<path d="M0 12.3429C0 8.02248 0 5.86228 0.840807 4.2121C1.5804 2.76057 2.76054 1.58043 4.21207 0.840837C5.86225 3.05176e-05 8.02245 3.05176e-05 12.3429 3.05176e-05H23.6571C27.9775 3.05176e-05 30.1378 3.05176e-05 31.7879 0.840837C33.2395 1.58043 34.4196 2.76057 35.1592 4.2121C36 5.86228 36 8.02248 36 12.3429V23.6572C36 27.9776 36 30.1378 35.1592 31.788C34.4196 33.2395 33.2395 34.4196 31.7879 35.1592C30.1378 36 27.9775 36 23.6571 36H12.3429C8.02245 36 5.86225 36 4.21207 35.1592C2.76054 34.4196 1.5804 33.2395 0.840807 31.788C0 30.1378 0 27.9776 0 23.6572V12.3429Z" fill="url(#paint0_linear_202_15632)"/>
<path d="M18.0001 27C24.3909 27 29.5716 22.6828 29.5716 17.3572C29.5716 12.0316 24.3909 7.71431 18.0001 7.71431C11.6094 7.71431 6.42871 12.0316 6.42871 17.3572C6.42871 20.7328 8.51014 23.7033 11.6618 25.4261C11.5563 26.2835 11.2392 27.4277 10.2859 28.2857C12.0886 27.9612 13.5273 27.3092 14.6021 26.5776C15.6766 26.8522 16.8176 27 18.0001 27Z" fill="white"/>
</g>
<defs>
<linearGradient id="paint0_linear_202_15632" x1="18" y1="3.05176e-05" x2="18" y2="36" gradientUnits="userSpaceOnUse">
<stop stop-color="#5AF575"/>
<stop offset="1" stop-color="#13BD2C"/>
</linearGradient>
<clipPath id="clip0_202_15632">
<rect width="36" height="36" fill="white"/>
</clipPath>
</defs>
</svg>
