<svg width="30" height="37" viewBox="0 0 30 37" fill="none" xmlns="http://www.w3.org/2000/svg">
<g clip-path="url(#clip0_202_11188)">
<g opacity="0.2">
<path d="M8.9617 11.3973C10.153 11.3973 11.1187 10.4162 11.1187 9.20583C11.1187 7.99551 10.153 7.01435 8.9617 7.01435C7.77041 7.01435 6.80469 7.99551 6.80469 9.20583C6.80469 10.4162 7.77041 11.3973 8.9617 11.3973Z" fill="#509EE3"/>
<path d="M15.0013 11.3973C16.1926 11.3973 17.1583 10.4162 17.1583 9.20583C17.1583 7.99551 16.1926 7.01435 15.0013 7.01435C13.81 7.01435 12.8443 7.99551 12.8443 9.20583C12.8443 10.4162 13.81 11.3973 15.0013 11.3973Z" fill="#509EE3"/>
<path d="M15.0013 4.38456C16.1926 4.38456 17.1583 3.4034 17.1583 2.19307C17.1583 0.982749 16.1926 0.00158691 15.0013 0.00158691C13.81 0.00158691 12.8443 0.982749 12.8443 2.19307C12.8443 3.4034 13.81 4.38456 15.0013 4.38456Z" fill="#509EE3"/>
<path d="M15.0013 17.5931C16.1926 17.5931 17.1583 16.6119 17.1583 15.4016C17.1583 14.1913 16.1926 13.2101 15.0013 13.2101C13.81 13.2101 12.8443 14.1913 12.8443 15.4016C12.8443 16.6119 13.81 17.5931 15.0013 17.5931Z" fill="#509EE3"/>
<path d="M21.0409 11.3973C22.2322 11.3973 23.198 10.4162 23.198 9.20583C23.198 7.99551 22.2322 7.01435 21.0409 7.01435C19.8497 7.01435 18.8839 7.99551 18.8839 9.20583C18.8839 10.4162 19.8497 11.3973 21.0409 11.3973Z" fill="#509EE3"/>
<path d="M8.9617 23.7293C10.153 23.7293 11.1187 22.7481 11.1187 21.5378C11.1187 20.3274 10.153 19.3463 8.9617 19.3463C7.77041 19.3463 6.80469 20.3274 6.80469 21.5378C6.80469 22.7481 7.77041 23.7293 8.9617 23.7293Z" fill="#509EE3"/>
<path d="M21.0409 23.7293C22.2322 23.7293 23.198 22.7481 23.198 21.5378C23.198 20.3274 22.2322 19.3463 21.0409 19.3463C19.8497 19.3463 18.8839 20.3274 18.8839 21.5378C18.8839 22.7481 19.8497 23.7293 21.0409 23.7293Z" fill="#509EE3"/>
<path d="M8.9617 29.8654C10.153 29.8654 11.1187 28.8843 11.1187 27.6739C11.1187 26.4636 10.153 25.4824 8.9617 25.4824C7.77041 25.4824 6.80469 26.4636 6.80469 27.6739C6.80469 28.8843 7.77041 29.8654 8.9617 29.8654Z" fill="#509EE3"/>
<path d="M15.0013 29.8654C16.1926 29.8654 17.1583 28.8843 17.1583 27.6739C17.1583 26.4636 16.1926 25.4824 15.0013 25.4824C13.81 25.4824 12.8443 26.4636 12.8443 27.6739C12.8443 28.8843 13.81 29.8654 15.0013 29.8654Z" fill="#509EE3"/>
<path d="M15.0013 36.0016C16.1926 36.0016 17.1583 35.0204 17.1583 33.8101C17.1583 32.5998 16.1926 31.6186 15.0013 31.6186C13.81 31.6186 12.8443 32.5998 12.8443 33.8101C12.8443 35.0204 13.81 36.0016 15.0013 36.0016Z" fill="#509EE3"/>
<path d="M21.0409 29.8654C22.2322 29.8654 23.198 28.8843 23.198 27.6739C23.198 26.4636 22.2322 25.4824 21.0409 25.4824C19.8497 25.4824 18.8839 26.4636 18.8839 27.6739C18.8839 28.8843 19.8497 29.8654 21.0409 29.8654Z" fill="#509EE3"/>
</g>
<path d="M2.92166 11.3982C4.11294 11.3982 5.07867 10.4171 5.07867 9.20675C5.07867 7.99642 4.11294 7.01526 2.92166 7.01526C1.73037 7.01526 0.764648 7.99642 0.764648 9.20675C0.764648 10.4171 1.73037 11.3982 2.92166 11.3982Z" fill="#509EE3"/>
<path d="M2.92166 17.5344C4.11294 17.5344 5.07867 16.5532 5.07867 15.3429C5.07867 14.1326 4.11294 13.1514 2.92166 13.1514C1.73037 13.1514 0.764648 14.1326 0.764648 15.3429C0.764648 16.5532 1.73037 17.5344 2.92166 17.5344Z" fill="#509EE3"/>
<path d="M8.96128 17.594C10.1526 17.594 11.1183 16.6128 11.1183 15.4025C11.1183 14.1922 10.1526 13.211 8.96128 13.211C7.77 13.211 6.80427 14.1922 6.80427 15.4025C6.80427 16.6128 7.77 17.594 8.96128 17.594Z" fill="#509EE3"/>
<path d="M27.0802 11.3982C28.2714 11.3982 29.2372 10.4171 29.2372 9.20675C29.2372 7.99642 28.2714 7.01526 27.0802 7.01526C25.8889 7.01526 24.9231 7.99642 24.9231 9.20675C24.9231 10.4171 25.8889 11.3982 27.0802 11.3982Z" fill="#509EE3"/>
<path d="M21.0405 17.594C22.2318 17.594 23.1975 16.6128 23.1975 15.4025C23.1975 14.1922 22.2318 13.211 21.0405 13.211C19.8492 13.211 18.8835 14.1922 18.8835 15.4025C18.8835 16.6128 19.8492 17.594 21.0405 17.594Z" fill="#509EE3"/>
<path d="M27.0802 17.594C28.2714 17.594 29.2372 16.6128 29.2372 15.4025C29.2372 14.1922 28.2714 13.211 27.0802 13.211C25.8889 13.211 24.9231 14.1922 24.9231 15.4025C24.9231 16.6128 25.8889 17.594 27.0802 17.594Z" fill="#509EE3"/>
<path d="M2.92166 23.6706C4.11294 23.6706 5.07867 22.6894 5.07867 21.4791C5.07867 20.2687 4.11294 19.2876 2.92166 19.2876C1.73037 19.2876 0.764648 20.2687 0.764648 21.4791C0.764648 22.6894 1.73037 23.6706 2.92166 23.6706Z" fill="#509EE3"/>
<path d="M15.0009 23.7302C16.1922 23.7302 17.1579 22.749 17.1579 21.5387C17.1579 20.3284 16.1922 19.3472 15.0009 19.3472C13.8096 19.3472 12.8439 20.3284 12.8439 21.5387C12.8439 22.749 13.8096 23.7302 15.0009 23.7302Z" fill="#509EE3"/>
<path d="M27.0802 23.7302C28.2714 23.7302 29.2372 22.749 29.2372 21.5387C29.2372 20.3284 28.2714 19.3472 27.0802 19.3472C25.8889 19.3472 24.9231 20.3284 24.9231 21.5387C24.9231 22.749 25.8889 23.7302 27.0802 23.7302Z" fill="#509EE3"/>
<path d="M2.92166 29.8067C4.11294 29.8067 5.07867 28.8256 5.07867 27.6152C5.07867 26.4049 4.11294 25.4237 2.92166 25.4237C1.73037 25.4237 0.764648 26.4049 0.764648 27.6152C0.764648 28.8256 1.73037 29.8067 2.92166 29.8067Z" fill="#509EE3"/>
<path d="M27.0802 29.8663C28.2714 29.8663 29.2372 28.8852 29.2372 27.6748C29.2372 26.4645 28.2714 25.4834 27.0802 25.4834C25.8889 25.4834 24.9231 26.4645 24.9231 27.6748C24.9231 28.8852 25.8889 29.8663 27.0802 29.8663Z" fill="#509EE3"/>
</g>
<defs>
<clipPath id="clip0_202_11188">
<rect width="30" height="37" fill="white"/>
</clipPath>
</defs>
</svg>
