<svg width="40" height="28" viewBox="0 0 40 28" fill="none" xmlns="http://www.w3.org/2000/svg">
<path d="M4.32147 18.2395C4.32147 19.7668 4.6567 20.9394 5.09487 21.6488C5.66936 22.578 6.52622 22.9717 7.39978 22.9717C8.5265 22.9717 9.55724 22.6921 11.5436 19.9449C13.1349 17.7429 15.01 14.652 16.2717 12.7144L18.4083 9.43157C19.8925 7.1517 21.6104 4.61727 23.5801 2.89937C25.1881 1.49723 26.9227 0.718262 28.6684 0.718262C31.5993 0.718262 34.391 2.41669 36.5276 5.60211C38.8659 9.09078 40.001 13.485 40.001 18.0197C40.001 20.7155 39.4696 22.6963 38.5654 24.2612C37.6919 25.7746 35.9893 27.2866 33.1252 27.2866V22.9717C35.5776 22.9717 36.1896 20.7183 36.1896 18.1393C36.1896 14.4643 35.3327 10.3858 33.4451 7.47163C32.1056 5.40459 30.3696 4.14155 28.4597 4.14155C26.3941 4.14155 24.7318 5.69948 22.8637 8.47734C21.8705 9.9532 20.8509 11.7518 19.7061 13.7813L18.4458 16.0139C15.9142 20.5027 15.2729 21.5251 14.0071 23.2124C11.7884 26.1669 9.89387 27.2866 7.39978 27.2866C4.44109 27.2866 2.57018 26.0055 1.41146 24.0748C0.465575 22.5015 0.000976562 20.4373 0.000976562 18.0851L4.32147 18.2395Z" fill="#0081FB"/>
<path d="M3.40771 5.90674C5.38852 2.85347 8.24705 0.718262 11.5257 0.718262C13.4244 0.718262 15.312 1.28023 17.2831 2.88963C19.4392 4.64927 21.7371 7.54675 24.604 12.3221L25.6319 14.0358C28.1135 18.1699 29.5254 20.2968 30.3517 21.2997C31.4144 22.5878 32.1586 22.9717 33.1253 22.9717C35.5777 22.9717 36.1897 20.7183 36.1897 18.1393L40.0011 18.0197C40.0011 20.7155 39.4698 22.6963 38.5656 24.2612C37.692 25.7746 35.9894 27.2866 33.1253 27.2866C31.3448 27.2866 29.7674 26.8999 28.0231 25.2544C26.6822 23.9913 25.1145 21.7476 23.9085 19.7306L20.3211 13.7382C18.5211 10.7308 16.87 8.48847 15.9143 7.47303C14.8864 6.38108 13.5649 5.0624 11.4561 5.0624C9.74935 5.0624 8.29991 6.26006 7.08695 8.09203L3.40771 5.90674Z" fill="url(#paint0_linear_202_10514)"/>
<path d="M11.456 5.0624C9.7492 5.0624 8.29977 6.26006 7.0868 8.09203C5.37168 10.6807 4.32147 14.5366 4.32147 18.2395C4.32147 19.7668 4.6567 20.9394 5.09487 21.6488L1.41146 24.0748C0.465575 22.5015 0.000976562 20.4373 0.000976562 18.0851C0.000976562 13.8077 1.17499 9.3495 3.40757 5.90674C5.38837 2.85347 8.24691 0.718262 11.5255 0.718262L11.456 5.0624Z" fill="url(#paint1_linear_202_10514)"/>
<defs>
<linearGradient id="paint0_linear_202_10514" x1="8.48631" y1="16.9931" x2="36.0284" y2="18.3841" gradientUnits="userSpaceOnUse">
<stop stop-color="#0064E1"/>
<stop offset="0.4" stop-color="#0064E1"/>
<stop offset="0.83" stop-color="#0073EE"/>
<stop offset="1" stop-color="#0082FB"/>
</linearGradient>
<linearGradient id="paint1_linear_202_10514" x1="6.26054" y1="20.0534" x2="6.26054" y2="9.89895" gradientUnits="userSpaceOnUse">
<stop stop-color="#0082FB"/>
<stop offset="1" stop-color="#0064E0"/>
</linearGradient>
</defs>
</svg>
