<svg width="32" height="32" viewBox="0 0 32 32" fill="none" xmlns="http://www.w3.org/2000/svg">
<g clip-path="url(#clip0_202_9122)">
<path d="M0.000976562 0.316406L27.4057 29.3447C27.4057 29.3447 28.3393 30.0031 29.0533 29.2349C29.7672 28.4667 29.218 27.6984 29.218 27.6984L0.000976562 0.316406Z" fill="#DF4F4F"/>
<path d="M8.67823 3.0601L29.5476 25.5584C29.5476 25.5584 30.4812 26.2168 31.1951 25.4486C31.9091 24.6804 31.3599 23.9121 31.3599 23.9121L8.67823 3.0601Z" fill="#DF4F4F"/>
<path d="M23.4515 31.4299L2.58219 8.93159L25.2639 29.7836C25.2639 29.7836 25.813 30.5519 25.0991 31.3201C24.3851 32.0883 23.4515 31.4299 23.4515 31.4299Z" fill="#DF4F4F"/>
<path d="M16.0137 5.41967L30.5939 21.1379C30.5939 21.1379 31.2461 21.5979 31.7449 21.0612C32.2437 20.5245 31.86 19.9878 31.86 19.9878L16.0137 5.41967Z" fill="#DF4F4F"/>
<path d="M19.1707 31.4541L4.5905 15.7359L20.4368 30.304C20.4368 30.304 20.8205 30.8407 20.3217 31.3775C19.8229 31.9142 19.1707 31.4541 19.1707 31.4541Z" fill="#DF4F4F"/>
<path d="M23.5064 8.82185L30.1147 15.9675C30.1147 15.9675 30.4373 16.1831 30.6841 15.9316C30.9308 15.6801 30.741 15.4286 30.741 15.4286L23.5064 8.82185Z" fill="#DF4F4F"/>
<path d="M14.8471 30.1249L8.23888 22.9793L15.4734 29.586C15.4734 29.586 15.6632 29.8375 15.4165 30.089C15.1698 30.3405 14.8471 30.1249 14.8471 30.1249Z" fill="#DF4F4F"/>
</g>
<defs>
<clipPath id="clip0_202_9122">
<rect width="32.001" height="32" fill="white"/>
</clipPath>
</defs>
</svg>
