<svg width="20" height="40" viewBox="0 0 20 40" fill="none" xmlns="http://www.w3.org/2000/svg">
<path fill-rule="evenodd" clip-rule="evenodd" d="M8.6884 3.09267C9.17545 2.82711 9.7222 2.69021 10.2769 2.6949C10.8742 2.67252 11.3813 2.82727 11.8008 3.09267C12.0199 3.22265 12.2109 3.39502 12.3625 3.5997C12.5142 3.80439 12.6235 4.03726 12.684 4.2847C12.9277 5.30023 12.9711 6.4929 12.8177 7.86207C12.4193 11.1523 12.1321 13.6918 12.0221 15.4804C11.8463 17.7552 11.625 22.0603 11.3378 28.3977C11.3155 29.1274 11.0942 29.7228 10.7418 30.1653C10.3658 30.5848 9.96868 30.8048 9.48265 30.8048C8.97425 30.8272 8.57713 30.6724 8.24587 30.3188C7.89222 29.9441 7.69397 29.3922 7.71636 28.6625C7.71636 27.1398 7.80396 24.2909 8.02459 20.1175C7.9146 19.6097 7.53858 19.4108 6.92018 19.5432C6.61194 19.6097 6.39067 19.8521 6.28068 20.2498C6.05941 24.6445 5.97116 27.7359 6.01465 29.4791C6.03703 30.6283 6.41305 31.5339 7.16383 32.1734C7.84809 32.7476 8.68776 33.0124 9.63678 32.9689C10.5858 32.9024 11.4031 32.5718 12.0874 31.9534C12.8381 31.2467 13.2353 30.3182 13.28 29.1933C13.4124 25.2399 13.6995 21.4866 14.1632 17.8652L15.3335 8.08334C15.6206 4.68311 14.9798 2.34189 13.39 1.10574C12.3969 0.354963 11.2477 -0.0204225 9.92263 0.00132053C8.53236 0.0237031 7.36208 0.4656 6.41306 1.32637C5.26387 2.36428 4.60198 3.79932 4.4031 5.65451C3.58646 13.8024 3.25392 23.3418 3.38757 34.2946C3.43106 36.2815 4.09358 37.7831 5.44101 38.821C6.6324 39.7041 8.09046 40.1236 9.81264 39.9689C11.5348 39.8365 12.9929 39.2405 14.1843 38.1802C15.5317 37.0534 16.1942 35.6183 16.2166 33.9409L16.4379 25.4388C16.4814 24.1361 17.2769 22.6134 18.845 20.8465C18.845 20.4487 18.6902 20.1399 18.4031 19.9192C18.1607 19.698 17.8071 19.6104 17.4099 19.588C15.4665 21.5532 14.472 23.2984 14.4944 24.821L14.3186 33.7203C14.2297 34.9117 13.7213 35.8837 12.8388 36.568C12.0445 37.1864 11.0936 37.5183 9.9463 37.5401C8.84188 37.5624 7.89286 37.2977 7.05384 36.701C6.1483 36.105 5.66355 35.1995 5.5753 34.0746C5.37642 31.844 5.44293 27.7147 5.79657 21.6644L6.78972 7.17908C6.89971 5.96467 7.14337 4.99327 7.49637 4.26423C7.73746 3.77693 8.13587 3.3798 8.6884 3.09267Z" fill="#666575"/>
<path fill-rule="evenodd" clip-rule="evenodd" d="M7.804 3.18094C8.57715 2.38604 9.52618 2.0324 10.6965 2.12065C11.8891 2.23128 12.7723 2.76079 13.3683 3.71045C13.6778 4.19583 13.8767 4.79248 13.9215 5.565C13.9426 6.11753 13.9215 6.9783 13.8102 8.10446L12.9936 16.2965C12.7064 19.6308 12.4851 23.7153 12.3317 28.5289C12.3093 29.302 12.0445 29.9204 11.5361 30.3834C11.0942 30.8029 10.543 31.0466 9.87982 31.0901C9.26142 31.1566 8.68843 31.0466 8.2459 30.7153C7.7375 30.3828 7.49512 29.9198 7.47274 29.2803C7.45164 26.4089 7.5175 23.5158 7.67162 20.5799C7.91527 20.4033 7.95876 20.2038 7.82638 19.9832C7.67162 19.7619 7.45164 19.6743 7.14212 19.6743C6.78848 19.6743 6.56785 19.8508 6.48023 20.1603C6.36896 20.4916 6.54674 20.6457 6.96625 20.6905C6.78911 25.0628 6.7015 28.0217 6.74499 29.6115C6.74499 30.3834 7.07625 30.9807 7.69401 31.3778C8.24589 31.7526 8.95318 31.885 9.76983 31.8185C10.5865 31.7519 11.2714 31.4661 11.8668 31.0018C12.5075 30.4723 12.8612 29.8104 12.927 28.9708C13.2583 23.4288 13.5013 19.6302 13.6778 17.6433C13.9215 15.1255 14.2962 12.2113 14.7822 8.85459C15.2018 6.11689 14.9581 4.04107 13.9867 2.60603C13.0824 1.28098 11.8233 0.640841 10.2558 0.662584C8.64366 0.684327 7.36338 1.39161 6.41372 2.78189C5.94881 3.44441 5.61818 4.72534 5.35343 6.55815C4.5144 12.9615 4.16076 22.302 4.24902 34.5574C4.24902 36.1025 4.84503 37.2728 6.0377 38.0894C7.09799 38.8402 8.42239 39.1938 9.98981 39.1273C11.5361 39.0384 12.8388 38.5978 13.9432 37.7358C15.18 36.8091 15.7978 35.5934 15.8419 34.0925L16.0632 25.238C16.0632 23.7364 16.9463 22.1914 18.6685 20.6233C18.7574 20.491 18.735 20.3362 18.5809 20.1597C18.3596 19.9608 18.2272 19.8502 18.139 19.8726C16.2614 21.926 15.3124 23.714 15.3124 25.1721C15.3124 30.8253 15.2459 33.8501 15.1135 34.2703C14.7375 35.573 14.0091 36.5661 12.9277 37.2293C11.9787 37.8023 10.8954 38.09 9.70396 38.0459C8.53367 38.0024 7.51814 37.6699 6.65609 37.0739C5.77294 36.412 5.28692 35.5723 5.22105 34.5568C5.04519 32.0615 5.08867 27.8657 5.35343 21.9701C5.61818 16.2946 5.99421 11.2163 6.43483 6.77813C6.63372 5.14612 7.07561 3.93171 7.804 3.18094Z" fill="#737DA7"/>
<path fill-rule="evenodd" clip-rule="evenodd" d="M15.4875 33.8079C15.3999 33.829 15.334 33.8744 15.2899 34.0068L15.2227 34.4263C14.8704 35.7289 14.1413 36.7221 13.0593 37.4063C12.1103 38.0036 10.9835 38.2684 9.74667 38.223C8.554 38.1795 7.51737 37.8259 6.65532 37.2298C5.72741 36.5667 5.1979 35.7283 5.11029 34.7345C5.11029 34.4698 5.04378 34.3809 4.86664 34.3809C4.64537 34.4032 4.5795 34.5356 4.66775 34.8004C4.88902 36.1695 5.5509 37.2298 6.65468 37.9582C7.67021 38.599 8.8405 38.9073 10.1879 38.8203C11.5341 38.7538 12.705 38.3554 13.7199 37.5835C14.8026 36.7668 15.4651 35.6624 15.6857 34.2932C15.7535 33.9613 15.6876 33.7855 15.4875 33.8079ZM7.62736 20.6469L7.2961 20.7352L7.11896 24.2902C7.00896 26.5649 6.9431 28.2205 6.96548 29.2591C6.98659 30.0322 7.27372 30.6283 7.84863 31.0478C8.37814 31.4449 9.01892 31.5997 9.76969 31.5549C10.4933 31.5144 11.187 31.2523 11.7566 30.8041C12.375 30.2746 12.7287 29.6127 12.8169 28.7507C12.838 28.5083 12.8169 28.397 12.7056 28.397C12.5733 28.397 12.5509 28.5294 12.5509 28.7507C12.4409 29.5462 12.0872 30.1646 11.5354 30.6494C11.027 31.0689 10.4309 31.3125 9.76906 31.3336C9.1059 31.356 8.554 31.1802 8.11274 30.8041C7.62672 30.3635 7.38308 29.7675 7.38308 28.972L7.62736 20.6469ZM8.46703 2.09883C9.43779 1.43631 10.4316 1.17156 11.5136 1.32632C12.6404 1.50282 13.4571 2.07709 13.9431 3.07087C14.3626 3.84339 14.5391 4.72718 14.5391 5.74271C14.518 5.9416 14.5615 6.05159 14.7162 6.07397C14.8262 6.09635 14.8921 5.96398 14.8921 5.6762C14.8921 4.50591 14.6497 3.468 14.0978 2.54073C13.5236 1.59171 12.6839 1.01743 11.5136 0.840932C10.3657 0.642047 9.23891 0.907438 8.1799 1.5917C8.02514 1.74646 7.98101 1.90059 8.06862 2.03296C8.17989 2.18708 8.31227 2.20947 8.46703 2.09883Z" fill="#CCCDE7"/>
<path fill-rule="evenodd" clip-rule="evenodd" d="M0.959257 13.9341C0.804498 15.0161 1.06925 15.9658 1.68764 16.8266C2.32842 17.6873 3.18919 18.1733 4.24948 18.3281C5.33088 18.4829 6.28183 18.2399 7.14196 17.5991C8.00273 16.9589 8.4881 16.1199 8.6435 15.0379C8.79826 13.9776 8.55461 13.0279 7.91511 12.1671C7.27433 11.3281 6.41356 10.798 5.35326 10.6656C4.29297 10.4891 3.34332 10.7539 2.48319 11.3716C1.62114 12.0354 1.11402 12.8744 0.959257 13.9341Z" fill="#666575"/>
<path fill-rule="evenodd" clip-rule="evenodd" d="M14.2961 10.225C13.2147 10.0702 12.265 10.3356 11.426 10.9534C10.5869 11.5935 10.0785 12.4549 9.92314 13.537C9.76966 14.5749 10.012 15.5463 10.6528 16.4077C11.2936 17.2691 12.1313 17.7545 13.2146 17.9092C14.2737 18.064 15.2233 17.821 16.0847 17.1802C16.9455 16.5401 17.4539 15.6787 17.5863 14.6407C17.741 13.5587 17.5198 12.609 16.8579 11.7259C16.2171 10.8869 15.3563 10.3791 14.2961 10.225Z" fill="#666575"/>
<path fill-rule="evenodd" clip-rule="evenodd" d="M2.39448 12.0354C1.55545 12.4997 1.09182 13.1399 0.959446 13.9348C0.849452 14.7738 1.1142 15.5687 1.77609 16.3418C2.46035 17.1585 3.30001 17.6445 4.33793 17.7993C5.37584 17.954 6.32486 17.7328 7.20801 17.1367C8.04704 16.5625 8.53306 15.8782 8.64306 15.0392C8.75305 14.2443 8.48829 13.4935 7.80402 12.831C7.14214 12.1685 6.28137 11.7266 5.22108 11.5942C4.16014 11.4394 3.21112 11.5935 2.39448 12.0354Z" fill="#D0D1D3"/>
<path fill-rule="evenodd" clip-rule="evenodd" d="M14.1639 11.1523C13.1036 10.9975 12.1539 11.174 11.3149 11.6383C10.4982 12.102 10.0346 12.7197 9.92334 13.537C9.79224 14.3543 10.057 15.1709 10.7189 15.9441C11.3808 16.7607 12.2652 17.2244 13.2807 17.3567C14.3186 17.5115 15.2676 17.2902 16.1508 16.6949C16.9898 16.1423 17.4758 15.4581 17.5858 14.6414C17.7182 13.8241 17.4311 13.0957 16.7692 12.3891C16.1073 11.7259 15.2453 11.3288 14.1639 11.1523Z" fill="#D0D1D3"/>
<path fill-rule="evenodd" clip-rule="evenodd" d="M5.11092 12.2561C4.1165 12.1014 3.23335 12.212 2.4602 12.5426C1.68704 12.8745 1.24642 13.3375 1.15753 13.9783C1.06864 14.6408 1.33467 15.2592 1.97417 15.8994C2.62463 16.5817 3.49069 17.0186 4.42602 17.1362C5.39678 17.2685 6.28057 17.1138 7.11896 16.6501C7.89211 16.2089 8.33273 15.6781 8.44401 15.0162C8.5329 14.3761 8.24512 13.8018 7.58323 13.2716C6.94309 12.7421 6.12645 12.3885 5.11092 12.2561Z" fill="white"/>
<path fill-rule="evenodd" clip-rule="evenodd" d="M10.1668 13.5594C10.0779 14.1996 10.3427 14.8403 10.9611 15.4581C11.6242 16.1206 12.4185 16.5401 13.3682 16.6725C14.3402 16.8055 15.2227 16.6508 16.0413 16.1871C16.7921 15.7676 17.2327 15.2375 17.3216 14.5749C17.4105 13.9789 17.1444 13.4047 16.5049 12.8752C15.8641 12.345 15.0475 12.0137 14.0755 11.8814C13.0599 11.7266 12.1979 11.8155 11.4477 12.1685C10.6752 12.4767 10.2557 12.9628 10.1668 13.5594Z" fill="white"/>
<path fill-rule="evenodd" clip-rule="evenodd" d="M4.95629 13.3382C4.60264 13.3164 4.24963 13.3823 3.96186 13.6036C3.67408 13.8248 3.49822 14.1337 3.43235 14.5091C3.38887 14.8839 3.47583 15.2158 3.6971 15.5023C3.91837 15.8111 4.22661 15.9665 4.60264 16.0324C4.95628 16.0765 5.28691 15.9883 5.59707 15.767C5.90531 15.5464 6.0607 15.2369 6.12657 14.8839C6.17005 14.5309 6.08181 14.1996 5.86182 13.8683C5.64056 13.5812 5.33103 13.4041 4.95629 13.3382Z" fill="black"/>
<path d="M3.76297 5.74219C2.28445 6.27233 1.13526 7.575 0.296875 9.69495C2.0408 7.92864 3.45474 7.13374 4.60201 7.31024L3.76297 5.74219Z" fill="black"/>
<path d="M14.5386 6.40471L13.9426 8.10514C14.7592 8.12753 15.6878 8.41402 16.7468 8.94417C17.7847 9.47431 18.7567 10.181 19.7057 11.0417C18.2931 8.79005 16.5709 7.24373 14.5386 6.40471Z" fill="black"/>
<path d="M15.0694 14.4643C15.1128 14.089 15.047 13.7577 14.8257 13.4488C14.6057 13.1617 14.2962 12.9852 13.9215 12.9187C13.5454 12.8745 13.2148 12.9628 12.927 13.1841C12.6175 13.4047 12.4186 13.7136 12.3751 14.0896C12.3519 14.2645 12.3632 14.4423 12.4087 14.6128C12.4541 14.7833 12.5327 14.9432 12.6399 15.0834C12.8612 15.3923 13.1694 15.5688 13.5231 15.6353C13.8832 15.6826 14.2476 15.5874 14.5386 15.3699C14.8481 15.1486 15.0246 14.8397 15.0694 14.4643Z" fill="black"/>
</svg>
