<svg width="41" height="40" viewBox="0 0 41 40" fill="none" xmlns="http://www.w3.org/2000/svg">
<g clip-path="url(#clip0_202_14572)">
<path d="M37.5481 40.0004H2.45531C1.09567 40.0004 0.00170898 38.8986 0.00170898 37.5468V2.454C0.00170898 1.09436 1.10349 0.000396729 2.45531 0.000396729H37.5481C38.9077 0.000396729 40.0017 1.10217 40.0017 2.454V37.5468C40.0017 38.9064 38.9077 40.0004 37.5481 40.0004Z" fill="#0078D7"/>
<path d="M27.5071 12.8388C27.5149 12.7216 27.5149 12.6122 27.5149 12.495C27.5149 8.34578 24.147 4.98575 20.0134 4.97012C15.8564 4.97012 12.4963 8.33797 12.4963 12.4872C12.4963 12.6044 12.4963 12.7216 12.5041 12.8388C13.4106 12.6435 14.3561 12.4872 15.3328 12.3622C15.3953 9.83826 17.466 7.81443 20.0056 7.81443C22.5452 7.81443 24.6081 9.83826 24.6784 12.3622C25.6551 12.4872 26.6006 12.6435 27.5071 12.8388Z" fill="white"/>
<path fill-rule="evenodd" clip-rule="evenodd" d="M31.2812 15.2456C31.2812 15.2456 33.3051 29.4515 20.0369 35.0307H20.0056C6.73739 29.4515 8.76122 15.2456 8.76122 15.2456C11.8556 14.0891 15.7626 13.4015 20.0212 13.4015C24.2799 13.4015 28.1869 14.0891 31.2812 15.2456ZM23.6626 26.5603C23.686 26.404 23.6938 26.2477 23.6938 26.0836C23.6938 24.427 22.5999 23.0205 21.0839 22.5673C22.0998 22.1454 22.8187 21.1452 22.8187 19.9731C22.8187 18.4259 21.5606 17.1678 20.0134 17.1678C18.4662 17.1678 17.2082 18.4181 17.2082 19.9731C17.2082 21.1452 17.9271 22.1454 18.9429 22.5673C17.4348 23.0283 16.3408 24.427 16.3408 26.0836C16.3408 26.2477 16.3486 26.404 16.3721 26.5603H23.6626Z" fill="white"/>
</g>
<defs>
<clipPath id="clip0_202_14572">
<rect width="41" height="40.0004" fill="white"/>
</clipPath>
</defs>
</svg>
