<svg width="37" height="30" viewBox="0 0 37 30" fill="none" xmlns="http://www.w3.org/2000/svg">
<g clip-path="url(#clip0_202_9975)">
<path d="M1.162 6.07333L0.00170898 6.64052V7.7238L1.162 7.20795V6.07333Z" fill="#D97941"/>
<path d="M1.162 9.60651L0.00170898 10.1478V11.2308L1.162 10.7409V9.60651Z" fill="#D97941"/>
<path d="M2.55454 7.51771L4.05025 6.6151V8.21374L2.55454 9.03909V7.51771Z" fill="#D97941"/>
<path d="M2.55454 11.0247L4.05025 10.1221V11.7208L2.55454 12.572V11.0247Z" fill="#D97941"/>
<path d="M11.5034 8.72958L14.4686 7.23387V10.1221L11.5034 11.6178V8.72958Z" fill="#D97941"/>
<path d="M11.5034 12.2366L14.4686 10.7409V13.6294L11.5034 15.1251V12.2366Z" fill="#D97941"/>
<path d="M8.30585 8.62617L10.8328 7.41453V9.96736L8.30585 11.1795V8.62617Z" fill="#D97941"/>
<path d="M8.30585 12.1334L10.8328 10.9472V13.4746L8.30585 14.6867V12.1334Z" fill="#D97941"/>
<path d="M7.40277 9.63219L5.33963 10.5605V8.72958L7.40277 7.74972V9.63219Z" fill="#D97941"/>
<path d="M7.40277 13.1392L5.33963 14.0677V12.2366L7.40277 11.2308V13.1392Z" fill="#D97941"/>
<path d="M1.162 16.956L0.00170898 17.5234V18.5805L1.162 18.0649V16.956Z" fill="#4F89C8"/>
<path d="M1.162 20.4889L0.00170898 21.0561V22.1137L1.162 21.5978V20.4889Z" fill="#4F89C8"/>
<path d="M2.55456 18.3996L4.05027 17.4972V19.0704L2.55456 19.9215V18.3996Z" fill="#4F89C8"/>
<path d="M2.55456 21.9071L4.05027 21.0047V22.6034L2.55456 23.4542V21.9071Z" fill="#4F89C8"/>
<path d="M11.5034 19.5863L14.4687 18.0906V20.9788L11.5034 22.5005V19.5863Z" fill="#4F89C8"/>
<path d="M11.5034 23.1197L14.4687 21.6233V24.5118L11.5034 26.0334V23.1197Z" fill="#4F89C8"/>
<path d="M8.30585 19.509L10.8328 18.2967V20.85L8.30585 22.0619V19.509Z" fill="#4F89C8"/>
<path d="M8.30585 23.0161L10.8328 21.8042V24.3573L8.30585 25.5432V23.0161Z" fill="#4F89C8"/>
<path d="M7.40277 20.4889L5.33963 21.4431V19.5863L7.40277 18.6064V20.4889Z" fill="#4F89C8"/>
<path d="M7.40277 24.0221L5.33963 24.9763V23.1197L7.40277 22.1394V24.0221Z" fill="#4F89C8"/>
<path d="M18.827 27.4775V2.15362C24.3458 -0.244697 30.045 -0.39945 36.002 2.43746V27.5548C29.9934 24.6406 24.2426 24.3314 18.827 27.4775Z" fill="black"/>
<path d="M15.1138 7.13069V3.93293L18.3113 2.38587V5.45431L15.1138 7.13069Z" fill="black"/>
<path d="M15.1138 10.7927V7.59471L18.3113 6.02174V9.11633L15.1138 10.7927Z" fill="black"/>
<path d="M15.1138 14.4029V11.2051L18.3113 9.65809V12.7524L15.1138 14.4029Z" fill="black"/>
<path d="M15.1138 18.0649V14.8672L18.3113 13.3196V16.3885L15.1138 18.0649Z" fill="black"/>
<path d="M15.1138 21.6494V18.4774L18.3113 16.9044V19.9987L15.1138 21.6494Z" fill="black"/>
<path d="M15.1138 25.3887V22.1907L18.3113 20.6437V23.7383L15.1138 25.3887Z" fill="black"/>
<path d="M15.1138 29.0503V25.8525L18.3113 24.3052V27.3746L15.1138 29.0503Z" fill="black"/>
<path d="M14.4689 3.54592L11.5036 5.04188V7.93013L14.4689 6.43442V3.54592Z" fill="black"/>
<path d="M11.5036 15.8986L14.4689 14.4029V17.2912L11.5036 18.8128V15.8986Z" fill="black"/>
<path d="M14.4689 25.2856L11.5036 26.7813V29.6688L14.4689 28.1736V25.2856Z" fill="black"/>
<path d="M10.833 3.72659L8.3061 4.9128V7.46611L10.833 6.25375V3.72659Z" fill="black"/>
<path d="M8.3061 15.7955L10.833 14.6092V17.1366L8.3061 18.3485V15.7955Z" fill="black"/>
<path d="M10.833 25.466L8.30611 26.6519V29.2055L10.833 27.9931V25.466Z" fill="black"/>
<path d="M7.40302 5.94449L5.33988 6.87277V5.04188L7.40302 4.06201V5.94449Z" fill="black"/>
<path d="M5.33988 17.7295L7.40302 16.801V14.9183L5.33988 15.8986V17.7295Z" fill="black"/>
<path d="M7.40302 27.6834L5.33988 28.6117V26.7813L7.40302 25.8009V27.6834Z" fill="black"/>
<path d="M4.05051 2.92739L2.5548 3.82976V5.35114L4.05051 4.50035V2.92739Z" fill="black"/>
<path d="M2.5548 14.6867L4.05051 13.7839V15.3828L2.5548 16.2338V14.6867Z" fill="black"/>
<path d="M4.0505 24.6665L2.55479 25.5692V27.0905L4.0505 26.2654V24.6665Z" fill="black"/>
<path d="M1.16224 2.38587L0.00195312 2.97874V4.0361L1.16224 3.52049V2.38587Z" fill="black"/>
<path d="M0.00195312 13.8098L1.16224 13.2426V14.377L0.00195312 14.8928V13.8098Z" fill="black"/>
<path d="M1.16224 24.1248L0.00195312 24.7181V25.7757L1.16224 25.2596V24.1248Z" fill="black"/>
<path fill-rule="evenodd" clip-rule="evenodd" d="M18.8008 5.68657C21.0703 4.68103 22.9268 4.13927 24.5521 4.0361V12.0305C22.6178 12.185 20.7094 12.7784 18.8008 13.6551V5.68657Z" fill="#D97941"/>
<path fill-rule="evenodd" clip-rule="evenodd" d="M26.7954 3.67499V11.8498H29.0649C30.0704 11.8498 31.7209 12.3654 32.469 12.6493V4.5776C30.5863 3.7784 28.6781 3.49457 26.7954 3.67499Z" fill="#8ABE6C"/>
<path fill-rule="evenodd" clip-rule="evenodd" d="M26.7954 14.1966V22.0619C28.9876 21.9587 30.6638 22.2941 32.4687 22.887V14.9444C30.5863 14.1966 28.6781 13.9646 26.7954 14.1966Z" fill="#F2CA30"/>
<path fill-rule="evenodd" clip-rule="evenodd" d="M18.8008 16.1565C20.9155 15.1251 22.8239 14.6608 24.5521 14.532V22.1648C22.5146 22.5261 20.5549 23.0681 18.8008 23.8928V16.1565Z" fill="#4F89C8"/>
</g>
<defs>
<clipPath id="clip0_202_9975">
<rect width="37" height="30" fill="white"/>
</clipPath>
</defs>
</svg>
