<svg width="37" height="36" viewBox="0 0 37 36" fill="none" xmlns="http://www.w3.org/2000/svg">
<g clip-path="url(#clip0_202_16039)">
<path d="M30.625 8.32084C30.5154 8.43038 30.5874 8.78195 30.4765 8.89079C27.6096 12.9698 23.5262 17.5156 20.6592 20.3294C17.8491 23.1964 12.9147 27.6105 8.89029 30.4768C8.78018 30.5871 8.40921 30.5349 8.29981 30.6459C6.97695 29.6539 5.87445 28.4412 4.93705 27.0621C4.3858 26.2363 3.88939 25.3543 3.4498 24.4163C2.56724 22.4318 2.07153 20.2832 2.07153 17.9667C2.07153 9.1487 9.18181 2.03772 18.0005 2.03772C20.3162 2.03772 22.5204 2.53342 24.4507 3.41683C25.3867 3.80228 26.2132 4.29953 27.0403 4.84923C28.3647 5.89548 29.5773 6.99868 30.625 8.32084Z" fill="#184AE8"/>
<path d="M33.9318 18.0232C33.9318 26.8425 26.8208 33.9514 18.0014 33.9514C15.4104 33.9514 12.9302 33.344 10.7809 32.2431C9.89817 31.8036 9.07256 31.2508 8.30151 30.6434C8.41106 30.5894 8.57672 30.4785 8.68767 30.3675C12.7666 27.5005 17.5063 23.2031 20.3186 20.3347C23.185 17.5247 27.4836 12.7273 30.3506 8.70386C30.4602 8.59502 30.5157 8.42781 30.6274 8.31897C31.2333 9.08931 31.7832 9.91787 32.2255 10.7976C33.2703 13.0075 33.9318 15.4315 33.9318 18.0232Z" fill="#184AE8"/>
<path d="M32.5544 10.3052C32.4448 10.4702 32.3324 10.636 32.1689 10.8009C29.1923 14.8792 25.0038 19.5101 22.2463 22.2655C19.4355 25.0748 14.8045 29.2669 10.7811 32.188C10.616 32.2968 10.4504 32.4099 10.2854 32.5736C7.03291 34.8885 4.66296 35.9909 2.95465 35.9909C2.07195 35.9909 1.41045 35.7143 0.860045 35.1645C-0.738157 33.5655 -0.132204 30.3153 2.89995 25.0237L3.12186 24.7463L3.44965 24.4164C3.87814 25.3358 4.37932 26.2209 4.93676 27.0621C2.62095 31.252 2.6232 32.961 2.8437 33.2363H3.00865C3.44895 33.2363 4.88276 33.0136 8.35577 30.5898C8.46602 30.5358 8.63097 30.4248 8.74052 30.313C12.8202 27.4461 17.5599 23.1488 20.3729 20.281C23.2399 17.471 27.538 12.6743 30.4042 8.6495C30.5152 8.53995 30.5693 8.37275 30.681 8.2639C33.7121 3.90973 33.2727 2.75253 33.2727 2.75253C32.9968 2.58828 31.2883 2.58828 27.0991 4.90114C26.2733 4.34848 25.4455 3.85348 24.5081 3.46803L25.1149 2.91678C30.4065 -0.11523 33.6027 -0.721183 35.2572 0.877019C36.7969 2.53274 35.9711 5.45534 32.5544 10.3052Z" fill="#FF6464"/>
</g>
<defs>
<clipPath id="clip0_202_16039">
<rect width="37" height="36" fill="white"/>
</clipPath>
</defs>
</svg>
