<svg width="37" height="37" viewBox="0 0 37 37" fill="none" xmlns="http://www.w3.org/2000/svg">
<g clip-path="url(#clip0_202_13094)">
<path d="M32.9094 0.00158691H3.09692C1.38829 0.00158691 0.00317383 1.38671 0.00317383 3.09534V32.9078C0.00317383 34.6165 1.38829 36.0016 3.09692 36.0016H32.9094C34.6181 36.0016 36.0032 34.6165 36.0032 32.9078V3.09534C36.0032 1.38671 34.6181 0.00158691 32.9094 0.00158691Z" fill="#F1C761"/>
<path d="M16.6103 26.6073V9.59473L12.4729 10.1757L9.30913 16.3071L6.30235 10.9058L2.82446 11.4554V24.8645L6.09819 25.4218V16.9353L9.30123 22.9724H9.37192L12.7478 16.9117V26.0342L16.6103 26.6073Z" fill="black" fill-opacity="0.35"/>
<path d="M2.75391 7.59282V9.35131L18.0629 6.81553V4.57025L2.75391 7.59282Z" fill="black" fill-opacity="0.35"/>
<path d="M2.75391 28.3894L18.0629 31.4041V29.1666L2.75391 26.6229V28.3894Z" fill="black" fill-opacity="0.35"/>
<path d="M18.063 4.57025V6.81553L33.372 9.35131V7.59282L18.063 4.57025Z" fill="white"/>
<path d="M33.3012 24.8645V11.4554L29.8233 10.9058L26.8166 16.3071L23.6526 10.1757L19.5154 9.59473V26.6073L23.3779 26.0342V16.9117L26.7538 22.9724H26.8243L30.0275 16.9353V25.4218L33.3012 24.8645Z" fill="white"/>
<path d="M18.063 31.4041L33.372 28.3894V26.6229L18.063 29.1666V31.4041Z" fill="white"/>
</g>
<defs>
<clipPath id="clip0_202_13094">
<rect width="37" height="37" fill="white"/>
</clipPath>
</defs>
</svg>
