<svg width="28" height="41" viewBox="0 0 28 41" fill="none" xmlns="http://www.w3.org/2000/svg">
<g clip-path="url(#clip0_202_11624)">
<path d="M14.002 0.00256348C4.10118 16.2514 0.156494 19.3325 0.156494 26.157C0.156494 33.8037 6.3554 40.0026 14.002 40.0026C21.6487 40.0026 27.8476 33.8037 27.8476 26.157C27.8476 19.2728 23.8424 16.2215 14.002 0.00256348ZM14.002 37.7292C7.59815 37.7292 2.40683 32.5378 2.40683 26.1339C2.40683 20.4186 5.7104 17.8382 14.002 4.23032C22.2432 17.8132 25.5973 20.3685 25.5973 26.1339C25.5973 32.5378 20.4059 37.7292 14.002 37.7292ZM12.5666 32.8653C11.2326 32.5661 10.2214 32.0277 9.26427 31.1243C8.57621 30.4721 8.19935 29.9757 7.81643 29.2338C7.21221 28.0552 7.00279 27.1099 7.0506 25.7639C7.06856 25.0997 7.11053 24.7647 7.23016 24.322C7.40961 23.646 7.7087 22.9041 7.8703 22.7247C7.93607 22.6529 7.98994 22.569 7.98994 22.5332C7.98994 22.4973 8.03775 22.4016 8.09161 22.3179C8.24716 22.0725 8.25322 21.7255 8.10957 21.4384C7.78658 20.8102 7.26002 20.5469 6.61393 20.6906C6.16525 20.7923 5.93193 21.0914 5.47719 22.1444C4.93277 23.4126 4.71146 24.3459 4.65759 25.6143C4.45413 30.2329 7.63103 34.2951 12.1598 35.2164C12.6205 35.3062 12.8299 35.3241 13.0153 35.2823C13.9427 35.0729 14.2837 34.0079 13.6495 33.3139C13.4581 33.0986 13.2786 33.0268 12.5666 32.8653Z" fill="#9B4DCA"/>
</g>
<defs>
<clipPath id="clip0_202_11624">
<rect width="28" height="41" fill="white"/>
</clipPath>
</defs>
</svg>
