<svg width="37" height="37" viewBox="0 0 37 37" fill="none" xmlns="http://www.w3.org/2000/svg">
<g clip-path="url(#clip0_202_13310)">
<path d="M18.002 36.0016C27.9431 36.0016 36.002 27.9427 36.002 18.0016C36.002 8.06046 27.9431 0.00158691 18.002 0.00158691C8.06083 0.00158691 0.00195312 8.06046 0.00195312 18.0016C0.00195312 27.9427 8.06083 36.0016 18.002 36.0016Z" fill="#E9E9E9"/>
<path d="M23.3537 29.24C12.9402 28.3944 18.0624 27.8145 3.05835 24.7219C7.18989 27.9112 13.9067 35.8119 23.3537 29.24Z" fill="url(#paint0_linear_202_13310)"/>
<path d="M34.0811 16.6038C24.1992 14.6467 14.5106 7.90578 4.33878 10.0803C4.19382 10.1286 4.02469 10.1528 4.09717 10.2252C10.5965 11.3608 24.2233 21.0977 34.0811 16.6038Z" fill="url(#paint1_linear_202_13310)"/>
<path d="M31.375 25.8334C26.1804 24.722 14.8005 16.0481 2.01929 19.5273C13.2059 22.0884 23.281 28.322 31.375 25.8334Z" fill="url(#paint2_linear_202_13310)"/>
<path d="M33.0905 11.5058C27.316 7.25344 20.0676 -0.429782 13.4475 6.64941C21.5173 7.64002 22.5804 8.96888 33.0905 11.5058Z" fill="#A4A4A4"/>
<path d="M2.9375 24.6736C14.8972 24.6978 21.7348 15.5649 34.0811 16.6039C24.2234 21.6535 12.167 31.1971 2.9375 24.6736Z" fill="#121212"/>
<path d="M33.0665 11.5059C21.0101 10.5394 14.7282 20.2763 1.92285 19.5757C6.77923 17.377 21.1067 4.45082 33.0665 11.5059Z" fill="#171717"/>
<path d="M24.2233 5.15144C17.3133 4.90983 10.2824 11.0467 4.04883 10.2494C8.54279 7.51922 16.8784 0.633318 24.2233 5.15144Z" fill="#212121"/>
<path d="M11.8286 30.9314C19.0045 30.9072 25.0206 24.6012 31.5199 25.8334C26.2045 28.8777 19.7293 35.1596 11.8286 30.9314Z" fill="#010101"/>
</g>
<defs>
<linearGradient id="paint0_linear_202_13310" x1="54.5139" y1="42.6134" x2="42.9055" y2="9.98449" gradientUnits="userSpaceOnUse">
<stop stop-color="white"/>
<stop offset="1" stop-color="#C2C1C1"/>
</linearGradient>
<linearGradient id="paint1_linear_202_13310" x1="67.0217" y1="27.8002" x2="58.8675" y2="-4.50894" gradientUnits="userSpaceOnUse">
<stop stop-color="white"/>
<stop offset="1" stop-color="#A2A2A1"/>
</linearGradient>
<linearGradient id="paint2_linear_202_13310" x1="81.8562" y1="44.454" x2="73.6926" y2="4.00359" gradientUnits="userSpaceOnUse">
<stop stop-color="white"/>
<stop offset="1" stop-color="#B3B3B3"/>
</linearGradient>
<clipPath id="clip0_202_13310">
<rect width="37" height="37" fill="white"/>
</clipPath>
</defs>
</svg>
