<svg width="37" height="36" viewBox="0 0 37 36" fill="none" xmlns="http://www.w3.org/2000/svg">
<g clip-path="url(#clip0_202_14836)">
<path d="M30.098 22.8412C30.098 26.2046 28.9014 29.0825 26.5084 31.4753C24.1152 33.8686 21.2463 35.0647 17.9021 35.0647C14.5387 35.0647 11.6607 33.8686 9.26795 31.4753C6.87471 29.0825 5.67839 26.2046 5.67839 22.8412C5.67839 19.4781 6.87471 16.6046 9.26795 14.2209C11.6607 11.8371 14.5295 10.6453 17.8743 10.6453C21.256 10.6453 24.1385 11.8371 26.5224 14.2209C28.9061 16.6046 30.098 19.4781 30.098 22.8412ZM27.9914 22.8412C27.9914 20.0512 27.0074 17.6718 25.0394 15.7037C23.0715 13.7359 20.6921 12.7517 17.9021 12.7517C15.1117 12.7517 12.7278 13.7452 10.7508 15.7315C8.77328 17.718 7.78499 20.0881 7.78499 22.8412C7.78499 25.5948 8.77328 27.969 10.7508 29.9647C12.7278 31.9603 15.1117 32.9583 17.9021 32.9583C20.6738 32.9583 23.0481 31.9651 25.0256 29.9785C27.0027 27.9923 27.9914 25.6129 27.9914 22.8412Z" fill="#58A958"/>
<path fill-rule="evenodd" clip-rule="evenodd" d="M20.8333 21.7685C23.2262 19.3757 24.4229 16.4977 24.4229 13.1343C24.4229 9.77137 23.231 6.89773 20.8473 4.514C20.578 4.24471 20.3023 3.99063 20.0202 3.75175C21.1863 3.28063 22.4488 3.04502 23.8077 3.04502C26.5976 3.04502 28.9771 4.029 30.9449 5.99696C32.913 7.96492 33.897 10.3444 33.897 13.1343C33.897 15.9062 32.9081 18.2856 30.9311 20.2717C28.9537 22.2584 26.5794 23.2514 23.8077 23.2514C22.4421 23.2514 21.1739 23.0125 20.0031 22.5345C20.2859 22.2945 20.5626 22.0391 20.8333 21.7685ZM18.0248 4.85464C18.4907 5.18906 18.9372 5.56984 19.3643 5.99696C21.3323 7.96492 22.3163 10.3444 22.3163 13.1343C22.3163 15.9062 21.3275 18.2856 19.3505 20.2717C18.9222 20.7019 18.4754 21.0856 18.0099 21.4226C17.5393 21.082 17.0881 20.6937 16.6563 20.2579C14.6789 18.2621 13.6906 15.8879 13.6906 13.1343C13.6906 10.3812 14.6789 8.01129 16.6563 6.0246C17.0927 5.58626 17.5488 5.19627 18.0248 4.85464ZM16.0107 3.74503C15.7254 3.98586 15.4464 4.24218 15.1735 4.514C12.7801 6.89773 11.584 9.77137 11.584 13.1343C11.584 16.4977 12.7801 19.3757 15.1735 21.7685C15.4457 22.0407 15.7241 22.2974 16.0089 22.5387C14.8432 23.0138 13.5826 23.2514 12.227 23.2514C9.43653 23.2514 7.0528 22.2536 5.07578 20.2579C3.09815 18.2621 2.10987 15.8879 2.10987 13.1343C2.10987 10.3812 3.09815 8.01129 5.07578 6.0246C7.0528 4.03852 9.43653 3.04502 12.227 3.04502C13.5856 3.04502 14.8469 3.27836 16.0107 3.74503ZM18.0107 2.36541C19.7438 1.41408 21.6668 0.938416 23.7799 0.938416C27.1616 0.938416 30.0441 2.13028 32.428 4.514C34.8117 6.89773 36.0034 9.77137 36.0034 13.1343C36.0034 16.4977 34.807 19.3757 32.4142 21.7685C30.0208 24.1617 27.1519 25.358 23.8077 25.358C21.6791 25.358 19.7449 24.8789 18.0051 23.9204C16.2695 24.8789 14.3435 25.358 12.227 25.358C8.86355 25.358 5.98561 24.1617 3.59282 21.7685C1.19958 19.3757 0.00341797 16.4977 0.00341797 13.1343C0.00341797 9.77137 1.19958 6.89773 3.59282 4.514C5.98561 2.13028 8.85449 0.938416 12.1992 0.938416C14.3355 0.938416 16.2726 1.41408 18.0107 2.36541ZM18.0107 2.36541C17.3133 2.74825 16.6466 3.20812 16.0107 3.74503C16.7181 4.02869 17.3894 4.39856 18.0248 4.85464C18.6552 4.40218 19.3203 4.03454 20.0202 3.75175C19.3829 3.21196 18.7131 2.74985 18.0107 2.36541Z" fill="#58A958"/>
<path d="M18.0107 2.36541C17.3133 2.74825 16.6466 3.20812 16.0107 3.74503C16.7181 4.02869 17.3894 4.39856 18.0248 4.85464C18.6552 4.40218 19.3203 4.03454 20.0202 3.75175C19.3829 3.21196 18.7131 2.74985 18.0107 2.36541Z" fill="#58A958"/>
</g>
<defs>
<clipPath id="clip0_202_14836">
<rect width="37" height="36" fill="white"/>
</clipPath>
</defs>
</svg>
