<svg width="37" height="37" viewBox="0 0 37 37" fill="none" xmlns="http://www.w3.org/2000/svg">
<g clip-path="url(#clip0_202_16069)">
<path d="M36.0013 33.2473V2.76159C36.0013 1.51097 35.1684 0.455492 34.0273 0.11792L32.7315 0.893301L18.3505 16.2266L17.8997 17.6359L17.6362 18.9885L22.1207 35.7483L22.8146 36.0044H33.2442C34.7669 36.0044 36.0013 34.77 36.0013 33.2473Z" fill="#EA6618"/>
<path d="M0.0012207 2.76166V33.2473C0.0012207 34.1901 0.474649 35.0219 1.19641 35.5191L2.0807 35.0957L17.3028 18.7981L17.8996 17.636L17.9219 16.5124L13.779 0.750517L13.1517 0.0045166H2.75837C1.23565 0.0045166 0.0012207 1.23895 0.0012207 2.76166Z" fill="#D65813"/>
<path d="M17.8995 17.636L34.0271 0.11804C33.7788 0.0445643 33.5161 0.0045166 33.244 0.0045166H13.1516L17.8995 17.636Z" fill="#E05E11"/>
<path d="M2.75824 36.0046H22.8143L17.8994 17.636L1.19629 35.5192C1.64034 35.8251 2.17824 36.0046 2.75824 36.0046Z" fill="#DE5C16"/>
<path d="M13.3492 13.6493H15.3496C16.1466 16.6568 17.0538 19.2958 18.0658 21.677C19.2122 18.998 20.0525 16.3572 20.7638 13.6493H22.654C21.8074 17.0139 20.4226 20.4049 18.8386 23.9051H17.1666C15.6451 20.5882 14.3497 17.178 13.3492 13.6493ZM6.75106 8.43848H11.1991V27.5125H6.73145V26.0422H9.46954V9.86962H6.75106V8.43848ZM29.2748 9.86963H26.5562V26.0422H29.2943V27.5125H24.8267V8.43849H29.2748V9.86963Z" fill="white"/>
</g>
<defs>
<clipPath id="clip0_202_16069">
<rect width="37" height="37" fill="white"/>
</clipPath>
</defs>
</svg>
