<svg width="32" height="37" viewBox="0 0 32 37" fill="none" xmlns="http://www.w3.org/2000/svg">
<g clip-path="url(#clip0_202_8383)">
<path d="M30.8846 27.7019L16.9715 35.7406C16.3725 36.0883 15.6382 36.0883 15.0391 35.7406L1.12611 27.7019C0.52708 27.354 0.159912 26.7164 0.159912 26.0401V9.9627C0.159912 9.26711 0.52708 8.64876 1.12611 8.30091L15.0391 0.262203C15.6382 -0.0855294 16.3725 -0.0855294 16.9715 0.262203L30.8846 8.30091C31.4836 8.64876 31.8508 9.28642 31.8508 9.9627V26.0401C31.8314 26.7164 31.4643 27.354 30.8846 27.7019Z" fill="#8D6748"/>
<path d="M15.986 2.44586C15.6962 2.44586 15.4063 2.52311 15.1551 2.67773L3.1357 9.61493C2.61392 9.90485 2.30481 10.4651 2.30481 11.0449V24.9193C2.30481 25.5183 2.61392 26.0594 3.1357 26.3493L15.1551 33.2865C15.4063 33.4411 15.6962 33.5184 15.986 33.5184C16.2758 33.5184 16.5657 33.4411 16.8169 33.2865L28.8362 26.3493C29.358 26.0594 29.6671 25.499 29.6671 24.9194V11.0449C29.6671 10.4458 29.358 9.90485 28.8362 9.61493L16.8169 2.67773C16.5657 2.52311 16.2758 2.44586 15.986 2.44586ZM15.986 3.02558C16.1792 3.02558 16.3531 3.08352 16.5271 3.1802L28.5463 10.1174C28.8749 10.3106 29.0874 10.6778 29.0874 11.0643V24.9387C29.0874 25.3252 28.8749 25.6922 28.5463 25.8855L16.5271 32.8227C16.3531 32.9193 16.1792 32.9773 15.986 32.9773C15.7927 32.9773 15.5995 32.9193 15.4449 32.8227L3.42563 25.8855C3.09708 25.6922 2.88453 25.3252 2.88453 24.9387V11.0643C2.88453 10.6778 3.09708 10.3106 3.42563 10.1174L15.4449 3.1802C15.6188 3.08352 15.812 3.02558 15.986 3.02558ZM14.8748 15.1223H16.498C16.556 15.1223 16.5947 15.1028 16.6333 15.0642C17.5995 13.9821 17.6962 11.7212 17.6962 11.0449C17.6962 10.9483 17.6188 10.8517 17.5029 10.8517H15.6864H13.87C13.7734 10.8517 13.6768 10.9289 13.6768 11.0449C13.6768 11.7019 13.7734 13.9628 14.7396 15.0642C14.7783 15.1028 14.8169 15.1223 14.8748 15.1223ZM14.4304 11.4507H15.7057H16.9812C17.0777 11.4507 17.1744 11.5279 17.1744 11.6439C17.1744 12.185 17.0777 13.7115 16.4207 14.5038C16.3628 14.5425 16.3242 14.5618 16.2661 14.5618H15.1261C15.0681 14.5618 15.0294 14.5425 14.9908 14.5038C14.3337 13.7309 14.2565 12.185 14.2372 11.6439C14.2372 11.5474 14.3144 11.4507 14.4304 11.4507ZM16.0536 10.4652C16.0536 10.4652 16.7493 10.0594 16.3241 9.32507C16.0729 8.93859 15.957 8.61016 16.0536 8.47486C15.8024 8.78409 15.3773 9.11251 15.841 9.80823C15.9957 9.98216 16.0729 10.3492 16.0536 10.4652ZM15.2807 10.5232C15.2807 10.5232 15.7444 10.2527 15.4546 9.75019C15.2807 9.49902 15.2034 9.26716 15.2807 9.18979C15.1067 9.40234 14.8363 9.61489 15.1454 10.0981C15.242 10.1946 15.2807 10.4459 15.2807 10.5232ZM15.2227 14.3299H16.1889C16.2275 14.3299 16.2661 14.3106 16.3048 14.272C16.6333 13.8855 16.7879 13.2865 16.8652 12.7647C16.8652 12.7647 16.8459 12.9386 16.3821 13.1126C15.7445 13.3444 14.6237 13.1898 14.6237 13.1898C14.7202 13.5956 14.8748 13.9821 15.1067 14.272C15.126 14.3106 15.1841 14.3299 15.2227 14.3299ZM7.95698 19.7599V15.8952H7.24196L6.06321 17.7116L4.88446 15.8952H4.16956V19.7792H4.84583V17.0159L6.0439 18.813H6.06321L7.28071 16.9966V19.7599H7.95698ZM12.2855 15.9725C12.0342 15.8758 11.7637 15.8179 11.4739 15.8179C11.184 15.8179 10.9135 15.8565 10.6622 15.9725C10.4111 16.0691 10.1985 16.2237 10.0246 16.3976C9.83135 16.5908 9.69617 16.8034 9.59949 17.0353C9.50293 17.2864 9.44487 17.5376 9.44487 17.8082V17.8275C9.44487 18.098 9.50293 18.3686 9.59949 18.6005C9.69617 18.8517 9.83135 19.0642 10.0053 19.2381C10.1792 19.4121 10.3918 19.5667 10.6429 19.6633C10.8942 19.7599 11.1647 19.8179 11.4545 19.8179C11.7444 19.8179 12.0149 19.7792 12.2662 19.6633C12.5174 19.5667 12.7299 19.4121 12.9039 19.2381C13.0971 19.0449 13.2323 18.8324 13.329 18.6005C13.4255 18.3493 13.4836 18.098 13.4836 17.8275V17.8082C13.4836 17.5376 13.4255 17.2671 13.329 17.0353C13.2323 16.7841 13.0971 16.5715 12.9232 16.3976C12.7493 16.2237 12.5367 16.0691 12.2855 15.9725ZM12.7493 17.8468C12.7493 18.0208 12.7106 18.1947 12.6526 18.3686C12.5753 18.5231 12.4981 18.6777 12.3821 18.7937C12.2662 18.9096 12.1309 19.0063 11.9763 19.0835C11.8217 19.1609 11.6478 19.1995 11.4545 19.1995C11.2807 19.1995 11.0875 19.1609 10.9329 19.0835C10.7782 19.0063 10.6429 18.9096 10.5271 18.7937C10.4111 18.6584 10.3145 18.5231 10.2565 18.3493C10.1985 18.1754 10.1599 18.0015 10.1599 17.8082V17.7889C10.1599 17.615 10.1985 17.4411 10.2565 17.2671C10.3338 17.1125 10.4111 16.958 10.5271 16.842C10.6429 16.726 10.7782 16.6295 10.9329 16.5521C11.0875 16.4749 11.2613 16.4362 11.4545 16.4362C11.6478 16.4362 11.8217 16.4749 11.9763 16.5521C12.1309 16.6295 12.2662 16.726 12.3821 16.842C12.4981 16.9773 12.5946 17.1125 12.6526 17.2864C12.7106 17.4604 12.7493 17.6343 12.7493 17.8275V17.8468ZM15.6092 17.2671C15.6864 17.1125 15.7638 16.9579 15.8796 16.842C15.9956 16.726 16.1309 16.6295 16.2854 16.5521C16.4401 16.4749 16.5947 16.4362 16.7879 16.4362C17.0198 16.4362 17.213 16.4749 17.3869 16.5714C17.5609 16.6681 17.7155 16.7841 17.87 16.9193L18.3145 16.4169C18.2178 16.3202 18.1213 16.243 18.0246 16.1656C17.928 16.0884 17.812 16.0304 17.6962 15.9724C17.5609 15.9338 17.4449 15.8951 17.2903 15.8565C17.1358 15.8372 16.9812 15.8179 16.8072 15.8179C16.498 15.8179 16.2468 15.8758 15.9956 15.9724C15.7445 16.0691 15.5319 16.2237 15.358 16.3976C15.1841 16.5908 15.0488 16.8034 14.9522 17.0353C14.8555 17.2671 14.7976 17.5376 14.7976 17.8082V17.8275C14.7976 18.098 14.8555 18.3492 14.9522 18.6005C15.0488 18.8517 15.1841 19.0642 15.358 19.2381C15.5319 19.4121 15.7445 19.5667 15.9763 19.6633C16.2082 19.7599 16.4594 19.8179 16.7493 19.8179C16.9232 19.8179 17.097 19.8179 17.2709 19.7792C17.4063 19.7599 17.5609 19.7019 17.6767 19.6439C17.7927 19.586 17.9087 19.5279 18.0246 19.4314C18.1406 19.3347 18.2371 19.2575 18.3338 19.1415L17.8894 18.6971C17.7155 18.8517 17.5416 18.9677 17.3869 19.0642C17.2323 19.1609 17.0198 19.1995 16.7879 19.1995C16.614 19.1995 16.4401 19.1415 16.2854 19.0835C16.1309 19.0256 15.9956 18.9096 15.8796 18.7937C15.7638 18.6584 15.6671 18.5231 15.6092 18.3492C15.5512 18.1754 15.5125 18.0015 15.5125 17.8082V17.7889C15.5125 17.615 15.5512 17.4411 15.6092 17.2671ZM19.6865 15.8952V19.7598H20.3627V18.1367H22.2179V19.7598H22.8942V15.8952H22.2179V17.499H20.3627V15.8952H19.6865ZM27.1068 18.8324L27.4933 19.7599H28.2082L26.5078 15.8758H25.8893L24.1889 19.7599H24.8845L25.2903 18.8324H27.1068ZM26.1985 16.6874L26.8555 18.2333H25.5416L26.1985 16.6874ZM3.68647 21.1898H28.3241V20.9773H3.68647V21.1898ZM17.8507 13.7116C17.8507 13.7888 17.8314 13.8469 17.8314 13.9241H28.3242V13.7116H17.8507ZM13.5415 13.7116H3.68641V13.9241H13.5608C13.5608 13.8469 13.5415 13.7888 13.5415 13.7116Z" fill="white"/>
</g>
<defs>
<clipPath id="clip0_202_8383">
<rect width="32" height="37" fill="white"/>
</clipPath>
</defs>
</svg>
