<svg width="32" height="36" viewBox="0 0 32 36" fill="none" xmlns="http://www.w3.org/2000/svg">
<g clip-path="url(#clip0_202_9720)">
<path d="M30.7402 8.90361L16.5093 0.687478C16.1944 0.506111 15.8068 0.506111 15.492 0.687478L1.26105 8.90361C0.946311 9.08554 0.752441 9.42147 0.752441 9.78501V26.2173C0.752441 26.5807 0.946339 26.9165 1.26105 27.0982L15.492 35.3144C15.8068 35.4957 16.1944 35.4957 16.5093 35.3144L30.7402 27.0982C31.0549 26.9165 31.2488 26.5807 31.2488 26.2173V9.78501C31.2488 9.42148 31.0549 9.08554 30.7402 8.90361Z" fill="white"/>
<path d="M30.9102 8.32104L16.9295 0.249323C16.3548 -0.0818868 15.6472 -0.0818868 15.0724 0.249323L1.09217 8.32063C0.518465 8.65359 0.164861 9.26629 0.163574 9.92961V26.0722C0.16469 26.7355 0.518407 27.3482 1.09227 27.6808L15.0722 35.7521C15.6468 36.0839 16.3547 36.0839 16.9293 35.7521L30.9096 27.6808C31.4834 27.3481 31.837 26.7355 31.8382 26.0722V9.92961C31.837 9.26654 31.4836 8.65403 30.9102 8.32104ZM30.9803 26.0722C30.9803 26.4292 30.7898 26.7591 30.4806 26.9377L16.5006 35.009C16.1913 35.1871 15.8105 35.1871 15.5012 35.009L1.52112 26.9377C1.21196 26.7591 1.02148 26.4292 1.02148 26.0722V9.92962C1.02148 9.57249 1.21193 9.24247 1.52112 9.06376L15.5012 0.99245C15.8105 0.81428 16.1913 0.81428 16.5006 0.99245L30.4806 9.06376C30.7898 9.24247 30.9803 9.57249 30.9803 9.92962V26.0722Z" fill="#999999"/>
<path d="M3.48351 25.7794C3.133 25.577 2.91708 25.203 2.91708 24.7983V16.6243C2.89144 15.6854 3.02952 14.7492 3.32512 13.8577C3.80056 12.5744 4.74087 11.3189 6.60479 10.5785C10.1762 9.15982 13.706 11.078 15.7002 13.9215C17.3746 16.3091 18.3519 17.2584 20.4574 18.8703C22.3218 20.2976 28.1688 22.8645 29.0532 17.7516V24.7983C29.0532 25.203 28.8372 25.577 28.4867 25.7794L16.5515 32.6701C16.201 32.8725 15.7692 32.8725 15.4187 32.6701L3.48351 25.7794Z" fill="url(#paint0_linear_202_9720)"/>
<path d="M3.48342 25.7794L15.4186 32.6702C15.7691 32.8725 16.201 32.8725 16.5515 32.6702L28.4867 25.7794C28.8372 25.577 29.0531 25.203 29.0531 24.7983V17.7516C29.0531 12.532 23.2311 12.1011 20.2307 16.2494C17.8525 19.5374 16.7991 20.7146 13.6156 21.8723C9.88986 23.2271 6.54573 22.4924 4.6439 20.6319C3.55622 19.5803 2.93439 18.1372 2.91699 16.6243V24.7983C2.91699 25.203 3.13292 25.577 3.48342 25.7794Z" fill="url(#paint1_linear_202_9720)"/>
<path opacity="0.3" d="M29.0531 17.7516C29.0531 12.532 23.2311 12.1011 20.2306 16.2494C19.8178 16.8203 19.4453 17.3262 19.0942 17.7807C19.4994 18.1249 19.9447 18.4779 20.4573 18.8703C22.3217 20.2976 28.1687 22.8645 29.0531 17.7516Z" fill="url(#paint2_linear_202_9720)"/>
</g>
<defs>
<linearGradient id="paint0_linear_202_9720" x1="12.8675" y1="12.0375" x2="15.9207" y2="24.1373" gradientUnits="userSpaceOnUse">
<stop offset="0.01093" stop-color="#E67417"/>
<stop offset="0.99952" stop-color="#E62F17"/>
</linearGradient>
<linearGradient id="paint1_linear_202_9720" x1="15.9844" y1="13.5779" x2="15.9844" y2="32.2942" gradientUnits="userSpaceOnUse">
<stop stop-color="#F2BB30"/>
<stop offset="0.30905" stop-color="#E67417"/>
<stop offset="1" stop-color="#E62F17"/>
</linearGradient>
<linearGradient id="paint2_linear_202_9720" x1="23.2031" y1="19.6753" x2="23.9925" y2="16.0103" gradientUnits="userSpaceOnUse">
<stop stop-color="white"/>
<stop offset="1" stop-color="white" stop-opacity="0"/>
</linearGradient>
<clipPath id="clip0_202_9720">
<rect width="32" height="36.0009" fill="white"/>
</clipPath>
</defs>
</svg>
