<svg width="37" height="37" viewBox="0 0 37 37" fill="none" xmlns="http://www.w3.org/2000/svg">
<g clip-path="url(#clip0_202_16086)">
<path fill-rule="evenodd" clip-rule="evenodd" d="M18.002 36.0045C27.9431 36.0045 36.002 27.9456 36.002 18.0045C36.002 8.06339 27.9431 0.0045166 18.002 0.0045166C8.06083 0.0045166 0.00195312 8.06339 0.00195312 18.0045C0.00195312 27.9456 8.06083 36.0045 18.002 36.0045ZM18.002 33.3045C9.552 33.3045 2.70195 26.4545 2.70195 18.0045C2.70195 9.55456 9.552 2.70452 18.002 2.70452C26.4519 2.70452 33.302 9.55456 33.302 18.0045C33.302 26.4545 26.4519 33.3045 18.002 33.3045Z" fill="#376660"/>
<path fill-rule="evenodd" clip-rule="evenodd" d="M18.0021 32.4045C25.955 32.4045 32.4021 25.9574 32.4021 18.0045C32.4021 10.0516 25.955 3.60449 18.0021 3.60449C10.0492 3.60449 3.60205 10.0516 3.60205 18.0045C3.60205 25.9574 10.0492 32.4045 18.0021 32.4045ZM18.0021 4.50449C17.505 4.50449 17.1021 4.90945 17.1021 5.41065V17.1045H10.7994C10.3038 17.1045 9.90205 17.504 9.90205 18.0045C9.90205 18.5015 10.3121 18.9045 10.7979 18.9045H18.9021V5.40528C18.9021 4.90779 18.5026 4.50449 18.0021 4.50449Z" fill="#529990"/>
</g>
<defs>
<clipPath id="clip0_202_16086">
<rect width="37" height="37" fill="white"/>
</clipPath>
</defs>
</svg>
