<svg width="40" height="26" viewBox="0 0 40 26" fill="none" xmlns="http://www.w3.org/2000/svg">
<g clip-path="url(#clip0_202_13018)">
<path d="M4.97586 24.9376C3.17566 24.9415 1.5126 23.9765 0.622766 22.4116C-0.254238 20.8563 -0.201647 18.9441 0.759513 17.4393L9.72399 3.36207C10.6581 1.82178 12.3487 0.9032 14.1493 0.957612C15.9485 1.00073 17.5851 2.00954 18.4321 3.59758C19.2677 5.17775 19.1633 7.07891 18.1624 8.56222L9.2036 22.6395C8.28026 24.0783 6.68544 24.9452 4.97586 24.9376Z" fill="#F62B54"/>
<path d="M20.3521 24.9375C18.544 24.9375 16.8802 23.9707 16.0066 22.4172C15.1315 20.8661 15.1841 18.9587 16.1433 17.4582L25.0907 3.41322C26.0113 1.85082 27.7069 0.910678 29.5198 0.95748C31.343 0.997364 32.9954 2.01726 33.8311 3.61264C34.661 5.20801 34.5395 7.12056 33.5082 8.60008L24.5627 22.6451C23.6423 24.0776 22.0548 24.9419 20.3521 24.9375Z" fill="#FFCC00"/>
<path d="M35.3852 25.0554C37.9341 25.0554 40.0004 23.0325 40.0004 20.5371C40.0004 18.0417 37.9341 16.0188 35.3852 16.0188C32.8363 16.0188 30.77 18.0417 30.77 20.5371C30.77 23.0325 32.8363 25.0554 35.3852 25.0554Z" fill="#00CA72"/>
</g>
<defs>
<clipPath id="clip0_202_13018">
<rect width="40.0004" height="26" fill="white"/>
</clipPath>
</defs>
</svg>
