<svg width="37" height="37" viewBox="0 0 37 37" fill="none" xmlns="http://www.w3.org/2000/svg">
<g clip-path="url(#clip0_202_13462)">
<path d="M18.0012 0.00140381C8.06168 0.00140381 0.0012207 8.06144 0.0012207 18.0012C0.0012207 19.988 0.323116 21.899 0.917828 23.6868H6.30117V8.54211L18.0012 20.2423L29.7012 8.54211V23.6868H35.0847C35.6797 21.899 36.0018 19.988 36.0018 18.0012C36.0018 8.06144 27.9412 0.00140381 18.0012 0.00140381Z" fill="#FF6600"/>
<path d="M15.3109 22.9322L10.2047 17.8259V27.3555H8.25279H6.30089H2.62012C5.77987 32.5394 11.4868 36.0014 18.0009 36.0014C24.5151 36.0014 30.2224 32.5394 33.3819 27.3555H29.7007H26.2095H25.7974V17.8259L20.6911 22.9322L18.0009 25.6221L15.3111 22.9322H15.3109Z" fill="#4C4C4C"/>
</g>
<defs>
<clipPath id="clip0_202_13462">
<rect width="37" height="37" fill="white"/>
</clipPath>
</defs>
</svg>
