<svg width="37" height="36" viewBox="0 0 37 36" fill="none" xmlns="http://www.w3.org/2000/svg">
<g clip-path="url(#clip0_202_13253)">
<path d="M35.4286 22.5129C33.4749 30.3621 26.3266 35.9465 17.9074 35.9465C9.4502 35.9465 2.36341 30.0316 0.489746 22.1499C2.74273 22.1499 4.84893 22.1602 5.82675 22.1602C6.28802 22.1602 6.3776 22.1682 6.40429 22.1663C7.14003 22.1301 8.06257 21.8873 8.67632 20.3948L11.0151 14.2769L16.2091 26.7826C16.6761 27.7794 17.4557 27.7088 17.9208 27.7088H17.9646C18.8719 27.7088 19.2665 27.3909 19.6115 26.7333L25.4784 14.3707L27.4797 19.9422L27.6017 20.212C28.0249 21.1403 28.3293 22.0571 29.3765 22.177C29.5923 22.2017 32.0992 22.1579 35.4786 22.1579C35.4786 22.1579 35.4786 22.1795 35.4286 22.5129Z" fill="#3DB5E6"/>
<path d="M36.002 17.8901C36.002 17.9835 36.002 18.2184 36 18.2184H35.9962H30.6021L27.4551 9.42751C27.1749 8.77373 26.7537 7.79362 25.5262 7.79362C24.7752 7.79362 24.0966 8.41385 23.7116 9.43741L18.0067 22.6516L12.5153 9.51757C11.9778 8.35105 11.6061 7.80243 10.5311 7.80243C9.80107 7.80243 9.26546 8.07135 8.68221 9.45325L5.42282 18.349L0.0076651 18.3433C0.00384989 18.208 0.00195312 18.0727 0.00195312 17.9373C0.00195312 8.04862 8.0189 0.0567017 17.9076 0.0567017C27.7963 0.0567017 36.002 8.00144 36.002 17.8901Z" fill="#D8292F"/>
</g>
<defs>
<clipPath id="clip0_202_13253">
<rect width="37" height="36" fill="white"/>
</clipPath>
</defs>
</svg>
