<svg width="42" height="41" viewBox="0 0 42 41" fill="none" xmlns="http://www.w3.org/2000/svg">
<g clip-path="url(#clip0_202_9147)">
<path d="M37.0071 7.85102C35.4655 5.82461 33.5748 4.15694 31.4514 2.88679C31.3545 2.82862 31.2284 2.84801 31.1412 2.92557C31.0248 3.04192 31.0539 3.22614 31.18 3.31341C35.1164 5.86339 38.1512 9.9744 38.859 15.4622C40.3134 26.6123 32.5277 35.9203 21.5715 35.9494C9.52932 35.9881 2.19932 25.3422 4.11908 15.7822C4.21604 15.3071 4.16756 14.8417 4.32269 14.386C4.40995 12.7086 5.04987 10.0714 6.42667 7.37593C5.04018 8.09342 3.27555 10.3622 2.40293 12.4565C1.14248 15.4816 0.70617 19.0981 1.1037 22.5401C1.13278 22.8019 1.16187 23.054 1.19096 23.3158C2.81015 32.7982 11.0709 40.0119 21.0091 39.9925C32.0817 39.9731 41.0987 30.8882 41.0406 19.8059C41.0212 15.3265 39.5183 11.1864 37.0071 7.85102Z" fill="url(#paint0_radial_202_9147)"/>
<path opacity="0.67" d="M37.0071 7.85102C35.4655 5.82461 33.5748 4.15694 31.4514 2.88679C31.3545 2.82862 31.2284 2.84801 31.1412 2.92557C31.0248 3.04192 31.0539 3.22614 31.18 3.31341C35.1164 5.86339 38.1512 9.9744 38.859 15.4622C40.3134 26.6123 32.5277 35.9203 21.5715 35.9494C9.52932 35.9881 2.19932 25.3422 4.11908 15.7822C4.21604 15.3071 4.16756 14.8417 4.32269 14.386C4.40995 12.7086 5.04987 10.0714 6.42667 7.37593C5.04018 8.09342 3.27555 10.3622 2.40293 12.4565C1.14248 15.4816 0.70617 19.0981 1.1037 22.5401C1.13278 22.8019 1.16187 23.054 1.19096 23.3158C2.81015 32.7982 11.0709 40.0119 21.0091 39.9925C32.0817 39.9731 41.0987 30.8882 41.0406 19.8059C41.0212 15.3265 39.5183 11.1864 37.0071 7.85102Z" fill="url(#paint1_radial_202_9147)"/>
<path d="M37.0071 7.85102C35.4655 5.82461 33.5748 4.15694 31.4514 2.88679C31.3545 2.82862 31.2284 2.84801 31.1412 2.92557C31.0248 3.04192 31.0539 3.22614 31.18 3.31341C35.1164 5.86339 38.1512 9.9744 38.859 15.4622C40.3134 26.6123 32.5277 35.9203 21.5715 35.9494C9.52932 35.9881 2.19932 25.3422 4.11908 15.7822C4.21604 15.3071 4.16756 14.8417 4.32269 14.386C4.40995 12.7086 5.04987 10.0714 6.42667 7.37593C5.04018 8.09342 3.27555 10.3622 2.40293 12.4565C1.14248 15.4816 0.70617 19.0981 1.1037 22.5401C1.13278 22.8019 1.16187 23.054 1.19096 23.3158C2.81015 32.7982 11.0709 40.0119 21.0091 39.9925C32.0817 39.9731 41.0987 30.8882 41.0406 19.8059C41.0212 15.3265 39.5183 11.1864 37.0071 7.85102Z" fill="url(#paint2_radial_202_9147)"/>
<path d="M37.0071 7.85102C35.4655 5.82461 33.5748 4.15694 31.4514 2.88679C31.3545 2.82862 31.2284 2.84801 31.1412 2.92557C31.0248 3.04192 31.0539 3.22614 31.18 3.31341C35.1164 5.86339 38.1512 9.9744 38.859 15.4622C40.3134 26.6123 32.5277 35.9203 21.5715 35.9494C9.52932 35.9881 2.19932 25.3422 4.11908 15.7822C4.21604 15.3071 4.16756 14.8417 4.32269 14.386C4.40995 12.7086 5.04987 10.0714 6.42667 7.37593C5.04018 8.09342 3.27555 10.3622 2.40293 12.4565C1.14248 15.4816 0.70617 19.0981 1.1037 22.5401C1.13278 22.8019 1.16187 23.054 1.19096 23.3158C2.81015 32.7982 11.0709 40.0119 21.0091 39.9925C32.0817 39.9731 41.0987 30.8882 41.0406 19.8059C41.0212 15.3265 39.5183 11.1864 37.0071 7.85102Z" fill="url(#paint3_radial_202_9147)"/>
<path d="M37.0071 7.85102C35.4655 5.82461 33.5748 4.15694 31.4514 2.88679C31.3545 2.82862 31.2284 2.84801 31.1412 2.92557C31.0248 3.04192 31.0539 3.22614 31.18 3.31341C35.1164 5.86339 38.1512 9.9744 38.859 15.4622C40.3134 26.6123 32.5277 35.9203 21.5715 35.9494C9.52932 35.9881 2.19932 25.3422 4.11908 15.7822C4.21604 15.3071 4.16756 14.8417 4.32269 14.386C4.40995 12.7086 5.04987 10.0714 6.42667 7.37593C5.04018 8.09342 3.27555 10.3622 2.40293 12.4565C1.14248 15.4816 0.70617 19.0981 1.1037 22.5401C1.13278 22.8019 1.16187 23.054 1.19096 23.3158C2.81015 32.7982 11.0709 40.0119 21.0091 39.9925C32.0817 39.9731 41.0987 30.8882 41.0406 19.8059C41.0212 15.3265 39.5183 11.1864 37.0071 7.85102Z" fill="url(#paint4_radial_202_9147)"/>
<path d="M39.3535 14.9096C38.7039 9.07271 35.4267 5.08775 31.2381 2.76076C30.54 2.37293 29.6577 2.53776 29.1535 3.15829L29.1439 3.16798C33.9142 6.1058 36.9199 11.3124 37.075 16.7421C37.2592 23.3449 31.8393 28.6097 25.5952 28.9102C21.0576 29.1332 16.7817 26.942 14.6875 22.5498C14.2221 21.5705 13.8827 20.5816 13.7082 19.3793C12.7192 12.7086 17.2084 7.0172 21.3291 5.60162C19.1087 3.66247 13.5337 3.79821 9.39358 6.84268C6.40728 9.03392 4.46813 12.3693 3.82821 16.3445C3.34342 19.3793 3.79912 22.5304 5.00139 25.3422C6.22306 28.2122 8.21069 30.7427 10.7219 32.6043C13.4367 34.6307 16.7139 35.8039 20.088 36.056C20.5825 36.0948 21.0867 36.1142 21.5812 36.1142C34.8353 36.1336 40.5946 26.0888 39.3535 14.9096Z" fill="url(#paint5_radial_202_9147)"/>
<path d="M39.3535 14.9096C38.7039 9.07271 35.4267 5.08775 31.2381 2.76076C30.54 2.37293 29.6577 2.53776 29.1535 3.15829L29.1439 3.16798C33.9142 6.1058 36.9199 11.3124 37.075 16.7421C37.2592 23.3449 31.8393 28.6097 25.5952 28.9102C21.0576 29.1332 16.7817 26.942 14.6875 22.5498C14.2221 21.5705 13.8827 20.5816 13.7082 19.3793C12.7192 12.7086 17.2084 7.0172 21.3291 5.60162C19.1087 3.66247 13.5337 3.79821 9.39358 6.84268C6.40728 9.03392 4.46813 12.3693 3.82821 16.3445C3.34342 19.3793 3.79912 22.5304 5.00139 25.3422C6.22306 28.2122 8.21069 30.7427 10.7219 32.6043C13.4367 34.6307 16.7139 35.8039 20.088 36.056C20.5825 36.0948 21.0867 36.1142 21.5812 36.1142C34.8353 36.1336 40.5946 26.0888 39.3535 14.9096Z" fill="url(#paint6_radial_202_9147)"/>
<path opacity="0.53" d="M39.3535 14.9096C38.7039 9.07271 35.4267 5.08775 31.2381 2.76076C30.54 2.37293 29.6577 2.53776 29.1535 3.15829L29.1439 3.16798C33.9142 6.1058 36.9199 11.3124 37.075 16.7421C37.2592 23.3449 31.8393 28.6097 25.5952 28.9102C21.0576 29.1332 16.7817 26.942 14.6875 22.5498C14.2221 21.5705 13.8827 20.5816 13.7082 19.3793C12.7192 12.7086 17.2084 7.0172 21.3291 5.60162C19.1087 3.66247 13.5337 3.79821 9.39358 6.84268C6.40728 9.03392 4.46813 12.3693 3.82821 16.3445C3.34342 19.3793 3.79912 22.5304 5.00139 25.3422C6.22306 28.2122 8.21069 30.7427 10.7219 32.6043C13.4367 34.6307 16.7139 35.8039 20.088 36.056C20.5825 36.0948 21.0867 36.1142 21.5812 36.1142C34.8353 36.1336 40.5946 26.0888 39.3535 14.9096Z" fill="url(#paint7_radial_202_9147)"/>
<path opacity="0.53" d="M39.3535 14.9096C38.7039 9.07271 35.4267 5.08775 31.2381 2.76076C30.54 2.37293 29.6577 2.53776 29.1535 3.15829L29.1439 3.16798C33.9142 6.1058 36.9199 11.3124 37.075 16.7421C37.2592 23.3449 31.8393 28.6097 25.5952 28.9102C21.0576 29.1332 16.7817 26.942 14.6875 22.5498C14.2221 21.5705 13.8827 20.5816 13.7082 19.3793C12.7192 12.7086 17.2084 7.0172 21.3291 5.60162C19.1087 3.66247 13.5337 3.79821 9.39358 6.84268C6.40728 9.03392 4.46813 12.3693 3.82821 16.3445C3.34342 19.3793 3.79912 22.5304 5.00139 25.3422C6.22306 28.2122 8.21069 30.7427 10.7219 32.6043C13.4367 34.6307 16.7139 35.8039 20.088 36.056C20.5825 36.0948 21.0867 36.1142 21.5812 36.1142C34.8353 36.1336 40.5946 26.0888 39.3535 14.9096Z" fill="url(#paint8_radial_202_9147)"/>
<path d="M29.1729 3.13889C29.1632 3.14859 29.1632 3.15828 29.1535 3.16798C28.5815 3.87577 28.6978 4.90352 29.3959 5.48527C32.4016 7.94799 34.4183 11.4482 34.4183 15.4913C34.4183 21.0761 30.094 25.3325 25.0328 25.0319C17.5089 24.5762 15.6182 16.8875 19.5256 13.5618C18.4688 13.3388 16.4909 13.7751 15.1044 15.8403C13.8633 17.6922 13.9312 20.5428 14.6971 22.5692C16.7914 26.9517 21.0673 29.2011 25.6049 28.9296C34.1759 28.4061 37.8409 21.3378 38.0736 16.3057C38.3257 10.847 37.0944 6.00884 31.2575 2.75106C30.5497 2.35353 29.6771 2.51836 29.1729 3.13889Z" fill="url(#paint9_radial_202_9147)"/>
<path d="M37.0071 7.85103C36.4738 7.14323 35.8824 6.48392 35.2618 5.86339C34.7673 5.33982 34.2341 4.85503 33.6717 4.39933C33.9917 4.68051 34.3019 4.98108 34.6025 5.29134C35.6884 6.46453 36.5514 7.85103 37.0459 9.36356C38.093 12.5244 38.0251 16.49 36.0278 19.5926C33.6426 23.2964 29.7643 25.1289 25.5758 25.0416C25.3915 25.0416 25.217 25.0416 25.0328 25.0319C17.5089 24.5762 15.6182 16.8875 19.5256 13.5618C18.4688 13.3388 16.4908 13.7751 15.1043 15.8403C13.8633 17.6922 13.9311 20.5428 14.6971 22.5692C14.2317 21.5899 13.8924 20.601 13.7178 19.3987C12.7289 12.728 17.218 7.03658 21.3387 5.621C19.1184 3.68185 13.5433 3.81759 9.40322 6.86206C6.98897 8.63638 5.26313 11.1573 4.35173 14.163C4.48747 12.4759 5.12739 9.9647 6.43632 7.38563C5.04982 8.10312 3.28519 10.3719 2.41257 12.4662C1.15212 15.4913 0.715813 19.1078 1.11334 22.5498C1.14243 22.8116 1.17151 23.0637 1.2006 23.3255C2.8101 32.7885 11.0612 40.0022 20.98 40.0022C32.0622 40.0022 41.0502 31.0142 41.0502 19.9319C41.0405 15.3943 39.5377 11.2155 37.0071 7.85103Z" fill="url(#paint10_linear_202_9147)"/>
<path d="M37.0459 9.36358C36.5417 7.85104 35.6885 6.46455 34.6025 5.29136C32.2756 2.78985 28.853 1.19005 25.5564 0.462867C22.7834 -0.147966 19.8747 -0.13827 17.2568 0.414389C14.4063 1.01553 11.9048 2.24689 10.3243 3.77882C15.7928 0.579216 23.1615 1.17066 28.2033 4.75809C29.0469 5.35923 29.8322 6.04763 30.54 6.8039C33.8947 10.4204 35.2619 16.4609 32.4404 20.8046C31.0248 23.0055 27.9803 25.061 25.1395 25.0416C29.4929 25.2743 33.5554 23.4321 36.0181 19.6023C38.0251 16.49 38.093 12.5244 37.0459 9.36358Z" fill="url(#paint11_linear_202_9147)"/>
<path d="M37.0459 9.36358C36.5417 7.85104 35.6885 6.46455 34.6025 5.29136C32.2756 2.78985 28.853 1.19005 25.5564 0.462867C22.7834 -0.147966 19.8747 -0.13827 17.2568 0.414389C14.4063 1.01553 11.9048 2.24689 10.3243 3.77882C15.7928 0.579216 23.1615 1.17066 28.2033 4.75809C29.0469 5.35923 29.8322 6.04763 30.54 6.8039C33.8947 10.4204 35.2619 16.4609 32.4404 20.8046C31.0248 23.0055 27.9803 25.061 25.1395 25.0416C29.4929 25.2743 33.5554 23.4321 36.0181 19.6023C38.0251 16.49 38.093 12.5244 37.0459 9.36358Z" fill="url(#paint12_linear_202_9147)"/>
</g>
<defs>
<radialGradient id="paint0_radial_202_9147" cx="0" cy="0" r="1" gradientUnits="userSpaceOnUse" gradientTransform="translate(36.7995 7.72574) scale(45.2872)">
<stop stop-color="#FFF44F"/>
<stop offset="0.2949" stop-color="#FF980E"/>
<stop offset="0.4315" stop-color="#FF5D36"/>
<stop offset="0.5302" stop-color="#FF3750"/>
<stop offset="0.7493" stop-color="#F5156C"/>
<stop offset="0.7648" stop-color="#F1136E"/>
<stop offset="0.8801" stop-color="#DA057A"/>
<stop offset="0.9528" stop-color="#D2007F"/>
</radialGradient>
<radialGradient id="paint1_radial_202_9147" cx="0" cy="0" r="1" gradientUnits="userSpaceOnUse" gradientTransform="translate(4.27763 11.6353) scale(26.1562)">
<stop stop-color="#B5007F"/>
<stop offset="1" stop-color="#F5156C" stop-opacity="0"/>
</radialGradient>
<radialGradient id="paint2_radial_202_9147" cx="0" cy="0" r="1" gradientUnits="userSpaceOnUse" gradientTransform="translate(40.6881 7.48347) scale(49.6131 49.6131)">
<stop stop-color="#FFDD00" stop-opacity="0.6"/>
<stop offset="0.0836672" stop-color="#FFD801" stop-opacity="0.5244"/>
<stop offset="0.1822" stop-color="#FECA05" stop-opacity="0.4353"/>
<stop offset="0.2884" stop-color="#FEB20C" stop-opacity="0.3394"/>
<stop offset="0.3998" stop-color="#FD9115" stop-opacity="0.2388"/>
<stop offset="0.5154" stop-color="#FB6621" stop-opacity="0.1343"/>
<stop offset="0.6329" stop-color="#F9332F" stop-opacity="0.028164"/>
<stop offset="0.664" stop-color="#F92433" stop-opacity="0"/>
</radialGradient>
<radialGradient id="paint3_radial_202_9147" cx="0" cy="0" r="1" gradientUnits="userSpaceOnUse" gradientTransform="translate(22.1443 23.5176) scale(66.6575 66.6575)">
<stop offset="0.1528" stop-color="#960E18"/>
<stop offset="0.2061" stop-color="#CC2335" stop-opacity="0.5541"/>
<stop offset="0.2495" stop-color="#F13148" stop-opacity="0.1914"/>
<stop offset="0.2724" stop-color="#FF3750" stop-opacity="0"/>
</radialGradient>
<radialGradient id="paint4_radial_202_9147" cx="0" cy="0" r="1" gradientUnits="userSpaceOnUse" gradientTransform="translate(16.9296 22.7128) scale(67.1216 67.1216)">
<stop offset="0.1129" stop-color="#960E18"/>
<stop offset="0.1893" stop-color="#CC2335" stop-opacity="0.5541"/>
<stop offset="0.2515" stop-color="#F13148" stop-opacity="0.1914"/>
<stop offset="0.2843" stop-color="#FF3750" stop-opacity="0"/>
</radialGradient>
<radialGradient id="paint5_radial_202_9147" cx="0" cy="0" r="1" gradientUnits="userSpaceOnUse" gradientTransform="translate(35.8418 6.41407) scale(42.1791 42.1791)">
<stop stop-color="#FF980E"/>
<stop offset="0.295" stop-color="#FF7139"/>
<stop offset="0.4846" stop-color="#FF5B51"/>
<stop offset="0.626" stop-color="#FF4F5E"/>
<stop offset="0.7365" stop-color="#FF4055"/>
<stop offset="0.8428" stop-color="#FF3750"/>
</radialGradient>
<radialGradient id="paint6_radial_202_9147" cx="0" cy="0" r="1" gradientUnits="userSpaceOnUse" gradientTransform="translate(35.8418 7.9644) scale(40.0127 40.0127)">
<stop offset="0.0840745" stop-color="#FFDE08"/>
<stop offset="0.2081" stop-color="#FFD609" stop-opacity="0.832"/>
<stop offset="0.4033" stop-color="#FFBF0B" stop-opacity="0.5677"/>
<stop offset="0.6437" stop-color="#FF9B0F" stop-opacity="0.242"/>
<stop offset="0.8224" stop-color="#FF7B12" stop-opacity="0"/>
</radialGradient>
<radialGradient id="paint7_radial_202_9147" cx="0" cy="0" r="1" gradientTransform="matrix(4.98003 19.5147 -20.3654 5.19637 25.9764 20.3987)" gradientUnits="userSpaceOnUse">
<stop offset="0.3634" stop-color="#FF3750"/>
<stop offset="0.4111" stop-color="#FF444B" stop-opacity="0.7895"/>
<stop offset="0.5902" stop-color="#FF7139" stop-opacity="0"/>
</radialGradient>
<radialGradient id="paint8_radial_202_9147" cx="0" cy="0" r="1" gradientTransform="matrix(5.03693 19.7377 -19.7547 5.04118 22.3669 22.0593)" gradientUnits="userSpaceOnUse">
<stop offset="0.2159" stop-color="#FF3750" stop-opacity="0.8"/>
<stop offset="0.2702" stop-color="#FF444B" stop-opacity="0.6316"/>
<stop offset="0.4739" stop-color="#FF7139" stop-opacity="0"/>
</radialGradient>
<radialGradient id="paint9_radial_202_9147" cx="0" cy="0" r="1" gradientUnits="userSpaceOnUse" gradientTransform="translate(44.3768 1.54634) scale(71.3602 71.3602)">
<stop offset="0.0535657" stop-color="#FFF44F"/>
<stop offset="0.4573" stop-color="#FF980E"/>
<stop offset="0.5211" stop-color="#FF8424"/>
<stop offset="0.5871" stop-color="#FF7634"/>
<stop offset="0.6393" stop-color="#FF7139"/>
</radialGradient>
<linearGradient id="paint10_linear_202_9147" x1="30.5305" y1="3.53154" x2="10.0718" y2="38.9672" gradientUnits="userSpaceOnUse">
<stop stop-color="#FFF44F" stop-opacity="0.8"/>
<stop offset="0.75" stop-color="#FFF44F" stop-opacity="0"/>
</linearGradient>
<linearGradient id="paint11_linear_202_9147" x1="24.0171" y1="25.159" x2="24.0171" y2="0.257258" gradientUnits="userSpaceOnUse">
<stop stop-color="#3A8EE6"/>
<stop offset="0.1016" stop-color="#4D82EB"/>
<stop offset="0.3885" stop-color="#7D65FA"/>
<stop offset="0.5309" stop-color="#9059FF"/>
<stop offset="0.6915" stop-color="#9D50F8"/>
<stop offset="0.9888" stop-color="#C03AE7"/>
<stop offset="1" stop-color="#C139E6"/>
</linearGradient>
<linearGradient id="paint12_linear_202_9147" x1="19.6378" y1="-0.648122" x2="33.2232" y2="22.8826" gradientUnits="userSpaceOnUse">
<stop offset="0.8054" stop-color="#9059FF" stop-opacity="0"/>
<stop offset="1" stop-color="#6E008B" stop-opacity="0.5"/>
</linearGradient>
<clipPath id="clip0_202_9147">
<rect width="42" height="41" fill="white"/>
</clipPath>
</defs>
</svg>
