<svg width="37" height="34" viewBox="0 0 37 34" fill="none" xmlns="http://www.w3.org/2000/svg">
<g clip-path="url(#clip0_202_8800)">
<path d="M7.78081 24.8403C7.00218 25.1232 6.59233 25.9893 6.96734 26.728C7.87801 28.522 9.21626 30.0741 10.8732 31.2419C12.9404 32.6988 15.4044 33.4873 17.9334 33.5013C20.4625 33.5153 22.9351 32.7541 25.0183 31.3202C26.6881 30.171 28.0434 28.6338 28.974 26.8499C29.3571 26.1154 28.9569 25.2449 28.1814 24.9534L27.4629 24.6832C26.6875 24.3917 25.8332 24.7934 25.4116 25.5065C24.7784 26.5778 23.9171 27.5044 22.8822 28.2167C21.4332 29.2141 19.7134 29.7435 17.9543 29.7338C16.1953 29.724 14.4814 29.1755 13.0436 28.1622C12.0166 27.4384 11.1657 26.5024 10.5443 25.4241C10.1307 24.7064 9.2809 24.2953 8.50227 24.5782L7.78081 24.8403Z" fill="url(#paint0_linear_202_8800)"/>
<path d="M13.646 19.1198L15.8779 16.8816C17.0502 15.7061 18.9542 15.7061 20.1265 16.8816L22.3584 19.1198C22.9212 19.6842 23.6856 20.0014 24.4827 20.0014H27.0022C31.9727 20.0014 36.0022 15.972 36.0022 11.0014V5.17209C36.0022 4.12028 35.4592 3.12599 34.4945 2.70673C29.0631 0.345957 20.734 0.501437 18.0022 0.501434C15.2703 0.501437 6.94127 0.345957 1.50984 2.70673C0.545218 3.12599 0.00219727 4.12028 0.00219727 5.17209V11.0014C0.00219727 15.972 4.03165 20.0014 9.00218 20.0014H11.5217C12.3188 20.0014 13.0832 19.6842 13.646 19.1198Z" fill="url(#paint1_linear_202_8800)"/>
<path d="M19.877 3.50153H16.127C15.2985 3.50153 14.627 4.1731 14.627 5.00152C14.627 5.82995 15.2985 6.50152 16.127 6.50152H19.877C20.7054 6.50152 21.377 5.82995 21.377 5.00152C21.377 4.1731 20.7054 3.50153 19.877 3.50153Z" fill="#0078D4"/>
</g>
<defs>
<linearGradient id="paint0_linear_202_8800" x1="14.252" y1="21.1265" x2="23.0645" y2="36.6892" gradientUnits="userSpaceOnUse">
<stop stop-color="#22B8F1"/>
<stop offset="1" stop-color="#018DE1"/>
</linearGradient>
<linearGradient id="paint1_linear_202_8800" x1="13.3065" y1="-3.73769" x2="30.9152" y2="20.5232" gradientUnits="userSpaceOnUse">
<stop stop-color="#50E6FF"/>
<stop offset="0.675951" stop-color="#0095E6"/>
<stop offset="1" stop-color="#0078D4"/>
</linearGradient>
<clipPath id="clip0_202_8800">
<rect width="37" height="34" fill="white"/>
</clipPath>
</defs>
</svg>
