<svg width="41" height="28" viewBox="0 0 41 28" fill="none" xmlns="http://www.w3.org/2000/svg">
<g clip-path="url(#clip0_202_12707)">
<path d="M23.752 15.688C22.752 15.688 21.877 16.3128 21.377 17.188H6.62695C4.12695 17.188 2.12695 15.063 2.12695 12.563C2.12695 10.063 4.12695 7.93799 6.62695 7.93799H8.75195C8.75195 7.43799 9.00195 6.93799 9.12695 6.43799C9.25195 6.31299 9.25195 6.06299 9.37695 5.93799C10.377 4.06299 12.377 2.81299 14.627 2.81299C16.627 2.81299 18.377 3.81299 19.502 5.31299C20.127 5.06299 20.752 4.81299 21.502 4.68799C20.127 2.31299 17.627 0.812988 14.627 0.812988C11.252 0.812988 8.37695 2.93799 7.12695 5.93799H6.62695C3.00195 5.93799 0.00195312 8.93799 0.00195312 12.688C0.00195312 16.438 3.00195 19.313 6.62695 19.313H21.502C21.877 20.188 22.752 20.813 23.877 20.813C25.2521 20.813 26.377 19.688 26.377 18.188C26.377 16.688 25.252 15.688 23.752 15.688ZM32.002 10.5628C30.502 7.56283 27.377 5.43783 23.877 5.43783C19.502 5.43783 15.877 8.56283 15.002 12.6878C12.877 12.9378 11.002 14.0628 9.87695 15.6878H20.752C21.502 14.6878 22.6271 14.1878 23.877 14.1878C26.127 14.1878 27.877 16.0628 27.877 18.3128C27.877 20.5628 26.002 22.4378 23.877 22.4378C22.627 22.4378 21.502 21.8128 20.752 20.9378H8.62695C9.12695 24.4378 12.127 27.1878 15.627 27.1878H31.877C36.377 27.1878 40.002 23.5628 40.002 18.9378C40.002 14.3128 36.377 10.6878 32.002 10.5628Z" fill="#008CDB"/>
</g>
<defs>
<clipPath id="clip0_202_12707">
<rect width="41" height="28" fill="white"/>
</clipPath>
</defs>
</svg>
