<svg width="30" height="37" viewBox="0 0 30 37" fill="none" xmlns="http://www.w3.org/2000/svg">
<g clip-path="url(#clip0_202_9284)">
<path d="M16.4351 0.121338L19.1768 6.37962V28.1346L16.4947 35.8829L26.6867 32.9624C28.2364 32.4856 29.3092 31.0551 29.3092 29.4458V6.49882C29.3092 4.88955 28.2364 3.45909 26.6867 2.98226L16.4351 0.121338Z" fill="url(#paint0_linear_202_9284)"/>
<path d="M3.50128 27.8962L6.48141 26.287C7.31585 25.8101 7.85227 24.9757 7.85227 24.0221V12.2803C7.85227 11.2075 8.5675 10.1943 9.58075 9.83663L19.1768 6.37968V3.75716C19.1768 2.08829 18.0443 0.598224 16.4351 0.121403C16.0774 0.00219729 15.7794 0.00219727 15.4218 0.00219727C14.7662 0.00219727 14.1105 0.181005 13.5741 0.479018L2.54763 6.7373C1.41518 7.39293 0.699951 8.58498 0.699951 9.89624V26.2274C0.699951 27.3002 1.53439 28.1346 2.60724 28.1346C2.90525 28.1346 3.26286 28.075 3.50128 27.8962Z" fill="url(#paint1_linear_202_9284)"/>
<path d="M19.1768 28.1346H7.79266C6.71981 28.1346 5.88538 29.0287 5.88538 30.0419C5.88538 30.6976 6.24299 31.3532 6.83902 31.7108L13.6337 35.5254C14.1701 35.8234 14.8258 36.0022 15.4814 36.0022C15.839 36.0022 16.1966 35.9426 16.4946 35.883C18.1039 35.4062 19.1768 33.9757 19.1768 32.3068V28.1346Z" fill="url(#paint2_linear_202_9284)"/>
<path d="M3.50128 27.8962L6.48141 26.287C7.31585 25.8101 7.85227 24.9757 7.85227 24.0221V12.2803C7.85227 11.2075 8.5675 10.1943 9.58075 9.83663L19.1768 6.37968V3.75716C19.1768 2.08829 18.0443 0.598224 16.4351 0.121403C16.0774 0.00219729 15.7794 0.00219727 15.4218 0.00219727C14.7662 0.00219727 14.1105 0.181005 13.5741 0.479018L2.54763 6.7373C1.41518 7.39293 0.699951 8.58498 0.699951 9.89624V26.2274C0.699951 27.3002 1.53439 28.1346 2.60724 28.1346C2.90525 28.1346 3.26286 28.075 3.50128 27.8962Z" fill="url(#paint3_linear_202_9284)"/>
<path d="M19.1768 28.1346H7.79266C6.71981 28.1346 5.88538 29.0287 5.88538 30.0419C5.88538 30.6976 6.24299 31.3532 6.83902 31.7108L13.6337 35.5254C14.1701 35.8234 14.8258 36.0022 15.4814 36.0022C15.839 36.0022 16.1966 35.9426 16.4946 35.883C18.1039 35.4062 19.1768 33.9757 19.1768 32.3068V28.1346Z" fill="url(#paint4_linear_202_9284)"/>
</g>
<defs>
<linearGradient id="paint0_linear_202_9284" x1="22.8721" y1="-1.91317" x2="22.8721" y2="143.407" gradientUnits="userSpaceOnUse">
<stop stop-color="#FFB900"/>
<stop offset="0.17" stop-color="#EF8400"/>
<stop offset="0.31" stop-color="#E25C01"/>
<stop offset="0.43" stop-color="#DB4401"/>
<stop offset="0.5" stop-color="#D83B01"/>
<stop offset="1" stop-color="#D83B01"/>
</linearGradient>
<linearGradient id="paint1_linear_202_9284" x1="16.5178" y1="-0.672397" x2="-60.4367" y2="109.214" gradientUnits="userSpaceOnUse">
<stop stop-color="#800600"/>
<stop offset="0.6" stop-color="#C72127"/>
<stop offset="0.73" stop-color="#C13959"/>
<stop offset="0.85" stop-color="#BC4B81"/>
<stop offset="0.94" stop-color="#B95799"/>
<stop offset="1" stop-color="#B85BA2"/>
</linearGradient>
<linearGradient id="paint2_linear_202_9284" x1="6.95903" y1="32.0842" x2="107.422" y2="32.0842" gradientUnits="userSpaceOnUse">
<stop stop-color="#F32B44"/>
<stop offset="0.6" stop-color="#A4070A"/>
<stop offset="1" stop-color="#A4070A"/>
</linearGradient>
<linearGradient id="paint3_linear_202_9284" x1="16.8883" y1="-1.21233" x2="0.594398" y2="22.0507" gradientUnits="userSpaceOnUse">
<stop stop-opacity="0.4"/>
<stop offset="1" stop-opacity="0"/>
</linearGradient>
<linearGradient id="paint4_linear_202_9284" x1="23.5369" y1="32.6333" x2="-21.4432" y2="28.707" gradientUnits="userSpaceOnUse">
<stop stop-opacity="0.4"/>
<stop offset="1" stop-opacity="0"/>
</linearGradient>
<clipPath id="clip0_202_9284">
<rect width="30" height="37" fill="white"/>
</clipPath>
</defs>
</svg>
