<svg width="37" height="30" viewBox="0 0 37 30" fill="none" xmlns="http://www.w3.org/2000/svg">
<g clip-path="url(#clip0_202_8981)">
<path d="M1.11171 0.465898C0.712003 0.652427 0.472181 0.878925 0.285652 1.26531C0.0191828 1.75827 0.00585938 2.03807 0.00585938 5.0092V8.22015L6.8408 8.18018C14.5684 8.14021 13.9689 8.22015 15.2612 6.9944C15.6343 6.63466 16.2472 6.20831 16.6069 6.04843L17.2597 5.74199L26.6261 5.70202L36.0059 5.66205L35.9126 5.30232C35.7527 4.66279 35.2597 3.89003 34.7934 3.58359L34.3404 3.27715H25.6535C18.1791 3.27715 16.8734 3.2505 16.3804 3.0773C15.6876 2.82415 15.2745 2.46442 15.0481 1.90483C14.9548 1.66501 14.7416 1.27863 14.5684 1.03881C13.9422 0.199429 14.0754 0.212752 7.57359 0.212752C2.05767 0.212752 1.63132 0.239399 1.11171 0.465898Z" fill="#E23A4B"/>
<path d="M35.7001 4.73071L17.2597 4.80935L16.6069 5.11579C16.2472 5.27567 15.6343 5.70202 15.2612 6.06176C14.9405 6.366 14.7362 6.5898 14.4923 6.75496C13.7535 7.25522 12.6504 7.21749 6.8408 7.24754L0.00585938 7.28751V8.22016L6.8408 8.18019C12.6504 8.15014 13.7535 8.18786 14.4923 7.6876C14.7362 7.52244 14.9405 7.29864 15.2612 6.9944C15.6343 6.63466 16.2472 6.20831 16.6069 6.04843L17.2597 5.74199L36.0059 5.66205L35.9126 5.30232C35.8665 5.11806 35.7928 4.92275 35.7001 4.73071Z" fill="#BF313F"/>
<path d="M17.1265 7.86041C16.9133 7.95367 16.3671 8.38003 15.9274 8.79305C14.5151 10.1121 14.8082 10.0721 6.85412 10.0721H0.00585938L0.0325063 19.3186C0.0724767 28.4452 0.0724767 28.5784 0.352269 28.9515C0.498828 29.1513 0.831914 29.4311 1.08506 29.551C1.51141 29.7775 2.59061 29.7908 17.9925 29.7908C33.3945 29.7908 34.4737 29.7775 34.9 29.551C35.1532 29.4311 35.4862 29.1513 35.6328 28.9515C35.9126 28.5784 35.9126 28.4585 35.9526 18.1195L35.9792 7.67388H26.7594C19.3915 7.68721 17.4463 7.71385 17.1265 7.86041ZM16.3404 14.2157C16.7934 14.3889 17.2864 14.7087 17.6062 15.0284L18.1258 15.5614L18.5521 15.0951C19.2183 14.4022 20.0443 14.0425 21.1369 13.9626C23.4418 13.816 25.014 15.175 25.1606 17.4666C25.2272 18.6524 24.9074 19.5451 23.9614 20.8108C23.1354 21.9433 18.4322 26.5932 18.1391 26.5932C17.846 26.5932 14.1154 23.0092 12.863 21.517C11.3841 19.7449 11.131 19.212 11.131 17.7331C11.131 16.6406 11.1709 16.4674 11.544 15.8012C11.9703 15.0284 12.863 14.309 13.6491 14.0825C14.3952 13.856 15.541 13.9226 16.3404 14.2157Z" fill="#E23A4B"/>
<path d="M16.3405 14.2157C16.7935 14.3889 17.2864 14.7087 17.6062 15.0285L18.1258 15.5614L18.5522 15.0951C19.2183 14.4023 20.0444 14.0425 21.1369 13.9626C23.4419 13.816 25.014 15.175 25.1606 17.4667C25.161 17.4734 25.1613 17.4802 25.1617 17.4869C25.172 17.3083 25.1713 17.1248 25.1606 16.9337C25.014 14.6421 23.4419 13.2831 21.1369 13.4297C20.0444 13.5096 19.2183 13.8693 18.5522 14.5622L18.1258 15.0285L17.6062 14.4955C17.2864 14.1758 16.7935 13.856 16.3405 13.6828C15.541 13.3897 14.3952 13.3231 13.6491 13.5496C12.863 13.7761 11.9704 14.4955 11.544 15.2683C11.171 15.9345 11.131 16.1077 11.131 17.2002C11.131 17.2706 11.1316 17.3389 11.1328 17.4052C11.1437 16.5967 11.2118 16.3944 11.544 15.8012C11.9704 15.0285 12.863 14.309 13.6491 14.0825C14.3952 13.856 15.541 13.9226 16.3405 14.2157Z" fill="#BF313F"/>
<path d="M0.165771 28.4585C0.165771 28.9676 0.831951 29.4311 1.0851 29.551C1.51145 29.7775 2.59065 29.7908 17.9926 29.7908C33.3945 29.7908 34.4737 29.7775 34.9 29.551C35.1532 29.4311 35.806 29.0204 35.806 28.4585C35.4454 28.7762 34.9813 28.9515 34.5007 28.9515H25.7868H6.66763L1.49021 28.9274C1.12917 28.9257 0.775318 28.8263 0.466194 28.6398L0.165771 28.4585Z" fill="#BF313F"/>
</g>
<defs>
<clipPath id="clip0_202_8981">
<rect width="37" height="30" fill="white"/>
</clipPath>
</defs>
</svg>
