<svg width="34" height="37" viewBox="0 0 34 37" fill="none" xmlns="http://www.w3.org/2000/svg">
<path d="M0.0144043 7.15288C0.0144043 3.20768 3.21988 0.00219727 7.16509 0.00219727H24.4747V4.9337H7.16509C5.93221 4.9337 4.94591 5.92001 4.94591 7.15288V26.3858H0.0144043V7.15288Z" fill="#1795CE"/>
<path d="M29.0609 28.8515V9.61864H33.9924V28.8515C33.9924 32.7967 30.7869 36.0022 26.8417 36.0022H9.53211V31.0707H26.8417C28.0746 31.0707 29.0609 30.0844 29.0609 28.8515Z" fill="#1795CE"/>
<path d="M9.53211 26.2871V12.0844C9.53211 10.7036 10.617 9.61865 11.9979 9.61865L14.4636 9.56933V23.8707C14.4636 25.2515 13.3787 26.3365 11.9979 26.3365L9.53211 26.2871Z" fill="#1795CE"/>
<path d="M19.4447 12.0844V26.2871L21.9105 26.3365C23.2913 26.3365 24.3762 25.2515 24.3762 23.8707V9.56933L21.9105 9.61865C20.5297 9.61865 19.4447 10.7036 19.4447 12.0844Z" fill="#1795CE"/>
</svg>
