<svg width="37" height="36" viewBox="0 0 37 36" fill="none" xmlns="http://www.w3.org/2000/svg">
<g clip-path="url(#clip0_202_15172)">
<path d="M28.4117 28.3515C29.685 27.813 31.203 27.617 33.1618 27.6658C33.1067 27.2993 32.4067 26.864 31.8939 26.5451C31.7218 26.438 31.5708 26.3441 31.4723 26.2703C30.6888 25.7072 29.8562 25.1193 29.0238 24.6054C28.7557 24.4415 28.3696 24.3048 27.9981 24.1732C27.759 24.0886 27.526 24.0061 27.3343 23.9198C27.1385 23.84 26.8717 23.7602 26.5836 23.674C25.8995 23.4693 25.0954 23.2287 24.8369 22.867C24.1711 22.0015 23.7065 20.9549 23.2425 19.9097C23.1946 19.8017 23.1467 19.6938 23.0985 19.586C22.8557 19.0309 22.5855 18.4648 22.3138 17.8955C22.0103 17.2596 21.7049 16.6198 21.4336 15.9868C21.3154 15.7289 21.2255 15.4851 21.137 15.2452C21.0238 14.9384 20.913 14.6377 20.7481 14.3218C18.9606 10.8696 16.3164 7.98025 13.1088 5.94806C12.0559 5.28695 10.8808 4.67468 9.58298 4.25856C9.18667 4.13972 8.74761 4.12059 8.30424 4.10127C7.92585 4.08478 7.54431 4.06816 7.18352 3.98929H6.66925C6.37238 3.90682 6.10882 3.66877 5.86366 3.44733C5.74489 3.34004 5.63043 3.23666 5.51859 3.15675C4.75948 2.64264 4.00052 2.29964 3.09455 1.93252C2.77629 1.78568 1.87033 1.44283 1.55206 1.71226C1.35606 1.76126 1.25821 1.83468 1.20921 2.03052C1.01337 2.32437 1.18495 2.76506 1.30721 3.03433C1.54991 3.55209 1.85678 3.93088 2.17125 4.31903C2.33268 4.51828 2.4961 4.72 2.65387 4.94426C2.72923 5.05062 2.80779 5.15938 2.88767 5.26997C3.24906 5.7703 3.63745 6.30801 3.8781 6.82945C4.21769 7.56099 4.45974 8.33432 4.70091 9.10483C4.9118 9.7786 5.12201 10.4502 5.39618 11.0898C5.61645 11.6041 5.95929 12.1916 6.27756 12.6569C6.37738 12.7931 6.50752 12.9157 6.63925 13.0399C6.86287 13.2508 7.09112 13.4659 7.18352 13.7587C7.42164 14.1555 6.98448 15.2919 6.71887 15.9823C6.6567 16.1439 6.60392 16.2811 6.57141 16.3786C5.93472 18.3862 6.05714 21.1775 6.79168 22.9159C6.81793 22.9771 6.84399 23.0394 6.87024 23.1021C7.13777 23.741 7.42494 24.4269 8.13834 24.6054C8.16052 24.5832 8.16265 24.5761 8.16742 24.5727C8.17318 24.5686 8.1828 24.5698 8.23634 24.5564C8.27216 24.2749 8.30265 23.9956 8.33271 23.7203C8.44647 22.678 8.55409 21.692 8.92188 20.8593C9.09712 20.4293 9.38622 20.0821 9.66798 19.7437C9.81941 19.5619 9.96872 19.3826 10.0971 19.1943C10.2525 19.2875 10.3093 19.499 10.3676 19.7163C10.4012 19.8413 10.4352 19.9683 10.489 20.0757C10.5121 20.1308 10.5353 20.1864 10.5587 20.2422C10.8573 20.9552 11.1785 21.7224 11.5418 22.4262C12.3497 23.9933 13.2558 25.5112 14.2841 26.8824C14.6268 27.3721 15.1166 27.9108 15.5573 28.3515C15.6243 28.4102 15.6942 28.4602 15.763 28.5095C15.8953 28.6042 16.0237 28.6962 16.1204 28.8412H16.1694V28.9148C15.7046 28.7443 15.3476 28.3776 14.9992 28.0197C14.797 27.8121 14.5977 27.6074 14.3819 27.4457C13.2801 26.6131 11.958 25.3643 11.1989 24.1647C10.9598 23.6497 10.707 23.1485 10.4506 22.6404C10.3657 22.4721 10.2804 22.303 10.1951 22.1325C10.1951 22.1325 10.1952 22.1079 10.1951 22.0835C10.1015 22.2083 10.0875 22.333 10.0706 22.4831C10.0609 22.5686 10.0504 22.6624 10.0237 22.769C9.93293 23.1181 9.88796 23.4811 9.8445 23.832C9.73556 24.7115 9.63608 25.5146 8.84845 25.8296C7.59979 26.3439 6.66926 24.9969 6.27757 24.385C5.02891 22.3528 4.68607 18.9249 5.56745 16.1582C5.63564 15.9452 5.68308 15.7175 5.73038 15.4903C5.81905 15.0646 5.90725 14.6412 6.13072 14.3218C6.08159 14.0276 5.91249 13.8752 5.74723 13.7262C5.66498 13.6521 5.58369 13.5788 5.5186 13.4893C5.17576 13.0242 4.88207 12.4855 4.61264 11.9714C4.22116 11.2071 3.91495 10.3293 3.61819 9.47853C3.52512 9.2117 3.43297 8.94754 3.33941 8.69037C3.25583 8.47552 3.20139 8.26058 3.14768 8.04851C3.09122 7.82561 3.03557 7.60588 2.94772 7.39272C2.71626 6.89121 2.33299 6.3898 1.97717 5.92429C1.88125 5.79881 1.78733 5.67593 1.69891 5.55637C1.60353 5.41949 1.47723 5.26083 1.33645 5.08397C0.646084 4.21672 -0.392715 2.91176 0.156418 1.58984C1.1848 -0.932052 4.78423 0.977566 6.17957 1.8591C6.31911 1.94882 6.46676 2.07906 6.61921 2.21353C6.84135 2.40947 7.07368 2.61441 7.30596 2.71607C7.61208 2.72836 7.91824 2.74672 8.22438 2.76508C8.53039 2.78343 8.83639 2.80178 9.14231 2.81407C9.24255 2.83752 9.34223 2.8606 9.44129 2.88354C10.4795 3.12396 11.4493 3.34854 12.2763 3.81787C16.4877 6.29091 19.23 8.8128 21.7519 12.9752C22.0943 13.5353 22.3279 14.1252 22.5658 14.726C22.7022 15.0704 22.84 15.4185 23.0005 15.7665C23.6126 17.1866 24.2985 18.6799 25.0083 20.0267C25.0975 20.2052 25.181 20.3895 25.2647 20.5742C25.4793 21.0481 25.695 21.5244 26.0123 21.9121C26.1263 22.075 26.3814 22.162 26.6259 22.2453C26.7487 22.2872 26.8689 22.3281 26.9671 22.3773C27.2838 22.5404 27.6268 22.6885 27.9725 22.8378C28.5089 23.0694 29.0519 23.3038 29.5135 23.6016C30.9336 24.483 32.3048 25.5356 33.5535 26.6131C33.8059 26.839 34.0151 27.1152 34.224 27.3911C34.4002 27.6237 34.5762 27.8561 34.7777 28.0578V28.2781C34.386 28.4005 33.9942 28.5229 33.6025 28.6209C33.1763 28.7305 32.7743 28.7734 32.3755 28.816C31.9724 28.8591 31.5725 28.9018 31.154 29.0126C31.1013 29.0277 31.0472 29.0433 30.9921 29.0592C30.5102 29.1983 29.9479 29.3605 29.4645 29.4045C29.489 29.4289 29.5135 29.4533 29.5135 29.4533C29.7495 30.1251 30.753 30.7026 31.5754 31.1759C31.8621 31.3409 32.1268 31.4932 32.3293 31.6325C33.2842 32.318 34.1656 33.1506 34.8757 34.1054C34.9978 34.2274 35.1199 34.3434 35.242 34.4594C35.3648 34.5761 35.4875 34.6927 35.6103 34.8155C35.6932 34.934 35.7474 35.0698 35.8008 35.2033C35.8577 35.3456 35.9135 35.4853 36.002 35.599V35.6725C35.7877 35.596 35.6405 35.4429 35.4944 35.2912C35.4068 35.2 35.3195 35.1093 35.2184 35.0359C34.9878 34.8787 34.7572 34.708 34.5267 34.5372C34.2187 34.3091 33.9107 34.081 33.6025 33.8851C33.1287 33.5858 32.6168 33.3501 32.1024 33.1132C31.6066 32.8849 31.1084 32.6555 30.6398 32.367C30.1012 32.0242 29.5869 31.6325 29.0728 31.2408C28.6076 30.898 28.0936 30.2367 27.7996 29.7472C27.7255 29.6308 27.6789 29.5052 27.634 29.3844C27.575 29.2256 27.519 29.0749 27.4078 28.9636C27.4444 28.6158 27.7823 28.528 28.104 28.4444C28.2125 28.4162 28.3191 28.3885 28.4117 28.3515Z" fill="#00546B"/>
<path d="M7.1834 6.51118C7.47725 6.43776 7.77094 6.3886 8.18721 6.3886C8.2648 6.46626 8.36165 6.53235 8.45944 6.59908C8.60845 6.70076 8.75966 6.80395 8.84832 6.95187C8.90271 7.02803 8.93776 7.10419 8.9728 7.18035C9.01664 7.27562 9.06048 7.37088 9.14217 7.46614C9.14217 8.05368 8.9709 8.44537 8.6279 8.69037C8.6279 8.69037 8.60347 8.7148 8.57905 8.73938C8.4812 8.54374 8.38951 8.3481 8.29782 8.15249C8.20587 7.9563 8.11393 7.76012 8.01578 7.56399C7.92044 7.43054 7.81028 7.30821 7.69973 7.18544C7.52639 6.99293 7.35208 6.79935 7.2324 6.56018H7.1834V6.51118Z" fill="#00546B"/>
</g>
<defs>
<clipPath id="clip0_202_15172">
<rect width="37" height="36" fill="white"/>
</clipPath>
</defs>
</svg>
