<svg width="41" height="24" viewBox="0 0 41 24" fill="none" xmlns="http://www.w3.org/2000/svg">
<g clip-path="url(#clip0_202_9988)">
<path d="M36.2522 0.914978C34.8459 0.914978 33.6272 1.69623 32.9866 2.83685L32.9084 2.9931L29.9709 8.77435L26.2522 16.1025L28.6897 20.8994L28.8303 21.165C29.2053 21.8212 29.7678 22.3681 30.4553 22.6962C31.1428 22.3525 31.7053 21.8212 32.0803 21.165L32.2209 20.8994L39.5178 6.52435L39.6897 6.1806C39.8928 5.71185 40.0022 5.21185 40.0022 4.66498C40.0022 2.58685 38.3303 0.914978 36.2522 0.914978Z" fill="#FF5000"/>
<path d="M13.7366 7.88373L11.3147 3.10248L11.1741 2.83685C10.7991 2.1806 10.2366 1.63373 9.54907 1.3056C8.86157 1.64935 8.29907 2.1806 7.92407 2.83685L7.79907 3.10248L0.502197 17.4775L0.330322 17.8212C0.127197 18.29 0.0178223 18.79 0.0178223 19.3369C0.0178223 21.3994 1.6897 23.0869 3.76782 23.0869C5.17407 23.0869 6.39282 22.3056 7.03345 21.165L7.11157 21.0087L10.0491 15.2275L13.7522 7.89935L13.7366 7.88373Z" fill="#FF5000"/>
<path d="M36.2522 0.914978C34.8459 0.914978 33.6116 1.69623 32.9866 2.83685L32.9084 2.9931L29.9709 8.77435L26.2522 16.1025L28.6897 20.8994L28.8303 21.165C29.2053 21.8212 29.7678 22.3681 30.4553 22.6962C31.1428 22.3525 31.7053 21.8212 32.0803 21.165L32.2209 20.8994L39.5178 6.52435L39.6897 6.1806C39.8928 5.71185 40.0022 5.21185 40.0022 4.66498C40.0022 2.58685 38.3147 0.914978 36.2522 0.914978Z" fill="url(#paint0_linear_202_9988)"/>
<path d="M3.7522 23.0869C5.15845 23.0869 6.39282 22.3056 7.01782 21.165L7.09595 21.0087L10.0334 15.2275L13.7522 7.89935L11.3147 3.10248L11.1741 2.83685C10.7991 2.1806 10.2366 1.63373 9.54907 1.3056C8.86157 1.64935 8.29907 2.1806 7.92407 2.83685L7.79907 3.10248L0.502197 17.4775L0.314697 17.8369C0.111572 18.3056 0.00219727 18.8056 0.00219727 19.3525C0.00219727 21.415 1.67407 23.0869 3.7522 23.0869Z" fill="url(#paint1_linear_202_9988)"/>
<path d="M13.7366 7.88373L11.3147 3.10248L11.1741 2.83685C10.7991 2.1806 10.2366 1.63373 9.54907 1.3056C9.76782 1.19623 10.0178 1.10248 10.2522 1.03998C10.5491 0.961853 10.8772 0.914978 11.1897 0.914978H16.2522H16.2834H16.3147C17.7209 0.930603 18.9397 1.69623 19.5803 2.83685L19.6897 3.10248L26.2678 16.1181L28.6897 20.8994L28.8303 21.165C29.2053 21.8212 29.7678 22.3681 30.4553 22.6962C30.2366 22.8056 29.9866 22.8994 29.7522 22.9619C29.4553 23.04 29.1272 23.0869 28.7991 23.0869H23.7678H23.7366H23.7053C22.2991 23.0712 21.0803 22.3056 20.4397 21.165L20.2991 20.8994L13.7366 7.88373Z" fill="#FF8C44"/>
</g>
<defs>
<linearGradient id="paint0_linear_202_9988" x1="28.084" y1="21.5952" x2="43.6826" y2="8.26442" gradientUnits="userSpaceOnUse">
<stop stop-color="#D4202C"/>
<stop offset="0.0416616" stop-color="#D82D2B" stop-opacity="0.9583"/>
<stop offset="0.176" stop-color="#E25226" stop-opacity="0.824"/>
<stop offset="0.3167" stop-color="#EB7123" stop-opacity="0.6833"/>
<stop offset="0.4635" stop-color="#F28920" stop-opacity="0.5365"/>
<stop offset="0.6188" stop-color="#F69A1E" stop-opacity="0.3812"/>
<stop offset="0.7886" stop-color="#F9A41D" stop-opacity="0.2114"/>
<stop offset="1" stop-color="#FAA71D" stop-opacity="0"/>
</linearGradient>
<linearGradient id="paint1_linear_202_9988" x1="11.913" y1="2.40348" x2="-3.68576" y2="15.7343" gradientUnits="userSpaceOnUse">
<stop stop-color="#D4202C"/>
<stop offset="0.0416616" stop-color="#D82D2B" stop-opacity="0.9583"/>
<stop offset="0.176" stop-color="#E25226" stop-opacity="0.824"/>
<stop offset="0.3167" stop-color="#EB7123" stop-opacity="0.6833"/>
<stop offset="0.4635" stop-color="#F28920" stop-opacity="0.5365"/>
<stop offset="0.6188" stop-color="#F69A1E" stop-opacity="0.3812"/>
<stop offset="0.7886" stop-color="#F9A41D" stop-opacity="0.2114"/>
<stop offset="1" stop-color="#FAA71D" stop-opacity="0"/>
</linearGradient>
<clipPath id="clip0_202_9988">
<rect width="41" height="24" fill="white"/>
</clipPath>
</defs>
</svg>
