<svg width="37" height="30" viewBox="0 0 37 30" fill="none" xmlns="http://www.w3.org/2000/svg">
<g clip-path="url(#clip0_202_14032)">
<path d="M10.8507 11.4124C12.8331 11.4124 14.44 13.0193 14.44 15.0015C14.44 15.992 14.0388 16.8884 13.3904 17.5378L16.9007 22.4419C17.2559 22.3242 17.6346 22.2582 18.0294 22.2582C18.4276 22.2582 18.8095 22.3257 19.1676 22.4455L21.2812 19.3359C21.5538 18.9352 22.0999 18.8312 22.5005 19.1036C22.9016 19.3761 23.0058 19.9221 22.7331 20.3229L20.645 23.395C21.2471 24.0368 21.6187 24.8979 21.6187 25.8474C21.6187 27.8298 20.0116 29.4367 18.0294 29.4367C16.047 29.4367 14.44 27.8298 14.44 25.8474C14.44 24.8948 14.8138 24.0312 15.4195 23.3885L11.877 18.44C11.5517 18.5371 11.2076 18.5908 10.8507 18.5908C10.4315 18.5908 10.0307 18.5152 9.65682 18.3831L6.35959 23.5595C6.87399 24.1807 7.18351 24.9778 7.18351 25.8474C7.18351 27.8298 5.57645 29.4367 3.5942 29.4367C1.61195 29.4367 0.00488281 27.8298 0.00488281 25.8474C0.00488281 23.8651 1.61195 22.2582 3.5942 22.2582C4.07021 22.2582 4.52359 22.3528 4.93928 22.5212L8.19503 17.41C7.61678 16.773 7.26156 15.9298 7.26156 15.0015C7.26156 13.0193 8.86848 11.4124 10.8507 11.4124ZM32.4157 0.566467C34.398 0.566467 36.0049 2.17339 36.0049 4.15578C36.0049 6.13803 34.398 7.74495 32.4157 7.74495C31.9791 7.74495 31.5625 7.66311 31.1755 7.52038L27.8908 12.6768C28.4246 13.3033 28.7483 14.1141 28.7483 15.0015C28.7483 16.9839 27.1414 18.5909 25.159 18.5909C23.1768 18.5909 21.5699 16.9839 21.5699 15.0015C21.5699 14.0548 21.9391 13.1961 22.5383 12.5548L18.9904 7.59842C18.6698 7.69236 18.3315 7.74495 17.9805 7.74495C17.6241 7.74495 17.2804 7.69124 16.9554 7.59449L14.7289 10.8702C14.4561 11.2711 13.9103 11.3749 13.5094 11.1027C13.1083 10.8301 13.0042 10.2842 13.2768 9.88316L15.444 6.69505C14.7936 6.04536 14.3912 5.14761 14.3912 4.15578C14.3912 2.17339 15.9983 0.566467 17.9805 0.566467C19.9628 0.566467 21.5699 2.17339 21.5699 4.15578C21.5699 5.15183 21.1636 6.05267 20.5083 6.70306L24.015 11.6019C24.3746 11.4807 24.7587 11.4123 25.159 11.4123C25.6178 11.4123 26.0548 11.5016 26.458 11.6584L29.7265 6.52742C29.168 5.89475 28.8264 5.06605 28.8264 4.15578C28.8264 2.17339 30.4333 0.566467 32.4157 0.566467Z" fill="#546FFF"/>
</g>
<defs>
<clipPath id="clip0_202_14032">
<rect width="37" height="30" fill="white"/>
</clipPath>
</defs>
</svg>
