<svg width="37" height="37" viewBox="0 0 37 37" fill="none" xmlns="http://www.w3.org/2000/svg">
<g clip-path="url(#clip0_202_9034)">
<path d="M33.3652 2.64147C35.0584 4.33464 35.9374 6.45561 36.0016 9.00437V27.0047C35.9374 29.5528 35.0584 31.6744 33.3652 33.3676C31.6721 35.0607 29.5505 35.9397 27.0017 36.0045H9.00205C6.45329 35.9397 4.33232 35.0607 2.63915 33.3676C0.945982 31.6744 0.0669962 29.5528 0.00219727 27.0047V9.00437C0.0669962 6.45561 0.945982 4.33464 2.63915 2.64147C4.33232 0.948301 6.45329 0.0693155 9.00205 0.0045166H27.0017C29.5505 0.0693155 31.6721 0.948301 33.3652 2.64147ZM30.8825 17.1258C30.3167 16.563 30.0227 15.8569 29.9993 15.0073V9.00437C29.9813 8.15478 29.6897 7.44739 29.1245 6.8822C28.5593 6.31641 27.8513 6.02542 27.0017 6.00742H24.0048V21.0018L11.9996 6.00742H9.00205C8.15246 6.02542 7.44507 6.31641 6.87988 6.8822C6.31409 7.44739 6.0231 8.15478 6.0051 9.00437V15.0073C5.9817 15.8569 5.6877 16.563 5.12191 17.1258C4.55672 17.688 3.84933 17.9808 2.99975 18.0042C3.84933 18.0282 4.55672 18.321 5.12191 18.8832C5.6877 19.446 5.9817 20.1522 6.0051 21.0018V27.0047C6.0231 27.8537 6.31409 28.5616 6.87988 29.1268C7.44507 29.692 8.15246 29.9836 9.00205 30.0016H11.9996V15.0073L24.0048 30.0016H27.0017C27.8513 29.9836 28.5593 29.692 29.1245 29.1268C29.6897 28.5616 29.9813 27.8537 29.9993 27.0047V21.0018C30.0227 20.1522 30.3167 19.446 30.8825 18.8832C31.4477 18.321 32.1551 18.0282 33.0046 18.0042C32.1551 17.9808 31.4477 17.688 30.8825 17.1258Z" fill="#3C5AFD"/>
</g>
<defs>
<clipPath id="clip0_202_9034">
<rect width="37" height="37" fill="white"/>
</clipPath>
</defs>
</svg>
