<svg width="32" height="37" viewBox="0 0 32 37" fill="none" xmlns="http://www.w3.org/2000/svg">
<g clip-path="url(#clip0_202_13909)">
<path d="M30.3908 16.341C30.3908 24.703 23.6131 31.4806 15.2512 31.4806C6.88923 31.4806 0.111572 24.703 0.111572 16.341C0.111572 7.97907 6.88923 1.20142 15.2512 1.20142C23.6131 1.19414 30.3908 7.97907 30.3908 16.341Z" fill="#008CC1"/>
<path d="M6.82317 11.3745C6.82317 12.0421 6.28042 12.5849 5.61294 12.5849C4.94534 12.5849 4.40259 12.0421 4.40259 11.3745C4.40259 10.7071 4.94534 10.1643 5.61294 10.1643C6.28771 10.1643 6.82317 10.7071 6.82317 11.3745Z" fill="white"/>
<path d="M7.02874 14.6978C7.02874 15.3653 6.48599 15.9081 5.81851 15.9081C5.15103 15.9081 4.60815 15.3653 4.60815 14.6978C4.60815 14.0303 5.15103 13.4875 5.81851 13.4875C6.48599 13.4875 7.02874 14.023 7.02874 14.6978Z" fill="white"/>
<path d="M7.76946 18.2185C7.76946 18.886 7.22671 19.4287 6.55923 19.4287C5.89175 19.4287 5.34888 18.886 5.34888 18.2185C5.34888 17.5509 5.89175 17.0081 6.55923 17.0081C7.22671 17.0008 7.76946 17.5436 7.76946 18.2185Z" fill="white"/>
<path d="M9.42717 21.3727C9.42717 22.0401 8.8843 22.583 8.21682 22.583C7.54934 22.583 7.00659 22.0401 7.00659 21.3727C7.00659 20.7052 7.54934 20.1624 8.21682 20.1624C8.8843 20.155 9.42717 20.6979 9.42717 21.3727Z" fill="white"/>
<path d="M22.3881 25.7809C22.3881 26.4484 21.8454 26.9911 21.1778 26.9911C20.5103 26.9911 19.9675 26.4484 19.9675 25.7809C19.9675 25.1134 20.5103 24.5706 21.1778 24.5706C21.8454 24.5706 22.3881 25.1134 22.3881 25.7809Z" fill="white"/>
<path d="M24.5888 23.1774C24.5888 23.8449 24.046 24.3876 23.3784 24.3876C22.711 24.3876 22.1682 23.8449 22.1682 23.1774C22.1682 22.5099 22.711 21.967 23.3784 21.967C24.046 21.967 24.5888 22.5099 24.5888 23.1774Z" fill="white"/>
<path d="M18.2074 4.76614C18.2074 5.43362 17.6646 5.97637 16.9971 5.97637C16.3296 5.97637 15.7869 5.43362 15.7869 4.76614C15.7869 4.09866 16.3296 3.55591 16.9971 3.55591C17.6646 3.55591 18.2074 4.09866 18.2074 4.76614Z" fill="white"/>
<path d="M15.0239 3.65103C15.0239 4.31851 14.481 4.86126 13.8135 4.86126C13.146 4.86126 12.6033 4.31851 12.6033 3.65103C12.6033 2.98355 13.146 2.44067 13.8135 2.44067C14.481 2.44067 15.0239 2.98355 15.0239 3.65103Z" fill="white"/>
<path d="M23.606 4.66333C28.0621 4.66333 31.6745 8.27586 31.6745 12.732C31.6745 17.1881 28.0621 20.8005 23.606 20.8005C19.1498 20.8005 15.5374 17.1881 15.5374 12.732C15.5374 8.27586 19.1498 4.66333 23.606 4.66333Z" fill="#66B245"/>
<path d="M23.6058 21.0168C19.0376 21.0168 15.321 17.3003 15.321 12.7321C15.321 8.1639 19.0376 4.44751 23.6058 4.44751C28.1739 4.44751 31.8904 8.1639 31.8904 12.7321C31.8904 17.3003 28.1739 21.0168 23.6058 21.0168ZM23.6058 4.87973C19.2759 4.87973 15.7533 8.40237 15.7533 12.7321C15.7533 17.062 19.2759 20.5846 23.6058 20.5846C27.9357 20.5846 31.4582 17.062 31.4582 12.7321C31.4582 8.40237 27.9357 4.87973 23.6058 4.87973Z" fill="white"/>
<path d="M12.552 22.5833C16.1979 22.5833 19.1535 25.5388 19.1535 29.1848C19.1535 32.8307 16.1979 35.7864 12.552 35.7864C8.90599 35.7864 5.95044 32.8307 5.95044 29.1848C5.95044 25.5388 8.90599 22.5833 12.552 22.5833Z" fill="#66B245"/>
<path d="M12.5518 36.0018C8.79243 36.0018 5.73413 32.9434 5.73413 29.1841C5.73413 25.4248 8.79243 22.3665 12.5518 22.3665C16.3112 22.3665 19.3695 25.4248 19.3695 29.1841C19.3695 32.9434 16.3112 36.0018 12.5518 36.0018ZM12.5518 22.7987C9.03089 22.7987 6.16636 25.6631 6.16636 29.1841C6.16636 32.705 9.03089 35.5696 12.5518 35.5696C16.0727 35.5696 18.9372 32.705 18.9372 29.1841C18.9372 25.6631 16.0727 22.7987 12.5518 22.7987Z" fill="white"/>
<path d="M7.11661 0.218018C9.5472 0.218018 11.5176 2.18847 11.5176 4.61905C11.5176 7.04964 9.5472 9.02009 7.11661 9.02009C4.68603 9.02009 2.71558 7.04964 2.71558 4.61905C2.71558 2.18847 4.68603 0.218018 7.11661 0.218018Z" fill="#66B245"/>
<path d="M7.11642 9.23649C4.57049 9.23649 2.49927 7.16527 2.49927 4.61935C2.49927 2.07342 4.57049 0.00219727 7.11642 0.00219727C9.66234 0.00219727 11.7336 2.07342 11.7336 4.61935C11.7336 7.16527 9.66234 9.23649 7.11642 9.23649ZM7.11642 0.434422C4.80883 0.434422 2.93149 2.31176 2.93149 4.61935C2.93149 6.92693 4.80883 8.80427 7.11642 8.80427C9.424 8.80427 11.3013 6.92693 11.3013 4.61935C11.3013 2.31176 9.424 0.434422 7.11642 0.434422Z" fill="white"/>
</g>
<defs>
<clipPath id="clip0_202_13909">
<rect width="32" height="37" fill="white"/>
</clipPath>
</defs>
</svg>
