<svg width="37" height="36" viewBox="0 0 37 36" fill="none" xmlns="http://www.w3.org/2000/svg">
<g clip-path="url(#clip0_202_14541)">
<path d="M21.2009 0.0710144C20.9406 0.0710144 20.6988 0.126798 20.4757 0.201173C20.9499 0.517272 21.2102 0.935642 21.3403 1.40979C21.3497 1.47487 21.3682 1.52136 21.3775 1.58643C21.3869 1.64222 21.3961 1.698 21.3961 1.75378C21.4333 2.57192 21.1823 2.67419 21.0056 3.15764C20.736 3.78054 20.8104 4.44993 21.1358 4.98916C21.1637 5.05424 21.2009 5.12861 21.2474 5.19369C20.8941 2.84154 22.8558 2.48825 23.2183 1.75378C23.2462 1.11228 22.7163 0.68462 22.2979 0.387114C21.8982 0.145391 21.5356 0.0710144 21.2009 0.0710144ZM24.1573 0.600947C24.1201 0.814779 24.148 0.758996 24.1388 0.870562C24.1295 0.944937 24.1295 1.03791 24.1202 1.11228C24.1016 1.18666 24.083 1.26104 24.0551 1.33542C24.0365 1.40979 24.0086 1.48417 23.9807 1.55854C23.9435 1.63292 23.9156 1.698 23.8785 1.77238C23.8506 1.80958 23.832 1.84675 23.8041 1.88394C23.7855 1.91183 23.7669 1.93972 23.7483 1.96761C23.7018 2.0327 23.6553 2.09777 23.6088 2.15355C23.5531 2.20934 23.5066 2.27442 23.4415 2.3209C23.4415 2.33021 23.4415 2.33021 23.4415 2.33021C23.3857 2.3767 23.3299 2.43248 23.2649 2.47896C23.0696 2.62772 22.8465 2.73928 22.6419 2.87874C22.5769 2.92522 22.5118 2.96241 22.456 3.01819C22.3909 3.06468 22.3351 3.11116 22.2794 3.16695C22.2143 3.22273 22.1678 3.27851 22.112 3.34359C22.0655 3.39938 22.0097 3.46445 21.9726 3.52953C21.9261 3.59461 21.8796 3.65969 21.8424 3.72477C21.8052 3.79914 21.7773 3.86423 21.7401 3.9386C21.7122 4.01298 21.6843 4.07806 21.6658 4.15243C21.6379 4.23611 21.6193 4.31048 21.6007 4.38486C21.5914 4.42207 21.5914 4.46853 21.5821 4.50572C21.5728 4.54293 21.5728 4.5801 21.5635 4.61729C21.5635 4.69166 21.5542 4.77534 21.5542 4.84971C21.5542 4.9055 21.5542 4.96128 21.5635 5.01706C21.5635 5.09144 21.5728 5.16581 21.5914 5.24949C21.6007 5.32386 21.6193 5.39824 21.6379 5.47262C21.6658 5.54699 21.6844 5.62137 21.7123 5.69574C21.7309 5.74223 21.7588 5.78872 21.7774 5.8259L19.639 4.99847C19.2764 4.8962 18.9232 4.80323 18.5606 4.71955C18.3653 4.67307 18.1701 4.62658 17.9749 4.5801C17.417 4.46853 16.8499 4.38486 16.2828 4.32908C16.2642 4.32908 16.2549 4.31977 16.2363 4.31977C15.6785 4.26399 15.13 4.2361 14.5721 4.2361C14.1631 4.2361 13.754 4.25468 13.3542 4.28258C12.7871 4.31979 12.22 4.39415 11.6529 4.48712C11.5134 4.5057 11.3739 4.5336 11.2345 4.5615C10.9463 4.61727 10.6674 4.68236 10.3978 4.74744C10.2583 4.78464 10.1188 4.82181 9.97939 4.859C9.83993 4.91478 9.70977 4.97986 9.57961 5.03564C9.47734 5.08213 9.37508 5.12861 9.27281 5.1751C9.25423 5.18441 9.23561 5.18441 9.22633 5.19368C9.13336 5.24017 9.04968 5.27735 8.96601 5.32384C8.93812 5.33315 8.91952 5.34242 8.90093 5.35173C8.79866 5.39821 8.6964 5.454 8.61272 5.50048C8.54764 5.52837 8.48256 5.56556 8.42678 5.59346C8.39889 5.61203 8.3617 5.63066 8.34311 5.63994C8.25943 5.68642 8.17576 5.73291 8.10138 5.7794C8.01771 5.82588 7.94333 5.87236 7.87825 5.91885C7.81317 5.96534 7.74809 6.00252 7.69231 6.04901C7.683 6.05832 7.67373 6.05832 7.66442 6.06759C7.60864 6.10479 7.54356 6.15126 7.48778 6.19775C7.48778 6.19775 7.47846 6.20706 7.4692 6.21633C7.42271 6.25353 7.37622 6.2907 7.32974 6.32789C7.31116 6.3372 7.29254 6.35578 7.27396 6.36509C7.22747 6.4023 7.18099 6.44877 7.13451 6.48596C7.12519 6.50454 7.10661 6.51385 7.0973 6.52316C7.04152 6.57894 6.98574 6.62543 6.92995 6.68121C6.92064 6.68121 6.92064 6.69052 6.91137 6.69979C6.85559 6.74627 6.79981 6.80206 6.74403 6.85784C6.73471 6.86715 6.73471 6.87642 6.72545 6.87642C6.67896 6.9229 6.63248 6.96939 6.58599 7.02517C6.56741 7.04375 6.53951 7.06237 6.52091 7.08095C6.47443 7.13673 6.41865 7.19252 6.36286 7.2483C6.35355 7.26688 6.33497 7.27619 6.32566 7.29478C6.25128 7.36916 6.1862 7.44354 6.11183 7.51792C6.10251 7.52723 6.09325 7.53649 6.08394 7.54581C5.93518 7.70386 5.77713 7.86191 5.60979 8.00136C5.44244 8.15011 5.2658 8.28957 5.08915 8.41043C4.90321 8.54059 4.72657 8.65215 4.53133 8.76372C4.34539 8.86598 4.15015 8.95896 3.94561 9.04263C3.75037 9.1263 3.54584 9.20068 3.34131 9.26576C2.95083 9.34943 2.55105 9.50748 2.20706 9.53537C2.13269 9.53537 2.04901 9.55396 1.97464 9.56326C1.89096 9.58184 1.81659 9.60047 1.74221 9.61905C1.66784 9.64694 1.59346 9.67483 1.51908 9.70272C1.44471 9.73061 1.37033 9.7678 1.29595 9.80499C1.23087 9.85147 1.1565 9.88866 1.09142 9.93515C1.02634 9.98163 0.961258 10.0374 0.905475 10.0932C0.840398 10.1397 0.775317 10.2048 0.719534 10.2605C0.663751 10.3256 0.607969 10.3814 0.561485 10.4465C0.515001 10.5209 0.459218 10.5859 0.422028 10.6603C0.375544 10.7254 0.329059 10.7998 0.291869 10.8741C0.254666 10.9578 0.217494 11.0322 0.189603 11.1159C0.161711 11.1903 0.13382 11.2739 0.105928 11.3576C0.0873489 11.432 0.0687255 11.5063 0.0594444 11.5807C0.0594444 11.59 0.050133 11.5993 0.050133 11.6086C0.0315533 11.6923 0.0315533 11.8039 0.0222416 11.8596C0.0129302 11.9247 0.00366211 11.9805 0.00366211 12.0456C0.00366211 12.0828 0.00366211 12.1293 0.0129735 12.1664C0.0222848 12.2315 0.0315529 12.2873 0.0501765 12.3431C0.0687561 12.3989 0.0873796 12.4547 0.115253 12.5104C0.115253 12.5197 0.115253 12.5197 0.115253 12.5197C0.143145 12.5755 0.180335 12.6313 0.21752 12.6871C0.254723 12.7429 0.2919 12.7987 0.338384 12.8544C0.384869 12.9009 0.440651 12.9567 0.496434 13.0032C0.552217 13.059 0.608 13.1055 0.673076 13.1519C0.896207 13.3472 0.95199 13.4123 1.2402 13.561C1.28668 13.5889 1.33317 13.6075 1.38895 13.6354C1.39827 13.6354 1.40753 13.6447 1.41684 13.6447C1.41684 13.6633 1.41684 13.6726 1.42616 13.6912C1.43547 13.7656 1.45405 13.8399 1.47264 13.9143C1.49122 13.998 1.51913 14.0724 1.54702 14.1374C1.57491 14.1932 1.59351 14.249 1.6214 14.3048C1.63071 14.3234 1.63998 14.342 1.64929 14.3513C1.68649 14.4257 1.72366 14.4907 1.76085 14.5558C1.80734 14.6209 1.85382 14.686 1.90031 14.7511C1.94679 14.8068 2.00257 14.8719 2.05836 14.9277C2.11414 14.9835 2.16992 15.03 2.235 15.0857C2.235 15.0857 2.24432 15.0951 2.25358 15.0951C2.30937 15.1416 2.36515 15.188 2.42093 15.2252C2.48601 15.2717 2.55109 15.3089 2.62546 15.3461C2.69055 15.3833 2.76492 15.4205 2.8393 15.4484C2.89508 15.4762 2.96016 15.4948 3.02524 15.5134C3.03455 15.5228 3.04382 15.5228 3.06244 15.532C3.09964 15.5413 3.14611 15.5506 3.1833 15.5599C3.15541 16.0619 3.1461 16.5361 3.2205 16.7034C3.30417 16.8894 3.71325 16.3223 4.12232 15.6715C4.06653 16.313 4.02935 17.066 4.12232 17.2892C4.22458 17.5216 4.78241 16.7964 5.26585 15.9969C11.8575 14.4722 17.8727 19.0277 18.5049 25.4613C18.384 24.4572 17.1475 23.8994 16.5804 24.0388C16.3015 24.7268 15.8273 25.61 15.065 26.1585C15.13 25.5449 15.1022 24.9127 14.972 24.2991C14.7674 25.1545 14.3677 25.954 13.8191 26.642C12.9359 26.7071 12.0527 26.2794 11.5878 25.6379C11.5506 25.61 11.5414 25.5542 11.5135 25.5171C11.4856 25.452 11.4577 25.3869 11.4391 25.3218C11.4112 25.2567 11.3926 25.1917 11.3833 25.1266C11.374 25.0615 11.374 24.9964 11.374 24.922C11.374 24.8756 11.374 24.8291 11.374 24.7826C11.3833 24.7175 11.4019 24.6524 11.4205 24.5873C11.4391 24.5223 11.4577 24.4572 11.4856 24.3921C11.5228 24.327 11.5506 24.2619 11.5971 24.1969C11.7552 23.7506 11.7552 23.388 11.467 23.1742C11.4112 23.137 11.3554 23.1091 11.2903 23.0812C11.2531 23.0719 11.2067 23.0533 11.1695 23.044C11.1416 23.0347 11.123 23.0254 11.0951 23.0161C11.03 22.9975 10.9649 22.9789 10.8999 22.9696C10.8348 22.9511 10.7697 22.9418 10.7046 22.9418C10.6395 22.9324 10.5652 22.9232 10.5001 22.9232C10.4536 22.9232 10.4071 22.9325 10.3606 22.9325C10.2862 22.9325 10.2212 22.9418 10.1561 22.9604C10.091 22.9697 10.0259 22.979 9.96085 22.9976C9.89577 23.0162 9.83069 23.0348 9.76561 23.0627C9.70053 23.0905 9.64475 23.1184 9.57967 23.1463C9.52389 23.1742 9.46811 23.2114 9.40303 23.2393C7.23681 24.6525 8.5291 27.9622 10.0073 28.9198C9.44951 29.0221 8.88239 29.1429 8.72434 29.2638C8.71503 29.2731 8.70576 29.2824 8.70576 29.2824C9.10554 29.5241 9.5239 29.7286 9.96086 29.9053C10.5559 30.1005 11.1881 30.2772 11.467 30.3515V30.3608C12.2386 30.5189 13.0196 30.5747 13.8098 30.5282C17.9284 30.24 21.3033 27.1069 21.9169 22.979C21.9355 23.0627 21.9541 23.137 21.9727 23.2207C22.0006 23.388 22.0377 23.5647 22.0563 23.7413C22.0563 23.7413 22.0563 23.7413 22.0563 23.7507C22.0749 23.8343 22.0842 23.918 22.0935 23.9924C22.0935 24.011 22.0935 24.0203 22.0935 24.0296C22.1029 24.1133 22.1121 24.1969 22.1121 24.2713C22.1214 24.3736 22.1307 24.4758 22.1307 24.5781C22.1307 24.6246 22.1307 24.6711 22.1307 24.7269C22.1307 24.7734 22.14 24.8291 22.14 24.8756C22.14 24.9314 22.1307 24.9872 22.1307 25.043C22.1307 25.0895 22.1307 25.1359 22.1307 25.1731C22.1307 25.2382 22.1214 25.294 22.1214 25.3591C22.1214 25.3963 22.1214 25.4334 22.1121 25.4799C22.1121 25.545 22.1028 25.6101 22.1028 25.6845C22.0934 25.7124 22.0934 25.7402 22.0934 25.7681C22.0841 25.8425 22.0749 25.9076 22.0655 25.982C22.0655 26.0099 22.0655 26.0378 22.0562 26.0656C22.0469 26.1586 22.0283 26.2423 22.019 26.3353V26.3446V26.3539C22.0005 26.4376 21.9818 26.5305 21.9632 26.6142C21.9632 26.6235 21.9632 26.6328 21.9632 26.6421C21.9447 26.7258 21.926 26.8094 21.9075 26.8931C21.9075 26.9024 21.8982 26.921 21.8982 26.9303C21.8796 27.014 21.861 27.0977 21.8331 27.1813C21.8331 27.1906 21.8331 27.1999 21.8331 27.2092C21.8052 27.3022 21.7773 27.3859 21.7587 27.4695C21.7494 27.4789 21.7494 27.4881 21.7494 27.4881C21.7215 27.5811 21.6936 27.6741 21.6657 27.767C21.6285 27.86 21.6006 27.9437 21.5635 28.0367C21.5263 28.1296 21.4984 28.2226 21.4612 28.3063C21.424 28.3992 21.3868 28.4829 21.3496 28.5759H21.3403C21.3031 28.6596 21.2659 28.7525 21.2194 28.8362C21.2101 28.8641 21.2009 28.8827 21.1915 28.9013C21.1822 28.9106 21.1822 28.9199 21.173 28.9292C20.5687 30.1471 19.6761 31.2162 18.5605 32.053C18.4861 32.0995 18.4117 32.1552 18.3374 32.211C18.3188 32.2296 18.2909 32.2389 18.2723 32.2575C18.2072 32.304 18.1421 32.3505 18.0678 32.397L18.0956 32.4528H18.1049C18.2351 32.4342 18.3653 32.4156 18.4954 32.397H18.5047C18.7465 32.3598 18.9882 32.3133 19.2299 32.2668C19.295 32.2575 19.3694 32.2389 19.4344 32.2203C19.4809 32.211 19.5181 32.2017 19.5646 32.1924C19.6297 32.1831 19.6948 32.1645 19.7598 32.1552C19.8156 32.1367 19.8714 32.1273 19.9272 32.1087C20.8569 31.8856 21.7587 31.5788 22.6233 31.2162C21.1451 33.2337 19.1648 34.8607 16.8499 35.9298C17.919 35.8555 18.9882 35.6788 20.0202 35.3813C23.7669 34.275 26.9186 31.7555 28.8059 28.362C28.4247 30.5097 27.5694 32.555 26.305 34.34C27.2068 33.745 28.0342 33.057 28.7873 32.2761C30.8698 30.1006 32.2365 27.3394 32.7013 24.3736C33.0174 25.8425 33.1104 27.358 32.971 28.8548C39.6834 19.4926 33.5288 9.78652 30.9535 7.22983C30.9442 7.21125 30.9349 7.20194 30.9349 7.18334C30.9256 7.19265 30.9256 7.19265 30.9256 7.20192C30.9256 7.19261 30.9256 7.19261 30.9163 7.18334C30.9163 7.29491 30.907 7.40647 30.8977 7.51804C30.8698 7.73187 30.8419 7.9364 30.8047 8.14094C30.7582 8.34547 30.7025 8.55 30.6467 8.75454C30.5816 8.94978 30.5072 9.15431 30.4236 9.34956C30.3399 9.53549 30.2469 9.73073 30.1446 9.91668C30.0424 10.0933 29.9308 10.2793 29.8099 10.4466C29.6891 10.6233 29.5589 10.7906 29.4288 10.9486C29.2893 11.116 29.1406 11.2647 28.9918 11.4135C28.8988 11.4972 28.8152 11.5716 28.7222 11.6459C28.6478 11.711 28.5827 11.7668 28.5084 11.8319C28.341 11.962 28.1737 12.0829 27.9877 12.1945C27.8111 12.306 27.6251 12.4176 27.4392 12.5106C27.244 12.6035 27.0487 12.6872 26.8535 12.7709C26.6582 12.8452 26.4537 12.9103 26.2492 12.9661C26.0446 13.0219 25.8308 13.0684 25.6263 13.1056C25.4124 13.1428 25.1986 13.1613 24.9941 13.1799C24.8453 13.1893 24.6966 13.1985 24.5478 13.1985C24.334 13.1985 24.1201 13.1799 23.9156 13.1613C23.7018 13.1427 23.4879 13.1148 23.2834 13.0683C23.0696 13.0311 22.865 12.9754 22.6605 12.9103H22.6512C22.8557 12.8917 23.0603 12.8731 23.2648 12.8359C23.4786 12.7987 23.6832 12.7522 23.8877 12.6965C24.0922 12.6407 24.2968 12.5756 24.492 12.5012C24.6966 12.4268 24.8918 12.3339 25.0777 12.2409C25.273 12.1479 25.4496 12.0457 25.6356 11.9341C25.8122 11.8132 25.9888 11.6924 26.1562 11.5622C26.3235 11.4321 26.4816 11.2926 26.6303 11.1439C26.7884 11.0044 26.9278 10.8463 27.0673 10.6883C27.2068 10.521 27.3369 10.3536 27.4578 10.1863C27.4764 10.1584 27.495 10.1212 27.5136 10.0933C27.6065 9.94454 27.6995 9.79578 27.7832 9.64703C27.8854 9.46109 27.9784 9.27515 28.0621 9.07991C28.1458 8.88467 28.2201 8.68943 28.2852 8.4849C28.3503 8.28966 28.3968 8.08513 28.4433 7.88059C28.4805 7.66676 28.5176 7.46222 28.5362 7.25769C28.5548 7.04386 28.5734 6.83002 28.5734 6.62549C28.5734 6.47674 28.5641 6.32798 28.5549 6.17923C28.5363 5.9654 28.5084 5.76086 28.4805 5.55633C28.4433 5.34249 28.3968 5.13796 28.341 4.93342C28.276 4.73819 28.2109 4.53365 28.1365 4.33842C28.0621 4.14318 27.9691 3.94794 27.8762 3.76199C27.7739 3.57605 27.6716 3.39011 27.5601 3.21347C27.4392 3.03683 27.3183 2.86948 27.1882 2.70213C27.0487 2.54408 26.9093 2.38603 26.7605 2.22798C26.6862 2.15361 26.6025 2.06993 26.5188 1.99556C26.1004 1.67016 25.6635 1.36335 25.2265 1.08445C25.1614 1.04724 25.1057 1.01937 25.0406 0.991472C24.7338 0.796237 24.4456 0.693966 24.1574 0.600998L24.1573 0.600947Z" fill="#E0234E"/>
</g>
<defs>
<clipPath id="clip0_202_14541">
<rect width="37" height="36" fill="white"/>
</clipPath>
</defs>
</svg>
