<svg width="34" height="37" viewBox="0 0 34 37" fill="none" xmlns="http://www.w3.org/2000/svg">
<g clip-path="url(#clip0_202_14915)">
<path d="M3.03622 7.98269C4.08553 8.25335 8.26161 9.51479 10.7691 10.2805C13.2765 11.0453 15.1532 11.5403 16.6114 11.9466C18.0817 12.3677 17.972 13.517 16.8219 13.4178C15.6726 13.3064 14.3136 12.6887 12.9554 12.1563C11.5957 11.6395 7.32122 10.391 5.12183 9.64979C2.93706 8.92065 2.40469 8.92065 2.09746 8.50052C1.78779 8.09323 1.9861 7.7096 3.03622 7.98269Z" fill="#E92200"/>
<path d="M18.7115 12.5776C19.6494 12.4784 19.7486 13.4172 19.5389 13.9366C19.3292 14.4551 18.2921 14.6648 18.0824 14.1471C17.7605 13.4172 17.7605 12.6881 18.7115 12.5776Z" fill="#E92200"/>
<path d="M31.0276 5.05419C30.4091 5.58575 28.5202 6.73502 27.1726 7.67387C25.8144 8.61256 23.3062 10.2804 22.5649 10.6998C21.8375 11.1192 20.8987 11.6394 20.268 12.1563C19.6495 12.6887 19.86 13.6274 20.7995 13.3065C21.7367 12.9976 22.6771 12.4791 23.3062 11.8474C23.9239 11.2183 24.5538 10.7982 25.1837 10.3909C25.8144 9.97153 30.6196 6.41397 31.5584 5.78244C32.498 4.74533 31.6575 4.5349 31.0276 5.05419Z" fill="#E92200"/>
<path d="M33.4372 3.28765C33.9549 3.28765 34.1646 4.43693 33.6469 4.74498C33.1283 5.05383 32.3862 5.05383 32.3862 4.01672C32.3862 2.96579 32.9178 3.28765 33.4372 3.28765Z" fill="#E92200"/>
<path d="M33.1283 5.47363C33.5363 5.47363 33.7452 6.31486 33.6477 6.94396C33.5363 7.56168 33.7452 11.6386 33.8566 13.0959C33.9557 14.5663 33.9557 15.197 33.7452 15.7155C33.5363 16.2341 33.7452 17.0737 33.7452 18.4327C33.7452 19.7925 33.5363 21.5586 33.4372 22.2999C33.3266 23.0282 33.2275 23.5467 32.8056 23.4484C32.3862 23.3378 32.3862 22.8176 32.3862 21.9772C32.3862 21.1506 32.3862 16.7526 32.4984 15.7155C32.5951 14.6654 32.5951 14.2452 32.5951 13.417V6.83342C32.5951 5.993 32.7081 5.47363 33.1283 5.47363Z" fill="#E92200"/>
<path d="M32.8058 24.2762C33.4373 24.1762 33.6478 25.3255 33.3268 25.6343C33.0163 25.9562 32.2864 25.8448 32.0775 25.3255C31.8679 24.8069 32.1767 24.3875 32.8058 24.2762Z" fill="#E92200"/>
<path d="M0.8109 7.04329C1.38066 6.95632 1.56516 7.98287 1.09619 8.35187C0.627211 8.73632 -0.0278937 8.45103 0.0704533 7.88371C0.155796 7.32695 0.255768 7.14245 0.8109 7.04329Z" fill="#E92200"/>
<path d="M2.13374 6.20317C3.44395 5.54807 6.16109 3.85585 6.81538 3.67135C7.47049 3.48604 8.68072 2.73258 9.15132 2.36195C9.61867 1.99051 11.1134 1.13871 11.3979 0.953399C11.6831 0.768084 12.9909 0.953399 11.8677 1.70685C10.7419 2.46111 9.15132 3.38688 8.02643 4.04198C6.90154 4.70846 3.71379 6.38849 3.0595 6.67296C2.4044 6.95663 0.811341 6.85828 2.13374 6.20317Z" fill="#E92200"/>
<path d="M13.2762 0.0147513C13.4632 -0.0714039 14.0289 0.397573 13.7444 0.768203C13.4632 1.13802 13.0901 1.42249 12.7073 0.768203C12.3375 0.113098 13.0901 0.113098 13.2762 0.0147513Z" fill="#E92200"/>
<path d="M15.1533 0.113281C16.3652 0.113281 19.3652 0.582339 20.3048 0.867545C21.2321 1.1382 23.1105 1.42276 23.4803 1.52184C23.8623 1.60799 25.1717 1.60799 25.4554 1.70715C25.7285 1.79249 26.5795 2.17621 28.2595 2.36234C29.9525 2.54684 30.9758 2.73297 31.448 2.91747C31.9178 3.11571 31.6342 4.23898 30.8783 4.04147C30.1378 3.85615 27.0501 3.48552 26.2958 3.38726C25.5415 3.30029 24.0476 2.73297 23.208 2.646C22.3546 2.54684 20.2056 2.07705 18.4264 1.89165C16.648 1.70715 15.4256 1.33652 14.955 1.23736C14.486 1.1382 13.9309 0.113281 15.1533 0.113281Z" fill="#E92200"/>
<path d="M0.540039 10.1317C0.540039 9.47659 1.56496 9.19211 1.66412 10.0447C1.75028 10.8851 1.84862 12.2929 1.93559 13.417C2.03475 14.5419 2.1331 15.5676 2.21925 16.3202C2.31841 17.0615 2.78739 18.939 2.87598 19.508C2.9727 20.0623 3.05967 21.1872 3.05967 21.8423C3.05967 22.4974 3.25718 23.437 3.15883 23.9059C3.05967 24.3741 2.59069 25.5852 2.31841 24.1888C2.03475 22.7811 2.21925 21.0027 2.03475 20.5329C1.84862 20.0623 1.4658 19.0374 1.4658 18.2847C1.4658 17.5305 1.09598 15.5676 1.0082 15.0978C0.910669 14.628 0.540039 10.786 0.540039 10.1317Z" fill="#E92200"/>
<path d="M2.59106 25.9686C2.69022 25.5851 3.44367 25.3135 3.71432 25.7825C3.99961 26.2531 3.91183 26.9936 3.25754 27.0927C2.59106 27.1797 2.50409 26.3385 2.59106 25.9686Z" fill="#E92200"/>
<path d="M4.09698 24.7456C4.93822 23.906 7.37088 22.5966 8.78025 21.3725C10.188 20.1615 12.7068 18.4692 13.1766 18.0011C13.6456 17.5305 14.8696 17.9133 13.8317 18.7537C12.8076 19.5941 10.3733 21.3725 9.33457 22.2137C8.31046 23.0655 5.50554 24.9309 4.93822 25.4982C4.38227 26.055 3.25738 25.5852 4.09698 24.7456Z" fill="#E92200"/>
<path d="M15.0544 16.4071C15.4258 16.5062 15.4258 17.2597 15.0544 17.4449C14.6837 17.6295 14.0286 17.5303 14.1164 16.9751C14.2148 16.4071 14.6837 16.3208 15.0544 16.4071Z" fill="#E92200"/>
<path d="M5.40796 26.9077C6.71655 27.2783 9.619 29.1559 10.5586 29.5257C11.4973 29.8971 13.2765 30.8351 14.1161 31.3049C14.9557 31.7738 17.0186 32.7134 17.5875 32.9849C18.1419 33.2694 18.6125 33.3677 18.8961 33.6522C19.1806 33.9228 18.7986 34.9616 18.0557 34.5788C17.3031 34.2081 14.3998 32.7134 13.9308 32.4289C13.4635 32.1445 11.6827 31.2065 11.1137 30.8351C10.5586 30.4644 9.80513 30.3661 9.06387 29.9947C8.31042 29.6256 5.69162 28.2171 4.83901 27.7473C4.00022 27.2783 4.09694 26.5241 5.40796 26.9077Z" fill="#E92200"/>
<path d="M18.3279 15.4807C18.2417 16.4073 18.427 18.1865 18.5262 18.6563C18.6124 19.1236 18.9838 21.0881 18.896 22.4975C18.7985 23.9061 18.896 25.6844 19.0822 26.6224C19.2658 27.562 19.365 29.9946 19.365 30.6505C19.365 31.3048 19.5503 32.1445 19.6495 32.3306C19.7356 32.5281 20.3054 33.3677 20.3907 32.1444C20.4915 30.9335 20.3907 28.5007 20.4915 27.7473C20.5785 26.9938 20.3907 25.2155 20.2062 22.9657C20.0209 20.7167 19.9234 18.853 19.9234 18.2848C19.9234 17.7289 20.1071 16.3203 19.7356 15.7531C19.452 14.8134 18.427 14.542 18.3279 15.4807Z" fill="#E92200"/>
<path d="M20.107 34.0223C20.3907 33.9232 21.3319 34.6775 20.9588 35.5171C20.5784 36.3584 20.0216 35.9868 19.6494 35.3326C19.2658 34.6775 19.8347 34.1093 20.107 34.0223Z" fill="#E92200"/>
<path d="M22.084 33.0831C23.2943 31.6753 23.5804 32.0582 24.2347 31.4908C24.889 30.9333 27.5069 28.8712 28.4465 28.0316C29.3837 27.1798 30.1379 26.71 30.6922 26.2533C31.262 25.7827 32.104 26.476 31.262 26.9937C30.4216 27.5123 28.5457 29.3524 27.7906 30.3659C27.0502 31.3795 26.382 31.1186 25.5416 31.9598C24.7045 32.7994 24.2347 33.4545 23.7633 33.6528C23.2943 33.8382 22.9245 34.1096 22.5522 34.3925C22.1694 34.677 20.8608 34.4925 22.084 33.0831Z" fill="#E92200"/>
<path d="M16.7335 17.0616C17.3024 17.2599 19.6489 18.0995 21.2323 18.8529C22.8261 19.5942 26.6657 21.1873 27.4208 21.6579C28.1726 22.126 31.1629 23.2501 31.5457 23.5346C31.9179 23.806 32.0041 25.2154 31.1629 24.8448C30.3224 24.462 27.9759 23.1518 26.4828 22.4975C24.9873 21.8424 22.64 20.7175 21.5143 20.4338C20.391 20.1615 18.2412 18.8529 17.6747 18.4693C17.1187 18.0995 16.4628 18.0995 16.18 17.6297C15.8939 17.1607 16.18 16.8771 16.7335 17.0616Z" fill="#E92200"/>
<path d="M13.9303 2.46055C14.1165 3.58463 14.301 4.79487 14.301 5.73363C14.301 6.6724 14.4863 8.16711 14.5863 8.6369C14.6838 9.10588 14.8691 10.6997 14.7699 10.9842C14.6838 11.2557 14.7699 13.5039 14.7699 14.0728C14.7699 14.6279 14.9553 15.3822 14.3993 15.3822C13.8312 15.3822 13.7442 14.9117 13.7442 13.8867C13.7442 12.8488 13.363 10.6014 13.363 9.66182C13.363 8.73606 13.1769 6.75856 13.1769 5.44916C13.1769 4.14058 12.9046 2.73202 12.8071 2.36139C12.7071 1.98995 13.7442 1.33647 13.9303 2.46055Z" fill="#E92200"/>
</g>
<defs>
<clipPath id="clip0_202_14915">
<rect width="34" height="37" fill="white"/>
</clipPath>
</defs>
</svg>
