<svg width="37" height="37" viewBox="0 0 37 37" fill="none" xmlns="http://www.w3.org/2000/svg">
<g clip-path="url(#clip0_202_14052)">
<path d="M26.0962 12.4986L26.0831 12.4929C26.0756 12.4901 26.0681 12.4873 26.0615 12.4807C26.0396 12.4573 26.0299 12.425 26.0352 12.3934L26.7617 7.9562L30.1689 11.3606L26.6254 12.8666C26.6156 12.8706 26.605 12.8725 26.5944 12.8722H26.5803C26.5756 12.8694 26.5709 12.8657 26.5615 12.8563C26.4296 12.7096 26.2719 12.5884 26.0962 12.4986ZM31.0384 12.2282L34.6815 15.8673C35.4381 16.624 35.8169 17.0015 35.9551 17.439C35.9758 17.5038 35.9927 17.5686 36.0059 17.6352L27.2994 13.952C27.2947 13.95 27.29 13.9481 27.2853 13.9463C27.2505 13.9322 27.2101 13.9163 27.2101 13.8806C27.2101 13.8449 27.2514 13.828 27.2862 13.8139L27.2975 13.8092L31.0384 12.2282ZM35.8573 18.8032C35.6694 19.1562 35.3028 19.5224 34.6824 20.143L30.575 24.245L25.2625 23.1399L25.2343 23.1343C25.1873 23.1268 25.1375 23.1183 25.1375 23.0761C25.0967 22.6336 24.8738 22.2279 24.5219 21.956C24.5003 21.9344 24.5059 21.9006 24.5125 21.8696C24.5125 21.8649 24.5125 21.8602 24.5144 21.8565L25.5135 15.7293L25.5173 15.7086C25.5229 15.6617 25.5314 15.6072 25.5737 15.6072C26.0062 15.5535 26.399 15.3285 26.664 14.9829C26.6724 14.9735 26.6781 14.9631 26.6893 14.9575C26.7194 14.9434 26.7551 14.9575 26.7862 14.9707L35.8564 18.8032H35.8573ZM29.6304 25.1886L22.8761 31.9355L24.0322 24.8375L24.0341 24.8281C24.035 24.8187 24.0369 24.8093 24.0397 24.8008C24.0491 24.7783 24.0735 24.7689 24.097 24.7595L24.1083 24.7548C24.3614 24.6469 24.5853 24.4806 24.7616 24.2694C24.7841 24.2431 24.8114 24.2178 24.8462 24.2131C24.8552 24.2116 24.8644 24.2116 24.8734 24.2131L29.6294 25.1895L29.6304 25.1886ZM21.4464 33.3635L20.6851 34.124L12.2681 21.9729C12.2651 21.9685 12.2619 21.9641 12.2587 21.9598C12.2455 21.9419 12.2314 21.9241 12.2343 21.9034C12.2352 21.8884 12.2446 21.8753 12.2549 21.864L12.2643 21.8518C12.2897 21.8142 12.3113 21.7767 12.3348 21.7363L12.3536 21.7034L12.3565 21.7006C12.3696 21.6781 12.3818 21.6565 12.4044 21.6443C12.4241 21.6349 12.4514 21.6387 12.473 21.6433L21.798 23.5643C21.8241 23.5684 21.8486 23.579 21.8694 23.5953C21.8816 23.6075 21.8845 23.6206 21.8873 23.6357C22.0191 24.134 22.3766 24.5421 22.8535 24.7389C22.8798 24.752 22.8686 24.7811 22.8563 24.8121C22.8502 24.8257 22.8455 24.8398 22.8422 24.8544C22.7247 25.5679 21.7171 31.7064 21.4464 33.3635ZM19.8561 34.9512C19.295 35.5061 18.9641 35.7999 18.59 35.9182C18.2212 36.0347 17.8253 36.0347 17.4565 35.9182C17.0185 35.7793 16.6397 35.4018 15.883 34.6451L7.43031 26.2017L9.63819 22.7813C9.64853 22.7644 9.65887 22.7494 9.67579 22.7372C9.69929 22.7203 9.73312 22.7278 9.76132 22.7372C10.2681 22.8899 10.8122 22.8623 11.3009 22.6592C11.3263 22.6498 11.3517 22.6433 11.3714 22.6611C11.3813 22.6701 11.3901 22.6802 11.3977 22.6911L19.8561 34.9521V34.9512ZM6.6154 25.3876L4.67634 23.4507L8.50558 21.8189C8.51537 21.8147 8.52592 21.8124 8.5366 21.8123C8.56856 21.8123 8.58736 21.8443 8.60428 21.8734C8.64276 21.9325 8.68352 21.9901 8.72647 22.0461L8.73869 22.0612C8.74997 22.0771 8.74245 22.0931 8.73117 22.1081L6.61634 25.3876H6.6154ZM3.81819 22.5935L1.36499 20.143C0.947662 19.7261 0.645007 19.4238 0.434464 19.1637L7.8937 20.7092C7.90307 20.7109 7.91247 20.7125 7.92189 20.7138C7.96795 20.7214 8.01871 20.7298 8.01871 20.773C8.01871 20.8199 7.96325 20.8415 7.91625 20.8594L7.89464 20.8688L3.81819 22.5935ZM0.00585938 17.9037C0.0143602 17.7459 0.0427827 17.5897 0.0904525 17.439C0.229561 17.0015 0.60741 16.624 1.36499 15.8673L4.50433 12.7314C5.94978 14.8269 7.39914 16.9197 8.85242 19.0098C8.8778 19.0436 8.90599 19.0811 8.87685 19.1093C8.73963 19.2604 8.6024 19.4257 8.50558 19.605C8.49508 19.6281 8.47892 19.6481 8.45859 19.6632C8.44637 19.6707 8.43321 19.6679 8.41911 19.6651H8.41723L0.00585938 17.9028V17.9037ZM5.34462 11.892L9.56582 7.67547C9.96247 7.84917 11.4062 8.45851 12.6976 9.00307C13.6752 9.41618 14.5662 9.79173 14.8463 9.91379C14.8745 9.92506 14.8999 9.93632 14.9121 9.96449C14.9196 9.98139 14.9159 10.003 14.9121 10.0208C14.7764 10.6391 14.9611 11.2841 15.4037 11.7371C15.4319 11.7653 15.4037 11.8057 15.3792 11.8404L15.3661 11.8601L11.08 18.4915C11.0688 18.5103 11.0584 18.5262 11.0396 18.5384C11.0171 18.5525 10.9851 18.5459 10.9588 18.5394C10.7921 18.4957 10.6207 18.4724 10.4484 18.4699C10.2943 18.4699 10.127 18.4981 9.95777 18.529H9.95683C9.93803 18.5319 9.92111 18.5356 9.90607 18.5244C9.88946 18.5108 9.87518 18.4946 9.86377 18.4765L5.34462 11.892ZM10.4183 6.8239L15.883 1.36519C16.6397 0.609385 17.0185 0.231012 17.4565 0.0929956C17.8253 -0.0235115 18.2212 -0.0235115 18.59 0.0929956C19.028 0.231012 19.4068 0.609385 20.1635 1.36519L21.3478 2.54819L17.4612 8.56085C17.4516 8.57835 17.4384 8.59369 17.4226 8.60592C17.3991 8.62188 17.3662 8.6153 17.338 8.60592C16.716 8.41733 16.0408 8.5473 15.5334 8.9533C15.508 8.97959 15.4704 8.96457 15.4385 8.95049C14.9309 8.72985 10.9832 7.06332 10.4183 6.8239ZM22.173 3.37254L25.7616 6.95722L24.8969 12.307V12.3211C24.8961 12.3333 24.8936 12.3453 24.8894 12.3568C24.88 12.3756 24.8612 12.3793 24.8424 12.3849C24.6575 12.4409 24.4834 12.5275 24.3273 12.6413C24.3206 12.646 24.3143 12.6514 24.3085 12.6572C24.2982 12.6685 24.2878 12.6788 24.2709 12.6807C24.2571 12.6811 24.2434 12.6789 24.2305 12.6741L18.762 10.3532L18.7517 10.3485C18.7169 10.3344 18.6756 10.3175 18.6756 10.2818C18.6434 9.97743 18.5439 9.68398 18.3842 9.42275C18.3579 9.37956 18.3287 9.33449 18.3513 9.29037L22.173 3.37254ZM18.4772 11.4526L23.6036 13.6215C23.6318 13.6346 23.6628 13.6468 23.675 13.6759C23.6799 13.6934 23.6799 13.7119 23.675 13.7294C23.66 13.8046 23.6468 13.89 23.6468 13.9764V14.12C23.6468 14.1557 23.6102 14.1707 23.5763 14.1848L23.566 14.1886C22.7539 14.535 12.1647 19.0454 12.1487 19.0454C12.1327 19.0454 12.1158 19.0454 12.0999 19.0295C12.0717 19.0013 12.0999 18.9619 12.1252 18.9262C12.1297 18.92 12.1341 18.9137 12.1384 18.9074L16.3511 12.3915L16.3586 12.3803C16.3831 12.3408 16.4113 12.2967 16.4564 12.2967L16.4987 12.3033C16.5946 12.3164 16.6792 12.3286 16.7647 12.3286C17.4038 12.3286 17.996 12.0178 18.3532 11.4864C18.3617 11.4722 18.3725 11.4596 18.3851 11.4489C18.4105 11.4301 18.4481 11.4395 18.4772 11.4526ZM12.6065 20.0763L24.1487 15.1594C24.1487 15.1594 24.1656 15.1594 24.1816 15.1753C24.2446 15.2382 24.2982 15.2805 24.3499 15.3199L24.3752 15.3359C24.3987 15.349 24.4222 15.364 24.4241 15.3885C24.4241 15.3978 24.4241 15.4035 24.4222 15.4119L23.4334 21.479L23.4297 21.5035C23.4231 21.5504 23.4165 21.6039 23.3724 21.6039C22.8372 21.64 22.3543 21.9376 22.0818 22.3992L22.0771 22.4067C22.064 22.4283 22.0518 22.4489 22.0301 22.4602C22.0104 22.4696 21.985 22.4658 21.9643 22.4611L12.7597 20.5646C12.7503 20.5627 12.6168 20.0773 12.6065 20.0763Z" fill="url(#paint0_radial_202_14052)"/>
</g>
<defs>
<radialGradient id="paint0_radial_202_14052" cx="0" cy="0" r="1" gradientUnits="userSpaceOnUse" gradientTransform="translate(18.0059 -17.9944) scale(36)">
<stop stop-color="#20C6B7"/>
<stop offset="1" stop-color="#4D9ABF"/>
</radialGradient>
<clipPath id="clip0_202_14052">
<rect width="37" height="37" fill="white"/>
</clipPath>
</defs>
</svg>
