<svg width="37" height="37" viewBox="0 0 37 37" fill="none" xmlns="http://www.w3.org/2000/svg">
<path d="M18.0032 36.0024C27.9443 36.0024 36.0032 27.9436 36.0032 18.0024C36.0032 8.06132 27.9443 0.00244141 18.0032 0.00244141C8.06205 0.00244141 0.00317383 8.06132 0.00317383 18.0024C0.00317383 27.9436 8.06205 36.0024 18.0032 36.0024Z" fill="#8ED500"/>
<path d="M18.9397 10.2242C16.239 10.2242 13.9366 11.4662 12.6448 13.3644C12.5364 13.5225 12.3519 13.8623 12.1088 13.8623C10.9371 13.8623 10.8521 12.4153 10.8141 11.1147C10.8096 11.0217 10.7699 10.9339 10.7029 10.8691C10.636 10.8043 10.5469 10.7675 10.4538 10.7661L7.02953 10.7486C6.98133 10.7486 6.93362 10.7582 6.88916 10.7768C6.84471 10.7954 6.8044 10.8227 6.7706 10.857C6.73679 10.8914 6.71016 10.9321 6.69226 10.9769C6.67435 11.0216 6.66553 11.0695 6.66631 11.1177C6.74247 14.2929 7.32538 16.4488 11.1714 17.3071C11.274 17.3309 11.3654 17.3888 11.4308 17.4712C11.4962 17.5537 11.5318 17.6558 11.5317 17.7611V24.8908C11.5317 24.9864 11.5697 25.078 11.6373 25.1456C11.7048 25.2131 11.7965 25.2511 11.892 25.2511H15.2167C15.313 25.2511 15.4054 25.2128 15.4735 25.1447C15.5416 25.0766 15.5799 24.9842 15.5799 24.8879V17.5238C15.5799 15.8893 16.7516 14.0322 18.9397 14.0322C21.037 14.0322 22.2995 15.8893 22.2995 17.5238V24.8879C22.3003 24.984 22.3388 25.0759 22.4067 25.1439C22.4747 25.2118 22.5666 25.2503 22.6627 25.2511H25.9874C26.0837 25.2511 26.1761 25.2128 26.2442 25.1447C26.3123 25.0766 26.3506 24.9842 26.3506 24.8879V16.979C26.3506 13.1945 23.1226 10.2242 18.9397 10.2242Z" fill="white"/>
</svg>
