<svg width="37" height="37" viewBox="0 0 37 37" fill="none" xmlns="http://www.w3.org/2000/svg">
<g clip-path="url(#clip0_202_12976)">
<path d="M16.8248 0.011885C16.7474 0.0189221 16.501 0.0435519 16.2793 0.0611446C11.1661 0.522074 6.37668 3.28061 3.34325 7.52046C1.6541 9.87788 0.57375 12.552 0.165539 15.3844C0.0212574 16.3731 0.00366211 16.6652 0.00366211 18.0057C0.00366211 19.3463 0.0212574 19.6383 0.165539 20.627C1.14384 27.3862 5.95439 33.0651 12.4787 35.1692C13.6471 35.5457 14.8787 35.8025 16.2793 35.9573C16.8248 36.0172 19.1825 36.0172 19.728 35.9573C22.1456 35.6899 24.1937 35.0918 26.2136 34.0608C26.5233 33.9025 26.5831 33.8603 26.5409 33.8251C26.5128 33.804 25.1931 32.0342 23.6095 29.8949L20.7309 26.0069L17.1239 20.6693C15.1391 17.7348 13.5063 15.3351 13.4922 15.3351C13.4781 15.3316 13.4641 17.7031 13.457 20.5989C13.4465 25.6691 13.443 25.8732 13.3796 25.9928C13.2881 26.1652 13.2177 26.2356 13.0699 26.313C12.9573 26.3693 12.8588 26.3799 12.3274 26.3799H11.7186L11.5567 26.2778C11.4512 26.211 11.3737 26.123 11.321 26.021L11.2471 25.8626L11.2541 18.8079L11.2647 11.7497L11.3737 11.6125C11.4301 11.5386 11.5497 11.4436 11.6342 11.3979C11.7784 11.3275 11.8347 11.3205 12.4435 11.3205C13.1614 11.3205 13.2811 11.3486 13.4676 11.5527C13.5204 11.609 15.4735 14.5505 17.8101 18.0937C20.1468 21.6369 23.3421 26.4749 24.9116 28.8499L27.762 33.1671L27.9063 33.0721C29.1837 32.2418 30.535 31.0595 31.6048 29.828C33.8817 27.2138 35.3491 24.026 35.8418 20.627C35.9861 19.6383 36.0037 19.3463 36.0037 18.0057C36.0037 16.6652 35.9861 16.3731 35.8418 15.3844C34.8635 8.62528 30.0529 2.94635 23.5286 0.842261C22.3779 0.469296 21.1532 0.212442 19.7808 0.0576261C19.443 0.0224406 17.1169 -0.0162634 16.8248 0.011885ZM24.1937 10.8983C24.3626 10.9827 24.4998 11.1446 24.5491 11.3134C24.5773 11.4049 24.5843 13.3612 24.5773 17.77L24.5667 24.0963L23.4512 22.3863L22.3321 20.6763V16.0776C22.3321 13.1044 22.3462 11.4331 22.3673 11.3522C22.4236 11.1551 22.5468 11.0003 22.7157 10.9088C22.86 10.8349 22.9128 10.8279 23.4652 10.8279C23.9861 10.8279 24.0776 10.8349 24.1937 10.8983Z" fill="black"/>
</g>
<defs>
<clipPath id="clip0_202_12976">
<rect width="37" height="37" fill="white"/>
</clipPath>
</defs>
</svg>
