<svg width="32" height="41" viewBox="0 0 32 41" fill="none" xmlns="http://www.w3.org/2000/svg">
<g clip-path="url(#clip0_202_15519)">
<path d="M22.267 12.0088C38.8644 20.2682 31.1411 35.9057 16.7186 36.7095C16.1089 36.7435 15.4949 36.7146 14.8908 36.6249C1.15662 34.5847 -3.76707 20.7574 9.18468 12.6207C13.1309 10.1415 18.0946 9.93245 22.267 12.0088Z" fill="#794422"/>
<path d="M21.2267 36.3674C28.4939 32.1734 31.8569 20.2721 25.7713 9.83423C26.1151 8.00844 26.3213 6.30268 26.3503 4.75153C26.4075 4.24918 25.9204 3.85953 25.443 4.02551C24.0198 4.37422 22.6498 4.84319 21.3414 5.45089C20.3508 4.76057 19.3264 4.52773 18.4852 4.48337C18.0275 4.45917 18.2005 3.77129 18.2375 3.51865C18.4549 3.04258 18.6613 2.64328 19.173 2.18677C19.5284 1.86165 19.0827 1.4148 18.6747 1.67086C18.0102 1.98816 17.5951 2.30851 17.1271 2.7754C16.9942 2.87416 16.8352 2.86499 16.7208 2.8436C16.6391 2.82833 16.5796 2.75377 16.5707 2.67102C16.4704 1.74945 16.5745 0.922848 17.3807 0.301093C17.5324 0.184124 17.38 -0.0406466 17.2058 0.012521C15.8602 0.423317 15.2766 1.35393 14.8101 2.50443C14.4355 2.24104 13.997 2.01077 13.4983 1.81179C13.4139 1.7673 13.3037 1.7387 13.2276 1.79614C13.0912 1.89905 12.9216 2.006 13.0003 2.1897C13.5297 2.95654 14.0616 3.70333 14.6265 4.19186C13.2891 4.47567 12.0243 4.94293 10.8494 5.63741L6.39017 3.92236C5.80826 3.69856 5.20056 4.18355 5.28979 4.80066C5.54487 7.44963 5.80679 10.0085 6.1863 11C0.989102 21.7001 4.18493 32.4315 11.1027 36.3674H0.357422V40.0045H31.6469V36.3674H21.2267Z" fill="#502D17"/>
<path d="M16.0955 13.0751C18.089 8.14382 22.4859 7.50985 25.6082 10.6619C28.1997 13.2781 28.2662 20.4895 21.9711 21.8184C28.3711 27.1343 23.9995 36.1574 16.69 36.1574C9.34566 36.0525 4.65921 27.2043 11.4791 21.7485C5.11388 22.0283 4.02829 15.3733 6.33796 11.5363C8.45 8.02747 14.5567 7.47941 16.0955 13.0751Z" fill="white"/>
<path d="M18.9983 19.7549C19.1772 19.4969 19.1678 19.1562 18.9856 18.9006C18.3751 18.045 17.5008 17.3417 16.2354 17.3417C14.9365 17.3417 14.1647 18.0472 13.455 18.9855C13.2697 19.2303 13.2568 19.5686 13.4261 19.8247C13.9591 20.6307 14.8764 21.3776 15.9131 22.1439C16.1039 22.2849 16.3642 22.2805 16.5505 22.1335C17.5251 21.3638 18.4353 20.5669 18.9983 19.7549Z" fill="#FF7F2B"/>
<path d="M23.5098 14.987C23.5098 17.2759 22.0035 19.0847 20.2747 19.0847C18.546 19.0847 17.1447 17.2292 17.1447 14.9403C17.1447 12.6515 18.546 10.796 20.2747 10.796C22.0035 10.796 23.5098 12.6981 23.5098 14.987ZM14.9996 15.395C14.9996 17.6839 13.4933 19.4927 11.7646 19.4927C10.0358 19.4927 8.63452 17.6372 8.63452 15.3483C8.63452 13.0595 10.0358 11.204 11.7646 11.204C13.4933 11.204 14.9996 13.1061 14.9996 15.395Z" fill="#B1DFEC"/>
<path d="M22.3089 15.4766C22.3089 16.977 21.3712 18.1821 20.2864 18.1821C19.2015 18.1821 18.2754 16.9654 18.2754 15.465C18.2754 13.9645 19.2015 12.7487 20.2864 12.7487C21.3712 12.7487 22.3089 13.9762 22.3089 15.4766ZM13.8687 15.43C13.8687 16.9304 12.931 18.1355 11.8462 18.1355C10.7613 18.1355 9.83521 16.9188 9.83521 15.4183C9.83521 13.9179 10.7613 12.702 11.8462 12.702C12.931 12.702 13.8687 13.9295 13.8687 15.43Z" fill="black"/>
<path d="M20.7469 14.1708C20.7469 14.628 20.3816 14.9985 19.9308 14.9985C19.4802 14.9985 19.1148 14.628 19.1148 14.1708C19.1148 13.7137 19.4802 13.3431 19.9308 13.3431C20.3816 13.3431 20.7469 13.7137 20.7469 14.1708ZM12.9245 14.1242C12.9245 14.5813 12.5592 14.9519 12.1085 14.9519C11.6578 14.9519 11.2925 14.5813 11.2925 14.1242C11.2925 13.6671 11.6578 13.2965 12.1085 13.2965C12.5592 13.2965 12.9245 13.6671 12.9245 14.1242Z" fill="white"/>
<path d="M9.27549 38.1043C9.27549 38.1043 9.25215 39.0952 9.91668 39.1069C10.125 39.7328 10.8606 39.7295 10.9776 39.1884H11.8169C11.8169 39.1884 11.7353 39.6197 12.2366 39.6081C12.7379 39.5965 12.6912 39.1535 12.6912 39.1535H13.4839C13.4839 39.1535 13.3673 39.6081 13.8803 39.6081C14.3933 39.6081 14.3686 39.0872 14.3686 39.0872C14.6568 38.9061 14.9936 38.9204 14.9936 38.3607C14.9936 38.2389 14.9644 38.1059 14.9083 37.9681C14.6045 37.2226 13.5114 36.338 11.9801 36.3323C10.9975 36.3388 10.0818 36.9381 9.47362 37.5273C9.2871 37.7079 9.27549 38.1043 9.27549 38.1043ZM23.148 38.1043C23.148 38.1043 23.1483 39.1301 22.4837 39.1418C22.379 39.7363 21.5237 39.7294 21.446 39.1884H20.6066C20.6066 39.1884 20.6649 39.6197 20.1637 39.6081C19.6623 39.5965 19.7323 39.1535 19.7323 39.1535H18.9396C18.9396 39.1535 19.0328 39.6081 18.5199 39.6081C18.0069 39.6081 18.0549 39.0872 18.0549 39.0872C17.7667 38.9061 17.4299 38.9204 17.4299 38.3607C17.4299 38.2389 17.4591 38.1059 17.5152 37.9681C17.819 37.2226 18.9121 36.338 20.4434 36.3323C21.426 36.3388 22.252 36.9319 22.8917 37.4864C23.1483 37.7546 23.148 38.1043 23.148 38.1043Z" fill="#FF7F2B"/>
</g>
<defs>
<clipPath id="clip0_202_15519">
<rect width="32" height="41" fill="white"/>
</clipPath>
</defs>
</svg>
