<svg width="36" height="37" viewBox="0 0 36 37" fill="none" xmlns="http://www.w3.org/2000/svg">
<g clip-path="url(#clip0_202_13962)">
<path d="M26.9898 0.00439453L17.979 6.06084L18.0117 6.25692L26.7648 12.0922L26.9898 12.0978L27.1024 11.9072L27.1241 0.269066L26.9898 0.00439453Z" fill="#138EE2"/>
<path d="M8.873 24.4417L8.84326 35.4116L9.07104 35.9577L18.0372 30.0095L17.9751 29.6894L9.73279 24.1748L9.07104 24.0044L8.873 24.4417Z" fill="#00BDFF"/>
<path d="M26.9894 0.00439453V12.0978L9.1528 0.144374L9.04199 0.640616L35.26 29.808L35.9543 30.0628V6.00431L26.9894 0.00439453Z" fill="#00BDFF"/>
<path d="M0.0478516 6.02763V29.981L9.07122 35.9577V24.0044L26.9895 36.0044L35.9078 30.0277L9.15285 0.144409L0.0478516 6.02763Z" fill="#00E1FF"/>
</g>
<defs>
<clipPath id="clip0_202_13962">
<rect width="36" height="37" fill="white"/>
</clipPath>
</defs>
</svg>
