<svg width="36" height="36" viewBox="0 0 36 36" fill="none" xmlns="http://www.w3.org/2000/svg">
<g clip-path="url(#clip0_202_10203)">
<path d="M36.001 0.000915527H0.000976562V36.0009H36.001V0.000915527Z" fill="#F7DF1E"/>
<path d="M30.9558 21.1296H18.8738C17.6343 21.1296 16.6296 22.193 16.6296 23.458V29.8897H33.1192V23.458C33.1192 22.193 32.1955 21.1296 30.9558 21.1296ZM21.201 26.3556C20.3853 26.3556 19.7242 25.6807 19.7242 24.8483C19.7242 24.0159 20.3853 23.3409 21.201 23.3409C22.0168 23.3409 22.6777 24.0159 22.6777 24.8483C22.6777 25.6807 22.0168 26.3556 21.201 26.3556ZM28.7538 26.3556C27.9382 26.3556 27.2769 25.6807 27.2769 24.8483C27.2769 24.0159 27.9382 23.3409 28.7538 23.3409C29.5692 23.3409 30.2305 24.0159 30.2305 24.8483C30.2305 25.6807 29.5692 26.3556 28.7538 26.3556Z" fill="#2E2E2C"/>
<path d="M19.7505 30.481H29.9527C30.2454 30.481 30.4823 30.7231 30.4823 31.0216C30.4823 31.3203 30.2454 31.5623 29.9527 31.5623H19.7505C19.4579 31.5623 19.2207 31.3203 19.2207 31.0216C19.2207 30.7232 19.4579 30.481 19.7505 30.481Z" fill="#2E2E2C"/>
<path d="M21.4757 32.0623H28.3189C28.6116 32.0623 28.8486 32.3045 28.8486 32.6032C28.8486 32.9019 28.6116 33.1438 28.3189 33.1438H21.4757C21.1832 33.1438 20.946 32.9019 20.946 32.6032C20.946 32.3045 21.1832 32.0623 21.4757 32.0623Z" fill="#2E2E2C"/>
<path d="M26.1132 17.0776C26.1132 16.4695 25.6458 15.9766 25.05 15.9766C24.4546 15.9766 24.0158 16.4695 24.0158 17.0776C24.0158 17.4556 24.1874 17.789 24.5309 17.9873V19.8607C24.5309 20.1818 24.732 20.4418 25.0462 20.4418C25.3607 20.4418 25.5615 20.1818 25.5615 19.8607V18.0185C25.905 17.8255 26.1132 17.4769 26.1132 17.0776Z" fill="#2E2E2C"/>
</g>
<defs>
<clipPath id="clip0_202_10203">
<rect width="36.001" height="36.0009" fill="white"/>
</clipPath>
</defs>
</svg>
