<svg width="32" height="37" viewBox="0 0 32 37" fill="none" xmlns="http://www.w3.org/2000/svg">
<g clip-path="url(#clip0_202_8661)">
<path d="M16.0021 36.0045C15.506 36.0045 15.043 35.8722 14.613 35.6407L10.2143 33.0279C9.55287 32.6641 9.8836 32.5318 10.082 32.4657C10.975 32.168 11.1404 32.1019 12.0664 31.5727C12.1656 31.5066 12.2979 31.5397 12.3971 31.6058L15.7706 33.6233C15.9029 33.6894 16.0683 33.6894 16.1675 33.6233L29.3636 25.9834C29.4959 25.9172 29.5621 25.7849 29.5621 25.6196V10.3729C29.5621 10.2075 29.4959 10.0753 29.3636 10.0091L16.1675 2.40231C16.0352 2.33617 15.8698 2.33617 15.7706 2.40231L2.57446 10.0091C2.44216 10.0753 2.37602 10.2406 2.37602 10.3729V25.6196C2.37602 25.7519 2.44216 25.9172 2.57446 25.9834L6.17942 28.067C8.13073 29.0592 9.35443 27.9016 9.35443 26.7441V11.6958C9.35443 11.4974 9.51979 11.299 9.7513 11.299H11.438C11.6365 11.299 11.8349 11.4643 11.8349 11.6958V26.7441C11.8349 29.3568 10.4128 30.8782 7.93229 30.8782C7.17161 30.8782 6.57629 30.8782 4.88957 30.0514L1.4169 28.067C0.557001 27.5709 0.027832 26.6448 0.027832 25.6527V10.406C0.027832 9.4138 0.557001 8.48775 1.4169 7.99165L14.613 0.351783C15.4399 -0.111239 16.5644 -0.111239 17.3912 0.351783L30.5873 7.99165C31.4472 8.48775 31.9764 9.4138 31.9764 10.406V25.6527C31.9764 26.6448 31.4472 27.5709 30.5873 28.067L17.3912 35.7069C16.9612 35.9053 16.4651 36.0045 16.0021 36.0045ZM20.0701 25.5204C14.2823 25.5204 13.0917 22.8745 13.0917 20.6256C13.0917 20.4271 13.257 20.2287 13.4886 20.2287H15.2084C15.4068 20.2287 15.5722 20.361 15.5722 20.5594C15.8367 22.3123 16.5974 23.1722 20.1032 23.1722C22.8813 23.1722 24.0719 22.5438 24.0719 21.0555C24.0719 20.1956 23.7412 19.5672 19.4086 19.1373C15.8037 18.7735 13.5547 17.9797 13.5547 15.1024C13.5547 12.4234 15.8037 10.8359 19.574 10.8359C23.8073 10.8359 25.8909 12.2912 26.1555 15.4662C26.1555 15.5654 26.1225 15.6646 26.0563 15.7638C25.9902 15.83 25.8909 15.8961 25.7917 15.8961H24.0719C23.9066 15.8961 23.7412 15.7638 23.7081 15.5985C23.3112 13.7794 22.286 13.1841 19.574 13.1841C16.5313 13.1841 16.1675 14.2425 16.1675 15.0362C16.1675 15.9953 16.5974 16.293 20.6985 16.8222C24.7665 17.3513 26.6847 18.112 26.6847 20.9563C26.6516 23.8667 24.2704 25.5204 20.0701 25.5204Z" fill="#539E43"/>
</g>
<defs>
<clipPath id="clip0_202_8661">
<rect width="32" height="37" fill="white"/>
</clipPath>
</defs>
</svg>
