<svg width="32" height="36" viewBox="0 0 32 36" fill="none" xmlns="http://www.w3.org/2000/svg">
<g clip-path="url(#clip0_202_9165)">
<path d="M16.0025 35.5743C15.6613 35.5743 15.3485 35.489 15.121 35.3753L1.3864 27.4701C0.902987 27.1857 0.504883 26.4748 0.504883 25.9345V10.0672C0.504883 9.52695 0.931423 8.81605 1.3864 8.53169L15.121 0.626481C15.3485 0.484301 15.6613 0.427429 16.0025 0.427429C16.3437 0.427429 16.6565 0.512737 16.884 0.626481L30.5902 8.56013C31.0736 8.84449 31.4717 9.55539 31.4717 10.0957V25.9345C31.4717 26.4748 31.0452 27.1857 30.5902 27.4701L16.884 35.4037C16.6565 35.5175 16.3437 35.5743 16.0025 35.5743Z" fill="#3D3B47"/>
<path d="M16.0023 0.853996C16.2582 0.853996 16.5141 0.910868 16.6848 0.996176L30.3909 8.90139C30.7322 9.10044 31.0734 9.66916 31.0734 10.0673V25.9061C31.0734 26.3042 30.7322 26.873 30.3909 27.072L16.6848 35.0057C16.5141 35.091 16.2582 35.1478 16.0023 35.1478C15.7464 35.1478 15.4904 35.091 15.3198 35.0057L1.61367 27.1004C1.27244 26.9014 0.931206 26.3327 0.931206 25.9346V10.0673C0.931206 9.66916 1.27244 9.10044 1.61367 8.90139L15.3198 0.996176C15.4904 0.910868 15.7464 0.853996 16.0023 0.853996ZM16.0023 0.000915527C15.6042 0.000915527 15.2061 0.0862236 14.8933 0.25684L1.18713 8.16205C0.589973 8.53172 0.078125 9.3848 0.078125 10.0673V25.9061C0.078125 26.617 0.561537 27.4701 1.18713 27.8113L14.8933 35.745C15.2061 35.9156 15.6042 36.0009 16.0023 36.0009C16.4004 36.0009 16.7985 35.9156 17.1113 35.745L30.8175 27.8113C31.4146 27.4701 31.9265 26.617 31.9265 25.9061V10.0673C31.9265 9.35637 31.4431 8.50329 30.8175 8.16205L17.1113 0.25684C16.7985 0.0862236 16.4004 0.000915527 16.0023 0.000915527Z" fill="#CCCCCC"/>
<path d="M16.0022 16.7782H16.0875C16.4856 16.8066 16.8553 17.0341 17.0827 17.3753C17.1965 17.5744 17.2534 17.8303 17.2534 18.0862C17.1965 18.7403 16.6846 19.2237 16.0306 19.2237H15.9453C15.5472 19.1952 15.1775 18.9678 14.95 18.6265C14.8363 18.4275 14.7794 18.1715 14.7794 17.9156C14.8079 17.29 15.3481 16.7782 16.0022 16.7782ZM16.0022 16.6929C15.3197 16.6929 14.751 17.2332 14.6941 17.9156C14.6657 18.1715 14.7226 18.4275 14.8647 18.655C15.0922 19.0246 15.4619 19.2805 15.9169 19.309H16.0022C16.6846 19.309 17.2534 18.7687 17.3102 18.0862C17.3387 17.8303 17.2534 17.5744 17.1396 17.3469C16.9121 16.9772 16.5425 16.7213 16.0875 16.6929H16.0022Z" fill="#EFF3F3"/>
<path d="M16.0309 17.5744C16.2584 17.6029 16.4575 17.8019 16.429 18.0294C16.4006 18.2569 16.2016 18.4559 15.9741 18.4275C15.7466 18.3991 15.5475 18.2 15.576 17.9725C15.576 17.745 15.8034 17.546 16.0309 17.5744Z" fill="#EFF3F3"/>
<path d="M16.0021 19.7355H15.8883C15.3196 19.7071 14.7793 19.3658 14.495 18.8824C14.3244 18.5696 14.239 18.2284 14.2675 17.8871C14.2959 17.489 14.4665 17.1194 14.7225 16.835V16.8066L3.49023 25.3658L16.4002 19.6786C16.258 19.7071 16.1443 19.7355 16.0021 19.7355Z" fill="#EFF3F3"/>
<path d="M15.5757 16.3233C15.7463 16.2949 15.9169 16.2664 16.116 16.2664C16.6847 16.2949 17.225 16.6361 17.5093 17.1195C17.6799 17.4323 17.7653 17.7735 17.7368 18.1148C17.7084 18.5413 17.5378 18.911 17.2534 19.1953L28.5994 10.8351L15.5757 16.3233Z" fill="#0977F7"/>
</g>
<defs>
<clipPath id="clip0_202_9165">
<rect width="32" height="36.0009" fill="white"/>
</clipPath>
</defs>
</svg>
