<svg width="32" height="36" viewBox="0 0 32 36" fill="none" xmlns="http://www.w3.org/2000/svg">
<g clip-path="url(#clip0_202_9913)">
<path d="M15.1476 35.7725C15.6744 36.077 16.3241 36.077 16.8509 35.7725L30.9623 27.6296C31.49 27.3254 31.8148 26.7628 31.8148 26.1534V9.85497C31.8148 9.24599 31.4898 8.6838 30.9631 8.37883L16.8519 0.229284C16.3241 -0.0752073 15.6744 -0.0752073 15.1467 0.229284L1.03916 8.37883C0.511944 8.68368 0.187012 9.24611 0.187012 9.85497V26.1543C0.187012 26.7628 0.511944 27.3252 1.03952 27.6295L15.1475 35.7724" fill="#76D04B"/>
<path d="M25.1365 14.1159L24.5072 13.7537C25.4749 12.3264 26.0532 10.1804 25.328 6.97211C25.328 6.97211 23.6951 11.5487 20.4125 11.3971L16.5688 9.18519C16.4238 9.09917 16.2614 9.05487 16.0971 9.04813H16.0085C15.8446 9.05498 15.6824 9.09929 15.5354 9.18519L11.6914 11.3971C8.40909 11.5492 6.77557 6.97211 6.77557 6.97211C6.05008 10.1803 6.62929 12.3263 7.59676 13.7537L6.96757 14.116C6.64796 14.3002 6.44922 14.6423 6.44922 15.0154L6.46812 28.2919C6.46812 28.4772 6.56407 28.6488 6.72665 28.7389C6.88546 28.8349 7.08207 28.8349 7.24064 28.7389L12.3325 25.8233C12.6547 25.6319 12.8506 25.2943 12.8506 24.9253V18.7229C12.8506 18.353 13.0465 18.0101 13.3673 17.8269L15.5355 16.5783C15.697 16.4842 15.8738 16.4385 16.0542 16.4385C16.2306 16.4385 16.412 16.4842 16.569 16.5782L18.7365 17.8267C19.0574 18.0099 19.254 18.3529 19.254 18.7226V24.925C19.254 25.2941 19.4526 25.6342 19.7728 25.823L24.8633 28.7387C25.0231 28.8344 25.2225 28.8344 25.3809 28.7387C25.5386 28.6485 25.6379 28.4769 25.6379 28.2916L25.6544 15.0151C25.654 14.6417 25.4583 14.2996 25.1366 14.1157L25.1365 14.1159Z" fill="#4F4D3F"/>
</g>
<defs>
<clipPath id="clip0_202_9913">
<rect width="32" height="36.0009" fill="white"/>
</clipPath>
</defs>
</svg>
