<svg width="34" height="36" viewBox="0 0 34 36" fill="none" xmlns="http://www.w3.org/2000/svg">
<g clip-path="url(#clip0_202_10245)">
<path d="M12.9086 7.6214L17.0048 5.25644L21.1011 7.6214V13.4025L25.6525 16.0302V4.99367L17.0048 0.000915527L8.35718 4.99367V16.0302L12.9086 13.4025V7.6214Z" fill="#0000AA"/>
<path d="M24.7419 16.556L17.0046 21.0231L9.26721 16.556L17.0046 12.0888L24.7419 16.556Z" fill="#00AAAA"/>
<path d="M8.35715 17.081L0.164673 21.8109V31.2708L8.35715 36.0006L16.5497 31.2708V21.8109L8.35715 17.081ZM8.35715 21.2854L12.9085 23.9131V29.1686L8.35715 31.7963L3.80578 29.1686V23.9131L8.35715 21.2854Z" fill="#0000AA"/>
<path d="M25.6526 31.7964L21.1012 29.1686V28.1176L17.4601 26.0154V31.2709L25.6526 36.0007L33.8451 31.2709V29.1686L22.9218 22.862L25.6526 21.2854L30.204 23.9132V24.9642L33.8451 27.0664V21.811L25.6526 17.081L17.4601 21.811V23.9132L28.3834 30.2198L25.6526 31.7964Z" fill="#0000AA"/>
</g>
<defs>
<clipPath id="clip0_202_10245">
<rect width="34" height="36.0007" fill="white"/>
</clipPath>
</defs>
</svg>
