<svg width="35" height="36" viewBox="0 0 35 36" fill="none" xmlns="http://www.w3.org/2000/svg">
<path fill-rule="evenodd" clip-rule="evenodd" d="M22.1583 0.0820984L2.1786 1.55233C0.567545 1.69175 0.00610352 2.742 0.00610352 4.00109V25.838C0.00610352 26.8191 0.35607 27.6576 1.19766 28.7784L5.89435 34.8676C6.66581 35.8481 7.36692 36.0578 8.84004 35.9876L32.0424 34.5876C34.0048 34.4483 34.5661 33.5377 34.5661 31.9981V7.43095C34.5661 6.63506 34.2509 6.40515 33.3219 5.7274C33.2708 5.69011 33.2178 5.65147 33.163 5.61131L26.7852 1.13206C25.2431 0.0126749 24.6118 -0.12818 22.1583 0.0820984ZM9.36613 7.02799C7.4718 7.15581 7.04136 7.18486 5.9656 6.31158L3.22995 4.14193C2.95093 3.86137 3.09087 3.51139 3.79137 3.44198L22.9996 2.04202C24.6116 1.90174 25.4526 2.46258 26.0838 2.95228L29.3784 5.33218C29.5186 5.40189 29.8685 5.8213 29.4478 5.8213L9.61067 7.01156L9.36613 7.02799ZM7.1566 31.7877V10.9311C7.1566 10.0214 7.43702 9.60117 8.27775 9.53058L31.06 8.20121C31.8327 8.13122 32.1826 8.62149 32.1826 9.53058V30.2472C32.1826 31.1577 32.0421 31.9287 30.7798 31.9981L8.97883 33.2586C7.71716 33.3279 7.1566 32.9086 7.1566 31.7877ZM28.6784 12.0499C28.8182 12.6805 28.6784 13.3104 28.0463 13.3813L26.9958 13.5904V28.9881C26.0838 29.4779 25.2428 29.7579 24.542 29.7579C23.42 29.7579 23.139 29.4077 22.2986 28.3584L15.4277 17.58V28.0084L17.6019 28.4987C17.6019 28.4987 17.6019 29.7579 15.8477 29.7579L11.012 30.0382C10.8715 29.7579 11.012 29.0586 11.5025 28.9185L12.7644 28.569V14.7807L11.0123 14.6404C10.8718 14.0099 11.2217 13.1007 12.2038 13.0302L17.3915 12.6807L24.542 23.5995V13.9404L22.7189 13.7313C22.579 12.9605 23.139 12.4008 23.8401 12.3313L28.6784 12.0499Z" fill="#1E2226"/>
</svg>
