<svg width="36" height="36" viewBox="0 0 36 36" fill="none" xmlns="http://www.w3.org/2000/svg">
<g clip-path="url(#clip0_202_15696)">
<path d="M36.0005 26.1672C36.0005 31.5978 31.5982 36 26.1677 36H9.83327C4.40275 36 0.000488281 31.5978 0.000488281 26.1672V9.83281C0.000488281 4.4023 4.40275 3.05176e-05 9.83327 3.05176e-05H26.1677C31.5982 3.05176e-05 36.0005 4.4023 36.0005 9.83281V26.1672Z" fill="#17B6A7"/>
<path d="M20.5799 7.9003C19.8937 7.9003 19.7004 8.32428 20.15 8.84249L27.417 17.218C27.8666 17.7362 28.2345 17.5988 28.2345 16.9127V9.14764C28.2345 8.46167 27.6731 7.9003 26.9871 7.9003H20.5799Z" fill="white"/>
<path d="M9.01351 7.9003C8.3274 7.9003 7.76617 8.46167 7.76617 9.14764V13.7617C7.76617 14.4478 8.13123 15.4356 8.57744 15.9567L18.1624 27.1521C18.6086 27.6733 19.5351 28.0997 20.2212 28.0997H26.9871C27.6732 28.0997 28.2344 27.5383 28.2344 26.8523V21.9437C28.2344 21.2576 27.8651 20.2736 27.4136 19.757L17.8733 8.83953C17.4218 8.32302 16.4911 7.9003 15.805 7.9003H9.01351Z" fill="white"/>
<path d="M7.76611 26.8523C7.76611 27.5384 8.32749 28.0996 9.01346 28.0996H15.408C16.0941 28.0996 16.2909 27.6727 15.8456 27.1509L8.57597 18.635C8.13061 18.1131 7.76611 18.2476 7.76611 18.9337V26.8523Z" fill="white"/>
</g>
<defs>
<clipPath id="clip0_202_15696">
<rect width="36.0005" height="36" fill="white"/>
</clipPath>
</defs>
</svg>
