<svg width="41" height="24" viewBox="0 0 41 24" fill="none" xmlns="http://www.w3.org/2000/svg">
<g clip-path="url(#clip0_202_8517)">
<path fill-rule="evenodd" clip-rule="evenodd" d="M28.5311 17.7372C25.7374 17.5902 23.2369 16.7077 20.8842 15.3846C18.3842 14.0611 17.2081 13.1786 17.0606 13.032V13.62C16.9136 13.767 17.6491 14.6496 18.9727 16.2671C20.2962 17.8847 22.3548 19.5027 25.0023 21.1198C27.649 22.7379 30.8841 23.6199 34.8548 23.7669H38.5309C39.4135 23.6199 39.8549 23.1789 40.002 22.4434V12.7375C39.8549 11.855 39.4135 11.414 38.5309 11.267H28.5315V17.7372H28.5311ZM23.0894 10.9729V10.5315L20.8838 7.88436C19.5602 6.26679 17.6487 4.50221 15.0016 2.88464C12.207 1.26707 8.97186 0.38456 5.14868 0.237549H1.47251C0.589996 0.38456 0.148964 0.826043 0.00195312 1.56155V11.267C0.148964 12.1495 0.589996 12.5905 1.47251 12.7375H11.4724V6.26679C14.2665 6.4138 16.7666 7.29632 19.1192 8.61987L23.0894 10.9729Z" fill="#4E6994"/>
</g>
<defs>
<clipPath id="clip0_202_8517">
<rect width="41" height="24" fill="white"/>
</clipPath>
</defs>
</svg>
