<svg width="34" height="36" viewBox="0 0 34 36" fill="none" xmlns="http://www.w3.org/2000/svg">
<g clip-path="url(#clip0_202_9771)">
<path d="M25.3632 24.5121L25.3711 32.4748L18.305 36.0009V28.0416L25.3632 24.5121ZM33.8435 20.2562V28.2469L27.8169 31.2546L27.8125 23.3005L33.8435 20.2562ZM25.3528 13.8538L25.3606 21.7331L18.305 25.2392V17.3573L25.3528 13.8538ZM33.8435 9.63281V17.4625L27.8108 20.5294L27.8056 12.6344L33.8435 9.63281ZM17.2308 8.7065L23.5376 11.8899L16.9943 15.1759L10.8067 12.0682L17.2308 8.7065ZM8.45828 4.27847L14.4736 7.31486L8.0347 10.6757L1.85669 7.57318L8.45828 4.27847ZM25.6537 4.32457L32.1327 7.57318L26.3383 10.4834L20.0185 7.29572L25.6537 4.32457ZM17.0325 0.000915527L22.8652 2.9251L17.2726 5.91104L11.2624 2.87987L17.0325 0.000915527Z" fill="#4DABCF"/>
<path d="M15.8103 17.3576L11.0509 14.9649V25.3074C11.0509 25.3074 5.23032 12.9226 4.69106 11.8102C4.62148 11.6667 4.33532 11.5093 4.26226 11.471C3.21853 10.923 0.1604 9.37396 0.1604 9.37396V27.6462L4.39099 29.9076V20.3566C4.39099 20.3566 10.1498 31.4228 10.208 31.5437C10.2663 31.6646 10.8447 32.8309 11.4623 33.2406C12.2851 33.7851 15.8111 35.9056 15.8111 35.9056L15.8103 17.3576Z" fill="#4D77CF"/>
</g>
<defs>
<clipPath id="clip0_202_9771">
<rect width="34" height="36.0009" fill="white"/>
</clipPath>
</defs>
</svg>
