<svg width="36" height="36" viewBox="0 0 36 36" fill="none" xmlns="http://www.w3.org/2000/svg">
<g clip-path="url(#clip0_202_14576)">
<path d="M16.7104 0.0526399C24.6665 -0.499028 29.9417 3.39433 32.958 8.13794C34.4704 10.5164 35.9543 14.1287 35.9612 17.8403C35.9685 21.873 34.6621 25.3653 32.958 27.9277C31.2066 30.5614 28.9414 32.7367 26.1048 34.165C21.3632 36.5526 14.7366 36.6179 10.3961 34.319C5.56233 31.7588 1.84578 28.1046 0.462768 21.7675C-0.0907004 19.2314 -0.154317 15.9546 0.616769 13.1432C0.797717 12.4836 1.12655 11.7896 1.38683 11.1411C2.63769 8.02481 4.76676 5.31497 7.39306 3.44073C8.44838 2.68764 9.72865 1.93864 10.8582 1.43865C12.2637 0.816584 14.63 0.196858 16.7104 0.0526399Z" fill="white"/>
<path d="M31.8022 18.2887C31.8022 25.808 25.7066 31.9032 18.1874 31.9032C10.6682 31.9032 4.57275 25.808 4.57275 18.2887C4.57275 10.7696 10.6682 4.67398 18.1874 4.67398C25.7065 4.67398 31.8022 10.7696 31.8022 18.2887Z" fill="black"/>
<path d="M16.7104 0.0526399C24.6665 -0.499028 29.9417 3.39433 32.958 8.13794C34.4704 10.5164 35.9543 14.1287 35.9612 17.8403C35.9685 21.873 34.6621 25.3653 32.958 27.9277C31.2066 30.5614 28.9414 32.7367 26.1048 34.165C21.3632 36.5526 14.7366 36.6179 10.3961 34.319C5.56233 31.7588 1.84578 28.1046 0.462768 21.7675C-0.0907004 19.2314 -0.154317 15.9546 0.616769 13.1432C0.797717 12.4836 1.12655 11.7896 1.38683 11.1411C2.63769 8.02481 4.76676 5.31497 7.39306 3.44073C8.44838 2.68764 9.72865 1.93864 10.8582 1.43865C12.2637 0.816584 14.63 0.196858 16.7104 0.0526399ZM14.0153 1.36171C11.0602 2.12788 8.8934 3.5005 7.00806 4.98086C4.28939 7.11551 2.55625 10.0944 1.54084 13.6822C0.411154 17.6737 1.13681 22.5039 2.6959 25.5406C4.31268 28.6898 6.48352 31.1343 9.54914 32.8559C12.5316 34.5308 16.7265 35.6063 21.0996 34.781C24.9851 34.0477 27.936 32.3551 30.34 29.8528C33.5564 26.5048 36.1415 20.3382 34.4212 13.8362C33.9614 12.0984 33.3602 10.2872 32.4191 8.75395C31.9106 7.92561 31.1645 7.11071 30.417 6.28987C27.5959 3.19178 23.0363 0.522085 17.1724 0.899646C16.0565 0.971486 15.0758 1.08672 14.0153 1.36171Z" fill="black"/>
<path d="M19.0531 34.6595L34.7856 18.9274L34.7007 18.8425L18.9682 34.5746L19.0531 34.6595Z" fill="white"/>
<path d="M17.6778 33.4135L33.4789 17.6128L33.394 17.5279L17.5929 33.3287L17.6778 33.4135Z" fill="white"/>
<path d="M16.3024 32.1678L32.1722 16.2982L32.0873 16.2134L16.2175 32.0829L16.3024 32.1678Z" fill="white"/>
<path d="M14.927 30.9219L30.8655 14.9837L30.7806 14.8988L14.8421 30.837L14.927 30.9219Z" fill="white"/>
<path d="M13.5517 29.676L29.5588 13.6691L29.4739 13.5842L13.4668 29.5911L13.5517 29.676Z" fill="white"/>
<path d="M12.1763 28.4304L28.252 12.3546L28.1671 12.2697L12.0914 28.3455L12.1763 28.4304Z" fill="white"/>
<path d="M10.8009 27.1842L26.9453 11.04L26.8605 10.9552L10.716 27.0994L10.8009 27.1842Z" fill="white"/>
<path d="M9.42552 25.9384L25.6386 9.72545L25.5537 9.64058L9.34064 25.8535L9.42552 25.9384Z" fill="white"/>
<path d="M8.05013 24.6925L24.3315 8.41092L24.2467 8.32605L7.96526 24.6076L8.05013 24.6925Z" fill="white"/>
<path d="M6.6748 23.4466L23.0252 7.09639L22.9403 7.01151L6.58993 23.3617L6.6748 23.4466Z" fill="white"/>
<path d="M5.29942 22.2008L21.7184 5.78186L21.6336 5.69698L5.21454 22.1159L5.29942 22.2008Z" fill="white"/>
<path d="M3.92403 20.9549L20.4118 4.46727L20.3269 4.38239L3.83915 20.87L3.92403 20.9549Z" fill="white"/>
<path d="M2.54864 19.7089L19.105 3.15273L19.0202 3.06786L2.46377 19.6241L2.54864 19.7089Z" fill="white"/>
<path d="M1.17325 18.4631L17.7983 1.8382L17.7134 1.75333L1.08838 18.3782L1.17325 18.4631Z" fill="white"/>
<path d="M1.0835 18.6223L17.1303 34.6698L17.2152 34.585L1.16837 18.5374L1.0835 18.6223Z" fill="white"/>
<path d="M2.38482 17.3023L18.4629 33.3812L18.5478 33.2963L2.4697 17.2175L2.38482 17.3023Z" fill="white"/>
<path d="M3.68615 15.9824L19.7954 32.0924L19.8803 32.0075L3.77103 15.8975L3.68615 15.9824Z" fill="white"/>
<path d="M4.98748 14.6625L21.128 30.8037L21.2129 30.7189L5.07236 14.5776L4.98748 14.6625Z" fill="white"/>
<path d="M6.28875 13.3425L22.4605 29.5149L22.5454 29.4301L6.37363 13.2577L6.28875 13.3425Z" fill="white"/>
<path d="M7.59008 12.0226L23.7931 28.2262L23.878 28.1413L7.67495 11.9377L7.59008 12.0226Z" fill="white"/>
<path d="M8.8914 10.7027L25.1257 26.9375L25.2106 26.8526L8.97628 10.6178L8.8914 10.7027Z" fill="white"/>
<path d="M10.1927 9.38274L26.4582 25.6487L26.5431 25.5638L10.2775 9.29786L10.1927 9.38274Z" fill="white"/>
<path d="M11.494 8.06281L27.7908 24.36L27.8757 24.2751L11.5789 7.97793L11.494 8.06281Z" fill="white"/>
<path d="M12.7953 6.74287L29.1233 23.0711L29.2082 22.9863L12.8802 6.658L12.7953 6.74287Z" fill="white"/>
<path d="M14.0967 5.42294L30.4559 21.7825L30.5408 21.6977L14.1815 5.33807L14.0967 5.42294Z" fill="white"/>
<path d="M15.3979 4.10301L31.7884 20.4938L31.8733 20.4089L15.4828 4.01813L15.3979 4.10301Z" fill="white"/>
<path d="M16.6993 2.78313L33.121 19.2051L33.2058 19.1202L16.7841 2.69826L16.6993 2.78313Z" fill="white"/>
<path d="M18.0006 1.4632L34.4536 17.9163L34.5384 17.8314L18.0855 1.37833L18.0006 1.4632Z" fill="white"/>
<path d="M29.4933 6.36675C28.0773 4.95079 26.3365 3.67485 24.2571 2.9016C22.1016 2.10009 19.6634 1.42449 16.7878 1.66953C12.207 2.06 8.99072 4.11525 6.54632 6.52075C4.83419 8.20558 3.5463 10.2702 2.69617 12.681C1.44796 16.2208 1.5237 20.3989 2.92718 24.0004C4.12432 27.0725 6.08372 29.5503 8.8564 31.4697C11.463 33.2742 15.204 34.6737 19.4058 34.3189C24.5235 33.8866 28.268 31.2611 30.7252 28.2356C31.354 27.4617 31.9791 26.5868 32.3422 25.5406C32.6981 24.7867 32.8722 24.2742 33.0353 24.0005C33.7178 22.4712 34.0794 20.8576 34.1903 19.0723C34.5315 13.5813 32.4188 9.29235 29.4933 6.36675ZM27.985 23.0961C27.9752 23.117 27.9665 23.1364 27.9563 23.158C27.7024 23.8845 27.2651 24.492 26.8255 25.0295C25.107 27.1303 22.4886 28.9534 18.9097 29.2536C15.9712 29.4999 13.3551 28.5282 11.5323 27.2752C9.94839 26.1863 8.74435 24.8385 7.90005 23.2187C7.84855 23.1212 7.35822 21.9915 7.35678 21.9418C6.6879 19.8671 6.62987 16.5311 7.31639 14.5291C7.77455 13.193 8.53814 11.7473 9.54947 10.602C10.9458 9.02048 12.3432 8.00711 14.5547 7.29082C15.5645 6.96373 16.4684 6.63082 17.7118 6.59781C20.7438 6.51709 23.8313 7.87844 25.4891 9.36989C27.0125 10.7405 28.7488 13.4103 29.1853 15.9151C29.6345 18.4932 29.1551 21.0104 27.985 23.0961Z" fill="black"/>
<path d="M22.7154 25.5692C21.9688 25.5692 21.3136 25.0964 21.0849 24.3927L20.2533 21.8589H16.0933L15.3207 24.3696C15.0875 25.087 14.4273 25.5672 13.6768 25.5672C13.4967 25.5672 13.3177 25.5387 13.1449 25.4827C12.2479 25.2134 11.7387 24.2479 12.0135 23.3317L15.5248 12.2093C15.7528 11.5018 16.424 11.0083 17.1572 11.0083H19.0243C19.7617 11.0083 20.4328 11.4934 20.6564 12.188L24.3491 23.3062C24.6444 24.2153 24.1555 25.1911 23.2598 25.4826C23.0827 25.5401 22.8996 25.5692 22.7154 25.5692Z" fill="white"/>
<path d="M22.7153 25.3291C22.0465 25.3291 21.4606 24.9063 21.2561 24.277L20.4244 21.7427L20.3837 21.6188H20.2533H16.0933H15.9603L15.9212 21.7459L15.1486 24.2566C14.9404 24.8969 14.3495 25.3272 13.6768 25.3272C13.5157 25.3272 13.3555 25.3017 13.2004 25.2514C12.395 25.0095 11.9396 24.1445 12.1859 23.3234L15.6964 12.2035C15.9002 11.5712 16.5023 11.1283 17.1572 11.1283H19.0243C19.6838 11.1283 20.2855 11.5632 20.485 12.1832L24.1782 23.303C24.4425 24.1166 24.0049 24.9907 23.204 25.2514C23.045 25.303 22.8806 25.3291 22.7153 25.3291ZM22.7153 25.6892C22.9185 25.6892 23.1204 25.6571 23.3153 25.5938C24.3064 25.2712 24.8461 24.1934 24.5203 23.1906L20.8272 12.0713C20.5802 11.3035 19.8396 10.7682 19.0243 10.7682H17.1572C16.3453 10.7682 15.6052 11.3126 15.3534 12.0941L11.8418 23.2175C11.538 24.2301 12.0996 25.2968 13.0931 25.5951C13.2801 25.6558 13.4778 25.6872 13.6768 25.6872C14.5057 25.6872 15.2347 25.1564 15.4919 24.3652L16.2654 21.8518L16.0933 21.9789H20.2533L20.0822 21.855L20.9138 24.3888C21.1665 25.1664 21.891 25.6892 22.7153 25.6892Z" fill="black"/>
<path d="M8.92482 7.46372L8.92044 7.45778C8.48256 6.85768 8.61106 6.01817 9.25593 5.54753C9.9008 5.07694 10.7292 5.20904 11.1671 5.80908L11.1715 5.81502C11.6093 6.41512 11.4808 7.25468 10.836 7.72527C10.1911 8.19586 9.3627 8.06382 8.92482 7.46372ZM10.5847 6.25242L10.5803 6.24648C10.3603 5.94495 9.95062 5.84125 9.63121 6.07435C9.31475 6.30529 9.29014 6.7167 9.51016 7.01828L9.51454 7.02422C9.73462 7.32574 10.1442 7.42945 10.4607 7.19851C10.7802 6.96541 10.8048 6.554 10.5847 6.25242Z" fill="white"/>
<path d="M13.1465 3.53045L13.8046 3.31931L15.6494 5.46393L14.9174 5.69877L14.5968 5.31647L13.6466 5.62135L13.6118 6.11774L12.8939 6.34808L13.1465 3.53045ZM14.2292 4.84828L13.73 4.236L13.6767 5.02557L14.2292 4.84828Z" fill="white"/>
<path d="M16.8346 4.17562L16.8403 2.72305L17.5685 2.72593L17.5628 4.16374C17.5613 4.53704 17.749 4.71517 18.0374 4.71637C18.3257 4.71751 18.5148 4.54826 18.5162 4.18606L18.522 2.72983L19.2502 2.73272L19.2445 4.1668C19.2412 5.0021 18.763 5.36616 18.0274 5.36322C17.2919 5.36022 16.8314 4.98506 16.8346 4.17562Z" fill="white"/>
<path d="M21.8798 3.92181L21.1375 3.69525L21.3209 3.09431L23.4913 3.75671L23.3078 4.35765L22.5656 4.13115L21.9938 6.00461L21.3081 5.79533L21.8798 3.92181Z" fill="white"/>
<path d="M25.4299 4.59525L26.0268 4.9925L25.4904 5.79864L26.2566 6.30853L26.793 5.50234L27.39 5.89958L25.9566 8.0535L25.3596 7.65625L25.9043 6.83775L25.1381 6.32786L24.5935 7.14636L23.9965 6.74911L25.4299 4.59525Z" fill="white"/>
<path d="M27.5382 28.141L27.5428 28.1468C28.0034 28.7297 27.907 29.5737 27.2805 30.0686C26.6541 30.5635 25.8212 30.4631 25.3606 29.8802L25.356 29.8744C24.8955 29.2914 24.9919 28.4475 25.6183 27.9526C26.2448 27.4578 27.0777 27.558 27.5382 28.141ZM25.9257 29.4149L25.9302 29.4208C26.1616 29.7137 26.575 29.8017 26.8853 29.5565C27.1927 29.3136 27.2017 28.9016 26.9702 28.6086L26.9656 28.6028C26.7343 28.3099 26.3209 28.2219 26.0135 28.4648C25.7031 28.7099 25.6942 29.122 25.9257 29.4149Z" fill="white"/>
<path d="M23.4908 32.24L22.8426 32.4799L20.9052 30.4186L21.6262 30.1517L21.9633 30.5196L22.8992 30.1732L22.9121 29.6758L23.6192 29.414L23.4908 32.24ZM22.3512 30.9712L22.8768 31.5608L22.8954 30.7697L22.3512 30.9712Z" fill="white"/>
<path d="M19.7807 31.7481L19.8447 33.1992L19.1173 33.2313L19.0539 31.7949C19.0374 31.422 18.8413 31.2531 18.5533 31.2658C18.2653 31.2786 18.0844 31.4567 18.1004 31.8186L18.1646 33.2734L17.4372 33.3055L17.374 31.8728C17.3371 31.0384 17.7973 30.6518 18.5321 30.6193C19.2669 30.5869 19.745 30.9394 19.7807 31.7481Z" fill="white"/>
<path d="M14.7263 32.2226L15.4757 32.4249L15.3119 33.0315L13.1207 32.4401L13.2845 31.8333L14.0339 32.0357L14.5444 30.1442L15.2368 30.3311L14.7263 32.2226Z" fill="white"/>
<path d="M11.1841 31.6954L10.569 31.3268L11.0668 30.4961L10.2774 30.023L9.7796 30.8536L9.16455 30.485L10.4947 28.2657L11.1098 28.6344L10.6043 29.4777L11.3938 29.9509L11.8992 29.1075L12.5143 29.4762L11.1841 31.6954Z" fill="white"/>
</g>
<defs>
<clipPath id="clip0_202_14576">
<rect width="36" height="36.0004" fill="white"/>
</clipPath>
</defs>
</svg>
