<svg width="37" height="34" viewBox="0 0 37 34" fill="none" xmlns="http://www.w3.org/2000/svg">
<g clip-path="url(#clip0_202_11460)">
<path d="M22.4228 0.608459C21.0113 0.608459 19.5622 0.969866 18.1943 1.76229L4.25417 9.8381C-1.43158 13.1318 -1.40556 21.3637 4.30057 24.5704L18.3089 32.4424C19.6405 33.1906 21.0472 33.5326 22.4183 33.5326C26.8634 33.5326 30.9401 29.9418 30.9189 24.97L30.8508 9.02233C30.8299 4.1065 26.8118 0.608459 22.4228 0.608459ZM22.4228 1.83035C24.2607 1.83035 26.0858 2.56821 27.4299 3.85465C28.8395 5.2038 29.6205 7.04078 29.6289 9.02753L29.6972 24.9752C29.7054 26.9347 28.959 28.768 27.5957 30.1373C26.2203 31.5185 24.3333 32.3105 22.4183 32.3105C21.1909 32.3105 20.0098 31.9965 18.9076 31.3772L4.89935 23.505C2.61729 22.2228 1.24465 19.8876 1.2275 17.2583C1.21006 14.6042 2.57061 12.2255 4.86659 10.8953L18.8069 2.81965C19.9399 2.16321 21.1564 1.83035 22.4228 1.83035Z" fill="#AF81E0"/>
<path d="M13.3746 0.210083C8.88842 0.210083 4.76318 3.79391 4.76318 8.81956V25.1817C4.76318 30.1965 8.87998 33.7908 13.3717 33.7908C14.7896 33.7908 16.2445 33.4327 17.6195 32.6482L31.6688 24.6321C37.3922 21.3665 37.4644 13.1405 31.7993 9.77525L17.7499 1.42902C16.3404 0.591598 14.8381 0.210083 13.3746 0.210083ZM13.3746 1.43197C14.6937 1.43197 15.9558 1.78438 17.1258 2.47949L31.1752 10.8257C33.4576 12.1816 34.8061 14.5758 34.7829 17.2303C34.7596 19.8849 33.3691 22.2553 31.0634 23.5708L17.014 31.5869C15.872 32.2384 14.6466 32.5687 13.3717 32.5687C11.4844 32.5687 9.60982 31.8092 8.22874 30.4848C6.78199 29.0974 5.98507 27.214 5.98507 25.1817V8.81956C5.98507 4.25642 9.8209 1.43197 13.3746 1.43197Z" fill="#9069C4"/>
<path d="M30.2706 18.4612C30.228 18.4612 30.1878 18.453 30.1463 18.4485L30.8109 17.2978L30.1463 16.1469C30.1876 16.1424 30.228 16.1343 30.2706 16.1343C30.9121 16.1343 31.4338 16.6563 31.4338 17.2978C31.4338 17.9393 30.9121 18.4612 30.2706 18.4612ZM24.2628 25.6539C23.1835 25.6539 22.2727 26.3712 21.9784 27.3547H13.7462C13.4518 26.3712 12.541 25.6539 11.4617 25.6539C11.3117 25.6539 11.1654 25.6695 11.023 25.6959L7.11304 18.9237C7.51101 18.4975 7.75654 17.927 7.75654 17.2978C7.75654 16.6686 7.51115 16.098 7.11304 15.6718L10.958 9.01218C11.1206 9.04706 11.2888 9.06646 11.4617 9.06646C12.586 9.06646 13.5261 8.28768 13.7784 7.24087H22.0484C22.3997 8.12048 23.2578 8.74275 24.2628 8.74275C24.3276 8.74275 24.3913 8.73811 24.455 8.73304L28.4873 15.7173C28.1138 16.1384 27.8852 16.6907 27.8852 17.2978C27.8852 17.9049 28.1138 18.4573 28.4873 18.8783L24.5633 25.6748C24.4646 25.6625 24.3648 25.6539 24.2628 25.6539ZM23.3268 27.3547C23.4521 27.1839 23.6204 27.0472 23.8186 26.9649L23.5934 27.3547H23.3268ZM25.4262 28.0392C25.4262 28.6808 24.9043 29.2027 24.2628 29.2027C23.8162 29.2027 23.432 28.9467 23.2371 28.5766H24.299L25.0842 27.2164C25.2954 27.427 25.4262 27.7181 25.4262 28.0392ZM11.7227 26.9078C11.9985 26.9715 12.2354 27.1334 12.3977 27.3547H11.9806L11.7227 26.9078ZM11.4617 29.2027C10.8203 29.2027 10.2983 28.6808 10.2983 28.0392C10.2983 27.768 10.3955 27.5215 10.5516 27.3235L11.2753 28.5766H12.4874C12.2925 28.9467 11.9083 29.2027 11.4617 29.2027ZM5.37126 18.4612C4.72973 18.4612 4.20787 17.9393 4.20787 17.2978C4.20787 16.6563 4.72973 16.1343 5.37126 16.1343C5.39179 16.1343 5.4112 16.1393 5.43159 16.1405L4.76334 17.2978L5.43145 18.455C5.41106 18.4561 5.39179 18.4612 5.37126 18.4612ZM6.53451 17.2978C6.53451 17.4609 6.5002 17.6159 6.43945 17.7568L6.17423 17.2978L6.43945 16.8387C6.5002 16.9797 6.53451 17.1345 6.53451 17.2978ZM12.4753 7.24087C12.3048 7.54814 12.0026 7.76948 11.6427 7.82629L11.9806 7.24087H12.4753ZM10.2983 6.68104C10.2983 6.03965 10.8203 5.51779 11.4617 5.51779C11.857 5.51779 12.2058 5.71678 12.4161 6.01884H11.2753L10.5093 7.34564C10.3772 7.15692 10.2983 6.9284 10.2983 6.68104ZM23.6528 7.34353C23.6037 7.31315 23.5586 7.27814 23.5145 7.24087H23.5934L23.6528 7.34353ZM24.2628 5.19408C24.9043 5.19408 25.4262 5.71594 25.4262 6.35747C25.4262 6.71479 25.2608 7.03092 25.0066 7.24453L24.299 6.01884H23.1555C23.3015 5.54311 23.7398 5.19408 24.2628 5.19408ZM29.1072 17.2978C29.1072 17.1622 29.1349 17.0341 29.1778 16.9129L29.3998 17.2978L29.1778 17.6826C29.1349 17.5616 29.1072 17.4332 29.1072 17.2978ZM30.2706 14.9125C30.0033 14.9125 29.7469 14.9584 29.507 15.0395L25.6243 8.31454C26.2427 7.88353 26.6481 7.16817 26.6481 6.35747C26.6481 5.04009 25.5802 3.97205 24.2628 3.97205C23.0606 3.97205 22.0691 4.8622 21.9043 6.01884H13.7519C13.4646 5.02406 12.549 4.2959 11.4617 4.2959C10.1444 4.2959 9.07645 5.36381 9.07645 6.68104C9.07645 7.38572 9.38371 8.01698 9.86957 8.45362L6.07888 15.0193C5.85529 14.9498 5.61749 14.9125 5.37126 14.9125C4.05375 14.9125 2.98584 15.9803 2.98584 17.2978C2.98584 18.6152 4.05375 19.6831 5.37126 19.6831C5.61749 19.6831 5.85529 19.6457 6.07888 19.5763L9.91682 26.2238C9.40312 26.6613 9.07645 27.3117 9.07645 28.0392C9.07645 29.3567 10.1444 30.4246 11.4617 30.4246C12.594 30.4246 13.54 29.6348 13.784 28.5766H21.9405C22.1845 29.6348 23.1305 30.4246 24.2628 30.4246C25.5802 30.4246 26.6481 29.3567 26.6481 28.0392C26.6481 27.2645 26.277 26.5778 25.7045 26.1421L29.507 19.556C29.7469 19.6371 30.0033 19.6831 30.2706 19.6831C31.588 19.6831 32.6559 18.6152 32.6559 17.2978C32.6559 15.9803 31.588 14.9125 30.2706 14.9125Z" fill="#825ABA"/>
<path d="M25.6178 6.35738C25.6178 7.10565 25.0112 7.71244 24.2628 7.71244C23.5144 7.71244 22.9077 7.10565 22.9077 6.35738C22.9077 5.60897 23.5144 5.00232 24.2628 5.00232C25.0112 5.00232 25.6178 5.60897 25.6178 6.35738Z" fill="white"/>
<path d="M12.8169 6.68115C12.8169 7.42956 12.2103 8.03622 11.4619 8.03622C10.7134 8.03622 10.1069 7.42956 10.1069 6.68115C10.1069 5.93289 10.7134 5.32623 11.4619 5.32623C12.2103 5.32623 12.8169 5.93289 12.8169 6.68115Z" fill="white"/>
<path d="M6.7261 17.2978C6.7261 18.0462 6.11944 18.6529 5.37103 18.6529C4.62263 18.6529 4.01611 18.0462 4.01611 17.2978C4.01611 16.5495 4.62263 15.9427 5.37103 15.9427C6.11944 15.9427 6.7261 16.5495 6.7261 17.2978Z" fill="white"/>
<path d="M12.8169 28.0393C12.8169 28.7877 12.2103 29.3943 11.4619 29.3943C10.7134 29.3943 10.1069 28.7877 10.1069 28.0393C10.1069 27.291 10.7134 26.6842 11.4619 26.6842C12.2103 26.6842 12.8169 27.291 12.8169 28.0393Z" fill="white"/>
<path d="M25.6178 28.0393C25.6178 28.7877 25.0112 29.3943 24.2628 29.3943C23.5144 29.3943 22.9077 28.7877 22.9077 28.0393C22.9077 27.291 23.5144 26.6842 24.2628 26.6842C25.0112 26.6842 25.6178 27.291 25.6178 28.0393Z" fill="white"/>
<path d="M31.6255 17.2978C31.6255 18.0462 31.0189 18.6529 30.2704 18.6529C29.522 18.6529 28.9155 18.0462 28.9155 17.2978C28.9155 16.5495 29.522 15.9427 30.2704 15.9427C31.0189 15.9427 31.6255 16.5495 31.6255 17.2978Z" fill="white"/>
</g>
<defs>
<clipPath id="clip0_202_11460">
<rect width="37" height="34" fill="white"/>
</clipPath>
</defs>
</svg>
