<svg width="36" height="37" viewBox="0 0 36 37" fill="none" xmlns="http://www.w3.org/2000/svg">
<g clip-path="url(#clip0_202_13968)">
<path d="M3.24935 27.3261C5.96778 25.5793 9.14747 22.5773 7.9376 19.0611C7.27973 17.1405 6.36477 15.492 6.24378 13.4163C6.13491 11.6585 6.3924 9.89721 6.99995 8.24412C9.44616 1.71837 16.6751 -1.37058 23.2047 0.587899C29.254 2.40271 33.413 9.42752 30.91 15.5487C29.462 19.0838 28.8154 21.8211 32.0556 24.5585C32.929 25.3146 35.0538 26.4187 35.0463 27.742C35.0463 29.4736 31.6435 27.3639 31.2654 27.0727C31.6965 27.8289 35.9764 32.2865 33.2542 32.6041C30.7475 32.8953 28.5319 29.3942 27.0271 27.8932C24.4977 25.3676 24.9363 30.9557 24.925 32.1088C24.925 33.9312 23.6206 37.6213 21.3105 35.2167C19.42 33.2317 20.1233 30.0672 18.7962 27.8592C17.3103 25.4432 14.9095 30.2751 14.2856 31.1598C13.6127 32.1466 10.2364 36.9294 8.89037 34.3811C7.80149 32.313 9.54068 29.0879 10.4027 27.1975C10.0889 27.8781 7.87711 28.88 7.23058 29.2089C5.82877 29.9816 4.23928 30.3483 2.64063 30.2676C-0.762133 30.0218 1.84665 28.2183 3.23422 27.3261H3.24935Z" fill="#2F93E0"/>
</g>
<defs>
<clipPath id="clip0_202_13968">
<rect width="36" height="37" fill="white"/>
</clipPath>
</defs>
</svg>
