<svg width="37" height="36" viewBox="0 0 37 36" fill="none" xmlns="http://www.w3.org/2000/svg">
<g clip-path="url(#clip0_202_8417)">
<path d="M8.13846 24.392V25.6796C8.13846 26.6786 8.948 27.4881 9.94697 27.4881H26.0696C27.0686 27.4881 27.8782 26.6786 27.8782 25.6796V24.392H36.0076V32.2743C36.0076 34.1139 34.5025 35.619 32.6629 35.619H3.35228C1.51269 35.619 0.00756836 34.1139 0.00756836 32.2743V24.392H8.13846ZM8.13698 13.9361V22.0656H0.00756836V13.9361H8.13698ZM36.0076 13.9361V22.0656H27.8782V13.9361H36.0076ZM32.6629 0.384155C34.5025 0.384155 36.0076 1.88927 36.0076 3.73034V11.6111H27.8782V10.3236C27.8782 9.32459 27.0686 8.51505 26.0696 8.51505H9.94549C8.94652 8.51505 8.13698 9.32459 8.13698 10.3236V11.6111H0.00756836V3.72886C0.00756836 1.88927 1.51269 0.384155 3.35228 0.384155H32.6629Z" fill="#DA1A32"/>
</g>
<defs>
<clipPath id="clip0_202_8417">
<rect width="37" height="36" fill="white"/>
</clipPath>
</defs>
</svg>
