<svg width="37" height="36" viewBox="0 0 37 36" fill="none" xmlns="http://www.w3.org/2000/svg">
<g clip-path="url(#clip0_202_11497)">
<path d="M20.1673 24.2144C23.2769 23.0202 24.83 19.5307 23.6362 16.4201C22.4424 13.3096 18.9538 11.756 15.8443 12.9501C12.7347 14.1443 11.1817 17.6339 12.3754 20.7445C12.988 22.3406 14.2488 23.6017 15.8443 24.2144L11.7818 34.8033C2.82602 31.3649 -1.64747 21.315 1.78996 12.3564C5.22739 3.39781 15.274 -1.07708 24.2298 2.36143C33.1856 5.79995 37.6591 15.8497 34.2217 24.8083C32.4576 29.4059 28.8259 33.0387 24.2298 34.8033L20.1673 24.2144Z" fill="#3DA639"/>
<path d="M24.2298 35.4248C24.1436 35.4248 24.0574 35.4069 23.9772 35.3711C23.8267 35.3041 23.7091 35.18 23.6501 35.0262L19.5876 24.4372C19.4647 24.1169 19.6246 23.7577 19.9448 23.6347C21.2938 23.1166 22.3605 22.104 22.9482 20.7835C23.5359 19.4629 23.5744 17.9924 23.0564 16.643C21.9873 13.8572 18.8519 12.4608 16.0669 13.5303C13.2821 14.5998 11.8861 17.7363 12.9553 20.522C13.5038 21.9515 14.638 23.0859 16.0669 23.6347C16.3871 23.7577 16.547 24.1169 16.4241 24.4372L12.3616 35.0262C12.3026 35.18 12.185 35.3041 12.0345 35.3711C11.8841 35.4382 11.7132 35.4426 11.5593 35.3836C7.07305 33.6611 3.52582 30.2941 1.57115 25.9029C-0.383525 21.5116 -0.511705 16.6218 1.21021 12.1341C2.93212 7.64639 6.29808 4.09804 10.6879 2.14275C15.0777 0.187458 19.9661 0.0592384 24.4524 1.7817C28.9386 3.50415 32.4859 6.8711 34.4405 11.2624C36.3952 15.6536 36.5235 20.5435 34.8015 25.0312C32.9772 29.7855 29.2051 33.5588 24.4524 35.3836C24.3806 35.4111 24.3052 35.4248 24.2298 35.4248ZM17.9997 1.82002C15.6836 1.82002 13.3725 2.30706 11.1931 3.27778C7.10634 5.09808 3.97284 8.40142 2.36979 12.5793C0.766736 16.7571 0.886097 21.3094 2.70582 25.3975C4.44115 29.2959 7.52441 32.3271 11.4286 33.9906L15.0525 24.5447C13.5651 23.8069 12.3957 22.5306 11.7957 20.9673C10.4811 17.542 12.1975 13.6855 15.6218 12.3705C19.0462 11.0553 22.9014 12.7724 24.216 16.1977C24.8528 17.857 24.8055 19.6651 24.0829 21.2888C23.4451 22.7218 22.3485 23.86 20.9595 24.5454L24.583 33.9902C28.7359 32.2156 32.0179 28.8184 33.6419 24.5859C35.245 20.4081 35.1257 15.8559 33.3059 11.7678C31.4861 7.67968 28.1838 4.54513 24.0073 2.94164C22.0579 2.19319 20.0269 1.82002 17.9997 1.82002Z" fill="#1D531D"/>
<path d="M33.4728 32.9168C33.2477 33.147 33.1352 33.42 33.1352 33.7359C33.1352 34.0633 33.2497 34.3415 33.4786 34.5704C33.7062 34.7993 33.9812 34.9138 34.3035 34.9138C34.6245 34.9138 34.8988 34.7987 35.1264 34.5685C35.3541 34.337 35.4679 34.0595 35.4679 33.7359C35.4679 33.4213 35.3547 33.1482 35.1283 32.9168C34.8994 32.6814 34.6245 32.5638 34.3035 32.5638C33.9786 32.5638 33.7017 32.6814 33.4728 32.9168ZM35.2933 34.7507C35.0184 35.0167 34.6884 35.1497 34.3035 35.1497C33.9057 35.1497 33.5707 35.0135 33.2983 34.7411C33.0258 34.4687 32.8896 34.1336 32.8896 33.7359C32.8896 33.3228 33.0367 32.9794 33.3309 32.7057C33.6071 32.45 33.9313 32.3221 34.3035 32.3221C34.6935 32.3221 35.0267 32.4602 35.3029 32.7364C35.5792 33.0127 35.7173 33.3458 35.7173 33.7359C35.7173 34.1375 35.576 34.4757 35.2933 34.7507ZM34.432 33.264C34.3757 33.2422 34.2964 33.2314 34.1941 33.2314H34.0944V33.686H34.2536C34.3495 33.686 34.4243 33.6668 34.478 33.6285C34.5317 33.5901 34.5586 33.5281 34.5586 33.4424C34.5586 33.3567 34.5164 33.2972 34.432 33.264ZM33.6838 34.5224V32.9551C33.781 32.9551 33.9265 32.9555 34.1203 32.9561C34.314 32.9567 34.4218 32.9577 34.4435 32.959C34.5676 32.9679 34.6705 32.9948 34.7524 33.0395C34.8918 33.1163 34.9615 33.241 34.9615 33.4136C34.9615 33.5453 34.9247 33.6406 34.8512 33.6994C34.7776 33.7583 34.6871 33.7934 34.5797 33.805C34.6782 33.8254 34.7524 33.8555 34.8022 33.8951C34.8943 33.9693 34.9404 34.0863 34.9404 34.2462V34.3862C34.9404 34.4016 34.9413 34.4169 34.9432 34.4323C34.9451 34.4476 34.9487 34.4629 34.9538 34.4783L34.9672 34.5224H34.5759C34.5631 34.4725 34.5548 34.4003 34.5509 34.3056C34.5471 34.211 34.5388 34.1471 34.526 34.1138C34.5055 34.0588 34.4672 34.0205 34.4109 33.9987C34.3802 33.9859 34.3335 33.9776 34.2709 33.9738L34.1807 33.968H34.0944V34.5224H33.6838Z" fill="#1D531D"/>
</g>
<defs>
<clipPath id="clip0_202_11497">
<rect width="37" height="36" fill="white"/>
</clipPath>
</defs>
</svg>
