<svg width="36" height="30" viewBox="0 0 36 30" fill="none" xmlns="http://www.w3.org/2000/svg">
<g clip-path="url(#clip0_202_10229)">
<path d="M32.6177 20.2671C32.1209 20.2671 31.6396 20.3757 31.2143 20.5689C31.0279 20.4555 30.9332 20.3456 30.652 20.2384V7.70532L17.9659 0.32251L7.31179 6.61142C7.13095 6.50553 6.94898 6.395 6.76238 6.28194C6.74705 4.43023 5.23761 2.92838 3.38238 2.92838C1.51759 2.92838 0.000976562 4.44555 0.000976562 6.31035C0.000976562 8.17514 1.51843 9.69231 3.38322 9.69231C3.88004 9.69231 4.37194 9.58375 4.79718 9.39054C4.97338 9.49769 5.19936 9.60175 5.33998 9.70328V22.3497L18.0081 29.6823L28.7654 23.3899C28.9235 23.483 29.079 23.579 29.2414 23.6776C29.2569 25.5293 30.765 27.0312 32.6203 27.0312C34.4851 27.0312 36.001 25.5139 36.001 23.6491C36.001 21.7843 34.4825 20.2671 32.6177 20.2671Z" fill="#B8C6C9"/>
<path d="M17.9835 27.5833L28.8325 21.2354V8.76914L17.983 2.45239L7.13989 8.8576V21.309L17.9835 27.5833Z" fill="#759BC5"/>
<path d="M34.1634 23.677C34.1634 24.5275 33.4748 25.2169 32.6254 25.2169C31.7759 25.2169 31.0874 24.5275 31.0874 23.677C31.0874 22.8266 31.7759 22.1371 32.6254 22.1371C33.4748 22.1371 34.1634 22.8266 34.1634 23.677Z" fill="#759BC5"/>
<path d="M1.83936 6.30893C1.83936 5.45855 2.52789 4.76904 3.37737 4.76904C4.22672 4.76904 4.91539 5.45855 4.91539 6.30893C4.91539 7.1593 4.22672 7.84881 3.37737 7.84881C2.52789 7.84881 1.83936 7.1593 1.83936 6.30893Z" fill="#759BC5"/>
<path d="M32.6395 24.5853C32.1304 24.5853 31.7163 24.1711 31.7163 23.662C31.7163 23.1529 32.1304 22.7389 32.6395 22.7389C33.1485 22.7389 33.5626 23.1529 33.5626 23.662C33.5626 24.1711 33.1485 24.5853 32.6395 24.5853ZM20.1014 25.6196C21.1062 24.1722 22.297 22.098 23.0295 19.6064C24.5857 19.9258 26.0382 20.4433 27.6137 21.2294L20.1014 25.6196ZM12.5187 11.2668C12.276 12.2797 12.1096 13.3585 12.072 14.4934C10.6576 14.4939 9.27944 14.4939 7.73129 14.4939V9.51333C9.27944 10.3479 10.9091 10.9106 12.5187 11.2668ZM3.38071 7.23178C2.87165 7.23178 2.45745 6.81772 2.45745 6.30866C2.45745 5.7996 2.87165 5.38555 3.38071 5.38555C3.88977 5.38555 4.30383 5.7996 4.30383 6.30866C4.30383 6.81772 3.88977 7.23178 3.38071 7.23178ZM15.6748 4.53702C14.6655 5.94668 13.5101 7.92367 12.7885 10.3216C11.3337 10.0051 9.96147 9.51038 8.48412 8.77965L15.6748 4.53702ZM18.401 18.189C18.4018 17.8106 18.403 17.4262 18.4041 17.0375C19.2018 16.8776 19.835 16.2623 20.0246 15.4757C20.9994 15.4765 21.9308 15.4771 22.8445 15.4772C22.8073 16.5291 22.655 17.5412 22.4239 18.5002C21.1882 18.2992 19.8765 18.2044 18.401 18.189ZM18.3993 19.1735C19.7867 19.1877 21.0137 19.272 22.1652 19.4512C21.1912 22.6609 19.419 25.1706 18.4197 26.4114C18.4027 24.1158 18.3959 21.7538 18.3993 19.1735ZM12.7909 19.7435C13.5138 22.151 14.6705 24.12 15.6809 25.5184L8.30031 21.2529C9.20372 20.8285 10.7529 20.1994 12.7909 19.7435ZM15.9601 15.4761C16.1467 16.2499 16.7629 16.8572 17.5426 17.0288C17.5413 17.4213 17.5402 17.8094 17.5394 18.1916C16.0192 18.2172 14.6263 18.3773 13.3846 18.6093C13.1455 17.6269 12.9891 16.5796 12.954 15.4778C13.9335 15.4775 14.9251 15.4769 15.9601 15.4761ZM17.5387 11.7811C17.5397 12.1695 17.5408 12.557 17.5421 12.9439C16.7643 13.1152 16.1494 13.7201 15.9614 14.4913C14.9264 14.4922 13.9349 14.4927 12.9556 14.4932C12.9932 13.4171 13.1456 12.3942 13.3773 11.4335C14.6548 11.656 16.0085 11.7621 17.5387 11.7811ZM17.529 4.22429C17.5302 6.38368 17.5316 8.59556 17.5363 10.7963C16.0958 10.7786 14.8277 10.6846 13.6362 10.4849C14.6377 7.20772 16.4873 4.76474 17.5285 3.57407L17.529 4.22429ZM23.0089 10.2923C22.2784 7.85273 21.1086 5.82494 20.1163 4.40275L27.6785 8.80034C26.7447 9.22439 25.1322 9.85308 23.0089 10.2923ZM18.3906 4.22373L18.3902 3.56295C19.3766 4.76882 21.1594 7.2498 22.1472 10.4543C21.0137 10.6466 19.757 10.7766 18.3979 10.7956C18.3933 8.595 18.3918 6.38312 18.3906 4.22373ZM17.9923 16.094C17.3815 16.094 16.8845 15.597 16.8845 14.9862C16.8845 14.3754 17.3815 13.8784 17.9923 13.8784C18.6031 13.8784 19.1001 14.3754 19.1001 14.9862C19.1001 15.597 18.6031 16.094 17.9923 16.094ZM17.5587 26.4785C16.5304 25.3052 14.6643 22.8556 13.6492 19.5677C14.818 19.3513 16.1232 19.2018 17.5377 19.1763C17.5343 21.7804 17.5412 24.1625 17.5587 26.4785ZM20.023 14.4909C19.8316 13.707 19.1996 13.0942 18.4035 12.9349C18.4024 12.5508 18.4013 12.166 18.4003 11.7804C19.8626 11.7611 21.2068 11.6213 22.4122 11.4143C22.6505 12.3882 22.8076 13.4187 22.8447 14.4926C21.9306 14.4923 20.9984 14.4918 20.023 14.4909ZM28.1387 14.4895C26.7313 14.4915 25.1564 14.4926 23.6615 14.4926C23.6253 13.3582 23.4426 12.274 23.1986 11.2522C25.4938 10.7761 27.2943 10.086 28.1387 9.63662V14.4895ZM7.73129 15.4785C9.27944 15.4785 10.6636 15.4785 12.0774 15.4781C12.1116 16.6448 12.2646 17.7496 12.5109 18.7835C10.3143 19.275 8.71648 19.9616 7.73129 20.4133V15.4785ZM23.2346 18.6588C23.4706 17.6532 23.6025 16.5887 23.6385 15.4774C25.1332 15.4772 26.7313 15.4762 28.1387 15.4741V20.442C26.5906 19.5802 24.9117 19.01 23.2346 18.6588ZM32.6395 21.5081C32.061 21.5081 31.5085 21.7385 31.1212 22.1109C30.5362 21.744 29.9683 21.4092 29.4054 21.1024V8.41288L17.9619 1.74219L7.19197 8.10466C6.61719 7.78292 6.02791 7.42727 5.39964 7.0332C5.48113 6.80632 5.53123 6.56312 5.53123 6.30866C5.53123 5.12095 4.5666 4.15477 3.37888 4.15477C2.19117 4.15477 1.22583 5.12095 1.22583 6.30866C1.22583 7.49638 2.19258 8.4627 3.38029 8.4627C3.95874 8.4627 4.45133 8.23231 4.83879 7.85991C5.41287 8.21992 6.0424 8.54898 6.46463 8.85115V21.6512L17.9616 28.2768L28.8748 21.9087C29.4258 22.219 30.0052 22.561 30.6055 22.9375C30.524 23.1643 30.4813 23.4075 30.4813 23.662C30.4813 24.8497 31.4496 25.816 32.6374 25.816C33.8251 25.816 34.7924 24.8497 34.7924 23.662C34.7924 22.4743 33.8272 21.5081 32.6395 21.5081Z" fill="#343532"/>
</g>
<defs>
<clipPath id="clip0_202_10229">
<rect width="36.001" height="30" fill="white"/>
</clipPath>
</defs>
</svg>
