<svg width="36" height="34" viewBox="0 0 36 34" fill="none" xmlns="http://www.w3.org/2000/svg">
<g clip-path="url(#clip0_202_11513)">
<path d="M10.4548 15.3163L4.67407 17.4198C4.74825 18.3466 4.90775 19.262 5.13244 20.159L10.6231 18.1594C10.4471 17.2326 10.3843 16.2753 10.4561 15.3162" fill="#DA2430"/>
<path d="M36.0007 8.92378C35.5975 8.09218 35.1312 7.28842 34.5909 6.53101L28.8118 8.63442C29.4844 9.32233 30.0484 10.0956 30.5102 10.9225L36.0009 8.92342L36.0007 8.92378Z" fill="#DA2430"/>
<path d="M25.7471 8.8898C25.02 8.25881 24.1988 7.7143 23.2847 7.2879H23.2843C17.9176 4.78592 11.5145 7.11367 9.01248 12.4822C8.87147 12.7852 8.74658 13.0913 8.6371 13.3999C8.32482 14.3084 8.1424 15.2373 8.07261 16.1647L8.05225 16.1722C8.05172 16.179 8.05119 16.1858 8.05067 16.1926L4.57163 17.4586L2.33297 18.2859C2.33264 18.2818 2.33232 18.2777 2.33201 18.2735L2.27062 18.2959C2.05329 15.5467 2.51669 12.7069 3.76337 10.0336C3.92658 9.68348 4.10059 9.34176 4.28481 9.00864C8.39454 1.35393 17.7458 -1.84565 25.6323 1.88959C27.2646 2.66303 28.7121 3.67708 29.9545 4.87036C30.7904 5.64362 31.5364 6.49534 32.1867 7.40806L26.4072 9.51183C26.3775 9.48144 26.3476 9.45119 26.3174 9.4211L26.3014 9.42701C26.1234 9.24214 25.9387 9.06287 25.7471 8.8898Z" fill="#DA2430"/>
<path d="M2.59295 27.623L2.58384 27.6263C1.38135 25.9331 0.506106 24.0308 0.0012207 22.0287L5.49299 20.0286L5.49335 20.0289C5.49448 20.0348 5.49562 20.0407 5.49676 20.0466L5.53242 20.0335L5.53325 20.0357C5.81532 21.5295 6.40249 22.9545 7.25862 24.2075C7.58504 24.6734 7.94979 25.1149 8.35095 25.5268L8.32914 25.5347C8.34295 25.5493 8.3568 25.5638 8.3707 25.5783L2.64373 27.696C2.62674 27.6717 2.60981 27.6473 2.59295 27.623Z" fill="#E82429"/>
<path d="M24.4051 26.1445C21.4273 27.9858 17.608 28.3416 14.2046 26.7544C13.0007 26.193 11.9517 25.4336 11.076 24.5345L5.30884 26.6341C5.32351 26.6547 5.33824 26.6754 5.35301 26.6959L5.35016 26.697C6.93582 28.9625 9.0989 30.8562 11.7532 32.1143C17.4775 34.8249 23.9726 33.8826 28.6754 30.2352C30.7814 28.6578 32.5394 26.5553 33.727 24.0087C34.9744 21.336 35.4351 18.4972 35.2143 15.7502L35.0537 15.8087C35.0515 15.7793 35.0493 15.7499 35.047 15.7205L29.3197 17.8362L29.32 17.8367C29.2288 19.099 28.915 20.3653 28.3572 21.5794C27.464 23.5248 26.0709 25.0745 24.4051 26.1445Z" fill="#DA2430"/>
<path d="M30.7832 10.8231L30.8691 10.7918V10.7916C31.7725 12.6506 32.3239 14.6712 32.4892 16.7403L26.7219 18.8385C26.7229 18.8242 26.724 18.8099 26.725 18.7956L26.6159 18.8359C26.7729 16.7018 26.2942 14.5792 25.2815 12.7362L30.7341 10.7205L30.7344 10.72C30.7508 10.7543 30.767 10.7886 30.7832 10.8231Z" fill="#E82429"/>
<path d="M10.4621 15.2825L4.72192 17.4037C4.79548 18.3387 4.95388 19.2619 5.17729 20.1665L10.6296 18.1497C10.4533 17.2131 10.3899 16.2489 10.4643 15.282" fill="#C22035"/>
<path d="M35.8285 8.83603C35.4282 7.99747 34.9649 7.187 34.4285 6.4231L28.6897 8.5443C29.3575 9.23823 29.9175 10.0178 30.3759 10.852L35.8277 8.83548L35.8285 8.83603Z" fill="#C22035"/>
<path d="M4.72177 17.4039L10.4479 15.3064L10.4245 16.4568L4.90001 18.543L4.72095 17.4025L4.72177 17.4039Z" fill="#AC223B"/>
<path d="M28.6907 8.52708L34.5061 6.53149L35.1105 7.44361L29.4601 9.44112L28.6915 8.52652L28.6907 8.52708Z" fill="#AC223B"/>
<path d="M5.35181 26.6758L11.0848 24.5896L12.8187 26.2254L6.80662 28.4824L5.35208 26.6753L5.35181 26.6758Z" fill="#B92135"/>
<path d="M35.1436 15.7361L29.3208 17.8358L28.8918 20.1666L35.1004 17.954L35.1444 15.7364L35.1436 15.7361Z" fill="#B92135"/>
</g>
<defs>
<clipPath id="clip0_202_11513">
<rect width="36.0009" height="34" fill="white"/>
</clipPath>
</defs>
</svg>
