<svg width="36" height="37" viewBox="0 0 36 37" fill="none" xmlns="http://www.w3.org/2000/svg">
<g clip-path="url(#clip0_202_15853)">
<path d="M13.2636 7.89518C15.8697 5.72479 20.135 5.72432 22.7416 7.89518L33.9033 17.19C36.509 19.3606 36.5095 22.9112 33.9029 25.0821L22.7416 34.3766C20.1346 36.5477 15.8693 36.547 13.2636 34.3766L2.10188 25.0821C-0.504262 22.9117 -0.504262 19.3606 2.10142 17.19L13.2636 7.89518Z" fill="#015965"/>
<path d="M13.2636 4.87468C15.8697 2.70428 20.135 2.70381 22.7416 4.87468L33.9033 14.1695C36.509 16.3403 36.5095 19.8912 33.9029 22.0618L22.7416 31.3564C20.1346 33.5275 15.8693 33.5268 13.2636 31.3564L2.10188 22.0618C-0.504262 19.8912 -0.504262 16.3403 2.10142 14.1695L13.2636 4.87468Z" fill="#E5E5E5"/>
<path d="M22.7416 1.63249L33.9033 10.9273C36.509 13.0981 36.5095 16.649 33.9029 18.8196L22.7416 28.1142C20.1346 30.2853 15.8693 30.2846 13.2636 28.1142L2.10188 18.8196C-0.504262 16.649 -0.504262 13.0981 2.10142 10.9273L13.2636 1.63249C15.8697 -0.537909 20.135 -0.538373 22.7416 1.63249Z" fill="#35BBCE"/>
<path opacity="0.15" d="M34.227 11.227C34.1244 11.1282 34.0188 11.0311 33.9062 10.9374L22.7437 1.63403C20.1368 -0.538887 15.8712 -0.538423 13.2648 1.63403L2.1016 10.9374C-0.504321 13.1105 -0.50432 16.6647 2.10206 18.8374L3.30331 19.8384C6.44418 16.0663 17.0363 5.6128 34.227 11.227Z" fill="white"/>
</g>
<defs>
<clipPath id="clip0_202_15853">
<rect width="36" height="37" fill="white"/>
</clipPath>
</defs>
</svg>
