<svg width="37" height="36" viewBox="0 0 37 36" fill="none" xmlns="http://www.w3.org/2000/svg">
<g clip-path="url(#clip0_202_14537)">
<path d="M29.5331 18.0009C29.5331 20.2551 28.8432 22.4127 27.6655 24.2759L32.374 28.9843C34.73 25.8429 36.0036 22.0221 36.0036 18.0953C36.0036 13.9757 34.6304 10.2472 32.2773 7.20856L27.6633 11.8159C28.8795 13.6471 29.5291 15.796 29.5309 17.9943L29.5331 18.0009Z" fill="#B8D3F4"/>
<path d="M17.9542 29.5731C11.5677 29.5611 6.39304 24.3874 6.37974 18.0009C6.38941 11.6117 11.5651 6.43407 17.9542 6.42197C20.3096 6.42197 22.4671 7.11187 24.2336 8.28954L28.8432 3.67556C25.701 1.3215 21.8804 0.0495006 17.9542 0.0502933C8.04516 0.0502933 0.00366211 8.09179 0.00366211 18.0009C0.00366211 27.9055 8.04516 35.9514 17.9542 35.9514C21.8993 35.9623 25.7337 34.6486 28.8432 32.2207L24.1348 27.5144C22.4649 28.8876 20.3117 29.5731 17.9542 29.5731Z" fill="#7FADF2"/>
</g>
<defs>
<clipPath id="clip0_202_14537">
<rect width="37" height="36" fill="white"/>
</clipPath>
</defs>
</svg>
