<svg width="40" height="40" viewBox="0 0 40 40" fill="none" xmlns="http://www.w3.org/2000/svg">
<path d="M13.4229 31.2661C11.2041 28.6567 9.78223 24.7973 9.68848 20.4692V19.5317C9.78223 15.2036 11.2197 11.3442 13.4229 8.7348C16.2979 5.01605 20.5166 3.34418 25.2822 3.34418C28.2197 3.34418 30.9854 3.5473 33.3291 5.1098C29.8135 1.93793 25.1729 0.0160522 20.0791 0.000427246H20.001C8.9541 0.000427246 0.000976562 8.95355 0.000976562 20.0004C0.000976562 30.7192 8.43848 39.4848 19.0479 39.9848C19.3604 40.0004 19.6885 40.0004 20.001 40.0004C25.126 40.0004 29.7979 38.0786 33.3291 34.9067C30.9854 36.4692 28.376 36.5317 25.4385 36.5317C20.6885 36.5473 16.2822 35.0004 13.4229 31.2661Z" fill="url(#paint0_linear_202_12383)"/>
<path d="M13.4229 8.7348C15.251 6.56293 17.626 5.26605 20.2197 5.26605C26.0478 5.26605 30.7666 11.8598 30.7666 20.0161C30.7666 28.1723 26.0478 34.7661 20.2197 34.7661C17.626 34.7661 15.2666 33.4536 13.4229 31.2973C16.2979 35.0161 20.5635 37.3911 25.3135 37.3911C28.2353 37.3911 30.9853 36.5004 33.3291 34.9379C37.4228 31.2504 40.001 25.9223 40.001 20.0004C40.001 14.0786 37.4228 8.75043 33.3291 5.09418C30.9853 3.53168 28.251 2.64105 25.3135 2.64105C20.5479 2.64105 16.2822 5.00043 13.4229 8.7348Z" fill="url(#paint1_linear_202_12383)"/>
<defs>
<linearGradient id="paint0_linear_202_12383" x1="16.666" y1="0.652427" x2="16.666" y2="39.4184" gradientUnits="userSpaceOnUse">
<stop offset="0.3" stop-color="#FF1B2D"/>
<stop offset="0.4381" stop-color="#FA1A2C"/>
<stop offset="0.5939" stop-color="#ED1528"/>
<stop offset="0.7581" stop-color="#D60E21"/>
<stop offset="0.9272" stop-color="#B70519"/>
<stop offset="1" stop-color="#A70014"/>
</linearGradient>
<linearGradient id="paint1_linear_202_12383" x1="26.7093" y1="2.93747" x2="26.7093" y2="37.2239" gradientUnits="userSpaceOnUse">
<stop stop-color="#9C0000"/>
<stop offset="0.7" stop-color="#FF4B4B"/>
</linearGradient>
</defs>
</svg>
