<svg width="32" height="37" viewBox="0 0 32 37" fill="none" xmlns="http://www.w3.org/2000/svg">
<g clip-path="url(#clip0_202_9553)">
<path d="M16.0005 17.969C20.9617 17.969 24.9834 13.9472 24.9834 8.98611C24.9834 4.02497 20.9617 0.00317383 16.0005 0.00317383C11.0394 0.00317383 7.01758 4.02497 7.01758 8.98611C7.01758 13.9472 11.0394 17.969 16.0005 17.969Z" fill="url(#paint0_linear_202_9553)"/>
<path d="M15.2351 35.7839C9.36846 32.0415 4.48935 26.9413 1.01045 20.9147C0.875974 20.6731 0.846731 20.3869 0.929577 20.1231C1.01242 19.8593 1.20007 19.6412 1.44852 19.5199L8.25118 16.1815C8.72703 15.9495 9.3013 16.1255 9.56539 16.5843C13.0047 22.3487 18.0903 26.9521 24.1677 29.8019C21.9263 32.0603 19.4442 34.0662 16.7658 35.7839C16.2975 36.0763 15.7035 36.0763 15.2351 35.7839Z" fill="url(#paint1_linear_202_9553)"/>
<path d="M16.7658 35.7839C22.6332 32.0424 27.5125 26.942 30.9905 20.9147C31.1253 20.6737 31.1553 20.388 31.0734 20.1243C30.9916 19.8606 30.805 19.6421 30.5575 19.5199L23.7498 16.1815C23.2739 15.9495 22.6996 16.1255 22.4356 16.5843C18.997 22.3493 13.9112 26.9528 7.83325 29.8019C10.0733 32.0618 12.5555 34.0679 15.2351 35.7839C15.7035 36.0763 16.2975 36.0763 16.7658 35.7839Z" fill="#2684FF"/>
</g>
<defs>
<linearGradient id="paint0_linear_202_9553" x1="16.0005" y1="2.98909" x2="16.0005" y2="21.4333" gradientUnits="userSpaceOnUse">
<stop stop-color="#2684FF"/>
<stop offset="0.82" stop-color="#0052CC"/>
</linearGradient>
<linearGradient id="paint1_linear_202_9553" x1="10.4717" y1="22.2878" x2="15.3028" y2="32.3988" gradientUnits="userSpaceOnUse">
<stop stop-color="#2684FF"/>
<stop offset="0.62" stop-color="#0052CC"/>
</linearGradient>
<clipPath id="clip0_202_9553">
<rect width="32" height="37" fill="white"/>
</clipPath>
</defs>
</svg>
