<svg width="32" height="33" viewBox="0 0 32 33" fill="none" xmlns="http://www.w3.org/2000/svg">
<g clip-path="url(#clip0_202_11490)">
<path d="M20.885 15.933C20.8291 13.5091 18.833 11.5816 16.4086 11.6103H4.8667V20.2558H12.3419V27.5262C12.2781 28.6762 12.6847 29.8027 13.4682 30.6469C14.2518 31.4911 15.3448 31.9805 16.4964 32.0025C17.672 31.9909 18.7948 31.5128 19.6178 30.6733C20.4409 29.8338 20.8967 28.7018 20.885 27.5262V15.933Z" fill="#B366F6"/>
<path d="M4.8156 20.3509C7.22722 20.3509 9.18223 18.3959 9.18223 15.9843C9.18223 13.5727 7.22722 11.6177 4.8156 11.6177C2.40398 11.6177 0.448975 13.5727 0.448975 15.9843C0.448975 18.3959 2.40398 20.3509 4.8156 20.3509Z" fill="#8430CE"/>
<path d="M31.542 4.34725C31.518 1.94066 29.5602 0.00256348 27.1535 0.00256348H15.3482C13.1055 0.227682 11.3979 2.11518 11.3979 4.36919C11.3979 6.6232 13.1055 8.5107 15.3482 8.73582H22.9112V15.9989C22.8459 17.5844 23.6546 19.0781 25.0178 19.8903C26.381 20.7025 28.0796 20.7025 29.4428 19.8903C30.806 19.0781 31.6146 17.5844 31.5494 15.9989L31.542 4.34725Z" fill="#C58AF8"/>
</g>
<defs>
<clipPath id="clip0_202_11490">
<rect width="32" height="33" fill="white"/>
</clipPath>
</defs>
</svg>
