<svg width="37" height="36" viewBox="0 0 37 36" fill="none" xmlns="http://www.w3.org/2000/svg">
<g clip-path="url(#clip0_202_11638)">
<path d="M17.0266 13.6076L11.0002 19.6339C10.6985 19.0775 10.4438 18.5022 10.2269 17.9175C9.95342 17.1725 9.74594 16.418 9.6139 15.6447L15.6515 9.60499C16.4249 9.73702 17.1827 9.93894 17.9277 10.2124C17.277 11.231 16.9606 12.4382 17.0266 13.6076ZM22.3927 18.9738C23.5622 19.0398 24.7511 18.7414 25.7791 18.0813C26.0669 18.8243 26.2804 19.5698 26.3998 20.3469L20.3651 26.3864C19.5918 26.2544 18.8279 26.0469 18.0923 25.7734C17.5075 25.5565 16.9318 25.2942 16.3753 24.9925C20.2526 21.0542 22.2584 19.048 22.3927 18.9738ZM26.1462 26.1412C25.0602 26.5032 23.9494 26.6595 22.8454 26.5845C25.3368 24.058 26.588 22.8068 26.5989 22.831C26.6305 23.9441 27.2323 25.7792 26.1462 26.1412ZM9.85911 9.85411C10.8654 9.51921 12.0526 9.35704 13.1813 9.39718L9.40642 13.1643C9.34199 12.0532 9.46386 10.9264 9.85911 9.85411ZM20.2525 18.4265L14.7349 23.9533C14.2256 23.576 13.7446 23.1611 13.2919 22.7084C12.8393 22.2463 12.4243 21.7653 12.0471 21.2655L17.5641 15.7484C17.8376 16.3237 18.2054 16.8518 18.677 17.3234C19.1485 17.7949 19.6867 18.153 20.2525 18.4265Z" fill="#080738"/>
<path d="M13.301 3.89469C18.4879 -1.29229 26.9097 -1.29229 32.1061 3.89469C37.3025 9.0911 37.3025 17.5034 32.1061 22.6999C30.3897 24.4163 28.3243 25.5574 26.1458 26.1421C26.4382 25.0576 26.5891 23.9447 26.5985 22.8319L22.845 26.5854C22.0151 26.5948 21.1852 26.5288 20.3647 26.3779L26.391 20.3516C26.259 19.5782 26.0515 18.8143 25.778 18.0787C26.1175 17.8618 26.4382 17.6072 26.7305 17.3148C28.9468 15.0891 28.9468 11.4865 26.7305 9.27029C24.5048 7.05403 20.9022 7.05403 18.686 9.27029C18.3936 9.57208 18.139 9.8833 17.9221 10.2228C17.177 9.94931 16.4226 9.74183 15.6492 9.6098L9.62291 15.6361C9.47202 14.8156 9.406 13.9857 9.41543 13.1558L13.1689 9.40232C12.0561 9.41175 10.9432 9.56265 9.85868 9.855C10.4434 7.66704 11.5845 5.61111 13.301 3.89469ZM17.5637 15.7493L15.7435 17.5695L12.0466 21.2664C11.6505 20.7382 11.3016 20.1912 10.9998 19.6254L13.6027 17.0225L17.0167 13.6085C17.0639 14.3441 17.2431 15.0703 17.5637 15.7493ZM22.3923 18.9747L18.9783 22.3886L16.3754 24.9916C15.8096 24.6898 15.2626 24.3408 14.7344 23.9447L18.4313 20.2478L20.2515 18.4277C20.9305 18.7577 21.6567 18.9369 22.3923 18.9747Z" fill="#0037FF"/>
<path d="M9.85868 9.85504C9.56632 10.9396 9.41543 12.0524 9.406 13.1558L0.00341797 22.5584C0.0411415 19.201 1.33317 15.8625 3.89837 13.2973C5.61479 11.5809 7.68015 10.4398 9.85868 9.85504ZM13.433 35.9974L22.8447 26.5851C23.9575 26.5757 25.0612 26.4345 26.1458 26.1422C25.5611 28.3301 24.4199 30.3861 22.7035 32.1025C20.1383 34.6677 16.7904 35.9597 13.433 35.9974ZM9.27397 18.6823C8.08568 19.8706 7.53869 21.455 7.61413 23.0111L1.59724 29.028C0.918213 27.7737 0.4561 26.4251 0.210897 25.0482L9.61348 15.6456C9.74551 16.4189 9.95299 17.1734 10.2265 17.9184C9.88697 18.1353 9.56632 18.39 9.27397 18.6823ZM18.0824 25.7744C18.8274 26.0479 19.5913 26.2553 20.3552 26.3874L10.9527 35.7899C9.57575 35.5447 8.22714 35.0826 6.97283 34.4036L12.9897 28.3867C14.5458 28.4716 16.1302 27.9152 17.3185 26.7269C17.6109 26.4345 17.8655 26.1139 18.0824 25.7744ZM9.27397 26.7269C9.74551 27.189 10.2831 27.5662 10.8489 27.8397L5.33186 33.3568C4.82259 32.9795 4.34162 32.5646 3.88894 32.1119C3.43626 31.6498 3.0213 31.1688 2.64406 30.669L8.16112 25.1519C8.43462 25.7272 8.80242 26.2553 9.27397 26.7269Z" fill="#0037FF"/>
</g>
<defs>
<clipPath id="clip0_202_11638">
<rect width="37" height="36" fill="white"/>
</clipPath>
</defs>
</svg>
