<svg width="28" height="37" viewBox="0 0 28 37" fill="none" xmlns="http://www.w3.org/2000/svg">
<g clip-path="url(#clip0_202_11693)">
<path d="M13.9651 0.249896C14.0384 0.438502 13.9117 0.611073 13.8078 0.756918C13.0725 1.79921 12.4944 2.96476 12.2638 4.21781C12.1737 4.47498 12.1936 4.66658 12.2638 4.68796C13.691 4.56274 15.3007 4.57714 16.7057 4.87723C19.2621 5.39189 21.6514 6.6854 23.4878 8.53481C25.3189 10.3651 26.604 12.7368 27.124 15.2742C27.7005 18.0216 27.3783 20.9461 26.2253 23.5049C23.7803 28.7301 19.6584 33.1498 14.615 35.9514C14.4523 36.027 14.2179 36.03 14.1064 35.8681C13.9751 35.6986 14.0293 35.4573 14.1591 35.3031C14.8394 34.354 15.3144 33.2628 15.5725 32.125C15.6221 31.8891 15.6901 31.6501 15.6695 31.4073C15.5862 31.2988 15.4488 31.3317 15.332 31.3355C12.8839 31.5806 10.3648 31.1431 8.15273 30.0618C5.78332 28.9203 3.7728 27.0541 2.44339 24.7854C1.21173 22.6986 0.564206 20.2681 0.609257 17.8437C0.617657 15.6186 1.22471 13.4118 2.29373 11.4639C4.78226 6.68616 8.68953 2.65443 13.407 0.0498368C13.6047 -0.0601196 13.8972 0.0215841 13.9651 0.249896ZM13.2695 12.8178C11.8134 13.0132 10.4702 13.8685 9.6547 15.0871C9.10263 15.924 8.76818 16.9182 8.77505 17.9246C8.73382 19.2731 9.27138 20.6239 10.203 21.5952C11.0169 22.4718 12.1478 23.0429 13.3337 23.1957C14.5409 23.3553 15.8016 23.0727 16.824 22.4092C17.8633 21.7494 18.6551 20.7079 19.0094 19.5282C19.6745 17.4802 18.8773 15.081 17.1424 13.8158C16.0528 12.9865 14.6241 12.6185 13.2695 12.8178Z" fill="url(#paint0_linear_202_11693)"/>
</g>
<defs>
<linearGradient id="paint0_linear_202_11693" x1="14.0054" y1="0.00140381" x2="14.0054" y2="36.0014" gradientUnits="userSpaceOnUse">
<stop stop-color="#FF9900"/>
<stop offset="1" stop-color="#F05A22"/>
</linearGradient>
<clipPath id="clip0_202_11693">
<rect width="28" height="37" fill="white"/>
</clipPath>
</defs>
</svg>
