<svg width="36" height="37" viewBox="0 0 36 37" fill="none" xmlns="http://www.w3.org/2000/svg">
<g clip-path="url(#clip0_202_8271)">
<path d="M18 36.0044C27.9023 36.0044 35.9297 27.9455 35.9297 18.0044C35.9297 8.06327 27.9023 0.00439453 18 0.00439453C8.09771 0.00439453 0.0703125 8.06327 0.0703125 18.0044C0.0703125 27.9455 8.09771 36.0044 18 36.0044Z" fill="url(#paint0_radial_202_8271)"/>
<mask id="mask0_202_8271" style="mask-type:alpha" maskUnits="userSpaceOnUse" x="0" y="0" width="36" height="37">
<path d="M18 36.0044C27.9023 36.0044 35.9297 27.9455 35.9297 18.0044C35.9297 8.06327 27.9023 0.00439453 18 0.00439453C8.09771 0.00439453 0.0703125 8.06327 0.0703125 18.0044C0.0703125 27.9455 8.09771 36.0044 18 36.0044Z" fill="white"/>
</mask>
<g mask="url(#mask0_202_8271)">
<path d="M19.2979 8.26807L27.4209 16.859L20.4238 15.2226L19.2979 8.26807Z" fill="#E8F5FF"/>
<path d="M19.4941 9.46045L21.5367 15.5063L20.382 15.2226L19.4941 9.46045Z" fill="#64A4D8"/>
<path d="M3.03844 19.8046L-13.1846 1.96826L0.902145 5.05398L3.03844 19.8046Z" fill="url(#paint1_radial_202_8271)"/>
<path d="M22.4623 27.7071L19.2301 8.26807L11.2471 17.9876L22.4623 27.7071Z" fill="url(#paint2_radial_202_8271)"/>
<path d="M12.5667 16.4204L17.4796 22.5325L12.1797 16.8999L12.5667 16.4204Z" fill="#4492D2"/>
<path d="M8.01181 47.1963L-5.66797 15.2962L0.68476 4.99561L22.4944 27.7323L8.01181 47.1963Z" fill="url(#paint3_radial_202_8271)"/>
</g>
</g>
<defs>
<radialGradient id="paint0_radial_202_8271" cx="0" cy="0" r="1" gradientTransform="matrix(20.0097 31.9855 -32.2369 20.0097 2.19007 9.72615)" gradientUnits="userSpaceOnUse">
<stop stop-color="#51C3F7"/>
<stop offset="1" stop-color="#046CF4"/>
</radialGradient>
<radialGradient id="paint1_radial_202_8271" cx="0" cy="0" r="1" gradientTransform="matrix(28.3271 7.03396 -8.50256 28.3271 -14.9971 -4.16474)" gradientUnits="userSpaceOnUse">
<stop stop-color="white"/>
<stop offset="1" stop-color="#5CB5FF"/>
</radialGradient>
<radialGradient id="paint2_radial_202_8271" cx="0" cy="0" r="1" gradientTransform="matrix(-10.4876 11.8079 -35.4735 -10.4876 -13.2762 8.28165)" gradientUnits="userSpaceOnUse">
<stop stop-color="white"/>
<stop offset="1" stop-color="#7AC2FF"/>
</radialGradient>
<radialGradient id="paint3_radial_202_8271" cx="0" cy="0" r="1" gradientTransform="matrix(14.3276 15.9438 -35.8008 14.3276 -8.55438 7.79259)" gradientUnits="userSpaceOnUse">
<stop stop-color="white"/>
<stop offset="1" stop-color="#CBE7FF"/>
</radialGradient>
<clipPath id="clip0_202_8271">
<rect width="36" height="37" fill="white"/>
</clipPath>
</defs>
</svg>
