<svg width="37" height="37" viewBox="0 0 37 37" fill="none" xmlns="http://www.w3.org/2000/svg">
<g clip-path="url(#clip0_202_11881)">
<path d="M35.9874 0.00158691V9.01097L26.9966 18.0018V8.97367L35.9874 0.00158691Z" fill="#A596FF"/>
<path d="M18.006 0.00158691V9.01097L26.9968 18.0018V8.97367L18.006 0.00158691Z" fill="black"/>
<path d="M36.0059 35.9828H26.9965L18.0057 26.992H27.0336L36.0059 35.9828Z" fill="#A596FF"/>
<path d="M36.0059 18.0013H26.9965L18.0057 26.9922H27.0336L36.0059 18.0013Z" fill="black"/>
<path d="M0.0249634 36.0016V26.992L9.0158 18.0012V27.0293L0.0249634 36.0016Z" fill="#A596FF"/>
<path d="M18.0064 36.0016V26.992L9.01556 18.0012V27.0293L18.0064 36.0016Z" fill="black"/>
<path d="M0.0065918 0.0196533H9.01597L18.0068 9.01049H8.97889L0.0065918 0.0196533Z" fill="#A596FF"/>
<path d="M0.0065918 18.0012H9.01597L18.0068 9.01031H8.97889L0.0065918 18.0012Z" fill="black"/>
</g>
<defs>
<clipPath id="clip0_202_11881">
<rect width="37" height="37" fill="white"/>
</clipPath>
</defs>
</svg>
