<svg width="34" height="37" viewBox="0 0 34 37" fill="none" xmlns="http://www.w3.org/2000/svg">
<g clip-path="url(#clip0_202_10817)">
<path d="M26.8872 25.7347C30.9081 24.0571 33.2105 23.2244 33.2105 23.2244L24.8168 0.00158691L0.80127 5.08453C0.80127 5.08453 1.31045 6.52851 2.17271 12.1919L20.1069 8.16214L26.8872 25.7347Z" fill="#E80022"/>
<path d="M3.69287 23.7838C4.08128 27.2419 4.4612 31.2091 4.90531 36.0015C8.97761 33.9085 12.7443 32.0783 16.1169 30.5042L12.8328 21.7321L3.69287 23.7838Z" fill="#B6B1B1"/>
<path d="M2.50049 14.4359C2.77293 16.3737 3.07322 18.6904 3.39744 21.4516L14.278 18.8876L18.1873 29.5472C20.5454 28.4677 22.6784 27.5267 24.546 26.7255L18.6613 11.0068L2.50049 14.4359Z" fill="#748282"/>
</g>
<defs>
<clipPath id="clip0_202_10817">
<rect width="34" height="37" fill="white"/>
</clipPath>
</defs>
</svg>
