<svg width="37" height="30" viewBox="0 0 37 30" fill="none" xmlns="http://www.w3.org/2000/svg">
<g clip-path="url(#clip0_202_11037)">
<path d="M36.0034 6.34165C36.0034 3.47248 33.9368 1.13754 31.0668 1.13754C29.3708 1.13754 28.1398 1.7269 27.3627 2.69566C27.2174 2.80619 27.0902 2.93332 26.9636 3.06227C24.4587 1.60118 21.3973 0.756304 18.0196 0.74646C14.5127 0.756022 11.4109 1.57446 8.90836 3.01882C8.112 1.85009 6.7229 1.13754 4.84064 1.13754C1.97062 1.13754 0.00341797 3.47248 0.00341797 6.34165C0.00341797 8.54201 1.0837 10.2907 2.74223 11.0813C2.487 12.1201 2.33934 13.2102 2.33934 14.3564C2.33934 22.6639 9.22659 29.2583 18.0187 29.2583H18.027C26.5259 29.2583 33.7064 22.3936 33.7064 14.3639C33.7064 13.1921 33.5339 12.07 33.2393 10.9975C34.8736 10.1679 36.0034 8.46101 36.0034 6.34165Z" fill="#090B08"/>
<path d="M31.8981 14.4445C31.8981 21.3883 25.5106 27.3123 17.9938 27.3123C10.4768 27.3123 4.08838 21.6827 4.08838 14.7388C4.08838 7.79406 10.4768 2.16541 17.9938 2.16541C25.5106 2.16541 31.8981 7.49973 31.8981 14.4445Z" fill="white"/>
<path d="M15.1653 11.7775C14.8466 14.2008 13.2342 15.987 11.5661 15.7668C9.89787 15.5467 8.80381 13.4039 9.12331 10.9806C9.44281 8.55736 11.0542 6.77128 12.7233 6.99136C14.3915 7.2106 15.4856 9.3533 15.1653 11.7775Z" fill="#090B08"/>
<path d="M13.8385 9.4742C13.8385 10.1967 13.2525 10.7829 12.5298 10.7829C11.8072 10.7829 11.2212 10.1967 11.2212 9.4742C11.2212 8.75153 11.8072 8.16541 12.5298 8.16541C13.2525 8.16541 13.8385 8.75153 13.8385 9.4742Z" fill="white"/>
<path d="M20.803 11.7775C21.1225 14.2008 22.734 15.987 24.4022 15.7668C26.0713 15.5467 27.1645 13.4039 26.845 10.9806C26.5255 8.55736 24.9139 6.77128 23.2457 6.99136C21.5767 7.2106 20.4835 9.3533 20.803 11.7775Z" fill="#090B08"/>
<path d="M22.1313 9.4742C22.1313 10.1967 22.7165 10.7829 23.44 10.7829C24.1627 10.7829 24.7478 10.1967 24.7478 9.4742C24.7478 8.75153 24.1627 8.16541 23.44 8.16541C22.7165 8.16541 22.1313 8.75153 22.1313 9.4742Z" fill="white"/>
<path d="M18.967 20.2145V18.779C18.967 18.7011 18.9595 18.6274 18.9435 18.5602C20.0093 18.3553 20.7827 17.7828 20.7827 17.1007C20.7827 16.4319 20.6341 15.8625 19.6014 15.646C19.3152 15.5867 18.418 15.5541 18.0967 15.5541C17.7893 15.5541 16.905 15.5839 16.6301 15.6386C15.5767 15.8477 15.4096 16.4236 15.4096 17.1007C15.4096 17.9454 16.5887 18.6294 18.0517 18.6436C18.046 18.688 18.0382 18.7309 18.0382 18.779V20.2813C15.8887 20.2547 13.8882 18.7889 13.8882 19.7682C13.8882 20.7573 16.017 21.6946 18.1886 21.6946C20.3602 21.6946 22.1204 20.893 22.1204 19.9037C22.1204 19.0503 20.7403 19.9511 18.967 20.2145Z" fill="#090B08"/>
<path d="M19.2614 16.8067C19.2614 17.0826 18.5779 17.3073 18.0968 17.3073C17.6157 17.3073 16.9312 17.0826 16.9312 16.8067C16.9312 16.5866 17.2793 16.3998 17.6212 16.3321C17.7104 16.3143 17.9974 16.3051 18.0968 16.3051C18.2009 16.3051 18.4915 16.3163 18.5843 16.3349C18.9187 16.4045 19.2614 16.5893 19.2614 16.8067Z" fill="#E7EBE0"/>
<path d="M17.9938 2.16541C10.4768 2.16541 4.08838 7.79406 4.08838 14.7388C4.08838 21.6827 10.4768 27.3123 17.9938 27.3123C17.6937 27.3123 17.3956 27.3002 17.1003 27.2826C17.4922 27.2584 17.8795 27.2185 18.2631 27.1636C11.688 26.2386 6.44399 21.0297 6.44399 14.7388C6.44399 8.43039 11.7169 3.21039 18.3179 2.30758C17.9232 2.2547 17.5238 2.21659 17.1207 2.19339C17.4105 2.17666 17.7012 2.16541 17.9938 2.16541Z" fill="#E1DEDC"/>
<path d="M17.9937 2.16541C18.3958 2.16541 18.7942 2.18411 19.1899 2.21378C18.8973 2.23698 18.6057 2.26764 18.3178 2.30758C24.891 3.18817 30.1314 8.15448 30.1314 14.4445C30.1314 20.7511 24.8614 26.2135 18.2629 27.1636C18.5574 27.2045 18.8546 27.237 19.1537 27.2612C18.77 27.2927 18.3837 27.3123 17.9937 27.3123C25.5105 27.3123 31.8979 21.3883 31.8979 14.4445C31.8979 7.49973 25.5105 2.16541 17.9937 2.16541Z" fill="#F1EFEE"/>
<path d="M18.2629 27.1636C17.8793 27.2185 17.492 27.2584 17.1001 27.2826C17.3954 27.3002 17.6935 27.3123 17.9936 27.3123C18.3837 27.3123 18.77 27.2927 19.1536 27.2612C18.8545 27.237 18.5574 27.2045 18.2629 27.1636ZM17.9936 2.16541C17.701 2.16541 17.4103 2.17666 17.1205 2.19339C17.5237 2.21659 17.923 2.2547 18.3178 2.30758C18.6056 2.26764 18.8973 2.23698 19.1899 2.21378C18.7942 2.18411 18.3958 2.16541 17.9936 2.16541Z" fill="#D3D0CD"/>
<path d="M32.2077 8.41492C32.7829 7.90698 33.153 7.17222 33.153 6.34422C33.153 4.81351 31.9121 3.57166 30.3804 3.57166C29.7139 3.57166 29.1104 3.81662 28.6323 4.20855C30.1276 5.37756 31.3417 6.79928 32.2077 8.41492Z" fill="white"/>
<path d="M3.6662 8.53122C4.48421 6.86861 5.66181 5.42228 7.13795 4.23934C6.65434 3.82886 6.03615 3.57166 5.35215 3.57166C3.82145 3.57166 2.57959 4.81351 2.57959 6.34422C2.57959 7.23803 3.00976 8.02426 3.6662 8.53122Z" fill="white"/>
</g>
<defs>
<clipPath id="clip0_202_11037">
<rect width="37" height="30" fill="white"/>
</clipPath>
</defs>
</svg>
