<svg width="37" height="28" viewBox="0 0 37 28" fill="none" xmlns="http://www.w3.org/2000/svg">
<g clip-path="url(#clip0_202_9407)">
<path d="M19.7632 27.3779L29.6431 21.1302C29.6797 21.1077 29.7275 21.1175 29.75 21.1541C29.7725 21.1906 29.7626 21.2384 29.7261 21.2609L19.8138 27.5283C19.8012 27.5368 19.7871 27.541 19.773 27.541L19.7632 27.3779Z" fill="url(#paint0_linear_202_9407)"/>
<path d="M19.773 27.5387C19.7646 27.5387 19.7547 27.5373 19.7463 27.5345L6.27634 22.5144C6.23556 22.4989 6.21587 22.4553 6.23134 22.4145C6.24681 22.3737 6.2904 22.3541 6.33118 22.3695L19.766 27.3756L19.773 27.5387Z" fill="url(#paint1_linear_202_9407)"/>
<path d="M33.9082 3.5378L32.353 6.11255L26.1053 8.76885L25.7579 8.9165L20.143 14.1672C20.0347 14.2755 19.9616 14.4302 19.9489 14.516C19.9433 14.5455 19.918 14.5328 19.8941 14.5314C19.8688 14.53 19.8336 14.5399 19.8308 14.5089C19.828 14.3964 19.8154 14.2713 19.634 14.1588L16.8202 12.3364L14.7685 11.0061L8.98906 9.52397L4.15175 8.28371L1.08765 3.52374L1.13405 3.4703L1.13686 3.46609L12.6395 0.476515C12.6564 0.47089 12.6592 0.473636 12.6663 0.483546L16.5895 6.36004L16.6669 6.47534C16.7513 6.59909 16.7597 6.67502 16.7597 6.72986H16.8314C16.8314 6.72565 16.8314 6.72143 16.8314 6.71721C16.8314 6.71158 16.8314 6.70455 16.8328 6.69752C16.8328 6.6933 16.8342 6.68909 16.8342 6.68346C16.8356 6.67784 16.8356 6.67221 16.837 6.66659C16.8384 6.66096 16.8384 6.65534 16.8398 6.64831C16.8441 6.62862 16.8497 6.60612 16.8553 6.58362C16.8567 6.57659 16.8595 6.56956 16.8609 6.56393C16.868 6.54143 16.875 6.51753 16.8834 6.49503C16.8877 6.48659 16.8905 6.47675 16.8947 6.46831C16.9059 6.44019 16.9172 6.41488 16.9298 6.39238C16.9411 6.36988 16.9523 6.3516 16.9636 6.33613L20.5002 1.19227C20.5086 1.17961 20.5128 1.17399 20.5311 1.1768L33.8857 3.47452L33.9082 3.5378Z" fill="#E8B67F"/>
<path d="M16.8201 12.3344H16.8187L14.7685 11.0055L8.98901 9.52337L16.7596 6.72926L16.7807 6.68848V6.72926L16.8201 12.3344Z" fill="url(#paint2_linear_202_9407)"/>
<path d="M16.7597 6.72877L8.98906 9.52147L8.28877 9.34148L4.15175 8.2798L1.08765 3.51983L1.13686 3.46218L12.6395 0.472609C12.6564 0.466984 12.6592 0.46973 12.6663 0.47964L16.5895 6.35613L16.6669 6.47144C16.7513 6.598 16.7597 6.67393 16.7597 6.72877Z" fill="url(#paint3_linear_202_9407)"/>
<path d="M16.7871 7.0247L9.43975 9.66554L8.2937 9.37164L16.5945 6.3877L16.6718 6.503C16.7562 6.62675 16.7646 6.70268 16.7646 6.75752H16.7857L16.7871 7.0247Z" fill="url(#paint4_linear_202_9407)"/>
<path d="M4.25727 8.30985L4.15321 8.28313L1.08911 3.52316L1.13552 3.46973L4.25727 8.30985Z" fill="#D2A679"/>
<path d="M26.1053 8.76683L25.758 8.91448L20.143 14.1652C20.0348 14.2735 19.9616 14.4282 19.949 14.514C19.9434 14.5435 19.918 14.5308 19.8941 14.5294C19.8688 14.528 19.8337 14.5379 19.8309 14.5069C19.828 14.3944 19.8154 14.2693 19.634 14.1568L16.8202 12.3329L16.7822 6.72926V6.68848L16.8343 6.72926L26.1053 8.76683Z" fill="url(#paint5_linear_202_9407)"/>
<path d="M33.9081 3.53597L32.3529 6.11071L26.6662 8.52796L26.1066 8.76561L16.8327 6.72803C16.8271 6.65632 16.8763 6.4932 16.9297 6.38914C16.941 6.36664 16.9522 6.34836 16.9635 6.33289L20.5001 1.18903C20.5085 1.17637 20.5127 1.17075 20.531 1.17356L33.8856 3.47128L33.9081 3.53597Z" fill="url(#paint6_linear_202_9407)"/>
<path d="M26.6663 8.52792L25.7593 8.91322L25.6426 9.02572L16.7808 7.06689L16.8215 6.72659H16.8328C16.8272 6.65487 16.8764 6.49175 16.9298 6.3877L26.6663 8.52792Z" fill="url(#paint7_linear_202_9407)"/>
<path opacity="0.75" d="M17.0269 6.76973V12.4662L16.8202 12.3326H16.8188L16.5474 12.1555V6.80347L16.7597 6.72754H16.8314L17.0269 6.76973Z" fill="url(#paint8_linear_202_9407)"/>
<path d="M19.7183 27.4474L6.23708 22.4175C6.16115 22.3851 6.1499 22.3134 6.14568 22.2248C6.14568 22.2248 5.56633 10.7362 5.56492 10.7348C5.56351 10.7053 5.60007 10.687 5.59726 10.6687C5.58742 10.6251 5.50445 10.4606 5.47774 10.4437L0.00341797 7.33321L0.0498224 7.22775L14.7685 11.0048L19.6325 14.1561C19.8139 14.2686 19.828 14.3937 19.8294 14.5062C19.8308 14.5372 19.8673 14.5273 19.8926 14.5287C19.918 14.5301 19.9419 14.5428 19.9475 14.5132C19.9601 14.4275 20.0333 14.2728 20.1415 14.1659L25.7565 8.91518L35.9387 4.58691L36.0006 4.67269L30.5038 9.50297C30.3969 9.60984 30.3477 9.74062 30.3688 9.79406L29.8063 21.0535C29.7979 21.1252 29.7641 21.1463 29.6924 21.1955L19.8378 27.4334C19.7984 27.4587 19.7562 27.4657 19.7183 27.4474Z" fill="#BF9064"/>
<path d="M19.8926 14.5297L19.7956 27.4541C19.7689 27.4611 19.7421 27.4597 19.7168 27.4484L6.23564 22.4199C6.1597 22.3876 6.14845 22.3144 6.14424 22.2272C6.14424 22.2272 5.56348 10.7386 5.56348 10.7372V10.7344C5.56348 10.7316 5.56348 10.7288 5.56488 10.726C5.56488 10.7232 5.56629 10.7218 5.5677 10.7204C5.5691 10.7175 5.57051 10.7161 5.57191 10.7133C5.57332 10.7105 5.57473 10.7091 5.57613 10.7063C5.58176 10.6979 5.59019 10.6894 5.59301 10.6824C5.59441 10.681 5.59441 10.6796 5.59441 10.6782C5.59441 10.6782 5.59441 10.6782 5.59441 10.6768L19.8307 14.5129C19.8364 14.5382 19.8701 14.5283 19.8926 14.5297Z" fill="#BD8F63"/>
<path opacity="0.54" d="M19.7969 27.415V27.4516C19.7702 27.4586 19.7435 27.4572 19.7182 27.4459L6.23696 22.4174C6.18352 22.3949 6.16243 22.3513 6.15259 22.2979L19.7969 27.415Z" fill="url(#paint9_linear_202_9407)"/>
<path d="M13.7012 19.5752L18.921 21.2823L18.9083 26.3727L13.7855 24.4913L13.7012 19.5752ZM16.3167 22.9951L16.3293 25.3533L18.8575 26.282L18.8577 23.8782L16.3167 22.9951ZM17.0636 23.7569L17.5745 24.57L18.075 24.1316L18.1621 24.231L17.6457 24.6833L18.1633 25.5071L18.0883 25.5543L17.5782 24.7424L17.0802 25.179L16.9931 25.0795L17.507 24.6291L16.9886 23.804L17.0636 23.7569ZM18.568 24.6727V24.9047L18.7016 24.9483V25.2098L18.568 25.1564V25.3673L18.2755 24.923L18.568 24.6727ZM18.118 24.39L18.2207 24.4223V25.349L18.118 25.3125V24.39ZM13.8038 22.1218L13.8418 24.4434L16.2576 25.3265L16.2436 22.974L13.8038 22.1218ZM17.5809 24.8892L17.8452 25.3153L17.3179 25.124L17.5809 24.8892ZM17.9887 24.4983V25.1029L17.7145 24.7162L17.9887 24.4983ZM16.9425 23.9597L17.0437 23.9935V24.9187L16.9425 24.8836V23.9597ZM17.1703 24.2086L17.4318 24.6122L17.1703 24.8133V24.2086ZM14.985 23.0879L15.0849 23.1202L15.0851 23.1796C15.3823 23.2992 15.6759 23.5973 15.8175 24.061C15.7247 23.9049 15.6431 23.8753 15.4983 23.9246C15.4449 23.8135 15.2874 23.7544 15.1931 23.8135C15.1674 23.7645 15.1296 23.7279 15.0883 23.7043L15.0933 24.5869C15.0933 24.6684 15.0371 24.7416 14.8978 24.7134C14.7713 24.6825 14.7193 24.5855 14.7333 24.4195L14.8036 24.4308C14.8036 24.5419 14.8121 24.6052 14.8964 24.6248C14.9682 24.6417 15.0005 24.615 15.0005 24.5489L14.9912 23.6735C14.9513 23.6706 14.9143 23.6805 14.888 23.7038C14.8557 23.6222 14.7024 23.5125 14.5871 23.5941C14.5055 23.4647 14.3522 23.4155 14.2665 23.5097C14.3759 23.1786 14.6735 23.0625 14.9855 23.1462L14.985 23.0879ZM16.5853 23.9499L16.8707 24.3999L16.5881 24.6347L16.5937 24.4139L16.4559 24.3816V24.1256L16.5853 24.1735V23.9499ZM17.3095 24.0469L17.8438 24.241L17.5766 24.4758L17.3095 24.0469ZM16.3125 20.5033L16.3181 22.9079L18.8591 23.7938V21.3372L16.3125 20.5033ZM16.7864 22.5802L18.3051 23.0991V23.4015L16.7864 22.8783V22.5802ZM15.4732 23.1524L15.4786 23.154C15.4884 23.1638 15.4884 23.2693 15.4561 23.2932C15.4406 23.3002 15.4167 23.3016 15.397 23.2861C15.3774 23.2707 15.3661 23.2482 15.3745 23.2144C15.383 23.1807 15.4674 23.1441 15.4786 23.154L15.4732 23.1524ZM15.6138 22.9119L15.6192 22.9135C15.6305 22.9233 15.6305 23.0288 15.5967 23.0527C15.5813 23.0597 15.5573 23.0612 15.5377 23.0457C15.518 23.0302 15.5067 23.0077 15.5152 22.974C15.5236 22.9402 15.608 22.9037 15.6192 22.9135L15.6138 22.9119ZM15.2201 22.9021L15.2255 22.9037C15.2367 22.9135 15.2367 23.019 15.203 23.0429C15.1875 23.0499 15.1636 23.0513 15.1439 23.0358C15.1242 23.0204 15.113 22.9979 15.1214 22.9641C15.1299 22.9304 15.2142 22.8938 15.2255 22.9037L15.2201 22.9021ZM14.8221 22.8444L14.8275 22.846C14.8388 22.8558 14.8388 22.9613 14.805 22.9852C14.7896 22.9922 14.7657 22.9937 14.746 22.9782C14.7263 22.9627 14.715 22.9402 14.7235 22.9065C14.7319 22.8727 14.8163 22.8362 14.8275 22.846L14.8221 22.8444ZM17.9591 21.2654L18.3276 21.9924L18.0758 21.9067V22.9599L17.8241 22.8727L17.8255 21.8279L17.5752 21.7464L17.9591 21.2654ZM13.756 19.6652L13.7996 22.0374L16.245 22.8783L16.2239 20.4752L13.756 19.6652ZM17.1281 20.9884L17.4965 21.7154L17.2448 21.6296V22.6829L16.9931 22.5957L16.9959 21.5509L16.7442 21.4693L17.1281 20.9884ZM14.303 20.1419L14.5027 20.208L14.5955 20.5441L14.4915 20.537L14.7882 21.2542L14.6349 20.6636L14.7221 20.6622L14.6335 20.2502L15.6642 20.5905V21.1572C15.6642 21.3723 15.4308 21.6437 15.1017 21.5087L15.1031 22.0782L15.5756 22.382L14.4324 21.9854L14.8922 22.0079L14.8838 21.444C14.5575 21.347 14.3213 20.9547 14.3213 20.7156L14.303 20.1419Z" fill="#322214"/>
<path d="M19.8926 14.5285C19.8364 14.5299 19.7942 14.6044 19.7928 14.6719L19.7801 14.6776L5.56351 10.7346C5.56211 10.7079 5.59304 10.691 5.59586 10.6741C5.59726 10.6727 5.59726 10.6713 5.59586 10.6699C5.58601 10.6263 5.50305 10.4618 5.47633 10.4449L0.00341797 7.333L0.0498224 7.22754L14.7671 11.0032H14.7685L19.6325 14.1545C19.8139 14.2684 19.828 14.3921 19.8294 14.5046C19.8294 14.506 19.8294 14.5088 19.8308 14.5102C19.8364 14.5369 19.8701 14.5271 19.8926 14.5285Z" fill="url(#paint10_linear_202_9407)"/>
<path d="M30.5053 9.50297C30.3984 9.60984 30.3492 9.74062 30.3703 9.79405L20.0165 14.6932L19.9954 14.6764C19.994 14.5948 19.942 14.54 19.9026 14.5315C19.9237 14.5343 19.9434 14.5414 19.949 14.5147C19.9518 14.4978 19.956 14.4781 19.9631 14.457C19.9687 14.4387 19.9771 14.419 19.987 14.3979C20.0165 14.3304 20.0615 14.2573 20.1191 14.1926C20.1276 14.1842 20.136 14.1744 20.1445 14.1659L25.7594 8.91518L35.9416 4.58691L36.0035 4.67269L30.5053 9.50297Z" fill="#CD9C6B"/>
<path d="M13.5029 15.8155C13.5184 15.8198 13.524 15.8212 13.524 15.8085L13.4706 12.9483C13.4663 12.8513 13.4424 12.66 13.3257 12.5827L8.14109 9.43283L5.71118 8.80566L10.9802 11.9541C11.1124 12.0413 11.1236 12.2044 11.1293 12.3254L11.2052 15.1068C11.2052 15.1209 11.208 15.1237 11.2178 15.1279L13.5029 15.8155Z" fill="url(#paint11_linear_202_9407)"/>
<path d="M19.8926 14.5302C19.835 14.5316 19.7928 14.6104 19.7928 14.6793C19.7914 14.6849 19.7815 14.6835 19.7801 14.6793C19.7689 14.526 19.7056 14.3544 19.6226 14.294L14.7192 11.1328L14.767 11.0049H14.7685L19.6325 14.1562C19.8139 14.2701 19.8279 14.3938 19.8294 14.5063C19.8294 14.5077 19.8293 14.5105 19.8308 14.5119C19.8364 14.5387 19.8701 14.5288 19.8926 14.5302Z" fill="#D4A271"/>
<path d="M14.7671 11.0071L14.7192 11.1336L0.00341797 7.3355L0.0498224 7.23145L14.7671 11.0071Z" fill="#DEB37E"/>
<path d="M30.3717 9.79098L29.8092 21.0504C29.8008 21.1221 29.767 21.1432 29.6953 21.1924L19.8407 27.4303C19.8267 27.4401 19.8112 27.4458 19.7971 27.45L19.8941 14.5256C19.9195 14.527 19.9434 14.5397 19.949 14.5102C19.949 14.5059 19.9504 14.5031 19.9504 14.4989L30.3689 9.77832C30.3689 9.78535 30.3703 9.78816 30.3717 9.79098Z" fill="#DBAD77"/>
<path opacity="0.54" d="M29.8092 21.0479V21.0535C29.8008 21.1252 29.767 21.1463 29.6953 21.1955L19.8407 27.4334C19.8267 27.4432 19.8112 27.4489 19.7971 27.4531V27.4165L29.8092 21.0479Z" fill="url(#paint12_linear_202_9407)"/>
<path d="M29.625 16.1494L29.4 20.7336L26.1235 22.774L26.2923 18.0028L29.625 16.1494ZM27.8728 19.468L26.2445 20.4257L26.1671 22.6826L27.7885 21.6744L27.8728 19.468ZM27.0952 20.4369L27.0922 20.5129C27.2868 20.4158 27.4706 20.4834 27.548 20.8053C27.4946 20.7308 27.3975 20.7603 27.3329 20.9122C27.3033 20.8489 27.1529 20.9009 27.1304 21.0331C27.1184 21.0117 27.0968 21.0038 27.072 21.0066L27.0362 21.8768C27.0333 21.9514 27.0291 22.0315 26.9349 22.0892C26.8913 22.1089 26.776 22.1243 26.7915 21.9626L26.8463 21.9204C26.8421 22.0231 26.8688 22.054 26.9251 22.0203C26.9926 21.9795 26.9799 21.9148 26.9827 21.8543L27.0131 21.0298C26.9735 21.0559 26.9377 21.1013 26.9279 21.1555C26.911 21.1048 26.7479 21.1358 26.7282 21.2806C26.6818 21.2187 26.5552 21.2792 26.5074 21.4353C26.5956 21.0299 26.8138 20.6935 27.0311 20.5486L27.0333 20.4819L27.0952 20.4369ZM29.4717 18.5231L27.9192 19.4413L27.8335 21.6533L29.369 20.6872L29.4717 18.5231ZM28.9922 19.2684L29.0372 19.3105L28.6988 20.078L28.9781 20.4636L28.9331 20.5592L28.6547 20.1782L28.32 20.9375L28.2736 20.8953L28.6145 20.1232L28.3256 19.7282L28.3763 19.6326L28.6588 20.0228L28.9922 19.2684ZM28.0472 20.15L28.223 20.3638L28.036 20.766V20.5888L27.9572 20.6366L27.9614 20.4074L28.0402 20.361L28.0472 20.15ZM28.3509 19.8716L28.3144 20.7195L28.2511 20.7617L28.2863 19.9166L28.3509 19.8716ZM28.6477 20.3146L28.7981 20.5128L28.4747 20.7097L28.6477 20.3146ZM26.9251 20.3764C26.9321 20.3764 26.9279 20.4735 26.904 20.5213C26.8955 20.5381 26.8801 20.5564 26.8674 20.5578C26.8548 20.5592 26.8491 20.5452 26.8562 20.5086C26.8632 20.4721 26.918 20.3764 26.9251 20.3764ZM28.4213 19.9869L28.5703 20.1711L28.3959 20.5157L28.4213 19.9869ZM27.3526 20.2007C27.3582 20.2021 27.354 20.2991 27.3315 20.3455C27.323 20.3624 27.3076 20.3807 27.2949 20.3821C27.2822 20.3835 27.2766 20.3694 27.2836 20.3328C27.2907 20.2963 27.3455 20.2007 27.3526 20.2007ZM27.9769 17.1295L26.3317 18.052L26.2459 20.3539L27.8785 19.3921L27.9769 17.1295ZM29.0611 19.4399L29.0217 20.2864L28.9655 20.323L29.0034 19.4779L29.0611 19.4399ZM27.1979 20.1374C27.2049 20.1374 27.2007 20.2344 27.1768 20.2822C27.1683 20.2991 27.1529 20.3174 27.1402 20.3188C27.1276 20.3202 27.1219 20.3061 27.129 20.2696C27.136 20.233 27.1908 20.1374 27.1979 20.1374ZM28.9162 19.686L28.8937 20.226L28.7475 20.0516L28.9162 19.686ZM29.265 19.4287L29.2565 19.6368L29.3381 19.5918L29.3283 19.8224L29.2495 19.8688L29.2467 20.0586L29.0765 19.8547L29.265 19.4287ZM27.4608 19.859C27.4679 19.859 27.4636 19.956 27.4397 20.0038C27.4313 20.0207 27.4158 20.039 27.4032 20.0404C27.3905 20.0418 27.3849 20.0277 27.3919 19.9911C27.399 19.9546 27.4538 19.859 27.4608 19.859ZM28.8361 19.5327L28.6617 19.9321L28.5113 19.7282L28.8361 19.5327ZM27.5944 17.6189L27.5733 18.1982C27.5649 18.3951 27.4074 18.7523 27.1726 18.9013L27.1472 19.4483L27.4608 19.3809L26.6973 19.8224L27.0151 19.5201L27.0319 18.9829C26.828 19.0996 26.6649 18.8831 26.6748 18.6637L26.693 18.1321L26.8309 18.0576L26.8758 18.3135L26.8013 18.374L26.9658 18.8507L26.9026 18.4162L26.9588 18.3515L26.9152 18.0098L27.5944 17.6189ZM29.5912 16.2324L28.0163 17.1127L27.9178 19.3752L29.4787 18.4415L29.5912 16.2324ZM29.1806 18.1828L29.1609 18.4514L28.2385 18.997L28.2511 18.7256L29.1806 18.1828ZM28.5281 17.0227L28.732 17.453L28.5788 17.5387L28.5323 18.5048L28.3861 18.5892L28.4142 17.6231L28.2666 17.7117L28.5281 17.0227ZM29.04 16.7386L29.2383 17.1619L29.0751 17.2533L29.0414 18.2123L28.8853 18.2995L28.9345 17.3334L28.7812 17.4206L29.04 16.7386Z" fill="#322214"/>
<path d="M25.8409 9.02472L20.2738 14.1995C20.1163 14.35 20.0122 14.575 20.0164 14.6917C20.0136 14.6973 19.9996 14.7015 19.9939 14.6917C20.001 14.6017 19.9433 14.5398 19.9011 14.53C19.9222 14.5328 19.9419 14.5398 19.9475 14.5131C19.9503 14.4962 19.9546 14.4765 19.9616 14.4554C19.9672 14.4372 19.9757 14.4175 19.9855 14.3964C20.0192 14.3205 20.0741 14.2333 20.1416 14.1658L25.7565 8.91504L25.8409 9.02472Z" fill="#D7AA77"/>
<path d="M24.6133 15.3041C24.6133 15.3195 24.6203 15.3266 24.6302 15.3223L26.3021 14.4646C26.3049 14.4632 26.3063 14.4603 26.3077 14.4547L26.4006 11.714C26.4034 11.5636 26.4877 11.4145 26.603 11.3119L32.1561 6.32129L30.4659 7.04548L24.8847 12.1022C24.7412 12.2428 24.692 12.4087 24.6892 12.5493L24.6133 15.3041Z" fill="url(#paint13_linear_202_9407)"/>
<path d="M25.8408 9.02487L36.0019 4.67129L35.9401 4.58691L25.7578 8.91378L25.8408 9.02487Z" fill="#F8CE93"/>
</g>
<defs>
<linearGradient id="paint0_linear_202_9407" x1="24.7011" y1="24.2976" x2="24.7534" y2="24.3803" gradientUnits="userSpaceOnUse">
<stop/>
<stop offset="1" stop-opacity="0"/>
</linearGradient>
<linearGradient id="paint1_linear_202_9407" x1="13.0195" y1="24.9481" x2="13.0127" y2="24.9665" gradientUnits="userSpaceOnUse">
<stop/>
<stop offset="1" stop-opacity="0"/>
</linearGradient>
<linearGradient id="paint2_linear_202_9407" x1="15.3716" y1="9.31646" x2="16.262" y2="9.68555" gradientUnits="userSpaceOnUse">
<stop stop-color="#C37A44"/>
<stop offset="0.4442" stop-color="#BB713D"/>
<stop offset="0.6406" stop-color="#A05728"/>
<stop offset="1" stop-color="#964E23"/>
</linearGradient>
<linearGradient id="paint3_linear_202_9407" x1="11.0355" y1="6.02023" x2="9.10413" y2="3.30934" gradientUnits="userSpaceOnUse">
<stop stop-color="#E9B880"/>
<stop offset="1" stop-color="#E4AF76"/>
</linearGradient>
<linearGradient id="paint4_linear_202_9407" x1="12.6164" y1="8.06324" x2="12.5798" y2="7.9626" gradientUnits="userSpaceOnUse">
<stop stop-color="#C37A45" stop-opacity="0"/>
<stop offset="0.1334" stop-color="#C37A45"/>
<stop offset="0.2945" stop-color="#D08D55"/>
<stop offset="0.5021" stop-color="#DEA167"/>
<stop offset="0.6966" stop-color="#E8AF73"/>
<stop offset="0.8631" stop-color="#ECB477"/>
<stop offset="1" stop-color="#ECB477" stop-opacity="0"/>
</linearGradient>
<linearGradient id="paint5_linear_202_9407" x1="21.2035" y1="8.95854" x2="19.4373" y2="13.0177" gradientUnits="userSpaceOnUse">
<stop offset="0.0881" stop-color="#AF6938"/>
<stop offset="0.4829" stop-color="#9A5227"/>
<stop offset="0.7792" stop-color="#8D4520"/>
</linearGradient>
<linearGradient id="paint6_linear_202_9407" x1="23.8585" y1="5.52256" x2="24.879" y2="3.68775" gradientUnits="userSpaceOnUse">
<stop offset="0.0327" stop-color="#E4AF76"/>
<stop offset="1" stop-color="#E9B880"/>
</linearGradient>
<linearGradient id="paint7_linear_202_9407" x1="21.6864" y1="7.71911" x2="21.6985" y2="7.66549" gradientUnits="userSpaceOnUse">
<stop stop-color="#AF6A38" stop-opacity="0"/>
<stop offset="0.086" stop-color="#AF6A38"/>
<stop offset="0.1977" stop-color="#B87542"/>
<stop offset="0.5828" stop-color="#D59C66"/>
<stop offset="0.7771" stop-color="#E4AF76"/>
<stop offset="0.9239" stop-color="#E4AF76" stop-opacity="0"/>
</linearGradient>
<linearGradient id="paint8_linear_202_9407" x1="16.5867" y1="9.59725" x2="16.9945" y2="9.59725" gradientUnits="userSpaceOnUse">
<stop stop-color="#743F1A" stop-opacity="0"/>
<stop offset="0.4929" stop-color="#743F1A" stop-opacity="0.8872"/>
<stop offset="0.5" stop-color="#743F1A" stop-opacity="0.9"/>
<stop offset="0.5297" stop-color="#743F1A" stop-opacity="0.8466"/>
<stop offset="1" stop-color="#743F1A" stop-opacity="0"/>
</linearGradient>
<linearGradient id="paint9_linear_202_9407" x1="12.9612" y1="24.8816" x2="12.9645" y2="24.8728" gradientUnits="userSpaceOnUse">
<stop stop-color="#322214"/>
<stop offset="0.2397" stop-color="#322314" stop-opacity="0.9891"/>
<stop offset="1" stop-color="#322214" stop-opacity="0"/>
</linearGradient>
<linearGradient id="paint10_linear_202_9407" x1="10.2225" y1="10.8211" x2="10.1106" y2="11.1947" gradientUnits="userSpaceOnUse">
<stop offset="0.0476" stop-color="#C69866"/>
<stop offset="0.4156" stop-color="#BA8C5E"/>
<stop offset="0.8135" stop-color="#B5875B"/>
</linearGradient>
<linearGradient id="paint11_linear_202_9407" x1="10.6363" y1="12.0908" x2="7.98213" y2="9.14304" gradientUnits="userSpaceOnUse">
<stop stop-color="#845F35"/>
<stop offset="0.4311" stop-color="#91673C"/>
<stop offset="0.4407" stop-color="#976A40"/>
<stop offset="0.8737" stop-color="#986B40"/>
<stop offset="1" stop-color="#AB8157"/>
</linearGradient>
<linearGradient id="paint12_linear_202_9407" x1="24.803" y1="24.2507" x2="24.8094" y2="24.2607" gradientUnits="userSpaceOnUse">
<stop stop-color="#322214" stop-opacity="0"/>
<stop offset="1" stop-color="#322214"/>
</linearGradient>
<linearGradient id="paint13_linear_202_9407" x1="28.0571" y1="11.9587" x2="28.569" y2="9.36982" gradientUnits="userSpaceOnUse">
<stop stop-color="#A9794B"/>
<stop offset="0.3857" stop-color="#AE7F53"/>
<stop offset="0.4557" stop-color="#AC7D50"/>
<stop offset="0.6236" stop-color="#A9794B"/>
<stop offset="1" stop-color="#B2875D"/>
</linearGradient>
<clipPath id="clip0_202_9407">
<rect width="37" height="28" fill="white"/>
</clipPath>
</defs>
</svg>
