<svg width="37" height="37" viewBox="0 0 37 37" fill="none" xmlns="http://www.w3.org/2000/svg">
<g clip-path="url(#clip0_202_11764)">
<path d="M9.01184 17.8216C9.01184 12.6608 13.2107 8.46161 18.3718 8.46161C23.5327 8.46161 27.7318 12.6608 27.7318 17.8216C27.7318 22.9827 23.5327 27.1816 18.3718 27.1816C13.2107 27.1816 9.01184 22.9827 9.01184 17.8216Z" fill="#21BBD1"/>
<path d="M36.0054 2.88159C36.0054 1.29759 34.616 0.00158691 33.032 0.00158691H18.3718C8.43091 0.00158691 0.00537109 7.88044 0.00537109 17.8216V36.0016H4.3768V17.8216C4.3768 10.2786 10.6714 4.14159 18.2144 4.14159C25.7575 4.14159 31.9729 10.2783 31.9729 17.8216C31.9729 25.3646 25.7436 31.5016 18.2005 31.5016C14.5815 31.5016 10.8054 30.0868 8.74823 27.7846V36.0016H18.3718C28.3129 36.0016 36.0054 27.7627 36.0054 17.8216V2.88159Z" fill="#20222D"/>
</g>
<defs>
<clipPath id="clip0_202_11764">
<rect width="37" height="37" fill="white"/>
</clipPath>
</defs>
</svg>
