<svg width="37" height="37" viewBox="0 0 37 37" fill="none" xmlns="http://www.w3.org/2000/svg">
<g clip-path="url(#clip0_202_15363)">
<path d="M21.0022 22.3832H12.1522C10.8622 22.3832 10.1122 23.1782 10.1122 24.3182C10.1122 25.3382 10.8022 26.0582 11.7922 26.0582C12.9472 26.0582 13.6072 25.2632 13.6672 24.1232H16.2322C16.0972 26.9132 14.3572 28.3982 11.7622 28.3982C9.3322 28.3982 7.5172 26.7482 7.5172 24.2882C7.5172 21.7232 9.4222 19.9382 12.2872 19.9382H21.0472C24.0022 19.9382 26.2522 17.7632 26.2522 14.8382C26.2522 11.8832 24.2422 9.79817 21.3772 9.79817C18.5422 9.79817 16.2472 11.8682 16.2472 15.6932V18.1982H13.6522V15.6932C13.6522 10.6232 16.9072 7.33817 21.4222 7.33817C25.7272 7.33817 28.8622 10.4282 28.8622 14.8082C28.8922 19.1882 25.5322 22.3832 21.0022 22.3832ZM18.0022 36.0032C28.0672 36.0032 36.0022 28.0382 36.0022 18.0032C36.0022 7.96817 28.0672 0.00317383 18.0022 0.00317383C7.9372 0.00317383 0.00219727 7.99817 0.00219727 18.0032C0.00219727 28.0382 7.9372 36.0032 18.0022 36.0032Z" fill="#169CEE"/>
</g>
<defs>
<clipPath id="clip0_202_15363">
<rect width="37" height="37" fill="white"/>
</clipPath>
</defs>
</svg>
