<svg width="33" height="40" viewBox="0 0 33 40" fill="none" xmlns="http://www.w3.org/2000/svg">
<g clip-path="url(#clip0_202_14592)">
<path d="M16.002 0.000396729C7.16195 0.000396729 0.00195312 7.1604 0.00195312 16.0004H8.00195C8.00195 11.5844 11.586 8.0004 16.002 8.0004V0.000396729Z" fill="#D6FF00"/>
<path d="M32.002 16.0004C32.002 7.1604 24.842 0.000396729 16.002 0.000396729V8.0004C20.418 8.0004 24.002 11.5844 24.002 16.0004H32.002Z" fill="#34E27A"/>
<path d="M16.002 32.0004C24.842 32.0004 32.002 24.8404 32.002 16.0004H24.002C24.002 20.4164 20.418 24.0004 16.002 24.0004V32.0004Z" fill="#00B9F1"/>
<path d="M8.00195 32.0004V16.0004H0.00195312V40.0004H16.002V32.0004H8.00195Z" fill="white"/>
</g>
<defs>
<clipPath id="clip0_202_14592">
<rect width="33" height="40.0004" fill="white"/>
</clipPath>
</defs>
</svg>
