<svg width="37" height="34" viewBox="0 0 37 34" fill="none" xmlns="http://www.w3.org/2000/svg">
<g clip-path="url(#clip0_202_15119)">
<path d="M19.3993 0.653381L19.4543 0.654317L19.6069 0.661569C20.3682 0.71385 21.0957 1.00578 21.6881 1.50665L21.8047 1.6096L21.9153 1.71604L35.0109 14.8719C36.3227 16.1895 36.3344 18.2478 35.0635 19.6031L34.9749 19.6944L34.8838 19.7818L21.3065 32.3656C19.9334 33.6389 17.8171 33.6776 16.43 32.4739L16.3345 32.3879L16.2428 32.299L8.65631 24.6825C8.55331 24.5791 8.5702 24.4074 8.69136 24.326C10.2928 23.2508 11.458 21.6452 11.9629 19.8027L12.0112 19.6176L12.0569 19.4231C12.0784 19.3313 12.1528 19.2631 12.2432 19.2474L12.2828 19.2441H17.9425C18.0565 19.2441 18.1512 19.3261 18.1709 19.4344L18.1746 19.4761V21.6738C18.1746 22.3409 18.6737 22.8926 19.319 22.968L19.3971 22.9747L19.4779 22.9771H22.2626C22.9297 22.9771 23.4815 22.478 23.5568 21.8327L23.5636 21.7546L23.5659 21.6738V19.4761C23.5659 19.3622 23.648 19.2674 23.7562 19.2478L23.798 19.2441H24.7914C25.4709 19.2441 26.0262 18.7414 26.1009 18.0847L26.1076 18.0051L26.1098 17.9257V16.4807C26.1098 15.7981 25.604 15.2324 24.9499 15.1563L24.8707 15.1495L24.7914 15.1473H11.9818C11.8845 15.1473 11.7976 15.0867 11.764 14.9954C11.0958 13.1818 9.77134 11.6641 8.05498 10.7258L7.88205 10.6339L7.70814 10.5467C7.5765 10.4806 7.54165 10.3135 7.6257 10.201L7.6545 10.169L16.8515 1.64936C17.4698 1.076 18.2519 0.734095 19.0684 0.669963L19.2239 0.658922L19.3446 0.653835L19.3993 0.653381ZM4.03468 13.8015C6.25871 13.8015 8.0635 15.5705 8.0635 17.7551C8.0635 19.9396 6.25871 21.7087 4.03468 21.7087C1.81065 21.7087 0.00585938 19.9396 0.00585938 17.7551C0.00585938 15.5705 1.81065 13.8015 4.03468 13.8015Z" fill="#D40000"/>
</g>
<defs>
<clipPath id="clip0_202_15119">
<rect width="37" height="34" fill="white"/>
</clipPath>
</defs>
</svg>
