<svg width="32" height="37" viewBox="0 0 32 37" fill="none" xmlns="http://www.w3.org/2000/svg">
<path d="M9.41405 34.7827L10.038 30.8197L8.64816 30.7875H2.01172L6.62371 1.54445C6.63802 1.45617 6.68455 1.37385 6.75255 1.3154C6.82055 1.25694 6.90763 1.22473 6.9983 1.22473H18.1883C21.9032 1.22473 24.4668 1.99777 25.8053 3.52357C26.4328 4.23935 26.8325 4.98733 27.0257 5.81048C27.2285 6.67418 27.2321 7.70609 27.0341 8.96467L27.0198 9.05652V9.86297L27.6473 10.2185C28.1758 10.4988 28.5957 10.8197 28.9178 11.1872C29.4546 11.7991 29.8018 12.577 29.9485 13.4991C30.1 14.4475 30.0499 15.5761 29.8018 16.8537C29.5154 18.3234 29.0526 19.6035 28.4275 20.6509C27.8525 21.616 27.12 22.4165 26.2503 23.0368C25.42 23.6262 24.4334 24.0735 23.318 24.3598C22.2372 24.6414 21.0049 24.7833 19.6532 24.7833H18.7824C18.1596 24.7833 17.5548 25.0076 17.08 25.4096C16.604 25.82 16.2891 26.3807 16.1925 26.9939L16.1268 27.3506L15.0245 34.3354L14.9744 34.5919C14.9613 34.673 14.9387 34.7135 14.9052 34.741C14.8754 34.766 14.8325 34.7827 14.7907 34.7827H9.41405Z" fill="#253B80"/>
<path d="M28.2418 9.14954C28.2084 9.36308 28.1703 9.58139 28.1273 9.80566C26.6516 17.3822 21.603 19.9995 15.1551 19.9995H11.872C11.0835 19.9995 10.419 20.5721 10.2961 21.35L8.61524 32.0103L8.13925 35.032C8.05932 35.5426 8.45299 36.0031 8.96835 36.0031H14.7912C15.4807 36.0031 16.0665 35.5021 16.175 34.8221L16.2323 34.5262L17.3286 27.5689L17.399 27.1871C17.5064 26.5047 18.0933 26.0037 18.7828 26.0037H19.6537C25.2952 26.0037 29.7116 23.7132 31.0024 17.0851C31.5416 14.3163 31.2624 12.0043 29.8356 10.3783C29.4038 9.88798 28.8681 9.48118 28.2418 9.14954Z" fill="#179BD7"/>
<path d="M26.6977 8.53407C26.4722 8.46846 26.2396 8.40881 26.001 8.35513C25.7612 8.30263 25.5155 8.25611 25.2626 8.21555C24.3774 8.07239 23.4075 8.00439 22.3684 8.00439H13.5978C13.3818 8.00439 13.1767 8.05331 12.9929 8.14159C12.5885 8.33604 12.2879 8.71898 12.2151 9.18781L10.3493 21.0053L10.2957 21.3501C10.4185 20.5722 11.083 19.9996 11.8716 19.9996H15.1546C21.6025 19.9996 26.6512 17.3811 28.1269 9.80577C28.171 9.58149 28.208 9.36318 28.2414 9.14964C27.868 8.95161 27.4636 8.78221 27.0281 8.63786C26.9208 8.60207 26.8098 8.56747 26.6977 8.53407Z" fill="#222D65"/>
<path d="M12.9933 8.14275C13.1782 8.05447 13.3822 8.00556 13.5981 8.00556H22.3688C23.4078 8.00556 24.3777 8.07356 25.2629 8.21671C25.5158 8.25727 25.7615 8.3038 26.0013 8.35629C26.2399 8.40997 26.4725 8.46962 26.698 8.53524C26.8101 8.56864 26.9211 8.60323 27.0297 8.63783C27.4651 8.78218 27.8695 8.95277 28.2429 9.14961C28.6819 6.34973 28.2393 4.44338 26.7254 2.71716C25.0565 0.816774 22.0443 0.00317383 18.1898 0.00317383H6.99983C6.21247 0.00317383 5.54084 0.575795 5.41916 1.3548L0.758254 30.8985C0.666396 31.483 1.11734 32.0103 1.70666 32.0103H8.6151L10.3497 21.0053L12.2155 9.18779C12.2882 8.71895 12.5889 8.33601 12.9933 8.14275Z" fill="#253B80"/>
</svg>
