<svg width="37" height="36" viewBox="0 0 37 36" fill="none" xmlns="http://www.w3.org/2000/svg">
<g clip-path="url(#clip0_202_13754)">
<path d="M7.61157 11.5441C9.02514 15.2778 11.1609 18.6888 13.8958 21.5928C16.6308 24.4968 19.9035 26.8322 23.545 28.4763L36.0059 0.788696L7.61157 11.5441Z" fill="#D18F00"/>
<path d="M10.8998 27.7843C10.8998 27.7689 10.8998 27.7843 10.8998 27.7843C10.8998 27.7689 10.8998 27.7689 10.8998 27.7843C9.20969 26.0942 9.13286 26.0173 7.45809 24.3426H7.44272C3.60149 23.0058 0.00610352 27.1544 0.00610352 35.2209C8.18024 35.3131 12.2212 31.6255 10.8998 27.7843Z" fill="#E94F35"/>
<path d="M10.3003 27.1863C10.3003 27.1709 10.3003 27.1709 10.3003 27.1863C9.20936 26.08 9.1479 26.0339 8.05699 24.943C5.55251 24.0826 3.21704 26.7715 3.21704 32.0263C8.5333 32.0877 11.1607 29.6754 10.3003 27.1863Z" fill="#F39200"/>
<path d="M13.4506 32.1177L3.24829 21.9154L7.05879 20.2867L15.0793 28.3072L13.4506 32.1177Z" fill="#4B5B5C"/>
<path d="M15.0786 28.3072L7.05815 20.2867L5.69067 20.8706C6.85841 22.5608 8.14906 24.1587 9.56263 25.6491C11.053 27.2317 12.651 28.676 14.3565 29.9974L15.0786 28.3072Z" fill="#3A4949"/>
<path d="M13.8955 21.5932C11.1606 18.6892 9.02486 15.2782 7.61129 11.5446L2.63306 13.4344C4.29247 17.8134 6.79695 21.8237 10.0082 25.2501C13.2195 28.6764 17.0761 31.4114 21.3475 33.332L23.5293 28.4767C19.9032 26.8326 16.6151 24.4972 13.8955 21.5932Z" fill="url(#paint0_linear_202_13754)"/>
<path d="M8.04224 11.3751C9.44044 15.0473 11.5301 18.4123 14.2189 21.2701C16.9078 24.128 20.1344 26.4327 23.7145 28.0461L36.0064 0.788696L8.04224 11.3751Z" fill="url(#paint1_linear_202_13754)"/>
<path d="M22.6692 5.84382C22.7767 7.50323 24.1596 8.82462 25.8497 8.82462C27.6167 8.82462 29.0456 7.39568 29.0456 5.62871C29.0456 4.8912 28.7998 4.21514 28.3696 3.67737L22.6692 5.84382Z" fill="#AA2322"/>
<path d="M31.4275 8.88635C30.2751 8.88635 29.3225 9.82361 29.3225 10.9913C29.3225 11.8364 29.8296 12.5739 30.5517 12.8966L32.2726 9.07073C32.0114 8.94781 31.7194 8.88635 31.4275 8.88635Z" fill="#AA2322"/>
<path d="M25.481 7.93377C25.7271 7.93377 25.9266 7.73427 25.9266 7.48819C25.9266 7.2421 25.7271 7.0426 25.481 7.0426C25.2349 7.0426 25.0354 7.2421 25.0354 7.48819C25.0354 7.73427 25.2349 7.93377 25.481 7.93377Z" fill="#441A0D"/>
<path d="M25.481 5.99822C25.7271 5.99822 25.9266 5.79873 25.9266 5.55264C25.9266 5.30655 25.7271 5.10706 25.481 5.10706C25.2349 5.10706 25.0354 5.30655 25.0354 5.55264C25.0354 5.79873 25.2349 5.99822 25.481 5.99822Z" fill="#441A0D"/>
<path d="M27.2632 5.99822C27.5093 5.99822 27.7088 5.79873 27.7088 5.55264C27.7088 5.30655 27.5093 5.10706 27.2632 5.10706C27.0171 5.10706 26.8176 5.30655 26.8176 5.55264C26.8176 5.79873 27.0171 5.99822 27.2632 5.99822Z" fill="#D89687"/>
<path d="M27.3706 7.58025C27.6167 7.58025 27.8162 7.38076 27.8162 7.13467C27.8162 6.88858 27.6167 6.68909 27.3706 6.68909C27.1245 6.68909 26.925 6.88858 26.925 7.13467C26.925 7.38076 27.1245 7.58025 27.3706 7.58025Z" fill="#D89687"/>
<path d="M23.9136 6.73455C24.1597 6.73455 24.3592 6.53505 24.3592 6.28897C24.3592 6.04288 24.1597 5.84338 23.9136 5.84338C23.6675 5.84338 23.468 6.04288 23.468 6.28897C23.468 6.53505 23.6675 6.73455 23.9136 6.73455Z" fill="#D89687"/>
<path d="M30.1525 10.4526C30.3138 10.4526 30.4445 10.3219 30.4445 10.1607C30.4445 9.99948 30.3138 9.86877 30.1525 9.86877C29.9913 9.86877 29.8606 9.99948 29.8606 10.1607C29.8606 10.3219 29.9913 10.4526 30.1525 10.4526Z" fill="#441A0D"/>
<path d="M31.0891 11.1148C31.2503 11.1148 31.381 10.984 31.381 10.8228C31.381 10.6616 31.2503 10.5309 31.0891 10.5309C30.9278 10.5309 30.7971 10.6616 30.7971 10.8228C30.7971 10.984 30.9278 11.1148 31.0891 11.1148Z" fill="#441A0D"/>
<path d="M31.2277 9.97608C31.389 9.97608 31.5197 9.84538 31.5197 9.68415C31.5197 9.52291 31.389 9.39221 31.2277 9.39221C31.0665 9.39221 30.9358 9.52291 30.9358 9.68415C30.9358 9.84538 31.0665 9.97608 31.2277 9.97608Z" fill="#D89687"/>
<path d="M30.1525 11.7124C30.3138 11.7124 30.4445 11.5817 30.4445 11.4205C30.4445 11.2592 30.3138 11.1285 30.1525 11.1285C29.9913 11.1285 29.8606 11.2592 29.8606 11.4205C29.8606 11.5817 29.9913 11.7124 30.1525 11.7124Z" fill="#D89687"/>
<path d="M26.9274 14.9734C27.4767 13.2961 26.5688 11.4932 24.8995 10.9465C23.2303 10.3999 21.4318 11.3165 20.8825 12.9938C20.3332 14.6711 21.2411 16.474 22.9104 17.0207C24.5797 17.5673 26.3782 16.6507 26.9274 14.9734Z" fill="#AA2322"/>
<path d="M22.4789 14.8828C22.5555 14.649 22.428 14.3973 22.1942 14.3207C21.9603 14.2441 21.7087 14.3716 21.6321 14.6055C21.5555 14.8394 21.683 15.091 21.9168 15.1676C22.1507 15.2442 22.4024 15.1167 22.4789 14.8828Z" fill="#441A0D"/>
<path d="M26.2006 14.3574C26.2772 14.1236 26.1497 13.8719 25.9159 13.7953C25.682 13.7187 25.4303 13.8462 25.3538 14.0801C25.2772 14.314 25.4047 14.5656 25.6385 14.6422C25.8724 14.7188 26.124 14.5913 26.2006 14.3574Z" fill="#441A0D"/>
<path d="M23.7563 11.9102C23.8329 11.6763 23.7054 11.4246 23.4715 11.3481C23.2377 11.2715 22.986 11.399 22.9094 11.6328C22.8328 11.8667 22.9603 12.1184 23.1942 12.1949C23.428 12.2715 23.6797 12.144 23.7563 11.9102Z" fill="#441A0D"/>
<path d="M24.3627 13.7598C24.4393 13.5259 24.3118 13.2743 24.078 13.1977C23.8441 13.1211 23.5924 13.2486 23.5159 13.4824C23.4393 13.7163 23.5668 13.968 23.8006 14.0445C24.0345 14.1211 24.2862 13.9936 24.3627 13.7598Z" fill="#441A0D"/>
<path d="M23.809 15.4492C23.8856 15.2154 23.7581 14.9637 23.5243 14.8871C23.2904 14.8105 23.0387 14.938 22.9622 15.1719C22.8856 15.4058 23.0131 15.6574 23.2469 15.734C23.4808 15.8106 23.7324 15.6831 23.809 15.4492Z" fill="#D89687"/>
<path d="M22.5307 13.2324C22.6073 12.9986 22.4798 12.7469 22.2459 12.6703C22.0121 12.5937 21.7604 12.7212 21.6838 12.9551C21.6072 13.189 21.7347 13.4406 21.9686 13.5172C22.2025 13.5938 22.4541 13.4663 22.5307 13.2324Z" fill="#D89687"/>
<path d="M25.2719 16.0567C25.3485 15.8228 25.221 15.5711 24.9871 15.4946C24.7533 15.418 24.5016 15.5455 24.425 15.7793C24.3485 16.0132 24.476 16.2648 24.7098 16.3414C24.9437 16.418 25.1953 16.2905 25.2719 16.0567Z" fill="#D89687"/>
<path d="M25.5551 12.5059C25.6317 12.272 25.5042 12.0204 25.2703 11.9438C25.0365 11.8672 24.7848 11.9947 24.7082 12.2285C24.6317 12.4624 24.7592 12.7141 24.993 12.7906C25.2269 12.8672 25.4785 12.7397 25.5551 12.5059Z" fill="#D89687"/>
<path d="M17.8589 14.3436C18.6296 12.7558 17.9673 10.8437 16.3795 10.073C14.7916 9.30215 12.8796 9.9645 12.1088 11.5523C11.338 13.1402 12.0003 15.0522 13.5882 15.823C15.176 16.5938 17.0881 15.9315 17.8589 14.3436Z" fill="#AA2322"/>
<path d="M17.2387 12.3356C17.3462 12.1142 17.2538 11.8477 17.0324 11.7402C16.8111 11.6327 16.5445 11.7251 16.437 11.9464C16.3296 12.1678 16.4219 12.4344 16.6433 12.5419C16.8647 12.6493 17.1312 12.557 17.2387 12.3356Z" fill="#441A0D"/>
<path d="M14.2348 14.6657C14.3423 14.4443 14.2499 14.1777 14.0285 14.0703C13.8072 13.9628 13.5406 14.0551 13.4331 14.2765C13.3256 14.4979 13.418 14.7645 13.6394 14.872C13.8608 14.9794 14.1273 14.8871 14.2348 14.6657Z" fill="#441A0D"/>
<path d="M14.1938 11.1911C14.3013 10.9697 14.2089 10.7031 13.9875 10.5957C13.7661 10.4882 13.4996 10.5805 13.3921 10.8019C13.2846 11.0233 13.377 11.2899 13.5984 11.3973C13.8197 11.5048 14.0863 11.4125 14.1938 11.1911Z" fill="#441A0D"/>
<path d="M15.0952 12.8981C15.2026 12.6767 15.1103 12.4102 14.8889 12.3027C14.6675 12.1952 14.4009 12.2876 14.2935 12.5089C14.186 12.7303 14.2783 12.9969 14.4997 13.1044C14.7211 13.2118 14.9877 13.1195 15.0952 12.8981Z" fill="#441A0D"/>
<path d="M16.6987 13.6872C16.8061 13.4658 16.7138 13.1992 16.4924 13.0917C16.271 12.9843 16.0044 13.0766 15.897 13.298C15.7895 13.5194 15.8819 13.786 16.1032 13.8934C16.3246 14.0009 16.5912 13.9086 16.6987 13.6872Z" fill="#D89687"/>
<path d="M15.9838 11.2321C16.0913 11.0107 15.9989 10.7441 15.7776 10.6367C15.5562 10.5292 15.2896 10.6215 15.1821 10.8429C15.0747 11.0643 15.167 11.3309 15.3884 11.4384C15.6098 11.5458 15.8764 11.4535 15.9838 11.2321Z" fill="#D89687"/>
<path d="M16.0873 15.152C16.1948 14.9306 16.1025 14.6641 15.8811 14.5566C15.6597 14.4491 15.3931 14.5415 15.2857 14.7629C15.1782 14.9842 15.2705 15.2508 15.4919 15.3583C15.7133 15.4657 15.9799 15.3734 16.0873 15.152Z" fill="#D89687"/>
<path d="M13.3598 12.8942C13.4673 12.6728 13.3749 12.4062 13.1535 12.2988C12.9322 12.1913 12.6656 12.2837 12.5581 12.505C12.4506 12.7264 12.543 12.993 12.7644 13.1005C12.9858 13.2079 13.2523 13.1156 13.3598 12.8942Z" fill="#D89687"/>
<path d="M17.6422 22.0919C18.8172 21.9159 19.6269 20.8207 19.4508 19.6457C19.2748 18.4708 18.1796 17.661 17.0046 17.8371C15.8297 18.0132 15.0199 19.1084 15.196 20.2833C15.3721 21.4583 16.4673 22.268 17.6422 22.0919Z" fill="#AA2322"/>
<path d="M18.0749 19.1166C18.2428 19.0915 18.3585 18.935 18.3333 18.7672C18.3082 18.5993 18.1517 18.4836 17.9839 18.5088C17.816 18.5339 17.7003 18.6904 17.7255 18.8582C17.7506 19.0261 17.9071 19.1418 18.0749 19.1166Z" fill="#441A0D"/>
<path d="M17.3074 21.5444C17.4752 21.5192 17.5909 21.3627 17.5657 21.1949C17.5406 21.027 17.3841 20.9114 17.2163 20.9365C17.0484 20.9617 16.9327 21.1181 16.9579 21.286C16.983 21.4538 17.1395 21.5695 17.3074 21.5444Z" fill="#441A0D"/>
<path d="M15.9548 19.6381C16.1227 19.6129 16.2383 19.4565 16.2132 19.2886C16.188 19.1208 16.0316 19.0051 15.8637 19.0303C15.6959 19.0554 15.5802 19.2119 15.6054 19.3797C15.6305 19.5476 15.787 19.6633 15.9548 19.6381Z" fill="#441A0D"/>
<path d="M17.1072 20.2533C17.275 20.2282 17.3907 20.0717 17.3655 19.9039C17.3404 19.736 17.1839 19.6203 17.0161 19.6455C16.8482 19.6707 16.7325 19.8271 16.7577 19.995C16.7829 20.1628 16.9393 20.2785 17.1072 20.2533Z" fill="#441A0D"/>
<path d="M18.2908 20.0697C18.4586 20.0446 18.5743 19.8881 18.5491 19.7203C18.524 19.5524 18.3675 19.4368 18.1997 19.4619C18.0318 19.4871 17.9161 19.6435 17.9413 19.8114C17.9664 19.9792 18.1229 20.0949 18.2908 20.0697Z" fill="#D89687"/>
<path d="M16.9685 18.9779C17.1363 18.9528 17.252 18.7963 17.2269 18.6285C17.2017 18.4606 17.0453 18.345 16.8774 18.3701C16.7096 18.3953 16.5939 18.5517 16.619 18.7196C16.6442 18.8874 16.8006 19.0031 16.9685 18.9779Z" fill="#D89687"/>
<path d="M18.5368 21.1147C18.7047 21.0895 18.8204 20.9331 18.7952 20.7652C18.7701 20.5974 18.6136 20.4817 18.4458 20.5068C18.2779 20.532 18.1622 20.6884 18.1874 20.8563C18.2125 21.0241 18.369 21.1398 18.5368 21.1147Z" fill="#D89687"/>
<path d="M16.1394 20.8979C16.3072 20.8727 16.4229 20.7163 16.3978 20.5484C16.3726 20.3806 16.2162 20.2649 16.0483 20.29C15.8805 20.3152 15.7648 20.4716 15.7899 20.6395C15.8151 20.8073 15.9715 20.923 16.1394 20.8979Z" fill="#D89687"/>
<path d="M26.7098 20.0873C25.2194 19.1347 23.2527 19.5803 22.3155 21.0707C21.3628 22.5611 21.8084 24.5278 23.2988 25.465C23.729 25.7416 24.2053 25.8953 24.697 25.9413L27.1861 20.4253C27.0171 20.3024 26.8635 20.1795 26.7098 20.0873Z" fill="#AA2322"/>
<path d="M23.3682 23.2977C23.5004 23.0902 23.4393 22.8147 23.2317 22.6826C23.0241 22.5504 22.7487 22.6115 22.6165 22.8191C22.4843 23.0267 22.5455 23.3021 22.753 23.4343C22.9606 23.5664 23.236 23.5053 23.3682 23.2977Z" fill="#441A0D"/>
<path d="M25.3448 20.7118C25.477 20.5042 25.4158 20.2288 25.2083 20.0966C25.0007 19.9645 24.7253 20.0256 24.5931 20.2332C24.4609 20.4407 24.522 20.7162 24.7296 20.8483C24.9372 20.9805 25.2126 20.9194 25.3448 20.7118Z" fill="#441A0D"/>
<path d="M25.4971 22.6493C25.6293 22.4417 25.5682 22.1663 25.3606 22.0341C25.153 21.902 24.8776 21.9631 24.7454 22.1707C24.6133 22.3782 24.6744 22.6537 24.882 22.7858C25.0895 22.918 25.3649 22.8569 25.4971 22.6493Z" fill="#441A0D"/>
<path d="M24.5274 24.1532C24.6596 23.9456 24.5984 23.6702 24.3909 23.538C24.1833 23.4059 23.9079 23.467 23.7757 23.6746C23.6435 23.8821 23.7047 24.1576 23.9122 24.2897C24.1198 24.4219 24.3952 24.3608 24.5274 24.1532Z" fill="#D89687"/>
<path d="M23.8467 21.704C23.9789 21.4964 23.9178 21.221 23.7102 21.0888C23.5026 20.9566 23.2272 21.0178 23.095 21.2253C22.9629 21.4329 23.024 21.7083 23.2316 21.8405C23.4391 21.9727 23.7146 21.9116 23.8467 21.704Z" fill="#D89687"/>
<path d="M25.0508 24.6193C24.9586 24.7729 24.9586 24.9573 25.0508 25.0956L25.3581 24.4196C25.2352 24.4349 25.1277 24.5117 25.0508 24.6193Z" fill="#D89687"/>
<path d="M26.8176 21.1164C26.6025 20.9782 26.3259 21.0396 26.203 21.2547C26.0647 21.4698 26.1262 21.7464 26.3413 21.8693C26.3874 21.9001 26.4335 21.9154 26.4796 21.9308L26.8176 21.1164C26.833 21.1318 26.833 21.1164 26.8176 21.1164Z" fill="#D89687"/>
<path d="M27.1409 4.55251C27.3868 4.55251 27.5865 4.35277 27.5865 4.10693C27.5865 4.06083 27.5865 4.0301 27.5712 3.98401L26.7415 4.30667C26.8183 4.44496 26.9719 4.55251 27.1409 4.55251Z" fill="#441A0D"/>
</g>
<defs>
<linearGradient id="paint0_linear_202_13754" x1="10.0591" y1="25.3144" x2="14.0443" y2="21.6485" gradientUnits="userSpaceOnUse">
<stop offset="0.1981" stop-color="#914F00"/>
<stop offset="0.3348" stop-color="#9F5600"/>
<stop offset="0.6093" stop-color="#B76200"/>
<stop offset="0.8408" stop-color="#C66900"/>
<stop offset="1" stop-color="#CB6C00"/>
</linearGradient>
<linearGradient id="paint1_linear_202_13754" x1="14.259" y1="21.3299" x2="34.8487" y2="-0.341347" gradientUnits="userSpaceOnUse">
<stop stop-color="#FBBA00"/>
<stop offset="0.0647122" stop-color="#FDC000"/>
<stop offset="0.3061" stop-color="#FFD500"/>
<stop offset="0.5452" stop-color="#FFE300"/>
<stop offset="0.7787" stop-color="#FFEB00"/>
<stop offset="1" stop-color="#FFED00"/>
</linearGradient>
<clipPath id="clip0_202_13754">
<rect width="37" height="36" fill="white"/>
</clipPath>
</defs>
</svg>
