<svg width="37" height="30" viewBox="0 0 37 30" fill="none" xmlns="http://www.w3.org/2000/svg">
<g clip-path="url(#clip0_202_16035)">
<path d="M19.8587 0.605591C22.8915 1.95559 25.5724 4.04909 25.5724 4.04909C25.1527 2.38943 24.8488 1.50107 24.8488 1.50107C27.3386 2.85559 31.1209 5.24856 32.4066 6.45559C33.1526 6.42074 33.7494 6.23329 34.1321 6.0731C34.7843 5.80003 35.3326 6.47082 35.5401 7.15324C35.7465 7.83202 35.9948 8.87976 36.0062 10.0161C36.019 11.283 35.7378 12.3776 35.1705 13.2697C34.0364 15.0533 31.7749 16.2292 29.3813 17.4738C26.8836 18.7726 24.8 20.0905 23.1714 22.5146C22.3303 23.7667 21.6727 25.1627 21.2373 26.6119C20.7728 28.1548 20.4058 29.4056 19.3619 29.4056C18.4171 29.4056 17.8535 28.1886 17.4275 27.5013C16.608 26.1795 15.5888 24.5355 13.9387 24.3965C12.473 24.1793 11.2701 24.7219 10.4007 25.4386C9.97111 25.7929 9.61521 26.1958 9.3424 26.5819C9.09803 26.8742 8.86785 27.174 8.64408 27.4656C7.96029 28.3571 7.3696 29.1272 6.58922 29.3504C6.46165 29.3871 6.33612 29.4056 6.216 29.4056C6.11618 29.4056 6.00119 29.3921 5.88071 29.354L5.87868 29.3571C3.41927 28.6366 3.29236 24.1392 3.29236 24.1392C2.10992 24.4208 0.888916 25.1984 0.888916 25.1984C1.98999 21.4263 4.10048 18.9613 4.10048 18.9613C2.46836 18.8332 0.104386 19.2756 0.00953839 19.2935L0.0065918 19.2941C3.29236 15.0656 5.50965 13.516 5.50965 13.516C3.80437 12.7711 1.63584 12.3828 1.54804 12.3672L1.54528 12.3667C5.54769 10.0556 9.51945 8.92469 9.51945 8.92469C9.18207 8.60618 8.50265 8.24487 7.7993 7.92258L7.69095 7.87332C6.62445 7.39215 5.54052 7.0099 5.54052 7.0099C8.30387 6.21488 13.1946 5.7182 13.1946 5.7182C12.9084 5.47692 12.5222 5.22973 12.1131 4.99835L12.0184 4.94524C11.9391 4.90124 11.8593 4.85788 11.7793 4.81532L11.6834 4.76465C10.7405 4.27035 9.81789 3.89622 9.81789 3.89622C13.9387 3.75559 16.698 3.89622 16.698 3.89622C15.9705 2.89653 14.0956 1.58834 14.0956 1.58834C17.9997 1.95559 20.7826 2.92443 20.7826 2.92443C20.7556 2.70757 20.6142 2.31754 20.4497 1.91847L20.4114 1.82629C20.3986 1.79556 20.3856 1.76485 20.3726 1.73424L20.3334 1.64277C20.0978 1.09654 19.8587 0.605591 19.8587 0.605591ZM13.5762 25.1937C13.4602 25.5037 13.33 25.8392 13.1912 26.175C12.6571 27.4678 12.0181 28.8042 11.3289 28.913C11.288 28.9195 11.2463 28.9228 11.2052 28.9228C10.6979 28.9228 10.2431 28.4546 9.81789 27.4932C10.5657 26.4389 12.0495 25.211 13.5762 25.1937ZM25.432 21.4263C25.0134 22.9955 24.9576 24.5715 24.913 25.8376L24.9129 25.8389C24.884 26.6574 24.8591 27.3643 24.7423 27.8788C24.5857 28.5679 24.2429 28.9174 23.7228 28.9174L23.7051 28.9172C23.2033 28.9091 22.6702 28.4792 22.0859 27.608C22.4302 25.6355 23.793 23.116 25.432 21.4263ZM8.46753 16.698L5.40659 21.3056L8.29099 18.6683L8.46753 16.698ZM17.2352 13.1679L10.3012 16.4794L16.0804 15.0656L17.2352 13.1679ZM11.0325 12.3667L5.54052 16.3058L10.0147 14.3363L11.0325 12.3667ZM23.4552 11.2118L17.2955 11.8752L21.7985 12.1388L23.4552 11.2118ZM16.698 9.40414L10.5383 10.0673L15.0647 10.4985L16.698 9.40414ZM25.3741 8.63201L20.7826 9.60559L24.3552 9.40414L25.3741 8.63201ZM14.9411 7.0099L19.7162 8.23169L21.7984 7.54037L14.9411 7.0099ZM19.8587 4.65559L23.7228 6.45559L25.5724 6.0731L19.8587 4.65559Z" fill="#5C007B"/>
</g>
<defs>
<clipPath id="clip0_202_16035">
<rect width="37" height="30" fill="white"/>
</clipPath>
</defs>
</svg>
