<svg width="37" height="36" viewBox="0 0 37 36" fill="none" xmlns="http://www.w3.org/2000/svg">
<g clip-path="url(#clip0_202_15264)">
<path d="M18.0022 0.465698C8.06113 0.465698 0.00219727 8.31749 0.00219727 18.0032C0.00219727 24.0621 3.15599 29.4031 7.95117 32.5536V18.0123C7.95103 17.9901 7.94793 17.9687 7.94793 17.9466C7.94793 17.9244 7.95103 17.9031 7.95117 17.8808V17.7575H7.95721C8.05579 12.112 12.5043 7.56487 17.987 7.56487C23.5314 7.56487 28.0259 12.2129 28.0259 17.9466C28.0259 23.6802 23.5314 28.3283 17.987 28.3283C15.8276 28.3283 13.8325 27.6164 12.1951 26.4169V34.6023C14.0176 35.2075 15.9695 35.5407 18.0022 35.5407C27.9433 35.5407 36.0022 27.6889 36.0022 18.0032C36.0022 8.31749 27.9433 0.465698 18.0022 0.465698Z" fill="url(#paint0_linear_202_15264)"/>
<path d="M24.0769 18.3101C24.0769 21.6274 21.3877 24.3166 18.0704 24.3166C14.753 24.3166 12.0637 21.6274 12.0637 18.3101C12.0637 14.9928 14.753 12.3036 18.0704 12.3036C21.3877 12.3036 24.0769 14.9928 24.0769 18.3101Z" fill="#FCB42F"/>
</g>
<defs>
<linearGradient id="paint0_linear_202_15264" x1="18.0022" y1="0.465698" x2="18.0022" y2="35.5407" gradientUnits="userSpaceOnUse">
<stop stop-color="#FBB32F"/>
<stop offset="0.504739" stop-color="#C11511"/>
<stop offset="1" stop-color="#C11411"/>
</linearGradient>
<clipPath id="clip0_202_15264">
<rect width="37" height="36" fill="white"/>
</clipPath>
</defs>
</svg>
