<svg width="37" height="36" viewBox="0 0 37 36" fill="none" xmlns="http://www.w3.org/2000/svg">
<g clip-path="url(#clip0_202_14718)">
<path d="M36.0054 18.0004C36.0054 27.9415 27.9465 36.0004 18.0054 36.0004C8.06422 36.0004 0.00537109 27.9415 0.00537109 18.0004C0.00537109 8.05924 8.06422 0.000396729 18.0054 0.000396729C27.9465 0.000396729 36.0054 8.05924 36.0054 18.0004Z" fill="#3A3C5B"/>
<path d="M30.5447 19.3317C29.9382 15.5048 25.9231 13.0258 22.9333 11.1562C21.6272 10.3395 19.5097 9.27557 19.2358 7.55787C19.1227 6.84804 19.1268 6.11469 19.1031 5.39794C19.0937 5.11652 19.0894 4.83346 19.0643 4.55272C19.0317 4.19055 18.6631 4.63692 18.4611 4.32085C17.9605 3.53835 18.1532 4.55801 18.2024 4.96947C18.3182 5.93726 18.4542 6.90221 18.4464 7.87909C18.4314 9.74607 18.1306 11.5333 17.6651 13.332C16.5749 17.5445 15.7149 21.8605 16.7934 26.1712C17.0169 27.0644 17.3078 27.9455 17.69 28.7839C17.8055 29.0374 18.0266 29.7449 18.3445 29.8297C19.4893 30.1352 20.355 30.2236 21.2693 31.0752C21.837 31.604 22.2628 31.3152 22.9342 31.0465C24.9681 30.2325 26.7308 29.2082 28.172 27.532C30.1979 25.1758 31.0337 22.4175 30.5447 19.3317ZM28.3935 23.185C28.213 24.759 27.2257 26.169 26.2175 27.338C25.4866 28.1854 24.4978 29.2851 23.4142 29.671C23.0241 29.8099 23.4856 29.0295 23.5428 28.9434C23.8783 28.439 24.2916 27.994 24.6754 27.5273C25.2433 26.8372 25.7351 26.1128 26.0674 25.277C27.1709 22.5032 26.9202 19.1409 25.2871 16.6421C24.398 15.2815 23.1777 14.1316 21.9476 13.0825C21.3533 12.5756 20.752 12.0963 20.2518 11.4897C20.1362 11.3497 19.1148 10.0125 19.4325 9.81482C19.5352 9.75089 21.7676 12.0992 22.0104 12.2825C22.9335 12.9795 23.8829 13.624 24.7376 14.4089C25.8944 15.4716 27.0824 16.6586 27.7451 18.1039C28.4714 19.6875 28.5895 21.4727 28.3935 23.185Z" fill="white"/>
<path d="M17.3424 0.485547C17.6775 0.709005 17.7519 2.01219 17.7519 3.20365C17.7519 4.39538 17.8636 9.53382 17.4913 10.9116C17.119 12.2893 16.2626 13.8161 15.3316 15.1565C14.4008 16.497 13.3209 19.3269 13.3581 21.0769C13.3953 22.8272 14.4008 25.6942 15.1828 26.8858C15.9676 28.0819 17.3 29.7489 17.0072 30.1254C16.4859 30.7956 14.3636 28.487 13.2465 27.1466C12.1293 25.806 11.0122 23.0876 10.9751 20.9653C10.9378 18.8428 12.1293 16.8693 12.9858 15.6779C13.8423 14.4863 15.5178 12.4383 15.9647 11.5074C16.4114 10.5765 16.8956 9.57124 17.0445 8.26785C17.1935 6.9646 17.0445 2.31002 17.0445 2.31002C17.0445 2.31002 17.0072 0.26209 17.3424 0.485547Z" fill="white"/>
<path d="M16.4487 2.68242C16.7837 2.83137 16.821 3.24093 16.821 3.65062C16.821 4.06018 16.7093 5.73584 16.5976 7.37422C16.4858 9.01259 15.1827 10.3904 14.2145 11.3584C13.2464 12.3265 10.4537 15.3427 9.41105 16.8322C8.36847 18.3216 7.84888 20.2835 7.95892 21.9335C8.07058 23.6091 8.48014 25.2474 10.0441 26.9976C11.6081 28.7476 12.6879 29.5668 13.507 29.9765C14.3262 30.3859 15.1455 30.6838 14.9593 31.0563C14.773 31.4286 13.9911 31.1679 13.1346 30.8701C12.2782 30.5721 9.37383 29.3808 7.69817 27.4817C6.02264 25.5825 5.16624 23.0505 5.24068 20.6301C5.31505 18.2098 5.98542 17.2045 7.10251 15.6405C8.21953 14.0767 11.3101 11.7681 12.2782 11.1723C13.2464 10.5765 14.5496 9.57116 15.1827 8.75198C15.8157 7.93272 16.1508 7.26235 16.1135 6.14533C16.0763 5.02832 16.1881 4.02289 16.1508 3.65062C16.1135 3.27828 16.1135 2.5336 16.4487 2.68242Z" fill="white"/>
<path d="M16.542 31.8701C16.6934 31.864 16.5977 32.5201 16.3303 32.8458C16.0629 33.1713 15.6037 33.367 15.5479 33.2361C15.4919 33.105 15.8795 33.0297 16.1641 32.7129C16.4254 32.4221 16.3563 31.8776 16.542 31.8701Z" fill="white"/>
<path d="M19.5555 31.8529C19.4042 31.8466 19.4998 32.5027 19.7672 32.8282C20.0346 33.1537 20.4938 33.3496 20.5495 33.2186C20.6055 33.0876 20.2179 33.0123 19.9334 32.6955C19.6721 32.4049 19.7413 31.8601 19.5555 31.8529Z" fill="white"/>
<path d="M18.216 32.5647C18.216 33.1377 18.2452 33.6022 18.1201 33.6022C17.9661 33.6022 18.0242 33.1377 18.0242 32.5647C18.0242 31.9916 17.9719 31.527 18.1201 31.527C18.2566 31.527 18.216 31.9916 18.216 32.5647Z" fill="white"/>
</g>
<defs>
<clipPath id="clip0_202_14718">
<rect width="37" height="36.0004" fill="white"/>
</clipPath>
</defs>
</svg>
