<svg width="32" height="36" viewBox="0 0 32 36" fill="none" xmlns="http://www.w3.org/2000/svg">
<g clip-path="url(#clip0_202_10688)">
<path d="M25.3878 17.266L23.1968 12.8522L23.8954 15.8053L25.3878 17.266Z" fill="#73B08F"/>
<path d="M22.8171 11.3053L24.5084 18.45L19.0696 12.7025L11.1436 5.30379L9.12061 0.000854492L22.8171 11.3053Z" fill="#C5E4D3"/>
<path d="M19.505 12.8795L12.3827 9.46488L8.49458 5.28781L7.98584 2.53625L19.505 12.8795Z" fill="#76C39B"/>
<path d="M24.9534 18.7632L18.2299 17.0492L5.29998 9.61131L0.257324 2.6908L19.6521 12.9746L24.9534 18.7632Z" fill="black"/>
<path d="M17.9222 16.8517V17.0503L17.0538 18.6722L12.5187 17.1827L4.09174 10.8607L0.811035 6.16052L4.5742 8.41129L5.15315 9.30498L17.9222 16.8517Z" fill="#73B08F"/>
<path d="M5.70429 12.1001L5.07697 12.0272L2.88135 11.2252L7.37714 15.3442L8.56208 16.2555L13.267 17.823L5.70429 12.1001Z" fill="black" stroke="black" stroke-width="1.12245"/>
<path d="M24.1359 18.4562L24.0406 22.1066L23.6913 21.5099L21.6591 21.3695L16.9595 18.6668L18.0391 16.7714L24.1359 18.4562Z" fill="#76C39B"/>
<path d="M5.01025 14.4349L10.8601 18.9054L16.9362 20.9278L21.6225 21.3535L16.9685 18.6571L5.01025 14.4349Z" fill="#C5E4D3"/>
<path d="M7.84619 17.9962L11.9107 20.2508L16.6421 20.7271L10.9263 18.9488L10.0055 18.3773L7.84619 17.9962Z" fill="#76C39B"/>
<path d="M16.8786 20.6356L10.228 20.0555L13.6541 21.3704L15.9045 21.6798L16.8786 20.6356Z" fill="#73B08F"/>
<path d="M15.3722 21.661L14.8006 21.7452L12.1333 22.1244L13.4352 21.2396L15.3722 21.661Z" fill="#76C39B"/>
<path d="M19.6318 22.237L19.5016 22.4679L9.76705 28.1085L7.84619 30.6483L8.52989 27.9105L10.6461 25.0078L16.7017 20.9176L19.6318 22.237Z" fill="#76C39B"/>
<path d="M8.98962 25.014L7.2749 27.2686V26.2842L8.98962 25.014Z" fill="black"/>
<path d="M23.1208 22.6325L16.6112 27.0463L16.0714 26.1254L13.8168 30.8885L14.3249 31.5871L14.706 36.0009L11.9751 30.952L14.1979 25.4903L19.6278 22.1244L23.1208 22.6325Z" fill="#C5E4D3"/>
<path d="M14.1975 25.3949L9.84723 27.7447L9.72021 30.9836L11.0539 35.3339V33.1111L14.1975 25.3949Z" fill="black"/>
<path d="M8.79938 31.6188L8.86289 31.8411L9.43446 34.2544L8.67236 33.7781L8.79938 31.6188Z" fill="#73B08F"/>
<path d="M16.7233 26.7362L16.1398 26.016L13.7026 30.6318L17.5815 35.7058L16.6203 33.447L16.7233 26.7362Z" fill="#73B08F"/>
<path d="M17.1819 26.4606L16.6738 26.727L16.6421 32.2559L17.5947 34.2543L19.3729 33.5882L19.3094 32.2559L17.3724 30.3574L17.1819 26.4606Z" fill="#76C39B"/>
<path d="M25.9502 22.5646L22.9971 23.3902L19.7899 26.121L18.0435 26.0575L23.0924 22.6598L25.9502 22.5646Z" fill="black"/>
<path d="M24.7373 22.9295L23.8119 21.2269L15.4829 20.5748L19.2177 22.1325L24.7373 22.9295Z" fill="#73B08F"/>
<path d="M19.8811 26.0154L20.2939 26.9889L21.1831 27.6268H21.3418L21.2783 28.6675L18.5475 29.8089L17.6266 27.6939L17.3726 26.4518L18.1982 25.7804L19.8811 26.0154Z" fill="#73B08F"/>
<path d="M21.3424 31.4917L19.6912 30.7614L19.0562 32.0633L19.2784 32.3808L19.2467 33.778L20.4533 35.1434L20.2628 32.5713L20.5486 32.4443L21.5012 33.3652L21.0567 32.3173L20.0405 31.7775L20.2628 31.3964L21.3424 31.8727V31.4917Z" fill="black"/>
<path d="M21.7547 26.0618L21.1196 27.586L21.2466 28.8879L22.5486 30.5074L22.3898 27.9036L22.5803 27.7766L23.5964 28.6657L23.1836 27.6813L22.0405 27.078L22.231 26.7604L23.4059 27.2685L23.3742 26.8239L21.7547 26.0618Z" fill="black"/>
<path d="M27.6297 19.3299L24.105 18.5043V21.8067L24.5178 22.537L27.6297 22.5688L30.5828 23.5849L30.4876 23.1721L28.6776 22.1242L25.0576 20.6953L27.1216 20.6636L25.1211 19.7427L27.6297 19.3299Z" fill="#C5E4D3"/>
<path d="M31.7402 22.3488L30.4065 20.1895L27.3581 19.2687L24.9448 19.7132L26.8501 20.6659L25.0718 20.7294L28.406 22.1583L30.3113 23.0792L31.7402 22.3488Z" fill="#73B08F"/>
<path d="M30.0024 24.9187L30.5105 24.1566L30.1295 23.1722L31.7172 22.2831L31.7489 24.0931L30.7963 24.9504L30.0024 24.9187Z" fill="black"/>
<path d="M31.2761 22.0778L30.1862 21.5692L29.605 22.0778" fill="black"/>
<path d="M31.2761 22.0778L30.1862 21.5692L29.605 22.0778" stroke="black" stroke-width="0.3"/>
</g>
<defs>
<clipPath id="clip0_202_10688">
<rect width="32" height="36.0009" fill="white"/>
</clipPath>
</defs>
</svg>
