<svg width="37" height="26" viewBox="0 0 37 26" fill="none" xmlns="http://www.w3.org/2000/svg">
<g clip-path="url(#clip0_202_11662)">
<path d="M13.5231 17.8585C13.3645 17.83 13.3024 17.8192 13.2402 17.8076C11.2309 17.434 9.96082 16.2181 9.35895 14.3068C8.98376 13.1154 9.66551 12.238 10.9151 12.1802C11.9383 12.1328 12.6386 12.7209 13.2579 13.4052C14.0562 14.2875 14.7881 15.2295 15.5722 16.125C16.7011 17.4142 18.0313 18.2443 19.8513 17.988C21.4832 17.7583 22.9054 17.1034 24.1429 16.0255C24.3289 15.8635 24.5329 15.7223 24.7288 15.5714C24.6876 15.5229 24.6466 15.4744 24.6054 15.4259C23.5666 15.7485 22.5071 15.8569 21.4246 15.8025C19.7866 15.72 18.2258 15.378 16.8292 14.4787C15.5549 13.6581 14.6151 12.5584 14.1683 11.0895C13.8075 9.90295 14.546 9.07284 15.7757 9.24441C16.2618 9.31219 16.671 9.53114 17.0383 9.84164C17.3374 10.0942 17.6243 10.362 17.9293 10.6069C19.3646 11.7602 21.37 11.8243 23.1918 10.5722C20.1968 10.5585 18.1591 8.91112 16.3694 6.82326C15.6689 6.00609 14.9851 5.1743 14.2701 4.37006C12.8868 2.81376 11.3522 1.44267 9.25081 0.974952C6.56656 0.377436 3.97512 0.767952 1.48774 1.90716C0.99176 2.13426 0.515463 2.39836 0.00415039 2.82389C0.257275 2.82389 0.395369 2.82698 0.533182 2.82347C1.78728 2.79112 2.72707 3.34842 3.40488 4.37428C3.8982 5.12086 4.13065 5.96517 4.30784 6.83381C4.57081 8.12292 4.43468 9.4372 4.58656 10.7322C4.97693 14.0615 6.67849 16.3848 9.84678 17.5745C11.0086 18.0108 12.2003 18.1561 13.5231 17.8585ZM5.51609 2.67145C5.01546 2.79773 4.61538 2.59566 4.20307 2.17842C4.90915 2.0025 5.53184 1.9343 6.20093 1.908C6.14623 2.34239 5.89001 2.57723 5.51609 2.67145ZM21.9211 22.113C21.8775 21.7925 21.6037 21.6513 21.3884 21.4837C20.4361 20.7425 19.3224 20.4801 18.1415 20.4583C17.4369 20.4453 16.7395 20.3927 16.0749 20.1457C15.7703 20.0325 15.4296 19.887 15.4373 19.4934C15.4451 19.0941 15.7925 18.9811 16.1088 18.8866C16.3677 18.8093 16.6349 18.7599 16.9296 18.691C16.1809 18.2112 15.4496 18.1447 14.475 18.5366C12.9409 19.1534 11.4285 19.0803 9.89923 18.528C9.03579 18.2164 8.26953 17.7272 7.47176 17.2939L7.44996 17.309C7.46037 17.3018 7.47134 17.2942 7.47063 17.2946C7.45095 17.2344 7.41523 17.2329 7.36938 17.2665C7.39034 17.2848 7.41115 17.3031 7.43196 17.3213C8.0936 18.4057 8.98742 19.2781 9.9971 20.0237C11.9417 21.4595 14.0657 22.3158 16.5509 21.9358C17.3536 21.813 18.1624 21.7178 18.9719 21.6526C19.987 21.5706 20.954 21.8562 21.9211 22.113ZM17.2356 6.5572C17.1819 6.51825 17.1303 6.42051 17.0206 6.52162C17.9147 7.731 19.0633 8.62256 20.4464 9.1838C22.6785 10.0896 24.944 10.2445 27.2611 9.44522C29.0599 8.82478 30.3536 9.43101 31.0253 11.1776C31.1225 9.15033 29.9299 7.6732 28.0302 7.38366C26.9614 7.22081 25.9746 7.57533 24.9735 7.86572C22.1876 8.67347 19.5987 8.27466 17.2356 6.5572ZM31.1205 14.4643C31.4836 14.4948 31.8464 14.5277 32.2094 14.5595C31.3893 13.839 30.3897 13.782 29.3785 13.8395C27.8386 13.9269 26.7292 14.815 25.7179 15.876C24.8267 16.8112 24.0215 17.8602 22.6916 18.236C22.7138 18.2759 22.7196 18.2959 22.7258 18.2959C22.9047 18.2985 23.0839 18.307 23.2624 18.2988C25.1939 18.2114 27.0134 17.804 28.4609 16.4022C28.9166 15.9608 29.3246 15.4704 29.7646 15.0123C30.1317 14.6302 30.5767 14.4184 31.1205 14.4643ZM26.6336 12.0705C25.1922 12.1965 23.9401 12.7928 22.764 13.579C21.8588 14.1841 20.8908 14.4705 19.8029 14.2812C19.6115 14.2478 19.4187 14.223 19.2266 14.1941C19.2244 14.221 19.2222 14.2477 19.22 14.2746C19.2892 14.3101 19.356 14.3518 19.428 14.3803C19.6092 14.452 19.7878 14.5384 19.976 14.5831C22.0693 15.0808 24.0732 14.8258 25.88 13.6588C27.0188 12.9232 28.1976 12.7838 29.4754 12.9738C29.6044 12.993 29.733 13.0165 29.8626 13.0286C29.9827 13.04 30.1082 13.1594 30.2703 13.0302C29.1533 12.2233 27.9501 11.9555 26.6336 12.0705ZM21.4819 7.17778C22.2381 7.20394 22.9909 7.10494 23.7817 6.63511C23.5501 6.65564 23.4518 6.65522 23.3576 6.67406C22.268 6.89119 21.29 6.65353 20.4188 5.96475C20.0992 5.71191 19.7742 5.46581 19.4505 5.21817C18.1671 4.23661 16.6955 3.90825 15.0858 3.93609C15.1118 4.01526 15.1133 4.06955 15.1413 4.09767C16.8928 5.86926 18.9199 7.08947 21.4819 7.17778ZM34.1582 16.2675C33.0742 15.1924 31.6196 15.0539 30.2735 15.9922C31.1645 16.0322 31.8334 16.3164 32.3757 16.8781C32.5677 17.0768 32.7667 17.2718 32.9814 17.4451C33.8015 18.1066 35.1919 18.1384 36.0042 17.5247C35.05 17.1523 35.05 17.1523 34.1582 16.2675ZM23.3628 24.5004C22.4102 22.7272 20.8092 22.3272 18.9597 22.4461C19.5064 22.5977 20.0171 22.831 20.4856 23.1581C20.9161 23.4586 21.2783 23.8307 21.6354 24.2118C22.3429 24.9668 23.447 25.4302 24.1787 25.2735C23.8428 25.0618 23.5444 24.8382 23.3628 24.5004ZM32.2265 14.596C32.2268 14.5848 32.2271 14.5734 32.2278 14.5616C32.2278 14.5614 32.2264 14.563 32.225 14.5645L32.2281 14.5612C32.2219 14.5606 32.2156 14.56 32.2094 14.5595C32.213 14.5628 32.217 14.5655 32.2206 14.5689C32.2226 14.5779 32.2246 14.587 32.2265 14.596ZM21.974 22.1548C21.9615 22.1476 21.949 22.1406 21.9364 22.1335C21.9381 22.1415 21.9401 22.1494 21.9443 22.1559C21.9469 22.1601 21.9637 22.1553 21.974 22.1548ZM21.9364 22.1335C21.9353 22.1278 21.9343 22.1219 21.9328 22.1161C21.9328 22.1161 21.9307 22.1188 21.9284 22.1214L21.9328 22.1162C21.929 22.1151 21.9251 22.1141 21.9211 22.113C21.9218 22.1178 21.9235 22.1217 21.9241 22.1266C21.9283 22.1289 21.9324 22.1313 21.9364 22.1335Z" fill="#FD4F00"/>
</g>
<defs>
<clipPath id="clip0_202_11662">
<rect width="37" height="26" fill="white"/>
</clipPath>
</defs>
</svg>
