<svg width="37" height="32" viewBox="0 0 37 32" fill="none" xmlns="http://www.w3.org/2000/svg">
<g clip-path="url(#clip0_202_13478)">
<path fill-rule="evenodd" clip-rule="evenodd" d="M15.473 30.9125C15.4458 30.9125 15.4321 30.9125 15.4049 30.8989L13.1702 30.3402C13.1566 30.3402 13.1293 30.3266 13.1157 30.3129L11.6441 29.5771V29.8497C11.6441 29.9587 11.5896 30.054 11.4942 30.0949L10.7448 30.4628C10.7039 30.4765 10.663 30.4901 10.6221 30.4901C10.5813 30.4901 10.5404 30.4765 10.4995 30.4628L3.03244 26.7293C2.93706 26.6884 2.88256 26.593 2.88256 26.484V24.4537L0.416244 23.2274C0.320862 23.1865 0.266357 23.0911 0.266357 22.9821V19.998C0.266357 19.889 0.320862 19.7936 0.416244 19.7528L1.53358 19.1941C1.57446 19.1805 1.61534 19.1668 1.65621 19.1668C1.69709 19.1668 1.73797 19.1805 1.77885 19.1941L3.4821 20.0525L3.76825 19.9026C3.80913 19.889 3.85001 19.8754 3.89088 19.8754C3.93176 19.8754 3.97264 19.889 4.01352 19.9026L4.14978 19.9708L5.89391 17.7497L5.64864 17.6271C5.55326 17.5862 5.49876 17.4908 5.49876 17.3818V13.185L4.72207 12.7899C4.62669 12.749 4.57219 12.6536 4.57219 12.5446V6.57638C4.57219 6.46737 4.62669 6.37199 4.72207 6.33111L15.1732 1.11234C15.2141 1.09871 15.255 1.08508 15.2959 1.08508C15.3368 1.08508 15.3776 1.09871 15.4185 1.11234L21.2641 4.04193L21.5094 3.9193C21.5502 3.90567 21.5911 3.89205 21.632 3.89205C21.6729 3.89205 21.7137 3.90567 21.7546 3.9193L26.2376 6.15397C26.333 6.19485 26.3875 6.29023 26.3875 6.39924V9.95564L32.2058 12.8716C32.3012 12.9125 32.3557 13.0079 32.3557 13.1169V14.8201L33.3231 15.3107C33.3368 15.3243 33.364 15.3379 33.3776 15.3515L35.6123 17.2183C35.6804 17.2728 35.7077 17.341 35.7077 17.4227V17.9814C35.7077 18.0904 35.6532 18.1858 35.5578 18.2266L34.0589 18.9761C34.0181 18.9897 33.9772 19.0033 33.9363 19.0033C33.8818 19.0033 33.8273 18.9897 33.7728 18.9488L32.3421 17.8724V18.4174L33.3095 19.0442L35.5169 19.78C35.6259 19.8209 35.7077 19.9163 35.7077 20.0389V20.5976C35.7077 20.7066 35.6532 20.802 35.5578 20.8428L34.0589 21.5923C34.0181 21.6059 33.9772 21.6195 33.9363 21.6195C33.9091 21.6195 33.8954 21.6195 33.8682 21.6059L31.6335 21.0472C31.6199 21.0472 31.5926 21.0336 31.579 21.02L29.4261 19.9435L29.3171 19.998C29.2898 20.0253 29.2762 20.0525 29.2353 20.0662C29.1944 20.0934 29.1399 20.107 29.0854 20.107C29.0446 20.107 29.0037 20.0934 28.9628 20.0798L26.3739 18.7853V19.0851C26.3739 19.1941 26.3193 19.2895 26.224 19.3304L15.7728 24.5491C15.7319 24.5627 15.691 24.5764 15.6502 24.5764C15.6093 24.5764 15.5684 24.5627 15.5275 24.5491L14.0287 23.7997C13.9333 23.7588 13.8788 23.6634 13.8788 23.5544V23.2547C13.8515 23.2683 13.8106 23.2683 13.7834 23.2683C13.7425 23.2683 13.7016 23.2547 13.6608 23.241L12.1619 22.4916C12.0665 22.4507 12.012 22.3553 12.012 22.2463V22.0419L11.4125 21.7422C11.3171 21.7013 11.2626 21.6059 11.2626 21.4969V20.3796L7.92419 18.7581L6.77961 20.1888L12.2164 22.9004C12.3118 22.9413 12.3663 23.0366 12.3663 23.1456V23.3909L14.8326 24.6173C14.8462 24.6309 14.8735 24.6445 14.8871 24.6581L17.1218 26.5249C17.1899 26.5794 17.2172 26.6475 17.2172 26.7293V27.288C17.2172 27.397 17.1626 27.4924 17.0673 27.5332L15.5684 28.2827C15.5275 28.2963 15.4866 28.3099 15.4458 28.3099C15.3913 28.3099 15.3368 28.2963 15.2823 28.2554L13.0748 26.6067L12.3527 26.3478V26.7702L14.8053 28.3508L17.0128 29.0866C17.1218 29.1275 17.2035 29.2229 17.2035 29.3455V29.9042C17.2035 30.0132 17.149 30.1086 17.0536 30.1494L15.5548 30.8989C15.5548 30.9125 15.5139 30.9125 15.473 30.9125Z" fill="url(#paint0_linear_202_13478)"/>
<path fill-rule="evenodd" clip-rule="evenodd" d="M15.2824 1.35766L16.3997 1.91633L16.7676 2.1071L18.2665 2.85653L21.2506 4.35539L21.6185 4.16463L26.1151 6.3993V10.1328L32.0833 13.1169V14.9837L33.2006 15.5424L35.4353 17.4091V17.9678L33.9364 18.7172L32.0833 17.3001V18.5401L33.2006 19.2623L35.4353 20.0117V20.5704L33.9364 21.3198L31.7017 20.7611L29.4262 19.6302L29.0855 19.7937V19.8346L26.1014 18.3357V19.0851L15.6503 24.3039L14.1514 23.5545V22.8051L13.7835 22.6143V22.9822L12.2846 22.2328V21.8649L11.5352 21.497V20.2025L7.84254 18.4038L6.3573 20.2706L12.0939 23.1321V23.5409L14.7101 24.849L16.9447 26.7157V27.2744L15.4459 28.0238L13.2112 26.3478L12.0939 25.9527V26.9065L14.7101 28.5825L16.9447 29.3319V29.8906L15.4459 30.64L13.2112 30.0814L11.3717 29.1548V29.8633L10.6223 30.2312L3.15518 26.4977V24.2903L0.55261 22.9958V20.0117L1.66995 19.453L3.49583 20.366L3.90462 20.1616L4.23164 20.3251L6.33005 17.668L5.77138 17.3955V13.0216L4.84481 12.5583V6.57644L15.2824 1.35766ZM15.2824 0.812622C15.2006 0.812622 15.1188 0.826248 15.0371 0.867126L4.59954 6.09953C4.40878 6.19491 4.29977 6.38567 4.29977 6.59006V12.5583C4.29977 12.7627 4.42241 12.9534 4.59954 13.0488L5.22634 13.3622V17.4091C5.22634 17.5999 5.32172 17.777 5.48524 17.8724L4.08175 19.6574C4.02725 19.6438 3.97275 19.6302 3.90462 19.6302C3.82286 19.6302 3.7411 19.6438 3.65935 19.6847L3.49583 19.7664L1.91521 18.9625C1.83346 18.9216 1.7517 18.908 1.66995 18.908C1.58819 18.908 1.50643 18.9216 1.42468 18.9625L0.307341 19.5212C0.130203 19.6166 0.00756836 19.8073 0.00756836 20.0117V22.9958C0.00756836 23.2002 0.130203 23.391 0.307341 23.4864L2.62377 24.6446V26.5113C2.62377 26.7157 2.7464 26.9065 2.92354 27.0019L10.3906 30.7354C10.4724 30.7763 10.5541 30.7899 10.6359 30.7899C10.7176 30.7899 10.7994 30.7763 10.8811 30.7354L11.6306 30.3675C11.7668 30.2994 11.8622 30.1767 11.9031 30.0405L13.0068 30.5855C13.0477 30.5991 13.0749 30.6128 13.1158 30.6264L15.3505 31.1851C15.3914 31.1987 15.4322 31.1987 15.4868 31.1987C15.5685 31.1987 15.6503 31.1851 15.732 31.1442L17.2309 30.3948C17.4216 30.2994 17.5307 30.1086 17.5307 29.9042V29.3456C17.5307 29.1139 17.3808 28.8959 17.1628 28.8278L15.95 28.419L17.2309 27.7786C17.4216 27.6832 17.5307 27.4924 17.5307 27.288V26.7294C17.5307 26.5658 17.4625 26.416 17.3399 26.3069L15.5685 24.8353C15.6094 24.849 15.6503 24.849 15.6775 24.849C15.7593 24.849 15.841 24.8353 15.9228 24.7945L26.374 19.5757C26.5238 19.5075 26.6192 19.3713 26.6601 19.2214L28.8675 20.3251C28.9493 20.366 29.031 20.3796 29.1128 20.3796C29.2082 20.3796 29.3172 20.3524 29.3989 20.2979C29.4262 20.2842 29.4398 20.2706 29.4671 20.2434L31.4837 21.2517C31.5246 21.2653 31.5519 21.2789 31.5927 21.2926L33.8274 21.8512C33.8683 21.8649 33.9092 21.8649 33.9637 21.8649C34.0454 21.8649 34.1272 21.8512 34.2089 21.8104L35.7078 21.0609C35.8986 20.9655 36.0076 20.7748 36.0076 20.5704V20.0117C36.0076 19.7801 35.8577 19.5621 35.6397 19.4939L34.4269 19.0851L35.7078 18.4447C35.8986 18.3493 36.0076 18.1586 36.0076 17.9542V17.3955C36.0076 17.232 35.9394 17.0821 35.8168 16.9731L33.5413 15.12C33.514 15.0927 33.4731 15.0655 33.4322 15.0518L32.6147 14.6431V13.1033C32.6147 12.8989 32.4921 12.7082 32.3149 12.6128L26.6465 9.77856V6.3993C26.6465 6.19491 26.5238 6.00414 26.3467 5.90876L21.8774 3.67409C21.7956 3.63321 21.7139 3.61959 21.6321 3.61959C21.5503 3.61959 21.4686 3.63321 21.3868 3.67409L21.2642 3.74222L18.5254 2.36599L17.0265 1.61656L16.6586 1.42579L15.5413 0.867126C15.4595 0.826248 15.3777 0.812622 15.2824 0.812622ZM7.22937 20.0935L8.01968 19.0988L11.0038 20.5568V21.5106C11.0038 21.715 11.1264 21.9057 11.3036 22.0011L11.7532 22.2191V22.26C11.7532 22.3009 11.7532 22.3418 11.7668 22.369L7.22937 20.0935ZM12.6662 23.2138V23.1457C12.6662 23.1048 12.6662 23.0639 12.6525 23.0367L13.5519 23.4864C13.5791 23.5 13.5927 23.5136 13.62 23.5136V23.5545C13.62 23.609 13.6336 23.6635 13.6472 23.7044L12.6662 23.2138Z" fill="#333333"/>
<path fill-rule="evenodd" clip-rule="evenodd" d="M26.115 19.0852L15.6638 24.304V18.3358L26.115 13.1034V19.0852Z" fill="url(#paint1_linear_202_13478)" stroke="#333333"/>
<path fill-rule="evenodd" clip-rule="evenodd" d="M23.8679 9.7511V15.7193L31.335 19.4528V13.4846L23.8679 9.7511Z" fill="url(#paint2_linear_202_13478)"/>
<path fill-rule="evenodd" clip-rule="evenodd" d="M23.7966 9.63708L31.4048 13.4411V19.567L23.7966 15.763V9.63708ZM23.9377 9.86531V15.6758L31.2637 19.3388V13.5283L23.9377 9.86531Z" fill="#333333"/>
<path fill-rule="evenodd" clip-rule="evenodd" d="M31.3347 13.4847V19.4529L32.0841 19.085V13.1031L31.3347 13.4847Z" fill="url(#paint3_linear_202_13478)"/>
<path fill-rule="evenodd" clip-rule="evenodd" d="M32.1549 12.9882V19.129L31.2644 19.5661V13.4415L32.1549 12.9882ZM31.4055 13.528V19.3397L32.0138 19.0411V13.2182L31.4055 13.528Z" fill="#333333"/>
<path fill-rule="evenodd" clip-rule="evenodd" d="M23.8679 9.75108L24.6174 9.38318L32.0844 13.1031L31.335 13.4846L23.8679 9.75108Z" fill="url(#paint4_linear_202_13478)"/>
<path fill-rule="evenodd" clip-rule="evenodd" d="M24.6173 9.30457L32.2409 13.1025L31.335 13.5637L23.7087 9.75057L24.6173 9.30457ZM24.0265 9.75173L31.3344 13.4057L31.9273 13.1038L24.6168 9.46192L24.0265 9.75173Z" fill="#333333"/>
<path fill-rule="evenodd" clip-rule="evenodd" d="M24.6168 10.8412L23.1179 11.577L29.0998 14.5611L30.585 13.8253L24.6168 10.8412Z" fill="#676767"/>
<path fill-rule="evenodd" clip-rule="evenodd" d="M24.6169 10.7626L30.7431 13.8257L29.0995 14.6399L22.9587 11.5766L24.6169 10.7626ZM23.2768 11.5776L29.0997 14.4824L30.4265 13.8251L24.6163 10.92L23.2768 11.5776Z" fill="#333333"/>
<path fill-rule="evenodd" clip-rule="evenodd" d="M20.8837 10.5006L19.7664 11.0593L24.2493 13.2939L25.3667 12.7353L20.8837 10.5006Z" fill="#676767"/>
<path fill-rule="evenodd" clip-rule="evenodd" d="M20.8833 10.4219L25.5242 12.7353L24.2491 13.3729L19.6082 11.0595L20.8833 10.4219ZM20.8834 10.5795L19.9239 11.0593L24.249 13.2152L25.2085 12.7355L20.8834 10.5795Z" fill="#333333"/>
<path fill-rule="evenodd" clip-rule="evenodd" d="M19.7664 11.0592V14.0433L24.2493 16.278V13.2939L19.7664 11.0592Z" fill="#676767"/>
<path fill-rule="evenodd" clip-rule="evenodd" d="M19.6951 10.9454L24.3191 13.2504V16.3921L19.6951 14.0871V10.9454ZM19.8361 11.1733V13.9998L24.178 16.1642V13.3377L19.8361 11.1733Z" fill="#333333"/>
<path fill-rule="evenodd" clip-rule="evenodd" d="M23.1179 11.618V16.8368L29.0998 19.8209V14.6021L23.1179 11.618Z" fill="#676767"/>
<path fill-rule="evenodd" clip-rule="evenodd" d="M23.0475 11.504L29.1704 14.5585V19.9349L23.0475 16.8804V11.504ZM23.1885 11.732V16.7932L29.0293 19.7069V14.6458L23.1885 11.732Z" fill="#333333"/>
<path fill-rule="evenodd" clip-rule="evenodd" d="M30.5856 13.8253L29.1003 14.5611V19.7935L30.5856 19.0441V13.8253Z" fill="#676767"/>
<path fill-rule="evenodd" clip-rule="evenodd" d="M30.6553 13.7118V19.0876L29.0291 19.9082V14.5175L30.6553 13.7118ZM29.1701 14.605V19.6791L30.5143 19.0008V13.9391L29.1701 14.605Z" fill="#333333"/>
<path fill-rule="evenodd" clip-rule="evenodd" d="M29.0994 18.3356V19.4529L31.7019 20.761V20.0116L29.0994 18.3356Z" fill="url(#paint5_linear_202_13478)"/>
<path fill-rule="evenodd" clip-rule="evenodd" d="M29.0291 18.2062L31.7727 19.973V20.8753L29.0291 19.4963V18.2062ZM29.1702 18.4648V19.4093L31.6317 20.6465V20.0499L29.1702 18.4648Z" fill="#333333"/>
<path fill-rule="evenodd" clip-rule="evenodd" d="M31.7019 20.0116V20.761L33.9366 21.3197V20.761L31.7019 20.0116Z" fill="url(#paint6_linear_202_13478)"/>
<path fill-rule="evenodd" clip-rule="evenodd" d="M31.6317 19.9135L34.0074 20.7102V21.4099L31.6317 20.816V19.9135ZM31.7727 20.1095V20.7059L33.8663 21.2293V20.8117L31.7727 20.1095Z" fill="#333333"/>
<path fill-rule="evenodd" clip-rule="evenodd" d="M33.9373 20.761V21.3197L35.4361 20.5703V20.0116L33.9373 20.761Z" fill="url(#paint7_linear_202_13478)"/>
<path fill-rule="evenodd" clip-rule="evenodd" d="M35.5059 19.8973V20.6137L33.866 21.4337V20.7173L35.5059 19.8973ZM34.007 20.8045V21.2054L35.3648 20.5265V20.1256L34.007 20.8045Z" fill="#333333"/>
<path fill-rule="evenodd" clip-rule="evenodd" d="M33.2008 19.2621L31.7019 20.0115L33.9366 20.7609L35.4354 20.0115L33.2008 19.2621Z" fill="url(#paint8_linear_202_13478)"/>
<path fill-rule="evenodd" clip-rule="evenodd" d="M33.1953 19.1859L35.6187 19.9987L33.9418 20.8371L31.5183 20.0244L33.1953 19.1859ZM33.206 19.3383L31.8852 19.9987L33.9311 20.6848L35.2518 20.0244L33.206 19.3383Z" fill="#333333"/>
<path fill-rule="evenodd" clip-rule="evenodd" d="M30.5846 17.5861L29.0994 18.3355L31.7019 20.0115L33.2008 19.2621L30.5846 17.5861Z" fill="url(#paint9_linear_202_13478)"/>
<path fill-rule="evenodd" clip-rule="evenodd" d="M30.589 17.505L33.3436 19.2697L31.6977 20.0926L28.9578 18.3281L30.589 17.505ZM29.2414 18.343L31.7065 19.9305L33.0585 19.2545L30.5807 17.6672L29.2414 18.343Z" fill="#333333"/>
<path fill-rule="evenodd" clip-rule="evenodd" d="M29.1003 14.9698V16.0872L31.7029 17.0274V16.2779L29.1003 14.9698Z" fill="url(#paint10_linear_202_13478)"/>
<path fill-rule="evenodd" clip-rule="evenodd" d="M29.03 14.8556L31.7737 16.2346V17.128L29.03 16.1368V14.8556ZM29.1711 15.0844V16.0378L31.6326 16.927V16.3216L29.1711 15.0844Z" fill="#333333"/>
<path fill-rule="evenodd" clip-rule="evenodd" d="M31.7029 16.278V17.0274L33.9376 18.7034V18.1447L31.7029 16.278Z" fill="url(#paint11_linear_202_13478)"/>
<path fill-rule="evenodd" clip-rule="evenodd" d="M31.6326 16.1271L34.0083 18.1117V18.8444L31.6326 17.0626V16.1271ZM31.7736 16.4287V16.9921L33.8672 18.5623V18.1776L31.7736 16.4287Z" fill="#333333"/>
<path fill-rule="evenodd" clip-rule="evenodd" d="M33.9373 18.1448V18.7035L35.4361 17.9541V17.3954L33.9373 18.1448Z" fill="url(#paint12_linear_202_13478)"/>
<path fill-rule="evenodd" clip-rule="evenodd" d="M35.5069 17.2811V17.9975L33.8669 18.8175V18.1011L35.5069 17.2811ZM34.008 18.1883V18.5892L35.3658 17.9103V17.5094L34.008 18.1883Z" fill="#333333"/>
<path fill-rule="evenodd" clip-rule="evenodd" d="M30.5856 14.234L29.1003 14.9698L31.7029 16.2779L33.2018 15.5285L30.5856 14.234Z" fill="url(#paint13_linear_202_13478)"/>
<path fill-rule="evenodd" clip-rule="evenodd" d="M30.5853 14.1554L33.3599 15.5282L31.7026 16.3569L28.9421 14.9694L30.5853 14.1554ZM30.5853 14.3128L29.258 14.9704L31.7027 16.1991L33.0432 15.5289L30.5853 14.3128Z" fill="#333333"/>
<path fill-rule="evenodd" clip-rule="evenodd" d="M33.2017 15.5284L31.7029 16.2779L33.9376 18.1446L35.4364 17.3952L33.2017 15.5284Z" fill="url(#paint14_linear_202_13478)"/>
<path fill-rule="evenodd" clip-rule="evenodd" d="M33.2114 15.4448L35.5642 17.4102L33.9277 18.2285L31.5749 16.2631L33.2114 15.4448ZM31.8306 16.2929L33.9472 18.061L35.3084 17.3804L33.1918 15.6123L31.8306 16.2929Z" fill="#333333"/>
<path fill-rule="evenodd" clip-rule="evenodd" d="M5.77124 6.76721V17.3955L12.6796 20.7612V10.1192L5.77124 6.76721Z" fill="#676767"/>
<path fill-rule="evenodd" clip-rule="evenodd" d="M5.70087 6.65454L12.7503 10.075V20.8739L5.70087 17.4396V6.65454ZM5.84192 6.87976V17.3514L12.6093 20.6483V10.1633L5.84192 6.87976Z" fill="#333333"/>
<path fill-rule="evenodd" clip-rule="evenodd" d="M10.0632 9.19275V14.6023L11.5621 15.5289V21.5107L15.282 23.3638V11.8089L10.0632 9.19275Z" fill="#676767"/>
<path fill-rule="evenodd" clip-rule="evenodd" d="M9.99292 9.07849L15.3527 11.7654V23.4777L11.4918 21.5543V15.5682L9.99292 14.6416V9.07849ZM10.134 9.30698V14.563L11.6328 15.4895V21.467L15.2117 23.2499V11.8525L10.134 9.30698Z" fill="#333333"/>
<path fill-rule="evenodd" clip-rule="evenodd" d="M16.4135 1.91638L6.15308 7.13515L15.1054 11.6181L25.3658 6.39935L16.4135 1.91638Z" fill="#676767"/>
<path fill-rule="evenodd" clip-rule="evenodd" d="M16.4135 1.83728L25.5226 6.39876L15.1059 11.697L5.99683 7.13554L16.4135 1.83728ZM16.414 1.99528L6.30988 7.13456L15.1054 11.539L25.2095 6.39974L16.414 1.99528Z" fill="#333333"/>
<path fill-rule="evenodd" clip-rule="evenodd" d="M4.84448 6.57656L15.282 1.35779L21.2639 4.34189L10.8127 9.56066L4.84448 6.57656Z" fill="url(#paint15_linear_202_13478)"/>
<path fill-rule="evenodd" clip-rule="evenodd" d="M15.2825 1.27893L21.4223 4.34183L10.8131 9.63948L4.68726 6.57654L15.2825 1.27893ZM15.2825 1.43659L5.00265 6.57654L10.8132 9.4818L21.1064 4.3419L15.2825 1.43659Z" fill="#333333"/>
<path fill-rule="evenodd" clip-rule="evenodd" d="M15.282 2.85649L16.7808 2.10706L18.2797 2.85649L16.7808 3.59229L15.282 2.85649Z" fill="url(#paint16_linear_202_13478)"/>
<path fill-rule="evenodd" clip-rule="evenodd" d="M16.7815 2.0282L18.4392 2.85706L16.7815 3.67085L15.1238 2.85706L16.7815 2.0282ZM15.4415 2.8559L16.7815 3.51372L18.1215 2.8559L16.7815 2.1859L15.4415 2.8559Z" fill="#333333"/>
<path fill-rule="evenodd" clip-rule="evenodd" d="M15.282 12.5446L25.7332 7.32581V18.5128L15.282 23.7452V12.5446Z" fill="#676767"/>
<path fill-rule="evenodd" clip-rule="evenodd" d="M25.8039 7.21179V18.5564L15.2117 23.8594V12.501L25.8039 7.21179ZM15.3527 12.5882V23.631L25.6628 18.4693V7.43988L15.3527 12.5882Z" fill="#333333"/>
<path fill-rule="evenodd" clip-rule="evenodd" d="M7.82886 6.57648L9.3141 7.32591L16.7812 3.59237L15.2823 2.85657L7.82886 6.57648Z" fill="#676767"/>
<path fill-rule="evenodd" clip-rule="evenodd" d="M15.2821 2.77771L16.94 3.59163L9.31396 7.40467L7.67163 6.57597L15.2821 2.77771ZM15.2826 2.93509L7.98611 6.57666L9.31425 7.24682L16.6223 3.59279L15.2826 2.93509Z" fill="#333333"/>
<path fill-rule="evenodd" clip-rule="evenodd" d="M15.282 4.34181L16.4129 3.78314L16.7808 3.59237L15.282 2.85657V4.34181Z" fill="#676767"/>
<path fill-rule="evenodd" clip-rule="evenodd" d="M15.2117 2.74329L16.9376 3.59056L16.4444 3.84629L15.2117 4.45521V2.74329ZM15.3527 2.96966V4.22821L16.3813 3.72012L16.6245 3.594L15.3527 2.96966Z" fill="#333333"/>
<path fill-rule="evenodd" clip-rule="evenodd" d="M14.5466 4.70974L14.9145 4.5326L15.6639 4.15107L14.5466 3.59241V4.70974Z" fill="#333333"/>
<path fill-rule="evenodd" clip-rule="evenodd" d="M14.4763 3.47827L15.8207 4.15048L14.9453 4.59614L14.4763 4.82195V3.47827ZM14.6174 3.7065V4.59749L14.8834 4.46938L15.5076 4.15162L14.6174 3.7065Z" fill="#333333"/>
<path fill-rule="evenodd" clip-rule="evenodd" d="M14.5466 3.59242L15.6639 4.15109L16.0318 3.97395L14.9145 3.41528L14.5466 3.59242Z" fill="#676767"/>
<path fill-rule="evenodd" clip-rule="evenodd" d="M14.9151 3.33667L16.1919 3.97509L15.6633 4.22959L14.3865 3.59117L14.9151 3.33667ZM14.7067 3.59356L15.6645 4.07248L15.8717 3.9727L14.9139 3.49378L14.7067 3.59356Z" fill="#333333"/>
<path fill-rule="evenodd" clip-rule="evenodd" d="M13.7976 5.09133L14.1655 4.90057L14.9149 4.53267L13.7976 3.974V5.09133Z" fill="#333333"/>
<path fill-rule="evenodd" clip-rule="evenodd" d="M13.7273 3.85974L15.074 4.5331L14.1975 4.96339L13.7273 5.2072V3.85974ZM13.8683 4.08797V4.97518L14.1346 4.8371L14.7563 4.53194L13.8683 4.08797Z" fill="#333333"/>
<path fill-rule="evenodd" clip-rule="evenodd" d="M13.7976 3.97385L14.9149 4.53251L15.2828 4.34175L14.1655 3.78308L13.7976 3.97385Z" fill="#676767"/>
<path fill-rule="evenodd" clip-rule="evenodd" d="M14.1651 3.70398L15.4384 4.34065L14.9157 4.61169L13.6423 3.97503L14.1651 3.70398ZM14.1662 3.86226L13.9532 3.97274L14.9145 4.45341L15.1276 4.34293L14.1662 3.86226Z" fill="#333333"/>
<path fill-rule="evenodd" clip-rule="evenodd" d="M13.0476 5.45901L13.4291 5.26825L14.1649 4.90034L13.0476 4.34167V5.45901Z" fill="#333333"/>
<path fill-rule="evenodd" clip-rule="evenodd" d="M12.9763 4.22766L14.3219 4.90044L12.9763 5.57322V4.22766ZM13.1174 4.45589V5.345L14.0065 4.90044L13.1174 4.45589Z" fill="#333333"/>
<path fill-rule="evenodd" clip-rule="evenodd" d="M13.0476 4.34177L14.1649 4.90043L14.5465 4.70967L13.4291 4.151L13.0476 4.34177Z" fill="#676767"/>
<path fill-rule="evenodd" clip-rule="evenodd" d="M13.4286 4.07214L14.7037 4.70966L14.1644 4.97928L12.8894 4.34176L13.4286 4.07214ZM13.2048 4.34176L14.1644 4.82158L14.3883 4.70966L13.4286 4.22984L13.2048 4.34176Z" fill="#333333"/>
<path fill-rule="evenodd" clip-rule="evenodd" d="M12.2977 5.84056L12.6792 5.64979L13.4286 5.26826L12.2977 4.70959V5.84056Z" fill="#333333"/>
<path fill-rule="evenodd" clip-rule="evenodd" d="M12.2273 4.59619L13.5861 5.26741L12.7109 5.71297L12.2273 5.95476V4.59619ZM12.3683 4.82319V5.72654L12.6476 5.58692L13.2715 5.26931L12.3683 4.82319Z" fill="#333333"/>
<path fill-rule="evenodd" clip-rule="evenodd" d="M12.2977 4.70973L13.4286 5.2684L13.7965 5.09126L12.6792 4.53259L12.2977 4.70973Z" fill="#676767"/>
<path fill-rule="evenodd" clip-rule="evenodd" d="M12.6805 4.45422L13.9568 5.09237L13.4284 5.34678L12.1346 4.70767L12.6805 4.45422ZM12.461 4.71162L13.4292 5.18985L13.6366 5.08998L12.6782 4.61079L12.461 4.71162Z" fill="#333333"/>
<path fill-rule="evenodd" clip-rule="evenodd" d="M11.5623 6.20852L11.9302 6.01776L12.6796 5.64985L11.5623 5.09119V6.20852Z" fill="#333333"/>
<path fill-rule="evenodd" clip-rule="evenodd" d="M11.4919 4.97693L12.8387 5.65029L11.9621 6.08058L11.4919 6.32439V4.97693ZM11.633 5.20515V6.09237L11.8993 5.95429L12.5209 5.64913L11.633 5.20515Z" fill="#333333"/>
<path fill-rule="evenodd" clip-rule="evenodd" d="M11.5623 5.09103L12.6796 5.6497L13.0475 5.45894L11.9302 4.90027L11.5623 5.09103Z" fill="#676767"/>
<path fill-rule="evenodd" clip-rule="evenodd" d="M11.9297 4.82117L13.203 5.45783L12.6803 5.72888L11.407 5.09222L11.9297 4.82117ZM11.9309 4.97945L11.7178 5.08993L12.6792 5.5706L12.8922 5.46012L11.9309 4.97945Z" fill="#333333"/>
<path fill-rule="evenodd" clip-rule="evenodd" d="M10.8123 6.5762L11.1802 6.39906L11.9296 6.01753L10.8123 5.45886V6.5762Z" fill="#333333"/>
<path fill-rule="evenodd" clip-rule="evenodd" d="M10.7419 5.34485L12.0864 6.01706L11.211 6.46272L10.7419 6.68853V5.34485ZM10.883 5.57307V6.46407L11.1491 6.33595L11.7732 6.0182L10.883 5.57307Z" fill="#333333"/>
<path fill-rule="evenodd" clip-rule="evenodd" d="M10.8123 5.45895L11.9296 6.01762L12.2975 5.84048L11.1802 5.26819L10.8123 5.45895Z" fill="#676767"/>
<path fill-rule="evenodd" clip-rule="evenodd" d="M11.1801 5.18884L12.4561 5.84243L11.9291 6.09617L10.657 5.46009L11.1801 5.18884ZM11.1805 5.34752L10.9678 5.4578L11.9303 5.93906L12.1391 5.83852L11.1805 5.34752Z" fill="#333333"/>
<path fill-rule="evenodd" clip-rule="evenodd" d="M10.0632 6.95816L10.4447 6.76739L11.1805 6.39949L10.0632 5.84082V6.95816Z" fill="#333333"/>
<path fill-rule="evenodd" clip-rule="evenodd" d="M9.99286 5.72656L11.3384 6.39934L9.99286 7.07212V5.72656ZM10.1339 5.95479V6.8439L11.023 6.39934L10.1339 5.95479Z" fill="#333333"/>
<path fill-rule="evenodd" clip-rule="evenodd" d="M10.0632 5.84067L11.1805 6.39933L11.562 6.20857L10.4447 5.6499L10.0632 5.84067Z" fill="#676767"/>
<path fill-rule="evenodd" clip-rule="evenodd" d="M10.4452 5.57104L11.7202 6.20856L11.181 6.47818L9.90594 5.84066L10.4452 5.57104ZM10.2213 5.84066L11.181 6.32048L11.4048 6.20856L10.4452 5.72874L10.2213 5.84066Z" fill="#333333"/>
<path fill-rule="evenodd" clip-rule="evenodd" d="M9.31323 7.32571L9.69476 7.13494L10.4442 6.76704L9.31323 6.20837V7.32571Z" fill="#333333"/>
<path fill-rule="evenodd" clip-rule="evenodd" d="M9.24292 6.09497L10.604 6.76733L9.72651 7.19812L9.72605 7.19835L9.24292 7.43992V6.09497ZM9.38397 6.32197V7.21169L9.66389 7.07173L10.2848 6.76694L9.38397 6.32197Z" fill="#333333"/>
<path fill-rule="evenodd" clip-rule="evenodd" d="M9.31323 6.20846L10.4442 6.76713L10.8121 6.57637L9.69476 6.0177L9.31323 6.20846Z" fill="#676767"/>
<path fill-rule="evenodd" clip-rule="evenodd" d="M9.69502 5.93884L10.9678 6.57522L10.4452 6.84617L9.15503 6.20884L9.69502 5.93884ZM9.47196 6.20807L10.4437 6.68808L10.6569 6.5775L9.69502 6.09654L9.47196 6.20807Z" fill="#333333"/>
<path fill-rule="evenodd" clip-rule="evenodd" d="M8.57776 7.69375L8.94566 7.51661L9.69509 7.13508L8.57776 6.57642V7.69375Z" fill="#333333"/>
<path fill-rule="evenodd" clip-rule="evenodd" d="M8.50757 6.46228L9.85199 7.13449L8.9766 7.58015L8.50757 7.80596V6.46228ZM8.64862 6.69051V7.5815L8.9147 7.45338L9.53886 7.13563L8.64862 6.69051Z" fill="#333333"/>
<path fill-rule="evenodd" clip-rule="evenodd" d="M8.57776 6.57631L9.69509 7.13498L10.063 6.95784L8.94566 6.39917L8.57776 6.57631Z" fill="#676767"/>
<path fill-rule="evenodd" clip-rule="evenodd" d="M8.9463 6.32068L10.2231 6.9591L9.69456 7.2136L8.41772 6.57518L8.9463 6.32068ZM8.7379 6.57757L9.69573 7.05648L9.90296 6.95671L8.94513 6.47779L8.7379 6.57757Z" fill="#333333"/>
<path fill-rule="evenodd" clip-rule="evenodd" d="M16.7809 15.1608V17.3954L19.3971 16.0873V13.8527L16.7809 15.1608Z" fill="#36A3C9"/>
<path fill-rule="evenodd" clip-rule="evenodd" d="M19.4679 13.7386V16.131L16.7106 17.5096V15.1173L19.4679 13.7386ZM16.8517 15.2044V17.2814L19.3268 16.0438V13.9669L16.8517 15.2044Z" fill="#010101"/>
<path fill-rule="evenodd" clip-rule="evenodd" d="M18.6477 15.7195V14.2343L16.7809 15.1608V16.6597L18.6477 15.7195Z" fill="#50C8EC"/>
<path fill-rule="evenodd" clip-rule="evenodd" d="M19.3971 16.0873V13.8527L17.5304 14.7929L16.7809 15.1608" fill="url(#paint17_linear_202_13478)"/>
<path fill-rule="evenodd" clip-rule="evenodd" d="M19.4679 13.7386V16.131L16.7106 17.5096V15.1173L19.4679 13.7386ZM16.8517 15.2044V17.2814L19.3268 16.0438V13.9669L16.8517 15.2044Z" fill="#333333"/>
<path fill-rule="evenodd" clip-rule="evenodd" d="M21.6326 12.7355V14.9701L24.2488 13.6757V11.4274L21.6326 12.7355Z" fill="#36A3C9"/>
<path fill-rule="evenodd" clip-rule="evenodd" d="M24.3195 11.3134V13.7196L21.5623 15.0838V12.692L24.3195 11.3134ZM21.7033 12.7792V14.8567L24.1785 13.632V11.5416L21.7033 12.7792Z" fill="#010101"/>
<path fill-rule="evenodd" clip-rule="evenodd" d="M23.4993 13.2942V11.809L21.6326 12.7355V14.2344L23.4993 13.2942Z" fill="#50C8EC"/>
<path fill-rule="evenodd" clip-rule="evenodd" d="M24.2488 13.6757V11.4274L22.382 12.3676L21.6326 12.7355" fill="url(#paint18_linear_202_13478)"/>
<path fill-rule="evenodd" clip-rule="evenodd" d="M24.3195 11.3134V13.7196L21.5623 15.0838V12.692L24.3195 11.3134ZM21.7033 12.7792V14.8567L24.1785 13.632V11.5416L21.7033 12.7792Z" fill="#333333"/>
<path fill-rule="evenodd" clip-rule="evenodd" d="M10.8127 14.0436V9.56064L4.84448 6.57654V12.5447L12.2979 16.2783V22.2465L13.7968 22.9959V17.0277L15.282 17.7771V16.2783L10.8127 14.0436Z" fill="url(#paint19_linear_202_13478)"/>
<path fill-rule="evenodd" clip-rule="evenodd" d="M4.77423 6.46228L10.8835 9.51691V13.9999L15.3528 16.2345V17.8916L13.8676 17.1421V23.1099L12.2277 22.2899V16.3217L4.77423 12.5882V6.46228ZM4.91528 6.69051V12.501L12.3687 16.2346V22.2028L13.7265 22.8817V16.913L15.2118 17.6624V16.3217L10.7424 14.087V9.60408L4.91528 6.69051Z" fill="#333333"/>
<path fill-rule="evenodd" clip-rule="evenodd" d="M26.115 19.0852L15.6638 24.304V18.3358L26.115 13.1034V19.0852Z" fill="url(#paint20_linear_202_13478)"/>
<path fill-rule="evenodd" clip-rule="evenodd" d="M26.1856 12.9891V19.1288L15.5934 24.418V18.2922L26.1856 12.9891ZM15.7344 18.3793V24.1899L26.0446 19.0415V13.2175L15.7344 18.3793Z" fill="#333333"/>
<path fill-rule="evenodd" clip-rule="evenodd" d="M14.1648 17.5863V23.5545L15.6637 24.3039V18.3357L14.1648 17.5863Z" fill="url(#paint21_linear_202_13478)"/>
<path fill-rule="evenodd" clip-rule="evenodd" d="M14.0945 17.472L15.7344 18.292V24.4179L14.0945 23.598V17.472ZM14.2355 17.7003V23.5108L15.5933 24.1897V18.3792L14.2355 17.7003Z" fill="#333333"/>
<path fill-rule="evenodd" clip-rule="evenodd" d="M26.115 10.8686L15.6638 16.0874V11.6181L26.115 6.39929V10.8686Z" fill="url(#paint22_linear_202_13478)"/>
<path fill-rule="evenodd" clip-rule="evenodd" d="M26.1856 6.28528V10.9123L15.5934 16.2015V11.5745L26.1856 6.28528ZM15.7344 11.6617V15.9734L26.0446 10.8251V6.51337L15.7344 11.6617Z" fill="#333333"/>
<path fill-rule="evenodd" clip-rule="evenodd" d="M11.1814 9.3834L21.6326 4.151L26.1155 6.3993L15.6644 11.6181L11.1814 9.3834Z" fill="url(#paint23_linear_202_13478)"/>
<path fill-rule="evenodd" clip-rule="evenodd" d="M21.6322 4.07214L26.2727 6.39946L15.664 11.6969L11.0232 9.38356L21.6322 4.07214ZM11.3388 9.38329L15.6639 11.5393L25.9576 6.39919L21.6321 4.22991L11.3388 9.38329Z" fill="#333333"/>
<path fill-rule="evenodd" clip-rule="evenodd" d="M17.8982 9.00196L20.8823 7.51672L22.3812 8.26616L19.3971 9.75139L17.8982 9.00196Z" fill="url(#paint24_linear_202_13478)"/>
<path fill-rule="evenodd" clip-rule="evenodd" d="M20.8831 7.43787L22.5399 8.26626L19.3977 9.83016L17.741 9.00177L20.8831 7.43787ZM18.0569 9.00206L19.3979 9.67254L22.2239 8.26597L20.883 7.59549L18.0569 9.00206Z" fill="#333333"/>
<path fill-rule="evenodd" clip-rule="evenodd" d="M11.1814 9.38342V13.8528L15.6644 16.0874V11.6181L11.1814 9.38342Z" fill="url(#paint25_linear_202_13478)"/>
<path fill-rule="evenodd" clip-rule="evenodd" d="M11.1101 9.26941L15.7341 11.5744V16.2013L11.1101 13.8964V9.26941ZM11.2512 9.49732V13.8091L15.5931 15.9734V11.6617L11.2512 9.49732Z" fill="#333333"/>
<path fill-rule="evenodd" clip-rule="evenodd" d="M15.6635 18.3357L26.1147 13.1033L25.7332 12.9261L15.282 18.1449L15.6635 18.3357Z" fill="url(#paint26_linear_202_13478)"/>
<path fill-rule="evenodd" clip-rule="evenodd" d="M25.7326 12.848L26.2776 13.101L15.6641 18.4147L15.1248 18.145L25.7326 12.848ZM25.7348 13.0046L15.4403 18.1451L15.664 18.257L25.9529 13.1058L25.7348 13.0046Z" fill="#333333"/>
<path fill-rule="evenodd" clip-rule="evenodd" d="M7.63843 15.3517V17.2185L9.13729 17.9543V16.0875L7.63843 15.3517Z" fill="#333333"/>
<path fill-rule="evenodd" clip-rule="evenodd" d="M7.56812 15.2384L9.20803 16.0435V18.0674L7.56812 17.2623V15.2384ZM7.70917 15.4648V17.1744L9.06698 17.841V16.1313L7.70917 15.4648Z" fill="#333333"/>
<path fill-rule="evenodd" clip-rule="evenodd" d="M3.16968 21.6876V22.9957L3.90548 23.3636V22.0692L3.16968 21.6876Z" fill="#676767"/>
<path fill-rule="evenodd" clip-rule="evenodd" d="M3.09937 21.5717L3.97622 22.0263V23.4778L3.09937 23.0394V21.5717ZM3.24042 21.8037V22.9522L3.83517 23.2496V22.1121L3.24042 21.8037Z" fill="#333333"/>
<path fill-rule="evenodd" clip-rule="evenodd" d="M8.02055 15.5287L3.16968 21.6877L3.90548 22.0692L8.75635 15.9102L8.02055 15.5287Z" fill="#676767"/>
<path fill-rule="evenodd" clip-rule="evenodd" d="M8.001 15.4392L8.86429 15.8868L3.92457 22.1586L3.06128 21.711L8.001 15.4392ZM8.03963 15.6181L3.27762 21.6643L3.88594 21.9797L8.64796 15.9336L8.03963 15.6181Z" fill="#333333"/>
<path fill-rule="evenodd" clip-rule="evenodd" d="M3.90503 22.0692V23.3637L9.13743 16.8368V16.0874L8.7559 15.9103L3.90503 22.0692Z" fill="#676767"/>
<path fill-rule="evenodd" clip-rule="evenodd" d="M8.73522 15.8228L9.20817 16.0423V16.8616L3.83472 23.5644V22.0447L8.73522 15.8228ZM8.777 15.9977L3.97577 22.0936V23.1629L9.06712 16.812V16.1324L8.777 15.9977Z" fill="#333333"/>
<path fill-rule="evenodd" clip-rule="evenodd" d="M6.15292 20.1615L4.65405 20.9109L10.6223 23.895L12.1211 23.1456L6.15292 20.1615Z" fill="#676767"/>
<path fill-rule="evenodd" clip-rule="evenodd" d="M6.15339 20.0826L12.2793 23.1456L10.6227 23.9739L4.49683 20.9109L6.15339 20.0826ZM4.81223 20.9109L10.6227 23.8162L11.9639 23.1456L6.15339 20.2403L4.81223 20.9109Z" fill="#333333"/>
<path fill-rule="evenodd" clip-rule="evenodd" d="M1.66983 19.453L0.55249 20.0117L5.77126 22.6279L6.8886 22.0692L1.66983 19.453Z" fill="#676767"/>
<path fill-rule="evenodd" clip-rule="evenodd" d="M1.67018 19.3741L7.04644 22.0693L5.77153 22.7068L0.395264 20.0116L1.67018 19.3741ZM0.710334 20.0118L5.77161 22.549L6.73137 22.0691L1.67009 19.5319L0.710334 20.0118Z" fill="#333333"/>
<path fill-rule="evenodd" clip-rule="evenodd" d="M0.55249 20.0116V22.9957L5.77126 25.6119V22.6278L0.55249 20.0116Z" fill="#676767"/>
<path fill-rule="evenodd" clip-rule="evenodd" d="M0.482178 19.8973L5.842 22.5842V25.7261L0.482178 23.0392V19.8973ZM0.623229 20.1258V22.9522L5.70095 25.4976V22.6713L0.623229 20.1258Z" fill="#333333"/>
<path fill-rule="evenodd" clip-rule="evenodd" d="M4.65405 20.9384V26.1708L10.6223 29.1549V23.9225L4.65405 20.9384Z" fill="#676767"/>
<path fill-rule="evenodd" clip-rule="evenodd" d="M4.58368 20.8241L10.6929 23.8787V29.2688L4.58368 26.2142V20.8241ZM4.72473 21.0523V26.127L10.5519 29.0406V23.9659L4.72473 21.0523Z" fill="#333333"/>
<path fill-rule="evenodd" clip-rule="evenodd" d="M12.1217 23.1456L10.6228 23.8951V29.1138L12.1217 28.3644V23.1456Z" fill="#676767"/>
<path fill-rule="evenodd" clip-rule="evenodd" d="M12.1914 23.0316V28.4081L10.5515 29.228V23.8516L12.1914 23.0316ZM10.6926 23.9387V28.9998L12.0504 28.3209V23.2598L10.6926 23.9387Z" fill="#333333"/>
<path fill-rule="evenodd" clip-rule="evenodd" d="M10.6218 27.6559V28.7732L13.238 30.0813V29.3319L10.6218 27.6559Z" fill="url(#paint27_linear_202_13478)"/>
<path fill-rule="evenodd" clip-rule="evenodd" d="M10.5515 27.527L13.3088 29.2933V30.1955L10.5515 28.8168V27.527ZM10.6926 27.7849V28.7297L13.1677 29.9672V29.3705L10.6926 27.7849Z" fill="#333333"/>
<path fill-rule="evenodd" clip-rule="evenodd" d="M13.238 29.3319V30.0813L15.4726 30.64V30.0813L13.238 29.3319Z" fill="url(#paint28_linear_202_13478)"/>
<path fill-rule="evenodd" clip-rule="evenodd" d="M13.1677 29.2338L15.5434 30.0305V30.7302L13.1677 30.1363V29.2338ZM13.3088 29.4298V30.0262L15.4024 30.5496V30.132L13.3088 29.4298Z" fill="#333333"/>
<path fill-rule="evenodd" clip-rule="evenodd" d="M15.4724 30.0813V30.64L16.9713 29.9042V29.3319L15.4724 30.0813Z" fill="url(#paint29_linear_202_13478)"/>
<path fill-rule="evenodd" clip-rule="evenodd" d="M17.042 29.2178V29.9481L15.4021 30.7532V30.0377L17.042 29.2178ZM15.5432 30.1249V30.5268L16.901 29.8602V29.446L15.5432 30.1249Z" fill="#333333"/>
<path fill-rule="evenodd" clip-rule="evenodd" d="M14.7232 28.5961L13.238 29.3319L15.4726 30.0813L16.9715 29.3319L14.7232 28.5961Z" fill="url(#paint30_linear_202_13478)"/>
<path fill-rule="evenodd" clip-rule="evenodd" d="M14.7175 28.5201L17.1563 29.3183L15.4778 30.1576L13.0535 29.3445L14.7175 28.5201ZM14.7284 28.6721L13.422 29.3194L15.4671 30.0052L16.7863 29.3456L14.7284 28.6721Z" fill="#333333"/>
<path fill-rule="evenodd" clip-rule="evenodd" d="M12.1207 26.92L10.6218 27.6559L13.238 29.3319L14.7233 28.596L12.1207 26.92Z" fill="url(#paint31_linear_202_13478)"/>
<path fill-rule="evenodd" clip-rule="evenodd" d="M12.1253 26.8392L14.8659 28.6041L13.2335 29.4128L10.4783 27.6478L12.1253 26.8392ZM10.7652 27.664L13.2424 29.251L14.5805 28.5881L12.1159 27.001L10.7652 27.664Z" fill="#333333"/>
<path fill-rule="evenodd" clip-rule="evenodd" d="M10.6227 24.3038V25.4212L13.2389 26.3477V25.6119L10.6227 24.3038Z" fill="url(#paint32_linear_202_13478)"/>
<path fill-rule="evenodd" clip-rule="evenodd" d="M10.5515 24.1896L13.3087 25.5682V26.4474L10.5515 25.4709V24.1896ZM10.6925 24.4178V25.3712L13.1677 26.2478V25.6554L10.6925 24.4178Z" fill="#333333"/>
<path fill-rule="evenodd" clip-rule="evenodd" d="M13.238 25.6119V26.3477L15.4726 28.0374V27.4787L13.238 25.6119Z" fill="url(#paint33_linear_202_13478)"/>
<path fill-rule="evenodd" clip-rule="evenodd" d="M13.1677 25.4611L15.5434 27.4457V28.179L13.1677 26.3828V25.4611ZM13.3087 25.7627V26.3126L15.4023 27.8956V27.5116L13.3087 25.7627Z" fill="#333333"/>
<path fill-rule="evenodd" clip-rule="evenodd" d="M15.4733 27.4786V28.0372L16.9722 27.2878V26.7291L15.4733 27.4786Z" fill="url(#paint34_linear_202_13478)"/>
<path fill-rule="evenodd" clip-rule="evenodd" d="M17.0429 26.6151V27.3315L15.403 28.1514V27.4351L17.0429 26.6151ZM15.5441 27.5222V27.9232L16.9019 27.2443V26.8433L15.5441 27.5222Z" fill="#333333"/>
<path fill-rule="evenodd" clip-rule="evenodd" d="M12.1216 23.5543L10.6227 24.3038L13.2389 25.6119L14.7242 24.8624L12.1216 23.5543Z" fill="url(#paint35_linear_202_13478)"/>
<path fill-rule="evenodd" clip-rule="evenodd" d="M12.1212 23.4755L14.8805 24.8623L13.2386 25.6908L10.4645 24.3038L12.1212 23.4755ZM10.7799 24.3038L13.2383 25.533L14.5669 24.8626L12.121 23.6332L10.7799 24.3038Z" fill="#333333"/>
<path fill-rule="evenodd" clip-rule="evenodd" d="M14.7232 24.8624L13.238 25.6119L15.4726 27.4786L16.9715 26.7292L14.7232 24.8624Z" fill="url(#paint36_linear_202_13478)"/>
<path fill-rule="evenodd" clip-rule="evenodd" d="M14.7333 24.7787L17.1003 26.744L15.4635 27.5624L13.111 25.5973L14.7333 24.7787ZM13.3661 25.6265L15.483 27.3949L16.8439 26.7145L14.7143 24.9463L13.3661 25.6265Z" fill="#333333"/>
<path fill-rule="evenodd" clip-rule="evenodd" d="M3.1687 20.5297V26.5115L10.6221 30.2314V24.2632L3.1687 20.5297Z" fill="url(#paint37_linear_202_13478)"/>
<path fill-rule="evenodd" clip-rule="evenodd" d="M3.09839 20.4154L10.6929 24.2196V30.3454L3.09839 26.5551V20.4154ZM3.23944 20.6438V26.4678L10.5518 30.1173V24.3067L3.23944 20.6438Z" fill="#333333"/>
<path fill-rule="evenodd" clip-rule="evenodd" d="M10.6228 24.2633V30.2315L11.3722 29.8636V23.8954L10.6228 24.2633Z" fill="url(#paint38_linear_202_13478)"/>
<path fill-rule="evenodd" clip-rule="evenodd" d="M11.443 23.7821V29.9074L10.5525 30.3446V24.2193L11.443 23.7821ZM10.6935 24.3071V30.1182L11.3019 29.8196V24.0085L10.6935 24.3071Z" fill="#333333"/>
<path fill-rule="evenodd" clip-rule="evenodd" d="M3.1687 20.5296L3.90451 20.1617L11.3716 23.8953L10.6221 24.2632L3.1687 20.5296Z" fill="url(#paint39_linear_202_13478)"/>
<path fill-rule="evenodd" clip-rule="evenodd" d="M3.90487 20.0829L11.5308 23.8959L10.6222 24.3419L3.01147 20.5296L3.90487 20.0829ZM3.32664 20.5297L10.6228 24.1845L11.2131 23.8947L3.90487 20.2406L3.32664 20.5297Z" fill="#333333"/>
<path fill-rule="evenodd" clip-rule="evenodd" d="M6.32983 7.32597L7.8287 6.57654L9.31394 7.32597L7.8287 8.0754L6.32983 7.32597Z" fill="url(#paint40_linear_202_13478)"/>
<path fill-rule="evenodd" clip-rule="evenodd" d="M7.82932 6.49744L9.47096 7.32579L7.82932 8.15415L6.17261 7.32579L7.82932 6.49744ZM6.48801 7.32579L7.82903 7.9963L9.15786 7.32579L7.82903 6.65528L6.48801 7.32579Z" fill="#333333"/>
</g>
<defs>
<linearGradient id="paint0_linear_202_13478" x1="4.61249" y1="6.42567" x2="22.8841" y2="32.2225" gradientUnits="userSpaceOnUse">
<stop stop-color="white"/>
<stop offset="1" stop-color="#F3F3F3"/>
</linearGradient>
<linearGradient id="paint1_linear_202_13478" x1="18.0871" y1="15.9077" x2="24.0418" y2="21.0922" gradientUnits="userSpaceOnUse">
<stop stop-color="white"/>
<stop offset="1" stop-color="#CDCCCC"/>
</linearGradient>
<linearGradient id="paint2_linear_202_13478" x1="23.3114" y1="10.3113" x2="33.4259" y2="16.3029" gradientUnits="userSpaceOnUse">
<stop stop-color="#E6E6E5"/>
<stop offset="1" stop-color="#B4B4B4"/>
</linearGradient>
<linearGradient id="paint3_linear_202_13478" x1="30.1198" y1="14.695" x2="33.3345" y2="14.7398" gradientUnits="userSpaceOnUse">
<stop stop-color="#E6E6E5"/>
<stop offset="1" stop-color="#B4B4B4"/>
</linearGradient>
<linearGradient id="paint4_linear_202_13478" x1="25.0836" y1="8.53917" x2="26.7782" y2="15.3405" gradientUnits="userSpaceOnUse">
<stop stop-color="white"/>
<stop offset="1" stop-color="#F3F3F3"/>
</linearGradient>
<linearGradient id="paint5_linear_202_13478" x1="29.0465" y1="18.3791" x2="31.3761" y2="21.0614" gradientUnits="userSpaceOnUse">
<stop stop-color="#E6E6E5"/>
<stop offset="1" stop-color="#B4B4B4"/>
</linearGradient>
<linearGradient id="paint6_linear_202_13478" x1="31.8912" y1="19.8248" x2="32.6208" y2="21.9542" gradientUnits="userSpaceOnUse">
<stop stop-color="#E6E6E5"/>
<stop offset="1" stop-color="#B4B4B4"/>
</linearGradient>
<linearGradient id="paint7_linear_202_13478" x1="34.3635" y1="20.3378" x2="34.9179" y2="21.0657" gradientUnits="userSpaceOnUse">
<stop stop-color="#E6E6E5"/>
<stop offset="1" stop-color="#B4B4B4"/>
</linearGradient>
<linearGradient id="paint8_linear_202_13478" x1="31.7047" y1="20.0113" x2="35.4354" y2="20.0113" gradientUnits="userSpaceOnUse">
<stop stop-color="white"/>
<stop offset="1" stop-color="#F3F3F3"/>
</linearGradient>
<linearGradient id="paint9_linear_202_13478" x1="29.0932" y1="18.7988" x2="33.197" y2="18.7988" gradientUnits="userSpaceOnUse">
<stop stop-color="white"/>
<stop offset="1" stop-color="#F3F3F3"/>
</linearGradient>
<linearGradient id="paint10_linear_202_13478" x1="29.1408" y1="14.9281" x2="30.8438" y2="17.6528" gradientUnits="userSpaceOnUse">
<stop stop-color="#E6E6E5"/>
<stop offset="1" stop-color="#B4B4B4"/>
</linearGradient>
<linearGradient id="paint11_linear_202_13478" x1="31.6124" y1="16.3738" x2="34.1179" y2="18.5007" gradientUnits="userSpaceOnUse">
<stop stop-color="#E6E6E5"/>
<stop offset="1" stop-color="#B4B4B4"/>
</linearGradient>
<linearGradient id="paint12_linear_202_13478" x1="34.3635" y1="17.7263" x2="34.9179" y2="18.4542" gradientUnits="userSpaceOnUse">
<stop stop-color="#E6E6E5"/>
<stop offset="1" stop-color="#B4B4B4"/>
</linearGradient>
<linearGradient id="paint13_linear_202_13478" x1="29.0941" y1="15.2545" x2="33.198" y2="15.2545" gradientUnits="userSpaceOnUse">
<stop stop-color="white"/>
<stop offset="1" stop-color="#F3F3F3"/>
</linearGradient>
<linearGradient id="paint14_linear_202_13478" x1="31.7056" y1="16.84" x2="35.4364" y2="16.84" gradientUnits="userSpaceOnUse">
<stop stop-color="white"/>
<stop offset="1" stop-color="#F3F3F3"/>
</linearGradient>
<linearGradient id="paint15_linear_202_13478" x1="9.50611" y1="1.91741" x2="11.5872" y2="10.2556" gradientUnits="userSpaceOnUse">
<stop stop-color="white"/>
<stop offset="1" stop-color="#F3F3F3"/>
</linearGradient>
<linearGradient id="paint16_linear_202_13478" x1="16.0349" y1="2.10377" x2="16.4652" y2="3.85677" gradientUnits="userSpaceOnUse">
<stop stop-color="white"/>
<stop offset="1" stop-color="#F3F3F3"/>
</linearGradient>
<linearGradient id="paint17_linear_202_13478" x1="19.1807" y1="13.7333" x2="18.2422" y2="15.9613" gradientUnits="userSpaceOnUse">
<stop stop-color="#FDFEFF" stop-opacity="0"/>
<stop offset="0.9104" stop-color="#FDFEFF" stop-opacity="0.9104"/>
<stop offset="1" stop-color="#FDFEFF"/>
</linearGradient>
<linearGradient id="paint18_linear_202_13478" x1="24.0315" y1="11.3084" x2="23.0827" y2="13.5335" gradientUnits="userSpaceOnUse">
<stop stop-color="#FDFEFF" stop-opacity="0"/>
<stop offset="0.9104" stop-color="#FDFEFF" stop-opacity="0.9104"/>
<stop offset="1" stop-color="#FDFEFF"/>
</linearGradient>
<linearGradient id="paint19_linear_202_13478" x1="3.53689" y1="7.8866" x2="18.8472" y2="14.0734" gradientUnits="userSpaceOnUse">
<stop stop-color="#E6E6E5"/>
<stop offset="1" stop-color="#B4B4B4"/>
</linearGradient>
<linearGradient id="paint20_linear_202_13478" x1="18.0871" y1="15.9077" x2="24.0418" y2="21.0922" gradientUnits="userSpaceOnUse">
<stop stop-color="white"/>
<stop offset="1" stop-color="#CDCCCC"/>
</linearGradient>
<linearGradient id="paint21_linear_202_13478" x1="12.8639" y1="18.8923" x2="17.1614" y2="19.1062" gradientUnits="userSpaceOnUse">
<stop stop-color="#E6E6E5"/>
<stop offset="1" stop-color="#B4B4B4"/>
</linearGradient>
<linearGradient id="paint22_linear_202_13478" x1="18.4602" y1="8.8192" x2="22.9177" y2="14.0065" gradientUnits="userSpaceOnUse">
<stop stop-color="white"/>
<stop offset="1" stop-color="#CDCCCC"/>
</linearGradient>
<linearGradient id="paint23_linear_202_13478" x1="15.6627" y1="4.90189" x2="17.4183" y2="11.9245" gradientUnits="userSpaceOnUse">
<stop stop-color="white"/>
<stop offset="1" stop-color="#F3F3F3"/>
</linearGradient>
<linearGradient id="paint24_linear_202_13478" x1="19.2061" y1="7.70006" x2="19.7511" y2="9.89352" gradientUnits="userSpaceOnUse">
<stop stop-color="white"/>
<stop offset="1" stop-color="#F3F3F3"/>
</linearGradient>
<linearGradient id="paint25_linear_202_13478" x1="10.6261" y1="9.93845" x2="17.3752" y2="12.9563" gradientUnits="userSpaceOnUse">
<stop stop-color="#E6E6E5"/>
<stop offset="1" stop-color="#B4B4B4"/>
</linearGradient>
<linearGradient id="paint26_linear_202_13478" x1="19.2527" y1="14.1821" x2="20.1008" y2="17.583" gradientUnits="userSpaceOnUse">
<stop stop-color="white"/>
<stop offset="1" stop-color="#F3F3F3"/>
</linearGradient>
<linearGradient id="paint27_linear_202_13478" x1="10.5786" y1="27.7062" x2="12.8934" y2="30.3994" gradientUnits="userSpaceOnUse">
<stop stop-color="#E6E6E5"/>
<stop offset="1" stop-color="#B4B4B4"/>
</linearGradient>
<linearGradient id="paint28_linear_202_13478" x1="13.4233" y1="29.1519" x2="14.1529" y2="31.2812" gradientUnits="userSpaceOnUse">
<stop stop-color="#E6E6E5"/>
<stop offset="1" stop-color="#B4B4B4"/>
</linearGradient>
<linearGradient id="paint29_linear_202_13478" x1="15.8947" y1="29.6648" x2="16.4491" y2="30.3927" gradientUnits="userSpaceOnUse">
<stop stop-color="#E6E6E5"/>
<stop offset="1" stop-color="#B4B4B4"/>
</linearGradient>
<linearGradient id="paint30_linear_202_13478" x1="13.2367" y1="29.3384" x2="16.9675" y2="29.3384" gradientUnits="userSpaceOnUse">
<stop stop-color="white"/>
<stop offset="1" stop-color="#F3F3F3"/>
</linearGradient>
<linearGradient id="paint31_linear_202_13478" x1="10.6252" y1="28.1258" x2="14.7291" y2="28.1258" gradientUnits="userSpaceOnUse">
<stop stop-color="white"/>
<stop offset="1" stop-color="#F3F3F3"/>
</linearGradient>
<linearGradient id="paint32_linear_202_13478" x1="10.6728" y1="24.2552" x2="12.3426" y2="26.9909" gradientUnits="userSpaceOnUse">
<stop stop-color="#E6E6E5"/>
<stop offset="1" stop-color="#B4B4B4"/>
</linearGradient>
<linearGradient id="paint33_linear_202_13478" x1="13.1435" y1="25.7008" x2="15.649" y2="27.8278" gradientUnits="userSpaceOnUse">
<stop stop-color="#E6E6E5"/>
<stop offset="1" stop-color="#B4B4B4"/>
</linearGradient>
<linearGradient id="paint34_linear_202_13478" x1="15.8956" y1="27.0531" x2="16.45" y2="27.781" gradientUnits="userSpaceOnUse">
<stop stop-color="#E6E6E5"/>
<stop offset="1" stop-color="#B4B4B4"/>
</linearGradient>
<linearGradient id="paint35_linear_202_13478" x1="10.6262" y1="24.5815" x2="14.73" y2="24.5815" gradientUnits="userSpaceOnUse">
<stop stop-color="white"/>
<stop offset="1" stop-color="#F3F3F3"/>
</linearGradient>
<linearGradient id="paint36_linear_202_13478" x1="13.2367" y1="26.1671" x2="16.9675" y2="26.1671" gradientUnits="userSpaceOnUse">
<stop stop-color="white"/>
<stop offset="1" stop-color="#F3F3F3"/>
</linearGradient>
<linearGradient id="paint37_linear_202_13478" x1="2.60442" y1="21.0952" x2="12.7243" y2="27.0682" gradientUnits="userSpaceOnUse">
<stop stop-color="#E6E6E5"/>
<stop offset="1" stop-color="#B4B4B4"/>
</linearGradient>
<linearGradient id="paint38_linear_202_13478" x1="9.41372" y1="25.4789" x2="12.6286" y2="25.5239" gradientUnits="userSpaceOnUse">
<stop stop-color="#E6E6E5"/>
<stop offset="1" stop-color="#B4B4B4"/>
</linearGradient>
<linearGradient id="paint39_linear_202_13478" x1="4.37654" y1="19.323" x2="6.07733" y2="26.1262" gradientUnits="userSpaceOnUse">
<stop stop-color="white"/>
<stop offset="1" stop-color="#F3F3F3"/>
</linearGradient>
<linearGradient id="paint40_linear_202_13478" x1="7.08123" y1="6.58084" x2="7.52449" y2="8.33781" gradientUnits="userSpaceOnUse">
<stop stop-color="white"/>
<stop offset="1" stop-color="#F3F3F3"/>
</linearGradient>
<clipPath id="clip0_202_13478">
<rect width="37" height="32" fill="white"/>
</clipPath>
</defs>
</svg>
