<svg width="34" height="37" viewBox="0 0 34 37" fill="none" xmlns="http://www.w3.org/2000/svg">
<g clip-path="url(#clip0_202_15781)">
<path d="M31.847 5.16087C31.7402 2.37434 29.2909 1.78992 29.2909 1.78992C29.2909 1.78992 20.8017 0.510656 17.0827 0.0462345C13.3625 -0.420587 13.5942 3.18438 13.5942 3.18438C13.5942 3.18438 14.439 29.4596 14.5266 32.7142C14.6262 36.5915 18.2456 35.9675 18.2456 35.9675L31.0358 33.7558C33.3615 33.2902 33.4767 30.3861 33.4767 30.3861C33.4767 30.3861 31.9658 8.20302 31.847 5.16087C31.9658 8.20302 31.7402 2.37434 31.847 5.16087ZM28.9861 27.4807L19.4756 28.466C19.4756 28.466 16.7059 28.8884 16.6435 25.5234C16.5979 23.0441 16.0495 8.84265 16.0495 8.84265C16.0495 8.84265 15.8587 6.23852 18.7088 6.45213C21.6177 6.66814 28.5877 7.19857 28.5877 7.19857C28.5877 7.19857 30.4537 7.64259 30.5353 9.76909C30.6229 12.0804 31.4282 24.9162 31.4282 24.9162C31.4282 24.9162 31.6382 27.0259 28.9861 27.4807Z" fill="black"/>
<path d="M5.70379 23.6525L3.9469 23.7773C3.9469 23.7773 2.17442 24.0174 2.13362 22.0781C2.10482 20.6488 1.92721 12.5364 1.92721 12.5364C1.92721 12.5364 1.8048 11.0351 3.62769 11.1576C4.08971 11.1876 4.74494 11.2296 5.46858 11.2728C5.44337 9.9275 5.42177 8.75144 5.40497 7.8562C4.40173 7.7806 3.46328 7.69899 2.79245 7.62819C0.383938 7.36298 0.531545 9.38507 0.531545 9.38507C0.531545 9.38507 0.821958 24.2634 0.875961 26.0875C0.941964 28.262 3.28327 27.9091 3.28327 27.9091L5.78299 27.6415C5.76139 26.5627 5.73259 25.1874 5.70379 23.6525Z" fill="black"/>
<path d="M12.6917 10.1291C12.6833 9.9395 12.6521 9.76669 12.6041 9.61188C11.8349 9.54948 9.90398 9.04666 9.28475 9.70069C8.89234 10.1123 9.05434 10.9799 9.06394 11.4732C9.89198 11.52 10.4644 11.5524 10.4644 11.5524C10.4644 11.5524 11.6585 11.808 11.7101 13.032C11.7653 14.3665 11.7581 21.8417 11.7581 21.8417C11.7581 21.8417 11.8925 23.0609 10.198 23.3189L9.30875 23.3849C9.31356 23.6501 9.31836 23.8637 9.32076 24.0222C9.35796 26.1535 11.6249 25.4706 13.0469 25.3326C13.1693 23.0717 12.9521 20.7424 12.9017 18.4803C12.8405 15.6974 12.8177 12.9096 12.6917 10.1291C12.7685 11.8308 12.6833 9.9395 12.6917 10.1291Z" fill="black"/>
<path d="M13.4273 26.2063L10.8652 26.4535C10.8652 26.4535 8.47592 26.7967 8.42431 24.0438C8.38711 22.0121 8.1471 10.4963 8.1471 10.4963C8.1471 10.4963 7.98149 8.36742 10.4332 8.53783C11.0632 8.58103 11.9297 8.65184 12.8729 8.72744C12.8021 6.51814 12.7457 4.77566 12.7169 3.87801C11.4257 3.75201 10.2088 3.6248 9.30875 3.5216C6.0686 3.15438 6.27261 6.01891 6.27261 6.01891C6.27261 6.01891 6.65783 27.1423 6.73343 29.7236C6.82104 32.809 9.97359 32.3133 9.97359 32.3133L13.6014 31.8489C13.5654 30.6477 13.5042 28.6304 13.4273 26.2063Z" fill="black"/>
<path d="M18.6404 7.34978C18.1868 7.31377 17.6359 7.34378 17.2999 7.69779C16.9447 8.06981 16.9387 8.59783 16.9591 9.07546C18.2444 9.18706 19.1768 9.26987 19.1768 9.26987C19.1768 9.26987 20.7825 9.63108 20.8557 11.3712C20.9301 13.2637 21.3897 23.5469 21.3897 23.5469C21.3897 23.5469 21.5697 25.2762 19.2872 25.6494L17.5591 25.815C17.7884 28.5164 21.2817 27.3763 23.0686 27.1915C22.885 23.1293 22.3162 10.5659 22.1878 7.61619C20.8329 7.51058 19.5392 7.41338 18.6404 7.34978C19.5392 7.41338 18.5516 7.34258 18.6404 7.34978Z" fill="black"/>
</g>
<defs>
<clipPath id="clip0_202_15781">
<rect width="34" height="37" fill="white"/>
</clipPath>
</defs>
</svg>
