<svg width="36" height="37" viewBox="0 0 36 37" fill="none" xmlns="http://www.w3.org/2000/svg">
<g clip-path="url(#clip0_202_10637)">
<path d="M0.000976562 13.0308C0.000976562 8.47034 0.000976562 6.19013 0.888495 4.44827C1.66918 2.9161 2.91488 1.6704 4.44705 0.889716C6.18891 0.00219727 8.46912 0.00219727 13.0295 0.00219727H22.9724C27.5328 0.00219727 29.813 0.00219727 31.5549 0.889716C33.0871 1.6704 34.3328 2.9161 35.1135 4.44827C36.001 6.19013 36.001 8.47034 36.001 13.0308V22.9736C36.001 27.5341 36.001 29.8143 35.1135 31.5561C34.3328 33.0883 33.0871 34.334 31.5549 35.1147C29.813 36.0022 27.5328 36.0022 22.9724 36.0022H13.0295C8.46912 36.0022 6.18891 36.0022 4.44705 35.1147C2.91488 34.334 1.66918 33.0883 0.888495 31.5561C0.000976562 29.8143 0.000976562 27.5341 0.000976562 22.9736V13.0308Z" fill="#001E36"/>
<path d="M10.5399 23.5635V11.9587C10.5399 11.879 10.5718 11.8312 10.6515 11.8312C11.8204 11.8312 12.9897 11.7674 14.1589 11.7674C16.6405 11.7178 19.0852 13.1216 19.0852 15.7845C19.0852 19.3763 15.921 19.9131 12.9951 19.9131V23.5316C13.0183 23.6476 12.9125 23.691 12.8197 23.691H10.6675C10.5877 23.7229 10.5399 23.6751 10.5399 23.5635ZM12.9951 14.0151V17.8089C13.7587 17.8853 14.6137 17.8593 15.3387 17.6177C16.1624 17.367 16.6141 16.6948 16.6141 15.8482C16.6466 15.1339 16.2157 14.4615 15.5459 14.2063C14.7985 13.9296 13.7922 13.8822 12.9951 14.0151Z" fill="#31A8FF"/>
<path d="M26.1158 17.1077C25.4062 16.7361 24.5685 16.5817 23.7723 16.5817C23.3605 16.5817 22.6403 16.6219 22.6403 17.1874C22.6403 17.7125 23.5604 18.0129 23.9317 18.1439C24.5375 18.3511 25.1274 18.6221 25.6695 18.9728C26.394 19.4453 26.8333 20.2078 26.8333 21.077C26.8933 23.057 24.8319 23.9856 23.1027 23.9463C22.2007 23.9463 21.2464 23.8293 20.4243 23.4362C20.3446 23.3884 20.2967 23.3087 20.2967 23.213V21.2523C20.2967 21.1922 20.3965 21.0853 20.4402 21.1726C21.2649 21.6612 22.2158 21.8719 23.1664 21.9059C23.6016 21.9276 24.41 21.8572 24.41 21.2683C24.3612 20.6827 23.479 20.4259 23.023 20.2799C21.6872 19.8348 20.2808 18.9214 20.2808 17.3628C20.2808 15.4364 22.1461 14.5572 23.836 14.5572C24.6969 14.5573 25.4935 14.5838 26.2115 14.9239C26.3252 14.9618 26.339 15.0567 26.339 15.163V16.9962C26.339 17.1106 26.2107 17.171 26.1158 17.1077Z" fill="#31A8FF"/>
<path d="M18.0011 33.4308C17.3793 33.4308 16.7894 33.1916 16.359 32.7453L3.25406 19.6421C2.34533 18.7335 2.34533 17.2669 3.25406 16.3583L16.359 3.25507C17.2677 2.34645 18.7344 2.34645 19.6432 3.25507L32.7481 16.3583C33.6568 17.2669 33.6568 18.7335 32.7481 19.6421L19.6432 32.7453C19.2127 33.1757 18.6228 33.4308 18.0011 33.4308ZM16.8054 32.299C17.459 32.9525 18.5272 32.9525 19.1808 32.299L32.2858 19.1957C32.9394 18.5422 32.9394 17.4741 32.2858 16.8206L19.1808 3.71735C18.5272 3.06378 17.459 3.06378 16.8054 3.71735L3.70046 16.8206C3.04681 17.4741 3.04681 18.5422 3.70046 19.1957L16.8054 32.299Z" fill="#31A8FF"/>
</g>
<defs>
<clipPath id="clip0_202_10637">
<rect width="36.001" height="37" fill="white"/>
</clipPath>
</defs>
</svg>
