<svg width="36" height="37" viewBox="0 0 36 37" fill="none" xmlns="http://www.w3.org/2000/svg">
<g clip-path="url(#clip0_202_10615)">
<rect x="0.000976562" y="0.00219727" width="36" height="36" rx="8" fill="#001E36"/>
<path fill-rule="evenodd" clip-rule="evenodd" d="M7.17041 25.6618V10.0852C7.17041 9.97926 7.21541 9.91871 7.32041 9.91871C7.57541 9.91871 7.81541 9.91871 8.16041 9.90357C8.34581 9.89577 8.53518 9.89199 8.73058 9.88809C8.91461 9.88442 9.10398 9.88064 9.30041 9.87329C9.50988 9.86546 9.72738 9.86168 9.95291 9.85776C10.1634 9.85411 10.3809 9.85033 10.6054 9.84302C11.0704 9.82788 11.5204 9.82788 11.9704 9.82788C13.2004 9.82788 14.2204 9.97926 15.0604 10.2971C15.8104 10.5545 16.5004 10.9783 17.0704 11.5384C17.5504 12.0228 17.9254 12.6132 18.1654 13.2641C18.3904 13.8999 18.5104 14.5508 18.5104 15.232C18.5104 16.5338 18.2104 17.6086 17.6104 18.4563C17.0104 19.304 16.1704 19.9398 15.1954 20.3031C14.1754 20.6816 13.0504 20.8178 11.8204 20.8178C11.4604 20.8178 11.2204 20.8178 11.0704 20.8027C10.9204 20.7875 10.7104 20.7875 10.4255 20.7875L10.4254 25.6467C10.4404 25.7527 10.3654 25.8435 10.2604 25.8586H7.35041C7.23041 25.8586 7.17041 25.7981 7.17041 25.6618ZM10.4404 12.8403V17.9265L10.4854 17.9298C10.6783 17.9437 10.8583 17.9568 11.0254 17.9568H11.8204C12.4054 17.9568 12.9904 17.866 13.5454 17.6843C14.0254 17.5481 14.4454 17.2604 14.7754 16.882C15.0904 16.5036 15.2404 15.9889 15.2404 15.3228C15.2554 14.8536 15.1354 14.3843 14.8954 13.9756C14.6404 13.582 14.2804 13.2793 13.8454 13.1127C13.2904 12.8857 12.6904 12.7949 12.0754 12.81C11.6854 12.81 11.3404 12.81 11.0554 12.8251C10.7554 12.81 10.5454 12.8251 10.4404 12.8403Z" fill="#31A8FF"/>
<path d="M26.4303 16.4884C26.9403 16.5944 27.4203 16.7609 27.8703 17.0031C27.9303 17.0334 28.0053 17.0334 28.1403 17.0031C28.1853 16.9728 28.2153 16.9123 28.2153 16.8517V14.3843C28.2153 14.3237 28.2003 14.2632 28.1853 14.2026C28.1553 14.1421 28.0953 14.0815 28.0353 14.0664C27.6303 13.8999 27.1953 13.7788 26.7453 13.7182C26.1303 13.6274 25.5003 13.582 24.8853 13.582C23.8203 13.582 22.9353 13.7485 22.2303 14.1118C21.5853 14.4146 21.0303 14.899 20.6553 15.5045C20.3253 16.0646 20.1453 16.6852 20.1453 17.3361C20.1303 17.8659 20.2503 18.3958 20.4903 18.8802C20.7753 19.3948 21.1653 19.8338 21.6303 20.1669C22.2903 20.621 22.9953 20.9843 23.7603 21.2568C24.4953 21.5444 24.9903 21.7714 25.2303 21.9682C25.4703 22.165 25.5903 22.3618 25.5903 22.5737C25.5903 22.8462 25.4253 23.1036 25.1853 23.2095C24.9153 23.3458 24.5103 23.4214 23.9403 23.4214C23.3403 23.4214 22.7403 23.3458 22.1703 23.1944C21.5103 23.043 20.8953 22.8008 20.3103 22.4526C20.2653 22.4224 20.2203 22.4072 20.1753 22.4375C20.1303 22.4678 20.1153 22.5283 20.1153 22.5737V25.2077C20.1003 25.3288 20.1753 25.4348 20.2803 25.4953C20.7603 25.7224 21.2853 25.8889 21.8103 25.9797C22.4853 26.1159 23.1603 26.1765 23.8503 26.1765C24.9303 26.1765 25.8303 26.01 26.5653 25.6921C27.2403 25.4196 27.8253 24.9503 28.2453 24.3448C28.6353 23.7545 28.8453 23.043 28.8303 22.3315C28.8453 21.7866 28.7253 21.2568 28.4853 20.7724C28.2003 20.2577 27.7953 19.8338 27.3003 19.5159C26.5803 19.0618 25.8003 18.6834 24.9903 18.4109C24.6303 18.2595 24.2703 18.093 23.9253 17.9114C23.7303 17.8054 23.5503 17.6692 23.4153 17.5026C23.3253 17.3815 23.2653 17.2453 23.2653 17.1091C23.2653 16.9728 23.3103 16.8214 23.3853 16.7003C23.4903 16.549 23.6553 16.443 23.8503 16.3976C24.1353 16.3219 24.4503 16.2765 24.7503 16.2916C25.3203 16.2916 25.8753 16.3673 26.4303 16.4884Z" fill="#31A8FF"/>
</g>
<defs>
<clipPath id="clip0_202_10615">
<rect width="36.001" height="37" fill="white"/>
</clipPath>
</defs>
</svg>
