<svg width="36" height="37" viewBox="0 0 36 37" fill="none" xmlns="http://www.w3.org/2000/svg">
<g clip-path="url(#clip0_202_10717)">
<path d="M0.000976562 13.0308C0.000976562 8.47034 0.000976562 6.19013 0.888495 4.44827C1.66918 2.9161 2.91488 1.6704 4.44705 0.889716C6.18891 0.00219727 8.46912 0.00219727 13.0295 0.00219727H22.9724C27.5328 0.00219727 29.813 0.00219727 31.5549 0.889716C33.0871 1.6704 34.3328 2.9161 35.1135 4.44827C36.001 6.19013 36.001 8.47034 36.001 13.0308V22.9736C36.001 27.5341 36.001 29.8143 35.1135 31.5561C34.3328 33.0883 33.0871 34.334 31.5549 35.1147C29.813 36.0022 27.5328 36.0022 22.9724 36.0022H13.0295C8.46912 36.0022 6.18891 36.0022 4.44705 35.1147C2.91488 34.334 1.66918 33.0883 0.888495 31.5561C0.000976562 29.8143 0.000976562 27.5341 0.000976562 22.9736V13.0308Z" fill="#001E36"/>
<path d="M7.97109 9.24512C6.55899 9.24512 5.14629 9.27931 3.73536 9.27931C3.64856 9.27931 3.60498 9.33752 3.60498 9.45267V25.2079C3.60498 25.3401 3.65553 25.445 3.75711 25.445L6.38519 25.4457C6.51554 25.4457 6.58075 25.3715 6.58082 25.2231V20.4102C10.4042 20.4102 13.8572 19.2456 13.8583 14.7162C13.8709 11.2046 11.218 9.24575 7.97109 9.24512ZM9.37222 17.1919C8.4966 17.4935 7.49899 17.4955 6.58082 17.4148V12.29C7.57327 12.1698 8.72093 12.1388 9.64384 12.5501C10.4898 12.9441 10.9286 13.8624 10.9039 14.7905C10.9039 15.8764 10.4144 16.8294 9.37222 17.1919Z" fill="#31A8FF"/>
<path d="M18.7891 17.8604C18.2831 17.6311 17.2633 17.2578 17.2467 16.5482C17.2454 15.8255 18.0333 15.6896 18.5936 15.7065C19.5452 15.7108 20.5318 15.9218 21.3554 16.4245C21.4601 16.5014 21.5804 16.3915 21.5727 16.2759V13.7756C21.5732 13.649 21.5534 13.5007 21.4206 13.4537C20.5903 13.0139 19.5764 12.9502 18.6589 12.9585C17.703 12.9585 16.9064 13.1401 16.2692 13.5031C15.0946 14.1354 14.3951 15.4216 14.4009 16.7711C14.3855 17.8937 14.8738 18.9503 15.7369 19.6428C16.3225 20.1066 16.97 20.4818 17.6596 20.7568C18.2163 20.9916 19.2624 21.3179 19.3106 22.0936C19.3329 22.8605 18.379 22.9602 17.8332 22.9602C16.7125 22.9429 15.5604 22.6284 14.6252 21.9849C14.5239 21.9342 14.411 22.0254 14.424 22.137V24.8107C14.4292 24.9257 14.5009 25.033 14.6036 25.0795C15.5635 25.5904 16.6962 25.7697 17.7682 25.7576C20.057 25.7576 22.2984 24.4529 22.2433 21.846C22.2814 19.7136 20.5545 18.5365 18.7891 17.8604Z" fill="#31A8FF"/>
<path d="M32.2136 10.8637C31.4234 10.5364 30.524 10.5022 29.6824 10.5111C25.361 10.5111 22.5025 13.8252 22.5025 18.1694C22.4503 22.3575 25.1295 25.7558 29.35 25.7385C30.2727 25.7423 31.2392 25.6746 32.1071 25.3294C32.2579 25.2578 32.3483 25.0893 32.3265 24.9204V22.6255C32.3473 22.4356 32.2052 22.3491 32.0164 22.4217C31.2691 22.7092 30.4536 22.7482 29.6629 22.7433C27.0907 22.7281 25.4581 20.6422 25.5031 18.0802C25.4446 15.6114 27.0761 13.5405 29.6043 13.4173C30.4505 13.3761 31.3376 13.5002 32.0905 13.9074C32.247 14.0035 32.3895 13.8392 32.3738 13.6789V11.2279C32.3885 11.0882 32.3254 10.9449 32.2136 10.8637Z" fill="#31A8FF"/>
</g>
<defs>
<clipPath id="clip0_202_10717">
<rect width="36.001" height="37" fill="white"/>
</clipPath>
</defs>
</svg>
