<svg width="41" height="22" viewBox="0 0 41 22" fill="none" xmlns="http://www.w3.org/2000/svg">
<g clip-path="url(#clip0_202_14712)">
<path d="M20.0054 21.516C31.0511 21.516 40.0054 16.808 40.0054 11.0004C40.0054 5.19278 31.0511 0.484772 20.0054 0.484772C8.95968 0.484772 0.00537109 5.19278 0.00537109 11.0004C0.00537109 16.808 8.95968 21.516 20.0054 21.516Z" fill="url(#paint0_radial_202_14712)"/>
<path d="M20.0054 20.7348C30.6196 20.7348 39.2241 16.3765 39.2241 11.0004C39.2241 5.62425 30.6196 1.26602 20.0054 1.26602C9.39115 1.26602 0.786621 5.62425 0.786621 11.0004C0.786621 16.3765 9.39115 20.7348 20.0054 20.7348Z" fill="#6181B6"/>
<path fill-rule="evenodd" clip-rule="evenodd" d="M24.8491 9.2504L23.896 14.1566C23.8648 14.2973 23.7398 14.4066 23.5991 14.4535H21.2554C21.1616 14.4535 21.0835 14.4223 21.021 14.3441C20.9585 14.266 20.9429 14.1723 20.9585 14.0785L21.8648 9.40665C21.9741 8.82852 21.8804 8.64102 21.8335 8.59415C21.771 8.53165 21.5835 8.40665 20.9116 8.40665H19.3491L18.2241 14.1879C18.1929 14.3285 18.0679 14.4379 17.9116 14.4379H15.6304C15.5366 14.4379 15.4585 14.4066 15.396 14.3285C15.3335 14.2504 15.3179 14.1566 15.3335 14.0629L15.7398 11.9535C15.4898 12.391 15.1616 12.7973 14.771 13.1566C14.2866 13.6098 13.7398 13.9379 13.1304 14.141C12.5523 14.3285 11.7866 14.4223 10.896 14.4223H9.19289L8.69289 16.9691C8.66164 17.1098 8.53664 17.2191 8.38039 17.2191H6.08352C5.98977 17.2191 5.91164 17.1879 5.84914 17.1098C5.78664 17.0316 5.77102 16.9379 5.78664 16.8441L7.83352 6.28165C7.86477 6.14102 7.98977 6.03165 8.14602 6.03165H12.5366C13.9585 6.03165 15.0054 6.42227 15.6773 7.1879C16.0523 7.59415 16.271 8.09415 16.3648 8.6879L17.3804 3.48477C17.4116 3.34415 17.5366 3.23477 17.6929 3.23477H19.9741C20.0679 3.23477 20.146 3.26602 20.2085 3.34415C20.271 3.42227 20.2866 3.51602 20.271 3.60977L19.8023 6.04727H21.4585C22.8335 6.04727 23.771 6.29727 24.3179 6.79727C24.8804 7.3129 25.0679 8.14102 24.8491 9.2504ZM12.5366 11.6566C12.9273 11.3598 13.1929 10.8285 13.3335 10.0941C13.4585 9.4379 13.4116 8.95352 13.2085 8.70352C13.0523 8.53165 12.6616 8.32852 11.6929 8.32852H10.3804L9.64602 12.1098H10.6616C11.5054 12.1098 12.146 11.9535 12.5366 11.6566Z" fill="white"/>
<path fill-rule="evenodd" clip-rule="evenodd" d="M30.5054 6.03165C31.9273 6.03165 32.9741 6.42228 33.646 7.1879C34.3179 7.96915 34.521 9.03165 34.2554 10.391C34.146 10.9379 33.9585 11.4379 33.7085 11.891C33.4585 12.3442 33.1148 12.766 32.7085 13.141C32.2241 13.5942 31.6773 13.9223 31.0679 14.1254C30.4898 14.3129 29.7241 14.4067 28.8335 14.4067H27.1304L26.6304 16.9535C26.5991 17.0942 26.4741 17.2035 26.3179 17.2035H24.021C23.9273 17.2035 23.8491 17.1723 23.7866 17.0942C23.7241 17.016 23.7085 16.9223 23.7241 16.8285L25.771 6.28165C25.8023 6.14103 25.9273 6.03165 26.0835 6.03165H30.5054ZM30.4585 11.6567C30.8491 11.3598 31.1148 10.8285 31.2554 10.0942C31.396 9.4379 31.3491 8.95353 31.1304 8.70353C30.9741 8.53165 30.5835 8.32853 29.6148 8.32853H28.3023L27.5679 12.1098H28.5835C29.4273 12.1098 30.0679 11.9535 30.4585 11.6567Z" fill="white"/>
<path d="M17.7085 3.54727H19.9897L19.4429 6.34415H21.4741C22.7554 6.34415 23.6304 6.5629 24.1147 7.01602C24.5991 7.46915 24.7397 8.1879 24.5522 9.1879L23.5991 14.0941H21.2866L22.1929 9.42227C22.3022 8.89102 22.2554 8.53165 22.0835 8.34415C21.9116 8.15665 21.521 8.04727 20.9429 8.04727H19.1147L17.9429 14.0941H15.6616L17.7085 3.54727Z" fill="#000004"/>
<path fill-rule="evenodd" clip-rule="evenodd" d="M6.09912 16.891H8.396L8.94287 14.0942H10.9116C11.7866 14.0942 12.4897 14.0004 13.0522 13.8129C13.6147 13.6254 14.1147 13.3285 14.5835 12.891C14.9741 12.5317 15.2866 12.141 15.521 11.7192C15.7554 11.2973 15.9272 10.8285 16.021 10.3129C16.271 9.0629 16.0835 8.09415 15.4741 7.39103C14.8647 6.6879 13.896 6.34415 12.5679 6.34415H8.146L6.09912 16.891ZM11.6929 8.01603C12.5679 8.01603 13.146 8.17228 13.4429 8.5004C13.7397 8.82853 13.8022 9.3754 13.646 10.1567C13.4897 10.9692 13.1772 11.5629 12.7241 11.9067C12.271 12.2504 11.5835 12.4223 10.6616 12.4223H9.271L10.1304 8.01603H11.6929Z" fill="#000004"/>
<path fill-rule="evenodd" clip-rule="evenodd" d="M26.3179 16.891H24.021L26.0679 6.34415H30.4897C31.8179 6.34415 32.7866 6.6879 33.396 7.39103C34.0054 8.09415 34.1929 9.0629 33.9429 10.3129C33.8491 10.8285 33.6772 11.2973 33.4429 11.7192C33.2085 12.141 32.896 12.5317 32.5054 12.891C32.0366 13.3285 31.5366 13.6254 30.9741 13.8129C30.4116 14.0004 29.7085 14.0942 28.8335 14.0942H26.8647L26.3179 16.891ZM31.3647 8.5004C31.0679 8.17228 30.4897 8.01603 29.6147 8.01603H28.0522L27.1929 12.4223H28.5835C29.5054 12.4223 30.1929 12.2504 30.646 11.9067C31.0991 11.5629 31.4116 10.9692 31.5679 10.1567C31.7241 9.3754 31.6616 8.82853 31.3647 8.5004Z" fill="#000004"/>
</g>
<defs>
<radialGradient id="paint0_radial_202_14712" cx="0" cy="0" r="1" gradientUnits="userSpaceOnUse" gradientTransform="translate(12.0135 4.18285) scale(26.2649)">
<stop stop-color="white"/>
<stop offset="0.5" stop-color="#4C6B97"/>
<stop offset="1" stop-color="#231F20"/>
</radialGradient>
<clipPath id="clip0_202_14712">
<rect width="41" height="22" fill="white"/>
</clipPath>
</defs>
</svg>
