<svg width="37" height="37" viewBox="0 0 37 37" fill="none" xmlns="http://www.w3.org/2000/svg">
<g clip-path="url(#clip0_202_10865)">
<path d="M0.00195312 6.92327L6.1332 0.0045166L18.677 2.70452L20.3645 7.82327L19.127 16.7108L14.1401 14.1587L14.402 21.267V27.4545L3.4332 27.567L0.00195312 6.92327Z" fill="url(#paint0_linear_202_10865)"/>
<path d="M11.3645 21.0982L12.0395 12.6045L22.2208 2.14197L31.3333 3.82947L36.002 15.4732L31.1083 20.3107L23.177 19.017L18.1708 24.192L11.3645 21.0982Z" fill="url(#paint1_linear_202_10865)"/>
<path d="M22.2207 2.14197L7.5957 15.1357L10.4082 31.7857L22.5582 36.0045L36.002 27.9607L22.2207 2.14197Z" fill="url(#paint2_linear_202_10865)"/>
<path d="M29.252 6.75452H6.75195V29.2545H29.252V6.75452Z" fill="black"/>
<path d="M8.88936 25.0358H17.3269V26.442H8.88936V25.0358ZM8.77686 9.67954H12.6019C14.8519 9.67954 16.2019 10.9733 16.2019 12.8858C16.2019 15.0233 14.5144 16.1483 12.4331 16.1483H10.8581V18.9608H8.77686V9.67954ZM12.4894 14.4608C13.4709 14.4608 14.1206 13.7858 14.1206 12.9983C14.1206 12.0983 13.5019 11.592 12.4331 11.592H10.8581V14.4608H12.4894ZM16.7081 17.667L17.9456 16.2045C18.7894 16.8795 19.6894 17.3295 20.7581 17.3295C21.6019 17.3295 22.1081 16.992 22.1081 16.4295C22.1081 15.9233 21.7706 15.642 20.1956 15.2483C18.2831 14.742 17.1019 14.2358 17.1019 12.3795V12.3233C17.1019 10.6358 18.4519 9.51079 20.3644 9.51079C21.6259 9.50539 22.8532 9.92109 23.8519 10.692L22.7831 12.267C21.9394 11.7045 21.1519 11.367 20.3644 11.367C19.5769 11.367 19.1831 11.7045 19.1831 12.2108C19.1831 12.8295 19.5769 13.0545 21.2081 13.4483C23.1206 13.9545 24.1894 14.6295 24.1894 16.2608C24.1894 18.117 22.7831 19.1858 20.7581 19.1858C19.2653 19.206 17.8195 18.6638 16.7081 17.667Z" fill="white"/>
</g>
<defs>
<linearGradient id="paint0_linear_202_10865" x1="0.277578" y1="39.7289" x2="22.7608" y2="12.9888" gradientUnits="userSpaceOnUse">
<stop offset="0.02" stop-color="#765AF8"/>
<stop offset="0.38" stop-color="#B345F1"/>
<stop offset="0.76" stop-color="#FA3293"/>
<stop offset="0.94" stop-color="#FF318C"/>
</linearGradient>
<linearGradient id="paint1_linear_202_10865" x1="26.1526" y1="23.8657" x2="19.1487" y2="3.11002" gradientUnits="userSpaceOnUse">
<stop offset="0.18" stop-color="#765AF8"/>
<stop offset="0.24" stop-color="#8655F6"/>
<stop offset="0.34" stop-color="#9F4CF3"/>
<stop offset="0.44" stop-color="#AE47F2"/>
<stop offset="0.52" stop-color="#B345F1"/>
</linearGradient>
<linearGradient id="paint2_linear_202_10865" x1="32.5285" y1="29.502" x2="10.7838" y2="17.6692" gradientUnits="userSpaceOnUse">
<stop offset="0.02" stop-color="#765AF8"/>
<stop offset="0.38" stop-color="#B345F1"/>
</linearGradient>
<clipPath id="clip0_202_10865">
<rect width="37" height="37" fill="white"/>
</clipPath>
</defs>
</svg>
