<svg width="41" height="41" viewBox="0 0 41 41" fill="none" xmlns="http://www.w3.org/2000/svg">
<path d="M40.0037 20.0024C40.0037 31.0508 31.052 40.0024 20.0037 40.0024C17.9391 40.0024 15.9553 39.6879 14.0843 39.1073C14.8988 37.7766 16.1166 35.5992 16.5682 33.8653C16.8101 32.9299 17.8101 29.1073 17.8101 29.1073C18.4633 30.3492 20.3666 31.4057 22.3908 31.4057C28.423 31.4057 32.7698 25.8573 32.7698 18.9621C32.7698 12.3573 27.3746 7.41373 20.4391 7.41373C11.8101 7.41373 7.2214 13.2041 7.2214 19.5186C7.2214 22.4541 8.78592 26.1073 11.2779 27.2686C11.6569 27.446 11.8585 27.3653 11.9472 27.0024C12.0117 26.7282 12.3504 25.3653 12.5037 24.7363C12.552 24.5347 12.5279 24.3573 12.3666 24.1637C11.552 23.1557 10.8908 21.317 10.8908 19.5992C10.8908 15.1879 14.2295 10.9218 19.923 10.9218C24.8343 10.9218 28.2779 14.2686 28.2779 19.0589C28.2779 24.4702 25.544 28.2202 21.9875 28.2202C20.0279 28.2202 18.552 26.5992 19.0279 24.6073C19.5924 22.2282 20.6811 19.6637 20.6811 17.946C20.6811 16.4137 19.8585 15.1315 18.1488 15.1315C16.1408 15.1315 14.5279 17.2041 14.5279 19.9863C14.5279 21.7605 15.1246 22.9541 15.1246 22.9541C15.1246 22.9541 13.1488 31.325 12.7859 32.8895C12.3827 34.6153 12.544 37.0508 12.7133 38.6315C5.27786 35.7202 0.00366211 28.4782 0.00366211 20.0024C0.00366211 8.95405 8.95527 0.00244141 20.0037 0.00244141C31.052 0.00244141 40.0037 8.95405 40.0037 20.0024Z" fill="#BD081C"/>
</svg>
