<svg width="36" height="37" viewBox="0 0 36 37" fill="none" xmlns="http://www.w3.org/2000/svg">
<g clip-path="url(#clip0_202_11857)">
<path d="M13.2331 8.25546L17.2521 15.216C17.8901 15.0453 18.5867 15.0951 19.22 15.3914L21.3329 11.7321L17.8013 5.61707L13.1917 8.27912H13.192L13.2331 8.25546ZM7.17455 17.2596H15.2142C15.2783 17.0205 15.3707 16.7847 15.5003 16.5608C15.7187 16.1819 16.0117 15.8744 16.348 15.6396L14.2355 11.9814H7.17236V17.3051H7.17455V17.2596ZM20.499 19.4471C20.2799 19.826 19.9887 20.1324 19.6532 20.3668L21.7671 24.028H28.8284V18.7505H20.7855C20.7207 18.9896 20.6275 19.2233 20.499 19.4471ZM20.0375 15.9643C20.5252 16.4498 20.8153 17.0875 20.8735 17.7561H25.0977L28.6293 11.6407L24.059 9.00123L20.0375 15.9643ZM11.9411 27.0089L15.9625 20.0429C15.477 19.5566 15.1869 18.9208 15.1272 18.2544H10.9008L7.36927 24.3668L11.9778 27.0307L11.9411 27.0089ZM22.768 27.7528L18.7498 20.792C18.1121 20.9641 17.4148 20.9157 16.7807 20.6176L14.6672 24.278L18.1966 30.3916L22.8066 27.7306L22.768 27.7528Z" fill="#ED7D1A"/>
<path d="M18.0012 0.00537109C8.07583 0.00537109 0.000488281 8.07853 0.000488281 18.0025C0.000488281 27.9293 8.07583 36.0054 18.0012 36.0054C27.9259 36.0054 35.9994 27.9293 35.9994 18.0025C35.9994 8.07853 27.9259 0.00537109 18.0012 0.00537109ZM18.0012 3.64941C25.9284 3.64941 32.3546 10.0749 32.3546 18.0025C32.3546 25.9322 25.9284 32.361 18.0012 32.361C10.0729 32.361 3.64562 25.9322 3.64562 18.0025C3.64562 10.0749 10.0729 3.64941 18.0012 3.64941Z" fill="#5282B0"/>
</g>
<defs>
<clipPath id="clip0_202_11857">
<rect width="36" height="37" fill="white"/>
</clipPath>
</defs>
</svg>
