<svg width="37" height="34" viewBox="0 0 37 34" fill="none" xmlns="http://www.w3.org/2000/svg">
<g clip-path="url(#clip0_202_11717)">
<path d="M18.3266 0.921631C24.331 9.56204 30.1355 17.915 36.0022 26.3574C30.1637 28.6071 24.4111 30.8235 18.5509 33.0815V29.6053C18.976 29.345 19.4305 29.0666 19.9251 28.7636C19.3988 19.5942 18.8733 10.4412 18.3266 0.921631ZM17.6761 0.922221C17.2253 8.77874 16.7874 16.4102 16.3508 24.0199L16.2417 25.9219C16.1871 26.8729 16.1326 27.8237 16.078 28.7749C16.5449 29.0518 16.9831 29.3117 17.4499 29.5886V33.0776C15.8973 32.4798 14.3504 31.8841 12.8049 31.2891L10.4874 30.3967C7.01115 29.0581 3.53194 27.7184 0.00219727 26.3593C0.839216 25.1546 1.67519 23.9514 2.51084 22.7487L3.76417 20.9449C8.35953 14.331 12.9563 7.71509 17.6761 0.922221Z" fill="black"/>
</g>
<defs>
<clipPath id="clip0_202_11717">
<rect width="37" height="34" fill="white"/>
</clipPath>
</defs>
</svg>
