<svg width="29" height="37" viewBox="0 0 29 37" fill="none" xmlns="http://www.w3.org/2000/svg">
<g clip-path="url(#clip0_202_13056)">
<path d="M4.00195 0.00537109H11.6541H19.3063C21.973 0.00537109 24.2918 1.10682 25.857 2.84595C27.4222 4.58508 28.2338 7.07784 27.944 9.7445C25.3933 9.7445 22.8425 9.7445 20.2918 9.7445C17.7411 9.7445 15.1904 9.7445 12.6396 9.7445C9.97296 9.7445 7.65412 8.64305 6.0889 6.90392C4.58166 5.10682 3.71209 2.67204 4.00195 0.00537109Z" fill="#F7CE12"/>
<path d="M1.74097 20.7006H9.39314H17.0453C19.712 20.7006 22.2627 19.5991 24.2337 17.86C26.2047 16.1208 27.5381 13.6281 27.8859 10.9614C25.3352 10.9614 22.7844 10.9614 20.2337 10.9614C17.683 10.9614 15.1323 10.9614 12.5815 10.9614C9.91488 10.9614 7.36416 12.0629 5.39314 13.802C3.42213 15.5411 2.03082 17.9759 1.74097 20.7006Z" fill="#F0572A"/>
<path d="M12.5814 10.9614C12.2916 13.5122 12.0017 16.0629 11.7119 18.6136C11.422 21.1643 11.1321 23.715 10.8423 26.2658C10.5524 28.9324 9.16113 31.3672 7.19011 33.1643C5.2191 34.9035 2.66838 36.0049 0.00170898 36.0049L0.871274 28.3527C1.16113 25.802 1.45098 23.2513 1.74084 20.7006C2.03069 18.0339 3.422 15.5991 5.33504 13.802C7.30606 12.0049 9.85678 10.9614 12.5814 10.9614Z" fill="#2ABDE1"/>
<path d="M12.5815 10.9614C12.2917 13.5122 12.0018 16.0629 11.712 18.6136C11.6328 19.3103 11.5537 20.0069 11.4745 20.7036L1.74097 20.7006C2.03082 18.0339 3.42213 15.5991 5.33517 13.802C7.30618 12.0049 9.85691 10.9614 12.5815 10.9614Z" fill="#1C519F"/>
</g>
<defs>
<clipPath id="clip0_202_13056">
<rect width="29" height="37" fill="white"/>
</clipPath>
</defs>
</svg>
