<svg width="37" height="41" viewBox="0 0 37 41" fill="none" xmlns="http://www.w3.org/2000/svg">
<g clip-path="url(#clip0_202_9619)">
<path d="M10.2006 40.0022H1.81017C1.57316 40.0022 1.33847 39.9555 1.1195 39.8648C0.900534 39.7741 0.701575 39.6411 0.533984 39.4735C0.366393 39.3059 0.233453 39.107 0.142753 38.888C0.0520538 38.6691 0.00537109 38.4344 0.00537109 38.1974V19.4022L6.3387 17.5355L12.0054 19.4022V38.1974C12.0054 38.4344 11.9587 38.6691 11.868 38.888C11.7773 39.107 11.6443 39.3059 11.4767 39.4735C11.3091 39.6411 11.1102 39.7741 10.8912 39.8648C10.6723 39.9555 10.4376 40.0022 10.2006 40.0022Z" fill="#185C37"/>
<path d="M23.2052 0.00219727H34.1412C34.6356 0.00219727 35.1097 0.198582 35.4593 0.548149C35.8088 0.897717 36.0052 1.37183 36.0052 1.86619V23.7382C36.0052 24.2325 35.8088 24.7066 35.4593 25.0562C35.1097 25.4058 34.6356 25.6022 34.1412 25.6022H23.2052L21.0719 11.9355L23.2052 0.00219727Z" fill="#33C481"/>
<path d="M0.00537109 1.86619V20.0022H12.0054V32.8021H22.1413C22.6357 32.8021 23.1098 32.6058 23.4594 32.2562C23.809 31.9066 24.0053 31.4325 24.0053 30.9381V0.00219727H1.86937C1.37501 0.00219727 0.90089 0.198582 0.551323 0.548149C0.201756 0.897717 0.00537109 1.37183 0.00537109 1.86619Z" fill="#107C41"/>
<path d="M12.0054 0.00219727H24.0054V13.6022H12.0054V0.00219727Z" fill="#21A366"/>
</g>
<defs>
<clipPath id="clip0_202_9619">
<rect width="37" height="41" fill="white"/>
</clipPath>
</defs>
</svg>
