<svg width="34" height="37" viewBox="0 0 34 37" fill="none" xmlns="http://www.w3.org/2000/svg">
<g clip-path="url(#clip0_202_11676)">
<path d="M13.1157 15.2036L16.5046 13.2632C16.8116 13.0875 17.1887 13.0875 17.4955 13.2632L20.8846 15.2036C21.1336 15.3462 21.3061 15.587 21.3644 15.8614L21.2563 16.0179L16.9999 18.1515L12.71 15.8615L12.674 15.7283C12.7534 15.5101 12.9079 15.3227 13.1157 15.2036ZM31.3551 7.66002L18.8312 0.489321C17.6968 -0.160177 16.3034 -0.160177 15.1691 0.489321L2.64516 7.66002C1.93817 8.06486 1.39897 8.68435 1.08872 9.40945L1.08594 9.4834L3.85134 11.0197L3.92327 10.991C4.17476 10.3781 4.62456 9.8538 5.21821 9.51379L15.4972 3.62842C16.4282 3.09542 17.572 3.09542 18.503 3.62842L28.782 9.51379C29.4817 9.91446 29.9816 10.571 30.1923 11.327L30.3752 11.4462L33.0084 10.1048L33.067 9.84861C32.8069 8.93622 32.2011 8.14439 31.3551 7.66002ZM10.4568 13.288L16.1655 10.0193C16.6825 9.72338 17.3177 9.72338 17.8348 10.0193L23.5435 13.288C23.9474 13.5192 24.231 13.9042 24.3394 14.3451L24.3851 14.3947L27.1967 12.9696L27.2271 12.88C27.0718 12.275 26.6792 11.7479 26.1231 11.4295L18.1638 6.87238C17.443 6.45955 16.5573 6.45955 15.8365 6.87238L7.87726 11.4295C7.41517 11.694 7.05604 12.1274 6.86192 12.605L6.8975 12.6898L9.63618 14.235L9.70267 14.2002C9.8331 13.8205 10.0976 13.4936 10.4568 13.288Z" fill="#FF4300"/>
<path d="M30.1926 11.327C30.2653 11.5878 30.304 11.8603 30.304 12.1384V23.8657C30.304 24.9502 29.7234 25.9516 28.7823 26.4904L18.5033 32.3758C18.0378 32.6424 17.5141 32.7755 16.9956 32.7755L16.9302 32.8489L16.9242 35.8939L17.0003 36.0021C17.6323 36.0021 18.2643 35.8397 18.8315 35.515L31.3553 28.3443C32.502 27.6878 33.2095 26.4677 33.2095 25.1462V10.8579C33.2095 10.5116 33.1597 10.1726 33.0673 9.84839L30.1926 11.327ZM27.2274 12.8799L24.3397 14.3449C24.3715 14.4746 24.389 14.6088 24.389 14.7456V21.2586C24.389 21.8609 24.0664 22.4171 23.5438 22.7163L17.8351 25.985C17.5718 26.1356 17.2779 26.2092 16.9846 26.2064L16.8994 26.3326L16.929 29.3132L16.9846 29.441C17.3915 29.4438 17.799 29.3411 18.1641 29.132L26.1235 24.5749C26.8521 24.1576 27.3017 23.3821 27.3017 22.5424V13.4617C27.3017 13.2628 27.2757 13.0677 27.2274 12.8799ZM21.3647 15.8612C21.3759 15.9208 21.3865 16.007 21.3865 16.0689V19.9353C21.3865 20.2928 21.1952 20.623 20.8849 20.8006L17.496 22.741C17.3424 22.829 17.1712 22.873 17.0001 22.8728L16.9174 22.7395L16.9324 18.079L17.0004 18.0147L21.3647 15.8612Z" fill="#FF5B00"/>
<path d="M16.9998 18.0149L16.9999 22.873C16.829 22.873 16.658 22.8291 16.5045 22.7412L13.1156 20.8008C12.8052 20.6231 12.6139 20.293 12.6139 19.9355V16.069C12.6139 15.9513 12.6346 15.8364 12.6736 15.7289L16.9998 18.0149ZM16.9842 26.2071C16.7014 26.2044 16.4191 26.1304 16.1654 25.9851L12.6375 23.9651V30.38L9.59034 28.7444L9.61148 14.7458C9.61148 14.5619 9.64593 14.3694 9.70253 14.2003L6.86178 12.6051C6.76111 12.8679 6.69868 13.1715 6.69868 13.4619L6.65512 27.2207L5.19872 26.3917C4.25771 25.8529 3.69635 24.9503 3.69635 23.8659V12.1385C3.69635 11.7383 3.776 11.3495 3.92315 10.991L1.0886 9.40948C0.895741 9.86017 0.791016 10.3515 0.791016 10.858V25.1465C0.791016 26.4678 1.49839 27.6879 2.64504 28.3445L15.1689 35.5152C15.7359 35.8399 16.3678 36.0022 16.9997 36.0022L16.9842 26.2071Z" fill="#DC2F03"/>
</g>
<defs>
<clipPath id="clip0_202_11676">
<rect width="34" height="37" fill="white"/>
</clipPath>
</defs>
</svg>
