<svg width="37" height="36" viewBox="0 0 37 36" fill="none" xmlns="http://www.w3.org/2000/svg">
<g clip-path="url(#clip0_202_11626)">
<path d="M18.0042 0.000915527C13.1962 0.000915527 8.67593 1.8732 5.27618 5.27295C1.87643 8.6727 0.00415039 13.1929 0.00415039 18.0009C0.00415039 22.8089 1.87643 27.3291 5.27618 30.7289C8.67593 34.1286 13.1962 36.0009 18.0042 36.0009C22.8121 36.0009 27.3324 34.1286 30.7321 30.7289C34.1319 27.3291 36.0042 22.8089 36.0042 18.0009C36.0042 13.1929 34.1319 8.6727 30.7321 5.27295C27.3324 1.8732 22.8121 0.000915527 18.0042 0.000915527Z" fill="#FF7F00"/>
<path d="M35.074 18.0009C35.074 27.4284 27.4315 35.0708 18.0041 35.0708C8.57663 35.0708 0.934082 27.4284 0.934082 18.0009C0.934082 8.57344 8.57663 0.93103 18.0041 0.93103C27.4315 0.93103 35.074 8.57344 35.074 18.0009Z" fill="white"/>
<path d="M22.6263 10.4158L23.3499 7.80908C24.0901 7.74313 24.6706 7.12199 24.6706 6.36444C24.6706 5.56302 24.0209 4.91333 23.2195 4.91333C22.4179 4.91333 21.7682 5.56302 21.7682 6.36444C21.7682 6.89249 22.0512 7.35317 22.4728 7.60714L21.7626 10.1658C19.7323 9.64986 18.0183 9.68924 18.0183 9.68924L17.7008 9.83113V29.6413L18.0183 29.7471C19.9328 29.7471 28.3089 23.9628 28.3294 17.756C28.3294 13.3089 25.373 11.3119 22.6263 10.4158ZM20.6101 23.1759C18.9764 20.5663 19.667 14.4921 23.9349 13.6239C25.105 13.4365 26.5377 14.2053 26.9598 15.9132C28.0259 19.5365 21.7545 24.6101 20.6101 23.1759ZM23.1718 17.5858C22.4418 17.5858 21.8501 18.1775 21.8501 18.9075C21.8501 19.6375 22.4418 20.2292 23.1718 20.2292C23.9018 20.2292 24.4935 19.6375 24.4935 18.9075C24.4935 18.1775 23.9018 17.5858 23.1718 17.5858ZM23.567 18.8053C23.3826 18.8053 23.2331 18.6558 23.2331 18.4714C23.2331 18.287 23.3826 18.1376 23.567 18.1376C23.7513 18.1376 23.9008 18.287 23.9008 18.4714C23.9008 18.6558 23.7513 18.8053 23.567 18.8053Z" fill="#E57200"/>
<path d="M14.2595 10.2255L13.5531 7.56753C13.9573 7.3099 14.2261 6.85878 14.2261 6.34395C14.2261 5.54253 13.5764 4.8927 12.7749 4.8927C11.9735 4.8927 11.3238 5.54253 11.3238 6.34395C11.3238 7.14298 11.9695 7.79084 12.7676 7.79478L13.4759 10.4602C10.7184 11.3757 7.72644 13.377 7.72644 17.7559C7.78775 24.0853 16.1038 29.7465 18.0182 29.7465V9.68872C18.0182 9.68872 16.2953 9.68 14.2595 10.2255ZM15.7213 23.1758C14.5768 24.61 8.30539 19.5364 9.37147 15.9131C9.79363 14.2052 11.2263 13.4364 12.3965 13.6238C16.6643 14.492 17.3549 20.5662 15.7213 23.1758ZM13.0747 17.6265C12.3447 17.6265 11.7529 18.2183 11.7529 18.9483C11.7529 19.6783 12.3447 20.27 13.0747 20.27C13.8047 20.27 14.3964 19.6783 14.3964 18.9483C14.3964 18.2183 13.8047 17.6265 13.0747 17.6265ZM12.6795 18.846C12.4952 18.846 12.3457 18.6965 12.3457 18.5122C12.3457 18.3278 12.4952 18.1783 12.6795 18.1783C12.8639 18.1783 13.0134 18.3278 13.0134 18.5122C13.0134 18.6965 12.8639 18.846 12.6795 18.846Z" fill="#FF7F00"/>
</g>
<defs>
<clipPath id="clip0_202_11626">
<rect width="37" height="36.0009" fill="white"/>
</clipPath>
</defs>
</svg>
