<svg width="40" height="34" viewBox="0 0 40 34" fill="none" xmlns="http://www.w3.org/2000/svg">
<g clip-path="url(#clip0_202_11056)">
<path d="M26.9522 26.3636L9.36353 26.3636L9.36353 3.95227L26.9522 3.95227L26.9522 26.3636Z" fill="white"/>
<path d="M9.57428 17.003H0.0012207L0.0012207 21.0861C0.0012207 27.9448 5.55584 33.1732 12.4069 33.1732H23.8339C25.5559 33.1732 26.9516 31.7746 26.9516 30.0509V26.1304H21.6381C16.1289 26.1304 10.6897 22.2319 9.57428 17.003Z" fill="#24C1CE"/>
<path d="M9.36294 15.0402C9.36294 8.85296 15.4583 3.95168 21.6381 3.95168L26.9516 3.95168C26.9508 2.22884 25.5559 0.831106 23.8333 0.831106L12.4069 0.831106C5.55584 0.831106 0.0012207 6.05863 0.0012207 12.9182L0.0012207 17.0013H9.57428C9.43868 16.3653 9.36294 15.7106 9.36294 15.0402Z" fill="#3DD0AD"/>
<path d="M19.2922 6.79047C17.7254 6.79047 16.4553 8.05997 16.4553 9.62735C16.4553 11.1933 17.7254 12.4642 19.2922 12.4642C20.8587 12.4642 22.1291 11.1933 22.1291 9.62735C22.1291 8.05997 20.8587 6.79047 19.2922 6.79047Z" fill="#404953"/>
<path d="M18.157 7.64113C17.6878 7.64113 17.3059 8.02269 17.3059 8.49135C17.3059 8.96085 17.6878 9.34326 18.157 9.34326C18.6262 9.34326 19.008 8.96085 19.008 8.49135C19.008 8.02269 18.6262 7.64113 18.157 7.64113Z" fill="white"/>
<path d="M15.8879 16.7191H23.5475V14.4496H15.8879V16.7191Z" fill="#404953"/>
<path d="M5.10764 14.1645C3.54168 14.1645 2.27075 15.436 2.27075 17.0019C2.27018 18.5679 3.54111 19.8383 5.10707 19.8383C6.6736 19.8383 7.94395 18.5673 7.94395 17.0019C7.94395 15.436 6.67388 14.1645 5.10707 14.1645" fill="#FFDA00"/>
<path d="M36.0232 7.91861C33.5069 5.4023 30.2479 4.08201 26.9514 3.9535L26.9514 18.0528L36.0232 27.1246C41.327 21.821 41.327 13.2222 36.0232 7.9189V7.91861ZM26.9514 22.3932V29.1371C28.7182 29.0415 30.4635 28.4704 31.9789 27.4208L26.9514 22.3932Z" fill="#404953"/>
<path d="M9.57487 17.0034H9.36353L9.36353 26.2443C9.36353 28.3561 11.0753 30.0605 13.1871 30.0531L26.9522 30.0014V26.1308L21.6387 26.1308C16.1295 26.1308 10.6903 22.2324 9.57487 17.0034Z" fill="#3A4287"/>
</g>
<defs>
<clipPath id="clip0_202_11056">
<rect width="40.0011" height="34" fill="white"/>
</clipPath>
</defs>
</svg>
