<svg width="37" height="37" viewBox="0 0 37 37" fill="none" xmlns="http://www.w3.org/2000/svg">
<path fill-rule="evenodd" clip-rule="evenodd" d="M0.0012207 0.00219727H36.0012V36.0022H0.0012207V0.00219727ZM4.00122 4.0022V32.0022H32.0012V4.0022H4.00122Z" fill="#522D6F"/>
<path d="M13.7214 23.0023V19.0023H14.7914C16.7014 19.0023 18.0014 18.0723 18.0014 16.0023C18.0014 14.5023 17.3014 13.0023 15.2614 13.0023H11.7014V23.0023H13.7214ZM14.6114 17.5323H13.7214V14.5323H14.5614C15.5614 14.5323 15.9614 15.0923 15.9614 16.0723C15.9614 17.0523 15.4114 17.5323 14.6114 17.5323ZM22.6114 23.0023V14.6623H24.8014V13.0023H18.4314V14.6623H20.6214V23.0023H22.6114Z" fill="#5F5B5C"/>
</svg>
