<svg width="41" height="28" viewBox="0 0 41 28" fill="none" xmlns="http://www.w3.org/2000/svg">
<g clip-path="url(#clip0_202_8467)">
<path d="M24.0028 27.8581L8.00342 0.146301H16.0036L32.003 27.8581H24.0028Z" fill="#FF4081"/>
<path d="M24.0027 27.8581L28.0023 20.9302L32.0029 27.8581H24.0027Z" fill="white" fill-opacity="0.2"/>
<path d="M20.0032 20.9302L24.0028 27.8581L28.0025 20.9302H20.0033H20.0032Z" fill="white" fill-opacity="0.1"/>
<path d="M16.0034 14.0022L20.0031 20.9302L24.0027 14.0022H16.0036H16.0034Z" fill="black" fill-opacity="0.1"/>
<path d="M16.0034 14.0022L20.0031 7.07428L24.0027 14.0022H16.0036H16.0034Z" fill="black" fill-opacity="0.2"/>
<path d="M12.0039 7.07428L16.0035 14.0022L20.0032 7.07428H12.0041H12.0039Z" fill="black" fill-opacity="0.3"/>
<path d="M12.0039 7.07426L16.0035 0.146301L20.0032 7.07426H12.0041H12.0039Z" fill="black" fill-opacity="0.4"/>
<path d="M8.00342 0.146301L12.004 7.07426L16.0036 0.146301H8.00342Z" fill="black" fill-opacity="0.5"/>
<path d="M8.00339 27.8582L0.00317383 14.0022L4.00376 7.07428L16.0035 27.8582H8.00324H8.00339Z" fill="#536DFE"/>
<path d="M8.00342 27.8581L12.004 20.9302L16.0036 27.8581H8.00342Z" fill="white" fill-opacity="0.2"/>
<path d="M4.00366 20.9302L8.0033 27.8581L12.0039 20.9302H4.00366Z" fill="white" fill-opacity="0.1"/>
<path d="M0.00317383 14.0022L4.00376 20.9302L8.00339 14.0022H0.00317383Z" fill="black" fill-opacity="0.1"/>
<path d="M0.00317383 14.0022L4.00376 7.07428L8.00339 14.0022H0.00317383Z" fill="black" fill-opacity="0.2"/>
<path d="M8.0033 14.0022L4.00366 7.07426L8.0033 0.146301L12.0039 7.07426L8.0033 14.0022Z" fill="#303F9F"/>
<path d="M12.0039 7.07426L8.0033 0.146301L4.00366 7.07426H12.0039Z" fill="black" fill-opacity="0.2"/>
<path d="M32.0028 27.8581L28.0022 20.9302L32.0028 14.0022L36.0024 20.9302L32.0028 27.8581Z" fill="#3F51B5"/>
<path d="M36.0024 20.9301L32.0028 27.8581L28.0022 20.9301H36.0024Z" fill="black" fill-opacity="0.2"/>
<path d="M36.0024 20.9302L24.0027 0.146301H32.0029L40.0031 14.0022L36.0025 20.9302H36.0024Z" fill="#7986CB"/>
<path d="M32.0027 14.0022L36.0023 20.9302L40.0029 14.0022H32.0027Z" fill="white" fill-opacity="0.2"/>
<path d="M32.0027 14.0022L36.0023 7.07428L40.0029 14.0022H32.0027Z" fill="white" fill-opacity="0.1"/>
<path d="M28.0022 7.07426L32.0028 0.146301L36.0024 7.07426H28.0022Z" fill="black" fill-opacity="0.1"/>
<path d="M24.0027 0.146301L28.0023 7.07426L32.0029 0.146301H24.0027Z" fill="black" fill-opacity="0.2"/>
</g>
<defs>
<clipPath id="clip0_202_8467">
<rect width="41" height="28" fill="white"/>
</clipPath>
</defs>
</svg>
