<svg width="37" height="37" viewBox="0 0 37 37" fill="none" xmlns="http://www.w3.org/2000/svg">
<g clip-path="url(#clip0_202_8552)">
<path d="M35.8574 20.2878C37.1172 10.4256 30.1524 1.40919 20.3082 0.149415C10.464 -1.11036 1.41163 5.85439 0.151856 15.6986C-1.10792 25.5428 5.85683 34.5772 15.7011 35.855C25.5633 37.1148 34.5797 30.15 35.8574 20.2878Z" fill="#FF6C37"/>
<path d="M24.5015 11.5595L16.9069 19.1541L14.7653 17.0125C22.2339 9.54382 22.9718 10.1917 24.5015 11.5595Z" fill="white"/>
<path d="M16.9068 19.334C16.8528 19.334 16.8169 19.3161 16.7809 19.2801L14.6213 17.1384C14.5493 17.0665 14.5493 16.9585 14.6213 16.8865C22.2159 9.29186 23.0077 10.0117 24.6095 11.4515C24.6454 11.4875 24.6634 11.5235 24.6634 11.5774C24.6634 11.6314 24.6454 11.6674 24.6095 11.7034L17.0148 19.2801C16.9968 19.3161 16.9428 19.334 16.9068 19.334ZM15.0172 17.0125L16.9068 18.9021L24.2315 11.5774C22.8998 10.3897 21.9999 10.0297 15.0172 17.0125Z" fill="#FF6C37"/>
<path d="M19.0845 21.3317L17.0149 19.2621L24.6095 11.6675C26.6432 13.7191 23.6017 17.0485 19.0845 21.3317Z" fill="white"/>
<path d="M19.0845 21.5117C19.0305 21.5117 18.9945 21.4937 18.9585 21.4577L16.8889 19.3881C16.8529 19.3521 16.8529 19.3161 16.8529 19.2621C16.8529 19.2081 16.8709 19.1721 16.9069 19.1361L24.5015 11.5415C24.5735 11.4695 24.6815 11.4695 24.7535 11.5415C25.2214 11.9734 25.4734 12.5853 25.4554 13.2152C25.4194 15.2128 23.1518 17.7504 19.2285 21.4577C19.1745 21.4937 19.1205 21.5117 19.0845 21.5117ZM17.2668 19.2621C18.4186 20.4319 18.9045 20.8998 19.0845 21.0798C22.108 18.2003 25.0414 15.2488 25.0594 13.2152C25.0774 12.7473 24.8975 12.2793 24.5915 11.9194L17.2668 19.2621Z" fill="#FF6C37"/>
<path d="M14.8013 17.0665L16.331 18.5962C16.367 18.6322 16.367 18.6682 16.331 18.7042C16.3131 18.7222 16.3131 18.7222 16.2951 18.7222L13.1276 19.4061C12.9657 19.4241 12.8217 19.3161 12.7857 19.1541C12.7677 19.0641 12.8037 18.9741 12.8577 18.9202L14.6933 17.0845C14.7293 17.0485 14.7833 17.0305 14.8013 17.0665Z" fill="white"/>
<path d="M13.0736 19.586C12.8037 19.586 12.6057 19.37 12.6057 19.1001C12.6057 18.9741 12.6597 18.8481 12.7497 18.7581L14.5854 16.9225C14.6933 16.8325 14.8373 16.8325 14.9453 16.9225L16.475 18.4522C16.583 18.5422 16.583 18.7041 16.475 18.8121C16.439 18.8481 16.403 18.8661 16.349 18.8841L13.1816 19.568C13.1456 19.568 13.1096 19.586 13.0736 19.586ZM14.7473 17.2644L12.9836 19.0281C12.9477 19.0641 12.9297 19.1181 12.9656 19.1721C12.9836 19.2261 13.0376 19.2441 13.0916 19.2261L16.0611 18.5782L14.7473 17.2644Z" fill="#FF6C37"/>
<path d="M28.5148 7.34822C27.363 6.23242 25.5094 6.26841 24.3936 7.4382C23.2778 8.60799 23.3138 10.4437 24.4835 11.5595C25.4374 12.4773 26.8771 12.6393 28.0109 11.9554L25.9593 9.90376L28.5148 7.34822Z" fill="white"/>
<path d="M26.4991 12.5493C24.7894 12.5493 23.4037 11.1635 23.4037 9.45384C23.4037 7.74415 24.7894 6.3584 26.4991 6.3584C27.291 6.3584 28.0648 6.66434 28.6407 7.22224C28.6767 7.25824 28.6947 7.29423 28.6947 7.34822C28.6947 7.40221 28.6767 7.4382 28.6407 7.4742L26.2112 9.90376L28.1188 11.8114C28.1908 11.8834 28.1908 11.9914 28.1188 12.0634C28.1008 12.0814 28.1008 12.0814 28.0828 12.0994C27.6149 12.3873 27.057 12.5493 26.4991 12.5493ZM26.4991 6.73633C24.9874 6.73633 23.7636 7.96011 23.7816 9.47184C23.7816 10.9836 25.0054 12.2073 26.5171 12.1893C26.9311 12.1893 27.345 12.0994 27.7229 11.9014L25.8332 10.0297C25.7973 9.99374 25.7793 9.95775 25.7793 9.90376C25.7793 9.84977 25.7973 9.81378 25.8332 9.77778L28.2448 7.36622C27.7589 6.95229 27.147 6.73633 26.4991 6.73633Z" fill="#FF6C37"/>
<path d="M28.5688 7.4022L28.5328 7.36621L25.9592 9.90375L27.9929 11.9374C28.1908 11.8114 28.3888 11.6674 28.5508 11.5055C29.7026 10.3717 29.7026 8.536 28.5688 7.4022Z" fill="white"/>
<path d="M28.0109 12.1353C27.9569 12.1353 27.9209 12.1173 27.8849 12.0813L25.8333 10.0297C25.7973 9.9937 25.7793 9.95771 25.7793 9.90372C25.7793 9.84973 25.7973 9.81374 25.8333 9.77774L28.3888 7.2222C28.4608 7.15022 28.5688 7.15022 28.6408 7.2222L28.6948 7.2582C29.9006 8.46398 29.9006 10.4076 28.7128 11.6314C28.5328 11.8114 28.3348 11.9733 28.1189 12.0993C28.0649 12.1173 28.0289 12.1353 28.0109 12.1353ZM26.2112 9.90372L28.0289 11.7214C28.1729 11.6314 28.3168 11.5054 28.4248 11.3975C29.4506 10.3716 29.5046 8.69794 28.5148 7.61813L26.2112 9.90372Z" fill="#FF6C37"/>
<path d="M24.8075 11.8834C24.3756 11.4515 23.6737 11.4515 23.2418 11.8834L16.457 18.6682L17.5908 19.802L24.7715 13.5031C25.2394 13.1072 25.2754 12.4053 24.8795 11.9374C24.8435 11.9194 24.8255 11.9014 24.8075 11.8834Z" fill="white"/>
<path d="M17.5727 19.982C17.5187 19.982 17.4827 19.964 17.4467 19.928L16.3129 18.7942C16.2409 18.7222 16.2409 18.6142 16.3129 18.5422L23.0977 11.7574C23.6016 11.2535 24.4114 11.2535 24.9154 11.7574C25.4193 12.2614 25.4193 13.0712 24.9154 13.5751C24.8974 13.5931 24.8794 13.6111 24.8614 13.6291L17.6807 19.928C17.6627 19.964 17.6267 19.982 17.5727 19.982ZM16.7088 18.6682L17.5907 19.55L24.6454 13.3592C25.0413 13.0352 25.0773 12.4413 24.7534 12.0454C24.4294 11.6495 23.8355 11.6135 23.4396 11.9374C23.4216 11.9554 23.4036 11.9734 23.3676 11.9914L16.7088 18.6682Z" fill="#FF6C37"/>
<path d="M11.2559 26.3887C11.1839 26.4247 11.1479 26.4967 11.1659 26.5687L11.4718 27.8645C11.5438 28.0444 11.4358 28.2604 11.2379 28.3144C11.0939 28.3684 10.9319 28.3144 10.8419 28.2064L8.8623 26.2448L15.3231 19.7839L17.5547 19.8199L19.0665 21.3317C18.7065 21.6376 16.5289 23.7432 11.2559 26.3887Z" fill="white"/>
<path d="M11.112 28.4944C10.968 28.4944 10.824 28.4404 10.734 28.3324L8.77237 26.3708C8.73638 26.3348 8.71838 26.2988 8.71838 26.2448C8.71838 26.1908 8.73638 26.1548 8.77237 26.1188L15.2332 19.658C15.2692 19.622 15.3232 19.604 15.3592 19.604L17.5908 19.64C17.6448 19.64 17.6808 19.658 17.7168 19.694L19.2285 21.2057C19.2645 21.2417 19.2825 21.2957 19.2825 21.3497C19.2825 21.4037 19.2645 21.4397 19.2105 21.4757L19.0845 21.5836C17.1769 23.2573 14.5853 24.931 11.3639 26.5328L11.6699 27.8105C11.7238 28.0445 11.6159 28.2964 11.3999 28.4224C11.2919 28.4764 11.2019 28.4944 11.112 28.4944ZM9.13231 26.2448L10.986 28.0805C11.04 28.1705 11.1479 28.2065 11.2379 28.1525C11.3279 28.0985 11.3639 27.9905 11.3099 27.9005L11.004 26.6047C10.968 26.4428 11.04 26.2988 11.1839 26.2268C14.3694 24.6251 16.9429 22.9694 18.8326 21.3317L17.5008 19.9999L15.4312 19.9639L9.13231 26.2448Z" fill="#FF6C37"/>
<path d="M7.33261 27.7925L8.88033 26.2448L11.1839 28.5484L7.51258 28.2964C7.35061 28.2784 7.24263 28.1345 7.26062 27.9725C7.26062 27.9005 7.27862 27.8285 7.33261 27.7925Z" fill="white"/>
<path d="M11.1839 28.7104L7.49456 28.4584C7.22461 28.4404 7.04464 28.2065 7.06264 27.9365C7.08064 27.8286 7.11663 27.7206 7.20661 27.6486L8.75433 26.1009C8.82632 26.0289 8.9343 26.0289 9.00629 26.1009L11.3099 28.4044C11.3639 28.4584 11.3819 28.5304 11.3459 28.6024C11.3099 28.6744 11.2559 28.7104 11.1839 28.7104ZM8.88031 26.4968L7.45857 27.9185C7.40458 27.9545 7.40458 28.0445 7.45857 28.0805C7.47656 28.0985 7.49456 28.1165 7.53055 28.1165L10.716 28.3325L8.88031 26.4968Z" fill="#FF6C37"/>
<path d="M14.6933 20.6118C14.5853 20.6118 14.5133 20.5218 14.5133 20.4318C14.5133 20.3778 14.5313 20.3418 14.5673 20.3058L16.313 18.5602C16.385 18.4882 16.4929 18.4882 16.5649 18.5602L17.6987 19.694C17.7527 19.7479 17.7707 19.8019 17.7527 19.8739C17.7347 19.9279 17.6807 19.9819 17.6087 19.9999L14.7293 20.6118C14.7113 20.6118 14.6933 20.6118 14.6933 20.6118ZM16.439 18.9381L15.2512 20.1259L17.1948 19.7119L16.439 18.9381Z" fill="#FF6C37"/>
<path d="M17.5548 19.82L15.5752 20.2519C15.4312 20.2879 15.2872 20.1979 15.2512 20.0539C15.2332 19.9639 15.2512 19.874 15.3232 19.802L16.421 18.7042L17.5548 19.82Z" fill="white"/>
<path d="M15.5392 20.4318C15.2872 20.4318 15.0892 20.2339 15.0892 19.9819C15.0892 19.8559 15.1432 19.7479 15.2152 19.658L16.313 18.5602C16.385 18.4882 16.493 18.4882 16.565 18.5602L17.6988 19.694C17.7528 19.7479 17.7708 19.8019 17.7528 19.8739C17.7348 19.9279 17.6808 19.9819 17.6088 19.9999L15.6291 20.4318C15.5931 20.4318 15.5571 20.4318 15.5392 20.4318ZM16.439 18.9381L15.4672 19.9099C15.4312 19.9459 15.4312 19.9819 15.4492 20.0179C15.4672 20.0539 15.5032 20.0719 15.5571 20.0719L17.2129 19.7119L16.439 18.9381Z" fill="#FF6C37"/>
<path d="M28.5868 9.12988C28.5508 9.0219 28.4248 8.96791 28.3169 9.0039C28.2089 9.0399 28.1549 9.16587 28.1909 9.27385C28.1909 9.29185 28.2089 9.30985 28.2089 9.32784C28.3169 9.54381 28.2809 9.81376 28.1369 10.0117C28.0649 10.1017 28.0829 10.2277 28.1549 10.2997C28.2449 10.3717 28.3708 10.3537 28.4428 10.2637C28.7128 9.92174 28.7668 9.48982 28.5868 9.12988Z" fill="#FF6C37"/>
</g>
<defs>
<clipPath id="clip0_202_8552">
<rect width="37" height="37" fill="white"/>
</clipPath>
</defs>
</svg>
