<svg width="37" height="36" viewBox="0 0 37 36" fill="none" xmlns="http://www.w3.org/2000/svg">
<g clip-path="url(#clip0_202_16037)">
<path d="M13.8686 6.92435C13.8349 6.94583 13.8012 6.96729 13.7644 6.99186C13.7556 7.00048 13.747 7.00295 13.7471 7.00366C13.7472 7.00395 13.7487 7.00395 13.7521 7.00395C13.759 7.03828 13.7621 7.06874 13.7655 7.1041C13.7682 7.13131 13.7712 7.16143 13.7765 7.19843C13.8101 7.15046 13.8399 7.10629 13.8681 7.06439C13.9114 7.00018 13.9511 6.94134 13.9953 6.88245L13.9709 6.85812C13.9348 6.88221 13.9017 6.9033 13.8686 6.92435Z" fill="#DD3735"/>
<path d="M17.6775 12.9832C17.5438 13.0439 17.4344 13.0926 17.325 13.1411C17.325 13.1463 17.3142 13.1666 17.3026 13.1883C17.2867 13.2181 17.2694 13.2505 17.2765 13.2505C17.3048 13.2449 17.349 13.2207 17.3954 13.1953C17.4487 13.1662 17.5049 13.1355 17.5438 13.129C17.5802 13.129 17.6289 13.1411 17.6653 13.1533C17.6653 13.1047 17.6653 13.056 17.6775 12.9832Z" fill="#DD3735"/>
<path d="M26.5089 23.5534C26.4794 23.5216 26.4478 23.4876 26.4396 23.4467C26.437 23.478 26.4344 23.5076 26.4319 23.5359C26.4228 23.6394 26.4153 23.7254 26.4153 23.8113C26.4153 23.8355 26.4396 23.8842 26.4517 23.8842C26.476 23.8964 26.5247 23.8721 26.549 23.8598C26.5611 23.8477 26.5734 23.8234 26.5734 23.8113C26.5551 23.7992 26.5369 23.7901 26.5187 23.781C26.5005 23.7718 26.4822 23.7626 26.4639 23.7504C26.6171 23.6698 26.5671 23.616 26.5089 23.5534Z" fill="#DD3735"/>
<path fill-rule="evenodd" clip-rule="evenodd" d="M35.9881 17.0646C35.9761 16.6028 35.9517 16.1289 35.9274 15.6671C35.9213 15.5483 35.916 15.4295 35.9106 15.3107C35.8947 14.9555 35.8788 14.6003 35.8423 14.2452L35.8362 14.1987C35.7531 13.5695 35.6687 12.9297 35.5263 12.3129C35.4169 11.7903 35.2347 11.2921 35.0524 10.7939L35.0114 10.6902C34.794 10.1401 34.5734 9.58193 34.299 9.05601C33.9469 8.38807 33.5144 7.77374 33.0812 7.15828L33.081 7.15813C32.931 6.94499 32.7809 6.73172 32.634 6.51604C32.4559 6.2633 32.2535 6.0323 32.051 5.80123C31.825 5.54335 31.5989 5.28537 31.4066 4.997C31.2 4.68102 30.8961 4.41355 30.5924 4.17055C30.1062 3.78172 29.5957 3.42917 29.0854 3.089C28.6964 2.82153 28.3076 2.56644 27.8945 2.33553C27.6548 2.20236 27.4023 2.08868 27.151 1.97556L27.1507 1.97544C27.0579 1.93367 26.9653 1.89197 26.8735 1.84939C26.7937 1.81195 26.7144 1.77297 26.635 1.73394C26.3275 1.58284 26.0181 1.43086 25.6705 1.36325C25.5834 1.34388 25.5041 1.31686 25.4201 1.28827C25.3986 1.28094 25.3768 1.27351 25.3545 1.26608C25.2526 1.2306 25.1523 1.19353 25.0524 1.15662C24.8784 1.09231 24.7057 1.02848 24.528 0.974421C24.3867 0.929966 24.2467 0.882822 24.1066 0.835676C23.8254 0.740994 23.5442 0.646302 23.252 0.573358C22.8268 0.463952 22.3893 0.390967 21.9518 0.330217C21.6302 0.282024 21.3032 0.255067 20.978 0.22825C20.8117 0.214534 20.6458 0.200854 20.4813 0.184389C20.1653 0.147967 19.8493 0.111545 19.5454 0.099311C19.2397 0.0832935 18.9285 0.0778831 18.6191 0.0725027C18.4613 0.0697582 18.3039 0.0670216 18.1479 0.0628891C18.0917 0.0599478 18.0348 0.0562829 17.9776 0.0525942C17.7995 0.0411163 17.6178 0.0294086 17.4431 0.0385609C17.0907 0.0507953 16.7383 0.0872172 16.3857 0.135874C16.146 0.161536 15.9063 0.199277 15.6707 0.236356C15.572 0.251899 15.474 0.26733 15.377 0.281702C15.1771 0.305896 14.9771 0.324075 14.7771 0.342255C14.5761 0.360532 14.375 0.37881 14.174 0.403202C13.9148 0.436673 13.6499 0.48159 13.3872 0.526142C13.268 0.546353 13.1492 0.566495 13.0317 0.585452C12.9649 0.597591 12.8982 0.615786 12.8315 0.633976C12.7645 0.652243 12.6975 0.670505 12.6306 0.682624C12.5314 0.70333 12.4308 0.719808 12.3298 0.73636C12.1337 0.768484 11.9359 0.800886 11.7434 0.865015C11.2208 1.02294 10.6983 1.20533 10.1878 1.39967C9.71389 1.59416 9.25208 1.80073 8.8025 2.04388C8.4142 2.25836 8.0431 2.50734 7.67466 2.75454C7.60491 2.80135 7.53524 2.84809 7.46557 2.89452C7.05242 3.17394 6.63926 3.46574 6.2382 3.78172C5.84937 4.08547 5.48473 4.42578 5.13232 4.7661C5.00444 4.89388 4.89237 5.03747 4.77876 5.18304C4.71958 5.25886 4.65999 5.33522 4.59752 5.41016C4.52385 5.49564 4.45016 5.58041 4.37664 5.66499C4.14709 5.92907 3.91912 6.19131 3.69823 6.46738C3.51999 6.69027 3.35477 6.91968 3.1883 7.15081C3.12781 7.2348 3.06715 7.31903 3.00565 7.40324C2.59235 7.96222 2.23994 8.55763 1.91187 9.15318C1.7789 9.39478 1.65803 9.63651 1.53724 9.87811L1.53513 9.88232C1.47457 10.0034 1.41269 10.1231 1.35082 10.2428C1.22636 10.4837 1.10189 10.7245 0.98824 10.9761C0.866739 11.2313 0.769427 11.5108 0.696583 11.7903C0.526427 12.3857 0.35627 12.9934 0.198348 13.5889C0.05252 14.1236 0.0159574 14.6827 0.00386368 15.2296C-0.00813663 15.7063 0.038446 16.1715 0.0861495 16.6479L0.0889419 16.6758C0.0923109 16.7096 0.0890885 16.7454 0.0858381 16.7814C0.0774206 16.8748 0.0688155 16.9702 0.17402 17.0403C0.186114 17.0403 0.17402 17.0889 0.161786 17.101C0.125364 17.174 0.161786 17.2469 0.23477 17.2712C0.23477 17.2712 0.246864 17.2834 0.246864 17.2955H0.186114C0.168783 17.3476 0.187208 17.3941 0.206044 17.4417C0.226793 17.4941 0.24804 17.5478 0.222536 17.6115C0.213658 17.6294 0.237519 17.6603 0.260404 17.6899C0.26869 17.7006 0.276857 17.7112 0.283286 17.7209C0.283286 17.7326 0.282034 17.7456 0.280738 17.759C0.278008 17.7874 0.275083 17.8177 0.283286 17.8424C0.288343 17.8876 0.299622 17.9328 0.311116 17.9789C0.32743 18.0443 0.344176 18.1114 0.344176 18.1827C0.344176 18.2347 0.371359 18.2912 0.398059 18.3467C0.415068 18.382 0.431882 18.4169 0.441348 18.45C0.453442 18.4865 0.441348 18.5472 0.41702 18.5715C0.344176 18.6566 0.35627 18.7296 0.465677 18.7781C0.490005 18.7904 0.526427 18.8389 0.526427 18.8632C0.526427 18.9117 0.515665 18.9602 0.504898 19.0087C0.499477 19.0331 0.494055 19.0576 0.490005 19.082C0.514192 19.1063 0.526427 19.1305 0.514192 19.1549C0.514192 19.1715 0.50656 19.1882 0.499457 19.2038C0.491043 19.2222 0.483371 19.239 0.490005 19.2522C0.587177 19.4465 0.623599 19.6653 0.635833 19.884C0.635833 19.9242 0.65242 19.9644 0.671819 20.0113C0.675914 20.0213 0.680133 20.0315 0.684349 20.0421C0.696583 20.0421 0.733005 20.0421 0.757333 20.0542L0.684349 20.273C0.728046 20.2467 0.765486 20.233 0.80567 20.2184L0.805828 20.2183C0.82146 20.2126 0.83751 20.2068 0.854505 20.2C0.890927 20.358 0.92749 20.5039 0.976005 20.6375C0.98824 20.6618 1.01257 20.6861 1.04899 20.7105C1.04466 20.7191 1.04186 20.7307 1.03898 20.7427C1.03372 20.7646 1.02819 20.7876 1.01257 20.7955C1.0254 20.8534 1.03654 20.9104 1.04755 20.9667C1.0782 21.1235 1.10791 21.2756 1.17049 21.4275C1.17662 21.4275 1.18272 21.4244 1.18881 21.4214C1.19485 21.4183 1.20088 21.4153 1.20691 21.4153C1.18869 21.3059 1.17349 21.1934 1.15829 21.0809C1.14312 20.9686 1.12794 20.8562 1.10974 20.7469V20.674C1.10974 20.674 1.13407 20.6618 1.14616 20.6618C1.15022 20.678 1.15562 20.6954 1.16101 20.7129C1.17187 20.7481 1.18272 20.7833 1.18272 20.8076C1.23131 20.8076 1.29206 20.8228 1.35281 20.838C1.41356 20.8532 1.47431 20.8684 1.5229 20.8684C1.52702 20.8561 1.53114 20.8424 1.53525 20.8287C1.54331 20.8019 1.55135 20.7751 1.55946 20.7591C1.52302 20.7227 1.48963 20.6771 1.45624 20.6316C1.42276 20.586 1.38928 20.5403 1.35274 20.5039C1.37007 20.5731 1.36271 20.6115 1.35704 20.6411C1.35475 20.653 1.35274 20.6635 1.35274 20.674C1.30424 20.6497 1.24353 20.6254 1.1828 20.6011C1.23132 20.5403 1.2799 20.4795 1.35274 20.4066C1.35274 20.2973 1.29199 20.2 1.12183 20.2122C1.15227 20.2021 1.18271 20.1898 1.21401 20.1772C1.25777 20.1596 1.30322 20.1413 1.35274 20.1271L1.35392 20.1307C1.36575 20.1659 1.37746 20.2008 1.3893 20.2243C1.44927 20.1193 1.4167 20.0282 1.38296 19.9339C1.36203 19.8754 1.34065 19.8156 1.34065 19.7504C1.3479 19.6265 1.30708 19.5026 1.26539 19.376C1.23759 19.2916 1.20939 19.206 1.19482 19.1184C1.15897 18.9176 1.14849 18.6576 1.13843 18.4083C1.13145 18.2351 1.12467 18.067 1.10974 17.9275C1.10974 17.9092 1.08921 17.891 1.06868 17.8727C1.06187 17.8666 1.05505 17.8606 1.04899 17.8545C1.04284 17.8606 1.02444 17.9036 1.00612 17.9463C0.987984 17.9887 0.969927 18.0308 0.963911 18.0369C1.00033 18.3285 1.03676 18.6202 1.06108 18.9119C1.04899 18.9119 1.03676 18.9119 1.03676 18.924C1.02602 18.8675 1.01527 18.8104 1.00439 18.7526C0.966111 18.5492 0.926138 18.3368 0.878833 18.1097C0.874182 18.1425 0.869509 18.168 0.86552 18.1898C0.859138 18.2246 0.854505 18.25 0.854505 18.2799C0.836315 18.2739 0.824193 18.2678 0.809029 18.2602C0.793831 18.2526 0.775578 18.2434 0.745099 18.2312C0.769936 18.2871 0.794774 18.3334 0.817984 18.3768C0.840242 18.4183 0.861004 18.4571 0.878833 18.4987C0.793755 18.4621 0.696583 18.4744 0.696583 18.4744V18.8145C0.612616 18.7306 0.569215 18.6582 0.530362 18.5935C0.512995 18.5645 0.496537 18.5371 0.47777 18.5108C0.465608 18.4622 0.456503 18.4136 0.447399 18.365C0.438295 18.3164 0.429183 18.2677 0.41702 18.2191L0.453442 18.2069C0.448473 18.187 0.441439 18.1691 0.434876 18.1523C0.425464 18.1284 0.41702 18.1069 0.41702 18.0854C0.404927 18.0003 0.392692 17.9032 0.380598 17.7937C0.385615 17.7887 0.396921 17.7837 0.410173 17.7778C0.42887 17.7695 0.451439 17.7594 0.465677 17.7452L0.368364 17.5994C0.397289 17.603 0.422984 17.6066 0.446408 17.6099C0.501791 17.6176 0.544484 17.6236 0.587177 17.6236C0.587177 17.6144 0.588938 17.6069 0.590444 17.6005C0.592884 17.5901 0.594656 17.5826 0.587177 17.5751C0.483425 17.4817 0.530307 17.397 0.576427 17.3138C0.584313 17.2996 0.592186 17.2854 0.59927 17.2712C0.611435 17.2469 0.638786 17.2317 0.666138 17.2165C0.693489 17.2013 0.720841 17.1861 0.733005 17.1618C0.760596 17.11 0.793097 17.0612 0.825495 17.0126C0.907195 16.8899 0.98824 16.7681 0.98824 16.6028C0.98824 16.5363 1.00169 16.4654 1.01496 16.3954C1.02352 16.3502 1.03201 16.3054 1.03676 16.2625C1.06108 16.0559 1.08541 15.8493 1.09765 15.6427C1.1064 15.546 1.10882 15.4492 1.11122 15.3529C1.11545 15.1834 1.11964 15.0156 1.1584 14.8529C1.25557 14.4275 1.37707 14.0021 1.5108 13.5768C1.60797 13.2729 1.71738 12.9813 1.83888 12.6775C1.86614 12.6067 1.89312 12.5358 1.92007 12.4651C2.07344 12.0624 2.22581 11.6623 2.42219 11.2799C2.67327 10.7779 2.95274 10.2901 3.2334 9.80026L3.23351 9.80007C3.3197 9.64962 3.40601 9.49898 3.49165 9.34766C3.72255 8.9466 3.9657 8.56987 4.22079 8.1809C4.24911 8.13702 4.27742 8.09297 4.3058 8.04884L4.30588 8.04871C4.52109 7.71399 4.73952 7.37425 4.98649 7.06293C5.37532 6.56469 5.80071 6.10288 6.27462 5.68958C6.39526 5.58102 6.51439 5.47171 6.63334 5.36259C6.99369 5.03197 7.35226 4.70298 7.74514 4.40146C8.42576 3.87889 9.14267 3.41708 9.90837 3.01602C10.5281 2.68794 11.1722 2.4327 11.8164 2.18956C12.0579 2.09725 12.3118 2.03401 12.5661 1.97068C12.7469 1.92567 12.9278 1.88062 13.1045 1.82506C13.5906 1.667 14.0768 1.59416 14.5871 1.58192C14.899 1.57043 15.1998 1.53697 15.5105 1.50242L15.5594 1.49698C15.851 1.47266 16.1427 1.44833 16.4587 1.41191C16.4223 1.46042 16.41 1.48475 16.3979 1.50908C16.3315 1.60573 16.262 1.70235 16.1926 1.79897C16.1223 1.89673 16.052 1.99459 15.9848 2.09239C15.9301 2.17142 15.8724 2.25344 15.8146 2.33546C15.7569 2.41748 15.6992 2.4995 15.6445 2.57853C15.5932 2.64587 15.541 2.7132 15.4887 2.78076L15.4885 2.78099C15.3426 2.96943 15.1953 3.15961 15.0612 3.35633C14.9434 3.52524 14.83 3.6963 14.7163 3.8677L14.7163 3.86783C14.5601 4.10335 14.4035 4.3395 14.2347 4.57161C14.0405 4.83056 13.8354 5.07878 13.6304 5.32699C13.5276 5.45146 13.4248 5.576 13.3233 5.70182C13.1228 5.9631 12.9283 6.2274 12.7339 6.49171C12.5394 6.75601 12.345 7.02032 12.1445 7.2816C11.9847 7.5 11.8202 7.7137 11.6562 7.92681C11.446 8.2 11.2365 8.47222 11.0386 8.75212C10.8428 9.02322 10.6609 9.30367 10.4787 9.58479C10.3668 9.75728 10.2548 9.93014 10.1393 10.1011C9.91441 10.4353 9.68958 10.7665 9.46475 11.0976L9.46464 11.0978C9.23986 11.4289 9.01508 11.7599 8.79026 12.0941C8.43785 12.6045 8.08545 13.1028 7.72081 13.6132C7.70323 13.6396 7.67935 13.6532 7.65371 13.6679C7.64386 13.6736 7.63374 13.6794 7.62364 13.6861C7.61553 13.6942 7.60471 13.7023 7.5939 13.7104C7.57228 13.7266 7.55065 13.7429 7.55065 13.7591C7.54135 13.7918 7.53562 13.8245 7.53002 13.8565C7.52106 13.9078 7.5124 13.9572 7.4899 14.0021C7.39273 14.1845 7.29556 14.3667 7.18615 14.5369C7.14923 14.5959 7.10332 14.6505 7.0566 14.7061C7.02646 14.7419 6.99596 14.7782 6.96734 14.8163C6.96357 14.8144 6.96009 14.8125 6.95682 14.8107C6.95441 14.8094 6.95212 14.8081 6.94989 14.8068C6.93562 14.7986 6.92438 14.7921 6.90659 14.7921C6.92283 14.7515 6.95665 14.7164 6.99091 14.6807C7.0593 14.6097 7.12939 14.5368 7.06465 14.4154C7.03428 14.4639 7.00388 14.5095 6.97348 14.555C6.94307 14.6006 6.91264 14.6462 6.88226 14.6948L6.73643 14.9865C6.74542 14.9932 6.75565 14.9995 6.76582 15.0058C6.81071 15.0336 6.85445 15.0607 6.78509 15.1202C6.76677 15.1507 6.74841 15.1844 6.73006 15.218C6.71192 15.2512 6.69378 15.2844 6.67568 15.3147C6.68182 15.3147 6.68488 15.3177 6.68792 15.3207C6.69096 15.3238 6.69398 15.3268 6.70001 15.3268C6.71822 15.3024 6.73647 15.2812 6.75471 15.2599C6.77296 15.2386 6.7912 15.2174 6.80942 15.193C6.81546 15.193 6.82155 15.1961 6.82763 15.1991C6.83371 15.2022 6.83979 15.2053 6.84584 15.2053C6.8174 15.3001 6.76667 15.3876 6.71689 15.4735C6.70291 15.4976 6.689 15.5216 6.67568 15.5456C6.63966 15.6175 6.56371 15.6761 6.49217 15.7313C6.46708 15.7507 6.44254 15.7696 6.42045 15.7886C6.42655 15.7946 6.45075 15.8067 6.47499 15.8188C6.49937 15.831 6.52379 15.8433 6.52985 15.8493C6.54809 15.825 6.56026 15.8189 6.57244 15.8128C6.58459 15.8068 6.59674 15.8007 6.61493 15.7765C6.62746 15.7952 6.64321 15.7882 6.6572 15.782C6.67037 15.7761 6.68198 15.7709 6.68792 15.7886C6.69848 15.7745 6.70904 15.7614 6.71901 15.749C6.74343 15.7188 6.76431 15.6929 6.77299 15.6671C6.82151 15.5456 6.8945 15.4483 7.01599 15.3997C7.06437 15.3756 7.10066 15.3393 7.13687 15.3031L7.13749 15.3024C7.21839 15.2189 7.29988 15.1359 7.3813 15.053C7.6669 14.7622 7.95166 14.4722 8.20695 14.1601C8.54774 13.7463 8.86684 13.3217 9.18594 12.8971C9.34481 12.6857 9.50369 12.4743 9.66523 12.2642C9.81502 12.0705 9.98386 11.8768 10.1487 11.6877C10.2113 11.6158 10.2734 11.5446 10.3336 11.4743C10.3444 11.4797 10.3551 11.4828 10.3648 11.4855C10.3771 11.4889 10.3877 11.4919 10.3945 11.4987C10.3702 11.7539 10.3459 12.0212 10.3336 12.2765C10.3148 12.5091 10.2992 12.7419 10.2834 12.9763C10.2688 13.1948 10.254 13.4148 10.2365 13.6376C10.2304 13.7287 10.2304 13.8198 10.2304 13.911C10.2304 14.0021 10.2304 14.0933 10.2244 14.1845C10.2244 14.2087 10.2152 14.2299 10.2061 14.2512C10.1969 14.2724 10.1878 14.2937 10.1878 14.3181C10.1878 14.3788 10.1969 14.4426 10.2061 14.5064C10.2152 14.5702 10.2244 14.634 10.2244 14.6948C10.2061 14.9197 10.1848 15.1416 10.1635 15.3635L10.1635 15.3637C10.1422 15.5853 10.121 15.8069 10.1027 16.0316C10.0936 16.1047 10.1188 16.1777 10.1422 16.2455C10.15 16.268 10.1575 16.29 10.1636 16.3111L10.1628 16.3103C10.1508 16.2985 10.1385 16.2863 10.1027 16.2625C10.1027 16.5136 10.1197 16.7632 10.1366 17.0118C10.1671 17.461 10.1975 17.907 10.127 18.3529C10.1757 18.3406 10.2 18.3285 10.2 18.3042C10.2041 18.2757 10.2095 18.2473 10.2149 18.2188C10.2257 18.1622 10.2365 18.1056 10.2365 18.049C10.2445 18.0012 10.242 17.9534 10.2393 17.9022C10.2379 17.8753 10.2365 17.8474 10.2365 17.8181V17.6966C10.2405 17.6247 10.2484 17.5516 10.2564 17.478C10.2727 17.3275 10.2892 17.175 10.2729 17.0282C10.2487 16.785 10.2487 16.5541 10.2972 16.3232C10.3066 16.2858 10.3069 16.2447 10.3073 16.2014C10.3079 16.1324 10.3085 16.0577 10.3459 15.9831V16.1653C10.343 16.3255 10.3422 16.4858 10.3413 16.646C10.3384 17.1785 10.3355 17.711 10.2608 18.2435C10.2578 18.2586 10.2585 18.2767 10.2593 18.2952C10.2616 18.3511 10.264 18.4106 10.1636 18.4014C10.1572 18.4014 10.1509 18.4179 10.1428 18.4389C10.1354 18.4582 10.1266 18.4812 10.115 18.4987C10.0888 18.551 10.0987 18.6101 10.1087 18.6701C10.122 18.7494 10.1355 18.8304 10.0663 18.8996C10.0505 18.9154 10.0655 18.9672 10.0813 19.0216C10.0898 19.0508 10.0985 19.0808 10.1027 19.1063C10.1027 19.1149 10.1042 19.1235 10.1057 19.1315C10.1083 19.1462 10.1106 19.1592 10.1027 19.1671C10.0542 19.2522 10.0542 19.2522 10.127 19.2643C10.1333 19.4016 10.1428 19.5326 10.1522 19.6621C10.161 19.7846 10.1698 19.9058 10.1757 20.0298H10.2121C10.3044 19.7603 10.3096 19.4867 10.3149 19.2114C10.3187 19.0149 10.3225 18.8175 10.358 18.6202C10.3702 18.8145 10.3823 19.009 10.3702 19.2156C10.3702 19.5172 10.359 19.8078 10.3475 20.1085L10.3459 20.1515C10.3459 20.2115 10.3339 20.2716 10.3219 20.3316L10.3215 20.3337C10.3097 20.3888 10.3005 20.4438 10.2913 20.4984C10.2721 20.6126 10.2532 20.7251 10.2121 20.832C10.1755 20.9237 10.1803 21.0503 10.1849 21.1695C10.1863 21.2081 10.1878 21.246 10.1878 21.2817V21.7433C10.1878 21.7474 10.1919 21.7542 10.1973 21.7633C10.2081 21.7813 10.2244 21.8083 10.2244 21.8407C10.2295 21.887 10.2215 21.9333 10.2135 21.9805C10.2024 22.0449 10.1911 22.1109 10.2121 22.181C10.2224 22.2015 10.2068 22.2306 10.1942 22.2538C10.1919 22.2581 10.1897 22.2623 10.1878 22.2661C10.1757 22.3025 10.1636 22.3389 10.1757 22.3753L10.2121 22.5577C10.2121 22.5652 10.2168 22.5727 10.2232 22.583C10.2272 22.5894 10.2318 22.597 10.2365 22.6062C10.2487 22.5577 10.2487 22.5211 10.2487 22.5091C10.3741 22.5238 10.3831 22.5968 10.3925 22.6736C10.3986 22.7234 10.4049 22.7747 10.443 22.8129C10.4296 22.8197 10.417 22.8255 10.4059 22.8306C10.377 22.8439 10.358 22.8527 10.358 22.8615C10.3624 22.8793 10.3685 22.8954 10.3745 22.9112C10.3847 22.9384 10.3945 22.9643 10.3945 22.9952C10.3945 23.0936 10.3846 23.1823 10.3738 23.279L10.3702 23.3112C10.3702 23.4524 10.3671 23.5937 10.364 23.7335C10.3609 23.8701 10.358 24.0053 10.358 24.1375C10.358 24.1557 10.361 24.1739 10.3641 24.1922C10.3671 24.2104 10.3702 24.2287 10.3702 24.2469C10.3702 24.2578 10.3677 24.2688 10.365 24.2808C10.3617 24.2956 10.358 24.3119 10.358 24.332V24.5872H10.4066C10.3823 24.6236 10.358 24.6601 10.3215 24.6965C10.3094 24.6965 10.2729 24.6965 10.2729 24.6844V23.1531H10.0906C10.0832 23.3754 10.0837 23.5909 10.0842 23.8023C10.0853 24.2846 10.0863 24.746 9.99345 25.219C9.93546 25.2239 9.89283 25.2307 9.85259 25.2371C9.79165 25.2468 9.73615 25.2556 9.64104 25.2556C9.26431 25.2556 8.88757 25.2556 8.51084 25.2677C8.28598 25.2677 8.06418 25.2708 7.84238 25.2738C7.62058 25.2769 7.39878 25.2799 7.17392 25.2799C7.0646 25.2799 6.95222 25.286 6.83983 25.292C6.72742 25.2981 6.61493 25.3041 6.50553 25.3041C6.3597 25.3041 6.21085 25.295 6.06199 25.2859C5.91314 25.2768 5.76429 25.2677 5.61846 25.2677C5.34906 25.2677 5.08405 25.2808 4.81821 25.2939C4.6403 25.3026 4.46191 25.3114 4.28168 25.3163C4.11856 25.3224 3.95548 25.3254 3.79241 25.3284L3.79207 25.3284C3.62713 25.3315 3.46222 25.3345 3.2973 25.3407C3.07849 25.3528 2.85968 25.365 2.64101 25.3892C2.57291 25.3978 2.51076 25.4182 2.4378 25.4422C2.40664 25.4525 2.37352 25.4634 2.33712 25.4743C2.32711 25.4743 2.31344 25.4734 2.29736 25.4723C2.25489 25.4695 2.19561 25.4655 2.14277 25.4743C2.0821 25.4864 2.02445 25.5107 1.9668 25.535C1.909 25.5593 1.85119 25.5837 1.79037 25.5958C1.60797 25.6323 1.55946 25.6809 1.58365 25.8632V25.9847C1.55946 25.9604 1.5229 25.9361 1.49857 25.924C1.48647 25.924 1.47438 25.9361 1.47438 25.9361C1.48041 25.9543 1.48949 25.9694 1.49858 25.9846C1.5077 25.9998 1.51684 26.0151 1.5229 26.0334C1.53983 26.0249 1.55824 26.012 1.57709 25.9988C1.61237 25.9741 1.64925 25.9483 1.68096 25.9483H1.85112C1.83682 25.9483 1.8267 25.9735 1.81339 26.0065C1.80406 26.0298 1.79315 26.0569 1.77813 26.0819C1.8753 26.0455 1.93619 26.0212 1.99694 25.9968C2.00904 26.0334 2.00904 26.0819 2.00904 26.0941C2.06237 26.0903 2.11451 26.0829 2.16544 26.0757C2.27698 26.0598 2.38284 26.0448 2.48294 26.0698C2.95699 26.1913 3.44313 26.24 3.92913 26.2885C4.24512 26.3128 4.54901 26.3251 4.86499 26.3371C5.31457 26.3615 5.76429 26.3858 6.21387 26.3858C6.40219 26.3858 6.58749 26.3767 6.77279 26.3676L6.77305 26.3676C6.95835 26.3585 7.14366 26.3494 7.33198 26.3494C7.68172 26.3494 8.03146 26.3602 8.3812 26.3711C8.55402 26.3764 8.72685 26.3818 8.89967 26.3858C8.95292 26.3858 9.00904 26.3829 9.06663 26.3799C9.12734 26.3768 9.18973 26.3736 9.25208 26.3736H10.1393C10.532 26.3615 10.9246 26.3525 11.3173 26.3434C11.7146 26.3342 12.1118 26.3251 12.5091 26.3128C12.7338 26.3068 12.9615 26.2977 13.1893 26.2886L13.1894 26.2886C13.4174 26.2795 13.6453 26.2704 13.8702 26.2643L15.2555 26.2277C15.5198 26.2218 15.7841 26.2187 16.0469 26.2157C16.3158 26.2127 16.5832 26.2096 16.8475 26.2034C17.2372 26.2034 17.6155 26.192 18.0045 26.1803L18.0385 26.1792C18.3416 26.171 18.6502 26.1517 18.9569 26.1326L18.9571 26.1326C19.1053 26.1234 19.2531 26.1142 19.3996 26.1062C19.6425 26.0942 19.8852 26.0699 20.1281 26.0456L20.1289 26.0455C20.2228 26.0377 20.3179 26.0286 20.4136 26.0194C20.6149 26.0002 20.8182 25.9808 21.0159 25.9725C21.2334 25.9605 21.454 25.9514 21.6745 25.9423L21.6747 25.9423C21.8977 25.9332 22.1207 25.924 22.3406 25.9118C22.4753 25.9028 22.61 25.8931 22.7449 25.8833C23.1576 25.8536 23.5721 25.8237 23.9934 25.8146C24.2991 25.8 24.6091 25.7986 24.9183 25.7971C25.1254 25.7961 25.3321 25.7952 25.5367 25.7903C25.7571 25.7843 25.9774 25.7755 26.1992 25.7665L26.1995 25.7665C26.4302 25.7572 26.6624 25.7479 26.8979 25.7417L27.6636 25.7052C27.6636 25.7052 28.1739 25.6931 28.4291 25.6688C28.6039 25.659 28.7787 25.6454 28.9535 25.6318C29.2162 25.6114 29.4789 25.5909 29.7416 25.5837C29.8814 25.5776 30.0211 25.5776 30.1609 25.5776C30.3007 25.5776 30.4404 25.5776 30.5801 25.5716C30.7276 25.5676 30.8764 25.5623 31.0257 25.5569C31.3315 25.546 31.6391 25.535 31.9412 25.535C32.0445 25.535 32.1522 25.544 32.2698 25.5537C32.346 25.5601 32.4265 25.5668 32.5125 25.5716C32.4393 25.6356 32.3868 25.6789 32.3342 25.7223L32.3211 25.7331C32.3081 25.7439 32.2951 25.7547 32.2815 25.7659C32.3294 25.778 32.3771 25.8017 32.4249 25.8255L32.4274 25.8267C32.4274 25.8318 32.4253 25.8368 32.4229 25.8427C32.4194 25.8511 32.4153 25.8611 32.4153 25.8753C32.3849 25.8753 32.3546 25.8784 32.3242 25.8814C32.2938 25.8845 32.2634 25.8876 32.2329 25.8876C32.2263 25.9042 32.2196 25.9182 32.2129 25.9321C32.1953 25.9689 32.1777 26.0059 32.16 26.0941H32.3787C32.3181 26.0941 32.2635 26.1499 32.2063 26.2083C32.1834 26.2317 32.16 26.2555 32.1357 26.2764C32.1418 26.2824 32.1478 26.2854 32.1538 26.2884C32.1599 26.2915 32.166 26.2946 32.1721 26.3007C32.0385 26.2521 31.9535 26.2764 31.9048 26.4101C31.9412 26.4222 31.9656 26.4222 32.002 26.4222C31.9899 26.4587 31.9778 26.4952 31.9656 26.5437L31.9653 26.5443C31.9533 26.5684 31.9412 26.5927 31.9412 26.6288L31.9048 26.5924C31.9048 26.5681 31.9048 26.5437 31.8927 26.5194C31.8797 26.5324 31.8655 26.5447 31.8513 26.557C31.7861 26.6133 31.7212 26.6693 31.7711 26.799C31.7556 26.8067 31.7388 26.8145 31.7212 26.8227C31.6837 26.8401 31.6424 26.8593 31.6011 26.884C31.6056 26.8931 31.6118 26.9022 31.6185 26.9119C31.6296 26.9282 31.642 26.9463 31.6496 26.9691C31.5403 26.9812 31.4309 27.0055 31.4552 27.1393C31.4856 27.1469 31.5161 27.1592 31.5435 27.1704C31.5599 27.177 31.5752 27.1833 31.5888 27.1878C31.5585 27.2 31.5281 27.2151 31.4977 27.2303C31.4673 27.2455 31.437 27.2607 31.4066 27.2729C31.4028 27.2803 31.3991 27.2911 31.3951 27.3028C31.3858 27.3297 31.3748 27.3617 31.3579 27.3702C31.216 27.4006 31.2601 27.4478 31.3068 27.4979C31.3161 27.5079 31.3255 27.518 31.3336 27.5281C31.2972 27.5524 31.2607 27.5768 31.2243 27.5889C31.2607 27.6011 31.2851 27.6132 31.3094 27.6375C31.2741 27.661 31.2502 27.6731 31.2268 27.6849L31.2243 27.6862C31.2283 27.6881 31.2326 27.6905 31.237 27.6929C31.2417 27.6955 31.2464 27.6982 31.2512 27.701C31.2701 27.7118 31.2891 27.7226 31.2972 27.7226C31.2485 27.759 31.1878 27.8077 31.1149 27.8684C31.1149 27.8927 31.1149 27.9048 31.127 27.9292L31.1254 27.9308C31.0774 27.9789 31.0293 28.0272 30.9812 28.0993C30.9605 28.1304 30.9442 28.1659 30.9276 28.202C30.9053 28.2507 30.8824 28.3005 30.8476 28.3423C30.7649 28.4329 30.6899 28.5286 30.615 28.624C30.4589 28.823 30.3037 29.0209 30.0819 29.1688C29.9604 29.2539 29.851 29.3631 29.7416 29.4725C29.6542 29.5551 29.5706 29.6416 29.4871 29.728C29.3616 29.8579 29.2361 29.9878 29.0975 30.1045C28.7938 30.3597 28.4778 30.5906 28.1496 30.8215L28.1454 30.8244L28.1453 30.8245C27.7458 31.103 27.3461 31.3815 26.9465 31.6479C26.8118 31.7376 26.6679 31.8136 26.5234 31.8899C26.4331 31.9376 26.3425 31.9854 26.2538 32.0368C26.1374 32.1042 26.0241 32.1685 25.9108 32.2328L25.9106 32.2329C25.7992 32.2962 25.6877 32.3594 25.5732 32.4257C25.5199 32.4612 25.4683 32.5015 25.4166 32.542C25.3266 32.6124 25.236 32.6832 25.1357 32.7295C24.8679 32.8431 24.5894 32.9459 24.3109 33.0487C24.1722 33.0998 24.0335 33.151 23.8962 33.2035C23.878 33.2095 23.8628 33.2156 23.8476 33.2216C23.8324 33.2277 23.8172 33.2338 23.7989 33.2399C23.7091 33.2794 23.6204 33.32 23.5321 33.3604C23.3217 33.4566 23.1137 33.5518 22.8996 33.6288C22.62 33.726 22.3285 33.799 22.0367 33.8597C21.9813 33.8736 21.922 33.8717 21.861 33.8697C21.8149 33.8682 21.7679 33.8666 21.7209 33.8718C21.6516 33.884 21.5824 33.8976 21.5131 33.9112C21.3757 33.9381 21.2384 33.9651 21.101 33.9813C20.8337 34.0177 20.5663 34.0481 20.299 34.0785C20.0316 34.1089 19.7642 34.1392 19.4969 34.1757C19.3389 34.1939 19.1839 34.2182 19.029 34.2425C18.874 34.2668 18.719 34.2911 18.561 34.3093C18.4294 34.3167 18.2933 34.3108 18.158 34.305C18.0687 34.3011 17.9797 34.2972 17.8926 34.2972C17.8339 34.2972 17.7734 34.3023 17.7125 34.3074C17.6098 34.3159 17.5058 34.3246 17.4065 34.3093C17.2362 34.285 17.0658 34.2499 16.8954 34.2147C16.8106 34.1972 16.7258 34.1797 16.6409 34.1635C16.6321 34.1617 16.6227 34.1597 16.6129 34.1576C16.5561 34.1453 16.488 34.1306 16.4465 34.1514C16.3926 34.1783 16.3425 34.1679 16.292 34.1574C16.2513 34.149 16.2104 34.1406 16.167 34.1514C16.1333 34.1581 16.0996 34.1462 16.0658 34.1342C16.0388 34.1246 16.0117 34.115 15.9846 34.115C15.9608 34.109 15.9339 34.1118 15.9056 34.1148C15.8764 34.1179 15.8455 34.1211 15.8146 34.115C15.7897 34.1082 15.7651 34.1009 15.7408 34.0937C15.6347 34.0624 15.5322 34.0322 15.4136 34.042C15.3146 34.0503 15.2157 34.0194 15.1129 33.9873C15.0642 33.972 15.0147 33.9565 14.9638 33.9448C14.8578 33.9212 14.7546 33.8976 14.6515 33.8741L14.6511 33.874C14.5417 33.8489 14.4323 33.824 14.3198 33.799C14.2347 33.7747 14.1619 33.7383 14.0768 33.6896C14.073 33.6915 14.0689 33.6937 14.0645 33.696C14.0407 33.7087 14.0083 33.726 13.9674 33.726C13.9096 33.7158 13.8518 33.7075 13.7942 33.6993C13.6461 33.6781 13.4998 33.6571 13.3597 33.6045C13.3263 33.5926 13.2933 33.5797 13.2605 33.5669C13.1265 33.5145 12.9958 33.4635 12.8493 33.483C12.8206 33.4902 12.7961 33.4846 12.7708 33.4788C12.7533 33.4748 12.7355 33.4708 12.7157 33.4708C12.7034 33.4545 12.6912 33.4328 12.679 33.4111C12.6547 33.368 12.6305 33.325 12.6063 33.325C12.4595 33.3323 12.3482 33.26 12.2376 33.1882C12.165 33.141 12.0926 33.0939 12.0107 33.0699C11.9561 33.0516 11.9075 33.0121 11.8589 32.9726C11.8103 32.9331 11.7617 32.8936 11.707 32.8754C11.6053 32.8338 11.5107 32.7746 11.4158 32.7153C11.261 32.6185 11.1054 32.5212 10.9171 32.4986C10.8503 32.4902 10.7836 32.4648 10.713 32.4378C10.6807 32.4255 10.6475 32.4128 10.6132 32.4013C10.6168 32.4062 10.6204 32.411 10.6238 32.4156C10.6274 32.4205 10.6309 32.4252 10.6343 32.4299C10.6601 32.4649 10.6814 32.4939 10.7104 32.523L10.686 32.5472L10.6749 32.5406C10.3506 32.3484 10.0262 32.1563 9.70179 31.9761C9.66968 31.968 9.6429 31.9441 9.61789 31.9218C9.605 31.9103 9.59259 31.8993 9.58015 31.891L9.25208 31.6722C9.21565 31.6479 9.14267 31.6114 9.14267 31.6235C9.08254 31.6939 9.02232 31.6564 8.97584 31.6275C8.96601 31.6214 8.95679 31.6157 8.94832 31.6114C8.80423 31.5101 8.65079 31.4251 8.49724 31.3401C8.30104 31.2314 8.10464 31.1226 7.92739 30.9795C7.88181 30.9422 7.83338 30.9091 7.7855 30.8764C7.69303 30.8133 7.60258 30.7516 7.53856 30.6635C7.3684 30.4569 7.16182 30.3111 6.93092 30.1896C6.74867 30.0924 6.57851 29.983 6.40835 29.8736C6.32328 29.8128 6.2382 29.74 6.2382 29.6063C6.2382 29.5212 6.20178 29.4361 6.09237 29.4848C6.08585 29.475 6.07932 29.465 6.07278 29.4549C6.03048 29.3901 5.98705 29.3234 5.93445 29.3024C5.81757 29.2537 5.73186 29.1738 5.64612 29.094C5.62487 29.0742 5.60362 29.0544 5.5819 29.035C5.54774 29.0047 5.51595 28.9707 5.4843 28.9369C5.41469 28.8626 5.34575 28.789 5.25382 28.7556C5.04454 28.6718 4.90734 28.507 4.78013 28.3541C4.75964 28.3295 4.7394 28.3052 4.71916 28.2816C4.46369 27.9805 4.22874 27.6589 3.99379 27.3373C3.91577 27.2305 3.83775 27.1237 3.75898 27.0176C3.74472 26.9962 3.72198 26.9789 3.69825 26.9609C3.6817 26.9483 3.66467 26.9354 3.64971 26.9205L3.63748 26.9327C3.66819 26.9941 3.69891 27.0525 3.72964 27.1108C3.75968 27.1679 3.78977 27.225 3.81987 27.2851C3.81379 27.2911 3.80472 27.2972 3.79565 27.3032C3.78647 27.3093 3.77729 27.3154 3.77121 27.3215C3.73493 27.2792 3.69566 27.2369 3.65639 27.1946C3.61666 27.1519 3.57694 27.1091 3.5403 27.0663C3.52807 27.0785 3.51598 27.0906 3.50388 27.0906L4.37885 28.4761C4.41506 28.5304 4.44828 28.5848 4.4815 28.6391C4.51511 28.6941 4.54873 28.7491 4.58543 28.8041C4.57334 28.8164 4.5611 28.8285 4.53677 28.8406C4.40318 28.8164 4.28168 28.7191 4.22079 28.6097C4.11152 28.4153 3.98988 28.2938 3.74688 28.318C3.72255 28.2329 3.69823 28.1357 3.68613 28.0507C3.63748 28.0507 3.60105 28.0507 3.51598 28.0386C3.68613 28.3059 3.83196 28.5368 3.98988 28.8041C3.96669 28.7902 3.94704 28.7781 3.93025 28.7677C3.90308 28.7509 3.88342 28.7388 3.86838 28.7313C3.93727 28.804 4.00013 28.8827 4.06264 28.961C4.19869 29.1314 4.33313 29.2998 4.52468 29.3997C4.55599 29.5437 4.65511 29.649 4.75379 29.7539C4.84657 29.8525 4.93896 29.9506 4.97426 30.0802C4.94388 30.0741 4.91657 30.068 4.88925 30.062C4.86193 30.0559 4.83462 30.0498 4.80424 30.0437C4.75236 29.979 4.69704 29.9142 4.64014 29.8476C4.59031 29.7892 4.53927 29.7294 4.48826 29.667C4.51245 29.7521 4.54901 29.8249 4.59752 29.8858C4.62362 29.9184 4.64932 29.951 4.67492 29.9835C4.79238 30.1325 4.90753 30.2786 5.04724 30.4084C5.06355 30.4247 5.08161 30.4384 5.09931 30.4518C5.14753 30.4883 5.19307 30.5228 5.19307 30.6027C5.21719 30.5786 5.24131 30.5665 5.28899 30.5426L5.29024 30.542C5.26591 30.5906 5.25382 30.615 5.24173 30.6514C5.26772 30.6514 5.29028 30.6549 5.31123 30.6581C5.32938 30.6609 5.34632 30.6635 5.36323 30.6635C5.36925 30.6816 5.37154 30.7019 5.37379 30.7218C5.38063 30.7824 5.38711 30.8398 5.49682 30.8215C5.50906 30.8215 5.52115 30.8336 5.53338 30.8459C5.59413 31.0038 5.69131 31.0038 5.82504 30.943C5.84937 30.931 5.91012 30.943 5.92221 30.9674C5.98296 31.101 6.06804 31.1132 6.17745 31.016C6.17745 31.0481 6.18082 31.0802 6.184 31.1105C6.18685 31.1375 6.18954 31.1631 6.18954 31.186H6.2382C6.2382 31.1767 6.23639 31.1655 6.23417 31.1517C6.23065 31.1299 6.2261 31.1018 6.2261 31.0645C6.2493 31.0831 6.26896 31.0982 6.28574 31.111C6.31291 31.1318 6.33257 31.1468 6.3476 31.1619L6.36342 31.184C6.47875 31.3456 6.58592 31.4958 6.74867 31.6235C6.86262 31.7195 6.97065 31.8184 7.07713 31.9159C7.18639 32.016 7.29409 32.1146 7.40482 32.207C7.83021 32.5594 8.30412 32.851 8.77817 33.1184C9.0114 33.2495 9.24074 33.3846 9.47009 33.5197C9.81433 33.7225 10.1586 33.9253 10.516 34.1148C11.2329 34.4917 11.9986 34.7468 12.7885 34.9292C13.0802 34.99 13.3597 35.0507 13.6514 35.1235C13.7607 35.1548 13.87 35.1927 13.9793 35.2307C14.1252 35.2813 14.2712 35.332 14.417 35.3667C14.7502 35.4396 15.0923 35.5035 15.4279 35.5662L15.4301 35.5666C15.4855 35.5769 15.5408 35.5873 15.5958 35.5976L15.6139 35.6002L15.6142 35.6002C15.6932 35.6115 15.773 35.6228 15.8631 35.634V35.6583C15.9068 35.6583 15.9544 35.6506 15.9973 35.6436C16.0619 35.6331 16.116 35.6242 16.1306 35.6461C16.1776 35.7213 16.2172 35.7093 16.2665 35.6944C16.281 35.69 16.2963 35.6854 16.3129 35.6827C16.3979 35.6583 16.4951 35.6583 16.5923 35.6583C16.7239 35.663 16.8537 35.6768 16.983 35.6905C17.1881 35.7123 17.3923 35.734 17.601 35.7191C17.6184 35.7191 17.6378 35.7157 17.6582 35.712C17.7233 35.7005 17.7978 35.6873 17.8441 35.7798C17.8562 35.7738 17.8652 35.7678 17.8743 35.7617C17.8834 35.7556 17.8926 35.7495 17.9049 35.7434C17.9292 35.7373 17.9567 35.7342 17.9842 35.7312C18.0114 35.7281 18.0387 35.7251 18.0628 35.7191V35.7434C18.0478 35.7509 18.0329 35.7537 18.0123 35.7577C17.9994 35.7602 17.9843 35.763 17.9656 35.7678C18.0264 35.7798 18.0628 35.7919 18.0994 35.8042C18.0815 35.822 18.0702 35.8268 18.0558 35.8328C18.0506 35.835 18.045 35.8374 18.0385 35.8406C18.0331 35.8433 18.027 35.846 18.0204 35.849C17.9973 35.8594 17.9669 35.8731 17.9292 35.9013C18.3667 35.9864 18.7798 35.9987 19.1445 35.9013V35.8285H19.193C19.193 35.8524 19.205 35.8765 19.2169 35.9005L19.2173 35.9013C19.7763 35.95 20.3232 35.877 20.8458 35.6948C20.8492 35.6991 20.8526 35.7035 20.8559 35.7079C20.8591 35.7121 20.8622 35.7164 20.8653 35.7207C20.9052 35.7751 20.9409 35.8238 21.0038 35.7191C21.0262 35.6856 21.0795 35.6725 21.1257 35.6612L21.1374 35.6583C21.1585 35.6537 21.1805 35.6481 21.203 35.6423C21.2971 35.6184 21.3993 35.5924 21.4777 35.6219C21.5416 35.6432 21.5806 35.6189 21.619 35.5949C21.6463 35.5779 21.6733 35.561 21.7086 35.561C21.8545 35.561 21.9882 35.5489 22.1218 35.5246C22.1651 35.5174 22.2083 35.5017 22.254 35.485C22.2854 35.4735 22.3181 35.4616 22.3527 35.4518C22.3527 35.4395 22.3527 35.4274 22.3406 35.4152C22.2555 35.4031 22.1584 35.391 22.0854 35.391C22.2298 35.3188 22.3623 35.2585 22.4945 35.1984L22.4985 35.1965C22.4985 35.2026 22.5016 35.2056 22.5046 35.2086C22.5077 35.2117 22.5108 35.2147 22.5108 35.2209C22.496 35.2257 22.4833 35.2366 22.4701 35.2478C22.4507 35.2643 22.4304 35.2816 22.4014 35.2816H22.5715C22.5489 35.2816 22.5216 35.3238 22.4895 35.3732C22.47 35.4034 22.4487 35.4363 22.4257 35.4639C22.6534 35.4069 22.8712 35.3533 23.0826 35.3013C23.2773 35.2533 23.4666 35.2067 23.6531 35.1601V35.1358C23.631 35.1413 23.6113 35.1443 23.5931 35.1471C23.5712 35.1504 23.5514 35.1535 23.5316 35.1601C23.5243 35.007 23.622 34.9764 23.7223 34.9449C23.7892 34.9239 23.8573 34.9025 23.8962 34.8441L23.895 34.8445C23.7738 34.8808 23.6526 34.9171 23.5316 34.9413V34.917C23.7354 34.827 23.9422 34.7371 24.1491 34.6472L24.1493 34.6471C24.3616 34.5548 24.574 34.4625 24.7833 34.3701C24.7833 34.3762 24.7864 34.3793 24.7894 34.3823C24.7925 34.3854 24.7955 34.3884 24.7955 34.3944C24.742 34.4301 24.6885 34.4592 24.6207 34.4961C24.596 34.5096 24.5694 34.524 24.5403 34.5402C24.5703 34.5453 24.5962 34.5482 24.6189 34.5508C24.6512 34.5545 24.6768 34.5575 24.6982 34.5646C24.6982 34.601 24.6982 34.6253 24.6861 34.6375C24.8307 34.629 24.8502 34.5371 24.8698 34.4452C24.8782 34.4059 24.8866 34.3665 24.9048 34.3337C24.9119 34.336 24.9196 34.3389 24.9274 34.3418C24.9599 34.3539 24.997 34.3677 25.0264 34.358C25.1137 34.3386 25.1933 34.3114 25.2775 34.2827C25.2987 34.2755 25.3203 34.2681 25.3423 34.2608L25.3451 34.26C25.4657 34.2237 25.5864 34.1874 25.7069 34.1392C25.8283 34.0861 25.9449 34.0236 26.0627 33.9604C26.1336 33.9224 26.205 33.8841 26.2781 33.8475C26.3024 33.8395 26.3375 33.8421 26.3726 33.8448C26.3901 33.8462 26.4077 33.8475 26.4239 33.8475C26.4602 33.8475 26.4845 33.8234 26.5087 33.7993L26.509 33.799C26.5251 33.7869 26.5413 33.7707 26.5569 33.755C26.5885 33.7234 26.6183 33.6936 26.6426 33.7017C26.8128 33.726 26.9343 33.6653 26.9829 33.5073C26.9891 33.5073 26.9921 33.5043 26.9952 33.5012C26.9982 33.4981 27.0012 33.4951 27.0073 33.4951L27.0094 33.4934C27.0694 33.4455 27.1295 33.3975 27.1895 33.3614C27.3246 33.2877 27.4565 33.2141 27.5884 33.1405L27.5886 33.1404C27.7179 33.0683 27.8472 32.9961 27.9795 32.9239C27.9874 32.9161 28.0003 32.9184 28.015 32.9209C28.0231 32.9224 28.0317 32.9239 28.0403 32.9239C28.0767 32.9239 28.1254 32.9239 28.1496 32.9118C28.3076 32.8388 28.4534 32.7539 28.5993 32.6688C28.5878 32.6649 28.5835 32.6611 28.5793 32.6573C28.5701 32.6489 28.561 32.6406 28.4778 32.6322V32.6079C28.5986 32.5839 28.6353 32.5716 28.7074 32.5476L28.7087 32.5472L28.6844 32.523C28.867 32.3403 29.078 32.1861 29.2823 32.0369C29.4314 31.9279 29.577 31.8216 29.7052 31.7087C29.7155 31.7108 29.7249 31.7129 29.7334 31.7149C29.7439 31.7174 29.7531 31.7198 29.7615 31.7219C29.7863 31.7283 29.8041 31.7329 29.8267 31.7329C29.8389 31.6965 29.8389 31.6601 29.8389 31.6358C29.843 31.6306 29.8472 31.6253 29.8513 31.62C29.8583 31.6109 29.8654 31.6017 29.8726 31.5923C29.9104 31.5427 29.95 31.4909 29.9968 31.4535C30.1009 31.3588 30.2088 31.2696 30.316 31.181C30.4841 31.042 30.6506 30.9044 30.7989 30.7486C31.1513 30.3962 31.4917 30.0317 31.8076 29.6549C32.0993 29.3146 32.391 28.9743 32.634 28.5976C32.9445 28.1208 33.2145 27.6339 33.4901 27.1369C33.5165 27.0892 33.5431 27.0413 33.5697 26.9934C33.6794 26.7984 33.783 26.6034 33.8866 26.4084C33.9896 26.2145 34.0926 26.0206 34.2016 25.8267C34.226 25.7903 34.2746 25.7417 34.3111 25.7417C34.4687 25.7242 34.6263 25.7094 34.7826 25.6948L34.7827 25.6948C34.9518 25.679 35.1192 25.6633 35.2833 25.6444C35.3441 25.6343 35.4133 25.5988 35.477 25.5662C35.4897 25.5597 35.5021 25.5533 35.5142 25.5473C35.4959 25.5168 35.4806 25.4832 35.4654 25.4497C35.4502 25.4164 35.4351 25.383 35.4169 25.3528C35.3926 25.3161 35.3621 25.2826 35.3316 25.2491C35.3013 25.2158 35.271 25.1825 35.2468 25.1462C35.1988 25.0861 35.1626 25.0141 35.1265 24.9421L35.1253 24.9396C35.1069 24.909 35.0885 24.8814 35.0701 24.8538C35.0521 24.8267 35.034 24.7996 35.0159 24.7695L35.0134 24.765C34.9414 24.6327 34.8694 24.5005 34.8093 24.3563C34.8078 24.3518 34.8061 24.347 34.8044 24.3419C34.7918 24.3052 34.7743 24.2545 34.785 24.2226C34.8992 23.9752 34.977 23.7178 35.0546 23.4609C35.1257 23.2256 35.1967 22.9908 35.2954 22.7643C35.4593 22.3787 35.5314 21.9548 35.6028 21.5352C35.6214 21.4258 35.6399 21.3167 35.6601 21.2087C35.7238 20.8353 35.7671 20.4618 35.8103 20.0883C35.8247 19.9635 35.8392 19.8387 35.8544 19.7138C35.864 19.6218 35.8743 19.5305 35.8847 19.4396C35.9138 19.1828 35.9427 18.929 35.9517 18.6687C36.0165 18.1717 36.0044 17.7035 35.9925 17.2385C35.991 17.1805 35.9895 17.1226 35.9881 17.0646ZM5.43607 30.6271C5.39374 30.5786 5.35438 30.5272 5.31501 30.4757C5.27539 30.4239 5.23575 30.3721 5.19307 30.3233L5.22949 30.2867L5.23815 30.2962C5.369 30.439 5.49984 30.5818 5.63056 30.7365C5.61038 30.7264 5.58927 30.7172 5.56851 30.7082C5.51433 30.6847 5.4625 30.6622 5.43607 30.6271ZM5.63056 30.7365C5.64866 30.7305 5.6668 30.7274 5.68494 30.7244C5.70329 30.7213 5.72165 30.7183 5.73996 30.7121C5.76139 30.7479 5.77863 30.7879 5.79662 30.8295C5.8092 30.8587 5.82214 30.8887 5.83713 30.9187C5.66698 30.9066 5.5819 30.8336 5.63056 30.7365ZM18.2694 35.7555V35.7191C18.3781 35.7076 18.4842 35.6962 18.5901 35.6847L18.5924 35.6845C18.7106 35.6717 18.8286 35.659 18.95 35.6463V35.6827C18.7191 35.7191 18.5003 35.7434 18.2694 35.7555ZM21.3319 35.4395C21.1816 35.4718 21.0217 35.4945 20.8692 35.5161C20.8491 35.519 20.8291 35.5218 20.8094 35.5246C20.7957 35.5274 20.7815 35.5325 20.7673 35.5377C20.7184 35.5555 20.6703 35.573 20.6514 35.4882C20.6393 35.4942 20.6272 35.4972 20.6151 35.5002C20.6029 35.5033 20.5907 35.5064 20.5784 35.5125C20.6146 35.6211 20.681 35.6132 20.7544 35.6046C20.8043 35.5987 20.8574 35.5924 20.9065 35.6219C20.7813 35.639 20.6587 35.6534 20.5376 35.6676C20.4001 35.6838 20.2645 35.6997 20.1289 35.7191V35.6948C20.1655 35.6887 20.2053 35.6826 20.245 35.6764L20.2456 35.6764C20.2846 35.6703 20.3237 35.6643 20.3598 35.6583V35.6219C20.2381 35.6097 20.1166 35.5976 19.9951 35.5976C19.9737 35.5976 19.9481 35.6144 19.9232 35.6307C19.9058 35.6421 19.8887 35.6534 19.8736 35.6583L19.8723 35.6587C19.8241 35.6707 19.7758 35.6827 19.7156 35.6827C19.6144 35.6886 19.5133 35.6916 19.4136 35.6946L19.4134 35.6946C19.3095 35.6977 19.2071 35.7008 19.1079 35.707C19.1019 35.707 19.0928 35.7039 19.0837 35.7009C19.0746 35.6978 19.0655 35.6948 19.0594 35.6948V35.6583C19.4497 35.6059 19.8371 35.5535 20.2245 35.501C20.6453 35.4441 21.066 35.3872 21.49 35.3303C21.496 35.3424 21.4991 35.3545 21.5021 35.3667C21.5051 35.3788 21.5081 35.391 21.5142 35.4031C21.4657 35.4031 21.4279 35.4139 21.3901 35.4247C21.3773 35.4283 21.3645 35.432 21.3513 35.4352C21.345 35.4368 21.3385 35.4382 21.3319 35.4395ZM21.5142 35.318C21.6441 35.3011 21.7688 35.2868 21.892 35.2726C22.0337 35.2564 22.1732 35.2403 22.3163 35.2209C21.7573 35.3788 21.5751 35.4031 21.5142 35.318ZM11.3555 10.1998L11.3556 10.1997C11.6072 9.85775 11.86 9.51397 12.108 9.16527C12.1686 9.08648 12.2232 9.00465 12.2778 8.9228C12.3326 8.84061 12.3874 8.7584 12.4483 8.67927C12.4732 8.64612 12.5036 8.62426 12.5397 8.59831C12.5566 8.58617 12.5748 8.57314 12.5942 8.55763L12.5819 8.53344C12.5965 8.51522 12.611 8.49811 12.6249 8.48177C12.6575 8.44351 12.6864 8.40948 12.7034 8.37538C12.7466 8.30642 12.7775 8.23129 12.8092 8.15437C12.8221 8.12291 12.8352 8.09116 12.8493 8.0594C12.8615 8.03507 12.8979 8.01088 12.8979 8.01088C13.0197 8.07165 13.0543 7.99566 13.0864 7.92525C13.0992 7.89724 13.1115 7.87011 13.1288 7.85282C13.2382 7.73132 13.3476 7.59758 13.4448 7.47608C13.4619 7.45334 13.4789 7.43125 13.4958 7.40937C13.5512 7.33775 13.6049 7.26822 13.6514 7.18443C13.6594 7.16019 13.646 7.12517 13.6325 7.09011C13.6258 7.0725 13.619 7.05487 13.615 7.0386H13.5785C13.5968 7.02643 13.615 7.01125 13.6332 6.99606C13.6514 6.98088 13.6696 6.96568 13.6878 6.95352C13.693 6.95352 13.696 6.95352 13.6987 6.95258C13.7023 6.95131 13.7052 6.94835 13.7121 6.94143L13.7158 6.936C13.7875 6.82841 13.8592 6.72101 13.931 6.62544C14.0768 6.43096 14.2347 6.23647 14.4049 6.06632L14.404 6.06838C14.38 6.12845 14.3559 6.18851 14.332 6.23647C14.3381 6.23647 14.3411 6.23953 14.3441 6.24259C14.3471 6.24565 14.3502 6.24871 14.3562 6.24871C14.4291 6.15147 14.5051 6.05728 14.5811 5.9631C14.657 5.86891 14.733 5.77473 14.8059 5.67749L14.8051 5.67668C14.7931 5.66485 14.7813 5.65316 14.7695 5.65316C14.7391 5.68354 14.7118 5.71391 14.6844 5.74429C14.6571 5.77466 14.6297 5.80504 14.5993 5.83541L14.5989 5.83501C14.5868 5.82305 14.5749 5.81122 14.5628 5.81122C14.6844 5.65316 14.8059 5.49524 14.9274 5.31285C14.9518 5.34941 14.9761 5.39793 15.0246 5.49524C15.0535 5.42298 15.0824 5.36363 15.1087 5.30954C15.1267 5.27258 15.1435 5.23806 15.1583 5.20358C15.1401 5.22179 15.1189 5.24 15.0976 5.25821C15.0763 5.27641 15.055 5.29464 15.0368 5.31285L15.0003 5.27643L15.2191 4.94835C15.3345 4.78425 15.45 4.61717 15.5654 4.45009C15.6809 4.28299 15.7963 4.11585 15.9118 3.95174C15.9493 3.89821 15.9915 3.8494 16.0332 3.80115C16.0862 3.73989 16.1384 3.67953 16.1791 3.61156C16.3205 3.32874 16.5121 3.08237 16.7035 2.83616C16.8247 2.68034 16.9458 2.52459 17.0541 2.35972C17.1 2.29574 17.1595 2.23855 17.2172 2.18303C17.2362 2.16484 17.2549 2.14682 17.2729 2.12881C17.3337 2.05597 17.3823 2.0803 17.431 2.14105C17.595 2.34764 17.7591 2.55728 17.9231 2.76693C18.0871 2.97656 18.2512 3.18618 18.4152 3.39275C18.4723 3.4641 18.5294 3.53478 18.5863 3.60526L18.5868 3.60583C18.7721 3.83531 18.9557 4.06266 19.1323 4.30414C19.272 4.49863 19.4088 4.69307 19.5455 4.88752L19.5458 4.88793C19.6824 5.08225 19.819 5.27656 19.9587 5.47091C20.2747 5.92049 20.5907 6.37021 20.8944 6.83202C21.1253 7.17216 21.35 7.51234 21.5748 7.85252L21.575 7.85282C21.7998 8.1931 22.0246 8.53337 22.2555 8.87362C22.3543 9.01832 22.4532 9.16198 22.5517 9.3052L22.5523 9.30608C22.7928 9.65583 23.0316 10.003 23.2642 10.3564H22.6444C22.4552 10.3523 22.2646 10.3443 22.0736 10.3362C21.6881 10.3199 21.3007 10.3035 20.9188 10.3198C20.3963 10.3444 19.8684 10.3907 19.3424 10.437C19.0853 10.4596 18.8286 10.4821 18.5733 10.5021C17.5889 10.5871 16.5923 10.5994 15.608 10.5994C15.3728 10.5994 15.1376 10.621 14.9024 10.6426C14.7851 10.6534 14.6679 10.6641 14.5507 10.6722L14.4844 10.676C14.0823 10.699 13.69 10.7215 13.2868 10.7331C12.7885 10.7573 12.3024 10.7695 11.8041 10.7816C11.6191 10.7897 11.4287 10.7871 11.233 10.7844C11.1331 10.783 11.0318 10.7816 10.9292 10.7816C11.0701 10.5879 11.2126 10.3942 11.3555 10.1998ZM24.8684 16.3719V16.4813C24.8661 16.4813 24.8639 16.4817 24.8616 16.4824C24.8587 16.4832 24.8557 16.4844 24.8524 16.4858C24.8441 16.4892 24.834 16.4934 24.8197 16.4934C24.8112 16.4638 24.8028 16.4338 24.7943 16.4035C24.7539 16.2601 24.7119 16.1114 24.6618 15.9708C24.5403 15.6184 24.4065 15.266 24.1879 14.95C24.0492 14.756 23.9186 14.5581 23.7868 14.3584L23.7867 14.3583C23.6874 14.2078 23.5874 14.0563 23.4829 13.9049C23.4371 13.8408 23.3776 13.7836 23.3198 13.7281C23.3009 13.7099 23.2822 13.692 23.2642 13.674C23.2472 13.6553 23.2302 13.6366 23.2131 13.6179L23.212 13.6166C22.9738 13.355 22.7314 13.0887 22.4257 12.8962C21.9396 12.5924 21.4413 12.3372 20.9065 12.1184C20.7607 12.0577 20.6271 11.9848 20.4813 11.8997H20.7729L22.8511 11.8633C23.0005 11.8592 23.1487 11.8565 23.2963 11.8538L23.2966 11.8538C23.593 11.8484 23.8877 11.843 24.1879 11.8267C24.2973 11.8267 24.358 11.8633 24.4188 11.9605L24.4225 11.9667C24.5307 12.1469 24.6388 12.3271 24.7589 12.5074C24.7612 12.5117 24.7638 12.5165 24.7665 12.5216C24.7792 12.5447 24.7955 12.5747 24.7955 12.6045C24.7955 12.8719 24.7955 13.1514 24.8076 13.4188C24.8137 13.5584 24.8228 13.6951 24.8319 13.8317L24.832 13.8323C24.841 13.9689 24.8501 14.1055 24.8563 14.2452C24.8563 14.3559 24.8524 14.4686 24.8486 14.5824C24.8427 14.7558 24.8367 14.9319 24.844 15.108C24.8563 15.5212 24.8684 15.9465 24.8684 16.3719ZM11.792 12.3008C12.0832 12.2884 12.3681 12.2728 12.6514 12.2573C12.9239 12.2424 13.195 12.2276 13.4691 12.2157C13.6891 12.2035 13.9121 12.1943 14.1351 12.1851C14.3557 12.1761 14.5762 12.167 14.7937 12.155L14.8035 12.1543C14.9822 12.1423 15.1495 12.1311 15.3285 12.155C15.134 12.2521 14.9397 12.3493 14.7695 12.4709C14.6472 12.5524 14.5288 12.649 14.4099 12.746C14.316 12.8226 14.2218 12.8995 14.1253 12.9692C13.9066 13.1271 13.7121 13.3216 13.5299 13.5282C13.3855 13.703 13.2315 13.8636 13.077 14.0247C12.9845 14.1212 12.8918 14.2179 12.8007 14.3181C12.744 14.383 12.6845 14.4465 12.625 14.51C12.5062 14.6369 12.3874 14.7637 12.2903 14.9014C12.1047 15.1416 11.9388 15.4013 11.7661 15.6718L11.7655 15.6727C11.7461 15.7031 11.7266 15.7336 11.707 15.7642C11.7127 15.6547 11.7186 15.5452 11.7245 15.4359C11.7805 14.3927 11.8361 13.3567 11.792 12.3008ZM19.7278 23.9917C19.6766 24.0045 19.6252 24.0175 19.5736 24.0305C19.2333 24.1166 18.8851 24.2046 18.5368 24.2469C18.2535 24.2874 17.9618 24.2857 17.6687 24.284C17.6097 24.2837 17.5507 24.2833 17.4917 24.2833C17.1757 24.2833 16.8718 24.2712 16.5559 24.2469C16.2035 24.2105 15.851 24.1739 15.5107 24.016C15.4023 23.9663 15.2923 23.9183 15.1818 23.8701C14.995 23.7886 14.8069 23.7066 14.6237 23.6149C14.332 23.4691 14.0402 23.2989 13.8215 23.0316C13.7063 22.8899 13.5589 22.7675 13.4122 22.6457C13.3576 22.6004 13.3031 22.5552 13.2503 22.5091C13.2261 22.4605 13.1988 22.4089 13.1714 22.3573L13.1713 22.3571C13.144 22.3055 13.1166 22.2539 13.0924 22.2053C12.9951 22.0472 12.8979 21.8771 12.8128 21.7192C12.8007 21.7009 12.7946 21.6827 12.7885 21.6645C12.7824 21.6462 12.7764 21.628 12.7642 21.6098L12.7625 21.6077C12.7023 21.5354 12.6422 21.4632 12.5942 21.3909C12.564 21.3457 12.5349 21.2993 12.5056 21.2524C12.4405 21.1482 12.3741 21.0419 12.2903 20.9414C12.2903 20.9583 12.2929 20.9752 12.2957 20.9933C12.2989 21.0142 12.3024 21.0368 12.3024 21.0629C12.2903 21.0629 12.2782 21.075 12.2782 21.075L12.023 20.4552C12.0107 20.4552 12.0107 20.4552 11.9986 20.4675L12.2174 21.2694C12.2113 21.2694 12.2052 21.2725 12.1992 21.2756C12.1931 21.2786 12.187 21.2817 12.1809 21.2817C12.1445 21.233 12.108 21.1844 12.0837 21.1236C12.0594 21.0264 11.9865 21.0264 11.9256 21.0629C11.8892 21.0872 11.8649 21.1723 11.8771 21.2087C11.9617 21.4142 12.0583 21.6196 12.155 21.8252L12.1565 21.8286C12.1809 21.9014 12.2052 21.9622 12.2416 22.0351C12.2458 22.0435 12.2528 22.0517 12.2602 22.0605C12.2745 22.0774 12.2903 22.0961 12.2903 22.1202C12.3044 22.1484 12.3175 22.1766 12.3304 22.2045C12.3621 22.2728 12.393 22.3392 12.4361 22.3996C12.4908 22.4726 12.5485 22.5455 12.6063 22.6184C12.664 22.6913 12.7217 22.7642 12.7764 22.8371C12.8549 22.9417 12.9271 23.0526 12.9975 23.1608C13.0252 23.2034 13.0527 23.2456 13.0802 23.2868C13.0877 23.3018 13.1043 23.3076 13.1189 23.3126C13.128 23.3157 13.1363 23.3186 13.1409 23.3233C13.2018 23.5055 13.4084 23.6393 13.5542 23.5664C13.5746 23.7228 13.6788 23.8222 13.7879 23.9262C13.8736 24.0081 13.9625 24.0928 14.016 24.2105C13.8702 24.1497 13.7608 24.1011 13.6635 24.0524C13.656 24.06 13.6532 24.0675 13.6492 24.0779C13.6468 24.0843 13.6439 24.0918 13.6393 24.1011C13.7851 24.1739 13.931 24.2469 14.0645 24.332C14.186 24.4048 14.3077 24.4778 14.417 24.5629C14.5629 24.6965 14.7329 24.7695 14.9397 24.8181C14.9274 24.7816 14.9153 24.7695 14.9153 24.7695C15.2555 24.9275 15.608 25.0975 15.8754 25.2313C14.6114 25.2556 13.2626 25.2799 11.8649 25.3041C11.8649 25.1887 11.8619 25.0763 11.8588 24.964C11.8558 24.8516 11.8528 24.7391 11.8528 24.6236C11.8528 24.5844 11.8568 24.5472 11.8607 24.5103C11.8665 24.4558 11.8722 24.4021 11.8649 24.3441C11.8528 24.1586 11.8447 23.9732 11.8367 23.7882C11.8205 23.4155 11.8043 23.0447 11.7556 22.6792C11.6826 22.0959 11.6826 21.5247 11.6949 20.9414C11.704 20.7029 11.6924 20.4576 11.6809 20.2158C11.6772 20.1372 11.6735 20.0588 11.6705 19.9813C11.6705 19.5559 11.6705 19.1428 11.6826 18.7174C11.6826 18.6655 11.7004 18.6224 11.7208 18.573C11.7242 18.5646 11.7278 18.5561 11.7313 18.5472H11.7677C11.7725 18.5569 11.7735 18.5684 11.7745 18.5795C11.7759 18.5966 11.7773 18.6128 11.792 18.6202C11.8285 18.6566 11.8892 18.7174 11.9135 18.7053C11.9299 18.6944 11.9481 18.6834 11.9668 18.6722C12.0313 18.6336 12.1013 18.5916 12.1201 18.5351C12.1809 18.3893 12.2052 18.2312 12.2052 18.0854C12.2052 17.9764 12.2537 17.9034 12.3021 17.8306L12.3024 17.8302C12.3181 17.8066 12.3288 17.7829 12.341 17.756C12.3477 17.7414 12.3547 17.7258 12.3633 17.7087C12.3426 17.6932 12.322 17.6799 12.3004 17.6661C12.2711 17.6473 12.2402 17.6273 12.2052 17.5994C12.2167 17.5677 12.2248 17.5347 12.2329 17.5018C12.259 17.3956 12.2848 17.2904 12.424 17.2348C12.4403 17.2266 12.4457 17.1968 12.451 17.1671C12.4537 17.1523 12.4564 17.1375 12.4604 17.1254C12.4665 17.0768 12.4726 17.0251 12.4786 16.9735C12.4847 16.9218 12.4908 16.8702 12.4969 16.8216C12.5212 16.858 12.5333 16.8701 12.5576 16.8944C12.5698 16.8701 12.5819 16.858 12.5819 16.858C12.5819 16.8418 12.5806 16.8202 12.5792 16.7986C12.5766 16.7554 12.5739 16.7122 12.5819 16.7122C12.6705 16.6974 12.6829 16.6333 12.6953 16.5689C12.7033 16.5273 12.7114 16.4856 12.74 16.457C12.747 16.4499 12.7417 16.4346 12.7361 16.4182C12.732 16.4065 12.7278 16.3942 12.7278 16.3841C12.7278 16.3598 12.7278 16.3232 12.74 16.3232C12.8411 16.3016 12.8735 16.2284 12.9062 16.1547C12.9284 16.1045 12.9508 16.054 12.9951 16.0195C13.0177 16.0044 13.0309 15.9848 13.0493 15.9576C13.0606 15.9408 13.0738 15.9212 13.0924 15.898C13.1545 16.0068 13.1074 16.0808 13.0621 16.1518C13.0366 16.1918 13.0117 16.2309 13.0073 16.2747C13.2139 16.1532 13.2747 15.8616 13.1532 15.7765C13.2018 15.7399 13.2503 15.6914 13.2868 15.6427C13.34 15.5847 13.3952 15.5285 13.45 15.4728C13.5328 15.3885 13.6147 15.3051 13.6878 15.2174C13.7303 15.1627 13.7638 15.1019 13.7972 15.0412C13.8306 14.9804 13.8641 14.9196 13.9066 14.865C13.9553 14.8042 14.0525 14.7555 14.1253 14.7191C14.3441 14.5976 14.5507 14.4639 14.6844 14.2573C14.7088 14.233 14.7452 14.2087 14.7816 14.1845C14.7959 14.1749 14.8157 14.1691 14.8354 14.1634C14.8659 14.1545 14.8957 14.1458 14.9031 14.1236C14.9153 14.0994 14.8788 14.0386 14.8544 14.0021C14.8746 13.992 14.8948 13.9777 14.9185 13.961C14.9518 13.9375 14.9921 13.909 15.0489 13.8806C15.0289 13.9207 15.0162 13.9534 15.0049 13.9828C14.9955 14.0069 14.987 14.0288 14.9761 14.0507L15.0368 14.1115C15.1081 14.056 15.2052 13.9955 15.2944 13.9398C15.3421 13.91 15.3876 13.8817 15.4257 13.8562C15.4257 13.8442 15.3649 13.7955 15.3649 13.7955C15.3435 13.8062 15.319 13.8191 15.2922 13.833C15.2278 13.8667 15.1505 13.9071 15.0733 13.9413C15.0865 13.9215 15.0925 13.9053 15.0972 13.8927C15.1012 13.8821 15.1042 13.874 15.1097 13.8685C15.2798 13.7591 15.45 13.6497 15.6322 13.5646C16.0576 13.3701 16.483 13.1758 16.9083 12.9934C16.9605 12.9673 17.0251 12.9724 17.0888 12.9773C17.1141 12.9793 17.1393 12.9813 17.1635 12.9813C17.1999 12.9813 17.2243 12.9813 17.2608 12.9692C17.4552 12.9084 17.6496 12.8477 17.8441 12.799C17.9292 12.7747 18.0264 12.7626 18.1115 12.7626C18.2325 12.7666 18.3535 12.7693 18.4746 12.772C18.7181 12.7774 18.9617 12.7828 19.2052 12.799C19.3632 12.8111 19.509 12.8477 19.6548 12.8962C19.8372 12.9569 20.0316 13.042 20.2017 13.1271C20.4083 13.2365 20.6028 13.358 20.7973 13.4917C20.9335 13.581 21.0661 13.6739 21.1979 13.7662C21.407 13.9127 21.614 14.0577 21.8301 14.1845C22.1705 14.391 22.4378 14.6705 22.6566 14.9865C22.7072 15.0577 22.759 15.1277 22.8108 15.1974C23.0324 15.4963 23.2508 15.7909 23.3493 16.1653L23.5316 16.9674C23.5415 17.0072 23.555 17.047 23.5688 17.0872C23.6054 17.1946 23.6431 17.3055 23.6166 17.4293C23.5628 17.6987 23.5184 17.9779 23.4752 18.2496L23.4655 18.3106C23.4632 18.3247 23.461 18.3388 23.4587 18.3529C23.4344 18.4744 23.4101 18.5959 23.4222 18.7174C23.4458 19.084 23.3083 19.4046 23.1665 19.7352L23.1548 19.7625C23.1276 19.8238 23.0927 19.8851 23.0566 19.9486C23.0283 19.9983 22.9993 20.0494 22.9726 20.1028C22.9847 20.1149 23.0577 20.1515 23.0698 20.1515L23.1792 19.9327C23.1843 19.9327 23.1872 19.9327 23.1898 19.9336C23.1934 19.9348 23.1964 19.9378 23.2035 19.9449C23.1731 20.03 23.1457 20.1181 23.1184 20.2063L23.1183 20.2065C23.091 20.2945 23.0637 20.3825 23.0333 20.4675C23.0198 20.5023 23.0063 20.5373 22.9928 20.5724C22.8602 20.916 22.7248 21.2668 22.5594 21.5977C22.501 21.7216 22.4165 21.8324 22.3319 21.9432C22.2755 22.0171 22.2191 22.091 22.1705 22.1687C22.1163 22.2446 22.067 22.3228 22.0182 22.4003C21.9575 22.4966 21.8976 22.5916 21.8301 22.6792C21.7209 22.8129 21.6115 22.9465 21.4656 23.0438C21.1374 23.2868 20.7973 23.5298 20.4448 23.7243C20.226 23.8581 19.9708 23.9309 19.7278 23.9917ZM13.2503 22.5091C13.2868 22.6549 13.3718 22.7764 13.5056 22.8615C13.4448 22.9344 13.3597 22.8979 13.2382 22.7035C13.2128 22.7205 13.1872 22.7315 13.1658 22.7408C13.1566 22.7448 13.1482 22.7484 13.1409 22.7521L13.1427 22.748C13.1786 22.6643 13.2145 22.5809 13.2503 22.5091ZM13.2503 23.3476L13.2382 23.3597C13.2326 23.3569 13.2263 23.3541 13.2196 23.3511C13.1976 23.3413 13.1718 23.3297 13.1532 23.3112L12.8615 22.8737C12.8372 22.8371 12.8251 22.8007 12.8372 22.7521C12.9708 22.9586 13.1045 23.1531 13.2503 23.3476ZM20.8094 25.0125C21.3562 24.7816 21.806 24.4535 22.2191 24.0767C22.2799 24.016 22.3406 23.9552 22.4136 23.9066C22.9239 23.5906 23.3007 23.1531 23.641 22.667C23.9065 22.2853 24.1097 21.8695 24.3125 21.4547C24.4067 21.262 24.5008 21.0695 24.601 20.8806C24.6253 20.832 24.6497 20.7833 24.674 20.7469C24.6497 22.1323 24.8076 23.4934 24.9899 24.8666C23.6166 24.9153 22.2191 24.9639 20.8094 25.0125ZM33.1323 24.648C33.1262 24.6601 33.1172 24.6721 33.1081 24.6842C33.0989 24.6964 33.0898 24.7086 33.0837 24.7208C33.0765 24.7066 33.0736 24.6883 33.0699 24.6659C33.0673 24.6498 33.0644 24.6317 33.0593 24.6115C33.004 24.7589 32.8999 24.7387 32.8051 24.7203C32.7748 24.7144 32.7455 24.7087 32.719 24.7087C32.0629 24.7208 31.3945 24.7208 30.7382 24.7208H30.7379C30.106 24.7208 29.462 24.7208 28.8302 24.733C28.7114 24.733 28.5886 24.7491 28.4664 24.765C28.3761 24.7768 28.286 24.7886 28.1982 24.7938C27.7 24.8181 27.2017 24.8302 26.7035 24.8423C26.6808 24.8423 26.6582 24.819 26.6299 24.7897C26.6125 24.7717 26.5929 24.7515 26.5698 24.733C26.5577 24.7574 26.5334 24.7938 26.4968 24.8423C26.49 24.8287 26.4793 24.8151 26.467 24.7993C26.4619 24.7928 26.4566 24.786 26.4511 24.7787C26.4462 24.772 26.4411 24.765 26.436 24.7574C26.4239 24.7938 26.4117 24.8302 26.3996 24.8545H26.3632C26.3548 24.7961 26.3436 24.739 26.3325 24.6825C26.3112 24.5744 26.2902 24.468 26.2902 24.3563C26.2902 24.1372 26.3034 23.9181 26.3165 23.6991C26.3253 23.5536 26.334 23.408 26.3389 23.2625C26.347 23.1486 26.3442 23.0402 26.3415 22.9336C26.3402 22.8809 26.3389 22.8286 26.3389 22.7764C26.3632 22.7947 26.3845 22.8098 26.4057 22.825C26.427 22.8402 26.4483 22.8554 26.4726 22.8737C26.4965 22.8256 26.5206 22.7894 26.5446 22.7533L26.5454 22.7521C26.5454 22.7521 26.5211 22.74 26.4968 22.7156C26.5211 22.7035 26.5454 22.6792 26.5454 22.6671C26.5502 22.6528 26.5569 22.6385 26.5632 22.6249C26.5729 22.6039 26.5819 22.5846 26.5819 22.5698C26.5819 22.511 26.5703 22.458 26.5591 22.4068C26.5541 22.3839 26.5492 22.3614 26.5454 22.3389C26.5577 22.3389 26.5698 22.3389 26.5819 22.3268L26.6549 22.6913H26.6913C26.6713 22.6563 26.6863 22.6233 26.7016 22.5899C26.7234 22.5421 26.7456 22.4933 26.6669 22.4361C26.6598 22.429 26.6653 22.4008 26.671 22.3714C26.6751 22.3508 26.6792 22.3296 26.6792 22.3146C26.6506 22.2573 26.6294 22.2 26.6039 22.1309L26.6039 22.1307C26.5969 22.112 26.5897 22.0923 26.5819 22.0716C26.5941 22.0595 26.6305 22.0472 26.6669 22.0351C26.6498 22.0265 26.6342 22.018 26.6195 22.0099C26.5926 21.9951 26.569 21.9822 26.5454 21.9743C26.6669 21.865 26.6669 21.8042 26.5577 21.6826C26.5669 21.678 26.5762 21.6751 26.5841 21.6727C26.5969 21.6687 26.6062 21.6659 26.6062 21.6584C26.6062 21.549 26.6062 21.4396 26.5819 21.3302C26.5756 21.2987 26.575 21.2657 26.5745 21.2326C26.5728 21.1381 26.5712 21.044 26.436 20.99C26.4386 20.9978 26.4412 21.005 26.4439 21.0118C26.4427 21.013 26.4413 21.0145 26.4396 21.0161C26.4418 21.0161 26.444 21.0165 26.4461 21.0172C26.4556 21.0404 26.4669 21.0605 26.4847 21.0872C26.4847 21.0872 26.4483 21.0993 26.4117 21.1236C26.3087 21.0285 26.3142 20.9127 26.3204 20.7829C26.3237 20.7138 26.3272 20.6407 26.3145 20.5646C26.3984 20.5886 26.4586 20.6126 26.5185 20.6364L26.5211 20.6375C26.5088 20.5946 26.4872 20.5485 26.4642 20.4993C26.4416 20.4511 26.4176 20.4 26.3996 20.3458H26.351V19.5438C26.351 19.5507 26.3786 19.5537 26.4114 19.5572C26.4361 19.5599 26.4638 19.5628 26.4847 19.568C26.4847 19.562 26.4877 19.556 26.4907 19.5499C26.4938 19.5438 26.4968 19.5377 26.4968 19.5316C26.4775 19.5058 26.4548 19.4801 26.4304 19.4525C26.4088 19.4281 26.386 19.4022 26.3632 19.3737L26.3875 19.3493C26.3073 19.2492 26.3263 19.1159 26.3354 19.0518C26.3374 19.0382 26.3389 19.0277 26.3389 19.0213V18.1705C26.3945 18.2262 26.3864 18.2895 26.3789 18.3488C26.3699 18.4189 26.3616 18.4834 26.4604 18.5229V18.4014H26.4483C26.4421 18.3097 26.4391 18.218 26.436 18.1264C26.433 18.0358 26.43 17.9451 26.4239 17.8545H26.3996C26.3936 17.8665 26.3906 17.8756 26.3876 17.8846C26.3845 17.8938 26.3815 17.903 26.3753 17.9153H26.351C26.3753 16.9552 26.3996 15.9952 26.4239 15.0108C26.4573 15.0542 26.4916 15.0967 26.5255 15.1387C26.6152 15.2498 26.7025 15.358 26.7643 15.4726C26.9785 15.864 27.2428 16.2124 27.5079 16.5618C27.5885 16.6682 27.6692 16.7746 27.7486 16.8824C27.9685 17.1848 28.1746 17.5079 28.3773 17.8256C28.4434 17.9293 28.5092 18.0324 28.575 18.1341C28.7387 18.3827 28.8993 18.6313 29.06 18.8799C29.2214 19.1295 29.3828 19.3792 29.5472 19.6289C29.7902 20.0056 30.0455 20.3824 30.3007 20.7469C30.5316 21.075 30.7746 21.3909 31.0177 21.7069C31.1214 21.8472 31.2282 21.9876 31.3349 22.1279L31.3351 22.1281C31.4409 22.2673 31.5468 22.4064 31.6496 22.5455L31.6613 22.5619C31.9005 22.8967 32.1396 23.2314 32.3789 23.5542C32.5004 23.7243 32.634 23.8945 32.7677 24.0646C32.8234 24.139 32.9006 24.1992 32.9664 24.2506C32.9866 24.2663 33.0058 24.2813 33.0229 24.2956C33.0107 24.2956 32.9986 24.2956 32.9743 24.2833C32.9838 24.2961 32.9925 24.308 33.0006 24.319C33.0234 24.3502 33.0414 24.3748 33.0593 24.3927C33.1931 24.4656 33.2052 24.5386 33.1323 24.648ZM33.7521 21.6098V21.5247C33.7521 21.5324 33.7533 21.5413 33.7546 21.5507C33.7573 21.5709 33.7603 21.5931 33.7521 21.6098ZM34.1652 16.2504C34.1531 16.2504 34.0801 16.1774 34.0681 16.1653C34.0631 16.1801 34.0621 16.1949 34.0612 16.2105C34.0597 16.2333 34.0582 16.2579 34.0437 16.2868C34.0378 16.269 34.0145 16.2628 33.9922 16.2569C33.9688 16.2506 33.9465 16.2447 33.9465 16.2261C33.9404 16.3112 33.9587 16.3963 33.9769 16.4815C33.9951 16.5665 34.0133 16.6515 34.0073 16.7365C34.023 16.7261 34.0589 16.7178 34.0976 16.709C34.1489 16.6972 34.2052 16.6843 34.226 16.6635C34.2382 16.6758 34.2624 16.6879 34.2746 16.6879C34.0316 16.8701 34.0924 17.0525 34.2016 17.2591C34.2048 17.2653 34.2087 17.2723 34.2129 17.28C34.2422 17.3325 34.2896 17.4174 34.226 17.5021C34.2092 17.5189 34.2214 17.5588 34.2345 17.6019C34.2404 17.6213 34.2465 17.6413 34.2503 17.6602H34.2867V17.6843L34.1775 17.7209C34.1688 17.7078 34.1446 17.6901 34.117 17.67C34.0675 17.6338 34.0073 17.5898 34.0073 17.5507V18.1705C34.0906 18.1955 34.1168 18.2833 34.1407 18.3634C34.1517 18.4002 34.1622 18.4354 34.1775 18.4621C34.2016 18.4257 34.2139 18.4014 34.226 18.365L34.2382 18.3771L34.2378 18.3792C34.2257 18.4515 34.2136 18.5236 34.1895 18.5959C34.1858 18.6129 34.182 18.6297 34.1782 18.6462C34.1579 18.7359 34.139 18.8195 34.1288 18.9119C34.1288 18.9179 34.1349 18.927 34.141 18.9361C34.147 18.9452 34.1531 18.9543 34.1531 18.9604C34.0689 19.1517 34.0667 19.3574 34.0644 19.5624C34.0631 19.6831 34.0617 19.8035 34.0437 19.9206C34.0239 20.0463 34.0257 20.1757 34.0275 20.3067C34.0289 20.4162 34.0305 20.5268 34.0194 20.6375C33.9951 20.8442 33.9465 21.0629 33.8979 21.2694C33.8858 21.3059 33.8615 21.3181 33.8007 21.3424C33.8249 21.1966 33.8128 21.0993 33.7885 20.9657C33.7824 20.9657 33.7399 20.9444 33.6974 20.9232C33.6548 20.9019 33.6123 20.8806 33.6062 20.8806C33.6062 20.9851 33.6429 21.1125 33.6796 21.2403C33.7027 21.3206 33.7259 21.401 33.74 21.476C33.721 21.4698 33.6728 21.4439 33.629 21.4205C33.5883 21.3986 33.5513 21.3788 33.5455 21.3788C33.5295 21.4749 33.524 21.592 33.5187 21.7058C33.5159 21.7649 33.5132 21.8231 33.5091 21.8771C33.5031 21.936 33.4743 21.9921 33.4449 22.0495C33.4136 22.1104 33.3816 22.1728 33.3753 22.2417C33.3753 22.272 33.3901 22.2982 33.4064 22.3271C33.4293 22.3677 33.4553 22.4138 33.4482 22.4847H33.5455C33.5455 22.3647 33.5722 22.2506 33.5992 22.1351C33.6269 22.0167 33.6549 21.8969 33.6549 21.7677H33.6913C33.696 21.7772 33.7045 21.7867 33.7124 21.7955C33.7246 21.8092 33.7352 21.8211 33.7277 21.8286C33.7212 21.8647 33.7128 21.9017 33.7044 21.9391C33.6816 22.0401 33.6582 22.1441 33.667 22.2417C33.667 22.2712 33.677 22.3008 33.6872 22.3311C33.7022 22.3757 33.7179 22.422 33.7034 22.4726C33.6791 22.5455 33.667 22.6185 33.6549 22.7277C33.6502 22.7047 33.6456 22.6869 33.6417 22.6717C33.6352 22.6468 33.6306 22.6289 33.6306 22.6062C33.6265 22.6062 33.6121 22.6049 33.594 22.6032C33.5845 22.6023 33.5741 22.6012 33.5637 22.6002C33.5463 22.5984 33.5289 22.5967 33.5161 22.5955C33.5065 22.5947 33.4994 22.5941 33.4968 22.5941C33.4906 22.6318 33.5136 22.6696 33.5355 22.7056C33.556 22.7392 33.5756 22.7714 33.5698 22.8007C33.5622 22.8083 33.5547 22.8112 33.5442 22.8152C33.5378 22.8176 33.5304 22.8205 33.5212 22.825L33.1201 22.2417L33.1196 22.241L33.1195 22.2408C32.8037 21.7793 32.4879 21.3178 32.1721 20.8442C32.0871 20.7225 32.0142 20.601 31.9535 20.4795C31.5767 19.8355 31.1636 19.2156 30.7018 18.6202C30.4795 18.3367 30.2864 18.0388 30.0917 17.7386C29.9776 17.5625 29.8629 17.3856 29.7416 17.2104C29.5897 16.9856 29.4378 16.7638 29.2859 16.542C29.134 16.3202 28.9821 16.0984 28.8302 15.8737C28.7889 15.8186 28.7441 15.7652 28.6991 15.7117C28.6251 15.6234 28.5504 15.5344 28.4899 15.4362C28.3319 15.1871 28.183 14.9349 28.0342 14.6827C27.8854 14.4306 27.7365 14.1783 27.5785 13.9292C27.3842 13.6288 27.1769 13.3349 26.9709 13.0428C26.8935 12.933 26.8162 12.8235 26.7399 12.7139C26.6428 12.5802 26.5454 12.4344 26.4483 12.2886C26.436 12.2642 26.4239 12.2399 26.4239 12.2035C26.3996 11.9362 26.3753 11.6688 26.3632 11.4136C26.3632 11.2935 26.3691 11.1734 26.3751 11.0519C26.3813 10.9274 26.3875 10.8013 26.3875 10.6722V10.4535C26.3875 10.4232 26.3906 10.3958 26.3936 10.3685C26.3966 10.3411 26.3996 10.3138 26.3996 10.2834C26.4057 10.2773 26.4117 10.2682 26.4178 10.2591C26.4239 10.25 26.43 10.2408 26.436 10.2347C26.319 10.2347 26.2007 10.2334 26.0819 10.2321C25.8429 10.2294 25.6021 10.2267 25.3666 10.2347C25.1358 10.247 25.0142 10.1496 24.8563 9.97963C24.5484 9.63124 24.2946 9.25054 24.0408 8.86985L24.0407 8.86973C23.9137 8.67931 23.7868 8.4889 23.6531 8.30254C23.2763 7.76774 22.8875 7.24518 22.4985 6.72261C22.3394 6.50832 22.1803 6.29714 22.0211 6.08593C21.8643 5.87786 21.7075 5.66978 21.5507 5.45868C21.4332 5.29656 21.317 5.13444 21.2008 4.9723L21.2004 4.97184C20.9684 4.64805 20.7363 4.32422 20.4934 4.00039C20.0559 3.41708 19.6063 2.83377 19.1566 2.25045C19.0274 2.08316 18.8886 1.92071 18.7464 1.75408C18.6612 1.65433 18.5747 1.55301 18.4882 1.44833C18.5092 1.45157 18.53 1.45481 18.5506 1.45801C18.6849 1.47892 18.8114 1.49859 18.9379 1.50908L19.5212 1.5455C19.6319 1.55475 19.7425 1.5632 19.8531 1.57165C20.18 1.59663 20.5068 1.62161 20.8337 1.667C21.0629 1.69759 21.2921 1.7378 21.5244 1.77854C21.6615 1.80259 21.7997 1.82684 21.9396 1.84939C22.7417 1.98298 23.5316 2.2018 24.2973 2.45703C24.6635 2.57582 25.0217 2.72689 25.3784 2.87734C25.4596 2.91157 25.5407 2.94582 25.6218 2.9796C26.6062 3.38066 27.5421 3.86666 28.4655 4.37713C28.6835 4.49508 28.8335 4.66732 28.9866 4.84316C29.0385 4.90275 29.0908 4.96275 29.1462 5.02119L29.1515 5.02671C29.4657 5.35309 29.7798 5.6794 30.0819 6.0178C30.3427 6.31465 30.5903 6.61812 30.8393 6.92331C30.9267 7.03045 31.0143 7.13783 31.1027 7.24518C31.2538 7.42646 31.4078 7.60771 31.5619 7.78896C31.7177 7.97226 31.8736 8.15563 32.0263 8.33896C32.0912 8.41189 32.1452 8.49556 32.1992 8.57924C32.2262 8.62109 32.2532 8.66296 32.2815 8.70346C32.3411 8.79274 32.4029 8.88089 32.4649 8.96929C32.6054 9.16969 32.7468 9.37141 32.8649 9.59066C32.9609 9.773 33.0265 9.97804 33.0918 10.1819C33.1092 10.2362 33.1265 10.2904 33.1444 10.3441C33.2063 10.5359 33.2681 10.7246 33.33 10.9133C33.3897 11.0953 33.4493 11.2773 33.5091 11.4622C33.594 11.7417 33.667 12.0333 33.7277 12.325C33.7499 12.4136 33.7594 12.5047 33.769 12.5961C33.7804 12.7052 33.7918 12.8147 33.8249 12.9205C33.8614 13.0481 33.8614 13.1818 33.8614 13.3155C33.8614 13.4491 33.8614 13.5828 33.8979 13.7104C33.9039 13.7226 33.91 13.7378 33.9161 13.753C33.9222 13.7681 33.9283 13.7833 33.9343 13.7955C33.983 13.8442 34.0194 13.8927 33.9465 13.9657C33.9343 13.9777 33.9343 14.0264 33.9465 14.0628C33.9643 14.045 33.9757 14.0272 33.9901 14.0044C33.9953 13.9963 34.0009 13.9874 34.0073 13.9777C34.0073 13.992 34.0115 14.0021 34.0149 14.0105C34.0173 14.0164 34.0194 14.0214 34.0194 14.0264C34.0194 14.0426 34.018 14.0588 34.0167 14.075C34.014 14.1074 34.0113 14.1398 34.0194 14.1722C34.0194 14.1907 34.0335 14.2162 34.0455 14.2381C34.0493 14.245 34.0529 14.2515 34.0558 14.2573C34.0709 14.2423 34.0859 14.2319 34.1067 14.2176C34.1142 14.2124 34.1225 14.2067 34.1318 14.2C34.1384 14.1953 34.1455 14.1902 34.1531 14.1845C34.2624 14.5976 34.2746 15.0108 34.2746 15.4362C34.2746 15.5289 34.2785 15.6215 34.2824 15.7141C34.2953 16.0219 34.3082 16.3281 34.1775 16.6271C34.1958 16.5596 34.1833 16.4952 34.171 16.4323C34.1589 16.3707 34.1472 16.3105 34.1652 16.2504Z" fill="#DD3735"/>
<path d="M28.3597 33.0231C28.2261 33.1203 28.0924 33.2054 27.9222 33.2418C27.9162 33.2358 27.9132 33.2297 27.9102 33.2237C27.9071 33.2176 27.904 33.2115 27.8979 33.2054C27.9648 33.1628 28.0347 33.1203 28.1046 33.0777C28.1745 33.0352 28.2443 32.9927 28.3112 32.9501C28.3172 32.9623 28.3263 32.9745 28.3354 32.9866C28.3446 32.9988 28.3537 33.011 28.3597 33.0231Z" fill="#DD3735"/>
<path d="M5.57337 16.5561C5.70697 16.3859 5.8407 16.2158 5.98653 16.0457C5.99258 16.0518 6.01993 16.0609 6.04728 16.07C6.07463 16.0791 6.10198 16.0882 6.10803 16.0943L6.07018 16.1424C5.94145 16.3063 5.77981 16.512 5.65845 16.6776C5.64786 16.667 5.63498 16.645 5.62181 16.6224C5.60471 16.5931 5.58711 16.563 5.57337 16.5561Z" fill="#DD3735"/>
<path d="M1.9744 22.1912L1.97432 22.191C1.92632 22.086 1.87834 21.981 1.83035 21.879C1.84245 21.8669 1.92753 21.8304 1.93962 21.8304C2.02721 21.9577 2.0835 22.1007 2.13921 22.2423C2.16856 22.3169 2.19775 22.3911 2.23128 22.4623C2.23128 22.4623 2.1341 22.511 2.12201 22.511C2.07278 22.4065 2.02358 22.2988 1.9744 22.1912Z" fill="#DD3735"/>
<path d="M5.22097 16.6776C5.18447 16.7323 5.14802 16.79 5.11156 16.8477C5.0751 16.9055 5.03865 16.9632 5.00215 17.0179C4.99612 17.0118 4.95981 17.0239 4.92343 17.0361C4.88689 17.0482 4.85029 17.0604 4.84423 17.0543C4.88066 16.9997 4.94447 16.9237 5.00828 16.8477C5.07205 16.7718 5.13583 16.6958 5.17231 16.6411C5.1844 16.6534 5.19664 16.6655 5.22097 16.6776Z" fill="#DD3735"/>
<path d="M27.0593 33.5214C27.0655 33.5214 27.0685 33.5183 27.0716 33.5152C27.0746 33.5122 27.0776 33.5091 27.0837 33.5091C27.1687 33.5214 27.2661 33.5335 27.3632 33.5335C27.2052 33.6429 27.108 33.6308 27.0593 33.5214Z" fill="#DD3735"/>
<path d="M5.24515 17.188C5.25734 17.1518 5.28153 17.1153 5.30562 17.0791L5.3059 17.0786C5.33023 17.0786 5.3668 17.0665 5.3668 17.0665C5.38981 17.0262 5.40191 16.9913 5.41346 16.958C5.42626 16.9211 5.43839 16.8861 5.46397 16.8477C5.45795 16.8417 5.45191 16.8387 5.44586 16.8357C5.43974 16.8326 5.43363 16.8295 5.42755 16.8234C5.39107 16.8477 5.35462 16.8751 5.31818 16.9024C5.28173 16.9297 5.24521 16.9571 5.20873 16.9815C5.23306 17.0058 5.23306 17.0179 5.23306 17.0422C5.13589 17.0301 5.09933 17.0786 5.05081 17.2124C5.04369 17.2336 5.0201 17.2465 4.98965 17.2633C4.96781 17.2753 4.94245 17.2892 4.91708 17.3095C4.91143 17.3209 4.90576 17.3402 4.89885 17.3637C4.89094 17.3905 4.8814 17.423 4.86842 17.4554L4.88065 17.4676C4.85633 17.4918 4.8199 17.504 4.8199 17.504C4.78351 17.5403 4.74411 17.5737 4.70471 17.607C4.66511 17.6406 4.62552 17.6741 4.589 17.7106C4.57676 17.747 4.56467 17.7836 4.56467 17.82C4.59043 17.7942 4.62176 17.7618 4.65596 17.7264C4.73471 17.6448 4.82871 17.5474 4.90498 17.4797L4.91708 17.4918C4.9414 17.4554 4.96267 17.4189 4.98394 17.3825C5.00521 17.346 5.02649 17.3095 5.05081 17.2731C5.05682 17.2791 5.05985 17.2852 5.06287 17.2912C5.06593 17.2973 5.06899 17.3035 5.07514 17.3095C5.05646 17.3592 5.03782 17.412 5.0192 17.4648C5.00137 17.5153 4.98355 17.5658 4.96573 17.6134C4.95955 17.6165 4.9526 17.6204 4.94565 17.6242C4.92526 17.6355 4.90498 17.6468 4.90498 17.6378C4.88058 17.656 4.85926 17.6773 4.83793 17.6986C4.81672 17.7198 4.79551 17.741 4.77125 17.7593L4.55258 17.9051C4.45078 17.9966 4.34909 18.0796 4.24032 18.1684C4.21912 18.1857 4.19763 18.2032 4.17584 18.2211C4.14173 18.2746 4.10762 18.3262 4.07273 18.379L4.07264 18.3792C4.02052 18.458 3.96664 18.5396 3.90837 18.6342C4.0542 18.5978 4.09076 18.6586 4.07853 18.7801C4.21672 18.7998 4.25066 18.7153 4.28459 18.6308C4.29244 18.6113 4.30029 18.5917 4.30943 18.5735C4.31271 18.567 4.31598 18.5587 4.31947 18.5499C4.32902 18.5257 4.34028 18.4973 4.35809 18.4884C4.42762 18.4266 4.50204 18.3698 4.57824 18.3115C4.62194 18.2781 4.66622 18.2443 4.7105 18.2088C4.73483 18.1845 4.73483 18.136 4.73483 18.0994C4.73483 18.0925 4.71486 18.0895 4.69095 18.086C4.67316 18.0834 4.65319 18.0804 4.63765 18.0752C4.71044 17.9942 4.80489 17.8755 4.89218 17.7657C4.9359 17.7108 4.97788 17.658 5.01439 17.6134C5.07514 17.5769 5.13589 17.5284 5.13589 17.4918C5.1255 17.3784 5.18525 17.335 5.26299 17.2947C5.20716 17.5598 5.04391 17.7855 4.88066 17.8321L4.881 17.8323C4.92954 17.8565 4.97792 17.8807 5.01439 17.8685C5.04149 17.8595 5.06189 17.8236 5.08052 17.7908C5.08693 17.7795 5.09314 17.7686 5.09933 17.7592L5.42755 17.2852L5.53696 17.1029L5.4883 17.0543C5.46397 17.0968 5.43968 17.1363 5.41539 17.1759C5.39109 17.2154 5.3668 17.2549 5.34247 17.2974L5.29991 17.2761L5.3059 17.2731C5.25739 17.2367 5.24515 17.2001 5.24515 17.188Z" fill="#DD3735"/>
<path d="M1.52967 22.395C1.49936 22.3921 1.47037 22.3893 1.44139 22.3893C1.4293 22.4016 1.47781 22.4744 1.49005 22.4866H1.74528C1.74528 22.4563 1.74222 22.4289 1.73917 22.4016C1.73611 22.3742 1.73305 22.3469 1.73305 22.3165H1.69663C1.69663 22.3408 1.68144 22.3499 1.66625 22.359C1.65106 22.3681 1.63588 22.3772 1.63588 22.4016C1.59771 22.4016 1.56289 22.3982 1.52967 22.395Z" fill="#DD3735"/>
<path d="M1.30895 21.7991C1.32138 21.8095 1.3338 21.8199 1.34422 21.8303C1.34422 21.8182 1.35631 21.806 1.36855 21.7939C1.35631 21.7511 1.34714 21.7114 1.33796 21.6717C1.32889 21.6324 1.31982 21.5931 1.3078 21.5509C1.27124 21.6117 1.23481 21.6724 1.24691 21.7209C1.24691 21.747 1.27794 21.7731 1.30895 21.7991Z" fill="#DD3735"/>
<path d="M1.72164 21.2428C1.6971 21.1784 1.67253 21.1139 1.64797 21.0525C1.62364 21.0525 1.5508 21.0891 1.5387 21.1012C1.56321 21.1626 1.59083 21.2271 1.61844 21.2915C1.6455 21.3547 1.67254 21.4178 1.69663 21.4779C1.70872 21.4658 1.7817 21.4293 1.7938 21.4293C1.76978 21.3691 1.74572 21.306 1.72164 21.2428Z" fill="#DD3735"/>
<path d="M28.8485 32.6294C28.7904 32.6427 28.7423 32.6538 28.7 32.6707V32.6706C28.688 32.6946 28.6759 32.7157 28.6639 32.7368C28.6516 32.7583 28.6394 32.7797 28.6272 32.8043C28.6393 32.8043 28.6514 32.8164 28.6636 32.8286C28.7213 32.7708 28.7867 32.7207 28.8658 32.66C28.8865 32.6441 28.9082 32.6275 28.9309 32.6098C28.9013 32.6172 28.8739 32.6235 28.8485 32.6294Z" fill="#DD3735"/>
</g>
<defs>
<clipPath id="clip0_202_16037">
<rect width="37" height="36" fill="white"/>
</clipPath>
</defs>
</svg>
