<svg width="37" height="36" viewBox="0 0 37 36" fill="none" xmlns="http://www.w3.org/2000/svg">
<g clip-path="url(#clip0_202_8665)">
<path d="M2.35002 19.1135L0.00219727 11.1309L7.35872 0.643921L21.6022 19.1135H2.35002Z" fill="#468BCC"/>
<path d="M0.00219727 11.1309L7.35872 0.643921L18.0022 3.93088L21.6022 19.1135L0.00219727 11.1309Z" fill="#4BA8FF"/>
<path d="M7.35864 0.643921L18.0021 3.93088L28.6456 0.643921L21.6021 19.1135L7.35864 0.643921Z" fill="#468BCC"/>
<path d="M18.0022 3.93088L28.6457 0.643921L36.0022 11.1309L21.6022 19.1135L18.0022 3.93088Z" fill="#468BCC"/>
<path d="M28.6458 0.643921L36.0023 11.1309L33.6545 19.1135H21.6023L28.6458 0.643921Z" fill="#4BA8FF"/>
<path d="M36.0022 11.1309L33.6544 19.1135L18.0022 32.8874L21.6022 19.1135L36.0022 11.1309Z" fill="#468BCC"/>
<path d="M33.6544 19.1135L18.0023 32.8874L2.3501 19.1135H21.6023H33.6544Z" fill="#468BCC"/>
<path d="M18.0022 32.8874L2.35002 19.1135L0.00219727 11.1309L21.6022 19.1135L18.0022 32.8874Z" fill="#468BCC"/>
<path d="M2.35002 19.1135L0.00219727 11.1309L21.6022 19.1135H2.35002Z" fill="#468BCC"/>
<path d="M10.9588 23.0265L13.6196 24.7482L9.39355 28.0352L10.9588 23.0265Z" fill="white"/>
<path d="M10.8391 22.9892L9.27392 27.9979C9.23732 28.115 9.37348 28.2094 9.47031 28.1341L13.6964 24.8471C13.7644 24.7942 13.7599 24.69 13.6875 24.6431L11.0267 22.9214C10.9571 22.8764 10.8638 22.9101 10.8391 22.9892ZM11.029 23.2212L13.4035 24.7576L9.63222 27.6908L11.029 23.2212Z" fill="#082744"/>
<path d="M25.0456 23.0265L22.3848 24.7482L26.6109 28.0352L25.0456 23.0265Z" fill="white"/>
<path d="M24.9776 22.9214L22.3167 24.6431C22.2444 24.69 22.2398 24.7942 22.3079 24.8471L26.534 28.1341C26.6308 28.2094 26.7669 28.115 26.7303 27.9979L25.1651 22.9892C25.1404 22.9101 25.0471 22.8764 24.9776 22.9214ZM24.9752 23.2212L26.372 27.6908L22.6007 24.7576L24.9752 23.2212Z" fill="#082744"/>
<path d="M9.39355 9.25266L14.5588 2.86658H21.4457L18.0023 13.9483L9.39355 9.25266Z" fill="#4BA8FF"/>
<path d="M14.5588 2.86658H21.4458L26.611 9.25266L18.0023 13.9483L14.5588 2.86658Z" fill="#468BCC"/>
<path d="M21.4457 2.86658L26.6109 9.25266V22.557L18.0022 13.9483L21.4457 2.86658Z" fill="#166EBF"/>
<path d="M26.6109 9.25256V22.5569L21.4457 26.0004L18.0022 13.9482L26.6109 9.25256Z" fill="#0B457F"/>
<path d="M26.6109 22.5569L21.4457 26.0004L18.0022 35.2352V13.9482L26.6109 22.5569Z" fill="#0C3861"/>
<path d="M21.4458 26.0004V33.5135L18.0023 35.2352L14.5588 26.0004L18.0023 13.9482L21.4458 26.0004Z" fill="#166EBF"/>
<path d="M18.0023 35.2352L14.5588 33.5135V26.0004L9.39355 22.5569L18.0023 13.9482V35.2352Z" fill="#4BA8FF"/>
<path d="M14.5588 26.0004L9.39355 22.5569V9.25256L18.0023 13.9482L14.5588 26.0004Z" fill="#166EBF"/>
<path d="M9.39355 22.5569V9.25256L18.0023 13.9482L9.39355 22.5569Z" fill="#468BCC"/>
<path d="M21.4457 2.74133H14.5587C14.5209 2.74133 14.4852 2.75841 14.4614 2.78781L9.29617 9.17389C9.27814 9.19618 9.26831 9.22397 9.26831 9.25264V22.557L9.26853 22.5643C9.27082 22.6034 9.29128 22.6393 9.32407 22.6612L14.4335 26.0675V33.5135C14.4335 33.5609 14.4603 33.6043 14.5027 33.6255L17.9462 35.3472C17.9815 35.3649 18.023 35.3649 18.0582 35.3472L21.5017 33.6255L21.5077 33.6223C21.5466 33.6002 21.5709 33.5587 21.5709 33.5135V26.0675L26.6804 22.6612C26.7152 22.6379 26.7361 22.5989 26.7361 22.557V9.25264C26.7361 9.22397 26.7263 9.19618 26.7083 9.17389L21.5431 2.78781C21.5193 2.75841 21.4835 2.74133 21.4457 2.74133ZM21.3859 2.99177L26.4857 9.29696V22.4899L21.3762 25.8963L21.3702 25.9005C21.339 25.9241 21.3205 25.9611 21.3205 26.0005V33.4361L18.0022 35.0953L14.684 33.4361V26.0005L14.6837 25.9931C14.6815 25.9541 14.661 25.9181 14.6282 25.8963L9.51875 22.49V9.29693L14.6185 2.99177H21.3859Z" fill="#082744"/>
<path d="M11.2717 12.8527L15.3413 14.1048L11.2717 15.6701V12.8527Z" fill="white"/>
<path d="M24.7327 12.8527L20.6631 14.1048L24.7327 15.6701V12.8527Z" fill="white"/>
</g>
<defs>
<clipPath id="clip0_202_8665">
<rect width="37" height="36" fill="white"/>
</clipPath>
</defs>
</svg>
