<svg width="36" height="37" viewBox="0 0 36 37" fill="none" xmlns="http://www.w3.org/2000/svg">
<g clip-path="url(#clip0_202_15174)">
<path d="M35.369 21.5679C35.1592 20.9324 34.6094 20.4896 33.8984 20.3833C33.5631 20.3333 33.1792 20.3546 32.7249 20.4483C31.933 20.6117 31.3455 20.6739 30.9167 20.686C32.5351 17.9535 33.8511 14.8374 34.6087 11.9042C35.8337 7.16136 35.1791 5.00069 34.4141 4.0233C32.3896 1.43654 29.436 0.0468003 25.8724 0.00419956C23.9717 -0.0190005 22.3028 0.356322 21.4324 0.626154C20.6218 0.483235 19.7502 0.403369 18.8357 0.388576C17.1218 0.361253 15.6072 0.734879 14.3131 1.50282C13.5965 1.26064 12.4468 0.919104 11.1189 0.701089C7.99567 0.188345 5.47859 0.587918 3.63747 1.88857C1.408 3.46343 0.37443 6.19957 0.565608 10.0211C0.626235 11.2345 1.30502 14.926 2.37367 18.4271C2.98787 20.4394 3.6428 22.1105 4.32029 23.3943C5.28103 25.2148 6.30902 26.287 7.46312 26.6719C8.11006 26.8875 9.28533 27.0384 10.5216 26.009C10.6782 26.1986 10.8872 26.3872 11.1647 26.5623C11.517 26.7845 11.9478 26.9661 12.378 27.0737C13.9287 27.4614 15.3812 27.3644 16.6203 26.8211C16.6279 27.0414 16.6338 27.252 16.6388 27.4338C16.6471 27.7288 16.6552 28.0179 16.666 28.2883C16.7394 30.117 16.8638 31.5388 17.2324 32.5336C17.2526 32.5884 17.2799 32.6717 17.3087 32.7601C17.4925 33.3232 17.8001 34.2658 18.5823 35.004C19.3925 35.7687 20.3724 36.0033 21.2699 36.0032C21.72 36.0032 22.1495 35.9442 22.5261 35.8634C23.8688 35.5757 25.3937 35.1373 26.4968 33.5666C27.5397 32.0817 28.0467 29.8453 28.1385 26.3213C28.1503 26.2217 28.1613 26.1266 28.1719 26.0359C28.179 25.9747 28.1863 25.9121 28.1937 25.8497L28.4394 25.8713L28.5027 25.8756C29.8703 25.9379 31.5425 25.6479 32.5694 25.1709C33.3809 24.7943 35.9813 23.4215 35.369 21.5679Z" fill="black"/>
<path d="M33.0307 21.9284C28.9644 22.7672 28.6849 21.3905 28.6849 21.3905C32.9782 15.0199 34.7729 6.93345 33.2241 4.95434C28.9988 -0.44431 21.6846 2.1089 21.5625 2.17519L21.5232 2.18222C20.7199 2.01546 19.8208 1.91611 18.8103 1.89962C16.9704 1.86947 15.5748 2.38197 14.5158 3.18508C14.5158 3.18508 1.46789 -2.19013 2.07473 9.94541C2.20382 12.5272 5.77509 29.4801 10.0348 24.3595C11.5917 22.4871 13.0959 20.9039 13.0959 20.9039C13.8431 21.4002 14.7376 21.6534 15.6753 21.5625L15.7481 21.5006C15.7255 21.7331 15.7358 21.9605 15.7773 22.2297C14.6799 23.4557 15.0024 23.671 12.8087 24.1226C10.5891 24.58 11.893 25.3944 12.7444 25.6073C13.7765 25.8654 16.1643 26.231 17.7777 23.9724L17.7134 24.2302C18.1434 24.5745 18.4453 26.4702 18.3947 28.1886C18.3441 29.9071 18.3103 31.0869 18.6491 32.0085C18.9879 32.93 19.3255 35.0034 22.2093 34.3855C24.6189 33.8691 25.8676 32.531 26.0413 30.2989C26.1646 28.712 26.4435 28.9465 26.4612 27.5278L26.6849 26.8561C26.943 24.705 26.7259 24.011 28.2105 24.3338L28.5712 24.3655C29.6639 24.4152 31.094 24.1897 31.9333 23.7996C33.7406 22.9609 34.8125 21.5605 33.0305 21.9284H33.0307Z" fill="#336791"/>
<path d="M15.2795 11.1C14.9131 11.049 14.5812 11.0962 14.4133 11.2233C14.3188 11.2949 14.2896 11.3777 14.2818 11.4348C14.2607 11.5859 14.3666 11.7529 14.4316 11.839C14.6156 12.0829 14.8844 12.2506 15.1505 12.2875C15.1891 12.2929 15.2274 12.2954 15.2656 12.2954C15.7094 12.2954 16.1127 11.9499 16.1483 11.6949C16.1928 11.3755 15.7291 11.1626 15.2795 11.1Z" fill="white"/>
<path d="M27.4188 11.1101H27.4187C27.3838 10.8597 26.9382 10.7884 26.5154 10.8471C26.0933 10.906 25.6839 11.0965 25.7181 11.3474C25.7456 11.5426 26.0978 11.8757 26.5149 11.8756C26.55 11.8756 26.5856 11.8733 26.6214 11.8683C26.8998 11.8297 27.1041 11.6529 27.2011 11.551C27.3489 11.3958 27.4344 11.2226 27.4188 11.1101Z" fill="white"/>
<path d="M34.3839 21.8331C34.2288 21.3643 33.7298 21.2134 32.9007 21.3847C30.4389 21.8927 29.5573 21.5408 29.2677 21.3276C31.1813 18.4125 32.7554 14.8889 33.6046 11.6012C34.0069 10.0439 34.2292 8.59765 34.2473 7.4189C34.2673 6.12487 34.047 5.17416 33.5925 4.59335C31.76 2.25184 29.0707 0.995891 25.8152 0.961374C23.5771 0.936234 21.6862 1.50904 21.3196 1.67007C20.5476 1.47808 19.706 1.36022 18.7899 1.34518C17.1097 1.31802 15.6575 1.72026 14.4551 2.54011C13.9328 2.34578 12.583 1.88242 10.9324 1.61655C8.07855 1.157 5.81085 1.50516 4.1925 2.65166C2.26149 4.01973 1.37003 6.46519 1.54277 9.91997C1.60089 11.0824 2.2631 14.658 3.30832 18.0824C4.68407 22.5894 6.17946 25.141 7.75302 25.6657C7.93716 25.7272 8.1496 25.7702 8.3837 25.7702C8.95772 25.7702 9.6614 25.5114 10.3936 24.6312C11.6098 23.1681 12.7453 21.942 13.1639 21.4965C13.7824 21.8286 14.4619 22.014 15.157 22.0326C15.1582 22.0507 15.16 22.0689 15.1617 22.087C15.0222 22.2524 14.9078 22.3974 14.8103 22.5211C14.3288 23.1324 14.2286 23.2597 12.6785 23.5789C12.2376 23.6698 11.0663 23.9112 11.0493 24.7321C11.0306 25.629 12.4335 26.0057 12.5934 26.0456C13.1505 26.185 13.687 26.2538 14.1988 26.2538C15.4435 26.2537 16.5388 25.8447 17.4142 25.0532C17.3872 28.2507 17.5205 31.4015 17.9044 32.3615C18.2188 33.1473 18.987 35.068 21.4135 35.0678C21.7694 35.0678 22.1614 35.0264 22.5925 34.934C25.1247 34.391 26.2243 33.2719 26.6498 30.8044C26.8774 29.4857 27.2681 26.3367 27.4518 24.6476C27.8395 24.7685 28.3388 24.8239 28.8784 24.8238C30.004 24.8238 31.3027 24.5847 32.1172 24.2066C33.0321 23.7818 34.6833 22.739 34.3839 21.8331ZM28.3534 10.4191C28.345 10.9177 28.2764 11.3704 28.2036 11.843C28.1254 12.3512 28.0444 12.8766 28.024 13.5145C28.0039 14.1353 28.0814 14.7807 28.1564 15.4047C28.3079 16.6653 28.4634 17.9631 27.8615 19.2437C27.768 19.0776 27.6777 18.8964 27.5949 18.6956C27.5202 18.5143 27.3578 18.2231 27.1329 17.8199C26.258 16.2509 24.2091 12.5766 25.2579 11.0772C25.5703 10.6308 26.3631 10.1721 28.3534 10.4191ZM25.941 1.97118C28.8579 2.03561 31.1652 3.12682 32.7989 5.21433C34.0519 6.81554 32.6722 14.1013 28.678 20.3867C28.6385 20.3366 28.5983 20.286 28.5568 20.2341C28.5402 20.2133 28.5233 20.1922 28.5063 20.1709C29.5384 18.4663 29.3365 16.7798 29.1569 15.2845C29.0831 14.6709 29.0134 14.0913 29.0311 13.5469C29.0495 12.9698 29.1258 12.475 29.1995 11.9964C29.2903 11.4066 29.3825 10.7965 29.3571 10.0771C29.3761 10.0017 29.3838 9.91254 29.3738 9.80672C29.3088 9.11686 28.5213 7.05255 26.9161 5.18386C26.0381 4.16192 24.7576 3.01817 23.0092 2.24675C23.7613 2.0909 24.7897 1.94556 25.941 1.97118ZM9.6188 23.9869C8.81213 24.9568 8.25501 24.771 8.07184 24.7099C6.87813 24.3117 5.49316 21.7889 4.27205 17.7883C3.21544 14.3266 2.59793 10.8457 2.5491 9.86961C2.39479 6.78264 3.14309 4.63118 4.77331 3.47506C7.42636 1.59359 11.7883 2.71972 13.541 3.29091C13.5158 3.31573 13.4896 3.33901 13.4646 3.36423C10.5885 6.26892 10.6567 11.2316 10.6638 11.5349C10.6635 11.652 10.6733 11.8177 10.6868 12.0456C10.7363 12.8803 10.8284 14.4338 10.5824 16.1931C10.3537 17.8279 10.8576 19.4281 11.9647 20.5832C12.0794 20.7028 12.199 20.8151 12.3226 20.9207C11.8298 21.4485 10.7588 22.6155 9.6188 23.9869ZM12.6923 19.886C11.7999 18.955 11.3947 17.66 11.5803 16.3326C11.8401 14.4741 11.7441 12.8555 11.6927 11.986C11.6855 11.8643 11.6791 11.7577 11.6753 11.6736C12.0955 11.3011 14.0426 10.2577 15.4311 10.5759C16.0648 10.7211 16.4508 11.1525 16.6114 11.8947C17.4422 15.7371 16.7214 17.3386 16.1422 18.6256C16.0228 18.8907 15.91 19.1413 15.8137 19.4006L15.7391 19.601C15.5501 20.1078 15.3743 20.5789 15.2653 21.0263C14.3168 21.0234 13.3939 20.6182 12.6923 19.886ZM12.8379 25.068C12.5609 24.9988 12.3118 24.8786 12.1656 24.779C12.2877 24.7215 12.505 24.6434 12.8818 24.5658C14.7053 24.1903 14.9869 23.9254 15.6019 23.1445C15.743 22.9656 15.9028 22.7626 16.1241 22.5154C16.1242 22.5152 16.1243 22.5152 16.1243 22.5151C16.4541 22.146 16.6048 22.2085 16.8783 22.322C17.1 22.4137 17.3158 22.6915 17.4033 22.9972C17.4447 23.1416 17.4913 23.4157 17.3391 23.6288C16.0543 25.4276 14.1823 25.4045 12.8379 25.068ZM22.3812 33.9488C20.1504 34.4268 19.3605 33.2885 18.84 31.9873C18.5041 31.1472 18.339 27.3589 18.4561 23.1756C18.4577 23.1199 18.4498 23.0661 18.4344 23.0156C18.4211 22.918 18.4005 22.8193 18.3721 22.72C18.1978 22.1113 17.7733 21.6021 17.2641 21.391C17.0617 21.3072 16.6903 21.1534 16.244 21.2675C16.3392 20.8754 16.5043 20.4326 16.6832 19.9531L16.7583 19.7514C16.8428 19.524 16.9488 19.2884 17.061 19.0391C17.6671 17.6925 18.4972 15.8483 17.5963 11.6817C17.2588 10.1212 16.1319 9.35913 14.4236 9.53608C13.3994 9.64206 12.4625 10.0553 11.9952 10.2922C11.8947 10.3432 11.8028 10.3923 11.717 10.4402C11.8474 8.86781 12.3402 5.92933 14.1836 4.07017C15.3442 2.89967 16.8899 2.32161 18.7733 2.35273C22.4841 2.41352 24.8636 4.31786 26.2066 5.90475C27.3637 7.27226 27.9904 8.64971 28.2405 9.3926C26.3598 9.20142 25.0808 9.5727 24.4323 10.4996C23.0217 12.516 25.204 16.4298 26.2529 18.3107C26.4452 18.6555 26.6112 18.9533 26.6635 19.0799C27.005 19.9077 27.4472 20.4603 27.77 20.8637C27.869 20.9873 27.965 21.1072 28.038 21.2119C27.4684 21.3762 26.4453 21.7555 26.5385 23.652C26.4633 24.6037 25.9285 29.0591 25.6569 30.6332C25.2983 32.7128 24.533 33.4875 22.3812 33.9488ZM31.6929 23.2927C31.1105 23.5631 30.1358 23.7659 29.2098 23.8094C28.1871 23.8574 27.6665 23.6949 27.544 23.595C27.4864 22.4131 27.9264 22.2896 28.392 22.1589C28.4651 22.1383 28.5365 22.1183 28.6054 22.0942C28.6482 22.1291 28.6951 22.1637 28.7464 22.1975C29.5685 22.7401 31.0347 22.7986 33.1045 22.3714C33.1121 22.3698 33.1197 22.3684 33.1272 22.3668C32.8481 22.6278 32.3703 22.9782 31.6929 23.2927Z" fill="white"/>
</g>
<defs>
<clipPath id="clip0_202_15174">
<rect width="36" height="37" fill="white"/>
</clipPath>
</defs>
</svg>
