<svg width="32" height="41" viewBox="0 0 32 41" fill="none" xmlns="http://www.w3.org/2000/svg">
<g clip-path="url(#clip0_202_15738)">
<path d="M2.75734 0.0045166L0.482178 11.1013L7.00753 17.258L2.76792 24.8155L11.3947 40.0045H20.8324L29.4961 24.8155L25.2198 17.258L31.5241 11.1013L29.4486 0.0045166L20.5744 11.8233H11.6897L2.75734 0.0045166Z" fill="#6CCB94" fill-opacity="0.9"/>
<path d="M2.76782 24.816L7.00732 17.2584L16.1125 24.8161L2.76782 24.816Z" fill="#5DBD85" fill-opacity="0.9"/>
<path d="M7.00757 17.2575L16.1128 24.8151L11.6897 11.8229L7.00757 17.2575Z" fill="#64C48C" fill-opacity="0.9"/>
<path d="M29.4961 24.816L25.2196 17.2584L16.113 24.8161L29.4961 24.816Z" fill="#6ECC95" fill-opacity="0.9"/>
<path d="M11.3945 40.0041H20.8322L16.1128 24.8151L11.3945 40.0041Z" fill="#5EBE86" fill-opacity="0.9"/>
<path d="M25.2196 17.2575L16.113 24.8151L20.5745 11.8229L25.2196 17.2575Z" fill="#76D29C" fill-opacity="0.9"/>
<path d="M29.4485 0.0045166L31.5235 11.1014L25.2194 17.2581L20.5742 11.8234L29.4485 0.0045166Z" fill="#74D09B" fill-opacity="0.9"/>
<path d="M16.1125 24.8151L20.8323 40.0041L29.4959 24.8151H16.1125Z" fill="#64C48C" fill-opacity="0.9"/>
<path d="M16.1125 24.8151L11.3931 40.0041L2.76782 24.8151H16.1125Z" fill="#58B880" fill-opacity="0.9"/>
<path d="M2.75734 0.0045166L0.482178 11.1015L7.00754 17.2582L11.6896 11.8235L2.75734 0.0045166Z" fill="#5FBF87" fill-opacity="0.9"/>
<path d="M16.1127 24.8149L20.5744 11.8229H11.6897L16.1127 24.8149Z" fill="#6ECC95" fill-opacity="0.9"/>
</g>
<defs>
<clipPath id="clip0_202_15738">
<rect width="32" height="41" fill="white"/>
</clipPath>
</defs>
</svg>
