<svg width="33" height="30" viewBox="0 0 33 30" fill="none" xmlns="http://www.w3.org/2000/svg">
<g clip-path="url(#clip0_202_9670)">
<circle cx="17.5543" cy="15.0021" r="14.4516" fill="url(#paint0_linear_202_9670)"/>
<mask id="mask0_202_9670" style="mask-type:alpha" maskUnits="userSpaceOnUse" x="3" y="0" width="30" height="30">
<circle cx="17.5543" cy="15.0021" r="14.4516" fill="#C4C4C4"/>
</mask>
<g mask="url(#mask0_202_9670)">
<rect x="18.5865" y="-1.51404" width="17.5484" height="17.5484" fill="url(#paint1_linear_202_9670)"/>
<path d="M6.19946 10.7764C6.19946 9.11951 7.54261 7.77637 9.19946 7.77637H17.6511C19.3079 7.77637 20.6511 9.11951 20.6511 10.7764V23.357C20.6511 25.0139 19.3079 26.357 17.6511 26.357H6.19946V10.7764Z" fill="black" fill-opacity="0.3"/>
<rect x="1.03809" y="-1.51404" width="17.5484" height="17.5484" fill="#EB6C4D"/>
</g>
<rect x="0.00585938" y="5.71179" width="18.5806" height="18.5806" rx="2" fill="url(#paint2_linear_202_9670)"/>
<path d="M13.4253 13.4095C13.4253 11.1828 11.9594 9.84082 9.63468 9.84082H6.19946V20.1634H8.33167V17.0224H9.54584C11.7225 17.0224 13.4253 15.7837 13.4253 13.4095ZM11.2635 13.4537C11.2635 14.4565 10.6267 15.1053 9.59026 15.1053H8.33167V11.7726H9.57545C10.6119 11.7726 11.2635 12.3182 11.2635 13.4537Z" fill="white"/>
</g>
<defs>
<linearGradient id="paint0_linear_202_9670" x1="3.10266" y1="16.9955" x2="32.0059" y2="16.9955" gradientUnits="userSpaceOnUse">
<stop stop-color="#A73A24"/>
<stop offset="1" stop-color="#F75936"/>
</linearGradient>
<linearGradient id="paint1_linear_202_9670" x1="32.522" y1="8.80854" x2="18.5865" y2="8.80854" gradientUnits="userSpaceOnUse">
<stop stop-color="#FDB8A3"/>
<stop offset="1" stop-color="#F1876D"/>
</linearGradient>
<linearGradient id="paint2_linear_202_9670" x1="0.00585945" y1="16.2835" x2="18.5865" y2="16.2835" gradientUnits="userSpaceOnUse">
<stop stop-color="#A73A24"/>
<stop offset="1" stop-color="#F75936"/>
</linearGradient>
<clipPath id="clip0_202_9670">
<rect width="33" height="30" fill="white"/>
</clipPath>
</defs>
</svg>
