<svg width="36" height="36" viewBox="0 0 36 36" fill="none" xmlns="http://www.w3.org/2000/svg">
<g clip-path="url(#clip0_202_12634)">
<path d="M11.7822 28.8769C11.7822 30.0464 10.8253 31.1096 9.54945 31.1096C8.27358 31.1096 7.31669 30.1527 7.31669 28.8769V19.3079C7.31669 18.1384 8.27358 17.0751 9.54945 17.0751C10.8253 17.0751 11.7822 18.032 11.7822 19.3079V28.8769ZM18.1615 31.4286C18.1615 32.5981 17.2046 33.6613 15.9288 33.6613C14.6529 33.6613 13.8023 32.7045 13.8023 31.4286V16.8625C13.8023 15.693 14.7592 14.6297 16.0351 14.6297C17.3109 14.6297 18.2678 15.5866 18.2678 16.8625V31.4286H18.1615ZM5.29657 26.7504C5.29657 27.92 4.33968 28.9832 3.06381 28.9832C1.78795 28.9832 0.831055 28.0263 0.831055 26.7504V21.5407C0.831055 20.3711 1.78795 19.3079 3.06381 19.3079C4.33968 19.3079 5.29657 20.3711 5.29657 21.5407V26.7504ZM24.5408 33.7677C24.5408 34.9372 23.5839 36.0004 22.3081 36.0004C21.1385 36.0004 20.1816 34.9372 20.1816 33.7677V14.4171C20.1816 13.2476 21.1385 12.1843 22.4144 12.1843C23.5839 12.1843 24.6472 13.1412 24.6472 14.4171V33.7677H24.5408Z" fill="#F2C811"/>
<path d="M31.5581 32.8108C31.1328 32.8108 30.8138 32.7045 30.3885 32.5981L27.7305 31.7476C27.3052 31.6412 26.9862 31.1096 27.1989 30.6843C27.3052 30.259 27.8368 29.9401 28.2621 30.1527L31.0265 31.0033C31.5581 31.2159 32.196 31.1096 32.7276 30.6843C33.2592 30.3654 33.4719 29.7274 33.4719 29.1958V11.4401C33.4719 10.5895 32.9403 9.84525 32.196 9.63261L6.14715 1.76479C5.61554 1.55215 4.97761 1.65847 4.446 1.97744C4.02071 2.40272 3.70174 2.93433 3.70174 3.57226V15.7993C3.70174 16.3309 3.27646 16.6499 2.85117 16.6499C2.31956 16.6499 2.00059 16.2246 2.00059 15.7993V3.57226C2.00059 2.40272 2.5322 1.33951 3.4891 0.701575C4.446 -0.0426784 5.61554 -0.149 6.67876 0.169965L32.6213 8.03778C34.1098 8.46307 35.173 9.95158 35.173 11.5464V29.3022C35.173 30.4717 34.6414 31.5349 33.6845 32.2792C33.0466 32.4918 32.3023 32.8108 31.5581 32.8108Z" fill="#F2C811"/>
</g>
<defs>
<clipPath id="clip0_202_12634">
<rect width="36" height="36.0004" fill="white"/>
</clipPath>
</defs>
</svg>
