<svg width="32" height="37" viewBox="0 0 32 37" fill="none" xmlns="http://www.w3.org/2000/svg">
<g clip-path="url(#clip0_202_9058)">
<path d="M16.0032 0.0045166L31.5918 9.00452V27.0045L16.0032 36.0045L0.414551 27.0045V9.00452L16.0032 0.0045166Z" fill="#673AB8"/>
<path d="M18.336 18.0365C18.336 19.3551 17.2671 20.424 15.9486 20.424C14.63 20.424 13.5611 19.3551 13.5611 18.0365C13.5611 16.718 14.63 15.6491 15.9486 15.6491C17.2671 15.6491 18.336 16.718 18.336 18.0365Z" fill="white"/>
<path fill-rule="evenodd" clip-rule="evenodd" d="M4.66058 26.8557C6.33501 28.9989 10.956 28.091 15.9486 25.101C20.9412 28.091 25.5622 28.9989 27.2366 26.8557C28.6799 25.0084 27.3941 21.5854 24.3803 18.0366C27.3941 14.4877 28.6799 11.0647 27.2366 9.21739C25.5622 7.07421 20.9412 7.98209 15.9486 10.9721C10.956 7.98209 6.33501 7.07421 4.66058 9.21739C3.21731 11.0647 4.50307 14.4877 7.5169 18.0365C4.50307 21.5854 3.21731 25.0084 4.66058 26.8557ZM10.4076 26.4256C11.7921 26.0007 13.3126 25.3187 14.8711 24.4268C14.0354 23.8816 13.1946 23.281 12.3604 22.6292C10.8189 21.4249 9.44116 20.1564 8.27223 18.8892C7.56358 19.7348 6.95582 20.574 6.4683 21.3834C5.1589 23.5574 4.85861 25.2843 5.54591 26.164C6.23321 27.0437 7.98145 27.1701 10.4076 26.4256ZM13.0521 21.7439C14.0081 22.4908 14.9813 23.1733 15.9486 23.7804C16.9159 23.1733 17.8891 22.4908 18.8451 21.7439C20.3568 20.5628 21.7226 19.3012 22.8781 18.0366C21.7226 16.7719 20.3568 15.5103 18.8451 14.3292C17.8891 13.5823 16.9159 12.8998 15.9486 12.2927C14.9812 12.8998 14.0081 13.5823 13.0521 14.3292C11.5404 15.5103 10.1746 16.7719 9.01908 18.0366C10.1746 19.3012 11.5404 20.5628 13.0521 21.7439ZM21.4895 26.4256C20.1051 26.0007 18.5845 25.3187 17.0261 24.4268C17.8618 23.8816 18.7026 23.281 19.5368 22.6292C21.0783 21.4249 22.456 20.1564 23.625 18.8892C24.3336 19.7348 24.9414 20.574 25.4289 21.3834C26.7383 23.5574 27.0386 25.2843 26.3513 26.164C25.664 27.0437 23.9157 27.1701 21.4895 26.4256ZM25.4289 14.6897C24.9414 15.4991 24.3336 16.3383 23.625 17.1839C22.456 15.9167 21.0783 14.6482 19.5368 13.4439C18.7026 12.7921 17.8618 12.1915 17.0261 11.6463C18.5845 10.7544 20.1051 10.0724 21.4895 9.64755C23.9157 8.90298 25.664 9.02938 26.3513 9.90908C27.0386 10.7888 26.7383 12.5157 25.4289 14.6897ZM12.3604 13.4439C13.1946 12.7921 14.0354 12.1915 14.8711 11.6463C13.3126 10.7544 11.7921 10.0724 10.4076 9.64755C7.98145 8.90298 6.23321 9.02938 5.54591 9.90908C4.85861 10.7888 5.1589 12.5157 6.4683 14.6897C6.95582 15.4991 7.56358 16.3383 8.27223 17.1839C9.44116 15.9167 10.8189 14.6482 12.3604 13.4439Z" fill="white"/>
</g>
<defs>
<clipPath id="clip0_202_9058">
<rect width="32" height="37" fill="white"/>
</clipPath>
</defs>
</svg>
