<svg width="37" height="37" viewBox="0 0 37 37" fill="none" xmlns="http://www.w3.org/2000/svg">
<g clip-path="url(#clip0_202_10648)">
<path d="M0.0012207 13.0308C0.0012207 8.47034 0.0012207 6.19013 0.888739 4.44827C1.66942 2.9161 2.91512 1.6704 4.4473 0.889716C6.18915 0.00219727 8.46936 0.00219727 13.0298 0.00219727H22.9727C27.5331 0.00219727 29.8133 0.00219727 31.5551 0.889716C33.0873 1.6704 34.333 2.9161 35.1137 4.44827C36.0012 6.19013 36.0012 8.47034 36.0012 13.0308V22.9736C36.0012 27.5341 36.0012 29.8143 35.1137 31.5561C34.333 33.0883 33.0873 34.334 31.5551 35.1147C29.8133 36.0022 27.5331 36.0022 22.9727 36.0022H13.0298C8.46936 36.0022 6.18915 36.0022 4.4473 35.1147C2.91512 34.334 1.66942 33.0883 0.888739 31.5561C0.0012207 29.8143 0.0012207 27.5341 0.0012207 22.9736V13.0308Z" fill="#00005B"/>
<path d="M7.71558 25.4538V9.26957C7.71558 9.15948 7.76071 9.09657 7.86602 9.09657C9.42074 9.09657 10.9748 9.0022 12.5299 9.0022C15.0533 9.0022 17.7857 9.88167 18.7434 12.5725C18.9691 13.2331 19.0894 13.9094 19.0894 14.6171C19.0894 15.9697 18.7885 17.0864 18.1867 17.9672C16.5057 20.4276 13.5921 20.3893 10.9803 20.3893V25.4381C11.0007 25.5875 10.8758 25.6582 10.7546 25.6582H7.89611C7.77576 25.6582 7.71558 25.5953 7.71558 25.4538ZM10.9953 12.1321V17.4167C12.0309 17.4941 13.1146 17.5024 14.1096 17.1651C15.2081 16.8421 15.8097 15.8729 15.8097 14.7115C15.8402 13.7219 15.3111 12.7723 14.4105 12.4152C13.4275 11.9986 12.0565 11.9736 10.9953 12.1321Z" fill="#9999FF"/>
<path d="M21.1288 13.1318H23.7691C23.9147 13.1331 24.0454 13.2383 24.0839 13.3851C24.2774 13.8342 24.3013 14.3758 24.302 14.8607C24.7547 14.3095 25.3007 13.8503 25.9127 13.506C26.569 13.1177 27.3131 12.9209 28.0671 12.9362C28.1922 12.9175 28.303 13.0333 28.2851 13.1641V16.2281C28.2851 16.3464 28.2041 16.4054 28.0429 16.4054C26.9254 16.3247 25.1855 16.6008 24.3735 17.5195V25.4864C24.3735 25.6383 24.3089 25.7143 24.1797 25.7143H21.3469C21.2077 25.7352 21.0849 25.6042 21.1046 25.461V16.8105C21.1046 15.6514 21.1286 14.4573 20.9593 13.3091C20.9332 13.2034 21.03 13.1052 21.1288 13.1318Z" fill="#9999FF"/>
</g>
<defs>
<clipPath id="clip0_202_10648">
<rect width="37" height="37" fill="white"/>
</clipPath>
</defs>
</svg>
