<svg width="37" height="37" viewBox="0 0 37 37" fill="none" xmlns="http://www.w3.org/2000/svg">
<g clip-path="url(#clip0_202_10667)">
<path d="M0.0012207 13.0308C0.0012207 8.47034 0.0012207 6.19013 0.888739 4.44827C1.66942 2.9161 2.91512 1.6704 4.4473 0.889716C6.18915 0.00219727 8.46936 0.00219727 13.0298 0.00219727H22.9727C27.5331 0.00219727 29.8133 0.00219727 31.5551 0.889716C33.0873 1.6704 34.333 2.9161 35.1137 4.44827C36.0012 6.19013 36.0012 8.47034 36.0012 13.0308V22.9736C36.0012 27.5341 36.0012 29.8143 35.1137 31.5561C34.333 33.0883 33.0873 34.334 31.5551 35.1147C29.8133 36.0022 27.5331 36.0022 22.9727 36.0022H13.0298C8.46936 36.0022 6.18915 36.0022 4.4473 35.1147C2.91512 34.334 1.66942 33.0883 0.888739 31.5561C0.0012207 29.8143 0.0012207 27.5341 0.0012207 22.9736V13.0308Z" fill="#00005B"/>
<path d="M9.50589 25.4761H6.62383C6.4944 25.4761 6.42969 25.4013 6.42969 25.2503V9.3028C6.42969 9.14705 6.47785 9.07696 6.58019 9.07696C8.2743 9.02411 9.96776 9.0022 11.6625 9.0022C14.7638 9.0022 17.9383 10.3886 17.9383 14.047C17.956 16.0256 16.645 17.7093 14.9103 18.4236C16.328 20.6665 17.7577 22.9249 19.1739 25.1693C19.2338 25.2421 19.2896 25.488 19.1258 25.4699H15.6131C15.4823 25.4775 15.3484 25.4373 15.273 25.3203C14.1082 23.5632 13.0769 21.687 12.0689 19.8301C11.9356 19.6182 11.7629 19.3964 11.4955 19.4111H9.70605V25.2534C9.70605 25.4013 9.63532 25.4761 9.50589 25.4761ZM9.70003 16.4425C11.3129 16.4425 14.6566 16.8052 14.5702 14.2183C14.5702 11.7325 11.412 11.9305 9.70003 12.0876V16.4425Z" fill="#9999FF"/>
<path d="M30.7345 13.134V22.6819C30.7345 23.337 30.7295 23.9979 30.795 24.6504C30.8193 24.8929 30.8393 25.0381 30.8556 25.205C30.8715 25.339 30.8152 25.4056 30.686 25.4056H28.0934C27.9712 25.419 27.8515 25.3468 27.8026 25.2301C27.7396 24.999 27.6845 24.7536 27.6814 24.5125C26.756 25.367 25.5333 25.7063 24.3134 25.7161C21.6727 25.749 20.1835 23.5175 20.2427 20.8764V13.1591C20.2268 13.0439 20.3253 12.942 20.4366 12.9585H23.3161C23.4274 12.9421 23.5258 13.044 23.51 13.1591V20.4752C23.51 21.8118 24.1604 22.6819 25.5007 22.6819C26.2056 22.6909 26.9054 22.3996 27.4731 21.9798V13.134C27.4731 13.0173 27.5458 12.9585 27.6912 12.9585H30.5649C30.6622 12.9443 30.7482 13.0334 30.7345 13.134Z" fill="#9999FF"/>
</g>
<defs>
<clipPath id="clip0_202_10667">
<rect width="37" height="37" fill="white"/>
</clipPath>
</defs>
</svg>
