<svg width="37" height="37" viewBox="0 0 37 37" fill="none" xmlns="http://www.w3.org/2000/svg">
<g clip-path="url(#clip0_202_11231)">
<path d="M33.4707 0.00219727H2.5332C1.13523 0.00219727 0.00195312 1.13548 0.00195312 2.53345V33.4709C0.00195312 34.8689 1.13523 36.0022 2.5332 36.0022H33.4707C34.8687 36.0022 36.002 34.8689 36.002 33.4709V2.53345C36.002 1.13548 34.8687 0.00219727 33.4707 0.00219727Z" fill="black"/>
<path d="M32.3624 18.0773C32.3624 19.0682 31.559 19.8716 30.5679 19.8716C29.5769 19.8716 28.7735 19.0682 28.7735 18.0773C28.7735 17.0861 29.5769 16.2827 30.5679 16.2827C31.559 16.2827 32.3624 17.0861 32.3624 18.0773Z" fill="#669CFE"/>
<path d="M28.5479 14.3936C28.5479 15.3213 27.7959 16.0732 26.8683 16.0732C25.9406 16.0732 25.1885 15.3213 25.1885 14.3936C25.1885 13.4659 25.9406 12.7138 26.8683 12.7138C27.7959 12.7138 28.5479 13.4659 28.5479 14.3936Z" fill="#669CFE"/>
<path d="M24.7159 10.7231C24.7159 11.5656 24.0329 12.2488 23.1903 12.2488C22.3476 12.2488 21.6646 11.5656 21.6646 10.7231C21.6646 9.88052 22.3476 9.1975 23.1903 9.1975C24.0329 9.1975 24.7159 9.88052 24.7159 10.7231Z" fill="#669CFE"/>
<path d="M20.9014 7.03497C20.9014 7.79237 20.2875 8.40634 19.5301 8.40634C18.7727 8.40634 18.1587 7.79237 18.1587 7.03497C18.1587 6.27742 18.7727 5.66345 19.5301 5.66345C20.2875 5.66345 20.9014 6.27742 20.9014 7.03497Z" fill="#669CFE"/>
<path d="M13.3699 21.7605C13.3699 22.4336 12.824 22.9794 12.1508 22.9794C11.4775 22.9794 10.9317 22.4336 10.9317 21.7605C10.9317 21.0871 11.4775 20.5414 12.1508 20.5414C12.824 20.5414 13.3699 21.0871 13.3699 21.7605Z" fill="#6A9EFE"/>
<path d="M17.0437 25.4343C17.0437 26.1075 16.4978 26.6532 15.8246 26.6532C15.1513 26.6532 14.6056 26.1075 14.6056 25.4343C14.6056 24.761 15.1513 24.2152 15.8246 24.2152C16.4978 24.2152 17.0437 24.761 17.0437 25.4343Z" fill="#6A9EFE"/>
<path d="M20.7116 29.1022C20.7116 29.7755 20.1659 30.3213 19.4926 30.3213C18.8193 30.3213 18.2735 29.7755 18.2735 29.1022C18.2735 28.4289 18.8193 27.8831 19.4926 27.8831C20.1659 27.8831 20.7116 28.4289 20.7116 29.1022Z" fill="#6A9EFE"/>
<path d="M13.3875 29.1022C13.3875 29.7755 12.8416 30.3213 12.1684 30.3213C11.4951 30.3213 10.9493 29.7755 10.9493 29.1022C10.9493 28.4289 11.4951 27.8831 12.1684 27.8831C12.8416 27.8831 13.3875 28.4289 13.3875 29.1022Z" fill="#6A9EFE"/>
<path d="M5.99284 29.1022C5.99284 29.7755 5.44708 30.3213 4.77377 30.3213C4.10059 30.3213 3.55469 29.7755 3.55469 29.1022C3.55469 28.4289 4.10059 27.8831 4.77377 27.8831C5.44708 27.8831 5.99284 28.4289 5.99284 29.1022Z" fill="#6A9EFE"/>
<path d="M9.66667 25.4284C9.66667 26.1017 9.12091 26.6475 8.44759 26.6475C7.77442 26.6475 7.22852 26.1017 7.22852 25.4284C7.22852 24.7551 7.77442 24.2093 8.44759 24.2093C9.12091 24.2093 9.66667 24.7551 9.66667 25.4284Z" fill="#6A9EFE"/>
<path d="M28.6624 21.7335C28.6624 22.7245 27.859 23.5279 26.8679 23.5279C25.8767 23.5279 25.0734 22.7245 25.0734 21.7335C25.0734 20.7424 25.8767 19.939 26.8679 19.939C27.859 19.939 28.6624 20.7424 28.6624 21.7335Z" fill="#3FE7FE"/>
<path d="M24.856 18.0445C24.856 18.9722 24.1039 19.7243 23.1763 19.7243C22.2486 19.7243 21.4966 18.9722 21.4966 18.0445C21.4966 17.1168 22.2486 16.3647 23.1763 16.3647C24.1039 16.3647 24.856 17.1168 24.856 18.0445Z" fill="#3FE7FE"/>
<path d="M21.0287 14.3732C21.0287 15.2157 20.3455 15.8988 19.5029 15.8988C18.6604 15.8988 17.9773 15.2157 17.9773 14.3732C17.9773 13.5306 18.6604 12.8474 19.5029 12.8474C20.3455 12.8474 21.0287 13.5306 21.0287 14.3732Z" fill="#3FE7FE"/>
<path d="M17.2002 10.7026C17.2002 11.46 16.5862 12.0741 15.8288 12.0741C15.0714 12.0741 14.4574 11.46 14.4574 10.7026C14.4574 9.9452 15.0714 9.33124 15.8288 9.33124C16.5862 9.33124 17.2002 9.9452 17.2002 10.7026Z" fill="#3FE7FE"/>
<path d="M13.3857 7.03834C13.3857 7.74189 12.8154 8.31227 12.1118 8.31227C11.4083 8.31227 10.8379 7.74189 10.8379 7.03834C10.8379 6.33466 11.4083 5.76428 12.1118 5.76428C12.8154 5.76428 13.3857 6.33466 13.3857 7.03834Z" fill="#3FE7FE"/>
<path d="M24.9561 25.466C24.9561 26.4571 24.1527 27.2605 23.1617 27.2605C22.1706 27.2605 21.3672 26.4571 21.3672 25.466C21.3672 24.475 22.1706 23.6716 23.1617 23.6716C24.1527 23.6716 24.9561 24.475 24.9561 25.466Z" fill="white"/>
<path d="M21.1758 21.7492C21.1758 22.6769 20.4239 23.429 19.4962 23.429C18.5685 23.429 17.8164 22.6769 17.8164 21.7492C17.8164 20.8215 18.5685 20.0696 19.4962 20.0696C20.4239 20.0696 21.1758 20.8215 21.1758 21.7492Z" fill="white"/>
<path d="M17.3345 18.0896C17.3345 18.9322 16.6515 19.6153 15.8088 19.6153C14.9662 19.6153 14.2832 18.9322 14.2832 18.0896C14.2832 17.2471 14.9662 16.564 15.8088 16.564C16.6515 16.564 17.3345 17.2471 17.3345 18.0896Z" fill="white"/>
<path d="M13.5105 14.4127C13.5105 15.1701 12.8964 15.7841 12.139 15.7841C11.3815 15.7841 10.7676 15.1701 10.7676 14.4127C10.7676 13.6553 11.3815 13.0412 12.139 13.0412C12.8964 13.0412 13.5105 13.6553 13.5105 14.4127Z" fill="white"/>
<path d="M9.67689 10.7659C9.67689 11.4696 9.10652 12.0399 8.40283 12.0399C7.69928 12.0399 7.12891 11.4696 7.12891 10.7659C7.12891 10.0623 7.69928 9.49194 8.40283 9.49194C9.10652 9.49194 9.67689 10.0623 9.67689 10.7659Z" fill="white"/>
<path d="M5.79212 6.98657C5.79212 7.55427 5.33186 8.01454 4.76416 8.01454C4.19659 8.01454 3.73633 7.55427 3.73633 6.98657C3.73633 6.41901 4.19659 5.95874 4.76416 5.95874C5.33186 5.95874 5.79212 6.41901 5.79212 6.98657Z" fill="white"/>
</g>
<defs>
<clipPath id="clip0_202_11231">
<rect width="37" height="37" fill="white"/>
</clipPath>
</defs>
</svg>
