<svg width="37" height="37" viewBox="0 0 37 37" fill="none" xmlns="http://www.w3.org/2000/svg">
<g clip-path="url(#clip0_202_11078)">
<path d="M11.6711 27.6232C11.9586 27.4952 12.2498 27.3775 12.5437 27.2671C12.8756 27.1424 13.2101 27.0251 13.5492 26.923C13.9712 26.7959 14.3967 26.6809 14.828 26.5893C15.4095 26.4659 15.9979 26.3744 16.5906 26.3169C16.2582 27.3622 15.8907 28.4016 15.4926 29.4343C15.5096 29.6343 15.5188 29.8355 15.5241 30.0373C16.3259 29.8791 17.1539 29.7944 18.0022 29.7944C18.8503 29.7944 19.6784 29.8791 20.4803 30.0373C20.4856 29.8355 20.4948 29.6343 20.5118 29.4343C20.1135 28.4016 19.7462 27.3622 19.4138 26.3169C20.0065 26.3744 20.5949 26.4659 21.1764 26.5893C21.6075 26.6809 22.0331 26.7959 22.4551 26.923C22.7943 27.0251 23.1288 27.1424 23.4607 27.2671C23.7547 27.3777 24.0461 27.4954 24.3336 27.6233C26.3732 28.5316 28.2325 29.8788 29.7575 31.6271C33.5797 28.3265 36.0022 23.4487 36.0022 18.0022C36.0022 8.06113 27.9433 0.00219727 18.0022 0.00219727C8.06113 0.00219727 0.00219727 8.06113 0.00219727 18.0022C0.00219727 23.4487 2.42474 28.3263 6.24693 31.6271C7.77187 29.8788 9.63149 28.5315 11.6711 27.6232Z" fill="#A5DBE8"/>
<path d="M24.3335 27.6235L25.4509 31.4658L25.7679 31.4807C25.9736 31.4807 26.1183 31.5348 26.1183 31.7406C26.1183 32.0826 26.136 32.4669 26.1688 32.8024C26.4472 33.0388 26.7863 33.3054 27.0433 33.5645C28.009 33.0022 28.9167 32.3531 29.7574 31.6272C28.2325 29.879 26.3731 28.5318 24.3335 27.6235Z" fill="#525353"/>
<path d="M22.1487 27.5849L23.4607 27.2671C23.1288 27.1424 22.7943 27.0251 22.4551 26.923C22.0331 26.7959 21.6076 26.6808 21.1764 26.5893C20.5949 26.4658 20.0066 26.3744 19.4138 26.3169C19.7463 27.3622 20.1136 28.4015 20.5118 29.4343C20.4948 29.6342 20.4857 29.8355 20.4803 30.0373C21.41 30.2206 22.3241 30.5393 23.1692 30.9131L22.1487 27.5849Z" fill="#525353"/>
<path d="M8.96094 33.5643C9.16991 33.686 9.38098 33.8049 9.59558 33.9184C9.67067 33.5577 9.79077 33.0579 9.82705 32.6868C9.54861 32.9232 9.218 33.3052 8.96094 33.5643Z" fill="black"/>
<path d="M23.1472 30.8799C22.3022 30.5061 21.41 30.2206 20.4803 30.0372C19.6784 29.879 18.8503 29.7944 18.0022 29.7944C17.1539 29.7944 16.3259 29.879 15.5241 30.0372C14.5946 30.2205 13.6247 30.4985 12.7798 30.8721L12.6899 31.432H23.3147L23.1472 30.8799Z" fill="black"/>
<path d="M9.79434 32.7934C9.82724 32.4579 9.85101 32.1587 9.85101 31.8166C9.85101 31.611 9.99205 31.4792 10.1978 31.4792L10.5351 31.4674L11.6713 27.6232C9.63163 28.5315 7.77201 29.8788 6.24707 31.627C7.08773 32.353 7.99546 33.0021 8.96113 33.5643C9.2182 33.3053 9.48594 33.0568 9.76438 32.8204" fill="#525353"/>
<path d="M26.3062 33.4772C26.3791 33.8428 26.3955 33.9156 26.4087 33.9183C26.6233 33.8048 26.8343 33.686 27.0434 33.5642C26.7863 33.3052 26.5103 33.0484 26.2317 32.812L26.3062 33.4772Z" fill="black"/>
<path d="M23.1473 30.88L23.3147 31.4321H25.488L24.3336 27.6234C24.0461 27.4954 23.7548 27.3777 23.4607 27.2672L22.1487 27.585L23.1473 30.88Z" fill="#AA9678"/>
<path d="M10.5547 32.2012C10.5661 32.1932 10.5776 32.1852 10.5889 32.177H10.5562C10.556 32.185 10.5551 32.1932 10.5547 32.2012Z" fill="#C4B6A1"/>
<path d="M25.4483 32.177H25.4155C25.4269 32.1852 25.4385 32.1932 25.4497 32.2012C25.4494 32.1932 25.4486 32.185 25.4483 32.177Z" fill="#AA9678"/>
<path d="M25.4107 32.1216L17.9866 32.13L18.002 36.0023C20.765 36.0023 23.3818 35.378 25.7214 34.2654C25.5687 33.5943 25.5533 32.8715 25.5284 32.1681C25.5172 32.16 25.4107 32.1216 25.4107 32.1216Z" fill="#AA9678"/>
<path d="M17.9903 32.146C17.9903 32.146 10.5253 32.1366 10.5139 32.1446C10.4891 32.8481 10.344 33.6829 10.283 34.2654C12.6225 35.378 15.2393 36.0022 18.0023 36.0022L18.0065 32.1585L17.9903 32.146Z" fill="#C4B6A1"/>
<path d="M18.0022 31.8046H18.0023V32.1771H18.0022V31.8046Z" fill="#786453"/>
<path d="M23.1559 28.8634C23.1016 28.801 23.0456 28.7342 22.9875 28.6581C23.0458 28.7342 23.1016 28.801 23.1559 28.8634Z" fill="#525353"/>
<path d="M23.5701 29.2747C23.5701 29.2747 23.5714 29.2788 23.5739 29.2864C23.5714 29.2788 23.5701 29.2747 23.5701 29.2747C23.5701 29.2747 23.3876 29.13 23.156 28.8635C23.3876 29.13 23.5701 29.2747 23.5701 29.2747Z" fill="#AA9678"/>
<path d="M29.7947 18.171C29.7947 18.1692 29.7948 18.1675 29.7948 18.1656C29.7948 18.1675 29.7947 18.1692 29.7947 18.171Z" fill="white"/>
<path d="M29.7948 18.1659C29.7948 18.1642 29.7947 18.1628 29.7947 18.1609C29.7947 18.1626 29.7948 18.1642 29.7948 18.1659Z" fill="#BBBCBD"/>
<path d="M29.7744 17.8853C29.775 17.89 29.7764 17.8943 29.7769 17.899C29.7773 17.902 29.7782 17.9047 29.7786 17.9075V17.9086C29.7872 17.9774 29.7904 18.0492 29.792 18.1217C29.7923 18.135 29.7945 18.1475 29.7945 18.1607C29.7945 18.1626 29.7946 18.164 29.7946 18.1657C29.7946 18.1675 29.7945 18.1692 29.7945 18.171C29.7944 18.1854 29.792 18.1987 29.7918 18.2129C29.7901 18.2839 29.787 18.3544 29.7788 18.4219V18.4229C29.7782 18.4264 29.7773 18.4296 29.7768 18.4331C29.7762 18.4386 29.7745 18.4435 29.7738 18.4489C29.7637 18.5226 29.7508 18.594 29.7335 18.6619C29.7333 18.6624 29.7333 18.6626 29.7332 18.6629V18.6631L29.7357 18.6602C29.736 18.6591 29.7364 18.6581 29.7367 18.657V18.6572L30.2078 18.164L29.7329 17.6669C29.7329 17.6672 29.7329 17.6676 29.733 17.6679C29.7508 17.7372 29.7643 17.81 29.7744 17.8853Z" fill="#676A6A"/>
<path d="M29.7738 18.449C29.7751 18.4397 29.7775 18.4314 29.7787 18.422C29.787 18.3545 29.7901 18.284 29.7918 18.213C29.792 18.197 29.7945 18.1819 29.7945 18.1657C29.7945 18.1507 29.7922 18.1366 29.792 18.1217C29.7904 18.0493 29.7872 17.9774 29.7786 17.9087C29.7775 17.9005 29.7754 17.8933 29.7744 17.8853C29.7643 17.8101 29.7508 17.7373 29.733 17.6679C29.7268 17.6437 29.7183 17.6222 29.7111 17.5989C29.6685 17.458 29.6104 17.3335 29.5415 17.2302C29.5322 17.2164 29.5228 17.203 29.5132 17.1901C29.4943 17.1646 29.4753 17.1399 29.4552 17.1177C29.4253 17.0855 29.3946 17.0558 29.3621 17.0312C29.3497 17.0218 29.3366 17.0151 29.324 17.007C29.2958 16.9888 29.2671 16.973 29.2375 16.9609C29.2248 16.9558 29.212 16.9507 29.1991 16.9467C29.1572 16.9337 29.1143 16.9244 29.0701 16.9244C29.026 16.9244 28.9832 16.9337 28.9412 16.9467C28.9282 16.9507 28.9154 16.9558 28.9028 16.961C28.8731 16.973 28.8444 16.9888 28.8162 17.007C28.8038 17.0151 28.7906 17.0216 28.7783 17.031C28.7458 17.0558 28.7149 17.0855 28.6851 17.1177C28.665 17.1399 28.646 17.1646 28.6273 17.1898C28.6175 17.203 28.608 17.2164 28.5988 17.2303C28.5298 17.3337 28.4716 17.4581 28.4292 17.599C28.4275 17.6046 28.4255 17.6101 28.4238 17.6159C28.405 17.6806 28.3903 17.7486 28.3781 17.8185C28.3745 17.8399 28.3695 17.8604 28.3666 17.8824C28.3553 17.9606 28.3496 18.0421 28.3482 18.1257C28.348 18.1372 28.3462 18.1482 28.3462 18.1597H28.349C28.349 18.8454 28.6734 19.4011 29.0735 19.4011C29.1424 19.4011 29.2086 19.3831 29.2718 19.3523C29.2819 19.3473 29.2919 19.3421 29.3019 19.3363C29.328 19.3213 29.3538 19.3048 29.3784 19.285C29.392 19.274 29.4048 19.2608 29.4179 19.2484C29.4498 19.2186 29.4802 19.1848 29.509 19.1473C29.529 19.121 29.5487 19.0947 29.567 19.0653C29.5786 19.0466 29.5893 19.0264 29.6001 19.0064C29.6204 18.969 29.6395 18.93 29.6568 18.8887C29.6633 18.8738 29.6699 18.8593 29.6758 18.844C29.6979 18.7865 29.7171 18.7257 29.7335 18.662C29.7508 18.5941 29.7637 18.5226 29.7738 18.449ZM29.0961 18.0005C28.9461 18.0005 28.8245 17.792 28.8245 17.5349C28.8245 17.278 28.9461 17.0694 29.0961 17.0694C29.2462 17.0694 29.3677 17.278 29.3677 17.5349C29.3677 17.792 29.2462 18.0005 29.0961 18.0005Z" fill="black"/>
<path d="M29.0962 17.0695C28.9461 17.0695 28.8245 17.278 28.8245 17.5349C28.8245 17.792 28.9461 18.0005 29.0962 18.0005C29.2462 18.0005 29.3677 17.792 29.3677 17.5349C29.3677 17.278 29.2462 17.0695 29.0962 17.0695Z" fill="white"/>
<path d="M28.4293 17.5991C28.4718 17.4582 28.53 17.3338 28.5989 17.2304C28.6082 17.2164 28.6176 17.2033 28.6275 17.1899C28.6462 17.1647 28.6652 17.14 28.6853 17.1178C28.7151 17.0853 28.746 17.056 28.7785 17.0312C28.7907 17.0217 28.804 17.0153 28.8163 17.0071C28.8445 16.9887 28.8733 16.9734 28.903 16.9611C28.9156 16.9559 28.9284 16.9509 28.9414 16.9468C28.9833 16.9336 29.0262 16.9246 29.0703 16.9246C29.1145 16.9246 29.1574 16.9336 29.1993 16.9468C29.2122 16.9509 29.225 16.9559 29.2377 16.961C29.2673 16.9734 29.296 16.9887 29.3241 17.0071C29.3368 17.0153 29.3499 17.0219 29.3622 17.0313C29.3946 17.056 29.4255 17.0853 29.4553 17.1178C29.4754 17.14 29.4944 17.1647 29.5134 17.1902C29.523 17.2033 29.5324 17.2164 29.5417 17.2303C29.6106 17.3336 29.6687 17.4581 29.7113 17.599V17.5993L29.0703 14.6635L28.4292 17.5991H28.4293Z" fill="#909393"/>
<path d="M20.5755 18.1383C20.5747 18.0793 20.5709 18.0209 20.5643 17.9635C20.5641 17.9628 20.5639 17.962 20.5639 17.9611C20.5571 17.9046 20.5477 17.8488 20.5356 17.7941C20.5352 17.7927 20.5347 17.7914 20.5345 17.7899C20.5224 17.7357 20.5076 17.6826 20.4904 17.6304C20.49 17.6293 20.4895 17.6281 20.489 17.6269C20.4717 17.5747 20.4521 17.5237 20.4297 17.4739C20.4294 17.4729 20.4287 17.4719 20.4283 17.4708C20.4059 17.4209 20.3812 17.3721 20.3542 17.3248C20.2718 17.1804 20.169 17.0495 20.0494 16.9356C19.8977 16.7911 19.7193 16.6743 19.5225 16.5933C19.521 16.5927 19.5192 16.5922 19.5176 16.5915C19.4206 16.5519 19.3192 16.521 19.2141 16.4999C19.2115 16.4995 19.2089 16.4993 19.2063 16.4988C19.1009 16.4781 18.9924 16.4669 18.881 16.4669C18.7714 16.4669 18.665 16.4781 18.5614 16.4979C18.5577 16.4986 18.554 16.4989 18.5504 16.4996C18.4473 16.5202 18.3479 16.5502 18.2524 16.5885C18.25 16.5895 18.2473 16.5903 18.2448 16.5915C18.1481 16.6308 18.0557 16.6788 17.9689 16.7346C17.9685 16.7349 17.9682 16.735 17.9679 16.735C17.8803 16.7916 17.798 16.8558 17.7224 16.9268L17.7206 16.9326L17.7142 16.934C17.5934 17.0489 17.4895 17.1814 17.4064 17.3269C17.4056 17.3286 17.4044 17.3303 17.4033 17.3321C17.378 17.3767 17.3551 17.4231 17.334 17.4704C17.3317 17.4754 17.3289 17.4802 17.3268 17.4853C17.3075 17.529 17.2909 17.5743 17.2755 17.6198C17.2725 17.6288 17.2686 17.6373 17.2658 17.6461C17.2523 17.6887 17.2413 17.7325 17.2309 17.7762C17.2282 17.7889 17.2242 17.801 17.2215 17.8135C17.2125 17.8568 17.2063 17.9011 17.2005 17.9455C17.1988 17.9592 17.1959 17.9722 17.1945 17.9859C17.1884 18.044 17.1851 18.1029 17.1851 18.1628C17.1851 18.275 17.1966 18.3844 17.2175 18.4905C17.2178 18.4926 17.218 18.495 17.2185 18.4972C17.2398 18.6031 17.271 18.7052 17.3111 18.8029C17.3116 18.8043 17.3119 18.8057 17.3126 18.807C17.3942 19.0047 17.5122 19.1837 17.658 19.3357C17.7733 19.456 17.906 19.5591 18.052 19.6415C18.0527 19.6419 18.0534 19.6423 18.0541 19.6427C18.0997 19.6683 18.1468 19.6914 18.1947 19.7128C18.1987 19.7145 18.2025 19.7167 18.2066 19.7184C18.251 19.7378 18.297 19.7545 18.3432 19.7701C18.3511 19.7728 18.3587 19.7762 18.3666 19.7787C18.4093 19.7924 18.4535 19.8033 18.4977 19.8135C18.5096 19.8163 18.5211 19.8202 18.5332 19.8227C18.5761 19.8316 18.6203 19.8376 18.6647 19.8434C18.6781 19.845 18.6913 19.848 18.7049 19.8495C18.7627 19.8555 18.8215 19.8587 18.881 19.8587C19.1151 19.8587 19.3382 19.8112 19.5411 19.7253C19.6425 19.6825 19.7389 19.6301 19.8291 19.569C20.0097 19.4471 20.1653 19.2913 20.2872 19.111C20.3481 19.0207 20.4007 18.9244 20.4436 18.8229C20.5294 18.62 20.5769 18.3969 20.5769 18.1628C20.5769 18.1587 20.5764 18.1549 20.5764 18.1511C20.5762 18.1468 20.5757 18.1427 20.5755 18.1383ZM18.881 17.9396C18.5292 17.9396 18.244 17.6543 18.244 17.3025C18.244 16.9506 18.5292 16.6654 18.881 16.6654C19.2328 16.6654 19.518 16.9506 19.518 17.3025C19.518 17.6543 19.2328 17.9396 18.881 17.9396Z" fill="black"/>
<path d="M18.8809 16.6654C18.5291 16.6654 18.2439 16.9506 18.2439 17.3024C18.2439 17.6543 18.5291 17.9396 18.8809 17.9396C19.2328 17.9396 19.518 17.6543 19.518 17.3024C19.518 16.9506 19.2328 16.6654 18.8809 16.6654Z" fill="white"/>
<path d="M17.7141 16.934L17.7205 16.9326L17.7223 16.9268L18.8903 13.3546V12.5186C18.8903 12.5124 18.8902 12.5092 18.8902 12.5092C18.2397 12.3758 17.5708 12.3025 16.8863 12.3025C16.6578 12.3025 16.4311 12.3122 16.2058 12.3275C16.173 12.3298 16.1401 12.3317 16.1072 12.3343C14.9348 12.4233 13.7803 12.7289 12.7113 13.2168C11.7945 13.6355 10.9428 14.1869 10.1771 14.8406V14.8408C10.1768 14.8412 10.1762 14.8415 10.1758 14.8419C9.97021 15.0166 9.77319 15.2009 9.58081 15.3899C9.54481 15.4251 9.50825 15.4599 9.47267 15.4957C9.29155 15.6782 9.11647 15.8668 8.94716 16.0608C8.91046 16.1032 8.87431 16.1463 8.83803 16.1891C8.66802 16.3898 8.50264 16.5942 8.34556 16.8054C8.33249 16.8232 8.32025 16.8417 8.30731 16.8594C8.15755 17.0632 8.01495 17.2723 7.87756 17.4849C7.8507 17.5264 7.82314 17.5673 7.79685 17.6093C7.68575 17.7855 7.58239 17.9664 7.47974 18.1478H12.8006L17.7141 16.934Z" fill="#BBBCBD"/>
<path d="M22.2062 16.5321C22.217 16.3928 22.2259 16.2536 22.233 16.1141C22.2427 15.9253 22.2494 15.7363 22.253 15.5475C22.2558 15.4008 22.2554 15.254 22.2547 15.1073C22.2547 15.065 22.2557 15.0227 22.2553 14.9802C22.2513 14.6022 22.2366 14.2238 22.2135 13.8449C22.2124 13.8442 22.2114 13.8435 22.2103 13.8428C22.2098 13.8418 22.2093 13.841 22.2089 13.8402C22.2074 13.8392 22.202 13.8361 22.1969 13.8333C22.1924 13.8306 22.1885 13.8283 22.18 13.8236C22.1106 13.7836 21.9398 13.6859 21.7866 13.5988C21.7832 13.597 21.7799 13.595 21.7767 13.5932C21.7379 13.5713 21.7005 13.55 21.6666 13.5309C21.6659 13.5305 21.6652 13.5302 21.6646 13.5298C21.6354 13.5133 21.6109 13.4997 21.5883 13.487C21.5838 13.4845 21.5774 13.481 21.5732 13.4786C21.5483 13.4648 21.5291 13.4544 21.5177 13.4484C21.2731 13.3215 21.0235 13.2041 20.7697 13.0969C20.1646 12.8414 19.3495 12.6174 18.8904 12.5093V13.3547L20.0481 16.9326L20.0494 16.9356C20.1689 17.0495 20.2717 17.1804 20.3541 17.3247V17.3248C20.3811 17.3721 20.4059 17.4209 20.4283 17.4708C20.4288 17.4719 20.4294 17.4729 20.4297 17.4739C20.452 17.5237 20.4717 17.5747 20.489 17.6269C20.4894 17.6282 20.49 17.6293 20.4904 17.6304C20.5076 17.6826 20.5223 17.7357 20.5344 17.7899C20.5347 17.7914 20.5351 17.7927 20.5356 17.7941C20.5476 17.8488 20.5571 17.9046 20.5638 17.9612C20.5638 17.962 20.5641 17.9629 20.5642 17.9636C20.5708 18.0209 20.5746 18.0793 20.5755 18.1384L20.5799 18.1479H21.9975C22.0933 17.6292 22.1601 17.1035 22.2024 16.5756C22.2034 16.5611 22.2051 16.5466 22.2062 16.5321Z" fill="#E3DDDB"/>
<path d="M24.0601 15.2672C24.0592 15.2687 24.0585 15.2705 24.0576 15.2721C24.0585 15.2705 24.0593 15.2688 24.0601 15.2673" fill="#FCB03F"/>
<path d="M17.7224 16.9269C17.7981 16.8559 17.8803 16.7916 17.9679 16.7351C17.9682 16.7351 17.9685 16.7349 17.9689 16.7347C18.0557 16.6788 18.1481 16.6309 18.2448 16.5915C18.2474 16.5904 18.25 16.5897 18.2524 16.5885C18.3479 16.5503 18.4473 16.5202 18.5504 16.4997C18.5541 16.499 18.5576 16.4987 18.5614 16.498C18.665 16.4782 18.7715 16.4669 18.881 16.4669C18.9924 16.4669 19.101 16.4782 19.2063 16.4988C19.209 16.4994 19.2115 16.4995 19.2142 16.5C19.3192 16.521 19.4206 16.552 19.5176 16.5915C19.5192 16.5922 19.5209 16.5928 19.5226 16.5933C19.7193 16.6743 19.8977 16.7912 20.0495 16.9356L20.0482 16.9327L18.8904 13.3547L17.7224 16.9269Z" fill="#909393"/>
<path d="M17.3111 18.803C17.271 18.7053 17.2398 18.6032 17.2186 18.4973C17.218 18.495 17.2179 18.4926 17.2176 18.4905C17.1966 18.3845 17.1851 18.2751 17.1851 18.1629C17.1851 18.103 17.1885 18.044 17.1945 17.986C17.1959 17.9723 17.1989 17.9592 17.2006 17.9456C17.2063 17.9012 17.2125 17.8569 17.2215 17.8136C17.2242 17.801 17.2283 17.7889 17.2309 17.7763C17.2413 17.7326 17.2523 17.6888 17.2658 17.6462C17.2688 17.6373 17.2724 17.6289 17.2755 17.6199C17.291 17.5743 17.3076 17.5291 17.3268 17.4853C17.3289 17.4803 17.3318 17.4755 17.334 17.4704C17.3551 17.4232 17.378 17.3768 17.4033 17.3322C17.4045 17.3304 17.4056 17.3287 17.4064 17.327C17.4895 17.1814 17.5935 17.049 17.7143 16.9341L12.8007 18.148H12.7913L17.658 19.3358C17.5122 19.1838 17.3942 19.0048 17.3126 18.8071C17.3119 18.8058 17.3117 18.8044 17.3111 18.803Z" fill="#676A6A"/>
<path d="M28.3666 17.8824C28.3697 17.8604 28.3743 17.8399 28.3781 17.8185C28.3903 17.7486 28.405 17.6806 28.4238 17.6159C28.4259 17.6086 28.4268 17.6003 28.429 17.5931L29.0701 14.6574L29.07 12.9836C28.5462 12.5509 27.9852 12.3143 27.4012 12.3143C26.6632 12.3143 25.9751 12.7219 25.4606 13.2252C24.8975 13.776 24.4624 14.469 24.1106 15.1683C24.0944 15.2005 24.0778 15.2315 24.0618 15.2638C24.1702 15.3577 24.2775 15.4529 24.3834 15.5498C24.623 15.7691 24.8574 15.9941 25.0888 16.2222C25.1965 16.3285 25.3022 16.437 25.4083 16.5452C25.5208 16.6598 25.6334 16.7741 25.7442 16.8905C25.8867 17.0403 26.0278 17.1913 26.1676 17.3439C26.2265 17.408 26.2853 17.4725 26.3435 17.5371C26.5122 17.7238 26.6799 17.9112 26.8449 18.1012L26.8452 18.1015C26.8729 18.1304 26.8923 18.1513 26.8997 18.1597H28.3456C28.3456 18.148 28.348 18.1373 28.3482 18.1257C28.3496 18.0421 28.3553 17.9606 28.3666 17.8824Z" fill="#E3DDDB"/>
<path d="M24.0617 15.2715C24.0611 15.27 24.0606 15.2684 24.0601 15.2672C24.0593 15.2687 24.0585 15.2704 24.0576 15.2719C24.0585 15.2728 24.0627 15.277 24.0639 15.2781C24.0632 15.2759 24.0625 15.2738 24.0617 15.2715Z" fill="#E3DDDB"/>
<path d="M6.608 19.9952C6.61222 19.9844 6.61672 19.9737 6.62094 19.9629C6.71404 19.7195 6.81599 19.4793 6.923 19.2413C6.95296 19.1751 6.98375 19.1094 7.01469 19.0436C7.10244 18.8569 7.19525 18.6726 7.29144 18.4901C7.33054 18.4159 7.36879 18.3413 7.40929 18.2678C7.43164 18.2271 7.45696 18.1883 7.47974 18.1478C7.58239 17.9664 7.68575 17.7854 7.79685 17.6092C7.82314 17.5672 7.85071 17.5264 7.87757 17.4849C8.01496 17.2723 8.15755 17.0632 8.30732 16.8594C8.32025 16.8417 8.33249 16.8231 8.34557 16.8054C8.50264 16.5942 8.66802 16.3897 8.83804 16.1891C8.87432 16.1463 8.91032 16.1033 8.94716 16.0608C9.11647 15.8668 9.29155 15.6782 9.47268 15.4956C9.50839 15.4599 9.54482 15.4251 9.58082 15.3899C9.77319 15.2009 9.97021 15.0165 10.1758 14.8419C10.1762 14.8415 10.1768 14.841 10.1771 14.8406C10.9858 12.1316 13.5972 10.4669 16.5252 10.4669C17.7036 10.4669 18.8756 10.8065 19.8799 11.4209C20.9101 12.051 21.6126 12.6667 22.1579 13.7429C22.1606 13.7484 22.1634 13.7537 22.1661 13.7591C22.1798 13.7863 22.1953 13.8125 22.2088 13.8401C22.2092 13.8409 22.2098 13.8418 22.2102 13.8427C22.2113 13.8434 22.2123 13.8441 22.2134 13.8448C22.6696 14.1258 23.1049 14.4443 23.5186 14.7934C23.6565 14.9098 23.7921 15.0295 23.9253 15.1525C23.9691 15.1927 24.0143 15.231 24.0576 15.2719C24.0584 15.2702 24.0591 15.2685 24.0601 15.267C24.0605 15.2659 24.0611 15.2646 24.0617 15.2636C24.0766 15.2331 24.0912 15.202 24.1063 15.1719C24.5188 12.568 25.8298 11.1481 27.1845 11.1481C28.2058 11.1481 28.9481 11.757 29.5088 13.3961L29.5146 13.4137C29.515 13.4143 29.5155 13.415 29.516 13.4157C29.6743 13.5876 29.8286 13.7772 29.9782 13.9849L29.9779 13.9848C29.9809 13.9887 29.984 13.9924 29.9869 13.9964L29.9868 13.9963L29.9869 13.9964C29.9949 14.0202 30.0018 14.0447 30.0096 14.0684V14.0683L29.9885 13.9829C28.3031 8.99329 23.5837 5.40088 18.0251 5.40088C11.0529 5.40088 5.40088 11.0529 5.40088 18.0251C5.40088 19.3995 5.62054 20.7228 6.02835 21.9541C6.02877 21.9519 6.02947 21.9495 6.03004 21.947C6.11019 21.5756 6.20624 21.2064 6.31804 20.8412C6.40522 20.5566 6.50211 20.2742 6.608 19.9952Z" fill="#525353"/>
<path d="M30.1771 18.1646L29.7368 18.6572V18.657C29.7366 18.6581 29.7361 18.6591 29.7359 18.6603C29.7191 18.7251 29.6986 18.7856 29.6759 18.8439C29.67 18.8592 29.6634 18.8737 29.657 18.8886C29.6395 18.93 29.6207 18.9691 29.6003 19.0063C29.5895 19.0263 29.5788 19.0466 29.5671 19.0653C29.5488 19.0945 29.5291 19.1211 29.5092 19.1472C29.4803 19.1848 29.45 19.2185 29.418 19.2484C29.405 19.2606 29.3923 19.2739 29.3785 19.2849C29.3539 19.3047 29.3282 19.3212 29.302 19.3362C29.2919 19.3419 29.2821 19.3472 29.2719 19.3523C29.2088 19.3831 29.1426 19.4011 29.0736 19.4011C28.6736 19.4011 28.3491 18.8453 28.3491 18.1596H26.8955C26.8959 18.1601 26.8961 18.1605 26.8964 18.1608C27.1664 18.4724 27.4316 18.7882 27.6933 19.1072C27.6964 19.1111 27.6995 19.1149 27.7027 19.1187C27.9571 19.4292 28.2077 19.7425 28.4556 20.0579C28.4678 20.0734 28.4799 20.0887 28.4922 20.1042C28.7273 20.404 28.9597 20.7058 29.1902 21.0084C29.2126 21.0375 29.2351 21.0668 29.2574 21.0962C29.5011 21.4168 29.7426 21.7383 29.9824 22.0601C29.9841 22.0625 29.9856 22.0647 29.9874 22.0669C30.4027 20.8381 30.635 19.5254 30.6495 18.1596L30.2408 18.1442L30.1771 18.1646Z" fill="white"/>
<path d="M16.1074 12.3344C16.1403 12.3318 16.1732 12.3299 16.206 12.3276C16.4313 12.3123 16.6579 12.3026 16.8865 12.3026C17.571 12.3026 18.2398 12.3759 18.8904 12.5093H18.8905C19.3497 12.6175 20.1647 12.8415 20.7698 13.097C21.0237 13.2041 21.2733 13.3216 21.5178 13.4484C21.5292 13.4544 21.5485 13.465 21.5734 13.4786C21.5776 13.481 21.5839 13.4845 21.5884 13.4871C21.611 13.4997 21.6358 13.5134 21.6648 13.5298C21.6653 13.5302 21.666 13.5305 21.6667 13.531C21.7008 13.5502 21.7379 13.5713 21.7768 13.5932C21.7801 13.5951 21.7833 13.597 21.7867 13.5989C21.9422 13.687 22.1143 13.7859 22.1802 13.8236C22.1886 13.8284 22.1925 13.8306 22.197 13.8333C22.2004 13.8353 22.2077 13.8393 22.209 13.8402C22.1955 13.8126 22.18 13.7865 22.1662 13.7592C22.1636 13.7538 22.1607 13.7485 22.1581 13.743C21.6127 12.6668 20.7732 11.7437 19.743 11.1136C18.7386 10.4992 17.5667 10.1596 16.3881 10.1596C13.4603 10.1596 10.986 12.1317 10.1772 14.8407C10.9429 14.187 11.7947 13.6356 12.7114 13.2169C13.7805 12.729 14.935 12.4234 16.1074 12.3344Z" fill="black"/>
<path d="M29.987 13.9964L29.9869 13.9963L29.987 13.9964C29.9841 13.9924 29.981 13.9887 29.978 13.9848L29.9783 13.9849C29.8287 13.7772 29.6744 13.5876 29.5161 13.4157C29.5158 13.4151 29.5153 13.4144 29.5148 13.414C29.5153 13.4144 29.5158 13.4151 29.5161 13.4157C29.5148 13.4141 29.5134 13.4123 29.512 13.4107C29.44 13.3328 29.3676 13.2584 29.2939 13.1879C29.2662 13.1613 29.2375 13.1381 29.2095 13.1126C29.1633 13.0706 29.1173 13.0271 29.0703 12.9886V14.6633L29.7114 17.5993V17.5991C29.7185 17.6219 29.7269 17.6433 29.7331 17.6669L30.1772 18.1646L30.1815 18.1596H30.6463C30.6469 18.1166 30.6495 18.0741 30.6495 18.031V18.0303C30.6494 16.6455 30.4219 15.3149 30.0097 14.0683V14.0684C30.002 14.0447 29.9951 14.0202 29.987 13.9964Z" fill="#BBBCBD"/>
<path d="M25.4608 13.2252C25.9754 12.7219 26.6634 12.3144 27.4014 12.3144C27.9854 12.3144 28.5464 12.5509 29.0702 12.9836C29.0702 12.9836 29.0704 12.9874 29.0704 12.9887V12.9895V12.9887C29.1173 13.0272 29.1633 13.0707 29.2096 13.1127C29.2376 13.1382 29.2663 13.1614 29.294 13.188C29.3676 13.2585 29.4401 13.3329 29.5121 13.4108C29.5135 13.4124 29.5149 13.4142 29.5161 13.4158C29.5159 13.4152 29.5153 13.4145 29.5149 13.4141L29.5147 13.4139L29.509 13.3962C28.9483 11.7571 28.0437 10.6921 27.0227 10.6921C25.6678 10.6921 24.519 12.5681 24.1064 15.172L24.1108 15.1684C24.4626 14.469 24.8977 13.776 25.4608 13.2252Z" fill="black"/>
<path d="M23.63 29.2291C23.63 29.2291 23.4476 29.0845 23.216 28.818C23.1617 28.7556 23.1057 28.6888 23.0475 28.6127C23.0038 28.5558 22.9595 28.4949 22.9152 28.4303C22.8857 28.3873 22.8564 28.3426 22.8273 28.2965C22.7397 28.1579 22.6698 27.9893 22.5927 27.8227C22.5036 27.6298 22.5033 27.5014 22.4521 27.3216C22.4156 27.1931 22.3852 27.0588 22.3625 26.919C22.3287 26.7095 22.3125 26.4876 22.3199 26.2542C22.3239 26.1258 22.3371 25.9929 22.3564 25.8576C22.3749 25.7275 22.4005 25.5943 22.4347 25.4584C22.5368 25.0501 22.7133 24.6153 22.9886 24.1563C22.9893 24.1551 23.0579 24.0004 23.0586 23.9991C23.1486 23.8492 23.1686 23.8558 23.2541 23.7114C24.4584 21.6789 25.1081 20.142 24.7903 17.7756C24.7675 17.6067 24.7055 17.2283 24.6716 17.0505C24.6536 17.1734 24.5857 17.5651 24.5837 17.5735C24.5718 17.6275 24.539 17.6862 24.5266 17.7229C24.0035 19.2711 23.18 20.4101 21.9951 21.6961C21.8345 21.8703 21.6663 22.0471 21.4942 22.2255C21.2045 22.5258 20.9007 22.8325 20.5794 23.1523C20.4512 23.2798 20.3204 23.4092 20.1874 23.5411C20.0652 23.662 19.9131 23.9206 19.7317 24.1112C19.6198 24.4246 19.4925 24.7782 19.3849 25.15C19.3364 25.1316 19.2902 25.1151 19.2408 25.096C16.9391 24.2057 15.3979 23.0161 15.3979 23.0161C15.3979 23.0161 16.5837 24.5601 18.5814 26.0093C18.7748 26.1497 18.9655 26.2712 19.1522 26.3789C19.0698 27.6833 19.6452 28.9356 22.2427 29.3091C22.6819 29.3722 23.1316 29.3693 23.5846 29.3182C23.5801 29.3047 23.6099 29.305 23.6075 29.2976C23.605 29.29 23.6317 29.27 23.6317 29.27" fill="black"/>
<path d="M22.2404 25.8713C24.5464 26.2434 27.9592 26.1824 31.5021 24.5236C31.5875 24.4836 31.6816 24.5888 31.7669 24.5469C31.7669 24.5469 29.3455 27.0201 26.4537 28.4183C26.3692 28.4591 26.2858 28.5026 26.2004 28.5414C25.921 28.6691 25.6368 28.7803 25.3515 28.8829C24.7919 29.084 24.2249 29.2366 23.662 29.3071C23.6361 29.3104 23.6103 29.3154 23.5844 29.3182C23.5799 29.3047 23.5762 29.2937 23.5738 29.2863C23.5713 29.2787 23.57 29.2746 23.57 29.2746C23.57 29.2746 23.3875 29.1299 23.1559 28.8634C23.1016 28.801 23.0456 28.7342 22.9876 28.6581C22.9438 28.6011 22.8995 28.5402 22.8552 28.4757C22.8257 28.4327 22.7963 28.3879 22.7672 28.3418C22.6797 28.2033 22.5947 28.0502 22.5176 27.8837C22.4407 27.7172 22.3718 27.537 22.3169 27.3441C22.2802 27.2156 22.2499 27.0813 22.2272 26.9415C22.1933 26.7318 22.1773 26.51 22.1846 26.2766C22.1885 26.1481 22.2018 26.0153 22.221 25.88L22.2404 25.8713Z" fill="#9F2254"/>
<path d="M20.5878 23.2462C20.9093 22.9264 21.213 22.6197 21.5027 22.3195C21.6747 22.141 21.843 21.9642 22.0036 21.79C23.1884 20.504 24.0582 19.3005 24.5814 17.7522C24.5937 17.7155 24.606 17.6672 24.618 17.6127C24.62 17.6043 24.6218 17.5963 24.6236 17.5876C24.6358 17.5298 24.6478 17.4655 24.6598 17.3931C24.6645 17.3432 24.821 17.2425 24.8254 17.1956C24.6942 16.5215 24.3919 15.8127 24.0618 15.2716C24.0627 15.2739 24.0634 15.276 24.0641 15.2782C24.0628 15.2771 24.0586 15.2729 24.0577 15.272C24.0144 15.2311 23.9693 15.1929 23.9254 15.1526C23.7922 15.0296 23.6567 14.9099 23.5187 14.7935C23.1049 14.4445 22.6698 14.1259 22.2136 13.845C22.2366 14.2238 22.2514 14.6022 22.2553 14.9802C22.2559 15.0227 22.2548 15.065 22.2548 15.1074C22.2555 15.254 22.2559 15.4008 22.2531 15.5475C22.2494 15.7364 22.2428 15.9254 22.2331 16.1141C22.226 16.2536 22.2171 16.3928 22.2063 16.5322C22.2051 16.5467 22.2035 16.5611 22.2025 16.5756C22.1601 17.1035 22.0933 17.6292 21.9976 18.148L21.8311 18.9353C21.4833 20.3452 20.777 21.6241 20.1962 22.9445C20.0422 23.2947 19.8961 23.6488 19.768 24.0095C19.7563 24.0425 19.7438 24.0773 19.7317 24.1113C19.9131 23.9208 20.0737 23.7559 20.1958 23.635C20.3289 23.5032 20.4597 23.3737 20.5878 23.2462Z" fill="#FCB03F"/>
<path d="M12.9675 30.829C13.8126 30.4552 14.5946 30.2205 15.5241 30.0373C15.5188 29.8355 15.5096 29.6342 15.4926 29.4343C15.8907 28.4015 16.2582 27.3622 16.5906 26.3169C15.9979 26.3744 15.4095 26.4658 14.828 26.5893C14.3967 26.6808 13.9712 26.7959 13.5492 26.923C13.2101 27.0251 12.8756 27.1424 12.5437 27.2671L13.8559 27.5849L12.8001 30.8989L12.9675 30.829Z" fill="#525353"/>
<path d="M29.1903 21.0084C28.9598 20.7057 28.7273 20.404 28.4922 20.1041C28.4801 20.0887 28.4678 20.0733 28.4557 20.0579C28.2077 19.7425 27.9571 19.4291 27.7028 19.1186C27.6995 19.1148 27.6964 19.111 27.6933 19.1071C27.4316 18.7882 27.1664 18.4723 26.8964 18.1607C26.8794 18.1409 26.8624 18.1208 26.8451 18.1011C26.6801 17.9111 26.5124 17.7236 26.3438 17.537C26.2854 17.4725 26.2268 17.4079 26.1678 17.3438C26.028 17.1912 25.8869 17.0402 25.7444 16.8904C25.6335 16.7741 25.5211 16.6595 25.4085 16.5451C25.3024 16.4369 25.1967 16.3284 25.089 16.2221C24.8575 15.9941 24.6232 15.769 24.3836 15.5497C24.2776 15.4528 24.1703 15.3575 24.0618 15.2635C24.0613 15.2645 24.0607 15.2658 24.0603 15.2669C24.2884 15.9225 24.5487 16.5863 24.679 17.27C24.7129 17.4479 24.7409 17.6208 24.7637 17.7899C25.0815 20.1562 24.3233 21.7012 23.1191 23.7337C23.0326 23.8794 22.9441 24.0276 22.8534 24.1786C22.5781 24.6379 22.4018 25.0726 22.2995 25.4808C22.2655 25.6168 22.2398 25.75 22.2212 25.88C24.5827 26.2611 28.1338 26.3321 31.7671 24.5469C31.7671 24.5469 31.0546 23.4997 29.9824 22.0601C29.7427 21.7382 29.5012 21.4167 29.2575 21.0961C29.2353 21.0667 29.2126 21.0375 29.1903 21.0084Z" fill="#DF0067"/>
<path d="M12.6746 31.4913L13.8558 27.585L12.5437 27.2672C12.2498 27.3776 11.9585 27.4953 11.6711 27.6233L10.5012 31.4913L11.8072 31.5117L12.6746 31.4913Z" fill="#AA9678"/>
<path d="M13.505 29.8011C13.6203 29.8454 13.7375 29.8853 13.8545 29.9262C15.1602 30.384 16.5628 30.636 18.0252 30.636C19.6926 30.636 21.2829 30.3094 22.7401 29.7222C22.8171 29.6913 22.8927 29.6572 22.9689 29.6247C23.0926 29.572 23.2155 29.5179 23.3372 29.4615C23.446 29.4108 23.5549 29.3606 23.662 29.3071C23.6361 29.3104 23.6103 29.3154 23.5844 29.3182C23.1314 29.3692 22.6817 29.3722 22.2425 29.309C19.6451 28.9355 19.0696 27.6833 19.152 26.3788C18.9653 26.2711 18.7746 26.1496 18.5812 26.0093C16.5835 24.56 15.3978 23.0161 15.3978 23.0161C15.3978 23.0161 16.9389 24.2056 19.2406 25.0959C19.29 25.115 19.3362 25.1315 19.3848 25.1499C19.4923 24.7781 19.6196 24.4246 19.7315 24.1111C19.7436 24.0771 19.7562 24.0423 19.7678 24.0093C19.8959 23.6486 20.042 23.2945 20.196 22.9443C20.7768 21.6239 21.4832 20.345 21.8309 18.9351L21.9974 18.1478H20.5768L20.5767 18.1479C20.5767 18.1488 20.5768 18.1497 20.5768 18.1507L20.5763 18.151C20.5763 18.1548 20.5768 18.1586 20.5768 18.1627C20.5768 18.3968 20.5293 18.6198 20.4435 18.8228C20.4006 18.9243 20.348 19.0206 20.2872 19.1109C20.1652 19.2912 20.0096 19.447 19.829 19.5689C19.7389 19.63 19.6424 19.6824 19.541 19.7252C19.3381 19.8111 19.115 19.8586 18.8809 19.8586C18.8214 19.8586 18.7626 19.8554 18.7048 19.8493C18.6912 19.8479 18.6781 19.845 18.6646 19.8433C18.6202 19.8375 18.576 19.8315 18.5331 19.8226C18.521 19.8199 18.5095 19.8161 18.4976 19.8133C18.4534 19.8032 18.4092 19.7922 18.3665 19.7786C18.3586 19.7759 18.351 19.7727 18.3432 19.77C18.2969 19.7544 18.2509 19.7377 18.2065 19.7183C18.2024 19.7166 18.1986 19.7145 18.1947 19.7126C18.1467 19.6913 18.0996 19.6682 18.054 19.6426L18.0519 19.6413C17.906 19.5589 17.7732 19.4559 17.6579 19.3356L12.7911 18.1478H7.47973C7.45695 18.1883 7.43164 18.2271 7.40928 18.2677C7.36878 18.3413 7.33053 18.4159 7.29144 18.49C7.19525 18.6726 7.10244 18.8568 7.01469 19.0435C6.98375 19.1092 6.95295 19.175 6.923 19.2413C6.81598 19.4792 6.71403 19.7194 6.62094 19.9628C6.61672 19.9736 6.61222 19.9843 6.608 19.9952C6.50211 20.2742 6.40522 20.5565 6.31803 20.8412C6.20623 21.2064 6.11019 21.5755 6.03003 21.9469C6.86619 24.4973 8.49308 26.6888 10.6197 28.2334C10.6816 28.2783 10.7469 28.3182 10.8096 28.3621C11.1693 28.6135 11.541 28.8488 11.9266 29.0622C12.4328 29.3428 12.959 29.5915 13.505 29.8011Z" fill="white"/>
<path d="M26.2401 32.8205C26.2075 32.485 26.1872 32.1466 26.1872 31.8046C26.1872 31.599 26.0206 31.4321 25.8148 31.4321H10.1897C9.98397 31.4321 9.81719 31.599 9.81719 31.8046C9.81719 32.1466 9.79708 32.485 9.76431 32.8205C9.72803 33.1916 9.6708 33.5578 9.5957 33.9185C9.82225 34.0383 10.0506 34.1549 10.2829 34.2654C10.4357 33.5944 10.5299 32.9049 10.5546 32.2013C10.555 32.1933 10.5559 32.1852 10.5562 32.1772H25.4484C25.4486 32.1852 25.4495 32.1933 25.4498 32.2013C25.4747 32.9049 25.5689 33.5944 25.7216 34.2654C25.9539 34.1549 26.1823 34.0383 26.4088 33.9185C26.3337 33.5578 26.2765 33.1916 26.2401 32.8205Z" fill="#8B7460"/>
</g>
<defs>
<clipPath id="clip0_202_11078">
<rect width="37" height="37" fill="white"/>
</clipPath>
</defs>
</svg>
