<svg width="37" height="37" viewBox="0 0 37 37" fill="none" xmlns="http://www.w3.org/2000/svg">
<g clip-path="url(#clip0_202_15879)">
<path d="M23.3045 6.86279H16.1393C15.751 6.86279 15.4362 7.17759 15.4362 7.56592V7.87395C15.4362 8.26228 15.751 8.57708 16.1393 8.57708H23.3045C23.6928 8.57708 24.0076 8.26228 24.0076 7.87395V7.56592C24.0076 7.17759 23.6928 6.86279 23.3045 6.86279Z" fill="#BF85BF"/>
<path d="M0.710693 13.7199H9.59016C9.97848 13.7199 10.2933 14.0347 10.2933 14.423V14.7311C10.2933 15.1194 9.97848 15.4342 9.59016 15.4342H0.710693C0.322368 15.4342 0.00756836 15.1194 0.00756836 14.7311V14.423C0.00756836 14.0347 0.322368 13.7199 0.710693 13.7199Z" fill="#BF85BF"/>
<path d="M26.733 20.577H21.2821C20.8938 20.577 20.579 20.8918 20.579 21.2802V21.5882C20.579 21.9765 20.8938 22.2913 21.2821 22.2913H26.733C27.1213 22.2913 27.4361 21.9765 27.4361 21.5882V21.2802C27.4361 20.8918 27.1213 20.577 26.733 20.577Z" fill="#BF85BF"/>
<path d="M9.59016 27.4342H0.710693C0.322368 27.4342 0.00756836 27.749 0.00756836 28.1373V28.4454C0.00756836 28.8337 0.322368 29.1485 0.710693 29.1485H9.59016C9.97848 29.1485 10.2933 28.8337 10.2933 28.4454V28.1373C10.2933 27.749 9.97848 27.4342 9.59016 27.4342Z" fill="#BF85BF"/>
<path d="M0.710693 24.0056H2.73301C3.12134 24.0056 3.43614 24.3204 3.43614 24.7087V25.0168C3.43614 25.4051 3.12134 25.7199 2.73301 25.7199H0.710693C0.322368 25.7199 0.00756836 25.4051 0.00756836 25.0168V24.7087C0.00756836 24.3204 0.322368 24.0056 0.710693 24.0056Z" fill="#BF85BF"/>
<path d="M0.710693 3.4342H6.16159C6.54991 3.4342 6.86471 3.749 6.86471 4.13733V4.44536C6.86471 4.83369 6.54991 5.14849 6.16159 5.14849H0.710693C0.322368 5.14849 0.00756836 4.83369 0.00756836 4.44536V4.13733C0.00756836 3.749 0.322368 3.4342 0.710693 3.4342Z" fill="#EA5E5E"/>
<path d="M18.1616 20.577H10.9965C10.6081 20.577 10.2933 20.8918 10.2933 21.2802V21.5882C10.2933 21.9765 10.6081 22.2913 10.9965 22.2913H18.1616C18.55 22.2913 18.8648 21.9765 18.8648 21.5882V21.2802C18.8648 20.8918 18.55 20.577 18.1616 20.577Z" fill="#EA5E5E"/>
<path d="M9.59016 34.2913H0.710693C0.322368 34.2913 0.00756836 34.6061 0.00756836 34.9944V35.3025C0.00756836 35.6908 0.322368 36.0056 0.710693 36.0056H9.59016C9.97848 36.0056 10.2933 35.6908 10.2933 35.3025V34.9944C10.2933 34.6061 9.97848 34.2913 9.59016 34.2913Z" fill="#EA5E5E"/>
<path d="M2.73301 17.1485H0.710693C0.322368 17.1485 0.00756836 17.4633 0.00756836 17.8516V18.1597C0.00756836 18.548 0.322368 18.8628 0.710693 18.8628H2.73301C3.12134 18.8628 3.43614 18.548 3.43614 18.1597V17.8516C3.43614 17.4633 3.12134 17.1485 2.73301 17.1485Z" fill="#EA5E5E"/>
<path d="M21.2821 10.2913H30.1616C30.5499 10.2913 30.8647 10.6061 30.8647 10.9944V11.3025C30.8647 11.6908 30.5499 12.0056 30.1616 12.0056H21.2821C20.8938 12.0056 20.579 11.6908 20.579 11.3025V10.9944C20.579 10.6061 20.8938 10.2913 21.2821 10.2913Z" fill="#EA5E5E"/>
<path d="M9.2821 3.4342H26.733C27.1213 3.4342 27.4361 3.749 27.4361 4.13733V4.44536C27.4361 4.83369 27.1213 5.14849 26.733 5.14849H9.2821C8.89378 5.14849 8.57898 4.83369 8.57898 4.44536V4.13733C8.57898 3.749 8.89378 3.4342 9.2821 3.4342Z" fill="#F7BA3E"/>
<path d="M7.56781 30.8627H9.59013C9.97846 30.8627 10.2933 31.1775 10.2933 31.5659V31.8739C10.2933 32.2622 9.97846 32.577 9.59013 32.577H7.56781C7.17948 32.577 6.86469 32.2622 6.86469 31.8739V31.5659C6.86469 31.1775 7.17948 30.8627 7.56781 30.8627Z" fill="#F7BA3E"/>
<path d="M4.4473 10.2913H0.710693C0.322368 10.2913 0.00756836 10.6061 0.00756836 10.9944V11.3025C0.00756836 11.6908 0.322368 12.0056 0.710693 12.0056H4.4473C4.83563 12.0056 5.15043 11.6908 5.15043 11.3025V10.9944C5.15043 10.6061 4.83563 10.2913 4.4473 10.2913Z" fill="#F7BA3E"/>
<path d="M5.85352 17.1485H11.3044C11.6927 17.1485 12.0075 17.4633 12.0075 17.8516V18.1597C12.0075 18.548 11.6927 18.8628 11.3044 18.8628H5.85352C5.46519 18.8628 5.15039 18.548 5.15039 18.1597V17.8516C5.15039 17.4633 5.46519 17.1485 5.85352 17.1485Z" fill="#F7BA3E"/>
<path d="M21.5901 24.0056H5.85352C5.46519 24.0056 5.15039 24.3204 5.15039 24.7087V25.0168C5.15039 25.4051 5.46519 25.7199 5.85352 25.7199H21.5901C21.9784 25.7199 22.2932 25.4051 22.2932 25.0168V24.7087C22.2932 24.3204 21.9784 24.0056 21.5901 24.0056Z" fill="#F7BA3E"/>
<path d="M21.2821 13.7199H30.1616C30.5499 13.7199 30.8647 14.0347 30.8647 14.423V14.7311C30.8647 15.1194 30.5499 15.4342 30.1616 15.4342H21.2821C20.8938 15.4342 20.579 15.1194 20.579 14.7311V14.423C20.579 14.0347 20.8938 13.7199 21.2821 13.7199Z" fill="#F7BA3E"/>
<path d="M0.710693 0.00561523H21.5902C21.9785 0.00561523 22.2933 0.320415 22.2933 0.70874V1.01678C22.2933 1.4051 21.9785 1.7199 21.5902 1.7199H0.710693C0.322368 1.7199 0.00756836 1.4051 0.00756836 1.01678V0.70874C0.00756836 0.320415 0.322368 0.00561523 0.710693 0.00561523Z" fill="#56B3B4"/>
<path d="M28.4472 6.86279H26.4249C26.0366 6.86279 25.7218 7.17759 25.7218 7.56592V7.87395C25.7218 8.26228 26.0366 8.57708 26.4249 8.57708H28.4472C28.8356 8.57708 29.1504 8.26228 29.1504 7.87395V7.56592C29.1504 7.17759 28.8356 6.86279 28.4472 6.86279Z" fill="#56B3B4"/>
<path d="M7.87587 20.577H0.710693C0.322368 20.577 0.00756836 20.8918 0.00756836 21.2802V21.5882C0.00756836 21.9765 0.322368 22.2913 0.710693 22.2913H7.87587C8.2642 22.2913 8.579 21.9765 8.579 21.5882V21.2802C8.579 20.8918 8.2642 20.577 7.87587 20.577Z" fill="#56B3B4"/>
<path d="M7.56781 10.2913H9.59013C9.97846 10.2913 10.2933 10.6061 10.2933 10.9944V11.3025C10.2933 11.6908 9.97846 12.0056 9.59013 12.0056H7.56781C7.17948 12.0056 6.86469 11.6908 6.86469 11.3025V10.9944C6.86469 10.6061 7.17948 10.2913 7.56781 10.2913Z" fill="#56B3B4"/>
<path d="M4.4473 30.8627H0.710693C0.322368 30.8627 0.00756836 31.1775 0.00756836 31.5659V31.8739C0.00756836 32.2622 0.322368 32.577 0.710693 32.577H4.4473C4.83563 32.577 5.15043 32.2622 5.15043 31.8739V31.5659C5.15043 31.1775 4.83563 30.8627 4.4473 30.8627Z" fill="#56B3B4"/>
<path d="M14.425 17.1485H28.4473C28.8356 17.1485 29.1504 17.4633 29.1504 17.8516V18.1597C29.1504 18.548 28.8356 18.8628 28.4473 18.8628H14.425C14.0367 18.8628 13.7219 18.548 13.7219 18.1597V17.8516C13.7219 17.4633 14.0367 17.1485 14.425 17.1485Z" fill="#56B3B4"/>
<path d="M13.0187 6.86279H0.710693C0.322368 6.86279 0.00756836 7.17759 0.00756836 7.56592V7.87395C0.00756836 8.26228 0.322368 8.57708 0.710693 8.57708H13.0187C13.4071 8.57708 13.7219 8.26228 13.7219 7.87395V7.56592C13.7219 7.17759 13.4071 6.86279 13.0187 6.86279Z" fill="#56B3B4"/>
<g opacity="0.5">
<path d="M24.7107 0.00561523H35.3044C35.6928 0.00561523 36.0076 0.320415 36.0076 0.70874V1.01678C36.0076 1.4051 35.6928 1.7199 35.3044 1.7199H24.7107C24.3224 1.7199 24.0076 1.4051 24.0076 1.01678V0.70874C24.0076 0.320415 24.3224 0.00561523 24.7107 0.00561523Z" fill="#D0D4D8"/>
<path d="M12.7107 30.8627H19.8759C20.2642 30.8627 20.579 31.1775 20.579 31.5659V31.8739C20.579 32.2622 20.2642 32.577 19.8759 32.577H12.7107C12.3224 32.577 12.0076 32.2622 12.0076 31.8739V31.5659C12.0076 31.1775 12.3224 30.8627 12.7107 30.8627Z" fill="#D0D4D8"/>
<path d="M22.9964 30.8627H25.0187C25.407 30.8627 25.7218 31.1775 25.7218 31.5659V31.8739C25.7218 32.2622 25.407 32.577 25.0187 32.577H22.9964C22.6081 32.577 22.2933 32.2622 22.2933 31.8739V31.5659C22.2933 31.1775 22.6081 30.8627 22.9964 30.8627Z" fill="#D0D4D8"/>
<path d="M35.3045 30.8627H28.1393C27.751 30.8627 27.4362 31.1775 27.4362 31.5659V31.8739C27.4362 32.2622 27.751 32.577 28.1393 32.577H35.3045C35.6928 32.577 36.0076 32.2622 36.0076 31.8739V31.5659C36.0076 31.1775 35.6928 30.8627 35.3045 30.8627Z" fill="#D0D4D8"/>
<path d="M28.4473 24.0056H24.7107C24.3224 24.0056 24.0076 24.3204 24.0076 24.7087V25.0168C24.0076 25.4051 24.3224 25.7199 24.7107 25.7199H28.4473C28.8356 25.7199 29.1504 25.4051 29.1504 25.0168V24.7087C29.1504 24.3204 28.8356 24.0056 28.4473 24.0056Z" fill="#D0D4D8"/>
<path d="M31.5679 24.0056H35.3045C35.6928 24.0056 36.0076 24.3204 36.0076 24.7087V25.0168C36.0076 25.4051 35.6928 25.7199 35.3045 25.7199H31.5679C31.1795 25.7199 30.8647 25.4051 30.8647 25.0168V24.7087C30.8647 24.3204 31.1795 24.0056 31.5679 24.0056Z" fill="#D0D4D8"/>
<path d="M35.3045 20.577H29.8536C29.4653 20.577 29.1505 20.8918 29.1505 21.2802V21.5882C29.1505 21.9765 29.4653 22.2913 29.8536 22.2913H35.3045C35.6928 22.2913 36.0076 21.9765 36.0076 21.5882V21.2802C36.0076 20.8918 35.6928 20.577 35.3045 20.577Z" fill="#D0D4D8"/>
<path d="M29.8536 3.4342H35.3045C35.6928 3.4342 36.0076 3.749 36.0076 4.13733V4.44536C36.0076 4.83369 35.6928 5.14849 35.3045 5.14849H29.8536C29.4653 5.14849 29.1505 4.83369 29.1505 4.44536V4.13733C29.1505 3.749 29.4653 3.4342 29.8536 3.4342Z" fill="#D0D4D8"/>
<path d="M35.3045 17.1485H31.5679C31.1795 17.1485 30.8647 17.4633 30.8647 17.8516V18.1597C30.8647 18.548 31.1795 18.8628 31.5679 18.8628H35.3045C35.6928 18.8628 36.0076 18.548 36.0076 18.1597V17.8516C36.0076 17.4633 35.6928 17.1485 35.3045 17.1485Z" fill="#D0D4D8"/>
<path d="M31.5679 6.86279H35.3045C35.6928 6.86279 36.0076 7.17759 36.0076 7.56592V7.87395C36.0076 8.26228 35.6928 8.57708 35.3045 8.57708H31.5679C31.1795 8.57708 30.8647 8.26228 30.8647 7.87395V7.56592C30.8647 7.17759 31.1795 6.86279 31.5679 6.86279Z" fill="#D0D4D8"/>
<path d="M35.3044 10.2913H33.2821C32.8938 10.2913 32.579 10.6061 32.579 10.9944V11.3025C32.579 11.6908 32.8938 12.0056 33.2821 12.0056H35.3044C35.6927 12.0056 36.0075 11.6908 36.0075 11.3025V10.9944C36.0075 10.6061 35.6927 10.2913 35.3044 10.2913Z" fill="#D0D4D8"/>
<path d="M33.2821 13.7199H35.3044C35.6927 13.7199 36.0075 14.0347 36.0075 14.423V14.7311C36.0075 15.1194 35.6927 15.4342 35.3044 15.4342H33.2821C32.8938 15.4342 32.579 15.1194 32.579 14.7311V14.423C32.579 14.0347 32.8938 13.7199 33.2821 13.7199Z" fill="#D0D4D8"/>
<path d="M35.3044 27.4342H19.5678C19.1795 27.4342 18.8647 27.749 18.8647 28.1373V28.4454C18.8647 28.8337 19.1795 29.1485 19.5678 29.1485H35.3044C35.6927 29.1485 36.0075 28.8337 36.0075 28.4454V28.1373C36.0075 27.749 35.6927 27.4342 35.3044 27.4342Z" fill="#D0D4D8"/>
<path d="M12.7107 27.4342H16.4473C16.8356 27.4342 17.1504 27.749 17.1504 28.1373V28.4454C17.1504 28.8337 16.8356 29.1485 16.4473 29.1485H12.7107C12.3224 29.1485 12.0076 28.8337 12.0076 28.4454V28.1373C12.0076 27.749 12.3224 27.4342 12.7107 27.4342Z" fill="#D0D4D8"/>
<path d="M35.3044 34.2913H26.4249C26.0366 34.2913 25.7218 34.6061 25.7218 34.9944V35.3025C25.7218 35.6908 26.0366 36.0056 26.4249 36.0056H35.3044C35.6927 36.0056 36.0075 35.6908 36.0075 35.3025V34.9944C36.0075 34.6061 35.6927 34.2913 35.3044 34.2913Z" fill="#D0D4D8"/>
<path d="M12.7107 34.2913H23.3044C23.6928 34.2913 24.0076 34.6061 24.0076 34.9944V35.3025C24.0076 35.6908 23.6928 36.0056 23.3044 36.0056H12.7107C12.3224 36.0056 12.0076 35.6908 12.0076 35.3025V34.9944C12.0076 34.6061 12.3224 34.2913 12.7107 34.2913Z" fill="#D0D4D8"/>
<path d="M18.1616 10.2913H12.7107C12.3224 10.2913 12.0076 10.6061 12.0076 10.9944V11.3025C12.0076 11.6908 12.3224 12.0056 12.7107 12.0056H18.1616C18.5499 12.0056 18.8647 11.6908 18.8647 11.3025V10.9944C18.8647 10.6061 18.5499 10.2913 18.1616 10.2913Z" fill="#D0D4D8"/>
<path d="M12.7107 13.7199H18.1616C18.5499 13.7199 18.8647 14.0347 18.8647 14.423V14.7311C18.8647 15.1194 18.5499 15.4342 18.1616 15.4342H12.7107C12.3224 15.4342 12.0076 15.1194 12.0076 14.7311V14.423C12.0076 14.0347 12.3224 13.7199 12.7107 13.7199Z" fill="#D0D4D8"/>
</g>
</g>
<defs>
<clipPath id="clip0_202_15879">
<rect width="37" height="37" fill="white"/>
</clipPath>
</defs>
</svg>
