<svg width="34" height="41" viewBox="0 0 34 41" fill="none" xmlns="http://www.w3.org/2000/svg">
<g clip-path="url(#clip0_202_15334)">
<path d="M33.3459 30.4775L19.5901 1.26497C19.2418 0.532546 18.5201 0.0499857 17.7102 0.00807473C16.8985 -0.0463148 16.1238 0.355268 15.7004 1.04999L0.780664 25.2149C0.317489 25.9598 0.327234 26.9055 0.805662 27.6407L8.10004 38.9367C8.66679 39.8076 9.73889 40.2018 10.7348 39.9057L31.903 33.6442C32.5479 33.4557 33.0793 32.9968 33.3599 32.3863C33.6366 31.7788 33.6319 31.0802 33.3469 30.4765L33.3459 30.4775ZM30.2661 31.7304L12.3037 37.0419C11.7557 37.2049 11.2298 36.7299 11.3438 36.177L17.7612 5.44861C17.8812 4.87366 18.6751 4.78267 18.9261 5.31462L30.8061 30.5425C30.9124 30.77 30.9137 31.0326 30.8096 31.2612C30.7055 31.4897 30.5065 31.6612 30.2651 31.7304H30.2661Z" fill="black"/>
</g>
<defs>
<clipPath id="clip0_202_15334">
<rect width="34" height="41" fill="white"/>
</clipPath>
</defs>
</svg>
