<svg width="36" height="37" viewBox="0 0 36 37" fill="none" xmlns="http://www.w3.org/2000/svg">
<g clip-path="url(#clip0_202_15902)">
<path fill-rule="evenodd" clip-rule="evenodd" d="M31.3682 1.20639C32.8151 1.97446 33.9976 3.15976 34.7622 4.60839C35.5452 6.07539 35.9622 7.53039 35.9622 11.5414V18.5864C35.9622 18.6773 35.9074 18.7593 35.8233 18.7941C35.7393 18.8289 35.6426 18.8097 35.5782 18.7454V18.7444L32.9232 16.0844C32.7124 15.8731 32.5941 15.5868 32.5942 15.2884V12.0324C32.5942 9.02339 32.2812 7.93239 31.6942 6.83239C31.1205 5.74604 30.2335 4.85724 29.1482 4.28139C28.0628 3.69859 26.9852 3.38601 24.0544 3.3795L19.6652 3.37939C19.5745 3.37891 19.4929 3.32395 19.4584 3.24001C19.4238 3.15608 19.4431 3.05961 19.5072 2.99539L22.1622 0.334395C22.3722 0.123395 22.6582 0.00439453 22.9562 0.00439453H24.4492C28.4522 0.00439453 29.9042 0.422395 31.3682 1.20639ZM25.8592 5.62939C28.3392 5.62939 30.3492 7.64439 30.3492 10.1294V12.9784C30.3488 13.0682 30.2951 13.1491 30.2125 13.1843C30.1299 13.2195 30.0343 13.2023 29.9692 13.1404L26.3492 9.67239C26.1092 9.43239 25.8292 9.2584 25.5302 9.14939C25.2766 9.0533 25.0075 9.00416 24.7362 9.00439H14.0502C13.9593 9.00431 13.8774 8.9495 13.8426 8.86547C13.8078 8.78145 13.827 8.68474 13.8912 8.62039L16.5502 5.95839C16.7602 5.74839 17.0452 5.62939 17.3432 5.62939H25.8592Z" fill="#E55638"/>
<path fill-rule="evenodd" clip-rule="evenodd" d="M32.9773 19.5144L35.6333 22.1754C35.8433 22.3864 35.9623 22.6734 35.9623 22.9714V24.4684C35.9623 28.4794 35.5453 29.9344 34.7623 31.4014C33.9977 32.8501 32.8152 34.0354 31.3683 34.8034C29.9043 35.5864 28.4523 36.0044 24.4493 36.0044H17.4203C17.3296 36.004 17.248 35.949 17.2135 35.8651C17.1789 35.7811 17.1982 35.6847 17.2623 35.6204V35.6214L19.9173 32.9604C20.1273 32.7494 20.4133 32.6304 20.7113 32.6304H23.9603C26.9623 32.6304 28.0503 32.3174 29.1483 31.7284C30.2336 31.1526 31.1206 30.2638 31.6943 29.1774C32.2813 28.0774 32.5943 26.9864 32.5943 23.9774V19.6734C32.5948 19.5829 32.6495 19.5015 32.7331 19.4668C32.8167 19.4321 32.9129 19.4509 32.9773 19.5144ZM27.3653 13.8884L30.0213 16.5524C30.2313 16.7634 30.3493 17.0494 30.3493 17.3484V25.8824C30.3493 28.3674 28.3393 30.3824 25.8593 30.3824H23.0163C22.9266 30.382 22.8457 30.3283 22.8105 30.2457C22.7753 30.1631 22.7924 30.0675 22.8543 30.0024V30.0014L26.3143 26.3724C26.5543 26.1324 26.7283 25.8524 26.8373 25.5524C26.9329 25.2983 26.9817 25.029 26.9813 24.7574V14.0474C26.9814 13.9565 27.0362 13.8745 27.1203 13.8398C27.2043 13.805 27.301 13.8242 27.3653 13.8884Z" fill="#F4C942"/>
<path fill-rule="evenodd" clip-rule="evenodd" d="M0.423283 17.2633L3.08028 19.9243C3.29028 20.1353 3.40928 20.4223 3.40928 20.7203V23.9763C3.40928 26.9853 3.72128 28.0763 4.30928 29.1763C4.88274 30.2625 5.76943 31.1513 6.85428 31.7273C7.95228 32.3163 9.04128 32.6293 12.0433 32.6293H16.3373C16.4284 32.629 16.5107 32.6836 16.5458 32.7678C16.5808 32.8519 16.5617 32.9488 16.4973 33.0133L13.8403 35.6743C13.6303 35.8853 13.3443 36.0043 13.0473 36.0043H11.5533C7.55028 36.0043 6.09928 35.5863 4.63528 34.8023C3.18808 34.0344 2.00521 32.8491 1.24028 31.4003C0.465113 29.948 0.0486598 28.5074 0.0404083 24.5869L0.0402832 17.4223C0.0407608 17.3318 0.0954213 17.2504 0.179011 17.2157C0.262601 17.181 0.358847 17.1997 0.423283 17.2633ZM6.03328 22.8683H6.03228L9.65428 26.3363C9.89328 26.5763 10.1743 26.7503 10.4723 26.8593C10.7183 26.9533 10.9863 27.0043 11.2663 27.0043H21.9523C22.043 27.0048 22.1246 27.0598 22.1592 27.1437C22.1937 27.2276 22.1744 27.3241 22.1103 27.3883L19.4523 30.0503C19.2423 30.2603 18.9563 30.3793 18.6593 30.3793H10.1433C8.95114 30.378 7.80834 29.9031 6.9663 29.0592C6.12426 28.2153 5.65196 27.0715 5.65328 25.8793V23.0303C5.65372 22.9405 5.70747 22.8596 5.79004 22.8244C5.87262 22.7892 5.96822 22.8064 6.03328 22.8683Z" fill="#7B8FEA"/>
<path fill-rule="evenodd" clip-rule="evenodd" d="M12.9863 5.62939C13.076 5.62983 13.157 5.68358 13.1922 5.76615C13.2274 5.84873 13.2102 5.94433 13.1483 6.00939L9.68728 9.63939C9.44728 9.87939 9.27428 10.1594 9.16528 10.4594C9.06937 10.7135 9.02024 10.9828 9.02028 11.2544V21.9644C9.01941 22.0547 8.9646 22.1358 8.8811 22.1702C8.7976 22.2047 8.70159 22.1858 8.63728 22.1224L5.98128 19.4584C5.77107 19.2472 5.65312 18.9614 5.65328 18.6634V10.1294C5.65328 7.64439 7.66328 5.62939 10.1433 5.62939H12.9863ZM18.5823 0.00439453C18.673 0.00487651 18.7546 0.0598425 18.7892 0.143777C18.8237 0.227712 18.8044 0.324178 18.7403 0.388395L16.0853 3.04939C15.8743 3.26039 15.5893 3.37939 15.2913 3.37939H12.0423C9.04028 3.37939 7.95128 3.69239 6.85328 4.28139C5.76806 4.85724 4.881 5.74604 4.30728 6.83239C3.72646 7.92082 3.4139 9.00043 3.40739 11.938L3.40728 16.3364C3.40681 16.4269 3.35215 16.5083 3.26856 16.543C3.18497 16.5777 3.08872 16.559 3.02428 16.4954L0.370283 13.8344C0.159093 13.6233 0.0402832 13.337 0.0402832 13.0384V11.5414C0.0402832 7.53039 0.457283 6.07539 1.24028 4.60839C2.00494 3.15976 3.18745 1.97446 4.63428 1.20639C6.08364 0.430235 7.52124 0.0127911 11.433 0.00451988L18.5823 0.00439453Z" fill="#D97EE8"/>
</g>
<defs>
<clipPath id="clip0_202_15902">
<rect width="36" height="37" fill="white"/>
</clipPath>
</defs>
</svg>
