<svg width="37" height="37" viewBox="0 0 37 37" fill="none" xmlns="http://www.w3.org/2000/svg">
<g clip-path="url(#clip0_202_15803)">
<path d="M32.9108 7.90844C31.8188 6.27791 30.0023 4.41488 28.1783 3.20886C24.3893 0.613821 20.0004 -0.307193 16.1184 0.0948131C12.0699 0.53132 8.60345 2.05684 5.75347 4.60088C3.11349 6.95892 1.37051 9.84197 0.602514 12.5915C-0.17448 15.3411 -0.0709812 17.8866 0.206517 19.8036C0.499014 21.7492 1.46801 24.1972 1.46801 24.1972C1.66601 24.6667 1.9405 24.8572 2.083 24.9367C2.791 25.3237 3.95349 24.9832 4.84598 23.9812C4.89098 23.9197 4.91498 23.8342 4.89098 23.7622C4.64198 22.8037 4.55198 22.0822 4.46348 21.5242C4.26099 20.4201 4.17099 18.5706 4.30599 16.8606C4.37349 15.9351 4.55348 14.9451 4.86848 13.907C5.47748 11.8565 6.76147 9.71597 8.76845 7.93694C10.9299 6.02141 13.7019 4.83789 16.3374 4.53188C17.2614 4.42088 19.0194 4.31438 21.1359 4.83639C21.5874 4.94889 23.5253 5.4544 25.5983 6.85842C27.1073 7.88444 28.3223 9.15046 29.1593 10.403C30.0113 11.5985 30.9368 13.6145 31.2083 15.0906C31.5923 16.7706 31.5923 18.5511 31.3193 20.2851C30.9818 22.0222 30.3728 23.7112 29.4263 25.1977C28.7738 26.3497 27.4208 27.8723 25.8218 29.0153C24.3803 30.0293 22.7348 30.7613 21.0459 31.1663C20.1909 31.3688 19.3329 31.4978 18.4539 31.5263C17.6724 31.5503 16.6359 31.5263 15.9084 31.4033C14.8269 31.2308 14.6019 30.9548 14.3544 30.5798C14.3544 30.5798 14.1819 30.3098 14.1339 29.5868C14.1504 22.9792 14.1474 24.7432 14.1474 21.3127C14.1474 20.3436 14.1159 19.4646 14.1249 18.6666C14.1699 17.3571 14.2809 16.4571 15.2169 15.4821C15.8934 14.7635 16.8399 14.33 17.8824 14.33C18.1989 14.33 19.2894 14.345 20.2479 15.1416C21.2754 15.9996 21.4479 17.1726 21.4884 17.4861C21.7224 19.3206 20.5104 20.6871 20.0454 21.0336C19.4694 21.4657 18.9519 21.6757 18.6024 21.7987C17.8584 22.0477 17.0409 22.1197 16.3059 22.0717C16.1934 22.0642 16.0914 22.1377 16.0689 22.2502L15.8214 23.5342C15.5799 24.5092 16.1214 24.8662 16.4364 24.9922C17.4429 25.3027 18.3354 25.4317 19.3929 25.3522C21.0144 25.2382 22.6133 24.5992 23.9708 23.3332C25.1258 22.2352 25.7843 20.8806 26.0093 19.3656C26.2343 17.6841 25.9418 15.8736 25.1753 14.3405C24.3323 12.65 22.8773 11.2385 20.9604 10.466C19.0239 9.70397 17.4834 9.67697 15.4974 10.184L15.4749 10.1915C14.1849 10.6355 13.0809 11.183 11.9319 12.3695C11.1444 13.1885 10.4994 14.18 10.1064 15.2991C9.71644 16.4271 9.61145 17.2686 9.59345 18.5766C9.56945 19.5456 9.61595 20.4456 9.61595 21.2887V26.8402C9.61595 28.6163 9.55595 28.9238 9.61595 29.8373C9.64894 30.4433 9.73294 31.1288 9.99844 31.8653C10.2714 32.6768 10.8444 33.5093 11.2374 33.8934C11.7879 34.4799 12.4884 34.9509 13.1769 35.2434C14.7534 35.9439 16.8939 36.0549 18.6294 35.9874C19.7784 35.9439 20.9334 35.7849 22.0659 35.5164C24.3308 34.9779 26.5058 33.9984 28.4183 32.6393C30.4688 31.1948 32.2508 29.2238 33.2348 27.5498C34.4963 25.5607 35.3123 23.3287 35.7367 21.0351C36.1192 18.7371 36.1012 16.3806 35.5882 14.117C35.1833 12.017 34.1018 9.71297 32.8538 7.85294L32.9108 7.90844Z" fill="#EB1D61"/>
</g>
<defs>
<clipPath id="clip0_202_15803">
<rect width="37" height="37" fill="white"/>
</clipPath>
</defs>
</svg>
