<svg width="36" height="36" viewBox="0 0 36 36" fill="none" xmlns="http://www.w3.org/2000/svg">
<g clip-path="url(#clip0_202_8707)">
<mask id="mask0_202_8707" style="mask-type:alpha" maskUnits="userSpaceOnUse" x="0" y="0" width="37" height="36">
<path fill-rule="evenodd" clip-rule="evenodd" d="M18.7485 0.342531C18.2855 0.076334 17.7159 0.076334 17.253 0.342531L7.50326 5.94877C7.03785 6.21637 6.75098 6.71227 6.75098 7.24912V9.3471L3.75555 11.0625C3.28887 11.3297 3.00097 11.8263 3.00097 12.3641V15.3159L0.73934 16.6488C0.281808 16.9185 0.000976562 17.41 0.000976562 17.9411V24.634C0.000976562 25.1652 0.281808 25.6566 0.73934 25.9263L17.2393 35.6512C17.7093 35.9282 18.2926 35.9282 18.7626 35.6512L35.2626 25.9263C35.7201 25.6566 36.001 25.1652 36.001 24.634V17.9411C36.001 17.41 35.7201 16.9185 35.2626 16.6488L32.9981 15.3141V12.3641C32.9981 11.8263 32.7101 11.3297 32.2434 11.0625L29.2505 9.34848V7.24912C29.2505 6.71227 28.9636 6.21637 28.4982 5.94877L18.7485 0.342531Z" fill="#C4C4C4"/>
</mask>
<g mask="url(#mask0_202_8707)">
<path d="M35.2626 16.6488C35.7201 16.9185 36.001 17.41 36.001 17.9411V24.6341C36.001 25.1652 35.7201 25.6566 35.2626 25.9263L18.7626 35.6512C18.2926 35.9282 17.7093 35.9282 17.2393 35.6512L0.73934 25.9263C0.281807 25.6566 0.000976562 25.1652 0.000976562 24.6341V17.9411C0.000976562 17.41 0.281808 16.9185 0.73934 16.6488L17.2393 6.92401C17.7093 6.64699 18.2926 6.64699 18.7626 6.92401L35.2626 16.6488Z" fill="url(#paint0_linear_202_8707)"/>
<path d="M32.2435 22.8806C32.7102 22.6134 32.9981 22.1168 32.9981 21.579V12.3641C32.9981 11.8263 32.7101 11.3297 32.2435 11.0624L18.7449 3.33236C18.2831 3.06793 17.7158 3.06792 17.2541 3.33236L3.75555 11.0624C3.28888 11.3297 3.00098 11.8263 3.00098 12.3641V21.579C3.00098 22.1168 3.28888 22.6134 3.75555 22.8806L17.2541 30.6107C17.7159 30.8751 18.2832 30.8751 18.7449 30.6107L32.2435 22.8806Z" fill="url(#paint1_linear_202_8707)"/>
<g filter="url(#filter0_f_202_8707)">
<path d="M17.253 1.09259C17.7159 0.826395 18.2855 0.826395 18.7485 1.09259L28.4982 6.69883C28.9636 6.96643 29.2505 7.46233 29.2505 7.99918V19.2011C29.2505 19.738 28.9636 20.2339 28.4982 20.5015L18.7485 26.1077C18.2855 26.3739 17.7159 26.3739 17.253 26.1077L7.50326 20.5015C7.03789 20.2339 6.75098 19.738 6.75098 19.2011V7.99918C6.75098 7.46233 7.03789 6.96643 7.50326 6.69883L17.253 1.09259Z" fill="black" fill-opacity="0.32"/>
</g>
<g filter="url(#filter1_f_202_8707)">
<path d="M17.253 0.484925C17.7159 0.218729 18.2855 0.218729 18.7485 0.484925L28.4982 6.09116C28.9636 6.35876 29.2505 6.85466 29.2505 7.39151V18.5934C29.2505 19.1303 28.9636 19.6262 28.4982 19.8938L18.7485 25.5C18.2855 25.7662 17.7159 25.7662 17.253 25.5L7.50326 19.8938C7.03789 19.6262 6.75098 19.1303 6.75098 18.5934V7.39151C6.75098 6.85466 7.03789 6.35876 7.50326 6.09116L17.253 0.484925Z" fill="black" fill-opacity="0.24"/>
</g>
<path d="M17.253 0.342592C17.7159 0.076395 18.2855 0.076395 18.7485 0.342592L28.4982 5.94883C28.9636 6.21643 29.2505 6.71233 29.2505 7.24918V18.4511C29.2505 18.988 28.9636 19.4839 28.4982 19.7515L18.7485 25.3577C18.2855 25.6239 17.7159 25.6239 17.253 25.3577L7.50326 19.7515C7.03789 19.4839 6.75098 18.988 6.75098 18.4511V7.24918C6.75098 6.71233 7.03789 6.21643 7.50326 5.94883L17.253 0.342592Z" fill="url(#paint2_linear_202_8707)"/>
<path d="M17.2531 0.342323C17.716 0.076266 18.2853 0.076239 18.7481 0.342252L28.4155 5.89837C28.789 6.11306 28.7924 6.65073 28.4217 6.87015L18.7647 12.5854C18.2935 12.8643 17.7078 12.8643 17.2366 12.5854L7.58188 6.87011C7.21119 6.6507 7.21461 6.1131 7.58807 5.89841L17.2531 0.342323Z" fill="url(#paint3_linear_202_8707)"/>
</g>
</g>
<defs>
<filter id="filter0_f_202_8707" x="-1.24902" y="-7.10706" width="38.4995" height="41.4144" filterUnits="userSpaceOnUse" color-interpolation-filters="sRGB">
<feFlood flood-opacity="0" result="BackgroundImageFix"/>
<feBlend mode="normal" in="SourceGraphic" in2="BackgroundImageFix" result="shape"/>
<feGaussianBlur stdDeviation="4" result="effect1_foregroundBlur_202_8707"/>
</filter>
<filter id="filter1_f_202_8707" x="5.99098" y="-0.474722" width="24.0195" height="26.9344" filterUnits="userSpaceOnUse" color-interpolation-filters="sRGB">
<feFlood flood-opacity="0" result="BackgroundImageFix"/>
<feBlend mode="normal" in="SourceGraphic" in2="BackgroundImageFix" result="shape"/>
<feGaussianBlur stdDeviation="0.38" result="effect1_foregroundBlur_202_8707"/>
</filter>
<linearGradient id="paint0_linear_202_8707" x1="1.68848" y1="-0.837406" x2="57.8447" y2="-8.85359" gradientUnits="userSpaceOnUse">
<stop offset="0.209466" stop-color="#158915"/>
<stop offset="1" stop-color="#065F18"/>
</linearGradient>
<linearGradient id="paint1_linear_202_8707" x1="32.9981" y1="31.0376" x2="26.2974" y2="-2.16404" gradientUnits="userSpaceOnUse">
<stop stop-color="#34A117"/>
<stop offset="1" stop-color="#6AD116"/>
</linearGradient>
<linearGradient id="paint2_linear_202_8707" x1="6.75098" y1="-0.0873563" x2="32.4612" y2="22.5731" gradientUnits="userSpaceOnUse">
<stop stop-color="#8FDC50"/>
<stop offset="1" stop-color="#7BCA52"/>
</linearGradient>
<linearGradient id="paint3_linear_202_8707" x1="7.10368" y1="-0.00215068" x2="8.63882" y2="15.235" gradientUnits="userSpaceOnUse">
<stop stop-color="#C3F488"/>
<stop offset="1" stop-color="#8FDC50"/>
</linearGradient>
<clipPath id="clip0_202_8707">
<rect width="36.001" height="36" fill="white"/>
</clipPath>
</defs>
</svg>
