<svg width="37" height="28" viewBox="0 0 37 28" fill="none" xmlns="http://www.w3.org/2000/svg">
<path d="M34.0559 8.16892H8.75862C8.22348 8.16892 7.78564 7.73108 7.78564 7.19594V1.3581C7.78564 0.82297 8.22348 0.385132 8.75862 0.385132H34.0559C34.5911 0.385132 35.0289 0.82297 35.0289 1.3581V7.19594C35.0289 7.73108 34.6397 8.16892 34.0559 8.16892Z" fill="#0A6CB9"/>
<path d="M26.2722 17.8987H0.974926C0.439791 17.8987 0.00195312 17.4608 0.00195312 16.9257V11.0878C0.00195312 10.5527 0.439791 10.1149 0.974926 10.1149H26.2722C26.8074 10.1149 27.2452 10.5527 27.2452 11.0878V16.9257C27.2452 17.4608 26.856 17.8987 26.2722 17.8987Z" fill="#FFC33D"/>
<path d="M35.0291 27.6284H9.73176C9.19663 27.6284 8.75879 27.1906 8.75879 26.6554V20.8176C8.75879 20.2824 9.19663 19.8446 9.73176 19.8446H35.0291C35.5642 19.8446 36.002 20.2824 36.002 20.8176V26.6554C36.002 27.1906 35.6128 27.6284 35.0291 27.6284Z" fill="#CD2D1F"/>
</svg>
