<svg width="37" height="34" viewBox="0 0 37 34" fill="none" xmlns="http://www.w3.org/2000/svg">
<g clip-path="url(#clip0_202_8649)">
<mask id="mask0_202_8649" style="mask-type:alpha" maskUnits="userSpaceOnUse" x="0" y="0" width="37" height="34">
<path d="M0.00585938 1.80041C0.00585938 0.916753 0.722203 0.200409 1.60586 0.200409H18.4059C19.2895 0.200409 20.0059 0.916753 20.0059 1.80041V8.60041H34.4059C35.2895 8.60041 36.0059 9.31677 36.0059 10.2004V23.8004C36.0059 24.684 35.2895 25.4004 34.4059 25.4004H20.0059V32.2004C20.0059 33.084 19.2895 33.8004 18.4059 33.8004H1.60586C0.722203 33.8004 0.00585938 33.084 0.00585938 32.2004V20.2004C0.00585938 19.3168 0.722203 18.6004 1.60586 18.6004H16.0059V15.4004H1.60586C0.722203 15.4004 0.00585938 14.684 0.00585938 13.8004V1.80041Z" fill="url(#paint0_linear_202_8649)"/>
</mask>
<g mask="url(#mask0_202_8649)">
<path d="M0.00585938 1.80041C0.00585938 0.916753 0.722203 0.200409 1.60586 0.200409H18.4059C19.2895 0.200409 20.0059 0.916753 20.0059 1.80041V13.8004C20.0059 14.684 19.2895 15.4004 18.4059 15.4004H1.60586C0.722203 15.4004 0.00585938 14.684 0.00585938 13.8004V1.80041Z" fill="url(#paint1_linear_202_8649)"/>
<path d="M0.00585938 32.2004C0.00585938 33.084 0.722203 33.8004 1.60586 33.8004H18.4059C19.2895 33.8004 20.0059 33.084 20.0059 32.2004V20.2004C20.0059 19.3168 19.2895 18.6004 18.4059 18.6004H1.60586C0.722203 18.6004 0.00585938 19.3168 0.00585938 20.2004V32.2004Z" fill="url(#paint2_linear_202_8649)"/>
<g filter="url(#filter0_f_202_8649)">
<path d="M34.4059 9.40042H17.6059C16.7222 9.40042 16.0059 10.1168 16.0059 11.0004V24.6004C16.0059 25.4841 16.7222 26.2004 17.6059 26.2004H34.4059C35.2895 26.2004 36.0059 25.4841 36.0059 24.6004V11.0004C36.0059 10.1168 35.2895 9.40042 34.4059 9.40042Z" fill="black" fill-opacity="0.32"/>
</g>
<g filter="url(#filter1_f_202_8649)">
<path d="M34.4059 8.75235H17.6059C16.7222 8.75235 16.0059 9.46869 16.0059 10.3523V23.9523C16.0059 24.836 16.7222 25.5523 17.6059 25.5523H34.4059C35.2895 25.5523 36.0059 24.836 36.0059 23.9523V10.3523C36.0059 9.46869 35.2895 8.75235 34.4059 8.75235Z" fill="black" fill-opacity="0.24"/>
</g>
<path d="M34.4059 8.6004H17.6059C16.7222 8.6004 16.0059 9.31675 16.0059 10.2004V23.8004C16.0059 24.6841 16.7222 25.4004 17.6059 25.4004H34.4059C35.2895 25.4004 36.0059 24.6841 36.0059 23.8004V10.2004C36.0059 9.31675 35.2895 8.6004 34.4059 8.6004Z" fill="url(#paint3_linear_202_8649)"/>
</g>
</g>
<defs>
<filter id="filter0_f_202_8649" x="8.00586" y="1.40042" width="36" height="32.8" filterUnits="userSpaceOnUse" color-interpolation-filters="sRGB">
<feFlood flood-opacity="0" result="BackgroundImageFix"/>
<feBlend mode="normal" in="SourceGraphic" in2="BackgroundImageFix" result="shape"/>
<feGaussianBlur stdDeviation="4" result="effect1_foregroundBlur_202_8649"/>
</filter>
<filter id="filter1_f_202_8649" x="15.2459" y="7.99235" width="21.52" height="18.32" filterUnits="userSpaceOnUse" color-interpolation-filters="sRGB">
<feFlood flood-opacity="0" result="BackgroundImageFix"/>
<feBlend mode="normal" in="SourceGraphic" in2="BackgroundImageFix" result="shape"/>
<feGaussianBlur stdDeviation="0.38" result="effect1_foregroundBlur_202_8649"/>
</filter>
<linearGradient id="paint0_linear_202_8649" x1="0.00585938" y1="0.200409" x2="32.6918" y2="35.5676" gradientUnits="userSpaceOnUse">
<stop stop-color="#FFC8A3"/>
<stop offset="1" stop-color="#F8B48A"/>
</linearGradient>
<linearGradient id="paint1_linear_202_8649" x1="20.0059" y1="15.4004" x2="7.82762" y2="-4.56953" gradientUnits="userSpaceOnUse">
<stop stop-color="#D83B01"/>
<stop offset="1" stop-color="#ED7E43"/>
</linearGradient>
<linearGradient id="paint2_linear_202_8649" x1="26.2559" y1="42.6096" x2="-9.07022" y2="28.4574" gradientUnits="userSpaceOnUse">
<stop offset="0.00414767" stop-color="#922717"/>
<stop offset="1" stop-color="#D83B01"/>
</linearGradient>
<linearGradient id="paint3_linear_202_8649" x1="16.0059" y1="8.6004" x2="32.1254" y2="27.9802" gradientUnits="userSpaceOnUse">
<stop stop-color="#FFC8A3"/>
<stop offset="1" stop-color="#F8B48A"/>
</linearGradient>
<clipPath id="clip0_202_8649">
<rect width="37" height="34" fill="white"/>
</clipPath>
</defs>
</svg>
