<svg width="37" height="32" viewBox="0 0 37 32" fill="none" xmlns="http://www.w3.org/2000/svg">
<g clip-path="url(#clip0_202_9481)">
<path d="M34.4581 31.7092H13.9931C13.1333 31.7092 12.4454 31.0213 12.4454 30.1614V21.2188L20.2989 17.3207L30.1014 21.2188H34.4581C35.318 21.2188 36.0059 21.9067 36.0059 22.7665V30.1614C36.0059 31.0213 35.318 31.7092 34.4581 31.7092Z" fill="#185C37"/>
<path d="M24.197 10.7856L15.025 14.0531L4.59186 10.7856V1.84294C4.59186 0.983064 5.27976 0.295166 6.13963 0.295166H22.7065C23.5664 0.295166 24.2543 0.983064 24.2543 1.84294L24.197 10.7856Z" fill="#33C481"/>
<path d="M4.59186 10.7856H28.5536C29.4135 10.7856 30.1014 11.4735 30.1014 12.3334V21.2761H6.13963C5.27976 21.2761 4.59186 20.5882 4.59186 19.7283V10.7856Z" fill="#21A366"/>
<path opacity="0.1" d="M12.4453 27.1231H17.4326C18.1778 27.1231 18.8084 26.6071 18.923 25.8619V8.37785C18.923 7.51798 18.2351 6.83008 17.4326 6.83008H4.5918V19.6708C4.5918 20.5307 5.27969 21.2186 6.13957 21.2186H12.4453V27.1231Z" fill="black"/>
<path opacity="0.2" d="M17.4326 26.4926C18.6364 26.4926 19.611 25.5181 19.611 24.3142V8.37793C19.611 7.17411 18.6364 6.19958 17.4326 6.19958H4.59186V19.7282C4.59186 20.5881 5.27976 21.276 6.13963 21.276H12.4454V26.4926H17.4326Z" fill="black"/>
<path opacity="0.2" d="M17.4326 25.8046C18.2924 25.8046 18.9803 25.1167 18.9803 24.3142V8.37785C18.9803 7.51798 18.2924 6.83008 17.4899 6.83008H4.5918V19.6708C4.5918 20.5307 5.27969 21.2186 6.13957 21.2186H12.4453V25.8046H17.4326Z" fill="black"/>
<path opacity="0.1" d="M16.802 25.8046C17.6619 25.8046 18.3498 25.1167 18.3498 24.3142V8.37785C18.3498 7.51798 17.6619 6.83008 16.8593 6.83008H4.5918V19.6708C4.5918 20.5307 5.27969 21.2186 6.13957 21.2186H12.4453V25.8046H16.802Z" fill="black"/>
<path d="M1.55363 6.83008H16.802C17.6619 6.83008 18.3498 7.51798 18.3498 8.37785V23.6263C18.3498 24.4861 17.6619 25.174 16.802 25.174H1.55363C0.693758 25.174 0.00585938 24.4861 0.00585938 23.6263V8.37785C0.00585938 7.51798 0.693758 6.83008 1.55363 6.83008Z" fill="url(#paint0_linear_202_9481)"/>
<path d="M9.46446 10.9003C10.439 10.8429 11.4135 11.1296 12.1587 11.7028C12.7893 12.3334 13.1332 13.1933 13.0759 14.0531C13.0759 14.6837 12.904 15.257 12.6173 15.8302C12.2734 16.3461 11.8148 16.7474 11.2989 17.034C10.6683 17.3206 9.98038 17.4926 9.29249 17.4353H7.40077V21.0468H5.45172V10.9003H9.46446ZM7.45809 15.8875H9.12051C9.63643 15.9449 10.1524 15.7729 10.611 15.4289C10.9549 15.085 11.1269 14.6264 11.1269 14.1105C11.1269 12.964 10.4963 12.448 9.23516 12.448H7.51542L7.45809 15.8875Z" fill="white"/>
</g>
<defs>
<linearGradient id="paint0_linear_202_9481" x1="3.19541" y1="5.64001" x2="15.1413" y2="26.332" gradientUnits="userSpaceOnUse">
<stop stop-color="#18884F"/>
<stop offset="0.5" stop-color="#117E43"/>
<stop offset="1" stop-color="#0B6631"/>
</linearGradient>
<clipPath id="clip0_202_9481">
<rect width="37" height="32" fill="white"/>
</clipPath>
</defs>
</svg>
