<svg width="37" height="37" viewBox="0 0 37 37" fill="none" xmlns="http://www.w3.org/2000/svg">
<g clip-path="url(#clip0_202_15290)">
<path d="M18.0071 0.00537109C8.0661 0.00537109 0.0065918 8.06392 0.0065918 18.0052C0.0065918 27.9462 8.0661 36.0054 18.0071 36.0054C27.948 36.0054 36.0072 27.9462 36.0072 18.0052C36.0072 8.06392 27.9477 0.00537109 18.0071 0.00537109ZM18.0071 33.6941C15.1787 33.6941 12.8855 31.8047 12.8855 29.4747H23.1286C23.1286 31.8044 20.8355 33.6941 18.0071 33.6941ZM26.4662 28.0774H9.547V25.0095H26.4665V28.0774H26.4662ZM26.4055 23.4304H9.59528C9.53938 23.3659 9.4822 23.3024 9.4282 23.237C7.69635 21.1341 7.28848 20.0363 6.89237 18.9175C6.8857 18.8807 8.99238 19.3479 10.4863 19.684C10.4863 19.684 11.255 19.8619 12.3789 20.0668C11.2998 18.8019 10.6591 17.1939 10.6591 15.5504C10.6591 11.9422 13.4265 8.78913 12.4281 6.24059C13.3998 6.31969 14.4392 8.29136 14.5094 11.3742C15.5424 9.94666 15.9747 7.33968 15.9747 5.74124C15.9747 4.08627 17.0652 2.16383 18.156 2.09807C17.1837 3.70064 18.4079 5.07449 19.4962 8.48259C19.9044 9.76274 19.8523 11.9171 20.1674 13.2833C20.2719 10.4457 20.7599 6.3054 22.56 4.87595C21.7659 6.6761 22.6775 8.92858 23.3011 10.0115C24.3071 11.7586 24.917 13.0822 24.917 15.5856C24.917 17.2641 24.2972 18.8445 23.2518 20.0798C24.4405 19.8568 25.2613 19.6557 25.2613 19.6557L29.1215 18.9026C29.1218 18.9023 28.5608 21.2091 26.4055 23.4304Z" fill="#DA4E31"/>
</g>
<defs>
<clipPath id="clip0_202_15290">
<rect width="37" height="37" fill="white"/>
</clipPath>
</defs>
</svg>
