<svg width="37" height="36" viewBox="0 0 37 36" fill="none" xmlns="http://www.w3.org/2000/svg">
<g clip-path="url(#clip0_202_15915)">
<path d="M36.0034 0.0126953H0.00341797V35.9964H36.0034V0.0126953Z" fill="#FBDE34"/>
<path d="M15.5186 27.7033V28.756H14.3662V31.5927C14.3662 31.8587 14.4105 32.0359 14.4992 32.1246C14.5878 32.2132 14.7651 32.2575 15.031 32.2575C15.1197 32.2575 15.2045 32.2538 15.2859 32.2464C15.3671 32.2391 15.4447 32.2281 15.5186 32.2132V33.4321C15.3856 33.4542 15.2378 33.4689 15.0754 33.4764C14.9128 33.4837 14.754 33.4874 14.5989 33.4874C14.3551 33.4874 14.1242 33.4709 13.9064 33.4376C13.6884 33.4043 13.4964 33.3398 13.3302 33.2437C13.164 33.1477 13.0328 33.011 12.9368 32.8337C12.8407 32.6565 12.7928 32.4237 12.7928 32.1356V28.756H11.8398V27.7033H12.7928V25.9858H14.3663V27.7033H15.5186ZM17.7347 25.5205V28.5012H17.7679C17.9673 28.1688 18.2222 27.9269 18.5324 27.7754C18.8427 27.6241 19.1455 27.5482 19.441 27.5482C19.8621 27.5482 20.2073 27.6055 20.4771 27.7199C20.7466 27.8345 20.9591 27.9933 21.1142 28.1965C21.2694 28.3997 21.3782 28.6471 21.4411 28.9388C21.5038 29.2307 21.5352 29.5538 21.5352 29.9084V33.4321H19.9618V30.1966C19.9618 29.7239 19.8879 29.371 19.7402 29.1383C19.5923 28.9057 19.3302 28.7892 18.9535 28.7892C18.525 28.7892 18.2147 28.9167 18.0227 29.1715C17.8305 29.4264 17.7346 29.8457 17.7346 30.4292V33.4321H16.1611V25.5205H17.7347ZM23.8621 32.058C24.0984 32.2871 24.4382 32.4015 24.8815 32.4015C25.199 32.4015 25.4724 32.3223 25.7015 32.1632C25.9303 32.0045 26.0708 31.8364 26.1225 31.6591H27.5076C27.286 32.3461 26.9461 32.8375 26.4882 33.1328C26.0301 33.4284 25.4761 33.5761 24.8261 33.5761C24.3754 33.5761 23.969 33.504 23.6072 33.36C23.2452 33.2159 22.9385 33.011 22.6874 32.745C22.4363 32.4791 22.2423 32.1615 22.1058 31.7922C21.969 31.4228 21.9008 31.0165 21.9008 30.5733C21.9008 30.1449 21.9708 29.746 22.1113 29.3766C22.2515 29.0073 22.451 28.6879 22.7096 28.4181C22.9681 28.1485 23.2765 27.9361 23.6349 27.7809C23.993 27.6258 24.3901 27.5482 24.8261 27.5482C25.3136 27.5482 25.7383 27.6423 26.1003 27.8308C26.4621 28.0192 26.7596 28.2722 26.9923 28.5898C27.225 28.9075 27.393 29.2695 27.4965 29.6758C27.5998 30.0821 27.6367 30.5067 27.6072 30.95H23.4742C23.4964 31.4598 23.6255 31.8292 23.8621 32.058ZM25.6405 29.0441C25.4521 28.8374 25.1658 28.7338 24.7817 28.7338C24.5305 28.7338 24.3219 28.7765 24.1557 28.8612C23.9895 28.9462 23.8566 29.0515 23.7568 29.1771C23.6571 29.3028 23.5867 29.4357 23.5463 29.576C23.5056 29.7164 23.4815 29.8419 23.4742 29.9527H26.0338C25.9599 29.5539 25.8289 29.2511 25.6405 29.0441ZM29.4799 27.7033V28.5012H29.5131C29.7126 28.1688 29.9711 27.9269 30.2888 27.7754C30.6063 27.6241 30.9315 27.5482 31.2639 27.5482C31.685 27.5482 32.0301 27.6055 32.2999 27.7199C32.5694 27.8345 32.7819 27.9933 32.9371 28.1965C33.0922 28.3997 33.2011 28.6471 33.2639 28.9388C33.3266 29.2307 33.3581 29.5538 33.3581 29.9084V33.4321H31.7846V30.1966C31.7846 29.7239 31.7107 29.371 31.5631 29.1383C31.4152 28.9057 31.1531 28.7892 30.7763 28.7892C30.3478 28.7892 30.0376 28.9167 29.8456 29.1715C29.6534 29.4264 29.5574 29.8457 29.5574 30.4292V33.4321H27.984V27.7033H29.4799Z" fill="#524739"/>
</g>
<defs>
<clipPath id="clip0_202_15915">
<rect width="37" height="36" fill="white"/>
</clipPath>
</defs>
</svg>
