<svg width="36" height="37" viewBox="0 0 36 37" fill="none" xmlns="http://www.w3.org/2000/svg">
<g clip-path="url(#clip0_202_10198)">
<path d="M19.7995 0.00415039H16.4158H2.03681C1.19169 0.00415039 0.346436 0.84927 0.346436 1.69646V24.1107C0.346436 25.1651 0.981344 26.4369 1.8255 26.8594L16.627 35.5295C17.4732 36.1624 18.742 36.1624 19.3769 35.5295L34.1774 26.8594C35.0226 26.2247 35.6575 25.1671 35.6575 24.1107V1.69646C35.6575 0.639059 34.8114 0.00511593 33.9661 0.00511593H19.7995V0.00415039Z" fill="#13C779"/>
<path d="M28.0458 9.94283L18.1079 15.862L8.17023 9.94283H28.0458ZM28.0458 19.8807L18.1079 25.8019L8.17023 19.8807V12.268L18.107 18.1893L28.0448 12.268V19.8807H28.0458ZM28.892 7.82886H18.107H7.32304C6.90041 7.82886 6.47778 8.25149 6.47778 8.88529V9.30902V19.8827C6.47778 20.3063 6.47778 21.1515 7.32304 21.572C8.16913 22.2069 18.107 28.1281 18.107 28.1281C18.107 28.1281 28.0448 22.2089 28.892 21.572C29.7362 20.9392 29.7362 20.3052 29.7362 19.8827V9.30902V8.88529C29.7362 8.25149 29.5258 7.82886 28.892 7.82886Z" fill="white"/>
<path d="M18.1071 0.00415039H16.4167H2.03667C1.19156 0.00415039 0.346436 0.84927 0.346436 1.69646V24.1107C0.346436 25.1651 0.981344 26.4369 1.8255 26.8594L16.627 35.5295C17.0495 35.7399 17.4732 35.9521 18.1061 35.9521L18.1071 0.00415039Z" fill="#231F1F" fill-opacity="0.1"/>
</g>
<defs>
<clipPath id="clip0_202_10198">
<rect width="36" height="37" fill="white"/>
</clipPath>
</defs>
</svg>
