<svg width="37" height="37" viewBox="0 0 37 37" fill="none" xmlns="http://www.w3.org/2000/svg">
<g clip-path="url(#clip0_202_14358)">
<path d="M4.50342 0.00177002H31.5034C33.9887 0.00177002 36.0034 2.01649 36.0034 4.50177V31.5018C36.0034 33.9871 33.9887 36.0018 31.5034 36.0018H4.50342C2.01814 36.0018 0.00341797 33.9871 0.00341797 31.5018V4.50177C0.00341797 2.01649 2.01814 0.00177002 4.50342 0.00177002Z" fill="#9933CC"/>
<path d="M24.8407 15.4269C24.4559 14.5993 23.8652 13.7672 23.0516 12.9536C22.238 12.14 21.4059 11.5493 20.5783 11.1645C20.5321 10.9081 20.5077 10.6473 20.5077 10.3821C20.5077 9.06196 21.1127 7.85186 21.9928 6.75177C22.7659 7.71813 23.3268 8.76939 23.4517 9.90554C23.6065 9.70166 23.7752 9.5072 23.9593 9.32323C25.1693 8.11313 26.8332 7.55851 28.6484 7.35682C28.4467 9.17197 27.8921 10.8359 26.682 12.0459C26.498 12.23 26.3036 12.3987 26.0997 12.5535C27.2358 12.6784 28.287 13.2393 29.2534 14.0124C28.1533 14.8925 26.9432 15.4975 25.6232 15.4975C25.3579 15.4975 25.0971 15.4731 24.8407 15.4269ZM12.0265 18.4244C13.4621 16.0476 14.7938 13.9509 15.3373 13.4073C16.6986 12.0459 19.1189 11.1384 21.9928 14.0124C24.8668 16.8863 23.9593 19.3065 22.5979 20.6679C22.579 20.6868 22.5583 20.7066 22.5357 20.7273L17.455 17.3402L20.6214 22.0898C17.005 24.4327 9.95191 28.4409 9.28677 28.8361C8.44367 29.337 7.77414 29.4411 7.16909 28.8361C6.56405 28.2311 6.66811 27.5616 7.16909 26.7184C7.42563 26.2867 9.2043 23.1637 11.0617 20.0361L14.7323 22.4831L12.0265 18.4244Z" fill="white"/>
</g>
<defs>
<clipPath id="clip0_202_14358">
<rect width="37" height="37" fill="white"/>
</clipPath>
</defs>
</svg>
