<svg width="37" height="37" viewBox="0 0 37 37" fill="none" xmlns="http://www.w3.org/2000/svg">
<g clip-path="url(#clip0_202_9957)">
<path d="M36.0034 18.0014C36.0034 27.9425 27.9445 36.0014 18.0034 36.0014C8.06236 36.0014 0.00341797 27.9425 0.00341797 18.0014C0.00341797 8.06034 8.06236 0.00140381 18.0034 0.00140381C27.9445 0.00140381 36.0034 8.06034 36.0034 18.0014Z" fill="#E23237"/>
<path d="M36.0033 18.0014C36.0033 17.9429 35.9995 17.8854 35.999 17.827C32.4021 14.3595 28.7647 10.8474 28.6626 10.7266C26.1268 7.7259 22.3357 5.82043 18.0995 5.82043C10.4653 5.82043 4.27637 12.0093 4.27637 19.6436C4.27637 20.6998 4.39871 21.7268 4.62315 22.715C9.63348 27.9933 14.2932 32.7937 17.7807 35.9957C17.8551 35.9967 17.9287 36.0014 18.0033 36.0014C27.9444 36.0014 36.0033 27.9426 36.0033 18.0014Z" fill="#B52E31"/>
<path d="M26.9853 19.4435H9.28555C9.28541 19.4194 9.28387 19.3958 9.28387 19.3718C9.28387 14.4831 13.2468 10.5201 18.1355 10.5201C23.0241 10.5201 26.9871 14.4831 26.9871 19.3718C26.9871 19.3958 26.9855 19.4194 26.9853 19.4435ZM29.0798 19.0428H31.9076C31.7555 15.4861 30.2606 12.2779 27.9154 9.91233L25.9627 11.8652L25.4905 11.3931L27.4341 9.44953C25.0391 7.25536 21.8681 5.89734 18.3806 5.82745V8.34366H17.7129V5.83013C14.2233 5.92631 11.0577 7.31358 8.67637 9.53419L10.4541 11.312L9.98207 11.784L8.19923 10.0012C5.90338 12.3581 4.44201 15.5299 4.29154 19.0428H6.8803V19.7105H4.27832C4.28338 20.743 4.40348 21.7478 4.62313 22.715H31.5762C31.7957 21.7478 31.9159 20.743 31.921 19.7105H29.0798V19.0428Z" fill="white"/>
</g>
<defs>
<clipPath id="clip0_202_9957">
<rect width="37" height="37" fill="white"/>
</clipPath>
</defs>
</svg>
