<svg width="37" height="34" viewBox="0 0 37 34" fill="none" xmlns="http://www.w3.org/2000/svg">
<g clip-path="url(#clip0_202_9746)">
<path d="M24.9314 3.81201H34.52C35.3403 3.81201 36.0061 4.47785 36.0061 5.2982V28.7007C36.0061 29.5211 35.3403 30.1869 34.52 30.1869H24.9314C24.111 30.1869 23.4452 29.5211 23.4452 28.7007V5.2982C23.448 4.47785 24.111 3.81201 24.9314 3.81201Z" fill="#038387"/>
<path d="M29.522 33.1396H10.0274C9.16207 33.1396 8.45972 32.4513 8.45972 31.6029V25.0709L20.8015 22.3823L31.0868 25.0709V31.6029C31.0868 32.4513 30.3845 33.1396 29.522 33.1396Z" fill="#038387"/>
<path d="M29.4714 0.864746H10.0779C9.18449 0.864746 8.45966 1.57834 8.46247 2.45488V17.0021L20.1188 18.3478L31.0896 17.0021V2.45488C31.0896 1.57834 30.3648 0.864746 29.4714 0.864746Z" fill="#37C6D0"/>
<path d="M31.0896 17.002H8.46252V25.0706H31.0896V17.002Z" fill="#1A9BA1"/>
<path opacity="0.2" d="M18.9782 9.43923V26.7509C18.981 26.838 18.9698 26.9279 18.9529 27.015C18.8293 27.7483 18.1916 28.2877 17.4471 28.2849H8.46252V7.90528H17.4471C18.2927 7.90247 18.9782 8.58797 18.9782 9.4308C18.9782 9.43361 18.9782 9.43642 18.9782 9.43923Z" fill="black"/>
<path opacity="0.1" d="M19.6356 9.43891V25.4358C19.6244 26.641 18.6523 27.6131 17.4471 27.6243H8.46252V7.24756H17.4471C18.6523 7.25318 19.63 8.23086 19.6356 9.43891Z" fill="black"/>
<path opacity="0.2" d="M18.9782 9.43923V25.4361C18.981 26.2817 18.2955 26.9672 17.4527 26.9672C17.4499 26.9672 17.4499 26.9672 17.4471 26.9672H8.46252V7.90528H17.4471C18.2927 7.90247 18.9782 8.58797 18.9782 9.4308C18.9782 9.43361 18.9782 9.43642 18.9782 9.43923Z" fill="black"/>
<path opacity="0.1" d="M18.3208 9.43923V25.4361C18.3236 26.2817 17.6381 26.9672 16.7953 26.9672C16.7925 26.9672 16.7925 26.9672 16.7897 26.9672H8.46252V7.90528H16.7897C17.6353 7.90247 18.3208 8.58797 18.3208 9.4308C18.3208 9.43361 18.3208 9.43642 18.3208 9.43923Z" fill="black"/>
<path d="M1.54005 7.82092H16.8767C17.7252 7.82092 18.4107 8.50642 18.4107 9.35487V24.6915C18.4107 25.54 17.7252 26.2255 16.8767 26.2255H1.54005C0.691604 26.2255 0.00610352 25.54 0.00610352 24.6915V9.35487C0.00610352 8.50923 0.691604 7.82092 1.54005 7.82092Z" fill="url(#paint0_linear_202_9746)"/>
<path d="M9.3531 12.0153C10.3195 11.9507 11.2747 12.2372 12.0445 12.8244C12.6935 13.4228 13.0363 14.2825 12.9773 15.1647C12.9885 15.7799 12.8284 16.384 12.5165 16.9149C12.2047 17.4319 11.7467 17.8449 11.2045 18.1061C10.5892 18.4011 9.91498 18.5472 9.23229 18.5304H7.36683V22.0927H5.45361V12.0153H9.3531ZM7.36402 16.9908H9.01316C9.53852 17.0301 10.0583 16.87 10.4684 16.5441C10.814 16.2013 10.9938 15.7266 10.9601 15.2405C10.9601 14.1308 10.3308 13.5745 9.07216 13.5745H7.36402V16.9908Z" fill="white"/>
<path opacity="0.2" d="M31.7582 3.81201H31.0896V30.1841H31.7582V3.81201Z" fill="black"/>
<path opacity="0.1" d="M32.4269 3.81201H31.7583V30.1841H32.4269V3.81201Z" fill="black"/>
</g>
<defs>
<linearGradient id="paint0_linear_202_9746" x1="3.20354" y1="6.62393" x2="15.2123" y2="27.4237" gradientUnits="userSpaceOnUse">
<stop stop-color="#058F92"/>
<stop offset="0.5" stop-color="#038489"/>
<stop offset="1" stop-color="#026D71"/>
</linearGradient>
<clipPath id="clip0_202_9746">
<rect width="37" height="34" fill="white"/>
</clipPath>
</defs>
</svg>
