<svg width="37" height="37" viewBox="0 0 37 37" fill="none" xmlns="http://www.w3.org/2000/svg">
<g clip-path="url(#clip0_202_9818)">
<path d="M18.0042 36.0016C27.9453 36.0016 36.0042 27.9427 36.0042 18.0016C36.0042 8.06046 27.9453 0.00158691 18.0042 0.00158691C8.06302 0.00158691 0.00415039 8.06046 0.00415039 18.0016C0.00415039 27.9427 8.06302 36.0016 18.0042 36.0016Z" fill="#F2F2F2"/>
<path d="M23.4173 28.6445C19.8631 29.9536 15.962 29.9536 12.4078 28.6445C12.0805 28.5267 11.8187 28.1405 11.8187 27.8067V26.9492C11.8187 26.6154 12.0805 26.4518 12.4078 26.5696C15.962 27.8787 19.8631 27.8787 23.4173 26.5696C23.7445 26.4518 24.0064 26.6154 24.0064 26.9492V27.8067C23.9998 28.1405 23.738 28.5267 23.4173 28.6445Z" fill="#ED1C24"/>
<path d="M23.4173 27.5972C19.8631 29.4169 15.962 29.4169 12.4078 27.5972C12.0805 27.4336 11.8187 26.8969 11.8187 26.4321V25.2474C11.8187 24.7827 12.0805 24.5536 12.4078 24.7238C15.962 26.5434 19.8631 26.5434 23.4173 24.7238C23.7445 24.5601 24.0064 24.7827 24.0064 25.2474V26.4321C23.9998 26.8969 23.738 27.4336 23.4173 27.5972Z" fill="#C1272D"/>
<path d="M17.9123 29.5936C18.1907 29.5936 18.4163 29.3679 18.4163 29.0896C18.4163 28.8112 18.1907 28.5856 17.9123 28.5856C17.634 28.5856 17.4083 28.8112 17.4083 29.0896C17.4083 29.3679 17.634 29.5936 17.9123 29.5936Z" fill="#C1272D"/>
<path d="M17.9123 29.4496C18.1509 29.4496 18.3443 29.2562 18.3443 29.0176C18.3443 28.779 18.1509 28.5856 17.9123 28.5856C17.6738 28.5856 17.4803 28.779 17.4803 29.0176C17.4803 29.2562 17.6738 29.4496 17.9123 29.4496Z" fill="#FF931E"/>
<path d="M18.0368 29.3187C18.1199 29.3187 18.1873 29.2513 18.1873 29.1681C18.1873 29.085 18.1199 29.0176 18.0368 29.0176C17.9536 29.0176 17.8862 29.085 17.8862 29.1681C17.8862 29.2513 17.9536 29.3187 18.0368 29.3187Z" fill="#FFB81E"/>
<path d="M17.9123 32.0742C18.657 32.0742 19.2607 31.4705 19.2607 30.7259C19.2607 29.9812 18.657 29.3775 17.9123 29.3775C17.1676 29.3775 16.564 29.9812 16.564 30.7259C16.564 31.4705 17.1676 32.0742 17.9123 32.0742Z" fill="#FF931E"/>
<path d="M17.9123 31.9498C18.5811 31.9498 19.1232 31.4077 19.1232 30.7389C19.1232 30.0702 18.5811 29.528 17.9123 29.528C17.2436 29.528 16.7014 30.0702 16.7014 30.7389C16.7014 31.4077 17.2436 31.9498 17.9123 31.9498Z" fill="#FFB81E"/>
<path d="M18.2658 30.3529C18.3378 30.4183 18.377 30.51 18.377 30.6409C18.377 30.7718 18.3378 30.8634 18.2658 30.9289C18.1872 30.9878 18.076 31.0205 17.9189 31.0205H17.7814V31.315H17.5458V30.2612H17.9189C18.076 30.2612 18.1938 30.2874 18.2658 30.3529ZM18.0956 30.7652C18.1218 30.7325 18.1349 30.6867 18.1349 30.6278C18.1349 30.5689 18.1152 30.523 18.0825 30.4969C18.0432 30.4707 17.9909 30.4576 17.9123 30.4576H17.7814V30.811H17.9385C18.017 30.811 18.0694 30.798 18.0956 30.7652Z" fill="#FF931E"/>
<path d="M28.8368 19.7557C29.1641 24.2394 24.3139 28.2648 17.9779 28.2583C11.6485 28.2648 6.79174 24.2394 7.11901 19.7557C7.44628 15.259 12.3226 11.5477 17.991 11.5412C23.6659 11.5477 28.503 15.259 28.8368 19.7557Z" fill="#F7BD89"/>
<path d="M17.9584 10.9128C12.002 10.9128 6.47108 15.1084 7.51835 21.4968C7.72781 22.0859 8.07472 23.6175 9.73072 24.9724C10.2282 25.3782 11.0856 25.7186 11.4914 25.4437C12.5322 24.7368 10.6864 22.7077 12.794 20.8357H12.7482C13.8936 19.9651 15.5169 19.2713 17.9453 19.2713C20.3736 19.2713 21.9969 19.9651 23.1424 20.8357H23.0965C25.2042 22.7077 23.3649 24.7368 24.3991 25.4437C24.8049 25.7186 25.6689 25.3782 26.1598 24.9724C27.8158 23.6175 28.1693 22.0859 28.3787 21.4968C29.426 15.1019 23.9147 10.9128 17.9584 10.9128Z" fill="#FBD5A0"/>
<path d="M23.0835 21.523C22.082 20.2925 20.1838 19.1012 17.978 19.1012H17.9584H17.9518C15.7395 19.1012 13.8413 20.2925 12.8464 21.523C11.8122 22.7797 12.1853 23.3165 12.1853 24.5208C12.1853 28.8801 13.7104 27.6103 14.738 28.1339C15.7853 28.6445 16.8457 28.4612 17.9584 28.4612H17.978C19.0907 28.4612 20.1511 28.6445 21.1984 28.1274C22.2195 27.6037 23.7511 28.8867 23.7511 24.5274C23.7446 23.3296 24.1177 22.7797 23.0835 21.523Z" fill="black"/>
<path d="M10.6079 21.4116C11.6165 21.4116 12.4341 20.594 12.4341 19.5855C12.4341 18.5769 11.6165 17.7593 10.6079 17.7593C9.59935 17.7593 8.78174 18.5769 8.78174 19.5855C8.78174 20.594 9.59935 21.4116 10.6079 21.4116Z" fill="#F7BD89"/>
<path d="M10.7715 21.104C11.7801 21.104 12.5977 20.2864 12.5977 19.2778C12.5977 18.2693 11.7801 17.4517 10.7715 17.4517C9.76292 17.4517 8.94531 18.2693 8.94531 19.2778C8.94531 20.2864 9.76292 21.104 10.7715 21.104Z" fill="black"/>
<path d="M11.2363 18.9309C11.4966 18.9309 11.7076 18.7199 11.7076 18.4596C11.7076 18.1993 11.4966 17.9883 11.2363 17.9883C10.976 17.9883 10.765 18.1993 10.765 18.4596C10.765 18.7199 10.976 18.9309 11.2363 18.9309Z" fill="white"/>
<path d="M25.2697 21.4116C26.2782 21.4116 27.0958 20.594 27.0958 19.5855C27.0958 18.5769 26.2782 17.7593 25.2697 17.7593C24.2611 17.7593 23.4435 18.5769 23.4435 19.5855C23.4435 20.594 24.2611 21.4116 25.2697 21.4116Z" fill="#F7BD89"/>
<path d="M25.1649 21.1041C26.1735 21.1041 26.9911 20.2865 26.9911 19.2779C26.9911 18.2693 26.1735 17.4517 25.1649 17.4517C24.1564 17.4517 23.3387 18.2693 23.3387 19.2779C23.3387 20.2865 24.1564 21.1041 25.1649 21.1041Z" fill="black"/>
<path d="M25.6297 18.9309C25.89 18.9309 26.101 18.7199 26.101 18.4596C26.101 18.1993 25.89 17.9883 25.6297 17.9883C25.3694 17.9883 25.1584 18.1993 25.1584 18.4596C25.1584 18.7199 25.3694 18.9309 25.6297 18.9309Z" fill="white"/>
<path d="M14.1162 12.5492C14.1162 12.5492 7.93073 13.6162 7.682 21.006C7.67546 21.1172 7.55764 21.1892 7.45946 21.1303L7.26309 21.0125L7.11255 19.0751L7.394 15.1216L9.97291 13.2169L12.29 12.2809L14.1162 12.5492Z" fill="#F7BD89"/>
<path d="M21.7939 12.5492C21.7939 12.5492 27.9794 13.6162 28.2281 21.006C28.2347 21.1172 28.3525 21.1892 28.4507 21.1303L28.647 21.0125L28.7976 19.0751L28.5161 15.1216L25.9372 13.2169L23.6201 12.2809L21.7939 12.5492Z" fill="#F7BD89"/>
<path d="M17.8287 25.7092V21.9812H18.101V25.7003C18.5022 25.7474 19.0235 25.9806 19.5227 26.131C20.0397 26.3142 20.5372 26.3863 20.3408 26.4124C19.6601 26.4386 18.9139 26.1833 17.9976 26.1964C17.0747 26.1833 16.3285 26.4386 15.6543 26.4124C15.4579 26.3797 15.9554 26.3077 16.4725 26.131C16.9457 25.9884 17.4338 25.7714 17.8287 25.7092ZM19.6732 20.7244C19.8892 21.2023 19.143 21.9812 17.9583 21.9812C16.7736 21.9812 16.0274 21.2023 16.2434 20.7244C16.4528 20.2335 17.2056 20.0764 17.9583 20.0699C18.711 20.0764 19.4637 20.2335 19.6732 20.7244Z" fill="#4D4D4D"/>
<path d="M14.1162 12.5493C14.1162 12.5493 6.83107 13.5573 7.45943 20.79C7.49216 21.1565 6.00634 19.2256 4.85434 18.6365C3.70234 18.0474 3.74162 16.1427 3.74162 16.1427C3.74162 16.1427 3.72198 12.8242 8.3758 11.8423C13.0231 10.8671 14.1162 12.5493 14.1162 12.5493ZM21.794 12.5493C21.794 12.5493 29.0791 13.5573 28.4507 20.79C28.418 21.1565 29.9038 19.2256 31.0558 18.6365C32.2078 18.0474 32.1685 16.1427 32.1685 16.1427C32.1685 16.1427 32.1882 12.8242 27.5343 11.8423C22.8871 10.8671 21.794 12.5493 21.794 12.5493Z" fill="black"/>
<path d="M17.9648 17.7593C15.7001 17.7593 13.4092 19.9848 13.887 19.7361C14.7706 19.2713 15.2812 18.4532 17.9648 18.4532C20.6485 18.4532 21.1525 19.2713 22.0426 19.7361C22.5205 19.9848 20.2296 17.7593 17.9648 17.7593Z" fill="#F7BD89"/>
<path d="M17.9649 16.7842C16.2434 16.7842 14.5089 18.4729 14.8689 18.2831C15.5431 17.9296 16.4071 17.3078 17.9649 17.3078C19.5227 17.3078 20.3867 17.9296 21.0609 18.2831C21.4209 18.4729 19.6863 16.7842 17.9649 16.7842Z" fill="#F7BD89"/>
<path d="M17.9518 11.3055C16.0536 11.3055 14.1292 12.3921 14.5285 12.2677C15.2747 12.0386 16.2303 11.6394 17.9518 11.6394C19.6732 11.6394 20.6289 12.0386 21.3751 12.2677C21.7743 12.3921 19.8565 11.3055 17.9518 11.3055Z" fill="#F7BD89"/>
<path d="M18.3903 20.4627C18.4427 20.5805 18.2594 20.7703 17.9649 20.7703C17.6703 20.7703 17.4871 20.5805 17.5394 20.4627C17.5918 20.3449 17.7751 20.3056 17.9649 20.2991C18.1482 20.2991 18.338 20.3383 18.3903 20.4627Z" fill="#808080"/>
</g>
<defs>
<clipPath id="clip0_202_9818">
<rect width="37" height="37" fill="white"/>
</clipPath>
</defs>
</svg>
