<svg width="32" height="41" viewBox="0 0 32 41" fill="none" xmlns="http://www.w3.org/2000/svg">
<g clip-path="url(#clip0_202_15241)">
<path d="M29.1946 25.1988C29.8897 17.2543 26.6869 10.4845 22.041 10.078C17.3952 9.67153 13.0655 15.7824 12.3704 23.7269C11.6754 31.6714 14.8781 38.4412 19.524 38.8477C24.1699 39.2542 28.4996 33.1434 29.1946 25.1988Z" fill="#D04B06"/>
<path d="M31.6692 25.1988C32.3643 17.2543 29.1615 10.4845 24.5156 10.078C19.8698 9.67153 15.5401 15.7824 14.845 23.7269C14.15 31.6714 17.3527 38.4412 21.9986 38.8477C26.6445 39.2542 30.9742 33.1434 31.6692 25.1988Z" fill="#C65C14"/>
<path d="M12.5049 38.8477C17.1508 38.4412 20.3535 31.6714 19.6585 23.7269C18.9634 15.7824 14.6337 9.67153 9.98787 10.078C5.34199 10.4845 2.13922 17.2543 2.83428 25.1988C3.52933 33.1434 7.85902 39.2542 12.5049 38.8477Z" fill="#D04B06"/>
<path d="M10.0308 38.8477C14.6767 38.4412 17.8794 31.6714 17.1844 23.7269C16.4893 15.7824 12.1596 9.67153 7.51375 10.078C2.86787 10.4845 -0.334902 17.2543 0.360155 25.1988C1.05521 33.1434 5.3849 39.2542 10.0308 38.8477Z" fill="#C65C14"/>
<path d="M31.6473 26.2994C32.3423 18.3549 29.1395 11.585 24.4937 11.1786C19.8478 10.7721 15.5181 16.8829 14.823 24.8275C14.128 32.772 17.3308 39.5418 21.9766 39.9483C26.6225 40.3548 30.9522 34.2439 31.6473 26.2994Z" fill="#F17008"/>
<path d="M12.3076 14.8901L11.9827 11.9246C11.9827 11.9246 12.1617 10.3396 15.4264 10.1125C18.6911 9.88533 13.9247 2.83965 13.9247 2.83965C13.9247 2.83965 15.0208 -1.09576 16.8191 0.304396C18.6174 1.70456 18.6895 9.8848 18.6895 9.8848C18.6895 9.8848 19.8492 12.963 19.9684 14.0505" fill="#8F6646"/>
<path d="M29.1726 26.2995C29.8677 18.355 26.6649 11.5852 22.0191 11.1787C17.3732 10.7722 13.0435 16.8831 12.3484 24.8276C11.6534 32.7721 14.8562 39.542 19.502 39.9484C24.1479 40.3549 28.4776 34.2441 29.1726 26.2995Z" fill="#F48D39"/>
<path d="M10.0083 39.9483C14.6542 39.5418 17.857 32.772 17.1619 24.8275C16.4669 16.8829 12.1372 10.7721 7.49129 11.1786C2.84541 11.585 -0.357363 18.3549 0.337694 26.2994C1.03275 34.2439 5.36243 40.3548 10.0083 39.9483Z" fill="#F17008"/>
<path d="M12.4829 39.9483C17.1288 39.5418 20.3316 32.772 19.6365 24.8275C18.9415 16.8829 14.6118 10.7721 9.9659 11.1786C5.32002 11.585 2.11725 18.3549 2.8123 26.2994C3.50736 34.2439 7.83704 40.3548 12.4829 39.9483Z" fill="#F48D39"/>
<path d="M15.421 40.0029C20.0847 40.0029 23.8653 33.538 23.8653 25.5631C23.8653 17.5882 20.0847 11.1233 15.421 11.1233C10.7574 11.1233 6.97681 17.5882 6.97681 25.5631C6.97681 33.538 10.7574 40.0029 15.421 40.0029Z" fill="#F17008"/>
<path d="M15.9226 22.5784C17.5504 22.5784 18.8699 21.2589 18.8699 19.6311C18.8699 18.0034 17.5504 16.6838 15.9226 16.6838C14.2949 16.6838 12.9753 18.0034 12.9753 19.6311C12.9753 21.2589 14.2949 22.5784 15.9226 22.5784Z" fill="#F7F3F0"/>
<path d="M16.9359 21.889C17.4955 21.889 17.9491 21.4354 17.9491 20.8758C17.9491 20.3162 17.4955 19.8625 16.9359 19.8625C16.3763 19.8625 15.9226 20.3162 15.9226 20.8758C15.9226 21.4354 16.3763 21.889 16.9359 21.889Z" fill="#160C06"/>
<path d="M17.1787 21.2312C17.3519 21.2312 17.4924 21.0907 17.4924 20.9175C17.4924 20.7442 17.3519 20.6038 17.1787 20.6038C17.0054 20.6038 16.865 20.7442 16.865 20.9175C16.865 21.0907 17.0054 21.2312 17.1787 21.2312Z" fill="#F9F6F4"/>
</g>
<defs>
<clipPath id="clip0_202_15241">
<rect width="32" height="41" fill="white"/>
</clipPath>
</defs>
</svg>
