<svg width="68" height="59" viewBox="0 0 68 59" fill="none" xmlns="http://www.w3.org/2000/svg">
<g clip-path="url(#clip0_202_15067)">
<path d="M44.7514 7.93267C46.7483 8.07329 48.5905 8.41079 49.4061 8.97329C49.828 9.36704 50.1373 10.1405 50.278 11.0405C50.4186 11.8702 50.4045 12.8124 50.2498 13.6702C50.0951 14.5139 49.7858 15.2874 49.3217 15.8077C48.9983 16.1733 48.6045 16.4124 48.1123 16.4967C47.0295 16.6655 46.4108 15.6108 45.5389 14.1483C44.7655 12.8405 43.8233 11.2514 42.2342 9.84517C41.6014 9.3811 41.0389 9.85923 41.3764 10.2249C43.0639 11.6311 44.0201 13.2483 44.8076 14.5702C45.8483 16.328 46.5936 17.5936 48.2389 17.3264C48.5764 17.2702 48.8858 17.1577 49.167 17.003C50.4326 19.3936 51.1498 22.1217 51.1498 25.0327C51.1498 29.7717 49.2373 34.0467 46.1295 37.1545C43.0358 40.2483 38.7467 42.1749 34.0217 42.1749C29.2967 42.1749 25.0076 40.2624 21.9139 37.1545C18.8201 34.0608 16.8936 29.7717 16.8936 25.0327C16.8936 23.8655 17.0061 22.7405 17.2311 21.6436C17.1186 21.0108 17.0623 20.3217 17.0201 19.8014C16.8795 18.2827 16.7811 16.1733 16.9498 14.3733C17.0764 12.8967 17.3717 11.6592 17.9342 11.2795C17.9764 11.2514 18.0045 11.2233 18.0326 11.1811C18.2155 10.942 19.2842 10.2389 20.9295 9.77485C21.7592 9.53579 22.7155 9.3811 23.7701 9.3811C24.0092 9.3811 24.2623 9.39517 24.5155 9.40923C25.992 9.52173 27.5811 10.7874 28.678 12.3202C29.128 12.953 29.4936 13.628 29.7326 14.2889C29.9717 14.9358 30.0842 15.5545 30.042 16.103C29.9998 16.6795 29.7748 17.1717 29.3108 17.4952C28.5092 18.0717 27.3701 17.7202 26.0764 17.3124C24.0655 16.6795 21.703 15.9342 19.1717 17.8467C18.5389 18.2967 18.9793 18.8768 19.359 18.7362C21.7215 16.7675 23.9823 17.4966 25.8526 18.0873C27.3573 18.5654 28.5795 18.9769 29.7326 18.1612C30.4076 17.6691 30.8297 16.8406 30.8297 16.1761C30.8297 15.5116 30.7591 14.7818 30.4919 14.0365C30.2248 13.3052 29.8592 12.5452 29.367 11.8561C28.692 10.9139 27.8342 10.0702 26.9201 9.46548C29.0858 8.4811 31.4905 7.93267 34.0217 7.93267C35.3014 7.93267 36.5389 8.07329 37.7342 8.34048C38.2405 8.12954 38.9155 8.04517 39.5061 7.96079C40.1811 7.90454 40.9826 7.86235 41.8545 7.86235C41.9811 7.83423 42.0936 7.83423 42.2201 7.83423C43.0498 7.83423 43.9076 7.86235 44.7514 7.93267Z" fill="url(#paint0_radial_202_15067)"/>
<path d="M41.8261 7.98853C45.7073 7.98853 48.8433 9.18384 48.8433 10.6604C48.8433 11.7995 46.987 12.7698 44.3573 13.1495C43.9776 11.026 41.3339 9.24009 37.7339 8.48071C38.887 8.17134 40.3073 7.98853 41.8261 7.98853Z" fill="url(#paint1_linear_202_15067)"/>
<path d="M33.8387 8.08716C39.6746 8.08716 44.4137 10.5903 44.4137 13.684C44.4137 16.7778 39.6746 19.2809 33.8387 19.2809C32.0246 19.2809 30.323 19.0418 28.8324 18.62C28.8887 18.6059 28.9309 18.5918 28.9871 18.5918C29.3668 18.4934 29.7465 18.2825 30.1121 17.9168C30.4496 17.5231 30.6887 17.1012 30.8152 16.6231C30.9418 16.159 30.9418 15.6387 30.8152 15.0762C30.6887 14.5278 30.5059 14.0075 30.2949 13.5153C30.0699 13.0231 29.8168 12.545 29.5215 12.0809C29.1699 11.5606 28.7902 11.0684 28.3684 10.6325C27.9465 10.1965 27.4684 9.80278 26.9199 9.46528C28.7762 8.60747 31.1949 8.08716 33.8387 8.08716Z" fill="url(#paint2_linear_202_15067)"/>
<path d="M42.1355 7.00415C40.223 7.00415 38.5074 7.15884 37.7339 7.38384C37.6918 7.3979 37.6496 7.41196 37.6074 7.44009C36.4543 7.20103 35.2449 7.08853 34.0214 7.08853C31.1386 7.08853 28.4105 7.76353 25.9918 8.9729C25.5277 8.77603 25.0496 8.6354 24.5714 8.60728C23.123 8.49478 21.8011 8.69165 20.6902 9.00103C18.9605 9.49321 17.7371 10.2948 17.3996 10.6463C16.6261 11.2229 16.2464 12.6573 16.0918 14.3307C15.8668 16.876 16.1339 20.0401 16.3449 21.3198C16.3449 21.376 16.373 21.4182 16.3871 21.4604C16.148 22.6135 16.0214 23.8229 16.0214 25.0463C16.0214 30.0104 18.0324 34.4963 21.2949 37.7448C24.5574 40.9932 29.0433 43.0042 34.0074 43.0042C38.9714 43.0042 43.4714 40.9932 46.7199 37.7448C49.9683 34.4963 51.9933 30.0104 51.9933 25.0463C51.9933 21.9526 51.2058 19.0416 49.8277 16.5104L49.9402 16.3979C50.5168 15.751 50.8824 14.837 51.0652 13.8526C51.248 12.8963 51.248 11.8557 51.0933 10.9417C50.9105 9.84478 50.5168 8.88853 49.9402 8.36821C49.9261 8.35415 49.9121 8.34009 49.898 8.34009C48.9558 7.66509 46.9449 7.2854 44.7933 7.13071C43.9214 7.03228 43.0074 7.00415 42.1355 7.00415ZM42.2199 7.8479C43.0496 7.8479 43.9074 7.87603 44.7511 7.94634C46.748 8.08696 48.6043 8.42446 49.4058 8.98696C49.8277 9.38071 50.1371 10.1542 50.2777 11.0542C50.4183 11.8838 50.4043 12.826 50.2496 13.6838C50.0949 14.5276 49.7855 15.301 49.3214 15.8213C48.998 16.187 48.6043 16.426 48.1121 16.5104C47.0293 16.6792 46.4105 15.6245 45.5386 14.162C44.7652 12.8542 43.823 11.2792 42.2339 9.85884C41.6011 9.39478 41.0386 9.8729 41.3761 10.2385C43.0636 11.6307 44.0199 13.262 44.8074 14.5838C45.848 16.3417 46.5933 17.6073 48.2386 17.3401C48.5761 17.2838 48.8855 17.1713 49.1668 17.0167C50.4324 19.4073 51.1636 22.1354 51.1636 25.0323C51.1636 29.7573 49.2511 34.0463 46.1433 37.1401C43.0496 40.2338 38.7605 42.1463 34.0214 42.1463C29.2824 42.1463 25.0074 40.2338 21.8996 37.1401C18.7918 34.0463 16.8793 29.7573 16.8793 25.0323C16.8793 23.8651 16.9918 22.7401 17.2168 21.6432C17.1043 21.0104 17.048 20.3213 17.0058 19.801V19.787C16.8652 18.2823 16.7668 16.1729 16.9214 14.3729C17.048 12.8963 17.3433 11.6588 17.9058 11.2792C17.948 11.251 17.9761 11.2229 18.0043 11.1807C18.1871 10.9417 19.2699 10.2385 20.9152 9.77446C21.7449 9.5354 22.7011 9.38071 23.7558 9.38071C23.9949 9.38071 24.248 9.39478 24.5011 9.40884C25.9918 9.52134 27.5668 10.787 28.6636 12.3057C29.1136 12.9385 29.4793 13.6135 29.7183 14.2604C29.9574 14.9073 30.0699 15.526 30.0277 16.0745C29.9855 16.651 29.7605 17.1432 29.2964 17.4667C28.4949 18.0432 27.3558 17.6917 26.0621 17.2838C24.0511 16.651 21.6746 15.9057 19.1574 17.8182C18.5246 18.2682 18.9746 18.9151 19.3543 18.7745C21.7168 16.8198 23.9386 17.5088 25.8089 18.0995C27.3136 18.5776 28.6355 18.9854 29.7886 18.1698C30.4777 17.6776 30.8011 16.9745 30.8714 16.1588C30.9277 15.4838 30.7871 14.7526 30.5199 13.9932C30.2527 13.262 29.8449 12.5167 29.3527 11.8276C28.6777 10.8854 27.8199 10.0417 26.9058 9.45103C29.0714 8.46665 31.4761 7.91821 34.0074 7.91821C35.2871 7.91821 36.5246 8.05884 37.7199 8.32603C38.2261 8.11509 38.9011 8.03071 39.5058 7.94634C40.1808 7.89009 40.9824 7.8479 41.8543 7.8479H42.2199ZM44.048 16.9604C42.3886 16.9604 41.0527 18.2963 41.0527 19.9557C41.0527 21.6151 42.4027 22.951 44.048 22.951C45.6933 22.951 47.0433 21.6151 47.0433 19.9557C47.0433 18.2963 45.7074 16.9604 44.048 16.9604ZM25.3449 19.1542C22.1105 19.1542 19.4808 21.7838 19.4808 25.0042C19.4808 28.2385 22.1105 30.8542 25.3449 30.8542C28.5793 30.8542 31.2089 28.2385 31.2089 25.0042C31.2089 21.7698 28.5793 19.1542 25.3449 19.1542ZM26.9621 22.2198C28.4527 22.2198 29.648 23.4292 29.648 24.9057C29.648 26.3823 28.4386 27.5917 26.9621 27.5917C25.4855 27.5917 24.2761 26.3823 24.2761 24.9057C24.2761 23.4151 25.4714 22.2198 26.9621 22.2198ZM41.8683 24.5542C41.798 24.5542 41.7277 24.5682 41.6574 24.5963L33.3043 27.0151C33.2902 27.0151 33.2761 27.0292 33.2621 27.0292C33.023 27.1135 32.8543 27.3385 32.8543 27.6198C32.8543 27.8729 33.0089 28.0979 33.2339 28.1963L38.3808 31.0932V31.1213C38.3808 32.0073 37.9871 32.8229 37.3402 33.4135C36.6933 34.0182 35.7793 34.3838 34.7668 34.3838C34.1339 34.3838 33.5293 34.2432 32.9949 33.962C32.4746 33.6948 32.0246 33.3151 31.7011 32.837C31.7011 32.8229 31.6871 32.8229 31.6871 32.8229C31.5886 32.6682 31.4199 32.5698 31.223 32.5698C30.9136 32.5698 30.6605 32.8229 30.6605 33.1323C30.6605 33.2588 30.7027 33.3713 30.773 33.4698C31.2089 34.1026 31.7996 34.6088 32.4886 34.9604C33.1777 35.312 33.9652 35.5088 34.7668 35.5088C36.0605 35.5088 37.2418 35.0166 38.0996 34.2432C38.7183 33.6807 39.1683 32.9495 39.3793 32.1338C40.223 32.8229 41.3199 33.2448 42.5293 33.2448C43.823 33.2448 45.0043 32.7667 45.8621 31.9792C46.7339 31.1776 47.2683 30.0807 47.2683 28.8713V28.6885C47.2683 28.6885 47.2683 28.6885 47.2683 28.6745C47.2683 28.3651 47.0152 28.112 46.7058 28.112C46.3964 28.112 46.1433 28.3651 46.1433 28.6745V28.6885V28.7167V28.8713C46.1433 29.7573 45.7496 30.5729 45.1027 31.1635C44.4558 31.7682 43.5418 32.1338 42.5293 32.1338C41.5589 32.1338 40.6871 31.7963 40.0402 31.2338C39.8996 31.1213 39.7871 30.9948 39.6746 30.8542L42.4308 25.5104C42.4871 25.412 42.5152 25.3135 42.5152 25.201C42.4871 24.8354 42.2058 24.5542 41.8683 24.5542Z" fill="black"/>
<path d="M22.8979 15.1604C25.7016 15.1604 27.9744 13.9642 27.9744 12.4885C27.9744 11.0129 25.7016 9.81665 22.8979 9.81665C20.0941 9.81665 17.8213 11.0129 17.8213 12.4885C17.8213 13.9642 20.0941 15.1604 22.8979 15.1604Z" fill="url(#paint3_linear_202_15067)"/>
<path d="M29.5635 19.0696C30.9838 19.0696 31.5042 18.0852 31.5042 16.8899C31.5042 16.2149 31.0542 14.8649 30.7307 14.429L30.6595 14.5305C30.8142 15.093 30.897 15.6472 30.8548 16.1534C30.7845 16.9831 30.4569 17.6532 29.7679 18.1313C29.0788 18.6376 28.3308 18.7113 27.5151 18.5567C28.2042 18.8098 29.0292 19.0696 29.5635 19.0696Z" fill="#141414" fill-opacity="0.3922"/>
<path d="M48.1966 17.6919C48.731 17.8606 49.1717 17.8556 49.5513 17.7572C49.4388 17.5041 49.3005 17.2383 49.1739 16.9993C48.8927 17.154 48.5965 17.2729 48.259 17.3291C48.02 17.3572 47.8028 17.3825 47.606 17.3684C47.8028 17.5091 47.9997 17.6356 48.1966 17.6919Z" fill="#141414" fill-opacity="0.3922"/>
<g filter="url(#filter0_f_202_15067)">
<path d="M49.4478 19.0131C49.4478 28.6038 41.6712 36.3803 32.0806 36.3803C25.5556 36.3803 19.8603 32.7803 16.8931 27.4506C18.1024 35.8459 25.3446 42.3147 34.0774 42.3147C43.6681 42.3147 51.4446 34.5381 51.4446 24.9475C51.4587 21.8819 50.6571 18.9991 49.2649 16.51C49.3774 17.3256 49.4478 18.1553 49.4478 19.0131Z" fill="url(#paint4_radial_202_15067)"/>
</g>
</g>
<defs>
<filter id="filter0_f_202_15067" x="0.893066" y="0.51001" width="66.5518" height="57.8047" filterUnits="userSpaceOnUse" color-interpolation-filters="sRGB">
<feFlood flood-opacity="0" result="BackgroundImageFix"/>
<feBlend mode="normal" in="SourceGraphic" in2="BackgroundImageFix" result="shape"/>
<feGaussianBlur stdDeviation="8" result="effect1_foregroundBlur_202_15067"/>
</filter>
<radialGradient id="paint0_radial_202_15067" cx="0" cy="0" r="1" gradientUnits="userSpaceOnUse" gradientTransform="translate(27.5153 20.5218) scale(43.9394 44.0056)">
<stop stop-opacity="0.23"/>
<stop offset="1" stop-color="white" stop-opacity="0"/>
</radialGradient>
<linearGradient id="paint1_linear_202_15067" x1="42.7337" y1="6.73184" x2="43.0142" y2="12.8088" gradientUnits="userSpaceOnUse">
<stop stop-color="#FFFDFF"/>
<stop offset="1" stop-color="white" stop-opacity="0"/>
</linearGradient>
<linearGradient id="paint2_linear_202_15067" x1="33.7954" y1="10.158" x2="35.0619" y2="17.3649" gradientUnits="userSpaceOnUse">
<stop stop-color="white"/>
<stop offset="1" stop-color="white" stop-opacity="0"/>
</linearGradient>
<linearGradient id="paint3_linear_202_15067" x1="23.2141" y1="13.7569" x2="23.0249" y2="11.0419" gradientUnits="userSpaceOnUse">
<stop stop-color="white" stop-opacity="0.01"/>
<stop offset="1" stop-color="white" stop-opacity="0.7843"/>
</linearGradient>
<radialGradient id="paint4_radial_202_15067" cx="0" cy="0" r="1" gradientUnits="userSpaceOnUse" gradientTransform="translate(34.8682 26.3463) scale(30.1133 22.4899)">
<stop stop-opacity="0"/>
<stop offset="0.6326" stop-color="white" stop-opacity="0"/>
<stop offset="0.6975" stop-opacity="0.3922"/>
<stop offset="0.996991" stop-opacity="0.993955"/>
<stop offset="1"/>
</radialGradient>
<clipPath id="clip0_202_15067">
<rect width="68" height="59" fill="white"/>
</clipPath>
</defs>
</svg>
