<svg width="28" height="41" viewBox="0 0 28 41" fill="none" xmlns="http://www.w3.org/2000/svg">
<g clip-path="url(#clip0_202_15577)">
<path d="M27.1318 22.4304H0.834961V20.9474C0.834961 19.9509 1.64272 19.1432 2.63909 19.1432H25.3275C26.324 19.1432 27.1318 19.9509 27.1318 20.9474V22.4304Z" fill="#DFDEDF"/>
<path d="M25.2998 39.6287H2.66693C1.65517 39.6287 0.834961 38.8085 0.834961 37.7967V22.4303H27.1318V37.7967C27.1318 38.8085 26.3116 39.6287 25.2998 39.6287Z" fill="white"/>
<path d="M26.8051 22.1321V20.8021C26.8051 20.017 26.1687 19.3805 25.3836 19.3805H2.62344C1.8383 19.3805 1.20189 20.017 1.20189 20.8021V22.1321H26.8051ZM26.8051 37.9867V22.7285H1.20189V37.9867C1.20189 38.7718 1.8383 39.4082 2.62344 39.4082H25.3836C26.1687 39.4082 26.8051 38.7718 26.8051 37.9867ZM2.7569 18.7841L2.84545 17.8174L2.46947 18.7919C2.52045 18.788 2.57142 18.7841 2.62344 18.7841H2.7569ZM25.094 17.1544L25.2253 18.7841H25.3836C25.4682 18.7841 25.5511 18.791 25.6331 18.8012L25.094 17.1544ZM26.8993 19.4743C27.2109 19.8296 27.4015 20.2935 27.4015 20.8021V37.9867C27.4015 39.0994 26.4962 40.0046 25.3836 40.0046H2.62344C1.51078 40.0046 0.605469 39.0994 0.605469 37.9867V20.8021C0.605469 20.2628 0.819314 19.7735 1.16515 19.411L3.17695 14.1966L4.05421 4.61341L5.04399 4.70395L4.2535 13.3386L4.53193 13.446L4.15406 14.4255L3.75505 18.7841H24.2282L23.0921 4.68008L24.0827 4.60022L24.7528 12.9184L24.7532 12.9183L26.8993 19.4743ZM2.81997 20.3525C3.06867 20.3525 3.27027 20.5541 3.27027 20.8028C3.27027 21.0515 3.06867 21.2531 2.81997 21.2531C2.57126 21.2531 2.36967 21.0515 2.36967 20.8028C2.36967 20.5541 2.57126 20.3525 2.81997 20.3525ZM4.35948 20.3525C4.60818 20.3525 4.80978 20.5541 4.80978 20.8028C4.80978 21.0515 4.60818 21.2531 4.35948 21.2531C4.11078 21.2531 3.90918 21.0515 3.90918 20.8028C3.90918 20.5541 4.11078 20.3525 4.35948 20.3525ZM5.8505 20.3525C6.0992 20.3525 6.3008 20.5541 6.3008 20.8028C6.3008 21.0515 6.0992 21.2531 5.8505 21.2531C5.6018 21.2531 5.4002 21.0515 5.4002 20.8028C5.4002 20.5541 5.6018 20.3525 5.8505 20.3525Z" fill="black"/>
<path d="M4.37576 30.1243C4.45312 30.0348 4.49383 29.9172 4.49383 29.7711C4.49383 29.625 4.45312 29.5121 4.37576 29.4226C4.29433 29.3331 4.18024 29.2907 4.03369 29.2907H3.317V30.2561H4.03369C4.18024 30.2561 4.29433 30.2137 4.37576 30.1243ZM4.03369 28.7115C4.34311 28.7115 4.58751 28.8058 4.77069 28.9988C4.95397 29.1918 5.04357 29.4507 5.04357 29.7711C5.04357 30.0959 4.95397 30.3503 4.77488 30.5433C4.5916 30.7365 4.34729 30.8353 4.03369 30.8353H3.317V32.1347H2.76318V28.7115H4.03369ZM7.0215 30.8109V29.8123H7.61792V32.067H7.0215V31.8637C6.84073 32.0444 6.60585 32.1347 6.31214 32.1347C6.04103 32.1347 5.82415 32.0444 5.65699 31.8682C5.48983 31.692 5.4085 31.466 5.4085 31.1859V29.8123H6.00492V31.0594C6.00492 31.2176 6.04554 31.3486 6.13137 31.4435C6.2127 31.5384 6.32114 31.5881 6.46119 31.5881C6.83623 31.5881 7.0215 31.3305 7.0215 30.8109ZM9.94459 31.4299C10.062 31.3079 10.1208 31.1452 10.1208 30.942C10.1208 30.7387 10.062 30.5714 9.94459 30.4495C9.82255 30.3274 9.67349 30.2642 9.48822 30.2642C9.32106 30.2642 9.17201 30.3274 9.04096 30.454C8.90991 30.5805 8.84669 30.7431 8.84669 30.942C8.84669 31.1407 8.90991 31.3035 9.04096 31.4253C9.17201 31.552 9.32106 31.6152 9.48822 31.6152C9.67349 31.6152 9.82255 31.552 9.94459 31.4299ZM9.59216 29.7446C9.88587 29.7446 10.1479 29.8577 10.3694 30.0835C10.5907 30.3139 10.6991 30.5985 10.6991 30.942C10.6991 31.2853 10.5907 31.57 10.3694 31.7959C10.1479 32.0219 9.89037 32.1347 9.59216 32.1347C9.29845 32.1347 9.04996 32.0534 8.84669 31.8908V33.1426H8.25027V29.8123H8.84669V29.9931C9.04546 29.8259 9.29395 29.7446 9.59216 29.7446ZM12.8451 31.4299C12.9626 31.3079 13.0213 31.1452 13.0213 30.942C13.0213 30.7387 12.9626 30.5714 12.8451 30.4495C12.7231 30.3274 12.574 30.2642 12.3887 30.2642C12.2216 30.2642 12.0725 30.3274 11.9415 30.454C11.8104 30.5805 11.7471 30.7431 11.7471 30.942C11.7471 31.1407 11.8104 31.3035 11.9415 31.4253C12.0725 31.552 12.2216 31.6152 12.3887 31.6152C12.574 31.6152 12.7231 31.552 12.8451 31.4299ZM12.4926 29.7446C12.7863 29.7446 13.0484 29.8577 13.2699 30.0835C13.4911 30.3139 13.5996 30.5985 13.5996 30.942C13.5996 31.2853 13.4911 31.57 13.2699 31.7959C13.0484 32.0219 12.7909 32.1347 12.4926 32.1347C12.199 32.1347 11.9505 32.0534 11.7471 31.8908V33.1426H11.1508V29.8123H11.7471V29.9931C11.946 29.8259 12.1945 29.7446 12.4926 29.7446ZM14.4805 30.6799H15.5694C15.5333 30.5398 15.4654 30.436 15.3706 30.368C15.2757 30.3003 15.1628 30.2642 15.0362 30.2642C14.9143 30.2642 14.7968 30.3003 14.6928 30.3727C14.5844 30.445 14.5121 30.5488 14.4805 30.6799ZM15.0362 29.7446C15.3435 29.7446 15.6101 29.8531 15.8315 30.0654C16.0528 30.2823 16.1658 30.5578 16.1794 30.8967V31.1001H14.4625C14.4941 31.2582 14.5618 31.3846 14.6658 31.4797C14.7697 31.5745 14.8871 31.6241 15.0272 31.6241C15.2848 31.6241 15.47 31.5248 15.5875 31.326L16.1207 31.4389C16.0257 31.6694 15.8812 31.8412 15.6914 31.9586C15.5016 32.0761 15.2803 32.1347 15.0272 32.1347C14.7018 32.1347 14.4262 32.0219 14.2049 31.8005C13.9835 31.5791 13.8704 31.2899 13.8704 30.942C13.8704 30.5941 13.9835 30.3049 14.2094 30.0789C14.4307 29.8577 14.7064 29.7446 15.0362 29.7446ZM17.8238 31.5791C17.9368 31.5791 18.0633 31.5429 18.1989 31.4706L18.3705 31.9676C18.1627 32.0806 17.9684 32.1348 17.7831 32.1348C17.5075 32.1348 17.2906 32.058 17.1325 31.9088C16.9744 31.7599 16.8976 31.5384 16.8976 31.2357V30.3003H16.4141V29.8123H16.8976V29.1302H17.494V29.8123H18.2305V30.3003H17.494V31.1904C17.494 31.448 17.6025 31.5791 17.8238 31.5791ZM19.0751 30.6799H20.1641C20.1279 30.5398 20.0601 30.436 19.9653 30.368C19.8703 30.3003 19.7575 30.2642 19.6309 30.2642C19.509 30.2642 19.3915 30.3003 19.2875 30.3727C19.1791 30.445 19.1068 30.5488 19.0751 30.6799ZM19.6309 29.7446C19.9382 29.7446 20.2048 29.8531 20.4262 30.0654C20.6475 30.2823 20.7605 30.5578 20.7741 30.8967V31.1001H19.0571C19.0888 31.2582 19.1565 31.3846 19.2605 31.4797C19.3644 31.5745 19.4818 31.6241 19.6219 31.6241C19.8794 31.6241 20.0647 31.5248 20.1822 31.326L20.7153 31.4389C20.6204 31.6694 20.4759 31.8412 20.2861 31.9586C20.0963 32.0761 19.875 32.1347 19.6219 32.1347C19.2965 32.1347 19.0209 32.0219 18.7995 31.8005C18.5782 31.5791 18.4651 31.2899 18.4651 30.942C18.4651 30.5941 18.5782 30.3049 18.804 30.0789C19.0254 29.8577 19.3011 29.7446 19.6309 29.7446ZM21.7543 30.6799H22.8432C22.807 30.5398 22.7392 30.436 22.6444 30.368C22.5494 30.3003 22.4366 30.2642 22.31 30.2642C22.1881 30.2642 22.0706 30.3003 21.9666 30.3727C21.8582 30.445 21.7859 30.5488 21.7543 30.6799ZM22.31 29.7446C22.6173 29.7446 22.8839 29.8531 23.1053 30.0654C23.3266 30.2823 23.4396 30.5578 23.4532 30.8967V31.1001H21.7362C21.7679 31.2582 21.8356 31.3846 21.9396 31.4797C22.0435 31.5745 22.1609 31.6241 22.301 31.6241C22.5586 31.6241 22.7438 31.5248 22.8613 31.326L23.3945 31.4389C23.2995 31.6694 23.155 31.8412 22.9652 31.9586C22.7754 32.0761 22.5541 32.1347 22.301 32.1347C21.9756 32.1347 21.7 32.0219 21.4787 31.8005C21.2573 31.5791 21.1442 31.2899 21.1442 30.942C21.1442 30.5941 21.2573 30.3049 21.4832 30.0789C21.7045 29.8577 21.9802 29.7446 22.31 29.7446ZM25.31 29.7807C25.3778 29.7807 25.432 29.7852 25.4683 29.7987L25.4365 30.3727H25.3056C24.7679 30.3727 24.5012 30.6935 24.5012 31.3396V32.067H23.9049V29.8124H24.5012V30.2235C24.7046 29.9298 24.9757 29.7807 25.31 29.7807Z" fill="black"/>
<path d="M22.7013 13.8873L25.919 12.3339V10.7805L18.4849 7.22986L25.919 3.40189V1.90404L22.8122 0.461548L14.0097 4.84428L5.05919 0.461548L2.17432 2.01499V3.34642L9.16453 7.17438L2.17432 10.7251V12.3339L5.17014 13.8873L14.0467 9.33806L22.7013 13.8873Z" fill="#00D8A2"/>
<path d="M23.1047 13.2544V12.5853L25.5268 11.3302V12.0817L23.1047 13.2544ZM2.3692 11.3126L4.70967 12.6562V13.1911L2.3692 12.007V11.3126ZM14.3576 8.4871L22.4089 12.4652V13.2651L14.3576 9.14046V8.4871ZM5.40543 12.5816L13.6619 8.48794V9.14025L5.40543 13.3175V12.5816ZM11.2516 5.89249L2.89643 1.85863L5.06043 0.758838L14.0097 5.39822L22.8092 0.760827L25.0496 1.90835L16.9018 6.00878C16.576 6.17269 16.5766 6.63796 16.9026 6.80114L24.9664 10.837L22.8763 11.92L14.0097 7.37695L4.98632 12.0128L2.92543 10.8297L11.2562 6.68862C11.5862 6.5246 11.5835 6.05274 11.2516 5.89249ZM2.47324 3.22533V2.49116L10.2657 6.3789L9.47791 6.69365L2.47324 3.22533ZM18.4519 6.73688C18.4412 6.73039 17.7056 6.38329 17.7056 6.38329L25.5268 2.4471V3.18451L18.4519 6.73688ZM19.2347 7.12238L26.1091 3.67071C26.1787 3.63575 26.2226 3.56447 26.2226 3.4866V1.8534C26.2226 1.77604 26.1793 1.70528 26.1105 1.67001L22.9041 0.0277032C22.8454 -0.00233767 22.7758 -0.00244235 22.7169 0.0273892L14.1021 4.39892C14.044 4.42844 13.9754 4.42875 13.9169 4.39955L5.15034 0.0261332C5.09204 -0.00296571 5.02327 -0.00265169 4.96507 0.0268659L1.78607 1.64238C1.71688 1.67755 1.67334 1.74851 1.67334 1.82608V3.48565C1.67334 3.56405 1.71783 3.63565 1.78817 3.6704L8.6914 7.08104L1.82009 10.4928C1.75132 10.5271 1.70715 10.5967 1.70579 10.6736L1.67575 12.3055C1.67428 12.3846 1.71824 12.4574 1.78869 12.4931L5.08973 14.1633C5.14804 14.1927 5.21681 14.1928 5.27521 14.1635L13.9167 9.82429C13.9751 9.79487 14.0441 9.79508 14.1025 9.82471L22.6364 14.1638C22.6937 14.1929 22.7614 14.1936 22.8194 14.1656L26.1063 12.5742C26.1774 12.5398 26.2226 12.4678 26.2226 12.3889V10.6837C26.2226 10.6051 26.1779 10.5334 26.1074 10.4988L19.2347 7.12238Z" fill="black"/>
</g>
<defs>
<clipPath id="clip0_202_15577">
<rect width="28" height="41" fill="white"/>
</clipPath>
</defs>
</svg>
