<svg width="41" height="26" viewBox="0 0 41 26" fill="none" xmlns="http://www.w3.org/2000/svg">
<g clip-path="url(#clip0_202_16102)">
<path d="M8.07775 7.97824L10.141 10.042L3.52356 16.6585L10.141 23.2769L8.07775 25.3387L0.42865 17.6896C0.154191 17.4152 0.00342247 17.0494 0.00342247 16.659C0.0024652 16.2695 0.154191 15.9018 0.42865 15.6278L8.07775 7.97824ZM25.2976 18.8537L28.4206 21.7698H14.7068L11.5839 18.8537H25.2976ZM31.9296 0.670288L39.5758 8.32035C39.8512 8.59529 40.0025 8.96011 40.0034 9.35005C40.0034 9.74048 39.8512 10.1072 39.5758 10.3836L31.9296 18.0313L29.8673 15.9685L36.4814 9.35102L29.8673 2.73308L31.9296 0.670288ZM28.4206 11.5472L25.2976 14.4633H11.5839L14.7068 11.5472H28.4206ZM25.2976 4.23874L28.4196 7.15583H14.7068L11.5848 4.23874H25.2976Z" fill="#1D222D"/>
</g>
<defs>
<clipPath id="clip0_202_16102">
<rect width="41" height="26" fill="white"/>
</clipPath>
</defs>
</svg>
