<svg width="26" height="41" viewBox="0 0 26 41" fill="none" xmlns="http://www.w3.org/2000/svg">
<g clip-path="url(#clip0_202_15459)">
<path d="M13.0028 39.9469V29.9195C13.0028 29.8985 13.0144 29.8774 13.0344 29.8669L25.9313 22.4268C25.9506 22.4165 25.9624 22.3961 25.9619 22.3742V19.5236C25.9627 19.502 25.9515 19.4816 25.9328 19.4706C25.9141 19.4596 25.8909 19.4598 25.8724 19.471L13.0933 26.8437C13.0748 26.8549 13.0516 26.8551 13.0329 26.8441C13.0142 26.8331 13.003 26.8127 13.0038 26.7911V23.9384C13.0038 23.9174 13.0144 23.8974 13.0333 23.8868L25.9313 16.4468C25.95 16.4358 25.9615 16.4158 25.9619 16.3941V13.5436C25.9614 13.5225 25.95 13.5031 25.9318 13.4924C25.9135 13.4816 25.8911 13.4811 25.8724 13.491L13.0933 20.8626C13.0749 20.8743 13.0515 20.8749 13.0325 20.864C13.0136 20.8532 13.0021 20.8328 13.0028 20.811V17.9594C13.0028 17.9384 13.0144 17.9184 13.0344 17.9078L25.9313 10.4709C25.9505 10.4604 25.9622 10.4401 25.9619 10.4183V7.52986C25.9606 7.4878 25.9385 7.44912 25.9029 7.4267L13.0628 0.0192745C13.0261 -0.00219307 12.9806 -0.00219307 12.9438 0.0192745L10.5017 1.42876C10.483 1.43914 10.4713 1.45889 10.4713 1.48034C10.4713 1.50178 10.483 1.52154 10.5017 1.53192L23.2808 8.90355C23.2984 8.91475 23.3092 8.93421 23.3092 8.95513C23.3092 8.97605 23.2984 8.99552 23.2808 9.00671L20.8386 10.4151C20.8012 10.4354 20.7561 10.4354 20.7186 10.4151L7.8796 3.00982C7.84051 2.98726 7.79236 2.98726 7.75328 3.00982L5.31852 4.4172C5.29976 4.42758 5.28811 4.44734 5.28811 4.46878C5.28811 4.49023 5.29976 4.50998 5.31852 4.52036L18.0955 11.893C18.1148 11.9033 18.1268 11.9233 18.1268 11.9452C18.1268 11.967 18.1148 11.987 18.0955 11.9973L15.6533 13.4057C15.6143 13.4283 15.5661 13.4283 15.527 13.4057L2.6964 5.99827C2.65732 5.9757 2.60916 5.9757 2.57008 5.99827L0.0447998 7.45933V32.5406C0.0447998 32.5616 0.0553262 32.5827 0.0753264 32.5922L2.54692 34.0185C2.56547 34.0297 2.58869 34.0299 2.60738 34.0189C2.62607 34.0079 2.63722 33.9875 2.6364 33.9659V9.05934C2.63598 9.03786 2.64728 9.01785 2.66589 9.00712C2.68451 8.99638 2.70749 8.99663 2.72587 9.00776L5.19958 10.4341C5.21642 10.4446 5.228 10.4646 5.228 10.4867V35.5301C5.228 35.5511 5.23852 35.5722 5.25747 35.5827L7.72907 37.0101C7.74792 37.021 7.77114 37.021 7.79002 37.0101C7.80889 36.9993 7.82056 36.9792 7.82065 36.9575V12.0478C7.81983 12.0261 7.83097 12.0057 7.84967 11.9947C7.86836 11.9838 7.89158 11.9839 7.91012 11.9952L10.3817 13.4204C10.4007 13.431 10.4122 13.452 10.4122 13.4731V38.5206C10.4122 38.5417 10.4228 38.5617 10.4407 38.5733L12.9196 39.9975C12.9376 40.006 12.9587 40.0049 12.9757 39.9945C12.9927 39.9841 13.0033 39.9658 13.0038 39.9459L13.0028 39.9469Z" fill="#300D4F"/>
</g>
<defs>
<clipPath id="clip0_202_15459">
<rect width="26" height="41" fill="white"/>
</clipPath>
</defs>
</svg>
