<svg width="37" height="36" viewBox="0 0 37 36" fill="none" xmlns="http://www.w3.org/2000/svg">
<g clip-path="url(#clip0_202_10521)">
<mask id="mask0_202_10521" style="mask-type:alpha" maskUnits="userSpaceOnUse" x="0" y="0" width="37" height="37">
<path d="M36.0046 18.0009C36.0046 27.942 27.9457 36.0009 18.0046 36.0009C8.06358 36.0009 0.00463867 27.942 0.00463867 18.0009C0.00463867 8.05985 8.06358 0.000915527 18.0046 0.000915527C27.9457 0.000915527 36.0046 8.05985 36.0046 18.0009Z" fill="white"/>
</mask>
<g mask="url(#mask0_202_10521)">
<path d="M36.0046 18.0009C36.0046 27.942 27.9457 36.0009 18.0046 36.0009C8.06358 36.0009 0.00463867 27.942 0.00463867 18.0009C0.00463867 8.05985 8.06358 0.000915527 18.0046 0.000915527C27.9457 0.000915527 36.0046 8.05985 36.0046 18.0009Z" fill="#67BF79"/>
<path d="M36.0046 18.0009C36.0046 27.942 27.9457 36.0009 18.0046 36.0009C8.06358 36.0009 0.00463867 27.942 0.00463867 18.0009C0.00463867 8.05985 8.06358 0.000915527 18.0046 0.000915527C27.9457 0.000915527 36.0046 8.05985 36.0046 18.0009Z" fill="#67BF79"/>
<path d="M8.87964 26.3009L13.5297 10.1259L22.6046 18.7009L28.1297 12.6759L40.439 24.8103L24.8515 42.3728L8.87964 26.3009Z" fill="url(#paint0_linear_202_10521)"/>
<path d="M10.8328 26.6635C8.47974 26.6635 8.47974 26.6635 8.47974 24.3104V11.3917C8.47974 9.03857 8.47974 9.03857 10.8328 9.03857H11.3017C13.6547 9.03857 13.6547 9.03857 13.6547 11.3917V24.3104C13.6547 26.6635 13.6547 26.6635 11.3017 26.6635H10.8328Z" fill="white"/>
<path d="M17.026 26.6635C16.2246 26.6635 15.8296 26.2685 15.8296 25.4671V10.2349C15.8296 9.43359 16.2246 9.03857 17.026 9.03857H22.3047C26.8297 9.03857 29.7055 13.577 29.7055 17.9015C29.7055 22.226 26.8047 26.6635 22.3047 26.6635H17.026Z" fill="white"/>
</g>
</g>
<defs>
<linearGradient id="paint0_linear_202_10521" x1="11.5906" y1="10.7562" x2="33.8181" y2="33.4765" gradientUnits="userSpaceOnUse">
<stop stop-color="#4CB36B"/>
<stop offset="1" stop-color="#3EA16F"/>
</linearGradient>
<clipPath id="clip0_202_10521">
<rect width="37" height="36.0009" fill="white"/>
</clipPath>
</defs>
</svg>
