<svg width="40" height="16" viewBox="0 0 40 16" fill="none" xmlns="http://www.w3.org/2000/svg">
<g clip-path="url(#clip0_202_13207)">
<path d="M29.4395 12.8336L30.595 9.91149H33.9315L32.3481 5.47881L34.3284 0.470825L40.0005 15.5309H35.8175L34.8483 12.8336H29.4395Z" fill="#3D3D3D"/>
<path d="M25.8709 15.5309L31.9431 0.470825L27.9175 0.470845L23.7638 10.203L20.8101 0.470865H17.7158L14.5443 10.203L12.3077 5.76827L10.2837 12.004L12.3387 15.5309H16.3004L19.1663 6.80327L21.8988 15.5309H25.8709Z" fill="#5A0FC8"/>
<path d="M3.82172 10.361H6.30129C7.05239 10.361 7.72123 10.2772 8.30778 10.1095L8.94903 8.13397L10.7412 2.61254C10.6047 2.39609 10.4488 2.19145 10.2735 1.99862C9.35334 0.980079 8.00703 0.470825 6.23455 0.470825H0.000488281V15.5309H3.82172V10.361ZM7.10381 3.93555C7.46323 4.29729 7.64293 4.78137 7.64293 5.38783C7.64293 5.99893 7.48487 6.4836 7.16879 6.84184C6.82227 7.23989 6.18422 7.43891 5.25467 7.43891H3.82172V3.39291H5.2652C6.13153 3.39291 6.7444 3.57379 7.10381 3.93555Z" fill="#3D3D3D"/>
</g>
<defs>
<clipPath id="clip0_202_13207">
<rect width="40.0005" height="16" fill="white"/>
</clipPath>
</defs>
</svg>
