<svg width="33" height="32" viewBox="0 0 33 32" fill="none" xmlns="http://www.w3.org/2000/svg">
<g clip-path="url(#clip0_202_14708)">
<path d="M15.8903 0.0838318C7.76682 0.0838324 8.27411 3.60667 8.27411 3.60667L8.28316 7.25629H16.0352V8.35208H5.20408C5.20408 8.35208 0.00585938 7.76256 0.00585938 15.9592C0.0058588 24.1559 4.54298 23.8652 4.54298 23.8652H7.25077V20.0617C7.25077 20.0617 7.10481 15.5245 11.7154 15.5245H19.4041C19.4041 15.5245 23.7239 15.5944 23.7239 11.3497V4.33116C23.7239 4.33116 24.3797 0.0838318 15.8903 0.0838318ZM11.6158 2.53804C12.3871 2.53804 13.0105 3.16142 13.0105 3.93269C13.0105 4.70396 12.3871 5.32733 11.6158 5.32733C10.8445 5.32733 10.2212 4.70396 10.2212 3.93269C10.2212 3.16142 10.8445 2.53804 11.6158 2.53804Z" fill="url(#paint0_linear_202_14708)"/>
<path d="M16.1214 31.9169C24.2449 31.9169 23.7376 28.3941 23.7376 28.3941L23.7286 24.7445H15.9765V23.6487H26.8077C26.8077 23.6487 32.0059 24.2382 32.0059 16.0415C32.0059 7.84485 27.4688 8.13552 27.4688 8.13552H24.761V11.9391C24.761 11.9391 24.9069 16.4762 20.2963 16.4762H12.6076C12.6076 16.4762 8.28787 16.4064 8.28787 20.6511V27.6696C8.28787 27.6696 7.63201 31.9169 16.1214 31.9169ZM20.3959 29.4627C19.6246 29.4627 19.0013 28.8393 19.0013 28.0681C19.0013 27.2968 19.6246 26.6734 20.3959 26.6734C21.1672 26.6734 21.7906 27.2968 21.7906 28.0681C21.7906 28.8393 21.1672 29.4627 20.3959 29.4627Z" fill="url(#paint1_linear_202_14708)"/>
</g>
<defs>
<linearGradient id="paint0_linear_202_14708" x1="3.08108" y1="2.94712" x2="18.9389" y2="18.6468" gradientUnits="userSpaceOnUse">
<stop stop-color="#387EB8"/>
<stop offset="1" stop-color="#366994"/>
</linearGradient>
<linearGradient id="paint1_linear_202_14708" x1="12.815" y1="13.0285" x2="29.8447" y2="29.1272" gradientUnits="userSpaceOnUse">
<stop stop-color="#FFE052"/>
<stop offset="1" stop-color="#FFC331"/>
</linearGradient>
<clipPath id="clip0_202_14708">
<rect width="33" height="32" fill="white"/>
</clipPath>
</defs>
</svg>
