<svg width="30" height="37" viewBox="0 0 30 37" fill="none" xmlns="http://www.w3.org/2000/svg">
<g clip-path="url(#clip0_202_12982)">
<path d="M25.5081 10.4853C31.3591 16.3363 31.3591 25.7223 25.5081 31.6139C19.7789 37.465 10.3523 37.465 4.5013 31.6139C-1.34972 25.7629 -1.34972 16.3363 4.5013 10.4853L14.9844 0.00219727V5.24373L14.0092 6.2189L7.06112 13.167C2.67286 17.474 2.67286 24.544 7.06112 28.9322C11.3681 33.3205 18.4381 33.3205 22.8264 28.9322C27.2146 24.6252 27.2146 17.5552 22.8264 13.167L25.5081 10.4853ZM20.2665 9.83515C19.1894 9.83515 18.3162 8.96196 18.3162 7.88482C18.3162 6.80767 19.1894 5.93448 20.2665 5.93448C21.3437 5.93448 22.2169 6.80767 22.2169 7.88482C22.2169 8.96196 21.3437 9.83515 20.2665 9.83515Z" fill="#EE4C2C"/>
</g>
<defs>
<clipPath id="clip0_202_12982">
<rect width="30" height="37" fill="white"/>
</clipPath>
</defs>
</svg>
