<svg width="32" height="36" viewBox="0 0 32 36" fill="none" xmlns="http://www.w3.org/2000/svg">
<g clip-path="url(#clip0_202_14760)">
<path d="M11.5375 15.346V15.347L11.5778 15.384L16.0336 17.9707L20.5076 15.3385L20.5366 15.3059V15.3053L16.0123 12.7989L11.5375 15.346ZM25.3418 12.5171L25.403 12.5154L31.5352 8.95655L31.5753 8.8995L25.3418 5.33214V12.5171ZM16.025 0.000396729L0.436401 9.00613L0.488097 9.09663L6.65629 12.6198L6.739 12.6061L16.0373 7.2795L20.5337 9.96694V2.58055L16.025 0.000396729Z" fill="#4F859A"/>
<path d="M0.436401 26.8498L6.7384 30.5463V12.6064L6.739 12.6061L0.436401 9.00623V26.8498ZM11.5843 33.3886L16.0371 36.0003L16.0962 35.8532V28.6334L16.0371 28.5042L11.5843 26.1817V33.3886ZM11.5375 15.3469V20.563L16.0352 23.1255L16.0371 23.1244L16.0551 23.0833L16.0538 17.9462L16.0371 17.917L11.5375 15.3469Z" fill="#2E6371"/>
<path d="M25.3417 12.5172V23.3438L16.0371 28.5042V36.0005L31.5752 26.8499V8.89957L25.3417 12.5172ZM20.5364 15.3059L16.037 17.917V23.1244L20.5364 20.5495V15.3059Z" fill="#1BAFCE"/>
</g>
<defs>
<clipPath id="clip0_202_14760">
<rect width="32" height="36.0004" fill="white"/>
</clipPath>
</defs>
</svg>
