<svg width="32" height="36" viewBox="0 0 32 36" fill="none" xmlns="http://www.w3.org/2000/svg">
<g clip-path="url(#clip0_202_10656)">
<path d="M6.31812 12.3947C6.32256 16.1288 6.32781 19.8629 6.32276 23.5969C9.55239 25.4626 12.7796 27.3324 16.006 29.204C19.2322 27.3385 22.4584 25.4729 25.6846 23.6074C25.6802 19.8732 25.6749 16.1391 25.68 12.405C22.4501 10.5396 19.2231 8.66944 15.9967 6.79803C12.7705 8.66358 9.54432 10.5291 6.31812 12.3947Z" fill="#B7A634"/>
<path d="M16.0409 9.63378L16.0352 9.63075L15.9974 9.60956C13.5792 11.0102 11.1582 12.4064 8.73652 13.8009C8.73592 16.5996 8.73551 19.3984 8.73511 22.197C11.1599 23.5932 13.584 24.9908 16.0055 26.3924C16.6225 26.0289 22.6465 22.5574 23.2667 22.2011C23.2675 19.4024 23.2685 16.6036 23.2693 13.805C20.8574 12.4189 18.4474 11.0284 16.0409 9.63378Z" fill="#F9DF34"/>
<path d="M11.6506 15.5149L11.8531 15.8658L11.4691 16.0874L12.015 17.0326C12.066 17.1214 12.1149 17.1719 12.1615 17.1844C12.2082 17.197 12.2758 17.1776 12.3644 17.1263C12.3939 17.1093 12.4214 17.0918 12.4472 17.0736C12.4728 17.0556 12.4965 17.0369 12.5183 17.0179L12.7528 17.4241C12.7127 17.457 12.6662 17.4903 12.6135 17.524C12.5609 17.5577 12.5086 17.5896 12.4569 17.6193C12.3757 17.6663 12.2956 17.7051 12.2166 17.736C12.1375 17.7669 12.0612 17.7822 11.9873 17.7822C11.9134 17.7822 11.8434 17.7618 11.7774 17.7212C11.7111 17.6806 11.6504 17.6124 11.5951 17.5163L10.9448 16.39L10.6273 16.5736L10.4246 16.2227L10.7423 16.0394L10.4119 15.4671L10.9361 15.1642L11.2666 15.7366L11.6506 15.5149Z" fill="#524739"/>
<path d="M11.9686 14.3613L12.5419 15.3545L12.553 15.348C12.5556 15.1991 12.594 15.0693 12.6683 14.9592C12.7426 14.849 12.8288 14.7654 12.9273 14.7087C13.0676 14.6275 13.1936 14.5803 13.3056 14.5666C13.4174 14.5528 13.5188 14.565 13.6096 14.6027C13.7005 14.6407 13.7843 14.702 13.8614 14.7872C13.9383 14.8724 14.011 14.9742 14.0792 15.0923L14.7571 16.2664L14.2328 16.5692L13.6104 15.491C13.5194 15.3335 13.4269 15.2301 13.3329 15.1811C13.2388 15.1318 13.1292 15.1435 13.0036 15.216C12.8609 15.2984 12.7819 15.4005 12.767 15.5225C12.7521 15.6444 12.8007 15.8025 12.913 15.9971L13.4907 16.9978L12.9662 17.3004L11.4441 14.6639L11.9686 14.3613Z" fill="#524739"/>
<path d="M15.2685 15.361C15.3913 15.3919 15.5265 15.3647 15.6743 15.2793C15.7801 15.2183 15.856 15.1392 15.9016 15.0421C15.9474 14.9452 15.962 14.8622 15.945 14.7932L16.4065 14.5267C16.4648 14.7982 16.4463 15.0273 16.3504 15.2139C16.2547 15.4006 16.0984 15.5563 15.8818 15.6814C15.7316 15.768 15.5822 15.8223 15.4341 15.8439C15.2857 15.8655 15.1442 15.8562 15.0093 15.8159C14.8744 15.7757 14.7487 15.7071 14.632 15.6104C14.5155 15.5135 14.4146 15.3913 14.3292 15.2435C14.2468 15.1008 14.1935 14.9545 14.1691 14.8043C14.1449 14.6543 14.1499 14.5093 14.1842 14.3698C14.2183 14.2301 14.2803 14.1001 14.37 13.9794C14.4594 13.8589 14.5767 13.7565 14.722 13.6727C14.8845 13.5789 15.0442 13.5286 15.2011 13.5217C15.3579 13.5149 15.5057 13.5419 15.6442 13.6031C15.7831 13.6641 15.9087 13.7525 16.0213 13.868C16.134 13.9834 16.2278 14.1179 16.3033 14.2711L14.9261 15.0663C15.0315 15.232 15.1456 15.3302 15.2685 15.361ZM15.2812 14.0145C15.1787 13.9818 15.0634 14.0024 14.9354 14.0763C14.8516 14.1245 14.7903 14.179 14.7513 14.2392C14.7123 14.2996 14.6881 14.3601 14.679 14.4211C14.6701 14.4823 14.6722 14.54 14.6857 14.5947C14.6992 14.6492 14.7154 14.6957 14.7341 14.734L15.5871 14.2416C15.4857 14.1229 15.3838 14.0472 15.2812 14.0145Z" fill="#524739"/>
<path d="M16.3029 12.8288L16.4563 13.0949L16.4674 13.0885C16.47 12.9393 16.5096 12.8089 16.5863 12.6972C16.663 12.5858 16.7567 12.498 16.8675 12.434C17.0078 12.353 17.134 12.3056 17.2458 12.2918C17.3577 12.2781 17.459 12.2902 17.5499 12.3282C17.6407 12.3659 17.7245 12.4275 17.8016 12.5127C17.8785 12.5979 17.9512 12.6994 18.0194 12.8175L18.6973 13.9919L18.1731 14.2945L17.5507 13.2164C17.4596 13.0588 17.3672 12.9554 17.2731 12.9064C17.1792 12.8573 17.0694 12.8688 16.9438 12.9413C16.8011 13.0239 16.7222 13.126 16.7072 13.2477C16.6923 13.3697 16.741 13.5279 16.8532 13.7223L17.431 14.7231L16.9065 15.0259L15.8044 13.1167L16.3029 12.8288Z" fill="#524739"/>
<path d="M23.4716 13.3674C21.0545 11.9763 18.6459 10.5845 16.3124 9.23033C16.31 9.22912 16.3021 9.22448 16.2997 9.22327L16.2623 9.20227C16.0948 9.1082 15.8905 9.10981 15.7243 9.20631C13.3293 10.5954 10.9314 11.9805 8.53266 13.3636C8.3645 13.4605 8.26093 13.6397 8.26093 13.8339L8.25952 22.1636C8.25952 22.3576 8.36329 22.5371 8.53125 22.634C10.933 24.0191 13.3341 25.4054 15.7326 26.7957C15.8168 26.8447 15.9109 26.869 16.005 26.869C16.1004 26.869 16.1959 26.8439 16.2811 26.7937C16.6384 26.5827 16.9978 26.3752 17.3573 26.1679C17.6117 26.0213 17.8661 25.8745 18.1198 25.7265C18.378 25.5757 21.5043 23.7732 21.6287 23.7007C22.2416 23.3462 22.8547 22.9917 23.4686 22.6386C23.6369 22.5415 23.7409 22.3623 23.7409 22.1681L23.7437 13.8382C23.7437 13.6438 23.64 13.4643 23.4716 13.3674ZM22.655 21.8537C22.2884 22.0649 16.2732 25.5396 16.0031 25.6973C13.7855 24.4121 11.5659 23.1304 9.34562 21.8499L9.34683 14.1479C11.5651 12.8686 13.7825 11.5879 15.9975 10.3033C18.1723 11.5648 20.4103 12.8581 22.6576 14.1521L22.655 21.8537Z" fill="#524839"/>
<path d="M0.905029 9.27344C0.912095 15.0863 0.920372 20.8994 0.912297 26.7124C5.94732 29.6166 10.9785 32.5275 16.0085 35.4408C21.0381 32.5368 26.0676 29.6326 31.0974 26.7286C31.0904 20.9155 31.0821 15.1027 31.0902 9.28959C26.0549 6.38579 21.0239 3.47431 15.994 0.561218C10.9644 3.46523 5.93481 6.36943 0.905029 9.27344ZM16.0535 6.85313C19.2599 8.71101 22.471 10.5636 25.6845 12.4104L25.6808 23.5971C24.8546 24.0715 24.0295 24.5481 23.2046 25.0247C21.5504 22.1631 19.8985 19.3001 18.2465 16.4371C16.6727 17.3443 15.0988 18.2515 13.525 19.1588C15.1768 22.0218 16.8289 24.8848 18.4829 27.7466C17.6586 28.2269 16.8285 28.6971 16.0067 29.1814C12.7803 27.3138 9.55063 25.4519 6.31979 23.5916L6.3216 12.405C9.54841 10.5471 12.7738 8.68679 15.9958 6.82063L16.0462 6.84889L16.0535 6.85313Z" fill="#F9DF34"/>
<path d="M16.0082 36.0009C15.9111 36.0009 15.8142 35.9757 15.7273 35.9254C9.6363 32.3974 4.9808 29.7058 0.631956 27.1976C0.458342 27.0973 0.351347 26.912 0.35175 26.7113C0.35922 21.3214 0.352558 15.8406 0.346098 10.5403L0.344483 9.27396C0.344281 9.07369 0.451074 8.88837 0.624689 8.78824L15.7136 0.0758121C15.8872 -0.0241172 16.1008 -0.0241172 16.2744 0.0762159C20.7593 2.67377 26.06 5.74191 31.3698 8.80439C31.5434 8.90452 31.6504 9.08984 31.6502 9.29031C31.6426 14.6506 31.6492 20.1006 31.6555 25.3715L31.6573 26.7279C31.6575 26.9283 31.5505 27.1137 31.3771 27.2138L16.2882 35.9258C16.2016 35.9759 16.1049 36.0009 16.0082 36.0009ZM1.47257 26.3889C5.67486 28.8131 10.1838 31.4201 16.0086 34.7935L30.5363 26.4055L30.5351 25.3729C30.529 20.2076 30.5225 14.87 30.5292 9.61291C25.4231 6.66772 20.3384 3.72475 15.9932 1.20814L1.46531 9.59656L1.46652 10.5391C1.47278 15.7338 1.47944 21.102 1.47257 26.3889ZM16.0063 29.7415C15.9094 29.7415 15.8125 29.7163 15.7257 29.666C12.4997 27.7986 9.27029 25.9371 6.03985 24.0772C5.86624 23.9771 5.75924 23.792 5.75924 23.5915L5.76106 12.4047C5.76106 12.2044 5.86825 12.0193 6.04167 11.9194C9.82142 9.74332 12.895 7.96902 15.7146 6.33563C15.8866 6.2363 16.0978 6.2353 16.2706 6.3324L16.3209 6.36086C16.3229 6.36187 16.3322 6.36712 16.334 6.36833C19.4599 8.17937 22.6996 10.0488 25.9633 11.9246C26.1372 12.0245 26.2444 12.2099 26.2444 12.4105L26.2409 23.5972C26.2407 23.7976 26.1333 23.983 25.9595 24.0827C25.1336 24.5571 24.309 25.0333 23.4845 25.5095C23.2164 25.6648 22.874 25.5727 22.7192 25.305C21.1585 22.6047 19.5996 19.9036 18.0407 17.2019L14.29 19.3642C15.8483 22.0653 17.4072 24.7662 18.9675 27.4661C19.1221 27.7332 19.0313 28.075 18.7646 28.2304C18.4222 28.4299 18.0788 28.6277 17.7354 28.8256C17.2527 29.1034 16.7702 29.3812 16.2908 29.6638C16.2032 29.7155 16.1047 29.7415 16.0063 29.7415ZM6.87966 23.2677C9.92296 25.0202 12.9649 26.7739 16.0043 28.5329C16.3939 28.3051 16.7852 28.0799 17.1762 27.8546C17.3567 27.7506 17.5372 27.6466 17.7177 27.5425C16.1569 24.8419 14.598 22.1404 13.0393 19.4387C12.9651 19.3099 12.9451 19.1571 12.9836 19.0135C13.0222 18.87 13.1161 18.7477 13.2449 18.6734L17.9664 15.9517C18.2343 15.797 18.5768 15.8891 18.7313 16.157C20.29 18.8583 21.8487 21.5592 23.409 24.2593C23.9793 23.9301 24.5496 23.6008 25.1205 23.2725L25.1237 12.7343C22.0318 10.9568 18.9638 9.18654 15.9962 7.46735C13.3226 9.01575 10.4103 10.6968 6.88148 12.7287L6.87966 23.2677Z" fill="#524839"/>
</g>
<defs>
<clipPath id="clip0_202_10656">
<rect width="32" height="36.0009" fill="white"/>
</clipPath>
</defs>
</svg>
