<svg width="37" height="28" viewBox="0 0 37 28" fill="none" xmlns="http://www.w3.org/2000/svg">
<g clip-path="url(#clip0_202_11547)">
<path d="M32.543 0.52948H31.2915H4.99704L0.00317383 5.60389V22.5725V23.9566V27.4724H3.4633H4.71483H31.0093L36.0032 22.3981V5.42922V4.04541V0.52948H32.543Z" fill="#41CD52"/>
<path d="M13.4264 5.24237C15.7699 5.24237 17.4141 5.91576 18.3466 7.27475C19.2914 8.62128 19.7577 10.7034 19.7577 13.5211C19.7577 15.3787 19.5614 16.8749 19.181 18.0096C18.7882 19.1566 18.1626 20.0294 17.2791 20.6278L19.181 23.7571L16.8374 24.8669L14.8129 21.488C14.5184 21.5752 14.0644 21.6252 13.4264 21.6252C11.0583 21.6252 9.40184 20.9769 8.46933 19.6801C7.53681 18.3836 7.07056 16.3264 7.07056 13.5335C7.07056 10.7282 7.54908 8.64622 8.49387 7.28722C9.43865 5.9281 11.0828 5.24237 13.4264 5.24237ZM25.3773 6.14018V9.5065H28.5184V11.6633H25.3773V16.7628C25.3773 17.7102 25.4509 18.3336 25.5859 18.633C25.7207 18.9447 26.0767 19.0943 26.6288 19.0943L28.4939 19.0193L28.6042 21.0393C27.5982 21.2386 26.825 21.3385 26.2853 21.3385C24.9969 21.3385 24.1135 21.0393 23.6349 20.4408C23.1564 19.8423 22.911 18.7076 22.911 17.0371V11.651H21.1687V9.5065H22.911V6.14018H25.3773ZM13.4713 7.32511C12.0511 7.32511 11.0717 7.80712 10.533 8.78384C10.0065 9.76056 9.7372 11.3081 9.7372 13.4518C9.7372 15.5828 9.9943 17.1177 10.5085 18.031C11.0227 18.9443 12.0144 19.4136 13.4713 19.4136C14.9282 19.4136 15.9077 18.957 16.4219 18.0563C16.9239 17.1557 17.181 15.6209 17.181 13.4772C17.181 11.3208 16.9239 9.76056 16.3974 8.78384C15.871 7.80712 14.8915 7.32511 13.4713 7.32511Z" fill="white"/>
</g>
<defs>
<clipPath id="clip0_202_11547">
<rect width="37" height="28" fill="white"/>
</clipPath>
</defs>
</svg>
