<svg width="36" height="36" viewBox="0 0 36 36" fill="none" xmlns="http://www.w3.org/2000/svg">
<g clip-path="url(#clip0_202_9505)">
<path d="M30.0317 0.000427246C33.3244 0.0118007 35.9904 2.6794 35.9997 5.97219V30.0287C35.9903 33.3229 33.3221 35.9911 30.0279 36.0004H26.4509L24.8111 32.0186H30.0317C31.1247 32.0044 32.0074 31.1218 32.0216 30.0287V5.97219C32.0074 4.8791 31.1247 3.99643 30.0317 3.98223H5.97518C4.88209 3.99643 3.99942 4.8791 3.98522 5.97219V30.0287C3.99942 31.1218 4.88209 32.0044 5.97518 32.0186H14.7784L18.0034 25.1997L22.4502 36.0004H5.97518C2.68093 35.9911 0.0127253 33.3229 0.00341797 30.0287V5.97219C0.0127253 2.67794 2.68093 0.00973455 5.97518 0.000427246H30.0317ZM23.8472 19.6477V26.0469L18.3046 22.8482L23.8472 19.6477ZM12.1597 13.2486V19.6477L6.61716 16.4472L12.1597 13.2486ZM23.5459 6.32613V12.7252L18.0034 9.52474L23.5459 6.32613Z" fill="#4695EB"/>
<path d="M12.1597 19.6478L17.7022 22.8483L12.1597 26.0469V19.6478ZM23.8471 13.2486L29.3897 16.4473L23.8471 19.6478V13.2486ZM12.4609 6.32614L18.0034 9.52476L12.4609 12.7253V6.32614Z" fill="#FF004A"/>
<path d="M12.1597 13.2486L17.7022 16.4472V22.8483L12.1597 19.6477V13.2486ZM23.8471 13.2486V19.6477L18.3046 22.8483V16.4472L23.8471 13.2486ZM18.0034 9.52475L23.5459 12.7253L18.0034 15.9258L12.4609 12.7253L18.0034 9.52475Z" fill="#091313"/>
</g>
<defs>
<clipPath id="clip0_202_9505">
<rect width="36" height="36.0004" fill="white"/>
</clipPath>
</defs>
</svg>
