<svg width="37" height="34" viewBox="0 0 37 34" fill="none" xmlns="http://www.w3.org/2000/svg">
<g clip-path="url(#clip0_202_10893)">
<path d="M28.1815 0.455627L36.0035 17.0011L28.1815 33.5471H21.5225L29.3445 17.0011L21.5225 0.455627H28.1815ZM15.5023 14.5121L18.326 9.14898L18.0037 7.90034L14.4839 0.455627H7.82495L14.6742 14.9433L15.5023 14.5121ZM18.0037 24.9919L15.5632 19.4961L14.6742 19.0595L7.82495 33.5471H14.4839L18.0037 26.1019V24.9919Z" fill="#40B4E5"/>
<path d="M21.5232 33.5471L13.7012 17.0011L21.5232 0.455627H28.1822L20.3602 17.0011L28.1822 33.5471H21.5232ZM7.82563 33.5471L0.00366211 17.0011L7.82563 0.455627H14.4846L6.66262 17.0011L14.4846 33.5471H7.82563Z" fill="#003764"/>
</g>
<defs>
<clipPath id="clip0_202_10893">
<rect width="37" height="34" fill="white"/>
</clipPath>
</defs>
</svg>
