<svg width="36" height="37" viewBox="0 0 36 37" fill="none" xmlns="http://www.w3.org/2000/svg">
<g clip-path="url(#clip0_202_11133)">
<path d="M13.6631 34.4937C12.5292 34.5028 11.3984 34.3741 10.2955 34.1104C10.2855 34.1064 10.2746 34.1046 10.2638 34.1053C10.253 34.106 10.2424 34.1091 10.233 34.1144C10.2235 34.1197 10.2153 34.127 10.2091 34.1359C10.2028 34.1448 10.1986 34.1549 10.1968 34.1656C10.1919 34.1822 10.1934 34.2 10.2009 34.2155C10.2084 34.2311 10.2215 34.2433 10.2375 34.2498C10.9687 34.6006 11.7234 34.9003 12.496 35.1468C15.2126 36.0139 18.0958 36.2256 20.9099 35.7644C23.7239 35.3032 26.3888 34.1823 28.6865 32.4934L26.0214 29.8284C22.1749 32.9057 17.7303 34.5082 13.6631 34.5082V34.4937ZM34.1007 10.2792C35.2851 15.1447 33.7842 21.0728 29.8186 26.0283L32.4837 28.6933C34.4208 26.0677 35.6078 22.965 35.9176 19.7169C36.2275 16.4688 35.6486 13.1975 34.2429 10.253C34.2355 10.2386 34.2237 10.2269 34.2091 10.2197C34.1945 10.2125 34.178 10.2102 34.1621 10.2131C34.1461 10.2161 34.1315 10.2241 34.1204 10.236C34.1094 10.2479 34.1024 10.263 34.1007 10.2792ZM22.2504 6.79549C31.1018 6.90871 30.2454 16.9156 25.9895 22.1817H18.3864L22.1894 25.9819C18.366 28.8182 12.4206 30.7545 8.63206 27.2766C6.63475 25.2793 6.6812 22.3704 6.89022 20.8144C7.63051 13.9138 15.4165 6.64743 22.2504 6.78387" fill="url(#paint0_radial_202_11133)"/>
<path d="M18.0003 0.00233638C15.0828 0.00232793 12.209 0.711528 9.62647 2.06885C7.04393 3.42618 4.83005 5.39094 3.1755 7.79392C1.52095 10.1969 0.475336 12.9661 0.12871 15.8629C-0.217916 18.7597 0.144837 21.6974 1.18573 24.4229C1.31927 24.7713 1.47603 25.1168 1.61829 25.4593C1.66183 25.5261 1.77795 25.4826 1.75763 25.4042C-1.10189 13.4377 12.949 -1.13276 25.4089 1.76159C25.4233 1.76346 25.438 1.76127 25.4512 1.75529C25.4645 1.74931 25.4758 1.73976 25.4839 1.72771C25.4921 1.71566 25.4967 1.70159 25.4973 1.68707C25.4979 1.67255 25.4944 1.65814 25.4873 1.64547C23.1431 0.553119 20.5865 -0.0079572 18.0003 0.00233638Z" fill="url(#paint1_radial_202_11133)"/>
</g>
<defs>
<radialGradient id="paint0_radial_202_11133" cx="0" cy="0" r="1" gradientUnits="userSpaceOnUse" gradientTransform="translate(21.3939 21.3863) scale(14.6053 14.6053)">
<stop stop-color="#BDC94D"/>
<stop offset="1" stop-color="#1C8A4B"/>
</radialGradient>
<radialGradient id="paint1_radial_202_11133" cx="0" cy="0" r="1" gradientUnits="userSpaceOnUse" gradientTransform="translate(1471.64 1437.89) scale(1119.53 1119.26)">
<stop stop-color="#BDC94D"/>
<stop offset="1" stop-color="#1C8A4B"/>
</radialGradient>
<clipPath id="clip0_202_11133">
<rect width="36" height="37" fill="white"/>
</clipPath>
</defs>
</svg>
