<svg width="36" height="37" viewBox="0 0 36 37" fill="none" xmlns="http://www.w3.org/2000/svg">
<g clip-path="url(#clip0_202_13205)">
<path d="M22.4359 22.9974C21.9009 23.5896 21.239 24.0532 20.4995 24.3536C19.6822 24.6793 18.8085 24.8398 17.9287 24.8261C17.0468 24.8395 16.171 24.6789 15.3512 24.3536C14.6077 24.0536 13.9412 23.5901 13.4013 22.9974C12.8443 22.3711 12.4238 21.6358 12.1664 20.8382C11.866 19.9079 11.7201 18.9346 11.7344 17.9571C11.7201 16.9796 11.866 16.0063 12.1664 15.0758C12.4248 14.2767 12.8452 13.5394 13.4013 12.91C13.9397 12.3139 14.6064 11.8478 15.3512 11.5469C16.171 11.2217 17.0469 11.0613 17.9287 11.0746C18.8084 11.0609 19.6822 11.2214 20.4995 11.5469C21.2402 11.8482 21.9024 12.3143 22.4359 12.91C22.9875 13.5403 23.4034 14.2776 23.6574 15.0758C23.953 16.0072 24.0965 16.9801 24.0824 17.9571C24.0965 18.9341 23.953 19.9069 23.6574 20.8382C23.4044 21.6349 22.9884 22.3702 22.4359 22.9974ZM17.9982 0.00163452C11.1219 0.00413223 4.84791 3.92403 1.83055 10.1029C-1.18681 16.2817 -0.420239 23.6398 3.80594 29.064C8.03212 34.4882 14.9794 37.0307 21.7085 35.6158L19.0971 32.7231C18.7341 32.75 18.368 32.765 17.9982 32.765C10.7725 32.7774 4.59571 27.5668 3.39067 20.4423C2.18563 13.3178 6.30516 6.3656 13.133 4.001C19.9608 1.63639 27.4977 4.55176 30.9569 10.8956C34.4162 17.2394 32.785 25.1541 27.0993 29.6131L23.9216 26.0932C24.5165 25.6654 25.0556 25.1649 25.5262 24.6032C26.0144 24.0195 26.4291 23.3782 26.7611 22.6936C27.1051 21.9816 27.3655 21.2323 27.5372 20.4604C27.7197 19.6386 27.8101 18.799 27.8068 17.9572C27.82 16.5992 27.5774 15.2508 27.0916 13.9827C26.6411 12.8053 25.9572 11.7312 25.0809 10.825C24.1953 9.92424 23.1344 9.21463 21.9638 8.74004C20.6821 8.22343 19.3105 7.96654 17.9287 7.98428C16.5454 7.96689 15.1721 8.2214 13.8869 8.73336C12.7102 9.20419 11.6441 9.91416 10.756 10.8183C9.87688 11.7262 9.19061 12.8026 8.73852 13.9827C8.25268 15.2508 8.01006 16.5992 8.02335 17.9572C8.01006 19.3151 8.25268 20.6633 8.73852 21.9314C9.1905 23.1116 9.87678 24.188 10.756 25.0957C11.6442 25.9999 12.7103 26.7099 13.8869 27.1809C15.1722 27.6927 16.5454 27.9471 17.9287 27.9298C18.4318 27.9308 18.9344 27.8993 19.4333 27.8353C19.9093 27.7734 20.3805 27.6788 20.8434 27.552L20.8484 27.5573L24.2886 31.3542L25.3334 32.5073L26.5428 33.847C26.5439 33.8466 26.545 33.846 26.5459 33.8453C33.8003 29.9301 37.4684 21.5877 35.4498 13.5952C33.4311 5.60272 26.2416 0.00257655 17.9982 0.00158691L17.9982 0.00163452Z" fill="#274E85"/>
</g>
<defs>
<clipPath id="clip0_202_13205">
<rect width="36" height="37" fill="white"/>
</clipPath>
</defs>
</svg>
