<svg width="41" height="32" viewBox="0 0 41 32" fill="none" xmlns="http://www.w3.org/2000/svg">
<g clip-path="url(#clip0_202_14779)">
<path d="M23.3394 24.2604C15.0061 24.2604 7.92392 20.0865 7.92392 15.0865C7.92392 10.0865 14.1728 5.92712 22.5061 5.92712C33.0306 5.92712 37.908 9.97572 37.908 14.9757C37.908 19.9757 32.5319 24.2604 23.3394 24.2604ZM20.0061 0.927124C9.17282 0.927124 0.00610352 6.76041 0.00610352 14.2604C0.00610352 21.3438 9.11735 27.2243 19.9508 27.2243C30.7841 27.2243 40.0061 21.7604 40.0061 14.2604C40.0061 6.76041 30.8394 0.927124 20.0061 0.927124Z" fill="url(#paint0_linear_202_14779)"/>
<path d="M16.5602 9.02542V31.0737H23.2232V22.4995C24.8889 22.4995 25.8811 22.1357 26.971 24.1326C28.6367 26.9907 30.7189 31.0737 30.7189 31.0737H38.6311C38.6311 31.0737 33.6339 22.9078 33.2175 22.4995C32.4496 21.6828 31.5517 21.6828 30.3025 21.2745C32.8011 20.8662 35.1305 19.8295 35.9403 17.6082C36.6483 15.5668 36.565 12.97 35.0475 11.2285C33.7333 9.85058 32.3847 9.02542 29.0532 9.02542H16.5602ZM23.2232 13.6173H27.5956C28.6325 13.6173 29.4696 14.6381 29.4696 15.6587C29.4696 16.6795 28.6367 17.7003 27.5956 17.7003H23.2232V13.6173Z" fill="#2165B6"/>
</g>
<defs>
<linearGradient id="paint0_linear_202_14779" x1="15.1951" y1="5.39736" x2="27.4924" y2="26.277" gradientUnits="userSpaceOnUse">
<stop stop-color="#C9CBCE"/>
<stop offset="1" stop-color="#7B7A81"/>
</linearGradient>
<clipPath id="clip0_202_14779">
<rect width="41" height="32" fill="white"/>
</clipPath>
</defs>
</svg>
