<svg width="36" height="36" viewBox="0 0 36 36" fill="none" xmlns="http://www.w3.org/2000/svg">
<g clip-path="url(#clip0_202_15268)">
<path d="M34.5546 14.4027H23.0386C22.6552 14.4051 22.2868 14.2539 22.0157 13.9828C21.7446 13.7117 21.5933 13.3433 21.5958 12.9598V1.44385C21.5958 1.062 21.4435 0.695919 21.1726 0.426757C20.9018 0.157595 20.5347 0.00758844 20.1529 0.00999003H15.8423C15.4604 0.00758844 15.0934 0.157595 14.8225 0.426757C14.5517 0.695919 14.3994 1.062 14.3994 1.44385V12.9598C14.4018 13.3433 14.2506 13.7117 13.9794 13.9828C13.7083 14.2539 13.3399 14.4051 12.9565 14.4027H8.6459C8.26249 14.4051 7.89408 14.2539 7.62296 13.9828C7.35184 13.7117 7.2006 13.3433 7.20302 12.9598V1.44385C7.20544 1.06044 7.0542 0.692031 6.78308 0.420912C6.51196 0.149793 6.14355 -0.00144706 5.76014 0.00094344H1.44051C1.05866 0.00094344 0.692578 0.153269 0.423415 0.424124C0.154253 0.694979 0.00424671 1.06201 0.00661971 1.44385V34.558C0.00422921 34.9414 0.15547 35.3098 0.426589 35.5809C0.697707 35.852 1.06612 36.0033 1.44953 36.0009H34.5546C34.938 36.0033 35.3065 35.852 35.5776 35.5809C35.8487 35.3098 35.9999 34.9414 35.9975 34.558V15.8727C36.0073 15.4846 35.8593 15.1092 35.5874 14.8321C35.3154 14.5551 34.9428 14.4002 34.5546 14.4027ZM28.7651 26.6311C28.7675 27.2043 28.5415 27.7549 28.137 28.161C27.7325 28.5672 27.183 28.7955 26.6098 28.7955H23.724C23.1508 28.7955 22.6012 28.5672 22.1968 28.161C21.7923 27.7549 21.5663 27.2043 21.5687 26.6311V23.7544C21.5663 23.1812 21.7923 22.6307 22.1968 22.2245C22.6012 21.8184 23.1508 21.5901 23.724 21.5901H26.6098C27.183 21.5901 27.7325 21.8184 28.137 22.2245C28.5415 22.6307 28.7675 23.1812 28.7651 23.7544V26.6311Z" fill="#FF6600"/>
</g>
<defs>
<clipPath id="clip0_202_15268">
<rect width="36" height="36.0009" fill="white"/>
</clipPath>
</defs>
</svg>
