<svg width="34" height="41" viewBox="0 0 34 41" fill="none" xmlns="http://www.w3.org/2000/svg">
<g clip-path="url(#clip0_202_15765)">
<path d="M3.14086 3.28823C4.95727 1.31476 7.56239 0.0531692 10.258 0.0121976C12.3202 -0.0697458 14.4047 0.505565 16.1169 1.66131C18.3311 3.11068 19.9478 5.429 20.5777 7.99485C20.7126 8.4848 20.675 9.08572 21.0984 9.44251C21.9025 9.63542 22.7424 9.49544 23.555 9.64396C25.6275 10.1407 27.531 11.2982 28.9377 12.8978C29.2757 13.2665 29.5454 13.6933 29.7383 14.1543C30.7985 16.3377 30.9658 18.7977 31.4062 21.1502C31.8142 24.3033 32.3708 27.4342 32.8914 30.5702C33.366 33.4724 33.856 36.407 33.7143 39.357C33.0587 39.1129 32.492 38.6109 32.2649 37.94C31.9388 36.8765 31.8364 35.7634 31.7015 34.664C31.6503 34.1997 31.2645 33.7541 30.766 33.8053C30.0422 33.7934 29.7264 34.7084 29.9449 35.2939C30.3153 36.1663 30.988 36.856 31.6145 37.5474C31.9576 37.9127 32.0891 38.4112 32.3622 38.8226C32.7156 39.246 33.2243 39.4867 33.7228 39.6967C33.5453 39.8025 33.4002 40.004 33.168 39.9733C32.4151 40.0091 31.6623 39.9681 30.9094 39.9801C29.9841 39.9698 29.0486 40.0842 28.1336 39.8913C26.8532 36.7109 25.3834 33.6107 23.9852 30.4798C23.2989 28.9075 22.599 27.3403 21.8837 25.7817C21.0796 24.0523 20.3899 22.2718 19.5364 20.5663C19.41 19.9688 19.0584 19.4618 18.8279 18.9053C18.4745 18.0329 18.0802 17.1742 17.6295 16.348C15.3914 20.5271 13.2489 24.7557 11.0825 28.9706C9.26101 32.5983 7.27559 36.1475 5.60429 39.8503C3.90567 39.8384 2.20876 39.7991 0.510139 39.7872C4.91289 31.4972 9.1876 23.1407 13.5169 14.8115C13.8959 14.0689 14.3074 13.3399 14.601 12.5581C13.7645 12.8005 13.0031 13.2665 12.1341 13.4065C10.3382 13.7719 8.50474 13.3895 6.82319 12.7373C8.94348 10.7912 11.9668 10.0605 14.7854 10.2005C14.5481 9.44081 14.2066 8.71015 13.7133 8.08191C14.2988 7.01836 15.2395 6.24331 16.1528 5.47509C14.8297 5.31974 13.6945 6.20917 12.8836 7.15664C12.38 6.81179 11.8473 6.51304 11.2959 6.25526C11.3864 5.29242 11.8098 4.42348 12.2571 3.58356C11.1867 3.83622 10.5533 4.86905 10.2443 5.85237C9.57342 5.75165 8.89397 5.74141 8.21623 5.78238C8.09844 5.02269 8.09332 4.25277 8.16331 3.48796C7.32168 3.99669 7.34729 5.10634 7.34046 5.97016C6.70881 6.20063 6.10619 6.50109 5.52917 6.84423C5.18774 6.32013 4.93679 5.74823 4.68413 5.17804C4.26588 5.91383 4.58341 6.77936 4.88216 7.49807C4.53731 7.99826 4.22661 8.52065 3.94664 9.06011C3.49936 8.83477 3.06575 8.58552 2.62701 8.34311C2.74822 8.97134 3.15793 9.47495 3.68715 9.81126C3.54034 10.4685 3.47888 11.1377 3.47376 11.8086C3.02648 11.8496 2.5775 11.8769 2.12852 11.9196C2.49556 12.3139 3.02478 12.4061 3.53521 12.4488C3.66667 12.9866 3.82543 13.5192 4.02005 14.0382C3.74178 14.3096 3.46181 14.5776 3.19549 14.861C3.57619 14.8047 3.94835 14.7125 4.31368 14.5964C4.78485 15.0386 5.36358 15.3305 5.9184 15.6514C5.89109 15.7812 5.83475 16.0407 5.80744 16.1704C5.99352 16.0492 6.17789 15.928 6.36397 15.8068C7.41216 16.109 8.55425 16.2575 9.60756 15.8921C10.2546 15.689 10.7787 15.2264 11.4171 15.0061C11.1781 16.1192 10.2443 16.9591 9.25247 17.4354C7.8031 18.1217 6.11643 17.9305 4.65682 17.3825C3.65813 17.094 2.85406 16.3821 2.18998 15.6105C1.12471 14.4018 0.416245 12.8654 0.289916 11.2538C0.0987145 8.35676 1.17934 5.41705 3.14086 3.28823ZM24.4103 19.1187C24.3062 19.6598 24.3266 20.2351 24.5059 20.7575C24.9805 22.0686 26.365 22.6781 27.5173 23.2722C27.432 22.982 27.3483 22.6917 27.2664 22.4015C25.7743 22.2496 24.931 20.1191 26.0987 19.0828C25.9553 18.7482 25.8102 18.4136 25.6668 18.0773C25.1836 18.3197 24.5759 18.5485 24.4103 19.1187ZM26.3496 20.0252C26.2284 20.6329 26.3479 21.3789 27.0239 21.594C26.8618 21.0512 26.7423 20.4588 26.3496 20.0252Z" fill="#11100E"/>
</g>
<defs>
<clipPath id="clip0_202_15765">
<rect width="34" height="41" fill="white"/>
</clipPath>
</defs>
</svg>
