<svg width="40" height="20" viewBox="0 0 40 20" fill="none" xmlns="http://www.w3.org/2000/svg">
<g clip-path="url(#clip0_202_15274)">
<path d="M24.7015 0.6026C24.9615 0.6026 25.1815 1.30254 25.1815 2.14246V2.54243C25.2215 2.52243 25.2615 2.52243 25.3215 2.52243H33.8407C34.6806 2.52243 35.3806 3.22236 35.3806 4.08229V12.0816C35.3806 12.9215 34.6806 13.6214 33.8407 13.6214H29.7011C28.8611 13.6214 28.1612 12.9215 28.1612 12.0816V8.94185C27.7812 9.22182 27.5413 9.66178 27.5413 10.1617V12.7815C27.5413 13.6214 28.2412 14.3214 29.0811 14.3214H31.7809V18.461C31.7809 18.9809 31.3609 19.4009 30.841 19.4009H25.7614C25.2415 19.4009 24.8215 18.9809 24.8215 18.461V14.6613C24.8215 14.1414 24.4015 13.7214 23.8816 13.7214H11.2227C10.7028 13.7214 10.2828 14.1414 10.2828 14.6613V18.461C10.2828 18.9809 9.86286 19.4009 9.3429 19.4009H4.26336C3.74341 19.4009 3.32345 18.9809 3.32345 18.461V7.50198L1.04365 9.30182C0.94366 9.38181 0.803673 9.36181 0.72368 9.26182L0.0637397 8.48189C-0.0162531 8.4019 -0.0162531 8.28191 0.0437415 8.20191L3.40344 3.06238C3.56342 2.72241 3.88339 2.50243 4.26336 2.50243H22.1018C22.6817 2.50243 23.1217 3.02238 23.0217 3.60233L22.6617 5.78213C22.5617 6.36208 23.0017 6.88203 23.5816 6.88203H27.1813C27.6413 6.88203 28.0212 6.56206 28.1012 6.1221C27.9012 6.2021 27.6413 6.24209 27.3813 6.24209H24.8215C23.9816 6.24209 23.4016 5.56215 23.5416 4.72223L23.9816 2.12246C24.1216 1.28254 24.4415 0.6026 24.7015 0.6026ZM38.8202 0.6026C39.0802 0.6026 39.4002 1.28254 39.5402 2.12246L39.9801 4.72223C40.1201 5.56215 39.5402 6.24209 38.6803 6.24209H35.9805V4.36226H36.8004C37.6403 4.36226 38.3403 3.66232 38.3403 2.8224V2.14246C38.3403 1.30254 38.5603 0.6026 38.8202 0.6026Z" fill="#0075A8"/>
</g>
<defs>
<clipPath id="clip0_202_15274">
<rect width="40.001" height="20" fill="white"/>
</clipPath>
</defs>
</svg>
