<svg width="37" height="37" viewBox="0 0 37 37" fill="none" xmlns="http://www.w3.org/2000/svg">
<g clip-path="url(#clip0_202_15910)">
<path d="M18.0038 34.8025C16.0261 34.8025 14.1665 34.0326 12.7678 32.6332L3.37653 23.2419C1.97637 21.8436 1.20496 19.9836 1.20496 18.0048C1.20496 16.0256 1.97637 14.1651 3.37691 12.7661L12.7682 3.3752C14.1669 1.97618 16.0258 1.20667 18.0038 1.20667C19.9815 1.20667 21.8412 1.97618 23.2402 3.37482L32.6311 12.7669C34.0313 14.1644 34.8034 16.0248 34.8034 18.0044C34.8034 19.984 34.0316 21.844 32.6307 23.2426L23.2398 32.6332C21.8412 34.0326 19.9815 34.8025 18.0038 34.8025Z" fill="#F89938"/>
<path d="M11.5691 8.2042C11.5691 4.6503 14.4502 1.76917 18.0041 1.76917C21.5584 1.76917 24.4392 4.6503 24.4392 8.2042C24.4392 11.7585 21.5584 14.6392 18.0041 14.6392C14.4499 14.6396 11.5691 11.7585 11.5691 8.2042Z" fill="#3399FF"/>
<path d="M34.6981 22.3677C35.5472 21.0841 36.0042 19.5804 36.0042 18.0058C36.0042 15.8845 35.1771 13.8912 33.6769 12.3939L23.6142 2.32993L23.6104 2.33374C22.1745 0.89554 20.1915 0.0045166 18.0036 0.0045166C15.8157 0.0045166 13.833 0.89592 12.3975 2.33412L12.3941 2.33032L2.33142 12.3928C0.830805 13.8919 0.00415039 15.8853 0.00415039 18.0058C0.00415039 20.126 0.830424 22.1194 2.33066 23.6174L11.4041 32.691C11.7677 33.0992 12.15 33.4811 12.5528 33.8322C14.0321 35.2338 15.9581 36.0045 18.0036 36.0045C20.1226 36.0045 22.1155 35.1794 23.6139 33.6802L33.4035 23.8908C33.4282 23.8664 33.453 23.8413 33.4777 23.8165L33.6761 23.6185C34.0542 23.2412 34.3893 22.8318 34.6794 22.3974C34.6863 22.3879 34.6935 22.3787 34.7008 22.3692L34.6981 22.3677ZM33.068 18.0058C33.068 18.9928 32.7817 19.9349 32.2517 20.7414C31.9337 21.1755 31.6021 21.5547 31.2601 21.8826L31.2358 21.9069C29.6262 23.438 27.8077 23.8718 26.2644 23.8718C25.4153 23.8718 24.6488 23.74 24.0464 23.5881C20.5193 22.697 16.6853 19.6619 14.9308 15.2353C15.8762 15.6347 16.9146 15.8556 18.0036 15.8556C22.0957 15.8556 25.4728 12.7382 25.8863 8.75406L31.6013 14.4688C32.5471 15.4143 33.068 16.6701 33.068 18.0058ZM18.004 2.94032C20.7558 2.94032 22.9936 5.17892 22.9936 7.93005C22.9936 10.6816 20.7554 12.9202 18.004 12.9202C15.2529 12.9202 13.0147 10.6816 13.0147 7.93005C13.0147 5.17892 15.2529 2.94032 18.004 2.94032ZM4.40624 21.5421C3.46079 20.5974 2.9399 19.3416 2.9399 18.0062C2.9399 16.6705 3.46041 15.4146 4.40586 14.4703L8.27221 10.6035C7.26317 14.0389 6.82985 17.654 7.06212 21.1195C7.14551 22.365 7.31762 23.5599 7.56512 24.7003L4.40624 21.5421ZM11.016 11.6647C11.8652 18.3089 17.1244 24.8671 23.3275 26.4348C24.3381 26.6899 25.3289 26.8156 26.2873 26.8156C26.301 26.8156 26.3151 26.8144 26.3288 26.8144L21.5387 31.605C20.594 32.5489 19.3386 33.0691 18.0036 33.0691C17.0741 33.0691 16.1862 32.8117 15.4124 32.3403L15.414 32.3376C15.1093 32.1358 14.8192 31.9077 14.537 31.6663C14.515 31.6446 14.4913 31.6267 14.4696 31.605L13.5017 30.6371C11.5114 28.352 10.2598 24.952 9.99063 20.9234C9.78692 17.8749 10.1528 14.6961 11.016 11.6647Z" fill="#333333"/>
</g>
<defs>
<clipPath id="clip0_202_15910">
<rect width="37" height="37" fill="white"/>
</clipPath>
</defs>
</svg>
