<svg width="30" height="37" viewBox="0 0 30 37" fill="none" xmlns="http://www.w3.org/2000/svg">
<g clip-path="url(#clip0_202_9728)">
<path d="M9.14336 0.00270613C8.96133 0.00832218 8.76532 0.0756048 8.54288 0.251024C7.99823 0.0410275 7.46999 -0.0319813 6.99769 0.39561C6.26838 0.301018 6.0314 0.496259 5.8518 0.724204C5.69169 0.720901 4.65382 0.559577 4.17777 1.26962C2.98166 1.12812 2.60362 1.97317 3.03199 2.76129C2.78763 3.13944 2.53447 3.51307 3.10577 4.23413C2.9037 4.63562 3.02901 5.07125 3.50506 5.59839C3.37941 6.16297 3.62641 6.56116 4.06942 6.87159C3.9865 7.64407 4.77781 8.09324 5.01401 8.25325C5.10475 8.7033 5.29383 9.12814 6.19757 9.36291C6.34667 10.0338 6.88978 10.1496 7.41582 10.2903C5.67737 11.3009 4.18658 12.6304 4.19671 15.8926L3.94201 16.3469C1.94864 17.5591 0.155242 21.4553 2.95975 24.6221C3.14288 25.6134 3.45011 26.3254 3.72364 27.1134C4.13273 30.2888 6.80278 31.7757 7.5071 31.9516C8.53903 32.7376 9.63812 33.4834 11.1255 34.006C12.5275 35.4519 14.0465 36.0031 15.5737 36.0022C15.5962 36.0022 18.6876 35.452 20.0897 34.006C21.577 33.4834 22.6761 32.7376 23.7081 31.9516C24.4123 31.7757 27.0824 30.2888 27.4915 27.1134C27.765 26.3254 28.0722 25.6134 28.2555 24.6221C31.0598 21.455 29.2665 17.5586 27.2731 16.3464L27.0181 15.8922C27.0282 12.6302 25.5374 11.3007 23.799 10.2899C24.3249 10.1492 24.8681 10.0333 25.0171 9.36247C25.9208 9.12759 26.11 8.70286 26.2007 8.25281C26.437 8.0928 27.2282 7.64363 27.1454 6.87115C27.5883 6.56072 27.8353 6.16242 27.7096 5.59795C28.1858 5.07081 28.311 4.63518 28.1089 4.23358C28.6803 3.51296 28.4268 3.13933 28.1828 2.76118C28.6109 1.97306 28.2331 1.1279 27.0366 1.26951C26.5607 0.559467 25.5231 0.720681 25.3625 0.723984C25.183 0.496148 24.9461 0.300908 24.2168 0.3955C23.7445 -0.0320914 23.2163 0.0408072 22.6716 0.250914C22.0247 -0.259487 21.5967 0.149605 21.1078 0.304321C20.3247 0.0484054 20.1455 0.398914 19.7608 0.541738C18.9067 0.361253 18.6472 0.754157 18.2377 1.16886L17.7615 1.15939C16.4733 1.91855 15.8333 3.4644 15.6065 4.25913C15.3795 3.46429 14.741 1.91844 13.4531 1.15939L12.9768 1.16886C12.5668 0.754157 12.3074 0.361253 11.4533 0.541738C11.0685 0.398914 10.89 0.0484054 10.1062 0.304321C9.78535 0.202792 9.49023 -0.00819563 9.14281 0.00259601L0.301025 15.5289" fill="black"/>
<path d="M6.57863 3.34247C9.99628 5.10448 11.9832 6.52986 13.0717 7.74381C12.5143 9.97801 9.60624 10.08 8.54293 10.0173C8.76064 9.91602 8.94233 9.79455 9.00675 9.60812C8.73993 9.4185 7.7939 9.58808 7.13341 9.21709C7.38712 9.16445 7.50583 9.11325 7.62443 8.92605C7.0005 8.72706 6.32833 8.5555 5.93301 8.2258C6.14631 8.22845 6.34551 8.27359 6.62411 8.08034C6.06526 7.77916 5.46885 7.54042 5.00547 7.08002C5.29443 7.07297 5.60595 7.07715 5.69658 6.97089C5.18508 6.65397 4.75341 6.30159 4.39619 5.91606C4.80054 5.96484 4.97134 5.92289 5.06912 5.85241C4.68239 5.45631 4.19302 5.12188 3.95968 4.63384C4.25986 4.73735 4.53461 4.77699 4.7326 4.62481C4.60123 4.32837 4.0383 4.1535 3.71411 3.46074C4.03026 3.49146 4.36546 3.52968 4.43253 3.46074C4.28585 2.86302 4.03412 2.52693 3.78723 2.17874C4.46369 2.16872 5.48868 2.18138 5.44232 2.12423L5.02397 1.69686C5.6848 1.51891 6.36093 1.72538 6.85184 1.87866C7.07218 1.70479 6.84787 1.48488 6.57896 1.26035C7.14057 1.33534 7.648 1.4644 8.10675 1.64224C8.35176 1.42101 7.94763 1.19967 7.75206 0.978444C8.61968 1.14296 8.98726 1.37432 9.35252 1.6059C9.61758 1.35186 9.36772 1.13591 9.18889 0.914795C9.8431 1.15706 10.1801 1.4699 10.5348 1.77868C10.655 1.61636 10.8403 1.49732 10.6166 1.10574C11.0811 1.37344 11.4309 1.68893 11.6897 2.04241C11.9771 1.85939 11.8609 1.6092 11.8625 1.37851C12.3452 1.77119 12.6516 2.18909 13.0265 2.59708C13.1021 2.54202 13.1681 2.35559 13.2266 2.06058C14.3781 3.17774 16.0054 5.99182 13.6448 7.10755C11.6359 5.4507 9.23668 4.24633 6.57786 3.34291L6.57863 3.34247Z" fill="#75A928"/>
<path d="M24.7128 3.34245C21.2956 5.10468 19.3087 6.52962 18.2203 7.74379C18.7777 9.97799 21.6856 10.08 22.7489 10.0173C22.5312 9.91599 22.3495 9.79453 22.2852 9.6081C22.552 9.41848 23.4981 9.58806 24.1584 9.21707C23.9047 9.16443 23.7861 9.11323 23.6674 8.92602C24.2915 8.72704 24.9636 8.55547 25.3589 8.22578C25.1456 8.22842 24.9463 8.27357 24.6677 8.08031C25.2267 7.77914 25.8231 7.5404 26.2865 7.07999C25.9974 7.07294 25.6859 7.07713 25.5954 6.97086C26.1069 6.65394 26.5386 6.30156 26.8958 5.91604C26.4913 5.96482 26.3206 5.92286 26.2228 5.85239C26.6095 5.45629 27.099 5.12186 27.3323 4.63381C27.032 4.73732 26.7573 4.77697 26.5593 4.62478C26.6906 4.32834 27.2537 4.15348 27.5777 3.46072C27.2617 3.49144 26.9264 3.52965 26.8593 3.46072C27.0063 2.86277 27.2581 2.52669 27.505 2.17849C26.8285 2.16847 25.8035 2.18114 25.8499 2.12399L26.2682 1.6965C25.6074 1.51866 24.9313 1.72514 24.4404 1.87842C24.22 1.70454 24.4442 1.48464 24.7131 1.2601C24.1516 1.33498 23.6441 1.46415 23.1854 1.642C22.9403 1.42077 23.3446 1.19943 23.5401 0.978199C22.6725 1.14272 22.3049 1.37408 21.9396 1.60566C21.6745 1.35161 21.9245 1.13567 22.1033 0.914551C21.4491 1.15681 21.1121 1.46966 20.7574 1.77843C20.6371 1.61612 20.4518 1.49708 20.6755 1.1055C20.2111 1.3732 19.8613 1.68869 19.6025 2.04217C19.3151 1.85915 19.4313 1.60885 19.4297 1.37826C18.947 1.77094 18.6406 2.18874 18.2657 2.59684C18.1901 2.54178 18.1241 2.35535 18.0656 2.06023C16.9141 3.17749 15.2868 5.99158 17.6473 7.1073C19.6551 5.45001 22.0543 4.24586 24.7132 3.34245H24.7128Z" fill="#75A928"/>
<path d="M19.7846 26.093C19.7965 28.1778 17.9732 29.8769 15.7124 29.8878C13.4514 29.8988 11.6089 28.2176 11.597 26.1327C11.5969 26.1195 11.5969 26.1063 11.597 26.093C11.5851 24.0082 13.4082 22.3092 15.6692 22.2981C17.9302 22.2871 19.7726 23.9683 19.7846 26.0532V26.093Z" fill="#BC1142"/>
<path d="M13.322 15.3091C15.0183 16.4206 15.3241 18.9396 14.005 20.9357C12.6859 22.9318 10.2415 23.6491 8.54519 22.5378C6.84892 21.4263 6.54323 18.9073 7.86224 16.9113C9.18135 14.9151 11.6258 14.1978 13.322 15.3091Z" fill="#BC1142"/>
<path d="M17.9004 15.108C16.2042 16.2193 15.8984 18.7385 17.2174 20.7345C18.5365 22.7306 20.981 23.4479 22.6772 22.3365C24.3735 21.2252 24.6793 18.7061 23.3602 16.71C22.0412 14.714 19.5968 13.9967 17.9004 15.108Z" fill="#BC1142"/>
<path d="M4.84438 17.126C6.67577 16.6351 5.4627 24.7025 3.97257 24.0406C2.33345 22.7223 1.80554 18.8614 4.84438 17.126Z" fill="#BC1142"/>
<path d="M26.0086 17.0256C24.177 16.5348 25.3903 24.6025 26.8804 23.9406C28.5196 22.6221 29.0475 18.7608 26.0086 17.0256Z" fill="#BC1142"/>
<path d="M19.7862 11.0178C22.9467 10.4841 25.5766 12.3619 25.4704 15.789C25.3665 17.1029 18.6218 11.2134 19.7862 11.0178Z" fill="#BC1142"/>
<path d="M11.0538 10.9172C7.89304 10.3834 5.26341 12.2616 5.36956 15.6885C5.47351 17.0023 12.2183 11.1129 11.0538 10.9172Z" fill="#BC1142"/>
<path d="M15.5937 10.118C13.7073 10.0689 11.897 11.518 11.8926 12.3585C11.8874 13.3798 13.384 14.4254 15.6066 14.452C17.8761 14.4682 19.3244 13.615 19.3317 12.561C19.34 11.3669 17.2675 10.0995 15.5937 10.1179V10.118Z" fill="#BC1142"/>
<path d="M15.7087 31.0605C17.3533 30.9887 19.5601 31.5902 19.5645 32.3882C19.5918 33.163 17.5631 34.9137 15.5997 34.8799C13.5662 34.9676 11.5723 33.2142 11.5984 32.6065C11.5679 31.7154 14.0743 31.0197 15.7087 31.0605Z" fill="#BC1142"/>
<path d="M9.63434 26.3313C10.8052 27.742 11.3391 30.2203 10.3619 30.9509C9.43745 31.5087 7.19246 31.279 5.59684 28.9866C4.52065 27.0631 4.65929 25.1057 5.41492 24.5307C6.54485 23.8424 8.29067 24.7722 9.63445 26.3313H9.63434Z" fill="#BC1142"/>
<path d="M21.5492 25.8842C20.2823 27.368 19.5768 30.0745 20.501 30.9462C21.3847 31.6235 23.7568 31.5288 25.509 29.0974C26.7814 27.4645 26.3551 24.7374 25.6283 24.0133C24.5487 23.1782 22.9988 24.2469 21.5492 25.8837V25.8842Z" fill="#BC1142"/>
</g>
<defs>
<clipPath id="clip0_202_9728">
<rect width="30" height="37" fill="white"/>
</clipPath>
</defs>
</svg>
