<svg width="40" height="28" viewBox="0 0 40 28" fill="none" xmlns="http://www.w3.org/2000/svg">
<g clip-path="url(#clip0_202_8296)">
<path d="M11.8397 25.0632C12.587 26.1061 13.6412 26.6733 14.9852 26.6733C16.7269 26.6733 18.1291 25.953 19.0873 24.6826C19.9219 23.5762 20.3694 22.1017 20.3694 20.6252V18.5332L16.1856 18.5625L16.0177 21.4998C16.0177 22.504 15.6614 22.8379 14.7639 22.8379C14.0687 22.8379 13.5764 22.1103 13.4205 20.8393L12.7087 15.6107C12.431 13.8079 11.7547 12.4078 10.7392 11.392C9.86919 10.5217 8.77796 9.96117 7.54999 9.6809L4.10144 8.77148C3.61509 8.77148 3.2635 9.1534 3.2635 9.58767C3.2635 10.3078 3.34883 10.6604 3.76784 11.174C3.8877 11.3209 4.08108 11.4509 4.35162 11.5865C4.63087 11.7264 4.99353 11.8711 5.42205 12.0192C5.76686 12.1385 6.13491 12.2532 6.50288 12.3597C6.65441 12.4036 6.80635 12.4459 6.95869 12.4869C8.27111 12.8405 9.27862 14.1008 9.42584 15.4187L10.6211 21.5431C10.8074 22.9747 11.2058 24.1788 11.8397 25.0632ZM20.335 18.6338H16.3315L16.3375 19.0085L16.3754 21.3764C16.3754 22.3674 15.6568 22.9755 14.6868 22.9755C13.9897 22.9755 13.3361 22.2404 12.5567 20.7131L10.2928 16.3248C9.28209 14.5712 7.92578 13.6129 5.80706 13.1968L2.59666 12.372C2.08406 12.372 1.69189 13.0064 1.69189 13.4588C1.69189 13.9757 1.91729 14.5234 2.26343 14.9509C2.57616 15.3374 3.24026 15.6744 3.85878 15.8044L5.20639 16.0916C6.27718 16.4532 7.26972 17.1905 7.73129 18.0613L9.43639 22.1485C10.079 23.5564 10.7366 24.5867 11.523 25.3305C12.4442 26.2019 13.5294 26.6548 14.8243 26.6548C16.0107 26.6548 17.2419 26.2326 18.1943 25.4766C19.2528 24.6363 19.9026 23.4472 19.989 22.0362L20.335 18.6338Z" fill="#053949"/>
<path d="M10.8947 19.1004L10.1569 15.3211C9.97101 13.7172 8.76089 12.2085 7.1814 11.7826C7.1384 11.7712 7.09545 11.7596 7.05254 11.7479C6.94855 11.7195 6.8326 11.687 6.70759 11.6509C6.3509 11.5476 5.99436 11.4364 5.66275 11.3218C5.26226 11.1833 4.92696 11.0496 4.68179 10.9267C4.58443 10.8779 4.5036 10.8319 4.44135 10.79C4.38802 10.7542 4.35313 10.7246 4.33912 10.7074C4.04874 10.3514 4.0008 10.1535 4.0008 9.5873C4.0008 9.56798 4.01039 9.54423 4.02676 9.52638C4.03038 9.52254 7.36763 10.3952 7.36763 10.3952C8.48157 10.6487 9.45022 11.1457 10.2174 11.9131C11.1183 12.8143 11.7249 14.0702 11.9785 15.7162L12.6888 20.9335C12.8838 22.5233 13.5953 23.5751 14.7636 23.5751C16.0549 23.5751 16.7515 22.9253 16.755 21.5207L16.8822 19.2948L19.6315 19.2756V20.6249C19.6315 21.9477 19.2315 23.2659 18.4981 24.2382C17.6774 25.3262 16.4917 25.9353 14.9849 25.9353C14.835 25.9356 14.6853 25.9265 14.5365 25.9083C12.6222 25.7915 11.3156 24.4868 10.1145 21.8584L8.39919 17.747C7.83281 16.6636 6.67159 15.8021 5.42017 15.385L4.01127 15.0824C3.54329 14.9841 3.02714 14.7222 2.83648 14.4866C2.58969 14.1817 2.4292 13.7918 2.4292 13.4584C2.4292 13.4172 2.46954 13.3011 2.52951 13.2042C2.54765 13.1747 2.56602 13.1494 2.58291 13.1297L5.64417 13.9161C7.56869 14.292 8.74488 15.1201 9.64501 16.6779L10.8947 19.1004Z" fill="#00D8FE"/>
<path d="M10.8947 19.1004L10.1569 15.3211C9.97101 13.7172 8.76089 12.2085 7.1814 11.7826C7.1384 11.7712 7.09545 11.7596 7.05254 11.7479C6.94855 11.7195 6.8326 11.687 6.70759 11.6509C6.3509 11.5476 5.99436 11.4364 5.66275 11.3218C5.26226 11.1833 4.92696 11.0496 4.68179 10.9267C4.58443 10.8779 4.5036 10.8319 4.44135 10.79C4.38802 10.7542 4.35313 10.7246 4.33912 10.7074C4.04874 10.3514 4.0008 10.1535 4.0008 9.5873C4.0008 9.56798 4.01039 9.54423 4.02676 9.52638C4.03038 9.52254 7.36763 10.3952 7.36763 10.3952C8.48157 10.6487 9.45022 11.1457 10.2174 11.9131C11.1183 12.8143 11.7249 14.0702 11.9785 15.7162L12.6888 20.9335C12.8838 22.5233 13.5953 23.5751 14.7636 23.5751C16.0549 23.5751 16.7515 22.9253 16.755 21.5207L16.8822 19.2948L19.6315 19.2756V20.6249C19.6315 21.9477 19.2315 23.2659 18.4981 24.2382C17.6774 25.3262 16.4917 25.9353 14.9849 25.9353C14.835 25.9356 14.6853 25.9265 14.5365 25.9083C12.6222 25.7915 11.3156 24.4868 10.1145 21.8584L8.39919 17.747C7.83281 16.6636 6.67159 15.8021 5.42017 15.385L4.01127 15.0824C3.54329 14.9841 3.02714 14.7222 2.83648 14.4866C2.58969 14.1817 2.4292 13.7918 2.4292 13.4584C2.4292 13.4172 2.46954 13.3011 2.52951 13.2042C2.54765 13.1747 2.56602 13.1494 2.58291 13.1297L5.64417 13.9161C7.56869 14.292 8.74488 15.1201 9.64501 16.6779L10.8947 19.1004Z" fill="#00D8FE"/>
<path d="M2.57275 13.0687C2.63736 13.1798 2.7126 13.2843 2.79742 13.3809C3.00452 13.6165 3.56485 13.8784 4.07296 13.9768L5.60267 14.2793C6.96141 14.6964 8.2222 15.5579 8.83718 16.6413L10.6995 20.7528C10.9528 21.2631 11.2104 21.7237 11.4763 22.1353C11.4256 21.8794 11.3836 21.6219 11.3505 21.3631L10.8945 19.0272L9.64481 16.6048C8.74469 15.0469 7.56849 14.2188 5.64397 13.8429L2.58271 13.0566L2.57275 13.0687V13.0687Z" fill="black" fill-opacity="0.25"/>
<path d="M17.4926 19.2902V21.3626C17.4926 22.7859 16.9187 24.2391 14.8996 24.2391C13.671 24.2391 12.4195 23.4828 12.0115 20.6358L11.2177 15.1671C11.0118 13.5632 9.41521 11.3236 7.66445 10.8977C7.59748 10.8816 5.16559 10.1646 4.89387 10.0418C4.78589 9.99302 4.52951 9.83968 4.51395 9.82242C4.41998 9.71857 4.34896 9.62814 4.29541 9.53809C4.6934 9.64061 7.51761 10.3954 7.51761 10.3954C8.6075 10.6489 9.5552 11.1459 10.3057 11.9133C11.1871 12.8145 11.7807 14.0704 12.0288 15.7164L12.7236 20.9337C12.9145 22.5235 13.6106 23.5753 14.7536 23.5753C16.017 23.5753 16.6986 22.9255 16.702 21.5209L16.8264 19.295L17.4926 19.2902Z" fill="black" fill-opacity="0.25"/>
<path d="M20.443 21.0674V18.486H16.1652V18.8548C16.1652 22.1743 15.2554 23.612 13.2149 23.612C11.4143 23.612 10.1758 22.3257 9.38739 20.2153C8.488 17.8076 7.12395 16.7158 4.46467 16.7158H0.823831C0.363739 16.7158 0.000489113 17.0952 0.000489113 17.5535C-1.42425e-05 18.1263 0.227907 18.6756 0.633761 19.0799C1.03953 19.4859 1.59033 19.7135 2.16435 19.7125L4.47344 19.703C4.95338 19.703 5.41723 20.0542 5.8937 20.772C6.2908 21.3703 6.62529 22.0792 7.15685 23.3672C7.63346 24.5221 8.2868 25.5012 9.16059 26.2389C10.2296 27.1414 11.5752 27.6318 13.2149 27.6318C14.9802 27.6318 16.7759 26.9883 18.132 25.8618C19.5961 24.6456 20.443 22.9674 20.443 21.0674Z" fill="#053949"/>
<path d="M19.7052 19.2233V21.0672C19.7052 22.7397 18.9614 24.2136 17.6605 25.2942C16.4373 26.3103 14.8085 26.8939 13.2146 26.8939C11.7489 26.8939 10.5719 26.465 9.63613 25.675C8.86199 25.0214 8.27311 24.1391 7.83839 23.0856C7.28869 21.7537 6.94026 21.0151 6.5079 20.3638C5.90885 19.4613 5.25353 18.9651 4.47164 18.9651L2.16255 18.9746C1.78444 18.9754 1.42164 18.8253 1.15459 18.5576C0.887349 18.2918 0.737312 17.9302 0.737794 17.5532C0.737794 17.4953 0.778213 17.4531 0.823573 17.4531H4.46441C6.79393 17.4531 7.89828 18.337 8.69618 20.4731C9.0775 21.494 9.57846 22.3736 10.2239 23.0439C11.0334 23.8846 12.0301 24.3493 13.2146 24.3493C15.6652 24.3493 16.8225 22.6521 16.8985 19.2233H19.7052Z" fill="#00D8FE"/>
<path d="M0.76123 17.4851C0.828496 17.5707 0.923495 17.6474 1.04239 17.7553C1.29648 17.9858 1.63827 18.1169 2.00432 18.1169H5.02833C6.71403 18.1169 7.59048 19.4339 8.69144 21.8582C9.1064 22.7717 10.2381 24.9763 13.4366 24.9763C16.635 24.9763 17.5669 21.8537 17.5669 20.4034V19.2233H16.8991C16.8232 22.6521 15.6658 24.3493 13.2153 24.3493C12.0308 24.3493 11.034 23.8846 10.2245 23.0439C9.5791 22.3736 9.07822 21.494 8.69683 20.4731C7.89893 18.3371 6.79458 17.4531 4.46505 17.4531H0.824218C0.800026 17.4531 0.777236 17.4651 0.76123 17.4851Z" fill="black" fill-opacity="0.25"/>
<path d="M28.161 25.0632C27.4137 26.1061 26.3596 26.6733 25.0156 26.6733C23.2738 26.6733 21.8716 25.953 20.9135 24.6826C20.0788 23.5762 19.6313 22.1017 19.6313 20.6252V18.5332L23.8151 18.5625L23.983 21.4998C23.983 22.504 24.3393 22.8379 25.2368 22.8379C25.9321 22.8379 26.4243 22.1103 26.5802 20.8393L27.292 15.6107C27.5697 13.8079 28.246 12.4078 29.2615 11.392C30.1315 10.5217 31.2228 9.96117 32.4507 9.6809L35.8993 8.77148C36.3856 8.77148 36.7372 9.1534 36.7372 9.58767C36.7372 10.3078 36.6519 10.6604 36.2329 11.174C36.113 11.3209 35.9196 11.4509 35.6491 11.5865C35.3699 11.7264 35.0072 11.8711 34.5787 12.0192C34.2339 12.1385 33.8658 12.2532 33.4978 12.3597C33.3463 12.4036 33.1944 12.4459 33.042 12.4869C31.7296 12.8405 30.7221 14.1008 30.5749 15.4187L29.3797 21.5431C29.1933 22.9747 28.7949 24.1788 28.161 25.0632ZM19.6657 18.6338H23.6692L23.6632 19.0085L23.6253 21.3764C23.6253 22.3674 24.3439 22.9755 25.3139 22.9755C26.0111 22.9755 26.6646 22.2404 27.4441 20.7131L29.7079 16.3248C30.7186 14.5712 32.0749 13.6129 34.1937 13.1968L37.4041 12.372C37.9167 12.372 38.3088 13.0064 38.3088 13.4588C38.3088 13.9757 38.0834 14.5234 37.7373 14.9509C37.4246 15.3374 36.7605 15.6744 36.1419 15.8044L34.7943 16.0916C33.7235 16.4532 32.731 17.1905 32.2694 18.0613L30.5643 22.1485C29.9217 23.5564 29.2641 24.5867 28.4778 25.3305C27.5565 26.2019 26.4713 26.6548 25.1764 26.6548C23.9901 26.6548 22.7588 26.2326 21.8064 25.4766C20.7479 24.6363 20.0981 23.4472 20.0117 22.0362L19.6657 18.6338Z" fill="#053949"/>
<path d="M29.1064 19.1004L29.8443 15.3211C30.0302 13.7172 31.2403 12.2085 32.8198 11.7826C32.9782 11.7403 33.1361 11.6964 33.2936 11.6509C33.6503 11.5476 34.0068 11.4364 34.3384 11.3218C34.7389 11.1833 35.0742 11.0496 35.3194 10.9267C35.4167 10.8779 35.4976 10.8319 35.5598 10.79C35.6132 10.7542 35.648 10.7246 35.6621 10.7074C35.9524 10.3514 36.0004 10.1535 36.0004 9.5873C36.0004 9.56798 35.9908 9.54423 35.9744 9.52638C35.9708 9.52254 32.6335 10.3952 32.6335 10.3952C31.5196 10.6487 30.551 11.1457 29.7838 11.9131C28.8829 12.8143 28.2762 14.0702 28.0227 15.7162L27.3124 20.9335C27.1174 22.5233 26.4059 23.5751 25.2375 23.5751C23.9463 23.5751 23.2497 22.9253 23.2461 21.5207L23.119 19.2948L20.3696 19.2756V20.6249C20.3696 21.9477 20.7697 23.2659 21.503 24.2382C22.3238 25.3262 23.5094 25.9353 25.0163 25.9353C25.1707 25.9353 25.3202 25.9263 25.4646 25.9083C27.379 25.7915 28.6856 24.4868 29.8867 21.8584L31.602 17.747C32.1684 16.6636 33.3296 15.8021 34.581 15.385L35.9899 15.0824C36.4579 14.9841 36.974 14.7222 37.1647 14.4866C37.4115 14.1817 37.572 13.7918 37.572 13.4584C37.572 13.4172 37.5316 13.3011 37.4717 13.2042C37.4558 13.178 37.4379 13.1531 37.4183 13.1297L34.357 13.9161C32.4325 14.292 31.2563 15.1201 30.3562 16.6779L29.1064 19.1004Z" fill="#00D8FE"/>
<path d="M29.1064 19.1004L29.8443 15.3211C30.0302 13.7172 31.2403 12.2085 32.8198 11.7826C32.9782 11.7403 33.1361 11.6964 33.2936 11.6509C33.6503 11.5476 34.0068 11.4364 34.3384 11.3218C34.7389 11.1833 35.0742 11.0496 35.3194 10.9267C35.4167 10.8779 35.4976 10.8319 35.5598 10.79C35.6132 10.7542 35.648 10.7246 35.6621 10.7074C35.9524 10.3514 36.0004 10.1535 36.0004 9.5873C36.0004 9.56798 35.9908 9.54423 35.9744 9.52638C35.9708 9.52254 32.6335 10.3952 32.6335 10.3952C31.5196 10.6487 30.551 11.1457 29.7838 11.9131C28.8829 12.8143 28.2762 14.0702 28.0227 15.7162L27.3124 20.9335C27.1174 22.5233 26.4059 23.5751 25.2375 23.5751C23.9463 23.5751 23.2497 22.9253 23.2461 21.5207L23.119 19.2948L20.3696 19.2756V20.6249C20.3696 21.9477 20.7697 23.2659 21.503 24.2382C22.3238 25.3262 23.5094 25.9353 25.0163 25.9353C25.1707 25.9353 25.3202 25.9263 25.4646 25.9083C27.379 25.7915 28.6856 24.4868 29.8867 21.8584L31.602 17.747C32.1684 16.6636 33.3296 15.8021 34.581 15.385L35.9899 15.0824C36.4579 14.9841 36.974 14.7222 37.1647 14.4866C37.4115 14.1817 37.572 13.7918 37.572 13.4584C37.572 13.4172 37.5316 13.3011 37.4717 13.2042C37.4558 13.178 37.4379 13.1531 37.4183 13.1297L34.357 13.9161C32.4325 14.292 31.2563 15.1201 30.3562 16.6779L29.1064 19.1004Z" fill="#00D8FE"/>
<path d="M37.4275 13.0678C37.3629 13.1789 37.2876 13.2835 37.2028 13.38C36.9957 13.6157 36.4354 13.8775 35.9273 13.9759L34.3976 14.2785C33.0388 14.6956 31.7781 15.5571 31.1631 16.6405L29.3007 20.7519C29.0474 21.2623 28.7899 21.7228 28.5239 22.1345C28.5747 21.8786 28.6166 21.621 28.6498 21.3623L29.1057 19.0264L30.3554 16.6039C31.2556 15.0461 32.4318 14.218 34.3563 13.8421L37.4175 13.0557L37.4275 13.0678V13.0678Z" fill="black" fill-opacity="0.25"/>
<path d="M22.5083 19.2902V21.3626C22.5083 22.7859 23.0822 24.2391 25.1013 24.2391C26.3299 24.2391 27.5813 23.4828 27.9894 20.6358L28.7831 15.1671C28.9891 13.5632 30.5857 11.3236 32.3364 10.8977C32.4034 10.8816 34.8353 10.1646 35.107 10.0418C35.215 9.99302 35.4714 9.83968 35.4869 9.82242C35.5809 9.71857 35.6519 9.62814 35.7055 9.53809C35.3075 9.64061 32.4833 10.3954 32.4833 10.3954C31.3934 10.6489 30.4457 11.1459 29.6951 11.9133C28.8137 12.8145 28.2201 14.0704 27.9721 15.7164L27.2772 20.9337C27.0864 22.5235 26.3902 23.5753 25.2472 23.5753C23.9839 23.5753 23.3023 22.9255 23.2989 21.5209L23.1745 19.295L22.5083 19.2902Z" fill="black" fill-opacity="0.25"/>
<path d="M19.5581 21.0674V18.486H23.836V18.8548C23.836 22.1743 24.7458 23.612 26.7862 23.612C28.5868 23.612 29.8254 22.3257 30.6137 20.2153C31.5131 17.8076 32.8772 16.7158 35.5365 16.7158H39.1773C39.6374 16.7158 40.0006 17.0952 40.0006 17.5535C40.0011 18.1263 39.7732 18.6756 39.3674 19.0799C38.9616 19.4859 38.4108 19.7135 37.8368 19.7125L35.5277 19.703C35.0478 19.703 34.5839 20.0542 34.1074 20.772C33.7103 21.3703 33.3758 22.0792 32.8443 23.3672C32.3677 24.5221 31.7143 25.5012 30.8405 26.2389C29.7715 27.1414 28.4259 27.6318 26.7862 27.6318C25.0209 27.6318 23.2252 26.9883 21.8691 25.8618C20.4051 24.6456 19.5581 22.9674 19.5581 21.0674Z" fill="#053949"/>
<path d="M20.2954 19.2233V21.0672C20.2954 22.7397 21.0392 24.2136 22.3402 25.2942C23.5633 26.3103 25.1921 26.8939 26.786 26.8939C28.2517 26.8939 29.4287 26.465 30.3645 25.675C31.1386 25.0214 31.7275 24.1391 32.1622 23.0856C32.7119 21.7537 33.0604 21.0151 33.4927 20.3638C34.0918 19.4613 34.7471 18.9651 35.529 18.9651L37.8381 18.9746C38.2216 18.9746 38.5798 18.8234 38.846 18.5576C39.1133 18.2918 39.2633 17.9302 39.2628 17.5532C39.2628 17.4953 39.2224 17.4531 39.177 17.4531H35.5362C33.2067 17.4531 32.1023 18.337 31.3044 20.4731C30.9231 21.494 30.4222 22.3736 29.7767 23.0439C28.9672 23.8846 27.9705 24.3493 26.786 24.3493C24.3354 24.3493 23.1781 22.6521 23.1021 19.2233H20.2954Z" fill="#00D8FE"/>
<path d="M39.2398 17.4851C39.1725 17.5707 39.0775 17.6474 38.9586 17.7553C38.7045 17.9858 38.3627 18.1169 37.9967 18.1169H34.9727C33.287 18.1169 32.4105 19.4339 31.3096 21.8582C30.8946 22.7717 29.7629 24.9763 26.5644 24.9763C23.366 24.9763 22.4341 21.8537 22.4341 20.4034V19.2233H23.1019C23.1778 22.6521 24.3352 24.3493 26.7857 24.3493C27.9702 24.3493 28.967 23.8846 29.7765 23.0439C30.4219 22.3736 30.9228 21.494 31.3042 20.4731C32.1021 18.3371 33.2064 17.4531 35.5359 17.4531H39.1768C39.201 17.4531 39.2238 17.4651 39.2398 17.4851Z" fill="black" fill-opacity="0.25"/>
<path d="M22.8302 20.0333C22.8302 20.0333 20.8329 20.5694 19.8342 20.5694C18.8355 20.5694 16.8748 20.0333 16.8748 20.0333C16.7048 20.0333 16.5669 19.8955 16.5669 19.7254V12.7562C16.5669 12.6745 16.5993 12.5962 16.6571 12.5384C16.7148 12.4807 16.7932 12.4482 16.8748 12.4482H22.8302C23.0003 12.4482 23.1381 12.5861 23.1381 12.7562V19.7254C23.1382 19.8071 23.1058 19.8854 23.048 19.9432C22.9902 20.001 22.9119 20.0334 22.8302 20.0333Z" fill="#00D8FE"/>
<path d="M21.8928 21.167C21.654 21.2183 21.4262 21.2635 21.211 21.302C20.6469 21.4029 20.1921 21.4549 19.8345 21.4549C19.4802 21.4549 19.0337 21.4039 18.4831 21.3048C18.2658 21.2657 18.0349 21.2194 17.7916 21.1665C17.438 21.0892 17.086 21.0046 16.735 20.9124C16.7303 20.9111 16.726 20.91 16.722 20.9089C16.1314 20.8331 15.6821 20.3289 15.6821 19.7257V12.7565C15.6821 12.0976 16.2162 11.5635 16.8751 11.5635H22.8305C23.4894 11.5635 24.0235 12.0976 24.0235 12.7565V19.7253C24.0238 20.3299 23.5726 20.835 22.9803 20.9094C22.6197 21.0027 22.2572 21.0886 21.8928 21.167ZM22.8595 20.0323C23.0167 20.0179 23.1385 19.8851 23.1385 19.7255V12.7565C23.1385 12.5864 23.0006 12.4486 22.8305 12.4486H16.8751C16.705 12.4486 16.5672 12.5864 16.5672 12.7565V19.7257C16.5672 19.8849 16.6887 20.0176 16.8456 20.0323L16.8842 20.0359L16.9216 20.0461C16.9292 20.0482 16.9378 20.0505 16.9609 20.0566C17.299 20.1454 17.6389 20.2272 17.9802 20.3017C18.2131 20.3524 18.4335 20.3966 18.6399 20.4337C19.1432 20.5243 19.5416 20.5698 19.8345 20.5698C20.1307 20.5698 20.538 20.5233 21.055 20.4308C21.2598 20.3941 21.4777 20.3509 21.7068 20.3017C22.0692 20.2237 22.4299 20.138 22.7886 20.0447L22.8236 20.0356L22.8595 20.0323Z" fill="#043849"/>
<mask id="mask0_202_8296" style="mask-type:alpha" maskUnits="userSpaceOnUse" x="16" y="12" width="8" height="9">
<path d="M22.8312 20.0333C22.8312 20.0333 20.8339 20.5694 19.8351 20.5694C18.8365 20.5694 16.8758 20.0333 16.8758 20.0333C16.7057 20.0333 16.5679 19.8955 16.5679 19.7254V12.7562C16.5679 12.6745 16.6003 12.5962 16.6581 12.5384C16.7158 12.4807 16.7941 12.4482 16.8758 12.4482H22.8312C23.0013 12.4482 23.1391 12.5861 23.1391 12.7562V19.7254C23.1392 19.8071 23.1067 19.8854 23.049 19.9432C22.9912 20.001 22.9129 20.0334 22.8312 20.0333Z" fill="white"/>
</mask>
<g mask="url(#mask0_202_8296)">
<path d="M16.5337 14.6504H18.1563L17.2713 20.8459H16.5337V14.6504Z" fill="black" fill-opacity="0.25"/>
</g>
<path d="M16.4941 17.6989C17.5142 17.6989 18.3411 16.8735 18.3411 15.8553C18.3411 14.8371 17.5142 14.0117 16.4941 14.0117C15.4739 14.0117 14.647 14.8371 14.647 15.8553C14.647 16.8735 15.4739 17.6989 16.4941 17.6989Z" fill="white"/>
<path d="M16.4932 18.1416C15.2289 18.1416 14.2036 17.1183 14.2036 15.8555C14.2036 14.5927 15.2289 13.5693 16.4932 13.5693C17.7576 13.5693 18.7829 14.5927 18.7829 15.8555C18.7829 17.1183 17.7576 18.1416 16.4932 18.1416ZM16.4932 17.2566C17.2691 17.2566 17.8978 16.6291 17.8978 15.8555C17.8978 15.0819 17.2691 14.4544 16.4932 14.4544C15.7173 14.4544 15.0887 15.0819 15.0887 15.8555C15.0887 16.6291 15.7173 17.2566 16.4932 17.2566Z" fill="#063A49"/>
<path d="M16.4936 16.4344C16.8128 16.4344 17.0716 16.1756 17.0716 15.8563C17.0716 15.5371 16.8128 15.2783 16.4936 15.2783C16.1743 15.2783 15.9155 15.5371 15.9155 15.8563C15.9155 16.1756 16.1743 16.4344 16.4936 16.4344Z" fill="#053949"/>
<path d="M23.1317 17.6989C24.1519 17.6989 24.9788 16.8735 24.9788 15.8553C24.9788 14.8371 24.1519 14.0117 23.1317 14.0117C22.1116 14.0117 21.2847 14.8371 21.2847 15.8553C21.2847 16.8735 22.1116 17.6989 23.1317 17.6989Z" fill="white"/>
<path d="M23.1319 18.1416C21.8676 18.1416 20.8423 17.1183 20.8423 15.8555C20.8423 14.5927 21.8676 13.5693 23.1319 13.5693C24.3962 13.5693 25.4215 14.5927 25.4215 15.8555C25.4215 17.1183 24.3962 18.1416 23.1319 18.1416ZM23.1319 17.2566C23.9078 17.2566 24.5364 16.6291 24.5364 15.8555C24.5364 15.0819 23.9078 14.4544 23.1319 14.4544C22.356 14.4544 21.7274 15.0819 21.7274 15.8555C21.7274 16.6291 22.356 17.2566 23.1319 17.2566Z" fill="#063A49"/>
<path d="M23.1322 16.4344C23.4515 16.4344 23.7103 16.1756 23.7103 15.8563C23.7103 15.5371 23.4515 15.2783 23.1322 15.2783C22.813 15.2783 22.5542 15.5371 22.5542 15.8563C22.5542 16.1756 22.813 16.4344 23.1322 16.4344Z" fill="#053949"/>
<path d="M21.6372 15.3457C21.4365 15.3782 21.2352 15.408 21.0333 15.4353C20.5377 15.5016 20.1388 15.5358 19.8288 15.5358C19.5225 15.5358 19.1292 15.5015 18.6417 15.435C18.4552 15.4096 18.257 15.3796 18.0479 15.3454C17.737 15.2943 17.4269 15.2384 17.1164 15.1774C14.9507 15.1383 13.3677 13.7201 13.3677 11.6951V6.8566C13.3677 3.27796 16.2687 0.376953 19.8473 0.376953C23.4342 0.376953 26.3375 3.27562 26.3375 6.8566V11.6951C26.3376 13.7207 24.7536 15.1391 22.5868 15.1775C22.2711 15.2385 21.9545 15.2946 21.6372 15.3457ZM22.537 14.293C24.263 14.2765 25.4525 13.2209 25.4524 11.6951V6.8566C25.4524 3.76476 22.9457 1.26203 19.8473 1.26203C16.7575 1.26203 14.2528 3.76677 14.2528 6.8566V11.6951C14.2528 13.2207 15.4419 14.2763 17.1675 14.293L17.2091 14.2934L17.25 14.3015L17.2847 14.3085C17.586 14.3678 17.8882 14.4222 18.191 14.4719C18.3926 14.5049 18.5829 14.5337 18.7613 14.558C19.2127 14.6197 19.5694 14.6507 19.8288 14.6507C20.0927 14.6507 20.4558 14.6196 20.9154 14.5581C21.1093 14.5319 21.3028 14.5033 21.4962 14.472C21.8173 14.4202 22.1375 14.3633 22.4567 14.3012L22.4965 14.2934L22.537 14.293Z" fill="#043849"/>
<mask id="mask1_202_8296" style="mask-type:alpha" maskUnits="userSpaceOnUse" x="14" y="1" width="12" height="14">
<path d="M22.4966 14.2938C22.4966 14.2938 20.7179 14.6514 19.8285 14.6514C18.955 14.6514 17.2081 14.2938 17.2081 14.2938C15.5757 14.2938 14.2524 13.3281 14.2524 11.6958V6.85726C14.2524 3.76746 16.7572 1.2627 19.847 1.2627C22.9474 1.2627 25.4521 3.76746 25.4521 6.85726V11.6958C25.4522 13.3281 24.1289 14.2938 22.4966 14.2938Z" fill="white"/>
</mask>
<g mask="url(#mask1_202_8296)">
<path d="M22.4966 14.2938C22.4966 14.2938 20.7179 14.6514 19.8285 14.6514C18.955 14.6514 17.2081 14.2938 17.2081 14.2938C15.5757 14.2938 14.2524 13.3281 14.2524 11.6958V6.85726C14.2524 3.76746 16.7572 1.2627 19.847 1.2627C22.9474 1.2627 25.4521 3.76746 25.4521 6.85726V11.6958C25.4522 13.3281 24.1289 14.2938 22.4966 14.2938Z" fill="#00D8FE"/>
</g>
<mask id="mask2_202_8296" style="mask-type:alpha" maskUnits="userSpaceOnUse" x="14" y="1" width="12" height="14">
<path d="M22.4966 14.2938C22.4966 14.2938 20.7179 14.6514 19.8285 14.6514C18.955 14.6514 17.2081 14.2938 17.2081 14.2938C15.5757 14.2938 14.2524 13.3281 14.2524 11.6958V6.85726C14.2524 3.76746 16.7572 1.2627 19.847 1.2627C22.9474 1.2627 25.4521 3.76746 25.4521 6.85726V11.6958C25.4522 13.3281 24.1289 14.2938 22.4966 14.2938Z" fill="white"/>
</mask>
<g mask="url(#mask2_202_8296)">
<path d="M15.7939 11.5479V5.23429C15.7939 2.40426 17.8956 0.0664767 20.6231 -0.306878C20.3694 -0.342073 20.1137 -0.359939 19.8576 -0.360352H19.8471C16.7573 -0.360352 14.2524 2.14442 14.2524 5.23422V11.5478C14.2524 13.1802 15.5757 14.5035 17.2081 14.5035H18.7494C17.1171 14.5035 15.7939 13.1803 15.7939 11.5479Z" fill="black" fill-opacity="0.25"/>
</g>
<path d="M19.2504 12.0456C19.5697 12.0456 19.8285 11.7868 19.8285 11.4676C19.8285 11.1484 19.5697 10.8896 19.2504 10.8896C18.9312 10.8896 18.6724 11.1484 18.6724 11.4676C18.6724 11.7868 18.9312 12.0456 19.2504 12.0456Z" fill="black" fill-opacity="0.25"/>
<path d="M17.7016 9.02118C18.0208 9.02118 18.2796 8.76239 18.2796 8.44316C18.2796 8.12392 18.0208 7.86513 17.7016 7.86513C17.3823 7.86513 17.1235 8.12392 17.1235 8.44316C17.1235 8.76239 17.3823 9.02118 17.7016 9.02118Z" fill="black" fill-opacity="0.25"/>
<path d="M19.8525 6.2C20.1717 6.2 20.4305 5.94121 20.4305 5.62197C20.4305 5.30274 20.1717 5.04395 19.8525 5.04395C19.5332 5.04395 19.2744 5.30274 19.2744 5.62197C19.2744 5.94121 19.5332 6.2 19.8525 6.2Z" fill="black" fill-opacity="0.25"/>
<path d="M21.9794 9.16873C22.2987 9.16873 22.5575 8.90994 22.5575 8.5907C22.5575 8.27147 22.2987 8.01268 21.9794 8.01268C21.6602 8.01268 21.4014 8.27147 21.4014 8.5907C21.4014 8.90994 21.6602 9.16873 21.9794 9.16873Z" fill="black" fill-opacity="0.25"/>
</g>
<defs>
<clipPath id="clip0_202_8296">
<rect width="40.0006" height="28" fill="white"/>
</clipPath>
</defs>
</svg>
