<svg width="37" height="34" viewBox="0 0 37 34" fill="none" xmlns="http://www.w3.org/2000/svg">
<g clip-path="url(#clip0_202_8825)">
<path d="M29.6039 11.3711C29.2304 11.2425 28.8434 11.1209 28.445 11.0059C28.5105 10.7386 28.5706 10.4748 28.624 10.2155C29.5013 5.95719 28.9277 2.52669 26.9691 1.39722C25.0911 0.314217 22.0197 1.44343 18.9177 4.14297C18.6194 4.40255 18.3203 4.67739 18.0213 4.96543C17.8221 4.77486 17.6232 4.59069 17.4248 4.41454C14.1738 1.52801 10.9153 0.311589 8.9586 1.44432C7.08235 2.53047 6.52672 5.75546 7.31637 9.79106C7.39262 10.1809 7.48176 10.5789 7.58255 10.9836C7.12137 11.1146 6.67615 11.2541 6.25015 11.4026C2.43876 12.7314 0.00463867 14.814 0.00463867 16.9742C0.00463867 19.2052 2.61767 21.443 6.58753 22.7999C6.90081 22.907 7.22589 23.0082 7.56089 23.1044C7.45215 23.5421 7.35757 23.971 7.27818 24.3894C6.52524 28.355 7.11324 31.5038 8.98449 32.5831C10.9173 33.6977 14.1611 32.552 17.3198 29.7909C17.5695 29.5727 17.82 29.3412 18.071 29.0986C18.3964 29.4119 18.7212 29.7084 19.0443 29.9865C22.1038 32.6193 25.1256 33.6825 26.9951 32.6002C28.926 31.4824 29.5536 28.0998 28.7389 23.9844C28.6766 23.67 28.6042 23.3489 28.5229 23.0221C28.7507 22.9548 28.9743 22.8853 29.1924 22.813C33.3195 21.4456 36.0046 19.235 36.0046 16.9742C36.0046 14.8062 33.492 12.7096 29.6039 11.3711ZM28.7087 21.3532C28.5119 21.4184 28.3099 21.4813 28.1041 21.5424C27.6485 20.1 27.0336 18.5663 26.2811 16.9817C26.9992 15.4348 27.5903 13.9207 28.0331 12.4877C28.4014 12.5942 28.7588 12.7066 29.1033 12.8252C32.4346 13.9721 34.4667 15.6677 34.4667 16.9742C34.4667 18.3659 32.2721 20.1725 28.7087 21.3532ZM27.2302 24.283C27.5904 26.1028 27.6419 27.7481 27.4032 29.0343C27.1888 30.1901 26.7576 30.9606 26.2245 31.2692C25.09 31.9259 22.6638 31.0723 20.0472 28.8207C19.7473 28.5626 19.4451 28.287 19.142 27.9953C20.1564 26.8859 21.1702 25.5961 22.1597 24.1638C23.9 24.0093 25.5442 23.7569 27.0353 23.4122C27.1087 23.7084 27.174 23.999 27.2302 24.283ZM12.2779 31.1558C11.1694 31.5472 10.2866 31.5584 9.75293 31.2507C8.61737 30.5958 8.1453 28.0676 8.78924 24.6762C8.86299 24.2878 8.95078 23.8889 9.05196 23.4811C10.5267 23.8072 12.1589 24.0418 13.9034 24.1833C14.8995 25.5849 15.9426 26.8732 16.9937 28.0012C16.7641 28.223 16.5353 28.434 16.3078 28.6329C14.9111 29.8538 13.5114 30.7201 12.2779 31.1558ZM7.08491 21.3447C5.32952 20.7447 3.87985 19.9649 2.88617 19.114C1.99328 18.3493 1.54248 17.5902 1.54248 16.9742C1.54248 15.6633 3.49684 13.9913 6.75638 12.8548C7.15188 12.7169 7.56589 12.587 7.99555 12.4649C8.44603 13.9303 9.03697 15.4624 9.75011 17.0116C9.02774 18.5839 8.4284 20.1404 7.9735 21.6229C7.6672 21.5349 7.37045 21.4422 7.08491 21.3447ZM8.82563 9.49572C8.14908 6.03812 8.59841 3.42983 9.72909 2.77532C10.9335 2.07807 13.5967 3.0722 16.4036 5.56457C16.583 5.72387 16.7632 5.89061 16.9438 6.06311C15.8978 7.18623 14.8643 8.46487 13.877 9.85822C12.1839 10.0152 10.5632 10.2672 9.07311 10.6048C8.97942 10.228 8.89644 9.85771 8.82563 9.49572ZM24.3544 13.3302C23.9982 12.7149 23.6325 12.1141 23.2597 11.5298C24.4083 11.675 25.5088 11.8678 26.5423 12.1036C26.232 13.098 25.8453 14.1377 25.3901 15.2035C25.0635 14.5836 24.7181 13.9585 24.3544 13.3302ZM18.0218 7.1622C18.7312 7.93071 19.4416 8.78873 20.1403 9.71968C19.4362 9.68642 18.7234 9.66912 18.0046 9.66912C17.2927 9.66912 16.5851 9.68604 15.8854 9.71872C16.5848 8.79642 17.3014 7.93955 18.0218 7.1622ZM11.6487 13.3408C11.2928 13.9578 10.9538 14.5795 10.6324 15.2024C10.1846 14.1403 9.80143 13.0958 9.48847 12.0874C10.5156 11.8575 11.6109 11.6696 12.7522 11.5271C12.3742 12.1168 12.0055 12.722 11.6487 13.3407V13.3408ZM12.7851 22.531C11.6059 22.3994 10.4941 22.2211 9.46726 21.9976C9.78522 20.9711 10.1768 19.9044 10.6341 18.8194C10.9564 19.4418 11.2967 20.0638 11.6547 20.6821H11.6548C12.0195 21.3121 12.3973 21.9292 12.7851 22.531ZM18.0644 26.8946C17.3355 26.1081 16.6084 25.2382 15.8983 24.3024C16.5876 24.3295 17.2904 24.3433 18.0046 24.3433C18.7384 24.3433 19.4638 24.3268 20.1778 24.295C19.4767 25.2476 18.7689 26.1189 18.0644 26.8946ZM25.4047 18.7641C25.8859 19.8608 26.2915 20.922 26.6136 21.931C25.5698 22.1691 24.4428 22.3609 23.2554 22.5034C23.6292 21.9112 23.9981 21.3001 24.3606 20.6716C24.7273 20.0356 25.0755 19.3988 25.4047 18.7641ZM23.0284 19.9033C22.4657 20.879 21.8879 21.8105 21.3014 22.6897C20.2331 22.7661 19.1295 22.8054 18.0046 22.8054C16.8843 22.8054 15.7946 22.7706 14.7452 22.7025C14.1351 21.8117 13.5448 20.8775 12.9856 19.9117H12.9857C12.4281 18.9484 11.9148 17.977 11.4497 17.0111C11.9146 16.0429 12.4266 15.0704 12.9811 14.1089L12.9809 14.1091C13.5369 13.1451 14.122 12.2154 14.7265 11.3302C15.7972 11.2493 16.895 11.207 18.0046 11.207H18.0046C19.1192 11.207 20.2185 11.2496 21.2888 11.3312C21.8841 12.2099 22.4652 13.1366 23.0233 14.1008C23.5878 15.0758 24.1064 16.0418 24.5753 16.9892C24.1078 17.9529 23.5904 18.9287 23.0284 19.9033ZM26.2009 2.72957C27.4065 3.42476 27.8753 6.2285 27.1178 9.90506C27.0695 10.1397 27.0151 10.3786 26.956 10.6208C25.4625 10.2761 23.8406 10.0197 22.1426 9.8604C21.1534 8.45174 20.1283 7.17111 19.0994 6.06241C19.376 5.79628 19.6523 5.54253 19.9273 5.30306C22.5851 2.99011 25.0691 2.07692 26.2009 2.72957ZM18.0046 13.7595C19.78 13.7595 21.2193 15.1987 21.2193 16.9742C21.2193 18.7496 19.78 20.1889 18.0046 20.1889C16.2293 20.1889 14.79 18.7496 14.79 16.9742C14.79 15.1987 16.2293 13.7595 18.0046 13.7595Z" fill="#00D8FF"/>
</g>
<defs>
<clipPath id="clip0_202_8825">
<rect width="37" height="34" fill="white"/>
</clipPath>
</defs>
</svg>
