<svg width="37" height="37" viewBox="0 0 37 37" fill="none" xmlns="http://www.w3.org/2000/svg">
<g clip-path="url(#clip0_202_10859)">
<path d="M18.002 36.0018C27.9431 36.0018 36.002 27.9429 36.002 18.0018C36.002 8.06065 27.9431 0.00177002 18.002 0.00177002C8.06083 0.00177002 0.00195312 8.06065 0.00195312 18.0018C0.00195312 27.9429 8.06083 36.0018 18.002 36.0018Z" fill="white"/>
<path d="M10.4056 11.5492C10.3193 11.5679 10.2494 11.6132 10.1895 11.6948C10.1276 11.7833 10.1057 11.9291 10.1375 12.0253C10.1643 12.1095 10.3107 12.28 10.4712 12.396C10.3115 12.6043 10.0044 13.0239 9.85602 13.2389C8.77735 14.8015 8.14494 16.2311 8.06463 17.2618C8.02121 17.819 8.12944 18.2086 8.38593 18.5115C8.57564 18.7347 8.7977 18.8616 9.15544 18.9377C9.44893 19.0001 9.89814 18.9971 10.3514 18.9279C10.0665 19.3367 9.65949 19.9635 9.44975 20.3203C9.10341 20.9129 8.74871 21.6702 8.61541 22.1036C8.38065 22.859 8.35054 23.4794 8.50692 24.0713C8.60244 24.435 8.75642 24.7269 8.96566 24.951C9.17873 25.1793 9.44965 25.3387 9.78091 25.4285C10.3236 25.5753 11.1203 25.5336 12.1263 25.2967C12.3383 25.2473 12.6637 25.1565 12.9064 25.0845C12.69 25.8414 12.7142 26.5326 12.957 27.0285C13.0355 27.1879 13.255 27.4568 13.3863 27.5558C14.1709 28.1415 15.8206 28.1196 18.0342 27.4254C18.2115 27.3701 18.712 27.1971 18.9613 27.1065C19.1316 27.334 19.2904 27.4236 19.6586 27.4679C19.8981 27.4939 20.0947 27.4555 20.2808 27.3483C20.3659 27.299 20.416 27.2505 20.4445 27.2053C20.4909 27.1316 20.4996 27.0558 20.4674 26.9651C20.4366 26.8802 20.3922 26.8296 20.3125 26.7938C20.2667 26.7732 20.1996 26.7584 20.0907 26.7503C20.0057 26.7446 19.9758 26.7412 19.9305 26.7091L19.9446 26.6973C20.3321 26.5334 21.1689 26.1154 21.6852 25.8276C23.5737 24.7742 25.5915 23.2895 26.9353 21.9638C28.153 20.7639 29.3331 19.2664 29.5768 18.625C29.6507 18.4327 29.671 18.2328 29.6398 18.0772C29.6134 17.9557 29.5989 17.9226 29.4816 17.7829C29.3576 17.6351 29.3317 17.6212 29.2173 17.5759C28.8365 17.4261 28.2483 17.5912 27.0892 18.2991C25.6064 19.2044 23.4059 20.8854 21.8555 22.2993C20.3283 23.6906 19.325 24.9066 18.9529 25.7987C18.9082 25.9063 18.9095 25.9564 18.8862 25.9691C18.8623 25.9824 18.656 26.0628 18.4292 26.152C17.1791 26.6372 16.09 26.9155 15.2763 26.9512C15.0519 26.9614 14.6936 26.9372 14.5166 26.899C14.3682 26.8674 14.1859 26.7954 14.1168 26.7298C14.0308 26.6498 13.9971 26.5155 13.9912 26.3465C13.9838 26.1333 14.0267 25.8672 14.1167 25.5578C14.1782 25.3487 14.3944 24.8084 14.5022 24.5983L14.7553 24.462C16.1189 23.9462 17.6621 23.1995 19.1074 22.3563C21.0596 21.2173 23.3066 19.638 25.3185 17.9866C26.5173 17.0026 27.162 16.382 27.773 15.627C28.2501 15.0376 28.6366 14.3736 28.7245 14.0036C28.7882 13.7408 28.7798 13.5052 28.7101 13.3067C28.6367 13.0974 28.496 12.926 28.2894 12.8049C27.7516 12.4897 26.777 12.614 25.4598 13.2079C24.2141 13.7696 22.6568 14.7378 20.8977 16.0647C19.8465 16.8556 18.3748 18.0798 17.5971 18.8083C15.6124 20.67 14.2528 22.289 13.4988 23.6828L13.4476 23.7779C12.7806 24.0289 11.7505 24.32 11.2345 24.4078C10.8044 24.4798 10.3893 24.499 10.1454 24.451C9.99449 24.4216 9.8796 24.3736 9.79528 24.2869C9.70773 24.1969 9.65455 24.0694 9.61562 23.8993C9.55618 23.633 9.57389 23.1952 9.65326 22.8711C9.89869 21.8718 10.708 20.4369 11.9432 18.7907L12.2113 18.4346L12.4879 18.3275C14.3183 17.6247 16.5907 16.3604 18.606 14.9216C19.7231 14.1235 20.9241 13.1329 21.7402 12.335C22.3887 11.7012 22.907 11.1171 23.3075 10.571C23.6603 10.0878 23.8822 9.67962 23.9821 9.33303C24.0934 8.94663 24.0586 8.62962 23.8987 8.36165C23.7764 8.15687 23.5909 8.01923 23.3557 7.95503C23.1407 7.89635 22.8809 7.90048 22.5899 7.97837C21.7451 8.20711 20.4861 8.9628 18.6866 10.3346C18.2391 10.6775 16.7633 11.9158 16.3226 12.3182C14.4841 14.0041 12.8553 15.7268 11.4757 17.4421L11.215 17.7669L11.0686 17.8104C10.6439 17.9356 10.1563 18.0281 9.81098 18.0489C9.60894 18.061 9.3415 18.0329 9.22509 17.98C9.16358 17.9527 9.1538 17.9454 9.11792 17.8965C9.05483 17.8095 9.04001 17.7262 9.03496 17.5596C9.00896 16.832 9.51287 15.6013 10.3494 14.2965C10.6682 13.7997 11.0354 13.2902 11.4264 12.8014L11.6155 12.5649C12.2151 12.3789 12.8102 12.0012 13.7062 11.2494C14.7353 10.3836 15.7415 9.29388 16.021 8.91858C16.3474 8.48023 16.4724 8.04444 16.4179 7.87266C16.3811 7.76288 16.3092 7.67162 16.2197 7.60989C16.126 7.54523 16.0141 7.51373 15.9069 7.52498C15.7489 7.54105 15.3868 7.73457 14.9055 8.08451C14.5649 8.33111 13.6194 9.11114 13.2055 9.4868C12.4507 10.1702 11.9526 10.671 11.3302 11.3694L11.1337 11.5893C10.9645 11.6246 10.8066 11.6106 10.6695 11.5699C10.5597 11.5382 10.4749 11.5343 10.4056 11.5492ZM17.9234 12.4786C18.4471 12.0241 18.6679 11.841 19.387 11.2613C20.2556 10.5625 21.2112 9.8994 21.9118 9.50877C22.2551 9.31688 22.5765 9.16519 22.8269 9.11503C22.7691 9.23613 22.6803 9.3883 22.5844 9.53317C22.118 10.2324 21.4081 11.0279 20.3432 12.0455C20.0219 12.3539 18.4177 13.6976 18.0175 13.9969C16.6685 15.002 15.4243 15.8031 14.1452 16.487C13.9823 16.5738 13.7874 16.6743 13.5996 16.7692C14.9259 15.2689 16.4244 13.7819 17.9234 12.4786ZM24.6239 15.0078C25.9755 14.1912 27.1296 13.7133 27.6769 13.6875C27.6644 13.7336 27.645 13.7904 27.6233 13.8406C27.4098 14.3455 26.8098 15.0809 25.9538 15.9004C25.6015 16.237 24.2251 17.3851 23.5839 17.878C20.5129 20.2317 17.9922 21.8172 15.5412 22.9283C15.9707 22.3474 16.5741 21.6328 17.1448 21.0339C18.2171 19.9081 19.5319 18.7167 20.8462 17.6806C22.3079 16.5273 23.4762 15.7018 24.6239 15.0078ZM25.4396 20.9187C26.4431 20.1336 27.34 19.5046 28.0022 19.1177C27.9393 19.2025 27.8745 19.2875 27.8134 19.3649C26.7567 20.7042 25.4936 21.9051 23.9165 23.0655C22.991 23.746 22.0322 24.3672 21.1001 24.8882C21.6369 24.2708 22.3166 23.595 23.242 22.7561C23.483 22.5367 25.1202 21.1673 25.4396 20.9187Z" fill="#1B1A22"/>
<path d="M18.0169 23.893C21.2498 23.893 23.8706 21.2672 23.8706 18.0281C23.8706 14.7891 21.2498 12.1633 18.0169 12.1633C14.7841 12.1633 12.1633 14.7891 12.1633 18.0281C12.1633 21.2672 14.7841 23.893 18.0169 23.893Z" fill="url(#paint0_radial_202_10859)"/>
<path d="M29.2171 17.5817C29.3315 17.627 29.3575 17.6409 29.4815 17.7887C29.5988 17.9285 29.6133 17.9615 29.6397 18.0831C29.6709 18.2387 29.6506 18.4385 29.5767 18.6308C29.333 19.2723 28.1529 20.7697 26.9352 21.9697C25.5914 23.2953 23.5735 24.78 21.6851 25.8335C21.1687 26.1212 20.332 26.5393 19.9445 26.7031L19.9304 26.7149L18.9612 27.1123C18.8636 27.1478 18.7276 27.1958 18.5875 27.2445L18.4939 27.277C18.3071 27.3415 18.1266 27.4024 18.0341 27.4313C15.8205 28.1255 14.1708 28.1474 13.3861 27.5616L14.1167 26.7357C14.1858 26.8012 14.3681 26.8732 14.5165 26.9048C14.6935 26.943 15.0518 26.9673 15.2762 26.957C16.0898 26.9213 17.179 26.643 18.4291 26.1579C18.6558 26.0687 18.8622 25.9882 18.886 25.9749L21.1 24.8941C22.032 24.3731 22.9908 23.7518 23.9164 23.0713C25.4935 21.911 26.7566 20.71 27.8133 19.3708C27.8744 19.2934 27.9392 19.2083 28.0021 19.1236L29.2171 17.5817ZM28.2893 12.8108C28.4958 12.9319 28.6366 13.1033 28.71 13.3125C28.7796 13.5111 28.7881 13.7466 28.7244 14.0095C28.6364 14.3795 28.25 15.0434 27.7729 15.6328C27.1618 16.3879 26.5172 17.0084 25.3184 17.9925C23.3065 19.6438 21.0595 21.2231 19.1073 22.3622C17.662 23.2053 16.1188 23.952 14.7552 24.4678L14.5021 24.6042L12.9063 25.0904C12.6636 25.1624 12.3382 25.2531 12.1262 25.3025C11.1202 25.5395 10.3235 25.5812 9.78078 25.4344C9.44953 25.3446 9.1786 25.1851 8.96553 24.9569C8.7563 24.7327 8.60231 24.4408 8.50681 24.0772L9.6155 23.9051C9.65442 24.0752 9.70761 24.2027 9.79515 24.2928C9.87948 24.3794 9.99437 24.4274 10.1453 24.4568C10.3892 24.5048 10.8042 24.4856 11.2344 24.4136C11.7503 24.3259 12.7804 24.0347 13.4475 23.7838L15.541 22.9342C17.9921 21.823 20.5127 20.2376 23.5838 17.8838C24.225 17.3909 25.6013 16.2428 25.9537 15.9063C26.8097 15.0868 27.4097 14.3513 27.6232 13.8465C27.6449 13.7962 27.6643 13.7394 27.6768 13.6934L28.2893 12.8108ZM23.3556 7.96088C23.5865 8.02055 23.7763 8.1627 23.8985 8.3675C24.0584 8.63547 24.0933 8.95247 23.9819 9.33889C23.882 9.68547 23.6601 10.0936 23.3074 10.5768C22.9069 11.123 22.3885 11.7071 21.7401 12.3408C20.924 13.1388 19.723 14.1294 18.6059 14.9275C16.5906 16.3662 14.3181 17.6306 12.4878 18.3334L12.2111 18.4404L11.2365 18.7347L10.3513 18.9338C9.89803 19.003 9.4488 19.0059 9.15533 18.9435C8.79758 18.8674 8.57551 18.7405 8.38579 18.5173C8.12932 18.2144 8.0211 17.8248 8.06451 17.2677L9.03483 17.5654C9.03989 17.732 9.05471 17.8154 9.11781 17.9024C9.15369 17.9512 9.16345 17.9586 9.22496 17.9858C9.34138 18.0387 9.60883 18.0668 9.81085 18.0548C9.94597 18.0466 10.1679 18.0083 10.3881 17.9647L10.4612 17.95C10.7528 17.8907 11.0235 17.8269 11.0635 17.8174L11.0685 17.8162L13.5995 16.775L13.6051 16.7721C13.653 16.7477 13.9938 16.5735 14.1451 16.4929C15.4242 15.8089 16.6684 15.0078 18.0174 14.0027C18.4176 13.7035 20.0217 12.3597 20.3431 12.0514C21.4079 11.0338 22.1179 10.2383 22.5843 9.53901C22.6801 9.39415 22.7375 9.24398 22.8267 9.12086L23.3556 7.96088Z" fill="#1B1A22"/>
</g>
<defs>
<radialGradient id="paint0_radial_202_10859" cx="0" cy="0" r="1" gradientTransform="matrix(4.33552 6.1013 -6.12477 4.33552 -3.66009 22.2858)" gradientUnits="userSpaceOnUse">
<stop stop-color="white" stop-opacity="0.904382"/>
<stop offset="1" stop-color="#FF6D6D"/>
</radialGradient>
<clipPath id="clip0_202_10859">
<rect width="37" height="37" fill="white"/>
</clipPath>
</defs>
</svg>
