<svg width="36" height="36" viewBox="0 0 36 36" fill="none" xmlns="http://www.w3.org/2000/svg">
<g clip-path="url(#clip0_202_13214)">
<path d="M2.34792 22.7593C0.502675 12.9487 5.37935 3.48705 16.5722 2.22837C15.0287 0.579099 12.9201 0.566706 11.9499 0.76733C10.237 1.31325 10.2907 2.42172 8.3477 3.85354C6.41604 4.95682 5.44589 4.11191 4.03876 5.25566C2.63463 6.39086 3.61439 8.99688 3.0255 9.50353C2.44093 10.5168 0.627597 11.4194 0.29751 12.6993C0.024711 14.336 1.03797 15.5051 0.998994 16.9081C1.11591 18.0772 -0.164923 18.7383 0.0190991 19.6859C0.570309 21.2339 1.63275 22.1656 2.13361 22.5951C2.24846 22.676 2.36976 22.8754 2.34792 22.7593Z" fill="#FF0090"/>
<path d="M22.2645 9.17883C21.8556 9.17883 21.5241 8.84728 21.5241 8.43837C21.5241 8.02947 21.8556 7.69792 22.2645 7.69792C22.6734 7.69792 23.005 8.02947 23.005 8.43837C23.005 8.84728 22.6734 9.17883 22.2645 9.17883ZM2.78016 23.8294C1.00689 15.303 6.49414 8.17859 17.1203 11.686C23.3555 15.3336 31.1991 15.0961 31.5527 12.7382C32.4257 9.91158 27.5776 4.0866 20.329 2.56672C5.94855 -0.239216 -1.80405 15.303 2.78016 23.8294Z" fill="url(#paint0_radial_202_13214)"/>
<path d="M26.3693 24.7803C28.5046 25.0116 30.5315 24.4992 32.4098 22.9681C29.5721 26.1334 26.0238 27.7248 21.9526 28.1579C23.8965 29.8105 25.7711 30.5549 27.5644 30.2363C22.5813 31.6114 18.4063 30.0978 13.3276 25.0402C13.0617 26.4017 14.4997 28.523 15.9818 29.8771C7.3821 26.1488 6.62816 14.5346 17.1147 11.6778C6.24416 6.45504 0.0974989 16.6028 3.11744 24.9199C6.07226 31.3258 13.9462 36.2572 22.5761 35.1727C26.768 34.6593 33.0276 31.7692 35.5848 24.9199C33.7825 26.5373 30.5609 27.9459 29.1233 28.0539C33.9889 25.6222 36.6155 21.4903 35.8783 15.8429C34.8704 18.2424 33.5406 20.0852 31.8772 21.3508C35.4106 15.8429 34.8043 12.9961 32.189 9.86731C34.0596 15.0115 31.6398 20.7209 26.3693 24.7803Z" fill="url(#paint1_radial_202_13214)"/>
<path d="M23.8721 30.7067C23.5029 30.6377 24.709 31.1953 22.3771 30.578C20.0453 29.9607 17.671 29.3658 13.3274 25.0402C13.0614 26.4017 14.4994 28.523 15.9816 29.8771C19.9826 32.6675 17.2616 31.3624 23.3579 33.4699C23.8471 32.4961 23.8721 31.6308 23.8721 30.7067Z" fill="url(#paint2_linear_202_13214)"/>
<path d="M16.1209 8.79516C16.1209 8.79516 16.6509 8.01285 16.8572 7.66002C17.11 7.22765 17.4983 6.43958 17.4983 6.43958C17.4983 6.43958 13.4185 5.10852 12.4173 4.94611C9.30489 5.75403 9.29357 7.05798 11.0336 9.05385C11.2272 9.27599 16.1209 8.79516 16.1209 8.79516Z" fill="url(#paint3_linear_202_13214)"/>
</g>
<defs>
<radialGradient id="paint0_radial_202_13214" cx="0" cy="0" r="1" gradientUnits="userSpaceOnUse" gradientTransform="translate(25.2427 10.4064) scale(27.1332 19.4096)">
<stop stop-color="#F80090"/>
<stop offset="1" stop-color="#4D008E"/>
</radialGradient>
<radialGradient id="paint1_radial_202_13214" cx="0" cy="0" r="1" gradientUnits="userSpaceOnUse" gradientTransform="translate(25.4813 10.9869) scale(27.5024 20.8044)">
<stop stop-color="#57008E"/>
<stop offset="0.291746" stop-color="#5C008E"/>
<stop offset="1" stop-color="#F80090"/>
</radialGradient>
<linearGradient id="paint2_linear_202_13214" x1="15.2244" y1="25.0402" x2="20.0859" y2="33.216" gradientUnits="userSpaceOnUse">
<stop stop-color="#F70090"/>
<stop offset="0.669713" stop-color="#E50090"/>
<stop offset="0.827148" stop-color="#D6008F" stop-opacity="0.2"/>
<stop offset="1" stop-color="#C10090" stop-opacity="0"/>
</linearGradient>
<linearGradient id="paint3_linear_202_13214" x1="14.8204" y1="7.92749" x2="14.1149" y2="6.57627" gradientUnits="userSpaceOnUse">
<stop stop-color="#B2008F" stop-opacity="0.15134"/>
<stop offset="0.400351" stop-color="#F70090" stop-opacity="0.4"/>
<stop offset="0.648996" stop-color="#F60090" stop-opacity="0.891668"/>
<stop offset="1" stop-color="#FF0090"/>
</linearGradient>
<clipPath id="clip0_202_13214">
<rect width="36.001" height="36" fill="white"/>
</clipPath>
</defs>
</svg>
