<svg width="41" height="22" viewBox="0 0 41 22" fill="none" xmlns="http://www.w3.org/2000/svg">
<g clip-path="url(#clip0_202_11033)">
<path d="M12.2044 14.5749C14.2072 14.5749 15.8308 12.9513 15.8308 10.9485C15.8308 8.94573 14.2072 7.32214 12.2044 7.32214C10.2016 7.32214 8.57802 8.94573 8.57802 10.9485C8.57802 12.9513 10.2016 14.5749 12.2044 14.5749ZM3.63297 21.8276C5.63576 21.8276 7.25934 20.2041 7.25934 18.2013C7.25934 16.1985 5.63576 14.5749 3.63297 14.5749C1.63017 14.5749 0.0065918 16.1985 0.0065918 18.2013C0.0065918 20.2041 1.63017 21.8276 3.63297 21.8276ZM36.3802 21.8276C38.383 21.8276 40.0066 20.2041 40.0066 18.2013C40.0066 16.1985 38.383 14.5749 36.3802 14.5749C34.3774 14.5749 32.7538 16.1985 32.7538 18.2013C32.7538 20.2041 34.3774 21.8276 36.3802 21.8276Z" fill="black"/>
<path d="M24.4699 11.1015C24.354 9.88997 24.295 8.88156 23.3668 8.17283C22.1914 7.27526 20.8599 7.85766 19.2198 7.26567C17.6082 6.8758 16.4128 5.44493 16.4128 3.73944C16.4128 1.734 18.0656 0.108276 20.1045 0.108276C21.6145 0.108276 22.9128 1.00007 23.4846 2.27742C24.3599 3.93986 23.791 5.63172 24.8907 6.48392C26.1928 7.49299 27.9482 6.75404 29.9069 7.71011C30.5363 7.99932 31.069 8.45804 31.4444 9.02655C31.8198 9.59506 32.0378 10.2734 32.0378 11.0018C32.0378 12.7073 30.8425 14.1381 29.2309 14.528C27.5908 15.12 26.2593 14.5376 25.0839 15.4352C23.7621 16.4445 24.4697 18.1331 23.3924 19.9168C22.781 21.0913 21.5382 21.8952 20.1045 21.8952C18.0656 21.8952 16.4128 20.2695 16.4128 18.2641C16.4128 16.8073 17.285 15.5509 18.5438 14.9724C20.5025 14.0164 22.2579 14.7553 23.56 13.7462C24.3111 13.1641 24.4699 12.2661 24.4699 11.1015Z" fill="#D0021B"/>
</g>
<defs>
<clipPath id="clip0_202_11033">
<rect width="41" height="22" fill="white"/>
</clipPath>
</defs>
</svg>
