<svg width="37" height="37" viewBox="0 0 37 37" fill="none" xmlns="http://www.w3.org/2000/svg">
<g clip-path="url(#clip0_202_15341)">
<mask id="mask0_202_15341" style="mask-type:alpha" maskUnits="userSpaceOnUse" x="0" y="0" width="37" height="37">
<path d="M18.0037 36.0032C27.9448 36.0032 36.0037 27.9443 36.0037 18.0032C36.0037 8.06205 27.9448 0.00317383 18.0037 0.00317383C8.06254 0.00317383 0.00366211 8.06205 0.00366211 18.0032C0.00366211 27.9443 8.06254 36.0032 18.0037 36.0032Z" fill="white"/>
</mask>
<g mask="url(#mask0_202_15341)">
<path d="M18.0037 36.0032C27.9448 36.0032 36.0037 27.9443 36.0037 18.0032C36.0037 8.06205 27.9448 0.00317383 18.0037 0.00317383C8.06254 0.00317383 0.00366211 8.06205 0.00366211 18.0032C0.00366211 27.9443 8.06254 36.0032 18.0037 36.0032Z" fill="white"/>
<path d="M25.8208 1.61765C23.4531 0.492284 20.8043 -0.137451 18.0084 -0.137451C13.131 -0.137451 8.70121 1.77899 5.43094 4.89993C1.9541 8.21801 31.9747 4.54268 25.8208 1.61765Z" fill="#FCC397"/>
<path d="M32.2633 6.71474C32.2841 6.74075 30.7772 8.75479 26.2483 9.32657C17.1069 10.4807 1.41265 10.6027 1.43631 10.5507C2.40717 8.41738 3.77736 6.50418 5.45138 4.90661C7.42378 5.52244 9.57066 5.6759 11.6014 5.30167C14.9544 4.68825 17.9376 2.7508 21.2543 1.96125C22.7265 1.60758 24.3304 1.50427 25.8409 1.62426C28.351 2.81729 30.545 4.56738 32.2633 6.71474Z" fill="#FC9F95"/>
<path d="M35.9983 15.2389C36.0098 15.3123 15.3845 17.2511 5.33529 16.686C2.06116 16.5019 0.128908 14.5223 0.151067 14.4142C0.42722 13.0673 0.851998 11.7746 1.40751 10.554C4.31076 8.96487 7.72642 8.04778 11.0385 8.08397C15.1919 8.12649 19.2665 9.51125 23.4199 9.408C26.5045 9.32955 29.6135 8.34507 32.2344 6.71802C34.166 9.13195 35.4963 12.0479 35.9983 15.2389Z" fill="#F77C88"/>
<path d="M36.1628 17.9905C36.1628 18.0915 36.1603 18.2928 36.1603 18.2928C36.1603 18.2928 30.4316 19.7378 23.0538 19.6515C12.72 19.5308 -0.277846 17.864 -0.277588 17.8334C-0.267377 16.6245 -0.139429 15.4436 0.0953512 14.3018C2.57117 15.8294 5.57371 16.5776 8.46364 16.2627C10.7617 16.0136 12.9445 15.1634 15.0727 14.2584C17.201 13.3535 19.3171 12.3817 21.5666 11.8594C24.8712 11.0941 28.4062 11.3613 31.5652 12.6064C33.102 13.2125 34.6269 14.0838 35.9402 15.1344C36.0867 16.065 36.1628 17.0189 36.1628 17.9905Z" fill="#F25192"/>
<path d="M15.4997 23.9118C10.0331 24.9213 0.651836 23.7569 0.628195 23.685C0.0403775 21.8949 -0.277588 19.9825 -0.277588 17.9958C-0.277588 17.9433 -0.277366 17.8909 -0.276924 17.8385C0.552946 17.1805 1.52229 16.5937 2.46857 16.1378C4.80905 15.002 7.46481 14.5283 10.0539 14.7834C12.6126 15.0385 15.0562 15.9859 17.4209 17.0063C19.4132 17.8659 21.3926 18.7945 23.4605 19.4362C23.6631 19.4991 21.5172 22.8006 15.4997 23.9118Z" fill="#D34CA3"/>
<path d="M35.5281 22.9043C35.1463 23.5489 31.516 25.7206 26.5948 26.0925C20.079 26.585 12.3815 24.6154 14.9349 23.613C18.9549 22.0339 22.4414 19.1976 26.5948 18.0133C29.6976 17.1244 33.137 17.265 36.1829 18.339C36.1573 19.9177 35.9309 21.4476 35.5281 22.9043Z" fill="#9A50A5"/>
<path d="M33.8368 27.0837C30.6906 32.546 7.87201 33.9158 4.53854 30.2415C2.84169 28.3711 1.52821 26.1466 0.722168 23.6919C3.52439 22.0903 6.80469 21.41 9.95766 21.8413C14.0383 22.4 17.6946 24.6776 21.7207 25.5643C24.9706 26.281 28.4146 26.0563 31.5434 24.9266C32.9577 24.412 34.3601 23.7223 35.6002 22.8697C35.1882 24.3597 34.5917 25.7731 33.8368 27.0837Z" fill="#59569E"/>
<path d="M33.7618 27.0073C30.6222 32.4947 24.7108 36.1925 17.9357 36.1925C12.5828 36.1925 7.76908 33.8842 4.43555 30.2087C4.98874 30.4202 5.60745 30.603 6.17453 30.7628C9.34569 31.6374 12.7594 31.6131 15.9123 30.6838C17.9315 30.0886 19.8293 29.1412 21.812 28.4245C25.5955 27.0602 29.7598 26.5797 33.7618 27.0073Z" fill="#39477F"/>
</g>
</g>
<defs>
<clipPath id="clip0_202_15341">
<rect width="37" height="37" fill="white"/>
</clipPath>
</defs>
</svg>
