<svg width="32" height="41" viewBox="0 0 32 41" fill="none" xmlns="http://www.w3.org/2000/svg">
<g clip-path="url(#clip0_202_13709)">
<path d="M8.36868 0.00671387C8.36868 0.00671387 0.853027 0.00671387 0.853027 7.52236V33.8264C0.853027 33.8264 8.36868 33.9766 8.36868 26.4238V13.159V11.6558V9.40092C8.36868 8.36316 9.20995 7.52236 10.2472 7.52236H12.2765H15.809C23.099 7.52236 23.2493 0.00671387 23.2493 0.00671387H8.36868Z" fill="#27CCF5"/>
<path d="M23.6311 13.5902V26.8545V28.3578V30.6126C23.6311 31.6504 22.7898 32.4912 21.7525 32.4912H19.7233H16.1913C8.90119 32.4912 8.75049 40.0068 8.75049 40.0068H23.6311C23.6311 40.0068 31.1467 40.0068 31.1467 32.4912V6.18711C31.1467 6.18711 23.6311 6.03688 23.6311 13.5902Z" fill="#22E071"/>
</g>
<defs>
<clipPath id="clip0_202_13709">
<rect width="32" height="41" fill="white"/>
</clipPath>
</defs>
</svg>
