<svg width="37" height="37" viewBox="0 0 37 37" fill="none" xmlns="http://www.w3.org/2000/svg">
<g clip-path="url(#clip0_202_16165)">
<path d="M36.0049 0.0045166H0.00488281V36.0045H36.0049V0.0045166Z" fill="#DD4B39"/>
<path d="M21.2857 32.7242H17.2288L15.2297 28.9221H12.5643V32.7242H8.97778V18.9856H15.1513C18.7967 18.9856 20.8741 20.7495 20.8741 23.8069C20.8741 25.8843 20.0118 27.413 18.4243 28.2361L21.2857 32.7242ZM12.5643 21.847V26.0607H15.1709C16.6212 26.0607 17.464 25.3159 17.464 23.9244C17.464 22.5721 16.6212 21.847 15.1709 21.847H12.5643ZM23.1672 18.9856H34.0052V21.847H26.7537V24.4144H33.2997V27.2562L26.7537 27.2758V29.8628H34.2012V32.7242H23.1672V18.9856Z" fill="white"/>
</g>
<defs>
<clipPath id="clip0_202_16165">
<rect width="37" height="37" fill="white"/>
</clipPath>
</defs>
</svg>
