<svg width="37" height="36" viewBox="0 0 37 36" fill="none" xmlns="http://www.w3.org/2000/svg">
<g clip-path="url(#clip0_202_14598)">
<path d="M36.0018 17.9751C36.001 17.717 35.995 17.4602 35.9835 17.2047V2.63705L31.9561 6.66441C28.6599 2.62977 23.6456 0.0527954 18.0292 0.0527954C12.1843 0.0527954 6.99168 2.84268 3.70923 7.16327L10.3106 13.834C10.9575 12.6376 11.8765 11.6099 12.9846 10.8338C14.1371 9.93443 15.7701 9.19908 18.029 9.19908C18.3018 9.19908 18.5125 9.23096 18.6672 9.29104C21.466 9.51194 23.892 11.0565 25.3204 13.2983L20.6477 17.9711C26.5663 17.9478 33.2525 17.9342 36.0013 17.9741" fill="#1C3AA9"/>
<path d="M17.9243 0.0542603C17.6661 0.0551174 17.4094 0.0610746 17.1539 0.0726461H2.58621L6.61356 4.1C2.57893 7.39616 0.00195312 12.4105 0.00195312 18.0269C0.00195312 23.8718 2.79188 29.0644 7.11242 32.3469L13.7832 25.7456C12.5867 25.0986 11.5591 24.1796 10.7829 23.0715C9.88362 21.919 9.14824 20.286 9.14824 18.0271C9.14824 17.7543 9.18012 17.5436 9.2402 17.3889C9.4611 14.5901 11.0057 12.1641 13.2475 10.7357L17.9202 15.4084C17.897 9.48983 17.8833 2.80365 17.9232 0.0547744" fill="#4285F4"/>
<path d="M0.00268555 18.0257C0.00354269 18.2838 0.00949991 18.5406 0.0210714 18.7961V33.3638L4.04842 29.3364C7.34459 33.371 12.3589 35.948 17.9754 35.948C23.8203 35.948 29.0129 33.1581 32.2953 28.8375L25.694 22.1668C25.047 23.3632 24.128 24.3909 23.0199 25.167C21.8674 26.0664 20.2345 26.8017 17.9756 26.8017C17.7027 26.8017 17.4921 26.7698 17.3373 26.7098C14.5385 26.4889 12.1126 24.9443 10.6841 22.7025L15.3569 18.0297C9.43826 18.053 2.75207 18.0666 0.00320053 18.0267" fill="#ABABAB"/>
</g>
<defs>
<clipPath id="clip0_202_14598">
<rect width="37" height="36" fill="white"/>
</clipPath>
</defs>
</svg>
