<svg width="37" height="37" viewBox="0 0 37 37" fill="none" xmlns="http://www.w3.org/2000/svg">
<g clip-path="url(#clip0_202_12578)">
<path d="M18.0034 36.0044C27.9445 36.0044 36.0034 27.9455 36.0034 18.0044C36.0034 8.06327 27.9445 0.00439453 18.0034 0.00439453C8.06229 0.00439453 0.00341797 8.06327 0.00341797 18.0044C0.00341797 27.9455 8.06229 36.0044 18.0034 36.0044Z" fill="#FF4500"/>
<path d="M29.9777 18.176C29.9777 16.7168 28.7977 15.558 27.3597 15.558C26.6517 15.558 26.0077 15.8368 25.5357 16.2876C23.7333 15 21.2653 14.1632 18.5185 14.056L19.7201 8.43363L23.6257 9.27043C23.6689 10.2576 24.4841 11.0516 25.4929 11.0516C26.5229 11.0516 27.3597 10.2148 27.3597 9.18443C27.3597 8.15443 26.5229 7.31763 25.4929 7.31763C24.7633 7.31763 24.1193 7.74683 23.8189 8.36923L19.4629 7.44643C19.3341 7.42483 19.2053 7.44643 19.1193 7.51083C19.0121 7.57523 18.9477 7.68243 18.9265 7.81123L17.5957 14.0772C14.8061 14.1632 12.2953 15 10.4713 16.3092C9.9993 15.8584 9.3553 15.5796 8.6473 15.5796C7.1881 15.5796 6.0293 16.7596 6.0293 18.1976C6.0293 19.2704 6.6729 20.1716 7.5745 20.5796C7.5313 20.8368 7.5101 21.0944 7.5101 21.3736C7.5101 25.4076 12.2097 28.6912 18.0037 28.6912C23.7977 28.6912 28.4973 25.4292 28.4973 21.3736C28.4973 21.116 28.4757 20.8368 28.4329 20.5796C29.3341 20.1716 29.9777 19.2488 29.9777 18.176ZM11.9949 20.0428C11.9949 19.0128 12.8317 18.176 13.8621 18.176C14.8921 18.176 15.7289 19.0128 15.7289 20.0428C15.7289 21.0728 14.8921 21.91 13.8621 21.91C12.8317 21.9312 11.9949 21.0728 11.9949 20.0428ZM22.4457 25C21.1581 26.2876 18.7117 26.3736 18.0037 26.3736C17.2741 26.3736 14.8277 26.266 13.5613 25C13.3685 24.8068 13.3685 24.5064 13.5613 24.3132C13.7545 24.1204 14.0549 24.1204 14.2481 24.3132C15.0637 25.1288 16.7805 25.4076 18.0037 25.4076C19.2269 25.4076 20.9649 25.1288 21.7589 24.3132C21.9521 24.1204 22.2525 24.1204 22.4457 24.3132C22.6173 24.5064 22.6173 24.8068 22.4457 25ZM22.1021 21.9312C21.0721 21.9312 20.2353 21.0944 20.2353 20.0644C20.2353 19.0344 21.0721 18.1976 22.1021 18.1976C23.1325 18.1976 23.9693 19.0344 23.9693 20.0644C23.9693 21.0728 23.1325 21.9312 22.1021 21.9312Z" fill="white"/>
</g>
<defs>
<clipPath id="clip0_202_12578">
<rect width="37" height="37" fill="white"/>
</clipPath>
</defs>
</svg>
