<svg width="36" height="28" viewBox="0 0 36 28" fill="none" xmlns="http://www.w3.org/2000/svg">
<g clip-path="url(#clip0_202_15007)">
<path d="M24.0137 16.0826C26.3797 16.0826 29.8029 15.5946 29.8029 12.7805C29.8099 12.5633 29.7902 12.346 29.7442 12.1337L28.3352 6.01356C28.0099 4.66699 27.7244 4.05612 25.3603 2.87408C23.5258 1.93602 19.5296 0.387085 18.3475 0.387085C17.2468 0.387085 16.9272 1.80552 15.6147 1.80552C14.3513 1.80552 13.4133 0.746423 12.2312 0.746423C11.0965 0.746423 10.357 1.51995 9.78583 3.11049C9.78583 3.11049 8.19529 7.59654 7.99103 8.24713C7.95857 8.3666 7.94454 8.49033 7.94942 8.61403C7.94942 10.3578 14.8147 16.075 24.0137 16.075V16.0826ZM30.166 13.9228C30.4932 15.4717 30.4932 15.6344 30.4932 15.8386C30.4932 18.4864 27.5163 19.9559 23.6033 19.9559C14.7598 19.9616 7.01325 14.7795 7.01325 11.3545C7.01274 10.8777 7.10994 10.4059 7.29883 9.96817C4.11775 10.127 0.000488281 10.6944 0.000488281 14.3294C0.000488281 20.2831 14.1073 27.6211 25.2771 27.6211C33.8407 27.6211 36.0005 23.7478 36.0005 20.6897C36.0005 18.284 33.9201 15.553 30.1698 13.9228" fill="#EE0000"/>
<path d="M30.1659 13.9227C30.4931 15.4717 30.4931 15.6343 30.4931 15.8386C30.4931 18.4863 27.5163 19.9558 23.6033 19.9558C14.7598 19.9615 7.01319 14.7795 7.01319 11.3544C7.01268 10.8776 7.10987 10.4058 7.29877 9.96811L7.99097 8.25464C7.95926 8.37167 7.94523 8.49279 7.94936 8.61398C7.94936 10.3577 14.8146 16.075 24.0137 16.075C26.3796 16.075 29.8028 15.587 29.8028 12.7728C29.8099 12.5557 29.7902 12.3384 29.7442 12.126L30.1659 13.9227Z" fill="black"/>
</g>
<defs>
<clipPath id="clip0_202_15007">
<rect width="36.0005" height="28" fill="white"/>
</clipPath>
</defs>
</svg>
