<svg width="37" height="32" viewBox="0 0 37 32" fill="none" xmlns="http://www.w3.org/2000/svg">
<g clip-path="url(#clip0_202_15138)">
<path d="M34.5936 24.3093C32.6725 25.3108 22.7202 29.4028 20.6013 30.5073C18.4826 31.6121 17.3055 31.6014 15.6317 30.8012C13.958 30.001 3.36688 25.7229 1.4591 24.8111C0.505494 24.3553 0.00415039 23.9707 0.00415039 23.6073V19.9685C0.00415039 19.9685 13.7923 16.9668 16.0183 16.1683C18.2442 15.3697 19.0165 15.3408 20.9108 16.0347C22.8052 16.7287 34.132 18.7723 36.0042 19.458C36.0042 19.458 36.0033 22.708 36.0033 23.0454C36.0036 23.4051 35.5716 23.7997 34.5936 24.3093Z" fill="#912626"/>
<path d="M34.593 20.6921C32.6719 21.693 22.7199 25.7852 20.6011 26.8897C18.4824 27.9946 17.3054 27.9838 15.6317 27.1836C13.9578 26.384 3.36722 22.1052 1.4595 21.1938C-0.448218 20.2819 -0.488296 19.6543 1.38581 18.9205C3.25978 18.1864 13.7923 14.0542 16.0185 13.2555C18.2443 12.4572 19.0165 12.4281 20.9107 13.1222C22.8051 13.8161 32.6978 17.7537 34.5698 18.4393C36.4422 19.1257 36.514 19.6907 34.593 20.6921Z" fill="#C6302B"/>
<path d="M34.5936 18.4216C32.6725 19.423 22.7202 23.5151 20.6013 24.62C18.4826 25.7243 17.3055 25.7137 15.6317 24.9135C13.9578 24.1137 3.36688 19.8352 1.4591 18.9234C0.505494 18.4676 0.00415039 18.0834 0.00415039 17.72V14.0808C0.00415039 14.0808 13.7923 11.0792 16.0183 10.2806C18.2442 9.48207 19.0165 9.4531 20.9108 10.147C22.8052 10.841 34.132 12.8842 36.0042 13.57C36.0042 13.57 36.0033 16.82 36.0033 17.1578C36.0036 17.5173 35.5716 17.912 34.5936 18.4216Z" fill="#912626"/>
<path d="M34.593 14.8042C32.6719 15.8054 22.7199 19.8973 20.6011 21.0022C18.4824 22.1067 17.3054 22.0959 15.6317 21.2957C13.9578 20.4961 3.36722 16.2175 1.4595 15.3059C-0.448218 14.3943 -0.488296 13.7665 1.38581 13.0325C3.25978 12.2988 13.7923 8.16627 16.0185 7.3678C18.2443 6.56933 19.0165 6.54036 20.9107 7.23435C22.8051 7.92819 32.6978 11.8655 34.5698 12.5514C36.4422 13.2375 36.514 13.8028 34.593 14.804V14.8042Z" fill="#C6302B"/>
<path d="M34.5936 12.3154C32.6725 13.3168 22.7202 17.409 20.6013 18.5139C18.4826 19.6184 17.3055 19.6076 15.6317 18.8074C13.9578 18.0076 3.36688 13.729 1.4591 12.8174C0.505494 12.3615 0.00415039 11.9772 0.00415039 11.6141V7.97472C0.00415039 7.97472 13.7923 4.97327 16.0183 4.17478C18.2442 3.37614 19.0165 3.34731 20.9108 4.04118C22.8052 4.73518 34.132 6.77839 36.0042 7.46424C36.0042 7.46424 36.0033 10.7142 36.0033 11.0518C36.0036 11.4111 35.5716 11.8057 34.5936 12.3154Z" fill="#912626"/>
<path d="M34.593 8.69806C32.6719 9.69931 22.7199 13.7915 20.6011 14.8961C18.4824 16.0006 17.3054 15.9897 15.6317 15.1899C13.958 14.39 3.36722 10.1116 1.4595 9.19995C-0.448218 8.28828 -0.488296 7.66039 1.38581 6.92647C3.25978 6.19269 13.7923 2.06057 16.0185 1.26182C18.2443 0.463208 19.0165 0.434521 20.9107 1.1285C22.8051 1.82249 32.6978 5.75984 34.5698 6.44567C36.4422 7.13136 36.514 7.69681 34.593 8.69806Z" fill="#C6302B"/>
<path d="M22.4033 5.15817L19.3083 5.47952L18.6154 7.14668L17.4961 5.28626L13.9222 4.96505L16.589 4.00338L15.7889 2.5271L18.2856 3.50356L20.6395 2.73291L20.0033 4.25943L22.4033 5.15817Z" fill="white"/>
<path d="M18.4305 13.2466L12.6541 10.8508L20.9314 9.58032L18.4305 13.2466Z" fill="white"/>
<path d="M10.4219 6.08484C12.8653 6.08484 14.846 6.8527 14.846 7.79972C14.846 8.74689 12.8653 9.51461 10.4219 9.51461C7.97864 9.51461 5.9978 8.74689 5.9978 7.79972C5.9978 6.8527 7.97864 6.08484 10.4219 6.08484Z" fill="white"/>
<path d="M26.0612 5.61389L30.9599 7.5498L26.0653 9.48375L26.0612 5.61389Z" fill="#621B1C"/>
<path d="M20.6416 7.75771L26.0613 5.61389L26.0655 9.48375L25.5341 9.69166L20.6416 7.75771Z" fill="#9A2928"/>
</g>
<defs>
<clipPath id="clip0_202_15138">
<rect width="37" height="32" fill="white"/>
</clipPath>
</defs>
</svg>
