<svg width="30" height="41" viewBox="0 0 30 41" fill="none" xmlns="http://www.w3.org/2000/svg">
<g clip-path="url(#clip0_202_15298)">
<path d="M0.0941162 37.7247C0.0941162 38.9837 1.11467 40.004 2.37345 40.004C3.63222 40.004 4.65278 38.9837 4.65278 37.7247V22.8442L4.54735 22.8059L0.132208 25.4132L0.0941162 25.5363V37.7247Z" fill="#EE3A43"/>
<path d="M0.0941162 9.68867V25.5356L4.65278 22.8436V10.9932L4.65441 10.9455L0.463152 8.52075L0.408635 8.53625C0.206761 8.88024 0.0941162 9.27618 0.0941162 9.68867Z" fill="#CF3239"/>
<path d="M13.8313 0.315185L1.2191 7.72292C0.877907 7.9234 0.602295 8.20588 0.408691 8.53601L4.65283 10.993L14.9988 4.91636L15.086 4.77483V0.0987498L14.9988 0.00322924C14.5943 0.000433519 14.1921 0.103409 13.8313 0.315185Z" fill="#AF272B"/>
<path d="M28.6943 7.52146L16.12 0.303714C15.7733 0.104868 15.3846 0.00585306 14.9984 0.00317383V4.91631L25.2871 10.822L25.3537 10.8397L29.6535 8.70137L29.6727 8.64942C29.4847 8.1816 29.1456 7.78053 28.6943 7.52146Z" fill="#7A1313"/>
<path d="M29.9151 23.7703L29.8391 9.48651C29.8376 9.19471 29.7783 8.91199 29.6729 8.64966L25.2875 10.8223L25.2885 22.4886L25.3053 22.5741L29.297 25.2341L29.3952 25.2249C29.7267 24.8204 29.9179 24.3096 29.9151 23.7703Z" fill="#AF272B"/>
<path d="M29.395 25.2237L25.2883 22.4875L13.9262 29.1459C13.9177 29.1509 19.5902 31.2017 19.5902 31.2017L28.7794 25.7488C29.0113 25.6112 29.2291 25.4261 29.395 25.2237Z" fill="#CF3239"/>
<path d="M26.751 39.9876C26.3786 39.9876 26.001 39.8964 25.652 39.7036L13.8354 33.1853C12.7332 32.5772 12.3325 31.1909 12.9406 30.0887C13.5483 28.9863 14.9354 28.5848 16.0373 29.1938L27.8539 35.7122C28.9562 36.3202 29.3568 37.7066 28.7487 38.8088C28.3334 39.562 27.5543 39.9876 26.751 39.9876Z" fill="#EE3A43"/>
<path d="M14.9448 16.7779L19.7119 13.9682L19.7401 13.8844C19.5081 13.5382 19.2021 13.24 18.8288 13.0245L16.3363 11.5855C15.4787 11.0903 14.4222 11.0903 13.5647 11.5855L11.0721 13.0245C10.7034 13.2374 10.4004 13.531 10.1693 13.8717L10.1903 13.9682L14.9448 16.7779Z" fill="#CF3239"/>
<path d="M18.8288 20.703C19.3102 20.425 19.6826 20.0121 19.9213 19.5304L19.8932 19.4438L15.0423 16.6692L14.9404 16.6815L14.7992 16.6896L10.0023 19.5161L10.0079 19.5879C10.2476 20.0448 10.6098 20.4361 11.072 20.703L13.5647 22.1421C14.4221 22.6371 15.4787 22.6371 16.3363 22.1421L18.8288 20.703Z" fill="#7A1313"/>
<path d="M10.1685 13.8723C9.86228 14.3239 9.68591 14.8607 9.68591 15.425V18.3031C9.68591 18.7605 9.80298 19.1997 10.0088 19.591L14.9401 16.6819L10.1685 13.8723Z" fill="#AF272B"/>
<path d="M19.921 19.5294C20.1072 19.1533 20.214 18.7362 20.214 18.3021V15.424C20.214 14.865 20.0407 14.3331 19.7398 13.884L14.9398 16.681L19.921 19.5294Z" fill="#EE3A43"/>
</g>
<defs>
<clipPath id="clip0_202_15298">
<rect width="30" height="41" fill="white"/>
</clipPath>
</defs>
</svg>
