<svg width="41" height="26" viewBox="0 0 41 26" fill="none" xmlns="http://www.w3.org/2000/svg">
<g clip-path="url(#clip0_202_13163)">
<path d="M20.3352 15.8426C20.3352 16.667 19.722 17.3477 18.9269 17.4546C17.9843 19.6518 16.0645 21.7954 13.4342 23.314C11.2266 24.5885 8.88722 25.2105 6.7888 25.2105C4.12006 25.2105 1.84091 24.205 0.716406 22.2573C-1.10984 19.0941 0.66961 14.6806 4.88719 11.6982C4.88734 12.3795 4.94064 13.0042 5.05999 13.5585C4.71966 13.8454 4.41037 14.0911 4.10854 14.4076C3.33189 15.2217 2.711 16.0653 2.28619 16.9661C1.49382 18.6461 1.44027 20.2342 2.13531 21.4381C2.9183 22.7942 4.61445 23.5721 6.7888 23.5721C8.67285 23.5721 10.742 22.9765 12.615 21.8951C13.7057 21.2655 14.6755 20.5092 15.4975 19.6474C16.2742 18.8332 16.8833 17.9636 17.3082 17.0628C17.3452 16.9844 17.3801 16.9062 17.4138 16.8282C17.2052 16.5546 17.081 16.2132 17.081 15.8426C17.081 14.944 17.8095 14.2156 18.7081 14.2156C19.6067 14.2156 20.3352 14.944 20.3352 15.8426ZM13.074 0.792664C16.7067 0.792664 19.7174 4.63126 20.2607 9.64807C19.694 9.30754 19.1008 9.02374 18.4796 8.79954C18.4056 8.4118 18.3137 8.03098 18.2043 7.65809C17.8875 6.57839 17.4391 5.61604 16.8714 4.79771C15.8126 3.27155 14.464 2.43106 13.074 2.43106C11.6839 2.43106 10.3353 3.27155 9.27658 4.79771C8.70888 5.61604 8.26042 6.57839 7.9436 7.65809C7.60829 8.80092 7.43825 10.0189 7.43825 11.2783C7.43825 12.5376 7.60829 13.7556 7.9436 14.8984C8.26042 15.9781 8.70888 16.9405 9.27658 17.7588C9.33541 17.8436 9.39516 17.9261 9.45573 18.0066C9.5527 17.9886 9.65254 17.9787 9.75469 17.9787C10.6533 17.9787 11.3818 18.7072 11.3818 19.6058C11.3818 20.5044 10.6533 21.2328 9.75469 21.2328C8.85613 21.2328 8.12766 20.5044 8.12766 19.6058C8.12766 19.4218 8.15864 19.2451 8.21495 19.0802C6.73262 17.1606 5.79986 14.3767 5.79986 11.2783C5.79986 5.48722 9.05658 0.792664 13.074 0.792664ZM19.3436 23.5718C21.3388 23.5718 22.9313 22.9168 23.7851 21.761C24.2816 22.0234 24.8334 22.183 25.4158 22.2639C24.2849 24.19 21.997 25.2102 19.3436 25.2102C17.7027 25.2102 15.915 24.83 14.1578 24.055C14.8416 23.6774 15.4474 23.3125 15.8961 22.9732C17.0575 23.3647 18.2327 23.5718 19.3436 23.5718ZM22.0355 14.3812C21.2134 13.5194 20.2436 12.7631 19.153 12.1335C17.28 11.052 15.211 10.4565 13.3273 10.4565H13.3271C12.9154 10.4565 12.5209 10.4844 12.1464 10.5388C12.1369 10.5402 12.1277 10.542 12.1182 10.5434C11.9481 11.2602 11.3043 11.7936 10.5355 11.7936C9.63689 11.7936 8.90847 11.0651 8.90847 10.1666C8.90847 9.26799 9.63689 8.53952 10.5355 8.53952C10.9574 8.53952 11.3418 8.70013 11.6309 8.96355C11.6331 8.96314 11.6353 8.96263 11.6375 8.96222C12.1766 8.86643 12.7424 8.81814 13.3268 8.81809C15.4254 8.81799 17.7643 9.43981 19.9722 10.7146C23.6047 12.8118 25.8848 16.1011 26.1027 19.0774C25.4429 19.0031 24.8847 18.7842 24.3715 18.5011C24.2683 18.0042 24.0931 17.4894 23.8462 16.9658C23.4213 16.065 22.8121 15.1954 22.0355 14.3812Z" fill="#999999"/>
<path d="M38.6345 11.9099C39.3553 12.9953 37.8876 13.8443 37.2303 12.7529C36.8296 12.069 36.215 11.4293 35.4094 10.8704C34.5911 10.3027 33.6286 9.85423 32.549 9.53746C31.4062 9.2021 30.1882 9.03207 28.9289 9.03207C27.6695 9.03207 26.4515 9.2021 25.3087 9.53746C25.112 9.59516 24.9197 9.65773 24.731 9.72414C24.7077 10.6023 23.9889 11.3072 23.105 11.3072C22.2065 11.3072 21.478 10.5788 21.478 9.68016C21.478 8.78155 22.2065 8.05308 23.105 8.05308C23.4041 8.05308 23.684 8.13413 23.9247 8.27482C25.4121 7.71337 27.1164 7.39368 28.9289 7.39368C33.3127 7.39368 37.0682 9.26006 38.6345 11.9099ZM40.0024 15.8426C40.0024 16.6585 39.4019 17.3339 38.6189 17.4514C37.0436 20.0876 33.2985 21.9419 28.9289 21.9419C25.5165 21.9419 22.485 20.8112 20.5702 19.0604C19.644 18.1293 20.7589 17.0475 21.6227 17.8033C21.8702 18.034 22.1457 18.2553 22.4483 18.4652C23.2666 19.0329 24.229 19.4814 25.3087 19.7982C26.4515 20.1335 27.6695 20.3035 28.9289 20.3035C30.1882 20.3035 31.4062 20.1335 32.549 19.7982C33.6287 19.4814 34.5911 19.0329 35.4094 18.4652C36.1194 17.9726 36.6804 17.4173 37.078 16.8243C36.8712 16.5514 36.7483 16.2114 36.7483 15.8426C36.7483 14.944 37.4768 14.2156 38.3754 14.2156C39.274 14.2156 40.0024 14.944 40.0024 15.8426Z" fill="#89D96D"/>
</g>
<defs>
<clipPath id="clip0_202_13163">
<rect width="41" height="26" fill="white"/>
</clipPath>
</defs>
</svg>
