<svg width="37" height="36" viewBox="0 0 37 36" fill="none" xmlns="http://www.w3.org/2000/svg">
<g clip-path="url(#clip0_202_11292)">
<path d="M3.42472 12.5194C3.17255 12.4634 2.87835 12.3513 2.66821 12.2112C3.00444 12.5194 4.36334 14.6489 4.57348 15.0832C4.61551 14.6489 4.1532 13.2619 3.42472 12.5194Z" fill="url(#paint0_linear_202_11292)"/>
<path d="M4.78355 17.465C4.78355 17.465 5.21784 15.4617 4.92364 14.1588C4.62945 12.856 3.88695 11.4831 3.88695 11.4691C3.88695 11.4691 3.957 12.1555 3.71884 12.2396C3.48068 12.3236 2.7522 11.7492 2.7522 11.7492C2.7522 11.7492 3.77488 12.856 4.19516 13.8226C4.5594 14.6492 4.65746 15.1395 4.50336 16.1622C4.34926 17.1849 4.32124 17.1568 4.32124 17.1568L4.78355 17.465Z" fill="url(#paint1_linear_202_11292)"/>
<path d="M2.06847 9.9004C1.92837 10.1105 1.8163 10.3207 1.71823 10.5448C1.22791 11.4694 0.807629 12.4221 0.471405 13.4167C-1.41985 19.4127 2.68488 31.1946 8.61082 31.0265C9.28327 31.0124 9.89968 31.5588 9.70355 32.4554C9.6335 32.7916 9.59147 33.1279 9.56345 33.4781C9.4794 33.9404 9.6335 34.4027 9.95571 34.7389C10.404 35.2152 11.0204 35.6355 11.7769 35.5655C12.2532 35.5234 12.4073 35.4114 12.8136 35.1172C13.1498 34.879 13.416 34.5708 13.7522 34.3186C13.7803 34.2906 13.8223 34.2766 13.8503 34.2486C12.8697 33.5061 13.0378 32.5675 13.4861 31.0545C13.3039 30.9004 13.1498 30.7463 12.9957 30.5782C12.8276 30.396 12.6875 30.1999 12.5334 30.0038C12.4073 29.8497 12.2392 29.7096 12.1272 29.5555C11.819 29.1072 11.833 28.4768 11.833 27.9304C11.847 27.356 11.945 26.7676 11.833 26.2073C11.7349 25.7309 11.5528 25.2686 11.3286 24.8343C10.8943 23.9798 10.2919 23.2233 9.56345 22.6069C8.82096 21.9764 8.07846 21.346 7.34998 20.6876C6.76159 20.1552 6.25725 19.6509 5.93504 18.9084C5.71089 18.4041 5.52877 17.8857 5.38868 17.3534C5.2766 16.9331 5.20655 16.4988 5.06646 16.0925C4.95439 15.7843 4.81429 15.4761 4.64618 15.1819C4.38 14.6916 4.15586 14.1592 3.86166 13.6829C3.55345 13.1506 3.1752 12.5762 2.64285 12.2119C2.81096 12.0158 2.88101 11.7636 2.85299 11.4975C2.83898 11.3153 2.79695 10.9651 2.55879 10.9371C2.61483 10.755 2.67087 10.5588 2.69889 10.3767C2.75492 10.1806 2.69889 9.97045 2.53077 9.84437C2.39068 9.81635 2.25059 9.80234 2.1105 9.81635C2.1105 9.84437 2.08248 9.87239 2.06847 9.9004ZM12.5054 33.38C12.6875 33.5481 12.7015 33.8423 12.5474 34.0245C12.4214 34.2346 12.1552 34.2906 11.945 34.1645C11.945 34.1645 11.931 34.1645 11.931 34.1505C11.7489 33.9824 11.7349 33.6882 11.889 33.5061C12.0151 33.296 12.2813 33.2399 12.4914 33.366C12.4914 33.38 12.4914 33.38 12.5054 33.38Z" fill="url(#paint2_radial_202_11292)"/>
<path d="M13.9877 34.193C14.548 33.9548 15.1504 34.0249 15.6968 34.137C16.1731 34.235 16.6354 34.3751 17.0977 34.5432C17.7982 33.7727 17.1818 32.68 16.5654 32.3578C15.949 32.0356 15.2205 31.8955 14.52 31.6993C14.1838 31.6013 13.8756 31.3491 13.6094 31.139C13.1751 32.624 13.021 33.4925 13.9877 34.193Z" fill="url(#paint3_radial_202_11292)"/>
<path d="M2.121 22.4535C2.09299 22.0332 2.48525 22.2434 2.77944 22.4535C2.40119 22.1173 1.8128 21.5149 2.03695 21.1507C2.20506 20.8985 2.45723 21.0106 2.66737 21.1787C2.38718 20.8425 2.10699 20.3801 2.24709 20.0439C1.77077 19.6376 1.28044 19.3294 1.01427 19.4415C0.7621 19.5536 1.19639 20.184 1.75676 20.8284C1.3645 20.5062 1.00026 20.3101 0.818137 20.4922C0.537951 20.7864 1.37851 21.7811 2.121 22.5516C2.13501 22.5236 2.121 22.4955 2.121 22.4535Z" fill="url(#paint4_radial_202_11292)"/>
<path d="M1.21136 18.1231C0.959195 18.3893 1.60362 19.2439 2.29008 20.0004C2.43017 19.7903 2.68234 19.9584 2.9205 20.1825C2.55626 19.7062 2.164 19.0898 2.44418 18.9077C2.45819 18.8937 2.4722 18.8937 2.50022 18.8797C1.98188 18.3473 1.43551 17.885 1.21136 18.1231Z" fill="url(#paint5_radial_202_11292)"/>
<path d="M2.38793 23.6714C2.3459 23.4753 2.40194 23.4053 2.50001 23.3772C2.66812 23.3772 2.83623 23.4193 2.97632 23.5173C2.73816 23.3772 2.28987 23.055 2.16378 22.6488C1.77152 22.3546 1.40728 22.1864 1.36525 22.5647C1.28119 23.3772 3.18646 24.8062 3.18646 24.8062L3.20047 24.7782C2.73816 24.2458 2.41595 23.8255 2.38793 23.6714Z" fill="url(#paint6_radial_202_11292)"/>
<path d="M2.45816 17.9834C2.40212 18.1655 2.6683 18.6138 2.94848 19.0201C2.78037 18.88 2.59825 18.8099 2.43014 18.922C2.14995 19.1041 2.54221 19.7205 2.90645 20.1969C2.65429 19.9587 2.3741 19.7906 2.24802 20.0708C2.10792 20.407 2.38811 20.8693 2.6683 21.2055C2.45816 21.0374 2.20599 20.9253 2.03788 21.1775C1.81373 21.5277 2.38811 22.1442 2.78037 22.4804C2.48617 22.2702 2.10792 22.0461 2.12193 22.4804C2.14995 22.9707 2.69631 23.377 2.9765 23.5451C2.83641 23.461 2.6683 23.405 2.50018 23.405C2.40212 23.419 2.34608 23.5031 2.38811 23.6992C2.5282 24.3296 7.29137 29.3449 8.14594 28.7986C9.02853 28.2242 8.17396 25.2962 6.22666 22.2422C5.42813 20.9814 3.06056 17.8433 2.55622 17.9273C2.50018 17.8993 2.47216 17.9414 2.45816 17.9834Z" fill="url(#paint7_radial_202_11292)"/>
<path d="M19.8997 32.3011C19.9697 32.5532 20.0257 32.8614 20.0117 33.1136C20.1098 32.6653 21.2726 30.4238 21.5387 30.0316C21.1465 30.2137 20.1798 31.2924 19.8997 32.3011Z" fill="url(#paint8_linear_202_11292)"/>
<path d="M23.5 28.6448C23.5 28.6448 21.5527 29.2753 20.5721 30.1719C19.5914 31.0684 18.7649 32.4133 18.7649 32.4133C18.7649 32.4133 19.3253 32.0071 19.5074 32.1752C19.6895 32.3433 19.5634 33.2539 19.5634 33.2539C19.5634 33.2539 20.0117 31.825 20.6421 30.9704C21.1745 30.2419 21.5527 29.9057 22.5194 29.5274C23.486 29.1492 23.472 29.1772 23.472 29.1772L23.5 28.6448Z" fill="url(#paint9_linear_202_11292)"/>
<path d="M18.3023 34.7817C18.5544 34.7957 18.7926 34.7957 19.0447 34.7677C20.0954 34.7397 21.1321 34.6136 22.1548 34.4035C28.2909 33.0306 36.4443 23.6023 33.3343 18.5449C32.984 17.9705 33.1521 17.158 34.0207 16.8778C34.3429 16.7657 34.6651 16.6397 34.9733 16.4996C35.4076 16.3315 35.7439 15.9812 35.8699 15.5329C36.0521 14.9025 36.1081 14.16 35.6738 13.5436C35.3936 13.1513 35.2255 13.0673 34.7632 12.8571C34.3849 12.689 33.9927 12.605 33.6144 12.4509C33.5724 12.4369 33.5444 12.4229 33.5024 12.3948C33.3483 13.6136 32.4517 13.9359 30.9246 14.3141C30.8826 14.5383 30.8266 14.7624 30.7565 14.9866C30.6725 15.2247 30.5884 15.4489 30.4904 15.673C30.4203 15.8551 30.3783 16.0653 30.2942 16.2474C30.0701 16.7377 29.5097 17.0459 29.0334 17.3121C28.5291 17.5923 27.9687 17.8024 27.5344 18.1667C27.1702 18.4889 26.8619 18.8671 26.5958 19.2874C26.0774 20.086 25.7272 20.9966 25.5451 21.9352C25.3629 22.9018 25.1948 23.8545 24.9847 24.8071C24.8166 25.5776 24.6205 26.2781 24.1581 26.9225C23.8359 27.3708 23.4717 27.7771 23.0934 28.1693C22.7852 28.4775 22.449 28.7577 22.1548 29.0799C21.9447 29.3321 21.7485 29.6123 21.5804 29.8925C21.2862 30.3688 20.95 30.8311 20.6698 31.3214C20.3616 31.8538 20.0534 32.4702 19.9974 33.1146C19.7452 33.0726 19.479 33.1286 19.2829 33.2967C19.1428 33.3948 18.8626 33.619 18.9467 33.8291C18.7646 33.8851 18.5684 33.9272 18.3863 33.9832C18.1902 34.0252 18.0361 34.1933 18.0081 34.3895C18.0501 34.5296 18.1061 34.6556 18.2042 34.7677C18.2322 34.7817 18.2742 34.7817 18.3023 34.7817ZM33.4183 14.0059C33.4743 13.7677 33.7125 13.5996 33.9647 13.6417C34.2028 13.6557 34.399 13.8518 34.385 14.09V14.104C34.3289 14.3421 34.0908 14.5102 33.8386 14.4682C33.6004 14.4542 33.4043 14.2581 33.4183 14.0199C33.4183 14.0199 33.4183 14.0199 33.4183 14.0059Z" fill="url(#paint10_radial_202_11292)"/>
<path d="M33.376 12.3102C32.8857 11.9459 32.6615 11.3856 32.4794 10.8672C32.3253 10.4049 32.2132 9.92859 32.1292 9.45227C31.1065 9.22812 30.4761 10.3068 30.5041 11.0073C30.5321 11.7078 30.7843 12.4082 30.9524 13.1087C31.0364 13.4449 30.9664 13.8372 30.9244 14.1734C32.4233 13.8092 33.2499 13.501 33.376 12.3102Z" fill="url(#paint11_radial_202_11292)"/>
<path d="M29.1456 28.4497C28.7814 28.6878 28.7814 28.2395 28.8094 27.8753C28.7113 28.3796 28.4732 29.1782 28.0529 29.1642C27.7447 29.1502 27.7167 28.884 27.7587 28.6038C27.6046 29.0101 27.3524 29.5004 26.9882 29.5284C26.8761 30.1448 26.8481 30.7332 27.0862 30.8873C27.3244 31.0414 27.6466 30.355 27.9128 29.5424C27.8287 30.0467 27.8428 30.453 28.0809 30.5231C28.4732 30.6211 28.9215 29.3883 29.2157 28.3656C29.2017 28.4217 29.1736 28.4357 29.1456 28.4497Z" fill="url(#paint12_radial_202_11292)"/>
<path d="M25.8533 31.4197C26.2035 31.5178 26.6238 30.5091 26.946 29.5565C26.7079 29.5425 26.7079 29.2343 26.7919 28.9261C26.5678 29.4865 26.2316 30.1309 25.9233 29.9768C25.9093 29.9628 25.8953 29.9628 25.8813 29.9488C25.6572 30.6492 25.5451 31.3357 25.8533 31.4197Z" fill="url(#paint13_radial_202_11292)"/>
<path d="M30.0697 27.6225C29.9296 27.7626 29.8315 27.7486 29.7615 27.6785C29.6774 27.5244 29.6354 27.3703 29.6354 27.1882C29.6354 27.4684 29.5793 28.0147 29.2992 28.3229C29.2431 28.8133 29.2711 29.2195 29.6214 29.0654C30.3639 28.7292 30.6581 26.3616 30.6581 26.3616H30.63C30.3919 27.0341 30.1817 27.5104 30.0697 27.6225Z" fill="url(#paint14_radial_202_11292)"/>
<path d="M25.0971 30.4092C25.2792 30.3672 25.5314 29.9049 25.7416 29.4566C25.6995 29.6667 25.7416 29.8628 25.9097 29.9469C26.2179 30.101 26.5541 29.4566 26.7782 28.8962C26.6942 29.2324 26.6942 29.5686 27.0024 29.5266C27.3666 29.4846 27.6188 29.0083 27.7729 28.602C27.7309 28.8682 27.7589 29.1484 28.0671 29.1624C28.4874 29.1764 28.7255 28.3778 28.8236 27.8735C28.7816 28.2377 28.7956 28.672 29.1598 28.4479C29.5801 28.1817 29.6502 27.5093 29.6502 27.1871C29.6502 27.3552 29.6922 27.5233 29.7762 27.6774C29.8463 27.7474 29.9303 27.7614 30.0844 27.6213C30.5608 27.1871 32.5221 20.5466 31.6255 20.0843C30.6868 19.608 28.5854 21.8215 26.9043 25.0296C26.2179 26.3605 24.6768 29.9749 24.9991 30.3672C25.0131 30.3952 25.0551 30.4232 25.0971 30.4092Z" fill="url(#paint15_radial_202_11292)"/>
<path d="M29.0186 8.1648C29.2007 7.98268 29.4388 7.77254 29.663 7.66046C29.2287 7.80055 26.707 7.91263 26.2307 7.88461C26.5809 8.13678 28.0099 8.43097 29.0186 8.1648Z" fill="url(#paint16_linear_202_11292)"/>
<path d="M24.0452 6.87552C24.0452 6.87552 25.5722 8.24843 26.833 8.6547C28.1079 9.06097 29.6769 9.103 29.6769 9.103C29.6769 9.103 29.0465 8.80881 29.0885 8.57065C29.1305 8.33249 29.9991 7.98226 29.9991 7.98226C29.9991 7.98226 28.5281 8.31848 27.4915 8.1924C26.5949 8.09433 26.1185 7.92622 25.306 7.28179C24.4935 6.63736 24.5215 6.62335 24.5215 6.62335L24.0452 6.87552Z" fill="url(#paint17_linear_202_11292)"/>
<path d="M31.9608 8.30481C31.8488 8.08066 31.7227 7.87052 31.5686 7.67439C31.0222 6.7778 30.3918 5.93724 29.7053 5.16672C25.4605 0.52964 13.2024 -1.82393 10.3865 3.40155C10.0643 4.00395 9.27975 4.25612 8.6073 3.63971C8.35514 3.41556 8.07495 3.20542 7.79476 3.00929C7.43052 2.71509 6.9542 2.60302 6.50591 2.71509C5.86148 2.8692 5.20304 3.19141 4.88083 3.87787C4.67069 4.31216 4.6987 4.50829 4.74073 4.99861C4.78276 5.40488 4.90884 5.79714 4.96488 6.20341V6.3295C6.09964 5.85318 6.82812 6.46959 7.92085 7.60435C8.13099 7.52029 8.35514 7.46425 8.57929 7.42222C8.81744 7.36619 9.06961 7.33817 9.30777 7.29614C9.5039 7.26812 9.70003 7.19808 9.89616 7.17006C10.4285 7.12803 10.9889 7.45024 11.4512 7.73043C11.9415 8.02462 12.4038 8.40288 12.9502 8.585C13.4125 8.7391 13.9028 8.82316 14.3932 8.83716C15.3458 8.87919 16.3124 8.7391 17.209 8.41689C18.1336 8.09467 19.0442 7.75845 19.9829 7.46425C20.7394 7.22609 21.4258 7.04397 22.2244 7.12803C22.7707 7.18407 23.3171 7.29614 23.8494 7.43623C24.2697 7.54831 24.676 7.70241 25.0963 7.78647C25.4185 7.8425 25.7547 7.88453 26.0909 7.88453C26.6513 7.89854 27.2117 7.96859 27.7861 7.96859C28.4025 7.96859 29.0889 7.92656 29.6773 7.64637C29.7614 7.88453 29.9435 8.08066 30.1957 8.17873C30.3498 8.24877 30.686 8.38887 30.8261 8.19274C30.9662 8.33283 31.0923 8.47292 31.2324 8.59901C31.3724 8.75311 31.5966 8.79514 31.7787 8.72509C31.8768 8.62703 31.9608 8.50094 32.0029 8.37486C31.9889 8.36085 31.9748 8.33283 31.9608 8.30481ZM6.42185 5.60101C6.18369 5.67106 5.93152 5.54498 5.83346 5.30682C5.72138 5.09668 5.80544 4.8305 6.01558 4.71843C6.01558 4.71843 6.02959 4.71843 6.02959 4.70442C6.26775 4.63437 6.51992 4.76045 6.61798 4.99861C6.73006 5.20875 6.646 5.47493 6.43586 5.587C6.42185 5.587 6.42185 5.60101 6.42185 5.60101Z" fill="url(#paint18_radial_202_11292)"/>
<path d="M4.96471 6.48343C4.88065 7.08583 4.53042 7.56215 4.16618 7.98243C3.84396 8.34667 3.49373 8.68289 3.11548 8.9911C3.43769 9.98576 4.68452 9.98576 5.27291 9.62152C5.8613 9.25728 6.35163 8.68289 6.86998 8.19257C7.12214 7.95441 7.50039 7.81432 7.8086 7.67422C6.72988 6.56749 6.05744 6.00711 4.96471 6.48343Z" fill="url(#paint19_radial_202_11292)"/>
<path d="M21.0611 2.0843C21.4393 2.28043 21.0611 2.50458 20.7249 2.65868C21.2152 2.49057 22.0277 2.29444 22.2239 2.67269C22.3639 2.93887 22.1398 3.10698 21.8876 3.20505C22.3079 3.135 22.8683 3.12099 23.0784 3.40118C23.6668 3.19104 24.1852 2.92486 24.2132 2.64467C24.2412 2.36449 23.4847 2.42053 22.6301 2.60265C23.1064 2.42053 23.4567 2.19638 23.3866 1.95822C23.2745 1.56596 21.9857 1.80411 20.949 2.05628C21.005 2.04227 21.0331 2.05628 21.0611 2.0843Z" fill="url(#paint20_radial_202_11292)"/>
<path d="M25.2785 3.44336C25.1805 3.09313 24.1017 3.23322 23.1211 3.42935C23.2332 3.6535 22.967 3.79359 22.6448 3.89166C23.2332 3.8076 23.9617 3.77959 23.9757 4.11581V4.17185C24.7041 4.00373 25.3626 3.76558 25.2785 3.44336Z" fill="url(#paint21_radial_202_11292)"/>
<path d="M19.8842 1.69284C20.0804 1.74888 20.1084 1.83293 20.0804 1.931C19.9963 2.07109 19.8702 2.19718 19.7161 2.28123C19.9683 2.14114 20.4586 1.91699 20.8789 2.01505C21.3272 1.81892 21.6634 1.58077 21.3552 1.37063C20.6828 0.8803 18.4973 1.81892 18.4973 1.81892L18.5113 1.84694C19.2118 1.72086 19.7301 1.65081 19.8842 1.69284Z" fill="url(#paint22_radial_202_11292)"/>
<path d="M24.774 4.60593C24.6479 4.46584 24.1155 4.47985 23.6252 4.52188C23.8213 4.45183 23.9754 4.32574 23.9754 4.12961C23.9614 3.79339 23.2329 3.82141 22.6445 3.90547C22.9808 3.8074 23.275 3.63929 23.0928 3.40113C22.8827 3.10693 22.3363 3.13495 21.9021 3.205C22.1542 3.10693 22.3784 2.93882 22.2383 2.67265C22.0421 2.29439 21.2296 2.50453 20.7393 2.65864C21.0755 2.51854 21.4538 2.28038 21.0755 2.08425C20.6272 1.8601 20.0248 2.12628 19.7306 2.29439C19.8847 2.21034 19.9968 2.09826 20.0949 1.94416C20.1229 1.8461 20.0808 1.76204 19.8987 1.706C19.2823 1.50987 12.5578 3.13495 12.6139 4.14362C12.6699 5.19432 15.6399 5.9088 19.2543 5.75469C20.7533 5.68465 24.6479 5.22234 24.83 4.73202C24.816 4.67598 24.802 4.63395 24.774 4.60593Z" fill="url(#paint23_radial_202_11292)"/>
</g>
<defs>
<linearGradient id="paint0_linear_202_11292" x1="4.07709" y1="12.9778" x2="2.95628" y2="13.6762" gradientUnits="userSpaceOnUse">
<stop stop-color="#B1278F"/>
<stop offset="0.48" stop-color="#AF278E"/>
<stop offset="0.65" stop-color="#A8258A"/>
<stop offset="0.76" stop-color="#9E2383"/>
</linearGradient>
<linearGradient id="paint1_linear_202_11292" x1="5.28642" y1="12.4637" x2="2.1524" y2="13.1002" gradientUnits="userSpaceOnUse">
<stop stop-color="#EC178D"/>
<stop offset="0.47" stop-color="#EA178D"/>
<stop offset="0.64" stop-color="#E3188C"/>
<stop offset="0.76" stop-color="#D81A8A"/>
<stop offset="0.86" stop-color="#C71D88"/>
<stop offset="0.95" stop-color="#B12085"/>
<stop offset="1" stop-color="#9E2383"/>
</linearGradient>
<radialGradient id="paint2_radial_202_11292" cx="0" cy="0" r="1" gradientUnits="userSpaceOnUse" gradientTransform="translate(7.88553 32.7092) scale(19.6216 36.5132)">
<stop stop-color="#EC178D"/>
<stop offset="0.24" stop-color="#CB1C8C"/>
<stop offset="0.77" stop-color="#772888"/>
<stop offset="1" stop-color="#512E87"/>
</radialGradient>
<radialGradient id="paint3_radial_202_11292" cx="0" cy="0" r="1" gradientUnits="userSpaceOnUse" gradientTransform="translate(14.8191 34.7923) scale(3.38343 2.78278)">
<stop stop-color="#BA258E"/>
<stop offset="0.23" stop-color="#B5258D"/>
<stop offset="0.51" stop-color="#A5278B"/>
<stop offset="0.83" stop-color="#8B2987"/>
<stop offset="1" stop-color="#7A2A85"/>
</radialGradient>
<radialGradient id="paint4_radial_202_11292" cx="0" cy="0" r="1" gradientUnits="userSpaceOnUse" gradientTransform="translate(0.403773 21.567) scale(2.32776 3.61696)">
<stop offset="0.09" stop-color="#E21A8D"/>
<stop offset="1" stop-color="#952584"/>
</radialGradient>
<radialGradient id="paint5_radial_202_11292" cx="0" cy="0" r="1" gradientUnits="userSpaceOnUse" gradientTransform="translate(1.24799 19.3804) scale(1.41582 1.70351)">
<stop offset="0.09" stop-color="#E21A8D"/>
<stop offset="1" stop-color="#952584"/>
</radialGradient>
<radialGradient id="paint6_radial_202_11292" cx="0" cy="0" r="1" gradientUnits="userSpaceOnUse" gradientTransform="translate(1.47598 23.8136) scale(1.55789 2.08534)">
<stop offset="0.09" stop-color="#E21A8D"/>
<stop offset="1" stop-color="#952584"/>
</radialGradient>
<radialGradient id="paint7_radial_202_11292" cx="0" cy="0" r="1" gradientUnits="userSpaceOnUse" gradientTransform="translate(3.42218 24.5238) scale(8.66342 14.5433)">
<stop stop-color="#E21A8D"/>
<stop offset="0.25" stop-color="#DF1A8D"/>
<stop offset="0.44" stop-color="#D51C8C"/>
<stop offset="0.6" stop-color="#C51E8A"/>
<stop offset="0.76" stop-color="#AF2187"/>
<stop offset="0.89" stop-color="#952584"/>
</radialGradient>
<linearGradient id="paint8_linear_202_11292" x1="19.9661" y1="31.4998" x2="21.3946" y2="31.5373" gradientUnits="userSpaceOnUse">
<stop stop-color="#B1278F"/>
<stop offset="0.48" stop-color="#AF278E"/>
<stop offset="0.65" stop-color="#A8258A"/>
<stop offset="0.76" stop-color="#9E2383"/>
</linearGradient>
<linearGradient id="paint9_linear_202_11292" x1="18.9158" y1="30.7098" x2="23.2836" y2="31.1373" gradientUnits="userSpaceOnUse">
<stop stop-color="#EC178D"/>
<stop offset="0.47" stop-color="#EA178D"/>
<stop offset="0.64" stop-color="#E3188C"/>
<stop offset="0.76" stop-color="#D81A8A"/>
<stop offset="0.86" stop-color="#C71D88"/>
<stop offset="0.95" stop-color="#B12085"/>
<stop offset="1" stop-color="#9E2383"/>
</linearGradient>
<radialGradient id="paint10_radial_202_11292" cx="0" cy="0" r="1" gradientUnits="userSpaceOnUse" gradientTransform="translate(35.1413 18.3417) scale(19.6216 24.4164)">
<stop stop-color="#EC178D"/>
<stop offset="0.24" stop-color="#CB1C8C"/>
<stop offset="0.77" stop-color="#772888"/>
<stop offset="1" stop-color="#512E87"/>
</radialGradient>
<radialGradient id="paint11_radial_202_11292" cx="0" cy="0" r="1" gradientUnits="userSpaceOnUse" gradientTransform="translate(33.4857 11.298) scale(3.38343 5.59574)">
<stop stop-color="#BA258E"/>
<stop offset="0.23" stop-color="#B5258D"/>
<stop offset="0.51" stop-color="#A5278B"/>
<stop offset="0.83" stop-color="#8B2987"/>
<stop offset="1" stop-color="#7A2A85"/>
</radialGradient>
<radialGradient id="paint12_radial_202_11292" cx="0" cy="0" r="1" gradientUnits="userSpaceOnUse" gradientTransform="translate(29.2417 30.3913) scale(2.32776 3.05562)">
<stop offset="0.09" stop-color="#E21A8D"/>
<stop offset="1" stop-color="#952584"/>
</radialGradient>
<radialGradient id="paint13_radial_202_11292" cx="0" cy="0" r="1" gradientUnits="userSpaceOnUse" gradientTransform="translate(26.9274 30.7536) scale(1.41582 2.76187)">
<stop offset="0.09" stop-color="#E21A8D"/>
<stop offset="1" stop-color="#952584"/>
</radialGradient>
<radialGradient id="paint14_radial_202_11292" cx="0" cy="0" r="1" gradientUnits="userSpaceOnUse" gradientTransform="translate(30.6519 28.339) scale(1.55789 3.0865)">
<stop offset="0.09" stop-color="#E21A8D"/>
<stop offset="1" stop-color="#952584"/>
</radialGradient>
<radialGradient id="paint15_radial_202_11292" cx="0" cy="0" r="1" gradientUnits="userSpaceOnUse" gradientTransform="translate(30.2946 26.2936) scale(8.66342 13.0457)">
<stop stop-color="#E21A8D"/>
<stop offset="0.25" stop-color="#DF1A8D"/>
<stop offset="0.44" stop-color="#D51C8C"/>
<stop offset="0.6" stop-color="#C51E8A"/>
<stop offset="0.76" stop-color="#AF2187"/>
<stop offset="0.89" stop-color="#952584"/>
</radialGradient>
<linearGradient id="paint16_linear_202_11292" x1="28.2863" y1="8.4989" x2="28.2673" y2="7.18917" gradientUnits="userSpaceOnUse">
<stop stop-color="#B1278F"/>
<stop offset="0.48" stop-color="#AF278E"/>
<stop offset="0.65" stop-color="#A8258A"/>
<stop offset="0.76" stop-color="#9E2383"/>
</linearGradient>
<linearGradient id="paint17_linear_202_11292" x1="28.1269" y1="9.80319" x2="27.7992" y2="5.69564" gradientUnits="userSpaceOnUse">
<stop stop-color="#EC178D"/>
<stop offset="0.47" stop-color="#EA178D"/>
<stop offset="0.64" stop-color="#E3188C"/>
<stop offset="0.76" stop-color="#D81A8A"/>
<stop offset="0.86" stop-color="#C71D88"/>
<stop offset="0.95" stop-color="#B12085"/>
<stop offset="1" stop-color="#9E2383"/>
</linearGradient>
<radialGradient id="paint18_radial_202_11292" cx="0" cy="0" r="1" gradientUnits="userSpaceOnUse" gradientTransform="translate(9.31008 1.93716) scale(19.6216 6.04963)">
<stop stop-color="#EC178D"/>
<stop offset="0.24" stop-color="#CB1C8C"/>
<stop offset="0.77" stop-color="#772888"/>
<stop offset="1" stop-color="#512E87"/>
</radialGradient>
<radialGradient id="paint19_radial_202_11292" cx="0" cy="0" r="1" gradientUnits="userSpaceOnUse" gradientTransform="translate(4.03026 6.89933) scale(3.38343 2.54604)">
<stop stop-color="#BA258E"/>
<stop offset="0.23" stop-color="#B5258D"/>
<stop offset="0.51" stop-color="#A5278B"/>
<stop offset="0.83" stop-color="#8B2987"/>
<stop offset="1" stop-color="#7A2A85"/>
</radialGradient>
<radialGradient id="paint20_radial_202_11292" cx="0" cy="0" r="1" gradientUnits="userSpaceOnUse" gradientTransform="translate(22.6913 1.03221) scale(2.32776 1.10139)">
<stop offset="0.09" stop-color="#E21A8D"/>
<stop offset="1" stop-color="#952584"/>
</radialGradient>
<radialGradient id="paint21_radial_202_11292" cx="0" cy="0" r="1" gradientUnits="userSpaceOnUse" gradientTransform="translate(24.1627 2.85522) scale(1.41582 0.505547)">
<stop offset="0.09" stop-color="#E21A8D"/>
<stop offset="1" stop-color="#952584"/>
</radialGradient>
<radialGradient id="paint22_radial_202_11292" cx="0" cy="0" r="1" gradientUnits="userSpaceOnUse" gradientTransform="translate(20.2091 0.83715) scale(1.55789 0.55072)">
<stop offset="0.09" stop-color="#E21A8D"/>
<stop offset="1" stop-color="#952584"/>
</radialGradient>
<radialGradient id="paint23_radial_202_11292" cx="0" cy="0" r="1" gradientUnits="userSpaceOnUse" gradientTransform="translate(18.6198 2.17034) scale(8.66342 2.8975)">
<stop stop-color="#E21A8D"/>
<stop offset="0.25" stop-color="#DF1A8D"/>
<stop offset="0.44" stop-color="#D51C8C"/>
<stop offset="0.6" stop-color="#C51E8A"/>
<stop offset="0.76" stop-color="#AF2187"/>
<stop offset="0.89" stop-color="#952584"/>
</radialGradient>
<clipPath id="clip0_202_11292">
<rect width="37" height="36" fill="white"/>
</clipPath>
</defs>
</svg>
