<svg width="37" height="36" viewBox="0 0 37 36" fill="none" xmlns="http://www.w3.org/2000/svg">
<g clip-path="url(#clip0_202_8855)">
<path d="M24.9491 24.7849C26.2776 24.6475 27.2855 23.5022 27.2397 22.1278C27.1938 20.7534 26.0486 19.6539 24.6742 19.6539H24.5826C23.1624 19.6997 22.063 20.8908 22.1088 22.311C22.1546 22.9982 22.4294 23.5938 22.8417 24.0061C21.2842 27.0756 18.902 29.3204 15.3287 31.1988C12.9007 32.4815 10.381 32.9397 7.86138 32.619C5.79987 32.3441 4.19646 31.4278 3.18861 29.916C1.72264 27.6712 1.58521 25.2431 2.82212 22.815C3.69254 21.0741 5.06688 19.7913 5.9373 19.1499C5.75406 18.5543 5.47919 17.5464 5.34175 16.8134C-1.30092 21.6238 -0.613745 28.1293 1.40196 31.1988C2.91374 33.4894 5.98311 34.9096 9.37317 34.9096C10.2894 34.9096 11.2056 34.818 12.1219 34.589C17.9857 33.4436 22.4294 29.9618 24.9491 24.7849ZM33.0119 19.1041C29.5302 15.0267 24.3993 12.7819 18.5355 12.7819H17.8025C17.3902 11.9572 16.5198 11.4075 15.5577 11.4075H15.4661C14.0459 11.4533 12.9465 12.6444 12.9923 14.0646C13.0381 15.439 14.1834 16.5386 15.5577 16.5386H15.6493C16.6572 16.4927 17.5276 15.8514 17.8941 14.9809H18.7187C22.2004 14.9809 25.4988 15.9888 28.4766 17.9588C30.7671 19.4706 32.4164 21.4406 33.3326 23.8229C34.1114 25.747 34.0656 27.6253 33.241 29.2288C31.9582 31.6569 29.8051 32.9855 26.9648 32.9855C25.1323 32.9855 23.3915 32.4357 22.4753 32.0234C21.9713 32.4815 21.0551 33.2146 20.4137 33.6727C22.3836 34.589 24.3993 35.0929 26.3234 35.0929C30.7213 35.0929 33.9739 32.6648 35.2109 30.2367C36.5394 27.5795 36.4478 22.9982 33.0119 19.1041ZM9.73966 25.5638C9.78547 26.9381 10.9308 28.0377 12.3051 28.0377H12.3967C13.8169 27.9919 14.9164 26.8007 14.8705 25.3805C14.8247 24.0061 13.6794 22.9066 12.3051 22.9066H12.2135C12.1219 22.9066 11.9844 22.9066 11.8928 22.9524C10.0145 19.8371 9.23573 16.4469 9.5106 12.7819C9.69385 10.0331 10.6101 7.6508 12.2135 5.68083C13.542 3.98574 16.1075 3.16111 17.8483 3.11529C22.7043 3.02367 24.7658 9.07101 24.9033 11.4991C25.4988 11.6365 26.5067 11.9572 27.1938 12.1863C26.6441 4.76457 22.063 0.91626 17.665 0.91626C13.542 0.91626 9.73966 3.89412 8.22788 8.29218C6.12055 14.1563 7.49489 19.7913 10.0603 24.2352C9.83128 24.5559 9.69385 25.0598 9.73966 25.5638Z" fill="#764ABC"/>
</g>
<defs>
<clipPath id="clip0_202_8855">
<rect width="37" height="36" fill="white"/>
</clipPath>
</defs>
</svg>
