<svg width="36" height="37" viewBox="0 0 36 37" fill="none" xmlns="http://www.w3.org/2000/svg">
<g clip-path="url(#clip0_202_11861)">
<path d="M31.7443 28.3481L18.0054 34.4373L4.2662 28.3481C4.25644 27.3603 3.4527 26.5626 2.46289 26.5626C1.46698 26.5626 0.659302 27.3702 0.659302 28.3661C0.659302 29.3627 1.46698 30.17 2.46289 30.17C2.92256 30.17 3.34239 29.9979 3.66058 29.7148L17.7041 35.938C17.9039 36.0257 18.1212 36.0193 18.3064 35.938L32.3499 29.7148C32.6678 29.9979 33.0877 30.17 33.5477 30.17C34.5436 30.17 35.3513 29.3627 35.3513 28.3661C35.3513 27.3702 34.5436 26.5626 33.5477 26.5626C32.5573 26.5626 31.754 27.3603 31.7443 28.3481Z" fill="#62BBE7"/>
<path d="M16.2175 14.5242L2.18916 20.7414C2.02437 20.8144 1.88463 20.9461 1.80677 21.1236C1.6405 21.5006 1.81219 21.9416 2.18916 22.1075L17.7187 28.9898C17.9038 29.0712 18.1207 29.0784 18.3204 28.9901L32.3524 22.7714C32.6703 23.0542 33.0895 23.2269 33.5491 23.2269C34.5443 23.2269 35.3513 22.4197 35.3513 21.4248C35.3513 20.4289 34.5443 19.6224 33.5491 19.6224C32.5595 19.6224 31.757 20.4197 31.7473 21.4065L18.0196 27.4905L4.33234 21.4248L16.822 15.8889C17.1404 16.1726 17.5597 16.3445 18.0196 16.3445C19.0149 16.3445 19.8218 15.5375 19.8218 14.5422C19.8218 13.5464 19.0149 12.7399 18.0196 12.7399C17.0297 12.7399 16.2273 13.5373 16.2175 14.5242Z" fill="#62BBE7"/>
<path d="M17.7041 6.97601L3.66058 13.1997C3.34239 12.9161 2.92256 12.744 2.46289 12.744C1.46698 12.744 0.659302 13.5518 0.659302 14.5476C0.659302 15.5443 1.46698 16.3513 2.46289 16.3513C3.4527 16.3513 4.25644 15.5535 4.2662 14.5657L18.0054 8.47739L31.7036 14.5476L19.2031 20.0877C18.8845 19.8041 18.4648 19.632 18.0054 19.632C17.0087 19.632 16.2017 20.4395 16.2017 21.4357C16.2017 22.4323 17.0087 23.2393 18.0054 23.2393C18.9955 23.2393 19.7983 22.4415 19.8087 21.4536L33.8487 15.2312C34.0136 15.1586 34.1535 15.0263 34.2316 14.8488C34.3972 14.4717 34.226 14.03 33.8487 13.864L18.3064 6.97655C18.2118 6.93481 18.1089 6.91272 18.0042 6.91272C17.9039 6.91272 17.8018 6.93305 17.7041 6.97601Z" fill="#78CBC8"/>
<path d="M17.7043 0.0645544L3.66072 6.28854C3.34239 6.00545 2.92269 5.83307 2.46302 5.83307C1.46711 5.83307 0.659302 6.64062 0.659302 7.63707C0.659302 8.63311 1.46711 9.44011 2.46302 9.44011C3.45283 9.44011 4.25658 8.64233 4.26634 7.65495L18.0054 1.56567L31.7444 7.65495C31.7542 8.64233 32.5574 9.44011 33.5477 9.44011C34.5438 9.44011 35.3515 8.63311 35.3515 7.63707C35.3515 6.64062 34.5438 5.83307 33.5477 5.83307C33.0878 5.83307 32.6682 6.00504 32.35 6.28854L18.3065 0.0648254C18.2119 0.0233574 18.1091 0.00140381 18.0044 0.00140381C17.904 0.00140381 17.8021 0.0215957 17.7043 0.0645544Z" fill="#78CBC8"/>
</g>
<defs>
<clipPath id="clip0_202_11861">
<rect width="36" height="37" fill="white"/>
</clipPath>
</defs>
</svg>
