<svg width="41" height="24" viewBox="0 0 41 24" fill="none" xmlns="http://www.w3.org/2000/svg">
<g clip-path="url(#clip0_202_16011)">
<path d="M32.6015 18.968H15.1121C13.4658 18.968 12.1263 17.6286 12.1263 15.9824C12.1263 14.3358 13.4656 12.9963 15.1121 12.9963H24.6635C27.451 12.9963 29.7186 10.7287 29.7186 7.9412C29.7186 5.15375 27.4511 2.88587 24.6635 2.88587H7.38402C6.90686 1.34846 5.47331 0.2323 3.77912 0.2323C1.69454 0.2323 0.00537109 1.92147 0.00537109 4.00605C0.00537109 6.09063 1.6947 7.7798 3.77928 7.7798C5.53537 7.7798 7.01159 6.5803 7.4326 4.9555H24.6636C26.3097 4.9555 27.6492 6.29497 27.6492 7.94128C27.6492 9.58759 26.3098 10.9271 24.6636 10.9271H15.1122C12.3248 10.9271 10.0569 13.1949 10.0569 15.9824C10.0569 18.7699 12.3246 21.0375 15.1122 21.0375H32.6014C33.051 22.6189 34.5058 23.7766 36.2316 23.7766C38.3162 23.7766 40.0054 22.0875 40.0054 20.0029C40.0054 17.9183 38.3162 16.2291 36.2316 16.2291C34.5059 16.2291 33.0512 17.3867 32.6015 18.968Z" fill="#F26B00"/>
</g>
<defs>
<clipPath id="clip0_202_16011">
<rect width="41" height="24" fill="white"/>
</clipPath>
</defs>
</svg>
