<svg width="33" height="36" viewBox="0 0 33 36" fill="none" xmlns="http://www.w3.org/2000/svg">
<g clip-path="url(#clip0_202_8738)">
<mask id="mask0_202_8738" style="mask-type:alpha" maskUnits="userSpaceOnUse" x="0" y="0" width="33" height="37">
<path d="M15.4178 0.194737C15.8761 -0.0636914 16.4361 -0.0636919 16.8943 0.194737L31.5475 8.45844C32.0199 8.72487 32.3121 9.22514 32.3121 9.76749V26.2343C32.3121 26.7767 32.0199 27.277 31.5475 27.5434L16.8943 35.8071C16.4361 36.0655 15.8761 36.0655 15.4178 35.8071L0.764636 27.5434C0.292222 27.277 0 26.7767 0 26.2343V9.76749C0 9.22514 0.292222 8.72487 0.764636 8.45844L15.4178 0.194737Z" fill="white"/>
</mask>
<g mask="url(#mask0_202_8738)">
<path d="M15.4104 0.39229C15.8724 0.12827 16.4397 0.12827 16.9017 0.39229L31.1791 8.55082C31.6473 8.81841 31.9363 9.31639 31.9363 9.8557V26.146C31.9363 26.6853 31.6473 27.1833 31.1791 27.4509L16.9017 35.6095C16.4397 35.8735 15.8724 35.8735 15.4104 35.6095L1.13298 27.4509C0.664715 27.1833 0.375732 26.6853 0.375732 26.146V9.8557C0.375732 9.31639 0.664715 8.81841 1.13298 8.55082L15.4104 0.39229Z" fill="url(#paint0_linear_202_8738)"/>
<path fill-rule="evenodd" clip-rule="evenodd" d="M0.375789 17.915V17.8918L0.396382 17.9037L10.1445 12.5529L10.4685 23.7288L15.4037 26.5831C15.8692 26.8523 16.443 26.8523 16.9085 26.5831L31.9364 17.8918V10.5189V10.5273V26.3518C31.9364 26.8968 31.6413 27.3992 31.1652 27.6645L16.8877 35.6221C16.4329 35.8756 15.8793 35.8756 15.4244 35.6221L1.14701 27.6645C0.670903 27.3992 0.375793 26.8968 0.375793 26.3518V25.5153H0.375732L0.375744 17.915L0.375789 17.915Z" fill="url(#paint1_linear_202_8738)"/>
<g filter="url(#filter0_f_202_8738)">
<path d="M15.4109 9.6465C15.8728 9.38236 16.44 9.38214 16.902 9.64593L23.2908 13.2931C23.7594 13.5606 24.0486 14.0588 24.0486 14.5983V21.7728C24.0486 22.3117 23.76 22.8094 23.2923 23.0771L16.9021 26.7351C16.44 26.9996 15.8725 26.9999 15.4102 26.7358L9.02539 23.0896C8.55694 22.8221 8.26782 22.324 8.26782 21.7845V14.6029C8.26782 14.0637 8.55664 13.5659 9.02468 13.2983L15.4109 9.6465Z" fill="black" fill-opacity="0.24"/>
</g>
<g filter="url(#filter1_f_202_8738)">
<path d="M15.4109 10.0222C15.8728 9.7581 16.44 9.75787 16.902 10.0217L23.2908 13.6688C23.7594 13.9364 24.0486 14.4345 24.0486 14.974V22.1485C24.0486 22.6874 23.76 23.1851 23.2923 23.4529L16.9021 27.1108C16.44 27.3753 15.8725 27.3756 15.4102 27.1116L9.02539 23.4653C8.55694 23.1978 8.26782 22.6997 8.26782 22.1603V14.9786C8.26782 14.4395 8.55664 13.9416 9.02468 13.674L15.4109 10.0222Z" fill="black" fill-opacity="0.32"/>
</g>
<path d="M15.4109 9.50268C15.8728 9.23855 16.44 9.23836 16.902 9.50215L23.2908 13.1493C23.7594 13.4168 24.0486 13.9149 24.0486 14.4545V21.629C24.0486 22.1679 23.76 22.6656 23.2923 22.9333L16.9021 26.5913C16.44 26.8558 15.8725 26.8561 15.4102 26.592L9.02539 22.9458C8.55694 22.6782 8.26782 22.1802 8.26782 21.6407V14.4591C8.26782 13.9199 8.55664 13.4221 9.02468 13.1544L15.4109 9.50268Z" fill="url(#paint2_linear_202_8738)"/>
<path fill-rule="evenodd" clip-rule="evenodd" d="M15.4192 9.54666C15.4188 9.54684 15.4185 9.54703 15.4182 9.54722L8.92317 13.2087C8.92291 13.2088 8.92268 13.2089 8.92246 13.209C8.89214 13.2262 8.86253 13.2442 8.83371 13.2632C8.56635 13.4606 8.58311 13.8793 8.88402 14.0489L15.4182 17.7324C15.8763 17.9907 16.4361 17.9907 16.8942 17.7324L23.4284 14.0489C23.7293 13.8793 23.7461 13.4606 23.4787 13.2633C23.4497 13.2441 23.4198 13.2259 23.3893 13.2087L16.8942 9.54722C16.4364 9.28914 15.8771 9.28895 15.4192 9.54666Z" fill="url(#paint3_linear_202_8738)"/>
</g>
</g>
<defs>
<filter id="filter0_f_202_8738" x="7.50782" y="8.68824" width="17.3008" height="19.0054" filterUnits="userSpaceOnUse" color-interpolation-filters="sRGB">
<feFlood flood-opacity="0" result="BackgroundImageFix"/>
<feBlend mode="normal" in="SourceGraphic" in2="BackgroundImageFix" result="shape"/>
<feGaussianBlur stdDeviation="0.38" result="effect1_foregroundBlur_202_8738"/>
</filter>
<filter id="filter1_f_202_8738" x="0.267822" y="1.82397" width="31.7808" height="33.4854" filterUnits="userSpaceOnUse" color-interpolation-filters="sRGB">
<feFlood flood-opacity="0" result="BackgroundImageFix"/>
<feBlend mode="normal" in="SourceGraphic" in2="BackgroundImageFix" result="shape"/>
<feGaussianBlur stdDeviation="4" result="effect1_foregroundBlur_202_8738"/>
</filter>
<linearGradient id="paint0_linear_202_8738" x1="11.961" y1="12.1407" x2="24.8545" y2="33.2062" gradientUnits="userSpaceOnUse">
<stop stop-color="#0078D4"/>
<stop offset="1" stop-color="#2064AE"/>
</linearGradient>
<linearGradient id="paint1_linear_202_8738" x1="8.75903" y1="10.4351" x2="21.3759" y2="36.4762" gradientUnits="userSpaceOnUse">
<stop stop-color="#40C4F5"/>
<stop offset="1" stop-color="#0095E6"/>
</linearGradient>
<linearGradient id="paint2_linear_202_8738" x1="10.9601" y1="10.6714" x2="19.2804" y2="26.2392" gradientUnits="userSpaceOnUse">
<stop stop-color="#7CECFF"/>
<stop offset="1" stop-color="#50E6FF"/>
</linearGradient>
<linearGradient id="paint3_linear_202_8738" x1="9.74251" y1="9.42308" x2="12.0245" y2="19.5187" gradientUnits="userSpaceOnUse">
<stop stop-color="#A7F2FF"/>
<stop offset="1" stop-color="#7CECFF"/>
</linearGradient>
<clipPath id="clip0_202_8738">
<rect width="32.3121" height="36.0009" fill="white"/>
</clipPath>
</defs>
</svg>
