<svg width="41" height="18" viewBox="0 0 41 18" fill="none" xmlns="http://www.w3.org/2000/svg">
<g clip-path="url(#clip0_202_13062)">
<path d="M27.576 15.6428C28.0307 15.8701 30.4745 15.6381 31.3837 17.6271C30.3642 16.1829 28.1307 16.0943 26.8089 16.0406C25.3853 15.9004 24.3114 15.807 23.5229 15.237C23.6818 15.6103 24.2989 15.9837 24.7534 16.1353C25.2829 16.3359 25.9037 16.5993 26.0417 16.7415C25.3976 16.4764 24.2231 16.3626 23.5695 15.7328C23.3218 15.5117 23.1875 15.1579 23.0673 14.8409C22.6339 13.6987 22.3342 12.4964 21.8084 11.4009C20.9965 9.88199 19.7709 8.6898 18.2453 7.86527C17.8032 7.65261 17.4142 7.52418 16.914 7.51277C16.7751 7.50964 16.6582 7.50964 16.5004 7.5223C16.3965 7.42464 16.2545 6.99261 16.1784 6.86558C16.3406 6.7834 17.4678 6.69808 17.839 6.87183C18.7192 7.28386 19.501 7.08761 20.3189 6.5973C20.4018 6.54746 20.6175 6.46777 20.7817 6.32886C20.7084 6.51355 20.7023 6.74402 20.6112 6.91933C20.4612 7.20746 20.2134 7.49386 20.7007 7.5323C21.4521 7.59136 22.3721 7.9898 23.0581 8.5484C22.6471 8.36761 21.5593 8.39074 21.5046 8.58636C22.4654 8.65168 23.8514 8.94902 24.6871 9.39777C24.4535 9.39777 24.0051 9.42293 23.8126 9.44183C23.2618 9.49605 23.017 9.71027 23.4432 10.3701C24.242 11.4468 23.9189 11.2903 24.7629 10.7079C26.8089 9.29667 29.257 8.09777 31.4759 6.84183C33.487 5.70355 35.5246 4.60996 37.3445 3.16777C37.6115 2.95621 37.8707 2.73355 38.1207 2.50215C38.7609 1.9098 39.4587 1.25855 39.7568 0.298554C40.0385 0.815585 40.0351 1.32433 39.9557 1.77605C39.8326 2.47621 39.5456 3.11746 39.1126 3.67043C38.1115 4.94933 36.7504 5.90402 35.4376 6.83402C33.3012 8.34746 30.9148 9.4009 28.5706 10.5281C27.6626 10.9646 26.9382 11.4212 26.0606 11.9204C25.9687 11.9726 25.282 12.4154 25.227 12.536C26.6371 11.667 29.6312 10.3473 31.4957 9.48433C34.2942 8.12277 36.9215 6.51043 39.0634 4.2048C39.1118 4.15262 39.3035 3.93824 39.4489 3.82199C39.3879 4.06371 39.3107 4.4134 39.269 4.55136C38.7103 6.39965 37.492 7.76355 35.9492 8.8609C34.382 9.97558 32.5987 10.7406 30.8248 11.4468C29.3589 12.0304 28.5785 12.3328 27.112 12.915C26.9981 12.9601 26.0542 13.3585 25.8901 13.5021C25.9314 13.499 26.2509 13.3743 26.2879 13.3601C28.8695 12.4112 31.4196 11.5379 33.8132 10.4239C35.4518 9.73683 37.0289 8.54371 38.3123 7.12761C38.2717 7.28511 38.1807 7.71152 38.1323 7.86636C37.5643 9.68574 36.2971 10.9929 34.7415 12.0009C33.459 12.8318 32.2018 13.4175 30.7396 13.8431C30.5656 13.8939 30.1714 13.9757 29.6978 14.1084C31.6962 13.8715 33.0764 13.1731 34.3437 12.6354C33.4248 13.63 32.1892 14.5198 31.1043 15.1029C29.9795 15.7073 28.809 15.6712 27.576 15.6428ZM12.3549 15.6049C11.1674 15.6228 9.95349 15.7302 8.86896 15.1324C7.80927 14.5482 6.48255 13.476 5.61099 12.6402C6.87771 13.1708 8.58786 13.9082 9.97193 14.0516C9.85365 14.0107 9.73693 13.9646 9.61677 13.9297C7.77224 13.3944 6.02005 12.6636 4.49537 11.4668C3.13099 10.5919 2.03787 8.98003 1.68021 7.15597C2.40959 8.20738 5.31162 10.2357 7.78943 11.1436C9.31443 11.7025 10.6969 12.2758 12.1938 12.8486C12.2033 13.0664 12.0951 12.9275 11.9286 13.4832C11.8485 13.7508 11.8044 14.0283 11.8194 14.3043C11.8213 14.3375 11.843 14.3593 11.8466 14.3925C11.8538 14.4593 11.8455 14.5377 11.8604 14.6039C11.8861 14.7193 11.9526 14.8739 12.0304 14.9674C12.2222 15.1975 12.4118 15.1427 12.6391 15.3018C12.8183 15.4272 13.0461 15.6474 13.5579 15.6996C13.7852 15.7228 14.1047 15.6333 14.2682 15.4818C14.7721 15.0146 15.1601 14.4546 15.2816 13.7436C15.3365 13.4233 15.4382 13.163 15.779 13.0333C15.8674 12.9996 16.1247 12.8344 16.1247 12.8344C16.1247 12.8344 16.2163 13.1302 16.2336 13.2322C16.3625 13.9952 16.3988 14.8021 16.2247 15.5513C16.1879 15.7099 15.928 15.8732 15.748 15.9063C14.9433 16.0544 14.1335 16.2018 13.319 16.2641C12.1091 16.3568 10.8944 16.3478 9.71302 16.0052C9.40599 15.9161 8.66083 15.6238 8.45255 15.3207C9.27974 15.6838 11.2944 16.0616 12.3549 15.6049ZM0.215227 0.254272C0.837258 2.03177 2.78835 3.41474 4.54069 4.5324C6.88898 5.9599 9.25976 7.24599 11.6524 8.60052C11.956 8.77239 12.2538 8.91786 12.2538 8.91786C12.0458 9.4988 11.8993 10.1277 11.8213 10.768C11.8213 10.768 11.7907 10.7397 11.5787 10.6447C8.08007 9.07661 4.64819 7.39005 1.86429 4.67302C1.27898 4.10177 0.85054 3.58833 0.420383 2.88427C0.0894461 2.34255 -0.103835 1.50724 0.0636648 0.860522C0.0825711 0.787554 0.17679 0.300991 0.215227 0.254272ZM0.553055 3.81251C0.870086 4.11641 1.34665 4.65141 1.62337 4.92063C3.45243 6.70016 5.55758 8.04094 7.82743 9.1736C9.1143 9.81563 12.0802 11.1531 12.0802 11.1531L12.1654 12.6686C12.1654 12.6686 9.11993 11.4778 7.79368 10.9205C6.30055 10.293 4.86415 9.55375 3.58915 8.5361C2.27352 7.48579 1.22149 6.29063 0.74243 4.65547C0.70118 4.51469 0.599461 3.99579 0.553055 3.81251ZM17.3123 8.70949C18.5728 8.88699 19.6683 9.57136 20.2638 10.6228C20.7097 11.41 21.0948 12.324 21.4667 13.1517C21.7666 13.819 22.0723 14.6815 22.3666 15.3492C22.6516 15.996 23.2148 16.6151 23.6736 17.1393C22.2137 17.2137 21.4853 15.4929 21.3058 14.9229C20.9933 13.937 20.6742 13.6664 20.3648 14.9292C20.2386 15.3585 20.0555 15.927 19.9417 16.4384C19.885 15.7281 19.98 14.3848 20.0555 13.6632C20.2758 11.5557 19.2588 9.97621 17.4963 8.83168C17.4345 8.79152 17.3736 8.75027 17.3123 8.70949ZM13.0226 11.9298C13.1567 11.9372 13.3062 11.6942 13.4583 11.7025C13.4347 12.2708 13.4205 12.7301 12.2601 13.6915C12.303 13.4761 12.5148 12.9951 12.5395 12.7775C12.6217 12.0573 12.6098 11.3695 12.2883 10.6928C12.2392 10.5898 12.2491 10.4458 12.2628 10.3301C12.3211 9.8403 12.4683 9.38749 12.6544 8.94952C12.7469 8.73202 12.7489 8.70389 12.5822 8.50577C12.3392 8.21702 12.1214 7.68921 12.1797 7.21296C12.4309 7.32936 12.713 7.44061 12.8978 7.5578C13.0637 7.66311 13.3305 7.81905 13.3305 7.81905C13.3305 7.81905 13.57 7.61311 13.7155 7.5003C13.8987 7.35811 14.2189 7.11061 14.6281 7.09921C13.9794 7.4828 13.2711 8.11264 13.0084 8.78514C12.7387 9.47593 12.5937 10.3375 12.7936 11.0461C12.798 11.0465 12.7984 11.0465 12.8028 11.047C12.8251 10.6455 13.4798 8.69452 13.9083 8.99827C13.9658 9.03905 14.0248 8.77593 14.0587 8.65889C14.2109 8.13343 14.3392 7.50171 14.9739 7.14186C14.8223 7.71014 14.9508 8.41389 14.9644 8.95577C14.9744 9.35577 14.6994 9.51264 14.3723 9.65186C13.5028 10.0222 13.2506 10.6505 13.0464 11.5416C13.0387 11.5748 13.0169 11.8545 13.0226 11.9298ZM16.4798 15.9553C16.5158 15.6544 16.5858 15.2667 16.6172 14.9986C16.7031 14.2638 16.7223 13.5333 16.4561 12.8297C16.3441 12.5333 16.2044 12.4456 15.8831 12.5975C15.3044 12.8713 14.9366 13.327 14.8397 13.9505C14.7552 14.4938 14.4577 14.7856 14.1261 15.2117C13.8906 15.4678 13.2664 15.4181 12.9139 15.1306C12.7791 15.0205 12.552 14.9477 12.4022 14.8597C12.1064 14.6863 12.1181 14.6056 12.1844 13.9663L12.3928 13.9758C12.4213 14.0894 12.3994 14.3886 12.4355 14.4303C12.5272 14.537 12.7844 14.6661 12.9138 14.7099C12.955 14.7238 12.9041 14.4363 12.9516 14.3356C13.1364 13.9447 13.5814 13.8095 13.7714 14.2785C13.2231 14.1642 12.9422 14.6394 13.5136 14.9608C13.7788 14.9861 13.8809 14.8706 13.9556 14.7839C14.2013 14.4989 14.1956 14.4683 14.3581 13.9331C14.5627 13.2602 14.827 12.645 15.5231 12.3703C15.963 12.1967 16.3236 11.513 16.6172 11.0727C17.1852 11.9786 17.7538 15.0935 16.4798 15.9553ZM15.4945 6.50888C16.1593 6.94138 16.5193 8.07169 16.0773 8.64622C16.1287 8.18044 15.9636 7.61075 15.6353 7.29497C15.3006 7.61075 15.3087 8.21529 15.3259 8.57685C14.9873 8.19404 14.9408 7.33919 15.4945 6.50888ZM14.303 10.3764C13.7788 10.4395 13.6191 11.0914 13.5705 11.5383C13.673 11.4705 13.8078 11.2589 13.9145 11.15C14.1406 11.3544 14.4984 11.3164 14.6566 10.9953C14.8428 10.6169 15.1491 10.2123 15.1869 9.67547C14.745 10.3448 14.6031 10.3403 14.303 10.3764ZM14.003 11.03C13.9145 10.8595 14.0883 10.6984 14.4103 10.6606C14.3155 11.0584 14.0661 11.1247 14.003 11.03ZM14.5618 17.7502C14.7418 17.3809 16.2335 16.7841 16.172 15.818C15.9379 16.5904 14.3534 17.0493 14.5618 17.7502Z" fill="black"/>
</g>
<defs>
<clipPath id="clip0_202_13062">
<rect width="41" height="18" fill="white"/>
</clipPath>
</defs>
</svg>
