<svg width="37" height="36" viewBox="0 0 37 36" fill="none" xmlns="http://www.w3.org/2000/svg">
<g clip-path="url(#clip0_202_15292)">
<path d="M8.98878 7.34218C8.98878 8.67007 7.91239 9.74646 6.58451 9.74646C5.25681 9.74646 4.18042 8.67007 4.18042 7.34218C4.18042 6.01449 5.25681 4.93791 6.58451 4.93791C7.91239 4.93791 8.98878 6.01449 8.98878 7.34218Z" fill="#F6861A"/>
<path d="M19.3334 31.0725C19.3306 30.6326 19.2596 24.9837 17.4672 20.1228C15.6008 15.0614 12.4373 10.8223 12.4373 10.8223C12.4373 10.8223 18.9856 14.8082 21.9908 18.1299C24.5804 20.9919 26.8413 25.4983 27.4171 26.6901C26.7929 27.151 26.3881 27.8919 26.3881 28.7273C26.3881 30.125 27.5212 31.2582 28.9188 31.2582C30.3165 31.2582 31.4496 30.125 31.4496 28.7273C31.4496 27.3723 30.3845 26.2659 29.0457 26.1998C28.6456 25.1778 26.9529 21.1877 23.541 17.3389C19.5867 12.8785 14.0822 9.90478 14.0822 9.90478C14.0822 9.90478 20.0296 11.8028 23.0348 13.1315C25.7024 14.3109 30.1152 16.7616 31.0728 17.2972C30.9889 17.549 30.9434 17.8182 30.9434 18.0982C30.9434 19.4959 32.0766 20.629 33.4741 20.629C34.8718 20.629 36.005 19.4959 36.005 18.0982C36.005 16.7006 34.8718 15.5675 33.4741 15.5675C32.9417 15.5675 32.4476 15.7319 32.04 16.0128C31.0669 15.3723 27.0852 12.8645 21.0735 10.5691C14.1139 7.91182 8.9891 6.99448 8.9891 6.99448L8.10327 8.98745C8.10327 8.98745 11.4685 11.2177 14.7901 18.4303C17.8374 25.0471 17.6397 30.0266 17.5863 30.8041C16.4349 31.0415 15.5691 32.0611 15.5691 33.2827C15.5691 34.6804 16.7023 35.8135 18.0998 35.8135C19.4975 35.8135 20.6307 34.6804 20.6307 33.2827C20.6307 32.333 20.1074 31.5054 19.3334 31.0725Z" fill="#3D4C67"/>
<path d="M20.6307 2.72356C20.6307 4.12129 19.4975 5.25425 18.0998 5.25425C16.702 5.25425 15.5691 4.12129 15.5691 2.72356C15.5691 1.32601 16.702 0.192871 18.0998 0.192871C19.4975 0.192871 20.6307 1.32601 20.6307 2.72356Z" fill="#3D4C67"/>
<path d="M31.449 7.46965C31.449 8.86739 30.3159 10.0003 28.9181 10.0003C27.5206 10.0003 26.3875 8.86739 26.3875 7.46965C26.3875 6.07211 27.5206 4.93896 28.9181 4.93896C30.3159 4.93896 31.449 6.07211 31.449 7.46965Z" fill="#3D4C67"/>
<path d="M9.62187 28.9167C9.62187 30.3145 8.48872 31.4476 7.09099 31.4476C5.69345 31.4476 4.5603 30.3145 4.5603 28.9167C4.5603 27.5192 5.69345 26.386 7.09099 26.386C8.48872 26.386 9.62187 27.5192 9.62187 28.9167Z" fill="#3D4C67"/>
<path d="M5.0662 18.0984C5.0662 19.4961 3.93306 20.6292 2.53533 20.6292C1.13778 20.6292 0.00463867 19.4961 0.00463867 18.0984C0.00463867 16.7008 1.13778 15.5677 2.53533 15.5677C3.93306 15.5677 5.0662 16.7008 5.0662 18.0984Z" fill="#3D4C67"/>
</g>
<defs>
<clipPath id="clip0_202_15292">
<rect width="37" height="36" fill="white"/>
</clipPath>
</defs>
</svg>
