<svg width="37" height="36" viewBox="0 0 37 36" fill="none" xmlns="http://www.w3.org/2000/svg">
<g clip-path="url(#clip0_202_15921)">
<path d="M0.00537109 1.13147C0.00537109 0.836451 0.244531 0.59729 0.539553 0.59729H24.4339C30.8247 0.59729 36.0054 5.7955 36.0054 12.2078V14.2538C36.0054 14.5488 35.7663 14.788 35.4712 14.788H28.8253C28.5302 14.788 28.2911 14.5488 28.2911 14.2538V12.2078C28.2911 10.0704 26.5642 8.33765 24.4339 8.33765H8.25385C7.95881 8.33765 7.71965 8.5768 7.71965 8.87184V34.8949C7.71965 35.1897 7.47972 35.431 7.18539 35.4106C3.17414 35.1352 0.00537109 31.7832 0.00537109 27.6886V1.13147ZM14.6824 16.078H27.0054C31.9759 16.078 36.0054 20.1211 36.0054 25.1085V27.6886C36.0054 31.7832 32.8367 35.1352 28.8253 35.4106C28.531 35.431 28.2911 35.1897 28.2911 34.8949V25.1085C28.2911 24.396 27.7154 23.8184 27.0054 23.8184H21.8625C17.781 23.8184 14.4398 20.638 14.1663 16.6123C14.1463 16.318 14.3874 16.078 14.6824 16.078Z" fill="#ED1846"/>
</g>
<defs>
<clipPath id="clip0_202_15921">
<rect width="37" height="36" fill="white"/>
</clipPath>
</defs>
</svg>
