<svg width="36" height="37" viewBox="0 0 36 37" fill="none" xmlns="http://www.w3.org/2000/svg">
<path d="M27.424 36.0017C31.8743 36.0017 35.482 32.394 35.482 27.9437C35.482 23.4934 31.8743 19.8857 27.424 19.8857C22.9737 19.8857 19.366 23.4934 19.366 27.9437C19.366 32.394 22.9737 36.0017 27.424 36.0017Z" fill="#FF7B57"/>
<path d="M12.5136 4.52634V1.39294C12.5136 1.24279 12.4539 1.09878 12.3477 0.992606C12.2416 0.886431 12.0975 0.826782 11.9474 0.826782H1.08301C0.933699 0.828069 0.790945 0.888286 0.685823 0.994322C0.580701 1.10036 0.521723 1.24363 0.521729 1.39294V26.9042C0.523224 22.4751 1.61863 18.115 3.71064 14.2111C5.80266 10.3072 8.8265 6.98043 12.5136 4.52634Z" fill="#26D1C4"/>
<path d="M0.521729 26.9042V35.4405C0.521723 35.5898 0.580701 35.733 0.685823 35.8391C0.790945 35.9451 0.933699 36.0053 1.08301 36.0066H11.9474C12.0975 36.0066 12.2416 35.947 12.3477 35.8408C12.4539 35.7346 12.5136 35.5906 12.5136 35.4405V4.52625C8.8265 6.98034 5.80266 10.3071 3.71064 14.211C1.61863 18.1149 0.523224 22.4751 0.521729 26.9042H0.521729Z" fill="#007AE5"/>
<path d="M12.5134 4.5263V26.9042C12.517 23.0454 14.015 19.3379 16.6931 16.5598C19.3712 13.7816 23.0212 12.1486 26.8773 12.0035C27.0236 11.9985 27.1625 11.9375 27.2651 11.833C27.3678 11.7286 27.4264 11.5887 27.4288 11.4422V0.572956C27.4281 0.497549 27.4126 0.423015 27.383 0.353655C27.3534 0.284295 27.3104 0.221483 27.2564 0.168846C27.2024 0.116208 27.1385 0.0747876 27.0684 0.0469742C26.9983 0.0191609 26.9234 0.00550594 26.848 0.00679765C21.7358 0.110804 16.7608 1.67936 12.5134 4.5263Z" fill="#3CB7F7"/>
</svg>
