<svg width="37" height="30" viewBox="0 0 37 30" fill="none" xmlns="http://www.w3.org/2000/svg">
<g clip-path="url(#clip0_202_15280)">
<path d="M33.5995 29.7688H2.41027C1.08179 29.7688 0.00488281 28.6919 0.00488281 27.3633V2.64308C0.00488281 1.31446 1.08179 0.237549 2.41027 0.237549H33.5995C34.928 0.237549 36.0049 1.31446 36.0049 2.64308V27.3633C36.0049 28.6919 34.928 29.7688 33.5995 29.7688Z" fill="black"/>
<path d="M10.3701 15.5719C9.62088 15.949 9.15612 16.2161 8.66604 16.4231C7.20846 17.0387 5.65568 16.4957 4.98068 15.1579C4.31299 13.8348 4.69423 12.3042 6.03424 11.5201C7.8393 10.464 9.70976 9.51973 11.7002 8.44774C11.5643 9.65107 10.9886 10.3318 10.1318 10.8073C9.15021 11.3519 8.1567 11.8752 7.16529 12.4017C6.28554 12.8687 5.63923 13.497 6.19441 14.5431C6.72499 15.543 7.56888 15.5226 8.49616 15.0208C12.2888 12.9684 16.0892 10.9302 19.8927 8.89774C20.3471 8.65488 20.6448 8.27941 20.9638 7.89888C22.0866 6.55985 23.4907 5.56423 24.8939 4.5672C24.8337 4.47452 24.7909 4.17949 24.7909 4.17949C24.7909 4.17949 25.365 4.12985 25.705 3.87476C25.8283 3.78223 26.4226 3.39002 26.5687 3.3408C27.7676 2.93721 27.487 3.23773 28.3301 3.45288C28.4548 3.48466 29.4251 3.37807 29.523 3.45541C29.8828 3.8396 29.7241 4.83621 29.7241 4.83621C29.4961 5.14038 28.9856 5.17652 28.8926 5.28101C28.3194 5.92451 28.2523 6.25188 27.1113 6.4998C26.9816 6.50501 27.0563 6.84532 27.0634 7.06596C27.0896 7.87118 26.9824 8.67541 27.1624 9.48274C27.4969 10.9834 28.2967 11.7817 29.9315 11.6818C30.7269 11.6333 31.5436 11.7772 32.3365 11.9156C32.7394 11.9857 33.1188 12.2913 33.0153 12.7694C32.9805 12.9302 32.9239 13.0389 32.9239 13.0389C32.9239 13.0389 32.3566 13.0452 32.2186 12.9946C31.9281 12.888 31.7264 12.8295 31.4238 12.8044C31.3631 12.7367 31.377 12.4529 31.377 12.4529C31.377 12.4529 30.809 12.7886 30.6283 12.7957C29.3516 12.8465 28.0527 13.1981 27.0056 12.5164C25.3113 11.4132 24.5692 12.1811 23.395 13.2336C21.4898 14.9412 19.1533 15.9405 16.5385 16.0151C15.8044 16.036 15.662 16.3239 15.5911 16.9512C15.3111 19.4294 13.9766 20.9894 11.4738 21.4179C10.946 21.5083 10.718 21.8164 10.4954 22.2234C9.8712 23.3651 9.23107 24.4981 8.5946 25.6331C8.39773 25.9841 8.24079 26.384 7.83523 26.5441C7.64496 26.619 7.41096 26.6245 7.20804 26.5919C7.16459 26.585 7.12493 26.3532 7.16515 26.1169C7.28313 25.6248 7.3301 25.2498 7.40041 24.8044C7.7254 24.8033 7.86813 24.4867 8.0314 24.3392C8.72524 23.7127 8.71427 22.2809 8.95629 21.1886C9.10493 20.5184 9.17651 19.9597 10.0557 19.7454C10.8757 19.5456 11.0495 18.7582 10.7637 17.9823C10.4998 17.2661 10.2111 16.5659 10.3701 15.5719Z" fill="#F7BE01"/>
<path d="M33.0972 14.9772C33.0972 18.4282 33.147 21.7894 33.0715 25.1479C33.0432 26.4016 32.1281 26.8675 30.9274 26.8641C26.6157 26.8516 22.304 26.8591 17.9923 26.8591H11.1897C11.9508 26.0533 13.5644 24.5466 13.5644 24.5466C13.5644 24.5466 14.6015 24.1904 15.3058 24.128C16.2166 24.0471 17.7364 23.6561 17.7364 23.6561C17.7364 23.6561 18.3043 22.2404 18.479 21.4423C18.5883 20.943 18.9668 20.0115 18.9668 20.0115L20.5929 20.0054L24.5567 19.9763C24.5567 19.9763 25.2581 17.9879 25.5176 16.9997C27.6269 16.7185 31.1628 15.4489 33.0972 14.9772Z" fill="#F7BE01"/>
<path d="M8.29634 20.3764C7.96896 21.3325 8.46762 22.6395 7.19904 23.0591C5.88996 23.4924 4.78732 24.7643 2.89746 24.146C3.5501 23.7947 3.84837 23.1942 4.3774 22.9293C4.53321 22.8514 4.84568 22.6482 4.84568 22.6482L5.25898 22.9427C5.25898 22.9427 5.54796 22.8105 5.68493 22.7243C6.09612 22.4661 6.57902 21.8292 7.0106 21.464C7.43909 21.1013 7.86771 20.7389 8.29634 20.3764Z" fill="#F7BE01"/>
<path d="M31.2255 10.1376C31.1814 9.9312 31.0957 9.80449 31.0957 9.80449C31.0957 9.80449 29.8464 10.5809 29.3937 10.7238C28.998 10.8485 28.6692 11.2874 28.3707 10.5315C28.1225 9.90265 28.4748 9.87509 28.8641 9.73784C29.744 9.42762 30.6111 9.08055 31.4947 8.78145C32.032 8.59962 32.7401 8.5833 32.9142 9.12485C32.9773 9.32102 32.9018 9.54082 32.9018 9.54082C32.9018 9.54082 32.3256 9.73952 32.0274 9.85132C31.7834 9.94287 31.4494 10.05 31.2255 10.1376Z" fill="#F7BE01"/>
<path d="M10.7107 8.10785C10.3264 8.20249 10.3337 7.91323 10.3078 7.72029C10.2312 7.15076 10.7711 7.14541 11.0799 6.96302C11.3397 6.80946 11.5098 7.07805 11.5399 7.28196C11.6801 7.87484 10.9616 7.92884 10.7107 8.10785Z" fill="#F7BE01"/>
<path d="M10.0204 6.60527C9.71805 6.62271 9.56773 6.4586 9.55915 6.21687C9.54396 5.79513 9.79934 5.52387 10.1974 5.50446C10.5078 5.48913 10.885 5.64945 10.8224 6.02576C10.7583 6.41191 10.2915 6.43385 10.0204 6.60527Z" fill="#F7BE01"/>
<path d="M19.7112 12.9059C19.4419 12.8133 19.4185 12.5943 19.4609 12.3658C19.4955 12.1796 19.6066 12.0223 19.8253 12.0781C20.1048 12.1494 20.1084 12.3891 20.0833 12.6161C20.06 12.827 19.9202 12.9159 19.7112 12.9059Z" fill="#303144"/>
<path d="M25.7567 8.47808C25.7453 8.67031 25.6841 8.85186 25.4743 8.87577C25.1814 8.90909 25.0934 8.69436 25.0932 8.45431C25.0931 8.27164 25.161 8.07406 25.3701 8.05367C25.6534 8.02639 25.748 8.2265 25.7567 8.47808Z" fill="#303144"/>
<path d="M23.6493 6.8405C23.8857 6.80338 24.0297 6.89675 24.081 7.08772C24.1471 7.33339 24.0657 7.53927 23.8046 7.60635C23.6005 7.65866 23.4694 7.52169 23.4039 7.34408C23.3065 7.08027 23.4422 6.92614 23.6493 6.8405Z" fill="#303144"/>
<path d="M12.2366 16.9831C12.1877 17.2068 12.0882 17.4002 11.8198 17.3408C11.5824 17.2882 11.4546 17.09 11.5346 16.8645C11.5813 16.733 11.7544 16.5677 11.8797 16.5597C12.1216 16.544 12.2411 16.7345 12.2366 16.9831Z" fill="#303144"/>
<path d="M14.6193 15.5989C14.6497 15.8869 14.4963 16.0543 14.2692 16.0555C14.1494 16.0562 13.9668 15.8892 13.9218 15.7599C13.8437 15.5359 13.966 15.3222 14.1999 15.2634C14.4673 15.1963 14.5562 15.4148 14.6193 15.5989Z" fill="#303144"/>
<path d="M25.8287 9.80249C26.1105 9.80094 26.2483 9.95324 26.2497 10.1915C26.2513 10.4259 26.1104 10.625 25.8665 10.5935C25.7426 10.5776 25.588 10.4004 25.5427 10.2644C25.4629 10.0247 25.619 9.87181 25.8287 9.80249Z" fill="#303144"/>
<path d="M18.9576 11.1543C18.9225 11.2906 18.798 11.4786 18.5464 11.3824C18.4175 11.3332 18.2718 11.1504 18.2583 11.0155C18.2355 10.7856 18.4012 10.601 18.6459 10.6153C18.8918 10.6296 19.0104 10.806 18.9576 11.1543Z" fill="#303144"/>
<path d="M24.0065 9.42842C23.9578 9.73935 23.8536 9.91681 23.5756 9.87828C23.3599 9.84847 23.2934 9.66903 23.3111 9.49072C23.3332 9.26783 23.4263 9.02792 23.7082 9.10766C23.8406 9.14492 23.9283 9.33927 24.0065 9.42842Z" fill="#303144"/>
<path d="M22.2154 8.86016C22.192 9.12988 22.1308 9.29905 21.9252 9.32731C21.6512 9.36486 21.5053 9.18359 21.5218 8.9465C21.536 8.74049 21.6337 8.48089 21.9186 8.55725C22.0515 8.59283 22.1432 8.78211 22.2154 8.86016Z" fill="#303144"/>
<path d="M14.1827 17.6357C14.158 17.8303 14.131 18.0676 13.8296 18.0514C13.6187 18.04 13.5476 17.8599 13.5455 17.6778C13.5429 17.4491 13.5911 17.2158 13.8892 17.2314C14.0957 17.2424 14.155 17.4244 14.1827 17.6357Z" fill="#303144"/>
<path d="M21.6313 13.3104C21.3817 13.2498 21.2577 13.0866 21.2816 12.8342C21.3007 12.6321 21.4474 12.4963 21.6343 12.5022C21.9078 12.5108 21.9968 12.7102 21.9691 12.9654C21.9472 13.1678 21.83 13.2793 21.6313 13.3104Z" fill="#303144"/>
<path d="M25.4912 5.97355C25.7078 5.9526 25.8602 6.0395 25.9094 6.22752C25.9734 6.47277 25.8743 6.68286 25.6304 6.75641C25.4312 6.81645 25.3033 6.665 25.2448 6.48753C25.1624 6.23708 25.2486 6.05652 25.4912 5.97355Z" fill="#303144"/>
<path d="M21.0288 10.299C21.2459 10.3575 21.4302 10.4848 21.3578 10.7388C21.3176 10.8798 21.1787 11.0654 21.0529 11.0943C20.8015 11.1518 20.6733 10.9401 20.6465 10.7178C20.6157 10.4627 20.7801 10.3357 21.0288 10.299Z" fill="#303144"/>
<path d="M16.3168 14.2524C16.3856 14.2126 16.4729 14.2135 16.5408 14.2548C16.7003 14.3521 16.8093 14.4953 16.7529 14.6962C16.729 14.7817 16.6533 14.8528 16.5722 14.9222C16.4868 14.9953 16.3608 14.9952 16.2755 14.9221C16.1941 14.8522 16.1183 14.7808 16.0955 14.6953C16.0422 14.4949 16.1501 14.3489 16.3168 14.2524Z" fill="#303144"/>
<path d="M14.8584 13.4739C14.7918 13.5255 14.6511 13.7202 14.534 13.7069C14.3122 13.6819 14.1156 13.4992 14.2037 13.2385C14.2532 13.0924 14.4339 12.8718 14.5299 12.8841C14.752 12.9127 14.9066 13.0976 14.8584 13.4739Z" fill="#303144"/>
<path d="M23.2083 11.0262C23.4288 11.1374 23.5485 11.312 23.4718 11.5576C23.4188 11.7275 23.2856 11.8766 23.0906 11.8182C22.849 11.7461 22.7454 11.55 22.8274 11.3011C22.8835 11.1307 22.9986 11.0053 23.2083 11.0262Z" fill="#303144"/>
<path d="M27.6118 4.40727C27.4031 4.42288 27.2669 4.30953 27.2224 4.12756C27.1558 3.85433 27.3438 3.70864 27.5712 3.68811C27.7636 3.67081 27.8921 3.83985 27.8967 4.03138C27.9012 4.21194 27.8319 4.37844 27.6118 4.40727Z" fill="#303144"/>
<path d="M12.5943 14.7907C12.5235 14.9603 12.5014 15.1578 12.2772 15.1551C11.9852 15.1517 11.9403 14.9284 11.9383 14.7089C11.9366 14.521 12.0407 14.3833 12.2466 14.3758C12.5493 14.3645 12.5668 14.5887 12.5943 14.7907Z" fill="#303144"/>
<path d="M18.41 14.3518C18.4352 14.1357 18.4491 13.9048 18.7478 13.9027C18.9716 13.9013 19.0285 14.0876 19.0437 14.252C19.0641 14.4743 19.0195 14.6957 18.7194 14.6909C18.5086 14.6877 18.4379 14.5351 18.41 14.3518Z" fill="#303144"/>
<path d="M12.4623 18.7903C12.6834 18.78 12.7708 18.9141 12.8051 19.096C12.8483 19.3245 12.8141 19.535 12.5456 19.583C12.3487 19.6181 12.223 19.5011 12.2027 19.2983C12.1802 19.074 12.2228 18.8781 12.4623 18.7903Z" fill="#303144"/>
<path d="M16.9267 12.9325C16.6209 12.8206 16.5161 12.6243 16.5922 12.4109C16.6344 12.2923 16.8432 12.1408 16.9533 12.1578C17.1839 12.1934 17.3074 12.4132 17.2313 12.6375C17.1877 12.766 17.0157 12.851 16.9267 12.9325Z" fill="#303144"/>
</g>
<defs>
<clipPath id="clip0_202_15280">
<rect width="37" height="30" fill="white"/>
</clipPath>
</defs>
</svg>
