<svg width="36" height="34" viewBox="0 0 36 34" fill="none" xmlns="http://www.w3.org/2000/svg">
<g clip-path="url(#clip0_202_15751)">
<path d="M0.602583 1.60735C2.47051 0.9347 6.16887 0.152 10.364 2.25045C11.4947 2.87749 12.5623 3.6709 13.4754 4.55304C14.9472 4.28713 16.4634 4.15289 18.0023 4.15289C22.6083 4.15289 26.9754 5.35993 30.2991 7.55103C32.0193 8.68683 33.3876 10.0335 34.364 11.5546C35.4503 13.2502 36.0023 15.0722 36.001 17.027C36.001 18.9281 35.4503 20.7526 34.3626 22.447C33.3863 23.9695 32.018 25.3148 30.2978 26.4506C26.9754 28.6417 22.6083 29.8474 18.001 29.8474C16.462 29.8474 14.9459 29.713 13.4741 29.4472C12.561 30.3293 11.4934 31.1228 10.3626 31.7498C6.1661 33.8483 2.46917 33.0655 0.601244 32.3915C-0.0124095 32.17 -0.200483 31.3913 0.25206 30.9227C1.56944 29.5587 3.74897 26.8614 3.21314 24.4099C1.13037 22.2765 0.000976562 19.7041 0.000976562 16.9746C0.000976562 14.2962 1.13037 11.7237 3.21448 9.58905C3.75031 7.1375 1.57078 4.44155 0.253399 3.07752C-0.200483 2.60891 -0.0110708 1.82889 0.602583 1.60735ZM17.8143 7.74302C9.73281 7.74302 3.18092 11.9829 3.18092 17.2122C3.18092 19.4906 4.42439 21.5824 6.49779 23.2163C7.08199 25.0785 6.7396 27.1783 5.47185 29.5143C5.41142 29.6272 5.355 29.7399 5.29324 29.8514C6.38104 29.7614 7.4808 29.462 8.59404 28.9156C9.43468 28.443 10.2404 27.8428 10.928 27.1796L12.193 25.9592C13.924 26.425 15.8228 26.6828 17.8143 26.6828C25.8958 26.6828 32.4477 22.4443 32.449 17.2122C32.449 11.9829 25.8958 7.74302 17.8143 7.74302ZM10.8125 15.0359C12.0037 15.0359 12.9692 15.9971 12.9692 17.1827C12.9692 18.3682 12.0037 19.3295 10.8125 19.3295C9.62142 19.3295 8.6559 18.3682 8.6559 17.1827C8.6559 15.9971 9.62142 15.0359 10.8125 15.0359ZM17.7552 15.0359C18.9463 15.0359 19.9119 15.9971 19.9119 17.1827C19.9119 18.3682 18.9463 19.3295 17.7552 19.3295C16.5641 19.3295 15.5986 18.3682 15.5986 17.1827C15.5986 15.9971 16.5641 15.0359 17.7552 15.0359ZM24.6979 15.0359C25.8876 15.0359 26.8545 15.9971 26.8545 17.1827C26.8545 18.3682 25.889 19.3295 24.6979 19.3295C23.5067 19.3295 22.5412 18.3682 22.5412 17.1827C22.5412 15.9971 23.5067 15.0359 24.6979 15.0359Z" fill="#F5455C"/>
</g>
<defs>
<clipPath id="clip0_202_15751">
<rect width="36.001" height="34" fill="white"/>
</clipPath>
</defs>
</svg>
