<svg width="37" height="32" viewBox="0 0 37 32" fill="none" xmlns="http://www.w3.org/2000/svg">
<g clip-path="url(#clip0_202_15463)">
<path d="M36.0076 1.8745C36.0071 1.81661 36.0013 1.75889 35.9903 1.70204C35.9903 1.6848 35.9817 1.66928 35.9765 1.65203C35.9714 1.63479 35.9541 1.57443 35.9403 1.53649L35.9144 1.4813C35.8984 1.44839 35.8799 1.41669 35.8593 1.38645C35.8472 1.36748 35.8351 1.34851 35.8213 1.32954L35.7972 1.29677C35.7834 1.28125 35.7679 1.26918 35.7541 1.25539L35.7196 1.214L35.692 1.19503C35.6667 1.17341 35.6402 1.15326 35.6126 1.13467L35.5454 1.09155C35.5157 1.07601 35.4852 1.06219 35.454 1.05016L35.3816 1.02085C35.3488 1.0105 35.3143 1.00533 35.2815 0.998427L35.2074 0.982906C35.1666 0.980307 35.1257 0.980307 35.0849 0.982906H35.016C34.5538 1.0243 28.4471 1.60719 21.5834 4.66827C17.4617 6.50147 14.2713 9.31594 12.264 12.7323L11.7466 12.9565C4.39828 16.2366 0.00756836 22.6122 0.00756836 30.0123V30.1364C0.00756836 30.4842 0.209666 30.8002 0.524934 30.947C0.643449 31.0013 0.772244 31.0298 0.90261 31.0298H25.2964C25.3438 31.0298 25.3911 31.026 25.4378 31.0177L25.4999 31.0022C25.5292 30.9935 25.5585 30.9884 25.5878 30.978C25.6171 30.9677 25.6309 30.9573 25.6534 30.947C25.6758 30.9366 25.7051 30.9263 25.7292 30.9125C25.7748 30.8856 25.818 30.855 25.8586 30.8211L35.6885 22.5329C35.892 22.3619 36.0084 22.1089 36.0058 21.8431V1.8745H36.0076ZM27.1192 27.4168L26.1759 28.2118V10.5783L34.2192 3.7991V21.4326L27.1192 27.4168ZM11.0602 22.7416H24.3875V29.2414H3.34802L11.0602 22.7416ZM22.3095 6.30315C25.4509 4.91998 28.737 3.89209 32.1066 3.23862L24.917 9.30042C21.5983 9.70534 18.3343 10.4739 15.1836 11.5923C16.9634 9.41941 19.3639 7.61725 22.3095 6.30315ZM13.4746 14.1636C16.9757 12.7225 20.6409 11.7175 24.3875 11.1716V20.9532H11.6466C11.7384 18.5815 12.3632 16.2609 13.4746 14.1636ZM11.0205 15.3053C10.267 17.2605 9.86649 19.334 9.83751 21.4292L1.90457 28.1239C2.50472 22.6847 5.7348 18.1353 11.0205 15.3053Z" fill="#3C72FF"/>
</g>
<defs>
<clipPath id="clip0_202_15463">
<rect width="37" height="32" fill="white"/>
</clipPath>
</defs>
</svg>
