<svg width="32" height="41" viewBox="0 0 32 41" fill="none" xmlns="http://www.w3.org/2000/svg">
<g clip-path="url(#clip0_202_9173)">
<path d="M31.3074 13.1748C31.3074 10.8199 30.6907 8.61213 29.6043 6.69876C26.7237 3.73407 20.458 3.04722 18.902 6.68474C17.304 10.4134 21.5864 14.5625 23.4577 14.2331C25.8406 13.8126 23.0372 8.3458 23.0372 8.3458C26.6817 15.2143 25.8406 13.1117 19.2525 19.4196C12.6643 25.7274 5.93592 39.0369 4.9547 39.5976C4.91265 39.6256 4.87059 39.6467 4.82153 39.6677H30.6626C31.1182 39.6677 31.4126 39.1841 31.2093 38.7776L24.4529 25.405C24.3057 25.1176 24.4109 24.7602 24.6912 24.599C28.6441 22.3282 31.3074 18.0669 31.3074 13.1748Z" fill="url(#paint0_linear_202_9173)"/>
<path d="M31.3074 13.1748C31.3074 10.8199 30.6907 8.61213 29.6043 6.69876C26.7237 3.73407 20.458 3.04722 18.902 6.68474C17.304 10.4134 21.5864 14.5625 23.4577 14.2331C25.8406 13.8126 23.0372 8.3458 23.0372 8.3458C26.6817 15.2143 25.8406 13.1117 19.2525 19.4196C12.6643 25.7274 5.93592 39.0369 4.9547 39.5976C4.91265 39.6256 4.87059 39.6467 4.82153 39.6677H30.6626C31.1182 39.6677 31.4126 39.1841 31.2093 38.7776L24.4529 25.405C24.3057 25.1176 24.4109 24.7602 24.6912 24.599C28.6441 22.3282 31.3074 18.0669 31.3074 13.1748Z" fill="url(#paint1_linear_202_9173)"/>
<path d="M4.95434 39.5976C5.93556 39.0369 12.6639 25.7203 19.2521 19.4125C25.8403 13.1047 26.6813 15.2073 23.0368 8.33875C23.0368 8.33875 9.08948 27.893 4.04321 37.565" fill="url(#paint2_linear_202_9173)"/>
<path d="M6.91715 22.0758C16.3369 4.75727 17.5704 3.0121 22.4765 3.0121C25.0557 3.0121 27.6559 4.17555 29.338 6.24312C27.0461 2.54953 22.9881 0.0754581 18.3413 0.00537109H2.34047C2.00405 0.00537109 1.73071 0.27871 1.73071 0.615128V32.8692C2.6839 30.4091 4.30291 26.8908 6.91715 22.0758Z" fill="url(#paint3_linear_202_9173)"/>
<path d="M19.2521 19.4126C12.6639 25.7204 5.93556 39.0369 4.95434 39.5976C3.97312 40.1583 2.32607 40.2284 1.44999 39.2472C0.517829 38.2029 -0.932972 36.5138 6.91678 22.0759C16.3365 4.75738 17.57 3.01221 22.4761 3.01221C25.0553 3.01221 27.6555 4.17565 29.3376 6.24322C29.4287 6.3904 29.5198 6.54459 29.611 6.69879C26.7304 3.7341 20.4646 3.04725 18.9087 6.68477C17.3107 10.4134 21.593 14.5626 23.4643 14.2331C25.8473 13.8126 23.0438 8.34583 23.0438 8.34583C26.6813 15.2074 25.8403 13.1047 19.2521 19.4126Z" fill="url(#paint4_linear_202_9173)"/>
<path opacity="0.3" d="M7.68773 22.8468C17.1074 5.52833 18.341 3.78316 23.2471 3.78316C25.3707 3.78316 27.5083 4.57515 29.1344 6.00492C27.4523 4.08454 24.9572 3.01221 22.4761 3.01221C17.57 3.01221 16.3365 4.75738 6.91678 22.0759C-0.932972 36.5138 0.517829 38.2029 1.44999 39.2472C1.58315 39.3944 1.73734 39.5205 1.89854 39.6257C1.07853 38.4342 0.714073 35.6658 7.68773 22.8468Z" fill="url(#paint5_linear_202_9173)"/>
</g>
<defs>
<linearGradient id="paint0_linear_202_9173" x1="11.9262" y1="21.3085" x2="22.8626" y2="22.7349" gradientUnits="userSpaceOnUse">
<stop stop-color="#FF6533"/>
<stop offset="0.157" stop-color="#FF5633"/>
<stop offset="0.434" stop-color="#FF4333"/>
<stop offset="0.714" stop-color="#FF3733"/>
<stop offset="1" stop-color="#FF3333"/>
</linearGradient>
<linearGradient id="paint1_linear_202_9173" x1="10.238" y1="17.7306" x2="31.9982" y2="27.1441" gradientUnits="userSpaceOnUse">
<stop stop-color="#BF3338"/>
<stop offset="1" stop-color="#FF3333"/>
</linearGradient>
<linearGradient id="paint2_linear_202_9173" x1="10.8687" y1="20.685" x2="14.2956" y2="22.3301" gradientUnits="userSpaceOnUse">
<stop stop-color="#FF6533"/>
<stop offset="0.157" stop-color="#FF5633"/>
<stop offset="0.434" stop-color="#FF4333"/>
<stop offset="0.714" stop-color="#FF3733"/>
<stop offset="1" stop-color="#FF3333"/>
</linearGradient>
<linearGradient id="paint3_linear_202_9173" x1="15.9662" y1="25.7523" x2="14.7777" y2="13.7317" gradientUnits="userSpaceOnUse">
<stop stop-color="#FF6533"/>
<stop offset="0.157" stop-color="#FF5633"/>
<stop offset="0.434" stop-color="#FF4333"/>
<stop offset="0.714" stop-color="#FF3733"/>
<stop offset="1" stop-color="#FF3333"/>
</linearGradient>
<linearGradient id="paint4_linear_202_9173" x1="12.3222" y1="20.4785" x2="16.6778" y2="22.2876" gradientUnits="userSpaceOnUse">
<stop stop-color="#FBB040"/>
<stop offset="1" stop-color="#FB8840"/>
</linearGradient>
<linearGradient id="paint5_linear_202_9173" x1="16.4019" y1="5.16794" x2="9.72153" y2="49.4893" gradientUnits="userSpaceOnUse">
<stop stop-color="white"/>
<stop offset="1" stop-color="white" stop-opacity="0"/>
</linearGradient>
<clipPath id="clip0_202_9173">
<rect width="32" height="41" fill="white"/>
</clipPath>
</defs>
</svg>
