<svg width="37" height="37" viewBox="0 0 37 37" fill="none" xmlns="http://www.w3.org/2000/svg">
<g clip-path="url(#clip0_202_9602)">
<path d="M5.40597 21.6036V36.0024H0.00641772V21.6036H5.40597ZM36.0034 21.6036V36.0024H30.6039V21.6036H36.0034ZM12.7144 3.3461L14.1402 6.31985C14.257 6.56178 14.265 6.84203 14.1623 7.09024C14.0596 7.33845 13.8559 7.53107 13.6023 7.61974C8.81568 9.3196 5.40297 13.7132 5.40297 18.8658V19.8087H0.00341797V18.8658C0.00341797 11.5664 4.79102 5.33693 11.5375 2.86714C11.9946 2.69933 12.5043 2.90678 12.7144 3.3461ZM24.4674 2.85414C31.2158 5.33193 36.0034 11.5644 36.0034 18.8608V19.8037H30.6039V18.8608C30.6039 13.7082 27.1952 9.3156 22.4046 7.61474C22.151 7.52607 21.9473 7.33346 21.8445 7.08524C21.7418 6.83703 21.7498 6.55678 21.8666 6.31485L23.2905 3.3331C23.5005 2.89378 24.0103 2.68633 24.4674 2.85414Z" fill="#27272A"/>
<path d="M18.0049 8.57566C23.9684 8.57566 28.804 13.1803 28.804 18.8608V36.0024H23.4045V18.8608C23.4045 16.02 20.9867 13.7182 18.0049 13.7182C15.0232 13.7182 12.6054 16.018 12.6054 18.8608V36.0024H7.20581V18.8608C7.20581 13.1803 12.0414 8.57566 18.0049 8.57566ZM21.4306 0.237354C21.7294 0.278036 21.9908 0.45884 22.1342 0.724023C22.2777 0.989207 22.286 1.30693 22.1566 1.57924L21.8976 2.1212L19.8928 6.32085C19.7251 6.66729 19.3651 6.87847 18.9808 6.8558C18.6575 6.8378 18.3322 6.8288 18.0049 6.8288C17.6779 6.8288 17.352 6.8378 17.029 6.8558C16.645 6.87861 16.2852 6.66732 16.1181 6.32085L14.1122 2.1212L13.8533 1.57924C13.7238 1.30693 13.7321 0.989207 13.8756 0.724023C14.0191 0.45884 14.2805 0.278036 14.5792 0.237354C16.8525 -0.0719567 19.1573 -0.0719567 21.4306 0.237354Z" fill="#FFC905"/>
</g>
<defs>
<clipPath id="clip0_202_9602">
<rect width="37" height="37" fill="white"/>
</clipPath>
</defs>
</svg>
