<svg width="41" height="22" viewBox="0 0 41 22" fill="none" xmlns="http://www.w3.org/2000/svg">
<g clip-path="url(#clip0_202_14603)">
<path d="M0.00195312 0.967376V20.9975H28.2385L30.5698 15.9593L32.9384 21.0346H40.002V0.966187L0.00195312 0.967376Z" fill="#D9222A"/>
<path d="M36.4156 15.9549L31.5632 4.87761L31.5651 4.8769H31.5632V4.87571L31.5625 4.8769H29.6137L24.8708 15.9592H26.9608L30.5716 7.2686L34.337 15.9592L36.4156 15.9549Z" fill="white"/>
<path d="M11.0634 11.212C12.5865 10.6431 13.315 9.38529 13.2974 8.10367C13.2703 6.15828 11.7443 4.80029 9.58602 4.80029H4.91895V15.9411H6.61857V6.42712H9.48919C10.4513 6.42712 11.4845 6.92768 11.5014 8.12722C11.5159 9.19567 10.7185 9.86301 9.36714 9.92058L9.34074 9.92177L8.31106 9.93057L11.7396 15.9592L13.7473 15.9549C13.7473 15.9549 12.0979 13.0405 11.0634 11.212Z" fill="white"/>
<path d="M15.6013 7.67709C15.6013 9.8956 17.8029 10.5215 19.5147 11.004C21.2978 11.5082 21.919 12.0765 21.919 12.938C21.919 14.375 20.4616 14.5993 19.5601 14.5993C18.3223 14.5993 17.3012 14.2536 16.302 13.6367L15.4493 15.0816C16.71 15.8588 18.0166 16.2211 19.5601 16.2211C22.1386 16.2211 23.8516 14.8853 23.8516 12.8176C23.8516 10.5085 21.7677 9.86943 20.0157 9.3741C18.2312 8.86973 17.5334 8.4434 17.5334 7.58145C17.5334 6.27628 19.131 6.14948 19.7031 6.14948C20.6031 6.14948 21.7473 6.45091 22.4248 6.80063L23.1421 5.3884C22.2285 4.91591 20.827 4.59973 19.6553 4.59973C17.1623 4.59973 15.6013 5.7348 15.6013 7.67709Z" fill="white"/>
</g>
<defs>
<clipPath id="clip0_202_14603">
<rect width="41" height="22" fill="white"/>
</clipPath>
</defs>
</svg>
