<svg width="40" height="28" viewBox="0 0 40 28" fill="none" xmlns="http://www.w3.org/2000/svg">
<g clip-path="url(#clip0_202_10727)">
<path d="M4.9125 1.14005L5.51531 0.40271L8.73766 2.94724L14.1758 0.501929L17.538 5.63802L22.7939 5.2063L25.8017 0.501929L31.2645 2.99412L34.487 0.452241L35.1333 0.758491L35.2437 27.4955L34.4192 27.5202L31.3984 25.2565L25.8139 27.5202L22.8341 22.8769L17.2619 22.9372L14.213 27.4885L8.64734 25.126L5.57734 27.5257L4.83203 27.4854L4.9125 1.14005Z" fill="#B2271B"/>
<path d="M0.365352 0.266479H5.2591C5.46035 0.266479 5.62348 0.429605 5.62348 0.630854V27.3719C5.62348 27.5732 5.46035 27.7363 5.2591 27.7363H0.365352C0.164102 27.7363 0.000976562 27.5732 0.000976562 27.3719V0.630854C0.000976562 0.429605 0.164102 0.266479 0.365352 0.266479Z" fill="#D82A1F"/>
<path d="M8.98645 0.266479H13.8802C14.0814 0.266479 14.2446 0.429605 14.2446 0.630854V27.3719C14.2446 27.5732 14.0814 27.7363 13.8802 27.7363H8.98645C8.7852 27.7363 8.62207 27.5732 8.62207 27.3719V0.630854C8.62207 0.429605 8.7852 0.266479 8.98645 0.266479Z" fill="#D82A1F"/>
<path d="M17.5538 0.266479H22.4476C22.6488 0.266479 22.812 0.429605 22.812 0.630854V27.3719C22.812 27.5732 22.6488 27.7363 22.4476 27.7363H17.5538C17.3526 27.7363 17.1895 27.5732 17.1895 27.3719V0.630854C17.1895 0.429605 17.3526 0.266479 17.5538 0.266479Z" fill="#D82A1F"/>
<path d="M26.1222 0.266479H31.0159C31.2172 0.266479 31.3803 0.429605 31.3803 0.630854V27.3719C31.3803 27.5732 31.2172 27.7363 31.0159 27.7363H26.1222C25.9209 27.7363 25.7578 27.5732 25.7578 27.3719V0.630854C25.7578 0.429605 25.9209 0.266479 26.1222 0.266479Z" fill="#D82A1F"/>
<path d="M34.7423 0.266479H39.6361C39.8373 0.266479 40.0004 0.429605 40.0004 0.630854V27.3719C40.0004 27.5732 39.8373 27.7363 39.6361 27.7363H34.7423C34.5411 27.7363 34.3779 27.5732 34.3779 27.3719V0.630854C34.3779 0.429605 34.5411 0.266479 34.7423 0.266479Z" fill="#D82A1F"/>
</g>
<defs>
<clipPath id="clip0_202_10727">
<rect width="40.0004" height="28" fill="white"/>
</clipPath>
</defs>
</svg>
