<svg width="32" height="36" viewBox="0 0 32 36" fill="none" xmlns="http://www.w3.org/2000/svg">
<g clip-path="url(#clip0_202_13356)">
<path d="M30.411 15.3896V14.2316C30.411 12.9644 29.3743 11.9274 28.1068 11.9274H3.8955C2.62832 11.9274 1.59131 12.9644 1.59131 14.2316V15.3896C1.05492 15.7188 0.693848 16.3088 0.693848 16.9809V20.0788C0.693848 20.7509 1.05492 21.3412 1.59131 21.6704V22.8723C1.59131 24.1395 2.62832 25.1765 3.8955 25.1765H28.1068C29.3743 25.1765 30.411 24.1395 30.411 22.8723V21.6704C30.9477 21.3412 31.3085 20.7509 31.3085 20.0788V16.9809C31.3085 16.3088 30.9477 15.7185 30.411 15.3896ZM16.0918 0.000915527C9.56653 0.000915527 4.18353 4.87645 3.3773 11.1826H28.8063C28.0001 4.87645 22.6171 0.000915527 16.0918 0.000915527ZM12.1707 28.3716H19.7401L20.5129 29.2663L21.6755 28.2624L20.4432 26.8354H11.4673L10.235 28.2624L11.3975 29.2663L12.1707 28.3716ZM25.2775 25.6428V30.544C25.2775 31.8911 24.1752 32.9934 22.8282 32.9934H21.4951V32.9886C21.2032 32.9886 20.9456 32.852 20.7738 32.6424H20.7705L19.1766 30.6063L19.1748 30.6078C19.0045 30.3871 18.741 30.2422 18.4413 30.2401C18.4392 30.2401 18.4374 30.2395 18.4353 30.2395C18.4336 30.2395 18.4318 30.2401 18.4297 30.2401H13.8147C13.8126 30.2401 13.8109 30.2395 13.8091 30.2395C13.807 30.2395 13.8052 30.2401 13.8031 30.2401C13.5255 30.2419 13.2795 30.3669 13.109 30.5601L13.1057 30.5586L11.4745 32.6424H11.4721C11.3003 32.852 11.0427 32.9886 10.7508 32.9886V32.9934H9.41656C8.06946 32.9934 6.96716 31.8911 6.96716 30.544V25.6428H3.97362V30.558C3.97362 33.5515 6.42302 36.0009 9.41656 36.0009H22.829C25.8229 36.0009 28.272 33.5515 28.272 30.558V25.6428H25.2775Z" fill="#0A0B09"/>
<path d="M25.9011 20.0464H6.10111C5.16597 20.0464 4.40088 19.2813 4.40088 18.3462C4.40088 17.411 5.16597 16.6459 6.10111 16.6459H25.9011C26.8359 16.6459 27.601 17.411 27.601 18.3462C27.601 19.2813 26.8359 20.0464 25.9011 20.0464Z" fill="#D7252C"/>
</g>
<defs>
<clipPath id="clip0_202_13356">
<rect width="32" height="36.0009" fill="white"/>
</clipPath>
</defs>
</svg>
