<svg width="37" height="37" viewBox="0 0 37 37" fill="none" xmlns="http://www.w3.org/2000/svg">
<g clip-path="url(#clip0_202_10822)">
<path d="M29.882 0.0045166L19.6811 3.72545L11.5221 0.0045166L3.60205 20.0436L12.723 16.3255L12.6021 26.5236L32.163 26.8836L36.002 7.08358L29.882 0.0045166Z" fill="url(#paint0_linear_202_10822)"/>
<path d="M26.161 11.6454L13.201 3.12354L2.76099 9.60354L25.6829 18.4854L26.161 11.6454Z" fill="url(#paint1_linear_202_10822)"/>
<path d="M15.001 35.0454L28.442 33.2454L24.122 24.9654L27.002 21.6045L27.241 19.4445L13.201 3.12354L0.00195312 6.36354V25.3254L7.56195 36.0045L15.001 35.0454Z" fill="url(#paint2_linear_202_10822)"/>
<path d="M30 6.00354H6.00098V30.0026H30V6.00354Z" fill="black"/>
<path d="M17.7629 8.4054H20.162L22.682 12.9645L25.3229 8.4054H27.601V19.2054H25.441V12.1235L22.682 16.8035L19.9229 12.2445V19.2054H17.7629V8.4054ZM8.40292 8.4054H12.841C14.041 8.4054 15.001 8.7654 15.721 9.48539C16.3201 10.0845 16.5648 10.9254 16.5648 12.0166C16.5674 12.778 16.3601 13.5254 15.9657 14.1766C15.6188 14.7625 15.06 15.1925 14.4048 15.3776L16.8039 19.2166H14.2726L12.242 15.8445H10.442V19.2054H8.28198V8.4054H8.40292ZM12.7229 13.6845C13.1535 13.713 13.58 13.5852 13.9239 13.3245C14.2232 13.044 14.3966 12.6546 14.4048 12.2445C14.4284 11.793 14.2525 11.3539 13.9239 11.0435C13.5788 10.7858 13.1525 10.661 12.7229 10.692H10.5629V13.8054H12.7229V13.6845ZM8.40292 26.0454H17.4029V27.4854H8.40292V26.0454Z" fill="white"/>
</g>
<defs>
<linearGradient id="paint0_linear_202_10822" x1="25.5114" y1="27.0214" x2="18.4513" y2="2.84663" gradientUnits="userSpaceOnUse">
<stop offset="0.17" stop-color="#FF1F51"/>
<stop offset="0.28" stop-color="#FF3648"/>
<stop offset="0.47" stop-color="#FF593B"/>
<stop offset="0.65" stop-color="#FF7231"/>
<stop offset="0.81" stop-color="#FF812B"/>
<stop offset="0.94" stop-color="#FF8629"/>
</linearGradient>
<linearGradient id="paint1_linear_202_10822" x1="17.161" y1="6.64197" x2="15.2845" y2="17.6056" gradientUnits="userSpaceOnUse">
<stop offset="0.02" stop-color="#9039D0"/>
<stop offset="0.63" stop-color="#FF1F51"/>
</linearGradient>
<linearGradient id="paint2_linear_202_10822" x1="0.136953" y1="5.77572" x2="26.9754" y2="31.3014" gradientUnits="userSpaceOnUse">
<stop offset="0.11" stop-color="#9039D0"/>
<stop offset="0.39" stop-color="#FF1F51"/>
<stop offset="0.63" stop-color="#FF1F51"/>
<stop offset="0.66" stop-color="#FF3648"/>
<stop offset="0.71" stop-color="#FF593B"/>
<stop offset="0.77" stop-color="#FF7231"/>
<stop offset="0.81" stop-color="#FF812B"/>
<stop offset="0.85" stop-color="#FF8629"/>
</linearGradient>
<clipPath id="clip0_202_10822">
<rect width="37" height="37" fill="white"/>
</clipPath>
</defs>
</svg>
