<svg width="37" height="36" viewBox="0 0 37 36" fill="none" xmlns="http://www.w3.org/2000/svg">
<g clip-path="url(#clip0_202_14639)">
<path d="M27.8974 23.7457L7.34363 35.9504L33.9569 34.1445L36.0066 7.30923L27.8974 23.7457Z" fill="url(#paint0_linear_202_14639)"/>
<path d="M34.0005 34.1262L31.7131 18.3383L25.4824 26.5657L34.0005 34.1262Z" fill="url(#paint1_linear_202_14639)"/>
<path d="M34.0313 34.1262L17.2734 32.8107L7.43262 35.9161L34.0313 34.1262Z" fill="url(#paint2_linear_202_14639)"/>
<path d="M7.45627 35.9195L11.6426 22.2049L2.43048 24.1747L7.45627 35.9195Z" fill="url(#paint3_linear_202_14639)"/>
<path d="M25.4808 26.6111L21.6288 11.5228L10.6051 21.856L25.4808 26.6111Z" fill="url(#paint4_linear_202_14639)"/>
<path d="M35.1326 11.7354L24.7122 3.22464L21.8104 12.6058L35.1326 11.7354Z" fill="url(#paint5_linear_202_14639)"/>
<path d="M30.2595 0.190261L24.1308 3.57713L20.2642 0.144836L30.2595 0.190261Z" fill="url(#paint6_linear_202_14639)"/>
<path d="M0.0065918 28.7751L2.574 24.0927L0.497179 18.5146L0.0065918 28.7751Z" fill="url(#paint7_linear_202_14639)"/>
<path d="M0.35907 18.3383L2.44861 24.2654L11.5281 22.2283L21.894 12.5947L24.8194 3.30276L20.2131 0.050354L12.3819 2.98116C9.91461 5.27601 5.12685 9.81667 4.95423 9.90207C4.78344 9.98928 1.79267 15.6419 0.35907 18.3383Z" fill="white"/>
<path d="M7.69612 7.6908C13.0435 2.38883 19.9372 -0.743661 22.5827 1.9255C25.2266 4.59465 22.4228 11.0813 17.0754 16.3815C11.728 21.6816 4.91976 24.9867 2.27604 22.3176C-0.369496 19.6502 2.34872 12.991 7.69612 7.6908Z" fill="url(#paint8_linear_202_14639)"/>
<path d="M7.45624 35.9141L11.6099 22.1559L25.4045 26.5875C20.4168 31.2644 14.8696 35.2182 7.45624 35.9141Z" fill="url(#paint9_linear_202_14639)"/>
<path d="M21.9122 12.5676L25.4535 26.5947C29.6199 22.214 33.3593 17.5043 35.1906 11.6791L21.9122 12.5676Z" fill="url(#paint10_linear_202_14639)"/>
<path d="M35.1544 11.75C36.5717 7.47276 36.8987 1.33679 30.2157 0.19754L24.732 3.22646L35.1544 11.75Z" fill="url(#paint11_linear_202_14639)"/>
<path d="M0.0065918 28.7134C0.202827 35.7725 5.29585 35.8777 7.46533 35.9397L2.45408 24.2363L0.0065918 28.7134Z" fill="#9E1209"/>
<path d="M21.932 12.5894C25.1335 14.5572 31.5859 18.5091 31.7167 18.5818C31.92 18.6963 34.4985 14.2338 35.0836 11.7118L21.932 12.5894Z" fill="url(#paint12_radial_202_14639)"/>
<path d="M11.6044 22.1559L17.1571 32.8688C20.4404 31.0882 23.0115 28.9187 25.3663 26.5948L11.6044 22.1559Z" fill="url(#paint13_radial_202_14639)"/>
<path d="M2.43226 24.2508L1.64551 33.6192C3.12999 35.647 5.17228 35.8232 7.31451 35.6652C5.76462 31.8077 2.66847 24.0946 2.43226 24.2508Z" fill="url(#paint14_linear_202_14639)"/>
<path d="M24.6995 3.25006L35.7304 4.79813C35.1417 2.3034 33.3338 0.693552 30.2522 0.190247L24.6995 3.25006Z" fill="url(#paint15_linear_202_14639)"/>
</g>
<defs>
<linearGradient id="paint0_linear_202_14639" x1="31.6356" y1="39.2153" x2="24.0498" y2="25.8018" gradientUnits="userSpaceOnUse">
<stop stop-color="#FB7655"/>
<stop offset="0.41" stop-color="#E42B1E"/>
<stop offset="0.99" stop-color="#990000"/>
<stop offset="1" stop-color="#990000"/>
</linearGradient>
<linearGradient id="paint1_linear_202_14639" x1="35.4188" y1="27.9516" x2="24.755" y2="25.8685" gradientUnits="userSpaceOnUse">
<stop stop-color="#871101"/>
<stop offset="0.99" stop-color="#911209"/>
<stop offset="1" stop-color="#911209"/>
</linearGradient>
<linearGradient id="paint2_linear_202_14639" x1="27.5876" y1="39.6217" x2="27.4502" y2="32.8578" gradientUnits="userSpaceOnUse">
<stop stop-color="#871101"/>
<stop offset="0.99" stop-color="#911209"/>
<stop offset="1" stop-color="#911209"/>
</linearGradient>
<linearGradient id="paint3_linear_202_14639" x1="7.03769" y1="23.1971" x2="10.2083" y2="32.4942" gradientUnits="userSpaceOnUse">
<stop stop-color="white"/>
<stop offset="0.23" stop-color="#E57252"/>
<stop offset="0.46" stop-color="#DE3B20"/>
<stop offset="0.99" stop-color="#A60003"/>
<stop offset="1" stop-color="#A60003"/>
</linearGradient>
<linearGradient id="paint4_linear_202_14639" x1="17.4738" y1="13.9894" x2="18.0489" y2="24.0522" gradientUnits="userSpaceOnUse">
<stop stop-color="white"/>
<stop offset="0.23" stop-color="#E4714E"/>
<stop offset="0.56" stop-color="#BE1A0D"/>
<stop offset="0.99" stop-color="#A80D00"/>
<stop offset="1" stop-color="#A80D00"/>
</linearGradient>
<linearGradient id="paint5_linear_202_14639" x1="26.735" y1="4.6875" x2="27.5759" y2="11.9959" gradientUnits="userSpaceOnUse">
<stop stop-color="white"/>
<stop offset="0.18" stop-color="#E46342"/>
<stop offset="0.4" stop-color="#C82410"/>
<stop offset="0.99" stop-color="#A80D00"/>
<stop offset="1" stop-color="#A80D00"/>
</linearGradient>
<linearGradient id="paint6_linear_202_14639" x1="21.6244" y1="2.14743" x2="22.8101" y2="-2.87987" gradientUnits="userSpaceOnUse">
<stop stop-color="white"/>
<stop offset="0.54" stop-color="#C81F11"/>
<stop offset="0.99" stop-color="#BF0905"/>
<stop offset="1" stop-color="#BF0905"/>
</linearGradient>
<linearGradient id="paint7_linear_202_14639" x1="0.715817" y1="20.6831" x2="3.81644" y2="22.6268" gradientUnits="userSpaceOnUse">
<stop stop-color="white"/>
<stop offset="0.31" stop-color="#DE4024"/>
<stop offset="0.99" stop-color="#BF190B"/>
<stop offset="1" stop-color="#BF190B"/>
</linearGradient>
<linearGradient id="paint8_linear_202_14639" x1="-3.36493" y1="28.2327" x2="24.4978" y2="-0.499736" gradientUnits="userSpaceOnUse">
<stop stop-color="#BD0012"/>
<stop offset="0.07" stop-color="white"/>
<stop offset="0.17" stop-color="white"/>
<stop offset="0.27" stop-color="#C82F1C"/>
<stop offset="0.33" stop-color="#820C01"/>
<stop offset="0.46" stop-color="#A31601"/>
<stop offset="0.72" stop-color="#B31301"/>
<stop offset="0.99" stop-color="#E82609"/>
<stop offset="1" stop-color="#E82609"/>
</linearGradient>
<linearGradient id="paint9_linear_202_14639" x1="18.0083" y1="31.1269" x2="10.1233" y2="27.815" gradientUnits="userSpaceOnUse">
<stop stop-color="#8C0C01"/>
<stop offset="0.54" stop-color="#990C00"/>
<stop offset="0.99" stop-color="#A80D0E"/>
<stop offset="1" stop-color="#A80D0E"/>
</linearGradient>
<linearGradient id="paint10_linear_202_14639" x1="32.4446" y1="21.0392" x2="24.3224" y2="15.27" gradientUnits="userSpaceOnUse">
<stop stop-color="#7E110B"/>
<stop offset="0.99" stop-color="#9E0C00"/>
<stop offset="1" stop-color="#9E0C00"/>
</linearGradient>
<linearGradient id="paint11_linear_202_14639" x1="35.1878" y1="8.76046" x2="31.3682" y2="4.88308" gradientUnits="userSpaceOnUse">
<stop stop-color="#79130D"/>
<stop offset="0.99" stop-color="#9E120B"/>
<stop offset="1" stop-color="#9E120B"/>
</linearGradient>
<radialGradient id="paint12_radial_202_14639" cx="0" cy="0" r="1" gradientUnits="userSpaceOnUse" gradientTransform="translate(26.1406 14.4751) scale(9.14992 4.78119)">
<stop stop-color="#A80D00"/>
<stop offset="0.99" stop-color="#7E0E08"/>
<stop offset="1" stop-color="#7E0E08"/>
</radialGradient>
<radialGradient id="paint13_radial_202_14639" cx="0" cy="0" r="1" gradientUnits="userSpaceOnUse" gradientTransform="translate(13.4691 26.5332) scale(12.1636 9.46878)">
<stop stop-color="#A30C00"/>
<stop offset="0.99" stop-color="#800E08"/>
<stop offset="1" stop-color="#800E08"/>
</radialGradient>
<linearGradient id="paint14_linear_202_14639" x1="4.85248" y1="35.9061" x2="-1.99565" y2="30.2216" gradientUnits="userSpaceOnUse">
<stop stop-color="#8B2114"/>
<stop offset="0.43" stop-color="#9E100A"/>
<stop offset="0.99" stop-color="#B3100C"/>
<stop offset="1" stop-color="#B3100C"/>
</linearGradient>
<linearGradient id="paint15_linear_202_14639" x1="28.1047" y1="1.83061" x2="30.0485" y2="6.74785" gradientUnits="userSpaceOnUse">
<stop stop-color="#B31000"/>
<stop offset="0.44" stop-color="#910F08"/>
<stop offset="0.99" stop-color="#791C12"/>
<stop offset="1" stop-color="#791C12"/>
</linearGradient>
<clipPath id="clip0_202_14639">
<rect width="37" height="36" fill="white"/>
</clipPath>
</defs>
</svg>
