<svg width="36" height="37" viewBox="0 0 36 37" fill="none" xmlns="http://www.w3.org/2000/svg">
<g clip-path="url(#clip0_202_15329)">
<path d="M30.9764 16.8461L30.9924 16.9324C31.0368 17.1514 31.2288 17.318 31.4603 17.318C31.4815 17.318 34.2584 17.3184 34.2584 17.3184C34.5186 17.3133 34.7259 17.0952 34.7259 16.834C34.5298 15.4229 34.1606 14.0703 33.6404 12.7955L35.1157 11.5914C35.3197 11.4249 35.3745 11.1046 35.2373 10.8798L33.6608 8.29729C33.5236 8.07251 33.2139 7.9748 32.9725 8.08013L30.9224 8.97501C30.1299 7.94806 29.2179 7.0182 28.2068 6.20666L29.0421 4.15802C29.1416 3.91412 29.0362 3.60687 28.8082 3.47517L26.1879 1.96231C25.9599 1.83061 25.6411 1.89308 25.4796 2.10112L24.1456 3.81978C22.9569 3.33648 21.6983 2.98963 20.389 2.79846L20.0713 0.482422C20.0355 0.221531 19.7907 0.00537109 19.5273 0.00537109H16.5017C16.2383 0.00537109 15.9935 0.221531 15.9577 0.482422L15.6411 2.78934C14.3311 2.97588 13.0711 3.31762 11.881 3.79629L10.5413 2.07051C10.3798 1.86247 10.061 1.80012 9.83298 1.93182L7.2127 3.44469C6.98467 3.57638 6.87934 3.88375 6.97879 4.12765L7.8117 6.1703C6.79787 6.97809 5.88288 7.9042 5.08696 8.92778L3.01957 8.04377C2.77742 7.94019 2.46842 8.04027 2.33298 8.26605L0.775879 10.8602C0.64031 11.0861 0.697412 11.4059 0.902701 11.5708L2.35435 12.7376C1.82169 14.0294 1.44285 15.401 1.24481 16.8306C1.24431 17.095 1.4526 17.3133 1.71261 17.3184H4.44797C4.77709 17.3075 4.97325 17.1097 4.98625 16.8642C6.08854 10.6794 11.5044 5.99225 17.9862 5.99225C24.4778 5.99225 29.8811 10.6789 30.9764 16.8461Z" fill="#0A0B09"/>
<path d="M4.99748 21.3676C4.95474 21.1486 4.7637 20.9877 4.53105 20.9877C4.50993 20.9877 4.49644 20.9885 4.46807 20.9888L4.46757 20.9892H1.73321C1.47307 20.9943 1.26428 21.2054 1.26428 21.4667L1.26441 21.4683C2.40218 29.6817 9.44887 36.0055 17.9752 36.0055H17.9748C26.5011 36.0055 33.5478 29.6817 34.6856 21.4682L34.6855 21.4683L34.686 21.4655C34.686 21.2042 34.4787 20.9943 34.2185 20.9892H31.4819C31.4617 20.9865 31.4416 20.9829 31.4206 20.9829C31.1647 20.9829 30.9575 21.1841 30.9442 21.4366C30.9427 21.4411 30.9379 21.4435 30.9372 21.4477C29.8419 27.6149 24.4566 32.2956 17.9748 32.2956H17.9752C11.4934 32.2956 6.10814 27.6149 5.01284 21.4477L4.99748 21.3676Z" fill="#0A0B09"/>
<path d="M23.9694 19.1663C23.9694 15.8896 21.303 13.2329 18.014 13.2329C14.7247 13.2329 12.0587 15.8896 12.0587 19.1663C12.0587 22.4434 14.7247 25.0998 18.014 25.0998C21.303 25.0998 23.9694 22.4434 23.9694 19.1663Z" fill="#3E64A0"/>
</g>
<defs>
<clipPath id="clip0_202_15329">
<rect width="36" height="37" fill="white"/>
</clipPath>
</defs>
</svg>
