<svg width="37" height="36" viewBox="0 0 37 36" fill="none" xmlns="http://www.w3.org/2000/svg">
<g clip-path="url(#clip0_202_14777)">
<path d="M35.761 17.5588L34.2496 16.6232C34.2369 16.476 34.2225 16.3291 34.2066 16.183L35.5054 14.9716C35.6375 14.8484 35.6966 14.6661 35.6609 14.4897C35.6261 14.3126 35.502 14.1667 35.3331 14.1038L33.6728 13.4829C33.6312 13.3392 33.5875 13.1964 33.5428 13.0544L34.5785 11.616C34.684 11.4698 34.7057 11.2796 34.6369 11.1128C34.5681 10.9466 34.4178 10.8276 34.24 10.7984L32.4893 10.5136C32.4212 10.3808 32.3503 10.2501 32.2788 10.1205L33.0145 8.50562C33.0898 8.34122 33.0744 8.14998 32.9739 8.0007C32.8738 7.85074 32.7043 7.76303 32.5233 7.76991L30.7465 7.83182C30.6547 7.71694 30.5611 7.6031 30.4658 7.49131L30.8741 5.76055C30.9154 5.58479 30.8634 5.40078 30.7355 5.27317C30.6086 5.14591 30.4242 5.09328 30.2484 5.13456L28.518 5.54248C28.4059 5.44755 28.2921 5.35365 28.1768 5.26182L28.2391 3.48497C28.246 3.30508 28.1583 3.13414 28.0083 3.03439C27.858 2.93396 27.6678 2.91882 27.5037 2.99346L25.8892 3.72952C25.7589 3.65797 25.6282 3.58712 25.4961 3.51867L25.2106 1.76762C25.1817 1.59014 25.0627 1.43949 24.8962 1.3707C24.7301 1.30156 24.5395 1.32392 24.3934 1.42917L22.9539 2.46481C22.8122 2.41975 22.6698 2.37641 22.5261 2.33514L21.9052 0.674541C21.8423 0.505317 21.6964 0.381151 21.5193 0.346068C21.3425 0.311329 21.1606 0.370144 21.0378 0.501534L19.8264 1.80133C19.6802 1.78516 19.533 1.77037 19.3861 1.75833L18.4506 0.246666C18.356 0.0936075 18.1885 0.000396729 18.0083 0.000396729C17.828 0.000396729 17.6605 0.0936075 17.5663 0.246666L16.6307 1.75833C16.4835 1.77037 16.3363 1.78516 16.1901 1.80133L14.9784 0.501534C14.8556 0.370144 14.6733 0.311329 14.4969 0.346068C14.3197 0.381495 14.1739 0.505317 14.1109 0.674541L13.4901 2.33514C13.3463 2.37641 13.2039 2.42009 13.0619 2.46481L11.6228 1.42917C11.4766 1.32358 11.2861 1.30122 11.1196 1.3707C10.9535 1.43949 10.8341 1.59014 10.8052 1.76762L10.5198 3.51867C10.3877 3.58712 10.257 3.65763 10.1266 3.72952L8.51211 2.99346C8.34804 2.91848 8.15681 2.93396 8.00753 3.03439C7.85757 3.13414 7.76986 3.30508 7.77674 3.48497L7.83865 5.26182C7.72377 5.35365 7.60992 5.44755 7.49745 5.54248L5.76703 5.13456C5.59127 5.09363 5.40692 5.14591 5.27965 5.27317C5.1517 5.40078 5.09977 5.58479 5.14104 5.76055L5.54862 7.49131C5.45404 7.60344 5.36048 7.71694 5.26865 7.83182L3.49179 7.76991C3.3126 7.76475 3.14131 7.85074 3.04122 8.0007C2.94078 8.14998 2.92565 8.34122 3.00029 8.50562L3.73634 10.1205C3.6648 10.2501 3.59395 10.3808 3.5255 10.5136L1.77479 10.7984C1.59697 10.8273 1.447 10.9463 1.37787 11.1128C1.30908 11.2796 1.33144 11.4698 1.43634 11.616L2.47198 13.0544C2.42692 13.1964 2.38324 13.3392 2.34197 13.4829L0.681369 14.1038C0.512833 14.1667 0.388666 14.3126 0.353583 14.4897C0.3185 14.6665 0.377316 14.8484 0.509049 14.9716L1.80815 16.183C1.79199 16.3291 1.77754 16.4764 1.76516 16.6232L0.253837 17.5588C0.100779 17.6534 0.00756836 17.8205 0.00756836 18.0011C0.00756836 18.1817 0.100779 18.3488 0.253837 18.4431L1.76516 19.3786C1.77754 19.5258 1.79199 19.6727 1.80815 19.8189L0.509049 21.0306C0.377316 21.1534 0.3185 21.3357 0.353583 21.5121C0.388666 21.6893 0.512833 21.8348 0.681369 21.8981L2.34197 22.5189C2.38324 22.6627 2.42692 22.8054 2.47198 22.9474L1.43634 24.3862C1.33109 24.5327 1.30874 24.7229 1.37787 24.8891C1.447 25.0559 1.59731 25.1749 1.77513 25.2034L3.5255 25.4882C3.59395 25.621 3.66411 25.7517 3.73634 25.882L3.00029 27.4962C2.92531 27.6603 2.94078 27.8512 3.04122 28.0011C3.14165 28.1514 3.3126 28.2391 3.49179 28.2319L5.26796 28.1697C5.36048 28.2852 5.45369 28.3984 5.54862 28.5109L5.14104 30.242C5.09977 30.4174 5.1517 30.6007 5.27965 30.7283C5.40657 30.8566 5.59127 30.9079 5.76703 30.8666L7.49745 30.459C7.60992 30.5546 7.72377 30.6475 7.83865 30.739L7.77674 32.5162C7.76986 32.6961 7.85757 32.8667 8.00753 32.9671C8.15681 33.0672 8.34804 33.0823 8.51211 33.0073L10.1266 32.2716C10.2566 32.3439 10.3873 32.414 10.5198 32.4825L10.8052 34.2325C10.8341 34.4107 10.9531 34.5613 11.1196 34.6298C11.2857 34.6989 11.4766 34.6765 11.6228 34.5716L13.0612 33.5353C13.2033 33.5804 13.346 33.6244 13.4898 33.6657L14.1106 35.3256C14.1735 35.4941 14.3194 35.619 14.4965 35.6534C14.6733 35.6891 14.8553 35.63 14.978 35.4979L16.1898 34.1988C16.336 34.2156 16.4832 34.2297 16.6304 34.2428L17.5659 35.7541C17.6602 35.9065 17.8277 36.0004 18.0079 36.0004C18.1881 36.0004 18.3556 35.9068 18.4502 35.7541L19.3858 34.2428C19.533 34.2297 19.6799 34.2156 19.826 34.1988L21.0374 35.4979C21.1602 35.63 21.3425 35.6891 21.519 35.6534C21.6961 35.6186 21.8419 35.4941 21.9049 35.3256L22.5257 33.6657C22.6695 33.6244 22.8122 33.5804 22.9543 33.5353L24.393 34.5716C24.5392 34.6765 24.7298 34.6989 24.8959 34.6298C25.0624 34.5613 25.1814 34.4103 25.2103 34.2325L25.4957 32.4825C25.6278 32.414 25.7585 32.3428 25.8889 32.2716L27.5034 33.0073C27.6674 33.0823 27.8583 33.0672 28.008 32.9671C28.1579 32.8667 28.2453 32.6964 28.2387 32.5162L28.1768 30.739C28.2917 30.6471 28.4056 30.5546 28.5177 30.459L30.2481 30.8666C30.4239 30.9079 30.6082 30.8566 30.7351 30.7283C30.8631 30.6007 30.915 30.4174 30.8738 30.242L30.4662 28.5109C30.5611 28.3984 30.6547 28.2852 30.7461 28.1697L32.523 28.2319C32.7022 28.2391 32.8735 28.1514 32.9736 28.0011C33.074 27.8512 33.0895 27.6603 33.0142 27.4962L32.2785 25.882C32.3503 25.7517 32.4208 25.621 32.4889 25.4882L34.2397 25.2034C34.4178 25.1749 34.5678 25.0559 34.6366 24.8891C34.7054 24.7229 34.6837 24.5327 34.5781 24.3862L33.5425 22.9474C33.5872 22.8054 33.6309 22.6627 33.6725 22.5189L35.3327 21.8981C35.5016 21.8348 35.6261 21.6893 35.6605 21.5121C35.6963 21.3353 35.6371 21.1534 35.5051 21.0306L34.2063 19.8189C34.2221 19.6727 34.2366 19.5255 34.2493 19.3786L35.7606 18.4431C35.9137 18.3488 36.0069 18.1813 36.0069 18.0011C36.0069 17.8209 35.914 17.6534 35.761 17.5588ZM25.6457 30.0961C25.0685 29.9716 24.7015 29.4027 24.8254 28.8239C24.9488 28.2457 25.5174 27.8776 26.0942 28.0022C26.6714 28.1256 27.039 28.6956 26.9152 29.2734C26.7914 29.8512 26.2225 30.2196 25.6457 30.0961ZM25.1322 26.6229C24.6056 26.5101 24.0876 26.8451 23.9748 27.3727L23.4382 29.8767C21.7824 30.6282 19.9437 31.0458 18.0072 31.0458C16.0264 31.0458 14.1477 30.6076 12.4624 29.8241L11.9262 27.3201C11.8134 26.7932 11.2954 26.4575 10.7691 26.5706L8.55854 27.0453C8.14821 26.6229 7.76642 26.173 7.41559 25.698H18.1716C18.2934 25.698 18.3746 25.676 18.3746 25.5653V21.7605C18.3746 21.6497 18.2934 21.6277 18.1716 21.6277H15.0259V19.2159H18.4282C18.7388 19.2159 20.0888 19.3047 20.5205 21.0303C20.6557 21.561 20.9525 23.2873 21.1554 23.84C21.3577 24.4598 22.1811 25.698 23.0585 25.698H28.4183C28.4792 25.698 28.5442 25.6911 28.6126 25.6788C28.2408 26.184 27.8329 26.6621 27.3937 27.1089L25.1322 26.6229ZM10.2556 30.0438C9.67845 30.1684 9.11024 29.8003 8.98607 29.2222C8.86259 28.6429 9.22959 28.0744 9.80674 27.9499C10.3839 27.8264 10.9524 28.1944 11.0763 28.7726C11.1997 29.3504 10.8324 29.92 10.2556 30.0438ZM6.1753 13.4981C6.41469 14.0384 6.17118 14.6716 5.63152 14.9107C5.09186 15.1504 4.46036 14.9066 4.22097 14.3659C3.98158 13.8252 4.2251 13.193 4.76476 12.9533C5.30476 12.7139 5.93591 12.9574 6.1753 13.4981ZM4.92126 16.4708L7.22401 15.4476C7.71586 15.2292 7.93805 14.6527 7.71964 14.1598L7.24533 13.0874H9.11058V21.4949H5.34741C5.021 20.3475 4.84593 19.1365 4.84593 17.8848C4.84593 17.4071 4.87173 16.9348 4.92126 16.4708ZM15.0265 15.6543V13.1761H19.4683C19.6977 13.1761 21.0883 13.4413 21.0883 14.4811C21.0883 15.3444 20.0217 15.654 19.1447 15.654H15.0265V15.6543ZM31.1689 17.8848C31.1689 18.2136 31.1568 18.539 31.1327 18.862H29.7824C29.6472 18.862 29.5929 18.9507 29.5929 19.0832V19.7033C29.5929 21.163 28.7698 21.4805 28.0485 21.5613C27.3617 21.6387 26.6002 21.2738 26.5063 20.8535C26.1011 18.5745 25.4259 18.0878 24.3597 17.2468C25.6828 16.4065 27.0597 15.1669 27.0597 13.5077C27.0597 11.7161 25.8314 10.5876 24.9943 10.0341C23.8197 9.25991 22.5192 9.10479 22.1683 9.10479H8.2029C10.0967 6.99121 12.6633 5.49399 15.5662 4.94917L17.2124 6.67615C17.5845 7.06584 18.2009 7.08029 18.5902 6.70779L20.4321 4.94607C24.2916 5.66459 27.5591 8.06709 29.4422 11.3632L28.1813 14.2111C27.9636 14.704 28.1858 15.2804 28.6773 15.4988L31.1049 16.5771C31.1469 17.0081 31.1689 17.4435 31.1689 17.8848ZM17.213 3.48015C17.6395 3.07154 18.3161 3.0877 18.7244 3.51489C19.1319 3.94311 19.1165 4.62035 18.6889 5.02862C18.2624 5.43723 17.5859 5.42141 17.1776 4.99354C16.7704 4.56601 16.7859 3.88877 17.213 3.48015ZM29.726 13.55C29.965 13.0097 30.5965 12.7658 31.1362 13.0055C31.6758 13.2449 31.9194 13.8778 31.68 14.4181C31.4409 14.9588 30.8094 15.2027 30.2694 14.963C29.7305 14.7236 29.4869 14.091 29.726 13.55Z" fill="black"/>
</g>
<defs>
<clipPath id="clip0_202_14777">
<rect width="37" height="36.0004" fill="white"/>
</clipPath>
</defs>
</svg>
