<svg width="40" height="40" viewBox="0 0 40 40" fill="none" xmlns="http://www.w3.org/2000/svg">
<path d="M20.001 40.0004C31.0467 40.0004 40.001 31.0461 40.001 20.0004C40.001 8.95473 31.0467 0.000427246 20.001 0.000427246C8.95528 0.000427246 0.000976562 8.95473 0.000976562 20.0004C0.000976562 31.0461 8.95528 40.0004 20.001 40.0004Z" fill="url(#paint0_linear_202_12440)"/>
<path d="M20.001 38.5003C30.2182 38.5003 38.501 30.2176 38.501 20.0003C38.501 9.78307 30.2182 1.50034 20.001 1.50034C9.78371 1.50034 1.50098 9.78307 1.50098 20.0003C1.50098 30.2176 9.78371 38.5003 20.001 38.5003Z" fill="url(#paint1_radial_202_12440)"/>
<path d="M20.0322 6.00051C19.9072 6.00051 19.7979 5.9068 19.7979 5.7818V2.51614C19.7979 2.39113 19.9072 2.29742 20.0322 2.29742C20.1572 2.29742 20.2665 2.39113 20.2665 2.51614V5.7818C20.2509 5.9068 20.1572 6.00051 20.0322 6.00051Z" fill="#F3F3F3"/>
<path d="M20.0322 6.01607C19.8916 6.01607 19.7822 5.90672 19.7822 5.78172V2.51609C19.7822 2.39109 19.8916 2.28174 20.0322 2.28174C20.1729 2.28174 20.2822 2.39109 20.2822 2.51609V5.78172C20.2822 5.90672 20.1572 6.01607 20.0322 6.01607ZM20.0322 2.31287C19.9229 2.31287 19.8135 2.40674 19.8135 2.51609V5.78172C19.8135 5.89107 19.9072 5.98494 20.0322 5.98494C20.1416 5.98494 20.2509 5.89107 20.2509 5.78172V2.51609C20.2354 2.40674 20.1416 2.31287 20.0322 2.31287Z" fill="white"/>
<path d="M21.5947 4.25051C21.4697 4.23486 21.376 4.14115 21.376 4.01615L21.4853 2.5629C21.5008 2.43806 21.6103 2.34418 21.7353 2.35983C21.8603 2.37548 21.954 2.46935 21.954 2.59435L21.8447 4.04744C21.829 4.17244 21.7197 4.26615 21.5947 4.25067V4.25051Z" fill="#F3F3F3"/>
<path d="M21.5947 4.26604C21.4541 4.25039 21.3604 4.14103 21.3604 4.01603L21.4697 2.5628C21.4854 2.43796 21.5947 2.3286 21.7354 2.34409C21.8758 2.35973 21.9697 2.46925 21.9697 2.59409L21.8604 4.04732C21.8447 4.18797 21.7354 4.28168 21.5947 4.26604ZM21.7354 2.37538C21.626 2.37538 21.5165 2.45361 21.5165 2.56296L21.4071 4.0162C21.4071 4.12539 21.4854 4.21926 21.6104 4.23474C21.7197 4.23474 21.8291 4.15668 21.8291 4.04732L21.9384 2.59409C21.9384 2.48473 21.8447 2.39102 21.7352 2.37538H21.7354Z" fill="white"/>
<path d="M22.7665 6.28175C22.6413 6.25046 22.5632 6.14111 22.5789 6.01611L23.2195 2.81286C23.2508 2.68802 23.3601 2.6098 23.4851 2.64109C23.6101 2.67238 23.6882 2.78173 23.6725 2.90673L23.0319 6.10998C23.0163 6.21917 22.8913 6.2974 22.7663 6.28175H22.7665Z" fill="#F3F3F3"/>
<path d="M22.7667 6.29733C22.6259 6.26604 22.5479 6.14104 22.5635 6.01604L23.2041 2.81284C23.2354 2.688 23.3604 2.59413 23.5008 2.62542C23.6415 2.65671 23.7197 2.78171 23.7041 2.90671L23.0635 6.10991C23.0322 6.23475 22.9072 6.31298 22.7667 6.29733ZM23.5008 2.65671C23.3915 2.64106 23.2822 2.70348 23.2509 2.813L22.6104 6.01621C22.5948 6.1254 22.6572 6.23475 22.7822 6.2662C22.8915 6.28169 23.0009 6.21911 23.0322 6.10975L23.6728 2.90671C23.6884 2.78171 23.6104 2.688 23.5008 2.65671Z" fill="white"/>
<path d="M24.6417 4.87546C24.612 4.86828 24.5839 4.85532 24.5592 4.83729C24.5344 4.81927 24.5135 4.79655 24.4975 4.77042C24.4816 4.7443 24.4709 4.71528 24.4662 4.68504C24.4614 4.6548 24.4627 4.62392 24.4699 4.59417L24.8606 3.18804C24.8917 3.06304 25.0167 3.00046 25.1417 3.03175C25.2667 3.06304 25.345 3.18804 25.3137 3.31304L24.923 4.71933C24.8917 4.84417 24.7667 4.90675 24.6417 4.87546Z" fill="#F3F3F3"/>
<path d="M24.6418 4.89116C24.5168 4.85987 24.4231 4.71922 24.4701 4.59439L24.8607 3.18795C24.8918 3.06311 25.0324 2.98489 25.1574 3.01618C25.2824 3.04747 25.3761 3.18811 25.3293 3.31295L24.9387 4.71938C24.9074 4.84422 24.7825 4.92245 24.642 4.89116H24.6418ZM25.1574 3.06311C25.0481 3.03182 24.9231 3.0944 24.8918 3.20376L24.5014 4.60987C24.4701 4.71922 24.5325 4.82874 24.6575 4.85987C24.7668 4.89116 24.8918 4.82874 24.9231 4.71938L25.3137 3.31295C25.3293 3.20376 25.2669 3.0944 25.1574 3.06295V3.06311Z" fill="white"/>
<path d="M25.4074 7.07861C25.2824 7.03168 25.2357 6.89103 25.2824 6.78168L26.5324 3.76605C26.5792 3.6567 26.72 3.59412 26.8291 3.6567C26.9543 3.70347 27.0012 3.84428 26.9543 3.95347L25.7044 6.9691C25.6576 7.07861 25.5168 7.14103 25.4076 7.07861H25.4074Z" fill="#F3F3F3"/>
<path d="M25.4073 7.09439C25.3472 7.07151 25.2987 7.02576 25.2724 6.96717C25.246 6.90858 25.2439 6.84192 25.2666 6.78181L26.5167 3.76615C26.5636 3.64115 26.7042 3.59421 26.8449 3.64115C26.9049 3.66403 26.9534 3.70978 26.9798 3.76837C27.0062 3.82697 27.0082 3.89362 26.9855 3.95373L25.7355 6.96939C25.6729 7.09439 25.5323 7.15681 25.4073 7.09439ZM26.8292 3.67244C26.7199 3.62566 26.5949 3.67244 26.5479 3.78179L25.2979 6.79746C25.2511 6.90681 25.3136 7.01617 25.4229 7.0631C25.5323 7.10988 25.6573 7.0631 25.7042 6.95375L26.9542 3.93808C26.9855 3.84421 26.9386 3.71921 26.8292 3.67244Z" fill="white"/>
<path d="M27.5168 6.07861C27.4073 6.01604 27.3604 5.89104 27.4073 5.78168L28.0635 4.48494C28.1259 4.37542 28.2509 4.32849 28.376 4.39107C28.4854 4.45365 28.5321 4.57864 28.4854 4.68784L27.829 5.98475C27.7666 6.0941 27.6416 6.14119 27.5166 6.07861H27.5168Z" fill="#F3F3F3"/>
<path d="M27.5169 6.09437C27.3918 6.03179 27.345 5.89114 27.4074 5.76615L28.0637 4.46938C28.1261 4.34422 28.267 4.29744 28.3918 4.35986C28.5168 4.42244 28.5637 4.56309 28.5012 4.68809L27.845 5.98485C27.7824 6.10985 27.6418 6.15679 27.5168 6.09421L27.5169 6.09437ZM28.3763 4.39115C28.2668 4.34438 28.1418 4.37551 28.095 4.48486L27.4387 5.78179C27.3919 5.8755 27.4387 6.0005 27.5324 6.06308C27.6418 6.10985 27.7668 6.07872 27.8137 5.96937L28.47 4.67244C28.5168 4.57873 28.47 4.45373 28.3763 4.39115Z" fill="white"/>
<path d="M27.8293 8.39119C27.72 8.31312 27.6887 8.17248 27.7667 8.07877L29.5793 5.37552C29.6417 5.26617 29.7825 5.25052 29.8917 5.3131C30.0012 5.39117 30.0324 5.53181 29.9543 5.62552L28.1417 8.32877C28.0793 8.43812 27.9387 8.46941 27.8293 8.39119Z" fill="#F3F3F3"/>
<path d="M27.8292 8.40675C27.7198 8.32869 27.6886 8.1724 27.7511 8.06305L29.5636 5.35988C29.6416 5.25053 29.7823 5.21924 29.9073 5.29746C30.0166 5.37552 30.0479 5.53181 29.9855 5.64116L28.1729 8.34433C28.0949 8.45368 27.9386 8.48481 27.8292 8.40675ZM29.8916 5.32875C29.7981 5.26617 29.6573 5.28181 29.5949 5.37552L27.7823 8.07869C27.7198 8.17224 27.751 8.2974 27.8449 8.35982C27.9386 8.42239 28.0792 8.40675 28.1416 8.31304L29.9542 5.62552C30.0166 5.53181 29.9855 5.39117 29.8916 5.32875Z" fill="white"/>
<path d="M30.1103 7.81309C30.0167 7.73486 29.9855 7.59422 30.0635 7.50051L30.9697 6.35986C31.0478 6.26632 31.1884 6.25051 31.2821 6.32873C31.376 6.4068 31.4071 6.54744 31.3289 6.64115L30.4228 7.7818C30.3448 7.87551 30.2041 7.89115 30.1104 7.81309H30.1103Z" fill="#F3F3F3"/>
<path d="M30.0947 7.82864C29.9853 7.75041 29.9697 7.59412 30.0479 7.48476L30.954 6.34424C31.0321 6.23472 31.1884 6.21908 31.2977 6.31295C31.4071 6.39102 31.4227 6.54731 31.3445 6.65667L30.4384 7.79735C30.3603 7.9067 30.204 7.92235 30.0947 7.82864ZM31.2664 6.34408C31.1729 6.26601 31.0477 6.28166 30.9697 6.37537L30.0634 7.51605C30.001 7.60976 30.0166 7.73476 30.1102 7.81283C30.204 7.89106 30.329 7.87541 30.4071 7.7817L31.3133 6.64102C31.3759 6.54731 31.3601 6.40666 31.2666 6.34424L31.2664 6.34408Z" fill="white"/>
<path d="M29.9541 10.1567C29.8604 10.063 29.8604 9.92238 29.9541 9.84416L32.2664 7.54742C32.3603 7.45372 32.5007 7.4692 32.579 7.54742C32.657 7.62549 32.6727 7.78177 32.579 7.85984L30.2823 10.1567C30.1884 10.2504 30.0478 10.2504 29.9541 10.1567Z" fill="#F3F3F3"/>
<path d="M29.9385 10.1724C29.8934 10.1265 29.8682 10.0648 29.8682 10.0005C29.8682 9.93625 29.8934 9.87453 29.9385 9.82868L32.251 7.53176C32.2968 7.48665 32.3586 7.46136 32.4229 7.46136C32.4872 7.46136 32.549 7.48665 32.5948 7.53176C32.6399 7.57761 32.6652 7.63933 32.6652 7.70362C32.6652 7.7679 32.6399 7.82962 32.5948 7.87547L30.2822 10.1722C30.2364 10.2173 30.1746 10.2425 30.1103 10.2425C30.0461 10.2425 29.9843 10.2173 29.9385 10.1722V10.1724ZM32.5792 7.54741C32.5011 7.46918 32.3605 7.46918 32.2824 7.54741L29.9698 9.84416C29.8915 9.92239 29.8915 10.063 29.9698 10.1411C30.0478 10.2193 30.1885 10.2193 30.2666 10.1411L32.5792 7.84434C32.6573 7.76611 32.6573 7.64112 32.5792 7.54741Z" fill="white"/>
<path d="M32.2979 10.0317C32.2199 9.93802 32.2199 9.79738 32.3136 9.71916L33.4229 8.78177C33.5166 8.70371 33.6572 8.71919 33.7354 8.81306C33.8135 8.90676 33.8135 9.0474 33.7198 9.12547L32.6105 10.063C32.5166 10.1411 32.376 10.1254 32.2979 10.0317Z" fill="#F3F3F3"/>
<path d="M32.2822 10.0474C32.1885 9.938 32.2041 9.78171 32.2978 9.70365L33.4071 8.76608C33.5008 8.67237 33.6571 8.68801 33.7508 8.79737C33.8446 8.90672 33.829 9.06301 33.7353 9.14107L32.6259 10.0786C32.5323 10.1722 32.3759 10.1567 32.2823 10.0474H32.2822ZM33.7197 8.81301C33.6414 8.7193 33.5164 8.7193 33.4229 8.78172L32.3135 9.7193C32.2354 9.79736 32.2198 9.92236 32.2978 10.0161C32.3759 10.1098 32.501 10.1098 32.5946 10.0474L33.704 9.10978C33.7977 9.03172 33.7977 8.90672 33.7197 8.81301Z" fill="white"/>
<path d="M31.673 12.2818C31.5949 12.1725 31.6262 12.0318 31.7356 11.9692L34.4541 10.1568C34.5635 10.0942 34.7041 10.1255 34.7665 10.2194C34.8448 10.3287 34.8135 10.4694 34.7041 10.5318L31.9855 12.3442C31.8917 12.4068 31.751 12.3755 31.673 12.2818Z" fill="#F3F3F3"/>
<path d="M31.6571 12.2817C31.579 12.1724 31.6103 12.0161 31.7197 11.938L34.4384 10.1255C34.5478 10.0474 34.704 10.0787 34.7821 10.2037C34.8603 10.313 34.8289 10.4693 34.7197 10.5472L32.001 12.3599C31.8915 12.4382 31.7353 12.4069 31.6571 12.2819V12.2817ZM34.7508 10.235C34.6884 10.1411 34.5634 10.1098 34.4697 10.1724L31.7508 11.9848C31.6573 12.0474 31.6258 12.1724 31.704 12.2817C31.7665 12.3754 31.8915 12.4067 31.9853 12.3443L34.704 10.5317C34.7978 10.4537 34.8134 10.3285 34.7508 10.235Z" fill="white"/>
<path d="M34.0014 12.6098C33.9388 12.5003 33.9701 12.3598 34.0795 12.2973L35.3451 11.5786C35.4545 11.516 35.5951 11.5629 35.6575 11.6721C35.7201 11.7816 35.6888 11.9221 35.5795 11.9847L34.3138 12.7035C34.2045 12.766 34.0638 12.7192 34.0012 12.6097L34.0014 12.6098Z" fill="#F3F3F3"/>
<path d="M33.9858 12.6254C33.9232 12.5004 33.9545 12.3597 34.0638 12.2973L35.3295 11.5786C35.4388 11.516 35.5951 11.5629 35.6576 11.6721C35.7201 11.7973 35.6889 11.9379 35.5795 12.0004L34.3138 12.7193C34.2045 12.7817 34.0482 12.7347 33.9858 12.6254ZM35.6419 11.6879C35.5795 11.5786 35.4545 11.5473 35.3608 11.6097L34.0951 12.3286C34.0014 12.391 33.9701 12.516 34.0169 12.6097C34.0795 12.7191 34.2045 12.7504 34.2982 12.688L35.5639 11.9691C35.6576 11.9223 35.6889 11.7973 35.6419 11.6879Z" fill="white"/>
<path d="M32.9543 14.688C32.9075 14.563 32.9543 14.438 33.0793 14.3912L36.0949 13.1412C36.2043 13.0943 36.3449 13.1567 36.3917 13.2661C36.4386 13.3911 36.3917 13.516 36.2667 13.5628L33.2512 14.8128C33.1417 14.8597 33.0012 14.8128 32.9543 14.688Z" fill="#F3F3F3"/>
<path d="M32.9384 14.7035C32.8917 14.5787 32.9384 14.438 33.0634 14.3754L36.079 13.1255C36.1391 13.1028 36.2058 13.1049 36.2643 13.1313C36.3229 13.1576 36.3686 13.2061 36.3915 13.2661C36.4384 13.3911 36.3915 13.5318 36.2665 13.5942L33.251 14.8441C33.1909 14.8668 33.1243 14.8648 33.0657 14.8385C33.0071 14.8121 32.9614 14.7637 32.9384 14.7036V14.7035ZM36.3603 13.2818C36.3134 13.1724 36.1884 13.1255 36.0947 13.1568L33.0791 14.4067C32.9697 14.4535 32.9228 14.5787 32.9697 14.688C33.0165 14.7974 33.1415 14.8443 33.2354 14.813L36.2508 13.5631C36.3603 13.5163 36.4073 13.3911 36.3603 13.2818Z" fill="white"/>
<path d="M35.1576 15.4693C35.1108 15.3442 35.1733 15.2193 35.2982 15.1724L36.6731 14.7192C36.7825 14.6724 36.9231 14.7505 36.9544 14.8598C37.0011 14.9848 36.9387 15.1098 36.8137 15.1568L35.4389 15.61C35.3295 15.6568 35.2045 15.5943 35.1576 15.4692V15.4693Z" fill="#F3F3F3"/>
<path d="M35.1416 15.4848C35.0948 15.3598 35.1572 15.2191 35.298 15.1723L36.6727 14.7191C36.7977 14.6723 36.9383 14.7504 36.9852 14.8755C37.032 15.0004 36.9696 15.141 36.8288 15.188L35.4541 15.6412C35.3291 15.6723 35.1885 15.6098 35.1416 15.4848ZM36.954 14.8912C36.9227 14.7817 36.7977 14.7191 36.6883 14.7504L35.3135 15.2036C35.2041 15.2347 35.1572 15.3598 35.1885 15.4693C35.2198 15.5786 35.3448 15.6411 35.4541 15.6098L36.829 15.1567C36.9383 15.1099 36.9852 15.0004 36.954 14.891V14.8912Z" fill="white"/>
<path d="M33.7513 17.3286C33.72 17.2036 33.7981 17.0786 33.9231 17.063L37.1261 16.438C37.2509 16.4067 37.3604 16.5004 37.3915 16.6254C37.4228 16.7504 37.3448 16.8754 37.2198 16.891L34.0168 17.516C33.8918 17.5316 33.7668 17.4536 33.7511 17.3286H33.7513Z" fill="#F3F3F3"/>
<path d="M33.7197 17.3288C33.6884 17.1881 33.7821 17.0631 33.9071 17.0318L37.1103 16.4068C37.2353 16.3755 37.3603 16.4694 37.3915 16.61C37.4227 16.7505 37.329 16.8755 37.204 16.9068L34.0008 17.5319C33.876 17.5632 33.7508 17.4695 33.7197 17.3286V17.3288ZM37.3603 16.6255C37.3447 16.5162 37.2353 16.4381 37.126 16.4537L33.9228 17.0788C33.8134 17.0944 33.7353 17.2193 33.7665 17.3288C33.7821 17.4382 33.8915 17.5162 34.001 17.5006L37.204 16.8755C37.3134 16.8442 37.3914 16.7349 37.3603 16.6255Z" fill="white"/>
<path d="M35.751 18.5317C35.7354 18.4067 35.8134 18.2973 35.9384 18.2816L37.3758 18.1097C37.5008 18.0942 37.6103 18.1879 37.6258 18.3129C37.6415 18.438 37.5634 18.5473 37.4384 18.563L36.0008 18.7348C35.8915 18.7504 35.7665 18.6567 35.7509 18.5317H35.751Z" fill="#F3F3F3"/>
<path d="M35.7354 18.5317C35.7197 18.3911 35.8134 18.2661 35.9384 18.2504L37.3758 18.0787C37.5007 18.063 37.6257 18.1567 37.6414 18.2974C37.657 18.438 37.5633 18.563 37.4383 18.5786L36.0008 18.7504C35.876 18.766 35.7508 18.6723 35.7354 18.5317ZM37.6257 18.313C37.6103 18.2037 37.5009 18.1098 37.3914 18.1254L35.954 18.2974C35.8447 18.313 35.7665 18.4224 35.7821 18.5317C35.7978 18.6411 35.9071 18.7349 36.0165 18.7193L37.454 18.5473C37.5633 18.5317 37.6414 18.4224 37.6259 18.313H37.6257Z" fill="white"/>
<path d="M34.0012 20.0473C34.0012 19.9223 34.0948 19.813 34.2199 19.813H37.4856C37.6106 19.813 37.7043 19.9223 37.7043 20.0473C37.7043 20.1723 37.6106 20.2816 37.4856 20.2816H34.2199C34.0949 20.2816 34.0012 20.1723 34.0012 20.0473Z" fill="#F3F3F3"/>
<path d="M33.9856 20.0474C33.9856 19.9068 34.0949 19.7974 34.2199 19.7974H37.4856C37.6106 19.7974 37.7199 19.9068 37.7199 20.0474C37.7199 20.1881 37.6106 20.2974 37.4856 20.2974H34.2199C34.0949 20.2974 33.9856 20.1881 33.9856 20.0474ZM37.6887 20.0631C37.6887 19.9537 37.5949 19.8444 37.4854 19.8444H34.2201C34.1108 19.8444 34.0169 19.9379 34.0169 20.0631C34.0169 20.1724 34.1108 20.2818 34.2201 20.2818H37.4858C37.5951 20.2661 37.6888 20.1724 37.6888 20.0631H37.6887Z" fill="white"/>
<path d="M35.7355 21.6254C35.751 21.5004 35.8449 21.4067 35.9699 21.4067L37.423 21.516C37.5478 21.5317 37.6415 21.641 37.6259 21.766C37.6104 21.891 37.5165 21.9847 37.3916 21.9847L35.9386 21.8754C35.8292 21.8597 35.7354 21.7504 35.7354 21.6254H35.7355Z" fill="#F3F3F3"/>
<path d="M35.72 21.6255C35.7356 21.4849 35.845 21.3911 35.97 21.3911L37.4234 21.5005C37.5482 21.5161 37.6576 21.6255 37.6419 21.7661C37.6264 21.9068 37.5169 22.0005 37.3919 22.0005L35.9387 21.8911C35.8137 21.8755 35.72 21.7505 35.72 21.6255ZM37.6264 21.7661C37.6419 21.6568 37.5482 21.5474 37.4388 21.5474L35.9855 21.4381C35.8763 21.4381 35.7824 21.5161 35.7668 21.6413C35.7513 21.7505 35.845 21.8599 35.9543 21.8599L37.4077 21.9692C37.5169 21.9692 37.6108 21.8757 37.6264 21.7661Z" fill="white"/>
<path d="M33.72 22.7661C33.7513 22.6411 33.8607 22.5628 33.9857 22.5787L37.1888 23.2193C37.3138 23.2504 37.392 23.3598 37.3607 23.4848C37.3294 23.6098 37.2201 23.688 37.0951 23.6724L33.8918 23.0317C33.7824 23.0161 33.7044 22.8911 33.72 22.7661Z" fill="#F3F3F3"/>
<path d="M33.7039 22.7661C33.7352 22.6255 33.8602 22.5474 33.9852 22.5629L37.1885 23.2036C37.3135 23.2348 37.4072 23.3597 37.3759 23.5004C37.3448 23.641 37.2198 23.7192 37.0948 23.7036L33.8913 23.063C33.7663 23.0317 33.6882 22.9067 33.7039 22.7663V22.7661ZM37.3448 23.5004C37.3604 23.391 37.298 23.2817 37.1885 23.2504L33.985 22.6098C33.8758 22.5943 33.7663 22.6567 33.735 22.7817C33.7195 22.8911 33.782 23.0004 33.8915 23.0317L37.0948 23.6723C37.2198 23.6879 37.3135 23.6097 37.3448 23.5004Z" fill="white"/>
<path d="M35.126 24.6411C35.1332 24.6114 35.1461 24.5833 35.1641 24.5586C35.1822 24.5339 35.2049 24.5129 35.231 24.497C35.2571 24.481 35.2861 24.4704 35.3163 24.4656C35.3465 24.4609 35.3774 24.4621 35.4071 24.4693L36.8134 24.8598C36.9384 24.8911 37.0008 25.0163 36.9697 25.1412C36.9625 25.1709 36.9496 25.199 36.9316 25.2238C36.9135 25.2485 36.8908 25.2695 36.8647 25.2855C36.8386 25.3014 36.8095 25.3121 36.7793 25.3168C36.749 25.3216 36.7181 25.3203 36.6884 25.3131L35.2821 24.9224C35.1571 24.8911 35.0947 24.7661 35.1258 24.6411H35.126Z" fill="#F3F3F3"/>
<path d="M35.1106 24.6411C35.1419 24.5161 35.2825 24.4224 35.4075 24.4693L36.8138 24.8598C36.9388 24.8911 37.017 25.0317 36.9857 25.1567C36.9544 25.2816 36.8138 25.3753 36.6888 25.3286L35.2825 24.938C35.1575 24.9067 35.0793 24.7817 35.1107 24.6413L35.1106 24.6411ZM36.9388 25.1567C36.97 25.0473 36.9075 24.9223 36.7981 24.8911L35.3918 24.5005C35.2825 24.4692 35.1731 24.5317 35.1419 24.6567C35.1107 24.7661 35.1731 24.8911 35.2825 24.9223L36.6888 25.3129C36.7981 25.3286 36.9075 25.2662 36.9388 25.1567Z" fill="white"/>
<path d="M32.9229 25.3911C32.9697 25.2661 33.1105 25.2192 33.2197 25.2661L36.2354 26.516C36.3447 26.5628 36.4071 26.7036 36.3604 26.8128C36.3134 26.938 36.1728 26.9847 36.0634 26.938L33.0479 25.688C32.9229 25.6412 32.876 25.5004 32.9229 25.3912V25.3911Z" fill="#F3F3F3"/>
<path d="M32.9072 25.3754C32.9301 25.3154 32.9758 25.2669 33.0344 25.2405C33.093 25.2141 33.1597 25.2121 33.2198 25.2348L36.2353 26.4848C36.3603 26.5318 36.4071 26.6724 36.3603 26.8131C36.3374 26.8731 36.2917 26.9216 36.2331 26.948C36.1745 26.9743 36.1078 26.9764 36.0477 26.9537L33.0322 25.7037C32.9072 25.6411 32.8604 25.5004 32.9072 25.3754ZM36.329 26.7974C36.3758 26.6881 36.329 26.563 36.2197 26.5161L33.2041 25.2661C33.0948 25.2193 32.9854 25.2817 32.9385 25.3911C32.8917 25.5004 32.9385 25.6254 33.0478 25.6724L36.0634 26.9224C36.1727 26.9537 36.2977 26.9068 36.329 26.7974Z" fill="white"/>
<path d="M33.9384 27.5004C34.001 27.3911 34.1258 27.3441 34.2352 27.3911L35.5319 28.0474C35.6412 28.0942 35.6882 28.2348 35.6258 28.3598C35.5632 28.4692 35.4382 28.5163 35.3289 28.4692L34.0323 27.813C33.9228 27.7505 33.8759 27.6098 33.9384 27.5004Z" fill="#F3F3F3"/>
<path d="M33.9228 27.4849C33.9854 27.3599 34.126 27.3131 34.251 27.3756L35.5478 28.0319C35.6728 28.0944 35.7198 28.2351 35.6572 28.3599C35.5948 28.4849 35.454 28.5319 35.3291 28.4693L34.0323 27.8131C33.9071 27.7664 33.8604 27.6099 33.9228 27.4849ZM35.6104 28.3443C35.6572 28.2349 35.6259 28.1099 35.5165 28.0631L34.2197 27.4068C34.1259 27.3601 34.001 27.4068 33.9384 27.5006C33.8917 27.6099 33.9228 27.7349 34.0321 27.7819L35.329 28.4382C35.4385 28.4849 35.5635 28.4538 35.6104 28.3443Z" fill="white"/>
<path d="M31.6415 27.7973C31.7197 27.6879 31.8447 27.6567 31.9541 27.7347L34.6728 29.5473C34.7822 29.6097 34.7978 29.7505 34.7354 29.8597C34.6572 29.9692 34.5322 30.0004 34.4228 29.9223L31.7041 28.1097C31.5947 28.0317 31.5634 27.891 31.6415 27.7973Z" fill="#F3F3F3"/>
<path d="M31.6258 27.7817C31.7041 27.6723 31.8604 27.641 31.9697 27.7036L34.6885 29.516C34.7979 29.594 34.8292 29.7347 34.751 29.8597C34.6729 29.9692 34.5166 30.0003 34.4074 29.9379L31.6884 28.1254C31.5634 28.0473 31.5478 27.891 31.6258 27.7817ZM34.7042 29.844C34.7666 29.7505 34.751 29.6097 34.6574 29.5473L31.9384 27.7347C31.8447 27.6723 31.7197 27.7036 31.6571 27.7973C31.5947 27.891 31.6103 28.0317 31.7039 28.0941L34.4229 29.9066C34.5166 29.9692 34.6416 29.9379 34.7042 29.8442V29.844Z" fill="white"/>
<path d="M32.2197 30.063C32.2978 29.9691 32.4384 29.938 32.5322 30.0162L33.6728 30.9067C33.7665 30.9848 33.7822 31.1254 33.7041 31.2193C33.626 31.3128 33.4854 31.3443 33.3915 31.2661L32.2509 30.3754C32.1573 30.2973 32.1415 30.1567 32.2197 30.063Z" fill="#F3F3F3"/>
<path d="M32.2041 30.0475C32.2822 29.9381 32.4385 29.9225 32.5478 30.0007L33.6884 30.8912C33.7977 30.9693 33.8134 31.1256 33.7352 31.2349C33.6571 31.3444 33.5008 31.3599 33.3916 31.2818L32.2509 30.3912C32.1415 30.3131 32.126 30.1568 32.2041 30.0475ZM33.704 31.2194C33.7821 31.1256 33.7665 31.0005 33.6728 30.9225L32.5322 30.0318C32.4385 29.9694 32.3135 29.985 32.2354 30.0786C32.1572 30.1725 32.1728 30.2975 32.2665 30.3755L33.4071 31.2662C33.5008 31.3288 33.6258 31.313 33.7039 31.2194H33.704Z" fill="white"/>
<path d="M29.8916 29.9068C29.9854 29.8131 30.1261 29.8131 30.2041 29.9068L32.5166 32.2035C32.6105 32.2974 32.5948 32.438 32.5166 32.5161C32.4231 32.6098 32.2823 32.6098 32.2042 32.5161L29.8916 30.2193C29.8135 30.1411 29.8135 29.9848 29.8916 29.9068Z" fill="#F3F3F3"/>
<path d="M29.8916 29.891C29.9374 29.8459 29.9992 29.8206 30.0635 29.8206C30.1279 29.8206 30.1896 29.8459 30.2355 29.891L32.548 32.1877C32.5931 32.2336 32.6184 32.2953 32.6184 32.3597C32.6184 32.424 32.5931 32.4857 32.548 32.5316C32.5021 32.5767 32.4404 32.6019 32.3761 32.6019C32.3118 32.6019 32.2501 32.5767 32.2043 32.5316L29.8916 30.2349C29.7822 30.141 29.7822 29.9849 29.8916 29.891ZM32.5167 32.5003C32.5949 32.4222 32.5949 32.2816 32.5167 32.2035L30.2042 29.9067C30.1261 29.8286 29.9855 29.8286 29.9074 29.9067C29.8292 29.9847 29.8292 30.1254 29.9074 30.2034L32.2199 32.5003C32.298 32.5942 32.4231 32.5942 32.5167 32.5003Z" fill="white"/>
<path d="M30.0322 32.2347C30.1261 32.1566 30.2666 32.1566 30.3448 32.2504L31.298 33.3441C31.3759 33.438 31.3605 33.5786 31.2666 33.6567C31.173 33.7347 31.0322 33.7347 30.9542 33.641L30.0009 32.5473C29.9228 32.4692 29.9385 32.3286 30.0322 32.2347Z" fill="#F3F3F3"/>
<path d="M30.0168 32.2348C30.1261 32.1412 30.2668 32.1567 30.3603 32.2504L31.3135 33.3441C31.4072 33.438 31.3916 33.5941 31.2822 33.688C31.1729 33.7817 31.0322 33.766 30.9385 33.6723L29.9853 32.5786C29.9072 32.4693 29.9072 32.313 30.0166 32.2348H30.0168ZM31.2668 33.6567C31.3603 33.5786 31.3603 33.4535 31.2979 33.3599L30.3447 32.266C30.2666 32.188 30.1416 32.1723 30.0479 32.2504C29.9542 32.3286 29.9542 32.4536 30.0166 32.5472L30.9698 33.641C31.0479 33.7347 31.173 33.7347 31.2666 33.6567H31.2668Z" fill="white"/>
<path d="M27.7822 31.6411C27.8915 31.5631 28.0322 31.5943 28.0948 31.7037L29.9072 34.4067C29.9697 34.5161 29.9384 34.6567 29.8447 34.7193C29.7354 34.7973 29.5947 34.7661 29.5321 34.6567L27.7196 31.9535C27.657 31.8443 27.6883 31.7035 27.782 31.6411H27.7822Z" fill="#F3F3F3"/>
<path d="M27.7822 31.6254C27.8916 31.5474 28.0478 31.5787 28.1259 31.688L29.9383 34.3911C30.0164 34.5002 29.9851 34.6565 29.8603 34.7346C29.7508 34.8128 29.5947 34.7815 29.5164 34.6722L27.7042 31.9691C27.6261 31.8443 27.6574 31.7036 27.7822 31.6256V31.6254ZM29.8446 34.7035C29.9383 34.6409 29.9696 34.5159 29.9071 34.4222L28.0948 31.7191C28.0322 31.6256 27.9072 31.6098 27.798 31.6724C27.7042 31.7348 27.6729 31.8598 27.7354 31.9536L29.5477 34.6565C29.6103 34.7346 29.7509 34.7659 29.8445 34.7033L29.8446 34.7035Z" fill="white"/>
<path d="M27.4542 33.9535C27.5635 33.8911 27.7042 33.9223 27.7666 34.0317L28.4854 35.2974C28.5478 35.4067 28.5009 35.5474 28.3916 35.6098C28.2822 35.6724 28.1416 35.6411 28.0792 35.5317L27.3605 34.2661C27.3136 34.1567 27.3448 34.0161 27.454 33.9536L27.4542 33.9535Z" fill="#F3F3F3"/>
<path d="M27.4541 33.938C27.5791 33.8754 27.7198 33.9067 27.7822 34.0161L28.5009 35.2819C28.5635 35.3912 28.5322 35.5476 28.4073 35.61C28.2822 35.6726 28.1415 35.6413 28.0791 35.5319L27.3604 34.2661C27.2978 34.1568 27.3291 34.0161 27.454 33.938H27.4541ZM28.3915 35.5945C28.4854 35.5319 28.5322 35.4069 28.4698 35.3132L27.7511 34.0474C27.6885 33.9537 27.5635 33.9224 27.4698 33.9692C27.3759 34.0318 27.3291 34.1568 27.3915 34.2505L28.1104 35.5163C28.1572 35.61 28.2978 35.6569 28.3915 35.5943V35.5945Z" fill="white"/>
<path d="M25.3762 32.9224C25.5012 32.8756 25.6262 32.9224 25.6732 33.0317L26.9388 36.0473C26.9856 36.1566 26.9232 36.2973 26.8138 36.3441C26.7045 36.391 26.5638 36.3441 26.517 36.2347L25.2514 33.2193C25.2045 33.1098 25.2669 32.9693 25.3762 32.9224Z" fill="#F3F3F3"/>
<path d="M25.3758 32.9068C25.5008 32.86 25.6414 32.9068 25.704 33.0318L26.9696 36.0474C26.9922 36.1075 26.9902 36.1741 26.9638 36.2327C26.9374 36.2912 26.889 36.3369 26.829 36.3598C26.704 36.4068 26.5633 36.3598 26.5009 36.2348L25.2353 33.2193C25.1884 33.1098 25.251 32.9693 25.3758 32.9068ZM26.7977 36.3287C26.907 36.2818 26.9539 36.1568 26.907 36.0631L25.6414 33.0474C25.5947 32.9381 25.4697 32.8911 25.3603 32.9381C25.251 32.9848 25.2039 33.1098 25.251 33.2037L26.5164 36.2193C26.579 36.3287 26.6883 36.3755 26.7977 36.3287Z" fill="white"/>
<path d="M24.6103 35.1411C24.7355 35.0944 24.8603 35.1568 24.9073 35.2818L25.3605 36.6568C25.4073 36.7661 25.3292 36.9068 25.2199 36.9381C25.0949 36.9849 24.9699 36.9224 24.9231 36.7974L24.4699 35.4224C24.4231 35.3131 24.4855 35.1881 24.6105 35.1411H24.6103Z" fill="#F3F3F3"/>
<path d="M24.595 35.1255C24.655 35.1029 24.7217 35.105 24.7802 35.1313C24.8388 35.1577 24.8845 35.2062 24.9074 35.2662L25.3607 36.6411C25.4075 36.7661 25.3294 36.9067 25.2042 36.9537C25.1441 36.9763 25.0775 36.9742 25.0189 36.9479C24.9604 36.9215 24.9147 36.873 24.8918 36.813L24.4386 35.4381C24.4073 35.3131 24.4699 35.1725 24.595 35.1255ZM25.2044 36.9222C25.3138 36.8911 25.3762 36.7661 25.3451 36.6567L24.8918 35.2818C24.8606 35.1725 24.7356 35.1255 24.6262 35.1568C24.5167 35.1881 24.4543 35.3131 24.4856 35.4224L24.9387 36.7974C24.9467 36.8239 24.9601 36.8484 24.9782 36.8694C24.9963 36.8904 25.0186 36.9073 25.0437 36.9191C25.0687 36.9309 25.096 36.9373 25.1237 36.9379C25.1514 36.9384 25.1789 36.9331 25.2044 36.9224V36.9222Z" fill="white"/>
<path d="M22.7666 33.7193C22.8915 33.688 23.0167 33.7661 23.0321 33.8911L23.6885 37.0944C23.7198 37.2193 23.6259 37.3288 23.5009 37.3599C23.3761 37.3912 23.2509 37.3131 23.2354 37.1881L22.5789 33.9848C22.5634 33.8754 22.6414 33.7504 22.7665 33.7192L22.7666 33.7193Z" fill="#F3F3F3"/>
<path d="M22.7668 33.7033C22.9072 33.6722 23.0322 33.7659 23.0635 33.8909L23.7197 37.0944C23.751 37.2192 23.6571 37.3599 23.5321 37.3755C23.3915 37.4068 23.2665 37.3131 23.2354 37.1881L22.5791 33.9846C22.5479 33.8596 22.6261 33.7346 22.7666 33.7034L22.7668 33.7033ZM23.5009 37.3442C23.6104 37.3287 23.6884 37.2192 23.6728 37.0942L23.0166 33.8909C23.0011 33.7815 22.8761 33.7034 22.7666 33.7346C22.6573 33.7502 22.5792 33.8596 22.5949 33.9846L23.2511 37.1881C23.2822 37.2975 23.3915 37.3599 23.501 37.3444L23.5009 37.3442Z" fill="white"/>
<path d="M21.5793 35.7503C21.7043 35.7347 21.8136 35.8129 21.8449 35.9379L22.0323 37.3753C22.048 37.5003 21.9543 37.6096 21.8291 37.6253C21.7043 37.6409 21.5949 37.5629 21.5636 37.4379L21.3762 36.0003C21.3606 35.8753 21.4543 35.766 21.5793 35.7503Z" fill="#F3F3F3"/>
<path d="M21.5789 35.7349C21.7196 35.7194 21.8447 35.8131 21.8603 35.9381L22.0478 37.3756C22.0635 37.5006 21.9697 37.6256 21.829 37.6413C21.6883 37.6569 21.5633 37.5632 21.5476 37.438L21.3601 36.0005C21.3444 35.8755 21.4382 35.7505 21.5789 35.7349ZM21.8134 37.61C21.9228 37.5945 22.0167 37.485 22.001 37.3756L21.8134 35.9381C21.7977 35.8288 21.6883 35.7505 21.5789 35.7662C21.4695 35.7818 21.3756 35.8912 21.3912 36.0005L21.5789 37.4382C21.5946 37.5476 21.704 37.6256 21.8134 37.61Z" fill="white"/>
<path d="M19.9697 34.0003C20.0947 34.0003 20.204 34.0942 20.204 34.2192V37.4847C20.204 37.6098 20.0947 37.7036 19.9697 37.7036C19.8447 37.7036 19.7354 37.6098 19.7354 37.4847V34.2192C19.751 34.0942 19.8447 34.0003 19.9697 34.0003Z" fill="#F3F3F3"/>
<path d="M19.9697 33.9846C20.1104 33.9846 20.2197 34.094 20.2197 34.219V37.4846C20.2197 37.6096 20.1104 37.719 19.9697 37.719C19.8291 37.719 19.7197 37.6096 19.7197 37.4846V34.2191C19.7197 34.0941 19.8447 33.9846 19.9697 33.9846ZM19.9697 37.6878C20.0791 37.6878 20.1884 37.5941 20.1884 37.4846V34.2191C20.1884 34.1096 20.0947 34.0159 19.9697 34.0159C19.8604 34.0159 19.751 34.1096 19.751 34.2191V37.4846C19.7665 37.5941 19.8604 37.6878 19.9697 37.6878Z" fill="white"/>
<path d="M18.4072 35.7504C18.5322 35.7661 18.6259 35.8598 18.6259 35.9848L18.5166 37.438C18.5011 37.563 18.3916 37.6567 18.2666 37.6412C18.1416 37.6254 18.0479 37.5317 18.0479 37.4067L18.1572 35.9535C18.1728 35.8286 18.2822 35.7348 18.4072 35.7504Z" fill="#F3F3F3"/>
<path d="M18.4072 35.7349C18.5479 35.7505 18.6416 35.8599 18.6416 35.9849L18.5322 37.4382C18.5166 37.5632 18.4072 37.6725 18.2666 37.6569C18.1261 37.6413 18.0322 37.5319 18.0322 37.4069L18.1416 35.9536C18.1572 35.8131 18.2666 35.7194 18.4072 35.7349ZM18.2666 37.6256C18.3759 37.6256 18.4855 37.5475 18.4855 37.4382L18.5948 35.9849C18.5948 35.8755 18.5166 35.7818 18.3916 35.7662C18.2822 35.7662 18.1729 35.8442 18.1729 35.9538L18.0635 37.4069C18.0635 37.5162 18.1572 37.6101 18.2667 37.6256H18.2666Z" fill="white"/>
<path d="M17.2354 33.7191C17.3604 33.7502 17.4384 33.8596 17.4228 33.9846L16.7822 37.1881C16.7509 37.3131 16.6415 37.3914 16.5165 37.3599C16.3916 37.3288 16.3135 37.2194 16.3291 37.0942L16.9697 33.8909C16.9854 33.7815 17.1104 33.7035 17.2354 33.7191Z" fill="#F3F3F3"/>
<path d="M17.2357 33.7033C17.3762 33.7346 17.4544 33.8597 17.4388 33.9846L16.7981 37.1879C16.7668 37.3129 16.6418 37.4066 16.5013 37.3753C16.3607 37.3441 16.2825 37.219 16.2981 37.094L16.9388 33.8909C16.9701 33.7659 17.0951 33.6876 17.2355 33.7034L17.2357 33.7033ZM16.5013 37.3441C16.6107 37.3597 16.7201 37.2973 16.7513 37.1879L17.3918 33.9846C17.4075 33.8752 17.3451 33.7659 17.2201 33.7346C17.1107 33.7191 17.0013 33.7815 16.9701 33.891L16.3294 37.094C16.3138 37.219 16.3918 37.3129 16.5013 37.3441Z" fill="white"/>
<path d="M15.3605 35.1257C15.4856 35.157 15.5637 35.282 15.5324 35.407L15.1417 36.8131C15.1106 36.9381 14.9856 37.0005 14.8606 36.9694C14.8308 36.9622 14.8028 36.9493 14.778 36.9313C14.7532 36.9133 14.7323 36.8905 14.7163 36.8644C14.7003 36.8383 14.6897 36.8093 14.6849 36.779C14.6802 36.7488 14.6815 36.7179 14.6887 36.6881L15.0793 35.282C15.1106 35.157 15.2356 35.0946 15.3606 35.1257H15.3605Z" fill="#F3F3F3"/>
<path d="M15.3603 35.1102C15.4854 35.1413 15.5791 35.282 15.5322 35.407L15.1416 36.8132C15.1105 36.9382 14.9698 37.0165 14.8448 36.985C14.7198 36.9539 14.6261 36.8132 14.6729 36.6882L15.0635 35.282C15.0948 35.157 15.2198 35.0788 15.3603 35.11V35.1102ZM14.8448 36.9382C14.9542 36.9695 15.0792 36.907 15.1105 36.7976L15.5009 35.3913C15.5322 35.282 15.4698 35.1726 15.3448 35.1413C15.2354 35.11 15.1105 35.1726 15.0792 35.282L14.6885 36.6882C14.6729 36.7976 14.7353 36.907 14.8448 36.9382Z" fill="white"/>
<path d="M14.5946 32.9224C14.7196 32.9692 14.7664 33.1098 14.7196 33.2192L13.4697 36.2348C13.4229 36.3443 13.2821 36.4068 13.1729 36.3443C13.0634 36.2818 13.0008 36.1568 13.0477 36.0474L14.2977 33.0317C14.3445 32.9224 14.4853 32.8598 14.5945 32.9224H14.5946Z" fill="#F3F3F3"/>
<path d="M14.5946 32.9066C14.6546 32.9295 14.7031 32.9753 14.7295 33.0338C14.7559 33.0924 14.7579 33.1591 14.7352 33.2192L13.4852 36.2346C13.4383 36.3596 13.2976 36.4066 13.157 36.3596C13.097 36.3368 13.0485 36.291 13.0221 36.2325C12.9958 36.1739 12.9937 36.1073 13.0163 36.0472L14.2664 33.0316C14.3289 32.9066 14.4696 32.8442 14.5946 32.9066ZM13.1726 36.3285C13.282 36.3753 13.407 36.3285 13.4539 36.2192L14.7039 33.2036C14.7507 33.0942 14.6883 32.9847 14.5789 32.9379C14.4696 32.8911 14.3446 32.9379 14.2976 33.0473L13.0476 36.0629C13.0163 36.1566 13.0633 36.2816 13.1726 36.3285Z" fill="white"/>
<path d="M12.4854 33.9225C12.5948 33.9849 12.6416 34.1099 12.5948 34.2192L11.9385 35.5159C11.8759 35.6253 11.7509 35.6722 11.6259 35.6096C11.5166 35.5472 11.4698 35.4222 11.5166 35.3129L12.173 34.0163C12.2354 33.9069 12.3604 33.8599 12.4854 33.9225Z" fill="#F3F3F3"/>
<path d="M12.4856 33.9068C12.6106 33.9692 12.6574 34.11 12.5949 34.2348L11.9387 35.5317C11.8761 35.6567 11.7354 35.7036 11.6106 35.641C11.4856 35.5786 11.4387 35.4378 11.5012 35.313L12.1574 34.0163C12.2199 33.8912 12.3606 33.8444 12.4856 33.9068ZM11.6262 35.6099C11.7356 35.6567 11.8606 35.6254 11.9074 35.516L12.5636 34.2194C12.6104 34.1255 12.5636 34.0005 12.4699 33.9381C12.3606 33.8913 12.2356 33.9224 12.1886 34.0318L11.5324 35.3285C11.4856 35.4223 11.5324 35.5473 11.6262 35.6097V35.6099Z" fill="white"/>
<path d="M12.1727 31.6099C12.2821 31.688 12.3134 31.8286 12.2353 31.9224L10.4227 34.6258C10.3603 34.735 10.2195 34.7506 10.1103 34.6882C10.001 34.61 9.96967 34.4695 10.0477 34.3756L11.8603 31.6722C11.9227 31.563 12.0634 31.5317 12.1727 31.6098V31.6099Z" fill="#F3F3F3"/>
<path d="M12.173 31.5942C12.2824 31.6725 12.3137 31.8288 12.2511 31.9381L10.4386 34.6414C10.3605 34.7506 10.2199 34.7819 10.0949 34.7038C9.98552 34.6256 9.95423 34.4694 10.0167 34.3599L11.8293 31.6568C11.9074 31.5475 12.0636 31.5162 12.173 31.5942ZM10.1105 34.6725C10.2041 34.7349 10.3449 34.7193 10.4073 34.6257L12.2199 31.9225C12.2824 31.8288 12.2512 31.7038 12.1574 31.6412C12.0636 31.5788 11.923 31.5944 11.8606 31.688L10.0479 34.3756C9.98552 34.4694 10.0167 34.6099 10.1105 34.6724V34.6725Z" fill="white"/>
<path d="M9.89154 32.1881C9.9854 32.2662 10.0165 32.4068 9.93847 32.5005L9.03219 33.6411C8.95413 33.7348 8.81349 33.7505 8.71978 33.6724C8.62607 33.5943 8.59478 33.4537 8.67301 33.3598L9.57912 32.2192C9.65718 32.1257 9.79783 32.1099 9.89154 32.1881Z" fill="#F3F3F3"/>
<path d="M9.90716 32.1724C10.0165 32.2505 10.0322 32.4068 9.95394 32.5161L9.04779 33.6568C8.96973 33.7662 8.81343 33.7818 8.70408 33.6881C8.59472 33.6099 8.57907 33.4538 8.6573 33.3442L9.56345 32.2037C9.64151 32.0942 9.7978 32.0787 9.90716 32.1724ZM8.73537 33.6568C8.82892 33.7349 8.95408 33.7194 9.03215 33.6255L9.93845 32.4848C10.001 32.3913 9.98523 32.2661 9.89168 32.1881C9.7978 32.1098 9.6728 32.1255 9.59474 32.2194L8.68843 33.3599C8.62601 33.4538 8.64166 33.5942 8.73521 33.6568H8.73537Z" fill="white"/>
<path d="M10.0479 29.8443C10.1416 29.9379 10.1416 30.0787 10.0479 30.1567L7.73552 32.4535C7.64165 32.5474 7.50117 32.5317 7.42294 32.4535C7.34488 32.3755 7.32924 32.2192 7.42294 32.1411L9.71964 29.8443C9.81351 29.7505 9.95415 29.7505 10.0479 29.8443Z" fill="#F3F3F3"/>
<path d="M10.0636 29.8287C10.1086 29.8745 10.1338 29.9362 10.1338 30.0005C10.1338 30.0647 10.1086 30.1264 10.0636 30.1722L7.75109 32.4694C7.70525 32.5144 7.64357 32.5396 7.57932 32.5396C7.51508 32.5396 7.45339 32.5144 7.40755 32.4694C7.36244 32.4235 7.33716 32.3618 7.33716 32.2975C7.33716 32.2331 7.36244 32.1714 7.40755 32.1255L9.7199 29.8287C9.76575 29.7836 9.82746 29.7584 9.89175 29.7584C9.95604 29.7584 10.0178 29.7836 10.0636 29.8287ZM7.42304 32.4536C7.5011 32.5317 7.64174 32.5317 7.7198 32.4536L10.0323 30.1566C10.1105 30.0785 10.1105 29.9379 10.0323 29.8598C9.95425 29.7816 9.81361 29.7816 9.73554 29.8598L7.42304 32.1566C7.34498 32.2347 7.34498 32.3599 7.42304 32.4534V32.4536Z" fill="white"/>
<path d="M7.70402 29.9693C7.78209 30.0629 7.78209 30.2037 7.68838 30.2818L6.57902 31.2194C6.48531 31.2975 6.34467 31.2819 6.26644 31.1881C6.18838 31.0943 6.18838 30.9538 6.28209 30.8755L7.39144 29.938C7.48531 29.8598 7.6258 29.8754 7.70402 29.9693Z" fill="#F3F3F3"/>
<path d="M7.71955 29.9535C7.81326 30.0631 7.79761 30.2192 7.7039 30.2974L6.59454 31.2347C6.50083 31.3286 6.34454 31.313 6.25083 31.2036C6.15696 31.0941 6.1726 30.938 6.26631 30.8598L7.37583 29.9224C7.46938 29.8287 7.62584 29.8444 7.71939 29.9537L7.71955 29.9535ZM6.28196 31.188C6.36018 31.2817 6.48518 31.2817 6.57873 31.2193L7.68826 30.2817C7.76632 30.2037 7.78197 30.0785 7.7039 29.985C7.62568 29.8911 7.50067 29.8911 7.40713 29.9537L6.2976 30.8911C6.20389 30.9691 6.20389 31.0943 6.28196 31.1878V31.188Z" fill="white"/>
<path d="M8.32929 27.7191C8.40735 27.8287 8.37606 27.9691 8.26671 28.0317L5.54802 29.8442C5.43866 29.9066 5.29802 29.8753 5.2356 29.7816C5.15738 29.6723 5.18867 29.5316 5.29802 29.4691L8.01687 27.6567C8.11074 27.5943 8.25122 27.6254 8.32945 27.7191H8.32929Z" fill="#F3F3F3"/>
<path d="M8.34487 27.7192C8.42293 27.8287 8.39164 27.9848 8.28229 28.0631L5.56363 29.8755C5.45428 29.9537 5.298 29.9222 5.21993 29.7974C5.14171 29.688 5.17316 29.5318 5.28235 29.4537L8.00116 27.6411C8.11052 27.5631 8.26664 27.5944 8.34471 27.7192H8.34487ZM5.25122 29.7661C5.31364 29.8598 5.43864 29.8911 5.53235 29.8287L8.251 28.0161C8.34487 27.9537 8.37599 27.8287 8.29793 27.7194C8.23551 27.6255 8.11052 27.5944 8.01665 27.6568L5.298 29.4693C5.20429 29.5474 5.18864 29.6724 5.25122 29.7661Z" fill="white"/>
<path d="M6.00104 27.3911C6.06362 27.5005 6.03233 27.6411 5.92298 27.7037L4.65731 28.4223C4.54796 28.4847 4.40731 28.4379 4.34489 28.3286C4.28231 28.2193 4.3136 28.0786 4.42296 28.0161L5.68862 27.2974C5.79797 27.2348 5.93862 27.2818 6.0012 27.3911H6.00104Z" fill="#F3F3F3"/>
<path d="M6.0168 27.3754C6.07922 27.5004 6.04793 27.641 5.93858 27.7036L4.67295 28.4222C4.5636 28.4846 4.40731 28.4379 4.34489 28.3285C4.28231 28.2035 4.3136 28.0629 4.42295 28.0003L5.68858 27.2817C5.79794 27.2191 5.95422 27.266 6.01664 27.3754H6.0168ZM4.36037 28.3129C4.42295 28.4222 4.54795 28.4535 4.64166 28.3909L5.90729 27.6723C6.001 27.6097 6.03229 27.4847 5.98551 27.391C5.92293 27.2817 5.79794 27.2504 5.70423 27.313L4.4386 28.0316C4.34489 28.0784 4.3136 28.2035 4.36053 28.3129H4.36037Z" fill="white"/>
<path d="M7.0478 25.3131C7.09458 25.4381 7.0478 25.5631 6.9228 25.6099L3.90716 26.8599C3.7978 26.9068 3.65716 26.8444 3.61039 26.7349C3.56345 26.6099 3.61039 26.4849 3.73539 26.4381L6.75103 25.1881C6.86038 25.1413 7.00103 25.1881 7.0478 25.3131Z" fill="#F3F3F3"/>
<path d="M7.06345 25.2974C7.11022 25.4224 7.06345 25.563 6.93845 25.6255L3.9228 26.8754C3.86272 26.8981 3.7961 26.896 3.73755 26.8696C3.67899 26.8433 3.63327 26.7948 3.61039 26.7348C3.56345 26.6098 3.61039 26.4692 3.73539 26.4067L6.75103 25.1567C6.81112 25.1341 6.87773 25.1362 6.93629 25.1625C6.99484 25.1889 7.04057 25.2374 7.06345 25.2974ZM3.64151 26.7192C3.68845 26.8287 3.81345 26.8756 3.90716 26.8442L6.92281 25.5942C7.03216 25.5474 7.0791 25.4224 7.03216 25.313C6.98539 25.2037 6.86039 25.1567 6.76651 25.188L3.75087 26.438C3.64151 26.4848 3.59474 26.6098 3.64151 26.7193V26.7192Z" fill="white"/>
<path d="M4.84469 24.5318C4.89147 24.6568 4.82905 24.7818 4.70405 24.8285L3.32904 25.2818C3.21968 25.3285 3.07904 25.2505 3.04775 25.1411C3.00097 25.0161 3.06339 24.8911 3.18839 24.8443L4.5634 24.3911C4.67276 24.3444 4.79776 24.4068 4.84469 24.5318Z" fill="#F3F3F3"/>
<path d="M4.86001 24.5161C4.90694 24.6411 4.84452 24.7818 4.70388 24.8287L3.3289 25.2819C3.2039 25.3286 3.06326 25.2506 3.01632 25.1255C2.96955 25.0005 3.03197 24.8599 3.17277 24.8131L4.54759 24.3598C4.67259 24.3287 4.81323 24.3911 4.86017 24.5163L4.86001 24.5161ZM3.04777 25.1101C3.07906 25.2194 3.20406 25.282 3.31341 25.2507L4.6884 24.7974C4.79775 24.7663 4.84469 24.6413 4.8134 24.5319C4.78211 24.4226 4.65711 24.36 4.54775 24.3913L3.17277 24.8445C3.06342 24.8913 3.01648 25.0007 3.04777 25.1101Z" fill="white"/>
<path d="M6.25129 22.6723C6.28242 22.7973 6.20436 22.9223 6.07936 22.938L2.87615 23.563C2.75115 23.5943 2.6418 23.5004 2.61067 23.3754C2.57938 23.2504 2.65744 23.1254 2.78244 23.1098L5.98565 22.4848C6.11065 22.4693 6.23565 22.5473 6.25113 22.6723H6.25129Z" fill="#F3F3F3"/>
<path d="M6.28234 22.6724C6.31363 22.813 6.21992 22.938 6.09492 22.9692L2.89169 23.5942C2.76669 23.6254 2.64169 23.5317 2.61056 23.3911C2.57927 23.2504 2.67298 23.1254 2.79798 23.0943L6.00121 22.4693C6.12605 22.438 6.25121 22.5317 6.28234 22.6724ZM2.64169 23.3756C2.65734 23.4848 2.76669 23.563 2.87605 23.5474L6.07927 22.9224C6.18863 22.9067 6.26669 22.7817 6.23557 22.6724C6.21992 22.563 6.11057 22.4848 6.00105 22.5005L2.79798 23.1254C2.68863 23.1567 2.61056 23.2661 2.64169 23.3754V23.3756Z" fill="white"/>
<path d="M4.25125 21.4694C4.26674 21.5942 4.18867 21.7038 4.06367 21.7194L2.62625 21.8912C2.50109 21.9069 2.39174 21.8131 2.37625 21.6879C2.36061 21.5631 2.43867 21.4537 2.56367 21.4379L4.00125 21.2661C4.11061 21.2504 4.23561 21.3442 4.25125 21.4694Z" fill="#F3F3F3"/>
<path d="M4.26689 21.4692C4.28237 21.6097 4.18866 21.7347 4.06366 21.7503L2.62624 21.9222C2.50108 21.9379 2.37624 21.8442 2.3606 21.7036C2.34495 21.5629 2.43866 21.4379 2.56366 21.4223L4.00124 21.2504C4.12608 21.2347 4.25124 21.3286 4.26672 21.4691L4.26689 21.4692ZM2.37608 21.6879C2.39172 21.7973 2.50124 21.8911 2.6106 21.8753L4.04801 21.7036C4.15737 21.6879 4.2356 21.5786 4.21995 21.4692C4.20431 21.3597 4.09495 21.266 3.9856 21.2817L2.54801 21.4536C2.43866 21.4692 2.3606 21.5786 2.37608 21.6879Z" fill="white"/>
<path d="M6.00098 19.9535C6.00098 20.0786 5.90743 20.188 5.78227 20.188H2.5168C2.3918 20.188 2.2981 20.0786 2.2981 19.9536C2.2981 19.8287 2.3918 19.7191 2.5168 19.7191H5.78243C5.90743 19.7191 6.0013 19.8287 6.0013 19.9536L6.00098 19.9535Z" fill="#F3F3F3"/>
<path d="M6.01683 19.9534C6.01683 20.0942 5.90731 20.2034 5.78231 20.2034H2.51683C2.39183 20.2034 2.28247 20.0941 2.28247 19.9534C2.28247 19.813 2.39183 19.7035 2.51683 19.7035H5.78247C5.90747 19.7035 6.01683 19.813 6.01683 19.9534ZM2.3136 19.938C2.3136 20.0473 2.40731 20.1567 2.51683 20.1567H5.78231C5.89166 20.1567 5.98554 20.063 5.98554 19.938C5.98554 19.8286 5.89166 19.7191 5.78231 19.7191H2.51683C2.40747 19.7347 2.31376 19.8286 2.31376 19.938H2.3136Z" fill="white"/>
<path d="M4.26702 18.3754C4.25121 18.5004 4.1575 18.5941 4.0325 18.5941L2.57925 18.4848C2.45441 18.4691 2.3607 18.3598 2.37619 18.2348C2.39183 18.1098 2.4857 18.0161 2.61071 18.0161L4.06379 18.1254C4.17314 18.1411 4.26702 18.2504 4.26702 18.3754Z" fill="#E2E2E2"/>
<path d="M4.28215 18.3754C4.2665 18.516 4.15715 18.6098 4.03215 18.6098L2.57893 18.5004C2.45409 18.4848 2.34474 18.3754 2.36038 18.2348C2.37587 18.0943 2.48538 18.0004 2.61038 18.0004L4.06344 18.1098C4.18844 18.1254 4.28215 18.2504 4.28215 18.3754ZM2.37587 18.2348C2.36038 18.3441 2.45409 18.4536 2.56345 18.4536L4.01666 18.563C4.12586 18.563 4.21973 18.4848 4.23537 18.3598C4.25102 18.2504 4.15715 18.141 4.04779 18.141L2.59458 18.0317C2.48538 18.0317 2.39151 18.1254 2.37587 18.2349V18.2348Z" fill="white"/>
<path d="M6.28207 17.2347C6.25078 17.3597 6.14142 17.4379 6.01642 17.4223L2.81336 16.766C2.68836 16.7347 2.61013 16.6254 2.64142 16.5004C2.67271 16.3754 2.78207 16.2972 2.90707 16.313L6.11029 16.9536C6.21965 16.9847 6.29771 17.1097 6.28207 17.2347Z" fill="#F3F3F3"/>
<path d="M6.29794 17.2348C6.26665 17.3754 6.14165 17.4537 6.01665 17.438L2.81361 16.7974C2.68861 16.7661 2.5949 16.6411 2.62619 16.5006C2.65732 16.3598 2.78232 16.2817 2.90732 16.2974L6.11052 16.938C6.23552 16.9693 6.31359 17.0943 6.29794 17.2348ZM2.65732 16.5005C2.64167 16.6098 2.70409 16.7192 2.81361 16.7504L6.01681 17.3911C6.12617 17.4067 6.23552 17.3443 6.26681 17.2192C6.2823 17.1098 6.21988 17.0004 6.11036 16.9692L2.90748 16.3287C2.78248 16.313 2.68877 16.3911 2.65748 16.5005H2.65732Z" fill="white"/>
<path d="M4.87623 15.3599C4.86905 15.3897 4.85608 15.4177 4.83806 15.4425C4.82004 15.4672 4.79731 15.4882 4.77119 15.5041C4.74506 15.5201 4.71605 15.5307 4.6858 15.5355C4.65556 15.5402 4.62468 15.5389 4.59493 15.5317L3.18862 15.1411C3.06362 15.1098 3.0012 14.9848 3.03233 14.8598C3.0395 14.83 3.05247 14.802 3.0705 14.7773C3.08852 14.7525 3.11124 14.7316 3.13737 14.7156C3.16349 14.6997 3.19251 14.689 3.22275 14.6843C3.253 14.6796 3.28388 14.6808 3.31363 14.688L4.71993 15.0787C4.84493 15.1098 4.90735 15.2348 4.87623 15.3598V15.3599Z" fill="#F3F3F3"/>
<path d="M4.89146 15.3599C4.86033 15.4847 4.71968 15.5786 4.59468 15.5316L3.18836 15.141C3.06336 15.1097 2.98513 14.9691 3.01642 14.8443C3.04771 14.7191 3.18836 14.6254 3.31336 14.6723L4.71968 15.063C4.84468 15.0943 4.92291 15.2192 4.89146 15.3597V15.3599ZM3.06336 14.8439C3.03207 14.9535 3.09465 15.0784 3.20401 15.1096L4.61032 15.5002C4.71968 15.5315 4.82903 15.4689 4.86033 15.3439C4.89146 15.2346 4.82903 15.1096 4.71968 15.0784L3.31336 14.6878C3.20401 14.6722 3.09465 14.7346 3.06336 14.8441V14.8439Z" fill="white"/>
<path d="M7.07902 14.61C7.03224 14.7348 6.89143 14.7817 6.78224 14.7348L3.76644 13.4848C3.65708 13.438 3.59466 13.2974 3.64144 13.188C3.68837 13.0631 3.82902 13.0161 3.93837 13.0631L6.95402 14.313C7.07902 14.3598 7.12595 14.5004 7.07902 14.6098V14.61Z" fill="#F3F3F3"/>
<path d="M7.09482 14.6255C7.07193 14.6855 7.02618 14.734 6.96759 14.7604C6.909 14.7867 6.84234 14.7888 6.78223 14.7661L3.76657 13.5161C3.64157 13.4693 3.59479 13.3287 3.64157 13.1881C3.66445 13.128 3.7102 13.0795 3.76879 13.0531C3.82739 13.0268 3.89404 13.0247 3.95415 13.0474L6.96981 14.2974C7.09482 14.3598 7.14159 14.5006 7.09482 14.6255ZM3.67286 13.2037C3.62608 13.3131 3.67286 13.4381 3.78221 13.4848L6.79788 14.7348C6.90723 14.7817 7.01659 14.7192 7.06352 14.6098C7.1103 14.5005 7.06352 14.3755 6.95417 14.3287L3.9385 13.0787C3.82915 13.0474 3.70415 13.0944 3.67286 13.2037Z" fill="white"/>
<path d="M6.0636 12.5005C6.00118 12.6098 5.87618 12.6568 5.76682 12.6098L4.46989 11.9537C4.36053 11.9067 4.3136 11.7661 4.37618 11.6411C4.4386 11.5317 4.5636 11.4848 4.67295 11.5317L5.96973 12.188C6.07924 12.2505 6.12618 12.3913 6.0636 12.5005Z" fill="#F3F3F3"/>
<path d="M6.07933 12.5161C6.01675 12.6411 5.87611 12.6881 5.75111 12.6255L4.45434 11.9692C4.32934 11.9068 4.28241 11.7661 4.34499 11.6411C4.4074 11.5161 4.54821 11.4692 4.67305 11.5318L5.96981 12.1881C6.09497 12.2348 6.14175 12.3913 6.07933 12.5161ZM4.39176 11.6568C4.34499 11.7661 4.37628 11.8911 4.48563 11.9381L5.7824 12.5944C5.87627 12.6411 6.00127 12.5944 6.06368 12.5005C6.11046 12.3911 6.07933 12.2661 5.96998 12.2192L4.65724 11.5632C4.56353 11.5164 4.43853 11.5476 4.3916 11.6569L4.39176 11.6568Z" fill="white"/>
<path d="M8.36023 12.2035C8.28217 12.313 8.15716 12.3443 8.04781 12.2661L5.34452 10.4693C5.23533 10.4067 5.21968 10.2661 5.2821 10.1567C5.34469 10.0474 5.48533 10.0161 5.59469 10.0942L8.31346 11.9067C8.40717 11.9693 8.43846 12.11 8.36023 12.2035Z" fill="#F3F3F3"/>
<path d="M8.37582 12.2192C8.29775 12.3287 8.14146 12.3598 8.03227 12.2974L5.32906 10.4848C5.21971 10.4067 5.18842 10.2661 5.26648 10.1412C5.34471 10.0317 5.501 10.0004 5.61035 10.063L8.3134 11.8754C8.4384 11.9537 8.45404 12.1098 8.37582 12.2192ZM5.29777 10.1567C5.23536 10.2504 5.251 10.3911 5.34455 10.4535L8.0634 12.2662C8.15711 12.3288 8.28211 12.2975 8.34469 12.2038C8.40711 12.11 8.39146 11.9693 8.29791 11.9069L5.5789 10.0943C5.48519 10.0317 5.36019 10.063 5.29761 10.1567H5.29777Z" fill="white"/>
<path d="M7.78239 9.93799C7.70432 10.0317 7.56368 10.063 7.46997 9.98476L6.32931 9.0943C6.23559 9.01608 6.21995 8.87544 6.29802 8.78173C6.37608 8.68802 6.51673 8.65673 6.6106 8.73496L7.7511 9.62542C7.84497 9.70364 7.86062 9.84412 7.78239 9.93799Z" fill="#F3F3F3"/>
<path d="M7.79777 9.95347C7.71971 10.063 7.56342 10.0786 7.45407 10.0004L6.31345 9.10993C6.2041 9.03187 6.18845 8.87558 6.26668 8.76639C6.34474 8.65687 6.50103 8.64123 6.61022 8.71945L7.75084 9.60992C7.86035 9.68815 7.876 9.84427 7.79777 9.95379V9.95347ZM6.2978 8.78171C6.21974 8.87542 6.23539 9.00042 6.32909 9.07848L7.46971 9.96927C7.56342 10.0317 7.68842 10.016 7.76648 9.92234C7.84471 9.82863 7.82906 9.70363 7.73535 9.62557L6.59473 8.73477C6.50103 8.67236 6.37587 8.688 6.29796 8.78171H6.2978Z" fill="white"/>
<path d="M10.1103 10.0942C10.0167 10.1881 9.87591 10.1881 9.79784 10.0942L7.46988 7.79739C7.37617 7.70368 7.39165 7.56303 7.46988 7.4848C7.56359 7.39126 7.70424 7.39126 7.78231 7.4848L10.0949 9.78176C10.1887 9.85982 10.1887 10.0161 10.1106 10.0943L10.1103 10.0942Z" fill="#F3F3F3"/>
<path d="M10.1105 10.1099C10.0646 10.1549 10.0029 10.1801 9.93868 10.1801C9.87443 10.1801 9.81275 10.1549 9.76691 10.1099L7.45419 7.81278C7.40907 7.76692 7.38379 7.70517 7.38379 7.64084C7.38379 7.57651 7.40907 7.51476 7.45419 7.46891C7.50004 7.42384 7.56175 7.39859 7.62604 7.39859C7.69033 7.39859 7.75204 7.42384 7.79789 7.46891L10.1105 9.76582C10.2198 9.85953 10.2198 10.0158 10.1105 10.1095V10.1099ZM7.4858 7.5002C7.40757 7.57842 7.40757 7.71907 7.4858 7.79697L9.7982 10.0939C9.87642 10.1721 10.0169 10.1721 10.095 10.0939C10.1732 10.0158 10.1732 9.87518 10.095 9.79711L7.78257 7.48471C7.70451 7.40665 7.57935 7.40665 7.4858 7.50036V7.5002Z" fill="white"/>
<path d="M9.96972 7.76605C9.87602 7.84428 9.73537 7.84428 9.65715 7.75041L8.70394 6.6567C8.62604 6.56299 8.64152 6.42234 8.73539 6.34428C8.82894 6.26605 8.96974 6.26605 9.0478 6.35976L10.001 7.45363C10.0791 7.5317 10.0634 7.67234 9.96972 7.76605Z" fill="#F3F3F3"/>
<path d="M9.98541 7.76605C9.87605 7.85976 9.73541 7.84428 9.64154 7.75041L8.68847 6.65669C8.59476 6.56298 8.61041 6.40669 8.71976 6.31298C8.82912 6.2191 8.96976 6.23475 9.06347 6.32862L10.0167 7.42218C10.0948 7.53169 10.0948 7.68799 9.98541 7.76605ZM8.73541 6.34427C8.64154 6.42233 8.64154 6.54733 8.70412 6.64104L9.65734 7.73476C9.73541 7.81299 9.86041 7.82863 9.95412 7.75041C10.0478 7.67234 10.0478 7.54718 9.98541 7.45363L9.03218 6.35975C8.95412 6.2662 8.82896 6.2662 8.73541 6.34427Z" fill="white"/>
<path d="M12.2198 8.36001C12.1105 8.43807 11.9698 8.40678 11.9072 8.29743L10.0792 5.59422C10.0166 5.48487 10.0479 5.34422 10.1416 5.2818C10.251 5.20374 10.3916 5.23503 10.4542 5.34438L12.2666 8.04743C12.3448 8.15678 12.3135 8.29743 12.2198 8.35985V8.36001Z" fill="#F3F3F3"/>
<path d="M12.2197 8.37546C12.1104 8.45368 11.9541 8.42223 11.8759 8.31304L10.0635 5.60979C9.98548 5.50044 10.0168 5.34431 10.1416 5.26624C10.2509 5.18801 10.4072 5.21931 10.4855 5.32866L12.2978 8.03174C12.3758 8.15674 12.3446 8.29739 12.2197 8.37546ZM10.1571 5.29737C10.0634 5.35979 10.0321 5.48479 10.0947 5.57866L11.907 8.28175C11.9696 8.37546 12.0946 8.3911 12.2038 8.32852C12.2976 8.2661 12.3289 8.1411 12.2663 8.04739L10.4542 5.35979C10.3916 5.26624 10.2509 5.23479 10.1574 5.29737H10.1571Z" fill="white"/>
<path d="M12.548 6.04749C12.4386 6.10991 12.298 6.07878 12.2356 5.96942L11.5167 4.70378C11.4543 4.59442 11.5011 4.45378 11.6106 4.3912C11.7199 4.32878 11.8606 4.35991 11.923 4.46942L12.6417 5.73491C12.6886 5.84426 12.6573 5.98491 12.5481 6.04749H12.548Z" fill="#F3F3F3"/>
<path d="M12.5478 6.06314C12.4228 6.12556 12.2822 6.09444 12.2198 5.98492L11.5009 4.71943C11.4385 4.60991 11.4698 4.45378 11.5948 4.3912C11.7198 4.32878 11.8604 4.35991 11.9228 4.46943L12.6415 5.73492C12.7041 5.84427 12.6728 5.98492 12.548 6.06314H12.5478ZM11.6104 4.40684C11.5166 4.46926 11.4698 4.59426 11.5322 4.68814L12.2511 5.95379C12.3135 6.04734 12.4385 6.07879 12.5322 6.03185C12.6261 5.96943 12.6728 5.84427 12.6104 5.75056L11.8916 4.48491C11.8448 4.39136 11.7041 4.34426 11.6104 4.40684Z" fill="white"/>
<path d="M14.6257 7.07861C14.5008 7.12539 14.3757 7.07861 14.3289 6.96926L13.0633 3.95345C13.0165 3.8441 13.079 3.70345 13.1883 3.65652C13.3133 3.60974 13.4383 3.65652 13.4851 3.76587L14.7507 6.78152C14.7976 6.89087 14.7352 7.03152 14.6257 7.07829V7.07861Z" fill="#F3F3F3"/>
<path d="M14.6262 7.09428C14.5014 7.14106 14.3607 7.09428 14.2982 6.96912L13.0325 3.95366C13.0098 3.89355 13.0119 3.82689 13.0382 3.7683C13.0646 3.70971 13.1131 3.66396 13.1731 3.64108C13.2981 3.5943 13.4388 3.64108 13.5014 3.76608L14.7669 6.7817C14.8138 6.89106 14.7514 7.0317 14.6264 7.09428H14.6262ZM13.2044 3.67237C13.0951 3.71914 13.0481 3.8443 13.0951 3.93801L14.3606 6.95348C14.4074 7.06283 14.5324 7.10961 14.6417 7.06283C14.7511 7.01606 14.7982 6.8909 14.7511 6.79719L13.4856 3.78156C13.423 3.67221 13.3136 3.62527 13.2043 3.67221L13.2044 3.67237Z" fill="white"/>
<path d="M15.3914 4.86004C15.2665 4.90682 15.1415 4.84424 15.0947 4.7194L14.6415 3.34426C14.5947 3.2349 14.6728 3.09426 14.7822 3.06313C14.8915 3.03184 15.0321 3.07877 15.0789 3.20377L15.5321 4.57876C15.5788 4.68811 15.5164 4.81311 15.3914 4.85988V4.86004Z" fill="#F3F3F3"/>
<path d="M15.4073 4.87546C15.3472 4.89811 15.2806 4.89603 15.2221 4.86966C15.1635 4.8433 15.1178 4.79482 15.0949 4.73482L14.6416 3.35982C14.5949 3.23482 14.6729 3.09433 14.7981 3.0474C14.8582 3.02475 14.9248 3.02683 14.9834 3.05319C15.0419 3.07956 15.0876 3.12804 15.1105 3.18804L15.5636 4.56304C15.5949 4.68804 15.5323 4.82869 15.4073 4.87546ZM14.7979 3.07869C14.6886 3.10982 14.626 3.23482 14.6573 3.34417L15.1105 4.71933C15.1417 4.82869 15.2667 4.87546 15.3762 4.84417C15.4855 4.81304 15.548 4.68804 15.5167 4.57869L15.0636 3.20353C15.0556 3.177 15.0422 3.15245 15.0241 3.13147C15.006 3.1105 14.9837 3.09356 14.9586 3.08177C14.9336 3.06998 14.9063 3.06359 14.8786 3.06304C14.8509 3.06248 14.8234 3.06776 14.7979 3.07853V3.07869Z" fill="white"/>
<path d="M17.2353 6.28172C17.1103 6.31301 16.9853 6.23494 16.9697 6.10978L16.3134 2.90674C16.2821 2.78174 16.376 2.67239 16.5008 2.6411C16.626 2.60981 16.7508 2.68787 16.7665 2.81303L17.4229 6.01624C17.4384 6.12543 17.3603 6.25043 17.2353 6.28172Z" fill="#F3F3F3"/>
<path d="M17.2352 6.29735C17.0945 6.32864 16.9695 6.23477 16.9382 6.10977L16.2819 2.90671C16.2507 2.78171 16.3445 2.64106 16.4695 2.62542C16.6102 2.59413 16.7352 2.688 16.7663 2.813L17.4228 6.01623C17.4539 6.14106 17.3758 6.26623 17.2352 6.29735ZM16.5008 2.65671C16.3913 2.67235 16.3132 2.78171 16.3289 2.90671L16.9852 6.10993C17.0008 6.21913 17.1257 6.29735 17.2352 6.26606C17.3445 6.25042 17.4226 6.14106 17.407 6.01606L16.7507 2.81284C16.7195 2.70364 16.6102 2.64106 16.5007 2.65671H16.5008Z" fill="white"/>
<path d="M18.423 4.25048C18.298 4.26613 18.1887 4.18806 18.1574 4.06306L17.97 2.62546C17.9543 2.50046 18.048 2.3911 18.1732 2.37546C18.298 2.35981 18.4074 2.43804 18.4387 2.56304L18.6261 4.00048C18.6417 4.12548 18.548 4.23483 18.423 4.25048Z" fill="#F3F3F3"/>
<path d="M18.423 4.2661C18.2824 4.28175 18.1574 4.18804 18.1417 4.06287L17.9543 2.62545C17.9387 2.50045 18.0324 2.37544 18.173 2.3598C18.3137 2.34432 18.4387 2.43803 18.4543 2.56303L18.6417 4.00045C18.6574 4.12546 18.5637 4.25046 18.423 4.2661ZM18.1887 2.39109C18.0793 2.40674 17.9855 2.51609 18.0011 2.62545L18.1887 4.06304C18.2043 4.17239 18.3137 4.25046 18.423 4.23481C18.5324 4.21933 18.6262 4.10981 18.6106 4.00045L18.423 2.56303C18.4074 2.45367 18.298 2.37544 18.1887 2.39109Z" fill="white"/>
<path d="M20.1104 38.4848C30.3276 38.4848 38.6104 30.2021 38.6104 19.9848C38.6104 9.76753 30.3276 1.4848 20.1104 1.4848C9.89308 1.4848 1.61035 9.76753 1.61035 19.9848C1.61035 30.2021 9.89308 38.4848 20.1104 38.4848Z" fill="url(#paint2_linear_202_12440)" fill-opacity="0.2"/>
<path d="M32.923 8.25046L18.001 17.813H17.9854V17.8285L17.9697 17.8442L8.65747 33.2037L22.3449 22.188L22.3605 22.1726V22.1569L32.9231 8.25062L32.923 8.25046Z" fill="black" fill-opacity="0.05"/>
<path d="M32.6416 7.35971L17.8916 17.844L22.2666 22.1877L32.6416 7.35971Z" fill="#CD151E"/>
<path d="M17.9072 17.8129L20.1104 19.9847L32.6415 7.35971L17.9072 17.8129Z" fill="#FA5153"/>
<path d="M17.9072 17.8129L22.2822 22.1565L7.53223 32.641L17.9072 17.8127V17.8129Z" fill="#ACACAC"/>
<path d="M7.53223 32.641L20.1103 19.9847L17.9071 17.8127L7.53223 32.641Z" fill="#EEEEEE"/>
<defs>
<linearGradient id="paint0_linear_202_12440" x1="20.001" y1="40.0004" x2="20.001" y2="0.000427246" gradientUnits="userSpaceOnUse">
<stop offset="0.25" stop-color="#DBDBDA"/>
<stop offset="1" stop-color="white"/>
</linearGradient>
<radialGradient id="paint1_radial_202_12440" cx="0" cy="0" r="1" gradientUnits="userSpaceOnUse" gradientTransform="translate(22.6002 15.9366) scale(22.5818 22.5818)">
<stop stop-color="#2ABCE1"/>
<stop offset="0.11363" stop-color="#2ABBE1"/>
<stop offset="1" stop-color="#3375F8"/>
</radialGradient>
<linearGradient id="paint2_linear_202_12440" x1="19.7589" y1="14.6949" x2="11.1242" y2="30.1864" gradientUnits="userSpaceOnUse">
<stop stop-opacity="0"/>
<stop offset="1"/>
</linearGradient>
</defs>
</svg>
