<svg width="37" height="32" viewBox="0 0 37 32" fill="none" xmlns="http://www.w3.org/2000/svg">
<g clip-path="url(#clip0_202_11643)">
<path d="M32.3122 19.2169C34.5917 18.2575 36.1282 16.2872 35.9954 13.7287C35.9586 13.0183 35.8 12.3153 35.5361 11.6559C35.2925 11.0471 34.8998 10.5375 34.6203 9.95227C34.0451 8.74806 33.7812 7.41196 33.3044 6.16885C31.253 0.821156 24.5266 -0.800789 19.6658 1.44847C17.4846 2.4578 15.8006 4.2641 14.7242 6.40778C16.3919 5.82885 18.2801 6.16596 19.6513 7.2837C19.5974 7.35813 19.5448 7.43301 19.4948 7.50888C17.2063 5.81438 13.8662 6.60357 12.5397 9.12613C11.2576 11.5645 12.3788 14.6876 14.9041 15.7442C16.4339 16.3843 18.2265 16.1544 19.5477 15.1475C19.6046 15.2171 19.6636 15.2853 19.724 15.3519C18.1857 16.6527 15.97 16.9367 14.1605 16.0553C14.8161 17.1135 15.7351 17.9835 16.7829 18.6392C16.0071 20.057 15.4807 21.654 15.4435 23.2831C15.4096 24.764 15.4889 26.3633 16.0202 27.76C14.6717 27.727 13.1263 27.4702 12.1786 26.404C11.2834 25.3969 11.1116 23.9236 11.1136 22.626C11.1161 21.0262 11.4669 19.4942 11.6796 17.9195C11.8915 16.3517 11.7546 14.7104 11.0904 13.2628C9.75392 10.3501 6.15393 8.63849 3.15599 10.0089C0.225301 11.3485 -1.19236 15.3563 1.25058 17.858C2.24507 18.8764 3.75882 19.4155 5.14513 18.9971C6.4441 18.605 7.48041 17.4225 7.61243 16.0449C7.74421 14.6697 6.80805 13.2284 5.43037 12.9457C4.73199 12.8024 4.05886 13.3319 4.10694 14.0725C4.1279 14.3954 4.29788 14.6999 4.56138 14.8854C4.85384 15.0914 5.2257 15.0785 5.40292 15.4388C5.74149 16.1272 4.97942 16.8621 4.35511 16.9616C3.60302 17.0814 2.83397 16.5432 2.45565 15.9213C1.57771 14.4781 2.59759 12.6805 3.96954 12.0155C5.28716 11.3768 6.87031 11.7548 7.97244 12.6599C8.92672 13.4435 9.44859 14.6161 9.58642 15.8331C9.75894 17.3566 9.2993 18.8598 9.11675 20.3618C8.93445 21.8617 8.86311 23.4133 9.17283 24.9016C9.45912 26.2773 10.1117 27.5587 11.2095 28.4503C12.306 29.3408 13.6928 29.7424 15.075 29.8761C15.9417 29.9599 16.8159 29.9434 17.6828 29.8717C18.0855 30.1226 18.5569 30.3158 19.1058 30.4483C19.3023 31.0903 19.8923 31.538 20.5697 31.538H34.3143C36.0128 31.538 36.0238 29.4622 35.8124 28.2448C35.5928 26.9808 34.948 25.8116 33.8776 25.0891C33.8697 22.8389 33.2317 21.0019 32.3122 19.2169ZM18.6091 13.198C18.2069 13.6211 17.6425 13.886 17.0169 13.886C15.7988 13.886 14.8079 12.8862 14.8079 11.6571C14.8079 10.4281 15.7988 9.42828 17.0169 9.42828C17.6197 9.42828 18.1663 9.67368 18.5653 10.07C18.4953 10.5638 18.4607 11.1114 18.4607 11.7318C18.4607 12.2797 18.5125 12.764 18.6091 13.198ZM23.6859 13.3503C23.9047 12.2184 24.6863 11.2327 25.1744 10.2047C25.602 9.30431 25.875 8.31481 26.4446 7.49038C27.4761 5.9972 29.2303 5.10292 31.0346 5.18376C31.9366 6.43145 32.2555 7.94245 32.75 9.37714C32.9674 10.0076 33.2034 10.6326 33.5599 11.1977C33.9807 11.8649 34.2993 12.5628 34.4171 13.3515L34.0426 13.2303C33.4847 13.0034 33.1282 13.8685 33.4955 14.2392L34.2169 14.967C34.257 15.0075 34.302 15.0391 34.3489 15.0666C33.715 17.5716 30.763 18.3037 28.5474 18.5267C25.9724 18.3587 23.1276 16.2385 23.6859 13.3503ZM31.0605 29.7593H20.7717H20.7704H20.7676C20.7324 29.4023 20.6889 29.075 20.9122 28.7766C21.1588 28.4471 21.5705 28.2323 21.9307 28.0584C23.0305 27.5278 24.2635 27.2445 25.4601 27.0452C26.69 26.8404 28.1099 26.6263 29.3211 27.0228C30.4749 27.4005 31.2461 28.5119 31.0605 29.7593ZM31.5315 29.277C31.4187 27.5985 30.1814 26.5702 28.5788 26.3936C29.6137 26.3165 30.7504 26.3164 31.6025 27.0061C32.3797 27.6352 32.7285 28.7793 32.5896 29.7593H31.5235C31.5424 29.5987 31.5423 29.4382 31.5315 29.277ZM32.8775 28.1158C32.546 27.0726 31.7296 26.3344 30.6884 26.0514C31.704 26.0233 32.7468 26.2259 33.4255 27.0546C34.0095 27.7677 34.2437 28.8495 34.1204 29.7593H33.0524C33.1162 29.2159 33.0427 28.6353 32.8775 28.1158ZM32.6652 24.9002C32.6652 25.2268 32.6384 25.5579 32.5771 25.8788C31.9868 25.6359 31.3496 25.5669 30.7168 25.5881C30.2151 23.8058 30.4774 21.8163 31.4792 20.2569C32.1458 21.6924 32.6652 23.2996 32.6652 24.9002ZM29.3073 11.5888C29.2773 10.6069 29.8134 9.79355 30.5047 9.77204C31.196 9.75055 31.7807 10.5291 31.8107 11.511C31.8407 12.4928 31.3046 13.3062 30.6133 13.3277C29.922 13.3492 29.3373 12.5707 29.3073 11.5888Z" fill="#753F8C"/>
</g>
<defs>
<clipPath id="clip0_202_11643">
<rect width="37" height="32" fill="white"/>
</clipPath>
</defs>
</svg>
