<svg width="37" height="36" viewBox="0 0 37 36" fill="none" xmlns="http://www.w3.org/2000/svg">
<g clip-path="url(#clip0_202_12802)">
<mask id="mask0_202_12802" style="mask-type:alpha" maskUnits="userSpaceOnUse" x="0" y="0" width="37" height="37">
<path d="M35.9829 18.915C35.9982 18.612 36.0059 18.3071 36.0059 18.0004C36.0059 8.05927 27.947 0.000396729 18.0058 0.000396729C17.6993 0.000396729 17.3945 0.0080609 17.0917 0.0232081C16.3333 0.152166 15.7559 0.812424 15.7559 1.60754V4.5004C7.05738 4.5004 0.00585938 11.5519 0.00585938 20.2504C0.00585938 28.9489 7.05738 36.0004 15.7559 36.0004C24.4544 36.0004 31.5059 28.9489 31.5059 20.2504H34.3987C35.1936 20.2504 35.8538 19.6732 35.9829 18.915Z" fill="white"/>
</mask>
<g mask="url(#mask0_202_12802)">
<path d="M15.7559 36.0004C24.4543 36.0004 31.5059 28.9489 31.5059 20.2504C31.5059 11.5519 24.4543 4.5004 15.7559 4.5004C7.05737 4.5004 0.00585938 11.5519 0.00585938 20.2504C0.00585938 28.9489 7.05737 36.0004 15.7559 36.0004Z" fill="url(#paint0_linear_202_12802)"/>
<path opacity="0.5" fill-rule="evenodd" clip-rule="evenodd" d="M17.0355 0.024612C17.357 0.00852899 17.6805 0.000396729 18.0058 0.000396729C28.5684 0.000396729 37.1309 8.56295 37.1309 19.1254C37.1309 19.4508 37.1227 19.7747 37.1065 20.0967L37.1031 20.1633L37.0919 20.2289C36.8723 21.5186 35.7513 22.5004 34.3987 22.5004H14.6309V2.73255C14.6309 1.37971 15.613 0.258498 16.9031 0.0391274L16.9688 0.0279448L17.0355 0.024612ZM17.2333 2.26774C17.0302 2.32401 16.8809 2.51181 16.8809 2.73255V20.2504H34.3987C34.6193 20.2504 34.8071 20.1012 34.8634 19.8979C34.875 19.6421 34.8809 19.3846 34.8809 19.1254C34.8809 9.80559 27.3257 2.2504 18.0058 2.2504C17.7468 2.2504 17.4893 2.25622 17.2333 2.26774Z" fill="black" fill-opacity="0.5"/>
<path fill-rule="evenodd" clip-rule="evenodd" d="M35.9829 18.915C35.9982 18.612 36.0059 18.3071 36.0059 18.0004C36.0059 8.05927 27.947 0.000396729 18.0058 0.000396729C17.6993 0.000396729 17.3945 0.0080609 17.0917 0.0232081C16.3333 0.152166 15.7559 0.812424 15.7559 1.60754V20.2504H34.3987C35.1936 20.2504 35.8538 19.6732 35.9829 18.915Z" fill="url(#paint1_linear_202_12802)"/>
<mask id="mask1_202_12802" style="mask-type:alpha" maskUnits="userSpaceOnUse" x="15" y="0" width="22" height="21">
<path fill-rule="evenodd" clip-rule="evenodd" d="M35.9829 18.915C35.9982 18.612 36.0059 18.3071 36.0059 18.0004C36.0059 8.05927 27.947 0.000396729 18.0058 0.000396729C17.6993 0.000396729 17.3945 0.0080609 17.0917 0.0232081C16.3333 0.152166 15.7559 0.812424 15.7559 1.60754V20.2504H34.3987C35.1936 20.2504 35.8538 19.6732 35.9829 18.915Z" fill="url(#paint2_linear_202_12802)"/>
</mask>
<g mask="url(#mask1_202_12802)">
<path opacity="0.5" fill-rule="evenodd" clip-rule="evenodd" d="M14.6309 11.2504H23.0252C24.6023 11.2504 25.8809 12.529 25.8809 14.1062V22.5004H14.6309V11.2504ZM16.8809 13.5004V20.2504H23.6309V14.1062C23.6309 13.7716 23.3596 13.5004 23.0252 13.5004H16.8809Z" fill="black" fill-opacity="0.5"/>
<path d="M15.7559 11.2504H23.0252C23.981 11.2504 24.7559 12.0253 24.7559 12.9812V20.2504H15.7559V11.2504Z" fill="url(#paint3_linear_202_12802)"/>
</g>
</g>
</g>
<defs>
<linearGradient id="paint0_linear_202_12802" x1="11.5689" y1="15.1326" x2="22.0938" y2="34.7847" gradientUnits="userSpaceOnUse">
<stop stop-color="#0078D4"/>
<stop offset="1" stop-color="#2064AE"/>
</linearGradient>
<linearGradient id="paint1_linear_202_12802" x1="21.0059" y1="3.56289" x2="40.9498" y2="21.6503" gradientUnits="userSpaceOnUse">
<stop stop-color="#40C4F5"/>
<stop offset="1" stop-color="#0095E6"/>
</linearGradient>
<linearGradient id="paint2_linear_202_12802" x1="21.0059" y1="3.56289" x2="40.9498" y2="21.6503" gradientUnits="userSpaceOnUse">
<stop stop-color="#40C4F5"/>
<stop offset="1" stop-color="#0095E6"/>
</linearGradient>
<linearGradient id="paint3_linear_202_12802" x1="16.4134" y1="11.3235" x2="20.2277" y2="20.953" gradientUnits="userSpaceOnUse">
<stop stop-color="#A7F2FF"/>
<stop offset="1" stop-color="#7CECFF"/>
</linearGradient>
<clipPath id="clip0_202_12802">
<rect width="37" height="36.0004" fill="white"/>
</clipPath>
</defs>
</svg>
