<svg width="41" height="29" viewBox="0 0 41 29" fill="none" xmlns="http://www.w3.org/2000/svg">
<g clip-path="url(#clip0_202_9258)">
<path fill-rule="evenodd" clip-rule="evenodd" d="M16.6489 3.05671C17.9385 1.71325 19.7352 0.878992 21.7213 0.878992C24.3615 0.878992 26.6656 2.35151 27.8923 4.53755C28.9898 4.04729 30.1786 3.79459 31.3807 3.79604C36.1429 3.79604 40.0032 7.69038 40.0032 12.4951C40.0032 17.2998 36.1429 21.1942 31.3807 21.1942C30.7984 21.1942 30.2306 21.136 29.6815 21.0253C28.6014 22.9515 26.5418 24.2534 24.179 24.2534C23.1899 24.2534 22.2542 24.0259 21.4217 23.6186C20.3263 26.1953 17.7745 28.0012 14.801 28.0012C11.7046 28.0012 9.06493 26.0413 8.05219 23.2936C7.60095 23.3888 7.14102 23.4368 6.67984 23.4366C2.99242 23.4371 0.00319237 20.4168 0.00319237 16.6909C0.000426014 15.5101 0.307205 14.3492 0.892946 13.324C1.47869 12.2987 2.32293 11.4449 3.34152 10.8476C2.91894 9.8739 2.70152 8.82357 2.70281 7.76213C2.70281 3.47668 6.18113 0.00317911 10.4718 0.00317911C11.6671 0.00178455 12.8465 0.276659 13.9181 0.806345C14.9896 1.33603 15.9242 2.10619 16.6489 3.05671Z" fill="#00A1E0"/>
<path fill-rule="evenodd" clip-rule="evenodd" d="M5.79693 14.5226L5.9588 14.0733C5.98461 13.9963 6.04279 14.0217 6.06642 14.0361C6.11147 14.0628 6.14385 14.0869 6.20203 14.121C6.67887 14.4224 7.12072 14.4255 7.25852 14.4255C7.61549 14.4255 7.83685 14.2365 7.83685 13.9815V13.9683C7.83685 13.691 7.49563 13.586 7.10147 13.4652L7.01397 13.4372C6.47282 13.2833 5.89405 13.0606 5.89405 12.3755V12.3615C5.89405 11.7114 6.41858 11.2578 7.16928 11.2578L7.25152 11.2569C7.69249 11.2569 8.11858 11.3851 8.42744 11.5723C8.45543 11.5898 8.48256 11.6222 8.46681 11.6651L8.30057 12.1143C8.27126 12.1909 8.1912 12.1401 8.1912 12.1401C7.86898 11.9722 7.51241 11.8808 7.14915 11.8729C6.83067 11.8729 6.62594 12.0417 6.62594 12.2709V12.2854C6.62594 12.5527 6.97679 12.6669 7.38363 12.7994L7.45363 12.8213C7.99303 12.9919 8.56874 13.2281 8.56874 13.8778V13.8913C8.56874 14.5935 8.05865 15.0296 7.23839 15.0296C6.83549 15.0296 6.45008 14.9675 6.04235 14.751C5.96536 14.7063 5.88924 14.6678 5.814 14.6132C5.80612 14.6018 5.77156 14.5882 5.7965 14.5226H5.79693ZM17.8085 14.5226L17.9708 14.0733C17.9944 13.9998 18.0631 14.0269 18.078 14.0361C18.1226 14.0637 18.1559 14.0869 18.2136 14.121C18.6913 14.4224 19.1323 14.4255 19.2714 14.4255C19.6271 14.4255 19.8489 14.2365 19.8489 13.9815V13.9683C19.8489 13.691 19.5081 13.586 19.1139 13.4652L19.0264 13.4372C18.4844 13.2833 17.9056 13.0606 17.9056 12.3755V12.3615C17.9056 11.7114 18.4306 11.2578 19.1813 11.2578L19.2631 11.2569C19.7041 11.2569 20.1306 11.3851 20.4399 11.5723C20.467 11.5898 20.4946 11.6222 20.4793 11.6651C20.464 11.7049 20.3275 12.0723 20.313 12.1143C20.2828 12.1909 20.2037 12.1401 20.2037 12.1401C19.8813 11.9722 19.5246 11.8807 19.1612 11.8729C18.8427 11.8729 18.638 12.0417 18.638 12.2709V12.2854C18.638 12.5527 18.9884 12.6669 19.3957 12.7994L19.4657 12.8213C20.0051 12.9919 20.5803 13.2281 20.5803 13.8778V13.8913C20.5803 14.5935 20.0707 15.0296 19.2504 15.0296C18.8471 15.0296 18.4617 14.9675 18.0544 14.751C17.9774 14.7063 17.9013 14.6678 17.8256 14.6132C17.8177 14.6018 17.7831 14.5882 17.8085 14.5226ZM26.6935 12.4101C26.7609 12.6358 26.7941 12.8838 26.7941 13.1459C26.7941 13.4084 26.7609 13.6555 26.6935 13.8813C26.6319 14.0989 26.5262 14.3016 26.3829 14.4767C26.2394 14.6467 26.0593 14.7822 25.8562 14.873C25.6462 14.9693 25.3995 15.0174 25.1221 15.0174C24.8448 15.0174 24.5972 14.9693 24.3881 14.873C24.1849 14.7822 24.0049 14.6467 23.8613 14.4767C23.7182 14.3016 23.6124 14.0991 23.5503 13.8817C23.4815 13.6426 23.4476 13.3947 23.4497 13.1459C23.4497 12.8834 23.4834 12.6358 23.5503 12.4101C23.6177 12.1826 23.7222 11.9822 23.8609 11.8151C24.0048 11.6444 24.1849 11.5078 24.3881 11.4153C24.5976 11.3173 24.8439 11.2678 25.1221 11.2678C25.4004 11.2678 25.6467 11.3173 25.8562 11.4153C26.0653 11.5128 26.2429 11.6471 26.3829 11.8151C26.522 11.9822 26.627 12.1826 26.6935 12.4101ZM26.0093 13.1459C26.0093 12.7491 25.9358 12.4372 25.7897 12.2185C25.6453 12.0015 25.4266 11.8965 25.1221 11.8965C24.8176 11.8965 24.6007 12.0015 24.4581 12.2185C24.315 12.4372 24.2419 12.7491 24.2419 13.1459C24.2419 13.5422 24.315 13.8563 24.4589 14.0768C24.6007 14.2964 24.8176 14.4027 25.1221 14.4027C25.4266 14.4027 25.6453 14.296 25.7897 14.0768C25.9349 13.8563 26.0093 13.5422 26.0093 13.1459ZM32.3185 14.2964L32.4865 14.761C32.5084 14.8179 32.4589 14.8428 32.4589 14.8428C32.1995 14.9434 31.8395 15.0152 31.4891 15.0152C30.895 15.0152 30.44 14.8441 30.1364 14.5064C29.8345 14.1696 29.6806 13.7115 29.6806 13.1433C29.6806 12.8803 29.7186 12.6314 29.793 12.4061C29.8674 12.1786 29.9789 11.9783 30.1259 11.8112C30.2785 11.6394 30.4668 11.5029 30.6775 11.4113C30.8963 11.3138 31.1535 11.2648 31.4405 11.2648C31.6343 11.2648 31.8067 11.2766 31.9545 11.2985C32.1124 11.323 32.3229 11.3798 32.4117 11.4144C32.4279 11.4205 32.4729 11.4424 32.4545 11.4953C32.3898 11.6777 32.3456 11.7967 32.2857 11.963C32.2594 12.0338 32.2061 12.0102 32.2061 12.0102C31.9808 11.9393 31.7647 11.907 31.4825 11.907C31.1435 11.907 30.8888 12.0198 30.7226 12.2408C30.5546 12.4634 30.4606 12.7552 30.4593 13.1433C30.4579 13.5689 30.5647 13.8843 30.7537 14.0794C30.9422 14.2741 31.2056 14.3725 31.5372 14.3725C31.6715 14.3725 31.7983 14.3638 31.9125 14.3459C32.0254 14.3279 32.1313 14.2929 32.231 14.254C32.231 14.254 32.2953 14.2299 32.3185 14.2964ZM35.8226 12.281C35.9718 12.8033 35.8939 13.2544 35.8913 13.2793C35.8856 13.3388 35.8244 13.3397 35.8244 13.3397L33.5062 13.3379C33.5207 13.6901 33.6051 13.9395 33.7757 14.1088C33.9433 14.2746 34.2092 14.3809 34.5693 14.3813C35.1196 14.3826 35.3545 14.2719 35.5212 14.2102C35.5212 14.2102 35.5846 14.1875 35.6087 14.2505L35.7596 14.6753C35.7902 14.7466 35.7658 14.7715 35.7399 14.786C35.5947 14.866 35.2425 15.0156 34.5723 15.0174C34.2473 15.0187 33.9643 14.9723 33.7311 14.8818C33.5095 14.7997 33.3099 14.6675 33.1479 14.4955C32.9931 14.3267 32.8781 14.1253 32.8115 13.9062C32.7398 13.6661 32.7045 13.4166 32.707 13.166C32.707 12.9035 32.7407 12.6542 32.8085 12.4262C32.8763 12.1966 32.9817 11.994 33.1221 11.8239C33.2677 11.6502 33.4502 11.5112 33.6563 11.417C33.8689 11.3168 34.1322 11.2678 34.4218 11.2678C34.6699 11.2678 34.8965 11.3212 35.0851 11.4026C35.2303 11.4647 35.3764 11.5771 35.526 11.7381C35.6205 11.8396 35.7644 12.0618 35.8226 12.281ZM33.5172 12.7653H35.1708C35.1537 12.5527 35.1122 12.3619 35.0168 12.2185C34.8716 12.0015 34.6712 11.882 34.3672 11.882C34.0627 11.882 33.8466 12.0015 33.7035 12.2185C33.6099 12.3619 33.5495 12.5448 33.5167 12.7653H33.5172ZM17.2542 12.281C17.403 12.8033 17.3264 13.2544 17.3238 13.2793C17.3177 13.3388 17.2564 13.3397 17.2564 13.3397L14.9378 13.3379C14.9527 13.6901 15.0367 13.9395 15.2078 14.1088C15.3753 14.2746 15.6409 14.3809 16.0009 14.3813C16.5512 14.3826 16.787 14.2719 16.9533 14.2102C16.9533 14.2102 17.0167 14.1875 17.0403 14.2505L17.1917 14.6753C17.2223 14.7466 17.1978 14.7715 17.1724 14.786C17.0263 14.866 16.6737 15.0156 16.0044 15.0174C15.6789 15.0187 15.3959 14.9723 15.1631 14.8818C14.9415 14.7996 14.7418 14.6674 14.5796 14.4955C14.4252 14.3265 14.3105 14.1252 14.244 13.9062C14.1718 13.6662 14.1362 13.4166 14.1386 13.166C14.1386 12.9035 14.1727 12.6542 14.2401 12.4262C14.3031 12.2063 14.41 12.0014 14.5542 11.8239C14.6997 11.6503 14.882 11.5113 15.0879 11.417C15.3014 11.3168 15.5647 11.2678 15.8535 11.2678C16.0817 11.2673 16.3076 11.3131 16.5176 11.4026C16.6628 11.4647 16.8089 11.5771 16.9581 11.7381C17.0526 11.8396 17.1965 12.0618 17.2542 12.281ZM14.9483 12.7653H16.6029C16.5854 12.5527 16.5438 12.3619 16.4489 12.2185C16.3045 12.0015 16.1033 11.882 15.7992 11.882C15.4947 11.882 15.2782 12.0015 15.136 12.2185C15.0415 12.3619 14.9816 12.5448 14.9479 12.7653H14.9483ZM10.8598 12.6546C10.8598 12.6546 11.0426 12.6708 11.2421 12.6997V12.6017C11.2421 12.2924 11.1778 12.1467 11.0514 12.0492C10.9219 11.9503 10.7285 11.8991 10.4783 11.8991C10.4783 11.8991 9.91396 11.8921 9.46774 12.1345C9.44718 12.1467 9.43011 12.1537 9.43011 12.1537C9.43011 12.1537 9.37412 12.1734 9.354 12.1161L9.18994 11.6751C9.16457 11.6117 9.21051 11.5828 9.21051 11.5828C9.41918 11.4201 9.92489 11.3216 9.92489 11.3216C10.1302 11.2856 10.3381 11.2664 10.5465 11.2643C11.0094 11.2643 11.3677 11.3719 11.6113 11.585C11.8554 11.7989 11.9797 12.1436 11.9797 12.6082L11.981 14.7291C11.981 14.7291 11.9858 14.7903 11.9276 14.8043C11.9276 14.8043 11.8423 14.828 11.7658 14.8459C11.6883 14.8638 11.4092 14.9207 11.1813 14.9592C10.9486 14.9982 10.713 15.0178 10.477 15.0178C10.2517 15.0178 10.0452 14.9968 9.86321 14.9553C9.69361 14.9197 9.53301 14.8501 9.39118 14.7505C9.26193 14.6567 9.15817 14.532 9.08933 14.3879C9.01802 14.2422 8.98215 14.0641 8.98215 13.8585C8.98215 13.6568 9.02458 13.477 9.10639 13.3239C9.18863 13.1717 9.3015 13.0426 9.44324 12.9416C9.58967 12.8385 9.75339 12.7625 9.92664 12.7172C10.1073 12.669 10.2994 12.6441 10.498 12.6441C10.6437 12.6441 10.7653 12.6472 10.8598 12.6546ZM9.93714 14.2837C9.93583 14.2833 10.1449 14.4478 10.617 14.4189C10.9486 14.3988 11.2425 14.3358 11.2425 14.3358V13.2815C11.2425 13.2815 10.9459 13.2329 10.613 13.2281C10.141 13.2224 9.93977 13.3961 9.94108 13.3957C9.80196 13.4945 9.73416 13.6411 9.73416 13.8441C9.73416 13.974 9.75734 14.0755 9.80415 14.1464C9.83346 14.1932 9.84615 14.2107 9.93714 14.2837ZM29.5598 11.4599C29.5379 11.5233 29.4255 11.8409 29.3848 11.9463C29.37 11.9866 29.3455 12.0142 29.3004 12.0093C29.3004 12.0093 29.1674 11.9787 29.0458 11.9787C28.9622 11.9787 28.8428 11.9892 28.7352 12.0225C28.6272 12.0556 28.529 12.1147 28.4491 12.1944C28.3642 12.2762 28.2955 12.3913 28.2457 12.5356C28.1949 12.6809 28.1687 12.9118 28.1687 13.1437V14.8708C28.1687 14.8801 28.167 14.8892 28.1635 14.8977C28.16 14.9063 28.1548 14.9141 28.1483 14.9206C28.1418 14.9271 28.1341 14.9323 28.1256 14.9359C28.117 14.9394 28.1079 14.9413 28.0987 14.9413H27.4902C27.4808 14.9414 27.4716 14.9397 27.463 14.9362C27.4543 14.9327 27.4464 14.9276 27.4398 14.9211C27.4331 14.9146 27.4278 14.9069 27.4241 14.8983C27.4205 14.8898 27.4185 14.8806 27.4184 14.8713V11.4131C27.4184 11.3741 27.4468 11.3431 27.4858 11.3431H28.0794C28.1188 11.3431 28.1468 11.3741 28.1468 11.4131V11.6957C28.2356 11.5767 28.3948 11.4717 28.5388 11.4069C28.6831 11.3413 28.8446 11.2932 29.1363 11.3107C29.2881 11.3199 29.4854 11.3614 29.5253 11.3768C29.533 11.3799 29.5401 11.3845 29.5461 11.3904C29.5521 11.3963 29.5568 11.4033 29.56 11.4111C29.5632 11.4188 29.5649 11.4271 29.5648 11.4355C29.5648 11.4439 29.5631 11.4522 29.5598 11.4599ZM23.8421 9.85743C23.8583 9.86399 23.9025 9.88543 23.885 9.93792L23.7069 10.4248C23.692 10.4616 23.6824 10.4834 23.6067 10.4607C23.5066 10.4292 23.4024 10.413 23.2974 10.4126C23.2056 10.4126 23.1225 10.4244 23.049 10.4489C22.9754 10.4724 22.9087 10.5136 22.8547 10.5688C22.7828 10.6382 22.7273 10.7228 22.692 10.8164C22.6067 11.0613 22.5739 11.3225 22.5695 11.3391H23.3106C23.3731 11.3391 23.3928 11.368 23.3867 11.4139L23.3001 11.896C23.2861 11.966 23.2226 11.9634 23.2226 11.9634H22.4588L21.9369 14.9189C21.892 15.184 21.8238 15.4446 21.7331 15.6976C21.6513 15.9116 21.5668 16.0677 21.4312 16.2169C21.3155 16.3504 21.1683 16.453 21.0029 16.5153C20.8424 16.5743 20.6473 16.6045 20.4342 16.6045C20.3327 16.6045 20.2234 16.6023 20.0943 16.5717C20.0224 16.5553 19.9515 16.5345 19.8821 16.5096C19.8537 16.4995 19.8305 16.4632 19.8471 16.4168C19.8629 16.3709 20.0002 15.9951 20.0186 15.9457C20.0422 15.8862 20.1026 15.9089 20.1026 15.9089C20.1437 15.9264 20.1726 15.9378 20.2273 15.9488C20.2828 15.9597 20.3572 15.9693 20.4136 15.9693C20.5147 15.9693 20.6066 15.9571 20.6866 15.9299C20.7829 15.8989 20.8397 15.8424 20.8984 15.7672C20.9596 15.688 21.0095 15.5808 21.0607 15.4369C21.1118 15.2912 21.1587 15.0987 21.1989 14.8656L21.7186 11.9638H21.2068C21.1455 11.9638 21.1245 11.935 21.1315 11.8886L21.2173 11.4065C21.2308 11.3365 21.296 11.3391 21.296 11.3391H21.8214L21.8499 11.1825C21.9286 10.7171 22.0848 10.3631 22.3158 10.1308C22.5481 9.8968 22.8784 9.77869 23.2974 9.77869C23.4173 9.77869 23.5232 9.78656 23.6129 9.80275C23.7008 9.81937 23.7677 9.83468 23.8421 9.85743ZM13.4846 14.8708C13.4846 14.9102 13.4575 14.9413 13.4181 14.9413H12.8034C12.7641 14.9413 12.7374 14.9098 12.7374 14.8713V9.92218C12.7374 9.88412 12.7645 9.85262 12.803 9.85262H13.4181C13.4575 9.85262 13.4846 9.88412 13.4846 9.92261V14.8708Z" fill="white"/>
</g>
<defs>
<clipPath id="clip0_202_9258">
<rect width="41" height="29" fill="white"/>
</clipPath>
</defs>
</svg>
