<svg width="36" height="36" viewBox="0 0 36 36" fill="none" xmlns="http://www.w3.org/2000/svg">
<g clip-path="url(#clip0_202_15757)">
<path d="M34.0322 3.05176e-05H1.96973C0.882416 3.05176e-05 0.000976562 0.88147 0.000976562 1.96878V34.0313C0.000976562 35.1186 0.882416 36 1.96973 36H34.0322C35.1195 36 36.001 35.1186 36.001 34.0313V1.96878C36.001 0.88147 35.1195 3.05176e-05 34.0322 3.05176e-05Z" fill="#78787A"/>
<path d="M11.3126 16.1009C11.3126 18.7486 9.16618 20.8948 6.51849 20.8948C3.8708 20.8948 1.72461 18.7486 1.72461 16.1009C1.72461 13.4532 3.8708 11.3069 6.51849 11.3069C9.16618 11.3069 11.3126 13.4532 11.3126 16.1009Z" fill="white"/>
<path d="M34.4778 16.1009C34.4778 18.7486 32.3314 20.8948 29.6837 20.8948C27.036 20.8948 24.8898 18.7486 24.8898 16.1009C24.8898 13.4532 27.036 11.3069 29.6837 11.3069C32.3314 11.3069 34.4778 13.4532 34.4778 16.1009Z" fill="white"/>
<path d="M9.22164 16.1009C9.22164 17.5939 8.01129 18.8042 6.51824 18.8042C5.02519 18.8042 3.81494 17.5939 3.81494 16.1009C3.81494 14.6078 5.02519 13.3975 6.51824 13.3975C8.01129 13.3975 9.22164 14.6078 9.22164 16.1009Z" fill="#1B94B8"/>
<path d="M32.3869 16.1009C32.3869 17.5939 31.1765 18.8042 29.6835 18.8042C28.1904 18.8042 26.9802 17.5939 26.9802 16.1009C26.9802 14.6078 28.1904 13.3975 29.6835 13.3975C31.1765 13.3975 32.3869 14.6078 32.3869 16.1009Z" fill="#1B94B8"/>
<path d="M17.9872 29.4587C15.469 29.4587 12.6381 28.7083 9.81844 26.4471C9.29334 26.026 9.20953 25.2596 9.63 24.7351C10.0522 24.2102 10.818 24.1263 11.3418 24.5467C18.1548 30.0123 24.9162 24.8399 25.2004 24.6163C25.7296 24.2017 26.4942 24.2934 26.9099 24.8202C27.3248 25.3477 27.2369 26.1104 26.7107 26.5274C26.6548 26.572 22.9243 29.4587 17.9872 29.4587Z" fill="black"/>
</g>
<defs>
<clipPath id="clip0_202_15757">
<rect width="36.001" height="36" fill="white"/>
</clipPath>
</defs>
</svg>
