<svg width="32" height="37" viewBox="0 0 32 37" fill="none" xmlns="http://www.w3.org/2000/svg">
<g clip-path="url(#clip0_202_15908)">
<path d="M9.93206 22.0315C9.3599 22.3893 8.49783 22.969 7.83091 23.5995C6.73604 24.6334 6.50693 26.0677 7.08451 26.4027C7.61878 26.7124 8.86611 26.3439 9.75881 25.3703C10.6957 24.348 11.0821 23.052 10.683 21.5809C10.6361 21.6088 10.5901 21.6369 10.545 21.663L10.5459 21.6649L10.4854 21.6993C10.2525 21.8383 10.0621 21.953 9.93206 22.0315ZM26.0107 21.5674C25.6866 22.2717 25.6704 22.4983 25.7688 22.5688C26.2391 22.3999 27.0171 21.9927 27.0233 20.9017C27.0243 20.7383 26.9882 20.5629 26.9304 20.3797C26.4276 20.8249 26.1379 21.291 26.0107 21.5674ZM31.0569 19.4378C29.8006 19.2914 28.8203 19.4676 28.0595 19.7845C28.2004 20.1512 28.3086 20.5331 28.3239 20.9179C28.3592 21.7624 27.7779 22.3873 27.1722 22.8335C26.8184 23.0936 26.442 23.267 26.126 23.3717C25.8734 23.4783 25.5376 23.5884 25.2993 23.5398C24.7739 23.433 24.4942 22.9663 24.8516 21.9367C25.0447 21.3796 25.6016 20.5314 26.5006 19.8009C26.2957 19.3791 26.0673 18.9493 25.9509 18.5544C25.7216 17.776 25.6523 17.3055 25.6523 17.3055C25.6523 17.3055 24.9113 18.8417 23.9554 20.2388C23.9002 20.32 23.8452 20.3996 23.7901 20.479C23.9779 20.9153 24.1258 21.3768 24.1458 21.842C24.181 22.6863 23.8155 23.3248 23.2088 23.77C22.8804 24.0122 22.5301 24.1794 22.2295 24.2858C22.0373 24.3698 21.6464 24.5078 21.0905 24.545C20.7864 24.5658 20.4939 24.5469 20.3306 24.4232C20.1058 24.2534 20.0788 24.0438 20.1952 23.7575C20.2936 23.5145 21.03 22.6738 21.6475 21.9377C21.818 21.7345 21.9805 21.5268 22.1258 21.3344L22.1222 21.3262C22.1222 21.3263 22.2341 21.1819 22.4156 20.9299C22.1899 20.4439 21.9038 19.9381 21.7693 19.4794C21.54 18.701 21.4706 18.2303 21.4706 18.2303C21.4706 18.2303 20.7195 20.1559 19.937 21.693C19.3315 22.8835 18.927 23.6049 18.7448 23.921L18.743 23.9337C18.743 23.9337 18.7158 23.9798 18.6689 24.052L18.6338 24.1106L18.6328 24.1052C18.4297 24.4052 17.9739 24.993 17.5209 24.993C16.2771 24.993 16.7337 22.467 16.7337 22.467C16.7337 22.467 16.3701 23.4026 15.9603 24.2055C15.6264 24.8602 15.3223 25.4149 14.6571 25.4149C14.4657 25.4149 14.1624 25.4094 13.9105 25.1699C13.3392 24.6272 12.9024 23.2489 12.9881 22.1815C13.0612 21.2739 13.2011 20.6452 13.3924 20.1207C13.0512 20.3066 12.6568 20.5271 12.2552 20.7629L11.6377 21.1267L11.6577 21.1629C12.1684 22.151 12.3048 24.3157 11.191 25.9775C10.0773 27.6401 8.00404 28.6517 5.9841 28.09C5.33232 27.9083 4.3477 26.56 5.19697 24.6806C5.94608 23.0233 8.93994 21.4564 9.72891 21.0653L9.94548 20.9461C8.37244 19.5697 4.44429 17.7129 3.89378 14.8608C3.73849 14.0579 4.11489 12.1379 6.47235 9.93068C8.45525 8.07476 11.2136 6.65319 13.7617 5.74732C18.0425 4.2256 22.5654 5.12323 23.2613 7.85253C23.9454 10.5367 21.6169 13.7473 18.6347 14.9015C15.9721 15.9319 13.7706 15.7685 12.8662 15.4715C11.8382 15.1337 11.2353 14.4554 11.0882 14.0724C11.0304 13.9226 10.931 13.6707 11.0882 13.5839C11.1847 13.5307 11.2234 13.5433 11.4816 13.8287C11.7272 14.0996 12.7145 14.8267 14.5901 14.6162C19.512 14.0644 22.4768 10.2378 21.54 8.17861C20.8839 6.73724 17.0903 6.08693 12.3508 8.45042C6.56525 11.335 6.25124 13.713 6.20165 14.6162C6.06617 17.1006 9.26576 18.4075 10.997 20.2552L11.0637 20.3284C11.3877 20.1496 11.7299 19.9609 12.0656 19.7767C12.9385 19.297 13.7617 18.8472 14.1452 18.6376C14.7545 17.7519 15.9909 16.7746 16.8836 16.7746C18.3106 16.7746 17.8205 18.8256 17.8205 18.8256C17.8205 18.8256 17.8494 18.7317 17.8882 18.7309C17.9288 18.7298 18.0859 18.4607 18.5264 18.6214C18.9795 18.7876 18.8765 19.1056 18.8793 19.138C18.8847 19.2012 18.3441 21.0246 18.1194 22.1942C18.0118 22.7523 18.0741 23.1588 18.1058 23.1588C18.15 23.1588 18.2403 23.017 18.3242 22.8644L18.3224 22.8598C18.3224 22.8598 18.3855 22.7443 18.4912 22.5366L18.512 22.4932L18.5129 22.4951C18.6375 22.2513 18.8125 21.8927 19.0147 21.4484C19.4109 20.5751 20.9226 17.2036 21.0508 16.8307C21.1789 16.4577 21.2457 16.0721 21.309 15.9067C21.3713 15.7415 21.9056 15.6168 22.5301 15.6214C23.1547 15.6259 23.2181 15.8923 23.2224 15.9474C23.2269 16.0024 22.9255 16.7422 22.8559 17.265C22.7874 17.788 22.8534 18.0488 22.9102 18.4879C22.9472 18.7749 23.1268 19.139 23.339 19.5517C23.9853 18.495 25.1223 16.4738 25.2316 15.9076C25.3064 15.5202 25.4265 15.149 25.4898 14.9836C25.5529 14.8184 26.0864 14.6938 26.7109 14.6983C27.3355 14.7028 27.3986 14.9692 27.4031 15.0243C27.4077 15.0795 27.1052 15.8191 27.0367 16.342C26.9681 16.864 27.0341 17.126 27.0909 17.5649C27.1397 17.9405 27.4302 18.4454 27.7183 19.0197C28.5043 18.6322 29.4295 18.3722 30.5127 18.3668C30.9612 18.3642 31.482 18.4092 31.751 18.4932V9.85291C31.751 9.24333 31.4386 8.68163 30.9107 8.37733L16.8161 0.230877C16.289 -0.0735411 15.6437 -0.0735411 15.1165 0.230877L1.06074 8.37339C0.533608 8.67781 0.251953 9.24051 0.251953 9.8491V26.149C0.251953 26.7576 0.53533 27.3203 1.0616 27.6246L15.14 35.7735C15.667 36.0789 16.3061 36.0789 16.8332 35.7735L30.918 27.6246C31.445 27.3193 31.752 26.7575 31.752 26.149V19.5616C31.5732 19.5089 31.3115 19.4674 31.0569 19.4378ZM15.8936 18.5842C15.5912 18.9228 15.0759 19.7961 14.8349 20.527C14.3556 21.9782 14.5632 23.4531 14.9025 23.5416C15.2988 23.6454 15.9487 21.7055 16.2599 20.9468C16.4549 20.4717 17.2131 18.3631 17.047 18.0813C16.9173 17.8609 16.3801 18.0389 15.8936 18.5842ZM21.3769 23.4756C21.3769 23.4756 21.2813 23.566 21.3227 23.5912C21.3786 23.6247 21.4996 23.5813 21.6314 23.5126C22.0042 23.278 22.8408 22.6926 22.8427 21.8265C22.8427 21.8013 22.8417 21.7769 22.8399 21.7507C22.6459 22.0054 22.4671 22.2321 22.3128 22.4244C22.0492 22.7522 21.3769 23.4756 21.3769 23.4756Z" fill="#8CC84B"/>
</g>
<defs>
<clipPath id="clip0_202_15908">
<rect width="32" height="37" fill="white"/>
</clipPath>
</defs>
</svg>
