<svg width="37" height="37" viewBox="0 0 37 37" fill="none" xmlns="http://www.w3.org/2000/svg">
<g clip-path="url(#clip0_202_9162)">
<path d="M4.40159 23.2113L13.9934 23.2158L8.62119 33.348C0.871223 28.6166 -2.13752 18.8519 1.60526 10.5794C5.70117 1.52804 16.3577 -2.489 25.409 1.60602L8.14527 18.8698H23.5161L12.2125 30.2855L16.8802 21.4788H5.69579C5.38121 20.3468 5.22078 19.1763 5.22078 18.0013C5.22974 10.9468 10.9461 5.2296 18.0006 5.22064C18.1511 5.22064 18.299 5.23049 18.4487 5.23049L20.0942 3.58227C19.4113 3.48189 18.7211 3.4326 18.0301 3.4326C9.99784 3.4326 3.4417 9.96813 3.4417 18.0013C3.43722 19.7822 3.76256 21.5487 4.40159 23.2113ZM27.3808 2.65375C35.1362 7.3851 38.1458 17.1552 34.3985 25.4304C30.2999 34.48 19.6416 38.4943 10.5921 34.3957L27.7241 17.1319H12.3111L23.7886 5.7091L19.1191 14.5247H30.3017C30.7821 16.1416 30.7821 18.0013 30.7821 18.0013C30.7732 25.0558 25.0559 30.7721 18.0014 30.7811C17.833 30.7811 17.6654 30.7694 17.4978 30.7694L15.8684 32.415C16.5746 32.518 17.288 32.57 18.0014 32.57C19.7931 32.5709 21.5695 32.242 23.241 31.5985C30.7436 28.7107 34.4846 20.2886 31.5968 12.786H22.0077L27.3808 2.65375Z" fill="#E12826"/>
</g>
<defs>
<clipPath id="clip0_202_9162">
<rect width="37" height="37" fill="white"/>
</clipPath>
</defs>
</svg>
