<svg width="26" height="40" viewBox="0 0 26 40" fill="none" xmlns="http://www.w3.org/2000/svg">
<g clip-path="url(#clip0_202_14765)">
<path d="M0.69989 24.6158V27.6927C0.69989 28.2113 11.89 29.0801 19.1806 30.7696C22.7026 29.9532 25.3153 28.9457 25.3153 27.6927V24.6158C25.3153 23.3635 22.7026 22.3553 19.1806 21.5389C11.89 23.2288 0.69989 24.0975 0.69989 24.6158Z" fill="url(#paint0_linear_202_14765)"/>
<path d="M0.69989 12.308V15.3849C0.69989 15.9035 11.89 16.7722 19.1806 18.4618C22.7026 17.6454 25.3153 16.6379 25.3153 15.3849V12.308C25.3153 11.0557 22.7026 10.0475 19.1806 9.23105C11.89 10.921 0.69989 11.7897 0.69989 12.308Z" fill="url(#paint1_linear_202_14765)"/>
<path d="M0.69989 18.462V27.6927C0.69989 26.9235 25.3153 25.385 25.3153 21.5389V12.3081C25.3153 16.1543 0.69989 17.6927 0.69989 18.462Z" fill="url(#paint2_linear_202_14765)"/>
<path d="M0.69989 6.15424V15.385C0.69989 14.6158 25.3153 13.0773 25.3153 9.23116V0.000394821C25.3153 3.84655 0.69989 5.38501 0.69989 6.15424Z" fill="url(#paint3_linear_202_14765)"/>
<path d="M0.69989 30.7696V40.0004C0.69989 39.2312 25.3153 37.6927 25.3153 33.8466V24.6158C25.3153 28.4619 0.69989 30.0004 0.69989 30.7696Z" fill="url(#paint4_linear_202_14765)"/>
</g>
<defs>
<linearGradient id="paint0_linear_202_14765" x1="0.69989" y1="26.1542" x2="25.3153" y2="26.1542" gradientUnits="userSpaceOnUse">
<stop stop-color="#4F4F4F"/>
<stop offset="1"/>
</linearGradient>
<linearGradient id="paint1_linear_202_14765" x1="0.69989" y1="13.8464" x2="25.3153" y2="13.8464" gradientUnits="userSpaceOnUse">
<stop stop-color="#4F4F4F"/>
<stop offset="1"/>
</linearGradient>
<linearGradient id="paint2_linear_202_14765" x1="0.69989" y1="20.0004" x2="25.3153" y2="20.0004" gradientUnits="userSpaceOnUse">
<stop stop-color="#C40000"/>
<stop offset="1" stop-color="#FF0000"/>
</linearGradient>
<linearGradient id="paint3_linear_202_14765" x1="0.69989" y1="7.6927" x2="25.3153" y2="7.6927" gradientUnits="userSpaceOnUse">
<stop stop-color="#C40000"/>
<stop offset="1" stop-color="#FF0000"/>
</linearGradient>
<linearGradient id="paint4_linear_202_14765" x1="0.69989" y1="32.3081" x2="25.3153" y2="32.3081" gradientUnits="userSpaceOnUse">
<stop stop-color="#C40000"/>
<stop offset="1" stop-color="#FF0000"/>
</linearGradient>
<clipPath id="clip0_202_14765">
<rect width="26" height="40.0004" fill="white"/>
</clipPath>
</defs>
</svg>
