<svg width="36" height="36" viewBox="0 0 36 36" fill="none" xmlns="http://www.w3.org/2000/svg">
<g clip-path="url(#clip0_202_8997)">
<mask id="mask0_202_8997" style="mask-type:alpha" maskUnits="userSpaceOnUse" x="0" y="0" width="36" height="37">
<path d="M4.50073 1.50092C4.50073 0.672488 5.17232 0.000915527 6.00073 0.000915527H30.0007C30.8291 0.000915527 31.5007 0.672488 31.5007 1.50092V13.3641C32.8713 14.1832 34.1825 15.1342 35.4286 16.21C35.9851 16.6904 36.0742 17.5112 35.6637 18.121L24.1274 35.2559C23.8138 35.7216 23.2891 36.0009 22.7275 36.0009H13.1742C12.6751 36.0009 12.2086 35.7526 11.9299 35.3386L0.339995 18.1213C-0.0705697 17.5113 0.0184721 16.69 0.578937 16.2141C1.7984 15.1787 3.1137 14.2586 4.50073 13.4605V1.50092Z" fill="url(#paint0_linear_202_8997)"/>
</mask>
<g mask="url(#mask0_202_8997)">
<path d="M31.5007 1.50092C31.5007 0.672488 30.8291 0.000915527 30.0007 0.000915527H27.0007V17.2509C27.0007 18.0793 27.6723 18.7509 28.5007 18.7509H30.0007C30.8291 18.7509 31.5007 18.0793 31.5007 17.2509V1.50092Z" fill="#0FB1F1"/>
<path d="M4.50073 1.50092C4.50073 0.672488 5.17232 0.000915527 6.00073 0.000915527H9.00073V17.2509C9.00073 18.0793 8.32914 18.7509 7.50073 18.7509H6.00073C5.17232 18.7509 4.50073 18.0793 4.50073 17.2509V1.50092Z" fill="#27518A"/>
<path d="M22.5007 0.000915527H27.0007V15.0009H22.5007V0.000915527Z" fill="#0095E6"/>
<path d="M12.7507 0.000915527H16.5007V15.0009H12.7507V0.000915527Z" fill="#2064AE"/>
<path d="M16.5007 0.000915527H22.5007V15.0009H16.5007V0.000915527Z" fill="#0078D4"/>
<path d="M9.00073 0.000915527H12.7507V15.0009H9.00073V0.000915527Z" fill="#0078D4"/>
<g filter="url(#filter0_f_202_8997)">
<path d="M0.339995 17.3713C-0.0705699 16.7613 0.018472 15.94 0.578939 15.4641C5.48365 11.2998 11.9388 9.0002 18.3757 9.00092C24.8106 9.00163 30.6071 11.2976 35.4286 15.46C35.9851 15.9404 36.0742 16.7612 35.6637 17.371L24.1274 34.5059C23.8138 34.9716 23.2891 35.2509 22.7275 35.2509H13.1742C12.6751 35.2509 12.2086 35.0026 11.9299 34.5886L0.339995 17.3713Z" fill="black" fill-opacity="0.32"/>
</g>
<g filter="url(#filter1_f_202_8997)">
<path d="M0.339995 17.9789C-0.0705699 17.369 0.018472 16.5476 0.578939 16.0717C5.48365 11.9075 11.9388 9.60787 18.3757 9.60858C24.8106 9.60929 30.6071 11.9052 35.4286 16.0677C35.9851 16.5481 36.0742 17.3689 35.6637 17.9787L24.1274 35.1135C23.8138 35.5793 23.2891 35.8586 22.7275 35.8586H13.1742C12.6751 35.8586 12.2086 35.6103 11.9299 35.1962L0.339995 17.9789Z" fill="black" fill-opacity="0.24"/>
</g>
<path d="M0.339995 18.1213C-0.0705699 17.5113 0.018472 16.69 0.578939 16.2141C5.48365 12.0498 11.9388 9.7502 18.3757 9.75092C24.8106 9.75163 30.6071 12.0476 35.4286 16.21C35.9851 16.6904 36.0742 17.5112 35.6637 18.121L24.1274 35.2559C23.8138 35.7216 23.2891 36.0009 22.7275 36.0009H13.1742C12.6751 36.0009 12.2086 35.7526 11.9299 35.3386L0.339995 18.1213Z" fill="url(#paint1_linear_202_8997)"/>
<mask id="mask1_202_8997" style="mask-type:alpha" maskUnits="userSpaceOnUse" x="0" y="9" width="36" height="28">
<path d="M0.339995 18.1213C-0.0705699 17.5113 0.018472 16.69 0.578939 16.2141C5.48365 12.0498 11.9388 9.7502 18.3757 9.75092C24.8106 9.75163 30.6071 12.0476 35.4286 16.21C35.9851 16.6904 36.0742 17.5112 35.6637 18.121L24.1274 35.2559C23.8138 35.7216 23.2891 36.0009 22.7275 36.0009H13.1742C12.6751 36.0009 12.2086 35.7526 11.9299 35.3386L0.339995 18.1213Z" fill="url(#paint2_linear_202_8997)"/>
</mask>
<g mask="url(#mask1_202_8997)">
<path d="M6.00073 2.25092C5.17232 2.25092 4.50073 2.92249 4.50073 3.75092V19.5009C4.50073 20.3293 5.17232 21.0009 6.00073 21.0009H7.50073C8.32914 21.0009 9.00073 20.3293 9.00073 19.5009V17.2509H27.0007V19.5009C27.0007 20.3293 27.6723 21.0009 28.5007 21.0009H30.0007C30.8291 21.0009 31.5007 20.3293 31.5007 19.5009V3.75092C31.5007 2.92249 30.8291 2.25092 30.0007 2.25092H6.00073Z" fill="url(#paint3_linear_202_8997)"/>
</g>
</g>
</g>
<defs>
<filter id="filter0_f_202_8997" x="-7.91504" y="1.00092" width="51.834" height="42.25" filterUnits="userSpaceOnUse" color-interpolation-filters="sRGB">
<feFlood flood-opacity="0" result="BackgroundImageFix"/>
<feBlend mode="normal" in="SourceGraphic" in2="BackgroundImageFix" result="shape"/>
<feGaussianBlur stdDeviation="4" result="effect1_foregroundBlur_202_8997"/>
</filter>
<filter id="filter1_f_202_8997" x="-0.675039" y="8.84858" width="37.354" height="27.77" filterUnits="userSpaceOnUse" color-interpolation-filters="sRGB">
<feFlood flood-opacity="0" result="BackgroundImageFix"/>
<feBlend mode="normal" in="SourceGraphic" in2="BackgroundImageFix" result="shape"/>
<feGaussianBlur stdDeviation="0.38" result="effect1_foregroundBlur_202_8997"/>
</filter>
<linearGradient id="paint0_linear_202_8997" x1="-0.289366" y1="2.62592" x2="15.2874" y2="44.4328" gradientUnits="userSpaceOnUse">
<stop stop-color="#D3F9FF"/>
<stop offset="1" stop-color="#80E5FC"/>
</linearGradient>
<linearGradient id="paint1_linear_202_8997" x1="-0.289363" y1="2.62592" x2="15.2874" y2="44.4328" gradientUnits="userSpaceOnUse">
<stop stop-color="#D3F9FF"/>
<stop offset="1" stop-color="#80E5FC"/>
</linearGradient>
<linearGradient id="paint2_linear_202_8997" x1="-0.289363" y1="2.62592" x2="15.2874" y2="44.4328" gradientUnits="userSpaceOnUse">
<stop stop-color="#D3F9FF"/>
<stop offset="1" stop-color="#80E5FC"/>
</linearGradient>
<linearGradient id="paint3_linear_202_8997" x1="13.6754" y1="7.12592" x2="19.485" y2="21.0039" gradientUnits="userSpaceOnUse">
<stop stop-color="#7CECFF"/>
<stop offset="1" stop-color="#00B1F2"/>
</linearGradient>
<clipPath id="clip0_202_8997">
<rect width="36" height="36.0009" fill="white"/>
</clipPath>
</defs>
</svg>
