<svg width="30" height="36" viewBox="0 0 30 36" fill="none" xmlns="http://www.w3.org/2000/svg">
<g clip-path="url(#clip0_202_15585)">
<path d="M19.0558 17.5371C20.0903 16.4961 21.5194 15.9454 22.985 16.0231C24.8412 15.9621 26.6205 16.7666 27.801 18.2004C29.0218 19.6519 29.6322 21.6706 29.6322 24.2564C29.6322 27.8227 28.5099 30.6176 26.2653 32.6411C23.9103 34.6557 20.9417 35.8121 17.8446 35.9215C17.275 36.0009 16.691 36.0009 16.0854 36.0009L15.9248 36.0009C10.6271 35.9811 5.51702 34.0258 1.55815 30.4999L0.382996 29.4473L5.00433 23.9752L7.71512 26.066L5.14852 29.0652C8.32083 31.4204 12.1705 32.685 16.1215 32.6699C20.8365 32.6699 24.1025 30.882 25.3713 27.7674C25.4436 27.4505 25.4799 27.1264 25.4795 26.8014C25.4795 25.8785 25.0974 25.4171 24.3332 25.4171C23.984 25.4484 23.6387 25.5136 23.3022 25.6118C22.8785 25.7091 22.4462 25.7647 22.0117 25.7776C20.8876 25.7552 19.8146 25.3038 19.0125 24.5159C18.071 23.6529 17.5591 22.4179 17.6139 21.1419C17.5946 19.7961 18.1137 18.4983 19.0558 17.5371ZM14.4561 0.00342039C19.1057 -0.070374 23.634 1.48839 27.253 4.40846L28.4931 5.38175L24.6432 10.8754L21.8026 9.00095L23.8501 6.05945C21.0701 4.23132 17.8045 3.28177 14.4777 3.33424C12.8301 3.30712 11.1957 3.63155 9.68333 4.2859C9.19902 4.5345 8.73391 4.81886 8.29189 5.13663C6.74423 6.25171 5.97041 7.58548 5.97041 9.13794C5.97041 10.0608 6.35251 10.5222 7.11673 10.5222C7.46587 10.4908 7.81115 10.4256 8.1477 10.3275C8.57144 10.2304 9.00366 10.1748 9.43821 10.1617C10.5458 10.1854 11.6038 10.6256 12.4013 11.3945C13.3461 12.2639 13.8559 13.5079 13.7928 14.7902C13.8121 16.136 13.293 17.4338 12.3509 18.395C11.3164 19.436 9.8872 19.9867 8.42166 19.909C6.56787 19.9735 4.78901 19.1746 3.60567 17.7462C2.38004 16.297 1.72397 14.2495 1.71676 11.6613V11.1927C1.71676 4.60312 6.95812 0.00342039 14.4561 0.00342039Z" fill="#1E7B85"/>
</g>
<defs>
<clipPath id="clip0_202_15585">
<rect width="30" height="36.0009" fill="white"/>
</clipPath>
</defs>
</svg>
