<svg width="36" height="37" viewBox="0 0 36 37" fill="none" xmlns="http://www.w3.org/2000/svg">
<g clip-path="url(#clip0_202_11502)">
<path d="M34.3918 28.4906L29.0028 23.04L22.8584 29.2701L28.2474 34.7206C29.9265 36.4178 32.663 36.4313 34.3587 34.7521C34.3692 34.7416 34.3798 34.7311 34.3903 34.7206C36.1115 32.9979 36.1115 30.2103 34.3918 28.4906Z" fill="#1A73E8"/>
<path d="M26.7845 4.60075C20.6371 -1.53016 10.6867 -1.53016 4.53781 4.60075C-1.23263 10.8053 -1.06141 20.4627 4.92682 26.4584C10.915 32.4542 20.5725 32.6389 26.7845 26.8775C32.9365 20.7271 32.9365 10.7527 26.7845 4.60075ZM20.5935 20.688C17.8285 23.2173 13.5615 23.1226 10.9105 20.4732C8.25962 17.8238 8.16199 13.5583 10.6882 10.7902C13.4533 8.26097 17.7203 8.35559 20.3712 11.005C23.0237 13.6544 23.1213 17.9199 20.5935 20.688Z" fill="#669DF3"/>
</g>
<defs>
<clipPath id="clip0_202_11502">
<rect width="36" height="37" fill="white"/>
</clipPath>
</defs>
</svg>
