<svg width="32" height="33" viewBox="0 0 32 33" fill="none" xmlns="http://www.w3.org/2000/svg">
<g clip-path="url(#clip0_202_8857)">
<path d="M28.666 0.00260744C28.7441 -0.00233053 28.8183 0.0376286 28.8571 0.105617C28.896 0.173606 28.8928 0.257777 28.8488 0.322599L20.9405 11.0652C20.8825 11.1306 20.7993 11.1681 20.7119 11.1681C20.6245 11.1681 20.5413 11.1306 20.4833 11.0652L17.6948 7.95669C17.6267 7.88599 17.5302 7.85003 17.4324 7.85891C17.3347 7.8678 17.2462 7.92058 17.192 8.0024L15.5006 10.1509C15.4471 10.2719 15.4647 10.4125 15.5463 10.5166L20.5748 15.7279C20.6327 15.7933 20.7159 15.8308 20.8033 15.8308C20.8907 15.8308 20.9739 15.7933 21.0319 15.7279L30.9059 4.61963C30.9642 4.55698 31.0546 4.5357 31.1347 4.56575C31.2148 4.5958 31.2689 4.67124 31.2716 4.75677V31.7732C31.2754 31.8349 31.2526 31.8953 31.2088 31.939C31.1651 31.9827 31.1048 32.0056 31.0431 32.0018H0.963834C0.902132 32.0056 0.841772 31.9827 0.79806 31.939C0.754349 31.8953 0.731485 31.8349 0.735268 31.7732V0.231173C0.731485 0.169472 0.754349 0.109111 0.79806 0.0653994C0.841772 0.0216879 0.902132 -0.00117556 0.963834 0.00260744H28.666ZM20.8948 18.2421C19.5338 18.2182 18.2222 18.7515 17.2641 19.7182C16.3059 20.685 15.7845 22.0014 15.8206 23.362C15.8206 26.5162 18.1063 28.5276 21.0776 28.5276C22.4531 28.5618 23.8019 28.1443 24.9175 27.3391C25.0209 27.2451 25.0403 27.0898 24.9632 26.9734L24.1404 25.7391C24.0479 25.633 23.8905 25.6133 23.7747 25.6934C23.0595 26.1818 22.2177 26.4518 21.3519 26.4705C19.7519 26.4705 18.7462 25.4648 18.5634 24.2763C18.5667 24.2272 18.6058 24.1882 18.6548 24.1849H25.5575C25.7047 24.1749 25.8218 24.0577 25.8318 23.9106V23.6363C25.8318 20.4364 23.8204 18.2421 20.8948 18.2421ZM14.0835 16.505C12.695 15.3701 10.9382 14.7845 9.14648 14.8594C6.03799 14.8594 4.11804 16.6879 4.11804 18.8821C4.11804 23.8649 11.7064 22.2649 11.7064 24.5963C11.7064 25.3277 10.975 26.0591 9.42076 26.0591C7.94462 26.0713 6.52045 25.5147 5.44372 24.5048C5.37944 24.4447 5.29235 24.4153 5.20479 24.4241C5.11723 24.4328 5.0377 24.4789 4.98659 24.5506L3.79805 26.1962C3.72093 26.3127 3.74034 26.468 3.84376 26.5619C5.07802 27.7048 6.81511 28.4819 9.23791 28.4819C12.8035 28.4819 14.5406 26.6534 14.6321 24.2763C14.6321 19.3393 7.04368 20.7564 7.04368 18.6536C7.04368 17.8764 7.72938 17.3279 8.91792 17.3279C10.2281 17.3099 11.5041 17.746 12.5293 18.5621C12.5895 18.6115 12.6672 18.6345 12.7446 18.6259C12.822 18.6173 12.8927 18.5778 12.9407 18.5164L14.1292 16.9165C14.1786 16.8562 14.2016 16.7786 14.193 16.7011C14.1844 16.6237 14.1449 16.553 14.0835 16.505ZM20.9405 20.2535C22.1838 20.184 23.2572 21.1156 23.3633 22.3563C23.3599 22.4054 23.3209 22.4444 23.2718 22.4478H18.6091C18.56 22.4444 18.521 22.4054 18.5177 22.3563C18.6705 21.1399 19.7147 20.2337 20.9405 20.2535Z" fill="#2CB134"/>
</g>
<defs>
<clipPath id="clip0_202_8857">
<rect width="32" height="33" fill="white"/>
</clipPath>
</defs>
</svg>
