<svg width="37" height="37" viewBox="0 0 37 37" fill="none" xmlns="http://www.w3.org/2000/svg">
<g clip-path="url(#clip0_202_16046)">
<path d="M0.00219727 0.00256348H36.0022V36.0026H0.00219727V0.00256348Z" fill="#34BDB2"/>
<path d="M23.692 12.2427C21.7913 11.1399 20.104 10.2726 17.8968 10.3109C16.634 10.3328 15.5498 11.0192 15.3218 12.2754C15.1096 13.4442 16.1485 14.0924 17.2294 14.4904C19.0219 15.1505 20.5825 15.8474 22.3438 16.5814C25.5457 17.9158 27.1875 20.0767 26.9934 22.8494C26.7465 26.3773 24.6233 28.9076 21.249 29.7418C16.8399 30.8319 12.5583 29.1714 8.94067 26.8533C9.85375 25.4624 10.9131 24.5129 11.8207 23.1304C13.9106 24.02 15.5526 25.2221 17.739 25.4095C19.2807 25.5417 21.0275 25.4682 21.3739 23.6573C21.6861 22.0244 20.2649 21.149 18.8788 20.6601C17.2285 20.078 15.5814 19.366 13.9631 18.7051C10.9716 17.4832 9.75433 15.0933 9.95922 12.2778C9.95922 10.627 11.3289 7.29041 14.6872 6.2526C19.847 4.65791 22.6899 6.29085 26.4315 8.6954C25.4377 10.0097 24.6737 10.9441 23.692 12.2427Z" fill="white"/>
</g>
<defs>
<clipPath id="clip0_202_16046">
<rect width="37" height="37" fill="white"/>
</clipPath>
</defs>
</svg>
