<svg width="40" height="26" viewBox="0 0 40 26" fill="none" xmlns="http://www.w3.org/2000/svg">
<g clip-path="url(#clip0_202_14028)">
<path d="M4.14429 10.9506L11.0738 17.981C13.0705 20.0116 16.3423 20.0116 18.3389 17.981L23.8255 12.401C24.6141 11.599 25.906 11.599 26.6947 12.401L29.4127 15.1654L22.4999 22.2129C20.3524 24.397 17.5336 25.4721 14.7148 25.4721C11.8959 25.4721 9.07717 24.38 6.92952 22.1958L0 15.1654L4.14429 10.9506Z" fill="#F06332"/>
<path d="M33.0702 3.8177L39.9998 10.8652L35.8387 15.097L28.9092 8.0496C26.8958 6.0019 23.6575 6.0019 21.6441 8.0496L16.1576 13.6295C15.369 14.4315 14.077 14.4315 13.2884 13.6295L10.5703 10.8652L17.4998 3.8177C21.7951 -0.550723 28.775 -0.550723 33.0702 3.8177Z" fill="#029D74"/>
</g>
<defs>
<clipPath id="clip0_202_14028">
<rect width="40" height="26" fill="white"/>
</clipPath>
</defs>
</svg>
