<svg width="28" height="41" viewBox="0 0 28 41" fill="none" xmlns="http://www.w3.org/2000/svg">
<g clip-path="url(#clip0_202_16095)">
<path d="M26.9324 23.9183L26.9323 23.9184C26.1905 20.21 23.9274 17.0508 20.8192 15.1221C20.8189 15.122 20.8182 15.1215 20.8179 15.1214C20.817 15.1207 20.8156 15.1199 20.8145 15.1193C20.8137 15.1187 20.8126 15.118 20.8115 15.1174C20.8106 15.1169 20.8102 15.1166 20.8095 15.1161C20.522 14.9382 20.2271 14.7705 19.9257 14.614L11.5979 10.4397L11.5978 10.44L11.5979 10.4397L11.598 10.4396L11.1504 10.2151C11.1242 10.2025 11.0982 10.1896 11.0723 10.1765H11.0722C11.0703 10.1756 11.0686 10.1747 11.0668 10.1738L11.0666 10.1737C11.0649 10.1729 11.0632 10.172 11.0615 10.1711C11.0614 10.171 11.0611 10.1709 11.061 10.1709C11.0593 10.17 11.0577 10.1692 11.0561 10.1685C11.0558 10.1682 11.0558 10.1682 11.0554 10.168C11.0538 10.1672 11.0523 10.1665 11.0509 10.1658C11.0505 10.1655 11.0501 10.1653 11.0498 10.1651C11.0484 10.1644 11.0471 10.1638 11.0457 10.1631C11.0452 10.1628 11.0447 10.1626 11.0441 10.1623C11.043 10.1617 11.0419 10.1611 11.0408 10.1606C11.0401 10.1603 11.0392 10.1598 11.0386 10.1594C11.0379 10.159 11.037 10.1587 11.0363 10.1583C11.0351 10.1577 11.0341 10.1572 11.033 10.1566C11.0329 10.1565 11.0326 10.1563 11.0325 10.1563C10.1664 9.71187 9.42856 9.05269 8.88885 8.24943C8.27693 7.33846 7.91998 6.24203 7.91998 5.062C7.91998 2.86964 9.15338 0.965434 10.9641 0.0045166L8.27607 1.37783C3.85218 3.58562 0.814575 8.15555 0.814575 13.4351L1.0141 15.7516H1.01423C1.01423 15.7514 1.0141 15.7512 1.0141 15.7511C1.01753 15.7521 1.02108 15.7534 1.02451 15.7545C1.02108 15.7534 1.01765 15.7525 1.01423 15.7516C1.73901 19.9338 4.392 23.4547 8.02574 25.3639L8.02611 25.3642C8.0277 25.3649 8.02917 25.3658 8.03076 25.3666C8.03125 25.3669 8.03137 25.3669 8.03186 25.3671C8.03321 25.3678 8.03492 25.3689 8.03627 25.3696C8.03676 25.3699 8.037 25.37 8.03761 25.3703C8.03908 25.3711 8.04031 25.3718 8.0419 25.3725C8.04214 25.3727 8.04263 25.373 8.04288 25.3731C8.04765 25.3757 8.05206 25.3779 8.05671 25.3805C8.05757 25.3808 8.05769 25.3809 8.05842 25.3813C8.05953 25.3819 8.06087 25.3825 8.06197 25.3831C8.06283 25.3836 8.06357 25.384 8.06442 25.3846C8.06552 25.3851 8.06663 25.3857 8.06773 25.3863C8.06883 25.3868 8.06932 25.3871 8.0703 25.3877C8.0714 25.3883 8.07226 25.3887 8.07336 25.3893C8.07471 25.39 8.07556 25.3905 8.07679 25.3911C8.07752 25.3915 8.07838 25.392 8.07911 25.3923C8.08095 25.3932 8.08303 25.3943 8.08499 25.3954L8.92007 25.814C8.91909 25.8117 8.91823 25.8093 8.91725 25.8068C8.91835 25.8094 8.91933 25.8117 8.92031 25.8141L8.92007 25.814C8.92019 25.8141 8.92019 25.8142 8.92019 25.8143L9.91379 26.3121L16.8603 29.7941C18.7717 30.7208 20.0907 32.6794 20.0907 34.9465V34.9596C20.0907 34.9615 20.0906 34.9634 20.0906 34.9653V34.9858C20.0905 34.9875 20.0905 34.9893 20.0905 34.991V34.9991C20.0905 35.0002 20.0905 35.0014 20.0903 35.0022V35.0122C20.0903 35.013 20.0902 35.014 20.0902 35.0148V35.0221C20.0902 35.0232 20.0901 35.0244 20.0901 35.0252V35.0273C20.0901 35.0312 20.09 35.035 20.09 35.039V35.0399C20.0665 36.5166 19.4833 37.8573 18.5436 38.8594C18.1131 39.3188 17.6075 39.7069 17.0465 40.0045L18.7726 39.1229L19.7346 38.6319C24.1581 36.4235 27.1961 31.8534 27.1961 26.5735L26.9324 23.9183Z" fill="#7CBA3D"/>
<path d="M0.814575 13.4351C0.814575 8.15555 3.85218 3.58562 8.27607 1.37783L10.9641 0.0045166C9.15338 0.965434 7.91998 2.86964 7.91998 5.062C7.91998 6.24203 8.27693 7.33846 8.88885 8.24943C7.97812 10.5288 7.44809 12.8677 7.26962 15.1952C6.11798 15.7773 4.8186 16.1039 3.45006 16.104C3.31859 16.104 3.18676 16.1009 3.05406 16.0948C2.34678 16.0626 1.66361 15.9444 1.0141 15.7516L0.814575 13.4351ZM20.0908 34.9523V34.9465V34.9523ZM20.0908 34.9587V34.9538V34.9587ZM20.0907 34.9653C20.0907 34.9634 20.0908 34.9615 20.0908 34.9596C20.0908 34.9616 20.0907 34.9633 20.0907 34.9653ZM20.0907 34.9713V34.9667V34.9713ZM20.0907 34.978V34.9725V34.978ZM20.0907 34.9839V34.9797V34.9839ZM20.0906 34.991C20.0906 34.9893 20.0906 34.9875 20.0907 34.9858C20.0906 34.9874 20.0906 34.9893 20.0906 34.991ZM20.0906 34.9964V34.9932V34.9964ZM20.0905 35.0024C20.0906 35.0014 20.0906 35.0002 20.0906 34.9992C20.0906 35.0002 20.0906 35.0013 20.0905 35.0024ZM20.0905 35.0093V35.0065V35.0093ZM20.0903 35.015C20.0903 35.014 20.0905 35.013 20.0905 35.0123C20.0905 35.0131 20.0903 35.014 20.0903 35.015ZM20.0903 35.0222V35.0195V35.0222ZM20.0902 35.0275V35.0254V35.0275ZM20.0901 35.0399V35.039V35.0399Z" fill="#C5D83E"/>
<path d="M8.92049 25.8134L8.08517 25.3946C8.08321 25.3935 8.08113 25.3924 8.07929 25.3916C8.07856 25.3912 8.0777 25.3907 8.07697 25.3903C8.07574 25.3897 8.07488 25.3892 8.07354 25.3885C8.07244 25.3879 8.07158 25.3875 8.07048 25.3869C8.0695 25.3863 8.06901 25.3861 8.06791 25.3856C8.0668 25.385 8.0657 25.3843 8.0646 25.3839C8.06375 25.3832 8.06301 25.3829 8.06215 25.3824C8.06105 25.3818 8.05971 25.3812 8.0586 25.3806C8.05787 25.3802 8.05775 25.3801 8.05689 25.3797C8.05224 25.3771 8.04783 25.3749 8.04306 25.3724C8.04281 25.3722 8.04232 25.372 8.04208 25.3717C8.04049 25.371 8.03926 25.3704 8.03779 25.3695C8.03718 25.3693 8.03694 25.3692 8.03645 25.3688C8.0351 25.3682 8.03339 25.3671 8.03204 25.3664C8.03155 25.3661 8.03143 25.3661 8.03094 25.3659C8.02935 25.365 8.02788 25.3642 8.02629 25.3634L8.02592 25.3632C4.39206 23.4538 1.73895 19.9328 1.01428 15.7503C1.66379 15.9431 2.34696 16.0614 3.05424 16.0936C3.18694 16.0997 3.31877 16.1027 3.45024 16.1027C4.81878 16.1026 6.11816 15.776 7.26979 15.194C6.98911 18.8551 7.57765 22.4875 8.92049 25.8134Z" fill="url(#paint0_linear_202_16095)"/>
<path d="M11.5981 10.4388L11.1504 10.2143C11.1242 10.2017 11.0983 10.1889 11.0723 10.1758H11.0722C11.0704 10.1748 11.0686 10.1739 11.0668 10.1731L11.0667 10.1729C11.065 10.1721 11.0633 10.1712 11.0615 10.1704C11.0614 10.1702 11.0612 10.1701 11.0611 10.1701C11.0593 10.1693 11.0577 10.1684 11.0562 10.1677C11.0558 10.1674 11.0558 10.1674 11.0554 10.1672C11.0538 10.1665 11.0524 10.1657 11.0509 10.165C11.0505 10.1647 11.0502 10.1645 11.0498 10.1644C11.0484 10.1636 11.0471 10.163 11.0458 10.1623C11.0453 10.162 11.0448 10.1618 11.0442 10.1616C11.0431 10.1609 11.042 10.1603 11.0409 10.1598C11.0401 10.1595 11.0393 10.159 11.0387 10.1586C11.0379 10.1583 11.0371 10.1579 11.0363 10.1575C11.0351 10.1569 11.0341 10.1564 11.033 10.1558C11.0329 10.1557 11.0327 10.1556 11.0325 10.1556C10.1665 9.71109 9.4286 9.05191 8.88889 8.24866C7.97816 10.5281 7.44813 12.8669 7.26965 15.1944C8.81287 14.4147 10.0916 13.1765 10.9193 11.6508L11.5981 10.4388ZM26.9325 23.9175C23.7634 26.0136 19.9736 27.2287 15.9249 27.2287C15.6165 27.2287 15.3067 27.2217 14.9957 27.2074C13.2286 27.1263 11.5262 26.8166 9.91383 26.3113L16.8603 29.7933C18.7718 30.7201 20.0907 32.6786 20.0907 34.9458V34.9589C20.0907 34.9607 20.0906 34.9627 20.0906 34.9645V34.9851C20.0905 34.9868 20.0905 34.9885 20.0905 34.9902V34.9983C20.0905 34.9994 20.0905 35.0006 20.0904 35.0015V35.0114C20.0904 35.0122 20.0903 35.0132 20.0903 35.0141V35.0213C20.0903 35.0224 20.0901 35.0236 20.0901 35.0245V35.0266C20.0901 35.0305 20.09 35.0343 20.09 35.0382V35.0392C20.0665 36.5158 19.4833 37.8565 18.5436 38.8586C18.1131 39.318 17.6075 39.7062 17.0465 40.0037L18.7726 39.1221L19.7347 38.6312C24.1582 36.4228 27.1961 31.8526 27.1961 26.5727L26.9325 23.9175Z" fill="url(#paint1_linear_202_16095)"/>
<path d="M15.9246 27.2298C15.6163 27.2298 15.3065 27.2228 14.9954 27.2085C13.2283 27.1275 11.526 26.8178 9.91357 26.3125L8.91997 25.8146C7.57714 22.4887 6.98859 18.8564 7.26928 15.1957C8.8125 14.4159 10.0912 13.1778 10.9189 11.652L11.5977 10.4401L19.9255 14.6144C20.2269 14.7708 20.5217 14.9385 20.8093 15.1165C20.81 15.117 20.8104 15.1172 20.8112 15.1177C20.8123 15.1183 20.8134 15.1191 20.8143 15.1197C20.8154 15.1203 20.8167 15.121 20.8177 15.1218C20.818 15.1219 20.8187 15.1224 20.8189 15.1225C23.9272 17.0512 26.1903 20.2103 26.9321 23.9187C23.7633 26.0148 19.9735 27.2298 15.9246 27.2298Z" fill="url(#paint2_linear_202_16095)"/>
</g>
<defs>
<linearGradient id="paint0_linear_202_16095" x1="2.40836" y1="17.5606" x2="0.0663433" y2="23.0417" gradientUnits="userSpaceOnUse">
<stop stop-color="#AACE36"/>
<stop offset="1" stop-color="#2FA042"/>
</linearGradient>
<linearGradient id="paint1_linear_202_16095" x1="7.26965" y1="17.8742" x2="27.4697" y2="19.7901" gradientUnits="userSpaceOnUse">
<stop stop-color="#79A933"/>
<stop offset="0.13" stop-color="#70A333"/>
<stop offset="0.34" stop-color="#559332"/>
<stop offset="0.58" stop-color="#277B2F"/>
<stop offset="0.86" stop-color="#005F27"/>
<stop offset="1" stop-color="#005020"/>
</linearGradient>
<linearGradient id="paint2_linear_202_16095" x1="9.92309" y1="10.4401" x2="17.5995" y2="28.2338" gradientUnits="userSpaceOnUse">
<stop stop-color="#79AB35"/>
<stop offset="0.53" stop-color="#7CBA3D"/>
<stop offset="1" stop-color="#00AA4B"/>
</linearGradient>
<clipPath id="clip0_202_16095">
<rect width="28" height="41" fill="white"/>
</clipPath>
</defs>
</svg>
