<svg width="37" height="30" viewBox="0 0 37 30" fill="none" xmlns="http://www.w3.org/2000/svg">
<g clip-path="url(#clip0_202_14332)">
<path d="M10.5997 29.0471L11.3514 7.88488H13.2076L13.8837 26.9195C12.6729 27.6065 11.5698 28.3228 10.5994 29.0468L10.5997 29.0471ZM16.4426 25.5884L17.2431 7.88488H19.2238L19.9569 24.0991C19.4051 24.3006 18.8453 24.5219 18.2822 24.7581C17.6539 25.022 17.0413 25.2965 16.4428 25.5882L16.4426 25.5884ZM22.7408 23.1754L23.5117 7.88488H25.2437L25.9757 22.4055C24.9467 22.5926 23.8623 22.8491 22.7408 23.1754ZM4.71804 0.960962C4.74345 0.958698 4.76917 0.957542 4.79517 0.957542H31.1639C31.1991 0.957542 31.2339 0.959666 31.268 0.963794C31.2968 0.959841 31.323 0.957809 31.3465 0.957809V0.957275C32.0671 0.957275 35.3724 2.86599 35.7323 3.48925C36.0922 4.11305 36.0922 7.92994 35.7323 8.55347C35.3724 9.17726 32.0668 11.086 31.347 11.086C30.6267 11.086 27.3212 9.17726 26.9613 8.55347C26.6874 8.07872 26.6219 5.75486 26.7649 4.39642H9.23947C9.38245 5.75502 9.31699 8.07895 9.04312 8.55347C8.68323 9.17726 5.37765 11.086 4.65788 11.086C3.93758 11.086 0.631992 9.17726 0.272109 8.55347C-0.0877734 7.92967 -0.0877734 4.11331 0.272109 3.48952C0.631992 2.86625 3.93758 0.957809 4.65788 0.957809V0.957275C4.67627 0.957275 4.69636 0.958522 4.71804 0.960962Z" fill="black"/>
</g>
<defs>
<clipPath id="clip0_202_14332">
<rect width="37" height="30" fill="white"/>
</clipPath>
</defs>
</svg>
