<svg width="36" height="37" viewBox="0 0 36 37" fill="none" xmlns="http://www.w3.org/2000/svg">
<g clip-path="url(#clip0_202_15533)">
<path d="M36 17.9984L18.0073 0.00561523L0 17.9984L18.0073 36.0056L36 17.9984ZM18.0073 4.79014L24.6307 11.4233C22.4609 10.84 20.2293 10.5401 17.9986 10.5401C15.7582 10.5381 13.5274 10.8351 11.3664 11.4233L18.0073 4.79014ZM12.1083 25.298C13.9142 24.3008 15.9443 23.7798 18.0073 23.7841C20.1045 23.7841 22.1185 24.3113 23.9062 25.298L18.0073 31.1969L12.1083 25.298ZM26.3661 22.838C23.8191 21.2158 20.9103 20.4003 17.9986 20.4003C15.0337 20.3987 12.1302 21.2445 9.62999 22.838L4.9867 18.1947C8.74196 15.4358 13.2624 13.9384 18.014 13.9384C22.7657 13.9384 27.2813 15.4262 31.0414 18.1947L26.3661 22.838Z" fill="#73CC58"/>
</g>
<defs>
<clipPath id="clip0_202_15533">
<rect width="36" height="37" fill="white"/>
</clipPath>
</defs>
</svg>
