<svg width="32" height="37" viewBox="0 0 32 37" fill="none" xmlns="http://www.w3.org/2000/svg">
<g clip-path="url(#clip0_202_15385)">
<path d="M27.0782 11.4835V24.452L16.0585 30.9717L15.9589 31.0623V35.9093L16.0585 36.0032L31.5782 27.0386V8.96778L31.4316 8.93188L27.0562 11.378L27.0782 11.4835Z" fill="#2F406A"/>
<path d="M5.00336 24.5583L16.0585 30.9717V36.0032L0.432495 27.0032V9.00321L0.592847 8.979L4.95555 11.5154L5.00336 11.6607V24.5583Z" fill="#2379BD"/>
<path d="M5.00336 11.6607L0.432495 9.00317L16.0231 0.00317383L31.5782 8.96777L27.0782 11.4835L16.0231 5.17639L5.00336 11.6607Z" fill="#03AFEF"/>
<path d="M15.8686 23.0751L15.7489 22.9529V18.0833L15.8686 18.0215L15.8977 17.9014L20.0726 15.4661L20.2003 15.4947V20.5123L15.8686 23.0751Z" fill="#2F406A"/>
<path d="M11.4647 20.6686V15.4586L11.5858 15.4526L15.8325 17.9241L15.8687 18.0214V23.075L11.4647 20.6686Z" fill="#2379BD"/>
<path d="M15.7964 12.8958L11.4647 15.4587L15.8687 18.0215L20.2003 15.4947L15.7964 12.8958Z" fill="#03AFEF"/>
<path d="M10.4784 26.2516L10.3588 26.1295V21.2597L10.4784 21.198L10.5076 21.0779L14.6823 18.6426L14.81 18.6712V23.6887L10.4784 26.2516Z" fill="#2F406A"/>
<path d="M6.07458 23.8452V18.6351L6.19552 18.6292L10.4423 21.1007L10.4784 21.1981V26.2517L6.07458 23.8452Z" fill="#2379BD"/>
<path d="M10.4063 16.0723L6.07458 18.6351L10.4784 21.198L14.8101 18.6712L10.4063 16.0723Z" fill="#03AFEF"/>
<path d="M21.6444 26.372L21.5247 26.2498V21.38L21.6444 21.3183L21.6735 21.1983L25.8483 18.7629L25.9761 18.7915V23.809L21.6444 26.372Z" fill="#2F406A"/>
<path d="M17.2406 23.9656V18.7555L17.3617 18.7495L21.6084 21.2211L21.6445 21.3184V26.372L17.2406 23.9656Z" fill="#2379BD"/>
<path d="M21.5723 16.1926L17.2406 18.7555L21.6445 21.3184L25.9762 18.7916L21.5723 16.1926Z" fill="#03AFEF"/>
<path d="M16.2537 29.5485L16.1342 29.4263V24.5565L16.2537 24.4949L16.2829 24.3747L20.4578 21.9395L20.5854 21.968V26.9855L16.2537 29.5485Z" fill="#2F406A"/>
<path d="M11.8499 27.1421V21.932L11.9708 21.926L16.2177 24.3975L16.2537 24.4949V29.5486L11.8499 27.1421Z" fill="#2379BD"/>
<path d="M16.1815 19.3691L11.8499 21.9321L16.2537 24.495L20.5854 21.9682L16.1815 19.3691Z" fill="#03AFEF"/>
<path d="M15.8686 16.1686L15.7489 16.0463V11.1767L15.8686 11.115L15.8977 10.9948L20.0726 8.55957L20.2003 8.58816V13.6057L15.8686 16.1686Z" fill="#2F406A"/>
<path d="M11.4647 13.7619V8.55186L11.5858 8.5459L15.8325 11.0174L15.8687 11.1148V16.1684L11.4647 13.7619Z" fill="#2379BD"/>
<path d="M15.7964 5.98901L11.4647 8.55196L15.8687 11.1149L20.2003 8.58809L15.7964 5.98901Z" fill="#03AFEF"/>
<path d="M10.4784 19.3451L10.3588 19.223V14.3533L10.4784 14.2915L10.5076 14.1714L14.6823 11.7361L14.81 11.7647V16.7823L10.4784 19.3451Z" fill="#2F406A"/>
<path d="M6.07458 16.9386V11.7286L6.19552 11.7227L10.4423 14.1941L10.4784 14.2914V19.3451L6.07458 16.9386Z" fill="#2379BD"/>
<path d="M10.4063 9.16553L6.07458 11.7285L10.4784 14.2913L14.8101 11.7645L10.4063 9.16553Z" fill="#03AFEF"/>
<path d="M21.6444 19.4654L21.5247 19.3432V14.4735L21.6444 14.4117L21.6735 14.2916L25.8483 11.8563L25.9761 11.8849V16.9025L21.6444 19.4654Z" fill="#2F406A"/>
<path d="M17.2406 17.0587V11.8487L17.3617 11.8428L21.6084 14.3142L21.6445 14.4116V19.4652L17.2406 17.0587Z" fill="#2379BD"/>
<path d="M21.5723 9.28589L17.2406 11.8488L21.6445 14.4117L25.9762 11.8848L21.5723 9.28589Z" fill="#03AFEF"/>
<path d="M16.2537 22.6419L16.1342 22.5197V17.6499L16.2537 17.5882L16.2829 17.4682L20.4578 15.0328L20.5854 15.0614V20.0789L16.2537 22.6419Z" fill="#2F406A"/>
<path d="M11.85 20.2353V15.0252L11.9709 15.0193L16.2178 17.4909L16.2538 17.5882V22.6418L11.85 20.2353Z" fill="#2379BD"/>
<path d="M16.1815 12.4624L11.8499 15.0253L16.2537 17.5883L20.5854 15.0615L16.1815 12.4624Z" fill="#03AFEF"/>
</g>
<defs>
<clipPath id="clip0_202_15385">
<rect width="32" height="37" fill="white"/>
</clipPath>
</defs>
</svg>
