<svg width="41" height="38" viewBox="0 0 41 38" fill="none" xmlns="http://www.w3.org/2000/svg">
<path fill-rule="evenodd" clip-rule="evenodd" d="M20.002 0.975342C8.80195 0.975342 0.00195312 9.77534 0.00195312 20.9753C0.00195312 26.842 2.40194 32.1753 6.13527 35.9087C7.46861 37.242 9.86861 37.242 11.4686 36.1753C13.6019 34.3087 16.802 33.242 20.002 33.242C23.4686 33.242 26.1353 34.3087 28.5353 36.1753C30.1353 37.5087 32.2686 37.242 33.8686 35.642C37.6019 31.9087 40.002 26.842 40.002 20.9753C39.7353 10.042 30.9353 0.975342 20.002 0.975342ZM19.7353 31.3753C13.6019 31.3753 9.60195 26.842 9.60195 21.242C9.60195 15.642 13.6019 11.1087 19.7353 11.1087C25.8686 11.1087 29.8686 15.642 29.8686 21.242C29.8686 26.842 25.8686 31.3753 19.7353 31.3753Z" fill="#81B5A1"/>
</svg>
