<svg width="33" height="30" viewBox="0 0 33 30" fill="none" xmlns="http://www.w3.org/2000/svg">
<path fill-rule="evenodd" clip-rule="evenodd" d="M14.2102 25.7951C12.7833 25.8101 11.3676 25.542 10.0449 25.0063C8.72229 24.4706 7.519 23.6779 6.50467 22.6742C5.49034 21.6704 4.68511 20.4755 4.13556 19.1586C3.58601 17.8417 3.30305 16.4288 3.30305 15.0018C3.30305 13.5748 3.58601 12.1619 4.13556 10.845C4.68511 9.52804 5.49034 8.33314 6.50467 7.3294C7.519 6.32566 8.72229 5.53301 10.0449 4.99732C11.3676 4.46162 12.7833 4.1935 14.2102 4.20848C15.6277 4.20817 17.0313 4.48711 18.341 5.02937C19.6506 5.57163 20.8406 6.36658 21.843 7.36883C22.8453 8.37107 23.6404 9.56097 24.1828 10.8705C24.7252 12.1801 25.0043 13.5837 25.0041 15.0012C25.0043 16.4187 24.7252 17.8224 24.1828 19.132C23.6404 20.4417 22.8454 21.6317 21.843 22.634C20.8407 23.6363 19.6507 24.4314 18.3411 24.9738C17.0314 25.5162 15.6278 25.7953 14.2102 25.7951ZM32.0059 29.0724L25.4299 23.7188C27.4657 21.2597 28.4146 18.445 28.4146 15.0024C28.4146 7.15401 22.0551 0.796814 14.2102 0.796814C6.36543 0.796814 0.00585938 7.15401 0.00585938 15.0012C0.00585938 22.846 6.36543 29.2068 14.2102 29.2068C17.5399 29.2068 20.5972 28.0533 23.0183 26.1352L24.3905 29.0724H32.0059Z" fill="#343534"/>
<path fill-rule="evenodd" clip-rule="evenodd" d="M17.5995 8.97821C17.8052 8.97821 18.0299 8.9901 18.269 9.01388C19.7197 9.15183 21.3988 10.4825 21.5986 13.0296V13.0177C21.5986 17.6388 14.1961 22.2218 14.1961 22.2218C14.1961 22.2218 6.79248 17.4628 6.79248 13.0177V13.0296C7.00177 10.4825 8.67609 9.15302 10.1269 9.0127C10.3623 8.98891 10.5871 8.97821 10.7987 8.97821C12.4754 8.97821 13.2781 9.2755 14.1961 10.3719C15.1165 9.2755 15.9204 8.97821 17.5995 8.97821Z" fill="#00BFA5"/>
</svg>
