<svg width="33" height="29" viewBox="0 0 33 29" fill="none" xmlns="http://www.w3.org/2000/svg">
<g clip-path="url(#clip0_202_9529)">
<circle cx="15.5066" cy="9.5022" r="9.5" fill="url(#paint0_linear_202_9529)"/>
<circle cx="24.0066" cy="15.0022" r="8" fill="url(#paint1_linear_202_9529)"/>
<mask id="mask0_202_9529" style="mask-type:alpha" maskUnits="userSpaceOnUse" x="10" y="4" width="14" height="25">
<path d="M23.0066 21.5022C23.0066 25.0921 20.0964 28.0022 16.5066 28.0022C12.9167 28.0022 10.0066 25.0921 10.0066 21.5022C10.0066 17.9124 10.0066 4.0022 10.0066 4.0022H23.0066C23.0066 4.0022 23.0066 19.201 23.0066 21.5022Z" fill="#C4C4C4"/>
</mask>
<g mask="url(#mask0_202_9529)">
<circle cx="16.5066" cy="21.5022" r="6.5" fill="url(#paint2_linear_202_9529)"/>
<path d="M7.00659 10.0022C7.00659 8.34534 8.34974 7.0022 10.0066 7.0022H17.0066C18.6634 7.0022 20.0066 8.34534 20.0066 10.0022V22.0022C20.0066 23.6591 18.6634 25.0022 17.0066 25.0022H7.00659V10.0022Z" fill="black" fill-opacity="0.3"/>
</g>
<rect x="0.0065918" y="5.0022" width="18" height="18" rx="2" fill="url(#paint3_linear_202_9529)"/>
<path d="M13.0066 16.1251C13.0066 14.5748 11.9668 13.8905 9.80324 13.0944C8.10932 12.4659 7.7068 12.2843 7.7068 11.6838C7.7068 11.167 8.20995 10.8178 9.06529 10.8178C9.93741 10.8178 10.7592 11.1111 11.6816 11.6139L12.6208 9.95192C11.6313 9.33739 10.4573 9.0022 9.03175 9.0022C6.85146 9.0022 5.29171 10.1195 5.29171 11.8234C5.29171 13.5692 6.5328 14.1279 8.61246 14.8681C10.2728 15.4547 10.5915 15.748 10.5915 16.2648C10.5915 16.8793 10.0045 17.1866 9.08206 17.1866C7.99192 17.1866 7.03594 16.8095 6.07997 16.1949L5.00659 17.7871C6.1806 18.5972 7.63972 19.0022 9.13238 19.0022C11.3798 19.0022 13.0066 17.9407 13.0066 16.1251Z" fill="white"/>
</g>
<defs>
<linearGradient id="paint0_linear_202_9529" x1="6.00659" y1="9.5022" x2="26.5899" y2="9.5022" gradientUnits="userSpaceOnUse">
<stop stop-color="#103A3B"/>
<stop offset="1" stop-color="#116B6E"/>
</linearGradient>
<linearGradient id="paint1_linear_202_9529" x1="18.0066" y1="11.0022" x2="32.0066" y2="19.0022" gradientUnits="userSpaceOnUse">
<stop stop-color="#1D9097"/>
<stop offset="1" stop-color="#29BBC2"/>
</linearGradient>
<linearGradient id="paint2_linear_202_9529" x1="12.0066" y1="19.5022" x2="23.0066" y2="24.5022" gradientUnits="userSpaceOnUse">
<stop stop-color="#28A6B5"/>
<stop offset="1" stop-color="#31D6EC"/>
</linearGradient>
<linearGradient id="paint3_linear_202_9529" x1="0.0065918" y1="14.0022" x2="19.5066" y2="14.0022" gradientUnits="userSpaceOnUse">
<stop stop-color="#105557"/>
<stop offset="1" stop-color="#116B6E"/>
</linearGradient>
<clipPath id="clip0_202_9529">
<rect width="33" height="29" fill="white"/>
</clipPath>
</defs>
</svg>
