<svg width="32" height="36" viewBox="0 0 32 36" fill="none" xmlns="http://www.w3.org/2000/svg">
<g clip-path="url(#clip0_202_14319)">
<path d="M22.9097 29.7082C22.7558 29.7082 22.6115 29.6216 22.5441 29.4773C22.4479 29.2753 22.5249 29.0251 22.7269 28.9289C25.1128 27.736 27.1042 25.9177 28.4896 23.6761C29.9038 21.3864 30.6446 18.7023 30.6446 15.9124C30.6446 10.8135 28.0567 6.15715 23.7178 3.46341C23.5254 3.34796 23.4677 3.08821 23.5831 2.8958C23.6986 2.70338 23.9583 2.64566 24.1507 2.76111C26.3442 4.12722 28.1721 6.03209 29.4516 8.27367C30.7697 10.5922 31.4623 13.2282 31.4623 15.9027C31.4623 18.8466 30.6735 21.6751 29.1823 24.0994C27.72 26.4757 25.6131 28.3998 23.0925 29.6505C23.0348 29.6986 22.977 29.7082 22.9097 29.7082Z" fill="#FFC700"/>
<path d="M9.2197 29.5544C9.16198 29.5544 9.09464 29.5447 9.03691 29.5063C3.6398 26.7837 0.541992 21.8291 0.541992 15.9125C0.541992 9.63988 4.28438 4.03112 10.0759 1.62599C10.2876 1.5394 10.5281 1.63561 10.6147 1.84726C10.7013 2.05891 10.6051 2.29942 10.3934 2.38601C4.90971 4.66607 1.36936 9.9766 1.36936 15.9125C1.36936 21.502 4.30362 26.1968 9.41211 28.7847C9.61415 28.8906 9.69111 29.1311 9.5949 29.3331C9.50832 29.4774 9.36401 29.5544 9.2197 29.5544Z" fill="#FFC700"/>
<path d="M16.0502 25.7734C16.3191 26.0919 16.4475 26.5508 16.4889 26.9551C17.0783 26.8626 17.7251 26.6548 18.3207 26.2352C18.4938 26.1101 18.7343 26.1582 18.8594 26.3314C18.9845 26.5046 18.9364 26.7451 18.7632 26.8702C17.6953 27.6109 16.5312 27.7937 15.6461 27.7937C14.8765 27.7937 14.3378 27.659 14.2897 27.6398C14.0876 27.5821 13.9626 27.38 14.0203 27.1684C14.078 26.9664 14.28 26.8413 14.4917 26.899C14.5057 26.9037 15.0126 27.0293 15.7245 27.0192C15.6964 26.7367 15.6105 26.4392 15.4634 26.2641C15.2613 26.0235 14.8669 25.8889 14.4724 25.9273C14.2512 25.9466 13.8471 26.0428 13.6258 26.4372C13.5008 26.6681 13.5104 27.2454 13.5104 27.5243L13.5104 28.1734C13.5104 28.1958 13.5104 28.2181 13.5104 28.2403L13.5103 28.7412C13.5103 28.7608 13.5102 28.7803 13.5102 28.7996L13.5101 28.969C13.5095 29.8318 13.5075 30.3495 13.5008 30.5452C13.4911 30.8338 13.4911 31.1417 13.5008 31.4688C13.5104 32.8541 13.5296 34.4223 12.6253 35.3266C12.1828 35.7691 11.5574 36 10.7685 36C9.65256 36 8.86368 35.6441 8.43075 34.9514C8.09404 34.4126 8.04593 33.8162 8.04593 33.2967V30.7761C8.04593 30.5644 8.2191 30.3913 8.43075 30.3913H11.5767C11.7883 30.3913 11.9615 30.5644 11.9615 30.7761V32.8156C11.9615 33.0273 11.7883 33.2005 11.5767 33.2005C11.365 33.2005 11.1918 33.0273 11.1918 32.8156V31.1609H8.81558V33.2967C8.81558 34.3068 9.05609 35.24 10.7685 35.24C11.3554 35.24 11.7787 35.0957 12.0866 34.7878C12.76 34.1144 12.7504 32.7098 12.7311 31.4784C12.7311 31.1417 12.7215 30.8242 12.7311 30.5163C12.7375 30.3432 12.7397 29.8621 12.7404 29.079L12.7405 28.9703C12.7405 28.9519 12.7405 28.9333 12.7405 28.9145L12.7406 28.7417C12.7406 28.722 12.7406 28.7022 12.7406 28.6822L12.7407 27.534C12.7311 26.9952 12.7407 26.4372 12.9524 26.062C13.241 25.5521 13.7605 25.225 14.3955 25.1673C15.0497 25.1096 15.6846 25.3405 16.0502 25.7734ZM25.4495 19.0679C25.5072 19.1545 26.806 21.2421 27.2389 24.2437C27.2677 24.4169 27.1715 24.5805 27.0176 24.6478C25.4976 25.3116 23.7466 28.3998 23.2079 29.5254C23.1502 29.6697 23.0155 29.7467 22.8712 29.7467C22.8134 29.7467 22.7557 29.7371 22.7076 29.7082C22.5152 29.612 22.4382 29.3907 22.5248 29.1983C22.6018 29.0252 24.4682 25.2154 26.45 24.0898C26.1614 22.3196 25.5553 20.9054 25.1608 20.1262L20.7835 29.4966C20.7162 29.6312 20.5815 29.7178 20.4372 29.7178H14.434C14.2223 29.7178 14.0491 29.5447 14.0491 29.333C14.0491 29.1214 14.2223 28.9482 14.434 28.9482H20.187L24.776 19.1064C24.8337 18.9813 24.9588 18.8947 25.1031 18.8851C25.2474 18.8755 25.3725 18.9428 25.4495 19.0679ZM7.39174 19.0102C7.5168 19.0294 7.62263 19.116 7.67073 19.2315L12.2116 29.1695C12.2982 29.3619 12.2116 29.5928 12.0192 29.6793C11.9711 29.7082 11.9134 29.7178 11.8653 29.7178C11.721 29.7178 11.5767 29.6312 11.5189 29.4966L7.22819 20.0877C6.65096 20.8188 5.5927 22.3774 5.51574 24.1475C7.49756 25.4463 9.58522 28.9867 9.6718 29.1406C9.77763 29.3234 9.7199 29.5543 9.53712 29.6697C9.35432 29.7756 9.12343 29.7178 9.00799 29.535C8.98874 29.4966 6.79527 25.7734 4.9385 24.6959C4.82306 24.6286 4.74609 24.5035 4.74609 24.3592C4.74609 21.5019 6.96844 19.2122 7.05502 19.116C7.1416 19.0294 7.26667 18.9813 7.39174 19.0102ZM17.6665 3.05176e-05C17.8842 3.05176e-05 18.0669 0.134871 18.1365 0.32675C18.6621 0.389847 19.5729 0.54837 20.3458 0.923242C20.4742 0.674946 20.765 0.510831 21.0914 0.654226C22.7846 1.40463 24.6221 2.87657 25.8631 5.07005L25.8655 5.07391C25.8726 5.08547 25.8953 5.12277 25.9304 5.18347L25.9695 5.25189C26.3809 5.97859 27.8321 8.77145 27.5756 11.5928C27.5437 11.9761 27.2347 12.1532 26.944 12.1191C27.0645 12.3169 27.139 12.5149 27.1715 12.7087C27.2004 12.8434 27.3447 13.5746 26.8541 14.2095C26.4384 14.7579 25.6975 15.0542 24.6613 15.0984C25.1226 16.3169 25.0454 17.5126 25.0454 17.5671C25.0358 17.7595 24.8722 17.9134 24.6702 17.9134H24.6413C24.4297 17.8942 24.2661 17.7114 24.2854 17.4998C24.2854 17.4955 24.2891 17.4341 24.2897 17.329L24.2897 17.2693C24.2871 16.8667 24.2349 16.0002 23.8717 15.1812C23.8604 15.1561 23.852 15.1303 23.8465 15.1042L23.1021 15.1043C22.4479 15.1043 21.659 15.1139 20.8124 15.1139C20.0213 15.1139 19.1786 15.1106 18.3366 15.1023C18.1592 15.6621 18.0705 16.3463 18.0705 17.1919V21.6847C18.0801 22.4158 18.0705 23.224 17.8589 23.6665C17.5606 24.2822 16.9161 24.6574 16.1368 24.6671C16.1272 24.6863 16.1176 24.6863 16.0983 24.6863C15.3094 24.6863 14.5686 24.3015 14.2608 23.7242C14.001 23.2432 14.0107 22.6948 14.0203 22.0022C14.0203 21.7905 14.0299 21.5789 14.0203 21.3384C14.0203 21.1267 14.1838 20.9535 14.3955 20.9439C14.6071 20.9343 14.7803 21.1075 14.7899 21.3191V22.0022C14.7803 22.589 14.7707 23.0508 14.9342 23.3587C15.117 23.6954 15.598 23.9263 16.1176 23.9167C16.3484 23.9167 16.9161 23.8493 17.1662 23.3394C17.3201 23.0219 17.3105 22.0695 17.3009 21.7039V17.2015C17.3009 16.3765 17.3827 15.6838 17.5413 15.0927C17.1972 15.088 16.8561 15.0823 16.5216 15.0754C15.8489 15.0896 15.1475 15.0988 14.4486 15.1044L14.1867 15.1064C13.6634 15.11 13.1437 15.1116 12.6409 15.112L12.1441 15.112C11.3273 15.1114 10.5694 15.1078 9.93156 15.1043H8.65203C7.64187 15.1043 6.87223 14.8349 6.3912 14.2961C5.82359 13.6708 5.84283 12.9012 5.85245 12.7665C5.85245 12.5035 5.92718 12.2473 6.07463 12C5.74917 12.2539 5.1936 12.114 5.15016 11.5928C4.89367 8.77145 6.34487 5.97859 6.75623 5.25189L6.79537 5.18347C6.83048 5.12277 6.85315 5.08547 6.86023 5.07391L6.86261 5.07005C8.10366 2.87657 9.94118 1.40463 11.6344 0.654226C11.94 0.519955 12.2144 0.655306 12.3535 0.8769C13.3403 0.424103 14.5185 0.311285 14.8357 0.285419C14.9143 0.117513 15.0869 3.05176e-05 15.2902 3.05176e-05H17.6665ZM21.38 16.7975C21.7997 16.7975 22.14 17.1334 22.14 17.5479C22.14 17.9623 21.7997 18.2983 21.38 18.2983C20.9602 18.2983 20.62 17.9623 20.62 17.5479C20.62 17.1334 20.9602 16.7975 21.38 16.7975ZM13.5104 17.0476C13.722 17.0476 13.8952 17.2208 13.8952 17.4324C13.8952 17.6441 13.722 17.8172 13.5104 17.8172H9.97004C9.75839 17.8172 9.58522 17.6441 9.58522 17.4324C9.58522 17.2208 9.75839 17.0476 9.97004 17.0476H13.5104ZM6.94919 11.9968C6.6702 12.2662 6.53551 12.526 6.53551 12.7761V12.8049C6.53551 12.8049 6.53412 12.8219 6.53385 12.8521L6.53385 12.8742C6.53544 13.0423 6.57327 13.4836 6.90109 13.8343C7.25705 14.2192 7.8439 14.4116 8.65203 14.4116H9.93156C10.6969 14.4201 11.6352 14.4268 12.6409 14.4273L12.8936 14.4273C14.0368 14.4267 15.2541 14.4179 16.3951 14.3949L16.5216 14.3923C17.8013 14.4194 19.1849 14.4282 20.4554 14.429L20.8209 14.429C21.6653 14.4285 22.4482 14.4249 23.1021 14.4212H24.3816C25.334 14.4212 25.9978 14.2095 26.3153 13.7959C26.6328 13.3822 26.5077 12.8723 26.5077 12.8723L26.4981 12.8338C26.3923 12.1892 25.4879 11.5062 24.0737 11.0059C22.2458 10.371 19.6387 10.0342 16.512 10.0342H16.5024C12.8851 9.90917 8.53658 10.4672 6.94919 11.9968ZM18.2468 1.83288L18.2715 1.85505C18.5412 2.09814 18.8512 2.43265 19.1673 2.88619C20.5263 4.82636 20.9962 7.54762 21.1408 9.63676C23.3753 9.94817 24.9098 10.4855 25.8742 11.1007C25.4972 9.30633 24.8986 7.19725 23.7178 5.42601C22.3921 3.43757 20.5602 2.23326 18.2468 1.83288ZM14.1929 1.87203L14.1818 1.87398C12.5539 2.16779 11.1958 2.8003 10.1336 3.76166C9.28698 4.5313 8.5943 5.54145 8.08442 6.75364C7.58318 7.95835 7.25074 9.39616 7.08709 11.0303C8.07389 10.3941 9.58139 9.91179 11.4076 9.62692C11.5583 7.54793 12.0325 4.86364 13.3661 2.87657C13.6557 2.44843 13.9402 2.12021 14.1929 1.87203ZM16.435 1.68362C15.8111 1.68362 15.2165 1.7224 14.652 1.79957C13.7432 2.56561 12.0142 4.65187 11.6511 9.59006C13.1147 9.37932 14.7713 9.29247 16.5216 9.35118C18.1944 9.35118 19.64 9.44246 20.879 9.60157C20.5128 4.35486 18.6133 2.38916 17.7446 1.75939C17.3232 1.70896 16.8865 1.68362 16.435 1.68362ZM18.1589 0.586287L18.1573 0.595824C18.132 0.721779 18.0576 0.830899 17.9538 0.902358C18.8233 1.01386 19.6352 1.22478 20.3878 1.53442C20.3034 1.42445 20.2702 1.29759 20.2767 1.17358C19.5572 0.816651 18.6856 0.655359 18.1589 0.586287ZM14.7915 0.540159L14.7745 0.54168C14.3779 0.578765 13.3177 0.711999 12.443 1.11647C12.4591 1.22141 12.4471 1.3306 12.4002 1.43181C13.1845 1.15586 14.0417 0.9713 14.9712 0.878494C14.8699 0.796379 14.8026 0.675741 14.7915 0.540159Z" fill="#150007"/>
</g>
<defs>
<clipPath id="clip0_202_14319">
<rect width="32" height="36" fill="white"/>
</clipPath>
</defs>
</svg>
