<svg width="32" height="37" viewBox="0 0 32 37" fill="none" xmlns="http://www.w3.org/2000/svg">
<g clip-path="url(#clip0_202_15821)">
<path d="M27.8995 7.0137C27.8746 6.83266 27.7161 6.7326 27.5851 6.72161C27.4544 6.71062 24.6873 6.50558 24.6873 6.50558C24.6873 6.50558 22.7656 4.59773 22.5548 4.38662C22.3437 4.1755 21.9316 4.23971 21.7716 4.28684C21.7479 4.29379 21.3517 4.41612 20.6961 4.61884C20.0541 2.77173 18.9213 1.07414 16.9281 1.07414C16.8732 1.07414 16.8165 1.07645 16.7598 1.07963C16.193 0.330032 15.4908 0.00439453 14.8844 0.00439453C10.2416 0.00439453 8.02343 5.80832 7.32791 8.75785C5.52389 9.31687 4.24216 9.71423 4.07848 9.76571C3.07149 10.0815 3.03968 10.1133 2.90751 11.0622C2.80774 11.7806 0.172852 32.1575 0.172852 32.1575L20.7045 36.0044L31.8294 33.5977C31.8294 33.5977 27.924 7.19473 27.8995 7.0137ZM19.5613 4.96993C19.0457 5.12957 18.4594 5.3109 17.8241 5.50755C17.8247 5.38522 17.8252 5.26462 17.8252 5.13304C17.8252 3.98492 17.6659 3.06064 17.4102 2.32781C18.4372 2.4568 19.1211 3.62516 19.5613 4.96993ZM16.1363 2.55541C16.4218 3.27089 16.6074 4.29754 16.6074 5.68309C16.6074 5.75395 16.6068 5.81873 16.6063 5.88438C15.4764 6.23431 14.2487 6.61431 13.0182 6.99548C13.7091 4.32907 15.0041 3.04127 16.1363 2.55541ZM14.7568 1.24968C14.9573 1.24968 15.1591 1.31764 15.3523 1.45068C13.8644 2.15083 12.2694 3.91436 11.5959 7.43593C10.6115 7.74074 9.64931 8.03862 8.75973 8.31422C9.54867 5.62815 11.4221 1.24968 14.7568 1.24968Z" fill="#95BF46"/>
<path d="M27.585 6.72169C27.4543 6.7107 24.6873 6.50566 24.6873 6.50566C24.6873 6.50566 22.7655 4.59782 22.5547 4.3867C22.4758 4.30804 22.3693 4.26784 22.258 4.25049L20.7056 36.0042L31.8293 33.5978C31.8293 33.5978 27.924 7.19482 27.8994 7.01378C27.8745 6.83274 27.716 6.73268 27.585 6.72169Z" fill="#5E8E3E"/>
<path d="M16.9282 12.8686L15.5565 16.9489C15.5565 16.9489 14.3546 16.3074 12.8814 16.3074C10.7217 16.3074 10.6129 17.6629 10.6129 18.0044C10.6129 19.868 15.4709 20.5821 15.4709 24.9472C15.4709 28.3814 13.2927 30.5929 10.3556 30.5929C6.83109 30.5929 5.02881 28.3994 5.02881 28.3994L5.97246 25.2815C5.97246 25.2815 7.82507 26.8721 9.38848 26.8721C10.4099 26.8721 10.8255 26.0679 10.8255 25.4802C10.8255 23.0492 6.84006 22.9408 6.84006 18.9463C6.84006 15.5844 9.25313 12.3309 14.1241 12.3309C16.001 12.3309 16.9282 12.8686 16.9282 12.8686Z" fill="white"/>
</g>
<defs>
<clipPath id="clip0_202_15821">
<rect width="32" height="37" fill="white"/>
</clipPath>
</defs>
</svg>
