<svg width="36" height="36" viewBox="0 0 36 36" fill="none" xmlns="http://www.w3.org/2000/svg">
<g clip-path="url(#clip0_202_9474)">
<path fill-rule="evenodd" clip-rule="evenodd" d="M20.9599 0.00331116C20.0743 0.00331116 19.2319 0.348848 18.6055 0.975132L10.7144 8.85768L13.8247 11.9675L18.8863 10.7005L23.7967 11.8523L26.9503 8.69931C26.1079 7.6771 26.1799 6.17978 27.1159 5.24395C28.0519 4.30812 29.5494 4.23613 30.5718 5.07838L34.8486 0.809563C34.2366 0.291258 33.459 0.00331116 32.6598 0.00331116H20.9599Z" fill="#EA4335"/>
<path d="M34.8412 0.816757L30.5716 5.08557C31.414 5.77665 31.7308 6.92124 31.3564 7.94345C30.982 8.96566 30.01 9.64953 28.9228 9.64233C28.1452 9.64233 27.4252 9.3112 26.9428 8.70651C26.9356 8.69931 26.95 8.71371 26.9428 8.70651L22.0685 13.6376L18.5981 11.9603L14.6885 14.0335L13.5581 17.6545L14.6885 21.7217L18.5981 23.471L24.466 22.6287L27.1372 25.2995L35.014 17.4169C35.6476 16.7978 36.0076 15.9484 36.0004 15.0629V3.35069C36.0004 2.37887 35.5756 1.45744 34.8412 0.816757Z" fill="#4285F4"/>
<path d="M10.7141 8.85762L0.986988 18.583C0.353392 19.2093 0.000594251 20.066 0.000594251 20.9586C-0.00660571 21.844 0.353392 22.6935 0.986988 23.3126L6.66775 28.9923L13.1189 22.5423L11.9957 17.6472L13.8245 11.9746L10.7141 8.85762Z" fill="#FBBC05"/>
<path fill-rule="evenodd" clip-rule="evenodd" d="M6.66797 28.9924L12.6871 35.0105C13.3135 35.6368 14.1559 35.9967 15.0415 35.9967C15.9343 35.9895 16.7839 35.6368 17.4175 35.0105L27.1374 25.2851L24.4663 22.6144L18.8791 24.2341L13.1047 22.5424L6.66797 28.9924Z" fill="#34A853"/>
<path fill-rule="evenodd" clip-rule="evenodd" d="M25.8267 16.2507H18.8787V19.231H22.8747C22.5003 21.1242 20.9451 22.2112 18.8787 22.2112C16.3587 22.1248 14.3859 20.0156 14.4723 17.4961C14.5515 15.0989 16.4811 13.1769 18.8787 13.0905C19.8867 13.0905 20.8587 13.4504 21.6219 14.1055L23.7891 11.8595C22.4499 10.6214 20.7003 9.93748 18.8787 9.93028C14.7459 9.93028 11.4268 13.3641 11.4268 17.6401C11.4268 21.9161 14.7459 25.3498 18.8787 25.3498C22.6083 25.3498 25.9923 22.5424 25.9923 17.6401C25.9851 17.1794 25.9275 16.7114 25.8267 16.2507Z" fill="white"/>
</g>
<defs>
<clipPath id="clip0_202_9474">
<rect width="36.0005" height="36" fill="white"/>
</clipPath>
</defs>
</svg>
