<svg width="40" height="24" viewBox="0 0 40 24" fill="none" xmlns="http://www.w3.org/2000/svg">
<g clip-path="url(#clip0_202_10159)">
<path d="M39.9019 14.7642C39.9019 14.7492 39.8869 14.7342 39.8869 14.7192C39.8869 14.7192 39.8869 14.7042 39.8719 14.6891C39.8569 14.6741 39.8719 14.6741 39.8569 14.6591C39.8569 14.6441 39.8418 14.6291 39.8418 14.614C39.8118 14.5389 39.7817 14.4638 39.7517 14.3737V14.3587C39.7066 14.2685 39.6766 14.1784 39.6315 14.0733C39.3912 13.5325 39.1509 13.0218 38.8955 12.5261C38.8655 12.466 38.8354 12.406 38.8054 12.3459C38.7603 12.2708 38.7303 12.1957 38.6852 12.1206C37.4685 9.82234 36.2068 8.12498 35.2604 7.01342C34.945 6.6379 34.6296 6.29242 34.3141 5.96196L34.2991 5.94693C33.7583 5.37614 33.1875 4.8504 32.6167 4.36973C31.7906 3.67877 30.9344 3.07793 30.0632 2.56722C27.6899 1.20031 25.1213 0.494324 22.4325 0.494324C20.6901 0.494324 19.0228 0.869848 17.3254 1.63592C15.8984 2.28182 14.6367 3.13801 13.5401 3.88906C13.42 3.96417 13.2998 4.05429 13.1796 4.1294C11.6625 5.16584 9.93509 6.33748 8.28279 6.84819C6.78069 7.31384 5.65412 7.13359 4.52754 6.2774C4.46746 6.23233 4.40738 6.18727 4.33227 6.14221C4.33227 6.14221 4.33227 6.14221 4.31725 6.14221C4.30223 6.12719 4.28721 6.12719 4.28721 6.11217C4.27219 6.11217 4.27219 6.09714 4.25717 6.09714C4.25717 6.09714 4.24215 6.09715 4.24215 6.08212C3.89666 5.87183 3.52114 5.75166 3.13059 5.7066H3.11557H3.10055C2.75507 5.67656 2.40959 5.69158 2.06411 5.79672H2.04909C2.03406 5.79672 2.03406 5.79673 2.01904 5.81175C2.00402 5.81175 1.989 5.82677 1.97398 5.82677C1.97398 5.82677 1.97398 5.82677 1.95896 5.82677C1.64352 5.93191 1.32808 6.09715 1.0577 6.30744C1.04268 6.30744 1.04268 6.32246 1.02766 6.32246C1.02766 6.32246 1.02766 6.32246 1.01264 6.33748C0.787324 6.51773 0.607073 6.72803 0.456863 6.95334C0.456863 6.95334 0.456863 6.95334 0.456863 6.96836C0.456863 6.98338 0.441841 6.9984 0.42682 7.01342C0.42682 7.02844 0.4118 7.02844 0.4118 7.04347L0.396779 7.05849C0.186486 7.40397 0.0663178 7.76447 0.0212549 8.14C0.0212549 8.15502 0.0212549 8.15502 0.0212549 8.17004C-0.023808 8.51552 0.00623373 8.87602 0.11138 9.22151C0.11138 9.23653 0.126401 9.25155 0.126401 9.26657C0.126401 9.26657 0.126402 9.28159 0.141423 9.29661C0.141423 9.31163 0.141423 9.31163 0.156444 9.31163C0.156444 9.32665 0.171465 9.34167 0.171465 9.37171C0.201506 9.44682 0.231548 9.52192 0.26159 9.61205V9.62707C0.306653 9.7172 0.351716 9.82234 0.381758 9.91247C1.85381 13.2021 3.55118 15.5604 4.75286 16.9723C5.60905 17.9787 6.49529 18.88 7.44161 19.6611C8.25274 20.337 9.09392 20.9379 9.96513 21.4335C12.3535 22.8005 14.907 23.5064 17.5958 23.5064C19.3382 23.5064 21.0055 23.1309 22.7029 22.3649C24.1299 21.719 25.3917 20.8628 26.4882 20.1117C26.6084 20.0366 26.7285 19.9465 26.8487 19.8714C28.3808 18.8349 30.0932 17.6633 31.7455 17.1526C33.2476 16.6869 34.3742 16.8672 35.5158 17.7384C35.5308 17.7534 35.5609 17.7684 35.5759 17.7835C35.6059 17.7985 35.636 17.8285 35.666 17.8435C35.681 17.8435 35.696 17.8586 35.696 17.8586C35.7111 17.8586 35.7111 17.8736 35.7261 17.8736C35.7411 17.8886 35.7712 17.9036 35.7862 17.9036H35.8012C36.1166 18.0989 36.4771 18.2191 36.8226 18.2641C36.8527 18.2641 36.8827 18.2791 36.9127 18.2791C36.9278 18.2791 36.9278 18.2791 36.9428 18.2791C36.9578 18.2791 36.9728 18.2791 37.0029 18.2791C37.0179 18.2791 37.0329 18.2791 37.0479 18.2791H37.063C37.093 18.2791 37.1381 18.2791 37.1831 18.2791H37.2282C37.4685 18.2791 37.7239 18.2491 37.9642 18.174C37.9642 18.174 37.9642 18.174 37.9792 18.174C37.9792 18.174 37.9943 18.174 38.0093 18.159C38.0243 18.159 38.0393 18.144 38.0393 18.144H38.0543C38.3548 18.0538 38.6552 17.9036 38.9256 17.6933C38.9406 17.6933 38.9406 17.6783 38.9556 17.6633C38.9706 17.6483 38.9706 17.6483 38.9856 17.6483C39.211 17.468 39.3912 17.2577 39.5414 17.0324C39.5564 17.0174 39.5564 17.0024 39.5715 16.9873C39.5715 16.9723 39.5865 16.9723 39.5865 16.9573L39.6015 16.9423C39.8118 16.5968 39.932 16.2363 39.977 15.8608C39.977 15.8458 39.977 15.8458 39.977 15.8307C40.0221 15.4702 40.0071 15.1097 39.9019 14.7642ZM30.0932 11.8201C27.6448 12.5712 25.4517 14.0583 23.6943 15.2449C23.5741 15.32 23.454 15.4101 23.3338 15.4852C21.0957 17.0024 19.5936 17.9186 17.5808 17.9186C15.8684 17.9186 14.2912 17.483 12.759 16.5968C12.5938 16.5067 12.4286 16.4015 12.2633 16.2964C12.2633 16.2964 12.2483 16.2964 12.2483 16.2814C11.1217 15.5453 10.0252 14.569 9.00379 13.3523C8.7935 13.0969 8.55316 12.8115 8.31283 12.4961C8.83856 12.406 9.37932 12.2858 9.92007 12.1206C12.3685 11.3695 14.5465 9.88243 16.319 8.69577C16.4392 8.62067 16.5593 8.53054 16.6795 8.45544C18.9176 6.93832 20.4197 6.02204 22.4325 6.02204C24.0999 6.02204 25.647 6.42761 27.1491 7.2838C27.1792 7.29882 27.2242 7.32886 27.2693 7.34388C28.5761 8.09493 29.8379 9.19146 31.0245 10.5734C31.2348 10.8287 31.4752 11.1141 31.7155 11.4446C31.1747 11.5197 30.634 11.6549 30.0932 11.8201Z" fill="#6197FF"/>
<path opacity="0.4" d="M39.6466 14.1033C39.6466 14.1033 39.6316 14.0883 39.6316 14.0733C39.4664 13.8029 39.181 13.5025 38.9106 13.3072C37.5287 12.2407 36.0266 11.5948 34.4043 11.3845C33.5782 11.2794 32.5718 11.3094 31.6855 11.4296C31.4452 11.0991 31.2048 10.8137 30.9946 10.5584C29.8229 9.17644 28.5612 8.07991 27.2393 7.32886C27.2093 7.31384 27.1642 7.2838 27.1191 7.26878C27.1792 7.23874 27.2243 7.19367 27.2393 7.19367C28.7564 6.15723 30.4688 4.98559 32.1211 4.47488C32.2713 4.42982 32.4366 4.38475 32.5868 4.33969C33.1726 4.82036 33.7284 5.3461 34.2691 5.91689L34.2841 5.93191C34.6146 6.26238 34.93 6.62288 35.2305 6.98338C36.1768 8.09493 37.4385 9.80732 38.6552 12.0905C38.7003 12.1656 38.7303 12.2407 38.7754 12.3158C38.8055 12.3759 38.8355 12.436 38.8655 12.4961C39.1509 13.0368 39.4063 13.5626 39.6466 14.1033Z" fill="url(#paint0_linear_202_10159)"/>
<path opacity="0.4" d="M12.7441 16.6118C12.5789 16.5217 12.4136 16.4165 12.2634 16.2964C12.2634 16.2964 12.2484 16.2964 12.2484 16.2814C11.1218 15.5453 10.0253 14.569 9.00388 13.3523C8.79359 13.0969 8.55325 12.8115 8.31292 12.4961C7.4417 12.6012 6.30011 12.6463 5.5791 12.5562C3.97186 12.3459 2.45474 11.7 1.07281 10.6335C0.802436 10.4382 0.517037 10.1228 0.351807 9.8674C1.82386 13.157 3.52123 15.5153 4.72291 16.9273C5.5791 17.9337 6.46534 18.8349 7.41166 19.616C7.60693 19.5409 7.78719 19.4808 7.84727 19.4658C9.48455 18.9551 11.1969 17.7835 12.7291 16.747C12.7441 16.732 12.7892 16.7019 12.8493 16.6719C12.8192 16.6569 12.7892 16.6268 12.7441 16.6118Z" fill="url(#paint1_linear_202_10159)"/>
</g>
<defs>
<linearGradient id="paint0_linear_202_10159" x1="31.6208" y1="13.9753" x2="34.2186" y2="9.17284" gradientUnits="userSpaceOnUse">
<stop stop-color="#6197FF" stop-opacity="0.9"/>
<stop offset="0.38" stop-color="#4E79CC" stop-opacity="0.78"/>
<stop offset="0.7866" stop-color="#E6E6E6" stop-opacity="0.08"/>
<stop offset="0.8933" stop-color="white" stop-opacity="0"/>
</linearGradient>
<linearGradient id="paint1_linear_202_10159" x1="8.40259" y1="9.96083" x2="5.79871" y2="14.7746" gradientUnits="userSpaceOnUse">
<stop stop-color="#6197FF" stop-opacity="0.9"/>
<stop offset="0.38" stop-color="#4E79CC" stop-opacity="0.78"/>
<stop offset="0.7866" stop-color="#E6E6E6" stop-opacity="0.08"/>
<stop offset="0.8933" stop-color="white" stop-opacity="0"/>
</linearGradient>
<clipPath id="clip0_202_10159">
<rect width="40.001" height="24" fill="white"/>
</clipPath>
</defs>
</svg>
