<svg width="34" height="37" viewBox="0 0 34 37" fill="none" xmlns="http://www.w3.org/2000/svg">
<g clip-path="url(#clip0_202_14998)">
<path d="M9.63435 16.6973C9.63435 16.6973 9.2201 16.6115 9.09844 16.6482C8.97677 16.685 8.2819 16.5631 7.97701 16.3426C7.67212 16.1228 7.3676 16.2818 7.08733 16.1104C6.80743 15.939 6.38051 15.9634 6.06403 15.9514C5.7472 15.9394 5.3449 15.9634 5.19861 16.1592C5.05233 16.3546 4.47985 16.9542 4.27272 17.1984C4.0656 17.4429 3.2248 18.3231 2.89566 18.4573C2.89566 18.4573 2.98075 18.5923 2.93223 18.6898C2.88334 18.7881 2.91992 19.0686 2.91992 19.1669C2.91992 19.2651 2.94418 19.4234 2.85945 19.5216C2.77363 19.6195 2.72511 19.7782 2.72511 19.8393C2.72511 19.9004 2.62734 20.1206 2.72511 20.4142C2.82251 20.7078 2.9076 21.0375 2.50567 20.9032C2.10338 20.769 2.18884 20.4022 1.86005 20.3895C1.53126 20.3774 1.10471 20.3895 0.982679 19.9375C0.860289 19.4849 0.629269 18.7146 0.580385 18.5923C0.531864 18.4704 0.361314 17.9079 0.678152 17.4189C0.99499 16.9298 1.05582 16.5751 1.10471 16.4648C1.15323 16.3549 1.38497 15.6578 1.55516 15.5595C1.72571 15.4616 1.66451 15.156 1.76228 15.0217C1.85969 14.8871 1.82311 14.667 1.88395 14.5447C1.94478 14.4224 1.9694 14.068 2.0545 13.7991C2.13995 13.5302 2.42022 13.114 2.59077 12.8942C2.76132 12.6744 2.85908 12.3444 2.85908 12.2342C2.85908 12.1239 2.79825 11.8921 3.07815 11.6964C3.35806 11.5006 3.85776 10.8649 3.90664 10.7671C3.90664 10.7427 3.90664 10.2904 3.88202 10.1314C3.85776 9.97238 3.82118 9.82575 3.97942 9.76462C4.13838 9.70312 4.35746 9.56849 4.35746 9.56849C4.35746 9.56849 4.20537 9.3731 3.87622 9.2079C3.54707 9.04307 2.55999 7.92419 2.46874 7.26414C2.37713 6.60373 2.34056 5.55835 3.23639 5.19157C4.13223 4.82443 5.11895 4.62285 5.2656 4.60466C5.41189 4.58646 5.92354 4.47621 6.12487 4.62285C6.12487 4.62285 5.90544 4.58646 5.81419 4.62285C5.72257 4.6596 6.25233 4.64141 6.38051 4.78804C6.38051 4.78804 6.12487 4.71491 5.97858 4.7331C5.83265 4.75129 6.23458 4.91649 6.30773 5.04493C6.38051 5.17338 6.65498 5.26507 6.61841 5.46702C6.5822 5.6686 6.56373 5.98043 6.59994 6.07212C6.63688 6.16382 6.72813 6.32901 6.74659 6.58553C6.76506 6.84242 6.83821 7.191 6.91099 7.35583C6.98413 7.52103 7.16699 8.03444 7.09385 8.40122C7.09385 8.40122 7.16699 8.5846 7.53235 8.16289C7.89807 7.7408 8.2638 7.66767 8.44629 7.66767C8.62916 7.66767 8.90363 7.48392 9.08612 7.55742C9.26935 7.63092 9.47068 7.53922 9.68975 7.59417C9.90882 7.64911 10.8228 7.59417 11.0241 7.52067C11.2247 7.44717 11.9196 7.35547 12.0655 7.35547C12.2118 7.35547 11.883 7.11714 12.1571 6.93375C12.4316 6.75036 11.8645 6.65867 12.2853 6.12707C12.7053 5.5951 12.303 5.44846 12.2302 5.33857C12.1575 5.22832 12.139 4.87974 12.139 4.67816C12.139 4.47621 12.0843 3.9628 12.0843 3.9628L12.1575 3.87111C12.1575 3.87111 12.0984 3.77359 12.0405 3.73902C11.9829 3.70446 11.9254 3.49633 11.8797 3.35769C11.833 3.21906 11.3264 2.46768 11.1769 2.35234C11.027 2.23626 11.0042 2.06343 11.027 1.90151C11.0502 1.73923 11.1649 1.60096 11.1421 1.42739C11.119 1.25419 11.1305 1.02314 11.119 0.942363C11.1077 0.861221 11.1421 0.37619 11.2461 0.329979C11.2461 0.329979 11.3264 0.295048 11.3612 0.410393C11.3612 0.410393 11.3033 0.00613971 11.43 0.00613971C11.43 0.00613971 11.5799 -0.0400711 11.6375 0.168059C11.6947 0.37619 11.7526 0.491535 11.7642 0.549389C11.7758 0.607244 11.8218 0.699301 11.8218 0.699301C11.8218 0.699301 11.9482 0.642175 12.0521 0.688021C12.1557 0.734232 12.2252 0.780443 12.2252 0.838297C12.2252 0.896152 12.2252 0.792087 12.3519 0.792087C12.4783 0.792087 12.5938 0.757156 12.6286 0.884508C12.6626 1.0115 12.6861 1.10428 12.6974 1.23127C12.7093 1.35826 12.7321 1.46232 12.7781 1.55475C12.8245 1.64717 12.8929 1.80872 12.8929 2.0285C12.8929 2.24827 12.974 2.65252 13.0084 2.83773C13.0428 3.02257 13.4346 3.73902 13.4346 3.73902C13.4346 3.73902 14.0335 3.85473 14.3098 3.79688C14.5864 3.73902 15.0698 3.84309 15.0126 4.09743C14.955 4.35141 14.9206 5.10279 14.8975 5.69225C14.8743 6.28171 14.782 7.4257 14.69 7.83031C14.5977 8.23457 14.0335 9.2865 13.8032 9.4597C13.5733 9.63326 13.3194 9.74861 12.6861 10.0492C12.0525 10.3497 11.3152 10.6848 11.3152 10.6848C11.3152 10.6848 11.707 11.2394 11.799 11.2743C11.891 11.3089 11.8797 11.1935 11.9945 11.2394C12.0517 11.2623 12.2505 11.3405 12.1241 11.2885C12.1239 11.2933 12.818 11.4716 12.818 11.4716C12.8845 11.4703 12.9257 11.4582 12.9174 11.4188C12.8826 11.2574 13.0442 11.0494 13.113 11.0029C13.1822 10.9567 13.0094 11.2108 13.113 11.3261C13.217 11.4421 14.7059 10.9996 14.678 11.0788C14.6505 11.1581 14.7588 11.1643 14.8537 11.0898C14.9479 11.0156 15.3424 10.7578 15.6235 10.7589C15.9053 10.7603 16.5429 10.8167 16.7139 10.7542C16.8849 10.692 17.6623 10.2106 17.922 10.0833C18.181 9.95533 19.0761 9.96769 19.454 9.71245C19.8318 9.45684 20.6639 8.85872 21.0153 8.64093C21.3663 8.4235 23.9713 6.82513 24.527 6.73823C25.0827 6.65133 26.4147 6.12411 26.643 5.96086C26.8712 5.79797 27.5892 5.40128 27.733 5.27693C27.8772 5.15258 28.5973 5.46855 28.9726 6.00413C28.9726 6.00413 29.7047 5.64453 29.8627 5.63071C30.0203 5.6169 30.3122 5.41292 30.5361 5.24094C30.7604 5.06859 31.4356 4.61228 31.7308 4.46793C31.7308 4.46793 31.8801 4.40212 31.9087 4.29704C31.9373 4.19196 32.0565 3.99125 32.1637 4.0327C32.1637 4.0327 32.3988 3.73165 32.4941 3.82218C32.4941 3.82218 32.7006 3.6262 32.8191 3.73274C32.8191 3.73274 32.9361 3.74946 32.9756 3.81273C32.9756 3.81273 33.1241 3.69238 33.1929 3.78364C33.1929 3.78364 33.3001 3.6622 33.4809 3.80473C33.4809 3.80473 33.6012 3.95344 33.3798 4.22686C33.3798 4.22686 33.2411 4.29886 33.144 4.49956C33.0476 4.70027 32.7778 5.08168 32.4822 5.23112C32.1858 5.38056 31.8439 5.64307 31.8565 6.17974C31.8696 6.71678 31.6417 7.34107 31.0799 7.20072C30.518 7.06037 30.0253 7.24981 29.5334 7.51851C29.5334 7.51851 29.4903 7.80211 29.4428 7.86974C29.395 7.93701 29.1751 7.91519 28.8726 8.10535C28.5705 8.29515 28.3861 8.36642 28.1478 8.5453C27.909 8.72419 27.858 8.84491 27.6573 8.93835C27.4566 9.03252 27.2313 9.28777 27.0983 9.42921C26.9646 9.57028 26.4731 9.91752 25.892 10.2011C25.3106 10.4851 22.9208 11.3406 22.3683 11.7904C21.8152 12.2402 20.7983 13.0459 19.2551 13.8036C19.191 13.8349 19.1316 13.8655 19.0711 13.8956C18.9776 13.9811 17.6507 15.1991 17.1964 15.5176C16.7255 15.8478 16.5371 15.895 16.3958 16.6502C16.3031 17.148 15.9245 17.9516 15.663 18.5915C15.6054 19.2143 15.5724 19.8194 15.5583 20.188C15.5402 20.6647 14.9319 25.4049 14.7856 25.9176C14.6389 26.431 14.6026 26.816 14.6758 27.2193C14.749 27.6218 14.566 28.0984 14.3469 28.5017C14.127 28.9049 13.7615 29.8579 13.8162 30.4077C13.8709 30.9574 13.9259 31.1592 13.7615 31.2323C13.5967 31.3054 13.0663 31.2876 12.9935 31.4708C12.9203 31.6541 12.6461 31.6541 12.6461 31.6541C12.6461 31.6541 12.5639 32.4718 12.7073 32.6158C12.8511 32.759 13.3583 33.3615 12.7414 33.8102C12.1237 34.2596 11.4727 34.6581 11.321 34.9719C11.1684 35.2849 10.8301 35.4635 10.7033 35.5649C10.5765 35.6664 10.3483 35.8107 10.3313 35.8696C10.3146 35.9292 10.1288 36.0394 9.9509 35.9889C9.9509 35.9889 9.79875 36.0561 9.63791 35.878C9.63791 35.878 9.37636 35.9034 9.32529 35.7343C9.32529 35.7343 9.1054 35.7507 9.08004 35.5816C9.08004 35.5816 8.96991 35.3358 9.29993 35.2344C9.62922 35.1322 10.1538 34.3949 10.1708 34.2763C10.1875 34.1578 10.4331 33.4201 10.6189 33.1154C10.8047 32.8099 11.05 32.0133 11.084 31.2846C11.084 31.2846 11.0083 31.2341 11.0083 31.1581C11.0083 31.0814 11.0127 30.7313 11.0493 30.5971C11.0862 30.4622 11.159 30.0717 11.1105 29.4972C11.0616 28.9235 11.1837 27.9825 11.1105 27.3349C11.0373 26.6873 11.1764 22.1918 11.3713 21.6053C11.5666 21.0189 11.6394 20.8847 11.6274 20.6523C11.6151 20.42 11.6274 19.7114 11.7006 19.675C11.7734 19.6383 11.7857 18.7464 11.7615 18.6482C11.7368 18.5508 11.2126 18.1843 11.1398 17.9276C11.1398 17.9276 11.1518 18.1963 11.1398 18.2941C11.1275 18.3919 11.1156 18.2697 10.9203 18.0617C10.7247 17.8537 10.3592 17.4142 10.3349 17.0964C10.2913 17.0728 9.75115 16.7537 9.75115 16.7537C9.68395 16.7566 9.65064 16.725 9.63435 16.6973Z" fill="#991B21"/>
<path d="M12.1255 11.28C12.0702 12.2724 9.74947 16.7924 9.74947 16.7924C9.66835 17.1924 9.68522 17.5657 9.72614 17.7877C9.82448 18.32 9.33276 19.1184 9.33276 19.1184L9.86827 19.4003C10.5915 18.981 10.2814 17.7236 10.2814 17.7236C10.2214 17.4986 10.2161 17.2821 10.2466 17.0786L10.2523 17.0845C10.2523 17.0845 12.8843 11.8677 12.7569 11.4568C12.7565 11.4575 12.4428 11.4123 12.1255 11.28Z" fill="black"/>
</g>
<defs>
<clipPath id="clip0_202_14998">
<rect width="34" height="37" fill="white"/>
</clipPath>
</defs>
</svg>
