<svg width="37" height="36" viewBox="0 0 37 36" fill="none" xmlns="http://www.w3.org/2000/svg">
<g clip-path="url(#clip0_202_9995)">
<path d="M12.5128 12.1759C12.7991 11.9121 13.0916 11.6623 13.3872 11.4214C12.0138 8.93871 11.2867 6.28483 10.9771 3.75443C9.76559 4.54769 8.58518 5.46035 7.4592 6.49802C6.9656 6.9528 6.49634 7.42207 6.05014 7.90301C6.15701 11.1489 7.14701 14.9113 8.70781 17.343C9.56562 15.4935 10.8407 13.7166 12.5128 12.1759ZM32.3246 4.20754C27.7534 -0.753714 20.2317 -1.13396 13.309 2.39797C13.5119 4.96705 14.2055 7.44402 15.5756 9.88977C20.5387 6.94663 26.1427 6.99683 29.4588 10.5958C33.4828 14.9631 32.6129 22.8977 27.0849 27.9912C21.5568 33.0847 13.8134 33.6734 9.78944 29.3061C7.69567 27.0336 7.02461 23.8672 7.6383 20.6348C5.96725 18.4831 4.44949 14.0556 3.90865 10.5614C-1.02054 17.6268 -1.42329 26.3024 3.49155 31.6366C9.40412 38.0536 20.7666 37.2027 28.8703 29.7359C36.974 22.2691 38.2371 10.6245 32.3246 4.20754Z" fill="#E57E41"/>
</g>
<defs>
<clipPath id="clip0_202_9995">
<rect width="37" height="36" fill="white"/>
</clipPath>
</defs>
</svg>
