<svg width="36" height="36" viewBox="0 0 36 36" fill="none" xmlns="http://www.w3.org/2000/svg">
<g clip-path="url(#clip0_202_15787)">
<path d="M13.681 0.525917L14.086 2.16266C12.4928 2.55445 10.968 3.18497 9.56347 4.03283L8.69722 2.58732C10.245 1.65289 11.9253 0.957897 13.681 0.525917ZM22.321 0.525917L21.916 2.16266C23.5092 2.55445 25.0339 3.18497 26.4385 4.03283L27.3104 2.58732C25.7608 1.65237 24.0786 0.957361 22.321 0.525917ZM2.58847 8.6956C1.65396 10.2433 0.958918 11.9234 0.526904 13.679L2.16378 14.0839C2.55559 12.4909 3.18616 10.9662 4.03409 9.56178L2.58847 8.6956ZM1.68847 17.9986C1.68792 17.1806 1.74903 16.3636 1.87128 15.5548L0.203466 15.3016C-0.06652 17.0895 -0.06652 18.9078 0.203466 20.6956L1.87128 20.4425C1.74903 19.6336 1.68792 18.8167 1.68847 17.9986ZM27.3047 33.4099L26.4385 31.9644C25.0357 32.8118 23.5128 33.4423 21.9216 33.8346L22.3266 35.4713C24.0803 35.0388 25.7587 34.3438 27.3047 33.4099ZM34.3135 17.9986C34.314 18.8167 34.2529 19.6336 34.1307 20.4425L35.7985 20.6956C36.0685 18.9078 36.0685 17.0895 35.7985 15.3016L34.1307 15.5548C34.2529 16.3636 34.314 17.1806 34.3135 17.9986ZM35.4751 22.3183L33.8382 21.9133C33.4464 23.5064 32.8158 25.031 31.9679 26.4355L33.4135 27.3073C34.3485 25.7578 35.0436 24.0758 35.4751 22.3183ZM20.445 34.1299C18.8248 34.3736 17.1772 34.3736 15.5569 34.1299L15.3038 35.7976C17.0918 36.0675 18.9102 36.0675 20.6982 35.7976L20.445 34.1299ZM31.1325 27.6757C30.1596 28.9933 28.9945 30.1574 27.676 31.1292L28.6772 32.4875C30.1317 31.4182 31.4173 30.1365 32.491 28.6853L31.1325 27.6757ZM27.676 4.86808C28.9947 5.84072 30.1598 7.0058 31.1325 8.32437L32.491 7.31195C31.4207 5.86159 30.139 4.57993 28.6885 3.50975L27.676 4.86808ZM4.86941 8.32437C5.84212 7.0058 7.00729 5.84072 8.32597 4.86808L7.31347 3.50975C5.863 4.57993 4.58124 5.86159 3.51097 7.31195L4.86941 8.32437ZM33.4135 8.6956L31.9679 9.56178C32.8153 10.9645 33.4458 12.4872 33.8382 14.0783L35.4751 13.6733C35.0425 11.9197 34.3475 10.2416 33.4135 8.6956ZM15.5569 1.87019C17.1772 1.62644 18.8248 1.62644 20.445 1.87019L20.6982 0.202504C18.9102 -0.0674608 17.0918 -0.0674608 15.3038 0.202504L15.5569 1.87019ZM5.73566 32.9347L2.25097 33.7474L3.06378 30.263L1.42128 29.8777L0.608466 33.3621C0.475362 33.9305 0.645484 34.5272 1.05827 34.94C1.47106 35.3528 2.06788 35.5229 2.63628 35.3898L6.11816 34.5911L5.73566 32.9347ZM1.77284 28.3731L3.41534 28.7556L3.97784 26.3399C3.15796 24.962 2.54664 23.4703 2.16378 21.9133L0.526904 22.3183C0.893852 23.8095 1.45158 25.2472 2.18628 26.5958L1.77284 28.3731ZM9.64785 32.0291L7.23191 32.5916L7.61441 34.2339L9.39191 33.8205C10.7406 34.5552 12.1784 35.1129 13.6697 35.4798L14.0747 33.843C12.5209 33.4556 11.0329 32.8406 9.6591 32.0179L9.64785 32.0291ZM18.001 3.37475C12.6792 3.37751 7.77901 6.27058 5.20622 10.9287C2.63343 15.5869 2.79419 21.2748 5.62597 25.7802L4.21972 31.7788L10.2188 30.3727C15.4807 33.6865 22.2629 33.3108 27.1265 29.436C31.9901 25.5612 33.8714 19.0348 31.8164 13.166C29.7614 7.29723 24.2196 3.36964 18.001 3.37475Z" fill="#3A76F0"/>
</g>
<defs>
<clipPath id="clip0_202_15787">
<rect width="36.001" height="36" fill="white"/>
</clipPath>
</defs>
</svg>
