<svg width="40" height="28" viewBox="0 0 40 28" fill="none" xmlns="http://www.w3.org/2000/svg">
<g clip-path="url(#clip0_202_13181)">
<path d="M0.787109 19.686C0.787109 15.3428 9.56725 11.8276 20.394 11.8276C31.2208 11.8276 40.0009 15.3428 40.0009 19.686C40.0009 24.0292 31.2208 27.5443 20.394 27.5443C9.56725 27.56 0.787109 24.0292 0.787109 19.686Z" fill="url(#paint0_radial_202_13181)"/>
<path d="M0.459099 20.436C0.459099 20.436 -2.75924 14.1868 7.86441 10.6873C12.8325 9.04684 18.6599 7.96885 23.8624 7.78138C29.7991 7.57828 35.0641 8.6094 37.3607 12.109C39.0167 14.6399 38.0169 17.7332 34.8141 20.1392C32.8925 21.5765 28.6743 23.0138 25.8621 23.8262C23.05 24.623 17.5351 25.701 13.02 25.451C8.50496 25.201 2.89629 24.5449 0.459099 20.436Z" fill="url(#paint1_radial_202_13181)"/>
<path d="M0.459099 20.436C0.459099 20.436 -2.75924 14.1868 7.86441 10.6873C12.8325 9.04684 18.6599 7.96885 23.8624 7.78138C29.7991 7.57828 35.0641 8.6094 37.3607 12.109C39.0167 14.6399 38.0169 17.7332 34.8141 20.1392C32.8925 21.5765 28.6743 23.0138 25.8621 23.8262C23.05 24.623 17.5351 25.701 13.02 25.451C8.50496 25.201 2.89629 24.5449 0.459099 20.436ZM13.1138 25.2635C17.5194 25.5135 22.8938 24.4511 25.6278 23.67C28.3618 22.8888 32.5332 21.5453 34.4079 20.1392C37.5325 17.7957 38.798 14.8742 37.0482 12.1871C34.8298 8.75 29.4398 7.68764 23.6593 7.89074C18.5974 8.06259 12.9107 9.26556 8.06751 10.8591C-2.29055 14.2806 0.849675 20.3735 0.849675 20.3735C3.24 24.373 8.70806 25.0136 13.1138 25.2635Z" fill="#CEC7BC"/>
<path d="M8.95803 15.4522C8.03627 14.7804 6.73956 11.4839 7.23949 10.7652C7.73943 10.0466 8.48934 8.54678 8.91116 7.07822C9.33298 5.62527 9.92665 2.53192 11.0984 1.4383C12.2701 0.344692 14.0199 0.344692 16.3321 0.59466C18.6287 0.844628 25.3622 2.06322 27.0026 2.64128C28.6274 3.21933 30.7521 4.31294 30.6272 6.85949C30.5022 9.40605 30.7365 10.6715 30.4397 12.0932C30.1429 13.5149 27.0495 16.2802 23.1594 16.4833C19.2536 16.7176 9.87979 16.1239 8.95803 15.4522Z" fill="url(#paint2_linear_202_13181)"/>
<path d="M19.9724 12.312C19.9724 12.312 23.9875 11.7808 26.4091 9.51546C28.8306 7.25012 26.6903 5.62532 26.0341 5.21913C25.3779 4.81293 23.1751 3.75056 19.6912 3.90679C16.2072 4.06302 12.7702 4.09427 13.0045 6.67207C13.2388 9.23424 16.051 12.312 19.9724 12.312Z" fill="url(#paint3_radial_202_13181)"/>
<path d="M11.0984 4.5629C10.661 4.28169 10.5985 2.75063 12.2233 1.70389C13.8481 0.672769 18.0351 1.29769 20.7535 1.95386C23.4875 2.61002 27.8932 3.53178 27.6589 3.78175C27.4245 4.0161 20.8628 3.21932 17.8632 3.37555C13.7856 3.59427 11.7859 5.00035 11.0984 4.5629Z" fill="url(#paint4_linear_202_13181)"/>
<path d="M30.5648 11.6714C30.518 11.6714 30.5024 11.8121 30.4399 11.8902C29.9243 12.7338 28.3932 14.1711 24.9093 14.1711C21.816 14.1711 16.9259 14.1711 15.4418 14.1711C9.47376 14.1711 7.73961 12.562 7.30216 11.4059C7.27092 11.2965 7.22405 11.1559 7.17718 11.1559C7.13031 11.1559 7.09906 11.4059 7.09906 11.4059L6.646 15.7334C6.646 17.7176 11.786 19.3267 18.3945 19.3267C25.003 19.3267 30.6742 18.3893 30.6742 15.7334C30.6742 15.7334 30.7055 13.0931 30.6898 11.9214C30.6898 11.7964 30.6742 11.6714 30.5648 11.6714Z" fill="url(#paint5_linear_202_13181)"/>
</g>
<defs>
<radialGradient id="paint0_radial_202_13181" cx="0" cy="0" r="1" gradientUnits="userSpaceOnUse" gradientTransform="translate(19.6863 20.11) scale(20.2952 7.45444)">
<stop offset="0.6938" stop-color="#AFADAE"/>
<stop offset="0.968" stop-color="#AFADAE" stop-opacity="0"/>
</radialGradient>
<radialGradient id="paint1_radial_202_13181" cx="0" cy="0" r="1" gradientTransform="matrix(-27.3147 4.68086 -2.54016 -14.8269 27.9115 14.6645)" gradientUnits="userSpaceOnUse">
<stop offset="0.476" stop-color="#F3EFE9"/>
<stop offset="0.5676" stop-color="#EEEAE3"/>
<stop offset="0.6878" stop-color="#E1DBD2"/>
<stop offset="0.8239" stop-color="#CDC5B7"/>
<stop offset="0.9626" stop-color="#B4AA98"/>
</radialGradient>
<linearGradient id="paint2_linear_202_13181" x1="8.38966" y1="7.90303" x2="30.7937" y2="9.59746" gradientUnits="userSpaceOnUse">
<stop offset="0.0938963" stop-color="#D7D0C6"/>
<stop offset="0.2485" stop-color="#CDC7BB"/>
<stop offset="0.4006" stop-color="#C7C2B5"/>
<stop offset="0.5248" stop-color="#CBC6BA"/>
<stop offset="0.6688" stop-color="#D7D1C7"/>
<stop offset="0.7801" stop-color="#E6DFD6"/>
<stop offset="0.8921" stop-color="#E7E3D9"/>
<stop offset="0.9337" stop-color="#E5DFD3"/>
<stop offset="0.9795" stop-color="#DFD5C6"/>
</linearGradient>
<radialGradient id="paint3_radial_202_13181" cx="0" cy="0" r="1" gradientTransform="matrix(0.740543 8.36733 -22.5475 1.99586 17.2108 4.18355)" gradientUnits="userSpaceOnUse">
<stop offset="0.0671074" stop-color="#B2A797"/>
<stop offset="0.2897" stop-color="#C7BDAE"/>
<stop offset="0.4806" stop-color="#D6CEBF"/>
<stop offset="0.6881" stop-color="#E2DCD0"/>
<stop offset="0.9423" stop-color="#F7F5EE"/>
</radialGradient>
<linearGradient id="paint4_linear_202_13181" x1="10.8293" y1="2.89952" x2="27.6684" y2="2.89952" gradientUnits="userSpaceOnUse">
<stop offset="0.0559668" stop-color="#F7F5EE"/>
<stop offset="0.2258" stop-color="#E6E1D6"/>
<stop offset="0.4305" stop-color="#D8D1C3"/>
<stop offset="0.6393" stop-color="#D0C8B9"/>
<stop offset="0.8566" stop-color="#CEC5B5"/>
</linearGradient>
<linearGradient id="paint5_linear_202_13181" x1="6.64128" y1="15.2382" x2="30.686" y2="15.2382" gradientUnits="userSpaceOnUse">
<stop offset="0.0184049" stop-color="#262222"/>
<stop offset="0.095878" stop-color="#2F2C2C"/>
<stop offset="0.2998" stop-color="#424143"/>
<stop offset="0.4017" stop-color="#4A4A4C"/>
<stop offset="0.514" stop-color="#4A4A4C"/>
<stop offset="0.7797" stop-color="#383536"/>
<stop offset="1" stop-color="#262222"/>
</linearGradient>
<clipPath id="clip0_202_13181">
<rect width="40.001" height="28" fill="white"/>
</clipPath>
</defs>
</svg>
