<svg width="36" height="37" viewBox="0 0 36 37" fill="none" xmlns="http://www.w3.org/2000/svg">
<g clip-path="url(#clip0_202_10383)">
<path d="M35.7972 18.0189C35.7972 27.8653 27.815 35.8474 17.9687 35.8474C8.12223 35.8474 0.140137 27.8653 0.140137 18.0189C0.140137 8.17252 8.12223 0.19043 17.9687 0.19043C27.815 0.19043 35.7972 8.17252 35.7972 18.0189Z" fill="url(#paint0_linear_202_10383)"/>
<path d="M22.4621 9.15939C22.4621 6.74926 20.4707 4.80896 17.9971 4.80896C15.5235 4.80896 13.5322 6.74926 13.5322 9.15939V18.3182C13.5322 20.7283 15.5235 22.6686 17.9971 22.6686C20.4707 22.6686 22.4621 20.7283 22.4621 18.3182V9.15939Z" fill="white"/>
<path d="M17.733 24.5564C14.2079 24.4262 11.4011 21.538 11.4011 17.9805V14.184H11.8775V17.9507C11.8775 21.331 14.6016 24.0548 17.9816 24.0548C21.3616 24.0548 24.0857 21.331 24.0857 17.9507V14.184H24.5472V17.9805C24.5472 21.521 21.7813 24.3985 18.2808 24.5543V29.0746H22.3351V29.5774H13.577V29.0746H17.733V24.5564Z" fill="white"/>
<path d="M18 0.0415649C8.08124 0.0415649 0.0412598 8.08279 0.0412598 18.0016C0.0412598 27.9203 8.08124 35.9616 18 35.9616C27.9188 35.9616 35.96 27.9203 35.96 18.0016C35.96 8.08279 27.9188 0.0415649 18 0.0415649ZM18 0.688333C27.562 0.688333 35.3145 8.43958 35.3145 18.0016C35.3145 27.5636 27.562 35.3148 18 35.3148C8.43803 35.3148 0.686781 27.5636 0.686781 18.0016C0.686822 8.43958 8.43807 0.688333 18 0.688333Z" fill="white"/>
<path fill-rule="evenodd" clip-rule="evenodd" d="M0.0012207 18.0016C0.0012207 8.06072 8.0591 0.00158691 18 0.00158691C27.9409 0.00158691 36 8.06071 36 18.0016C36 27.9425 27.9408 36.0016 18 36.0016C8.0591 36.0016 0.0012207 27.9425 0.0012207 18.0016ZM18 0.0815787C8.10329 0.0815787 0.0812125 8.10489 0.0812125 18.0016C0.0812125 27.8983 8.10329 35.9216 18 35.9216C27.8967 35.9216 35.92 27.8983 35.92 18.0016C35.92 8.10489 27.8967 0.0815787 18 0.0815787ZM18 0.728346C8.46011 0.728346 0.726774 8.46168 0.726734 18.0016C0.726734 27.5415 8.46007 35.2748 18 35.2748C27.5399 35.2748 35.2745 27.5415 35.2745 18.0016C35.2745 8.46169 27.5399 0.728346 18 0.728346ZM0.646742 18.0016C0.646783 8.4175 8.41593 0.648354 18 0.648354C27.5841 0.648354 35.3545 8.4175 35.3545 18.0016C35.3545 27.5857 27.5841 35.3548 18 35.3548C8.41589 35.3548 0.646742 27.5857 0.646742 18.0016Z" fill="#959698"/>
</g>
<defs>
<linearGradient id="paint0_linear_202_10383" x1="18.0979" y1="0.948221" x2="17.8394" y2="35.4527" gradientUnits="userSpaceOnUse">
<stop stop-color="#B4B3B4"/>
<stop offset="1" stop-color="#6B6F71"/>
</linearGradient>
<clipPath id="clip0_202_10383">
<rect width="36" height="37" fill="white"/>
</clipPath>
</defs>
</svg>
