<svg width="32" height="33" viewBox="0 0 32 33" fill="none" xmlns="http://www.w3.org/2000/svg">
<path d="M18.7874 22.1969C17.7 22.8059 16.5002 23.186 15.2575 23.3479C18.0058 22.3475 20.4583 20.2476 21.4996 17.8506C22.3775 15.8271 22.229 13.8015 21.0713 11.9739L24.8742 9.51405C25.9647 11.0227 26.6564 12.7825 26.8851 14.6299H23.1678L23.1565 14.9063C23.0246 18.1016 21.4735 20.6906 18.7874 22.1969Z" fill="#EE3524"/>
<path d="M23.7132 15.2067H26.9413C26.9594 15.4704 26.9728 15.7361 26.9728 16.0051C26.9743 17.7419 26.5664 19.4547 25.7823 21.0045L23.6222 19.6246L23.4736 19.887C21.7204 22.9919 18.6034 24.8435 15.131 24.8435H15.1016C13.1784 24.8375 11.3221 24.2694 9.67055 23.2308C11.018 23.7468 12.4482 24.0132 13.891 24.0171C15.7132 24.0171 17.4979 23.5795 19.0658 22.7008C21.8128 21.1604 23.4957 18.4389 23.7132 15.2067Z" fill="#EE3524"/>
<path d="M15.131 25.4197H15.1002C11.6406 25.4097 8.38975 23.6839 6.07641 20.712C7.83433 24.4608 11.6212 27.0619 16.0016 27.0619C20.0622 27.0619 23.6115 24.8255 25.5086 21.5124L23.8196 20.4337C21.9379 23.5634 18.7138 25.4197 15.131 25.4197Z" fill="#EE3524"/>
<path fill-rule="evenodd" clip-rule="evenodd" d="M0.124756 16.0044C0.124756 7.16792 7.23274 0.00439453 16.0016 0.00439453C24.7705 0.00439453 31.8778 7.16726 31.8778 16.0044C31.8778 24.8415 24.7698 32.0044 16.0016 32.0044C7.23274 32.0044 0.124756 24.8409 0.124756 16.0044ZM4.457 16.0044C4.457 22.4298 9.62572 27.6387 16.0016 27.6387C22.3769 27.6387 27.5449 22.4298 27.5449 16.0044C27.5449 9.57964 22.3769 4.37077 16.0016 4.37077C9.62572 4.37077 4.457 9.57964 4.457 16.0044Z" fill="#EE3524"/>
</svg>
