<svg width="32" height="37" viewBox="0 0 32 37" fill="none" xmlns="http://www.w3.org/2000/svg">
<g clip-path="url(#clip0_202_12599)">
<path fill-rule="evenodd" clip-rule="evenodd" d="M30.2949 20.2094L27.6399 17.6714L19.2474 9.96069L15.6294 13.3964C15.2986 13.8464 15.3211 14.4539 15.6969 14.8747L19.0044 17.7232L18.9931 17.7277L22.5481 21.1252C22.9689 21.5932 22.9576 22.2862 22.5166 22.7362L12.9316 31.8442L17.2899 36.0044L30.2949 23.6474C31.2916 22.6979 31.2939 21.1589 30.2949 20.2049V20.2094Z" fill="#07508B"/>
<path fill-rule="evenodd" clip-rule="evenodd" d="M1.70869 15.8039L4.36369 18.3351L12.7607 26.0459L16.3764 22.6101C16.7049 22.1646 16.6824 21.5526 16.3089 21.1319L13.0014 18.2789L13.0127 18.2721L9.45544 14.8769C9.03919 14.4111 9.05044 13.7159 9.48919 13.2681L19.0742 4.15564L14.7159 0.00439453L1.71094 12.3614C0.714191 13.3109 0.714191 14.8521 1.71094 15.8039H1.70869Z" fill="#E57B25"/>
</g>
<defs>
<clipPath id="clip0_202_12599">
<rect width="32" height="37" fill="white"/>
</clipPath>
</defs>
</svg>
