<svg width="32" height="32" viewBox="0 0 32 32" fill="none" xmlns="http://www.w3.org/2000/svg">
<path fill-rule="evenodd" clip-rule="evenodd" d="M23.1141 10.5853C24.0524 10.5853 24.8131 9.82463 24.8131 8.88635C24.8131 7.94806 24.0524 7.18738 23.1141 7.18738C22.1758 7.18738 21.4151 7.94806 21.4151 8.88635C21.4151 9.82463 22.1758 10.5853 23.1141 10.5853ZM11.0781 10.0667L16.2901 4.85469C16.6877 4.4571 17.2399 4.21419 17.8473 4.21419H25.5776C25.8679 4.21317 26.1556 4.26961 26.424 4.38024C26.6924 4.49088 26.9363 4.65353 27.1416 4.85882C27.3469 5.06411 27.5096 5.308 27.6202 5.57642C27.7309 5.84484 27.7873 6.1325 27.7863 6.42283V14.1532C27.7863 14.7606 27.5433 15.3128 27.1347 15.7103L21.9307 20.9193L11.0781 10.0667Z" fill="#4285F4"/>
<path fill-rule="evenodd" clip-rule="evenodd" d="M21.93 20.9195L15.5072 27.3484C15.0985 27.746 14.5464 28 13.939 28C13.3317 28 12.7795 27.746 12.3819 27.3484L4.65152 19.6181C4.24292 19.2206 4 18.6684 4 18.061C4 17.4426 4.25398 16.8904 4.65152 16.4929L11.0775 10.0669L21.93 20.9195Z" fill="#34A853"/>
<path fill-rule="evenodd" clip-rule="evenodd" d="M8.40288 23.3694L4.65152 19.6181C4.24292 19.2206 4 18.6684 4 18.061C4 17.4426 4.25398 16.8904 4.65152 16.4929L11.0775 10.0669L16.3914 15.3809L8.40288 23.3694Z" fill="#FBBC05"/>
<path fill-rule="evenodd" clip-rule="evenodd" d="M27.0236 4.74916C26.6219 4.40233 26.1083 4.21234 25.5776 4.21419H17.8473C17.2399 4.21419 16.6877 4.4571 16.2901 4.85469L11.0781 10.0667L16.392 15.3807L21.8043 9.96847C21.5522 9.66426 21.4146 9.28142 21.4152 8.88635C21.4152 7.94806 22.1758 7.18738 23.1141 7.18738C23.5092 7.18676 23.892 7.32443 24.1963 7.57651L27.0236 4.74916Z" fill="#EA4335"/>
<path d="M16.3884 19.4343C18.2943 19.4343 19.8394 17.8892 19.8394 15.9833C19.8394 14.0773 18.2943 12.5322 16.3884 12.5322C14.4824 12.5322 12.9373 14.0773 12.9373 15.9833C12.9373 17.8892 14.4824 19.4343 16.3884 19.4343Z" fill="#4285F4"/>
<path fill-rule="evenodd" clip-rule="evenodd" d="M21.0898 14.9681H16.4999V16.9374H19.1419C18.8956 18.1884 17.8658 18.9066 16.4999 18.9066C14.8879 18.9066 13.5893 17.5629 13.5893 15.8948C13.5893 14.2267 14.8879 12.883 16.4999 12.883C17.1941 12.883 17.8209 13.1378 18.3135 13.5549L19.7465 12.0721C18.8733 11.2844 17.7538 10.7979 16.4999 10.7979C13.7684 10.7979 11.5742 13.0683 11.5742 15.8948C11.5742 18.7213 13.7684 20.9917 16.4999 20.9917C18.9628 20.9917 21.2018 19.1383 21.2018 15.8948C21.2018 15.5936 21.157 15.2693 21.0898 14.9681Z" fill="white"/>
</svg>
