<svg width="32" height="32" viewBox="0 0 32 32" fill="none" xmlns="http://www.w3.org/2000/svg">
<path d="M22.385 15.341C22.5708 15.3202 22.7493 15.319 22.913 15.341C23.008 15.1364 23.024 14.7834 22.9387 14.3992C22.8124 13.8278 22.6407 13.4824 22.2863 13.5361C21.9319 13.5898 21.919 14.0035 22.046 14.5749C22.1165 14.8961 22.2434 15.1711 22.385 15.341Z" fill="black"/>
<path d="M19.3448 15.793C19.5981 15.8976 19.7538 15.9675 19.8151 15.9068C19.8544 15.8687 19.8427 15.7965 19.782 15.7035C19.6569 15.5111 19.3994 15.3158 19.1266 15.2066C18.5686 14.9801 17.9027 15.0552 17.3889 15.403C17.219 15.5203 17.0584 15.6821 17.0817 15.7809C17.089 15.8127 17.1142 15.8369 17.1743 15.8444C17.3141 15.8595 17.8028 15.6266 18.365 15.5943C18.7623 15.5712 19.0916 15.6885 19.3448 15.793Z" fill="black"/>
<path d="M18.8353 16.0667C18.5054 16.1158 18.3233 16.2181 18.2062 16.314C18.1063 16.396 18.045 16.4867 18.0456 16.5509C18.0456 16.5815 18.0597 16.5988 18.0707 16.6075C18.086 16.6202 18.1038 16.6271 18.1253 16.6271C18.2001 16.6271 18.3669 16.5642 18.3669 16.5642C18.8261 16.4093 19.129 16.4278 19.4295 16.4602C19.5957 16.4775 19.6735 16.4873 19.7103 16.4336C19.7213 16.418 19.7342 16.3851 19.7011 16.3342C19.6232 16.2152 19.2897 16.0159 18.8353 16.0667Z" fill="black"/>
<path d="M21.3585 17.0733C21.5823 17.1773 21.8294 17.1363 21.9098 16.9826C21.9901 16.8284 21.8736 16.6198 21.6492 16.5158C21.4248 16.4118 21.1783 16.4528 21.098 16.6065C21.0182 16.7608 21.1347 16.9699 21.3585 17.0733Z" fill="black"/>
<path d="M22.7998 15.8871C22.6177 15.8843 22.4669 16.0726 22.4626 16.3077C22.4583 16.5429 22.6024 16.7359 22.7845 16.7387C22.9666 16.7416 23.1175 16.5533 23.1218 16.3181C23.126 16.083 22.982 15.89 22.7998 15.8871Z" fill="black"/>
<path d="M10.5703 20.1292C10.525 20.0755 10.4508 20.0922 10.3784 20.1078C10.3281 20.1188 10.2711 20.1315 10.2086 20.1304C10.0749 20.128 9.96148 20.0737 9.89771 19.9819C9.81493 19.8617 9.81984 19.6832 9.9112 19.4781C9.92346 19.4503 9.93818 19.4197 9.95412 19.3862C10.1001 19.0777 10.3447 18.5606 10.07 18.0684C9.86337 17.6981 9.52675 17.467 9.12145 17.4184C8.73271 17.3722 8.33232 17.508 8.07724 17.7732C7.6744 18.192 7.61124 18.7617 7.68911 18.9627C7.71793 19.0367 7.76208 19.0569 7.79458 19.061C7.86325 19.0696 7.96442 19.0228 8.02819 18.8616C8.03248 18.8501 8.03861 18.8322 8.04659 18.8091C8.07479 18.7241 8.12752 18.5658 8.21398 18.4387C8.31821 18.2856 8.48009 18.1799 8.67017 18.1418C8.86393 18.1025 9.06198 18.1377 9.22753 18.24C9.50958 18.4139 9.61811 18.7397 9.49793 19.0506C9.43539 19.2112 9.33422 19.5185 9.3569 19.771C9.40228 20.2823 9.73584 20.4874 10.0357 20.5094C10.3269 20.5198 10.5311 20.3655 10.5826 20.2528C10.612 20.187 10.5869 20.1465 10.5703 20.1292Z" fill="black"/>
<path d="M27.0621 19.1938C27.0517 19.1569 26.9835 18.9079 26.8899 18.608C26.7964 18.3082 26.6993 18.0967 26.6993 18.0967C27.0748 17.5346 27.0812 17.0319 27.0315 16.7477C26.9783 16.3947 26.8316 16.0943 26.5352 15.7834C26.2394 15.4726 25.6339 15.1543 24.7829 14.9157C24.6859 14.8885 24.3646 14.8001 24.3363 14.7914C24.334 14.773 24.3126 13.7388 24.2936 13.2951C24.2797 12.9744 24.252 12.473 24.0966 11.9796C23.9111 11.3117 23.5887 10.727 23.1855 10.3532C24.2976 9.20062 24.9915 7.93074 24.9897 6.84169C24.9863 4.74679 22.4142 4.11301 19.2435 5.42564C19.24 5.42679 18.5768 5.70816 18.5716 5.71104C18.5687 5.70816 17.3572 4.51974 17.3393 4.50356C13.7249 1.35081 2.42363 13.9121 6.03684 16.9632L6.82662 17.6322C6.62152 18.1626 6.54121 18.7709 6.60708 19.4244C6.69143 20.2638 7.12474 21.0692 7.82669 21.6909C8.49283 22.2813 9.36927 22.6551 10.2197 22.6545C11.6259 25.8945 14.8382 27.8825 18.6057 27.9946C22.6464 28.1148 26.0384 26.2186 27.4596 22.8128C27.5526 22.5736 27.9472 21.4967 27.9472 20.5458C27.9461 19.5902 27.4059 19.1938 27.0621 19.1938ZM10.53 21.744C10.4075 21.7648 10.2821 21.7735 10.1556 21.77C8.93539 21.7371 7.61697 20.6388 7.48583 19.3354C7.34081 17.8951 8.07686 16.787 9.37967 16.5241C9.53566 16.4929 9.72343 16.4744 9.9268 16.4854C10.6571 16.5252 11.7328 17.0862 11.9784 18.6762C12.1962 20.0847 11.8501 21.5193 10.53 21.744ZM9.16706 15.6633C8.35591 15.821 7.64124 16.2809 7.20389 16.9158C6.94275 16.698 6.45571 16.2762 6.36962 16.1116C5.67171 14.7862 7.13109 12.2095 8.15081 10.7542C10.6709 7.15829 14.6175 4.43654 16.4449 4.93051C16.7419 5.01486 17.7258 6.15533 17.7258 6.15533C17.7258 6.15533 15.8995 7.16869 14.2056 8.58127C11.9235 10.3376 10.1995 12.8918 9.16706 15.6633ZM21.9774 21.2055C22.004 21.1946 22.0225 21.164 22.019 21.1339C22.0149 21.0969 21.982 21.0698 21.945 21.0738C21.945 21.0738 20.0333 21.3569 18.2272 20.6954C18.4237 20.0558 18.9471 20.2869 19.7375 20.3505C21.1628 20.4354 22.4396 20.2274 23.3836 19.9565C24.2017 19.7219 25.2757 19.2591 26.1106 18.6005C26.3919 19.2187 26.4913 19.8993 26.4913 19.8993C26.4913 19.8993 26.7091 19.8606 26.8911 19.9721C27.0633 20.0778 27.1892 20.2979 27.1031 20.867C26.9275 21.93 26.4757 22.7926 25.7166 23.5864C25.2544 24.0839 24.6928 24.5166 24.0509 24.8315C23.71 25.0106 23.3466 25.1654 22.963 25.2908C20.1003 26.2256 17.1694 25.1978 16.2248 22.9902C16.1491 22.8244 16.0856 22.6505 16.0353 22.4691C15.6326 21.0143 15.9746 19.269 17.0429 18.1707V18.1701C17.1087 18.1002 17.1758 18.0176 17.1758 17.9141C17.1758 17.8275 17.1209 17.7362 17.0729 17.6709C16.6991 17.129 15.4044 16.2052 15.6644 14.4171C15.851 13.1327 16.9741 12.228 18.0216 12.2817C18.11 12.2863 18.1984 12.2915 18.2868 12.2967C18.7409 12.3233 19.1366 12.3817 19.5098 12.3973C20.135 12.4244 20.6971 12.3331 21.3632 11.7785C21.588 11.5913 21.7682 11.429 22.0727 11.3776C22.1045 11.3724 22.1842 11.3435 22.3437 11.351C22.506 11.3596 22.6609 11.4041 22.8001 11.4966C23.3339 11.8519 23.4096 12.7121 23.4373 13.3419C23.4529 13.7012 23.4963 14.5707 23.5113 14.8197C23.5454 15.3906 23.695 15.4709 23.9989 15.5708C24.1693 15.6269 24.3282 15.669 24.5616 15.7343C25.2682 15.9325 25.6871 16.1341 25.9517 16.3924C26.1094 16.5541 26.1822 16.7257 26.2053 16.8892C26.2885 17.497 25.7333 18.2481 24.2635 18.9304C22.6568 19.6763 20.7069 19.8652 19.3602 19.715C19.2568 19.7034 18.8893 19.6618 18.8882 19.6618C17.8107 19.5168 17.196 20.9092 17.8431 21.863C18.2596 22.4777 19.3949 22.8781 20.5307 22.8781C23.1346 22.8787 25.1365 21.7665 25.8806 20.8063C25.9032 20.7774 25.9049 20.7746 25.9401 20.7214C25.9765 20.6659 25.9465 20.6359 25.9009 20.6671C25.2925 21.0831 22.591 22.7354 19.7005 22.2386C19.7005 22.2386 19.3492 22.1808 19.0286 22.056C18.7738 21.9572 18.2405 21.7117 18.1758 21.1645C20.5088 21.8873 21.9774 21.2055 21.9774 21.2055ZM18.2827 20.7694C18.2827 20.7699 18.2827 20.7699 18.2827 20.7694C18.2833 20.7705 18.2833 20.7705 18.2833 20.7711C18.2833 20.7705 18.2827 20.7699 18.2827 20.7694ZM13.8208 10.7397C14.7169 9.70441 15.8198 8.80428 16.8072 8.29934C16.8412 8.282 16.8776 8.31898 16.8592 8.35249C16.7806 8.49461 16.6298 8.79851 16.5818 9.0296C16.5743 9.06542 16.6136 9.09258 16.6437 9.07178C17.2584 8.65292 18.3272 8.20401 19.2655 8.14623C19.3059 8.14392 19.325 8.19534 19.2932 8.22018C19.1505 8.32938 18.9945 8.48075 18.8807 8.63385C18.861 8.65985 18.8795 8.6974 18.9119 8.6974C19.5705 8.70202 20.4989 8.93254 21.1038 9.27168C21.1449 9.29479 21.1154 9.37394 21.0698 9.36354C20.154 9.15382 18.6559 8.99436 17.0989 9.37394C15.7094 9.71307 14.6487 10.2365 13.8751 10.7992C13.8364 10.8281 13.7896 10.7761 13.8208 10.7397Z" fill="black"/>
</svg>
