<svg width="32" height="32" viewBox="0 0 32 32" fill="none" xmlns="http://www.w3.org/2000/svg">
<path d="M4 20.9164C4 21.2322 4.10797 21.471 4.32388 21.6329C4.53979 21.7948 4.77059 21.852 5.01629 21.8046C5.24708 21.7573 5.40902 21.6704 5.50211 21.5441C5.59517 21.4178 5.64172 21.2085 5.64172 20.9164V17.4817C5.64172 17.2369 5.56169 17.0297 5.4016 16.8599C5.24155 16.6902 5.04611 16.6053 4.81529 16.6053C4.59193 16.6053 4.40021 16.6902 4.24013 16.8599C4.08005 17.0297 4 17.2369 4 17.4817V20.9164ZM6.56864 22.385C6.56864 22.614 6.64496 22.7857 6.79758 22.9002C6.95022 23.0147 7.14567 23.0719 7.3839 23.0719C7.62959 23.0719 7.82874 23.0147 7.98138 22.9002C8.134 22.7857 8.21033 22.614 8.21033 22.385V14.3787C8.21033 14.1418 8.13027 13.9385 7.97022 13.7688C7.81014 13.599 7.6147 13.5141 7.3839 13.5141C7.16054 13.5141 6.9688 13.599 6.80875 13.7688C6.64866 13.9385 6.56864 14.1418 6.56864 14.3787V22.385ZM9.12611 22.764C9.12611 22.993 9.20428 23.1647 9.36063 23.2792C9.51698 23.3937 9.718 23.4509 9.96373 23.4509C10.202 23.4509 10.3974 23.3937 10.55 23.2792C10.7027 23.1647 10.779 22.993 10.779 22.764V15.4565C10.779 15.2117 10.6989 15.0025 10.5389 14.8287C10.3788 14.6551 10.1871 14.5682 9.96373 14.5682C9.7329 14.5682 9.53561 14.6551 9.37182 14.8287C9.20803 15.0025 9.12613 15.2117 9.12613 15.4565V22.764H9.12611ZM11.6947 22.7995C11.6947 23.2338 11.9702 23.4509 12.5212 23.4509C13.0721 23.4509 13.3476 23.2338 13.3476 22.7995V10.9559C13.3476 10.2926 13.1577 9.91761 12.778 9.83075C12.5323 9.76757 12.2903 9.84259 12.0521 10.0558C11.8138 10.269 11.6947 10.569 11.6947 10.9559V22.7995H11.6947ZM14.3081 23.143V10.2571C14.3081 9.84655 14.4235 9.60178 14.6543 9.52281C15.1531 9.39648 15.6482 9.33331 16.1396 9.33331C17.2787 9.33331 18.3397 9.61756 19.3225 10.1861C20.3053 10.7546 21.1001 11.5303 21.7068 12.5133C22.3136 13.4964 22.6654 14.58 22.7622 15.7644C23.2164 15.5591 23.7003 15.4565 24.214 15.4565C25.2564 15.4565 26.148 15.8473 26.8888 16.629C27.6296 17.4107 28 18.3503 28 19.4478C28 20.5532 27.6296 21.4968 26.8888 22.2784C26.148 23.0601 25.2601 23.451 24.2252 23.451L14.5091 23.4391C14.442 23.4154 14.3918 23.372 14.3583 23.3088C14.3248 23.2457 14.3081 23.1904 14.3081 23.143Z" fill="url(#paint0_linear_6_2811)"/>
<defs>
<linearGradient id="paint0_linear_6_2811" x1="16.0257" y1="9.71745" x2="16.0257" y2="23.1692" gradientUnits="userSpaceOnUse">
<stop stop-color="#FF8800"/>
<stop offset="1" stop-color="#FF3300"/>
</linearGradient>
</defs>
</svg>
