<svg width="32" height="32" viewBox="0 0 32 32" fill="none" xmlns="http://www.w3.org/2000/svg">
<path d="M25.7972 9.61999C23.4301 8.25352 20.4031 9.0655 19.0351 11.4327L15.5868 17.4062C14.589 19.1312 15.8735 19.7339 17.3058 20.5927L20.624 22.5078C21.7476 23.156 23.1828 22.7712 23.831 21.649L27.3759 15.5101C28.5668 13.4473 27.8601 10.8109 25.7972 9.61999Z" fill="#EA4335"/>
<path d="M21.8959 12.0924L18.5778 10.1773C16.7461 9.16054 15.7088 9.09324 14.9567 10.2885L10.0629 18.7639C8.69645 21.1296 9.5099 24.1552 11.8756 25.5187C13.9385 26.7096 16.5749 26.003 17.7658 23.9401L22.7533 15.3009C23.4043 14.1773 23.0195 12.7406 21.8959 12.0924Z" fill="#FBBC04"/>
<path d="M22.534 7.73563L20.2034 6.38964C17.6256 4.90173 14.3294 5.78394 12.8415 8.3618L8.40411 16.0471C7.74867 17.181 8.13784 18.6323 9.27171 19.2863L11.8818 20.7932C13.1707 21.5379 14.818 21.096 15.5627 19.8071L20.6321 11.0275C21.6826 9.2089 24.0073 8.58565 25.8259 9.63611L22.534 7.73563Z" fill="#34A853"/>
<path d="M13.4719 10.5606L10.9525 9.10932C9.82891 8.46266 8.3937 8.84598 7.74557 9.96666L4.72295 15.1897C3.23504 17.7602 4.11725 21.0491 6.69512 22.5327L8.61315 23.6372L10.9394 24.9774L11.9489 25.5582C10.1566 24.3585 9.58752 21.9547 10.6833 20.0616L11.466 18.7097L14.3321 13.7574C14.9788 12.6396 14.594 11.2073 13.4719 10.5606Z" fill="#4285F4"/>
</svg>
