<svg width="32" height="32" viewBox="0 0 32 32" fill="none" xmlns="http://www.w3.org/2000/svg">
<path d="M16 28C22.6274 28 28 22.6274 28 16C28 9.37258 22.6274 4 16 4C9.37258 4 4 9.37258 4 16C4 22.6274 9.37258 28 16 28Z" fill="#4353FF"/>
<path d="M19.5244 14.5747L18.4369 18.0022C18.4369 17.7397 17.6869 12.0547 17.6869 12.0547C15.9619 12.0547 15.0469 13.2772 14.5669 14.5747L13.2394 18.0097C13.2394 17.7622 13.0519 14.6047 13.0519 14.6047C12.9879 13.9212 12.6754 13.2848 12.1737 12.8163C11.6719 12.3477 11.0157 12.0794 10.3294 12.0622L11.7394 20.6722C13.5394 20.6722 14.5144 19.4497 15.0169 18.1522L16.1419 15.2272C16.1419 15.3472 16.8919 20.6722 16.8919 20.6722C17.628 20.6712 18.3446 20.4359 18.9379 20.0004C19.5313 19.5648 19.9705 18.9516 20.1919 18.2497L22.7419 12.0547C20.9419 12.0547 19.9969 13.2772 19.5169 14.5747H19.5244Z" fill="white"/>
</svg>
