<svg width="32" height="32" viewBox="0 0 32 32" fill="none" xmlns="http://www.w3.org/2000/svg">
<path d="M16.677 11.8658C18.5777 11.8658 20.1184 10.325 20.1184 8.42433C20.1184 6.52367 18.5777 4.98288 16.677 4.98288C14.7763 4.98288 13.2356 6.52367 13.2356 8.42433C13.2356 10.325 14.7763 11.8658 16.677 11.8658Z" fill="#7B83EB"/>
<path d="M24.4197 12.1114C25.8451 12.1114 27.0006 10.9559 27.0006 9.53049C27.0006 8.10509 25.8451 6.94958 24.4197 6.94958C22.9943 6.94958 21.8388 8.10509 21.8388 9.53049C21.8388 10.9559 22.9943 12.1114 24.4197 12.1114Z" fill="#5059C9"/>
<path d="M26.6313 12.849H20.8346C20.7094 12.849 20.5894 12.8987 20.5008 12.9872C20.4123 13.0757 20.3626 13.1957 20.3626 13.3209V19.3012C20.3466 20.1667 20.6285 21.0115 21.1611 21.6939C21.6936 22.3764 22.4445 22.8552 23.2879 23.0502C23.8251 23.1629 24.3806 23.1544 24.9141 23.0253C25.4476 22.8962 25.9456 22.6498 26.3718 22.3039C26.798 21.9581 27.1418 21.5215 27.378 21.0261C27.6142 20.5306 27.737 19.9887 27.7374 19.4398V13.9551C27.7374 13.6617 27.6208 13.3804 27.4134 13.1729C27.206 12.9655 26.9246 12.849 26.6313 12.849Z" fill="#5059C9"/>
<path d="M22.5758 13.9551V20.9604C22.5765 22.2586 22.1487 23.5207 21.3587 24.551C20.5688 25.5812 19.4608 26.3219 18.2069 26.6581C16.953 26.9942 15.6231 26.9071 14.4237 26.4102C13.2244 25.9133 12.2225 25.0344 11.5737 23.91C11.4318 23.6741 11.3086 23.4276 11.205 23.1726C11.1085 22.9321 11.0272 22.6858 10.9617 22.4352C10.8401 21.953 10.7782 21.4576 10.7773 20.9604V13.9551C10.7772 13.8098 10.8056 13.6658 10.8611 13.5316C10.9167 13.3973 10.9981 13.2753 11.1009 13.1725C11.2036 13.0698 11.3256 12.9883 11.4599 12.9328C11.5942 12.8773 11.7381 12.8488 11.8834 12.849H21.4697C21.615 12.8488 21.7589 12.8773 21.8932 12.9328C22.0275 12.9883 22.1495 13.0698 22.2522 13.1725C22.355 13.2753 22.4364 13.3973 22.492 13.5316C22.5475 13.6658 22.576 13.8098 22.5758 13.9551Z" fill="#7B83EB"/>
<path d="M5.12358 9.89908H14.9561C15.2168 9.89908 15.4668 10.0026 15.6511 10.187C15.8355 10.3713 15.939 10.6213 15.939 10.882V20.7145C15.939 20.9752 15.8355 21.2252 15.6511 21.4096C15.4668 21.5939 15.2168 21.6975 14.9561 21.6975H5.12358C4.86288 21.6975 4.61287 21.5939 4.42853 21.4096C4.24419 21.2252 4.14062 20.9752 4.14062 20.7145V10.882C4.14062 10.6213 4.24419 10.3713 4.42853 10.187C4.61287 10.0026 4.86288 9.89908 5.12358 9.89908Z" fill="#4B53BC"/>
<path d="M12.9752 13.5678H10.7704V19.4817H9.32363V13.5678H7.10553V12.1151H12.9752V13.5678Z" fill="white"/>
</svg>
