<svg width="32" height="32" viewBox="0 0 32 32" fill="none" xmlns="http://www.w3.org/2000/svg">
<path d="M17.8607 5.33666C17.0969 5.09571 16.2786 4.96387 15.433 4.96387C12.9644 4.96387 10.7549 6.07771 9.27734 7.83257L13.0735 11.0241L17.8607 5.33666Z" fill="#1A73E8"/>
<path d="M9.27689 7.8327C8.05983 9.27825 7.39314 11.1076 7.39473 12.9973C7.39473 14.5066 7.69479 15.7341 8.19033 16.8298L13.073 11.0242L9.27689 7.8327Z" fill="#EA4335"/>
<path d="M15.4331 9.92869C16.0191 9.92923 16.5928 10.0972 17.0866 10.4129C17.5804 10.7285 17.9736 11.1787 18.2201 11.7104C18.4666 12.2421 18.5561 12.8331 18.4779 13.4139C18.3998 13.9947 18.1573 14.5411 17.779 14.9887L22.5617 9.3013C21.58 7.40993 19.8875 5.98567 17.8563 5.34149L13.0781 11.0289C13.366 10.6841 13.7262 10.4068 14.1332 10.2167C14.5401 10.0266 14.9839 9.92826 15.4331 9.92869Z" fill="#4285F4"/>
<path d="M15.4326 16.0751C13.7368 16.0751 12.3593 14.6976 12.3593 13.0018C12.3573 12.2798 12.6118 11.5805 13.0776 11.0287L8.19032 16.8344C9.02684 18.6847 10.4135 20.1713 11.841 22.0444L17.7784 14.9886C17.49 15.3294 17.1306 15.6032 16.7255 15.7908C16.3203 15.9785 15.8791 16.0755 15.4326 16.0751Z" fill="#FBBC04"/>
<path d="M17.6597 23.9674C20.342 19.7757 23.4653 17.8708 23.4653 12.9972C23.4653 11.6606 23.138 10.4013 22.5606 9.29199L11.845 22.0443C12.2997 22.6399 12.7588 23.2718 13.2044 23.9719C14.832 26.4906 14.3819 27.9999 15.4321 27.9999C16.4823 27.9999 16.0322 26.486 17.6597 23.9674Z" fill="#34A853"/>
</svg>
