<svg width="32" height="32" viewBox="0 0 32 32" fill="none" xmlns="http://www.w3.org/2000/svg">
<path d="M15.502 4.20204C15.4188 3.89728 15.1693 3.67505 14.8366 3.56458C13.7833 3.28712 9.67975 4.45157 8.93118 5.25408C8.68165 5.5036 8.59848 5.8389 8.68165 6.11377C8.79277 6.36329 13.8664 14.4592 13.8664 14.4592C14.615 15.6789 15.2245 15.5126 15.4188 15.4294C15.6138 15.3741 16.2226 15.1799 16.1674 13.7399C16.0563 12.0491 15.5572 4.56268 15.502 4.20204ZM13.3115 19.3951C13.7274 19.2847 14.0049 18.8961 14.0328 18.425C14.0601 17.9259 13.8106 17.4821 13.3947 17.3158L12.2322 16.8447C8.26837 15.1812 8.10137 15.1259 7.90708 15.1259C7.60232 15.098 7.32226 15.2643 7.13121 15.5691C6.74133 16.2072 6.57628 18.2586 6.71534 19.6174C6.77057 20.0605 6.85375 20.4491 6.96486 20.6707C7.13121 20.9755 7.38074 21.1698 7.6855 21.1698C7.88044 21.1698 7.99026 21.1418 11.6779 19.9501L13.3115 19.3951ZM15.3909 20.9202C14.9477 20.7253 14.4487 20.8371 14.1712 21.1977L13.3674 22.1679C10.5947 25.4949 10.4836 25.6333 10.4004 25.8276C10.3552 25.9421 10.3363 26.0654 10.3452 26.1882C10.3534 26.3766 10.4326 26.5548 10.5667 26.6873C11.2048 27.4631 14.2823 28.6276 15.2804 28.4612C15.4361 28.4415 15.5832 28.379 15.7055 28.2807C15.8278 28.1824 15.9204 28.0521 15.9731 27.9043C16.029 27.7094 16.0563 27.5716 16.0563 23.6624V21.8904C16.1122 21.4745 15.8347 21.0866 15.3909 20.9202ZM25.0392 21.7C24.8729 21.5889 24.7624 21.5337 21.0754 20.3133C21.0754 20.3133 19.4671 19.759 19.4398 19.759C19.0499 19.5927 18.6081 19.7311 18.3027 20.1197C17.9973 20.5083 17.9427 21.0067 18.1922 21.3946L18.8297 22.4759C21.0202 26.0803 21.1865 26.3299 21.3249 26.4683C21.5744 26.6632 21.8792 26.6905 22.2119 26.5515C23.1548 26.1616 25.1789 23.5571 25.3173 22.5318C25.3719 22.1958 25.2887 21.8904 25.0392 21.6968V21.7ZM19.1065 17.5965C19.6913 17.4854 24.457 16.3489 24.8456 16.0714C25.0951 15.905 25.2354 15.6003 25.2056 15.2396V15.2123C25.0951 14.1584 23.2925 11.4435 22.4055 10.9977C22.1008 10.8593 21.7681 10.8593 21.5186 11.0256C21.3522 11.1368 21.2411 11.3031 18.9954 14.4079L17.9693 15.818C17.6925 16.1507 17.6925 16.6224 17.9693 17.0383C18.2468 17.4821 18.5243 17.7024 19.1065 17.5932V17.5965Z" fill="#D32323"/>
</svg>
