<svg width="32" height="32" viewBox="0 0 32 32" fill="none" xmlns="http://www.w3.org/2000/svg">
<path d="M16 28C22.6274 28 28 22.6274 28 16C28 9.37258 22.6274 4 16 4C9.37258 4 4 9.37258 4 16C4 22.6274 9.37258 28 16 28Z" fill="url(#paint0_linear_6_2730)"/>
<path d="M12.1224 16.8773L13.5461 20.8179C13.5461 20.8179 13.7241 21.1866 13.9147 21.1866C14.1053 21.1866 16.9402 18.2374 16.9402 18.2374L20.0927 12.1484L12.1732 15.8601L12.1224 16.8773Z" fill="#C8DAEA"/>
<path d="M14.0112 17.888L13.7379 20.7926C13.7379 20.7926 13.6235 21.6826 14.5133 20.7926C15.4031 19.9026 16.2548 19.2163 16.2548 19.2163" fill="#A9C6D8"/>
<path d="M12.1492 17.0176L9.2206 16.0634C9.2206 16.0634 8.8706 15.9214 8.9833 15.5994C9.0065 15.533 9.0533 15.4765 9.1933 15.3794C9.8422 14.9271 21.2039 10.8434 21.2039 10.8434C21.2039 10.8434 21.5247 10.7353 21.7139 10.8072C21.7607 10.8217 21.8028 10.8484 21.8359 10.8845C21.8691 10.9206 21.892 10.9649 21.9024 11.0127C21.9228 11.0973 21.9314 11.1843 21.9278 11.2712C21.9269 11.3464 21.9178 11.4161 21.9109 11.5254C21.8417 12.6419 19.7709 20.9747 19.7709 20.9747C19.7709 20.9747 19.647 21.4623 19.2031 21.479C19.094 21.4826 18.9853 21.4641 18.8835 21.4247C18.7817 21.3853 18.6889 21.3259 18.6106 21.2498C17.7395 20.5005 14.7287 18.4771 14.0634 18.0321C14.0484 18.0219 14.0358 18.0086 14.0263 17.9931C14.0169 17.9775 14.0109 17.9602 14.0088 17.9421C13.9995 17.8952 14.0505 17.8371 14.0505 17.8371C14.0505 17.8371 19.2931 13.1771 19.4326 12.6879C19.4434 12.65 19.4026 12.6313 19.3478 12.6479C18.9996 12.776 12.9634 16.5879 12.2972 17.0086C12.2492 17.0231 12.1986 17.0262 12.1492 17.0176Z" fill="white"/>
<defs>
<linearGradient id="paint0_linear_6_2730" x1="16" y1="28" x2="16" y2="4" gradientUnits="userSpaceOnUse">
<stop stop-color="#1D93D2"/>
<stop offset="1" stop-color="#38B0E3"/>
</linearGradient>
</defs>
</svg>
