<svg width="32" height="32" viewBox="0 0 32 32" fill="none" xmlns="http://www.w3.org/2000/svg">
<path d="M4 15.52C4 10.0894 4 7.37413 5.68707 5.68707C7.37413 4 10.0894 4 15.52 4H16.48C21.9106 4 24.6259 4 26.313 5.68707C28 7.37413 28 10.0894 28 15.52V16.48C28 21.9106 28 24.6259 26.313 26.313C24.6259 28 21.9106 28 16.48 28H15.52C10.0894 28 7.37413 28 5.68707 26.313C4 24.6259 4 21.9106 4 16.48V15.52Z" fill="#0077FF"/>
<path d="M16.7694 21.2901C11.2994 21.2901 8.17948 17.5401 8.04948 11.3001H10.7895C10.8795 15.8801 12.8994 17.8201 14.4994 18.2201V11.3001H17.0795V15.2501C18.6595 15.0801 20.3193 13.2801 20.8793 11.3001H23.4594C23.0294 13.7401 21.2294 15.5401 19.9494 16.2801C21.2294 16.8801 23.2795 18.4501 24.0595 21.2901H21.2194C20.6094 19.3901 19.0895 17.9201 17.0795 17.7201V21.2901H16.7694Z" fill="white"/>
</svg>
