<svg width="32" height="32" viewBox="0 0 32 32" fill="none" xmlns="http://www.w3.org/2000/svg">
<path d="M16 28C22.6274 28 28 22.6274 28 16C28 9.37258 22.6274 4 16 4C9.37258 4 4 9.37258 4 16C4 22.6274 9.37258 28 16 28Z" fill="#E13138"/>
<path d="M16.4703 10.4245C13.1152 10.4245 11.4208 12.7947 11.4208 14.7716C11.4208 15.9711 11.8816 17.0315 12.8656 17.4297C13.0288 17.4969 13.1728 17.4345 13.2208 17.257C13.2544 17.137 13.4032 16.8251 13.4368 16.7004C13.4848 16.5277 13.4656 16.4653 13.336 16.3117C13.0528 15.9807 12.8752 15.6352 12.8752 15.0306C12.8752 13.0154 14.1328 11.5808 16.2735 11.5808C18.1695 11.5808 19.2111 12.7563 19.2111 14.2821C19.2111 16.2878 18.3087 17.9191 16.9695 17.9191C16.2303 17.9191 15.6784 17.3817 15.8559 16.6428C16.0671 15.76 16.4799 14.8099 16.4799 14.1718C16.4799 13.6008 16.1727 13.193 15.5296 13.193C14.776 13.193 14.1664 13.8983 14.1664 14.9299C14.1664 15.5872 14.3824 15.9135 14.3824 15.9135C14.3824 15.9135 13.6192 19.2578 13.48 19.824C13.2112 20.9515 13.4416 22.3286 13.4608 22.4677C13.4704 22.5493 13.5808 22.5685 13.6288 22.5061C13.696 22.4197 14.5984 21.321 14.9056 20.227C14.992 19.9199 15.4048 18.3173 15.4048 18.3173C15.6496 18.778 16.3695 19.0754 17.1279 19.0754C19.3983 19.0754 20.9391 17.1418 20.9391 14.4165C20.9439 12.3485 19.1679 10.4245 16.4703 10.4245Z" fill="white"/>
</svg>
