<svg width="32" height="32" viewBox="0 0 32 32" fill="none" xmlns="http://www.w3.org/2000/svg">
<path d="M16 4.79688C22.1875 4.79688 27.1938 9.80313 27.1938 15.9813C27.1938 22.1594 22.1875 27.175 16 27.175C9.81251 27.175 4.80626 22.1688 4.80626 15.9906C4.80626 9.8125 9.81251 4.79688 16 4.79688Z" fill="#E74D89"/>
<path d="M16 27.9719C9.38125 27.9719 4 22.6 4 15.9906C4 9.37188 9.38125 4 16 4C22.6187 4 28 9.37188 28 15.9813C28 22.5906 22.6187 27.9719 16 27.9719ZM26.1156 17.6219C25.7687 17.5094 22.9469 16.675 19.7313 17.1813C21.0719 20.8563 21.6156 23.8563 21.7188 24.475C24.025 22.9281 25.6656 20.4719 26.1156 17.6219ZM20.0031 25.4219C19.8531 24.5219 19.2531 21.3906 17.8187 17.6594C17.8 17.6688 17.7719 17.6781 17.7531 17.6781C11.9687 19.6938 9.89688 23.6969 9.70938 24.0719C11.4438 25.4219 13.6281 26.2281 16 26.2281C17.4156 26.2375 18.775 25.9469 20.0031 25.4219ZM8.3875 22.8438C8.62187 22.45 11.4344 17.8 16.7219 16.0844C16.8531 16.0375 16.9937 16 17.125 15.9625C16.8719 15.3813 16.5906 14.8 16.2906 14.2281C11.1719 15.7563 6.20312 15.6906 5.75313 15.6813C5.75313 15.7844 5.74375 15.8875 5.74375 15.9906C5.75313 18.625 6.74687 21.025 8.3875 22.8438ZM5.96875 13.9C6.42812 13.9094 10.6469 13.9281 15.4469 12.6531C13.75 9.63438 11.9125 7.10313 11.65 6.7375C8.77187 8.0875 6.63438 10.7313 5.96875 13.9ZM13.6 6.04375C13.8813 6.41875 15.7469 8.95 17.425 12.0344C21.0719 10.6656 22.6094 8.60313 22.7969 8.34063C20.9875 6.7375 18.6062 5.7625 16 5.7625C15.175 5.7625 14.3688 5.86563 13.6 6.04375ZM23.9313 9.52188C23.7156 9.8125 22 12.0156 18.2125 13.5625C18.4469 14.05 18.6812 14.5469 18.8969 15.0438C18.9719 15.2219 19.0469 15.4 19.1219 15.5688C22.5344 15.1375 25.9187 15.8313 26.2562 15.8969C26.2281 13.4875 25.3656 11.2656 23.9313 9.52188Z" fill="#B2215A"/>
</svg>
