<svg width="32" height="32" viewBox="0 0 32 32" fill="none" xmlns="http://www.w3.org/2000/svg">
<path d="M29.3333 16C29.3333 8.63675 23.3632 2.66666 16 2.66666C8.63675 2.66666 2.66666 8.63675 2.66666 16C2.66666 22.6545 7.54173 28.1708 13.9168 29.1721V19.8551H10.5305V16H13.9168V13.0618C13.9168 9.72052 15.9081 7.87361 18.9532 7.87361C20.4119 7.87361 21.9382 8.13424 21.9382 8.13424V11.4155H20.2563C18.6007 11.4155 18.0832 12.4431 18.0832 13.4987V16H21.7807L21.1901 19.8551H18.0832V29.1721C24.4583 28.1727 29.3333 22.6563 29.3333 16Z" fill="#1977F3"/>
<path d="M21.1908 19.855L21.7814 15.9999H18.0839V13.4986C18.0839 12.4449 18.5995 11.4155 20.257 11.4155H21.9389V8.13416C21.9389 8.13416 20.4127 7.87354 18.9539 7.87354C15.9088 7.87354 13.9176 9.71856 13.9176 13.0617V15.9999H10.5312V19.855H13.9176V29.172C14.5963 29.2789 15.292 29.3333 16.0007 29.3333C16.7095 29.3333 17.4051 29.277 18.0839 29.172V19.855H21.1908Z" fill="#FEFEFE"/>
</svg>
