<svg width="32" height="32" viewBox="0 0 32 32" fill="none" xmlns="http://www.w3.org/2000/svg">
<path d="M24.317 8.32229C22.7873 7.62041 21.147 7.10329 19.4319 6.80712C19.4007 6.8014 19.3695 6.81569 19.3534 6.84426C19.1424 7.21947 18.9087 7.70897 18.7451 8.09372C16.9004 7.81755 15.0652 7.81755 13.2583 8.09372C13.0946 7.70042 12.8525 7.21947 12.6406 6.84426C12.6245 6.81664 12.5933 6.80236 12.562 6.80712C10.8479 7.10235 9.20756 7.61946 7.67693 8.32229C7.66368 8.328 7.65233 8.33754 7.64479 8.34991C4.53339 12.9983 3.68105 17.5324 4.09918 22.0103C4.10107 22.0322 4.11337 22.0531 4.1304 22.0664C6.18321 23.574 8.17171 24.4892 10.1233 25.0958C10.1545 25.1054 10.1876 25.0939 10.2075 25.0682C10.6691 24.4378 11.0806 23.7731 11.4335 23.074C11.4543 23.0331 11.4344 22.9845 11.3919 22.9683C10.7391 22.7207 10.1176 22.4188 9.51973 22.076C9.47244 22.0484 9.46865 21.9807 9.51216 21.9483C9.63797 21.8541 9.76382 21.756 9.88396 21.6569C9.90569 21.6388 9.93598 21.635 9.96153 21.6464C13.8893 23.4397 18.1415 23.4397 22.023 21.6464C22.0485 21.6341 22.0788 21.6379 22.1015 21.656C22.2216 21.755 22.3475 21.8541 22.4742 21.9483C22.5177 21.9807 22.5149 22.0484 22.4676 22.076C21.8697 22.4255 21.2482 22.7207 20.5945 22.9674C20.552 22.9836 20.533 23.0331 20.5538 23.074C20.9143 23.7721 21.3258 24.4368 21.7789 25.0673C21.7978 25.0939 21.8319 25.1054 21.8631 25.0958C23.8241 24.4892 25.8126 23.574 27.8654 22.0664C27.8834 22.0531 27.8948 22.0331 27.8967 22.0112C28.3971 16.8343 27.0585 12.3374 24.3482 8.35085C24.3416 8.33754 24.3303 8.328 24.317 8.32229ZM12.02 19.2837C10.8375 19.2837 9.86313 18.1981 9.86313 16.8648C9.86313 15.5315 10.8186 14.4458 12.02 14.4458C13.2309 14.4458 14.1958 15.541 14.1769 16.8648C14.1769 18.1981 13.2214 19.2837 12.02 19.2837ZM19.9947 19.2837C18.8123 19.2837 17.8379 18.1981 17.8379 16.8648C17.8379 15.5315 18.7933 14.4458 19.9947 14.4458C21.2056 14.4458 22.1705 15.541 22.1516 16.8648C22.1516 18.1981 21.2056 19.2837 19.9947 19.2837Z" fill="#5865F2"/>
</svg>
