<svg width="32" height="32" viewBox="0 0 32 32" fill="none" xmlns="http://www.w3.org/2000/svg">
<path d="M13.6003 13.4519V12.5167C13.2758 12.4653 12.9481 12.4371 12.6196 12.4324C9.43967 12.4256 6.62437 14.4876 5.66943 17.5226C4.71449 20.5577 5.84169 23.8615 8.45185 25.6788C7.49469 24.6538 6.85449 23.3735 6.60851 21.9924C6.36253 20.6114 6.52128 19.1886 7.06561 17.8958C7.60994 16.603 8.51658 15.4956 9.67609 14.707C10.8356 13.9185 12.1984 13.4826 13.6 13.452L13.6003 13.4519Z" fill="#25F4EE"/>
<path d="M13.7765 24.0459C15.5544 24.0435 17.0158 22.642 17.0937 20.8646V5.00425H19.9894C19.9303 4.67283 19.9021 4.33664 19.9052 4L15.9444 4V19.8451C15.8786 21.6315 14.4136 23.0465 12.6272 23.0493C12.0934 23.0448 11.5682 22.9134 11.095 22.6661C11.4017 23.0912 11.8045 23.4378 12.2705 23.6776C12.7365 23.9174 13.2525 24.0436 13.7765 24.0459ZM25.3981 10.3855V9.50395C24.3324 9.50437 23.2903 9.1897 22.4027 8.59947C23.1808 9.50458 24.2323 10.1315 25.3981 10.3855Z" fill="#25F4EE"/>
<path d="M22.4023 8.59973C21.5278 7.60345 21.0458 6.32271 21.0463 4.99677H19.989C20.1255 5.72986 20.4099 6.42743 20.8249 7.04689C21.2398 7.66635 21.7765 8.19471 22.4023 8.59973ZM12.6191 16.3958C11.8776 16.3995 11.1586 16.6513 10.5765 17.1109C9.99435 17.5705 9.58248 18.2117 9.40635 18.9325C9.23022 19.6532 9.29995 20.4122 9.60445 21.0888C9.90895 21.7653 10.4307 22.3206 11.0869 22.6663C10.7281 22.1707 10.5133 21.5855 10.4661 20.9754C10.4189 20.3653 10.5412 19.7539 10.8195 19.209C11.0978 18.6641 11.5212 18.2067 12.0429 17.8874C12.5647 17.5682 13.1645 17.3995 13.776 17.3999C14.1085 17.4043 14.4387 17.4561 14.7566 17.5537V13.5211C14.4319 13.4724 14.1043 13.4468 13.776 13.4445H13.5998V16.5107C13.2802 16.425 12.9499 16.3862 12.6191 16.3958Z" fill="#FE2C55"/>
<path d="M25.3981 10.3854V13.4518C23.4252 13.4479 21.5035 12.8231 19.9052 11.6656V19.7223C19.8967 23.7425 16.6373 26.9972 12.6196 26.9972C11.1274 26.9999 9.67122 26.5392 8.45181 25.6786C9.44617 26.7488 10.7396 27.4946 12.1635 27.8187C13.5875 28.1429 15.076 28.0305 16.4352 27.4961C17.7944 26.9617 18.9612 26.0302 19.7838 24.8227C20.6063 23.6153 21.0464 22.1881 21.0467 20.7268V12.6929C22.6504 13.8427 24.5744 14.4594 26.5473 14.456V10.5078C26.161 10.5067 25.7759 10.4657 25.3981 10.3854Z" fill="#FE2C55"/>
<path d="M19.9052 19.7225V11.6658C21.5084 12.8166 23.4328 13.4335 25.4058 13.4289V10.3627C24.2402 10.1164 23.1862 9.49755 22.4028 8.59955C21.777 8.19453 21.2403 7.66616 20.8254 7.0467C20.4104 6.42724 20.126 5.72968 19.9895 4.99658H17.0938V20.8649C17.0656 21.5557 16.823 22.2204 16.3999 22.7669C15.9767 23.3133 15.394 23.7143 14.7326 23.9141C14.0712 24.1139 13.364 24.1026 12.7094 23.8817C12.0547 23.6608 11.4851 23.2414 11.0796 22.6817C10.4234 22.336 9.90149 21.7807 9.59691 21.1041C9.29233 20.4275 9.22256 19.6684 9.3987 18.9476C9.57484 18.2267 9.98677 17.5855 10.569 17.1259C11.1512 16.6662 11.8703 16.4146 12.6119 16.4109C12.9445 16.4138 13.2749 16.4655 13.5925 16.5642V13.4979C12.1834 13.5218 10.8116 13.9555 9.64449 14.746C8.47738 15.5365 7.56534 16.6497 7.01959 17.9499C6.47384 19.2501 6.31796 20.6812 6.57094 22.0685C6.82392 23.4558 7.47484 24.7395 8.44433 25.7631C9.67572 26.5952 11.134 27.0263 12.6197 26.9973C16.6374 26.9973 19.8968 23.7427 19.9052 19.7225Z" fill="black"/>
</svg>
