<svg width="32" height="32" viewBox="0 0 32 32" fill="none" xmlns="http://www.w3.org/2000/svg">
<path d="M4.55279 20.9457L12.5268 7.29425C13.5397 7.89057 18.6473 10.7173 19.4723 11.2548L11.4982 24.9071C10.6261 26.0591 3.44795 22.6941 4.55279 20.9449V20.9457Z" fill="#FBBC04"/>
<path d="M27.4635 20.9453L19.4895 7.29469C18.3747 5.43949 15.9737 4.76533 14.0017 5.86105C12.0298 6.95678 11.4293 9.31719 12.5441 11.2552L20.5181 24.9075C21.6329 26.7619 24.0339 27.4361 26.0059 26.3403C27.8917 25.2446 28.5783 22.8005 27.4635 20.947V20.9453Z" fill="#4285F4"/>
<path d="M8.00276 26.868C10.2134 26.868 12.0055 25.1204 12.0055 22.9646C12.0055 20.8088 10.2134 19.0612 8.00276 19.0612C5.7921 19.0612 4 20.8088 4 22.9646C4 25.1204 5.7921 26.868 8.00276 26.868Z" fill="#34A853"/>
</svg>
