<svg width="32" height="32" viewBox="0 0 32 32" fill="none" xmlns="http://www.w3.org/2000/svg">
<path d="M7.27822 8.41779C7.06065 8.41779 6.87755 8.49424 6.78518 8.64375C6.68993 8.79803 6.70435 8.99693 6.80599 9.1982L9.25024 13.4294C9.25438 13.4374 9.25438 13.4425 9.25024 13.4499L5.40922 20.2281C5.30908 20.4276 5.31397 20.628 5.40922 20.7827C5.50146 20.9314 5.66401 21.0291 5.88183 21.0291H9.49676C10.0372 21.0291 10.298 20.6644 10.4827 20.331C10.4827 20.331 14.2391 13.6874 14.3854 13.4295C14.3706 13.4057 11.9002 9.09568 11.9002 9.09568C11.7198 8.77522 11.4482 8.41766 10.8938 8.41766H7.27822V8.41779Z" fill="#005A5F"/>
<path d="M22.4642 3.46748C21.9242 3.46748 21.6902 3.80762 21.4963 4.15602C21.4963 4.15602 13.7085 17.9671 13.4518 18.4205C13.465 18.4451 18.5882 27.8439 18.5882 27.8439C18.7677 28.1645 19.0445 28.5325 19.5983 28.5325H23.209C23.4268 28.5325 23.597 28.4505 23.6888 28.3015C23.7853 28.1474 23.7825 27.9435 23.6814 27.7428L18.5851 18.4316C18.5827 18.4282 18.5814 18.424 18.5814 18.4198C18.5814 18.4156 18.5827 18.4114 18.5851 18.408L26.5888 4.25604C26.6895 4.05626 26.6916 3.85248 26.5965 3.69808C26.5042 3.54919 26.3335 3.4671 26.1157 3.4671H22.4638V3.46735H22.4642V3.46748Z" fill="#D4D600"/>
</svg>
