<svg width="32" height="32" viewBox="0 0 32 32" fill="none" xmlns="http://www.w3.org/2000/svg">
<path fill-rule="evenodd" clip-rule="evenodd" d="M27.528 24.8C27.296 25.392 26.76 26.224 25.992 26.816C25.552 27.152 25.024 27.48 24.304 27.696C23.536 27.928 22.584 28 21.4 28H10.6C9.416 28 8.472 27.92 7.696 27.696C6.976 27.48 6.448 27.16 6.008 26.816C5.248 26.232 4.704 25.392 4.472 24.8C4.008 23.608 4 22.256 4 21.4V10.6C4 9.744 4.008 8.392 4.472 7.2C4.704 6.608 5.24 5.776 6.008 5.184C6.448 4.848 6.976 4.52 7.696 4.304C8.472 4.08 9.416 4 10.6 4H21.4C22.584 4 23.528 4.08 24.304 4.304C25.024 4.52 25.552 4.84 25.992 5.184C26.752 5.768 27.296 6.608 27.528 7.2C28 8.392 28 9.752 28 10.6V21.4C28 22.256 27.992 23.608 27.528 24.8Z" fill="url(#paint0_linear_6_2750)"/>
<path d="M18.056 18.488C18.024 18.2 17.928 17.992 17.736 17.8C17.376 17.424 16.744 17.176 16 17.176C15.256 17.176 14.624 17.416 14.264 17.8C14.08 18 13.976 18.2 13.944 18.488C13.88 19.048 13.92 19.528 13.984 20.304C14.048 21.04 14.168 22.024 14.32 23.016C14.432 23.728 14.52 24.112 14.6 24.384C14.736 24.832 15.224 25.216 16 25.216C16.776 25.216 17.272 24.824 17.4 24.384C17.48 24.112 17.568 23.728 17.68 23.016C17.832 22.016 17.952 21.04 18.016 20.304C18.088 19.528 18.12 19.048 18.056 18.488Z" fill="white"/>
<path d="M17.9686 14.4081C17.9686 15.4961 17.0886 16.3761 16.0006 16.3761C14.9126 16.3761 14.0326 15.4961 14.0326 14.4081C14.0326 13.3201 14.9126 12.4401 16.0006 12.4401C17.0886 12.4401 17.9686 13.3281 17.9686 14.4081Z" fill="white"/>
<path d="M15.9766 6.65626C11.3846 6.67226 7.62461 10.4003 7.56061 14.9923C7.51261 18.7123 9.88861 21.8963 13.2086 23.0643C13.2886 23.0963 13.3686 23.0243 13.3606 22.9443C13.3206 22.6563 13.2726 22.3683 13.2406 22.0803C13.2246 21.9763 13.1606 21.8963 13.0726 21.8483C10.4486 20.7043 8.61661 18.0723 8.64861 15.0243C8.68861 11.0243 11.9526 7.76826 15.9446 7.73626C20.0326 7.70426 23.3686 11.0163 23.3686 15.0963C23.3686 18.1123 21.5446 20.7043 18.9446 21.8483C18.8486 21.8883 18.7846 21.9763 18.7766 22.0803C18.7366 22.3683 18.6966 22.6563 18.6566 22.9443C18.6406 23.0323 18.7286 23.0963 18.8086 23.0643C22.0966 21.9123 24.4566 18.7763 24.4566 15.0963C24.4406 10.4403 20.6406 6.64826 15.9766 6.65626Z" fill="white"/>
<path d="M15.784 9.45598C12.792 9.56798 10.392 12.04 10.352 15.032C10.328 17 11.312 18.744 12.824 19.776C12.896 19.824 13 19.768 13 19.68C12.976 19.336 12.976 19.032 12.992 18.712C13 18.608 12.96 18.512 12.88 18.44C11.96 17.576 11.4 16.344 11.432 14.984C11.496 12.584 13.424 10.632 15.824 10.536C18.432 10.432 20.576 12.528 20.576 15.104C20.576 16.416 20.016 17.6 19.128 18.44C19.056 18.512 19.016 18.608 19.016 18.712C19.032 19.024 19.024 19.328 19.008 19.672C19 19.76 19.104 19.824 19.184 19.768C20.672 18.752 21.656 17.032 21.656 15.096C21.664 11.912 19 9.32798 15.784 9.45598Z" fill="white"/>
<defs>
<linearGradient id="paint0_linear_6_2750" x1="16" y1="4" x2="16" y2="28" gradientUnits="userSpaceOnUse">
<stop stop-color="#F452FF"/>
<stop offset="1" stop-color="#832BC1"/>
</linearGradient>
</defs>
</svg>
