<svg width="32" height="32" viewBox="0 0 32 32" fill="none" xmlns="http://www.w3.org/2000/svg">
<path d="M29.3203 9.82001C29.2008 12.4083 27.3881 15.9531 23.8822 20.4535C20.2569 25.1522 17.1884 27.5026 14.679 27.5026C13.1256 27.5026 11.8101 26.0693 10.7347 23.2017L8.58377 15.3164C7.78572 12.4477 6.92899 11.0144 6.01358 11.0144C5.81407 11.0144 5.11737 11.4325 3.92136 12.2686L2.66667 10.6561C3.97044 9.51075 5.26461 8.35579 6.5513 7.19124C8.30424 5.67797 9.61868 4.88134 10.4957 4.80242C12.5676 4.603 13.8426 6.01709 14.3206 9.04365C14.838 12.3091 15.1976 14.3406 15.396 15.1362C15.9935 17.8439 16.6507 19.1983 17.3677 19.1983C17.9257 19.1983 18.7621 18.3217 19.8781 16.5695C20.9941 14.8173 21.5916 13.4832 21.6705 12.5672C21.8295 11.0539 21.232 10.2967 19.8781 10.2967C19.2412 10.2967 18.5829 10.4364 17.9065 10.7148C19.2209 6.45327 21.7313 4.38331 25.4367 4.50275C28.1851 4.58273 29.4793 6.35515 29.3203 9.82001Z" fill="#1AB7EA"/>
</svg>
