<svg width="32" height="32" viewBox="0 0 32 32" fill="none" xmlns="http://www.w3.org/2000/svg">
<path d="M27.9992 15.4281C27.9992 21.74 22.7288 26.8563 16.2216 26.8563C15.2494 26.8563 14.3078 26.7426 13.4044 26.5257C13.1306 26.4601 12.8444 26.4853 12.5924 26.6107L10.0148 27.8936C9.34939 28.2247 8.56617 27.743 8.56617 27.0022V24.6433C8.56617 24.3063 8.41483 23.9922 8.16515 23.7648C5.87205 21.6784 4.44401 18.7159 4.44401 15.4281C4.44401 9.11629 9.71449 4 16.2216 4C22.7288 4 27.9992 9.11629 27.9992 15.4281Z" fill="url(#paint0_radial_6_2861)"/>
<path opacity="0.05" d="M22.6952 11.7891C22.4432 11.7891 22.1988 11.8723 21.9885 12.0299L18.6354 14.5002C18.5571 14.5588 18.4706 14.5881 18.3793 14.5881C18.291 14.5881 18.2079 14.5605 18.1378 14.5084L15.7988 12.7561C15.323 12.4038 14.7624 12.2181 14.1753 12.2181C13.2472 12.2181 12.3939 12.6816 11.8928 13.4582L11.1796 14.5664L8.75345 18.4901C8.52261 18.8499 8.50494 19.2941 8.71164 19.6704C8.92246 20.0537 9.32054 20.2916 9.75042 20.2916C10.0025 20.2916 10.2468 20.2084 10.4571 20.0507L13.8102 17.5805C13.8885 17.5219 13.975 17.4926 14.0663 17.4926C14.1547 17.4926 14.2377 17.5201 14.3078 17.5723L16.6468 19.3246C17.1232 19.6774 17.6832 19.8626 18.2703 19.8626C19.1984 19.8626 20.0517 19.399 20.5528 18.6225L21.266 17.5143L23.6922 13.5906C23.923 13.2308 23.9407 12.7865 23.734 12.4103C23.5232 12.027 23.1251 11.7891 22.6952 11.7891Z" fill="black"/>
<path opacity="0.07" d="M22.6947 12.0833C22.5069 12.0833 22.3238 12.1461 22.1653 12.265L18.8105 14.737C18.6833 14.8325 18.5349 14.8824 18.3794 14.8824C18.2269 14.8824 18.0826 14.8343 17.9613 14.744L15.6217 12.9911C15.1983 12.6776 14.6983 12.5123 14.1748 12.5123C13.3474 12.5123 12.5872 12.9255 12.1402 13.6182L11.4277 14.7265L9.00445 18.646C8.82955 18.9185 8.81601 19.2514 8.9703 19.5316C9.12694 19.8164 9.43374 20.0004 9.75056 20.0004C9.93841 20.0004 10.1216 19.9377 10.28 19.8187L13.6348 17.3467C13.762 17.2512 13.9104 17.2014 14.0659 17.2014C14.2184 17.2014 14.3627 17.2494 14.484 17.3397L16.8236 19.0926C17.247 19.4061 17.747 19.5714 18.2705 19.5714C19.0979 19.5714 19.8581 19.1582 20.3051 18.4655L21.0176 17.3573L23.4409 13.4377C23.6158 13.1652 23.6293 12.8323 23.475 12.5522C23.3184 12.2674 23.0122 12.0833 22.6947 12.0833Z" fill="black"/>
<path d="M22.3428 12.5004L18.9861 14.9735C18.6269 15.2431 18.1382 15.2431 17.7848 14.9794L15.4446 13.2265C14.4553 12.4939 13.0538 12.7459 12.3883 13.7774L11.6758 14.885L9.25548 18.7999C8.90215 19.3508 9.57936 19.9779 10.1035 19.5852L13.4601 17.1121C13.8193 16.8425 14.3081 16.8425 14.6614 17.1062L17.0016 18.8591C17.9909 19.5917 19.3925 19.3397 20.0579 18.3082L20.7704 17.2005L23.1907 13.2857C23.5441 12.7348 22.8669 12.1077 22.3428 12.5004Z" fill="white"/>
<defs>
<radialGradient id="paint0_radial_6_2861" cx="0" cy="0" r="1" gradientUnits="userSpaceOnUse" gradientTransform="translate(8.61741 26.8434) scale(28.0378 27.9034)">
<stop stop-color="#1292FF"/>
<stop offset="0.079" stop-color="#2982FF"/>
<stop offset="0.23" stop-color="#4E69FF"/>
<stop offset="0.351" stop-color="#6559FF"/>
<stop offset="0.428" stop-color="#6D53FF"/>
<stop offset="0.754" stop-color="#DF47AA"/>
<stop offset="0.946" stop-color="#FF6257"/>
</radialGradient>
</defs>
</svg>
