<svg width="32" height="32" viewBox="0 0 32 32" fill="none" xmlns="http://www.w3.org/2000/svg">
<path d="M25.6 4H6.4C5.07452 4 4 5.07452 4 6.4V25.6C4 26.9255 5.07452 28 6.4 28H25.6C26.9255 28 28 26.9255 28 25.6V6.4C28 5.07452 26.9255 4 25.6 4Z" fill="#6772E5"/>
<path fill-rule="evenodd" clip-rule="evenodd" d="M14.928 12.976C14.928 12.352 15.44 12.112 16.288 12.112C17.504 12.112 19.04 12.48 20.256 13.136V9.37598C18.928 8.84798 17.616 8.63998 16.288 8.63998C13.04 8.63998 10.88 10.336 10.88 13.168C10.88 17.584 16.96 16.88 16.96 18.784C16.96 19.52 16.32 19.76 15.424 19.76C14.096 19.76 12.4 19.216 11.056 18.48V22.288C12.544 22.928 14.048 23.2 15.424 23.2C18.752 23.2 21.04 21.552 21.04 18.688C21.024 13.92 14.928 14.768 14.928 12.976Z" fill="white"/>
</svg>
