<svg width="32" height="32" viewBox="0 0 32 32" fill="none" xmlns="http://www.w3.org/2000/svg">
<path d="M11.5942 13.7166C11.5584 13.7166 11.5346 13.7166 11.5107 13.6928C10.6998 12.6224 10.4971 10.779 10.4494 10.0773C10.4374 9.94053 10.2824 9.86917 10.1631 9.93458C7.6588 11.332 5.33333 14.6502 5.33333 17.8494C5.33333 23.3618 9.16737 27.9822 15.7681 27.9822C21.9515 27.9822 26.2029 23.225 26.2029 17.8553C26.2029 10.8325 21.1763 6.18233 16.6983 4.07726C16.579 4.0178 16.4479 4.11889 16.4598 4.24377C17.0441 8.03169 16.2451 12.1407 11.5882 13.7285L11.5942 13.7166Z" fill="url(#paint0_radial_6_2803)"/>
<defs>
<radialGradient id="paint0_radial_6_2803" cx="0" cy="0" r="1" gradientUnits="userSpaceOnUse" gradientTransform="translate(15.7681 27.9822) scale(20.8696 23.9225)">
<stop stop-color="#FF7854"/>
<stop offset="1" stop-color="#FD267D"/>
</radialGradient>
</defs>
</svg>
