<svg width="32" height="32" viewBox="0 0 32 32" fill="none" xmlns="http://www.w3.org/2000/svg">
<path d="M9.21038 6.71534C10.5591 6.54041 11.9606 6.84065 13.1149 7.56028C13.7666 7.9444 14.2877 8.50036 14.8222 9.02666C15.2099 9.40617 15.5935 9.79029 15.9822 10.1688L15.9966 10.2082C15.7062 10.494 15.3767 11.0656 15.0081 11.923C14.2351 12.195 13.7075 12.4695 13.4254 12.7466C12.7958 12.1405 12.1866 11.5129 11.5596 10.9038C10.9632 10.3452 10.062 10.1202 9.28097 10.3764C8.39152 10.6265 7.7128 11.4771 7.66575 12.4003C7.63506 12.8806 7.76037 13.3685 8.0202 13.7736C8.18182 14.0345 8.41812 14.2334 8.62987 14.4513C9.13878 14.9628 9.65997 15.4625 10.1612 15.9811C9.89354 16.2442 9.5766 16.7534 9.21038 17.5087C8.43141 17.8779 7.89096 18.2137 7.58903 18.5159C6.91235 17.8797 6.26535 17.2091 5.59481 16.5657C4.79641 15.7351 4.26243 14.6574 4.0783 13.5204C3.87576 12.3006 4.06808 11.0163 4.63274 9.91509C5.10687 8.99189 5.82446 8.1899 6.69754 7.62677C7.45656 7.14957 8.31634 6.81507 9.21038 6.71534Z" fill="#EA4335"/>
<path d="M16.0078 21.7397L21.8585 15.9734L23.4404 16.913L24.4302 18.5215L16.0078 26.8539L10.1653 21.0738L11.2864 19.496L12.7528 18.5195L16.0078 21.7397Z" fill="#34A853"/>
<path d="M13.43 12.7523L14.9016 13.5483L16.0073 15.3076L10.1648 21.0739L7.58853 18.516L13.43 12.7523Z" fill="#FBBC05"/>
<path d="M23.0629 6.75076C24.7773 7.04127 26.3542 8.11178 27.2186 9.62624C28.2031 11.29 28.2568 13.449 27.3833 15.1706C27.0211 15.9101 26.4682 16.5341 25.8795 17.1014C25.3911 17.5683 24.9272 18.0665 24.4305 18.5217C23.5713 17.6747 22.711 16.8282 21.8589 15.9736C22.466 15.3603 23.0828 14.7573 23.692 14.1461C24.0848 13.7492 24.3308 13.205 24.3508 12.6449C24.3779 12.0092 24.1267 11.3642 23.6659 10.9233C23.1964 10.4789 22.5386 10.2262 21.8911 10.2799C21.3341 10.3065 20.7966 10.5592 20.4038 10.953C18.9379 12.4035 17.4756 13.8581 16.0082 15.3076C15.1453 14.4596 14.2815 13.6126 13.4309 12.7523C13.4299 12.7508 13.4273 12.7482 13.4258 12.7467C14.285 11.9028 15.1387 11.0532 15.9969 10.2083C16.6189 9.59555 17.2388 8.98025 17.8612 8.367C18.6673 7.55734 19.7301 7.02695 20.8405 6.78349C21.5725 6.64591 22.3274 6.63056 23.0629 6.75076Z" fill="#4285F4"/>
</svg>
