<svg width="32" height="32" viewBox="0 0 32 32" fill="none" xmlns="http://www.w3.org/2000/svg">
<path d="M16.5317 24.5799L11.6078 24.4899C10.0136 24.4585 8.41539 24.5211 6.85241 24.196C4.47475 23.7103 4.30631 21.3287 4.13006 19.3309C3.88719 16.5224 3.98121 13.6629 4.43953 10.8778C4.69826 9.31501 5.71648 8.38251 7.29112 8.28104C12.6067 7.91278 17.9576 7.95642 23.2614 8.12823C23.8216 8.14398 24.3856 8.23006 24.9379 8.32805C27.6643 8.80596 27.7308 11.5049 27.9076 13.7768C28.0838 16.0723 28.0094 18.3795 27.6725 20.6592C27.4022 22.5468 26.8851 24.1298 24.7028 24.2826C21.9686 24.4824 19.2971 24.6433 16.5552 24.5921C16.5553 24.5799 16.5395 24.5799 16.5317 24.5799ZM13.6369 19.801C15.6974 18.618 17.7186 17.4547 19.7673 16.2795C17.703 15.0965 15.6857 13.9331 13.6369 12.758V19.801Z" fill="#FF0000"/>
</svg>
