<svg width="32" height="32" viewBox="0 0 32 32" fill="none" xmlns="http://www.w3.org/2000/svg">
<path d="M19.1693 11.1607C20.2549 9.30235 19.6103 6.92741 17.7297 5.85407C15.8482 4.78226 13.4432 5.41764 12.3575 7.27593C12.3097 7.35919 12.2647 7.44407 12.2226 7.5304L8.55225 13.8093C8.47104 13.9341 8.39589 14.0628 8.32708 14.1948L4.51562 20.7722L11.3266 24.5898L15.1187 18.068C15.2014 17.944 15.2766 17.8153 15.3439 17.6824L19.0142 11.4028C19.0675 11.3241 19.1207 11.2439 19.1693 11.1607Z" fill="#FBBC04"/>
<path d="M11.3578 24.5698C10.2783 26.4581 7.84317 27.1529 5.9733 26.0634C4.10266 24.973 3.43876 22.6089 4.51904 20.7213C5.59932 18.8337 8.0128 18.1359 9.88345 19.2254C11.7541 20.3157 12.4373 22.6822 11.3578 24.569" fill="#34A853"/>
<path d="M26.0553 12.4036C24.1962 11.3322 21.8207 11.9667 20.7434 13.8224L16.8548 20.5416C15.7834 22.3936 16.4162 24.7633 18.2682 25.8347C18.2715 25.8366 18.2749 25.8386 18.2782 25.8405C20.1377 26.9123 22.5139 26.2774 23.591 24.4209L27.4787 17.7025C28.5499 15.85 27.9165 13.4798 26.064 12.4086C26.0611 12.407 26.0582 12.4053 26.0553 12.4036Z" fill="#4285F4"/>
</svg>
