<svg width="32" height="32" viewBox="0 0 32 32" fill="none" xmlns="http://www.w3.org/2000/svg">
<path d="M9.45958 13.7618C9.45958 13.7618 9.86719 10.5589 9.45958 9.10572C9.05197 7.65249 8.09487 6.9004 6.67727 6.81249C5.25967 6.72459 3.23754 8.03767 2.88453 11.6087C2.56692 14.3205 2.59668 17.061 2.97311 19.7654C3.27408 21.5333 4.14305 24.0546 5.64922 25.0517C7.15539 26.0488 9.01672 26.0845 10.381 24.912C11.7453 23.7395 14.1737 17.8578 15.1308 16.5621C15.1308 16.5621 14.7942 20.8683 16.6551 22.3563C18.516 23.8444 21.0837 23.4766 22.2016 21.4811C23.3196 19.4855 25.8877 14.2867 27.3587 12.1689C28.8296 10.051 29.7871 8.66831 29.1138 7.54972C28.4405 6.43114 26.3667 6.55217 25.0201 7.79476C23.6734 9.03735 20.4121 12.4666 20.4121 12.4666C20.4121 12.4666 21.0854 7.25245 18.9765 6.4804C16.8675 5.70835 14.4928 6.4804 12.2419 9.73593L9.45958 13.7618Z" fill="#FF500A"/>
</svg>
