<svg width="32" height="32" viewBox="0 0 32 32" fill="none" xmlns="http://www.w3.org/2000/svg">
<path d="M16 4C9.37236 4 4 9.37236 4 16C4 22.6276 9.37236 28 16 28C22.6276 28 28 22.6276 28 16C28 9.37318 22.6276 4.00082 16 4ZM21.5034 21.3069C21.288 21.6606 20.827 21.7711 20.4749 21.5558C17.6573 19.8338 14.1101 19.4448 9.93326 20.3988C9.5304 20.4913 9.12917 20.2391 9.03746 19.8362C8.94493 19.4334 9.19632 19.0321 9.6 18.9404C14.1707 17.8964 18.0921 18.346 21.2553 20.2784C21.6074 20.4954 21.7196 20.9548 21.5034 21.3069ZM22.9715 18.0405C22.7005 18.4811 22.1241 18.6186 21.6843 18.3484C18.4598 16.366 13.5419 15.792 9.72692 16.9498C9.23234 17.0997 8.70993 16.8205 8.55926 16.3267C8.41024 15.8321 8.68946 15.3105 9.18321 15.1599C13.541 13.8375 18.9593 14.4778 22.6628 16.7541C23.1034 17.0252 23.2426 17.6008 22.9715 18.0405ZM23.0976 14.6375C19.2295 12.3406 12.8491 12.1294 9.15619 13.2495C8.56336 13.4297 7.93613 13.0948 7.75681 12.5019C7.57748 11.9091 7.91157 11.2819 8.50522 11.1017C12.7443 9.81535 19.7904 10.0635 24.2432 12.7067C24.7763 13.0235 24.9515 13.7122 24.6354 14.2444C24.3202 14.7783 23.6299 14.9543 23.0976 14.6375Z" fill="#2EBD59"/>
</svg>
