<svg width="32" height="32" viewBox="0 0 32 32" fill="none" xmlns="http://www.w3.org/2000/svg">
<path d="M17.5757 15.7937L19.915 18.4676L23.0607 20.4779L23.6092 15.8101L23.0607 11.2465L19.8547 13.0127L17.5757 15.7937Z" fill="#00832D"/>
<path d="M3.99995 20.0445V24.0212C3.99995 24.9303 4.73633 25.6667 5.64548 25.6667H9.62217L10.4449 22.6609L9.62217 20.0445L6.89334 19.2217L3.99995 20.0445Z" fill="#0066DA"/>
<path d="M9.62217 5.92017L3.99995 11.5424L6.89334 12.3651L9.62217 11.5424L10.4312 8.96165L9.62217 5.92017Z" fill="#E94235"/>
<path d="M9.62217 11.5425H3.99995V20.0444H9.62217V11.5425Z" fill="#2684FC"/>
<path d="M26.6534 8.30099L23.0607 11.2465V20.4779L26.6699 23.4371C27.2101 23.8594 28 23.4741 28 22.7871V8.93726C28 8.24203 27.1923 7.86081 26.6534 8.30099ZM17.5756 15.7936V20.0446H9.62221V25.6668H21.4151C22.3243 25.6668 23.0607 24.9304 23.0607 24.0213V20.4779L17.5756 15.7936Z" fill="#00AC47"/>
<path d="M21.4152 5.92047H9.62221V11.5427H17.5756V15.7936L23.0607 11.2492V7.566C23.0607 6.65684 22.3243 5.92047 21.4152 5.92047Z" fill="#FFBA00"/>
</svg>
