<svg width="32" height="32" viewBox="0 0 32 32" fill="none" xmlns="http://www.w3.org/2000/svg">
<path d="M19.2293 11.9892H19.9617L22.0481 9.90133L22.1507 9.01544C18.2686 5.58665 12.3423 5.95611 8.91588 9.84092C7.9632 10.9201 7.27209 12.2036 6.89584 13.5929C7.12823 13.4972 7.38576 13.4821 7.62821 13.5486L11.8001 12.86C11.8001 12.86 12.0123 12.5087 12.122 12.5308C13.978 10.4912 17.1017 10.2537 19.2444 11.9892H19.2293Z" fill="#EA4335"/>
<path d="M25.0196 13.5928C24.5397 11.8261 23.5559 10.2375 22.1867 9.02246L19.2593 11.9519C20.4956 12.9626 21.1998 14.4858 21.1697 16.0834V16.6038C22.6092 16.6038 23.7752 17.7716 23.7752 19.2112C23.7752 20.6517 22.6082 21.8185 21.1697 21.8185H15.9576L15.4375 22.346V25.4738L15.9576 25.9942H21.1697C24.1575 26.0174 26.8082 24.0795 27.6955 21.2245C28.5808 18.3686 27.4943 15.268 25.0196 13.5928Z" fill="#4285F4"/>
<path d="M10.7382 25.965H15.9502V21.7902H10.7382C10.367 21.7902 9.99977 21.7107 9.66175 21.5557L8.92939 21.7822L6.82887 23.87L6.64578 24.6029C7.8238 25.4928 9.26137 25.971 10.7382 25.965Z" fill="#34A853"/>
<path d="M10.7377 12.4209C7.84242 12.438 5.27814 14.2934 4.35463 17.0386C3.43113 19.7839 4.35162 22.814 6.64629 24.5797L9.6693 21.5546C8.35748 20.9617 7.77501 19.4174 8.36754 18.1047C8.96008 16.792 10.5033 16.2091 11.8151 16.802C12.3925 17.0638 12.8553 17.5269 13.1168 18.1047L16.1399 15.0796C14.8532 13.3974 12.8543 12.4139 10.7377 12.4209Z" fill="#FBBC05"/>
</svg>
