<svg width="32" height="32" viewBox="0 0 32 32" fill="none" xmlns="http://www.w3.org/2000/svg">
<path d="M17.3846 22.7141C16.5729 21.0774 15.6207 19.4242 13.7632 19.4242C13.4081 19.4242 13.0535 19.4845 12.728 19.6367L12.097 18.3429C12.866 17.667 14.1085 17.1312 15.7057 17.1312C18.1904 17.1312 19.4655 18.3573 20.4778 19.9224C21.0788 18.5862 21.3644 16.7817 21.3644 14.545C21.3644 8.95946 19.6593 6.09148 15.6765 6.09148C11.7517 6.09148 10.0559 8.95946 10.0559 14.545C10.0559 20.101 11.7517 22.9395 15.6765 22.9395C16.3003 22.9395 16.8653 22.8693 17.3846 22.7141ZM18.3575 24.6633C17.4832 24.9043 16.5819 25.0276 15.6765 25.0301C10.4503 25.0301 5.33333 20.7579 5.33333 14.545C5.33333 8.27314 10.4503 4 15.6765 4C20.9903 4 26.0582 8.24236 26.0582 14.545C26.0582 18.0507 24.4615 20.8996 22.1406 22.741C22.8905 23.892 23.6625 24.6564 24.7374 24.6564C25.9105 24.6564 26.3837 23.7277 26.4628 22.9994H27.9906C28.0799 23.9692 27.6063 28 23.3366 28C20.7504 28 19.383 26.4643 18.3575 24.6633Z" fill="#DF312C"/>
</svg>
