<svg width="32" height="32" viewBox="0 0 32 32" fill="none" xmlns="http://www.w3.org/2000/svg">
<path d="M25.3107 4H6.68929C5.21607 4 4 5.21607 4 6.68929V25.3107C4 26.7839 5.21607 28 6.68929 28H25.3107C26.7839 28 28 26.7839 28 25.3107V6.68929C28 5.21607 26.7839 4 25.3107 4ZM22.8786 19.2304C22.8786 19.4554 22.6857 19.5518 22.4607 19.6482C21.5661 20.0339 20.6071 20.3821 19.5786 20.3821C18.1375 20.3821 17.4679 19.4875 15.7375 19.4875C14.4893 19.4875 13.1768 19.9375 12.1214 20.4143C12.0571 20.4464 11.9929 20.4464 11.9286 20.4786V22.9107C11.9286 23.0071 11.9286 23.1036 11.8964 23.1679V23.2321C11.7679 23.6821 11.35 23.9982 10.8732 23.9982C10.2679 23.9982 9.78571 23.5161 9.78571 22.9107V11.2C9.36786 10.8786 9.08393 10.3696 9.08393 9.79107C9.08393 8.8 9.88214 7.99643 10.8786 7.99643C11.8696 7.99643 12.6732 8.79464 12.6732 9.79107C12.6732 10.3696 12.4161 10.8786 11.9714 11.2V12.1911C12.0679 12.1589 12.1643 12.1268 12.2607 12.0625C13.2518 11.6446 14.4357 11.2964 15.5554 11.2964C16.7714 11.2964 17.7304 11.6179 18.8179 12.0304C19.0429 12.1268 19.2679 12.1589 19.5196 12.1589C20.7357 12.1589 22.0804 11.2964 22.4018 11.2964C22.6589 11.2964 22.8839 11.4893 22.8839 11.7143V19.2304H22.8786Z" fill="#339AF0"/>
</svg>
