<svg width="32" height="32" viewBox="0 0 32 32" fill="none" xmlns="http://www.w3.org/2000/svg">
<path fill-rule="evenodd" clip-rule="evenodd" d="M12.7995 4C11.4728 4.00098 10.3991 5.07547 10.4001 6.39951C10.3991 7.72355 11.4738 8.79804 12.8005 8.79902H15.2009V6.40049C15.2018 5.07645 14.1271 4.00196 12.7995 4C12.8005 4 12.8005 4 12.7995 4V4ZM12.7995 10.4H6.40039C5.07371 10.401 3.99902 11.4755 4 12.7995C3.99804 14.1235 5.07273 15.198 6.39941 15.2H12.7995C14.1262 15.199 15.2008 14.1245 15.1999 12.8005C15.2008 11.4755 14.1262 10.401 12.7995 10.4Z" fill="#36C5F0"/>
<path fill-rule="evenodd" clip-rule="evenodd" d="M27.9995 12.7995C28.0005 11.4755 26.9258 10.401 25.5991 10.4C24.2724 10.401 23.1977 11.4755 23.1986 12.7995V15.2H25.5991C26.9258 15.199 28.0005 14.1245 27.9995 12.7995ZM21.5993 12.7995V6.39951C21.6003 5.07645 20.5266 4.00196 19.1999 4C17.8732 4.00098 16.7985 5.07547 16.7995 6.39951V12.7995C16.7975 14.1235 17.8722 15.198 19.1989 15.2C20.5256 15.199 21.6003 14.1245 21.5993 12.7995Z" fill="#2EB67D"/>
<path fill-rule="evenodd" clip-rule="evenodd" d="M19.1999 27.9998C20.5266 27.9988 21.6013 26.9243 21.6003 25.6003C21.6013 24.2763 20.5266 23.2018 19.1999 23.2008H16.7995V25.6003C16.7985 26.9234 17.8732 27.9978 19.1999 27.9998ZM19.1999 21.5988H25.6001C26.9268 21.5978 28.0015 20.5234 28.0005 19.1993C28.0024 17.8753 26.9277 16.8008 25.601 16.7988H19.2009C17.8742 16.7998 16.7995 17.8743 16.8004 19.1983C16.7995 20.5234 17.8732 21.5978 19.1999 21.5988Z" fill="#ECB22E"/>
<path fill-rule="evenodd" clip-rule="evenodd" d="M4 19.1994C3.99902 20.5234 5.07371 21.5979 6.40041 21.5989C7.72711 21.5979 8.8018 20.5234 8.80082 19.1994V16.7998H6.40041C5.07371 16.8008 3.99902 17.8753 4 19.1994ZM10.4001 19.1994V25.5995C10.3982 26.9235 11.4728 27.998 12.7995 28C14.1262 27.999 15.2009 26.9245 15.2 25.6005V19.2013C15.2019 17.8773 14.1272 16.8028 12.8005 16.8008C11.4728 16.8008 10.3991 17.8753 10.4001 19.1994C10.4001 19.2004 10.4001 19.1994 10.4001 19.1994Z" fill="#E01E5A"/>
</svg>
