<svg width="32" height="32" viewBox="0 0 32 32" fill="none" xmlns="http://www.w3.org/2000/svg">
<path d="M22.3615 22.8047C22.3637 23.6564 22.6622 24.5273 22.6619 25.3789C22.6615 26.2434 22.3624 27.0887 22.3651 27.9532C18.0712 27.9526 13.7773 27.9532 9.48357 27.9528C9.48563 27.103 9.08343 26.2287 9.08308 25.3789C9.08276 24.5127 9.48428 23.671 9.48602 22.8047C13.7779 22.806 18.0696 22.805 22.3615 22.8047Z" fill="#3BAB59"/>
<path d="M17.3937 8.60417C17.9902 8.00899 18.9423 7.69541 19.5319 7.09344C21.9749 9.5515 24.4283 12 26.8771 14.4529C27.0977 14.6801 27.3667 14.8891 27.4528 15.2096C27.537 15.4182 27.5112 15.6454 27.515 15.8647C27.5154 19.4563 27.5147 23.0475 27.5156 26.6387C27.5698 27.3474 26.8942 28.0093 26.1886 27.953C24.9142 27.953 23.64 27.9533 22.3655 27.953C22.3603 26.2368 22.3665 24.5207 22.362 22.8046C22.3651 20.9178 22.3634 19.0314 22.3627 17.145C20.7721 15.5569 19.185 13.9652 17.5954 12.3764C17.0409 11.8171 16.4778 11.2659 15.9284 10.7018C16.2296 10.4135 17.0821 8.91519 17.3937 8.60417Z" fill="#4586F7"/>
<path d="M9.4819 17.152C9.48906 19.036 9.48118 20.9204 9.48598 22.8046C9.48254 24.5208 9.4877 26.2366 9.48362 27.9528C8.14252 27.9521 6.80142 27.9531 5.46032 27.9521C4.90026 27.8818 4.40712 27.4103 4.33576 26.8457C4.33132 25.3314 4.3344 23.817 4.33476 22.3029C5.22838 21.4176 5.78589 20.2678 6.67642 19.3794C7.50139 18.551 8.66074 17.9842 9.4819 17.152Z" fill="#FDC00D"/>
<path d="M15.8575 4.00231C15.9684 4.01608 16.1002 3.97243 16.1987 4.03455C16.4663 4.08672 16.701 4.2415 16.8892 4.43468C17.6887 5.236 18.4889 6.03661 19.2893 6.83721C19.3695 6.92298 19.4631 6.99679 19.5314 7.09351C18.6337 8.01013 17.7192 8.90991 16.815 9.82C16.5185 10.1131 16.2291 10.4137 15.9279 10.7019C15.5305 11.0763 15.1544 11.4727 14.7652 11.8557C13.0048 13.6219 11.2382 15.3817 9.48186 17.1521C8.6607 17.9843 7.82958 18.8071 7.00452 19.6356C6.11408 20.524 5.22834 21.4176 4.33473 22.3029C4.33165 20.3617 4.33473 18.4203 4.33409 16.4794C4.33617 16.113 4.3282 15.7465 4.34088 15.3803C4.33717 15.3061 4.39305 15.2474 4.38961 15.1734C4.4415 15.0862 4.48778 14.9956 4.53823 14.9077C4.6652 14.7389 4.82306 14.5975 4.97032 14.4469C8.30143 11.1089 11.6335 7.77167 14.9656 4.43431C15.1019 4.29122 15.258 4.16117 15.4478 4.09632C15.5809 4.05176 15.7127 3.98692 15.8575 4.00231Z" fill="#EC5043"/>
</svg>
