<svg width="32" height="32" viewBox="0 0 32 32" fill="none" xmlns="http://www.w3.org/2000/svg">
<path fill-rule="evenodd" clip-rule="evenodd" d="M12.7666 4.50734C9.07821 4.79737 5.94218 5.05115 5.79964 5.06928C5.38981 5.15991 5.01563 5.43182 4.83745 5.81248L4.67708 6.13876L4.6949 14.0058L4.71272 21.8729L4.94436 22.3623C5.0869 22.6342 5.97782 23.9031 6.95783 25.1901C8.90002 27.7641 9.04257 27.891 9.77312 27.9817C9.98694 27.9998 11.6084 27.9273 13.3368 27.8185C15.083 27.7098 17.8983 27.5285 19.5732 27.4379C26.754 26.9847 26.3798 27.0209 26.8074 26.6584C27.3242 26.2234 27.2707 26.9484 27.3063 17.3774C27.3242 9.27472 27.3063 8.73091 27.1816 8.49526C27.0569 8.20523 26.8074 8.02396 23.5289 5.68559C21.3372 4.10855 21.1768 4.03605 20.1968 4.01792C19.787 3.99979 16.4372 4.23544 12.7666 4.50734Z" fill="white"/>
<path fill-rule="evenodd" clip-rule="evenodd" d="M12.7666 4.50734C9.07821 4.79737 5.94218 5.05115 5.79964 5.06928C5.38981 5.15991 5.01563 5.43182 4.83745 5.81248L4.67708 6.13876L4.6949 14.0058L4.71272 21.8729L4.94436 22.3623C5.0869 22.6342 5.97782 23.9031 6.95783 25.1901C8.90002 27.7641 9.04257 27.891 9.77312 27.9817C9.98694 27.9998 11.6084 27.9273 13.3368 27.8185C15.083 27.7098 17.8983 27.5285 19.5732 27.4379C26.754 26.9847 26.3798 27.0209 26.8074 26.6584C27.3242 26.2234 27.2707 26.9484 27.3063 17.3774C27.3242 9.27472 27.3063 8.73091 27.1816 8.49526C27.0569 8.20523 26.8074 8.02396 23.5289 5.68559C21.3372 4.10855 21.1768 4.03605 20.1968 4.01792C19.787 3.99979 16.4372 4.23544 12.7666 4.50734ZM21.0521 5.54058C21.3728 5.68559 23.6358 7.28076 23.9565 7.58892C24.0456 7.67955 24.0812 7.77018 24.0278 7.80644C23.9387 7.89707 9.91567 8.74904 9.50585 8.67653C9.32766 8.6584 9.06039 8.54964 8.90002 8.44088C8.25856 7.98771 6.67273 6.66444 6.67273 6.57381C6.67273 6.32003 6.61928 6.32003 12.8557 5.84873C14.0495 5.77623 16.0273 5.63121 17.2212 5.52245C19.8048 5.32305 20.571 5.32305 21.0521 5.54058ZM25.5067 9.63725C25.6136 9.74602 25.7027 9.94541 25.7383 10.1448C25.7561 10.3261 25.774 13.6977 25.7561 17.6131C25.7383 24.32 25.7205 24.7551 25.5958 24.9363C25.5245 25.0632 25.382 25.1901 25.2572 25.2264C24.9543 25.3533 10.272 26.2052 9.96912 26.1146C9.82658 26.0783 9.63057 25.9515 9.54148 25.8427L9.3633 25.6614L9.34548 18.4107C9.32766 13.317 9.34548 11.0693 9.39894 10.8699C9.43457 10.7249 9.5593 10.5436 9.64839 10.4711C9.77312 10.3805 10.6462 10.3079 13.6397 10.1267C15.7423 10.0179 19.003 9.81852 20.8561 9.69163C25.3107 9.41973 25.2929 9.41973 25.5067 9.63725Z" fill="black"/>
<path fill-rule="evenodd" clip-rule="evenodd" d="M21.5682 12.1206C20.7664 12.175 20.0537 12.2475 19.9824 12.3019C19.7329 12.4288 19.5904 12.6463 19.5548 12.8819C19.5369 13.1176 19.6082 13.1538 20.41 13.2626L20.7486 13.2988V16.5073C20.7486 18.4106 20.7308 19.6614 20.6773 19.6251C20.6417 19.5889 19.6082 17.9575 18.3609 16.036C17.1137 14.0783 16.0802 12.4831 16.0624 12.4831C16.0446 12.465 15.2427 12.5013 14.2627 12.5738C13.0689 12.6463 12.4096 12.7369 12.2849 12.8094C12.0711 12.9182 11.8216 13.317 11.8216 13.5707C11.8216 13.7339 12.1067 13.8245 12.6947 13.8245H13.0154V23.033L12.4987 23.1961C12.1245 23.3049 11.982 23.3774 11.9107 23.5405C11.8038 23.7943 11.8038 24.0118 11.9285 24.0118C11.9642 24.0118 12.8016 23.9756 13.7638 23.9031C15.6526 23.7943 15.8664 23.7399 16.0624 23.3411C16.1336 23.2324 16.1871 23.1055 16.1871 23.0511C16.1871 23.033 15.9198 22.9424 15.6169 22.8698C15.2962 22.7973 14.9755 22.7067 14.9042 22.7067C14.7795 22.6704 14.7795 22.4348 14.7795 19.2082V15.746L17.0246 19.317C19.3766 23.0692 19.6617 23.5043 20.0359 23.6856C20.4813 23.9212 21.6217 23.7581 22.1919 23.3774L22.3701 23.2686L22.3879 18.1569L22.4057 13.0269L22.7977 12.9544C23.261 12.8638 23.4748 12.6463 23.4748 12.2656C23.4748 12.03 23.457 12.0118 23.2432 12.03C23.1184 12.03 22.3522 12.0843 21.5682 12.1206Z" fill="black"/>
</svg>
