<svg width="32" height="32" viewBox="0 0 32 32" fill="none" xmlns="http://www.w3.org/2000/svg">
<path d="M16.0041 4.00488C16.0698 4.04247 16.1261 4.09885 16.1777 4.15523C18.115 6.1051 20.0571 8.05497 21.9897 10.0095C20.7701 11.2123 19.5692 12.4339 18.359 13.6414C17.904 14.1019 17.4395 14.553 16.9892 15.0228C16.6515 14.2053 16.3278 13.383 16.0041 12.5608C16.0041 11.7057 16.0088 10.8506 16.0041 9.99074C15.9994 7.99858 15.9947 6.00173 16.0041 4.00488Z" fill="#DD4B39" stroke="#DD4B39" stroke-width="0.61243"/>
<path d="M9.99609 9.99091H16.0052C16.0099 10.8507 16.0052 11.7058 16.0052 12.561C15.6721 13.3691 15.3485 14.1819 15.0295 14.9995C14.9263 14.9431 14.8512 14.8585 14.7715 14.7739L10.0149 10.0097L9.99609 9.99091Z" fill="#EF851C" stroke="#EF851C" stroke-width="0.61243"/>
<path d="M21.9903 10.0096L22.0091 9.99554C22.0044 11.9971 22.0044 14.0033 22.0091 16.0049H19.4244C18.6175 15.6666 17.8012 15.3565 16.9898 15.0229C17.4401 14.5531 17.9045 14.102 18.3595 13.6416C19.5698 12.4341 20.7707 11.2124 21.9903 10.0096Z" fill="#7E3794" stroke="#7E3794" stroke-width="0.61243"/>
<path d="M9.01519 11.001C9.35294 10.6768 9.66723 10.3291 10.0144 10.0096L14.771 14.7738C14.8507 14.8584 14.9258 14.943 15.029 14.9994C14.9211 15.0792 14.7851 15.1074 14.6631 15.1638C13.9688 15.4457 13.2651 15.7088 12.5756 16.0095C11.7171 16.0001 10.8587 16.0048 10.0003 16.0048C8.00194 16.0001 6.0036 16.0142 4.00525 16.0001C5.67054 14.3275 7.34521 12.6642 9.01519 11.001Z" fill="#FFBB1B" stroke="#FFBB1B" stroke-width="0.61243"/>
<path d="M10.0007 16.0048C10.8591 16.0048 11.7175 16.0001 12.576 16.0095C13.3875 16.3431 14.1991 16.6579 15.0106 16.9868C13.6784 18.3399 12.3321 19.6743 10.9951 21.0227C10.6574 21.3422 10.3525 21.6946 9.99597 21.9953C9.99597 19.9985 9.99128 18.0016 10.0007 16.0048Z" fill="#1A8763" stroke="#1A8763" stroke-width="0.61243"/>
<path d="M19.4244 16.0049H22.0091C24.0028 16.0096 26.0011 16.0002 27.9948 16.0096C26.7142 17.3111 25.4148 18.5984 24.1295 19.8905C23.4165 20.6 22.7128 21.3188 21.9998 22.0189C20.4049 20.4027 18.7865 18.8052 17.1869 17.1889C17.1212 17.1184 17.0508 17.0573 16.9711 17.0104C17.1071 16.9257 17.2572 16.8835 17.4026 16.8224C18.0781 16.5499 18.7536 16.2868 19.4244 16.0049Z" fill="#427FED" stroke="#427FED" stroke-width="0.61243"/>
<path d="M15.0107 16.987C15.3532 17.8045 15.6628 18.6315 16.0052 19.449C16.0005 20.3041 16.0052 21.1639 16.0005 22.019V26.1537C15.9911 26.7692 16.0146 27.3847 15.9911 27.9955C15.8926 27.9485 15.8316 27.8592 15.7518 27.784C13.8333 25.853 11.9194 23.9219 9.99609 21.9956C10.3526 21.6949 10.6575 21.3425 10.9953 21.023C12.3322 19.6745 13.6785 18.3402 15.0107 16.987Z" fill="#65B045" stroke="#65B045" stroke-width="0.61243"/>
<path d="M16.971 17.0103C17.0507 17.0573 17.1211 17.1184 17.1868 17.1889C18.7864 18.8051 20.4048 20.4026 21.9997 22.0189C19.9967 22.0142 17.9984 22.0236 16.0001 22.0189C16.0048 21.1638 16.0001 20.3039 16.0048 19.4488C16.319 18.636 16.6567 17.8278 16.971 17.0103Z" fill="#43459D" stroke="#43459D" stroke-width="0.61243"/>
</svg>
