<svg width="32" height="32" viewBox="0 0 32 32" fill="none" xmlns="http://www.w3.org/2000/svg">
<path d="M24.4118 23.0328C25.3927 22.8758 27.4404 22.5048 27.4974 21.5159C27.5134 21.238 27.3195 20.991 27.0475 20.947V20.946C24.0208 20.4381 22.115 16.9534 22.409 16.2565C22.6209 15.7525 23.5668 15.5576 23.9838 15.3936C25.9796 14.5937 25.1197 13.2248 23.9408 13.2248C23.4099 13.2248 22.7799 13.8008 22.199 13.5298C22.379 10.4651 22.6989 8.30633 20.5312 6.21855C17.7175 3.51283 12.0081 3.8278 10.0603 8.27333C9.48133 9.59219 9.70331 12.0029 9.7963 13.5298C9.38634 13.7128 8.8004 13.5158 8.39544 13.3218C7.37455 12.8359 5.62873 14.4327 8.01448 15.3926C9.04837 15.8055 10.0263 15.9235 9.48033 17.0534C9.42133 17.1614 9.08937 17.9853 8.31045 18.9072C6.06469 21.5679 4.0189 20.4801 4.55685 21.7549V21.7569C4.89781 22.5678 6.70962 22.8928 7.58553 23.0328C7.8265 23.4917 7.65152 24.5456 8.47243 24.5456C8.91339 24.5456 9.7533 24.1807 11.0692 24.4056C12.843 24.7076 14.8578 28.4592 19.3163 25.2575L19.3173 25.2555C20.2782 24.5656 20.9531 24.0547 22.9969 24.4646C24.4788 24.7566 24.0668 23.7157 24.4118 23.0328Z" fill="#FFEB3B"/>
<path d="M15.9445 27.0123C15.9615 27.0153 15.9115 27.0183 15.8595 27.0183C14.2756 27.0183 13.2308 26.2664 12.3908 25.6615C9.32217 23.4517 7.94131 26.8064 7.20139 23.4757C2.95983 22.7228 3.79275 20.631 4.87163 20.452C6.1145 20.2421 7.1294 19.5331 7.93031 18.5852C8.45526 17.9643 9.22318 16.6704 9.12919 16.4484C9.0292 16.2085 8.12329 15.9755 7.83032 15.8575C4.81364 14.6416 6.96041 12.0889 8.60924 12.8698C8.89821 13.0088 9.11419 13.0678 9.26917 13.0908C9.17718 11.59 9.0192 9.40219 9.60314 8.07233C11.9719 2.6589 20.016 2.6259 22.3958 8.07333C22.9817 9.40719 22.8207 11.59 22.7288 13.0698C23.2177 12.9478 23.7636 12.4999 24.6336 12.8598C25.9934 13.3548 26.3314 15.1906 23.7996 15.9855C23.5697 16.0605 22.9517 16.2595 22.8717 16.4504C22.7548 16.7304 24.3186 19.9821 27.1323 20.454C27.6562 20.541 28.0292 21.01 27.9982 21.5459C27.9262 22.8158 26.0644 23.2507 24.8005 23.4757C24.6156 24.3126 24.4786 25.0305 23.5547 25.0305C21.9748 24.9376 21.4739 24.3226 19.6111 25.6645C18.5092 26.4524 17.4253 27.1053 15.9445 27.0123ZM18.9292 24.9206C21.1919 23.2937 21.7429 23.8987 23.5527 24.0297C23.7696 24.0297 23.6147 23.6567 24.0806 22.5798C24.4766 22.5008 26.7153 22.1858 26.9793 21.5629H26.9783L26.9643 21.4409C23.5967 20.875 22.1298 17.4193 22.0688 17.2724C21.0699 15.2166 23.8256 15.2336 24.5396 14.4887C24.8295 14.1847 24.6216 13.9187 24.2696 13.7907C23.6717 13.5428 23.4717 14.0567 22.5388 14.0997C22.0618 14.0787 21.9518 13.9487 21.6789 13.8387C21.9008 10.7221 22.2068 8.52728 20.184 6.57849C17.6303 4.12275 12.3278 4.33772 10.519 8.47329C9.9741 9.71316 10.2181 12.2229 10.3181 13.8457C10.1251 13.8827 9.58414 14.4487 8.17928 13.7717C7.79433 13.5887 6.44747 14.2207 8.20128 14.9286C8.67323 15.1176 9.74112 15.3196 10.0511 16.0635C10.527 17.2094 8.21228 20.904 5.03462 21.4379V21.4389L5.01762 21.5629C5.29959 22.2348 7.81132 22.5468 7.91131 22.5778C8.37526 23.6947 8.0753 23.0518 8.33527 23.9477C8.44126 24.3076 9.32816 23.5947 11.155 23.9127C13.0638 24.2376 14.9326 27.7833 18.9292 24.9206Z" fill="#212121"/>
</svg>
