<svg width="32" height="32" viewBox="0 0 32 32" fill="none" xmlns="http://www.w3.org/2000/svg">
<path d="M5.54699 18.8148C5.54699 19.83 5.77048 20.6061 6.0626 21.0768C6.21826 21.3448 6.44243 21.567 6.71231 21.7208C6.9822 21.8746 7.28819 21.9546 7.5992 21.9526C8.35035 21.9526 9.03751 21.7681 10.3618 19.9444C11.4226 18.4835 12.6727 16.4375 13.5147 15.1454L14.9391 12.9674C15.9286 11.4548 17.072 9.77331 18.387 8.62986C19.4581 7.70328 20.6145 7.18646 21.7783 7.18646C23.7322 7.18646 25.5934 8.31331 27.0178 10.4267C28.5766 12.7413 29.3361 15.6567 29.3361 18.6653C29.3361 20.4539 28.9819 21.7681 28.3791 22.8063C27.7977 23.8104 26.6589 24.8136 24.7495 24.8136V21.9526C26.3844 21.9526 26.7896 20.4576 26.7896 18.7465C26.7896 16.3083 26.2184 13.6024 24.96 11.6689C24.067 10.2975 22.9096 9.45953 21.6364 9.45953C20.2593 9.45953 19.1511 10.4932 17.9057 12.3362C17.2436 13.3153 16.5638 14.5086 15.8006 15.8551L14.9605 17.3317C13.2727 20.3099 12.8452 20.9882 12.0013 22.1077C10.525 24.0753 9.26193 24.8136 7.5992 24.8136C5.62675 24.8136 4.37947 23.9636 3.61163 22.6826C2.9764 21.6389 2.66667 20.2693 2.66667 18.7087L5.54699 18.8148Z" fill="#0081FB"/>
<path d="M4.93779 10.6288C6.25832 8.60309 8.16401 7.18646 10.3498 7.18646C11.6156 7.18646 12.874 7.55562 14.188 8.62709C15.6254 9.79454 17.1555 11.7169 19.0686 14.8852L19.7539 16.0222C21.4083 18.765 22.3505 20.1752 22.9004 20.8415C23.6089 21.6961 24.106 21.9489 24.7495 21.9489C26.3844 21.9489 26.7897 20.4539 26.7897 18.7428L29.3306 18.6635C29.3306 20.452 28.9764 21.7662 28.3736 22.8045C27.7977 23.8104 26.6589 24.8136 24.7495 24.8136C23.5625 24.8136 22.5109 24.557 21.348 23.4652C20.4541 22.6273 19.409 21.1386 18.605 19.8005L16.2133 15.8247C15.0134 13.8294 13.9126 12.3417 13.2755 11.6717C12.5893 10.9435 11.7092 10.0686 10.3034 10.0686C9.16554 10.0686 8.19925 10.8632 7.39061 12.0787L4.93779 10.6288Z" fill="url(#paint0_linear_6_2906)"/>
<path d="M10.3033 10.0686C9.16548 10.0686 8.19919 10.8632 7.39055 12.0787C6.24714 13.7962 5.54699 16.3544 5.54699 18.8148C5.54699 19.83 5.77048 20.6061 6.0626 21.0768L3.60699 22.6826C2.9764 21.6389 2.66667 20.2693 2.66667 18.7087C2.66667 15.8708 3.44935 12.913 4.93773 10.6288C6.25827 8.60309 8.16395 7.18646 10.3497 7.18646L10.3033 10.0686Z" fill="url(#paint1_linear_6_2906)"/>
<defs>
<linearGradient id="paint0_linear_6_2906" x1="8.44778" y1="15.5432" x2="26.8087" y2="16.475" gradientUnits="userSpaceOnUse">
<stop stop-color="#0064E1"/>
<stop offset="0.4" stop-color="#0064E1"/>
<stop offset="0.83" stop-color="#0073EE"/>
<stop offset="1" stop-color="#0082FB"/>
</linearGradient>
<linearGradient id="paint1_linear_6_2906" x1="6.50772" y1="20.0146" x2="6.50772" y2="13.2775" gradientUnits="userSpaceOnUse">
<stop stop-color="#0082FB"/>
<stop offset="1" stop-color="#0064E0"/>
</linearGradient>
</defs>
</svg>
