<svg width="32" height="32" viewBox="0 0 32 32" fill="none" xmlns="http://www.w3.org/2000/svg">
<path d="M23.4641 22.2349C23.3149 22.1544 23.1333 22.1623 22.9916 22.2555C21.919 22.9606 20.8316 23.3181 19.7593 23.3181C19.1832 23.3181 18.6881 23.1894 18.244 22.9234C17.9422 22.7447 17.6617 22.4323 17.5612 22.1607C17.4637 21.9025 17.4648 21.2074 17.4662 20.2455L17.4667 14.38H22.3401C22.595 14.38 22.8016 14.1733 22.8016 13.9185V9.79711C22.8016 9.54225 22.595 9.33557 22.3401 9.33557H17.4667V4.46154C17.4667 4.20668 17.2601 4 17.0052 4H13.7221C13.4888 4 13.2922 4.17418 13.2639 4.40588C13.1268 5.53471 12.8709 6.472 12.5027 7.1932C12.1436 7.90397 11.6578 8.52252 11.058 9.03243C10.5774 9.44228 9.75476 9.83883 8.61273 10.2111C8.42276 10.273 8.29427 10.4501 8.29427 10.6499V13.9186C8.29427 14.1734 8.50085 14.3801 8.75581 14.3801H11.4284V22.0108C11.4284 23.1352 11.5477 23.9813 11.7932 24.5978C12.0433 25.2241 12.4874 25.8139 13.1135 26.351C13.7293 26.8786 14.4787 27.2914 15.3434 27.5785C16.1818 27.8519 16.8494 28.0001 17.9752 28.0001C18.9269 28.0001 19.834 27.9014 20.6718 27.7066C21.4953 27.5145 22.4272 27.1749 23.4418 26.6974C23.6036 26.6212 23.7068 26.4586 23.7068 26.2798V22.6413C23.7066 22.4715 23.6136 22.3155 23.4641 22.2349Z" fill="black"/>
</svg>
