<svg width="32" height="32" viewBox="0 0 32 32" fill="none" xmlns="http://www.w3.org/2000/svg">
<path d="M12.4771 10.5625C12.9946 10.5625 13.4669 10.6086 13.8941 10.6998C14.3213 10.791 14.6861 10.9407 14.9904 11.1491C15.2947 11.3574 15.5309 11.6339 15.6989 11.9795C15.8669 12.3251 15.9504 12.7513 15.9504 13.2591C15.9504 13.8073 15.8256 14.2643 15.577 14.63C15.3283 14.9958 14.9597 15.2953 14.473 15.5286C15.1431 15.7215 15.6432 16.0595 15.9735 16.5414C16.3037 17.0233 16.4688 17.6051 16.4688 18.2857C16.4688 18.8339 16.3623 19.3091 16.1491 19.7103C15.936 20.1116 15.649 20.439 15.288 20.6924C14.9271 20.9468 14.5162 21.134 14.0544 21.2559C13.5898 21.3779 13.1107 21.4393 12.6307 21.4383H7.35938V10.5625H12.4771ZM12.1728 14.9641C12.5991 14.9641 12.9495 14.8623 13.224 14.6598C13.4986 14.4563 13.6359 14.127 13.6349 13.67C13.6349 13.4166 13.5888 13.2083 13.4976 13.046C13.4064 12.8838 13.2845 12.7561 13.1319 12.6649C12.9792 12.5737 12.8045 12.5103 12.6067 12.4748C12.4032 12.4393 12.1968 12.4211 11.9895 12.422H9.7517V14.966L12.1728 14.9641ZM12.3101 19.5788C12.5357 19.5798 12.7603 19.5567 12.9802 19.5107C13.1933 19.4646 13.3815 19.3887 13.5437 19.2822C13.7059 19.1756 13.8355 19.0307 13.9325 18.8483C14.0285 18.6659 14.0775 18.4316 14.0775 18.1475C14.0775 17.5897 13.92 17.1903 13.6051 16.9523C13.2903 16.7132 12.8736 16.5942 12.3562 16.5942H9.7517V19.5798L12.3101 19.5788ZM19.4775 19.3503C19.8019 19.6652 20.2695 19.8227 20.8791 19.8227C21.3159 19.8227 21.6912 19.7132 22.0061 19.4953C22.321 19.2774 22.5139 19.046 22.585 18.8022H24.4887C24.1843 19.7468 23.7168 20.4217 23.0871 20.8278C22.4573 21.2339 21.696 21.4374 20.8023 21.4374C20.1831 21.4374 19.6243 21.3385 19.1271 21.1407C18.6298 20.943 18.2083 20.6607 17.8627 20.295C17.5171 19.9292 17.2503 19.4934 17.0631 18.9855C16.8759 18.4777 16.7818 17.919 16.7818 17.3103C16.7818 16.7219 16.8778 16.1737 17.0707 15.6659C17.2637 15.158 17.5383 14.7193 17.8935 14.3487C18.2487 13.9782 18.673 13.6863 19.1655 13.4732C19.6579 13.2601 20.2042 13.1535 20.8032 13.1535C21.4733 13.1535 22.057 13.2831 22.5552 13.5423C23.0525 13.8015 23.4615 14.1491 23.7811 14.5859C24.1008 15.0227 24.3322 15.5199 24.4743 16.0787C24.6163 16.6374 24.6672 17.2211 24.6269 17.8307H18.9456C18.9754 18.5286 19.153 19.0364 19.4775 19.3503ZM21.9226 15.2079C21.6634 14.9238 21.2698 14.7817 20.7418 14.7817C20.3962 14.7817 20.1091 14.8403 19.8816 14.9564C19.6531 15.0735 19.4707 15.2175 19.3335 15.3903C19.1962 15.5631 19.1002 15.7455 19.0445 15.9385C18.9888 16.1315 18.9552 16.3043 18.9456 16.4559H22.464C22.3613 15.9087 22.1808 15.4921 21.9226 15.2079ZM18.5751 11.1145H22.9709V12.3337H18.5751V11.1145Z" fill="#151515"/>
</svg>
