<svg width="32" height="32" viewBox="0 0 32 32" fill="none" xmlns="http://www.w3.org/2000/svg">
<path d="M16.1046 25.3979C11.3591 25.3979 5.96706 19.6706 6.39828 14.9158C6.82951 10.3773 12.8692 6.16295 17.3447 6.8113C21.2813 7.35126 24.7868 12.3223 24.5704 16.2667C24.3555 20.4263 20.2566 25.3979 16.1046 25.3979Z" fill="white"/>
<path d="M19.5024 27.8283C19.1783 27.7204 18.693 27.6125 18.4235 27.5041C18.1 27.3425 17.7223 27.3425 16.5364 27.3962C15.4039 27.4499 14.8104 27.3962 14.0021 27.2878C9.68782 26.5321 6.2365 23.3982 4.99642 19.076C4.78055 18.2655 4.72696 17.8334 4.72696 15.8884C4.72696 13.7807 4.67287 13.6191 4.40342 12.7545C2.83979 8.48595 6.02114 4.00165 10.5508 4.00165C11.4673 4.00165 12.5997 4.27213 13.2468 4.59581C13.6785 4.81209 13.948 4.86579 15.6193 4.86579C17.1294 4.86579 17.7223 4.91999 18.4771 5.13627C21.8748 6.00092 24.6245 8.21597 26.0804 11.2957C26.997 13.1865 27.321 15.1321 27.1046 17.3467C26.997 18.536 26.997 18.6439 27.2664 19.3459C28.1294 21.8857 27.3205 24.8028 25.2175 26.5321C24.5699 27.0725 23.2762 27.6667 22.4673 27.883C21.658 28.0451 20.3643 28.0451 19.5549 27.8288H19.5024V27.8283ZM18.0459 23.6681C19.8259 23.2903 21.389 22.2093 21.9825 20.9131C22.7373 19.3459 22.5214 17.5088 21.4972 16.3741C20.6343 15.4016 19.3401 14.8616 16.2664 14.1054C14.2169 13.6191 13.7316 13.4028 13.3004 12.9166C12.9228 12.484 12.8687 12.1603 13.1927 11.674C13.5163 11.1336 14.3251 10.8094 15.4034 10.7557C16.9676 10.6478 17.6683 11.0257 18.5848 12.4845C19.286 13.5654 19.9867 13.8354 20.9042 13.4028C22.0902 12.8087 21.9825 10.8636 20.6878 9.72897C19.4478 8.70274 18.1 8.27017 15.8347 8.27017C13.4622 8.27017 11.8439 8.75644 10.7656 9.83686C9.90267 10.7015 9.7414 11.1878 9.7414 12.5382C9.7414 13.9428 9.90318 14.3749 10.8197 15.1858C11.7904 16.1041 12.5992 16.4288 15.5106 17.1309C17.5601 17.6171 18.0995 17.8871 18.5843 18.4276C18.8007 18.6981 18.9083 18.9139 18.9083 19.4001C18.9083 19.9406 18.8542 20.0485 18.423 20.4811C17.7759 21.1289 16.8053 21.3989 15.5652 21.3457C14.1093 21.2373 13.4622 20.8052 12.7074 19.2922C12.168 18.266 11.7368 17.8876 11.0356 17.8876C9.47145 17.8876 8.93254 19.1843 9.7414 20.8589C10.4426 22.3182 11.8444 23.2908 13.6239 23.6686C14.7023 23.8849 17.0753 23.8849 18.1 23.6686H18.0459V23.6681Z" fill="#00AFF0"/>
</svg>
