<svg width="32" height="32" viewBox="0 0 32 32" fill="none" xmlns="http://www.w3.org/2000/svg">
<path d="M21.523 19.2947C20.972 19.2947 20.5237 18.8523 20.5237 18.309C20.5237 17.7656 20.972 17.3236 21.523 17.3236C22.0742 17.3236 22.5224 17.7655 22.5224 18.309C22.5224 18.8524 22.0742 19.2947 21.523 19.2947ZM10.477 19.2947C9.92592 19.2947 9.47767 18.8523 9.47767 18.309C9.47767 17.7656 9.92583 17.3236 10.477 17.3236C11.028 17.3236 11.4763 17.7655 11.4763 18.309C11.4763 18.8524 11.0281 19.2947 10.477 19.2947ZM21.8815 13.3587L23.8788 9.9477C23.9338 9.85357 23.9486 9.74177 23.9201 9.63684C23.8916 9.53191 23.822 9.44242 23.7267 9.38801C23.6312 9.33382 23.5178 9.31918 23.4114 9.34729C23.305 9.37541 23.2143 9.44399 23.1591 9.53799L21.1368 12.9921C19.5902 12.2962 17.8534 11.9085 16 11.9085C14.1466 11.9085 12.4098 12.2962 10.8633 12.9921L8.84092 9.53799C8.78572 9.44399 8.69496 9.37541 8.58856 9.34729C8.48216 9.31918 8.36879 9.33382 8.27332 9.38801C8.17791 9.44237 8.1083 9.53186 8.07978 9.63681C8.05126 9.74176 8.06616 9.85358 8.12122 9.9477L10.1185 13.3587C6.68885 15.198 4.34316 18.6217 4 22.6666H28C27.6566 18.6218 25.3109 15.198 21.8815 13.3586" fill="#3DDB85"/>
</svg>
