<svg width="32" height="32" viewBox="0 0 32 32" fill="none" xmlns="http://www.w3.org/2000/svg">
<path d="M23.8201 8.66503C23.8008 8.54937 23.7044 8.47226 23.608 8.47226C23.5117 8.47226 21.6803 8.33732 21.6803 8.33732C21.6803 8.33732 20.408 7.06503 20.2538 6.93009C20.1189 6.79515 19.8297 6.8337 19.7333 6.87226C19.7141 6.87226 19.4442 6.94937 19.0201 7.08431C18.596 5.85057 17.8442 4.71322 16.5141 4.71322C16.4755 4.71322 16.437 4.71322 16.3984 4.71322C16.0129 4.21202 15.5502 3.99997 15.1454 3.99997C12.0418 3.99997 10.5574 7.87467 10.0948 9.84093C8.89961 10.2072 8.03214 10.4771 7.93575 10.5156C7.26105 10.7277 7.24178 10.747 7.16467 11.3831C7.08756 11.8458 5.33334 25.4361 5.33334 25.4361L19.0201 28L26.4418 26.4C26.4418 26.4 23.8394 8.79997 23.8201 8.66503ZM18.249 7.31563C17.902 7.43129 17.5165 7.54696 17.0924 7.6819C17.0924 7.60479 17.0924 7.52768 17.0924 7.43129C17.0924 6.66021 16.9767 6.04334 16.8225 5.56142C17.5165 5.63852 17.9598 6.40961 18.249 7.31563ZM15.9743 5.69635C16.1671 6.17828 16.2827 6.85298 16.2827 7.77828C16.2827 7.81684 16.2827 7.87467 16.2827 7.91322C15.5309 8.14455 14.702 8.39515 13.8924 8.64575C14.355 6.89154 15.2225 6.02407 15.9743 5.69635ZM15.049 4.82889C15.1839 4.82889 15.3189 4.86744 15.4538 4.96382C14.4707 5.42648 13.3912 6.60238 12.9478 8.95419C12.2924 9.16623 11.6562 9.35901 11.0586 9.5325C11.5791 7.73973 12.8321 4.82889 15.049 4.82889Z" fill="#95BF47"/>
<path d="M23.6075 8.47254C23.5111 8.47254 21.6798 8.3376 21.6798 8.3376C21.6798 8.3376 20.4075 7.06531 20.2533 6.93037C20.1954 6.87254 20.1376 6.85326 20.0605 6.83398L19.0195 28.0002L26.4412 26.4002C26.4412 26.4002 23.8388 8.80025 23.8195 8.68459C23.8003 8.54965 23.6846 8.49182 23.6075 8.47254Z" fill="#5E8E3E"/>
<path d="M16.4949 12.5784L15.5889 15.2965C15.5889 15.2965 14.7792 14.8724 13.8154 14.8724C12.3696 14.8724 12.3118 15.7784 12.3118 16.0097C12.3118 17.2435 15.5503 17.7254 15.5503 20.6362C15.5503 22.9302 14.1045 24.3953 12.1383 24.3953C9.78646 24.3953 8.59128 22.9302 8.59128 22.9302L9.22742 20.8483C9.22742 20.8483 10.4612 21.9085 11.5021 21.9085C12.1768 21.9085 12.466 21.3688 12.466 20.9832C12.466 19.3639 9.80574 19.2868 9.80574 16.6266C9.80574 14.3904 11.4057 12.2121 14.6636 12.2121C15.878 12.2121 16.4949 12.5784 16.4949 12.5784Z" fill="white"/>
</svg>
