<svg width="32" height="32" viewBox="0 0 32 32" fill="none" xmlns="http://www.w3.org/2000/svg">
<path d="M22.9901 15.4171C23.0238 19.0491 26.1763 20.2577 26.2112 20.2731C26.1846 20.3583 25.7075 21.9955 24.5504 23.6866C23.55 25.1486 22.5119 26.6052 20.8764 26.6354C19.2694 26.665 18.7527 25.6825 16.9154 25.6825C15.0787 25.6825 14.5046 26.6053 12.9834 26.6651C11.4048 26.7249 10.2026 25.0841 9.19403 23.6274C7.13303 20.6477 5.558 15.2076 7.67287 11.5354C8.72349 9.71176 10.601 8.55696 12.6389 8.52735C14.1891 8.49778 15.6522 9.57025 16.5999 9.57025C17.547 9.57025 19.325 8.28051 21.1943 8.46992C21.9768 8.50249 24.1734 8.78602 25.5838 10.8506C25.4702 10.921 22.9629 12.3806 22.9901 15.4171ZM19.97 6.49862C20.8081 5.48412 21.3722 4.07185 21.2183 2.66666C20.0102 2.71521 18.5494 3.47168 17.6829 4.48561C16.9063 5.3835 16.2262 6.82063 16.4097 8.19801C17.7562 8.30219 19.1318 7.51375 19.97 6.49862Z" fill="black"/>
</svg>
