<svg width="32" height="32" viewBox="0 0 32 32" fill="none" xmlns="http://www.w3.org/2000/svg">
<path d="M12.0531 22.7594C10.7219 21.1938 9.86875 18.8781 9.8125 16.2812V15.7188C9.86875 13.1219 10.7313 10.8063 12.0531 9.24063C13.7781 7.00938 16.3094 6.00625 19.1688 6.00625C20.9312 6.00625 22.5906 6.12813 23.9969 7.06563C21.8875 5.1625 19.1031 4.00938 16.0469 4H16C9.37188 4 4 9.37188 4 16C4 22.4312 9.0625 27.6906 15.4281 27.9906C15.6156 28 15.8125 28 16 28C19.075 28 21.8781 26.8469 23.9969 24.9437C22.5906 25.8812 21.025 25.9188 19.2625 25.9188C16.4125 25.9281 13.7688 25 12.0531 22.7594Z" fill="url(#paint0_linear_6_2760)"/>
<path d="M12.0531 9.24066C13.15 7.93754 14.575 7.15941 16.1312 7.15941C19.6281 7.15941 22.4594 11.1157 22.4594 16.0094C22.4594 20.9032 19.6281 24.8594 16.1312 24.8594C14.575 24.8594 13.1594 24.0719 12.0531 22.7782C13.7781 25.0094 16.3375 26.4344 19.1875 26.4344C20.9406 26.4344 22.5906 25.9 23.9969 24.9625C26.4531 22.75 28 19.5532 28 16C28 12.4469 26.4531 9.25004 23.9969 7.05629C22.5906 6.11879 20.95 5.58441 19.1875 5.58441C16.3281 5.58441 13.7687 7.00004 12.0531 9.24066Z" fill="url(#paint1_linear_6_2760)"/>
<defs>
<linearGradient id="paint0_linear_6_2760" x1="13.999" y1="4.39129" x2="13.999" y2="27.6508" gradientUnits="userSpaceOnUse">
<stop offset="0.3" stop-color="#FF1B2D"/>
<stop offset="0.4381" stop-color="#FA1A2C"/>
<stop offset="0.5939" stop-color="#ED1528"/>
<stop offset="0.7581" stop-color="#D60E21"/>
<stop offset="0.9272" stop-color="#B70519"/>
<stop offset="1" stop-color="#A70014"/>
</linearGradient>
<linearGradient id="paint1_linear_6_2760" x1="20.025" y1="5.76226" x2="20.025" y2="26.3341" gradientUnits="userSpaceOnUse">
<stop stop-color="#9C0000"/>
<stop offset="0.7" stop-color="#FF4B4B"/>
</linearGradient>
</defs>
</svg>
