<svg width="32" height="32" viewBox="0 0 32 32" fill="none" xmlns="http://www.w3.org/2000/svg">
<path d="M8.592 6V26H4V6H8.592ZM20.052 6C20.052 10.194 18.469 14.105 15.637 17.068L15.359 17.351L21.702 26H16.034L9.141 16.6L10.92 15.268C13.778 13.128 15.455 9.89 15.557 6.344L15.562 6H20.052ZM25.5 21C26.163 21 26.7989 21.2634 27.2678 21.7322C27.7366 22.2011 28 22.837 28 23.5C28 24.163 27.7366 24.7989 27.2678 25.2678C26.7989 25.7366 26.163 26 25.5 26C24.837 26 24.2011 25.7366 23.7322 25.2678C23.2634 24.7989 23 24.163 23 23.5C23 22.837 23.2634 22.2011 23.7322 21.7322C24.2011 21.2634 24.837 21 25.5 21Z" fill="black"/>
</svg>
