<svg width="32" height="37" viewBox="0 0 32 37" fill="none" xmlns="http://www.w3.org/2000/svg">
<g clip-path="url(#clip0_202_15365)">
<path d="M29.8825 8.02079L15.9998 0.00561523L2.11715 8.02079C0.832472 8.7625 0.0410156 10.1333 0.0410156 11.6168V25.2497C0.0410156 26.7332 0.832472 28.1039 2.11715 28.8456L13.2356 35.2649C14.9461 36.2525 17.0536 36.2525 18.764 35.2649L29.8825 28.8456C31.1671 28.1039 31.9586 26.7332 31.9586 25.2497V11.6168C31.9586 10.1333 31.1671 8.7625 29.8825 8.02079ZM27.728 23.337C27.728 24.4348 27.1483 25.4493 26.2072 25.9981L18.2521 30.6381C16.8839 31.4362 15.192 31.4362 13.8238 30.6381L5.86859 25.9981C4.92752 25.4493 4.34777 24.4348 4.34777 23.337V13.2482C4.34777 12.1503 4.92752 11.1359 5.86859 10.5869L16.038 4.65548L26.2072 10.5869C27.1483 11.1359 27.728 12.1503 27.728 13.2482V23.337Z" fill="#BAC4C5"/>
<path d="M20.0394 13.7253L19.9579 13.7826L16.202 17.7684L16.1519 17.8423L16.1708 17.8502L20.0338 17.856L20.0394 17.8423L23.7036 14.3556L20.0394 13.7253Z" fill="#ED1A3B"/>
<path d="M20.0394 21.9595L20.0164 21.9648L16.1669 17.8893L16.1519 17.8425H20.0394L23.7036 21.2861L20.0394 21.9595Z" fill="#C2315D"/>
<path d="M16.1517 17.8425L20.0393 21.9595L19.8598 25.1609L16.1517 21.5L16.1421 21.466L16.1343 17.8919L16.1517 17.8425Z" fill="#94407E"/>
<path d="M12.0356 21.7296L12.0308 21.6917L16.1035 17.871L16.1526 17.842L16.1521 21.4997L12.4704 25.1606L12.0356 21.7296Z" fill="#577F9F"/>
<path d="M16.1525 17.842L12.0355 21.7296L8.60547 21.2751L12.495 17.842L12.5164 17.8242L16.106 17.8215L16.1525 17.842Z" fill="#00AEC5"/>
<path d="M16.1525 17.8424L16.1034 17.7618L12.0981 13.9591L12.0355 13.9548L8.60547 14.442L12.495 17.8424H16.1525Z" fill="#93C483"/>
<path d="M12.0356 13.955L16.1526 17.8426L16.1711 17.7464V14.2554L16.1521 14.1849L12.4657 10.5261L12.0356 13.955Z" fill="#FCDE11"/>
<path d="M16.1519 17.8424L20.0394 13.7254L19.8193 10.5261L16.1519 14.1849V17.8424Z" fill="#F78E36"/>
</g>
<defs>
<clipPath id="clip0_202_15365">
<rect width="32" height="37" fill="white"/>
</clipPath>
</defs>
</svg>
