<svg width="36" height="36" viewBox="0 0 36 36" fill="none" xmlns="http://www.w3.org/2000/svg">
<g clip-path="url(#clip0_202_15771)">
<path d="M34.7268 20.998C34.7154 21.0613 34.7074 21.1251 34.6954 21.1884L34.6338 20.8258C34.6675 20.8823 34.6954 20.941 34.7268 20.998C34.9126 19.9866 35.0101 18.9513 35.0101 17.9165C35.0101 15.6218 34.5609 13.3955 33.6732 11.2997C32.8169 9.27526 31.5917 7.45716 30.0296 5.89618C28.4697 4.3352 26.6505 3.11002 24.6272 2.25371C22.532 1.36718 20.3057 0.917924 18.011 0.917924C16.9294 0.917924 15.8462 1.0194 14.7921 1.2218C14.7898 1.22237 14.7869 1.22237 14.7841 1.22294C14.8434 1.25429 14.9032 1.28223 14.9614 1.31473L14.6039 1.25885C14.6638 1.24745 14.7242 1.23491 14.7841 1.22294C13.3377 0.453849 11.7112 0.0433655 10.0647 0.0433655C7.37657 0.0433655 4.84925 1.0901 2.94848 2.99144C1.04828 4.89221 0.000976562 7.41953 0.000976562 10.1076C0.000976562 11.8186 0.441106 13.5004 1.2672 14.9867C1.27804 14.9251 1.28545 14.863 1.29742 14.8014L1.35899 15.1577C1.32707 15.1019 1.29913 15.0437 1.2672 14.9867C1.09959 15.9496 1.01122 16.9336 1.01122 17.9165C1.01122 20.2118 1.46047 22.4375 2.34815 24.5339C3.20332 26.5589 4.42907 28.3759 5.98948 29.9368C7.5516 31.4978 9.36856 32.7247 11.3942 33.5788C13.4894 34.467 15.7162 34.9168 18.011 34.9168C19.0098 34.9168 20.0109 34.8256 20.9881 34.6523C20.9311 34.6204 20.8729 34.5913 20.8148 34.5576L21.1779 34.6215C21.1152 34.6335 21.052 34.6409 20.9881 34.6523C22.4938 35.504 24.1984 35.9567 25.939 35.9567C28.6265 35.9567 31.1527 34.9117 33.0535 33.0098C34.9548 31.1101 36.001 28.5823 36.001 25.8942C36.001 24.1775 35.5586 22.49 34.7268 20.998ZM18.0788 28.3274C12.0396 28.3274 9.33777 25.3582 9.33777 23.1331C9.33777 21.9917 10.1804 21.1918 11.3417 21.1918C13.9261 21.1918 13.2568 24.9027 18.0788 24.9027C20.5474 24.9027 21.9105 23.5624 21.9105 22.1907C21.9105 21.3657 21.5035 20.4513 19.8781 20.0505L14.5064 18.7095C10.1804 17.6246 9.39535 15.286 9.39535 13.0876C9.39535 8.52328 13.6929 6.80951 17.7287 6.80951C21.4465 6.80951 25.829 8.86421 25.829 11.6025C25.829 12.7758 24.813 13.4582 23.6523 13.4582C21.4465 13.4582 21.8524 10.4052 17.4095 10.4052C15.2048 10.4052 13.9837 11.4035 13.9837 12.8322C13.9837 14.2581 15.7248 14.7136 17.2367 15.058L21.2127 15.9405C25.5678 16.9108 26.6722 19.4535 26.6722 21.8486C26.6722 25.5578 23.825 28.3274 18.0788 28.3274ZM20.8148 34.5576C20.8729 34.5913 20.9311 34.6204 20.9881 34.6523C21.052 34.6409 21.1152 34.6335 21.1779 34.6215L20.8148 34.5576ZM34.6954 21.1884C34.7074 21.1251 34.7154 21.0613 34.7268 20.998C34.6954 20.941 34.6675 20.8823 34.6338 20.8258L34.6954 21.1884ZM1.29742 14.8014C1.28545 14.863 1.27804 14.9251 1.2672 14.9867C1.29913 15.0437 1.32707 15.1019 1.35899 15.1577L1.29742 14.8014ZM14.9614 1.31473C14.9032 1.28223 14.8434 1.25429 14.7841 1.22294C14.7242 1.23491 14.6638 1.24745 14.6039 1.25885L14.9614 1.31473Z" fill="#00AFF0"/>
</g>
<defs>
<clipPath id="clip0_202_15771">
<rect width="36.001" height="36" fill="white"/>
</clipPath>
</defs>
</svg>
