<svg width="36" height="36" viewBox="0 0 36 36" fill="none" xmlns="http://www.w3.org/2000/svg">
<path d="M32.5396 16.6151C34.4512 16.6151 36.0009 15.0655 36.0009 13.1539C36.0009 11.2423 34.4511 9.69263 32.5395 9.69263C30.6277 9.69263 29.0778 11.2424 29.0778 13.1542V16.6151H32.5396ZM22.847 16.6151C24.7588 16.6151 26.3086 15.0653 26.3086 13.1536V3.46186C26.3086 1.5501 24.7588 0.000320435 22.847 0.000320435C20.9353 0.000320435 19.3855 1.5501 19.3855 3.46186V13.1536C19.3855 15.0653 20.9353 16.6151 22.847 16.6151Z" fill="#2EB67D"/>
<path d="M3.46231 19.385C1.55072 19.385 0.00107002 20.9346 0.00107002 22.8462C0.00107002 24.7578 1.55087 26.3074 3.46246 26.3074C5.37421 26.3074 6.92415 24.7577 6.92415 22.8459V19.385H3.46231ZM13.1549 19.385C11.2432 19.385 9.69338 20.9347 9.69338 22.8465V32.5382C9.69338 34.45 11.2432 35.9998 13.1549 35.9998C15.0667 35.9998 16.6165 34.45 16.6165 32.5382V22.8465C16.6165 20.9347 15.0667 19.385 13.1549 19.385Z" fill="#E01E5A"/>
<path d="M19.3859 32.5388C19.3859 34.4504 20.9356 36 22.8472 36C24.7588 36 26.3084 34.4502 26.3084 32.5386C26.3084 30.6269 24.7586 29.077 22.8469 29.077L19.3859 29.077L19.3859 32.5388ZM19.3859 22.8462C19.3859 24.7579 20.9357 26.3077 22.8475 26.3077L32.5392 26.3077C34.451 26.3077 36.0007 24.7579 36.0007 22.8462C36.0007 20.9344 34.4509 19.3846 32.5392 19.3846L22.8475 19.3846C20.9357 19.3846 19.3859 20.9344 19.3859 22.8462Z" fill="#ECB22E"/>
<path d="M16.616 3.46127C16.616 1.54968 15.0664 3.30834e-05 13.1548 3.29999e-05C11.2432 3.29163e-05 9.69353 1.54983 9.69353 3.46142C9.69353 5.37318 11.2433 6.92311 13.1551 6.92311L16.616 6.92311L16.616 3.46127ZM16.616 13.1539C16.616 11.2421 15.0662 9.69234 13.1545 9.69234L3.46276 9.69234C1.551 9.69234 0.00122094 11.2421 0.00122085 13.1539C0.00122077 15.0656 1.55101 16.6154 3.46276 16.6154L13.1545 16.6154C15.0662 16.6154 16.616 15.0656 16.616 13.1539Z" fill="#36C5F0"/>
</svg>
