<svg width="37" height="36" viewBox="0 0 37 36" fill="none" xmlns="http://www.w3.org/2000/svg">
<g clip-path="url(#clip0_202_13198)">
<path d="M7.04301 0.592773L36.0012 6.45178L30.1421 35.4108L1.18384 29.5518L7.04301 0.592773Z" fill="#512833"/>
<path d="M3.37839 1.87134L32.7861 4.72554L29.9319 34.1334L0.52417 31.2793L3.37839 1.87134Z" fill="#934358"/>
<path d="M29.5479 3.22998H0.0012207V32.7766H29.5479V3.22998Z" fill="#E5637C"/>
<path d="M10.1921 23.5163C10.1921 23.3417 10.3013 23.0789 10.5204 22.7286C10.739 22.3785 10.936 22.2034 11.1112 22.2034C11.1284 22.2034 11.2688 22.2867 11.5314 22.453C11.794 22.6195 12.1703 22.7856 12.6606 22.9518C13.1505 23.1184 13.7414 23.2014 14.4331 23.2014C15.1245 23.2014 15.6936 23.0043 16.14 22.6105C16.5865 22.2166 16.8097 21.6828 16.8097 21.0087C16.8097 20.3349 16.6127 19.8097 16.2188 19.433C15.8248 19.0568 15.0412 18.7023 13.8685 18.3695C12.6954 18.0372 11.8465 17.6126 11.3213 17.0959C10.7962 16.5798 10.5335 15.796 10.5335 14.7456C10.5335 13.6952 10.936 12.8155 11.7414 12.1065C12.5464 11.3975 13.5969 11.043 14.8926 11.043C15.7854 11.043 16.5819 11.1569 17.2823 11.3843C17.9823 11.6121 18.3326 11.8661 18.3326 12.1459C18.3326 12.3736 18.2317 12.667 18.0308 13.0256C17.8292 13.3846 17.65 13.564 17.4924 13.564C17.4747 13.564 17.3611 13.5114 17.1511 13.4063C16.5556 13.0911 15.886 12.9336 15.1422 12.9336C14.3978 12.9336 13.8201 13.0871 13.409 13.3932C12.9974 13.6997 12.7918 14.0981 12.7918 14.588C12.7918 15.0783 12.9449 15.4636 13.2514 15.7435C13.5575 16.0238 14.0786 16.2778 14.8139 16.505C16.4592 17.013 17.5753 17.5685 18.162 18.1725C18.7484 18.7765 19.0417 19.687 19.0417 20.9035C19.0417 22.1206 18.6084 23.1225 17.7418 23.9104C16.8752 24.6981 15.8379 25.092 14.63 25.092C13.4221 25.092 12.3802 24.9127 11.5051 24.5537C10.6296 24.1951 10.1921 23.8491 10.1921 23.5163Z" fill="white"/>
</g>
<defs>
<clipPath id="clip0_202_13198">
<rect width="37" height="36" fill="white"/>
</clipPath>
</defs>
</svg>
