<svg width="37" height="36" viewBox="0 0 37 36" fill="none" xmlns="http://www.w3.org/2000/svg">
<g clip-path="url(#clip0_202_13332)">
<path d="M7.09625 3.55268C6.88784 4.04445 6.653 4.52708 6.47609 5.02995C6.04704 6.25002 5.93806 7.51072 6.0455 8.79702C6.131 9.81909 6.32928 10.8125 6.72415 11.7615C7.26753 13.0675 8.12169 14.1388 9.20774 15.0335C10.2754 15.9128 11.4728 16.5781 12.7215 17.1572C14.2929 17.8858 15.9217 18.4663 17.5555 19.0352C19.2588 19.6283 20.9405 20.2756 22.5365 21.1252C23.6245 21.7044 24.6502 22.3731 25.5227 23.2547C26.6083 24.3514 27.2587 25.6577 27.4553 27.1964C27.7129 29.2138 27.1276 30.9567 25.7845 32.4569C24.5075 33.8833 22.8984 34.7654 21.0682 35.2649C19.6568 35.6503 18.2208 35.7341 16.7694 35.565C13.9042 35.2312 11.3857 34.064 9.09622 32.3554C8.7133 32.0695 8.35513 31.7503 7.9857 31.4463C7.93761 31.4066 7.89205 31.3636 7.84311 31.3249C7.55652 31.0985 7.27695 31.0836 6.98642 31.3034C6.83103 31.4209 6.69926 31.5695 6.53656 31.7232C6.18795 31.4066 5.82008 31.0933 5.4754 30.7564C3.08168 28.4164 1.44255 25.633 0.586989 22.3935C0.266082 21.1785 0.0818629 19.9423 0.0251909 18.6862C-0.125137 15.3575 0.579114 12.2215 2.15749 9.28766C3.36996 7.03414 4.99967 5.13022 7.02552 3.56604C7.04155 3.55367 7.06109 3.54593 7.07909 3.53595C7.08486 3.54143 7.09062 3.54706 7.09625 3.55268Z" fill="#729544"/>
<path d="M29.3789 31.7375C29.5185 31.3911 29.6704 31.049 29.7956 30.6976C30.0876 29.878 30.2276 29.0306 30.2339 28.1601C30.2429 26.944 30.0812 25.7563 29.66 24.6101C29.2052 23.372 28.4803 22.3117 27.5408 21.3938C26.4928 20.3701 25.2761 19.5858 23.9863 18.9076C22.1642 17.9496 20.2472 17.2178 18.3079 16.542C17.003 16.0873 15.6869 15.6639 14.4213 15.1035C13.195 14.5607 12.016 13.9376 10.9868 13.0637C9.99327 12.2204 9.2384 11.2072 8.87629 9.94326C8.20705 7.60748 8.58252 5.45605 10.0916 3.53202C10.9259 2.46819 12.0063 1.72428 13.2469 1.20579C14.3106 0.761278 15.4235 0.522356 16.5692 0.418434C17.3741 0.345309 18.1795 0.32759 18.9841 0.399731C20.1803 0.506887 21.3407 0.782231 22.4715 1.18358C23.7401 1.63372 24.9485 2.20859 26.0831 2.93591C26.1615 2.98611 26.2452 3.02984 26.3304 3.06767C26.6287 3.19986 26.9033 3.15669 27.1339 2.92691C27.2536 2.80766 27.3499 2.66492 27.4724 2.51347C27.7742 2.71597 28.0927 2.91945 28.4004 3.13799C30.5577 4.67066 32.2998 6.58387 33.62 8.87648C34.6325 10.6343 35.323 12.5132 35.6948 14.5092C35.9309 15.7765 36.0364 17.0544 35.9973 18.3417C35.9272 20.6522 35.4433 22.8732 34.52 24.9954C33.5635 27.1933 32.2197 29.1236 30.496 30.7874C30.1453 31.1261 29.7628 31.4321 29.3949 31.7531C29.3897 31.7478 29.3842 31.7426 29.3789 31.7375Z" fill="#93BD5A"/>
</g>
<defs>
<clipPath id="clip0_202_13332">
<rect width="37" height="36" fill="white"/>
</clipPath>
</defs>
</svg>
