<svg width="37" height="36" viewBox="0 0 37 36" fill="none" xmlns="http://www.w3.org/2000/svg">
<g clip-path="url(#clip0_202_14986)">
<path d="M14.7525 27.7839C11.1509 27.7839 8.21961 24.8527 8.21961 21.251C8.21961 17.6493 11.1509 14.7181 14.7525 14.7181C18.3542 14.7181 21.2855 17.6493 21.2855 21.251C21.2855 24.8527 18.3542 27.7839 14.7525 27.7839ZM14.7525 17.0014C12.409 17.0014 10.5015 18.9075 10.5015 21.2525C10.5015 23.5975 12.4075 25.5036 14.7525 25.5036C17.0976 25.5036 19.0036 23.5975 19.0036 21.2525C19.0036 18.9075 17.096 17.0014 14.7525 17.0014ZM16.015 22.5421C15.3158 23.2412 14.1822 23.2412 13.4831 22.5421C12.7839 21.8429 12.7839 20.7094 13.4831 20.0102C14.1822 19.311 15.3158 19.311 16.015 20.0102C16.7141 20.7094 16.7141 21.8429 16.015 22.5421ZM14.7525 32.6904C13.5876 32.6904 12.4391 32.516 11.3388 32.1718C10.7315 31.9824 10.3932 31.336 10.5827 30.7287C10.7721 30.1214 11.4184 29.7817 12.0257 29.9726C12.9036 30.2477 13.8221 30.386 14.7525 30.386C19.7883 30.386 23.886 26.2882 23.886 21.2525C23.886 16.2167 19.7883 12.119 14.7525 12.119C9.7168 12.119 5.61906 16.2167 5.61906 21.2525C5.61906 22.1845 5.75886 23.1044 6.03395 23.9838C6.22335 24.5911 5.88513 25.2375 5.27783 25.4284C4.67054 25.6178 4.02416 25.2796 3.83325 24.6723C3.48751 23.5689 3.31314 22.419 3.31314 21.2525C3.31314 14.945 8.44509 9.81308 14.7525 9.81308C21.06 9.81308 26.1905 14.945 26.1905 21.2525C26.1905 27.56 21.0585 32.6904 14.7525 32.6904ZM21.7139 35.9839C21.296 35.9839 20.8916 35.7554 20.6872 35.3571C20.3971 34.7904 20.6196 34.0959 21.1863 33.8058C25.9169 31.3751 28.8556 26.5648 28.8556 21.251C28.8556 13.4734 22.5286 7.1464 14.751 7.1464C9.42067 7.1464 4.6044 10.0987 2.17972 14.8503C1.8896 15.417 1.19662 15.6425 0.629915 15.3524C0.0632063 15.0638 -0.162275 14.3693 0.127844 13.8026C2.94786 8.2753 8.55182 4.84198 14.7525 4.84198C23.8004 4.84198 31.1616 12.2032 31.1616 21.251C31.1616 27.4322 27.7433 33.0286 22.24 35.8562C22.0717 35.9433 21.8913 35.9839 21.7139 35.9839ZM32.7625 31.2293C32.5911 31.2293 32.4182 31.1902 32.2544 31.109C31.6907 30.8279 31.4607 30.144 31.7418 29.5788C35.357 22.3153 33.9275 13.5786 28.1867 7.83787C22.4249 2.07608 13.6642 0.658552 6.3872 4.31285C5.8235 4.59545 5.13803 4.36847 4.85543 3.80476C4.57283 3.24106 4.79981 2.5556 5.36352 2.273C13.5199 -1.82174 23.3404 -0.234352 29.7997 6.22493C36.2349 12.6602 37.8358 22.4551 33.7832 30.5964C33.5847 30.9978 33.1819 31.2293 32.7625 31.2293Z" fill="#F26C5D"/>
</g>
<defs>
<clipPath id="clip0_202_14986">
<rect width="37" height="36" fill="white"/>
</clipPath>
</defs>
</svg>
