<svg width="37" height="30" viewBox="0 0 37 30" fill="none" xmlns="http://www.w3.org/2000/svg">
<g clip-path="url(#clip0_202_8876)">
<path d="M17.3059 16.9593L16.1723 17.0558C15.7382 17.104 15.3524 16.7664 15.3041 16.3323L14.1947 3.64669C14.1465 3.21258 14.4841 2.82671 14.9183 2.77847L27.6039 1.66908H27.6762C28.0862 1.66908 28.4238 1.9826 28.4721 2.3926L29.075 9.2901L30.3532 9.16951L29.7503 2.27201C29.6538 1.16262 28.6409 0.294405 27.5074 0.390873L14.8218 1.50026C13.6883 1.59673 12.8442 2.60965 12.9407 3.74316L14.05 16.4288C14.1465 17.4899 15.0388 18.3099 16.1 18.3099H16.2688L17.4988 18.1893L17.3059 16.9593Z" fill="#80CDF3"/>
<path d="M30.8596 14.9576L30.5702 11.7018L29.292 11.8224L29.5814 15.0782C29.6055 15.2953 29.5332 15.4882 29.3885 15.657C29.2438 15.8258 29.0508 15.9223 28.8579 15.9464L19.8381 16.7423L20.0551 17.9964L28.9785 17.2246C30.112 17.1041 30.9561 16.0911 30.8596 14.9576Z" fill="#80CDF3"/>
<path d="M20.5854 24.6045L18.1496 10.8095C17.9566 9.74833 17.0402 8.97658 15.979 8.97658C15.8585 8.97658 15.7137 8.97658 15.5932 9.00069L15.3279 9.04893L15.4485 10.3271L15.8343 10.2548C15.856 10.2548 15.8777 10.2499 15.9016 10.2445C15.9308 10.238 15.9633 10.2307 16.0032 10.2307C16.4614 10.2307 16.8473 10.5683 16.9196 11.0024L19.3554 24.7974C19.4519 25.3039 19.1143 25.7862 18.6078 25.8827L4.81281 28.3185C4.30635 28.415 3.82401 28.0532 3.72754 27.5709L1.29171 13.7759C1.19524 13.2694 1.53288 12.7871 2.03934 12.6906L12.9403 10.7612L12.8197 9.48304L1.82228 11.4124C0.616428 11.6295 -0.179438 12.763 0.0376163 13.9688L2.44933 27.7879C2.64227 28.8491 3.55872 29.6208 4.61987 29.6208C4.74046 29.6208 4.88516 29.6208 5.00574 29.5967L18.8007 27.1609C19.9825 26.9438 20.8025 25.7862 20.5854 24.6045Z" fill="#80CDF3"/>
<path d="M35.9965 19.6846L35.2488 11.0024C35.1765 10.1342 34.3806 9.4589 33.5124 9.53125L24.8302 10.2789C23.9379 10.3512 23.2867 11.1471 23.3591 12.0394L23.6726 15.7293L24.9508 15.6088L24.6373 11.9188C24.6132 11.7259 24.7579 11.5571 24.9508 11.5571L33.633 10.8095H33.6571C33.8259 10.8095 33.9706 10.9542 33.9947 11.123L34.7424 19.8051C34.7665 19.9981 34.6218 20.1669 34.4288 20.1669L25.7467 20.9145C25.5537 20.9386 25.3849 20.7939 25.3849 20.601L25.1679 18.1652L23.8897 18.2858L24.1067 20.7216C24.1791 21.5416 24.8785 22.1927 25.7226 22.1927H25.8673L34.5494 21.4451C35.4177 21.3728 36.0688 20.5769 35.9965 19.6846Z" fill="#80CDF3"/>
</g>
<defs>
<clipPath id="clip0_202_8876">
<rect width="37" height="30" fill="white"/>
</clipPath>
</defs>
</svg>
