<svg width="37" height="37" viewBox="0 0 37 37" fill="none" xmlns="http://www.w3.org/2000/svg">
<g clip-path="url(#clip0_202_12406)">
<path d="M35.9298 26.8031L30.0102 2.04772C29.6684 0.617846 28.2322 -0.263873 26.8024 0.0779863L21.7035 1.29721C23.0031 1.50224 25.578 2.0653 28.414 3.55311L26.1938 9.70644C26.1938 9.70644 24.3458 7.64249 19.3911 7.39147C14.681 7.15297 12.061 12.2485 21.2476 15.2527C28.2807 17.5526 30.5305 21.986 30.4139 26.0859C30.3532 28.2178 29.6073 29.9515 28.743 31.2586L33.9602 30.0114C35.39 29.6696 36.2717 28.2331 35.9298 26.8031ZM15.981 20.5194C11.1985 18.7126 7.18128 15.486 6.91452 11.2862C6.7445 8.60732 7.41922 6.26661 9.16227 4.29603L2.04678 5.9976C0.617047 6.33946 -0.264953 7.77566 0.0770469 9.20554L5.99666 33.9612C6.33852 35.3908 7.77472 36.2728 9.20446 35.9308L12.251 35.2023C11.0684 34.8104 9.02417 34.0641 7.06457 33.0191L9.90491 26.5758C9.90491 26.5758 13.2477 29.5526 18.0477 29.5526C22.8476 29.5526 24.9808 23.9193 15.981 20.5194Z" fill="#EF4D37"/>
<path d="M6.91446 11.2862C6.76807 8.9808 7.24521 6.92486 8.49213 5.14047L2.20127 6.64487C1.13097 6.90067 0.468066 7.98011 0.724003 9.05069L4.12558 23.2752C5.19785 21.9506 7.77171 19.2258 11.4903 18.2041C8.9029 16.4082 7.09066 14.0596 6.91446 11.2862ZM29.363 2.20211C29.1071 1.13195 28.0278 0.469043 26.9569 0.72498L23.2562 1.60993C24.631 1.94251 26.4602 2.52822 28.4139 3.55309L26.1937 9.70642C26.1937 9.70642 24.3458 7.64247 19.391 7.39145C14.6809 7.15295 12.0609 12.2485 21.2475 15.2527C23.6538 16.0396 25.4999 17.0764 26.8831 18.2643C26.9368 18.2457 26.9904 18.2297 27.0441 18.21C28.8327 17.5555 30.5489 15.2164 31.8078 12.4257L29.363 2.20211Z" fill="url(#paint0_radial_202_12406)"/>
</g>
<defs>
<radialGradient id="paint0_radial_202_12406" cx="0" cy="0" r="1" gradientUnits="userSpaceOnUse" gradientTransform="translate(16.0147 10.4523) scale(20.4529 14.8478)">
<stop stop-color="#F8953E"/>
<stop offset="1" stop-color="#F36E3E"/>
</radialGradient>
<clipPath id="clip0_202_12406">
<rect width="37" height="37" fill="white"/>
</clipPath>
</defs>
</svg>
