<svg width="31" height="30" viewBox="0 0 31 30" fill="none" xmlns="http://www.w3.org/2000/svg">
<rect width="31" height="30" rx="15" fill="#FFE400"/>
<path d="M27.8759 21.8774C23.2302 19.6285 22.4898 16.1563 22.4568 15.8988C22.417 15.5868 22.3718 15.3415 22.7159 15.0242C23.0478 14.7176 24.5202 13.8063 24.9288 13.5211C25.604 13.049 25.9014 12.5776 25.6822 11.9981C25.5289 11.5972 25.1556 11.4462 24.7624 11.4462C24.6384 11.4466 24.5148 11.4605 24.3938 11.4876C23.6518 11.6486 22.9313 12.0203 22.5143 12.1208C22.4642 12.1337 22.4128 12.1406 22.361 12.1414C22.1387 12.1414 22.0544 12.0426 22.0759 11.7751C22.128 10.9641 22.2384 9.38127 22.1104 7.90277C21.9349 5.86847 21.2787 4.86057 20.5007 3.96907C20.1244 3.53677 18.3768 1.67957 15.0043 1.67957C11.6317 1.67957 9.88642 3.53677 9.51242 3.96377C8.73212 4.85517 8.07672 5.86307 7.90272 7.89737C7.77472 9.37597 7.88972 10.958 7.93722 11.7697C7.95252 12.0242 7.87442 12.1361 7.65212 12.1361C7.60032 12.1352 7.54892 12.1282 7.49882 12.1154C7.08262 12.015 6.36212 11.6432 5.62012 11.4823C5.49912 11.4551 5.37552 11.4413 5.25142 11.4409C4.85672 11.4409 4.48492 11.5942 4.33162 11.9927C4.11242 12.5722 4.40832 13.0436 5.08592 13.5158C5.49442 13.8009 6.96682 14.7115 7.29872 15.0188C7.64212 15.3362 7.59772 15.5815 7.55782 15.8934C7.52482 16.1548 6.78362 19.627 2.13872 21.872C1.86662 22.0039 1.40372 22.2829 2.22002 22.7336C3.50152 23.4418 4.35462 23.3659 5.01772 23.7929C5.58032 24.1554 5.24762 24.9372 5.65692 25.2193C6.15972 25.5665 7.64592 25.1948 9.56602 25.8287C11.1756 26.3591 12.1537 27.8576 15.0081 27.8576C17.8625 27.8576 18.8689 26.3522 20.4502 25.8287C22.3664 25.1948 23.8557 25.5665 24.3593 25.2193C24.7678 24.9372 24.4359 24.1554 24.9985 23.7929C25.6615 23.3659 26.5139 23.4418 27.7962 22.7336C28.611 22.2882 28.148 22.0092 27.8759 21.8774Z" fill="white"/>
<path fill-rule="evenodd" clip-rule="evenodd" d="M28.8396 20.4907C29.2918 20.7421 29.6889 21.0456 29.8973 21.6128C30.1311 22.2475 29.9878 22.9664 29.4175 23.5766L29.4099 23.5858C29.1797 23.8404 28.9075 24.0536 28.605 24.2158C28.0049 24.5453 27.3665 24.7997 26.7042 24.9731C26.5774 25.007 26.4571 25.0619 26.3485 25.1356C26.2351 25.236 26.188 25.3609 26.1293 25.5165C26.0849 25.6342 26.0338 25.7696 25.9423 25.9251C25.7852 26.1988 25.5695 26.4344 25.3107 26.6149C24.6913 27.0426 23.9954 27.0695 23.258 27.0978L23.2559 27.0979C22.5903 27.1232 21.836 27.1519 20.9746 27.4366C20.6274 27.5516 20.2587 27.7777 19.8318 28.0398L19.8291 28.0415C18.7893 28.6783 17.3663 29.5498 15.0029 29.5498C12.6375 29.5498 11.2241 28.6814 10.1917 28.0467C9.76174 27.78 9.39074 27.5516 9.03354 27.4335C8.17124 27.1492 7.41624 27.12 6.75014 27.0948C6.01286 27.0664 5.31682 27.0396 4.69754 26.6119C4.47894 26.4601 4.29074 26.2688 4.14254 26.0477C3.99873 25.8393 3.93246 25.6631 3.87667 25.5148C3.81798 25.3587 3.7709 25.2336 3.65734 25.1341C3.54154 25.0567 3.41354 24.9995 3.27874 24.9647C2.62534 24.7918 1.99544 24.5398 1.40314 24.2143C1.11844 24.0628 0.859707 23.8669 0.636637 23.6341C0.0288071 23.0101 -0.127553 22.2697 0.111587 21.6189C0.382431 20.883 0.969279 20.5887 1.58481 20.28C1.69046 20.227 1.79695 20.1736 1.90284 20.1174C3.26724 19.3762 4.33574 18.4503 5.08224 17.358C5.29514 17.0498 5.48004 16.7233 5.63494 16.3823C5.70774 16.183 5.70624 16.0749 5.65714 15.9745C5.60454 15.8925 5.53504 15.8227 5.45324 15.7699C5.21944 15.615 4.98114 15.4602 4.81784 15.3544C4.75749 15.3149 4.69962 15.2771 4.64443 15.2411C4.42342 15.0967 4.2453 14.9804 4.12264 14.8945C3.54394 14.4898 3.13924 14.0598 2.88554 13.5792C2.70934 13.2466 2.60694 12.88 2.58514 12.5042C2.56324 12.1285 2.62264 11.7524 2.75904 11.4016C3.14074 10.3929 4.09504 9.76674 5.25014 9.76674C5.49364 9.76654 5.73644 9.79224 5.97444 9.84344C6.03814 9.85724 6.10094 9.87174 6.16304 9.88784C6.15304 9.20184 6.16844 8.46984 6.22974 7.75314C6.44744 5.23604 7.32964 3.91304 8.24944 2.85994C8.83894 2.19814 9.53414 1.63864 10.3066 1.20434C11.7039 0.407151 13.2791 0.00244141 15.0044 0.00244141C16.7298 0.00244141 18.3126 0.407151 19.7084 1.20434C20.479 1.63854 21.1728 2.19694 21.7618 2.85684C22.6816 3.91004 23.5638 5.23064 23.7815 7.75014C23.8428 8.46674 23.8582 9.19494 23.8474 9.88484C23.9095 9.86874 23.9731 9.85414 24.0368 9.84034C24.2748 9.78914 24.5176 9.76344 24.7611 9.76364C25.9154 9.76364 26.8682 10.3899 27.2514 11.3986C27.3873 11.7492 27.446 12.125 27.4236 12.5003C27.4013 12.8757 27.2984 13.2418 27.1219 13.5739C26.8689 14.0545 26.4642 14.4845 25.8855 14.8892C25.7323 14.9983 25.4946 15.1522 25.1946 15.3464L25.1903 15.3491C25.0209 15.4587 24.7711 15.6212 24.5289 15.7814C24.4564 15.8308 24.3951 15.8947 24.3487 15.9692C24.302 16.0657 24.2989 16.1715 24.3641 16.3578C24.5211 16.7061 24.7091 17.0396 24.9259 17.3542C25.6893 18.4717 26.79 19.4145 28.1996 20.1619C28.2712 20.1991 28.3431 20.2353 28.4145 20.2712C28.48 20.3042 28.5451 20.337 28.6096 20.3703C28.6763 20.401 28.7545 20.4409 28.8396 20.4907ZM26.0356 23.4121C26.5194 23.2832 27.0927 23.1305 27.7949 22.7426C28.6112 22.2881 28.1482 22.0091 27.8738 21.8719C23.2281 19.6268 22.4877 16.1546 22.4547 15.8933C22.4534 15.8827 22.452 15.8722 22.4507 15.8618C22.4123 15.5646 22.3814 15.3253 22.7138 15.0187C22.9395 14.8097 23.6924 14.3219 24.2797 13.9414C24.5562 13.7623 24.796 13.6069 24.9267 13.5156C25.6035 13.0435 25.8993 12.5721 25.6801 11.9926C25.5268 11.594 25.1551 11.4407 24.7603 11.4407C24.6363 11.4411 24.5127 11.455 24.3917 11.4821C23.9544 11.577 23.5245 11.7451 23.1598 11.8877C22.9058 11.9871 22.6834 12.074 22.5122 12.1152C22.4621 12.1282 22.4107 12.1351 22.3589 12.1359C22.1366 12.1359 22.0562 12.0371 22.0738 11.7696C22.0757 11.7412 22.0776 11.7117 22.0795 11.6814C22.1334 10.8476 22.2318 9.32391 22.1083 7.89724C21.9343 5.86304 21.2782 4.85504 20.4986 3.96364C20.1246 3.53674 18.3624 1.68714 15.0014 1.68714C11.6403 1.68714 9.88284 3.54444 9.50874 3.97284C8.73004 4.86424 8.07464 5.87224 7.89914 7.90644C7.78149 9.26544 7.86912 10.7118 7.92095 11.5672C7.92551 11.6425 7.92979 11.7132 7.93364 11.7788C7.94894 12.0332 7.87074 12.1451 7.64844 12.1451C7.59674 12.1442 7.54534 12.1373 7.49514 12.1244C7.32449 12.0833 7.10267 11.9965 6.84921 11.8973C6.4845 11.7547 6.05424 11.5863 5.61654 11.4913C5.49554 11.4642 5.37184 11.4503 5.24784 11.4499C4.85544 11.4499 4.48134 11.6009 4.32804 12.0018C4.10884 12.5813 4.40624 13.0527 5.08224 13.5248C5.21318 13.6162 5.45337 13.7719 5.73026 13.9514C6.31741 14.332 7.0696 14.8196 7.29514 15.0279C7.62741 15.335 7.59651 15.5746 7.55811 15.8724C7.55682 15.8824 7.55553 15.8924 7.55424 15.9025C7.52124 16.16 6.78004 19.6322 2.13514 21.8811C1.86304 22.0129 1.40004 22.2919 2.21634 22.7426C2.91672 23.1276 3.4889 23.2795 3.97216 23.4078C4.37319 23.5143 4.713 23.6045 5.01404 23.7981C5.31825 23.9942 5.36093 24.3128 5.40056 24.6087C5.43422 24.86 5.46568 25.095 5.65334 25.2245C5.87159 25.375 6.27496 25.3905 6.81799 25.4113C7.52795 25.4384 8.47663 25.4748 9.56244 25.8339C10.1075 26.0135 10.581 26.3046 11.0796 26.611C12.0535 27.2095 13.1229 27.8666 15.0067 27.8666C16.8975 27.8666 17.9783 27.2033 18.9545 26.6041C19.4489 26.3007 19.9165 26.0137 20.4488 25.8377C21.5366 25.4786 22.4852 25.4423 23.1945 25.4151C23.7373 25.3943 24.14 25.3789 24.3579 25.2283C24.5459 25.0988 24.5772 24.8638 24.6107 24.6125C24.6502 24.3166 24.6926 23.998 24.9972 23.8019C25.2972 23.6088 25.6359 23.5186 26.0356 23.4121Z" fill="black"/>
</svg>
