<svg width="33" height="33" viewBox="0 0 33 33" fill="none" xmlns="http://www.w3.org/2000/svg">
<path d="M29.7339 23.5754C24.7785 21.1759 23.9887 17.4711 23.9535 17.1963C23.911 16.8634 23.8628 16.6017 24.2299 16.2631C24.5839 15.936 26.1545 14.9636 26.5902 14.6594C27.3105 14.1556 27.6278 13.6526 27.3939 13.0343C27.2304 12.6066 26.8322 12.4455 26.4128 12.4455C26.2805 12.4459 26.1487 12.4607 26.0196 12.4897C25.2281 12.6614 24.4596 13.0581 24.0148 13.1652C23.9614 13.179 23.9065 13.1864 23.8513 13.1873C23.6142 13.1873 23.5243 13.0818 23.5472 12.7963C23.6028 11.9311 23.7205 10.2423 23.584 8.66465C23.3967 6.49412 22.6969 5.41867 21.867 4.46753C21.4656 4.00627 19.6015 2.02466 16.0041 2.02466C12.4067 2.02466 10.5451 4.00627 10.1461 4.4618C9.31376 5.41294 8.61472 6.4884 8.42913 8.65893C8.29259 10.2365 8.41523 11.9245 8.46592 12.7906C8.48227 13.0621 8.39888 13.1815 8.16178 13.1815C8.1066 13.1806 8.05172 13.1732 7.99826 13.1595C7.55431 13.0523 6.78578 12.6557 5.99435 12.4839C5.86525 12.455 5.73339 12.4402 5.60109 12.4398C5.18003 12.4398 4.7835 12.6033 4.61998 13.0286C4.38615 13.6469 4.70174 14.1499 5.42449 14.6536C5.86026 14.9579 7.43085 15.9295 7.78487 16.2574C8.15115 16.596 8.10373 16.8577 8.06122 17.1906C8.02606 17.4694 7.23545 21.1742 2.28086 23.5697C1.99062 23.7103 1.49679 24.008 2.36752 24.4889C3.73453 25.2446 4.64451 25.1636 5.35172 25.6192C5.95183 26.006 5.597 26.8402 6.03359 27.1411C6.56993 27.5116 8.15524 27.115 10.2033 27.7913C11.9202 28.3573 12.9635 29.9561 16.0082 29.9561C19.0529 29.9561 20.1264 28.3499 21.8131 27.7913C23.857 27.115 25.4456 27.5116 25.9828 27.1411C26.4185 26.8402 26.0645 26.006 26.6646 25.6192C27.3719 25.1636 28.281 25.2446 29.6488 24.4889C30.5179 24.0138 30.0241 23.7161 29.7339 23.5754Z" fill="white"/>
<path d="M31.8896 23.293C31.6672 22.6878 31.2437 22.3639 30.7614 22.0957C30.6706 22.0425 30.5872 22 30.5161 21.9673C30.3722 21.8929 30.225 21.8209 30.0787 21.7448C28.5751 20.9474 27.4011 19.9415 26.5867 18.7491C26.3555 18.4134 26.1549 18.0576 25.9874 17.6859C25.918 17.4872 25.9212 17.3743 25.9711 17.2713C26.0206 17.1919 26.086 17.1237 26.1632 17.0709C26.4216 16.9 26.6881 16.7266 26.8688 16.6096C27.1909 16.4011 27.446 16.2359 27.6104 16.1189C28.2276 15.6871 28.6593 15.2283 28.9291 14.7155C29.1174 14.3613 29.2272 13.9706 29.251 13.5701C29.2748 13.1696 29.2122 12.7687 29.0673 12.3945C28.6585 11.3183 27.6423 10.6501 26.411 10.6501C26.1513 10.6498 25.8922 10.6773 25.6383 10.7319C25.5705 10.7466 25.5026 10.7621 25.4364 10.7793C25.4478 10.0433 25.4315 9.26632 25.3661 8.50165C25.1339 5.81343 24.1928 4.4043 23.2117 3.2806C22.5835 2.57644 21.8434 1.9807 21.0214 1.51735C19.5326 0.666802 17.8443 0.234985 16.0039 0.234985C14.1635 0.234985 12.4833 0.666802 10.9929 1.51735C10.1688 1.98084 9.42731 2.57777 8.79845 3.28387C7.81735 4.40757 6.8763 5.81915 6.64411 8.50492C6.5787 9.26959 6.56235 10.0506 6.57298 10.7826C6.50675 10.7654 6.43971 10.7499 6.37185 10.7352C6.11794 10.6805 5.85894 10.6531 5.59923 10.6534C4.36712 10.6534 3.34922 11.3215 2.94206 12.3978C2.79653 12.7721 2.73325 13.1733 2.75653 13.5742C2.7798 13.9752 2.88909 14.3664 3.07696 14.7213C3.34759 15.2341 3.77927 15.6929 4.39655 16.1247C4.56007 16.2392 4.81598 16.4044 5.13811 16.6154C5.31225 16.7282 5.56652 16.8934 5.81589 17.0586C5.90313 17.1151 5.97729 17.1895 6.03337 17.277C6.08569 17.3841 6.08733 17.4995 6.00966 17.7121C5.84445 18.0759 5.64718 18.4244 5.42018 18.7532C4.62384 19.9186 3.48412 20.9065 2.02882 21.6974C1.25783 22.1063 0.456591 22.3795 0.118109 23.2995C-0.136979 23.9939 0.0298094 24.7839 0.678158 25.4496C0.916107 25.6981 1.19209 25.9071 1.49575 26.0687C2.12757 26.416 2.79942 26.6849 3.49639 26.8694C3.64022 26.9065 3.77676 26.9676 3.90028 27.0501C4.13656 27.257 4.10304 27.5686 4.41781 28.025C4.57582 28.2608 4.77659 28.465 5.00975 28.6269C5.67036 29.0832 6.41273 29.1119 7.19925 29.1421C7.90973 29.1691 8.71506 29.2002 9.63485 29.5036C10.0158 29.6296 10.4116 29.8733 10.8702 30.1579C11.9715 30.835 13.4792 31.7617 16.0022 31.7617C18.5253 31.7617 20.0436 30.8301 21.153 30.1505C21.6084 29.8708 22.0017 29.6296 22.3721 29.5069C23.2919 29.2026 24.0972 29.1724 24.8077 29.1454C25.5942 29.1151 26.3366 29.0865 26.9972 28.6302C27.2733 28.4376 27.5034 28.1862 27.6709 27.8941C27.8973 27.5089 27.8916 27.2398 28.1042 27.0517C28.2201 26.9732 28.3483 26.9145 28.4836 26.8784C29.19 26.6933 29.871 26.422 30.5112 26.0703C30.8338 25.8972 31.1242 25.6698 31.3696 25.3981L31.3778 25.3883C31.9861 24.7373 32.139 23.9702 31.8896 23.293ZM29.647 24.4985C28.2792 25.2542 27.37 25.1732 26.6628 25.6287C26.0619 26.0156 26.4175 26.8497 25.9809 27.1507C25.4446 27.5212 23.8593 27.1245 21.8112 27.8009C20.1221 28.3595 19.0445 29.9657 16.0063 29.9657C12.9682 29.9657 11.9159 28.3627 10.199 27.7968C8.15501 27.1204 6.56644 27.5171 6.02928 27.1466C5.5935 26.8457 5.94752 26.0115 5.34741 25.6246C4.63938 25.1691 3.73022 25.2501 2.36321 24.4985C1.49248 24.0176 1.9863 23.7199 2.27654 23.5792C7.23114 21.1797 8.02174 17.4749 8.0569 17.2001C8.09942 16.8673 8.14684 16.6056 7.78056 16.267C7.42654 15.9398 5.85595 14.9674 5.42018 14.6632C4.69906 14.1594 4.38184 13.6565 4.61567 13.0382C4.77919 12.6104 5.17817 12.4493 5.59677 12.4493C5.72907 12.4497 5.86094 12.4645 5.99004 12.4935C6.78146 12.6652 7.55 13.0619 7.99395 13.169C8.0474 13.1827 8.10228 13.1902 8.15746 13.1911C8.39457 13.1911 8.47796 13.0717 8.46161 12.8002C8.41092 11.9341 8.28828 10.2461 8.42482 8.66849C8.61204 6.49796 9.31108 5.4225 10.1418 4.47136C10.5407 4.01419 12.4155 2.03258 16.0006 2.03258C19.5857 2.03258 21.4654 4.00602 21.8643 4.46155C22.6958 5.41269 23.3957 6.48814 23.5813 8.65867C23.7178 10.2363 23.6001 11.9251 23.5445 12.7904C23.5257 13.0758 23.6115 13.1813 23.8486 13.1813C23.9038 13.1804 23.9587 13.173 24.0122 13.1592C24.4569 13.0521 25.2255 12.6554 26.0169 12.4837C26.146 12.4547 26.2778 12.4399 26.4101 12.4395C26.8312 12.4395 27.2277 12.6031 27.3913 13.0284C27.6251 13.6466 27.3095 14.1496 26.5876 14.6534C26.1518 14.9576 24.5812 15.9292 24.2272 16.2572C23.8601 16.5957 23.9083 16.8575 23.9508 17.1903C23.986 17.4692 24.7758 21.174 29.7312 23.5694C30.0239 23.7158 30.5177 24.0135 29.647 24.4985Z" fill="black"/>
</svg>
