<svg width="26" height="41" viewBox="0 0 26 41" fill="none" xmlns="http://www.w3.org/2000/svg">
<g clip-path="url(#clip0_202_16062)">
<path d="M7.17909 31.136L0.996826 34.1601L12.9947 40.0039L25.0252 34.1417L18.8271 31.0748L12.9901 33.9735L7.17909 31.136Z" fill="url(#paint0_linear_202_16062)"/>
<path d="M6.41579 9.2579V9.25595L13.0069 6.04127L19.5985 9.25595L25.0217 5.86699L13.0025 0.0045166L0.986572 5.8652V5.87041L6.41124 9.26017L6.41579 9.2579Z" fill="url(#paint1_linear_202_16062)"/>
<path d="M1.00122 28.1325L6.93121 25.2291L13.0307 28.2493L1.00122 34.1679V28.1325Z" fill="url(#paint2_radial_202_16062)"/>
<path d="M19.5242 9.37394C19.5242 12.5399 19.5242 18.8717 19.5242 18.8717L12.8943 22.1163L18.9912 25.1644L24.9272 22.2616V5.86584L19.5242 9.25671V9.37394Z" fill="url(#paint3_radial_202_16062)"/>
<path d="M25.0217 28.1124L6.41457 18.8519V9.25831L0.986572 5.86975V5.95527V22.2418L25.0217 34.1482V28.1124Z" fill="url(#paint4_radial_202_16062)"/>
</g>
<defs>
<linearGradient id="paint0_linear_202_16062" x1="13.011" y1="-0.438005" x2="13.011" y2="39.7108" gradientUnits="userSpaceOnUse">
<stop stop-color="#002E3B"/>
<stop offset="1" stop-color="#002639"/>
</linearGradient>
<linearGradient id="paint1_linear_202_16062" x1="13.0042" y1="-0.255369" x2="13.0042" y2="39.689" gradientUnits="userSpaceOnUse">
<stop stop-color="#002E3B"/>
<stop offset="1" stop-color="#002639"/>
</linearGradient>
<radialGradient id="paint2_radial_202_16062" cx="0" cy="0" r="1" gradientUnits="userSpaceOnUse" gradientTransform="translate(2.97688 38.0116) scale(35.5558 26.4205)">
<stop stop-color="#00BC85"/>
<stop offset="1" stop-color="#149D91"/>
</radialGradient>
<radialGradient id="paint3_radial_202_16062" cx="0" cy="0" r="1" gradientUnits="userSpaceOnUse" gradientTransform="translate(14.8705 -2.43247) scale(42.958 68.8964)">
<stop stop-color="#00BC85"/>
<stop offset="1" stop-color="#149D91"/>
</radialGradient>
<radialGradient id="paint4_radial_202_16062" cx="0" cy="0" r="1" gradientUnits="userSpaceOnUse" gradientTransform="translate(3.74269 -5.57115) scale(82.4861 97.0485)">
<stop stop-color="#004473"/>
<stop offset="1" stop-color="#00345F"/>
</radialGradient>
<clipPath id="clip0_202_16062">
<rect width="26" height="41" fill="white"/>
</clipPath>
</defs>
</svg>
