<svg width="32" height="37" viewBox="0 0 32 37" fill="none" xmlns="http://www.w3.org/2000/svg">
<g clip-path="url(#clip0_202_11245)">
<path d="M31.3123 15.3101C31.3123 19.8197 30.3796 25.339 29.5046 27.0217C29.0623 27.8774 28.5527 28.4544 27.7257 28.8197C27.0623 29.1178 25.9084 29.5121 25.0046 29.6947C24.1007 29.8871 20.495 30.6082 20.495 30.6082V35.5601C20.4854 35.8005 20.2931 36.0024 20.0431 36.0024C19.9469 36.0024 19.8507 35.964 19.7834 35.9159L11.4854 30.6082C11.4854 30.6082 7.90844 29.9159 7.00459 29.7044C6.09113 29.4832 4.95651 29.1178 4.30267 28.8197C3.47575 28.4544 2.96613 27.8678 2.52382 27.0217C2.04305 26.1082 1.55267 24.0697 1.1969 21.6659L19.1488 22.5024C19.8988 22.5024 20.5046 21.8967 20.5046 21.1467C20.5046 20.464 20.0046 19.8967 19.3507 19.8005L1.76421 17.2524C1.15844 17.1178 0.706515 16.5794 0.706515 15.9351C0.696899 15.7236 0.696899 15.5217 0.696899 15.3101C0.696899 10.8005 1.63921 5.28129 2.51421 3.5986C2.95651 2.74283 3.47575 2.18513 4.29305 1.80052C6.86036 0.58898 12.1296 0.00244141 16.0046 0.00244141C21.2931 0.00244141 25.8507 0.973595 27.7161 1.80052C28.5431 2.1659 29.0527 2.75244 29.495 3.5986C29.9661 4.51206 30.4565 6.5409 30.8123 8.93513L12.8604 8.0986C12.1104 8.0986 11.5046 8.70436 11.5046 9.45436C11.5046 10.1371 12.0046 10.7044 12.6584 10.8005C12.6584 10.8005 30.1873 13.339 30.2257 13.3486C30.7931 13.464 31.2354 13.9447 31.2931 14.5313C31.3027 14.5313 31.3123 15.1178 31.3123 15.3101Z" fill="#FF6C0C"/>
</g>
<defs>
<clipPath id="clip0_202_11245">
<rect width="32" height="37" fill="white"/>
</clipPath>
</defs>
</svg>
