<svg width="26" height="41" viewBox="0 0 26 41" fill="none" xmlns="http://www.w3.org/2000/svg">
<g clip-path="url(#clip0_202_13849)">
<path d="M21.5701 9.51221C20.7546 6.98254 18.9002 3.42768 18.636 2.92735L18.406 2.48998C18.1794 2.03865 18.0102 1.71536 17.9464 1.59469L17.1109 0.00671387L15.914 8.51198L15.8723 8.82132C14.9775 8.77035 14.0249 8.74104 13.0172 8.74104C12.0039 8.74104 11.0456 8.77068 10.1453 8.82219L10.1084 8.51179L9.68834 5.53043C9.68891 5.52546 8.9097 0.00671387 8.9097 0.00671387L8.05657 1.59469C7.97931 1.7407 7.74647 2.18314 7.44345 2.79042L7.36983 2.92735C7.10508 3.42815 5.23302 6.98927 4.41228 9.51939C2.04475 9.97674 0.76123 10.4659 0.76123 10.4659V31.1407L13.0006 40.0067L25.2401 31.1407V10.4659C25.2401 10.4659 23.9526 9.97161 21.5701 9.51221Z" fill="white"/>
<path d="M18.2668 25.5639H12.9911V16.5306L7.63795 25.2998L6.80566 34.3046L12.9087 38.7623L12.9911 38.8226L19.2324 34.2725L18.2668 25.5639Z" fill="#3B3B63"/>
<path d="M12.9008 38.7301L1.54346 30.4963V11.2959C1.54346 11.2959 5.74293 9.69397 12.9162 9.69397C20.0896 9.69397 24.2583 11.2959 24.2583 11.2959V30.4963L12.9008 38.7301Z" fill="#DBDBDB"/>
<path d="M13.0654 9.69397C13.0601 9.69397 13.0551 9.69416 13.0498 9.69416V38.7296H13.05L24.4075 30.4958V11.2959C24.4075 11.2959 20.2387 9.69397 13.0654 9.69397Z" fill="#C6C6C6"/>
<path d="M19.2012 34.2539L18.2374 25.5638H12.9614V38.8023L19.2012 34.2539Z" fill="#3B3B63"/>
<path d="M6.80566 34.3046L12.9911 38.8226V16.5306L7.63795 25.2998L6.80566 34.3046Z" fill="#53537A"/>
<path d="M15.6531 31.7377C15.6531 33.2276 14.2843 33.9662 13.0286 33.9662C11.7729 33.9662 10.3765 33.2276 10.3765 31.7377" fill="#BC9375"/>
<path d="M14.8838 30.8932C14.8838 32.6406 13.9585 33.109 13.015 33.109C12.0716 33.109 11.146 32.6406 11.146 30.8932" fill="#073251"/>
<path d="M13.0149 32.5081C12.0068 32.5081 11.5166 31.7561 11.5166 30.2103H11.9973C11.9973 32.02 12.6844 32.02 13.0149 32.02C13.3453 32.02 14.0325 32.02 14.0325 30.2103H14.5131C14.5131 31.7561 14.0228 32.5081 13.0149 32.5081Z" fill="white"/>
<path d="M21.017 12.4015C21.017 10.5164 17.8835 4.58533 17.8835 4.58533L16.8236 12.1072L15.8723 13.6952L13.0209 13.8131L13.0097 13.8364V13.8131L10.158 13.6952L9.20692 12.1072L8.14696 4.58533C8.14696 4.58533 5.01318 10.5164 5.01318 12.4015L6.33705 16.0235C6.33705 16.0235 5.66895 22.1075 5.97398 22.9041C6.27805 23.7008 8.39032 26.365 8.39032 26.365C8.39032 26.365 8.384 28.6049 8.96232 30.2151C9.37492 31.365 10.284 31.8315 11.1544 31.8315C12.4878 31.8315 13.0094 30.5878 13.0094 30.5878C13.0094 30.5878 13.5435 31.8315 14.8768 31.8315C15.7471 31.8315 16.6553 31.3658 17.0688 30.2151C17.6465 28.6055 17.6407 26.365 17.6407 26.365C17.6407 26.365 19.7524 23.7008 20.0571 22.9041C20.3619 22.1073 19.6937 16.0235 19.6937 16.0235L21.017 12.4015Z" fill="#C49A7E"/>
<path d="M13.0147 13.8251L13.0093 13.8364V13.8131L10.1575 13.6953L9.20652 12.1073L8.14619 4.58545C8.14619 4.58545 5.0127 10.5165 5.0127 12.4016L6.33628 16.0236C6.33628 16.0236 5.66837 22.1076 5.97292 22.9042C6.27766 23.7009 8.38906 26.3652 8.38906 26.3652C8.38906 26.3652 8.38361 28.605 8.96126 30.2152C9.37443 31.3652 10.2836 31.8316 11.1533 31.8316C12.4873 31.8316 13.0089 30.588 13.0089 30.588C13.0089 30.588 13.0113 30.5924 13.0149 30.6005V13.8251H13.0147Z" fill="#D8B7A0"/>
<path d="M19.7221 16.3799C19.4792 15.8632 19.8245 14.6405 19.8245 14.6405C17.8457 12.5784 17.3509 8.27844 17.3509 8.27844C16.9814 9.63339 16.1784 13.6283 16.1784 13.6283C16.1784 13.6283 14.7015 13.0691 13.0214 13.0665H13.0155H13.0089C12.9166 13.0669 12.8257 13.0693 12.7349 13.0723V29.9294L12.8603 30.1161V30.0238H12.9379V30.1161L12.9386 30.0238H13.0918V30.1161V30.0238H13.1701V30.1161L14.538 28.0855L14.8354 22.3834L16.5384 24.3583L18.7323 25.0099C18.7323 25.0099 19.5531 24.415 19.5531 24.4172C19.9016 23.9211 20.0172 23.4985 20.1015 23.2792C20.4062 22.4814 19.7221 16.3799 19.7221 16.3799Z" fill="#3B3B63"/>
<path d="M13.0301 13.0662C13.0279 13.0662 13.0262 13.066 13.0242 13.066V13.0662C11.3436 13.0691 9.86657 13.6279 9.86657 13.6279C9.86657 13.6279 9.06326 9.63312 8.69407 8.27808C8.69407 8.27808 8.19952 12.578 6.22045 14.6401C6.22045 14.6401 6.56574 15.8629 6.32286 16.3795C6.32286 16.3795 5.6387 22.4813 5.94344 23.2779C6.02759 23.4974 6.14405 23.9197 6.49211 24.4159C6.49211 24.4136 7.3134 25.0086 7.3134 25.0086L9.50684 24.357L11.2096 22.3823L11.5077 28.0845L12.8748 30.1151V30.0228H12.9531V30.1151V30.0228H13.0299V13.0662H13.0301Z" fill="#53537A"/>
<path d="M16.9956 20.1964H15.0733H14.4326V20.2239C14.4326 21.1329 15.2066 21.8693 16.1144 21.8693C17.0225 21.8693 17.7965 21.1327 17.7965 20.2239V20.1964H16.9956Z" fill="#333152"/>
<path d="M15.0732 20.1964V20.2239C15.0732 20.7646 15.5018 21.2027 16.0346 21.2027C16.5673 21.2027 16.9957 20.7646 16.9957 20.2239V20.1964H15.0732Z" fill="white"/>
<path d="M16.3313 20.1964H15.8808C15.8764 20.1964 15.8727 20.1986 15.8688 20.1995C15.9246 20.2113 15.9556 20.3399 15.9435 20.4256C15.9256 20.5564 15.8157 20.6473 15.6899 20.6495C15.7266 20.8205 15.8639 20.958 16.0463 20.9841C16.2793 21.0176 16.4947 20.8553 16.5278 20.6189C16.5515 20.4447 16.4691 20.1964 16.3313 20.1964Z" fill="#333152"/>
<path d="M10.8089 20.1964H8.88694H8.24609V20.2239C8.24609 21.1329 9.02014 21.8693 9.92787 21.8693C10.836 21.8693 11.61 21.1327 11.61 20.2239V20.1964H10.8089Z" fill="#333152"/>
<path d="M8.88672 20.1964V20.2239C8.88672 20.7646 9.31558 21.2027 9.84761 21.2027C10.3805 21.2027 10.8089 20.7646 10.8089 20.2239V20.1964H8.88672Z" fill="white"/>
<path d="M10.1447 20.1964H9.69379C9.68987 20.1964 9.68566 20.1986 9.68203 20.1995C9.73777 20.2113 9.76856 20.3399 9.7568 20.4256C9.73873 20.5564 9.62953 20.6473 9.50293 20.6495C9.54003 20.8205 9.67734 20.958 9.8594 20.9841C10.0923 21.0176 10.3082 20.8553 10.3408 20.6189C10.3649 20.4447 10.2825 20.1964 10.1447 20.1964Z" fill="#333152"/>
<path d="M16.8025 19.4205C16.9101 19.3008 17.8237 18.2482 16.6018 18.2482C15.4976 18.2482 14.7032 19.1527 14.4927 19.4205H16.8025Z" fill="#C49A7E"/>
<path d="M11.532 19.4205C11.3216 19.1527 10.5272 18.2482 9.42268 18.2482C8.20141 18.2482 9.11506 19.3008 9.22206 19.4205H11.532Z" fill="#D8B7A0"/>
<path d="M7.65625 20.1869H12.3304V19.7406H7.65625V20.1869Z" fill="#53537A"/>
<path d="M19.8068 13.8588C18.4478 11.9188 18.0214 8.76508 17.9844 8.47688L18.2323 6.7189C19.2415 8.804 20.3003 11.2786 20.3729 12.3113L19.8068 13.8588ZM19.4597 22.6839C19.2741 23.1681 17.9924 24.8982 17.141 25.9723L16.999 26.1524L16.9997 26.3822C16.9997 26.403 16.999 28.5236 16.4664 30.0076C16.0813 31.0802 15.226 31.1961 14.8766 31.1961C13.9919 31.1961 13.6101 30.3727 13.5967 30.3429L13.5461 29.5717H12.4707L12.4221 30.3385C12.4068 30.3734 12.0344 31.194 11.1541 31.194C10.8039 31.194 9.94889 31.0793 9.56354 30.0067C9.03265 28.528 9.03016 26.403 9.03016 26.3814L9.03093 26.1516L8.88893 25.9723C8.038 24.899 6.75621 23.1689 6.5752 22.6964C6.43053 22.1854 6.66939 18.8807 6.97346 16.1114L6.99019 15.9578L6.75028 15.302C7.57453 14.4246 8.15294 13.2171 8.55197 12.0676L8.59079 12.3474L9.89993 14.5317L10.4114 14.3087C10.4243 14.3031 11.7359 13.7365 13.0096 13.7365C14.2752 13.7365 15.6085 14.3036 15.621 14.3092L16.1317 14.5302L17.4393 12.3469L17.4906 11.9823C17.8854 13.1431 18.4632 14.3722 19.2914 15.2691L19.0402 15.9573L19.057 16.1109C19.3608 18.8807 19.5997 22.1854 19.4597 22.6839ZM12.2174 32.2694C12.3886 32.1921 12.5431 32.1 12.6793 31.9987C12.8038 32.0358 12.9233 32.0358 13.015 32.0358C13.1062 32.0358 13.2244 32.0367 13.348 31.9995C13.4846 32.1 13.6394 32.1921 13.8105 32.2694C13.5959 32.4324 13.3316 32.524 13.0156 32.524C12.6979 32.524 12.4323 32.433 12.2174 32.2694ZM13.0289 33.6568C12.3255 33.6568 11.3253 33.3384 11.0765 32.4943C11.102 32.4951 11.127 32.4973 11.153 32.4973C11.2889 32.4973 11.4164 32.4847 11.5395 32.4669C11.8963 32.9712 12.452 33.1259 13.0152 33.1259C13.5791 33.1259 14.136 32.9726 14.4934 32.4674C14.6158 32.4845 14.7418 32.4973 14.8766 32.4973C14.9031 32.4973 14.9285 32.4951 14.955 32.4943C14.7086 33.3384 13.7218 33.6568 13.0289 33.6568ZM5.65781 12.3111C5.73039 11.2784 6.78853 8.804 7.7979 6.7187L8.06698 8.62538C7.96438 9.33823 7.49545 12.134 6.23756 13.8963L5.65781 12.3111ZM21.6416 12.417C21.6416 10.426 18.7682 4.91549 18.4399 4.29367L17.5213 2.54773L16.2054 11.8989L15.598 12.9145C15.0116 12.7146 14.0137 12.4356 13.0088 12.4356C12.0051 12.4356 11.0139 12.7136 10.4301 12.9139L9.82238 11.8987L9.36053 8.62079C9.36111 8.61534 9.36187 8.60807 9.36187 8.60473L9.35834 8.60425L8.50444 2.54773L7.5664 4.29367C7.23766 4.91549 4.34131 10.426 4.34131 12.417V12.5339L5.66757 16.1207C5.45548 18.0763 5.05062 22.3244 5.36866 23.1547C5.56678 23.6738 6.32945 24.7457 6.97451 25.6048L6.1057 33.827L7.30192 34.6839L7.93416 28.7029C8.025 29.2845 8.15906 29.8988 8.35805 30.4537C8.63238 31.2184 9.11728 31.7971 9.73795 32.1406C9.77486 33.9712 11.4503 34.9584 13.0289 34.9584C14.5944 34.9584 16.256 33.9704 16.2924 32.1392C16.9117 31.7964 17.396 31.2175 17.6701 30.4537C17.8773 29.8766 18.0132 29.2338 18.1036 28.632L18.7396 34.6347L19.9359 33.7473L19.0692 25.5801C19.7092 24.7248 20.4575 23.6685 20.6538 23.1551C20.9718 22.3251 20.5505 18.0763 20.3387 16.121L21.6414 12.5337V12.417H21.6416Z" fill="#333152"/>
<path d="M14.5233 27.337H11.5167C11.5167 27.337 11.1123 28.0526 11.1123 28.2848C11.1123 28.9744 12.9629 30.0722 12.9629 30.0722C12.9629 30.0722 14.9176 28.9416 14.9176 28.2848C14.9176 27.9715 14.5233 27.337 14.5233 27.337Z" fill="#333152"/>
<path d="M13.9434 29.439C13.7757 29.1371 13.5593 29.082 13.46 29.3148C13.3609 29.5478 13.4175 29.9813 13.5852 30.2825C13.7529 30.5846 13.9695 30.6397 14.0684 30.4068C14.1677 30.1739 14.1114 29.7402 13.9434 29.439Z" fill="#C49A7E"/>
<path d="M12.086 29.439C11.918 29.7402 11.8621 30.1739 11.961 30.4068C12.06 30.6397 12.2762 30.5846 12.4446 30.2825C12.6123 29.9814 12.6685 29.5478 12.5691 29.3148C12.4703 29.082 12.254 29.1371 12.086 29.439Z" fill="#D8B7A0"/>
</g>
<defs>
<clipPath id="clip0_202_13849">
<rect width="26" height="41" fill="white"/>
</clipPath>
</defs>
</svg>
