<svg width="37" height="36" viewBox="0 0 37 36" fill="none" xmlns="http://www.w3.org/2000/svg">
<g clip-path="url(#clip0_202_16090)">
<path d="M13.4467 0.59077C18.1046 -0.603798 23.2524 0.092317 27.3604 2.62755C32.534 5.7214 35.9114 11.5739 35.9974 17.5983C36.1864 23.6829 33.0152 29.7159 27.919 33.0246C22.2469 36.8403 14.4006 36.9864 8.60822 33.3598C2.70413 29.8362 -0.742069 22.729 0.143115 15.9053C0.856418 8.69493 6.42534 2.33536 13.4467 0.59077Z" fill="#010101"/>
<path d="M12.7334 3.53903C21.5337 0.0154777 32.3278 6.52115 33.2388 15.9574C34.6568 24.4483 27.6097 33.0767 19.0071 33.3259C10.8256 34.1423 2.91906 27.2069 2.68702 18.9911C2.07685 12.3393 6.4598 5.73909 12.7334 3.53903Z" fill="white"/>
<path d="M13.6184 17.0913C17.563 13.8686 21.4217 10.5341 25.4523 7.40588C23.3382 10.6544 21.1639 13.86 19.0498 17.1085C17.2364 17.1171 15.4231 17.1171 13.6184 17.0913Z" fill="#010101"/>
<path d="M16.9528 18.8875C18.7748 18.8875 20.5881 18.8875 22.4014 18.9133C18.431 22.1188 14.5895 25.4791 10.5503 28.5987C12.6644 25.3502 14.8387 22.136 16.9528 18.8875Z" fill="#010101"/>
</g>
<defs>
<clipPath id="clip0_202_16090">
<rect width="37" height="36" fill="white"/>
</clipPath>
</defs>
</svg>
