<svg width="36" height="37" viewBox="0 0 36 37" fill="none" xmlns="http://www.w3.org/2000/svg">
<path d="M32.9981 23.0407C35.7725 21.532 36.7985 18.0598 35.2897 15.2854C33.781 12.511 30.3088 11.485 27.5344 12.9937C24.7599 14.5025 23.7339 17.9747 25.2427 20.7491C26.7515 23.5235 30.2237 24.5495 32.9981 23.0407Z" fill="#00A2C7"/>
<path d="M32.9899 35.2946C35.7643 33.7858 36.7903 30.3137 35.2815 27.5392C33.7727 24.7648 30.3006 23.7388 27.5261 25.2476C24.7517 26.7564 23.7257 30.2286 25.2345 33.003C26.7433 35.7774 30.2155 36.8034 32.9899 35.2946Z" fill="#00A2C7"/>
<path d="M18.0222 13.947C19.1659 13.947 20.1461 14.4371 20.963 15.0906C21.7799 15.9075 22.1067 16.8878 22.1067 18.0315C22.1067 20.3188 20.3095 22.1159 18.0222 22.1159C16.8785 22.1159 15.8983 21.6258 15.0814 20.9723C14.2645 20.1554 13.9377 19.1751 13.9377 18.0315C13.7743 15.7441 15.7349 13.947 18.0222 13.947ZM18.0222 12.3132C14.918 12.3132 12.3039 14.9272 12.3039 18.0315C12.3039 21.1357 14.918 23.7497 18.0222 23.7497C21.1264 23.7497 23.7405 21.1357 23.7405 18.0315C23.7405 14.9272 21.1264 12.3132 18.0222 12.3132Z" fill="#00A2C7"/>
<path d="M10.9591 20.3018C12.238 17.4143 10.934 14.0367 8.04649 12.7577C5.15895 11.4787 1.78131 12.7827 0.502331 15.6703C-0.776649 18.5578 0.527356 21.9354 3.4149 23.2144C6.30244 24.4934 9.68007 23.1894 10.9591 20.3018Z" fill="#00A2C7"/>
<path d="M23.2372 8.05362C24.5161 5.16607 23.2121 1.78844 20.3246 0.509459C17.437 -0.769521 14.0594 0.534477 12.7804 3.42202C11.5015 6.30956 12.8054 9.6872 15.693 10.9662C18.5805 12.2452 21.9582 10.9412 23.2372 8.05362Z" fill="#00A2C7"/>
<path d="M10.974 8.03868C12.253 5.15113 10.949 1.7735 8.06143 0.49452C5.17389 -0.78446 1.79625 0.519538 0.517272 3.40708C-0.761708 6.29462 0.542289 9.67226 3.42983 10.9512C6.31738 12.2302 9.69502 10.9262 10.974 8.03868Z" fill="#00A2C7"/>
<path d="M23.2073 32.58C24.4863 29.6924 23.1823 26.3148 20.2947 25.0358C17.4072 23.7568 14.0295 25.0608 12.7506 27.9484C11.4716 30.8359 12.7756 34.2135 15.6631 35.4925C18.5507 36.7715 21.9283 35.4675 23.2073 32.58Z" fill="#00A2C7"/>
<path d="M5.76875 26.2004C6.91241 26.2004 7.89268 26.6906 8.70957 27.3441C9.52647 28.161 9.85324 29.1412 9.85324 30.2849C9.85324 32.5722 8.05606 34.3694 5.76875 34.3694C3.48144 34.3694 1.68427 32.5722 1.68427 30.2849C1.52089 27.9976 3.48144 26.2004 5.76875 26.2004ZM5.76875 24.5666C2.66454 24.5666 0.0504708 27.1807 0.0504708 30.2849C0.0504708 33.3891 2.66454 36.0032 5.76875 36.0032C8.87296 36.0032 11.487 33.3891 11.487 30.2849C11.487 27.1807 8.87296 24.5666 5.76875 24.5666Z" fill="#00A2C7"/>
<path fill-rule="evenodd" clip-rule="evenodd" d="M30.2756 0.0597349C27.1714 0.0597349 24.5574 2.6738 24.5574 5.77801C24.5574 8.88222 27.1714 11.4963 30.2756 11.4963C33.3798 11.4963 35.9939 8.88222 35.9939 5.77801C35.9939 2.6738 33.3798 0.0597349 30.2756 0.0597349ZM34.3601 5.61463C34.3601 3.32732 32.563 1.53015 30.2756 1.53015C27.9883 1.53015 26.1912 3.32732 26.1912 5.61463C26.1912 7.90194 27.9883 9.69911 30.2756 9.69911C32.563 9.69911 34.3601 7.90194 34.3601 5.61463Z" fill="#00A2C7"/>
</svg>
