<svg width="37" height="34" viewBox="0 0 37 34" fill="none" xmlns="http://www.w3.org/2000/svg">
<g clip-path="url(#clip0_202_12360)">
<path d="M7.64578 31.2461L0.499665 18.8521C-0.161672 17.704 -0.161672 16.2895 0.499665 15.1413L7.64578 2.75655C8.31018 1.60533 9.53794 0.898071 10.8606 0.898071H25.1437C26.4694 0.898071 27.7002 1.60533 28.3585 2.75655L35.5077 15.1474C36.169 16.2956 36.169 17.7101 35.5077 18.8583L28.3615 31.2522C27.6971 32.4034 26.4694 33.1107 25.1467 33.1107H10.8698C9.53794 33.1046 8.31324 32.3942 7.64578 31.2461Z" fill="white"/>
<path d="M8.25514 30.4041L1.53461 18.748C0.910013 17.6672 0.910013 16.3353 1.53461 15.2576L8.25514 3.59848C8.8828 2.51462 10.0371 1.85022 11.2832 1.85022H24.7243C25.9704 1.85022 27.1277 2.51462 27.7523 3.59848L34.479 15.2515C35.1036 16.3323 35.1036 17.6641 34.479 18.7419L27.7554 30.4071C27.1277 31.491 25.9735 32.1554 24.7273 32.1554H11.2893C10.0371 32.1554 8.8828 31.4879 8.25514 30.4041Z" fill="#7C4DFF"/>
<path d="M10.0703 14.2843C9.76487 13.9839 9.57634 13.565 9.57789 13.0992C9.57789 10.6835 11.5343 8.72704 13.9501 8.73011H22.2535C23.9773 8.73011 25.3765 10.1293 25.3765 11.8531V14.4464C25.3765 14.6178 25.2387 14.7587 25.0642 14.7587H19.0526L24.7641 20.4719C24.7732 20.481 24.7822 20.4902 24.791 20.4994C25.1476 20.7756 25.3765 21.208 25.3765 21.6935C25.3765 24.1889 23.3496 26.2157 20.8543 26.2157H12.5906C10.9281 26.2157 9.57483 24.8655 9.57789 23.1969V20.4841C9.57789 20.3219 9.70648 20.1841 9.87794 20.1841H15.9586L10.1902 14.4158C10.1476 14.3735 10.1077 14.3296 10.0703 14.2843Z" fill="#F7F7F7"/>
<path opacity="0.3" d="M20.6732 24.9054L14.614 20.1842H15.9551L20.6732 24.9054Z" fill="#444444"/>
<path opacity="0.3" d="M14.2805 9.98499L19.0538 14.7582H20.6734L14.2805 9.98499Z" fill="#444444"/>
</g>
<defs>
<clipPath id="clip0_202_12360">
<rect width="37" height="34" fill="white"/>
</clipPath>
</defs>
</svg>
