<svg width="36" height="37" viewBox="0 0 36 37" fill="none" xmlns="http://www.w3.org/2000/svg">
<g clip-path="url(#clip0_202_9095)">
<path d="M31.1152 5.70159L13.3922 24.8623L35.6657 14.5862C35.0068 11.1866 33.3934 8.12963 31.1152 5.70159ZM17.9655 0.00219727C15.51 0.00219727 13.1706 0.494681 11.0374 1.38352L8.6593 21.4234L20.5428 0.188557C19.7007 0.0677186 18.8409 0.00219727 17.9655 0.00219727ZM35.8423 15.6902L14.7369 27.5012L34.5383 25.1515C35.4771 22.9684 35.9991 20.5634 35.9991 18.036C35.9991 17.2401 35.9422 16.4587 35.8423 15.6902ZM28.0611 32.9808C30.4193 31.3847 32.3774 29.2439 33.7604 26.7407L15.2001 30.4265L28.0611 32.9808ZM21.6295 0.375454L11.2981 22.7682L30.4631 5.04197C28.0597 2.72993 25.02 1.07524 21.6295 0.375454ZM19.4728 36.0022C21.4696 35.8368 23.374 35.3486 25.1334 34.5854L14.737 33.3518L19.4728 36.0022ZM1.52704 10.6224C0.716075 12.4178 0.190291 14.3679 0.00769043 16.4184L2.80846 21.4238L1.52704 10.6224ZM9.47466 2.12493C6.93007 3.48584 4.75176 5.43859 3.12017 7.80004L5.73404 20.9602L9.47466 2.12493Z" fill="#C7402B"/>
</g>
<defs>
<clipPath id="clip0_202_9095">
<rect width="36" height="37" fill="white"/>
</clipPath>
</defs>
</svg>
