<svg width="43" height="43" viewBox="0 0 43 43" fill="none" xmlns="http://www.w3.org/2000/svg">
<g clip-path="url(#clip0_202_10947)">
<circle cx="21.0054" cy="21.0024" r="21" fill="#FF5502"/>
<path d="M32.9007 28.5024H20.6216V13.6681C21.7593 12.6292 23.2328 12.0024 24.8426 12.0024C28.4047 12.0024 31.3 15.0718 31.3647 18.8845C31.8451 18.7019 32.3621 18.6024 32.9007 18.6024C35.4438 18.6024 37.5054 20.8186 37.5054 23.5524C37.5054 26.2863 35.4438 28.5024 32.9007 28.5024Z" fill="white"/>
<path d="M19.5054 15.0024H18.0054V28.5024H19.5054V15.0024Z" fill="white"/>
<path d="M15.0054 16.5024H16.5054V28.5024H15.0054V16.5024Z" fill="white"/>
<path d="M13.5054 19.5024H12.0054V28.5024H13.5054V19.5024Z" fill="white"/>
<path d="M9.00537 18.0024H10.5054V28.5024H9.00537V18.0024Z" fill="white"/>
<path d="M7.50537 21.0024H6.00537V28.5024H7.50537V21.0024Z" fill="white"/>
</g>
<defs>
<clipPath id="clip0_202_10947">
<rect width="43" height="43" fill="white"/>
</clipPath>
</defs>
</svg>
