<svg width="36" height="37" viewBox="0 0 36 37" fill="none" xmlns="http://www.w3.org/2000/svg">
<g clip-path="url(#clip0_202_13937)">
<path d="M10.5725 4.59198L18.4357 33.3367C18.9641 35.2685 20.9583 36.4061 22.8889 35.877C24.8209 35.348 25.9573 33.3533 25.4286 31.4218L17.564 2.67621C17.0353 0.745054 15.0414 -0.392833 13.1108 0.136489C11.1805 0.664672 10.0437 2.65997 10.5725 4.59169V4.59198Z" fill="#F96316"/>
<path d="M25.1332 4.48287L5.44252 26.7179C4.11422 28.2172 4.25304 30.5098 5.75093 31.8383C7.24883 33.1666 9.53914 33.0281 10.8674 31.5294L30.5581 9.29467C31.8864 7.79535 31.7476 5.50361 30.2497 4.17474C28.7512 2.84531 26.4604 2.98412 25.1332 4.48259V4.48287Z" fill="#B200F8"/>
<path d="M2.82161 16.8044L30.9028 26.0953C32.8032 26.7239 34.8535 25.6923 35.482 23.7902C36.1119 21.8884 35.0801 19.8372 33.1789 19.2079L5.09852 9.91778C3.19729 9.28869 1.14784 10.3203 0.519038 12.2223C-0.109194 14.1241 0.922657 16.1759 2.82218 16.8044H2.82161Z" fill="#00B4F2"/>
</g>
<defs>
<clipPath id="clip0_202_13937">
<rect width="36" height="37" fill="white"/>
</clipPath>
</defs>
</svg>
