<svg width="32" height="41" viewBox="0 0 32 41" fill="none" xmlns="http://www.w3.org/2000/svg">
<g clip-path="url(#clip0_202_9462)">
<path d="M31.858 15.8628C31.858 7.10383 24.7575 0.00331189 15.9985 0.00331189C8.19195 -0.00769725 1.53919 5.6659 0.317584 13.3763C-0.904017 21.0867 3.66915 28.5389 11.0968 30.9415V38.888C11.0968 39.5039 11.5961 40.0033 12.2121 40.0033H19.7403C20.3563 40.0033 20.8556 39.5039 20.8556 38.888V30.9471C27.4067 28.8377 31.8505 22.7451 31.858 15.8628ZM15.9985 21.2218C13.0373 21.2218 10.6367 18.8212 10.6367 15.86C10.6367 12.8988 13.0373 10.4982 15.9985 10.4982C18.9597 10.4982 21.3603 12.8988 21.3603 15.86C21.3603 18.8212 18.9597 21.2218 15.9985 21.2218Z" fill="#2684FF"/>
<path d="M15.9985 0.00318854V10.5037C18.9598 10.5037 21.3603 12.9042 21.3603 15.8655C21.3603 18.8267 18.9598 21.2272 15.9985 21.2272C17.2985 21.2272 18.5453 21.7437 19.4646 22.6629C20.3838 23.5822 20.9002 24.8289 20.9002 26.1289V30.9526C28.3306 28.5495 32.9058 21.095 31.6842 13.3818C30.4626 5.66859 23.8078 -0.00737096 15.9985 0.00318854Z" fill="url(#paint0_linear_202_9462)"/>
</g>
<defs>
<linearGradient id="paint0_linear_202_9462" x1="23.9283" y1="28.0807" x2="23.9283" y2="11.2342" gradientUnits="userSpaceOnUse">
<stop offset="0.18" stop-color="#0052CC"/>
<stop offset="1" stop-color="#2684FF"/>
</linearGradient>
<clipPath id="clip0_202_9462">
<rect width="32" height="41" fill="white"/>
</clipPath>
</defs>
</svg>
