<svg width="37" height="36" viewBox="0 0 37 36" fill="none" xmlns="http://www.w3.org/2000/svg">
<g clip-path="url(#clip0_202_14535)">
<path d="M7.7713 35.35H4.5665C4.5665 32.5593 6.19714 30.1509 8.55704 29.0231C7.79609 30.1441 7.35086 31.497 7.35086 32.9541C7.35086 33.7957 7.49951 34.6022 7.7713 35.35ZM25.4612 35.35H22.2564C22.2564 32.5593 23.887 30.1509 26.2474 29.0231C25.4864 30.1441 25.0408 31.497 25.0408 32.9541C25.0408 33.7957 25.1899 34.6022 25.4612 35.35ZM34.5977 33.4201C33.7477 30.5066 31.1036 28.3409 27.9155 28.3409C24.0449 28.3409 20.9063 31.4786 20.9063 35.3493H17.2499C17.2495 31.4786 14.1115 28.3409 10.2408 28.3409C6.37017 28.3409 3.23162 31.4786 3.23162 35.3493H0.266108C0.0962648 34.3553 0.00676546 33.3349 0.00676546 32.2927C0.00676546 28.2546 1.33681 24.5261 3.58211 21.5228C2.05064 20.3885 0.867605 18.7583 0.308183 16.7808C-0.882364 12.5773 1.55788 8.21143 5.76065 7.02212C6.75779 6.73994 7.3881 5.70442 7.1055 4.70769C6.82332 3.71054 5.73627 3.13188 4.73953 3.41406C4.02498 3.61621 3.28121 3.20142 3.07937 2.48646C2.87671 1.77149 3.29119 1.02854 4.00656 0.825884C6.43446 0.138899 8.95629 1.54682 9.64327 3.97472C10.3307 6.40221 8.92152 8.92362 6.49362 9.61112C4.39223 10.2058 3.17206 12.3884 3.76677 14.4901C4.24399 16.175 5.44133 17.4591 6.92969 18.1042C9.98378 15.7162 13.8294 14.2927 18.0065 14.2927C21.2693 14.2927 24.3291 15.1607 26.968 16.6782C27.1761 14.6735 28.3216 12.911 30.0078 11.967C30.0536 12.154 30.0933 12.3447 30.1232 12.5389C30.3422 13.9653 30.0712 15.3473 29.4458 16.5082C29.8179 16.3668 30.2071 16.258 30.6151 16.1957C32.036 15.9771 33.4197 16.3024 34.569 17.0214C33.7293 17.8402 32.6483 18.4114 31.4177 18.6009C30.8315 18.6908 30.2519 18.6868 29.6925 18.6024C33.5564 21.9036 36.0066 26.8122 36.0066 32.2927C36.0066 32.6592 35.9962 33.026 35.9743 33.3866C35.9567 33.7978 35.7121 34.0644 35.3476 34.0835C34.9822 34.1024 34.7688 33.8749 34.5977 33.4201ZM29.1356 23.2824C29.1356 22.5734 28.5614 21.9987 27.8523 21.9987C27.1437 21.9987 26.5685 22.5734 26.5685 23.2824C26.5685 23.9911 27.1437 24.5662 27.8523 24.5662C28.5614 24.566 29.1356 23.9911 29.1356 23.2824Z" fill="#027AC3"/>
</g>
<defs>
<clipPath id="clip0_202_14535">
<rect width="37" height="36" fill="white"/>
</clipPath>
</defs>
</svg>
