<svg width="36" height="37" viewBox="0 0 36 37" fill="none" xmlns="http://www.w3.org/2000/svg">
<g clip-path="url(#clip0_202_14441)">
<path opacity="0.5" d="M1.91288 25.5395C4.26659 23.1464 34.3125 0.542893 34.8253 1.05571C35.2198 1.45019 12.8793 31.8511 10.5125 34.2311C8.1456 36.6111 4.30604 36.5848 1.93918 34.1917C-0.440821 31.7985 -0.440821 27.9195 1.91288 25.5395Z" fill="#FFA64D"/>
<path opacity="0.3" d="M3.24097 24.4746C6.13379 22.7784 35.5091 11.1282 35.8641 11.7593C36.1403 12.2459 12.1956 33.4292 9.2896 35.1123C6.39678 36.7954 2.70185 35.7829 1.03191 32.8375C-0.638041 29.9184 0.348148 26.1709 3.24097 24.4746Z" fill="#FFA64D"/>
<path opacity="0.3" d="M11.5643 32.8644C13.2474 29.9453 24.7924 0.359577 24.1744 0.00454885C23.6879 -0.271584 2.67545 23.8572 0.992355 26.7763C-0.677592 29.6954 0.334896 33.4167 3.25402 35.0866C6.15999 36.7697 9.88121 35.7704 11.5643 32.8644Z" fill="#FFA64D"/>
<path opacity="0.2" d="M4.64784 23.8566C7.88255 22.9756 35.0093 19.6225 35.2066 20.3195C35.3512 20.8586 10.9858 34.823 7.75105 35.704C4.51635 36.585 1.20275 34.6389 0.348057 31.3648C-0.50664 28.0906 1.42629 24.7376 4.64784 23.8566Z" fill="#FFA64D"/>
<path opacity="0.1" d="M4.64784 23.8567C7.88255 22.9757 29.8023 27.933 29.9863 28.6167C30.131 29.1559 10.9726 34.81 7.73791 35.691C4.5032 36.572 1.18961 34.6259 0.334909 31.3518C-0.50664 28.0908 1.42629 24.7377 4.64784 23.8567Z" fill="#FFA64D"/>
<path opacity="0.1" d="M12.1824 31.4318C13.0634 28.1708 8.13249 6.09335 7.43558 5.90926C6.89647 5.76462 1.29491 25.0545 0.427062 28.3155C-0.440784 31.5765 1.49215 34.9164 4.74 35.7579C7.9747 36.6258 11.3146 34.6928 12.1824 31.4318Z" fill="#FFA64D"/>
<path opacity="0.2" d="M12.1824 31.4321C13.0634 28.1711 16.377 0.847079 15.6933 0.66299C15.1542 0.518349 1.30806 25.0547 0.427062 28.3289C-0.440784 31.5899 1.49215 34.9298 4.74 35.7713C7.9747 36.6392 11.3146 34.6931 12.1824 31.4321Z" fill="#FFA64D"/>
</g>
<defs>
<clipPath id="clip0_202_14441">
<rect width="36" height="37" fill="white"/>
</clipPath>
</defs>
</svg>
