<svg width="37" height="37" viewBox="0 0 37 37" fill="none" xmlns="http://www.w3.org/2000/svg">
<g clip-path="url(#clip0_202_10772)">
<path d="M0.00756836 13.0308C0.00756836 8.47034 0.00756836 6.19013 0.895087 4.44827C1.67577 2.9161 2.92147 1.6704 4.45365 0.889716C6.1955 0.00219727 8.47571 0.00219727 13.0361 0.00219727H22.979C27.5394 0.00219727 29.8196 0.00219727 31.5615 0.889716C33.0937 1.6704 34.3394 2.9161 35.1201 4.44827C36.0076 6.19013 36.0076 8.47034 36.0076 13.0308V22.9736C36.0076 27.5341 36.0076 29.8143 35.1201 31.5561C34.3394 33.0883 33.0937 34.334 31.5615 35.1147C29.8196 36.0022 27.5394 36.0022 22.979 36.0022H13.0361C8.47571 36.0022 6.1955 36.0022 4.45365 35.1147C2.92147 34.334 1.67577 33.0883 0.895087 31.5561C0.00756836 29.8143 0.00756836 27.5341 0.00756836 22.9736V13.0308Z" fill="#370000"/>
<path d="M10.9653 26.0676C9.52485 26.0951 8.00678 25.8582 6.69087 25.2215C6.55636 25.1588 6.49658 25.0177 6.49658 24.7984V21.7898C6.49658 21.6619 6.60011 21.5905 6.70582 21.6644C8.00177 22.5099 9.52727 22.9807 11.055 22.9807C12.0126 22.9807 13.5957 22.7885 13.5957 21.4451C13.5957 19.8227 11.3031 19.2875 10.1881 18.7969C8.11894 17.8623 6.4368 16.4906 6.4368 13.9549C6.40691 12.1373 7.42321 10.4606 9.00744 9.72412C10.9332 8.76775 13.9787 8.75538 15.9422 9.72412C16.0468 9.7868 16.1215 9.91216 16.1066 10.0532V12.9051C16.1066 13.0307 15.9788 13.0631 15.8974 12.9991C14.7627 12.4043 13.4726 12.1234 12.2058 12.1529C11.4202 12.1529 10.2257 12.2477 9.79956 13.0774C8.97436 14.8078 11.704 15.6514 12.8634 16.1174C14.9903 17.0282 16.9585 18.5026 16.9585 21.163C17.0133 24.6104 13.7624 26.0676 10.9653 26.0676Z" fill="#FA0F00"/>
<path d="M23.4898 13.0241C26.871 13.0241 29.5972 15.5894 29.5772 19.1541C29.6231 21.1521 28.8005 23.1039 27.295 24.3439C25.6507 25.697 23.7137 26.0425 21.6889 26.0425V30.3297C21.701 30.4479 21.611 30.5549 21.4976 30.5569C20.5241 30.6588 19.5293 30.7685 18.5608 30.8593C18.4651 30.8593 18.4113 30.792 18.4113 30.6588V15.8493C18.4113 15.3072 18.4035 14.7469 18.3381 14.2087C18.3263 14.1404 18.3709 14.0685 18.4352 14.052C20.042 13.4414 21.7746 13.01 23.4898 13.0241ZM21.6769 16.1204V23.0151C24.0291 23.8318 26.1412 21.7698 26.1412 19.386C26.1412 16.7708 24.0618 15.4526 21.6769 16.1204Z" fill="#FA0F00"/>
</g>
<defs>
<clipPath id="clip0_202_10772">
<rect width="37" height="37" fill="white"/>
</clipPath>
</defs>
</svg>
