<svg width="32" height="37" viewBox="0 0 32 37" fill="none" xmlns="http://www.w3.org/2000/svg">
<g clip-path="url(#clip0_202_11129)">
<path d="M1.56582 21.7482C1.71659 21.6586 1.85718 21.5679 2.00795 21.4783C6.29885 18.8754 11.149 17.5796 16.0115 17.5796C20.8627 17.5796 25.7149 18.8764 30.0027 21.4783C30.1535 21.5679 30.2941 21.6586 30.4459 21.7482C31.2792 22.3717 31.8314 23.3558 31.8314 24.4815C31.8314 26.3692 30.3043 27.8963 28.4156 27.8963C27.7024 27.8963 27.0392 27.6752 26.4881 27.3034C24.2876 25.9668 21.8875 25.1029 19.4252 24.6822V32.5865C19.4252 34.4763 17.889 36.0024 16.0104 36.0024C14.1227 36.0024 12.5855 34.4753 12.5855 32.5865V24.6822C10.1242 25.1029 7.72304 25.9668 5.52258 27.3034C4.98061 27.6752 4.31742 27.8963 3.59513 27.8963C1.70742 27.8963 0.179321 26.3692 0.179321 24.4815C0.179321 23.3558 0.732493 22.3727 1.56582 21.7482Z" fill="#253351"/>
<path d="M1.56578 14.2555C1.71655 14.3452 1.85713 14.4369 2.00791 14.5265C3.52378 15.4464 5.11301 16.1952 6.74604 16.7891C9.73194 15.7011 12.8676 15.152 16.0114 15.152C19.1471 15.152 22.2817 15.7021 25.2646 16.7891C26.8976 16.1952 28.4858 15.4475 30.0027 14.5265C30.1535 14.4369 30.2941 14.3452 30.4448 14.2555C31.2782 13.6341 31.8313 12.648 31.8313 11.5233C31.8313 9.63558 30.3042 8.10748 28.4155 8.10748C27.6932 8.10748 27.029 8.32855 26.4881 8.70141C24.2876 10.038 21.8875 10.9019 19.4252 11.3226V3.41724C19.4252 1.52952 17.8879 0.00244141 16.0002 0.00244141C14.1217 0.00244141 12.5854 1.52952 12.5854 3.41724V11.3226C10.1242 10.9019 7.723 10.038 5.52254 8.70141C4.97242 8.32855 4.30923 8.1085 3.59611 8.1085C1.7084 8.1085 0.180299 9.6366 0.180299 11.5243C0.179281 12.648 0.732453 13.6331 1.56578 14.2555Z" fill="#4690DC"/>
</g>
<defs>
<clipPath id="clip0_202_11129">
<rect width="32" height="37" fill="white"/>
</clipPath>
</defs>
</svg>
