<svg width="41" height="26" viewBox="0 0 41 26" fill="none" xmlns="http://www.w3.org/2000/svg">
<g clip-path="url(#clip0_202_13077)">
<path d="M16.7118 16.1272H7.81616C3.50144 16.1272 0.00366211 12.6294 0.00366211 8.3147C0.00366211 3.99997 3.50144 0.502197 7.81616 0.502197H18.1945C19.9203 0.502197 21.3195 1.90131 21.3195 3.6272C21.3195 5.35309 19.9203 6.7522 18.1945 6.7522H7.65639C6.79344 6.7522 6.09389 7.45175 6.09389 8.3147C6.09389 9.17764 6.79344 9.8772 7.65639 9.8772H16.5521C20.8668 9.8772 24.3646 13.375 24.3646 17.6897C24.3646 22.0044 20.8668 25.5022 16.5521 25.5022H3.12866C1.40277 25.5022 0.00366211 24.1031 0.00366211 22.3772C0.00366211 20.6513 1.40277 19.2522 3.12866 19.2522H16.7118C17.5748 19.2522 18.2743 18.5526 18.2743 17.6897C18.2743 16.8268 17.5748 16.1272 16.7118 16.1272ZM23.287 25.5022C25.3651 24.0968 26.8503 21.8566 27.2799 19.2522H32.3229C33.1713 19.2522 33.8591 18.5526 33.8591 17.6897V8.3147C33.8591 7.45175 33.1713 6.7522 32.3229 6.7522H23.1616C23.8913 5.92289 24.335 4.82775 24.335 3.6272C24.335 2.42664 23.8913 1.3315 23.1616 0.502197H33.8591C37.2526 0.502197 40.0037 3.30042 40.0037 6.7522V19.2522C40.0037 22.704 37.2526 25.5022 33.8591 25.5022H23.287Z" fill="#009287"/>
</g>
<defs>
<clipPath id="clip0_202_13077">
<rect width="41" height="26" fill="white"/>
</clipPath>
</defs>
</svg>
