<svg width="36" height="37" viewBox="0 0 36 37" fill="none" xmlns="http://www.w3.org/2000/svg">
<g clip-path="url(#clip0_202_15504)">
<path d="M8.44377 22.8534C10.0484 22.8621 11.3821 22.2442 12.5359 21.1483C15.491 18.3414 18.4575 15.5467 21.4275 12.7554C24.6062 9.76776 29.2326 9.43431 32.7056 11.9302C36.6056 14.7331 37.1575 20.1794 33.7486 23.5517C30.2819 26.9812 26.678 30.2717 23.1328 33.6216C22.697 34.0335 22.2741 34.4623 21.8099 34.84C18.9415 37.1741 14.5108 35.8175 13.6602 32.3274C13.2367 30.5889 13.7555 29.0899 15.0497 27.8648C17.5324 25.5149 20.0211 23.1714 22.5074 20.8255C23.6415 19.7555 24.753 18.6595 25.9254 17.6331C26.2573 17.3425 27.243 16.5515 28.1405 17.4488C29.0379 18.3463 28.54 19.0955 28.0876 19.5219C26.2984 21.2086 24.5123 22.8983 22.7235 24.5853C20.9349 26.2725 19.1423 27.9556 17.3556 29.6448C16.3401 30.6049 16.2119 31.6811 16.999 32.5356C17.8048 33.4103 19.1473 33.4168 20.107 32.5143C23.8643 28.9811 27.623 25.4496 31.3581 21.893C32.9587 20.369 33.4724 18.5039 32.6476 16.4266C31.8161 14.3322 30.1475 13.2719 27.9305 13.0954C26.1964 12.9575 24.7318 13.5821 23.4755 14.7753C20.5056 17.5961 17.5256 20.4067 14.538 23.2087C11.1337 26.4017 5.99902 26.4967 2.61102 23.4451C-0.683914 20.4773 -0.918649 15.4945 2.24278 12.3902C6.07879 8.62323 10.0127 4.95467 13.9539 1.29703C15.3863 -0.0322209 17.1528 -0.304979 18.9933 0.339253C20.7284 0.946662 21.8383 2.17419 22.1324 4.01849C22.3887 5.62553 21.7935 6.95214 20.6252 8.05145C17.8735 10.6405 15.1274 13.2355 12.3785 15.8275C11.6077 16.5543 10.8465 17.2921 10.0591 18.0005C9.43741 18.5597 8.55868 18.5586 7.98726 18.0419C7.3399 17.4562 7.37889 16.5868 8.10636 15.8987C10.3714 13.7553 12.6437 11.6193 14.9127 9.48001C16.0763 8.38286 17.2414 7.28739 18.4015 6.18664C19.3549 5.28189 19.4763 4.25658 18.7337 3.45834C17.9657 2.63287 16.6987 2.63719 15.7871 3.49684C12.1218 6.95274 8.46068 10.4127 4.80448 13.8781C3.05194 15.5393 2.5478 17.5704 3.36272 19.5827C4.16096 21.5536 6.18326 22.8557 8.44377 22.8534Z" fill="#4295C2"/>
</g>
<defs>
<clipPath id="clip0_202_15504">
<rect width="36.0005" height="37" fill="white"/>
</clipPath>
</defs>
</svg>
