<svg width="41" height="41" viewBox="0 0 41 41" fill="none" xmlns="http://www.w3.org/2000/svg">
<g clip-path="url(#clip0_202_10972)">
<path d="M20.0054 0.00244141C31.0511 0.00244141 40.0054 8.95675 40.0054 20.0024C40.0054 31.0481 31.0511 40.0024 20.0054 40.0024C8.95968 40.0024 0.00537212 31.0481 0.00537109 20.0024C0.00537109 8.95675 8.95968 0.00244141 20.0054 0.00244141ZM28.687 26.4741C23.6755 23.5464 17.4341 22.8734 10.1675 24.4565C9.52975 24.5866 9.1423 25.1941 9.27881 25.8013C9.41549 26.4085 10.0541 26.7771 10.6919 26.647C17.3433 25.2158 22.9701 25.8014 27.4575 28.4038C28.0269 28.7289 28.7554 28.5775 29.0972 28.0356C29.4389 27.4935 29.2565 26.7994 28.687 26.4741ZM30.9653 21.1606C25.0654 17.7124 16.4548 16.7582 9.52979 18.7534C8.7325 18.9703 8.30004 19.7512 8.52783 20.5103C8.75583 21.2473 9.57547 21.6597 10.3726 21.4429C16.4319 19.6862 24.2452 20.5534 29.3706 23.5679C30.0768 23.9582 30.9876 23.7626 31.4204 23.0903C31.8532 22.4181 31.6258 21.5511 30.9653 21.1606ZM33.4253 15.0015C26.3636 11.0111 15.1563 10.6209 8.41357 12.5728C7.47961 12.8547 6.93287 13.8086 7.229 14.6978C7.52514 15.6086 8.52746 16.1076 9.46143 15.8257C15.3385 14.1341 25.475 14.4594 31.6255 17.9292C32.4683 18.428 33.5622 18.1459 34.0405 17.3218C34.5416 16.5194 34.2681 15.4786 33.4253 15.0015Z" fill="#1ED760"/>
</g>
<defs>
<clipPath id="clip0_202_10972">
<rect width="41" height="41" fill="white"/>
</clipPath>
</defs>
</svg>
