<svg width="37" height="36" viewBox="0 0 37 36" fill="none" xmlns="http://www.w3.org/2000/svg">
<g clip-path="url(#clip0_202_11336)">
<path d="M5.48104 5.07982C12.5937 -1.81059 23.9666 -1.62536 30.857 5.52436C31.6349 4.48709 32.3017 3.33869 32.7833 2.15325C35.0431 9.04365 36.4138 14.8227 35.8951 19.3052C35.6358 23.0838 34.154 26.7142 31.709 29.6037C25.3372 37.1609 14.0014 38.1241 6.44421 31.7523L6.29964 31.6237L6.29195 31.6187C6.26828 31.6022 6.24494 31.585 6.22194 31.5671C6.15296 31.5135 6.09032 31.4551 6.03403 31.3927L6.01375 31.3696L5.7774 31.1596C5.5469 30.962 5.31639 30.7645 5.11191 30.5409L5.0365 30.4558C-1.8539 23.3431 -1.63163 11.9702 5.48104 5.07982ZM8.14829 29.1962C7.48148 28.6776 6.5183 28.7517 5.99967 29.4185C5.54363 30.0048 5.54588 30.8203 6.00641 31.3612L6.01375 31.3696L6.29964 31.6237L6.32769 31.6428C6.97521 32.0686 7.84641 31.9806 8.34334 31.3788L8.37056 31.3448C8.88919 30.678 8.77806 29.7149 8.14829 29.1962ZM32.5981 4.00551C30.7458 7.89525 26.1522 10.8589 22.1884 11.785C18.4468 12.6741 15.1869 11.9332 11.7417 13.2668C3.8881 16.2675 4.03628 25.6028 8.33352 27.7144L8.59283 27.8626C8.59283 27.8626 11.6968 27.2454 14.7664 26.4304L15.0293 26.3601C16.2553 26.0297 17.4614 25.6695 18.4468 25.3065C23.5591 23.4172 29.1899 18.7495 31.0422 13.3409C30.079 18.9718 25.2261 24.4174 20.3732 26.8994C17.78 28.233 15.7796 28.5294 11.5194 30.0112C11.0008 30.1964 10.5933 30.3817 10.5933 30.3817C10.6453 30.3745 10.6972 30.3675 10.7491 30.3607L10.8526 30.3473L10.9556 30.3343C11.8965 30.2177 12.7419 30.1594 12.7419 30.1594C18.7803 29.863 28.2638 31.8635 32.6722 25.9733C37.1917 19.972 34.6726 10.2661 32.5981 4.00551Z" fill="#6DB33F"/>
<path d="M8.14864 29.1958C8.77841 29.7144 8.88955 30.6776 8.37091 31.3444C7.85228 32.0112 6.88911 32.0853 6.22229 31.5667C5.55548 31.0481 5.48139 30.0849 6.00002 29.4181C6.51866 28.7513 7.48183 28.6772 8.14864 29.1958ZM32.5985 4.0051C34.673 10.2657 37.1921 19.9716 32.6725 25.9729C28.2642 31.8631 18.7806 29.8626 12.7422 30.159C12.7422 30.159 11.8968 30.2173 10.956 30.3339L10.853 30.3469C10.7669 30.3578 10.6803 30.3693 10.5936 30.3813C10.5936 30.3813 11.0011 30.196 11.5198 30.0108C15.7799 28.529 17.7804 28.2326 20.3735 26.899C25.2265 24.417 30.0794 18.9713 31.0426 13.3405C29.1903 18.7491 23.5594 23.4168 18.4472 25.3061C14.9279 26.6026 8.59318 27.8622 8.59318 27.8622L8.33387 27.714C4.03663 25.6024 3.88845 16.267 11.742 13.2664C15.1872 11.9328 18.4472 12.6737 22.1888 11.7846C26.1526 10.8585 30.7462 7.89484 32.5985 4.0051Z" fill="white"/>
</g>
<defs>
<clipPath id="clip0_202_11336">
<rect width="37" height="36" fill="white"/>
</clipPath>
</defs>
</svg>
