<svg width="37" height="37" viewBox="0 0 37 37" fill="none" xmlns="http://www.w3.org/2000/svg">
<g clip-path="url(#clip0_202_9492)">
<path d="M29.9868 0.00317383H6.01954C2.6972 0.00317383 0.00317383 2.69638 0.00317383 6.01954V29.9868C0.00317383 33.31 2.6972 36.0032 6.01954 36.0032H29.9868C33.31 36.0032 36.0032 33.31 36.0032 29.9868V6.01954C36.004 2.69638 33.3108 0.00317383 29.9868 0.00317383V0.00317383ZM29.4583 27.5611C29.4583 28.6099 28.6083 29.4591 27.5603 29.4591H8.45013C7.40132 29.4591 6.55131 28.6099 6.55131 27.5611V8.45013C6.55131 7.40132 7.40132 6.55131 8.45013 6.55131H27.5603C28.6083 6.55131 29.4583 7.40132 29.4583 8.45013V27.5611Z" fill="#2E3B4E"/>
<path d="M14.1835 22.9127C13.5813 22.9127 13.0938 22.4218 13.0938 21.8172V14.1892C13.0938 13.5846 13.5813 13.0938 14.1835 13.0938H21.823C22.4267 13.0938 22.9127 13.5846 22.9127 14.1892V21.8172C22.9127 22.4218 22.4267 22.9127 21.823 22.9127H14.1835Z" fill="#2E3B4E"/>
</g>
<defs>
<clipPath id="clip0_202_9492">
<rect width="37" height="37" fill="white"/>
</clipPath>
</defs>
</svg>
