<svg width="37" height="30" viewBox="0 0 37 30" fill="none" xmlns="http://www.w3.org/2000/svg">
<g clip-path="url(#clip0_202_15789)">
<path d="M22.9139 6.40795C22.2356 5.72972 21.1359 5.72972 20.458 6.40795L9.40531 17.461C8.04812 18.8171 5.84925 18.8171 4.49314 17.461C3.13558 16.1045 3.13558 13.9053 4.49314 12.5481L15.333 1.70818C13.9766 0.351344 11.777 0.351344 10.4205 1.70818L2.03615 10.0922C-0.676438 12.8055 -0.676438 17.2036 2.03615 19.9172C4.74946 22.6306 9.14755 22.6306 11.8609 19.9172L22.9139 8.86422C23.5918 8.18599 23.5918 7.08619 22.9139 6.40795ZM26.5981 2.72409C23.8848 0.0104262 19.4867 0.0104262 16.7734 2.72409L5.72073 13.7764C5.04285 14.4543 5.04285 15.5548 5.72073 16.2327C6.39897 16.9109 7.4984 16.9109 8.17664 16.2327L19.23 5.18036C20.5865 3.82353 22.7854 3.82353 24.1415 5.18036C24.8204 5.85824 25.9199 5.85824 26.5981 5.18036C27.2763 4.5014 27.2763 3.40233 26.5981 2.72409ZM30.2827 13.7764C29.6045 13.0989 28.5043 13.0989 27.8261 13.7764L16.7734 24.8291C15.4169 26.1855 13.2173 26.1855 11.8609 24.8291C11.183 24.1512 10.0835 24.1512 9.40531 24.8291C8.726 25.5077 8.726 26.6075 9.40531 27.285C12.1175 29.9983 16.5167 29.9983 19.23 27.285L30.2827 16.2327C30.9606 15.5548 30.9606 14.4543 30.2827 13.7764ZM33.9673 10.0925C31.254 7.37959 26.8551 7.37959 24.1426 10.0925L13.0892 21.1456C12.4109 21.8231 12.4109 22.9236 13.0892 23.6015C13.7678 24.2801 14.8676 24.2801 15.5454 23.6015L26.5981 12.5488C27.9542 11.192 30.1542 11.192 31.5103 12.5488C32.8668 13.9053 32.8668 16.1045 31.5103 17.461L20.6704 28.3012C22.0268 29.6574 24.2254 29.6574 25.5829 28.3012L33.9673 19.9172C36.6799 17.2036 36.6799 12.8055 33.9673 10.0925Z" fill="#1A1918"/>
</g>
<defs>
<clipPath id="clip0_202_15789">
<rect width="37" height="30" fill="white"/>
</clipPath>
</defs>
</svg>
