<svg width="32" height="37" viewBox="0 0 32 37" fill="none" xmlns="http://www.w3.org/2000/svg">
<g clip-path="url(#clip0_202_11977)">
<path d="M26.5007 32.8035V23.1592H29.7016V36.0044H0.810181V23.1592H4.0111V32.8035H26.5007Z" fill="#BCBBBB"/>
<path d="M7.5446 22.2446L23.2582 25.5286L23.9234 22.3693L8.20973 19.0852L7.5446 22.2446ZM9.62312 14.7619L24.1728 21.5379L25.503 18.628L10.9534 11.8104L9.62312 14.7619ZM13.6555 7.61179L26.0019 17.8797L28.0388 15.427L15.6924 5.15913L13.6555 7.61179ZM21.637 0.00439453L19.0596 1.91663L28.6208 14.8035L31.1982 12.8912L21.637 0.00439453ZM7.21204 29.561H23.2582V26.3601H7.21204V29.561Z" fill="#F48023"/>
</g>
<defs>
<clipPath id="clip0_202_11977">
<rect width="32" height="37" fill="white"/>
</clipPath>
</defs>
</svg>
