<svg width="41" height="34" viewBox="0 0 41 34" fill="none" xmlns="http://www.w3.org/2000/svg">
<g clip-path="url(#clip0_202_10593)">
<path fill-rule="evenodd" clip-rule="evenodd" d="M35.5879 19.4723L20.1717 28.0573L4.44774 19.4723C3.86309 19.1338 3.09382 19.3799 2.78611 19.9646C2.44763 20.5492 2.6938 21.3185 3.27844 21.6262L19.587 30.5498C19.9563 30.7652 20.4179 30.7652 20.7871 30.5498L36.788 21.6262C37.3727 21.2877 37.5881 20.5492 37.2496 19.9646C36.9111 19.3492 36.1726 19.1338 35.5879 19.4723ZM6.35554 13.7796L20.1717 5.9638L35.5572 14.8566C36.1418 15.1951 36.9111 14.9797 37.2496 14.395C37.5881 13.8104 37.3727 13.0411 36.788 12.7026L20.7871 3.47136C20.4179 3.25596 19.9563 3.25596 19.5563 3.47136L3.24767 12.7026C2.41686 13.1642 2.41686 14.3643 3.24767 14.8566L19.5563 24.0879C20.1409 24.4264 20.9102 24.211 21.2487 23.6263C21.5872 23.0417 21.3718 22.2724 20.7871 21.9339L6.35554 13.7796ZM0.0167232 20.2415V14.0873C-0.106361 12.6719 0.539829 11.2256 1.95529 10.4256L18.2639 1.19431C19.464 0.517346 20.9102 0.517346 22.0795 1.22508L38.0804 10.4564C39.4035 11.2256 40.1113 12.6719 39.9882 14.0873V20.2415C40.1113 21.6878 39.3728 23.1648 38.0188 23.9033L22.018 32.8268C20.8487 33.473 19.464 33.473 18.2947 32.8268L1.98606 23.9033C0.632142 23.1648 -0.0755897 21.7185 0.0167232 20.2415Z" fill="#3EB0FD"/>
</g>
<defs>
<clipPath id="clip0_202_10593">
<rect width="41" height="34" fill="white"/>
</clipPath>
</defs>
</svg>
