<svg width="41" height="36" viewBox="0 0 41 36" fill="none" xmlns="http://www.w3.org/2000/svg">
<g clip-path="url(#clip0_202_10624)">
<path d="M36.1556 0.259216C38.2826 0.259216 40.0068 1.9613 40.0076 4.06173C40.0068 4.06173 40.0068 31.9401 40.0068 31.9401C40.0068 34.04 38.2826 35.7427 36.1556 35.7427H3.85937C1.7323 35.7427 0.00756836 34.04 0.00756836 31.9401V4.06173C0.00756836 1.9613 1.7323 0.259216 3.85937 0.259216H36.1556Z" fill="#0090F9"/>
<path d="M30.6261 21.5858C29.1409 21.5858 27.8601 22.4758 27.2872 23.7503H22.6359L20.8079 17.975L22.6605 12.2329H27.2803C27.8492 13.516 29.1346 14.414 30.6261 14.414C32.6441 14.414 34.2855 12.7726 34.2855 10.7546C34.2855 8.73658 32.6441 7.09515 30.6261 7.09515C29.205 7.09515 27.9717 7.91014 27.3656 9.09657H21.5353C20.8623 9.09657 20.2648 9.52524 20.049 10.1628L17.9348 16.4234H12.7536C12.1939 15.118 10.897 14.2017 9.38892 14.2017C7.37149 14.2017 5.72949 15.8431 5.72949 17.8611C5.72949 19.8786 7.37149 21.52 9.38892 21.52C10.794 21.52 12.0153 20.7239 12.6283 19.5598H17.9102L20.025 25.8204C20.2402 26.458 20.8377 26.8866 21.5107 26.8866H27.3576C27.9602 28.0822 29.1987 28.9041 30.6261 28.9041C32.6441 28.9041 34.2855 27.2627 34.2855 25.2447C34.2855 23.2272 32.6441 21.5858 30.6261 21.5858ZM30.6261 9.05536C31.563 9.05536 32.3253 9.81769 32.3253 10.7546C32.3253 11.6915 31.563 12.4538 30.6261 12.4538C29.6892 12.4538 28.9275 11.6915 28.9275 10.7546C28.9275 9.81769 29.6892 9.05536 30.6261 9.05536ZM9.38892 19.5598C8.45203 19.5598 7.69027 18.7974 7.69027 17.8611C7.69027 16.9242 8.45203 16.1619 9.38892 16.1619C10.3258 16.1619 11.0882 16.9242 11.0882 17.8611C11.0882 18.7974 10.3258 19.5598 9.38892 19.5598ZM30.6261 26.9439C29.6892 26.9439 28.9275 26.1815 28.9275 25.2447C28.9275 24.3078 29.6892 23.546 30.6261 23.546C31.563 23.546 32.3253 24.3078 32.3253 25.2447C32.3253 26.1815 31.563 26.9439 30.6261 26.9439Z" fill="white"/>
</g>
<defs>
<clipPath id="clip0_202_10624">
<rect width="41" height="36" fill="white"/>
</clipPath>
</defs>
</svg>
