<svg width="41" height="28" viewBox="0 0 41 28" fill="none" xmlns="http://www.w3.org/2000/svg">
<g clip-path="url(#clip0_202_12910)">
<path d="M0.339465 8.44746C0.126114 8.6008 0.00610352 8.84749 0.00610352 9.09751V9.10418C0.00610352 9.21086 0.0294388 9.31753 0.0727757 9.42087L3.90643 18.1016C4.07311 18.4816 4.50648 18.6683 4.90651 18.5283C7.41339 17.6349 16.0941 14.808 21.7146 16.3281C21.7146 16.3281 16.0808 16.6615 10.9804 20.6551C10.6937 20.8818 10.597 21.2752 10.747 21.6086C11.1604 22.542 11.9904 24.4221 12.4605 25.4822L13.1205 27.0323C13.2772 27.399 13.7806 27.439 14.0006 27.1057C15.1907 25.3155 17.1942 24.4221 19.121 23.6387C21.0945 22.8387 23.1547 22.2453 25.2549 21.8919C27.4884 21.5119 29.7753 21.4119 32.0354 21.6119C32.4121 21.6452 32.7622 21.4119 32.8755 21.0518L34.609 15.5247C34.709 15.198 34.589 14.8413 34.309 14.6413C32.3821 13.2412 24.7415 8.5508 11.307 10.4343C11.307 10.4343 22.7747 3.85374 37.3259 11.0877C37.7692 11.3077 38.2993 11.0743 38.4493 10.6076L39.9728 5.7339C39.9928 5.65723 40.0061 5.58055 40.0061 5.50055V5.48054C40.0061 5.20385 39.8528 4.9405 39.5994 4.79715C37.7759 3.76707 31.5921 0.666809 23.0847 0.666809C16.5642 0.666809 8.68349 2.48696 0.339465 8.44746Z" fill="url(#paint0_linear_202_12910)"/>
</g>
<defs>
<linearGradient id="paint0_linear_202_12910" x1="0.00610355" y1="8.07421" x2="33.1684" y2="30.1824" gradientUnits="userSpaceOnUse">
<stop stop-color="#FF4C1D"/>
<stop offset="1" stop-color="#9B0063"/>
</linearGradient>
<clipPath id="clip0_202_12910">
<rect width="41" height="28" fill="white"/>
</clipPath>
</defs>
</svg>
