<svg width="37" height="37" viewBox="0 0 37 37" fill="none" xmlns="http://www.w3.org/2000/svg">
<g clip-path="url(#clip0_202_8830)">
<path d="M36.0034 18.0022C36.0034 8.06107 27.9445 0.00219727 18.0034 0.00219727C8.06229 0.00219727 0.00341797 8.06107 0.00341797 18.0022C0.00341797 27.9433 8.06229 36.0022 18.0034 36.0022C27.9445 36.0022 36.0034 27.9433 36.0034 18.0022Z" fill="#10284B"/>
<path fill-rule="evenodd" clip-rule="evenodd" d="M17.4634 26.9854V24.2787C19.3159 24.4399 21.1447 23.7728 22.4582 22.4567C24.5507 20.364 24.9051 17.0975 23.3103 14.6049L14.6057 23.3087L12.6651 25.2491C12.3017 24.9806 11.9588 24.6853 11.6394 24.3657C8.12475 20.8513 8.12475 15.1533 11.6394 11.6387C13.4584 9.81576 15.9728 8.8617 18.5434 9.01898V11.7257C16.6909 11.5645 14.8621 12.2316 13.5486 13.5477C11.4562 15.6403 11.1017 18.9068 12.6965 21.3995L21.401 12.6959L23.3417 10.7555C23.7052 11.024 24.0481 11.3193 24.3674 11.6389C27.8821 15.1532 27.8821 20.8513 24.3674 24.3658C22.5484 26.1888 20.034 27.1428 17.4634 26.9854Z" fill="white"/>
</g>
<defs>
<clipPath id="clip0_202_8830">
<rect width="37" height="37" fill="white"/>
</clipPath>
</defs>
</svg>
