<svg width="40" height="30" viewBox="0 0 40 30" fill="none" xmlns="http://www.w3.org/2000/svg">
<g clip-path="url(#clip0_202_9496)">
<path d="M20.0011 29.714C25.1671 29.714 29.355 25.5261 29.355 20.3601C29.355 15.1941 25.1671 11.0062 20.0011 11.0062C14.8351 11.0062 10.6472 15.1941 10.6472 20.3601C10.6472 25.5261 14.8351 29.714 20.0011 29.714Z" fill="url(#paint0_linear_202_9496)"/>
<path d="M0.253512 9.55091L5.28219 15.507C5.46806 15.7256 5.73378 15.8606 6.01991 15.8817C6.30605 15.9029 6.58873 15.8085 6.80473 15.6196C14.9482 8.31787 25.0323 8.31787 33.1972 15.6196C33.4132 15.8085 33.6959 15.9029 33.982 15.8817C34.2682 15.8606 34.5339 15.7256 34.7198 15.507L39.7484 9.55091C40.1285 9.10024 40.0734 8.42733 39.6251 8.04445C27.8308 -2.29167 12.1926 -2.29167 0.376816 8.04445C-0.0714196 8.42733 -0.126498 9.10024 0.253512 9.55091Z" fill="#2684FF"/>
</g>
<defs>
<linearGradient id="paint0_linear_202_9496" x1="20.0011" y1="26.4961" x2="20.0011" y2="9.92467" gradientUnits="userSpaceOnUse">
<stop stop-color="#2684FF"/>
<stop offset="0.82" stop-color="#0052CC"/>
</linearGradient>
<clipPath id="clip0_202_9496">
<rect width="40.001" height="30" fill="white"/>
</clipPath>
</defs>
</svg>
