<svg width="36" height="37" viewBox="0 0 36 37" fill="none" xmlns="http://www.w3.org/2000/svg">
<g clip-path="url(#clip0_202_13085)">
<path d="M17.9697 0.00244141C8.59947 0.00244141 0.92332 7.29356 0.194336 16.5586L9.75455 20.5475C10.5644 19.9879 11.5436 19.6619 12.596 19.6619C12.691 19.6619 12.7847 19.6645 12.8771 19.6696L17.1291 13.4501V13.3629C17.1291 9.62041 20.1464 6.57485 23.8555 6.57485C27.5646 6.57485 30.5819 9.62041 30.5819 13.3629C30.5819 17.1053 27.5646 20.1522 23.8555 20.1522C23.8042 20.1522 23.7541 20.1509 23.7028 20.1496L17.6386 24.5145C17.6425 24.5954 17.645 24.6762 17.645 24.7558C17.645 27.5665 15.3798 29.8523 12.596 29.8523C10.1524 29.8523 8.10792 28.0914 7.64589 25.7607L0.807812 22.9077C2.92546 30.4632 9.8046 36.0024 17.9697 36.0024C27.8213 36.0024 35.8067 27.9425 35.8067 18.0024C35.8067 8.06105 27.8213 0.00244141 17.9697 0.00244141ZM11.3722 27.3144L9.18137 26.4006C9.56897 27.2169 10.2415 27.8997 11.1335 28.2744C13.0612 29.0856 15.284 28.1628 16.0875 26.2158C16.4763 25.2738 16.4789 24.2342 16.0939 23.2896C15.7089 22.345 14.9812 21.6083 14.0481 21.2156C13.1202 20.8267 12.1268 20.8409 11.2541 21.1733L13.5181 22.1179C14.9401 22.7159 15.6126 24.3639 15.0197 25.7987C14.428 27.2336 12.7942 27.9125 11.3722 27.3144ZM28.3377 13.363C28.3377 10.8693 26.3266 8.83893 23.856 8.83893C21.3842 8.83893 19.373 10.8693 19.373 13.363C19.373 15.8567 21.3842 17.8858 23.856 17.8858C26.3266 17.8858 28.3377 15.8567 28.3377 13.363ZM20.496 13.3553C20.496 11.4789 22.004 9.95808 23.8624 9.95808C25.7221 9.95808 27.2301 11.4789 27.2301 13.3553C27.2301 15.2317 25.7221 16.7525 23.8624 16.7525C22.004 16.7525 20.496 15.2317 20.496 13.3553Z" fill="#1A1918"/>
</g>
<defs>
<clipPath id="clip0_202_13085">
<rect width="36" height="37" fill="white"/>
</clipPath>
</defs>
</svg>
