<svg width="37" height="37" viewBox="0 0 37 37" fill="none" xmlns="http://www.w3.org/2000/svg">
<g clip-path="url(#clip0_202_14381)">
<path d="M36.0032 18.0022C36.0032 27.9433 27.9442 36.0022 18.0032 36.0022C8.06211 36.0022 0.00317383 27.9433 0.00317383 18.0022C0.00317383 8.06113 8.06211 0.00219727 18.0032 0.00219727C27.9442 0.00219727 36.0032 8.06113 36.0032 18.0022Z" fill="#4CAF50"/>
<path d="M23.2736 19.0509C22.9477 17.9467 22.2801 17.1502 21.5733 16.3069C21.5037 16.2238 21.4336 16.1401 21.3633 16.0555C21.1221 15.7654 20.8802 15.4855 20.6463 15.2148C19.9368 14.3939 19.2665 13.6185 18.9832 12.9568C18.628 12.1281 18.5657 11.3015 18.7983 10.5002C19.1057 9.4409 19.9293 8.38931 21.2461 7.37442C21.5269 7.15786 21.5791 6.75469 21.3627 6.47386C21.1463 6.19303 20.743 6.14086 20.4621 6.35728C17.6353 8.53612 17.1534 10.6566 17.4512 12.3054C16.9144 12.0973 16.2404 11.9639 15.6567 11.9869C13.9106 12.0555 12.3534 13.2258 11.5452 14.2487C11.3254 14.5269 11.3581 14.9772 11.6362 15.1971C11.7542 15.2902 11.9092 15.2888 12.0485 15.2888C12.2382 15.2888 12.4261 15.2051 12.5528 15.0448C13.08 14.3775 14.3839 13.3643 15.8152 13.308C16.7516 13.2712 17.608 13.6626 18.3577 14.4716C18.384 14.5 18.4125 14.5249 18.4425 14.5476C18.7977 15.0392 19.1854 15.4608 19.6312 15.9767C19.8611 16.2427 20.1425 16.5956 20.3756 16.8762C20.4471 16.9622 20.5184 17.0473 20.5893 17.1318C21.2346 17.9017 21.7919 18.5668 22.0422 19.4145C22.5747 21.2187 20.9826 23.0739 20.1255 23.71C19.4903 23.1621 18.6644 22.8297 17.7617 22.8297C15.763 22.8297 14.1371 24.4557 14.1371 26.4543C14.1371 28.4528 15.763 30.0789 17.7617 30.0789C19.7603 30.0789 21.3862 28.4528 21.3862 26.4543C21.3862 25.821 21.2226 25.2255 20.936 24.707C21.4559 24.3152 22.1021 23.6757 22.5968 22.9015C23.4327 21.5933 23.6345 20.2731 23.2736 19.0509ZM17.7617 28.9324C16.3953 28.9324 15.2836 27.8207 15.2836 26.4543C15.2836 25.0878 16.3953 23.9762 17.7617 23.9762C19.128 23.9762 20.2397 25.0878 20.2397 26.4543C20.2397 27.8207 19.128 28.9324 17.7617 28.9324Z" fill="white"/>
<path d="M19.048 26.4295C19.048 26.3678 19.0434 26.3072 19.0351 26.2477L19.4133 26.0496L19.2132 25.5177L18.7826 25.6391C18.7087 25.5413 18.6213 25.4543 18.5235 25.3807L18.6468 24.9667L18.1262 24.7389L17.9133 25.1309C17.8556 25.1231 17.7969 25.1188 17.7371 25.1188C17.674 25.1188 17.6118 25.1234 17.5511 25.1321L17.3301 24.7557L16.8084 24.9811L16.944 25.3861C16.8478 25.4594 16.7619 25.5454 16.6892 25.642L16.2823 25.5146L16.0473 26.032L16.4386 26.2516C16.4307 26.3099 16.4263 26.3692 16.4263 26.4295C16.4263 26.491 16.4308 26.5513 16.439 26.6105L16.0528 26.8455L16.2866 27.3636L16.6921 27.2207C16.7648 27.3166 16.8505 27.4021 16.9464 27.4748L16.8274 27.8981L17.3515 28.1176L17.5556 27.7275C17.6149 27.7358 17.6755 27.7404 17.7371 27.7404C17.8004 27.7404 17.8624 27.7357 17.9231 27.7269L18.1247 28.1141L18.6571 27.9152L18.533 27.4707C18.6229 27.402 18.7035 27.3218 18.7729 27.2325L19.2132 27.3274L19.4001 26.7907L19.0331 26.6267C19.0428 26.5624 19.048 26.4966 19.048 26.4295ZM17.7303 26.6576C17.6036 26.6576 17.501 26.555 17.501 26.4283C17.501 26.3017 17.6036 26.1989 17.7303 26.1989C17.857 26.1989 17.9596 26.3017 17.9596 26.4283C17.9596 26.555 17.857 26.6576 17.7303 26.6576Z" fill="white"/>
</g>
<defs>
<clipPath id="clip0_202_14381">
<rect width="37" height="37" fill="white"/>
</clipPath>
</defs>
</svg>
