<svg width="36" height="37" viewBox="0 0 36 37" fill="none" xmlns="http://www.w3.org/2000/svg">
<g clip-path="url(#clip0_202_8381)">
<path d="M30.9404 20.1404V20.161H36.001V26.5038H28.5884C28.0055 26.5038 27.1175 26.2604 26.6204 25.9638L24.841 24.9181C24.3438 24.6215 23.5175 24.6215 23.0204 24.9181L20.7113 26.2707C20.2141 26.5553 20.2141 27.0421 20.7113 27.337L25.561 30.181C26.0581 30.4775 26.9495 30.7193 27.5307 30.7193H36.001V34.9467C36.001 35.5295 35.5244 36.0044 34.9415 36.0044H1.06041C0.476358 36.0035 0.00286288 35.5307 0.000976562 34.9467V30.7193H8.47298C9.16121 30.6908 9.83405 30.5067 10.441 30.181L26.6204 20.6787C27.1175 20.3838 28.0073 20.1404 28.5884 20.1404H30.9404ZM30.9404 9.76725H36.001V16.1701H27.529C26.8402 16.1996 26.1672 16.3854 25.561 16.7135L9.38155 26.3084C8.77528 26.6365 8.10228 26.8223 7.41355 26.8518H0.000976562V20.449H8.47298C9.16171 20.4195 9.83471 20.2337 10.441 19.9055L26.6204 10.3107C27.2267 9.98256 27.8997 9.79673 28.5884 9.76725H30.9404ZM34.9415 0.00439453C35.5244 0.00439453 36.001 0.480966 36.001 1.04154V5.27582H27.529C26.8407 5.30431 26.1679 5.48834 25.561 5.81411L9.38155 15.3301C8.88441 15.6267 7.99469 15.8701 7.41355 15.8701H0.000976562V9.51868H7.41355C7.99641 9.51868 8.88441 9.76211 9.38155 10.0587L11.161 11.1061C11.6581 11.4027 12.4844 11.4027 12.9815 11.1061L15.2907 9.75182C15.7878 9.46554 15.7878 8.98039 15.2907 8.68211L10.441 5.83639C9.83357 5.51006 9.16017 5.32545 8.47126 5.29639H0.000976562V1.06211C0.00379772 0.478453 0.476746 0.00627049 1.06041 0.00439453H34.9415V0.00439453Z" fill="black"/>
</g>
<defs>
<clipPath id="clip0_202_8381">
<rect width="36.001" height="37" fill="white"/>
</clipPath>
</defs>
</svg>
