<svg width="36" height="37" viewBox="0 0 36 37" fill="none" xmlns="http://www.w3.org/2000/svg">
<g clip-path="url(#clip0_202_9332)">
<path d="M11.4596 16.7844V14.2581H36.001V0.00244141H0.000976562V19.3107H25.625V21.837H0.000976562V36.0024H36.001V16.6942H11.4596V16.7844ZM18.3168 3.70169C19.3092 3.70169 20.1213 4.51372 20.1213 5.5062C20.1213 6.49868 19.3092 7.31071 18.3168 7.31071C17.3243 7.31071 16.5123 6.49868 16.5123 5.5062C16.6025 4.51372 17.4145 3.70169 18.3168 3.70169ZM10.6476 9.20545H26.6175L25.8957 11.7318H11.3694L10.6476 9.20545ZM18.3168 32.3032C17.3243 32.3032 16.5123 31.4912 16.5123 30.4987C16.5123 29.5062 17.3243 28.6942 18.3168 28.6942C19.3092 28.6942 20.1213 29.5062 20.1213 30.4987C20.1213 31.4912 19.3092 32.3032 18.3168 32.3032ZM10.6476 26.7994L11.2792 24.2731H25.8957L26.6175 26.7994H10.6476Z" fill="#FFC600"/>
</g>
<defs>
<clipPath id="clip0_202_9332">
<rect width="36.001" height="37" fill="white"/>
</clipPath>
</defs>
</svg>
