<svg width="36" height="37" viewBox="0 0 36 37" fill="none" xmlns="http://www.w3.org/2000/svg">
<g clip-path="url(#clip0_202_10721)">
<path d="M0 13.031C0 8.47058 0 6.19037 0.887518 4.44852C1.6682 2.91634 2.9139 1.67064 4.44608 0.88996C6.18793 0.00244141 8.46814 0.00244141 13.0286 0.00244141H22.9714C27.5319 0.00244141 29.8121 0.00244141 31.5539 0.88996C33.0861 1.67064 34.3318 2.91634 35.1125 4.44852C36 6.19037 36 8.47058 36 13.031V22.9739C36 27.5343 36 29.8145 35.1125 31.5564C34.3318 33.0885 33.0861 34.3342 31.5539 35.1149C29.8121 36.0024 27.5319 36.0024 22.9714 36.0024H13.0286C8.46814 36.0024 6.18793 36.0024 4.44608 35.1149C2.9139 34.3342 1.6682 33.0885 0.887518 31.5564C0 29.8145 0 27.5343 0 22.9739V13.031Z" fill="#000B1D"/>
<path d="M13.5159 27.0004C12.0796 27.0273 10.566 26.7954 9.25397 26.1718C9.11985 26.1104 9.06025 25.9723 9.06025 25.7574V22.8111C9.06025 22.6859 9.16347 22.616 9.26887 22.6884C10.561 23.5163 12.0821 23.9774 13.6053 23.9774C14.5601 23.9774 16.1386 23.7892 16.1386 22.4735C16.1386 20.8847 13.8527 20.3607 12.741 19.8802C10.6779 18.965 9.00064 17.6217 9.00064 15.1384C8.97084 13.3584 9.98416 11.7164 11.5638 10.9952C13.4838 10.0586 16.5205 10.0465 18.4782 10.9952C18.5825 11.0566 18.657 11.1793 18.6421 11.3174V14.1103C18.6421 14.2334 18.5147 14.2651 18.4335 14.2024C17.3022 13.6199 16.0158 13.3448 14.7527 13.3737C13.9695 13.3737 12.7784 13.4666 12.3536 14.2791C11.5308 15.9736 14.2524 16.7998 15.4084 17.2561C17.529 18.1481 19.4915 19.592 19.4915 22.1973C19.5462 25.5734 16.3047 27.0004 13.5159 27.0004Z" fill="white"/>
<path d="M27.628 24.2998V26.3254C27.628 26.5095 27.5683 26.6169 27.4342 26.6476C24.7601 27.5655 21.9951 26.6326 21.9951 23.4558V17.3023H20.5496C20.4155 17.3023 20.3559 17.2255 20.3559 17.0874L20.3708 14.6475C20.3708 14.5094 20.4453 14.448 20.5794 14.448H22.0249C22.0783 13.458 22.136 12.4694 22.2633 11.4864C22.2939 11.3919 22.3622 11.2887 22.457 11.2562L25.3182 10.8879C25.4403 10.846 25.4821 10.925 25.4821 11.0413C25.3936 12.1803 25.4055 13.322 25.3778 14.4634H27.4938C27.5832 14.4634 27.6429 14.5247 27.6429 14.6629L27.628 17.1488C27.6429 17.2255 27.5833 17.3023 27.5087 17.3176H25.3927V22.6425C25.3927 23.1949 25.4523 23.6092 25.6311 23.8394C26.0168 24.3359 26.8777 24.21 27.4342 24.1463C27.5477 24.1073 27.628 24.1856 27.628 24.2998Z" fill="white"/>
</g>
<defs>
<clipPath id="clip0_202_10721">
<rect width="36" height="37" fill="white"/>
</clipPath>
</defs>
</svg>
