<svg width="36" height="36" viewBox="0 0 36 36" fill="none" xmlns="http://www.w3.org/2000/svg">
<g clip-path="url(#clip0_202_14307)">
<path d="M35.2166 18.0004C35.2166 27.5084 27.5089 35.216 18.001 35.216C8.49306 35.216 0.7854 27.5084 0.7854 18.0004C0.7854 8.49248 8.49306 0.784821 18.001 0.784821C27.5089 0.784821 35.2166 8.49248 35.2166 18.0004Z" fill="white"/>
<path d="M17.9665 7.52954C18.3176 7.52954 18.6032 7.81515 18.6032 8.16629C18.6032 8.51743 18.3176 8.80304 17.9665 8.80304C17.6153 8.80304 17.3297 8.51743 17.3297 8.16629C17.3297 7.81515 17.6153 7.52954 17.9665 7.52954ZM24.9796 10.4243H18.6979V9.73904C19.29 9.46257 19.7015 8.86182 19.7015 8.16629C19.7015 7.20962 18.9232 6.4314 17.9665 6.4314C17.0098 6.4314 16.2315 7.20962 16.2315 8.16629C16.2315 8.85858 16.6393 9.45737 17.2271 9.73538V10.4243H10.9387C10.5922 10.4243 10.3113 10.7053 10.3113 11.0518V20.5823C10.3113 20.929 10.5922 21.21 10.9387 21.21H22.2342V26.7399H13.658V25.2103C13.658 24.8638 13.3772 24.5828 13.0305 24.5828C12.6839 24.5828 12.4031 24.8638 12.4031 25.2103V27.3675C12.4031 27.714 12.6839 27.995 13.0305 27.995H15.3445V28.8186C15.3445 28.905 15.4151 28.9756 15.5015 28.9756H17.1095C17.1957 28.9756 17.2663 28.905 17.2663 28.8186V27.995H18.6537V28.8186C18.6537 28.905 18.7243 28.9756 18.8107 28.9756H20.4187C20.5049 28.9756 20.5755 28.905 20.5755 28.8186V27.995H22.8618C23.2083 27.995 23.4892 27.714 23.4892 27.3675V20.5823C23.4892 20.2358 23.2083 19.9549 22.8618 19.9549H11.5664V11.6794H24.3521V17.8631C24.3521 18.2097 24.6331 18.4907 24.9796 18.4907C25.3262 18.4907 25.6072 18.2097 25.6072 17.8631V11.0518C25.6072 10.7053 25.3262 10.4243 24.9796 10.4243ZM14.2698 14.292C14.1834 14.292 14.1128 14.3626 14.1128 14.4489V15.7369C14.1128 15.8232 14.1834 15.8938 14.2698 15.8938H16.459C16.5452 15.8938 16.6158 15.8232 16.6158 15.7369V14.4489C16.6158 14.3626 16.5452 14.292 16.459 14.292H14.2698ZM19.4596 14.292C19.3732 14.292 19.3026 14.3626 19.3026 14.4489V15.7369C19.3026 15.8232 19.3732 15.8938 19.4596 15.8938H21.6488C21.735 15.8938 21.8056 15.8232 21.8056 15.7369V14.4489C21.8056 14.3626 21.735 14.292 21.6488 14.292H19.4596Z" fill="#3880F0"/>
<path d="M18.001 1.56921C8.94079 1.56921 1.56979 8.94021 1.56979 18.0004C1.56979 27.0606 8.94079 34.4316 18.001 34.4316C27.0612 34.4316 34.4322 27.0606 34.4322 18.0004C34.4322 8.94021 27.0612 1.56921 18.001 1.56921ZM18.001 36.0004C13.193 36.0004 8.67276 34.1281 5.27301 30.7284C1.87326 27.3286 0.000976562 22.8084 0.000976562 18.0004C0.000976562 13.1924 1.87326 8.67218 5.27301 5.27243C8.67276 1.87268 13.193 0.000396729 18.001 0.000396729C22.8089 0.000396729 27.3292 1.87268 30.7289 5.27243C34.1287 8.67218 36.001 13.1924 36.001 18.0004C36.001 22.8084 34.1287 27.3286 30.7289 30.7284C27.3292 34.1281 22.8089 36.0004 18.001 36.0004Z" fill="#3880F0"/>
</g>
<defs>
<clipPath id="clip0_202_14307">
<rect width="36.001" height="36.0004" fill="white"/>
</clipPath>
</defs>
</svg>
