<svg width="34" height="41" viewBox="0 0 34 41" fill="none" xmlns="http://www.w3.org/2000/svg">
<g clip-path="url(#clip0_202_12628)">
<mask id="mask0_202_12628" style="mask-type:alpha" maskUnits="userSpaceOnUse" x="0" y="0" width="34" height="41">
<path d="M2.1888 36.8631L0.949682 3.84618C0.908759 2.75576 1.74485 1.83164 2.83391 1.76358L30.9171 0.00837923C32.0256 -0.0609041 32.9804 0.781575 33.0497 1.89011C33.0523 1.93187 33.0536 1.97371 33.0536 2.01556V37.9933C33.0536 39.104 32.1532 40.0044 31.0425 40.0044C31.0125 40.0044 30.9824 40.0037 30.9523 40.0024L4.10825 38.7967C3.06278 38.7498 2.22805 37.9089 2.1888 36.8631Z" fill="white"/>
</mask>
<g mask="url(#mask0_202_12628)">
<path d="M2.1888 36.8631L0.949682 3.84618C0.908759 2.75576 1.74485 1.83164 2.83391 1.76358L30.9171 0.00837923C32.0256 -0.0609041 32.9804 0.781575 33.0497 1.89011C33.0523 1.93187 33.0536 1.97371 33.0536 2.01556V37.9933C33.0536 39.104 32.1532 40.0044 31.0425 40.0044C31.0125 40.0044 30.9824 40.0037 30.9523 40.0024L4.10825 38.7967C3.06278 38.7498 2.22805 37.9089 2.1888 36.8631Z" fill="#FF4785"/>
<path d="M24.6557 4.92103L24.8475 0.307418L28.7042 0.00439453L28.8703 4.76225C28.8761 4.92784 28.7466 5.06676 28.581 5.07254C28.5101 5.07502 28.4406 5.05229 28.3849 5.00838L26.8976 3.83678L25.1367 5.17251C25.0047 5.27264 24.8165 5.24681 24.7164 5.1148C24.6743 5.05923 24.6528 4.99072 24.6557 4.92103ZM19.7234 15.0809C19.7234 15.8634 24.9938 15.4884 25.7013 14.9388C25.7013 9.61058 22.8423 6.81071 17.607 6.81071C12.3717 6.81071 9.43848 9.65415 9.43848 13.9193C9.43848 21.3478 19.4635 21.49 19.4635 25.5419C19.4635 26.6793 18.9065 27.3546 17.6813 27.3546C16.0847 27.3546 15.4535 26.5392 15.5277 23.7668C15.5277 23.1654 9.43848 22.9779 9.25284 23.7668C8.7801 30.4852 12.9658 32.4231 17.7555 32.4231C22.3967 32.4231 26.0354 29.9492 26.0354 25.4708C26.0354 17.5092 15.8619 17.7224 15.8619 13.7771C15.8619 12.1777 17.0501 11.9644 17.7555 11.9644C18.4981 11.9644 19.8348 12.0953 19.7234 15.0809Z" fill="white"/>
</g>
</g>
<defs>
<clipPath id="clip0_202_12628">
<rect width="34" height="41" fill="white"/>
</clipPath>
</defs>
</svg>
