<svg width="37" height="36" viewBox="0 0 37 36" fill="none" xmlns="http://www.w3.org/2000/svg">
<g clip-path="url(#clip0_202_14464)">
<path d="M35.2475 0.22821H11.5134V12.1283H23.1917C23.6078 12.1283 23.9453 12.4658 23.9453 12.8819V24.399H36.0011V0.983161C36.0015 0.783062 35.9222 0.591034 35.7809 0.449414C35.6395 0.307793 35.4476 0.22821 35.2475 0.22821Z" fill="#8E75FF"/>
<path opacity="0.405" d="M11.5122 0.22821V12.1283H0.378038C0.22504 12.128 0.0873376 12.0354 0.0293721 11.8939C-0.0285934 11.7523 0.00464384 11.5897 0.11353 11.4822L11.5122 0.22821ZM24.5874 35.6654C24.479 35.7719 24.3174 35.803 24.1772 35.7443C24.037 35.6857 23.9457 35.5487 23.9454 35.3968V24.399H36.0012L24.5874 35.664V35.6654Z" fill="#8E75FF"/>
<path opacity="0.405" d="M11.512 12.1284H23.5691C23.7758 12.1284 23.9452 12.2964 23.9452 12.5045V24.3991H12.2669C11.8507 24.3991 11.5133 24.0617 11.5133 23.6455V12.1284H11.512Z" fill="#8E75FF"/>
</g>
<defs>
<clipPath id="clip0_202_14464">
<rect width="37" height="36" fill="white"/>
</clipPath>
</defs>
</svg>
