<svg width="37" height="36" viewBox="0 0 37 36" fill="none" xmlns="http://www.w3.org/2000/svg">
<g clip-path="url(#clip0_202_9321)">
<path fill-rule="evenodd" clip-rule="evenodd" d="M6.62195 18.0022V33.6402C6.6333 34.0087 6.74213 34.3675 6.93734 34.6802C7.13255 34.9929 7.40717 35.2482 7.7332 35.4202C8.05924 35.5922 8.42504 35.6747 8.79334 35.6592C9.16163 35.6438 9.51925 35.531 9.82975 35.3323L35.2034 19.3816C35.4459 19.2416 35.6474 19.0407 35.7881 18.7987C35.9288 18.5567 36.0037 18.2821 36.0054 18.0022H6.62195Z" fill="#BC1948"/>
<path fill-rule="evenodd" clip-rule="evenodd" d="M6.62195 18.0022V2.36422C6.6333 1.99578 6.74213 1.63693 6.93734 1.32425C7.13255 1.01157 7.40717 0.756222 7.7332 0.584239C8.05924 0.412255 8.42504 0.329778 8.79334 0.345213C9.16163 0.360648 9.51925 0.473442 9.82975 0.672103L35.2034 16.6229C35.4459 16.7628 35.6474 16.9638 35.7881 17.2058C35.9288 17.4478 36.0037 17.7223 36.0054 18.0022H6.62195Z" fill="#E8467C"/>
<path fill-rule="evenodd" clip-rule="evenodd" d="M1.72201 8.06613L15.0424 17.0319C15.1995 17.1403 15.328 17.2853 15.4167 17.4543C15.5055 17.6233 15.5518 17.8114 15.5518 18.0023C15.5518 18.1932 15.5055 18.3813 15.4167 18.5503C15.328 18.7193 15.1995 18.8642 15.0424 18.9727L1.72201 27.9385C1.55129 28.048 1.35393 28.1089 1.15119 28.1145C0.948438 28.1202 0.747989 28.0704 0.571431 27.9706C0.394873 27.8707 0.248899 27.7246 0.149233 27.548C0.0495672 27.3713 -1.26343e-05 27.1708 0.0058345 26.9681V9.03649C-1.26343e-05 8.83375 0.0495672 8.63326 0.149233 8.45661C0.248899 8.27996 0.394873 8.13385 0.571431 8.03402C0.747989 7.93419 0.948438 7.88442 1.15119 7.89008C1.35393 7.89574 1.55129 7.95661 1.72201 8.06613Z" fill="#8C193F"/>
</g>
<defs>
<clipPath id="clip0_202_9321">
<rect width="37" height="36" fill="white"/>
</clipPath>
</defs>
</svg>
