<svg width="36" height="37" viewBox="0 0 36 37" fill="none" xmlns="http://www.w3.org/2000/svg">
<g clip-path="url(#clip0_202_16020)">
<path d="M2.90332 8.22364L17.1368 15.9906L17.5688 7.78264L13.1678 0.681641C8.89347 1.87265 5.26186 4.59065 2.90332 8.22364ZM23.2748 0.794141L18.5768 7.78264L18.7208 16.5666L33.2558 8.48464C30.982 4.84901 27.4593 2.07558 23.2748 0.794141Z" fill="#006EAF"/>
<path d="M8.44298 33.2391L17.281 18.8707L2.89898 8.22815C1.07188 11.0446 0.000976562 14.3994 0.000976562 18.0067C0.000976562 24.4319 3.37766 30.0542 8.44298 33.2391ZM33.256 8.48465L18.721 18.8707L27.7075 33.1446C32.69 29.9434 36.001 24.3688 36.001 18.0067C36.001 14.5071 34.9884 11.2482 33.2605 8.48465C33.26 8.48393 33.2564 8.48537 33.256 8.48465H33.256Z" fill="#00A7E1"/>
<path d="M18.1448 35.9977L17.2808 21.8947L8.44727 33.2392C11.2184 34.9808 14.4862 36.0067 18.0008 36.0067C18.0494 36.0067 18.0962 35.9981 18.1448 35.9977ZM27.7073 33.1447L18.5768 21.6067L18.1448 35.9977C21.6685 35.9697 24.9425 34.921 27.7073 33.1447Z" fill="#5BC9EC"/>
<path d="M23.2749 0.794124L18.1449 6.91862L13.1724 0.677124C13.1707 0.677556 13.1697 0.681142 13.1679 0.681617L17.5689 7.78262L17.1369 15.9906L2.90342 8.22363C2.90227 8.22535 2.90003 8.2264 2.89893 8.22812L17.2809 18.8706L8.44292 33.2391C8.44407 33.2398 8.44633 33.2384 8.44741 33.2391L17.2809 21.8946L18.1449 35.9976L18.5769 21.6066L27.7074 33.1446L18.7209 18.8706L33.2559 8.48462L18.7209 16.5666L18.5769 7.78262L23.2749 0.794124Z" fill="white"/>
<path d="M18.0009 0.00671387C16.3252 0.00671387 14.7115 0.24886 13.1724 0.677214L18.1449 6.91871L23.2749 0.794214C21.6058 0.283079 19.8374 0.00671387 18.0009 0.00671387Z" fill="#013A78"/>
</g>
<defs>
<clipPath id="clip0_202_16020">
<rect width="36.001" height="37" fill="white"/>
</clipPath>
</defs>
</svg>
