<svg width="32" height="37" viewBox="0 0 32 37" fill="none" xmlns="http://www.w3.org/2000/svg">
<g clip-path="url(#clip0_202_9899)">
<path d="M30.0449 9.18178L16.3049 1.20178L1.30493 9.60178V26.4018L16.3049 34.8018L30.7049 26.4018V9.60178V8.88178L30.0449 9.18178Z" fill="#202A5A"/>
<path d="M1.30493 9.60178L16.3049 18.0018L30.7049 9.60178L16.3049 1.20178L1.30493 9.60178Z" fill="#2C448A"/>
<path d="M30.7049 8.88147L25.9049 11.4015L25.8449 12.4815L16.3049 18.0015V34.8015L30.7049 26.4015V8.88147Z" fill="#283A79"/>
<path d="M1.30493 9.6012V26.4012L16.3049 34.8012V18.0012L1.30493 9.6012Z" fill="#202A5A"/>
<path d="M0.104736 26.4016V21.0016L16.3047 30.6016V36.0016L0.104736 26.4016Z" fill="#3558A7"/>
<path d="M0.104736 9.6012V12.6012L16.3047 22.2012V19.2012L0.104736 9.6012Z" fill="#3558A7"/>
<path d="M31.9049 26.4018V23.4018L18.7649 17.7018L16.3049 19.2018V22.1418L24.2849 25.6818L16.3049 30.6018V36.0018L31.9049 26.4018Z" fill="#416FB5"/>
<path d="M24.2847 25.6819L23.3247 25.3219L16.3047 29.4019L1.30474 21.0019V20.2819L0.104736 21.0019L16.3047 30.6019L24.2847 25.6819Z" fill="#477FC1"/>
<path d="M7.18474 10.8016L16.3047 5.40159L25.9047 11.4016L30.7047 8.88159L16.3047 0.00158691L0.104736 9.60159L16.3047 19.2016L18.7647 17.7016L7.18474 10.8016Z" fill="#477FC1"/>
<path d="M25.8448 12.482L25.9048 11.402L16.3048 5.40198L7.18481 10.802L8.20481 11.402L16.3048 6.60198L25.8448 12.482Z" fill="#202A5A"/>
</g>
<defs>
<clipPath id="clip0_202_9899">
<rect width="32" height="37" fill="white"/>
</clipPath>
</defs>
</svg>
