<svg width="37" height="36" viewBox="0 0 37 36" fill="none" xmlns="http://www.w3.org/2000/svg">
<g clip-path="url(#clip0_202_11347)">
<path d="M18.247 35.0891C22.1845 21.0112 22.0702 20.9473 24.916 10.9096L25.6 11.3056C25.9726 11.5189 26.2768 11.3435 26.2768 10.9151V6.12705C27.0328 3.48285 27.6232 1.43805 27.7978 0.82605H30.8803L36.0022 5.56905L32.638 8.47605L35.1823 11.2273L18.4162 35.0891C18.3352 35.224 18.2209 35.1935 18.247 35.0891ZM20.0785 4.74465C20.2315 4.74465 20.3539 4.82835 20.3539 4.93365V7.38615C20.3539 7.48875 20.2306 7.57245 20.0785 7.57245H15.9385C15.7855 7.57245 15.6622 7.48875 15.6622 7.38525V4.93185C15.6622 4.82835 15.7855 4.74285 15.9376 4.74285H20.0776L20.0785 4.74465ZM25.1905 2.02845L20.6347 4.65825C20.6869 4.73925 20.7193 4.83195 20.7193 4.93275V7.38705C20.7193 7.51305 20.6689 7.62825 20.5879 7.72005L25.1896 10.3769C25.5028 10.5587 25.7602 10.4102 25.7602 10.0484V2.35785C25.7602 1.99515 25.5046 1.84755 25.1905 2.02845ZM15.2959 7.38705V4.93185C15.2959 4.83105 15.3283 4.73835 15.3805 4.65825L10.8247 2.02665C10.5115 1.84665 10.2541 1.99425 10.2541 2.35605V10.0465C10.2541 10.4083 10.5115 10.5568 10.8256 10.375L15.4264 7.71825C15.3454 7.62555 15.2968 7.51125 15.2968 7.38525L15.2959 7.38705ZM17.5882 35.0891H17.7574C13.8208 21.0112 13.9342 20.9473 11.0884 10.9096L10.4044 11.3056C10.0327 11.5189 9.7276 11.3435 9.7276 10.9151V6.12705C8.9716 3.48375 8.3812 1.43805 8.2066 0.82605H5.125L0.00219727 5.56905L3.3655 8.47605L0.821197 11.2282L17.5882 35.0891ZM17.8771 12.6961C18.564 12.6961 19.1209 12.1393 19.1209 11.4523C19.1209 10.7654 18.564 10.2085 17.8771 10.2085C17.1902 10.2085 16.6333 10.7654 16.6333 11.4523C16.6333 12.1393 17.1902 12.6961 17.8771 12.6961ZM17.8771 20.0896C18.564 20.0896 19.1209 19.5328 19.1209 18.8458C19.1209 18.1589 18.564 17.602 17.8771 17.602C17.1902 17.602 16.6333 18.1589 16.6333 18.8458C16.6333 19.5328 17.1902 20.0896 17.8771 20.0896ZM17.8771 27.485C18.564 27.485 19.1209 26.9281 19.1209 26.2411C19.1209 25.5542 18.564 24.9973 17.8771 24.9973C17.1902 24.9973 16.6333 25.5542 16.6333 26.2411C16.6333 26.9281 17.1902 27.485 17.8771 27.485Z" fill="black"/>
</g>
<defs>
<clipPath id="clip0_202_11347">
<rect width="37" height="36" fill="white"/>
</clipPath>
</defs>
</svg>
