<svg width="41" height="24" viewBox="0 0 41 24" fill="none" xmlns="http://www.w3.org/2000/svg">
<g clip-path="url(#clip0_202_11269)">
<path d="M27.9559 0.472479L27.6264 0.25108C27.3248 0.0535373 26.9578 -0.0177555 26.6042 0.0525345H26.5928C26.244 0.126875 25.9382 0.334885 25.741 0.631982L11.6952 21.6559C11.4982 21.9556 11.4269 22.3206 11.4967 22.6724V22.691C11.5712 23.0382 11.7793 23.3421 12.0761 23.5371L12.4056 23.7527C12.7066 23.9524 13.0747 24.0238 13.4285 23.9514C13.7824 23.8789 14.0928 23.6685 14.291 23.3666L28.3368 2.34842C28.5339 2.04665 28.6051 1.67978 28.5354 1.32618C28.4646 0.975372 28.2558 0.667739 27.9559 0.472479ZM27.7288 1.94847L26.059 4.44719L24.6849 3.53874L26.3547 1.04574C26.4463 0.907263 26.5894 0.811107 26.7523 0.778629C26.9152 0.745377 27.0847 0.778079 27.2236 0.869569L27.5531 1.09097C27.6916 1.18259 27.7877 1.3257 27.8202 1.48854C27.8523 1.64806 27.8194 1.8138 27.7288 1.94895V1.94847ZM7.98855 18.492C7.80484 18.4927 7.62643 18.4305 7.4829 18.3158L0.31575 12.6537C0.11786 12.4992 0.00219727 12.2621 0.00219727 12.011C0.00219727 11.7599 0.11786 11.5227 0.31575 11.3682L7.47719 5.69703C7.83218 5.41474 8.34879 5.47368 8.63108 5.82868C8.91337 6.18367 8.85442 6.70029 8.49943 6.98257L2.15027 12.0119L8.49372 17.0251C8.76915 17.2409 8.87747 17.6076 8.76354 17.9384C8.6496 18.2693 8.33846 18.4915 7.98855 18.492ZM32.022 18.492C31.6722 18.4913 31.3613 18.269 31.2474 17.9382C31.1336 17.6074 31.242 17.2408 31.5173 17.0251L37.8603 12.0119L31.5112 6.97876C31.2815 6.79718 31.1662 6.50687 31.2086 6.21721C31.2511 5.92754 31.4448 5.68251 31.7169 5.57443C31.989 5.46635 32.298 5.51163 32.5277 5.69322L39.6886 11.3706C39.8865 11.5251 40.0022 11.7622 40.0022 12.0133C40.0022 12.2644 39.8865 12.5015 39.6886 12.6561L32.5277 18.3106C32.3846 18.4267 32.2063 18.4907 32.022 18.492Z" fill="black"/>
<path d="M17.8305 7.06315C18.278 5.83369 18.6467 5.47075 19.8761 5.01754C18.6467 4.57004 18.2861 4.20139 17.8305 2.97241C17.383 4.20187 17.0144 4.56481 15.7849 5.01802C17.0148 5.47075 17.3773 5.83369 17.8305 7.06315Z" fill="#1C96D4"/>
<path d="M12.7708 14.0155C13.5528 11.8849 14.1817 11.2559 16.3124 10.4739C14.1817 9.69199 13.5528 9.06301 12.7708 6.93237C11.9889 9.06301 11.3599 9.69199 9.22925 10.4739C11.3599 11.2502 11.9946 11.8849 12.7708 14.0155Z" fill="#C61A41"/>
<path d="M26.6022 17.2906C27.1689 15.7438 27.6278 15.2906 29.1675 14.7252C27.6207 14.1585 27.1675 13.6996 26.6022 12.1599C26.0354 13.7067 25.5765 14.1599 24.0369 14.7252C25.5765 15.2906 26.0354 15.7514 26.6022 17.2906Z" fill="#EEB034"/>
</g>
<defs>
<clipPath id="clip0_202_11269">
<rect width="41" height="24" fill="white"/>
</clipPath>
</defs>
</svg>
