<svg width="36" height="37" viewBox="0 0 36 37" fill="none" xmlns="http://www.w3.org/2000/svg">
<g clip-path="url(#clip0_202_13993)">
<path d="M36.001 0.00671387H0.000976562V36.0067H36.001V0.00671387Z" fill="#E44041"/>
<path d="M21.5856 26.0731C20.6327 26.426 19.0444 26.7084 17.6327 26.7084C13.221 26.7084 10.3975 23.7437 10.3975 18.0614C10.3975 11.9203 13.6798 9.23799 17.5974 9.23799C19.3268 9.23799 20.6327 9.62622 21.5503 10.0497L22.6797 5.00275C21.9032 4.57923 19.9974 4.01453 17.2445 4.01453C10.221 4.01453 3.86816 8.638 3.86816 18.4143C3.86816 25.9672 7.96223 32.0024 16.6092 32.0024C19.2915 32.0024 21.4091 31.5083 22.3621 31.0848L21.5856 26.0731ZM25.9267 31.6495H32.1384V4.36746H25.9267V31.6495Z" fill="white"/>
</g>
<defs>
<clipPath id="clip0_202_13993">
<rect width="36.001" height="37" fill="white"/>
</clipPath>
</defs>
</svg>
