<svg width="28" height="37" viewBox="0 0 28 37" fill="none" xmlns="http://www.w3.org/2000/svg">
<g clip-path="url(#clip0_202_14892)">
<path d="M27.8579 18.1106C27.8579 17.6887 27.5461 17.4454 27.1634 17.5663L0.839715 25.9135C0.456304 26.0352 0.145264 26.4763 0.145264 26.8975V35.4288C0.145264 35.8507 0.456304 36.0947 0.839715 35.9731L27.1634 27.6266C27.5461 27.5049 27.8579 27.0638 27.8579 26.6419V18.1106Z" fill="url(#paint0_linear_202_14892)"/>
<path d="M0.145264 17.8388C0.145264 18.2607 0.456304 18.7019 0.839715 18.8235L27.1673 27.1716C27.5507 27.2932 27.8617 27.0492 27.8617 26.628V18.096C27.8617 17.6748 27.5507 17.2337 27.1673 17.112L0.839715 8.764C0.456304 8.64236 0.145264 8.88564 0.145264 9.30755V17.8388Z" fill="#FF9800"/>
<path d="M27.8579 0.579987C27.8579 0.158081 27.5461 -0.0859779 27.1634 0.0356665L0.839715 8.38217C0.456304 8.50381 0.145264 8.94496 0.145264 9.36687V17.8981C0.145264 18.3201 0.456304 18.5633 0.839715 18.4425L27.1634 10.0952C27.5461 9.97355 27.8579 9.5324 27.8579 9.11126V0.579987Z" fill="#FF9800"/>
</g>
<defs>
<linearGradient id="paint0_linear_202_14892" x1="15.4196" y1="28.3728" x2="16.5819" y2="24.4864" gradientUnits="userSpaceOnUse">
<stop stop-color="#FF9700"/>
<stop offset="0.53" stop-color="#F48E00"/>
<stop offset="1" stop-color="#D06F00"/>
</linearGradient>
<clipPath id="clip0_202_14892">
<rect width="28" height="37" fill="white"/>
</clipPath>
</defs>
</svg>
