<svg width="41" height="30" viewBox="0 0 41 30" fill="none" xmlns="http://www.w3.org/2000/svg">
<g clip-path="url(#clip0_202_13107)">
<path d="M0.00317383 0.508392V11.0004C5.40944 8.74926 12.633 6.4869 21.7235 4.20397C27.5484 2.74336 33.178 1.5152 38.6156 0.508392H0.00317383ZM40.0032 2.74556C34.7318 3.52899 30.0044 4.4509 25.8439 5.49246C21.0809 6.6888 17.2465 7.89826 14.3465 9.1314C11.4428 10.3425 10.0939 11.3219 10.2828 12.0765C10.4532 12.7428 11.6692 13.0453 13.9359 12.9827C15.1026 12.9606 16.9916 12.8323 19.6138 12.6004C22.236 12.3685 25.6216 12.0332 29.766 11.5951C33.874 11.171 37.2765 10.8841 40.0032 10.7172V2.74556ZM28.2934 16.0553C27.1268 16.07 25.5207 16.1592 23.4651 16.3102C21.4022 16.4648 18.85 16.6874 15.7908 17.004C11.0426 17.5119 7.09066 17.9074 3.95362 18.165C2.44882 18.292 1.14149 18.371 0.00317383 18.4341V26.9438C6.23365 26.033 11.8699 24.9472 16.8952 23.6872C21.8322 22.4503 25.6268 21.2434 28.2934 20.0765C30.9638 18.9096 32.2106 17.9197 32.0032 17.1172C31.8291 16.4252 30.5786 16.0737 28.2934 16.0553ZM40.0032 19.0429C34.5282 21.1877 27.7328 23.2911 19.6138 25.3296C12.0547 27.2249 5.5252 28.581 0.00317383 29.4217V29.4925H40.0032V19.0429ZM1.67397 20.827C1.69437 20.824 1.70999 20.8268 1.73061 20.827C1.83401 20.8305 1.94427 20.8629 2.01379 20.9403C2.11999 21.0496 2.14756 21.2248 2.08459 21.365C2.01611 21.5264 1.83438 21.6237 1.65981 21.5916C1.46712 21.5636 1.31771 21.3742 1.33415 21.181C1.33973 20.999 1.49415 20.8495 1.67397 20.827ZM3.0899 20.827C3.1802 20.8306 3.26419 20.8489 3.33061 20.9119C3.45607 21.015 3.50553 21.2004 3.44388 21.3509C3.38616 21.5055 3.22801 21.6203 3.06158 21.6057C2.91864 21.5999 2.77802 21.5108 2.72176 21.3792C2.64396 21.2081 2.70734 20.9767 2.87751 20.8836C2.94096 20.8448 3.01532 20.8262 3.0899 20.827ZM1.73061 23.3332C1.8993 23.3278 2.05001 23.4465 2.09875 23.6022C2.15037 23.7753 2.06824 23.9932 1.90052 24.0695C1.73205 24.154 1.51077 24.1004 1.40494 23.942C1.29722 23.7874 1.31211 23.5541 1.46158 23.4323C1.53483 23.3669 1.63221 23.3311 1.73061 23.3332ZM3.0899 23.3332C3.22406 23.3258 3.3433 23.4107 3.41556 23.5172C3.51967 23.6796 3.47612 23.9139 3.31645 24.027C3.15629 24.1488 2.90593 24.1284 2.77839 23.9703C2.64656 23.8133 2.65526 23.546 2.82087 23.4181C2.89274 23.3588 2.99608 23.3302 3.0899 23.3332Z" fill="#809CC8"/>
</g>
<defs>
<clipPath id="clip0_202_13107">
<rect width="41" height="30" fill="white"/>
</clipPath>
</defs>
</svg>
