<svg width="37" height="32" viewBox="0 0 37 32" fill="none" xmlns="http://www.w3.org/2000/svg">
<g clip-path="url(#clip0_202_9229)">
<mask id="mask0_202_9229" style="mask-type:alpha" maskUnits="userSpaceOnUse" x="0" y="0" width="37" height="32">
<path d="M18.0066 31.7504C18.0684 31.7504 18.1299 31.7495 18.1912 31.7479C18.2545 31.7495 18.318 31.7504 18.3816 31.7504H29.6316C29.7564 31.7504 29.8803 31.7463 30.003 31.7383C27.073 31.5436 24.7566 29.1052 24.7566 26.1259C24.7566 29.2324 27.275 31.7504 30.3816 31.7504C33.4882 31.7504 36.0066 29.232 36.0066 26.1254V13.7504C36.0066 10.0225 32.9845 7.00041 29.2566 7.00041H24.7566C24.7566 3.2725 21.7345 0.250366 18.0066 0.250366C17.9446 0.250366 17.8828 0.251199 17.8213 0.25286C17.7583 0.251214 17.695 0.250385 17.6316 0.250385H6.38159C6.25552 0.250385 6.13042 0.254533 6.0064 0.2627C6.23545 0.277768 6.46075 0.306545 6.68152 0.348222C6.34135 0.284007 5.99039 0.250411 5.63159 0.250411C2.52499 0.250411 0.0065918 2.7688 0.0065918 5.87541V18.2504C0.0065918 21.9783 3.02867 25.0004 6.75659 25.0004H11.2566C11.2566 28.7283 14.2787 31.7504 18.0066 31.7504Z" fill="url(#paint0_linear_202_9229)"/>
</mask>
<g mask="url(#mask0_202_9229)">
<path d="M11.2566 25.0005V5.87549C11.2566 2.76888 8.73821 0.250488 5.63159 0.250488C2.52499 0.250488 0.0065925 2.76888 0.00659236 5.87549L0.0065918 18.2505C0.00659163 21.9784 3.02867 25.0005 6.75659 25.0005H11.2566Z" fill="url(#paint1_linear_202_9229)"/>
<path d="M30.3816 31.7504C33.4882 31.7504 36.0066 29.232 36.0066 26.1254V13.7504C36.0066 10.0225 32.9845 7.00043 29.2566 7.00043H24.7566V26.1254C24.7566 29.232 27.275 31.7504 30.3816 31.7504Z" fill="url(#paint2_linear_202_9229)"/>
<g filter="url(#filter0_f_202_9229)">
<path d="M11.2566 25.7504V6.62543C11.2566 3.64485 8.93834 1.20571 6.00659 1.01273C6.13053 1.00457 6.25555 1.00043 6.38159 1.00043H17.6316C17.6951 1.00043 17.7585 1.00126 17.8216 1.00291C17.8831 1.00126 17.9447 1.00043 18.0066 1.00043C21.7345 1.00043 24.7566 4.02251 24.7566 7.75043L24.7565 26.8759C24.7565 29.8553 27.073 32.2937 30.0031 32.4883C29.8803 32.4964 29.7564 32.5004 29.6316 32.5004H18.3816C18.318 32.5004 18.2547 32.4996 18.1915 32.498C18.1301 32.4996 18.0684 32.5004 18.0066 32.5004C14.2786 32.5004 11.2566 29.4783 11.2566 25.7504Z" fill="black" fill-opacity="0.32"/>
</g>
<g filter="url(#filter1_f_202_9229)">
<path d="M11.2566 25.1429V6.01791C11.2566 3.03734 8.93834 0.598196 6.00659 0.405217C6.13053 0.397061 6.25555 0.392918 6.38159 0.392918L17.6316 0.392914C17.6951 0.392914 17.7585 0.393746 17.8216 0.3954C17.8831 0.393746 17.9447 0.392914 18.0066 0.392914C21.7345 0.392914 24.7566 3.415 24.7566 7.14291L24.7565 26.2684C24.7565 29.2478 27.073 31.6862 30.0031 31.8808C29.8803 31.8889 29.7564 31.8929 29.6316 31.8929H18.3816C18.318 31.8929 18.2547 31.8921 18.1915 31.8904C18.1301 31.8921 18.0684 31.8929 18.0066 31.8929C14.2786 31.8929 11.2566 28.8708 11.2566 25.1429Z" fill="black" fill-opacity="0.24"/>
</g>
<path fill-rule="evenodd" clip-rule="evenodd" d="M11.2565 25.0004V24.6254V19.0004V13.0004V5.87543C11.2565 2.89485 8.93822 0.455706 6.00647 0.262731C6.13041 0.254571 6.25547 0.250427 6.38147 0.250427H17.6315C17.695 0.250427 17.7583 0.25126 17.8215 0.252913C17.8829 0.25126 17.9446 0.250427 18.0065 0.250427C21.7344 0.250427 24.7565 3.27251 24.7565 7.00043V7.00088H24.7564V26.1259C24.7564 29.1053 27.0728 31.5437 30.0029 31.7383C29.8802 31.7464 29.7563 31.7504 29.6315 31.7504H18.3815C18.3179 31.7504 18.2546 31.7496 18.1914 31.748C18.13 31.7496 18.0683 31.7504 18.0065 31.7504C14.2785 31.7504 11.2565 28.7283 11.2565 25.0004Z" fill="url(#paint3_linear_202_9229)"/>
</g>
</g>
<defs>
<filter id="filter0_f_202_9229" x="-1.99341" y="-6.99957" width="39.9965" height="47.5" filterUnits="userSpaceOnUse" color-interpolation-filters="sRGB">
<feFlood flood-opacity="0" result="BackgroundImageFix"/>
<feBlend mode="normal" in="SourceGraphic" in2="BackgroundImageFix" result="shape"/>
<feGaussianBlur stdDeviation="4" result="effect1_foregroundBlur_202_9229"/>
</filter>
<filter id="filter1_f_202_9229" x="5.24659" y="-0.367086" width="25.5165" height="33.02" filterUnits="userSpaceOnUse" color-interpolation-filters="sRGB">
<feFlood flood-opacity="0" result="BackgroundImageFix"/>
<feBlend mode="normal" in="SourceGraphic" in2="BackgroundImageFix" result="shape"/>
<feGaussianBlur stdDeviation="0.38" result="effect1_foregroundBlur_202_9229"/>
</filter>
<linearGradient id="paint0_linear_202_9229" x1="8.33437" y1="-3.14109" x2="25.6824" y2="33.078" gradientUnits="userSpaceOnUse">
<stop stop-color="#40C4F5"/>
<stop offset="1" stop-color="#0095E6"/>
</linearGradient>
<linearGradient id="paint1_linear_202_9229" x1="11.2566" y1="25.0005" x2="-7.57178" y2="15.8584" gradientUnits="userSpaceOnUse">
<stop stop-color="#27518A"/>
<stop offset="1" stop-color="#2064AE"/>
</linearGradient>
<linearGradient id="paint2_linear_202_9229" x1="35.9153" y1="29.9423" x2="22.427" y2="27.5138" gradientUnits="userSpaceOnUse">
<stop stop-color="#7CE6FF"/>
<stop offset="1" stop-color="#A7F2FF"/>
</linearGradient>
<linearGradient id="paint3_linear_202_9229" x1="8.33443" y1="-3.14102" x2="25.6825" y2="33.078" gradientUnits="userSpaceOnUse">
<stop stop-color="#40C4F5"/>
<stop offset="1" stop-color="#0095E6"/>
</linearGradient>
<clipPath id="clip0_202_9229">
<rect width="37" height="32" fill="white"/>
</clipPath>
</defs>
</svg>
