<svg width="28" height="41" viewBox="0 0 28 41" fill="none" xmlns="http://www.w3.org/2000/svg">
<g clip-path="url(#clip0_202_13432)">
<path d="M26.4291 9.77815C26.1559 9.54958 25.8487 9.27535 25.0064 9.05818V9.04668C26.2129 5.93811 25.382 4.70384 24.221 3.73242C23.3787 3.02383 21.9103 2.88671 20.7608 3.14956C19.5201 0.841023 16.6972 0.029602 14.0224 0.00671387C11.3476 0.029602 8.5248 0.841023 7.2727 3.13817C6.12313 2.87532 4.65481 3.02383 3.81248 3.72102C2.65152 4.69245 1.82058 5.92672 3.02711 9.03529V9.04668C2.18479 9.26385 1.88893 9.54958 1.61575 9.77815C1.01243 10.2467 0.500244 10.9781 0.500244 12.0639C0.557201 13.7896 1.923 26.8753 1.923 26.8753C1.923 26.9095 1.95717 26.9438 1.99135 26.9438C2.01413 26.9438 2.02552 26.9324 2.03681 26.921L3.26612 25.7667V27.6296C3.26612 27.6753 3.30029 27.6982 3.33447 27.6982C3.34586 27.6982 3.36864 27.6982 3.37993 27.6753L5.46296 25.8696V26.9553C5.46296 27.001 5.49703 27.0239 5.5312 27.0239C5.55398 27.0239 5.56538 27.0125 5.57677 27.001L6.74912 25.8696L7.55727 25.0924C7.60284 29.2639 7.44347 34.3382 6.72634 39.0582C6.61253 39.8239 7.0337 40.0067 7.40929 40.0067C7.61423 40.0067 7.79628 39.9496 7.88731 39.9039C9.03699 39.2981 9.99312 36.8868 10.6191 34.201C11.1427 31.9725 11.7232 29.0696 12.2696 25.5382C12.52 25.6639 13.2598 25.8924 13.9997 25.8924C14.7395 25.8924 15.468 25.6639 15.7298 25.5382C16.2648 29.0582 16.8566 31.9611 17.3802 34.201C18.0063 36.8868 18.9623 39.2981 20.112 39.9039C20.203 39.9496 20.3966 40.0067 20.59 40.0067C20.9656 40.0067 21.3982 39.8239 21.273 39.0582C20.5558 34.3496 20.3966 29.2753 20.442 25.0924L21.2502 25.8696L22.4225 27.001C22.4339 27.0125 22.4567 27.0239 22.4681 27.0239C22.5023 27.0239 22.5364 26.9896 22.5364 26.9553V25.8696L24.6194 27.6753C24.6308 27.6867 24.6535 27.6982 24.6649 27.6982C24.699 27.6982 24.7332 27.6639 24.7332 27.6296V25.7667L25.9625 26.921C25.9739 26.9324 25.9966 26.9438 26.0079 26.9438C26.0421 26.9438 26.0763 26.921 26.0763 26.8753C26.0763 26.8753 27.4422 13.801 27.4991 12.0639C27.5446 10.9781 27.0324 10.2467 26.4291 9.77815Z" fill="#564740"/>
<path d="M14.4433 19.1957L14.0221 18.7958L13.6011 19.1957V19.2071L13.1116 19.6986C13.3961 19.9958 13.7035 20.1558 14.0221 20.1558C14.3409 20.1558 14.6482 19.9958 14.9328 19.6986L14.4433 19.1957Z" fill="#483A34"/>
<path d="M15.3657 20.5663H12.6795L12.5657 21.4578H15.4796L15.3657 20.5663Z" fill="#AAD9BD"/>
<path d="M12.1896 20.6239C12.1896 20.6239 11.8368 23.2182 11.7116 24.121C10.6871 31.1268 9.24158 38.4868 7.57981 39.2068C7.45462 39.2639 7.34081 39.1497 7.35209 39.0239C7.55703 37.9154 8.02365 34.9896 8.17164 32.3725C8.28544 30.4296 8.33101 26.9096 8.3424 23.2753L9.3441 22.3153C9.42373 22.2354 9.54893 22.2696 9.54893 22.3954V23.2982L12.1896 20.6239Z" fill="#F7E3D6"/>
<path d="M9.53789 23.31V22.4071C9.53789 22.2814 9.41269 22.2471 9.33306 22.3271L8.70695 22.9214C8.69567 23.23 8.55908 28.7499 8.55908 29.8929C8.55908 33.07 7.73954 38.0529 7.81917 38.0529C8.5363 38.0529 9.53789 27.2528 9.86803 22.9557L9.53789 23.31Z" fill="#FAF1EB"/>
<path d="M15.8552 20.6239C15.8552 20.6239 16.208 23.2182 16.3332 24.121C17.3576 31.1268 18.8033 38.4868 20.465 39.2068C20.5902 39.2639 20.704 39.1497 20.6926 39.0239C20.4878 37.9154 20.0211 34.9896 19.8732 32.3725C19.7593 30.4296 19.7138 26.9096 19.7024 23.2753L18.7007 22.3153C18.6211 22.2354 18.4959 22.2696 18.4959 22.3954V23.2982L15.8552 20.6239Z" fill="#F7E3D6"/>
<path d="M24.4485 9.51518C23.868 9.42373 22.0924 9.44662 22.0697 9.44662L24.2892 8.93232C25.9852 5.30946 23.39 3.58378 21.8193 3.58378C21.2843 3.58378 19.8843 3.77807 19.7249 3.77807C19.7249 3.77807 19.9867 3.74368 20.055 3.67512C20.055 3.00082 18.1769 0.772339 14.0223 0.772339C9.87925 0.772339 7.98977 3.00082 7.98977 3.67512C8.05801 3.74368 8.3198 3.77807 8.3198 3.77807C8.16043 3.77807 6.76046 3.58378 6.22549 3.58378C4.66614 3.58378 2.05953 5.29796 3.75557 8.93232L5.97509 9.44662C5.9637 9.44662 4.17663 9.43512 3.5962 9.51518C2.79944 9.64091 1.23999 10.498 1.23999 12.018C1.23999 12.7266 1.53595 14.8181 1.53595 14.8181H26.4974C26.4974 14.8181 26.7934 12.7266 26.7934 12.018C26.8048 10.498 25.2453 9.64091 24.4485 9.51518Z" fill="#63C199"/>
<path d="M23.4582 4.96704C23.0825 4.6928 22.5817 4.57847 21.9101 4.57847C21.9101 4.57847 21.6142 4.58997 21.4435 4.61275C19.8386 4.81853 19.2695 5.68712 17.7215 5.68712C16.9361 5.68712 17.3572 3.81282 17.3572 3.81282C17.3572 3.81282 19.3377 3.8585 19.3377 3.72138C19.3377 3.11563 17.0044 1.36707 14.1815 1.36707H13.8401C11.0173 1.36707 8.68385 3.11563 8.68385 3.72138C8.68385 3.8585 10.6645 3.81282 10.6645 3.81282C10.6645 3.81282 11.0969 5.68712 10.3002 5.68712C8.7522 5.68712 8.18305 4.81853 6.57814 4.61275C6.40749 4.58997 6.11152 4.57847 6.11152 4.57847C5.43996 4.57847 4.93917 4.6928 4.56346 4.96704C4.03988 5.35561 2.96994 6.80706 4.83664 9.19565L5.95215 9.4471H22.0467L23.1622 9.19565C25.0517 6.79566 23.9818 5.34422 23.4582 4.96704Z" fill="#C5E4D0"/>
<path d="M6.35053 6.13269C6.23672 6.13269 6.1343 6.16697 6.04317 6.23553C6.07735 6.26991 6.08874 6.30419 6.08874 6.34986C6.08874 6.44131 6.0205 6.50987 5.92936 6.50987C5.89519 6.50987 5.86112 6.49848 5.82695 6.47559C5.76999 6.57843 5.74731 6.70415 5.74731 6.82988C5.74731 7.21845 6.0205 7.52697 6.36192 7.52697C6.70334 7.52697 6.97652 7.21845 6.97652 6.82988C6.96524 6.44131 6.69206 6.13269 6.35053 6.13269Z" fill="#483A34"/>
<path d="M6.22547 6.34974C6.22547 6.26979 6.1913 6.18973 6.13445 6.14406C6.07749 6.08689 6.00925 6.05261 5.92951 6.05261C5.77014 6.05261 5.63354 6.18973 5.63354 6.34974C5.63354 6.44118 5.67911 6.53263 5.74746 6.58969C5.79292 6.62408 5.86127 6.64686 5.92951 6.64686C6.08888 6.64686 6.22547 6.50974 6.22547 6.34974Z" fill="#FBF9F6"/>
<path d="M21.9106 6.13269C21.7968 6.13269 21.6944 6.16697 21.6033 6.23553C21.6374 6.26991 21.6488 6.30419 21.6488 6.34986C21.6488 6.44131 21.5806 6.50987 21.4894 6.50987C21.4554 6.50987 21.4212 6.49848 21.387 6.47559C21.3302 6.57843 21.3074 6.70415 21.3074 6.82988C21.3074 7.21845 21.5806 7.52697 21.922 7.52697C22.2635 7.52697 22.5367 7.21845 22.5367 6.82988C22.5253 6.44131 22.2521 6.13269 21.9106 6.13269Z" fill="#483A34"/>
<path d="M21.7849 6.34974C21.7849 6.26979 21.7508 6.18973 21.6939 6.14406C21.637 6.08689 21.5687 6.05261 21.489 6.05261C21.3297 6.05261 21.1931 6.18973 21.1931 6.34974C21.1931 6.44118 21.2386 6.53263 21.3069 6.58969C21.3524 6.62408 21.4207 6.64686 21.489 6.64686C21.6483 6.64686 21.7849 6.50974 21.7849 6.34974Z" fill="#FBF9F6"/>
<path d="M18.5071 23.31V22.4071C18.5071 22.2814 18.6323 22.2471 18.712 22.3271L19.338 22.9214C19.3494 23.23 19.4859 28.7499 19.4859 29.8929C19.4859 33.07 20.3055 38.0529 20.2259 38.0529C19.5087 38.0529 18.5071 27.2528 18.177 22.9557L18.5071 23.31Z" fill="#FAF1EB"/>
<path d="M22.4338 11.6299C19.9867 10.567 16.3329 10.19 15.2174 10.0985L14.5004 10.7728L14.4662 10.8071L14.1702 11.0813C14.1362 11.1156 14.0792 11.1385 14.0223 11.1385C13.9654 11.1385 13.9198 11.1156 13.8744 11.0813L13.5784 10.8071L13.5442 10.7728L12.8271 10.0985C11.7117 10.19 8.05795 10.567 5.61082 11.6299C2.98143 12.7727 1.53589 14.91 1.53589 14.8185L1.66109 16.1785V16.167C5.61082 11.6299 13.5898 19.1843 13.5898 19.1843L14.0109 18.7842L14.432 19.1843C14.432 19.1843 22.4111 11.6299 26.3607 16.167V16.1785L26.4859 14.8185C26.5087 14.91 25.0632 12.7727 22.4338 11.6299Z" fill="#AAD9BD"/>
<path d="M13.6013 19.1954L13.0664 13.6639C12.4972 14.4068 11.4728 15.0696 9.78819 15.0696C7.17029 15.0696 5.62234 11.6296 1.67261 16.1668L2.48076 24.9783L2.53772 25.4011L3.65312 24.2582L3.78971 16.5668L3.96047 16.4525L4.01743 26.0982L5.33777 24.9554L5.94098 24.4297C5.98654 22.1782 6.05479 18.3039 6.05479 18.3039L6.23694 18.1783L6.27112 25.2868L7.35234 24.2468L7.42069 24.1782L8.06947 23.5497C8.10364 21.7211 8.13782 19.9839 8.13782 19.9839L8.31987 19.8239L8.34265 23.2983L8.71825 22.9325L9.34435 22.3382C9.37842 22.3039 9.41259 22.2926 9.44676 22.2926C9.50362 22.2926 9.54918 22.3382 9.54918 22.4183V23.321L13.6013 19.1954Z" fill="#C5E4D0"/>
<path d="M17.0615 8.69258C17.0273 8.68119 16.9931 8.6698 16.9589 8.6698H11.0857C11.0516 8.6698 11.006 8.68119 10.9832 8.69258C10.9036 8.73836 10.858 8.82981 10.9036 8.90976L10.9378 8.95553L13.5329 11.4012L13.5443 11.4127L13.8744 11.7212C13.9085 11.7555 13.9654 11.7784 14.0223 11.7784C14.0792 11.7784 14.1248 11.7555 14.1703 11.7212L14.5004 11.4127L14.5118 11.4012L17.1069 8.95553C17.1183 8.94404 17.1297 8.93264 17.1411 8.90976C17.1867 8.82981 17.1525 8.72686 17.0615 8.69258Z" fill="#564740"/>
<path d="M14.4436 19.1954L14.9786 13.6639C15.5477 14.4068 16.5721 15.0696 18.2567 15.0696C20.8746 15.0696 22.4226 11.6296 26.3723 16.1668L25.5642 24.9783L25.5072 25.4011L24.3918 24.2582L24.2552 16.5668L24.0845 16.4525L24.0275 26.0982L22.7072 24.9554L22.104 24.4297C22.0584 22.1782 21.9901 18.3039 21.9901 18.3039L21.808 18.1783L21.7738 25.2868L20.6925 24.2468L20.6242 24.1782L19.9755 23.5497C19.9413 21.7211 19.9071 19.9839 19.9071 19.9839L19.7251 19.8239L19.7023 23.2983L19.3267 22.9325L18.7006 22.3382C18.6665 22.3039 18.6323 22.2926 18.5982 22.2926C18.5412 22.2926 18.4958 22.3382 18.4958 22.4183V23.321L14.4436 19.1954Z" fill="#C5E4D0"/>
<path d="M10.2436 6.39483C11.5411 6.39483 10.7672 4.25769 10.7672 4.25769C10.7672 4.25769 10.8696 5.13778 9.86799 5.13778C7.93294 5.13778 7.93294 4.46347 6.38498 4.46347C5.11011 4.46347 4.70044 4.87493 4.70044 4.87493C7.63697 4.16635 8.36549 6.39483 10.2436 6.39483Z" fill="#AAD9BD"/>
<path d="M15.4679 21.3783L14.7622 20.6698C14.5118 20.7041 14.2728 20.7155 14.0223 20.7155C13.7719 20.7155 13.5215 20.6926 13.2825 20.6698L12.5767 21.3783L12.1443 24.5555C12.6679 24.9897 13.2939 25.1726 13.9996 25.1726H14.0451C14.7622 25.1726 15.3768 24.9897 15.9004 24.5555L15.4679 21.3783Z" fill="#C5E4D0"/>
<path d="M15.2859 20.0521L14.9331 19.6864C14.6485 19.9835 14.3412 20.1435 14.0224 20.1435C13.7038 20.1435 13.3964 19.9835 13.1118 19.6864L12.759 20.0521L12.6907 20.5664C12.7704 20.5893 12.8387 20.6008 12.9184 20.6122C13.2826 20.6807 13.6468 20.715 14.0224 20.715C14.3981 20.715 14.7737 20.6807 15.1265 20.6122C15.2063 20.6008 15.2859 20.5779 15.3541 20.5664L15.2859 20.0521Z" fill="#63C199"/>
<path d="M17.8012 6.39483C16.5037 6.39483 17.2776 4.25769 17.2776 4.25769C17.2776 4.25769 17.1752 5.13778 18.1768 5.13778C20.1119 5.13778 20.1119 4.46347 21.6598 4.46347C22.9346 4.46347 23.3445 4.87493 23.3445 4.87493C20.4077 4.16635 19.6793 6.39483 17.8012 6.39483Z" fill="#AAD9BD"/>
</g>
<defs>
<clipPath id="clip0_202_13432">
<rect width="28" height="41" fill="white"/>
</clipPath>
</defs>
</svg>
