<svg width="36" height="30" viewBox="0 0 36 30" fill="none" xmlns="http://www.w3.org/2000/svg">
<g clip-path="url(#clip0_202_12815)">
<path d="M30.7332 16.3683L25.5956 11.2307L28.7187 8.1074C22.8731 1.84537 12.2751 2.51165 7.24682 8.16984L10.2684 11.1916L7.05937 14.4006L10.4012 17.7425L8.44916 19.6945L0.000976562 11.1837C6.38915 4.24907 11.1299 0.804321 17.4596 0.804321C24.9553 0.804321 29.0069 3.83198 36.001 11.2255C36.001 11.2255 30.7332 16.2746 30.7332 16.3683Z" fill="#29292B"/>
<path d="M17.9387 18.6685L23.0295 13.5778H12.7959L17.9387 18.6685Z" fill="#29292B"/>
<path d="M13.8536 20.9971L11.8027 23.0479L17.9828 29.2045L28.4103 18.7458L26.3985 16.7339L17.9736 25.0755L13.8536 20.9971Z" fill="#E8A824"/>
</g>
<defs>
<clipPath id="clip0_202_12815">
<rect width="36.001" height="30" fill="white"/>
</clipPath>
</defs>
</svg>
