<svg width="36" height="33" viewBox="0 0 36 33" fill="none" xmlns="http://www.w3.org/2000/svg">
<g clip-path="url(#clip0_202_8515)">
<path d="M0.000976562 15.5526V15.0999C1.76525 13.6028 3.94456 11.5138 5.5704 9.73815L6.4006 10.2952C5.46669 11.9665 4.11758 13.7769 2.80303 15.1348C4.87863 17.7461 4.98234 17.8855 6.33145 20.1138L5.5704 20.6709C4.80935 19.8702 4.46347 19.487 3.39109 18.5123C2.14573 17.3283 2.284 17.5023 0.485292 15.9704L0.000976562 15.5526V15.5526ZM7.06097 23.6458L8.53892 22.907C11.3099 27.1088 15.6974 30.0178 19.2074 30.0178C22.5789 30.0178 24.9806 27.6167 24.9806 24.1999C24.9806 20.8293 23.0408 19.1209 17.4525 17.5973C10.802 15.7965 8.26181 13.3493 8.26181 8.59356C8.26181 3.83771 11.9565 0.00537109 16.4826 0.00537109C17.7296 0.00537109 17.6371 0.00537109 20.5469 0.882664C20.9624 1.02119 21.5168 1.11362 21.7476 1.11362C22.0708 1.11362 22.5327 0.975096 22.9485 0.790357L24.5186 0.00549609L27.382 7.99341L25.9041 8.96301C23.2254 4.53039 19.8078 1.99079 16.4826 1.99079C13.573 1.99079 11.4024 4.16094 11.4024 7.11611C11.4024 10.0249 13.3884 11.9182 17.4987 12.9801C19.4847 13.4881 20.9163 13.9036 21.6091 14.0882C25.7657 15.3348 28.2598 18.6133 28.2598 22.7226C28.2598 27.9402 24.2418 32.0035 19.1614 32.0035C17.5911 32.0035 16.806 31.8188 14.8663 30.9415C14.035 30.572 13.527 30.4336 13.2037 30.4336C12.7419 30.4336 12.4186 30.5722 11.8644 30.8954L10.1095 32.0035L7.061 23.6458H7.06097ZM29.7051 20.1139C31.0542 17.8506 31.1234 17.7463 33.199 15.1349C31.8844 13.777 30.5353 11.9665 29.6013 10.2952L30.466 9.73815C32.0575 11.5139 34.1675 13.5332 36.001 15.1V15.5527L34.2367 17.0149C33.5795 17.5722 31.6769 19.3826 30.4316 20.6709L29.7051 20.114L29.7051 20.1139Z" fill="#FF0080"/>
</g>
<defs>
<clipPath id="clip0_202_8515">
<rect width="36.001" height="33" fill="white"/>
</clipPath>
</defs>
</svg>
