<svg width="30" height="37" viewBox="0 0 30 37" fill="none" xmlns="http://www.w3.org/2000/svg">
<g clip-path="url(#clip0_202_9091)">
<path d="M28.0693 4.76858C24.7264 -0.0159122 18.1243 -1.43406 13.3506 1.6074L4.96687 6.95073C2.67682 8.39145 1.09947 10.73 0.621604 13.3931C0.221681 15.6115 0.573189 17.9 1.62048 19.8961C0.902847 20.9847 0.413394 22.2075 0.181696 23.4906C-0.300786 26.2048 0.330347 28.9989 1.93261 31.2421C5.27618 36.0271 11.8784 37.4446 16.6513 34.4033L25.035 29.06C27.3252 27.6194 28.9026 25.2807 29.3803 22.6176C29.7801 20.3992 29.4289 18.1108 28.3821 16.1144C29.0996 15.0258 29.5888 13.8031 29.8203 12.5201C30.3031 9.8059 29.6719 7.0117 28.0694 4.76858" fill="#FF3E00"/>
<path d="M12.5309 31.6972C9.82771 32.4001 6.9731 31.342 5.38113 29.047C4.41711 27.6977 4.03735 26.0169 4.32763 24.3841C4.37629 24.1188 4.44325 23.8571 4.52804 23.601L4.68597 23.1194L5.11562 23.435C6.10787 24.1641 7.21731 24.7184 8.39612 25.0741L8.70781 25.1686L8.6791 25.4797C8.64101 25.9222 8.76084 26.364 9.01734 26.7266C9.49643 27.4179 10.3559 27.7369 11.17 27.5256C11.3523 27.4769 11.526 27.4005 11.6851 27.2992L20.0715 21.9549C20.4864 21.6936 20.7724 21.27 20.8595 20.7875C20.9464 20.2953 20.832 19.789 20.542 19.382C20.0626 18.6906 19.2029 18.3714 18.3885 18.5826C18.2064 18.6313 18.033 18.7076 17.874 18.8088L14.6738 20.8488C14.1476 21.1834 13.5733 21.4356 12.9709 21.5967C10.2677 22.2995 7.41318 21.2414 5.82124 18.9464C4.85717 17.5971 4.47741 15.9163 4.76773 14.2836C5.05512 12.6818 6.00406 11.2751 7.38172 10.4088L15.7674 5.06406C16.2939 4.72892 16.8685 4.47642 17.4715 4.31533C20.1746 3.61251 23.0291 4.67062 24.6211 6.96552C25.5851 8.31486 25.9649 9.99568 25.6746 11.6284C25.6257 11.8937 25.5588 12.1554 25.4742 12.4115L25.3163 12.8931L24.8868 12.578C23.8947 11.8485 22.7851 11.294 21.6061 10.9383L21.2944 10.8437L21.3231 10.5326C21.3609 10.0901 21.2411 9.64848 20.9849 9.28572C20.5058 8.59444 19.6463 8.27544 18.8322 8.48674C18.65 8.53545 18.4762 8.6118 18.3171 8.71312L9.93069 14.0576C9.51584 14.3187 9.23006 14.7423 9.14338 15.2248C9.05591 15.7169 9.17012 16.2234 9.46027 16.6304C9.93965 17.3218 10.7993 17.6409 11.6138 17.4298C11.796 17.381 11.9697 17.3047 12.1288 17.2034L15.3286 15.1642C15.8546 14.8291 16.4289 14.5767 17.0314 14.4157C19.7345 13.7129 22.5891 14.771 24.181 17.0659C25.1451 18.4153 25.5248 20.0961 25.2345 21.7288C24.947 23.3307 23.9981 24.7375 22.6205 25.6042L14.2348 30.9485C13.7084 31.2836 13.1337 31.5361 12.5308 31.6972" fill="white"/>
</g>
<defs>
<clipPath id="clip0_202_9091">
<rect width="30" height="37" fill="white"/>
</clipPath>
</defs>
</svg>
