<svg width="36" height="36" viewBox="0 0 36 36" fill="none" xmlns="http://www.w3.org/2000/svg">
<g clip-path="url(#clip0_202_14727)">
<path d="M34.5189 21.5772C36.4911 19.605 36.4911 16.3958 34.5189 14.4236C33.5635 13.4682 32.2932 12.942 30.9421 12.942C30.6213 12.942 30.3054 12.9713 29.9973 13.029C31.3399 12.1106 32.2099 10.5664 32.2099 8.84925C32.2099 6.06007 29.9407 3.79091 27.1516 3.79091C25.431 3.79091 23.8841 4.6644 22.9665 6.01148C23.2701 4.41007 22.7938 2.69854 21.5773 1.48196C20.6219 0.526564 19.3516 0.000396729 18.0005 0.000396729C16.6494 0.000396729 15.379 0.526564 14.4237 1.48196C13.2071 2.69854 12.7309 4.41014 13.0345 6.01154C12.1169 4.66447 10.5699 3.79091 8.84934 3.79091C6.06016 3.79091 3.791 6.06007 3.791 8.84925C3.791 10.5664 4.66094 12.1106 6.00351 13.0289C5.69545 12.9713 5.37971 12.942 5.05884 12.942C3.7077 12.942 2.43745 13.4682 1.48205 14.4236C0.526655 15.379 0.000488281 16.6493 0.000488281 18.0004C0.000488281 19.3515 0.526655 20.6218 1.48205 21.5772C2.43745 22.5326 3.70776 23.0587 5.05884 23.0587C5.37965 23.0587 5.69539 23.0295 6.00351 22.9718C4.66094 23.8902 3.791 25.4344 3.791 27.1515C3.791 29.9407 6.06016 32.2098 8.84934 32.2098C10.5699 32.2098 12.1169 31.3363 13.0345 29.9893C12.7309 31.5907 13.2071 33.3023 14.4237 34.5189C15.3791 35.4742 16.6494 36.0004 18.0005 36.0004C19.3516 36.0004 20.6219 35.4742 21.5773 34.5188C22.7938 33.3023 23.27 31.5906 22.9664 29.9892C23.8841 31.3363 25.431 32.2098 27.1516 32.2098C29.9407 32.2098 32.2099 29.9407 32.2099 27.1515C32.2099 25.4344 31.3399 23.8902 29.9974 22.9718C30.3055 23.0295 30.6213 23.0587 30.9421 23.0587C32.2932 23.0587 33.5635 22.5326 34.5189 21.5772Z" fill="black"/>
<path d="M32.9926 15.9489C31.8596 14.816 30.0227 14.816 28.8898 15.9489H22.9521L27.1507 11.7504C28.7529 11.7504 30.0518 10.4515 30.0518 8.84924C30.0518 7.24701 28.7529 5.94808 27.1507 5.94808C25.5484 5.94808 24.2496 7.24701 24.2496 8.84924L20.051 13.0479V7.11017C21.1839 5.9772 21.1839 4.14031 20.0509 3.00735C18.918 1.87438 17.0811 1.87438 15.9481 3.00735C14.8152 4.14031 14.8152 5.9772 15.9481 7.11017V13.0479L11.7496 8.84924C11.7496 7.24701 10.4507 5.94808 8.84841 5.94808C7.24619 5.94808 5.94726 7.24701 5.94726 8.84924C5.94726 10.4515 7.24619 11.7504 8.84841 11.7504L13.047 15.9489H7.10935C5.97632 14.816 4.13943 14.816 3.00646 15.949C1.8735 17.082 1.8735 18.9189 3.00646 20.0518C4.13943 21.1848 5.97638 21.1848 7.10935 20.0518H13.047L8.84841 24.2504C7.24619 24.2504 5.94726 25.5492 5.94726 27.1515C5.94726 28.7537 7.24619 30.0527 8.84841 30.0527C10.4507 30.0527 11.7496 28.7537 11.7496 27.1515L15.9481 22.953V28.8906C14.8152 30.0236 14.8152 31.8605 15.9481 32.9935C17.0811 34.1264 18.918 34.1264 20.051 32.9935C21.1839 31.8605 21.1839 30.0236 20.051 28.8906V22.953L24.2496 27.1515C24.2496 28.7537 25.5484 30.0527 27.1507 30.0527C28.7529 30.0527 30.0518 28.7537 30.0518 27.1515C30.0518 25.5492 28.7529 24.2504 27.1507 24.2504L22.9521 20.0518H28.8898C30.0227 21.1848 31.8596 21.1848 32.9926 20.0518C34.1256 18.9189 34.1256 17.0819 32.9926 15.9489Z" fill="#FFB13B"/>
</g>
<defs>
<clipPath id="clip0_202_14727">
<rect width="36" height="36.0004" fill="white"/>
</clipPath>
</defs>
</svg>
