<svg width="37" height="37" viewBox="0 0 37 37" fill="none" xmlns="http://www.w3.org/2000/svg">
<g clip-path="url(#clip0_202_8988)">
<path d="M17.8714 36.0018C8.27954 35.9356 -0.0606139 27.9751 0.00403548 17.8613C0.0661909 8.12974 8.15311 -0.0637513 18.1598 0.00259742C27.885 0.0672203 36.0899 8.13971 36.003 18.0295C36.0835 27.8296 27.8382 36.071 17.8714 36.0018ZM17.8714 36.0018C8.27954 35.9356 -0.0606139 27.9751 0.00403548 17.8613C0.0661909 8.12974 8.15311 -0.0637513 18.1598 0.00259742C27.885 0.0672203 36.0899 8.13971 36.003 18.0295C36.0835 27.8296 27.8382 36.071 17.8714 36.0018Z" fill="white"/>
<path d="M17.889 33.6112C9.57072 33.5538 2.33854 26.6505 2.39461 17.8801C2.44857 9.44075 9.46145 2.33541 18.1391 2.39317C26.5726 2.44922 33.6878 9.44974 33.6124 18.026C33.6823 26.5244 26.5322 33.6713 17.889 33.6112ZM17.889 33.6112C9.57072 33.5538 2.33854 26.6505 2.39461 17.8801C2.44857 9.44075 9.46145 2.33541 18.1391 2.39317C26.5726 2.44922 33.6878 9.44974 33.6124 18.026C33.6823 26.5244 26.5322 33.6713 17.889 33.6112Z" fill="#49A32B"/>
<path d="M23.8153 17.996C23.7753 18.74 23.1254 19.3577 22.4848 19.2499C22.4818 19.2499 22.4785 19.2499 22.4753 19.2499C21.7658 19.2509 21.19 18.6764 21.1892 17.9669C21.2134 17.2555 21.8033 16.6949 22.5149 16.7069C23.2244 16.7104 23.8536 17.3099 23.8153 17.996ZM12.407 25.205C12.6745 25.2129 12.9422 25.2071 13.2507 25.2071V27.1458C11.3333 27.47 9.75387 26.9256 9.36629 25.3048C9.23359 24.7089 9.15202 24.1026 9.12215 23.4927C9.08098 22.847 9.15221 22.1941 9.103 21.5495C8.96666 19.7759 8.73687 19.1704 7.03491 19.0866V16.8793C7.15689 16.8507 7.28059 16.8297 7.40506 16.8157C8.33819 16.7697 8.73151 16.4836 8.94023 15.5645C9.03521 15.0481 9.09151 14.5253 9.10817 14.0004C9.18208 12.9855 9.15585 11.9542 9.32493 10.9557C9.56927 9.51191 10.4656 8.81048 11.9462 8.73197C12.3675 8.70937 12.7901 8.72852 13.2675 8.72852V10.7101C13.071 10.724 12.891 10.7526 12.7122 10.7472C11.5056 10.7102 11.4432 11.1212 11.3551 12.12C11.3001 12.7464 11.376 13.3834 11.3333 14.0119C11.2887 14.6373 11.205 15.2595 11.0828 15.8745C10.9087 16.7659 10.3607 17.4288 9.60125 17.9914C11.0755 18.9508 11.2433 20.4415 11.339 21.9553C11.3905 22.7687 11.367 23.5879 11.4495 24.3973C11.5138 25.0256 11.7582 25.1859 12.407 25.205ZM13.6495 16.7069C13.6572 16.7069 13.6647 16.7069 13.6723 16.7069C14.3772 16.7186 14.9394 17.2994 14.9277 18.0045C14.9277 18.0276 14.927 18.0506 14.9256 18.0736C14.886 18.7626 14.2954 19.2888 13.6064 19.2491C13.5787 19.2497 13.5511 19.2491 13.5233 19.2478C12.8217 19.2129 12.2811 18.6159 12.316 17.9143C12.3508 17.2127 12.9479 16.6721 13.6495 16.7069ZM18.0421 16.7069C18.813 16.701 19.3251 17.2006 19.3291 17.9627C19.3333 18.7453 18.8479 19.2461 18.0819 19.2493C17.303 19.2528 16.7901 18.7601 16.7859 18.0025C16.7836 17.9639 16.7831 17.9252 16.7842 17.8865C16.8058 17.2134 17.369 16.6853 18.0421 16.7069ZM27.239 15.7414C27.444 16.5074 27.8433 16.7766 28.6497 16.8134C28.7818 16.8195 28.9133 16.8419 29.0945 16.862V19.0688C28.9964 19.1009 28.8959 19.1251 28.7938 19.1408C27.7133 19.208 27.2208 19.6513 27.1116 20.7347C27.0419 21.4264 27.0477 22.1257 26.9998 22.8198C26.9797 23.582 26.9104 24.342 26.7922 25.0951C26.5165 26.4597 25.6645 27.1404 24.2569 27.2235C23.8038 27.2503 23.3475 27.2277 22.859 27.2277V25.2554C23.1219 25.2391 23.354 25.2167 23.5867 25.2112C24.4277 25.1911 24.7251 24.9199 24.7663 24.0846C24.8118 23.167 24.8317 22.2482 24.8727 21.3304C24.9323 20.0038 25.2955 18.8187 26.5314 17.9912C25.8242 17.4871 25.2565 16.8764 25.1094 16.053C24.9315 15.0549 24.8741 14.0349 24.7783 13.0229C24.731 12.5169 24.7333 12.0066 24.6839 11.5011C24.6307 10.9554 24.2557 10.7665 23.759 10.7543C23.4745 10.7474 23.1888 10.7529 22.8249 10.7529V8.82695C25.1465 8.44148 26.7503 9.21395 26.8993 11.4352C26.9617 12.368 26.9525 13.3051 27.0122 14.2379C27.0385 14.7453 27.1143 15.2489 27.239 15.7414Z" fill="white"/>
</g>
<defs>
<clipPath id="clip0_202_8988">
<rect width="37" height="37" fill="white"/>
</clipPath>
</defs>
</svg>
