<svg width="37" height="32" viewBox="0 0 37 32" fill="none" xmlns="http://www.w3.org/2000/svg">
<g clip-path="url(#clip0_202_9797)">
<path d="M36.0053 1.81831V23.8568L23.569 25.1659L8.51441 23.8568V1.81831C8.51406 1.61793 8.55327 1.41946 8.62979 1.23427C8.70632 1.04908 8.81864 0.880821 8.96033 0.739135C9.10201 0.597448 9.27027 0.485124 9.45546 0.408603C9.64065 0.332083 9.83912 0.29287 10.0395 0.293215H34.4802C34.6806 0.29287 34.8791 0.332083 35.0643 0.408603C35.2494 0.485124 35.4177 0.597448 35.5594 0.739135C35.7011 0.880821 35.8134 1.04908 35.8899 1.23427C35.9664 1.41946 36.0057 1.61793 36.0053 1.81831Z" fill="#37C6D0"/>
<path d="M36.0053 14.6017V19.8315L35.5406 20.4926H20.9508L30.1472 11.2962C30.3145 11.1282 30.5134 10.9948 30.7325 10.9038C30.9515 10.8128 31.1863 10.766 31.4235 10.766C31.6607 10.766 31.8956 10.8128 32.1146 10.9038C32.3336 10.9948 32.5325 11.1282 32.6999 11.2962L36.0053 14.6017Z" fill="#1A9BA1"/>
<path d="M36.0053 19.8316V23.8571L23.5689 25.1662L8.5144 23.8571V23.7655L10.0133 22.2665L22.9471 9.33273C23.1145 9.16467 23.3134 9.03132 23.5324 8.94032C23.7515 8.84933 23.9863 8.80249 24.2235 8.80249C24.4607 8.80249 24.6955 8.84933 24.9146 8.94032C25.1336 9.03132 25.3325 9.16467 25.4999 9.33273L29.1326 12.9655L36.0053 19.8316Z" fill="#038387"/>
<path d="M31.4236 6.83865C32.5081 6.83865 33.3872 5.9595 33.3872 4.87501C33.3872 3.79053 32.5081 2.91138 31.4236 2.91138C30.3391 2.91138 29.46 3.79053 29.46 4.87501C29.46 5.9595 30.3391 6.83865 31.4236 6.83865Z" fill="#86F2F2"/>
<path d="M10.0415 31.7112H34.4783C34.8832 31.7111 35.2715 31.5501 35.5579 31.2638C35.8442 30.9774 36.0051 30.5891 36.0053 30.1842V23.8567H8.5144V30.1842C8.51458 30.5891 8.67552 30.9774 8.96186 31.2638C9.2482 31.5501 9.63651 31.7111 10.0415 31.7112Z" fill="#036C70"/>
<path opacity="0.2" d="M18.9871 8.36372V25.6044C18.9885 25.6924 18.9797 25.7803 18.9609 25.8663C18.9014 26.2203 18.718 26.5417 18.4434 26.7731C18.1689 27.0045 17.8211 27.1308 17.462 27.1295H8.5144V6.83863H17.462C17.6624 6.83828 17.8609 6.87749 18.0461 6.95401C18.2313 7.03053 18.3995 7.14286 18.5412 7.28455C18.6829 7.42623 18.7952 7.59449 18.8717 7.77968C18.9483 7.96487 18.9875 8.16334 18.9871 8.36372Z" fill="black"/>
<path opacity="0.1" d="M19.6417 8.36396V24.2956C19.6364 24.872 19.405 25.4234 18.9974 25.831C18.5898 26.2386 18.0385 26.4699 17.462 26.4752H8.5144V6.18433H17.462C18.0395 6.1864 18.5927 6.4167 19.001 6.82501C19.4093 7.23333 19.6396 7.78652 19.6417 8.36396Z" fill="black"/>
<path opacity="0.2" d="M18.9871 8.36372V24.2953C18.9875 24.4957 18.9483 24.6942 18.8717 24.8794C18.7952 25.0646 18.6829 25.2328 18.5412 25.3745C18.3995 25.5162 18.2313 25.6285 18.0461 25.7051C17.8609 25.7816 17.6624 25.8208 17.462 25.8204H8.5144V6.83863H17.462C17.6624 6.83828 17.8609 6.87749 18.0461 6.95401C18.2313 7.03053 18.3995 7.14286 18.5412 7.28455C18.6829 7.42623 18.7952 7.59449 18.8717 7.77968C18.9483 7.96487 18.9875 8.16334 18.9871 8.36372Z" fill="black"/>
<path opacity="0.1" d="M18.3326 8.36372V24.2953C18.3329 24.4957 18.2937 24.6942 18.2172 24.8794C18.1407 25.0646 18.0284 25.2328 17.8867 25.3745C17.745 25.5162 17.5767 25.6285 17.3915 25.7051C17.2063 25.7816 17.0079 25.8208 16.8075 25.8204H8.5144V6.83863H16.8075C17.0079 6.83828 17.2063 6.87749 17.3915 6.95401C17.5767 7.03053 17.745 7.14286 17.8867 7.28455C18.0284 7.42623 18.1407 7.59449 18.2172 7.77968C18.2937 7.96487 18.3329 8.16334 18.3326 8.36372Z" fill="black"/>
<path d="M16.8056 6.83862H1.53243C0.689057 6.83862 0.00537109 7.52231 0.00537109 8.36568V23.6388C0.00537109 24.4822 0.689057 25.1659 1.53243 25.1659H16.8056C17.649 25.1659 18.3326 24.4822 18.3326 23.6388V8.36568C18.3326 7.52231 17.649 6.83862 16.8056 6.83862Z" fill="url(#paint0_linear_202_9797)"/>
<path d="M6.69425 15.8159C6.33596 15.578 6.03702 15.2612 5.82043 14.8897C5.60963 14.5022 5.50466 14.066 5.51607 13.6251C5.4975 13.0286 5.69903 12.4462 6.08225 11.9887C6.48467 11.5297 7.00544 11.1901 7.58771 11.0069C8.2506 10.7883 8.94502 10.6806 9.64298 10.6881C10.5609 10.6544 11.4776 10.7829 12.3508 11.0678V12.9804C11.9713 12.7498 11.5578 12.5806 11.1255 12.479C10.657 12.3633 10.176 12.3055 9.69338 12.3068C9.18458 12.2886 8.67908 12.3956 8.22131 12.6184C8.04842 12.6929 7.90105 12.8163 7.79733 12.9734C7.6936 13.1305 7.63803 13.3144 7.63745 13.5027C7.63523 13.7359 7.72398 13.9609 7.88487 14.1297C8.07594 14.3277 8.30153 14.4892 8.55054 14.6063C8.82982 14.7441 9.24654 14.9279 9.80073 15.1574C9.86224 15.1768 9.92219 15.2009 9.98007 15.2294C10.5264 15.443 11.0535 15.7029 11.5556 16.0063C11.9358 16.241 12.255 16.5624 12.487 16.9443C12.7253 17.3768 12.8416 17.8659 12.8234 18.3594C12.8498 18.9711 12.6624 19.5728 12.2932 20.0612C11.9239 20.5139 11.4291 20.8475 10.8709 21.0201C10.2177 21.2249 9.53605 21.3239 8.85163 21.3134C8.23752 21.3164 7.6243 21.266 7.01891 21.1628C6.50763 21.0814 6.00836 20.9372 5.53244 20.7334V18.7135C5.98859 19.0383 6.49811 19.2806 7.03789 19.4296C7.57389 19.5968 8.13116 19.6861 8.69258 19.6947C9.21241 19.7279 9.73139 19.6177 10.1928 19.3759C10.3504 19.2857 10.4805 19.1546 10.5695 18.9963C10.6585 18.8381 10.7029 18.6587 10.6981 18.4772C10.6991 18.3495 10.6745 18.2229 10.626 18.1048C10.5774 17.9867 10.5058 17.8794 10.4153 17.7893C10.1871 17.5658 9.9232 17.382 9.63447 17.2454C9.30283 17.0778 8.81214 16.8581 8.1624 16.5862C7.64875 16.3786 7.15696 16.1206 6.69425 15.8159Z" fill="white"/>
</g>
<defs>
<linearGradient id="paint0_linear_202_9797" x1="3.18973" y1="5.64539" x2="15.1483" y2="26.3591" gradientUnits="userSpaceOnUse">
<stop stop-color="#058F92"/>
<stop offset="0.5" stop-color="#038489"/>
<stop offset="1" stop-color="#026D71"/>
</linearGradient>
<clipPath id="clip0_202_9797">
<rect width="37" height="32" fill="white"/>
</clipPath>
</defs>
</svg>
