<svg width="38" height="36" viewBox="0 0 38 36" fill="none" xmlns="http://www.w3.org/2000/svg">
<g clip-path="url(#clip0_202_14733)">
<path d="M8.99479 0.000396729C9.20572 0.000396729 28.5838 0.000396729 28.9354 0.000396729C29.9057 0.000396729 30.8479 0.155084 31.762 0.478522C33.0838 0.956647 34.2792 1.8004 35.1792 2.89727C36.0932 3.99415 36.6979 5.34415 36.9088 6.7504C36.9932 7.27071 37.0073 7.79102 37.0073 8.31133C37.0073 8.78946 37.0073 25.6363 37.0073 26.3957C37.0073 26.8457 37.0073 27.3098 37.0073 27.7598C37.0073 28.3785 36.9792 29.0113 36.8526 29.616C36.5714 31.0082 35.9104 32.316 34.9542 33.3707C34.012 34.4254 32.7745 35.2129 31.4385 35.6348C30.6229 35.8879 29.7792 36.0004 28.9213 36.0004C28.5417 36.0004 8.93854 36.0004 8.64322 35.9863C7.20885 35.916 5.78854 35.452 4.59322 34.6504C3.42604 33.8629 2.46979 32.766 1.85104 31.5004C1.31666 30.4176 1.04947 29.2082 1.04947 27.9988C1.04947 27.7176 1.04947 8.28321 1.04947 8.00196C1.02135 6.80665 1.27447 5.6254 1.79479 4.55665C2.39947 3.29102 3.34166 2.18008 4.50885 1.39258C5.70416 0.576959 7.11041 0.0988342 8.54479 0.0285217C8.68541 0.000396729 8.8401 0.000396729 8.99479 0.000396729Z" fill="url(#paint0_linear_202_14733)"/>
<path d="M31.3682 29.4473C31.2416 29.2504 31.101 29.0535 30.9463 28.8707C30.5947 28.4488 30.1869 28.0832 29.7369 27.7738C29.1744 27.3941 28.5135 27.1551 27.8385 27.127C27.3604 27.0988 26.8822 27.1832 26.4322 27.352C25.9822 27.5066 25.5463 27.7316 25.1244 27.9566C24.6322 28.2098 24.14 28.4629 23.6197 28.6738C23.001 28.927 22.3541 29.1238 21.6932 29.2645C20.8635 29.4191 20.0197 29.4754 19.19 29.4613C17.6854 29.4332 16.1807 29.2082 14.7463 28.7863C13.4807 28.4066 12.2713 27.8863 11.1322 27.2254C10.1338 26.6488 9.20566 25.9879 8.33379 25.2426C7.6166 24.6238 6.95566 23.9629 6.33691 23.2598C5.91504 22.7676 5.50723 22.2473 5.12754 21.7129C4.97285 21.502 4.83223 21.277 4.70566 21.052L0.993164 17.0441V7.97383C0.993164 3.57227 4.55098 0.000396729 8.95254 0.000396729H16.0541L21.3135 5.34415C33.1822 13.416 29.3432 22.3176 29.3432 22.3176C29.3432 22.3176 32.7182 26.1145 31.3682 29.4473Z" fill="url(#paint1_linear_202_14733)"/>
<path d="M21.3415 5.34415C33.2103 13.416 29.3712 22.3176 29.3712 22.3176C29.3712 22.3176 32.7462 26.1285 31.3821 29.4613C31.3821 29.4613 29.9899 27.127 27.6556 27.127C25.4056 27.127 24.0837 29.4613 19.5556 29.4613C9.47275 29.4613 4.70557 21.0379 4.70557 21.0379C13.7899 27.0145 19.9915 22.7816 19.9915 22.7816C15.8993 20.4051 7.19463 9.04258 7.19463 9.04258C14.7743 15.4973 18.0509 17.1988 18.0509 17.1988C16.0962 15.5816 10.6118 7.67852 10.6118 7.67852C14.9993 12.1223 23.7181 18.3238 23.7181 18.3238C26.1931 11.4613 21.3415 5.34415 21.3415 5.34415Z" fill="white"/>
</g>
<defs>
<linearGradient id="paint0_linear_202_14733" x1="22.409" y1="-1.28418" x2="15.6074" y2="37.2894" gradientUnits="userSpaceOnUse">
<stop stop-color="#FAAE42"/>
<stop offset="1" stop-color="#EF3E31"/>
</linearGradient>
<linearGradient id="paint1_linear_202_14733" x1="19.3604" y1="0.582064" x2="14.3825" y2="28.8134" gradientUnits="userSpaceOnUse">
<stop stop-color="#E39F3A"/>
<stop offset="1" stop-color="#D33929"/>
</linearGradient>
<clipPath id="clip0_202_14733">
<rect width="38" height="36.0004" fill="white"/>
</clipPath>
</defs>
</svg>
