<svg width="34" height="41" viewBox="0 0 34 41" fill="none" xmlns="http://www.w3.org/2000/svg">
<g clip-path="url(#clip0_202_14437)">
<path d="M32.4344 7.92294C31.8802 6.02443 31.0033 4.48477 29.8166 3.3074C28.6287 2.12646 27.1186 1.28176 25.2827 0.770746C23.4457 0.258712 21.2488 0.00244141 18.6912 0.00244141C15.6275 0.00244141 12.9668 0.480534 10.7172 1.4371C8.46196 2.39456 6.59472 3.88858 5.11544 5.91994C3.63413 7.95269 2.53265 10.5554 1.81265 13.7292C1.08871 16.903 0.72998 20.7154 0.72998 25.1634C0.72998 27.7447 0.963243 29.965 1.42964 31.8267C1.89617 33.6877 2.68392 35.2275 3.79201 36.4433C4.89451 37.659 6.3682 38.5571 8.20468 39.1352C10.0412 39.7134 12.3318 40.0024 15.0684 40.0024C16.8972 40.0024 18.6147 39.8405 20.2292 39.5124C21.8423 39.1865 23.3181 38.639 24.6574 37.8681C25.995 37.0952 27.2042 36.0844 28.2832 34.8297C29.3564 33.577 30.258 32.0214 30.9879 30.1577C31.7193 28.2961 32.2832 26.1137 32.6798 23.6073C33.0755 21.1008 33.2723 18.2152 33.2723 14.9512C33.2723 12.1639 32.9914 9.82158 32.4344 7.92294Z" fill="#F55341"/>
<path d="M25.2362 17.8865H21.1429L15.9318 21.9577L10.7334 34.57L25.2362 17.8865ZM8.75732 21.9529H15.9039L15.9318 21.9577L22.3477 6.31885L8.75732 21.9529Z" fill="white"/>
</g>
<defs>
<clipPath id="clip0_202_14437">
<rect width="34" height="41" fill="white"/>
</clipPath>
</defs>
</svg>
