<svg width="36" height="34" viewBox="0 0 36 34" fill="none" xmlns="http://www.w3.org/2000/svg">
<g clip-path="url(#clip0_202_14731)">
<path d="M27.1744 30.8495C22.9307 33.2904 17.0957 33.5412 11.2253 31.036C6.47212 29.0224 2.52821 25.4977 0 21.4705C1.21355 22.4773 2.62933 23.2831 4.14622 23.9875C10.2087 26.8168 16.2699 26.6231 20.5354 23.9947C14.4677 19.3627 9.30376 13.3138 5.46107 8.38027C4.6517 7.57465 4.04493 6.56767 3.43815 5.66146C8.09003 9.89056 15.4727 15.227 18.1015 16.7381C12.5402 10.8974 7.58455 3.64786 7.78642 3.84886C16.5848 12.71 24.7767 17.7449 24.7767 17.7449C25.0476 17.897 25.2568 18.0237 25.425 18.1369C25.6023 17.6878 25.7578 17.2216 25.8887 16.7381C27.3045 11.6027 25.6869 5.76196 22.147 0.928955C30.3379 5.86291 35.1927 15.1265 33.1695 22.8803C33.1168 23.0894 33.0595 23.2959 32.9976 23.4987C37.0422 28.5336 36.0011 33.9569 35.4955 32.9501C33.3013 28.6748 29.2394 29.9821 27.1744 30.8495Z" fill="url(#paint0_linear_202_14731)"/>
</g>
<defs>
<linearGradient id="paint0_linear_202_14731" x1="18.0132" y1="0.928955" x2="18.0132" y2="33.0735" gradientUnits="userSpaceOnUse">
<stop stop-color="#F88A36"/>
<stop offset="1" stop-color="#FD2020"/>
</linearGradient>
<clipPath id="clip0_202_14731">
<rect width="36" height="34" fill="white"/>
</clipPath>
</defs>
</svg>
