<svg width="36" height="36" viewBox="0 0 36 36" fill="none" xmlns="http://www.w3.org/2000/svg">
<g clip-path="url(#clip0_202_14607)">
<path d="M34.3177 0.000396729V1.10809H35.4254V0.000396729H34.3177ZM34.3177 2.21578V3.32347H35.4254V2.21578H34.3177ZM30.9946 3.32347V4.43117H32.1023V3.32347H30.9946ZM16.5016 4.1535C7.70649 4.1535 0.578857 11.2811 0.578857 20.0762C0.578857 28.8713 7.70649 36.0004 16.5016 36.0004C25.2966 36.0004 32.4243 28.8728 32.4243 20.0762C32.4243 11.2797 25.2966 4.1535 16.503 4.1535H16.5016ZM16.5016 9.23117C22.4861 9.23117 27.3481 14.0917 27.3481 20.0762C27.3481 26.0607 22.4861 30.9227 16.5016 30.9227C10.5171 30.9227 5.7023 26.0607 5.7023 20.0762C5.7023 14.0917 10.5171 9.23117 16.5016 9.23117Z" fill="#FDB511"/>
<path d="M33.2101 2.21579V1.10809H34.3178V2.21579H33.2101Z" fill="black"/>
<path d="M30.9947 3.32348H33.2101V2.21579H30.9947V3.32348Z" fill="black"/>
<path fill-rule="evenodd" clip-rule="evenodd" d="M30.9947 5.53886V3.32348H29.887V5.53886H28.7793V4.43117H27.6716V5.53886H28.7793V6.64655H26.5639V7.75425H25.4562V8.86194H24.3485V9.96963H23.2408V11.0773H22.1331V12.1843L21.0254 12.185C18.1336 15.7976 17.4055 17.3838 16.2535 20.3066C14.9464 17.6629 13.3868 15.8389 10.6855 14.6308C10.6762 14.6284 10.6669 14.626 10.6578 14.6237C10.1653 14.4968 9.9171 14.4329 9.57781 14.907C9.23221 15.3899 9.44341 15.8256 9.85548 16.3381C10.143 16.6956 10.4401 17.0457 10.7371 17.3958C11.5567 18.362 12.376 19.3277 12.9939 20.4454C13.6086 21.5562 14.3163 23.1138 14.8631 24.317C15.1953 25.0481 15.468 25.6484 15.6243 25.9381C15.9537 26.5466 16.7512 26.8154 17.057 26.8154C18.5334 26.6405 18.6753 25.9444 18.9191 24.7488C18.945 24.6217 18.9721 24.4889 19.0021 24.3504C19.5072 21.9888 20.1614 19.5475 23.2408 16.6143V15.5081H24.3485V14.4004H25.4562V13.2927H26.5639V12.185H27.6716V11.0773H28.7793V9.96963H29.887V8.86194H30.9947V6.64655H32.1024V5.53886H33.2101V4.43117H32.1024V5.53886H30.9947ZM30.9947 5.53886H29.887V6.64655H28.7793V7.75425H29.887V6.64655H30.9947V5.53886ZM26.5639 12.185V11.0773H25.4562V12.185H26.5639ZM25.4562 8.86194V9.96963H26.5639V8.86194H25.4562Z" fill="black"/>
</g>
<defs>
<clipPath id="clip0_202_14607">
<rect width="36" height="36.0004" fill="white"/>
</clipPath>
</defs>
</svg>
