<svg width="37" height="37" viewBox="0 0 37 37" fill="none" xmlns="http://www.w3.org/2000/svg">
<g clip-path="url(#clip0_202_14848)">
<path d="M18.0022 36.0022C27.9433 36.0022 36.0022 27.9433 36.0022 18.0022C36.0022 8.06107 27.9433 0.00219727 18.0022 0.00219727C8.06107 0.00219727 0.00219727 8.06107 0.00219727 18.0022C0.00219727 27.9433 8.06107 36.0022 18.0022 36.0022Z" fill="#1A171B"/>
<path d="M25.8358 6.65331C24.0098 6.717 22.4158 7.72334 21.2295 9.11571C19.9158 10.6421 19.0418 12.4526 18.4121 14.3008C17.2855 13.3776 16.4166 12.1824 14.6094 11.6612C13.2126 11.2602 11.7454 11.4258 10.3963 12.431C9.75712 12.9085 9.31681 13.6301 9.10745 14.3086C8.56524 16.0715 9.67736 17.6405 10.1825 18.2038L11.2868 19.3873C11.5145 19.6194 12.0628 20.2248 11.7947 21.0926C11.5051 22.0364 10.3675 22.6473 9.2005 22.2873C8.67933 22.1283 7.93053 21.7401 8.09835 21.1934C8.16758 20.9697 8.32764 20.8024 8.41349 20.6091C8.49213 20.443 8.52979 20.3184 8.55361 20.2453C8.76684 19.5491 8.47552 18.6435 7.73004 18.4137C7.03441 18.2005 6.32272 18.3694 6.0469 19.2649C5.73398 20.2824 6.22081 22.1289 8.82887 22.9331C11.8844 23.8718 14.4692 22.2081 14.8359 20.0381C15.0668 18.679 14.4532 17.6693 13.3289 16.3705L12.4128 15.3576C11.8579 14.8032 11.6673 13.8583 12.2417 13.1322C12.7263 12.5197 13.4164 12.2582 14.5468 12.5656C16.1967 13.0137 16.9322 14.1585 18.1595 15.0817C17.6527 16.7438 17.3215 18.412 17.0219 19.908L16.8391 21.0234C15.9619 25.6248 15.2923 28.1514 13.5521 29.6019C13.2015 29.8512 12.7003 30.2244 11.9448 30.2505C11.5488 30.2627 11.4209 29.9902 11.4153 29.8717C11.4059 29.5936 11.6402 29.4662 11.7958 29.3411C12.0284 29.2142 12.3801 29.0038 12.3563 28.3297C12.3308 27.5333 11.6712 26.8427 10.7175 26.8742C10.003 26.8986 8.91416 27.571 8.95515 28.8016C8.99779 30.0727 10.1825 31.0253 11.9686 30.9649C12.9235 30.9323 15.0558 30.5435 17.1571 28.0456C19.6028 25.1822 20.2868 21.8996 20.8014 19.497L21.3757 16.3251C21.6947 16.3633 22.0359 16.3888 22.407 16.3977C25.4531 16.4619 26.9767 14.884 26.9995 13.7365C27.0144 13.0419 26.5436 12.3585 25.8846 12.374C25.4127 12.3873 24.8201 12.7013 24.6777 13.3537C24.5387 13.994 25.647 14.5717 24.7807 15.1327C24.1654 15.5309 23.0622 15.8117 21.5086 15.5835L21.7911 14.0222C22.3676 11.0614 23.0788 7.41928 25.7766 7.33067C25.9732 7.3207 26.6926 7.33953 26.7092 7.81528C26.7142 7.97424 26.6749 8.01467 26.4888 8.37854C26.2994 8.66211 26.2279 8.90359 26.2368 9.18107C26.2628 9.93707 26.8377 10.4339 27.6691 10.404C28.7823 10.368 29.1024 9.28408 29.0841 8.72747C29.0393 7.41984 27.6607 6.5935 25.8358 6.65331Z" fill="white"/>
</g>
<defs>
<clipPath id="clip0_202_14848">
<rect width="37" height="37" fill="white"/>
</clipPath>
</defs>
</svg>
