<svg width="30" height="37" viewBox="0 0 30 37" fill="none" xmlns="http://www.w3.org/2000/svg">
<g clip-path="url(#clip0_202_15543)">
<path d="M23.0513 11.2207C23.4737 11.2217 23.8632 11.4493 24.0716 11.8168L28.117 18.8235C31.0007 23.8181 29.42 30.7366 24.4404 34.9162C24.3352 35.0045 24.2153 35.0737 24.0862 35.1207C22.4847 35.7046 20.7935 36.0041 19.0889 36.0056C14.6038 36.0056 10.4176 33.9069 8.31129 30.2585L3.497 21.92C3.34099 21.6499 3.2987 21.3288 3.37944 21.0274C3.46018 20.726 3.65733 20.4691 3.92752 20.3131L7.20674 18.4198C7.57088 18.2069 8.02113 18.2053 8.3868 18.4155C8.75248 18.6258 8.97761 19.0157 8.97687 19.4375C8.97613 19.8593 8.74962 20.2484 8.38321 20.4574L6.12278 21.7624L10.3488 29.082C12.6397 33.05 18.0865 34.7045 23.0858 32.9791C27.0795 29.5125 28.3702 23.9679 26.0795 19.9999L22.0341 12.9933C21.82 12.629 21.8176 12.178 22.0279 11.8116C22.2382 11.4451 22.6288 11.2196 23.0513 11.2207ZM10.6897 22.2009C10.7034 22.2256 11.447 23.5499 12.1556 24.8036L12.2219 24.9209C12.5969 25.5838 12.9552 26.2147 13.1823 26.6081C14.8391 29.4778 17.8733 30.574 21.2992 29.5385C21.9212 29.3506 22.5777 29.7026 22.7656 30.3246C22.9534 30.9466 22.6015 31.6031 21.9795 31.7909C20.9602 32.1052 19.9003 32.2678 18.8337 32.2738C15.6391 32.3093 12.6841 30.5841 11.1446 27.7846C10.9145 27.3859 10.5608 26.7635 10.1907 26.1093L10.1253 25.9936L10.0596 25.8774L9.99386 25.7611C9.97194 25.7223 9.95004 25.6835 9.92817 25.6448L9.86266 25.5287C9.25254 24.4479 8.6835 23.4343 8.63428 23.3459C8.3181 22.7783 8.52191 22.0619 9.08951 21.7457C9.65711 21.4295 10.3736 21.6333 10.6897 22.2009ZM2.64099 0.586046L16.5401 24.66C16.9192 25.3164 17.9939 26.4428 19.3459 26.0065C19.9644 25.8072 20.6273 26.1469 20.8266 26.7654C21.0259 27.3838 20.6861 28.0467 20.0677 28.246C19.6375 28.3862 19.188 28.4581 18.7355 28.4591C16.8774 28.4591 15.3024 27.2219 14.5025 25.8365L0.603467 1.76252C0.28475 1.20045 0.479003 0.48653 1.03857 0.163437C1.59813 -0.159655 2.31354 0.0290218 2.64099 0.586046ZM12.8444 7.51614L16.1565 13.2528L18.263 12.0365C18.8252 11.7168 19.54 11.9108 19.8634 12.4708C20.1868 13.0309 19.9975 13.747 19.4395 14.074L16.314 15.8786C16.1471 15.975 15.9592 16.0288 15.767 16.0356L15.7257 16.0362L15.6888 16.0357C15.2828 16.023 14.911 15.8013 14.707 15.4481L10.8069 8.69261C10.4882 8.13054 10.6824 7.41662 11.242 7.09353C11.8016 6.77044 12.517 6.95911 12.8444 7.51614Z" fill="#00ABC7"/>
</g>
<defs>
<clipPath id="clip0_202_15543">
<rect width="30" height="37" fill="white"/>
</clipPath>
</defs>
</svg>
