<svg width="36" height="37" viewBox="0 0 36 37" fill="none" xmlns="http://www.w3.org/2000/svg">
<g clip-path="url(#clip0_202_15723)">
<path d="M29.5716 17.8129C29.5716 24.3065 24.3075 29.5706 17.8139 29.5706C11.3202 29.5706 6.05615 24.3065 6.05615 17.8129C6.05615 11.3192 11.3202 6.05518 17.8139 6.05518C24.3075 6.05518 29.5716 11.3192 29.5716 17.8129Z" fill="#4D37B9"/>
<path d="M11.1897 12.3608L16.4205 9.34076C17.2898 8.83889 18.3609 8.83889 19.2304 9.34076L24.4612 12.3608C25.3306 12.8627 25.866 13.7903 25.866 14.7942V20.8343C25.866 21.8381 25.3306 22.7657 24.4612 23.2676L19.2304 26.2876C18.3609 26.7897 17.2898 26.7897 16.4205 26.2876L11.1897 23.2676C10.3202 22.7657 9.78467 21.8381 9.78467 20.8343V14.7942C9.78467 13.7903 10.3202 12.8627 11.1897 12.3608Z" fill="white"/>
<path d="M17.7956 13.984C19.1182 13.9842 20.4408 13.98 21.7634 13.9856C22.5765 13.9891 22.8254 14.2495 22.8267 15.0685C22.8269 15.2732 22.8288 15.4778 22.8262 15.6825C22.8184 16.3365 22.5369 16.6253 21.8705 16.6371C21.2725 16.6477 20.674 16.6334 20.0757 16.6411C19.3716 16.6503 19.1109 16.9121 19.1085 17.6173C19.1037 19.0028 19.1098 20.0951 19.1085 21.4806C19.1085 22.8096 18.8706 22.9331 17.9746 22.9356C16.6438 22.9394 16.5204 22.8168 16.5204 21.4806C16.5204 20.2052 16.5239 18.9299 16.5204 17.6546C16.5183 16.8938 16.2667 16.6465 15.4956 16.6404C14.9131 16.6358 14.3302 16.6486 13.7478 16.6369C13.0861 16.6237 12.809 16.333 12.8021 15.6725C12.7999 15.4521 12.801 15.2316 12.8018 15.0112C12.8051 14.2628 13.0676 13.9922 13.8279 13.9861C14.8354 13.9781 15.8432 13.984 16.8509 13.984C17.1658 13.9839 17.4807 13.984 17.7956 13.984Z" fill="#4D37B9"/>
<path d="M20.267 18.6291C20.267 18.3099 20.5211 18.2862 20.5211 18.2862H21.4136C21.9396 18.2862 22.3593 18.7886 22.3593 19.2793C22.3593 19.6453 22.1881 19.8862 22.1013 19.9849C22.0746 20.0153 22.0741 20.0594 22.0994 20.091C22.1881 20.2021 22.3711 20.4701 22.3711 20.7923C22.3711 21.2178 22.0756 21.7793 21.4313 21.7793H20.5211C20.5211 21.7793 20.2788 21.8444 20.2788 21.5074C20.2788 21.1706 20.5211 21.206 20.5211 21.206H21.4136C21.6677 21.206 21.7033 21.0228 21.7033 20.7864C21.7033 20.5499 21.5969 20.3608 21.4136 20.3608H20.5211C20.5211 20.3608 20.2729 20.3785 20.2729 20.0535C20.2729 19.7283 20.5211 19.7165 20.5211 19.7165H21.4136C21.6205 19.7165 21.7033 19.4919 21.7033 19.3147C21.7033 19.1374 21.6205 18.9541 21.4136 18.9541H20.5211C20.5211 18.9541 20.267 18.9482 20.267 18.6291Z" fill="#4D37B9"/>
<path d="M31.0419 6.01605C31.0419 6.63633 30.5392 7.13904 29.9189 7.13904C29.2987 7.13904 28.7959 6.63633 28.7959 6.01605C28.7959 5.39592 29.2987 4.89307 29.9189 4.89307C30.5392 4.89307 31.0419 5.39592 31.0419 6.01605Z" fill="#B300E3"/>
<path d="M35.9799 17.9106C35.9799 18.5307 35.4771 19.0336 34.8569 19.0336C34.2367 19.0336 33.7339 18.5307 33.7339 17.9106C33.7339 17.2903 34.2367 16.7876 34.8569 16.7876C35.4771 16.7876 35.9799 17.2903 35.9799 17.9106Z" fill="#4E00BF"/>
<path d="M31.08 29.8559C31.08 30.4762 30.5772 30.9789 29.957 30.9789C29.3368 30.9789 28.834 30.4762 28.834 29.8559C28.834 29.2358 29.3368 28.7329 29.957 28.7329C30.5772 28.7329 31.08 29.2358 31.08 29.8559Z" fill="#0EBBF0"/>
<path d="M19.1766 34.8823C19.1766 35.5024 18.6739 36.0051 18.0536 36.0051C17.4335 36.0051 16.9307 35.5024 16.9307 34.8823C16.9307 34.262 17.4335 33.7593 18.0536 33.7593C18.6739 33.7593 19.1766 34.262 19.1766 34.8823Z" fill="#93E477"/>
<path d="M7.21019 29.8559C7.21019 30.4762 6.70748 30.9789 6.0872 30.9789C5.46707 30.9789 4.96436 30.4762 4.96436 29.8559C4.96436 29.2358 5.46707 28.7329 6.0872 28.7329C6.70748 28.7329 7.21019 29.2358 7.21019 29.8559Z" fill="#DDE6EC"/>
<path d="M2.26794 17.9321C2.26794 18.5522 1.76509 19.0551 1.14496 19.0551C0.524682 19.0551 0.0219727 18.5522 0.0219727 17.9321C0.0219727 17.3118 0.524682 16.8091 1.14496 16.8091C1.76509 16.8091 2.26794 17.3118 2.26794 17.9321Z" fill="#FE4545"/>
<path d="M7.18933 6.02875C7.18933 6.64888 6.68648 7.15173 6.06634 7.15173C5.44607 7.15173 4.94336 6.64888 4.94336 6.02875C4.94336 5.40861 5.44607 4.90576 6.06634 4.90576C6.68648 4.90576 7.18933 5.40861 7.18933 6.02875Z" fill="#FEB900"/>
<path d="M19.1766 1.12836C19.1766 1.74849 18.6739 2.25134 18.0536 2.25134C17.4335 2.25134 16.9307 1.74849 16.9307 1.12836C16.9307 0.508081 17.4335 0.00537109 18.0536 0.00537109C18.6739 0.00537109 19.1766 0.508081 19.1766 1.12836Z" fill="#47E8E2"/>
</g>
<defs>
<clipPath id="clip0_202_15723">
<rect width="36" height="37" fill="white"/>
</clipPath>
</defs>
</svg>
