<svg width="33" height="32" viewBox="0 0 33 32" fill="none" xmlns="http://www.w3.org/2000/svg">
<g clip-path="url(#clip0_202_8519)">
<path d="M15.4932 1.77668V3.23177H12.8906V4.17816H15.4932V7.0765H16.5106V4.17816H19.1782V3.23177H16.5106V0.327515H15.4932V1.77668Z" fill="#7099A6"/>
<path d="M6.98747 5.46785V7.57949H3.0481V8.90444H6.98747V13.1928H8.44847V8.90444H12.447V7.57949H8.44847V3.3562H6.98747V5.46785Z" fill="#EB912C"/>
<path d="M23.4963 5.46785V7.57949H19.5569V8.96951H23.4963V13.1928H25.0164V8.96951H28.9558V7.57949H25.0164V3.3562H23.4963V5.46785Z" fill="#59879B"/>
<path d="M15.1142 12.6601V15.026H10.7312V16.7887H15.1142V21.5207H16.8887V16.7887H21.2717V15.026H16.8887V10.2941H15.1142V12.6601Z" fill="#E8762C"/>
<path d="M28.0031 13.8548V15.3395H25.3354V16.5402H28.0031V19.5036H29.334V16.5402H32.0016V15.3395H29.334V12.3761H28.0031V13.8548Z" fill="#5B6591"/>
<path d="M2.6043 13.9854V15.405H0.00170898V16.4105H2.6043V19.2497H3.62167V16.4105L6.28932 16.3159V15.405H3.62167V12.5658H2.6043V13.9854Z" fill="#7099A6"/>
<path d="M6.98747 20.6691V22.7808H3.0481V24.1708H6.98747V28.3941H8.50762V24.1708H12.447V22.7808H8.50762V18.5575H6.98747V20.6691Z" fill="#C72035"/>
<path d="M23.4963 20.6691V22.7808H19.5569V24.1057H23.4963V28.3941H25.0164V24.1057H28.9558V22.7808H25.0164V18.5575H23.4963V20.6691Z" fill="#1F447E"/>
<path d="M15.3691 26.034V27.5127H12.7014V28.7135H15.3691V31.6769H16.6999V28.7135H19.3676V27.5127H16.6999V24.5493H15.3691V26.034Z" fill="#5B6591"/>
</g>
<defs>
<clipPath id="clip0_202_8519">
<rect width="33" height="32" fill="white"/>
</clipPath>
</defs>
</svg>
