<svg width="40" height="26" viewBox="0 0 40 26" fill="none" xmlns="http://www.w3.org/2000/svg">
<g clip-path="url(#clip0_202_11556)">
<path d="M15.1365 2.18115H37.7911V23.8953H15.1365V2.18115Z" fill="white"/>
<path d="M24.9818 15.2952C24.1905 15.2952 23.6182 15.8903 23.6182 16.714C23.6182 17.5133 24.1986 18.1165 24.9672 18.1165C25.7584 18.1165 26.3308 17.5279 26.3308 16.7059C26.3065 15.8757 25.7584 15.2952 24.9818 15.2952ZM24.9818 7.88044C24.1905 7.88044 23.6182 8.4755 23.6182 9.29919C23.6182 10.0986 24.1986 10.7017 24.9672 10.7017C25.7584 10.7017 26.3308 10.1131 26.3308 9.29108C26.3065 8.46091 25.7584 7.88044 24.9818 7.88044ZM29.3953 5.74826C29.3321 5.67043 29.238 5.62341 29.1359 5.62341H27.9603C27.8355 5.62341 27.7252 5.69476 27.6701 5.80339C27.615 5.91365 27.6231 6.04661 27.6944 6.14876C29.1213 8.10906 29.8104 10.3353 29.8104 12.9766C29.8104 15.6179 29.1213 17.8668 27.6944 19.8579C27.6231 19.9601 27.6166 20.093 27.6701 20.2033C27.7252 20.3135 27.842 20.3833 27.9603 20.3833H29.1359C29.238 20.3833 29.3402 20.3362 29.4018 20.2503C30.9713 18.1652 31.7318 15.7979 31.7318 12.9993C31.7318 10.1699 30.9486 7.73938 29.3953 5.74826Z" fill="#4584F0"/>
<path d="M39.9944 23.3862V7.7556L36.4354 4.19495C36.7483 4.61003 36.9445 5.12727 36.9445 5.68504V20.3054C36.9445 21.661 35.8306 22.7749 34.4751 22.7749H19.8012C19.2596 22.7749 18.7586 22.5949 18.3435 22.2966L21.9025 25.8556H37.525C38.8805 25.8556 39.9944 24.7498 39.9944 23.3862Z" fill="#3969BB"/>
<path d="M37.5169 0.142975H14.6029C13.2474 0.142975 12.1027 0.0246105 10.3078 1.81304L1.59099 10.0126C-0.524972 12.1286 -0.53308 13.87 1.59099 15.994L10.3078 24.1936C12.0087 25.8945 13.2393 25.8637 14.6029 25.8637H21.901L18.342 22.3046C18.1377 22.1555 17.9577 21.9755 17.8085 21.7712C17.5102 21.3642 17.3302 20.8616 17.3302 20.3135V5.69312C17.3302 4.33761 18.4441 3.22369 19.7996 3.22369H34.4735C35.0297 3.22369 35.5469 3.41177 35.9636 3.73281C36.1436 3.86577 36.3009 4.03116 36.4419 4.21114L40.001 7.77017V2.62862C39.9945 1.2569 38.8806 0.142975 37.5169 0.142975ZM8.75608 16.1351C7.02439 16.1351 5.62024 14.7326 5.62024 12.9993C5.62024 11.266 7.02277 9.86343 8.75608 9.86343C10.4894 9.86343 11.8919 11.266 11.8919 12.9993C11.8919 14.7326 10.4797 16.1351 8.75608 16.1351Z" fill="#4584F0"/>
</g>
<defs>
<clipPath id="clip0_202_11556">
<rect width="40.001" height="26" fill="white"/>
</clipPath>
</defs>
</svg>
