<svg width="36" height="37" viewBox="0 0 36 37" fill="none" xmlns="http://www.w3.org/2000/svg">
<g clip-path="url(#clip0_202_11731)">
<path opacity="0.8" d="M31.5986 6.12611L29.91 18.0112L18.0249 16.3226L19.7135 4.4375L31.5986 6.12611Z" fill="#A295AE"/>
<path opacity="0.8" d="M4.44092 29.8929L6.12953 18.0078L18.0146 19.6964L16.326 31.5815L4.44092 29.8929Z" fill="#5D6F6D"/>
<path opacity="0.8" d="M6.12953 4.45312L18.0146 6.14173L16.326 18.0269L4.44092 16.3382L6.12953 4.45312Z" fill="#8CD592"/>
<path opacity="0.8" d="M29.8964 31.5829L18.0112 29.8943L19.6998 18.0092L31.585 19.6978L29.8964 31.5829Z" fill="#665E74"/>
<path opacity="0.8" d="M16.8277 36.0054L9.61768 26.4073L19.2157 19.1973L26.4258 28.7953L16.8277 36.0054Z" fill="#3C3647"/>
<path opacity="0.8" d="M35.999 19.1791L26.4009 26.3892L19.1909 16.7911L28.789 9.58105L35.999 19.1791Z" fill="#837193"/>
<path opacity="0.8" d="M19.1982 0.00537109L26.4082 9.60345L16.8101 16.8135L9.6001 7.21539L19.1982 0.00537109Z" fill="#A2F4AC"/>
<path opacity="0.8" d="M0.00537109 16.8233L9.60345 9.61328L16.8135 19.2114L7.21539 26.4214L0.00537109 16.8233Z" fill="#7EA685"/>
<path d="M18.0028 13.4417L22.5666 18.0055L18.0028 22.5693L13.439 18.0055L18.0028 13.4417Z" fill="#3C3647"/>
</g>
<defs>
<clipPath id="clip0_202_11731">
<rect width="36" height="37" fill="white"/>
</clipPath>
</defs>
</svg>
