<svg width="41" height="25" viewBox="0 0 41 25" fill="none" xmlns="http://www.w3.org/2000/svg">
<g clip-path="url(#clip0_202_15875)">
<path d="M20.0022 0.00256348C14.6689 0.00256348 11.3355 2.66923 10.0022 8.00256C12.0022 5.3359 14.3355 4.3359 17.0022 5.00256C18.5237 5.38293 19.6112 6.48671 20.8149 7.70856C22.7758 9.69893 25.0452 12.0026 30.0022 12.0026C35.3355 12.0026 38.6689 9.3359 40.0022 4.00256C38.0022 6.66923 35.6689 7.66923 33.0022 7.00256C31.4807 6.62219 30.3932 5.51842 29.1895 4.29656C27.2286 2.30619 24.9592 0.00256348 20.0022 0.00256348ZM10.0022 12.0026C4.66886 12.0026 1.33553 14.6692 0.00219727 20.0026C2.0022 17.3359 4.33553 16.3359 7.0022 17.0026C8.52368 17.3829 9.61116 18.4867 10.8149 19.7086C12.7758 21.6989 15.0452 24.0026 20.0022 24.0026C25.3355 24.0026 28.6689 21.3359 30.0022 16.0026C28.0022 18.6692 25.6689 19.6692 23.0022 19.0026C21.4807 18.6222 20.3932 17.5184 19.1895 16.2966C17.2286 14.3062 14.9592 12.0026 10.0022 12.0026Z" fill="url(#paint0_linear_202_15875)"/>
</g>
<defs>
<linearGradient id="paint0_linear_202_15875" x1="-1.10891" y1="7.68256" x2="33.4376" y2="27.6013" gradientUnits="userSpaceOnUse">
<stop stop-color="#2298BD"/>
<stop offset="1" stop-color="#0ED7B5"/>
</linearGradient>
<clipPath id="clip0_202_15875">
<rect width="41" height="25" fill="white"/>
</clipPath>
</defs>
</svg>
