<svg width="37" height="36" viewBox="0 0 37 36" fill="none" xmlns="http://www.w3.org/2000/svg">
<g clip-path="url(#clip0_202_8502)">
<mask id="mask0_202_8502" style="mask-type:alpha" maskUnits="userSpaceOnUse" x="0" y="0" width="37" height="37">
<path d="M0.00756836 18.0004C0.00756836 8.05928 8.06645 0.000396729 18.0076 0.000396729H34.3712C35.2749 0.000396729 36.0076 0.733021 36.0076 1.63676V18.0004C36.0076 27.9415 27.9487 36.0004 18.0076 36.0004C8.06645 36.0004 0.00756836 27.9415 0.00756836 18.0004Z" fill="black"/>
</mask>
<g mask="url(#mask0_202_8502)">
<path d="M0.00756836 18.0004C0.00756836 8.05928 8.06645 0.000396729 18.0076 0.000396729H34.3712C35.2749 0.000396729 36.0076 0.733021 36.0076 1.63676V18.0004C36.0076 27.9415 27.9487 36.0004 18.0076 36.0004C8.06645 36.0004 0.00756836 27.9415 0.00756836 18.0004Z" fill="url(#paint0_linear_202_8502)"/>
<path d="M18.0076 0.000396729H36.0076V18.0004H18.0076V0.000396729Z" fill="url(#paint1_linear_202_8502)"/>
<path d="M18.0076 18.0004H36.0076V36.0004H18.0076V18.0004Z" fill="url(#paint2_linear_202_8502)"/>
<g filter="url(#filter0_f_202_8502)">
<path d="M27.0076 17.1822C31.0744 17.1822 34.3712 13.8854 34.3712 9.81859C34.3712 5.75177 31.0744 2.45496 27.0076 2.45496C22.9407 2.45496 19.6439 5.75177 19.6439 9.81859C19.6439 13.8854 22.9407 17.1822 27.0076 17.1822Z" fill="black" fill-opacity="0.32"/>
</g>
<g filter="url(#filter1_f_202_8502)">
<path d="M27.0076 16.5194C31.0744 16.5194 34.3712 13.2226 34.3712 9.15581C34.3712 5.08899 31.0744 1.79218 27.0076 1.79218C22.9407 1.79218 19.6439 5.08899 19.6439 9.15581C19.6439 13.2226 22.9407 16.5194 27.0076 16.5194Z" fill="black" fill-opacity="0.24"/>
</g>
<path d="M27.0076 16.364C31.0744 16.364 34.3712 13.0672 34.3712 9.00039C34.3712 4.93356 31.0744 1.63675 27.0076 1.63675C22.9407 1.63675 19.6439 4.93356 19.6439 9.00039C19.6439 13.0672 22.9407 16.364 27.0076 16.364Z" fill="url(#paint3_linear_202_8502)"/>
</g>
</g>
<defs>
<filter id="filter0_f_202_8502" x="11.6439" y="-5.54504" width="30.7273" height="30.7273" filterUnits="userSpaceOnUse" color-interpolation-filters="sRGB">
<feFlood flood-opacity="0" result="BackgroundImageFix"/>
<feBlend mode="normal" in="SourceGraphic" in2="BackgroundImageFix" result="shape"/>
<feGaussianBlur stdDeviation="4" result="effect1_foregroundBlur_202_8502"/>
</filter>
<filter id="filter1_f_202_8502" x="18.8839" y="1.03218" width="16.2473" height="16.2473" filterUnits="userSpaceOnUse" color-interpolation-filters="sRGB">
<feFlood flood-opacity="0" result="BackgroundImageFix"/>
<feBlend mode="normal" in="SourceGraphic" in2="BackgroundImageFix" result="shape"/>
<feGaussianBlur stdDeviation="0.38" result="effect1_foregroundBlur_202_8502"/>
</filter>
<linearGradient id="paint0_linear_202_8502" x1="-3.36743" y1="1.41613" x2="2.54508" y2="41.2527" gradientUnits="userSpaceOnUse">
<stop stop-color="#158915"/>
<stop offset="1" stop-color="#065F18"/>
</linearGradient>
<linearGradient id="paint1_linear_202_8502" x1="18.0076" y1="0.000396729" x2="22.4431" y2="20.8817" gradientUnits="userSpaceOnUse">
<stop stop-color="#6AD116"/>
<stop offset="1" stop-color="#34A117"/>
</linearGradient>
<linearGradient id="paint2_linear_202_8502" x1="18.2888" y1="18.1173" x2="21.8289" y2="38.6147" gradientUnits="userSpaceOnUse">
<stop stop-color="#C3F488"/>
<stop offset="1" stop-color="#8FDC50"/>
</linearGradient>
<linearGradient id="paint3_linear_202_8502" x1="19.874" y1="1.73238" x2="19.1213" y2="24.2194" gradientUnits="userSpaceOnUse">
<stop stop-color="#C3F488"/>
<stop offset="1" stop-color="#8FDC50"/>
</linearGradient>
<clipPath id="clip0_202_8502">
<rect width="37" height="36.0004" fill="white"/>
</clipPath>
</defs>
</svg>
