<svg width="36" height="36" viewBox="0 0 36 36" fill="none" xmlns="http://www.w3.org/2000/svg">
<g clip-path="url(#clip0_202_15278)">
<path d="M30.8752 5.21572C24.039 -1.57362 12.9234 -1.56954 6.09099 5.21572L0.386694 10.8809C-0.127596 11.3917 -0.127596 12.2289 0.386694 12.7399C0.901933 13.2516 1.74528 13.2516 2.25957 12.7403L7.96418 7.07535C13.7665 1.31314 23.2042 1.3169 29.0023 7.07535C34.8046 12.8373 34.8008 22.2095 29.0023 27.9683L23.2977 33.6335C22.7831 34.1442 22.7831 34.9817 23.299 35.4937C23.813 36.0042 24.6563 36.0042 25.1706 35.4937L30.8752 29.8282C37.7077 23.0436 37.7115 12.0051 30.8752 5.21572ZM24.2333 11.9059C20.3928 8.11365 14.1489 8.11678 10.3113 11.9074L2.61128 19.5109C2.094 20.0227 2.094 20.8577 2.61033 21.3673C3.1273 21.8781 3.97348 21.8781 4.49045 21.3673L12.1904 13.7637C14.9938 10.9951 19.5511 10.9944 22.3538 13.7628C25.1572 16.5309 25.1559 21.0309 22.3529 23.7992L14.6529 31.4034C14.1359 31.9139 14.1359 32.7492 14.6529 33.26C15.1689 33.7696 16.0148 33.7696 16.532 33.2591L24.232 25.6553C28.07 21.8646 28.0738 15.6987 24.2333 11.9059ZM16.5033 19.7285C15.9905 19.2128 15.1515 19.2128 14.6396 19.7272L7.94054 26.464C7.42837 26.979 7.42837 27.8224 7.94148 28.3384C8.45428 28.8553 9.293 28.8553 9.80517 28.3403L16.5049 21.6031C17.0205 21.084 17.0164 20.2444 16.5033 19.7285Z" fill="#373AAF"/>
</g>
<defs>
<clipPath id="clip0_202_15278">
<rect width="36.001" height="36" fill="white"/>
</clipPath>
</defs>
</svg>
