<svg width="36" height="37" viewBox="0 0 36 37" fill="none" xmlns="http://www.w3.org/2000/svg">
<g clip-path="url(#clip0_202_11807)">
<path d="M29.5214 8.64032L29.519 8.63818L24.2544 10.5542L25.2266 5.03985L25.227 5.03676L20.9279 1.42939L20.9255 1.42725L15.6516 3.34662L15.6485 3.34781L14.6758 8.86527L10.3862 5.26623L10.3838 5.26409L5.1099 7.18347L5.10681 7.18466L4.13224 12.7119L4.13177 12.715L8.42352 16.3164L3.16172 18.2315L3.15863 18.2327L2.18406 23.7597L2.18335 23.7627L6.48272 27.3704L6.4851 27.3725L11.7498 25.4565L10.7776 30.9706L10.7771 30.9737L15.0765 34.5813L15.0788 34.5834L20.3528 32.6641L20.3559 32.6629L21.3288 27.1456L25.6182 30.7447L25.6205 30.7468L30.8945 28.8274L30.8976 28.8263L31.8721 23.299L31.8726 23.2959L27.5809 19.6945L32.8427 17.7794L32.8457 17.7782L33.8203 12.2513L33.821 12.2482L29.5214 8.64032ZM17.0394 23.5311L22.2917 21.6194L21.3212 27.124L17.0394 23.5311ZM18.9652 12.4795L13.7129 14.3911L14.6835 8.8867L18.9652 12.4795ZM8.44566 16.3202L13.6982 14.4084L12.7274 19.913L8.44566 16.3202ZM17.017 23.5273L11.7645 25.4391L12.7353 19.9345L17.017 23.5273ZM12.7377 19.9216L13.7103 14.4042L18.975 12.4881L23.2667 16.0893L22.2941 21.6068L17.0294 23.523L12.7377 19.9216ZM23.277 16.0974L27.5587 19.6902L22.3062 21.602L23.277 16.0974ZM18.9873 12.4834L24.2399 10.5716L23.2691 16.0762L18.9873 12.4834ZM15.6585 3.35638L20.9231 1.4401L25.2149 5.04128L24.242 10.5587L18.9774 12.475L14.6856 8.87384L15.6585 3.35638ZM4.14391 12.7107L5.11681 7.19323L10.3815 5.27695L14.6732 8.87813L13.7003 14.3956L8.43566 16.3119L4.14391 12.7107ZM6.48772 27.3596L2.19597 23.7582L3.16887 18.2408L8.43352 16.3245L12.7253 19.9257L11.7524 25.4434L6.48772 27.3596ZM20.3459 32.6543L15.0812 34.5706L10.7895 30.9694L11.7624 25.4519L17.027 23.5357L21.3188 27.1368L20.3459 32.6543ZM31.8605 23.3L30.8876 28.8174L25.6229 30.7335L21.3312 27.1325L22.3041 21.6151L27.5687 19.6988L31.8605 23.3ZM32.8357 17.7697L27.5711 19.6859L23.2791 16.0845L24.252 10.5671L29.5167 8.65079L33.8084 12.252L32.8357 17.7697Z" fill="#1A1A1A"/>
<path d="M32.8967 13.344L20.0062 2.52783C19.4018 2.02079 19.323 1.11978 19.83 0.515613C20.3378 -0.0887892 21.2383 -0.167345 21.8422 0.339458L34.7327 11.1559C35.3371 11.6629 35.4159 12.5639 34.9089 13.1681C34.6263 13.5047 34.2214 13.6782 33.8141 13.6782C33.4901 13.6782 33.1645 13.5687 32.8967 13.344Z" fill="#649791"/>
<path d="M14.8798 36.0056C14.2942 36.0056 13.745 35.6428 13.5355 35.0598C13.2687 34.3176 13.6543 33.4994 14.3965 33.2325L30.4092 27.4773C31.151 27.2102 31.9696 27.5958 32.2365 28.3383C32.5033 29.0805 32.1177 29.8987 31.3755 30.1655L15.3628 35.9208C15.2033 35.9784 15.0402 36.0056 14.8798 36.0056Z" fill="#EFC519"/>
<path d="M2.19176 25.3535C2.11011 25.3535 2.02775 25.3466 1.94443 25.3318C1.16721 25.1964 0.647314 24.4563 0.783001 23.6793L3.70503 6.94314C3.84072 6.16616 4.58105 5.64626 5.35756 5.78171C6.13478 5.9174 6.65468 6.65725 6.51899 7.43424L3.59696 24.1706C3.47603 24.8648 2.87282 25.3535 2.19176 25.3535Z" fill="#A21C3D"/>
<path d="M9.41042 12.2229C9.32806 12.2229 9.24474 12.2157 9.16071 12.201C8.38396 12.0641 7.86526 11.3233 8.00213 10.5463L8.97622 5.0224C9.1131 4.24566 9.85319 3.72648 10.6309 3.86383C11.4076 4.00071 11.9263 4.74151 11.7895 5.5185L10.8154 11.0424C10.6933 11.7353 10.0905 12.2229 9.41042 12.2229Z" fill="#068CBA"/>
<path d="M6.48855 28.794C6.40618 28.794 6.32287 28.7869 6.23883 28.7721C5.46209 28.635 4.94338 27.8942 5.08026 27.1175L6.05435 21.5938C6.19123 20.8168 6.93179 20.2993 7.70901 20.4352C8.48576 20.5724 9.00447 21.3132 8.86759 22.0899L7.8935 27.6136C7.77138 28.3065 7.16865 28.794 6.48855 28.794Z" fill="#531210"/>
<path d="M19.9499 8.38561C19.6259 8.38561 19.3002 8.2761 19.0324 8.05139L14.7357 4.44616C14.1313 3.93912 14.0525 3.03835 14.5595 2.43395C15.0668 1.82955 15.9678 1.75099 16.5717 2.25779L20.8687 5.86326C21.4731 6.3703 21.5519 7.27107 21.0449 7.87547C20.7623 8.21207 20.3574 8.38561 19.9499 8.38561Z" fill="#509F4E"/>
<path d="M32.8407 19.2019C32.5167 19.2019 32.1911 19.0921 31.9233 18.8677L27.6263 15.2622C27.0219 14.7552 26.9431 13.8542 27.4502 13.25C27.9579 12.6456 28.8584 12.567 29.4624 13.0738L33.7594 16.6793C34.3638 17.1863 34.4426 18.0873 33.9355 18.6915C33.6529 19.0283 33.2483 19.2019 32.8407 19.2019Z" fill="#106E66"/>
<path d="M26.5964 26.645C26.0132 26.645 25.4655 26.2846 25.2543 25.705C24.9844 24.9637 25.3667 24.1438 26.1077 23.8744L31.3786 21.9557C32.1203 21.6858 32.9397 22.0683 33.2091 22.8091C33.4791 23.5504 33.0968 24.3702 32.3557 24.6397L27.0849 26.5584C26.9237 26.6171 26.7588 26.645 26.5964 26.645Z" fill="#068CBA"/>
<path d="M17.0278 24.9573C16.7038 24.9573 16.3781 24.8476 16.1103 24.6233L11.8136 21.0179C11.2094 20.5106 11.1306 19.6098 11.6377 19.0057C12.145 18.4012 13.046 18.3232 13.6499 18.8295L17.9466 22.435C18.551 22.9422 18.6298 23.843 18.1228 24.4472C17.8402 24.784 17.4353 24.9573 17.0278 24.9573Z" fill="#92BEAF"/>
<path d="M22.3011 23.0393C22.2187 23.0393 22.1354 23.0321 22.0513 23.0174C21.2744 22.8802 20.7559 22.1394 20.8928 21.3627L21.8669 15.8388C22.004 15.0623 22.7441 14.5429 23.5215 14.6802C24.2985 14.8171 24.817 15.5581 24.6801 16.3349L23.706 21.8588C23.5839 22.5517 22.9814 23.0393 22.3011 23.0393Z" fill="#4B635B"/>
<path d="M13.7059 15.8287C13.1225 15.8287 12.5747 15.4685 12.3636 14.8886C12.0939 14.1474 12.476 13.3278 13.2172 13.058L18.4883 11.1396C19.2289 10.8702 20.0492 11.252 20.3187 11.9933C20.5886 12.7345 20.2063 13.5541 19.465 13.8238L14.1942 15.7423C14.033 15.8008 13.8681 15.8287 13.7059 15.8287Z" fill="#B9BC63"/>
<path d="M10.7841 32.4C10.2006 32.4 9.65287 32.0396 9.44172 31.4597C9.17201 30.7187 9.55408 29.8988 10.2954 29.6294L15.5662 27.7107C16.3075 27.4405 17.1273 27.8231 17.3968 28.5643C17.6665 29.3054 17.2844 30.1252 16.5431 30.3947L11.2723 32.3134C11.1111 32.3722 10.9462 32.4 10.7841 32.4Z" fill="#E38B25"/>
</g>
<defs>
<clipPath id="clip0_202_11807">
<rect width="36" height="37" fill="white"/>
</clipPath>
</defs>
</svg>
