<svg width="37" height="36" viewBox="0 0 37 36" fill="none" xmlns="http://www.w3.org/2000/svg">
<g clip-path="url(#clip0_202_16254)">
<path d="M18.0655 1.75769C18.8826 1.75769 19.5835 2.24963 19.8911 2.95281C19.9218 3.02298 19.9901 3.06145 20.0587 3.06145C20.1076 3.06145 20.1568 3.04161 20.1921 2.99951C20.5668 2.55234 21.126 2.28471 21.7196 2.28471C21.8901 2.28471 22.0635 2.30697 22.236 2.35295C23.0267 2.56468 23.5767 3.22285 23.6905 3.98338C23.7041 4.07436 23.7852 4.1334 23.8693 4.1334C23.9034 4.1334 23.9383 4.12348 23.9693 4.10195C24.3062 3.86602 24.7082 3.73995 25.1173 3.73995C25.4546 3.73995 25.7966 3.82585 26.1102 4.00661C26.8191 4.41555 27.18 5.1935 27.0928 5.95741C27.0804 6.06533 27.1705 6.15462 27.2718 6.15462C27.2914 6.15462 27.3115 6.15123 27.3313 6.14397C27.5522 6.06364 27.7845 6.02323 28.0165 6.02323C28.5261 6.02323 29.0351 6.21705 29.4238 6.60566C30.0027 7.18398 30.1497 8.02872 29.8678 8.744C29.822 8.8599 29.9126 8.9867 30.0342 8.9867C30.0395 8.9867 30.0446 8.98646 30.0497 8.98597C30.108 8.98089 30.1662 8.97823 30.2245 8.97823C30.9131 8.97823 31.5825 9.33418 31.9516 9.97299C32.3609 10.6813 32.2838 11.5352 31.8261 12.1532C31.7491 12.2575 31.8116 12.4116 31.9395 12.4341C32.6791 12.5641 33.3134 13.1066 33.5207 13.8792C33.7326 14.6692 33.4371 15.4743 32.8348 15.9529C32.7333 16.0335 32.7537 16.1985 32.8714 16.2535C33.5522 16.5702 34.0244 17.2584 34.0244 18.0581C34.0244 18.8748 33.5323 19.5748 32.8285 19.8821C32.7079 19.9349 32.6808 20.0984 32.7815 20.1829C33.3577 20.6649 33.636 21.4521 33.4287 22.2249C33.2168 23.015 32.558 23.5645 31.7968 23.6782C31.6684 23.6973 31.6038 23.8505 31.6781 23.9567C32.1092 24.5711 32.1739 25.403 31.7736 26.0958C31.4045 26.7344 30.7353 27.0903 30.0468 27.0903C29.9717 27.0903 29.8961 27.086 29.821 27.0775C29.8145 27.0768 29.8077 27.0763 29.8014 27.0763C29.682 27.0763 29.5922 27.2002 29.6343 27.3158C29.8915 28.0207 29.7384 28.841 29.1722 29.4065C28.7835 29.7951 28.2744 29.9889 27.7651 29.9889C27.5161 29.9889 27.2672 29.9425 27.032 29.85C27.0112 29.8418 26.9899 29.8379 26.969 29.8379C26.8697 29.8379 26.7804 29.9251 26.7898 30.032C26.8557 30.7792 26.4953 31.532 25.8019 31.932C25.4885 32.1128 25.1466 32.1987 24.8092 32.1987C24.3834 32.1987 23.9649 32.0619 23.6198 31.8069C23.5883 31.7837 23.5525 31.773 23.5171 31.773C23.4348 31.773 23.3544 31.8306 23.3386 31.9199C23.2086 32.6589 22.6656 33.2929 21.8923 33.4998C21.7196 33.546 21.5464 33.568 21.3759 33.568C20.7654 33.568 20.1914 33.2849 19.8167 32.8145C19.7816 32.7704 19.7305 32.7494 19.6794 32.7494C19.6131 32.7494 19.5469 32.7847 19.5162 32.851C19.1989 33.5312 18.5101 34.0031 17.7097 34.0031C16.8923 34.0031 16.1917 33.5114 15.8841 32.8082C15.8533 32.738 15.785 32.6995 15.7165 32.6995C15.6676 32.6995 15.6184 32.7191 15.5831 32.7612C15.2084 33.2084 14.6492 33.476 14.0556 33.476C13.8851 33.476 13.7117 33.454 13.5392 33.4078C12.7485 33.1961 12.1985 32.5379 12.0846 31.7776C12.0711 31.6864 11.99 31.6274 11.9059 31.6274C11.8718 31.6274 11.8369 31.6373 11.8059 31.6591C11.469 31.895 11.067 32.021 10.6579 32.021C10.3206 32.021 9.97858 31.9351 9.66495 31.7541C8.95606 31.3452 8.59545 30.5673 8.68239 29.8033C8.69474 29.6954 8.60465 29.6064 8.50341 29.6064C8.4838 29.6064 8.4637 29.6095 8.44384 29.6168C8.22296 29.6974 7.9907 29.7375 7.75869 29.7375C7.24912 29.7375 6.74004 29.5437 6.35133 29.1553C5.7725 28.5768 5.6255 27.732 5.9074 27.0168C5.95318 26.9011 5.8626 26.7741 5.74102 26.7741C5.73569 26.7741 5.73061 26.7743 5.72552 26.7748C5.66715 26.7799 5.60903 26.7825 5.55066 26.7825C4.86212 26.7825 4.19271 26.4266 3.82362 25.7878C3.41432 25.0795 3.49134 24.2256 3.94907 23.6076C4.02609 23.5033 3.9636 23.3491 3.83573 23.3266C3.09609 23.1967 2.4618 22.6542 2.25448 21.8816C2.04257 21.0915 2.33804 20.2865 2.94036 19.8081C3.04184 19.7273 3.02149 19.5622 2.90379 19.5075C2.223 19.1908 1.75073 18.5026 1.75073 17.7026C1.75073 16.8862 2.24286 16.1859 2.9469 15.8786C3.06727 15.8259 3.09439 15.6623 2.99364 15.5781C2.41748 15.0961 2.1392 14.3087 2.34651 13.5358C2.55843 12.7458 3.21718 12.1963 3.97838 12.0825C4.10674 12.0634 4.1714 11.9102 4.09705 11.804C3.66595 11.1896 3.60129 10.3577 4.00163 9.6652C4.37072 9.02638 5.03989 8.67068 5.72843 8.67068C5.8035 8.67068 5.87882 8.67479 5.95415 8.6835C5.96068 8.68423 5.96747 8.68447 5.974 8.68447C6.09316 8.68447 6.18301 8.56058 6.14087 8.44516C5.88367 7.74004 6.03673 6.91975 6.60272 6.35425C6.99168 5.96564 7.50076 5.77206 8.01008 5.77206C8.25905 5.77206 8.50802 5.81828 8.74318 5.91095C8.76401 5.91918 8.78532 5.92281 8.80615 5.92281C8.90545 5.92281 8.99481 5.8357 8.98537 5.72899C8.91949 4.98153 9.27987 4.22874 9.97325 3.82876C10.2866 3.648 10.6286 3.5621 10.966 3.5621C11.3917 3.5621 11.8105 3.69882 12.1554 3.9541C12.1869 3.97709 12.2227 3.98773 12.2581 3.98773C12.3404 3.98773 12.4208 3.93039 12.4365 3.84086C12.5666 3.10186 13.1096 2.46813 13.8829 2.261C14.0556 2.21478 14.2287 2.19276 14.3992 2.19276C15.0098 2.19276 15.5838 2.47587 15.9584 2.94627C15.9936 2.99055 16.0447 3.01161 16.0958 3.01161C16.1621 3.01161 16.2282 2.97604 16.2592 2.90973C16.5763 2.22954 17.265 1.75769 18.0655 1.75769Z" fill="white"/>
<path d="M25.5249 25.9215C23.7051 25.9215 23.8479 23.3548 25.5249 23.3548C27.2019 23.3548 27.3447 25.9215 25.5249 25.9215ZM10.4875 25.9215C8.66776 25.9215 8.81054 23.3548 10.4875 23.3548C12.1646 23.3548 12.3073 25.9215 10.4875 25.9215ZM31.0228 16.4386H30.4063C29.3007 16.4386 28.3512 15.7784 27.9262 14.8322C27.5012 15.7784 26.5516 16.4386 25.4462 16.4386C24.3406 16.4386 23.3913 15.7784 22.9663 14.8322C22.5413 15.7784 21.5918 16.4386 20.4861 16.4386C19.3808 16.4386 18.4312 15.7784 18.0062 14.8322C17.5812 15.7784 16.6317 16.4386 15.5263 16.4386C14.4207 16.4386 13.4713 15.7784 13.0461 14.8322C12.6211 15.7784 11.6718 16.4386 10.5662 16.4386C9.46055 16.4386 8.51122 15.7784 8.08624 14.8322C7.66127 15.7784 6.71169 16.4386 5.60607 16.4386H4.99658C4.07185 17.4326 4.65843 18.2723 6.94203 18.2723V23.3765C6.94203 28.1734 12.4711 30.5719 18.0002 30.5719C23.5293 30.5719 29.0583 28.1734 29.0583 23.3765V18.2723C31.3439 18.2723 31.9403 17.4326 31.0228 16.4386Z" fill="#2F2F2F"/>
<path d="M18.1833 0.0179443C17.3736 0.0179443 16.5986 0.271431 15.9551 0.717201C15.5082 0.54323 15.0273 0.451185 14.5321 0.451185C14.1908 0.451185 13.8498 0.496244 13.5184 0.584916C12.7352 0.794548 12.0514 1.2408 11.5449 1.8391C11.4017 1.82295 11.2574 1.81476 11.113 1.81476C10.4292 1.81476 9.75362 1.99596 9.15956 2.3386C8.4577 2.74341 7.91308 3.35086 7.57879 4.05927C6.75826 4.18264 6.00116 4.56263 5.40349 5.15972C4.82945 5.73296 4.46067 6.46161 4.32174 7.23339C3.57067 7.56375 2.9279 8.12614 2.50629 8.856C2.10085 9.55742 1.93322 10.3557 1.99859 11.1364C1.36088 11.6465 0.885729 12.3537 0.66528 13.1751C0.455443 13.9578 0.500305 14.7722 0.765616 15.5095C0.282027 16.1671 0.00610352 16.9733 0.00610352 17.8234C0.00610352 18.6335 0.260319 19.4085 0.70773 20.0521C0.410823 20.8123 0.353178 21.6621 0.573386 22.4838C0.783464 23.2662 1.22991 23.9488 1.82855 24.4548C1.73882 25.2659 1.90332 26.1018 2.32902 26.8384C2.73326 27.5381 3.34082 28.0841 4.05209 28.4188C4.17582 29.225 4.55112 29.9898 5.15289 30.591C5.7262 31.1635 6.44592 31.5365 7.2281 31.6751C7.5566 32.4206 8.11665 33.0606 8.85252 33.4851C9.44682 33.828 10.1224 34.0092 10.8062 34.0092C10.9174 34.0092 11.0278 34.0044 11.1376 33.9953C11.6479 34.6309 12.3551 35.1046 13.1761 35.3244C13.5075 35.413 13.8486 35.4581 14.1899 35.4581C14.6481 35.4581 15.0962 35.3783 15.5166 35.227C16.1741 35.7082 16.9797 35.9829 17.8289 35.9829C18.6386 35.9829 19.4136 35.7294 20.0571 35.2836C20.504 35.4579 20.9852 35.5497 21.4801 35.5497C21.8214 35.5497 22.1624 35.5048 22.4938 35.4159C23.277 35.2063 23.9608 34.7601 24.467 34.1618C24.6105 34.1779 24.7548 34.1861 24.8992 34.1861C25.583 34.1861 26.2586 34.0049 26.8526 33.6623C27.5548 33.2574 28.0991 32.65 28.4334 31.9416C29.2542 31.8182 30.011 31.4382 30.6087 30.8411C31.1825 30.2679 31.5513 29.5392 31.6905 28.7675C32.4415 28.4373 33.0843 27.875 33.5059 27.1451C33.9114 26.4437 34.079 25.6454 34.0136 24.8647C34.6513 24.3546 35.1265 23.6474 35.3469 22.8257C35.5568 22.0431 35.5119 21.2286 35.2466 20.4916C35.7302 19.8337 36.0061 19.0277 36.0061 18.1774C36.0061 17.3676 35.7516 16.5924 35.3045 15.949C35.6014 15.1888 35.659 14.3387 35.4386 13.5171C35.2287 12.7347 34.7823 12.052 34.1837 11.546C34.2734 10.735 34.1089 9.8991 33.6832 9.16249C33.2787 8.46276 32.6714 7.91699 31.9601 7.58206C31.8364 6.77582 31.4611 6.01126 30.8593 5.41007C30.286 4.83732 29.5663 4.46432 28.7841 4.32601C28.4558 3.58049 27.8958 2.94027 27.1597 2.5157C26.5656 2.17306 25.89 1.99186 25.2063 1.99186C25.0951 1.99186 24.9844 1.99644 24.8746 2.0056C24.3643 1.37019 23.6571 0.896232 22.8361 0.676479C22.5047 0.587807 22.1636 0.542748 21.8226 0.542748C21.3641 0.542748 20.916 0.622505 20.4956 0.774067C19.8381 0.292635 19.0325 0.0179443 18.1833 0.0179443ZM18.1833 1.9456C18.997 1.9456 19.695 2.43546 20.0014 3.13568C20.032 3.20556 20.1 3.24387 20.1683 3.24387C20.217 3.24387 20.2659 3.22411 20.3012 3.18219C20.6743 2.7369 21.2312 2.4704 21.8224 2.4704C21.9922 2.4704 22.1648 2.49257 22.3366 2.53835C23.1241 2.74919 23.6718 3.40459 23.7852 4.16192C23.7987 4.25252 23.8795 4.31131 23.9632 4.31131C23.9972 4.31131 24.0319 4.30143 24.0628 4.27999C24.3983 4.04505 24.7987 3.91952 25.206 3.91952C25.542 3.91952 25.8826 4.00506 26.1949 4.18505C26.9009 4.59227 27.2603 5.36694 27.1734 6.12764C27.1611 6.23511 27.2509 6.32402 27.3517 6.32402C27.3712 6.32402 27.3912 6.32065 27.411 6.31342C27.631 6.23342 27.8623 6.19318 28.0933 6.19318C28.6008 6.19318 29.1078 6.38619 29.4949 6.77317C30.0713 7.34905 30.2178 8.19023 29.937 8.9025C29.8914 9.01792 29.9816 9.14418 30.1027 9.14418C30.108 9.14418 30.1131 9.14394 30.1181 9.14346C30.1763 9.1384 30.2342 9.13575 30.2923 9.13575C30.978 9.13575 31.6446 9.4902 32.0122 10.1263C32.4198 10.8316 32.3431 11.6819 31.8873 12.2973C31.8106 12.4012 31.8728 12.5547 32.0002 12.5771C32.7368 12.7065 33.3684 13.2467 33.5749 14.0161C33.7859 14.8028 33.4917 15.6045 32.8918 16.0811C32.7908 16.1613 32.811 16.3257 32.9283 16.3804C33.6062 16.6958 34.0766 17.381 34.0766 18.1774C34.0766 18.9906 33.5865 19.6877 32.8856 19.9937C32.7655 20.0463 32.7384 20.2092 32.8388 20.2932C33.4126 20.7732 33.6897 21.5571 33.4832 22.3267C33.2722 23.1134 32.6162 23.6606 31.8581 23.7739C31.7303 23.7929 31.6659 23.9454 31.7399 24.0512C32.1692 24.663 32.2336 25.4914 31.8349 26.1813C31.4674 26.8172 30.801 27.1716 30.1152 27.1716C30.0405 27.1716 29.9652 27.1673 29.8905 27.1588C29.8839 27.1581 29.8772 27.1576 29.8709 27.1576C29.752 27.1576 29.6625 27.281 29.7045 27.3962C29.9606 28.0981 29.8082 28.9149 29.2443 29.478C28.8572 29.865 28.3502 30.058 27.843 30.058C27.595 30.058 27.3471 30.0118 27.1129 29.9197C27.0921 29.9115 27.0709 29.9077 27.0502 29.9077C26.9513 29.9077 26.8623 29.9944 26.8717 30.1009C26.9373 30.845 26.5784 31.5946 25.8879 31.9929C25.5758 32.1729 25.2352 32.2584 24.8992 32.2584C24.4752 32.2584 24.0584 32.1223 23.7147 31.8683C23.6834 31.8452 23.6477 31.8346 23.6125 31.8346C23.5305 31.8346 23.4504 31.8919 23.4347 31.9809C23.3052 32.7167 22.7645 33.348 21.9943 33.5541C21.8224 33.6001 21.6499 33.622 21.4801 33.622C20.8721 33.622 20.3004 33.3401 19.9273 32.8717C19.8923 32.8278 19.8414 32.8069 19.7906 32.8069C19.7245 32.8069 19.6586 32.842 19.628 32.9081C19.312 33.5854 18.6261 34.0553 17.8289 34.0553C17.0149 34.0553 16.3172 33.5656 16.0108 32.8654C15.9802 32.7955 15.9122 32.7572 15.8439 32.7572C15.7952 32.7572 15.7463 32.7767 15.711 32.8187C15.3379 33.264 14.781 33.5304 14.1899 33.5304C14.0201 33.5304 13.8474 33.5085 13.6756 33.4625C12.8881 33.2517 12.3404 32.5963 12.227 31.8392C12.2135 31.7483 12.1327 31.6895 12.049 31.6895C12.015 31.6895 11.9803 31.6994 11.9494 31.7211C11.6139 31.956 11.2135 32.0816 10.8062 32.0816C10.4702 32.0816 10.1296 31.996 9.81729 31.8158C9.11132 31.4086 8.75219 30.6339 8.83878 29.8732C8.85108 29.7657 8.76135 29.6771 8.66054 29.6771C8.641 29.6771 8.62098 29.6802 8.6012 29.6874C8.38124 29.7677 8.14993 29.8077 7.91887 29.8077C7.41141 29.8077 6.90442 29.6147 6.51731 29.2279C5.94086 28.6518 5.79446 27.8106 6.0752 27.0983C6.12079 26.9832 6.03058 26.8567 5.90951 26.8567C5.9042 26.8567 5.89914 26.8569 5.89407 26.8574C5.83594 26.8625 5.77806 26.8651 5.71993 26.8651C5.03422 26.8651 4.36757 26.5107 3.99999 25.8745C3.59238 25.1693 3.66908 24.3189 4.12493 23.7035C4.20163 23.5997 4.1394 23.4462 4.01205 23.4238C3.27545 23.2944 2.64377 22.7541 2.43731 21.9848C2.22627 21.198 2.52052 20.3964 3.12037 19.92C3.22143 19.8395 3.20117 19.6752 3.08395 19.6207C2.40596 19.3053 1.93564 18.62 1.93564 17.8234C1.93564 17.0105 2.42574 16.3131 3.12688 16.0071C3.24675 15.9546 3.27377 15.7917 3.17343 15.7078C2.59964 15.2279 2.32251 14.4438 2.52897 13.6742C2.74001 12.8874 3.39605 12.3402 4.15411 12.227C4.28195 12.2079 4.34634 12.0554 4.2723 11.9496C3.84298 11.3379 3.77858 10.5094 4.17727 9.81982C4.54485 9.1837 5.21126 8.82949 5.89696 8.82949C5.97173 8.82949 6.04674 8.83359 6.12176 8.84226C6.12827 8.84299 6.13502 8.84323 6.14153 8.84323C6.2602 8.84323 6.34968 8.71986 6.30771 8.60492C6.05157 7.90277 6.204 7.08593 6.76767 6.52281C7.15502 6.13584 7.662 5.94307 8.16923 5.94307C8.41717 5.94307 8.66512 5.98909 8.89932 6.08138C8.92006 6.08957 8.94128 6.09319 8.96203 6.09319C9.06091 6.09319 9.14991 6.00644 9.14051 5.90018C9.0749 5.15587 9.4338 4.40625 10.1243 4.00795C10.4364 3.82795 10.777 3.74241 11.113 3.74241C11.537 3.74241 11.954 3.87855 12.2975 4.13276C12.3288 4.15565 12.3645 4.16626 12.3997 4.16626C12.4817 4.16626 12.5618 4.10915 12.5775 4.01999C12.707 3.28411 13.2478 2.65305 14.0179 2.44679C14.1899 2.40077 14.3623 2.37884 14.5321 2.37884C15.1401 2.37884 15.7118 2.66076 16.0849 3.12918C16.1199 3.17327 16.1708 3.19424 16.2216 3.19424C16.2877 3.19424 16.3536 3.15882 16.3845 3.09279C16.7002 2.41546 17.3861 1.9456 18.1833 1.9456Z" fill="#2F2F2F"/>
</g>
<defs>
<clipPath id="clip0_202_16254">
<rect width="37" height="36" fill="white"/>
</clipPath>
</defs>
</svg>
