<svg width="28" height="41" viewBox="0 0 28 41" fill="none" xmlns="http://www.w3.org/2000/svg">
<g clip-path="url(#clip0_202_12120)">
<path opacity="0.39" d="M13.8081 40.0044C18.9337 40.0044 23.0888 39.4134 23.0888 38.6844C23.0888 37.9555 18.9337 37.3645 13.8081 37.3645C8.68247 37.3645 4.52734 37.9555 4.52734 38.6844C4.52734 39.4134 8.68247 40.0044 13.8081 40.0044Z" fill="url(#paint0_linear_202_12120)"/>
<path opacity="0.46" d="M17.1593 37.9626C15.8703 37.9626 14.705 38.0348 13.8079 38.1483C12.9108 38.0348 11.7352 37.9626 10.4565 37.9626C7.63105 37.9626 5.3418 38.2926 5.3418 38.6948C5.3418 39.097 7.63105 39.4269 10.4565 39.4269C11.7455 39.4269 12.9108 39.3651 13.8079 39.2413C14.705 39.3548 15.8806 39.4269 17.1593 39.4269C19.9847 39.4269 22.274 39.097 22.274 38.6948C22.2637 38.2926 19.9847 37.9626 17.1593 37.9626Z" fill="url(#paint1_linear_202_12120)"/>
<path d="M23.8411 12.6365C24.5758 12.6365 25.1713 12.1748 25.1713 11.6053C25.1713 11.0358 24.5758 10.5741 23.8411 10.5741C23.1064 10.5741 22.5109 11.0358 22.5109 11.6053C22.5109 12.1748 23.1064 12.6365 23.8411 12.6365Z" fill="url(#paint2_radial_202_12120)"/>
<path d="M25.0163 11.3372C25.0163 11.3372 24.2635 10.6669 23.6241 11.2857C23.6241 11.2857 24.1397 11.4197 24.0882 11.7394C24.0366 12.0591 23.6035 12.1725 23.6035 12.1725C23.6035 12.1725 25.0987 12.5953 25.0163 11.3372Z" fill="url(#paint3_linear_202_12120)"/>
<path d="M24.0887 11.7394C24.1403 11.4197 23.6247 11.2857 23.6247 11.2857C24.2743 10.6669 25.0168 11.3372 25.0168 11.3372L25.0271 11.3991C24.7487 11.3269 24.0475 11.2341 24.1609 12.2344C23.8619 12.2447 23.5938 12.1622 23.5938 12.1622C23.5938 12.1622 24.0372 12.0487 24.0887 11.7394Z" fill="#7F1E0B"/>
<path d="M3.74333 12.6366C4.478 12.6366 5.07357 12.1749 5.07357 11.6054C5.07357 11.0359 4.478 10.5742 3.74333 10.5742C3.00865 10.5742 2.41309 11.0359 2.41309 11.6054C2.41309 12.1749 3.00865 12.6366 3.74333 12.6366Z" fill="url(#paint4_radial_202_12120)"/>
<path d="M2.557 11.3372C2.557 11.3372 3.30977 10.6669 3.94911 11.2857C3.94911 11.2857 3.43352 11.4197 3.48508 11.7394C3.53664 12.0591 3.96974 12.1725 3.96974 12.1725C3.96974 12.1725 2.47451 12.5953 2.557 11.3372Z" fill="url(#paint5_linear_202_12120)"/>
<path d="M3.48538 11.7394C3.43382 11.4197 3.94942 11.2857 3.94942 11.2857C3.29977 10.6669 2.55731 11.3372 2.55731 11.3372L2.547 11.3991C2.82542 11.3269 3.52663 11.2341 3.4132 12.2344C3.71225 12.2447 3.98036 12.1622 3.98036 12.1622C3.98036 12.1622 3.54725 12.0487 3.48538 11.7394Z" fill="#7F1E0B"/>
<path d="M13.6632 1.36562C13.6632 1.36562 6.52734 0.685034 4.6815 10.6051C2.83567 20.5252 -1.21692 23.0722 2.01071 27.5167C2.01071 27.5167 2.01071 33.2914 6.86763 38.1999C6.86763 38.1999 8.7341 39.7157 10.0437 37.8286C11.3636 35.9312 13.1476 34.8588 14.6635 35.2506C16.1793 35.6425 17.5817 37.5605 18.1592 38.1895C18.7367 38.8186 21.1497 40.7882 24.202 32.487C24.202 32.487 29.9251 29.3316 25.5941 20.4118C25.5941 20.4118 23.9339 16.6067 23.0677 11.1723C22.1912 5.75851 19.4688 1.44812 13.6632 1.36562Z" fill="url(#paint6_radial_202_12120)"/>
<path opacity="0.7" d="M25.5838 20.4221C25.5838 20.4221 23.9236 16.617 23.0574 11.1826C22.3768 6.93407 20.5619 3.37646 17.0249 1.98434C18.4273 3.04647 18.2211 4.5417 18.2211 4.5417C15.0244 4.24266 14.1273 7.76934 14.1273 7.76934C14.1273 7.76934 14.4882 4.78919 14.3747 4.82013C14.251 4.85106 13.8901 7.32593 13.8901 7.32593L13.7354 6.15037L13.6735 7.32593L13.1373 5.0573L13.5292 7.92402C12.8898 3.90237 8.85786 4.61389 8.85786 4.61389C8.69286 3.42802 9.74468 2.48963 10.7346 1.88123C8.53819 2.71649 5.74365 4.92325 4.68152 10.6154C2.846 20.5355 -1.22722 23.0723 2.00042 27.5167C2.00042 27.5167 2.00042 33.2914 6.85734 38.1999C6.85734 38.1999 8.7238 39.7157 10.0334 37.8286C11.3533 35.9312 13.1373 34.8588 14.6532 35.2506C16.169 35.6425 17.5714 37.5605 18.1489 38.1895C18.7264 38.8186 21.1394 40.7882 24.1917 32.487C24.1917 32.4974 29.9148 29.3419 25.5838 20.4221Z" fill="url(#paint7_linear_202_12120)"/>
<path d="M13.1481 7.35692C13.1481 7.35692 12.5603 4.79956 9.87924 4.79956C7.19813 4.79956 6.61035 8.42936 6.61035 8.42936C6.61035 8.42936 6.61035 10.5227 9.16771 11.0073C9.16771 11.0073 7.91997 10.5536 7.27032 9.5843C7.27032 9.5843 7.88903 10.0793 9.36364 10.1515C9.36364 10.1515 7.07439 9.65648 6.75472 8.43967C6.75472 8.43967 7.35281 5.09861 9.88955 5.0058C12.4366 4.90268 13.1481 7.35692 13.1481 7.35692Z" fill="#AD1813"/>
<path d="M13.1584 8.73866L13.1069 8.81084C13.1069 8.81084 13.1584 5.65539 10.2402 5.51102C7.32189 5.35634 6.86816 8.4293 6.86816 8.4293C6.86816 8.4293 6.95066 9.22332 9.73488 9.378C11.4776 9.4708 12.3541 9.22332 12.7666 9.02739C13.0347 8.9449 13.0347 9.14082 13.0347 9.14082C12.1685 9.97609 10.1989 10.2339 10.1989 10.2339C11.8282 10.3164 12.7872 9.73891 12.7872 9.73891C12.251 10.6773 10.7558 11.0382 10.7558 11.0382C12.8594 11.0176 13.3956 9.16145 13.3956 9.16145L13.1584 8.73866Z" fill="#AD1813"/>
<path d="M6.9502 8.43958C6.9502 8.43958 7.56891 5.41818 10.2913 5.6038C13.0136 5.78941 13.0652 8.81081 13.0652 8.81081C13.0652 8.81081 12.0959 9.37796 9.68286 9.18204C7.24924 8.96549 6.9502 8.43958 6.9502 8.43958Z" fill="url(#paint8_linear_202_12120)"/>
<path d="M12.0958 6.39781C11.7349 6.21219 11.3327 6.11938 10.9099 6.11938C9.45596 6.11938 8.2804 7.29495 8.2804 8.74893C8.2804 8.83142 8.29071 8.91392 8.29071 8.99641C8.65163 9.0686 9.09504 9.13047 9.65188 9.18203C12.0752 9.38827 13.0342 8.8108 13.0342 8.8108C13.0342 8.8108 13.0136 7.33619 12.0958 6.39781Z" fill="url(#paint9_radial_202_12120)"/>
<path d="M14.6426 7.27424C14.6426 7.27424 15.2097 4.78906 17.8187 4.78906C20.4276 4.78906 20.9947 8.31574 20.9947 8.31574C20.9947 8.31574 20.9947 10.3472 18.5096 10.8112C18.5096 10.8112 19.7161 10.3781 20.3451 9.42943C20.3451 9.42943 19.747 9.91409 18.3136 9.97597C18.3136 9.97597 20.541 9.49131 20.8401 8.31574C20.8401 8.31574 20.2626 5.0778 17.798 4.98499C15.3335 4.90249 14.6426 7.27424 14.6426 7.27424Z" fill="#AD1813"/>
<path d="M14.6327 8.61482L14.6842 8.67669C14.6842 8.67669 14.6327 5.61405 17.4685 5.46968C20.3042 5.32531 20.7373 8.30546 20.7373 8.30546C20.7373 8.30546 20.6549 9.07886 17.9531 9.22323C16.262 9.31603 15.4164 9.07886 15.0039 8.88293C14.7461 8.80044 14.7358 8.99636 14.7358 8.99636C15.5711 9.80069 17.4891 10.0585 17.4891 10.0585C15.9114 10.141 14.973 9.57383 14.973 9.57383C15.5092 10.4916 16.9529 10.8525 16.9529 10.8525C14.9111 10.8319 14.3955 9.0273 14.3955 9.0273L14.6327 8.61482Z" fill="#AD1813"/>
<path d="M20.6647 8.32604C20.6647 8.32604 20.0666 5.39745 17.4268 5.57275C14.7869 5.74806 14.7354 8.68696 14.7354 8.68696C14.7354 8.68696 15.6737 9.23349 18.0249 9.04787C20.376 8.84164 20.6647 8.32604 20.6647 8.32604Z" fill="url(#paint10_linear_202_12120)"/>
<path d="M15.6639 6.34629C16.0145 6.17099 16.396 6.06787 16.8085 6.06787C18.2109 6.06787 19.3658 7.2125 19.3658 8.62523C19.3658 8.70773 19.3555 8.77991 19.3555 8.86241C19.0049 8.93459 18.5718 8.99646 18.0356 9.03771C15.6845 9.23364 14.7461 8.67679 14.7461 8.67679C14.7461 8.67679 14.7667 7.26406 15.6639 6.34629Z" fill="url(#paint11_radial_202_12120)"/>
<path d="M7.67238 11.5022C7.67238 11.5022 13.6327 12.4612 19.3867 10.801C25.1408 9.1408 19.7167 21.0717 14.7464 21.2161C9.7657 21.3604 7.14647 17.7513 6.03278 13.7915C6.02247 13.7915 5.11502 10.9866 7.67238 11.5022Z" fill="url(#paint12_linear_202_12120)"/>
<path d="M7.6715 11.4505C7.6715 11.4505 13.6318 12.358 19.3859 10.7906C25.1399 9.23347 19.7158 20.5147 14.7455 20.6488C9.76482 20.7828 7.13528 17.3696 6.02159 13.616C6.02159 13.616 5.11414 10.9762 7.6715 11.4505Z" fill="url(#paint13_radial_202_12120)"/>
<path d="M8.21826 12.2962C8.21826 12.2962 14.5704 13.6058 19.252 11.5847C19.252 11.5847 20.6648 10.8732 21.1082 11.6981C21.5516 12.5231 19.118 19.1743 14.3435 19.4321C9.56912 19.7002 7.77484 15.5651 6.91895 13.6368C6.91895 13.6368 6.54772 12.7396 6.99114 12.3787C7.31081 12.1106 7.46549 12.1415 8.21826 12.2962Z" fill="url(#paint14_radial_202_12120)"/>
<path d="M8.21826 12.2962C8.21826 12.2962 14.5704 13.6058 19.252 11.5847C19.252 11.5847 20.6648 10.8732 21.1082 11.6981C21.5516 12.5231 19.118 19.1743 14.3435 19.4321C9.56912 19.7002 7.77484 15.5651 6.91895 13.6368C6.91895 13.6368 6.54772 12.7396 6.99114 12.3787C7.31081 12.1106 7.46549 12.1415 8.21826 12.2962Z" fill="#590D00"/>
<path opacity="0.7" d="M12.2298 14.3276C13.4466 13.9461 14.8799 13.7295 16.468 13.8842C16.7979 13.1624 16.7051 12.5952 16.6433 12.3787C16.0039 12.5024 15.3646 12.5952 14.7252 12.6468C14.8799 13.0283 14.6118 13.3995 14.0343 13.348C13.4878 13.2964 13.5291 12.9252 13.6116 12.7086C12.9619 12.7293 12.3432 12.7293 11.7657 12.6983C11.4461 13.7192 11.9926 14.1833 12.2298 14.3276Z" fill="#250000"/>
<path d="M10.5907 12.6159C9.43573 12.5128 8.60046 12.3685 8.32204 12.3169C8.31172 12.6159 8.39422 13.575 9.45635 13.6884C10.3226 13.7812 10.5391 13.0697 10.5907 12.6159Z" fill="url(#paint15_linear_202_12120)"/>
<path d="M19.2422 11.5951C18.7369 11.8116 18.211 11.9973 17.6748 12.1416C17.7573 12.4819 18.0667 13.1419 18.6751 13.1316C19.4485 13.1109 19.9641 12.1829 19.9744 11.3579C19.5825 11.4301 19.2422 11.5951 19.2422 11.5951Z" fill="url(#paint16_linear_202_12120)"/>
<path d="M18.7059 17.0701C18.6852 17.0907 18.6749 17.101 18.6543 17.1216C18.8812 17.3897 19.139 17.6166 19.3452 17.7816C19.3658 17.761 19.3761 17.7403 19.3864 17.73C19.1802 17.5754 18.9224 17.3485 18.7059 17.0701Z" fill="#E04C89"/>
<path d="M20.8301 11.419C20.8507 11.4293 20.8713 11.4499 20.8919 11.4602C20.9951 11.2952 21.1188 11.0787 21.2013 10.8415C21.1807 10.8312 21.1601 10.8209 21.1394 10.8105C21.0569 11.0477 20.9435 11.2643 20.8301 11.419Z" fill="#E04C89"/>
<path d="M19.4794 11.4912C19.5 11.4809 19.5207 11.4706 19.5516 11.4602C19.531 11.2024 19.5 10.955 19.4794 10.759C19.4588 10.7693 19.4382 10.7693 19.4072 10.7797C19.4279 10.9859 19.4588 11.2437 19.4794 11.4912Z" fill="#E04C89"/>
<path d="M20.2526 14.7703C20.2423 14.7909 20.232 14.8115 20.2217 14.8321C20.5929 15.0796 20.8404 15.1827 21.026 15.2137C21.0363 15.1931 21.0466 15.1724 21.0569 15.1518C20.8816 15.1209 20.6238 15.0178 20.2526 14.7703Z" fill="#E04C89"/>
<path d="M16.7983 12.3367C16.8189 12.3264 16.8396 12.3264 16.8705 12.3161L16.788 11.3262C16.7674 11.3365 16.7364 11.3365 16.7158 11.3365L16.7983 12.3367Z" fill="#E04C89"/>
<path d="M15.5196 12.543C15.5402 12.5327 15.5711 12.5327 15.5917 12.5327L15.4989 11.5015C15.4783 11.5015 15.4474 11.5118 15.4268 11.5118L15.5196 12.543Z" fill="#E04C89"/>
<path d="M17.4584 18.2352C17.4377 18.2559 17.4171 18.2662 17.3965 18.2765C17.5099 18.5652 17.6852 18.9055 17.9636 19.1942C17.9843 19.1736 18.0049 19.1633 18.0152 19.153C17.7368 18.8643 17.5615 18.5137 17.4584 18.2352Z" fill="#E04C89"/>
<path d="M19.5823 15.9253C19.5616 15.9459 19.5513 15.9665 19.541 15.9872C19.6957 16.1831 19.9226 16.4409 20.2216 16.6265C20.2319 16.6059 20.2525 16.5853 20.2629 16.5646C19.9638 16.379 19.7266 16.1212 19.5823 15.9253Z" fill="#E04C89"/>
<path d="M18.2004 11.9758C18.2211 11.9655 18.2417 11.9552 18.2726 11.9552L18.2314 11.0684C18.2107 11.0787 18.1798 11.0787 18.1592 11.089L18.2004 11.9758Z" fill="#E04C89"/>
<path d="M13.9318 12.6873L13.8905 11.6458C13.8699 11.6458 13.839 11.6458 13.8184 11.6561L13.8596 12.6976C13.8802 12.6873 13.9112 12.6873 13.9318 12.6873Z" fill="#E04C89"/>
<path d="M21.0675 12.6049C21.0572 12.6255 21.0572 12.6564 21.0469 12.677C21.449 12.6255 21.6965 12.4708 21.8512 12.2955V12.1924C21.7172 12.3677 21.4903 12.543 21.0675 12.6049Z" fill="#E04C89"/>
<path d="M20.7585 13.6155C20.7482 13.6361 20.7482 13.6567 20.7275 13.6773C20.8822 13.7598 21.1813 13.863 21.5731 13.832C21.5834 13.8114 21.5834 13.7805 21.5937 13.7598C21.2019 13.8011 20.9132 13.6877 20.7585 13.6155Z" fill="#E04C89"/>
<path d="M9.19851 12.4503C9.22944 12.4606 9.25007 12.4606 9.27069 12.4606C9.1882 12.1512 9.15726 11.8625 9.13664 11.6047C9.11601 11.6047 9.08508 11.5944 9.06445 11.5944C9.08508 11.8625 9.11601 12.1512 9.19851 12.4503Z" fill="#E04C89"/>
<path d="M7.36252 12.182C7.39346 12.1717 7.41408 12.1717 7.44502 12.1717C7.32127 12.0067 7.18722 11.7489 7.13566 11.3777H7.06348C7.11504 11.7489 7.23878 12.0067 7.36252 12.182Z" fill="#E04C89"/>
<path d="M8.94043 18.6065C8.96105 18.6271 8.98168 18.6374 8.99199 18.658C9.18792 18.4002 9.4354 18.1218 9.72414 17.9156C9.70351 17.8949 9.68289 17.8846 9.67258 17.864C9.38384 18.0806 9.13636 18.359 8.94043 18.6065Z" fill="#E04C89"/>
<path d="M11.0438 18.8024C11.0232 18.7921 11.0026 18.7818 10.982 18.7715C10.817 19.019 10.6314 19.3386 10.4561 19.6996C10.4767 19.7099 10.4973 19.7202 10.5179 19.7305C10.6932 19.3593 10.8788 19.0396 11.0438 18.8024Z" fill="#E04C89"/>
<path d="M11.0235 12.646C11.0441 12.646 11.0648 12.646 11.0854 12.646C11.0235 12.3779 10.9513 12.0376 10.9101 11.687H10.8379C10.8895 12.0376 10.9616 12.3779 11.0235 12.646Z" fill="#E04C89"/>
<path d="M12.581 19.3179C12.5603 19.3076 12.5294 19.3076 12.5088 19.3076C12.3747 19.7098 12.2922 20.0913 12.251 20.4007C12.2716 20.411 12.2922 20.411 12.3232 20.4213C12.3747 20.1016 12.4469 19.7304 12.581 19.3179Z" fill="#E04C89"/>
<path d="M15.6748 19.184C15.8398 19.6583 16.0667 20.0192 16.2729 20.2873C16.2935 20.277 16.3141 20.2667 16.3348 20.2564C16.1285 19.9986 15.8914 19.6274 15.7367 19.1633C15.7161 19.1633 15.6954 19.1736 15.6748 19.184Z" fill="#E04C89"/>
<path d="M6.76487 12.9246C6.4452 12.8421 6.12553 12.6874 5.86773 12.5327C5.86773 12.5637 5.86773 12.5843 5.85742 12.6152C6.11522 12.7699 6.43489 12.9246 6.75456 12.9968V12.9246H6.76487Z" fill="#E04C89"/>
<path d="M7.71374 15.3273C7.70343 15.3066 7.69312 15.286 7.68281 15.2654C7.31158 15.4097 7.05378 15.616 6.86816 15.8119C6.87848 15.8325 6.88879 15.8532 6.8991 15.8738C7.08471 15.6779 7.34251 15.4716 7.71374 15.3273Z" fill="#E04C89"/>
<path d="M12.6119 12.7081H12.6841L12.581 11.6975H12.5088L12.6119 12.7081Z" fill="#E04C89"/>
<path d="M14.3543 19.4314H14.3234H14.2925C14.2512 19.8026 14.2203 20.246 14.21 20.6482H14.2821C14.2925 20.246 14.3234 19.8026 14.3543 19.4314Z" fill="#E04C89"/>
<path d="M7.03276 13.9145C7.02245 13.8938 7.01214 13.8629 7.00183 13.8423C6.78528 13.8629 6.50686 13.9248 6.15625 14.0485C6.16656 14.0691 6.17687 14.0898 6.17687 14.1104C6.53779 13.9867 6.81621 13.9351 7.03276 13.9145Z" fill="#E04C89"/>
<path d="M8.62077 16.7296C8.60015 16.709 8.58984 16.6883 8.57952 16.6677C8.32173 16.7708 8.00206 16.9461 7.72363 17.2246C7.74426 17.2452 7.75457 17.2658 7.76488 17.2864C8.05361 17.008 8.37328 16.8327 8.62077 16.7296Z" fill="#E04C89"/>
<path opacity="0.5" d="M11.8691 2.61333C11.8691 2.61333 12.0135 3.37641 13.7459 3.37641C15.4783 3.37641 15.4164 2.56177 15.4164 2.56177C15.4164 2.56177 15.1174 3.18048 13.7665 3.18048C12.4157 3.18048 11.8691 2.61333 11.8691 2.61333Z" fill="#CE4920"/>
<path d="M15.3441 2.36575C15.3441 2.6648 14.5913 2.89166 13.6736 2.89166C12.7558 2.89166 12.0031 2.65449 12.0031 2.36575C12.0031 2.06671 12.7558 1.83984 13.6736 1.83984C14.5913 1.83984 15.3441 2.07702 15.3441 2.36575Z" fill="#C62619"/>
<path d="M13.6843 0.00439453C12.9005 0.00439453 12.2612 1.20058 12.1787 2.32458C12.1787 2.32458 12.3334 2.72675 13.7358 2.72675C14.9836 2.72675 15.1898 2.32458 15.1898 2.32458C15.1073 1.20058 14.4576 0.00439453 13.6843 0.00439453Z" fill="url(#paint17_linear_202_12120)"/>
<path d="M14.5705 1.42744C14.5705 1.9121 14.1684 2.30396 13.6837 2.30396C13.1887 2.30396 12.7969 1.9121 12.7969 1.42744C12.7969 0.942783 13.199 0.220947 13.6837 0.220947C14.1684 0.220947 14.5705 0.942783 14.5705 1.42744Z" fill="url(#paint18_linear_202_12120)"/>
<path opacity="0.7" d="M25.584 20.4221C25.584 20.4221 24.5115 17.9472 23.635 14.1421C23.3669 15.5445 22.8101 18.9681 23.0988 21.0305C23.4597 23.6806 24.4806 34.5391 19.7577 36.1993C19.7577 36.1993 18.3347 36.4262 16.5198 34.3741C14.7152 32.322 12.261 29.8781 12.261 29.8781L13.4984 29.3316C13.4984 29.3316 14.1377 30.1771 15.4267 29.7853C15.4267 29.7853 14.5811 29.94 13.9831 29.3006C13.9831 29.3006 14.8596 29.5997 15.4267 28.8778C15.4267 28.8778 15.8186 29.0016 15.7051 29.2697C15.7051 29.2697 16.1589 28.9088 15.8289 28.4551C15.8289 28.4551 18.3553 26.2586 17.3344 23.7528L16.6126 22.7835C16.6126 22.7835 17.221 22.2679 17.2519 22.1235C17.2829 21.9688 17.0663 20.4633 17.0663 20.4633C17.0663 20.4633 18.8812 18.6793 20.1496 16.7201C18.7678 18.7825 16.726 20.5767 14.7564 20.6283C10.2604 20.752 7.67215 17.9678 6.40378 14.6577H6.37284C6.37284 14.6577 6.38316 14.6886 6.40378 14.7505C6.62033 15.3692 7.99182 18.9578 11.3123 20.5046L9.38393 20.9273C9.38393 20.9273 16.2723 22.9485 16.5713 24.5468C16.8704 26.1452 5.51695 28.7335 2.06246 26.0524C0.96939 25.2068 0.948766 23.6806 1.05189 22.3916C0.587848 24.2065 0.690968 25.6915 2.0109 27.5064C2.0109 27.5064 2.0109 33.281 6.86782 38.1895C6.86782 38.1895 8.73428 39.7054 10.0439 37.8183C11.3638 35.9209 13.1478 34.8485 14.6636 35.2403C16.1795 35.6322 17.5819 37.5502 18.1594 38.1792C18.7369 38.8082 21.1498 40.7778 24.2022 32.4767C24.1919 32.4973 29.915 29.3419 25.584 20.4221Z" fill="url(#paint19_linear_202_12120)"/>
<path opacity="0.6" d="M10.6417 29.342C16.6639 28.4345 18.0147 25.3925 17.3238 23.7735C16.6329 22.1442 9.37334 20.9377 9.37334 20.9377C9.37334 20.9377 16.8598 22.4124 17.0764 24.4644C17.3754 27.3002 8.734 30.466 2.01062 27.5168C2.01062 27.5168 2.01062 27.7642 2.05187 28.187C3.36148 28.8573 6.3107 29.9916 10.6417 29.342Z" fill="url(#paint20_linear_202_12120)"/>
<path d="M12.5082 8.99644C12.5289 8.90363 12.5392 8.82113 12.5392 8.72833C12.5392 7.90337 11.8689 7.24341 11.0543 7.24341C10.2396 7.24341 9.56934 7.924 9.56934 8.73864C9.56934 8.89332 9.58996 9.02737 9.63121 9.17174C9.65183 9.17174 9.67246 9.18205 9.68277 9.18205C11.0749 9.27486 11.9926 9.1408 12.5082 8.99644Z" fill="#020202"/>
<path d="M26.6042 22.969C26.7486 24.9901 26.697 28.4652 24.8409 29.8161C24.8409 29.8161 25.0884 24.9076 23.5416 22.0203C23.5416 22.0203 26.2536 28.6405 21.5823 36.1373C21.5823 36.1373 20.2624 39.4474 17.2823 36.4157C14.3021 33.3737 10.3217 34.9721 10.3217 34.9721L11.8582 35.1886C11.8582 35.1886 10.3217 35.5805 9.71329 36.8488C9.1152 38.0966 6.16598 38.0553 2.70117 31.3629C3.34051 33.3634 4.54701 35.8795 6.84657 38.1997C6.84657 38.1997 8.71303 39.7155 10.0226 37.8285C11.3426 35.9311 13.1265 34.8586 14.6424 35.2505C16.1582 35.6423 17.5607 37.5603 18.1381 38.1894C18.7156 38.8184 21.1286 40.788 24.1809 32.4869C24.1912 32.4972 28.8007 29.9605 26.6042 22.969Z" fill="url(#paint21_linear_202_12120)"/>
<path d="M13.7256 29.0325C13.7256 29.0325 14.6433 29.5481 15.3239 28.7747C15.3239 28.7747 15.5817 28.6716 15.6952 28.7953C15.6745 28.7953 14.6846 28.0322 13.7256 29.0325Z" fill="#8C0000"/>
<path d="M15.6025 28.7461C15.6438 28.7667 15.6644 28.7873 15.6644 28.7873C15.6541 28.777 15.6335 28.7564 15.6025 28.7461Z" fill="#4A0100"/>
<path d="M15.6025 28.7461C15.3653 28.6017 14.53 28.1686 13.7051 29.0245C13.7051 29.0245 14.6332 29.1689 15.1075 28.7049L15.2931 28.777C15.3034 28.7667 15.4787 28.7049 15.6025 28.7461Z" fill="#4A0100"/>
<path opacity="0.6" d="M10.2805 5.60367C7.55817 5.41806 6.93945 8.43946 6.93945 8.43946C6.93945 8.43946 7.2385 8.97568 9.6618 9.1716C12.0851 9.36753 13.0441 8.80037 13.0441 8.80037C13.0441 8.80037 12.9926 5.77898 10.2805 5.60367ZM9.68243 9.04786C7.42411 8.86225 7.14569 8.36727 7.14569 8.36727C7.14569 8.36727 7.72316 5.5418 10.2599 5.71711C12.7966 5.89241 12.8482 8.70757 12.8482 8.70757C12.8482 8.70757 11.9511 9.23348 9.68243 9.04786Z" fill="url(#paint22_linear_202_12120)"/>
<path d="M15.2618 8.87261C15.2515 8.79012 15.2412 8.69731 15.2412 8.61481C15.2412 7.81048 15.8909 7.17114 16.6849 7.17114C17.4789 7.17114 18.1286 7.82079 18.1286 8.61481C18.1286 8.75918 18.1079 8.90355 18.0667 9.02729C18.0461 9.02729 18.0254 9.0376 18.0151 9.0376C16.6539 9.15103 15.7671 9.00667 15.2618 8.87261Z" fill="#020202"/>
<path opacity="0.6" d="M17.4375 5.57275C20.0774 5.39745 20.6755 8.32604 20.6755 8.32604C20.6755 8.32604 20.3867 8.84164 18.0356 9.03756C15.6845 9.23349 14.7461 8.67665 14.7461 8.67665C14.7461 8.67665 14.7977 5.74806 17.4375 5.57275ZM18.0047 8.92413C20.2011 8.73852 20.4795 8.26417 20.4795 8.26417C20.4795 8.26417 19.9227 5.52119 17.4478 5.68618C14.973 5.85118 14.9317 8.59415 14.9317 8.59415C14.9317 8.59415 15.8082 9.10975 18.0047 8.92413Z" fill="url(#paint23_linear_202_12120)"/>
<path d="M13.2607 7.69698L13.6423 8.31569L13.5804 7.58355L13.8073 8.06821L13.7867 7.04733L13.9516 7.90322L14.1166 6.70703L14.1373 8.22289L14.4672 7.42887C14.4672 7.42887 14.0135 8.86223 14.0135 9.43969L13.9001 8.35694V9.28502L13.7351 8.53224L13.7557 9.20252L13.2607 7.69698Z" fill="url(#paint24_linear_202_12120)"/>
<path opacity="0.3" d="M7.03223 8.83154C7.03223 8.83154 9.40397 10.2443 12.7554 9.12028C12.745 9.12028 9.75458 11.2342 7.03223 8.83154Z" fill="white"/>
<path opacity="0.3" d="M7.59961 9.87305C7.59961 9.87305 9.74449 11.1002 12.405 9.98648C12.405 9.97617 10.0126 12.0179 7.59961 9.87305Z" fill="white"/>
<path opacity="0.3" d="M14.9521 8.98613C14.9521 8.98613 17.8189 10.1411 20.5515 8.71802C20.5515 8.72833 18.1488 10.9866 14.9521 8.98613Z" fill="white"/>
<path opacity="0.3" d="M15.292 9.82129C15.292 9.82129 17.5297 10.8422 19.7983 9.85223C19.8086 9.85223 17.7359 11.6465 15.292 9.82129Z" fill="white"/>
<path opacity="0.3" d="M7.68262 6.36693C7.68262 6.36693 8.63132 5.06762 10.1162 5.10887C11.6012 5.15012 12.3127 6.06788 12.6323 6.57317C12.622 6.58348 10.4978 3.93331 7.68262 6.36693Z" fill="white"/>
<path opacity="0.3" d="M15.3232 6.2947C15.3232 6.2947 17.2825 3.73734 19.7368 6.14002C19.7368 6.12971 17.5609 4.38699 15.3232 6.2947Z" fill="white"/>
<path opacity="0.4" d="M27.0484 28.1045C26.1822 30.0431 25.0891 30.9403 25.0891 30.9403C25.1303 30.5587 25.1613 29.9916 25.1819 29.5379C25.0788 29.641 24.9653 29.7441 24.8416 29.8266C24.8416 29.8266 24.8519 29.6203 24.8519 29.2697C24.5941 31.229 24.1816 32.4974 24.1816 32.4974C24.1816 32.4974 26.4503 31.2496 27.0484 28.1045Z" fill="#660300"/>
<path opacity="0.15" d="M14.3027 29.4861C14.3027 29.4861 15.1071 29.5583 15.4577 29.0427C15.4577 29.0427 15.7567 29.9605 14.3027 29.4861Z" fill="white"/>
<path opacity="0.25" d="M6.24923 13.5028C6.24923 13.5028 5.47583 11.3991 7.20824 11.5744C8.94064 11.7497 13.7048 12.121 17.2005 11.3991C20.7169 10.6876 20.9334 10.6051 21.5625 11.4404C21.5625 11.4404 20.9025 10.7082 19.696 11.1001C18.4792 11.5022 13.5707 12.75 7.22886 11.8116C7.22886 11.8219 5.99143 11.626 6.24923 13.5028Z" fill="white"/>
<path d="M14.1269 20.3292C10.4971 20.1952 8.36251 18.1431 7.19727 16.3797C8.64094 18.8855 11.0436 20.7417 14.7353 20.6386C18.0764 20.5561 21.6237 15.431 21.8402 12.5437C21.1184 15.2661 18.7776 20.5045 14.1269 20.3292Z" fill="url(#paint25_radial_202_12120)"/>
<path opacity="0.7" d="M21.1572 12.0358C21.1056 13.6238 18.703 19.1923 14.341 19.4397C9.55626 19.7078 7.7723 15.5624 6.9061 13.6444C6.9061 13.6444 6.53487 12.7473 6.97828 12.3864C7.12265 12.2626 7.23608 12.2008 7.37013 12.1801C7.37013 12.1801 6.473 11.9842 6.67923 13.8919C6.75142 14.5725 6.85454 15.4078 7.14327 16.3049C8.57663 18.852 10.9999 20.7494 14.7329 20.6462C16.4859 20.5947 18.2802 19.1819 19.6413 17.4186C20.6828 15.6759 21.6419 13.5207 21.1572 12.0358Z" fill="url(#paint26_radial_202_12120)" fill-opacity="0.5"/>
<path opacity="0.7" d="M19.2389 11.5924C19.2389 11.5924 19.7648 11.3243 20.2701 11.3037C19.9195 11.2727 19.4452 11.2933 18.9605 11.5305C18.1252 11.9327 13.0002 12.8298 8.88574 12.4173C10.6594 12.6751 15.4854 13.2011 19.2389 11.5924Z" fill="url(#paint27_radial_202_12120)" fill-opacity="0.5"/>
<path d="M8.35254 16.3384C9.50748 18.0192 11.3327 19.597 14.3438 19.432C17.1177 19.2773 19.0976 16.9674 20.1906 14.905C14.2819 12.1621 9.56935 15.3691 8.35254 16.3384Z" fill="url(#paint28_radial_202_12120)"/>
<path opacity="0.3" d="M7.50684 15.3382C7.50684 15.3382 9.40423 19.927 14.1993 19.6589C19.0046 19.3908 21.0773 13.0283 21.0773 13.0283C21.0773 13.0283 19.3346 19.9889 14.1168 20.0507C8.88864 20.1126 7.50684 15.3382 7.50684 15.3382Z" fill="white"/>
<path opacity="0.3" d="M20.191 14.9155C19.6548 14.668 19.1289 14.4618 18.6236 14.3071C18.6236 14.3793 18.6236 14.4515 18.6133 14.5134C18.4586 14.5752 18.273 14.5031 18.1183 14.5959C18.407 15.0083 17.8605 14.9568 17.6027 14.9774C17.5614 15.2352 17.7986 15.3177 17.8399 15.5343C17.8914 15.8024 17.7367 16.1323 17.4893 16.0705C17.283 16.0189 17.1283 15.7302 16.953 15.6167C16.6024 15.3693 16.5096 15.4518 16.4478 15.7714C16.3962 16.0705 16.3962 16.2767 16.0456 16.1427C15.8394 16.0602 15.5197 15.6064 15.2619 15.823C15.035 16.0086 15.3856 16.6995 15.0969 16.8439C14.8185 16.9779 14.6844 16.4726 14.6329 16.3283C14.5091 15.9467 14.1688 15.9158 13.9213 16.2664C13.746 16.5036 13.8079 17.4523 13.3026 17.2357C13.0654 17.1326 13.0139 16.617 12.6839 16.8645C12.4467 17.0398 12.5498 17.7204 12.1271 17.7204C11.9208 17.7204 11.9518 17.6276 11.8899 17.4626C11.8589 17.3904 11.8486 17.2873 11.7971 17.2151C11.7558 17.1532 11.694 17.1842 11.663 17.1429C11.4877 16.8954 11.6218 16.5964 11.4671 16.3695C11.2093 16.0086 11.0134 16.3798 10.9824 16.6583C10.9515 16.916 10.9721 17.3698 10.5906 17.2048C10.5803 17.0295 10.6628 16.8439 10.5906 16.6789C10.4875 16.4005 10.2915 16.4726 10.0544 16.3798C10.0028 16.1014 10.3122 15.9158 10.2915 15.6889C10.2606 15.4414 10.0131 15.6477 9.86874 15.5239C9.85843 15.4414 9.86874 15.3693 9.87905 15.2971C9.14691 15.6992 8.60037 16.1014 8.29102 16.3489C9.44595 18.0297 11.2712 19.6075 14.2823 19.4425C17.118 19.2878 19.0979 16.9882 20.191 14.9155Z" fill="url(#paint29_linear_202_12120)"/>
<path opacity="0.6" d="M8.35254 16.3384C9.50748 18.0192 11.3327 19.597 14.3438 19.432C17.1177 19.2773 19.0976 16.9674 20.1906 14.905C14.2819 12.1621 9.56935 15.3691 8.35254 16.3384ZM11.7452 17.3387C9.90964 15.6578 13.1063 14.2451 13.6219 14.3276C14.1375 14.4101 14.4469 17.184 14.4469 17.184L14.4881 14.2451C14.4881 14.2451 16.4887 14.0492 17.2621 15.5753C18.0354 17.1015 13.5807 19.0195 11.7452 17.3387Z" fill="url(#paint30_radial_202_12120)"/>
<path opacity="0.4" d="M14.2509 13.9358C14.2509 13.9358 14.4778 15.596 14.3953 16.8644C14.3953 16.8644 14.2922 14.5648 13.8281 14.0595L14.2509 13.9358Z" fill="url(#paint31_linear_202_12120)"/>
<path d="M7.54785 11.8011C7.54785 11.8011 14.2815 12.6673 19.2931 11.1309C19.2828 11.1309 13.9103 13.6057 7.54785 11.8011Z" fill="url(#paint32_linear_202_12120)"/>
<path d="M7.89844 16.4209C7.89844 16.4209 10.2392 20.0094 14.2506 19.731C18.2619 19.4526 20.2934 15.2969 20.2934 15.2969C20.2934 15.2969 18.6744 20.4013 14.0547 20.4322C9.4246 20.4632 7.89844 16.4209 7.89844 16.4209Z" fill="url(#paint33_linear_202_12120)"/>
<path d="M3.12402 19.5559C3.12402 19.5559 12.1779 20.948 16.3233 24.0313C16.3336 24.0313 9.97115 21.5461 3.12402 19.5559Z" fill="url(#paint34_linear_202_12120)"/>
<path opacity="0.4" d="M15.499 24.2787C15.4784 24.1962 15.53 24.0724 15.5403 23.9899C15.5815 23.7218 15.7568 23.6599 15.7259 23.2887C14.8906 22.9793 14.0657 22.67 13.447 22.4844C13.4573 22.4947 13.4573 22.4947 13.4573 22.4947V22.5669C13.0345 22.8144 13.9007 22.9072 13.6326 23.2371C13.9625 23.1959 13.7976 23.5156 13.746 23.6496C13.6635 23.8765 13.6635 24.0209 13.7563 24.2271C13.8594 24.454 13.8491 24.5468 13.8491 24.7942C13.8491 24.8974 13.8904 24.9902 13.8801 25.083C13.8697 25.1758 13.7872 25.248 13.7769 25.3305C13.7563 25.578 13.9522 25.5367 14.076 25.7223C14.21 25.9079 14.0863 26.0729 14.0141 26.2585C13.9625 26.3823 13.8182 26.6916 13.9729 26.8154C14.1688 26.9804 14.2925 26.7123 14.3132 26.5782C14.3338 26.4545 14.2719 26.341 14.2719 26.2379C14.2719 26.0832 14.3235 26.0523 14.3647 25.9183C14.4575 25.6192 14.3028 25.578 14.21 25.3202C14.1172 25.052 14.3132 24.9386 14.3132 24.6808C14.3132 24.5158 14.0657 24.1755 14.2822 24.093C14.2925 24.0415 14.241 23.928 14.2616 23.9074C14.2925 23.8146 14.2925 23.8456 14.3441 23.7631C14.406 23.6702 14.5194 23.5259 14.6328 23.6084C14.7463 23.6909 14.6534 23.8765 14.6844 24.0002C14.7153 24.124 14.8391 24.2065 14.7772 24.3921C14.7359 24.5055 14.5606 24.5571 14.54 24.6808C14.5194 24.8355 14.6638 24.8664 14.6844 25.0005C14.7153 25.1655 14.571 25.2273 14.5813 25.3923C14.5916 25.5367 14.7256 25.6192 14.705 25.7739C14.87 25.8461 14.9731 25.7636 15.0453 25.6089C15.1484 25.3923 14.9937 25.3717 14.9628 25.1861C14.9525 25.083 15.0144 25.0314 15.0247 24.9386C15.035 24.8046 15.0144 24.8252 14.9937 24.7221C14.9525 24.5674 14.9216 24.4333 14.9216 24.258C14.9216 23.9796 15.1897 23.5362 15.2825 23.9899C15.3237 24.1549 15.2928 24.2477 15.365 24.423C15.4268 24.588 15.4165 24.6808 15.4165 24.8664C15.6125 24.9799 15.695 24.6602 15.6537 24.5055C15.6021 24.4024 15.5197 24.3611 15.499 24.2787Z" fill="url(#paint35_linear_202_12120)"/>
<path d="M19.5415 18.8717C19.4693 19.4079 19.3868 20.9341 20.5417 20.9341C21.6967 20.9341 21.5007 19.2739 21.5007 19.2739C21.5007 19.2739 21.4801 17.9746 20.2324 16.83C20.2117 16.9125 19.6446 18.1396 19.5415 18.8717Z" fill="#920B04" fill-opacity="0.779"/>
<path d="M20.2321 16.8403C20.2321 16.9125 19.3968 18.1499 19.304 18.8821C19.2318 19.4183 19.17 20.6454 20.3249 20.6454C21.4799 20.6454 21.2839 18.9852 21.2839 18.9852C21.2839 18.9852 21.2221 18.0468 20.2321 16.8403V16.8197V16.8403Z" fill="url(#paint36_linear_202_12120)"/>
<path d="M20.3044 19.305C21.1603 19.305 21.0159 18.2944 21.0159 18.2944C21.0159 18.2944 20.9643 17.5726 20.2322 16.8405C20.2322 16.8405 19.665 17.8201 19.5516 18.2326C19.5 18.5522 19.4588 19.305 20.3044 19.305Z" fill="url(#paint37_linear_202_12120)" fill-opacity="0.7"/>
<path d="M21.1395 18.9542C21.1395 18.9542 21.1189 18.3974 20.6445 17.6343C20.9539 18.253 20.9745 18.6655 20.9745 18.6655C20.9745 18.6655 21.1498 20.1607 20.1083 20.1607C19.768 20.1607 19.5515 20.0473 19.4071 19.872C19.5205 20.1916 19.768 20.4494 20.2733 20.4494C21.3148 20.4597 21.1395 18.9542 21.1395 18.9542Z" fill="url(#paint38_linear_202_12120)"/>
<path opacity="0.3" d="M9.1875 3.99518C9.1875 3.99518 12.0852 3.64458 13.0442 5.85133C13.0442 5.85133 12.7554 4.54172 13.0029 4.4386C13.2401 4.32517 13.5907 6.43911 13.5907 6.43911C13.5907 6.43911 13.7248 5.28418 13.8072 5.26355C13.9001 5.24293 13.9001 6.11944 13.9001 6.11944C13.9001 6.11944 14.0754 4.11893 14.4466 4.0983C14.8178 4.07768 14.4878 6.23287 14.4878 6.23287C14.4878 6.23287 15.1478 3.96425 17.9939 4.05705C17.9939 4.05705 16.0759 3.59302 14.8178 4.88201C14.8178 4.88201 14.9519 3.59302 14.5085 3.59302C14.065 3.59302 13.8485 4.90263 13.8485 4.90263C13.8485 4.90263 13.8279 4.59328 13.7557 4.59328C13.6835 4.59328 13.601 5.49041 13.601 5.49041C13.601 5.49041 13.137 3.76832 12.8792 3.83019C12.6111 3.90238 12.7245 4.83045 12.7245 4.83045C12.7245 4.83045 11.5592 3.54146 9.1875 3.99518Z" fill="white"/>
<path d="M13.8016 10.8221C13.8016 10.8221 13.8429 10.4509 13.4407 10.4715C13.0489 10.5025 12.4095 10.9149 13.8016 10.8221Z" fill="#AF2419"/>
<path d="M13.4407 10.4818C13.2448 10.4921 12.9973 10.6056 12.9561 10.6984C13.0386 10.7293 13.3273 10.8324 13.7088 10.7293L13.8119 10.8427C13.8016 10.8221 13.8429 10.4509 13.4407 10.4818Z" fill="#95110A"/>
<path d="M13.7711 10.6364C13.7299 10.5436 13.6371 10.4714 13.4515 10.4817C13.2658 10.492 13.0184 10.5951 12.9668 10.6879C13.1215 10.6982 13.5443 10.7395 13.7711 10.6364Z" fill="#6E0301"/>
<path d="M14.0451 10.8219C14.0451 10.8219 14.0039 10.4507 14.4061 10.4713C14.7979 10.5022 15.4373 10.9147 14.0451 10.8219Z" fill="#AF2419"/>
<path d="M14.4064 10.4816C14.6023 10.4919 14.8498 10.6053 14.891 10.6981C14.8086 10.7291 14.5198 10.8322 14.1383 10.7291L14.0352 10.8425C14.0455 10.8219 14.0145 10.4506 14.4064 10.4816Z" fill="#95110A"/>
<path d="M14.0869 10.6364C14.1282 10.5436 14.221 10.4714 14.4066 10.4817C14.5922 10.492 14.8397 10.5951 14.8912 10.6879C14.7366 10.6982 14.3138 10.7395 14.0869 10.6364Z" fill="#6E0301"/>
<path opacity="0.2" d="M14.3339 19.4321C17.1078 19.2774 19.0877 16.9675 20.1808 14.9051C19.9333 14.7814 19.6858 14.6783 19.4383 14.5854C19.4486 14.7917 19.4074 14.9876 19.2424 15.0495C18.9949 15.132 18.9537 14.9154 18.8609 15.2351C18.7784 15.4826 18.6959 15.3485 18.4896 15.4104C18.2937 15.462 18.3556 15.627 18.3659 15.7816C18.3865 16.1941 18.3453 16.6478 17.8503 16.6478C17.6544 16.6478 17.4688 16.5241 17.2728 16.5447C17.1903 16.555 17.1697 16.555 17.1078 16.6066C17.0357 16.6581 16.9944 16.8128 16.9222 16.8231C16.7985 16.8335 16.7366 16.5344 16.5716 16.6891C16.4272 16.8231 16.6335 17.1222 16.3757 17.1841C16.1901 17.2356 16.0766 16.9984 15.8807 17.05C15.6951 17.1016 15.757 17.3181 15.7467 17.4934C15.726 17.7615 15.6435 17.7718 15.3961 17.6893C15.2929 17.6481 15.262 17.6378 15.1692 17.6481C15.0764 17.6584 14.9836 17.71 14.8805 17.6481C14.7567 17.5759 14.767 17.4315 14.6536 17.3387C14.5711 17.2666 14.3133 17.1016 14.2205 17.2047C14.138 17.2872 14.2617 17.6172 14.2617 17.7409C14.2514 17.8853 14.3442 18.2359 14.2102 18.2977C14.1174 18.339 13.8183 18.2771 13.7461 18.2153C13.6121 18.1018 13.5812 17.8543 13.4471 17.7203C13.3234 17.6068 13.0965 17.5656 12.9728 17.6893C12.849 17.8131 12.9728 18.0709 12.8903 18.2256C12.8078 18.4009 12.5809 18.4421 12.4159 18.3802C12.2303 18.3081 12.2406 18.1328 12.1272 18.0296C11.9725 17.8853 11.6838 18.0399 11.5394 17.9059C11.395 17.7718 11.4981 17.5553 11.4363 17.3903C11.4156 17.349 11.3332 17.2047 11.2919 17.1944C11.1888 17.1634 11.1682 17.2562 11.096 17.2872C11.0444 17.3181 10.931 17.3078 10.8794 17.3594C10.7969 17.4315 10.8382 17.5037 10.8176 17.5965C10.7557 17.844 10.5391 17.7925 10.3535 17.71C10.1885 17.6481 10.1782 17.5656 10.1782 17.3903C10.1782 17.2562 10.1679 17.0294 10.0751 16.9263C9.97198 16.8025 9.80699 16.885 9.66262 16.8335C9.63168 16.6685 9.82761 16.5344 9.70387 16.4107C9.63168 16.3385 9.54919 16.3797 9.50794 16.2869C9.46669 16.2147 9.52856 16.091 9.49763 16.0085C9.42544 15.7404 9.25014 15.9672 9.14702 15.8332C9.1264 15.8023 9.1264 15.761 9.13671 15.7095C8.75517 15.9569 8.46643 16.1735 8.27051 16.3282C9.49763 18.0193 11.3228 19.6074 14.3339 19.4321Z" fill="url(#paint39_linear_202_12120)"/>
<path d="M13.2297 11.6879C13.704 11.6673 14.1784 11.6364 14.6734 11.5951C14.8796 11.492 15.0652 11.3682 15.158 11.2239C15.3436 10.9248 15.1477 10.5845 15.0446 10.4299C15.1374 10.6052 15.1065 10.9248 14.9002 11.0176C14.6527 11.1311 13.3019 11.2136 12.9306 10.9867C12.5594 10.7702 12.8069 10.3989 12.8069 10.3989C12.3222 11.1104 12.7657 11.492 13.2297 11.6879Z" fill="url(#paint40_linear_202_12120)"/>
<path d="M12.7969 11.0691C13.0754 11.3682 13.3332 11.5538 13.5085 11.6775C13.8488 11.6569 14.1994 11.6363 14.5603 11.6054C14.7768 11.4507 15.1996 11.1104 15.2099 10.7392C15.1687 10.6154 15.1068 10.502 15.0553 10.4401C15.1481 10.6154 15.1171 10.9351 14.9109 11.0279C14.6634 11.1413 13.3125 11.2238 12.9413 10.997C12.5701 10.7804 12.8176 10.4092 12.8176 10.4092C12.7041 10.5639 12.6423 10.7082 12.6113 10.832C12.6629 10.9042 12.7144 10.9866 12.7969 11.0691Z" fill="url(#paint41_linear_202_12120)"/>
<path opacity="0.5" d="M12.5907 14.2141C10.4768 14.7916 8.96094 15.8537 8.35254 16.3487C9.50748 18.0295 11.3327 19.6073 14.3438 19.4423C17.1177 19.2876 19.0976 16.9777 20.1906 14.9153C18.3654 14.0595 16.6536 13.781 15.1275 13.8326C15.8906 13.9357 18.0664 14.3276 18.5098 15.4C19.0563 16.7096 16.0143 17.9367 14.4572 18.112C12.8898 18.2873 10.2706 17.9058 10.3531 16.2146C10.384 15.2453 11.5802 14.5854 12.5907 14.2141Z" fill="url(#paint42_radial_202_12120)"/>
<path opacity="0.3" d="M12.9307 10.3163C12.9307 10.3163 13.8484 9.94511 14.9415 10.3163C14.9415 10.3163 13.9515 9.62544 12.9307 10.3163Z" fill="white"/>
<path d="M15.3854 22.6082C15.3854 22.6082 16.1897 22.5979 16.2516 21.9379C16.3134 21.2573 15.8906 17.3594 15.8906 17.3594C15.8906 17.3594 15.8597 16.4004 14.6326 16.4004C13.4158 16.4004 13.3745 17.3594 13.3745 17.3594C13.3745 17.3594 12.9621 21.2573 12.993 21.9379C13.0342 22.6082 13.8695 22.6082 13.8695 22.6082H14.6326H15.3854Z" fill="url(#paint43_radial_202_12120)" fill-opacity="0.2"/>
<path d="M15.3691 24.1608C15.3485 24.0783 15.4001 23.9546 15.4104 23.8721C15.4516 23.6039 15.6166 23.3977 15.7094 23.1399C14.8742 22.8305 13.9358 22.5418 13.3171 22.3562C13.3274 22.3665 13.3274 22.3665 13.3274 22.3665V22.4387C12.9046 22.6862 13.7708 22.779 13.5027 23.109C13.8327 23.0677 13.6677 23.3874 13.6161 23.5214C13.5336 23.7483 13.5336 23.8927 13.6264 24.0989C13.7295 24.3258 13.7192 24.4186 13.7192 24.6661C13.7192 24.7692 13.7605 24.862 13.7502 24.9548C13.7399 25.0476 13.6574 25.1198 13.6471 25.2023C13.6264 25.4498 13.8224 25.4085 13.9461 25.5941C14.0802 25.7798 13.9564 25.9448 13.8842 26.1304C13.8327 26.2541 13.6883 26.5635 13.843 26.6872C14.0389 26.8522 14.1626 26.5841 14.1833 26.45C14.2039 26.3263 14.142 26.2129 14.142 26.0994C14.142 25.9448 14.1936 25.9138 14.2348 25.7798C14.3276 25.4807 14.173 25.4395 14.0802 25.1817C13.9873 24.9136 14.1833 24.8001 14.1833 24.5423C14.1833 24.3773 13.9358 24.037 14.1523 23.9546C14.1626 23.903 14.1111 23.7896 14.1214 23.7689C14.1523 23.6761 14.1523 23.7071 14.2039 23.6246C14.2658 23.5318 14.3792 23.3874 14.4926 23.4699C14.6061 23.5524 14.5133 23.738 14.5442 23.8617C14.5751 23.9855 14.6989 24.068 14.637 24.2536C14.5957 24.367 14.4204 24.4186 14.3998 24.5423C14.3792 24.697 14.5236 24.7279 14.5442 24.862C14.5751 25.027 14.4308 25.0889 14.4411 25.2539C14.4514 25.3982 14.5854 25.4807 14.5648 25.6354C14.7298 25.7076 14.8329 25.6251 14.9051 25.4704C15.0082 25.2539 14.8535 25.2332 14.8226 25.0476C14.802 24.9445 14.8742 24.8929 14.8845 24.8001C14.8948 24.6661 14.8742 24.6867 14.8535 24.5836C14.8123 24.4289 14.7814 24.2948 14.7814 24.1195C14.7814 23.8411 15.0495 23.3977 15.1423 23.8514C15.1835 24.0164 15.1526 24.1092 15.2248 24.2845C15.2866 24.4495 15.2763 24.5423 15.2763 24.7279C15.4723 24.8414 15.5548 24.5217 15.5135 24.367C15.462 24.2948 15.3898 24.2536 15.3691 24.1608Z" fill="url(#paint44_linear_202_12120)"/>
<path d="M13.3166 22.3768V22.449C12.8938 22.6965 13.7601 22.7893 13.4919 23.1193C13.7497 23.078 13.7085 23.274 13.6466 23.4286C13.6569 23.4286 13.6672 23.4183 13.6776 23.4183C13.8013 23.408 13.8013 23.4699 13.8941 23.5008C13.925 23.5111 14.0282 23.5111 14.0488 23.5318C14.1003 23.573 14.0694 23.6761 14.1003 23.7174C14.1107 23.7277 14.121 23.738 14.1416 23.7483C14.1622 23.7071 14.1725 23.7071 14.2035 23.6452C14.2653 23.5524 14.3788 23.408 14.4922 23.4905C14.585 23.5627 14.5334 23.7071 14.5334 23.8308C14.6159 23.8102 14.6778 23.7792 14.7809 23.7792C14.8119 23.8102 14.8325 23.8411 14.8531 23.8617C14.9459 23.6658 15.0903 23.5627 15.1522 23.8721C15.1625 23.9133 15.1728 23.9545 15.1728 23.9855C15.2553 23.9545 15.3378 23.9236 15.4306 23.9339C15.4409 23.9133 15.4409 23.8927 15.4409 23.8721C15.4821 23.6039 16.0905 23.2843 15.6678 23.0883C14.8222 22.779 13.9663 22.5418 13.3373 22.3562C13.3166 22.3665 13.3166 22.3768 13.3166 22.3768Z" fill="url(#paint45_linear_202_12120)"/>
<path d="M14.7998 25.3299C14.841 25.3402 14.8823 25.3505 14.9235 25.3505C14.9339 25.2371 14.8307 25.1855 14.8101 25.0515C14.7895 24.9484 14.8617 24.8968 14.872 24.804C14.8823 24.6699 14.8617 24.6906 14.841 24.5874C14.8307 24.5668 14.8307 24.5462 14.8204 24.5256C14.6761 24.5049 14.5317 24.5049 14.3873 24.4946C14.377 24.5049 14.377 24.5153 14.377 24.5256C14.3564 24.6802 14.5008 24.7112 14.5214 24.8452C14.542 24.9587 14.4801 25.0205 14.4492 25.103C14.6039 25.0927 14.7586 25.2062 14.7998 25.3299Z" fill="url(#paint46_linear_202_12120)"/>
<path d="M13.7072 24.1234C13.6659 24.0925 13.635 24.0718 13.5938 24.0615C13.6041 24.0821 13.6041 24.0821 13.6144 24.1028C13.7175 24.3296 13.7072 24.4224 13.7072 24.6699C13.7072 24.773 13.7484 24.8659 13.7381 24.9587C13.7278 25.0515 13.6453 25.1237 13.635 25.2061C13.635 25.2061 13.635 25.2061 13.635 25.2165C13.6453 25.2165 13.6453 25.2165 13.6453 25.2061C13.8206 25.1546 13.9031 25.4227 14.099 25.3711C14.1197 25.3608 14.13 25.3608 14.1506 25.3505C14.1197 25.299 14.099 25.2474 14.0681 25.1855C13.9753 24.9174 14.1712 24.804 14.1712 24.5462C14.1712 24.5256 14.1712 24.5152 14.1609 24.4946C14.099 24.4843 14.0372 24.474 13.9753 24.4534C13.8928 24.3709 13.8103 24.2059 13.7072 24.1234Z" fill="url(#paint47_linear_202_12120)"/>
<path d="M15.4909 24.4661C15.4909 24.4351 15.4909 24.4042 15.4806 24.3733C15.46 24.2908 15.3775 24.2495 15.3569 24.1567C15.3362 24.0742 15.3878 23.9505 15.3981 23.868V23.8577C15.3053 23.8577 15.2022 23.868 15.1094 23.8577V23.868C15.1506 24.033 15.1197 24.1258 15.1919 24.3011C15.2228 24.3733 15.2331 24.4248 15.2434 24.4867C15.3259 24.4558 15.4187 24.4558 15.4909 24.4661Z" fill="url(#paint48_linear_202_12120)"/>
<path d="M14.7688 24.1362C14.7688 24.0228 14.8204 23.8681 14.8822 23.7753C14.841 23.7444 14.7997 23.7238 14.7379 23.7238C14.6554 23.7134 14.5935 23.7341 14.5213 23.7444C14.511 23.7959 14.511 23.8372 14.5213 23.8784C14.5523 24.0022 14.676 24.0847 14.6141 24.2703C14.5729 24.3837 14.3976 24.4353 14.377 24.559V24.5796C14.4594 24.5796 14.4904 24.6106 14.5626 24.6312C14.6348 24.6621 14.7379 24.6621 14.841 24.6518C14.841 24.6415 14.841 24.6312 14.8307 24.6106C14.7997 24.4559 14.7688 24.3115 14.7688 24.1362Z" fill="url(#paint49_linear_202_12120)"/>
<path d="M14.1296 23.9608C14.1399 23.9093 14.0884 23.7958 14.0987 23.7752C14.1296 23.6927 14.1296 23.703 14.1709 23.6515C14.1503 23.6205 14.1503 23.5896 14.1296 23.538C14.0987 23.4452 14.0678 23.4246 13.975 23.4143C13.9337 23.4143 13.8925 23.4349 13.8512 23.4246C13.81 23.4143 13.7687 23.373 13.7275 23.3524C13.6965 23.3421 13.6759 23.3318 13.6553 23.3318C13.6347 23.404 13.6037 23.4762 13.5831 23.5174C13.5006 23.7443 13.5006 23.8886 13.5934 24.0949C13.614 24.1258 13.6243 24.1567 13.6347 24.1877C13.6965 24.2392 13.7584 24.2908 13.7997 24.3527C13.9028 24.5073 13.944 24.5383 14.1296 24.5486H14.1606V24.5383C14.1606 24.3939 13.9234 24.0536 14.1296 23.9608Z" fill="url(#paint50_linear_202_12120)"/>
<path opacity="0.3" d="M14.6056 23.2534C14.6675 23.2741 14.6984 23.305 14.6984 23.3669C14.6984 23.4081 14.6984 23.4597 14.7087 23.5009C14.7087 23.5422 14.7087 23.5422 14.7396 23.5422C14.7706 23.5422 14.8737 23.5112 14.8737 23.5525C14.9149 23.5628 14.9562 23.47 14.9871 23.4494C15.0284 23.4287 15.0696 23.4597 15.0902 23.4906C15.1109 23.5112 15.1006 23.5525 15.1315 23.5628C15.1624 23.5731 15.1727 23.5525 15.1934 23.5525C15.2243 23.5525 15.214 23.5731 15.2346 23.5834C15.2655 23.5937 15.2655 23.5525 15.2759 23.5319C15.2965 23.4906 15.3274 23.4597 15.3584 23.4391C15.379 23.4287 15.4099 23.4184 15.4409 23.4184C15.4512 23.4184 15.4718 23.439 15.4821 23.4287C15.513 23.4081 15.513 23.305 15.5027 23.2741C15.4821 23.2225 15.4202 23.1916 15.3687 23.2019C15.348 23.2019 15.3274 23.2122 15.3068 23.2328C15.2965 23.2431 15.2862 23.2741 15.2862 23.2844C15.2449 23.3153 15.214 23.2637 15.2037 23.2328C15.1831 23.1916 15.1727 23.1503 15.1418 23.1297C15.0799 23.0781 14.9871 23.0884 14.9356 23.1503C14.8943 23.1813 14.8943 23.2431 14.8634 23.2741C14.8324 23.305 14.8221 23.2328 14.7912 23.2122C14.7293 23.1606 14.6468 23.2122 14.585 23.2328" fill="white"/>
<path opacity="0.3" d="M13.7912 23.5215C13.75 23.5319 13.719 23.604 13.719 23.6453C13.719 23.7072 13.7809 23.7175 13.7912 23.769C13.8119 23.8515 13.719 23.9031 13.6984 23.9753C13.6675 24.099 13.8222 24.0784 13.8325 24.1815C13.8325 24.2021 13.8222 24.2228 13.8428 24.2331C13.8634 24.2537 13.915 24.264 13.9356 24.2537C13.9665 24.2331 13.9872 24.1712 13.9975 24.1403C14.0181 24.0887 14.0284 24.0371 14.0387 23.9856C14.0593 23.9237 14.1006 23.8618 14.0696 23.7897C14.0387 23.7278 13.9872 23.7072 13.9459 23.6762C13.915 23.6453 13.8943 23.604 13.8634 23.5834C13.8222 23.5628 13.8222 23.5525 13.8119 23.5112" fill="white"/>
<path opacity="0.3" d="M13.8635 24.5835C13.8532 24.6351 13.9151 24.666 13.9048 24.7176C13.8945 24.7588 13.8635 24.8 13.8635 24.8413C13.8635 24.8825 13.9048 24.9444 13.8842 24.9857C13.8739 25.0372 13.812 25.0682 13.781 25.1094C13.7501 25.161 13.7295 25.1919 13.7604 25.2435C13.7914 25.295 13.8429 25.326 13.9048 25.3053C14.0285 25.2641 13.977 25.1094 13.9667 25.0269C13.9667 24.9857 13.9667 24.9547 13.977 24.9135C13.9976 24.8619 13.9873 24.8413 13.9667 24.7897C13.946 24.7279 13.9873 24.6041 13.8945 24.6041" fill="white"/>
<path opacity="0.3" d="M13.9762 26.1509C13.9247 26.2128 13.8731 26.285 13.8525 26.3572C13.8422 26.3881 13.8319 26.4397 13.8422 26.4706C13.8731 26.5531 13.9453 26.5531 13.9968 26.5015C14.0484 26.45 14.0793 26.3778 14.0896 26.3056C14.1 26.2541 14.0896 26.2334 14.0587 26.2128C14.0381 26.1922 14.0278 26.1612 14.0072 26.1406" fill="white"/>
<path opacity="0.3" d="M14.6472 24.3877C14.6369 24.4186 14.5957 24.4496 14.575 24.4702C14.5441 24.5011 14.5028 24.5321 14.4822 24.563C14.4513 24.6042 14.4204 24.6867 14.4513 24.7177C14.4719 24.7383 14.4925 24.7383 14.5132 24.7589C14.5338 24.7795 14.5544 24.8105 14.5647 24.8311C14.5853 24.862 14.5853 24.9342 14.6163 24.9549C14.6575 24.9755 14.6988 24.9342 14.6988 24.893C14.7091 24.8414 14.6885 24.7899 14.7194 24.7383C14.7503 24.6867 14.7606 24.6352 14.7503 24.5733C14.7503 24.5527 14.7297 24.5321 14.7194 24.5114C14.7091 24.4908 14.6885 24.4805 14.6678 24.4599C14.6575 24.4496 14.6575 24.4393 14.6575 24.4289" fill="white"/>
<path opacity="0.3" d="M14.564 25.0992C14.5331 25.1301 14.5124 25.192 14.5021 25.2332C14.4918 25.2951 14.5537 25.3054 14.5949 25.3364C14.6362 25.3776 14.6155 25.3982 14.6362 25.4395C14.6568 25.4807 14.698 25.4704 14.7187 25.4498C14.8012 25.3982 14.8218 25.2332 14.7496 25.1714C14.729 25.1507 14.698 25.1198 14.6774 25.1095C14.6465 25.0992 14.6052 25.0992 14.5846 25.0889" fill="white"/>
<path opacity="0.3" d="M15.2764 24.2742C15.3176 24.3154 15.3279 24.4392 15.3176 24.4907C15.3073 24.532 15.297 24.5629 15.2867 24.5938C15.2661 24.6763 15.3486 24.697 15.3898 24.6248C15.4207 24.5835 15.4414 24.5217 15.4414 24.4701C15.431 24.4185 15.4001 24.4082 15.3795 24.3773C15.3589 24.3567 15.3589 24.336 15.3382 24.3154C15.3176 24.3051 15.3073 24.2948 15.297 24.2742" fill="white"/>
<path d="M14.6425 22.3195H15.3747C15.3747 22.3195 16.0243 22.3091 16.0759 21.6801C16.1378 21.0408 15.849 17.3491 15.849 17.3491C15.849 17.3491 15.8181 16.4417 14.6322 16.4417H14.6425C13.467 16.4417 13.4257 17.3491 13.4257 17.3491C13.4257 17.3491 13.1679 21.0408 13.1989 21.6801C13.2401 22.3195 13.9001 22.3195 13.9001 22.3195H14.6425Z" fill="url(#paint51_linear_202_12120)"/>
<path d="M14.6326 22.3194H15.2925C15.9525 22.3194 16.0866 21.8657 16.0866 21.6182C15.8597 21.8657 15.4782 21.9378 15.2616 22.0203C14.9729 22.1441 14.7151 22.1234 14.5707 22.0925C14.4263 22.0719 14.416 21.9791 13.9417 22.041C13.6942 22.0719 13.4261 21.9378 13.2198 21.8141C13.3023 22.1131 13.488 22.3194 13.9726 22.3194H14.6326Z" fill="url(#paint52_linear_202_12120)" fill-opacity="0.7"/>
<path d="M16.0145 20.0818C16.0248 20.1437 16.0248 20.2055 16.0248 20.2674C15.7773 20.1437 15.5195 20.2055 15.2102 20.3396C14.808 20.5252 14.3543 20.4015 13.9005 20.2365C13.6634 20.1437 13.4056 20.2055 13.2303 20.2777C13.2096 20.6902 13.189 21.0511 13.1787 21.278C13.2921 21.3295 13.4571 21.3605 13.6324 21.2986C13.6324 21.2986 14.0655 21.4223 14.2821 21.3914C14.2821 21.3914 14.3646 21.3708 14.4883 21.4327C14.6121 21.4945 14.7667 21.4945 14.8492 21.443C14.8492 21.443 15.107 21.4533 15.1999 21.3914C15.1999 21.3914 15.3648 21.3811 15.4267 21.3398C15.4267 21.3398 15.6742 21.3295 15.8083 21.2058C15.8083 21.2058 15.9423 21.2058 16.0764 21.1955C16.0557 20.948 16.0351 20.5458 16.0145 20.0818Z" fill="url(#paint53_linear_202_12120)"/>
<path d="M15.6533 21.1129C15.8596 21.1335 15.9936 21.1335 16.0761 21.1232C16.0658 20.9376 16.0555 20.7107 16.0452 20.4529C15.973 20.4529 15.9008 20.4529 15.8493 20.4426C15.7461 20.4323 15.5502 20.4839 15.4471 20.5251C15.344 20.5767 15.2409 20.5664 15.1171 20.5457C14.9934 20.5251 14.9624 20.4736 14.7974 20.5354C14.6221 20.5973 14.4572 20.6179 14.4572 20.6179C14.4572 20.6179 14.4159 20.5973 14.3437 20.6076C14.2715 20.6179 14.0962 20.5973 14.0962 20.5973L13.8694 20.6179C13.6838 20.7107 13.3435 20.6489 13.2197 20.6282C13.2094 20.7417 13.2094 20.8551 13.1991 20.9479C13.5497 20.8963 13.7353 21.1026 13.7353 21.1026C14.055 20.9995 14.2406 21.1438 14.2406 21.1438C14.7046 21.0098 15.2099 21.082 15.6533 21.1129Z" fill="url(#paint54_linear_202_12120)"/>
<path d="M15.8492 17.3078C15.7461 16.4004 14.6531 16.4107 14.6531 16.4107C14.6531 16.4107 13.5291 16.3901 13.4259 17.3078C13.3847 17.6275 13.3434 18.2565 13.3125 18.9268C13.4259 19.1124 13.5806 19.298 13.7353 19.3496C14.1065 19.4733 14.1375 19.2362 14.6531 19.4011C15.1686 19.5558 15.3543 19.3496 15.6017 19.2362C15.7152 19.1846 15.8595 19.2155 15.9833 19.2774C15.9317 18.4731 15.8905 17.6791 15.8492 17.3078Z" fill="url(#paint55_linear_202_12120)"/>
<path d="M15.9729 19.2257C15.9729 19.2464 15.9729 19.267 15.9832 19.2876C15.8492 19.2257 15.7151 19.1948 15.6017 19.2464C15.3542 19.3701 15.1686 19.566 14.653 19.4114C14.1374 19.2567 14.0961 19.4939 13.7352 19.3598C13.5702 19.3082 13.4258 19.1226 13.3124 18.937C13.2815 19.401 13.2609 19.8857 13.2402 20.2982C13.4258 20.226 13.6733 20.1641 13.9105 20.2569C14.3642 20.4219 14.818 20.5354 15.2201 20.3601C15.5295 20.2157 15.7976 20.1641 16.0348 20.2879C16.0141 19.9373 15.9935 19.5867 15.9729 19.2257Z" fill="url(#paint56_linear_202_12120)"/>
<path d="M15.9729 19.2257C15.9729 19.2464 15.9729 19.267 15.9832 19.2876C15.8492 19.2257 15.7151 19.1948 15.6017 19.2464C15.3542 19.3701 15.1686 19.566 14.653 19.4114C14.1374 19.2567 14.0961 19.4939 13.7352 19.3598C13.5702 19.3082 13.4258 19.1226 13.3124 18.937C13.2815 19.401 13.2609 19.8857 13.2402 20.2982C13.4258 20.226 13.6733 20.1641 13.9105 20.2569C14.3642 20.4219 14.818 20.5354 15.2201 20.3601C15.5295 20.2157 15.7976 20.1641 16.0348 20.2879C16.0141 19.9373 15.9935 19.5867 15.9729 19.2257Z" fill="url(#paint57_linear_202_12120)"/>
<path d="M13.9726 21.6801C13.9623 21.6698 13.952 21.6492 13.9417 21.6285C13.9313 21.6182 13.9313 21.5976 13.921 21.5873C13.9107 21.6182 13.921 21.6492 13.9417 21.6698C13.952 21.6801 13.9726 21.6904 13.9726 21.7213V21.7316C13.9726 21.711 13.9726 21.6904 13.9726 21.6801Z" fill="#3FB5BA"/>
<path opacity="0.3" d="M13.7041 19.7828C13.5803 19.7622 13.5597 20.0509 13.6732 20.0818C13.7866 20.1128 13.8072 19.9272 13.7763 19.8653C13.7556 19.824 13.735 19.7828 13.6938 19.7828" fill="url(#paint58_radial_202_12120)"/>
<path opacity="0.3" d="M13.7047 19.8137C13.6119 19.7828 13.6737 19.9066 13.684 19.9478C13.7253 19.9581 13.7253 19.855 13.715 19.8344" fill="white"/>
<path opacity="0.3" d="M13.6738 20.0716C13.6222 20.0612 13.6016 19.9994 13.6016 19.9478C13.5913 20.02 13.6222 20.0922 13.6738 20.1128C13.7666 20.1334 13.7872 20.02 13.7872 19.9375C13.7769 20.0097 13.746 20.0922 13.6738 20.0716Z" fill="#FE980E"/>
<path opacity="0.3" d="M15.0143 19.5869C14.9627 19.5869 14.8905 19.6075 14.8493 19.6385C14.8287 19.6488 14.8184 19.6694 14.8184 19.69C14.8287 19.721 14.8493 19.7313 14.8699 19.7416C14.9215 19.7725 14.9524 19.7828 15.0143 19.7622C15.0555 19.7519 15.1174 19.7313 15.138 19.69C15.169 19.6385 15.0658 19.5869 15.0143 19.5869Z" fill="url(#paint59_radial_202_12120)"/>
<path opacity="0.3" d="M14.8901 19.6796C14.8695 19.6693 14.8798 19.6487 14.9005 19.6384C14.9211 19.628 14.952 19.628 14.9726 19.6177C15.0139 19.6074 15.0655 19.5971 15.0964 19.628C15.0551 19.628 15.0139 19.628 14.983 19.6487C14.9726 19.6487 14.9005 19.7105 14.8901 19.6796Z" fill="white"/>
<path opacity="0.3" d="M15.1376 19.6899C15.117 19.7312 15.0551 19.7518 15.0139 19.7621C14.952 19.7724 14.921 19.7724 14.8695 19.7415C14.8489 19.7312 14.8282 19.7209 14.8179 19.7003C14.8076 19.7106 14.8076 19.7209 14.8076 19.7312C14.8179 19.7518 14.8386 19.7724 14.8592 19.7827C14.9107 19.8137 14.9417 19.824 15.0035 19.8034C15.0448 19.7931 15.1067 19.7724 15.1273 19.7312C15.1479 19.7106 15.1376 19.7003 15.1376 19.6899Z" fill="#FE980E"/>
<path opacity="0.3" d="M15.6533 19.7416C15.6636 19.6901 15.6017 19.6694 15.5605 19.6694C15.4986 19.6797 15.5089 19.7519 15.4986 19.7932C15.4883 19.8344 15.4677 19.886 15.4883 19.9375C15.4986 19.9788 15.5399 20.02 15.5605 20.0613C15.5811 20.1128 15.5708 20.1644 15.5811 20.216C15.5914 20.2675 15.643 20.2882 15.6946 20.2675C15.7771 20.2263 15.7564 20.051 15.7255 19.9891C15.7049 19.9479 15.6842 19.9272 15.6739 19.886C15.6636 19.855 15.6842 19.7622 15.6636 19.7416" fill="url(#paint60_radial_202_12120)"/>
<path opacity="0.3" d="M15.5603 19.7105C15.5603 19.7002 15.55 19.7002 15.5397 19.7002C15.5294 19.7311 15.4778 19.8961 15.5294 19.8961C15.5397 19.8652 15.55 19.8343 15.5603 19.8033C15.5706 19.7724 15.5913 19.7621 15.5913 19.7208C15.5809 19.7105 15.5706 19.7105 15.5603 19.7105Z" fill="white"/>
<path opacity="0.3" d="M15.6839 20.2572C15.6427 20.2778 15.5808 20.2469 15.5705 20.2057C15.5602 20.1541 15.5705 20.1025 15.5499 20.051C15.5293 20.0097 15.4983 19.9685 15.4777 19.9272C15.4571 19.8757 15.4777 19.8241 15.488 19.7829C15.488 19.7623 15.488 19.7313 15.4983 19.7107C15.4674 19.7313 15.4777 19.7829 15.4674 19.8138C15.4571 19.8551 15.4364 19.9169 15.4571 19.9582C15.4674 19.9994 15.5086 20.0407 15.5293 20.0819C15.5499 20.1335 15.5396 20.185 15.5499 20.2366C15.5602 20.2882 15.6117 20.3088 15.6633 20.2882C15.6839 20.2778 15.7046 20.2572 15.7149 20.2263C15.7046 20.2469 15.6942 20.2572 15.6839 20.2572Z" fill="#FE980E"/>
<path opacity="0.3" d="M15.5915 20.4324C15.5812 20.4118 15.5812 20.3809 15.5812 20.3602C15.5709 20.3087 15.4884 20.3293 15.4678 20.3499C15.4368 20.3809 15.4059 20.4324 15.4162 20.4737C15.4368 20.5562 15.5606 20.649 15.6431 20.618C15.6946 20.5974 15.6946 20.5355 15.6534 20.5046C15.6224 20.484 15.5812 20.4634 15.5812 20.4221" fill="url(#paint61_radial_202_12120)"/>
<path opacity="0.3" d="M15.4986 20.3704C15.4676 20.3807 15.4058 20.4426 15.478 20.4529C15.4883 20.4323 15.5089 20.422 15.5192 20.4014C15.5295 20.3807 15.5295 20.3601 15.4986 20.3704Z" fill="white"/>
<path opacity="0.3" d="M15.6429 20.618C15.5604 20.6592 15.4366 20.5561 15.416 20.4736V20.5149C15.4366 20.5974 15.5604 20.6902 15.6429 20.6592C15.6738 20.6386 15.6841 20.6077 15.6841 20.5768C15.6738 20.5974 15.6532 20.6077 15.6429 20.618Z" fill="#6CAF11"/>
<path opacity="0.3" d="M13.7045 20.5767C13.6942 20.5561 13.7149 20.5252 13.7149 20.5046C13.7149 20.4839 13.7252 20.4427 13.7149 20.4221C13.6942 20.3705 13.6324 20.3602 13.5911 20.3808C13.4674 20.453 13.5086 20.6077 13.6221 20.6592C13.5808 20.7005 13.5396 20.7417 13.5396 20.8036C13.5396 20.8552 13.5808 20.917 13.6427 20.9273C13.7149 20.9377 13.7252 20.8552 13.6942 20.8139C13.6736 20.783 13.6736 20.7727 13.7045 20.7417C13.7252 20.7211 13.7458 20.7108 13.7561 20.6799C13.7664 20.6489 13.7458 20.6386 13.7252 20.6283C13.7045 20.618 13.7045 20.6077 13.7045 20.5767Z" fill="url(#paint62_radial_202_12120)"/>
<path opacity="0.3" d="M13.6529 20.4118C13.622 20.3706 13.4879 20.4943 13.5601 20.5562C13.6117 20.6077 13.5911 20.5252 13.6014 20.4943C13.6117 20.4737 13.6632 20.4221 13.6529 20.4118Z" fill="white"/>
<path opacity="0.3" d="M13.6325 20.6592C13.6429 20.6385 13.6635 20.6282 13.6738 20.6592C13.6841 20.6798 13.6532 20.7004 13.6429 20.7107C13.6325 20.7314 13.6119 20.7417 13.6119 20.7623C13.6016 20.7829 13.6222 20.8139 13.6016 20.8345C13.5604 20.886 13.55 20.7932 13.5604 20.7726C13.581 20.721 13.6325 20.7107 13.6325 20.6592Z" fill="white"/>
<path opacity="0.3" d="M13.5909 20.7006C13.6012 20.6902 13.6115 20.6799 13.6218 20.6696C13.5496 20.6284 13.5084 20.5459 13.529 20.4634C13.4774 20.5459 13.5084 20.649 13.5909 20.7006Z" fill="#6CAF11"/>
<path opacity="0.3" d="M13.6325 20.9273C13.581 20.9169 13.5294 20.8551 13.5294 20.8035C13.5294 20.7829 13.5397 20.7726 13.5397 20.752C13.5191 20.7726 13.5088 20.8035 13.5088 20.8344C13.5088 20.886 13.55 20.9479 13.6016 20.9582C13.6428 20.9685 13.6635 20.9376 13.6635 20.9066C13.6738 20.9273 13.6532 20.9273 13.6325 20.9273Z" fill="#6CAF11"/>
<path opacity="0.3" d="M15.1272 20.783C15.0447 20.783 15.0344 20.8861 15.0344 20.9479C15.0241 20.9995 15.0241 21.0717 15.086 21.082C15.1478 21.0923 15.1685 21.0511 15.1788 20.9995C15.1788 20.9583 15.22 20.8861 15.2097 20.8448C15.1994 20.8242 15.1685 20.7933 15.1478 20.783" fill="url(#paint63_radial_202_12120)"/>
<path opacity="0.3" d="M15.1068 20.814C15.0656 20.7933 15.0449 20.9686 15.0552 20.9996C15.0759 20.9996 15.0965 20.9274 15.1068 20.9068C15.1171 20.8861 15.1584 20.8552 15.148 20.8243C15.1377 20.814 15.1171 20.8037 15.1068 20.814Z" fill="white"/>
<path opacity="0.3" d="M15.1685 20.9892C15.1582 21.051 15.1478 21.082 15.0757 21.0717C15.0344 21.0717 15.0241 21.0304 15.0241 20.9995C15.0138 21.051 15.0241 21.1026 15.0757 21.1026C15.1375 21.1129 15.1582 21.0717 15.1685 21.0201C15.1685 20.9789 15.2097 20.917 15.1994 20.8757C15.1891 20.9273 15.1685 20.9685 15.1685 20.9892Z" fill="#6CAF11"/>
<path opacity="0.3" d="M14.0958 21.5461C14.1164 21.4945 14.1267 21.4326 14.0752 21.412C14.0133 21.3811 13.9721 21.4223 13.9411 21.4739C13.9205 21.5255 13.8999 21.5976 13.9308 21.6389C13.9411 21.6595 13.9617 21.6698 13.9617 21.6904C13.9721 21.7214 13.9617 21.7523 13.9721 21.7729C14.003 21.907 14.1577 21.8451 14.1989 21.7523C14.2195 21.7008 14.1989 21.6595 14.1577 21.6389C14.1164 21.608 14.0752 21.577 14.0958 21.5461Z" fill="url(#paint64_radial_202_12120)"/>
<path opacity="0.3" d="M14.0137 21.4224C14.0137 21.4224 13.9312 21.5461 13.9828 21.5358C14.0137 21.5255 14.0653 21.4224 14.0137 21.4224Z" fill="white"/>
<path opacity="0.3" d="M13.9828 21.7317C14.0137 21.7626 14.0653 21.7729 14.0962 21.7523C14.1168 21.742 14.1271 21.711 14.1478 21.711C14.1787 21.7007 14.1684 21.7317 14.1581 21.7523C14.1375 21.7935 14.1065 21.8142 14.0653 21.8245C14.024 21.8348 13.9725 21.8142 13.9828 21.7626" fill="white"/>
<path opacity="0.3" d="M14.1888 21.742C14.1475 21.8348 13.9928 21.8967 13.9619 21.7626V21.8039C13.9928 21.9379 14.1475 21.8761 14.1888 21.7832C14.1991 21.7626 14.1991 21.742 14.1991 21.7317C14.1991 21.7317 14.1991 21.7317 14.1888 21.742Z" fill="#3FB5BA"/>
<path opacity="0.3" d="M14.2819 21.4635C14.2097 21.4429 14.1994 21.6285 14.3128 21.6079C14.3541 21.5976 14.3747 21.5563 14.3644 21.5151C14.3541 21.4841 14.3128 21.4635 14.2819 21.4635Z" fill="url(#paint65_radial_202_12120)"/>
<path opacity="0.3" d="M14.2715 21.4945C14.2302 21.4842 14.2406 21.5358 14.2818 21.5254C14.3231 21.5151 14.2921 21.4842 14.2715 21.4945Z" fill="white"/>
<path opacity="0.3" d="M14.3022 21.5978C14.2507 21.6081 14.23 21.5771 14.2197 21.5359C14.2094 21.5874 14.2404 21.639 14.3022 21.6287C14.3435 21.6184 14.3641 21.5771 14.3538 21.5462C14.3435 21.5771 14.3332 21.5978 14.3022 21.5978Z" fill="#3FB5BA"/>
<path opacity="0.3" d="M15.5609 21.4738C15.5402 21.4223 15.4681 21.4326 15.4268 21.4635C15.3856 21.4945 15.3443 21.5563 15.334 21.6079C15.3237 21.6595 15.3546 21.7007 15.4062 21.7007C15.4577 21.7007 15.5093 21.6595 15.5299 21.6182C15.5609 21.5666 15.5712 21.5151 15.5609 21.4738Z" fill="url(#paint66_radial_202_12120)"/>
<path opacity="0.3" d="M15.5086 21.4636C15.457 21.4326 15.3126 21.5976 15.3745 21.6286C15.4055 21.6079 15.4261 21.5873 15.4467 21.5564C15.457 21.5357 15.4673 21.5254 15.4879 21.5048C15.4879 21.4945 15.4983 21.4739 15.5086 21.4636Z" fill="white"/>
<path opacity="0.3" d="M15.5604 21.5049C15.5604 21.5461 15.5398 21.5874 15.5192 21.6183C15.4986 21.6596 15.4367 21.7008 15.3954 21.7008C15.3542 21.7008 15.3336 21.6699 15.3233 21.6493C15.313 21.7008 15.3439 21.7421 15.3954 21.7421C15.447 21.7421 15.4986 21.7008 15.5192 21.6596C15.5604 21.5977 15.5708 21.5564 15.5604 21.5049Z" fill="#3FB5BA"/>
<path opacity="0.3" d="M15.5917 22.0205C15.6021 21.9792 15.5299 21.938 15.4989 21.938C15.4371 21.938 15.4268 22.0102 15.4268 22.0617C15.4268 22.1236 15.4577 22.3092 15.5608 22.2473C15.5917 22.2267 15.6021 22.1855 15.6021 22.1545C15.6021 22.1339 15.6124 22.1133 15.6124 22.0927C15.6021 22.0617 15.5814 22.0514 15.5917 22.0205Z" fill="url(#paint67_radial_202_12120)"/>
<path opacity="0.3" d="M15.4887 21.9792C15.4475 21.9689 15.4372 22.1339 15.4784 22.1545C15.5197 22.1752 15.5197 22.0823 15.5197 22.0617C15.5197 22.0205 15.499 21.9998 15.4681 21.9895" fill="white"/>
<path opacity="0.3" d="M15.5498 22.2472C15.4467 22.3091 15.4157 22.1235 15.4157 22.0616C15.4157 22.041 15.426 22.0204 15.426 21.9998C15.4054 22.0307 15.3951 22.0616 15.3951 22.0926C15.3848 22.1544 15.426 22.34 15.5291 22.2782C15.5498 22.2679 15.5601 22.2472 15.5704 22.2266C15.5704 22.2369 15.5601 22.2472 15.5498 22.2472Z" fill="#3FB5BA"/>
<path opacity="0.3" d="M13.849 17.0913C13.7975 17.112 13.7459 17.1532 13.7562 17.2151C13.7665 17.277 13.8387 17.3079 13.88 17.2563C13.9109 17.2254 13.8903 17.1945 13.9109 17.1635C13.9212 17.1532 13.9728 17.1532 13.9831 17.1429C14.0243 17.1017 14.0449 17.0501 14.0243 16.9882C14.1068 16.9985 14.2512 17.0707 14.3234 16.9985C14.3956 16.916 14.2306 16.8748 14.1687 16.8542C14.0759 16.8335 13.9728 16.7717 13.9006 16.8439C13.8696 16.8748 13.849 16.8954 13.8387 16.9367C13.8284 16.9779 13.8696 17.0501 13.8593 17.0707C13.8593 17.081 13.849 17.081 13.849 17.081" fill="url(#paint68_radial_202_12120)"/>
<path opacity="0.3" d="M13.88 17.1121C13.8594 17.1224 13.8078 17.1533 13.8387 17.1739C13.8697 17.1739 13.8903 17.1327 13.88 17.1121Z" fill="white"/>
<path opacity="0.3" d="M13.8799 16.9161V16.9367C13.9108 16.9573 13.9314 16.8955 13.9521 16.8955C13.983 16.8851 14.0346 16.8955 14.0655 16.9058C14.1067 16.9161 14.1377 16.9264 14.1686 16.9367C14.1892 16.9367 14.2099 16.9367 14.2202 16.947C14.2408 16.947 14.2511 16.9573 14.2717 16.9573C14.2717 16.947 14.2717 16.947 14.2717 16.947C14.2099 16.9058 14.1377 16.9058 14.0758 16.8851C14.0242 16.8645 13.9005 16.8439 13.8902 16.9264" fill="white"/>
<path d="M14.3137 16.9941C14.2415 17.0766 14.0971 16.9941 14.0146 16.9838C14.0146 16.9941 14.0146 17.0147 14.0146 17.025C14.0971 17.0353 14.2312 17.1075 14.3034 17.025C14.324 17.0044 14.324 16.9838 14.324 16.9631C14.324 16.9838 14.324 16.9838 14.3137 16.9941Z" fill="#FBB316"/>
<path d="M13.8595 17.0765C13.8698 17.0559 13.8492 17.0146 13.8389 16.9734V16.9837C13.8389 17.0043 13.8492 17.0456 13.8595 17.0765Z" fill="#FBB316"/>
<path d="M13.9837 17.1384C13.9631 17.1487 13.9218 17.1487 13.9115 17.159C13.8909 17.19 13.9012 17.2209 13.8806 17.2518C13.8393 17.3034 13.7671 17.2725 13.7568 17.2209V17.2518C13.7671 17.3137 13.8393 17.3446 13.8806 17.2931C13.9115 17.2621 13.8909 17.2312 13.9115 17.2003C13.9218 17.19 13.9734 17.19 13.9837 17.1797C14.0249 17.1487 14.0353 17.0972 14.0353 17.0559C14.0249 17.0868 14.0043 17.1178 13.9837 17.1384Z" fill="#FBB316"/>
<path opacity="0.3" d="M14.2203 17.7307C14.1585 17.772 14.0966 17.8338 14.0863 17.9163C14.076 17.9782 14.1275 18.0091 14.1791 17.9885C14.2307 17.9679 14.2719 17.9163 14.2822 17.8648C14.2925 17.8235 14.2822 17.741 14.2203 17.7513" fill="url(#paint69_radial_202_12120)"/>
<path opacity="0.3" d="M14.2094 17.7617C14.1785 17.772 14.127 17.8442 14.127 17.8648C14.1579 17.8752 14.2198 17.7927 14.2094 17.7617Z" fill="white"/>
<path opacity="0.3" d="M14.1891 17.9782C14.1375 17.9988 14.0962 17.9782 14.0962 17.9266C14.0962 17.9266 14.0962 17.9266 14.0859 17.9266C14.0859 17.9885 14.1478 18.0297 14.2097 18.0091C14.2612 17.9885 14.2819 17.9163 14.2819 17.8647C14.2716 17.9163 14.2303 17.9576 14.1891 17.9782Z" fill="#FBB316"/>
<path opacity="0.3" d="M13.3439 18.4526C13.3336 18.5454 13.3232 18.6383 13.3232 18.7311C13.3439 18.7207 13.3748 18.7207 13.3954 18.7207C13.416 18.7104 13.4367 18.7001 13.447 18.6795C13.4676 18.6383 13.4779 18.5764 13.4676 18.5351C13.4367 18.4836 13.3954 18.4526 13.3439 18.4526Z" fill="url(#paint70_radial_202_12120)"/>
<path opacity="0.3" d="M13.3541 18.4833C13.3437 18.473 13.3541 18.4833 13.3541 18.4833C13.3747 18.5143 13.3747 18.5452 13.4262 18.5452C13.4366 18.504 13.385 18.4627 13.3438 18.473" fill="white"/>
<path opacity="0.3" d="M13.4672 18.5762C13.4672 18.6174 13.4672 18.6587 13.4466 18.6793C13.4362 18.6999 13.4156 18.7205 13.395 18.7205C13.3744 18.7309 13.3434 18.7309 13.3228 18.7309C13.3228 18.7515 13.3228 18.7721 13.3125 18.803C13.3331 18.7927 13.3537 18.7927 13.3537 18.7927C13.395 18.7721 13.4259 18.7412 13.4466 18.6999C13.4775 18.669 13.4878 18.6071 13.4672 18.5762Z" fill="#FBB316"/>
<path opacity="0.3" d="M14.8901 18.1018C14.7767 18.0709 14.5705 18.339 14.7561 18.3596C14.818 18.37 14.8592 18.339 14.9005 18.2875C14.9314 18.2462 14.9417 18.1843 14.9314 18.1431C14.9211 18.1328 14.9108 18.1018 14.8901 18.1018Z" fill="url(#paint71_radial_202_12120)"/>
<path opacity="0.3" d="M14.8692 18.1226C14.8279 18.1226 14.7248 18.1947 14.7351 18.2463C14.7763 18.2463 14.8692 18.1535 14.8692 18.1226Z" fill="white"/>
<path opacity="0.3" d="M14.9007 18.2876C14.8595 18.3391 14.8182 18.3701 14.7564 18.3598C14.7151 18.3494 14.6842 18.3391 14.6842 18.3082C14.6739 18.3494 14.6945 18.3907 14.7564 18.3907C14.8182 18.401 14.8595 18.3701 14.9007 18.3185C14.9213 18.2876 14.942 18.236 14.9317 18.2051C14.9213 18.236 14.911 18.267 14.9007 18.2876Z" fill="#FBB316"/>
<path opacity="0.3" d="M15.426 18.1534C15.3641 18.1431 15.3229 18.2771 15.3229 18.3184C15.3126 18.3802 15.3538 18.4318 15.4157 18.4009C15.4672 18.3699 15.4879 18.3184 15.4879 18.2668C15.4879 18.2359 15.4672 18.1431 15.426 18.1534C15.426 18.1637 15.426 18.1534 15.426 18.1534Z" fill="url(#paint72_radial_202_12120)"/>
<path opacity="0.3" d="M15.4061 18.1843C15.3752 18.1946 15.3442 18.2668 15.3546 18.2978C15.3855 18.3184 15.4474 18.1843 15.4061 18.1843Z" fill="white"/>
<path opacity="0.3" d="M15.4157 18.401C15.3641 18.432 15.3332 18.3907 15.3229 18.3495V18.3598C15.3126 18.4217 15.3538 18.4732 15.4157 18.4423C15.4672 18.4217 15.4879 18.3598 15.4879 18.3082V18.2876C15.4775 18.3288 15.4569 18.3804 15.4157 18.401Z" fill="#FBB316"/>
<path opacity="0.3" d="M13.7871 18.8341C13.6943 18.8237 13.5706 18.9578 13.6531 19.03C13.7149 19.0815 13.8696 19.0919 13.8902 18.9887C13.9005 18.9372 13.8284 18.8341 13.7871 18.8341Z" fill="url(#paint73_radial_202_12120)"/>
<path opacity="0.3" d="M13.6936 18.8856C13.673 18.8753 13.6523 18.8959 13.6523 18.9165C13.6833 18.9268 13.6936 18.9062 13.7142 18.8959C13.7452 18.8856 13.7658 18.8959 13.7967 18.8856C13.807 18.8237 13.6833 18.8546 13.6627 18.8856" fill="white"/>
<path opacity="0.3" d="M13.653 19.0301C13.6323 19.0095 13.622 18.9991 13.622 18.9785C13.6117 19.0095 13.622 19.0404 13.653 19.061C13.7148 19.1126 13.8695 19.1229 13.8901 19.0198V18.9888C13.8592 19.0816 13.7045 19.0713 13.653 19.0301Z" fill="#FBB316"/>
<path opacity="0.3" d="M14.6637 18.7825C14.5916 18.7825 14.5709 18.8547 14.5606 18.9165C14.5503 18.9578 14.5297 19.03 14.6019 19.03C14.6637 19.03 14.7256 18.8237 14.6637 18.7825Z" fill="url(#paint74_radial_202_12120)"/>
<path opacity="0.3" d="M14.6323 18.8134C14.5911 18.8237 14.5704 18.9165 14.5808 18.9475C14.6117 18.9578 14.6323 18.9062 14.6323 18.8856C14.6323 18.865 14.6632 18.8031 14.6323 18.8134Z" fill="white"/>
<path opacity="0.3" d="M14.5912 19.03C14.5602 19.03 14.5499 19.0094 14.5396 18.9887C14.5293 19.03 14.5396 19.0609 14.5912 19.0609C14.6427 19.0609 14.6943 18.9372 14.684 18.865C14.684 18.9372 14.6427 19.03 14.5912 19.03Z" fill="#FBB316"/>
<path opacity="0.3" d="M15.6634 18.566C15.5809 18.5247 15.4365 18.5763 15.4365 18.6794C15.4365 18.7825 15.5809 18.8547 15.6634 18.8238C15.7149 18.8135 15.7562 18.7516 15.7562 18.6897C15.7459 18.6382 15.7046 18.5866 15.6634 18.566Z" fill="url(#paint75_radial_202_12120)"/>
<path opacity="0.3" d="M15.6838 18.6174C15.6426 18.5762 15.4879 18.5659 15.4776 18.6484C15.457 18.7103 15.5498 18.669 15.5704 18.6587C15.6013 18.6381 15.6529 18.6484 15.6838 18.6174Z" fill="white"/>
<path opacity="0.3" d="M15.7459 18.7103C15.7356 18.7619 15.6943 18.7928 15.6634 18.8134C15.5809 18.8444 15.4468 18.7722 15.4365 18.6897V18.7103C15.4365 18.8134 15.5809 18.8856 15.6634 18.8547C15.7149 18.8341 15.7562 18.7722 15.7459 18.7103C15.7459 18.7206 15.7459 18.7206 15.7459 18.7103Z" fill="#FBB316"/>
<path d="M14.6427 22.3149H14.2921V23.0058C14.2921 23.0574 14.4468 23.1811 14.6427 23.1811C14.8386 23.1811 14.9933 23.1399 14.9933 23.0883V22.3149H14.6427Z" fill="url(#paint76_linear_202_12120)"/>
<path opacity="0.5" d="M14.8803 22.3151V23.0575C14.8803 23.1091 14.7256 23.1503 14.5297 23.1503C14.4575 23.1503 14.4472 23.1091 14.3956 23.0988C14.4575 23.1194 14.5091 23.1813 14.6328 23.1813C14.8287 23.1813 14.9834 23.14 14.9834 23.0885V22.3151H14.8803Z" fill="#CB9257"/>
<path d="M14.3341 23.0162C14.3341 23.0162 14.3444 23.0162 14.3341 23.0162L14.3444 22.315L14.3341 22.2015V23.0162Z" fill="#CB9257"/>
<path d="M14.798 23.1605L14.8083 22.3046H14.798V23.1605Z" fill="#CB9257"/>
<path d="M14.5919 23.1709H14.6435H14.6538V22.3047H14.6435H14.5919V23.1709Z" fill="#CB9257"/>
<path d="M14.8907 23.1398C14.9011 23.1295 14.9114 23.1295 14.9217 23.1295V22.3046H14.8907V23.1398Z" fill="#CB9257"/>
<path d="M14.3859 23.1398L14.3962 22.3046H14.3859V23.1398Z" fill="#CB9257"/>
<path d="M14.4786 23.14C14.4889 23.14 14.4993 23.1503 14.5096 23.1503V22.3151H14.4786V23.171V23.14Z" fill="#CB9257"/>
<path d="M14.6954 23.1708L14.7057 22.3046H14.6954V23.1708Z" fill="#CB9257"/>
<path opacity="0.5" d="M14.5082 22.6849C14.5082 22.6849 14.436 22.6127 14.3844 22.6746C14.3329 22.7262 14.3844 22.8602 14.4978 22.8293C14.4978 22.8293 14.5288 22.8602 14.5288 22.9015C14.5288 22.9427 14.4875 23.0046 14.4875 23.0561C14.4875 23.1077 14.6319 23.1799 14.6216 23.0458C14.6216 23.0458 14.735 22.9015 14.6731 22.8396C14.6731 22.8396 14.7144 22.7777 14.7556 22.7777C14.7969 22.7777 14.8794 22.7262 14.8381 22.6746C14.7969 22.623 14.7556 22.5612 14.6422 22.6643C14.5185 22.7571 14.5082 22.6849 14.5082 22.6849Z" fill="url(#paint77_radial_202_12120)"/>
<path opacity="0.7" d="M14.4568 22.6746C14.4362 22.6746 14.4156 22.6643 14.4053 22.6746C14.395 22.6953 14.4156 22.7056 14.4259 22.7159C14.4362 22.7262 14.4671 22.7365 14.4671 22.7159C14.4775 22.7056 14.4671 22.6849 14.4568 22.6746Z" fill="white"/>
<path opacity="0.7" d="M14.5284 22.7365C14.5594 22.7262 14.5903 22.7159 14.6316 22.6953C14.6316 22.6953 14.6316 22.6953 14.6316 22.685C14.6522 22.6747 14.6728 22.6747 14.6831 22.6644C14.7037 22.6541 14.7141 22.6437 14.7244 22.6334C14.7553 22.6128 14.8069 22.6541 14.7656 22.6747C14.7244 22.685 14.6934 22.6953 14.6625 22.7159C14.6212 22.7262 14.58 22.7365 14.5491 22.7365" fill="white"/>
<path opacity="0.7" d="M14.5707 22.9015C14.5707 22.9221 14.5191 22.9943 14.55 22.9943C14.5707 22.9943 14.5913 22.9221 14.5707 22.9015Z" fill="white"/>
<path d="M14.5287 22.9011V22.8805C14.5287 22.8393 14.4978 22.8083 14.4978 22.8083C14.4256 22.8289 14.374 22.7774 14.3637 22.7258C14.3534 22.7877 14.405 22.8702 14.4978 22.8496C14.4978 22.8599 14.5184 22.8805 14.5287 22.9011Z" fill="#CB9257"/>
<path d="M14.7555 22.7568C14.7142 22.7568 14.673 22.8187 14.673 22.8187C14.6833 22.829 14.6833 22.829 14.6833 22.8393C14.7039 22.829 14.7245 22.7878 14.7555 22.7878C14.7864 22.7878 14.8689 22.7362 14.838 22.6949C14.8277 22.7362 14.7761 22.7568 14.7555 22.7568Z" fill="#CB9257"/>
<path d="M14.6938 22.8805C14.6835 22.9527 14.6216 23.0249 14.6216 23.0249C14.6319 23.1486 14.5082 23.097 14.4875 23.0455V23.0764C14.4875 23.128 14.6319 23.2002 14.6216 23.0661C14.6216 23.0661 14.7041 22.9527 14.6938 22.8805Z" fill="#CB9257"/>
<path d="M14.2928 22.7629C14.3134 22.7732 14.3031 22.7939 14.3031 22.897C14.4474 23.0001 14.6949 23.1032 14.9527 23.1548C14.9733 23.1651 14.9837 23.0517 14.994 23.062C15.0971 23.1342 15.2105 23.2167 15.3136 23.3198C15.3136 23.3198 14.4165 23.4023 13.9834 22.7526C13.9834 22.7526 14.1071 22.7423 14.3031 22.7733L14.2928 22.7629Z" fill="#FBB040"/>
<path d="M14.0035 22.7525C14.7047 23.2474 14.6325 23.1443 15.3131 23.299C15.21 23.1959 15.0862 23.1031 14.9831 23.0309C14.9522 23.0618 14.9728 23.1237 14.9109 23.1237C14.7356 23.0927 14.3953 22.9278 14.3025 22.8762C14.2819 22.8556 14.3128 22.7628 14.2922 22.7421C14.1066 22.7112 13.9932 22.7318 13.9932 22.7318C13.9932 22.7525 14.0035 22.7525 14.0035 22.7525Z" fill="#EA6709"/>
<path d="M12.9206 8.00635C11.2604 8.55288 9.21866 8.26415 8.36277 8.09916C8.31121 8.30539 8.28027 8.52194 8.28027 8.74881C8.28027 8.8313 8.29059 8.9138 8.29059 8.99629C8.6515 9.06848 9.09492 9.13035 9.65176 9.18191C12.0751 9.38815 13.0341 8.81068 13.0341 8.81068C13.0341 8.81068 13.0341 8.46007 12.9206 8.00635Z" fill="url(#paint78_linear_202_12120)"/>
<path d="M9.87855 7.93435C10.3228 7.93435 10.6829 7.57423 10.6829 7.13001C10.6829 6.68579 10.3228 6.32568 9.87855 6.32568C9.43433 6.32568 9.07422 6.68579 9.07422 7.13001C9.07422 7.57423 9.43433 7.93435 9.87855 7.93435Z" fill="white"/>
<path d="M10.6524 8.41905C10.8973 8.41905 11.0958 8.22053 11.0958 7.97564C11.0958 7.73075 10.8973 7.53223 10.6524 7.53223C10.4075 7.53223 10.209 7.73075 10.209 7.97564C10.209 8.22053 10.4075 8.41905 10.6524 8.41905Z" fill="white"/>
<path d="M18.0249 9.03758C18.5714 8.98602 19.0045 8.92414 19.3448 8.86227C19.3551 8.77978 19.3551 8.70759 19.3551 8.6251C19.3551 8.37761 19.3138 8.14044 19.252 7.91357C17.5608 8.27449 15.55 8.05794 14.8385 7.95482C14.7354 8.37761 14.7354 8.68697 14.7354 8.68697C14.7354 8.68697 15.6737 9.2335 18.0249 9.03758Z" fill="url(#paint79_linear_202_12120)"/>
<path d="M17.778 7.99611C18.2222 7.99611 18.5823 7.636 18.5823 7.19178C18.5823 6.74756 18.2222 6.38745 17.778 6.38745C17.3337 6.38745 16.9736 6.74756 16.9736 7.19178C16.9736 7.636 17.3337 7.99611 17.778 7.99611Z" fill="white"/>
<path d="M17.004 8.48082C17.2489 8.48082 17.4474 8.2823 17.4474 8.03741C17.4474 7.79252 17.2489 7.59399 17.004 7.59399C16.7591 7.59399 16.5605 7.79252 16.5605 8.03741C16.5605 8.2823 16.7591 8.48082 17.004 8.48082Z" fill="white"/>
</g>
<defs>
<linearGradient id="paint0_linear_202_12120" x1="13.8074" y1="40.2555" x2="13.8074" y2="35.9188" gradientUnits="userSpaceOnUse">
<stop stop-color="#E6E7E8"/>
<stop offset="1" stop-color="#A7A9AC"/>
</linearGradient>
<linearGradient id="paint1_linear_202_12120" x1="13.8073" y1="39.553" x2="13.8073" y2="37.1676" gradientUnits="userSpaceOnUse">
<stop stop-color="#E6E7E8"/>
<stop offset="1" stop-color="#A7A9AC"/>
</linearGradient>
<radialGradient id="paint2_radial_202_12120" cx="0" cy="0" r="1" gradientUnits="userSpaceOnUse" gradientTransform="translate(24.5221 11.1759) scale(1.16699 0.896647)">
<stop stop-color="#FF8B6C"/>
<stop offset="1" stop-color="#CE4920"/>
</radialGradient>
<linearGradient id="paint3_linear_202_12120" x1="24.0571" y1="12.2243" x2="24.3441" y2="11.3806" gradientUnits="userSpaceOnUse">
<stop stop-color="#B32000"/>
<stop offset="1" stop-color="#C7392E"/>
</linearGradient>
<radialGradient id="paint4_radial_202_12120" cx="0" cy="0" r="1" gradientUnits="userSpaceOnUse" gradientTransform="translate(3.06452 11.2002) scale(1.1446 0.879443)">
<stop stop-color="#FF8B6C"/>
<stop offset="1" stop-color="#CE4920"/>
</radialGradient>
<linearGradient id="paint5_linear_202_12120" x1="3.26785" y1="12.2536" x2="3.25634" y2="11.4157" gradientUnits="userSpaceOnUse">
<stop stop-color="#B32000"/>
<stop offset="1" stop-color="#C7392E"/>
</linearGradient>
<radialGradient id="paint6_radial_202_12120" cx="0" cy="0" r="1" gradientUnits="userSpaceOnUse" gradientTransform="translate(13.5411 4.27425) scale(13.6168 19.3423)">
<stop stop-color="#F28567"/>
<stop offset="1" stop-color="#BF441E"/>
</radialGradient>
<linearGradient id="paint7_linear_202_12120" x1="14.0019" y1="0.918833" x2="14.0019" y2="15.5322" gradientUnits="userSpaceOnUse">
<stop stop-color="#B11A0A" stop-opacity="0.25"/>
<stop offset="1" stop-color="#B11A0A"/>
</linearGradient>
<linearGradient id="paint8_linear_202_12120" x1="9.99764" y1="6.29183" x2="9.99764" y2="8.18643" gradientUnits="userSpaceOnUse">
<stop stop-color="white"/>
<stop offset="1" stop-color="#DDC48C"/>
</linearGradient>
<radialGradient id="paint9_radial_202_12120" cx="0" cy="0" r="1" gradientUnits="userSpaceOnUse" gradientTransform="translate(9.85558 7.18201) scale(2.27035 1.47675)">
<stop stop-color="#6CAF11"/>
<stop offset="0.3299" stop-color="#6AAC10"/>
<stop offset="0.6098" stop-color="#64A10F"/>
<stop offset="0.8706" stop-color="#59900C"/>
<stop offset="1" stop-color="#52840A"/>
</radialGradient>
<linearGradient id="paint10_linear_202_12120" x1="17.6976" y1="5.7318" x2="17.6976" y2="7.70845" gradientUnits="userSpaceOnUse">
<stop stop-color="white"/>
<stop offset="1" stop-color="#DDC48C"/>
</linearGradient>
<radialGradient id="paint11_radial_202_12120" cx="0" cy="0" r="1" gradientUnits="userSpaceOnUse" gradientTransform="translate(17.8246 7.13679) scale(1.91346 1.24255)">
<stop stop-color="#6CAF11"/>
<stop offset="0.3299" stop-color="#6AAC10"/>
<stop offset="0.6098" stop-color="#64A10F"/>
<stop offset="0.8706" stop-color="#59900C"/>
<stop offset="1" stop-color="#52840A"/>
</radialGradient>
<linearGradient id="paint12_linear_202_12120" x1="13.8613" y1="11.2624" x2="13.8613" y2="17.2606" gradientUnits="userSpaceOnUse">
<stop stop-color="#CE4920" stop-opacity="0"/>
<stop offset="1" stop-color="#9C1710"/>
</linearGradient>
<radialGradient id="paint13_radial_202_12120" cx="0" cy="0" r="1" gradientUnits="userSpaceOnUse" gradientTransform="translate(13.6082 14.1557) scale(16.6012 10.3969)">
<stop stop-color="#E04C89"/>
<stop offset="1" stop-color="#96003A"/>
</radialGradient>
<radialGradient id="paint14_radial_202_12120" cx="0" cy="0" r="1" gradientUnits="userSpaceOnUse" gradientTransform="translate(13.965 15.3698) scale(6.20264 3.50952)">
<stop stop-color="#E04C89"/>
<stop offset="1" stop-color="#96003A"/>
</radialGradient>
<linearGradient id="paint15_linear_202_12120" x1="8.58894" y1="12.9999" x2="10.1718" y2="12.9999" gradientUnits="userSpaceOnUse">
<stop stop-color="#CEBC99"/>
<stop offset="0.0469222" stop-color="#D8CAAF"/>
<stop offset="0.1236" stop-color="#E6DDCC"/>
<stop offset="0.2054" stop-color="#F1ECE2"/>
<stop offset="0.2937" stop-color="#F9F7F3"/>
<stop offset="0.393" stop-color="#FEFDFC"/>
<stop offset="0.5266" stop-color="white"/>
<stop offset="0.6615" stop-color="#FEFDFC"/>
<stop offset="0.7491" stop-color="#FAF8F4"/>
<stop offset="0.8233" stop-color="#F2EEE5"/>
<stop offset="0.8899" stop-color="#E8E0D0"/>
<stop offset="0.951" stop-color="#DBCEB5"/>
<stop offset="1" stop-color="#CEBC99"/>
</linearGradient>
<linearGradient id="paint16_linear_202_12120" x1="17.8967" y1="12.2324" x2="19.5797" y2="12.2324" gradientUnits="userSpaceOnUse">
<stop stop-color="#CEBC99"/>
<stop offset="0.0469222" stop-color="#D8CAAF"/>
<stop offset="0.1236" stop-color="#E6DDCC"/>
<stop offset="0.2054" stop-color="#F1ECE2"/>
<stop offset="0.2937" stop-color="#F9F7F3"/>
<stop offset="0.393" stop-color="#FEFDFC"/>
<stop offset="0.5266" stop-color="white"/>
<stop offset="0.6615" stop-color="#FEFDFC"/>
<stop offset="0.7491" stop-color="#FAF8F4"/>
<stop offset="0.8233" stop-color="#F2EEE5"/>
<stop offset="0.8899" stop-color="#E8E0D0"/>
<stop offset="0.951" stop-color="#DBCEB5"/>
<stop offset="1" stop-color="#CEBC99"/>
</linearGradient>
<linearGradient id="paint17_linear_202_12120" x1="12.171" y1="1.36057" x2="15.1871" y2="1.36057" gradientUnits="userSpaceOnUse">
<stop stop-color="#CEBC99"/>
<stop offset="0.5266" stop-color="white"/>
<stop offset="1" stop-color="#CEBC99"/>
</linearGradient>
<linearGradient id="paint18_linear_202_12120" x1="13.679" y1="1.76252" x2="13.679" y2="0.360461" gradientUnits="userSpaceOnUse">
<stop stop-color="white" stop-opacity="0"/>
<stop offset="1" stop-color="white"/>
</linearGradient>
<linearGradient id="paint19_linear_202_12120" x1="20.6181" y1="18.6355" x2="9.5702" y2="31.1055" gradientUnits="userSpaceOnUse">
<stop stop-color="#961307" stop-opacity="0.2"/>
<stop offset="0.0676018" stop-color="#961307" stop-opacity="0.2141"/>
<stop offset="0.4783" stop-color="#961307" stop-opacity="0.3"/>
<stop offset="1" stop-color="#8C1306"/>
</linearGradient>
<linearGradient id="paint20_linear_202_12120" x1="9.74131" y1="20.9389" x2="9.74131" y2="29.5346" gradientUnits="userSpaceOnUse">
<stop stop-color="#7A0400" stop-opacity="0"/>
<stop offset="0.9101" stop-color="#710300" stop-opacity="0.9101"/>
<stop offset="1" stop-color="#700300"/>
</linearGradient>
<linearGradient id="paint21_linear_202_12120" x1="13.6776" y1="33.2366" x2="14.676" y2="27.3394" gradientUnits="userSpaceOnUse">
<stop stop-color="#770501"/>
<stop offset="1" stop-color="#991000"/>
</linearGradient>
<linearGradient id="paint22_linear_202_12120" x1="9.99199" y1="5.59091" x2="9.99199" y2="9.20988" gradientUnits="userSpaceOnUse">
<stop stop-color="#B08BAB"/>
<stop offset="0.0710423" stop-color="#A07F9B" stop-opacity="0.9929"/>
<stop offset="0.2465" stop-color="#7E647B" stop-opacity="0.9754"/>
<stop offset="0.426" stop-color="#644F61" stop-opacity="0.9574"/>
<stop offset="0.609" stop-color="#51414F" stop-opacity="0.9391"/>
<stop offset="0.7975" stop-color="#463844" stop-opacity="0.9203"/>
<stop offset="1" stop-color="#423540" stop-opacity="0.9"/>
</linearGradient>
<linearGradient id="paint23_linear_202_12120" x1="17.7087" y1="5.56537" x2="17.7087" y2="9.07312" gradientUnits="userSpaceOnUse">
<stop stop-color="#B08BAB"/>
<stop offset="0.0710423" stop-color="#A07F9B" stop-opacity="0.9929"/>
<stop offset="0.2465" stop-color="#7E647B" stop-opacity="0.9754"/>
<stop offset="0.426" stop-color="#644F61" stop-opacity="0.9574"/>
<stop offset="0.609" stop-color="#51414F" stop-opacity="0.9391"/>
<stop offset="0.7975" stop-color="#463844" stop-opacity="0.9203"/>
<stop offset="1" stop-color="#423540" stop-opacity="0.9"/>
</linearGradient>
<linearGradient id="paint24_linear_202_12120" x1="13.854" y1="6.29548" x2="13.854" y2="9.22475" gradientUnits="userSpaceOnUse">
<stop stop-color="#CE4920" stop-opacity="0.3"/>
<stop offset="1" stop-color="#AD1813"/>
</linearGradient>
<radialGradient id="paint25_radial_202_12120" cx="0" cy="0" r="1" gradientUnits="userSpaceOnUse" gradientTransform="translate(14.5193 16.5963) scale(6.274 3.46752)">
<stop stop-color="#E04C89"/>
<stop offset="1" stop-color="#96003A"/>
</radialGradient>
<radialGradient id="paint26_radial_202_12120" cx="0" cy="0" r="1" gradientUnits="userSpaceOnUse" gradientTransform="translate(13.9688 16.3359) scale(6.37024 3.75083)">
<stop stop-color="#E04C89"/>
<stop offset="1" stop-color="#96003A"/>
</radialGradient>
<radialGradient id="paint27_radial_202_12120" cx="0" cy="0" r="1" gradientUnits="userSpaceOnUse" gradientTransform="translate(14.585 12.0009) scale(4.29978 0.53573)">
<stop stop-color="#E04C89"/>
<stop offset="1" stop-color="#96003A"/>
</radialGradient>
<radialGradient id="paint28_radial_202_12120" cx="0" cy="0" r="1" gradientUnits="userSpaceOnUse" gradientTransform="translate(14.2625 16.6335) scale(4.91527 2.33605)">
<stop stop-color="#E04C89"/>
<stop offset="1" stop-color="#96003A"/>
</radialGradient>
<linearGradient id="paint29_linear_202_12120" x1="14.2676" y1="18.5017" x2="14.2676" y2="10.9861" gradientUnits="userSpaceOnUse">
<stop stop-color="white" stop-opacity="0.4"/>
<stop offset="1" stop-color="white"/>
</linearGradient>
<radialGradient id="paint30_radial_202_12120" cx="0" cy="0" r="1" gradientUnits="userSpaceOnUse" gradientTransform="translate(14.2758 16.634) rotate(90) scale(0.722285 11.3718)">
<stop stop-color="#A33665"/>
<stop offset="1" stop-color="#7D002F"/>
</radialGradient>
<linearGradient id="paint31_linear_202_12120" x1="14.1176" y1="13.9364" x2="14.1176" y2="16.8651" gradientUnits="userSpaceOnUse">
<stop stop-color="#361221"/>
<stop offset="1" stop-color="#96003A"/>
</linearGradient>
<linearGradient id="paint32_linear_202_12120" x1="13.4191" y1="11.0286" x2="13.4191" y2="14.2265" gradientUnits="userSpaceOnUse">
<stop stop-color="white" stop-opacity="0"/>
<stop offset="1" stop-color="white"/>
</linearGradient>
<linearGradient id="paint33_linear_202_12120" x1="14.0911" y1="19.0128" x2="14.0911" y2="23.8237" gradientUnits="userSpaceOnUse">
<stop stop-color="white" stop-opacity="0"/>
<stop offset="1" stop-color="white"/>
</linearGradient>
<linearGradient id="paint34_linear_202_12120" x1="9.72058" y1="23.9874" x2="9.72058" y2="16.5612" gradientUnits="userSpaceOnUse">
<stop stop-color="white" stop-opacity="0"/>
<stop offset="1" stop-color="white" stop-opacity="0.3"/>
</linearGradient>
<linearGradient id="paint35_linear_202_12120" x1="14.5258" y1="27.758" x2="14.5258" y2="24.2058" gradientUnits="userSpaceOnUse">
<stop stop-color="#CE4920" stop-opacity="0"/>
<stop offset="1" stop-opacity="0.8"/>
</linearGradient>
<linearGradient id="paint36_linear_202_12120" x1="21.0132" y1="18.7464" x2="19.6006" y2="18.7391" gradientUnits="userSpaceOnUse">
<stop stop-color="white" stop-opacity="0.7861"/>
<stop offset="1" stop-color="#FFADA6" stop-opacity="0.69"/>
</linearGradient>
<linearGradient id="paint37_linear_202_12120" x1="20.2777" y1="17.3631" x2="20.2777" y2="19.1998" gradientUnits="userSpaceOnUse">
<stop offset="0.1255" stop-color="#85211B"/>
<stop offset="1" stop-color="white"/>
</linearGradient>
<linearGradient id="paint38_linear_202_12120" x1="20.2813" y1="19.3203" x2="20.2813" y2="21.6791" gradientUnits="userSpaceOnUse">
<stop stop-color="white" stop-opacity="0"/>
<stop offset="1" stop-color="white"/>
</linearGradient>
<linearGradient id="paint39_linear_202_12120" x1="14.2672" y1="18.765" x2="14.2672" y2="15.5482" gradientUnits="userSpaceOnUse">
<stop stop-color="white" stop-opacity="0.7"/>
<stop offset="1" stop-color="white"/>
</linearGradient>
<linearGradient id="paint40_linear_202_12120" x1="13.949" y1="11.6407" x2="13.8668" y2="10.0817" gradientUnits="userSpaceOnUse">
<stop stop-color="#A6261A" stop-opacity="0.5"/>
<stop offset="0.9987" stop-color="#AB2015" stop-opacity="0.5004"/>
<stop offset="1" stop-color="#AB2015" stop-opacity="0.5"/>
</linearGradient>
<linearGradient id="paint41_linear_202_12120" x1="13.9033" y1="9.55966" x2="13.9033" y2="11.4004" gradientUnits="userSpaceOnUse">
<stop stop-opacity="0.3"/>
<stop offset="1" stop-color="#B82C1E" stop-opacity="0.8"/>
</linearGradient>
<radialGradient id="paint42_radial_202_12120" cx="0" cy="0" r="1" gradientUnits="userSpaceOnUse" gradientTransform="translate(14.2625 16.6352) scale(10.3218 4.90434)">
<stop stop-color="#B3174B"/>
<stop offset="1" stop-color="#2B0011"/>
</radialGradient>
<radialGradient id="paint43_radial_202_12120" cx="0" cy="0" r="1" gradientUnits="userSpaceOnUse" gradientTransform="translate(14.6242 18.8297) scale(2.92155 5.55415)">
<stop stop-opacity="0"/>
<stop offset="1"/>
</radialGradient>
<linearGradient id="paint44_linear_202_12120" x1="13.1784" y1="24.5445" x2="15.8805" y2="24.5445" gradientUnits="userSpaceOnUse">
<stop stop-color="#3ED8BB"/>
<stop offset="1" stop-color="#3FB5BA"/>
</linearGradient>
<linearGradient id="paint45_linear_202_12120" x1="13.2048" y1="23.1714" x2="15.7859" y2="23.1714" gradientUnits="userSpaceOnUse">
<stop stop-color="#F6D62C"/>
<stop offset="0.3846" stop-color="#FBB316"/>
<stop offset="0.6509" stop-color="#F6D60E"/>
<stop offset="1" stop-color="#FBB316"/>
</linearGradient>
<linearGradient id="paint46_linear_202_12120" x1="14.3839" y1="24.9367" x2="14.9277" y2="24.9367" gradientUnits="userSpaceOnUse">
<stop stop-color="#6CAF11"/>
<stop offset="1" stop-color="#52840A"/>
</linearGradient>
<linearGradient id="paint47_linear_202_12120" x1="13.5971" y1="24.7159" x2="14.1636" y2="24.7159" gradientUnits="userSpaceOnUse">
<stop stop-color="#6CAF11"/>
<stop offset="1" stop-color="#52840A"/>
</linearGradient>
<linearGradient id="paint48_linear_202_12120" x1="15.1263" y1="24.1746" x2="15.4992" y2="24.1746" gradientUnits="userSpaceOnUse">
<stop stop-color="#FE980E"/>
<stop offset="1" stop-color="#FF5906"/>
</linearGradient>
<linearGradient id="paint49_linear_202_12120" x1="14.3839" y1="24.1902" x2="14.8747" y2="24.1902" gradientUnits="userSpaceOnUse">
<stop stop-color="#FE980E"/>
<stop offset="1" stop-color="#FF5906"/>
</linearGradient>
<linearGradient id="paint50_linear_202_12120" x1="13.5442" y1="23.9555" x2="14.1765" y2="23.9555" gradientUnits="userSpaceOnUse">
<stop stop-color="#FE980E"/>
<stop offset="1" stop-color="#FF5906"/>
</linearGradient>
<linearGradient id="paint51_linear_202_12120" x1="13.2013" y1="19.3835" x2="16.0735" y2="19.3835" gradientUnits="userSpaceOnUse">
<stop stop-color="#3ED8BB"/>
<stop offset="0.3846" stop-color="#3FB5BA"/>
<stop offset="0.6509" stop-color="#3ED8BB"/>
<stop offset="1" stop-color="#3FB5BA"/>
</linearGradient>
<linearGradient id="paint52_linear_202_12120" x1="14.6511" y1="23.4043" x2="14.6511" y2="22.1425" gradientUnits="userSpaceOnUse">
<stop stop-color="white" stop-opacity="0.3387"/>
<stop offset="1" stop-color="#2CAB98"/>
</linearGradient>
<linearGradient id="paint53_linear_202_12120" x1="13.2005" y1="20.7821" x2="16.0724" y2="20.7821" gradientUnits="userSpaceOnUse">
<stop stop-color="#6CAF11"/>
<stop offset="0.3846" stop-color="#52840A"/>
<stop offset="0.6509" stop-color="#6CAF11"/>
<stop offset="1" stop-color="#52840A"/>
</linearGradient>
<linearGradient id="paint54_linear_202_12120" x1="13.2149" y1="20.7959" x2="16.0663" y2="20.7959" gradientUnits="userSpaceOnUse">
<stop stop-color="#81C819"/>
<stop offset="0.3846" stop-color="#71B612"/>
<stop offset="0.6509" stop-color="#81C819"/>
<stop offset="1" stop-color="#71B612"/>
</linearGradient>
<linearGradient id="paint55_linear_202_12120" x1="13.3128" y1="17.9283" x2="15.9795" y2="17.9283" gradientUnits="userSpaceOnUse">
<stop stop-color="#F6D62C"/>
<stop offset="0.3846" stop-color="#FBB316"/>
<stop offset="0.6509" stop-color="#F6D60E"/>
<stop offset="1" stop-color="#FBB316"/>
</linearGradient>
<linearGradient id="paint56_linear_202_12120" x1="13.2468" y1="19.6817" x2="16.0307" y2="19.6817" gradientUnits="userSpaceOnUse">
<stop stop-color="#FE980E"/>
<stop offset="0.3846" stop-color="#FF5906"/>
<stop offset="0.6509" stop-color="#FE980E"/>
<stop offset="1" stop-color="#FF5906"/>
</linearGradient>
<linearGradient id="paint57_linear_202_12120" x1="13.2468" y1="19.6817" x2="16.0307" y2="19.6817" gradientUnits="userSpaceOnUse">
<stop stop-color="#FE980E"/>
<stop offset="0.3846" stop-color="#FF5906"/>
<stop offset="0.6509" stop-color="#FE980E"/>
<stop offset="1" stop-color="#FF5906"/>
</linearGradient>
<radialGradient id="paint58_radial_202_12120" cx="0" cy="0" r="1" gradientUnits="userSpaceOnUse" gradientTransform="translate(13.6884 19.9304) scale(0.132119 0.219909)">
<stop stop-color="white" stop-opacity="0"/>
<stop offset="0.9171" stop-color="white" stop-opacity="0.9171"/>
<stop offset="1" stop-color="white"/>
</radialGradient>
<radialGradient id="paint59_radial_202_12120" cx="0" cy="0" r="1" gradientUnits="userSpaceOnUse" gradientTransform="translate(14.9858 19.6789) scale(0.134172 0.0777365)">
<stop stop-color="white" stop-opacity="0"/>
<stop offset="0.9171" stop-color="white" stop-opacity="0.9171"/>
<stop offset="1" stop-color="white"/>
</radialGradient>
<radialGradient id="paint60_radial_202_12120" cx="0" cy="0" r="1" gradientUnits="userSpaceOnUse" gradientTransform="translate(15.6121 19.9745) scale(0.241746 0.553593)">
<stop stop-color="white" stop-opacity="0"/>
<stop offset="0.9171" stop-color="white" stop-opacity="0.9171"/>
<stop offset="1" stop-color="white"/>
</radialGradient>
<radialGradient id="paint61_radial_202_12120" cx="0" cy="0" r="1" gradientUnits="userSpaceOnUse" gradientTransform="translate(15.5509 20.4793) scale(0.148617 0.168342)">
<stop stop-color="white" stop-opacity="0"/>
<stop offset="0.9171" stop-color="white" stop-opacity="0.9171"/>
<stop offset="1" stop-color="white"/>
</radialGradient>
<radialGradient id="paint62_radial_202_12120" cx="0" cy="0" r="1" gradientUnits="userSpaceOnUse" gradientTransform="translate(13.6322 20.6554) scale(0.221173 0.533583)">
<stop stop-color="white" stop-opacity="0"/>
<stop offset="0.9171" stop-color="white" stop-opacity="0.9171"/>
<stop offset="1" stop-color="white"/>
</radialGradient>
<radialGradient id="paint63_radial_202_12120" cx="0" cy="0" r="1" gradientUnits="userSpaceOnUse" gradientTransform="translate(15.1077 20.9278) scale(0.12765 0.218937)">
<stop stop-color="white" stop-opacity="0"/>
<stop offset="0.9171" stop-color="white" stop-opacity="0.9171"/>
<stop offset="1" stop-color="white"/>
</radialGradient>
<radialGradient id="paint64_radial_202_12120" cx="0" cy="0" r="1" gradientUnits="userSpaceOnUse" gradientTransform="translate(14.059 21.6181) scale(0.196242 0.310658)">
<stop stop-color="white" stop-opacity="0"/>
<stop offset="0.9171" stop-color="white" stop-opacity="0.9171"/>
<stop offset="1" stop-color="white"/>
</radialGradient>
<radialGradient id="paint65_radial_202_12120" cx="0" cy="0" r="1" gradientUnits="userSpaceOnUse" gradientTransform="translate(14.2902 21.5319) scale(0.0725934 0.079831)">
<stop stop-color="white" stop-opacity="0"/>
<stop offset="0.9171" stop-color="white" stop-opacity="0.9171"/>
<stop offset="1" stop-color="white"/>
</radialGradient>
<radialGradient id="paint66_radial_202_12120" cx="0" cy="0" r="1" gradientUnits="userSpaceOnUse" gradientTransform="translate(15.4548 21.5648) scale(0.128048 0.141925)">
<stop stop-color="white" stop-opacity="0"/>
<stop offset="0.9171" stop-color="white" stop-opacity="0.9171"/>
<stop offset="1" stop-color="white"/>
</radialGradient>
<radialGradient id="paint67_radial_202_12120" cx="0" cy="0" r="1" gradientUnits="userSpaceOnUse" gradientTransform="translate(15.5178 22.1023) scale(0.135204 0.242266)">
<stop stop-color="white" stop-opacity="0"/>
<stop offset="0.9171" stop-color="white" stop-opacity="0.9171"/>
<stop offset="1" stop-color="white"/>
</radialGradient>
<radialGradient id="paint68_radial_202_12120" cx="0" cy="0" r="1" gradientUnits="userSpaceOnUse" gradientTransform="translate(14.0478 17.0518) scale(0.276807 0.220243)">
<stop stop-color="white" stop-opacity="0"/>
<stop offset="0.9171" stop-color="white" stop-opacity="0.9171"/>
<stop offset="1" stop-color="white"/>
</radialGradient>
<radialGradient id="paint69_radial_202_12120" cx="0" cy="0" r="1" gradientUnits="userSpaceOnUse" gradientTransform="translate(14.1911 17.8602) scale(0.120393 0.158681)">
<stop stop-color="white" stop-opacity="0"/>
<stop offset="0.9171" stop-color="white" stop-opacity="0.9171"/>
<stop offset="1" stop-color="white"/>
</radialGradient>
<radialGradient id="paint70_radial_202_12120" cx="0" cy="0" r="1" gradientUnits="userSpaceOnUse" gradientTransform="translate(13.3968 18.5917) scale(0.115354 0.222771)">
<stop stop-color="white" stop-opacity="0"/>
<stop offset="0.9171" stop-color="white" stop-opacity="0.9171"/>
<stop offset="1" stop-color="white"/>
</radialGradient>
<radialGradient id="paint71_radial_202_12120" cx="0" cy="0" r="1" gradientUnits="userSpaceOnUse" gradientTransform="translate(14.8045 18.2299) scale(0.132874 0.13836)">
<stop stop-color="white" stop-opacity="0"/>
<stop offset="0.9171" stop-color="white" stop-opacity="0.9171"/>
<stop offset="1" stop-color="white"/>
</radialGradient>
<radialGradient id="paint72_radial_202_12120" cx="0" cy="0" r="1" gradientUnits="userSpaceOnUse" gradientTransform="translate(15.4059 18.2841) scale(0.113132 0.175723)">
<stop stop-color="white" stop-opacity="0"/>
<stop offset="0.9171" stop-color="white" stop-opacity="0.9171"/>
<stop offset="1" stop-color="white"/>
</radialGradient>
<radialGradient id="paint73_radial_202_12120" cx="0" cy="0" r="1" gradientUnits="userSpaceOnUse" gradientTransform="translate(13.7573 18.9491) scale(0.131344 0.117235)">
<stop stop-color="white" stop-opacity="0"/>
<stop offset="0.9171" stop-color="white" stop-opacity="0.9171"/>
<stop offset="1" stop-color="white"/>
</radialGradient>
<radialGradient id="paint74_radial_202_12120" cx="0" cy="0" r="1" gradientUnits="userSpaceOnUse" gradientTransform="translate(14.6178 18.9091) scale(0.105479 0.182407)">
<stop stop-color="white" stop-opacity="0"/>
<stop offset="0.9171" stop-color="white" stop-opacity="0.9171"/>
<stop offset="1" stop-color="white"/>
</radialGradient>
<radialGradient id="paint75_radial_202_12120" cx="0" cy="0" r="1" gradientUnits="userSpaceOnUse" gradientTransform="translate(15.5958 18.6857) scale(0.156455 0.134007)">
<stop stop-color="white" stop-opacity="0"/>
<stop offset="0.9171" stop-color="white" stop-opacity="0.9171"/>
<stop offset="1" stop-color="white"/>
</radialGradient>
<linearGradient id="paint76_linear_202_12120" x1="14.6383" y1="22.4875" x2="14.6383" y2="22.3414" gradientUnits="userSpaceOnUse">
<stop stop-color="#E3C091"/>
<stop offset="1" stop-color="#7F5327"/>
</linearGradient>
<radialGradient id="paint77_radial_202_12120" cx="0" cy="0" r="1" gradientUnits="userSpaceOnUse" gradientTransform="translate(14.6077 22.8554) scale(0.261062 0.277145)">
<stop stop-color="white" stop-opacity="0"/>
<stop offset="0.9171" stop-color="white" stop-opacity="0.9171"/>
<stop offset="1" stop-color="white"/>
</radialGradient>
<linearGradient id="paint78_linear_202_12120" x1="10.6629" y1="7.76128" x2="10.6629" y2="8.96457" gradientUnits="userSpaceOnUse">
<stop stop-opacity="0.03"/>
<stop offset="0.8884" stop-opacity="0.4475"/>
<stop offset="1" stop-opacity="0.5"/>
</linearGradient>
<linearGradient id="paint79_linear_202_12120" x1="17.0408" y1="7.61539" x2="17.0408" y2="8.66196" gradientUnits="userSpaceOnUse">
<stop stop-opacity="0"/>
<stop offset="1" stop-opacity="0.4"/>
</linearGradient>
<clipPath id="clip0_202_12120">
<rect width="28" height="41" fill="white"/>
</clipPath>
</defs>
</svg>
