<svg width="26" height="41" viewBox="0 0 26 41" fill="none" xmlns="http://www.w3.org/2000/svg">
<g clip-path="url(#clip0_202_10841)">
<path d="M25.6642 20.7538C25.6642 18.3027 23.5195 16.26 21.0683 16.3622C18.6171 16.3622 16.6766 18.4048 16.6766 20.856C16.6766 23.3071 18.8214 25.3498 21.2726 25.2476C23.8259 25.2476 25.7664 23.205 25.6642 20.7538ZM12.1828 24.4306C13.6127 23.6135 15.6553 24.4306 16.8809 26.4732C18.1065 28.4137 18.0043 30.7628 16.5745 31.5798C15.1446 32.3969 13.102 31.5798 11.7743 29.5372C10.6508 27.5967 10.753 25.2476 12.1828 24.4306ZM7.89326 29.4351C9.11884 28.9244 10.6508 30.0479 11.4679 31.9884C12.2849 33.9289 11.9785 35.8694 10.753 36.38C9.52737 36.8907 7.99539 35.7673 7.17833 33.8267C6.36127 31.8862 6.66767 29.9457 7.89326 29.4351ZM3.9101 33.3161C4.72716 33.0097 5.95275 34.2353 6.66767 36.0736C7.3826 37.912 7.17833 39.6483 6.36127 39.9547C5.54422 40.2611 4.31863 39.0355 3.60371 37.1971C2.99092 35.3587 3.09305 33.6225 3.9101 33.3161ZM15.5532 9.11078C17.0851 9.62144 17.9022 11.7662 17.1873 14.0131C16.5745 16.26 14.7361 17.6899 13.102 17.1792C11.4679 16.6686 10.753 14.5238 11.3657 12.2769C12.1828 10.03 14.0212 8.60012 15.5532 9.11078ZM9.83377 4.00417C11.0594 4.31057 11.6721 6.14895 11.1615 8.19159C10.6508 10.2342 9.22097 11.5619 7.89326 11.1534C6.66767 10.847 6.05488 8.90651 6.66767 6.966C7.17833 4.92336 8.60818 3.59564 9.83377 4.00417ZM5.54422 0.0210202C6.46341 0.225284 6.7698 1.8594 6.36127 3.79991C5.95275 5.74042 4.93143 7.06813 4.01224 6.86387C3.19518 6.76174 2.78665 5.02549 3.19518 3.18711C3.60371 1.24661 4.62503 -0.183244 5.54422 0.0210202Z" fill="#1D7DC0"/>
<path d="M11.5702 20.139C11.6724 22.0795 10.5489 23.7136 9.11905 23.7136C7.6892 23.7136 6.56575 22.1816 6.56575 20.2411C6.56575 18.3006 7.6892 16.6665 9.01692 16.6665C10.4468 16.6665 11.5702 18.1985 11.5702 20.139ZM3.39966 25.9605C3.09326 24.2242 3.70605 22.5901 4.72737 22.3859C5.85083 22.1816 6.87215 23.5093 7.28068 25.2456C7.58707 27.0839 6.97428 28.6159 5.95296 28.8202C4.82951 29.1266 3.70605 27.7989 3.39966 25.9605ZM3.70605 29.5351C4.11458 31.1692 3.91032 32.5991 3.09326 32.8033C2.37834 33.0076 1.35701 31.8841 0.948486 30.3522C0.437825 28.8202 0.744222 27.2882 1.45915 27.0839C2.2762 26.8797 3.19539 27.901 3.70605 29.5351ZM6.97428 14.3174C7.07641 16.0537 6.25935 17.4835 5.23803 17.4835C4.21671 17.4835 3.29752 16.0537 3.29752 14.3174C3.19539 12.5812 4.01245 11.1513 5.03377 11.1513C6.05509 11.1513 6.97428 12.5812 6.97428 14.3174ZM3.29752 9.61936C3.39966 11.2535 2.68473 12.4791 1.86767 12.4791C1.05062 12.5812 0.335693 11.2535 0.335693 9.72149C0.335693 8.18951 0.948486 6.86179 1.76554 6.86179C2.5826 6.75966 3.29752 8.08738 3.29752 9.61936Z" fill="#969AA2"/>
</g>
<defs>
<clipPath id="clip0_202_10841">
<rect width="26" height="41" fill="white"/>
</clipPath>
</defs>
</svg>
