<svg width="33" height="31" viewBox="0 0 33 31" fill="none" xmlns="http://www.w3.org/2000/svg">
<g clip-path="url(#clip0_202_9512)">
<path d="M19.0059 13.9032C19.0059 13.4044 19.4102 13 19.9091 13H31.1026C31.6015 13 32.0059 13.4044 32.0059 13.9032V20.5C32.0059 24.0899 29.0957 27 25.5059 27C21.916 27 19.0059 24.0899 19.0059 20.5V13.9032Z" fill="url(#paint0_linear_202_9512)"/>
<path d="M9.00586 12.2258C9.00586 11.5488 9.55467 11 10.2317 11H23.7801C24.457 11 25.0059 11.5488 25.0059 12.2258V22C25.0059 26.4183 21.4241 30 17.0059 30C12.5876 30 9.00586 26.4183 9.00586 22V12.2258Z" fill="url(#paint1_linear_202_9512)"/>
<circle cx="27.0059" cy="8" r="3" fill="#34439E"/>
<circle cx="27.0059" cy="8" r="3" fill="url(#paint2_linear_202_9512)"/>
<circle cx="18.0059" cy="6" r="4" fill="url(#paint3_linear_202_9512)"/>
<mask id="mask0_202_9512" style="mask-type:alpha" maskUnits="userSpaceOnUse" x="9" y="0" width="17" height="30">
<path d="M17.0059 10C19.7673 10 22.0059 7.76147 22.0059 5C22.0059 2.23853 19.7673 0 17.0059 0C14.2444 0 12.0059 2.23853 12.0059 5C12.0059 7.76147 14.2444 10 17.0059 10Z" fill="url(#paint4_linear_202_9512)"/>
<path d="M10.2317 11C9.55469 11 9.00586 11.5488 9.00586 12.2258V22C9.00586 26.4183 12.5875 30 17.0059 30C21.4242 30 25.0059 26.4183 25.0059 22V12.2258C25.0059 11.5488 24.457 11 23.78 11H10.2317Z" fill="url(#paint5_linear_202_9512)"/>
</mask>
<g mask="url(#mask0_202_9512)">
<path d="M7.00586 12C7.00586 10.3431 8.34901 9 10.0059 9H17.0059C18.6627 9 20.0059 10.3431 20.0059 12V24C20.0059 25.6569 18.6627 27 17.0059 27H7.00586V12Z" fill="black" fill-opacity="0.3"/>
</g>
<rect x="0.00585938" y="7" width="18" height="18" rx="2" fill="url(#paint6_linear_202_9512)"/>
<path d="M13.0059 11H5.00586V12.8347H8.0008V21H10.0109V12.8347H13.0059V11Z" fill="white"/>
</g>
<defs>
<linearGradient id="paint0_linear_202_9512" x1="19.0059" y1="13.7368" x2="32.1649" y2="22.3355" gradientUnits="userSpaceOnUse">
<stop stop-color="#364088"/>
<stop offset="1" stop-color="#6E7EE1"/>
</linearGradient>
<linearGradient id="paint1_linear_202_9512" x1="9.00586" y1="19.4038" x2="25.0059" y2="19.4038" gradientUnits="userSpaceOnUse">
<stop stop-color="#515FC4"/>
<stop offset="1" stop-color="#7084EA"/>
</linearGradient>
<linearGradient id="paint2_linear_202_9512" x1="24.0059" y1="5.31579" x2="29.8022" y2="9.39469" gradientUnits="userSpaceOnUse">
<stop stop-color="#364088"/>
<stop offset="1" stop-color="#6E7EE1"/>
</linearGradient>
<linearGradient id="paint3_linear_202_9512" x1="15.1487" y1="3.14286" x2="20.2916" y2="9.14286" gradientUnits="userSpaceOnUse">
<stop stop-color="#4858AE"/>
<stop offset="1" stop-color="#4E60CE"/>
</linearGradient>
<linearGradient id="paint4_linear_202_9512" x1="13.4344" y1="1.42857" x2="19.863" y2="8.92857" gradientUnits="userSpaceOnUse">
<stop stop-color="#4858AE"/>
<stop offset="1" stop-color="#4E60CE"/>
</linearGradient>
<linearGradient id="paint5_linear_202_9512" x1="13.4344" y1="1.42857" x2="19.863" y2="8.92857" gradientUnits="userSpaceOnUse">
<stop stop-color="#4858AE"/>
<stop offset="1" stop-color="#4E60CE"/>
</linearGradient>
<linearGradient id="paint6_linear_202_9512" x1="0.00585932" y1="16" x2="18.0059" y2="16" gradientUnits="userSpaceOnUse">
<stop stop-color="#2A3887"/>
<stop offset="1" stop-color="#4C56B9"/>
</linearGradient>
<clipPath id="clip0_202_9512">
<rect width="33" height="30.9978" fill="white"/>
</clipPath>
</defs>
</svg>
