<svg width="37" height="37" viewBox="0 0 37 37" fill="none" xmlns="http://www.w3.org/2000/svg">
<g clip-path="url(#clip0_202_13046)">
<path d="M18.0053 0.00158691C27.9582 0.00158691 36.0052 8.04861 36.0052 18.0015C36.0052 27.9544 27.9582 36.0015 18.0053 36.0015C8.05239 36.0317 0.00537109 27.9544 0.00537109 18.0015C0.00537109 8.04861 8.05239 0.00158691 18.0053 0.00158691Z" fill="white"/>
<path d="M17.7632 15.7629C18.7615 15.7629 19.3363 15.2183 19.3363 14.2805C19.3665 13.494 18.7615 12.8284 17.975 12.7982C17.9145 12.7982 17.854 12.7982 17.8237 12.7982H15.5548V11.1343C15.6153 10.1965 14.8893 9.34945 13.9212 9.3192C12.9834 9.25869 12.1363 9.98474 12.1061 10.9528C12.1061 11.0133 12.1061 11.1041 12.1061 11.1646V22.7208C12.1061 25.504 13.2254 26.7443 15.7061 26.7443C16.6439 26.7746 17.5817 26.5326 18.3985 26.0788C18.7918 25.8368 19.0338 25.383 19.0035 24.9292C19.0035 24.1729 18.4892 23.3561 17.7934 23.3561C17.7027 23.3561 17.5817 23.3864 17.4909 23.4166L17.3699 23.4771C17.1279 23.5981 16.8254 23.6889 16.5531 23.6889C16.0993 23.6889 15.5851 23.5376 15.5851 22.2973V15.7629H17.7632Z" fill="#1D1C39"/>
<path d="M25.175 20.6334C23.5111 20.6334 22.1498 21.9948 22.1498 23.6586C22.1498 25.3225 23.5111 26.6838 25.175 26.6838C26.8388 26.6838 28.2002 25.3225 28.2002 23.6586C28.2002 21.9948 26.8388 20.6334 25.175 20.6334Z" fill="#FF22B1"/>
</g>
<defs>
<clipPath id="clip0_202_13046">
<rect width="37" height="37" fill="white"/>
</clipPath>
</defs>
</svg>
