<svg width="36" height="37" viewBox="0 0 36 37" fill="none" xmlns="http://www.w3.org/2000/svg">
<g clip-path="url(#clip0_202_8497)">
<path d="M4.93604 3.97473H31.3005V6.65917H19.346V32.0545H16.6615V6.65917H4.93604V3.97473Z" fill="#C50000"/>
<path d="M5.43156 10.6285C8.36593 10.6285 10.7447 8.24972 10.7447 5.31535C10.7447 2.38098 8.36593 0.00219727 5.43156 0.00219727C2.49719 0.00219727 0.118408 2.38098 0.118408 5.31535C0.118408 8.24972 2.49719 10.6285 5.43156 10.6285Z" fill="#FF0000"/>
<path d="M18.0022 10.6285C20.9366 10.6285 23.3153 8.24972 23.3153 5.31535C23.3153 2.38098 20.9366 0.00219727 18.0022 0.00219727C15.0678 0.00219727 12.689 2.38098 12.689 5.31535C12.689 8.24972 15.0678 10.6285 18.0022 10.6285Z" fill="#FF0000"/>
<path d="M35.8862 5.31535C35.8862 8.24972 33.5075 10.6285 30.5731 10.6285C27.6387 10.6285 25.2599 8.24972 25.2599 5.31535C25.2599 2.38098 27.6387 0.00219727 30.5731 0.00219727C33.5075 0.00219727 35.8862 2.38098 35.8862 5.31535Z" fill="#FF0000"/>
<path d="M18.0022 23.3169C20.9366 23.3169 23.3153 20.9381 23.3153 18.0037C23.3153 15.0694 20.9366 12.6906 18.0022 12.6906C15.0678 12.6906 12.689 15.0694 12.689 18.0037C12.689 20.9381 15.0678 23.3169 18.0022 23.3169Z" fill="#FF0000"/>
<path d="M23.3153 30.689C23.3153 33.6234 20.9366 36.0022 18.0022 36.0022C15.0678 36.0022 12.689 33.6234 12.689 30.689C12.689 27.7547 15.0678 25.3759 18.0022 25.3759C20.9366 25.3759 23.3153 27.7547 23.3153 30.689Z" fill="#FF0000"/>
<path d="M10.7447 18.0037C10.7447 20.9381 8.36593 23.3169 5.43156 23.3169C2.49719 23.3169 0.118408 20.9381 0.118408 18.0037C0.118408 15.0693 2.49719 12.6906 5.43156 12.6906C8.36593 12.6906 10.7447 15.0693 10.7447 18.0037Z" fill="#CBD7DC"/>
<path d="M35.8862 18.0037C35.8862 20.9381 33.5075 23.3169 30.5731 23.3169C27.6387 23.3169 25.2599 20.9381 25.2599 18.0037C25.2599 15.0693 27.6387 12.6906 30.5731 12.6906C33.5075 12.6906 35.8862 15.0693 35.8862 18.0037Z" fill="#CBD7DC"/>
<path d="M5.43156 36.0022C8.36593 36.0022 10.7447 33.6234 10.7447 30.689C10.7447 27.7546 8.36593 25.3759 5.43156 25.3759C2.49719 25.3759 0.118408 27.7546 0.118408 30.689C0.118408 33.6234 2.49719 36.0022 5.43156 36.0022Z" fill="#CBD7DC"/>
<path d="M35.8862 30.689C35.8862 33.6234 33.5075 36.0022 30.5731 36.0022C27.6387 36.0022 25.2599 33.6234 25.2599 30.689C25.2599 27.7546 27.6387 25.3759 30.5731 25.3759C33.5075 25.3759 35.8862 27.7546 35.8862 30.689Z" fill="#CBD7DC"/>
</g>
<defs>
<clipPath id="clip0_202_8497">
<rect width="36" height="37" fill="white"/>
</clipPath>
</defs>
</svg>
