<svg width="41" height="40" viewBox="0 0 41 40" fill="none" xmlns="http://www.w3.org/2000/svg">
<circle cx="20.0012" cy="20" r="20" fill="url(#paint0_linear_202_15529)"/>
<path d="M29.982 11.7269C30.1601 10.5762 29.066 9.66796 28.0429 10.1172L7.66521 19.0641C6.93151 19.3862 6.98518 20.4975 7.74614 20.7399L11.9485 22.0781C12.7506 22.3336 13.6191 22.2015 14.3195 21.7176L23.794 15.1718C24.0797 14.9745 24.3911 15.3807 24.147 15.6324L17.3271 22.6638C16.6655 23.3459 16.7968 24.5017 17.5926 25.0007L25.2283 29.789C26.0847 30.3261 27.1864 29.7866 27.3466 28.7517L29.982 11.7269Z" fill="white"/>
<defs>
<linearGradient id="paint0_linear_202_15529" x1="20.0012" y1="3.05176e-05" x2="20.0012" y2="40" gradientUnits="userSpaceOnUse">
<stop stop-color="#37BBFE"/>
<stop offset="1" stop-color="#007DBB"/>
</linearGradient>
</defs>
</svg>
