<svg width="26" height="41" viewBox="0 0 26 41" fill="none" xmlns="http://www.w3.org/2000/svg">
<g clip-path="url(#clip0_202_10320)">
<path d="M19.4143 27.6781C18.9977 28.9463 17.7278 30.1376 16.3513 30.1376C14.8234 30.1376 13.7505 28.4745 13.7505 26.1989V13.7877H20.039C20.1121 13.7873 20.1821 13.7581 20.2338 13.7063C20.2855 13.6545 20.3147 13.5843 20.3151 13.511V12.4107C20.3147 12.3374 20.2855 12.2673 20.2338 12.2154C20.1821 12.1636 20.1121 12.1343 20.039 12.134H13.7505L13.7165 7.65321C13.7162 7.57992 13.687 7.50975 13.6352 7.45792C13.5836 7.40611 13.5136 7.37684 13.4404 7.3765H12.2064C12.1701 7.37645 12.1342 7.38358 12.1007 7.39747C12.0672 7.41137 12.0367 7.43174 12.0112 7.45745C11.9855 7.48315 11.9651 7.51367 11.9513 7.54727C11.9374 7.58086 11.9303 7.61686 11.9303 7.65321V8.33173C11.8422 11.3926 8.73839 12.1323 6.78499 12.1323H4.95573C4.91927 12.1326 4.8832 12.14 4.84958 12.1542C4.81597 12.1684 4.78548 12.1891 4.75985 12.215C4.73421 12.2411 4.71394 12.2718 4.70018 12.3057C4.68642 12.3396 4.67946 12.3758 4.67967 12.4124V13.5126C4.68002 13.5859 4.70921 13.6561 4.7609 13.7079C4.8126 13.7598 4.88263 13.789 4.95573 13.7893H10.0335V26.158C10.0335 30.3784 12.1797 32.4045 15.3588 32.4045C18.3319 32.4045 19.9223 30.3086 20.5065 28.0684C20.7678 27.0836 19.6407 26.9877 19.4143 27.6781Z" fill="#ABA69C"/>
<path fill-rule="evenodd" clip-rule="evenodd" d="M23.3401 27.2089V12.7955C23.3401 7.08752 19.3832 1.78991 13.0048 1.78991C6.62648 1.78991 2.66965 7.08752 2.66965 12.7955V27.2089C2.66965 32.9169 6.62648 38.2145 13.0048 38.2145C19.3832 38.2145 23.3401 32.9169 23.3401 27.2089ZM13.0048 0.00219727C5.93931 0.00219727 0.211548 5.72996 0.211548 12.7955V27.2089C0.211548 34.2744 5.93931 40.0022 13.0048 40.0022C20.0704 40.0022 25.7981 34.2744 25.7981 27.2089V12.7955C25.7981 5.72996 20.0704 0.00219727 13.0048 0.00219727Z" fill="#ABA69C"/>
</g>
<defs>
<clipPath id="clip0_202_10320">
<rect width="26" height="41" fill="white"/>
</clipPath>
</defs>
</svg>
