<svg width="34" height="37" viewBox="0 0 34 37" fill="none" xmlns="http://www.w3.org/2000/svg">
<g clip-path="url(#clip0_202_8462)">
<path d="M19.4013 5.54041V11.0791L28.9939 16.6179V11.0791L19.4013 5.54041ZM0.215576 11.0791V16.6179L5.01187 19.3866V13.8485L0.215576 11.0791ZM14.6045 13.8485L9.80817 16.6179V33.2329L14.6045 36.0023V24.9254L19.4013 27.6947V22.156L14.6045 19.3866V13.8485Z" fill="#E55B2D"/>
<path d="M19.4014 5.54041L5.01196 13.8485V19.3866L14.6046 13.8485V19.3866L19.4014 16.6179V5.54041ZM33.7909 8.30977L28.994 11.0791V16.6179L33.7909 13.8485V8.30977ZM24.1977 19.3866L19.4014 22.156V27.6947L24.1977 24.9254V19.3866ZM19.4014 27.6947L14.6046 24.9254V36.0023L19.4014 33.2329V27.6947Z" fill="#ED8E24"/>
<path d="M19.4013 0.00219727L0.215576 11.0791L5.01187 13.8484L19.4013 5.54035L28.9939 11.0791L33.7908 8.30972L19.4013 0.00219727ZM19.4013 16.6178L14.6045 19.3866L19.4013 22.156L24.1976 19.3866L19.4013 16.6178Z" fill="#F8BF3C"/>
</g>
<defs>
<clipPath id="clip0_202_8462">
<rect width="34" height="37" fill="white"/>
</clipPath>
</defs>
</svg>
