<svg width="36" height="36" viewBox="0 0 36 36" fill="none" xmlns="http://www.w3.org/2000/svg">
<g clip-path="url(#clip0_202_16259)">
<path d="M13.9948 15.696L8.47591 18.0004L0.0455322 13.1397L4.90629 4.86118L13.2607 9.72193L13.9948 15.696ZM22.1274 20.3375L22.8303 26.2789L31.1848 31.1397L35.9696 22.8612L27.5392 18.0004L22.1274 20.3375Z" fill="#00B3E3"/>
<path d="M18.0457 22.4816L22.8305 26.2789V36.0004H13.2609V26.2789L18.0457 22.4816ZM22.8305 9.72195V0.000427246H13.2609V9.72195L18.0457 13.5679L22.8305 9.72195Z" fill="#FFC843"/>
<path d="M22.1274 15.9058L22.8303 9.72193L31.1848 4.86118L35.9696 13.1397L27.5392 18.0004L22.1274 15.9058ZM8.47591 18.0004L0.0455322 22.8612L4.83034 31.1397L13.2607 26.2789L14.655 20.3263L8.47591 18.0004Z" fill="#FF4338"/>
<path d="M22.8301 15.2663L27.539 18.0005L22.8301 20.7347L21.9039 18.0005L22.8301 15.2663ZM13.2605 15.2663L8.47571 18.0005L13.2605 20.7347L14.3241 18.0005L13.2605 15.2663Z" fill="#002F32"/>
<path d="M18.0457 12.456L22.8305 9.72186V15.2662L19.6733 14.7122L18.0457 12.456ZM13.2609 20.7345V26.2788L18.0457 23.5446L16.3697 20.9491L13.2609 20.7345Z" fill="#FF350F"/>
<path d="M22.8305 20.7345V26.2788L18.0457 23.5446L19.9681 21.4396L22.8305 20.7345ZM18.0457 12.456L13.2609 9.72186V15.2662L16.4001 14.7499L18.0457 12.456Z" fill="#008C3C"/>
<path d="M18.0457 12.456L13.2609 15.2661V20.7345L18.0457 23.5446L22.8305 20.7345V15.2661L18.0457 12.456Z" fill="#00250D"/>
</g>
<defs>
<clipPath id="clip0_202_16259">
<rect width="36" height="36.0004" fill="white"/>
</clipPath>
</defs>
</svg>
