<svg width="36" height="32" viewBox="0 0 36 32" fill="none" xmlns="http://www.w3.org/2000/svg">
<g clip-path="url(#clip0_202_10950)">
<path d="M35.9996 1.68384L20.0928 9.12051L20.5249 9.29531L35.5752 11.3041L35.9996 11.232V1.68384Z" fill="#C5CF21"/>
<path d="M35.9996 11.2318L20.0928 9.12036L20.3587 9.5113L28.2293 15.4725L28.5966 15.5143L35.9996 11.2318Z" fill="#70B540"/>
<path d="M28.5966 15.5143L20.0928 9.12036L20.1546 9.68624L26.1305 27.8322L26.5454 28.1573L28.5966 15.5143Z" fill="#006D69"/>
<path d="M26.5462 28.1573L18 31.385L20.0936 9.12036L26.5462 28.1573Z" fill="#008CA9"/>
<path d="M17.9972 5.96398L18.041 5.88017L18.0508 2.77896L17.9972 2.7102L5.23242 0.619385L5.45489 0.816541L17.523 5.81759L17.9972 5.96398Z" fill="#70B540"/>
<path d="M0 1.68384L15.9068 9.12051L15.4747 9.29531L0.424406 11.3041L0 11.232V1.68384Z" fill="#008CA9"/>
<path d="M17.9971 5.96398V2.7102L30.7669 0.619385L30.5445 0.816541L18.4763 5.81759L17.9971 5.96398Z" fill="#006D69"/>
<path d="M17.9795 5.96398L5.23266 0.619385L0 1.68378L17.9795 5.96398Z" fill="#C5CF21"/>
<path d="M0 11.2318L15.9068 9.12036L15.6409 9.5113L7.77023 15.4725L7.40292 15.5143L0 11.2318Z" fill="#006D69"/>
<path d="M7.40332 15.5143L15.9072 9.12036L15.8453 9.68624L9.86946 27.8322L9.45448 28.1573L7.40332 15.5143Z" fill="#C5CF21"/>
<path d="M9.4541 28.1573L17.9996 31.385L15.9068 9.12036L9.4541 28.1573Z" fill="#70B540"/>
<path d="M18.0205 5.96398L30.7673 0.619385L36 1.68378L18.0205 5.96398Z" fill="#008CA9"/>
</g>
<defs>
<clipPath id="clip0_202_10950">
<rect width="36" height="32" fill="white"/>
</clipPath>
</defs>
</svg>
