<svg width="37" height="37" viewBox="0 0 37 37" fill="none" xmlns="http://www.w3.org/2000/svg">
<g clip-path="url(#clip0_202_8624)">
<g clip-path="url(#clip1_202_8624)">
<path d="M1.02088 7.14015C0.511783 8.34172 0.246832 9.63257 0.241455 10.9375C0.244967 12.2449 0.509016 13.5384 1.01817 14.7425C1.52732 15.9466 2.27136 17.0371 3.20682 17.9504L11.2147 26.0331C11.2 26.1223 11.1909 26.2128 11.1874 26.304C11.1668 26.8512 11.3529 27.3861 11.7088 27.8022C12.1167 28.2056 12.6671 28.4318 13.2407 28.4318C13.8143 28.4318 14.3648 28.2056 14.7726 27.8022C15.1802 27.3938 15.4092 26.8404 15.4092 26.2633C15.4092 25.6863 15.1802 25.1328 14.7726 24.7244C14.3548 24.3704 13.8191 24.1867 13.272 24.2099C13.0583 24.2189 12.8489 24.2593 12.6501 24.3283L4.71058 16.3764C3.27137 14.935 2.46301 12.9814 2.46301 10.9446C2.46301 8.90769 3.27137 6.95409 4.71058 5.51274L5.28679 4.93653C6.26447 3.9578 7.48814 3.26102 8.82876 2.91968C10.1694 2.57834 11.5773 2.60509 12.904 2.9971C13.1872 3.09215 13.4967 3.07077 13.7642 2.93767C14.0317 2.80458 14.2354 2.57066 14.3304 2.28738C14.4255 2.00411 14.4041 1.69468 14.271 1.42716C14.1379 1.15965 13.904 0.955965 13.6207 0.860918C11.9097 0.342484 10.0897 0.300129 8.3564 0.738408C6.62309 1.17669 5.04199 2.07903 3.78302 3.34845L3.20682 3.93871C2.27305 4.85031 1.52998 5.93858 1.02088 7.14015Z" fill="#EF516F"/>
<path d="M21.9339 10.722C21.879 10.7375 21.8234 10.7509 21.7672 10.7622C21.3445 10.8466 20.9063 10.8036 20.508 10.6389C20.1097 10.4741 19.7693 10.1949 19.5298 9.83662C19.2902 9.47831 19.1624 9.05699 19.1624 8.62598C19.1624 8.19497 19.2902 7.77365 19.5298 7.41534C19.7693 7.05702 20.1097 6.77782 20.508 6.61306C20.9063 6.44831 21.3445 6.40541 21.7672 6.48978C22.1898 6.57416 22.578 6.78203 22.8824 7.08708C23.2867 7.49728 23.5133 8.05007 23.5133 8.62598C23.5133 8.78305 23.4964 8.9384 23.4637 9.08961L31.6796 17.3182C32.6065 18.2378 33.3412 19.3327 33.8406 20.5392C34.3401 21.7456 34.5944 23.0394 34.5887 24.3451C34.5944 25.6509 34.3401 26.9447 33.8406 28.1511C33.3412 29.3575 32.6065 30.4525 31.6796 31.3721L31.1033 31.9483C29.8399 33.2111 28.2593 34.1099 26.5281 34.5501C24.7968 34.9904 22.9789 34.9557 21.2657 34.4498C21.0311 34.3762 20.8272 34.2278 20.6851 34.0273C20.5429 33.8268 20.4704 33.5852 20.4786 33.3396C20.4786 33.0438 20.5951 32.76 20.803 32.5495C21.0108 32.3391 21.2931 32.219 21.5889 32.2153C21.6962 32.2019 21.8048 32.2019 21.9121 32.2153C23.2388 32.6073 24.6467 32.6341 25.9873 32.2927C27.328 31.9514 28.5516 31.2546 29.5293 30.2759L30.1055 29.6996C30.8217 28.9864 31.3902 28.1388 31.7785 27.2056C32.1667 26.2723 32.3671 25.2716 32.3682 24.2608C32.3439 22.2555 31.537 20.3391 30.1196 18.9203L21.9339 10.722Z" fill="#F8A266"/>
<path d="M26.106 23.9812C26.6532 24.0018 27.1881 23.8157 27.6042 23.4597C28.0075 23.0519 28.2338 22.5015 28.2338 21.9279C28.2338 21.3543 28.0075 20.8038 27.6042 20.396C27.4029 20.1925 27.1632 20.0309 26.8991 19.9206C26.6349 19.8103 26.3515 19.7535 26.0653 19.7535C25.779 19.7535 25.4956 19.8103 25.2315 19.9206C24.9673 20.0309 24.7276 20.1925 24.5264 20.396C24.1724 20.8137 23.9886 21.3495 24.0118 21.8965C24.0188 22.0615 24.0444 22.2237 24.0874 22.3806L15.9112 30.5568C15.1985 31.2711 14.3518 31.8378 13.4197 32.2245C12.4877 32.6112 11.4885 32.8102 10.4794 32.8102C9.47031 32.8102 8.47113 32.6112 7.53906 32.2245C6.60699 31.8378 5.76034 31.2711 5.04759 30.5568L4.47138 29.9806C3.49264 29.0029 2.79586 27.7793 2.45452 26.4386C2.11319 25.098 2.13993 23.6901 2.53195 22.3634C2.61581 22.0802 2.58371 21.7752 2.44271 21.5156C2.3017 21.256 2.06334 21.063 1.78007 20.9791C1.49679 20.8953 1.1918 20.9274 0.932195 21.0684C0.672588 21.2094 0.479627 21.4477 0.395763 21.731C0.131523 22.6444 -0.000982064 23.5909 0.00225517 24.5418C-0.000497536 27.1749 1.04056 29.7017 2.89735 31.5687L3.44545 32.1309C4.36719 33.0555 5.46237 33.7891 6.66819 34.2897C7.87401 34.7903 9.16677 35.048 10.4724 35.048C11.778 35.048 13.0707 34.7903 14.2765 34.2897C15.4824 33.7891 16.5775 33.0555 17.4993 32.1309L25.7023 23.9278C25.834 23.958 25.9691 23.976 26.106 23.9812Z" fill="#923B95"/>
<path d="M11.1396 12.4482C11.18 12.6149 11.2009 12.787 11.2009 12.9613C11.2009 13.5349 10.9747 14.0853 10.5713 14.4932C10.2676 14.8002 9.87953 15.01 9.45633 15.096C9.03312 15.182 8.59391 15.1403 8.19448 14.9761C7.79505 14.8119 7.45343 14.5327 7.21301 14.174C6.9726 13.8152 6.84424 13.3931 6.84424 12.9613C6.84424 12.5294 6.9726 12.1073 7.21301 11.7486C7.45343 11.3898 7.79505 11.1107 8.19448 10.9465C8.59391 10.7823 9.03312 10.7406 9.45633 10.8266C9.49687 10.8348 9.53708 10.8442 9.57693 10.8547L17.2599 3.12367C18.1826 2.2007 19.2781 1.46855 20.4838 0.969028C21.6895 0.469506 22.9818 0.212402 24.2868 0.212402C25.5919 0.212402 26.8842 0.469506 28.0899 0.969028C29.2956 1.46855 30.3911 2.2007 31.3137 3.12367L31.89 3.71393C33.1618 4.97142 34.0668 6.55184 34.5076 8.28522C34.9483 10.0186 34.9082 11.8393 34.3915 13.5516C34.3519 13.6928 34.2848 13.8248 34.1941 13.9401C34.1034 14.0553 33.9909 14.1516 33.863 14.2233C33.7351 14.2951 33.5943 14.341 33.4487 14.3584C33.3031 14.3757 33.1554 14.3643 33.0143 14.3246C32.8731 14.2849 32.7411 14.2178 32.6258 14.1271C32.5106 14.0364 32.4143 13.9239 32.3425 13.796C32.2708 13.6681 32.2249 13.5274 32.2075 13.3817C32.1901 13.2361 32.2016 13.0885 32.2413 12.9473C32.645 11.6171 32.6805 10.2023 32.3439 8.85356C32.0073 7.5048 31.3113 6.27255 30.33 5.28796L29.7538 4.6977C28.3124 3.25849 26.3588 2.45013 24.322 2.45013C22.2851 2.45013 20.3315 3.25849 18.8901 4.6977L11.1396 12.4482Z" fill="#05A2D8"/>
</g>
</g>
<defs>
<clipPath id="clip0_202_8624">
<rect width="37" height="37" fill="white"/>
</clipPath>
<clipPath id="clip1_202_8624">
<rect width="36" height="36" fill="white" transform="translate(0.00219727 0.00219727)"/>
</clipPath>
</defs>
</svg>
