<svg width="30" height="33" viewBox="0 0 30 33" fill="none" xmlns="http://www.w3.org/2000/svg">
<path fill-rule="evenodd" clip-rule="evenodd" d="M11.8781 12.6026V11.3544C11.4449 11.2931 11.0081 11.2612 10.5706 11.2592C5.22039 11.2592 0.867676 15.6126 0.867676 20.9628C0.867676 24.2448 2.50791 27.15 5.01005 28.9068C3.33466 27.1151 2.40323 24.7533 2.40458 22.3004C2.40458 17.0264 6.63342 12.7257 11.8781 12.6026Z" fill="#00F2EA"/>
<path fill-rule="evenodd" clip-rule="evenodd" d="M12.1067 26.7314C14.4938 26.7314 16.4411 24.8325 16.5298 22.466L16.5379 1.33999H20.3973C20.3149 0.898897 20.2733 0.451166 20.2727 0.00244141H15.0017L14.9929 21.1292C14.905 23.495 12.9569 25.3932 10.5706 25.3932C9.85411 25.3934 9.14844 25.2189 8.51477 24.8846C8.9239 25.4554 9.46311 25.9206 10.0877 26.2418C10.7123 26.563 11.4044 26.7308 12.1067 26.7314ZM27.6072 8.51072V7.33659C26.1888 7.33792 24.8009 6.92532 23.6136 6.1493C24.6545 7.34785 26.0561 8.17639 27.608 8.51072" fill="#00F2EA"/>
<path fill-rule="evenodd" clip-rule="evenodd" d="M23.6129 6.14856C22.4494 4.81721 21.8085 3.10885 21.8093 1.3407H20.397C20.5799 2.31799 20.9591 3.248 21.5119 4.07442C22.0647 4.90083 22.7795 5.60645 23.6129 6.14856ZM10.5703 16.5309C9.3955 16.5323 8.26923 16.9995 7.4385 17.8303C6.60783 18.6609 6.14056 19.7872 6.13916 20.962C6.13996 21.7701 6.36156 22.5627 6.78009 23.2541C7.19863 23.9453 7.7981 24.5091 8.51376 24.8845C7.96883 24.1331 7.67543 23.2285 7.67536 22.3003C7.6765 21.1254 8.1437 19.9989 8.97443 19.1681C9.80517 18.3372 10.9316 17.8698 12.1065 17.8685C12.5631 17.8685 13.0006 17.9439 13.414 18.0737V12.6919C12.9808 12.6306 12.544 12.5987 12.1065 12.5966C12.0295 12.5966 11.954 12.601 11.8778 12.6025V16.7361C11.455 16.6015 11.014 16.5323 10.5703 16.5309Z" fill="#FF004F"/>
<path fill-rule="evenodd" clip-rule="evenodd" d="M27.6072 8.51062V12.6076C24.8734 12.6076 22.3412 11.7332 20.273 10.2491V20.962C20.273 26.3121 15.921 30.6649 10.5708 30.6649C8.50328 30.6649 6.58601 30.0126 5.01025 28.9059C5.91621 29.8829 7.01414 30.6622 8.23535 31.1951C9.45655 31.7279 10.7746 32.0027 12.107 32.0024C17.4572 32.0024 21.8099 27.6497 21.8099 22.3002V11.5874C23.9465 13.1238 26.5124 13.9489 29.1441 13.9458V8.67335C28.6164 8.67335 28.1033 8.61615 27.6072 8.50989" fill="#FF004F"/>
<path fill-rule="evenodd" clip-rule="evenodd" d="M20.273 20.962V10.2492C22.4095 11.7857 24.9755 12.6108 27.6072 12.6076V8.5107C26.0555 8.17603 24.6542 7.34723 23.6136 6.14855C22.7801 5.60645 22.0653 4.90083 21.5125 4.07442C20.9598 3.248 20.5805 2.31799 20.3976 1.3407H16.5381L16.53 22.4667C16.4414 24.8325 14.494 26.7315 12.107 26.7315C11.4046 26.7307 10.7126 26.5628 10.088 26.2417C9.46343 25.9205 8.92423 25.4553 8.51502 24.8845C7.79922 24.5093 7.19955 23.9455 6.78089 23.2542C6.36222 22.5629 6.14049 21.7703 6.13969 20.962C6.14102 19.7872 6.60829 18.6609 7.43902 17.8303C8.26969 16.9995 9.39603 16.5322 10.5708 16.5308C11.0267 16.5308 11.4642 16.6057 11.8783 16.7361V12.6025C6.63362 12.7256 2.40479 17.0263 2.40479 22.3003C2.40479 24.8508 3.39567 27.1727 5.01026 28.9067C6.63795 30.0525 8.58029 30.6667 10.5708 30.6649C15.921 30.6649 20.273 26.3122 20.273 20.962Z" fill="white"/>
</svg>
