<svg width="36" height="30" viewBox="0 0 36 30" fill="none" xmlns="http://www.w3.org/2000/svg">
<g clip-path="url(#clip0_202_10300)">
<path d="M34.9434 10.5499L33.8809 9.48743L15.4684 27.8999L16.5309 28.9624L34.9434 10.5499Z" fill="url(#paint0_linear_202_10300)"/>
<path d="M14.4058 29.8421C16.0656 29.8421 17.411 28.4966 17.411 26.8369C17.411 25.1771 16.0656 23.8317 14.4058 23.8317C12.7461 23.8317 11.4006 25.1771 11.4006 26.8369C11.4006 28.4966 12.7461 29.8421 14.4058 29.8421Z" fill="url(#paint1_radial_202_10300)"/>
<path d="M32.8184 11.43C34.4781 11.43 35.8236 10.0845 35.8236 8.42476C35.8236 6.76503 34.4781 5.41956 32.8184 5.41956C31.1586 5.41956 29.8132 6.76503 29.8132 8.42476C29.8132 10.0845 31.1586 11.43 32.8184 11.43Z" fill="url(#paint2_radial_202_10300)"/>
<path d="M12.2809 28.962L13.3434 27.8995L2.13089 16.687L1.06839 17.7495L12.2809 28.962Z" fill="url(#paint3_linear_202_10300)"/>
<path d="M3.19331 18.6297C4.85304 18.6297 6.19852 17.2842 6.19852 15.6245C6.19852 13.9647 4.85304 12.6193 3.19331 12.6193C1.53359 12.6193 0.18811 13.9647 0.18811 15.6245C0.18811 17.2842 1.53359 18.6297 3.19331 18.6297Z" fill="url(#paint4_radial_202_10300)"/>
<path d="M6.14336 8.42476L1.06836 13.4998C0.481557 14.0866 0.481557 15.038 1.06836 15.6248L13.3434 27.8998C13.9302 28.4866 14.8816 28.4866 15.4684 27.8998L20.5434 22.8248C21.1302 22.238 21.1302 21.2866 20.5434 20.6998L8.26836 8.42476C7.68156 7.83795 6.73016 7.83795 6.14336 8.42476Z" fill="#195ABD"/>
<path d="M34.9433 6.29973L29.8683 1.22473C29.2815 0.63793 28.3301 0.637929 27.7433 1.22473L8.26835 20.6997C7.68155 21.2865 7.68155 22.2379 8.26835 22.8247L13.3434 27.8997C13.9302 28.4865 14.8815 28.4865 15.4683 27.8997L34.9433 8.42473C35.5301 7.83793 35.5301 6.88653 34.9433 6.29973Z" fill="url(#paint5_linear_202_10300)"/>
</g>
<defs>
<linearGradient id="paint0_linear_202_10300" x1="24.6688" y1="18.6868" x2="25.7308" y2="19.7488" gradientUnits="userSpaceOnUse">
<stop stop-opacity="0.13"/>
<stop offset="0.994" stop-opacity="0"/>
</linearGradient>
<radialGradient id="paint1_radial_202_10300" cx="0" cy="0" r="1" gradientUnits="userSpaceOnUse" gradientTransform="translate(14.4058 26.8369) rotate(45) scale(3.0052)">
<stop offset="0.5" stop-opacity="0.13"/>
<stop offset="0.994" stop-opacity="0"/>
</radialGradient>
<radialGradient id="paint2_radial_202_10300" cx="0" cy="0" r="1" gradientUnits="userSpaceOnUse" gradientTransform="translate(922.364 -9805.03) rotate(-135) scale(510.885)">
<stop offset="0.5" stop-opacity="0.13"/>
<stop offset="0.994" stop-opacity="0"/>
</radialGradient>
<linearGradient id="paint3_linear_202_10300" x1="-1372.48" y1="2033.68" x2="-1417.62" y2="2078.82" gradientUnits="userSpaceOnUse">
<stop stop-opacity="0.13"/>
<stop offset="0.994" stop-opacity="0"/>
</linearGradient>
<radialGradient id="paint4_radial_202_10300" cx="0" cy="0" r="1" gradientUnits="userSpaceOnUse" gradientTransform="translate(-8343.05 -8563.87) rotate(-45) scale(510.807)">
<stop offset="0.5" stop-opacity="0.13"/>
<stop offset="0.994" stop-opacity="0"/>
</radialGradient>
<linearGradient id="paint5_linear_202_10300" x1="10.8058" y1="25.3622" x2="32.4058" y2="3.76223" gradientUnits="userSpaceOnUse">
<stop stop-color="#2987E6"/>
<stop offset="0.994" stop-color="#58C1F5"/>
</linearGradient>
<clipPath id="clip0_202_10300">
<rect width="36.0059" height="30" fill="white"/>
</clipPath>
</defs>
</svg>
