<svg width="37" height="36" viewBox="0 0 37 36" fill="none" xmlns="http://www.w3.org/2000/svg">
<g clip-path="url(#clip0_202_15223)">
<path d="M31.5052 0.000427246H4.5046C2.02397 0.00598143 0.0135286 2.01655 0.00488281 4.50043V31.5004C0.00488281 33.9754 2.02948 36.0004 4.5046 36.0004H31.5052C33.9803 36.0004 36.0049 33.9754 36.0049 31.5004V4.50043C36.0049 2.02543 33.9803 0.000427246 31.5052 0.000427246Z" fill="#E44332"/>
<path d="M7.6173 16.9883C8.24495 16.6218 21.7281 8.78633 22.0363 8.60477C22.3445 8.42544 22.3613 7.87401 22.0139 7.67451C21.6687 7.47613 21.013 7.09954 20.7698 6.95496C20.4225 6.76391 20.0005 6.76902 19.658 6.96841C19.4854 7.06928 7.96475 13.7604 7.58032 13.9801C7.11743 14.2446 6.54919 14.2491 6.08966 13.9801L0.00488281 10.4092V13.4443C1.48433 14.3163 5.16837 16.4817 6.06052 16.9917C6.5929 17.2943 7.10286 17.2875 7.61843 16.9883" fill="white"/>
<path d="M7.6173 22.7268C8.24495 22.3603 21.7281 14.5248 22.0363 14.3432C22.3445 14.1639 22.3613 13.6125 22.0139 13.413C21.6687 13.2146 21.013 12.838 20.7698 12.6934C20.4225 12.5024 20.0005 12.5075 19.658 12.7069C19.4854 12.8077 7.96475 19.4989 7.58032 19.7185C7.11743 19.983 6.54919 19.9875 6.08966 19.7185L0.00488281 16.1477V19.1828C1.48433 20.0548 5.16837 22.2202 6.06052 22.7301C6.5929 23.0327 7.10286 23.026 7.61843 22.7268" fill="white"/>
<path d="M7.6173 28.8239C8.24495 28.4574 21.7281 20.6219 22.0363 20.4403C22.3445 20.261 22.3613 19.7096 22.0139 19.5101C21.6687 19.3117 21.013 18.9351 20.7698 18.7905C20.4225 18.5995 20.0005 18.6046 19.658 18.804C19.4854 18.9048 7.96475 25.596 7.58032 25.8157C7.11743 26.0802 6.54919 26.0846 6.08966 25.8157L0.00488281 22.2448V25.2799C1.48433 26.1519 5.16837 28.3173 6.06052 28.8272C6.5929 29.1298 7.10286 29.1231 7.61843 28.8239" fill="white"/>
</g>
<defs>
<clipPath id="clip0_202_15223">
<rect width="37" height="36.0004" fill="white"/>
</clipPath>
</defs>
</svg>
