<svg width="37" height="34" viewBox="0 0 37 34" fill="none" xmlns="http://www.w3.org/2000/svg">
<g clip-path="url(#clip0_202_11928)">
<path d="M4.8427 3.02784H8.154V0.877686H4.8427C3.92554 0.877686 3.03272 1.13573 2.2604 1.62384L3.40931 3.44142C3.83723 3.17086 4.33294 3.02784 4.8427 3.02784ZM2.15479 5.71575C2.15479 5.32284 2.23734 4.94484 2.40004 4.59201L0.447326 3.69187C0.153561 4.3289 0.00463867 5.00981 0.00463867 5.71575V9.52162H2.15479V5.71575ZM0.00463867 11.6933H2.15479V17.1119H0.00463867V11.6933ZM28.9595 3.50976C29.6077 3.09928 30.2538 2.71144 30.8935 2.34862C30.5279 1.97203 30.1013 1.65422 29.6362 1.41417C28.956 1.06317 28.1897 0.877686 27.42 0.877686H25.5171V3.02784H27.42C27.9834 3.02784 28.5152 3.19814 28.9595 3.50976ZM0.00463867 19.2837H2.15479V24.7131H0.00463867V19.2837ZM10.3258 0.877686H15.7444V3.02798H10.3258V0.877686ZM17.916 0.877686H23.3454V3.02798H17.916V0.877686ZM20.3136 30.9809H25.7321V33.1312H20.3136V30.9809ZM30.108 13.091H32.2582V18.5204H30.108V13.091ZM30.108 20.692H32.2582V26.1106H30.108V20.692ZM2.15479 28.2931V26.8847H0.00463867V28.2931C0.00463867 30.0541 0.962858 31.6775 2.50537 32.53L3.54529 30.6479C2.68762 30.174 2.15479 29.2717 2.15479 28.2931ZM30.108 9.49336V10.9193H32.2581V7.72584C31.5513 8.25206 30.8339 8.84184 30.108 9.49336ZM30.108 28.2931C30.108 29.641 29.1021 30.7869 27.7681 30.9588L28.0426 33.0914C29.2001 32.9423 30.2653 32.3773 31.0423 31.5005C31.8262 30.6155 32.2581 29.4764 32.2581 28.2931V28.2824H30.108V28.2931ZM5.11144 30.9809H10.5408V33.1312H5.11144V30.9809ZM12.7125 30.9809H18.1419V33.1312H12.7125V30.9809Z" fill="#383838"/>
<path d="M4.92871 17.9977L15.0143 28.0833C15.0143 28.0833 25.1 8.68004 36.0047 4.3284L35.5952 1.25659C29.6565 3.61164 20.6459 9.80645 13.9904 19.2775L6.97663 15.1308L4.92871 17.9977Z" fill="#AF2F2F"/>
</g>
<defs>
<clipPath id="clip0_202_11928">
<rect width="37" height="34" fill="white"/>
</clipPath>
</defs>
</svg>
