<svg width="40" height="30" viewBox="0 0 40 30" fill="none" xmlns="http://www.w3.org/2000/svg">
<g clip-path="url(#clip0_202_13999)">
<path d="M6.92296 19.4751C7.37796 20.0363 7.88374 20.6051 8.44046 21.177C6.81984 21.6646 5.7575 22.5701 5.09468 23.3696C4.04625 24.6351 3.49125 26.3063 3.6189 27.7407H0.828125C1.38781 26.5262 3.62187 23.0174 6.92296 19.4751Z" fill="#D1A41A"/>
<path d="M39.2503 28.5021H35.857C28.0727 24.44 21.2385 21.5757 13.9783 20.9499C13.9938 19.9396 14.1736 18.7958 14.5196 17.5211L13.8508 17.3413C13.4957 18.6511 13.3096 19.8366 13.288 20.8975C12.5316 20.8468 11.7705 20.8222 11.0018 20.8222C10.3513 20.8222 9.75785 20.8822 9.21676 20.9868C8.51098 20.2825 7.90988 19.6091 7.39941 18.9711C10.748 15.484 16.2632 12.329 21.0632 11.1421C22.4147 15.6346 25.316 18.7127 28.8367 20.7838C29.095 20.6361 29.3488 20.4824 29.5978 20.3196L35.7402 26.9322L36.0092 26.9091C37.6866 26.7647 38.6399 27.6749 38.8922 27.9577C39.0781 28.1638 39.1888 28.353 39.2503 28.5021Z" fill="#D1A41A"/>
<path d="M36.2535 6.38357C36.378 12.4859 33.2646 17.3429 28.9057 19.8337C21.5072 16.1484 20.1143 6.80951 21.3751 1.80029C21.7255 3.71607 22.3636 4.91685 23.7413 5.50576C26.7455 4.64623 30.8799 4.57842 33.9257 5.4181C35.1941 4.4956 35.6861 3.08576 35.9552 1.8542C36.2903 3.28701 36.2519 6.38357 36.2535 6.38357Z" fill="#FFDC76"/>
<path d="M26.2854 7.19893C26.5411 7.19893 26.7205 7.30283 26.8502 7.52502C27.1541 8.04783 27.1043 9.07908 26.8522 10.158H24.806V10.6063H26.7371C26.5299 11.3424 26.2388 12.0706 25.9111 12.6477L25.8052 12.8342L28.3655 14.4458L26.9241 15.3956L27.1708 15.7702L28.7819 14.708L30.5211 15.843L30.76 15.4636L29.1474 14.466C29.1474 14.466 31.5585 12.8999 31.6783 12.8233C31.6775 12.8224 31.6771 12.8214 31.6764 12.8205L31.6793 12.82C31.1478 12.0366 30.9794 11.3677 31.2007 10.6063H31.3816L33.326 10.6041L33.3305 10.158H31.3713C31.7322 9.30861 32.2375 8.54392 34.0413 8.54392V8.09564C32.3771 8.09564 31.381 8.75642 30.9039 10.158H27.3132C27.5643 9.03752 27.6078 7.93611 27.2372 7.29939C27.0286 6.94064 26.6993 6.75049 26.2854 6.75049C24.8021 6.75049 24.2164 8.26627 24.1924 8.3308L24.6121 8.4883C24.633 8.43346 25.1166 7.19893 26.2854 7.19893ZM28.7766 14.1749L26.8829 12.9825L30.5838 12.9835L28.7766 14.1749ZM30.7446 10.6063C30.5853 11.1138 30.6493 11.8783 31.0411 12.5344H26.4786C26.7561 11.9783 27.0135 11.3005 27.2016 10.6063H30.7446Z" fill="black"/>
<path d="M24.6126 8.48877H24.6125L24.6123 8.48908L24.6126 8.48877Z" fill="black"/>
<path d="M39.408 27.4842C38.6481 26.6342 37.1597 26.2318 35.9167 26.2617C35.1244 25.3186 30.9203 20.8803 30.0716 19.9853C31.8264 18.7537 33.3505 17.1537 34.5189 15.2534H36.8388V14.7554H34.8125C34.9419 14.5272 35.0652 14.294 35.1844 14.0578H36.8388V13.5597H35.4253C36.4753 11.292 37.0564 8.68857 37 5.83919C37.002 5.84044 37.0041 5.84138 37.0059 5.84248C37.003 5.06295 36.7603 1.7681 36.3141 0.860918C35.1041 1.32076 32.9024 2.81045 32.4041 4.33388C30.0159 3.97732 27.3238 4.01951 24.9655 4.42763C24.5714 2.78857 22.5939 1.5342 21.102 0.827637C20.4728 1.88951 20.1941 4.35154 20.2649 6.0981C20.2622 6.09982 20.2594 6.10169 20.2566 6.10357C20.3161 7.68154 20.5303 9.1306 20.8752 10.462C15.7158 11.7404 10.0988 15.1203 6.95675 18.3867C5.48613 16.4018 4.90269 14.7729 4.72941 13.5386C4.5105 11.9797 4.88269 10.5495 5.8055 9.40279C7.25034 7.60794 9.30315 7.48154 11.4139 7.83654C11.3727 8.16982 11.4164 8.48841 11.55 8.6856C12.1082 9.50997 15.1083 9.79966 16.8991 9.00075C15.5775 7.14888 12.9007 6.24466 12.1589 6.60701C11.9133 6.72685 11.7278 6.94732 11.6008 7.20435C10.8713 7.07388 10.1467 6.97669 9.61706 6.9806C7.7555 6.99435 6.33238 7.64482 5.2666 8.96904C4.22082 10.2683 3.79816 11.8817 4.04425 13.6348C4.27738 15.2953 5.09941 17.0614 6.47738 18.8929C6.24847 19.1384 6.02722 19.3809 5.81425 19.619C2.45582 23.3768 0.000976562 27.4065 0.000976562 28.0742V28.4201H4.43144L4.35379 28.01C4.10363 26.6876 4.60332 25.0348 5.62675 23.7995C6.26925 23.024 7.33331 22.1389 9.00425 21.7304C10.49 23.1804 12.3828 24.7204 14.4899 26.206H17.7822V25.8601C17.7822 25.4698 17.5888 25.1281 17.2372 24.8981C16.7171 24.5581 15.9142 24.5112 15.1767 24.7628C14.4736 23.9796 14.0794 22.9336 13.9942 21.6343C21.1397 22.2671 27.9742 25.1526 35.6861 29.1812H39.9292L39.9848 28.9031C40.0641 28.5071 39.8483 27.9767 39.408 27.4842ZM21.3749 1.78857C21.726 3.70357 22.3627 4.90451 23.7417 5.49373C24.9627 5.14435 26.3713 4.9281 27.8169 4.84826L29.0159 7.4781L29.7847 4.82545C31.2455 4.87279 32.6769 5.06201 33.9247 5.40623C35.1939 4.48341 35.6861 3.07388 35.9548 1.84232C36.2906 3.27545 36.2519 6.37107 36.2528 6.37169C36.2764 7.52763 36.1834 8.63857 35.9881 9.69747L34.6186 10.2795L35.8255 10.4623C35.7295 10.8681 35.6197 11.2661 35.4938 11.6547L34.3259 11.9937L35.2564 12.3287C35.0973 12.7503 34.9223 13.1614 34.7295 13.5597H32.8038V14.0578H34.4763C34.35 14.2951 34.2172 14.5273 34.0794 14.7554H32.8038V15.2534H33.7661C32.5 17.1707 30.8234 18.7256 28.9052 19.8218C26.6881 18.7172 25.011 17.1047 23.7822 15.2534H24.5174V14.7554H23.4655C23.3261 14.5259 23.1931 14.2932 23.0666 14.0578H24.5174V13.5597H22.8095C22.5155 12.9637 22.2603 12.3533 22.0413 11.7356L22.9114 11.492L21.8142 11.0533C21.7033 10.6953 21.6038 10.3359 21.5155 9.97638L23.2041 9.86122L21.2731 8.83669C20.7999 6.22716 20.8949 3.69451 21.3749 1.78857ZM5.0941 23.3581C4.04613 24.6229 3.49066 26.2937 3.61785 27.7282H0.826913C1.38769 26.5146 3.62144 23.0064 6.92206 19.4626C7.37691 20.0248 7.88347 20.5926 8.43987 21.1651C6.81941 21.6523 5.75691 22.5581 5.0941 23.3581ZM35.8558 28.4893C28.0722 24.4279 21.2375 21.5639 13.9775 20.9382C13.9933 19.9279 14.1733 18.7843 14.5183 17.5098L13.8507 17.3289C13.4958 18.639 13.3089 19.8253 13.2878 20.8856C12.5313 20.8354 11.7699 20.8095 11.0019 20.8095C10.3505 20.8095 9.75722 20.87 9.21612 20.9751C8.5105 20.2698 7.90925 19.5976 7.39847 18.9597C8.30706 18.0131 9.37612 17.0917 10.546 16.227L12.166 17.3456L11.6371 15.4565C12.1296 15.1243 12.6358 14.8032 13.1519 14.4948L15.5527 15.7148L14.4253 13.7712C14.7539 13.5937 15.0852 13.4218 15.4181 13.2562L18.7721 15.5059L17.6706 12.2422C18.8155 11.7808 19.9574 11.4034 21.0617 11.1303C21.3213 11.9915 21.6388 12.7995 22.0055 13.5597H20.4822V14.0578H22.2566C22.3814 14.2951 22.5105 14.5281 22.6453 14.7554H20.4822V15.2534H22.9538C24.4695 17.6062 26.5177 19.4078 28.8358 20.7714C29.0938 20.624 29.3469 20.4676 29.5966 20.3054L30.2041 20.9595L29.1831 22.5301L30.9245 21.7351L31.9327 22.8204L30.2284 24.119L32.5752 23.5121L35.7403 26.9196L36.0083 26.8967C37.6861 26.7531 38.6397 27.6629 38.8922 27.9453C39.0773 28.1523 39.1891 28.3412 39.2498 28.4893H35.8558Z" fill="black"/>
</g>
<defs>
<clipPath id="clip0_202_13999">
<rect width="40.001" height="30" fill="white"/>
</clipPath>
</defs>
</svg>
