<svg width="41" height="22" viewBox="0 0 41 22" fill="none" xmlns="http://www.w3.org/2000/svg">
<g clip-path="url(#clip0_202_11155)">
<path d="M20.0016 0.861572C12.7516 0.861572 6.40784 2.8147 2.89222 5.7522C2.90784 5.83032 2.82972 5.98657 2.86097 6.0647C3.26722 8.0022 5.00159 9.76782 7.62659 11.0803C7.68909 11.1116 7.86097 11.0178 7.93909 11.0491C8.23597 10.8459 11.9391 8.40845 20.0016 8.40845C28.0172 8.40845 31.7516 10.8147 32.0797 11.0491C32.1422 11.0178 32.2985 11.0803 32.361 11.0647C35.0328 9.73657 36.7985 7.97095 37.1735 6.03345C37.1891 5.97095 37.0953 5.84595 37.111 5.78345C33.5953 2.8147 27.2516 0.861572 20.0016 0.861572Z" fill="url(#paint0_linear_202_11155)"/>
<path d="M37.1113 5.7522C36.4395 10.0647 29.0332 13.4553 20.002 13.4553C10.9707 13.4553 3.56445 10.0647 2.89258 5.7522C1.06445 7.28345 0.00195312 9.08032 0.00195312 11.0022C0.00195312 16.5959 8.95508 21.1428 20.002 21.1428C31.0488 21.1428 40.002 16.5959 40.002 11.0022C40.002 9.08032 38.9395 7.28345 37.1113 5.7522Z" fill="url(#paint1_linear_202_11155)"/>
</g>
<defs>
<linearGradient id="paint0_linear_202_11155" x1="2.84951" y1="5.97551" x2="37.1777" y2="5.97551" gradientUnits="userSpaceOnUse">
<stop stop-color="#A34CB4"/>
<stop offset="0.0919236" stop-color="#954DB2"/>
<stop offset="0.7169" stop-color="#3C52A1"/>
<stop offset="1" stop-color="#19549B"/>
</linearGradient>
<linearGradient id="paint1_linear_202_11155" x1="-1.55182" y1="32.2249" x2="4.26368" y2="-6.45232" gradientUnits="userSpaceOnUse">
<stop stop-color="#FF0264"/>
<stop offset="0.4943" stop-color="#FE744A"/>
<stop offset="0.819" stop-color="#FDBC39"/>
<stop offset="1" stop-color="#FDDF31"/>
</linearGradient>
<clipPath id="clip0_202_11155">
<rect width="41" height="22" fill="white"/>
</clipPath>
</defs>
</svg>
