<svg width="32" height="37" viewBox="0 0 32 37" fill="none" xmlns="http://www.w3.org/2000/svg">
<g clip-path="url(#clip0_202_13006)">
<path d="M4.06558 28.3607C5.41636 29.9622 7.72219 31.5242 9.17745 30.9349C10.6328 30.3458 11.2226 26.0373 10.701 25.4635C10.1795 24.8897 7.39265 20.2205 5.22531 20.8954C3.05797 21.5704 2.7148 26.7593 4.06558 28.3607Z" fill="#C00000"/>
<path d="M4.59598 16.4664C5.91827 18.6652 9.84236 21.4419 12.3643 20.4546C14.8862 19.4672 13.1607 16.0061 11.7633 13.7142C11.5615 13.3832 11.4747 11.9901 10.5784 10.7971C9.68209 9.60402 8.25978 8.82858 7.1835 9.18895C4.13159 10.2108 3.2452 14.8649 4.59598 16.4664Z" fill="#C00000"/>
<path d="M15.9247 15.5404C17.2754 17.1418 17.5419 18.7861 19.6315 18.7061C21.721 18.626 23.3237 13.6668 23.2656 11.659C23.2074 9.65119 21.2871 5.11697 17.898 6.0784C14.509 7.03981 14.3779 11.1457 15.9247 15.5404Z" fill="#C00000"/>
<path d="M24.1838 21.8613C24.5589 23.8353 26.1253 25.2123 28.4509 24.5747C30.7765 23.9374 31.3865 17.9535 30.8648 17.3798C30.3434 16.8059 29.3028 13.8065 27.1354 14.4815C24.968 15.1564 23.3564 19.3269 24.1838 21.8613Z" fill="#C00000"/>
<path d="M12.2681 35.7205C15.425 36.9725 16.5259 33.6927 20.0109 32.7289C23.496 31.7651 26.4812 33.3387 27.4919 30.2462C28.7873 26.2827 25.6081 26.8773 23.0576 25.1191C20.5071 23.3608 21.1606 21.3475 17.2206 22.2961C12.9726 23.3189 15.1253 27.5701 13.476 29.1254C11.0813 31.3838 10.3205 34.948 12.2681 35.7205Z" fill="#C00000"/>
<path d="M1.15215 19.5953C1.42469 20.3447 2.72611 21.0723 3.3992 20.775C4.0723 20.4777 4.04366 19.7064 3.73005 18.762C3.41645 17.8177 1.91969 16.6271 1.39877 16.8392C0.87784 17.0512 0.879605 18.846 1.15215 19.5953Z" fill="#C00000"/>
<path d="M4.30569 7.35321C4.57823 8.10259 4.94802 9.43654 6.00412 9.03153C7.06022 8.62649 7.38668 7.89321 7.07307 6.94883C6.75943 6.00447 5.48215 4.61444 4.96123 4.82648C4.44031 5.03852 4.03315 6.60384 4.30569 7.35321Z" fill="#C00000"/>
<path d="M16.1553 3.19514C16.4278 3.94452 17.809 5.20078 18.4821 4.90345C19.1552 4.60609 19.4937 3.18059 19.1801 2.23621C18.8664 1.29186 17.4256 -0.189963 16.9047 0.0220789C16.3837 0.234121 15.8828 2.44576 16.1553 3.19514Z" fill="#C00000"/>
<path d="M26.2902 12.5382C26.5627 13.2876 27.0443 14.0391 27.7174 13.7417C28.3904 13.4444 29.1537 12.795 28.8402 11.8505C28.5265 10.9062 27.79 8.74417 27.2688 8.95628C26.7479 9.16834 26.0176 11.7889 26.2902 12.5382Z" fill="#C00000"/>
</g>
<defs>
<clipPath id="clip0_202_13006">
<rect width="32" height="37" fill="white"/>
</clipPath>
</defs>
</svg>
