<svg width="37" height="36" viewBox="0 0 37 36" fill="none" xmlns="http://www.w3.org/2000/svg">
<g clip-path="url(#clip0_202_10418)">
<path d="M35.9129 12.6947C35.8961 12.5635 35.8759 12.4325 35.8488 12.3039C35.8236 12.1712 35.7974 12.0478 35.7556 11.904L35.6554 11.745C35.2424 11.4207 34.7967 11.1754 34.3443 10.9588C33.9708 10.7825 33.5914 10.6289 33.2077 10.4873C32.1378 7.51846 30.2991 4.88608 27.8813 3.05185C25.3823 1.15615 22.443 0.152588 19.3819 0.152588C16.3207 0.152588 13.3814 1.15615 10.8823 3.052C8.46464 4.88608 6.62558 7.51861 5.55604 10.4881C5.17323 10.629 4.79322 10.7833 4.42021 10.9588C3.96706 11.1754 3.52169 11.4205 3.10854 11.745L3.00801 11.904C2.96802 12.0478 2.94187 12.1712 2.9148 12.3039C2.88881 12.4325 2.86936 12.5635 2.85084 12.6947C2.8138 12.9536 2.78921 13.2155 2.77552 13.4776C2.74922 14.0023 2.764 14.528 2.82158 15.0497C2.87714 15.5707 2.97424 16.0871 3.11274 16.599C3.18541 16.8532 3.26788 17.1046 3.36577 17.3541C3.41432 17.479 3.46738 17.6031 3.52621 17.7271C3.55515 17.7887 3.5869 17.8489 3.61926 17.912C3.691 18.0377 3.70407 18.0623 3.73426 18.1069L3.86996 18.2319C3.95835 18.2773 4.03164 18.3119 4.11163 18.3499L4.34521 18.4546C4.38847 18.4723 4.42908 18.4899 4.47328 18.5077C3.41214 19.4888 2.25966 20.7633 1.26154 22.3386L0.0012207 24.327L1.77072 22.774C1.80075 22.7477 3.28438 21.4632 5.75881 20.0081L5.79351 20.2926C5.63167 20.3767 4.8536 20.7851 4.62236 20.9785C4.23908 21.2969 4.22056 21.7908 4.32311 22.7125C4.37571 23.1848 4.5528 24.1019 4.79166 24.9426C5.20327 26.3894 5.50485 26.6452 5.7697 26.7051C5.88921 26.7338 6.04343 26.747 6.21678 26.747C6.69079 26.747 7.29784 26.6547 7.69403 26.535C8.1587 27.9801 8.81695 29.2846 9.6193 30.4295C9.58055 30.4399 9.54227 30.4523 9.50352 30.4634C9.02096 30.2396 7.33348 29.4578 6.7661 29.2029L5.58094 28.6693L6.28199 29.7639C6.33303 29.8429 7.54309 31.7298 8.53109 33.0016C9.45513 34.1876 10.7204 35.4017 13.108 35.4017C13.3954 35.4017 13.6961 35.3831 14.0059 35.3489C14.7179 35.2672 15.2529 35.2029 15.6596 35.1508C18.166 36.0717 20.9295 36.1284 23.5523 35.1346C24.27 34.862 24.924 34.5313 25.5245 34.1605C26.5357 33.9177 27.6417 33.6541 28.188 33.5007C28.2756 33.477 28.3853 33.4509 28.4994 33.424C29.2607 33.2489 30.533 32.9537 31.2115 31.5966C31.8951 30.2273 33.0099 28.1293 33.0216 28.1078L33.5429 27.129L32.5272 27.5707C32.4729 27.5954 31.1858 28.1558 30.5173 28.5062C30.9818 27.4367 31.2555 26.5514 31.3509 26.2114C31.7253 26.3015 32.2804 26.2899 32.6886 26.2899C32.8893 26.2899 33.0958 26.2551 33.2298 26.2209C33.4951 26.1535 33.7001 25.9772 34.0854 24.4844C34.3098 23.6166 34.4707 22.6718 34.5147 22.1861C34.6001 21.2409 34.5724 20.7343 34.1867 20.4146C33.9945 20.2558 33.4304 19.9521 33.1436 19.8025C33.304 19.7339 33.3828 19.754 33.3888 19.7557L33.6493 18.7682C33.741 18.7289 33.8379 18.6896 33.9483 18.6472C34.1054 18.5847 34.2628 18.5224 34.4201 18.4546L34.6524 18.3499C34.7333 18.3119 34.806 18.2775 34.8947 18.2319L35.0304 18.1069C35.0597 18.0623 35.0754 18.0377 35.0934 18.0036C35.1793 17.8489 35.2097 17.7887 35.2383 17.7271C35.2971 17.6031 35.3494 17.4789 35.3987 17.3541C35.4966 17.1046 35.5789 16.8532 35.6515 16.599C35.7895 16.0871 35.888 15.5709 35.9429 15.0497C36.0014 14.528 36.0145 14.0023 35.9884 13.4776C35.9759 13.2155 35.9501 12.9536 35.9129 12.6947Z" fill="#0E0F0D"/>
<path d="M21.0234 33.0325C20.8317 33.0613 20.6398 33.0848 20.4503 33.0999C20.3269 33.106 20.1974 33.1183 20.0794 33.1183L20.0354 33.1194C20.1834 32.7893 20.2961 32.5327 20.3807 32.3385C20.5542 32.5327 20.7747 32.773 21.0234 33.0325Z" fill="#E1C5A2"/>
<path d="M20.7909 18.2777C20.491 18.5211 20.1751 18.7477 19.8461 18.9465L18.7487 19.6085C18.0604 19.6926 17.4632 19.8626 17.4291 19.8731C17.409 19.8774 17.3901 19.8868 17.3723 19.8975C17.3189 19.9283 17.2783 19.98 17.2589 20.0411L16.1413 23.7231L10.1678 25.0516L8.28582 23.7339L7.73853 19.3001C8.80744 19.1037 10.2363 18.8771 11.9524 18.6845C11.7689 18.9042 11.5905 19.1351 11.4207 19.3781L10.3991 20.8446L11.8871 19.8528C11.9095 19.8373 12.8564 19.2139 14.4063 18.4556C15.9509 18.34 17.6562 18.2653 19.4803 18.2653C19.926 18.2653 20.3623 18.2705 20.7909 18.2777ZM11.4929 23.2728C11.9176 23.0434 12.3969 23.077 13.1477 23.0787C13.2277 23.0803 13.3109 23.0794 13.3971 23.077C13.4714 23.077 13.5453 23.0758 13.6239 23.0734C14.3976 23.0657 15.0403 23.1388 15.0286 21.9252C15.0171 20.7114 14.4776 19.7297 13.7045 19.7374C12.9315 19.7442 12.1833 20.7391 12.2296 21.9522C12.2419 22.2681 12.2887 22.4964 12.3629 22.6604C11.6893 22.8299 11.5028 23.2466 11.4929 23.2728Z" fill="#A89983"/>
<path d="M31.1442 19.2855L30.6062 23.0556L28.7089 24.3842L22.7433 23.7062L21.6302 20.0408C21.6048 19.9591 21.5416 19.8966 21.4598 19.8729C21.4231 19.8619 20.6845 19.6507 19.9016 19.583L20.0449 19.5735C20.1683 19.5643 22.2256 19.3124 24.6829 18.4657C27.4033 18.6744 29.6257 19.0082 31.1442 19.2855ZM27.3325 22.7751C27.3247 22.7459 27.161 22.2582 26.4429 22.3438C26.5254 22.1633 26.5625 21.9197 26.5364 21.5855C26.4416 20.374 25.7362 19.4112 24.9639 19.4384C24.1908 19.4652 23.6964 20.4695 23.7392 21.6849C23.7817 22.8976 24.4297 22.8892 25.2028 22.8617C26.241 22.8419 26.8111 22.523 27.3325 22.7751Z" fill="#A89983"/>
<path d="M25.2914 20.5941C25.2951 20.8122 25.1221 20.9917 24.9038 20.9962C24.6859 21.0001 24.5052 20.8259 24.5023 20.6084C24.4978 20.3904 24.6713 20.2102 24.8893 20.2063C25.1081 20.2016 25.2883 20.3759 25.2914 20.5941Z" fill="white"/>
<path d="M14.2188 20.8847C14.2242 21.102 14.0523 21.2837 13.8349 21.2893C13.6159 21.2955 13.4342 21.1239 13.4281 20.9048C13.4227 20.6874 13.5943 20.5047 13.8134 20.5C14.0305 20.494 14.2127 20.6658 14.2188 20.8847Z" fill="white"/>
<path d="M33.7476 20.944C33.6544 20.867 33.3428 20.689 33.0392 20.5248L32.5392 24.0292C32.5291 24.096 32.4911 24.1585 32.4343 24.1985L31.719 24.6988C31.702 24.7835 31.6888 24.8541 31.676 24.9203C32.3789 25.0933 33.0616 24.5865 33.4449 24.2208C33.6221 23.5303 33.7767 22.7107 33.83 22.124C33.9116 21.2146 33.8394 21.0195 33.7476 20.944Z" fill="#E1C5A2"/>
<path d="M22.6994 34.2577C22.2352 34.0926 21.8097 33.8234 21.4394 33.4572C21.4086 33.4258 21.3792 33.3954 21.3482 33.3646C21.0615 33.4233 20.7688 33.4655 20.4705 33.4908C20.3448 33.4964 20.2248 33.5072 20.0936 33.5072L19.8996 33.5089L19.8249 33.5072C19.3812 34.166 18.6354 34.5282 18.051 34.721C19.7871 35.0188 21.6972 34.563 22.6994 34.2577Z" fill="#E1C5A2"/>
<path d="M7.41721 25.6751C7.40164 25.6221 7.3853 25.5699 7.37021 25.5168L6.44088 24.8663C6.38252 24.8249 6.34549 24.7625 6.33615 24.6916L5.883 21.0116C5.54765 21.1906 5.16001 21.4115 5.05684 21.4979C4.96721 21.572 4.89874 21.7606 4.99568 22.6375C5.06929 23.2966 5.30084 24.3094 5.53738 25.0683C6.00796 25.4283 6.70107 25.8076 7.41721 25.6751Z" fill="#E1C5A2"/>
<path d="M21.31 25.5071C21.2112 25.496 21.1279 25.4266 21.0988 25.3303L19.952 21.5511C19.7596 21.5258 19.5889 21.5118 19.4448 21.5118C19.3001 21.5118 19.1305 21.5258 18.9383 21.5511L17.8235 25.2217C17.7972 25.3071 17.7264 25.3733 17.6383 25.3926L17.1053 25.5113C17.0602 25.6996 16.9066 25.9758 16.4124 26.1274C15.6147 26.3706 10.5653 27.8757 9.98951 27.7939C9.65323 27.7467 9.01365 27.3938 8.54042 27.1084C8.35104 26.6625 8.24631 26.3594 8.22235 26.2875V26.2861L8.22095 26.2875C8.28786 26.4833 8.94673 28.3799 10.2855 30.2351C11.7207 29.8122 12.9603 29.4178 13.3567 29.2924C14.164 28.0475 15.3142 26.8122 16.131 26.7701C16.2728 26.7631 16.4186 26.7587 16.5631 26.7587C16.9634 26.7587 17.3454 26.7872 17.7001 26.8292C17.3988 26.5558 17.337 26.236 17.2933 26.0941C17.2933 26.0941 18.3365 26.91 19.6635 26.7383C20.9924 26.5682 21.8168 25.8029 21.8168 25.8029L21.843 25.5676L21.31 25.5071Z" fill="#E1C5A2"/>
<path d="M22.3891 25.9855C22.1138 25.9143 21.9405 25.8007 21.8308 25.6823L21.8171 25.803C21.8171 25.803 21.8126 26.3607 21.2346 26.7929C22.3476 26.4558 22.8077 26.3417 23.1228 26.3417C23.4697 26.3417 23.6414 26.4865 23.7918 26.6136C23.8203 26.6374 23.8488 26.6623 23.8829 26.6889C24.7389 27.3626 25.7678 28.1803 26.0683 28.4208C26.4167 28.4609 27.5225 28.5874 28.2185 28.6509C28.6192 28.6883 28.9821 28.7184 29.3375 28.7184C29.4514 28.7184 29.5592 28.7146 29.6612 28.7076C30.0281 28.0048 30.3659 27.2273 30.6666 26.3702C30.2551 26.6589 29.3174 27.2907 28.8781 27.3721C28.3065 27.4791 23.1951 26.1945 22.3891 25.9855Z" fill="#E1C5A2"/>
<path d="M35.2513 12.7686C35.2416 12.6476 35.2284 12.5266 35.2136 12.4071C35.2036 12.3215 35.1901 12.2328 35.1753 12.1507C34.8526 11.8791 34.4855 11.6373 34.1036 11.4185C33.69 11.1756 33.2569 10.9598 32.8146 10.7587C32.3763 10.5514 31.925 10.3641 31.4721 10.1814C31.2457 10.0891 31.0174 10.0002 30.7881 9.91559C30.5598 9.82627 30.3295 9.74301 30.0981 9.65898C30.5828 9.73943 31.0637 9.85023 31.5408 9.97286C31.8512 10.0521 32.1597 10.1422 32.4661 10.2386C30.285 4.54019 25.0731 0.829712 19.3818 0.829712C13.6899 0.829712 8.47836 4.54035 6.29898 10.2386C6.60492 10.1422 6.91412 10.0521 7.22302 9.97286C7.69982 9.85023 8.18083 9.73943 8.6665 9.65898C8.4337 9.74301 8.20386 9.82627 7.97433 9.91559C7.7462 10.0004 7.51806 10.0891 7.29149 10.1814C6.83834 10.3641 6.38799 10.5514 5.94822 10.7587C5.50752 10.9598 5.07445 11.1756 4.66036 11.4185C4.27832 11.6373 3.912 11.8791 3.58848 12.1507C3.57525 12.233 3.56125 12.3217 3.55051 12.4071C3.53619 12.5266 3.52297 12.6476 3.51223 12.7686C3.49122 13.0115 3.48297 13.2549 3.48126 13.4994C3.47597 13.9879 3.50912 14.4763 3.57059 14.9591C3.63781 15.4438 3.72651 15.9253 3.85769 16.391C3.92212 16.6235 3.99604 16.8532 4.08116 17.0759C4.12411 17.1868 4.17048 17.297 4.21903 17.4028C4.24284 17.4559 4.26758 17.5083 4.29326 17.5585L4.32454 17.6177C4.36017 17.6356 4.39799 17.6546 4.43316 17.6717L4.64977 17.7751C4.77069 17.8306 4.93828 17.91 5.07662 17.9718C5.08441 17.9648 5.09219 17.9578 5.09841 17.9509L4.69615 16.4187C4.78158 16.3957 5.54534 16.1982 6.86168 15.9471C6.75602 15.9271 6.64896 15.9049 6.54345 15.8794C6.24373 15.8044 5.94791 15.7135 5.66096 15.5979C5.51904 15.5376 5.37898 15.4723 5.24562 15.3968C5.11226 15.3198 4.98123 15.2334 4.87931 15.1178C6.32528 15.5902 9.31401 15.3767 11.971 15.1018C14.4001 14.8512 16.8366 14.6894 19.2847 14.6839C21.7322 14.6894 24.1696 14.8512 26.5975 15.1018C29.2556 15.3767 32.2442 15.5902 33.69 15.1178C33.5891 15.2334 33.4572 15.3198 33.3251 15.3968C33.1906 15.4723 33.0502 15.5378 32.9083 15.5979C32.6217 15.7135 32.3269 15.8044 32.0268 15.8794C31.9823 15.8899 31.9373 15.8993 31.8928 15.9092C33.3369 16.1769 34.1772 16.3948 34.2662 16.4186L33.8818 17.8781C33.96 17.8443 34.0384 17.8105 34.1137 17.7749L34.3309 17.6716C34.3666 17.6545 34.4036 17.6355 34.4405 17.6176L34.4696 17.5583C34.4959 17.5082 34.5214 17.4557 34.5449 17.4027C34.5936 17.2969 34.64 17.1867 34.6823 17.0757C34.767 16.853 34.8412 16.6234 34.9059 16.3909C35.0376 15.9251 35.1263 15.4435 35.1924 14.9589C35.2551 14.4762 35.2884 13.9877 35.2838 13.4992C35.2818 13.2549 35.2733 13.0114 35.2513 12.7686Z" fill="#E0D896"/>
<path d="M25.3703 9.9342C25.3926 10.5861 25.3765 11.7691 25.0728 12.8758C25.0605 12.9181 25.062 12.9622 25.0728 13.0031C24.6861 12.9622 24.2991 12.9275 23.9124 12.896C24.3461 11.9863 24.4408 11.0177 24.462 10.6763C24.7955 10.4398 25.1269 10.1553 25.3703 9.9342Z" fill="#D7C184"/>
<path d="M14.3036 10.6764C14.3238 11.0177 14.4186 11.9841 14.8523 12.8938C14.4654 12.9244 14.0785 12.9599 13.6926 13.001C13.703 12.9618 13.7038 12.9184 13.6926 12.876C13.3895 11.7709 13.3733 10.588 13.3941 9.93445C13.6386 10.1554 13.9693 10.4399 14.3036 10.6764Z" fill="#D7C184"/>
<path d="M30.1205 13.9062C30.1188 13.9169 30.1158 13.9279 30.1125 13.9385C30.155 13.9508 30.1966 13.9633 30.2391 13.9771C30.5967 14.0943 30.9547 14.2168 31.2966 14.3747C30.7258 14.0039 30.3639 12.9339 30.162 12.116C30.2176 13.1866 30.1258 13.8657 30.1205 13.9062Z" fill="#D7C184"/>
<path d="M12.9175 9.72839L9.22493 10.7786C9.0038 12.215 9.07118 13.3119 9.10682 13.6925L9.12549 13.6813C9.12549 13.6813 9.24578 12.1166 9.49103 11.5163C9.61739 11.208 10.3903 11.0113 10.9796 10.8704C11.5702 10.7302 12.5118 10.449 12.6947 11.2782C12.8075 11.7904 12.9628 12.2165 13.1117 12.5307C12.8746 11.3916 12.8897 10.2779 12.9175 9.72839Z" fill="#D7C184"/>
<path d="M25.8458 9.72839C25.876 10.2993 25.89 11.4792 25.6223 12.6639C25.7901 12.3421 25.9765 11.8673 26.1063 11.2782C26.2888 10.449 27.2304 10.7302 27.8208 10.8704C28.4114 11.0114 29.1834 11.208 29.3098 11.5163C29.5178 12.0245 29.6355 13.2227 29.6666 13.5791C29.7016 13.1209 29.7405 12.0911 29.5393 10.7785L25.8458 9.72839Z" fill="#D7C184"/>
<path d="M14.2734 10.0483C14.4046 10.1532 14.5418 10.2556 14.6752 10.3458C14.7398 10.3907 14.7793 10.4637 14.7807 10.5424C14.7815 10.5547 14.8092 11.7713 15.347 12.8072C15.3548 12.8228 15.3602 12.8397 15.3655 12.8558C16.7027 12.7649 18.0438 12.728 19.3816 12.7272C20.7202 12.728 22.0605 12.7674 23.3971 12.8589C23.4024 12.8413 23.4074 12.8242 23.4169 12.8072C23.9539 11.7713 23.9827 10.5547 23.9827 10.5424C23.9841 10.4637 24.0244 10.3905 24.089 10.3458C24.218 10.2587 24.3482 10.1599 24.4757 10.0586L24.4925 10.0111C24.7721 7.28973 24.2594 4.782 23.9333 3.54284C23.9162 4.39016 23.7153 11.6499 21.9138 11.6499H19.6188H19.2367H16.9417C15.0288 11.6499 14.8749 3.46472 14.8749 3.46472L14.7764 3.75541C14.45 5.06055 14.0019 7.45951 14.2734 10.0483Z" fill="#D7C184"/>
<path d="M8.65134 13.9379C8.64963 13.9274 8.64667 13.9171 8.64418 13.9062C8.63827 13.8657 8.54614 13.1859 8.6017 12.1141C8.39971 12.9327 8.03666 14.0045 7.46509 14.3752C7.80697 14.2166 8.1666 14.0937 8.52482 13.9764C8.56653 13.9633 8.60948 13.9509 8.65134 13.9379Z" fill="#D7C184"/>
<path d="M31.6762 24.9202C31.6457 25.0771 31.6204 25.2031 31.5706 25.4006C31.9806 25.4962 32.651 25.5704 32.9716 25.5078C33.1088 25.3587 33.2861 24.8416 33.4451 24.2206C33.0618 24.5864 32.379 25.0933 31.6762 24.9202Z" fill="#9F8F78"/>
<path d="M16.9817 34.9577C17.9611 35.2259 18.9616 35.3423 19.9472 35.2769C20.936 35.2097 22.2198 34.9963 23.5826 34.4431C23.2766 34.4204 22.9813 34.358 22.7001 34.2579C21.6979 34.5634 19.7877 35.0192 18.0517 34.7214C17.5922 34.8726 17.2319 34.9196 17.1967 34.924C17.1242 34.9322 17.0643 34.9423 16.9817 34.9577Z" fill="#9F8F78"/>
<path d="M7.4816 25.8946C7.45904 25.8218 7.43834 25.7484 7.41687 25.6751C6.70057 25.8077 6.00747 25.4283 5.53735 25.0685C5.68954 25.5557 5.84314 25.9385 5.95814 26.0549C6.31278 26.1169 7.09739 26.0081 7.4816 25.8946Z" fill="#9F8F78"/>
<path d="M8.54046 27.1084C9.01353 27.3938 9.65311 27.7469 9.98954 27.7939C10.5653 27.8758 15.6147 26.3707 16.4124 26.1274C16.9066 25.9759 17.0602 25.6996 17.1053 25.5114L9.8207 27.1336C9.80218 27.1367 9.78367 27.1391 9.76608 27.1391H9.76562H9.7653C9.71504 27.1391 9.66478 27.1237 9.62183 27.0938L9.33814 26.8959L8.48724 26.2999V26.2986L8.1438 26.0588C8.14971 26.0783 8.15671 26.0976 8.16309 26.1168C8.18255 26.1733 8.20169 26.2306 8.22223 26.2862V26.2876C8.24635 26.3595 8.35108 26.6626 8.54046 27.1084Z" fill="#9F8F78"/>
<path d="M30.8871 25.7091C30.9338 25.5371 30.9794 25.363 31.021 25.1871L30.7681 25.3647L30.0874 25.8413L29.3511 26.3577C29.3133 26.3837 29.2694 26.3994 29.2242 26.4028C29.209 26.4037 29.1942 26.4034 29.1793 26.4017L21.8437 25.5678L21.8313 25.6821C21.941 25.8007 22.1144 25.9142 22.3895 25.9854C23.1954 26.1944 28.3067 27.479 28.8783 27.3718C29.3176 27.2904 30.2557 26.6586 30.6668 26.37C30.6702 26.36 30.6738 26.3504 30.6771 26.3404C30.709 26.2487 30.7404 26.1568 30.7715 26.064C30.8107 25.9468 30.849 25.8289 30.8871 25.7091Z" fill="#9F8F78"/>
<path d="M23.1255 15.8258C23.0677 15.9007 23.0044 15.9824 22.9365 16.0678C22.5881 16.508 22.1056 17.0696 21.534 17.6207C20.8681 17.5998 20.1845 17.5883 19.4808 17.5883C18.3177 17.5883 17.2026 17.619 16.1438 17.6698C17.6405 17.0496 19.4377 16.4431 21.3844 16.0793C21.9526 15.9715 22.5341 15.8853 23.1255 15.8258Z" fill="#6E6A67"/>
<path d="M14.3689 16.4957C13.834 16.8712 13.2315 17.3496 12.6465 17.9307C11.1492 18.081 9.84221 18.262 8.76489 18.4361C10.4216 17.675 12.3128 16.9735 14.3689 16.4957Z" fill="#6E6A67"/>
<path d="M32.668 19.5876L32.0581 23.849L29.1397 25.8939L21.5286 25.0284L20.3834 21.255C20.3562 21.1637 20.2787 21.0963 20.1839 21.0803C19.9021 21.0347 19.653 21.0124 19.4448 21.0124C19.2361 21.0124 18.9869 21.0347 18.7034 21.0803C18.6099 21.0965 18.5329 21.1637 18.5044 21.255L17.3872 24.9366L9.81906 26.6205L6.81974 24.5195L6.22778 19.737C6.35725 19.6648 6.48844 19.5921 6.61993 19.5196C6.80589 19.4796 7.01473 19.4373 7.24581 19.3934L7.80292 23.9064C7.81054 23.9764 7.85007 24.0388 7.90796 24.0793L9.97187 25.5253C10.0134 25.5539 10.0643 25.5701 10.1141 25.5701C10.1326 25.5701 10.1504 25.5676 10.1698 25.5639L16.3921 24.1795C16.4137 24.1742 16.4342 24.1666 16.4543 24.1568C16.5114 24.1258 16.5575 24.0732 16.5762 24.0079L17.6975 20.3187C17.998 20.2418 18.7682 20.0613 19.4446 20.0613C20.1198 20.0613 20.8898 20.2418 21.1911 20.3187L22.3117 24.0079C22.3403 24.1032 22.4242 24.1728 22.5227 24.1843L28.746 24.8913C28.8058 24.8983 28.8672 24.8818 28.9167 24.8471L30.9814 23.4038C31.037 23.3636 31.0753 23.3012 31.0847 23.2334L31.6359 19.3771C32.0497 19.4563 32.3956 19.529 32.668 19.5876Z" fill="#6E6A67"/>
<path d="M33.4372 16.9149L32.9014 18.9472C31.8058 18.7054 29.3996 18.2312 26.1243 17.9121C27.194 17.4558 28.2837 16.8842 29.2795 16.1681C31.2284 16.4434 32.6595 16.739 33.4372 16.9149Z" fill="#6E6A67"/>
<path d="M5.52563 16.9148L5.67456 17.4774C6.09145 17.1453 6.47302 16.8703 6.79498 16.6508C6.27025 16.7514 5.84231 16.8431 5.52563 16.9148Z" fill="#6E6A67"/>
<path d="M26.5403 15.7814C25.72 15.735 24.9002 15.6957 24.0795 15.6617C24.0324 15.7319 23.9354 15.8729 23.7968 16.0626C23.357 16.6575 22.4902 17.742 21.3792 18.6724C22.2151 18.4076 25.5314 17.2951 27.2113 15.8228C26.9875 15.8083 26.764 15.7943 26.5403 15.7814Z" fill="#93232C"/>
<path d="M20.5294 15.5647C20.5306 15.5644 20.532 15.5642 20.5328 15.5639C20.1169 15.5584 19.7004 15.5541 19.2851 15.5524H19.2843C18.6724 15.5541 18.062 15.5619 17.4501 15.5724L16.3219 16.1073C16.3202 16.1073 16.3133 16.1112 16.3052 16.1166C16.1355 16.1991 14.6545 16.9465 13.26 18.2798C13.382 18.2156 13.5113 18.149 13.6445 18.0814C14.4072 17.569 16.4412 16.3555 19.6041 15.5556C19.9125 15.5575 20.2211 15.5594 20.5294 15.5647Z" fill="#93232C"/>
<path d="M13.5969 15.701C13.0745 15.7252 12.5519 15.7519 12.03 15.7815C11.4248 15.8153 10.8215 15.856 10.2186 15.9015C9.91797 15.9247 9.61685 15.9503 9.3187 15.9816C9.23217 15.99 9.14752 15.9994 9.06271 16.0103C8.27499 16.4811 5.26011 18.3737 3.18872 20.8508C3.22436 20.8079 3.26124 20.7654 3.29781 20.7229C7.13262 17.4512 11.337 16.1777 13.5969 15.701Z" fill="#93232C"/>
<path d="M30.9465 29.1556C30.9236 29.1674 30.8991 29.1799 30.8774 29.1912C30.4927 29.3934 29.9888 29.4924 29.3376 29.4924C28.9499 29.4924 28.5698 29.4598 28.1483 29.4217C27.3069 29.3448 25.8826 29.1772 25.8681 29.1746L25.7592 29.1631L25.673 29.0937C25.6599 29.085 24.4128 28.0903 23.4044 27.2976C23.3633 27.2643 23.3263 27.2325 23.2925 27.2057C23.1861 27.1149 23.1861 27.1149 23.1228 27.1149C22.7991 27.1149 21.8589 27.4068 19.7998 28.0447L19.6734 28.0851L19.5483 28.0377C19.5343 28.0341 18.1834 27.5332 16.5642 27.5332C16.4315 27.5332 16.2994 27.5364 16.1707 27.5428C16.0087 27.5511 15.0986 27.9835 13.934 29.8244L13.8595 29.9433L13.7253 29.9861C13.7061 29.9925 11.7025 30.6389 9.57759 31.2466L9.4405 31.2855L9.30947 31.225C9.29562 31.2203 8.46588 30.8344 7.67505 30.4718C7.73325 30.4989 7.79192 30.5255 7.85027 30.5526C8.63099 31.2264 10.126 32.5223 10.292 32.7019C10.3151 32.7277 10.3471 32.7593 10.3852 32.7951C10.3466 32.7515 10.3093 32.7066 10.2726 32.6613C10.2721 32.661 10.2716 32.6604 10.2712 32.6599L10.2713 32.66L10.2712 32.6599C10.6157 32.9865 11.0001 33.2687 11.4201 33.4672C11.6297 33.5657 11.8494 33.642 12.0727 33.679C12.1854 33.6975 12.2948 33.7067 12.4088 33.7067C12.5243 33.7067 12.6424 33.7033 12.7602 33.6975C13.2274 33.6736 13.6987 33.6378 14.1692 33.5922C14.6387 33.5498 15.1088 33.5029 15.5779 33.4459C16.0467 33.3955 16.5152 33.3365 16.9797 33.2645C17.2125 33.2305 17.4438 33.1921 17.6697 33.142C17.7807 33.1158 17.8963 33.0869 17.9842 33.0474C18.0644 33.0091 18.1616 32.9319 18.247 32.8585C18.4218 32.708 18.5906 32.541 18.7578 32.3746C18.9252 32.2083 19.0885 32.0373 19.252 31.8636C19.5271 31.5756 19.7629 31.2695 20.0293 30.9729C20.0634 30.936 20.0982 30.8968 20.1336 30.8588C20.1336 30.8594 20.1336 30.8594 20.1342 30.8594L20.1373 30.8628C20.1929 30.9028 20.2483 30.9433 20.3026 30.9859C20.6231 31.225 20.9543 31.4836 21.2734 31.7071C21.685 31.9963 22.1018 32.2861 22.533 32.5273C22.6405 32.5872 22.7518 32.6432 22.8581 32.6784C22.8718 32.6834 22.8833 32.6859 22.894 32.6874C22.9018 32.6921 22.9303 32.6966 22.9335 32.6966C22.9544 32.6997 22.9826 32.7011 23.0096 32.703C23.0677 32.7038 23.1277 32.7011 23.188 32.6983C23.4312 32.6815 23.6778 32.646 23.9247 32.6074C24.4176 32.5306 24.9119 32.4419 25.4033 32.3434C25.8957 32.2492 26.3876 32.1482 26.8764 32.0395C27.3676 31.9355 27.8567 31.8207 28.3419 31.6985C28.5833 31.6335 28.8248 31.5735 29.0402 31.4702C29.2601 31.3678 29.4642 31.2273 29.6522 31.0662C30.0314 30.7432 30.3505 30.3426 30.6153 29.9064C30.615 29.9071 30.615 29.9074 30.6147 29.908C30.7773 29.6058 30.8839 29.336 30.9465 29.1556Z" fill="#93232C"/>
<path d="M21.7538 5.98198H22.6209V4.22058H16.2805V5.98198H17.1476V5.08736H18.9406V10.5275H18.2025V11.5371H20.6986V10.5275H19.9603V5.08736H21.7538V5.98198Z" fill="#93232C"/>
<path d="M28.314 15.9008C28.3126 15.9001 28.311 15.8993 28.3089 15.8993C27.9497 15.872 27.5907 15.8475 27.2314 15.8241C27.2247 15.8237 27.2177 15.8233 27.2108 15.8229C25.531 17.2951 22.2148 18.4076 21.3787 18.6725C21.3625 18.6863 21.3465 18.7002 21.3303 18.7137C22.4067 18.52 24.0144 18.1358 25.683 17.3969C26.5036 17.0337 27.3389 16.5851 28.1335 16.0303C28.1948 15.9878 28.2542 15.9433 28.314 15.9008Z" fill="#731B2A"/>
<path d="M19.6044 15.5557C16.4415 16.3554 14.4074 17.5689 13.6448 18.0813C14.2562 17.7701 14.9807 17.4268 15.7951 17.0858C15.7989 17.0843 15.8033 17.0824 15.8074 17.0807C15.8901 17.0463 15.9745 17.0114 16.0591 16.9769C16.0868 16.9655 16.1141 16.9542 16.1419 16.9431C16.2151 16.9134 16.2891 16.8843 16.3635 16.8546C16.4049 16.8386 16.4458 16.8222 16.4875 16.806C16.5545 16.7799 16.622 16.7537 16.69 16.7278C16.7409 16.7085 16.7918 16.689 16.8433 16.6699C16.9055 16.6461 16.9684 16.6226 17.0317 16.5994C17.0907 16.5776 17.1506 16.556 17.2101 16.5345C17.2687 16.5132 17.3269 16.4922 17.3861 16.4711C17.4533 16.4475 17.5211 16.424 17.5895 16.4002C17.6433 16.3817 17.6968 16.363 17.751 16.3445C17.8308 16.3176 17.9113 16.2909 17.992 16.2643C18.0365 16.2497 18.0804 16.2351 18.1251 16.2204C18.2514 16.1795 18.3792 16.1391 18.5077 16.0997C18.7883 16.0135 19.0751 15.9313 19.3666 15.8521C19.7466 15.7489 20.1339 15.652 20.5296 15.5647C20.2214 15.5596 19.9128 15.5577 19.6044 15.5557Z" fill="#731B2A"/>
<path d="M13.5969 15.7011C11.337 16.1778 7.13262 17.4513 3.29781 20.723C3.26124 20.7655 3.22436 20.8078 3.18872 20.8509C5.13811 19.4958 8.48896 17.4812 12.6314 16.2557C12.7649 16.2164 12.8997 16.1778 13.0349 16.1397C13.7223 15.9467 14.4314 15.7783 15.1571 15.6373C14.6373 15.6558 14.1171 15.6773 13.5969 15.7011Z" fill="#731B2A"/>
<path d="M31.6925 28.7946C31.6795 28.8005 31.6664 28.8066 31.6533 28.8126C31.6266 28.8251 31.5999 28.8375 31.5738 28.85C31.5523 28.8598 31.5315 28.8697 31.5098 28.8795C31.4929 28.8876 31.4759 28.8957 31.4585 28.904C31.4323 28.9164 31.406 28.9289 31.3801 28.9413C31.3693 28.9468 31.358 28.9519 31.3468 28.9577C31.317 28.9718 31.2876 28.9855 31.259 28.9997C31.2526 29.0029 31.2461 29.0061 31.2395 29.0093C31.2081 29.0247 31.1768 29.0398 31.1465 29.0549C31.1432 29.0566 31.1401 29.058 31.1368 29.0596C31.0695 29.0929 31.0057 29.1251 30.9461 29.1556C30.8835 29.3355 30.7766 29.6058 30.614 29.9074C30.6137 29.9077 30.6133 29.9083 30.6133 29.9086C30.614 29.9077 30.6146 29.9068 30.6146 29.9068C30.614 29.9077 30.6133 29.9083 30.6129 29.9094C30.3483 30.3437 30.0298 30.7432 29.6513 31.0658C29.4634 31.227 29.259 31.3674 29.0395 31.4698C28.8236 31.5731 28.5823 31.633 28.3411 31.698C27.8559 31.8202 27.3669 31.935 26.8755 32.039C26.3868 32.1478 25.895 32.2488 25.4026 32.3429C24.911 32.4417 24.4169 32.5303 23.9236 32.607C23.677 32.6456 23.4305 32.6811 23.1871 32.6979C23.1267 32.701 23.067 32.7032 23.0089 32.7025C22.9817 32.701 22.9535 32.6993 22.9325 32.6962C22.9294 32.6962 22.9009 32.6918 22.8933 32.687C22.8824 32.6856 22.8707 32.6831 22.8572 32.6778C22.7508 32.6431 22.6398 32.5866 22.5321 32.5268C22.1011 32.2855 21.6842 31.9959 21.2724 31.7068C20.9537 31.4831 20.6221 31.2245 20.3017 30.9853L20.2737 31.025L20.2757 31.027C20.2956 31.0451 20.3157 31.0617 20.3356 31.0793C20.3351 31.079 20.3348 31.0787 20.3342 31.0784C20.3196 31.0675 20.3056 31.0568 20.292 31.0468L20.5606 31.3672C20.5614 31.3683 20.5715 31.3806 20.5913 31.4036C20.7284 31.5647 21.302 32.2302 21.9833 32.9059C22.5018 33.4201 23.1273 33.6796 23.845 33.6796C24.09 33.6796 24.3475 33.6474 24.6077 33.5856C24.8483 33.5265 25.1102 33.4641 25.3785 33.3992C26.174 33.21 27.0552 32.999 27.6402 32.8471C27.6791 32.8367 27.717 32.827 27.7535 32.8172C27.8362 32.7954 27.9113 32.7754 27.9783 32.7568C28.0838 32.7267 28.2002 32.6993 28.3239 32.6714C29.0334 32.5069 30.0035 32.2817 30.5173 31.2519C30.6596 30.9679 30.8195 30.6536 30.9842 30.333C31.2132 29.8875 31.4513 29.4296 31.663 29.0254C31.6966 28.9612 31.73 28.8974 31.7623 28.8363C31.7623 28.836 31.7626 28.836 31.7626 28.836C31.7797 28.8031 31.7971 28.77 31.8136 28.7384C31.7738 28.7568 31.733 28.7757 31.6925 28.7946Z" fill="#731B2A"/>
<path d="M20.0755 31.0164L20.0295 30.9726C19.763 31.2692 19.527 31.5753 19.2522 31.8635C19.0886 32.0372 18.9254 32.2082 18.7579 32.3746C18.5908 32.5409 18.422 32.7084 18.2472 32.8584C18.1616 32.9318 18.0644 33.009 17.9844 33.0471C17.8966 33.0868 17.7808 33.1158 17.6699 33.1419C17.4441 33.192 17.2127 33.2305 16.9799 33.2644C16.5155 33.3364 16.0468 33.3957 15.5781 33.4458C15.1089 33.5028 14.6388 33.5498 14.1693 33.5919C13.6991 33.6375 13.2275 33.6733 12.7604 33.6976C12.6426 33.7031 12.5245 33.7066 12.409 33.7066C12.2949 33.7066 12.1854 33.6976 12.0729 33.6789C11.8494 33.6419 11.6297 33.5655 11.4202 33.4671C11.0004 33.2686 10.616 32.9863 10.2715 32.66C10.2718 32.6601 10.2723 32.6607 10.2727 32.6611C10.3193 32.7183 10.3705 32.772 10.4193 32.8266C10.4075 32.8157 10.3963 32.805 10.3852 32.7947C10.3473 32.7591 10.3152 32.7275 10.292 32.7017C10.126 32.5219 8.63083 31.2261 7.85027 30.5523C7.79192 30.5251 7.73325 30.4986 7.67505 30.4716C7.81339 30.6763 7.9648 30.8983 8.12213 31.1247C8.35073 31.454 8.59146 31.7924 8.82707 32.1106C8.93366 32.2544 9.03948 32.3945 9.14187 32.5261C9.99044 33.6181 11.0586 34.6271 13.1083 34.6271C13.3649 34.6271 13.6382 34.6114 13.9185 34.5796C13.9838 34.5725 14.0473 34.5652 14.1097 34.5577C14.1698 34.551 14.2289 34.5443 14.2862 34.5376C16.0686 34.3327 16.5575 34.2452 16.8289 34.1984C16.8991 34.1862 16.959 34.1757 17.0239 34.1662C17.0491 34.1626 17.075 34.1585 17.1023 34.155C17.1123 34.154 17.715 34.0765 18.3042 33.7899C18.7103 33.5927 19.1096 33.2963 19.3051 32.8581C19.7984 31.7546 19.8986 31.4908 19.9025 31.481L20.0755 31.0164Z" fill="#731B2A"/>
<path d="M24.9038 20.9963C25.1218 20.9917 25.2951 20.8122 25.2914 20.5942C25.2881 20.376 25.1079 20.2018 24.889 20.2066C24.6711 20.2105 24.4975 20.3907 24.502 20.6087C24.5052 20.8261 24.6858 21.0002 24.9038 20.9963ZM27.3324 22.775C26.811 22.5231 26.241 22.8421 25.2027 22.8615C24.4296 22.8891 23.7816 22.8975 23.7391 21.6848C23.6964 20.4694 24.1907 19.4651 24.9638 19.4383C25.7362 19.4111 26.4414 20.3739 26.5363 21.5853C26.5625 21.9196 26.5254 22.1631 26.4428 22.3436C27.161 22.2579 27.3247 22.7456 27.3324 22.775Z" fill="#0E0F0D"/>
<path d="M13.8346 21.2892C14.0518 21.2838 14.2239 21.1019 14.2185 20.8846C14.2124 20.6657 14.0302 20.4939 13.8131 20.5C13.5942 20.5046 13.4224 20.6873 13.4278 20.9047C13.4337 21.1235 13.6155 21.2955 13.8346 21.2892ZM15.0282 21.9249C15.0397 23.1386 14.397 23.0656 13.6234 23.0732C13.5448 23.0757 13.4709 23.0768 13.3967 23.0768C13.3105 23.0791 13.2272 23.0801 13.1472 23.0785C12.3964 23.0768 11.9171 23.0432 11.4924 23.2725C11.5024 23.2464 11.689 22.8297 12.3626 22.6599C12.2882 22.4959 12.2416 22.2676 12.2293 21.9518C12.1829 20.7388 12.9312 19.744 13.7042 19.737C14.4771 19.7294 15.0166 20.7111 15.0282 21.9249Z" fill="#0E0F0D"/>
<path d="M29.6664 13.5793C29.6582 13.686 29.6502 13.762 29.6454 13.803C29.3404 13.7201 29.0324 13.6443 28.7223 13.5718C27.7012 13.3476 26.6677 13.1812 25.629 13.0625C25.5932 13.058 25.5566 13.0555 25.5201 13.051C25.5271 13.0356 25.5335 13.0201 25.5381 13.0047C25.5691 12.8915 25.5962 12.7779 25.622 12.6643C25.8897 11.4796 25.8757 10.2997 25.8455 9.72874L29.539 10.779C29.7402 12.0914 29.7013 13.1211 29.6664 13.5793ZM25.0724 12.8759C25.0601 12.9182 25.0616 12.9623 25.0724 13.0032C24.6857 12.9623 24.2987 12.9276 23.9119 12.8961C24.3456 11.9864 24.4404 11.0179 24.4616 10.6764C24.7951 10.4399 25.1264 10.1554 25.3699 9.93431C25.3922 10.5862 25.3761 11.7692 25.0724 12.8759ZM13.6921 13.0008C13.7025 12.9616 13.7033 12.9182 13.6921 12.8759C13.389 11.7707 13.3728 10.5879 13.3936 9.93431C13.638 10.1554 13.9686 10.4399 14.3031 10.6764C14.3233 11.0177 14.4181 11.9841 14.8517 12.8938C14.4649 12.9243 14.0782 12.9599 13.6921 13.0008ZM13.1342 13.0617C12.6162 13.1249 12.0975 13.1902 11.5813 13.2758C11.0666 13.3639 10.5516 13.4576 10.0414 13.571C9.73171 13.6429 9.425 13.7192 9.11797 13.8021C9.11517 13.7778 9.11143 13.7405 9.10708 13.6924C9.07144 13.3118 9.00406 12.215 9.22519 10.7785L12.9178 9.72827C12.8899 10.2779 12.8748 11.3916 13.1121 12.5306C13.1451 12.6887 13.1826 12.8469 13.2259 13.0044C13.2306 13.0198 13.2368 13.0352 13.2436 13.0492C13.2064 13.0539 13.171 13.057 13.1342 13.0617ZM31.646 14.553C31.6146 14.5379 31.5836 14.5225 31.5539 14.5078C31.5081 14.4859 31.4576 14.4607 31.3995 14.4325C31.3959 14.4308 31.3936 14.4295 31.3936 14.4295C31.3608 14.4135 31.3284 14.395 31.2966 14.3746C30.9549 14.2167 30.5967 14.0944 30.2391 13.977C30.1968 13.9632 30.1551 13.9507 30.1127 13.9384C30.1158 13.9278 30.119 13.9168 30.1207 13.9061C30.126 13.8656 30.2178 13.1863 30.1624 12.1159C30.1389 11.6587 30.0883 11.1302 29.9926 10.5493C29.9772 10.4565 29.9095 10.3814 29.8202 10.3557L29.2937 10.2068C29.1804 6.13311 27.5032 4.21873 27.4508 4.15944C28.949 6.571 28.936 9.43089 28.9098 10.0974L25.646 9.16961C25.6436 9.16961 25.6414 9.16961 25.6383 9.16821C25.6251 9.16495 25.6103 9.16339 25.5965 9.16199C25.5934 9.16199 25.5898 9.16137 25.5845 9.16137C25.5675 9.16043 25.5489 9.16199 25.5311 9.16588C25.5286 9.16588 25.5258 9.16837 25.5224 9.16837C25.5079 9.17133 25.4947 9.17599 25.4802 9.18284C25.4751 9.18518 25.4704 9.18844 25.4658 9.18984C25.4547 9.19731 25.444 9.20354 25.4332 9.21132C25.4309 9.21303 25.4278 9.21443 25.4255 9.21661C25.4222 9.21894 25.4211 9.22128 25.4192 9.22284C25.4161 9.2261 25.4124 9.22828 25.4099 9.23062C25.4068 9.23388 25.3189 9.31994 25.1824 9.44879C25.192 9.14347 25.1944 8.67632 25.1597 8.10583C25.1562 8.05168 25.1528 7.99675 25.1491 7.94119C25.0465 6.50798 24.7078 4.49479 23.6953 2.73246C23.704 2.75782 23.8041 3.05022 23.9336 3.54274C24.2594 4.7819 24.7725 7.28963 24.4929 10.011C24.4915 10.0235 24.4905 10.0358 24.4893 10.0484C24.4851 10.0518 24.4804 10.0551 24.4761 10.0585C24.3484 10.1598 24.2182 10.2586 24.0892 10.3458C24.0246 10.3906 23.9843 10.4636 23.9828 10.5423C23.9828 10.5546 23.9541 11.7712 23.4172 12.8071C23.4076 12.8241 23.4026 12.8412 23.3972 12.8588C22.0608 12.7673 20.7206 12.7281 19.3818 12.7271C18.044 12.7279 16.7029 12.7648 15.3657 12.8557C15.3605 12.8395 15.355 12.8225 15.3472 12.8071C14.8094 11.7712 14.7817 10.5546 14.7809 10.5423C14.7795 10.4636 14.74 10.3904 14.6754 10.3458C14.5421 10.2555 14.4048 10.1533 14.2736 10.0482C14.0021 7.45941 14.4503 5.06045 14.7764 3.75516C14.9313 3.1355 15.059 2.76093 15.0691 2.7323C13.6001 5.28858 13.5493 8.37287 13.5818 9.44863C13.4428 9.31978 13.3568 9.23388 13.3544 9.23046C13.3519 9.22813 13.3474 9.22595 13.3443 9.22268C13.3428 9.22112 13.3412 9.21879 13.339 9.21645C13.3365 9.21428 13.3336 9.21288 13.3305 9.21116C13.3197 9.20338 13.3087 9.19716 13.2979 9.19125C13.2926 9.18829 13.2888 9.18502 13.2825 9.18269C13.2685 9.17584 13.2565 9.17117 13.2425 9.16961C13.2386 9.16821 13.2357 9.16572 13.2332 9.16572C13.2147 9.16199 13.1962 9.16028 13.179 9.16121C13.1745 9.16121 13.1697 9.16183 13.1652 9.16183C13.152 9.16323 13.1391 9.16479 13.1252 9.16806C13.1221 9.16946 13.1205 9.16946 13.1174 9.16946L9.85449 10.0972C9.82819 9.43058 9.81419 6.57069 11.3124 4.15929C11.2605 4.21904 9.58357 6.13342 9.4695 10.2071L8.94555 10.3559C8.85389 10.3815 8.78666 10.4567 8.77157 10.5496C8.67587 11.1297 8.6256 11.6576 8.60164 12.1143C8.54624 13.186 8.63821 13.8659 8.64412 13.9064C8.64661 13.9171 8.64957 13.9274 8.65128 13.9381C8.60942 13.951 8.56647 13.9635 8.52477 13.9766C8.16654 14.0939 7.80707 14.2168 7.46503 14.3754C7.43359 14.3955 7.40138 14.414 7.36855 14.4299C7.36855 14.4299 7.36637 14.4309 7.36326 14.4328C7.30506 14.461 7.25433 14.486 7.20873 14.5081C7.18274 14.5209 7.15536 14.5341 7.12843 14.5473C7.11147 14.5572 7.09404 14.5657 7.07739 14.5757C7.31953 14.4806 7.56991 14.4112 7.82014 14.3497C8.07146 14.2872 8.32433 14.2318 8.5769 14.1838C9.08498 14.0894 9.59431 14.0074 10.1067 13.945C10.6178 13.8779 11.131 13.8225 11.645 13.7794C12.1593 13.7355 12.6725 13.6922 13.1879 13.6625C15.2487 13.5405 17.3148 13.5021 19.3818 13.5013C21.4493 13.5029 23.5153 13.5351 25.5758 13.6617C26.0913 13.6916 26.6045 13.7346 27.1195 13.7781C27.6344 13.8219 28.1458 13.878 28.6568 13.9451C29.1694 14.0067 29.6797 14.0884 30.1868 14.1834C30.4401 14.2321 30.6925 14.2858 30.9426 14.3497C31.1947 14.4113 31.4439 14.4807 31.6865 14.5758C31.6729 14.5676 31.6592 14.5606 31.646 14.553Z" fill="#0E0F0D"/>
<path d="M19.9601 5.08744V10.5276H20.6983V11.5372H18.2022V10.5276H18.9403V5.08744H17.1473V5.98222H16.2804V4.22066H22.6206V5.98207H21.7537V5.08728H19.9601V5.08744ZM23.2734 6.63347V3.56848H15.6292V6.63347H17.8V5.73868H18.2877V9.87492H17.5511V12.1877H21.3503V9.87492H20.6115V5.73868H21.101V6.63347H23.2734Z" fill="#0E0F0D"/>
</g>
<defs>
<clipPath id="clip0_202_10418">
<rect width="37" height="36" fill="white"/>
</clipPath>
</defs>
</svg>
