<svg width="41" height="28" viewBox="0 0 41 28" fill="none" xmlns="http://www.w3.org/2000/svg">
<g clip-path="url(#clip0_202_14254)">
<path d="M21.3755 26.9433L39.4344 8.88169C39.7985 8.5187 40.0032 8.02568 40.0032 7.51152C40.0032 6.99736 39.7985 6.50435 39.4344 6.14135L34.6908 1.39507C34.1064 0.808826 33.3126 0.479466 32.4849 0.479798H7.54771C6.71924 0.479798 5.92475 0.809177 5.339 1.39507L0.579018 6.14957C0.215577 6.50567 0.00850544 6.99157 0.00326816 7.50037C-0.00177317 8.00916 0.195441 8.49915 0.551614 8.86251L0.579018 8.88992L18.6379 26.9515C19.0009 27.3157 19.4939 27.5203 20.0081 27.5203C20.5222 27.5203 21.0152 27.3157 21.3782 26.9515L21.3755 26.9433Z" fill="url(#paint0_linear_202_14254)"/>
<path opacity="0.4" d="M5.1936 1.54027C5.84579 0.884843 6.78452 0.602502 7.69006 0.789411L39.0506 7.14975C39.5688 7.25695 39.9031 7.76269 39.7987 8.28151C39.7857 8.34659 39.7654 8.41 39.7384 8.4706C40.1798 7.71561 40.0547 6.75761 39.4342 6.1413L34.6907 1.39503C34.1063 0.80878 33.3125 0.47942 32.4847 0.479752H7.54756C6.71908 0.4799 5.92459 0.809131 5.33884 1.39503L5.1936 1.54027Z" fill="url(#paint1_linear_202_14254)"/>
<path opacity="0.4" d="M33.0958 1.86911L31.2708 5.5768L39.0506 7.14976C39.5689 7.25696 39.9032 7.7627 39.7987 8.28152C39.7857 8.34659 39.7655 8.41001 39.7384 8.4706C40.1799 7.71562 40.0548 6.75761 39.4342 6.14131L34.6907 1.39503C34.1063 0.808786 33.3125 0.479427 32.4847 0.479755H32.2436C32.5758 0.478865 32.8846 0.650973 33.0586 0.934043C33.2326 1.21711 33.2467 1.57033 33.0958 1.86637V1.86911Z" fill="url(#paint2_linear_202_14254)"/>
<path d="M39.7384 8.48168C39.9484 7.99586 39.7252 7.43172 39.2396 7.22113C39.1791 7.19407 39.1156 7.17385 39.0506 7.16084L31.2707 5.57692L20.8026 26.7022C20.5227 27.2678 19.8736 27.5465 19.2708 27.3599C19.9921 27.6584 20.8221 27.4941 21.3753 26.9434L39.4342 8.88178C39.5545 8.76389 39.657 8.62911 39.7384 8.48168Z" fill="url(#paint3_linear_202_14254)"/>
</g>
<defs>
<linearGradient id="paint0_linear_202_14254" x1="11.2142" y1="17.9953" x2="20.2011" y2="2.42689" gradientUnits="userSpaceOnUse">
<stop stop-color="#8855FF"/>
<stop offset="1" stop-color="#00B6FF"/>
</linearGradient>
<linearGradient id="paint1_linear_202_14254" x1="22.318" y1="4.54421" x2="22.6082" y2="3.34565" gradientUnits="userSpaceOnUse">
<stop offset="0.07" stop-color="white"/>
<stop offset="0.89" stop-color="#009FFF"/>
</linearGradient>
<linearGradient id="paint2_linear_202_14254" x1="32.9615" y1="18.2646" x2="41.9265" y2="25.9302" gradientUnits="userSpaceOnUse">
<stop offset="0.07" stop-color="white"/>
<stop offset="0.89" stop-color="#009FFF"/>
</linearGradient>
<linearGradient id="paint3_linear_202_14254" x1="21.5339" y1="14.2309" x2="34.9663" y2="18.8817" gradientUnits="userSpaceOnUse">
<stop stop-color="#4036C1"/>
<stop offset="0.98" stop-color="#539EFF"/>
</linearGradient>
<clipPath id="clip0_202_14254">
<rect width="41" height="28" fill="white"/>
</clipPath>
</defs>
</svg>
