<svg width="34" height="37" viewBox="0 0 34 37" fill="none" xmlns="http://www.w3.org/2000/svg">
<g clip-path="url(#clip0_202_13287)">
<path d="M32.0564 7.95135C31.6071 7.7267 30.5962 7.27741 29.4729 6.60346C28.2374 5.92951 26.3279 7.05276 25.0923 8.96227L22.9581 12.5567C22.1719 14.1292 22.2842 15.8141 23.2951 17.2743L23.4074 17.3866C24.4183 18.8468 25.7662 20.0824 26.1032 20.5317C26.3279 20.7563 26.5525 21.2056 26.6648 21.5426C27.0018 22.8905 26.3279 24.1261 24.98 24.4631C23.7444 24.8 22.3965 24.0138 21.9472 22.7782C21.8349 22.4412 21.8349 22.1042 21.8349 21.7673C21.9472 21.2056 21.7226 20.307 20.9363 19.6331C20.15 18.7345 18.5775 20.4194 18.1282 21.9919V22.1042C17.6789 23.7891 17.3419 25.137 17.4542 25.2493C17.4542 25.3616 17.5665 25.474 17.5665 25.474C18.2405 26.8219 17.7912 28.3944 16.4433 29.0684C15.0954 29.7423 13.4105 29.293 12.7366 27.9451C12.0626 26.5972 12.5119 25.0247 13.8598 24.3507C13.9722 24.3507 13.9722 24.2384 14.0845 24.2384C14.1968 24.2384 14.4215 23.4521 14.7584 22.6659C14.9831 21.8796 15.2077 21.2056 15.2077 21.2056C15.2077 21.0933 15.2077 20.981 15.3201 20.981L16.6679 16.2634L15.3201 19.0715C15.0954 18.5099 14.8708 18.5099 14.1968 18.9592C13.8598 19.1838 13.1859 19.7454 12.9612 19.9701C12.3996 20.4194 11.9503 21.2056 11.7257 21.6549C11.6133 21.9919 11.3887 22.2166 11.164 22.4412C10.1531 23.3398 8.58059 23.1152 7.79432 22.1042C7.00804 21.0933 7.23269 19.7454 8.24361 18.9592C8.58059 18.7345 8.91756 18.5099 9.25453 18.5099C9.81616 18.3975 11.9503 17.0496 13.1859 16.2634C13.4105 16.151 13.6352 15.9264 13.7475 15.8141L17.0049 13.4553L14.0845 15.0278H13.4105C12.5119 15.1401 11.3887 15.2524 11.164 15.5894C11.0517 15.7017 10.9394 15.9264 10.7148 16.0387C9.81616 16.488 8.46826 16.2634 7.68199 15.3648C7.00804 14.3538 7.23269 13.1183 8.13129 12.4443C8.69291 12.1074 9.14221 11.995 9.59151 11.995C10.3778 11.995 12.3996 12.4443 14.0845 12.1074L14.5338 11.995C16.2187 11.6581 18.2405 10.3102 19.0268 8.73762C19.0268 8.73762 19.813 7.27741 20.824 5.70486C21.8349 4.01999 21.7226 2.2228 20.7116 1.54886L18.8021 0.425611C17.7912 -0.136011 16.2187 -0.136011 15.2077 0.425611L1.95344 7.7267C0.942521 8.28833 0.15625 9.74854 0.15625 10.8718V25.2493C0.15625 26.3726 0.942521 27.6081 1.95344 28.1698L15.3201 35.5832C16.331 36.1448 17.9035 36.1448 18.9144 35.5832L32.0564 28.0574C33.0673 27.4958 33.8536 26.2602 33.8536 25.137V10.8718C33.8536 9.74854 33.0673 8.51297 32.0564 7.95135Z" fill="#5FCF80"/>
</g>
<defs>
<clipPath id="clip0_202_13287">
<rect width="34" height="37" fill="white"/>
</clipPath>
</defs>
</svg>
