<svg width="37" height="37" viewBox="0 0 37 37" fill="none" xmlns="http://www.w3.org/2000/svg">
<g clip-path="url(#clip0_202_9304)">
<path d="M32.4856 0.00317383H3.51685C1.57522 0.00317383 0.0012207 1.57717 0.0012207 3.5188V32.4875C0.0012207 34.4292 1.57522 36.0032 3.51685 36.0032H32.4856C34.4272 36.0032 36.0012 34.4292 36.0012 32.4875V3.5188C36.0012 1.57717 34.4272 0.00317383 32.4856 0.00317383Z" fill="url(#paint0_linear_202_9304)"/>
<path d="M29.6338 4.68323H22.0288C21.0968 4.68323 20.3413 5.43875 20.3413 6.37073V18.7457C20.3413 19.6777 21.0968 20.4332 22.0288 20.4332H29.6338C30.5658 20.4332 31.3213 19.6777 31.3213 18.7457V6.37073C31.3213 5.43875 30.5658 4.68323 29.6338 4.68323Z" fill="white"/>
<path d="M13.9737 4.68323H6.36865C5.43667 4.68323 4.68115 5.43875 4.68115 6.37073V27.7457C4.68115 28.6777 5.43667 29.4332 6.36865 29.4332H13.9737C14.9056 29.4332 15.6612 28.6777 15.6612 27.7457V6.37073C15.6612 5.43875 14.9056 4.68323 13.9737 4.68323Z" fill="white"/>
</g>
<defs>
<linearGradient id="paint0_linear_202_9304" x1="18.0012" y1="0.00317383" x2="18.0012" y2="36.0032" gradientUnits="userSpaceOnUse">
<stop stop-color="#0091E6"/>
<stop offset="1" stop-color="#0079BF"/>
</linearGradient>
<clipPath id="clip0_202_9304">
<rect width="37" height="37" fill="white"/>
</clipPath>
</defs>
</svg>
