<svg width="41" height="28" viewBox="0 0 41 28" fill="none" xmlns="http://www.w3.org/2000/svg">
<g clip-path="url(#clip0_202_11153)">
<path fill-rule="evenodd" clip-rule="evenodd" d="M8.00501 9.29489C8.00408 13.2174 8.00501 17.1403 8.0047 21.0631C8.00767 21.377 8.01814 21.6938 8.08893 22.001C8.12815 22.1601 8.18347 22.3221 8.29286 22.4479C8.39725 22.5675 8.54867 22.6334 8.69994 22.6712C8.92356 22.7269 9.15499 22.7364 9.38455 22.7391C9.82647 22.7349 10.2707 22.7203 10.707 22.6439C10.4712 21.4996 10.5181 20.3268 10.5158 19.166C12.0824 19.1657 13.6489 19.1657 15.2155 19.166C15.2194 19.6006 15.2141 20.0356 15.2182 20.4704C15.2313 21.0872 15.2827 21.7208 15.5299 22.2939C15.6907 22.6728 15.9762 23.0025 16.3467 23.1887C16.8482 23.4451 17.4245 23.4959 17.9794 23.4949C18.6164 23.4843 19.2813 23.3921 19.8293 23.0447C20.2455 22.7881 20.5347 22.3584 20.6599 21.8901C20.7979 21.3702 20.8101 20.8159 20.699 20.2896C20.5827 19.7394 20.2525 19.2413 19.7924 18.9183C19.3224 18.5709 18.7484 18.4266 18.2087 18.2273C17.5378 17.9912 16.8671 17.7551 16.1959 17.5189C15.5073 17.272 14.8048 17.0564 14.1459 16.7339C13.2228 16.2933 12.3604 15.6725 11.7748 14.8222C11.1369 13.9153 10.856 12.8067 10.776 11.7134C10.7177 10.9066 10.7305 10.088 10.9021 9.29458C9.93648 9.29458 8.97059 9.29427 8.00501 9.29489ZM16.2602 9.10315C15.8561 9.46819 15.6979 10.0273 15.6815 10.5561C15.6699 11.0212 15.6999 11.5187 15.9581 11.9216C16.1558 12.2271 16.4624 12.4399 16.7748 12.6151C17.232 12.8655 17.721 13.0502 18.2107 13.225C18.8706 13.454 19.5305 13.6827 20.1906 13.9117C20.8101 14.1297 21.4387 14.3266 22.0354 14.6036C22.9801 15.0323 23.8704 15.6297 24.5119 16.456C24.5113 15.0545 24.5116 13.6527 24.5119 12.2512C23.1119 12.2469 21.7123 12.2588 20.3127 12.2535C20.3025 11.6653 20.3427 11.0742 20.2673 10.4889C20.1951 9.9459 20.0161 9.3785 19.5959 9.00314C19.1663 8.62341 18.5667 8.52527 18.0115 8.53981C17.3942 8.55465 16.7333 8.67779 16.2602 9.10315ZM2.84224 0.646256C4.5629 0.645006 6.28372 0.645631 8.00439 0.645943C8.00501 2.16471 8.00439 3.68363 8.0047 5.2024C9.12967 5.20302 10.255 5.20208 11.3799 5.20271C11.3806 6.11062 11.3793 7.01901 11.3806 7.92724C11.8419 7.01495 12.5876 6.25924 13.4741 5.75496C14.6987 5.05035 16.1198 4.77141 17.5172 4.69593C18.8911 4.62749 20.2995 4.7164 21.602 5.18958C22.5979 5.54915 23.513 6.17298 24.1378 7.03573C24.2761 7.22309 24.4003 7.42046 24.5122 7.62455C24.5109 6.81742 24.5119 6.00999 24.5119 5.20271C26.2319 5.20208 27.952 5.20302 29.672 5.2024C29.677 10.3131 29.6723 15.4242 29.6743 20.5349C29.6833 21.0639 29.7283 21.6099 29.9566 22.0949C30.0955 22.3962 30.336 22.6508 30.6366 22.7941C31.0104 22.9752 31.4316 23.0222 31.8419 23.0338C32.4992 23.0519 33.1772 22.8955 33.717 22.5083C34.2597 22.1265 34.6129 21.5133 34.7316 20.8662C34.8229 20.4216 34.8002 19.9663 34.8029 19.5154C34.8032 14.7444 34.8021 9.97356 34.8035 5.20271C36.5239 5.2024 38.2445 5.2024 39.9649 5.20271C39.9652 12.412 39.9652 19.6211 39.9649 26.8302C38.3197 26.8316 36.6744 26.8306 35.0295 26.8306C35.0284 26.3332 35.0307 25.8357 35.0284 25.3384C34.3105 26.1093 33.3907 26.6856 32.3906 27.013C31.6427 27.2604 30.8526 27.3716 30.066 27.3579C28.9122 27.3535 27.7093 27.1325 26.7562 26.4465C25.8724 25.8229 25.2979 24.8484 24.9844 23.8289C24.5188 24.7463 23.7916 25.5228 22.9239 26.0721C21.8556 26.7555 20.6097 27.1158 19.3586 27.2685C18.5314 27.3696 17.6945 27.3793 16.863 27.3324C15.8237 27.2679 14.7775 27.0933 13.8161 26.6794C13.0301 26.3429 12.3138 25.8268 11.7906 25.1464C11.6384 24.9515 11.5028 24.7446 11.3799 24.5305C11.3806 25.2201 11.3799 25.9101 11.3802 26.6C10.4528 26.8705 9.49018 26.9975 8.52664 27.04C7.925 27.0647 7.32166 27.0766 6.72034 27.0361C6.12089 26.9916 5.51661 26.8872 4.9667 26.6356C4.47899 26.4123 4.04753 26.0626 3.73937 25.6219C3.40637 25.1529 3.20353 24.6048 3.07445 24.0475C2.90475 23.3074 2.85287 22.5458 2.84224 21.7883C2.84193 17.6238 2.84287 13.4594 2.84193 9.29489C1.89682 9.29395 0.951558 9.29489 0.00645113 9.29458C0.00582606 7.93052 0.00551352 6.56646 0.00645113 5.20271C0.951558 5.20208 1.89682 5.20302 2.84193 5.2024C2.84255 3.68363 2.84224 2.16471 2.84224 0.646256ZM24.5124 0.645508H40.0059C40.0059 1.76952 40.0055 2.89322 40.0059 4.01691C34.8414 4.01754 29.6769 4.01723 24.5121 4.01723C24.5128 2.89322 24.5121 1.76952 24.5124 0.645508Z" fill="#5CD39B"/>
</g>
<defs>
<clipPath id="clip0_202_11153">
<rect width="41" height="28" fill="white"/>
</clipPath>
</defs>
</svg>
