<svg width="40" height="32" viewBox="0 0 40 32" fill="none" xmlns="http://www.w3.org/2000/svg">
<g clip-path="url(#clip0_202_13907)">
<path d="M35.2163 5.99043C35.1525 5.92664 35.0887 5.92664 35.0249 5.99043L18.5656 22.2584C18.5018 22.3222 18.5018 22.386 18.5656 22.4498L21.7554 26.4689L21.1812 30.9346C21.1812 30.9984 21.1812 31.0622 21.245 31.0622H21.3088C21.3726 31.0622 21.3726 31.0622 21.4364 30.9984L35.2801 6.11803C35.3439 6.11803 35.2801 5.99043 35.2163 5.99043ZM40.001 11.7321L36.7474 5.99043C36.7474 5.92664 36.6836 5.92664 36.6198 5.92664C36.556 5.92664 36.556 5.92664 36.4922 5.99043L34.3231 9.94578V10.0734C34.3231 10.1372 34.3869 10.1372 34.3869 10.1372L39.8096 11.8597H39.8734C39.9372 11.8597 39.9372 11.8597 40.001 11.7959V11.7321ZM20.607 26.7241V26.5965L0.192364 0.950562C0.192364 0.950562 0.000976562 1.01436 0.000976562 1.07815L2.10624 22.5136L0.575139 31.0622H19.9691C20.0329 31.126 20.607 26.7241 20.607 26.7241Z" fill="#33DD99"/>
</g>
<defs>
<clipPath id="clip0_202_13907">
<rect width="40.001" height="32" fill="white"/>
</clipPath>
</defs>
</svg>
