<svg width="37" height="37" viewBox="0 0 37 37" fill="none" xmlns="http://www.w3.org/2000/svg">
<g clip-path="url(#clip0_202_8692)">
<path d="M22.4862 9.77666C20.4191 9.77666 18.7434 11.4524 18.7434 13.5193C18.7434 15.5865 20.4191 17.262 22.4862 17.262C24.5533 17.262 26.2288 15.5865 26.2288 13.5193C26.2288 11.4524 24.5533 9.77666 22.4862 9.77666Z" fill="#F22F46"/>
<path d="M22.4862 18.7422C20.4191 18.7422 18.7434 20.418 18.7434 22.485C18.7434 24.552 20.4191 26.2277 22.4862 26.2277C24.5533 26.2277 26.2288 24.552 26.2288 22.485C26.2288 20.418 24.5533 18.7422 22.4862 18.7422Z" fill="#F22F46"/>
<path d="M13.5206 18.7422C11.4537 18.7422 9.77788 20.418 9.77788 22.485C9.77788 24.552 11.4537 26.2277 13.5206 26.2277C15.5877 26.2277 17.2634 24.552 17.2634 22.485C17.2634 20.418 15.5877 18.7422 13.5206 18.7422Z" fill="#F22F46"/>
<path d="M13.5206 9.7768C11.4537 9.7768 9.77788 11.4524 9.77788 13.5194C9.77788 15.5866 11.4537 17.2622 13.5206 17.2622C15.5877 17.2622 17.2634 15.5866 17.2634 13.5194C17.2634 11.4524 15.5877 9.7768 13.5206 9.7768Z" fill="#F22F46"/>
<path fill-rule="evenodd" clip-rule="evenodd" d="M0.00341797 18.0023C0.00341797 8.06129 8.0623 0.00223521 18.0034 0.00219727C27.9445 0.00223125 36.0034 8.06129 36.0034 18.0023C36.0034 27.9434 27.9445 36.0022 18.0035 36.0022C8.06234 36.0022 0.00341797 27.9434 0.00341797 18.0023ZM4.74713 18.0023C4.74713 25.3234 10.6822 31.2585 18.0035 31.2585C25.3246 31.2585 31.2596 25.3234 31.2596 18.0023C31.2596 10.681 25.3246 4.74605 18.0035 4.74605C10.6822 4.74605 4.74713 10.681 4.74713 18.0023Z" fill="#F22F46"/>
<path d="M18.0034 0.00219727L18.0035 0.00219727H18.0033L18.0034 0.00219727Z" fill="#F22F46"/>
</g>
<defs>
<clipPath id="clip0_202_8692">
<rect width="37" height="37" fill="white"/>
</clipPath>
</defs>
</svg>
