<svg width="37" height="37" viewBox="0 0 37 37" fill="none" xmlns="http://www.w3.org/2000/svg">
<path d="M36.0076 18.0024C36.0076 27.9436 27.9487 36.0024 18.0076 36.0024C8.06644 36.0024 0.00756836 27.9436 0.00756836 18.0024C0.00756836 8.06132 8.06644 0.00244141 18.0076 0.00244141C27.9487 0.00244141 36.0076 8.06132 36.0076 18.0024Z" fill="url(#paint0_linear_202_10757)"/>
<path d="M20.5076 10.5024C20.5076 11.8832 19.3883 13.0024 18.0076 13.0024C16.6269 13.0024 15.5076 11.8832 15.5076 10.5024C15.5076 9.12173 16.6269 8.00244 18.0076 8.00244C19.3883 8.00244 20.5076 9.12173 20.5076 10.5024Z" fill="white"/>
<path d="M11.1326 21.1274C12.8585 21.1274 14.2576 19.7283 14.2576 18.0024C14.2576 16.2766 12.8585 14.8774 11.1326 14.8774C9.40668 14.8774 8.00757 16.2766 8.00757 18.0024C8.00757 19.7283 9.40668 21.1274 11.1326 21.1274Z" fill="white"/>
<path d="M24.8826 21.1274C26.6085 21.1274 28.0076 19.7283 28.0076 18.0024C28.0076 16.2766 26.6085 14.8774 24.8826 14.8774C23.1567 14.8774 21.7576 16.2766 21.7576 18.0024C21.7576 19.7283 23.1567 21.1274 24.8826 21.1274Z" fill="white"/>
<path d="M18.0076 28.0024C19.3883 28.0024 20.5076 26.8832 20.5076 25.5024C20.5076 24.1217 19.3883 23.0024 18.0076 23.0024C16.6269 23.0024 15.5076 24.1217 15.5076 25.5024C15.5076 26.8832 16.6269 28.0024 18.0076 28.0024Z" fill="white"/>
<defs>
<linearGradient id="paint0_linear_202_10757" x1="18.0076" y1="0.00244141" x2="18.0076" y2="36.0024" gradientUnits="userSpaceOnUse">
<stop stop-color="#8A61F2"/>
<stop offset="1" stop-color="#4B4BF3"/>
</linearGradient>
</defs>
</svg>
