<svg width="33" height="26" viewBox="0 0 33 26" fill="none" xmlns="http://www.w3.org/2000/svg">
<path d="M28.7183 6.4846C28.7386 6.76885 28.7386 7.05316 28.7386 7.33741C28.7386 16.0074 22.1397 25.9974 10.0787 25.9974C6.36291 25.9974 2.91114 24.9212 0.00756836 23.0532C0.535508 23.1141 1.04307 23.1344 1.59132 23.1344C4.65727 23.1344 7.47966 22.0989 9.73348 20.3324C6.85022 20.2715 4.43396 18.3831 3.60146 15.7841C4.00758 15.845 4.41365 15.8856 4.84009 15.8856C5.4289 15.8856 6.01778 15.8044 6.56597 15.6623C3.56089 15.0531 1.30701 12.4136 1.30701 9.22573V9.14454C2.18008 9.63186 3.19539 9.93642 4.27146 9.97698C2.50495 8.79929 1.34764 6.78916 1.34764 4.51503C1.34764 3.29677 1.67245 2.18002 2.24101 1.20539C5.46946 5.18509 10.3223 7.78404 15.7639 8.06835C15.6624 7.58104 15.6014 7.07347 15.6014 6.56585C15.6014 2.95158 18.5253 0.00744629 22.1598 0.00744629C24.0482 0.00744629 25.7537 0.799324 26.9517 2.07852C28.4339 1.79427 29.8552 1.24601 31.1142 0.494761C30.6268 2.01764 29.5913 3.29683 28.2309 4.10896C29.5507 3.9669 30.8299 3.60134 32.0076 3.09377C31.1143 4.39321 29.9975 5.55053 28.7183 6.4846Z" fill="#1DA1F2"/>
</svg>
