<svg width="512" height="512" viewBox="0 0 512 512" fill="none" xmlns="http://www.w3.org/2000/svg">
<path d="M256 484.084C275.79 484.084 291.82 468.054 291.82 448.264V137.827H220.18V448.264C220.18 468.054 236.21 484.084 256 484.084Z" fill="#F9AB00"/>
<path d="M398.712 251.106C360.086 212.511 302.386 204.69 256 227.615L409.338 380.953C415.666 387.281 426.561 384.774 429.248 376.266C442.74 333.551 432.561 284.986 398.712 251.106Z" fill="#5BB974"/>
<path d="M113.288 251.106C151.914 212.511 209.613 204.69 256 227.615L102.662 380.953C96.3337 387.281 85.4386 384.774 82.7521 376.266C69.26 333.551 79.4388 284.986 113.288 251.106Z" fill="#129EAF"/>
<path d="M387.339 132.096C326.326 132.096 274.537 172.094 256 227.615H498.499C508.439 227.615 515.066 217.108 510.559 208.242C487.515 163.02 441.009 132.096 387.339 132.096Z" fill="#AF5CF7"/>
<path d="M281.342 67.2022C238.18 110.365 229.852 175.228 256 227.615L427.487 56.128C434.531 49.0834 431.785 36.9644 422.323 33.8899C374.026 18.2188 319.281 29.2632 281.342 67.2022Z" fill="#FF8BCB"/>
<path d="M230.658 67.2022C273.82 110.365 282.148 175.228 256 227.615L84.5133 56.128C77.4687 49.0834 80.2149 36.9644 89.6773 33.8899C137.974 18.2188 192.719 29.2632 230.658 67.2022Z" fill="#FA7B17"/>
<path d="M124.661 132.096C185.674 132.096 237.463 172.094 256 227.615H13.5008C3.56079 227.615 -3.06585 217.108 1.44146 208.242C24.4855 163.02 70.9913 132.096 124.661 132.096Z" fill="#4285F4"/>
</svg>
