<svg width="36" height="36" viewBox="0 0 36 36" fill="none" xmlns="http://www.w3.org/2000/svg">
<g clip-path="url(#clip0_202_14469)">
<path d="M17.0543 0.0674241C21.6839 -0.313741 25.0089 0.915005 28.5865 4.49053C32.4491 8.35082 35.0171 13.3534 35.7091 18.6822C36.4791 24.6083 35.42 29.0305 32.1581 32.2682C29.039 35.364 24.4832 36.3852 18.3972 35.8764L18.1452 35.8543C12.9628 35.3778 9.29718 33.6787 5.74551 30.0817C1.95182 26.2395 -0.0472648 21.8772 0.0594834 17.2985C0.111695 15.057 0.746662 13.1466 1.97123 11.2721C2.77403 10.0433 3.58934 9.08468 5.29476 7.32664L5.86392 6.74365L6.49132 6.10773C10.5331 2.04507 13.194 0.385253 17.0543 0.0674241ZM28.3114 4.7658C24.8144 1.27082 21.6015 0.0835264 17.0862 0.455283C13.2809 0.768585 10.6676 2.43101 6.57777 6.57335L6.2819 6.87355C4.28925 8.89925 3.35544 9.93496 2.53286 11.1328L2.41316 11.3093L2.29703 11.485C1.11077 13.3008 0.499006 15.1414 0.448549 17.3076C0.344448 21.7727 2.29847 26.0367 6.02244 29.8082C9.56508 33.3961 13.2046 35.0519 18.4296 35.4886L18.6888 35.5094C24.5418 35.9595 28.9055 34.9482 31.884 31.992C35.0485 28.851 36.0789 24.5485 35.3232 18.7324C34.6425 13.4911 32.1147 8.56688 28.3114 4.7658ZM23.4681 13.0951V14.9962H19.4304V25.8922H17.4192V14.9962H13.3815V13.0951H23.4681Z" fill="#262627"/>
</g>
<defs>
<clipPath id="clip0_202_14469">
<rect width="36" height="36.0009" fill="white"/>
</clipPath>
</defs>
</svg>
