<svg width="36" height="37" viewBox="0 0 36 37" fill="none" xmlns="http://www.w3.org/2000/svg">
<g clip-path="url(#clip0_202_8898)">
<path d="M0.000976562 18.0054V36.0054H18.001H36.001V18.0054V0.00537109H18.001H0.000976562V18.0054Z" fill="#007ACC"/>
<path d="M7.96195 18.1248L7.95052 19.599H10.2934H12.6362L12.6362 26.2562V32.9133H14.2934H15.9505V26.2562L15.9505 19.599H18.2934H20.6362L20.6362 18.1533C20.6362 17.3533 20.6191 16.6848 20.5962 16.6676C20.5791 16.6448 17.7277 16.6333 14.2705 16.639L7.97909 16.6562L7.96195 18.1248Z" fill="white"/>
<path d="M29.0495 16.6143C29.9637 16.8429 30.6609 17.2486 31.3009 17.9115C31.6323 18.2657 32.1237 18.9115 32.1637 19.0657C32.1752 19.1115 30.6095 20.1629 29.6609 20.7515C29.6266 20.7743 29.4895 20.6257 29.3352 20.3972C28.8723 19.7229 28.3866 19.4315 27.6437 19.38C26.5523 19.3057 25.8495 19.8772 25.8552 20.8315C25.8552 21.1115 25.8952 21.2772 26.0095 21.5057C26.2495 22.0029 26.6952 22.3 28.0952 22.9057C30.6723 24.0143 31.7752 24.7457 32.4609 25.7857C33.2266 26.9457 33.398 28.7972 32.878 30.1743C32.3066 31.6715 30.8895 32.6886 28.8952 33.0257C28.278 33.1343 26.8152 33.1172 26.1523 32.9972C24.7066 32.74 23.3352 32.0257 22.4895 31.0886C22.158 30.7229 21.5123 29.7686 21.5523 29.7C21.5695 29.6772 21.718 29.5857 21.8837 29.4886C22.0437 29.3972 22.6495 29.0486 23.2209 28.7172L24.2552 28.1172L24.4723 28.4372C24.7752 28.9 25.438 29.5343 25.838 29.7457C26.9866 30.3515 28.5637 30.2657 29.3409 29.5686C29.6723 29.2657 29.8095 28.9515 29.8095 28.4886C29.8095 28.0715 29.758 27.8886 29.5409 27.5743C29.2609 27.1743 28.6895 26.8372 27.0666 26.1343C25.2095 25.3343 24.4095 24.8372 23.678 24.0486C23.2552 23.5915 22.8552 22.86 22.6895 22.2486C22.5523 21.74 22.518 20.4657 22.6266 19.9515C23.0095 18.1572 24.3637 16.9057 26.318 16.5343C26.9523 16.4143 28.4266 16.46 29.0495 16.6143Z" fill="white"/>
</g>
<defs>
<clipPath id="clip0_202_8898">
<rect width="36.001" height="37" fill="white"/>
</clipPath>
</defs>
</svg>
