<svg width="512" height="512" viewBox="0 0 512 512" fill="none" xmlns="http://www.w3.org/2000/svg">
<path d="M510.276 367.422C508.941 362.383 506.778 357.602 503.877 353.271C504.499 350.989 504.971 348.672 505.289 346.333C507.348 331.476 502.199 317.867 492.491 307.351C487.233 301.603 481.597 297.81 475.628 295.48C479.546 278.717 481.53 261.57 481.54 244.342C481.54 236.481 481.095 228.779 480.349 221.191C479.959 217.403 479.489 213.621 478.939 209.853C477.229 198.732 474.693 187.754 471.352 177.012C469.162 169.954 466.628 163.005 463.762 156.193C459.464 146.105 454.444 136.339 448.744 126.982C445.002 120.752 440.93 114.726 436.542 108.931C434.392 106.004 432.152 103.148 429.82 100.364C422.913 91.968 415.41 84.0872 407.363 76.7782C404.693 74.3214 401.946 71.9502 399.124 69.6655C396.347 67.349 393.508 65.1061 390.612 62.9407C384.782 58.6025 378.756 54.5303 372.555 50.7415C338.297 29.9331 298.123 18 255.163 18C130.139 18 28.8065 119.332 28.8065 244.357C28.8033 261.789 30.823 279.162 34.8253 296.117C29.4554 298.449 24.3067 302.081 19.5359 307.339C9.83032 317.857 4.67919 331.411 6.74014 346.271C7.0509 348.632 7.52325 350.969 8.14974 353.266C5.25098 357.6 3.0881 362.383 1.75059 367.422C-1.23269 378.761 -0.250692 388.986 3.54057 397.951C-0.578853 409.663 0.45038 422.133 5.81781 432.98C9.72094 440.898 15.3071 447.021 22.1911 452.498C30.3777 459.004 40.6253 464.536 52.9935 469.838C67.7409 476.128 85.735 482.037 93.9142 484.205C115.061 489.682 135.332 493.153 155.892 493.319C185.178 493.593 210.387 486.706 228.436 469.088C237.303 470.174 246.228 470.718 255.161 470.716C264.6 470.696 274.03 470.099 283.403 468.936C301.412 486.667 326.71 493.615 356.095 493.334C376.643 493.173 396.917 489.702 417.998 484.218C426.24 482.05 444.226 476.141 458.994 469.853C471.357 464.538 481.602 459.009 489.846 452.51C496.678 447.036 502.259 440.91 506.164 432.992C511.587 422.151 512.564 409.68 508.496 397.964C512.253 389.006 513.227 378.759 510.247 367.435L510.276 367.422ZM489.296 397.18C493.451 405.064 493.717 413.971 490.05 422.265C484.491 434.839 470.683 444.741 443.858 455.379C427.184 461.995 411.912 466.221 411.788 466.261C389.732 471.981 369.774 474.885 352.52 474.885C323.93 474.885 302.65 466.997 289.15 451.414C266.331 455.3 243.034 455.432 220.162 451.804C206.653 467.129 185.506 474.885 157.14 474.885C139.869 474.885 119.923 471.981 97.872 466.261C97.7353 466.221 82.4733 461.995 65.8017 455.379C38.977 444.746 25.1793 434.849 19.6105 422.265C15.9436 413.969 16.2096 405.061 20.3638 397.18C20.7491 396.45 21.1593 395.734 21.5994 395.045C19.1083 391.306 17.4402 387.08 16.6993 382.649C15.959 378.219 16.1651 373.68 17.304 369.334C18.9547 363.064 22.3656 357.848 26.9947 354.102C24.7656 350.437 23.3028 346.36 22.6938 342.114C21.3612 332.881 24.4241 323.66 31.3204 316.135C36.6878 310.285 44.2778 307.065 52.6832 307.065H52.907C46.57 286.757 43.358 265.598 43.3779 244.317C43.3779 128.292 137.451 34.2191 253.476 34.2191C369.525 34.2191 463.574 128.292 463.574 244.317C463.588 265.647 460.354 286.854 453.98 307.215C454.994 307.115 455.989 307.063 456.963 307.063C465.366 307.063 472.958 310.28 478.326 316.13C485.217 323.64 488.288 332.868 486.953 342.109C486.343 346.355 484.882 350.435 482.652 354.099C487.281 357.843 490.692 363.059 492.342 369.331C493.478 373.677 493.685 378.214 492.944 382.647C492.203 387.077 490.535 391.301 488.046 395.042C488.486 395.724 488.902 396.44 489.282 397.17L489.296 397.18Z" fill="white"/>
<path d="M487.902 395.018C490.39 391.276 492.059 387.052 492.799 382.622C493.54 378.189 493.334 373.652 492.198 369.307C490.547 363.037 487.136 357.821 482.507 354.075C484.735 350.41 486.199 346.333 486.808 342.087C488.141 332.853 485.078 323.633 478.181 316.107C472.814 310.257 465.221 307.038 456.819 307.038C455.842 307.038 454.85 307.088 453.835 307.19C460.202 286.834 463.431 265.623 463.412 244.292C463.412 128.267 369.339 34.1943 253.314 34.1943C137.289 34.1943 43.2159 128.242 43.2159 244.292C43.1958 265.565 46.4081 286.729 52.7451 307.041H52.5213C44.1184 307.041 36.5284 310.26 31.161 316.11C24.2696 323.62 21.2018 332.846 22.5343 342.089C23.1427 346.335 24.6057 350.412 26.8352 354.077C22.2062 357.823 18.7953 363.039 17.147 369.312C16.0089 373.657 15.8035 378.197 16.5449 382.63C17.2862 387.06 18.9571 391.286 21.4474 395.025C21.0024 395.714 20.5947 396.43 20.2118 397.161C16.0601 405.044 15.7916 413.952 19.4586 422.245C25.0149 434.817 38.8251 444.724 65.6498 455.36C82.3238 461.975 97.5958 466.201 97.7201 466.241C119.776 471.961 139.735 474.868 156.988 474.868C185.354 474.868 206.511 467.111 220.01 451.785C242.872 455.412 266.176 455.28 288.998 451.394C302.49 466.977 323.778 474.868 352.368 474.868C369.637 474.868 389.585 471.961 411.636 466.241C411.77 466.201 427.035 461.975 443.707 455.36C470.531 444.729 484.329 434.822 489.898 422.245C493.565 413.949 493.299 405.041 489.144 397.161C488.764 396.422 488.346 395.709 487.906 395.025L487.902 395.018ZM210.456 427.784C209.293 429.82 208.047 431.806 206.72 433.738C203.227 438.852 198.633 442.758 193.303 445.664C183.107 451.22 170.207 453.164 157.105 453.164C136.401 453.164 115.165 448.319 103.282 445.231C102.698 445.08 30.3654 424.647 39.5142 407.244C41.0556 404.32 43.5938 403.152 46.7859 403.152C59.6812 403.152 83.1572 422.354 93.2506 422.354C95.503 422.354 97.0941 421.392 97.7429 419.053C102.044 403.627 32.3841 397.143 38.2513 374.801C39.288 370.848 42.0947 369.245 46.0451 369.245C63.0921 369.242 101.36 399.226 109.365 399.226C109.979 399.226 110.419 399.048 110.658 398.67L110.762 398.498C114.516 392.295 112.364 387.786 86.6277 372.021L84.1566 370.517C55.8402 353.376 35.9516 343.071 47.2633 330.765C48.5635 329.343 50.4057 328.714 52.6456 328.714C55.3032 328.714 58.5177 329.604 62.0579 331.093C77.0141 337.4 97.733 354.602 106.409 362.095C108.963 364.317 110.467 365.675 110.467 365.675C110.467 365.675 121.43 377.076 128.061 377.076C129.587 377.076 130.88 376.476 131.757 374.987C136.461 367.062 88.102 330.412 85.3673 315.297C83.5201 305.049 86.665 299.861 92.4849 299.861C95.2494 299.861 98.6255 301.037 102.352 303.401C113.912 310.74 136.237 349.095 144.416 364.011C147.156 369.013 151.832 371.126 156.046 371.126C164.407 371.126 170.943 362.816 156.812 352.255C135.573 336.361 143.027 310.389 153.162 308.798C153.595 308.731 154.033 308.696 154.468 308.694C163.686 308.694 167.753 324.58 167.753 324.58C167.753 324.58 179.669 354.512 200.147 374.972C218.725 393.541 221.318 408.783 210.496 427.777L210.456 427.784ZM276.66 431.289L275.599 431.416L273.787 431.625C272.834 431.722 271.882 431.816 270.925 431.906L269.99 431.99L269.14 432.063L267.929 432.16C267.484 432.192 267.039 432.227 266.594 432.254L265.262 432.343L264.968 432.361L263.919 432.423L263.474 432.445L262.231 432.508L260.787 432.567L259.474 432.612L258.599 432.637H258.157C257.883 432.637 257.612 432.652 257.339 432.654H256.904C256.63 432.654 256.359 432.654 256.086 432.669L254.974 432.682H253.418C252.198 432.682 250.982 432.669 249.766 432.647L248.782 432.624C248.503 432.624 248.222 432.609 247.944 432.602L246.902 432.57L245.604 432.52L244.439 432.47L244.135 432.458L243.024 432.398C242.716 432.381 242.407 432.366 242.102 432.346L241.383 432.304C240.481 432.246 239.578 432.182 238.676 432.112L237.731 432.038L236.538 431.936L235.143 431.806C234.365 431.734 233.587 431.655 232.809 431.568H232.771C244.133 406.21 238.387 382.543 215.429 359.621C200.373 344.585 190.344 322.38 188.281 317.507C184.074 303.075 172.939 287.028 154.445 287.028C152.882 287.03 151.323 287.154 149.779 287.398C141.677 288.671 134.596 293.335 129.545 300.35C124.088 293.561 118.78 288.164 113.982 285.113C106.747 280.529 99.5304 278.202 92.4948 278.202C83.719 278.202 75.8705 281.807 70.4011 288.345L70.2644 288.512L69.9561 287.217L69.9437 287.162C68.9035 282.712 68.0297 278.222 67.3234 273.707C67.3234 273.675 67.3234 273.645 67.3085 273.615L67.1543 272.594C67.071 272.042 66.9897 271.487 66.9107 270.935C66.8461 270.475 66.7814 270.015 66.7217 269.558C66.6621 269.101 66.5974 268.641 66.5428 268.181C66.4831 267.718 66.4284 267.258 66.3737 266.798C66.3212 266.361 66.2708 265.923 66.222 265.486L66.2074 265.374C65.9831 263.355 65.791 261.334 65.6304 259.31L65.5434 258.14C65.5185 257.819 65.4961 257.496 65.4762 257.17C65.4762 257.095 65.4663 257.018 65.4613 256.949L65.3795 255.651C65.3497 255.181 65.3271 254.711 65.3022 254.241C65.2773 253.774 65.2525 253.304 65.2326 252.832L65.1829 251.601L65.168 251.228L65.1307 250.09L65.1036 249.125C65.1036 248.74 65.0859 248.352 65.0785 247.966L65.0586 246.751C65.0536 246.346 65.0586 245.943 65.0486 245.538C65.0362 245.13 65.0486 244.725 65.0486 244.317C65.0486 140.275 149.401 55.9225 253.468 55.9225C357.535 55.9225 441.887 140.275 441.887 244.317V246.751C441.887 247.156 441.877 247.564 441.867 247.966C441.867 248.305 441.855 248.635 441.845 248.973C441.845 249.274 441.832 249.573 441.82 249.863C441.82 250.244 441.798 250.622 441.785 251.002V251.034C441.753 251.86 441.718 252.685 441.683 253.51L441.668 253.784L441.604 255.017L441.544 255.994C441.405 258.309 441.223 260.623 441.002 262.933V262.965C440.962 263.398 440.918 263.833 440.87 264.265C440.761 265.272 440.649 266.279 440.537 267.286L440.41 268.298L440.254 269.486C440.199 269.921 440.139 270.354 440.077 270.786C440.01 271.271 439.938 271.753 439.868 272.236L439.694 273.374L439.491 274.667C439.421 275.097 439.351 275.525 439.269 275.955C439.185 276.382 439.12 276.81 439.046 277.24C438.896 278.095 438.742 278.948 438.576 279.801C438.245 281.499 437.9 283.192 437.534 284.882C437.442 285.302 437.348 285.725 437.251 286.145C431.948 280.991 424.927 278.185 417.181 278.185C410.152 278.185 402.928 280.509 395.696 285.096C390.895 288.144 385.593 293.544 380.131 300.333C375.072 293.315 367.991 288.654 359.899 287.378C358.355 287.137 356.794 287.013 355.23 287.01C336.736 287.01 325.596 303.053 321.395 317.489C319.309 322.365 309.29 344.563 294.222 359.628C271.281 382.495 265.483 406.068 276.675 431.302L276.66 431.289ZM471.171 380.549L471.096 380.77C471.044 380.912 470.992 381.053 470.934 381.193C470.845 381.404 470.75 381.61 470.651 381.817C470.41 382.309 470.136 382.786 469.836 383.244C469.42 383.863 468.965 384.454 468.471 385.011C468.356 385.14 468.247 385.267 468.118 385.394C467.944 385.585 467.757 385.772 467.573 385.958C464.225 389.277 459.123 392.183 453.355 394.854C452.702 395.149 452.04 395.445 451.369 395.741L450.703 396.037C450.258 396.233 449.815 396.43 449.348 396.621C448.893 396.815 448.436 397.006 447.978 397.195L446.591 397.77C443.347 399.105 440.023 400.375 436.778 401.633L435.394 402.17L434.021 402.707C433.111 403.063 432.211 403.418 431.324 403.774L430.004 404.306L428.709 404.838L428.07 405.104C427.647 405.283 427.229 405.457 426.817 405.636C417.275 409.728 410.414 413.892 411.855 419.06C411.895 419.207 411.94 419.346 411.99 419.481C412.119 419.863 412.296 420.226 412.514 420.564C412.644 420.768 412.793 420.96 412.959 421.134C414.655 422.894 417.74 422.615 421.631 421.218C421.946 421.104 422.27 420.982 422.595 420.853C422.819 420.768 423.04 420.679 423.264 420.589L423.6 420.448C424.49 420.07 425.432 419.65 426.396 419.19C426.638 419.078 426.881 418.968 427.125 418.839C431.881 416.515 437.273 413.38 442.623 410.528C443.443 410.083 444.266 409.658 445.084 409.235C446.422 408.542 447.772 407.873 449.134 407.234C454.201 404.853 458.962 403.162 462.793 403.162C464.588 403.162 466.176 403.53 467.496 404.375L467.717 404.522C468.386 404.994 468.968 405.573 469.443 406.24C469.552 406.396 469.667 406.558 469.764 406.724C469.868 406.896 469.967 407.073 470.062 407.252C471.954 410.841 470.37 414.563 466.666 418.21C463.108 421.711 457.574 425.144 451.282 428.323C450.817 428.56 450.347 428.796 449.875 429.025C431.152 438.218 406.642 445.142 406.294 445.229C399.761 446.922 390.418 449.147 379.892 450.81L378.333 451.051L378.08 451.088C375.693 451.446 373.299 451.762 370.9 452.036L370.679 452.058C366.316 452.555 361.841 452.916 357.358 453.067H357.291C355.68 453.127 354.072 453.154 352.461 453.154H350.606C348.15 453.12 345.696 453.01 343.247 452.821C343.19 452.821 343.131 452.821 343.071 452.809C342.196 452.742 341.318 452.66 340.446 452.563C338.944 452.401 337.445 452.202 335.951 451.968C335.369 451.872 334.748 451.77 334.148 451.665C333.875 451.616 333.604 451.566 333.333 451.511L333.268 451.499C332.406 451.335 331.548 451.153 330.693 450.957C330.198 450.845 329.701 450.733 329.211 450.601L328.918 450.524C328.674 450.464 328.435 450.4 328.197 450.335L328.065 450.3L327.297 450.079C327.018 450 326.742 449.917 326.464 449.835L326.364 449.806L325.641 449.584C325.368 449.5 325.097 449.41 324.826 449.323C324.602 449.249 324.381 449.172 324.157 449.1L323.667 448.928C323.195 448.764 322.727 448.59 322.26 448.411L321.817 448.239L321.452 448.093C320.748 447.809 320.047 447.513 319.354 447.203L318.891 446.981L318.814 446.947C318.65 446.87 318.489 446.793 318.325 446.723C318.004 446.569 317.686 446.41 317.37 446.248L317.275 446.201L316.818 445.96C316.005 445.537 315.207 445.085 314.426 444.602L313.999 444.341C313.777 444.207 313.576 444.07 313.365 443.934L312.808 443.563C312.607 443.429 312.405 443.292 312.209 443.15L311.851 442.897C311.473 442.626 311.103 442.35 310.737 442.064C310.543 441.915 310.352 441.761 310.16 441.619C309.735 441.278 309.32 440.928 308.91 440.567L308.892 440.552C308.492 440.207 308.102 439.849 307.721 439.483L307.702 439.459C307.503 439.27 307.309 439.081 307.115 438.884C306.923 438.688 306.729 438.494 306.543 438.298C306.354 438.099 306.165 437.897 305.981 437.691C305.802 437.497 305.628 437.301 305.454 437.102L305.394 437.035C304.497 435.993 303.657 434.902 302.879 433.765L302.57 433.311C302.366 433.01 302.165 432.706 301.966 432.403L301.379 431.501C301.091 431.061 300.81 430.616 300.537 430.168C300.34 429.85 300.146 429.532 299.955 429.211C299.793 428.938 299.632 428.667 299.478 428.398C299.391 428.251 299.309 428.102 299.227 427.953C299.145 427.799 299.048 427.642 298.961 427.486L298.821 427.24C298.774 427.157 298.759 427.133 298.734 427.078C298.565 426.782 298.401 426.481 298.242 426.176C298.17 426.044 298.098 425.91 298.021 425.778L297.797 425.35L297.576 424.925L297.148 424.062C297.079 423.921 297.011 423.779 296.944 423.637C296.798 423.331 296.658 423.031 296.519 422.73C296.465 422.608 296.407 422.486 296.358 422.364C296.166 421.949 295.985 421.529 295.813 421.104C295.696 420.823 295.589 420.545 295.475 420.266C295.154 419.446 294.854 418.618 294.578 417.78C294.496 417.531 294.413 417.285 294.341 417.037C294.162 416.472 294.001 415.903 293.857 415.329C293.68 414.66 293.523 413.984 293.392 413.305C293.307 412.905 293.233 412.502 293.17 412.097C293.103 411.697 293.046 411.296 292.999 410.899C292.897 410.106 292.825 409.31 292.783 408.512C292.783 408.38 292.77 408.246 292.768 408.114C292.755 407.851 292.748 407.587 292.745 407.324C292.606 396.703 297.983 386.488 309.477 375.005C329.947 354.552 341.87 324.612 341.87 324.612C341.87 324.612 342.191 323.357 342.86 321.552C343.083 320.953 343.317 320.356 343.563 319.767C343.844 319.1 344.145 318.442 344.468 317.795L344.562 317.606C344.978 316.781 345.428 315.978 345.917 315.195C346.029 315.013 346.139 314.832 346.268 314.653C346.631 314.111 347.016 313.586 347.421 313.077C347.735 312.686 348.068 312.309 348.418 311.951C349.607 310.727 350.962 309.728 352.496 309.193L352.689 309.131C352.819 309.089 352.946 309.049 353.077 309.012C353.231 308.972 353.386 308.935 353.54 308.903L353.609 308.89C353.935 308.826 354.261 308.781 354.591 308.758H354.621C354.793 308.758 354.964 308.741 355.141 308.741C355.581 308.743 356.018 308.778 356.453 308.845C358.298 309.136 360.056 310.235 361.567 311.931L361.771 312.169C362.263 312.746 362.711 313.363 363.109 314.009C363.407 314.489 363.688 314.993 363.954 315.523C364.061 315.747 364.163 315.951 364.265 316.169C364.314 316.281 364.364 316.391 364.411 316.505C364.511 316.726 364.603 316.95 364.695 317.184C365.214 318.516 365.617 319.891 365.9 321.293C366.201 322.807 366.375 324.344 366.425 325.887C366.442 326.566 366.442 327.252 366.425 327.948C366.413 328.212 366.4 328.478 366.38 328.744C366.176 331.7 365.533 334.609 364.468 337.376C364.362 337.649 364.245 337.927 364.135 338.206C363.601 339.484 362.979 340.722 362.278 341.915C361.878 342.596 361.445 343.273 360.983 343.944L360.7 344.346C359.603 345.878 358.38 347.315 357.043 348.642C355.725 349.963 354.313 351.183 352.819 352.299C351.32 353.406 349.915 354.634 348.617 355.969C344.881 359.892 344.011 363.35 344.851 365.973C344.95 366.269 345.067 366.56 345.201 366.84C345.512 367.45 345.915 368.009 346.397 368.496L346.529 368.628C346.666 368.76 346.81 368.887 346.957 369.008L347.106 369.13C347.469 369.409 347.852 369.657 348.252 369.873C348.366 369.936 348.473 369.998 348.605 370.057C349.154 370.331 349.729 370.55 350.32 370.716L350.484 370.759L350.706 370.818L350.9 370.865L351.106 370.91L351.312 370.952L351.509 370.985C351.655 371.012 351.804 371.034 351.951 371.054L352.095 371.074L352.351 371.102L352.51 371.117L352.774 371.136H352.926L353.199 371.149H354.062L354.308 371.136L354.591 371.119L354.937 371.087L355.26 371.047C355.332 371.047 355.407 371.027 355.481 371.015C356.62 370.848 357.729 370.527 358.778 370.06C359.002 369.965 359.223 369.861 359.427 369.752C359.864 369.533 360.289 369.287 360.697 369.016C361.266 368.643 361.803 368.223 362.308 367.765L362.659 367.432C362.713 367.377 362.771 367.325 362.823 367.268C363.166 366.925 363.489 366.562 363.79 366.182C364.322 365.51 364.794 364.797 365.204 364.046C370.07 355.201 375.169 346.485 380.496 337.918L381.227 336.747L381.965 335.573C382.336 334.981 382.706 334.395 383.077 333.816L383.452 333.231L384.2 332.065C385.205 330.512 386.212 328.975 387.226 327.454L387.984 326.32C389.506 324.068 391.025 321.875 392.526 319.789L393.277 318.76C394.91 316.503 396.613 314.297 398.381 312.144L399.085 311.304C399.199 311.162 399.306 311.026 399.433 310.889L400.121 310.091C400.236 309.959 400.345 309.83 400.464 309.703L401.131 308.95L401.466 308.587C401.789 308.236 402.118 307.891 402.451 307.548C402.674 307.326 402.881 307.103 403.097 306.896C404.357 305.606 405.747 304.45 407.246 303.448L407.592 303.227L407.942 303.003C408.166 302.864 408.392 302.73 408.624 302.603C414.501 299.269 419.368 299.023 422.168 301.822C423.866 303.52 424.803 306.332 424.753 310.243C424.753 310.417 424.753 310.588 424.738 310.767V310.961C424.738 311.138 424.723 311.319 424.711 311.501C424.711 311.722 424.684 311.946 424.661 312.167C424.639 312.391 424.629 312.56 424.607 312.756C424.607 312.813 424.594 312.87 424.587 312.928C424.569 313.102 424.547 313.278 424.524 313.452C424.524 313.507 424.524 313.559 424.502 313.614C424.477 313.85 424.442 314.086 424.4 314.32C424.373 314.536 424.338 314.752 424.296 314.969C424.278 315.093 424.254 315.215 424.234 315.339C424.169 315.692 424.084 316.043 423.983 316.386C423.791 317.027 423.557 317.656 423.281 318.268C423.162 318.534 423.035 318.8 422.906 319.061C422.638 319.6 422.334 320.152 422.001 320.724C421.835 321.005 421.663 321.296 421.479 321.587L421.201 322.029C420.917 322.474 420.621 322.924 420.313 323.379C420.005 323.834 419.674 324.299 419.319 324.769C418.859 325.395 418.374 326.034 417.862 326.68L417.474 327.17C416.378 328.535 415.254 329.878 414.105 331.198L413.193 332.229L412.728 332.751C412.094 333.46 411.458 334.164 410.816 334.862L410.324 335.394C409.998 335.747 409.658 336.105 409.332 336.461C408.999 336.821 408.661 337.179 408.323 337.537L407.299 338.616L406.262 339.698C405.916 340.058 405.568 340.423 405.218 340.784L403.107 342.959C393.026 353.299 382.403 363.604 378.808 370.033C378.569 370.453 378.353 370.883 378.157 371.323C377.647 372.491 377.433 373.491 377.578 374.299C377.625 374.565 377.719 374.821 377.856 375.052C378.06 375.403 378.306 375.726 378.589 376.014C378.721 376.143 378.858 376.265 379.007 376.375C379.745 376.902 380.64 377.173 381.548 377.145H381.831L382.122 377.125L382.415 377.091L382.657 377.056C382.689 377.053 382.721 377.046 382.754 377.038L382.975 376.996L383.034 376.981L383.278 376.929L383.626 376.839L383.937 376.747C384.141 376.685 384.345 376.616 384.553 376.539C385.003 376.38 385.443 376.196 385.874 375.989C385.983 375.937 386.095 375.887 386.202 375.83L386.532 375.666C386.965 375.447 387.395 375.211 387.828 374.955C388.173 374.751 388.516 374.542 388.859 374.321L389.192 374.1C389.302 374.03 389.414 373.958 389.523 373.876L389.854 373.655L390.028 373.533L390.505 373.2C390.95 372.892 391.365 372.576 391.788 372.255L391.825 372.228L392.491 371.711C393.404 370.99 394.272 370.264 395.055 369.58L395.577 369.12L395.626 369.075L395.897 368.834C396.539 368.26 397.111 367.723 397.588 367.278L397.782 367.089L398.252 366.644L398.533 366.371L398.63 366.271L398.657 366.244C398.896 366.005 398.896 366.005 399.134 365.764L399.154 365.744L399.244 365.665C399.271 365.635 399.308 365.605 399.351 365.568L399.385 365.535L399.48 365.451L399.984 365.006L400.268 364.75C400.407 364.63 400.559 364.494 400.713 364.347L401.053 364.049C401.113 363.999 401.173 363.942 401.235 363.887L401.59 363.576L402.115 363.119L402.391 362.878C403.472 361.935 404.79 360.799 406.299 359.519L406.918 358.997L407.942 358.139L408.987 357.264C410.354 356.13 411.826 354.925 413.382 353.672L414.404 352.851C415.274 352.16 416.169 351.452 417.074 350.741C417.437 350.455 417.807 350.169 418.185 349.885C419.112 349.169 420.045 348.456 420.979 347.752C423.112 346.141 425.313 344.528 427.538 342.954L428.495 342.291C429.161 341.828 429.827 341.368 430.496 340.918L431.1 340.508C432.296 339.703 433.502 338.914 434.717 338.144L435.322 337.763L435.921 337.39C436.52 337.02 437.119 336.652 437.711 336.297L438.305 335.944L439.496 335.25C439.886 335.024 440.274 334.802 440.662 334.584L440.895 334.452L441.82 333.947C442.203 333.738 442.588 333.537 442.969 333.341L443.54 333.047L444.092 332.766C445.355 332.132 446.641 331.546 447.948 331.009C448.127 330.934 448.304 330.862 448.48 330.785C448.831 330.638 449.179 330.504 449.524 330.385C449.87 330.268 450.211 330.146 450.546 330.027C450.852 329.925 451.148 329.83 451.436 329.741L451.533 329.711C451.687 329.664 451.841 329.619 451.996 329.579L452.04 329.567C452.354 329.477 452.667 329.395 452.983 329.321H453.007C453.472 329.209 453.925 329.114 454.367 329.04C454.519 329.015 454.668 328.99 454.812 328.97C455.242 328.906 455.675 328.861 456.108 328.831C456.381 328.811 456.657 328.804 456.93 328.804H457.139C457.418 328.804 457.686 328.821 457.952 328.848C458.074 328.848 458.196 328.871 458.315 328.888H458.365C458.484 328.901 458.606 328.92 458.723 328.945C458.84 328.97 458.959 328.988 459.073 329.015H459.113C459.228 329.04 459.334 329.072 459.454 329.104C460.403 329.36 461.276 329.843 462 330.509L462.064 330.574L462.191 330.698L462.315 330.83C463.312 331.879 464.138 333.08 464.759 334.387L464.856 334.609C465.067 335.106 465.234 335.62 465.351 336.147C465.674 337.617 465.587 339.148 465.097 340.57C464.886 341.189 464.627 341.791 464.322 342.368L464.118 342.736C463.342 344.036 462.427 345.246 461.385 346.345L461.162 346.581C460.672 347.101 460.162 347.606 459.638 348.091C459.471 348.247 459.3 348.404 459.126 348.56L458.862 348.799C458.315 349.284 457.756 349.756 457.189 350.219C457.09 350.298 456.988 350.378 456.891 350.462C456.495 350.78 456.088 351.104 455.665 351.427C454.208 352.541 452.724 353.615 451.212 354.651C450.322 355.26 449.403 355.874 448.453 356.498C446.683 357.659 444.9 358.796 443.1 359.909C442.581 360.23 442.059 360.556 441.527 360.879C436.637 363.887 431.215 367.104 425.432 370.602L423.935 371.512C422.297 372.511 420.751 373.466 419.296 374.373L418.563 374.836L417.176 375.726C416.626 376.074 416.092 376.417 415.572 376.755C415.179 377.006 414.796 377.255 414.421 377.501L413.68 377.988C413.32 378.224 412.962 378.46 412.604 378.702L412.256 378.923C411.888 379.169 411.53 379.41 411.182 379.649L410.612 380.037L409.944 380.501L409.327 380.932C408.353 381.615 407.391 382.314 406.436 383.025L406.103 383.278C405.727 383.562 405.364 383.845 405.014 384.121L404.556 384.487C403.786 385.106 403.087 385.7 402.456 386.267L402.147 386.55C401.971 386.712 401.797 386.873 401.633 387.032C401.516 387.142 401.409 387.254 401.292 387.363L401.131 387.522C400.775 387.878 400.43 388.243 400.094 388.618L399.93 388.807C399.564 389.23 399.246 389.635 398.965 390.031L398.841 390.21C398.518 390.682 398.232 391.182 397.988 391.701L397.904 391.883L397.851 392.009L397.809 392.119L397.752 392.271C397.735 392.323 397.7 392.415 397.68 392.494C397.578 392.79 397.503 393.096 397.454 393.407L397.429 393.573L397.409 393.725L397.396 393.872V394.652C397.396 394.717 397.396 394.784 397.411 394.851C397.414 394.891 397.419 394.931 397.424 394.97C397.424 395.035 397.441 395.1 397.449 395.167L397.496 395.44V395.453C397.513 395.54 397.531 395.627 397.553 395.714C397.575 395.801 397.598 395.898 397.625 395.99C397.705 396.271 397.802 396.549 397.914 396.82C397.914 396.84 397.931 396.862 397.938 396.882C397.968 396.949 397.996 397.019 398.028 397.086C398.15 397.369 398.286 397.645 398.436 397.916L398.592 398.197L398.756 398.481L398.928 398.764C398.958 398.811 398.99 398.854 399.027 398.896L399.085 398.956L399.144 399.01L399.211 399.062C399.256 399.095 399.303 399.122 399.353 399.149C399.403 399.172 399.457 399.197 399.512 399.217C399.572 399.236 399.631 399.254 399.691 399.269C401.126 399.592 404.074 398.404 407.99 396.335L408.693 395.962L409.884 395.313L410.468 394.99C410.881 394.767 411.306 394.518 411.736 394.272L412.524 393.827C417.703 390.846 423.891 387.015 430.285 383.276C430.881 382.925 431.483 382.577 432.085 382.229L433.293 381.459C433.897 381.11 434.499 380.767 435.103 380.429C437.673 378.968 440.279 377.563 442.911 376.218L444.092 375.619C444.878 375.231 445.656 374.853 446.424 374.485C447.913 373.779 449.418 373.11 450.936 372.476L451.769 372.138L451.871 372.099C456.282 370.351 460.282 369.269 463.518 369.269C464.22 369.264 464.918 369.322 465.609 369.441H465.629C465.853 369.481 466.054 369.525 466.258 369.578H466.295C466.594 369.65 466.887 369.742 467.171 369.856C467.397 369.938 467.616 370.035 467.827 370.149C468.754 370.619 469.547 371.313 470.139 372.168C470.189 372.24 470.236 372.315 470.281 372.392C470.499 372.725 470.688 373.076 470.842 373.443C470.934 373.655 471.019 373.874 471.099 374.11C471.178 374.348 471.248 374.577 471.32 374.823C471.847 376.708 471.795 378.701 471.171 380.556V380.549Z" fill="#FF9D00"/>
<path d="M441.661 245.456V244.237C441.661 140.195 357.333 55.843 253.266 55.843C149.224 55.843 64.8471 140.195 64.8471 244.237L64.8418 244.645C64.8418 244.916 64.8418 245.185 64.8418 245.456C64.8566 245.861 64.8608 246.266 64.8571 246.671L64.872 247.566L64.877 247.889L64.8894 248.332C64.8944 248.571 64.9018 248.807 64.9018 249.045L64.9267 250.013L64.9665 251.149L64.9789 251.522L65.0286 252.698V252.752L65.0982 254.127V254.162C65.1231 254.632 65.1479 255.102 65.1778 255.569C65.2026 256.004 65.23 256.437 65.2598 256.869L65.2673 256.946C65.2892 257.317 65.314 257.69 65.3419 258.06L65.3493 258.157C65.3742 258.515 65.4015 258.875 65.4314 259.231L65.4363 259.3L65.486 259.922C65.635 261.714 65.809 263.507 66.0081 265.294L66.0206 265.406L66.1697 266.719L66.3413 268.101C66.4564 269.021 66.5792 269.938 66.7092 270.856C66.7868 271.41 66.8673 271.962 66.9503 272.514L66.9628 272.581C67.1485 273.829 67.3489 275.077 67.5644 276.32C68.1827 279.927 68.9089 283.517 69.7422 287.082L69.7546 287.14L69.8342 287.475C69.9088 287.793 69.9834 288.112 70.0629 288.432L70.1996 288.266C75.669 281.727 83.515 278.123 92.2934 278.123C99.3289 278.123 106.548 280.447 113.78 285.034C118.579 288.082 123.884 293.481 129.343 300.271C134.395 293.253 141.475 288.591 149.575 287.319C151.121 287.075 152.682 286.951 154.244 286.948C172.733 286.948 183.878 302.993 188.079 317.427C190.155 322.305 200.174 344.501 215.277 359.541C238.236 382.48 243.991 406.155 232.62 431.488H232.657C233.433 431.573 234.211 431.652 234.991 431.724C235.456 431.769 235.921 431.814 236.386 431.854L236.55 431.869C236.891 431.901 237.234 431.931 237.577 431.956L238.522 432.033C239.422 432.102 240.324 432.164 241.231 432.224L241.947 432.266L242.517 432.299L242.872 432.319L243.981 432.378L244.284 432.391L245.453 432.44L246.748 432.49L247.792 432.52L247.966 432.527C248.185 432.535 248.409 432.545 248.63 432.545L248.866 432.55C250.333 432.585 251.797 432.602 253.264 432.602H254.82L255.934 432.59C256.207 432.575 256.478 432.575 256.752 432.575H257.184L257.56 432.567C257.707 432.562 257.856 432.557 258.002 432.557H258.447L259.32 432.532L260.633 432.488L262.08 432.426C262.495 432.408 262.907 432.388 263.323 432.366L263.768 432.341L264.426 432.304L264.817 432.281L265.108 432.264L266.443 432.174C266.888 432.147 267.333 432.112 267.778 432.077L268.986 431.983L269.839 431.911L270.771 431.826C271.728 431.737 272.683 431.642 273.632 431.543C274.239 431.476 274.841 431.409 275.445 431.337L276.506 431.21C265.321 405.976 271.111 382.408 293.978 359.561C309.049 344.503 319.063 322.295 321.151 317.422C325.36 302.991 336.485 286.943 354.986 286.943C356.55 286.946 358.111 287.067 359.655 287.314C367.747 288.586 374.83 293.25 379.889 300.266C385.351 293.476 390.654 288.077 395.452 285.029C402.684 280.442 409.909 278.118 416.937 278.118C424.683 278.118 431.707 280.927 437.009 286.078C437.3 284.78 437.581 283.483 437.85 282.18C438.014 281.367 438.175 280.551 438.334 279.734C438.528 278.729 438.712 277.72 438.881 276.71C438.926 276.437 438.973 276.164 439.026 275.888C439.108 275.457 439.18 275.032 439.247 274.6L439.274 274.436L439.451 273.31L439.625 272.168L439.627 272.156C439.697 271.679 439.769 271.199 439.834 270.719C439.886 270.356 439.936 269.993 439.983 269.628L440.013 269.419L440.167 268.23L440.294 267.219C440.371 266.552 440.445 265.886 440.517 265.217C440.55 264.951 440.577 264.683 440.604 264.414L440.629 264.198C440.676 263.753 440.719 263.311 440.758 262.866L440.858 261.831C441.064 259.539 441.231 257.247 441.36 254.95V254.935L441.427 253.717L441.44 253.443L441.489 252.287C441.509 251.852 441.527 251.412 441.542 250.967V250.935L441.554 250.614C441.566 250.341 441.576 250.067 441.576 249.796L441.581 249.684C441.591 249.431 441.601 249.167 441.601 248.906L441.609 248.682C441.616 248.421 441.624 248.163 441.624 247.902L441.629 247.681C441.636 247.347 441.643 247.017 441.643 246.684L441.661 245.456ZM206.553 433.676C221.472 411.794 220.415 395.366 199.943 374.905C179.47 354.445 167.549 324.513 167.549 324.513C167.549 324.513 163.102 307.13 152.958 308.729C142.815 310.325 135.374 336.299 156.61 352.185C177.847 368.084 152.387 378.861 144.212 363.944C136.036 349.023 113.733 310.668 102.148 303.334C90.578 295.997 82.4411 300.109 85.1683 315.23C86.5232 322.735 99.1226 335.543 110.899 347.499C122.842 359.643 133.933 370.918 131.563 374.895C126.857 382.821 110.283 365.585 110.283 365.585C110.283 365.585 58.3734 318.35 47.0866 330.656C36.6725 342 52.7325 351.643 77.4913 366.505C79.597 367.77 81.7648 369.073 83.9849 370.415C112.301 387.559 114.514 392.082 110.486 398.558C109.002 400.954 99.5228 395.264 87.8632 388.263C67.987 376.33 41.7714 360.593 38.0672 374.679C34.8626 386.868 54.1446 394.336 71.6291 401.106C86.1975 406.749 99.5228 411.91 97.5588 418.916C95.5277 426.178 84.5169 420.122 72.4744 413.499C58.9626 406.063 44.158 397.916 39.3102 407.11C30.1515 424.487 102.481 444.948 103.078 445.097C126.447 451.158 185.79 464.001 206.548 433.604L206.553 433.676ZM302.665 433.676C287.743 411.794 288.802 395.366 309.275 374.905C329.748 354.445 341.669 324.513 341.669 324.513C341.669 324.513 346.114 307.13 356.257 308.729C366.4 310.325 373.843 336.299 352.605 352.185C331.366 368.071 356.829 378.861 365.005 363.944C373.18 349.023 395.485 310.668 407.045 303.334C418.605 296 426.754 300.109 424.027 315.23C422.672 322.735 410.073 335.546 398.296 347.524C386.356 359.666 375.265 370.94 377.635 374.92C382.338 382.846 398.928 365.6 398.928 365.6C398.928 365.6 450.837 318.365 462.124 330.671C472.538 342.015 456.475 351.661 431.719 366.52C429.613 367.783 427.448 369.083 425.228 370.428C396.912 387.569 394.699 392.094 398.726 398.57C400.211 400.967 409.69 395.276 421.347 388.278C441.226 376.345 467.439 360.608 471.143 374.691C474.348 386.881 455.066 394.351 437.581 401.118C423.013 406.762 409.688 411.92 411.651 418.929C413.683 426.19 424.688 420.132 436.711 413.509C450.223 406.073 465.027 397.924 469.875 407.12C479.034 424.51 406.704 444.958 406.108 445.107C382.738 451.185 323.396 464.028 302.662 433.631L302.665 433.676Z" fill="#FFD21E"/>
<path d="M314.623 192.95C317.559 193.989 319.744 197.154 321.822 200.162C324.632 204.232 327.247 208.015 331.259 205.882C335.995 203.366 339.876 199.503 342.414 194.78C344.953 190.056 346.032 184.689 345.517 179.351C345.134 175.361 343.871 171.505 341.818 168.062C339.764 164.618 336.972 161.673 333.646 159.438C330.317 157.203 326.533 155.736 322.571 155.139C318.605 154.543 314.558 154.833 310.72 155.99C305.586 157.536 301.026 160.569 297.615 164.706C294.207 168.843 292.099 173.897 291.559 179.229C291.022 184.564 292.079 189.939 294.595 194.673C296.454 198.171 300.581 196.522 304.937 194.78C308.353 193.415 311.908 191.993 314.623 192.95ZM186.888 192.952C183.952 193.991 181.765 197.156 179.686 200.164C176.877 204.232 174.262 208.018 170.249 205.885C166.711 204.003 163.636 201.358 161.242 198.143C158.848 194.929 157.197 191.224 156.407 187.294C155.616 183.366 155.706 179.309 156.67 175.42C157.637 171.53 159.452 167.903 161.985 164.797C164.524 161.695 167.716 159.194 171.335 157.471C174.955 155.748 178.913 154.853 182.921 154.843C186.928 154.835 190.888 155.714 194.516 157.419C198.143 159.124 201.347 161.613 203.898 164.703C207.309 168.84 209.417 173.894 209.957 179.229C210.494 184.564 209.437 189.939 206.919 194.673C205.054 198.171 200.927 196.52 196.572 194.777C193.158 193.412 189.603 191.993 186.888 192.952ZM294.858 309.176C315.102 293.225 322.528 267.186 322.528 251.151C322.528 238.472 313.996 242.462 300.34 249.222L299.572 249.605C287.035 255.813 270.336 264.076 252.038 264.076C233.718 264.076 217.034 255.81 204.505 249.602C190.406 242.619 181.563 238.239 181.563 251.154C181.563 267.698 189.474 294.859 211.197 310.645C214.061 304.828 218.093 299.664 223.046 295.478C227.996 291.291 233.758 288.174 239.971 286.317C242.139 285.67 244.371 289.402 246.658 293.22C248.864 296.907 251.116 300.676 253.411 300.676C255.852 300.676 258.253 296.962 260.598 293.335C263.047 289.546 265.433 285.852 267.743 286.59C279.368 290.322 289.091 298.414 294.866 309.169L294.858 309.176Z" fill="#32343D"/>
<path d="M294.734 309.248C284.191 317.557 270.177 323.128 251.924 323.128C234.778 323.128 221.37 318.21 211.078 310.725C213.944 304.91 217.979 299.746 222.929 295.562C227.879 291.376 233.641 288.256 239.852 286.396C244.11 285.126 248.62 300.756 253.289 300.756C258.288 300.756 263.104 285.225 267.624 286.67C279.243 290.404 288.964 298.496 294.747 309.248H294.734Z" fill="#FF323D"/>
<path d="M138.435 215.523C136.511 216.819 134.35 217.721 132.078 218.178C129.805 218.636 127.464 218.641 125.189 218.193C122.914 217.743 120.749 216.851 118.82 215.566C116.891 214.278 115.235 212.625 113.947 210.695C112.658 208.769 111.763 206.603 111.312 204.331C110.861 202.056 110.864 199.714 111.319 197.44C111.775 195.167 112.675 193.007 113.967 191.08C115.26 189.156 116.92 187.505 118.852 186.222C122.738 183.644 127.489 182.71 132.061 183.627C136.632 184.544 140.657 187.237 143.248 191.113C145.838 194.991 146.788 199.737 145.886 204.311C144.983 208.888 142.303 212.92 138.435 215.523ZM390.522 215.523C388.598 216.819 386.438 217.721 384.165 218.178C381.893 218.636 379.551 218.641 377.277 218.193C375.002 217.743 372.836 216.851 370.907 215.566C368.978 214.278 367.322 212.625 366.035 210.695C364.744 208.769 363.849 206.603 363.399 204.331C362.949 202.056 362.952 199.714 363.407 197.44C363.862 195.167 364.762 193.007 366.054 191.08C367.347 189.156 369.008 187.505 370.94 186.222C374.825 183.644 379.576 182.71 384.148 183.627C388.72 184.544 392.742 187.237 395.335 191.113C397.926 194.991 398.876 199.737 397.973 204.311C397.071 208.888 394.391 212.92 390.522 215.523Z" fill="#FFAD03"/>
</svg>
