<svg width="512" height="512" viewBox="0 0 512 512" fill="none" xmlns="http://www.w3.org/2000/svg">
<g clip-path="url(#clip0_706_813)">
<path d="M100.379 340.384L201.018 283.912L202.702 278.99L201.018 276.27H196.096L179.258 275.234L121.751 273.68L71.8846 271.607L23.573 269.017L11.3979 266.426L0 251.402L1.1657 243.89L11.3979 237.025L26.0339 238.32L58.4144 240.522L106.985 243.89L142.215 245.962L194.412 251.402H202.702L203.867 248.034L201.018 245.962L198.816 243.89L148.562 209.825L94.1624 173.818L65.6676 153.095L50.2545 142.604L42.4832 132.76L39.1156 111.259L53.104 95.8462L71.8846 97.1414L76.677 98.4366L95.7167 113.073L136.387 144.546L189.49 183.662L197.262 190.138L200.37 187.936L200.759 186.382L197.262 180.553L168.378 128.356L137.552 75.2522L123.823 53.2335L120.196 40.0223C118.901 34.5823 117.994 30.0491 117.994 24.4796L133.926 2.84948L142.733 0L163.975 2.84948L172.912 10.6208L186.123 40.7994L207.494 88.3339L240.652 152.965L250.366 172.135L255.547 189.879L257.489 195.319H260.857V192.21L263.577 155.815L268.628 111.13L273.55 53.6221L275.234 37.4318L283.264 18.0035L299.196 7.51227L311.63 13.4703L321.862 28.1062L320.437 37.5613L314.35 77.0655L302.434 138.977L294.662 180.424H299.196L304.376 175.243L325.359 147.396L360.589 103.358L376.132 85.873L394.265 66.5742L405.922 57.3782H427.94L444.131 81.4693L436.877 106.337L414.211 135.091L395.43 159.441L368.49 195.708L351.652 224.72L353.206 227.052L357.221 226.663L418.097 213.711L450.995 207.753L490.24 201.018L507.985 209.307L509.928 217.726L502.933 234.953L460.968 245.314L411.75 255.158L338.441 272.514L337.534 273.162L338.57 274.457L371.598 277.565L385.716 278.342H420.298L484.671 283.135L501.509 294.274L511.611 307.874L509.928 318.235L484.023 331.446L449.052 323.157L367.454 303.729L339.477 296.735H335.591V299.066L358.905 321.862L401.647 360.459L455.14 410.196L457.86 422.5L450.995 432.215L443.742 431.178L396.725 395.819L378.592 379.888L337.534 345.305H334.814V348.932L344.269 362.791L394.265 437.913L396.855 460.968L393.228 468.481L380.276 473.014L366.029 470.423L336.757 429.365L306.578 383.126L282.228 341.679L279.249 343.362L264.872 498.141L258.137 506.042L242.594 512L229.642 502.156L222.778 486.225L229.642 454.751L237.932 413.693L244.667 381.053L250.754 340.513L254.381 327.043L254.122 326.136L251.143 326.525L220.576 368.49L174.077 431.308L137.293 470.682L128.486 474.18L113.202 466.279L114.627 452.161L123.175 439.597L174.077 374.836L204.774 334.685L224.591 311.5L224.461 308.133H223.296L88.0749 395.948L63.9838 399.057L53.6221 389.343L54.9173 373.412L59.8391 368.231L100.509 340.254L100.379 340.384Z" fill="#D97757"/>
</g>
<defs>
<clipPath id="clip0_706_813">
<rect width="512" height="512" fill="white"/>
</clipPath>
</defs>
</svg>
