<svg width="512" height="512" viewBox="0 0 512 512" fill="none" xmlns="http://www.w3.org/2000/svg">
<path d="M481.72 368.784C483.045 372.222 481.958 375.1 479.022 377.463C451.513 399.606 422.64 419.691 391.211 435.945L364.971 449.495C370.385 453.819 376.494 455.034 382.978 454.792C390.077 454.526 396.025 451.267 401.52 447.076C408.083 442.068 414.292 436.528 421.189 432.039C437.889 421.168 455.888 422.151 471.686 434.408C478.395 439.615 484.563 445.563 491.525 450.384C494.892 452.715 499.202 453.985 503.334 454.898L504.249 455.095C509.262 456.151 512.31 458.677 511.975 463.006C511.643 467.302 508.24 469.812 503.1 469.48C492.21 468.777 483.673 463.158 475.673 456.368C470.678 452.128 465.852 447.608 460.462 443.931C450.465 437.112 439.856 436.913 429.671 443.459C423.667 447.317 418.21 452.037 412.592 456.477C403.538 463.632 393.766 468.901 381.844 469.08C368.768 469.277 358.245 463.411 348.604 455.348C345.156 452.465 341.741 449.538 338.228 446.736C325.055 436.228 311.561 436.233 298.342 446.743C296.802 447.968 295.278 449.213 293.757 450.463L290.718 452.965C288.183 455.047 285.636 457.112 283.021 459.089C266.84 471.318 248.31 471.901 231.543 460.45C225.443 456.284 219.882 451.327 214.064 446.745C200.844 436.333 189.872 436.365 176.416 446.7L175.316 447.548L172.016 450.098C167.614 453.497 163.186 456.867 158.537 459.89C141.015 471.282 123.182 470.806 105.769 459.795C98.5628 455.239 91.9838 449.692 85.1581 444.533L84.1323 443.762C81.4082 441.728 78.7168 439.645 75.9197 437.715C72.0183 435.023 67.8194 434.269 63.5957 436.834C56.1321 441.366 48.7561 446.041 41.364 450.689C34.3781 455.081 27.6279 459.909 20.3634 463.773C16.4285 465.867 11.6993 466.84 7.21303 467.414C3.03816 467.946 0.165925 464.845 0.00692402 460.935C-0.149793 457.082 2.36638 454.661 6.27625 453.55L6.50336 453.488C10.6607 452.376 14.9414 450.965 18.5473 448.697C28.7227 442.301 38.5815 435.4 48.5548 428.683C48.837 428.493 49.0019 428.13 49.3403 427.695L43.1491 415.989C41.083 412.081 39.018 408.168 36.9645 404.249C33.3621 397.372 35.7063 392.76 43.4383 392.207C64.2835 390.718 85.144 389.44 105.999 388.098L226.04 380.393C254.414 378.568 282.785 376.725 311.158 374.894C351.171 372.312 391.184 369.734 431.197 367.155C441.836 366.47 452.477 365.801 463.116 365.106L473.754 364.401C477.419 364.153 480.361 365.26 481.72 368.784ZM451.279 380.941L450.923 380.068L53.7084 405.642L54.6891 407.473C57.2645 412.298 59.5433 416.655 62.0348 420.887C62.2645 421.277 63.0675 421.356 63.9091 421.384L64.7691 421.406C64.8571 421.408 64.9435 421.411 65.0274 421.415L65.271 421.429C68.7231 421.685 72.4968 421.076 75.5616 422.286C80.4549 424.217 85.1294 426.984 89.4436 430.038C97.1639 435.503 104.305 441.801 112.123 447.11C126.014 456.542 139.096 456.262 152.761 446.697C158.529 442.661 163.998 438.203 169.711 434.086C187.576 421.216 204.5 421.483 221.939 434.92C227.035 438.847 231.892 443.084 236.979 447.023C249.734 456.898 262.675 456.933 275.366 447.124C279.592 443.857 283.617 440.33 287.764 436.96C306.575 421.677 325.645 420.204 344.143 433.833L344.703 434.251C350.624 438.714 355.03 438.489 360.93 435.548L363.802 434.112C390.116 420.918 415.931 406.899 439.767 389.475C443.623 386.656 447.442 383.787 451.279 380.941ZM82.436 44.3504C125.428 63.7463 164.036 89.8378 199.125 121.198C242.788 160.222 277.198 206.302 302.614 259.005C315.991 286.745 326.395 315.556 331.173 346.147L331.403 347.648L331.75 350.043C331.756 355.963 327.014 359.442 322.071 357.445C297.526 347.527 272.183 340.648 245.993 336.72C211.381 331.528 177.206 332.819 143.557 342.951C121.243 349.67 100.018 358.835 80.2931 371.34C76.6514 373.65 72.7902 373.247 70.4124 370.421C67.9428 367.485 67.9465 363.944 70.799 360.846C91.4064 338.472 103.396 311.603 111.346 282.71C119.113 254.48 121.948 225.634 120.209 196.451C118.902 174.516 113.641 153.292 106.757 132.457C97.8525 105.504 86.2958 79.7391 72.3628 55.0239C70.0864 50.9854 70.1287 47.839 72.4299 45.2541C74.812 42.5788 77.8797 42.2943 82.436 44.3504ZM214.976 94.7333C218.963 95.8959 224.332 97.0432 229.383 99.0088C249.55 106.858 266.924 119.312 283.476 132.918C310.375 155.03 335.007 179.487 357.033 206.461C372.364 225.236 384.941 245.887 396.407 267.205C409.408 291.378 420.603 316.368 430.107 342.112L430.768 343.91C431.018 344.594 431.276 345.275 431.508 345.966C432.508 348.942 432.384 351.821 430.052 354.096C427.671 356.418 424.817 356.571 421.803 355.393L421.592 355.308C417.272 353.533 412.893 351.894 408.581 350.101L406.737 349.322C394.606 344.115 382.138 343.073 369.298 345.991C368.114 346.26 366.913 346.463 365.713 346.648C360.95 347.382 357.976 345.52 356.675 340.906C344.169 296.536 326.536 254.285 304.214 213.974L303.097 211.967C288.707 186.251 272.23 162.07 250.818 141.524C238.176 129.393 224.872 118.082 210.178 108.475C206.774 106.249 205.498 103.16 206.619 99.7885C207.723 96.4714 210.297 95.1695 214.976 94.7333ZM95.2903 66.5777C95.3318 67.7002 95.6323 68.5769 96.0401 69.3996C105.384 88.2449 113.509 107.601 120.108 127.575C126.368 146.524 131.17 165.837 133.469 185.695C136.043 207.925 134.984 230.095 131.934 252.205C127.919 281.32 119.844 309.168 105.916 335.178L104.297 338.209C103.485 339.729 102.67 341.26 101.841 342.814C102.355 342.952 102.615 343.119 102.783 343.053C104.25 342.473 105.709 341.873 107.153 341.24C136.714 328.264 167.516 320.428 199.867 319.623C236.808 318.703 272.588 325.362 307.529 336.962L309.913 337.754C311.642 338.321 313.486 338.906 315.874 339.68C301.72 277.723 272.378 224.47 232.829 176.566C194.704 130.386 148.332 94.3023 95.2903 66.5777ZM270.818 141.696L271.286 142.225L272.215 143.262C272.575 143.666 272.902 144.047 273.208 144.444C275.376 147.253 277.592 150.031 279.819 152.803L283.456 157.326C288.92 164.135 294.315 170.989 299.06 178.267C329.07 224.295 351.137 274.064 367.225 326.514L367.71 328.104C368.546 330.851 369.694 331.622 372.371 331.218L372.556 331.188C384.59 329.184 396.351 330.225 407.757 334.618L408.346 334.848C409.436 335.28 410.601 335.521 412.713 336.137C397.262 297.588 379.002 261.705 355.896 228.255C335.915 199.329 282.414 147.975 270.818 141.696Z" fill="#1A222D"/>
</svg>
