<svg width="36" height="37" viewBox="0 0 36 37" fill="none" xmlns="http://www.w3.org/2000/svg">
<g clip-path="url(#clip0_202_15877)">
<path d="M15.4373 0.56708C14.7828 1.1268 14.3178 1.78129 14.3178 3.73589C14.3178 9.05474 21.0315 25.032 25.6041 25.032C26.1177 25.039 26.6292 24.9661 27.1204 24.8158L27.1107 24.8185L26.9939 25.006C23.0476 31.2961 18.298 35.9104 15.424 36.003L15.3366 36.0044C9.09372 36.0044 0.23291 17.1574 0.23291 8.8652C0.23291 7.55918 0.52906 6.5345 0.979208 5.89778C3.1263 3.27389 9.84002 1.21861 15.4373 0.56708ZM24.2033 0.00439453C29.9841 0.00439453 35.7709 0.937267 35.7709 4.20084C35.7709 10.8228 31.5715 18.8484 29.4274 18.8484C25.6041 18.8484 20.839 8.21367 20.839 2.89482C20.839 0.46935 21.7689 0.00439453 24.1944 0.00439453H24.2033Z" fill="#F49700"/>
</g>
<defs>
<clipPath id="clip0_202_15877">
<rect width="36" height="37" fill="white"/>
</clipPath>
</defs>
</svg>
