<svg width="37" height="36" viewBox="0 0 37 36" fill="none" xmlns="http://www.w3.org/2000/svg">
<g clip-path="url(#clip0_202_10964)">
<path d="M33.2855 0H2.72691C1.2239 0 0.00219727 1.22143 0.00219727 2.72411V33.2679C0.00219727 34.7786 1.2239 36 2.72691 36H33.2774C34.7805 36 36.0022 34.7786 36.0022 33.2759V2.72411C36.0102 1.22143 34.7885 0 33.2855 0ZM19.0993 28.8563C13.1033 29.4589 7.75035 25.0875 7.14753 19.0929H14.7349V20.7321C14.7349 21.0295 14.9761 21.2786 15.2815 21.2786H20.7389C21.0363 21.2786 21.2855 21.0375 21.2855 20.7321V15.2759C21.2855 14.9786 21.0444 14.7295 20.7389 14.7295H15.2815C14.9841 14.7295 14.7349 14.9705 14.7349 15.2759V16.9152H7.14753C7.71016 11.3384 12.4041 7.09554 18.0062 7.09554C23.6083 7.09554 28.3022 11.3384 28.8649 16.9152C29.4677 22.9018 25.0953 28.2536 19.0993 28.8563Z" fill="black"/>
</g>
<defs>
<clipPath id="clip0_202_10964">
<rect width="37" height="36" fill="white"/>
</clipPath>
</defs>
</svg>
