<svg width="37" height="37" viewBox="0 0 37 37" fill="none" xmlns="http://www.w3.org/2000/svg">
<g clip-path="url(#clip0_202_15011)">
<path d="M36.002 18.0041C36.002 27.9446 27.9432 36.0036 18.002 36.0036C8.06065 36.0036 0.00195312 27.9446 0.00195312 18.0041C0.00195312 8.06295 8.06075 0.00415039 18.002 0.00415039C27.9433 0.00415039 36.002 8.06295 36.002 18.0041Z" fill="#DD4814"/>
<path d="M5.76258 15.6004C4.43468 15.6004 3.35889 16.6763 3.35889 18.0041C3.35889 19.3312 4.43468 20.407 5.76258 20.407C7.08973 20.407 8.16553 19.3312 8.16553 18.0041C8.16553 16.6763 7.08973 15.6004 5.76258 15.6004ZM22.9211 26.5228C21.7717 27.1867 21.3776 28.6557 22.0416 29.8045C22.7047 30.954 24.1737 31.348 25.3231 30.6841C26.4725 30.0209 26.8666 28.552 26.2027 27.4024C25.5396 26.2537 24.0698 25.8597 22.9211 26.5228ZM10.9826 18.0041C10.9826 15.6292 12.1622 13.531 13.9672 12.2605L12.2103 9.3178C10.1077 10.7233 8.54325 12.8709 7.89311 15.3863C8.65173 16.0053 9.13729 16.9477 9.13729 18.004C9.13729 19.0597 8.65173 20.002 7.89311 20.621C8.5424 23.1371 10.1068 25.2849 12.2103 26.6904L13.9672 23.7469C12.1622 22.4771 10.9826 20.3791 10.9826 18.0041ZM18.002 10.9839C21.6691 10.9839 24.6778 13.7956 24.9936 17.3814L28.4179 17.3309C28.2494 14.6837 27.093 12.3072 25.3161 10.5596C24.4023 10.9049 23.3468 10.8521 22.4345 10.3262C21.5207 9.79881 20.9477 8.90917 20.791 7.94344C19.9029 7.69833 18.9682 7.56414 18.0018 7.56414C16.3405 7.56414 14.7699 7.95434 13.3753 8.64459L15.0451 11.6369C15.9434 11.2189 16.9456 10.9839 18.002 10.9839ZM18.002 25.0235C16.9456 25.0235 15.9434 24.7884 15.0452 24.3705L13.3754 27.3627C14.77 28.0538 16.3406 28.4441 18.002 28.4441C18.9684 28.4441 19.9031 28.3098 20.7911 28.064C20.9478 27.0982 21.521 26.2095 22.4346 25.6811C23.3476 25.1544 24.4024 25.1025 25.3162 25.4478C27.0931 23.7003 28.2495 21.3238 28.418 18.6765L24.9928 18.6261C24.6778 22.2128 21.6692 25.0235 18.002 25.0235ZM22.9203 9.48385C24.0698 10.1476 25.5388 9.75447 26.202 8.60501C26.8659 7.45555 26.4727 5.98648 25.3231 5.32248C24.1737 4.65932 22.7047 5.05334 22.0406 6.2028C21.3776 7.35162 21.7716 8.8207 22.9203 9.48385Z" fill="white"/>
</g>
<defs>
<clipPath id="clip0_202_15011">
<rect width="37" height="37" fill="white"/>
</clipPath>
</defs>
</svg>
