<svg width="37" height="37" viewBox="0 0 37 37" fill="none" xmlns="http://www.w3.org/2000/svg">
<g clip-path="url(#clip0_202_12417)">
<path d="M33.6823 0.120524L23.2307 5.57859V22.8818C23.2307 23.5786 23.2307 24.3915 22.9984 25.0883C22.8823 25.785 22.65 26.4818 22.4178 27.0625C22.3017 27.1786 22.3017 27.4108 22.1855 27.527C21.8371 27.527 19.2823 26.7141 18.121 25.9012C17.6565 25.5528 17.192 25.2044 16.7275 24.7399C16.2629 24.2754 15.9146 23.8108 15.5662 23.3463C15.2178 22.8818 14.8694 22.3012 14.6371 21.7205C14.4049 21.1399 14.1726 20.5592 14.0565 19.8625C13.9404 19.2818 13.9404 18.585 13.9404 18.0044V1.39794L11.6178 0.00439453L0.00488281 6.85601V22.7657C0.00488281 30.0818 5.92746 36.0044 13.1275 36.0044C15.5662 36.0044 17.7726 35.4237 19.7468 34.2625L29.5017 28.6883C33.3339 26.7141 36.0049 22.6496 36.0049 18.1205V1.51407L33.6823 0.120524ZM20.792 30.4302C19.7468 31.4754 18.9339 32.056 17.7726 32.6367C17.0759 32.8689 16.2629 33.2173 15.5662 33.4496C14.8694 33.5657 14.1726 33.6818 13.4759 33.6818C12.7791 33.6818 11.6178 33.5657 10.921 33.4496C10.2242 33.3334 9.52746 33.1012 8.94682 32.8689C8.36617 32.6367 7.6694 32.2883 7.08875 31.8237C5.57908 30.7786 4.8823 29.8496 4.18553 28.9205C3.83714 28.3399 3.48875 27.7592 3.14037 27.0625C2.90811 26.3657 2.67585 25.785 2.55972 25.0883C2.32746 24.2754 2.32746 23.4625 2.32746 22.7657V8.24956L11.6178 2.79149V18.0044C11.6178 23.8108 15.9146 28.5721 21.3726 29.7334C21.1404 29.9657 21.0242 30.1979 20.792 30.4302ZM33.5662 19.9786C33.45 20.5592 33.2178 21.1399 32.9855 21.7205C32.7533 22.3012 32.2888 23.1141 31.8242 23.6947C31.1275 24.5076 30.4307 25.0883 28.6888 26.1334C27.1791 26.9463 25.9017 27.1786 25.0888 27.4108C25.6694 26.0173 25.6694 24.5076 25.6694 22.8818L25.5533 6.97214L33.6823 2.67536V18.1205C33.6823 18.7012 33.6823 19.3979 33.5662 19.9786Z" fill="#02B3E4"/>
</g>
<defs>
<clipPath id="clip0_202_12417">
<rect width="37" height="37" fill="white"/>
</clipPath>
</defs>
</svg>
