<svg width="37" height="30" viewBox="0 0 37 30" fill="none" xmlns="http://www.w3.org/2000/svg">
<g clip-path="url(#clip0_202_12665)">
<path d="M35.4006 17.0616C35.2742 16.9603 35.132 16.892 34.9774 16.8627C34.0637 17.7736 32.9487 18.7329 31.9586 19.3776C31.5018 19.6812 30.9272 19.833 30.5468 19.833C29.671 19.833 29.2906 18.998 29.1762 17.6707C29.024 15.888 28.9212 13.7527 28.9212 10.4525C28.9212 7.06772 28.153 4.76669 26.1066 4.58606C26.0201 4.57838 25.9327 4.57309 25.8414 4.57309C24.5852 4.57309 23.9761 5.21777 23.1767 6.84915C22.4917 8.25235 21.4257 10.3007 19.4466 14.1697C17.7335 17.5079 15.8302 20.4666 14.1931 22.5149C13.7372 23.0827 13.3769 23.4728 13.0382 23.6948C12.812 23.8437 12.5948 23.9181 12.3662 23.9181C11.7201 23.9181 11.2483 23.3729 11.0908 22.1032C11.0533 21.8016 11.0336 21.4591 11.0336 21.0733C11.0336 18.4562 12.0237 14.2077 13.7362 7.94875C14.9924 3.39711 14.4597 0.287109 11.7186 0.287109C11.7143 0.287109 11.71 0.287109 11.7056 0.287109C11.6999 0.287109 11.6941 0.287109 11.6879 0.287109L11.686 0.28759C11.0653 0.294796 10.5508 0.519615 10.0551 0.909686C9.56698 1.29399 9.07843 2.1241 8.62255 3.24003C8.10854 4.49719 4.98316 10.7662 0.00879126 13.9958C-0.0498155 15.2237 0.645299 16.4511 2.05378 16.5841C3.33593 16.7057 4.24625 16.1652 5.41839 15.3779C5.33048 15.7694 5.2493 16.1354 5.17532 16.4703C5.08789 16.8656 5.01343 17.2067 4.95386 17.482C4.86451 17.8917 4.80782 18.1555 4.79101 18.2285C4.62816 18.9755 4.51191 19.685 4.43649 20.3585C3.73513 26.628 6.64097 29.7216 10.044 29.7216C10.6128 29.7216 11.1763 29.6539 11.7359 29.5117C15.4853 28.561 19.0949 24.2602 23.3674 14.3595C23.3026 15.4365 23.2959 16.4424 23.3425 17.3758C23.624 23.0501 25.8683 24.7526 29.0393 24.7526C31.4374 24.7526 33.6832 23.5012 34.8251 21.9457C35.6629 20.8456 36.0054 19.6317 36.0054 18.6834C36.0054 17.9474 35.7719 17.3599 35.4006 17.0616Z" fill="#EA5252"/>
</g>
<defs>
<clipPath id="clip0_202_12665">
<rect width="37" height="30" fill="white"/>
</clipPath>
</defs>
</svg>
