<svg width="28" height="37" viewBox="0 0 28 37" fill="none" xmlns="http://www.w3.org/2000/svg">
<g clip-path="url(#clip0_202_11981)">
<path d="M13.1583 2.14162C19.6986 0.986305 25.4752 0.0268054 25.9843 0.00722374C26.7088 -0.0123579 26.9634 0.0659686 27.12 0.359693C27.3354 0.770907 27.4137 24.1709 27.1983 24.7388C26.885 25.5417 26.2976 24.8563 22.4204 19.2364C20.2077 16.0446 17.5642 12.2849 16.5264 10.8554C14.7836 8.46649 14.6661 8.23151 14.7444 7.50699L14.8423 6.7433L14.3724 7.13494C14.1178 7.35033 13.8437 7.60489 13.7849 7.7028C13.7066 7.80071 13.4912 7.82029 13.315 7.74197C13.0212 7.64406 13.0017 7.44824 13.08 6.58665C13.1387 6.03836 13.2562 5.31384 13.3345 5.00054C13.4325 4.56974 13.4129 4.45225 13.1975 4.53058C13.0408 4.58932 12.845 5.13761 12.7275 5.86213C12.61 6.60623 12.4142 7.13494 12.2576 7.19368C11.9834 7.29159 11.9834 7.13494 12.3555 5.09845C12.4534 4.58932 12.4338 4.45225 12.2184 4.53058C12.0617 4.58932 11.8855 5.02012 11.8268 5.58799C11.6505 7.05661 11.5135 7.29159 10.6714 7.68322C10.084 7.95736 9.51613 8.56439 8.36081 10.1309C5.63897 13.8319 4.75779 15.2417 4.83612 15.79C4.93403 16.5537 5.46273 16.8083 6.10892 16.3775C7.38173 15.5746 9.26157 14.713 10.084 14.5955C10.5735 14.5172 11.4351 14.1843 12.0226 13.871C12.8646 13.4011 13.1191 13.3227 13.2366 13.5381C14.3136 15.183 16.2718 19.4909 17.8579 23.6814C19.0132 26.7557 21.8917 35.8416 21.7351 35.9787C21.6959 36.0178 21.4413 36.0178 21.1868 35.9395C20.7756 35.8416 20.5602 35.4108 19.6007 32.7477C18.9741 31.0441 18.3279 29.4972 18.1712 29.3013C17.8775 28.988 17.2117 28.9684 9.49655 28.9684C3.26959 28.9684 1.09603 28.9097 0.919794 28.7335C0.743559 28.5572 0.684814 25.6004 0.684814 16.6124C0.684814 6.60623 0.723978 4.70681 0.958957 4.511C1.11561 4.37393 6.59847 3.31652 13.1583 2.14162Z" fill="#FFBD2B"/>
</g>
<defs>
<clipPath id="clip0_202_11981">
<rect width="28" height="37" fill="white"/>
</clipPath>
</defs>
</svg>
