<svg width="37" height="37" viewBox="0 0 37 37" fill="none" xmlns="http://www.w3.org/2000/svg">
<g clip-path="url(#clip0_202_10251)">
<path d="M18.0022 0.00415039C27.9496 0.00415039 36.0022 8.05678 36.0022 18.0042C36.0022 27.9515 27.9496 36.0042 18.0022 36.0042C8.05483 36.0042 0.00219727 27.9515 0.00219727 18.0042C0.00219727 8.05678 8.05483 0.00415039 18.0022 0.00415039ZM22.1977 5.95904C21.4533 5.7222 20.6413 6.02671 20.2353 6.66956C19.5248 6.53423 18.8142 6.46656 18.0699 6.46656C11.6751 6.46656 6.53227 11.6432 6.53227 18.0042C6.53227 22.4703 9.06987 26.3613 12.7917 28.256C12.6902 29.0004 13.1639 29.7448 13.9082 30.0154C14.0774 30.0831 14.2804 30.1169 14.4496 30.1169C14.7202 30.1169 14.9909 30.0493 15.2278 29.9139C15.4984 29.7786 15.7014 29.5756 15.8706 29.3049C15.9383 29.2034 16.006 29.1019 16.0398 28.9666L17.3593 25.0756L21.9608 11.9816L23.2804 8.09062C23.3142 7.98911 23.3481 7.85377 23.3481 7.71844C23.3819 7.34626 23.2804 7.00791 23.1112 6.7034C22.9082 6.36505 22.6037 6.09438 22.1977 5.95904ZM25.4796 9.24099L23.8894 14.0455C24.6676 15.162 25.1075 16.5493 25.1075 18.0042C25.1075 21.1169 23.1451 23.7222 20.4045 24.7034L18.8142 29.5079C24.8029 29.0681 29.506 24.0944 29.5398 18.0042C29.5398 14.4854 27.9496 11.3387 25.4796 9.24099ZM18.0022 10.8989C18.2052 10.8989 18.442 10.8989 18.6451 10.9327L14.1789 23.9929C12.2165 22.7072 10.8969 20.5079 10.8969 18.0042C10.8969 14.0793 14.0774 10.8989 18.0022 10.8989Z" fill="#303030"/>
</g>
<defs>
<clipPath id="clip0_202_10251">
<rect width="37" height="37" fill="white"/>
</clipPath>
</defs>
</svg>
