<svg width="40" height="24" viewBox="0 0 40 24" fill="none" xmlns="http://www.w3.org/2000/svg">
<g clip-path="url(#clip0_202_13950)">
<path d="M22.9516 19.7249C16.3882 19.7249 12.7265 16.1565 12.642 9.67665C12.6246 8.34306 12.7774 3.70275 13.069 1.87135C13.069 1.87135 15.9826 0.62854 16.0465 0.62854C16.0666 0.62854 18.663 2.4551 18.663 2.4551C18.5235 4.01807 18.4568 8.80025 18.4671 9.6004C18.518 13.4907 20.0584 15.4634 23.044 15.463L23.1315 15.4626C26.9543 15.4124 27.7147 12.2023 27.6793 9.51775C27.6726 8.97431 27.5193 3.67135 27.4052 2.50541L30.2569 0.665102L33.1718 1.94151C33.2847 3.04307 33.4565 8.66556 33.4666 9.44181C33.5527 15.9841 29.9019 19.6352 23.1877 19.7227C23.1082 19.7246 23.0298 19.7249 22.9516 19.7249Z" fill="#8F9495"/>
<path d="M36.6693 11.8829C36.6693 11.8829 37.3713 14.1488 38.4338 11.6827C39.4963 9.21663 38.958 5.70007 38.958 5.70007C38.958 5.70007 42.301 12.8104 37.0157 18.069C37.0157 18.069 35.843 19.4118 33.2988 20.1697C33.2988 20.1702 37.2841 16.8112 36.6693 11.8829Z" fill="#496B8C"/>
<path d="M7.86456 14.7301C14.1242 17.2187 17.2883 22.5315 26.6498 20.5342C36.0114 18.537 34.6384 9.0509 34.6384 9.0509C34.6384 9.0509 36.6978 13.825 33.5148 18.7865C30.7239 23.1374 22.1878 26.6504 11.2349 18.3498C11.2349 18.3498 4.86894 12.9825 0.000976569 15.7912C0.000820319 15.791 2.76238 12.7017 7.86456 14.7301Z" fill="#4A5D75"/>
<path d="M12.9414 15.863C12.582 15.2823 12.082 14.3904 11.8972 13.6516C11.8972 13.6516 9.58562 11.4638 6.65593 12.2463C5.16562 12.5198 4.20312 13.4909 4.20312 13.4909C6.68265 12.7538 7.62828 12.9416 10.0156 14.3024C12.0089 15.4388 14.4692 17.6444 12.9414 15.863Z" fill="#4B73A2"/>
</g>
<defs>
<clipPath id="clip0_202_13950">
<rect width="40.0008" height="24" fill="white"/>
</clipPath>
</defs>
</svg>
