<svg width="37" height="24" viewBox="0 0 37 24" fill="none" xmlns="http://www.w3.org/2000/svg">
<g clip-path="url(#clip0_202_9523)">
<path d="M7.05326 0.743652H16.0387C17.293 0.743652 18.0731 1.76601 17.7805 3.02445L13.5972 20.9853C13.3019 22.2393 12.0461 23.2626 10.7909 23.2626H1.80636C0.553829 23.2626 -0.228048 22.2393 0.0645537 20.9853L4.24967 3.02445C4.54228 1.76601 5.79744 0.743652 7.05326 0.743652Z" fill="#E21836"/>
<path d="M15.291 0.743652H25.624C26.8781 0.743652 26.3126 1.76601 26.0176 3.02445L21.8349 20.9853C21.5414 22.2393 21.6329 23.2626 20.3762 23.2626H10.0432C8.78651 23.2626 8.00879 22.2393 8.30402 20.9853L12.4865 3.02445C12.7835 1.76601 14.036 0.743652 15.291 0.743652Z" fill="#00447C"/>
<path d="M25.2141 0.743652H34.1996C35.4556 0.743652 36.2358 1.76601 35.9407 3.02445L31.758 20.9853C31.4628 22.2393 30.2061 23.2626 28.9503 23.2626H19.969C18.7123 23.2626 17.9328 22.2393 18.2272 20.9853L22.4106 3.02445C22.7032 1.76601 23.9574 0.743652 25.2141 0.743652Z" fill="#007B84"/>
<path d="M9.39987 6.49961C8.47586 6.50903 8.20297 6.49961 8.1158 6.47902C8.08229 6.63824 7.45876 9.51454 7.45701 9.51695C7.32275 10.0989 7.22507 10.5137 6.89327 10.7815C6.70492 10.9373 6.48503 11.0124 6.2301 11.0124C5.82032 11.0124 5.5816 10.8089 5.54152 10.423L5.53386 10.2905C5.53386 10.2905 5.65869 9.51104 5.65869 9.50666C5.65869 9.50666 6.3131 6.88551 6.43028 6.53903C6.43641 6.51932 6.43816 6.50903 6.43969 6.49961C5.16591 6.51078 4.94011 6.49961 4.92456 6.47902C4.91602 6.50727 4.88448 6.66978 4.88448 6.66978L4.21627 9.62405L4.15889 9.8746L4.04785 10.6941C4.04785 10.9373 4.0956 11.1357 4.19065 11.3034C4.49508 11.8354 5.36346 11.9151 5.85471 11.9151C6.48766 11.9151 7.0814 11.7807 7.48263 11.5352C8.17909 11.1236 8.36131 10.4804 8.52382 9.90877L8.59916 9.61551C8.59916 9.61551 9.27328 6.89317 9.38783 6.53903C9.39221 6.51932 9.39396 6.50903 9.39987 6.49961ZM11.6935 8.69574C11.531 8.69574 11.234 8.73516 10.9673 8.86591C10.8705 8.91563 10.7789 8.97301 10.6823 9.03017L10.7695 8.71545L10.7218 8.66245C10.1561 8.77699 10.0295 8.79232 9.50691 8.86591L9.4631 8.89504C9.40244 9.39811 9.34856 9.77635 9.12363 10.7652C9.038 11.1296 8.94908 11.4976 8.85994 11.8611L8.88403 11.9073C9.41952 11.8791 9.58203 11.8791 10.0474 11.8868L10.0851 11.8458C10.1442 11.5429 10.1519 11.4719 10.2829 10.8585C10.3444 10.5676 10.4728 9.92856 10.536 9.70101C10.6523 9.64713 10.7671 9.59413 10.8766 9.59413C11.1375 9.59413 11.1057 9.82169 11.0956 9.91236C11.0845 10.0646 10.9894 10.5617 10.8919 10.9886L10.8269 11.2641C10.7816 11.4676 10.7318 11.6653 10.6865 11.867L10.7062 11.9073C11.234 11.8791 11.395 11.8791 11.8457 11.8868L11.8987 11.8458C11.9802 11.3727 12.0041 11.2461 12.1486 10.5574L12.2214 10.2409C12.3626 9.62151 12.4336 9.30744 12.3267 9.05164C12.2137 8.76495 11.9425 8.69574 11.6935 8.69574ZM14.2558 9.34422C13.9753 9.39809 13.7963 9.43401 13.6185 9.45723C13.4422 9.48548 13.2703 9.5111 12.9991 9.54877L12.9776 9.56827L12.9579 9.58382C12.9297 9.78575 12.91 9.9603 12.8725 10.1655C12.8408 10.3777 12.7919 10.6189 12.7124 10.9653C12.6509 11.2306 12.6191 11.323 12.5841 11.4163C12.5499 11.5096 12.5122 11.6003 12.443 11.8611L12.4592 11.8852L12.4728 11.9073C12.7262 11.8953 12.892 11.8867 13.0624 11.8852C13.2326 11.8791 13.4089 11.8852 13.6818 11.8867L13.7056 11.8672L13.7313 11.8458C13.7707 11.6106 13.7766 11.5473 13.8007 11.4325C13.8246 11.3094 13.8657 11.139 13.9667 10.6839C14.0145 10.4702 14.0677 10.2571 14.1172 10.0389C14.1686 9.82166 14.2225 9.60769 14.2738 9.39393L14.2661 9.36809L14.2558 9.34422ZM14.2618 8.46987C14.0069 8.31941 13.5594 8.36715 13.2583 8.575C12.958 8.77868 12.9238 9.06778 13.1779 9.22021C13.4284 9.36651 13.8776 9.32293 14.1762 9.11333C14.4758 8.90527 14.5132 8.6188 14.2618 8.46987ZM15.8035 11.9545C16.3193 11.9545 16.848 11.8123 17.2459 11.3905C17.5521 11.0484 17.6925 10.5394 17.7411 10.3298C17.8995 9.63513 17.7762 9.31077 17.6213 9.11322C17.3861 8.81208 16.9704 8.71549 16.5392 8.71549C16.2799 8.71549 15.6623 8.74112 15.1798 9.18593C14.8333 9.50679 14.6732 9.94219 14.5766 10.3596C14.4792 10.7849 14.367 11.5506 15.0712 11.8356C15.2884 11.9289 15.6016 11.9545 15.8035 11.9545ZM15.7632 10.3914C15.8822 9.86531 16.0225 9.42378 16.3808 9.42378C16.6616 9.42378 16.682 9.7523 16.5572 10.2801C16.5348 10.3973 16.4323 10.8329 16.2937 11.0184C16.1969 11.1553 16.0823 11.2383 15.9557 11.2383C15.9181 11.2383 15.694 11.2383 15.6905 10.9056C15.6888 10.7414 15.7223 10.5736 15.7632 10.3914ZM19.0305 11.8868L19.0708 11.8459C19.1279 11.543 19.1373 11.4718 19.2639 10.8586C19.3272 10.5677 19.4582 9.92863 19.5197 9.70108C19.6363 9.64698 19.7491 9.59398 19.8621 9.59398C20.1212 9.59398 20.0896 9.82153 20.0793 9.9122C20.0699 10.0646 19.9749 10.5616 19.8756 10.9884L19.8141 11.264C19.767 11.4676 19.7158 11.6652 19.6704 11.8671L19.6901 11.9074C20.2197 11.8792 20.3746 11.8792 20.8279 11.8868L20.8827 11.8459C20.9622 11.3726 20.9836 11.246 21.1326 10.5574L21.2035 10.2407C21.3454 9.62135 21.4173 9.30751 21.3121 9.0517C21.1959 8.76501 20.923 8.69581 20.6774 8.69581C20.5147 8.69581 20.2162 8.73501 19.951 8.86598C19.8561 8.91569 19.7611 8.97286 19.6678 9.03024L19.7491 8.71552L19.7055 8.6623C19.14 8.77706 19.0108 8.79239 18.4889 8.86598L18.4488 8.89511C18.3855 9.39818 18.334 9.7762 18.1091 10.7653C18.0234 11.1297 17.9345 11.4976 17.8456 11.8612L17.8695 11.9074C18.4058 11.8792 18.5659 11.8792 19.0305 11.8868ZM22.9213 11.9073C22.9546 11.7448 23.1524 10.7816 23.1542 10.7816C23.1542 10.7816 23.3226 10.0748 23.3329 10.0492C23.3329 10.0492 23.3859 9.97561 23.4389 9.94648H23.5168C24.2525 9.94648 25.0832 9.94648 25.7344 9.4675C26.1774 9.13898 26.4803 8.65386 26.6154 8.06428C26.6505 7.91973 26.6763 7.74781 26.6763 7.57588C26.6763 7.35008 26.631 7.12669 26.5 6.95213C26.168 6.48761 25.5068 6.47907 24.7435 6.47556C24.7411 6.47556 24.3673 6.47906 24.3673 6.47906C23.3903 6.49111 22.9984 6.48761 22.8375 6.4679C22.8239 6.53907 22.7983 6.66566 22.7983 6.66566C22.7983 6.66566 22.4483 8.28767 22.4483 8.2903C22.4483 8.2903 21.6108 11.7389 21.5714 11.9014C22.4244 11.8911 22.7742 11.8911 22.9213 11.9073ZM23.5698 9.02597C23.5698 9.02597 23.9419 7.40724 23.9402 7.41337L23.9522 7.33037L23.9575 7.26707L24.1062 7.2824C24.1062 7.2824 24.8736 7.34833 24.8916 7.35008C25.1945 7.46725 25.3193 7.76927 25.2322 8.16349C25.1527 8.52377 24.919 8.82667 24.6187 8.97297C24.3714 9.09693 24.0685 9.10722 23.7564 9.10722H23.5545L23.5698 9.02597ZM25.8867 10.4214C25.7883 10.8406 25.6753 11.6062 26.3759 11.8791C26.5993 11.9742 26.7995 12.0024 27.003 11.9921C27.2178 11.9805 27.4169 11.8728 27.6013 11.7177C27.5847 11.7814 27.568 11.8452 27.5514 11.9091L27.5831 11.9501C28.0871 11.9288 28.2435 11.9288 28.7894 11.933L28.8389 11.8953C28.9187 11.4266 28.9938 10.9715 29.201 10.0749C29.3019 9.6454 29.4027 9.22008 29.5063 8.79235L29.4901 8.74526C28.9263 8.84973 28.7757 8.87207 28.2334 8.94894L28.1922 8.98245C28.1867 9.02603 28.181 9.06787 28.1758 9.1097C28.0915 8.97347 27.9692 8.85717 27.7807 8.78468C27.5395 8.68985 26.9732 8.81206 26.4863 9.25534C26.1442 9.57181 25.98 10.0055 25.8867 10.4214ZM27.0706 10.447C27.1913 9.93034 27.3299 9.49319 27.6891 9.49319C27.9162 9.49319 28.0358 9.70278 28.0115 10.0602C27.9922 10.1494 27.9714 10.2433 27.9467 10.3495C27.9108 10.5031 27.8718 10.6553 27.8339 10.8077C27.7954 10.912 27.7505 11.0103 27.7012 11.0758C27.6088 11.2067 27.3889 11.288 27.2623 11.288C27.2264 11.288 27.0047 11.288 26.997 10.9612C26.9953 10.7985 27.0288 10.631 27.0706 10.447ZM33.2535 8.74108L33.2099 8.69136C32.6521 8.80437 32.5511 8.82233 32.0386 8.89154L32.0009 8.92921C31.9992 8.93534 31.9977 8.94476 31.995 8.9533L31.9933 8.94476C31.6118 9.82497 31.6229 9.63509 31.3124 10.328C31.3106 10.2965 31.3106 10.2768 31.3089 10.2433L31.2311 8.74108L31.1823 8.69136C30.5979 8.80437 30.5842 8.82233 30.0445 8.89154L30.0025 8.92921C29.9965 8.94717 29.9965 8.96688 29.993 8.98834L29.9965 8.99601C30.064 9.34073 30.0478 9.26386 30.1155 9.80789C30.147 10.0749 30.1891 10.3434 30.2206 10.6071C30.2738 11.0484 30.3036 11.2656 30.3686 11.9391C30.0042 12.5405 29.9179 12.7681 29.5671 13.2959L29.5695 13.3011L29.3224 13.6919C29.2942 13.733 29.2685 13.7613 29.2326 13.7733C29.1932 13.7928 29.142 13.7963 29.0708 13.7963H28.9339L28.7304 14.4731L29.4284 14.4851C29.8382 14.4834 30.0958 14.2917 30.2344 14.0342L30.6733 13.2821H30.6663L30.7125 13.2291C31.0077 12.5935 33.2535 8.74108 33.2535 8.74108ZM25.8866 17.6292H25.5905L26.6865 14.0043H27.05L27.1654 13.6309L27.1766 14.0461C27.163 14.3028 27.365 14.5304 27.8954 14.4927H28.5089L28.72 13.7947H28.4892C28.3564 13.7947 28.2949 13.7612 28.3026 13.6893L28.2914 13.2669H27.1554V13.2691C26.7881 13.2767 25.6913 13.3043 25.4692 13.3635C25.2005 13.4327 24.9173 13.6363 24.9173 13.6363L25.0285 13.2625H23.9659L23.7445 14.0043L22.6338 17.6846H22.4183L22.207 18.3775H24.3235L24.2526 18.6086H25.2955L25.3647 18.3775H25.6573L25.8866 17.6292ZM25.0182 14.7408C24.8481 14.7879 24.5314 14.9307 24.5314 14.9307L24.813 14.0043H25.6573L25.4536 14.6793C25.4536 14.6793 25.1928 14.6946 25.0182 14.7408ZM25.0344 16.0643C25.0344 16.0643 24.7692 16.0976 24.5947 16.137C24.4227 16.1892 24.1004 16.3534 24.1004 16.3534L24.3912 15.3893H25.2399L25.0344 16.0643ZM24.5614 17.6377H23.7145L23.96 16.8241H24.8043L24.5614 17.6377ZM26.601 15.3893H27.8217L27.6463 15.9574H26.4093L26.2236 16.5786H27.306L26.4864 17.7325C26.429 17.8173 26.3776 17.8473 26.3204 17.8712C26.263 17.9003 26.1877 17.9345 26.1005 17.9345H25.8003L25.5939 18.6147H26.3793C26.7876 18.6147 27.0287 18.429 27.2068 18.1852L27.7687 17.4161L27.8894 18.1971C27.915 18.3434 28.0202 18.429 28.0913 18.4623C28.17 18.5017 28.2512 18.5694 28.366 18.5795C28.4891 18.5847 28.578 18.5889 28.6371 18.5889H29.023L29.2547 17.8276H29.1025C29.0151 17.8276 28.8647 17.8129 28.8391 17.7855C28.8134 17.7523 28.8134 17.701 28.7996 17.623L28.6772 16.8403H28.1759L28.3958 16.5786H29.6304L29.8202 15.9574H28.6772L28.8553 15.3893H29.9948L30.2061 14.6887H26.8088L26.601 15.3893ZM16.2902 17.7959L16.5752 16.848H17.7462L17.9602 16.143H16.788L16.967 15.5596H18.1124L18.3246 14.8769H15.4586L15.2508 15.5596H15.9019L15.7282 16.143H15.0754L14.859 16.8601H15.5099L15.1301 18.1141C15.0789 18.2801 15.1542 18.3434 15.2019 18.4205C15.2508 18.4957 15.3003 18.5454 15.4115 18.5736C15.5263 18.5992 15.6049 18.6146 15.7118 18.6146H17.032L17.2672 17.8336L16.682 17.914C16.569 17.914 16.2561 17.9004 16.2902 17.7959ZM16.4245 13.2582L16.1278 13.7946C16.0643 13.9118 16.0071 13.9845 15.9556 14.018C15.9103 14.0462 15.8205 14.0581 15.6904 14.0581H15.5356L15.3286 14.7442H15.8428C16.0901 14.7442 16.28 14.6536 16.3707 14.6082C16.4681 14.5561 16.4937 14.5859 16.5691 14.5132L16.7428 14.3627H18.3486L18.5617 13.6483H17.3862L17.5914 13.2582H16.4245ZM18.7952 17.8097C18.7679 17.7703 18.7876 17.7008 18.8294 17.5563L19.2683 16.1036H20.8296C21.0572 16.1003 21.2215 16.0977 21.3283 16.09C21.4431 16.0779 21.5679 16.037 21.7039 15.9634C21.8443 15.8863 21.9162 15.8051 21.9768 15.7118C22.0445 15.6187 22.1531 15.415 22.2464 15.1009L22.7981 13.2625L21.1779 13.272C21.1779 13.272 20.679 13.3455 20.4593 13.4268C20.2376 13.5175 19.921 13.7706 19.921 13.7706L20.0673 13.2667H19.0664L17.6651 17.9139C17.6154 18.0944 17.5821 18.2254 17.5744 18.304C17.5718 18.3888 17.6813 18.4726 17.7523 18.5359C17.8362 18.5992 17.9601 18.5889 18.0791 18.5992C18.2041 18.6086 18.382 18.6146 18.6275 18.6146H19.3966L19.6327 17.8173L18.9442 17.8824C18.8706 17.8824 18.8173 17.843 18.7952 17.8097ZM19.5515 15.1224H21.1914L21.0872 15.4492C21.0725 15.4568 21.0375 15.433 20.8706 15.4527H19.4505L19.5515 15.1224ZM19.88 14.0265H21.5338L21.4148 14.42C21.4148 14.42 20.6354 14.4124 20.5105 14.4353C19.9613 14.5304 19.6404 14.8239 19.6404 14.8239L19.88 14.0265ZM21.1239 16.5434C21.1103 16.5923 21.0889 16.622 21.0589 16.6444C21.0256 16.6658 20.9717 16.6735 20.8913 16.6735H20.6576L20.6714 16.2756H19.6994L19.66 18.2211C19.6585 18.3614 19.6721 18.4427 19.7748 18.5077C19.8775 18.589 20.194 18.5993 20.62 18.5993H21.229L21.4489 17.8711L20.9187 17.9002L20.7424 17.9105C20.7183 17.9002 20.6953 17.8908 20.6697 17.8652C20.6473 17.843 20.6097 17.8566 20.6158 17.7162L20.62 17.2175L21.176 17.1945C21.4763 17.1945 21.6046 17.0969 21.7141 17.0038C21.8186 16.9146 21.8528 16.8121 21.8922 16.6735L21.9855 16.232H21.2214L21.1239 16.5434Z" fill="#FEFEFE"/>
</g>
<defs>
<clipPath id="clip0_202_9523">
<rect width="37" height="24" fill="white"/>
</clipPath>
</defs>
</svg>
