<svg width="36" height="37" viewBox="0 0 36 37" fill="none" xmlns="http://www.w3.org/2000/svg">
<g clip-path="url(#clip0_202_10763)">
<mask id="mask0_202_10763" style="mask-type:alpha" maskUnits="userSpaceOnUse" x="0" y="0" width="36" height="37">
<path d="M19.5812 0.00140381L19.2485 0.193356V2.92965L6.38556 10.3561V12.2422L5.28308 10.3561L0.830078 17.9745H3.99267V27.0014L19.5812 36.0014L35.1696 27.0014V9.00144L19.5812 0.00140381Z" fill="white"/>
</mask>
<g mask="url(#mask0_202_10763)">
<path d="M19.5812 0.00140381L19.2485 0.193356V2.92965L6.38556 10.3561V12.2422L5.28308 10.3561L0.830078 17.9745H3.99267V27.0014L19.5812 36.0014L35.1696 27.0014V9.00144L19.5812 0.00140381Z" fill="#A4D43A"/>
<path d="M5.60254 9.90391L19.5814 1.83319L33.5601 9.90391V26.0452L19.5814 34.1158L5.60254 26.0452V9.90391Z" fill="#62655D"/>
<path d="M19.5814 2.73749L6.38574 10.356V25.593L19.5814 33.2114V2.73749Z" fill="#3F4238"/>
<path d="M19.5812 0.00140381L19.2485 0.193356V2.96064L19.6348 2.73756L32.8303 10.3561V25.593L19.6348 33.2115L6.43922 25.593V17.9745H9.73621L5.28308 10.3561L0.830078 17.9745H3.99267V27.0014L19.5812 36.0014L35.1696 27.0014V9.00144L19.5812 0.00140381Z" fill="#A4D43A"/>
<path d="M11.3369 18.672L17.7392 15.9895C17.7392 15.9895 19.0929 20.571 19.778 21.3903C25.5366 12.5736 30.9732 10.517 30.9732 10.517V17.3844C30.9732 17.3844 25.5787 20.1312 19.2414 27.1131C15.7989 21.0595 11.3369 18.672 11.3369 18.672Z" fill="#F7F7F7"/>
</g>
</g>
<defs>
<clipPath id="clip0_202_10763">
<rect width="36" height="37" fill="white"/>
</clipPath>
</defs>
</svg>
