<svg width="37" height="37" viewBox="0 0 37 37" fill="none" xmlns="http://www.w3.org/2000/svg">
<g clip-path="url(#clip0_202_13004)">
<path d="M28.7676 17.3542L28.7333 21.4685C28.732 21.8902 28.4003 22.2369 27.979 22.257C27.5578 22.2369 27.2261 21.8902 27.2248 21.4685L27.259 17.3542C27.259 15.0062 25.3556 13.1028 23.0076 13.1028C20.8819 13.1028 18.9962 14.9542 18.8248 17.2513V17.4227L18.7562 18.9999V19.1027C18.7378 21.1606 17.623 23.0523 15.8317 24.0653C14.0403 25.0783 11.8446 25.0587 10.0717 24.0139C8.29873 22.9691 7.21785 21.0577 7.23623 18.9999C7.24562 19.001 7.255 18.9978 7.26169 18.9911C7.26838 18.9844 7.27163 18.975 7.27051 18.9656H7.23623V15.0227C7.23983 14.8281 7.32061 14.6429 7.46079 14.5079C7.60097 14.3729 7.78905 14.2991 7.98366 14.3027C8.17827 14.2972 8.3671 14.3693 8.50858 14.503C8.65005 14.6368 8.73256 14.8213 8.73794 15.0159L8.70365 18.9587C8.70365 21.3067 10.6071 23.2102 12.9551 23.2102C15.3031 23.2102 17.2065 21.3067 17.2065 18.9587V18.8216L17.2751 17.3816V17.2102C17.4876 14.097 19.9905 11.6285 22.9733 11.6285C26.1632 11.6398 28.7409 14.2329 28.7333 17.4227C28.7676 17.3199 28.7676 17.3199 28.7676 17.3542ZM18.0705 0.00550309C8.12949 -0.0321623 0.0400652 7.99594 0.00208546 17.9369C-0.0356277 27.8779 7.99244 35.9674 17.9334 36.0054C27.8744 36.0432 35.9639 28.0152 36.0019 18.0742V18.0056C36.0208 8.0861 27.9968 0.0283344 18.0774 0.00550309H18.0705Z" fill="#3AAFA9"/>
</g>
<defs>
<clipPath id="clip0_202_13004">
<rect width="37" height="37" fill="white"/>
</clipPath>
</defs>
</svg>
