<svg width="33" height="41" viewBox="0 0 33 41" fill="none" xmlns="http://www.w3.org/2000/svg">
<g clip-path="url(#clip0_202_15270)">
<path d="M25.3034 0.00219727L32.0034 4.4022V26.4022C31.9034 33.9022 25.5034 39.7022 20.3034 39.7022C25.4034 36.6022 26.7034 32.1022 26.7034 27.7022V7.0022L25.3034 6.1022L24.0034 7.0022V28.0022L24.0018 28.1998C23.8953 34.7097 18.5374 40.0022 12.0034 40.0022C5.40342 40.0022 0.00341797 34.6022 0.00341797 28.0022V26.7022C0.00341797 25.4022 1.30342 24.0022 1.30342 22.7022C1.30342 22.0743 1.01137 21.3977 0.698943 20.7404L0.636267 20.6092C0.521157 20.3692 0.405744 20.1324 0.303418 19.9022C0.103418 19.6022 0.00341797 19.1022 0.00341797 18.7022C0.00341797 17.2022 1.20342 16.0022 2.60342 16.0022C4.10342 16.0022 5.30342 17.2022 5.30342 18.7022C5.30342 19.1022 5.20342 19.5022 5.00342 19.9022C4.90109 20.1324 4.78568 20.3692 4.67057 20.6092L4.60789 20.7404C4.29547 21.3977 4.00342 22.0743 4.00342 22.7022C4.00342 23.3522 4.32842 24.0272 4.65342 24.7022L4.73125 24.8642C5.02834 25.485 5.30342 26.1042 5.30342 26.7022V28.0022L5.30402 28.092C5.34349 31.052 7.33042 33.5112 10.0034 34.4022C8.70342 32.6022 8.00342 30.4022 8.00342 28.0022V26.7022C8.00342 26.0522 8.32842 25.3772 8.65342 24.7022L8.73125 24.5402C9.02834 23.9194 9.30342 23.3002 9.30342 22.7022C9.30342 22.0743 9.01137 21.3977 8.69894 20.7404L8.63627 20.6092C8.52116 20.3692 8.40574 20.1324 8.30342 19.9022C8.10342 19.6022 8.00342 19.1022 8.00342 18.7022C8.00342 17.2022 9.10342 16.0022 10.6034 16.0022C12.1034 16.0022 13.3034 17.2022 13.3034 18.7022C13.3034 19.1022 13.2034 19.5022 13.0034 19.9022C12.9011 20.1324 12.7857 20.3692 12.6706 20.6092L12.6079 20.7404C12.2955 21.3977 12.0034 22.0743 12.0034 22.7022C12.0034 23.3522 12.3284 24.0272 12.6534 24.7022L12.7313 24.8642C13.0283 25.485 13.3034 26.1042 13.3034 26.7022V28.0022C13.3034 30.1022 14.2034 32.1022 15.8034 33.4022C17.5034 32.2022 18.6034 30.2022 18.6034 28.0022V4.4022L25.3034 0.00219727ZM2.70342 8.8022C4.19459 8.8022 5.40342 10.011 5.40342 11.5022C5.40342 12.9934 4.19459 14.2022 2.70342 14.2022C1.21225 14.2022 0.00341797 12.9934 0.00341797 11.5022C0.00341797 10.011 1.21225 8.8022 2.70342 8.8022ZM10.7034 8.7022C12.1946 8.7022 13.4034 9.91103 13.4034 11.4022C13.4034 12.8934 12.1946 14.1022 10.7034 14.1022C9.21225 14.1022 8.00342 12.8934 8.00342 11.4022C8.00342 9.91103 9.21225 8.7022 10.7034 8.7022ZM2.70342 1.6022C4.19459 1.6022 5.40342 2.81103 5.40342 4.3022C5.40342 5.79337 4.19459 7.0022 2.70342 7.0022C1.21225 7.0022 0.00341797 5.79337 0.00341797 4.3022C0.00341797 2.81103 1.21225 1.6022 2.70342 1.6022ZM10.7034 1.5022C12.1946 1.5022 13.4034 2.71103 13.4034 4.2022C13.4034 5.69337 12.1946 6.9022 10.7034 6.9022C9.21225 6.9022 8.00342 5.69337 8.00342 4.2022C8.00342 2.71103 9.21225 1.5022 10.7034 1.5022Z" fill="#FF6720"/>
</g>
<defs>
<clipPath id="clip0_202_15270">
<rect width="33" height="41" fill="white"/>
</clipPath>
</defs>
</svg>
