<svg width="32" height="37" viewBox="0 0 32 37" fill="none" xmlns="http://www.w3.org/2000/svg">
<g clip-path="url(#clip0_202_15560)">
<path d="M16.0009 33.5365C24.3681 33.5365 31.1511 26.8485 31.1511 18.5984C31.1511 10.3483 24.3681 3.66028 16.0009 3.66028C7.6336 3.66028 0.850586 10.3483 0.850586 18.5984C0.850586 26.8485 7.6336 33.5365 16.0009 33.5365Z" fill="#4285F4"/>
<path opacity="0.2" d="M16.0009 33.2953C7.67834 33.2953 0.918092 26.6701 0.850586 18.4729V18.5886C0.850586 26.834 7.63012 33.5267 16.0009 33.5267C24.3716 33.5267 31.1511 26.834 31.1511 18.5886V18.4729C31.0836 26.6701 24.3234 33.2953 16.0009 33.2953Z" fill="#263238"/>
<path opacity="0.2" d="M16.0009 3.90137C24.3234 3.90137 31.0836 10.5266 31.1511 18.7238V18.608C31.1511 10.3627 24.3716 3.66992 16.0009 3.66992C7.63012 3.66992 0.850586 10.353 0.850586 18.5984V18.7141C0.918092 10.5266 7.67834 3.90137 16.0009 3.90137Z" fill="white"/>
<path d="M12.4038 7.19946V11.6645L16.0009 16.496L19.598 11.5391V7.19946H23.8509L28.0074 0.00524902H4.00415L8.15095 7.19946H12.4038Z" fill="#424242"/>
<path d="M11.4876 7.19958H8.15088L9.33706 9.2537H11.4876V7.19958ZM20.5141 9.2537H22.6647L23.8509 7.19958H20.5141V9.2537Z" fill="#9E9E9E"/>
<path d="M19.5979 28.811V25.8697L16.0008 20.9321L12.4037 25.8697V28.811H8.16047L3.99438 36.0053H28.0072L23.8604 28.811H19.5979Z" fill="#424242"/>
<path opacity="0.2" d="M19.598 11.1727L16.0009 16.1392L12.4038 11.2885V11.6646L16.0009 16.4961L19.598 11.5392V11.1727Z" fill="#263238"/>
<path opacity="0.2" d="M4.00415 0.00524902H27.9977L27.8531 0.255986H4.14881L4.00415 0.00524902Z" fill="white"/>
<path opacity="0.2" d="M12.4038 26.2362L16.0106 21.2889L19.598 26.2362V25.8697L16.0106 20.9321L12.4038 25.8601V26.2362ZM27.9977 35.9956H4.00415L4.14881 35.7352H27.8531L27.9977 35.9956Z" fill="#263238"/>
<path d="M27.9978 35.9957L27.8531 35.7353L24.9311 30.6628C28.0267 28.4351 30.2255 25.079 30.9198 21.2119L16.9171 7.026L15.0366 29.1583L21.6811 35.9957L28.0074 36.0054L27.9978 35.9957Z" fill="url(#paint0_linear_202_15560)"/>
<path d="M16.9171 7.026L10.1665 20.5368H15.0655L15.0366 29.1583L21.874 15.5703H16.8882L16.9171 7.026Z" fill="#E8E8E8"/>
<path d="M16.917 7.026L10.2917 20.2958H15.0654L15.0365 28.9172L21.7485 15.5703H16.8881L16.917 7.026Z" fill="white"/>
<path d="M12.4038 7.19958H8.15088L9.33706 9.2537H12.4038V7.19958ZM19.598 9.2537H22.6647L23.8509 7.19958H19.598V9.2537Z" fill="#9E9E9E"/>
<path opacity="0.3" d="M19.598 9.01245V9.25354H22.6647L22.8093 9.00281L19.598 9.01245ZM12.4037 9.01245L9.19238 9.00281L9.33704 9.25354H12.4037V9.01245Z" fill="#263238"/>
<path d="M31.1511 18.7141V18.5983C31.1511 13.4293 28.4798 8.86783 24.4295 6.18687L28.0073 0.00524902H4.00408L7.57226 6.18687C3.5219 8.86783 0.850586 13.4293 0.850586 18.5983V18.7141C0.889161 23.6227 3.33867 27.972 7.08043 30.6723L4.14874 35.7352L4.00408 35.9956L3.99444 36.0052H27.9977L27.988 35.9956L27.8434 35.7352L24.9213 30.6626C28.6727 27.972 31.1126 23.6324 31.1511 18.7141Z" fill="url(#paint1_radial_202_15560)"/>
</g>
<defs>
<linearGradient id="paint0_linear_202_15560" x1="10.8657" y1="13.0774" x2="34.7602" y2="20.2553" gradientUnits="userSpaceOnUse">
<stop stop-color="#231F20" stop-opacity="0.16"/>
<stop offset="1" stop-color="#231F20" stop-opacity="0"/>
</linearGradient>
<radialGradient id="paint1_radial_202_15560" cx="0" cy="0" r="1" gradientUnits="userSpaceOnUse" gradientTransform="translate(4.04266 0.0442033) scale(43.2039 43.2038)">
<stop stop-color="white" stop-opacity="0.1"/>
<stop offset="1" stop-color="white" stop-opacity="0"/>
</radialGradient>
<clipPath id="clip0_202_15560">
<rect width="32" height="37" fill="white"/>
</clipPath>
</defs>
</svg>
