<svg width="37" height="30" viewBox="0 0 37 30" fill="none" xmlns="http://www.w3.org/2000/svg">
<g clip-path="url(#clip0_202_15483)">
<path d="M14.3381 7.11658V29.9978H21.6868V7.11658H14.3381ZM21.5029 29.8062H14.5374V7.30815H21.5029V29.8062Z" fill="#424242"/>
<path d="M0.0012207 1.40002L3.3039 7.1165H14.3384V29.9977H21.6947V7.1165H32.6985L36.0012 1.40002H0.0012207Z" fill="#424242"/>
<path opacity="0.2" d="M35.8863 1.59926L36.0012 1.40002H0.0012207L0.123826 1.59926H35.8863Z" fill="white"/>
<path d="M6.31545 7.11658H3.30396L4.24648 8.74876H5.60281C5.8097 8.18171 6.03959 7.63765 6.31545 7.11658ZM29.6105 7.11658C29.8787 7.63765 30.1162 8.18937 30.3154 8.74876H31.7561L32.6986 7.11658H29.6105Z" fill="#AFAFAF"/>
<path d="M17.9631 26.22C25.1999 26.22 31.0665 20.3533 31.0665 13.1165C31.0665 5.87967 25.1999 0.0130615 17.9631 0.0130615C10.7262 0.0130615 4.85962 5.87967 4.85962 13.1165C4.85962 20.3533 10.7262 26.22 17.9631 26.22Z" fill="#4285F4"/>
<path opacity="0.3" d="M5.67948 8.54944H4.13159L4.24653 8.74867H5.60286C5.63351 8.67971 5.6565 8.61074 5.67948 8.54944ZM30.2465 8.54944C30.2695 8.6184 30.2925 8.67971 30.3155 8.74867H31.7561L31.8711 8.54944H30.2465ZM17.963 26.0284C10.7599 26.0284 4.9132 20.2123 4.85956 13.0169V13.1088C4.85956 20.3425 10.7293 26.2123 17.963 26.2123C25.1967 26.2123 31.0665 20.3425 31.0665 13.1088V13.0169C31.0128 20.2123 25.1661 26.0284 17.963 26.0284Z" fill="#263238"/>
<path opacity="0.2" d="M17.9631 0.204538C25.1661 0.204538 31.0129 6.02063 31.0665 13.216V13.1241C31.0665 5.89036 25.1968 0.0206299 17.9631 0.0206299C10.7294 0.0206299 4.85962 5.89036 4.85962 13.1241V13.216C4.91326 6.02063 10.76 0.204538 17.9631 0.204538Z" fill="white"/>
<path opacity="0.3" d="M17.963 21.8444C22.7029 21.8444 26.5454 18.002 26.5454 13.2621C26.5454 8.52215 22.7029 4.67969 17.963 4.67969C13.2231 4.67969 9.38062 8.52215 9.38062 13.2621C9.38062 18.002 13.2231 21.8444 17.963 21.8444Z" fill="#263238"/>
<path d="M30.9819 14.6107L25.3037 8.93251L24.3612 9.47657L20.6677 5.78308L18.0547 12.603L16.7903 18.0283L17.932 21.8444L21.7558 25.6681C26.683 24.1739 30.3842 19.8674 30.9819 14.6107Z" fill="url(#paint0_radial_202_15483)"/>
<path d="M17.9322 4.82532V13.3311L21.7023 8.29658C21.4954 6.14332 19.9781 4.82532 17.9322 4.82532ZM10.4916 9.03988L17.9322 13.3311L15.4571 7.56095C13.4877 6.6644 11.5184 7.26976 10.4916 9.03988ZM10.5605 17.5916L17.9322 13.3311L11.7023 12.5954C9.93217 13.8521 9.5337 15.8215 10.5605 17.5916Z" fill="#E8E8E8"/>
<path d="M17.9323 21.8444V13.3386L14.1775 18.2198C14.3767 20.3731 15.8786 21.8444 17.9323 21.8444ZM20.4074 19.1011C22.3767 20.0053 24.3537 19.2543 25.3729 17.4842L17.9399 13.1317L20.4074 19.1011Z" fill="#D6D6D6"/>
<path d="M25.304 9.07825L17.9324 13.3388L24.1623 14.0744C25.9247 12.81 26.3308 10.8407 25.304 9.07825Z" fill="#D6D6D6"/>
<path d="M17.9324 13.1856V4.67981C19.9784 4.67981 21.4803 6.00548 21.6872 8.1664L17.9324 13.1856ZM17.9324 13.1856L10.5608 8.92502C11.5953 7.15491 13.4957 6.51123 15.4573 7.41544L17.9324 13.1856Z" fill="white"/>
<path d="M17.9322 13.1855L10.5605 17.446C9.53373 15.6759 9.93986 13.7065 11.7023 12.4498L17.9322 13.1855Z" fill="white"/>
<path d="M17.9323 13.1854V21.6912C15.8863 21.6912 14.3844 20.3655 14.1775 18.2046L17.9323 13.1854ZM17.9323 13.1854L25.3039 17.446C24.2771 19.2161 22.3767 19.8598 20.4074 18.9555L17.9323 13.1854Z" fill="#E8E8E8"/>
<path d="M17.9324 13.1855L25.304 8.92493C26.3308 10.695 25.9247 12.6644 24.1623 13.9211L17.9324 13.1855Z" fill="#E8E8E8"/>
<path d="M17.9244 15.9135C19.4902 15.9135 20.7596 14.6442 20.7596 13.0783C20.7596 11.5124 19.4902 10.243 17.9244 10.243C16.3585 10.243 15.0891 11.5124 15.0891 13.0783C15.0891 14.6442 16.3585 15.9135 17.9244 15.9135Z" fill="white"/>
<path d="M17.9244 15.9135C19.4902 15.9135 20.7596 14.6442 20.7596 13.0783C20.7596 11.5124 19.4902 10.243 17.9244 10.243C16.3585 10.243 15.0891 11.5124 15.0891 13.0783C15.0891 14.6442 16.3585 15.9135 17.9244 15.9135Z" fill="url(#paint1_radial_202_15483)"/>
<path d="M23.825 1.40003C22.0625 0.518809 20.0702 0.0130615 17.9629 0.0130615C15.8556 0.0130615 13.8633 0.511146 12.1008 1.40003H0.0012207L0.0548605 1.49965L0.116163 1.60693L3.3039 7.12417L4.13149 8.55712L4.24643 8.75636H5.60275C5.11999 10.1203 4.8518 11.5916 4.8518 13.1242C4.8518 19.1012 8.85946 24.151 14.3307 25.7219V29.9977H21.6794V25.6836C27.097 24.0744 31.051 19.0629 31.051 13.1165C31.051 11.5839 30.7905 10.1127 30.3001 8.74869H31.7407L32.6832 7.11651L35.9859 1.40003H23.825ZM6.12383 7.49965C6.11616 7.50731 6.11616 7.51498 6.1085 7.5303C6.1085 7.52264 6.11616 7.51498 6.12383 7.49965ZM5.93992 7.90578C5.93992 7.91344 5.93225 7.92111 5.93225 7.92877C5.93225 7.91344 5.93225 7.91344 5.93992 7.90578ZM29.802 7.49965C29.8097 7.50731 29.8096 7.51498 29.8173 7.5303C29.8173 7.52264 29.8097 7.51498 29.802 7.49965ZM29.9859 7.90578C29.9859 7.91344 29.9936 7.92111 29.9936 7.92877C29.9936 7.91344 29.9936 7.91344 29.9859 7.90578Z" fill="url(#paint2_radial_202_15483)"/>
</g>
<defs>
<radialGradient id="paint0_radial_202_15483" cx="0" cy="0" r="1" gradientUnits="userSpaceOnUse" gradientTransform="translate(18.5987 9.17166) scale(12.8682 12.8682)">
<stop stop-color="#231F20" stop-opacity="0.1"/>
<stop offset="1" stop-color="#231F20" stop-opacity="0"/>
</radialGradient>
<radialGradient id="paint1_radial_202_15483" cx="0" cy="0" r="1" gradientUnits="userSpaceOnUse" gradientTransform="translate(17.9228 13.0745) scale(2.83525)">
<stop offset="0.4" stop-color="#231F20" stop-opacity="0"/>
<stop offset="1" stop-color="#231F20" stop-opacity="0.04"/>
</radialGradient>
<radialGradient id="paint2_radial_202_15483" cx="0" cy="0" r="1" gradientUnits="userSpaceOnUse" gradientTransform="translate(0.176313 1.59544) scale(29.8946 29.8946)">
<stop stop-color="white" stop-opacity="0.1"/>
<stop offset="1" stop-color="white" stop-opacity="0"/>
</radialGradient>
<clipPath id="clip0_202_15483">
<rect width="37" height="30" fill="white"/>
</clipPath>
</defs>
</svg>
