<svg width="36" height="32" viewBox="0 0 36 32" fill="none" xmlns="http://www.w3.org/2000/svg">
<g clip-path="url(#clip0_202_15448)">
<path d="M30.165 8.84058L29.2932 10.6828H31.7822L31.9088 10.4718L32.8229 8.84058H30.1369H30.165ZM5.79473 8.84058H3.16504L4.21973 10.6828H6.68066L5.79473 8.84058Z" fill="#9E9E9E"/>
<path d="M36.001 3.32803L32.7244 9.05146H30.4322L26.7619 16.0124L18.001 31.9593L9.22598 16.0124L5.56973 9.05146H3.27754L0.000976562 3.32803H9.40879L10.9416 6.36553L15.9338 15.464L17.9729 19.2046L19.9416 15.464L24.8494 6.36553L26.5791 3.31396" fill="#424242"/>
<path d="M9.52129 3.525H0.113477L0.000976562 3.32812H9.40879L9.52129 3.525ZM26.5932 3.32812L26.4807 3.53906H35.8885L36.001 3.32812H26.5932Z" fill="white" fill-opacity="0.2"/>
<path d="M31.9229 10.4859L31.8104 10.6968H29.5886L26.7761 16.0265L18.0011 31.9593L9.22607 16.0124L6.42764 10.6827H4.20576L4.09326 10.4718H6.42764L6.54014 10.6827L9.22607 15.8015L18.0011 31.7624L26.7761 15.8156L29.4761 10.6968L29.5886 10.4859" fill="#263238" fill-opacity="0.2"/>
<path d="M21.4742 18.0515C21.4742 19.9781 19.9133 21.525 18.0008 21.525C16.0883 21.525 14.5273 19.964 14.5273 18.0515C14.5273 16.139 16.0883 14.5781 18.0008 14.5781C19.9273 14.5781 21.4742 16.125 21.4742 18.0515ZM21.0664 7.42026C21.0664 9.10776 19.6883 10.4859 18.0008 10.4859C16.3133 10.4859 14.9352 9.10776 14.9352 7.42026C14.9352 5.73276 16.3133 4.34058 18.0008 4.34058C19.6883 4.34058 21.0664 5.7187 21.0664 7.42026Z" fill="white"/>
<path d="M26.776 16.0125C26.3119 14.0296 25.201 12.2859 23.6682 11.0484C24.4838 9.90933 24.9619 8.51714 24.9619 6.99839C24.9619 6.78745 24.9479 6.57651 24.9338 6.36558C24.6104 2.82183 21.6291 0.0515137 18.001 0.0515137C14.3729 0.0515137 11.3916 2.82183 11.0822 6.36558C11.0682 6.57651 11.0541 6.78745 11.0541 7.01245C11.0541 8.51714 11.5322 9.92339 12.3479 11.0625C10.815 12.3 9.69004 14.0296 9.24004 16.0265C9.08535 16.6734 9.00098 17.3484 9.00098 18.0515C9.00098 21.8625 11.3775 25.125 14.7244 26.4328C15.7369 26.8265 16.8479 27.0515 18.001 27.0515C19.1541 27.0515 20.265 26.8265 21.2775 26.4328C24.6244 25.125 27.001 21.8625 27.001 18.0515C27.001 17.3484 26.9166 16.6734 26.776 16.0125ZM18.001 4.55151C19.576 4.55151 20.8697 5.8312 20.8697 7.42026C20.8697 9.00933 19.59 10.289 18.001 10.289C16.426 10.289 15.1322 9.00933 15.1322 7.42026C15.1322 5.8312 16.426 4.55151 18.001 4.55151ZM18.001 21.3281C16.201 21.3281 14.7244 19.8656 14.7244 18.0515C14.7244 16.9968 15.2166 16.0687 15.99 15.464C16.5385 15.0281 17.2416 14.775 18.001 14.775C18.7604 14.775 19.4635 15.0281 20.0119 15.464C20.7854 16.0687 21.2775 16.9968 21.2775 18.0515C21.2775 19.8656 19.815 21.3281 18.001 21.3281Z" fill="#4285F4"/>
<path d="M24.9619 7.01245V7.11089C24.8916 3.31401 21.8119 0.262451 18.001 0.262451C14.19 0.262451 11.0963 3.31401 11.04 7.11089V7.01245C11.04 3.15933 14.1619 0.0515137 18.001 0.0515137C21.84 0.0515137 24.9619 3.15933 24.9619 7.01245ZM12.2494 11.1328C10.2666 12.7781 9.00098 15.2671 9.00098 18.0515V18.15C9.0291 15.3656 10.3369 12.8765 12.3479 11.2593L12.4463 11.189L12.3479 11.0625L12.2494 11.1328ZM23.7525 11.1328L23.6682 11.0625L23.5697 11.189L23.6682 11.2734C25.6791 12.9046 26.9869 15.3796 27.015 18.164V18.0515C27.001 15.2671 25.7354 12.7781 23.7525 11.1328Z" fill="white" fill-opacity="0.2"/>
<path d="M27.001 17.953V18.0515C27.001 23.0155 22.965 27.0515 18.001 27.0515C13.0369 27.0515 9.00098 23.0155 9.00098 18.0515V17.953C9.05723 22.8749 13.065 26.8546 18.001 26.8546C22.9369 26.8546 26.9447 22.8749 27.001 17.953ZM11.04 6.8999V6.99834C11.04 8.55928 11.5604 10.0077 12.4322 11.1749C12.4604 11.1608 12.5025 11.1327 12.5307 11.1046C11.6166 9.95146 11.0682 8.48896 11.04 6.8999ZM24.9619 6.8999C24.9338 8.48896 24.3854 9.9374 23.4713 11.1046C23.5135 11.1327 23.5416 11.1608 23.5697 11.1749C24.4416 10.0358 24.9619 8.57334 24.9619 6.99834V6.8999Z" fill="#263238" fill-opacity="0.2"/>
<path d="M36.001 3.32808L32.7244 9.05151L31.7963 10.6828H29.5744L26.7619 16.0125C26.9166 16.6734 26.9869 17.3484 26.9869 18.0515C26.9869 21.8625 24.6104 25.125 21.2635 26.4328C21.165 26.475 21.0525 26.5171 20.9541 26.5453L18.001 31.9593L15.0197 26.5453C14.9213 26.5171 14.8088 26.475 14.7104 26.4328C11.3775 25.1109 9.00098 21.8625 9.00098 18.0515C9.00098 17.3484 9.08535 16.6734 9.22598 16.0125L6.42754 10.6828H4.21973L3.27754 9.05151L0.000976562 3.32808H9.40879L10.9416 6.36558L11.026 6.42183C11.026 6.40776 11.0541 6.3937 11.0541 6.36558C11.3775 2.82183 14.3588 0.0515137 17.9869 0.0515137C21.615 0.0515137 24.5963 2.82183 24.9197 6.36558C24.9197 6.37964 24.8775 6.3937 24.8775 6.40776L24.8635 6.36558L26.5932 3.31401H36.001V3.32808Z" fill="url(#paint0_radial_202_15448)"/>
</g>
<defs>
<radialGradient id="paint0_radial_202_15448" cx="0" cy="0" r="1" gradientUnits="userSpaceOnUse" gradientTransform="translate(0.409089 3.6822) scale(33.6192 33.6192)">
<stop stop-color="white" stop-opacity="0.1"/>
<stop offset="1" stop-color="white" stop-opacity="0"/>
</radialGradient>
<clipPath id="clip0_202_15448">
<rect width="36.001" height="32" fill="white"/>
</clipPath>
</defs>
</svg>
