<svg width="37" height="36" viewBox="0 0 37 36" fill="none" xmlns="http://www.w3.org/2000/svg">
<g clip-path="url(#clip0_202_10591)">
<path d="M26.6623 2.03855C30.1963 4.66261 32.4871 8.86673 32.4871 13.6068C32.4871 21.5597 26.04 28.0068 18.0871 28.0068C10.1342 28.0068 3.68709 21.5597 3.68709 13.6068C3.68709 8.66606 6.17643 4.30795 9.96811 1.71426C4.06157 4.66683 0.00341797 10.7683 0.00341797 17.8206C0.00341797 27.7618 8.06236 35.8208 18.0034 35.8208C27.9445 35.8208 36.0034 27.7618 36.0034 17.8206C36.0034 11.0187 32.2295 5.09953 26.6623 2.03855ZM11.4995 25.4681C8.85407 23.504 7.13929 20.3569 7.13929 16.809C7.13929 10.8559 11.9653 6.03005 17.9183 6.03005C23.8713 6.03005 28.6972 10.8559 28.6972 16.809C28.6972 20.5072 26.8338 23.7695 23.9957 25.7108C28.4168 23.5007 31.4546 18.9337 31.4546 13.6546C31.4546 6.21342 25.4222 0.18103 17.9809 0.18103C10.5396 0.18103 4.50736 6.21342 4.50736 13.6546C4.50736 18.7462 7.33223 23.1769 11.4995 25.4681ZM22.4964 14.1091C22.4964 16.5904 20.4849 18.6021 18.0034 18.6021C15.5219 18.6021 13.5104 16.5904 13.5104 14.1091C13.5104 11.6276 15.5219 9.61598 18.0034 9.61598C20.4849 9.61598 22.4964 11.6276 22.4964 14.1091Z" fill="url(#paint0_linear_202_10591)"/>
</g>
<defs>
<linearGradient id="paint0_linear_202_10591" x1="18.0034" y1="-0.182343" x2="18.0034" y2="35.8208" gradientUnits="userSpaceOnUse">
<stop stop-color="#8FC53B"/>
<stop offset="1" stop-color="#48A23C"/>
</linearGradient>
<clipPath id="clip0_202_10591">
<rect width="37" height="36" fill="white"/>
</clipPath>
</defs>
</svg>
