<svg width="36" height="37" viewBox="0 0 36 37" fill="none" xmlns="http://www.w3.org/2000/svg">
<g clip-path="url(#clip0_202_13958)">
<path d="M30.6462 0.00671387L35.3854 2.77871L27.4827 7.37471L27.4827 7.38019L35.3854 2.77871V6.07271L24.7737 32.0947L17.9982 36.0062L17.9982 36.0067L17.9978 36.0064L17.9974 36.0067L17.9974 36.0062L11.2872 32.1247L0.616943 6.17471V2.77871L5.35694 0.00671387L13.2657 4.64471L13.2386 4.66019L13.2597 4.66871V7.80071L17.9982 18.8827L17.9982 22.5851L17.9989 22.5847V18.8827L22.7434 7.80071V4.63871H22.7494L30.6462 0.00671387ZM10.3385 6.3287L8.52044 7.37471L8.52037 7.38019L10.3385 6.3287Z" fill="#1159CC"/>
<path d="M30.6462 0.00671387L22.7494 4.63871H22.7434V7.80071L17.9989 18.8827V22.5847L14.8414 24.4207L8.52044 10.1647V7.37471L13.2657 4.64471L5.35694 0.00671387L0.616943 2.77871V6.17471L11.2872 32.1247L17.9982 36.0067V26.2567L21.1617 24.4207L21.1197 24.3967L27.4827 10.1647V7.37471L35.3854 2.77871L30.6462 0.00671387Z" fill="#127EFF"/>
</g>
<defs>
<clipPath id="clip0_202_13958">
<rect width="36" height="37" fill="white"/>
</clipPath>
</defs>
</svg>
