<svg width="36" height="37" viewBox="0 0 36 37" fill="none" xmlns="http://www.w3.org/2000/svg">
<g clip-path="url(#clip0_202_14521)">
<path fill-rule="evenodd" clip-rule="evenodd" d="M20.0882 15.5754H22.1747V13.4882H20.0882V15.5754ZM20.0702 12.4449H22.1567V10.3577H20.0702V12.4449ZM16.9577 9.31444H19.0442V7.22719H16.957V9.31444H16.9577ZM16.9577 12.4449H19.0442V10.3577H16.957V12.4449H16.9577ZM16.9577 15.5754H19.0442V13.4874H16.957V15.5747L16.9577 15.5754ZM16.9577 18.7059H19.0442V16.6187H16.957V18.7052L16.9577 18.7059ZM13.8272 9.31369H15.9145V7.22719H13.8272V9.31444V9.31369ZM13.8272 12.4442H15.9145V10.3569H13.8272V12.4442ZM13.8272 15.5747H15.9145V13.4874H13.8272V15.5747ZM20.0702 9.31369H22.1567V7.22719H20.0702V9.31444V9.31369ZM0.000976562 0.00244141L17.9357 36.0024L36.001 0.00244141H0.000976562Z" fill="black"/>
</g>
<defs>
<clipPath id="clip0_202_14521">
<rect width="36.001" height="37" fill="white"/>
</clipPath>
</defs>
</svg>
