<svg width="36" height="36" viewBox="0 0 36 36" fill="none" xmlns="http://www.w3.org/2000/svg">
<path d="M23.7368 21.5317C23.7805 22.7444 24.4291 22.7353 25.2006 22.7071C26.2394 22.688 26.8098 22.3696 27.3311 22.6206C27.3229 22.5915 27.1601 22.1048 26.4405 22.1894C26.5242 22.0093 26.5597 21.7655 26.5342 21.4308C26.4396 20.219 25.7346 19.2566 24.9613 19.2839C24.1899 19.3102 23.6941 20.3164 23.7368 21.5317ZM24.8885 20.0535C25.1059 20.0489 25.287 20.2227 25.2897 20.441C25.2943 20.6584 25.1196 20.8394 24.9031 20.8431C24.6848 20.8467 24.5046 20.6721 24.501 20.4537C24.4964 20.2363 24.6711 20.0571 24.8885 20.0535Z" fill="#403E42"/>
<path d="M13.1461 22.9254C13.2262 22.9272 13.3098 22.9254 13.3954 22.9236C13.47 22.9236 13.5445 22.9218 13.6228 22.919C14.3969 22.9117 15.0383 22.9845 15.0283 21.771C15.0155 20.5574 14.477 19.575 13.7028 19.5831C12.9305 19.5904 12.1827 20.5856 12.2273 21.7983C12.2409 22.1148 12.2873 22.3423 12.3619 22.5069C11.6888 22.677 11.5023 23.0928 11.4914 23.1192C11.9153 22.8908 12.3947 22.9236 13.1461 22.9254ZM13.8111 20.3464C14.0294 20.3391 14.2104 20.512 14.2177 20.7303C14.2232 20.9477 14.0503 21.1296 13.8329 21.1351C13.6146 21.1424 13.4327 20.9686 13.4272 20.7512C13.4208 20.5338 13.5928 20.3509 13.8111 20.3464Z" fill="#403E42"/>
<path d="M15.6278 7.41498H17.7983V6.51983H18.2868V10.6553H17.5491V12.9687H21.3489V10.6553H20.6102V6.51983H21.0996V7.41498H23.272V4.35019H15.6278V7.41498Z" fill="#403E42"/>
<path d="M35.9869 13.3244C35.9732 13.0615 35.9478 12.7995 35.9123 12.5411C35.8941 12.4102 35.875 12.2792 35.8477 12.1509C35.8222 12.0181 35.7968 11.8953 35.754 11.7506L35.7267 11.6487L35.6548 11.5914C35.2409 11.2676 34.7961 11.0219 34.344 10.8054C33.9701 10.629 33.5907 10.4752 33.2077 10.3342C32.137 7.36495 30.2994 4.73227 27.8805 2.89922C25.3816 1.0034 22.4423 0 19.3821 0C16.32 0 13.3817 1.0034 10.8819 2.89922C8.97785 4.34201 7.4359 6.28149 6.34335 8.48934H6.33789C6.04224 9.08701 5.77661 9.70197 5.54918 10.3342C5.16529 10.4752 4.78594 10.629 4.41205 10.8054C3.95902 11.0219 3.51509 11.2676 3.10117 11.5914L3.0284 11.6487L3.00111 11.7506C2.95926 11.8953 2.93197 12.0181 2.9065 12.1509C2.88103 12.2792 2.8601 12.4102 2.84282 12.5411C2.81644 12.7276 2.79915 12.9169 2.78369 13.1061H2.79006C2.78369 13.1788 2.77823 13.2516 2.77459 13.3253C2.74821 13.8502 2.76276 14.3751 2.82008 14.8973C2.87557 15.4185 2.972 15.9343 3.11118 16.4465C3.18396 16.7012 3.26674 16.9514 3.36499 17.2015C3.4132 17.3262 3.46596 17.4499 3.52509 17.5745C3.5542 17.6364 3.58604 17.6973 3.61788 17.7601L3.66974 17.852C3.68975 17.8866 3.7034 17.9111 3.73342 17.9557L3.78527 18.0376L3.86896 18.0803C3.9572 18.1258 4.03089 18.1595 4.11094 18.1977L4.34383 18.3032C4.38658 18.3205 4.42843 18.3387 4.473 18.3569C3.41138 19.3375 2.25788 20.612 1.25994 22.1876L0 24.1735L1.76937 22.6206C1.8003 22.5943 3.28311 21.3107 5.7575 19.8542L5.79207 20.139L5.88213 20.8567L6.33516 24.5383C6.34517 24.6083 6.38156 24.6711 6.43978 24.7111L7.36858 25.3634C7.38496 25.4152 7.40042 25.4671 7.41589 25.5208C7.43772 25.5945 7.45773 25.6672 7.48048 25.7409L7.69244 26.3804C8.1573 27.826 8.81592 29.1296 9.61737 30.2749C9.57916 30.2867 9.54004 30.2976 9.50183 30.3085C9.01878 30.0847 7.33129 29.3024 6.76454 29.0468L5.5792 28.5146L6.28058 29.609C6.33152 29.6881 7.54143 31.5748 8.52845 32.8466C9.45362 34.0338 10.719 35.2455 13.1061 35.2455C13.3926 35.2455 13.6946 35.2273 14.0039 35.1945C14.7162 35.1118 15.2511 35.0481 15.6578 34.9953C18.1631 35.9178 20.9268 35.9723 23.5494 34.9799C24.2681 34.7069 24.9222 34.3767 25.5217 34.0056C25.5344 34.0037 25.5462 34.0001 25.5572 33.9974C26.5324 33.7627 27.6395 33.4979 28.1862 33.3451C28.2735 33.3215 28.3836 33.2951 28.4973 33.2678C29.2587 33.094 30.5314 32.7975 31.2091 31.4402C31.8923 30.0702 33.0076 27.9724 33.0185 27.9515L33.5407 26.9754L32.5264 27.4166C32.4709 27.4402 31.1846 28.0015 30.5159 28.3518C30.4932 28.3654 30.4641 28.3772 30.4377 28.39C30.9817 27.281 31.2528 26.3977 31.3501 26.0584L31.7167 24.5456L32.7729 22.1831C32.7729 22.1831 33.0695 19.6004 33.0758 19.6023L33.1795 18.6143C33.2723 18.5752 33.8364 18.5361 33.9464 18.4924C34.1038 18.4306 34.2612 18.3696 34.4186 18.3014L34.6505 18.1959C34.7324 18.1576 34.8052 18.124 34.8934 18.0785L34.9771 18.0357L35.0299 17.9539C35.059 17.9093 35.0754 17.8838 35.0927 17.8502L35.1436 17.7583C35.1791 17.6955 35.2091 17.6346 35.2373 17.5727C35.2964 17.449 35.3483 17.3253 35.3992 17.1997C35.4966 16.9496 35.5775 16.6994 35.6512 16.4447C35.7895 15.9325 35.8895 15.4167 35.9423 14.8955C36.0005 14.3751 36.0133 13.8493 35.9869 13.3244ZM11.8853 19.6987C11.908 19.6832 12.8568 19.061 14.406 18.3032C15.9507 18.1858 17.6546 18.1113 19.4804 18.1113C19.9243 18.1113 20.36 18.1176 20.7903 18.1249C20.4901 18.3669 20.1735 18.5952 19.8442 18.7926L18.7499 19.4549C18.0594 19.5386 17.4608 19.7105 17.4281 19.7196C17.4071 19.7251 17.388 19.7342 17.3708 19.7442C17.3171 19.7751 17.2761 19.826 17.2579 19.8861L16.139 23.5713L10.1668 24.8985L8.28465 23.5804L7.73701 19.1474C8.805 18.95 10.2351 18.7235 11.9508 18.5315C11.767 18.7499 11.5878 18.9809 11.4195 19.2247L10.3979 20.6912L11.8853 19.6987ZM19.9452 35.1218C18.96 35.1873 17.9593 35.0717 16.9796 34.8034C17.0615 34.787 17.1206 34.7779 17.1934 34.7697C17.2734 34.7588 19.0319 34.5277 19.8224 33.3524L19.897 33.3542L20.0935 33.3524C20.2236 33.3524 20.3418 33.3415 20.4683 33.336C20.7685 33.3115 21.0587 33.2678 21.3471 33.2096C21.378 33.2396 21.4071 33.2696 21.4389 33.3024C22.033 33.8909 22.7707 34.2284 23.5813 34.2876C22.2176 34.8416 20.9341 35.0563 19.9452 35.1218ZM20.0344 32.9658C20.1826 32.6355 20.2945 32.3781 20.3791 32.1843C20.5538 32.379 20.7749 32.6201 21.0232 32.8775C20.8294 32.9066 20.6384 32.9312 20.4501 32.9467C20.3264 32.9521 20.1972 32.9658 20.0789 32.9658H20.0344ZM17.1042 25.3588L17.6382 25.2388C17.7264 25.2197 17.7956 25.1533 17.822 25.0677L18.9373 21.3989C19.1301 21.3734 19.2993 21.3598 19.4458 21.3598C19.5877 21.3598 19.7596 21.3734 19.9516 21.3989L21.0996 25.1769C21.1287 25.2733 21.2115 25.3434 21.3098 25.3543L21.7355 25.4025L21.8447 25.4143L29.1787 26.2485C29.2396 26.2558 29.2997 26.2385 29.3497 26.204L30.7679 25.2124L31.0199 25.035C30.979 25.2106 30.9335 25.3852 30.8862 25.5572C30.8161 25.7828 30.7415 26.0011 30.667 26.2176C30.3658 27.0745 30.0283 27.8523 29.6608 28.5546C29.5608 28.561 29.4525 28.5655 29.3388 28.5655C28.9822 28.5655 28.6201 28.5364 28.2189 28.4991C27.5221 28.4345 26.4186 28.3081 26.0711 28.269C25.7682 28.0279 24.7393 27.2119 23.8851 26.5378C23.8524 26.5123 23.8233 26.4851 23.7932 26.4614C23.6431 26.334 23.4721 26.1903 23.1255 26.1903C22.809 26.1903 22.3486 26.3049 21.2361 26.6406C21.8156 26.2076 21.8201 25.6499 21.8201 25.6499C21.8201 25.6499 20.9959 26.4177 19.6659 26.5869C18.3396 26.758 17.2962 25.942 17.2962 25.942C17.3398 26.0839 17.4017 26.405 17.7028 26.677C17.3489 26.6361 16.9668 26.607 16.5657 26.607C16.4219 26.607 16.2746 26.6106 16.1336 26.6179C15.3166 26.6615 14.1668 27.8951 13.3599 29.1405C12.9632 29.266 11.7233 29.6599 10.2896 30.0811C9.4427 28.9094 8.86868 27.7204 8.54392 26.9554C8.3547 26.5096 8.24918 26.2067 8.22552 26.1348V26.133C8.19914 26.0602 8.17094 25.9829 8.14638 25.9056L8.49025 26.1457V26.1476L9.34082 26.7443L9.62464 26.9417C9.6674 26.9717 9.71925 26.9872 9.76838 26.9872C9.78657 26.9872 9.80476 26.9854 9.82387 26.9818L17.1042 25.3588ZM21.6291 19.8861C21.6036 19.8042 21.5399 19.7433 21.458 19.7187C21.4207 19.7069 20.683 19.4967 19.8997 19.4303L20.0435 19.4194C20.1672 19.4103 22.224 19.1592 24.6811 18.3114C27.402 18.5197 29.6235 18.8536 31.1427 19.1301L30.6051 22.9017L28.7075 24.229L22.7425 23.5513L21.6291 19.8861ZM34.7242 14.8054C34.6578 15.2912 34.4377 16.2373 34.4377 16.2373L34.2657 16.2655C34.1757 16.2409 33.3369 16.0235 31.8923 15.756C31.9387 15.746 31.9833 15.736 32.027 15.726C32.3262 15.6514 32.621 15.5595 32.9075 15.444C33.0495 15.3831 33.1914 15.3185 33.3251 15.2421C33.4579 15.1647 33.588 15.0792 33.6899 14.9637C32.2435 15.4367 29.2542 15.222 26.5969 14.9473C24.169 14.6962 21.7319 14.5343 19.2829 14.5288C16.8349 14.5343 14.4006 14.6971 11.9699 14.9473C9.31262 15.222 6.32425 15.4367 4.87782 14.9637C4.97971 15.0783 5.1107 15.1647 5.24443 15.2421C5.37725 15.3185 5.51825 15.3821 5.66016 15.444C5.94581 15.5586 6.24237 15.6514 6.54166 15.726C6.64719 15.7506 6.75453 15.7742 6.86188 15.7933C5.54372 16.0435 4.78048 16.2418 4.69497 16.2655C4.69497 16.2655 4.39113 16.3146 4.32472 16.0817C4.19282 15.6159 4.10457 15.2903 4.03817 14.8054C3.9754 14.3223 3.94356 13.8338 3.9472 13.3462C3.94811 13.2662 3.94629 13.1061 3.94629 13.1061C3.95083 12.9423 3.95811 12.7786 3.97358 12.6148C3.98267 12.4938 4.42752 12.1063 4.80959 11.8862C5.2226 11.646 5.65653 11.4295 6.09864 11.2284C6.53621 11.021 7.95443 10.7199 8.80955 10.5653C9.66467 10.4088 12.7231 10.0031 12.9523 9.91757C13.1807 9.83024 14.5025 8.81137 14.7335 8.72677C14.2477 8.80682 7.53597 9.83206 7.23395 9.92757C9.41268 4.23011 13.6892 1.45552 19.3812 1.45552C25.0714 1.45552 29.3488 4.07546 31.5294 9.77384C28.6511 9.00878 24.6647 8.65217 24.179 8.57121C24.41 8.65581 25.7173 9.57552 25.9602 9.60645C27.9506 9.86481 31.0891 10.5607 31.3165 10.6508C31.7677 10.8336 32.2198 11.0219 32.6583 11.2284C33.1013 11.4295 33.5343 11.646 33.9473 11.8862C34.3294 12.1072 34.7733 12.4938 34.7843 12.6148C34.8052 12.8586 34.8143 13.1015 34.817 13.3453C34.8206 13.8329 34.787 14.3223 34.7242 14.8054Z" fill="#403E42"/>
</svg>
