<svg width="37" height="34" viewBox="0 0 37 34" fill="none" xmlns="http://www.w3.org/2000/svg">
<g clip-path="url(#clip0_202_13117)">
<path d="M18.0739 33.1698C17.278 33.1698 16.4715 32.9673 15.7326 32.5411C13.486 31.2453 12.7152 28.374 14.0108 26.1276L27.2437 3.18342C28.5392 0.936817 31.4103 0.166107 33.6572 1.46165C35.9036 2.75741 36.6745 5.62874 35.3787 7.87513L22.1458 30.8193C21.2765 32.3268 19.6975 33.1698 18.0739 33.1698Z" fill="url(#paint0_linear_202_13117)"/>
<path d="M22.1168 30.7486C21.7213 31.4395 21.1449 32.0388 20.4079 32.4685C18.1675 33.7745 15.2925 33.017 13.9865 30.7766L0.647304 7.8941C-0.658699 5.65347 0.0985649 2.77894 2.33919 1.47272C4.57961 0.166508 7.45457 0.923985 8.76057 3.1644L22.0996 26.0471C22.9759 27.5503 22.9232 29.3397 22.1168 30.7486Z" fill="url(#paint1_linear_202_13117)"/>
<path d="M22.1316 26.1107L18.057 19.1207L14.0148 26.1295C12.7192 28.3759 13.4899 31.2472 15.7365 32.543C15.8885 32.6307 16.0439 32.7064 16.201 32.7754C16.2522 32.7976 16.3032 32.8204 16.3553 32.8407C16.4138 32.864 16.4724 32.8857 16.5316 32.9064C16.6263 32.9395 16.7217 32.97 16.8182 32.9969C16.8477 33.005 16.8769 33.0142 16.9064 33.0219C17.0267 33.0528 17.1482 33.078 17.2707 33.0994C17.3046 33.1054 17.3386 33.1107 17.3725 33.116C17.4988 33.1352 17.6258 33.1508 17.7537 33.1598C17.7597 33.1602 17.7654 33.1611 17.7714 33.1615C17.9042 33.1702 18.0378 33.1713 18.1714 33.1687C18.2057 33.1681 18.2401 33.1668 18.2747 33.1653C18.4017 33.16 18.5289 33.151 18.6557 33.1352C18.6636 33.1342 18.6715 33.134 18.6794 33.1329C18.8149 33.1154 18.95 33.0902 19.0847 33.0605C19.1122 33.0543 19.1395 33.0482 19.167 33.0415C19.6035 32.9372 20.0323 32.7696 20.44 32.5321C21.177 32.1024 21.7534 31.5031 22.1489 30.8122C22.9553 29.4033 23.008 27.6139 22.1316 26.1107Z" fill="url(#paint2_linear_202_13117)"/>
<path d="M19.8569 28.7052C19.8569 29.6776 19.0685 30.4661 18.0961 30.4661C17.1237 30.4661 16.3353 29.6776 16.3353 28.7052C16.3353 27.7328 17.1237 26.9444 18.0961 26.9444C19.0685 26.9444 19.8569 27.7328 19.8569 28.7052Z" fill="white"/>
<path d="M33.0898 5.22744C33.0898 6.19985 32.3014 6.98827 31.329 6.98827C30.3566 6.98827 29.5682 6.19985 29.5682 5.22744C29.5682 4.25504 30.3566 3.46661 31.329 3.46661C32.3014 3.46661 33.0898 4.25504 33.0898 5.22744Z" fill="white"/>
<path d="M6.51751 5.2275C6.51751 6.19991 5.72909 6.98834 4.75668 6.98834C3.78428 6.98834 2.99585 6.19991 2.99585 5.2275C2.99585 4.2551 3.78428 3.46667 4.75668 3.46667C5.72909 3.46667 6.51751 4.2551 6.51751 5.2275Z" fill="white"/>
</g>
<defs>
<linearGradient id="paint0_linear_202_13117" x1="24.6948" y1="0.832886" x2="25.4657" y2="23.2124" gradientUnits="userSpaceOnUse">
<stop stop-color="#54BEAF"/>
<stop offset="1" stop-color="#25488D"/>
</linearGradient>
<linearGradient id="paint1_linear_202_13117" x1="11.3734" y1="0.832886" x2="12.1378" y2="23.17" gradientUnits="userSpaceOnUse">
<stop stop-color="#54BEAF"/>
<stop offset="1" stop-color="#25488D"/>
</linearGradient>
<linearGradient id="paint2_linear_202_13117" x1="18.0787" y1="19.1207" x2="18.0787" y2="33.17" gradientUnits="userSpaceOnUse">
<stop stop-color="#0E2E62"/>
<stop offset="1" stop-color="#08154E"/>
</linearGradient>
<clipPath id="clip0_202_13117">
<rect width="37" height="34" fill="white"/>
</clipPath>
</defs>
</svg>
