<svg width="36" height="37" viewBox="0 0 36 37" fill="none" xmlns="http://www.w3.org/2000/svg">
<g clip-path="url(#clip0_202_14950)">
<path d="M18.0458 0.278809L0.302795 17.9645L18.0458 35.7319L35.7073 17.9645L18.0458 0.278809Z" fill="#019833"/>
<path d="M18.043 1.90266V0.409668L0.419495 17.9676H1.92962L18.043 1.90266Z" fill="#66FE98"/>
<path d="M18.043 1.90266V0.409668L35.7213 17.9676H34.0872L18.043 1.90266Z" fill="#45FE02"/>
<path d="M18.043 34.1075V35.7603L0.419495 17.9673H1.92962L18.043 34.1075Z" fill="#017D17"/>
<path d="M18.043 34.1075V35.7603L35.7213 17.9673H34.0872L18.043 34.1075Z" fill="#005D04"/>
<path d="M9.19004 32.3878H5.77376L4.4396 31.0876V6.26064H3.38071L2.47418 5.35286V2.57767L3.41329 1.55908H15.361L16.4352 2.63455V5.2686L15.5426 6.35656H14.6399V14.7488L23.1345 6.35656H22.6602L21.6723 5.29107V2.49805L22.643 1.60697H34.7026L35.657 2.56265V5.20427L9.19004 32.3878Z" fill="black"/>
<path d="M18.0429 36.0044L0.0298462 17.9675L18.0429 0.00439453L35.9818 17.9675L18.0429 36.0044ZM0.581625 17.9675L18.0429 35.4522L35.4298 17.9675L18.0429 0.557016L0.581625 17.9675Z" fill="black"/>
<path d="M15.2076 3.19816L15.7383 2.85535L15.1961 2.29248H3.70314L3.1192 2.87726V5.08915L3.76662 5.73741L4.07544 5.08915L3.6693 4.6823V3.12303L3.9739 2.85184L14.8247 2.86518L15.2076 3.19816Z" fill="#FEFEFE"/>
<path d="M5.85195 5.03662V30.924L6.21597 31.2706L5.92428 31.8218L5.15875 31.0678V5.70777L5.85195 5.03662Z" fill="#FEFEFE"/>
<path d="M3.99523 5.03674L3.7666 5.73753H5.15497L5.95813 5.03674H3.99523Z" fill="#808080"/>
<path d="M23.417 5.04609L22.9315 4.70315V3.31338L23.4393 2.80485H34.0352L34.4414 3.34722L35.0196 2.89094L34.4244 2.34717H23.033L22.4659 2.91496V5.14384L23.0631 5.68424L23.417 5.04609ZM13.8483 16.401L12.7418 19.0896L25.2334 6.54723L25.1723 5.02994L13.8483 16.401Z" fill="#FEFEFE"/>
<path d="M15.1827 3.18782L15.7385 2.85498V5.03625L15.1041 5.67145H13.8713L13.8484 16.4002L12.7462 19.0825V5.03625H14.8048L15.1878 4.72462L15.1827 3.18782Z" fill="#808080"/>
<path d="M34.4038 3.19503L35.0196 2.89014V4.88196L8.79422 31.8215H5.92438L6.20441 31.2921L8.40857 31.2922L34.4076 4.41079L34.4038 3.19503Z" fill="#808080"/>
<path d="M25.1723 5.02979L24.5336 5.67144L23.063 5.68408L23.4221 5.03948C23.4341 5.03948 25.1723 5.02979 25.1723 5.02979Z" fill="#808080"/>
<path d="M23.3386 2.78369L22.9328 3.18998V4.68198L23.2882 5.03785H25.1662V6.47944L12.7431 19.0883V5.05569H14.8076L15.2312 4.63157V3.12172L14.8402 2.81922H3.97514L3.61969 3.17523V4.71751L3.98104 5.07942H5.8709V30.9202L6.22635 31.276H8.37392L34.4081 4.37639V3.18998L34.0022 2.78369H23.3386Z" fill="#CCCCCC"/>
<path d="M8.38861 31.3107H6.21225L5.83672 30.9346V5.11392H3.96694L3.58551 4.73193V3.16113L3.96104 2.78518H14.8521L15.2657 3.1051V4.64598L14.822 5.09018H12.7774V19.0049L25.132 6.46548V5.07249H23.2741L22.8986 4.6964V3.17602L23.3244 2.74951H34.0165L34.4424 3.17602V4.39052L34.4329 4.40049L8.38861 31.3107ZM6.24076 31.242H8.35954L34.3739 4.36286V3.20439L33.9881 2.81819H23.3529L22.9671 3.20439V4.66803L23.3025 5.00381H25.2006V6.49371L25.1908 6.50368L12.7089 19.1723V5.02165H14.7935L15.197 4.61747V3.1388L14.8286 2.85372H3.98941L3.65404 3.18964V4.70356L3.99545 5.04538H5.90525V30.9061L6.24076 31.242Z" fill="#808080"/>
<path d="M18.928 20.2023C18.9082 20.2064 18.89 20.2156 18.8747 20.229L18.3712 20.6619C18.3562 20.6757 18.345 20.693 18.3386 20.7124L17.835 22.1243C17.8199 22.1666 17.8302 22.2138 17.8617 22.2459L18.2468 22.6314C18.2691 22.6529 18.2989 22.6646 18.3298 22.6642H19.8848C19.9157 22.6646 19.9455 22.6529 19.9677 22.6314L20.3736 22.2222C20.3876 22.2082 20.3977 22.1907 20.4032 22.1718L20.8357 20.6857C20.8477 20.6447 20.8363 20.6003 20.8061 20.5701L20.4713 20.2349C20.4491 20.2134 20.4192 20.2017 20.3885 20.2023H18.9518C18.9439 20.2014 18.9359 20.2014 18.928 20.2023ZM16.0786 24.1827C16.0349 24.1921 16.0005 24.2255 15.9897 24.2688L15.7971 25.034C15.7815 25.0967 15.8196 25.1603 15.8822 25.1759C15.8912 25.1781 15.9004 25.1793 15.9096 25.1794H16.825L14.5559 31.6662C14.5354 31.7276 14.5684 31.7939 14.6297 31.8144C14.6412 31.8183 14.6533 31.8204 14.6656 31.8205H17.9683C18.0193 31.8212 18.0648 31.7888 18.0809 31.7403L18.2972 31.0434C18.316 30.9816 18.2813 30.9161 18.2195 30.8972C18.2083 30.8938 18.1965 30.892 18.1846 30.8921H17.4381L19.6835 24.337C19.704 24.2757 19.671 24.2094 19.6097 24.1889C19.5982 24.185 19.586 24.1828 19.5738 24.1827H16.1022C16.0943 24.182 16.0864 24.182 16.0786 24.1827ZM26.5882 24.2064C26.5628 24.2118 26.5398 24.2253 26.5229 24.2451L25.8357 25.0221H24.7427L24.014 24.2658C23.9922 24.2432 23.9624 24.2305 23.9311 24.2302H21.3215C21.2724 24.2303 21.2286 24.2611 21.2118 24.3073L20.972 25.0252C20.9515 25.0864 20.9843 25.1527 21.0456 25.1734C21.0572 25.1771 21.0693 25.1793 21.0815 25.1794H21.7806L19.6064 31.595C19.5859 31.6564 19.6189 31.7227 19.6801 31.7433C19.6916 31.7471 19.7038 31.7492 19.716 31.7493H22.4945C22.5436 31.7492 22.5873 31.7184 22.6041 31.6722L22.8173 31.0463C22.8378 30.9851 22.805 30.9186 22.7437 30.8981C22.7321 30.8942 22.72 30.8922 22.7078 30.8921H22.222L23.6083 26.523H26.1172L24.5354 31.5981C24.5165 31.6599 24.5512 31.7253 24.613 31.7441C24.6243 31.7476 24.6361 31.7493 24.6479 31.7493H27.3286C27.3752 31.7489 27.4171 31.721 27.4353 31.6781L27.6752 31.1026C27.6991 31.0427 27.6697 30.9745 27.6097 30.9508C27.5965 30.9456 27.5826 30.9428 27.5686 30.9425H27.0828L28.4928 26.4992H30.8803L29.2748 31.5981C29.256 31.6599 29.2906 31.7253 29.3523 31.7441C29.3637 31.7476 29.3755 31.7493 29.3874 31.7493H32.3317C32.38 31.7496 32.4237 31.7201 32.4414 31.6752L32.6812 31.0493C32.7034 30.9886 32.6722 30.9215 32.6116 30.8993C32.5988 30.8945 32.5853 30.8921 32.5717 30.8921H31.988L33.7624 25.1231C33.7742 25.0866 33.7676 25.0468 33.7446 25.0162L33.1937 24.2747C33.1709 24.2458 33.1357 24.2292 33.0989 24.2302H30.9929C30.9604 24.2296 30.9294 24.2425 30.9069 24.2658L30.2434 24.9954H29.0822L28.3951 24.2421C28.3726 24.2188 28.3414 24.2059 28.3091 24.2064H26.6118C26.6039 24.2057 26.5961 24.2057 26.5882 24.2064Z" fill="#CCCCCC"/>
<path d="M18.0562 22.8283C18.1296 22.8991 18.2257 22.9379 18.3232 22.9379C18.3253 22.9379 18.3274 22.9379 18.3296 22.9377H19.8799C19.9841 22.9409 20.0827 22.9008 20.1626 22.824L20.5675 22.4154C20.6144 22.3685 20.6488 22.31 20.6666 22.2476L21.099 20.7618C21.1391 20.6243 21.1011 20.476 21 20.3753L20.6617 20.0364C20.5866 19.964 20.4879 19.9241 20.3883 19.9269H18.9614C18.9409 19.9258 18.9204 19.9262 18.9002 19.9283L18.8714 19.9328C18.8054 19.9467 18.7438 19.9774 18.6956 20.0198L18.192 20.453L18.1862 20.4582C18.1372 20.5028 18.1003 20.5593 18.0789 20.622L17.5764 22.0308C17.526 22.1713 17.5611 22.3309 17.6673 22.439L18.0562 22.8283ZM20.3248 20.4758L20.546 20.6973L20.1505 22.0562L19.8211 22.3887L18.3931 22.3889L18.1267 22.1221L18.5841 20.8399L19.0074 20.4758H20.3248Z" fill="black"/>
<path d="M33.9649 24.8522L33.414 24.1107L33.409 24.1044C33.334 24.0091 33.218 23.9539 33.0966 23.9555H30.9973C30.8882 23.953 30.7847 23.9971 30.7096 24.0746L30.122 24.7207H29.2034L28.5978 24.0569L28.5922 24.0509C28.5172 23.9733 28.4134 23.9319 28.3091 23.9318H26.6216C26.6012 23.9306 26.5806 23.9311 26.5603 23.9332L26.532 23.9375C26.4476 23.9551 26.3702 24.001 26.3172 24.0629L25.7119 24.7474H24.8594L24.2112 24.0747C24.1389 23.9999 24.0375 23.9563 23.9311 23.9555H21.3206C21.157 23.9559 21.0097 24.0596 20.9538 24.2135L20.7117 24.9374C20.643 25.142 20.7535 25.3645 20.9583 25.4333C20.997 25.4462 21.0375 25.4531 21.0814 25.4535H21.3977L19.3459 31.5078C19.2777 31.7121 19.3882 31.9344 19.5927 32.0033C19.6316 32.0162 19.672 32.0231 19.716 32.0235H22.4952C22.659 32.0231 22.8064 31.9193 22.8639 31.7604L23.0776 31.1332C23.146 30.9288 23.0355 30.7065 22.8309 30.6376C22.792 30.6246 22.7515 30.6177 22.7077 30.6173H22.5969L23.809 26.7972H25.744L24.2727 31.5175C24.2097 31.7239 24.3263 31.9431 24.5321 32.0062C24.5702 32.0179 24.6109 32.0226 24.6479 32.0235H27.3309C27.4868 32.0222 27.627 31.9287 27.6886 31.7835L27.9304 31.2035C28.0098 31.0028 27.9113 30.7749 27.7116 30.6956C27.6671 30.6778 27.6203 30.6685 27.5685 30.6677H27.4579L28.6936 26.7735H30.5059L29.0121 31.5178C28.9493 31.7241 29.0659 31.9433 29.2716 32.0062C29.3088 32.0177 29.3476 32.0235 29.3852 32.0235H29.3873H32.3298C32.4924 32.0225 32.6379 31.9249 32.6976 31.7731L32.939 31.1432C33.013 30.9406 32.9085 30.7153 32.7059 30.6412C32.6633 30.6256 32.6185 30.6176 32.5716 30.6173H32.3596L34.0233 25.2079C34.0629 25.0866 34.0407 24.953 33.9649 24.8522ZM31.6164 31.1663H32.3423L32.224 31.4745H29.6012L31.2544 26.2245H28.2918L26.7076 31.2168H27.3301L27.2226 31.4745H24.8612L26.4901 26.2483H23.4072L21.8468 31.1663H22.4864L22.3813 31.4745H19.9369L22.1634 24.9046H21.3015L21.4352 24.5045H23.8629L24.6259 25.2964H25.9594L26.6805 24.4807L28.2414 24.4806L28.961 25.2697H30.3648L31.0606 24.5045H33.0226L33.477 25.1162L31.6164 31.1663Z" fill="black"/>
<path d="M18.3004 30.6349C18.2625 30.6232 18.2245 30.6186 18.1847 30.6176H17.8223L19.9438 24.4244C20.0124 24.2197 19.9018 23.9974 19.697 23.9285C19.6584 23.9156 19.618 23.9087 19.5739 23.9083H16.1121C16.0916 23.9072 16.0711 23.9076 16.0507 23.9097L16.0208 23.9145C15.8739 23.9461 15.7599 24.0563 15.7235 24.2018L15.5308 24.9678C15.4787 25.177 15.6065 25.3898 15.8165 25.4425C15.8462 25.4498 15.877 25.4537 15.9097 25.4538H16.4382L14.2958 31.579C14.2271 31.7838 14.3379 32.0061 14.5424 32.0748C14.5813 32.0877 14.6218 32.0946 14.6657 32.095H17.9645H17.9702C18.1393 32.095 18.288 31.9878 18.3432 31.8217L18.5598 31.1236C18.6228 30.9173 18.5063 30.6979 18.3004 30.6349ZM14.8889 31.546L17.2118 24.9049H16.1128L16.2254 24.4573H19.3521L17.054 31.1665H17.9716L17.8539 31.546H14.8889Z" fill="black"/>
</g>
<defs>
<clipPath id="clip0_202_14950">
<rect width="36" height="37" fill="white"/>
</clipPath>
</defs>
</svg>
