<svg width="36" height="32" viewBox="0 0 36 32" fill="none" xmlns="http://www.w3.org/2000/svg">
<g clip-path="url(#clip0_202_10997)">
<path d="M35.9826 7.62055C35.8224 11.1317 33.3747 15.9395 28.6407 22.0415C23.7461 28.4157 19.605 31.6025 16.2174 31.6025C14.1197 31.6025 12.343 29.6621 10.893 25.7798C9.92382 22.2212 8.95578 18.6629 7.98701 15.1043C6.90952 11.2242 5.75428 9.2816 4.51911 9.2816C4.24983 9.2816 3.30734 9.84932 1.69381 10.9804L0 8.79416C1.77661 7.22995 3.52946 5.66609 5.25387 4.10008C7.62341 2.04843 9.40218 0.969505 10.5877 0.860424C13.3896 0.590782 15.114 2.50959 15.7613 6.61722C16.4607 11.0489 16.9446 13.8054 17.2168 14.8843C18.0242 18.561 18.9127 20.397 19.8836 20.397C20.6371 20.397 21.769 19.2047 23.2781 16.82C24.7858 14.4347 25.5933 12.6199 25.7024 11.3732C25.9169 9.31472 25.1091 8.28295 23.2781 8.28295C22.4163 8.28295 21.5278 8.48167 20.6137 8.87444C22.3828 3.06796 25.7632 0.24806 30.7528 0.408981C34.4519 0.517702 36.1957 2.92144 35.9826 7.62055Z" fill="#32B8E8"/>
</g>
<defs>
<clipPath id="clip0_202_10997">
<rect width="36" height="32" fill="white"/>
</clipPath>
</defs>
</svg>
