<svg width="48" height="49" viewBox="0 0 48 49" fill="none" xmlns="http://www.w3.org/2000/svg">
<path d="M0.000488281 24.0024C0.000488281 10.7476 10.7457 0.00244141 24.0005 0.00244141C37.2553 0.00244141 48.0005 10.7476 48.0005 24.0024C48.0005 37.2573 37.2553 48.0024 24.0005 48.0024C10.7457 48.0024 0.000488281 37.2573 0.000488281 24.0024Z" fill="#31AFD8"/>
<path d="M37.5863 19.3644C37.4581 22.1678 35.5003 26.0056 31.7126 30.878C27.797 35.9656 24.4839 38.5106 21.7748 38.5106C20.0954 38.5106 18.6749 36.962 17.5142 33.8624C16.7394 31.0212 15.9652 28.1803 15.1901 25.3391C14.3279 22.2412 13.404 20.6905 12.415 20.6905C12.1994 20.6905 11.4456 21.1439 10.1546 22.0465L8.80029 20.3016C10.2217 19.0532 11.6236 17.8045 13.0028 16.5541C14.8985 14.9168 16.3226 14.055 17.2711 13.9683C19.5115 13.7528 20.8911 15.2844 21.4089 18.5634C21.9685 22.1017 22.356 24.3019 22.5732 25.1631C23.2202 28.0986 23.9312 29.5649 24.7074 29.5649C25.3095 29.5649 26.2155 28.613 27.423 26.708C28.6283 24.8044 29.2746 23.3557 29.3616 22.3601C29.5339 20.7171 28.8877 19.8935 27.423 19.8935C26.7336 19.8935 26.0225 20.0522 25.2912 20.3657C26.707 15.7305 29.4111 13.4791 33.4024 13.6076C36.3615 13.6943 37.7573 15.6132 37.5863 19.3644Z" fill="#FFFFFE"/>
</svg>
