<svg width="37" height="36" viewBox="0 0 37 36" fill="none" xmlns="http://www.w3.org/2000/svg">
<path d="M19.5747 9.43103H34.4375C35.3038 9.43103 36.0061 10.1333 36.0061 10.9996V25.0053C36.0061 25.8716 35.3038 26.5739 34.4375 26.5739H19.5747C18.7084 26.5739 18.0061 25.8716 18.0061 25.0053V10.9996C18.0061 10.1333 18.7084 9.43103 19.5747 9.43103Z" fill="#2B7CD3"/>
<path d="M27.4347 9.43098C27.4364 9.84701 27.2694 10.246 26.9718 10.5367L20.5776 16.931L19.969 17.5396C19.8901 17.6155 19.8072 17.687 19.7204 17.7538C19.4639 17.9159 19.1667 18.002 18.8633 18.0024C18.4472 18.0042 18.0483 17.8371 17.7576 17.5396L10.7547 10.5367C10.2261 10.0155 10.14 9.19328 10.549 8.57383C10.6102 8.48517 10.6791 8.402 10.7547 8.32525L17.7576 1.32241C18.3593 0.711746 19.3421 0.704486 19.9528 1.30619C19.9582 1.31156 19.9636 1.31696 19.969 1.32241L26.9719 8.32527C27.2694 8.616 27.4364 9.01495 27.4347 9.43098Z" fill="#41A5EE"/>
<path d="M27.4347 26.5739C27.4345 31.3077 23.5967 35.1451 18.8629 35.1449C15.8009 35.1448 12.9715 33.5113 11.4404 30.8596C11.2755 30.5855 11.1322 30.2989 11.0118 30.0025C10.8855 29.7238 10.7767 29.4375 10.6861 29.1453C9.26594 24.6295 11.7755 19.8174 16.2913 18.3973C17.1235 18.1355 17.9908 18.0024 18.8633 18.0024C19.1547 18.0024 19.4375 18.0196 19.7204 18.0453C20.0085 18.0701 20.2948 18.113 20.5776 18.1739C24.5659 18.9938 27.4299 22.5022 27.4347 26.5739Z" fill="#103F91"/>
<path opacity="0.1" d="M20.5775 10.1423V28.4337C20.5732 29.0693 20.188 29.6403 19.6003 29.8823C19.4132 29.9615 19.2121 30.0023 19.0089 30.0023H11.0118C10.8855 29.7236 10.7767 29.4374 10.686 29.1452C9.26588 24.6293 11.7754 19.8173 16.2912 18.3971C17.1235 18.1354 17.9908 18.0022 18.8632 18.0023C18.4471 18.004 18.0482 17.837 17.7575 17.5394L10.7546 10.5366C10.226 10.0154 10.1399 9.19317 10.5489 8.57373H19.0089C19.5956 8.57724 20.1314 8.90794 20.3975 9.43088C20.5179 9.64849 20.58 9.89359 20.5775 10.1423Z" fill="black"/>
<path opacity="0.2" d="M19.7204 10.9996V29.291C19.7204 29.4942 19.6796 29.6953 19.6004 29.8825C19.3584 30.4702 18.7874 30.8554 18.1518 30.8596H11.4404C11.2755 30.5855 11.1322 30.2989 11.0118 30.0025C10.8855 29.7238 10.7767 29.4375 10.6861 29.1453C9.26594 24.6295 11.7755 19.8174 16.2913 18.3973C17.1235 18.1355 17.9908 18.0024 18.8633 18.0025C18.4472 18.0042 18.0483 17.8372 17.7575 17.5396L10.7547 10.5367C10.4571 10.246 10.2901 9.84707 10.2918 9.43104H18.1518C18.5865 9.42952 19.0012 9.61347 19.2918 9.93675C19.5658 10.2229 19.7193 10.6034 19.7204 10.9996Z" fill="black"/>
<path opacity="0.2" d="M19.7204 10.9996V27.5768C19.7139 28.4403 19.0154 29.1388 18.1518 29.1453H10.6861C9.26594 24.6295 11.7755 19.8174 16.2913 18.3973C17.1235 18.1356 17.9908 18.0024 18.8633 18.0025C18.4472 18.0042 18.0483 17.8372 17.7575 17.5396L10.7547 10.5367C10.4571 10.246 10.2901 9.84707 10.2918 9.43104H18.1518C18.5865 9.42952 19.0012 9.61347 19.2918 9.93675C19.5658 10.2229 19.7193 10.6034 19.7204 10.9996Z" fill="black"/>
<path opacity="0.2" d="M18.8633 10.9996V18.0025C18.4472 18.0042 18.0483 17.8372 17.7575 17.5396L10.7547 10.5367C10.4571 10.246 10.2901 9.84706 10.2918 9.43103H17.2947C18.1596 9.43432 18.86 10.1347 18.8633 10.9996Z" fill="black"/>
<path opacity="0.2" d="M18.8633 18.0024V27.5767C18.8567 28.4403 18.1583 29.1388 17.2947 29.1453H10.6861C9.26594 24.6295 11.7755 19.8174 16.2913 18.3973C17.1235 18.1355 17.9908 18.0024 18.8633 18.0024Z" fill="black"/>
<path d="M1.57725 9.43103H17.2921C18.1598 9.43103 18.8633 10.1344 18.8633 11.0022V26.717C18.8633 27.5847 18.1598 28.2882 17.2921 28.2882H1.57725C0.70952 28.2882 0.00610352 27.5847 0.00610352 26.717V11.0022C0.00610352 10.1345 0.70952 9.43103 1.57725 9.43103Z" fill="url(#paint0_linear_202_9444)"/>
<path d="M8.92039 20.5122C9.20897 21.3625 9.38039 21.8991 9.43467 22.122H9.46982C9.52182 21.8991 9.70725 21.3245 10.0261 20.3982L12.3121 13.752H14.4138L10.5352 23.9665H8.2844L4.46326 13.752H6.62498L8.92039 20.5122Z" fill="white"/>
<defs>
<linearGradient id="paint0_linear_202_9444" x1="3.28197" y1="8.20337" x2="15.5874" y2="29.5158" gradientUnits="userSpaceOnUse">
<stop stop-color="#2368C4"/>
<stop offset="0.5" stop-color="#1A5DBE"/>
<stop offset="1" stop-color="#1146AC"/>
</linearGradient>
</defs>
</svg>
