<svg width="37" height="36" viewBox="0 0 37 36" fill="none" xmlns="http://www.w3.org/2000/svg">
<g clip-path="url(#clip0_202_14902)">
<path d="M5.20735 28.2798C4.77723 28.6473 4.17691 28.7416 3.65485 28.5236L0.928604 27.3798C0.372659 27.1479 0.00937001 26.6059 0.00610352 26.0035V10.0061C0.00937001 9.40369 0.372659 8.86171 0.928604 8.6298L3.65485 7.5048C4.17691 7.28677 4.77723 7.38102 5.20735 7.74855L5.8186 8.2548C5.56587 8.07311 5.23263 8.04836 4.95582 8.19072C4.67902 8.33307 4.50532 8.61853 4.5061 8.9298V27.0798C4.50532 27.3911 4.67902 27.6765 4.95582 27.8189C5.23263 27.9612 5.56587 27.9365 5.8186 27.7548L5.20735 28.2798Z" fill="#52218A"/>
<path d="M0.928604 27.3797C0.372659 27.1478 0.00937001 26.6058 0.00610352 26.0035V25.8797C0.0098854 26.234 0.228983 26.5502 0.55931 26.6782C0.889636 26.8062 1.26461 26.7202 1.5061 26.461L24.7561 0.754726C25.4308 0.0833906 26.4549 -0.0907992 27.3136 0.319726L34.7311 3.88973C35.5108 4.26462 36.0065 5.05334 36.0061 5.91848V6.00473C36.0056 5.45579 35.6891 4.9562 35.1929 4.72135C34.6968 4.48649 34.1097 4.55836 33.6849 4.90598L5.8186 27.7547L5.20735 28.2797C4.77723 28.6473 4.17691 28.7415 3.65485 28.5235L0.928604 27.3797Z" fill="#6C33AF"/>
<path d="M0.928604 8.62972C0.372659 8.86163 0.00937001 9.40361 0.00610352 10.006V10.1297C0.0098854 9.77548 0.228983 9.45924 0.55931 9.33124C0.889636 9.20324 1.26461 9.28928 1.5061 9.54847L24.7561 35.2547C25.4308 35.9261 26.4549 36.1002 27.3136 35.6897L34.7311 32.1197C35.5108 31.7448 36.0065 30.9561 36.0061 30.091V30.0047C36.0056 30.5537 35.6891 31.0532 35.1929 31.2881C34.6968 31.523 34.1097 31.4511 33.6849 31.1035L5.8186 8.25472L5.20735 7.72972C4.77343 7.36853 4.17346 7.28158 3.65485 7.50472L0.928604 8.62972Z" fill="#854CC7"/>
<path d="M27.3136 35.6897C26.4549 36.1003 25.4308 35.9261 24.7561 35.2547C25.134 35.6299 25.7003 35.7413 26.1921 35.5372C26.6839 35.3331 27.0049 34.8535 27.0061 34.321V1.69598C27.0079 1.16214 26.688 0.679752 26.1955 0.473729C25.703 0.267705 25.1349 0.378606 24.7561 0.754726C25.4308 0.0833906 26.4549 -0.0907992 27.3136 0.319726L34.7311 3.88598C35.5108 4.26087 36.0065 5.04959 36.0061 5.91473V30.0947C36.0065 30.9599 35.5108 31.7486 34.7311 32.1235L27.3136 35.6897Z" fill="#B179F1"/>
<path d="M25.8399 35.8548C26.3356 35.9679 26.8551 35.9097 27.3136 35.6898L34.7311 32.1235C35.5108 31.7486 36.0065 30.9599 36.0061 30.0948V5.91478C36.0065 5.04965 35.5108 4.26092 34.7311 3.88603L27.3136 0.31978C26.7888 0.0674984 26.1866 0.0285168 25.6336 0.21103C25.3029 0.321824 25.0025 0.507973 24.7561 0.75478L12.8011 13.9773L5.8186 8.25478L5.20735 7.72978C4.83422 7.41075 4.3286 7.2945 3.8536 7.41853C3.78508 7.43367 3.71843 7.45631 3.65485 7.48603L0.928604 8.62978C0.408357 8.84459 0.052149 9.33257 0.00610352 9.89353C0.00610352 9.93103 0.00610352 9.96853 0.00610352 10.006V26.0035C0.00610352 26.041 0.00610352 26.0785 0.00610352 26.116C0.052149 26.677 0.408357 27.165 0.928604 27.3798L3.65485 28.5048C3.71843 28.5345 3.78508 28.5571 3.8536 28.5723C4.3286 28.6963 4.83422 28.5801 5.20735 28.261L5.8186 27.7548L12.8011 22.0323L24.7561 35.2548C25.0541 35.5522 25.4296 35.7601 25.8399 35.8548ZM27.0061 10.3848L17.7099 18.0048L27.0061 25.6248V10.3848ZM4.5061 12.856L9.15985 18.0048L4.5061 23.1535V12.856Z" fill="url(#paint0_linear_202_14902)" fill-opacity="0.25"/>
</g>
<defs>
<linearGradient id="paint0_linear_202_14902" x1="18.0061" y1="0.0985303" x2="18.0061" y2="35.911" gradientUnits="userSpaceOnUse">
<stop stop-color="white"/>
<stop offset="1" stop-color="white" stop-opacity="0"/>
</linearGradient>
<clipPath id="clip0_202_14902">
<rect width="37" height="36" fill="white"/>
</clipPath>
</defs>
</svg>
