<svg width="36" height="37" viewBox="0 0 36 37" fill="none" xmlns="http://www.w3.org/2000/svg">
<g clip-path="url(#clip0_202_9254)">
<path d="M35.863 5.3337L18.9733 35.5355C18.6245 36.1591 17.7286 36.1627 17.3747 35.5422L0.150034 5.33661C-0.235573 4.6604 0.342662 3.84132 1.10894 3.97828L18.0168 7.00046C18.1246 7.01974 18.2351 7.01955 18.3429 6.9999L34.8972 3.98261C35.6609 3.84342 36.2418 4.65616 35.863 5.3337Z" fill="url(#paint0_linear_202_9254)"/>
<path d="M26.0709 0.0142339L13.572 2.46335C13.3666 2.5036 13.2145 2.6777 13.2021 2.88663L12.4332 15.872C12.4151 16.1779 12.696 16.4152 12.9945 16.3464L16.4744 15.5433C16.8 15.4682 17.0942 15.755 17.0273 16.0824L15.9934 21.1451C15.9238 21.4858 16.2437 21.7772 16.5765 21.6761L18.7258 21.0231C19.059 20.9219 19.3792 21.2141 19.3087 21.5551L17.6657 29.5074C17.5629 30.0049 18.2245 30.2761 18.5005 29.8496L18.6848 29.5648L28.8696 9.23923C29.0401 8.8989 28.746 8.51085 28.3723 8.58298L24.7903 9.27429C24.4537 9.33919 24.1673 9.02572 24.2623 8.69639L26.6002 0.591842C26.6953 0.26196 26.4079 -0.0517855 26.0709 0.0142339Z" fill="url(#paint1_linear_202_9254)"/>
</g>
<defs>
<linearGradient id="paint0_linear_202_9254" x1="-0.270519" y1="6.41496" x2="17.9451" y2="31.1532" gradientUnits="userSpaceOnUse">
<stop stop-color="#41D1FF"/>
<stop offset="1" stop-color="#BD34FE"/>
</linearGradient>
<linearGradient id="paint1_linear_202_9254" x1="19.5837" y1="0.679163" x2="23.3309" y2="26.3846" gradientUnits="userSpaceOnUse">
<stop stop-color="#FFEA83"/>
<stop offset="0.0833333" stop-color="#FFDD35"/>
<stop offset="1" stop-color="#FFA800"/>
</linearGradient>
<clipPath id="clip0_202_9254">
<rect width="36" height="37" fill="white"/>
</clipPath>
</defs>
</svg>
