<svg width="36" height="36" viewBox="0 0 36 36" fill="none" xmlns="http://www.w3.org/2000/svg">
<g clip-path="url(#clip0_202_12367)">
<path d="M18.0011 36.0003C25.889 36.0003 30.2723 36.0003 33.1367 33.1359C36.0011 30.2715 36.0011 25.8882 36.0011 18.0003C36.0011 10.1125 36.0011 5.72915 33.1367 2.86478C30.2723 0.000427246 25.889 0.000427246 18.0011 0.000427246C10.1133 0.000427246 5.72453 0.000427246 2.86559 2.86478C0.00664547 5.72915 0.0012207 10.1125 0.0012207 18.0003C0.0012207 25.8882 0.0012207 30.2715 2.86559 33.1359C5.72994 36.0003 10.1133 36.0003 18.0011 36.0003Z" fill="#EF3939"/>
<path d="M29.7042 11.3395C28.8353 9.77269 27.3405 8.48974 25.9334 7.38051C24.5261 6.27127 23.1447 5.60298 21.4181 5.12376C19.6914 4.64455 17.9268 4.65342 16.1492 4.87873C14.3714 5.10405 12.8418 5.50981 11.2893 6.40462C9.73686 7.29943 8.53107 8.39505 7.44527 9.82024C6.35946 11.2454 5.63801 12.6607 5.18765 14.3947C4.73729 16.1287 4.57409 18.0499 4.82919 19.8231C5.08428 21.5964 5.39411 23.2839 6.31502 24.8208L6.39095 24.9508L12.7319 35.943C13.7842 35.9719 14.9232 35.9845 16.1492 35.9809H17.9499C20.8254 36.0427 23.7023 35.9577 26.5691 35.7261C29.4384 35.4115 31.4996 34.7065 33.078 33.1177C35.3996 30.7966 35.8391 27.4779 35.9204 22.1092L29.7042 11.3395Z" fill="url(#paint0_linear_202_12367)"/>
<path d="M27.5367 8.44988C25.6487 6.56318 23.2437 5.27871 20.6261 4.75886C18.0083 4.239 15.2952 4.5071 12.8299 5.52926C10.3644 6.55142 8.25734 8.28174 6.77489 10.5015C5.29244 12.7213 4.50122 15.3309 4.50122 18.0003C4.50122 20.6698 5.29244 23.2794 6.77489 25.4992C8.25734 27.7189 10.3644 29.4493 12.8299 30.4714C15.2952 31.4935 18.0083 31.7617 20.6261 31.2418C23.2437 30.7219 25.6487 29.4375 27.5367 27.5508C28.7933 26.2981 29.7903 24.8097 30.4706 23.1708C31.1508 21.5319 31.5011 19.7749 31.5011 18.0003C31.5011 16.2258 31.1508 14.4687 30.4706 12.8299C29.7903 11.191 28.7933 9.70254 27.5367 8.44988ZM26.7275 14.6647C24.5006 18.54 22.2756 22.4134 20.0525 26.2851C19.8771 26.6283 19.6158 26.9203 19.2941 27.1326C18.9725 27.3448 18.6012 27.4702 18.2168 27.4965C17.7923 27.5439 17.3634 27.462 16.9863 27.2613C16.6094 27.0606 16.3017 26.7505 16.104 26.3719C14.6973 23.949 13.3015 21.5098 11.9057 19.0759C11.0512 17.5983 10.2003 16.117 9.35301 14.6321C9.15188 14.2987 9.04097 13.9187 9.03117 13.5294C9.02138 13.1401 9.11304 12.755 9.29715 12.4119C9.48126 12.0688 9.75149 11.7795 10.0812 11.5725C10.411 11.3655 10.7889 11.248 11.1779 11.2314C11.5966 11.2057 12.0138 11.3018 12.379 11.5081C12.7443 11.7144 13.0421 12.0221 13.2363 12.3939C13.8663 13.4804 14.4855 14.567 15.1047 15.6535C15.5555 16.4358 15.9899 17.218 16.4516 17.9895C16.7451 18.5226 17.1713 18.9708 17.6889 19.2907C18.2067 19.6105 18.7982 19.791 19.4061 19.8148C20.3295 19.872 21.2394 19.5717 21.9473 18.9759C22.6551 18.3801 23.1065 17.5348 23.208 16.615C23.208 16.4683 23.208 16.3216 23.2406 16.2456C23.2439 15.6643 23.1137 15.0901 22.8605 14.567C22.7051 14.2788 22.6148 13.9602 22.5956 13.6334C22.5764 13.3066 22.629 12.9795 22.7496 12.6752C22.8702 12.3709 23.0561 12.0967 23.2938 11.8718C23.5317 11.6469 23.8158 11.4768 24.1263 11.3734C24.4368 11.27 24.7662 11.2358 25.0914 11.2733C25.4165 11.3107 25.7295 11.4188 26.0084 11.5901C26.2874 11.7614 26.5254 11.9916 26.7059 12.2647C26.8863 12.5378 27.005 12.847 27.0533 13.1708C27.1145 13.6912 26.9997 14.2171 26.7275 14.6647Z" fill="white"/>
</g>
<defs>
<linearGradient id="paint0_linear_202_12367" x1="11.2582" y1="6.33421" x2="28.4302" y2="36.0868" gradientUnits="userSpaceOnUse">
<stop stop-opacity="0.2"/>
<stop offset="0.79" stop-opacity="0.05"/>
</linearGradient>
<clipPath id="clip0_202_12367">
<rect width="36.0011" height="36.0004" fill="white"/>
</clipPath>
</defs>
</svg>
