<svg width="36" height="36" viewBox="0 0 36 36" fill="none" xmlns="http://www.w3.org/2000/svg">
<g clip-path="url(#clip0_202_14783)">
<mask id="mask0_202_14783" style="mask-type:alpha" maskUnits="userSpaceOnUse" x="0" y="0" width="37" height="36">
<path d="M0.790692 0.238571L10.3806 1.16239C10.9889 1.22106 11.6467 1.73694 11.8487 2.31376L18.0168 19.9373L24.1549 2.31426C24.3515 1.74974 24.9847 1.24353 25.5816 1.16686L25.6213 1.16239L35.2113 0.238571C35.8196 0.179899 36.1456 0.59925 35.9388 1.17439L23.7441 35.0853L23.686 35.2467C23.6199 35.4306 23.4602 35.5924 23.2739 35.6851C23.206 35.7374 23.114 35.7677 23.004 35.7677H13.6106C13.599 35.7677 13.5874 35.7675 13.576 35.7672L13.6106 35.7677C13.5935 35.7677 13.5764 35.7673 13.5592 35.7666C13.5531 35.7663 13.5472 35.766 13.5412 35.7656C12.9501 35.7324 12.3276 35.2792 12.1285 34.7257L0.0631221 1.17439C-0.143616 0.59925 0.182313 0.179899 0.790692 0.238571Z" fill="white"/>
</mask>
<g mask="url(#mask0_202_14783)">
<path d="M23.7447 35.0853L35.9394 1.17439C36.1462 0.59925 35.8202 0.179899 35.2118 0.238571L25.6219 1.16239C25.0136 1.22106 24.3565 1.73719 24.1555 2.31426L12.8682 34.7221C12.6671 35.2992 13.0001 35.7677 13.6112 35.7677H22.9456C23.2511 35.7677 23.5832 35.5344 23.6866 35.2467L23.7447 35.0853Z" fill="#536B8A"/>
<g filter="url(#filter0_d_202_14783)">
<path d="M22.3527 35.2466L17.2754 20.5793L18.0007 20.1259L23.1687 35.0852L22.3527 35.2466Z" fill="black"/>
</g>
<path d="M0.790692 0.238571L10.3806 1.16239C10.9889 1.22106 11.6467 1.73694 11.8487 2.31376L23.3748 35.2452C23.4757 35.5337 23.3096 35.7677 23.004 35.7677H13.6106C12.9995 35.7677 12.3354 35.3008 12.1285 34.7257L0.0631221 1.17439C-0.143616 0.59925 0.182313 0.179899 0.790692 0.238571Z" fill="#5D87BF"/>
</g>
</g>
<defs>
<filter id="filter0_d_202_14783" x="11.2754" y="16.1259" width="17.8936" height="27.1207" filterUnits="userSpaceOnUse" color-interpolation-filters="sRGB">
<feFlood flood-opacity="0" result="BackgroundImageFix"/>
<feColorMatrix in="SourceAlpha" type="matrix" values="0 0 0 0 0 0 0 0 0 0 0 0 0 0 0 0 0 0 127 0" result="hardAlpha"/>
<feOffset dy="2"/>
<feGaussianBlur stdDeviation="3"/>
<feColorMatrix type="matrix" values="0 0 0 0 0 0 0 0 0 0 0 0 0 0 0 0 0 0 0.3 0"/>
<feBlend mode="normal" in2="BackgroundImageFix" result="effect1_dropShadow_202_14783"/>
<feBlend mode="normal" in="SourceGraphic" in2="effect1_dropShadow_202_14783" result="shape"/>
</filter>
<clipPath id="clip0_202_14783">
<rect width="36.001" height="36" fill="white"/>
</clipPath>
</defs>
</svg>
