<svg width="41" height="22" viewBox="0 0 41 22" fill="none" xmlns="http://www.w3.org/2000/svg">
<g clip-path="url(#clip0_202_11922)">
<path d="M10.6097 0.459961L14.4058 13.3683L18.2035 0.459961H20.9512L14.667 21.6674H14.4055L10.4778 8.52517L6.55051 21.6674H6.28866L0.00537109 0.459961H2.75472L6.55051 13.3683L9.11669 4.67652L7.86004 0.460276H10.6097V0.459961Z" fill="#005A9C"/>
<path d="M28.7561 14.8598C28.7561 16.7808 28.245 18.3953 27.226 19.7045C26.2038 21.0131 24.8814 21.6674 23.2584 21.6674C22.0367 21.6674 20.9726 21.2777 20.0647 20.5023C19.1567 19.7249 18.4848 18.6732 18.0486 17.3482L20.1949 16.4579C20.51 17.261 20.9241 17.8936 21.439 18.355C21.9539 18.8173 22.5594 19.0496 23.2584 19.0496C23.9914 19.0496 24.6117 18.6385 25.118 17.8187C25.6244 16.9986 25.8768 16.0129 25.8768 14.8601C25.8768 13.5858 25.6058 12.6007 25.0642 11.9021C24.4364 11.0825 23.45 10.6709 22.1068 10.6709H21.0598V9.41487L24.725 3.07871H20.2994L19.0686 5.17314H18.284V0.459961H28.4937V1.74243L24.6195 8.41974C25.9804 8.85562 27.0101 9.65059 27.7085 10.8024C28.4071 11.954 28.7561 13.3054 28.7561 14.8598Z" fill="#005A9C"/>
<path d="M39.4112 0.341309L39.8562 3.04786L38.2801 6.06378C38.2801 6.06378 37.6746 4.78477 36.6697 4.07666C35.8222 3.47902 35.2702 3.34999 34.4082 3.52717C33.2982 3.75691 32.0428 5.08124 31.4945 6.71524C30.8387 8.66962 30.8324 9.61628 30.8091 10.4849C30.7729 11.8785 30.9916 12.7014 30.9916 12.7014C30.9916 12.7014 30.0349 10.9308 30.044 8.33759C30.0497 6.48644 30.342 4.80712 31.1978 3.1514C31.9518 1.69521 33.0703 0.821249 34.0645 0.719282C35.0917 0.611334 35.905 1.10607 36.5322 1.64392C37.1896 2.20663 37.8581 3.43716 37.8581 3.43716L39.4112 0.341309Z" fill="#221B0A"/>
<path d="M39.6038 15.6597C39.6038 15.6597 38.9089 16.905 38.4743 17.3844C38.0403 17.864 37.263 18.709 36.304 19.1326C35.3445 19.5553 34.8419 19.6355 33.893 19.5436C32.9457 19.4524 32.0655 18.9041 31.7573 18.6737C31.4492 18.4465 30.6602 17.7724 30.2162 17.1461C29.7693 16.5167 29.0725 15.2594 29.0725 15.2594C29.0725 15.2594 29.4606 16.5186 29.7041 17.053C29.8432 17.3604 30.2738 18.3008 30.884 19.1213C31.4521 19.8845 32.5567 21.1997 34.2364 21.4958C35.9157 21.7932 37.0694 21.0398 37.3542 20.8566C37.6397 20.6747 38.2414 20.1712 38.6232 19.763C39.021 19.3378 39.3971 18.794 39.6038 18.4701C39.7571 18.2316 40.0054 17.7507 40.0054 17.7507L39.6038 15.6597Z" fill="#221B0A"/>
</g>
<defs>
<clipPath id="clip0_202_11922">
<rect width="41" height="22" fill="white"/>
</clipPath>
</defs>
</svg>
