<svg width="30" height="40" viewBox="0 0 30 40" fill="none" xmlns="http://www.w3.org/2000/svg">
<g clip-path="url(#clip0_202_13877)">
<path d="M21.5573 28.7502C21.486 26.2567 21.4722 24.3796 21.4195 23.13L29.7767 14.7727L15.005 0.000915527L0.233032 14.7726L15.005 29.5445L17.5411 27.0083C17.5394 28.5901 17.5553 30.9816 17.4846 34.4862C17.4402 36.6894 16.8759 37.1134 16.701 38.3465C16.574 39.242 17.222 40.0009 17.8649 40.0009C18.5078 40.0009 19.0894 39.2561 19.0289 38.3465C18.9706 37.4684 18.4717 36.7095 18.4279 34.5293C18.3451 30.4243 18.3306 27.8325 18.2677 26.2818L20.7766 23.7728C20.776 24.9832 20.7869 26.6333 20.727 28.7234C20.6878 30.088 20.1911 30.3505 20.0371 31.1143C19.9252 31.6689 20.4958 32.139 21.0618 32.139C21.6277 32.139 22.1396 31.6777 22.0865 31.1143C22.0352 30.5704 21.596 30.1005 21.5573 28.7502ZM19.7296 11.4237L21.7031 9.45026L23.6764 11.4237L21.7029 13.397L19.7296 11.4237ZM20.3273 14.7727L18.3539 16.746L16.3806 14.7727L18.354 12.7993L20.3273 14.7727ZM18.354 10.0481L16.3805 8.07452L18.3539 6.1011L20.3274 8.07475L18.354 10.0481ZM16.9784 11.4237L15.005 13.397L13.0315 11.4237L15.0048 9.45026L16.9784 11.4237ZM11.6559 10.0479L9.68249 8.07464L11.6559 6.10121L13.6292 8.07452L11.6559 10.0479ZM10.2802 11.4237L8.30675 13.3971L6.33333 11.4237L8.30675 9.45026L10.2802 11.4237ZM11.6559 12.7993L13.6293 14.7726L11.6558 16.7462L9.68249 14.7727L11.6559 12.7993ZM10.2802 18.1218L8.30675 20.0951L6.33345 18.1218L8.30675 16.1485L10.2802 18.1218ZM11.6558 19.4974L13.6291 21.4708L11.6558 23.4441L9.68249 21.4707L11.6558 19.4974ZM13.0314 18.1218L15.005 16.1482L16.9783 18.1217L15.0048 20.0952L13.0314 18.1218ZM18.354 19.4973L20.3274 21.4707L18.3539 23.4443L16.3805 21.4708L18.354 19.4973ZM19.7296 18.1217L21.7029 16.1484L23.6764 18.1218L21.7031 20.0951L19.7296 18.1217ZM25.052 16.7462L23.0786 14.7727L25.052 12.7993L27.0254 14.7727L25.052 16.7462ZM16.9782 4.72547L15.0048 6.6989L13.0315 4.72559L15.005 2.75217L16.9782 4.72547ZM4.95771 12.7992L6.93124 14.7727L4.95782 16.7462L2.98428 14.7726L4.95771 12.7992ZM13.0315 24.8198L15.0048 22.8465L16.9782 24.82L15.005 26.7932L13.0315 24.8198Z" fill="#FFD150"/>
</g>
<defs>
<clipPath id="clip0_202_13877">
<rect width="30" height="40.0009" fill="white"/>
</clipPath>
</defs>
</svg>
