<svg width="34" height="40" viewBox="0 0 34 40" fill="none" xmlns="http://www.w3.org/2000/svg">
<g clip-path="url(#clip0_202_13892)">
<path d="M28.0018 5.86462C28.4569 5.86462 28.8259 5.49567 28.8259 5.04053C28.8259 4.5854 28.4569 4.21645 28.0018 4.21645C27.5466 4.21645 27.1777 4.5854 27.1777 5.04053C27.1777 5.49567 27.5466 5.86462 28.0018 5.86462ZM29.0477 12.9645C29.0477 12.9645 28.0018 7.70298 21.1555 9.12928C20.4582 6.7521 20.585 5.00884 22.1064 3.39236C24.1666 1.20535 27.3996 2.40979 27.3996 2.40979V0.603134C26.2585 0.0960027 25.1809 0.000915527 23.9764 0.000915527C19.5707 0.000915527 17.1301 3.29727 16.0842 5.51597L3.69115 28.3052L7.17768 27.6396L0.775146 40.0009L5.24424 39.2085L8.66738 29.4779C18.3663 29.4779 30.791 25.9914 29.0477 12.9645ZM33.2316 8.55876L30.5057 5.92802L28.3504 8.55876H33.2316ZM10.2839 26.657C10.2839 26.657 10.6008 26.5936 11.1713 26.4668C11.7419 26.3401 12.5343 26.1499 13.4851 25.8963C13.9606 25.7695 14.4677 25.6111 15.0065 25.4209C15.5454 25.2307 16.1159 25.0405 16.6547 24.787C17.2252 24.5651 17.7957 24.2798 18.3663 23.9629C18.9368 23.6459 19.4756 23.2973 19.9828 22.8852C20.1095 22.7901 20.2363 22.6951 20.3631 22.5683L20.7435 22.2513C20.9653 22.0294 21.2189 21.8076 21.4408 21.554C21.6626 21.3321 21.8528 21.0786 22.043 20.825C22.1381 20.6982 22.2331 20.5714 22.3282 20.4447L22.455 20.2545L22.5818 20.0643C22.6452 19.9375 22.7403 19.8107 22.8037 19.684C22.8671 19.5572 22.9305 19.4304 23.0255 19.3036C23.0572 19.2402 23.0889 19.1768 23.1206 19.1134C23.1523 19.05 23.184 18.9867 23.2157 18.9233C23.2791 18.7965 23.3425 18.6697 23.3742 18.5429C23.4693 18.2893 23.5644 18.0358 23.6595 17.7822C23.7228 17.5286 23.8179 17.2751 23.8813 17.0532C23.9447 16.8313 23.9764 16.5778 24.0398 16.3876C24.0715 16.1657 24.1032 15.9756 24.1349 15.7537C24.1666 15.5635 24.1983 15.3733 24.1983 15.2149C24.23 15.0564 24.23 14.8979 24.2617 14.7394C24.2934 14.1689 24.2934 13.8519 24.2934 13.8519L24.8005 13.8836C24.8005 13.8836 24.7688 14.2323 24.7371 14.8028C24.7054 14.9613 24.7054 15.1198 24.6737 15.2783C24.642 15.4684 24.642 15.6586 24.5786 15.8488C24.5469 16.0389 24.4835 16.2608 24.4518 16.4827C24.3885 16.7046 24.3251 16.9264 24.2617 17.18C24.1983 17.4336 24.1032 17.6554 24.0081 17.9407C23.913 18.1943 23.8179 18.4478 23.6912 18.7331C23.6278 18.8599 23.5644 18.9867 23.501 19.1134C23.4693 19.1768 23.4376 19.2402 23.4059 19.3036C23.3742 19.367 23.3425 19.4304 23.3108 19.4938C23.2474 19.6206 23.1523 19.7473 23.0889 19.9058C22.9938 20.0326 22.9305 20.1594 22.8354 20.2862C22.8037 20.3496 22.7403 20.413 22.7086 20.4764L22.5818 20.6665C22.4867 20.7933 22.3916 20.9201 22.2965 21.0469C22.0747 21.3004 21.8845 21.554 21.6309 21.7759C21.4091 22.0294 21.1555 22.2196 20.9019 22.4732L20.5216 22.7901C20.3948 22.8852 20.268 22.9803 20.1095 23.0754C19.5707 23.4557 19.0002 23.8044 18.4297 24.1214C17.8591 24.4066 17.2569 24.6919 16.6864 24.9138C16.1159 25.1356 15.5454 25.3258 15.0065 25.4843C14.4677 25.6428 13.9606 25.8012 13.4534 25.8963C12.5026 26.1182 11.6785 26.3084 11.108 26.4035C10.6008 26.5936 10.2839 26.657 10.2839 26.657Z" fill="black"/>
</g>
<defs>
<clipPath id="clip0_202_13892">
<rect width="34" height="40.0009" fill="white"/>
</clipPath>
</defs>
</svg>
