<svg width="37" height="37" viewBox="0 0 37 37" fill="none" xmlns="http://www.w3.org/2000/svg">
<g clip-path="url(#clip0_202_14312)">
<mask id="mask0_202_14312" style="mask-type:alpha" maskUnits="userSpaceOnUse" x="0" y="0" width="37" height="37">
<path d="M36.0012 18.0018C36.0012 27.9428 27.9423 36.0018 18.0012 36.0018C8.06016 36.0018 0.0012207 27.9428 0.0012207 18.0018C0.0012207 8.06071 8.06016 0.00177002 18.0012 0.00177002C27.9423 0.00177002 36.0012 8.06071 36.0012 18.0018Z" fill="white"/>
</mask>
<g mask="url(#mask0_202_14312)">
<path d="M36.0012 18.0018C36.0012 27.9428 27.9423 36.0018 18.0012 36.0018C8.06016 36.0018 0.0012207 27.9428 0.0012207 18.0018C0.0012207 8.06071 8.06016 0.00177002 18.0012 0.00177002C27.9423 0.00177002 36.0012 8.06071 36.0012 18.0018Z" fill="#4356E6"/>
<path d="M18.0012 24.2309C16.403 24.2721 13.0609 23.2429 7.94878 18.1635C12.438 13.6199 15.5399 12.0533 17.9354 11.9955C19.5336 11.9543 22.44 12.8483 28.0323 18.1635C23.6718 22.5125 20.3969 24.1731 18.0012 24.2309ZM30.2094 18.3622C30.1546 18.309 30.063 18.2161 30.0083 18.1635C32.5804 15.6071 34.4292 13.7279 35.649 12.4727C35.5013 12.0012 35.3347 11.5381 35.1511 11.0836C33.5197 12.7134 30.8002 15.4417 29.0418 17.2858C24.4586 12.8725 20.7846 10.6842 18.0156 10.7057C17.9783 10.706 17.941 10.7068 17.9043 10.7071C14.9345 10.7256 11.4398 12.9391 6.98212 17.2393C6.93403 17.1932 3.03492 13.093 0.933982 10.8814C0.720795 11.3917 0.529686 11.9134 0.362061 12.4458C2.56565 14.7699 5.98762 18.2078 6.02489 18.2435C5.94248 18.3227 2.63498 21.6154 0.469779 23.8893C0.637123 24.3877 0.825701 24.8764 1.0334 25.3548C3.13547 23.1578 6.87708 19.2525 6.97565 19.1578C11.7068 23.5477 15.2718 25.6211 17.9056 25.6211C17.9429 25.6211 17.9801 25.6207 18.0168 25.6198C20.7757 25.5531 23.9684 23.8457 29.0608 19.0922C29.1081 19.1376 32.8924 23.0356 35.0226 25.2323C35.2127 24.7855 35.3853 24.3296 35.5404 23.8656C34.2272 22.4277 32.3187 20.4006 30.2094 18.3622Z" fill="white"/>
<path d="M21.0515 16.0985V20.2487L18.0012 21.7654L14.9508 20.1628V16.0125L18.0012 14.5077L21.0515 16.0985ZM17.431 13.3519L14.3806 14.8567C13.9407 15.0739 13.6621 15.5219 13.6621 16.0125V20.1628C13.6621 20.6416 13.9276 21.0809 14.3513 21.3037L17.4017 22.9064C17.5893 23.0048 17.7952 23.054 18.0012 23.054C18.1975 23.054 18.3941 23.0093 18.575 22.9193L21.6253 21.4027C22.0633 21.1849 22.3402 20.738 22.3402 20.2487V16.0985C22.3402 15.6182 22.0733 15.1778 21.6474 14.9557L18.5971 13.365C18.4106 13.2677 18.206 13.2189 18.0012 13.2189C17.806 13.2189 17.6109 13.2632 17.431 13.3519Z" fill="white"/>
</g>
</g>
<defs>
<clipPath id="clip0_202_14312">
<rect width="37" height="37" fill="white"/>
</clipPath>
</defs>
</svg>
