<svg width="37" height="36" viewBox="0 0 37 36" fill="none" xmlns="http://www.w3.org/2000/svg">
<g clip-path="url(#clip0_202_10845)">
<path d="M19.8245 30.5767H16.1436C15.7376 28.5333 13.9037 26.9614 11.7423 26.9614C10.1442 26.9614 8.7557 27.7866 7.94355 29.0048V29.0441C6.60743 28.3761 5.37611 27.446 4.32817 26.3588C3.05755 25.0882 2.35019 23.9355 2.06201 23.1888C2.88726 23.0054 3.62082 22.56 4.22338 21.9182C5.00933 21.0929 5.4154 19.9795 5.4154 18.8661V16.1807C5.4154 13.0107 6.46334 9.88003 8.42822 7.39119C11.2183 3.81511 15.3577 1.79784 19.8245 1.79784C23.6626 1.79784 27.2779 3.29114 30.0026 6.00267C32.7272 8.72731 34.2074 12.3427 34.2074 16.1807C34.2074 20.0188 32.7141 23.6342 30.0026 26.3588C27.3041 29.0572 23.6495 30.5767 19.8245 30.5767Z" fill="white"/>
<path d="M36.0021 16.1676C36.0021 11.8449 34.3254 7.78417 31.2733 4.73206C28.2343 1.71924 24.1212 0.0163493 19.8377 0.00325012C14.8862 0.00325012 10.2622 2.24321 7.09222 6.22536C4.81296 9.09409 3.62093 12.6309 3.62093 16.2855V18.8792C3.62093 20.2284 2.69089 21.4859 0.830804 21.6038C0.385432 21.6431 0.00555494 21.9444 0.00555494 22.3898C-0.0730402 23.6211 1.23688 25.861 3.01837 27.6425C4.24969 28.9132 5.7037 29.9218 7.26251 30.6947C7.02672 32.0046 7.3804 33.3538 8.24494 34.3755C9.09639 35.3973 10.367 35.9867 11.7031 35.9867C13.9038 35.9867 15.6853 34.4541 16.1045 32.4106H19.8639C20.3486 34.9519 22.9946 36.6941 25.8241 35.7247C28.2867 34.8995 29.3608 32.1094 28.4701 29.8301C29.4394 29.2013 30.3695 28.4547 31.2209 27.6294C34.2992 24.6035 36.0152 20.4773 36.0021 16.1676ZM19.8246 30.5768H16.1438C15.7377 28.5333 13.9038 26.9614 11.7424 26.9614C10.1443 26.9614 8.75581 27.7866 7.94366 29.0049V29.0442C6.60755 28.3761 5.37622 27.4461 4.32829 26.3588C3.05767 25.0882 2.35031 23.9355 2.06213 23.1888C2.88738 23.0054 3.62093 22.5601 4.22349 21.9182C5.00945 21.0929 5.41552 19.9795 5.41552 18.8661V16.1807C5.41552 13.0107 6.46346 9.88004 8.42833 7.39119C11.2185 3.81512 15.3578 1.79784 19.8246 1.79784C23.6627 1.79784 27.2781 3.29115 30.0027 6.00268C32.7273 8.72731 34.2075 12.3427 34.2075 16.1807C34.2075 20.0188 32.7142 23.6342 30.0027 26.3588C27.3043 29.0573 23.6496 30.5768 19.8246 30.5768ZM28.8107 12.5916C28.8107 13.574 28.0116 14.3731 27.0292 14.3731C26.0467 14.3731 25.2346 13.574 25.2346 12.5916C25.2346 11.6091 26.0336 10.797 27.0292 10.797C28.0116 10.797 28.8107 11.596 28.8107 12.5916ZM18.0038 12.5916C18.0038 13.574 17.2048 14.3731 16.2224 14.3731C15.2399 14.3731 14.4278 13.574 14.4278 12.5916C14.4278 11.6091 15.2268 10.797 16.2224 10.797C17.2048 10.797 18.0038 11.596 18.0038 12.5916ZM16.7725 18.4731C16.6284 18.1718 16.2878 17.9491 15.9473 17.9491C15.2923 17.9491 14.86 18.6172 15.122 19.2198C16.2747 21.6431 18.7374 23.3591 21.6454 23.3591C24.5534 23.3591 27.0161 21.6824 28.1688 19.2198C28.4308 18.6303 28.0247 17.9491 27.3436 17.9491H27.3043C26.9637 17.9491 26.6755 18.1325 26.5183 18.4731C25.6669 20.2939 23.7937 21.5645 21.6323 21.5645C19.4971 21.5645 17.6371 20.2939 16.7725 18.4731Z" fill="black"/>
</g>
<defs>
<clipPath id="clip0_202_10845">
<rect width="37" height="36" fill="white"/>
</clipPath>
</defs>
</svg>
