<svg width="41" height="18" viewBox="0 0 41 18" fill="none" xmlns="http://www.w3.org/2000/svg">
<g clip-path="url(#clip0_202_10745)">
<path d="M38.4641 13.4494C38.153 13.4001 37.8347 13.4691 37.572 13.6429C36.4069 14.4553 35.018 14.8854 33.5976 14.8735C30.761 14.8735 28.2571 12.9385 27.8856 9.61232C27.8856 9.61232 34.1607 12.1742 38.6788 9.27564C39.7121 8.61388 40.1126 7.78958 39.983 6.74276C39.5051 2.88637 37.0225 0.293518 32.9068 0.293518C28.1797 0.293518 24.5981 3.74356 24.5981 9.02022C24.5981 13.9389 28.1797 17.7082 33.4002 17.7082C35.4071 17.7013 37.3642 17.0838 39.0117 15.9377C39.1647 15.825 39.2938 15.6829 39.3915 15.5198C39.4892 15.3567 39.5534 15.1758 39.5805 14.9877C39.6113 14.8127 39.6065 14.6333 39.5662 14.4602C39.526 14.2872 39.4513 14.124 39.3465 13.9805C39.2417 13.8371 39.109 13.7163 38.9563 13.6253C38.8037 13.5344 38.6343 13.4752 38.4582 13.4513L38.4641 13.4494ZM4.5557 15.7113L0.188479 3.37011C0.0800226 3.06983 0.0186678 2.75457 0.0065918 2.43553V2.42004C0.00924268 2.187 0.0586466 1.95685 0.151874 1.74325C0.245101 1.52964 0.380254 1.33693 0.549328 1.17652C0.718401 1.01611 0.917955 0.891259 1.13616 0.809383C1.35437 0.727507 1.58679 0.690266 1.81966 0.699862H22.1484C22.3769 0.696014 22.6039 0.737634 22.8162 0.822309C23.0285 0.906984 23.2218 1.03302 23.3849 1.19309C23.5481 1.35315 23.6777 1.54406 23.7664 1.7547C23.8551 1.96534 23.901 2.1915 23.9015 2.42004C23.8869 2.70269 23.8362 2.98231 23.7506 3.25208L19.3214 15.7113C18.919 16.8452 18.1488 17.3677 17.2607 17.3677H17.1349C16.2158 17.3677 15.4457 16.8452 15.1051 15.7771L13.1469 9.81162C13.0653 9.55848 12.9035 9.33875 12.6861 9.18554C12.4687 9.03232 12.2073 8.95393 11.9415 8.96217C11.6733 8.95408 11.4096 9.03223 11.1891 9.18513C10.9687 9.33803 10.803 9.55762 10.7166 9.81162L8.74297 15.7771C8.40048 16.8452 7.63423 17.3677 6.74028 17.3677H6.61644C5.69539 17.3677 4.92528 16.8452 4.5557 15.7113Z" fill="#0095DA"/>
<path d="M1.69775 7.63498C8.51851 7.10093 15.4883 6.86099 22.4406 6.93839L23.7525 3.25034C23.8376 2.98118 23.8877 2.70219 23.9015 2.42024C23.901 2.1917 23.8551 1.96553 23.7664 1.7549C23.6777 1.54426 23.5481 1.35335 23.3849 1.19328C23.2218 1.03322 23.0285 0.907182 22.8162 0.822507C22.6039 0.737832 22.3769 0.696212 22.1484 0.70006H1.81966C1.58679 0.690463 1.35437 0.727704 1.13616 0.809581C0.917956 0.891457 0.718402 1.0163 0.549328 1.17672C0.380254 1.33713 0.245101 1.52984 0.151874 1.74345C0.0586467 1.95705 0.00924268 2.18719 0.0065918 2.42024V2.43572C0.0186678 2.75477 0.0800226 3.07002 0.188479 3.37031L1.69775 7.62724V7.63498ZM24.7974 6.97709C25.5985 2.87109 28.8221 0.291779 32.9088 0.291779C36.9954 0.291779 39.5051 2.88464 39.983 6.74102C39.9966 6.85858 40.0037 6.97679 40.0043 7.09512C40.0061 7.32212 39.9754 7.54821 39.9133 7.76655C34.9385 7.34086 29.8786 7.07771 24.7974 6.97709Z" fill="#00A5DF"/>
</g>
<defs>
<clipPath id="clip0_202_10745">
<rect width="41" height="18" fill="white"/>
</clipPath>
</defs>
</svg>
