<svg width="37" height="28" viewBox="0 0 37 28" fill="none" xmlns="http://www.w3.org/2000/svg">
<g clip-path="url(#clip0_202_12866)">
<path d="M28.3523 15.1949C30.4139 15.1949 32.0851 13.5237 32.0851 11.4621C32.0851 9.40062 30.4139 7.72943 28.3523 7.72943C26.2908 7.72943 24.6196 9.40062 24.6196 11.4621C24.6196 13.5237 26.2908 15.1949 28.3523 15.1949Z" fill="#00A94B"/>
<path d="M32.5143 7.27719C34.4404 7.27719 36.0017 5.71581 36.0017 3.78975C36.0017 1.86369 34.4404 0.302307 32.5143 0.302307C30.5882 0.302307 29.0269 1.86369 29.0269 3.78975C29.0269 5.71581 30.5882 7.27719 32.5143 7.27719Z" fill="#FF4131"/>
<path d="M23.4162 27.7573C22.0825 27.7573 20.8025 26.9832 20.2277 25.6878L11.0837 5.15407C10.3019 3.39119 11.0913 1.32938 12.8542 0.547584C14.6171 -0.234216 16.6789 0.555249 17.4607 2.31813L26.6047 22.8519C27.3865 24.6148 26.597 26.6766 24.8341 27.4584C24.3743 27.6653 23.8914 27.7573 23.4162 27.7573Z" fill="#FFBC00"/>
<path d="M12.6243 27.7037C11.1681 27.7037 9.78074 26.8606 9.15224 25.4502L0.330156 5.62931C-0.520627 3.71314 0.337821 1.46738 2.254 0.616594C4.17018 -0.234189 6.41594 0.624259 7.26672 2.54044L16.0888 22.3614C16.9396 24.2775 16.0811 26.5233 14.165 27.3741C13.6667 27.5964 13.1379 27.7037 12.6243 27.7037Z" fill="#0085F7"/>
</g>
<defs>
<clipPath id="clip0_202_12866">
<rect width="37" height="28" fill="white"/>
</clipPath>
</defs>
</svg>
