<svg width="36" height="37" viewBox="0 0 36 37" fill="none" xmlns="http://www.w3.org/2000/svg">
<g clip-path="url(#clip0_202_14299)">
<path d="M9.23926 33.8812C7.77338 33.0975 6.43505 32.1116 5.24683 30.9693V25.7279L10.5108 20.9745V25.7159L31.6525 6.6214C32.8085 8.03582 33.7431 9.63354 34.4291 11.3584L9.23926 33.8812Z" fill="#FF4B19"/>
<path d="M20.3291 29.1758L35.5242 15.5465C35.6341 16.3513 35.7109 17.1667 35.7109 18.0017C35.7109 19.8004 35.4394 21.5344 34.9482 23.1735L20.6767 35.7371C19.7098 35.8977 18.7235 36.0018 17.711 36.0018C16.8096 36.0018 15.9309 35.9139 15.0652 35.786V0.217585C15.9309 0.0896177 16.8096 0.00177002 17.711 0.00177002C18.6026 0.00177002 19.4721 0.088096 20.3291 0.213296V29.1758Z" fill="#00D2FF"/>
<path d="M15.0652 16.1634L28.7719 3.82123C27.3216 2.68807 25.6938 1.77929 23.936 1.13019L0.295166 22.4788C0.758476 24.2851 1.49031 25.9789 2.45332 27.5195L15.0652 16.1634Z" fill="#556991"/>
<path d="M5.24683 25.0041V26.2737L10.5108 21.5201V1.50958C8.54686 2.36828 6.77053 3.56923 5.24683 5.03387V25.0041Z" fill="#FF4B19"/>
</g>
<defs>
<clipPath id="clip0_202_14299">
<rect width="36" height="37" fill="white"/>
</clipPath>
</defs>
</svg>
