<svg width="37" height="36" viewBox="0 0 37 36" fill="none" xmlns="http://www.w3.org/2000/svg">
<g clip-path="url(#clip0_202_13328)">
<path d="M11.1254 0.208374H25.1808L24.5058 8.57588L31.3664 5.701L36.0059 18.7312L28.3541 20.9545L33.153 27.4761L21.9993 35.8004L17.7138 29.1316L13.5541 35.8004L2.17087 27.4761L7.55512 20.9545L0.00585938 18.7312L4.27606 5.701L11.6313 8.57588L11.1254 0.208374Z" fill="#1C70E7"/>
<path d="M15.1126 4.06226H21.0005L20.4953 14.3071L29.1225 10.7656L31.1728 16.1807L21.9824 18.8272L27.8125 26.8344L23.1427 30.3216L17.6196 21.9444L12.5236 30.3216L7.63824 26.8344L14.0722 18.8272L4.78455 16.1807L6.6605 10.7656L15.7315 14.3071L15.1126 4.06226Z" fill="white"/>
</g>
<defs>
<clipPath id="clip0_202_13328">
<rect width="37" height="36" fill="white"/>
</clipPath>
</defs>
</svg>
