<svg width="37" height="37" viewBox="0 0 37 37" fill="none" xmlns="http://www.w3.org/2000/svg">
<g clip-path="url(#clip0_202_15620)">
<path d="M22.1201 0.00537109H36.0012V36.005H0.0012207V0.00537109H13.8823C13.8795 0.0698404 13.8728 0.133519 13.8728 0.198779C13.8728 2.47894 15.7211 4.32759 18.0012 4.32759C20.2814 4.32759 22.13 2.47894 22.13 0.198779C22.13 0.133519 22.1233 0.0698404 22.1201 0.00537109ZM30.3224 32.1522H32.7971L29.0484 19.4071H25.2863L22.1992 32.1522H24.5981L25.223 29.3144H29.51L30.3224 32.1522ZM17.188 32.1522H19.5564L22.5952 19.4071H20.2569L18.3956 28.1895H18.3651L16.5975 19.4071H14.3656L12.3991 28.0824H12.3687L10.7368 19.4071H8.35297L11.0994 32.1522H13.5133L15.4043 23.477H15.4347L17.188 32.1522ZM26.72 22.5488H27.7227L28.9183 27.2258H25.6798L26.72 22.5488Z" fill="#654FF0"/>
</g>
<defs>
<clipPath id="clip0_202_15620">
<rect width="37" height="37" fill="white"/>
</clipPath>
</defs>
</svg>
