<svg width="36" height="34" viewBox="0 0 36 34" fill="none" xmlns="http://www.w3.org/2000/svg">
<g clip-path="url(#clip0_202_13242)">
<path d="M16.8723 14.2913C15.3748 16.8086 13.9401 19.2464 12.4755 21.6658C12.0994 22.2869 11.9132 22.7928 12.2138 23.5824C13.0433 25.7636 11.8731 27.8861 9.67353 28.4623C7.59927 29.0058 5.5783 27.6425 5.16674 25.4218C4.80206 23.4561 6.32748 21.5291 8.49465 21.2219C8.6763 21.196 8.86157 21.1929 9.16682 21.17C10.2288 19.3893 11.3167 17.5653 12.4635 15.642C10.3901 13.5803 9.15594 11.1701 9.4291 8.18371C9.62219 6.07262 10.4523 4.24837 11.9696 2.75308C14.8756 -0.110254 19.309 -0.573991 22.7307 1.62388C26.017 3.73497 27.5221 7.84721 26.2391 11.3668C25.2718 11.1045 24.2977 10.84 23.2268 10.5496C23.6297 8.59276 23.3317 6.83547 22.0119 5.33014C21.14 4.33626 20.0211 3.81532 18.7488 3.62336C16.1982 3.23802 13.694 4.87673 12.9509 7.38013C12.1074 10.2214 13.384 12.5423 16.8723 14.2913Z" fill="#C73A63"/>
<path d="M21.1488 11.3141C22.2038 13.1752 23.275 15.0645 24.3367 16.9364C29.7029 15.2762 33.7487 18.2467 35.2002 21.427C36.9533 25.2686 35.7549 29.8187 32.3117 32.1887C28.7776 34.6218 24.3082 34.206 21.177 31.0807C21.975 30.4127 22.7769 29.7416 23.6338 29.0248C26.7265 31.0279 29.4314 30.9336 31.4395 28.5617C33.1519 26.5382 33.1148 23.5211 31.3527 21.54C29.3192 19.254 26.5954 19.1842 23.3029 21.3788C21.9371 18.9557 20.5475 16.5519 19.225 14.1113C18.7791 13.2888 18.2866 12.8116 17.2816 12.6375C15.603 12.3465 14.5192 10.9051 14.4542 9.29008C14.3903 7.69295 15.3312 6.24928 16.8019 5.68677C18.2587 5.12956 19.9683 5.57935 20.9482 6.81793C21.749 7.82995 22.0035 8.96892 21.5822 10.217C21.465 10.5649 21.3132 10.9017 21.1488 11.3141Z" fill="#4B4B4B"/>
<path d="M23.6706 26.527H17.2107C16.5915 29.0737 15.2542 31.1298 12.9497 32.4373C11.1584 33.4535 9.22756 33.7981 7.17255 33.4664C3.38899 32.8561 0.295185 29.4501 0.0228578 25.6146C-0.285463 21.27 2.70092 17.408 6.68147 16.5405C6.95631 17.5386 7.23393 18.5461 7.50877 19.5417C3.85664 21.405 2.59266 23.7527 3.61472 26.6883C4.51457 29.2718 7.07043 30.6878 9.84559 30.1401C12.6796 29.581 14.1085 27.2257 13.9341 23.4458C16.6208 23.4458 19.3098 23.4179 21.9968 23.4595C23.0459 23.4759 23.8559 23.3671 24.6464 22.4421C25.9477 20.9201 28.3429 21.0574 29.7444 22.4949C31.1766 23.9639 31.108 26.3278 29.5923 27.7349C28.13 29.0927 25.8197 29.0201 24.4516 27.5572C24.1704 27.2556 23.9488 26.8976 23.6706 26.527Z" fill="#4A4A4A"/>
</g>
<defs>
<clipPath id="clip0_202_13242">
<rect width="36.0007" height="34" fill="white"/>
</clipPath>
</defs>
</svg>
