<svg width="37" height="37" viewBox="0 0 37 37" fill="none" xmlns="http://www.w3.org/2000/svg">
<g clip-path="url(#clip0_202_14164)">
<path d="M17.8906 0.00174783C22.6839 -0.0278644 27.2912 1.8553 30.6912 5.23417C34.0912 8.61305 36.003 13.2085 36.003 18.0019C36.003 27.9282 27.9667 35.9808 18.0404 36.0014C8.11411 36.0219 0.0447939 28.0027 0.00333177 18.0765C-0.0378121 8.15021 7.96449 0.0641513 17.8906 0.00174783ZM17.8906 2.00453C9.06064 2.01689 1.90561 9.17193 1.89324 18.0019C1.86323 22.2382 3.52665 26.311 6.51378 29.315C9.50091 32.319 13.5642 34.0054 17.8006 33.9993C26.6306 33.9869 33.7857 26.8319 33.798 18.0019C33.798 9.2269 26.6655 2.09451 17.8906 2.00453ZM23.4706 12.8719C23.3891 13.0716 23.3507 13.2863 23.358 13.5019C23.358 14.0389 23.5714 14.554 23.9511 14.9338C24.3309 15.3135 24.846 15.5269 25.383 15.5269C25.6341 15.5506 25.8873 15.5199 26.1255 15.4369C26.7677 16.479 27.1102 17.6779 27.1155 18.9019C27.1155 25.8543 21.6256 26.5069 17.9806 26.5069C8.64748 26.5069 7.29716 22.9124 7.27108 21.9672L7.27069 21.9393H6.82071C5.27637 21.9272 4.02434 20.6911 3.98654 19.153L3.98575 19.1044V18.5419H5.26826C6.19215 18.5151 7.07509 18.9233 7.65324 19.6444C8.16838 18.9256 8.98656 18.4867 9.86812 18.4535L9.9257 18.4519H11.2307V19.1943C11.2488 19.9122 10.9778 20.6073 10.4786 21.1234C9.99362 21.6248 9.33274 21.9166 8.63712 21.9381L8.57565 21.9393H8.3957C8.48568 22.3894 9.85817 22.5694 10.2183 22.5694C11.1684 22.6283 12.0655 22.127 12.5132 21.2869C12.9349 20.47 13.0922 19.5422 12.9633 18.6319C12.9633 14.9869 13.9532 12.062 20.1856 12.062C21.3394 11.9699 22.4919 12.254 23.4706 12.8719ZM28.9605 9.85693L27.2056 12.692L26.6655 13.7945C26.5974 13.9294 26.506 14.0513 26.3955 14.1545C26.0656 14.433 25.6208 14.5337 25.2031 14.4244C24.9944 14.4097 24.8001 14.3126 24.6631 14.1545C24.214 13.6642 24.214 12.9121 24.6631 12.4219C24.7431 12.3419 24.8231 12.333 24.8873 12.2688L24.9106 12.2419L28.9605 9.85693Z" fill="#4700A3"/>
</g>
<defs>
<clipPath id="clip0_202_14164">
<rect width="37" height="37" fill="white"/>
</clipPath>
</defs>
</svg>
