<svg width="41" height="34" viewBox="0 0 41 34" fill="none" xmlns="http://www.w3.org/2000/svg">
<g clip-path="url(#clip0_202_16147)">
<mask id="mask0_202_16147" style="mask-type:alpha" maskUnits="userSpaceOnUse" x="0" y="0" width="41" height="34">
<path d="M40.0012 0.526001H0.0012207V33.4848H40.0012V0.526001Z" fill="white"/>
</mask>
<g mask="url(#mask0_202_16147)">
<path d="M0.0012207 22.3484V0.526001L10.017 11.4765L20.0761 0.526001L30.0011 11.4197L40.0012 0.526001V22.3987L30.1136 33.4848L20.0761 22.5485L10.0387 33.4848L0.0012207 22.3484Z" fill="#5B2E6E"/>
<path d="M5.02026 17.0054C6.05998 15.8671 9.406 12.2046 10.0387 11.5119C8.76735 10.1208 2.07551 2.79656 0.0012207 0.526001C0.127754 0.941732 4.51144 15.3349 5.02026 17.0054Z" fill="url(#paint0_linear_202_16147)"/>
<path d="M0.00101476 0.525768L3.67631 4.51063L7.65624 17.2163L3.78804 18.3989L0.00101476 0.525768Z" fill="url(#paint1_linear_202_16147)"/>
<path d="M4.9812 18.528L3.52198 13.6973L9.00887 10.3936L11.1857 12.7623L4.9812 18.528Z" fill="url(#paint2_linear_202_16147)"/>
<path d="M29.9636 11.4618L40.0011 22.3987V0.526001L29.9636 11.4618Z" fill="url(#paint3_linear_202_16147)"/>
<path d="M29.9663 11.4671L32.0556 9.19326L40.001 18.0544L40.001 22.399L29.9663 11.4671Z" fill="url(#paint4_linear_202_16147)"/>
<path d="M30.1137 33.485L40.0014 22.3989L26.3684 7.4176L30.1137 33.485Z" fill="url(#paint5_linear_202_16147)"/>
<path d="M20.0759 22.5487L30.1134 33.485L26.3681 7.4176L20.0759 22.5487Z" fill="url(#paint6_linear_202_16147)"/>
<path d="M10.0388 33.4848L20.0763 22.5485V0.526001L10.0388 33.4848Z" fill="url(#paint7_linear_202_16147)"/>
<path d="M10.0388 33.4848L13.9639 29.2082L20.0763 6.95956V0.526001L10.0388 33.4848Z" fill="url(#paint8_linear_202_16147)"/>
<path d="M20.0759 22.5485L26.3681 7.41739L20.0759 0.526001V22.5485Z" fill="url(#paint9_linear_202_16147)"/>
<path d="M4.94507 16.9841C5.28868 18.1098 10.0394 33.4848 10.0394 33.4848L20.0762 0.526001L4.94507 16.9841Z" fill="url(#paint10_linear_202_16147)"/>
<path d="M4.53894 17.4162L8.0912 13.5617L13.1173 30.1336L10.0388 33.4844L4.53894 17.4162Z" fill="url(#paint11_linear_202_16147)"/>
<path d="M0.0012207 22.4705L10.0387 33.4848L0.0016325 0.526001L0.0012207 22.4705Z" fill="url(#paint12_linear_202_16147)"/>
</g>
</g>
<defs>
<linearGradient id="paint0_linear_202_16147" x1="1.29926" y1="2.01772" x2="10.7715" y2="9.2016" gradientUnits="userSpaceOnUse">
<stop stop-color="#67337A"/>
<stop offset="1" stop-color="#723986"/>
</linearGradient>
<linearGradient id="paint1_linear_202_16147" x1="4.81642" y1="9.03492" x2="2.40487" y2="9.77221" gradientUnits="userSpaceOnUse">
<stop stop-color="#623274" stop-opacity="0"/>
<stop offset="1" stop-color="#542C65"/>
</linearGradient>
<linearGradient id="paint2_linear_202_16147" x1="6.05591" y1="12.3914" x2="7.77017" y2="14.8396" gradientUnits="userSpaceOnUse">
<stop stop-color="#623274" stop-opacity="0"/>
<stop offset="1" stop-color="#542C65"/>
</linearGradient>
<linearGradient id="paint3_linear_202_16147" x1="39.1655" y1="1.75065" x2="29.1998" y2="11.3326" gradientUnits="userSpaceOnUse">
<stop stop-color="#8A519F"/>
<stop offset="1" stop-color="#8A53A0"/>
</linearGradient>
<linearGradient id="paint4_linear_202_16147" x1="36.2108" y1="15.2266" x2="34.4558" y2="17.0441" gradientUnits="userSpaceOnUse">
<stop stop-color="#8A529F" stop-opacity="0.1"/>
<stop offset="1" stop-color="#542C65"/>
</linearGradient>
<linearGradient id="paint5_linear_202_16147" x1="29.7356" y1="15.603" x2="39.32" y2="18.8209" gradientUnits="userSpaceOnUse">
<stop stop-color="#5C2E6D"/>
<stop offset="1" stop-color="#6D377B"/>
</linearGradient>
<linearGradient id="paint6_linear_202_16147" x1="21.3152" y1="16.3999" x2="28.7209" y2="17.1897" gradientUnits="userSpaceOnUse">
<stop stop-color="#612E74"/>
<stop offset="1" stop-color="#7F4395"/>
</linearGradient>
<linearGradient id="paint7_linear_202_16147" x1="20.0763" y1="0.526001" x2="20.0763" y2="23.3862" gradientUnits="userSpaceOnUse">
<stop stop-color="#582C6A"/>
<stop offset="1" stop-color="#743983"/>
</linearGradient>
<linearGradient id="paint8_linear_202_16147" x1="15.0575" y1="25.1752" x2="11.9801" y2="25.0802" gradientUnits="userSpaceOnUse">
<stop stop-color="#623274" stop-opacity="0"/>
<stop offset="1" stop-color="#542C65"/>
</linearGradient>
<linearGradient id="paint9_linear_202_16147" x1="20.0759" y1="0.526001" x2="20.0759" y2="22.5485" gradientUnits="userSpaceOnUse">
<stop stop-color="#723A85"/>
<stop offset="1" stop-color="#8C519C"/>
</linearGradient>
<linearGradient id="paint10_linear_202_16147" x1="4.94507" y1="12.3671" x2="14.5922" y2="13.1344" gradientUnits="userSpaceOnUse">
<stop stop-color="#66397A"/>
<stop offset="1" stop-color="#9F69AB"/>
</linearGradient>
<linearGradient id="paint11_linear_202_16147" x1="9.6464" y1="22.9811" x2="6.53146" y2="23.9334" gradientUnits="userSpaceOnUse">
<stop stop-color="#623274" stop-opacity="0"/>
<stop offset="1" stop-color="#542C65"/>
</linearGradient>
<linearGradient id="paint12_linear_202_16147" x1="5.01995" y1="7.4602" x2="5.01995" y2="26.2971" gradientUnits="userSpaceOnUse">
<stop stop-color="#5D306E"/>
<stop offset="1" stop-color="#9F6AAA"/>
</linearGradient>
<clipPath id="clip0_202_16147">
<rect width="41" height="34" fill="white"/>
</clipPath>
</defs>
</svg>
