<svg width="34" height="37" viewBox="0 0 34 37" fill="none" xmlns="http://www.w3.org/2000/svg">
<g clip-path="url(#clip0_202_15015)">
<path d="M30.5642 15.843C29.4205 14.8968 28.5122 14.1241 27.3074 13.1343C27.0286 11.5597 26.7565 10.0127 26.4856 8.49971C26.0269 5.91316 23.7882 3.19145 21.4245 2.43977C20.3418 2.09412 19.334 2.2017 18.3713 2.77511C17.2038 1.53867 15.9832 0.706687 14.6529 0.281297C11.4956 -0.728952 8.90677 1.0997 9.19701 4.51315C9.3627 6.41404 9.52613 8.47695 9.66199 10.1138C7.87504 10.8554 6.03436 11.6362 4.52168 12.2766C2.63873 13.0798 1.33839 14.6901 0.837364 16.6029C0.32715 18.5554 0.633222 20.8161 1.92169 22.8178C3.06709 24.6108 4.7056 25.8268 6.8023 26.4859C6.6287 28.8496 7.05281 30.8914 8.11226 32.565C9.30969 34.4678 11.0805 35.6079 12.8877 35.9174C14.6643 36.2223 16.4578 35.7234 17.8288 34.4203C19.2988 33.0017 20.6891 31.6635 22.0143 30.3942C23.5838 31.3376 25.0975 32.2478 26.5697 33.1346C28.977 34.5701 31.4351 33.0091 32.0154 29.9626C32.258 28.6928 32.1511 27.2737 31.6987 25.6691C32.5556 25.1414 33.0879 24.3173 33.3044 23.1635C33.7621 20.7132 32.5494 17.4903 30.5641 15.8428L30.5642 15.843ZM30.9653 21.3436C30.8347 21.9329 30.4539 22.2854 29.9778 22.2293C29.5863 22.1823 29.2589 22.0234 28.5915 21.5324C27.4908 20.7078 26.3664 19.8628 25.2029 19.0058C25.1 18.934 24.9858 18.8543 24.8812 18.7779C23.914 18.0647 23.0689 18.201 22.746 19.1767C22.4111 20.1755 22.8817 21.3492 23.8779 22.0477C23.9842 22.1207 24.1063 22.2072 24.2104 22.2836C25.4242 23.1342 26.6188 23.9639 27.781 24.7728C28.2737 25.1167 28.6407 25.4386 28.8829 25.7298C29.4185 26.3429 29.673 27.3519 29.4887 28.1942C29.2896 29.0827 28.7166 29.546 28.0209 29.3877C27.669 29.313 27.4044 29.17 26.7726 28.761C25.5475 27.9669 24.2878 27.1434 22.9881 26.3063C22.8687 26.23 22.7494 26.1508 22.6334 26.0677C22.2232 25.8177 21.8285 25.7039 21.48 25.7175H21.4783C21.0891 25.6919 20.6814 25.8329 20.2905 26.1463C20.182 26.2356 20.0722 26.321 19.971 26.4171C18.7583 27.415 17.501 28.4793 16.1684 29.5987C15.4484 30.2006 15.1242 30.4352 14.6435 30.6045C13.6753 30.9743 12.6051 30.5592 11.9354 29.4941C11.3047 28.4573 11.3319 27.1117 11.9852 26.2633C12.2628 25.886 12.7323 25.4545 13.3794 24.9958C14.7894 23.9872 16.1254 23.0376 17.3941 22.1271C17.5094 22.0484 17.6203 21.971 17.7358 21.8894C18.6978 21.2061 18.8823 19.998 18.2036 18.8719C17.5424 17.7486 16.449 17.4076 15.4112 18.0343C15.2941 18.105 15.1776 18.1757 15.061 18.2532C13.7183 19.0761 12.3099 19.9455 10.8252 20.8612C9.86768 21.4387 9.36199 21.6253 8.64707 21.6581C7.76364 21.7039 6.83878 21.1598 6.30043 20.3029C5.69069 19.3482 5.67033 18.1621 6.25575 17.4263C6.58487 16.9935 6.93731 16.7311 7.94869 16.2124C9.51538 15.4014 11.0178 14.639 12.4431 13.9235C12.5647 13.8494 12.6874 13.7985 12.8136 13.7369C12.9007 13.6939 12.981 13.643 13.0517 13.5915C13.6897 13.3099 14.0001 12.6057 13.9006 11.652C13.8837 11.492 13.8723 11.3376 13.8458 11.1848C13.6722 9.49187 13.4995 7.833 13.3192 6.21146C13.2145 5.22058 13.2247 4.87209 13.3503 4.47893C13.5504 3.85449 14.2574 3.58249 15.0505 3.79625C15.7491 3.98455 16.4176 4.53209 16.7819 5.19555C17.0794 5.74761 17.2164 6.20241 17.3368 7.14296C17.5342 8.68703 17.7373 10.2544 17.942 11.8584C17.9624 12.0049 17.9828 12.1491 18.0009 12.2963C18.1733 13.63 18.9663 14.5892 19.9941 14.7251C20.9844 14.8568 21.5099 14.0808 21.3295 12.8342C21.3131 12.6974 21.2922 12.5532 21.2735 12.419C21.0496 10.8845 20.8283 9.38103 20.6123 7.90934C20.5179 7.27302 20.4851 6.78543 20.5365 6.47102C20.6134 5.77306 21.1694 5.40931 21.8804 5.60115C22.5982 5.79794 23.2707 6.45971 23.5813 7.24814C23.7402 7.64695 23.8125 7.95571 23.9354 8.69382C24.1706 10.1056 24.3755 11.5224 24.6164 12.9879L24.7006 13.3957C24.7753 13.7567 24.8053 13.8285 24.8703 14.0241L24.8545 13.9597L24.8505 13.9495L24.8454 13.9393L24.8432 13.9201V13.9171L24.8499 13.9154C24.9743 14.4709 25.3404 15.019 25.9049 15.4618C26.0033 15.5404 26.113 15.6167 26.2119 15.7015C27.307 16.5618 28.3753 17.4109 29.4246 18.2315C30.0558 18.7276 30.2832 18.9578 30.5327 19.3074C30.9372 19.8764 31.1068 20.7067 30.966 21.3436H30.9653Z" fill="#97BEEF" fill-opacity="0.94"/>
</g>
<defs>
<clipPath id="clip0_202_15015">
<rect width="34" height="37" fill="white"/>
</clipPath>
</defs>
</svg>
