<svg width="37" height="36" viewBox="0 0 37 36" fill="none" xmlns="http://www.w3.org/2000/svg">
<g clip-path="url(#clip0_202_11997)">
<path d="M36.0059 31.0736V4.91734C36.0059 2.28765 33.8684 0.150146 31.2387 0.150146C28.609 0.150146 26.4715 2.28765 26.4715 4.91734V19.5564L34.6137 27.6986C35.5418 28.6267 36.0059 29.8502 36.0059 31.0736Z" fill="#2DB2C4"/>
<path d="M14.7292 14.3806L9.44175 19.6541V31.1712C9.44175 32.4931 8.90737 33.6744 8.04956 34.5462L18.1042 24.5056L14.7292 21.1306C12.873 19.2603 12.873 16.2509 14.7292 14.3806Z" fill="#E45026"/>
<path d="M26.5559 19.6556L21.2965 14.3962C23.1528 16.2525 23.1528 19.2759 21.2965 21.1462L17.9215 24.5212L27.9621 34.5619C27.1043 33.7041 26.5981 32.4806 26.5699 31.1869V19.6556H26.5559Z" fill="#694EA0"/>
<path d="M14.6308 21.2162L18.0058 24.5912L21.3808 21.2162C23.2371 19.3599 23.2371 16.3365 21.3808 14.4662C19.5246 12.6099 16.5011 12.6099 14.6308 14.4662C12.7746 16.3365 12.7746 19.3459 14.6308 21.2162Z" fill="#801434"/>
<path d="M9.54023 19.5564C7.3746 21.722 5.20897 23.8876 3.04335 26.0533C2.0871 27.0095 0.835536 27.9517 0.35741 29.2736C-0.26134 30.8064 -0.0363396 32.5923 0.962098 33.9283C1.94647 35.2501 3.69022 36.0658 5.3496 35.8127C6.95272 35.5595 8.35897 34.6455 9.07616 33.1548C9.44179 32.3955 9.58241 31.6361 9.55429 30.7642C9.55429 29.2033 9.55429 27.6564 9.55429 26.0955C9.54023 23.9017 9.54023 21.7361 9.54023 19.5564Z" fill="#D02F28"/>
<path d="M26.4715 19.5564C26.4715 22.622 26.4715 25.6876 26.4715 28.7533C26.4715 30.1033 26.3027 31.622 26.8231 32.8876C27.4277 34.3501 28.8059 35.5173 30.3809 35.7705C32.0543 36.0236 33.7559 35.4751 34.8527 34.1673C35.9215 32.9017 36.2449 31.1298 35.7527 29.5548C35.4996 28.7392 35.0074 28.0783 34.3746 27.4736C33.2637 26.3626 32.1668 25.2658 31.0699 24.1689C29.5371 22.6361 28.0043 21.1033 26.4715 19.5564Z" fill="#263D81"/>
<path d="M9.54024 19.5564V4.91734C9.54024 2.28765 7.40274 0.150146 4.77305 0.150146C2.14336 0.150146 0.00585938 2.28765 0.00585938 4.91734V31.0736C0.00585938 29.8502 0.469922 28.6267 1.39805 27.6986L9.54024 19.5564Z" fill="#F99D22"/>
<path d="M19.4261 16.4337C18.6527 15.6603 17.373 15.6603 16.5996 16.4337C15.8261 17.2072 15.8261 18.4869 16.5996 19.2603C17.373 20.0337 18.6527 20.0337 19.4261 19.2603C20.1996 18.4869 20.1855 17.1931 19.4261 16.4337Z" fill="white"/>
<path d="M4.773 6.91343C5.87584 6.91343 6.76987 6.0194 6.76987 4.91655C6.76987 3.81371 5.87584 2.91968 4.773 2.91968C3.67015 2.91968 2.77612 3.81371 2.77612 4.91655C2.77612 6.0194 3.67015 6.91343 4.773 6.91343Z" fill="white"/>
<path d="M31.2386 6.91343C32.3415 6.91343 33.2355 6.0194 33.2355 4.91655C33.2355 3.81371 32.3415 2.91968 31.2386 2.91968C30.1358 2.91968 29.2418 3.81371 29.2418 4.91655C29.2418 6.0194 30.1358 6.91343 31.2386 6.91343Z" fill="white"/>
<path d="M4.773 33.0697C5.87584 33.0697 6.76987 32.1757 6.76987 31.0728C6.76987 29.97 5.87584 29.0759 4.773 29.0759C3.67015 29.0759 2.77612 29.97 2.77612 31.0728C2.77612 32.1757 3.67015 33.0697 4.773 33.0697Z" fill="white"/>
<path d="M31.2386 33.0697C32.3415 33.0697 33.2355 32.1757 33.2355 31.0728C33.2355 29.97 32.3415 29.0759 31.2386 29.0759C30.1358 29.0759 29.2418 29.97 29.2418 31.0728C29.2418 32.1757 30.1358 33.0697 31.2386 33.0697Z" fill="white"/>
</g>
<defs>
<clipPath id="clip0_202_11997">
<rect width="37" height="36" fill="white"/>
</clipPath>
</defs>
</svg>
