<svg width="32" height="37" viewBox="0 0 32 37" fill="none" xmlns="http://www.w3.org/2000/svg">
<g clip-path="url(#clip0_202_9396)">
<path d="M16.0046 0.00537109L31.9126 9.00387V27.0069L16.0046 36.0054L0.0966797 27.0069V9.00387L16.0046 0.00537109Z" fill="white"/>
<path d="M29.0732 26.3825L16.5329 33.4841V27.9613L24.3488 23.6572L29.0732 26.3825ZM29.9316 25.6081V10.7687L25.3453 13.416V22.9608L29.9316 25.6081ZM2.88809 26.3825L15.4284 33.4781V27.9553L7.61245 23.6572L2.88809 26.3825ZM2.02966 25.6081V10.7687L6.61596 13.416V22.9608L2.02966 25.6081ZM2.56393 9.80823L15.4284 2.53259V7.87526L7.18624 12.4075L7.12021 12.4435L2.56393 9.80823ZM29.3913 9.80823L16.5329 2.53259V7.87526L24.769 12.4135L24.8351 12.4496L29.3913 9.80823Z" fill="#8ED6FB"/>
<path d="M15.4283 26.7008L7.72046 22.4566V14.0584L15.4283 18.5067V26.7008ZM16.5329 26.7008L24.2407 22.4627V14.0584L16.5329 18.5067V26.7008ZM8.23672 13.086L15.9806 8.82983L23.7185 13.086L15.9806 17.5522L8.23672 13.086Z" fill="#1C78C0"/>
</g>
<defs>
<clipPath id="clip0_202_9396">
<rect width="32" height="37" fill="white"/>
</clipPath>
</defs>
</svg>
