<svg width="37" height="36" viewBox="0 0 37 36" fill="none" xmlns="http://www.w3.org/2000/svg">
<g clip-path="url(#clip0_202_11944)">
<path d="M19.9859 27.3656C19.9859 31.8391 16.3598 35.4658 11.8863 35.4658C7.41228 35.4658 3.78613 31.8391 3.78613 27.3656C3.78613 22.8922 7.41228 19.2654 11.8863 19.2654C16.3598 19.2654 19.9859 22.8922 19.9859 27.3656Z" fill="#FF6600"/>
<path d="M36.0061 16.0258C36.0061 20.4986 32.3799 24.126 27.9065 24.126C23.4324 24.126 19.8063 20.4986 19.8063 16.0258C19.8063 11.5523 23.4324 7.92501 27.9065 7.92501C32.3799 7.92501 36.0061 11.5523 36.0061 16.0258Z" fill="#FFCC00"/>
<path d="M16.2059 15.8461C16.2059 20.319 12.5797 23.9463 8.1057 23.9463C3.63284 23.9463 0.00610352 20.319 0.00610352 15.8461C0.00610352 11.3727 3.63284 7.74532 8.1057 7.74532C12.5797 7.74532 16.2059 11.3727 16.2059 15.8461Z" fill="#0089CC"/>
<path d="M32.4064 27.3656C32.4064 31.8391 28.7803 35.4658 24.3056 35.4658C19.8328 35.4658 16.2061 31.8391 16.2061 27.3656C16.2061 22.8922 19.8328 19.2654 24.3056 19.2654C28.7803 19.2654 32.4064 22.8922 32.4064 27.3656Z" fill="#009939"/>
<path d="M26.1063 8.64298C26.1063 13.1164 22.4795 16.7432 18.0061 16.7432C13.5326 16.7432 9.90588 13.1164 9.90588 8.64298C9.90588 4.16952 13.5326 0.542788 18.0061 0.542788C22.4795 0.542788 26.1063 4.16952 26.1063 8.64298Z" fill="#BF0000"/>
<path d="M19.8062 16.023C19.8062 16.1934 19.821 16.3603 19.8317 16.5283C23.4246 15.6994 26.106 12.4871 26.106 8.64248C26.106 8.47207 26.0912 8.30463 26.0805 8.13659C22.4876 8.96609 19.8062 12.1784 19.8062 16.023Z" fill="#FC0007"/>
<path d="M20.8749 20.0367C22.2708 22.4771 24.8941 24.126 27.9069 24.126C29.1348 24.126 30.2944 23.8445 31.3377 23.3553C29.9423 20.9149 27.319 19.266 24.3057 19.266C23.0778 19.266 21.9181 19.5474 20.8749 20.0367Z" fill="#1CD306"/>
<path d="M16.2059 27.3668C16.2059 29.3458 16.9173 31.1568 18.0965 32.5635C19.2745 31.1568 19.9859 29.3458 19.9859 27.3668C19.9859 25.3878 19.2745 23.5768 18.0965 22.1702C16.9173 23.5768 16.2059 25.3878 16.2059 27.3668Z" fill="#0F7504"/>
<path d="M4.8988 23.283C5.88268 23.7082 6.96571 23.9463 8.10575 23.9463C11.0888 23.9463 13.6878 22.3295 15.0938 19.9289C14.1099 19.5037 13.0263 19.2662 11.8869 19.2662C8.90377 19.2662 6.30425 20.883 4.8988 23.283Z" fill="#0C5E87"/>
<path d="M9.94067 7.96143C9.92167 8.18706 9.90564 8.41388 9.90564 8.64486C9.90564 12.4865 12.5829 15.6959 16.1717 16.5283C16.1901 16.3027 16.2061 16.0759 16.2061 15.8455C16.2061 12.0038 13.5294 8.7933 9.94067 7.96143Z" fill="#6B0001"/>
<path d="M10.6968 26.3608H9.42968C8.31102 26.3608 7.40137 25.4542 7.40137 24.3385V12.8692C7.40137 11.7535 8.31102 10.8463 9.42968 10.8463H25.3183C26.437 10.8463 27.346 11.7535 27.346 12.8692V24.3385C27.346 25.4542 26.437 26.3608 25.3183 26.3608H19.9055L9.04551 31.6846L10.6968 26.3608Z" fill="white"/>
</g>
<defs>
<clipPath id="clip0_202_11944">
<rect width="37" height="36" fill="white"/>
</clipPath>
</defs>
</svg>
