<svg width="41" height="32" viewBox="0 0 41 32" fill="none" xmlns="http://www.w3.org/2000/svg">
<g clip-path="url(#clip0_202_14426)">
<path d="M30.0737 23.5947H35.0393V11.672L29.4448 6.07754L25.9335 9.58884L30.0737 13.729V23.5947ZM35.0524 26.0841H27.8201H17.7317L13.5915 21.9439L15.3472 20.1883L18.7668 23.6078H25.8025L18.8716 16.6639L20.6403 14.8951L27.5712 21.826V14.7903L24.1647 11.3838L25.9073 9.64125L17.2993 0.994019H8.80934H0.00488281L4.95739 5.94652V5.95963H4.98359H15.2293L18.8585 9.58884L13.5522 14.8951L9.923 11.2659V8.44898H4.95739V13.3229L13.5522 21.9177L10.054 25.4159L15.6485 31.0104H24.1385H40.0049L35.0524 26.0841Z" fill="#231F20"/>
</g>
<defs>
<clipPath id="clip0_202_14426">
<rect width="41" height="32" fill="white"/>
</clipPath>
</defs>
</svg>
