<svg width="37" height="37" viewBox="0 0 37 37" fill="none" xmlns="http://www.w3.org/2000/svg">
<g clip-path="url(#clip0_202_10915)">
<path d="M4.8397 32.517L0.00219727 3.77329L9.0022 0.060791L14.6834 3.43579L19.9709 0.623291L30.8834 4.84204L24.7522 36.0045L4.8397 32.517Z" fill="url(#paint0_linear_202_10915)"/>
<path d="M36.0021 12.2108L31.3333 0.735767L22.9521 0.0045166L9.9021 12.492L13.3896 28.6358L19.9708 33.192L36.0021 23.6858L32.0646 16.317L36.0021 12.2108Z" fill="url(#paint1_linear_202_10915)"/>
<path d="M28.8022 10.467L32.0647 16.317L36.0022 12.2108L33.1335 5.06702L28.8022 10.467Z" fill="url(#paint2_linear_202_10915)"/>
<path d="M29.2522 6.75452H6.7522V29.2545H29.2522V6.75452Z" fill="black"/>
<path d="M8.8898 25.0358H17.3273V26.442H8.8898V25.0358ZM19.9148 17.667L21.096 16.2045C21.9398 16.8795 22.7835 17.3295 23.8523 17.3295C24.696 17.3295 25.2023 16.992 25.2023 16.4295C25.2023 15.9233 24.8648 15.642 23.346 15.2483C21.4898 14.742 20.3085 14.2358 20.3085 12.3795V12.3233C20.3085 10.6358 21.6585 9.51079 23.5148 9.51079C24.7592 9.50556 25.9686 9.92193 26.946 10.692L25.8773 12.267C25.1982 11.7363 24.3749 11.4227 23.5148 11.367C22.7835 11.367 22.3335 11.7045 22.3335 12.2108C22.3335 12.8295 22.7273 13.0545 24.3023 13.4483C26.1585 13.9545 27.2273 14.6295 27.2273 16.2608C27.2273 18.117 25.821 19.1858 23.8523 19.1858C22.4072 19.1327 21.0213 18.5981 19.9148 17.667ZM18.1148 9.67954L16.7085 15.0795L15.1335 9.67954H13.5585L11.9835 15.0795L10.5773 9.67954H8.38354L11.0835 19.017H12.8273L14.346 13.617L15.8648 19.017H17.6085L20.3085 9.67954H18.1148Z" fill="white"/>
</g>
<defs>
<linearGradient id="paint0_linear_202_10915" x1="12.8806" y1="0.752666" x2="25.0937" y2="33.202" gradientUnits="userSpaceOnUse">
<stop offset="0.28" stop-color="#00CDD7"/>
<stop offset="0.94" stop-color="#2086D7"/>
</linearGradient>
<linearGradient id="paint1_linear_202_10915" x1="15.7718" y1="5.02483" x2="35.9205" y2="23.2972" gradientUnits="userSpaceOnUse">
<stop offset="0.14" stop-color="#FFF045"/>
<stop offset="0.37" stop-color="#00CDD7"/>
</linearGradient>
<linearGradient id="paint2_linear_202_10915" x1="833.114" y1="-3110.26" x2="921.472" y2="-3192.3" gradientUnits="userSpaceOnUse">
<stop offset="0.28" stop-color="#00CDD7"/>
<stop offset="0.94" stop-color="#2086D7"/>
</linearGradient>
<clipPath id="clip0_202_10915">
<rect width="37" height="37" fill="white"/>
</clipPath>
</defs>
</svg>
