<svg width="32" height="36" viewBox="0 0 32 36" fill="none" xmlns="http://www.w3.org/2000/svg">
<g clip-path="url(#clip0_202_10475)">
<path d="M15.6642 35.8853C15.2825 35.6823 0.793375 27.3114 0.651667 27.212C0.350091 27.0004 0.370404 27.6655 0.370404 18.0024C0.370404 8.33924 0.35009 9.00439 0.651667 8.79269C0.726253 8.74033 4.1613 6.74983 8.28511 4.36934C13.4594 1.38247 15.838 0.0346792 15.9605 0.020199C16.1822 -0.0059975 15.4181 -0.434074 24.2029 4.63784C29.3911 7.63323 31.4533 8.848 31.5297 8.95372L31.636 9.10085V18.0024V26.9039L31.5297 27.051C31.4533 27.1567 29.3917 28.3711 24.2027 31.3669C15.9933 36.1065 16.1817 35.9999 16.0105 36.0008C15.9404 36.0012 15.7845 35.9492 15.6642 35.8853Z" fill="#EB324B"/>
<path d="M15.7948 33.6472C15.7408 33.6242 12.7402 31.8966 9.12663 29.808C4.92133 27.3774 2.52061 25.9625 2.45664 25.8768C2.35706 25.7434 2.35669 25.7144 2.35669 18.0011C2.35669 10.283 2.35699 10.259 2.45683 10.1252C2.52107 10.0392 4.91262 8.6297 9.12683 6.19414C12.7402 4.10581 15.7516 2.37543 15.8188 2.34885C15.8859 2.32228 16.0089 2.31329 16.092 2.32889C16.2105 2.35111 28.8829 9.62559 29.4118 9.97497C29.4833 10.0222 29.5645 10.1204 29.5923 10.1933C29.6261 10.2817 29.6482 12.8899 29.6586 18.0342L29.6742 25.7426L29.5716 25.8812C29.5039 25.9727 28.1014 26.8085 25.4519 28.3364C15.5307 34.0577 16.1649 33.6993 15.9755 33.6921C15.93 33.6904 15.8487 33.6702 15.7948 33.6472ZM16.1337 25.121C16.2695 24.8585 16.783 24.2044 17.1958 23.7683C17.4233 23.528 18.2936 22.7205 19.1298 21.9739C21.0596 20.2507 21.6832 19.6008 22.3299 18.6387C23.1593 17.4049 23.5545 15.933 23.3701 14.7642C23.1681 13.484 22.3885 12.4176 21.2387 11.8488C20.7428 11.6034 20.3839 11.5192 19.7183 11.492C19.2294 11.4721 19.055 11.4857 18.6884 11.5727C17.6259 11.8248 16.7043 12.5218 16.2028 13.4523C16.1192 13.6074 16.0322 13.7343 16.0095 13.7343C15.9867 13.7343 15.9133 13.6263 15.8464 13.4942C15.6715 13.149 15.1796 12.5559 14.8773 12.3257C14.0296 11.6801 13.3 11.4467 12.2694 11.4912C11.6024 11.52 11.1984 11.6236 10.664 11.9026C9.74967 12.3801 9.00235 13.3123 8.72383 14.3228C8.61454 14.7194 8.60229 15.9559 8.70318 16.4072C8.93828 17.4589 9.48169 18.494 10.3253 19.497C10.7991 20.0603 11.6983 20.9287 13.0483 22.1267C14.7075 23.5992 15.3048 24.2207 15.7909 24.9806C15.8891 25.1341 15.9903 25.2597 16.0157 25.2597C16.0412 25.2597 16.0943 25.1973 16.1337 25.121Z" fill="#333943"/>
<path d="M18.8807 27.9358C17.3722 26.57 16.1308 25.42 16.1219 25.3802C16.1039 25.3002 16.3266 24.9294 16.6197 24.5512C17.0673 23.9738 17.6496 23.3984 19.0804 22.1199C21.4678 19.9865 22.125 19.2588 22.7973 18.0039C23.2543 17.1508 23.4707 16.2921 23.4694 15.3368C23.4685 14.6128 23.3754 14.2028 23.0684 13.5697C22.9911 13.4102 22.934 13.2651 22.9415 13.2471C22.9553 13.2143 29.3546 19.1392 29.5148 19.3331C29.5946 19.4297 29.6006 19.6577 29.6004 22.5581C29.6002 25.4412 29.5936 25.6898 29.5146 25.8177C29.4519 25.9191 28.4056 26.5473 25.6036 28.1659C23.4996 29.3813 21.7433 30.3854 21.7007 30.3973C21.6505 30.4114 20.6572 29.5444 18.8807 27.9358Z" fill="#252A32"/>
</g>
<defs>
<clipPath id="clip0_202_10475">
<rect width="32" height="36.0009" fill="white"/>
</clipPath>
</defs>
</svg>
