<svg width="41" height="32" viewBox="0 0 41 32" fill="none" xmlns="http://www.w3.org/2000/svg">
<g clip-path="url(#clip0_202_15694)">
<path d="M33.1754 0.667969C30.0548 0.667969 27.4541 2.74267 26.6563 5.84764C25.2184 1.18209 21.5381 0.671511 20.0026 0.671511C18.4676 0.671511 14.7885 1.18209 13.3479 5.84663C12.5499 2.74444 9.94888 0.671511 6.82899 0.671511C3.00066 0.671511 0.00195312 3.40835 0.00195312 6.90194C0.00195312 8.44684 0.383749 9.68027 0.844991 11.0182L6.04288 25.7175C7.78335 30.5925 11.3291 31.3204 13.2876 31.3204C16.3597 31.3204 18.7537 29.7469 20.0021 26.9585C21.2517 29.7596 23.646 31.3409 26.7165 31.3409C28.6726 31.3409 32.2147 30.6117 33.9641 25.7187L39.1908 10.9694L39.2315 10.8477C39.2912 10.6587 39.3515 10.4813 39.4084 10.3128C39.6867 9.4895 40.002 8.55614 40.002 7.41227C40.002 3.50449 37.131 0.667969 33.1754 0.667969ZM35.6393 9.71089L30.4128 24.4602C29.7747 26.2447 28.7133 27.5731 26.7165 27.5731C24.8457 27.5731 23.7411 26.5306 23.1893 24.7444L20.0443 14.928H19.9588L16.8156 24.7444C16.2628 26.5309 15.1579 27.5526 13.2876 27.5526C11.2904 27.5526 10.2282 26.2351 9.59112 24.4506L4.40715 9.79058C3.98209 8.55791 3.76981 7.79508 3.76981 6.90169C3.76981 5.54149 5.04525 4.43937 6.82899 4.43937C8.31645 4.43937 9.37859 5.42005 9.71864 6.86475L13.2456 18.558H13.3301L16.8996 7.12232C17.368 5.46534 18.2173 4.43937 20.0026 4.43937C21.7868 4.43937 22.6364 5.46357 23.1038 7.12054L26.6735 18.558H26.7578L30.286 6.86475C30.6256 5.42005 31.6875 4.43583 33.1754 4.43583C34.9592 4.43583 36.2341 5.542 36.2341 7.41227C36.2341 8.09186 35.9358 8.77449 35.6393 9.71089Z" fill="#3192E7"/>
</g>
<defs>
<clipPath id="clip0_202_15694">
<rect width="41" height="32" fill="white"/>
</clipPath>
</defs>
</svg>
