<svg width="36" height="36" viewBox="0 0 36 36" fill="none" xmlns="http://www.w3.org/2000/svg">
<g clip-path="url(#clip0_202_13089)">
<path d="M36.001 18.3074C36.001 8.36631 27.942 0.307373 18.001 0.307373C8.05991 0.307373 0.000976562 8.36631 0.000976562 18.3074C0.000976562 26.6363 5.65804 33.6438 13.3394 35.6976C14.6746 29.9231 16.0477 24.011 16.5449 21.284C16.769 19.9712 16.4097 19.5525 15.4948 19.06C11.8343 17.6005 8.18155 18.7665 5.46327 13.3918C12.5525 14.4343 16.3132 12.7862 18.1126 15.8012V15.8014C19.9121 12.7864 23.6728 14.4346 30.7619 13.3921C28.0436 18.7668 24.391 17.6007 20.7305 19.0603C19.8156 19.5527 19.4563 19.9715 19.6803 21.2844C20.1759 24.0021 21.5415 29.884 22.8725 35.6401C30.4467 33.5157 36.001 26.5602 36.001 18.3074Z" fill="#03CACF"/>
</g>
<defs>
<clipPath id="clip0_202_13089">
<rect width="36.001" height="36" fill="white"/>
</clipPath>
</defs>
</svg>
