<svg width="37" height="37" viewBox="0 0 37 37" fill="none" xmlns="http://www.w3.org/2000/svg">
<g clip-path="url(#clip0_202_12584)">
<path d="M18.0066 34.2043C26.9536 34.2043 34.2066 26.9513 34.2066 18.0043C34.2066 9.05731 26.9536 1.80432 18.0066 1.80432C9.05957 1.80432 1.80658 9.05731 1.80658 18.0043C1.80658 26.9513 9.05957 34.2043 18.0066 34.2043Z" fill="white"/>
<path d="M18.0066 36.0044C27.9477 36.0044 36.0066 27.9455 36.0066 18.0044C36.0066 8.06327 27.9477 0.00439453 18.0066 0.00439453C8.06547 0.00439453 0.0065918 8.06327 0.0065918 18.0044C0.0065918 27.9455 8.06547 36.0044 18.0066 36.0044ZM18.0066 32.4044C10.0537 32.4044 3.60659 25.9573 3.60659 18.0044C3.60659 10.0515 10.0537 3.60439 18.0066 3.60439C25.9595 3.60439 32.4066 10.0515 32.4066 18.0044C32.4066 25.9573 25.9595 32.4044 18.0066 32.4044Z" fill="#3C790A"/>
<path d="M13.6866 13.6844C13.6866 9.36444 22.3266 8.28444 21.9666 12.9644C21.9666 16.2044 16.2066 17.6444 16.2066 21.2444V23.7644H19.8066V22.3244C19.8066 19.0844 25.9266 18.0044 25.9266 12.6044C25.2066 4.68444 9.72662 4.68444 9.72662 13.6844H13.6866ZM16.2066 25.2044H19.8066V28.8044H16.2066V25.2044Z" fill="#3C790A"/>
</g>
<defs>
<clipPath id="clip0_202_12584">
<rect width="37" height="37" fill="white"/>
</clipPath>
</defs>
</svg>
