<svg width="41" height="24" viewBox="0 0 41 24" fill="none" xmlns="http://www.w3.org/2000/svg">
<g clip-path="url(#clip0_202_15601)">
<path fill-rule="evenodd" clip-rule="evenodd" d="M36.2735 0.0993652H3.71436C1.65386 0.0993652 -0.0141633 1.78373 0.00207062 3.82788V16.2563C0.00207062 18.3167 1.67021 19.9848 3.73071 19.9848H19.1517L26.2 23.9095L24.5973 19.9848H36.2735C38.334 19.9848 40.002 18.3167 40.002 16.2563V3.82788C40.002 1.76738 38.334 0.0993652 36.2735 0.0993652ZM3.0276 2.97751C2.5697 3.01022 2.22628 3.17376 1.99734 3.48446C1.7684 3.77882 1.68664 4.15494 1.73569 4.58012C2.70053 10.7126 3.59995 14.8499 4.43396 16.9922C4.76103 17.7771 5.13715 18.1533 5.57869 18.1206C6.26551 18.0715 7.08317 17.123 8.04801 15.2751C8.55495 14.2284 9.33991 12.6586 10.4029 10.5654C11.2859 13.6561 12.496 15.9783 14.0169 17.5318C14.4421 17.9733 14.8837 18.1696 15.3088 18.1369C15.685 18.1042 15.9792 17.9079 16.1755 17.5481C16.339 17.2374 16.4045 16.8776 16.3717 16.4688C16.2736 14.9807 16.4209 12.9039 16.8297 10.2383C17.2548 7.49099 17.7781 5.51225 18.4159 4.33483C18.5467 4.08953 18.5957 3.84422 18.5794 3.54988C18.5467 3.17375 18.3832 2.86304 18.0725 2.61775C17.7618 2.37245 17.4183 2.25798 17.0422 2.29068C16.568 2.32339 16.2082 2.55233 15.9629 3.01022C14.9491 4.85813 14.2295 7.85075 13.8044 12.0044C13.1829 10.4346 12.6596 8.58664 12.2507 6.41167C12.0709 5.44684 11.6294 4.98895 10.9098 5.03801C10.4192 5.07071 10.0104 5.39778 9.68332 6.0192L6.10199 12.8385C5.51327 10.4673 4.95726 7.57275 4.45032 4.15494C4.33585 3.30458 3.8616 2.9121 3.0276 2.97751ZM34.5401 4.15499C35.7012 4.4003 36.5679 5.02171 37.1566 6.05196C37.6799 6.93503 37.9415 7.99799 37.9415 9.27353C37.9415 10.9579 37.5164 12.4951 36.666 13.9015C35.6848 15.5368 34.4093 16.3544 32.823 16.3544C32.5451 16.3544 32.2507 16.3217 31.9399 16.2563C30.7789 16.011 29.9122 15.3897 29.3234 14.3594C28.8002 13.4599 28.5385 12.3806 28.5385 11.1214C28.5385 9.43706 28.9637 7.89986 29.814 6.50985C30.8116 4.87453 32.0871 4.05687 33.6571 4.05687C33.935 4.05687 34.2294 4.08958 34.5401 4.15499ZM33.8533 13.002C34.4584 12.4624 34.8672 11.6611 35.0961 10.5818C35.1616 10.2057 35.2106 9.79683 35.2106 9.37164C35.2106 8.89741 35.1125 8.39046 34.9162 7.88351C34.6709 7.24574 34.3438 6.90232 33.9513 6.82055C33.3627 6.70608 32.7903 7.03315 32.2507 7.83445C31.8092 8.45587 31.5311 9.10999 31.384 9.78047C31.3021 10.1566 31.2694 10.5655 31.2694 10.9743C31.2694 11.4485 31.3675 11.9554 31.5638 12.4624C31.8092 13.1001 32.1362 13.4435 32.5287 13.5254C32.9375 13.6071 33.379 13.4272 33.8533 13.002ZM26.9032 6.05196C26.3144 5.02171 25.4314 4.4003 24.2867 4.15499C23.9759 4.08958 23.6816 4.05687 23.4035 4.05687C21.8337 4.05687 20.5582 4.87453 19.5606 6.50985C18.7102 7.89986 18.2851 9.43706 18.2851 11.1214C18.2851 12.3806 18.5467 13.4599 19.07 14.3594C19.6587 15.3897 20.5255 16.011 21.6865 16.2563C21.9971 16.3217 22.2915 16.3544 22.5696 16.3544C24.1558 16.3544 25.4314 15.5368 26.4125 13.9015C27.263 12.4951 27.6881 10.9579 27.6881 9.27353C27.6881 7.99799 27.4264 6.93503 26.9032 6.05196ZM24.8426 10.5818C24.6137 11.6611 24.2048 12.4624 23.5998 13.002C23.1255 13.4272 22.684 13.6071 22.2752 13.5254C21.8827 13.4435 21.5556 13.1001 21.3104 12.4624C21.1141 11.9554 21.016 11.4485 21.016 10.9743C21.016 10.5655 21.0487 10.1566 21.1305 9.78047C21.2777 9.10999 21.5556 8.45587 21.9971 7.83445C22.5369 7.03315 23.1092 6.70608 23.6979 6.82055C24.0904 6.90232 24.4175 7.24574 24.6628 7.88351C24.859 8.39046 24.9571 8.89741 24.9571 9.37164C24.9571 9.79683 24.9244 10.2057 24.8426 10.5818Z" fill="#7F54B3"/>
</g>
<defs>
<clipPath id="clip0_202_15601">
<rect width="41" height="24" fill="white"/>
</clipPath>
</defs>
</svg>
