<svg width="33" height="29" viewBox="0 0 33 29" fill="none" xmlns="http://www.w3.org/2000/svg">
<g clip-path="url(#clip0_202_9682)">
<rect x="8.00659" y="0.00219727" width="24" height="28" rx="2" fill="url(#paint0_linear_202_9682)"/>
<path d="M8.00659 21.0022H32.0066V26.0022C32.0066 27.1068 31.1112 28.0022 30.0066 28.0022H10.0066C8.90202 28.0022 8.00659 27.1068 8.00659 26.0022V21.0022Z" fill="url(#paint1_linear_202_9682)"/>
<rect x="8.00659" y="14.0022" width="24" height="7" fill="url(#paint2_linear_202_9682)"/>
<rect x="8.00659" y="7.0022" width="24" height="7" fill="url(#paint3_linear_202_9682)"/>
<path d="M8.00659 10.0022C8.00659 8.34534 9.34974 7.0022 11.0066 7.0022H17.0066C18.6634 7.0022 20.0066 8.34534 20.0066 10.0022V22.0022C20.0066 23.6591 18.6634 25.0022 17.0066 25.0022H8.00659V10.0022Z" fill="black" fill-opacity="0.3"/>
<rect x="0.0065918" y="5.0022" width="18" height="18" rx="2" fill="url(#paint4_linear_202_9682)"/>
<path d="M15.0066 9.01638H13.0589L11.5295 15.5412L9.85626 9.0022H8.20921L6.52293 15.5412L5.00659 9.01638H3.00659L5.6079 19.0022H7.33339L9.00659 12.6901L10.6798 19.0022H12.4053L15.0066 9.01638Z" fill="white"/>
</g>
<defs>
<linearGradient id="paint0_linear_202_9682" x1="8.00659" y1="4.66886" x2="32.0066" y2="4.66886" gradientUnits="userSpaceOnUse">
<stop stop-color="#2B78B1"/>
<stop offset="1" stop-color="#338ACD"/>
</linearGradient>
<linearGradient id="paint1_linear_202_9682" x1="8.00659" y1="25.3772" x2="32.0066" y2="25.3772" gradientUnits="userSpaceOnUse">
<stop stop-color="#1B366F"/>
<stop offset="1" stop-color="#2657B0"/>
</linearGradient>
<linearGradient id="paint2_linear_202_9682" x1="18.5066" y1="18.0022" x2="32.0066" y2="18.0022" gradientUnits="userSpaceOnUse">
<stop stop-color="#20478B"/>
<stop offset="1" stop-color="#2D6FD1"/>
</linearGradient>
<linearGradient id="paint3_linear_202_9682" x1="18.5066" y1="11.0022" x2="32.0066" y2="11.0022" gradientUnits="userSpaceOnUse">
<stop stop-color="#215295"/>
<stop offset="1" stop-color="#2E84D3"/>
</linearGradient>
<linearGradient id="paint4_linear_202_9682" x1="0.00659183" y1="15.0022" x2="19.0066" y2="15.0022" gradientUnits="userSpaceOnUse">
<stop stop-color="#223E74"/>
<stop offset="1" stop-color="#215091"/>
</linearGradient>
<clipPath id="clip0_202_9682">
<rect width="33" height="29" fill="white"/>
</clipPath>
</defs>
</svg>
