<svg width="37" height="37" viewBox="0 0 37 37" fill="none" xmlns="http://www.w3.org/2000/svg">
<g clip-path="url(#clip0_202_15652)">
<circle cx="18.002" cy="18.0044" r="18" fill="#028CB0"/>
<path d="M5.73034 18.0044C5.73034 22.8674 8.55891 27.0559 12.6495 29.0467L6.79649 13.0109C6.09368 14.5818 5.73037 16.2834 5.73034 18.0044ZM18.002 30.2761C19.4272 30.2761 20.7979 30.0259 22.0817 29.5798L21.9946 29.4166L18.2196 19.0815L14.5424 29.7756C15.6303 30.102 16.7944 30.2761 18.002 30.2761ZM19.6883 12.2494L24.1269 25.4457L25.3563 21.3552C25.8785 19.6581 26.281 18.4396 26.281 17.3843C26.281 15.8612 25.737 14.8168 25.2801 14.0118C24.6491 12.9892 24.0725 12.1297 24.0725 11.1288C24.0725 9.9974 24.9211 8.953 26.1396 8.953H26.2919C24.0307 6.87717 21.0715 5.72767 18.002 5.73278C15.9696 5.7324 13.9689 6.23727 12.18 7.20198C10.3912 8.16668 8.87016 9.56096 7.75386 11.2594L8.53715 11.2811C9.82089 11.2811 11.8009 11.1179 11.8009 11.1179C12.4754 11.0853 12.5515 12.0536 11.8879 12.1297C11.8879 12.1297 11.2243 12.2167 10.4736 12.2494L14.9558 25.5437L17.643 17.4931L15.7283 12.2494C15.2994 12.2257 14.8713 12.1894 14.4445 12.1406C13.7809 12.0971 13.857 11.0853 14.5207 11.1179C14.5207 11.1179 16.5442 11.2811 17.7518 11.2811C19.0355 11.2811 21.0155 11.1179 21.0155 11.1179C21.6791 11.0853 21.7662 12.0536 21.1025 12.1297C21.1025 12.1297 20.4389 12.2059 19.6883 12.2494ZM24.1705 28.6116C26.0269 27.5321 27.5676 25.9844 28.6386 24.1231C29.7096 22.2617 30.2734 20.1519 30.2736 18.0044C30.2736 15.8721 29.7297 13.8704 28.7723 12.1188C28.9667 14.0458 28.675 15.9908 27.9237 17.776L24.1705 28.6116ZM18.002 32.1473C14.2511 32.1473 10.6538 30.6572 8.00148 28.0049C5.34918 25.3526 3.85913 21.7553 3.85913 18.0044C3.85913 14.2535 5.34918 10.6562 8.00148 8.00392C10.6538 5.35162 14.2511 3.86157 18.002 3.86157C21.7529 3.86157 25.3502 5.35162 28.0025 8.00392C30.6548 10.6562 32.1448 14.2535 32.1448 18.0044C32.1448 21.7553 30.6548 25.3526 28.0025 28.0049C25.3502 30.6572 21.7529 32.1473 18.002 32.1473Z" fill="white"/>
</g>
<defs>
<clipPath id="clip0_202_15652">
<rect width="37" height="37" fill="white"/>
</clipPath>
</defs>
</svg>
