<svg width="34" height="37" viewBox="0 0 34 37" fill="none" xmlns="http://www.w3.org/2000/svg">
<path d="M33.9035 15.8144C33.9035 7.07552 26.8172 0.00244141 18.0915 0.00244141C15.6721 0.00244141 13.3056 0.478385 11.0978 1.43028C8.9428 2.34251 7.0258 3.63814 5.3732 5.29074C3.72063 6.9301 2.425 8.86031 1.51277 11.0021C0.574102 13.2231 0.0981445 15.5764 0.0981445 18.0091C0.0981445 20.4416 0.574102 22.795 1.51277 25.016C2.425 27.1578 3.72063 29.0748 5.3732 30.7274C7.0258 32.38 8.95601 33.6756 11.0978 34.5879C13.3056 35.5266 15.6722 36.0024 18.1048 36.0024C20.4448 36.0024 22.6791 35.5528 24.7284 34.7465L23.3666 31.3091C21.7405 31.9569 19.9689 32.3139 18.1048 32.3139C14.284 32.3139 10.688 30.8199 7.99094 28.1229C5.2939 25.4259 3.79993 21.8298 3.79993 18.0091C3.79993 14.1883 5.2939 10.5922 7.99094 7.8952C10.7012 5.19819 14.284 3.70423 18.1048 3.70423C24.7945 3.70423 30.2149 9.12474 30.2149 15.8144C30.2149 18.2735 29.4746 20.5739 28.2054 22.4909L25.0588 14.7435C24.5961 13.6066 24.0409 11.9011 21.952 11.9011C19.8631 11.9011 19.3078 13.6198 18.8584 14.7435L15.963 21.8959L12.0761 12.0862H7.99094L12.8297 24.0112C13.3189 25.2143 13.8609 26.8537 15.963 26.8537C18.0651 26.8537 18.5939 25.2143 19.0831 24.0112L21.952 16.925L24.8341 24.0112C25.4158 25.4788 26.0372 26.8537 27.9542 26.8537C29.3159 26.8537 30.1753 25.9811 30.6512 25.4126C32.6872 22.7553 33.9035 19.4237 33.9035 15.8144Z" fill="#4326C4"/>
</svg>
