<svg width="37" height="37" viewBox="0 0 37 37" fill="none" xmlns="http://www.w3.org/2000/svg">
<g clip-path="url(#clip0_202_14295)">
<path d="M36.0059 18.0016C36.0059 27.9426 27.9469 36.0016 18.0059 36.0016C8.0648 36.0016 0.00585938 27.9426 0.00585938 18.0016C0.00585938 8.06052 8.0648 0.00158691 18.0059 0.00158691C27.9469 0.00158691 36.0059 8.06052 36.0059 18.0016Z" fill="#51BBD6"/>
<path d="M14.3468 15.481V10.6066L22.196 13.241L14.3468 15.481ZM22.196 23.1753L14.3468 25.5534V20.6485L22.196 23.1753ZM27.3895 11.49L14.3468 6.84533V4.58521H10.7468V31.4377H14.3468V29.3479L27.3895 25.3589V21.7589L17.7698 18.1589L27.3895 15.1491V11.49Z" fill="white"/>
</g>
<defs>
<clipPath id="clip0_202_14295">
<rect width="37" height="37" fill="white"/>
</clipPath>
</defs>
</svg>
