<svg width="37" height="37" viewBox="0 0 37 37" fill="none" xmlns="http://www.w3.org/2000/svg">
<g clip-path="url(#clip0_202_14154)">
<path d="M12.214 36.0016H23.7904V27.2486L20.9669 24.4251H14.9669L12.214 27.2486V36.0016ZM27.1787 12.2134L24.4257 14.9663V21.0369L27.1787 23.7898H36.0022V12.2134H27.1787ZM23.7904 0.00158691H12.214V8.82512L14.9669 11.5781H20.9669L23.7904 8.82512V0.00158691ZM36.0022 36.0016V27.2486L33.2493 24.4251H24.4257V36.0016H36.0022ZM2.75514 0.00158691L0.00219727 2.75453V11.5781H11.5787V0.00158691H2.75514ZM24.4257 0.00158691V8.82512L27.1787 11.5781H36.0022V0.00158691H24.4257ZM18.0022 19.6957C17.0846 19.6957 16.3787 18.9192 16.3787 18.0722C16.3787 17.1545 17.1551 16.4486 18.0022 16.4486C18.9198 16.4486 19.6257 17.2251 19.6257 18.0722C19.6257 18.9192 18.9198 19.6957 18.0022 19.6957ZM11.5787 12.2134H0.00219727V23.7898H8.75514L11.5787 21.0369V12.2134ZM11.5787 27.2486L8.75514 24.4251H0.00219727V36.0016H8.75514L11.5787 33.2486V27.2486Z" fill="#40BAC8"/>
</g>
<defs>
<clipPath id="clip0_202_14154">
<rect width="37" height="37" fill="white"/>
</clipPath>
</defs>
</svg>
