<svg width="36" height="37" viewBox="0 0 36 37" fill="none" xmlns="http://www.w3.org/2000/svg">
<g clip-path="url(#clip0_202_14249)">
<path d="M0.00512695 18.5582C0.299175 28.2418 8.24179 36.0018 17.9967 36.0018C27.9378 36.0018 35.9967 27.9428 35.9967 18.0018C35.9967 8.06071 27.9378 0.00177002 17.9967 0.00177002C8.24179 0.00177002 0.299175 7.76171 0.00512695 17.4453V18.5582Z" fill="#D46A59"/>
<path d="M31.9449 18.0018C31.9449 25.7051 25.7001 31.9499 17.9968 31.9499C10.2933 31.9499 4.04858 25.7051 4.04858 18.0018C4.04858 10.2985 10.2933 4.05359 17.9968 4.05359C25.7001 4.05359 31.9449 10.2985 31.9449 18.0018Z" fill="#D04F41"/>
<path d="M12.0538 29.1034L3.42114 11.9838L9.30166 10.1193L13.8734 20.3563L14.5008 9.36636L19.6105 8.38015L24.3256 18.4379L24.7493 7.38903L30.0088 6.35431L28.5029 25.9141L22.9988 27.0078L18.2479 17.1651L17.5846 28.0834L12.0538 29.1034Z" fill="white"/>
</g>
<defs>
<clipPath id="clip0_202_14249">
<rect width="36" height="37" fill="white"/>
</clipPath>
</defs>
</svg>
