<svg width="37" height="34" viewBox="0 0 37 34" fill="none" xmlns="http://www.w3.org/2000/svg">
<g clip-path="url(#clip0_202_14103)">
<path d="M10.3894 0.985168C9.41712 0.98723 8.46537 1.53913 7.97591 2.38108L0.363327 15.605C-0.118505 16.4492 -0.118505 17.5526 0.363327 18.3968L7.97591 31.6208C8.46542 32.4627 9.41712 33.0148 10.3894 33.0167H25.6145C26.5868 33.0146 27.5385 32.4627 28.028 31.6208L35.6406 18.3968C36.1224 17.5526 36.1224 16.4492 35.6406 15.605L28.028 2.38108C27.5385 1.53913 26.5868 0.987076 25.6145 0.985168H10.3894ZM10.5276 8.72132C10.5485 8.71926 10.5704 8.71926 10.5914 8.72132H13.2175C13.3338 8.72372 13.4465 8.7909 13.5046 8.89181L17.9594 16.8304C17.9819 16.8697 17.9963 16.9134 18.0018 16.9583C18.0073 16.9134 18.0217 16.8697 18.0441 16.8304L22.4883 8.89181C22.5482 8.78785 22.6663 8.72029 22.786 8.72132H25.4121C25.6447 8.72338 25.8188 9.01628 25.7098 9.22214L21.3614 17.0009L25.7098 24.769C25.8291 24.9761 25.6507 25.2826 25.4121 25.2805H22.786C22.6642 25.2795 22.5455 25.2073 22.4883 25.0994L18.0441 17.1608C18.0217 17.1215 18.0073 17.0778 18.0018 17.0329C17.9963 17.0778 17.9819 17.1215 17.9594 17.1608L13.5046 25.0994C13.4492 25.2042 13.3358 25.2757 13.2175 25.2805H10.5914C10.3528 25.2826 10.1744 24.9761 10.2937 24.769L14.6422 17.0009L10.2937 9.22214C10.1895 9.03431 10.3167 8.76141 10.5276 8.72132Z" fill="#3498DB"/>
</g>
<defs>
<clipPath id="clip0_202_14103">
<rect width="37" height="34" fill="white"/>
</clipPath>
</defs>
</svg>
