<svg width="36" height="37" viewBox="0 0 36 37" fill="none" xmlns="http://www.w3.org/2000/svg">
<g clip-path="url(#clip0_202_14364)">
<path fill-rule="evenodd" clip-rule="evenodd" d="M17.9962 0.00202256C22.6325 0.00202256 27.269 0.00202256 31.9053 0.00177002C32.4871 0.00177002 33.0635 0.0522785 33.6218 0.222492C34.8321 0.591456 35.4731 1.45944 35.7243 2.65574C35.824 3.13001 35.8523 3.61363 35.8533 4.097C35.8606 7.34418 35.8662 10.5914 35.8665 13.8386C35.8667 19.7526 35.8675 25.6666 35.8553 31.5807C35.8536 32.4085 35.8095 33.2454 35.4008 33.9995C34.9475 34.8359 34.3268 35.4979 33.3845 35.789C33.2143 35.8416 33.0365 35.9014 32.8619 35.9014C32.4598 35.9017 32.0684 36.0014 31.6675 36.0014C22.5885 36.0007 13.5094 36.006 4.43032 35.9916C3.69196 35.9903 2.94147 35.9365 2.24004 35.636C2.10041 35.5761 1.95952 35.5259 1.83684 35.4324C0.943681 34.7518 0.337365 33.903 0.207349 32.7545C0.160554 32.3403 0.14563 31.9284 0.14563 31.5142C0.147148 22.3116 0.147906 13.109 0.152712 3.90633C0.152965 3.37245 0.15853 2.82949 0.322694 2.31859C0.760041 0.956885 1.71694 0.213653 3.13548 0.0626327C3.46507 0.0275293 3.79769 0.00480053 4.1288 0.00454798C8.75118 0.00075985 13.3738 0.00202256 17.9962 0.00202256Z" fill="#FB7A24"/>
<path fill-rule="evenodd" clip-rule="evenodd" d="M18.1144 22.9017C18.0129 23.5232 17.9417 24.0848 17.7184 24.6025C16.6731 27.0282 14.892 28.5063 12.2216 28.8005C9.06505 29.1483 6.1497 27.2002 5.27313 24.1745C4.95543 23.0779 4.98725 21.9602 5.10241 20.8442C5.2254 19.6517 5.57668 18.5208 6.1252 17.4541C6.20374 17.3015 6.20223 17.1864 6.10399 17.0386C5.26176 15.7719 4.93497 14.3725 5.05367 12.8621C5.11706 12.0547 5.31303 11.2824 5.67921 10.5592C6.75201 8.44033 9.10748 6.64223 12.2622 6.94073C15.0362 7.20312 17.6055 9.59596 18.0066 12.2871C18.0268 12.4222 18.0646 12.5547 18.1091 12.754C18.1755 12.3931 18.2235 12.0954 18.2856 11.8004C18.8023 9.35554 21.1954 6.79729 24.5876 6.76572C28.0257 6.7339 30.5718 9.4303 31.0521 11.9348C31.2552 12.9932 31.2198 14.0506 31.0524 15.1074C30.885 16.1633 30.5748 17.1783 30.1215 18.1458C30.0215 18.3592 30.0319 18.5127 30.1599 18.711C30.9004 19.8585 31.2272 21.1182 31.1852 22.4862C31.0976 25.3407 29.0788 27.9005 26.3013 28.57C22.4235 29.5044 19.4511 27.1853 18.4508 24.3795C18.2876 23.9229 18.2104 23.4461 18.1144 22.9017ZM25.1593 17.8867C25.2007 17.7253 25.3257 17.6286 25.4156 17.5091C26.3879 16.2171 26.8993 14.7738 26.7852 13.1487C26.7021 11.9625 25.7265 11.1271 24.5456 11.1713C23.364 11.2155 22.4735 12.1269 22.4569 13.3093C22.4556 13.4061 22.4614 13.503 22.4553 13.5993C22.374 14.8595 21.6788 15.5496 20.6252 15.6267C20.4327 15.6408 20.2398 15.658 20.0471 15.6585C18.6796 15.6615 17.3123 15.661 15.9448 15.6598C15.3475 15.6593 14.7553 15.7242 14.1866 15.8997C11.5316 16.7189 9.98355 18.5344 9.47088 21.2404C9.36936 21.7758 9.27794 22.3314 9.45346 22.8815C9.70524 23.6701 10.1747 24.2568 11.0058 24.453C11.8673 24.6563 12.6176 24.4313 13.2136 23.7548C13.5989 23.3173 13.7204 22.7976 13.7492 22.2271C13.8237 20.7598 14.6227 20.0265 15.9552 20.0376C17.9992 20.0545 20.0436 20.0411 22.0879 20.0426C22.4508 20.0429 22.4541 20.0477 22.4559 20.4065C22.4594 21.0695 22.4389 21.7331 22.4644 22.3953C22.5061 23.4762 23.4572 24.3747 24.5598 24.4063C25.6967 24.4389 26.7102 23.5979 26.7842 22.5001C26.8481 21.5501 26.844 20.5939 26.7817 19.6431C26.7334 18.9069 26.3352 18.3824 25.6604 18.0779C25.4985 18.0051 25.3283 17.9506 25.1593 17.8867ZM12.3456 15.6565C12.7852 15.6565 13.1441 15.6524 13.5027 15.6582C13.6805 15.661 13.7464 15.5845 13.7449 15.4102C13.7391 14.7206 13.7747 14.0286 13.7308 13.3414C13.6727 12.4348 13.1906 11.7794 12.3466 11.4489C11.4811 11.11 10.6891 11.3034 10.0194 11.9426C9.34663 12.5848 9.25698 13.3702 9.49235 14.2299C9.70853 15.0198 10.2194 15.4686 11.0228 15.6042C11.4895 15.6827 11.9587 15.6451 12.3456 15.6565Z" fill="white"/>
</g>
<defs>
<clipPath id="clip0_202_14364">
<rect width="36" height="37" fill="white"/>
</clipPath>
</defs>
</svg>
