<svg width="36" height="37" viewBox="0 0 36 37" fill="none" xmlns="http://www.w3.org/2000/svg">
<g clip-path="url(#clip0_202_10735)">
<rect y="0.00244141" width="36" height="36" rx="8" fill="#470137"/>
<path fill-rule="evenodd" clip-rule="evenodd" d="M25.7642 26.6059C24.6671 26.6208 23.57 26.3977 22.5767 25.9367C21.6427 25.5055 20.8718 24.7917 20.3381 23.9143C19.7895 23.0072 19.5227 21.877 19.5227 20.5238C19.5078 19.4233 19.7895 18.3378 20.3381 17.3861C20.9014 16.4195 21.7168 15.6165 22.6953 15.0811C23.7331 14.5012 24.9785 14.2186 26.4462 14.2186C26.5203 14.2186 26.6241 14.2186 26.7575 14.2335C26.8292 14.2415 26.9052 14.2452 26.9877 14.2492C27.0588 14.2526 27.1348 14.2563 27.2171 14.2632V9.56408C27.2171 9.45999 27.2616 9.4005 27.3654 9.4005H30.375C30.4491 9.38563 30.5084 9.44512 30.5232 9.5046V23.6912C30.5232 23.9343 30.5355 24.2019 30.5488 24.494L30.5529 24.5835C30.578 24.8476 30.5924 25.1011 30.6053 25.326L30.6122 25.446C30.6122 25.5501 30.5677 25.6393 30.4639 25.6839C29.693 26.0111 28.8776 26.249 28.0474 26.3977C27.2913 26.5315 26.5352 26.6059 25.7642 26.6059ZM27.2171 23.6318V17.0887C27.0837 17.0589 26.9503 17.0292 26.8168 17.0143C26.6538 16.9994 26.4907 16.9846 26.3276 16.9846C25.7494 16.9846 25.1712 17.1035 24.6523 17.3712C24.1482 17.624 23.7183 17.9958 23.3921 18.4716C23.066 18.9475 22.9029 19.5869 22.9029 20.3602C22.8881 20.8807 22.977 21.4011 23.1549 21.8919C23.3032 22.2934 23.5256 22.6503 23.8221 22.9477C24.1038 23.2154 24.4447 23.4236 24.8302 23.5425C25.2305 23.6764 25.6456 23.7358 26.0607 23.7358C26.2831 23.7358 26.4907 23.721 26.6834 23.7061C26.8761 23.721 27.0392 23.6912 27.2171 23.6318Z" fill="#FF61F6"/>
<path d="M14.4673 18.2783L18.9149 10.9173C18.9446 10.8876 18.9742 10.8281 18.9594 10.8132C18.9446 10.7389 18.8705 10.6943 18.7963 10.7091H15.6681C15.594 10.6943 15.5347 10.7091 15.4754 10.7389C15.4309 10.7686 15.4013 10.8281 15.3864 10.8876C15.2533 11.1364 15.1202 11.3902 14.9861 11.6459C14.7916 12.0167 14.595 12.3916 14.3931 12.7613C14.0521 13.3859 13.7112 14.0104 13.385 14.635C13.0588 15.2596 12.7327 15.899 12.4213 16.5533H12.3917C12.0803 15.9139 11.7542 15.2893 11.3984 14.6647C11.095 14.1536 10.8115 13.6424 10.5235 13.1231C10.4596 13.0079 10.3955 12.8923 10.3309 12.7762C9.98993 12.1367 9.66377 11.4973 9.38208 10.8578C9.3376 10.7984 9.29313 10.7537 9.23383 10.724C9.17452 10.7091 9.1004 10.6943 9.02627 10.6943H5.66086C5.60156 10.6943 5.54226 10.7091 5.5126 10.7537C5.48295 10.7835 5.49778 10.843 5.54226 10.9024L10.0344 18.5311L5.42365 26.1152C5.394 26.1598 5.37917 26.2193 5.394 26.2787C5.394 26.335 5.41944 26.3317 5.4575 26.3267C5.46976 26.3251 5.48333 26.3234 5.49778 26.3234H8.75941C8.92249 26.3234 9.04109 26.3085 9.1004 26.1598C9.32771 25.7533 9.55503 25.3337 9.78235 24.914C9.89602 24.7041 10.0097 24.4943 10.1234 24.2861C10.4495 23.6615 10.7905 23.0221 11.1315 22.3826C11.4725 21.7432 11.8135 21.1037 12.1248 20.4643H12.1545C12.5103 21.1186 12.8661 21.7581 13.2219 22.3975C13.5777 23.0369 13.9187 23.6615 14.23 24.2712C14.3857 24.5835 14.5451 24.8921 14.7045 25.2006C14.8638 25.5092 15.0232 25.8177 15.1789 26.13C15.2827 26.2787 15.4457 26.2936 15.683 26.2936H19.078C19.1124 26.2879 19.1423 26.291 19.167 26.2936C19.2061 26.2977 19.232 26.3004 19.2411 26.2639C19.2559 26.2044 19.2411 26.1449 19.2114 26.0854L14.4673 18.2783Z" fill="#FF61F6"/>
</g>
<defs>
<clipPath id="clip0_202_10735">
<rect width="36" height="37" fill="white"/>
</clipPath>
</defs>
</svg>
