<svg width="37" height="36" viewBox="0 0 37 36" fill="none" xmlns="http://www.w3.org/2000/svg">
<g clip-path="url(#clip0_202_14140)">
<path d="M18.0058 36.0009C27.9466 36.0009 36.0054 27.9415 36.0054 18.0009C36.0054 8.05871 27.9474 0.000915527 18.0058 0.000915527C8.06415 0.000915527 0.00537109 8.05871 0.00537109 18.0009C0.00537109 27.9415 8.06415 36.0009 18.0058 36.0009Z" fill="#1FC0E7"/>
<path d="M8.77578 17.9964L11.8414 14.9164C11.943 14.814 11.9998 14.6764 11.9998 14.5308C11.9998 14.2268 11.7534 13.9804 11.4502 13.9804C11.3022 13.9804 11.1638 14.038 11.0598 14.1444L7.99578 17.2108L4.91978 14.1388C4.81578 14.0364 4.67818 13.9804 4.53178 13.9804C4.22778 13.9804 3.98218 14.2268 3.98218 14.53C3.98218 14.678 4.04138 14.818 4.14698 14.922L7.21258 17.9916L4.14858 21.0636C4.04138 21.1708 3.98218 21.31 3.98218 21.458C3.98218 21.762 4.22858 22.0084 4.53178 22.0084C4.67818 22.0084 4.81578 21.9524 4.91978 21.8484L7.99178 18.7748L11.0518 21.8364C11.1606 21.9484 11.2998 22.0084 11.4502 22.0084C11.7526 22.0084 11.999 21.762 11.999 21.458C11.999 21.3116 11.943 21.174 11.839 21.07L8.77498 17.9932L8.77578 17.9964ZM27.0006 17.9956C27.0006 18.5476 27.4486 18.9956 28.0006 18.9956C28.5494 18.9956 28.9974 18.5476 28.9974 17.9956C28.9974 17.4436 28.5494 16.9956 27.9998 16.9956C27.4502 16.9956 27.003 17.4436 27.003 17.9956H27.0006ZM25.1086 17.9956C25.1086 16.3996 26.4046 15.0996 27.9998 15.0996C29.5918 15.0996 30.8902 16.3996 30.8902 17.9956C30.8902 19.5916 29.5926 20.8916 27.9998 20.8916C26.4054 20.8916 25.1086 19.5932 25.1086 17.9956ZM23.971 17.9956C23.971 20.2196 25.779 22.0308 27.9998 22.0308C30.2206 22.0308 32.0286 20.2212 32.0286 17.9964C32.0286 15.7724 30.2206 13.9612 27.9998 13.9612C25.7782 13.9612 23.971 15.7716 23.971 17.9964V17.9956ZM23.6854 14.03H23.5174C23.0094 14.03 22.5198 14.19 22.111 14.506C22.055 14.2612 21.8342 14.074 21.5718 14.074C21.2702 14.074 21.0278 14.318 21.0278 14.6212L21.0294 21.4172C21.0294 21.7188 21.2774 21.9644 21.5774 21.9644C21.8798 21.9644 22.1262 21.7188 22.127 21.4156V17.2364C22.127 15.8444 22.255 15.2812 23.4454 15.1324C23.5574 15.1188 23.6758 15.1212 23.6774 15.1212C24.0022 15.1092 24.2342 14.8844 24.2342 14.5812C24.2342 14.2772 23.9862 14.0308 23.6822 14.0308L23.6854 14.03ZM13.1366 17.3324C13.1366 17.3164 13.1382 17.3004 13.139 17.286C13.4574 16.022 14.5998 15.0884 15.959 15.0884C17.335 15.0884 18.487 16.0436 18.791 17.33H13.1358L13.1366 17.3324ZM19.915 17.2284C19.6782 16.106 19.0646 15.1836 18.131 14.5916C16.7646 13.7228 14.9614 13.7708 13.643 14.7116C12.5662 15.4772 11.9446 16.7316 11.9446 18.0236C11.9446 18.3476 11.9846 18.6748 12.0646 18.9972C12.471 20.5972 13.8454 21.81 15.4838 22.0108C15.9702 22.07 16.4438 22.0428 16.9318 21.9148C17.3542 21.8108 17.7614 21.6412 18.1366 21.3996C18.5262 21.1492 18.8518 20.818 19.1686 20.422C19.1734 20.414 19.1798 20.4084 19.1862 20.4004C19.4054 20.1284 19.3646 19.7396 19.1246 19.5556C18.9214 19.3996 18.5806 19.3364 18.3134 19.6804C18.2558 19.7636 18.191 19.8484 18.1214 19.9324C17.9078 20.1684 17.643 20.3964 17.3262 20.574C16.9214 20.79 16.4622 20.9124 15.9742 20.9156C14.3758 20.8972 13.5214 19.7796 13.2166 18.9828C13.1638 18.8332 13.123 18.6788 13.0942 18.5188L13.0862 18.4348H18.8222C19.6078 18.4172 20.0302 17.8612 19.9134 17.2268L19.915 17.2284Z" fill="white"/>
</g>
<defs>
<clipPath id="clip0_202_14140">
<rect width="37" height="36.0009" fill="white"/>
</clipPath>
</defs>
</svg>
