<svg width="36" height="37" viewBox="0 0 36 37" fill="none" xmlns="http://www.w3.org/2000/svg">
<g clip-path="url(#clip0_202_14149)">
<path d="M18.0011 35.0195C8.592 35.0195 0.98291 27.4104 0.98291 18.0013C0.98291 8.59225 8.592 0.983154 18.0011 0.983154C27.4102 0.983154 35.0193 8.59225 35.0193 18.0013C35.0193 27.4104 27.4102 35.0195 18.0011 35.0195Z" fill="white"/>
<path d="M18.001 2.04686C26.8373 2.04686 33.9555 9.24686 33.9555 18.0014C33.9555 26.7559 26.8373 33.9559 18.001 33.9559C9.16461 33.9559 2.04643 26.8378 2.04643 18.0014C2.04643 9.16504 9.16461 2.04686 18.001 2.04686ZM18.001 0.00140381C8.01916 0.00140381 0.000976562 8.01959 0.000976562 18.0014C0.000976562 27.9832 8.01916 36.0014 18.001 36.0014C27.9828 36.0014 36.001 27.9832 36.001 18.0014C36.001 8.01959 27.8192 0.00140381 18.001 0.00140381Z" fill="#3F3F3F"/>
<path d="M10.4737 16.7742L13.7464 19.3923L18.2464 12.0287L23.9737 21.1923L27.0828 18.7378L30.5191 23.8105C31.3373 22.0105 31.9919 19.8833 31.9919 17.8378C31.9919 10.0651 25.8555 3.92871 18.0828 3.92871C10.31 3.92871 3.92822 10.2287 3.92822 17.8378C3.92822 20.2923 4.58277 22.3378 5.56459 24.3833L10.4737 16.7742Z" fill="#0AB3E5"/>
</g>
<defs>
<clipPath id="clip0_202_14149">
<rect width="36.001" height="37" fill="white"/>
</clipPath>
</defs>
</svg>
