<svg width="37" height="30" viewBox="0 0 37 30" fill="none" xmlns="http://www.w3.org/2000/svg">
<g clip-path="url(#clip0_202_12980)">
<path d="M6.32304 1.3211L17.5877 14.7654L5.66393 28.8175C5.31912 29.2239 5.60796 29.8477 6.14093 29.8477H10.5173C10.728 29.8477 10.9279 29.7553 11.0642 29.5947L23.9471 14.4317L12.4326 0.520807C12.2583 0.310151 11.9989 0.188229 11.7254 0.188229H6.85179C6.26608 0.188229 5.94687 0.872088 6.32304 1.3211ZM0.661279 4.91376L8.97081 14.8024L0.103279 25.2817C-0.126924 25.5537 0.066435 25.9705 0.422638 25.9705H4.09703L13.8446 14.5844L4.83011 3.90562H1.13097C0.609669 3.90562 0.325888 4.51467 0.661279 4.91376ZM29.2489 0.457132L22.1867 9.08855L25.5852 12.7697L35.1757 1.42365C35.5988 0.923163 35.2431 0.156616 34.5877 0.156616H29.883C29.6373 0.156616 29.4046 0.267007 29.2489 0.457132ZM21.904 19.3067L30.4827 29.6065C30.6101 29.7594 30.7987 29.8478 30.9977 29.8478H35.3281C35.9028 29.8478 36.2139 29.1746 35.8414 28.7369L24.9615 15.9538L21.904 19.3067Z" fill="black"/>
</g>
<defs>
<clipPath id="clip0_202_12980">
<rect width="37" height="30" fill="white"/>
</clipPath>
</defs>
</svg>
