<svg width="36" height="36" viewBox="0 0 36 36" fill="none" xmlns="http://www.w3.org/2000/svg">
<g clip-path="url(#clip0_202_14397)">
<path d="M17.9467 0.0544739C18.6181 0.0544739 19.1654 0.586082 19.1904 1.25133L19.1913 1.29907V6.8775C19.1913 7.56487 18.6341 8.1221 17.9467 8.1221C17.2754 8.1221 16.7281 7.59049 16.703 6.92524L16.7021 6.8775V1.29907C16.7021 0.611698 17.2594 0.0544739 17.9467 0.0544739Z" fill="#70B700"/>
<path d="M34.7566 16.6477C35.444 16.6477 36.0012 17.205 36.0012 17.8923C36.0012 18.5611 35.4737 19.1067 34.8121 19.1357L34.7566 19.1369H29.1782C28.4908 19.1369 27.9336 18.5797 27.9336 17.8923C27.9336 17.2235 28.4611 16.678 29.1227 16.6489L29.1782 16.6477H34.7566Z" fill="#FF7700"/>
<path d="M19.1913 34.7017C19.1913 35.3891 18.6341 35.9463 17.9467 35.9463C17.278 35.9463 16.7324 35.4188 16.7034 34.7572L16.7021 34.7017V29.1233C16.7021 28.4359 17.2594 27.8787 17.9467 27.8787C18.6155 27.8787 19.1611 28.4062 19.1901 29.0679L19.1913 29.1233V34.7017Z" fill="#FF0000"/>
<path d="M1.24557 19.1369C0.558201 19.1369 0.000976562 18.5797 0.000976562 17.8923C0.000976562 17.2235 0.528488 16.678 1.19013 16.6489L1.24557 16.6477H6.824C7.51137 16.6477 8.0686 17.205 8.0686 17.8923C8.0686 18.5611 7.54109 19.1067 6.87944 19.1357L6.824 19.1369H1.24557Z" fill="#0087CB"/>
<path d="M31.5468 2.45933C32.43 3.2323 32.5338 4.56454 31.7922 5.46413L31.7501 5.51365L20.8223 18.0003L31.7501 30.4868C32.5374 31.3864 32.4464 32.7539 31.5468 33.5411C30.6636 34.3141 29.3293 34.2404 28.536 33.3861L28.4925 33.3378L17.9458 21.2869L7.39933 33.3378C6.61205 34.2374 5.24458 34.3284 4.345 33.5411C3.46178 32.7682 3.35797 31.4359 4.0996 30.5363L4.14167 30.4868L15.0694 18.0003L4.14167 5.51365C3.35439 4.61408 3.44543 3.24661 4.345 2.45933C5.22822 1.68636 6.56248 1.76006 7.35582 2.6144L7.39933 2.66266L17.9458 14.7135L28.4925 2.66266C29.2797 1.76308 30.6472 1.67205 31.5468 2.45933Z" fill="#505052"/>
</g>
<defs>
<clipPath id="clip0_202_14397">
<rect width="36.0012" height="36" fill="white"/>
</clipPath>
</defs>
</svg>
