<svg width="37" height="37" viewBox="0 0 37 37" fill="none" xmlns="http://www.w3.org/2000/svg">
<g clip-path="url(#clip0_202_12622)">
<path d="M36.0076 0.00439453H0.00756836V36.0044H36.0076V0.00439453Z" fill="#FB651E"/>
<path d="M16.7945 20.3593L10.6154 8.78381H13.4393L17.0741 16.1093C17.13 16.2398 17.1953 16.375 17.2698 16.5148C17.3444 16.6546 17.4096 16.799 17.4656 16.9481C17.5028 17.0041 17.5308 17.0553 17.5494 17.1019C17.5681 17.1485 17.5867 17.1905 17.6054 17.2277C17.6986 17.4141 17.7824 17.5959 17.857 17.773C17.9316 17.95 17.9968 18.1131 18.0527 18.2623C18.2018 17.9454 18.3649 17.6052 18.542 17.2417C18.7191 16.8782 18.9008 16.5008 19.0872 16.1093L22.778 8.78381H25.4062L19.1711 20.4991V27.9644H16.7945V20.3593Z" fill="white"/>
</g>
<defs>
<clipPath id="clip0_202_12622">
<rect width="37" height="37" fill="white"/>
</clipPath>
</defs>
</svg>
