<svg width="37" height="37" viewBox="0 0 37 37" fill="none" xmlns="http://www.w3.org/2000/svg">
<g clip-path="url(#clip0_202_10671)">
<path d="M18.0042 0.00219727C8.06593 0.00219727 0.00415039 8.06397 0.00415039 18.0022C0.00415039 27.9404 8.06593 36.0022 18.0042 36.0022C27.9424 36.0022 36.0042 27.9404 36.0042 18.0022C36.0042 8.06397 27.9424 0.00219727 18.0042 0.00219727Z" fill="#368FB9"/>
<path d="M28.5956 24.4794C27.4837 24.7435 26.9207 24.9868 25.5447 25.8833C23.3972 27.2732 21.0481 27.9196 21.0481 27.9196C21.0481 27.9196 20.8535 28.2115 20.2906 28.3435C19.3176 28.5798 15.6551 28.7813 15.3215 28.7883C14.425 28.7952 13.8759 28.559 13.723 28.1906C13.2574 27.0786 14.3902 26.5922 14.3902 26.5922C14.3902 26.5922 14.14 26.4393 13.9941 26.3003C13.862 26.1682 13.723 25.9041 13.6813 26.0014C13.5076 26.4254 13.4172 27.4609 12.9516 27.9265C12.3122 28.5729 11.103 28.3574 10.3871 27.9821C9.6018 27.5651 10.4427 26.5852 10.4427 26.5852C10.4427 26.5852 10.0188 26.8354 9.67825 26.3211C9.37246 25.8485 9.08752 25.0424 9.16397 24.0485C9.24736 22.9157 10.5122 21.8176 10.5122 21.8176C10.5122 21.8176 10.2898 20.1427 11.0196 18.4261C11.6798 16.8624 13.4589 15.6045 13.4589 15.6045C13.4589 15.6045 11.9647 13.9505 12.5207 12.4632C12.8821 11.4902 13.0281 11.4972 13.1462 11.4555C13.5632 11.2956 13.9663 11.1219 14.2651 10.7952C15.7593 9.18289 17.6636 9.48868 17.6636 9.48868C17.6636 9.48868 18.5671 6.74351 19.401 7.27865C19.6582 7.44544 20.5825 9.50258 20.5825 9.50258C20.5825 9.50258 21.5694 8.92575 21.6806 9.14119C22.2783 10.3018 22.3478 12.5188 22.0837 13.8671C21.6389 16.091 20.5269 17.2864 20.0821 18.0369C19.9779 18.2107 21.2775 18.7597 22.0976 21.0323C22.8551 23.1103 22.181 24.8547 22.2991 25.0493C22.32 25.0841 22.3269 25.098 22.3269 25.098C22.3269 25.098 23.1956 25.1674 24.94 24.0902C25.8713 23.5134 26.9763 22.8671 28.2342 22.8532C29.4505 22.8323 29.513 24.257 28.5956 24.4794ZM30.2497 23.4578C30.1246 22.4709 29.2906 21.7898 28.2203 21.8037C26.6219 21.8246 25.2806 22.6516 24.391 23.2007C24.0435 23.4161 23.7447 23.5759 23.4875 23.6941C23.5431 22.8879 23.4945 21.8315 23.0775 20.6709C22.5701 19.281 21.8891 18.4261 21.4026 17.9327C21.9655 17.1126 22.7369 15.9173 23.0983 14.0686C23.4111 12.491 23.3138 10.0377 22.5979 8.66166C22.452 8.38367 22.2088 8.18212 21.903 8.09872C21.7779 8.06397 21.5416 7.99448 21.0759 8.12652C20.374 6.67401 20.1308 6.52112 19.9431 6.39602C19.5539 6.14583 19.0952 6.09023 18.6644 6.25007C18.0875 6.45857 17.5941 7.01455 17.1284 8.00143C17.0589 8.14737 16.9964 8.28637 16.9408 8.42536C16.0582 8.48791 14.6682 8.8076 13.4937 10.0794C13.3477 10.2393 13.0628 10.3574 12.764 10.4686H12.7709C12.1593 10.6841 11.8813 11.1844 11.5408 12.0879C11.0682 13.3528 11.5547 14.5968 12.0342 15.403C11.381 15.9868 10.5122 16.918 10.0535 18.0091C9.48366 19.3574 9.42111 20.6779 9.44196 21.3937C8.95547 21.908 8.20489 22.874 8.1215 23.9582C8.0103 25.4732 8.55933 26.5018 8.80258 26.8771C8.87207 26.9883 8.94852 27.0786 9.03192 27.169C9.00412 27.3566 8.99717 27.5582 9.03887 27.7667C9.12922 28.2532 9.43501 28.6493 9.90065 28.8995C10.818 29.386 12.0968 29.5945 13.0837 29.101C13.4381 29.4763 14.0844 29.8377 15.2589 29.8377H15.3284C15.6273 29.8377 19.4219 29.6362 20.5269 29.3651C21.0203 29.247 21.3609 29.0385 21.5833 28.8508C22.2922 28.6285 24.252 27.9613 26.1006 26.7659C27.4072 25.918 27.8589 25.7373 28.8319 25.501C29.7771 25.2717 30.3678 24.4099 30.2497 23.4578Z" fill="white"/>
</g>
<defs>
<clipPath id="clip0_202_10671">
<rect width="37" height="37" fill="white"/>
</clipPath>
</defs>
</svg>
