<svg width="41" height="41" viewBox="0 0 41 41" fill="none" xmlns="http://www.w3.org/2000/svg">
<path d="M0.00219727 20.0024C0.00219727 8.95677 8.95653 0.00244141 20.0022 0.00244141C31.0479 0.00244141 40.0022 8.95677 40.0022 20.0024C40.0022 31.0481 31.0479 40.0024 20.0022 40.0024C8.95653 40.0024 0.00219727 31.0481 0.00219727 20.0024Z" fill="#F43939"/>
<path d="M19.8571 8.17247C19.9169 8.52095 20.4255 16.0429 20.4988 17.7323C20.5687 19.1724 19.9507 19.3641 19.7489 19.4261C19.5447 19.4904 18.9234 19.6821 18.1621 18.4473C18.1621 18.4473 13.0095 10.3399 12.8877 10.0908C12.8133 9.80878 12.9046 9.49078 13.1527 9.23253C13.923 8.43753 18.082 7.27254 19.1704 7.54207C19.5245 7.63116 19.7715 7.8567 19.8571 8.17247Z" fill="white"/>
<path d="M24.7778 21.2518C29.0406 20.2188 29.2053 20.1647 29.3733 20.0541C29.6315 19.8805 29.7612 19.5896 29.7387 19.2355C29.7387 19.2318 29.7389 19.228 29.7392 19.2241C29.7397 19.216 29.7402 19.2077 29.7387 19.1994C29.6293 18.1528 27.7956 15.4305 26.8923 14.9884C26.572 14.8351 26.2517 14.8451 25.9855 15.0234C25.8209 15.1305 25.7003 15.2929 23.4177 18.4145C23.4177 18.4145 22.3869 19.8185 22.3745 19.832C22.1028 20.1625 22.0983 20.6361 22.3644 21.0421C22.6396 21.4627 23.1042 21.668 23.5305 21.5496C23.5305 21.5496 23.5136 21.58 23.509 21.5856C23.7188 21.5067 24.0944 21.4142 24.7778 21.2518Z" fill="white"/>
<path d="M11.3208 19.5389C10.9148 20.1897 10.7434 22.2388 10.8844 23.5988C10.9339 24.0476 11.0152 24.422 11.1335 24.6453C11.2959 24.9543 11.5689 25.1382 11.8801 25.1494C12.0798 25.1596 12.2038 25.1258 15.9569 23.9191C15.9569 23.9191 17.6248 23.3868 17.6316 23.3834C18.0477 23.2774 18.3274 22.8951 18.3544 22.4068C18.3815 21.9061 18.1233 21.464 17.6969 21.3038C17.6969 21.3038 16.5208 20.8246 16.5185 20.8246C12.4857 19.1612 12.3042 19.0958 12.1012 19.0935C11.7899 19.0811 11.5136 19.2378 11.3208 19.5389Z" fill="white"/>
<path d="M20.342 31.9327C20.4074 31.7432 20.4153 31.6135 20.4266 27.671C20.4266 27.671 20.4356 25.9286 20.4367 25.9117C20.4638 25.4843 20.1875 25.0952 19.7353 24.9215C19.2695 24.7423 18.7677 24.8528 18.4858 25.2035C18.4858 25.2035 17.6625 26.1801 17.6603 26.1801C14.8353 29.499 14.7169 29.6524 14.648 29.8486C14.6064 29.9636 14.5894 30.0877 14.6029 30.2106C14.6199 30.3865 14.6999 30.5602 14.8319 30.7226C15.4871 31.5008 18.6289 32.6567 19.6327 32.4853C19.9811 32.4221 20.2349 32.2259 20.342 31.9327Z" fill="white"/>
<path d="M29.8747 26.5421C29.7293 27.5537 27.6632 30.1824 26.7159 30.5602C26.3878 30.6922 26.072 30.6606 25.8239 30.4654C25.6638 30.3403 25.4934 30.0843 23.2674 26.4688L22.6054 25.3907C22.3516 25.005 22.3989 24.4941 22.717 24.1073C23.0226 23.7306 23.4771 23.5874 23.8752 23.7419C23.8966 23.7521 25.5419 24.2956 25.5419 24.2956C29.2928 25.5271 29.4134 25.5733 29.5725 25.6929C29.8149 25.8869 29.9254 26.1903 29.8747 26.5421Z" fill="white"/>
</svg>
