<svg width="26" height="41" viewBox="0 0 26 41" fill="none" xmlns="http://www.w3.org/2000/svg">
<g clip-path="url(#clip0_202_14054)">
<path d="M13.1139 26.1639C6.95422 26.1639 1.94409 21.1154 1.94409 14.8982C1.94409 8.69066 6.95422 3.63263 13.1139 3.63263C19.2736 3.63263 24.2837 8.69066 24.2837 14.8982C24.2837 21.1154 19.2736 26.1639 13.1139 26.1639ZM13.1139 4.19783C7.27035 4.19783 2.50929 8.99721 2.50929 14.8982C2.50929 20.7993 7.27035 25.5987 13.1139 25.5987C18.9575 25.5987 23.7185 20.7993 23.7185 14.8982C23.7185 8.99721 18.967 4.19783 13.1139 4.19783Z" fill="#020202"/>
<path d="M25.7399 31.2405C25.7399 31.2405 25.9219 33.7025 25.2513 34.2006C25.2513 34.2006 25.1076 35.1873 24.1592 35.2161C24.1592 35.2161 23.9485 35.7813 22.9618 35.4939C21.9751 35.2161 21.1321 32.323 21.1321 32.323C21.1321 32.323 24.1113 29.794 25.7399 31.2405Z" fill="#F4CF8C"/>
<path d="M16.9553 18.9022C16.9553 18.9022 24.8681 20.1762 25.7398 31.2407C25.7398 31.2407 24.2646 32.1795 22.7222 32.2465C22.7222 32.2465 22.8564 23.7303 16.9553 18.9022Z" fill="#050505"/>
<path d="M24.7435 26.3652C24.3125 26.576 23.3928 26.94 21.975 27.0837C22.0229 27.2657 22.0708 27.4477 22.1187 27.6297C22.6839 27.5435 23.6994 27.3328 24.916 26.8538C24.8585 26.6909 24.801 26.5281 24.7435 26.3652ZM21.5823 25.8192C21.6398 26.0012 21.7068 26.1736 21.7547 26.3557C22.272 26.2982 23.4407 26.1353 24.4753 25.6755C24.3987 25.5031 24.3316 25.3306 24.255 25.1678C23.8718 25.3402 23.0288 25.6468 21.5823 25.8192ZM25.7398 31.2413C25.6632 30.2258 25.5195 29.2966 25.3375 28.444C24.734 28.8176 23.776 29.2679 22.4828 29.4403C22.751 31.1167 22.7318 32.2471 22.7318 32.2471C24.2646 32.1801 25.7398 31.2413 25.7398 31.2413Z" fill="#DD002A"/>
<path d="M8.79349 12.2162C9.72994 12.2162 10.4891 11.4571 10.4891 10.5206C10.4891 9.58415 9.72994 8.82501 8.79349 8.82501C7.85704 8.82501 7.0979 9.58415 7.0979 10.5206C7.0979 11.4571 7.85704 12.2162 8.79349 12.2162Z" fill="#F4CF8C"/>
<path d="M8.79349 12.2162C9.72994 12.2162 10.4891 11.4571 10.4891 10.5206C10.4891 9.58415 9.72994 8.82501 8.79349 8.82501C7.85704 8.82501 7.0979 9.58415 7.0979 10.5206C7.0979 11.4571 7.85704 12.2162 8.79349 12.2162Z" fill="#F4CF8C"/>
<path d="M7.0979 10.5201C7.0979 10.568 7.0979 10.6255 7.10748 10.6734C7.23201 10.6255 7.35655 10.5584 7.49066 10.4626C8.29535 9.94531 8.31451 9.33222 8.14208 8.94904C7.52898 9.21726 7.0979 9.82078 7.0979 10.5201Z" fill="#F4CF8C"/>
<path d="M7.92175 11.3438C8.37674 11.3438 8.74559 10.9749 8.74559 10.52C8.74559 10.065 8.37674 9.69611 7.92175 9.69611C7.46675 9.69611 7.0979 10.065 7.0979 10.52C7.0979 10.9749 7.46675 11.3438 7.92175 11.3438Z" fill="#F4CF8C"/>
<path d="M7.92172 9.70587C7.89298 9.70587 7.85467 9.70587 7.82593 9.71545C8.14205 9.76335 8.39112 10.1082 8.39112 10.5297C8.39112 10.9512 8.14205 11.2961 7.82593 11.344C7.85467 11.344 7.89298 11.3536 7.92172 11.3536C8.37196 11.3536 8.74557 10.9895 8.74557 10.5297C8.73599 10.0699 8.37196 9.70587 7.92172 9.70587Z" fill="#D8AF6F"/>
<path d="M7.81637 9.71545C7.78763 9.71545 7.76847 9.70587 7.73973 9.70587C7.38529 9.70587 7.0979 10.0699 7.0979 10.5297C7.0979 10.1082 7.41403 9.76335 7.81637 9.71545ZM7.0979 10.5201C7.0979 10.9704 7.38529 11.344 7.73973 11.344C7.76847 11.344 7.78763 11.344 7.81637 11.3344C7.41403 11.2865 7.0979 10.9416 7.0979 10.5201Z" fill="#F4CF8C"/>
<path d="M18.7276 12.2162C19.664 12.2162 20.4232 11.4571 20.4232 10.5206C20.4232 9.58415 19.664 8.82501 18.7276 8.82501C17.7911 8.82501 17.032 9.58415 17.032 10.5206C17.032 11.4571 17.7911 12.2162 18.7276 12.2162Z" fill="#F4CF8C"/>
<path d="M18.7276 12.2162C19.664 12.2162 20.4232 11.4571 20.4232 10.5206C20.4232 9.58415 19.664 8.82501 18.7276 8.82501C17.7911 8.82501 17.032 9.58415 17.032 10.5206C17.032 11.4571 17.7911 12.2162 18.7276 12.2162Z" fill="#F4CF8C"/>
<path d="M19.5995 11.3438C20.0545 11.3438 20.4233 10.9749 20.4233 10.52C20.4233 10.065 20.0545 9.69611 19.5995 9.69611C19.1445 9.69611 18.7756 10.065 18.7756 10.52C18.7756 10.9749 19.1445 11.3438 19.5995 11.3438Z" fill="#F4CF8C"/>
<path d="M19.1301 10.52C19.1301 10.0984 19.3792 9.75358 19.6953 9.70569C19.6665 9.70569 19.6282 9.69611 19.5995 9.69611C19.1492 9.69611 18.7756 10.0601 18.7756 10.52C18.7756 10.9702 19.1397 11.3438 19.5995 11.3438C19.6282 11.3438 19.6665 11.3438 19.6953 11.3342C19.3792 11.2863 19.1301 10.9415 19.1301 10.52Z" fill="#D8AF6F"/>
<path d="M20.4233 10.5202C20.4233 10.07 20.1359 9.69636 19.7815 9.69636C19.7527 9.69636 19.7336 9.69636 19.7048 9.70594C20.1072 9.76342 20.4233 10.1083 20.4233 10.5202ZM19.7048 11.3345C19.7336 11.3345 19.7527 11.3441 19.7815 11.3441C20.1359 11.3441 20.4233 10.98 20.4233 10.5202C20.4233 10.9417 20.1072 11.2866 19.7048 11.3345ZM4.05176 11.6123C4.05176 11.6123 5.67071 11.823 5.45996 10.2041C5.45996 10.2041 6.02516 11.0854 7.28966 10.2711C8.55417 9.46645 7.8836 8.40311 7.53873 8.37438C7.18429 8.33606 6.69573 7.95287 5.45996 9.21738L4.76065 7.59843L5.56534 6.54467C5.56534 6.54467 5.68029 8.06783 6.849 7.63675C8.02729 7.20566 7.14597 4.60959 6.09221 4.60959L4.19545 5.70167C4.19545 5.70167 4.5499 4.71497 6.09221 3.91028C6.09221 3.91028 6.68615 3.55584 6.34128 2.67451C5.98684 1.79319 2.64356 2.42544 2.11668 6.7171C2.11668 6.7171 1.52274 6.15191 1.65686 5.27058C1.79097 4.38926 -0.0674698 4.63833 0.286975 6.53509C0.641421 8.43185 2.47112 8.82462 2.47112 8.82462C2.47112 8.82462 3.0938 9.83047 2.64356 10.9704C2.64356 10.98 3.35245 11.8518 4.05176 11.6123ZM7.28966 10.2711C8.55417 9.46645 7.8836 8.40311 7.53873 8.37438C7.3184 8.35522 7.05017 8.20194 6.59035 8.37438L7.00228 9.22696C7.00228 9.22696 6.91606 10.4436 5.55576 10.137C5.55576 10.137 5.54618 10.1849 5.50786 10.2616C5.66113 10.4436 6.22633 10.9513 7.28966 10.2711ZM5.46954 10.319C5.25879 10.6926 4.53074 11.4207 2.76809 10.5202C2.73935 10.6831 2.70104 10.8172 2.64356 10.98C2.64356 10.98 3.34287 11.8614 4.05176 11.6123C4.05176 11.6123 5.59407 11.8135 5.46954 10.319ZM5.56534 6.54467C5.56534 6.54467 5.68029 8.06783 6.849 7.63675C7.32798 7.46431 7.4621 6.91828 7.38546 6.3435C7.08849 6.65005 6.18801 7.41642 5.83356 5.78788L4.22419 7.66548L2.9501 8.40311L4.54032 8.00077L5.46954 9.2078L4.77023 7.58885L5.56534 6.54467ZM4.46368 5.24185C4.72233 4.87782 5.22047 4.36052 6.10179 3.9007C6.10179 3.9007 6.69573 3.54626 6.35086 2.66493C6.34128 2.64577 6.34128 2.63619 6.3317 2.61703C6.24549 2.88526 6.08263 3.20139 5.76651 3.42172C5.11509 3.87196 2.78725 5.49092 3.52488 7.93371C3.5153 7.95287 3.20875 6.4393 4.46368 5.24185ZM2.08794 6.68837C1.96341 6.55425 1.5419 6.03695 1.66644 5.28016C1.72392 4.9353 1.46527 4.76287 1.15872 4.80118C1.09166 5.73998 1.22578 7.6559 3.08422 8.20194C3.08422 8.20194 2.38491 7.87624 2.08794 6.68837Z" fill="#F4CF8C"/>
<path d="M2.64356 10.9803L4.05176 11.6125C4.05176 11.6125 2.78725 18.5769 9.39717 18.8643C9.39717 18.8643 9.44507 23.3476 5.36416 23.2709C5.36416 23.2709 -0.0291524 18.9793 2.64356 10.9803Z" fill="#050505"/>
<path d="M4.32934 15.3965C4.31018 15.3294 4.29102 15.2719 4.27186 15.2049C3.95574 15.3677 3.12231 15.7318 1.91528 15.7222C1.92486 15.8755 1.93444 16.0287 1.94402 16.182C2.54754 16.182 3.5534 16.1054 4.42514 15.636V15.6264C4.3964 15.5593 4.37724 15.4923 4.35808 15.4252L4.32934 15.3965ZM4.77958 16.3928C4.75085 16.3353 4.71253 16.2778 4.68379 16.2203C4.31976 16.3928 3.32348 16.7951 2.0015 16.8047C2.02066 16.9771 2.0494 17.1495 2.07814 17.3124C2.79661 17.3124 3.85036 17.1879 4.88496 16.5844V16.5748C4.84664 16.5173 4.8179 16.4598 4.77958 16.4023V16.3928ZM2.64333 10.9803C2.26015 12.0245 2.0973 12.992 1.97276 13.8925C2.64333 14.017 3.31391 14.0362 3.9749 13.6051C3.88868 12.4747 4.05153 11.6125 4.05153 11.6125L2.64333 10.9803Z" fill="#DD002A"/>
<path d="M4.69368 28.8464L13.3153 39.9587C13.3153 39.9587 13.6506 40.0833 13.7943 39.9108V28.8464H4.69368ZM22.8279 28.8464L14.2062 39.9587C14.2062 39.9587 13.8709 40.0833 13.7272 39.9108V28.8464H22.8279ZM17.7315 18.6824H9.79961C1.3504 22.3897 3.31422 36.3855 3.31422 36.3855H13.8135V29.9864L14.3978 36.3855H24.2073C24.2073 36.376 26.1807 22.3897 17.7315 18.6824Z" fill="#050505"/>
<path d="M21.1321 32.3326C21.1321 32.3326 21.9751 35.216 22.9618 35.5034C23.9485 35.7812 24.1592 35.2256 24.1592 35.2256C24.437 35.216 24.6478 35.1202 24.8011 34.9957C24.8681 33.9802 24.916 32.4954 24.8011 30.819C23.1725 30.5986 21.1321 32.3326 21.1321 32.3326Z" fill="#F4CF8C"/>
<path d="M24.8489 31.7005C24.734 28.6925 24.1304 24.8319 22.0996 21.9293C19.6759 19.3428 16.9553 18.9022 16.9553 18.9022C22.8564 23.7303 22.7222 32.2465 22.7222 32.2465C23.5078 32.2082 24.2837 31.9496 24.8489 31.7005Z" fill="#930023"/>
<path d="M3.64934 27.3992C3.6206 27.5238 3.59186 27.6579 3.5727 27.7824C5.91013 26.9202 9.59827 26.3646 13.7558 26.3646C17.9134 26.3646 21.6111 26.9202 23.9389 27.7824C23.9102 27.6579 23.891 27.5238 23.8623 27.3992C21.5249 26.5562 17.8655 26.0102 13.7558 26.0102C9.64617 26.0102 5.98676 26.5562 3.64934 27.3992ZM4.11874 25.627C4.08042 25.742 4.05168 25.8569 4.01337 25.9719C6.36037 25.1959 9.85692 24.7074 13.7654 24.7074C17.6739 24.7074 21.1704 25.1959 23.5174 25.9719C23.4791 25.8569 23.4504 25.742 23.4121 25.627C21.0651 24.8702 17.6164 24.4008 13.7654 24.4008C9.9144 24.4008 6.45616 24.8798 4.11874 25.627ZM7.39496 20.2145C5.58442 22.5424 5.78559 25.3875 5.78559 25.3875L6.27415 25.1672C6.12088 22.6956 7.25127 20.7318 7.96016 19.7547C7.76857 19.8984 7.57698 20.0517 7.39496 20.2145ZM19.5611 19.7547C20.2699 20.7318 21.4003 22.6861 21.2471 25.1672L21.7356 25.3875C21.7356 25.3875 21.9272 22.5519 20.1263 20.2145C19.9442 20.0517 19.7526 19.8984 19.5611 19.7547ZM13.8133 29.9857L14.3977 36.3849H24.2072C24.2072 36.3849 24.8107 32.0932 23.9102 27.6291L23.4121 27.4663C24.2359 29.7175 23.8527 35.791 23.8527 35.791H14.9245L14.0815 26.355H13.4014L13.3152 35.791H3.77388C3.33321 31.5089 4.01337 27.4854 4.01337 27.4854L3.61102 27.6004C2.70096 32.0741 3.31405 36.3849 3.31405 36.3849H13.8133V29.9857Z" fill="#DD002A"/>
<path d="M18.1528 18.3848C18.1528 18.3848 16.4668 19.9176 13.6887 19.9176C10.3933 19.9176 9.36829 18.3848 9.36829 18.3848L8.78394 7.63654H18.7276L18.1528 18.3848ZM18.1528 18.3848C18.1528 18.3848 16.4668 19.9176 13.6887 19.9176C10.3933 19.9176 9.36829 18.3848 9.36829 18.3848L8.78394 7.63654H18.7276L18.1528 18.3848ZM18.1528 18.3848C18.1528 18.3848 16.4668 19.9176 13.6887 19.9176C10.3933 19.9176 9.36829 18.3848 9.36829 18.3848L8.78394 7.63654H18.7276L18.1528 18.3848Z" fill="#F4CF8C"/>
<path d="M15.0204 9.47629L15.2695 9.16016C15.2695 9.16016 16.1604 9.11226 17.5399 9.84989C17.5399 9.84989 16.5436 8.6237 15.0492 9.03562L15.0971 8.7674L14.6756 9.45713C14.6756 9.45713 14.8289 10.3863 14.666 11.0569H12.8746C12.7118 10.3863 12.865 9.45713 12.865 9.45713L12.4435 8.7674L12.4914 9.03562C10.997 8.6237 10.0007 9.84989 10.0007 9.84989C11.3706 9.11226 12.2711 9.16016 12.2711 9.16016L12.5202 9.47629C12.0412 10.4342 10.9108 10.5109 10.9108 10.5109C12.0987 10.6354 12.5297 9.89779 12.5297 9.89779C12.4627 10.4821 12.5872 11.2485 12.5872 11.2485L13.7751 12.0915L13.7847 12.0819L13.7943 12.0915L14.9821 11.2485C14.9821 11.2485 15.1067 10.4821 15.0396 9.89779C15.0396 9.89779 15.4707 10.6354 16.6586 10.5109C16.6298 10.5109 15.4994 10.4342 15.0204 9.47629Z" fill="#B27D30"/>
<path d="M13.7557 13.9306C14.6551 13.9306 15.3843 13.4931 15.3843 12.9535C15.3843 12.4139 14.6551 11.9764 13.7557 11.9764C12.8563 11.9764 12.1272 12.4139 12.1272 12.9535C12.1272 13.4931 12.8563 13.9306 13.7557 13.9306Z" fill="#050505"/>
<path d="M13.756 13.9785C14.1296 13.9785 14.4649 13.854 14.7427 13.7294C14.5511 13.5187 14.1871 13.3846 13.756 13.3846C13.3345 13.3846 12.9609 13.5283 12.7693 13.7294C13.0471 13.854 13.392 13.9785 13.756 13.9785Z" fill="#DD002A"/>
<path d="M13.7557 11.9764C12.8552 11.9764 12.1272 12.417 12.1272 12.9535C12.1272 12.9822 12.1272 13.011 12.1368 13.0397H15.3843C15.3843 13.011 15.3938 12.9822 15.3938 12.9535C15.3938 12.417 14.6658 11.9764 13.7557 11.9764Z" fill="white"/>
<path d="M13.7556 14.5631C13.4204 14.5631 13.1138 14.5056 12.8552 14.4002C13.0659 14.6684 13.382 14.8409 13.7556 14.8409C14.1197 14.8409 14.4454 14.6684 14.6561 14.4002C14.3975 14.5056 14.0909 14.5631 13.7556 14.5631ZM13.7556 17.4753C13.1904 17.4753 12.6636 17.3699 12.2229 17.1975C12.5773 17.6573 13.133 17.9447 13.7556 17.9447C14.3783 17.9447 14.9339 17.6477 15.2884 17.1975C14.8477 17.3699 14.3304 17.4753 13.7556 17.4753Z" fill="#C98C28"/>
<path d="M8.87973 9.40895H18.6318L18.7276 7.6463H8.78394L8.87973 9.40895Z" fill="#CEA063"/>
<path d="M18.7564 7.63671L19.6281 2.58826C19.6281 2.58826 18.3157 0.00177002 13.7846 0.00177002C8.28589 0.00177002 7.88354 2.58826 7.88354 2.58826L8.76487 7.63671H18.7564Z" fill="#050505"/>
<path d="M8.39136 5.4715L8.76496 7.63649H18.7565L19.1301 5.4715H8.39136Z" fill="#DD002A"/>
<path d="M20.2605 8.84357H7.26099L6.85864 7.63654H20.6724L20.2605 8.84357Z" fill="#050505"/>
<path d="M13.7561 7.78009C14.6449 7.78009 15.3655 7.05955 15.3655 6.17071C15.3655 5.28188 14.6449 4.56134 13.7561 4.56134C12.8673 4.56134 12.1467 5.28188 12.1467 6.17071C12.1467 7.05955 12.8673 7.78009 13.7561 7.78009Z" fill="#050505"/>
<path d="M13.7556 7.57891C12.9797 7.57891 12.3474 6.94666 12.3474 6.17071C12.3474 5.39477 12.9797 4.76251 13.7556 4.76251C14.5316 4.76251 15.1638 5.39477 15.1638 6.17071C15.1734 6.94666 14.5411 7.57891 13.7556 7.57891ZM13.7556 4.94452C13.0755 4.94452 12.5294 5.49056 12.5294 6.17071C12.5294 6.85087 13.0755 7.3969 13.7556 7.3969C14.4358 7.3969 14.9818 6.85087 14.9818 6.17071C14.9914 5.49056 14.4358 4.94452 13.7556 4.94452ZM13.7556 7.18615C13.1904 7.18615 12.7402 6.72633 12.7402 6.17071C12.7402 5.60552 13.2 5.15528 13.7556 5.15528C14.3208 5.15528 14.7711 5.6151 14.7711 6.17071C14.7806 6.72633 14.3208 7.18615 13.7556 7.18615ZM13.7556 5.27981C13.2671 5.27981 12.8743 5.67257 12.8743 6.16113C12.8743 6.64969 13.2671 7.04246 13.7556 7.04246C14.2442 7.04246 14.6369 6.64969 14.6369 6.16113C14.6465 5.68215 14.2442 5.27981 13.7556 5.27981ZM14.0143 5.80669L14.4741 5.4714L14.1196 5.92164L14.6753 5.77795L14.1867 6.07492L14.7519 6.14197L14.1867 6.23777L14.704 6.506L14.1484 6.39104L14.522 6.82213L14.043 6.51558L14.2346 7.05204L13.8993 6.59222L13.8897 7.16699L13.746 6.61138L13.5257 7.13825L13.5832 6.57306L13.1904 6.98498L13.4491 6.47726L12.9318 6.71675L13.3629 6.33357L12.7881 6.37189L13.3245 6.17071L12.7785 5.99828L13.3533 6.00786L12.903 5.65342L13.4299 5.86417L13.1425 5.37561L13.5544 5.76837L13.4586 5.20317L13.7077 5.72047L13.8227 5.16486L13.8706 5.73963L14.1867 5.26065L14.0143 5.80669Z" fill="#DD002A"/>
<path d="M14.0626 6.17062C14.0626 6.34305 13.9284 6.47717 13.756 6.47717C13.5836 6.47717 13.4495 6.34305 13.4495 6.17062C13.4495 5.99819 13.5836 5.86407 13.756 5.86407C13.9284 5.86407 14.0626 5.99819 14.0626 6.17062Z" fill="#050505"/>
<path d="M13.6888 19.9269C10.3934 19.9269 9.36841 18.3942 9.36841 18.3942L9.48336 20.5783C9.48336 20.5783 10.4701 22.0727 13.6888 22.0727C16.3903 22.0727 18.0284 20.5783 18.0284 20.5783L18.1529 18.3846C18.1433 18.3846 16.4573 19.9269 13.6888 19.9269Z" fill="#DD002A"/>
<path d="M13.7561 22.0345C13.8328 21.7471 13.8807 21.383 13.8807 20.9903C13.8807 20.5879 13.8328 20.2239 13.7561 19.9461C13.6795 20.2335 13.6316 20.5975 13.6316 20.9903C13.6316 21.383 13.6795 21.7567 13.7561 22.0345Z" fill="#050505"/>
<path d="M14.5414 21.3545C14.7054 21.3545 14.8383 21.2215 14.8383 21.0575C14.8383 20.8935 14.7054 20.7606 14.5414 20.7606C14.3773 20.7606 14.2444 20.8935 14.2444 21.0575C14.2444 21.2215 14.3773 21.3545 14.5414 21.3545Z" fill="#930023"/>
<path d="M14.4745 21.2881C14.6385 21.2881 14.7714 21.1551 14.7714 20.9911C14.7714 20.8271 14.6385 20.6942 14.4745 20.6942C14.3104 20.6942 14.1775 20.8271 14.1775 20.9911C14.1775 21.1551 14.3104 21.2881 14.4745 21.2881Z" fill="white"/>
<path d="M14.8287 23.9988H12.6924C12.3572 23.9988 12.0793 24.2766 12.0793 24.6119V26.1351C12.0793 26.4704 12.3572 26.7482 12.6924 26.7482H14.8287C15.164 26.7482 15.4418 26.4704 15.4418 26.1351V24.6119C15.4418 24.2671 15.164 23.9988 14.8287 23.9988ZM14.6658 24.8514V25.8956C14.6658 25.9531 14.6179 26.0106 14.5509 26.0106H12.9702C12.9128 26.0106 12.8553 25.9627 12.8553 25.8956V24.8514C12.8553 24.7939 12.9032 24.7365 12.9702 24.7365H14.5509C14.6084 24.7365 14.6658 24.7844 14.6658 24.8514Z" fill="#FFB000"/>
<path d="M12.5774 11.2479L13.7557 12.0813L13.7653 12.0717L13.7748 12.0813L14.9531 11.2479H12.5774Z" fill="#C98C28"/>
<path d="M13.756 11.8997C13.756 11.8997 12.7597 10.7119 10.4223 11.2962L6.88745 14.7736C6.88745 14.7736 8.16154 15.722 10.1541 15.4634C12.1467 15.2047 13.7752 13.078 13.756 11.8997ZM13.756 11.8997C13.756 11.8997 14.7523 10.7119 17.0897 11.2962C19.4271 11.8806 20.6246 14.7736 20.6246 14.7736C20.6246 14.7736 19.3505 15.722 17.358 15.4634C15.3654 15.2047 13.7464 13.078 13.756 11.8997Z" fill="#4F1907"/>
<path d="M18.6034 22.0535H18.8141L18.4405 22.5038L18.0765 22.0535H18.2872V21.8524H17.5017V22.0535H17.8083L18.3256 22.6954V23.0977H18.019V23.2989H18.8429V23.0977H18.5363V22.6954L19.0536 22.0535H19.3602V21.8524H18.5746L18.6034 22.0535Z" fill="#DD002A"/>
</g>
<defs>
<clipPath id="clip0_202_14054">
<rect width="26" height="41" fill="white"/>
</clipPath>
</defs>
</svg>
