<svg width="34" height="37" viewBox="0 0 34 37" fill="none" xmlns="http://www.w3.org/2000/svg">
<g clip-path="url(#clip0_202_11247)">
<path d="M29.3752 0.00140381C31.8237 1.24902 33.9266 4.52294 33.8212 8.96568C33.5011 14.4398 29.5322 19.1575 25.2139 23.504C24.9721 18.2033 23.8196 14.825 22.0199 10.0747C20.3207 5.28748 25.2884 0.154639 29.3752 0.00140381Z" fill="url(#paint0_linear_202_11247)"/>
<path d="M16.131 23.3173C17.4458 21.6819 18.3776 20.2255 19.0279 18.9096C23.4825 21.2387 22.4314 20.8037 24.5798 23.2852C24.587 23.3624 24.5939 23.4394 24.6003 23.5162C24.7785 26.9569 22.2686 34.911 12.3855 36.0011C11.7013 30.6563 13.9254 26.0973 16.131 23.3173Z" fill="url(#paint1_linear_202_11247)"/>
<path d="M0.225932 3.32382C7.2677 0.537326 14.8463 3.39174 19.2217 9.33912C19.6449 9.91434 20.0463 10.5119 20.4249 11.127C21.1086 15.4913 20.5873 17.9152 19.2566 19.2C18.3816 18.7586 17.448 18.3671 16.4515 18.0051C14.1345 17.1634 11.9963 16.6064 8.94242 15.7022C1.69091 13.7232 -0.0973837 7.50519 0.225932 3.32382Z" fill="url(#paint2_linear_202_11247)"/>
<path d="M20.1556 10.7006C20.2018 10.7723 20.2474 10.8435 20.2925 10.9158L20.348 11.0049C20.461 11.1864 20.5718 11.369 20.6811 11.5537L20.6995 11.5847L20.7289 11.6347L20.7555 11.6809L20.8338 11.8151L20.8392 11.8249L20.9452 12.0107L20.9484 12.0162C21.025 12.1515 21.1006 12.2873 21.175 12.4242L21.1842 12.4416L21.2668 12.5949L21.269 12.5987L21.3598 12.7693L21.3858 12.8193L21.4364 12.9166L21.4983 13.0366L21.5581 13.1529C21.619 13.2736 21.6793 13.3942 21.7385 13.5148L21.7537 13.5447C21.8608 13.7637 21.9645 13.9832 22.0662 14.2044L22.1433 14.3734L22.1509 14.3902L22.2004 14.5L22.258 14.6299L22.2906 14.7048L22.3427 14.8249L22.3802 14.9113L22.459 15.0972L22.4645 15.1102L22.5487 15.3124L22.559 15.3368C22.6487 15.5553 22.7356 15.7737 22.8198 15.9938L22.828 16.0139L22.8975 16.1981L22.9019 16.2084L22.9421 16.3171C22.9867 16.4377 23.0307 16.5583 23.0741 16.6795L23.091 16.7268C23.1388 16.8621 23.1861 16.9979 23.2317 17.1332L23.2464 17.1762C23.2893 17.3033 23.3306 17.4305 23.3719 17.5576L23.392 17.6201L23.3969 17.6348L23.4621 17.8407L23.4648 17.85L23.5252 18.0467L23.5855 18.2494L23.5871 18.2537L23.6371 18.4249L23.6529 18.4803L23.6833 18.5863C23.7175 18.7085 23.7512 18.8303 23.7838 18.9525L23.8083 19.0438L23.8555 19.2242L23.8577 19.2329C23.9153 19.4546 23.9697 19.6763 24.0213 19.8975L24.0262 19.9203L24.0316 19.9437C24.099 20.2355 24.1609 20.5262 24.218 20.8158L24.2234 20.8446C24.3114 21.2951 24.387 21.7428 24.4495 22.1868L24.4505 22.1927C24.4701 22.3297 24.488 22.4661 24.5049 22.6025L24.512 22.6611L24.5348 22.8562V22.8568L24.5543 23.0372L24.5609 23.0969L24.575 23.2398L24.5804 23.2974L24.5826 23.3208L24.6 23.517C23.0443 21.5135 21.1859 20.1328 18.9558 19.0525C20.7555 15.4944 20.5028 12.9589 20.1556 10.7006Z" fill="url(#paint3_linear_202_11247)"/>
</g>
<defs>
<linearGradient id="paint0_linear_202_11247" x1="27.7512" y1="0.00140381" x2="27.7512" y2="23.504" gradientUnits="userSpaceOnUse">
<stop stop-color="#73B723"/>
<stop offset="1" stop-color="#D8EE61"/>
</linearGradient>
<linearGradient id="paint1_linear_202_11247" x1="22.739" y1="23.3963" x2="11.0481" y2="32.1369" gradientUnits="userSpaceOnUse">
<stop stop-color="#98C9EA"/>
<stop offset="0.688649" stop-color="#026FB2"/>
<stop offset="1" stop-color="#086EB6"/>
</linearGradient>
<linearGradient id="paint2_linear_202_11247" x1="0.190186" y1="3.32078" x2="15.32" y2="16.8974" gradientUnits="userSpaceOnUse">
<stop stop-color="#D73721"/>
<stop offset="1" stop-color="#F7D768"/>
</linearGradient>
<linearGradient id="paint3_linear_202_11247" x1="20.7033" y1="14.6728" x2="25.6629" y2="16.6591" gradientUnits="userSpaceOnUse">
<stop stop-color="#D4C883"/>
<stop offset="1" stop-color="#A1D1A7"/>
</linearGradient>
<clipPath id="clip0_202_11247">
<rect width="34" height="37" fill="white"/>
</clipPath>
</defs>
</svg>
