<svg width="37" height="36" viewBox="0 0 37 36" fill="none" xmlns="http://www.w3.org/2000/svg">
<g clip-path="url(#clip0_202_10985)">
<path d="M11.76 13.8327C17.7148 8.40055 24.3302 2.34485 24.5219 2.1532C24.8201 1.84956 25.1396 1.56762 25.478 1.30955C27.9908 -0.54239 31.458 -0.377998 33.7842 1.70338C36.1104 3.78475 36.6579 7.2124 35.0957 9.91481C34.813 10.4107 34.4628 10.865 34.0552 11.2647C32.7334 12.5864 27.6715 17.9576 27.6715 17.9576C27.6715 17.9576 34.3083 24.3413 34.4207 24.4256C36.0655 25.743 36.4857 28.0722 35.405 29.8813C34.7575 30.9492 33.6818 31.6869 32.4522 31.906C32.0869 31.9705 27.2611 27.3258 21.9318 23.5678C18.5628 27.3476 11.86 34.8644 11.839 34.8644C8.99305 36.8555 5.51158 35.7587 3.93676 34.8926C1.75154 33.6167 0.305768 31.3752 0.0446305 28.8582C-0.216508 26.3413 0.738295 23.8507 2.61504 22.1534C3.54306 21.3097 7.4801 17.7383 11.7546 13.8294L11.76 13.8327Z" fill="#0CB0F2"/>
<path d="M23.5994 15.7723C23.4068 14.4538 22.707 13.2625 21.6491 12.4523L11.2832 1.96244C9.5285 0.205281 6.93664 -0.419451 4.57409 0.345304C2.21154 1.11006 0.477415 3.1351 0.0852645 5.58719C-0.306886 8.03928 0.709186 10.5041 2.7154 11.9676L15.2289 20.7045C16.9202 22.02 19.2434 22.1696 21.0895 21.0818C22.9357 19.994 23.9306 17.8894 23.5994 15.7723Z" fill="url(#paint0_linear_202_10985)"/>
<path d="M29.1448 6.88135H6.73169V29.2945H29.1448V6.88135Z" fill="black"/>
<path d="M9.00101 24.7559H17.2098V26.2407H9.00101V24.7559ZM11.9988 15.7626L8.21655 9.82312H10.738L13.0914 13.7734L15.4728 9.82312H17.9326L14.1504 15.7346V19.6569H11.9932V15.7626H11.9988ZM21.2442 11.8123H18.2464V9.82312H26.3712V11.8123H23.4015V19.6289H21.2442V11.8123Z" fill="white"/>
</g>
<defs>
<linearGradient id="paint0_linear_202_10985" x1="15.5699" y1="14.5492" x2="1.69696" y2="0.0898701" gradientUnits="userSpaceOnUse">
<stop stop-color="#905CFB"/>
<stop offset="0.07" stop-color="#A554E6"/>
<stop offset="0.25" stop-color="#D641B5"/>
<stop offset="0.39" stop-color="#F43597"/>
<stop offset="0.47" stop-color="#FF318C"/>
</linearGradient>
<clipPath id="clip0_202_10985">
<rect width="37" height="36" fill="white"/>
</clipPath>
</defs>
</svg>
