<svg width="41" height="29" viewBox="0 0 41 29" fill="none" xmlns="http://www.w3.org/2000/svg">
<path d="M39.1708 4.40065C38.7107 2.66848 37.3553 1.30427 35.6343 0.841304C32.5149 4.57764e-05 20.0066 4.57764e-05 20.0066 4.57764e-05C20.0066 4.57764e-05 7.49831 4.57764e-05 4.37885 0.841304C2.65788 1.30434 1.30246 2.66848 0.842431 4.40065C0.0065918 7.54032 0.0065918 14.0909 0.0065918 14.0909C0.0065918 14.0909 0.0065918 20.6416 0.842431 23.7812C1.30246 25.5134 2.65788 26.8208 4.37885 27.2838C7.49831 28.125 20.0066 28.125 20.0066 28.125C20.0066 28.125 32.5149 28.125 35.6343 27.2838C37.3553 26.8208 38.7107 25.5134 39.1708 23.7812C40.0066 20.6416 40.0066 14.0909 40.0066 14.0909C40.0066 14.0909 40.0066 7.54032 39.1708 4.40065ZM15.9157 20.0384V8.14347L26.3702 14.0911L15.9157 20.0384Z" fill="#FF0000"/>
</svg>
