<svg width="43" height="42" viewBox="0 0 43 42" fill="none" xmlns="http://www.w3.org/2000/svg">
<g clip-path="url(#clip0_202_12906)">
<path d="M21.0076 42C32.6055 42 42.0076 32.598 42.0076 21C42.0076 9.40205 32.6055 3.05176e-05 21.0076 3.05176e-05C9.40959 3.05176e-05 0.00756836 9.40205 0.00756836 21C0.00756836 32.598 9.40959 42 21.0076 42Z" fill="#FF0000"/>
<path d="M21.0076 11.4223C26.2895 11.4223 30.5854 15.7182 30.5854 21.0001C30.5854 26.2821 26.2895 30.5779 21.0076 30.5779C15.7256 30.5779 11.4297 26.2821 11.4297 21.0001C11.4297 15.7182 15.7256 11.4223 21.0076 11.4223ZM21.0076 10.5001C15.2075 10.5001 10.5076 15.2 10.5076 21.0001C10.5076 26.8002 15.2075 31.5001 21.0076 31.5001C26.8077 31.5001 31.5076 26.8002 31.5076 21.0001C31.5076 15.2 26.8077 10.5001 21.0076 10.5001Z" fill="white"/>
<path d="M18.0076 27L27.0076 20.7392L18.0076 15V27Z" fill="white"/>
</g>
<defs>
<clipPath id="clip0_202_12906">
<rect width="43" height="42" fill="white"/>
</clipPath>
</defs>
</svg>
