<svg width="37" height="36" viewBox="0 0 37 36" fill="none" xmlns="http://www.w3.org/2000/svg">
<g clip-path="url(#clip0_202_9627)">
<path d="M18.0132 0.0479736C19.0301 0.0498416 20.0301 0.135769 21.0023 0.298283V10.7777L28.4317 3.36738C29.2522 3.95018 30.0199 4.59837 30.7296 5.30634C31.4397 6.01432 32.0915 6.78207 32.6757 7.60024L25.246 15.0105H35.7527C35.9158 15.98 36.002 16.9738 36.002 17.99V18.0142C36.002 19.0304 35.9158 20.0261 35.7527 20.9955H25.2442L32.6757 28.4039C32.0915 29.2221 31.4397 29.9899 30.7318 30.6978H30.7296C30.0199 31.4058 29.2522 32.0559 28.4338 32.6368L21.0023 25.2265V35.7059C20.0319 35.8684 19.0319 35.9542 18.015 35.9564H17.9889C16.9717 35.9542 15.9756 35.8684 15.0034 35.7059V25.2265L7.57401 32.6368C5.93325 31.473 4.49878 30.0403 3.32997 28.4039L10.7597 20.9955H0.252949C0.0881212 20.0242 0.00195312 19.0248 0.00195312 18.0086V17.9565C0.00366108 17.6928 0.020929 17.3706 0.0457313 17.0373L0.0533899 16.937C0.126828 15.9989 0.252949 15.0105 0.252949 15.0105H10.7597L3.32997 7.60024C3.91241 6.78207 4.56242 6.01618 5.27215 5.3101L5.27572 5.30634C5.98402 4.59837 6.75345 3.95018 7.57401 3.36738L15.0034 10.7777V0.298283C15.9756 0.135769 16.9738 0.0498416 17.9925 0.0479736H18.0132ZM18.0114 13.5143H17.9943C16.6571 13.5143 15.3763 13.759 14.1925 14.2035C13.7488 15.3822 13.5032 16.6599 13.5014 17.9937V18.0105C13.5032 19.3442 13.7488 20.6219 14.1943 21.8006C15.3763 22.2452 16.6571 22.4899 17.9943 22.4899H18.0114C19.3486 22.4899 20.6294 22.2452 21.8114 21.8006C22.2569 20.6201 22.5025 19.3442 22.5025 18.0105V17.9937C22.5025 16.6599 22.2569 15.3822 21.8114 14.2035C20.6294 13.759 19.3486 13.5143 18.0114 13.5143Z" fill="#FF4A00"/>
</g>
<defs>
<clipPath id="clip0_202_9627">
<rect width="37" height="36" fill="white"/>
</clipPath>
</defs>
</svg>
