<svg width="41" height="20" viewBox="0 0 41 20" fill="none" xmlns="http://www.w3.org/2000/svg">
<g clip-path="url(#clip0_202_14428)">
<path d="M18.8176 5.97072C18.8176 5.97072 18.8176 0.673785 24.1147 0.673785H40.0054C40.0054 0.673785 40.0054 5.97072 34.7084 5.97072H18.8176Z" fill="#6FB643"/>
<path d="M18.8176 12.739C18.8176 12.739 18.8176 7.44203 24.1147 7.44203H32.06C32.06 7.44203 32.06 12.739 26.7629 12.739H18.8176Z" fill="#6FB643"/>
<path d="M18.8176 19.5072C18.8176 19.5072 18.8176 14.2104 24.1147 14.2104H26.7629C26.7629 14.2104 26.7629 19.5072 21.4662 19.5072H18.8176Z" fill="#6FB643"/>
<path d="M17.0394 15.3736V19.5993H0.00537109L10.9786 4.63095H1.55843V0.405029H19.3286L8.40609 15.3736H17.0394Z" fill="#6FB643"/>
</g>
<defs>
<clipPath id="clip0_202_14428">
<rect width="41" height="20" fill="white"/>
</clipPath>
</defs>
</svg>
