<svg width="37" height="30" viewBox="0 0 37 30" fill="none" xmlns="http://www.w3.org/2000/svg">
<g clip-path="url(#clip0_202_8212)">
<path fill-rule="evenodd" clip-rule="evenodd" d="M5.55105 20.4568L3.66777 21.1448L3.56665 26.7474L10.086 24.3658C7.84991 23.6147 6.21701 22.2932 5.55105 20.4568Z" fill="#FDBD39"/>
<path fill-rule="evenodd" clip-rule="evenodd" d="M6.53658 14.531L0.00219727 16.9181L3.66772 21.1447L5.551 20.4567C4.88699 18.6257 5.29648 16.5558 6.53658 14.531Z" fill="#F69833"/>
<path fill-rule="evenodd" clip-rule="evenodd" d="M17.5327 6.44679C9.21177 9.48652 3.84733 15.759 5.55091 20.4568L35.6837 9.44896C33.9801 4.75114 25.8536 3.40705 17.5327 6.44679Z" fill="#FECF33"/>
<path fill-rule="evenodd" clip-rule="evenodd" d="M23.702 23.459C32.0229 20.4193 37.3974 14.1746 35.6838 9.44897L5.55103 20.4568C7.26467 25.1825 15.3811 26.4987 23.702 23.459Z" fill="#EE6723"/>
<path fill-rule="evenodd" clip-rule="evenodd" d="M35.6838 9.44897L5.55103 20.4568C6.14107 22.0839 8.39113 22.8856 11.5482 22.8856C14.6261 22.8856 18.5661 22.1242 22.6738 20.6236C30.9947 17.5839 36.849 12.6624 35.6838 9.44897Z" fill="#F69833"/>
<path fill-rule="evenodd" clip-rule="evenodd" d="M29.6864 7.02014C26.6085 7.02014 22.6685 7.7815 18.5608 9.28208C10.2399 12.3218 4.38558 17.2433 5.55088 20.4568L35.6836 9.44888C35.0936 7.82176 32.8435 7.02014 29.6864 7.02014Z" fill="#FDBD39"/>
<path fill-rule="evenodd" clip-rule="evenodd" d="M28.0224 27.0441H28.0222C27.1357 27.0441 25.8277 26.2433 24.1347 24.6639C22.1317 22.7954 19.8373 20.0587 17.6741 16.9578C15.5109 13.8571 13.7334 10.7571 12.669 8.22887C11.5093 5.4737 11.344 3.77965 12.1775 3.19372C12.3603 3.06538 12.5806 3.00037 12.8323 3.00037C13.5104 3.00037 14.8315 3.50518 17.2746 5.91027L17.328 5.96283L17.3208 6.03759C17.3041 6.21036 17.2887 6.38469 17.275 6.55579L17.2477 6.89555L17.0081 6.65408C14.3758 4.00216 13.217 3.71586 12.841 3.71586C12.7337 3.71586 12.6483 3.73767 12.5871 3.78071C12.2256 4.03476 12.2023 5.27909 13.3266 7.94993C14.372 10.4331 16.1237 13.4862 18.2589 16.5468C20.3942 19.6076 22.6535 22.3039 24.6206 24.1391C26.7419 26.1179 27.6978 26.3315 28.0104 26.3315C28.1183 26.3315 28.206 26.3083 28.271 26.2626C28.6524 25.9946 28.6529 24.6616 27.3991 21.7869L27.3415 21.6549L27.4675 21.5859C27.5935 21.517 27.7154 21.449 27.8297 21.384L27.9806 21.2983L28.0502 21.4577C28.9392 23.4947 29.7703 26.0836 28.6806 26.8496C28.4968 26.9786 28.2754 27.0441 28.0224 27.0441ZM28.0222 26.7299H28.0224L28.0223 26.887L28.0222 26.7299Z" fill="#EE6723"/>
<path fill-rule="evenodd" clip-rule="evenodd" d="M23.904 23.3731L23.8914 23.5297C23.681 26.1326 23.1271 29.262 21.6829 29.3887C21.6538 29.3913 21.6237 29.3926 21.5936 29.3926C20.6125 29.3926 19.6843 27.987 18.8349 25.2146C18.0311 22.5918 17.4075 19.0702 17.0787 15.2987C16.75 11.5279 16.7549 7.9512 17.0926 5.22744C17.4607 2.25938 18.1615 0.70937 19.1753 0.620398C19.2053 0.617635 19.2364 0.616211 19.267 0.616211C19.9788 0.616211 21.0514 1.4221 22.1495 5.17579L21.4325 5.31418C21.0659 4.0598 20.6663 3.03958 20.2696 2.33854C19.9027 1.6901 19.546 1.333 19.265 1.333C19.2558 1.333 19.2465 1.33338 19.2373 1.33417C18.7979 1.37277 18.1579 2.43875 17.8011 5.31595C17.4694 7.99084 17.4654 11.514 17.7898 15.2363C18.1144 18.9592 18.7279 22.4282 19.5172 25.004C19.8707 26.1576 20.2584 27.1084 20.6384 27.7535C20.9889 28.3485 21.328 28.6761 21.5934 28.6761C21.6025 28.6761 21.6116 28.6757 21.6206 28.6749C22.0411 28.6381 22.8335 27.5288 23.167 23.626L23.904 23.3731Z" fill="#EE6723"/>
</g>
<defs>
<clipPath id="clip0_202_8212">
<rect width="37" height="30" fill="white"/>
</clipPath>
</defs>
</svg>
