<svg width="32" height="22" viewBox="0 0 32 22" fill="none" xmlns="http://www.w3.org/2000/svg">
<rect width="32" height="22" rx="10" fill="#4087FC"/>
<path d="M2.74418 0.71431C1.54494 0.71431 0.572754 1.81076 0.572754 3.16329V15.0408C0.572754 18.4898 3.05182 21.2857 6.1099 21.2857L18.9728 21.1633C20.172 21.1633 21.1442 20.0669 21.1442 18.7144V6.71435C21.1442 3.26539 18.2023 0.714352 15.1442 0.714352L2.74418 0.71431Z" fill="white"/>
<path d="M24.0794 5.39019C23.3034 6.15744 22.8585 7.26478 22.8585 8.42864V13.3988C22.8585 14.5627 23.3034 15.67 24.0794 16.4373L28.9079 20.6899C29.8904 21.6614 31.4299 20.8745 31.4299 19.4009V2.6603C31.4299 1.18667 29.8904 0.399798 28.9079 1.37126L24.0794 5.39019Z" fill="white"/>
</svg>
