<svg width="37" height="36" viewBox="0 0 37 36" fill="none" xmlns="http://www.w3.org/2000/svg">
<g clip-path="url(#clip0_202_15896)">
<path d="M18.0012 3.05176e-05C27.9423 3.05176e-05 36.0012 8.0589 36.0012 18C36.0012 27.9412 27.9423 36 18.0012 36C8.06009 36 0.0012207 27.9412 0.0012207 18C0.0012207 8.0589 8.06009 3.05176e-05 18.0012 3.05176e-05ZM17.1124 16.625L10.6589 22.3877C9.99408 22.9108 9.55788 23.7742 9.55788 24.7454C9.55788 26.3314 10.7214 27.6293 12.1434 27.6293H24.2718C25.6939 27.6293 26.8573 26.3314 26.8573 24.7454C26.8573 23.159 25.6939 21.8616 24.2718 21.8616H15.0902C14.9541 21.8616 14.8681 21.6985 14.9344 21.5658L17.3016 16.8262C17.3881 16.6879 17.2323 16.5223 17.1124 16.625ZM24.2718 8.34792H12.1434C10.7214 8.34792 9.55788 9.64539 9.55788 11.2318C9.55788 12.8178 10.7214 14.1157 12.1434 14.1157H21.325C21.4611 14.1157 21.5472 14.2788 21.4808 14.4115L19.1136 19.151C19.0271 19.2893 19.183 19.455 19.3028 19.3522L25.7564 13.5887C26.4211 13.0652 26.8573 12.2022 26.8573 11.231C26.8573 9.64497 25.6939 8.34707 24.2718 8.34792Z" fill="url(#paint0_linear_202_15896)"/>
</g>
<defs>
<linearGradient id="paint0_linear_202_15896" x1="18.0012" y1="3.05176e-05" x2="18.0012" y2="36" gradientUnits="userSpaceOnUse">
<stop stop-color="#24ADFF"/>
<stop offset="1" stop-color="#7B71FF"/>
</linearGradient>
<clipPath id="clip0_202_15896">
<rect width="37" height="36" fill="white"/>
</clipPath>
</defs>
</svg>
