<svg width="37" height="31" viewBox="0 0 37 31" fill="none" xmlns="http://www.w3.org/2000/svg">
<g clip-path="url(#clip0_202_11712)">
<path d="M18.0066 0.00280762C8.31612 0.00280762 0.724163 12.3316 0.00585938 22.7448C3.04676 28.0225 10.3798 30.0063 18.0066 30.0063C25.6329 30.0063 32.9664 28.0225 36.0059 22.7448C35.2876 12.3316 27.6966 0.00280762 18.0066 0.00280762Z" fill="#B6DEFF"/>
<path d="M33.4741 20.2645C33.4741 20.2645 31.3339 15.6374 29.1584 12.9378C26.9814 10.2371 24.323 7.29626 22.751 7.29626C21.1801 7.29626 16.7884 15.0721 14.7737 15.0721C12.7585 15.0721 11.7112 11.5472 9.2337 11.5472C6.75519 11.5472 2.81751 20.0473 2.81751 20.0473L2.55078 21.4883C2.55078 21.4883 3.91875 27.5534 18.2304 27.5534C32.5425 27.5534 33.6864 21.5878 33.6864 21.5878L33.4741 20.2645Z" fill="#66CC66"/>
<path d="M14.9974 18.3905C12.7748 18.3905 11.6353 16.1973 11.0175 14.8436C10.462 13.6242 10.3659 11.6988 8.78955 11.6448C8.94449 11.5835 9.09354 11.5472 9.23328 11.5472C11.7108 11.5472 12.7581 15.0721 14.7733 15.0721C16.788 15.0721 21.1797 7.29626 22.7506 7.29626C23.0468 7.29626 23.3802 7.4007 23.742 7.58653C23.4743 7.55123 23.1311 7.57574 22.8668 7.841C22.3589 8.34896 17.749 18.3905 14.9974 18.3905Z" fill="#17AD49"/>
</g>
<defs>
<clipPath id="clip0_202_11712">
<rect width="37" height="31" fill="white"/>
</clipPath>
</defs>
</svg>
