<svg width="32" height="30" viewBox="0 0 32 30" fill="none" xmlns="http://www.w3.org/2000/svg">
<path fill-rule="evenodd" clip-rule="evenodd" d="M0.24922 0.971559C0.447004 0.74213 0.736117 0.611902 1.039 0.615808L30.962 0.620935C31.2649 0.617028 31.554 0.747256 31.7518 0.976685C31.9495 1.20611 32.0357 1.51126 31.9873 1.81027L27.6349 28.5292C27.5537 29.0306 27.1176 29.397 26.6096 29.3905H5.72969C5.05298 29.3848 4.47799 28.8942 4.36606 28.2268L0.0137188 1.80514C-0.0347725 1.50613 0.0514366 1.20099 0.24922 0.971559ZM12.7016 19.7118H19.366L20.9808 10.2843H10.8971L12.7016 19.7118Z" fill="#2684FF"/>
<path d="M30.6031 10.2843H20.9808L19.3659 19.7118H12.7016L4.83252 29.0522C5.08193 29.2678 5.39993 29.3878 5.72964 29.3905H26.6147C27.1226 29.397 27.5588 29.0307 27.64 28.5293L30.6031 10.2843Z" fill="url(#paint0_linear_202_9695)"/>
<defs>
<linearGradient id="paint0_linear_202_9695" x1="24.4579" y1="7.02948" x2="13.3425" y2="22.8119" gradientUnits="userSpaceOnUse">
<stop offset="0.18" stop-color="#0052CC"/>
<stop offset="1" stop-color="#2684FF"/>
</linearGradient>
</defs>
</svg>
