<svg width="36" height="37" viewBox="0 0 36 37" fill="none" xmlns="http://www.w3.org/2000/svg">
<g clip-path="url(#clip0_202_13997)">
<path d="M17.7447 22.2742C20.1022 22.2742 22.0133 20.3631 22.0133 18.0056C22.0133 15.6481 20.1022 13.737 17.7447 13.737C15.3873 13.737 13.4762 15.6481 13.4762 18.0056C13.4762 20.3631 15.3873 22.2742 17.7447 22.2742Z" fill="#343434"/>
<path d="M0.310462 13.4799C0.310462 13.5313 0.259033 13.6342 0.259033 13.6856C0.259033 14.1485 0.619033 14.5599 1.13332 14.5599H8.38475C8.74475 14.5599 9.00189 14.3542 9.15618 14.0456C10.6476 10.7542 13.939 8.54276 17.6933 8.54276C22.8876 8.54276 27.1047 12.7599 27.1047 17.9542C27.1047 23.1485 22.8876 27.3656 17.6933 27.3656C13.8876 27.3656 10.6476 25.1028 9.15618 21.9142C9.00189 21.5542 8.74475 21.3485 8.38475 21.3485H1.13332C0.670462 21.3485 0.259033 21.7085 0.259033 22.2228C0.259033 22.2742 0.259033 22.377 0.310462 22.4285C2.31618 30.2456 9.36189 36.0056 17.7447 36.0056C27.6705 36.0056 35.7447 27.9313 35.7447 18.0056C35.7447 8.0799 27.6705 0.00561523 17.7447 0.00561523C9.36189 0.00561523 2.31618 5.76562 0.310462 13.4799Z" fill="#343434"/>
</g>
<defs>
<clipPath id="clip0_202_13997">
<rect width="36" height="37" fill="white"/>
</clipPath>
</defs>
</svg>
