<svg width="41" height="20" viewBox="0 0 41 20" fill="none" xmlns="http://www.w3.org/2000/svg">
<g clip-path="url(#clip0_202_13172)">
<path d="M31.6218 8.67373L30.792 8.34186C26.8918 17.1175 11.3763 11.7823 10.4427 14.393C10.2871 16.1564 18.9157 14.7283 25.0843 15.0272C26.9654 15.1183 27.9087 16.5383 27.11 18.8528L28.6832 18.8577C30.4981 13.2 36.29 16.0873 36.532 14.2201C36.1344 12.9925 29.8756 14.2201 31.6218 8.67373Z" fill="white"/>
<path d="M27.5556 17.8854C27.8045 17.0556 27.7215 16.2257 27.3067 15.7278C26.8917 15.2298 26.3107 14.8979 25.5639 14.815L11.124 14.6489C11.041 14.6489 10.9581 14.5659 10.8751 14.5659C10.7921 14.4829 10.7921 14.4 10.8751 14.317C10.9581 14.151 11.041 14.0679 11.207 14.0679L25.7298 13.902C27.4726 13.819 29.2984 12.4082 29.9621 10.7485L30.7921 8.59088C30.7921 8.50776 30.8751 8.42479 30.7921 8.34182C29.8792 4.10947 26.0618 0.955872 21.5804 0.955872C17.431 0.955872 13.8626 3.6115 12.6177 7.34604C11.7879 6.7651 10.7921 6.43307 9.63024 6.51619C7.63852 6.68213 6.0618 8.34182 5.81273 10.3335C5.72976 10.8315 5.81273 11.3295 5.89586 11.8273C2.65929 11.9103 0.00366211 14.5659 0.00366211 17.8854C0.00366211 18.2173 0.00366211 18.4664 0.086631 18.7982C0.086631 18.9643 0.252569 19.0473 0.335694 19.0473H26.9746C27.1406 19.0473 27.3067 18.9643 27.3067 18.7982L27.5556 17.8854Z" fill="#F4811F"/>
<path d="M32.1199 8.59082H31.7049C31.622 8.59082 31.539 8.67379 31.456 8.75676L30.8751 10.7485C30.6262 11.5783 30.7092 12.4083 31.1242 12.9061C31.539 13.4041 32.1199 13.736 32.8668 13.8191L35.9375 13.985C36.0204 13.985 36.1034 14.068 36.1864 14.068C36.2693 14.151 36.2693 14.234 36.1864 14.3169C36.1034 14.483 36.0204 14.566 35.8543 14.566L32.7009 14.7319C30.9581 14.8149 29.1324 16.2257 28.4685 17.8854L28.3024 18.6324C28.2195 18.7154 28.3024 18.8813 28.4685 18.8813H39.4229C39.5889 18.8813 39.6718 18.7983 39.6718 18.6324C39.8378 17.9685 40.0037 17.2216 40.0037 16.4746C40.0037 12.1593 36.4353 8.59082 32.1199 8.59082Z" fill="#FAAD3F"/>
</g>
<defs>
<clipPath id="clip0_202_13172">
<rect width="41" height="20" fill="white"/>
</clipPath>
</defs>
</svg>
