<svg width="40" height="29" viewBox="0 0 40 29" fill="none" xmlns="http://www.w3.org/2000/svg">
<g clip-path="url(#clip0_202_10287)">
<path d="M19.9761 16.0056C23.2128 16.0056 26.1307 14.0557 27.369 11.0653C28.6072 8.07481 27.9219 4.63291 25.6327 2.34479C23.3435 0.0566734 19.9013 -0.626959 16.9114 0.612732C13.9216 1.85242 11.9731 4.77125 11.9746 8.00791C11.9746 10.1297 12.8177 12.1645 14.3184 13.6645C15.8191 15.1645 17.8544 16.0066 19.9761 16.0056Z" fill="#FFCD00"/>
<path d="M20.0259 20.0045H19.9991C14.5106 20.0031 9.72155 16.2806 8.36604 10.9621C7.96424 9.36257 6.66318 8.00793 5.01389 8.00793H0.000976562C0.000976562 19.0526 8.95442 28.006 19.9991 28.006H20.0259V20.0045Z" fill="#00ECBB"/>
<path d="M19.9761 20.0045H19.999C25.488 20.0045 30.2778 16.2814 31.6321 10.9621C32.0377 9.36257 33.3387 8.00793 34.988 8.00793H40.0009C39.9988 19.0532 31.0443 28.006 19.999 28.006H19.9761V20.0045Z" fill="#AF64FF"/>
<path d="M34.1422 22.1474C30.3917 25.8981 25.3049 28.0053 20.0008 28.0053C14.6966 28.0053 9.60979 25.8981 5.85938 22.1474L11.5152 16.4916C16.2025 21.176 23.799 21.176 28.4864 16.4916L34.1422 22.1474Z" fill="#7131FF"/>
</g>
<defs>
<clipPath id="clip0_202_10287">
<rect width="40.001" height="29" fill="white"/>
</clipPath>
</defs>
</svg>
