<svg width="37" height="26" viewBox="0 0 37 26" fill="none" xmlns="http://www.w3.org/2000/svg">
<g clip-path="url(#clip0_202_15964)">
<path d="M35.2593 9.92953C34.4487 9.36706 32.5909 9.15613 31.1385 9.43737C30.9696 8.03117 30.1928 6.80075 28.8417 5.71095L28.0648 5.14848L27.5244 5.95704C26.8488 7.01168 26.511 8.48818 26.6124 9.89438C26.6462 10.3865 26.815 11.2654 27.3217 12.0388C26.8488 12.3201 25.8693 12.6716 24.5857 12.6716H0.164831L0.0972765 12.9528C-0.139164 14.359 -0.139164 18.7534 2.63057 22.1283C4.72475 24.6946 7.83225 25.9953 11.9193 25.9953C20.7689 25.9953 27.3217 21.7416 30.3954 14.0426C31.6114 14.0778 34.2122 14.0426 35.5296 11.406C35.5633 11.3357 35.6309 11.1951 35.8673 10.6678L36.0024 10.3865L35.2593 9.92953ZM19.6881 0.0158691H15.9726V3.53135H19.6881V0.0158691ZM19.6881 4.23445H15.9726V7.74993H19.6881V4.23445ZM15.297 4.23445H11.5815V7.74993H15.297V4.23445ZM10.906 4.23445H7.19049V7.74993H10.906V4.23445ZM6.51494 8.45303H2.79945V11.9685H6.51494V8.45303ZM10.906 8.45303H7.19049V11.9685H10.906V8.45303ZM15.297 8.45303H11.5815V11.9685H15.297V8.45303ZM19.6881 8.45303H15.9726V11.9685H19.6881V8.45303ZM24.0791 8.45303H20.3636V11.9685H24.0791V8.45303Z" fill="#2396ED"/>
</g>
<defs>
<clipPath id="clip0_202_15964">
<rect width="37" height="26" fill="white"/>
</clipPath>
</defs>
</svg>
