<svg width="37" height="37" viewBox="0 0 37 37" fill="none" xmlns="http://www.w3.org/2000/svg">
<g clip-path="url(#clip0_202_10784)">
<path d="M18.0022 36.0024C27.9433 36.0024 36.0022 27.9436 36.0022 18.0024C36.0022 8.06132 27.9433 0.00244141 18.0022 0.00244141C8.06107 0.00244141 0.00219727 8.06132 0.00219727 18.0024C0.00219727 27.9436 8.06107 36.0024 18.0022 36.0024Z" fill="#F05537"/>
<path d="M16.5221 11.6362C19.2357 11.0332 21.9494 12.1387 23.457 14.2494L11.4633 16.963C11.8653 14.3834 13.8084 12.2392 16.5221 11.6362ZM23.524 21.5863C22.5859 22.9599 21.1453 23.9314 19.5037 24.2999C16.7901 24.903 14.0429 23.7974 12.5353 21.6533L24.5625 18.9396L26.5056 18.5041L30.2578 17.6666C30.2243 16.8625 30.1238 16.0585 29.9563 15.2879C28.4487 8.82205 21.8489 4.76832 15.249 6.2759C8.64911 7.78349 4.52837 14.2159 6.06946 20.7152C7.61055 27.2146 14.1769 31.2348 20.7768 29.7272C24.663 28.8562 27.6782 26.243 29.2193 22.9264L23.524 21.5863Z" fill="white"/>
</g>
<defs>
<clipPath id="clip0_202_10784">
<rect width="37" height="37" fill="white"/>
</clipPath>
</defs>
</svg>
