<svg width="32" height="32" viewBox="0 0 32 32" fill="none" xmlns="http://www.w3.org/2000/svg">
<path d="M11.9947 28C14.1988 28 15.9877 26.208 15.9877 24V20H11.9947C9.7905 20 8.0016 21.792 8.0016 24C8.0016 26.208 9.7905 28 11.9947 28Z" fill="#0ACF83"/>
<path d="M8.0016 16C8.0016 13.792 9.7905 12 11.9947 12H15.9877V20H11.9947C9.7905 20 8.0016 18.208 8.0016 16Z" fill="#A259FF"/>
<path d="M8.0016 8C8.0016 5.792 9.7905 4 11.9947 4H15.9877V12H11.9947C9.7905 12 8.0016 10.208 8.0016 8Z" fill="#F24E1E"/>
<path d="M15.9883 4H19.9813C22.1855 4 23.9744 5.792 23.9744 8C23.9744 10.208 22.1855 12 19.9813 12H15.9883V4Z" fill="#FF7262"/>
<path d="M23.9744 16C23.9744 18.208 22.1855 20 19.9813 20C17.7772 20 15.9883 18.208 15.9883 16C15.9883 13.792 17.7772 12 19.9813 12C22.1855 12 23.9744 13.792 23.9744 16Z" fill="#1ABCFE"/>
</svg>
