<svg width="30" height="41" viewBox="0 0 30 41" fill="none" xmlns="http://www.w3.org/2000/svg">
<g clip-path="url(#clip0_202_15159)">
<path d="M0.464233 32.2763L5.38765 0.771899C5.44783 0.385526 5.74832 0.0809448 6.13384 0.0154506C6.51936 -0.0500435 6.90353 0.138382 7.08787 0.483218L12.1795 9.97996L14.2091 6.11578C14.3662 5.81699 14.6761 5.62991 15.0137 5.62991C15.3514 5.62991 15.6612 5.81699 15.8184 6.11578L29.559 32.2762H0.464233V32.2763Z" fill="#FFA000"/>
<path d="M17.4734 20.0041L12.1772 9.97546L0.464233 32.2763L17.4734 20.0041Z" fill="#F57C00"/>
<path d="M29.5591 32.2763L25.7882 8.94123C25.7312 8.60613 25.4921 8.33084 25.1682 8.22708C24.8443 8.12331 24.4899 8.20968 24.2493 8.44993L0.464233 32.2759L13.6251 39.6565C14.4516 40.118 15.4581 40.118 16.2846 39.6565L29.5591 32.2759V32.2763Z" fill="#FFCA28"/>
<path d="M25.7881 8.94118C25.7311 8.60608 25.4919 8.3308 25.1681 8.22703C24.8442 8.12327 24.4897 8.20964 24.2492 8.44988L19.5284 13.1827L15.8162 6.11559C15.6591 5.81681 15.3492 5.62973 15.0116 5.62973C14.6739 5.62973 14.3641 5.81681 14.2069 6.11559L12.1774 9.97978L7.08546 0.483189C6.90082 0.138261 6.51619 -0.0498592 6.13021 0.0161232C5.74423 0.0821057 5.44475 0.38745 5.38524 0.774128L0.464112 32.2762H0.448242L0.464112 32.2944L0.593666 32.3581L24.2424 8.68204C24.4828 8.44048 24.8381 8.35366 25.1628 8.45712C25.4875 8.56058 25.7271 8.83693 25.7835 9.173L29.5227 32.2989L29.559 32.2762L25.7881 8.94112L25.7881 8.94118ZM0.507297 32.233L5.38753 0.996918C5.44698 0.61024 5.74716 0.304896 6.1328 0.238913C6.51845 0.172931 6.90311 0.36099 7.08805 0.705979L12.1794 10.2027L14.2089 6.33854C14.3661 6.03975 14.676 5.85267 15.0136 5.85267C15.3512 5.85267 15.6611 6.03975 15.8183 6.33854L19.4552 13.2554L0.507083 32.233H0.507297Z" fill="white" fill-opacity="0.2"/>
<path opacity="0.2" d="M16.2846 39.4341C15.4582 39.8955 14.4516 39.8955 13.6252 39.4341L0.496065 32.074L0.464233 32.2764L13.6251 39.6547C14.4516 40.1161 15.4581 40.1161 16.2846 39.6547L29.5591 32.2764L29.525 32.0673L16.2846 39.4342V39.4341Z" fill="#A52714"/>
<path d="M25.7504 8.94608C25.6936 8.61107 25.4553 8.33569 25.1326 8.23254C24.8099 8.12938 24.4566 8.21514 24.2169 8.45533L19.5124 13.1857L15.8135 6.12192C15.6568 5.82326 15.348 5.63624 15.0116 5.63624C14.6752 5.63624 14.3664 5.82326 14.2098 6.12192L12.1871 9.98443L7.11326 0.491777C6.92923 0.147001 6.54597 -0.0410882 6.16167 0.0249248C5.77737 0.0909378 5.47823 0.396038 5.41899 0.782624L0.515015 32.2709L13.6299 39.646C14.4535 40.1072 15.4565 40.1072 16.2801 39.646L29.5082 32.2709L25.7504 8.94601V8.94608Z" fill="url(#paint0_linear_202_15159)"/>
</g>
<defs>
<linearGradient id="paint0_linear_202_15159" x1="-0.496848" y1="6.81645" x2="35.6841" y2="25.9015" gradientUnits="userSpaceOnUse">
<stop stop-color="white" stop-opacity="0.1"/>
<stop offset="0.14" stop-color="white" stop-opacity="0.08"/>
<stop offset="0.61" stop-color="white" stop-opacity="0.02"/>
<stop offset="1" stop-color="white" stop-opacity="0"/>
</linearGradient>
<clipPath id="clip0_202_15159">
<rect width="30" height="41" fill="white"/>
</clipPath>
</defs>
</svg>
