<svg width="37" height="34" viewBox="0 0 37 34" fill="none" xmlns="http://www.w3.org/2000/svg">
<g clip-path="url(#clip0_202_15940)">
<path d="M18.0046 33.5865L24.6332 13.1859H11.376L18.0046 33.5865Z" fill="#E24329"/>
<path d="M18.0046 33.5865L11.376 13.1859H2.08618L18.0046 33.5865Z" fill="#FC6D26"/>
<path d="M2.08622 13.1859L0.0719087 19.3855C-0.111819 19.9509 0.0894065 20.5704 0.570426 20.9198L18.0046 33.5865L2.08622 13.1859Z" fill="#FCA326"/>
<path d="M2.08618 13.186H11.376L7.38357 0.898862C7.17823 0.266537 6.28378 0.266709 6.07844 0.898862L2.08618 13.186Z" fill="#E24329"/>
<path d="M18.0046 33.5865L24.6332 13.1859H33.9231L18.0046 33.5865Z" fill="#FC6D26"/>
<path d="M33.9231 13.1859L35.9374 19.3855C36.1211 19.9509 35.9199 20.5704 35.4389 20.9198L18.0046 33.5865L33.9231 13.1859Z" fill="#FCA326"/>
<path d="M33.923 13.186H24.6332L28.6256 0.898862C28.831 0.266537 29.7254 0.266709 29.9307 0.898862L33.923 13.186Z" fill="#E24329"/>
</g>
<defs>
<clipPath id="clip0_202_15940">
<rect width="37" height="34" fill="white"/>
</clipPath>
</defs>
</svg>
