<svg width="36" height="36" viewBox="0 0 36 36" fill="none" xmlns="http://www.w3.org/2000/svg">
<g clip-path="url(#clip0_202_9787)">
<path d="M27.4747 8.52621H8.52734V27.4736H27.4747V8.52621Z" fill="white"/>
<path d="M27.4746 35.9999L36.001 27.4736L31.7378 26.7462L27.4746 27.4736L26.6965 31.3731L27.4746 35.9999Z" fill="#EA4335"/>
<path d="M0.000976562 27.4736V33.1578C0.000976562 34.7281 1.27282 35.9999 2.84308 35.9999H8.52729L9.40272 31.7367L8.52729 27.4736L3.88211 26.7462L0.000976562 27.4736Z" fill="#188038"/>
<path d="M36.001 8.52632V2.84211C36.001 1.27184 34.7291 0 33.1589 0H27.4746C26.9559 2.11442 26.6965 3.67047 26.6965 4.66815C26.6965 5.66583 26.9559 6.95189 27.4746 8.52632C29.3604 9.0663 30.7814 9.3363 31.7378 9.3363C32.6942 9.3363 34.1152 9.0663 36.001 8.52632Z" fill="#1967D2"/>
<path d="M36.0009 8.52621H27.4746V27.4736H36.0009V8.52621Z" fill="#FBBC04"/>
<path d="M27.4747 27.4738H8.52734V36.0001H27.4747V27.4738Z" fill="#34A853"/>
<path d="M27.4747 0H2.84308C1.27282 0 0.000976562 1.27184 0.000976562 2.84211V27.4737H8.52729V8.52632H27.4747V0Z" fill="#4285F4"/>
<path d="M12.4138 23.2246C11.7056 22.7462 11.2154 22.0475 10.9478 21.1239L12.5914 20.4465C12.7406 21.0149 13.0012 21.4554 13.373 21.7681C13.7425 22.0807 14.1925 22.2346 14.7183 22.2346C15.2559 22.2346 15.7178 22.0712 16.1038 21.7444C16.4899 21.4175 16.6841 21.0007 16.6841 20.4962C16.6841 19.9799 16.4804 19.5583 16.073 19.2315C15.6656 18.9046 15.1541 18.7412 14.543 18.7412H13.5933V17.1141H14.4459C14.9717 17.1141 15.4146 16.972 15.7746 16.6878C16.1346 16.4036 16.3146 16.0152 16.3146 15.5202C16.3146 15.0796 16.1535 14.7291 15.8314 14.4662C15.5093 14.2033 15.102 14.0707 14.607 14.0707C14.1238 14.0707 13.7401 14.1986 13.4559 14.4567C13.1719 14.7156 12.9584 15.0424 12.8354 15.4065L11.2083 14.7291C11.4238 14.1181 11.8193 13.5781 12.3996 13.1115C12.9799 12.6449 13.7212 12.4104 14.6212 12.4104C15.2867 12.4104 15.8859 12.5383 16.4164 12.7965C16.947 13.0546 17.3638 13.4123 17.6646 13.867C17.9654 14.3241 18.1146 14.8357 18.1146 15.4041C18.1146 15.9844 17.9749 16.4746 17.6954 16.8773C17.4159 17.2799 17.0725 17.5878 16.6651 17.8033V17.9004C17.1911 18.1173 17.648 18.4735 17.9867 18.9307C18.3301 19.3925 18.503 19.9444 18.503 20.5886C18.503 21.2328 18.3396 21.8083 18.0128 22.3128C17.6859 22.8173 17.2335 23.2152 16.6604 23.5041C16.0849 23.7931 15.4383 23.9399 14.7206 23.9399C13.8893 23.9423 13.122 23.7031 12.4138 23.2246ZM22.5104 15.0678L20.7056 16.3728L19.8033 15.0039L23.0409 12.6686H24.282V23.6841H22.5104V15.0678Z" fill="#4285F4"/>
</g>
<defs>
<clipPath id="clip0_202_9787">
<rect width="36.001" height="36" fill="white"/>
</clipPath>
</defs>
</svg>
