<svg width="37" height="30" viewBox="0 0 37 30" fill="none" xmlns="http://www.w3.org/2000/svg">
<path d="M20.3706 14.8115L23.8801 18.8229L28.5992 21.8387L29.4221 14.8382L28.5992 7.99202L23.7896 10.6416L20.3706 14.8115Z" fill="#00832D"/>
<path d="M0.00488281 21.1886V27.1543C0.00488281 28.5182 1.10957 29.6229 2.47346 29.6229H8.43919L9.67348 25.1137L8.43919 21.1886L4.34546 19.9543L0.00488281 21.1886Z" fill="#0066DA"/>
<path d="M8.43919 0L0.00488281 8.43431L4.34546 9.66859L8.43919 8.43431L9.65291 4.5607L8.43919 0Z" fill="#E94235"/>
<path d="M8.43919 8.43431H0.00488281V21.1886H8.43919V8.43431Z" fill="#2684FC"/>
<path d="M33.9868 3.57124L28.5991 7.99205V21.8387L34.0094 26.276C34.82 26.9096 36.0049 26.3315 36.0049 25.3029V4.52576C36.0049 3.48278 34.7932 2.9109 33.9868 3.57124ZM20.3705 14.8115V21.1887H8.43909V29.623H26.1306C27.4944 29.623 28.5991 28.5183 28.5991 27.1544V21.8387L20.3705 14.8115Z" fill="#00AC47"/>
<path d="M26.1306 0H8.43909V8.43431H20.3705V14.8115L28.5991 7.99202V2.46858C28.5991 1.10469 27.4944 0 26.1306 0Z" fill="#FFBA00"/>
</svg>
