<svg width="32" height="32" viewBox="0 0 32 32" fill="none" xmlns="http://www.w3.org/2000/svg">
<path d="M26.9674 24.9521C26.9719 25.8054 26.6099 26.6196 25.9735 27.1879C25.337 27.7563 24.4872 28.0241 23.6398 27.9235C22.115 27.6978 20.9977 26.3709 21.0348 24.83V7.11368C20.998 5.57105 22.1181 4.2435 23.6449 4.0202C24.4915 3.92111 25.3398 4.18968 25.9751 4.75785C26.6104 5.32602 26.9717 6.13928 26.9674 6.99157V24.9521Z" fill="#F9AB00"/>
<path d="M8.29963 22.0164C9.93786 22.0164 11.2659 23.3444 11.2659 24.9826C11.2659 26.6209 9.93786 27.9489 8.29963 27.9489C6.66139 27.9489 5.33334 26.6209 5.33334 24.9826C5.33334 23.3444 6.66139 22.0164 8.29963 22.0164ZM16.1046 13.0259C14.4586 13.1161 13.1815 14.4968 13.2197 16.1448V24.1126C13.2197 26.275 14.1711 27.5877 15.5652 27.8675C16.4404 28.0449 17.349 27.8193 18.0395 27.253C18.7301 26.6868 19.1293 25.84 19.1268 24.947V16.0075C19.1283 15.2092 18.809 14.4438 18.2407 13.8831C17.6724 13.3225 16.9028 13.0136 16.1046 13.0259Z" fill="#E37400"/>
</svg>
