<svg width="32" height="32" viewBox="0 0 32 32" fill="none" xmlns="http://www.w3.org/2000/svg">
<path d="M20.4036 19.562H11.623L7.86298 25.9559C8.31531 26.1798 8.82898 26.3233 9.1612 26.3233C12.6153 26.3233 19.6645 26.2736 23.1639 26.2736C23.5237 26.2736 23.8605 26.1542 24.1626 25.9671L20.4036 19.562Z" fill="#4185F3"/>
<path d="M7.86297 25.9562L11.623 19.5623H4.00383C3.99999 20.0067 4.16227 20.4132 4.41655 20.8769C5.12495 22.1671 6.32351 24.2296 7.02756 25.3068C7.20108 25.5723 7.89006 25.9696 7.86297 25.9562Z" fill="#1767D1"/>
<path d="M20.4036 19.562L24.1638 25.9661C24.6512 25.6646 25.0483 25.1869 25.3062 24.747C25.8883 23.7551 26.8727 22.1034 27.5518 20.9851C27.8674 20.4651 27.99 19.9981 27.9824 19.5615L20.4036 19.562Z" fill="#E94235"/>
<path d="M11.6232 19.5625L16.009 12.1397L12.0893 5.77765C11.6654 6.04908 11.3027 6.41753 11.1381 6.69817C9.42719 9.61944 5.98051 15.6065 4.24734 18.5656C4.06974 18.8684 3.98471 19.2143 4.00226 19.5625H11.6232Z" fill="#30A753"/>
<path d="M20.4029 19.5625L16.0091 12.1397L19.8212 5.78485C20.2452 6.05653 20.7106 6.41752 20.8752 6.6984C22.5861 9.61943 26.0328 15.6065 27.7667 18.5656C27.9456 18.8699 27.9995 19.2142 27.9822 19.5625H20.4029Z" fill="#F9BC00"/>
<path d="M12.0898 5.77869L16.0101 12.1397L19.8222 5.78491C19.4286 5.561 18.8713 5.4284 18.3315 5.41173C16.8299 5.36297 14.3955 5.34331 13.0852 5.39879C12.7622 5.41247 12.0939 5.77595 12.0898 5.77869Z" fill="#0F8038"/>
</svg>
