<svg width="32" height="32" viewBox="0 0 32 32" fill="none" xmlns="http://www.w3.org/2000/svg">
<path d="M4.89583 14.4934C4.89583 11.1331 4.89583 9.45293 5.54979 8.16946C6.12503 7.04049 7.04291 6.1226 8.17189 5.54736C9.45536 4.8934 11.1355 4.8934 14.4958 4.8934H17.5225C20.8828 4.8934 22.563 4.8934 23.8464 5.54736C24.9754 6.1226 25.8933 7.04049 26.4685 8.16946C27.1225 9.45293 27.1225 11.1331 27.1225 14.4934V17.5201C27.1225 20.8804 27.1225 22.5605 26.4685 23.844C25.8933 24.973 24.9754 25.8909 23.8464 26.4661C22.563 27.1201 20.8828 27.1201 17.5225 27.1201H14.4958C11.1355 27.1201 9.45536 27.1201 8.17189 26.4661C7.04291 25.8909 6.12503 24.973 5.54979 23.844C4.89583 22.5605 4.89583 20.8804 4.89583 17.5201V14.4934Z" fill="url(#paint0_radial_6_2816)"/>
<path d="M4.89583 14.4934C4.89583 11.1331 4.89583 9.45293 5.54979 8.16946C6.12503 7.04049 7.04291 6.1226 8.17189 5.54736C9.45536 4.8934 11.1355 4.8934 14.4958 4.8934H17.5225C20.8828 4.8934 22.563 4.8934 23.8464 5.54736C24.9754 6.1226 25.8933 7.04049 26.4685 8.16946C27.1225 9.45293 27.1225 11.1331 27.1225 14.4934V17.5201C27.1225 20.8804 27.1225 22.5605 26.4685 23.844C25.8933 24.973 24.9754 25.8909 23.8464 26.4661C22.563 27.1201 20.8828 27.1201 17.5225 27.1201H14.4958C11.1355 27.1201 9.45536 27.1201 8.17189 26.4661C7.04291 25.8909 6.12503 24.973 5.54979 23.844C4.89583 22.5605 4.89583 20.8804 4.89583 17.5201V14.4934Z" fill="url(#paint1_radial_6_2816)"/>
<path d="M16.0012 8.22202C13.8888 8.22202 13.6237 8.23125 12.7941 8.26901C11.9661 8.30692 11.4009 8.43801 10.9063 8.63035C10.3948 8.82901 9.96085 9.09475 9.52853 9.52722C9.09588 9.95954 8.83014 10.3935 8.63083 10.9049C8.43801 11.3996 8.30675 11.9649 8.26949 12.7926C8.23238 13.6222 8.22266 13.8875 8.22266 15.9998C8.22266 18.1121 8.23205 18.3764 8.26965 19.206C8.30773 20.034 8.43882 20.5992 8.63099 21.0938C8.82982 21.6053 9.09556 22.0392 9.52804 22.4716C9.9602 22.9042 10.3941 23.1706 10.9054 23.3692C11.4002 23.5616 11.9656 23.6927 12.7934 23.7306C13.6231 23.7683 13.888 23.7776 16.0002 23.7776C18.1127 23.7776 18.377 23.7683 19.2066 23.7306C20.0346 23.6927 20.6005 23.5616 21.0953 23.3692C21.6067 23.1706 22.04 22.9042 22.4722 22.4716C22.9048 22.0392 23.1706 21.6053 23.3699 21.0939C23.5611 20.5992 23.6923 20.0339 23.7312 19.2062C23.7685 18.3766 23.7782 18.1121 23.7782 15.9998C23.7782 13.8875 23.7685 13.6224 23.7312 12.7928C23.6923 11.9647 23.5611 11.3996 23.3699 10.905C23.1706 10.3935 22.9048 9.95954 22.4722 9.52722C22.0395 9.09459 21.6069 8.82884 21.0949 8.63035C20.599 8.43801 20.0335 8.30692 19.2055 8.26901C18.3758 8.23125 18.1117 8.22202 15.9987 8.22202H16.0012ZM15.3034 9.62364C15.5105 9.62331 15.7416 9.62364 16.0012 9.62364C18.0779 9.62364 18.324 9.63109 19.1441 9.66836C19.9024 9.70303 20.314 9.82975 20.5882 9.93621C20.9511 10.0772 21.2099 10.2457 21.482 10.5179C21.7542 10.7901 21.9227 11.0494 22.064 11.4124C22.1705 11.6862 22.2973 12.0978 22.3319 12.8561C22.3691 13.676 22.3772 13.9223 22.3772 15.998C22.3772 18.0737 22.3691 18.32 22.3319 19.1399C22.2972 19.8982 22.1705 20.3098 22.064 20.5837C21.923 20.9466 21.7542 21.2051 21.482 21.4771C21.2097 21.7494 20.9513 21.9179 20.5882 22.0588C20.3143 22.1658 19.9024 22.2922 19.1441 22.3269C18.3242 22.3641 18.0779 22.3722 16.0012 22.3722C13.9243 22.3722 13.6782 22.3641 12.8583 22.3269C12.0999 22.2919 11.6883 22.1651 11.414 22.0587C11.051 21.9177 10.7918 21.7492 10.5196 21.477C10.2473 21.2047 10.0788 20.9461 9.93751 20.583C9.83105 20.3092 9.70418 19.8976 9.66966 19.1393C9.63239 18.3194 9.62494 18.0731 9.62494 15.9961C9.62494 13.9191 9.63239 13.6741 9.66966 12.8542C9.70434 12.0958 9.83105 11.6843 9.93751 11.4101C10.0785 11.0471 10.2473 10.7879 10.5196 10.5156C10.7918 10.2434 11.051 10.0749 11.414 9.93361C11.6882 9.82667 12.0999 9.70028 12.8583 9.66544C13.5758 9.63303 13.8538 9.62331 15.3034 9.62169V9.62364ZM20.1529 10.9151C19.6376 10.9151 19.2196 11.3326 19.2196 11.8481C19.2196 12.3634 19.6376 12.7814 20.1529 12.7814C20.6682 12.7814 21.0863 12.3634 21.0863 11.8481C21.0863 11.3328 20.6682 10.9147 20.1529 10.9147V10.9151ZM16.0012 12.0056C13.7953 12.0056 12.0069 13.794 12.0069 15.9998C12.0069 18.2056 13.7953 19.9932 16.0012 19.9932C18.207 19.9932 19.9948 18.2056 19.9948 15.9998C19.9948 13.794 18.2068 12.0056 16.001 12.0056H16.0012ZM16.0012 13.4072C17.4329 13.4072 18.5938 14.5679 18.5938 15.9998C18.5938 17.4316 17.4329 18.5924 16.0012 18.5924C14.5692 18.5924 13.4085 17.4316 13.4085 15.9998C13.4085 14.5679 14.5692 13.4072 16.0012 13.4072Z" fill="white"/>
<defs>
<radialGradient id="paint0_radial_6_2816" cx="0" cy="0" r="1" gradientUnits="userSpaceOnUse" gradientTransform="translate(10.7998 28.832) rotate(-90) scale(22.0283 20.488)">
<stop stop-color="#FFDD55"/>
<stop offset="0.1" stop-color="#FFDD55"/>
<stop offset="0.5" stop-color="#FF543E"/>
<stop offset="1" stop-color="#C837AB"/>
</radialGradient>
<radialGradient id="paint1_radial_6_2816" cx="0" cy="0" r="1" gradientTransform="matrix(1.93269 9.65519 -39.7983 7.97094 1.17274 6.49457)" gradientUnits="userSpaceOnUse">
<stop stop-color="#3771C8"/>
<stop offset="0.128" stop-color="#3771C8"/>
<stop offset="1" stop-color="#6600FF" stop-opacity="0"/>
</radialGradient>
</defs>
</svg>
