<svg width="33" height="33" viewBox="0 0 33 33" fill="none" xmlns="http://www.w3.org/2000/svg">
<path d="M30.6644 0.00317383H15.2549C15.2549 1.84806 15.9878 3.61738 17.2923 4.9219C18.5968 6.22643 20.3661 6.95931 22.211 6.95931H25.0496V9.69987C25.0521 13.5382 28.163 16.6491 32.0013 16.6516V1.34003C32.0013 0.601707 31.4028 0.00317383 30.6644 0.00317383Z" fill="#2684FF"/>
<path d="M23.0399 7.68127H7.63037C7.63283 11.5196 10.7438 14.6305 14.582 14.633H17.4207V17.3824C17.4256 21.2207 20.5385 24.3297 24.3768 24.3297V9.01814C24.3768 8.27981 23.7783 7.68127 23.0399 7.68127Z" fill="url(#paint0_linear_202_9435)"/>
<path d="M15.4105 15.3549H0.000976562C0.000976563 19.1966 3.11534 22.311 6.95711 22.311H9.80463V25.0516C9.80707 28.8864 12.9126 31.9959 16.7474 32.0032V16.6917C16.7474 15.9534 16.1489 15.3549 15.4105 15.3549Z" fill="url(#paint1_linear_202_9435)"/>
<defs>
<linearGradient id="paint0_linear_202_9435" x1="20.6471" y1="4.44966" x2="14.1319" y2="11.248" gradientUnits="userSpaceOnUse">
<stop offset="0.18" stop-color="#0052CC"/>
<stop offset="1" stop-color="#2684FF"/>
</linearGradient>
<linearGradient id="paint1_linear_202_9435" x1="487.727" y1="451.78" x2="207.822" y2="728.788" gradientUnits="userSpaceOnUse">
<stop offset="0.18" stop-color="#0052CC"/>
<stop offset="1" stop-color="#2684FF"/>
</linearGradient>
</defs>
</svg>
