<svg width="32" height="32" viewBox="0 0 32 32" fill="none" xmlns="http://www.w3.org/2000/svg">
<path d="M10.7687 9.0303C14.5072 9.0303 17.5375 12.151 17.5375 16.0001C17.5375 19.8493 14.5069 22.9697 10.7687 22.9697C7.03075 22.9697 4 19.8493 4 16.0001C4 12.1511 7.03047 9.0303 10.7687 9.0303ZM21.5781 9.43854C23.4473 9.43854 24.9626 12.376 24.9626 16.0001H24.9629C24.9629 19.6233 23.4476 22.5616 21.5785 22.5616C19.7094 22.5616 18.194 19.6233 18.194 16.0001C18.194 12.3769 19.709 9.43854 21.5782 9.43854H21.5781ZM26.8097 10.122C27.4669 10.122 28 12.7537 28 16.0002C28 19.2456 27.4671 21.8783 26.8097 21.8783C26.1522 21.8783 25.6196 19.2463 25.6196 16.0002C25.6196 12.7539 26.1525 10.122 26.8097 10.122Z" fill="black"/>
</svg>
