<svg width="32" height="32" viewBox="0 0 32 32" fill="none" xmlns="http://www.w3.org/2000/svg">
<path d="M6.98555 23.0563C5.90542 23.0586 4.90757 22.4796 4.37366 21.5406C3.84746 20.6074 3.87901 19.4601 4.45571 18.5572L9.83447 10.1108C10.3949 9.18657 11.4093 8.63541 12.4897 8.66806C13.5692 8.69393 14.5512 9.29922 15.0594 10.2521C15.5608 11.2002 15.4981 12.3409 14.8976 13.2309L9.52222 21.6773C8.96822 22.5406 8.01131 23.0608 6.98555 23.0563Z" fill="#F62B54"/>
<path d="M16.2119 23.0562C15.127 23.0562 14.1288 22.4761 13.6046 21.544C13.0795 20.6133 13.1111 19.4688 13.6866 18.5685L19.0551 10.1415C19.6075 9.20401 20.6248 8.63991 21.7126 8.66799C22.8066 8.69192 23.798 9.30387 24.2994 10.2611C24.7974 11.2183 24.7244 12.3659 24.1057 13.2536L18.7383 21.6807C18.186 22.5403 17.2336 23.0588 16.2119 23.0562Z" fill="#FFCC00"/>
<path d="M25.2311 23.1269C26.7605 23.1269 28.0003 21.9131 28.0003 20.4159C28.0003 18.9186 26.7605 17.7048 25.2311 17.7048C23.7018 17.7048 22.462 18.9186 22.462 20.4159C22.462 21.9131 23.7018 23.1269 25.2311 23.1269Z" fill="#00CA72"/>
</svg>
