<svg width="37" height="30" viewBox="0 0 37 30" fill="none" xmlns="http://www.w3.org/2000/svg">
<g clip-path="url(#clip0_202_15356)">
<path d="M17.3494 24.6953C11.8831 24.6953 7.45343 20.2644 7.45343 14.7982C7.45343 9.33346 11.8831 4.90334 17.3494 4.90334C22.8142 4.90334 27.2449 9.33346 27.2449 14.7982C27.2449 20.2644 22.8142 24.6953 17.3494 24.6953ZM35.7419 11.1492C34.0536 3.3869 24.7451 -1.17939 14.9499 0.95051C5.15485 3.0802 -1.41765 11.0997 0.270486 18.8616C1.9582 26.6239 11.2671 31.19 21.0622 29.0602C30.8573 26.9303 37.4294 18.9108 35.7419 11.1492Z" fill="#37808C"/>
<path d="M17.3032 24.5073C11.9291 24.5073 7.57429 20.1512 7.57429 14.7773C7.57429 9.40473 11.9291 5.04935 17.3032 5.04935C22.6759 5.04935 27.0317 9.40473 27.0317 14.7773C27.0317 20.1512 22.6759 24.5073 17.3032 24.5073ZM19.7682 2.52258C12.7792 2.52258 7.11212 8.18915 7.11212 15.1784C7.11212 22.1679 12.7792 27.8345 19.7682 27.8345C26.7571 27.8345 32.4246 22.1679 32.4246 15.1784C32.4246 8.18915 26.7571 2.52258 19.7682 2.52258Z" fill="#9BD3CD"/>
<path d="M13.7899 13.7561L12.7285 11.5305C12.4752 11.0033 12.215 10.4075 12.1259 10.1267L12.1054 10.1473C12.1396 10.5445 12.1465 11.0443 12.1533 11.4621L12.1807 13.7561H11.4069V9.01746H12.2971L13.4475 11.332C13.6666 11.7703 13.8721 12.3317 13.9337 12.5509L13.9543 12.5303C13.9337 12.2906 13.8858 11.6127 13.8858 11.1813L13.8721 9.01746H14.6185V13.7561H13.7899Z" fill="#1B1A19"/>
<path d="M16.6932 10.7773C16.2686 10.7773 16.0359 11.1128 16.0359 11.6744H17.3164C17.3164 11.1128 17.0699 10.7773 16.6932 10.7773ZM16.029 12.229V12.2838C16.029 12.7631 16.2071 13.2699 16.8849 13.2699C17.2068 13.2699 17.4876 13.1535 17.7478 12.9275L18.0422 13.3863C17.6793 13.6944 17.2616 13.8451 16.796 13.8451C15.8167 13.8451 15.2004 13.1398 15.2004 12.0304C15.2004 11.421 15.3306 11.0169 15.6318 10.6746C15.9126 10.3527 16.255 10.2089 16.6932 10.2089C17.0356 10.2089 17.3507 10.2979 17.645 10.565C17.9464 10.839 18.097 11.2635 18.097 12.0715V12.229H16.029Z" fill="#1B1A19"/>
<path d="M22.1027 13.7697H21.3974L20.9728 12.1742C20.8632 11.7634 20.7468 11.2293 20.7468 11.2293H20.7332C20.7332 11.2293 20.6784 11.5717 20.5072 12.2085L20.0894 13.7697H19.3841L18.4392 10.339L19.1856 10.2363L19.5622 11.9141C19.658 12.3454 19.7402 12.8248 19.7402 12.8248H19.7608C19.7608 12.8248 19.8292 12.3728 19.9593 11.8935L20.4045 10.2911H21.144L21.5343 11.8524C21.6781 12.4139 21.7535 12.8385 21.7535 12.8385H21.774C21.774 12.8385 21.8562 12.3112 21.9452 11.9072L22.3013 10.2911H23.0819L22.1027 13.7697Z" fill="#1B1A19"/>
<path d="M12.0994 15.7536H11.668V17.2533H12.0721C12.4829 17.2533 12.7021 17.1985 12.8459 17.0547C12.976 16.9246 13.0581 16.726 13.0581 16.4795C13.0581 16.0001 12.798 15.7536 12.0994 15.7536ZM13.1951 19.8554L12.7842 19.1227C12.4556 18.5406 12.2364 18.212 11.9762 17.9517C11.8872 17.8627 11.8187 17.8148 11.668 17.808V19.8554H10.8943V15.1168H12.3391C13.4005 15.1168 13.8799 15.7331 13.8799 16.4726C13.8799 17.1506 13.4416 17.7737 12.7021 17.7737C12.8733 17.8627 13.1882 18.3215 13.4348 18.7187L14.1332 19.8554H13.1951Z" fill="#1B1A19"/>
<path d="M15.8313 16.8766C15.4067 16.8766 15.1739 17.2122 15.1739 17.7737H16.4545C16.4545 17.2122 16.2079 16.8766 15.8313 16.8766ZM15.167 18.3284V18.3832C15.167 18.8625 15.3451 19.3692 16.023 19.3692C16.3449 19.3692 16.6257 19.2528 16.8859 19.0268L17.1803 19.4856C16.8174 19.7938 16.3997 19.9445 15.934 19.9445C14.9548 19.9445 14.3385 19.2392 14.3385 18.1298C14.3385 17.5203 14.4686 17.1163 14.7699 16.7739C15.0506 16.4521 15.393 16.3083 15.8313 16.3083C16.1737 16.3083 16.4887 16.3973 16.7831 16.6643C17.0844 16.9383 17.2351 17.3628 17.2351 18.1709V18.3284H15.167Z" fill="#1B1A19"/>
<path d="M18.6456 19.9308C17.8854 19.9308 17.8854 19.2459 17.8854 18.9515V16.0001C17.8854 15.5277 17.8649 15.2742 17.8169 14.9867L18.5908 14.8155C18.6456 15.0277 18.6523 15.3153 18.6523 15.7673V18.705C18.6523 19.1707 18.6729 19.2459 18.7277 19.3282C18.7687 19.3898 18.8852 19.424 18.9742 19.3829L19.0974 19.8485C18.9605 19.9034 18.8167 19.9308 18.6456 19.9308Z" fill="#1B1A19"/>
<path d="M19.5767 19.8554V16.4452L20.3368 16.3083V19.8554H19.5767ZM19.9533 15.8768C19.6794 15.8768 19.4671 15.6509 19.4671 15.377C19.4671 15.0962 19.6862 14.8702 19.967 14.8702C20.234 14.8702 20.46 15.0894 20.46 15.377C20.46 15.6509 20.234 15.8768 19.9533 15.8768Z" fill="#1B1A19"/>
<path d="M22.4937 19.9445C21.5487 19.9445 21.0215 19.2802 21.0215 18.164C21.0215 16.904 21.7747 16.3014 22.5485 16.3014C22.9251 16.3014 23.199 16.3905 23.5071 16.6781L23.1306 17.1779C22.9251 16.9931 22.7471 16.9109 22.5485 16.9109C22.3088 16.9109 22.1102 17.0341 22.0007 17.2601C21.898 17.4724 21.8569 17.7943 21.8569 18.2256C21.8569 18.6981 21.9322 18.9994 22.0897 19.1707C22.1993 19.2939 22.3636 19.3692 22.5485 19.3692C22.7882 19.3692 23.021 19.2528 23.247 19.0268L23.6031 19.4856C23.2881 19.8006 22.9594 19.9445 22.4937 19.9445Z" fill="#1B1A19"/>
<path d="M24.2852 19.234C24.2729 19.2299 24.2483 19.2258 24.2209 19.2258H24.1799V19.3803H24.2182C24.2674 19.3803 24.2893 19.3748 24.3043 19.3612C24.318 19.3475 24.3262 19.3269 24.3262 19.3037C24.3262 19.2682 24.3125 19.2449 24.2852 19.234ZM24.3453 19.7043C24.3235 19.6661 24.3139 19.651 24.292 19.61C24.236 19.5074 24.2182 19.4787 24.1977 19.4705C24.1922 19.4678 24.1868 19.4664 24.1799 19.4664V19.7043H24.0678V19.1342H24.2797C24.3809 19.1342 24.4479 19.2012 24.4479 19.3009C24.4479 19.3871 24.3904 19.4568 24.3207 19.4582C24.3317 19.4678 24.3371 19.4733 24.344 19.4828C24.3768 19.5238 24.4807 19.7043 24.4807 19.7043H24.3453ZM24.2455 19.0153C24.0295 19.0153 23.8559 19.1957 23.8559 19.4227C23.8559 19.6496 24.0295 19.8329 24.2455 19.8329C24.4615 19.8329 24.6365 19.6496 24.6365 19.4227C24.6365 19.1957 24.4615 19.0153 24.2455 19.0153ZM24.2455 19.9312C23.968 19.9312 23.7397 19.707 23.7397 19.4227C23.7397 19.1397 23.968 18.9141 24.2455 18.9141C24.5231 18.9141 24.7514 19.1397 24.7514 19.4227C24.7514 19.707 24.5231 19.9312 24.2455 19.9312Z" fill="#1B1A19"/>
</g>
<defs>
<clipPath id="clip0_202_15356">
<rect width="37" height="30" fill="white"/>
</clipPath>
</defs>
</svg>
