<svg width="37" height="34" viewBox="0 0 37 34" fill="none" xmlns="http://www.w3.org/2000/svg">
<g clip-path="url(#clip0_202_14834)">
<path d="M18.0515 0.416626C8.10054 0.416626 0.00317383 8.51399 0.00317383 18.465C0.00317383 24.8063 3.32017 30.3671 8.1981 33.5866C8.49077 33.3914 8.78345 33.1963 9.07612 33.0012C9.27124 32.9036 9.56392 32.7085 9.75904 32.611C10.0517 32.5134 10.3444 32.3183 10.5395 32.2207C10.8322 32.1232 11.1249 32.0256 11.4175 31.8305C11.6126 31.7329 11.9053 31.6354 12.1004 31.5378C12.3931 31.4403 12.7834 31.3427 13.076 31.2451C13.3687 31.1476 13.5638 31.1476 13.8565 31.05C14.1492 30.9525 14.3443 30.9525 14.637 30.8549C14.9296 30.7574 15.2223 30.7574 15.515 30.7574C15.8077 30.7574 16.1979 30.6598 16.4906 30.6598V29.4891V28.5135V24.5136V23.538V19.9283H15.515V17.9772H16.4906H19.4173H20.3929V23.2453V24.3185V28.4159V29.3915V30.8549C23.1246 31.2451 25.5635 32.2207 27.8074 33.5866C32.7829 30.3671 36.0023 24.8063 36.0023 18.465C36.0999 8.51399 28.0025 0.416626 18.0515 0.416626ZM23.4172 18.465C23.4172 15.5382 20.9783 13.0992 18.0515 13.0992C15.1248 13.0992 12.6858 15.5382 12.6858 18.465C12.6858 20.5137 13.8565 22.3673 15.6126 23.2453V24.3185C13.3687 23.3429 11.7102 21.0991 11.7102 18.465C11.7102 14.9529 14.5394 12.1237 18.0515 12.1237C21.5636 12.1237 24.3928 14.9529 24.3928 18.465C24.3928 20.7088 23.2221 22.66 21.4661 23.8307V22.66C22.6368 21.5868 23.4172 20.1235 23.4172 18.465ZM21.4661 29.0989V28.0257C25.466 26.6599 28.2952 22.8551 28.2952 18.3674C28.2952 12.8066 23.7099 8.22131 18.0515 8.22131C12.3931 8.22131 7.80786 12.8066 7.80786 18.465C7.80786 23.2453 11.1249 27.3428 15.6126 28.4159V29.3915C10.6371 28.3184 6.83228 23.8307 6.83228 18.465C6.83228 12.2212 11.8078 7.24573 18.0515 7.24573C24.2953 7.24573 29.2708 12.2212 29.2708 18.465C29.2708 23.4405 25.9538 27.733 21.4661 29.0989Z" fill="#E44A49"/>
</g>
<defs>
<clipPath id="clip0_202_14834">
<rect width="37" height="34" fill="white"/>
</clipPath>
</defs>
</svg>
