<svg width="32" height="32" viewBox="0 0 32 32" fill="none" xmlns="http://www.w3.org/2000/svg">
<path d="M22.9251 5.86816C21.8177 4.606 19.816 4.06488 17.2553 4.06488H9.82319C9.29927 4.06488 8.85407 4.44591 8.77205 4.96255L5.6775 24.5889C5.61598 24.9759 5.91564 25.3265 6.30792 25.3265H10.8962L12.0485 18.0175L12.0128 18.2464C12.0948 17.7297 12.5367 17.3487 13.06 17.3487H15.2403C19.5236 17.3487 22.8774 15.6089 23.8571 10.5761C23.8863 10.4273 23.9114 10.2824 23.9332 10.1409C23.8095 10.0754 23.8095 10.0754 23.9332 10.1409C24.2249 8.28069 23.9312 7.01456 22.9251 5.86816Z" fill="#27346A"/>
<path d="M13.8042 9.47075C13.9265 9.41254 14.0628 9.38012 14.2057 9.38012H20.0323C20.7222 9.38012 21.3659 9.4251 21.954 9.5197C22.1227 9.54682 22.2861 9.57791 22.4448 9.61364C22.6036 9.6487 22.7577 9.68839 22.9072 9.73205C22.982 9.75388 23.0554 9.77637 23.1275 9.80018C23.4166 9.89676 23.6858 10.0092 23.9332 10.1409C24.2249 8.28003 23.9312 7.01456 22.9251 5.86816C21.817 4.606 19.816 4.06488 17.2553 4.06488H9.82253C9.29927 4.06488 8.85407 4.44591 8.77205 4.96255L5.6775 24.5883C5.61598 24.9759 5.91564 25.3258 6.30726 25.3258H10.8962L13.2869 10.1653C13.3358 9.85443 13.5356 9.59974 13.8042 9.47075Z" fill="#27346A"/>
<path d="M23.8577 10.5759C22.878 15.608 19.5242 17.3484 15.2409 17.3484H13.0599C12.5366 17.3484 12.0947 17.7295 12.0134 18.2461L10.5799 27.334C10.5263 27.6726 10.7883 27.9796 11.1309 27.9796H14.9988C15.4565 27.9796 15.8462 27.6462 15.9176 27.1944L15.9553 26.9972L16.6843 22.3773L16.7313 22.1219C16.8027 21.6701 17.1923 21.3367 17.6501 21.3367H18.2289C21.9757 21.3367 24.9095 19.8146 25.7669 15.4122C26.1247 13.5725 25.9395 12.0365 24.9929 10.9576C24.7058 10.6308 24.3492 10.3609 23.9338 10.1406C23.9113 10.2828 23.8868 10.4271 23.8577 10.5759Z" fill="#2790C3"/>
<path d="M22.9075 9.73211C22.758 9.68845 22.6038 9.64876 22.4451 9.6137C22.2863 9.57864 22.1222 9.54755 21.9542 9.52043C21.3655 9.42517 20.7225 9.38019 20.0319 9.38019H14.2059C14.0624 9.38019 13.9261 9.4126 13.8044 9.47148C13.5352 9.60047 13.3361 9.85449 13.2871 10.1661L12.0488 18.0175L12.013 18.2464C12.0944 17.7298 12.5363 17.3487 13.0595 17.3487H15.2405C19.5238 17.3487 22.8777 15.609 23.8574 10.5762C23.8865 10.4274 23.911 10.2832 23.9335 10.1409C23.6854 10.0099 23.4168 9.89683 23.1277 9.80091C23.0556 9.77709 22.9822 9.75394 22.9075 9.73211Z" fill="#1F264F"/>
</svg>
