<svg width="32" height="32" viewBox="0 0 32 32" fill="none" xmlns="http://www.w3.org/2000/svg">
<path d="M16 28C22.6274 28 28 22.6274 28 16C28 9.37258 22.6274 4 16 4C9.37258 4 4 9.37258 4 16C4 22.6274 9.37258 28 16 28Z" fill="#FF4500"/>
<path d="M23.9828 16.1144C23.9828 15.1416 23.1961 14.3691 22.2375 14.3691C21.7655 14.3691 21.3361 14.555 21.0215 14.8555C19.8199 13.9971 18.1745 13.4392 16.3433 13.3678L17.1444 9.61949L19.7481 10.1774C19.7769 10.8355 20.3204 11.3648 20.9929 11.3648C21.6796 11.3648 22.2375 10.807 22.2375 10.12C22.2375 9.43335 21.6796 8.87549 20.9929 8.87549C20.5065 8.87549 20.0772 9.16162 19.8769 9.57655L16.9729 8.96135C16.8871 8.94695 16.8012 8.96135 16.7439 9.00429C16.6724 9.04722 16.6295 9.11869 16.6153 9.20455L15.7281 13.3819C13.8684 13.4392 12.1945 13.9971 10.9785 14.8699C10.6639 14.5694 10.2345 14.3835 9.76253 14.3835C8.78973 14.3835 8.0172 15.1702 8.0172 16.1288C8.0172 16.844 8.44627 17.4448 9.04733 17.7168C9.01853 17.8883 9.0044 18.06 9.0044 18.2462C9.0044 20.9355 12.1375 23.1246 16.0001 23.1246C19.8628 23.1246 22.9959 20.9499 22.9959 18.2462C22.9959 18.0744 22.9815 17.8883 22.9529 17.7168C23.5537 17.4448 23.9828 16.8296 23.9828 16.1144ZM11.9943 17.359C11.9943 16.6723 12.5521 16.1144 13.2391 16.1144C13.9257 16.1144 14.4836 16.6723 14.4836 17.359C14.4836 18.0456 13.9257 18.6038 13.2391 18.6038C12.5521 18.6179 11.9943 18.0456 11.9943 17.359ZM18.9615 20.6638C18.1031 21.5222 16.4721 21.5795 16.0001 21.5795C15.5137 21.5795 13.8828 21.5078 13.0385 20.6638C12.91 20.535 12.91 20.3347 13.0385 20.2059C13.1673 20.0774 13.3676 20.0774 13.4964 20.2059C14.0401 20.7496 15.1847 20.9355 16.0001 20.9355C16.8156 20.9355 17.9743 20.7496 18.5036 20.2059C18.6324 20.0774 18.8327 20.0774 18.9615 20.2059C19.0759 20.3347 19.0759 20.535 18.9615 20.6638ZM18.7324 18.6179C18.0457 18.6179 17.4879 18.06 17.4879 17.3734C17.4879 16.6867 18.0457 16.1288 18.7324 16.1288C19.4193 16.1288 19.9772 16.6867 19.9772 17.3734C19.9772 18.0456 19.4193 18.6179 18.7324 18.6179Z" fill="white"/>
</svg>
