<svg width="37" height="32" viewBox="0 0 37 32" fill="none" xmlns="http://www.w3.org/2000/svg">
<g clip-path="url(#clip0_202_14515)">
<path d="M20.8688 1.76C20.2598 0.749228 19.1659 0.131226 17.9858 0.131226C16.8058 0.131226 15.7119 0.749228 15.1028 1.76L10.3603 9.88285C17.7327 13.5636 22.6015 20.8764 23.1536 29.098H19.8237C19.2727 22.051 15.0339 15.8217 8.68095 12.7226L4.29158 20.3121C7.85851 21.9118 10.3656 25.2175 10.9441 29.0836H3.29695C3.11271 29.0706 2.94744 28.9656 2.85737 28.8043C2.7673 28.6431 2.76456 28.4473 2.85008 28.2836L4.96909 24.6798C4.25118 24.0809 3.43069 23.6169 2.54737 23.3104L0.449987 26.9142C0.00893667 27.6707 -0.110486 28.5724 0.118434 29.4177C0.347353 30.2629 0.905511 30.9811 1.66805 31.4116C2.16544 31.6919 2.72605 31.8407 3.29695 31.8441H13.7694C14.165 26.9626 11.9778 22.2299 8.00345 19.3679L9.66838 16.4849C14.6857 19.9309 17.5087 25.7716 17.0921 31.8441H25.9645C26.385 22.643 21.8799 13.9128 14.137 8.92425L17.5029 3.15826C17.659 2.89669 17.9968 2.80984 18.2597 2.96365C18.6417 3.17267 32.8837 28.0241 33.1504 28.3124C33.246 28.4839 33.2426 28.6934 33.1413 28.8617C33.0401 29.0299 32.8566 29.1311 32.6603 29.1269H29.2295C29.2728 30.0446 29.2728 30.96 29.2295 31.873H32.6747C33.5584 31.8787 34.4076 31.5307 35.0331 30.9066C35.6586 30.2824 36.0084 29.4339 36.0046 28.5503C36.005 27.9724 35.8507 27.405 35.5577 26.907L20.8688 1.76Z" fill="#362D59"/>
</g>
<defs>
<clipPath id="clip0_202_14515">
<rect width="37" height="32" fill="white"/>
</clipPath>
</defs>
</svg>
