<svg width="32" height="32" viewBox="0 0 32 32" fill="none" xmlns="http://www.w3.org/2000/svg">
<path d="M25.6562 4H6.34375C5.04933 4 4 5.04933 4 6.34375V25.6562C4 26.9507 5.04933 28 6.34375 28H25.6562C26.9507 28 28 26.9507 28 25.6562V6.34375C28 5.04933 26.9507 4 25.6562 4Z" fill="url(#paint0_linear_6_2741)"/>
<path d="M23.755 7.12H18.685C18.0637 7.12 17.56 7.62367 17.56 8.245V16.495C17.56 17.1163 18.0637 17.62 18.685 17.62H23.755C24.3763 17.62 24.88 17.1163 24.88 16.495V8.245C24.88 7.62367 24.3763 7.12 23.755 7.12Z" fill="white"/>
<path d="M13.315 7.12H8.24499C7.62367 7.12 7.12 7.62367 7.12 8.245V22.495C7.12 23.1163 7.62367 23.62 8.24499 23.62H13.315C13.9363 23.62 14.44 23.1163 14.44 22.495V8.245C14.44 7.62367 13.9363 7.12 13.315 7.12Z" fill="white"/>
<defs>
<linearGradient id="paint0_linear_6_2741" x1="16" y1="4" x2="16" y2="28" gradientUnits="userSpaceOnUse">
<stop stop-color="#0091E6"/>
<stop offset="1" stop-color="#0079BF"/>
</linearGradient>
</defs>
</svg>
