<svg width="32" height="32" viewBox="0 0 32 32" fill="none" xmlns="http://www.w3.org/2000/svg">
<path d="M5.70579 15.9997C5.70579 20.0746 8.0738 23.5958 11.5076 25.2647L6.59705 11.8101C6.00839 13.1283 5.70468 14.556 5.70579 15.9997ZM22.9496 15.4802C22.9496 14.2079 22.4926 13.3269 22.1007 12.6411C21.5789 11.7931 21.0899 11.075 21.0899 10.227C21.0899 9.28072 21.8075 8.39984 22.8184 8.39984C22.864 8.39984 22.9073 8.40552 22.952 8.40807C21.1203 6.73015 18.6802 5.70569 16.0002 5.70569C12.4038 5.70569 9.23969 7.55089 7.39899 10.3457C7.64051 10.353 7.86832 10.3579 8.06146 10.3579C9.13822 10.3579 10.805 10.2272 10.805 10.2272C11.3599 10.1945 11.4253 11.0096 10.8712 11.0752C10.8712 11.0752 10.3133 11.1408 9.69276 11.1733L13.4415 22.3239L15.6946 15.5673L14.0905 11.1731C13.5362 11.1406 13.011 11.075 13.011 11.075C12.4563 11.0425 12.5213 10.1943 13.076 10.227C13.076 10.227 14.7761 10.3577 15.7876 10.3577C16.8642 10.3577 18.5311 10.227 18.5311 10.227C19.0865 10.1943 19.1517 11.0094 18.5971 11.075C18.5971 11.075 18.0383 11.1406 17.4189 11.1731L21.1391 22.2393L22.1657 18.808C22.611 17.3841 22.9496 16.3615 22.9496 15.4802Z" fill="#00749A"/>
<path d="M16.1811 16.9L13.0924 25.8749C14.0367 26.1532 15.0161 26.2945 16.0005 26.2945C17.1993 26.2945 18.349 26.087 19.4191 25.7109C19.3904 25.666 19.3658 25.6185 19.3458 25.5691L16.1811 16.9ZM25.0335 11.0605C25.0777 11.3885 25.1028 11.7406 25.1028 12.1191C25.1028 13.1637 24.9077 14.338 24.3201 15.8064L21.1755 24.8978C24.236 23.1131 26.2946 19.7975 26.2946 15.9995C26.2973 14.2732 25.8635 12.5742 25.0335 11.0605Z" fill="#00749A"/>
<path d="M16.0003 3.99991C9.38357 3.99991 4.00012 9.38293 4.00012 15.9996C4.00012 22.6171 9.38338 28.0001 16.0003 28.0001C22.6168 28.0001 28.0011 22.6173 28.0011 15.9996C28.0009 9.38293 22.6168 3.99991 16.0003 3.99991ZM16.0003 27.4499C9.687 27.4499 4.55036 22.3133 4.55036 15.9996C4.55036 9.68655 9.6868 4.55034 16.0003 4.55034C22.3134 4.55034 27.4497 9.68655 27.4497 15.9996C27.4497 22.3133 22.3132 27.4499 16.0003 27.4499Z" fill="#00749A"/>
</svg>
