<svg width="37" height="24" viewBox="0 0 37 24" fill="none" xmlns="http://www.w3.org/2000/svg">
<g clip-path="url(#clip0_202_10944)">
<path d="M8.45224 8.89881C10.1802 8.89881 11.0041 9.23068 12.2744 10.5009L19.0489 17.4013C19.2435 17.6073 19.2778 17.6874 19.3236 17.8133C19.3405 17.857 19.3483 17.9038 19.3465 17.9506C19.3465 17.9964 19.3465 18.0651 19.3236 18.0994C19.2892 18.2138 19.2435 18.3054 19.0489 18.5114L14.4143 23.2375C14.2083 23.4435 14.1282 23.4778 14.0138 23.5236C13.968 23.5465 13.9108 23.5465 13.8765 23.5465C13.8307 23.5465 13.762 23.5465 13.7277 23.5236C13.6133 23.4778 13.5332 23.4435 13.3272 23.2375L0.212916 9.88296C-0.164719 9.49388 -0.0159538 8.89881 0.613439 8.89881H8.45224ZM27.5629 0.476393C25.812 0.476393 24.9996 0.808255 23.7293 2.07848L16.9548 8.97892C16.7602 9.1849 16.7259 9.26501 16.6801 9.39089C16.6572 9.42522 16.6572 9.49388 16.6572 9.52821C16.6572 9.57398 16.6572 9.64264 16.6801 9.67697C16.7145 9.79141 16.7602 9.88296 16.9548 10.0775L21.5894 14.7922C21.7839 14.9982 21.864 15.044 21.9899 15.0783C22.0242 15.1012 22.0929 15.1012 22.1272 15.1012C22.173 15.1012 22.2302 15.1012 22.276 15.0783C22.3904 15.044 22.4705 14.9982 22.6765 14.7922L35.8022 1.43765C36.1799 1.04857 36.0311 0.453506 35.4017 0.453506H27.5629V0.476393Z" fill="#08CF65"/>
</g>
<defs>
<clipPath id="clip0_202_10944">
<rect width="37" height="24" fill="white"/>
</clipPath>
</defs>
</svg>
