<svg width="32" height="32" viewBox="0 0 32 32" fill="none" xmlns="http://www.w3.org/2000/svg">
<path d="M18.9999 16.0052C19.0003 16.8706 18.8442 17.7289 18.5391 18.5387C17.729 18.8438 16.8705 19.0001 16.0049 19.0003H15.9948C15.1034 18.9992 14.2493 18.8362 13.4613 18.5391C13.156 17.7292 12.9997 16.8708 13 16.0052V15.9948C12.9996 15.1295 13.1555 14.2714 13.4603 13.4616C14.2704 13.156 15.1291 12.9996 15.9948 13H16.005C16.8707 12.9996 17.7293 13.1559 18.5392 13.4615C18.8443 14.2712 19.0004 15.1294 19 15.9947V16.0052L18.9999 16.0052ZM27.8333 14H20.8287L25.7814 9.04694C25.3927 8.50086 24.959 7.98817 24.485 7.51422V7.51384C24.011 7.0404 23.4985 6.60715 22.9527 6.21859L17.9996 11.1717V4.16706C17.3408 4.05624 16.674 4.00036 16.006 4L15.9936 4C15.3141 4.00038 14.6486 4.05813 14 4.16706V11.1717L9.04694 6.21859C8.50107 6.60705 7.98875 7.0406 7.51534 7.51469L7.51272 7.51656C7.03952 7.98993 6.6065 8.50181 6.21812 9.04694L11.1716 14H4.16706C4.16706 14 4 15.3156 4 15.9959V16.0041C4 16.6844 4.05766 17.351 4.16706 18H11.1717L6.21822 22.9531C6.99744 24.0466 7.95344 25.0026 9.04694 25.7818L14 20.8283V27.8333C14.6581 27.9436 15.3241 27.9993 15.9913 28H16.0082C16.6755 27.9994 17.3415 27.9436 17.9995 27.8333V20.8283L22.9531 25.7818C23.4987 25.3931 24.0111 24.9597 24.485 24.4862L24.4862 24.485C24.9595 24.0111 25.3927 23.4986 25.7814 22.9531L20.8279 18H27.8333C27.9423 17.3522 27.9993 16.6875 28 16.0087V15.9913C27.9993 15.3125 27.9423 14.6478 27.8333 14Z" fill="#FF4A00"/>
</svg>
