<svg width="32" height="32" viewBox="0 0 32 32" fill="none" xmlns="http://www.w3.org/2000/svg">
<path d="M15.0862 11.4209V24.6665H4L15.0862 11.4209Z" fill="#03363D"/>
<path d="M15.0862 6.66666C15.0862 8.12152 14.5022 9.51679 13.4627 10.5455C12.4232 11.5743 11.0132 12.1522 9.54312 12.1522C8.07299 12.1522 6.66308 11.5743 5.62354 10.5455C4.584 9.51679 4 8.12152 4 6.66666H15.0862Z" fill="#03363D"/>
<path d="M16.9126 24.6666C16.9126 23.2118 17.4966 21.8165 18.5361 20.7877C19.5757 19.759 20.9856 19.1811 22.4557 19.1811C23.9258 19.1811 25.3357 19.759 26.3753 20.7877C27.4148 21.8165 27.9988 23.2118 27.9988 24.6666H16.9126Z" fill="#03363D"/>
<path d="M16.9126 19.9123V6.66666H28L16.9126 19.9123Z" fill="#03363D"/>
</svg>
